<?xml version="1.0" encoding="utf-8"?>
<!-- Generator: Adobe Illustrator 24.0.1, SVG Export Plug-In . SVG Version: 6.00 Build 0)  -->
<svg version="1.1" id="Layer_1" xmlns="http://www.w3.org/2000/svg" xmlns:xlink="http://www.w3.org/1999/xlink" x="0px" y="0px"
	 viewBox="0 0 711.2 46.9" style="enable-background:new 0 0 711.2 46.9;" xml:space="preserve">
<style type="text/css">
	.st0{font-family:'HKGrotesk-Regular';}
	.st1{font-size:10px;}
	.st2{fill:#0000FF;}
	.st3{fill:#00095E;}
	.st4{fill:#FF0000;}
	.st5{fill:#FFFFFF;}
	.st6{fill:none;stroke:#1D1D1B;stroke-width:0.25;stroke-miterlimit:10;}
	.st7{fill:#1D1D1B;}
	.st8{fill:none;stroke:#1D1D1B;stroke-width:0.2596;stroke-miterlimit:10;}
	.st9{fill:none;stroke:#1D1D1B;stroke-width:0.2596;stroke-miterlimit:10;stroke-dasharray:1.1151,1.1151;}
	.st10{fill:none;stroke:#1D1D1B;stroke-width:0.2596;stroke-miterlimit:10;stroke-dasharray:0.7582,0.7582;}
	.st11{fill:#7F0000;}
</style>
<g id="Group_304" transform="translate(102 12.576)">
	<g id="Group_306">
		<g id="Group_312">
			<text transform="matrix(1 0 0 1 -66.7423 23.2757)" class="st0 st1">Nebbia astratta</text>
			<path id="Rectangle_179" class="st2" d="M-82.2,15.1h8c2.5,0,4.5,2,4.5,4.5l0,0c0,2.5-2,4.5-4.5,4.5h-8c-2.5,0-4.5-2-4.5-4.5l0,0
				C-86.7,17.1-84.7,15.1-82.2,15.1z"/>
		</g>
	</g>
	<g id="Group_307" transform="translate(-9)">
		<text transform="matrix(1 0 0 1 46.4891 23.2757)" class="st0 st1">Nebbia concreta</text>
		<path id="Rectangle_180" class="st3" d="M31,15.1h8c2.5,0,4.5,2,4.5,4.5l0,0c0,2.5-2,4.5-4.5,4.5h-8c-2.5,0-4.5-2-4.5-4.5l0,0
			C26.5,17.1,28.5,15.1,31,15.1z"/>
	</g>
	<g id="Group_308" transform="translate(-18)">
		<text transform="matrix(1 0 0 1 166.9253 23.2757)" class="st0 st1">Cancellazione astratta</text>
		<path id="Rectangle_181" class="st4" d="M151,15.1h8c2.5,0,4.5,2,4.5,4.5l0,0c0,2.5-2,4.5-4.5,4.5h-8c-2.5,0-4.5-2-4.5-4.5l0,0
			C146.5,17.1,148.5,15.1,151,15.1z"/>
	</g>
	<g id="Group_305" transform="translate(8350 -9660.325)">
		<g id="dimensione" transform="translate(-8032 9661.423)">
			<g id="dimensione-X" transform="translate(0 0)">
				<g id="Group-7">
					<text transform="matrix(1 0 0 1 139.5023 21.9709)" class="st0 st1">Numero di occorrenze nel tempo</text>
					<g>
						<g>
							<line class="st5" x1="127" y1="-7.4" x2="127" y2="23"/>
							<g>
								<line class="st6" x1="127" y1="-7.2" x2="127" y2="22.9"/>
								<g>
									<rect x="126.2" y="-7.4" class="st7" width="1.6" height="0.2"/>
								</g>
								<g>
									<rect x="126.2" y="22.8" class="st7" width="1.6" height="0.2"/>
								</g>
							</g>
						</g>
						<g>
							<line class="st5" x1="109.9" y1="-7.4" x2="125.4" y2="-7.4"/>
							<g>
								<line class="st8" x1="109.9" y1="-7.4" x2="110.4" y2="-7.4"/>
								<line class="st9" x1="111.5" y1="-7.4" x2="124.4" y2="-7.4"/>
								<line class="st8" x1="124.9" y1="-7.4" x2="125.4" y2="-7.4"/>
							</g>
						</g>
						<path class="st6" d="M109.9-7.4c-6.1,0-6.1,25.9-12.2,25.9c-6.1,0-6.1,4.5-12.2,4.5h36.7C116,23,116-7.4,109.9-7.4z"/>
						<g>
							<line class="st5" x1="122.1" y1="23" x2="125.4" y2="23"/>
							<g>
								<line class="st8" x1="122.1" y1="23" x2="122.6" y2="23"/>
								<line class="st10" x1="123.4" y1="23" x2="124.5" y2="23"/>
								<line class="st8" x1="124.9" y1="23" x2="125.4" y2="23"/>
							</g>
						</g>
					</g>
				</g>
			</g>
		</g>
	</g>
	<g id="Group_309" transform="translate(-27)">
		<text transform="matrix(1 0 0 1 315.722 23.2757)" class="st0 st1">Cancellazione concreta</text>
		<path id="Rectangle_182" class="st11" d="M299.8,15.1h8c2.5,0,4.5,2,4.5,4.5l0,0c0,2.5-2,4.5-4.5,4.5h-8c-2.5,0-4.5-2-4.5-4.5l0,0
			C295.3,17.1,297.3,15.1,299.8,15.1z"/>
	</g>
</g>
</svg>
