<?xml version="1.0" encoding="utf-8"?>
<!-- Generator: Adobe Illustrator 24.0.3, SVG Export Plug-In . SVG Version: 6.00 Build 0)  -->
<svg version="1.1" xmlns="http://www.w3.org/2000/svg" xmlns:xlink="http://www.w3.org/1999/xlink" x="0px" y="0px"
	 viewBox="0 0 511.1 46.9" style="enable-background:new 0 0 511.1 46.9;" xml:space="preserve">
<style type="text/css">
	.st0{font-family:'HKGrotesk-Regular';}
	.st1{font-size:10px;}
	.st2{fill:none;}
	.st3{fill:none;stroke:#1D1D1B;stroke-width:0.25;stroke-miterlimit:10;}
	.st4{fill:#1D1D1B;}
	.st5{fill:none;stroke:#1D1D1B;stroke-width:0.2596;stroke-miterlimit:10;}
	.st6{fill:none;stroke:#1D1D1B;stroke-width:0.2596;stroke-miterlimit:10;stroke-dasharray:1.1151,1.1151;}
	.st7{fill:none;stroke:#1D1D1B;stroke-width:0.2596;stroke-miterlimit:10;stroke-dasharray:0.7582,0.7582;}
	.st8{fill:#5151FC;}
	.st9{fill:#FF3366;}
	.st10{fill:#00C19C;}
	.st11{fill:#FFD93B;}
</style>
<g id="Layer_1">
	<g id="Group_304" transform="translate(102 12.576)">
		<g id="Group_305" transform="translate(8350 -9660.325)">
			<g id="dimensione" transform="translate(-8032 9661.423)">
				<g id="dimensione-X" transform="translate(0 0)">
					<g id="Group-7">
						<text transform="matrix(1 0 0 1 -27.7977 21.9709)" class="st0 st1">Numero di elenchi nel testo</text>
						<g>
							<g>
								<line class="st2" x1="-40.3" y1="-7.4" x2="-40.3" y2="23"/>
								<g>
									<line class="st3" x1="-40.3" y1="-7.2" x2="-40.3" y2="22.9"/>
									<g>
										<rect x="-41.1" y="-7.4" class="st4" width="1.6" height="0.2"/>
									</g>
									<g>
										<rect x="-41.1" y="22.8" class="st4" width="1.6" height="0.2"/>
									</g>
								</g>
							</g>
							<g>
								<line class="st2" x1="-57.4" y1="-7.4" x2="-41.9" y2="-7.4"/>
								<g>
									<line class="st5" x1="-57.4" y1="-7.4" x2="-56.9" y2="-7.4"/>
									<line class="st6" x1="-55.8" y1="-7.4" x2="-42.9" y2="-7.4"/>
									<line class="st5" x1="-42.4" y1="-7.4" x2="-41.9" y2="-7.4"/>
								</g>
							</g>
							<path class="st3" d="M-57.4-7.4c-6.1,0-6.1,25.9-12.2,25.9S-75.7,23-81.8,23h36.7C-51.3,23-51.3-7.4-57.4-7.4z"/>
							<g>
								<line class="st2" x1="-45.2" y1="23" x2="-41.9" y2="23"/>
								<g>
									<line class="st5" x1="-45.2" y1="23" x2="-44.7" y2="23"/>
									<line class="st7" x1="-43.9" y1="23" x2="-42.8" y2="23"/>
									<line class="st5" x1="-42.4" y1="23" x2="-41.9" y2="23"/>
								</g>
							</g>
						</g>
					</g>
				</g>
			</g>
		</g>
		<g id="Group_306">
			<g id="Group_312">
				<text transform="matrix(1 0 0 1 -82.0423 23.2757)" class="st0 st1">Frasi</text>
				<path id="Rectangle_179" class="st8" d="M-97.5,15.1h8c2.5,0,4.5,2,4.5,4.5l0,0c0,2.5-2,4.5-4.5,4.5h-8c-2.5,0-4.5-2-4.5-4.5
					l0,0C-102,17.1-100,15.1-97.5,15.1z"/>
			</g>
		</g>
		<g id="Group_307" transform="translate(-9)">
			<text transform="matrix(1 0 0 1 3.1891 23.2757)" class="st0 st1">Misto</text>
			<path id="Rectangle_180" class="st9" d="M-12.3,15.1h8c2.5,0,4.5,2,4.5,4.5l0,0c0,2.5-2,4.5-4.5,4.5h-8c-2.5,0-4.5-2-4.5-4.5l0,0
				C-16.8,17.1-14.8,15.1-12.3,15.1z"/>
		</g>
		<g id="Group_308" transform="translate(-18)">
			<text transform="matrix(1 0 0 1 91.6253 23.2757)" class="st0 st1">Parole</text>
			<path id="Rectangle_181" class="st10" d="M75.7,15.1h8c2.5,0,4.5,2,4.5,4.5l0,0c0,2.5-2,4.5-4.5,4.5h-8c-2.5,0-4.5-2-4.5-4.5l0,0
				C71.2,17.1,73.2,15.1,75.7,15.1z"/>
		</g>
		<g id="Group_309" transform="translate(-27)">
			<text transform="matrix(1 0 0 1 184.422 23.2757)" class="st0 st1">Sintagmi</text>
			<path id="Rectangle_182" class="st11" d="M168.5,15.1h8c2.5,0,4.5,2,4.5,4.5l0,0c0,2.5-2,4.5-4.5,4.5h-8c-2.5,0-4.5-2-4.5-4.5
				l0,0C164,17.1,166,15.1,168.5,15.1z"/>
		</g>
	</g>
</g>
<g id="Isolation_Mode">
</g>
</svg>
