<?xml version="1.0" encoding="utf-8"?>
<!-- Generator: Adobe Illustrator 23.1.1, SVG Export Plug-In . SVG Version: 6.00 Build 0)  -->
<svg version="1.1" xmlns="http://www.w3.org/2000/svg" xmlns:xlink="http://www.w3.org/1999/xlink" x="0px" y="0px"
	 viewBox="0 0 1024 443.5" style="enable-background:new 0 0 1024 443.5;" xml:space="preserve">
<style type="text/css">
	.st0{fill:#404040;}
	.st1{font-family:'HKGrotesk-Bold';}
	.st2{font-size:10px;}
	.st3{fill:none;stroke:#444444;stroke-width:0.25;stroke-dasharray:1.9,1.9;}
	.st4{fill:none;stroke:#666666;stroke-width:2;}
	.st5{font-family:'HKGrotesk-Regular';}
	.st6{font-size:8px;}
	.st7{fill:none;stroke:#CCCCCC;stroke-width:2.5;}
	.st8{fill:none;stroke:#666666;stroke-width:2.5;}
	.st9{fill:#CCCCCC;stroke:#FFFFFF;stroke-width:0.5;}
	.st10{fill:#666666;stroke:#FFFFFF;stroke-width:0.5;}
	.st11{fill:none;stroke:#000000;stroke-width:0.25;}
	.st12{font-size:9px;}
	.st13{fill:#FFA500;stroke:#FFFFFF;stroke-width:0.5;}
	.st14{fill:#00C19C;stroke:#FFFFFF;stroke-width:0.5;}
	.st15{fill:#FF6C39;stroke:#FFFFFF;stroke-width:0.25;stroke-linejoin:round;}
	.st16{display:none;}
	.st17{display:inline;}
	.st18{display:inline;fill:#FFA500;stroke:#FFFFFF;stroke-width:0.5;}
	.st19{display:inline;fill:#00C19C;stroke:#FFFFFF;stroke-width:0.5;}
	.st20{display:inline;fill:#FF6C39;stroke:#FFFFFF;stroke-width:0.25;}
	.st21{display:inline;fill:#C6CACF;stroke:#FFFFFF;stroke-width:0.25;}
	.st22{display:inline;fill:#5151FC;stroke:#FFFFFF;stroke-width:0.25;stroke-linejoin:round;}
	.st23{display:inline;fill:#BBBBFF;stroke:#FFFFFF;stroke-width:0.25;stroke-linejoin:round;}
	.st24{fill:none;stroke:#00C19C;stroke-width:3.6447;}
	.st25{fill:none;stroke:#00C19C;stroke-width:2.5;}
	.st26{fill:#00C19C;stroke:#FFFFFF;stroke-width:1.2526;}
	.st27{fill:#FF6C39;stroke:#FFFFFF;stroke-width:1.2526;}
	.st28{fill:#FFA500;stroke:#FFFFFF;stroke-width:1.2526;}
	.st29{fill:#00C19C;}
	.st30{enable-background:new    ;}
	.st31{fill:#FF6C39;}
	.st32{fill:#FFA500;}
	.st33{font-size:12px;}
</style>
<g id="legenda">
	<g id="BOTTONI" transform="translate(50.25 294)">
		<text transform="matrix(1 0 0 1 -0.25 -81.459)" class="st0 st1 st2">LUOGHI CONTENITORI</text>
	</g>
	<g id="Group_314" transform="translate(49.383 343.848)">
		<line id="Line_131" class="st3" x1="14.5" y1="-32" x2="14.5" y2="-42.4"/>
		<line id="Line_104" class="st4" x1="40.3" y1="-53" x2="57.5" y2="-52.9"/>
		<text transform="matrix(1 0 0 1 0.617 -84.307)" class="st5 st6">livello 1</text>
		<text transform="matrix(1 0 0 1 37.258 -84.307)" class="st5 st6">2</text>
		<text transform="matrix(1 0 0 1 54.514 -84.307)" class="st5 st6">3</text>
		<text transform="matrix(1 0 0 1 6.723 -26.983)" class="st5 st6">luoghi</text>
		<path id="Path_74" class="st7" d="M21.9-45.3c-3.8,3.8-9.9,3.8-13.7,0C4.4-49,4.4-55.2,8.2-59c3.8-3.8,9.9-3.8,13.7,0l0,0"/>
		<path id="Path_76" class="st4" d="M36.4-64.5c4.7,7.6,4.7,17.2,0,24.8"/>
		<path id="Path_78" class="st4" d="M56.4-61c1.1,4.9,1.1,10.1,0,15"/>
		<path id="Path_79" class="st8" d="M21.9-59c3.8,3.8,3.8,9.9,0,13.7c0,0,0,0,0,0"/>
		<circle id="Ellipse_2" class="st9" cx="14.5" cy="-61.9" r="1.4"/>
		<circle id="Ellipse_4" class="st9" cx="14.5" cy="-42.4" r="1.4"/>
		<circle id="Ellipse_4-2" class="st9" cx="5.3" cy="-51.5" r="1.4"/>
		<line id="Line_112" class="st4" x1="25.2" y1="-53.1" x2="40.3" y2="-53"/>
		<circle id="Ellipse_6" class="st10" cx="24.7" cy="-52.9" r="1.4"/>
		<circle id="Ellipse_7" class="st10" cx="39.9" cy="-53" r="1.4"/>
		<circle id="Ellipse_8" class="st9" cx="36.5" cy="-39.7" r="1.4"/>
		<circle id="Ellipse_9" class="st10" cx="36.6" cy="-64.5" r="1.4"/>
		<circle id="Ellipse_10" class="st9" cx="56.7" cy="-60.6" r="1.4"/>
		<circle id="Ellipse_11" class="st10" cx="56.4" cy="-46.1" r="1.4"/>
		<line id="Line_115" class="st11" x1="25.2" y1="-64" x2="25.2" y2="-82.6"/>
		<line id="Line_116" class="st11" x1="39" y1="-68.5" x2="39" y2="-82.6"/>
		<line id="Line_117" class="st11" x1="55.9" y1="-65.5" x2="55.9" y2="-82.6"/>
		<text transform="matrix(1 0 0 1 0.617 -114.307)" class="st5 st12">Relazione gerarchica dei luoghi </text>
		<text transform="matrix(1 0 0 1 0.617 -103.507)" class="st5 st12">contengono.    </text>
	</g>
	<g id="Group_315" transform="translate(-20 -42)">
		<g id="BOTTONI-2" transform="translate(70.25 439)">
			<text transform="matrix(1 0 0 1 -0.25 -39.459)" class="st0 st1 st2">TIPOLOGIE DI LUOGHI</text>
		</g>
		<text transform="matrix(1 0 0 1 93.5 434.636)" class="st5 st12">Nominati terrestri</text>
		<text transform="matrix(1 0 0 1 93.5 415.035)" class="st5 st12">Generici terrestri</text>
		<path id="Oval" class="st13" d="M76.2,407c3.4,0,6.2,2.8,6.2,6.2s-2.8,6.2-6.2,6.2s-6.2-2.8-6.2-6.2l0,0
			C70,409.8,72.8,407.1,76.2,407z"/>
		<path id="Oval-2" class="st14" d="M76.2,426c3.4,0,6.2,2.8,6.2,6.2s-2.8,6.2-6.2,6.2s-6.2-2.8-6.2-6.2c0,0,0,0,0,0l0,0
			C70,428.8,72.8,426.1,76.2,426z"/>
		<text transform="matrix(1 0 0 1 93.5 454.035)" class="st5 st12">Inventati</text>
		<circle id="Oval-6" class="st15" cx="76.2" cy="452.2" r="6.2"/>
	</g>
</g>
<g id="Le_citta_invisibili">
	<g id="arcs_e_nodi">
		<circle class="st24" cx="628.6" cy="221.8" r="42.2"/>
		<g transform="translate(5372.948974609375,-4725.7568359375)">
			<path class="st25" d="M-4581.4,4958.2c-4.9,90.8-82.5,160.4-173.3,155.5c-90.8-4.9-160.4-82.5-155.5-173.3
				c4.9-90.8,82.5-160.4,173.3-155.5c83.9,4.6,151,71.6,155.5,155.5l-0.4,0c-4.9-90.6-82.3-160-172.9-155.1
				c-90.6,4.9-160,82.3-155.1,172.9c4.9,90.6,82.3,160,172.9,155.1c83.7-4.5,150.6-71.4,155.1-155.1L-4581.4,4958.2z"/>
			<line class="st24" x1="-4826.5" y1="4949.3" x2="-4839.2" y2="4949.3"/>
			<line class="st24" x1="-4886.1" y1="4949.3" x2="-4910.1" y2="4949.3"/>
			<line class="st25" x1="-4488.8" y1="4935.7" x2="-4469.4" y2="4934.7"/>
			<circle class="st26" cx="-4786.5" cy="4949.3" r="2"/>
			<circle class="st26" cx="-4839.2" cy="4949.3" r="2"/>
			<circle class="st27" cx="-4581.8" cy="4958.2" r="2"/>
			<circle class="st27" cx="-4583.8" cy="4975.9" r="2"/>
			<circle class="st27" cx="-4587.6" cy="4993.2" r="2"/>
			<circle class="st27" cx="-4593.3" cy="5010.1" r="2"/>
			<circle class="st27" cx="-4600.7" cy="5026.2" r="2"/>
			<circle class="st27" cx="-4609.9" cy="5041.5" r="2"/>
			<circle class="st27" cx="-4620.7" cy="5055.6" r="2"/>
			<circle class="st27" cx="-4632.9" cy="5068.5" r="2"/>
			<circle class="st27" cx="-4646.4" cy="5080.1" r="2"/>
			<circle class="st27" cx="-4661.2" cy="5090" r="2"/>
			<circle class="st27" cx="-4676.9" cy="5098.4" r="2"/>
			<circle class="st27" cx="-4693.4" cy="5104.9" r="2"/>
			<circle class="st27" cx="-4710.5" cy="5109.7" r="2"/>
			<circle class="st27" cx="-4728.1" cy="5112.6" r="2"/>
			<circle class="st27" cx="-4745.9" cy="5113.5" r="2"/>
			<circle class="st27" cx="-4763.6" cy="5112.6" r="2"/>
			<circle class="st27" cx="-4781.2" cy="5109.7" r="2"/>
			<circle class="st27" cx="-4798.3" cy="5104.9" r="2"/>
			<circle class="st27" cx="-4814.8" cy="5098.4" r="2"/>
			<circle class="st27" cx="-4830.5" cy="5090" r="2"/>
			<circle class="st27" cx="-4845.3" cy="5080.1" r="2"/>
			<circle class="st27" cx="-4858.8" cy="5068.5" r="2"/>
			<circle class="st27" cx="-4871" cy="5055.6" r="2"/>
			<circle class="st27" cx="-4881.8" cy="5041.5" r="2"/>
			<circle class="st27" cx="-4891" cy="5026.2" r="2"/>
			<circle class="st27" cx="-4898.4" cy="5010.1" r="2"/>
			<circle class="st27" cx="-4904.1" cy="4993.2" r="2"/>
			<circle class="st27" cx="-4907.9" cy="4975.9" r="2"/>
			<circle class="st27" cx="-4909.9" cy="4958.2" r="2"/>
			<circle class="st27" cx="-4909.9" cy="4940.4" r="2"/>
			<circle class="st27" cx="-4907.9" cy="4922.7" r="2"/>
			<circle class="st27" cx="-4904.1" cy="4905.3" r="2"/>
			<circle class="st27" cx="-4898.4" cy="4888.5" r="2"/>
			<circle class="st27" cx="-4891" cy="4872.3" r="2"/>
			<circle class="st27" cx="-4881.8" cy="4857.1" r="2"/>
			<circle class="st27" cx="-4871" cy="4843" r="2"/>
			<circle class="st27" cx="-4858.8" cy="4830" r="2"/>
			<circle class="st27" cx="-4845.3" cy="4818.5" r="2"/>
			<circle class="st27" cx="-4830.5" cy="4808.5" r="2"/>
			<circle class="st27" cx="-4814.8" cy="4800.2" r="2"/>
			<circle class="st27" cx="-4798.3" cy="4793.6" r="2"/>
			<circle class="st27" cx="-4781.2" cy="4788.9" r="2"/>
			<circle class="st27" cx="-4763.6" cy="4786" r="2"/>
			<circle class="st27" cx="-4745.9" cy="4785" r="2"/>
			<circle class="st27" cx="-4728.1" cy="4786" r="2"/>
			<circle class="st27" cx="-4710.5" cy="4788.9" r="2"/>
			<circle class="st27" cx="-4693.4" cy="4793.6" r="2"/>
			<circle class="st27" cx="-4676.9" cy="4800.2" r="2"/>
			<circle class="st27" cx="-4661.2" cy="4808.5" r="2"/>
			<circle class="st27" cx="-4646.4" cy="4818.5" r="2"/>
			<circle class="st27" cx="-4632.9" cy="4830" r="2"/>
			<circle class="st27" cx="-4620.7" cy="4843" r="2"/>
			<circle class="st27" cx="-4609.9" cy="4857.1" r="2"/>
			<circle class="st27" cx="-4600.7" cy="4872.3" r="2"/>
			<circle class="st27" cx="-4593.3" cy="4888.5" r="2"/>
			<circle class="st27" cx="-4587.6" cy="4905.3" r="2"/>
			<circle class="st27" cx="-4583.8" cy="4922.7" r="2"/>
			<circle class="st26" cx="-4581.8" cy="4943.2" r="2"/>
			<circle class="st28" cx="-4469.3" cy="4934.6" r="2"/>
		</g>
	</g>
	<g id="labels">
		<g>
			<text transform="matrix(1 0 0 1 549.0686 225.5332)" class="st29 st5 st2">Levante</text>
		</g>
		<g>
			<text transform="matrix(1 0 0 1 495.1463 225.5361)" class="st30"><tspan x="0" y="0" class="st29 st5 st2">Impero </tspan><tspan x="-2" y="12" class="st29 st5 st2">mongolo</tspan></text>
		</g>
		<g>
			<text transform="matrix(0.9985 5.414018e-02 -5.414018e-02 0.9985 801.605 236.2357)" class="st31 st5 st2">Smeraldina</text>
		</g>
		<g>
			<text transform="matrix(0.9868 0.1618 -0.1618 0.9868 799.0272 255.0884)" class="st31 st5 st2">Leonia</text>
		</g>
		<g>
			<text transform="matrix(0.9635 0.2675 -0.2675 0.9635 795.1021 273.7248)" class="st31 st5 st2">Marozia</text>
		</g>
		<g>
			<text transform="matrix(0.929 0.3701 -0.3701 0.929 787.6521 292.2695)" class="st31 st5 st2">Maurilia</text>
		</g>
		<g>
			<text transform="matrix(0.8835 0.4684 -0.4684 0.8835 779.6909 308.7284)" class="st31 st5 st2">Melania</text>
		</g>
		<g>
			<text transform="matrix(0.8277 0.5612 -0.5612 0.8277 769.4308 325.2634)" class="st31 st5 st2">Moriana</text>
		</g>
		<g>
			<text transform="matrix(0.7622 0.6474 -0.6474 0.7622 756.6125 341.2415)" class="st31 st5 st2">Olinda</text>
		</g>
		<g>
			<text transform="matrix(0.6877 0.726 -0.726 0.6877 744.7137 352.7557)" class="st31 st5 st2">Olivia</text>
		</g>
		<g>
			<text transform="matrix(0.6052 0.7961 -0.7961 0.6052 728.7504 365.8198)" class="st31 st5 st2">Ottavia</text>
		</g>
		<g>
			<text transform="matrix(0.5155 0.8569 -0.8569 0.5155 714.5699 375.2207)" class="st31 st5 st2">Pentesilea</text>
		</g>
		<g>
			<text transform="matrix(0.4199 0.9076 -0.9076 0.4199 697.6097 383.9504)" class="st31 st5 st2">Perinzia</text>
		</g>
		<g>
			<text transform="matrix(0.3193 0.9477 -0.9477 0.3193 679.5462 390.9086)" class="st31 st5 st2">Pirra</text>
		</g>
		<g>
			<text transform="matrix(0.215 0.9766 -0.9766 0.215 660.8678 395.212)" class="st31 st5 st2">Procopia</text>
		</g>
		<g>
			<text transform="matrix(0.1081 0.9941 -0.9941 0.1081 642.4084 398.292)" class="st31 st5 st2">Quinsai</text>
		</g>
		<g>
			<text transform="matrix(0 1 -1 0 624.1067 398.2923)" class="st31 st5 st2">Raissa</text>
		</g>
		<g>
			<text transform="matrix(0.1081 -0.9941 0.9941 0.1081 606.9647 430.6772)" class="st31 st5 st2">Aglaura</text>
		</g>
		<g>
			<text transform="matrix(0.215 -0.9766 0.9766 0.215 584.1327 430.6767)" class="st31 st5 st2">Sofronia</text>
		</g>
		<g>
			<text transform="matrix(0.3193 -0.9477 0.9477 0.3193 562.2726 421.1664)" class="st31 st5 st2">Tamara</text>
		</g>
		<g>
			<text transform="matrix(0.4199 -0.9076 0.9076 0.4199 544.6491 403.4299)" class="st31 st5 st2">Tecla</text>
		</g>
		<g>
			<text transform="matrix(0.5155 -0.8569 0.8569 0.5155 520.3354 405.5074)" class="st31 st5 st2">Teodora</text>
		</g>
		<g>
			<text transform="matrix(0.6052 -0.7961 0.7961 0.6052 507.773 385.2868)" class="st31 st5 st2">Trude</text>
		</g>
		<g>
			<text transform="matrix(0.6877 -0.726 0.726 0.6877 480.4329 379.1924)" class="st31 st5 st2">Valdrada</text>
		</g>
		<g>
			<text transform="matrix(0.7622 -0.6474 0.6474 0.7622 476.8436 352.756)" class="st31 st5 st2">Zaira</text>
		</g>
		<g>
			<text transform="matrix(0.8277 -0.5612 0.5612 0.8277 450.2823 344.325)" class="st31 st5 st2">Zemrude</text>
		</g>
		<g>
			<text transform="matrix(0.8835 -0.4684 0.4684 0.8835 441.5063 322.6537)" class="st31 st5 st2">Zenobia</text>
		</g>
		<g>
			<text transform="matrix(0.929 -0.3701 0.3701 0.929 440.0476 298.9311)" class="st31 st5 st2">Zirma</text>
		</g>
		<g>
			<text transform="matrix(0.9635 -0.2675 0.2675 0.9635 424.8396 281.3566)" class="st31 st5 st2">Zobeide</text>
		</g>
		<g>
			<text transform="matrix(0.9868 -0.1618 0.1618 0.9868 437.4727 257.1439)" class="st31 st5 st2">Zoe</text>
		</g>
		<g>
			<text transform="matrix(0.9985 -5.414018e-02 5.414018e-02 0.9985 430.6025 235.3803)" class="st31 st5 st2">Zora</text>
		</g>
		<g>
			<text transform="matrix(0.9985 5.414018e-02 -5.414018e-02 0.9985 409.4393 213.137)" class="st31 st5 st2">Laudomia</text>
		</g>
		<g>
			<text transform="matrix(0.9868 0.1618 -0.1618 0.9868 421.4656 192.1498)" class="st31 st5 st2">Adelma</text>
		</g>
		<g>
			<text transform="matrix(0.9635 0.2675 -0.2675 0.9635 418.2128 167.7074)" class="st31 st5 st2">Anastasia</text>
		</g>
		<g>
			<text transform="matrix(0.929 0.3701 -0.3701 0.929 436.7744 150.7717)" class="st31 st5 st2">Andria</text>
		</g>
		<g>
			<text transform="matrix(0.8835 0.4684 -0.4684 0.8835 451.1012 132.8934)" class="st31 st5 st2">Argia</text>
		</g>
		<g>
			<text transform="matrix(0.8277 0.5612 -0.5612 0.8277 455.3514 109.8133)" class="st31 st5 st2">Armilla</text>
		</g>
		<g>
			<text transform="matrix(0.7622 0.6474 -0.6474 0.7622 473.7316 96.9462)" class="st31 st5 st2">Bauci</text>
		</g>
		<g>
			<text transform="matrix(0.6877 0.726 -0.726 0.6877 480.4322 69.4128)" class="st31 st5 st2">Berenice</text>
		</g>
		<g>
			<text transform="matrix(0.6052 0.7961 -0.7961 0.6052 495.6777 53.8068)" class="st31 st5 st2">Bersabea</text>
		</g>
		<g>
			<text transform="matrix(0.5155 0.8569 -0.8569 0.5155 520.3357 49.6728)" class="st31 st5 st2">Cecilia</text>
		</g>
		<g>
			<text transform="matrix(0.4199 0.9076 -0.9076 0.4199 538.9487 37.6021)" class="st31 st5 st2">Clarice</text>
		</g>
		<g>
			<text transform="matrix(0.3193 0.9477 -0.9477 0.3193 563.5543 38.7326)" class="st31 st5 st2">Cloe</text>
		</g>
		<g>
			<text transform="matrix(0.215 0.9766 -0.9766 0.215 579.5238 19.5211)" class="st31 st5 st2">Despina</text>
		</g>
		<g>
			<text transform="matrix(0.1081 0.9941 -0.9941 0.1081 601.4894 16.0351)" class="st31 st5 st2">Diomira</text>
		</g>
		<g>
			<text transform="matrix(0 -1 1 0 630.4108 49.6728)" class="st31 st5 st2">Dorotea</text>
		</g>
		<g>
			<text transform="matrix(0.1081 -0.9941 0.9941 0.1081 649.1139 50.5024)" class="st31 st5 st2">Ersilia</text>
		</g>
		<g>
			<text transform="matrix(0.215 -0.9766 0.9766 0.215 667.2476 53.8066)" class="st31 st5 st2">Eudossia</text>
		</g>
		<g>
			<text transform="matrix(0.3193 -0.9477 0.9477 0.3193 685.2305 58.8589)" class="st31 st5 st2">Eufemia</text>
		</g>
		<g>
			<text transform="matrix(0.4199 -0.9076 0.9076 0.4199 703.7615 66.3317)" class="st31 st5 st2">Eusapia</text>
		</g>
		<g>
			<text transform="matrix(0.5155 -0.8569 0.8569 0.5155 721.0035 75.9967)" class="st31 st5 st2">Eutropia</text>
		</g>
		<g>
			<text transform="matrix(0.6052 -0.7961 0.7961 0.6052 735.6418 86.4338)" class="st31 st5 st2">Fedora</text>
		</g>
		<g>
			<text transform="matrix(0.6877 -0.726 0.726 0.6877 749.2006 98.5415)" class="st31 st5 st2">Fillide</text>
		</g>
		<g>
			<text transform="matrix(0.7622 -0.6474 0.6474 0.7622 762.1843 112.6159)" class="st31 st5 st2">Ipazia</text>
		</g>
		<g>
			<text transform="matrix(0.8277 -0.5612 0.5612 0.8277 773.0246 126.9371)" class="st31 st5 st2">Irene</text>
		</g>
		<g>
			<text transform="matrix(0.8835 -0.4684 0.4684 0.8835 782.6558 143.417)" class="st31 st5 st2">Isaura</text>
		</g>
		<g>
			<text transform="matrix(0.929 -0.3701 0.3701 0.929 790.7341 161.1932)" class="st31 st5 st2">Isidora</text>
		</g>
		<g>
			<text transform="matrix(0.9635 -0.2675 0.2675 0.9635 796.1487 179.5885)" class="st31 st5 st2">Lalage</text>
		</g>
		<g>
			<text transform="matrix(0.9868 -0.1618 0.1618 0.9868 800.1979 198.4991)" class="st31 st5 st2">Leandra</text>
		</g>
		<g>
			<text transform="matrix(0.9985 -5.414018e-02 5.414018e-02 0.9985 907.1818 210.4731)" class="st32 st5 st2">giardino</text>
		</g>
		<g>
			<text transform="matrix(0.9985 -5.414018e-02 5.414018e-02 0.9985 802.8438 217.1074)" class="st29 st5 st2">reggia di Kemenfù</text>
		</g>
	</g>
	<g id="titoli">
		<g id="Group_316_1_" transform="translate(0 -42)">
			<g id="BOTTONI_2_" transform="translate(50.25 294)">
				<text transform="matrix(1 0 0 1 557.0173 -39.4585)" class="st30"><tspan x="0" y="0" class="st0 st1 st33">Le città</tspan><tspan x="-2.2" y="16" class="st0 st1 st33">invisibili</tspan><tspan x="6.2" y="32" class="st0 st5 st33">1972</tspan></text>
			</g>
		</g>
	</g>
</g>
</svg>
