<svg xmlns="http://www.w3.org/2000/svg" width="106.279" height="35.995" viewBox="0 0 106.279 35.995"><g transform="translate(5.504 -0.03)"><path d="M97.644,33.55a1.808,1.808,0,0,0,1.468.638,1.438,1.438,0,0,0,1.618-1.368,1.4,1.4,0,0,0-.866-1.188V31.61a1.313,1.313,0,0,0,.736-1.124,1.36,1.36,0,0,0-1.5-1.31,1.94,1.94,0,0,0-1.324.631.125.125,0,0,0,0,.186l.264.235a.12.12,0,0,0,.185-.014,1.1,1.1,0,0,1,.832-.4.786.786,0,0,1,.817.78c0,.422-.337.766-1.01.766h-.4c-.1,0-.144.043-.144.149v.308a.133.133,0,0,0,.136.151h.4c.766,0,1.131.408,1.131.837a.824.824,0,0,1-.895.773,1.431,1.431,0,0,1-.974-.443.126.126,0,0,0-.194-.015l-.28.258a.126.126,0,0,0-.007.173M95.5,33.544c-.78,0-1.045-.817-.987-1.418a1.143,1.143,0,0,1,.98-.544.982.982,0,0,1,.008,1.962m-1.683-1.362c0,1.1.545,2.006,1.691,2.006a1.632,1.632,0,0,0,1.6-1.64,1.486,1.486,0,0,0-1.5-1.554,2.045,2.045,0,0,0-.953.264,2.926,2.926,0,0,1,1.7-1.582c.136-.043.165-.122.128-.207l-.121-.294a.131.131,0,0,0-.18-.086,3.4,3.4,0,0,0-2.37,3.092m-3.3.645a.91.91,0,0,1,1.818,0,.824.824,0,0,1-.915.78.837.837,0,0,1-.9-.78m.909-1.547c-.558-.086-.8-.379-.8-.766a.752.752,0,0,1,.78-.751.765.765,0,0,1,.823.751c0,.379-.251.688-.8.766m-1.655,1.532a1.454,1.454,0,0,0,1.639,1.376c1.039,0,1.67-.6,1.67-1.376a1.435,1.435,0,0,0-.868-1.2v-.028a1.315,1.315,0,0,0,.739-1.1,1.544,1.544,0,0,0-3.052,0,1.317,1.317,0,0,0,.738,1.11v.021a1.505,1.505,0,0,0-.866,1.2m-3.436,1.3h2.491a.129.129,0,0,0,.136-.128v-.309a.131.131,0,0,0-.136-.135h-.786v-4.16a.135.135,0,0,0-.129-.137h-.352l-1.065.967a.139.139,0,0,0-.021.144l.086.251a.108.108,0,0,0,.157.05l.623-.315v3.2h-1a.131.131,0,0,0-.136.135v.309a.129.129,0,0,0,.136.127m-6.524-2.5a1.858,1.858,0,1,1,1.854,1.854,1.876,1.876,0,0,1-1.854-1.854m-.716,0a2.574,2.574,0,1,0,2.57-2.584,2.555,2.555,0,0,0-2.57,2.584M73.91,33.98a.141.141,0,0,0,.136.135H74.5a.136.136,0,0,0,.136-.135V30.493h.006l3.108,3.7h.186a.136.136,0,0,0,.136-.129V29.24a.142.142,0,0,0-.136-.136h-.459a.136.136,0,0,0-.136.136v3.387h-.006l-3.108-3.595h-.178a.135.135,0,0,0-.136.129Zm-3.959-1.568.873-1.963h.037l.879,1.963Zm-1.333,1.7h.452a.18.18,0,0,0,.165-.107c.142-.33.293-.651.437-.98h2.341l.443.98a.168.168,0,0,0,.165.107h.452a.126.126,0,0,0,.122-.185L71.01,29.112a.169.169,0,0,0-.121-.079h-.073a.168.168,0,0,0-.121.079L68.5,33.93a.127.127,0,0,0,.122.185M65.24,33.98a.135.135,0,0,0,.136.135h2.549a.135.135,0,0,0,.136-.135v-.394a.136.136,0,0,0-.136-.137H65.986V29.24a.142.142,0,0,0-.138-.136h-.472a.136.136,0,0,0-.136.136Zm-2.134,0a.14.14,0,0,0,.137.135h.473a.14.14,0,0,0,.136-.135V29.24a.141.141,0,0,0-.136-.136h-.473a.141.141,0,0,0-.137.136Zm-6.565-.029a.128.128,0,0,0,.136.164h.466a.139.139,0,0,0,.128-.1l.516-3.2h.029l1.3,3.293a.128.128,0,0,0,.121.08h.129a.124.124,0,0,0,.122-.08l1.288-3.293h.021l.531,3.2a.148.148,0,0,0,.135.1h.466a.121.121,0,0,0,.129-.164l-.881-4.812a.145.145,0,0,0-.129-.108H60.93a.137.137,0,0,0-.122.079L59.319,32.77H59.29l-1.5-3.659a.147.147,0,0,0-.122-.079h-.114a.144.144,0,0,0-.129.108Z" transform="translate(-22.08 -10.32)"/><path d="M116.831,16.287a2.347,2.347,0,1,1,2.344,2.342,2.367,2.367,0,0,1-2.344-2.342m-1.329,0a3.677,3.677,0,1,0,3.673-3.692,3.649,3.649,0,0,0-3.673,3.692m-7.13,0a3.668,3.668,0,0,0,3.692,3.671,3.51,3.51,0,0,0,2.486-.992.2.2,0,0,0,.01-.276l-.634-.654a.187.187,0,0,0-.255,0,2.46,2.46,0,0,1-1.565.583,2.374,2.374,0,0,1-.01-4.745,2.425,2.425,0,0,1,1.575.6.163.163,0,0,0,.255,0l.624-.644a.19.19,0,0,0-.01-.287,3.46,3.46,0,0,0-2.476-.951,3.684,3.684,0,0,0-3.691,3.692m-2.678,3.375a.2.2,0,0,0,.193.195h.953a.2.2,0,0,0,.193-.195v-6.77a.2.2,0,0,0-.193-.195h-.953a.2.2,0,0,0-.193.195Zm-7.8,0a.2.2,0,0,0,.194.195h.931a.193.193,0,0,0,.193-.195v-4.4h.012l4.276,4.694h.245a.192.192,0,0,0,.194-.184V12.891a.2.2,0,0,0-.194-.195H102.8a.194.194,0,0,0-.2.195v4.224h-.01L98.34,12.594h-.255a.19.19,0,0,0-.194.184v6.884Zm-7.539-3.375a3.667,3.667,0,0,0,3.692,3.671,3.51,3.51,0,0,0,2.486-.992.2.2,0,0,0,.01-.276l-.634-.654a.188.188,0,0,0-.256,0,2.453,2.453,0,0,1-1.564.583,2.374,2.374,0,0,1-.012-4.745,2.42,2.42,0,0,1,1.575.6.164.164,0,0,0,.256,0l.624-.644a.19.19,0,0,0-.01-.287,3.46,3.46,0,0,0-2.476-.951,3.683,3.683,0,0,0-3.691,3.692m-5.593,3.375a.194.194,0,0,0,.194.195h4.163a.194.194,0,0,0,.194-.195v-.839a.194.194,0,0,0-.194-.195H86.087v-1.79h2.526a.194.194,0,0,0,.2-.194V15.8a.2.2,0,0,0-.2-.195H86.087V13.923h3.028a.194.194,0,0,0,.194-.195v-.838a.194.194,0,0,0-.194-.195H84.952a.194.194,0,0,0-.194.195Zm-4.266,0a.2.2,0,0,0,.194.195h.951a.2.2,0,0,0,.2-.195V13.923H83.4a.194.194,0,0,0,.2-.195V12.89a.194.194,0,0,0-.2-.195H78.928a.194.194,0,0,0-.194.195v.838a.194.194,0,0,0,.194.195h1.565v5.738Zm-4.386,0a.2.2,0,0,0,.194.195h.951a.2.2,0,0,0,.2-.195v-6.77a.2.2,0,0,0-.2-.195H76.3a.2.2,0,0,0-.194.195Zm-5.473,0a.194.194,0,0,0,.194.195H74.57a.194.194,0,0,0,.194-.195v-.839a.194.194,0,0,0-.194-.195H71.962V12.89a.2.2,0,0,0-.2-.195h-.941a.194.194,0,0,0-.194.195v6.771Zm-7.1-3.375a2.348,2.348,0,1,1,2.342,2.342,2.367,2.367,0,0,1-2.342-2.342m-1.33,0a3.677,3.677,0,1,0,3.672-3.692A3.649,3.649,0,0,0,62.2,16.287m-4.336-.276V13.954h1.186a1.021,1.021,0,0,1,1.054.991,1.055,1.055,0,0,1-1.054,1.065Zm-1.33,3.651a.194.194,0,0,0,.195.195h.941a.2.2,0,0,0,.195-.195v-2.4h1.279a2.281,2.281,0,1,0-.01-4.562h-2.4a.2.2,0,0,0-.195.195Z" transform="translate(-22.08 -4.47)"/><g transform="translate(-5.503 0.034)"><path d="M30.451,19.257l-1.592-.1m1.514.944-1.583-.185M30.26,20.92l-1.575-.245m1.422,1.074-1.561-.325m1.369,1.145-1.543-.4m1.311,1.212L28.163,22.9m1.255,1.268-1.5-.536m1.2,1.319-1.472-.609m1.13,1.378-1.44-.682m1.064,1.433-1.407-.751m.994,1.483-1.367-.818m.922,1.532-1.326-.884m.853,1.567-1.293-.931m.783,1.6-1.247-.991m.707,1.635-1.2-1.052m.629,1.668L24.3,29.42m.55,1.7-1.093-1.161m.469,1.722-1.036-1.21m.386,1.742L22.6,30.951m.3,1.761-.916-1.3m.228,1.77-.87-1.337m.153,1.773-.8-1.376m.066,1.78L20.021,32.6M20,34.386l-.668-1.448m-.1,1.781-.6-1.478m-.191,1.775-.522-1.506m-.278,1.766-.448-1.53m-.354,1.748-.391-1.545m-.43,1.729-.314-1.563m-.515,1.708-.235-1.577m-.6,1.683L14.2,34.343M13.527,36l-.1-1.592m-.745,1.619-.015-1.594m-.827,1.583.066-1.593m-.9,1.544.126-1.589m-.962,1.5.2-1.581M9.342,35.747l.285-1.569m-1.1,1.4.345-1.555M7.71,35.379l.423-1.536M6.9,35.137l.5-1.514M6.111,34.858l.573-1.487M5.341,34.545l.627-1.464M4.577,34.193l.7-1.432M3.831,33.8l.767-1.4M3.1,33.384l.835-1.358m-1.543.9.9-1.316m-1.583.828.961-1.272m-1.614.759,1.006-1.235m-1.642.686L1.49,30.192M-.185,30.8.936,29.666m-1.7.529,1.172-1.08m-1.726.446L-.1,28.54m-1.747.365,1.272-.961m-1.764.281,1.316-.9m-1.776.2,1.356-.837m-1.779.122,1.386-.788m-1.78.044,1.423-.718M-3.97,25.3l1.456-.649m-1.778-.127,1.485-.577m-1.771-.214,1.514-.5m-1.762-.3,1.535-.43m-1.745-.385,1.554-.352m-1.723-.462,1.566-.294m-1.7-.536,1.58-.216m-1.673-.62,1.588-.136m-1.643-.695,1.593-.076M-5.5,17.965l1.593,0m-1.57-.846,1.592.086m-1.532-.915,1.588.146m-1.487-.982,1.577.225m-1.439-1.056,1.564.305m-1.389-1.118,1.551.363M-4.79,13l1.531.442M-4.537,12.2l1.507.518m-1.217-1.306,1.48.591m-1.152-1.366,1.449.663M-3.561,9.884l1.424.716M-3.162,9.144l1.387.785m-.955-1.505,1.347.851m-.882-1.55,1.3.915m-.808-1.593,1.259.978m-.729-1.63L-.027,7.43M-.68,5.765.48,6.858M-.1,5.171,1.019,6.305M.514,4.6,1.578,5.783M1.153,4.054,2.161,5.289M1.817,3.54l.947,1.282M2.5,3.057l.884,1.326M3.214,2.607l.82,1.367m-.09-1.784.754,1.4M4.692,1.807l.683,1.439m.073-1.783.631,1.463m.149-1.774.56,1.492M7.024.878,7.51,2.4M7.831.641l.41,1.54M8.648.442,8.982,2M9.465.284l.274,1.57M10.3.163l.2,1.582M11.136.081l.116,1.59M11.976.038l.037,1.594m.8-1.6-.025,1.594M13.65.069l-.106,1.59M14.488.142,14.3,1.725M15.313.252l-.244,1.575M16.14.4l-.322,1.561M16.96.591l-.4,1.543m1.2-1.319L17.3,2.342M18.56,1.079l-.531,1.5m1.315-1.2-.6,1.475m1.374-1.138L19.44,3.162m1.428-1.071L20.123,3.5m1.478-1-.81,1.373m1.525-.931L21.44,4.274m1.567-.857L22.07,4.706m1.606-.782-1,1.242m1.637-.711L23.275,5.662m1.66-.64-1.1,1.156m1.69-.562-1.15,1.1m1.715-.481-1.2,1.047m1.736-.4-1.248.989m1.755-.319-1.295.929m1.767-.235-1.337.868m1.778-.153-1.378.8M28.452,9.7l-1.414.737m1.785.016-1.447.668m1.784.1-1.477.6m1.776.187-1.5.526m1.765.264-1.522.47m1.747.34L28.4,14m1.731.424-1.561.319m1.709.509-1.575.242m1.684.592L28.8,16.25m1.656.665-1.59.1m1.621.736-1.594.025m1.587.728-1.593-.055" transform="translate(5.503 -0.034)" fill="none" stroke="#000" stroke-miterlimit="10" stroke-width="0.463"/><path d="M23.816,30.491h0" transform="translate(-4.931 -10.873)" fill="#97bddc"/><path d="M23.815,30.492h0Z" transform="translate(-4.931 -10.874)" fill="#97bddc"/><path d="M23.814,30.493s0,0,0,0Z" transform="translate(-4.93 -10.874)" fill="#97bddc"/><path d="M1.263,16.582a2.2,2.2,0,0,0-.771,1.842C.5,19.635.683,21.3.181,22.2c-.038.067-.078.131-.122.194,0,0-.388.455-.063.474s.516-.006.674.173a.809.809,0,0,0,.218.189,2.071,2.071,0,0,0,.688.021m.75-6.55a2.184,2.184,0,0,0-.532,1.422c0,.87.248,2.159.243,2.458a7.765,7.765,0,0,1-.174,1.08,2.549,2.549,0,0,0,.058,1.548M.3,15.251l-.005,0c-.043.036-.352.33.129,1.066m4.33-1.193-.107.077c-.174.125-.536.383-.925.64-.541.358-1.006-.138-1.279-.337s-.858,0-1.384.074A.962.962,0,0,1,.3,15.254c-.137-.131-.238-.261-.289-.308-.124-.111-.223-.611-.087-.734s.531-.593.531-.593C1.065,12.512,1.7,12.368,1.7,12.368m5.718,7.424c-.013.032-.078.2-.093.262a3.42,3.42,0,0,0-.062.372c-.005.091,0,.209-.066.244a.775.775,0,0,1-.255.128.52.52,0,0,1-.335-.046c-.087-.071-.184-.194-.271-.262a.412.412,0,0,1-.057-.061.63.63,0,0,1-.106-.484,2.881,2.881,0,0,1,.216-.573c0-.064-.31-.89-.31-.89s-.482-.652-.562-.814A3.364,3.364,0,0,1,5,16.553a5.277,5.277,0,0,1-.145-.862,1.672,1.672,0,0,1-.05-.562c0-.079.01-.166.023-.259a12.829,12.829,0,0,0,.054-1.351c0-.031.009-.094.019-.177a4.949,4.949,0,0,1,.222-1.017,14.479,14.479,0,0,1,.747-1.4m1.551,8.86a.01.01,0,0,1,0,0M4.624,15.17l-.765-.254c-.127-.035-.864-.337-1.02-.347a2.154,2.154,0,0,1-.71-.274,1.888,1.888,0,0,1-.526-.788c.006-.106.059-.695.135-1.13.016-.1.035-.188.053-.263.1-.409.449-.544.692-.686s.508-.672.777-.839a7.183,7.183,0,0,1,1.535-.428,6.813,6.813,0,0,1,1.613-.007s.033,0,.088,0a2.112,2.112,0,0,1,.857.21,1.664,1.664,0,0,1,.281.175,1.489,1.489,0,0,1,.429.522A1.417,1.417,0,0,1,8.138,12.1a2.091,2.091,0,0,1-.281.56,1.512,1.512,0,0,1-.458.462c-.187.093-.371.134-.466.415a2.964,2.964,0,0,1-.54,1.19s-.048.014-.016.144a1.208,1.208,0,0,0,.05.146,4.331,4.331,0,0,1,.481,1.537,4.927,4.927,0,0,0,.223,1.495c.131.424.386.934.49.94A.69.69,0,0,1,8,19.146a1.756,1.756,0,0,0,.429.233c.045.017.156.068.177.125.015.038-.009.077-.113.113a.909.909,0,0,1-.5.022.668.668,0,0,0-.185-.077c-.045,0-.108.066-.148.089s-.193.065-.251.14h0a.069.069,0,0,0-.013.019M4.839,13.336c-.426.157-.868-.285-1.278-.8s-.1-.97.486-1.61A4.724,4.724,0,0,1,6.5,10.166m-.071,4.71.66-.332.52-.26s.774-.269,1.2-.458a.744.744,0,0,0,.271-.156,2.553,2.553,0,0,0,.026-.442m.164-.8a1.141,1.141,0,0,1-.2.777.688.688,0,0,1-.153.137l-.434.288m2.462-1.376s.2.219.252-.062a8.764,8.764,0,0,1,.359-1.007.587.587,0,0,1,.1-.178M7.942,12.7,9.2,12.375l.071.039.5.269a1.283,1.283,0,0,0,.445.157c.118-.019.122-.084.124-.136a.244.244,0,0,1,.127-.148c.039-.01.124-.122.124-.122a.6.6,0,0,0,.21-.04.869.869,0,0,0,.137-.135M7.369,10.33c-.074-.2.129-.381.219-.433.014-.008.148-.037.148-.037s0-.021,0-.033c-.019-.282.845-.42.845-.42.025-.553,1.345-.318,1.345-.318a1.922,1.922,0,0,1,1.253.37c.491-.093.751.5.751.5.468.14.264.813.251.873s-.01.171-.255.209a.5.5,0,0,1-.264-.056,2.074,2.074,0,0,1-.5-.225l-.352-.264s.025.28-.093.394-.162.111-.242.107-.252.166-.36.231a1.079,1.079,0,0,1-.553.26,1.631,1.631,0,0,1-.652.03c-.144-.077-.467.068-.512-.055a.653.653,0,0,0-.267-.3m2.3,1.085.169.183M7.121,14.549a.835.835,0,0,0,.008.5,1.277,1.277,0,0,0,1.064.8c.075.006.809.035.809.035m-.074-2.028s.515.365.562.545M6.27,20.436l-.819.35S4.606,21,4.4,21.02s-1.018.2-.994.669-.055.636.111.766a2.133,2.133,0,0,0,.317.211m.627-.327a6.218,6.218,0,0,0-.614.346,1.737,1.737,0,0,0-.361.29,1.877,1.877,0,0,0-.437.757.681.681,0,0,0-.013.1.746.746,0,0,0,.312.555M3,23.728a4.8,4.8,0,0,0-.653-.386c-.04,0-.191-.028-.356-.05a2.385,2.385,0,0,0-.47-.033c-.193.023-.8.366-.842.728S.358,25.32,1.26,25.3a3.542,3.542,0,0,0,.5-.338.469.469,0,0,0,.057-.059,2.61,2.61,0,0,1,.9-.521c.07.005.367,0,.622.023a.66.66,0,0,1,.376.108c.112.145.187.635.253.69s.6.487.6.487m3.175,1.965h0l.395.526.206.35s.1.119.171.088.145-.062.091-.2S8.427,28,8.427,28a1.837,1.837,0,0,0-.336-.47l.362.138.495.316a.191.191,0,0,0,.107-.045c.028-.038-.006-.106-.043-.146s-.406-.5-.406-.5a1.842,1.842,0,0,0-.244-.157.368.368,0,0,1-.1-.112,2.1,2.1,0,0,0-.258-.268,2.125,2.125,0,0,0-.466-.262c-.108-.026-.4-.063-.376-.231a10.26,10.26,0,0,1,.371-.991l.253-.512.1-.2a3.321,3.321,0,0,0,.312-.8s.611-.083.631-.377.234-.731-1.53-1.376a2.554,2.554,0,0,0-.783.89,5.455,5.455,0,0,0-.359.962,4.394,4.394,0,0,0-.138,1.244c.012.366.023.757.053,1.117m1.413,1.814h0l.4.83s.121.059.156.028.082-.066.059-.124-.092-.306-.092-.306l-.1-.351L7.822,27.9l-.081-.24M6.076,26.223a1.973,1.973,0,0,0,.361,1.23l.3.253c.032.029.269.178.29.233s.092.231.057.268-.176.115-.191.141-.062.164.034.215c0,0,.041.034.092-.028a.28.28,0,0,1,.167-.093c.046-.012.287-.113.293-.218s.012-.178.012-.187M4.278,22.122s.073.081.191.2A12.542,12.542,0,0,0,6.1,23.843M1.87,24.977a1.821,1.821,0,0,0,.249.761.748.748,0,0,0,.064.07,2.752,2.752,0,0,0,1.658.709c.843.05,1.736.174,2.234-.294h0s0,0,0,0m-3.914-.392a1.729,1.729,0,0,0,.4,1.532l.041.037a9.986,9.986,0,0,0,2.053,1.615c.792.38,2.537,1.071,2.725,1.136.038.013.112.04.2.078a6.6,6.6,0,0,1,1.078.517M2.54,27.392a.508.508,0,0,0-.157.3,2.2,2.2,0,0,1-.151.808,4.541,4.541,0,0,0-.4,1.155,8.155,8.155,0,0,0,.4.841.443.443,0,0,0,.128.145,1.059,1.059,0,0,0,.214.025,1.6,1.6,0,0,0,.187.005c.039-.009.146-.038.148-.09s-.006-.123.034-.14.236-.253.166-.277-.191-.064-.254-.087-.148-.021-.182-.1-.07-.128-.04-.21a.516.516,0,0,1,.189-.2,4.619,4.619,0,0,1,.909-.538,1.264,1.264,0,0,1,.516.194,13.266,13.266,0,0,0,1.335,1.051,6.678,6.678,0,0,0,1.521.668,12.758,12.758,0,0,1,1.522.3c.326.091,1.034.225,1.341-.128s.445-.375.464-.6a2.306,2.306,0,0,0-.054-1.161,4.89,4.89,0,0,0-.357-.527M8.615,19.5a5.568,5.568,0,0,1,1.333.523.107.107,0,0,1,.019.014.623.623,0,0,1,.117.107M8.8,24.925a6.145,6.145,0,0,1,.4,1.013c.021.158.225.817.391,1.336.108.334.2.611.218.659a1.132,1.132,0,0,1,.177.792l-.02.084a1.287,1.287,0,0,1-.086.22c-.3.61-.371,1.279-1.91,1.223l-.376-.035M10.179,24.1c.879-.116,1.049-1.206,1.072-1.551a3.116,3.116,0,0,0-.079-.344s-.073-.334-.148-.624a16.369,16.369,0,0,0-.94-1.433M9.964,20s-.133-.567.1-.674l.033-.029c.041-.039.12-.11.17-.167.075-.082.243-.282.347-.291a.548.548,0,0,0,.288-.191.733.733,0,0,1,.644-.327,9.433,9.433,0,0,1,1.2.158,4.27,4.27,0,0,0,.635.4,1.3,1.3,0,0,1,.171.014.434.434,0,0,1,.366.278.279.279,0,0,1,.028.4s.37.211.428.39.108.526-.211.628c0,0-.384.046-.452.043,0,0-.026-.158-.112-.182a.3.3,0,0,0-.262.037,3.737,3.737,0,0,1-.484.284c-.09.027-.248.053-.267.1s-.083.169-.4.338c0,0-1.183.269-1.189.271m.335.151a2.226,2.226,0,0,0,.249.4,1.035,1.035,0,0,0,.863.256c.121-.037.153-.129.224-.143s.164-.111.252-.123.185-.215.185-.215.29.07.3-.1.02-.6.02-.6a.7.7,0,0,0,.288-.468M12.746,22l-.116-.093m.471-.094s-.219-.066-.215-.136m-4.9,2.9a.972.972,0,0,0,.805.3h0a2.006,2.006,0,0,0,1.36-.8,1.823,1.823,0,0,0-.323-2.225m4.238-5.962a.671.671,0,0,0,.228.6c.035.06.082.149.082.149a.628.628,0,0,0,.289-.037,1.055,1.055,0,0,0,.293-.206c.231-.174.046-.341.1-.521a.39.39,0,0,0-.109-.345.062.062,0,0,0,.068-.061c0-.065-.176-.207-.2-.22s.02-.1-.028-.191a1.669,1.669,0,0,1-.092-.317c0-.028-.043-.2-.048-.22a.368.368,0,0,0-.214-.268c-.006-.125-.157-.221-.157-.221.037-.272-.233-.238-.264-.359s-.274-.235-.274-.235a.638.638,0,0,0-.391-.2,1.991,1.991,0,0,0-.526.149.581.581,0,0,0-.363.037.568.568,0,0,0-.625.333,1.085,1.085,0,0,0-.313.332,11.869,11.869,0,0,0-.361,1.268c-.048.35-.023.275-.057.366-.058.16-.727.749-.391.991s.433.28.495.439,1.025.279,1.233.186.325-.775.325-.775a1.364,1.364,0,0,0-.033-.508,1.562,1.562,0,0,0-.079-.234,1.63,1.63,0,0,1-.144-.651.843.843,0,0,0-.166-.467.587.587,0,0,1-.193-.486,1.055,1.055,0,0,1,.336-.619,1.2,1.2,0,0,1,.884-.095s.2.174.234.2.19.125.3.215a.475.475,0,0,1,.148.249m.258.348c0,.058.088.575.086.614s.152.426.049.513a2.265,2.265,0,0,1-.409.233,4.2,4.2,0,0,1-1.405-.191m-1.914,1.025a2.981,2.981,0,0,0-1.131,3.076m3.939-2.511.035,1.6m-2.739,8.05s-.137-1.947-.082-2.227m1.854-13.3s0-.5.141-.625a1.139,1.139,0,0,1,.483-.271.382.382,0,0,1,.216.017c.255.1.971.432,1.156.85a.537.537,0,0,1,.009.536.4.4,0,0,1-.153.131,2.038,2.038,0,0,1-.432.124M15.837,8.7l0,0m-2.634,1.73a.893.893,0,0,1,.173-1c.438-.519.581-.588.765-.612l.506-.066A1.111,1.111,0,0,1,15.838,8.7m-1.151,5.911s.3-.7.332-.747a2.381,2.381,0,0,0,0-2.141c-.084-.209-.4.18-.419.2h0m3.277.946s-.09.408-.148.385-.228-.3-.228-.3l.178-.627.079-.775,0-.037.606-.987a1.067,1.067,0,0,0-.136-.493,1.273,1.273,0,0,1-.3-.39c-.013-.088-.082-.377-.082-.377s-.446.362-.545.418a1.465,1.465,0,0,1-.512-.014.429.429,0,0,0-.337.152c-.05.1-.225.413-.272.479a1.634,1.634,0,0,0-.1.549.391.391,0,0,1-.078.207.851.851,0,0,0-.1.164c-.041.109.013.216.037.391a1.964,1.964,0,0,1-.034.553c-.021.085-.17.086-.2.084a1.2,1.2,0,0,0-.224.108s.04-.242.054-.3a3.724,3.724,0,0,0-.186-.522,9.563,9.563,0,0,1-.149-1.146,6.5,6.5,0,0,1,.215-.8,3.081,3.081,0,0,1,.247-.661,1.544,1.544,0,0,1,.174-.226h0a4.166,4.166,0,0,1,.384-.392,3.971,3.971,0,0,1,.671-.211,1.464,1.464,0,0,1,1.067.315s.423.016.545.283a3.113,3.113,0,0,1,.331.835c-.024.129-.1.263-.088.334a2.4,2.4,0,0,1-.07.586.417.417,0,0,0-.014.04.536.536,0,0,0-.046.25c.013.1.106.415.049.481s-.155.129-.158.191,0,.346-.094.418a.363.363,0,0,0-.135.234c0,.053.078.421-.044.578a.649.649,0,0,1-.119.124h0a.217.217,0,0,0-.142.033Zm-1.829-1.8s.206.732.591.832a1.906,1.906,0,0,0,1.088-.351m3.139,1.4c0-.008,0-.079,0-.079m-2.14-2.348a3.973,3.973,0,0,1,1.872,1.611,2.2,2.2,0,0,1,.271.7v.114m.553.607a1.94,1.94,0,0,0-.571-.579,3.509,3.509,0,0,0-.719-.4m-2.007.207s-.194.787.887,1.554m-2.8,2.307L15.093,16.1m.665,11.45a1.1,1.1,0,0,0,.2-.931c-.166-.7-.14-.857-.075-1.061.041-.131.92-1.176,1.518-2.27.064-.115.123-.231.18-.347a2.877,2.877,0,0,0,.363-1.4l.532-1.136.005-.012m-3.887,9.649-.164.863.338-.9.627-1.588.768,2.091-.443-2.945-.029-.313a.639.639,0,0,0-.452.263,3.859,3.859,0,0,0-.341.96,1.345,1.345,0,0,1-.145.356h0c-.186.005-.169-.256-.169-.256l-.068-1.121a.514.514,0,0,1-.138-.157,1.276,1.276,0,0,1-.069-.665,3.054,3.054,0,0,1,.4-.921c.077-.169.22-.619.352-1.058.157-.526.3-1.038.3-1.038a7.4,7.4,0,0,1,.3-1.452,1.792,1.792,0,0,1,.59-.964,2.016,2.016,0,0,0,.228-.5M14.762,28.82l-.17,1.217m2.051-11.7a.893.893,0,0,1-.175.32c-.091.064-.523.627-.442,1s.271,1,.271,1l.177-.021,1.655-.2a2.546,2.546,0,0,0,.253-.081,1.236,1.236,0,0,0,.463-.276c.2-.229.781-1.183.781-1.183M11.864,30.673l2.584.849,4.828-1.373-2.752-.566L14.767,30l-.175.041-2.728.637h0m0,0v.68l2.62.883,4.793-1.409V30.15m-4.828,1.373v.671m1.885-15.041a.253.253,0,0,1-.1-.25c.041-.146-.112-.42.008-.486.081-.044.091-.258.184-.415a.325.325,0,0,1,.222-.165c.322-.064.193-.368.428-.44s.449-.247.535-.242a3.606,3.606,0,0,0,.474-.142c.039-.006.142-.023.249-.034a.736.736,0,0,1,.3,0,2.725,2.725,0,0,0,.346.158,1.244,1.244,0,0,0,.254.079c.106.006.508.169.581.173s.317.019.29.113-.086.175-.034.2.2.108.191.16-.094.165-.075.227.173.286.2.363.041.192-.014.241-.112.09-.073.133a.163.163,0,0,1-.032.189c-.045.04-.106.152-.149.2a3.108,3.108,0,0,1-.242.312c-.066.05-.255.028-.281.11s-.287.163-.35.159-.392.209-.449.079a.813.813,0,0,1-.026-.435c.026-.082.126-.149.151-.213a.228.228,0,0,0-.01-.191c-.029-.033-.191-.171-.057-.309a3.723,3.723,0,0,0,.449-.768.361.361,0,0,0-.024-.308,4.119,4.119,0,0,0-.42-.246,3,3,0,0,0-.575-.109,1.249,1.249,0,0,0-.478.046c-.109.067-.38.167-.435.206s-.268.238-.268.238l-.3.258a1.681,1.681,0,0,0-.4,1.106,2.775,2.775,0,0,0,.032.564,1.333,1.333,0,0,0,.254.594c.059.071.5.414.5.414s.178.034.22.037a.317.317,0,0,1,.223.171c.055.12.187.6.457.515l.19-.178s.278.111.331.135.488.243,1.013-.509c.054-.078.11-.167.165-.266,0,0,.181-.463.377-.834.045-.021.214-.126.267-.146a1.591,1.591,0,0,0,.786-1s0-.11,0-.269M20.7,18.32c-.021.154-.255,1.023-.28,1.205a1.071,1.071,0,0,0,.041.587,3.47,3.47,0,0,1,.2,1.041,10.677,10.677,0,0,1-.22,1.274c-.015.069-.029.126-.04.173l-.046.2-.327.7s-.541,1.048-.634,1.29a2.714,2.714,0,0,0-.081,2.219l.18.66c.306.953.414,1.038.76,1.1m.875-3.463a12.462,12.462,0,0,1-.357,2.059,3.6,3.6,0,0,0-.335,1.023,3.061,3.061,0,0,1-.19.794,2.1,2.1,0,0,0-.155.374.752.752,0,0,0-.028.265c.024.249.039.458.219.481a1.672,1.672,0,0,0,.458-.038,1.933,1.933,0,0,0,.384.1.7.7,0,0,0,.379-.029c.1-.059.281-.126.361-.186s.317-.267.312-.424a2.852,2.852,0,0,0-.386-.7s-.02-.064-.043-.166a1.716,1.716,0,0,1-.008-.956c.177-.354,2.121-3.06,1.989-4.979m1.135-.269a1.865,1.865,0,0,0-1.15.248h0a1.065,1.065,0,0,0-.273.265A19.491,19.491,0,0,1,21.1,25.262c-.271.218-.5.4-.624.5a3.789,3.789,0,0,0-.309.415,15.564,15.564,0,0,1,3.271-8.123M18.322,14.9a2.016,2.016,0,0,1,.7-.544,7.146,7.146,0,0,1,3.934-.772m-1.8,2.272c0-.063.544-1.745,1.588-2.176a1.032,1.032,0,0,1,.83-.035,2.617,2.617,0,0,1,1.572.4l.577-.18A1.268,1.268,0,0,1,27.2,15.1c0,.529-.722,1.2-.722,1.2l-.738.6c-.2.362-.969.756-1.2.915a1.366,1.366,0,0,1-1.094.207,4.839,4.839,0,0,1-2.22-1.641m1.253,11.644a3.569,3.569,0,0,0,1.321.962M18.552,19.31l.171-.1m-3.97,1.906s-.07-.875-.049-1.221c.012-.189.214-1.14.395-1.959m.321,2.731a1.421,1.421,0,0,0-.841,1.891m.122-.033c-.245.332-.228.3-.262.39a4.9,4.9,0,0,0-.141.634c0,.068-.015.218-.053.245s-.243.167-.265.137-.2-.288-.28-.3-.209-.029-.157.084-.319.057-.063.277l.255.22a1.241,1.241,0,0,0,.379.231.468.468,0,0,0,.5-.174M14.7,22.52a0,0,0,0,0,0,0m.946-.376a.468.468,0,0,0-.635.093c-.249.229-.3.274-.31.282h0m-.081.927c-.01.1-.093.445.119.477a.2.2,0,0,0,.21-.193,1.045,1.045,0,0,1,.129-.374m-.384.6s-.017.155-.044.313a1.274,1.274,0,0,1-.079.325.926.926,0,0,0-.121.461s.1.313.26.088l.162-.225.17-.276m1.6-13.138a.493.493,0,0,0,.268.1m-.1-.333s-.013.046.16.056M13.858,15.1a1.466,1.466,0,0,0,.423-.164m-1.487-.551s.3-.4.442-.285m-.142.13.033.048M13,21.212l-.093.079m-2.07-9.809-.066.1m5.9-1-.012.079m1,.285-.028.12m.578,7.522.081.09m-.386-.05.7-.147m5.381-.389-.635,2.495M24.529,17.8c-4.012-1.074-1.393-3.715-.981-4.1m-12.9-2.392.429.287m5.362-1.177a1.208,1.208,0,0,0,.513.156m.54.285a1.189,1.189,0,0,0,.512.156m-4.83,10.236s-.29-.077-.36-.2M9.754,14.522l.169-.021s.421.064.473.067.434.073.434.073c.037.106-.189.183-.189.183l-.408.067.126.207c.127.206-.152.371-.152.371.081.392-.169.511-.169.511a.917.917,0,0,1-1.025-.12,1.509,1.509,0,0,0-.182-.094c-.272-.107-.2-.36-.2-.612a.977.977,0,0,1,.169-.566,1.327,1.327,0,0,1,.4-.214l.281.074.275.074.006,0s.128.2.069.238-.277.137-.368.087L9.368,14.8m5.451-3.934.253.978M25.847,29.013s-1.531-.294-1.593-2.744M9.988,26.161s1.425,1.511,1.89,1.565M12.653,24c-.052.751-.107,1.295-.107,1.295a11.476,11.476,0,0,1-.664,2.433,4.515,4.515,0,0,0,1.1-.2c.531-.177.87-.59,1.373-.3m3.257-4.278a14.772,14.772,0,0,1,1.86-.292h0c.567-.052.911-.046.911-.046M17.562,23s-.02,1.63-.013,1.758a1.785,1.785,0,0,1-.109.879,1.619,1.619,0,0,0-.3.756,1.75,1.75,0,0,1-.01.509c-.03.081-.191.58-.191.58s-.067.416.318.464a2.583,2.583,0,0,0,1.114-.048c.2-.1.365-.309.307-.443s-.209-.225-.309-.356a.76.76,0,0,1-.184-.529,1.425,1.425,0,0,0,.062-.3,1.264,1.264,0,0,1,.067-.581c.09-.126.742-1.123.742-1.123a4.158,4.158,0,0,0,.421-1.819M13.608,11.907l-.127-.216c-.033-.059-.062-.109-.068-.122a.157.157,0,0,1,.015-.167c.052-.071.18-.015.2,0a1.663,1.663,0,0,0,.191.186c.1.083.087.006.175.389a.543.543,0,0,1,.016.2c-.028.2-.263.16-.516.329a.667.667,0,0,1-.688-.016s-.523-.494-.556-.544-.09-.043-.136.01-.019.058-.223.062a.337.337,0,0,1-.323-.175c-.029-.057.258-.175.258-.175a1.7,1.7,0,0,1,.628-.209l.146-.014a.786.786,0,0,1,.581.093l.292.175M-.124,22.822c-.023.012-.861-.185-.89-.3A.1.1,0,0,1-1,22.418a1.612,1.612,0,0,0,.235-.281A2.4,2.4,0,0,0-.651,21.9c.121-.261.322-.708.322-.708.174-.452.145-.531.145-.531L.009,18.2A2.642,2.642,0,0,1,.7,16.446m4.288.111a14.189,14.189,0,0,1-2.656.121,8.187,8.187,0,0,1-1.06-.126,5.2,5.2,0,0,1-.562-.137h0c-.1-.028-.189-.06-.28-.094,0,0-.576.209-.755,1.672a11.852,11.852,0,0,1-.259,2.021,6.878,6.878,0,0,1-1.13,1.547.319.319,0,0,0,.046.465l.56.388m27.993-6.5a14.725,14.725,0,0,1,.734,3.587,18.63,18.63,0,0,1-.693,6.811c-.249,1.013.155,2.452.607,2.566,0,0-1.74.191-2.486.162-.316-.013-.352-.008-.7-.024a23.448,23.448,0,0,1-2.538-.176" transform="translate(4.184 -2.901)" fill="none" stroke="#000" stroke-linecap="round" stroke-linejoin="round" stroke-width="0.263"/><path d="M32.54,35.617s-.794.634.389.987" transform="translate(-7.943 -12.698)" fill="none" stroke="#000" stroke-linecap="round" stroke-linejoin="round" stroke-width="0.263"/><path d="M42.539,24.271a7.112,7.112,0,0,1,0,2.293c-.211,1.2.236,4.777.142,5.488" transform="translate(-11.574 -8.66)" fill="none" stroke="#000" stroke-linecap="round" stroke-linejoin="round" stroke-width="0.263"/><line y1="0.678" x2="0.678" transform="translate(28.425 11.807)" fill="none" stroke="#000" stroke-linecap="round" stroke-linejoin="round" stroke-width="0.263"/><path d="M18.613,23.282s.61-1.884.993-2.037m-6.2,2.706s1.431.561,1.648,1.241M9.205,20.538a5.279,5.279,0,0,0,.113,1.534c.186.9.448,1.721.448,1.721m6.768-3.422s1.389.313,1.693-.68m-3.27,6.879a8.068,8.068,0,0,1-.343,1.378s-.132.355-.284.667c-.109.383-1.01,1.164-1.01,1.164m-2.108-4.611a1.519,1.519,0,0,1,1.163-.428s.346-.015.624-.015m10.963-6.15a.942.942,0,0,1,1.161.973M17.94,17.875c.253-.126.29-.287.29-.287a4.257,4.257,0,0,0-.585-.354c-.216-.091,0-.262,0-.262m6.3,3.855a5.824,5.824,0,0,1-.224.913m.455-.267,1.541-.077a1.623,1.623,0,0,0,.552-.176m.965,7.1c.915,1.032,1.921,2.076,1.921,2.076m-3.9-7.2a8.172,8.172,0,0,0,.058,1.3" transform="translate(0.274 -6.062)" fill="none" stroke="#000" stroke-linecap="round" stroke-linejoin="round" stroke-width="0.263"/><line x1="0.164" y2="0.138" transform="translate(15.336 18.931)" fill="none" stroke="#999" stroke-linecap="round" stroke-linejoin="round" stroke-width="0.263"/></g></g></svg>