<svg xmlns="http://www.w3.org/2000/svg" width="120.089" height="33.175" viewBox="0 0 120.089 33.175"><g transform="translate(-223.305 -412.208)"><g transform="translate(252.275 431.496)"><path d="M261.353,436.222h-2.034v1.707h1.666v.636h-1.666v2.639h-.792v-5.628h2.933Z" transform="translate(-258.527 -435.577)"/><path d="M263.053,441.007a2.288,2.288,0,0,1-.6-1.675,1.941,1.941,0,0,1,1.985-2.206,1.867,1.867,0,0,1,1.552.67,2.288,2.288,0,0,1,.466,1.552,2.33,2.33,0,0,1-.441,1.552,1.771,1.771,0,0,1-1.528.662A1.8,1.8,0,0,1,263.053,441.007Zm2.4-.637a2.408,2.408,0,0,0,.139-.964,2.585,2.585,0,0,0-.188-1.144.989.989,0,0,0-.98-.54,1.031,1.031,0,0,0-.9.45,2.117,2.117,0,0,0-.221,1.111,2.578,2.578,0,0,0,.27,1.291.993.993,0,0,0,.915.416A.919.919,0,0,0,265.455,440.37Z" transform="translate(-259.247 -435.861)"/><path d="M271.222,441.5,270,439.355c-.253-.426-.539-1.029-.572-1.111.016.221.041.662.049,1.2l.033,2.059h-.76v-4.3h.866l1.25,2.164c.253.442.457.883.515,1-.009-.1-.065-.645-.073-1.152l-.025-2.009h.735v4.3Z" transform="translate(-260.399 -435.876)"/><path d="M276.6,437.354a1.825,1.825,0,0,1,1.234,2,1.975,1.975,0,0,1-1.4,2.091,3.338,3.338,0,0,1-.768.057h-1.251v-4.3h.965A3.193,3.193,0,0,1,276.6,437.354Zm.074.858a1.122,1.122,0,0,0-.98-.392h-.507v3.063h.6a1.59,1.59,0,0,0,.408-.049c.457-.114.8-.515.8-1.421A1.765,1.765,0,0,0,276.671,438.212Z" transform="translate(-261.437 -435.876)"/><path d="M280.262,441.007a2.288,2.288,0,0,1-.6-1.675,1.941,1.941,0,0,1,1.986-2.206,1.868,1.868,0,0,1,1.552.67,2.292,2.292,0,0,1,.465,1.552,2.33,2.33,0,0,1-.441,1.552,1.771,1.771,0,0,1-1.528.662A1.8,1.8,0,0,1,280.262,441.007Zm2.4-.637a2.408,2.408,0,0,0,.139-.964,2.585,2.585,0,0,0-.188-1.144.987.987,0,0,0-.979-.54,1.03,1.03,0,0,0-.9.45,2.115,2.115,0,0,0-.221,1.111,2.577,2.577,0,0,0,.27,1.291.991.991,0,0,0,.914.416A.919.919,0,0,0,282.664,440.37Z" transform="translate(-262.398 -435.861)"/><path d="M290.181,441.5l-1.225-2.148c-.253-.426-.539-1.029-.572-1.111.016.221.041.662.049,1.2l.033,2.059h-.76v-4.3h.866l1.25,2.164c.253.442.457.883.515,1-.008-.1-.065-.645-.073-1.152l-.025-2.009h.735v4.3Z" transform="translate(-263.871 -435.876)"/><path d="M295.844,441.5l-.408-1.119h-1.609l-.408,1.119h-.792l1.6-4.3h.89l1.568,4.3Zm-1.2-3.611c-.024.114-.588,1.765-.621,1.879h1.233C295.207,439.623,294.668,438.006,294.644,437.891Z" transform="translate(-264.772 -435.874)"/><path d="M301.082,441.5h-2.916v-.547l1.92-2.761a4.291,4.291,0,0,1,.286-.376c-.1.008-.253.008-.482.008h-1.65l.188-.621h2.817v.572l-1.894,2.769c-.106.147-.2.278-.27.351.106-.008.27-.016.433-.016h1.773Z" transform="translate(-265.787 -435.876)"/><path d="M303.256,441.5v-4.3h.776v4.3Z" transform="translate(-266.719 -435.876)"/><path d="M306.172,441.007a2.288,2.288,0,0,1-.6-1.675,1.941,1.941,0,0,1,1.985-2.206,1.868,1.868,0,0,1,1.552.67,2.288,2.288,0,0,1,.466,1.552,2.326,2.326,0,0,1-.442,1.552,1.77,1.77,0,0,1-1.528.662A1.8,1.8,0,0,1,306.172,441.007Zm2.4-.637a2.409,2.409,0,0,0,.139-.964,2.572,2.572,0,0,0-.189-1.144.987.987,0,0,0-.98-.54,1.03,1.03,0,0,0-.9.45,2.117,2.117,0,0,0-.221,1.111,2.569,2.569,0,0,0,.27,1.291.992.992,0,0,0,.914.416A.92.92,0,0,0,308.574,440.37Z" transform="translate(-267.144 -435.861)"/><path d="M314.34,441.5l-1.225-2.148c-.252-.426-.539-1.029-.572-1.111.017.221.042.662.05,1.2l.033,2.059h-.761v-4.3h.867l1.25,2.164c.253.442.457.883.515,1-.008-.1-.065-.645-.074-1.152l-.024-2.009h.734v4.3Z" transform="translate(-268.295 -435.876)"/><path d="M320,441.5l-.408-1.119h-1.609l-.408,1.119h-.793l1.6-4.3h.891l1.568,4.3Zm-1.2-3.611c-.025.114-.589,1.765-.622,1.879h1.234C319.366,439.623,318.827,438.006,318.8,437.891Z" transform="translate(-269.196 -435.874)"/><path d="M325.112,441.5h-2.467v-4.3h.777v3.668h1.813Z" transform="translate(-270.27 -435.876)"/><path d="M326.7,441.5v-4.3h2.7l-.106.629h-1.821v1.111h1.519v.628h-1.511v1.275h1.985v.654Z" transform="translate(-271.011 -435.876)"/><path d="M335.435,441.315a2.333,2.333,0,0,1-1.135.253,3.43,3.43,0,0,1-1.585-.385l.294-.6a2.729,2.729,0,0,0,1.331.351,1.22,1.22,0,0,0,.645-.139.549.549,0,0,0,.319-.49c0-.31-.221-.506-.76-.645l-.613-.155a1.454,1.454,0,0,1-.866-.555,1.034,1.034,0,0,1-.188-.6c0-.76.678-1.291,1.634-1.291a2.926,2.926,0,0,1,1.545.426l-.352.547a2.259,2.259,0,0,0-1.16-.343c-.5,0-.833.212-.833.555,0,.27.188.416.679.555l.587.147a1.921,1.921,0,0,1,.866.441,1.108,1.108,0,0,1,.311.776A1.3,1.3,0,0,1,335.435,441.315Z" transform="translate(-272.114 -435.85)"/><path d="M339.919,441.519h-.711l-1.634-4.312h.834l.873,2.279a8.778,8.778,0,0,1,.3.956,7.6,7.6,0,0,1,.294-.932l.923-2.3h.792Z" transform="translate(-273.004 -435.876)"/><path d="M343.476,441.5v-4.3h.775v4.3Z" transform="translate(-274.085 -435.876)"/><path d="M348.7,441.5h-2.916v-.547l1.92-2.761a4.309,4.309,0,0,1,.286-.376c-.1.008-.253.008-.482.008h-1.65l.188-.621h2.818v.572l-1.9,2.769c-.106.147-.2.278-.27.351.106-.008.27-.016.433-.016h1.773Z" transform="translate(-274.507 -435.876)"/><path d="M353.451,441.5h-2.916v-.547l1.92-2.761a4.148,4.148,0,0,1,.286-.376c-.1.008-.253.008-.483.008h-1.649l.188-.621h2.818v.572l-1.9,2.769c-.106.147-.2.278-.27.351.106-.008.27-.016.433-.016h1.773Z" transform="translate(-275.377 -435.876)"/><path d="M355.6,441.5v-4.3h2.7l-.107.629h-1.821v1.111h1.519v.628h-1.511v1.275h1.984v.654Z" transform="translate(-276.306 -435.876)"/><path d="M362.739,441.5c-.123-.212-.261-.425-.408-.662a3.8,3.8,0,0,0-.8-1.021.6.6,0,0,0-.376-.155V441.5h-.761v-4.3h1.283a1.975,1.975,0,0,1,1.233.261,1.179,1.179,0,0,1,.49.965,1.147,1.147,0,0,1-1.193,1.2.943.943,0,0,1,.212.2c.139.172.384.49.613.792.245.35.621.858.637.882Zm-1.585-3.684v1.307h.417a1.316,1.316,0,0,0,.817-.172.606.606,0,0,0,.22-.506.568.568,0,0,0-.416-.564,1.774,1.774,0,0,0-.564-.065Z" transform="translate(-277.183 -435.876)"/><path d="M365.77,441.007a2.287,2.287,0,0,1-.6-1.675,1.941,1.941,0,0,1,1.984-2.206,1.868,1.868,0,0,1,1.553.67,2.288,2.288,0,0,1,.466,1.552,2.335,2.335,0,0,1-.441,1.552,1.771,1.771,0,0,1-1.528.662A1.8,1.8,0,0,1,365.77,441.007Zm2.4-.637a2.408,2.408,0,0,0,.139-.964,2.6,2.6,0,0,0-.188-1.144.99.99,0,0,0-.98-.54,1.031,1.031,0,0,0-.9.45,2.125,2.125,0,0,0-.22,1.111,2.578,2.578,0,0,0,.27,1.291.992.992,0,0,0,.915.416A.92.92,0,0,0,368.173,440.37Z" transform="translate(-278.059 -435.861)"/><path d="M261.092,449.592a1.587,1.587,0,0,1-1.1.293h-.7V451.5h-.76v-4.3h1.25a2.16,2.16,0,0,1,1.242.2,1.2,1.2,0,0,1,.662,1.086A1.228,1.228,0,0,1,261.092,449.592Zm-1.805-1.764v1.445h.686a.869.869,0,0,0,.686-.212.71.71,0,0,0,.18-.515.656.656,0,0,0-.229-.539,1.164,1.164,0,0,0-.76-.18Z" transform="translate(-258.527 -437.707)"/><path d="M263.557,451.5v-4.3h2.7l-.106.629h-1.822v1.111h1.519v.628h-1.511v1.275h1.985v.654Z" transform="translate(-259.448 -437.707)"/><path d="M270.691,451.5c-.123-.212-.261-.425-.408-.662a3.779,3.779,0,0,0-.8-1.021.6.6,0,0,0-.376-.155V451.5h-.76v-4.3h1.283a1.975,1.975,0,0,1,1.233.261,1.179,1.179,0,0,1,.49.965,1.147,1.147,0,0,1-1.193,1.2.944.944,0,0,1,.212.2c.139.172.384.49.613.792.245.35.621.858.637.882Zm-1.585-3.684v1.307h.417a1.315,1.315,0,0,0,.817-.172.607.607,0,0,0,.221-.506.569.569,0,0,0-.417-.564,1.775,1.775,0,0,0-.564-.065Z" transform="translate(-260.325 -437.707)"/><path d="M277.854,451.5h-2.467v-4.3h.776v3.668h1.813Z" transform="translate(-261.615 -437.707)"/><path d="M281.9,451.5l-.408-1.119h-1.61l-.408,1.119h-.792l1.6-4.3h.89l1.568,4.3Zm-1.2-3.611c-.024.114-.587,1.764-.62,1.879h1.233C281.257,449.623,280.719,448.006,280.694,447.891Z" transform="translate(-262.217 -437.705)"/><path d="M288.7,451.5c-.123-.212-.262-.425-.408-.662a3.812,3.812,0,0,0-.8-1.021.607.607,0,0,0-.376-.155V451.5h-.76v-4.3h1.282a1.975,1.975,0,0,1,1.233.261,1.177,1.177,0,0,1,.491.965,1.148,1.148,0,0,1-1.193,1.2.927.927,0,0,1,.212.2c.139.172.385.49.613.792.245.35.621.858.637.882Zm-1.585-3.684v1.307h.416a1.315,1.315,0,0,0,.817-.172.607.607,0,0,0,.221-.506.569.569,0,0,0-.416-.564,1.783,1.783,0,0,0-.564-.065Z" transform="translate(-263.624 -437.707)"/><path d="M291.566,451.5v-4.3h.776v4.3Z" transform="translate(-264.578 -437.707)"/><path d="M295.881,451.551a2.022,2.022,0,0,1-1.446-.531,2.19,2.19,0,0,1-.629-1.626,2.433,2.433,0,0,1,.368-1.34,2.02,2.02,0,0,1,1.74-.948,2.161,2.161,0,0,1,1.209.343l-.376.515a1.5,1.5,0,0,0-.825-.246,1.167,1.167,0,0,0-1.054.605,1.941,1.941,0,0,0-.212,1.021,1.6,1.6,0,0,0,.343,1.2,1.213,1.213,0,0,0,.956.417,1.63,1.63,0,0,0,.89-.27l.368.474A2.181,2.181,0,0,1,295.881,451.551Z" transform="translate(-264.988 -437.688)"/><path d="M298.936,451.5v-4.3h2.7l-.106.629H299.7v1.111h1.519v.628h-1.511v1.275H301.7v.654Z" transform="translate(-265.928 -437.707)"/><path d="M306.071,451.5c-.122-.212-.261-.425-.408-.662a3.778,3.778,0,0,0-.8-1.021.6.6,0,0,0-.376-.155V451.5h-.759v-4.3h1.282a1.98,1.98,0,0,1,1.234.261,1.18,1.18,0,0,1,.489.965,1.147,1.147,0,0,1-1.193,1.2.944.944,0,0,1,.212.2c.139.172.384.49.613.792.245.35.621.858.637.882Zm-1.585-3.684v1.307h.417a1.315,1.315,0,0,0,.817-.172.607.607,0,0,0,.221-.506.569.569,0,0,0-.417-.564,1.775,1.775,0,0,0-.564-.065Z" transform="translate(-266.805 -437.707)"/><path d="M310.6,451.551a2.022,2.022,0,0,1-1.446-.531,2.191,2.191,0,0,1-.629-1.626,2.426,2.426,0,0,1,.368-1.34,2.018,2.018,0,0,1,1.739-.948,2.161,2.161,0,0,1,1.209.343l-.376.515a1.5,1.5,0,0,0-.825-.246,1.167,1.167,0,0,0-1.054.605,1.942,1.942,0,0,0-.212,1.021,1.6,1.6,0,0,0,.343,1.2,1.213,1.213,0,0,0,.956.417,1.63,1.63,0,0,0,.89-.27l.368.474A2.181,2.181,0,0,1,310.6,451.551Z" transform="translate(-267.684 -437.688)"/><path d="M316.114,451.5l-.408-1.119H314.1l-.408,1.119H312.9l1.6-4.3h.89l1.568,4.3Zm-1.2-3.611c-.025.114-.588,1.764-.621,1.879h1.233C315.477,449.623,314.938,448.006,314.914,447.891Z" transform="translate(-268.484 -437.705)"/><path d="M322.926,451.314a2.335,2.335,0,0,1-1.136.253,3.428,3.428,0,0,1-1.584-.385l.293-.6a2.735,2.735,0,0,0,1.332.351,1.223,1.223,0,0,0,.645-.139.548.548,0,0,0,.319-.49c0-.31-.221-.506-.76-.645l-.613-.155a1.453,1.453,0,0,1-.866-.556,1.033,1.033,0,0,1-.188-.6c0-.76.678-1.291,1.634-1.291a2.923,2.923,0,0,1,1.544.426l-.351.547a2.264,2.264,0,0,0-1.16-.343c-.5,0-.833.212-.833.555,0,.27.188.416.678.555l.588.147a1.926,1.926,0,0,1,.866.441,1.111,1.111,0,0,1,.31.776A1.3,1.3,0,0,1,322.926,451.314Z" transform="translate(-269.823 -437.681)"/><path d="M327.43,451.551a2.021,2.021,0,0,1-1.445-.531,2.191,2.191,0,0,1-.63-1.626,2.433,2.433,0,0,1,.368-1.34,2.02,2.02,0,0,1,1.739-.948,2.165,2.165,0,0,1,1.21.343l-.376.515a1.5,1.5,0,0,0-.826-.246,1.166,1.166,0,0,0-1.053.605,1.941,1.941,0,0,0-.213,1.021,1.6,1.6,0,0,0,.343,1.2,1.215,1.215,0,0,0,.956.417,1.635,1.635,0,0,0,.891-.27l.367.474A2.178,2.178,0,0,1,327.43,451.551Z" transform="translate(-270.766 -437.688)"/><path d="M330.506,451.5v-4.3h.776v4.3Z" transform="translate(-271.709 -437.707)"/><path d="M333.235,451.5v-4.3h2.7l-.106.629H334v1.111h1.519v.628h-1.511v1.275H336v.654Z" transform="translate(-272.209 -437.707)"/><path d="M340.5,451.5l-1.225-2.148c-.253-.426-.54-1.029-.573-1.111.017.221.041.662.05,1.2l.033,2.059h-.761v-4.3h.867l1.249,2.164c.254.442.458.883.516,1-.009-.1-.065-.645-.074-1.152l-.024-2.009h.734v4.3Z" transform="translate(-273.086 -437.707)"/><path d="M346.382,447.836h-1.241V451.5h-.76v-3.668h-1.225v-.629h3.333Z" transform="translate(-274.026 -437.707)"/><path d="M348.226,451.5v-4.3H349v4.3Z" transform="translate(-274.955 -437.707)"/><path d="M353.423,447.82h-1.707v1.119h1.4v.621h-1.4V451.5h-.76v-4.3h2.566Z" transform="translate(-275.454 -437.707)"/><path d="M355.2,451.5v-4.3h.776v4.3Z" transform="translate(-276.233 -437.707)"/><path d="M359.52,451.551a2.023,2.023,0,0,1-1.446-.531,2.191,2.191,0,0,1-.629-1.626,2.432,2.432,0,0,1,.368-1.34,2.021,2.021,0,0,1,1.74-.948,2.161,2.161,0,0,1,1.209.343l-.376.515a1.5,1.5,0,0,0-.825-.246,1.167,1.167,0,0,0-1.054.605,1.941,1.941,0,0,0-.212,1.021,1.6,1.6,0,0,0,.343,1.2,1.214,1.214,0,0,0,.956.417,1.63,1.63,0,0,0,.89-.27l.368.474A2.18,2.18,0,0,1,359.52,451.551Z" transform="translate(-276.643 -437.688)"/><path d="M365.033,451.5l-.408-1.119h-1.609l-.408,1.119h-.792l1.6-4.3h.89l1.568,4.3Zm-1.2-3.611c-.025.114-.588,1.764-.621,1.879h1.234C364.4,449.623,363.857,448.006,363.833,447.891Z" transform="translate(-277.443 -437.705)"/></g><rect width="55.574" height="13.893" transform="translate(224.394 413.296)" fill="#fff" stroke="#fff" stroke-width="2.177"/><path d="M262.922,413.3c.026.015.055.026.078.04l-1.642,3.212a4.346,4.346,0,0,0-2.75-1.056c-.769,0-1.8.444-1.8,1.332,0,.93,1.133,1.289,1.86,1.52l1.066.318c2.21.654,3.944,1.8,3.944,4.38a6.057,6.057,0,0,1-1.394,4.145H285.9V413.3Z" transform="translate(-5.937 0)" fill-rule="evenodd"/><path d="M245.945,427.161l1.771-3.512a5.656,5.656,0,0,0,3.673,1.646c.984,0,2.032-.484,2.032-1.6,0-1.163-1.646-1.564-2.546-1.818-2.589-.738-4.3-1.415-4.3-4.5a5.19,5.19,0,0,1,1.769-4.077H224.394v13.891h21.59A.349.349,0,0,1,245.945,427.161Z" transform="translate(0 0)" fill-rule="evenodd"/><g transform="translate(228.319 414.561)"><path d="M230.481,416.624v2.9h3.587V420.7h-3.587v5.071H229.2V415.449h4.992v1.175Z" transform="translate(-229.199 -414.956)" fill="#fff" stroke="#fff" stroke-width="0.3"/><path d="M237.976,414.845l7.745,8.121v-7.628H247v10.75l-7.745-8.12v7.7h-1.284Z" transform="translate(-230.806 -414.845)" fill="#fff" stroke="#fff" stroke-width="0.3"/><path d="M267.843,414.845l7.745,8.121v-7.628h1.282v10.75l-7.744-8.12v7.7h-1.283Z" transform="translate(-236.276 -414.845)" fill="#fff" stroke="#fff" stroke-width="0.3"/><path d="M283.376,416.624v2.9h3.586V420.7h-3.586v5.071h-1.283V415.449h4.993v1.175Z" transform="translate(-238.886 -414.956)" fill="#fff" stroke="#fff" stroke-width="0.3"/></g></g></svg>