<svg xmlns="http://www.w3.org/2000/svg" width="122.824" height="20.679" viewBox="0 0 122.824 20.679"><g transform="translate(28.596 5.272)"><path d="M225.673,15.995a1.86,1.86,0,0,0,.772-1.74,1.84,1.84,0,0,0-.675-1.638,1.87,1.87,0,0,0-1.013-.256h-.627l.048.512V16.2a2.932,2.932,0,0,0,1.495-.2Zm-6.124,4.811a7.015,7.015,0,0,0,1.157-.1,1.147,1.147,0,0,0,.868-1.228V13.384a1.22,1.22,0,0,0-1.013-1.126,7.127,7.127,0,0,0-1.061,0V11.9h6.173a5.309,5.309,0,0,1,1.929.307,2.065,2.065,0,0,1,1.4,2.047,1.6,1.6,0,0,1-.627,1.433,4.852,4.852,0,0,1-1.929.717c2.942-.2,2.556,2.508,2.8,3.174a1.634,1.634,0,0,0,1.832,1.228c.723,0,.1.307.1.307h-2.749c-3.279,0-1.109-4.453-3.617-4.453h-.675v2.969a1.232,1.232,0,0,0,1.013,1.177,5.259,5.259,0,0,0,1.013.051v.307h-6.607v-.358Z" transform="translate(-142.488 -11.491)" fill-rule="evenodd"/><path d="M159.9,17.4l-1.64-3.174L156.768,17.4Zm-6.7,3.327v-.307c.868-.051,1.64.051,2.652-2.2L159.18,11.1l4.485,8.139a2.536,2.536,0,0,0,2.411,1.28v.256h-7.33v-.307a6.77,6.77,0,0,0,1.157-.051.973.973,0,0,0,.82-1.28l-.627-1.228h-3.568l-.482.921a1.1,1.1,0,0,0,.964,1.638c.193.051.289-.051.627,0v.307H153.2Z" transform="translate(-108.16 -11.1)" fill-rule="evenodd"/><path d="M179.471,20.45a1.226,1.226,0,0,0,.53.1,2.714,2.714,0,0,0,1.929-.665c.772-.665,1.061-1.74,1.061-3.327a4.679,4.679,0,0,0-.868-3.276,2.718,2.718,0,0,0-2.17-.921.987.987,0,0,0-.482.1.772.772,0,0,0-.1.461V19.99a1.074,1.074,0,0,0,.1.461Zm-4.871.358c.482-.1.868-.307,1.061-.256,1.061.154,1.109-.358,1.109-1.024v-6.04a1.3,1.3,0,0,0-1.013-1.28c-.241,0-.482-.1-.964-.1V11.8h5.594a6.758,6.758,0,0,1,3.038.614,4.122,4.122,0,0,1,2.218,3.992,4.4,4.4,0,0,1-.434,1.945A4.25,4.25,0,0,1,184,19.939a3.218,3.218,0,0,1-1.061.614,6.927,6.927,0,0,1-2.459.409H174.6v-.154Z" transform="translate(-119.24 -11.442)" fill-rule="evenodd"/><path d="M59.8,20.706a6.089,6.089,0,0,0,1.254-.1,1.265,1.265,0,0,0,1.061-1.075l1.061-6.245a.957.957,0,0,0-.675-1.126,4.61,4.61,0,0,0-1.254-.051c.048,0,0-.307,0-.307h4.629l1.736,5.119L69.4,11.8h4.533v.358c-.482.051-.916-.051-1.206,0a1.041,1.041,0,0,0-.772,1.126l1.013,6.142a1.271,1.271,0,0,0,1.013,1.126,3.928,3.928,0,0,0,1.206.1v.307H68.432v-.307c.53,0,1.013-.1,1.254-.1.627-.1.723-.665.675-1.28L69.3,13.284l-2.6,7.678-.241.717-2.8-8.343-.916,5.63c-.193,1.024.1,1.433.579,1.638a7.333,7.333,0,0,0,1.254.1v.307H59.848v-.307Z" transform="translate(-59.8 -11.442)" fill-rule="evenodd"/><path d="M110.3,20.755a4.635,4.635,0,0,0,1.061-.1,1.411,1.411,0,0,0,.964-1.638v-5.63c0-.256.145-1.024-.772-1.177H110.3V11.9h4.581l4.34,5.067V13.538a1.3,1.3,0,0,0-1.013-1.28,6.745,6.745,0,0,0-1.109-.051V11.9h4.726v.256a6.277,6.277,0,0,1-1.254.1,1.408,1.408,0,0,0-.916,1.28v8.241l-6.848-8.241v5.528c-.048.921.338,1.484.964,1.587a5.937,5.937,0,0,0,1.109.1v.307H110.3v-.307Z" transform="translate(-85.947 -11.491)" fill-rule="evenodd"/><path d="M241.048,20.909c.482-.051.868-.1,1.061-.1a1.268,1.268,0,0,0,1.061-1.126V13.231a1.084,1.084,0,0,0-1.061-1.024h-.964V11.9h6.7v.307a6.923,6.923,0,0,0-1.061,0,1.124,1.124,0,0,0-1.061,1.024l.048,6.449a1.178,1.178,0,0,0,1.061,1.126,5.34,5.34,0,0,0,.916,0v.307H241l.048-.2Z" transform="translate(-153.62 -11.491)" fill-rule="evenodd"/><path d="M98.9,12.728a5.12,5.12,0,0,0-6.655,0A4.707,4.707,0,0,0,90.8,16.311a4.662,4.662,0,0,0,1.35,3.481,4.436,4.436,0,0,0,3.376,1.331,4.54,4.54,0,0,0,3.231-1.177,4.358,4.358,0,0,0,1.495-3.583,4.248,4.248,0,0,0-1.35-3.634ZM95.574,20.56c-1.157,0-2.122-1.894-2.122-4.248s.964-4.248,2.122-4.248S97.7,13.957,97.7,16.311s-.964,4.248-2.122,4.248Z" transform="translate(-75.851 -11.295)" fill-rule="evenodd"/><path d="M207.953,12.728a4.734,4.734,0,0,0-3.327-1.228,4.813,4.813,0,0,0-3.279,1.177A4.541,4.541,0,0,0,199.9,16.26a4.941,4.941,0,0,0,1.35,3.481,4.631,4.631,0,0,0,3.376,1.331,4.992,4.992,0,0,0,3.279-1.177,4.707,4.707,0,0,0,1.447-3.583,4.309,4.309,0,0,0-1.4-3.583Zm-3.327,7.831c-1.157,0-2.122-1.945-2.122-4.3s.964-4.248,2.122-4.248,2.122,1.945,2.122,4.248c0,2.406-.964,4.3-2.122,4.3Z" transform="translate(-132.34 -11.295)" fill-rule="evenodd"/><path d="M137.371,20.5c.1.1.241.1.482.1a2.714,2.714,0,0,0,1.929-.665c.772-.665,1.061-1.74,1.061-3.327a4.679,4.679,0,0,0-.868-3.276,2.718,2.718,0,0,0-2.17-.921.987.987,0,0,0-.482.1c-.1.051-.1.2-.1.461v7.064c0,.256.048.461.145.461Zm-4.726.256c1.3-.1.723.051.868,0a1.444,1.444,0,0,0,1.157-1.587v-5.63a1.3,1.3,0,0,0-1.061-1.28c-.193,0-.627-.1-1.109-.1V11.9h5.787a6.758,6.758,0,0,1,3.038.614,4.122,4.122,0,0,1,2.218,3.992,4.371,4.371,0,0,1-.386,1.945,3.606,3.606,0,0,1-1.254,1.587,2.263,2.263,0,0,1-1.061.614,5.949,5.949,0,0,1-2.459.409H132.6l.048-.307Z" transform="translate(-97.442 -11.491)" fill-rule="evenodd"/></g><path d="M8.794,21.07a1.128,1.128,0,0,0,0-.409,2.508,2.508,0,0,1-2.218-1.433,2.831,2.831,0,0,1-.1-2.559c.53-.921,1.061-1.843,1.543-2.764.145.256,4.244,7.575,4.244,7.575s4.2-7.883,4.292-7.883c.289.461.579,1.024.868,1.536a18.749,18.749,0,0,1,1.013,1.945,2.733,2.733,0,0,1-.82,2.866,2.586,2.586,0,0,1-1.736.717,1.911,1.911,0,0,0,.048.307H29.289v-.409c-.241,0-.723-.051-.772-.051a6.153,6.153,0,0,1-4.485-2.918C23.068,15.746,14.726.8,14.726.8h0c-.048.051-6.51,12.08-7.86,14.486-.241.512-.53.973-.82,1.484a7.223,7.223,0,0,1-2.266,2.866A5.681,5.681,0,0,1,1.127,20.66c-.241.051-.434,0-.627.051v.358H8.794Zm3.472-15.1,4,7.268-1.688,3.071L10.627,9.092l1.64-3.122Z" transform="translate(-0.5 -0.8)" fill-rule="evenodd"/></svg>