<svg xmlns="http://www.w3.org/2000/svg" width="40" height="48.855" viewBox="0 0 40 48.855"><path d="M61,10.153h6.518V9H61Z" transform="translate(-27.518 -3.811)" fill-rule="evenodd"/><path d="M22,12.108V0h3.8V1.746H23.813V5.055h1.321V6.708H23.813v3.6H25.8v1.8H22" transform="translate(-9.934)" fill-rule="evenodd"/><path d="M46.479,12.108,44.633,5.982l-.521-1.946v8.072H43V0h1.061l1.684,6.216.489,1.965V0h1.111V12.108h-.866" transform="translate(-19.413)" fill-rule="evenodd"/><g transform="translate(0 18.582)"><path d="M24.286,12.763H26.1V.493H24.286Z" transform="translate(-11.094 -0.493)" fill-rule="evenodd"/><path d="M3.5,43.532l-.193-.645a1.379,1.379,0,0,1-1.284.83C.791,43.716,0,42.775,0,41.3V33.489a2.318,2.318,0,0,1,2.27-2.414,2.261,2.261,0,0,1,2.2,2.414v2.268H2.781V33.416a.447.447,0,0,0-.475-.5.469.469,0,0,0-.494.5v8.051A.489.489,0,0,0,2.306,42a.48.48,0,0,0,.492-.534V38.963H2.34V37.488H4.557v6.044H3.5" transform="translate(0 -13.443)" fill-rule="evenodd"/></g><path d="M23.981,75.108l-1.2-5.471-.37-1.655v7.126H21V63h1.571l1.059,5.434.319,1.692V63h1.4V75.108H23.981" transform="translate(-9.481 -26.252)" fill-rule="evenodd"/><path d="M45.826,33.236V44.108H44.572V33.236H43V32h4.345v1.236H45.826" transform="translate(-19.413 -13.334)" fill-rule="evenodd"/><path d="M64.024,39.327v4.781H62.779V39.327L61,32h1.245l1.226,5.636L64.7,32h1.191l-1.865,7.327" transform="translate(-27.518 -13.334)" fill-rule="evenodd"/><path d="M41,73.73h6.518V72H41Z" transform="translate(-18.496 -30.063)" fill-rule="evenodd"/><path d="M45,73.919h1.63V67H45Z" transform="translate(-20.333 -27.946)" fill-rule="evenodd"/><g transform="translate(0.009 0.127)"><path d="M1.881,10.676c1.194,0,1.272-.316,1.257-4.336.015-4-.063-4.32-1.257-4.32Zm-.362,1.8H.182V.22H1.519C4.661.236,4.9,1.554,4.9,6.356c0,4.787-.235,6.1-3.377,6.121Z" transform="translate(-0.092 -0.22)" fill-rule="evenodd"/><path d="M2.943,37.314c-.727-1.361-1.125-1.858-1.125-3.272,0-.423.24-.625.536-.625.276,0,.485.221.485.625v.93l1.541-.154v-.592c0-1.617-.813-2.555-2.026-2.555C.8,31.67.052,32.9.052,34.427a9.538,9.538,0,0,0,1.593,4.247,6.45,6.45,0,0,1,1.09,3.2c0,.46-.19.736-.57.736-.4,0-.589-.293-.589-.736v-.989l-1.559.156v.688c0,1.635.849,2.555,2.234,2.555,1.125,0,2.216-.79,2.216-2.7a9.4,9.4,0,0,0-1.524-4.264" transform="translate(-0.016 -13.537)" fill-rule="evenodd"/></g></svg>