<svg xmlns="http://www.w3.org/2000/svg" width="103.955" height="30" viewBox="0 0 103.955 30"><g transform="translate(-143.184 -353.057)"><g transform="translate(143.184 353.522)"><path d="M159.5,370.21l.647.836.475-.367-1.054-1.362-.372.288c.148.229-.064.506-.326.7l.189.244Z" transform="translate(-152.921 -363.616)"/><path d="M163.912,367.3a.446.446,0,0,1,.27-.286c.208-.107.379-.065.456.085s-.022.322-.218.423c-.152.078-.366.1-.431-.02l-.5.259c.218.352.64.3,1.091.065.48-.247.751-.625.557-1-.164-.319-.526-.36-.951-.143a.777.777,0,0,0-.347.317l-.006,0-.066-.319.917-.471-.162-.317-1.306.67.243.97Z" transform="translate(-155.617 -361.491)"/><path d="M191.732,366.807a.778.778,0,0,0-.461-.094l-.006,0,.219-.241.92.465.16-.318-1.31-.662-.641.766.458.232a.446.446,0,0,1,.389.05c.209.105.275.269.2.419s-.274.171-.47.072c-.152-.077-.3-.238-.237-.36l-.506-.256c-.157.383.136.692.589.92.482.244.947.241,1.139-.138C192.337,367.34,192.158,367.022,191.732,366.807Z" transform="translate(-172.499 -361.528)"/><path d="M196.913,369.533c-.383-.3-.859-.345-1.084-.054-.205.266-.107.657.257.939a.672.672,0,0,0,.525.172l.006,0a.409.409,0,0,1-.608.083.473.473,0,0,1-.134-.154.186.186,0,0,1-.016-.165l-.419-.324c-.132.3.019.608.354.867a.884.884,0,0,0,1.37-.109A.834.834,0,0,0,196.913,369.533Zm-.06.732c-.1.123-.288.133-.479-.014s-.218-.328-.12-.455a.33.33,0,0,1,.458.013C196.905,369.957,196.947,370.143,196.854,370.265Z" transform="translate(-175.594 -363.596)"/><path d="M148.678,385.32c.3.1.524-.191.7-.5s.309-.625.438-.582c.11.036.09.206.049.333-.06.181-.174.358-.323.3l-.2.589c.379.122.691-.276.84-.726.141-.425.162-.969-.2-1.09-.308-.1-.528.2-.7.5s-.311.618-.459.568c-.124-.041-.11-.24-.052-.418.083-.25.2-.393.4-.341l.2-.589c-.43-.138-.751.264-.923.783C148.279,384.646,148.253,385.179,148.678,385.32Z" transform="translate(-146.38 -372.32)"/><path d="M147.68,392.7l.047-.618c-.2-.039-.311-.215-.289-.5a.525.525,0,1,1,1.045.081c-.02.259-.128.439-.308.458l-.048.618c.425.017.709-.52.749-1.033.056-.718-.315-1.215-.825-1.254s-.952.395-1.008,1.113C147,392.163,147.229,392.632,147.68,392.7Z" transform="translate(-145.576 -376.732)"/><path d="M149.066,399.324l-.633.109-.139-.805.633-.109-.105-.612-1.739.3.105.612.716-.124.139.805-.716.124.106.611,1.738-.3Z" transform="translate(-145.605 -381.365)"/><path d="M151.261,405.931c-.307-.684-.852-.9-1.319-.7s-.665.763-.358,1.448.852.9,1.319.7S151.568,406.617,151.261,405.931Zm-.612.882a.555.555,0,1,1,.252-.72A.5.5,0,0,1,150.649,406.813Z" transform="translate(-147.066 -385.867)"/><path d="M154.223,411.532l-.376-.494-1.4,1.069,1.049,1.378.314-.239-.672-.884Z" transform="translate(-148.932 -389.516)"/><path d="M156.062,417.252l.484.415.32-.142.63.541-.095.335.491.422.474-1.919-.478-.411Zm1.544.46-.41-.352.607-.292,0,0Z" transform="translate(-151.179 -392.903)"/><path d="M171.754,423.44c.245.051.422.18.411.333l.607.126c.034-.445-.442-.743-.926-.843-.705-.146-1.246.159-1.35.659s.271,1,.976,1.141a.948.948,0,0,0,.7-.09l0,.2.392.081.2-.946-.98-.2-.069.334.425.088c-.065.15-.29.212-.59.15a.524.524,0,1,1,.213-1.025Z" transform="translate(-160.13 -396.953)"/><path d="M179.456,425.055l-.017-.336,1.166-.059-.018-.356-1.166.06-.016-.308,1.276-.065-.019-.368-1.9.1.09,1.762,1.929-.1-.02-.395Z" transform="translate(-165.274 -397.329)"/><path d="M186.919,421.9l.323,1.038-.006,0-1.113-.792-.608.19.525,1.685.557-.174-.327-1.05.007,0,1.117.8.608-.19-.525-1.684Z" transform="translate(-169.462 -396.15)"/><path d="M193.637,420.116l-.177-.286.993-.614-.187-.3-.993.614-.162-.263,1.087-.671L194,418.28l-1.615,1,.927,1.5,1.643-1.015-.208-.336Z" transform="translate(-173.731 -394.012)"/><path d="M198.71,413.863l.6,1.256,0,0-1.26-.593-.456.46,1.781.709.5-.507-.71-1.789Z" transform="translate(-176.96 -390.985)"/><path d="M203.979,409.881l-.287-.174.605-1-.3-.184-.605,1-.264-.16.662-1.092-.315-.191-.984,1.623,1.508.915,1-1.652-.338-.2Z" transform="translate(-179.999 -387.679)"/><path d="M206.252,401.824l1.041.314,0,.006-1.28.478-.184.61,1.689.509.169-.559-1.053-.317,0-.006,1.291-.475.184-.61-1.689-.509Z" transform="translate(-182.073 -383.45)"/><path d="M208.964,394.419c-.319-.014-.452.327-.539.667s-.127.685-.262.68c-.116-.005-.143-.173-.137-.307.008-.19.069-.391.229-.373l.028-.62c-.4-.014-.589.455-.61.928-.02.447.108.976.493.993.323.015.453-.337.54-.673s.132-.679.287-.672c.131.006.171.2.163.388-.011.263-.086.433-.294.438l-.027.62c.452.017.651-.459.675-1C209.531,394.959,209.411,394.439,208.964,394.419Z" transform="translate(-183.217 -379.199)"/><rect width="1.764" height="0.621" transform="matrix(0.99, -0.143, 0.143, 0.99, 24.35, 13.887)"/><path d="M206.863,385.106c.306-.105.3-.48.255-.825s-.126-.679.021-.73c.124-.042.233.124.294.3.086.25.079.435-.113.515l.2.587c.427-.15.438-.665.26-1.183-.17-.495-.472-.934-.895-.79-.3.1-.3.47-.257.818s.133.684,0,.728c-.11.038-.2-.109-.24-.235-.061-.18-.079-.389.077-.432l-.2-.587c-.375.132-.381.639-.228,1.087C206.186,384.785,206.5,385.231,206.863,385.106Z" transform="translate(-182.147 -372.082)"/><path d="M164.929,422.3a.421.421,0,1,0,.59-.083A.421.421,0,0,0,164.929,422.3Z" transform="translate(-156.631 -396.406)"/><path d="M154.74,377.156a.421.421,0,1,0-.588.091A.421.421,0,0,0,154.74,377.156Z" transform="translate(-149.885 -368.067)"/><path d="M203.066,376.659a.421.421,0,1,0,.589-.092A.421.421,0,0,0,203.066,376.659Z" transform="translate(-180.308 -368.067)"/><path d="M181.864,363.963l-.342.535h.837v-.26l-.33,0,.183-.273-.183-.281.324,0v-.256h-.831Z" transform="translate(-166.984 -359.961)"/><path d="M176.486,364.241l-.206,0v-.558l.192,0v-.258h-.688v.258l.191,0v.558l-.2,0v.258h.715Z" transform="translate(-163.414 -359.961)"/><path d="M178.992,363.8h-.436l0-.381h-.319v1.073h.319l0-.427h.436v.427h.318v-1.073h-.318Z" transform="translate(-164.946 -359.954)"/><path d="M178.329,361.036a.138.138,0,0,1,.275,0l0,.38h.595V361.1h-.364l0-.081c0-.229-.108-.413-.368-.413a.335.335,0,0,0-.362.3,1.155,1.155,0,0,0,0,.126v.065h-.364v.319h.59Z" transform="translate(-164.635 -358.206)"/><path d="M179.359,366.913a.192.192,0,1,0,.192.192A.191.191,0,0,0,179.359,366.913Z" transform="translate(-165.523 -362.124)"/><path d="M159.979,356.523l.283-.348-1.646.242.26-1.627-1.3,1.051-.6-1.558-.6,1.559-1.294-1.053.263,1.649-1.65-.265.287.353a13.812,13.812,0,1,0,5.985,0Zm-2.966-.339a1.894,1.894,0,1,1-1.894,1.894A1.9,1.9,0,0,1,157.013,356.184Zm1.744,4.285a9.7,9.7,0,0,1,5.282,2.875h-.887v.662h-.808v-.662h-1.1v.914H160.6s0-1.392,0-1.406a.568.568,0,0,0-1.136,0c0,.014,0,7.376,0,7.376l-1.127,1.039v.548a1.477,1.477,0,0,0-1.117.823V361.4l.377-1.091,1.273,1.035Zm.527,15.91a.753.753,0,0,0,.273,1.455h.95a.753.753,0,0,0,.273-1.455,3.29,3.29,0,0,0,2.21-3.106,1.475,1.475,0,0,0-1.267-1.458v-.548l-1.127-1.039v-2.163h.649v.914h1.1v-.691h.808v.691h1.1v-2.443h-1.1v.591h-.808v-.591h-.912v-.749h.912V365.2h.808v.591h1.1v-2.216a9.695,9.695,0,0,1-7.027,16.132v-5.451A3.3,3.3,0,0,0,159.284,376.38Zm-1.45-3.106a.718.718,0,0,1,.591-.706.8.8,0,0,0,.8.753h1.613a.8.8,0,0,0,.8-.752.718.718,0,0,1,.589.706,2.215,2.215,0,1,1-4.4,0Zm-7.332-7.195a.376.376,0,0,0-.043.418l-2.511,0q.166-.426.369-.832Zm-1.584-1.444a9.753,9.753,0,0,1,.947-1.2A3.1,3.1,0,0,0,150.924,365a.371.371,0,0,0-.16.182.378.378,0,0,0-.024.157Zm-.9,3.219,2.508-.468a.359.359,0,0,0,.091.322l-2.47.962a.69.69,0,0,0-.246.957.686.686,0,0,0,.945.222l2.17-1.341a.4.4,0,0,0,.09.186.4.4,0,0,0,.111.082l-1.956,1.788a.686.686,0,1,0,1.078.848l1.557-2.058a.373.373,0,0,0,.146.139.369.369,0,0,0,.106.029l.022.017-1.085,2.185a.665.665,0,1,0,1.271.391l.626-2.19a2.967,2.967,0,0,0,.85.125,2.353,2.353,0,0,0,.622-.074c0,.4,0,.771,0,.806l-1.99,2.161c-.341.28-.465.3-.687.074l-.064-.065-.606.475.082.082a1.188,1.188,0,0,0,.733.413l-.843.444-.545-.564a.82.82,0,0,0-1.639.046v.043l.315.315v-.248a.207.207,0,0,1,.061-.147.209.209,0,0,1,.294,0l.4.439,0,0,.065.067.077.084,0,0,.183.187h-.236a.817.817,0,0,0-1.329.487,9.671,9.671,0,0,1-1.163-7.329A.525.525,0,0,0,148.016,367.855Zm1.119,7.654a.264.264,0,0,1,.252-.258h.591a1.027,1.027,0,0,0-.69.538,1.079,1.079,0,0,1-.154-.273Zm.753.863a.208.208,0,0,1,.092-.129l1.239-.7.347.356-.005,0,.085.078.064.066,0,0,.443.407a.208.208,0,0,1-.151.351h-.249l.315.314h.042a.82.82,0,0,0,.047-1.639l-.3-.3,3.951-2.507a6.076,6.076,0,0,1-2.121,3.455,1.953,1.953,0,0,0-.619,1.379,1.292,1.292,0,0,0,.33.907.592.592,0,0,0,.652.128l.138-.06-.107-.107a1.041,1.041,0,0,1-.235-.7,1.185,1.185,0,0,1,.335-.919l.28.28a2.151,2.151,0,0,0-.137.743,1.7,1.7,0,0,0,.453,1.2c.059.059.684.578.947.49l.188-.063-.16-.118a2.537,2.537,0,0,1-.488-.622,1.36,1.36,0,0,1-.128-.583,1.517,1.517,0,0,1,.451-1.053c.017-.024.7-1.715,1.052-2.53,0,.019,0,.16,0,.16,0,.192,0,.382,0,.567a3.43,3.43,0,0,1-.493,2.29,2.1,2.1,0,0,1-.769.411l.13.152a.783.783,0,0,0,.557.346.487.487,0,0,0,.213-.084,1.823,1.823,0,0,0,.422,1.363,9.673,9.673,0,0,1-6.616-2.889l-.174-.286a.205.205,0,0,1-.031-.109A.219.219,0,0,1,149.888,376.372Zm5.2-13.783.234-.4h-.965l.113-.413a.36.36,0,0,0-.36-.361.353.353,0,0,0-.136.028.488.488,0,0,0,.013-.1.238.238,0,0,0-.475,0,.484.484,0,0,0,.013.1.359.359,0,0,0-.5.333l.113.413h-.254a.36.36,0,0,0-.353.289.6.6,0,0,0-.166-.024.593.593,0,0,0-.521.875.592.592,0,0,1,1.007-.056.548.548,0,0,1,.035.056.6.6,0,0,1,.059.187h-1.2a.592.592,0,0,1-.592-.592v.382a.592.592,0,0,0,.592.592h1.136a.592.592,0,0,1-.518.3l-.035,0a.592.592,0,0,0,1.042-.126h1.6a.592.592,0,0,1,.592.592.729.729,0,0,1-.151.529l-.148.222-1.011,1.56a.592.592,0,0,1-.824.155.606.606,0,0,1-.157-.834.636.636,0,0,0,.283-.683.659.659,0,0,0-.719-.552l-.2,0a2.274,2.274,0,0,1-2.345-2.071,9.681,9.681,0,0,1,4.928-2.523l-.141.877,1.288-1.046.435,1.118v1.73Zm1.905,20.405a12.987,12.987,0,0,1-2.416-25.747l.181.223-1.56.6,1.56.6-1.053,1.3,1.649-.263-.055.341a10.116,10.116,0,1,0,3.4,0l-.045-.334,1.606.257-1.011-1.312,1.518-.58-1.536-.626.161-.2a12.987,12.987,0,0,1-2.4,25.751Z" transform="translate(-143.184 -354.283)"/></g><g transform="translate(175.761 353.057)"><path d="M232.76,372.055c-2.992,0-3.667-1.716-3.667-3.624V361.91h1.827v6.4c0,1.257.393,2.144,1.967,2.144,1.4,0,2-.621,2-2.322V361.91h1.812v6.108C236.694,370.739,235.261,372.055,232.76,372.055Z" transform="translate(-229.093 -358.553)" fill="#1a1818"/><path d="M259.426,371.892s-3.58-6.536-3.861-7.187c.056.857.084,2.425.084,3.623v3.564h-1.771V361.91H256.2s3.51,6.359,3.861,7.113c-.071-1.005-.1-2.78-.1-4.007V361.91h1.77v9.982Z" transform="translate(-244.48 -358.553)" fill="#1a1818"/><path d="M280.259,371.892V361.91h1.826v9.982Z" transform="translate(-260.857 -358.553)" fill="#1a1818"/><path d="M293.553,371.892h-2.107l-3.3-9.982h2l1.841,5.842c.183.562.394,1.227.562,1.952h.028a19.2,19.2,0,0,1,.562-2.07L295,361.91h1.868Z" transform="translate(-265.752 -358.553)" fill="#1a1818"/><path d="M314.439,371.892V361.91h5.211v1.612h-3.365v2.455h3.194v1.568h-3.194v2.706h3.365v1.642Z" transform="translate(-282.075 -358.553)" fill="#1a1818"/><path d="M337.932,371.8l-2.641-4.126h-.07V371.8h-1.827v-9.982c.745-.045,1.63-.059,2.726-.059,2.093,0,3.442.769,3.442,2.81a2.74,2.74,0,0,1-2.416,2.78c.267.37.534.754.772,1.094l2.276,3.357Zm-1.995-8.474a4.982,4.982,0,0,0-.717.044v2.884a6.494,6.494,0,0,0,.66.03c1.1,0,1.77-.592,1.77-1.524C337.651,363.795,337.089,363.322,335.937,363.322Z" transform="translate(-293.843 -358.456)" fill="#1a1818"/><path d="M355.9,371.788a7.456,7.456,0,0,1-1.939-.237l.113-1.79a6.253,6.253,0,0,0,1.981.355c.927,0,1.644-.4,1.644-1.316,0-1.908-3.976-1.035-3.976-4.318,0-1.775,1.335-3,3.611-3a9.908,9.908,0,0,1,1.714.178l-.1,1.686a5.933,5.933,0,0,0-1.7-.267c-1.053,0-1.587.5-1.587,1.213,0,1.789,3.99,1.124,3.99,4.244C359.656,370.413,358.237,371.788,355.9,371.788Z" transform="translate(-306.465 -358.286)" fill="#1a1818"/><path d="M373.252,371.892V361.91h1.826v9.982Z" transform="translate(-318.586 -358.553)" fill="#1a1818"/><path d="M385.65,363.552v8.341h-1.827v-8.341h-2.459V361.91h6.744v1.641Z" transform="translate(-323.623 -358.553)" fill="#1a1818"/><path d="M402.953,366.4v-9.982h5.428v1.612h-3.505v2.455H408.2v1.568h-3.327v2.706h3.505V366.4Zm2.026-10.633-.651-1.08,2.588-1.627.784,1.3Z" transform="translate(-337.025 -353.057)" fill="#1a1818"/><path d="M232.009,413.855c-1.035,0-1.937-.045-2.78-.074v-9.953c.784-.03,2-.074,3.224-.074,3.091,0,5.058,1.375,5.058,4.88C237.511,412.065,235.263,413.855,232.009,413.855Zm.311-8.489c-.444,0-.858.015-1.168.045v6.729a7,7,0,0,0,1.05.074c1.878,0,3.239-1.064,3.239-3.431C235.44,406.637,234.6,405.366,232.32,405.366Z" transform="translate(-229.177 -384.53)" fill="#1a1818"/><path d="M254.5,413.892V403.91h5.428v1.612h-3.5v2.455h3.328v1.568h-3.328v2.706h3.5v1.642Z" transform="translate(-244.866 -384.626)" fill="#1a1818"/><path d="M291.83,405.738a7.391,7.391,0,0,0-2.647-.5,3.2,3.2,0,0,0-3.387,3.475c0,2.115,1.154,3.357,3.18,3.357a4.277,4.277,0,0,0,1.272-.177v-3.475h1.923v4.762a9.421,9.421,0,0,1-3.416.621c-3.164,0-5.043-1.863-5.043-4.91,0-3.135,2.13-5.368,5.59-5.368a10.177,10.177,0,0,1,2.825.429Z" transform="translate(-263 -384.384)" fill="#1a1818"/><path d="M311.4,413.892V403.91h5.428v1.612h-3.5v2.455h3.327v1.568h-3.327v2.706h3.5v1.642Z" transform="translate(-280.189 -384.626)" fill="#1a1818"/><path d="M336.814,413.892s-3.766-6.536-4.061-7.187c.059.857.089,2.425.089,3.623v3.564h-1.864V403.91h2.446s3.691,6.359,4.061,7.113c-.074-1.005-.1-2.78-.1-4.007V403.91h1.863v9.982Z" transform="translate(-292.343 -384.626)" fill="#1a1818"/><path d="M358.045,408.4v-9.982h5.427v1.612h-3.505v2.455H363.3v1.568h-3.328v2.706h3.505V408.4Zm3.3-10.618-2.721-1.4.814-1.316,2.573,1.627Z" transform="translate(-309.146 -379.13)" fill="#1a1818"/><path d="M381.171,413.892h-2.218l-3.476-9.982h2.1l1.937,5.842c.192.562.414,1.227.592,1.952h.03a18.419,18.419,0,0,1,.591-2.071l1.967-5.723h1.967Z" transform="translate(-319.968 -384.626)" fill="#1a1818"/><path d="M403.011,413.892V403.91h5.428v1.612h-3.505v2.455h3.327v1.568h-3.327v2.706h3.505v1.642Z" transform="translate(-337.061 -384.626)" fill="#1a1818"/></g></g></svg>