<?xml version="1.0" encoding="utf-8"?>
<!-- Generator: Adobe Illustrator 24.0.3, SVG Export Plug-In . SVG Version: 6.00 Build 0)  -->
<svg version="1.1" id="Layer_1" xmlns="http://www.w3.org/2000/svg" xmlns:xlink="http://www.w3.org/1999/xlink" x="0px" y="0px"
	 viewBox="0 0 227.5 241.5" style="enable-background:new 0 0 227.5 241.5;" xml:space="preserve">
<style type="text/css">
	.st0{clip-path:url(#SVGID_1_);}
	.st1{fill:none;stroke:turquoise;stroke-miterlimit:10;}
	.st2{opacity:0.3;}
</style>
<g>
	<g>
		<g>
			<defs>
				<rect id="SVGID_3_" width="227.5" height="241.5"/>
			</defs>
			<clipPath id="SVGID_1_">
				<use xlink:href="#SVGID_3_"  style="overflow:visible;"/>
			</clipPath>
			<g class="st0">
				<path class="st1" d="M34.8,91 M34.8,83L34.8,83c-15,0-27.1,12.1-27.1,27.1s12.1,27.1,27.1,27.1s27.1-12.1,27.1-27.1
					c0-7.7-3.2-14.7-8.5-19.7l-5.5,5.8c3.8,3.7,6,8.6,6,13.9c0,10.6-8.6,19.1-19.1,19.1s-19.1-8.6-19.1-19.1
					c0-10.6,8.6-19.1,19.1-19.1V83z"/>
				<path class="st1" d="M227.5,202.8c3.7,0,6.8,3,6.8,6.8c0,3.7-3,6.8-6.8,6.8s-6.8-3-6.8-6.8C220.7,205.9,223.8,202.8,227.5,202.8
					 M227.5,194.8c-8.1,0-14.8,6.6-14.8,14.8c0,8.1,6.6,14.8,14.8,14.8s14.8-6.6,14.8-14.8C242.2,201.4,235.6,194.8,227.5,194.8
					L227.5,194.8z"/>
				<path class="st1" d="M66.5-17.8c24.5,0,44.5,19.9,44.5,44.5S91,71.1,66.5,71.1S22,51.2,22,26.7S41.9-17.8,66.5-17.8 M66.5-25.8
					C37.5-25.8,14-2.3,14,26.7s23.5,52.5,52.5,52.5s52.5-23.5,52.5-52.5S95.4-25.8,66.5-25.8L66.5-25.8z"/>
				<path class="st1" d="M136.2,232.3 M136.2,224.3L136.2,224.3c-8.1,0-14.8,6.6-14.8,14.8c0,8.1,6.6,14.8,14.8,14.8
					c8.1,0,14.8-6.6,14.8-14.8c0-6.1-3.7-11.4-9-13.6l-3.1,7.4c2.5,1.1,4.1,3.5,4.1,6.2c0,3.7-3,6.8-6.8,6.8c-3.7,0-6.8-3-6.8-6.8
					c0-3.7,3-6.8,6.8-6.8V224.3z M136.2,232.3c0.9,0,1.8,0.2,2.6,0.5 M141.9,225.5c-1.8-0.7-3.7-1.2-5.7-1.2"/>
				<path class="st1" d="M188.7,232.3 M188.7,224.3L188.7,224.3c-8.1,0-14.8,6.6-14.8,14.8c0,8.1,6.6,14.8,14.8,14.8
					c8.1,0,14.8-6.6,14.8-14.8c0-4.3-1.8-8.2-4.8-10.9l-5.4,5.9c1.4,1.3,2.2,3.1,2.2,5c0,3.7-3,6.8-6.8,6.8s-6.8-3-6.8-6.8
					c0-3.7,3-6.8,6.8-6.8V224.3z M188.7,232.3c1.7,0,3.3,0.6,4.6,1.8 M198.7,228.2c-2.6-2.4-6.1-3.9-10-3.9"/>
				<path class="st1" d="M230.2,154.7c0,7.9-6.5,14.4-14.4,14.4c-7.9,0-14.4-6.5-14.4-14.4c0-7.9,6.5-14.4,14.4-14.4 M215.8,140.3
					 M215.8,132.3L215.8,132.3c-12.4,0-22.4,10-22.4,22.4c0,12.4,10,22.4,22.4,22.4c12.4,0,22.4-10,22.4-22.4"/>
				<path class="st1" d="M238.2,154.7c0-9.3-5.6-17.2-13.7-20.6l-3.1,7.4c5.3,2.3,8.8,7.5,8.8,13.3"/>
				<path class="st1" d="M158.6,175.9v-8l0,0c-12.4,0-22.4,10-22.4,22.4s10,22.4,22.4,22.4s22.4-10,22.4-22.4
					c0-7.7-3.9-14.5-9.9-18.6l-4.5,6.6c4,2.7,6.4,7.2,6.4,11.9c0,7.9-6.5,14.4-14.4,14.4c-7.9,0-14.4-6.5-14.4-14.4
					S150.6,175.9,158.6,175.9 M158.6,175.9"/>
				<path class="st1" d="M34.8,91c4.9,0,9.6,1.9,13.2,5.3"/>
				<path class="st1" d="M53.5,90.4C48.6,85.8,42,83,34.8,83"/>
				<path class="st1" d="M158.6,175.9c2.9,0,5.7,0.8,8,2.5"/>
				<path class="st1" d="M171.1,171.7c-3.6-2.4-7.9-3.8-12.5-3.8"/>
				<path class="st1" d="M224.5,134.1c-2.7-1.1-5.6-1.8-8.7-1.8v8c1.9,0,3.8,0.4,5.6,1.1"/>
			</g>
		</g>
	</g>
</g>
<g id="elenchi">
	<g class="st2">
		<g>
			<defs>
				<rect id="SVGID_2_" width="227.5" height="241.5"/>
			</defs>
			<clipPath id="SVGID_4_">
				<use xlink:href="#SVGID_2_"  style="overflow:visible;"/>
			</clipPath>
		</g>
	</g>
</g>
</svg>
