<?xml version="1.0" encoding="utf-8"?>
<!-- Generator: Adobe Illustrator 24.0.3, SVG Export Plug-In . SVG Version: 6.00 Build 0)  -->
<svg version="1.1" id="Layer_1" xmlns="http://www.w3.org/2000/svg" xmlns:xlink="http://www.w3.org/1999/xlink" x="0px" y="0px"
	 viewBox="0 0 227.5 241.5" style="enable-background:new 0 0 227.5 241.5;" xml:space="preserve">
<style type="text/css">
	.st0{clip-path:url(#SVGID_2_);}
	.st1{fill:none;stroke:black;stroke-miterlimit:10;}
	.st2{fill:none;stroke:black;stroke-width:0.5;stroke-miterlimit:10;}
	.st3{fill:none;stroke:black;}
	.st4{fill:none;stroke:black;stroke-width:1.4575;}
	.st5{fill:black;}
	.st6{font-family:'HKGrotesk-Regular';}
	.st7{font-size:5.9988px;}
	.st8{font-size:6px;}
</style>
<g>
	<g>
		<g>
			<g>
				<defs>
					<rect id="SVGID_1_" width="227.5" height="241.5"/>
				</defs>
				<clipPath id="SVGID_2_">
					<use xlink:href="#SVGID_1_"  style="overflow:visible;"/>
				</clipPath>
				<g class="st0">
					<g>
						<g>
							<g>
								<g>
									<circle class="st1" cx="114.2" cy="124.3" r="47.1"/>
									<g transform="translate(-512.628173828125,-6080.2041015625)">
										<path class="st2" d="M534.5,6215.4c-0.1-48.8,33.5-91.1,81-102.1l0.1,0.6c-47.2,10.9-80.6,53-80.5,101.5H534.5z"/>
										<line class="st3" x1="567.4" y1="6158.2" x2="557.6" y2="6150.5"/>
										<circle class="st4" cx="663.2" cy="6234.2" r="2.3"/>
										<circle class="st4" cx="589.7" cy="6175.8" r="2.3"/>
										<circle class="st4" cx="535.1" cy="6215.3" r="2.3"/>
										<circle class="st4" cx="538.8" cy="6187.7" r="2.3"/>
										<circle class="st4" cx="549.7" cy="6162" r="2.3"/>
										<circle class="st4" cx="567" cy="6140.2" r="2.3"/>
										<circle class="st4" cx="589.5" cy="6123.7" r="2.3"/>
										<circle class="st4" cx="615.6" cy="6113.8" r="2.3"/>
										<text transform="matrix(0.7835 0.6213 -0.6213 0.7835 567.3597 6160.2603)" class="st5 st6 st7">un luogo</text>
										<text transform="matrix(1 -2.749990e-03 2.749990e-03 1 507.113 6215.938)" class="st5 st6 st8">un luogo</text>
										<text transform="matrix(0.9647 0.2634 -0.2634 0.9647 509.1258 6181.3403)" class="st5 st6 st8">un luogo</text>
										<text transform="matrix(0.8599 0.5105 -0.5105 0.8599 524.9199 6148.0356)" class="st5 st6 st8">un luogo</text>
										<text transform="matrix(0.693 0.7209 -0.7209 0.693 546.1023 6120.5444)" class="st5 st6 st8">un luogo</text>
										<text transform="matrix(0.4763 0.8793 -0.8793 0.4763 575.0448 6099.0952)" class="st5 st6 st8">un luogo</text>
										<text transform="matrix(0.2252 0.9743 -0.9743 0.2252 608.173 6087.7905)" class="st5 st6 st8">un luogo</text>
									</g>
								</g>
							</g>
						</g>
					</g>
					<g>
						<g>
							<g transform="translate(-512.628173828125,-6080.2041015625)">
								<path class="st2" d="M714.7,6221.9c-7.4,27.7-26,51.2-51.3,64.9l-0.3-0.5c25.1-13.5,43.5-36.9,50.9-64.4H714.7z"/>
								<line class="st3" x1="685.5" y1="6251.8" x2="695.2" y2="6259.5"/>
								<circle class="st4" cx="663.1" cy="6234.2" r="2.3"/>
								<circle class="st4" cx="714" cy="6222.3" r="2.3"/>
								<circle class="st4" cx="703.1" cy="6248" r="2.3"/>
								<circle class="st4" cx="685.8" cy="6269.8" r="2.3"/>
								<circle class="st4" cx="663.3" cy="6286.3" r="2.3"/>
								<text transform="matrix(0.7835 0.6213 -0.6213 0.7835 665.668 6238.5854)" class="st5 st6 st7">un luogo</text>
								<text transform="matrix(0.9647 0.2634 -0.2634 0.9647 718.127 6224.6089)" class="st5 st6 st8">un luogo</text>
								<text transform="matrix(0.8599 0.5105 -0.5105 0.8599 706.7886 6253.5688)" class="st5 st6 st8">un luogo</text>
								<text transform="matrix(0.693 0.7209 -0.7209 0.693 688.5994 6275.7422)" class="st5 st6 st8">un luogo</text>
								<text transform="matrix(0.4763 0.8793 -0.8793 0.4763 663.953 6292.8643)" class="st5 st6 st8">un luogo</text>
							</g>
						</g>
					</g>
				</g>
			</g>
		</g>
	</g>
</g>
</svg>
