<svg xmlns="http://www.w3.org/2000/svg" xmlns:xlink="http://www.w3.org/1999/xlink" width="938" height="105.29" viewBox="0 0 938 105.29">
  <defs>
    <clipPath id="clip-path">
      <rect id="SVGID" width="11.6" height="11.6" transform="translate(236.6 -103.869)" fill="none"/>
    </clipPath>
    <clipPath id="clip-path-2">
      <rect id="SVGID-2" data-name="SVGID" width="11.61" height="11.61" transform="translate(236.521 -103.748)" fill="none"/>
    </clipPath>
    <clipPath id="clip-Legend02">
      <rect width="938" height="105.29"/>
    </clipPath>
  </defs>
  <g id="Legend02" clip-path="url(#clip-Legend02)">
    <g id="legend" transform="translate(0.2 137.196)">
      <g id="Group_24470" data-name="Group 24470">
        <path id="Path_161868" data-name="Path 161868" d="M.889,0h4.59V-1.172H2.129V-2.881h3.12V-4.019H2.129V-5.762h3.35V-6.9H.889ZM6.968,0h4.189V-1.172H8.208V-6.9H6.968Zm5.19,0h4.59V-1.172H13.4V-2.881h3.12V-4.019H13.4V-5.762h3.35V-6.9h-4.59Zm6.079,0h1.191V-5.161L21.138-.6h1.2l1.709-4.561V0h1.191V-6.9h-1.67L21.738-1.992,19.907-6.9h-1.67Zm8.779,0h4.59V-1.172h-3.35V-2.881h3.12V-4.019h-3.12V-5.762h3.35V-6.9h-4.59ZM33.1,0h1.191V-4.839L37.178,0h1.24V-6.9H37.227V-2.07L34.326-6.9H33.1Zm8.472,0h1.24V-5.791h2.158V-6.9H39.4v1.108h2.163Zm4.39,0H47.2V-6.9h-1.24Z" transform="translate(237.044 -113.395)" fill="#5151fc"/>
      </g>
      <g id="Group_24471" data-name="Group 24471" transform="translate(8.053)">
        <path id="Path_161861" data-name="Path 161861" d="M.474,0H1.25l.713-3.115H3.154A2.4,2.4,0,0,0,5.747-4.927C6.035-6.152,5.308-6.9,3.97-6.9h-1.9ZM2.119-3.8l.562-2.407H3.872c.918,0,1.313.415,1.143,1.143A1.614,1.614,0,0,1,3.262-3.8ZM7.344.059a2.925,2.925,0,0,0,2-.728L8.9-1.118a2.12,2.12,0,0,1-1.528.532c-.913,0-1.206-.708-1-1.572h3.4c.02-.054.049-.151.049-.151.322-1.353.1-2.632-1.523-2.632A2.883,2.883,0,0,0,5.684-2.48C5.366-1.074,5.859.059,7.344.059ZM6.509-2.754A1.9,1.9,0,0,1,8.262-4.292c.913,0,1.2.586.986,1.538ZM10.547,0h.732l.527-2.275c.234-1.016.933-1.982,1.792-1.982a1.143,1.143,0,0,1,.605.176l.356-.62a1.365,1.365,0,0,0-.82-.249,1.852,1.852,0,0,0-1.528.913l.19-.84h-.737Zm5.107.1a1.8,1.8,0,0,0,1.9-1.621c0-1.582-2.212-.962-2.212-2.017,0-.542.43-.8.972-.8a.952.952,0,0,1,1,.625l.61-.264a1.574,1.574,0,0,0-1.577-.977A1.508,1.508,0,0,0,14.658-3.5c0,1.563,2.173.908,2.173,2a1.028,1.028,0,0,1-1.118.947,1,1,0,0,1-1.079-.84l-.664.249A1.6,1.6,0,0,0,15.654.1Zm4.658,0a3.057,3.057,0,0,0,2.822-2.446c.332-1.426-.376-2.593-1.777-2.593A3.047,3.047,0,0,0,18.545-2.49C18.213-1.064,18.9.1,20.313.1Zm.039-.645c-1.055,0-1.24-.864-1.025-1.8a2.194,2.194,0,0,1,2-1.943c1.069,0,1.25.864,1.03,1.8A2.19,2.19,0,0,1,20.352-.547ZM23.843,0h.728l.635-2.739a2.066,2.066,0,0,1,1.846-1.528c.815,0,.82.679.674,1.343L27.051,0h.732l.674-2.93c.249-1.084-.029-2.031-1.27-2.031a2.255,2.255,0,0,0-1.675.82l.181-.737h-.732ZM33.55-4.878l-.176.688a1.382,1.382,0,0,0-1.382-.791A2.831,2.831,0,0,0,29.521-2.51C29.194-1.084,29.658.1,30.938.1a2.156,2.156,0,0,0,1.631-.713L32.446,0h.713l1.118-4.878ZM33.062-2.51c-.234,1.035-.869,1.943-1.9,1.943-.947,0-1.147-.845-.918-1.8.229-1.025.884-1.938,1.895-1.938C33.105-4.307,33.281-3.462,33.062-2.51ZM38.652.034l1.143-4.912h-.737l-.171.7a1.391,1.391,0,0,0-1.353-.8,2.813,2.813,0,0,0-2.5,2.461c-.327,1.426.122,2.6,1.45,2.6A2.172,2.172,0,0,0,38.1-.664l-.161.63a1.793,1.793,0,0,1-1.733,1.519A1.105,1.105,0,0,1,35.059.767l-.625.356a1.735,1.735,0,0,0,1.738.991A2.435,2.435,0,0,0,38.652.034Zm-1.973-.6c-.957,0-1.152-.864-.923-1.812.225-1.021.894-1.953,1.909-1.953.957,0,1.123.869.908,1.812C38.345-1.5,37.7-.566,36.68-.566Zm7.49.6,1.143-4.912h-.737l-.171.7a1.391,1.391,0,0,0-1.353-.8,2.813,2.813,0,0,0-2.5,2.461c-.327,1.426.122,2.6,1.45,2.6a2.172,2.172,0,0,0,1.616-.742l-.161.63a1.793,1.793,0,0,1-1.733,1.519A1.105,1.105,0,0,1,40.576.767l-.625.356a1.735,1.735,0,0,0,1.738.991A2.435,2.435,0,0,0,44.17.034ZM42.2-.566c-.957,0-1.152-.864-.923-1.812.225-1.021.894-1.953,1.909-1.953.957,0,1.123.869.908,1.812C43.862-1.5,43.218-.566,42.2-.566Zm4.976-5.4h.845l.215-.937h-.84ZM45.85,0h.737L47.71-4.878h-.742Zm4.316.1a3.057,3.057,0,0,0,2.822-2.446c.332-1.426-.376-2.593-1.777-2.593A3.047,3.047,0,0,0,48.4-2.49C48.066-1.064,48.755.1,50.166.1Zm.039-.645c-1.055,0-1.24-.864-1.025-1.8a2.194,2.194,0,0,1,2-1.943c1.069,0,1.25.864,1.03,1.8A2.19,2.19,0,0,1,50.205-.547ZM57.72-5.962h.845l.215-.937h-.84ZM56.4,0h.737l1.123-4.878h-.742Zm2.383,0h.732l.635-2.749a1.918,1.918,0,0,1,1.665-1.6c.815,0,.806.728.649,1.4L61.787,0h.737l.63-2.749a1.923,1.923,0,0,1,1.66-1.6c.82,0,.815.757.664,1.421L64.8,0h.737l.679-2.93c.249-1.084-.049-2.031-1.289-2.031a2.044,2.044,0,0,0-1.709.981,1.146,1.146,0,0,0-1.3-.991,1.781,1.781,0,0,0-1.484.9l.2-.806H59.9Zm8.286,0H67.8l.635-2.749a1.918,1.918,0,0,1,1.665-1.6c.815,0,.806.728.649,1.4L70.073,0h.737l.63-2.749a1.923,1.923,0,0,1,1.66-1.6c.82,0,.815.757.664,1.421L73.091,0h.737l.679-2.93c.249-1.084-.049-2.031-1.289-2.031a2.044,2.044,0,0,0-1.709.981,1.146,1.146,0,0,0-1.3-.991,1.781,1.781,0,0,0-1.484.9l.2-.806h-.737ZM79.6-4.878l-.176.688a1.382,1.382,0,0,0-1.382-.791A2.831,2.831,0,0,0,75.571-2.51C75.244-1.084,75.708.1,76.987.1a2.156,2.156,0,0,0,1.631-.713L78.5,0h.713l1.118-4.878ZM79.111-2.51c-.234,1.035-.869,1.943-1.9,1.943-.947,0-1.147-.845-.918-1.8.229-1.025.884-1.938,1.895-1.938C79.155-4.307,79.331-3.462,79.111-2.51ZM84.7.034l1.143-4.912h-.737l-.171.7a1.391,1.391,0,0,0-1.353-.8,2.813,2.813,0,0,0-2.5,2.461c-.327,1.426.122,2.6,1.45,2.6A2.172,2.172,0,0,0,84.15-.664l-.161.63a1.793,1.793,0,0,1-1.733,1.519A1.105,1.105,0,0,1,81.108.767l-.625.356a1.735,1.735,0,0,0,1.738.991A2.435,2.435,0,0,0,84.7.034Zm-1.973-.6c-.957,0-1.152-.864-.923-1.812.225-1.021.894-1.953,1.909-1.953.957,0,1.123.869.908,1.812C84.395-1.5,83.75-.566,82.729-.566Zm4.976-5.4h.845l.215-.937h-.84ZM86.382,0h.737l1.123-4.878H87.5Zm2.383,0h.728l.635-2.739a2.066,2.066,0,0,1,1.846-1.528c.815,0,.82.679.674,1.343L91.973,0h.732l.674-2.93c.249-1.084-.029-2.031-1.27-2.031a2.255,2.255,0,0,0-1.675.82l.181-.737h-.732Zm9.707-4.878-.176.688a1.382,1.382,0,0,0-1.382-.791A2.831,2.831,0,0,0,94.443-2.51C94.116-1.084,94.58.1,95.859.1A2.156,2.156,0,0,0,97.49-.615L97.368,0h.713L99.2-4.878ZM97.983-2.51c-.234,1.035-.869,1.943-1.9,1.943-.947,0-1.147-.845-.918-1.8.229-1.025.884-1.938,1.895-1.938C98.027-4.307,98.2-3.462,97.983-2.51ZM99.736,0h.732L101-2.275c.234-1.016.933-1.982,1.792-1.982a1.143,1.143,0,0,1,.605.176l.356-.62a1.365,1.365,0,0,0-.82-.249,1.852,1.852,0,0,0-1.528.913l.19-.84h-.737Zm5.21-5.962h.845l.215-.937h-.84ZM103.623,0h.737l1.123-4.878h-.742Zm4.316.1a3.057,3.057,0,0,0,2.822-2.446c.332-1.426-.376-2.593-1.777-2.593a3.047,3.047,0,0,0-2.812,2.451C105.84-1.064,106.528.1,107.939.1Zm.039-.645c-1.055,0-1.24-.864-1.025-1.8a2.194,2.194,0,0,1,2-1.943c1.069,0,1.25.864,1.03,1.8A2.19,2.19,0,0,1,107.979-.547Z" transform="translate(260.274 -94.383)" fill="#4500ff"/>
      </g>
      <g id="Group_24472" data-name="Group 24472" transform="translate(370.745)">
        <path id="Path_161860" data-name="Path 161860" d="M1.035,0h.771V-6.23L3.877-.6h.85L6.8-6.23V0h.767V-6.9H6.309L4.287-1.357,2.295-6.9H1.035Zm10.2.068A2.392,2.392,0,0,0,13.1-.693l-.5-.4a1.7,1.7,0,0,1-1.372.522A1.444,1.444,0,0,1,9.8-2.192h3.4c.01-.088.024-.249.024-.376,0-1.123-.488-2.378-2.07-2.378-1.416,0-2.119,1.226-2.119,2.534A2.211,2.211,0,0,0,11.235.068ZM9.8-2.788c.039-.83.459-1.558,1.353-1.558,1,0,1.353.776,1.372,1.558ZM15.84.1a1.966,1.966,0,0,0,.654-.1V-.625a1.164,1.164,0,0,1-.488.122c-.356,0-.62-.249-.62-.786V-4.282h1.235v-.6H15.386V-6.66l-.723.684v1.1h-.786v.6h.781v2.988C14.658-.459,14.976.1,15.84.1Zm3.076,0A1.821,1.821,0,0,0,20.63-.942L20.645,0h.62V-2.993A1.8,1.8,0,0,0,19.355-4.98a2.164,2.164,0,0,0-1.841.957l.532.415A1.605,1.605,0,0,1,19.4-4.346c.884,0,1.2.64,1.2,1.558H19.482c-1.387,0-2.148.454-2.148,1.431A1.43,1.43,0,0,0,18.916.1ZM19-.518c-.508,0-.913-.239-.913-.82,0-.649.5-.9,1.465-.9H20.6A1.683,1.683,0,0,1,19-.518ZM23.008,0h.728V-4.282h1.4v-.6h-1.4v-.781c0-.5.273-.728.649-.728a1.387,1.387,0,0,1,.571.151l.176-.581a1.825,1.825,0,0,0-.8-.186,1.225,1.225,0,0,0-1.318,1.3v.82h-.894v.6h.889Zm4.8.1a2.4,2.4,0,0,0,2.324-2.549A2.383,2.383,0,0,0,27.813-4.98a2.361,2.361,0,0,0-2.3,2.529A2.376,2.376,0,0,0,27.813.1Zm0-.605c-1.074,0-1.572-.957-1.572-1.943s.5-1.924,1.582-1.924S29.4-3.428,29.4-2.451,28.911-.508,27.817-.508ZM31.377,0h.718V-2.437c0-1.177.5-1.846,1.333-1.846a.888.888,0,0,1,.6.186l.308-.63a1.268,1.268,0,0,0-.786-.254,1.572,1.572,0,0,0-1.44.967v-.864h-.728Zm5.029.1A1.821,1.821,0,0,0,38.12-.942L38.135,0h.62V-2.993A1.8,1.8,0,0,0,36.846-4.98,2.164,2.164,0,0,0,35-4.023l.532.415a1.605,1.605,0,0,1,1.353-.737c.884,0,1.2.64,1.2,1.558H36.973c-1.387,0-2.148.454-2.148,1.431A1.43,1.43,0,0,0,36.406.1Zm.083-.615c-.508,0-.913-.239-.913-.82,0-.649.5-.9,1.465-.9h1.045A1.683,1.683,0,0,1,36.489-.518ZM44.814.1a2.4,2.4,0,0,0,2.324-2.549A2.383,2.383,0,0,0,44.814-4.98a2.361,2.361,0,0,0-2.3,2.529A2.376,2.376,0,0,0,44.814.1Zm0-.605c-1.074,0-1.572-.957-1.572-1.943s.5-1.924,1.582-1.924S46.4-3.428,46.4-2.451,45.913-.508,44.819-.508ZM52.373.1a1.521,1.521,0,0,0,1.675-1.489c0-1.792-2.632-1.2-2.632-2.324,0-.4.327-.674.854-.674a1.15,1.15,0,0,1,1.089.688l.537-.308a1.733,1.733,0,0,0-1.6-.972,1.392,1.392,0,0,0-1.548,1.353c0,1.655,2.593,1.011,2.593,2.324,0,.527-.405.806-.957.806a1.237,1.237,0,0,1-1.216-.928l-.615.317A1.893,1.893,0,0,0,52.373.1Zm2.842-6.06h.83V-6.9h-.83ZM55.269,0h.723V-4.878h-.723Zm2.373,0h.737V-2.544c0-.884.435-1.816,1.245-1.816.835,0,1.025.776,1.025,1.45V0h.742V-2.705c0-.8.435-1.655,1.235-1.655.845,0,1.045.806,1.045,1.47V0h.737V-2.964c0-1.084-.488-2.017-1.694-2.017A1.618,1.618,0,0,0,61.2-3.96,1.465,1.465,0,0,0,59.707-4.98a1.459,1.459,0,0,0-1.328.859v-.757h-.737Zm8.252-5.962h.83V-6.9h-.83ZM65.947,0h.723V-4.878h-.723Zm3.335-.537c-.22,0-.239-.264-.239-.278V-6.9h-.737V-.986C68.306-.4,68.359.1,69.1.1a2.381,2.381,0,0,0,.659-.1V-.586A2.891,2.891,0,0,1,69.282-.537Zm1.523-5.425h.83V-6.9h-.83ZM70.859,0h.723V-4.878h-.723Zm3.73.1a1.966,1.966,0,0,0,.654-.1V-.625a1.164,1.164,0,0,1-.488.122c-.356,0-.62-.249-.62-.786V-4.282h1.235v-.6H74.136V-6.66l-.723.684v1.1h-.786v.6h.781v2.988C73.408-.459,73.726.1,74.59.1Zm3.491.01a1.736,1.736,0,0,0,1.533-.933V0h.723V-4.878h-.723v2.7a1.566,1.566,0,0,1-1.455,1.67c-.835,0-1.025-.786-1.025-1.489V-4.878h-.728v2.832C76.406-.83,76.88.107,78.081.107ZM85.073-6.9v2.686a1.746,1.746,0,0,0-1.528-.767c-1.245,0-1.953,1.143-1.953,2.539S82.3.1,83.55.1a1.734,1.734,0,0,0,1.528-.776L85.093,0H85.8V-6.9ZM83.735-.518c-.977,0-1.4-.928-1.4-1.924s.42-1.924,1.4-1.924c1,0,1.4.938,1.4,1.924S84.731-.518,83.735-.518Zm3.677-5.444h.83V-6.9h-.83ZM87.466,0h.723V-4.878h-.723Zm2.373,0h.728V-2.534c0-1.211.61-1.812,1.377-1.812.859,0,1.108.781,1.108,1.455V0h.723V-2.964c0-1.074-.474-2-1.636-2a1.752,1.752,0,0,0-1.572.938v-.85h-.728Zm7.285.068a2.392,2.392,0,0,0,1.865-.762l-.5-.4a1.7,1.7,0,0,1-1.372.522,1.444,1.444,0,0,1-1.426-1.621h3.4c.01-.088.024-.249.024-.376,0-1.123-.488-2.378-2.07-2.378-1.416,0-2.119,1.226-2.119,2.534A2.211,2.211,0,0,0,97.124.068ZM95.693-2.788c.039-.83.459-1.558,1.353-1.558,1,0,1.353.776,1.372,1.558ZM104.15.1a1.821,1.821,0,0,0,1.714-1.04l.015.942h.62V-2.993A1.8,1.8,0,0,0,104.59-4.98a2.164,2.164,0,0,0-1.841.957l.532.415a1.605,1.605,0,0,1,1.353-.737c.884,0,1.2.64,1.2,1.558h-1.113c-1.387,0-2.148.454-2.148,1.431A1.43,1.43,0,0,0,104.15.1Zm.083-.615c-.508,0-.913-.239-.913-.82,0-.649.5-.9,1.465-.9h1.045A1.683,1.683,0,0,1,104.233-.518ZM108.018,0h.728V-2.534c0-1.211.61-1.812,1.377-1.812.859,0,1.108.781,1.108,1.455V0h.723V-2.964c0-1.074-.474-2-1.636-2a1.752,1.752,0,0,0-1.572.938v-.85h-.728Zm5.42-5.962h.83V-6.9h-.83ZM113.491,0h.723V-4.878h-.723Zm2.373,0h.737V-2.544c0-.884.435-1.816,1.245-1.816.835,0,1.025.776,1.025,1.45V0h.742V-2.705c0-.8.435-1.655,1.235-1.655.845,0,1.045.806,1.045,1.47V0h.737V-2.964c0-1.084-.488-2.017-1.694-2.017a1.618,1.618,0,0,0-1.519,1.021A1.465,1.465,0,0,0,117.93-4.98a1.459,1.459,0,0,0-1.328.859v-.757h-.737ZM125.3.1a1.821,1.821,0,0,0,1.714-1.04l.015.942h.62V-2.993a1.8,1.8,0,0,0-1.909-1.987,2.164,2.164,0,0,0-1.841.957l.532.415a1.605,1.605,0,0,1,1.353-.737c.884,0,1.2.64,1.2,1.558h-1.113c-1.387,0-2.148.454-2.148,1.431A1.43,1.43,0,0,0,125.3.1Zm.083-.615c-.508,0-.913-.239-.913-.82,0-.649.5-.9,1.465-.9h1.045A1.683,1.683,0,0,1,125.381-.518Zm4.746-.02c-.22,0-.239-.264-.239-.278V-6.9h-.737V-.986c0,.586.054,1.084.791,1.084A2.381,2.381,0,0,0,130.6,0V-.586A2.891,2.891,0,0,1,130.127-.537Zm3.389.605a2.392,2.392,0,0,0,1.865-.762l-.5-.4a1.7,1.7,0,0,1-1.372.522,1.444,1.444,0,0,1-1.426-1.621h3.4c.01-.088.024-.249.024-.376,0-1.123-.488-2.378-2.07-2.378-1.416,0-2.119,1.226-2.119,2.534A2.211,2.211,0,0,0,133.516.068Zm-1.431-2.856c.039-.83.459-1.558,1.353-1.558,1,0,1.353.776,1.372,1.558Z" transform="translate(259.239 -72.383)"/>
      </g>
      <path id="Path_161859" data-name="Path 161859" d="M2.261,0H3.5V-5.791H5.659V-6.9H.1v1.108H2.261ZM6.65,0h1.24V-6.9H6.65ZM9.668,0H10.9V-2.861h.933c1.406,0,2.437-.708,2.437-2S13.237-6.9,11.831-6.9H9.668ZM10.9-4.019V-5.742h.933c.84,0,1.206.322,1.206.884s-.356.84-1.206.84ZM18.208.1a3.229,3.229,0,0,0,3.33-3.55A3.229,3.229,0,0,0,18.208-7a3.229,3.229,0,0,0-3.33,3.55A3.229,3.229,0,0,0,18.208.1Zm0-1.1c-1.479,0-2.021-1.147-2.021-2.451S16.729-5.9,18.208-5.9s2.021,1.147,2.021,2.446S19.688-1,18.208-1Zm4.619,1h4.189V-1.172H24.067V-6.9h-1.24Zm7.8.1a3.229,3.229,0,0,0,3.33-3.55A3.229,3.229,0,0,0,30.63-7a3.229,3.229,0,0,0-3.33,3.55A3.229,3.229,0,0,0,30.63.1Zm0-1.1c-1.479,0-2.021-1.147-2.021-2.451S29.15-5.9,30.63-5.9s2.021,1.147,2.021,2.446S32.109-1,30.63-1ZM38.1.1A2.284,2.284,0,0,0,40.142-.972L40.249,0h.981V-3.73H38.462v1h1.567A1.9,1.9,0,0,1,38.1-1.011c-1.479,0-2.109-1.118-2.109-2.49,0-1.279.63-2.427,2.09-2.427A1.894,1.894,0,0,1,40-4.57l1.1-.459a3.136,3.136,0,0,0-3.008-1.982c-2.28,0-3.33,1.67-3.33,3.56A3.235,3.235,0,0,0,38.1.1ZM42.739,0h1.24V-6.9h-1.24Zm2.188,0h1.353l.537-1.5H49.5L50.029,0h1.338L48.618-6.9H47.69Zm2.31-2.559.923-2.52.918,2.52ZM56.689.078a2.169,2.169,0,0,0,2.4-2.09c0-2.29-3.34-1.851-3.34-3.149a.786.786,0,0,1,.869-.737,1.249,1.249,0,0,1,1.113.737l1.03-.63A2.309,2.309,0,0,0,56.66-7a1.951,1.951,0,0,0-2.153,1.9c0,2.246,3.34,1.768,3.34,3.2,0,.488-.4.879-1.138.879a1.315,1.315,0,0,1-1.431-1.24l-1.23.313A2.507,2.507,0,0,0,56.689.078ZM60.269,0h4.59V-1.172h-3.35V-2.881h3.12V-4.019h-3.12V-5.762h3.35V-6.9h-4.59ZM72.012.581l.8-.752-.986-.937A4.038,4.038,0,0,0,72.5-3.442,3.237,3.237,0,0,0,69.17-7a3.229,3.229,0,0,0-3.33,3.55A3.229,3.229,0,0,0,69.17.1,3.3,3.3,0,0,0,71.021-.41ZM69.17-1.069c-1.479,0-2.09-1.079-2.09-2.383s.61-2.378,2.09-2.378,2.09,1.079,2.09,2.378a2.87,2.87,0,0,1-.342,1.44L70-2.861l-.8.732.942.859A2.316,2.316,0,0,1,69.17-1.069ZM76.489.1C78.34.1,79.131-1,79.131-2.739V-6.9h-1.24v4.067c0,1.113-.288,1.733-1.4,1.733s-1.4-.62-1.4-1.733V-6.9H73.853V-2.69C73.853-1,74.639.1,76.489.1ZM80.747,0h4.59V-1.172h-3.35V-2.881h3.12V-4.019h-3.12V-5.762h3.35V-6.9h-4.59Zm6.079,0h1.191V-4.839L90.908,0h1.24V-6.9H90.957V-2.07L88.057-6.9h-1.23Zm6.5,0h5.562V-1.118H95.059L98.887-6v-.9H93.545v1.138h3.633l-3.853,4.9Zm5.981,0h1.353l.537-1.5h2.681l.532,1.5h1.338L103-6.9h-.928Zm2.31-2.559.923-2.52.918,2.52ZM109.1,0h1.191V-4.839L113.179,0h1.24V-6.9h-1.191V-2.07l-2.9-4.829H109.1Zm6.27,0h1.353l.537-1.5h2.681l.532,1.5h1.338l-2.749-6.9h-.928Zm2.31-2.559.923-2.52.918,2.52ZM122.754.01h1.24V-2.949h.83l1.7,2.959h1.421l-1.919-3.081a1.891,1.891,0,0,0,1.348-1.8A2.139,2.139,0,0,0,124.985-6.9h-2.231ZM124-3.96V-5.791H125c.708,0,1.152.371,1.152.942,0,.518-.391.859-1.05.889ZM128.945.01h1.24V-2.949h.83l1.7,2.959h1.421l-1.919-3.081a1.891,1.891,0,0,0,1.348-1.8A2.139,2.139,0,0,0,131.177-6.9h-2.231Zm1.25-3.97V-5.791h.991c.708,0,1.152.371,1.152.942,0,.518-.391.859-1.05.889ZM134.287,0h1.353l.537-1.5h2.681L139.39,0h1.338l-2.749-6.9h-.928Zm2.31-2.559.923-2.52.918,2.52ZM142.4,0h1.24V-5.791H145.8V-6.9h-5.562v1.108H142.4Zm4.39,0h1.24V-6.9h-1.24Zm4.951,0h.928l2.749-6.9h-1.357l-1.851,4.888L150.347-6.9h-1.372Zm3.184,0h1.353l.537-1.5h2.681l.532,1.5h1.338l-2.749-6.9h-.928Zm2.31-2.559.923-2.52.918,2.52Z" transform="translate(0.044 -113.395)" fill="#5151fc"/>
      <g id="Group_24473" data-name="Group 24473">
        <path id="Path_161867" data-name="Path 161867" d="M.889,0h1.24V-2.881H5.352V-4.019H2.129V-5.762H5.781V-6.9H.889Zm6.03,0h1.24V-6.9H6.919Zm5.869.1A2.284,2.284,0,0,0,14.829-.972L14.937,0h.981V-3.73H13.149v1h1.567a1.9,1.9,0,0,1-1.929,1.719c-1.479,0-2.109-1.118-2.109-2.49,0-1.279.63-2.427,2.09-2.427A1.894,1.894,0,0,1,14.688-4.57l1.1-.459a3.136,3.136,0,0,0-3.008-1.982c-2.28,0-3.33,1.67-3.33,3.56A3.235,3.235,0,0,0,12.788.1Zm7.119,0c1.851,0,2.642-1.1,2.642-2.837V-6.9h-1.24v4.067c0,1.113-.288,1.733-1.4,1.733s-1.4-.62-1.4-1.733V-6.9H17.271V-2.69C17.271-1,18.057.1,19.907.1ZM24.165.01h1.24V-2.949h.83L27.935.01h1.421L27.437-3.071a1.891,1.891,0,0,0,1.348-1.8A2.139,2.139,0,0,0,26.4-6.9H24.165Zm1.25-3.97V-5.791h.991c.708,0,1.152.371,1.152.942,0,.518-.391.859-1.05.889ZM30.356,0h4.59V-1.172H31.6V-2.881h3.12V-4.019H31.6V-5.762h3.35V-6.9h-4.59Zm8.481.01h1.24V-2.949h.83L42.607.01h1.421L42.109-3.071a1.891,1.891,0,0,0,1.348-1.8A2.139,2.139,0,0,0,41.069-6.9H38.838Zm1.25-3.97V-5.791h.991c.708,0,1.152.371,1.152.942,0,.518-.391.859-1.05.889ZM45.029,0h4.59V-1.172H46.27V-2.881h3.12V-4.019H46.27V-5.762h3.35V-6.9h-4.59ZM52.6,0h1.24V-5.791H56V-6.9H50.439v1.108H52.6Zm7.041.1a3.229,3.229,0,0,0,3.33-3.55A3.229,3.229,0,0,0,59.644-7a3.229,3.229,0,0,0-3.33,3.55A3.229,3.229,0,0,0,59.644.1Zm0-1.1c-1.479,0-2.021-1.147-2.021-2.451S58.164-5.9,59.644-5.9s2.021,1.147,2.021,2.446S61.123-1,59.644-1ZM64.263.01H65.5V-2.949h.83L68.032.01h1.421L67.534-3.071a1.891,1.891,0,0,0,1.348-1.8A2.139,2.139,0,0,0,66.494-6.9H64.263Zm1.25-3.97V-5.791H66.5c.708,0,1.152.371,1.152.942,0,.518-.391.859-1.05.889ZM70.454,0h1.24V-6.9h-1.24Zm5.869.1A3.13,3.13,0,0,0,79.341-1.89l-1.147-.469a1.815,1.815,0,0,1-1.87,1.279c-1.479,0-2.109-1.05-2.109-2.422A2.046,2.046,0,0,1,76.3-5.83a1.734,1.734,0,0,1,1.87,1.26l1.157-.459a3.14,3.14,0,0,0-3.018-1.982,3.237,3.237,0,0,0-3.33,3.56A3.235,3.235,0,0,0,76.323.1ZM80.464,0H81.7V-2.881h3.022V0h1.24V-6.9h-1.24v2.881H81.7V-6.9h-1.24Zm7.28,0h4.59V-1.172h-3.35V-2.881H92.1V-4.019h-3.12V-5.762h3.35V-6.9h-4.59Z" transform="translate(474.933 -113.395)" fill="#5151fc"/>
      </g>
      <line id="Line_7911" data-name="Line 7911" x2="938" transform="translate(0 -136.402)" fill="none" stroke="#5151fc" stroke-miterlimit="10" stroke-width="0.5"/>
      <rect id="Rectangle_50" data-name="Rectangle 50" width="938" height="104.4" transform="translate(-0.2 -136.202)" fill="none"/>
      <path id="Path_161862" data-name="Path 161862" d="M1.035,0h.776V-6.9H1.035ZM3.662,0H4.4V-2.544c0-.884.435-1.816,1.245-1.816.835,0,1.025.776,1.025,1.45V0h.742V-2.705c0-.8.435-1.655,1.235-1.655.845,0,1.045.806,1.045,1.47V0h.737V-2.964c0-1.084-.488-2.017-1.694-2.017A1.618,1.618,0,0,0,7.217-3.96,1.465,1.465,0,0,0,5.728-4.98,1.459,1.459,0,0,0,4.4-4.121v-.757H3.662Zm8.3,0H12.7V-2.544c0-.884.435-1.816,1.245-1.816.835,0,1.025.776,1.025,1.45V0h.742V-2.705c0-.8.435-1.655,1.235-1.655.845,0,1.045.806,1.045,1.47V0h.737V-2.964c0-1.084-.488-2.017-1.694-2.017A1.618,1.618,0,0,0,15.513-3.96,1.465,1.465,0,0,0,14.023-4.98a1.459,1.459,0,0,0-1.328.859v-.757h-.737Zm9.434.1a1.821,1.821,0,0,0,1.714-1.04L23.12,0h.62V-2.993A1.8,1.8,0,0,0,21.831-4.98a2.164,2.164,0,0,0-1.841.957l.532.415a1.605,1.605,0,0,1,1.353-.737c.884,0,1.2.64,1.2,1.558H21.958c-1.387,0-2.148.454-2.148,1.431A1.43,1.43,0,0,0,21.392.1Zm.083-.615c-.508,0-.913-.239-.913-.82,0-.649.5-.9,1.465-.9h1.045A1.683,1.683,0,0,1,21.475-.518ZM27.012-.63c-.693-.1-1.3-.244-1.3-.747a.462.462,0,0,1,.21-.376,2.079,2.079,0,0,0,.918.205,1.661,1.661,0,0,0,1.8-1.68,1.761,1.761,0,0,0-.181-.791l.786-.62-.415-.518-.732.664a1.855,1.855,0,0,0-1.26-.454A1.7,1.7,0,0,0,25.01-3.237a1.625,1.625,0,0,0,.41,1.113,1,1,0,0,0-.356.806,1.082,1.082,0,0,0,.62,1l-.7.708a1.287,1.287,0,0,0-.015.186c0,.928.835,1.66,2.1,1.66,1.025,0,1.953-.479,1.953-1.484C29.023-.352,28-.5,27.012-.63Zm-.186-3.74a1.059,1.059,0,0,1,1.079,1.118,1.023,1.023,0,0,1-1.079,1.1,1.019,1.019,0,0,1-1.074-1.1A1.066,1.066,0,0,1,26.826-4.37Zm.3,5.962c-.947,0-1.484-.5-1.489-1l.576-.7A4.948,4.948,0,0,0,26.8.015c.835.142,1.577.166,1.577.791C28.374,1.338,27.773,1.592,27.129,1.592Zm3.086-7.554h.83V-6.9h-.83ZM30.269,0h.723V-4.878h-.723Zm2.373,0h.728V-2.534c0-1.211.61-1.812,1.377-1.812.859,0,1.108.781,1.108,1.455V0h.723V-2.964c0-1.074-.474-2-1.636-2a1.752,1.752,0,0,0-1.572.938v-.85h-.728Zm6.6.1a1.821,1.821,0,0,0,1.714-1.04L40.972,0h.62V-2.993A1.8,1.8,0,0,0,39.683-4.98a2.164,2.164,0,0,0-1.841.957l.532.415a1.605,1.605,0,0,1,1.353-.737c.884,0,1.2.64,1.2,1.558H39.81c-1.387,0-2.148.454-2.148,1.431A1.43,1.43,0,0,0,39.243.1Zm.083-.615c-.508,0-.913-.239-.913-.82,0-.649.5-.9,1.465-.9h1.045A1.683,1.683,0,0,1,39.326-.518Zm7.124-4.36h-3.7v.6H45.6L42.612-.552V0H46.45V-.625h-2.93l2.93-3.652Zm1.157-1.084h.83V-6.9h-.83ZM47.661,0h.723V-4.878h-.723Zm4.272.1a2.4,2.4,0,0,0,2.324-2.549A2.383,2.383,0,0,0,51.934-4.98a2.361,2.361,0,0,0-2.3,2.529A2.376,2.376,0,0,0,51.934.1Zm0-.605c-1.074,0-1.572-.957-1.572-1.943s.5-1.924,1.582-1.924,1.572.947,1.572,1.924S53.032-.508,51.938-.508ZM55.5,0h.728V-2.534c0-1.211.61-1.812,1.377-1.812.859,0,1.108.781,1.108,1.455V0h.723V-2.964c0-1.074-.474-2-1.636-2a1.752,1.752,0,0,0-1.572.938v-.85H55.5Zm7.285.068a2.392,2.392,0,0,0,1.865-.762l-.5-.4a1.7,1.7,0,0,1-1.372.522,1.444,1.444,0,0,1-1.426-1.621h3.4c.01-.088.024-.249.024-.376,0-1.123-.488-2.378-2.07-2.378-1.416,0-2.119,1.226-2.119,2.534A2.211,2.211,0,0,0,62.783.068ZM61.353-2.788c.039-.83.459-1.558,1.353-1.558,1,0,1.353.776,1.372,1.558Z" transform="translate(31.035 -94.383)"/>
      <path id="Rectangle_13361" data-name="Rectangle 13361" d="M5.142-102.4h11a4.951,4.951,0,0,1,5,5h0a4.951,4.951,0,0,1-5,5h-11a4.951,4.951,0,0,1-5-5h0A5.015,5.015,0,0,1,5.142-102.4Z" fill="#f36"/>
      <path id="Path_161865" data-name="Path 161865" d="M1.035,0h.771V-6.23L3.877-.6h.85L6.8-6.23V0h.767V-6.9H6.309L4.287-1.357,2.295-6.9H1.035Zm10.2.068A2.392,2.392,0,0,0,13.1-.693l-.5-.4a1.7,1.7,0,0,1-1.372.522A1.444,1.444,0,0,1,9.8-2.192h3.4c.01-.088.024-.249.024-.376,0-1.123-.488-2.378-2.07-2.378-1.416,0-2.119,1.226-2.119,2.534A2.211,2.211,0,0,0,11.235.068ZM9.8-2.788c.039-.83.459-1.558,1.353-1.558,1,0,1.353.776,1.372,1.558ZM15.84.1a1.966,1.966,0,0,0,.654-.1V-.625a1.164,1.164,0,0,1-.488.122c-.356,0-.62-.249-.62-.786V-4.282h1.235v-.6H15.386V-6.66l-.723.684v1.1h-.786v.6h.781v2.988C14.658-.459,14.976.1,15.84.1Zm3.076,0A1.821,1.821,0,0,0,20.63-.942L20.645,0h.62V-2.993A1.8,1.8,0,0,0,19.355-4.98a2.164,2.164,0,0,0-1.841.957l.532.415A1.605,1.605,0,0,1,19.4-4.346c.884,0,1.2.64,1.2,1.558H19.482c-1.387,0-2.148.454-2.148,1.431A1.43,1.43,0,0,0,18.916.1ZM19-.518c-.508,0-.913-.239-.913-.82,0-.649.5-.9,1.465-.9H20.6A1.683,1.683,0,0,1,19-.518ZM23.008,0h.728V-4.282h1.4v-.6h-1.4v-.781c0-.5.273-.728.649-.728a1.387,1.387,0,0,1,.571.151l.176-.581a1.825,1.825,0,0,0-.8-.186,1.225,1.225,0,0,0-1.318,1.3v.82h-.894v.6h.889Zm4.8.1a2.4,2.4,0,0,0,2.324-2.549A2.383,2.383,0,0,0,27.813-4.98a2.361,2.361,0,0,0-2.3,2.529A2.376,2.376,0,0,0,27.813.1Zm0-.605c-1.074,0-1.572-.957-1.572-1.943s.5-1.924,1.582-1.924S29.4-3.428,29.4-2.451,28.911-.508,27.817-.508ZM31.377,0h.718V-2.437c0-1.177.5-1.846,1.333-1.846a.888.888,0,0,1,.6.186l.308-.63a1.268,1.268,0,0,0-.786-.254,1.572,1.572,0,0,0-1.44.967v-.864h-.728Zm5.029.1A1.821,1.821,0,0,0,38.12-.942L38.135,0h.62V-2.993A1.8,1.8,0,0,0,36.846-4.98,2.164,2.164,0,0,0,35-4.023l.532.415a1.605,1.605,0,0,1,1.353-.737c.884,0,1.2.64,1.2,1.558H36.973c-1.387,0-2.148.454-2.148,1.431A1.43,1.43,0,0,0,36.406.1Zm.083-.615c-.508,0-.913-.239-.913-.82,0-.649.5-.9,1.465-.9h1.045A1.683,1.683,0,0,1,36.489-.518Z" transform="translate(506.218 -72.649)"/>
      <path id="Rectangle_13359" data-name="Rectangle 13359" d="M485.2-102.6h11a4.951,4.951,0,0,1,5,5h0a4.951,4.951,0,0,1-5,5h-11a4.951,4.951,0,0,1-5-5h0A5.015,5.015,0,0,1,485.2-102.6Z" transform="translate(-5.267 22)" fill="#f299c1"/>
      <path id="Path_161864" data-name="Path 161864" d="M1.035,0h.776V-6.9H1.035ZM3.662,0H4.39V-2.534c0-1.211.61-1.812,1.377-1.812.859,0,1.108.781,1.108,1.455V0H7.6V-2.964c0-1.074-.474-2-1.636-2a1.752,1.752,0,0,0-1.572.938v-.85H3.662Zm6.821.1a1.966,1.966,0,0,0,.654-.1V-.625a1.164,1.164,0,0,1-.488.122c-.356,0-.62-.249-.62-.786V-4.282h1.235v-.6H10.029V-6.66l-.723.684v1.1H8.521v.6H9.3v2.988C9.3-.459,9.619.1,10.483.1ZM14.194.068A2.392,2.392,0,0,0,16.06-.693l-.5-.4a1.7,1.7,0,0,1-1.372.522,1.444,1.444,0,0,1-1.426-1.621h3.4c.01-.088.024-.249.024-.376,0-1.123-.488-2.378-2.07-2.378C12.7-4.946,12-3.721,12-2.412A2.211,2.211,0,0,0,14.194.068ZM12.764-2.788c.039-.83.459-1.558,1.353-1.558,1,0,1.353.776,1.372,1.558ZM17.441,0h.718V-2.437c0-1.177.5-1.846,1.333-1.846a.888.888,0,0,1,.6.186l.308-.63a1.268,1.268,0,0,0-.786-.254,1.572,1.572,0,0,0-1.44.967v-.864h-.728Zm3.892,0h.718V-2.437c0-1.177.5-1.846,1.333-1.846a.888.888,0,0,1,.6.186l.308-.63A1.268,1.268,0,0,0,23.5-4.98a1.572,1.572,0,0,0-1.44.967v-.864h-.728Zm5.381.1a2.4,2.4,0,0,0,2.324-2.549A2.383,2.383,0,0,0,26.714-4.98a2.361,2.361,0,0,0-2.3,2.529A2.376,2.376,0,0,0,26.714.1Zm0-.605c-1.074,0-1.572-.957-1.572-1.943s.5-1.924,1.582-1.924S28.3-3.428,28.3-2.451,27.813-.508,26.719-.508ZM32.031-.63c-.693-.1-1.3-.244-1.3-.747a.462.462,0,0,1,.21-.376,2.079,2.079,0,0,0,.918.205,1.661,1.661,0,0,0,1.8-1.68,1.761,1.761,0,0,0-.181-.791l.786-.62-.415-.518-.732.664a1.855,1.855,0,0,0-1.26-.454,1.7,1.7,0,0,0-1.826,1.709,1.625,1.625,0,0,0,.41,1.113,1,1,0,0,0-.356.806,1.082,1.082,0,0,0,.62,1L30,.391a1.287,1.287,0,0,0-.015.186c0,.928.835,1.66,2.1,1.66,1.025,0,1.953-.479,1.953-1.484C34.043-.352,33.022-.5,32.031-.63Zm-.186-3.74a1.059,1.059,0,0,1,1.079,1.118,1.023,1.023,0,0,1-1.079,1.1,1.019,1.019,0,0,1-1.074-1.1A1.066,1.066,0,0,1,31.846-4.37Zm.3,5.962c-.947,0-1.484-.5-1.489-1l.576-.7a4.948,4.948,0,0,0,.581.127c.835.142,1.577.166,1.577.791C33.394,1.338,32.793,1.592,32.148,1.592ZM36.367.1a1.821,1.821,0,0,0,1.714-1.04L38.1,0h.62V-2.993A1.8,1.8,0,0,0,36.807-4.98a2.164,2.164,0,0,0-1.841.957l.532.415a1.605,1.605,0,0,1,1.353-.737c.884,0,1.2.64,1.2,1.558H36.934c-1.387,0-2.148.454-2.148,1.431A1.43,1.43,0,0,0,36.367.1Zm.083-.615c-.508,0-.913-.239-.913-.82,0-.649.5-.9,1.465-.9h1.045A1.683,1.683,0,0,1,36.45-.518ZM41.582.1a1.966,1.966,0,0,0,.654-.1V-.625a1.164,1.164,0,0,1-.488.122c-.356,0-.62-.249-.62-.786V-4.282h1.235v-.6H41.128V-6.66l-.723.684v1.1h-.786v.6H40.4v2.988C40.4-.459,40.718.1,41.582.1Zm1.895-6.06h.83V-6.9h-.83ZM43.53,0h.723V-4.878H43.53Zm3.55,0h.645l1.816-4.878H48.76L47.4-.947,46.055-4.878h-.8Zm3.413-5.962h.83V-6.9h-.83ZM50.547,0h.723V-4.878h-.723Zm6.836.068a2.392,2.392,0,0,0,1.865-.762l-.5-.4a1.7,1.7,0,0,1-1.372.522,1.444,1.444,0,0,1-1.426-1.621h3.4c.01-.088.024-.249.024-.376,0-1.123-.488-2.378-2.07-2.378-1.416,0-2.119,1.226-2.119,2.534A2.211,2.211,0,0,0,57.383.068ZM55.952-2.788c.039-.83.459-1.558,1.353-1.558,1,0,1.353.776,1.372,1.558ZM66.4-6.9v2.686a1.746,1.746,0,0,0-1.528-.767c-1.245,0-1.953,1.143-1.953,2.539S63.628.1,64.878.1a1.734,1.734,0,0,0,1.528-.776L66.421,0h.708V-6.9ZM65.063-.518c-.977,0-1.4-.928-1.4-1.924s.42-1.924,1.4-1.924c1,0,1.4.938,1.4,1.924S66.06-.518,65.063-.518ZM70.3.107a1.736,1.736,0,0,0,1.533-.933V0h.723V-4.878h-.723v2.7a1.566,1.566,0,0,1-1.455,1.67c-.835,0-1.025-.786-1.025-1.489V-4.878h-.728v2.832C68.623-.83,69.1.107,70.3.107ZM76.455.1c1.27,0,1.963-1.147,1.963-2.539S77.725-4.98,76.45-4.98a1.747,1.747,0,0,0-1.514.767V-6.9h-.728V0h.728V-.664A1.747,1.747,0,0,0,76.455.1Zm-.19-.615c-.977,0-1.392-.928-1.392-1.924s.415-1.924,1.392-1.924,1.426.938,1.426,1.924S77.246-.518,76.265-.518Zm5.7.615c1.27,0,1.963-1.147,1.963-2.539S83.232-4.98,81.958-4.98a1.747,1.747,0,0,0-1.514.767V-6.9h-.728V0h.728V-.664A1.747,1.747,0,0,0,81.963.1Zm-.19-.615c-.977,0-1.392-.928-1.392-1.924s.415-1.924,1.392-1.924S83.2-3.428,83.2-2.441,82.754-.518,81.772-.518Zm3.4-5.444H86V-6.9h-.83ZM85.225,0h.723V-4.878h-.723Z" transform="translate(268.327 -72.649)"/>
      <path id="Path_161863" data-name="Path 161863" d="M2.91,0h.664L6.157-6.9H5.366L3.242-1.025,1.118-6.9H.308ZM7.241-5.962h.83V-6.9h-.83ZM7.295,0h.723V-4.878H7.295Zm3.726.1A1.521,1.521,0,0,0,12.7-1.392c0-1.792-2.632-1.2-2.632-2.324,0-.4.327-.674.854-.674a1.15,1.15,0,0,1,1.089.688l.537-.308a1.733,1.733,0,0,0-1.6-.972A1.392,1.392,0,0,0,9.395-3.628c0,1.655,2.593,1.011,2.593,2.324,0,.527-.405.806-.957.806a1.237,1.237,0,0,1-1.216-.928L9.2-1.108A1.893,1.893,0,0,0,11.021.1Zm2.842-6.06h.83V-6.9h-.83ZM13.916,0h.723V-4.878h-.723Zm4.272.1a2.4,2.4,0,0,0,2.324-2.549A2.383,2.383,0,0,0,18.188-4.98a2.361,2.361,0,0,0-2.3,2.529A2.376,2.376,0,0,0,18.188.1Zm0-.605c-1.074,0-1.572-.957-1.572-1.943s.5-1.924,1.582-1.924,1.572.947,1.572,1.924S19.287-.508,18.193-.508ZM21.753,0h.728V-2.534c0-1.211.61-1.812,1.377-1.812.859,0,1.108.781,1.108,1.455V0h.723V-2.964c0-1.074-.474-2-1.636-2a1.752,1.752,0,0,0-1.572.938v-.85h-.728Zm5.42-5.962H28V-6.9h-.83ZM27.227,0h.723V-4.878h-.723Zm6.836.068a2.392,2.392,0,0,0,1.865-.762l-.5-.4a1.7,1.7,0,0,1-1.372.522,1.444,1.444,0,0,1-1.426-1.621h3.4c.01-.088.024-.249.024-.376,0-1.123-.488-2.378-2.07-2.378-1.416,0-2.119,1.226-2.119,2.534A2.211,2.211,0,0,0,34.063.068ZM32.632-2.788c.039-.83.459-1.558,1.353-1.558,1,0,1.353.776,1.372,1.558ZM43.081-6.9v2.686a1.746,1.746,0,0,0-1.528-.767c-1.245,0-1.953,1.143-1.953,2.539S40.308.1,41.558.1a1.734,1.734,0,0,0,1.528-.776L43.1,0h.708V-6.9ZM41.743-.518c-.977,0-1.4-.928-1.4-1.924s.42-1.924,1.4-1.924c1,0,1.4.938,1.4,1.924S42.739-.518,41.743-.518Zm5.542.586A2.392,2.392,0,0,0,49.15-.693l-.5-.4a1.7,1.7,0,0,1-1.372.522,1.444,1.444,0,0,1-1.426-1.621h3.4c.01-.088.024-.249.024-.376,0-1.123-.488-2.378-2.07-2.378-1.416,0-2.119,1.226-2.119,2.534A2.211,2.211,0,0,0,47.285.068ZM45.854-2.788c.039-.83.459-1.558,1.353-1.558,1,0,1.353.776,1.372,1.558ZM51.885.1A1.521,1.521,0,0,0,53.56-1.392c0-1.792-2.632-1.2-2.632-2.324,0-.4.327-.674.854-.674a1.15,1.15,0,0,1,1.089.688l.537-.308a1.733,1.733,0,0,0-1.6-.972,1.392,1.392,0,0,0-1.548,1.353c0,1.655,2.593,1.011,2.593,2.324,0,.527-.405.806-.957.806a1.237,1.237,0,0,1-1.216-.928l-.615.317A1.893,1.893,0,0,0,51.885.1Zm2.842-6.06h.83V-6.9h-.83ZM54.78,0H55.5V-4.878H54.78Zm5.5-6.9v2.686a1.746,1.746,0,0,0-1.528-.767C57.51-4.98,56.8-3.838,56.8-2.441S57.51.1,58.76.1a1.734,1.734,0,0,0,1.528-.776L60.3,0h.708V-6.9ZM58.945-.518c-.977,0-1.4-.928-1.4-1.924s.42-1.924,1.4-1.924c1,0,1.4.938,1.4,1.924S59.941-.518,58.945-.518Zm5.542.586a2.392,2.392,0,0,0,1.865-.762l-.5-.4a1.7,1.7,0,0,1-1.372.522,1.444,1.444,0,0,1-1.426-1.621h3.4c.01-.088.024-.249.024-.376,0-1.123-.488-2.378-2.07-2.378-1.416,0-2.119,1.226-2.119,2.534A2.211,2.211,0,0,0,64.487.068ZM63.057-2.788c.039-.83.459-1.558,1.353-1.558,1,0,1.353.776,1.372,1.558ZM67.734,0h.718V-2.437c0-1.177.5-1.846,1.333-1.846a.888.888,0,0,1,.6.186l.308-.63A1.268,1.268,0,0,0,69.9-4.98a1.572,1.572,0,0,0-1.44.967v-.864h-.728Zm3.848-5.962h.83V-6.9h-.83ZM71.636,0h.723V-4.878h-.723Z" transform="translate(506.215 -93.555)"/>
      <path id="Rectangle_13359-2" data-name="Rectangle 13359" d="M601.7-102.6h11a4.951,4.951,0,0,1,5,5h0a4.951,4.951,0,0,1-5,5h-11a4.951,4.951,0,0,1-5-5h0A5.015,5.015,0,0,1,601.7-102.6Z" transform="translate(-359.656 22)" fill="#fc6"/>
      <path id="Rectangle_13360" data-name="Rectangle 13360" d="M601.7-80.6h11a4.951,4.951,0,0,1,5,5h0a4.951,4.951,0,0,1-5,5h-11a4.951,4.951,0,0,1-5-5h0A5.015,5.015,0,0,1,601.7-80.6Z" transform="translate(-121.767 -20.906)" fill="#fbfb97"/>
      <path id="Path_161866" data-name="Path 161866" d="M2.788.078A1.981,1.981,0,0,0,4.941-1.9c0-2.227-3.325-1.87-3.325-3.418A1.039,1.039,0,0,1,2.725-6.333a1.454,1.454,0,0,1,1.343.8l.581-.391A2.1,2.1,0,0,0,2.734-7,1.758,1.758,0,0,0,.864-5.254c0,2.1,3.325,1.626,3.325,3.408,0,.835-.571,1.235-1.4,1.235A1.537,1.537,0,0,1,1.128-1.982l-.723.215A2.25,2.25,0,0,0,2.788.078Zm3.369-6.04h.83V-6.9h-.83ZM6.211,0h.723V-4.878H6.211ZM8.584,0h.737V-2.544c0-.884.435-1.816,1.245-1.816.835,0,1.025.776,1.025,1.45V0h.742V-2.705c0-.8.435-1.655,1.235-1.655.845,0,1.045.806,1.045,1.47V0h.737V-2.964c0-1.084-.488-2.017-1.694-2.017A1.618,1.618,0,0,0,12.139-3.96,1.465,1.465,0,0,0,10.649-4.98a1.459,1.459,0,0,0-1.328.859v-.757H8.584Zm8.252-5.962h.83V-6.9h-.83ZM16.89,0h.723V-4.878H16.89Zm3.335-.537c-.22,0-.239-.264-.239-.278V-6.9h-.737V-.986C19.248-.4,19.3.1,20.039.1A2.381,2.381,0,0,0,20.7,0V-.586A2.891,2.891,0,0,1,20.225-.537Zm1.523-5.425h.83V-6.9h-.83ZM21.8,0h.723V-4.878H21.8Zm3.73.1a1.966,1.966,0,0,0,.654-.1V-.625A1.164,1.164,0,0,1,25.7-.5c-.356,0-.62-.249-.62-.786V-4.282h1.235v-.6H25.078V-6.66l-.723.684v1.1h-.786v.6h.781v2.988C24.351-.459,24.668.1,25.532.1Zm3.491.01a1.736,1.736,0,0,0,1.533-.933V0h.723V-4.878h-.723v2.7A1.566,1.566,0,0,1,29.1-.508c-.835,0-1.025-.786-1.025-1.489V-4.878h-.728v2.832C27.349-.83,27.822.107,29.023.107ZM36.016-6.9v2.686a1.746,1.746,0,0,0-1.528-.767c-1.245,0-1.953,1.143-1.953,2.539S33.242.1,34.492.1a1.734,1.734,0,0,0,1.528-.776L36.035,0h.708V-6.9ZM34.678-.518c-.977,0-1.4-.928-1.4-1.924s.42-1.924,1.4-1.924c1,0,1.4.938,1.4,1.924S35.674-.518,34.678-.518Zm3.677-5.444h.83V-6.9h-.83ZM38.408,0h.723V-4.878h-.723Zm2.373,0h.728V-2.534c0-1.211.61-1.812,1.377-1.812.859,0,1.108.781,1.108,1.455V0h.723V-2.964c0-1.074-.474-2-1.636-2a1.752,1.752,0,0,0-1.572.938v-.85h-.728Zm7.285.068a2.392,2.392,0,0,0,1.865-.762l-.5-.4a1.7,1.7,0,0,1-1.372.522,1.444,1.444,0,0,1-1.426-1.621h3.4c.01-.088.024-.249.024-.376,0-1.123-.488-2.378-2.07-2.378-1.416,0-2.119,1.226-2.119,2.534A2.211,2.211,0,0,0,48.066.068ZM46.636-2.788c.039-.83.459-1.558,1.353-1.558,1,0,1.353.776,1.372,1.558Z" transform="translate(629.984 -94.602)"/>
      <path id="Rectangle_13360-2" data-name="Rectangle 13360" d="M485.2-80.6h11a4.951,4.951,0,0,1,5,5h0a4.951,4.951,0,0,1-5,5h-11a4.951,4.951,0,0,1-5-5h0A5.015,5.015,0,0,1,485.2-80.6Z" transform="translate(118.5 -21.953)" fill="#9ff"/>
    </g>
    <g id="Group_24474" data-name="Group 24474" transform="translate(368.2 137.196)">
      <path id="Path_153173" data-name="Path 153173" d="M242.4-80.6a5.015,5.015,0,0,1,5,5,5.015,5.015,0,0,1-5,5,5.081,5.081,0,0,1-5-5,5.015,5.015,0,0,1,5-5m0-.7a5.763,5.763,0,0,0-5.7,5.7,5.763,5.763,0,0,0,5.7,5.7,5.763,5.763,0,0,0,5.7-5.7,5.763,5.763,0,0,0-5.7-5.7Z" fill="#f299c1"/>
    </g>
    <g id="Group_24481" data-name="Group 24481" transform="translate(5.2 137.196)">
      <g id="Group_24480" data-name="Group 24480">
        <g id="Group_24479" data-name="Group 24479" clip-path="url(#clip-path)">
          <g id="Group_24478" data-name="Group 24478">
            <g id="Group_24477" data-name="Group 24477">
              <g id="Group_24476" data-name="Group 24476" clip-path="url(#clip-path-2)">
                <g id="Group_24475" data-name="Group 24475">
                  <circle id="Ellipse_33594" data-name="Ellipse 33594" cx="5.49" cy="5.49" r="5.49" transform="translate(236.881 -103.478)" fill="#5151fc" stroke="#fff" stroke-miterlimit="10" stroke-width="0.75"/>
                  <rect id="Rectangle_19346" data-name="Rectangle 19346" width="3.24" height="6.57" transform="translate(241.381 -100.778)" fill="none"/>
                  <path id="Path_161869" data-name="Path 161869" d="M.529-4.522H1.5v-.856H.529ZM.552,0h.921V-3.8H.552Z" transform="translate(241.367 -95.35)" fill="#fff"/>
                </g>
              </g>
            </g>
          </g>
        </g>
      </g>
    </g>
  </g>
</svg>
