<?xml version="1.0" encoding="utf-8"?>
<!-- Generator: Adobe Illustrator 24.3.0, SVG Export Plug-In . SVG Version: 6.00 Build 0)  -->
<svg version="1.1" id="Layer_1" xmlns="http://www.w3.org/2000/svg" xmlns:xlink="http://www.w3.org/1999/xlink" x="0px" y="0px"
	 viewBox="0 0 937 105.3" style="enable-background:new 0 0 937 105.3;" xml:space="preserve">
<style type="text/css">
	.st0{fill:#5151FC;}
	.st1{fill:#4500FF;}
	.st2{fill:none;stroke:#5151FC;stroke-width:0.5;stroke-miterlimit:10;}
	.st3{fill:none;}
	.st4{fill:#FF3366;}
	.st5{fill:#F299C1;}
	.st6{fill:#99FFFF;}
	.st7{fill:#FFCC66;}
	.st8{fill:#FBFB97;}
</style>
<g id="legend">
	<g id="legend-2">
		<g>
			<path class="st0" d="M237.9,16.6h4.6v1.1h-3.3v1.7h3.1v1.1h-3.1v1.7h3.3v1.2h-4.6V16.6z"/>
			<path class="st0" d="M244,16.6h1.2v5.7h2.9v1.2H244V16.6z"/>
			<path class="st0" d="M249.2,16.6h4.6v1.1h-3.3v1.7h3.1v1.1h-3.1v1.7h3.3v1.2h-4.6V16.6z"/>
			<path class="st0" d="M255.3,16.6h1.7l1.8,4.9l1.8-4.9h1.7v6.9h-1.2v-5.2l-1.7,4.6h-1.2l-1.7-4.6v5.2h-1.2L255.3,16.6z"/>
			<path class="st0" d="M264.1,16.6h4.6v1.1h-3.3v1.7h3.1v1.1h-3.1v1.7h3.3v1.2h-4.6V16.6z"/>
			<path class="st0" d="M270.1,16.6h1.2l2.9,4.8v-4.8h1.2v6.9h-1.2l-2.9-4.8v4.8h-1.2V16.6z"/>
			<path class="st0" d="M278.6,17.7h-2.2v-1.1h5.6v1.1h-2.2v5.8h-1.2L278.6,17.7L278.6,17.7z"/>
			<path class="st0" d="M283,16.6h1.2v6.9H283V16.6z"/>
		</g>
		<g>
			<path class="st1" d="M239.1,35.6h1.9c1.3,0,2.1,0.7,1.8,2c-0.3,1.2-1.4,1.9-2.6,1.8H239l-0.7,3.1h-0.8L239.1,35.6z M240.3,38.7
				c0.8,0.1,1.6-0.5,1.8-1.3c0.2-0.7-0.2-1.1-1.1-1.1h-1.2l-0.6,2.4C239.2,38.7,240.3,38.7,240.3,38.7z"/>
			<path class="st1" d="M242.7,40c0.2-1.3,1.3-2.4,2.6-2.5c1.6,0,1.8,1.3,1.5,2.6c0,0,0,0.1,0,0.2h-3.4c-0.2,0.9,0.1,1.6,1,1.6
				c0.6,0,1.1-0.2,1.5-0.5l0.4,0.4c-0.6,0.5-1.3,0.7-2,0.7C242.9,42.6,242.4,41.4,242.7,40z M246.3,39.8c0.2-1-0.1-1.5-1-1.5
				c-0.9,0.1-1.6,0.7-1.8,1.5H246.3z"/>
			<path class="st1" d="M248.7,37.6h0.7l-0.2,0.8c0.3-0.5,0.9-0.9,1.5-0.9c0.3,0,0.6,0.1,0.8,0.2l-0.4,0.6c-0.2-0.1-0.4-0.2-0.6-0.2
				c-0.9,0-1.6,1-1.8,2l-0.5,2.3h-0.7L248.7,37.6z"/>
			<path class="st1" d="M251,41.4l0.7-0.2c0.1,0.5,0.6,0.9,1.1,0.8c0.6,0.1,1.1-0.4,1.1-0.9l0,0c0-1.1-2.2-0.4-2.2-2
				c0-0.8,0.7-1.5,1.5-1.5h0.1c0.7-0.1,1.3,0.3,1.6,1l-0.6,0.3c-0.1-0.4-0.6-0.7-1-0.6c-0.5,0-1,0.3-1,0.8c0,1.1,2.2,0.4,2.2,2
				c-0.1,1-0.9,1.7-1.9,1.6C251.9,42.7,251.2,42.1,251,41.4z"/>
			<path class="st1" d="M255.6,40c0.3-1.4,1.4-2.4,2.8-2.5c1.4,0,2.1,1.2,1.8,2.6c-0.3,1.4-1.4,2.4-2.8,2.4
				C255.9,42.6,255.3,41.4,255.6,40z M259.4,40c0.2-0.9,0-1.8-1-1.8c-1,0.1-1.9,0.9-2,1.9c-0.2,0.9,0,1.8,1,1.8S259.3,41.1,259.4,40
				z"/>
			<path class="st1" d="M262,37.6h0.7l-0.2,0.7c0.4-0.5,1-0.8,1.7-0.8c1.2,0,1.5,0.9,1.3,2l-0.7,2.9h-0.7l0.7-2.9
				c0.1-0.7,0.1-1.3-0.7-1.3c-0.9,0.1-1.6,0.7-1.8,1.5l-0.6,2.7H261L262,37.6z"/>
			<path class="st1" d="M271.3,37.6l-1.1,4.9h-0.7l0.1-0.6c-0.4,0.5-1,0.7-1.6,0.7c-1.3,0-1.7-1.2-1.4-2.6c0.2-1.3,1.2-2.3,2.5-2.5
				c0.6-0.1,1.1,0.3,1.4,0.8l0.2-0.7L271.3,37.6z M269.2,38.2c-1,0-1.7,0.9-1.9,1.9c-0.2,1,0,1.8,0.9,1.8c1,0,1.7-0.9,1.9-1.9
				S270.1,38.2,269.2,38.2L269.2,38.2z"/>
			<path class="st1" d="M273.2,44.6c-0.7,0.1-1.4-0.3-1.7-1l0.6-0.4c0.2,0.5,0.6,0.8,1.1,0.7c0.9,0,1.6-0.7,1.7-1.5l0.2-0.6
				c-0.4,0.5-1,0.7-1.6,0.7c-1.3,0-1.8-1.2-1.5-2.6c0.2-1.3,1.2-2.3,2.5-2.5c0.6,0,1.1,0.3,1.4,0.8l0.2-0.7h0.7l-1.1,4.9
				C275.5,43.8,274.5,44.7,273.2,44.6z M275.6,40c0.2-0.9,0-1.8-0.9-1.8c-1,0-1.7,0.9-1.9,2c-0.2,0.9,0,1.8,0.9,1.8
				C274.7,41.9,275.4,41,275.6,40z"/>
			<path class="st1" d="M278.7,44.6c-0.7,0.1-1.4-0.3-1.7-1l0.6-0.4c0.2,0.5,0.6,0.8,1.1,0.7c0.9,0,1.6-0.7,1.7-1.5l0.2-0.6
				c-0.4,0.5-1,0.7-1.6,0.7c-1.3,0-1.8-1.2-1.5-2.6c0.2-1.3,1.2-2.3,2.5-2.5c0.6,0,1.1,0.3,1.4,0.8l0.2-0.7h0.7l-1.1,4.9
				C281,43.8,280,44.7,278.7,44.6z M281.1,40c0.2-0.9,0-1.8-0.9-1.8c-1,0-1.7,0.9-1.9,2c-0.2,0.9,0,1.8,0.9,1.8
				C280.3,41.9,280.9,41,281.1,40z"/>
			<path class="st1" d="M284,37.6h0.7l-1.1,4.9h-0.7L284,37.6z M284.4,35.6h0.8l-0.2,0.9h-0.8L284.4,35.6z"/>
			<path class="st1" d="M289.1,37.6h0.7l-1.1,4.9H288L289.1,37.6z M289.5,35.6h0.8l-0.2,0.9h-0.8L289.5,35.6z"/>
			<path class="st1" d="M291.5,37.6h0.7l-0.2,0.8c0.3-0.5,0.9-0.9,1.5-0.9c0.6-0.1,1.2,0.3,1.3,1l0,0c0.4-0.6,1-1,1.7-1
				c1.2,0,1.5,0.9,1.3,2l-0.7,2.9h-0.7l0.7-2.9c0.2-0.7,0.2-1.4-0.7-1.4c-0.8,0.1-1.5,0.8-1.7,1.6l-0.6,2.7h-0.7l0.7-2.9
				c0.2-0.7,0.2-1.4-0.6-1.4c-0.8,0.1-1.5,0.8-1.7,1.6l-0.6,2.7h-0.7L291.5,37.6z"/>
			<path class="st1" d="M299.8,37.6h0.7l-0.2,0.8c0.3-0.5,0.9-0.9,1.5-0.9c0.6-0.1,1.2,0.3,1.3,1l0,0c0.4-0.6,1-1,1.7-1
				c1.2,0,1.5,0.9,1.3,2l-0.7,2.9h-0.7l0.7-2.9c0.2-0.7,0.2-1.4-0.7-1.4c-0.8,0.1-1.5,0.8-1.7,1.6l-0.6,2.7h-0.7l0.7-2.9
				c0.2-0.7,0.2-1.4-0.7-1.4c-0.8,0.1-1.5,0.8-1.7,1.6l-0.6,2.7h-0.7L299.8,37.6z"/>
			<path class="st1" d="M311.9,37.6l-1.1,4.9h-0.7l0.1-0.6c-0.4,0.5-1,0.7-1.6,0.7c-1.3,0-1.7-1.2-1.4-2.6c0.2-1.3,1.2-2.3,2.5-2.5
				c0.6-0.1,1.1,0.3,1.4,0.8l0.2-0.7L311.9,37.6z M309.8,38.2c-1,0-1.7,0.9-1.9,1.9c-0.2,1,0,1.8,0.9,1.8c1,0,1.7-0.9,1.9-1.9
				C310.9,39,310.7,38.2,309.8,38.2L309.8,38.2z"/>
			<path class="st1" d="M313.8,44.6c-0.7,0.1-1.4-0.3-1.7-1l0.6-0.4c0.2,0.5,0.6,0.8,1.1,0.7c0.9,0,1.6-0.7,1.7-1.5l0.2-0.6
				c-0.4,0.5-1,0.7-1.6,0.7c-1.3,0-1.8-1.2-1.5-2.6c0.2-1.3,1.2-2.3,2.5-2.5c0.6,0,1.1,0.3,1.4,0.8l0.2-0.7h0.7l-1.1,4.9
				C316.1,43.8,315,44.7,313.8,44.6z M316.2,40c0.2-0.9,0-1.8-0.9-1.8c-1,0-1.7,0.9-1.9,2c-0.2,0.9,0,1.8,0.9,1.8
				C315.3,41.9,316,41,316.2,40z"/>
			<path class="st1" d="M319.1,37.6h0.7l-1.1,4.9H318L319.1,37.6z M319.5,35.6h0.8l-0.2,0.9h-0.8L319.5,35.6z"/>
			<path class="st1" d="M321.5,37.6h0.7l-0.2,0.7c0.4-0.5,1-0.8,1.7-0.8c1.2,0,1.5,0.9,1.3,2l-0.7,2.9h-0.7l0.7-2.9
				c0.1-0.7,0.1-1.3-0.7-1.3c-0.9,0.1-1.6,0.7-1.8,1.5l-0.6,2.7h-0.7L321.5,37.6z"/>
			<path class="st1" d="M330.8,37.6l-1.1,4.9H329l0.1-0.6c-0.4,0.5-1,0.7-1.6,0.7c-1.3,0-1.7-1.2-1.4-2.6c0.2-1.3,1.2-2.3,2.5-2.5
				c0.6-0.1,1.1,0.3,1.4,0.8l0.2-0.7L330.8,37.6z M328.6,38.2c-1,0-1.7,0.9-1.9,1.9c-0.2,1,0,1.8,0.9,1.8c1,0,1.7-0.9,1.9-1.9
				C329.8,39,329.6,38.2,328.6,38.2z"/>
			<path class="st1" d="M332.4,37.6h0.7l-0.2,0.8c0.3-0.5,0.9-0.9,1.5-0.9c0.3,0,0.6,0.1,0.8,0.2l-0.4,0.6c-0.2-0.1-0.4-0.2-0.6-0.2
				c-0.9,0-1.6,1-1.8,2l-0.5,2.3h-0.7L332.4,37.6z"/>
			<path class="st1" d="M336.3,37.6h0.7l-1.1,4.9h-0.7L336.3,37.6z M336.7,35.6h0.8l-0.2,0.9h-0.8L336.7,35.6z"/>
		</g>
		<g>
			<path d="M260.3,57.6h1.3l2,5.5l2-5.5h1.3v6.9H266v-6.2l-2.1,5.6h-0.8l-2.1-5.6v6.2h-0.8L260.3,57.6L260.3,57.6z"/>
			<path d="M268.3,62.1c0-1.3,0.7-2.5,2.1-2.5c1.6,0,2.1,1.3,2.1,2.4c0,0.1,0,0.3,0,0.4H269c-0.1,0.8,0.5,1.5,1.3,1.6
				c0.1,0,0.1,0,0.2,0c0.5,0,1-0.2,1.4-0.5l0.5,0.4c-0.5,0.5-1.2,0.8-1.9,0.8c-1.2,0-2.2-1-2.2-2.2
				C268.3,62.3,268.3,62.2,268.3,62.1z M271.8,61.7c0-0.8-0.4-1.6-1.4-1.6c-0.9,0-1.3,0.7-1.4,1.6H271.8z"/>
			<path d="M273.9,63.2v-3h-0.8v-0.6h0.8v-1.1l0.7-0.7v1.8h1.2v0.6h-1.2v3c0,0.5,0.3,0.8,0.6,0.8c0.2,0,0.3,0,0.5-0.1v0.6
				c-0.2,0.1-0.4,0.1-0.7,0.1C274.2,64.6,273.9,64.1,273.9,63.2z"/>
			<path d="M276.6,63.2c0-1,0.8-1.4,2.1-1.4h1.1c0-0.9-0.3-1.6-1.2-1.6c-0.5,0-1.1,0.3-1.4,0.7l-0.5-0.4c0.4-0.6,1.1-1,1.8-1
				c1-0.1,1.8,0.7,1.9,1.7c0,0.1,0,0.2,0,0.3v3h-0.6v-0.9c-0.3,0.7-1,1.1-1.7,1c-0.8,0.1-1.5-0.5-1.6-1.3
				C276.6,63.3,276.6,63.2,276.6,63.2z M279.8,62.3h-1c-1,0-1.5,0.2-1.5,0.9c0,0.6,0.4,0.8,0.9,0.8
				C279.1,63.9,279.9,63.2,279.8,62.3z"/>
			<path d="M282.2,60.2h-0.9v-0.6h0.9v-0.8c0-0.7,0.5-1.3,1.1-1.3c0.1,0,0.1,0,0.2,0c0.3,0,0.6,0.1,0.8,0.2l-0.2,0.6
				c-0.2-0.1-0.4-0.1-0.6-0.2c-0.4,0-0.6,0.2-0.6,0.7v0.8h1.4v0.6H283v4.3h-0.7L282.2,60.2L282.2,60.2z"/>
			<path d="M284.8,62.1c-0.1-1.3,0.8-2.4,2.1-2.5s2.4,0.8,2.5,2.1c0,0.1,0,0.3,0,0.4c0.1,1.3-0.8,2.4-2.1,2.5
				c-1.3,0.1-2.4-0.8-2.5-2.1C284.7,62.4,284.7,62.2,284.8,62.1z M288.6,62.1c0-1-0.5-1.9-1.6-1.9s-1.6,0.9-1.6,1.9s0.5,1.9,1.6,1.9
				S288.6,63,288.6,62.1z"/>
			<path d="M290.6,59.6h0.7v0.9c0.2-0.6,0.8-1,1.4-1c0.3,0,0.6,0.1,0.8,0.3l-0.3,0.6c-0.2-0.1-0.4-0.2-0.6-0.2
				c-0.8,0-1.3,0.7-1.3,1.8v2.4h-0.7V59.6z"/>
			<path d="M293.7,62.1c0-1.3,0.7-2.5,2.1-2.5c1.6,0,2.1,1.3,2.1,2.4c0,0.1,0,0.3,0,0.4h-3.4c-0.1,0.8,0.5,1.5,1.3,1.6
				c0.1,0,0.1,0,0.2,0c0.5,0,1-0.2,1.4-0.5l0.5,0.4c-0.5,0.5-1.2,0.8-1.9,0.8c-1.2,0-2.2-1-2.2-2.2
				C293.7,62.3,293.7,62.2,293.7,62.1z M297.2,61.7c0-0.8-0.4-1.6-1.4-1.6c-0.9,0-1.3,0.7-1.4,1.6H297.2z"/>
			<path d="M301.4,62.1c-0.1-1.3,0.8-2.4,2.1-2.5s2.4,0.8,2.5,2.1c0,0.1,0,0.3,0,0.4c0.1,1.3-0.8,2.4-2.1,2.5
				c-1.3,0.1-2.4-0.8-2.5-2.1C301.4,62.4,301.4,62.2,301.4,62.1z M305.3,62.1c0-1-0.5-1.9-1.6-1.9s-1.6,0.9-1.6,1.9s0.5,1.9,1.6,1.9
				S305.3,63,305.3,62.1z"/>
			<path d="M309.4,63.4l0.6-0.3c0.1,0.6,0.6,0.9,1.2,0.9s1-0.3,1-0.8c0-1.3-2.6-0.7-2.6-2.3c0-0.8,0.7-1.4,1.4-1.4h0.1
				c0.7,0,1.3,0.4,1.6,1l-0.5,0.3c-0.2-0.4-0.6-0.7-1.1-0.7s-0.9,0.3-0.9,0.7c0,1.1,2.6,0.5,2.6,2.3c0,0.8-0.7,1.5-1.5,1.5h-0.1
				C310.5,64.6,309.7,64.1,309.4,63.4z"/>
			<path d="M314.1,57.6h0.8v0.9h-0.8V57.6z M314.2,59.6h0.7v4.9h-0.7V59.6z"/>
			<path d="M316.5,59.6h0.7v0.8c0.4-0.8,1.3-1.1,2-0.7c0.4,0.2,0.6,0.5,0.8,0.9c0.2-0.6,0.9-1,1.5-1c1.2,0,1.7,0.9,1.7,2v3h-0.7
				v-2.9c0-0.7-0.2-1.5-1-1.5s-1.2,0.9-1.2,1.7v2.7h-0.7v-2.9c0-0.7-0.2-1.5-1-1.5s-1.2,0.9-1.2,1.8v2.5h-0.7L316.5,59.6z"/>
			<path d="M324.8,57.6h0.8v0.9h-0.8V57.6z M324.8,59.6h0.7v4.9h-0.7V59.6z"/>
			<path d="M328.6,63.9v0.6c-0.2,0.1-0.4,0.1-0.7,0.1c-0.7,0-0.8-0.5-0.8-1.1v-5.9h0.7v6.1c0,0,0,0.3,0.2,0.3
				C328.3,64,328.5,64,328.6,63.9z"/>
			<path d="M329.7,57.6h0.8v0.9h-0.8V57.6z M329.8,59.6h0.7v4.9h-0.7V59.6z"/>
			<path d="M332.3,63.2v-3h-0.8v-0.6h0.8v-1.1l0.7-0.7v1.8h1.2v0.6H333v3c0,0.5,0.3,0.8,0.6,0.8c0.2,0,0.3,0,0.5-0.1v0.6
				c-0.2,0.1-0.4,0.1-0.7,0.1C332.6,64.6,332.3,64.1,332.3,63.2z"/>
			<path d="M335.3,62.5v-2.8h0.7v2.9c0,0.7,0.2,1.5,1,1.5c0.9-0.1,1.5-0.8,1.5-1.7v-2.7h0.7v4.9h-0.7v-0.8c-0.3,0.6-0.9,0.9-1.5,0.9
				C335.8,64.6,335.3,63.7,335.3,62.5z"/>
			<path d="M344.7,57.6v6.9H344v-0.7c-0.3,0.5-0.9,0.8-1.5,0.8c-1.2,0-2-1.1-2-2.5s0.7-2.5,2-2.5c0.6,0,1.2,0.3,1.5,0.8v-2.7
				L344.7,57.6L344.7,57.6z M344,62.1c0-1-0.4-1.9-1.4-1.9s-1.4,0.9-1.4,1.9s0.4,1.9,1.4,1.9S344,63.1,344,62.1L344,62.1z"/>
			<path d="M346.3,57.6h0.8v0.9h-0.8V57.6z M346.4,59.6h0.7v4.9h-0.7V59.6z"/>
			<path d="M348.7,59.6h0.7v0.8c0.3-0.6,0.9-0.9,1.6-0.9c1.2,0,1.6,0.9,1.6,2v3h-0.7v-2.9c0-0.7-0.2-1.5-1.1-1.5
				c-0.8,0-1.4,0.6-1.4,1.8v2.5h-0.7V59.6z"/>
			<path d="M353.8,62.1c0-1.3,0.7-2.5,2.1-2.5c1.6,0,2.1,1.3,2.1,2.4c0,0.1,0,0.3,0,0.4h-3.4c-0.1,0.8,0.5,1.5,1.3,1.6
				c0.1,0,0.1,0,0.2,0c0.5,0,1-0.2,1.4-0.5l0.5,0.4c-0.5,0.5-1.2,0.8-1.9,0.8c-1.2,0-2.2-1-2.2-2.2
				C353.8,62.3,353.8,62.2,353.8,62.1z M357.3,61.7c0-0.8-0.4-1.6-1.4-1.6c-0.9,0-1.3,0.7-1.4,1.6H357.3z"/>
			<path d="M361.5,63.2c0-1,0.8-1.4,2.1-1.4h1.1c0-0.9-0.3-1.6-1.2-1.6c-0.5,0-1.1,0.3-1.4,0.7l-0.5-0.4c0.4-0.6,1.1-1,1.8-1
				c1-0.1,1.8,0.7,1.9,1.7c0,0.1,0,0.2,0,0.3v3h-0.6v-0.9c-0.3,0.7-1,1.1-1.7,1c-0.8,0.1-1.5-0.5-1.6-1.3
				C361.5,63.3,361.5,63.2,361.5,63.2z M364.7,62.3h-1c-1,0-1.5,0.2-1.5,0.9c0,0.6,0.4,0.8,0.9,0.8C364,63.9,364.7,63.2,364.7,62.3z
				"/>
			<path d="M366.9,59.6h0.7v0.8c0.3-0.6,0.9-0.9,1.6-0.9c1.2,0,1.6,0.9,1.6,2v3h-0.7v-2.9c0-0.7-0.2-1.5-1.1-1.5
				c-0.8,0-1.4,0.6-1.4,1.8v2.5h-0.7V59.6z"/>
			<path d="M372.3,57.6h0.8v0.9h-0.8V57.6z M372.4,59.6h0.7v4.9h-0.7V59.6z"/>
			<path d="M374.8,59.6h0.7v0.8c0.4-0.8,1.3-1.1,2-0.7c0.4,0.2,0.6,0.5,0.8,0.9c0.2-0.6,0.9-1,1.5-1c1.2,0,1.7,0.9,1.7,2v3h-0.7
				v-2.9c0-0.7-0.2-1.5-1-1.5s-1.2,0.9-1.2,1.7v2.7h-0.7v-2.9c0-0.7-0.2-1.5-1-1.5s-1.2,0.9-1.2,1.8v2.5H375v-4.9H374.8z"/>
			<path d="M382.6,63.2c0-1,0.8-1.4,2.1-1.4h1.1c0-0.9-0.3-1.6-1.2-1.6c-0.5,0-1.1,0.3-1.4,0.7l-0.5-0.4c0.4-0.6,1.1-1,1.8-1
				c1-0.1,1.8,0.7,1.9,1.7c0,0.1,0,0.2,0,0.3v3h-0.6v-0.9c-0.3,0.7-1,1.1-1.7,1c-0.8,0.1-1.5-0.5-1.6-1.3
				C382.6,63.3,382.6,63.2,382.6,63.2z M385.9,62.3h-1c-1,0-1.5,0.2-1.5,0.9c0,0.6,0.4,0.8,0.9,0.8
				C385.2,63.9,385.9,63.2,385.9,62.3z"/>
			<path d="M389.5,63.9v0.6c-0.2,0.1-0.4,0.1-0.7,0.1c-0.7,0-0.8-0.5-0.8-1.1v-5.9h0.7v6.1c0,0,0,0.3,0.2,0.3
				C389.2,64,389.3,64,389.5,63.9z"/>
			<path d="M390.5,57.6h0.8v0.9h-0.8V57.6z M390.6,59.6h0.7v4.9h-0.7V59.6z"/>
		</g>
		<g>
			<path class="st0" d="M2.3,17.7H0.1v-1.1h5.6v1.1H3.5v5.8H2.3V17.7z"/>
			<path class="st0" d="M6.7,16.6h1.2v6.9H6.7V16.6z"/>
			<path class="st0" d="M9.7,16.6h2.2c1.4,0,2.4,0.7,2.4,2s-1,2-2.4,2H11v2.9H9.7V16.6z M11.9,19.5c0.8,0,1.2-0.3,1.2-0.8
				c0-0.6-0.4-0.9-1.2-0.9H11v1.7L11.9,19.5z"/>
			<path class="st0" d="M14.9,20c-0.2-1.8,1.1-3.4,2.9-3.5c0.1,0,0.3,0,0.4,0c1.8-0.1,3.3,1.3,3.3,3.1c0,0.1,0,0.3,0,0.4
				c0.2,1.8-1.1,3.4-2.9,3.5c-0.1,0-0.3,0-0.4,0c-1.8,0.1-3.3-1.3-3.3-3.1C14.9,20.3,14.9,20.2,14.9,20z M20.3,20
				c0-1.3-0.5-2.4-2-2.4s-2,1.1-2,2.4s0.5,2.5,2,2.5C19.7,22.5,20.3,21.3,20.3,20z"/>
			<path class="st0" d="M22.9,16.6h1.2v5.7H27v1.2h-4.2v-6.9H22.9z"/>
			<path class="st0" d="M27.3,20c-0.1-1.8,1.3-3.4,3.1-3.5s3.4,1.3,3.5,3.1c0,0.1,0,0.3,0,0.4c0.1,1.8-1.3,3.4-3.1,3.5
				s-3.4-1.3-3.5-3.1C27.3,20.3,27.3,20.2,27.3,20z M32.7,20c0-1.3-0.5-2.4-2-2.4s-2,1.1-2,2.4s0.5,2.5,2,2.5S32.7,21.3,32.7,20z"/>
			<path class="st0" d="M34.8,20c0-1.9,1.1-3.6,3.3-3.6c1.3,0,2.5,0.8,3,2L40,18.9c-0.2-0.8-1-1.4-1.9-1.4c-1.5,0-2.1,1.1-2.1,2.4
				c0,1.4,0.6,2.5,2.1,2.5c1,0,1.8-0.7,1.9-1.7h-1.6v-1h2.8v3.7h-1l-0.1-1c-0.4,0.7-1.2,1.1-2,1.1c-1.8,0.1-3.3-1.3-3.4-3.1
				C34.8,20.3,34.8,20.2,34.8,20z"/>
			<path class="st0" d="M42.8,16.6H44v6.9h-1.2V16.6z"/>
			<path class="st0" d="M47.7,16.6h0.9l2.8,6.9h-1.3L49.5,22h-2.7l-0.5,1.5H45L47.7,16.6z M49.1,20.9l-0.9-2.5l-0.9,2.5H49.1z"/>
			<path class="st0" d="M54.1,21.5l1.2-0.3c0,0.7,0.7,1.3,1.4,1.2l0,0c0.7,0,1.1-0.4,1.1-0.9c0-1.4-3.3-1-3.3-3.2
				c0-1.1,0.9-1.9,2-1.9c0.1,0,0.1,0,0.2,0c0.9,0,1.7,0.4,2.1,1.2l-1,0.6c-0.2-0.4-0.6-0.7-1.1-0.7c-0.4,0-0.8,0.3-0.9,0.7l0,0
				c0,1.3,3.3,0.9,3.3,3.1c0,1.2-1,2.1-2.2,2.1c-0.1,0-0.1,0-0.2,0C55.5,23.7,54.3,22.8,54.1,21.5z"/>
			<path class="st0" d="M60.3,16.6h4.6v1.1h-3.3v1.7h3.1v1.1h-3.1v1.7h3.3v1.2h-4.6L60.3,16.6L60.3,16.6z"/>
			<path class="st0" d="M71.1,23.1c-0.6,0.3-1.2,0.5-1.8,0.5c-1.8,0.1-3.3-1.3-3.3-3.1c0-0.1,0-0.3,0-0.4c-0.1-1.8,1.3-3.4,3.1-3.5
				s3.4,1.3,3.5,3.1c0,0.1,0,0.3,0,0.4c0,0.8-0.2,1.6-0.7,2.3l1,0.9l-0.8,0.8L71.1,23.1z M70.2,22.2l-0.9-0.9l0.8-0.7l0.9,0.8
				c0.2-0.4,0.4-0.9,0.3-1.4c0-1.3-0.6-2.4-2.1-2.4s-2.1,1.1-2.1,2.4s0.6,2.4,2.1,2.4C69.5,22.4,69.9,22.4,70.2,22.2L70.2,22.2z"/>
			<path class="st0" d="M73.9,20.8v-4.2h1.2v4.1c0,1.1,0.3,1.7,1.4,1.7s1.4-0.6,1.4-1.7v-4.1h1.2v4.2c0,1.7-0.8,2.8-2.6,2.8
				C74.7,23.6,73.9,22.5,73.9,20.8z"/>
			<path class="st0" d="M80.8,16.6h4.6v1.1H82v1.7h3.1v1.1H82v1.7h3.3v1.2h-4.6L80.8,16.6L80.8,16.6z"/>
			<path class="st0" d="M86.9,16.6h1.2l2.9,4.8v-4.8h1.2v6.9H91l-2.9-4.8v4.8h-1.2V16.6z"/>
			<path class="st0" d="M93.4,22.6l3.9-4.9h-3.6v-1.1H99v0.9l-3.8,4.9H99v1.1h-5.6L93.4,22.6z"/>
			<path class="st0" d="M102.1,16.6h0.9l2.7,6.9h-1.3l-0.5-1.5h-2.7l-0.5,1.5h-1.4L102.1,16.6z M103.5,20.9l-0.9-2.5l-0.9,2.5H103.5
				z"/>
			<path class="st0" d="M109.1,16.6h1.2l2.9,4.8v-4.8h1.2v6.9h-1.2l-2.9-4.8v4.8h-1.2V16.6z"/>
			<path class="st0" d="M118.2,16.6h0.9l2.8,6.9h-1.3L120,22h-2.7l-0.5,1.5h-1.4L118.2,16.6z M119.6,20.9l-0.9-2.5l-0.9,2.5H119.6z"
				/>
			<path class="st0" d="M122.8,16.6h2.2c1.2-0.1,2.2,0.7,2.4,1.9c0,0.1,0,0.1,0,0.2c0,0.8-0.6,1.6-1.3,1.8l1.9,3.1h-1.4l-1.7-3H124
				v3h-1.2V16.6z M125.1,19.5c0.7,0,1-0.4,1-0.9c0-0.6-0.4-0.9-1.2-0.9h-1v1.8H125.1z"/>
			<path class="st0" d="M129,16.6h2.2c1.2-0.1,2.2,0.7,2.4,1.9c0,0.1,0,0.1,0,0.2c0,0.8-0.6,1.6-1.3,1.8l1.9,3.1h-1.4l-1.7-3h-0.8v3
				H129V16.6z M131.3,19.5c0.7,0,1-0.4,1-0.9c0-0.6-0.4-0.9-1.2-0.9h-1v1.8H131.3z"/>
			<path class="st0" d="M137.1,16.6h0.9l2.7,6.9h-1.3l-0.5-1.5h-2.7l-0.5,1.5h-1.4L137.1,16.6z M138.5,20.9l-0.9-2.5l-0.9,2.5H138.5
				z"/>
			<path class="st0" d="M142.4,17.7h-2.2v-1.1h5.6v1.1h-2.2v5.8h-1.2L142.4,17.7L142.4,17.7z"/>
			<path class="st0" d="M146.8,16.6h1.2v6.9h-1.2V16.6z"/>
			<path class="st0" d="M149,16.6h1.4l1.9,4.9l1.8-4.9h1.4l-2.7,6.9h-0.9L149,16.6z"/>
			<path class="st0" d="M157.7,16.6h0.9l2.7,6.9H160l-0.5-1.5h-2.7l-0.5,1.5H155L157.7,16.6z M159.1,20.9l-0.9-2.5l-0.9,2.5H159.1z"
				/>
		</g>
		<g>
			<path class="st0" d="M475.8,16.6h4.9v1.1H477v1.7h3.2v1.1H477v2.9h-1.2L475.8,16.6L475.8,16.6z"/>
			<path class="st0" d="M481.9,16.6h1.2v6.9h-1.2V16.6z"/>
			<path class="st0" d="M484.4,20c0-1.9,1.1-3.6,3.3-3.6c1.3,0,2.5,0.8,3,2l-1.1,0.5c-0.2-0.8-1-1.4-1.9-1.4c-1.5,0-2.1,1.1-2.1,2.4
				c0,1.4,0.6,2.5,2.1,2.5c1,0,1.8-0.7,1.9-1.7H488v-1h2.8v3.7h-1l-0.1-1c-0.4,0.7-1.2,1.1-2,1.1c-1.8,0.1-3.3-1.3-3.4-3.1
				C484.4,20.3,484.4,20.2,484.4,20z"/>
			<path class="st0" d="M492.2,20.8v-4.2h1.2v4.1c0,1.1,0.3,1.7,1.4,1.7s1.4-0.6,1.4-1.7v-4.1h1.2v4.2c0,1.7-0.8,2.8-2.6,2.8
				C493,23.6,492.2,22.5,492.2,20.8z"/>
			<path class="st0" d="M499.1,16.6h2.2c1.2-0.1,2.2,0.7,2.4,1.9c0,0.1,0,0.1,0,0.2c0,0.8-0.6,1.6-1.3,1.8l1.9,3.1h-1.4l-1.7-3h-0.8
				v3h-1.2v-7H499.1z M501.4,19.5c0.7,0,1.1-0.4,1.1-0.9c0-0.6-0.4-0.9-1.2-0.9h-1v1.8H501.4z"/>
			<path class="st0" d="M505.3,16.6h4.6v1.1h-3.3v1.7h3.1v1.1h-3.1v1.7h3.3v1.2h-4.6V16.6z"/>
			<path class="st0" d="M513.8,16.6h2.2c1.2-0.1,2.2,0.7,2.4,1.9c0,0.1,0,0.1,0,0.2c0,0.8-0.6,1.6-1.3,1.8l1.9,3.1h-1.4l-1.7-3H515
				v3h-1.2V16.6z M516.1,19.5c0.7,0,1-0.4,1-0.9c0-0.6-0.4-0.9-1.2-0.9h-1v1.8H516.1z"/>
			<path class="st0" d="M520,16.6h4.6v1.1h-3.3v1.7h3.1v1.1h-3.1v1.7h3.3v1.2H520V16.6z"/>
			<path class="st0" d="M527.5,17.7h-2.2v-1.1h5.6v1.1h-2.2v5.8h-1.2L527.5,17.7L527.5,17.7z"/>
			<path class="st0" d="M531.2,20c-0.1-1.8,1.3-3.4,3.1-3.5s3.4,1.3,3.5,3.1c0,0.1,0,0.3,0,0.4c0.1,1.8-1.3,3.4-3.1,3.5
				s-3.4-1.3-3.5-3.1C531.2,20.3,531.2,20.2,531.2,20z M536.6,20c0-1.3-0.5-2.4-2-2.4s-2,1.1-2,2.4s0.5,2.5,2,2.5
				S536.6,21.3,536.6,20z"/>
			<path class="st0" d="M539.2,16.6h2.2c1.2-0.1,2.2,0.7,2.4,1.9c0,0.1,0,0.1,0,0.2c0,0.8-0.6,1.6-1.3,1.8l1.9,3.1H543l-1.7-3h-0.8
				v3h-1.2L539.2,16.6L539.2,16.6z M541.5,19.5c0.7,0,1.1-0.4,1.1-0.9c0-0.6-0.4-0.9-1.2-0.9h-1v1.8H541.5z"/>
			<path class="st0" d="M545.4,16.6h1.2v6.9h-1.2V16.6z"/>
			<path class="st0" d="M547.9,20c-0.2-1.8,1.1-3.4,2.9-3.5c0.1,0,0.3,0,0.4,0c1.3,0,2.5,0.8,3,2L553,19c-0.2-0.8-1-1.4-1.9-1.3
				c-1.1,0-2.1,0.9-2.1,2c0,0.1,0,0.2,0,0.3c0,1.4,0.6,2.4,2.1,2.4c0.8,0.1,1.6-0.5,1.9-1.3l1.1,0.5c-0.5,1.2-1.7,2-3,2
				c-1.8,0.1-3.3-1.3-3.4-3.1C547.9,20.3,547.9,20.2,547.9,20z"/>
			<path class="st0" d="M555.4,16.6h1.2v2.9h3v-2.9h1.2v6.9h-1.2v-2.9h-3v2.9h-1.2V16.6z"/>
			<path class="st0" d="M562.7,16.6h4.6v1.1H564v1.7h3.1v1.1H564v1.7h3.3v1.2h-4.6V16.6z"/>
		</g>
		<line class="st2" x1="0" y1="0.9" x2="938" y2="0.9"/>
		<rect id="Rectangle_50" x="-0.2" y="0.7" class="st3" width="938" height="104.4"/>
		<g>
			<path d="M32.1,35.6h0.8v6.9h-0.8V35.6z"/>
			<path d="M34.7,37.6h0.7v0.8c0.4-0.8,1.3-1.1,2-0.7c0.4,0.2,0.6,0.5,0.8,0.9c0.2-0.6,0.9-1,1.5-1c1.2,0,1.7,0.9,1.7,2v3h-0.7v-2.9
				c0-0.7-0.2-1.5-1-1.5s-1.2,0.9-1.2,1.7v2.7h-0.7v-2.9c0-0.7-0.2-1.5-1-1.5s-1.2,0.9-1.2,1.8v2.5h-0.7L34.7,37.6z"/>
			<path d="M43,37.6h0.7v0.8c0.4-0.8,1.3-1.1,2-0.7c0.4,0.2,0.6,0.5,0.8,0.9c0.2-0.6,0.9-1,1.5-1c1.2,0,1.7,0.9,1.7,2v3H49v-2.9
				c0-0.7-0.2-1.5-1-1.5s-1.2,0.9-1.2,1.7v2.7H46v-2.9c0-0.7-0.2-1.5-1-1.5s-1.2,0.9-1.2,1.8v2.5H43V37.6z"/>
			<path d="M50.8,41.2c0-1,0.8-1.4,2.1-1.4H54c0-0.9-0.3-1.6-1.2-1.6c-0.5,0-1.1,0.3-1.4,0.7L51,38.5c0.4-0.6,1.1-1,1.8-1
				c1-0.1,1.8,0.7,1.9,1.7c0,0.1,0,0.2,0,0.3v3h-0.6v-0.9c-0.3,0.7-1,1.1-1.7,1C51.6,42.7,50.9,42.1,50.8,41.2
				C50.8,41.3,50.8,41.2,50.8,41.2z M54.1,40.3h-1c-1,0-1.5,0.2-1.5,0.9c0,0.6,0.4,0.8,0.9,0.8C53.4,41.9,54.1,41.2,54.1,40.3z"/>
			<path d="M60.1,43.3c0,1-0.9,1.5-2,1.5c-1.3,0-2.1-0.7-2.1-1.7c0-0.1,0-0.1,0-0.2l0.7-0.7c-0.4-0.2-0.6-0.6-0.6-1
				c0-0.3,0.1-0.6,0.4-0.8c-0.3-0.3-0.4-0.7-0.4-1.1c0-0.9,0.8-1.7,1.7-1.7h0.1c0.5,0,0.9,0.2,1.3,0.5l0.7-0.7l0.4,0.5l-0.8,0.6
				c0.1,0.2,0.2,0.5,0.2,0.8c0,0.9-0.7,1.7-1.6,1.7c-0.1,0-0.1,0-0.2,0c-0.3,0-0.6-0.1-0.9-0.2c-0.1,0.1-0.2,0.2-0.2,0.4
				c0,0.5,0.6,0.6,1.3,0.7C59,42,60.1,42.2,60.1,43.3z M59.4,43.3c0-0.6-0.7-0.6-1.6-0.8c-0.2,0-0.4-0.1-0.6-0.1l-0.6,0.7
				c0,0.5,0.5,1,1.5,1C58.8,44.1,59.4,43.8,59.4,43.3L59.4,43.3z M56.8,39.3c0,0.6,0.5,1.1,1.1,1.1s1.1-0.5,1.1-1.1l0,0
				c0-0.6-0.4-1.1-1-1.1S56.8,38.6,56.8,39.3C56.8,39.2,56.8,39.2,56.8,39.3z"/>
			<path d="M61.2,35.6H62v0.9h-0.8V35.6z M61.3,37.6H62v4.9h-0.7V37.6z"/>
			<path d="M63.7,37.6h0.7v0.8c0.3-0.6,0.9-0.9,1.6-0.9c1.2,0,1.6,0.9,1.6,2v3h-0.7v-2.9c0-0.7-0.2-1.5-1.1-1.5
				c-0.8,0-1.4,0.6-1.4,1.8v2.5h-0.7V37.6z"/>
			<path d="M68.7,41.2c0-1,0.8-1.4,2.1-1.4H72c0-0.9-0.3-1.6-1.2-1.6c-0.5,0-1.1,0.3-1.4,0.7l-0.5-0.4c0.4-0.6,1.1-1,1.8-1
				c1-0.1,1.8,0.7,1.9,1.7c0,0.1,0,0.2,0,0.3v3H72v-0.9c-0.3,0.7-1,1.1-1.7,1C69.5,42.7,68.8,42.1,68.7,41.2
				C68.7,41.3,68.7,41.2,68.7,41.2z M72,40.3h-1c-1,0-1.5,0.2-1.5,0.9c0,0.6,0.4,0.8,0.9,0.8C71.3,41.9,72,41.2,72,40.3L72,40.3z"/>
			<path d="M77.5,38.2l-2.9,3.7h2.9v0.6h-3.8V42l3-3.7h-2.8v-0.6h3.7L77.5,38.2z"/>
			<path d="M78.6,35.6h0.8v0.9h-0.8V35.6z M78.7,37.6h0.7v4.9h-0.7V37.6z"/>
			<path d="M80.7,40.1c-0.1-1.3,0.8-2.4,2.1-2.5c1.3-0.1,2.4,0.8,2.5,2.1c0,0.1,0,0.3,0,0.4c0.1,1.3-0.8,2.4-2.1,2.5
				s-2.4-0.8-2.5-2.1C80.7,40.4,80.7,40.2,80.7,40.1z M84.6,40.1c0-1-0.5-1.9-1.6-1.9s-1.6,0.9-1.6,1.9S81.9,42,83,42
				S84.6,41,84.6,40.1z"/>
			<path d="M86.5,37.6h0.7v0.8c0.3-0.6,0.9-0.9,1.6-0.9c1.2,0,1.6,0.9,1.6,2v3h-0.7v-2.9c0-0.7-0.2-1.5-1.1-1.5
				c-0.8,0-1.4,0.6-1.4,1.8v2.5h-0.7V37.6z"/>
			<path d="M91.6,40.1c0-1.3,0.7-2.5,2.1-2.5c1.6,0,2.1,1.3,2.1,2.4c0,0.1,0,0.3,0,0.4h-3.4c-0.1,0.8,0.5,1.5,1.3,1.6
				c0.1,0,0.1,0,0.2,0c0.5,0,1-0.2,1.4-0.5l0.5,0.4c-0.5,0.5-1.2,0.8-1.9,0.8c-1.2,0-2.2-1-2.2-2.2C91.6,40.3,91.6,40.2,91.6,40.1z
				 M95.1,39.7c0-0.8-0.4-1.6-1.4-1.6c-0.9,0-1.3,0.7-1.4,1.6H95.1z"/>
		</g>
		<path id="Rectangle_13361" class="st4" d="M5.1,34.5h11c2.7,0,5,2.2,5,4.9v0.1l0,0c0,2.7-2.2,5-4.9,5h-0.1h-11c-2.7,0-5-2.2-5-4.9
			v-0.1l0,0C0.1,36.7,2.4,34.5,5.1,34.5z"/>
		<g>
			<path d="M512.5,35.3h1.3l2,5.5l2-5.5h1.3v6.9h-0.8V36l-2.1,5.6h-0.8l-2.1-5.6v6.2h-0.8L512.5,35.3L512.5,35.3z"/>
			<path d="M520.5,39.8c0-1.3,0.7-2.5,2.1-2.5c1.6,0,2.1,1.3,2.1,2.4c0,0.1,0,0.3,0,0.4h-3.4c-0.1,0.8,0.5,1.5,1.3,1.6
				c0.1,0,0.1,0,0.2,0c0.5,0,1-0.2,1.4-0.5l0.5,0.4c-0.5,0.5-1.2,0.8-1.9,0.8c-1.2,0-2.2-1-2.2-2.2C520.5,40,520.5,39.9,520.5,39.8z
				 M524,39.5c0-0.8-0.4-1.6-1.4-1.6c-0.9,0-1.3,0.7-1.4,1.6H524z"/>
			<path d="M526.1,40.9v-3h-0.8v-0.6h0.8v-1.1l0.7-0.7v1.8h1.2V38h-1.2v3c0,0.5,0.3,0.8,0.6,0.8c0.2,0,0.3,0,0.5-0.1v0.6
				c-0.2,0.1-0.4,0.1-0.7,0.1C526.5,42.3,526.1,41.8,526.1,40.9z"/>
			<path d="M528.8,40.9c0-1,0.8-1.4,2.1-1.4h1.1c0-0.9-0.3-1.6-1.2-1.6c-0.5,0-1.1,0.3-1.4,0.7l-0.5-0.4c0.4-0.6,1.1-1,1.8-1
				c1-0.1,1.8,0.7,1.9,1.7c0,0.1,0,0.2,0,0.3v3H532v-0.9c-0.3,0.7-1,1.1-1.7,1c-0.8,0.1-1.5-0.5-1.6-1.3
				C528.8,41,528.8,40.9,528.8,40.9z M532.1,40h-1c-1,0-1.5,0.2-1.5,0.9c0,0.6,0.4,0.8,0.9,0.8C531.4,41.7,532.1,40.9,532.1,40z"/>
			<path d="M534.5,38h-0.9v-0.6h0.9v-0.8c0-0.7,0.5-1.3,1.1-1.3c0.1,0,0.1,0,0.2,0c0.3,0,0.6,0.1,0.8,0.2l-0.2,0.6
				c-0.2-0.1-0.4-0.1-0.6-0.2c-0.4,0-0.6,0.2-0.6,0.7v0.8h1.4V38h-1.4v4.3h-0.7V38z"/>
			<path d="M537,39.8c-0.1-1.3,0.8-2.4,2.1-2.5s2.4,0.8,2.5,2.1c0,0.1,0,0.3,0,0.4c0.1,1.3-0.8,2.4-2.1,2.5s-2.4-0.8-2.5-2.1
				C537,40.1,537,39.9,537,39.8z M540.9,39.8c0-1-0.5-1.9-1.6-1.9s-1.6,0.9-1.6,1.9s0.5,1.9,1.6,1.9S540.9,40.8,540.9,39.8z"/>
			<path d="M542.9,37.4h0.7v0.9c0.2-0.6,0.8-1,1.4-1c0.3,0,0.6,0.1,0.8,0.3l-0.3,0.6c-0.2-0.1-0.4-0.2-0.6-0.2
				c-0.8,0-1.3,0.7-1.3,1.8v2.4h-0.7L542.9,37.4L542.9,37.4z"/>
			<path d="M546,39.8c0-1.3,0.7-2.5,2.1-2.5c1.6,0,2.1,1.3,2.1,2.4c0,0.1,0,0.3,0,0.4h-3.4c-0.1,0.8,0.5,1.5,1.3,1.6
				c0.1,0,0.1,0,0.2,0c0.5,0,1-0.2,1.4-0.5l0.5,0.4c-0.5,0.5-1.2,0.8-1.9,0.8c-1.2,0-2.2-1-2.2-2.2C546,40,546,39.9,546,39.8z
				 M549.5,39.5c0-0.8-0.4-1.6-1.4-1.6c-0.9,0-1.3,0.7-1.4,1.6H549.5z"/>
		</g>
		<g>
			<path d="M511.9,62.5l0.7-0.2c0.1,0.8,0.8,1.4,1.7,1.4c0.8,0,1.4-0.4,1.4-1.2c0-1.8-3.3-1.3-3.3-3.4c0-1,0.8-1.8,1.8-1.8h0.1
				c0.8,0,1.5,0.4,1.9,1.1l-0.6,0.4c-0.3-0.5-0.8-0.8-1.3-0.8c-0.6,0-1.1,0.4-1.1,1l0,0c0,1.5,3.3,1.2,3.3,3.4c0,1.1-0.9,2-2,2
				c-0.1,0-0.1,0-0.2,0C513.1,64.4,512.1,63.6,511.9,62.5z"/>
			<path d="M517.6,57.3h0.8v0.9h-0.8V57.3z M517.7,59.4h0.7v4.9h-0.7V59.4z"/>
			<path d="M520.1,59.4h0.7v0.8c0.4-0.8,1.3-1.1,2-0.7c0.4,0.2,0.6,0.5,0.8,0.9c0.2-0.6,0.9-1,1.5-1c1.2,0,1.7,0.9,1.7,2v3h-0.7
				v-2.9c0-0.7-0.2-1.5-1-1.5s-1.2,0.9-1.2,1.7v2.7h-0.7v-2.9c0-0.7-0.2-1.5-1-1.5s-1.2,0.9-1.2,1.8v2.5h-0.7v-4.9H520.1z"/>
			<path d="M528.3,57.3h0.8v0.9h-0.8V57.3z M528.4,59.4h0.7v4.9h-0.7V59.4z"/>
			<path d="M532.2,63.7v0.6c-0.2,0.1-0.4,0.1-0.7,0.1c-0.7,0-0.8-0.5-0.8-1.1v-5.9h0.7v6.1c0,0,0,0.3,0.2,0.3
				C531.9,63.7,532,63.7,532.2,63.7z"/>
			<path d="M533.2,57.3h0.8v0.9h-0.8V57.3z M533.3,59.4h0.7v4.9h-0.7V59.4z"/>
			<path d="M535.8,62.9v-3H535v-0.6h0.8v-1.1l0.7-0.7v1.8h1.2V60h-1.2v3c0,0.5,0.3,0.8,0.6,0.8c0.2,0,0.3,0,0.5-0.1v0.6
				c-0.2,0.1-0.4,0.1-0.7,0.1C536.2,64.3,535.8,63.8,535.8,62.9z"/>
			<path d="M538.8,62.2v-2.8h0.7v2.9c0,0.7,0.2,1.5,1,1.5c0.9-0.1,1.5-0.8,1.5-1.7v-2.7h0.7v4.9H542v-0.8c-0.3,0.6-0.9,0.9-1.5,0.9
				C539.3,64.4,538.8,63.4,538.8,62.2z"/>
			<path d="M548.2,57.3v6.9h-0.7v-0.7c-0.3,0.5-0.9,0.8-1.5,0.8c-1.2,0-2-1.1-2-2.5s0.7-2.5,2-2.5c0.6,0,1.2,0.3,1.5,0.8v-2.7
				L548.2,57.3L548.2,57.3z M547.6,61.8c0-1-0.4-1.9-1.4-1.9s-1.4,0.9-1.4,1.9s0.4,1.9,1.4,1.9C547.2,63.7,547.6,62.8,547.6,61.8
				L547.6,61.8z"/>
			<path d="M549.8,57.3h0.8v0.9h-0.8V57.3z M549.9,59.4h0.7v4.9h-0.7V59.4z"/>
			<path d="M552.3,59.4h0.7v0.8c0.3-0.6,0.9-0.9,1.6-0.9c1.2,0,1.6,0.9,1.6,2v3h-0.7v-2.9c0-0.7-0.2-1.5-1.1-1.5
				c-0.8,0-1.4,0.6-1.4,1.8v2.5h-0.7L552.3,59.4z"/>
			<path d="M557.7,57.3h0.8v0.9h-0.8V57.3z M557.7,59.4h0.7v4.9h-0.7V59.4z"/>
		</g>
		<path id="Rectangle_13359" class="st5" d="M485.2,34.3h11c2.7,0,5,2.2,5,4.9v0.1l0,0c0,2.7-2.2,5-4.9,5h-0.1h-11
			c-2.7,0-5-2.2-5-4.9v-0.1l0,0C480.2,36.5,482.4,34.3,485.2,34.3z"/>
		<path id="Rectangle_13360" class="st6" d="M485.2,56.3h11c2.7,0,5,2.2,5,4.9v0.1l0,0c0,2.7-2.2,5-4.9,5h-0.1h-11
			c-2.7,0-5-2.2-5-4.9v-0.1l0,0C480.2,58.5,482.4,56.3,485.2,56.3z"/>
		<g>
			<path d="M629,35.3h1.8c1.7-0.2,3.3,1,3.5,2.8c0,0.2,0,0.5,0,0.7c0,2.2-1.3,3.4-3.5,3.4H629V35.3z M630.6,41.5
				c1.4,0.2,2.7-0.8,2.8-2.2c0-0.2,0-0.3,0-0.5c0.2-1.3-0.8-2.6-2.1-2.8c-0.2,0-0.4,0-0.6,0h-1v5.5H630.6z"/>
			<path d="M635.5,40.2v-2.8h0.7v2.9c0,0.7,0.2,1.5,1,1.5c0.9-0.1,1.5-0.8,1.5-1.7v-2.7h0.7v4.9h-0.7v-0.8c-0.3,0.6-0.9,0.9-1.5,0.9
				C636,42.4,635.5,41.4,635.5,40.2z"/>
			<path d="M641.9,41.6v0.7h-0.7v-6.9h0.7V38c0.3-0.5,0.9-0.8,1.5-0.8c1.3,0,2,1.1,2,2.5s-0.7,2.5-2,2.5
				C642.8,42.4,642.2,42.1,641.9,41.6z M644.6,39.8c0-1-0.4-1.9-1.4-1.9s-1.4,0.9-1.4,1.9s0.4,1.9,1.4,1.9
				C644.2,41.7,644.6,40.8,644.6,39.8z"/>
			<path d="M647.4,41.6v0.7h-0.7v-6.9h0.7V38c0.3-0.5,0.9-0.8,1.5-0.8c1.3,0,2,1.1,2,2.5s-0.7,2.5-2,2.5
				C648.3,42.4,647.7,42.1,647.4,41.6z M650.1,39.8c0-1-0.4-1.9-1.4-1.9s-1.4,0.9-1.4,1.9s0.4,1.9,1.4,1.9
				C649.7,41.7,650.1,40.8,650.1,39.8z"/>
			<path d="M652.1,35.3h0.8v0.9h-0.8V35.3z M652.1,37.4h0.7v4.9h-0.7V37.4z"/>
			<path d="M656.6,38.9h2.5v0.6h-2.5V38.9z"/>
			<path d="M662.8,35.3h0.8v0.9h-0.8V35.3z M662.9,37.4h0.7v4.9h-0.7V37.4z"/>
			<path d="M665.3,37.4h0.7v0.8c0.3-0.6,0.9-0.9,1.6-0.9c1.2,0,1.6,0.9,1.6,2v3h-0.7v-2.9c0-0.7-0.2-1.5-1.1-1.5
				c-0.8,0-1.4,0.6-1.4,1.8v2.5h-0.7L665.3,37.4L665.3,37.4z"/>
			<path d="M670.9,40.9v-3h-0.8v-0.6h0.8v-1.1l0.7-0.7v1.8h1.2V38h-1.2v3c0,0.5,0.3,0.8,0.6,0.8c0.2,0,0.3,0,0.5-0.1v0.6
				c-0.2,0.1-0.4,0.1-0.7,0.1C671.2,42.3,670.9,41.8,670.9,40.9z"/>
			<path d="M673.6,39.8c0-1.3,0.7-2.5,2.1-2.5c1.6,0,2.1,1.3,2.1,2.4c0,0.1,0,0.3,0,0.4h-3.4c-0.1,0.8,0.5,1.5,1.3,1.6
				c0.1,0,0.1,0,0.2,0c0.5,0,1-0.2,1.4-0.5l0.5,0.4c-0.5,0.5-1.2,0.8-1.9,0.8c-1.2,0-2.2-1-2.2-2.2C673.6,40,673.6,39.9,673.6,39.8z
				 M677.1,39.5c0-0.8-0.4-1.6-1.4-1.6c-0.9,0-1.3,0.7-1.4,1.6H677.1z"/>
			<path d="M679,37.4h0.7v0.9c0.2-0.6,0.8-1,1.4-1c0.3,0,0.6,0.1,0.8,0.3l-0.3,0.6c-0.2-0.1-0.4-0.2-0.6-0.2c-0.8,0-1.3,0.7-1.3,1.8
				v2.4H679V37.4z"/>
			<path d="M682.9,37.4h0.7v0.9c0.2-0.6,0.8-1,1.4-1c0.3,0,0.6,0.1,0.8,0.3l-0.3,0.6c-0.2-0.1-0.4-0.2-0.6-0.2
				c-0.8,0-1.3,0.7-1.3,1.8v2.4h-0.7L682.9,37.4L682.9,37.4z"/>
			<path d="M686,39.8c-0.1-1.3,0.8-2.4,2.1-2.5s2.4,0.8,2.5,2.1c0,0.1,0,0.3,0,0.4c0.1,1.3-0.8,2.4-2.1,2.5s-2.4-0.8-2.5-2.1
				C686,40.1,686,39.9,686,39.8z M689.9,39.8c0-1-0.5-1.9-1.6-1.9s-1.6,0.9-1.6,1.9s0.5,1.9,1.6,1.9S689.9,40.8,689.9,39.8z"/>
			<path d="M695.6,43c0,1-0.9,1.5-2,1.5c-1.3,0-2.1-0.7-2.1-1.7c0-0.1,0-0.1,0-0.2l0.7-0.7c-0.4-0.2-0.6-0.6-0.6-1
				c0-0.3,0.1-0.6,0.4-0.8c-0.3-0.3-0.4-0.7-0.4-1.1c0-0.9,0.8-1.7,1.7-1.7h0.1c0.5,0,0.9,0.2,1.3,0.5l0.7-0.7l0.4,0.5l-0.8,0.6
				c0.1,0.2,0.2,0.5,0.2,0.8c0,0.9-0.7,1.7-1.6,1.7c-0.1,0-0.1,0-0.2,0c-0.3,0-0.6-0.1-0.9-0.2c-0.1,0.1-0.2,0.2-0.2,0.4
				c0,0.5,0.6,0.6,1.3,0.7C694.6,41.7,695.6,41.9,695.6,43z M695,43c0-0.6-0.7-0.6-1.6-0.8c-0.2,0-0.4-0.1-0.6-0.1l-0.6,0.7
				c0,0.5,0.5,1,1.5,1C694.4,43.8,695,43.6,695,43z M692.4,39c0,0.6,0.5,1.1,1.1,1.1s1.1-0.5,1.1-1.1l0,0c0-0.6-0.4-1.1-1-1.1
				C692.9,37.9,692.4,38.3,692.4,39C692.4,38.9,692.4,39,692.4,39z"/>
			<path d="M696.4,40.9c0-1,0.8-1.4,2.1-1.4h1.1c0-0.9-0.3-1.6-1.2-1.6c-0.5,0-1.1,0.3-1.4,0.7l-0.5-0.4c0.4-0.6,1.1-1,1.8-1
				c1-0.1,1.8,0.7,1.9,1.7c0,0.1,0,0.2,0,0.3v3h-0.6v-0.9c-0.3,0.7-1,1.1-1.7,1c-0.8,0.1-1.5-0.5-1.6-1.3
				C696.4,41,696.4,40.9,696.4,40.9z M699.7,40h-1c-1,0-1.5,0.2-1.5,0.9c0,0.6,0.4,0.8,0.9,0.8C699,41.7,699.7,40.9,699.7,40z"/>
			<path d="M702,40.9v-3h-0.8v-0.6h0.8v-1.1l0.7-0.7v1.8h1.2V38h-1.2v3c0,0.5,0.3,0.8,0.6,0.8c0.2,0,0.3,0,0.5-0.1v0.6
				c-0.2,0.1-0.4,0.1-0.7,0.1C702.3,42.3,702,41.8,702,40.9z"/>
			<path d="M705.1,35.3h0.8v0.9h-0.8V35.3z M705.1,37.4h0.7v4.9h-0.7V37.4z"/>
			<path d="M706.9,37.4h0.8l1.3,3.9l1.4-3.9h0.8l-1.8,4.9h-0.6L706.9,37.4z"/>
			<path d="M712.1,35.3h0.8v0.9h-0.8V35.3z M712.2,37.4h0.7v4.9h-0.7V37.4z"/>
		</g>
		<g>
			<path d="M628.3,57.3h0.8l2.1,5.9l2.1-5.9h0.8l-2.6,6.9h-0.7L628.3,57.3z"/>
			<path d="M635.2,57.3h0.8v0.9h-0.8V57.3z M635.3,59.4h0.7v4.9h-0.7V59.4z"/>
			<path d="M637.2,63.1l0.6-0.3c0.1,0.6,0.6,0.9,1.2,0.9c0.6,0,1-0.3,1-0.8c0-1.3-2.6-0.7-2.6-2.3c0-0.8,0.7-1.4,1.4-1.4h0.1
				c0.7,0,1.3,0.4,1.6,1l-0.5,0.3c-0.2-0.4-0.6-0.7-1.1-0.7s-0.9,0.3-0.9,0.7c0,1.1,2.6,0.5,2.6,2.3c0,0.8-0.7,1.5-1.5,1.5H639
				C638.2,64.4,637.5,63.9,637.2,63.1z"/>
			<path d="M641.8,57.3h0.8v0.9h-0.8V57.3z M641.9,59.4h0.7v4.9h-0.7V59.4z"/>
			<path d="M643.9,61.8c-0.1-1.3,0.8-2.4,2.1-2.5s2.4,0.8,2.5,2.1c0,0.1,0,0.3,0,0.4c0.1,1.3-0.8,2.4-2.1,2.5
				c-1.3,0.1-2.4-0.8-2.5-2.1C643.9,62.1,643.9,61.9,643.9,61.8z M647.8,61.8c0-1-0.5-1.9-1.6-1.9s-1.6,0.9-1.6,1.9s0.5,1.9,1.6,1.9
				S647.8,62.8,647.8,61.8z"/>
			<path d="M649.7,59.4h0.7v0.8c0.3-0.6,0.9-0.9,1.6-0.9c1.2,0,1.6,0.9,1.6,2v3h-0.7v-2.9c0-0.7-0.2-1.5-1.1-1.5
				c-0.8,0-1.4,0.6-1.4,1.8v2.5h-0.7L649.7,59.4L649.7,59.4z"/>
			<path d="M655.2,57.3h0.8v0.9h-0.8V57.3z M655.2,59.4h0.7v4.9h-0.7V59.4z"/>
			<path d="M659.7,60.9h2.5v0.6h-2.5V60.9z"/>
			<path d="M669.8,57.3v6.9h-0.7v-0.7c-0.3,0.5-0.9,0.8-1.5,0.8c-1.2,0-2-1.1-2-2.5s0.7-2.5,2-2.5c0.6,0,1.2,0.3,1.5,0.8v-2.7
				L669.8,57.3L669.8,57.3z M669.1,61.8c0-1-0.4-1.9-1.4-1.9s-1.4,0.9-1.4,1.9s0.4,1.9,1.4,1.9C668.7,63.7,669.1,62.8,669.1,61.8
				L669.1,61.8z"/>
			<path d="M671.1,61.8c0-1.3,0.7-2.5,2.1-2.5c1.6,0,2.1,1.3,2.1,2.4c0,0.1,0,0.3,0,0.4h-3.4c-0.1,0.8,0.5,1.5,1.3,1.6
				c0.1,0,0.1,0,0.2,0c0.5,0,1-0.2,1.4-0.5l0.5,0.4c-0.5,0.5-1.2,0.8-1.9,0.8c-1.2,0-2.2-1-2.2-2.2C671.1,62,671.1,61.9,671.1,61.8z
				 M674.6,61.5c0-0.8-0.4-1.6-1.4-1.6c-0.9,0-1.3,0.7-1.4,1.6H674.6z"/>
			<path d="M676.1,63.1l0.6-0.3c0.1,0.6,0.6,0.9,1.2,0.9c0.6,0,1-0.3,1-0.8c0-1.3-2.6-0.7-2.6-2.3c0-0.8,0.7-1.4,1.4-1.4h0.1
				c0.7,0,1.3,0.4,1.6,1l-0.5,0.3c-0.2-0.4-0.6-0.7-1.1-0.7s-0.9,0.3-0.9,0.7c0,1.1,2.6,0.5,2.6,2.3c0,0.8-0.7,1.5-1.5,1.5h-0.1
				C677.1,64.4,676.3,63.9,676.1,63.1z"/>
			<path d="M680.7,57.3h0.8v0.9h-0.8V57.3z M680.8,59.4h0.7v4.9h-0.7V59.4z"/>
			<path d="M687,57.3v6.9h-0.7v-0.7c-0.3,0.5-0.9,0.8-1.5,0.8c-1.2,0-2-1.1-2-2.5s0.7-2.5,2-2.5c0.6,0,1.2,0.3,1.5,0.8v-2.7
				L687,57.3L687,57.3z M686.3,61.8c0-1-0.4-1.9-1.4-1.9s-1.4,0.9-1.4,1.9s0.4,1.9,1.4,1.9C685.9,63.7,686.3,62.8,686.3,61.8
				L686.3,61.8z"/>
			<path d="M688.3,61.8c0-1.3,0.7-2.5,2.1-2.5c1.6,0,2.1,1.3,2.1,2.4c0,0.1,0,0.3,0,0.4h-3.4c-0.1,0.8,0.5,1.5,1.3,1.6
				c0.1,0,0.1,0,0.2,0c0.5,0,1-0.2,1.4-0.5l0.5,0.4c-0.5,0.5-1.2,0.8-1.9,0.8c-1.2,0-2.2-1-2.2-2.2C688.3,62,688.3,61.9,688.3,61.8z
				 M691.8,61.5c0-0.8-0.4-1.6-1.4-1.6c-0.9,0-1.3,0.7-1.4,1.6H691.8z"/>
			<path d="M693.7,59.4h0.7v0.9c0.2-0.6,0.8-1,1.4-1c0.3,0,0.6,0.1,0.8,0.3l-0.3,0.6c-0.2-0.1-0.4-0.2-0.6-0.2
				c-0.8,0-1.3,0.7-1.3,1.8v2.4h-0.7L693.7,59.4L693.7,59.4z"/>
			<path d="M697.6,57.3h0.8v0.9h-0.8V57.3z M697.6,59.4h0.7v4.9h-0.7V59.4z"/>
		</g>
		<path id="Rectangle_13359-2" class="st7" d="M601.7,34.3h11c2.7,0,5,2.2,5,4.9v0.1l0,0c0,2.7-2.2,5-4.9,5h-0.1h-11
			c-2.7,0-5-2.2-5-4.9v-0.1l0,0C596.7,36.5,598.9,34.3,601.7,34.3z"/>
		<path id="Rectangle_13360-2" class="st8" d="M601.7,56.3h11c2.7,0,5,2.2,5,4.9v0.1l0,0c0,2.7-2.2,5-4.9,5h-0.1h-11
			c-2.7,0-5-2.2-5-4.9v-0.1l0,0C596.7,58.5,598.9,56.3,601.7,56.3z"/>
	</g>
	<path class="st5" d="M242.4,56.3c2.8,0,5,2.2,5,5s-2.2,5-5,5c-2.7,0-5-2.3-5-5C237.4,58.5,239.6,56.3,242.4,56.3 M242.4,55.6
		c-3.1,0-5.7,2.6-5.7,5.7s2.6,5.7,5.7,5.7c3.1,0,5.7-2.6,5.7-5.7l0,0C248.1,58.2,245.5,55.6,242.4,55.6z"/>
</g>
</svg>
