<svg xmlns="http://www.w3.org/2000/svg" xmlns:xlink="http://www.w3.org/1999/xlink" width="938" height="105.29" viewBox="0 0 938 105.29"><defs><clipPath id="a"><rect width="11.6" height="11.6" transform="translate(-1056.362 -103.437)" fill="none"/></clipPath><clipPath id="b"><rect width="11.61" height="11.61" transform="translate(-1056.424 -103.344)" fill="none"/></clipPath><clipPath id="c"><rect width="11.6" height="11.6" transform="translate(-1056.333 -81.336)" fill="none"/></clipPath><clipPath id="d"><rect width="11.61" height="11.61" transform="translate(-1056.412 -81.215)" fill="none"/></clipPath><clipPath id="f"><rect width="938" height="105.29"/></clipPath></defs><g id="e" clip-path="url(#f)"><text transform="translate(31.514 42.713)" font-size="10" font-family="HKGrotesk-Regular, HK Grotesk" style="isolation:isolate"><tspan x="0" y="0">Realtá</tspan></text><text transform="translate(31.513 64.713)" font-size="10" font-family="HKGrotesk-Regular, HK Grotesk" style="isolation:isolate"><tspan x="0" y="0">Contestualizzazione</tspan></text><text transform="translate(31.513 86.713)" font-size="10" font-family="HKGrotesk-Regular, HK Grotesk" style="isolation:isolate"><tspan x="0" y="0">Immaginazione</tspan></text><path d="M-1287.879-102.5h11a4.951,4.951,0,0,1,5,5h0a4.951,4.951,0,0,1-5,5h-11a4.951,4.951,0,0,1-5-5h0A5.015,5.015,0,0,1-1287.879-102.5Z" transform="translate(1293.157 137.196)" fill="#00bfd3"/><path d="M-1287.879-80.5h11a4.951,4.951,0,0,1,5,5h0a4.951,4.951,0,0,1-5,5h-11a4.951,4.951,0,0,1-5-5h0A5.015,5.015,0,0,1-1287.879-80.5Z" transform="translate(1293.157 137.196)" fill="#bbf"/><path d="M-1287.879-58.5h11a4.951,4.951,0,0,1,5,5h0a4.951,4.951,0,0,1-5,5h-11a4.951,4.951,0,0,1-5-5h0A5.015,5.015,0,0,1-1287.879-58.5Z" transform="translate(1293.157 137.196)" fill="#f36"/><g transform="translate(1293.157 137.196)"><text transform="translate(-1055.635 -113.495)" fill="#5151fc" font-size="10" font-family="HKGrotesk-Bold, HK Grotesk" font-weight="700" style="isolation:isolate"><tspan x="0" y="0">ELEMENTI</tspan></text></g><g transform="translate(1293.157 137.196)"><text transform="translate(-1023.731 -94.483)" font-size="10" font-family="HKGrotesk-Regular, HK Grotesk" style="isolation:isolate"><tspan x="0" y="0">Personaggi reali</tspan></text></g><g transform="translate(1293.157 137.196)"><text transform="translate(-1023.731 -72.483)" fill="#4500ff" font-size="10" font-family="HKGrotesk-Italic, HK Grotesk" font-style="italic" style="isolation:isolate"><tspan x="0" y="0">Personaggi immaginari</tspan></text></g><g transform="translate(1293.157 137.196)"><text transform="translate(-1055.635 -50.483)" font-size="10" font-family="HKGrotesk-Bold, HK Grotesk" font-weight="700" style="isolation:isolate"><tspan x="0" y="0">Luoghi geografici localizzabili su mappa</tspan></text></g><text transform="translate(0.522 23.701)" fill="#5151fc" font-size="10" font-family="HKGrotesk-Bold, HK Grotesk" font-weight="700" style="isolation:isolate"><tspan x="0" y="0">TIPOLOGIA SEQUENZA NARRATIVA</tspan></text><path d="M-1292.679-32.9" transform="translate(1293.157 137.196)" fill="none" stroke="#5151fc" stroke-miterlimit="10" stroke-width="0.5"/><line x2="938.978" transform="translate(-0.5 0.694)" fill="none" stroke="#5151fc" stroke-miterlimit="10" stroke-width="0.5"/><rect width="938" height="104.4" transform="translate(0.278 0.894)" fill="none"/><g transform="translate(1293.157 137.196)"><g clip-path="url(#a)"><g clip-path="url(#b)"><circle cx="5.49" cy="5.49" r="5.49" transform="translate(-1056.064 -103.074)" fill="#fff" stroke="#66f" stroke-miterlimit="10" stroke-width="0.75"/><rect width="3.24" height="6.57" transform="translate(-1051.924 -100.914)" fill="none"/><text transform="translate(-1051.958 -95.48)" fill="#5151fc" font-size="7.796" font-family="HKGrotesk-Bold, HK Grotesk" font-weight="700" style="isolation:isolate"><tspan x="0" y="0">r</tspan></text></g></g></g><g transform="translate(1293.157 137.196)"><g clip-path="url(#c)"><g clip-path="url(#d)"><circle cx="5.49" cy="5.49" r="5.49" transform="translate(-1056.052 -80.945)" fill="#5151fc" stroke="#fff" stroke-miterlimit="10" stroke-width="0.75"/><rect width="3.24" height="6.57" transform="translate(-1051.552 -78.245)" fill="none"/><text transform="translate(-1051.566 -72.817)" fill="#fff" font-size="7.796" font-family="HKGrotesk-Bold, HK Grotesk" font-weight="700" style="isolation:isolate"><tspan x="0" y="0">i</tspan></text></g></g></g></g></svg>