<?xml version="1.0" encoding="utf-8"?>
<!-- Generator: Adobe Illustrator 24.3.0, SVG Export Plug-In . SVG Version: 6.00 Build 0)  -->
<svg version="1.1" id="Layer_1" xmlns="http://www.w3.org/2000/svg" xmlns:xlink="http://www.w3.org/1999/xlink" x="0px" y="0px"
	 viewBox="0 0 938 105.3" style="enable-background:new 0 0 938 105.3;" xml:space="preserve">
<style type="text/css">
	.st0{fill:none;stroke:#FFFFFF;}
	.st1{font-family:'HKGrotesk-Bold';}
	.st2{font-size:10px;}
	.st3{clip-path:url(#SVGID_2_);}
	.st4{font-family:'HKGrotesk-Regular';}
	.st5{fill:#00BFD3;}
	.st6{fill:#BBBBFF;}
	.st7{fill:#FF3366;}
	.st8{fill:#5151FC;}
	.st9{fill:#4500FF;}
	.st10{font-family:'HKGrotesk-Italic';}
	.st11{fill:none;stroke:#5151FC;stroke-width:0.5;stroke-miterlimit:10;}
	.st12{fill:none;}
	.st13{clip-path:url(#SVGID_4_);}
	.st14{clip-path:url(#SVGID_6_);}
	.st15{fill:#FFFFFF;stroke:#6666FF;stroke-width:0.75;stroke-miterlimit:10;}
	.st16{font-size:7.796px;}
	.st17{clip-path:url(#SVGID_8_);}
	.st18{clip-path:url(#SVGID_10_);}
	.st19{fill:#5151FC;stroke:#FFFFFF;stroke-width:0.75;stroke-miterlimit:10;}
	.st20{fill:#FFFFFF;}
</style>
<text transform="matrix(1 0 0 1 237.522 44.713)" class="st0 st1 st2">Colle Bracca</text>
<g>
	<defs>
		<rect id="SVGID_1_" y="0" width="938" height="105.3"/>
	</defs>
	<clipPath id="SVGID_2_">
		<use xlink:href="#SVGID_1_"  style="overflow:visible;"/>
	</clipPath>
	<g id="Legend01" class="st3">
		<text transform="matrix(1 0 0 1 31.514 42.713)" class="st4 st2">Realtá</text>
		<text transform="matrix(1 0 0 1 31.513 64.713)" class="st4 st2">Contestualizzazione</text>
		<text transform="matrix(1 0 0 1 31.513 86.713)" class="st4 st2">Immaginazione</text>
		<path id="Rectangle_13359" class="st5" d="M5.3,34.7h11c2.7,0,5,2.2,5,4.9c0,0,0,0.1,0,0.1l0,0c0,2.7-2.2,5-4.9,5c0,0-0.1,0-0.1,0
			h-11c-2.7,0-5-2.2-5-4.9c0,0,0-0.1,0-0.1l0,0C0.3,36.9,2.5,34.7,5.3,34.7z"/>
		<path id="Rectangle_13360" class="st6" d="M5.3,56.7h11c2.7,0,5,2.2,5,4.9c0,0,0,0.1,0,0.1l0,0c0,2.7-2.2,5-4.9,5c0,0-0.1,0-0.1,0
			h-11c-2.7,0-5-2.2-5-4.9c0,0,0-0.1,0-0.1l0,0C0.3,58.9,2.5,56.7,5.3,56.7z"/>
		<path id="Rectangle_13361" class="st7" d="M5.3,78.7h11c2.7,0,5,2.2,5,4.9c0,0,0,0.1,0,0.1l0,0c0,2.7-2.2,5-4.9,5c0,0-0.1,0-0.1,0
			h-11c-2.7,0-5-2.2-5-4.9c0,0,0-0.1,0-0.1l0,0C0.3,80.9,2.5,78.7,5.3,78.7z"/>
		<g id="Group_24452" transform="translate(1293.157 137.196)">
			<text transform="matrix(1 0 0 1 -1055.635 -113.495)" class="st8 st1 st2">LUOGHI E PERSONAGGI</text>
		</g>
		<g id="Group_24453" transform="translate(1293.157 161.196)">
			<text transform="matrix(1 0 0 1 -1023.731 -94.483)" class="st4 st2">Personaggio reale</text>
		</g>
		<g id="Group_24454" transform="translate(1293.157 161.196)">
			<text transform="matrix(1 0 0 1 -1023.731 -72.483)" class="st9 st10 st2">Personaggio immaginario</text>
		</g>
		<text transform="matrix(1 0 0 1 0.522 23.701)" class="st8 st1 st2">TIPOLOGIA SEQUENZA NARRATIVA</text>
		<path id="Path_153170" class="st11" d="M0.5,104.3"/>
		<line id="Line_7910" class="st11" x1="-0.5" y1="0.7" x2="938.5" y2="0.7"/>
		<rect id="Rectangle_50" x="0.3" y="0.9" class="st12" width="938" height="104.4"/>
		<g id="Group_24462" transform="translate(1293.157 161.196)">
			<g id="Group_24461">
				<g>
					<defs>
						<rect id="SVGID_3_" x="-1056.4" y="-103.4" width="11.6" height="11.6"/>
					</defs>
					<clipPath id="SVGID_4_">
						<use xlink:href="#SVGID_3_"  style="overflow:visible;"/>
					</clipPath>
					<g id="Group_24460" class="st13">
						<g id="Group_24459">
							<g id="Group_24458">
								<g>
									<defs>
										<rect id="SVGID_5_" x="-1056.4" y="-103.3" width="11.6" height="11.6"/>
									</defs>
									<clipPath id="SVGID_6_">
										<use xlink:href="#SVGID_5_"  style="overflow:visible;"/>
									</clipPath>
									<g id="Group_24457" class="st14">
										<g id="Group_24456">
											<g id="New_Symbol">
												<circle id="Ellipse_33592" class="st15" cx="-1050.6" cy="-97.6" r="5.5"/>
												<rect id="Rectangle_19344" x="-1051.9" y="-100.9" class="st12" width="3.2" height="6.6"/>
												<text transform="matrix(1 0 0 1 -1051.958 -95.48)" class="st8 st1 st16">r</text>
											</g>
										</g>
									</g>
								</g>
							</g>
						</g>
					</g>
				</g>
			</g>
		</g>
		<g id="Group_24469" transform="translate(1293.157 161.196)">
			<g id="Group_24468">
				<g>
					<defs>
						<rect id="SVGID_7_" x="-1056.3" y="-81.3" width="11.6" height="11.6"/>
					</defs>
					<clipPath id="SVGID_8_">
						<use xlink:href="#SVGID_7_"  style="overflow:visible;"/>
					</clipPath>
					<g id="Group_24467" class="st17">
						<g id="Group_24466">
							<g id="Group_24465">
								<g>
									<defs>
										<rect id="SVGID_9_" x="-1056.4" y="-81.2" width="11.6" height="11.6"/>
									</defs>
									<clipPath id="SVGID_10_">
										<use xlink:href="#SVGID_9_"  style="overflow:visible;"/>
									</clipPath>
									<g id="Group_24464" class="st18">
										<g id="Group_24463">
											<circle id="Ellipse_33593" class="st19" cx="-1050.6" cy="-75.5" r="5.5"/>
											<rect id="Rectangle_19345" x="-1051.6" y="-78.2" class="st12" width="3.2" height="6.6"/>
											<text transform="matrix(1 0 0 1 -1051.566 -72.817)" class="st20 st1 st16">i</text>
										</g>
									</g>
								</g>
							</g>
						</g>
					</g>
				</g>
			</g>
		</g>
		<g id="Group_24962" transform="translate(1293.157 95.196)">
			<text transform="matrix(1 0 0 1 -991.635 -50.483)" class="st1 st2">Luogo localizzabili su mappa</text>
			<text transform="matrix(1 0 0 1 -1055.635 -50.483)" class="st1 st2">Colle Bracca</text>
		</g>
	</g>
</g>
</svg>
