<svg xmlns="http://www.w3.org/2000/svg" viewBox="0 0 937.01794 105.29291"><g id="legend"><g id="legend-2" data-name="legend"><g style="isolation:isolate"><path d="M237.93309,16.59823h4.58985v1.13769h-3.34961v1.74317h3.11914v1.13769h-3.11914v1.709h3.34961v1.17187h-4.58985Z" fill="#5151fc"/><path d="M244.01122,16.59823h1.24023v5.72754h2.94922v1.17187h-4.18945Z" fill="#5151fc"/><path d="M249.20263,16.59823h4.58984v1.13769h-3.34961v1.74317H253.562v1.13769h-3.11914v1.709h3.34961v1.17187h-4.58984Z" fill="#5151fc"/><path d="M255.28075,16.59823h1.66992l1.832,4.90722,1.83008-4.90722h1.66992v6.89941h-1.1914V18.33651l-1.709,4.56055h-1.20117l-1.709-4.56055v5.16113h-1.19141Z" fill="#5151fc"/><path d="M264.06005,16.59823h4.58984v1.13769h-3.34961v1.74317h3.1211v1.13769h-3.1211v1.709h3.34961v1.17187h-4.58984Z" fill="#5151fc"/><path d="M270.14013,16.59823h1.23046l2.9004,4.8291v-4.8291h1.1914v6.89941h-1.24023l-2.89063-4.83887v4.83887h-1.1914Z" fill="#5151fc"/><path d="M278.61083,17.70663h-2.16211v-1.1084h5.56055v1.1084h-2.15821v5.791h-1.24023Z" fill="#5151fc"/><path d="M283.00145,16.59823h1.24024v6.89941h-1.24024Z" fill="#5151fc"/></g><g style="isolation:isolate"><path d="M239.10888,35.61043h1.90429c1.33789,0,2.06641.74707,1.77735,1.97266a2.40426,2.40426,0,0,1-2.5918,1.81152h-1.19141l-.71289,3.11524h-.77734Zm1.19726,3.09571a1.61339,1.61339,0,0,0,1.75195-1.26465c.17188-.72754-.2246-1.14258-1.14257-1.14258h-1.19141l-.56055,2.40723Z" fill="#4500ff"/><path d="M242.728,40.02938a2.88185,2.88185,0,0,1,2.61718-2.46094c1.625,0,1.84571,1.2793,1.52344,2.63184,0,0-.0293.09765-.04883.15137h-3.40429c-.209.86425.084,1.57226.99609,1.57226a2.12128,2.12128,0,0,0,1.5293-.53223l.44922.44922a2.928,2.928,0,0,1-2.002.72754C242.9038,42.56844,242.40966,41.43563,242.728,40.02938Zm3.56445-.27344c.21484-.95215-.07422-1.53808-.98633-1.53808a1.89776,1.89776,0,0,0-1.7539,1.53808Z" fill="#4500ff"/><path d="M248.70849,37.63192h.73828l-.19141.83984a1.85483,1.85483,0,0,1,1.5293-.91308,1.36757,1.36757,0,0,1,.82031.249l-.35742.62012a1.14033,1.14033,0,0,0-.60547-.17578c-.85938,0-1.55664.96679-1.791,1.98242l-.52734,2.27539h-.73242Z" fill="#4500ff"/><path d="M251.01317,41.36727l.66407-.249a.99981.99981,0,0,0,1.08007.83984,1.02752,1.02752,0,0,0,1.11719-.94727c0-1.08886-2.17187-.43457-2.17187-1.99707a1.50776,1.50776,0,0,1,1.68359-1.45507,1.57615,1.57615,0,0,1,1.57812.97656l-.61132.26367a.9514.9514,0,0,0-.9961-.625c-.541,0-.9707.25391-.9707.7959,0,1.05469,2.21094.43457,2.21094,2.0166a1.80163,1.80163,0,0,1-1.89844,1.62109A1.59682,1.59682,0,0,1,251.01317,41.36727Z" fill="#4500ff"/><path d="M255.58934,40.01961a3.04717,3.04717,0,0,1,2.8125-2.45117c1.4004,0,2.10938,1.167,1.77735,2.59278a3.05834,3.05834,0,0,1-2.82227,2.44628C255.94481,42.6075,255.25731,41.4454,255.58934,40.01961Zm3.8086,0c.21875-.9375.03906-1.80175-1.03125-1.80175a2.19373,2.19373,0,0,0-1.9961,1.94336c-.21484.9375-.02929,1.80175,1.0254,1.80175A2.19035,2.19035,0,0,0,259.39794,40.01961Z" fill="#4500ff"/><path d="M262.00536,37.63192h.73242l-.18164.7373a2.25718,2.25718,0,0,1,1.67578-.82031c1.24024,0,1.51758.94727,1.26953,2.03125l-.67382,2.92969h-.73243L264.769,39.585c.14649-.66406.14063-1.34277-.67383-1.34277a2.06519,2.06519,0,0,0-1.8457,1.52832l-.63476,2.73926h-.72852Z" fill="#4500ff"/><path d="M271.32177,37.63192l-1.11914,4.87793h-.71289l.123-.61524a2.15586,2.15586,0,0,1-1.63086.71289c-1.27929,0-1.74414-1.18164-1.416-2.60742a2.83,2.83,0,0,1,2.4707-2.4707,1.38135,1.38135,0,0,1,1.38086.791l.17578-.68848Zm-2.13868.57129c-1.01171,0-1.666.91308-1.89453,1.93847-.23047.957-.02929,1.80176.918,1.80176,1.0293,0,1.66406-.9082,1.89844-1.94336C270.32567,39.04793,270.14989,38.20321,269.18309,38.20321Z" fill="#4500ff"/><path d="M273.2163,44.62411a1.73315,1.73315,0,0,1-1.73828-.99121l.625-.35645a1.104,1.104,0,0,0,1.14648.71777,1.7936,1.7936,0,0,0,1.73438-1.51855l.16015-.62988a2.16856,2.16856,0,0,1-1.61523.74218c-1.32813,0-1.77735-1.17187-1.45117-2.59765a2.81406,2.81406,0,0,1,2.5-2.46094,1.39263,1.39263,0,0,1,1.35351.80078l.16992-.69824h.73828L275.69677,42.544A2.4368,2.4368,0,0,1,273.2163,44.62411Zm2.40234-4.63379c.21485-.94239.04883-1.81153-.9082-1.81153-1.01563,0-1.68555.93262-1.91016,1.95313-.22851.94726-.0332,1.81152.92383,1.81152C274.74364,41.94344,275.38817,41.00594,275.61864,39.99032Z" fill="#4500ff"/><path d="M278.73388,44.62411a1.73318,1.73318,0,0,1-1.73829-.99121l.625-.35645a1.104,1.104,0,0,0,1.14649.71777,1.79358,1.79358,0,0,0,1.73437-1.51855l.16016-.62988a2.16858,2.16858,0,0,1-1.61523.74218c-1.32813,0-1.77735-1.17187-1.45118-2.59765a2.81407,2.81407,0,0,1,2.5-2.46094,1.39264,1.39264,0,0,1,1.35352.80078l.16992-.69824h.73828L281.21434,42.544A2.43678,2.43678,0,0,1,278.73388,44.62411Zm2.40234-4.63379c.21484-.94239.04883-1.81153-.9082-1.81153-1.01563,0-1.68555.93262-1.91016,1.95313-.22852.94726-.0332,1.81152.92383,1.81152C280.26122,41.94344,280.90575,41.00594,281.13622,39.99032Z" fill="#4500ff"/><path d="M284.01122,37.63192h.74219l-1.123,4.87793H282.894Zm.42578-2.02149h.83984l-.21484.9375h-.8457Z" fill="#4500ff"/><path d="M289.0952,37.63192h.74219l-1.12305,4.87793h-.73828Zm.42383-2.02149h.83985l-.21485.9375h-.84375Z" fill="#4500ff"/><path d="M291.478,37.63192h.73632l-.19531.80566a1.78235,1.78235,0,0,1,1.48438-.89843,1.14553,1.14553,0,0,1,1.29883.99121,2.04637,2.04637,0,0,1,1.709-.98145c1.24023,0,1.53906.94727,1.28906,2.03125l-.67773,2.92969h-.73828l.67382-2.92481c.15235-.66406.15625-1.42089-.66406-1.42089a1.9239,1.9239,0,0,0-1.66015,1.59667l-.62891,2.749h-.73828l.67383-2.94434c.15625-.67383.166-1.40136-.64844-1.40136a1.9201,1.9201,0,0,0-1.666,1.59667l-.63476,2.749h-.73242Z" fill="#4500ff"/><path d="M299.76317,37.63192h.73828l-.19531.80566a1.77977,1.77977,0,0,1,1.48438-.89843,1.14661,1.14661,0,0,1,1.29882.99121,2.0415,2.0415,0,0,1,1.709-.98145c1.24023,0,1.53711.94727,1.28906,2.03125l-.67969,2.92969h-.73632l.67382-2.92481c.15039-.66406.15625-1.42089-.66406-1.42089a1.9219,1.9219,0,0,0-1.66015,1.59667l-.63086,2.749h-.73633l.67383-2.94434c.15625-.67383.166-1.40136-.65039-1.40136a1.91607,1.91607,0,0,0-1.66407,1.59667l-.63476,2.749H298.646Z" fill="#4500ff"/><path d="M311.9077,37.63192l-1.11914,4.87793h-.71289l.123-.61524a2.15586,2.15586,0,0,1-1.63086.71289c-1.2793,0-1.74414-1.18164-1.416-2.60742a2.83,2.83,0,0,1,2.47071-2.4707,1.38136,1.38136,0,0,1,1.38086.791l.17578-.68848Zm-2.13867.57129c-1.01172,0-1.666.91308-1.89453,1.93847-.23047.957-.0293,1.80176.918,1.80176,1.0293,0,1.66406-.9082,1.89844-1.94336C310.91161,39.04793,310.73583,38.20321,309.769,38.20321Z" fill="#4500ff"/><path d="M313.80224,44.62411a1.73318,1.73318,0,0,1-1.73829-.99121l.625-.35645a1.104,1.104,0,0,0,1.14649.71777,1.79358,1.79358,0,0,0,1.73437-1.51855l.16016-.62988a2.16858,2.16858,0,0,1-1.61523.74218c-1.32813,0-1.77735-1.17187-1.45118-2.59765a2.81407,2.81407,0,0,1,2.5-2.46094,1.39264,1.39264,0,0,1,1.35352.80078l.16992-.69824h.73828L316.2827,42.544A2.43678,2.43678,0,0,1,313.80224,44.62411Zm2.40234-4.63379c.21484-.94239.04883-1.81153-.9082-1.81153-1.01563,0-1.68555.93262-1.91016,1.95313-.22852.94726-.0332,1.81152.92383,1.81152C315.32958,41.94344,315.97411,41.00594,316.20458,39.99032Z" fill="#4500ff"/><path d="M319.07958,37.63192h.74219l-1.12305,4.87793h-.73633Zm.42578-2.02149h.83984l-.21484.9375h-.8457Z" fill="#4500ff"/><path d="M321.46239,37.63192h.73242l-.17968.7373a2.2532,2.2532,0,0,1,1.67382-.82031c1.24024,0,1.51954.94727,1.26954,2.03125l-.67383,2.92969h-.73242l.67382-2.92481c.14649-.66406.14258-1.34277-.67382-1.34277a2.06723,2.06723,0,0,0-1.84571,1.52832l-.63476,2.73926h-.72657Z" fill="#4500ff"/><path d="M330.7788,37.63192l-1.11719,4.87793h-.71289l.12109-.61524a2.15586,2.15586,0,0,1-1.63086.71289c-1.27929,0-1.74218-1.18164-1.416-2.60742a2.83184,2.83184,0,0,1,2.4707-2.4707,1.38242,1.38242,0,0,1,1.38281.791l.17579-.68848Zm-2.13867.57129c-1.00977,0-1.66407.91308-1.89454,1.93847-.22851.957-.02929,1.80176.918,1.80176,1.03125,0,1.666-.9082,1.90039-1.94336C329.7827,39.04793,329.60692,38.20321,328.64013,38.20321Z" fill="#4500ff"/><path d="M332.43505,37.63192h.73633l-.18946.83984a1.84936,1.84936,0,0,1,1.52735-.91308,1.36326,1.36326,0,0,1,.82031.249l-.35547.62012a1.14514,1.14514,0,0,0-.60547-.17578c-.85937,0-1.55859.96679-1.793,1.98242l-.52734,2.27539h-.73242Z" fill="#4500ff"/><path d="M336.32177,37.63192h.74218l-1.123,4.87793h-.73828Zm.42382-2.02149h.83985l-.21485.9375h-.84375Z" fill="#4500ff"/></g><g style="isolation:isolate"><path d="M260.27391,57.61043h1.25977l1.99219,5.542,2.02148-5.542h1.25977v6.89942h-.7666V58.27938l-2.0752,5.62988h-.84961l-2.07031-5.62988v6.23047h-.77149Z"/><path d="M268.27684,62.09774c0-1.30859.70313-2.53418,2.11915-2.53418,1.582,0,2.07031,1.25488,2.07031,2.37793,0,.127-.01465.28808-.02442.376h-3.39843a1.44421,1.44421,0,0,0,1.42578,1.62109,1.70465,1.70465,0,0,0,1.37207-.52246l.498.40039a2.3918,2.3918,0,0,1-1.86523.76172A2.21113,2.21113,0,0,1,268.27684,62.09774Zm3.49122-.376c-.01954-.78125-.3711-1.55761-1.37207-1.55761-.89356,0-1.31348.72753-1.35254,1.55761Z"/><path d="M273.897,63.2159V60.22762h-.78125v-.5957h.78613V58.53329l.72266-.6836v1.78223h1.23535v.5957H274.6245v2.99317c0,.53711.26367.78613.62012.78613a1.16368,1.16368,0,0,0,.48828-.12207v.625a1.96632,1.96632,0,0,1-.6543.09765C274.21434,64.6075,273.897,64.05086,273.897,63.2159Z"/><path d="M276.57274,63.15243c0-.97657.76172-1.43067,2.14844-1.43067h1.11328c0-.918-.3125-1.55761-1.19629-1.55761a1.60535,1.60535,0,0,0-1.35254.7373l-.53222-.415a2.16388,2.16388,0,0,1,1.84082-.957,1.79669,1.79669,0,0,1,1.90918,1.9873v2.99317h-.62012l-.01465-.94238a1.82115,1.82115,0,0,1-1.71387,1.04A1.43023,1.43023,0,0,1,276.57274,63.15243Zm3.26172-.87891h-1.04492c-.9668,0-1.46484.249-1.46484.89844,0,.58105.40527.82031.91308.82031A1.68294,1.68294,0,0,0,279.83446,62.27352Z"/><path d="M282.24657,60.22762h-.88867v-.5957h.89355v-.82031a1.225,1.225,0,0,1,1.31836-1.30371,1.82514,1.82514,0,0,1,.80078.18554l-.17578.58106a1.38678,1.38678,0,0,0-.57129-.15137c-.376,0-.64941.22949-.64941.72754v.78125h1.40137v.5957h-1.40137v4.28223h-.72754Z"/><path d="M284.75145,62.05868a2.32135,2.32135,0,1,1,4.624,0,2.323,2.323,0,1,1-4.624,0Zm3.88672,0c0-.97657-.48828-1.92383-1.57226-1.92383s-1.582.94726-1.582,1.92383c0,.98632.498,1.94336,1.57226,1.94336C288.14989,64.002,288.63817,63.02547,288.63817,62.05868Z"/><path d="M290.61571,59.63192h.72754v.86426a1.57164,1.57164,0,0,1,1.44043-.9668,1.26816,1.26816,0,0,1,.78613.25391l-.30761.62988a.88774.88774,0,0,0-.59571-.18555c-.83008,0-1.333.66895-1.333,1.8457v2.43653h-.71778Z"/><path d="M293.72118,62.09774c0-1.30859.70313-2.53418,2.11914-2.53418,1.582,0,2.07031,1.25488,2.07031,2.37793,0,.127-.01464.28808-.02441.376h-3.39844a1.44421,1.44421,0,0,0,1.42578,1.62109,1.70464,1.70464,0,0,0,1.37207-.52246l.498.40039a2.3918,2.3918,0,0,1-1.86523.76172A2.21113,2.21113,0,0,1,293.72118,62.09774Zm3.49121-.376c-.01953-.78125-.37109-1.55761-1.37207-1.55761-.89355,0-1.31348.72753-1.35254,1.55761Z"/><path d="M301.40673,62.05868a2.32135,2.32135,0,1,1,4.624,0,2.323,2.323,0,1,1-4.624,0Zm3.88672,0c0-.97657-.48829-1.92383-1.57227-1.92383s-1.582.94726-1.582,1.92383c0,.98632.49805,1.94336,1.57226,1.94336C304.80516,64.002,305.29345,63.02547,305.29345,62.05868Z"/><path d="M309.44384,63.40145l.61523-.31738a1.23741,1.23741,0,0,0,1.21582.92773c.55176,0,.957-.27832.957-.80566,0-1.31348-2.59277-.66895-2.59277-2.32422a1.39214,1.39214,0,0,1,1.54785-1.35254,1.733,1.733,0,0,1,1.60156.97168l-.53711.30762a1.14983,1.14983,0,0,0-1.08886-.68848c-.52735,0-.8545.27344-.8545.67383,0,1.123,2.63184.53222,2.63184,2.32422a1.52122,1.52122,0,0,1-1.6748,1.48925A1.89279,1.89279,0,0,1,309.44384,63.40145Z"/><path d="M314.10692,57.61043h.83008v.9375h-.83008Zm.05371,2.02149h.72266v4.87793h-.72266Z"/><path d="M316.53368,59.63192h.73731v.75683a1.52918,1.52918,0,0,1,2.81738.16114,1.6181,1.6181,0,0,1,1.51855-1.02051c1.20606,0,1.69434.93262,1.69434,2.0166v2.96387H322.564V61.61922c0-.66406-.20019-1.46972-1.04492-1.46972-.80078,0-1.23535.85449-1.23535,1.65527v2.70508h-.74219V61.59969c0-.67383-.19043-1.45019-1.02539-1.45019-.81054,0-1.24511.93261-1.24511,1.8164v2.544h-.73731Z"/><path d="M324.78563,57.61043h.83008v.9375h-.83008Zm.05371,2.02149h.72266v4.87793h-.72266Z"/><path d="M328.64794,63.92391v.58594a2.38148,2.38148,0,0,1-.65918.09765c-.73731,0-.791-.498-.791-1.084V57.61043h.73731v6.084c0,.01465.01953.27832.23926.27832A2.89163,2.89163,0,0,0,328.64794,63.92391Z"/><path d="M329.69774,57.61043h.83008v.9375h-.83008Zm.05371,2.02149h.72266v4.87793h-.72266Z"/><path d="M332.30028,63.2159V60.22762H331.519v-.5957h.78613V58.53329l.72266-.6836v1.78223h1.23535v.5957h-1.23535v2.99317c0,.53711.26367.78613.62012.78613a1.16368,1.16368,0,0,0,.48828-.12207v.625a1.96632,1.96632,0,0,1-.6543.09765C332.61766,64.6075,332.30028,64.05086,332.30028,63.2159Z"/><path d="M335.29833,62.464v-2.832h.72754v2.88086c0,.70312.19043,1.48926,1.02539,1.48926a1.5665,1.5665,0,0,0,1.45508-1.66993V59.63192h.72265v4.87793h-.72265v-.8252a1.73606,1.73606,0,0,1-1.53321.93262C335.772,64.61727,335.29833,63.67977,335.29833,62.464Z"/><path d="M344.69286,57.61043v6.89942h-.708l-.01465-.67871a1.73418,1.73418,0,0,1-1.52832.77636c-1.25,0-1.958-1.14746-1.958-2.53906,0-1.39648.708-2.53906,1.95312-2.53906a1.74624,1.74624,0,0,1,1.52832.7666V57.61043Zm-.66895,4.458c0-.98633-.40039-1.92383-1.39648-1.92383-.97656,0-1.39648.9375-1.39648,1.92383,0,.9961.41992,1.92383,1.39648,1.92383C343.62352,63.99227,344.02391,63.06942,344.02391,62.06844Z"/><path d="M346.30419,57.61043h.83008v.9375h-.83008Zm.05371,2.02149h.72266v4.87793h-.72266Z"/><path d="M348.731,59.63192h.72754v.84961a1.75163,1.75163,0,0,1,1.57226-.9375c1.16211,0,1.63574.92773,1.63574,2.002v2.96387h-.72265V61.61922c0-.67382-.249-1.45507-1.1084-1.45507-.7666,0-1.377.60058-1.377,1.81152v2.53418H348.731Z"/><path d="M353.81884,62.09774c0-1.30859.70312-2.53418,2.11914-2.53418,1.582,0,2.07031,1.25488,2.07031,2.37793,0,.127-.01465.28808-.02441.376h-3.39844a1.44421,1.44421,0,0,0,1.42578,1.62109,1.70465,1.70465,0,0,0,1.37207-.52246l.49805.40039a2.39184,2.39184,0,0,1-1.86524.76172A2.21112,2.21112,0,0,1,353.81884,62.09774Zm3.49121-.376c-.01953-.78125-.3711-1.55761-1.37207-1.55761-.89356,0-1.31348.72753-1.35254,1.55761Z"/><path d="M361.46044,63.15243c0-.97657.76172-1.43067,2.14844-1.43067h1.11328c0-.918-.3125-1.55761-1.19629-1.55761a1.60533,1.60533,0,0,0-1.35254.7373l-.53223-.415a2.1639,2.1639,0,0,1,1.84082-.957,1.79668,1.79668,0,0,1,1.90918,1.9873v2.99317H364.771l-.01465-.94238a1.82116,1.82116,0,0,1-1.71387,1.04A1.43022,1.43022,0,0,1,361.46044,63.15243Zm3.26172-.87891h-1.04492c-.9668,0-1.46485.249-1.46485.89844,0,.58105.40527.82031.91309.82031A1.683,1.683,0,0,0,364.72216,62.27352Z"/><path d="M366.90966,59.63192h.72754v.84961a1.75163,1.75163,0,0,1,1.57226-.9375c1.16211,0,1.63574.92773,1.63574,2.002v2.96387h-.72265V61.61922c0-.67382-.249-1.45507-1.1084-1.45507-.7666,0-1.37695.60058-1.37695,1.81152v2.53418h-.72754Z"/><path d="M372.32958,57.61043h.83008v.9375h-.83008Zm.05371,2.02149h.72266v4.87793h-.72266Z"/><path d="M374.75634,59.63192h.7373v.75683a1.52918,1.52918,0,0,1,2.81738.16114,1.6181,1.6181,0,0,1,1.51856-1.02051c1.20605,0,1.69433.93262,1.69433,2.0166v2.96387h-.7373V61.61922c0-.66406-.2002-1.46972-1.04492-1.46972-.80078,0-1.23535.85449-1.23535,1.65527v2.70508h-.74219V61.59969c0-.67383-.19043-1.45019-1.02539-1.45019-.81055,0-1.24512.93261-1.24512,1.8164v2.544h-.7373Z"/><path d="M382.6079,63.15243c0-.97657.76172-1.43067,2.14844-1.43067h1.11328c0-.918-.3125-1.55761-1.19629-1.55761a1.60533,1.60533,0,0,0-1.35254.7373l-.53223-.415a2.1639,2.1639,0,0,1,1.84082-.957,1.79668,1.79668,0,0,1,1.90918,1.9873v2.99317h-.62011l-.01465-.94238a1.82116,1.82116,0,0,1-1.71387,1.04A1.43022,1.43022,0,0,1,382.6079,63.15243Zm3.26172-.87891H384.8247c-.9668,0-1.46485.249-1.46485.89844,0,.58105.40528.82031.91309.82031A1.683,1.683,0,0,0,385.86962,62.27352Z"/><path d="M389.49266,63.92391v.58594a2.3814,2.3814,0,0,1-.65917.09765c-.73731,0-.791-.498-.791-1.084V57.61043h.7373v6.084c0,.01465.01954.27832.23926.27832A2.89151,2.89151,0,0,0,389.49266,63.92391Z"/><path d="M390.54247,57.61043h.83008v.9375h-.83008Zm.05371,2.02149h.72266v4.87793h-.72266Z"/></g><g style="isolation:isolate"><path d="M2.30419,17.70663H.14208v-1.1084H5.70263v1.1084H3.54442v5.791H2.30419Z" fill="#5151fc"/><path d="M6.69481,16.59823H7.93505v6.89941H6.69481Z" fill="#5151fc"/><path d="M9.71239,16.59823H11.8745c1.40625,0,2.4375.7373,2.4375,2.041,0,1.28907-1.03125,1.99707-2.4375,1.99707h-.93164v2.86133H9.71239Zm2.16211,2.88086c.84961,0,1.207-.293,1.207-.83985,0-.56152-.36719-.88379-1.207-.88379h-.93164v1.72364Z" fill="#5151fc"/><path d="M14.92138,20.04549a3.22961,3.22961,0,0,1,3.33007-3.5498,3.22857,3.22857,0,0,1,3.33008,3.5498,3.22857,3.22857,0,0,1-3.33008,3.54981A3.22962,3.22962,0,0,1,14.92138,20.04549Zm5.35156,0c0-1.29883-.541-2.44629-2.02149-2.44629-1.47851,0-2.02148,1.14746-2.02148,2.44629,0,1.30371.543,2.45117,2.02148,2.45117C19.73192,22.49666,20.27294,21.3492,20.27294,20.04549Z" fill="#5151fc"/><path d="M22.87059,16.59823h1.24024v5.72754h2.94922v1.17187H22.87059Z" fill="#5151fc"/><path d="M27.34325,20.04549a3.33688,3.33688,0,1,1,6.66016,0,3.33688,3.33688,0,1,1-6.66016,0Zm5.35156,0c0-1.29883-.541-2.44629-2.02148-2.44629-1.47852,0-2.02149,1.14746-2.02149,2.44629,0,1.30371.543,2.45117,2.02149,2.45117C32.1538,22.49666,32.69481,21.3492,32.69481,20.04549Z" fill="#5151fc"/><path d="M34.80419,20.04549c0-1.88965,1.05078-3.55957,3.33008-3.55957a3.13573,3.13573,0,0,1,3.00781,1.98242l-1.09766.459a1.89538,1.89538,0,0,0-1.91992-1.35742c-1.459,0-2.08984,1.14746-2.08984,2.42675,0,1.37207.63086,2.49024,2.10937,2.49024a1.8986,1.8986,0,0,0,1.92969-1.71875H38.50536v-1.001h2.76953v3.73047h-.98242L40.185,22.526a2.28359,2.28359,0,0,1-2.041,1.06934A3.23527,3.23527,0,0,1,34.80419,20.04549Z" fill="#5151fc"/><path d="M42.7827,16.59823h1.24024v6.89941H42.7827Z" fill="#5151fc"/><path d="M47.73388,16.59823h.92773l2.75,6.89941H50.07372l-.5332-1.499H46.86083l-.53711,1.499H44.9702Zm1.38671,4.34082-.918-2.51953-.92188,2.51953Z" fill="#5151fc"/><path d="M54.0913,21.5494l1.23047-.3125a1.31628,1.31628,0,0,0,1.43164,1.24023c.73633,0,1.13672-.39062,1.13672-.8789,0-1.43067-3.33985-.95215-3.33985-3.19825a1.9517,1.9517,0,0,1,2.1543-1.90429,2.31043,2.31043,0,0,1,2.09961,1.21094l-1.03125.62988a1.24725,1.24725,0,0,0-1.11328-.73731.78568.78568,0,0,0-.86914.73731c0,1.29883,3.33984.85937,3.33984,3.14941a2.16806,2.16806,0,0,1-2.39648,2.08985A2.50883,2.50883,0,0,1,54.0913,21.5494Z" fill="#5151fc"/><path d="M60.312,16.59823h4.58984v1.13769h-3.3496v1.74317h3.12109v1.13769H61.55224v1.709h3.3496v1.17187H60.312Z" fill="#5151fc"/><path d="M71.064,23.08748a3.29338,3.29338,0,0,1-1.84961.50782,3.22857,3.22857,0,0,1-3.33007-3.54981,3.33717,3.33717,0,1,1,6.66015.00977,4.0389,4.0389,0,0,1-.67968,2.334l.98632.9375-.79492.752Zm-.8789-.85937-.94141-.85938.80078-.73242.918.84961a2.8804,2.8804,0,0,0,.3418-1.44043c0-1.29883-.61133-2.37793-2.08985-2.37793-1.48046,0-2.08984,1.0791-2.08984,2.37793,0,1.30371.60938,2.38282,2.08984,2.38282A2.31075,2.31075,0,0,0,70.18505,22.22811Z" fill="#5151fc"/><path d="M73.896,20.80721v-4.209h1.23632v4.06738c0,1.11328.293,1.7334,1.40039,1.7334,1.11329,0,1.40235-.62012,1.40235-1.7334V16.59823h1.24023v4.16015c0,1.73828-.791,2.83692-2.64258,2.83692C74.68309,23.5953,73.896,22.49666,73.896,20.80721Z" fill="#5151fc"/><path d="M80.79052,16.59823h4.58984v1.13769H82.03075v1.74317h3.12109v1.13769H82.03075v1.709h3.34961v1.17187H80.79052Z" fill="#5151fc"/><path d="M86.87059,16.59823h1.23047l2.90039,4.8291v-4.8291h1.19141v6.89941H90.95263L88.062,18.65877v4.83887H86.87059Z" fill="#5151fc"/><path d="M93.36864,22.63827l3.85352-4.90235H93.58934V16.59823h5.3418v.89843L95.103,22.37948h3.82812v1.11816h-5.5625Z" fill="#5151fc"/><path d="M102.11474,16.59823h.92773l2.74805,6.89941h-1.33789l-.53125-1.499h-2.68164l-.53711,1.499H99.35106Zm1.38671,4.34082-.918-2.51953-.92383,2.51953Z" fill="#5151fc"/><path d="M109.14013,16.59823h1.23046l2.9004,4.8291v-4.8291h1.1914v6.89941h-1.24023l-2.89063-4.83887v4.83887h-1.1914Z" fill="#5151fc"/><path d="M118.17333,16.59823h.92773l2.75,6.89941h-1.33789l-.5332-1.499h-2.67969l-.53711,1.499h-1.35351Zm1.38672,4.34082-.918-2.51953-.92188,2.51953Z" fill="#5151fc"/><path d="M122.79833,16.59823h2.23047a2.13984,2.13984,0,0,1,2.38867,2.03125,1.89137,1.89137,0,0,1-1.34766,1.79687l1.918,3.08106h-1.41992l-1.69922-2.959h-.83008v2.959h-1.24023Zm2.34375,2.93945c.6582-.0293,1.04883-.37109,1.04883-.88867,0-.57129-.44336-.94238-1.15235-.94238h-.99023v1.83105Z" fill="#5151fc"/><path d="M128.98974,16.59823h2.23046a2.13984,2.13984,0,0,1,2.38868,2.03125,1.89137,1.89137,0,0,1-1.34766,1.79687l1.918,3.08106h-1.41992l-1.69922-2.959H130.23v2.959h-1.24023Zm2.34375,2.93945c.6582-.0293,1.04882-.37109,1.04882-.88867,0-.57129-.44336-.94238-1.15234-.94238h-.99023v1.83105Z" fill="#5151fc"/><path d="M137.0952,16.59823h.92774l2.74805,6.89941h-1.3379l-.53125-1.499H136.2202l-.53711,1.499h-1.35156Zm1.38672,4.34082-.918-2.51953-.92382,2.51953Z" fill="#5151fc"/><path d="M142.44091,17.70663H140.2788v-1.1084h5.56054v1.1084h-2.1582v5.791h-1.24023Z" fill="#5151fc"/><path d="M146.83153,16.59823h1.24024v6.89941h-1.24024Z" fill="#5151fc"/><path d="M149.019,16.59823h1.3711l1.86132,4.88769,1.84961-4.88769h1.35743l-2.74805,6.89941h-.92774Z" fill="#5151fc"/><path d="M157.73,16.59823h.92773l2.74805,6.89941h-1.33789l-.53125-1.499H156.855l-.53711,1.499H154.9663Zm1.38672,4.34082-.918-2.51953-.92383,2.51953Z" fill="#5151fc"/></g><g style="isolation:isolate"><path d="M475.82177,16.59823h4.89257v1.13769H477.062v1.74317h3.22266v1.13769H477.062v2.88086h-1.24023Z" fill="#5151fc"/><path d="M481.85106,16.59823h1.24024v6.89941h-1.24024Z" fill="#5151fc"/><path d="M484.38036,20.04549c0-1.88965,1.05078-3.55957,3.33008-3.55957a3.13573,3.13573,0,0,1,3.00781,1.98242l-1.09766.459a1.89538,1.89538,0,0,0-1.91992-1.35742c-1.459,0-2.08984,1.14746-2.08984,2.42675,0,1.37207.63086,2.49024,2.10937,2.49024a1.8986,1.8986,0,0,0,1.92969-1.71875h-1.56836v-1.001h2.76953v3.73047h-.98242l-.10742-.97168a2.28358,2.28358,0,0,1-2.041,1.06934A3.23527,3.23527,0,0,1,484.38036,20.04549Z" fill="#5151fc"/><path d="M492.20263,20.80721v-4.209H493.439v4.06738c0,1.11328.293,1.7334,1.40039,1.7334,1.11329,0,1.40235-.62012,1.40235-1.7334V16.59823h1.24023v4.16015c0,1.73828-.791,2.83692-2.64258,2.83692C492.98974,23.5953,492.20263,22.49666,492.20263,20.80721Z" fill="#5151fc"/><path d="M499.09716,16.59823h2.23242a2.13811,2.13811,0,0,1,2.38672,2.03125,1.89137,1.89137,0,0,1-1.34766,1.79687l1.91992,3.08106h-1.42187l-1.69922-2.959h-.83008v2.959h-1.24023Zm2.34375,2.93945c.66015-.0293,1.05078-.37109,1.05078-.88867,0-.57129-.44531-.94238-1.15235-.94238h-.99218v1.83105Z" fill="#5151fc"/><path d="M505.28856,16.59823h4.58985v1.13769H506.5288v1.74317h3.12109v1.13769H506.5288v1.709h3.34961v1.17187h-4.58985Z" fill="#5151fc"/><path d="M513.771,16.59823h2.23046a2.13984,2.13984,0,0,1,2.38868,2.03125,1.89137,1.89137,0,0,1-1.34766,1.79687l1.918,3.08106h-1.41992l-1.69922-2.959h-.83008v2.959H513.771Zm2.34375,2.93945c.6582-.0293,1.04882-.37109,1.04882-.88867,0-.57129-.44336-.94238-1.15234-.94238H515.021v1.83105Z" fill="#5151fc"/><path d="M519.96239,16.59823h4.58985v1.13769h-3.34961v1.74317h3.11914v1.13769h-3.11914v1.709h3.34961v1.17187h-4.58985Z" fill="#5151fc"/><path d="M527.53466,17.70663h-2.16211v-1.1084h5.56054v1.1084h-2.1582v5.791h-1.24023Z" fill="#5151fc"/><path d="M531.24559,20.04549a3.33688,3.33688,0,1,1,6.66016,0,3.33688,3.33688,0,1,1-6.66016,0Zm5.35157,0c0-1.29883-.541-2.44629-2.02149-2.44629-1.47851,0-2.02148,1.14746-2.02148,2.44629,0,1.30371.543,2.45117,2.02148,2.45117C536.05614,22.49666,536.59716,21.3492,536.59716,20.04549Z" fill="#5151fc"/><path d="M539.19481,16.59823h2.23243a2.1381,2.1381,0,0,1,2.38671,2.03125,1.89136,1.89136,0,0,1-1.34765,1.79687l1.91992,3.08106h-1.42188l-1.69921-2.959h-.83008v2.959h-1.24024Zm2.34375,2.93945c.66016-.0293,1.05078-.37109,1.05078-.88867,0-.57129-.44531-.94238-1.15234-.94238h-.99219v1.83105Z" fill="#5151fc"/><path d="M545.38622,16.59823h1.24023v6.89941h-1.24023Z" fill="#5151fc"/><path d="M547.91552,20.04549a3.23787,3.23787,0,0,1,3.33007-3.55957,3.13955,3.13955,0,0,1,3.01758,1.98242l-1.15625.459a1.73592,1.73592,0,0,0-1.87109-1.25977,2.046,2.046,0,0,0-2.08984,2.3291c0,1.37207.63085,2.42188,2.10937,2.42188a1.81577,1.81577,0,0,0,1.87109-1.2793l1.14649.46875a3.12947,3.12947,0,0,1-3.01758,1.98731A3.23527,3.23527,0,0,1,547.91552,20.04549Z" fill="#5151fc"/><path d="M555.396,16.59823h1.24023v2.88086h3.02344V16.59823h1.24023v6.89941h-1.24023V20.61678h-3.02344v2.88086H555.396Z" fill="#5151fc"/><path d="M562.67724,16.59823h4.58984v1.13769h-3.34961v1.74317h3.11914v1.13769h-3.11914v1.709h3.34961v1.17187h-4.58984Z" fill="#5151fc"/></g><line y1="104.09077" x2="938.00001" y2="104.09077" fill="none" stroke="#5151fc" stroke-miterlimit="10" stroke-width="0.5"/><line y1="0.49077" x2="938.00001" y2="0.49077" fill="none" stroke="#5151fc" stroke-miterlimit="10" stroke-width="0.5"/><rect id="Rectangle_50" data-name="Rectangle 50" x="-0.2" y="0.69077" width="938" height="104.4" fill="none"/><g style="isolation:isolate"><path d="M32.06981,35.61h.77637v6.89941h-.77637Z"/><path d="M34.69677,37.63143h.7373v.75684a1.52917,1.52917,0,0,1,2.81738.16113A1.6181,1.6181,0,0,1,39.77,37.52889c1.206,0,1.69433.93262,1.69433,2.0166v2.96387H40.727V39.61873c0-.66406-.2002-1.46972-1.04492-1.46972-.80078,0-1.23535.85449-1.23535,1.65527v2.70508h-.74219V39.5992c0-.67382-.19043-1.45019-1.02539-1.45019-.81055,0-1.24512.93262-1.24512,1.8164v2.544h-.7373Z"/><path d="M42.99266,37.63143H43.73v.75684a1.52917,1.52917,0,0,1,2.81738.16113,1.6181,1.6181,0,0,1,1.51856-1.02051c1.206,0,1.69433.93262,1.69433,2.0166v2.96387h-.7373V39.61873c0-.66406-.2002-1.46972-1.04492-1.46972-.80078,0-1.23536.85449-1.23536,1.65527v2.70508h-.74218V39.5992c0-.67382-.19043-1.45019-1.02539-1.45019-.81055,0-1.24512.93262-1.24512,1.8164v2.544h-.73731Z"/><path d="M50.84423,41.15194c0-.97656.76172-1.43067,2.14843-1.43067H54.106c0-.918-.3125-1.55761-1.19629-1.55761a1.60532,1.60532,0,0,0-1.35254.7373l-.53223-.415a2.16389,2.16389,0,0,1,1.84082-.957,1.79669,1.79669,0,0,1,1.90918,1.98731v2.99316h-.62012l-.01464-.94238a1.82117,1.82117,0,0,1-1.71387,1.04A1.43023,1.43023,0,0,1,50.84423,41.15194ZM54.106,40.273H53.061c-.96679,0-1.46484.249-1.46484.89844,0,.581.40527.82031.91309.82031A1.683,1.683,0,0,0,54.106,40.273Z"/><path d="M60.05809,43.26131c0,1.00586-.92773,1.48438-1.95312,1.48438-1.26953,0-2.10449-.73242-2.10449-1.66016A1.28666,1.28666,0,0,1,56.01513,42.9l.70312-.708a1.08167,1.08167,0,0,1-.62012-1.001.99791.99791,0,0,1,.35645-.80566,1.62545,1.62545,0,0,1-.41016-1.11328,1.70462,1.70462,0,0,1,1.82617-1.709,1.85522,1.85522,0,0,1,1.25977.4541l.73242-.66406.415.51758-.78613.62012a1.7614,1.7614,0,0,1,.18066.791,1.66123,1.66123,0,0,1-1.80176,1.67969,2.07911,2.07911,0,0,1-.918-.20508.46248.46248,0,0,0-.21.376c0,.50293.61036.64941,1.30372.74707C59.03759,42.01131,60.05809,42.1578,60.05809,43.26131Zm-.64941.05371c0-.625-.74219-.64941-1.57715-.791a4.94868,4.94868,0,0,1-.581-.12695l-.57617.70312c.00488.50293.542,1.001,1.48925,1.001C58.80809,44.10116,59.40868,43.84725,59.40868,43.315Zm-2.62207-4.05761a1.07688,1.07688,0,1,0,2.15332,0,1.07743,1.07743,0,1,0-2.15332,0Z"/><path d="M61.2495,35.61h.83008v.9375H61.2495Zm.05371,2.02148h.72266v4.87793h-.72266Z"/><path d="M63.67626,37.63143h.72754V38.481a1.75164,1.75164,0,0,1,1.57226-.9375c1.16211,0,1.63575.92773,1.63575,2.002v2.96387h-.72266V39.61873c0-.67382-.249-1.45507-1.1084-1.45507-.7666,0-1.37695.60058-1.37695,1.81152v2.53418h-.72754Z"/><path d="M68.69579,41.15194c0-.97656.76172-1.43067,2.14844-1.43067h1.11328c0-.918-.3125-1.55761-1.19629-1.55761a1.60535,1.60535,0,0,0-1.35254.7373l-.53223-.415a2.1639,2.1639,0,0,1,1.84082-.957,1.79669,1.79669,0,0,1,1.90918,1.98731v2.99316h-.62011l-.01465-.94238a1.82117,1.82117,0,0,1-1.71387,1.04A1.43023,1.43023,0,0,1,68.69579,41.15194Zm3.26172-.87891H70.91259c-.9668,0-1.46485.249-1.46485.89844,0,.581.40528.82031.91309.82031A1.68294,1.68294,0,0,0,71.95751,40.273Z"/><path d="M77.48485,38.232l-2.92969,3.65234h2.92969v.625H73.647V41.9576l2.9834-3.73047h-2.8418v-.5957h3.69629Z"/><path d="M78.64208,35.61h.83008v.9375h-.83008Zm.05371,2.02148h.72266v4.87793h-.72266Z"/><path d="M80.66845,40.05819a2.32135,2.32135,0,1,1,4.624,0,2.323,2.323,0,1,1-4.624,0Zm3.88671,0c0-.97656-.48828-1.92383-1.57226-1.92383s-1.582.94727-1.582,1.92383c0,.98633.498,1.94336,1.57226,1.94336C84.06688,42.00155,84.55516,41.025,84.55516,40.05819Z"/><path d="M86.5327,37.63143h.72754V38.481a1.75166,1.75166,0,0,1,1.57227-.9375c1.16211,0,1.63574.92773,1.63574,2.002v2.96387h-.72266V39.61873c0-.67382-.249-1.45507-1.10839-1.45507-.76661,0-1.377.60058-1.377,1.81152v2.53418H86.5327Z"/><path d="M91.62059,40.09725c0-1.30859.70313-2.53418,2.11915-2.53418,1.582,0,2.07031,1.25488,2.07031,2.37793,0,.127-.01465.28809-.02442.376H92.3872A1.44421,1.44421,0,0,0,93.813,41.93807a1.70465,1.70465,0,0,0,1.37207-.52246l.498.40039a2.3918,2.3918,0,0,1-1.86523.76172A2.21113,2.21113,0,0,1,91.62059,40.09725Zm3.49122-.376c-.01954-.78125-.3711-1.55761-1.37207-1.55761-.89356,0-1.31348.72754-1.35254,1.55761Z"/></g><path id="Rectangle_13361" data-name="Rectangle 13361" d="M5.14159,34.49077h11a4.95143,4.95143,0,0,1,5,5h0a4.95143,4.95143,0,0,1-5,5h-11a4.95143,4.95143,0,0,1-5-5h0A5.01453,5.01453,0,0,1,5.14159,34.49077Z" fill="#f36"/><g style="isolation:isolate"><path d="M512.52,35.34432h1.25976l1.99219,5.542,2.02149-5.542h1.25976v6.89941h-.7666V36.01327l-2.0752,5.62988h-.8496l-2.07032-5.62988v6.23046H512.52Z"/><path d="M520.52294,39.83163c0-1.3086.70312-2.53418,2.11914-2.53418,1.582,0,2.07031,1.25488,2.07031,2.37793,0,.127-.01465.28808-.02441.376h-3.39844a1.44422,1.44422,0,0,0,1.42578,1.6211,1.70463,1.70463,0,0,0,1.37207-.52247l.498.4004a2.39187,2.39187,0,0,1-1.86524.76171A2.21112,2.21112,0,0,1,520.52294,39.83163Zm3.49121-.376c-.01953-.78125-.37109-1.55762-1.37207-1.55762-.89356,0-1.31348.72754-1.35254,1.55762Z"/><path d="M526.14306,40.94979V37.96151h-.78125v-.5957h.78613V36.26717l.72265-.68359v1.78223H528.106v.5957h-1.23536v2.99316c0,.53711.26368.78614.62012.78614a1.1635,1.1635,0,0,0,.48828-.12208v.625a1.96592,1.96592,0,0,1-.65429.09766C526.46044,42.34139,526.14306,41.78475,526.14306,40.94979Z"/><path d="M528.81884,40.88631c0-.97656.76172-1.43066,2.14843-1.43066h1.11329c0-.918-.3125-1.55762-1.19629-1.55762a1.6053,1.6053,0,0,0-1.35254.73731l-.53223-.415a2.16389,2.16389,0,0,1,1.84082-.957,1.79668,1.79668,0,0,1,1.90918,1.9873v2.99316h-.62012l-.01464-.94238a1.82117,1.82117,0,0,1-1.71387,1.04A1.43023,1.43023,0,0,1,528.81884,40.88631Zm3.26172-.8789h-1.04493c-.96679,0-1.46484.249-1.46484.89843,0,.58106.40527.82032.91309.82032A1.683,1.683,0,0,0,532.08056,40.00741Z"/><path d="M534.49266,37.96151H533.604v-.5957h.89356v-.82032a1.225,1.225,0,0,1,1.31836-1.30371,1.825,1.825,0,0,1,.80078.18555l-.17578.58105a1.387,1.387,0,0,0-.57129-.15136c-.376,0-.64942.22949-.64942.72754v.78125h1.40137v.5957H535.2202v4.28222h-.72754Z"/><path d="M536.99755,39.79256a2.32135,2.32135,0,1,1,4.624,0,2.323,2.323,0,1,1-4.624,0Zm3.88672,0c0-.97656-.48828-1.92383-1.57227-1.92383s-1.582.94727-1.582,1.92383c0,.98633.49805,1.94336,1.57227,1.94336C540.396,41.73592,540.88427,40.75936,540.88427,39.79256Z"/><path d="M542.86181,37.36581h.72753v.86425a1.57165,1.57165,0,0,1,1.44043-.96679,1.26825,1.26825,0,0,1,.78614.2539l-.30762.62989a.88771.88771,0,0,0-.5957-.18555c-.83008,0-1.333.66894-1.333,1.8457v2.43652h-.71777Z"/><path d="M545.96727,39.83163c0-1.3086.70313-2.53418,2.11914-2.53418,1.582,0,2.07032,1.25488,2.07032,2.37793,0,.127-.01465.28808-.02442.376h-3.39843a1.44422,1.44422,0,0,0,1.42578,1.6211,1.70463,1.70463,0,0,0,1.37207-.52247l.498.4004a2.39183,2.39183,0,0,1-1.86523.76171A2.21112,2.21112,0,0,1,545.96727,39.83163Zm3.49122-.376c-.01954-.78125-.3711-1.55762-1.37208-1.55762-.89355,0-1.31347.72754-1.35253,1.55762Z"/></g><g style="isolation:isolate"><path d="M511.88915,62.47616l.72266-.21485a1.53669,1.53669,0,0,0,1.665,1.37207c.8252,0,1.39649-.40039,1.39649-1.23535,0-1.78222-3.3252-1.30859-3.3252-3.4082a1.758,1.758,0,0,1,1.87012-1.748,2.10081,2.10081,0,0,1,1.91406,1.07422l-.58105.39063a1.45406,1.45406,0,0,0-1.34277-.7959,1.03869,1.03869,0,0,0-1.1084,1.01074c0,1.54785,3.32519,1.19141,3.32519,3.418a1.98147,1.98147,0,0,1-2.15332,1.98242A2.24986,2.24986,0,0,1,511.88915,62.47616Z"/><path d="M517.6411,57.34432h.83008v.9375h-.83008Zm.05371,2.02149h.72266v4.87792h-.72266Z"/><path d="M520.06786,59.36581h.7373v.75683a1.52919,1.52919,0,0,1,2.81739.16113,1.6181,1.6181,0,0,1,1.51855-1.0205c1.20606,0,1.69434.93261,1.69434,2.0166v2.96386h-.73731V61.35311c0-.66406-.20019-1.46973-1.04492-1.46973-.80078,0-1.23535.8545-1.23535,1.65528v2.70507h-.74219V61.33358c0-.67383-.19043-1.4502-1.02539-1.4502-.81054,0-1.24512.93262-1.24512,1.81641v2.54394h-.7373Z"/><path d="M528.31981,57.34432h.83008v.9375h-.83008Zm.05371,2.02149h.72266v4.87792h-.72266Z"/><path d="M532.18212,63.6578v.58593a2.38144,2.38144,0,0,1-.65918.09766c-.73731,0-.791-.49805-.791-1.084V57.34432h.73731v6.084c0,.01464.01953.27832.23926.27832A2.89163,2.89163,0,0,0,532.18212,63.6578Z"/><path d="M533.23192,57.34432h.83008v.9375h-.83008Zm.05371,2.02149h.72266v4.87792h-.72266Z"/><path d="M535.83446,62.94979V59.96151h-.78125v-.5957h.78613V58.26717l.72266-.68359v1.78223h1.23535v.5957H536.562v2.99316c0,.53711.26367.78614.62012.78614a1.16354,1.16354,0,0,0,.48828-.12208v.625a1.966,1.966,0,0,1-.6543.09766C536.15184,64.34139,535.83446,63.78475,535.83446,62.94979Z"/><path d="M538.83251,62.19784v-2.832h.72754v2.88085c0,.70313.19043,1.48926,1.02539,1.48926a1.5665,1.5665,0,0,0,1.45508-1.66992V59.36581h.72265v4.87792h-.72265v-.82519a1.73606,1.73606,0,0,1-1.53321.93262C539.30614,64.35116,538.83251,63.41366,538.83251,62.19784Z"/><path d="M548.227,57.34432v6.89941h-.708l-.01465-.67871a1.73417,1.73417,0,0,1-1.52832.77637c-1.25,0-1.958-1.14746-1.958-2.53906,0-1.39649.708-2.53906,1.95312-2.53906a1.74624,1.74624,0,0,1,1.52832.7666V57.34432Zm-.66895,4.458c0-.98633-.40039-1.92383-1.39648-1.92383-.97656,0-1.39648.9375-1.39648,1.92383,0,.99609.41992,1.92383,1.39648,1.92383C547.1577,63.72616,547.55809,62.80331,547.55809,61.80233Z"/><path d="M549.83837,57.34432h.83008v.9375h-.83008Zm.05371,2.02149h.72266v4.87792h-.72266Z"/><path d="M552.26513,59.36581h.72753v.8496a1.75168,1.75168,0,0,1,1.57227-.9375c1.16211,0,1.63574.92774,1.63574,2.002v2.96386H555.478V61.35311c0-.67383-.249-1.45508-1.1084-1.45508-.7666,0-1.377.60059-1.377,1.81153v2.53417h-.72753Z"/><path d="M557.68505,57.34432h.83008v.9375h-.83008Zm.05371,2.02149h.72265v4.87792h-.72265Z"/></g><path id="Rectangle_13359" data-name="Rectangle 13359" d="M485.2,34.29077h11a4.95144,4.95144,0,0,1,5,5h0a4.95144,4.95144,0,0,1-5,5h-11a4.95144,4.95144,0,0,1-5-5h0A5.01454,5.01454,0,0,1,485.2,34.29077Z" fill="#f299c1"/><path id="Rectangle_13360" data-name="Rectangle 13360" d="M485.2,56.29077h11a4.95144,4.95144,0,0,1,5,5h0a4.95144,4.95144,0,0,1-5,5h-11a4.95144,4.95144,0,0,1-5-5h0A5.01454,5.01454,0,0,1,485.2,56.29077Z" fill="#9ff"/><g style="isolation:isolate"><path d="M629.01806,35.34432h1.75781a3.14735,3.14735,0,0,1,3.48144,3.501c0,2.17285-1.26465,3.39843-3.49121,3.39843h-1.748Zm1.63085,6.19141a2.55251,2.55251,0,0,0,2.832-2.74414,2.44094,2.44094,0,0,0-2.72461-2.75391h-.96192v5.498Z"/><path d="M635.54638,40.19784v-2.832h.72753v2.88085c0,.70313.19043,1.48926,1.0254,1.48926a1.56649,1.56649,0,0,0,1.45507-1.66992V37.36581h.72266v4.87792h-.72266v-.82519a1.736,1.736,0,0,1-1.5332.93262C636.02,42.35116,635.54638,41.41366,635.54638,40.19784Z"/><path d="M641.85985,41.57967v.66406h-.72754V35.34432h.72754v2.68555a1.74709,1.74709,0,0,1,1.51367-.7666c1.27442,0,1.96778,1.14746,1.96778,2.53906s-.69336,2.53906-1.96289,2.53906A1.74744,1.74744,0,0,1,641.85985,41.57967Zm2.75391-1.77734c0-.98633-.44434-1.92383-1.42578-1.92383-.97657,0-1.3916.9375-1.3916,1.92383,0,.99609.415,1.92383,1.3916,1.92383C644.16942,41.72616,644.61376,40.79842,644.61376,39.80233Z"/><path d="M647.36766,41.57967v.66406h-.72753V35.34432h.72753v2.68555a1.74711,1.74711,0,0,1,1.51368-.7666c1.27441,0,1.96777,1.14746,1.96777,2.53906s-.69336,2.53906-1.96289,2.53906A1.74744,1.74744,0,0,1,647.36766,41.57967Zm2.75391-1.77734c0-.98633-.44433-1.92383-1.42578-1.92383-.97656,0-1.3916.9375-1.3916,1.92383,0,.99609.415,1.92383,1.3916,1.92383C649.67724,41.72616,650.12157,40.79842,650.12157,39.80233Z"/><path d="M652.09423,35.34432h.83008v.9375h-.83008Zm.05371,2.02149h.72265v4.87792h-.72265Z"/><path d="M656.63036,38.86483h2.50488v.55664h-2.50488Z"/><path d="M662.8413,35.34432h.83008v.9375h-.83008Zm.05371,2.02149h.72265v4.87792H662.895Z"/><path d="M665.26806,37.36581h.72753v.8496a1.75168,1.75168,0,0,1,1.57227-.9375c1.16211,0,1.63574.92774,1.63574,2.002v2.96386H668.481V39.35311c0-.67383-.249-1.45508-1.1084-1.45508-.7666,0-1.377.60059-1.377,1.81153v2.53417h-.72753Z"/><path d="M670.9077,40.94979V37.96151h-.78125v-.5957h.78614V36.26717l.72265-.68359v1.78223h1.23535v.5957h-1.23535v2.99316c0,.53711.26367.78614.62012.78614a1.16354,1.16354,0,0,0,.48828-.12208v.625a1.96594,1.96594,0,0,1-.6543.09766C671.22509,42.34139,670.9077,41.78475,670.9077,40.94979Z"/><path d="M673.603,39.83163c0-1.3086.70312-2.53418,2.11914-2.53418,1.582,0,2.07031,1.25488,2.07031,2.37793,0,.127-.01465.28808-.02441.376h-3.39844a1.44422,1.44422,0,0,0,1.42578,1.6211,1.70463,1.70463,0,0,0,1.37207-.52247l.49805.4004a2.39187,2.39187,0,0,1-1.86524.76171A2.21112,2.21112,0,0,1,673.603,39.83163Zm3.49121-.376c-.01953-.78125-.3711-1.55762-1.37207-1.55762-.89356,0-1.31348.72754-1.35254,1.55762Z"/><path d="M679.04735,37.36581h.72754v.86425a1.57165,1.57165,0,0,1,1.44043-.96679,1.26819,1.26819,0,0,1,.78613.2539l-.30761.62989a.88774.88774,0,0,0-.59571-.18555c-.83007,0-1.333.66894-1.333,1.8457v2.43652h-.71778Z"/><path d="M682.939,37.36581h.72754v.86425a1.57165,1.57165,0,0,1,1.44043-.96679,1.26825,1.26825,0,0,1,.78614.2539l-.30762.62989a.88771.88771,0,0,0-.5957-.18555c-.83008,0-1.333.66894-1.333,1.8457v2.43652H682.939Z"/><path d="M686.02,39.79256a2.32135,2.32135,0,1,1,4.624,0,2.323,2.323,0,1,1-4.624,0Zm3.88672,0c0-.97656-.48828-1.92383-1.57227-1.92383s-1.582.94727-1.582,1.92383c0,.98633.49805,1.94336,1.57227,1.94336C689.41845,41.73592,689.90673,40.75936,689.90673,39.79256Z"/><path d="M695.64891,42.99569c0,1.00586-.92773,1.48437-1.95312,1.48437-1.26953,0-2.10449-.73242-2.10449-1.66015a1.28655,1.28655,0,0,1,.01465-.18555l.70312-.708a1.08166,1.08166,0,0,1-.62012-1.001.99793.99793,0,0,1,.35645-.80567,1.62542,1.62542,0,0,1-.41016-1.11328,1.70461,1.70461,0,0,1,1.82617-1.709,1.85517,1.85517,0,0,1,1.25977.4541l.73242-.66407.415.51758-.78613.62012a1.76148,1.76148,0,0,1,.18066.791,1.66123,1.66123,0,0,1-1.80176,1.67968,2.07925,2.07925,0,0,1-.918-.20507.46246.46246,0,0,0-.21.376c0,.50293.61035.64942,1.30371.74707C694.62841,41.74569,695.64891,41.89217,695.64891,42.99569Zm-.64941.05371c0-.625-.74219-.64942-1.57715-.791a4.94868,4.94868,0,0,1-.58105-.127l-.57617.70313c.00488.50292.542,1.001,1.48925,1.001C694.39891,43.83553,694.9995,43.58163,694.9995,43.0494Zm-2.62207-4.05762a1.07688,1.07688,0,1,0,2.15332,0,1.07743,1.07743,0,1,0-2.15332,0Z"/><path d="M696.3911,40.88631c0-.97656.76172-1.43066,2.14844-1.43066h1.11328c0-.918-.3125-1.55762-1.19629-1.55762a1.60533,1.60533,0,0,0-1.35254.73731l-.53222-.415a2.16388,2.16388,0,0,1,1.84082-.957,1.79669,1.79669,0,0,1,1.90918,1.9873v2.99316h-.62012l-.01465-.94238a1.82116,1.82116,0,0,1-1.71387,1.04A1.43023,1.43023,0,0,1,696.3911,40.88631Zm3.26172-.8789H698.6079c-.9668,0-1.46484.249-1.46484.89843,0,.58106.40527.82032.91308.82032A1.68294,1.68294,0,0,0,699.65282,40.00741Z"/><path d="M702.00634,40.94979V37.96151h-.78125v-.5957h.78613V36.26717l.72266-.68359v1.78223h1.23535v.5957h-1.23535v2.99316c0,.53711.26367.78614.62011.78614a1.16347,1.16347,0,0,0,.48828-.12208v.625a1.96592,1.96592,0,0,1-.65429.09766C702.32372,42.34139,702.00634,41.78475,702.00634,40.94979Z"/><path d="M705.08251,35.34432h.83008v.9375h-.83008Zm.05371,2.02149h.72266v4.87792h-.72266Z"/><path d="M706.86474,37.36581h.79589l1.34766,3.93066,1.35742-3.93066h.78125l-1.8164,4.87792H708.686Z"/><path d="M712.09911,35.34432h.83008v.9375h-.83008Zm.05371,2.02149h.72266v4.87792h-.72266Z"/></g><g style="isolation:isolate"><path d="M628.28954,57.34432h.81055l2.124,5.874,2.124-5.874h.791l-2.583,6.89941h-.66406Z"/><path d="M635.22313,57.34432h.83008v.9375h-.83008Zm.05371,2.02149h.72266v4.87792h-.72266Z"/><path d="M637.18114,63.13534l.61524-.31739a1.23741,1.23741,0,0,0,1.21582.92774c.55175,0,.957-.27832.957-.80567,0-1.31347-2.59278-.66894-2.59278-2.32421a1.39215,1.39215,0,0,1,1.54786-1.35254,1.733,1.733,0,0,1,1.60156.97168l-.53711.30761a1.14985,1.14985,0,0,0-1.08887-.68847c-.52734,0-.85449.27343-.85449.67382,0,1.123,2.63184.53223,2.63184,2.32422a1.52123,1.52123,0,0,1-1.67481,1.48926A1.89279,1.89279,0,0,1,637.18114,63.13534Z"/><path d="M641.84423,57.34432h.83008v.9375h-.83008Zm.05371,2.02149h.72265v4.87792h-.72265Z"/><path d="M643.87059,61.79256a2.32135,2.32135,0,1,1,4.624,0,2.323,2.323,0,1,1-4.624,0Zm3.88672,0c0-.97656-.48828-1.92383-1.57226-1.92383s-1.582.94727-1.582,1.92383c0,.98633.498,1.94336,1.57226,1.94336C647.269,63.73592,647.75731,62.75936,647.75731,61.79256Z"/><path d="M649.73485,59.36581h.72754v.8496a1.75168,1.75168,0,0,1,1.57227-.9375c1.16211,0,1.63574.92774,1.63574,2.002v2.96386h-.72266V61.35311c0-.67383-.249-1.45508-1.1084-1.45508-.7666,0-1.37695.60059-1.37695,1.81153v2.53417h-.72754Z"/><path d="M655.15477,57.34432h.83008v.9375h-.83008Zm.05372,2.02149h.72265v4.87792h-.72265Z"/><path d="M659.69091,60.86483h2.50488v.55664h-2.50488Z"/><path d="M669.80321,57.34432v6.89941h-.708l-.01464-.67871a1.73419,1.73419,0,0,1-1.52832.77637c-1.25,0-1.958-1.14746-1.958-2.53906,0-1.39649.708-2.53906,1.95312-2.53906a1.74624,1.74624,0,0,1,1.52832.7666V57.34432Zm-.66894,4.458c0-.98633-.40039-1.92383-1.39649-1.92383-.97656,0-1.39648.9375-1.39648,1.92383,0,.99609.41992,1.92383,1.39648,1.92383C668.73388,63.72616,669.13427,62.80331,669.13427,61.80233Z"/><path d="M671.08251,61.83163c0-1.3086.70312-2.53418,2.11914-2.53418,1.582,0,2.07031,1.25488,2.07031,2.37793,0,.127-.01465.28808-.02441.376h-3.39844a1.44422,1.44422,0,0,0,1.42578,1.6211A1.70463,1.70463,0,0,0,674.647,63.15l.498.4004a2.39187,2.39187,0,0,1-1.86524.76171A2.21112,2.21112,0,0,1,671.08251,61.83163Zm3.49121-.376c-.01953-.78125-.37109-1.55762-1.37207-1.55762-.89356,0-1.31348.72754-1.35254,1.55762Z"/><path d="M676.05809,63.13534l.61524-.31739a1.23742,1.23742,0,0,0,1.21582.92774c.55176,0,.957-.27832.957-.80567,0-1.31347-2.59277-.66894-2.59277-2.32421a1.39214,1.39214,0,0,1,1.54785-1.35254,1.733,1.733,0,0,1,1.60156.97168l-.53711.30761a1.14984,1.14984,0,0,0-1.08887-.68847c-.52734,0-.85449.27343-.85449.67382,0,1.123,2.63184.53223,2.63184,2.32422a1.52123,1.52123,0,0,1-1.67481,1.48926A1.89279,1.89279,0,0,1,676.05809,63.13534Z"/><path d="M680.72118,57.34432h.83008v.9375h-.83008Zm.05371,2.02149h.72266v4.87792h-.72266Z"/><path d="M687.00536,57.34432v6.89941h-.708l-.01465-.67871a1.73417,1.73417,0,0,1-1.52832.77637c-1.25,0-1.958-1.14746-1.958-2.53906,0-1.39649.708-2.53906,1.95312-2.53906a1.74624,1.74624,0,0,1,1.52832.7666V57.34432Zm-.66895,4.458c0-.98633-.40039-1.92383-1.39648-1.92383-.97656,0-1.39648.9375-1.39648,1.92383,0,.99609.41992,1.92383,1.39648,1.92383C685.936,63.72616,686.33641,62.80331,686.33641,61.80233Z"/><path d="M688.28466,61.83163c0-1.3086.70312-2.53418,2.11914-2.53418,1.582,0,2.07031,1.25488,2.07031,2.37793,0,.127-.01465.28808-.02441.376h-3.39844a1.44422,1.44422,0,0,0,1.42578,1.6211,1.70463,1.70463,0,0,0,1.37207-.52247l.49805.4004a2.39187,2.39187,0,0,1-1.86524.76171A2.21112,2.21112,0,0,1,688.28466,61.83163Zm3.49121-.376c-.01953-.78125-.3711-1.55762-1.37207-1.55762-.89356,0-1.31348.72754-1.35254,1.55762Z"/><path d="M693.729,59.36581h.72754v.86425a1.57165,1.57165,0,0,1,1.44043-.96679,1.26819,1.26819,0,0,1,.78613.2539l-.30761.62989a.88774.88774,0,0,0-.59571-.18555c-.83007,0-1.333.66894-1.333,1.8457v2.43652H693.729Z"/><path d="M697.57665,57.34432h.83008v.9375h-.83008Zm.05371,2.02149h.72266v4.87792h-.72266Z"/></g><path id="Rectangle_13359-2" data-name="Rectangle 13359" d="M601.7,34.29077h11a4.95144,4.95144,0,0,1,5,5h0a4.95144,4.95144,0,0,1-5,5h-11a4.95144,4.95144,0,0,1-5-5h0A5.01452,5.01452,0,0,1,601.7,34.29077Z" fill="#fc6"/><path id="Rectangle_13360-2" data-name="Rectangle 13360" d="M601.7,56.29077h11a4.95144,4.95144,0,0,1,5,5h0a4.95144,4.95144,0,0,1-5,5h-11a4.95144,4.95144,0,0,1-5-5h0A5.01452,5.01452,0,0,1,601.7,56.29077Z" fill="#fbfb97"/></g><path d="M242.4,56.29077a5,5,0,1,1,0,10,5.08079,5.08079,0,0,1-5-5,5.01452,5.01452,0,0,1,5-5m0-.7a5.7,5.7,0,1,0,5.7,5.7,5.76264,5.76264,0,0,0-5.7-5.7Z" fill="#f299c1"/></g></svg>