<svg xmlns="http://www.w3.org/2000/svg" xmlns:xlink="http://www.w3.org/1999/xlink" width="938" height="105.29" viewBox="0 0 938 105.29">
  <defs>
    <clipPath id="clip-path">
      <rect id="SVGID" width="11.6" height="11.6" transform="translate(236.6 -103.869)" fill="none"/>
    </clipPath>
    <clipPath id="clip-path-2">
      <rect id="SVGID-2" data-name="SVGID" width="11.61" height="11.61" transform="translate(236.521 -103.748)" fill="none"/>
    </clipPath>
    <clipPath id="clip-Legend02">
      <rect width="938" height="105.29"/>
    </clipPath>
  </defs>
  <g id="Legend02" clip-path="url(#clip-Legend02)">
    <g id="legend" transform="translate(0.2 137.196)">
      <g id="Group_24470" data-name="Group 24470">
        <text id="LUOGHI_E_PERSONAGGI" data-name="LUOGHI E PERSONAGGI" transform="translate(237.044 -113.395)" fill="#5151fc" font-size="10" font-family="HKGrotesk-Bold, HK Grotesk" font-weight="700" style="isolation: isolate"><tspan x="0" y="0">LUOGHI E PERSONAGGI</tspan></text>
      </g>
      <g id="Group_24471" data-name="Group 24471">
        <text id="Personaggio_immaginario" data-name="Personaggio immaginario" transform="translate(260.274 -94.383)" fill="#4500ff" font-size="10" font-family="HKGrotesk-Italic, HK Grotesk" font-style="italic" style="isolation: isolate"><tspan x="0" y="0">Personaggio immaginario</tspan></text>
      </g>
      <g id="Group_24472" data-name="Group 24472">
        <text id="Metafore_e_similitudini_animali" data-name="Metafore e similitudini animali" transform="translate(259.239 -72.383)" font-size="10" font-family="HKGrotesk-Regular, HK Grotesk" style="isolation: isolate"><tspan x="0" y="0">Metafore e similitudini animali</tspan></text>
      </g>
      <text id="TIPOLOGIA_SEQUENZA_NARRATIVA" data-name="TIPOLOGIA SEQUENZA NARRATIVA" transform="translate(0.044 -113.395)" fill="#5151fc" font-size="10" font-family="HKGrotesk-Bold, HK Grotesk" font-weight="700" style="isolation: isolate"><tspan x="0" y="0">TIPOLOGIA SEQUENZA NARRATIVA</tspan></text>
      <g id="Group_24473" data-name="Group 24473">
        <text id="FIGURE_RETORICHE" data-name="FIGURE RETORICHE" transform="translate(474.933 -113.395)" fill="#5151fc" font-size="10" font-family="HKGrotesk-Bold, HK Grotesk" font-weight="700" style="isolation: isolate"><tspan x="0" y="0">FIGURE RETORICHE</tspan></text>
      </g>
      <line id="Line_7911" data-name="Line 7911" x2="938" transform="translate(0 -136.402)" fill="none" stroke="#5151fc" stroke-miterlimit="10" stroke-width="0.5"/>
      <rect id="Rectangle_50" data-name="Rectangle 50" width="938" height="104.4" transform="translate(-0.2 -136.202)" fill="none"/>
      <text id="Immaginazione" transform="translate(31.035 -94.383)" font-size="10" font-family="HKGrotesk-Regular, HK Grotesk" style="isolation: isolate"><tspan x="0" y="0">Immaginazione</tspan></text>
      <path id="Rectangle_13361" data-name="Rectangle 13361" d="M5.142-102.4h11a4.951,4.951,0,0,1,5,5h0a4.951,4.951,0,0,1-5,5h-11a4.951,4.951,0,0,1-5-5h0A5.015,5.015,0,0,1,5.142-102.4Z" fill="#f36"/>
      <text id="Metafore" transform="translate(511.485 -94.649)" font-size="10" font-family="HKGrotesk-Regular, HK Grotesk" style="isolation: isolate"><tspan x="0" y="0">Metafore</tspan></text>
      <text id="Similitudini" transform="translate(511.484 -72.649)" font-size="10" font-family="HKGrotesk-Regular, HK Grotesk" style="isolation: isolate"><tspan x="0" y="0">Similitudini</tspan></text>
      <path id="Rectangle_13359" data-name="Rectangle 13359" d="M485.2-102.6h11a4.951,4.951,0,0,1,5,5h0a4.951,4.951,0,0,1-5,5h-11a4.951,4.951,0,0,1-5-5h0A5.015,5.015,0,0,1,485.2-102.6Z" fill="#f299c1"/>
      <path id="Rectangle_13360" data-name="Rectangle 13360" d="M485.2-80.6h11a4.951,4.951,0,0,1,5,5h0a4.951,4.951,0,0,1-5,5h-11a4.951,4.951,0,0,1-5-5h0A5.015,5.015,0,0,1,485.2-80.6Z" fill="#9ff"/>
      <text id="Interrogativi_e_dubbio" data-name="Interrogativi e dubbio" transform="translate(627.983 -94.649)" font-size="10" font-family="HKGrotesk-Regular, HK Grotesk" style="isolation: isolate"><tspan x="0" y="0">Interrogativi e dubbio</tspan></text>
      <text id="Visioni_e_desideri" data-name="Visioni e desideri" transform="translate(627.982 -72.649)" font-size="10" font-family="HKGrotesk-Regular, HK Grotesk" style="isolation: isolate"><tspan x="0" y="0">Visioni e desideri</tspan></text>
      <path id="Rectangle_13359-2" data-name="Rectangle 13359" d="M601.7-102.6h11a4.951,4.951,0,0,1,5,5h0a4.951,4.951,0,0,1-5,5h-11a4.951,4.951,0,0,1-5-5h0A5.015,5.015,0,0,1,601.7-102.6Z" fill="#fc6"/>
      <path id="Rectangle_13360-2" data-name="Rectangle 13360" d="M601.7-80.6h11a4.951,4.951,0,0,1,5,5h0a4.951,4.951,0,0,1-5,5h-11a4.951,4.951,0,0,1-5-5h0A5.015,5.015,0,0,1,601.7-80.6Z" fill="#fbfb97"/>
    </g>
    <g id="Group_24474" data-name="Group 24474" transform="translate(0.2 137.196)">
      <path id="Path_153173" data-name="Path 153173" d="M242.4-80.6m0-.7a5.763,5.763,0,0,0-5.7,5.7,5.763,5.763,0,0,0,5.7,5.7,5.763,5.763,0,0,0,5.7-5.7,5.763,5.763,0,0,0-5.7-5.7Z" fill="none" stroke="#f299c1" stroke-width="2"/>
    </g>
    <g id="Group_24481" data-name="Group 24481" transform="translate(0.2 137.196)">
      <g id="Group_24480" data-name="Group 24480">
        <g id="Group_24479" data-name="Group 24479" clip-path="url(#clip-path)">
          <g id="Group_24478" data-name="Group 24478">
            <g id="Group_24477" data-name="Group 24477">
              <g id="Group_24476" data-name="Group 24476" clip-path="url(#clip-path-2)">
                <g id="Group_24475" data-name="Group 24475">
                  <circle id="Ellipse_33594" data-name="Ellipse 33594" cx="5.49" cy="5.49" r="5.49" transform="translate(236.881 -103.478)" fill="#5151fc" stroke="#fff" stroke-miterlimit="10" stroke-width="0.75"/>
                  <rect id="Rectangle_19346" data-name="Rectangle 19346" width="3.24" height="6.57" transform="translate(241.381 -100.778)" fill="none"/>
                  <text id="i" transform="translate(241.367 -95.35)" fill="#fff" font-size="7.796" font-family="HKGrotesk-Bold, HK Grotesk" font-weight="700" style="isolation: isolate"><tspan x="0" y="0">i</tspan></text>
                </g>
              </g>
            </g>
          </g>
        </g>
      </g>
    </g>
    <path id="Path_157358" data-name="Path 157358" d="M2321.947,5300.833v10.579" transform="translate(-1729 -5244)" fill="none" stroke="#000" stroke-width="1"/>
  </g>
</svg>
