<?xml version="1.0" encoding="utf-8"?>
<!-- Generator: Adobe Illustrator 24.3.0, SVG Export Plug-In . SVG Version: 6.00 Build 0)  -->
<svg version="1.1" id="legend" xmlns="http://www.w3.org/2000/svg" xmlns:xlink="http://www.w3.org/1999/xlink" x="0px" y="0px"
	 viewBox="0 0 938 104.4" style="enable-background:new 0 0 938 104.4;" xml:space="preserve">
<style type="text/css">
	.st0{font-family:'HKGrotesk-Regular';}
	.st1{font-size:10px;}
	.st2{fill:#00BFD3;}
	.st3{fill:#BBBBFF;}
	.st4{fill:#FF3366;}
	.st5{fill:#5151FC;}
	.st6{font-family:'HKGrotesk-Bold';}
	.st7{fill:#4500FF;}
	.st8{font-family:'HKGrotesk-Italic';}
	.st9{fill:none;stroke:#5151FC;stroke-width:0.5;stroke-miterlimit:10;}
	.st10{fill:none;}
</style>
<text transform="matrix(1 0 0 1 31.236 41.8188)" class="st0 st1">Realtá</text>
<text transform="matrix(1 0 0 1 31.235 63.8188)" class="st0 st1">Contestualizzazione</text>
<text transform="matrix(1 0 0 1 31.235 85.8188)" class="st0 st1">Immaginazione</text>
<path id="Rectangle_13359_1_" class="st2" d="M5,33.8h11c2.8,0,5,2.2,5,5l0,0c0,2.8-2.2,5-5,5H5c-2.8,0-5-2.2-5-5l0,0
	C0,36.1,2.2,33.8,5,33.8z"/>
<path id="Rectangle_13360_1_" class="st3" d="M5,55.8h11c2.8,0,5,2.2,5,5l0,0c0,2.8-2.2,5-5,5H5c-2.8,0-5-2.2-5-5l0,0
	C0,58.1,2.2,55.8,5,55.8z"/>
<path id="Rectangle_13361_1_" class="st4" d="M5,77.8h11c2.8,0,5,2.2,5,5l0,0c0,2.8-2.2,5-5,5H5c-2.8,0-5-2.2-5-5l0,0
	C0,80.1,2.2,77.8,5,77.8z"/>
<g>
	<text transform="matrix(1 0 0 1 237.244 22.8068)" class="st5 st6 st1">ELEMENTI</text>
</g>
<g>
	<text transform="matrix(1 0 0 1 237.244 41.819)" class="st0 st1">Personaggi reali</text>
</g>
<g>
	<text transform="matrix(1 0 0 1 237.244 63.819)" class="st7 st8 st1">Personaggi immaginari</text>
</g>
<g>
	<text transform="matrix(1 0 0 1 237.244 85.819)" class="st6 st1">Luoghi geografici localizzabili su mappa</text>
</g>
<text transform="matrix(1 0 0 1 0.244 22.8068)" class="st5 st6 st1">TIPOLOGIA SEQUENZA NARRATIVA</text>
<line class="st9" x1="0" y1="0.6" x2="938" y2="0.6"/>
<rect id="Rectangle_50" y="0" class="st10" width="938" height="104.4"/>
</svg>
