<svg xmlns="http://www.w3.org/2000/svg" xmlns:xlink="http://www.w3.org/1999/xlink" width="938" height="105.29" viewBox="0 0 938 105.29">
  <defs>
    <clipPath id="clip-path">
      <rect id="SVGID" width="11.6" height="11.6" transform="translate(236.6 -103.869)" fill="none"/>
    </clipPath>
    <clipPath id="clip-path-2">
      <rect id="SVGID-2" data-name="SVGID" width="11.61" height="11.61" transform="translate(236.521 -103.748)" fill="none"/>
    </clipPath>
    <clipPath id="clip-Legend02_en">
      <rect width="938" height="105.29"/>
    </clipPath>
  </defs>
  <g id="Legend02_en" clip-path="url(#clip-Legend02_en)">
    <g id="legend" transform="translate(0.2 137.196)">
      <g id="Group_24471" data-name="Group 24471" transform="translate(8.053)">
        <path id="Path_161948" data-name="Path 161948" d="M.474,0H1.25L2.842-6.9H2.065ZM3.105,0h.732l.635-2.749a1.918,1.918,0,0,1,1.665-1.6c.815,0,.806.728.649,1.4L6.113,0h.737l.63-2.749a1.923,1.923,0,0,1,1.66-1.6c.82,0,.815.757.664,1.421L9.131,0h.737l.679-2.93C10.8-4.014,10.5-4.961,9.258-4.961a2.044,2.044,0,0,0-1.709.981,1.146,1.146,0,0,0-1.3-.991,1.781,1.781,0,0,0-1.484.9l.2-.806H4.224ZM15.64-4.878l-.176.688a1.382,1.382,0,0,0-1.382-.791A2.831,2.831,0,0,0,11.611-2.51C11.284-1.084,11.748.1,13.027.1a2.156,2.156,0,0,0,1.631-.713L14.536,0h.713l1.118-4.878ZM15.151-2.51c-.234,1.035-.869,1.943-1.9,1.943-.947,0-1.147-.845-.918-1.8.229-1.025.884-1.938,1.895-1.938C15.2-4.307,15.371-3.462,15.151-2.51ZM20.742.034l1.143-4.912h-.737l-.171.7a1.391,1.391,0,0,0-1.353-.8,2.813,2.813,0,0,0-2.5,2.461c-.327,1.426.122,2.6,1.45,2.6A2.172,2.172,0,0,0,20.19-.664l-.161.63A1.793,1.793,0,0,1,18.3,1.484,1.105,1.105,0,0,1,17.148.767l-.625.356a1.735,1.735,0,0,0,1.738.991A2.435,2.435,0,0,0,20.742.034Zm-1.973-.6c-.957,0-1.152-.864-.923-1.812.225-1.021.894-1.953,1.909-1.953.957,0,1.123.869.908,1.812C20.435-1.5,19.79-.566,18.77-.566Zm4.976-5.4h.845L24.8-6.9h-.84ZM22.422,0h.737l1.123-4.878H23.54ZM24.8,0h.728l.635-2.739a2.066,2.066,0,0,1,1.846-1.528c.815,0,.82.679.674,1.343L28.013,0h.732l.674-2.93c.249-1.084-.029-2.031-1.27-2.031a2.255,2.255,0,0,0-1.675.82l.181-.737h-.732Zm9.707-4.878-.176.688a1.382,1.382,0,0,0-1.382-.791A2.831,2.831,0,0,0,30.483-2.51C30.156-1.084,30.62.1,31.9.1A2.156,2.156,0,0,0,33.53-.615L33.408,0h.713l1.118-4.878ZM34.023-2.51c-.234,1.035-.869,1.943-1.9,1.943-.947,0-1.147-.845-.918-1.8.229-1.025.884-1.938,1.895-1.938C34.067-4.307,34.243-3.462,34.023-2.51ZM35.776,0h.732l.527-2.275c.234-1.016.933-1.982,1.792-1.982a1.143,1.143,0,0,1,.605.176l.356-.62a1.365,1.365,0,0,0-.82-.249,1.852,1.852,0,0,0-1.528.913l.19-.84h-.737ZM39.7,2.1h.786l4.224-6.978H43.9L41.582-.889l-.493-3.989h-.8l.752,4.854Zm9.36-2a2.4,2.4,0,0,0,2.08-1.26L50.566-1.5a1.71,1.71,0,0,1-1.489.981c-.991,0-1.074-.981-.884-1.836.21-.918.835-1.978,1.88-1.978a.872.872,0,0,1,.952.913l.728-.229a1.58,1.58,0,0,0-1.646-1.309A2.9,2.9,0,0,0,47.48-2.5C47.173-1.143,47.627.1,49.063.1ZM52.031,0h.723l.605-2.637a2.145,2.145,0,0,1,1.9-1.636c.8,0,.8.684.649,1.348L55.239,0h.737l.684-2.974c.239-1.04-.044-1.987-1.235-1.987a2.358,2.358,0,0,0-1.743.85L54.341-6.9h-.723Zm9.712-4.878-.176.688a1.382,1.382,0,0,0-1.382-.791A2.831,2.831,0,0,0,57.715-2.51C57.388-1.084,57.852.1,59.131.1a2.156,2.156,0,0,0,1.631-.713L60.64,0h.713l1.118-4.878ZM61.255-2.51c-.234,1.035-.869,1.943-1.9,1.943-.947,0-1.147-.845-.918-1.8.229-1.025.884-1.938,1.895-1.938C61.3-4.307,61.475-3.462,61.255-2.51ZM63.008,0h.732l.527-2.275c.234-1.016.933-1.982,1.792-1.982a1.143,1.143,0,0,1,.605.176l.356-.62a1.365,1.365,0,0,0-.82-.249,1.852,1.852,0,0,0-1.528.913l.19-.84h-.737Zm8.135-4.878-.176.688a1.382,1.382,0,0,0-1.382-.791A2.831,2.831,0,0,0,67.114-2.51C66.787-1.084,67.251.1,68.53.1a2.156,2.156,0,0,0,1.631-.713L70.039,0h.713L71.87-4.878ZM70.654-2.51c-.234,1.035-.869,1.943-1.9,1.943-.947,0-1.147-.845-.918-1.8.229-1.025.884-1.938,1.895-1.938C70.7-4.307,70.874-3.462,70.654-2.51ZM74.185.1a2.4,2.4,0,0,0,2.08-1.26L75.688-1.5A1.71,1.71,0,0,1,74.2-.522c-.991,0-1.074-.981-.884-1.836.21-.918.835-1.978,1.88-1.978a.872.872,0,0,1,.952.913l.728-.229a1.58,1.58,0,0,0-1.646-1.309A2.9,2.9,0,0,0,72.6-2.5C72.295-1.143,72.749.1,74.185.1ZM78.53.1A2.194,2.194,0,0,0,79.18.01l.093-.649a1.414,1.414,0,0,1-.552.137c-.327,0-.527-.215-.4-.752l.7-3.027h1.245l.137-.6h-1.25l.41-1.782-.889.684-.249,1.1h-.767l-.137.6h.767l-.684,2.954C77.417-.493,77.637.1,78.53.1ZM82.246.059a2.925,2.925,0,0,0,2-.728L83.8-1.118a2.12,2.12,0,0,1-1.528.532c-.913,0-1.206-.708-1-1.572h3.4c.02-.054.049-.151.049-.151.322-1.353.1-2.632-1.523-2.632A2.883,2.883,0,0,0,80.586-2.48C80.269-1.074,80.762.059,82.246.059Zm-.835-2.812a1.9,1.9,0,0,1,1.753-1.538c.913,0,1.2.586.986,1.538ZM85.449,0h.732l.527-2.275c.234-1.016.933-1.982,1.792-1.982a1.143,1.143,0,0,1,.605.176l.356-.62a1.365,1.365,0,0,0-.82-.249,1.852,1.852,0,0,0-1.528.913l.19-.84h-.737Z" transform="translate(260.274 -94.383)" fill="#4500ff"/>
      </g>
      <g id="Group_24472" data-name="Group 24472" transform="translate(370.745)">
        <path id="Path_161949" data-name="Path 161949" d="M.308,0h.845L1.68-1.5H4.712L5.239,0h.83L3.5-6.9H2.9ZM1.938-2.207,3.2-5.762,4.448-2.207ZM7.158,0h.728V-2.534c0-1.211.61-1.812,1.377-1.812.859,0,1.108.781,1.108,1.455V0h.723V-2.964c0-1.074-.474-2-1.636-2a1.752,1.752,0,0,0-1.572.938v-.85H7.158Zm5.42-5.962h.83V-6.9h-.83ZM12.632,0h.723V-4.878h-.723ZM15,0h.737V-2.544c0-.884.435-1.816,1.245-1.816.835,0,1.025.776,1.025,1.45V0h.742V-2.705c0-.8.435-1.655,1.235-1.655.845,0,1.045.806,1.045,1.47V0h.737V-2.964c0-1.084-.488-2.017-1.694-2.017A1.618,1.618,0,0,0,18.56-3.96,1.465,1.465,0,0,0,17.07-4.98a1.459,1.459,0,0,0-1.328.859v-.757H15Zm9.434.1a1.821,1.821,0,0,0,1.714-1.04L26.167,0h.62V-2.993A1.8,1.8,0,0,0,24.878-4.98a2.164,2.164,0,0,0-1.841.957l.532.415a1.605,1.605,0,0,1,1.353-.737c.884,0,1.2.64,1.2,1.558H25c-1.387,0-2.148.454-2.148,1.431A1.43,1.43,0,0,0,24.438.1Zm.083-.615c-.508,0-.913-.239-.913-.82,0-.649.5-.9,1.465-.9h1.045A1.683,1.683,0,0,1,24.521-.518Zm4.746-.02c-.22,0-.239-.264-.239-.278V-6.9h-.737V-.986c0,.586.054,1.084.791,1.084a2.381,2.381,0,0,0,.659-.1V-.586A2.891,2.891,0,0,1,29.268-.537ZM33.477,0h.737V-2.544c0-.884.435-1.816,1.245-1.816.835,0,1.025.776,1.025,1.45V0h.742V-2.705c0-.8.435-1.655,1.235-1.655.845,0,1.045.806,1.045,1.47V0h.737V-2.964c0-1.084-.488-2.017-1.694-2.017A1.618,1.618,0,0,0,37.031-3.96,1.465,1.465,0,0,0,35.542-4.98a1.459,1.459,0,0,0-1.328.859v-.757h-.737ZM43.594.068a2.392,2.392,0,0,0,1.865-.762l-.5-.4a1.7,1.7,0,0,1-1.372.522,1.444,1.444,0,0,1-1.426-1.621h3.4c.01-.088.024-.249.024-.376,0-1.123-.488-2.378-2.07-2.378C42.1-4.946,41.4-3.721,41.4-2.412A2.211,2.211,0,0,0,43.594.068ZM42.163-2.788c.039-.83.459-1.558,1.353-1.558,1,0,1.353.776,1.372,1.558ZM48.2.1a1.966,1.966,0,0,0,.654-.1V-.625a1.164,1.164,0,0,1-.488.122c-.356,0-.62-.249-.62-.786V-4.282h1.235v-.6H47.744V-6.66l-.723.684v1.1h-.786v.6h.781v2.988C47.017-.459,47.334.1,48.2.1Zm3.076,0a1.821,1.821,0,0,0,1.714-1.04L53,0h.62V-2.993A1.8,1.8,0,0,0,51.714-4.98a2.164,2.164,0,0,0-1.841.957l.532.415a1.605,1.605,0,0,1,1.353-.737c.884,0,1.2.64,1.2,1.558H51.841c-1.387,0-2.148.454-2.148,1.431A1.43,1.43,0,0,0,51.274.1Zm.083-.615c-.508,0-.913-.239-.913-.82,0-.649.5-.9,1.465-.9h1.045A1.683,1.683,0,0,1,51.357-.518Zm3.794,2.656h.732v-2.8A1.75,1.75,0,0,0,57.378.1c1.309,0,1.987-1.157,1.987-2.539S58.682-4.98,57.373-4.98a1.743,1.743,0,0,0-1.489.767v-.664h-.732Zm2.07-2.656c-.991,0-1.406-.928-1.406-1.924s.415-1.924,1.406-1.924,1.411.938,1.411,1.924S58.2-.518,57.222-.518ZM60.664,0h.723V-2.632a1.537,1.537,0,0,1,1.455-1.65c.84,0,1.035.728,1.035,1.392V0h.737V-3.008c0-1.04-.474-1.958-1.641-1.958a1.9,1.9,0,0,0-1.587.889V-6.9h-.723Zm7.378.1a2.4,2.4,0,0,0,2.324-2.549A2.383,2.383,0,0,0,68.042-4.98a2.361,2.361,0,0,0-2.3,2.529A2.376,2.376,0,0,0,68.042.1Zm0-.605c-1.074,0-1.572-.957-1.572-1.943s.5-1.924,1.582-1.924,1.572.947,1.572,1.924S69.141-.508,68.047-.508ZM71.606,0h.718V-2.437c0-1.177.5-1.846,1.333-1.846a.888.888,0,0,1,.6.186l.308-.63a1.268,1.268,0,0,0-.786-.254,1.572,1.572,0,0,0-1.44.967v-.864h-.728Zm8.423.1a2.4,2.4,0,0,0,2.324-2.549A2.383,2.383,0,0,0,80.029-4.98a2.361,2.361,0,0,0-2.3,2.529A2.376,2.376,0,0,0,80.029.1Zm0-.605c-1.074,0-1.572-.957-1.572-1.943s.5-1.924,1.582-1.924,1.572.947,1.572,1.924S81.128-.508,80.034-.508ZM83.594,0h.718V-2.437c0-1.177.5-1.846,1.333-1.846a.888.888,0,0,1,.6.186l.308-.63a1.268,1.268,0,0,0-.786-.254,1.572,1.572,0,0,0-1.44.967v-.864h-.728ZM91.47.1a1.521,1.521,0,0,0,1.675-1.489c0-1.792-2.632-1.2-2.632-2.324,0-.4.327-.674.854-.674a1.15,1.15,0,0,1,1.089.688l.537-.308a1.733,1.733,0,0,0-1.6-.972,1.392,1.392,0,0,0-1.548,1.353c0,1.655,2.593,1.011,2.593,2.324,0,.527-.405.806-.957.806a1.237,1.237,0,0,1-1.216-.928l-.615.317A1.893,1.893,0,0,0,91.47.1Zm2.842-6.06h.83V-6.9h-.83ZM94.365,0h.723V-4.878h-.723Zm2.373,0h.737V-2.544c0-.884.435-1.816,1.245-1.816.835,0,1.025.776,1.025,1.45V0h.742V-2.705c0-.8.435-1.655,1.235-1.655.845,0,1.045.806,1.045,1.47V0h.737V-2.964c0-1.084-.488-2.017-1.694-2.017a1.618,1.618,0,0,0-1.519,1.021A1.465,1.465,0,0,0,98.8-4.98a1.459,1.459,0,0,0-1.328.859v-.757h-.737Zm8.252-5.962h.83V-6.9h-.83ZM105.044,0h.723V-4.878h-.723Zm3.335-.537c-.22,0-.239-.264-.239-.278V-6.9H107.4V-.986c0,.586.054,1.084.791,1.084a2.381,2.381,0,0,0,.659-.1V-.586A2.891,2.891,0,0,1,108.379-.537Zm3.389.605a2.392,2.392,0,0,0,1.865-.762l-.5-.4a1.7,1.7,0,0,1-1.372.522,1.444,1.444,0,0,1-1.426-1.621h3.4c.01-.088.024-.249.024-.376,0-1.123-.488-2.378-2.07-2.378-1.416,0-2.119,1.226-2.119,2.534A2.211,2.211,0,0,0,111.768.068Zm-1.431-2.856c.039-.83.459-1.558,1.353-1.558,1,0,1.353.776,1.372,1.558Z" transform="translate(259.239 -72.383)"/>
      </g>
      <line id="Line_7911" data-name="Line 7911" x2="938" transform="translate(0 -136.402)" fill="none" stroke="#5151fc" stroke-miterlimit="10" stroke-width="0.5"/>
      <rect id="Rectangle_50" data-name="Rectangle 50" width="938" height="104.4" transform="translate(-0.2 -136.202)" fill="none"/>
      <path id="Rectangle_13361" data-name="Rectangle 13361" d="M5.142-102.4h11a4.951,4.951,0,0,1,5,5h0a4.951,4.951,0,0,1-5,5h-11a4.951,4.951,0,0,1-5-5h0A5.015,5.015,0,0,1,5.142-102.4Z" fill="#f36"/>
      <path id="Path_161946" data-name="Path 161946" d="M1.035,0h.771V-6.23L3.877-.6h.85L6.8-6.23V0h.767V-6.9H6.309L4.287-1.357,2.295-6.9H1.035Zm10.2.068A2.392,2.392,0,0,0,13.1-.693l-.5-.4a1.7,1.7,0,0,1-1.372.522A1.444,1.444,0,0,1,9.8-2.192h3.4c.01-.088.024-.249.024-.376,0-1.123-.488-2.378-2.07-2.378-1.416,0-2.119,1.226-2.119,2.534A2.211,2.211,0,0,0,11.235.068ZM9.8-2.788c.039-.83.459-1.558,1.353-1.558,1,0,1.353.776,1.372,1.558ZM15.84.1a1.966,1.966,0,0,0,.654-.1V-.625a1.164,1.164,0,0,1-.488.122c-.356,0-.62-.249-.62-.786V-4.282h1.235v-.6H15.386V-6.66l-.723.684v1.1h-.786v.6h.781v2.988C14.658-.459,14.976.1,15.84.1Zm3.076,0A1.821,1.821,0,0,0,20.63-.942L20.645,0h.62V-2.993A1.8,1.8,0,0,0,19.355-4.98a2.164,2.164,0,0,0-1.841.957l.532.415A1.605,1.605,0,0,1,19.4-4.346c.884,0,1.2.64,1.2,1.558H19.482c-1.387,0-2.148.454-2.148,1.431A1.43,1.43,0,0,0,18.916.1ZM19-.518c-.508,0-.913-.239-.913-.82,0-.649.5-.9,1.465-.9H20.6A1.683,1.683,0,0,1,19-.518Zm3.794,2.656h.732v-2.8A1.75,1.75,0,0,0,25.02.1c1.309,0,1.987-1.157,1.987-2.539S26.323-4.98,25.015-4.98a1.743,1.743,0,0,0-1.489.767v-.664h-.732Zm2.07-2.656c-.991,0-1.406-.928-1.406-1.924s.415-1.924,1.406-1.924,1.411.938,1.411,1.924S25.84-.518,24.863-.518ZM28.306,0h.723V-2.632a1.537,1.537,0,0,1,1.455-1.65c.84,0,1.035.728,1.035,1.392V0h.737V-3.008c0-1.04-.474-1.958-1.641-1.958a1.9,1.9,0,0,0-1.587.889V-6.9h-.723Zm7.378.1a2.4,2.4,0,0,0,2.324-2.549A2.383,2.383,0,0,0,35.684-4.98a2.361,2.361,0,0,0-2.3,2.529A2.376,2.376,0,0,0,35.684.1Zm0-.605c-1.074,0-1.572-.957-1.572-1.943s.5-1.924,1.582-1.924,1.572.947,1.572,1.924S36.782-.508,35.688-.508ZM39.248,0h.718V-2.437c0-1.177.5-1.846,1.333-1.846a.888.888,0,0,1,.6.186l.308-.63a1.268,1.268,0,0,0-.786-.254,1.572,1.572,0,0,0-1.44.967v-.864h-.728Z" transform="translate(506.218 -72.649)"/>
      <path id="Rectangle_13359" data-name="Rectangle 13359" d="M485.2-102.6h11a4.951,4.951,0,0,1,5,5h0a4.951,4.951,0,0,1-5,5h-11a4.951,4.951,0,0,1-5-5h0A5.015,5.015,0,0,1,485.2-102.6Z" transform="translate(-5.267 22)" fill="#f299c1"/>
      <path id="Path_161944" data-name="Path 161944" d="M6.523.474,6.987,0,6.035-.957A3.957,3.957,0,0,0,6.8-3.447C6.8-5.366,5.8-7,3.691-7S.6-5.361.6-3.452,1.592.1,3.691.1a2.854,2.854,0,0,0,1.89-.6ZM3.691-.605c-1.655,0-2.314-1.367-2.314-2.847s.659-2.842,2.314-2.842c1.68,0,2.329,1.367,2.329,2.842A3.528,3.528,0,0,1,5.5-1.484l-.981-.991L4.072-2l.972,1A2.172,2.172,0,0,1,3.691-.605ZM9.907.107A1.736,1.736,0,0,0,11.44-.825V0h.723V-4.878H11.44v2.7A1.566,1.566,0,0,1,9.985-.508C9.15-.508,8.96-1.294,8.96-2V-4.878H8.232v2.832C8.232-.83,8.706.107,9.907.107ZM15.591.068a2.392,2.392,0,0,0,1.865-.762l-.5-.4a1.7,1.7,0,0,1-1.372.522A1.444,1.444,0,0,1,14.16-2.192h3.4c.01-.088.024-.249.024-.376,0-1.123-.488-2.378-2.07-2.378-1.416,0-2.119,1.226-2.119,2.534A2.211,2.211,0,0,0,15.591.068ZM14.16-2.788c.039-.83.459-1.558,1.353-1.558,1,0,1.353.776,1.372,1.558ZM20.19.1a1.521,1.521,0,0,0,1.675-1.489c0-1.792-2.632-1.2-2.632-2.324,0-.4.327-.674.854-.674a1.15,1.15,0,0,1,1.089.688l.537-.308a1.733,1.733,0,0,0-1.6-.972,1.392,1.392,0,0,0-1.548,1.353c0,1.655,2.593,1.011,2.593,2.324,0,.527-.405.806-.957.806a1.237,1.237,0,0,1-1.216-.928l-.615.317A1.893,1.893,0,0,0,20.19.1Zm4.243,0a1.966,1.966,0,0,0,.654-.1V-.625A1.164,1.164,0,0,1,24.6-.5c-.356,0-.62-.249-.62-.786V-4.282h1.235v-.6H23.979V-6.66l-.723.684v1.1h-.786v.6h.781v2.988C23.252-.459,23.569.1,24.434.1Zm1.895-6.06h.83V-6.9h-.83ZM26.382,0H27.1V-4.878h-.723Zm4.272.1a2.4,2.4,0,0,0,2.324-2.549A2.383,2.383,0,0,0,30.654-4.98a2.361,2.361,0,0,0-2.3,2.529A2.376,2.376,0,0,0,30.654.1Zm0-.605c-1.074,0-1.572-.957-1.572-1.943s.5-1.924,1.582-1.924,1.572.947,1.572,1.924S31.753-.508,30.659-.508ZM34.219,0h.728V-2.534c0-1.211.61-1.812,1.377-1.812.859,0,1.108.781,1.108,1.455V0h.723V-2.964c0-1.074-.474-2-1.636-2a1.752,1.752,0,0,0-1.572.938v-.85h-.728Zm6.816.1A1.521,1.521,0,0,0,42.71-1.392c0-1.792-2.632-1.2-2.632-2.324,0-.4.327-.674.854-.674a1.15,1.15,0,0,1,1.089.688l.537-.308a1.733,1.733,0,0,0-1.6-.972,1.392,1.392,0,0,0-1.548,1.353C39.409-1.973,42-2.617,42-1.3c0,.527-.405.806-.957.806a1.237,1.237,0,0,1-1.216-.928l-.615.317A1.893,1.893,0,0,0,41.035.1ZM47.7.1a1.821,1.821,0,0,0,1.714-1.04L49.429,0h.62V-2.993A1.8,1.8,0,0,0,48.14-4.98a2.164,2.164,0,0,0-1.841.957l.532.415a1.605,1.605,0,0,1,1.353-.737c.884,0,1.2.64,1.2,1.558H48.267c-1.387,0-2.148.454-2.148,1.431A1.43,1.43,0,0,0,47.7.1Zm.083-.615c-.508,0-.913-.239-.913-.82,0-.649.5-.9,1.465-.9H49.38A1.683,1.683,0,0,1,47.783-.518ZM51.567,0h.728V-2.534c0-1.211.61-1.812,1.377-1.812.859,0,1.108.781,1.108,1.455V0H55.5V-2.964c0-1.074-.474-2-1.636-2a1.752,1.752,0,0,0-1.572.938v-.85h-.728Zm8.594-6.9v2.686a1.746,1.746,0,0,0-1.528-.767c-1.245,0-1.953,1.143-1.953,2.539S57.388.1,58.638.1a1.734,1.734,0,0,0,1.528-.776L60.181,0h.708V-6.9ZM58.823-.518c-.977,0-1.4-.928-1.4-1.924s.42-1.924,1.4-1.924c1,0,1.4.938,1.4,1.924S59.819-.518,58.823-.518ZM68.315-6.9v2.686a1.746,1.746,0,0,0-1.528-.767c-1.245,0-1.953,1.143-1.953,2.539S65.542.1,66.792.1A1.734,1.734,0,0,0,68.32-.679L68.335,0h.708V-6.9ZM66.978-.518c-.977,0-1.4-.928-1.4-1.924s.42-1.924,1.4-1.924c1,0,1.4.938,1.4,1.924S67.974-.518,66.978-.518ZM72.6.1a2.4,2.4,0,0,0,2.324-2.549A2.383,2.383,0,0,0,72.6-4.98a2.361,2.361,0,0,0-2.3,2.529A2.376,2.376,0,0,0,72.6.1Zm0-.605c-1.074,0-1.572-.957-1.572-1.943s.5-1.924,1.582-1.924,1.572.947,1.572,1.924S73.7-.508,72.6-.508Zm5.073.615a1.736,1.736,0,0,0,1.533-.933V0h.723V-4.878h-.723v2.7a1.566,1.566,0,0,1-1.455,1.67c-.835,0-1.025-.786-1.025-1.489V-4.878H76v2.832C76-.83,76.475.107,77.676.107ZM83.833.1C85.1.1,85.8-1.05,85.8-2.441S85.1-4.98,83.828-4.98a1.747,1.747,0,0,0-1.514.767V-6.9h-.728V0h.728V-.664A1.747,1.747,0,0,0,83.833.1Zm-.19-.615c-.977,0-1.392-.928-1.392-1.924s.415-1.924,1.392-1.924,1.426.938,1.426,1.924S84.624-.518,83.643-.518ZM88.4.1a1.966,1.966,0,0,0,.654-.1V-.625a1.164,1.164,0,0,1-.488.122c-.356,0-.62-.249-.62-.786V-4.282h1.235v-.6H87.949V-6.66l-.723.684v1.1H86.44v.6h.781v2.988C87.222-.459,87.539.1,88.4.1Zm3.35,0a1.521,1.521,0,0,0,1.675-1.489c0-1.792-2.632-1.2-2.632-2.324,0-.4.327-.674.854-.674a1.15,1.15,0,0,1,1.089.688l.537-.308a1.733,1.733,0,0,0-1.6-.972,1.392,1.392,0,0,0-1.548,1.353c0,1.655,2.593,1.011,2.593,2.324,0,.527-.405.806-.957.806a1.237,1.237,0,0,1-1.216-.928l-.615.317A1.893,1.893,0,0,0,91.753.1Z" transform="translate(268.327 -72.649)"/>
      <path id="Path_161945" data-name="Path 161945" d="M2.91,0h.664L6.157-6.9H5.366L3.242-1.025,1.118-6.9H.308ZM7.241-5.962h.83V-6.9h-.83ZM7.295,0h.723V-4.878H7.295Zm3.726.1A1.521,1.521,0,0,0,12.7-1.392c0-1.792-2.632-1.2-2.632-2.324,0-.4.327-.674.854-.674a1.15,1.15,0,0,1,1.089.688l.537-.308a1.733,1.733,0,0,0-1.6-.972A1.392,1.392,0,0,0,9.395-3.628c0,1.655,2.593,1.011,2.593,2.324,0,.527-.405.806-.957.806a1.237,1.237,0,0,1-1.216-.928L9.2-1.108A1.893,1.893,0,0,0,11.021.1Zm2.842-6.06h.83V-6.9h-.83ZM13.916,0h.723V-4.878h-.723Zm4.272.1a2.4,2.4,0,0,0,2.324-2.549A2.383,2.383,0,0,0,18.188-4.98a2.361,2.361,0,0,0-2.3,2.529A2.376,2.376,0,0,0,18.188.1Zm0-.605c-1.074,0-1.572-.957-1.572-1.943s.5-1.924,1.582-1.924,1.572.947,1.572,1.924S19.287-.508,18.193-.508ZM21.753,0h.728V-2.534c0-1.211.61-1.812,1.377-1.812.859,0,1.108.781,1.108,1.455V0h.723V-2.964c0-1.074-.474-2-1.636-2a1.752,1.752,0,0,0-1.572.938v-.85h-.728Zm6.816.1a1.521,1.521,0,0,0,1.675-1.489c0-1.792-2.632-1.2-2.632-2.324,0-.4.327-.674.854-.674a1.15,1.15,0,0,1,1.089.688l.537-.308a1.733,1.733,0,0,0-1.6-.972,1.392,1.392,0,0,0-1.548,1.353c0,1.655,2.593,1.011,2.593,2.324,0,.527-.405.806-.957.806a1.237,1.237,0,0,1-1.216-.928l-.615.317A1.893,1.893,0,0,0,28.569.1Zm6.665,0a1.821,1.821,0,0,0,1.714-1.04L36.963,0h.62V-2.993A1.8,1.8,0,0,0,35.674-4.98a2.164,2.164,0,0,0-1.841.957l.532.415a1.605,1.605,0,0,1,1.353-.737c.884,0,1.2.64,1.2,1.558H35.8c-1.387,0-2.148.454-2.148,1.431A1.43,1.43,0,0,0,35.234.1Zm.083-.615c-.508,0-.913-.239-.913-.82,0-.649.5-.9,1.465-.9h1.045A1.683,1.683,0,0,1,35.317-.518ZM39.1,0h.728V-2.534c0-1.211.61-1.812,1.377-1.812.859,0,1.108.781,1.108,1.455V0h.723V-2.964c0-1.074-.474-2-1.636-2a1.752,1.752,0,0,0-1.572.938v-.85H39.1ZM47.7-6.9v2.686a1.746,1.746,0,0,0-1.528-.767c-1.245,0-1.953,1.143-1.953,2.539S44.922.1,46.172.1A1.734,1.734,0,0,0,47.7-.679L47.715,0h.708V-6.9ZM46.357-.518c-.977,0-1.4-.928-1.4-1.924s.42-1.924,1.4-1.924c1,0,1.4.938,1.4,1.924S47.354-.518,46.357-.518ZM55.85-6.9v2.686a1.746,1.746,0,0,0-1.528-.767c-1.245,0-1.953,1.143-1.953,2.539S53.076.1,54.326.1a1.734,1.734,0,0,0,1.528-.776L55.869,0h.708V-6.9ZM54.512-.518c-.977,0-1.4-.928-1.4-1.924s.42-1.924,1.4-1.924c1,0,1.4.938,1.4,1.924S55.508-.518,54.512-.518Zm5.542.586a2.392,2.392,0,0,0,1.865-.762l-.5-.4a1.7,1.7,0,0,1-1.372.522,1.444,1.444,0,0,1-1.426-1.621h3.4c.01-.088.024-.249.024-.376,0-1.123-.488-2.378-2.07-2.378-1.416,0-2.119,1.226-2.119,2.534A2.211,2.211,0,0,0,60.054.068ZM58.623-2.788c.039-.83.459-1.558,1.353-1.558,1,0,1.353.776,1.372,1.558ZM64.653.1a1.521,1.521,0,0,0,1.675-1.489c0-1.792-2.632-1.2-2.632-2.324,0-.4.327-.674.854-.674A1.15,1.15,0,0,1,65.64-3.7l.537-.308a1.733,1.733,0,0,0-1.6-.972,1.392,1.392,0,0,0-1.548,1.353c0,1.655,2.593,1.011,2.593,2.324,0,.527-.405.806-.957.806a1.237,1.237,0,0,1-1.216-.928l-.615.317A1.893,1.893,0,0,0,64.653.1ZM67.5-5.962h.83V-6.9H67.5ZM67.549,0h.723V-4.878h-.723Zm2.373,0h.718V-2.437c0-1.177.5-1.846,1.333-1.846a.888.888,0,0,1,.6.186l.308-.63a1.268,1.268,0,0,0-.786-.254,1.572,1.572,0,0,0-1.44.967v-.864h-.728Zm5.3.068A2.392,2.392,0,0,0,77.09-.693l-.5-.4a1.7,1.7,0,0,1-1.372.522,1.444,1.444,0,0,1-1.426-1.621h3.4c.01-.088.024-.249.024-.376,0-1.123-.488-2.378-2.07-2.378-1.416,0-2.119,1.226-2.119,2.534A2.211,2.211,0,0,0,75.225.068ZM73.794-2.788c.039-.83.459-1.558,1.353-1.558,1,0,1.353.776,1.372,1.558ZM79.824.1A1.521,1.521,0,0,0,81.5-1.392c0-1.792-2.632-1.2-2.632-2.324,0-.4.327-.674.854-.674a1.15,1.15,0,0,1,1.089.688l.537-.308a1.733,1.733,0,0,0-1.6-.972A1.392,1.392,0,0,0,78.2-3.628c0,1.655,2.593,1.011,2.593,2.324,0,.527-.405.806-.957.806a1.237,1.237,0,0,1-1.216-.928L78-1.108A1.893,1.893,0,0,0,79.824.1Z" transform="translate(506.215 -93.555)"/>
      <path id="Rectangle_13359-2" data-name="Rectangle 13359" d="M601.7-102.6h11a4.951,4.951,0,0,1,5,5h0a4.951,4.951,0,0,1-5,5h-11a4.951,4.951,0,0,1-5-5h0A5.015,5.015,0,0,1,601.7-102.6Z" transform="translate(-359.656 22)" fill="#fc6"/>
      <path id="Rectangle_13360" data-name="Rectangle 13360" d="M601.7-80.6h11a4.951,4.951,0,0,1,5,5h0a4.951,4.951,0,0,1-5,5h-11a4.951,4.951,0,0,1-5-5h0A5.015,5.015,0,0,1,601.7-80.6Z" transform="translate(-121.767 -20.906)" fill="#fbfb97"/>
      <path id="Path_161947" data-name="Path 161947" d="M2.788.078A1.981,1.981,0,0,0,4.941-1.9c0-2.227-3.325-1.87-3.325-3.418A1.039,1.039,0,0,1,2.725-6.333a1.454,1.454,0,0,1,1.343.8l.581-.391A2.1,2.1,0,0,0,2.734-7,1.758,1.758,0,0,0,.864-5.254c0,2.1,3.325,1.626,3.325,3.408,0,.835-.571,1.235-1.4,1.235A1.537,1.537,0,0,1,1.128-1.982l-.723.215A2.25,2.25,0,0,0,2.788.078Zm3.369-6.04h.83V-6.9h-.83ZM6.211,0h.723V-4.878H6.211ZM8.584,0h.737V-2.544c0-.884.435-1.816,1.245-1.816.835,0,1.025.776,1.025,1.45V0h.742V-2.705c0-.8.435-1.655,1.235-1.655.845,0,1.045.806,1.045,1.47V0h.737V-2.964c0-1.084-.488-2.017-1.694-2.017A1.618,1.618,0,0,0,12.139-3.96,1.465,1.465,0,0,0,10.649-4.98a1.459,1.459,0,0,0-1.328.859v-.757H8.584Zm8.252-5.962h.83V-6.9h-.83ZM16.89,0h.723V-4.878H16.89Zm3.335-.537c-.22,0-.239-.264-.239-.278V-6.9h-.737V-.986C19.248-.4,19.3.1,20.039.1A2.381,2.381,0,0,0,20.7,0V-.586A2.891,2.891,0,0,1,20.225-.537Zm3.389.605a2.392,2.392,0,0,0,1.865-.762l-.5-.4a1.7,1.7,0,0,1-1.372.522,1.444,1.444,0,0,1-1.426-1.621h3.4c.01-.088.024-.249.024-.376,0-1.123-.488-2.378-2.07-2.378-1.416,0-2.119,1.226-2.119,2.534A2.211,2.211,0,0,0,23.613.068ZM22.183-2.788c.039-.83.459-1.558,1.353-1.558,1,0,1.353.776,1.372,1.558Z" transform="translate(629.984 -94.602)"/>
      <path id="Rectangle_13360-2" data-name="Rectangle 13360" d="M485.2-80.6h11a4.951,4.951,0,0,1,5,5h0a4.951,4.951,0,0,1-5,5h-11a4.951,4.951,0,0,1-5-5h0A5.015,5.015,0,0,1,485.2-80.6Z" transform="translate(118.5 -21.953)" fill="#9ff"/>
      <path id="Path_161908" data-name="Path 161908" d="M1.035,0h.776V-6.9H1.035ZM3.662,0H4.4V-2.544c0-.884.435-1.816,1.245-1.816.835,0,1.025.776,1.025,1.45V0h.742V-2.705c0-.8.435-1.655,1.235-1.655.845,0,1.045.806,1.045,1.47V0h.737V-2.964c0-1.084-.488-2.017-1.694-2.017A1.618,1.618,0,0,0,7.217-3.96,1.465,1.465,0,0,0,5.728-4.98,1.459,1.459,0,0,0,4.4-4.121v-.757H3.662ZM13.1.1A1.821,1.821,0,0,0,14.81-.942L14.824,0h.62V-2.993A1.8,1.8,0,0,0,13.535-4.98a2.164,2.164,0,0,0-1.841.957l.532.415a1.605,1.605,0,0,1,1.353-.737c.884,0,1.2.64,1.2,1.558H13.662c-1.387,0-2.148.454-2.148,1.431A1.43,1.43,0,0,0,13.1.1Zm.083-.615c-.508,0-.913-.239-.913-.82,0-.649.5-.9,1.465-.9h1.045A1.683,1.683,0,0,1,13.179-.518ZM18.716-.63c-.693-.1-1.3-.244-1.3-.747a.462.462,0,0,1,.21-.376,2.079,2.079,0,0,0,.918.205,1.661,1.661,0,0,0,1.8-1.68,1.761,1.761,0,0,0-.181-.791l.786-.62-.415-.518-.732.664a1.855,1.855,0,0,0-1.26-.454,1.7,1.7,0,0,0-1.826,1.709,1.625,1.625,0,0,0,.41,1.113,1,1,0,0,0-.356.806,1.082,1.082,0,0,0,.62,1l-.7.708a1.287,1.287,0,0,0-.015.186c0,.928.835,1.66,2.1,1.66,1.025,0,1.953-.479,1.953-1.484C20.728-.352,19.707-.5,18.716-.63ZM18.53-4.37a1.059,1.059,0,0,1,1.079,1.118,1.023,1.023,0,0,1-1.079,1.1,1.019,1.019,0,0,1-1.074-1.1A1.066,1.066,0,0,1,18.53-4.37Zm.3,5.962c-.947,0-1.484-.5-1.489-1l.576-.7A4.948,4.948,0,0,0,18.5.015c.835.142,1.577.166,1.577.791C20.078,1.338,19.478,1.592,18.833,1.592Zm3.086-7.554h.83V-6.9h-.83ZM21.973,0H22.7V-4.878h-.723Zm2.373,0h.728V-2.534c0-1.211.61-1.812,1.377-1.812.859,0,1.108.781,1.108,1.455V0h.723V-2.964c0-1.074-.474-2-1.636-2a1.752,1.752,0,0,0-1.572.938v-.85h-.728Zm6.6.1a1.821,1.821,0,0,0,1.714-1.04L32.676,0h.62V-2.993A1.8,1.8,0,0,0,31.387-4.98a2.164,2.164,0,0,0-1.841.957l.532.415a1.605,1.605,0,0,1,1.353-.737c.884,0,1.2.64,1.2,1.558H31.514c-1.387,0-2.148.454-2.148,1.431A1.43,1.43,0,0,0,30.947.1Zm.083-.615c-.508,0-.913-.239-.913-.82,0-.649.5-.9,1.465-.9h1.045A1.683,1.683,0,0,1,31.03-.518ZM36.162.1a1.966,1.966,0,0,0,.654-.1V-.625a1.164,1.164,0,0,1-.488.122c-.356,0-.62-.249-.62-.786V-4.282h1.235v-.6H35.708V-6.66l-.723.684v1.1H34.2v.6h.781v2.988C34.98-.459,35.3.1,36.162.1Zm1.895-6.06h.83V-6.9h-.83ZM38.11,0h.723V-4.878H38.11Zm4.272.1a2.4,2.4,0,0,0,2.324-2.549A2.383,2.383,0,0,0,42.383-4.98a2.361,2.361,0,0,0-2.3,2.529A2.376,2.376,0,0,0,42.383.1Zm0-.605c-1.074,0-1.572-.957-1.572-1.943s.5-1.924,1.582-1.924,1.572.947,1.572,1.924S43.481-.508,42.388-.508ZM45.947,0h.728V-2.534c0-1.211.61-1.812,1.377-1.812.859,0,1.108.781,1.108,1.455V0h.723V-2.964c0-1.074-.474-2-1.636-2a1.752,1.752,0,0,0-1.572.938v-.85h-.728Z" transform="translate(31.035 -94.173)"/>
    </g>
    <g id="Group_24474" data-name="Group 24474" transform="translate(368.2 137.196)">
      <path id="Path_153173" data-name="Path 153173" d="M242.4-80.6a5.015,5.015,0,0,1,5,5,5.015,5.015,0,0,1-5,5,5.081,5.081,0,0,1-5-5,5.015,5.015,0,0,1,5-5m0-.7a5.763,5.763,0,0,0-5.7,5.7,5.763,5.763,0,0,0,5.7,5.7,5.763,5.763,0,0,0,5.7-5.7,5.763,5.763,0,0,0-5.7-5.7Z" fill="#f299c1"/>
    </g>
    <g id="Group_24481" data-name="Group 24481" transform="translate(5.2 137.196)">
      <g id="Group_24480" data-name="Group 24480">
        <g id="Group_24479" data-name="Group 24479" clip-path="url(#clip-path)">
          <g id="Group_24478" data-name="Group 24478">
            <g id="Group_24477" data-name="Group 24477">
              <g id="Group_24476" data-name="Group 24476" clip-path="url(#clip-path-2)">
                <g id="Group_24475" data-name="Group 24475">
                  <circle id="Ellipse_33594" data-name="Ellipse 33594" cx="5.49" cy="5.49" r="5.49" transform="translate(236.881 -103.478)" fill="#5151fc" stroke="#fff" stroke-miterlimit="10" stroke-width="0.75"/>
                  <rect id="Rectangle_19346" data-name="Rectangle 19346" width="3.24" height="6.57" transform="translate(241.381 -100.778)" fill="none"/>
                  <text id="i" transform="translate(241.367 -95.35)" fill="#fff" font-size="7.796" font-family="HKGrotesk-Bold, HK Grotesk" font-weight="700" style="isolation: isolate"><tspan x="0" y="0">i</tspan></text>
                </g>
              </g>
            </g>
          </g>
        </g>
      </g>
    </g>
    <path id="Path_161914" data-name="Path 161914" d="M.889,0h4.59V-1.172H2.129V-2.881h3.12V-4.019H2.129V-5.762h3.35V-6.9H.889ZM6.968,0h4.189V-1.172H8.208V-6.9H6.968Zm5.19,0h4.59V-1.172H13.4V-2.881h3.12V-4.019H13.4V-5.762h3.35V-6.9h-4.59Zm6.079,0h1.191V-5.161L21.138-.6h1.2l1.709-4.561V0h1.191V-6.9h-1.67L21.738-1.992,19.907-6.9h-1.67Zm8.779,0h4.59V-1.172h-3.35V-2.881h3.12V-4.019h-3.12V-5.762h3.35V-6.9h-4.59ZM33.1,0h1.191V-4.839L37.178,0h1.24V-6.9H37.227V-2.07L34.326-6.9H33.1Zm8.472,0h1.24V-5.791h2.158V-6.9H39.4v1.108h2.163ZM47.93.078a2.169,2.169,0,0,0,2.4-2.09c0-2.29-3.34-1.851-3.34-3.149a.786.786,0,0,1,.869-.737,1.249,1.249,0,0,1,1.113.737L50-5.791A2.309,2.309,0,0,0,47.9-7a1.951,1.951,0,0,0-2.153,1.9c0,2.246,3.34,1.768,3.34,3.2,0,.488-.4.879-1.138.879a1.315,1.315,0,0,1-1.431-1.24l-1.23.313A2.507,2.507,0,0,0,47.93.078ZM56.753.1a3.229,3.229,0,0,0,3.33-3.55A3.229,3.229,0,0,0,56.753-7a3.229,3.229,0,0,0-3.33,3.55A3.229,3.229,0,0,0,56.753.1Zm0-1.1c-1.479,0-2.021-1.147-2.021-2.451S55.273-5.9,56.753-5.9s2.021,1.147,2.021,2.446S58.232-1,56.753-1Zm4.619,1h1.24V-2.881h3.223V-4.019H62.612V-5.762h3.652V-6.9H61.372Zm9.8,0h1.24V-5.791h2.158V-6.9H69.014v1.108h2.163Zm4.39.01h1.24V-2.949h.83L79.336.01h1.421L78.838-3.071a1.891,1.891,0,0,0,1.348-1.8A2.139,2.139,0,0,0,77.8-6.9H75.566Zm1.25-3.97V-5.791h.991c.708,0,1.152.371,1.152.942,0,.518-.391.859-1.05.889ZM80.908,0h1.353L82.8-1.5h2.681L86.011,0h1.338L84.6-6.9h-.928Zm2.31-2.559.923-2.52.918,2.52ZM88.3,0h1.191V-4.839L92.378,0h1.24V-6.9H92.427V-2.07L89.526-6.9H88.3Zm9.072.078a2.169,2.169,0,0,0,2.4-2.09c0-2.29-3.34-1.851-3.34-3.149a.786.786,0,0,1,.869-.737,1.249,1.249,0,0,1,1.113.737l1.03-.63A2.309,2.309,0,0,0,97.339-7a1.951,1.951,0,0,0-2.153,1.9c0,2.246,3.34,1.768,3.34,3.2,0,.488-.4.879-1.138.879a1.315,1.315,0,0,1-1.431-1.24l-1.23.313A2.507,2.507,0,0,0,97.368.078ZM100.947,0h1.24V-2.881h3.223V-4.019h-3.223V-5.762h3.652V-6.9h-4.893Zm8.823.1a3.229,3.229,0,0,0,3.33-3.55A3.229,3.229,0,0,0,109.771-7a3.229,3.229,0,0,0-3.33,3.55A3.229,3.229,0,0,0,109.771.1Zm0-1.1c-1.479,0-2.021-1.147-2.021-2.451s.542-2.446,2.021-2.446,2.021,1.147,2.021,2.446S111.25-1,109.771-1ZM114.39.01h1.24V-2.949h.83l1.7,2.959h1.421l-1.919-3.081a1.891,1.891,0,0,0,1.348-1.8A2.139,2.139,0,0,0,116.621-6.9H114.39Zm1.25-3.97V-5.791h.991c.708,0,1.152.371,1.152.942,0,.518-.391.859-1.05.889ZM120.581,0h1.191V-5.161L123.481-.6h1.2l1.709-4.561V0h1.191V-6.9h-1.67l-1.831,4.907L122.251-6.9h-1.67Zm7.949,0h1.353l.537-1.5H133.1l.532,1.5h1.338l-2.749-6.9h-.928Zm2.31-2.559.923-2.52.918,2.52ZM136.641,0h1.24V-5.791h2.158V-6.9h-5.562v1.108h2.163Zm4.39,0h1.24V-6.9h-1.24Zm5.859.1a3.229,3.229,0,0,0,3.33-3.55A3.229,3.229,0,0,0,146.89-7a3.229,3.229,0,0,0-3.33,3.55A3.229,3.229,0,0,0,146.89.1Zm0-1.1c-1.479,0-2.021-1.147-2.021-2.451S145.41-5.9,146.89-5.9s2.021,1.147,2.021,2.446S148.369-1,146.89-1Zm4.619,1H152.7V-4.839L155.591,0h1.24V-6.9H155.64V-2.07l-2.9-4.829h-1.23Zm12.344.1a3.229,3.229,0,0,0,3.33-3.55A3.229,3.229,0,0,0,163.853-7a3.229,3.229,0,0,0-3.33,3.55A3.229,3.229,0,0,0,163.853.1Zm0-1.1c-1.479,0-2.021-1.147-2.021-2.451s.542-2.446,2.021-2.446,2.021,1.147,2.021,2.446S165.332-1,163.853-1Zm4.619,1h1.24V-2.881h3.223V-4.019h-3.223V-5.762h3.652V-6.9h-4.893ZM176.9.01h1.24V-2.949h.83l1.7,2.959h1.421l-1.919-3.081a1.891,1.891,0,0,0,1.348-1.8A2.139,2.139,0,0,0,179.136-6.9H176.9Zm1.25-3.97V-5.791h.991c.708,0,1.152.371,1.152.942,0,.518-.391.859-1.05.889ZM183.1,0h4.59V-1.172h-3.35V-2.881h3.12V-4.019h-3.12V-5.762h3.35V-6.9H183.1Zm5.249,0H189.7l.537-1.5h2.681l.532,1.5h1.338l-2.749-6.9h-.928Zm2.31-2.559.923-2.52.918,2.52ZM195.732,0h4.189V-1.172h-2.949V-6.9h-1.24Zm5.19,0h1.24V-6.9h-1.24Zm4.39,0h1.24V-5.791h2.158V-6.9h-5.562v1.108h2.163Zm6.279,0h1.294V-2.69L215.464-6.9h-1.509l-1.733,3.018L210.5-6.9H209l2.588,4.209Z" transform="translate(237.244 24.011)" fill="#5151fc"/>
    <path id="Path_161907" data-name="Path 161907" d="M2.261,0H3.5V-5.791H5.659V-6.9H.1v1.108H2.261ZM8.54,0H9.834V-2.69L12.412-6.9H10.9L9.17-3.882,7.451-6.9h-1.5L8.54-2.69Zm4.751,0h1.23V-2.861h.933c1.406,0,2.437-.708,2.437-2S16.86-6.9,15.454-6.9H13.291Zm1.23-4.019V-5.742h.933c.84,0,1.206.322,1.206.884s-.356.84-1.206.84ZM18.96,0h4.59V-1.172H20.2V-2.881h3.12V-4.019H20.2V-5.762h3.35V-6.9H18.96ZM30.283.1a3.229,3.229,0,0,0,3.33-3.55A3.229,3.229,0,0,0,30.283-7a3.229,3.229,0,0,0-3.33,3.55A3.229,3.229,0,0,0,30.283.1Zm0-1.1C28.8-1,28.262-2.148,28.262-3.452S28.8-5.9,30.283-5.9,32.3-4.751,32.3-3.452,31.763-1,30.283-1ZM34.9,0h1.24V-2.881h3.223V-4.019H36.143V-5.762h3.652V-6.9H34.9Zm8.433,0h1.191V-4.839L47.417,0h1.24V-6.9H47.466V-2.07L44.565-6.9h-1.23ZM49.6,0h1.353l.537-1.5h2.681L54.707,0h1.338L53.3-6.9h-.928Zm2.31-2.559.923-2.52.918,2.52ZM56.992.01h1.24V-2.949h.83L60.762.01h1.421L60.264-3.071a1.891,1.891,0,0,0,1.348-1.8A2.139,2.139,0,0,0,59.224-6.9H56.992Zm1.25-3.97V-5.791h.991c.708,0,1.152.371,1.152.942,0,.518-.391.859-1.05.889ZM63.184.01h1.24V-2.949h.83L66.953.01h1.421L66.455-3.071a1.891,1.891,0,0,0,1.348-1.8A2.139,2.139,0,0,0,65.415-6.9H63.184Zm1.25-3.97V-5.791h.991c.708,0,1.152.371,1.152.942,0,.518-.391.859-1.05.889ZM68.525,0h1.353l.537-1.5H73.1L73.628,0h1.338L72.217-6.9h-.928Zm2.31-2.559.923-2.52.918,2.52ZM76.636,0h1.24V-5.791h2.158V-6.9H74.473v1.108h2.163Zm4.39,0h1.24V-6.9h-1.24Zm4.951,0H86.9l2.749-6.9H88.3L86.445-2.012,84.585-6.9H83.213ZM90.6,0h4.59V-1.172h-3.35V-2.881h3.12V-4.019h-3.12V-5.762h3.35V-6.9H90.6Zm10.454.078a2.169,2.169,0,0,0,2.4-2.09c0-2.29-3.34-1.851-3.34-3.149a.786.786,0,0,1,.869-.737,1.249,1.249,0,0,1,1.113.737l1.03-.63A2.309,2.309,0,0,0,101.025-7a1.951,1.951,0,0,0-2.153,1.9c0,2.246,3.34,1.768,3.34,3.2,0,.488-.4.879-1.138.879a1.315,1.315,0,0,1-1.431-1.24l-1.23.313A2.507,2.507,0,0,0,101.055.078ZM104.634,0h4.59V-1.172h-3.35V-2.881h3.12V-4.019h-3.12V-5.762h3.35V-6.9h-4.59Zm11.743.581.8-.752-.986-.937a4.038,4.038,0,0,0,.679-2.334A3.237,3.237,0,0,0,113.535-7a3.229,3.229,0,0,0-3.33,3.55A3.229,3.229,0,0,0,113.535.1a3.3,3.3,0,0,0,1.851-.508Zm-2.842-1.65c-1.479,0-2.09-1.079-2.09-2.383s.61-2.378,2.09-2.378,2.09,1.079,2.09,2.378a2.87,2.87,0,0,1-.342,1.44l-.918-.85-.8.732.942.859A2.316,2.316,0,0,1,113.535-1.069ZM120.854.1C122.705.1,123.5-1,123.5-2.739V-6.9h-1.24v4.067c0,1.113-.288,1.733-1.4,1.733s-1.4-.62-1.4-1.733V-6.9h-1.235V-2.69C118.218-1,119,.1,120.854.1Zm4.258-.1h4.59V-1.172h-3.35V-2.881h3.12V-4.019h-3.12V-5.762h3.35V-6.9h-4.59Zm6.079,0h1.191V-4.839L135.273,0h1.24V-6.9h-1.191V-2.07l-2.9-4.829h-1.23Zm9.951.1A3.13,3.13,0,0,0,144.16-1.89l-1.147-.469a1.815,1.815,0,0,1-1.87,1.279c-1.479,0-2.109-1.05-2.109-2.422a2.046,2.046,0,0,1,2.09-2.329,1.734,1.734,0,0,1,1.87,1.26l1.157-.459a3.14,3.14,0,0,0-3.018-1.982,3.237,3.237,0,0,0-3.33,3.56A3.235,3.235,0,0,0,141.143.1Zm4.141-.1h4.59V-1.172h-3.35V-2.881h3.12V-4.019h-3.12V-5.762h3.35V-6.9h-4.59Z" transform="translate(0.244 24.011)" fill="#5151fc"/>
  </g>
</svg>
