<?xml version="1.0" encoding="utf-8"?>
<!-- Generator: Adobe Illustrator 25.0.0, SVG Export Plug-In . SVG Version: 6.00 Build 0)  -->
<svg version="1.1" id="Livello_1" xmlns="http://www.w3.org/2000/svg" xmlns:xlink="http://www.w3.org/1999/xlink" x="0px" y="0px"
	 viewBox="0 0 271 208.89999" enable-background="new 0 0 271 208.89999" xml:space="preserve">
<line id="Linea_293" fill="none" stroke="#000000" stroke-width="0.5" stroke-miterlimit="10" x1="71.3" y1="158.8" x2="185.89999" y2="158.8"/>
<line id="Linea_294" fill="none" stroke="#000000" stroke-width="0.5" stroke-miterlimit="10" x1="64" y1="158.5" x2="64" y2="36.3"/>
<line id="Linea_295" fill="none" stroke="#000000" stroke-width="0.5" x1="62" y1="158.5" x2="66" y2="158.5"/>
<line id="Linea_296" fill="none" stroke="#000000" stroke-width="0.5" x1="62" y1="36.3" x2="66" y2="36.3"/>
<path id="Tracciato_116441" fill="#00FFCC" d="M76.6,67.3h45.5v63H76.6V67.3z"/>
<rect id="Rettangolo_9622" x="122.1" y="77.3" fill="#6666FF" width="45.50001" height="43"/>
<line id="Linea_297" fill="none" stroke="#666666" stroke-width="0.496" stroke-dasharray="1.982" x1="122.1" y1="76.3" x2="76.6" y2="76.3"/>
<line id="Linea_298" fill="none" stroke="#666666" stroke-width="0.496" stroke-dasharray="1.982" x1="122.1" y1="119" x2="76.6" y2="119"/>
<line id="Linea_299" fill="none" stroke="#000000" stroke-width="0.5" x1="99.35" y1="71.4" x2="99.35" y2="27.1"/>
<rect id="Rettangolo_9623" x="76.6" y="36.3" fill="none" stroke="#000000" stroke-miterlimit="10" width="45.5" height="122.2"/>
<path id="Tracciato_108889" fill="none" stroke="#000000" stroke-width="0.5" stroke-miterlimit="10" d="M37.8,5.9
	c21.1,0,20.6,30.9,36.8,30.9"/>
<line id="Linea_301" fill="none" stroke="#00FFCC" stroke-width="0.739" stroke-miterlimit="10" x1="82" y1="194.10001" x2="108.3" y2="194.10001"/>
<line id="Linea_302" fill="none" stroke="#6666FF" stroke-width="0.7296" stroke-miterlimit="10" x1="124.6" y1="194.10001" x2="150.8" y2="194.10001"/>
<line id="Linea_303" fill="none" stroke="#000000" stroke-width="0.6554" x1="178.60001" y1="189.5" x2="154.3" y2="189.5"/>
<path id="Tracciato_116468" fill="none" stroke="#000000" stroke-width="0.5" d="M144.72951,82.2c0-12.2-2.10001-38.7,15.10001-38.7
	"/>
<g>
	<path d="M6.39844,1.43115L3.65039,8.39746H3.07031L0.31152,1.43115h0.79004l2.25879,5.85693l2.25879-5.85693H6.39844z"/>
	<path d="M6.68164,5.92871c0-1.45898,0.9502-2.53857,2.35938-2.53857c1.39844,0,2.36816,1.07959,2.36816,2.53857
		c0,1.44922-0.95898,2.54883-2.36816,2.54883S6.68164,7.38818,6.68164,5.92871z M10.71973,5.92871
		C10.71973,4.80957,10.08984,4,9.04102,4C7.98145,4,7.37109,4.81934,7.37109,5.92871c0,1.11963,0.62012,1.93896,1.66992,1.93896
		C10.09961,7.86768,10.71973,7.02832,10.71973,5.92871z"/>
	<path d="M12.76074,7.32812V1.43115h0.69043v5.85693c0,0.33984,0.11914,0.55957,0.44922,0.55957
		c0.15039,0,0.32031-0.04004,0.46973-0.08984l0.00977,0.58984c-0.20996,0.06982-0.45898,0.12988-0.67969,0.12988
		C13.13086,8.47754,12.76074,8.09766,12.76074,7.32812z"/>
	<path d="M19.25977,3.47021v4.92725h-0.69043V7.68799c-0.34961,0.52979-0.97949,0.78955-1.62891,0.78955
		c-1.11914,0-1.6084-0.76953-1.6084-1.98926V3.47021h0.68945v2.84863c0,0.79932,0.13965,1.54883,1.0791,1.54883
		c0.97949,0,1.46875-0.84961,1.46875-2.12891V3.47021H19.25977z"/>
	<path d="M27.83789,5.31934v3.07812h-0.68945V5.50928c0-0.41992,0-1.50928-1.08008-1.50928
		c-0.99902,0-1.26855,0.91943-1.26855,2.02881v2.36865h-0.69043V5.54883C24.10938,4.72949,23.85938,4,23,4
		c-0.95898,0-1.22949,0.90918-1.22949,2.02881v2.36865h-0.68945l-0.00977-4.92725h0.66992v0.59961
		c0.30957-0.48975,0.80957-0.67969,1.35938-0.67969c0.68945,0,1.19922,0.2998,1.44922,0.94971
		c0.31934-0.62988,0.86914-0.94971,1.61914-0.94971C27.34766,3.39014,27.83789,4.16992,27.83789,5.31934z"/>
	<path d="M33.43945,6.11865h-3.6084c0.02051,1.07959,0.62012,1.729,1.58887,1.729c0.54004,0,0.96973-0.13965,1.41992-0.61963
		l0.47949,0.41992c-0.58008,0.60938-1.14941,0.82959-1.90918,0.82959c-1.49902,0-2.26855-1.11963-2.26855-2.51855
		c0-1.38965,0.75977-2.56885,2.18848-2.56885c1.50977,0,2.13867,1.1792,2.13867,2.29883
		C33.46875,5.8291,33.45898,5.99854,33.43945,6.11865z M29.83105,5.53906h2.97852c0-0.02002-0.00977-0.06982-0.00977-0.16016
		c-0.0498-0.79932-0.55957-1.40918-1.46973-1.40918C30.44043,3.96973,29.8916,4.66943,29.83105,5.53906z"/>
</g>
<g>
	<path d="M73.73193,18.9248l0.70996-0.16992c0.12988,0.89941,0.80957,1.46924,1.74902,1.46924
		c1.00977,0,1.51953-0.52979,1.51953-1.21973c0-0.74951-0.42969-1.13916-1.65918-1.60889
		c-1.40918-0.52979-1.89941-1.0293-1.89941-1.93896c0-1.05957,0.7998-1.75879,1.97949-1.75879
		c0.87891,0,1.56934,0.38965,1.98828,1.12939l-0.59961,0.36963c-0.2998-0.53955-0.80957-0.85938-1.40918-0.85938
		c-0.72949,0-1.24902,0.49951-1.24902,1.08936c0,0.63965,0.47949,0.97949,1.5791,1.39893
		c1.54883,0.58984,1.98926,1.14941,1.98926,2.11914c0,1.16943-0.80957,1.91895-2.24902,1.91895
		C74.89209,20.86377,73.92236,20.09424,73.73193,18.9248z"/>
	<path d="M83.89014,18.48486h-3.6084c0.02051,1.07959,0.62012,1.729,1.58887,1.729c0.54004,0,0.96973-0.13965,1.41992-0.61963
		l0.47949,0.41992c-0.58008,0.60938-1.14941,0.82959-1.90918,0.82959c-1.49902,0-2.26855-1.11963-2.26855-2.51855
		c0-1.38965,0.75977-2.56885,2.18848-2.56885c1.50977,0,2.13867,1.1792,2.13867,2.29883
		C83.91943,18.19531,83.90967,18.36475,83.89014,18.48486z M80.28174,17.90527h2.97852c0-0.02002-0.00977-0.06982-0.00977-0.16016
		c-0.0498-0.79932-0.55957-1.40918-1.46973-1.40918C80.89111,16.33594,80.34229,17.03564,80.28174,17.90527z"/>
	<path d="M89.43018,15.83643v6.96582h-0.68945V20.104c-0.36035,0.45996-0.91016,0.73975-1.62891,0.73975
		c-1.43945,0-2.18945-1.07959-2.18945-2.54883c0-1.53906,0.81934-2.54834,2.18945-2.54834
		c0.69922,0,1.25879,0.26953,1.62891,0.74951v-0.65967H89.43018z M88.80029,18.29492c0-1.16943-0.59961-1.93896-1.58887-1.93896
		c-1,0-1.59961,0.76953-1.59961,1.93896c0,1.11963,0.5498,1.93896,1.59961,1.93896
		C88.25049,20.23389,88.80029,19.41455,88.80029,18.29492z"/>
	<path d="M95.06006,15.83643v4.92725h-0.69043V20.0542c-0.34961,0.52979-0.97949,0.78955-1.62891,0.78955
		c-1.11914,0-1.6084-0.76953-1.6084-1.98926v-3.01807h0.68945v2.84863c0,0.79932,0.13965,1.54883,1.0791,1.54883
		c0.97949,0,1.46875-0.84961,1.46875-2.12891v-2.26855H95.06006z"/>
	<path d="M100.72998,18.48486h-3.6084c0.02051,1.07959,0.62012,1.729,1.58887,1.729c0.54004,0,0.96973-0.13965,1.41992-0.61963
		l0.47949,0.41992c-0.58008,0.60938-1.14941,0.82959-1.90918,0.82959c-1.49902,0-2.26855-1.11963-2.26855-2.51855
		c0-1.38965,0.75977-2.56885,2.18848-2.56885c1.50977,0,2.13867,1.1792,2.13867,2.29883
		C100.75928,18.19531,100.74951,18.36475,100.72998,18.48486z M97.12158,17.90527h2.97852
		c0-0.02002-0.00977-0.06982-0.00977-0.16016c-0.0498-0.79932-0.55957-1.40918-1.46973-1.40918
		C97.73096,16.33594,97.18213,17.03564,97.12158,17.90527z"/>
	<path d="M106.07959,17.74512v3.01855h-0.68945v-2.84863c0-1.05908-0.33984-1.54883-1.0791-1.54883
		c-0.92969,0-1.46875,0.79932-1.46875,2.18848v2.20898h-0.69043v-4.92725h0.69043v0.71973
		c0.31934-0.5,0.91895-0.7998,1.62891-0.7998C105.53076,15.75635,106.07959,16.43604,106.07959,17.74512z"/>
	<path d="M107.37256,18.31494c0-1.29932,0.72949-2.55859,2.21875-2.55859c0.87891,0,1.6084,0.43994,1.99902,1.35938
		l-0.66016,0.25977c-0.22949-0.62939-0.71973-1.00928-1.33887-1.00928c-1.0498,0-1.51953,0.93945-1.51953,1.94873
		c0,1.00977,0.46973,1.91895,1.5293,1.91895c0.62012,0,1.10938-0.36963,1.29883-0.99951l0.63965,0.24023
		c-0.3291,0.89941-1.04883,1.36914-1.93848,1.36914C108.17139,20.84375,107.37256,19.68408,107.37256,18.31494z"/>
	<path d="M116.71045,18.48486h-3.6084c0.02051,1.07959,0.62012,1.729,1.58887,1.729c0.54004,0,0.96973-0.13965,1.41992-0.61963
		l0.47949,0.41992c-0.58008,0.60938-1.14941,0.82959-1.90918,0.82959c-1.49902,0-2.26855-1.11963-2.26855-2.51855
		c0-1.38965,0.75977-2.56885,2.18848-2.56885c1.50977,0,2.13867,1.1792,2.13867,2.29883
		C116.73975,18.19531,116.72998,18.36475,116.71045,18.48486z M113.10205,17.90527h2.97852
		c0-0.02002-0.00977-0.06982-0.00977-0.16016c-0.0498-0.79932-0.55957-1.40918-1.46973-1.40918
		C113.71143,16.33594,113.1626,17.03564,113.10205,17.90527z"/>
	<path d="M122.771,17.25537l-2.37891-3.45801h0.85938l2.00977,2.9585l2.01855-2.9585h0.84961l-2.37891,3.45801l2.42871,3.5083
		h-0.85938l-2.06934-2.98828l-2.03809,2.98828h-0.86035L122.771,17.25537z"/>
</g>
<g>
	<path fill="#6666FF" d="M165.44043,32.46875l0.70996-0.16992c0.12988,0.89941,0.80957,1.46924,1.74902,1.46924
		c1.00977,0,1.51953-0.52979,1.51953-1.21973c0-0.74951-0.42969-1.13916-1.65918-1.60889
		c-1.40918-0.52979-1.89941-1.0293-1.89941-1.93896c0-1.05957,0.7998-1.75879,1.97949-1.75879
		c0.87891,0,1.56934,0.38965,1.98828,1.12939l-0.59961,0.36963c-0.2998-0.53955-0.80957-0.85938-1.40918-0.85938
		c-0.72949,0-1.24902,0.49951-1.24902,1.08936c0,0.63965,0.47949,0.97949,1.5791,1.39893
		c1.54883,0.58984,1.98926,1.14941,1.98926,2.11914c0,1.16943-0.80957,1.91895-2.24902,1.91895
		C166.60059,34.40771,165.63086,33.63818,165.44043,32.46875z"/>
	<path fill="#6666FF" d="M175.59863,32.02881h-3.6084c0.02051,1.07959,0.62012,1.729,1.58887,1.729
		c0.54004,0,0.96973-0.13965,1.41992-0.61963l0.47949,0.41992c-0.58008,0.60938-1.14941,0.82959-1.90918,0.82959
		c-1.49902,0-2.26855-1.11963-2.26855-2.51855c0-1.38965,0.75977-2.56885,2.18848-2.56885c1.50977,0,2.13867,1.1792,2.13867,2.29883
		C175.62793,31.73926,175.61816,31.90869,175.59863,32.02881z M171.99023,31.44922h2.97852
		c0-0.02002-0.00977-0.06982-0.00977-0.16016c-0.0498-0.79932-0.55957-1.40918-1.46973-1.40918
		C172.59961,29.87988,172.05078,30.57959,171.99023,31.44922z"/>
	<path fill="#6666FF" d="M181.13867,29.38037v6.96582h-0.68945v-2.69824c-0.36035,0.45996-0.91016,0.73975-1.62891,0.73975
		c-1.43945,0-2.18945-1.07959-2.18945-2.54883c0-1.53906,0.81934-2.54834,2.18945-2.54834
		c0.69922,0,1.25879,0.26953,1.62891,0.74951v-0.65967H181.13867z M180.50879,31.83887c0-1.16943-0.59961-1.93896-1.58887-1.93896
		c-1,0-1.59961,0.76953-1.59961,1.93896c0,1.11963,0.5498,1.93896,1.59961,1.93896
		C179.95898,33.77783,180.50879,32.9585,180.50879,31.83887z"/>
	<path fill="#6666FF" d="M186.76855,29.38037v4.92725h-0.69043v-0.70947c-0.34961,0.52979-0.97949,0.78955-1.62891,0.78955
		c-1.11914,0-1.6084-0.76953-1.6084-1.98926v-3.01807h0.68945V32.229c0,0.79932,0.13965,1.54883,1.0791,1.54883
		c0.97949,0,1.46875-0.84961,1.46875-2.12891v-2.26855H186.76855z"/>
	<path fill="#6666FF" d="M192.43848,32.02881h-3.6084c0.02051,1.07959,0.62012,1.729,1.58887,1.729
		c0.54004,0,0.96973-0.13965,1.41992-0.61963l0.47949,0.41992c-0.58008,0.60938-1.14941,0.82959-1.90918,0.82959
		c-1.49902,0-2.26855-1.11963-2.26855-2.51855c0-1.38965,0.75977-2.56885,2.18848-2.56885c1.50977,0,2.13867,1.1792,2.13867,2.29883
		C192.46777,31.73926,192.45801,31.90869,192.43848,32.02881z M188.83008,31.44922h2.97852
		c0-0.02002-0.00977-0.06982-0.00977-0.16016c-0.0498-0.79932-0.55957-1.40918-1.46973-1.40918
		C189.43945,29.87988,188.89062,30.57959,188.83008,31.44922z"/>
	<path fill="#6666FF" d="M197.78809,31.28906v3.01855h-0.68945v-2.84863c0-1.05908-0.33984-1.54883-1.0791-1.54883
		c-0.92969,0-1.46875,0.79932-1.46875,2.18848v2.20898h-0.69043v-4.92725h0.69043v0.71973
		c0.31934-0.5,0.91895-0.7998,1.62891-0.7998C197.23926,29.30029,197.78809,29.97998,197.78809,31.28906z"/>
	<path fill="#6666FF" d="M199.08105,31.85889c0-1.29932,0.72949-2.55859,2.21875-2.55859c0.87891,0,1.6084,0.43994,1.99902,1.35938
		l-0.66016,0.25977c-0.22949-0.62939-0.71973-1.00928-1.33887-1.00928c-1.0498,0-1.51953,0.93945-1.51953,1.94873
		c0,1.00977,0.46973,1.91895,1.5293,1.91895c0.62012,0,1.10938-0.36963,1.29883-0.99951l0.63965,0.24023
		c-0.3291,0.89941-1.04883,1.36914-1.93848,1.36914C199.87988,34.3877,199.08105,33.22803,199.08105,31.85889z"/>
	<path fill="#6666FF" d="M208.41895,32.02881h-3.6084c0.02051,1.07959,0.62012,1.729,1.58887,1.729
		c0.54004,0,0.96973-0.13965,1.41992-0.61963l0.47949,0.41992c-0.58008,0.60938-1.14941,0.82959-1.90918,0.82959
		c-1.49902,0-2.26855-1.11963-2.26855-2.51855c0-1.38965,0.75977-2.56885,2.18848-2.56885c1.50977,0,2.13867,1.1792,2.13867,2.29883
		C208.44824,31.73926,208.43848,31.90869,208.41895,32.02881z M204.81055,31.44922h2.97852
		c0-0.02002-0.00977-0.06982-0.00977-0.16016c-0.0498-0.79932-0.55957-1.40918-1.46973-1.40918
		C205.41992,29.87988,204.87109,30.57959,204.81055,31.44922z"/>
	<path fill="#6666FF" d="M214.61914,31.63916l-2.6582-4.29785h0.83984l2.16895,3.6084l2.17871-3.6084h0.84961l-2.65918,4.29785
		v2.66846h-0.71973V31.63916z"/>
	<path d="M223.98828,34.25781c-0.25977,0.07959-0.51953,0.12988-0.74902,0.12988c-0.66016,0-1.13965-0.37012-1.13965-1.23926
		v-3.18848h-0.81934v-0.57959h0.81934v-1.37939l0.68945-0.51953v1.89893h1.18945v0.57959h-1.18945v3.09814
		c0,0.47998,0.21973,0.69971,0.61035,0.69971c0.16992,0,0.35938-0.04004,0.5791-0.10986L223.98828,34.25781z"/>
	<path d="M229.22754,31.28906v3.01855h-0.68945v-2.84863c0-1.06934-0.33984-1.54883-1.0791-1.54883
		c-0.93945,0-1.46875,0.76953-1.46875,2.12891v2.26855h-0.69043v-6.96631h0.69043v2.75879
		c0.31934-0.5,0.91895-0.7998,1.62891-0.7998C228.67871,29.30029,229.22754,29.97998,229.22754,31.28906z"/>
	<path d="M234.59766,31.23926v3.06836h-0.62891l-0.04004-0.75977c-0.38965,0.5498-0.99023,0.83984-1.76953,0.83984
		c-1.06934,0-1.69922-0.56006-1.69922-1.50928c0-0.49951,0.2002-0.87939,0.55957-1.09961
		c0.37988-0.21973,0.91016-0.30957,1.87891-0.30957h1.00977v-0.22998c0-0.85938-0.44922-1.3291-1.2793-1.3291
		c-0.61914,0-1.09961,0.26953-1.49902,0.81934l-0.5-0.41943c0.53027-0.68994,1.16992-1.00977,2.00879-1.00977
		C233.87793,29.30029,234.59766,30.00977,234.59766,31.23926z M233.9082,32.09863v-0.06982h-0.94922
		c-0.90918,0-1.2998,0.06006-1.53906,0.25c-0.17969,0.13965-0.27051,0.35986-0.27051,0.63965
		c0,0.5498,0.46973,0.89941,1.20996,0.89941C233.30859,33.81787,233.9082,33.14844,233.9082,32.09863z"/>
	<path d="M238.32812,34.25781c-0.25977,0.07959-0.51953,0.12988-0.74902,0.12988c-0.66016,0-1.13965-0.37012-1.13965-1.23926
		v-3.18848h-0.81934v-0.57959h0.81934v-1.37939l0.68945-0.51953v1.89893h1.18945v0.57959h-1.18945v3.09814
		c0,0.47998,0.21973,0.69971,0.61035,0.69971c0.16992,0,0.35938-0.04004,0.5791-0.10986L238.32812,34.25781z"/>
	<path d="M167.90918,46.2583c-0.25977,0.08008-0.51953,0.12988-0.74902,0.12988c-0.66016,0-1.13965-0.37012-1.13965-1.23926
		v-3.18848h-0.81934v-0.58008h0.81934v-1.37891l0.68945-0.51953v1.89844h1.18945v0.58008h-1.18945v3.09863
		c0,0.47949,0.21973,0.69922,0.61035,0.69922c0.16992,0,0.35938-0.04004,0.5791-0.10938L167.90918,46.2583z"/>
	<path d="M172.88867,43.23975v3.06836h-0.62891l-0.04004-0.75977c-0.38965,0.5498-0.99023,0.83984-1.76953,0.83984
		c-1.06934,0-1.69922-0.55957-1.69922-1.50977c0-0.49902,0.2002-0.87891,0.55957-1.09863
		c0.37988-0.21973,0.91016-0.31055,1.87891-0.31055h1.00977v-0.22949c0-0.85938-0.44922-1.3291-1.2793-1.3291
		c-0.61914,0-1.09961,0.26953-1.49902,0.81934l-0.5-0.41992c0.53027-0.68945,1.16992-1.00879,2.00879-1.00879
		C172.16895,41.30127,172.88867,42.01025,172.88867,43.23975z M172.19922,44.09912v-0.06934H171.25
		c-0.90918,0-1.2998,0.05957-1.53906,0.24902c-0.17969,0.14062-0.27051,0.36035-0.27051,0.63965
		c0,0.5498,0.46973,0.90039,1.20996,0.90039C171.59961,45.81885,172.19922,45.14893,172.19922,44.09912z"/>
	<path d="M174.57031,39.34229h0.68945v4.64746l2.45898-2.60938h0.92969l-1.78906,1.84961l2.06934,3.07812h-0.82031l-1.71875-2.64844
		l-1.12988,1.19922v1.44922h-0.68945V39.34229z"/>
	<path d="M183.66895,44.02979h-3.6084c0.02051,1.0791,0.62012,1.72852,1.58887,1.72852c0.54004,0,0.96973-0.13965,1.41992-0.61914
		l0.47949,0.41895c-0.58008,0.61035-1.14941,0.83008-1.90918,0.83008c-1.49902,0-2.26855-1.11914-2.26855-2.51855
		c0-1.38965,0.75977-2.56836,2.18848-2.56836c1.50977,0,2.13867,1.17871,2.13867,2.29785
		C183.69824,43.73975,183.68848,43.90967,183.66895,44.02979z M180.06055,43.44971h2.97852
		c0-0.02051-0.00977-0.07031-0.00977-0.16016c-0.0498-0.7998-0.55957-1.40918-1.46973-1.40918
		C180.66992,41.88037,180.12109,42.58057,180.06055,43.44971z"/>
	<path d="M184.56055,45.09912l0.58008-0.25977c0.17969,0.50977,0.65918,0.93945,1.42871,0.93945
		c0.66992,0,1.09961-0.33008,1.09961-0.84961c0-1.30957-2.83887-0.49023-2.83887-2.23926c0-0.85938,0.7002-1.38867,1.68945-1.38867
		c0.78906,0,1.42871,0.3291,1.76855,1.0293l-0.5498,0.2998c-0.23926-0.44043-0.62891-0.71973-1.23926-0.71973
		c-0.60938,0-0.99902,0.25-0.99902,0.67969c0,1.16895,2.84863,0.42969,2.84863,2.29883c0,0.99902-0.81934,1.49902-1.76953,1.49902
		C185.61035,46.38818,184.82031,45.88818,184.56055,45.09912z"/>
	<path d="M196.98828,43.83936c0,1.46973-0.75,2.54883-2.18848,2.54883c-0.71973,0-1.26953-0.28027-1.62988-0.73926v2.69824h-0.68945
		v-6.9668h0.68945v0.66016c0.37012-0.47949,0.92969-0.75,1.62988-0.75C196.16895,41.29053,196.98828,42.30029,196.98828,43.83936z
		 M196.29883,43.83936c0-1.16895-0.59961-1.93848-1.59961-1.93848c-0.98926,0-1.58887,0.76953-1.58887,1.93848
		c0,1.11914,0.5498,1.93945,1.58887,1.93945C195.74902,45.77881,196.29883,44.9585,196.29883,43.83936z"/>
	<path d="M198.37988,45.23877v-5.89648h0.69043v5.85645c0,0.33984,0.11914,0.55957,0.44922,0.55957
		c0.15039,0,0.32031-0.04004,0.46973-0.08984l0.00977,0.58984c-0.20996,0.06934-0.45898,0.12988-0.67969,0.12988
		C198.75,46.38818,198.37988,46.0083,198.37988,45.23877z"/>
	<path d="M204.78809,43.23975v3.06836h-0.62891l-0.04004-0.75977c-0.39062,0.5498-0.99023,0.83984-1.76953,0.83984
		c-1.06934,0-1.69922-0.55957-1.69922-1.50977c0-0.49902,0.2002-0.87891,0.55957-1.09863
		c0.37988-0.21973,0.91016-0.31055,1.87988-0.31055h1.00879v-0.22949c0-0.85938-0.44922-1.3291-1.2793-1.3291
		c-0.61914,0-1.09961,0.26953-1.49902,0.81934l-0.5-0.41992c0.53027-0.68945,1.16992-1.00879,2.00879-1.00879
		C204.06836,41.30127,204.78809,42.01025,204.78809,43.23975z M204.09863,44.09912v-0.06934h-0.94922
		c-0.90918,0-1.2998,0.05957-1.53906,0.24902c-0.17969,0.14062-0.27051,0.36035-0.27051,0.63965
		c0,0.5498,0.4707,0.90039,1.20996,0.90039C203.49902,45.81885,204.09863,45.14893,204.09863,44.09912z"/>
	<path d="M206.06055,43.85986c0-1.2998,0.72949-2.55859,2.21875-2.55859c0.87891,0,1.6084,0.43945,1.99902,1.3584l-0.66016,0.26074
		c-0.22949-0.62988-0.71973-1.00977-1.33887-1.00977c-1.0498,0-1.51953,0.93945-1.51953,1.94922
		c0,1.00879,0.46973,1.91895,1.5293,1.91895c0.62012,0,1.10938-0.37012,1.29883-1l0.63965,0.24023
		c-0.3291,0.89941-1.04883,1.36914-1.93848,1.36914C206.85938,46.38818,206.06055,45.229,206.06055,43.85986z"/>
	<path d="M215.39844,44.02979h-3.6084c0.02051,1.0791,0.62012,1.72852,1.58887,1.72852c0.54004,0,0.96973-0.13965,1.41992-0.61914
		l0.47949,0.41895c-0.58008,0.61035-1.14941,0.83008-1.90918,0.83008c-1.49902,0-2.26855-1.11914-2.26855-2.51855
		c0-1.38965,0.75977-2.56836,2.18848-2.56836c1.50977,0,2.13867,1.17871,2.13867,2.29785
		C215.42773,43.73975,215.41797,43.90967,215.39844,44.02979z M211.79004,43.44971h2.97852
		c0-0.02051-0.00977-0.07031-0.00977-0.16016c-0.0498-0.7998-0.55957-1.40918-1.46973-1.40918
		C212.39941,41.88037,211.85059,42.58057,211.79004,43.44971z"/>
	<path d="M223.66797,39.34229v6.96582h-0.68945v-0.65918c-0.36035,0.45898-0.91016,0.73926-1.62891,0.73926
		c-1.43945,0-2.18945-1.0791-2.18945-2.54883c0-1.53906,0.81934-2.54883,2.18945-2.54883c0.69922,0,1.25879,0.27051,1.62891,0.75
		v-2.69824H223.66797z M223.03809,43.83936c0-1.16895-0.59961-1.93848-1.58887-1.93848c-1,0-1.59961,0.76953-1.59961,1.93848
		c0,1.11914,0.5498,1.93945,1.59961,1.93945C222.48828,45.77881,223.03809,44.9585,223.03809,43.83936z"/>
	<path d="M229.24805,41.38037v4.92773h-0.69043v-0.70996c-0.34961,0.53027-0.97949,0.79004-1.62891,0.79004
		c-1.11914,0-1.6084-0.76953-1.6084-1.98926v-3.01855h0.68945V44.229c0,0.7998,0.13965,1.5498,1.0791,1.5498
		c0.97949,0,1.46875-0.84961,1.46875-2.12891v-2.26953H229.24805z"/>
	<path d="M234.06836,41.51123l-0.33984,0.55957c-0.23047-0.10059-0.44043-0.15039-0.65039-0.15039
		c-0.75879,0-1.31836,0.56934-1.31836,1.63965v2.74805h-0.69043v-4.92773h0.69043v0.74023
		c0.35938-0.64941,0.95898-0.81934,1.45898-0.81934C233.51855,41.30127,233.79785,41.36084,234.06836,41.51123z"/>
	<path d="M235.03027,39.34229h0.7998v1.01953h-0.7998V39.34229z M235.08984,41.38037h0.68945v4.92773h-0.68945V41.38037z"/>
	<path d="M241.52734,43.28955v3.01855h-0.68945v-2.84863c0-1.05957-0.33984-1.54883-1.0791-1.54883
		c-0.92969,0-1.46973,0.7998-1.46973,2.18848v2.20898h-0.68945v-4.92773h0.68945v0.71973
		c0.32031-0.49902,0.91992-0.79883,1.62988-0.79883C240.97852,41.30127,241.52734,41.98096,241.52734,43.28955z"/>
	<path d="M247.06738,47.06787c0,0.92969-0.86914,1.35938-2.1084,1.35938c-1.36914,0-2.19922-0.54004-2.19922-1.51953
		c0-0.09961,0.01074-0.16016,0.02051-0.21973l0.7998-0.67969c-0.37988-0.16992-0.63965-0.4502-0.63965-0.93945
		c0-0.39941,0.17969-0.69922,0.5293-0.93945c-0.25977-0.2998-0.41992-0.67969-0.41992-1.11914c0-1,0.81934-1.70898,1.87891-1.70898
		c0.47949,0,0.90918,0.14941,1.22949,0.39941l0.67969-0.58984l0.35938,0.4502l-0.66895,0.55957
		c0.16992,0.26953,0.26953,0.5791,0.26953,0.92969c0,1.00879-0.81934,1.67871-1.85938,1.67871
		c-0.37988,0-0.72949-0.08984-1.01855-0.25c-0.2002,0.11035-0.32031,0.29004-0.32031,0.5c0,0.5,0.62012,0.61914,1.3291,0.72949
		C245.9082,45.85791,247.06738,45.99854,247.06738,47.06787z M246.37793,47.12744c0-0.59961-0.7793-0.68945-1.59863-0.81934
		c-0.2207-0.03027-0.4502-0.07031-0.66016-0.12012l-0.66992,0.64941c-0.00977,0.05078-0.00977,0.07031-0.00977,0.09082
		c0,0.69922,0.70996,0.91895,1.5498,0.91895C245.8584,47.84717,246.37793,47.60693,246.37793,47.12744z M243.72949,43.02979
		c0,0.63965,0.45996,1.12988,1.19922,1.12988c0.74023,0,1.17969-0.48047,1.17969-1.12988c0-0.67969-0.45996-1.14941-1.16992-1.14941
		C244.23926,41.88037,243.72949,42.3501,243.72949,43.02979z"/>
	<path fill="#00FFCC" d="M165.33105,57.09912l0.5791-0.25977c0.18066,0.50977,0.66016,0.93945,1.42969,0.93945
		c0.66992,0,1.09961-0.33008,1.09961-0.84961c0-1.30957-2.83887-0.49023-2.83887-2.23926c0-0.85938,0.7002-1.38867,1.68945-1.38867
		c0.78906,0,1.42871,0.3291,1.76855,1.0293l-0.5498,0.2998c-0.23926-0.44043-0.62891-0.71973-1.23926-0.71973
		c-0.60938,0-0.99902,0.25-0.99902,0.67969c0,1.16895,2.84863,0.42969,2.84863,2.29883c0,0.99902-0.81934,1.49902-1.76953,1.49902
		C166.38086,58.38818,165.59082,57.88818,165.33105,57.09912z"/>
	<path fill="#00FFCC" d="M174.36914,56.02979h-3.6084c0.02051,1.0791,0.62012,1.72852,1.58887,1.72852
		c0.54004,0,0.96973-0.13965,1.41992-0.61914l0.47949,0.41895c-0.58008,0.61035-1.14941,0.83008-1.90918,0.83008
		c-1.49902,0-2.26855-1.11914-2.26855-2.51855c0-1.38965,0.75977-2.56836,2.18848-2.56836
		c1.50977,0,2.13867,1.17871,2.13867,2.29785C174.39844,55.73975,174.38867,55.90967,174.36914,56.02979z M170.76074,55.44971
		h2.97852c0-0.02051-0.00977-0.07031-0.00977-0.16016c-0.0498-0.7998-0.55957-1.40918-1.46973-1.40918
		C171.37012,53.88037,170.82129,54.58057,170.76074,55.44971z"/>
	<path fill="#00FFCC" d="M179.9082,53.38037v6.9668h-0.68945v-2.69824c-0.36035,0.45898-0.91016,0.73926-1.62891,0.73926
		c-1.43945,0-2.18945-1.0791-2.18945-2.54883c0-1.53906,0.81934-2.54883,2.18945-2.54883c0.69922,0,1.25879,0.27051,1.62891,0.75
		v-0.66016H179.9082z M179.27832,55.83936c0-1.16895-0.59961-1.93848-1.58887-1.93848c-1,0-1.59961,0.76953-1.59961,1.93848
		c0,1.11914,0.5498,1.93945,1.59961,1.93945C178.72852,57.77881,179.27832,56.9585,179.27832,55.83936z"/>
	<path fill="#00FFCC" d="M185.53906,53.38037v4.92773h-0.69043v-0.70996c-0.34961,0.53027-0.97949,0.79004-1.62891,0.79004
		c-1.11914,0-1.6084-0.76953-1.6084-1.98926v-3.01855h0.68945V56.229c0,0.7998,0.13965,1.5498,1.0791,1.5498
		c0.97949,0,1.46875-0.84961,1.46875-2.12891v-2.26953H185.53906z"/>
	<path fill="#00FFCC" d="M191.20898,56.02979h-3.6084c0.02051,1.0791,0.62012,1.72852,1.58887,1.72852
		c0.54004,0,0.96973-0.13965,1.41992-0.61914l0.47949,0.41895c-0.58008,0.61035-1.14941,0.83008-1.90918,0.83008
		c-1.49902,0-2.26855-1.11914-2.26855-2.51855c0-1.38965,0.75977-2.56836,2.18848-2.56836
		c1.50977,0,2.13867,1.17871,2.13867,2.29785C191.23828,55.73975,191.22852,55.90967,191.20898,56.02979z M187.60059,55.44971
		h2.97852c0-0.02051-0.00977-0.07031-0.00977-0.16016c-0.0498-0.7998-0.55957-1.40918-1.46973-1.40918
		C188.20996,53.88037,187.66113,54.58057,187.60059,55.44971z"/>
	<path fill="#00FFCC" d="M196.55762,55.28955v3.01855h-0.68945v-2.84863c0-1.05957-0.33984-1.54883-1.0791-1.54883
		c-0.92969,0-1.46875,0.7998-1.46875,2.18848v2.20898h-0.69043v-4.92773h0.69043v0.71973
		c0.31934-0.49902,0.91895-0.79883,1.62891-0.79883C196.00879,53.30127,196.55762,53.98096,196.55762,55.28955z"/>
	<path fill="#00FFCC" d="M197.85059,55.85986c0-1.2998,0.72949-2.55859,2.21875-2.55859c0.87891,0,1.6084,0.43945,1.99902,1.3584
		l-0.66016,0.26074c-0.22949-0.62988-0.71973-1.00977-1.33887-1.00977c-1.0498,0-1.51953,0.93945-1.51953,1.94922
		c0,1.00879,0.46973,1.91895,1.5293,1.91895c0.62012,0,1.10938-0.37012,1.29883-1l0.63965,0.24023
		c-0.3291,0.89941-1.04883,1.36914-1.93848,1.36914C198.64941,58.38818,197.85059,57.229,197.85059,55.85986z"/>
	<path fill="#00FFCC" d="M207.18848,56.02979h-3.6084c0.02051,1.0791,0.62012,1.72852,1.58887,1.72852
		c0.54004,0,0.96973-0.13965,1.41992-0.61914l0.47949,0.41895c-0.58008,0.61035-1.14941,0.83008-1.90918,0.83008
		c-1.49902,0-2.26855-1.11914-2.26855-2.51855c0-1.38965,0.75977-2.56836,2.18848-2.56836
		c1.50977,0,2.13867,1.17871,2.13867,2.29785C207.21777,55.73975,207.20801,55.90967,207.18848,56.02979z M203.58008,55.44971
		h2.97852c0-0.02051-0.00977-0.07031-0.00977-0.16016c-0.0498-0.7998-0.55957-1.40918-1.46973-1.40918
		C204.18945,53.88037,203.64062,54.58057,203.58008,55.44971z"/>
	<path fill="#00FFCC" d="M213.24902,54.80029l-2.37891-3.45801h0.85938l2.00977,2.95801l2.01855-2.95801h0.84961l-2.37891,3.45801
		l2.42871,3.50781h-0.85938l-2.06934-2.98828l-2.03809,2.98828h-0.86035L213.24902,54.80029z"/>
</g>
<g>
	<path d="M11.99756,86.03369V93h-0.77979l-3.42773-5.75684V93H7.08008v-6.96631H7.8501l3.43799,5.72705v-5.72705H11.99756z"/>
	<path d="M13.62012,90.53125c0-1.45898,0.94971-2.53857,2.35889-2.53857c1.39941,0,2.36865,1.07959,2.36865,2.53857
		c0,1.44922-0.95947,2.54883-2.36865,2.54883S13.62012,91.99072,13.62012,90.53125z M17.6582,90.53125
		c0-1.11914-0.62988-1.92871-1.6792-1.92871c-1.05957,0-1.66895,0.81934-1.66895,1.92871c0,1.11963,0.61963,1.93896,1.66895,1.93896
		C17.03857,92.47021,17.6582,91.63086,17.6582,90.53125z"/>
	<path d="M22.73828,88.20264l-0.33984,0.55957c-0.22949-0.09961-0.43945-0.1499-0.64941-0.1499
		c-0.75977,0-1.31934,0.56982-1.31934,1.63916V93h-0.68945v-4.92725h0.68945v0.73975
		c0.35986-0.6499,0.95947-0.81982,1.45898-0.81982C22.18848,87.99268,22.46875,88.05273,22.73828,88.20264z"/>
	<path d="M30.5166,89.92188V93h-0.68994v-2.88818c0-0.41992,0-1.50928-1.0791-1.50928c-0.99951,0-1.26953,0.91943-1.26953,2.02881
		V93h-0.68945v-2.84863c0-0.81934-0.25-1.54883-1.10938-1.54883c-0.95947,0-1.22949,0.90918-1.22949,2.02881V93h-0.68945
		L23.75,88.07275h0.66992v0.59961c0.30957-0.48975,0.80957-0.67969,1.35889-0.67969c0.68994,0,1.19971,0.2998,1.44922,0.94971
		c0.31982-0.62988,0.86963-0.94971,1.61914-0.94971C30.02686,87.99268,30.5166,88.77246,30.5166,89.92188z"/>
	<path d="M35.88818,89.93164V93H35.2583l-0.04004-0.75977c-0.38965,0.5498-0.98926,0.83984-1.76904,0.83984
		c-1.06934,0-1.69873-0.56006-1.69873-1.50928c0-0.49951,0.19971-0.87939,0.55957-1.09961
		c0.37988-0.21973,0.90967-0.30957,1.87891-0.30957h1.00928v-0.22998c0-0.85938-0.44971-1.3291-1.2793-1.3291
		c-0.61963,0-1.09912,0.26953-1.49902,0.81934l-0.49951-0.41943c0.5293-0.68994,1.16895-1.00977,2.00879-1.00977
		C35.16846,87.99268,35.88818,88.70215,35.88818,89.93164z M35.19824,90.79102v-0.06982h-0.94922
		c-0.90967,0-1.29932,0.06006-1.53906,0.25c-0.18018,0.13965-0.27002,0.35986-0.27002,0.63965
		c0,0.5498,0.46973,0.89941,1.20947,0.89941C34.59863,92.51025,35.19824,91.84082,35.19824,90.79102z"/>
	<path d="M37.52979,91.93066v-5.89697h0.68945v5.85693c0,0.33984,0.12012,0.55957,0.44971,0.55957
		c0.1499,0,0.31982-0.04004,0.46973-0.08984l0.01025,0.58984c-0.20996,0.06982-0.45996,0.12988-0.67969,0.12988
		C37.89941,93.08008,37.52979,92.7002,37.52979,91.93066z"/>
	<path d="M40.20996,86.03369h0.79932v1.01953h-0.79932V86.03369z M40.27002,88.07275h0.68945V93h-0.68945V88.07275z"/>
	<path d="M46.33789,88.62256l-3.2085,3.7876h3.18848V93h-4.09814v-0.49951l3.27832-3.83789h-3.1084v-0.58984h3.94824V88.62256z"/>
	<path d="M51.54736,90.72119h-3.60791c0.02002,1.07959,0.61963,1.729,1.58936,1.729c0.53955,0,0.96924-0.13965,1.41895-0.61963
		l0.47998,0.41992c-0.57959,0.60938-1.14941,0.82959-1.90918,0.82959c-1.49902,0-2.26855-1.11963-2.26855-2.51855
		c0-1.38965,0.75977-2.56885,2.18896-2.56885c1.50879,0,2.13867,1.1792,2.13867,2.29883
		C51.57764,90.43164,51.56738,90.60107,51.54736,90.72119z M47.93945,90.1416h2.97852c0-0.02002-0.01025-0.06982-0.01025-0.16016
		c-0.0498-0.79932-0.55957-1.40918-1.46875-1.40918C48.54932,88.57227,47.99951,89.27197,47.93945,90.1416z"/>
	<path d="M57.0874,86.03369V93h-0.68994v-0.65967c-0.35938,0.45996-0.90918,0.73975-1.62891,0.73975
		c-1.43896,0-2.18896-1.07959-2.18896-2.54883c0-1.53906,0.81982-2.54834,2.18896-2.54834
		c0.69971,0,1.25928,0.26953,1.62891,0.74951v-2.69873H57.0874z M56.45752,90.53125c0-1.16943-0.59961-1.93896-1.58887-1.93896
		c-0.99951,0-1.59912,0.76953-1.59912,1.93896c0,1.11963,0.5498,1.93896,1.59912,1.93896
		C55.90771,92.47021,56.45752,91.65088,56.45752,90.53125z"/>
	<path d="M13.30908,104.95068c-0.25977,0.07959-0.52002,0.12939-0.74951,0.12939c-0.65967,0-1.13965-0.36963-1.13965-1.23877
		v-3.18848h-0.81934v-0.58008h0.81934v-1.37891l0.68945-0.51953v1.89844h1.18945v0.58008h-1.18945v3.09863
		c0,0.47949,0.22021,0.69922,0.60986,0.69922c0.16992,0,0.35986-0.04004,0.57959-0.10938L13.30908,104.95068z"/>
	<path d="M18.46777,102.72217h-3.60791c0.02002,1.0791,0.61963,1.72852,1.58936,1.72852c0.53955,0,0.96924-0.13965,1.41895-0.61914
		l0.47998,0.41895c-0.57959,0.61035-1.14941,0.82959-1.90918,0.82959c-1.49902,0-2.26855-1.11865-2.26855-2.51807
		c0-1.38965,0.75977-2.56836,2.18896-2.56836c1.50879,0,2.13867,1.17871,2.13867,2.29785
		C18.49805,102.43213,18.48779,102.60205,18.46777,102.72217z M14.85986,102.14209h2.97852
		c0-0.02051-0.01025-0.07031-0.01025-0.16016c-0.0498-0.7998-0.55957-1.40918-1.46875-1.40918
		C15.46973,100.57275,14.91992,101.27295,14.85986,102.14209z"/>
	<path d="M21.03955,102.53174l-1.79932-2.45898h0.83984l1.41895,1.97949l1.40918-1.97949h0.83984l-1.79932,2.45898L23.75781,105
		H22.9082l-1.40918-1.99854L20.08984,105h-0.84961L21.03955,102.53174z"/>
	<path d="M27.01904,104.95068c-0.25977,0.07959-0.52002,0.12939-0.74951,0.12939c-0.65967,0-1.13965-0.36963-1.13965-1.23877
		v-3.18848h-0.81934v-0.58008h0.81934v-1.37891l0.68945-0.51953v1.89844h1.18945v0.58008h-1.18945v3.09863
		c0,0.47949,0.22021,0.69922,0.60986,0.69922c0.16992,0,0.35986-0.04004,0.57959-0.10938L27.01904,104.95068z"/>
	<path d="M31.02002,103.93115v-5.89648h0.68945v5.85645c0,0.33984,0.12012,0.55957,0.44971,0.55957
		c0.1499,0,0.31982-0.04004,0.46973-0.08984l0.01025,0.58984c-0.20996,0.06885-0.45996,0.12939-0.67969,0.12939
		C31.38965,105.08008,31.02002,104.70068,31.02002,103.93115z"/>
	<path d="M37.65723,102.72217h-3.60791c0.02002,1.0791,0.61963,1.72852,1.58936,1.72852c0.53955,0,0.96924-0.13965,1.41895-0.61914
		l0.47998,0.41895c-0.57959,0.61035-1.14941,0.82959-1.90918,0.82959c-1.49902,0-2.26855-1.11865-2.26855-2.51807
		c0-1.38965,0.75977-2.56836,2.18896-2.56836c1.50879,0,2.13867,1.17871,2.13867,2.29785
		C37.6875,102.43213,37.67725,102.60205,37.65723,102.72217z M34.04932,102.14209h2.97852
		c0-0.02051-0.01025-0.07031-0.01025-0.16016c-0.0498-0.7998-0.55957-1.40918-1.46875-1.40918
		C34.65918,100.57275,34.10938,101.27295,34.04932,102.14209z"/>
	<path d="M43.00781,101.98193V105h-0.68945v-2.84814c0-1.05957-0.33984-1.54883-1.07959-1.54883
		c-0.92969,0-1.46924,0.7998-1.46924,2.18848V105h-0.68945v-4.92725h0.68945v0.71973
		c0.31982-0.49902,0.91943-0.79883,1.62891-0.79883C42.45801,99.99365,43.00781,100.67334,43.00781,101.98193z"/>
	<path d="M48.54785,105.75977c0,0.92969-0.86963,1.35938-2.10889,1.35938c-1.36914,0-2.19873-0.54004-2.19873-1.51953
		c0-0.09961,0.00977-0.16016,0.02002-0.21973l0.79932-0.6792c-0.37988-0.16992-0.63965-0.4502-0.63965-0.93945
		c0-0.39941,0.17969-0.69922,0.52979-0.93945c-0.25977-0.2998-0.41992-0.67969-0.41992-1.11914c0-1,0.81982-1.70898,1.87891-1.70898
		c0.47998,0,0.90967,0.14941,1.22949,0.39941l0.67969-0.58984l0.35986,0.4502l-0.66992,0.55957
		c0.16992,0.26953,0.27002,0.5791,0.27002,0.92969c0,1.00879-0.81934,1.67871-1.85889,1.67871
		c-0.37988,0-0.72949-0.08984-1.01953-0.25c-0.19971,0.11035-0.31982,0.29004-0.31982,0.5c0,0.5,0.61963,0.61914,1.3291,0.72949
		C47.38818,104.55029,48.54785,104.69092,48.54785,105.75977z M47.85791,105.81934c0-0.59961-0.7793-0.68945-1.59912-0.81934
		c-0.21973-0.02979-0.44971-0.06982-0.65967-0.11963l-0.66943,0.64893c-0.00977,0.05078-0.00977,0.07031-0.00977,0.09082
		c0,0.69922,0.70947,0.91895,1.54883,0.91895C47.33838,106.53906,47.85791,106.29883,47.85791,105.81934z M45.20947,101.72217
		c0,0.63965,0.45996,1.12988,1.19922,1.12988c0.73975,0,1.17969-0.48047,1.17969-1.12988c0-0.67969-0.45996-1.14941-1.16943-1.14941
		C45.71924,100.57275,45.20947,101.04248,45.20947,101.72217z"/>
	<path d="M51.96875,104.95068c-0.25977,0.07959-0.52002,0.12939-0.74951,0.12939c-0.65967,0-1.13965-0.36963-1.13965-1.23877
		v-3.18848h-0.81934v-0.58008h0.81934v-1.37891l0.68994-0.51953v1.89844h1.18896v0.58008h-1.18896v3.09863
		c0,0.47949,0.21973,0.69922,0.60938,0.69922c0.16992,0,0.35986-0.04004,0.57959-0.10938L51.96875,104.95068z"/>
	<path d="M57.20752,101.98193V105h-0.68945v-2.84814c0-1.06934-0.33984-1.54883-1.07959-1.54883
		c-0.93945,0-1.46924,0.76953-1.46924,2.12891V105h-0.68945v-6.96533h0.68945v2.75781
		c0.31982-0.49902,0.91943-0.79883,1.62891-0.79883C56.65771,99.99365,57.20752,100.67334,57.20752,101.98193z"/>
</g>
<g>
	<path d="M41.39014,151.59375h4.56787v0.65918H42.1001v2.42871h3.46777v0.66016H42.1001v2.55859h3.85791v0.65918h-4.56787V151.59375
		z"/>
	<path d="M51.4082,155.54102v3.01855h-0.68945v-2.84863c0-1.05859-0.33984-1.54883-1.07959-1.54883
		c-0.92969,0-1.46924,0.7998-1.46924,2.18848v2.20898h-0.68945v-4.92676h0.68945v0.71973c0.31982-0.5,0.91943-0.7998,1.62891-0.7998
		C50.8584,153.55273,51.4082,154.23242,51.4082,155.54102z"/>
	<path d="M57.22803,151.59375v6.96582h-0.68994v-0.65918c-0.35938,0.45996-0.90918,0.73926-1.62891,0.73926
		c-1.43896,0-2.18896-1.0791-2.18896-2.54883c0-1.53906,0.81982-2.54785,2.18896-2.54785c0.69971,0,1.25928,0.26953,1.62891,0.74902
		v-2.69824H57.22803z M56.59814,156.09082c0-1.16895-0.59961-1.93848-1.58887-1.93848c-0.99951,0-1.59912,0.76953-1.59912,1.93848
		c0,1.12012,0.5498,1.93945,1.59912,1.93945C56.04834,158.03027,56.59814,157.21094,56.59814,156.09082z"/>
</g>
<g>
	<path d="M81.96631,168.93359h0.70898v6.30664H85.854v0.65918h-3.8877V168.93359z"/>
	<path d="M87.33643,168.93359h4.56738v0.65918h-3.8584v2.42871h3.46875v0.66016h-3.46875v2.55859h3.8584v0.65918h-4.56738V168.93359
		z"/>
	<path d="M98.9624,168.93359l-2.74805,6.96582h-0.58008l-2.75879-6.96582h0.79004l2.25879,5.85645l2.25879-5.85645H98.9624z"/>
	<path d="M100.46631,168.93359h4.56738v0.65918h-3.8584v2.42871h3.46875v0.66016h-3.46875v2.55859h3.8584v0.65918h-4.56738
		V168.93359z"/>
	<path d="M106.78564,168.93359h0.70898v6.30664h3.17871v0.65918h-3.8877V168.93359z"/>
</g>
<g>
	<path d="M123.23926,168.93359h0.70898v6.30664h3.17871v0.65918h-3.8877V168.93359z"/>
	<path d="M128.60938,168.93359h4.56738v0.65918h-3.8584v2.42871h3.46875v0.66016h-3.46875v2.55859h3.8584v0.65918h-4.56738
		V168.93359z"/>
	<path d="M140.23535,168.93359l-2.74805,6.96582h-0.58008l-2.75879-6.96582h0.79004l2.25879,5.85645l2.25879-5.85645H140.23535z"/>
	<path d="M141.73926,168.93359h4.56738v0.65918h-3.8584v2.42871h3.46875v0.66016h-3.46875v2.55859h3.8584v0.65918h-4.56738
		V168.93359z"/>
	<path d="M148.05859,168.93359h0.70898v6.30664h3.17871v0.65918h-3.8877V168.93359z"/>
	<path d="M160.24707,175.25v0.64941h-4.81738v-0.63965c1.62891-1.01953,3.79785-2.47852,3.79785-4.32715
		c0-0.87988-0.49023-1.43945-1.38965-1.43945c-1.05957,0-1.53906,0.76953-1.54883,1.79883l-0.67969-0.0498
		c0-1.36914,0.78906-2.4082,2.22852-2.4082c1.23926,0,2.08887,0.76953,2.08887,2.1084c0,1.7793-1.5791,3.19824-3.34766,4.30762
		H160.24707z"/>
</g>
<g>
	<path fill="#C6CACF" d="M83.10596,184.93359h1.88867c2.26855,0,3.55762,1.28906,3.55762,3.53809
		c0,2.21875-1.25879,3.42773-3.56738,3.42773h-1.87891V184.93359z M84.92432,191.24023c1.94922,0,2.90918-0.91992,2.90918-2.79883
		c0-1.88867-0.95996-2.84863-2.84863-2.84863h-1.16992v5.64746H84.92432z"/>
	<path fill="#C6CACF" d="M94.02393,189.62109h-3.6084c0.02051,1.0791,0.62012,1.72852,1.58887,1.72852
		c0.54004,0,0.96973-0.13965,1.41992-0.61914l0.47949,0.41992c-0.58008,0.60938-1.14941,0.8291-1.90918,0.8291
		c-1.49902,0-2.26855-1.11914-2.26855-2.51855c0-1.38965,0.75977-2.56836,2.18848-2.56836
		c1.50977,0,2.13867,1.17871,2.13867,2.29883C94.05322,189.33105,94.04346,189.50098,94.02393,189.62109z M90.41553,189.04102
		h2.97852c0-0.01953-0.00977-0.06934-0.00977-0.16016c-0.0498-0.79883-0.55957-1.40918-1.46973-1.40918
		C91.0249,187.47168,90.47607,188.17188,90.41553,189.04102z"/>
	<path fill="#C6CACF" d="M97.49463,191.84961c-0.25977,0.08008-0.51953,0.12988-0.74902,0.12988
		c-0.66016,0-1.13965-0.37012-1.13965-1.23926v-3.18848h-0.81934v-0.5791h0.81934v-1.37988l0.68945-0.51953v1.89941h1.18945v0.5791
		h-1.18945v3.09863c0,0.47949,0.21973,0.69922,0.61035,0.69922c0.16992,0,0.35938-0.04004,0.5791-0.10938L97.49463,191.84961z"/>
	<path fill="#C6CACF" d="M102.47314,188.83105v3.06836h-0.62891l-0.04004-0.75977c-0.39062,0.5498-0.99023,0.83984-1.76953,0.83984
		c-1.06934,0-1.69922-0.55957-1.69922-1.50879c0-0.5,0.2002-0.87988,0.55957-1.09961
		c0.37988-0.21973,0.91016-0.30957,1.87988-0.30957h1.00879v-0.23047c0-0.85938-0.44922-1.3291-1.2793-1.3291
		c-0.61914,0-1.09961,0.26953-1.49902,0.81934l-0.5-0.41895c0.53027-0.69043,1.16992-1.00977,2.00879-1.00977
		C101.75342,186.89258,102.47314,187.60156,102.47314,188.83105z M101.78369,189.69043v-0.06934h-0.94922
		c-0.90918,0-1.2998,0.05957-1.53906,0.25c-0.17969,0.13965-0.27051,0.35938-0.27051,0.63965
		c0,0.5498,0.4707,0.89941,1.20996,0.89941C101.18408,191.41016,101.78369,190.74023,101.78369,189.69043z"/>
	<path fill="#C6CACF" d="M104.09521,184.93359h0.7998v1.01953h-0.7998V184.93359z M104.15479,186.97266h0.69043v4.92676h-0.69043
		V186.97266z"/>
	<path fill="#C6CACF" d="M106.62549,190.83008v-5.89648h0.69043v5.85645c0,0.33984,0.11914,0.55957,0.44922,0.55957
		c0.15039,0,0.32031-0.04004,0.46973-0.08984l0.00977,0.58984c-0.20996,0.07031-0.45898,0.12988-0.67969,0.12988
		C106.99561,191.97949,106.62549,191.59961,106.62549,190.83008z"/>
</g>
<g>
	<path fill="#C6CACF" d="M125.73926,184.93359h1.88867c2.26855,0,3.55762,1.28906,3.55762,3.53809
		c0,2.21875-1.25879,3.42773-3.56738,3.42773h-1.87891V184.93359z M127.55762,191.24023c1.94922,0,2.90918-0.91992,2.90918-2.79883
		c0-1.88867-0.95996-2.84863-2.84863-2.84863h-1.16992v5.64746H127.55762z"/>
	<path fill="#C6CACF" d="M136.65723,189.62109h-3.6084c0.02051,1.0791,0.62012,1.72852,1.58887,1.72852
		c0.54004,0,0.96973-0.13965,1.41992-0.61914l0.47949,0.41992c-0.58008,0.60938-1.14941,0.8291-1.90918,0.8291
		c-1.49902,0-2.26855-1.11914-2.26855-2.51855c0-1.38965,0.75977-2.56836,2.18848-2.56836
		c1.50977,0,2.13867,1.17871,2.13867,2.29883C136.68652,189.33105,136.67676,189.50098,136.65723,189.62109z M133.04883,189.04102
		h2.97852c0-0.01953-0.00977-0.06934-0.00977-0.16016c-0.0498-0.79883-0.55957-1.40918-1.46973-1.40918
		C133.6582,187.47168,133.10938,188.17188,133.04883,189.04102z"/>
	<path fill="#C6CACF" d="M140.12793,191.84961c-0.25977,0.08008-0.51953,0.12988-0.74902,0.12988
		c-0.66016,0-1.13965-0.37012-1.13965-1.23926v-3.18848h-0.81934v-0.5791h0.81934v-1.37988l0.68945-0.51953v1.89941h1.18945v0.5791
		h-1.18945v3.09863c0,0.47949,0.21973,0.69922,0.61035,0.69922c0.16992,0,0.35938-0.04004,0.5791-0.10938L140.12793,191.84961z"/>
	<path fill="#C6CACF" d="M145.10645,188.83105v3.06836h-0.62891l-0.04004-0.75977c-0.39062,0.5498-0.99023,0.83984-1.76953,0.83984
		c-1.06934,0-1.69922-0.55957-1.69922-1.50879c0-0.5,0.2002-0.87988,0.55957-1.09961
		c0.37988-0.21973,0.91016-0.30957,1.87988-0.30957h1.00879v-0.23047c0-0.85938-0.44922-1.3291-1.2793-1.3291
		c-0.61914,0-1.09961,0.26953-1.49902,0.81934l-0.5-0.41895c0.53027-0.69043,1.16992-1.00977,2.00879-1.00977
		C144.38672,186.89258,145.10645,187.60156,145.10645,188.83105z M144.41699,189.69043v-0.06934h-0.94922
		c-0.90918,0-1.2998,0.05957-1.53906,0.25c-0.17969,0.13965-0.27051,0.35938-0.27051,0.63965
		c0,0.5498,0.4707,0.89941,1.20996,0.89941C143.81738,191.41016,144.41699,190.74023,144.41699,189.69043z"/>
	<path fill="#C6CACF" d="M146.72852,184.93359h0.7998v1.01953h-0.7998V184.93359z M146.78809,186.97266h0.69043v4.92676h-0.69043
		V186.97266z"/>
	<path fill="#C6CACF" d="M149.25879,190.83008v-5.89648h0.69043v5.85645c0,0.33984,0.11914,0.55957,0.44922,0.55957
		c0.15039,0,0.32031-0.04004,0.46973-0.08984l0.00977,0.58984c-0.20996,0.07031-0.45898,0.12988-0.67969,0.12988
		C149.62891,191.97949,149.25879,191.59961,149.25879,190.83008z"/>
</g>
<g>
	<g>
		<path d="M181.96875,190.06055l0.70996-0.16992c0.12988,0.89941,0.80957,1.46973,1.74902,1.46973
			c1.00977,0,1.51953-0.53027,1.51953-1.21973c0-0.75-0.42969-1.13965-1.65918-1.60938
			c-1.40918-0.5293-1.89941-1.0293-1.89941-1.93848c0-1.05957,0.7998-1.75879,1.97949-1.75879
			c0.87891,0,1.56934,0.38965,1.98828,1.12891l-0.59961,0.37012c-0.2998-0.54004-0.80957-0.85938-1.40918-0.85938
			c-0.72949,0-1.24902,0.49902-1.24902,1.08887c0,0.63965,0.47949,0.97949,1.5791,1.39941
			c1.54883,0.58984,1.98926,1.14941,1.98926,2.11914c0,1.16895-0.80957,1.91895-2.24902,1.91895
			C183.12891,192,182.15918,191.23047,181.96875,190.06055z"/>
		<path d="M192.12695,189.62109h-3.6084c0.02051,1.0791,0.62012,1.72852,1.58887,1.72852c0.54004,0,0.96973-0.13965,1.41992-0.61914
			l0.47949,0.41992c-0.58008,0.60938-1.14941,0.8291-1.90918,0.8291c-1.49902,0-2.26855-1.11914-2.26855-2.51855
			c0-1.38965,0.75977-2.56836,2.18848-2.56836c1.50977,0,2.13867,1.17871,2.13867,2.29883
			C192.15625,189.33105,192.14648,189.50098,192.12695,189.62109z M188.51855,189.04102h2.97852
			c0-0.01953-0.00977-0.06934-0.00977-0.16016c-0.0498-0.79883-0.55957-1.40918-1.46973-1.40918
			C189.12793,187.47168,188.5791,188.17188,188.51855,189.04102z"/>
		<path d="M197.66699,186.97266v6.96582h-0.68945v-2.69824c-0.36035,0.45996-0.91016,0.73926-1.62891,0.73926
			c-1.43945,0-2.18945-1.0791-2.18945-2.54883c0-1.53906,0.81934-2.54785,2.18945-2.54785
			c0.69922,0,1.25879,0.26953,1.62891,0.74902v-0.65918H197.66699z M197.03711,189.43066c0-1.16895-0.59961-1.93848-1.58887-1.93848
			c-1,0-1.59961,0.76953-1.59961,1.93848c0,1.12012,0.5498,1.93945,1.59961,1.93945
			C196.4873,191.37012,197.03711,190.55078,197.03711,189.43066z"/>
		<path d="M203.29688,186.97266v4.92676h-0.69043v-0.70898c-0.34961,0.5293-0.97949,0.78906-1.62891,0.78906
			c-1.11914,0-1.6084-0.76953-1.6084-1.98926v-3.01758h0.68945v2.84863c0,0.79883,0.13965,1.54883,1.0791,1.54883
			c0.97949,0,1.46875-0.84961,1.46875-2.12891v-2.26855H203.29688z"/>
		<path d="M208.9668,189.62109h-3.6084c0.02051,1.0791,0.62012,1.72852,1.58887,1.72852c0.54004,0,0.96973-0.13965,1.41992-0.61914
			l0.47949,0.41992c-0.58008,0.60938-1.14941,0.8291-1.90918,0.8291c-1.49902,0-2.26855-1.11914-2.26855-2.51855
			c0-1.38965,0.75977-2.56836,2.18848-2.56836c1.50977,0,2.13867,1.17871,2.13867,2.29883
			C208.99609,189.33105,208.98633,189.50098,208.9668,189.62109z M205.3584,189.04102h2.97852
			c0-0.01953-0.00977-0.06934-0.00977-0.16016c-0.0498-0.79883-0.55957-1.40918-1.46973-1.40918
			C205.96777,187.47168,205.41895,188.17188,205.3584,189.04102z"/>
		<path d="M214.31641,188.88086v3.01855h-0.68945v-2.84863c0-1.05859-0.33984-1.54883-1.0791-1.54883
			c-0.92969,0-1.46875,0.7998-1.46875,2.18848v2.20898h-0.69043v-4.92676h0.69043v0.71973
			c0.31934-0.5,0.91895-0.7998,1.62891-0.7998C213.76758,186.89258,214.31641,187.57227,214.31641,188.88086z"/>
		<path d="M215.60938,189.45117c0-1.2998,0.72949-2.55859,2.21875-2.55859c0.87891,0,1.6084,0.43945,1.99902,1.35938
			l-0.66016,0.25977c-0.22949-0.62988-0.71973-1.00977-1.33887-1.00977c-1.0498,0-1.51953,0.93945-1.51953,1.94922
			s0.46973,1.91895,1.5293,1.91895c0.62012,0,1.10938-0.37012,1.29883-1l0.63965,0.24023
			c-0.3291,0.89941-1.04883,1.36914-1.93848,1.36914C216.4082,191.97949,215.60938,190.82031,215.60938,189.45117z"/>
		<path d="M224.94727,189.62109h-3.6084c0.02051,1.0791,0.62012,1.72852,1.58887,1.72852c0.54004,0,0.96973-0.13965,1.41992-0.61914
			l0.47949,0.41992c-0.58008,0.60938-1.14941,0.8291-1.90918,0.8291c-1.49902,0-2.26855-1.11914-2.26855-2.51855
			c0-1.38965,0.75977-2.56836,2.18848-2.56836c1.50977,0,2.13867,1.17871,2.13867,2.29883
			C224.97656,189.33105,224.9668,189.50098,224.94727,189.62109z M221.33887,189.04102h2.97852
			c0-0.01953-0.00977-0.06934-0.00977-0.16016c-0.0498-0.79883-0.55957-1.40918-1.46973-1.40918
			C221.94824,187.47168,221.39941,188.17188,221.33887,189.04102z"/>
		<path d="M231.14746,191.84961c-0.25977,0.08008-0.51953,0.12988-0.74902,0.12988c-0.66016,0-1.13965-0.37012-1.13965-1.23926
			v-3.18848h-0.81934v-0.5791h0.81934v-1.37988l0.68945-0.51953v1.89941h1.18945v0.5791h-1.18945v3.09863
			c0,0.47949,0.21973,0.69922,0.61035,0.69922c0.16992,0,0.35938-0.04004,0.5791-0.10938L231.14746,191.84961z"/>
		<path d="M233.86719,191.83984l-2.08887-4.86719h0.75977l1.69922,4.05762l1.48926-4.05762h0.75977l-2.69922,6.96582h-0.73926
			L233.86719,191.83984z"/>
		<path d="M242.11621,189.43066c0,1.46973-0.75,2.54883-2.18848,2.54883c-0.71973,0-1.26953-0.2793-1.62988-0.73926v2.69824
			h-0.68945v-6.96582h0.68945v0.65918c0.37012-0.47949,0.92969-0.74902,1.62988-0.74902
			C241.29688,186.88281,242.11621,187.8916,242.11621,189.43066z M241.42676,189.43066c0-1.16895-0.59961-1.93848-1.59961-1.93848
			c-0.98926,0-1.58887,0.76953-1.58887,1.93848c0,1.12012,0.5498,1.93945,1.58887,1.93945
			C240.87695,191.37012,241.42676,190.55078,241.42676,189.43066z"/>
		<path d="M247.44629,189.62109h-3.6084c0.02051,1.0791,0.62012,1.72852,1.58887,1.72852c0.54004,0,0.96973-0.13965,1.41992-0.61914
			l0.47949,0.41992c-0.58008,0.60938-1.14941,0.8291-1.90918,0.8291c-1.49902,0-2.26855-1.11914-2.26855-2.51855
			c0-1.38965,0.75977-2.56836,2.18848-2.56836c1.50977,0,2.13867,1.17871,2.13867,2.29883
			C247.47559,189.33105,247.46582,189.50098,247.44629,189.62109z M243.83789,189.04102h2.97852
			c0-0.01953-0.00977-0.06934-0.00977-0.16016c-0.0498-0.79883-0.55957-1.40918-1.46973-1.40918
			C244.44727,187.47168,243.89844,188.17188,243.83789,189.04102z"/>
	</g>
</g>
</svg>
