<svg xmlns="http://www.w3.org/2000/svg" xmlns:xlink="http://www.w3.org/1999/xlink" width="43" height="37" viewBox="0 0 43 37">
  <defs>
    <clipPath id="clip-Artboard_5">
      <rect width="43" height="37"/>
    </clipPath>
  </defs>
  <g id="Artboard_5" data-name="Artboard – 5" clip-path="url(#clip-Artboard_5)">
    <rect width="43" height="37" fill="#fff"/>
    <path id="Path_147339" data-name="Path 147339" d="M287.676,429.588a20.4,20.4,0,0,1,1.257-5.2,19.841,19.841,0,0,1,2.505-4.56,19.4,19.4,0,0,1,3.507-3.637,18.658,18.658,0,0,1,4.213-2.513,18.073,18.073,0,0,1,4.58-1.281,17.509,17.509,0,0,1,4.606-.033,16.919,16.919,0,0,1,4.309,1.142,16.427,16.427,0,0,1,3.729,2.16,15.789,15.789,0,0,1,2.921,2.96,15.15,15.15,0,0,1,1.967,3.5,14.5,14.5,0,0,1,.936,3.75,14.024,14.024,0,0,1-.082,3.715A13.537,13.537,0,0,1,321.1,433a12.943,12.943,0,0,1-1.816,2.9,12.5,12.5,0,0,1-2.413,2.209,11.831,11.831,0,0,1-2.783,1.42,11.319,11.319,0,0,1-2.921.592,10.584,10.584,0,0,1-2.821-.2,10.147,10.147,0,0,1-2.528-.908,9.535,9.535,0,0,1-2.067-1.473,8.92,8.92,0,0,1-1.5-1.865,8.339,8.339,0,0,1-.871-2.071,7.8,7.8,0,0,1-.249-2.087,7.305,7.305,0,0,1,.318-1.932,6.708,6.708,0,0,1,.792-1.634,6.145,6.145,0,0,1,1.126-1.236,5.627,5.627,0,0,1,1.318-.783,5.1,5.1,0,0,1,1.361-.324,4.479,4.479,0,0,1,1.255.1,3.933,3.933,0,0,1,1.04.439,3.5,3.5,0,0,1,.743.671,3.048,3.048,0,0,1,.4.783,1.719,1.719,0,0,1-.153,1.416,3.5,3.5,0,0,1-.441.424c-.043.025-.553.149-.553.149s-.51.124-.557.149a3.49,3.49,0,0,0-.437.424,2.767,2.767,0,0,0-.224.645,2.808,2.808,0,0,0,.069.771,3.19,3.19,0,0,0,.4.783,3.46,3.46,0,0,0,.745.671,3.928,3.928,0,0,0,1.04.439,4.477,4.477,0,0,0,1.255.1,5.076,5.076,0,0,0,1.359-.324,5.587,5.587,0,0,0,1.318-.783,6.159,6.159,0,0,0,1.128-1.236,6.7,6.7,0,0,0,.789-1.634,7.31,7.31,0,0,0,.32-1.932,7.726,7.726,0,0,0-.251-2.087,8.184,8.184,0,0,0-.871-2.071,8.906,8.906,0,0,0-1.493-1.865,9.582,9.582,0,0,0-2.067-1.473,10.154,10.154,0,0,0-2.528-.908,10.584,10.584,0,0,0-2.821-.2,11.289,11.289,0,0,0-2.921.592,11.8,11.8,0,0,0-2.783,1.42,12.5,12.5,0,0,0-2.413,2.209,12.881,12.881,0,0,0-1.818,2.9,13.532,13.532,0,0,0-1.024,3.417,14.373,14.373,0,0,0-.086,3.715,14.749,14.749,0,0,0,.936,3.75,15.312,15.312,0,0,0,1.969,3.5,15.863,15.863,0,0,0,2.923,2.96,16.338,16.338,0,0,0,3.729,2.16,16.922,16.922,0,0,0,4.309,1.142,17.509,17.509,0,0,0,4.606-.033,18.038,18.038,0,0,0,4.578-1.281,18.61,18.61,0,0,0,4.213-2.513,19.329,19.329,0,0,0,3.507-3.637,19.765,19.765,0,0,0,2.507-4.559,20.49,20.49,0,0,0,1.259-5.2" transform="translate(-286.514 -410.892)" fill="none" stroke="#1a1818" stroke-miterlimit="10" stroke-width="0.75"/>
  </g>
</svg>
