<svg xmlns="http://www.w3.org/2000/svg" xmlns:xlink="http://www.w3.org/1999/xlink" width="235" height="100" viewBox="0 0 235 100"><defs><linearGradient id="a" y1="0.5" x2="1" y2="0.5" gradientUnits="objectBoundingBox"><stop offset="0" stop-color="#d1d1f8"/><stop offset="1" stop-color="#f5f5fd"/></linearGradient><linearGradient id="b" y1="0.5" x2="0.958" y2="0.5" gradientUnits="objectBoundingBox"><stop offset="0" stop-color="#ffe37d"/><stop offset="1" stop-color="#fffcf0"/></linearGradient><linearGradient id="c" y1="0.5" x2="1" y2="0.5" gradientUnits="objectBoundingBox"><stop offset="0" stop-color="#6cd3bf"/><stop offset="1" stop-color="#e7fcf8"/></linearGradient></defs><g transform="translate(-748 -601)"><rect width="235" height="100" transform="translate(748 601)" fill="#f3f3f3"/><text transform="translate(770 663)" fill="#666" font-size="10" font-family="HKGrotesk-MediumItalic, HK Grotesk" font-weight="500" font-style="italic"><tspan x="0" y="0">L’area verde indica la presenza di testo </tspan><tspan y="0" fill="#00c19c" font-family="HKGrotesk-BoldItalic, HK Grotesk" font-weight="700">misto</tspan><tspan y="0">,</tspan><tspan x="0" y="12">ovvero un’occorrenza di testo </tspan><tspan y="12" fill="#5151fc" font-family="HKGrotesk-BoldItalic, HK Grotesk" font-weight="700">dubitativo</tspan><tspan x="0" y="24">che successivamente diventa </tspan><tspan y="24" fill="#e3b40c" font-family="HKGrotesk-BoldItalic, HK Grotesk" font-weight="700">soggetto</tspan><tspan y="24">.</tspan></text><g transform="translate(189 -4116)"><rect width="44" height="14" transform="translate(651 4719) rotate(90)" fill="url(#a)"/><rect width="44" height="42" transform="translate(637 4719) rotate(90)" fill="url(#b)"/><line x2="42" transform="translate(595 4719)" fill="none" stroke="#ffc806" stroke-width="1"/><line x2="14" transform="translate(637 4719)" fill="none" stroke="#bbf" stroke-width="1"/><rect width="10" height="14" transform="translate(629 4753) rotate(90)" fill="#d1d1f8"/><rect width="34" height="14" transform="translate(629 4719) rotate(90)" fill="url(#c)"/><rect width="10" height="14" transform="translate(615 4753) rotate(90)" fill="#ffe37d"/><line x2="14" transform="translate(601 4753)" fill="none" stroke="#ffc806" stroke-width="1"/><line x2="14" transform="translate(615 4753)" fill="none" stroke="#bbf" stroke-width="1"/><line x2="14" transform="translate(615 4719)" fill="none" stroke="#00c19c" stroke-width="1"/><path d="M24.56,0h81.373" transform="translate(556.608 4762.5)" fill="none" stroke="#707070" stroke-width="1"/></g></g></svg>