<?xml version="1.0" encoding="utf-8"?>
<!-- Generator: Adobe Illustrator 23.1.1, SVG Export Plug-In . SVG Version: 6.00 Build 0)  -->
<svg version="1.1" id="Layer_1" xmlns="http://www.w3.org/2000/svg" xmlns:xlink="http://www.w3.org/1999/xlink" x="0px" y="0px"
	 viewBox="0 0 95.5 112.6" style="enable-background:new 0 0 95.5 112.6;" xml:space="preserve">
<style type="text/css">
	.st0{font-family:'HKGrotesk-Regular';}
	.st1{font-size:9px;}
	.st2{fill:#FFA500;stroke:#FBFBFC;stroke-width:0.5;}
	.st3{fill:#00C19C;stroke:#FBFBFC;stroke-width:0.5;}
	.st4{fill:#FF6C39;stroke:#FBFBFC;stroke-width:0.25;}
	.st5{fill:#C6CACF;stroke:#FBFBFC;stroke-width:0.25;}
	.st6{fill:#5151FC;stroke:#FBFBFC;stroke-width:0.25;stroke-linejoin:round;}
	.st7{fill:#BBBBFF;stroke:#FBFBFC;stroke-width:0.25;stroke-linejoin:round;}
</style>
<text transform="matrix(1 0 0 1 24.1579 28.4367)" class="st0 st1">Nominati terrestri</text>
<text transform="matrix(1 0 0 1 24.1579 105.8368)" class="st0 st1">No ambientazione</text>
<text transform="matrix(1 0 0 1 24.1579 8.8367)" class="st0 st1">Generici terrestri</text>
<path id="Oval" class="st2" d="M6.9,0.8c3.4,0,6.2,2.8,6.2,6.2s-2.8,6.2-6.2,6.2S0.7,10.5,0.7,7l0,0C0.7,3.6,3.4,0.9,6.9,0.8z"/>
<path id="Oval-2" class="st3" d="M6.9,19.8c3.4,0,6.2,2.8,6.2,6.2s-2.8,6.2-6.2,6.2c-3.4,0-6.2-2.8-6.2-6.2c0,0,0,0,0,0l0,0
	C0.7,22.6,3.4,19.9,6.9,19.8z"/>
<circle id="Oval-3" class="st4" cx="6.9" cy="85" r="6.2"/>
<circle id="Oval-4" class="st5" cx="6.9" cy="104" r="6.2"/>
<text transform="matrix(1 0 0 1 24.1579 47.8367)" class="st0 st1">Generici cosmici</text>
<text transform="matrix(1 0 0 1 24.1579 67.4357)" class="st0 st1">Nominati cosmici</text>
<circle id="Oval-5" class="st6" cx="6.9" cy="65" r="6.2"/>
<circle id="Oval-6" class="st7" cx="6.9" cy="46" r="6.2"/>
<text transform="matrix(1 0 0 1 24.1579 86.8358)" class="st0 st1">Inventati</text>
</svg>
