<?xml version="1.0" encoding="utf-8"?>
<!-- Generator: Adobe Illustrator 25.1.0, SVG Export Plug-In . SVG Version: 6.00 Build 0)  -->
<svg version="1.1" id="Livello_1" xmlns="http://www.w3.org/2000/svg" xmlns:xlink="http://www.w3.org/1999/xlink" x="0px" y="0px"
	 viewBox="0 0 900 119" enable-background="new 0 0 900 119" xml:space="preserve">
<g>
	<defs>
		<rect id="SVGID_1_" y="0" width="900" height="119"/>
	</defs>
	<clipPath id="SVGID_2_">
		<use xlink:href="#SVGID_1_"  overflow="visible"/>
	</clipPath>
	<g id="zoom-03" clip-path="url(#SVGID_2_)">
		<g id="assi" transform="translate(0 30.765)">
			<g enable-background="new    ">
				<path d="M1.51807,60.45784h2.3291c1.35889,0,2.16846,0.64941,2.16846,1.74902c0,0.67969-0.2998,1.20898-0.81934,1.47852
					c0.76953,0.25,1.1792,0.83984,1.1792,1.72949c0,1.26953-0.82959,2.00879-2.24854,2.00879H1.51807V60.45784z M3.89697,63.31624
					c0.66943,0,1.04932-0.33008,1.04932-0.91992c0-0.60938-0.39941-0.94922-1.09912-0.94922H2.58789v1.86914H3.89697z
					 M4.03711,66.4344c0.79932,0,1.26904-0.41016,1.26904-1.10938c0-0.66016-0.42969-1.04004-1.19922-1.04004H2.58789v2.14941
					H4.03711z"/>
				<path d="M11.76562,65.28499H8.30762c0.04004,0.78906,0.50977,1.29883,1.34912,1.29883
					c0.47998,0,0.88965-0.13965,1.25928-0.55957l0.71973,0.62012c-0.55957,0.60938-1.1792,0.86914-1.98877,0.86914
					c-1.62891,0-2.36865-1.17969-2.36865-2.52832c0-1.31934,0.71973-2.5791,2.28857-2.5791c1.5293,0,2.229,1.13965,2.229,2.42871
					C11.7959,64.98518,11.78564,65.1346,11.76562,65.28499z M10.80615,64.45491v-0.01953
					c-0.02002-0.69922-0.50977-1.16992-1.23926-1.16992c-0.78955,0-1.18945,0.58008-1.25928,1.18945H10.80615z"/>
				<path d="M16.98584,68.12288c0,1-0.91943,1.42969-2.21875,1.42969c-1.43945,0-2.26904-0.54004-2.26904-1.53906
					c0-0.12012,0.01025-0.16992,0.02002-0.21973l0.73975-0.52051c-0.35986-0.18945-0.60986-0.48926-0.60986-0.99902
					c0-0.41992,0.16992-0.72949,0.48975-0.96973c-0.25977-0.30957-0.40967-0.69922-0.40967-1.12891
					c0-1.04004,0.87939-1.76953,1.96924-1.76953c0.43945,0,0.84912,0.12012,1.1792,0.33984l0.72949-0.62891l0.53955,0.65918
					l-0.69922,0.56934c0.1499,0.25977,0.22949,0.56055,0.22949,0.88965c0,1.06934-0.87939,1.75879-1.94873,1.75879
					c-0.35986,0-0.67969-0.0791-0.96973-0.20898c-0.12988,0.0791-0.19971,0.18945-0.19971,0.33984
					c0,0.39941,0.53955,0.50879,1.18945,0.59961C15.73633,66.86409,16.98584,66.98421,16.98584,68.12288z M15.95654,68.2137
					c0-0.4502-0.67969-0.50977-1.4292-0.62012c-0.16016-0.01953-0.33008-0.0498-0.5-0.08008l-0.49951,0.49023
					c-0.01025,0.04004-0.01025,0.06934-0.01025,0.08984c0,0.50977,0.63965,0.66895,1.28955,0.66895
					C15.43652,68.76253,15.95654,68.60335,15.95654,68.2137z M13.74756,64.20589c0,0.5293,0.33984,0.93945,0.95947,0.93945
					s0.93945-0.40039,0.93945-0.93945c0-0.57031-0.35986-0.94043-0.92969-0.94043
					C14.13721,63.26546,13.74756,63.64534,13.74756,64.20589z"/>
				<path d="M18.03809,60.45784h1.09961v1.0791h-1.09961V60.45784z M18.07812,62.49593h1.0293v4.92773h-1.0293V62.49593z"/>
				<path d="M24.90576,64.29573v3.12793h-1.02979V64.5555c0-0.58008-0.10986-1.25-0.95898-1.25
					c-1.05957,0-1.23975,1.01953-1.23975,2.06934v2.04883h-1.0293v-4.92773h1.0293v0.61035
					c0.33984-0.46973,0.8999-0.7002,1.53955-0.7002C24.30615,62.40608,24.90576,63.08577,24.90576,64.29573z"/>
				<path d="M30.5957,64.29573v3.12793h-1.0293V64.5555c0-0.58008-0.11035-1.25-0.95996-1.25
					c-1.05908,0-1.23926,1.01953-1.23926,2.06934v2.04883h-1.0293v-4.92773h1.0293v0.61035
					c0.33984-0.46973,0.8999-0.7002,1.53955-0.7002C29.99609,62.40608,30.5957,63.08577,30.5957,64.29573z"/>
				<path d="M31.9873,60.45784h1.09961v1.0791H31.9873V60.45784z M32.02734,62.49593h1.0293v4.92773h-1.0293V62.49593z"/>
				<path d="M38.85547,64.29573v3.12793h-1.0293V64.5555c0-0.58008-0.11035-1.25-0.95996-1.25
					c-1.05908,0-1.23926,1.01953-1.23926,2.06934v2.04883h-1.0293v-4.92773h1.0293v0.61035
					c0.33984-0.46973,0.8999-0.7002,1.53955-0.7002C38.25586,62.40608,38.85547,63.08577,38.85547,64.29573z"/>
				<path d="M44.35498,68.12288c0,1-0.91943,1.42969-2.21875,1.42969c-1.43945,0-2.26904-0.54004-2.26904-1.53906
					c0-0.12012,0.01025-0.16992,0.02002-0.21973l0.73975-0.52051c-0.35986-0.18945-0.60986-0.48926-0.60986-0.99902
					c0-0.41992,0.16992-0.72949,0.48975-0.96973c-0.25977-0.30957-0.40967-0.69922-0.40967-1.12891
					c0-1.04004,0.87939-1.76953,1.96924-1.76953c0.43945,0,0.84912,0.12012,1.1792,0.33984l0.72949-0.62891l0.53955,0.65918
					l-0.69922,0.56934c0.1499,0.25977,0.22949,0.56055,0.22949,0.88965c0,1.06934-0.87939,1.75879-1.94873,1.75879
					c-0.35986,0-0.67969-0.0791-0.96973-0.20898c-0.12988,0.0791-0.19971,0.18945-0.19971,0.33984
					c0,0.39941,0.53955,0.50879,1.18945,0.59961C43.10547,66.86409,44.35498,66.98421,44.35498,68.12288z M43.32568,68.2137
					c0-0.4502-0.67969-0.50977-1.4292-0.62012c-0.16016-0.01953-0.33008-0.0498-0.5-0.08008l-0.49951,0.49023
					c-0.01025,0.04004-0.01025,0.06934-0.01025,0.08984c0,0.50977,0.63965,0.66895,1.28955,0.66895
					C42.80566,68.76253,43.32568,68.60335,43.32568,68.2137z M41.1167,64.20589c0,0.5293,0.33984,0.93945,0.95947,0.93945
					s0.93945-0.40039,0.93945-0.93945c0-0.57031-0.35986-0.94043-0.92969-0.94043
					C41.50635,63.26546,41.1167,63.64534,41.1167,64.20589z"/>
			</g>
			<g enable-background="new    ">
				<path d="M6.60547,78.36897v6.96582h-0.7793l-3.42822-5.75684v5.75684H1.68799v-6.96582h0.77002L5.896,84.09554v-5.72656H6.60547
					z"/>
				<path d="M12.46582,80.40706v4.92773h-0.68945v-0.70996c-0.34961,0.53027-0.97949,0.79004-1.62891,0.79004
					c-1.11963,0-1.60938-0.76953-1.60938-1.98926v-3.01855h0.68945v2.84863c0,0.7998,0.14014,1.5498,1.07959,1.5498
					c0.97949,0,1.46924-0.84961,1.46924-2.12891v-2.26953H12.46582z"/>
				<path d="M21.04443,82.25667v3.07812h-0.68994v-2.88867c0-0.41992,0-1.50879-1.0791-1.50879
					c-0.99951,0-1.26953,0.91895-1.26953,2.02832v2.36914h-0.68945v-2.84863c0-0.81934-0.25-1.54883-1.10938-1.54883
					c-0.95947,0-1.22949,0.90918-1.22949,2.02832v2.36914h-0.68945l-0.01025-4.92773h0.66992v0.60059
					c0.30957-0.49023,0.80957-0.67969,1.35889-0.67969c0.68994,0,1.19971,0.2998,1.44922,0.94922
					c0.31982-0.62988,0.86963-0.94922,1.61914-0.94922C20.55469,80.32796,21.04443,81.10725,21.04443,82.25667z"/>
				<path d="M27.25537,82.86604c0,1.46973-0.74951,2.54883-2.18896,2.54883c-0.71924,0-1.26904-0.28027-1.62891-0.73926v0.65918
					h-0.68945v-6.96582h0.68945v2.69824c0.36963-0.47949,0.92969-0.75,1.62891-0.75
					C26.43604,80.31721,27.25537,81.32698,27.25537,82.86604z M26.56592,82.86604c0-1.16895-0.59961-1.93848-1.59912-1.93848
					c-0.98975,0-1.58936,0.76953-1.58936,1.93848c0,1.11914,0.5498,1.93945,1.58936,1.93945
					C26.01611,84.8055,26.56592,83.98518,26.56592,82.86604z"/>
				<path d="M32.58545,83.05647h-3.60791c0.02002,1.0791,0.61963,1.72852,1.58936,1.72852
					c0.53955,0,0.96924-0.13965,1.41895-0.61914l0.47998,0.41895c-0.57959,0.61035-1.14941,0.83008-1.90918,0.83008
					c-1.49902,0-2.26855-1.11914-2.26855-2.51855c0-1.38965,0.75977-2.56836,2.18896-2.56836
					c1.50879,0,2.13867,1.17871,2.13867,2.29785C32.61572,82.76643,32.60547,82.93636,32.58545,83.05647z M28.97754,82.47639
					h2.97852c0-0.02051-0.01025-0.07031-0.01025-0.16016c-0.0498-0.7998-0.55957-1.40918-1.46875-1.40918
					C29.5874,80.90706,29.0376,81.60725,28.97754,82.47639z"/>
				<path d="M37.00635,80.53792l-0.33984,0.55957c-0.22949-0.10059-0.43945-0.15039-0.64941-0.15039
					c-0.75977,0-1.31934,0.56934-1.31934,1.63965v2.74805H34.0083v-4.92773h0.68945v0.74023
					c0.35986-0.64941,0.95947-0.81934,1.45898-0.81934C36.45703,80.32796,36.73682,80.38753,37.00635,80.53792z"/>
				<path d="M40.32812,82.86604c0-1.45898,0.94922-2.53809,2.3584-2.53809c1.39941,0,2.36865,1.0791,2.36865,2.53809
					c0,1.44922-0.95947,2.54883-2.36865,2.54883S40.32812,84.32503,40.32812,82.86604z M44.36572,82.86604
					c0-1.11914-0.62988-1.92871-1.6792-1.92871c-1.05957,0-1.66895,0.81934-1.66895,1.92871
					c0,1.11914,0.61963,1.93945,1.66895,1.93945C43.74609,84.8055,44.36572,83.96565,44.36572,82.86604z"/>
				<path d="M46.74756,80.98714h-1.03955v-0.58008h1.04932v-0.75879c0-1.0498,0.60986-1.35938,1.23926-1.35938
					c0.27002,0,0.56982,0.05957,0.87988,0.18945l-0.24023,0.5498c-0.20996-0.09961-0.39941-0.16016-0.56934-0.16016
					c-0.39014,0-0.62988,0.27051-0.62988,0.72949v0.80957h1.41943v0.58008h-1.41943v4.34766h-0.68945V80.98714z"/>
				<path d="M54.7168,85.28499c-0.25977,0.08008-0.52002,0.12988-0.74951,0.12988c-0.65967,0-1.13965-0.37012-1.13965-1.23926
					v-3.18848H52.0083v-0.58008h0.81934v-1.37891l0.68994-0.51953v1.89844h1.18896v0.58008h-1.18896v3.09863
					c0,0.47949,0.21973,0.69922,0.60938,0.69922c0.16992,0,0.35986-0.04004,0.57959-0.10938L54.7168,85.28499z"/>
				<path d="M57.43652,85.27522l-2.08887-4.86816h0.75977l1.69922,4.05859l1.48926-4.05859h0.75928l-2.69824,6.9668h-0.73975
					L57.43652,85.27522z"/>
				<path d="M65.68506,82.86604c0,1.46973-0.74951,2.54883-2.18896,2.54883c-0.71924,0-1.26904-0.28027-1.62891-0.73926v2.69824
					h-0.68945v-6.9668h0.68945v0.66016c0.36963-0.47949,0.92969-0.75,1.62891-0.75
					C64.86572,80.31721,65.68506,81.32698,65.68506,82.86604z M64.99561,82.86604c0-1.16895-0.59961-1.93848-1.59912-1.93848
					c-0.98975,0-1.58936,0.76953-1.58936,1.93848c0,1.11914,0.5498,1.93945,1.58936,1.93945
					C64.4458,84.8055,64.99561,83.98518,64.99561,82.86604z"/>
				<path d="M66.6875,82.86604c0-1.45898,0.94971-2.53809,2.35889-2.53809c1.39941,0,2.36865,1.0791,2.36865,2.53809
					c0,1.44922-0.95947,2.54883-2.36865,2.54883S66.6875,84.32503,66.6875,82.86604z M70.72559,82.86604
					c0-1.11914-0.62988-1.92871-1.6792-1.92871c-1.05957,0-1.66895,0.81934-1.66895,1.92871
					c0,1.11914,0.61963,1.93945,1.66895,1.93945C70.10596,84.8055,70.72559,83.96565,70.72559,82.86604z"/>
				<path d="M76.64502,86.09456c0,0.92969-0.86963,1.35938-2.10889,1.35938c-1.36914,0-2.19873-0.54004-2.19873-1.51953
					c0-0.09961,0.00977-0.16016,0.02002-0.21973l0.79932-0.67969c-0.37988-0.16992-0.63965-0.4502-0.63965-0.93945
					c0-0.39941,0.18018-0.69922,0.52979-0.93945c-0.25977-0.2998-0.41992-0.67969-0.41992-1.11914
					c0-1,0.81982-1.70898,1.87891-1.70898c0.47998,0,0.90967,0.14941,1.22949,0.39941l0.67969-0.58984l0.35986,0.4502
					l-0.66992,0.55957c0.16992,0.26953,0.27002,0.5791,0.27002,0.92969c0,1.00879-0.81934,1.67871-1.85889,1.67871
					c-0.37988,0-0.72949-0.08984-1.01953-0.25c-0.19971,0.11035-0.31982,0.29004-0.31982,0.5c0,0.5,0.61963,0.61914,1.3291,0.72949
					C75.48535,84.8846,76.64502,85.02522,76.64502,86.09456z M75.95508,86.15413c0-0.59961-0.7793-0.68945-1.59912-0.81934
					c-0.21973-0.03027-0.44971-0.07031-0.65967-0.12012l-0.66943,0.64941c-0.01025,0.05078-0.01025,0.07031-0.01025,0.09082
					c0,0.69922,0.70996,0.91895,1.54932,0.91895C75.43555,86.87386,75.95508,86.63362,75.95508,86.15413z M73.30664,82.05647
					c0,0.63965,0.45996,1.12988,1.19922,1.12988c0.73975,0,1.17969-0.48047,1.17969-1.12988
					c0-0.67969-0.45996-1.14941-1.16943-1.14941C73.81641,80.90706,73.30664,81.37679,73.30664,82.05647z"/>
				<path d="M81.01514,80.53792l-0.33984,0.55957c-0.22949-0.10059-0.43945-0.15039-0.64941-0.15039
					c-0.75977,0-1.31934,0.56934-1.31934,1.63965v2.74805h-0.68945v-4.92773h0.68945v0.74023
					c0.35986-0.64941,0.95947-0.81934,1.45898-0.81934C80.46582,80.32796,80.74561,80.38753,81.01514,80.53792z"/>
				<path d="M85.70508,82.26643v3.06836H85.0752l-0.04004-0.75977c-0.38965,0.5498-0.98926,0.83984-1.76904,0.83984
					c-1.06934,0-1.69873-0.55957-1.69873-1.50977c0-0.49902,0.19971-0.87891,0.55957-1.09863
					c0.37988-0.21973,0.90967-0.31055,1.87891-0.31055h1.00928v-0.22949c0-0.85938-0.44971-1.3291-1.2793-1.3291
					c-0.61963,0-1.09912,0.26953-1.49902,0.81934l-0.49951-0.41992c0.5293-0.68945,1.16895-1.00879,2.00879-1.00879
					C84.98535,80.32796,85.70508,81.03694,85.70508,82.26643z M85.01514,83.12581v-0.06934h-0.94922
					c-0.90967,0-1.29932,0.05957-1.53906,0.24902c-0.18018,0.14062-0.27002,0.36035-0.27002,0.63965
					c0,0.5498,0.46973,0.90039,1.20947,0.90039C84.41553,84.84554,85.01514,84.17561,85.01514,83.12581z"/>
				<path d="M91.89453,82.86604c0,1.46973-0.74951,2.54883-2.18896,2.54883c-0.71924,0-1.26904-0.28027-1.62891-0.73926v2.69824
					h-0.68945v-6.9668h0.68945v0.66016c0.36963-0.47949,0.92969-0.75,1.62891-0.75
					C91.0752,80.31721,91.89453,81.32698,91.89453,82.86604z M91.20508,82.86604c0-1.16895-0.59961-1.93848-1.59912-1.93848
					c-0.98975,0-1.58936,0.76953-1.58936,1.93848c0,1.11914,0.5498,1.93945,1.58936,1.93945
					C90.65527,84.8055,91.20508,83.98518,91.20508,82.86604z"/>
				<path d="M97.25488,82.31624v3.01855h-0.68945v-2.84863c0-1.06934-0.33984-1.54883-1.07959-1.54883
					c-0.93945,0-1.46924,0.76953-1.46924,2.12891v2.26855h-0.68945v-6.96582h0.68945v2.75781
					c0.31982-0.49902,0.91943-0.79883,1.62891-0.79883C96.70508,80.32796,97.25488,81.00764,97.25488,82.31624z"/>
				<path d="M98.89697,78.36897h0.79932v1.01953h-0.79932V78.36897z M98.95703,80.40706h0.68945v4.92773h-0.68945V80.40706z"/>
				<path d="M101.05664,82.88655c0-1.2998,0.72998-2.55859,2.21875-2.55859c0.87988,0,1.60938,0.43945,1.99902,1.3584
					l-0.65967,0.26074c-0.22949-0.62988-0.71924-1.00977-1.33936-1.00977c-1.04932,0-1.51904,0.93945-1.51904,1.94922
					c0,1.00879,0.46973,1.91895,1.5293,1.91895c0.61963,0,1.10938-0.37012,1.29932-1l0.63965,0.24023
					c-0.33008,0.89941-1.04932,1.36914-1.93896,1.36914C101.85645,85.41487,101.05664,84.25569,101.05664,82.88655z"/>
				<path d="M110.16504,82.26643v3.06836h-0.62988l-0.04004-0.75977c-0.38965,0.5498-0.98926,0.83984-1.76904,0.83984
					c-1.06934,0-1.69873-0.55957-1.69873-1.50977c0-0.49902,0.19971-0.87891,0.55957-1.09863
					c0.37988-0.21973,0.90967-0.31055,1.87891-0.31055h1.00928v-0.22949c0-0.85938-0.44971-1.3291-1.2793-1.3291
					c-0.61963,0-1.09912,0.26953-1.49902,0.81934l-0.49951-0.41992c0.5293-0.68945,1.16895-1.00879,2.00879-1.00879
					C109.44531,80.32796,110.16504,81.03694,110.16504,82.26643z M109.4751,83.12581v-0.06934h-0.94922
					c-0.90967,0-1.29932,0.05957-1.53906,0.24902c-0.18018,0.14062-0.27002,0.36035-0.27002,0.63965
					c0,0.5498,0.46973,0.90039,1.20947,0.90039C108.87549,84.84554,109.4751,84.17561,109.4751,83.12581z"/>
				<path d="M111.80664,84.26546v-5.89648h0.68945v5.85645c0,0.33984,0.12012,0.55957,0.44971,0.55957
					c0.1499,0,0.31982-0.04004,0.46973-0.08984l0.01025,0.58984c-0.20996,0.06934-0.45996,0.12988-0.67969,0.12988
					C112.17627,85.41487,111.80664,85.03499,111.80664,84.26546z"/>
				<path d="M116.8667,82.88655c0-1.2998,0.72998-2.55859,2.21924-2.55859c0.87939,0,1.60889,0.43945,1.99854,1.3584
					l-0.65967,0.26074c-0.22949-0.62988-0.71924-1.00977-1.33887-1.00977c-1.0498,0-1.51953,0.93945-1.51953,1.94922
					c0,1.00879,0.46973,1.91895,1.5293,1.91895c0.61963,0,1.10938-0.37012,1.29932-1l0.63965,0.24023
					c-0.33008,0.89941-1.04932,1.36914-1.93896,1.36914C117.6665,85.41487,116.8667,84.25569,116.8667,82.88655z"/>
				<path d="M126.28418,82.31624v3.01855h-0.68945v-2.84863c0-1.06934-0.33984-1.54883-1.07959-1.54883
					c-0.93945,0-1.46924,0.76953-1.46924,2.12891v2.26855h-0.68945v-6.96582h0.68945v2.75781
					c0.31982-0.49902,0.91943-0.79883,1.62891-0.79883C125.73438,80.32796,126.28418,81.00764,126.28418,82.31624z"/>
				<path d="M131.6543,82.26643v3.06836h-0.62988l-0.04004-0.75977c-0.38965,0.5498-0.98926,0.83984-1.76904,0.83984
					c-1.06934,0-1.69873-0.55957-1.69873-1.50977c0-0.49902,0.19971-0.87891,0.55957-1.09863
					c0.37988-0.21973,0.90967-0.31055,1.87891-0.31055h1.00928v-0.22949c0-0.85938-0.44971-1.3291-1.2793-1.3291
					c-0.61963,0-1.09912,0.26953-1.49902,0.81934l-0.49951-0.41992c0.5293-0.68945,1.16895-1.00879,2.00879-1.00879
					C130.93457,80.32796,131.6543,81.03694,131.6543,82.26643z M130.96436,83.12581v-0.06934h-0.94922
					c-0.90967,0-1.29932,0.05957-1.53906,0.24902c-0.18018,0.14062-0.27002,0.36035-0.27002,0.63965
					c0,0.5498,0.46973,0.90039,1.20947,0.90039C130.36475,84.84554,130.96436,84.17561,130.96436,83.12581z"/>
				<path d="M136.33447,80.53792l-0.33984,0.55957c-0.22949-0.10059-0.43945-0.15039-0.64941-0.15039
					c-0.75977,0-1.31934,0.56934-1.31934,1.63965v2.74805h-0.68945v-4.92773h0.68945v0.74023
					c0.35986-0.64941,0.95947-0.81934,1.45898-0.81934C135.78516,80.32796,136.06494,80.38753,136.33447,80.53792z"/>
				<path d="M141.02441,82.26643v3.06836h-0.62988l-0.04004-0.75977c-0.38965,0.5498-0.98926,0.83984-1.76904,0.83984
					c-1.06934,0-1.69873-0.55957-1.69873-1.50977c0-0.49902,0.19971-0.87891,0.55957-1.09863
					c0.37988-0.21973,0.90967-0.31055,1.87891-0.31055h1.00928v-0.22949c0-0.85938-0.44971-1.3291-1.2793-1.3291
					c-0.61963,0-1.09912,0.26953-1.49902,0.81934l-0.49951-0.41992c0.5293-0.68945,1.16895-1.00879,2.00879-1.00879
					C140.30469,80.32796,141.02441,81.03694,141.02441,82.26643z M140.33447,83.12581v-0.06934h-0.94922
					c-0.90967,0-1.29932,0.05957-1.53906,0.24902c-0.18018,0.14062-0.27002,0.36035-0.27002,0.63965
					c0,0.5498,0.46973,0.90039,1.20947,0.90039C139.73486,84.84554,140.33447,84.17561,140.33447,83.12581z"/>
				<path d="M142.2959,82.88655c0-1.2998,0.72998-2.55859,2.21875-2.55859c0.87988,0,1.60938,0.43945,1.99902,1.3584
					L145.854,81.9471c-0.22949-0.62988-0.71924-1.00977-1.33936-1.00977c-1.04932,0-1.51904,0.93945-1.51904,1.94922
					c0,1.00879,0.46973,1.91895,1.5293,1.91895c0.61963,0,1.10938-0.37012,1.29932-1l0.63965,0.24023
					c-0.33008,0.89941-1.04932,1.36914-1.93896,1.36914C143.0957,85.41487,142.2959,84.25569,142.2959,82.88655z"/>
				<path d="M149.83496,85.28499c-0.25977,0.08008-0.52002,0.12988-0.74951,0.12988c-0.65967,0-1.13965-0.37012-1.13965-1.23926
					v-3.18848h-0.81934v-0.58008h0.81934v-1.37891l0.68994-0.51953v1.89844h1.18896v0.58008h-1.18896v3.09863
					c0,0.47949,0.21973,0.69922,0.60938,0.69922c0.16992,0,0.35986-0.04004,0.57959-0.10938L149.83496,85.28499z"/>
				<path d="M154.99365,83.05647h-3.60791c0.02002,1.0791,0.61963,1.72852,1.58936,1.72852
					c0.53955,0,0.96924-0.13965,1.41895-0.61914l0.47998,0.41895c-0.57959,0.61035-1.14941,0.83008-1.90918,0.83008
					c-1.49902,0-2.26855-1.11914-2.26855-2.51855c0-1.38965,0.75977-2.56836,2.18896-2.56836
					c1.50879,0,2.13867,1.17871,2.13867,2.29785C155.02393,82.76643,155.01367,82.93636,154.99365,83.05647z M151.38574,82.47639
					h2.97852c0-0.02051-0.01025-0.07031-0.01025-0.16016c-0.0498-0.7998-0.55957-1.40918-1.46875-1.40918
					C151.99561,80.90706,151.4458,81.60725,151.38574,82.47639z"/>
				<path d="M159.41406,80.53792l-0.33984,0.55957c-0.22949-0.10059-0.43945-0.15039-0.64941-0.15039
					c-0.75977,0-1.31934,0.56934-1.31934,1.63965v2.74805h-0.68945v-4.92773h0.68945v0.74023
					c0.35986-0.64941,0.95947-0.81934,1.45898-0.81934C158.86426,80.32796,159.14453,80.38753,159.41406,80.53792z"/>
				<path d="M159.60645,84.12581l0.57959-0.25977c0.17969,0.50977,0.65967,0.93945,1.4292,0.93945
					c0.66943,0,1.09961-0.33008,1.09961-0.84961c0-1.30957-2.83887-0.49023-2.83887-2.23926
					c0-0.85938,0.69971-1.38867,1.68945-1.38867c0.78955,0,1.4292,0.3291,1.76904,1.0293l-0.5498,0.2998
					c-0.23975-0.44043-0.62988-0.71973-1.23926-0.71973c-0.60986,0-0.99951,0.25-0.99951,0.67969
					c0,1.16895,2.84814,0.42969,2.84814,2.29883c0,0.99902-0.81934,1.49902-1.76904,1.49902
					C160.65576,85.41487,159.86621,84.91487,159.60645,84.12581z"/>
				<path d="M167.46582,78.36897h0.79932v1.01953h-0.79932V78.36897z M167.52588,80.40706h0.68945v4.92773h-0.68945V80.40706z"/>
				<path d="M173.96387,82.31624v3.01855h-0.68945v-2.84863c0-1.05957-0.33984-1.54883-1.07959-1.54883
					c-0.92969,0-1.46924,0.7998-1.46924,2.18848v2.20898h-0.68945v-4.92773h0.68945v0.71973
					c0.31982-0.49902,0.91943-0.79883,1.62891-0.79883C173.41406,80.32796,173.96387,81.00764,173.96387,82.31624z"/>
				<path d="M180.44482,85.28499c-0.25977,0.08008-0.52002,0.12988-0.74951,0.12988c-0.65967,0-1.13965-0.37012-1.13965-1.23926
					v-3.18848h-0.81934v-0.58008h0.81934v-1.37891l0.68945-0.51953v1.89844h1.18945v0.58008h-1.18945v3.09863
					c0,0.47949,0.22021,0.69922,0.60986,0.69922c0.16992,0,0.35986-0.04004,0.57959-0.10938L180.44482,85.28499z"/>
				<path d="M185.68359,82.31624v3.01855h-0.68945v-2.84863c0-1.06934-0.33984-1.54883-1.07959-1.54883
					c-0.93945,0-1.46924,0.76953-1.46924,2.12891v2.26855h-0.68945v-6.96582h0.68945v2.75781
					c0.31982-0.49902,0.91943-0.79883,1.62891-0.79883C185.13379,80.32796,185.68359,81.00764,185.68359,82.31624z"/>
				<path d="M191.2832,83.05647h-3.60791c0.02002,1.0791,0.61963,1.72852,1.58936,1.72852
					c0.53955,0,0.96924-0.13965,1.41895-0.61914l0.47998,0.41895c-0.57959,0.61035-1.14941,0.83008-1.90918,0.83008
					c-1.49902,0-2.26855-1.11914-2.26855-2.51855c0-1.38965,0.75977-2.56836,2.18896-2.56836
					c1.50879,0,2.13867,1.17871,2.13867,2.29785C191.31348,82.76643,191.30322,82.93636,191.2832,83.05647z M187.67529,82.47639
					h2.97852c0-0.02051-0.01025-0.07031-0.01025-0.16016c-0.0498-0.7998-0.55957-1.40918-1.46875-1.40918
					C188.28516,80.90706,187.73535,81.60725,187.67529,82.47639z"/>
				<path d="M195.02539,82.88655c0-1.2998,0.72998-2.55859,2.21875-2.55859c0.87988,0,1.60938,0.43945,1.99902,1.3584
					l-0.65967,0.26074c-0.22949-0.62988-0.71924-1.00977-1.33936-1.00977c-1.04932,0-1.51904,0.93945-1.51904,1.94922
					c0,1.00879,0.46973,1.91895,1.5293,1.91895c0.61963,0,1.10938-0.37012,1.29932-1l0.63965,0.24023
					c-0.33008,0.89941-1.04932,1.36914-1.93896,1.36914C195.8252,85.41487,195.02539,84.25569,195.02539,82.88655z"/>
				<path d="M204.44336,82.31624v3.01855h-0.68945v-2.84863c0-1.06934-0.33984-1.54883-1.07959-1.54883
					c-0.93945,0-1.46924,0.76953-1.46924,2.12891v2.26855h-0.68945v-6.96582h0.68945v2.75781
					c0.31982-0.49902,0.91943-0.79883,1.62891-0.79883C203.89355,80.32796,204.44336,81.00764,204.44336,82.31624z"/>
				<path d="M209.81348,82.26643v3.06836h-0.62988l-0.04004-0.75977c-0.38965,0.5498-0.98926,0.83984-1.76904,0.83984
					c-1.06934,0-1.69873-0.55957-1.69873-1.50977c0-0.49902,0.19971-0.87891,0.55957-1.09863
					c0.37988-0.21973,0.90967-0.31055,1.87891-0.31055h1.00928v-0.22949c0-0.85938-0.44971-1.3291-1.2793-1.3291
					c-0.61963,0-1.09912,0.26953-1.49902,0.81934l-0.49951-0.41992c0.5293-0.68945,1.16895-1.00879,2.00879-1.00879
					C209.09375,80.32796,209.81348,81.03694,209.81348,82.26643z M209.12354,83.12581v-0.06934h-0.94922
					c-0.90967,0-1.29932,0.05957-1.53906,0.24902c-0.18018,0.14062-0.27002,0.36035-0.27002,0.63965
					c0,0.5498,0.46973,0.90039,1.20947,0.90039C208.52393,84.84554,209.12354,84.17561,209.12354,83.12581z"/>
				<path d="M216.00244,82.86604c0,1.46973-0.74951,2.54883-2.18896,2.54883c-0.71924,0-1.26904-0.28027-1.62891-0.73926v2.69824
					h-0.68945v-6.9668h0.68945v0.66016c0.36963-0.47949,0.92969-0.75,1.62891-0.75
					C215.18311,80.31721,216.00244,81.32698,216.00244,82.86604z M215.31299,82.86604c0-1.16895-0.59961-1.93848-1.59912-1.93848
					c-0.98975,0-1.58936,0.76953-1.58936,1.93848c0,1.11914,0.5498,1.93945,1.58936,1.93945
					C214.76318,84.8055,215.31299,83.98518,215.31299,82.86604z"/>
				<path d="M219.43408,85.28499c-0.25977,0.08008-0.52002,0.12988-0.74951,0.12988c-0.65967,0-1.13965-0.37012-1.13965-1.23926
					v-3.18848h-0.81934v-0.58008h0.81934v-1.37891l0.68945-0.51953v1.89844h1.18945v0.58008h-1.18945v3.09863
					c0,0.47949,0.22021,0.69922,0.60986,0.69922c0.16992,0,0.35986-0.04004,0.57959-0.10938L219.43408,85.28499z"/>
				<path d="M224.59277,83.05647h-3.60791c0.02002,1.0791,0.61963,1.72852,1.58936,1.72852
					c0.53955,0,0.96924-0.13965,1.41895-0.61914l0.47998,0.41895c-0.57959,0.61035-1.14941,0.83008-1.90918,0.83008
					c-1.49902,0-2.26855-1.11914-2.26855-2.51855c0-1.38965,0.75977-2.56836,2.18896-2.56836
					c1.50879,0,2.13867,1.17871,2.13867,2.29785C224.62305,82.76643,224.61279,82.93636,224.59277,83.05647z M220.98486,82.47639
					h2.97852c0-0.02051-0.01025-0.07031-0.01025-0.16016c-0.0498-0.7998-0.55957-1.40918-1.46875-1.40918
					C221.59473,80.90706,221.04492,81.60725,220.98486,82.47639z"/>
				<path d="M229.01318,80.53792l-0.33984,0.55957c-0.22949-0.10059-0.43945-0.15039-0.64941-0.15039
					c-0.75977,0-1.31934,0.56934-1.31934,1.63965v2.74805h-0.68945v-4.92773h0.68945v0.74023
					c0.35986-0.64941,0.95947-0.81934,1.45898-0.81934C228.46387,80.32796,228.74365,80.38753,229.01318,80.53792z"/>
			</g>
			<g enable-background="new    ">
				<path d="M879.80371,60.45784h4.60742v0.98926h-3.53809v1.90918h3.24805v0.98926h-3.24805v2.08887h3.53809v0.98926h-4.60742
					V60.45784z"/>
				<path d="M890.03125,64.29573v3.12793h-1.0293V64.5555c0-0.58008-0.11035-1.25-0.95996-1.25
					c-1.05859,0-1.23926,1.01953-1.23926,2.06934v2.04883h-1.0293v-4.92773h1.0293v0.61035
					c0.33984-0.46973,0.90039-0.7002,1.54004-0.7002C889.43164,62.40608,890.03125,63.08577,890.03125,64.29573z"/>
				<path d="M895.71094,60.45784v6.96582h-1.0293v-0.5498c-0.33984,0.43945-0.89941,0.63965-1.48926,0.63965
					c-1.36914,0-2.1084-1.0791-2.1084-2.55859c0-1.58887,0.84961-2.55859,2.1084-2.55859c0.61035,0,1.17969,0.25,1.48926,0.64941
					v-2.58789H895.71094z M894.78223,64.96468c0-0.93945-0.4502-1.63867-1.34961-1.63867
					c-0.86914,0-1.31934,0.62988-1.31934,1.63867c0,0.97949,0.42969,1.60938,1.30957,1.60938
					C894.35254,66.57405,894.78223,65.8846,894.78223,64.96468z"/>
			</g>
			<g id="Raggruppa_653" transform="translate(0.401 30.723)">
				<path id="Tracciato_610" fill="none" stroke="#CCCCCC" stroke-width="0.75" d="M0,5.77499V0.48099h899.20801v5.29401"/>
				<g id="Raggruppa_646" transform="translate(148.63)">
					<line id="Linea_296" fill="none" stroke="#CCCCCC" stroke-width="0.75" x1="0" y1="0" x2="0" y2="5.775"/>
				</g>
				<g id="Raggruppa_647" transform="translate(264.27)">
					<line id="Linea_297" fill="none" stroke="#CCCCCC" stroke-width="0.75" x1="0" y1="0" x2="0" y2="5.775"/>
				</g>
				<g id="Raggruppa_648" transform="translate(379.91)">
					<line id="Linea_298" fill="none" stroke="#CCCCCC" stroke-width="0.75" x1="0" y1="0" x2="0" y2="5.775"/>
				</g>
				<g id="Raggruppa_649" transform="translate(495.551)">
					<line id="Linea_299" fill="none" stroke="#CCCCCC" stroke-width="0.75" x1="0" y1="0" x2="0" y2="5.775"/>
				</g>
				<g id="Raggruppa_650" transform="translate(611.191)">
					<line id="Linea_300" fill="none" stroke="#CCCCCC" stroke-width="0.75" x1="0" y1="0" x2="0" y2="5.775"/>
				</g>
				<g id="Raggruppa_651" transform="translate(726.832)">
					<line id="Linea_301" fill="none" stroke="#CCCCCC" stroke-width="0.75" x1="0" y1="0" x2="0" y2="5.775"/>
				</g>
				<g id="Raggruppa_652" transform="translate(842.472)">
					<line id="Linea_302" fill="none" stroke="#CCCCCC" stroke-width="0.75" x1="0" y1="0" x2="0" y2="5.775"/>
				</g>
			</g>
			<g enable-background="new    ">
				<path d="M0.87744,47.74593l0.67969-0.04004c0,0.99023,0.72998,1.55957,1.7793,1.55957
					c0.98926,0,1.73877-0.53027,1.73877-1.47949c0-1.17871-1.18896-1.33887-2.08887-1.33887v-0.58008
					c1.00977,0,1.71924-0.37988,1.71924-1.24902c0-0.81934-0.59961-1.19922-1.33936-1.19922
					c-0.86963,0-1.46924,0.47949-1.479,1.33887l-0.66992-0.0498c0-1.20898,0.90967-1.94922,2.11914-1.94922
					c1.09912,0,2.05859,0.63965,2.05859,1.7793c0,0.83984-0.52979,1.39941-1.04932,1.56934
					c0.75977,0.13965,1.41943,0.71973,1.41943,1.73926c0,1.31934-1.07959,2.07812-2.43896,2.07812
					C1.93701,49.92464,0.87744,49.15511,0.87744,47.74593z"/>
				<path d="M7.46729,48.72542H8.3667v1.09961H7.46729V48.72542z"/>
				<path d="M14.9248,42.85921v0.42969l-3.39795,6.53613h-0.77979l3.32812-6.30664H9.9375v-0.65918H14.9248z"/>
				<path d="M18.9458,42.85921v6.96582h-0.68994v-5.16699h-1.73877v-0.67969h1.15918c0.34961,0,0.57959-0.12012,0.57959-0.53027
					v-0.58887H18.9458z"/>
				<path d="M26.21436,47.58675c0,1.26855-1.05908,2.31836-2.36865,2.31836c-1.29932,0-2.36865-1.03906-2.36865-2.30859
					c0-0.42969,0.14014-0.87988,0.35986-1.23926l2.09863-3.49805h0.77979l-1.60938,2.61816
					c0.35986-0.12988,0.7998-0.2002,1.22949-0.12012C25.38477,45.54768,26.21436,46.46663,26.21436,47.58675z M25.51465,47.58675
					c0-0.91016-0.74951-1.64941-1.66895-1.64941s-1.66895,0.73926-1.66895,1.64941c0,0.90918,0.73975,1.6582,1.66895,1.6582
					C24.76514,49.24495,25.51465,48.49593,25.51465,47.58675z"/>
			</g>
			<g enable-background="new    ">
				<path d="M136.19336,57.98616c0.93164,0.93164,0.99609,2.45117,0.01367,3.43359c-0.89062,0.89062-2.16211,0.9043-3.0957,0.25391
					l0.40234-0.55859c0.7002,0.48828,1.58398,0.48047,2.22656-0.16211c0.72852-0.72852,0.60742-1.78125-0.0625-2.45117
					c-0.65137-0.65137-1.59766-0.75-2.3125-0.03516c-0.47266,0.47266-0.59961,1.06641-0.4873,1.67383l-0.62891,0.36035
					l-2.09863-2.98926l2.55078-2.55078l0.4668,0.46582l-2.14844,2.14844l1.31445,1.87988
					c0.02148-0.64258,0.27539-1.13672,0.63672-1.49805C133.89648,57.03108,135.28809,57.08089,136.19336,57.98616z"/>
				<path d="M138.2793,57.67952l0.63672-0.63672l0.77734,0.77734l-0.63672,0.63672L138.2793,57.67952z"/>
				<path d="M138.57812,54.01741c-1.17383-1.17383-2.29004-2.78516-1.01074-4.06445c1.16602-1.16602,2.7627-0.375,4.11328,0.97559
					c1.34863,1.34863,2.12598,2.91895,1.00293,4.04199C141.36914,56.28499,139.75,55.18929,138.57812,54.01741z M141.15039,51.44417
					c-1.1377-1.1377-2.28906-1.85059-3.11621-1.02441c-0.8623,0.8623-0.01465,2.03516,1.0459,3.0957
					c1.03906,1.03906,2.22656,1.90039,3.12305,1.00391C143.00195,53.72054,142.2666,52.56038,141.15039,51.44417z"/>
				<path d="M142.55859,50.03596c-1.17285-1.17285-2.28906-2.78418-1.00977-4.06348c1.16602-1.16602,2.7627-0.375,4.11328,0.97461
					c1.34863,1.34961,2.12598,2.91895,1.00195,4.04297C145.34961,52.30452,143.73145,51.20882,142.55859,50.03596z
					 M145.13086,47.4637c-1.1377-1.1377-2.28906-1.85156-3.11523-1.02441c-0.86328,0.86133-0.01562,2.03516,1.04492,3.09473
					c1.03906,1.03906,2.22656,1.90137,3.12402,1.00391C146.98242,49.74007,146.24707,48.57991,145.13086,47.4637z"/>
				<path d="M146.53906,46.05452c-1.17188-1.17188-2.28906-2.78418-1.00977-4.06348
					c1.16602-1.16504,2.76367-0.37402,4.11328,0.97559s2.12695,2.91797,1.00293,4.04199
					C149.33105,48.32307,147.71289,47.22835,146.53906,46.05452z M149.11133,43.48225
					c-1.13672-1.13672-2.28906-1.85156-3.11523-1.02441c-0.8623,0.8623-0.01465,2.03516,1.04492,3.09473
					c1.03906,1.03906,2.22656,1.90234,3.125,1.00391C150.96387,45.75862,150.22852,44.59944,149.11133,43.48225z"/>
			</g>
			<g enable-background="new    ">
				<path d="M252.71045,58.08479c0.89648,0.89746,0.89062,2.3877-0.03516,3.31348c-0.91895,0.91895-2.41016,0.94043-3.30762,0.04297
					c-0.30371-0.30469-0.52246-0.7207-0.62207-1.13086l-0.99023-3.95703l0.55273-0.55273l0.71289,2.99023
					c0.16211-0.3457,0.42383-0.70703,0.78516-0.95508C250.68213,57.22932,251.91748,57.2928,252.71045,58.08479z
					 M252.21631,58.57991c-0.64453-0.64453-1.69727-0.63672-2.34766,0.01367c-0.64941,0.64941-0.65625,1.70312-0.01367,2.3457
					s1.69629,0.64941,2.35352-0.00781C252.85889,60.28108,252.85889,59.22249,252.21631,58.57991z"/>
				<path d="M254.72607,57.67952l0.63672-0.63672l0.77734,0.77734l-0.63672,0.63672L254.72607,57.67952z"/>
				<path d="M255.0249,54.01741c-1.17383-1.17383-2.29004-2.78516-1.01074-4.06445c1.16602-1.16602,2.7627-0.375,4.11328,0.97559
					c1.34863,1.34863,2.12598,2.91895,1.00293,4.04199C257.81592,56.28499,256.19678,55.18929,255.0249,54.01741z
					 M257.59717,51.44417c-1.1377-1.1377-2.28906-1.85059-3.11621-1.02441c-0.8623,0.8623-0.01465,2.03516,1.0459,3.0957
					c1.03906,1.03906,2.22656,1.90039,3.12305,1.00391C259.44873,53.72054,258.71338,52.56038,257.59717,51.44417z"/>
				<path d="M259.00537,50.03596c-1.17285-1.17285-2.28906-2.78418-1.00977-4.06348c1.16602-1.16602,2.7627-0.375,4.11328,0.97461
					c1.34863,1.34961,2.12598,2.91895,1.00195,4.04297C261.79639,52.30452,260.17822,51.20882,259.00537,50.03596z
					 M261.57764,47.4637c-1.1377-1.1377-2.28906-1.85156-3.11523-1.02441c-0.86328,0.86133-0.01562,2.03516,1.04492,3.09473
					c1.03906,1.03906,2.22656,1.90137,3.12402,1.00391C263.4292,49.74007,262.69385,48.57991,261.57764,47.4637z"/>
				<path d="M262.98584,46.05452c-1.17188-1.17188-2.28906-2.78418-1.00977-4.06348
					c1.16602-1.16504,2.76367-0.37402,4.11328,0.97559s2.12695,2.91797,1.00293,4.04199
					C265.77783,48.32307,264.15967,47.22835,262.98584,46.05452z M265.55811,43.48225
					c-1.13672-1.13672-2.28906-1.85156-3.11523-1.02441c-0.8623,0.8623-0.01465,2.03516,1.04492,3.09473
					c1.03906,1.03906,2.22656,1.90234,3.125,1.00391C267.41064,45.75862,266.67529,44.59944,265.55811,43.48225z"/>
			</g>
			<g enable-background="new    ">
				<path d="M364.47803,55.27034l0.30371,0.30371l2.21973,7.02441l-0.55176,0.55176l-2.10547-6.8125l-2.92578,2.92578
					l-0.4668-0.4668L364.47803,55.27034z"/>
				<path d="M369.76611,58.27913l0.63672-0.63672l0.77734,0.77734l-0.63672,0.63672L369.76611,58.27913z"/>
				<path d="M370.06494,54.61702c-1.17383-1.17383-2.29004-2.78516-1.01074-4.06445c1.16602-1.16602,2.7627-0.375,4.11328,0.97559
					c1.34863,1.34863,2.12598,2.91895,1.00293,4.04199C372.85596,56.8846,371.23682,55.78889,370.06494,54.61702z
					 M372.63721,52.04378c-1.1377-1.1377-2.28906-1.85059-3.11621-1.02441c-0.8623,0.8623-0.01465,2.03516,1.0459,3.0957
					c1.03906,1.03906,2.22656,1.90039,3.12305,1.00391C374.48877,54.32014,373.75342,53.15999,372.63721,52.04378z"/>
				<path d="M374.04541,50.63557c-1.17285-1.17285-2.28906-2.78418-1.00977-4.06348c1.16602-1.16602,2.7627-0.375,4.11328,0.97461
					c1.34863,1.34961,2.12598,2.91895,1.00195,4.04297C376.83643,52.90413,375.21826,51.80843,374.04541,50.63557z
					 M376.61768,48.06331c-1.1377-1.1377-2.28906-1.85156-3.11523-1.02441c-0.86328,0.86133-0.01562,2.03516,1.04492,3.09473
					c1.03906,1.03906,2.22656,1.90137,3.12402,1.00391C378.46924,50.33968,377.73389,49.17952,376.61768,48.06331z"/>
				<path d="M378.02588,46.65413c-1.17188-1.17188-2.28906-2.78418-1.00977-4.06348
					c1.16602-1.16504,2.76367-0.37402,4.11328,0.97559s2.12695,2.91797,1.00293,4.04199
					C380.81787,48.92268,379.19971,47.82796,378.02588,46.65413z M380.59814,44.08186
					c-1.13672-1.13672-2.28906-1.85156-3.11523-1.02441c-0.8623,0.8623-0.01465,2.03516,1.04492,3.09473
					c1.03906,1.03906,2.22656,1.90234,3.125,1.00391C382.45068,46.35823,381.71533,45.19905,380.59814,44.08186z"/>
			</g>
			<g enable-background="new    ">
				<path d="M480.7998,61.618c-0.62207-0.62207-0.74805-1.44238-0.36719-2.20605c-0.58008,0.19922-1.22266,0.06445-1.71094-0.42383
					c-0.7832-0.7832-0.53711-1.93555,0.16309-2.63574c0.75684-0.75684,1.87988-0.88965,2.64941-0.12012
					c0.48145,0.48145,0.59375,1.13086,0.39648,1.68164c0.75586-0.37305,1.57617-0.23242,2.19141,0.38281
					c0.96777,0.96777,0.63574,2.26074-0.20508,3.10156C483.0752,62.24007,481.76855,62.58577,480.7998,61.618z M481.08984,56.74788
					c-0.4873-0.4873-1.20801-0.45898-1.73926,0.07031c-0.4873,0.48828-0.60742,1.21582-0.09766,1.72461
					c0.54297,0.54492,1.25684,0.50879,1.79395-0.02832C481.57715,57.98421,481.6123,57.27132,481.08984,56.74788z
					 M483.60645,58.74202c-0.64453-0.64453-1.54102-0.56641-2.22656,0.11914c-0.69336,0.69336-0.77148,1.58984-0.12695,2.23438
					c0.67773,0.67773,1.56836,0.46484,2.19727-0.16406C484.07129,60.31038,484.28418,59.41975,483.60645,58.74202z"/>
				<path d="M485.96777,57.67952l0.63672-0.63672l0.77734,0.77734l-0.63672,0.63672L485.96777,57.67952z"/>
				<path d="M486.2666,54.01741c-1.17383-1.17383-2.29004-2.78516-1.01074-4.06445c1.16602-1.16602,2.7627-0.375,4.11328,0.97559
					c1.34863,1.34863,2.12598,2.91895,1.00293,4.04199C489.05762,56.28499,487.43848,55.18929,486.2666,54.01741z
					 M488.83887,51.44417c-1.1377-1.1377-2.28906-1.85059-3.11621-1.02441c-0.8623,0.8623-0.01465,2.03516,1.0459,3.0957
					c1.03906,1.03906,2.22656,1.90039,3.12305,1.00391C490.69043,53.72054,489.95508,52.56038,488.83887,51.44417z"/>
				<path d="M490.24707,50.03596c-1.17285-1.17285-2.28906-2.78418-1.00977-4.06348c1.16602-1.16602,2.7627-0.375,4.11328,0.97461
					c1.34863,1.34961,2.12598,2.91895,1.00195,4.04297C493.03809,52.30452,491.41992,51.20882,490.24707,50.03596z
					 M492.81934,47.4637c-1.1377-1.1377-2.28906-1.85156-3.11523-1.02441c-0.86328,0.86133-0.01562,2.03516,1.04492,3.09473
					c1.03906,1.03906,2.22656,1.90137,3.12402,1.00391C494.6709,49.74007,493.93555,48.57991,492.81934,47.4637z"/>
				<path d="M494.22754,46.05452c-1.17188-1.17188-2.28906-2.78418-1.00977-4.06348
					c1.16602-1.16504,2.76367-0.37402,4.11328,0.97559s2.12695,2.91797,1.00293,4.04199
					C497.01953,48.32307,495.40137,47.22835,494.22754,46.05452z M496.7998,43.48225
					c-1.13672-1.13672-2.28906-1.85156-3.11523-1.02441c-0.8623,0.8623-0.01465,2.03516,1.04492,3.09473
					c1.03906,1.03906,2.22656,1.90234,3.125,1.00391C498.65234,45.75862,497.91699,44.59944,496.7998,43.48225z"/>
			</g>
			<g enable-background="new    ">
				<path d="M597.82031,56.326c0.30273,0.30273,0.52246,0.7207,0.62109,1.12988l0.98926,3.95801l-0.55078,0.55078l-0.71387-2.98926
					c-0.16211,0.34668-0.42383,0.70605-0.78516,0.9541c-0.875,0.60742-2.11328,0.54297-2.9043-0.24805
					c-0.89746-0.89746-0.89062-2.38867,0.03516-3.31445C595.43164,55.44905,596.92188,55.42757,597.82031,56.326z
					 M597.33203,56.82698c-0.64258-0.64355-1.69629-0.65039-2.35352,0.00684c-0.65039,0.65039-0.65039,1.71094-0.00684,2.35352
					c0.64258,0.64258,1.69629,0.63574,2.34668-0.01367C597.96875,58.52327,597.97461,57.46956,597.33203,56.82698z"/>
				<path d="M601.60938,57.67952l0.63672-0.63574l0.77734,0.77734l-0.63672,0.63574L601.60938,57.67952z"/>
				<path d="M601.9082,54.01741c-1.17383-1.17188-2.29004-2.78418-1.01074-4.06348c1.16602-1.16602,2.7627-0.37402,4.11328,0.97559
					c1.34863,1.34961,2.12598,2.91797,1.00293,4.04199C604.69922,56.28596,603.08008,55.19124,601.9082,54.01741z
					 M604.48047,51.44514c-1.1377-1.1377-2.28906-1.85156-3.11621-1.02441c-0.8623,0.8623-0.01465,2.03516,1.0459,3.09473
					c1.03906,1.03906,2.22656,1.90234,3.12305,1.00391C606.33203,53.72151,605.59668,52.56136,604.48047,51.44514z"/>
				<path d="M605.88867,50.03694c-1.17285-1.17285-2.28906-2.78516-1.00977-4.06445c1.16602-1.16602,2.7627-0.37402,4.11328,0.97656
					c1.34863,1.34863,2.12598,2.91797,1.00195,4.04102C608.67969,52.30452,607.06152,51.20979,605.88867,50.03694z
					 M608.46094,47.46468c-1.1377-1.1377-2.28906-1.85156-3.11523-1.02539c-0.86328,0.86328-0.01562,2.03516,1.04492,3.0957
					c1.03906,1.03906,2.22656,1.90137,3.12402,1.00391C610.3125,49.74007,609.57715,48.58089,608.46094,47.46468z"/>
				<path d="M609.86914,46.05647c-1.17188-1.17383-2.28906-2.78516-1.00977-4.06445c1.16602-1.16602,2.76367-0.375,4.11328,0.97559
					c1.34961,1.34863,2.12695,2.91895,1.00293,4.04199C612.66113,48.32405,611.04297,47.22835,609.86914,46.05647z
					 M612.44141,43.48421c-1.13672-1.13867-2.28906-1.85156-3.11523-1.02539c-0.8623,0.8623-0.01465,2.03516,1.04492,3.0957
					c1.03906,1.03906,2.22656,1.90039,3.125,1.00391C614.29395,45.7596,613.55859,44.59944,612.44141,43.48421z"/>
			</g>
			<g enable-background="new    ">
				<path d="M707.68262,59.72249l4.92578,4.92578l-0.48828,0.48828l-3.6543-3.6543l-1.22949,1.23047l-0.48047-0.48047
					l0.81934-0.82031c0.24805-0.24707,0.3252-0.49414,0.03516-0.78516l-0.41602-0.41602L707.68262,59.72249z"/>
				<path d="M712.06543,60.27229c-1.17383-1.17285-2.29004-2.78418-1.01074-4.06348c1.16602-1.16602,2.7627-0.375,4.11328,0.97461
					c1.34863,1.34961,2.12695,2.91797,1.00293,4.04297C714.85645,62.54085,713.2373,61.44514,712.06543,60.27229z
					 M714.6377,57.69905c-1.1377-1.13672-2.28906-1.85156-3.11621-1.02344c-0.8623,0.86133-0.01465,2.03418,1.0459,3.09375
					c1.03906,1.03906,2.22656,1.90234,3.12305,1.00488C716.48926,59.97542,715.75391,58.81624,714.6377,57.69905z"/>
				<path d="M718.18066,57.52132l0.63672-0.63672l0.77734,0.77734l-0.63672,0.63672L718.18066,57.52132z"/>
				<path d="M718.47852,53.85921c-1.17285-1.17383-2.29004-2.78516-1.01074-4.06445c1.16602-1.16602,2.76367-0.375,4.11328,0.97559
					c1.34961,1.34863,2.12695,2.91895,1.00391,4.04199C721.27051,56.12679,719.65137,55.03108,718.47852,53.85921z
					 M721.05176,51.28596c-1.13867-1.1377-2.29004-1.85059-3.11719-1.02441c-0.86133,0.8623-0.01367,2.03516,1.0459,3.0957
					c1.03906,1.03906,2.22656,1.90039,3.12402,1.00391C722.90332,53.56233,722.16699,52.40218,721.05176,51.28596z"/>
				<path d="M722.45996,49.87776c-1.17383-1.17285-2.29004-2.78418-1.01074-4.06348c1.16602-1.16602,2.7627-0.375,4.11328,0.97461
					c1.34863,1.34961,2.12598,2.91895,1.00293,4.04297C725.25098,52.14632,723.63184,51.05061,722.45996,49.87776z
					 M725.03223,47.30452c-1.1377-1.13672-2.28906-1.85059-3.11621-1.02344c-0.8623,0.86133-0.01465,2.03516,1.0459,3.09473
					c1.03906,1.03906,2.22656,1.90137,3.12305,1.00391C726.88379,49.58186,726.14844,48.42171,725.03223,47.30452z"/>
				<path d="M726.44043,45.89632c-1.17285-1.17188-2.28906-2.78418-1.00977-4.06348c1.16602-1.16602,2.7627-0.37402,4.11328,0.97559
					c1.34863,1.34961,2.12598,2.91797,1.00195,4.04199C729.23145,48.16487,727.61328,47.07014,726.44043,45.89632z
					 M729.0127,43.32405c-1.1377-1.13672-2.28906-1.85156-3.11523-1.02441c-0.86328,0.8623-0.01562,2.03516,1.04492,3.09473
					c1.03906,1.03906,2.22656,1.90234,3.12402,1.00391C730.86426,45.60042,730.12891,44.44124,729.0127,43.32405z"/>
			</g>
			<g enable-background="new    ">
				<path d="M822.58594,59.68733l4.92578,4.92578l-0.48828,0.48828l-3.6543-3.6543l-1.22949,1.23047l-0.48047-0.48047
					l0.81934-0.82031c0.24805-0.24707,0.3252-0.49414,0.03516-0.78516l-0.41602-0.41602L822.58594,59.68733z"/>
				<path d="M826.59375,55.67854l4.92578,4.92578l-0.4873,0.4873l-3.65332-3.65332l-1.23047,1.22949l-0.48047-0.48047
					l0.82031-0.82031c0.24707-0.24609,0.32422-0.49414,0.03516-0.78418l-0.41699-0.41699L826.59375,55.67854z"/>
				<path d="M833.04883,57.52132l0.63672-0.63672l0.77734,0.77734l-0.63672,0.63672L833.04883,57.52132z"/>
				<path d="M833.34668,53.85921c-1.17285-1.17383-2.29004-2.78516-1.01074-4.06445c1.16602-1.16602,2.76367-0.375,4.11328,0.97559
					c1.34961,1.34863,2.12695,2.91895,1.00391,4.04199C836.13867,56.12679,834.51953,55.03108,833.34668,53.85921z
					 M835.91895,51.28694c-1.1377-1.13867-2.28906-1.85156-3.11621-1.02539c-0.86133,0.8623-0.01367,2.03516,1.0459,3.0957
					c1.03906,1.03906,2.22656,1.90039,3.12402,1.00391C837.77148,53.56233,837.03516,52.40218,835.91895,51.28694z"/>
				<path d="M837.32812,49.87776c-1.17383-1.17285-2.29004-2.78418-1.01074-4.06348c1.16504-1.16602,2.7627-0.375,4.11328,0.97461
					c1.34863,1.34961,2.12598,2.91895,1.00293,4.04297C840.11914,52.14632,838.5,51.05061,837.32812,49.87776z M839.90039,47.3055
					c-1.13867-1.1377-2.28906-1.85156-3.11621-1.02441c-0.8623,0.86133-0.01465,2.03516,1.0459,3.09473
					c1.03906,1.03906,2.22656,1.90137,3.12305,1.00391C841.75195,49.58186,841.01562,48.42171,839.90039,47.3055z"/>
				<path d="M841.30859,45.89632c-1.17285-1.17188-2.28906-2.78418-1.00977-4.06348c1.16504-1.16504,2.7627-0.37402,4.11328,0.97559
					c1.34863,1.34961,2.12598,2.91797,1.00195,4.04199C844.09961,48.16487,842.48145,47.07014,841.30859,45.89632z
					 M843.88086,43.32405c-1.1377-1.13672-2.28906-1.85156-3.11523-1.02441c-0.86328,0.8623-0.01562,2.03516,1.04492,3.09473
					c1.03906,1.03906,2.22656,1.90234,3.12402,1.00391C845.73242,45.60042,844.99707,44.44124,843.88086,43.32405z"/>
			</g>
			<g enable-background="new    ">
				<path d="M867.85156,42.85921v6.96582h-0.69043v-5.16699h-1.73828v-0.67969h1.15918c0.34961,0,0.5791-0.12012,0.5791-0.53027
					v-0.58887H867.85156z"/>
				<path d="M873.52148,42.85921v6.96582h-0.69043v-5.16699h-1.73828v-0.67969h1.15918c0.34961,0,0.5791-0.12012,0.5791-0.53027
					v-0.58887H873.52148z"/>
				<path d="M876.78223,48.72542h0.89941v1.09961h-0.89941V48.72542z"/>
				<path d="M884.41992,47.50667v0.65918h-1.12988v1.65918h-0.68945v-1.65918h-3.48828v-0.44922l3.53809-4.85742h0.63965v4.64746
					H884.41992z M882.60059,47.50667v-3.6084l-2.56836,3.6084H882.60059z"/>
				<path d="M889.7998,45.08772c0,0.42969-0.13965,0.87988-0.35938,1.23926l-2.09961,3.49805h-0.7793l1.60938-2.61816
					c-0.36035,0.12988-0.7998,0.19922-1.22949,0.11914c-1.0498-0.18945-1.87891-1.10938-1.87891-2.22852
					c0-1.26953,1.05957-2.31836,2.36914-2.31836C888.73047,42.77913,889.7998,43.81819,889.7998,45.08772z M889.10059,45.09749
					c0-0.90918-0.74023-1.65918-1.66895-1.65918c-0.91992,0-1.66992,0.75-1.66992,1.65918s0.75,1.64941,1.66992,1.64941
					C888.35059,46.7469,889.10059,46.00667,889.10059,45.09749z"/>
				<path d="M895.75977,47.50667v0.65918h-1.12988v1.65918h-0.68945v-1.65918h-3.48828v-0.44922l3.53809-4.85742h0.63965v4.64746
					H895.75977z M893.94043,47.50667v-3.6084l-2.56836,3.6084H893.94043z"/>
			</g>
			<g id="Raggruppa_661" transform="translate(149.069 30.678)">
				<g id="Raggruppa_654">
					<line id="Linea_303" fill="none" stroke="#CCCCCC" stroke-width="0.75" x1="0" y1="0" x2="0" y2="5.775"/>
				</g>
				<g id="Raggruppa_655" transform="translate(115.64)">
					<line id="Linea_304" fill="none" stroke="#CCCCCC" stroke-width="0.75" x1="0" y1="0" x2="0" y2="5.775"/>
				</g>
				<g id="Raggruppa_656" transform="translate(231.281)">
					<line id="Linea_305" fill="none" stroke="#CCCCCC" stroke-width="0.75" x1="0" y1="0" x2="0" y2="5.775"/>
				</g>
				<g id="Raggruppa_657" transform="translate(346.921)">
					<line id="Linea_306" fill="none" stroke="#CCCCCC" stroke-width="0.75" x1="0" y1="0" x2="0" y2="5.775"/>
				</g>
				<g id="Raggruppa_658" transform="translate(462.562)">
					<line id="Linea_307" fill="none" stroke="#CCCCCC" stroke-width="0.75" x1="0" y1="0" x2="0" y2="5.775"/>
				</g>
				<g id="Raggruppa_659" transform="translate(578.202)">
					<line id="Linea_308" fill="none" stroke="#CCCCCC" stroke-width="0.75" x1="0" y1="0" x2="0" y2="5.775"/>
				</g>
				<g id="Raggruppa_660" transform="translate(693.843)">
					<line id="Linea_309" fill="none" stroke="#CCCCCC" stroke-width="0.75" x1="0" y1="0" x2="0" y2="5.775"/>
				</g>
			</g>
			<g id="Raggruppa_662" transform="translate(0 0)">
				<path id="Tracciato_611" fill="none" stroke="#CCCCCC" stroke-width="0.75" d="M0,0h900"/>
			</g>
		</g>
		<g id="Layer_1" transform="translate(10.046 0.06)">
			<g id="Raggruppa_664" transform="translate(85.696 0)">
				<g id="Raggruppa_663">
					<rect id="Rettangolo_2151" x="0" y="0" fill="#6666FF" width="25.035" height="30.705"/>
					<rect id="Rettangolo_2152" x="371.104" y="0" fill="#6666FF" width="10.095" height="30.705"/>
					<rect id="Rettangolo_2153" x="565.01501" y="0" fill="#6666FF" width="4.083" height="30.705"/>
					<rect id="Rettangolo_2154" x="595.354" y="0" fill="#6666FF" width="18.607" height="30.705"/>
					<rect id="Rettangolo_2155" x="652.54602" y="0" fill="#6666FF" width="2.74" height="30.705"/>
					<rect id="Rettangolo_2156" x="656.77899" y="0" fill="#6666FF" width="19.283" height="30.705"/>
					<rect id="Rettangolo_2157" x="690.67401" y="0" fill="#6666FF" width="26.712" height="30.705"/>
					<rect id="Rettangolo_2158" x="732.34003" y="0" fill="#6666FF" width="29.452" height="30.705"/>
					<rect id="Rettangolo_2159" x="788.73297" y="0" fill="#6666FF" width="13.47" height="30.705"/>
				</g>
			</g>
			<g id="Raggruppa_666" transform="translate(0 30.705)">
				<g id="Raggruppa_665">
					<rect id="Rettangolo_2160" x="0" y="0" fill="#D6D6FC" width="7.078" height="30.678"/>
					<rect id="Rettangolo_2161" x="7.306" y="0" fill="#D6D6FC" width="29.224" height="30.678"/>
					<rect id="Rettangolo_2162" x="54.452" y="0" fill="#D6D6FC" width="2.397" height="30.678"/>
					<rect id="Rettangolo_2163" x="85.616" y="0" fill="#D6D6FC" width="25.114" height="30.678"/>
					<rect id="Rettangolo_2164" x="181.05" y="0" fill="#D6D6FC" width="5.023" height="30.678"/>
					<rect id="Rettangolo_2165" x="445.43399" y="0" fill="#D6D6FC" width="37.671" height="30.678"/>
					<rect id="Rettangolo_2166" x="531.39301" y="0" fill="#D6D6FC" width="7.306" height="30.678"/>
					<rect id="Rettangolo_2167" x="538.927" y="0" fill="#D6D6FC" width="3.196" height="30.678"/>
					<rect id="Rettangolo_2168" x="542.35199" y="0" fill="#D6D6FC" width="7.877" height="30.678"/>
					<rect id="Rettangolo_2169" x="647.94501" y="0" fill="#D6D6FC" width="2.626" height="30.678"/>
					<rect id="Rettangolo_2170" x="650.685" y="0" fill="#D6D6FC" width="4.11" height="30.678"/>
					<rect id="Rettangolo_2171" x="681.04999" y="0" fill="#D6D6FC" width="18.607" height="30.678"/>
					<rect id="Rettangolo_2172" x="699.88599" y="0" fill="#D6D6FC" width="27.397" height="30.678"/>
					<rect id="Rettangolo_2173" x="738.242" y="0" fill="#D6D6FC" width="2.74" height="30.678"/>
					<rect id="Rettangolo_2174" x="742.35199" y="0" fill="#D6D6FC" width="19.406" height="30.678"/>
					<rect id="Rettangolo_2175" x="761.98602" y="0" fill="#D6D6FC" width="7.877" height="30.678"/>
					<rect id="Rettangolo_2176" x="776.37" y="0" fill="#D6D6FC" width="14.155" height="30.678"/>
					<rect id="Rettangolo_2177" x="790.75299" y="0" fill="#D6D6FC" width="12.329" height="30.678"/>
					<rect id="Rettangolo_2178" x="803.31" y="0" fill="#D6D6FC" width="14.612" height="30.678"/>
					<rect id="Rettangolo_2179" x="818.03601" y="0" fill="#D6D6FC" width="5.023" height="30.678"/>
					<rect id="Rettangolo_2180" x="823.28802" y="0" fill="#D6D6FC" width="24.201" height="30.678"/>
					<rect id="Rettangolo_2181" x="847.71698" y="0" fill="#D6D6FC" width="26.598" height="30.678"/>
					<rect id="Rettangolo_2182" x="874.42902" y="0" fill="#D6D6FC" width="13.47" height="30.678"/>
				</g>
			</g>
		</g>
		<g id="Isolation_Mode" transform="translate(384.722 0.06)">
			<g id="Raggruppa_667" transform="translate(0 0)">
				<rect id="Rettangolo_2183" x="0" y="0" fill="#6666FF" width="9.415" height="30.705"/>
				<rect id="Rettangolo_2184" x="36.525" y="0" fill="#6666FF" width="3.63" height="30.705"/>
				<rect id="Rettangolo_2185" x="180.46899" y="0" fill="#6666FF" width="11.797" height="30.705"/>
				<rect id="Rettangolo_2186" x="202.47501" y="0" fill="#6666FF" width="33.122" height="30.705"/>
				<rect id="Rettangolo_2187" x="252.214" y="0" fill="#6666FF" width="20.871" height="30.705"/>
			</g>
		</g>
	</g>
</g>
</svg>
