<?xml version="1.0" encoding="utf-8"?>
<!-- Generator: Adobe Illustrator 25.1.0, SVG Export Plug-In . SVG Version: 6.00 Build 0)  -->
<svg version="1.1" id="Livello_1" xmlns="http://www.w3.org/2000/svg" xmlns:xlink="http://www.w3.org/1999/xlink" x="0px" y="0px"
	 viewBox="0 0 695 12.9" enable-background="new 0 0 695 12.9" xml:space="preserve">
<g>
	<defs>
		<rect id="SVGID_1_" y="0" width="695" height="12.9"/>
	</defs>
	<clipPath id="SVGID_2_">
		<use xlink:href="#SVGID_1_"  overflow="visible"/>
	</clipPath>
	<g id="legenda" clip-path="url(#SVGID_2_)">
		<g id="Raggruppa_24937">
			<g enable-background="new    ">
				<path d="M26.13916,2.03436h1.88916c2.26855,0,3.55811,1.28906,3.55811,3.53809c0,2.21875-1.25928,3.42773-3.56787,3.42773
					h-1.87939V2.03436z M27.9585,8.341c1.94873,0,2.9082-0.91992,2.9082-2.79883c0-1.88867-0.95947-2.84863-2.84814-2.84863
					h-1.16943V8.341H27.9585z"/>
				<path d="M36.96729,4.07245v4.92773h-0.68945V8.29022c-0.3501,0.53027-0.97949,0.79004-1.62939,0.79004
					c-1.11914,0-1.60889-0.76953-1.60889-1.98926V4.07245H33.729v2.84863c0,0.7998,0.14014,1.5498,1.07959,1.5498
					c0.97949,0,1.46924-0.84961,1.46924-2.12891V4.07245H36.96729z"/>
				<path d="M43.29688,6.53143c0,1.46973-0.74951,2.54883-2.18896,2.54883c-0.71924,0-1.26904-0.28027-1.62891-0.73926v0.65918
					h-0.68945V2.03436H39.479V4.7326c0.36963-0.47949,0.92969-0.75,1.62891-0.75C42.47754,3.9826,43.29688,4.99237,43.29688,6.53143
					z M42.60742,6.53143c0-1.16895-0.59961-1.93848-1.59912-1.93848c-0.98975,0-1.58936,0.76953-1.58936,1.93848
					c0,1.11914,0.5498,1.93945,1.58936,1.93945C42.05762,8.47089,42.60742,7.65057,42.60742,6.53143z"/>
				<path d="M44.66943,2.03436h0.79932v1.01953h-0.79932V2.03436z M44.72949,4.07245h0.68945v4.92773h-0.68945V4.07245z"/>
				<path d="M49.28809,8.95038c-0.25977,0.08008-0.52002,0.12988-0.74951,0.12988c-0.65967,0-1.13965-0.37012-1.13965-1.23926
					V4.65253h-0.81934V4.07245h0.81934V2.69354l0.68994-0.51953v1.89844h1.18896v0.58008h-1.18896v3.09863
					c0,0.47949,0.21973,0.69922,0.60938,0.69922c0.16992,0,0.35986-0.04004,0.57959-0.10938L49.28809,8.95038z"/>
				<path d="M54.26709,5.93182v3.06836h-0.62988l-0.04004-0.75977c-0.38965,0.5498-0.98926,0.83984-1.76904,0.83984
					c-1.06934,0-1.69873-0.55957-1.69873-1.50977c0-0.49902,0.19971-0.87891,0.55957-1.09863
					c0.37988-0.21973,0.90967-0.31055,1.87891-0.31055h1.00928V5.93182c0-0.85938-0.44971-1.3291-1.2793-1.3291
					c-0.61963,0-1.09912,0.26953-1.49902,0.81934l-0.49951-0.41992c0.5293-0.68945,1.16895-1.00879,2.00879-1.00879
					C53.54736,3.99335,54.26709,4.70233,54.26709,5.93182z M53.57715,6.7912V6.72186h-0.94922
					c-0.90967,0-1.29932,0.05957-1.53906,0.24902c-0.18018,0.14062-0.27002,0.36035-0.27002,0.63965
					c0,0.5498,0.46973,0.90039,1.20947,0.90039C52.97754,8.51093,53.57715,7.841,53.57715,6.7912z"/>
				<path d="M57.99805,8.95038c-0.25977,0.08008-0.52002,0.12988-0.74951,0.12988c-0.65967,0-1.13965-0.37012-1.13965-1.23926
					V4.65253h-0.81934V4.07245h0.81934V2.69354l0.68994-0.51953v1.89844h1.18896v0.58008h-1.18896v3.09863
					c0,0.47949,0.21973,0.69922,0.60938,0.69922c0.16992,0,0.35986-0.04004,0.57959-0.10938L57.99805,8.95038z"/>
				<path d="M59.24902,2.03436h0.79932v1.01953h-0.79932V2.03436z M59.30908,4.07245h0.68945v4.92773h-0.68945V4.07245z"/>
				<path d="M61.10889,4.07245h0.75l1.54883,4.04785l1.55908-4.04785h0.75977l-2.01904,4.92773h-0.58936L61.10889,4.07245z"/>
				<path d="M70.58643,6.72186h-3.60791c0.02002,1.0791,0.61963,1.72852,1.58936,1.72852c0.53955,0,0.96924-0.13965,1.41895-0.61914
					l0.47998,0.41895c-0.57959,0.61035-1.14941,0.83008-1.90918,0.83008c-1.49902,0-2.26855-1.11914-2.26855-2.51855
					c0-1.38965,0.75977-2.56836,2.18896-2.56836c1.50879,0,2.13867,1.17871,2.13867,2.29785
					C70.6167,6.43182,70.60645,6.60175,70.58643,6.72186z M66.97852,6.14178h2.97852c0-0.02051-0.01025-0.07031-0.01025-0.16016
					c-0.0498-0.7998-0.55957-1.40918-1.46875-1.40918C67.58838,4.57245,67.03857,5.27264,66.97852,6.14178z"/>
				<path d="M76.7876,8.95038c-0.25977,0.08008-0.52002,0.12988-0.74951,0.12988c-0.65967,0-1.13965-0.37012-1.13965-1.23926
					V4.65253H74.0791V4.07245h0.81934V2.69354l0.68945-0.51953v1.89844h1.18945v0.58008h-1.18945v3.09863
					c0,0.47949,0.22021,0.69922,0.60986,0.69922c0.16992,0,0.35986-0.04004,0.57959-0.10938L76.7876,8.95038z"/>
				<path d="M81.94678,6.72186h-3.60791c0.02002,1.0791,0.61963,1.72852,1.58936,1.72852c0.53955,0,0.96924-0.13965,1.41895-0.61914
					l0.47998,0.41895c-0.57959,0.61035-1.14941,0.83008-1.90918,0.83008c-1.49902,0-2.26855-1.11914-2.26855-2.51855
					c0-1.38965,0.75977-2.56836,2.18896-2.56836c1.50879,0,2.13867,1.17871,2.13867,2.29785
					C81.97705,6.43182,81.9668,6.60175,81.94678,6.72186z M78.33887,6.14178h2.97852c0-0.02051-0.01025-0.07031-0.01025-0.16016
					c-0.0498-0.7998-0.55957-1.40918-1.46875-1.40918C78.94873,4.57245,78.39893,5.27264,78.33887,6.14178z"/>
				<path d="M84.51855,6.53143l-1.79932-2.45898h0.83984l1.41895,1.97949l1.40918-1.97949h0.83984l-1.79932,2.45898l1.80908,2.46875
					h-0.84961l-1.40918-1.99902l-1.40918,1.99902h-0.84961L84.51855,6.53143z"/>
				<path d="M90.49756,8.95038c-0.25977,0.08008-0.52002,0.12988-0.74951,0.12988c-0.65967,0-1.13965-0.37012-1.13965-1.23926
					V4.65253h-0.81934V4.07245h0.81934V2.69354l0.68945-0.51953v1.89844h1.18945v0.58008h-1.18945v3.09863
					c0,0.47949,0.22021,0.69922,0.60986,0.69922c0.16992,0,0.35986-0.04004,0.57959-0.10938L90.49756,8.95038z"/>
				<path d="M94.34863,5.52167c0-1.51855,0.40967-2.91797,1.15918-3.80762h0.63965
					c-0.89941,1.10938-1.24902,2.50879-1.24902,3.82812c0,1.44922,0.42969,2.77832,1.23926,3.78809h-0.61963
					C94.77832,8.50018,94.34863,6.7912,94.34863,5.52167z"/>
				<path d="M99.46777,8.95038c-0.25977,0.08008-0.52002,0.12988-0.74951,0.12988c-0.65967,0-1.13965-0.37012-1.13965-1.23926
					V4.65253h-0.81934V4.07245h0.81934V2.69354l0.68994-0.51953v1.89844h1.18896v0.58008h-1.18896v3.09863
					c0,0.47949,0.21973,0.69922,0.60938,0.69922c0.16992,0,0.35986-0.04004,0.57959-0.10938L99.46777,8.95038z"/>
				<path d="M104.84668,2.03436v6.96582h-0.68994V8.341c-0.35938,0.45898-0.90918,0.73926-1.62891,0.73926
					c-1.43896,0-2.18896-1.0791-2.18896-2.54883c0-1.53906,0.81982-2.54883,2.18896-2.54883c0.69971,0,1.25928,0.27051,1.62891,0.75
					V2.03436H104.84668z M104.2168,6.53143c0-1.16895-0.59961-1.93848-1.58887-1.93848c-0.99951,0-1.59912,0.76953-1.59912,1.93848
					c0,1.11914,0.54932,1.93945,1.59912,1.93945C103.66699,8.47089,104.2168,7.65057,104.2168,6.53143z"/>
				<path d="M106.12891,9.33026c0.80957-1.00977,1.23926-2.33887,1.23926-3.78809c0-1.31934-0.34961-2.71875-1.24902-3.82812
					h0.63965c0.74951,0.88965,1.15918,2.28906,1.15918,3.80762c0,1.26953-0.42969,2.97852-1.16943,3.80859H106.12891z"/>
			</g>
			<path id="Path_47" fill="#D6D6FC" d="M5.559,1h9.882C18.35418,0.85299,20.8386,3.08758,21,6
				c-0.1614,2.91242-2.64582,5.14701-5.559,5H5.559C2.64582,11.14701,0.1614,8.91242,0,6C0.1614,3.08758,2.64582,0.85299,5.559,1z"
				/>
		</g>
		<g id="Raggruppa_24938" transform="translate(9)">
			<g enable-background="new    ">
				<path d="M141.74854,2.69354h-2.40869V2.03436h5.54688v0.65918h-2.41846v6.30664h-0.71973V2.69354z"/>
				<path d="M149.07715,6.72186h-3.60791c0.02002,1.0791,0.61963,1.72852,1.58936,1.72852
					c0.53955,0,0.96924-0.13965,1.41895-0.61914l0.47998,0.41895c-0.57959,0.61035-1.14941,0.83008-1.90918,0.83008
					c-1.49902,0-2.26855-1.11914-2.26855-2.51855c0-1.38965,0.75977-2.56836,2.18896-2.56836
					c1.50879,0,2.13867,1.17871,2.13867,2.29785C149.10742,6.43182,149.09717,6.60175,149.07715,6.72186z M145.46924,6.14178
					h2.97852c0-0.02051-0.01025-0.07031-0.01025-0.16016c-0.0498-0.7998-0.55957-1.40918-1.46875-1.40918
					C146.0791,4.57245,145.5293,5.27264,145.46924,6.14178z"/>
				<path d="M151.64893,6.53143l-1.79932-2.45898h0.83984l1.41895,1.97949l1.40918-1.97949h0.83984l-1.79932,2.45898
					l1.80908,2.46875h-0.84961l-1.40918-1.99902l-1.40918,1.99902h-0.84961L151.64893,6.53143z"/>
				<path d="M157.62842,8.95038c-0.25977,0.08008-0.52002,0.12988-0.74951,0.12988c-0.65967,0-1.13965-0.37012-1.13965-1.23926
					V4.65253h-0.81934V4.07245h0.81934V2.69354l0.68945-0.51953v1.89844h1.18945v0.58008h-1.18945v3.09863
					c0,0.47949,0.22021,0.69922,0.60986,0.69922c0.16992,0,0.35986-0.04004,0.57959-0.10938L157.62842,8.95038z"/>
				<path d="M161.23926,6.53143c0-1.45898,0.94971-2.53809,2.35889-2.53809c1.39941,0,2.36865,1.0791,2.36865,2.53809
					c0,1.44922-0.95947,2.54883-2.36865,2.54883S161.23926,7.99042,161.23926,6.53143z M165.27734,6.53143
					c0-1.11914-0.62988-1.92871-1.6792-1.92871c-1.05957,0-1.66895,0.81934-1.66895,1.92871
					c0,1.11914,0.61963,1.93945,1.66895,1.93945C164.65771,8.47089,165.27734,7.63104,165.27734,6.53143z"/>
				<path d="M171.8667,6.53143c0,1.46973-0.74951,2.54883-2.18896,2.54883c-0.71924,0-1.26904-0.28027-1.62891-0.73926v0.65918
					h-0.68945V2.03436h0.68945V4.7326c0.36963-0.47949,0.92969-0.75,1.62891-0.75
					C171.04736,3.9826,171.8667,4.99237,171.8667,6.53143z M171.17725,6.53143c0-1.16895-0.59961-1.93848-1.59912-1.93848
					c-0.98975,0-1.58936,0.76953-1.58936,1.93848c0,1.11914,0.5498,1.93945,1.58936,1.93945
					C170.62744,8.47089,171.17725,7.65057,171.17725,6.53143z"/>
				<path d="M172.35986,10.98944l0.00977-0.55957c0.16992,0.05957,0.33008,0.0791,0.45996,0.0791
					c0.2998,0,0.46973-0.16992,0.46973-0.55957V4.07245h0.67969v5.91699c0,0.7793-0.37012,1.12988-0.93994,1.12988
					C172.83936,11.11932,172.60938,11.06952,172.35986,10.98944z M173.23926,2.03436h0.79932v1.01953h-0.79932V2.03436z"/>
				<path d="M179.69678,6.72186h-3.60791c0.02002,1.0791,0.61963,1.72852,1.58936,1.72852
					c0.53955,0,0.96924-0.13965,1.41895-0.61914l0.47998,0.41895c-0.57959,0.61035-1.14941,0.83008-1.90918,0.83008
					c-1.49902,0-2.26855-1.11914-2.26855-2.51855c0-1.38965,0.75977-2.56836,2.18896-2.56836
					c1.50879,0,2.13867,1.17871,2.13867,2.29785C179.72705,6.43182,179.7168,6.60175,179.69678,6.72186z M176.08887,6.14178h2.97852
					c0-0.02051-0.01025-0.07031-0.01025-0.16016c-0.0498-0.7998-0.55957-1.40918-1.46875-1.40918
					C176.69873,4.57245,176.14893,5.27264,176.08887,6.14178z"/>
				<path d="M180.70898,6.55194c0-1.2998,0.72998-2.55859,2.21875-2.55859c0.87988,0,1.60938,0.43945,1.99902,1.3584
					l-0.65967,0.26074c-0.22949-0.62988-0.71924-1.00977-1.33936-1.00977c-1.04932,0-1.51904,0.93945-1.51904,1.94922
					c0,1.00879,0.46973,1.91895,1.5293,1.91895c0.61963,0,1.10938-0.37012,1.29932-1l0.63965,0.24023
					c-0.33008,0.89941-1.04932,1.36914-1.93896,1.36914C181.50879,9.08026,180.70898,7.92108,180.70898,6.55194z"/>
				<path d="M188.24805,8.95038c-0.25977,0.08008-0.52002,0.12988-0.74951,0.12988c-0.65967,0-1.13965-0.37012-1.13965-1.23926
					V4.65253h-0.81934V4.07245h0.81934V2.69354l0.68994-0.51953v1.89844h1.18896v0.58008h-1.18896v3.09863
					c0,0.47949,0.21973,0.69922,0.60938,0.69922c0.16992,0,0.35986-0.04004,0.57959-0.10938L188.24805,8.95038z"/>
				<path d="M191.85938,6.53143c0-1.45898,0.94922-2.53809,2.3584-2.53809c1.39941,0,2.36865,1.0791,2.36865,2.53809
					c0,1.44922-0.95947,2.54883-2.36865,2.54883S191.85938,7.99042,191.85938,6.53143z M195.89697,6.53143
					c0-1.11914-0.62988-1.92871-1.6792-1.92871c-1.05957,0-1.66895,0.81934-1.66895,1.92871
					c0,1.11914,0.61963,1.93945,1.66895,1.93945C195.27734,8.47089,195.89697,7.63104,195.89697,6.53143z"/>
				<path d="M198.27881,4.65253h-1.03955V4.07245h1.04932V3.31366c0-1.0498,0.60986-1.35938,1.23926-1.35938
					c0.27002,0,0.56982,0.05957,0.87988,0.18945l-0.24023,0.5498c-0.20996-0.09961-0.39941-0.16016-0.56934-0.16016
					c-0.39014,0-0.62988,0.27051-0.62988,0.72949v0.80957h1.41943v0.58008h-1.41943v4.34766h-0.68945V4.65253z"/>
				<path d="M208.31641,2.03436v6.96582h-0.68994V8.341c-0.35938,0.45898-0.90918,0.73926-1.62891,0.73926
					c-1.43896,0-2.18896-1.0791-2.18896-2.54883c0-1.53906,0.81982-2.54883,2.18896-2.54883c0.69971,0,1.25928,0.27051,1.62891,0.75
					V2.03436H208.31641z M207.68652,6.53143c0-1.16895-0.59961-1.93848-1.58887-1.93848c-0.99951,0-1.59912,0.76953-1.59912,1.93848
					c0,1.11914,0.54932,1.93945,1.59912,1.93945C207.13672,8.47089,207.68652,7.65057,207.68652,6.53143z"/>
				<path d="M209.70898,6.53143c0-1.45898,0.94922-2.53809,2.3584-2.53809c1.39941,0,2.36865,1.0791,2.36865,2.53809
					c0,1.44922-0.95947,2.54883-2.36865,2.54883S209.70898,7.99042,209.70898,6.53143z M213.74658,6.53143
					c0-1.11914-0.62988-1.92871-1.6792-1.92871c-1.05957,0-1.66895,0.81934-1.66895,1.92871
					c0,1.11914,0.61963,1.93945,1.66895,1.93945C213.12695,8.47089,213.74658,7.63104,213.74658,6.53143z"/>
				<path d="M219.58643,4.07245v4.92773h-0.68945V8.29022c-0.3501,0.53027-0.97949,0.79004-1.62939,0.79004
					c-1.11914,0-1.60889-0.76953-1.60889-1.98926V4.07245h0.68945v2.84863c0,0.7998,0.14014,1.5498,1.07959,1.5498
					c0.97949,0,1.46924-0.84961,1.46924-2.12891V4.07245H219.58643z"/>
				<path d="M225.91602,6.53143c0,1.46973-0.74951,2.54883-2.18896,2.54883c-0.71924,0-1.26904-0.28027-1.62891-0.73926v0.65918
					h-0.68945V2.03436h0.68945V4.7326c0.36963-0.47949,0.92969-0.75,1.62891-0.75
					C225.09668,3.9826,225.91602,4.99237,225.91602,6.53143z M225.22656,6.53143c0-1.16895-0.59961-1.93848-1.59912-1.93848
					c-0.98975,0-1.58936,0.76953-1.58936,1.93848c0,1.11914,0.5498,1.93945,1.58936,1.93945
					C224.67676,8.47089,225.22656,7.65057,225.22656,6.53143z"/>
				<path d="M229.34717,8.95038c-0.25977,0.08008-0.52002,0.12988-0.74951,0.12988c-0.65967,0-1.13965-0.37012-1.13965-1.23926
					V4.65253h-0.81934V4.07245h0.81934V2.69354l0.68945-0.51953v1.89844h1.18945v0.58008h-1.18945v3.09863
					c0,0.47949,0.22021,0.69922,0.60986,0.69922c0.16992,0,0.35986-0.04004,0.57959-0.10938L229.34717,8.95038z"/>
			</g>
			<path id="Path_46" fill="#FFD93B" d="M118.559,1h9.882c2.91318-0.14701,5.39761,2.08758,5.55901,5
				c-0.16141,2.91242-2.64581,5.14701-5.55901,5h-9.88199c-2.91319,0.14701-5.3976-2.08758-5.559-5
				C113.16141,3.08758,115.64582,0.85299,118.559,1z"/>
		</g>
		<g id="Raggruppa_24939" transform="translate(1)">
			<g enable-background="new    ">
				<path d="M276.13916,2.03436h1.88916c2.26855,0,3.55811,1.28906,3.55811,3.53809c0,2.21875-1.25928,3.42773-3.56787,3.42773
					h-1.87939V2.03436z M277.9585,8.341c1.94873,0,2.9082-0.91992,2.9082-2.79883c0-1.88867-0.95947-2.84863-2.84814-2.84863
					h-1.16943V8.341H277.9585z"/>
				<path d="M286.96729,4.07245v4.92773h-0.68945V8.29022c-0.3501,0.53027-0.97949,0.79004-1.62939,0.79004
					c-1.11914,0-1.60889-0.76953-1.60889-1.98926V4.07245h0.68945v2.84863c0,0.7998,0.14014,1.5498,1.07959,1.5498
					c0.97949,0,1.46924-0.84961,1.46924-2.12891V4.07245H286.96729z"/>
				<path d="M293.29688,6.53143c0,1.46973-0.74951,2.54883-2.18896,2.54883c-0.71924,0-1.26904-0.28027-1.62891-0.73926v0.65918
					h-0.68945V2.03436h0.68945V4.7326c0.36963-0.47949,0.92969-0.75,1.62891-0.75
					C292.47754,3.9826,293.29688,4.99237,293.29688,6.53143z M292.60742,6.53143c0-1.16895-0.59961-1.93848-1.59912-1.93848
					c-0.98975,0-1.58936,0.76953-1.58936,1.93848c0,1.11914,0.5498,1.93945,1.58936,1.93945
					C292.05762,8.47089,292.60742,7.65057,292.60742,6.53143z"/>
				<path d="M294.66943,2.03436h0.79932v1.01953h-0.79932V2.03436z M294.72949,4.07245h0.68945v4.92773h-0.68945V4.07245z"/>
				<path d="M299.28809,8.95038c-0.25977,0.08008-0.52002,0.12988-0.74951,0.12988c-0.65967,0-1.13965-0.37012-1.13965-1.23926
					V4.65253h-0.81934V4.07245h0.81934V2.69354l0.68994-0.51953v1.89844h1.18896v0.58008h-1.18896v3.09863
					c0,0.47949,0.21973,0.69922,0.60938,0.69922c0.16992,0,0.35986-0.04004,0.57959-0.10938L299.28809,8.95038z"/>
				<path d="M304.26709,5.93182v3.06836h-0.62988l-0.04004-0.75977c-0.38965,0.5498-0.98926,0.83984-1.76904,0.83984
					c-1.06934,0-1.69873-0.55957-1.69873-1.50977c0-0.49902,0.19971-0.87891,0.55957-1.09863
					c0.37988-0.21973,0.90967-0.31055,1.87891-0.31055h1.00928V5.93182c0-0.85938-0.44971-1.3291-1.2793-1.3291
					c-0.61963,0-1.09912,0.26953-1.49902,0.81934l-0.49951-0.41992c0.5293-0.68945,1.16895-1.00879,2.00879-1.00879
					C303.54736,3.99335,304.26709,4.70233,304.26709,5.93182z M303.57715,6.7912V6.72186h-0.94922
					c-0.90967,0-1.29932,0.05957-1.53906,0.24902c-0.18018,0.14062-0.27002,0.36035-0.27002,0.63965
					c0,0.5498,0.46973,0.90039,1.20947,0.90039C302.97754,8.51093,303.57715,7.841,303.57715,6.7912z"/>
				<path d="M307.99805,8.95038c-0.25977,0.08008-0.52002,0.12988-0.74951,0.12988c-0.65967,0-1.13965-0.37012-1.13965-1.23926
					V4.65253h-0.81934V4.07245h0.81934V2.69354l0.68994-0.51953v1.89844h1.18896v0.58008h-1.18896v3.09863
					c0,0.47949,0.21973,0.69922,0.60938,0.69922c0.16992,0,0.35986-0.04004,0.57959-0.10938L307.99805,8.95038z"/>
				<path d="M309.24902,2.03436h0.79932v1.01953h-0.79932V2.03436z M309.30908,4.07245h0.68945v4.92773h-0.68945V4.07245z"/>
				<path d="M311.10889,4.07245h0.75l1.54883,4.04785l1.55908-4.04785h0.75977l-2.01904,4.92773h-0.58936L311.10889,4.07245z"/>
				<path d="M320.58643,6.72186h-3.60791c0.02002,1.0791,0.61963,1.72852,1.58936,1.72852
					c0.53955,0,0.96924-0.13965,1.41895-0.61914l0.47998,0.41895c-0.57959,0.61035-1.14941,0.83008-1.90918,0.83008
					c-1.49902,0-2.26855-1.11914-2.26855-2.51855c0-1.38965,0.75977-2.56836,2.18896-2.56836
					c1.50879,0,2.13867,1.17871,2.13867,2.29785C320.6167,6.43182,320.60645,6.60175,320.58643,6.72186z M316.97852,6.14178h2.97852
					c0-0.02051-0.01025-0.07031-0.01025-0.16016c-0.0498-0.7998-0.55957-1.40918-1.46875-1.40918
					C317.58838,4.57245,317.03857,5.27264,316.97852,6.14178z"/>
				<path d="M326.7876,8.95038c-0.25977,0.08008-0.52002,0.12988-0.74951,0.12988c-0.65967,0-1.13965-0.37012-1.13965-1.23926
					V4.65253h-0.81934V4.07245h0.81934V2.69354l0.68945-0.51953v1.89844h1.18945v0.58008h-1.18945v3.09863
					c0,0.47949,0.22021,0.69922,0.60986,0.69922c0.16992,0,0.35986-0.04004,0.57959-0.10938L326.7876,8.95038z"/>
				<path d="M331.94678,6.72186h-3.60791c0.02002,1.0791,0.61963,1.72852,1.58936,1.72852
					c0.53955,0,0.96924-0.13965,1.41895-0.61914l0.47998,0.41895c-0.57959,0.61035-1.14941,0.83008-1.90918,0.83008
					c-1.49902,0-2.26855-1.11914-2.26855-2.51855c0-1.38965,0.75977-2.56836,2.18896-2.56836
					c1.50879,0,2.13867,1.17871,2.13867,2.29785C331.97705,6.43182,331.9668,6.60175,331.94678,6.72186z M328.33887,6.14178h2.97852
					c0-0.02051-0.01025-0.07031-0.01025-0.16016c-0.0498-0.7998-0.55957-1.40918-1.46875-1.40918
					C328.94873,4.57245,328.39893,5.27264,328.33887,6.14178z"/>
				<path d="M334.51855,6.53143l-1.79932-2.45898h0.83984l1.41895,1.97949l1.40918-1.97949h0.83984l-1.79932,2.45898
					l1.80908,2.46875h-0.84961l-1.40918-1.99902l-1.40918,1.99902h-0.84961L334.51855,6.53143z"/>
				<path d="M340.49756,8.95038c-0.25977,0.08008-0.52002,0.12988-0.74951,0.12988c-0.65967,0-1.13965-0.37012-1.13965-1.23926
					V4.65253h-0.81934V4.07245h0.81934V2.69354l0.68945-0.51953v1.89844h1.18945v0.58008h-1.18945v3.09863
					c0,0.47949,0.22021,0.69922,0.60986,0.69922c0.16992,0,0.35986-0.04004,0.57959-0.10938L340.49756,8.95038z"/>
				<path d="M348.20703,5.93182v3.06836h-0.63086l-0.03906-0.75977c-0.39062,0.5498-0.98975,0.83984-1.76953,0.83984
					c-1.06934,0-1.69873-0.55957-1.69873-1.50977c0-0.49902,0.19971-0.87891,0.55957-1.09863
					c0.37988-0.21973,0.90967-0.31055,1.87891-0.31055h1.00928V5.93182c0-0.85938-0.4502-1.3291-1.2793-1.3291
					c-0.61963,0-1.09912,0.26953-1.49902,0.81934l-0.49951-0.41992c0.5293-0.68945,1.16895-1.00879,2.00879-1.00879
					C347.48633,3.99335,348.20703,4.70233,348.20703,5.93182z M347.5166,6.7912V6.72186h-0.94922
					c-0.90967,0-1.29932,0.05957-1.53906,0.24902c-0.18018,0.14062-0.27002,0.36035-0.27002,0.63965
					c0,0.5498,0.46973,0.90039,1.20947,0.90039C346.91699,8.51093,347.5166,7.841,347.5166,6.7912z"/>
				<path d="M349.84863,7.93085V2.03436h0.68945v5.85645c0,0.33984,0.12012,0.55957,0.4502,0.55957
					c0.14941,0,0.31934-0.04004,0.46875-0.08984l0.01074,0.58984c-0.20996,0.06934-0.45996,0.12988-0.67969,0.12988
					C350.21875,9.08026,349.84863,8.70038,349.84863,7.93085z"/>
				<path d="M352.05859,7.7912l0.58008-0.25977c0.17969,0.50977,0.65918,0.93945,1.42871,0.93945
					c0.66895,0,1.09961-0.33008,1.09961-0.84961c0-1.30957-2.83887-0.49023-2.83887-2.23926
					c0-0.85938,0.69922-1.38867,1.68945-1.38867c0.78906,0,1.42969,0.3291,1.76953,1.0293l-0.55078,0.2998
					c-0.23926-0.44043-0.62891-0.71973-1.23828-0.71973c-0.61035,0-1,0.25-1,0.67969c0,1.16895,2.84766,0.42969,2.84766,2.29883
					c0,0.99902-0.81836,1.49902-1.76855,1.49902C353.10742,9.08026,352.31836,8.58026,352.05859,7.7912z"/>
				<path d="M356.76855,6.53143c0-1.45898,0.9502-2.53809,2.3584-2.53809c1.40039,0,2.36914,1.0791,2.36914,2.53809
					c0,1.44922-0.95898,2.54883-2.36914,2.54883C357.71875,9.08026,356.76855,7.99042,356.76855,6.53143z M360.80664,6.53143
					c0-1.11914-0.62988-1.92871-1.67969-1.92871c-1.05859,0-1.66797,0.81934-1.66797,1.92871
					c0,1.11914,0.61914,1.93945,1.66797,1.93945C360.1875,8.47089,360.80664,7.63104,360.80664,6.53143z"/>
				<path d="M365.18848,6.53143c0-1.45898,0.94922-2.53809,2.3584-2.53809c1.39941,0,2.36914,1.0791,2.36914,2.53809
					c0,1.44922-0.95996,2.54883-2.36914,2.54883S365.18848,7.99042,365.18848,6.53143z M369.22656,6.53143
					c0-1.11914-0.63086-1.92871-1.67969-1.92871c-1.05957,0-1.66895,0.81934-1.66895,1.92871
					c0,1.11914,0.62012,1.93945,1.66895,1.93945C368.60645,8.47089,369.22656,7.63104,369.22656,6.53143z"/>
				<path d="M375.81543,6.53143c0,1.46973-0.74902,2.54883-2.18848,2.54883c-0.71973,0-1.26953-0.28027-1.62891-0.73926v0.65918
					h-0.68945V2.03436h0.68945V4.7326c0.36914-0.47949,0.92969-0.75,1.62891-0.75
					C374.99609,3.9826,375.81543,4.99237,375.81543,6.53143z M375.12598,6.53143c0-1.16895-0.59961-1.93848-1.59863-1.93848
					c-0.99023,0-1.58984,0.76953-1.58984,1.93848c0,1.11914,0.5498,1.93945,1.58984,1.93945
					C374.57617,8.47089,375.12598,7.65057,375.12598,6.53143z"/>
				<path d="M376.30859,10.98944l0.00977-0.55957c0.16992,0.05957,0.33008,0.0791,0.45996,0.0791
					c0.2998,0,0.46973-0.16992,0.46973-0.55957V4.07245h0.67969v5.91699c0,0.7793-0.37012,1.12988-0.93945,1.12988
					C376.78809,11.11932,376.55859,11.06952,376.30859,10.98944z M377.1875,2.03436h0.7998v1.01953h-0.7998V2.03436z"/>
				<path d="M383.64551,6.72186h-3.6084c0.02051,1.0791,0.62012,1.72852,1.58984,1.72852c0.53906,0,0.96875-0.13965,1.41895-0.61914
					l0.47949,0.41895c-0.5791,0.61035-1.14844,0.83008-1.9082,0.83008c-1.5,0-2.26953-1.11914-2.26953-2.51855
					c0-1.38965,0.75977-2.56836,2.18945-2.56836c1.50879,0,2.13867,1.17871,2.13867,2.29785
					C383.67578,6.43182,383.66602,6.60175,383.64551,6.72186z M380.03711,6.14178h2.97852
					c0-0.02051-0.00977-0.07031-0.00977-0.16016c-0.0498-0.7998-0.55957-1.40918-1.46875-1.40918
					C380.64746,4.57245,380.09766,5.27264,380.03711,6.14178z"/>
				<path d="M384.6582,6.55194c0-1.2998,0.73047-2.55859,2.21875-2.55859c0.87988,0,1.60938,0.43945,1.99902,1.3584
					l-0.65918,0.26074c-0.23047-0.62988-0.71973-1.00977-1.33984-1.00977c-1.04883,0-1.51953,0.93945-1.51953,1.94922
					c0,1.00879,0.4707,1.91895,1.5293,1.91895c0.62012,0,1.10938-0.37012,1.2998-1l0.63965,0.24023
					c-0.33008,0.89941-1.04883,1.36914-1.93945,1.36914C385.45801,9.08026,384.6582,7.92108,384.6582,6.55194z"/>
				<path d="M392.19727,8.95038c-0.25977,0.08008-0.52051,0.12988-0.75,0.12988c-0.66016,0-1.13965-0.37012-1.13965-1.23926V4.65253
					h-0.81934V4.07245h0.81934V2.69354l0.68945-0.51953v1.89844h1.18945v0.58008h-1.18945v3.09863
					c0,0.47949,0.21973,0.69922,0.61035,0.69922c0.16992,0,0.35938-0.04004,0.5791-0.10938L392.19727,8.95038z"/>
				<path d="M395.80762,6.53143c0-1.45898,0.9502-2.53809,2.3584-2.53809c1.40039,0,2.36914,1.0791,2.36914,2.53809
					c0,1.44922-0.95898,2.54883-2.36914,2.54883C396.75781,9.08026,395.80762,7.99042,395.80762,6.53143z M399.8457,6.53143
					c0-1.11914-0.62988-1.92871-1.67969-1.92871c-1.05859,0-1.66797,0.81934-1.66797,1.92871
					c0,1.11914,0.61914,1.93945,1.66797,1.93945C399.22656,8.47089,399.8457,7.63104,399.8457,6.53143z"/>
				<path d="M402.22754,4.65253h-1.04004V4.07245h1.0498V3.31366c0-1.0498,0.61035-1.35938,1.23926-1.35938
					c0.26953,0,0.57031,0.05957,0.87988,0.18945l-0.24023,0.5498c-0.20996-0.09961-0.39941-0.16016-0.56934-0.16016
					c-0.39062,0-0.62988,0.27051-0.62988,0.72949v0.80957h1.41895v0.58008h-1.41895v4.34766h-0.68945V4.65253z"/>
				<path d="M412.26562,2.03436v6.96582h-0.68945V8.341c-0.35938,0.45898-0.91016,0.73926-1.62891,0.73926
					c-1.43945,0-2.18945-1.0791-2.18945-2.54883c0-1.53906,0.82031-2.54883,2.18945-2.54883c0.69922,0,1.25879,0.27051,1.62891,0.75
					V2.03436H412.26562z M411.63574,6.53143c0-1.16895-0.59961-1.93848-1.58887-1.93848c-1,0-1.59961,0.76953-1.59961,1.93848
					c0,1.11914,0.5498,1.93945,1.59961,1.93945C411.08594,8.47089,411.63574,7.65057,411.63574,6.53143z"/>
				<path d="M413.6582,6.53143c0-1.45898,0.94922-2.53809,2.3584-2.53809c1.39941,0,2.36816,1.0791,2.36816,2.53809
					c0,1.44922-0.95898,2.54883-2.36816,2.54883S413.6582,7.99042,413.6582,6.53143z M417.69531,6.53143
					c0-1.11914-0.62891-1.92871-1.67871-1.92871c-1.05957,0-1.66895,0.81934-1.66895,1.92871
					c0,1.11914,0.61914,1.93945,1.66895,1.93945C417.07617,8.47089,417.69531,7.63104,417.69531,6.53143z"/>
				<path d="M423.53516,4.07245v4.92773h-0.68945V8.29022c-0.34961,0.53027-0.97949,0.79004-1.62891,0.79004
					c-1.11914,0-1.60938-0.76953-1.60938-1.98926V4.07245h0.68945v2.84863c0,0.7998,0.14062,1.5498,1.08008,1.5498
					c0.97852,0,1.46875-0.84961,1.46875-2.12891V4.07245H423.53516z"/>
				<path d="M429.86523,6.53143c0,1.46973-0.75,2.54883-2.18945,2.54883c-0.71875,0-1.26953-0.28027-1.62891-0.73926v0.65918
					h-0.68945V2.03436h0.68945V4.7326c0.36914-0.47949,0.92969-0.75,1.62891-0.75
					C429.04492,3.9826,429.86523,4.99237,429.86523,6.53143z M429.17578,6.53143c0-1.16895-0.59961-1.93848-1.59961-1.93848
					c-0.99023,0-1.58984,0.76953-1.58984,1.93848c0,1.11914,0.55078,1.93945,1.58984,1.93945
					C428.625,8.47089,429.17578,7.65057,429.17578,6.53143z"/>
				<path d="M433.29688,8.95038c-0.25977,0.08008-0.52051,0.12988-0.75,0.12988c-0.66016,0-1.13965-0.37012-1.13965-1.23926V4.65253
					h-0.81934V4.07245h0.81934V2.69354l0.68945-0.51953v1.89844h1.18945v0.58008h-1.18945v3.09863
					c0,0.47949,0.21973,0.69922,0.61035,0.69922c0.16992,0,0.35938-0.04004,0.5791-0.10938L433.29688,8.95038z"/>
			</g>
			<path id="Path_46-2" fill="#00C19C" d="M256.55899,1h9.88199c2.91321-0.14701,5.39764,2.08758,5.55902,5
				c-0.16141,2.91242-2.64581,5.14701-5.55899,5h-9.88199c-2.91321,0.14701-5.39761-2.08758-5.55902-5
				C251.16141,3.08758,253.64581,0.85299,256.55899,1z"/>
		</g>
		<g id="Raggruppa_24940" transform="translate(13)">
			<g enable-background="new    ">
				<path d="M463.92383,2.03436h1.88965c2.26855,0,3.55762,1.28906,3.55762,3.53809c0,2.21875-1.25879,3.42773-3.56738,3.42773
					h-1.87988V2.03436z M465.74316,8.341c1.94922,0,2.9082-0.91992,2.9082-2.79883c0-1.88867-0.95898-2.84863-2.84766-2.84863
					h-1.16992V8.341H465.74316z"/>
				<path d="M474.75195,4.07245v4.92773h-0.68945V8.29022c-0.34961,0.53027-0.97949,0.79004-1.62891,0.79004
					c-1.11914,0-1.60938-0.76953-1.60938-1.98926V4.07245h0.68945v2.84863c0,0.7998,0.14062,1.5498,1.08008,1.5498
					c0.97949,0,1.46875-0.84961,1.46875-2.12891V4.07245H474.75195z"/>
				<path d="M481.08203,6.53143c0,1.46973-0.75,2.54883-2.18945,2.54883c-0.71875,0-1.26855-0.28027-1.62891-0.73926v0.65918
					h-0.68945V2.03436h0.68945V4.7326c0.37012-0.47949,0.92969-0.75,1.62891-0.75
					C480.2627,3.9826,481.08203,4.99237,481.08203,6.53143z M480.39258,6.53143c0-1.16895-0.59961-1.93848-1.59961-1.93848
					c-0.98926,0-1.58887,0.76953-1.58887,1.93848c0,1.11914,0.5498,1.93945,1.58887,1.93945
					C479.84277,8.47089,480.39258,7.65057,480.39258,6.53143z"/>
				<path d="M482.4541,2.03436h0.7998v1.01953h-0.7998V2.03436z M482.51465,4.07245h0.68945v4.92773h-0.68945V4.07245z"/>
				<path d="M487.07324,8.95038c-0.25977,0.08008-0.52051,0.12988-0.75,0.12988c-0.65918,0-1.13965-0.37012-1.13965-1.23926V4.65253
					h-0.81934V4.07245h0.81934V2.69354l0.69043-0.51953v1.89844h1.18848v0.58008h-1.18848v3.09863
					c0,0.47949,0.21973,0.69922,0.60938,0.69922c0.16992,0,0.35938-0.04004,0.5791-0.10938L487.07324,8.95038z"/>
				<path d="M492.05176,5.93182v3.06836h-0.62988l-0.04004-0.75977c-0.38965,0.5498-0.98926,0.83984-1.76855,0.83984
					c-1.06934,0-1.69922-0.55957-1.69922-1.50977c0-0.49902,0.2002-0.87891,0.55957-1.09863
					c0.37988-0.21973,0.91016-0.31055,1.87891-0.31055h1.00977V5.93182c0-0.85938-0.4502-1.3291-1.2793-1.3291
					c-0.62012,0-1.09961,0.26953-1.49902,0.81934l-0.5-0.41992c0.5293-0.68945,1.16895-1.00879,2.00879-1.00879
					C491.33203,3.99335,492.05176,4.70233,492.05176,5.93182z M491.3623,6.7912V6.72186h-0.94922
					c-0.91016,0-1.2998,0.05957-1.53906,0.24902c-0.18066,0.14062-0.27051,0.36035-0.27051,0.63965
					c0,0.5498,0.46973,0.90039,1.20996,0.90039C490.7627,8.51093,491.3623,7.841,491.3623,6.7912z"/>
				<path d="M495.7832,8.95038c-0.25977,0.08008-0.52051,0.12988-0.75,0.12988c-0.65918,0-1.13965-0.37012-1.13965-1.23926V4.65253
					h-0.81934V4.07245h0.81934V2.69354l0.69043-0.51953v1.89844h1.18848v0.58008h-1.18848v3.09863
					c0,0.47949,0.21973,0.69922,0.60938,0.69922c0.16992,0,0.35938-0.04004,0.5791-0.10938L495.7832,8.95038z"/>
				<path d="M497.03418,2.03436h0.79883v1.01953h-0.79883V2.03436z M497.09375,4.07245h0.68945v4.92773h-0.68945V4.07245z"/>
				<path d="M498.89355,4.07245h0.75l1.54883,4.04785l1.55957-4.04785h0.75977l-2.01953,4.92773h-0.58887L498.89355,4.07245z"/>
				<path d="M508.37109,6.72186h-3.60742c0.01953,1.0791,0.61914,1.72852,1.58887,1.72852
					c0.54004,0,0.96973-0.13965,1.41895-0.61914l0.48047,0.41895c-0.58008,0.61035-1.14941,0.83008-1.90918,0.83008
					c-1.49902,0-2.26855-1.11914-2.26855-2.51855c0-1.38965,0.75977-2.56836,2.18848-2.56836
					c1.50879,0,2.13867,1.17871,2.13867,2.29785C508.40137,6.43182,508.3916,6.60175,508.37109,6.72186z M504.76367,6.14178h2.97852
					c0-0.02051-0.01074-0.07031-0.01074-0.16016c-0.0498-0.7998-0.55957-1.40918-1.46875-1.40918
					C505.37305,4.57245,504.82324,5.27264,504.76367,6.14178z"/>
				<path d="M514.57227,8.95038c-0.25977,0.08008-0.51953,0.12988-0.74902,0.12988c-0.66016,0-1.13965-0.37012-1.13965-1.23926
					V4.65253h-0.81934V4.07245h0.81934V2.69354l0.68945-0.51953v1.89844h1.18945v0.58008h-1.18945v3.09863
					c0,0.47949,0.21973,0.69922,0.60938,0.69922c0.16992,0,0.36035-0.04004,0.58008-0.10938L514.57227,8.95038z"/>
				<path d="M519.73145,6.72186h-3.60742c0.01953,1.0791,0.61914,1.72852,1.58887,1.72852
					c0.54004,0,0.96973-0.13965,1.41895-0.61914l0.48047,0.41895c-0.58008,0.61035-1.14941,0.83008-1.90918,0.83008
					c-1.49902,0-2.26855-1.11914-2.26855-2.51855c0-1.38965,0.75977-2.56836,2.18848-2.56836
					c1.50879,0,2.13867,1.17871,2.13867,2.29785C519.76172,6.43182,519.75195,6.60175,519.73145,6.72186z M516.12402,6.14178
					h2.97852c0-0.02051-0.01074-0.07031-0.01074-0.16016c-0.0498-0.7998-0.55957-1.40918-1.46875-1.40918
					C516.7334,4.57245,516.18359,5.27264,516.12402,6.14178z"/>
				<path d="M522.30371,6.53143l-1.7998-2.45898h0.83984l1.41895,1.97949l1.40918-1.97949h0.83984l-1.79883,2.45898l1.80859,2.46875
					h-0.84961l-1.40918-1.99902l-1.40918,1.99902h-0.84961L522.30371,6.53143z"/>
				<path d="M528.28223,8.95038c-0.25977,0.08008-0.51953,0.12988-0.74902,0.12988c-0.66016,0-1.13965-0.37012-1.13965-1.23926
					V4.65253h-0.81934V4.07245h0.81934V2.69354l0.68945-0.51953v1.89844h1.18945v0.58008h-1.18945v3.09863
					c0,0.47949,0.21973,0.69922,0.60938,0.69922c0.16992,0,0.36035-0.04004,0.58008-0.10938L528.28223,8.95038z"/>
				<path d="M531.69336,4.07245h0.74023l1.05957,3.88867l1.29883-3.88867h0.62988l1.28906,3.88867l1.06934-3.88867h0.72949
					l-1.43945,4.92773h-0.64941l-1.30957-3.97754l-1.3291,3.97754h-0.63965L531.69336,4.07245z"/>
				<path d="M539.65332,2.03436h0.7998v1.01953h-0.7998V2.03436z M539.71387,4.07245h0.68945v4.92773h-0.68945V4.07245z"/>
				<path d="M544.27246,8.95038c-0.25977,0.08008-0.51953,0.12988-0.74902,0.12988c-0.66016,0-1.13965-0.37012-1.13965-1.23926
					V4.65253h-0.81934V4.07245h0.81934V2.69354l0.68945-0.51953v1.89844h1.18945v0.58008h-1.18945v3.09863
					c0,0.47949,0.21973,0.69922,0.60938,0.69922c0.16992,0,0.36035-0.04004,0.58008-0.10938L544.27246,8.95038z"/>
				<path d="M549.51172,5.98163v3.01855h-0.68945V6.15155c0-1.06934-0.33984-1.54883-1.08008-1.54883
					c-0.93945,0-1.46875,0.76953-1.46875,2.12891v2.26855h-0.68945V2.03436h0.68945v2.75781
					c0.31934-0.49902,0.91895-0.79883,1.62891-0.79883C548.96191,3.99335,549.51172,4.67303,549.51172,5.98163z"/>
				<path d="M558.45117,6.53143c0,1.46973-0.75,2.54883-2.18945,2.54883c-0.71875,0-1.26855-0.28027-1.62891-0.73926v2.69824
					h-0.68945v-6.9668h0.68945V4.7326c0.37012-0.47949,0.92969-0.75,1.62891-0.75
					C557.63184,3.9826,558.45117,4.99237,558.45117,6.53143z M557.76172,6.53143c0-1.16895-0.59961-1.93848-1.59961-1.93848
					c-0.98926,0-1.58887,0.76953-1.58887,1.93848c0,1.11914,0.5498,1.93945,1.58887,1.93945
					C557.21191,8.47089,557.76172,7.65057,557.76172,6.53143z"/>
				<path d="M563.55176,5.93182v3.06836h-0.62988l-0.04004-0.75977c-0.38965,0.5498-0.98926,0.83984-1.76953,0.83984
					c-1.06934,0-1.69824-0.55957-1.69824-1.50977c0-0.49902,0.19922-0.87891,0.55957-1.09863
					c0.37988-0.21973,0.90918-0.31055,1.87891-0.31055h1.00879V5.93182c0-0.85938-0.44922-1.3291-1.2793-1.3291
					c-0.61914,0-1.09863,0.26953-1.49902,0.81934l-0.49902-0.41992c0.5293-0.68945,1.16895-1.00879,2.00879-1.00879
					C562.83203,3.99335,563.55176,4.70233,563.55176,5.93182z M562.86133,6.7912V6.72186h-0.94922
					c-0.90918,0-1.29883,0.05957-1.53906,0.24902c-0.17969,0.14062-0.26953,0.36035-0.26953,0.63965
					c0,0.5498,0.46973,0.90039,1.20898,0.90039C562.26172,8.51093,562.86133,7.841,562.86133,6.7912z"/>
				<path d="M568.23145,4.20331l-0.33984,0.55957c-0.22949-0.10059-0.43945-0.15039-0.64941-0.15039
					c-0.75977,0-1.31934,0.56934-1.31934,1.63965v2.74805h-0.68945V4.07245h0.68945v0.74023
					c0.35938-0.64941,0.95898-0.81934,1.45898-0.81934C567.68164,3.99335,567.96191,4.05292,568.23145,4.20331z"/>
				<path d="M572.7002,6.72186h-3.60742c0.01953,1.0791,0.61914,1.72852,1.58887,1.72852c0.54004,0,0.96973-0.13965,1.41895-0.61914
					l0.48047,0.41895c-0.58008,0.61035-1.14941,0.83008-1.90918,0.83008c-1.49902,0-2.26855-1.11914-2.26855-2.51855
					c0-1.38965,0.75977-2.56836,2.18848-2.56836c1.50879,0,2.13867,1.17871,2.13867,2.29785
					C572.73047,6.43182,572.7207,6.60175,572.7002,6.72186z M569.09277,6.14178h2.97852c0-0.02051-0.01074-0.07031-0.01074-0.16016
					c-0.0498-0.7998-0.55957-1.40918-1.46875-1.40918C569.70215,4.57245,569.15234,5.27264,569.09277,6.14178z"/>
				<path d="M578.05078,5.98163v3.01855h-0.68945V6.15155c0-1.05957-0.33984-1.54883-1.0791-1.54883
					c-0.92969,0-1.46973,0.7998-1.46973,2.18848v2.20898h-0.68945V4.07245h0.68945v0.71973
					c0.32031-0.49902,0.91992-0.79883,1.62891-0.79883C577.50098,3.99335,578.05078,4.67303,578.05078,5.98163z"/>
				<path d="M581.80176,8.95038c-0.25977,0.08008-0.51953,0.12988-0.74902,0.12988c-0.66016,0-1.13965-0.37012-1.13965-1.23926
					V4.65253h-0.81934V4.07245h0.81934V2.69354l0.68945-0.51953v1.89844h1.18945v0.58008h-1.18945v3.09863
					c0,0.47949,0.21973,0.69922,0.60938,0.69922c0.16992,0,0.36035-0.04004,0.58008-0.10938L581.80176,8.95038z"/>
				<path d="M586.96094,6.72186h-3.6084c0.02051,1.0791,0.62012,1.72852,1.58984,1.72852c0.53906,0,0.96875-0.13965,1.41895-0.61914
					l0.47949,0.41895c-0.5791,0.61035-1.14941,0.83008-1.90918,0.83008c-1.49902,0-2.26855-1.11914-2.26855-2.51855
					c0-1.38965,0.75977-2.56836,2.18945-2.56836c1.50879,0,2.13867,1.17871,2.13867,2.29785
					C586.99121,6.43182,586.98047,6.60175,586.96094,6.72186z M583.35254,6.14178h2.97852
					c0-0.02051-0.00977-0.07031-0.00977-0.16016c-0.0498-0.7998-0.55957-1.40918-1.46875-1.40918
					C583.96289,4.57245,583.41309,5.27264,583.35254,6.14178z"/>
				<path d="M587.85352,7.7912l0.5791-0.25977c0.17969,0.50977,0.66016,0.93945,1.42969,0.93945
					c0.66895,0,1.09961-0.33008,1.09961-0.84961c0-1.30957-2.83887-0.49023-2.83887-2.23926
					c0-0.85938,0.69922-1.38867,1.68945-1.38867c0.78906,0,1.42871,0.3291,1.76855,1.0293l-0.5498,0.2998
					c-0.23926-0.44043-0.62988-0.71973-1.23926-0.71973s-0.99902,0.25-0.99902,0.67969c0,1.16895,2.84766,0.42969,2.84766,2.29883
					c0,0.99902-0.81934,1.49902-1.76855,1.49902C588.90234,9.08026,588.11328,8.58026,587.85352,7.7912z"/>
				<path d="M596.89062,6.72186h-3.6084c0.02051,1.0791,0.62012,1.72852,1.58984,1.72852c0.53906,0,0.96875-0.13965,1.41895-0.61914
					l0.47949,0.41895c-0.5791,0.61035-1.14941,0.83008-1.90918,0.83008c-1.49902,0-2.26855-1.11914-2.26855-2.51855
					c0-1.38965,0.75977-2.56836,2.18945-2.56836c1.50879,0,2.13867,1.17871,2.13867,2.29785
					C596.9209,6.43182,596.91016,6.60175,596.89062,6.72186z M593.28223,6.14178h2.97852c0-0.02051-0.00977-0.07031-0.00977-0.16016
					c-0.0498-0.7998-0.55957-1.40918-1.46875-1.40918C593.89258,4.57245,593.34277,5.27264,593.28223,6.14178z"/>
				<path d="M597.7832,7.7912l0.58008-0.25977c0.17969,0.50977,0.65918,0.93945,1.42871,0.93945
					c0.66992,0,1.09961-0.33008,1.09961-0.84961c0-1.30957-2.83887-0.49023-2.83887-2.23926
					c0-0.85938,0.7002-1.38867,1.68945-1.38867c0.79004,0,1.42969,0.3291,1.76953,1.0293l-0.5498,0.2998
					c-0.24023-0.44043-0.62988-0.71973-1.23926-0.71973c-0.61035,0-1,0.25-1,0.67969c0,1.16895,2.84863,0.42969,2.84863,2.29883
					c0,0.99902-0.81934,1.49902-1.76855,1.49902C598.83301,9.08026,598.04297,8.58026,597.7832,7.7912z"/>
				<path d="M605.27344,6.53143c0-1.45898,0.94922-2.53809,2.3584-2.53809c1.39941,0,2.36816,1.0791,2.36816,2.53809
					c0,1.44922-0.95898,2.54883-2.36816,2.54883S605.27344,7.99042,605.27344,6.53143z M609.31055,6.53143
					c0-1.11914-0.62988-1.92871-1.67871-1.92871c-1.05957,0-1.66895,0.81934-1.66895,1.92871
					c0,1.11914,0.61914,1.93945,1.66895,1.93945C608.69141,8.47089,609.31055,7.63104,609.31055,6.53143z"/>
				<path d="M614.39062,4.20331l-0.33984,0.55957c-0.22949-0.10059-0.43945-0.15039-0.64941-0.15039
					c-0.75977,0-1.31934,0.56934-1.31934,1.63965v2.74805h-0.68945V4.07245h0.68945v0.74023
					c0.36035-0.64941,0.95996-0.81934,1.45898-0.81934C613.8418,3.99335,614.12109,4.05292,614.39062,4.20331z"/>
				<path d="M621.81055,5.93182v3.06836h-0.62988l-0.04004-0.75977c-0.38965,0.5498-0.98926,0.83984-1.76855,0.83984
					c-1.06934,0-1.69922-0.55957-1.69922-1.50977c0-0.49902,0.2002-0.87891,0.55957-1.09863
					c0.37988-0.21973,0.91016-0.31055,1.87891-0.31055h1.00977V5.93182c0-0.85938-0.4502-1.3291-1.2793-1.3291
					c-0.62012,0-1.09961,0.26953-1.49902,0.81934l-0.5-0.41992c0.5293-0.68945,1.16895-1.00879,2.00879-1.00879
					C621.09082,3.99335,621.81055,4.70233,621.81055,5.93182z M621.12109,6.7912V6.72186h-0.94922
					c-0.91016,0-1.2998,0.05957-1.53906,0.24902c-0.18066,0.14062-0.27051,0.36035-0.27051,0.63965
					c0,0.5498,0.46973,0.90039,1.20996,0.90039C620.52148,8.51093,621.12109,7.841,621.12109,6.7912z"/>
				<path d="M622.96289,7.7912l0.5791-0.25977c0.17969,0.50977,0.66016,0.93945,1.42969,0.93945
					c0.66895,0,1.09961-0.33008,1.09961-0.84961c0-1.30957-2.83887-0.49023-2.83887-2.23926
					c0-0.85938,0.69922-1.38867,1.68945-1.38867c0.78906,0,1.42871,0.3291,1.76855,1.0293l-0.5498,0.2998
					c-0.23926-0.44043-0.62988-0.71973-1.23926-0.71973s-0.99902,0.25-0.99902,0.67969c0,1.16895,2.84766,0.42969,2.84766,2.29883
					c0,0.99902-0.81934,1.49902-1.76855,1.49902C624.01172,9.08026,623.22266,8.58026,622.96289,7.7912z"/>
				<path d="M628.09277,2.03436h0.79883v1.01953h-0.79883V2.03436z M628.15234,4.07245h0.68945v4.92773h-0.68945V4.07245z"/>
				<path d="M634.78027,2.03436v6.96582h-0.69043V8.341c-0.35938,0.45898-0.90918,0.73926-1.62891,0.73926
					c-1.43848,0-2.18848-1.0791-2.18848-2.54883c0-1.53906,0.81934-2.54883,2.18848-2.54883c0.7002,0,1.25977,0.27051,1.62891,0.75
					V2.03436H634.78027z M634.15039,6.53143c0-1.16895-0.59961-1.93848-1.58887-1.93848c-1,0-1.59961,0.76953-1.59961,1.93848
					c0,1.11914,0.5498,1.93945,1.59961,1.93945C633.60059,8.47089,634.15039,7.65057,634.15039,6.53143z"/>
				<path d="M640.5,6.72186h-3.6084c0.02051,1.0791,0.62012,1.72852,1.58984,1.72852c0.53906,0,0.96875-0.13965,1.41895-0.61914
					l0.47949,0.41895c-0.5791,0.61035-1.14941,0.83008-1.90918,0.83008c-1.49902,0-2.26855-1.11914-2.26855-2.51855
					c0-1.38965,0.75977-2.56836,2.18945-2.56836c1.50879,0,2.13867,1.17871,2.13867,2.29785
					C640.53027,6.43182,640.51953,6.60175,640.5,6.72186z M636.8916,6.14178h2.97852c0-0.02051-0.00977-0.07031-0.00977-0.16016
					c-0.0498-0.7998-0.55957-1.40918-1.46875-1.40918C637.50195,4.57245,636.95215,5.27264,636.8916,6.14178z"/>
				<path d="M641.39258,7.7912l0.5791-0.25977c0.17969,0.50977,0.66016,0.93945,1.42969,0.93945
					c0.66895,0,1.09961-0.33008,1.09961-0.84961c0-1.30957-2.83887-0.49023-2.83887-2.23926
					c0-0.85938,0.69922-1.38867,1.68945-1.38867c0.78906,0,1.42871,0.3291,1.76855,1.0293l-0.5498,0.2998
					c-0.23926-0.44043-0.62988-0.71973-1.23926-0.71973s-0.99902,0.25-0.99902,0.67969c0,1.16895,2.84766,0.42969,2.84766,2.29883
					c0,0.99902-0.81934,1.49902-1.76855,1.49902C642.44141,9.08026,641.65234,8.58026,641.39258,7.7912z"/>
			</g>
			<path id="Tracciato_649" fill="none" stroke="#4500FF" stroke-width="0.75" stroke-miterlimit="10" d="M435,4.19
				c2.05603,0,2.05603,4.46,4.11298,4.46s2.05402-4.46,4.10901-4.46s2.05499,4.46,4.10999,4.46s2.05499-4.46,4.11102-4.46
				s2.06,4.46,4.11798,4.46s2.06-4.46,4.11798-4.46"/>
		</g>
	</g>
</g>
</svg>
