<svg xmlns="http://www.w3.org/2000/svg" xmlns:xlink="http://www.w3.org/1999/xlink" width="250" height="403" viewBox="0 0 250 403">
  <defs>
    <linearGradient id="linear-gradient" x1="-163.72" y1="24.419" x2="-163.72" y2="24.418" gradientUnits="objectBoundingBox">
      <stop offset="0" stop-color="#fffcf0"/>
      <stop offset="0.75" stop-color="#ffe37d"/>
    </linearGradient>
    <linearGradient id="linear-gradient-2" x1="-54.261" y1="24.419" x2="-54.261" y2="24.418" gradientUnits="objectBoundingBox">
      <stop offset="0" stop-color="#f5f5fd"/>
      <stop offset="0.75" stop-color="#d1d1f8"/>
    </linearGradient>
    <linearGradient id="linear-gradient-3" x1="-115.129" y1="4.429" x2="-115.122" y2="4.429" gradientUnits="objectBoundingBox">
      <stop offset="0" stop-color="#fff" stop-opacity="0"/>
      <stop offset="1" stop-color="#fff"/>
    </linearGradient>
    <clipPath id="clip-info-01">
      <rect width="250" height="403"/>
    </clipPath>
  </defs>
  <g id="info-01" clip-path="url(#clip-info-01)">
    <line id="Line_192" data-name="Line 192" y2="41.338" transform="translate(70.875 347.977)" fill="none" stroke="#999" stroke-width="0.984"/>
    <path id="Path_526" data-name="Path 526" d="M-691.589-1632.961v14.09h-23.877v-14.09" transform="translate(744.705 1954.861)" fill="none" stroke="#bbf" stroke-linecap="round" stroke-width="1.5" stroke-dasharray="0.15 3"/>
    <path id="Path_527" data-name="Path 527" d="M-645.959-1632.961v25.775h-69.513v-25.775" transform="translate(744.706 1954.861)" fill="none" stroke="#bbf" stroke-linecap="round" stroke-width="1.5" stroke-dasharray="0.15 3"/>
    <path id="Path_528" data-name="Path 528" d="M-599.607-1632.961v14.09h-3.361v-14.09" transform="translate(729.836 1954.861)" fill="none" stroke="#bbf" stroke-linecap="round" stroke-width="1.5" stroke-dasharray="0.15 3"/>
    <path id="Path_529" data-name="Path 529" d="M-510.74-1632.961v14.09h-51.467v-14.09" transform="translate(724.448 1954.861)" fill="none" stroke="#bbf" stroke-linecap="round" stroke-width="1.5" stroke-dasharray="0.15 3"/>
    <line id="Line_174" data-name="Line 174" x2="219.549" transform="translate(27.103 312.632)" fill="none" stroke="#000" stroke-linecap="round" stroke-width="0.5" stroke-dasharray="2 4" opacity="0.5"/>
    <path id="Path_162004" data-name="Path 162004" d="M4.52-3.47a9.409,9.409,0,0,0-.065-1.115A3.4,3.4,0,0,0,4.2-5.56a1.709,1.709,0,0,0-.535-.69,1.465,1.465,0,0,0-.9-.26,1.352,1.352,0,0,0-.865.265,1.776,1.776,0,0,0-.525.7,3.782,3.782,0,0,0-.265,1A8.579,8.579,0,0,0,1.03-3.4a8.2,8.2,0,0,0,.085,1.235A3.1,3.1,0,0,0,1.4-1.22a1.529,1.529,0,0,0,.535.605A1.536,1.536,0,0,0,2.78-.4,1.408,1.408,0,0,0,3.7-.68,1.772,1.772,0,0,0,4.22-1.4a3.653,3.653,0,0,0,.24-.99A9.955,9.955,0,0,0,4.52-3.47ZM2.78-7.05a2.376,2.376,0,0,1,.9.155,1.892,1.892,0,0,1,.645.425,2.2,2.2,0,0,1,.43.63,3.818,3.818,0,0,1,.255.765,5.66,5.66,0,0,1,.12.835q.03.43.03.84a8.675,8.675,0,0,1-.1,1.34A3.491,3.491,0,0,1,4.7-.93a2.067,2.067,0,0,1-.725.78A2.2,2.2,0,0,1,2.78.14,2.226,2.226,0,0,1,1.585-.15a2.044,2.044,0,0,1-.73-.785A3.558,3.558,0,0,1,.49-2.085,9.177,9.177,0,0,1,.39-3.47,9.4,9.4,0,0,1,.48-4.78,3.651,3.651,0,0,1,.825-5.925,2.086,2.086,0,0,1,1.55-6.74,2.2,2.2,0,0,1,2.78-7.05Z" transform="translate(11.759 314.073)"/>
    <line id="Line_175" data-name="Line 175" x2="222.897" transform="translate(27.103 284.615)" fill="none" stroke="#000" stroke-linecap="round" stroke-width="0.5" stroke-dasharray="2 4" opacity="0.5"/>
    <path id="Path_162003" data-name="Path 162003" d="M3.02-5.24H1.2v-.42q.4-.03.725-.08a1.642,1.642,0,0,0,.57-.19,1.161,1.161,0,0,0,.41-.405A2.033,2.033,0,0,0,3.15-7.05h.51V0H3.02Z" transform="translate(11.759 286.057)"/>
    <line id="Line_176" data-name="Line 176" x2="219.549" transform="translate(27.103 256.598)" fill="none" stroke="#000" stroke-linecap="round" stroke-width="0.5" stroke-dasharray="2 4" opacity="0.5"/>
    <path id="Path_162002" data-name="Path 162002" d="M.69-4.74a2.664,2.664,0,0,1,.16-.945,2.063,2.063,0,0,1,.46-.73,2.035,2.035,0,0,1,.725-.47A2.592,2.592,0,0,1,2.98-7.05a2.606,2.606,0,0,1,.935.155,2.034,2.034,0,0,1,.68.415,1.679,1.679,0,0,1,.415.62,2.078,2.078,0,0,1,.14.76,2.083,2.083,0,0,1-.155.83,2.284,2.284,0,0,1-.41.64,3.228,3.228,0,0,1-.58.5q-.325.22-.665.415t-.67.375a4.5,4.5,0,0,0-.59.38q-.17.13-.33.275a2.355,2.355,0,0,0-.29.315A1.528,1.528,0,0,0,1.25-1a1.4,1.4,0,0,0-.09.455H5.09V0H.48A4.243,4.243,0,0,1,.59-.92a1.917,1.917,0,0,1,.44-.8,5.288,5.288,0,0,1,.765-.72q.4-.3.775-.535t.72-.43a3.62,3.62,0,0,0,.6-.425,1.79,1.79,0,0,0,.41-.52,1.532,1.532,0,0,0,.15-.71,1.487,1.487,0,0,0-.12-.61A1.353,1.353,0,0,0,4-6.13a1.384,1.384,0,0,0-.49-.285,1.888,1.888,0,0,0-.61-.1,1.38,1.38,0,0,0-.635.145,1.58,1.58,0,0,0-.49.385,1.706,1.706,0,0,0-.315.56,1.77,1.77,0,0,0-.09.68Z" transform="translate(11.759 258.039)"/>
    <line id="Line_177" data-name="Line 177" x2="211.378" transform="translate(27.103 228.579)" fill="none" stroke="#000" stroke-linecap="round" stroke-width="0.5" stroke-dasharray="2 4" opacity="0.5"/>
    <path id="Path_161996" data-name="Path 161996" d="M2.21-3.92a5.6,5.6,0,0,0,.82-.055,1.76,1.76,0,0,0,.635-.21A1.127,1.127,0,0,0,4.08-4.6a1.329,1.329,0,0,0,.15-.67,1.23,1.23,0,0,0-.12-.565,1.075,1.075,0,0,0-.325-.385,1.38,1.38,0,0,0-.48-.22,2.322,2.322,0,0,0-.575-.07,1.643,1.643,0,0,0-.615.11,1.362,1.362,0,0,0-.475.315,1.451,1.451,0,0,0-.31.48A1.615,1.615,0,0,0,1.22-5H.58a2.175,2.175,0,0,1,.165-.865A2.15,2.15,0,0,1,1.26-6.58,1.557,1.557,0,0,1,2-6.965,4.251,4.251,0,0,1,2.86-7.05a2.828,2.828,0,0,1,.785.1,1.81,1.81,0,0,1,.635.32,1.548,1.548,0,0,1,.43.545,1.746,1.746,0,0,1,.16.77,1.783,1.783,0,0,1-.245.95,1.588,1.588,0,0,1-.755.62,1.926,1.926,0,0,1,.625.315,1.6,1.6,0,0,1,.385.43,1.523,1.523,0,0,1,.19.495,2.648,2.648,0,0,1,.05.5,2.213,2.213,0,0,1-.15.82,1.951,1.951,0,0,1-.44.67,2.159,2.159,0,0,1-.715.465A2.646,2.646,0,0,1,2.85.14,4.5,4.5,0,0,1,1.79.03a1.8,1.8,0,0,1-.75-.365A1.712,1.712,0,0,1,.57-1,3.7,3.7,0,0,1,.34-2.04H.98A1.523,1.523,0,0,0,1.465-.815,1.878,1.878,0,0,0,2.73-.4a1.92,1.92,0,0,0,.71-.13,1.76,1.76,0,0,0,.565-.35,1.512,1.512,0,0,0,.36-.51,1.386,1.386,0,0,0,.115-.6,1.445,1.445,0,0,0-.2-.715,1.287,1.287,0,0,0-.485-.45,2.07,2.07,0,0,0-.715-.22A4.391,4.391,0,0,0,2.21-3.4Z" transform="translate(11.759 230.02)"/>
    <line id="Line_178" data-name="Line 178" x2="219.549" transform="translate(27.103 200.562)" fill="none" stroke="#000" stroke-linecap="round" stroke-width="0.5" stroke-dasharray="2 4" opacity="0.5"/>
    <path id="Path_161997" data-name="Path 161997" d="M3.58-1.74H.36v-.55L3.64-6.98h.58v4.7H5.2v.54H4.22V0H3.58ZM.99-2.28H3.58V-6.02Z" transform="translate(11.759 202.003)"/>
    <line id="Line_179" data-name="Line 179" x2="219.549" transform="translate(27.103 172.544)" fill="none" stroke="#000" stroke-linecap="round" stroke-width="0.5" stroke-dasharray="2 4" opacity="0.5"/>
    <path id="Path_161998" data-name="Path 161998" d="M.99-1.83A1.536,1.536,0,0,0,1.565-.755,1.891,1.891,0,0,0,2.73-.4a1.718,1.718,0,0,0,.7-.14A1.561,1.561,0,0,0,3.97-.925,1.684,1.684,0,0,0,4.3-1.5,2.1,2.1,0,0,0,4.42-2.2,2.017,2.017,0,0,0,4.3-2.92a1.707,1.707,0,0,0-.35-.57,1.512,1.512,0,0,0-.55-.37,1.937,1.937,0,0,0-.725-.13,2.033,2.033,0,0,0-.86.175,1.783,1.783,0,0,0-.67.555L.61-3.33l.57-3.65h3.5v.54H1.72L1.28-4.07q.21-.13.385-.22a2.148,2.148,0,0,1,.355-.145,1.967,1.967,0,0,1,.375-.075,4.293,4.293,0,0,1,.435-.02,2.427,2.427,0,0,1,.89.16,2.04,2.04,0,0,1,.71.46,2.053,2.053,0,0,1,.465.735A2.732,2.732,0,0,1,5.06-2.2a2.522,2.522,0,0,1-.185,1A2.214,2.214,0,0,1,4.38-.47a2.094,2.094,0,0,1-.715.455A2.317,2.317,0,0,1,2.83.14a4.167,4.167,0,0,1-.935-.1A2.123,2.123,0,0,1,1.13-.3,1.79,1.79,0,0,1,.6-.9,2.257,2.257,0,0,1,.35-1.83Z" transform="translate(11.759 173.983)"/>
    <line id="Line_180" data-name="Line 180" x2="222.897" transform="translate(27.103 144.526)" fill="none" stroke="#000" stroke-linecap="round" stroke-width="0.5" stroke-dasharray="2 4" opacity="0.5"/>
    <path id="Path_161999" data-name="Path 161999" d="M4.37-5.32a1.637,1.637,0,0,0-.44-.865,1.227,1.227,0,0,0-.9-.325A1.561,1.561,0,0,0,2-6.2a2.013,2.013,0,0,0-.575.785A3.9,3.9,0,0,0,1.16-4.38q-.07.56-.11,1.06.15-.2.315-.4a2.1,2.1,0,0,1,.375-.355,1.783,1.783,0,0,1,.49-.25,2.094,2.094,0,0,1,.67-.1,2.2,2.2,0,0,1,1.655.605A2.3,2.3,0,0,1,5.14-2.15,2.315,2.315,0,0,1,4.55-.47,2.216,2.216,0,0,1,2.88.14,2.681,2.681,0,0,1,1.9-.035,1.892,1.892,0,0,1,1.12-.61,2.922,2.922,0,0,1,.6-1.655,5.639,5.639,0,0,1,.41-3.23a8.113,8.113,0,0,1,.11-1.3A4.191,4.191,0,0,1,.915-5.77a2.549,2.549,0,0,1,.78-.92A2.115,2.115,0,0,1,2.97-7.05a2.2,2.2,0,0,1,1.4.44,1.831,1.831,0,0,1,.66,1.29ZM2.88-3.88a1.532,1.532,0,0,0-.665.14,1.487,1.487,0,0,0-.5.38A1.717,1.717,0,0,0,1.4-2.8a2.033,2.033,0,0,0-.11.675,2.246,2.246,0,0,0,.085.605,1.586,1.586,0,0,0,.28.555,1.532,1.532,0,0,0,.5.41,1.557,1.557,0,0,0,.74.16,1.655,1.655,0,0,0,.755-.155,1.392,1.392,0,0,0,.495-.41,1.675,1.675,0,0,0,.275-.57A2.427,2.427,0,0,0,4.5-2.17a1.844,1.844,0,0,0-.395-1.265A1.556,1.556,0,0,0,2.88-3.88Z" transform="translate(11.759 145.966)"/>
    <line id="Line_181" data-name="Line 181" x2="219.549" transform="translate(27.103 116.508)" fill="none" stroke="#000" stroke-linecap="round" stroke-width="0.5" stroke-dasharray="2 4" opacity="0.5"/>
    <path id="Path_162000" data-name="Path 162000" d="M.59-6.98H5.08v.6A11.28,11.28,0,0,0,3.79-4.615a13.012,13.012,0,0,0-.87,1.76,10.584,10.584,0,0,0-.505,1.6A8.089,8.089,0,0,0,2.22,0h-.7a7.359,7.359,0,0,1,.305-1.615A13.407,13.407,0,0,1,2.46-3.31a14.825,14.825,0,0,1,.86-1.625A12.354,12.354,0,0,1,4.31-6.34H.59Z" transform="translate(11.759 117.947)"/>
    <rect id="Rectangle_741" data-name="Rectangle 741" width="14.149" height="9.754" transform="translate(161.357 312.145)" fill="#ffe37d"/>
    <rect id="Rectangle_742" data-name="Rectangle 742" width="1.238" height="9.754" transform="translate(125.984 312.145)" fill="#ffe37d"/>
    <rect id="Rectangle_743" data-name="Rectangle 743" width="14.326" height="37.773" transform="translate(28.355 284.127)" fill="url(#linear-gradient)"/>
    <rect id="Rectangle_744" data-name="Rectangle 744" width="14.326" height="9.754" transform="translate(28.355 312.145)" fill="#ffe37d"/>
    <rect id="Rectangle_788" data-name="Rectangle 788" width="38.91" height="9.754" transform="translate(175.683 312.145)" fill="#d1d1f8"/>
    <rect id="Rectangle_789" data-name="Rectangle 789" width="3.714" height="9.754" transform="translate(127.399 312.145)" fill="#d1d1f8"/>
    <rect id="Rectangle_790" data-name="Rectangle 790" width="45.277" height="37.773" transform="translate(54.354 284.127)" fill="url(#linear-gradient-2)"/>
    <rect id="Rectangle_791" data-name="Rectangle 791" width="10.966" height="9.754" transform="translate(43.034 312.145)" fill="#d1d1f8"/>
    <path id="Path_161990" data-name="Path 161990" d="M1.742.078A1.573,1.573,0,0,0,2.266,0V-.5a.931.931,0,0,1-.391.1c-.285,0-.5-.2-.5-.629V-3.426h.988V-3.9H1.379V-5.328L.8-4.781V-3.9H.172v.477H.8v2.391C.8-.367,1.051.078,1.742.078Zm4.016-5.6v2.148a1.4,1.4,0,0,0-1.223-.613c-1,0-1.562.914-1.562,2.031S3.539.078,4.539.078A1.387,1.387,0,0,0,5.762-.543L5.773,0H6.34V-5.52ZM4.688-.414c-.781,0-1.117-.742-1.117-1.539s.336-1.539,1.117-1.539c.8,0,1.117.75,1.117,1.539S5.484-.414,4.688-.414Zm6.7.414h.617V-5.52h-.562v.105a.64.64,0,0,1-.684.684H9.918v.488h1.473Zm4.57.078c1.32,0,1.988-1.4,1.988-2.824,0-1.441-.68-2.863-2.047-2.863-1.492,0-2,1.6-2,2.848S14.422.078,15.961.078Zm-.023-.562c-1.09,0-1.426-1.312-1.426-2.277s.336-2.266,1.391-2.266S17.3-3.738,17.3-2.77C17.3-1.832,16.969-.484,15.938-.484Z" transform="translate(193.697 304.293) rotate(-20.972)"/>
    <path id="Path_161991" data-name="Path 161991" d="M1.742.078A1.573,1.573,0,0,0,2.266,0V-.5a.931.931,0,0,1-.391.1c-.285,0-.5-.2-.5-.629V-3.426h.988V-3.9H1.379V-5.328L.8-4.781V-3.9H.172v.477H.8v2.391C.8-.367,1.051.078,1.742.078Zm4.016-5.6v2.148a1.4,1.4,0,0,0-1.223-.613c-1,0-1.562.914-1.562,2.031S3.539.078,4.539.078A1.387,1.387,0,0,0,5.762-.543L5.773,0H6.34V-5.52ZM4.688-.414c-.781,0-1.117-.742-1.117-1.539s.336-1.539,1.117-1.539c.8,0,1.117.75,1.117,1.539S5.484-.414,4.688-.414ZM10.641,0H11.3l1.617-2.809a1.882,1.882,0,0,0,.258-.957A1.825,1.825,0,0,0,11.363-5.6,1.825,1.825,0,0,0,9.531-3.754,1.763,1.763,0,0,0,11.355-2a2.236,2.236,0,0,0,.492-.055Zm.715-2.48a1.258,1.258,0,0,1-1.234-1.281,1.263,1.263,0,0,1,1.234-1.281A1.263,1.263,0,0,1,12.59-3.762,1.258,1.258,0,0,1,11.355-2.48Z" transform="translate(127.815 304.29) rotate(-20.972)"/>
    <path id="Path_161988" data-name="Path 161988" d="M1.742.078A1.573,1.573,0,0,0,2.266,0V-.5a.931.931,0,0,1-.391.1c-.285,0-.5-.2-.5-.629V-3.426h.988V-3.9H1.379V-5.328L.8-4.781V-3.9H.172v.477H.8v2.391C.8-.367,1.051.078,1.742.078Zm4.016-5.6v2.148a1.4,1.4,0,0,0-1.223-.613c-1,0-1.562.914-1.562,2.031S3.539.078,4.539.078A1.387,1.387,0,0,0,5.762-.543L5.773,0H6.34V-5.52ZM4.688-.414c-.781,0-1.117-.742-1.117-1.539s.336-1.539,1.117-1.539c.8,0,1.117.75,1.117,1.539S5.484-.414,4.688-.414Zm6.691.492a1.637,1.637,0,0,0,1.852-1.6,1.512,1.512,0,0,0-.957-1.453,1.357,1.357,0,0,0,.68-1.2A1.443,1.443,0,0,0,11.383-5.6,1.446,1.446,0,0,0,9.8-4.18a1.355,1.355,0,0,0,.7,1.2A1.518,1.518,0,0,0,9.523-1.52,1.642,1.642,0,0,0,11.379.078Zm.02-3.246a.94.94,0,0,1-.992-1,.929.929,0,0,1,.988-.918.93.93,0,0,1,.984.969A.926.926,0,0,1,11.4-3.168ZM11.375-.43A1.147,1.147,0,0,1,10.121-1.57,1.141,1.141,0,0,1,11.375-2.7a1.138,1.138,0,0,1,1.242,1.137A1.137,1.137,0,0,1,11.375-.43Z" transform="translate(75.551 276.274) rotate(-20.972)"/>
    <path id="Path_161989" data-name="Path 161989" d="M1.742.078A1.573,1.573,0,0,0,2.266,0V-.5a.931.931,0,0,1-.391.1c-.285,0-.5-.2-.5-.629V-3.426h.988V-3.9H1.379V-5.328L.8-4.781V-3.9H.172v.477H.8v2.391C.8-.367,1.051.078,1.742.078Zm4.016-5.6v2.148a1.4,1.4,0,0,0-1.223-.613c-1,0-1.562.914-1.562,2.031S3.539.078,4.539.078A1.387,1.387,0,0,0,5.762-.543L5.773,0H6.34V-5.52ZM4.688-.414c-.781,0-1.117-.742-1.117-1.539s.336-1.539,1.117-1.539c.8,0,1.117.75,1.117,1.539S5.484-.414,4.688-.414ZM10.145,0h.68L13.2-5.215v-.3H9.531v.539h2.957Z" transform="translate(47.076 304.292) rotate(-20.972)"/>
    <path id="Path_161992" data-name="Path 161992" d="M.82,0h.728V-2.534c0-1.211.61-1.812,1.377-1.812.859,0,1.108.781,1.108,1.455V0h.723V-2.964c0-1.074-.474-2-1.636-2a1.752,1.752,0,0,0-1.572.938v-.85H.82ZM8.184.1a2.4,2.4,0,0,0,2.324-2.549A2.383,2.383,0,0,0,8.184-4.98a2.361,2.361,0,0,0-2.3,2.529A2.376,2.376,0,0,0,8.184.1Zm0-.605c-1.074,0-1.572-.957-1.572-1.943s.5-1.924,1.582-1.924,1.572.947,1.572,1.924S9.282-.508,8.188-.508ZM11.748,0h.728V-2.534c0-1.211.61-1.812,1.377-1.812.859,0,1.108.781,1.108,1.455V0h.723V-2.964c0-1.074-.474-2-1.636-2a1.752,1.752,0,0,0-1.572.938v-.85h-.728Zm9.434-5.479h.742L20.859-6.9h-.937ZM21.675.068A2.392,2.392,0,0,0,23.54-.693l-.5-.4a1.7,1.7,0,0,1-1.372.522,1.444,1.444,0,0,1-1.426-1.621h3.4c.01-.088.024-.249.024-.376,0-1.123-.488-2.378-2.07-2.378-1.416,0-2.119,1.226-2.119,2.534A2.211,2.211,0,0,0,21.675.068ZM20.244-2.788c.039-.83.459-1.558,1.353-1.558,1,0,1.353.776,1.372,1.558Zm7.329,4.927h.732v-2.8A1.75,1.75,0,0,0,29.8.1c1.309,0,1.987-1.157,1.987-2.539S31.1-4.98,29.795-4.98a1.743,1.743,0,0,0-1.489.767v-.664h-.732Zm2.07-2.656c-.991,0-1.406-.928-1.406-1.924s.415-1.924,1.406-1.924,1.411.938,1.411,1.924S30.62-.518,29.644-.518ZM34.9.068a2.392,2.392,0,0,0,1.865-.762l-.5-.4a1.7,1.7,0,0,1-1.372.522,1.444,1.444,0,0,1-1.426-1.621h3.4c.01-.088.024-.249.024-.376,0-1.123-.488-2.378-2.07-2.378C33.4-4.946,32.7-3.721,32.7-2.412A2.211,2.211,0,0,0,34.9.068ZM33.467-2.788c.039-.83.459-1.558,1.353-1.558,1,0,1.353.776,1.372,1.558ZM38.145,0h.718V-2.437c0-1.177.5-1.846,1.333-1.846a.888.888,0,0,1,.6.186l.308-.63a1.268,1.268,0,0,0-.786-.254,1.572,1.572,0,0,0-1.44.967v-.864h-.728Zm5.229.1A1.861,1.861,0,0,0,45.21-1.2l-.635-.273a1.224,1.224,0,0,1-1.211.952C42.344-.518,42-1.538,42-2.432s.352-1.934,1.362-1.934a1.234,1.234,0,0,1,1.211.977l.688-.293a2,2,0,0,0-1.9-1.3c-1.406,0-2.109,1.24-2.109,2.549S41.968.1,43.374.1ZM46.392,0h.723V-2.632a1.537,1.537,0,0,1,1.455-1.65c.84,0,1.035.728,1.035,1.392V0h.737V-3.008c0-1.04-.474-1.958-1.641-1.958a1.9,1.9,0,0,0-1.587.889V-6.9h-.723Zm6.694-5.488h.649L55.088-6.9h-.942ZM53.691.068a2.392,2.392,0,0,0,1.865-.762l-.5-.4a1.7,1.7,0,0,1-1.372.522,1.444,1.444,0,0,1-1.426-1.621h3.4c.01-.088.024-.249.024-.376,0-1.123-.488-2.378-2.07-2.378-1.416,0-2.119,1.226-2.119,2.534A2.211,2.211,0,0,0,53.691.068ZM52.261-2.788c.039-.83.459-1.558,1.353-1.558,1,0,1.353.776,1.372,1.558Z" transform="translate(8.776 373.165)"/>
    <path id="Path_161993" data-name="Path 161993" d="M.82,0h.737V-2.544c0-.884.435-1.816,1.245-1.816.835,0,1.025.776,1.025,1.45V0H4.57V-2.705c0-.8.435-1.655,1.235-1.655.845,0,1.045.806,1.045,1.47V0h.737V-2.964c0-1.084-.488-2.017-1.694-2.017A1.618,1.618,0,0,0,4.375-3.96,1.465,1.465,0,0,0,2.886-4.98a1.459,1.459,0,0,0-1.328.859v-.757H.82Zm9.434.1a1.821,1.821,0,0,0,1.714-1.04L11.982,0h.62V-2.993A1.8,1.8,0,0,0,10.693-4.98a2.164,2.164,0,0,0-1.841.957l.532.415a1.605,1.605,0,0,1,1.353-.737c.884,0,1.2.64,1.2,1.558H10.82c-1.387,0-2.148.454-2.148,1.431A1.43,1.43,0,0,0,10.254.1Zm.083-.615c-.508,0-.913-.239-.913-.82,0-.649.5-.9,1.465-.9h1.045A1.683,1.683,0,0,1,10.337-.518Zm6.436,2.656H17.5v-2.8A1.75,1.75,0,0,0,19,.1c1.309,0,1.987-1.157,1.987-2.539S20.3-4.98,18.994-4.98a1.743,1.743,0,0,0-1.489.767v-.664h-.732Zm2.07-2.656c-.991,0-1.406-.928-1.406-1.924s.415-1.924,1.406-1.924,1.411.938,1.411,1.924S19.819-.518,18.843-.518ZM24.1.068a2.392,2.392,0,0,0,1.865-.762l-.5-.4a1.7,1.7,0,0,1-1.372.522,1.444,1.444,0,0,1-1.426-1.621h3.4c.01-.088.024-.249.024-.376,0-1.123-.488-2.378-2.07-2.378C22.6-4.946,21.9-3.721,21.9-2.412A2.211,2.211,0,0,0,24.1.068ZM22.666-2.788c.039-.83.459-1.558,1.353-1.558,1,0,1.353.776,1.372,1.558ZM27.344,0h.718V-2.437c0-1.177.5-1.846,1.333-1.846a.888.888,0,0,1,.6.186l.308-.63a1.268,1.268,0,0,0-.786-.254,1.572,1.572,0,0,0-1.44.967v-.864h-.728Zm5.229.1A1.861,1.861,0,0,0,34.409-1.2l-.635-.273a1.224,1.224,0,0,1-1.211.952c-1.021,0-1.362-1.021-1.362-1.914s.352-1.934,1.362-1.934a1.234,1.234,0,0,1,1.211.977l.688-.293a2,2,0,0,0-1.9-1.3c-1.406,0-2.109,1.24-2.109,2.549S31.167.1,32.573.1ZM35.591,0h.723V-2.632a1.537,1.537,0,0,1,1.455-1.65c.84,0,1.035.728,1.035,1.392V0h.737V-3.008c0-1.04-.474-1.958-1.641-1.958a1.9,1.9,0,0,0-1.587.889V-6.9h-.723Zm6.694-5.488h.649L44.287-6.9h-.942ZM42.891.068a2.392,2.392,0,0,0,1.865-.762l-.5-.4a1.7,1.7,0,0,1-1.372.522A1.444,1.444,0,0,1,41.46-2.192h3.4c.01-.088.024-.249.024-.376,0-1.123-.488-2.378-2.07-2.378-1.416,0-2.119,1.226-2.119,2.534A2.211,2.211,0,0,0,42.891.068ZM41.46-2.788c.039-.83.459-1.558,1.353-1.558,1,0,1.353.776,1.372,1.558Z" transform="translate(49.868 398.006)"/>
    <path id="Path_161994" data-name="Path 161994" d="M2.72.1A2.4,2.4,0,0,0,5.044-2.451,2.383,2.383,0,0,0,2.72-4.98,2.361,2.361,0,0,0,.42-2.451,2.376,2.376,0,0,0,2.72.1Zm0-.605c-1.074,0-1.572-.957-1.572-1.943s.5-1.924,1.582-1.924,1.572.947,1.572,1.924S3.818-.508,2.725-.508ZM8.926,0h.737V-2.544c0-.884.435-1.816,1.245-1.816.835,0,1.025.776,1.025,1.45V0h.742V-2.705c0-.8.435-1.655,1.235-1.655.845,0,1.045.806,1.045,1.47V0h.737V-2.964c0-1.084-.488-2.017-1.694-2.017A1.618,1.618,0,0,0,12.48-3.96,1.465,1.465,0,0,0,10.991-4.98a1.459,1.459,0,0,0-1.328.859v-.757H8.926Zm9.434.1a1.821,1.821,0,0,0,1.714-1.04L20.088,0h.62V-2.993A1.8,1.8,0,0,0,18.8-4.98a2.164,2.164,0,0,0-1.841.957l.532.415a1.605,1.605,0,0,1,1.353-.737c.884,0,1.2.64,1.2,1.558H18.926c-1.387,0-2.148.454-2.148,1.431A1.43,1.43,0,0,0,18.359.1Zm.083-.615c-.508,0-.913-.239-.913-.82,0-.649.5-.9,1.465-.9h1.045A1.683,1.683,0,0,1,18.442-.518ZM23.979-.63c-.693-.1-1.3-.244-1.3-.747a.462.462,0,0,1,.21-.376,2.079,2.079,0,0,0,.918.205,1.661,1.661,0,0,0,1.8-1.68,1.761,1.761,0,0,0-.181-.791l.786-.62L25.8-5.156l-.732.664a1.855,1.855,0,0,0-1.26-.454,1.7,1.7,0,0,0-1.826,1.709,1.625,1.625,0,0,0,.41,1.113,1,1,0,0,0-.356.806,1.082,1.082,0,0,0,.62,1l-.7.708a1.287,1.287,0,0,0-.015.186c0,.928.835,1.66,2.1,1.66,1.025,0,1.953-.479,1.953-1.484C25.991-.352,24.971-.5,23.979-.63Zm-.186-3.74a1.059,1.059,0,0,1,1.079,1.118,1.023,1.023,0,0,1-1.079,1.1,1.019,1.019,0,0,1-1.074-1.1A1.066,1.066,0,0,1,23.794-4.37Zm.3,5.962c-.947,0-1.484-.5-1.489-1l.576-.7a4.948,4.948,0,0,0,.581.127c.835.142,1.577.166,1.577.791C25.342,1.338,24.741,1.592,24.1,1.592ZM28.315.1a1.821,1.821,0,0,0,1.714-1.04L30.044,0h.62V-2.993A1.8,1.8,0,0,0,28.755-4.98a2.164,2.164,0,0,0-1.841.957l.532.415A1.605,1.605,0,0,1,28.8-4.346c.884,0,1.2.64,1.2,1.558H28.882c-1.387,0-2.148.454-2.148,1.431A1.43,1.43,0,0,0,28.315.1ZM28.4-.518c-.508,0-.913-.239-.913-.82,0-.649.5-.9,1.465-.9H30A1.683,1.683,0,0,1,28.4-.518ZM32.183,0H32.9V-2.437c0-1.177.5-1.846,1.333-1.846a.888.888,0,0,1,.6.186l.308-.63a1.268,1.268,0,0,0-.786-.254,1.572,1.572,0,0,0-1.44.967v-.864h-.728ZM36.03-5.962h.83V-6.9h-.83ZM36.084,0h.723V-4.878h-.723Z" transform="translate(112.87 372.165)"/>
    <path id="Path_161995" data-name="Path 161995" d="M1.958.1A1.821,1.821,0,0,0,3.672-.942L3.687,0h.62V-2.993A1.8,1.8,0,0,0,2.4-4.98a2.164,2.164,0,0,0-1.841.957l.532.415a1.605,1.605,0,0,1,1.353-.737c.884,0,1.2.64,1.2,1.558H2.524c-1.387,0-2.148.454-2.148,1.431A1.43,1.43,0,0,0,1.958.1Zm.083-.615c-.508,0-.913-.239-.913-.82,0-.649.5-.9,1.465-.9H3.638A1.683,1.683,0,0,1,2.041-.518ZM5.825,0h.737V-2.544c0-.884.435-1.816,1.245-1.816.835,0,1.025.776,1.025,1.45V0h.742V-2.705c0-.8.435-1.655,1.235-1.655.845,0,1.045.806,1.045,1.47V0h.737V-2.964c0-1.084-.488-2.017-1.694-2.017A1.618,1.618,0,0,0,9.38-3.96,1.465,1.465,0,0,0,7.891-4.98a1.459,1.459,0,0,0-1.328.859v-.757H5.825Zm8.3,0h.737V-2.544c0-.884.435-1.816,1.245-1.816.835,0,1.025.776,1.025,1.45V0h.742V-2.705c0-.8.435-1.655,1.235-1.655.845,0,1.045.806,1.045,1.47V0h.737V-2.964c0-1.084-.488-2.017-1.694-2.017A1.618,1.618,0,0,0,17.676-3.96,1.465,1.465,0,0,0,16.187-4.98a1.459,1.459,0,0,0-1.328.859v-.757h-.737ZM24.238.068A2.392,2.392,0,0,0,26.1-.693l-.5-.4a1.7,1.7,0,0,1-1.372.522,1.444,1.444,0,0,1-1.426-1.621h3.4c.01-.088.024-.249.024-.376,0-1.123-.488-2.378-2.07-2.378-1.416,0-2.119,1.226-2.119,2.534A2.211,2.211,0,0,0,24.238.068ZM22.808-2.788c.039-.83.459-1.558,1.353-1.558,1,0,1.353.776,1.372,1.558ZM28.838.1a1.521,1.521,0,0,0,1.675-1.489c0-1.792-2.632-1.2-2.632-2.324,0-.4.327-.674.854-.674a1.15,1.15,0,0,1,1.089.688l.537-.308a1.733,1.733,0,0,0-1.6-.972,1.392,1.392,0,0,0-1.548,1.353c0,1.655,2.593,1.011,2.593,2.324,0,.527-.405.806-.957.806a1.237,1.237,0,0,1-1.216-.928l-.615.317A1.893,1.893,0,0,0,28.838.1Zm4.238,0a1.521,1.521,0,0,0,1.675-1.489c0-1.792-2.632-1.2-2.632-2.324,0-.4.327-.674.854-.674a1.15,1.15,0,0,1,1.089.688l.537-.308A1.733,1.733,0,0,0,33-4.98,1.392,1.392,0,0,0,31.45-3.628c0,1.655,2.593,1.011,2.593,2.324,0,.527-.405.806-.957.806a1.237,1.237,0,0,1-1.216-.928l-.615.317A1.893,1.893,0,0,0,33.076.1Zm4.746,0a2.4,2.4,0,0,0,2.324-2.549A2.383,2.383,0,0,0,37.822-4.98a2.361,2.361,0,0,0-2.3,2.529A2.376,2.376,0,0,0,37.822.1Zm0-.605c-1.074,0-1.572-.957-1.572-1.943s.5-1.924,1.582-1.924,1.572.947,1.572,1.924S38.921-.508,37.827-.508ZM45.776.1A1.861,1.861,0,0,0,47.612-1.2l-.635-.273a1.224,1.224,0,0,1-1.211.952c-1.021,0-1.362-1.021-1.362-1.914s.352-1.934,1.362-1.934a1.234,1.234,0,0,1,1.211.977l.688-.293a2,2,0,0,0-1.9-1.3c-1.406,0-2.109,1.24-2.109,2.549S44.37.1,45.776.1ZM48.794,0h.723V-2.632a1.537,1.537,0,0,1,1.455-1.65c.84,0,1.035.728,1.035,1.392V0h.737V-3.008c0-1.04-.474-1.958-1.641-1.958a1.9,1.9,0,0,0-1.587.889V-6.9h-.723Zm7.3.068a2.392,2.392,0,0,0,1.865-.762l-.5-.4a1.7,1.7,0,0,1-1.372.522,1.444,1.444,0,0,1-1.426-1.621h3.4c.01-.088.024-.249.024-.376,0-1.123-.488-2.378-2.07-2.378C54.6-4.946,53.9-3.721,53.9-2.412A2.211,2.211,0,0,0,56.094.068ZM54.663-2.788c.039-.83.459-1.558,1.353-1.558,1,0,1.353.776,1.372,1.558Z" transform="translate(167.523 372.165)"/>
    <path id="Path_525" data-name="Path 525" d="M-501.881-1633.417h35.4" transform="translate(716.474 1954.921)" fill="none" stroke="#000" stroke-width="0.984"/>
    <path id="Path_525-2" data-name="Path 525" d="M-723.844-1629.772v-3.645h153.538" transform="translate(745.812 1954.921)" fill="none" stroke="#000" stroke-width="0.984"/>
    <line id="Line_182" data-name="Line 182" x2="0.323" y2="27.242" transform="translate(41.177 335.258)" fill="none" stroke="#999" stroke-width="0.984"/>
    <line id="Line_183" data-name="Line 183" y2="28.037" transform="translate(128.548 335.258)" fill="none" stroke="#999" stroke-width="0.984"/>
    <line id="Line_184" data-name="Line 184" y2="28.037" transform="translate(187.974 335.258)" fill="none" stroke="#999" stroke-width="0.984"/>
    <path id="Path_161985" data-name="Path 161985" d="M3.179.1A3.772,3.772,0,0,0,6.357-1.714L5.708-2.09A2.756,2.756,0,0,1,3.232-.615C1.6-.615,1.255-1.919,1.6-3.428S2.964-6.313,4.634-6.313c.942,0,1.655.361,1.748,1.4l.742-.225A2.152,2.152,0,0,0,4.7-7.012c-2.1,0-3.4,1.606-3.838,3.491C.4-1.562,1.025.1,3.179.1ZM7.124,0h.723l.605-2.637a2.145,2.145,0,0,1,1.9-1.636c.8,0,.8.684.649,1.348L10.332,0h.737l.684-2.974c.239-1.04-.044-1.987-1.235-1.987a2.358,2.358,0,0,0-1.743.85L9.434-6.9H8.711Zm7.4.1a3.057,3.057,0,0,0,2.822-2.446c.332-1.426-.376-2.593-1.777-2.593A3.047,3.047,0,0,0,12.754-2.49C12.422-1.064,13.11.1,14.521.1Zm.039-.645c-1.055,0-1.24-.864-1.025-1.8a2.194,2.194,0,0,1,2-1.943c1.069,0,1.25.864,1.03,1.8A2.19,2.19,0,0,1,14.561-.547ZM19.985.1a3.057,3.057,0,0,0,2.822-2.446c.332-1.426-.376-2.593-1.777-2.593A3.047,3.047,0,0,0,18.218-2.49C17.886-1.064,18.574.1,19.985.1Zm.039-.645c-1.055,0-1.24-.864-1.025-1.8a2.194,2.194,0,0,1,2-1.943c1.069,0,1.25.864,1.03,1.8A2.19,2.19,0,0,1,20.024-.547ZM25.015.1a1.8,1.8,0,0,0,1.9-1.621c0-1.582-2.212-.962-2.212-2.017,0-.542.43-.8.972-.8a.952.952,0,0,1,1,.625l.61-.264A1.574,1.574,0,0,0,25.7-4.951,1.508,1.508,0,0,0,24.019-3.5c0,1.563,2.173.908,2.173,2a1.028,1.028,0,0,1-1.118.947,1,1,0,0,1-1.079-.84l-.664.249A1.6,1.6,0,0,0,25.015.1ZM29.1-5.962h.845l.215-.937h-.84ZM27.778,0h.737l1.123-4.878H28.9Zm2.383,0h.728l.635-2.739a2.066,2.066,0,0,1,1.846-1.528c.815,0,.82.679.674,1.343L33.369,0H34.1l.674-2.93c.249-1.084-.029-2.031-1.27-2.031a2.255,2.255,0,0,0-1.675.82l.181-.737h-.732Zm9.3.034L40.6-4.878h-.737l-.171.7a1.391,1.391,0,0,0-1.353-.8,2.813,2.813,0,0,0-2.5,2.461c-.327,1.426.122,2.6,1.45,2.6a2.172,2.172,0,0,0,1.616-.742l-.161.63a1.793,1.793,0,0,1-1.733,1.519A1.105,1.105,0,0,1,35.864.767l-.625.356a1.735,1.735,0,0,0,1.738.991A2.435,2.435,0,0,0,39.458.034Zm-1.973-.6c-.957,0-1.152-.864-.923-1.812.225-1.021.894-1.953,1.909-1.953.957,0,1.123.869.908,1.812C39.15-1.5,38.506-.566,37.485-.566Z" transform="translate(77.917 137.255)" fill="#4500ff"/>
    <ellipse id="Ellipse_30" data-name="Ellipse 30" cx="57.497" cy="57.497" rx="57.497" ry="57.497" transform="translate(1.139 240.019)" fill="none" stroke="#4500ff" stroke-miterlimit="10" stroke-width="0.5"/>
    <path id="Path_161986" data-name="Path 161986" d="M.474,0H1.25L2.842-6.9H2.065ZM3.105,0h.728l.635-2.739A2.066,2.066,0,0,1,6.313-4.268c.815,0,.82.679.674,1.343L6.313,0h.732L7.72-2.93c.249-1.084-.029-2.031-1.27-2.031a2.255,2.255,0,0,0-1.675.82l.181-.737H4.224ZM9.941.1A2.194,2.194,0,0,0,10.591.01l.093-.649a1.414,1.414,0,0,1-.552.137c-.327,0-.527-.215-.4-.752l.7-3.027H11.68l.137-.6h-1.25l.41-1.782-.889.684-.249,1.1H9.072l-.137.6H9.7L9.019-1.328C8.828-.493,9.048.1,9.941.1ZM13.657.059a2.925,2.925,0,0,0,2-.728l-.449-.449a2.12,2.12,0,0,1-1.528.532c-.913,0-1.206-.708-1-1.572h3.4c.02-.054.049-.151.049-.151.322-1.353.1-2.632-1.523-2.632A2.883,2.883,0,0,0,12-2.48C11.68-1.074,12.173.059,13.657.059Zm-.835-2.812a1.9,1.9,0,0,1,1.753-1.538c.913,0,1.2.586.986,1.538ZM16.86,0h.732l.527-2.275c.234-1.016.933-1.982,1.792-1.982a1.143,1.143,0,0,1,.605.176l.356-.62a1.365,1.365,0,0,0-.82-.249,1.852,1.852,0,0,0-1.528.913l.19-.84h-.737Zm3.394,2.139h.732L21.655-.7a1.39,1.39,0,0,0,1.382.8,2.822,2.822,0,0,0,2.476-2.466C25.84-3.8,25.391-4.98,24.087-4.98a2.167,2.167,0,0,0-1.641.732l.151-.63h-.723ZM22.871-.542c-.933,0-1.138-.869-.908-1.826.234-1.025.9-1.968,1.9-1.968.972,0,1.167.874.947,1.826C24.575-1.479,23.906-.542,22.871-.542ZM26.26,0h.732l.527-2.275c.234-1.016.933-1.982,1.792-1.982a1.143,1.143,0,0,1,.605.176l.356-.62a1.365,1.365,0,0,0-.82-.249,1.852,1.852,0,0,0-1.528.913l.19-.84h-.737Zm5.332.059a2.925,2.925,0,0,0,2-.728l-.449-.449a2.12,2.12,0,0,1-1.528.532c-.913,0-1.206-.708-1-1.572h3.4c.02-.054.049-.151.049-.151.322-1.353.1-2.632-1.523-2.632A2.883,2.883,0,0,0,29.932-2.48C29.614-1.074,30.107.059,31.592.059Zm-.835-2.812A1.9,1.9,0,0,1,32.51-4.292c.913,0,1.2.586.986,1.538ZM36.172.1A2.194,2.194,0,0,0,36.821.01l.093-.649a1.414,1.414,0,0,1-.552.137c-.327,0-.527-.215-.4-.752l.7-3.027H37.91l.137-.6H36.8l.41-1.782-.889.684-.249,1.1H35.3l-.137.6h.767l-.684,2.954C35.059-.493,35.278.1,36.172.1ZM39.4-5.962h.845l.215-.937h-.84ZM38.081,0h.737l1.123-4.878H39.2Zm2.383,0h.728l.635-2.739a2.066,2.066,0,0,1,1.846-1.528c.815,0,.82.679.674,1.343L43.672,0H44.4l.674-2.93c.249-1.084-.029-2.031-1.27-2.031a2.255,2.255,0,0,0-1.675.82l.181-.737h-.732Zm9.3.034L50.9-4.878h-.737L50-4.18a1.391,1.391,0,0,0-1.353-.8,2.813,2.813,0,0,0-2.5,2.461c-.327,1.426.122,2.6,1.45,2.6a2.172,2.172,0,0,0,1.616-.742l-.161.63a1.793,1.793,0,0,1-1.733,1.519A1.105,1.105,0,0,1,46.167.767l-.625.356a1.735,1.735,0,0,0,1.738.991A2.435,2.435,0,0,0,49.761.034Zm-1.973-.6c-.957,0-1.152-.864-.923-1.812.225-1.021.894-1.953,1.909-1.953.957,0,1.123.869.908,1.812C49.453-1.5,48.809-.566,47.788-.566Z" transform="translate(152.344 166.783)" fill="#4500ff"/>
    <path id="Path_161987" data-name="Path 161987" d="M2.368.078a2.327,2.327,0,0,0,2.471-2.2c0-1.88-2.6-1.558-2.6-2.959A1.383,1.383,0,0,1,3.687-6.343a1.116,1.116,0,0,1,1.133.767l.62-.317A1.722,1.722,0,0,0,3.706-7,2.134,2.134,0,0,0,1.475-4.98c0,1.807,2.6,1.445,2.6,2.979A1.482,1.482,0,0,1,2.412-.62a1.234,1.234,0,0,1-1.4-1.328L.254-1.8A1.9,1.9,0,0,0,2.368.078ZM4.932,2.139h.732L6.333-.7A1.39,1.39,0,0,0,7.715.1,2.822,2.822,0,0,0,10.19-2.368C10.518-3.8,10.068-4.98,8.765-4.98a2.167,2.167,0,0,0-1.641.732l.151-.63H6.553ZM7.549-.542c-.933,0-1.138-.869-.908-1.826.234-1.025.9-1.968,1.9-1.968.972,0,1.167.874.947,1.826C9.253-1.479,8.584-.542,7.549-.542Zm5.244.6a2.925,2.925,0,0,0,2-.728l-.449-.449a2.12,2.12,0,0,1-1.528.532c-.913,0-1.206-.708-1-1.572h3.4c.02-.054.049-.151.049-.151.322-1.353.1-2.632-1.523-2.632A2.883,2.883,0,0,0,11.133-2.48C10.815-1.074,11.309.059,12.793.059Zm-.835-2.812a1.9,1.9,0,0,1,1.753-1.538c.913,0,1.2.586.986,1.538ZM17.773.1a2.4,2.4,0,0,0,2.08-1.26L19.277-1.5a1.71,1.71,0,0,1-1.489.981c-.991,0-1.074-.981-.884-1.836.21-.918.835-1.978,1.88-1.978a.872.872,0,0,1,.952.913l.728-.229a1.58,1.58,0,0,0-1.646-1.309A2.9,2.9,0,0,0,16.191-2.5C15.884-1.143,16.338.1,17.773.1Zm4.292-6.06h.845l.215-.937h-.84ZM20.742,0h.737L22.6-4.878H21.86ZM23.35,0h.723l.986-4.282h1.406l.132-.6H25.2l.2-.845a.8.8,0,0,1,.82-.674,1.189,1.189,0,0,1,.522.127l.283-.532A1.638,1.638,0,0,0,26.23-7a1.491,1.491,0,0,0-1.543,1.191l-.22.942h-.889l-.137.586h.889Zm3.135,2.1h.786l4.224-6.978h-.811L28.364-.889l-.493-3.989h-.8l.752,4.854ZM32.69-5.962h.845L33.75-6.9h-.84ZM31.367,0H32.1l1.123-4.878h-.742ZM33.75,0h.728l.635-2.739a2.066,2.066,0,0,1,1.846-1.528c.815,0,.82.679.674,1.343L36.958,0h.732l.674-2.93c.249-1.084-.029-2.031-1.27-2.031a2.255,2.255,0,0,0-1.675.82l.181-.737h-.732Zm9.3.034,1.143-4.912h-.737l-.171.7a1.391,1.391,0,0,0-1.353-.8,2.813,2.813,0,0,0-2.5,2.461c-.327,1.426.122,2.6,1.45,2.6A2.172,2.172,0,0,0,42.5-.664l-.161.63A1.793,1.793,0,0,1,40.6,1.484,1.105,1.105,0,0,1,39.453.767l-.625.356a1.735,1.735,0,0,0,1.738.991A2.435,2.435,0,0,0,43.047.034Zm-1.973-.6c-.957,0-1.152-.864-.923-1.812.225-1.021.894-1.953,1.909-1.953.957,0,1.123.869.908,1.812C42.739-1.5,42.095-.566,41.074-.566Z" transform="translate(184.868 216.945)" fill="#4500ff"/>
    <ellipse id="Ellipse_30-2" data-name="Ellipse 30-2" cx="25.699" cy="25.699" rx="25.699" ry="25.699" transform="translate(107.663 276.587)" fill="none" stroke="#4500ff" stroke-miterlimit="10" stroke-width="0.5"/>
    <ellipse id="Ellipse_31" data-name="Ellipse 31" cx="41.32" cy="41.32" rx="41.32" ry="41.32" transform="translate(150.621 266.174)" fill="none" stroke="#4500ff" stroke-miterlimit="10" stroke-width="0.5"/>
    <path id="Path_571" data-name="Path 571" d="M-681.592-1743.483v-106.172h13.955" transform="translate(740.227 1983.502)" fill="none" stroke="#4500ff" stroke-miterlimit="10" stroke-width="0.5"/>
    <path id="Path_572" data-name="Path 572" d="M-595.484-1702.245v-112.082h13.954" transform="translate(728.846 1978.832)" fill="none" stroke="#4500ff" stroke-miterlimit="10" stroke-width="0.5"/>
    <path id="Path_573" data-name="Path 573" d="M-555.074-1697.674v-58.858h11.648" transform="translate(723.505 1971.193)" fill="none" stroke="#4500ff" stroke-miterlimit="10" stroke-width="0.5"/>
    <line id="Rectangle_741-2" data-name="Rectangle 741" x2="14.149" transform="translate(161.357 312.144)" fill="none" stroke="#ffc806" stroke-width="1.476"/>
    <line id="Rectangle_742-2" data-name="Rectangle 742" x2="1.238" transform="translate(125.984 312.144)" fill="none" stroke="#ffc806" stroke-width="1.476"/>
    <line id="Rectangle_743-2" data-name="Rectangle 743" x2="14.326" transform="translate(28.355 284.127)" fill="none" stroke="#ffc806" stroke-width="1.476"/>
    <line id="Rectangle_744-2" data-name="Rectangle 744" x2="14.326" transform="translate(28.355 312.144)" fill="none" stroke="#ffc806" stroke-width="1.476"/>
    <line id="Rectangle_788-2" data-name="Rectangle 788" x2="38.91" transform="translate(175.683 312.144)" fill="none" stroke="#bbf" stroke-width="1.476"/>
    <line id="Rectangle_789-2" data-name="Rectangle 789" x2="3.714" transform="translate(127.399 312.144)" fill="none" stroke="#bbf" stroke-width="1.476"/>
    <line id="Rectangle_790-2" data-name="Rectangle 790" x2="45.277" transform="translate(54.354 284.127)" fill="none" stroke="#bbf" stroke-width="1.476"/>
    <line id="Rectangle_791-2" data-name="Rectangle 791" x2="10.966" transform="translate(43.034 312.144)" fill="none" stroke="#bbf" stroke-width="1.476"/>
    <path id="Path_575" data-name="Path 575" d="M-546.718-1635.417c2.16,0,2.16,3.471,4.32,3.471s2.162-3.471,4.323-3.471,2.161,3.471,4.322,3.471,2.161-3.471,4.322-3.471,2.162,3.471,4.323,3.471,2.16-3.471,4.321-3.471,2.163,3.471,4.324,3.471,2.164-3.471,4.328-3.471,2.164,3.471,4.328,3.471" transform="translate(722.401 1955.185)" fill="none" stroke="#4500ff" stroke-miterlimit="10" stroke-width="1"/>
    <path id="Path_162001" data-name="Path 162001" d="M1.035,0H4.761V-.708H1.812V-6.9H1.035ZM7.666.068A2.392,2.392,0,0,0,9.531-.693l-.5-.4a1.7,1.7,0,0,1-1.372.522A1.444,1.444,0,0,1,6.235-2.192h3.4c.01-.088.024-.249.024-.376,0-1.123-.488-2.378-2.07-2.378-1.416,0-2.119,1.226-2.119,2.534A2.211,2.211,0,0,0,7.666.068ZM6.235-2.788c.039-.83.459-1.558,1.353-1.558,1,0,1.353.776,1.372,1.558ZM11.992,0h.645l1.816-4.878h-.781L12.314-.947,10.967-4.878h-.8Zm5.127.068a2.392,2.392,0,0,0,1.865-.762l-.5-.4a1.7,1.7,0,0,1-1.372.522,1.444,1.444,0,0,1-1.426-1.621h3.4c.01-.088.024-.249.024-.376,0-1.123-.488-2.378-2.07-2.378-1.416,0-2.119,1.226-2.119,2.534A2.211,2.211,0,0,0,17.119.068ZM15.688-2.788c.039-.83.459-1.558,1.353-1.558,1,0,1.353.776,1.372,1.558Zm5.64,2.251c-.22,0-.239-.264-.239-.278V-6.9h-.737V-.986c0,.586.054,1.084.791,1.084A2.381,2.381,0,0,0,21.8,0V-.586A2.891,2.891,0,0,1,21.328-.537ZM24.248.1a1.521,1.521,0,0,0,1.675-1.489c0-1.792-2.632-1.2-2.632-2.324,0-.4.327-.674.854-.674a1.15,1.15,0,0,1,1.089.688l.537-.308a1.733,1.733,0,0,0-1.6-.972,1.392,1.392,0,0,0-1.548,1.353c0,1.655,2.593,1.011,2.593,2.324,0,.527-.405.806-.957.806a1.237,1.237,0,0,1-1.216-.928l-.615.317A1.893,1.893,0,0,0,24.248.1Z" transform="translate(1 95)"/>
    <path id="Rectangle_899" data-name="Rectangle 899" d="M0,285Z" transform="translate(228.883 54.977)" fill="url(#linear-gradient-3)"/>
    <g id="Group_793" data-name="Group 793" transform="translate(-842 -2641)">
      <path id="Path_612" data-name="Path 612" d="M-762.5-1915.677c2.623,0,2.623,7,5.245,7s2.623-7,5.246-7,2.628,7,5.255,7,2.626-7,5.254-7" transform="translate(1604.984 4596.142)" fill="none" stroke="#4500ff" stroke-miterlimit="10" stroke-width="0.75"/>
      <path id="Path_161983" data-name="Path 161983" d="M1.035,0H2.783C5.01,0,6.274-1.226,6.274-3.4A3.147,3.147,0,0,0,2.793-6.9H1.035Zm.776-.708v-5.5h.962A2.441,2.441,0,0,1,5.5-3.452,2.553,2.553,0,0,1,2.666-.708ZM9.238.107a1.736,1.736,0,0,0,1.533-.933V0h.723V-4.878h-.723v2.7A1.566,1.566,0,0,1,9.316-.508C8.481-.508,8.291-1.294,8.291-2V-4.878H7.563v2.832C7.563-.83,8.037.107,9.238.107ZM15.4.1c1.27,0,1.963-1.147,1.963-2.539S16.665-4.98,15.391-4.98a1.747,1.747,0,0,0-1.514.767V-6.9h-.728V0h.728V-.664A1.747,1.747,0,0,0,15.4.1Zm-.19-.615c-.977,0-1.392-.928-1.392-1.924s.415-1.924,1.392-1.924,1.426.938,1.426,1.924S16.187-.518,15.205-.518Zm3.4-5.444h.83V-6.9H18.6ZM18.657,0h.723V-4.878h-.723Zm3.73.1a1.966,1.966,0,0,0,.654-.1V-.625a1.164,1.164,0,0,1-.488.122c-.356,0-.62-.249-.62-.786V-4.282h1.235v-.6H21.934V-6.66l-.723.684v1.1h-.786v.6h.781v2.988C21.206-.459,21.523.1,22.388.1Zm3.076,0a1.821,1.821,0,0,0,1.714-1.04L27.192,0h.62V-2.993A1.8,1.8,0,0,0,25.9-4.98a2.164,2.164,0,0,0-1.841.957l.532.415a1.605,1.605,0,0,1,1.353-.737c.884,0,1.2.64,1.2,1.558H26.03c-1.387,0-2.148.454-2.148,1.431A1.43,1.43,0,0,0,25.464.1Zm.083-.615c-.508,0-.913-.239-.913-.82,0-.649.5-.9,1.465-.9h1.045A1.683,1.683,0,0,1,25.547-.518ZM30.679.1a1.966,1.966,0,0,0,.654-.1V-.625a1.164,1.164,0,0,1-.488.122c-.356,0-.62-.249-.62-.786V-4.282H31.46v-.6H30.225V-6.66l-.723.684v1.1h-.786v.6H29.5v2.988C29.5-.459,29.814.1,30.679.1Zm1.895-6.06h.83V-6.9h-.83ZM32.627,0h.723V-4.878h-.723Zm3.55,0h.645l1.816-4.878h-.781L36.5-.947,35.151-4.878h-.8ZM41.3.068a2.392,2.392,0,0,0,1.865-.762l-.5-.4A1.7,1.7,0,0,1,41.3-.571a1.444,1.444,0,0,1-1.426-1.621h3.4c.01-.088.024-.249.024-.376,0-1.123-.488-2.378-2.07-2.378-1.416,0-2.119,1.226-2.119,2.534A2.211,2.211,0,0,0,41.3.068ZM39.873-2.788c.039-.83.459-1.558,1.353-1.558,1,0,1.353.776,1.372,1.558ZM48.55.1A1.966,1.966,0,0,0,49.2,0V-.625a1.164,1.164,0,0,1-.488.122c-.356,0-.62-.249-.62-.786V-4.282h1.235v-.6H48.1V-6.66l-.723.684v1.1h-.786v.6h.781v2.988C47.368-.459,47.686.1,48.55.1ZM52.261.068a2.392,2.392,0,0,0,1.865-.762l-.5-.4a1.7,1.7,0,0,1-1.372.522A1.444,1.444,0,0,1,50.83-2.192h3.4c.01-.088.024-.249.024-.376,0-1.123-.488-2.378-2.07-2.378-1.416,0-2.119,1.226-2.119,2.534A2.211,2.211,0,0,0,52.261.068ZM50.83-2.788c.039-.83.459-1.558,1.353-1.558,1,0,1.353.776,1.372,1.558ZM54.854,0h.894l1.138-1.846L58.027,0H58.9L57.271-2.461,58.9-4.878h-.869L56.885-3.071,55.747-4.878h-.894L56.5-2.461Zm6.5.1a1.966,1.966,0,0,0,.654-.1V-.625a1.164,1.164,0,0,1-.488.122c-.356,0-.62-.249-.62-.786V-4.282h1.235v-.6H60.9V-6.66l-.723.684v1.1h-.786v.6h.781v2.988C60.176-.459,60.493.1,61.357.1ZM66.9.156h.61a5.88,5.88,0,0,1-1.182-3.584A5.964,5.964,0,0,1,67.52-7.041h-.63a5.838,5.838,0,0,0-1.157,3.6A6.128,6.128,0,0,0,66.9.156ZM70,.1a1.966,1.966,0,0,0,.654-.1V-.625a1.164,1.164,0,0,1-.488.122c-.356,0-.62-.249-.62-.786V-4.282h1.235v-.6H69.546V-6.66l-.723.684v1.1h-.786v.6h.781v2.988C68.818-.459,69.136.1,70,.1Zm5.02-7v2.686a1.746,1.746,0,0,0-1.528-.767c-1.245,0-1.953,1.143-1.953,2.539S72.246.1,73.5.1a1.734,1.734,0,0,0,1.528-.776L75.039,0h.708V-6.9ZM73.682-.518c-.977,0-1.4-.928-1.4-1.924s.42-1.924,1.4-1.924c1,0,1.4.938,1.4,1.924S74.678-.518,73.682-.518Zm3.232.674h.61a6.092,6.092,0,0,0,1.167-3.608,5.641,5.641,0,0,0-1.162-3.589H76.9a6.257,6.257,0,0,1,1.191,3.6A6.068,6.068,0,0,1,76.914.156Z" transform="translate(867.425 2650.083)"/>
      <path id="Rectangle_179" data-name="Rectangle 179" d="M-757-1952.058h9.882a5.3,5.3,0,0,1,5.559,5h0a5.3,5.3,0,0,1-5.559,5H-757a5.3,5.3,0,0,1-5.559-5h0A5.3,5.3,0,0,1-757-1952.058Z" transform="translate(1604.984 4596.142)" fill="#d1d1f8"/>
      <path id="Path_161984" data-name="Path 161984" d="M2.622,0H3.4V-6.26H5.732V-6.9H.293v.64H2.622ZM7.715.068A2.392,2.392,0,0,0,9.58-.693l-.5-.4A1.7,1.7,0,0,1,7.71-.571,1.444,1.444,0,0,1,6.284-2.192h3.4c.01-.088.024-.249.024-.376,0-1.123-.488-2.378-2.07-2.378-1.416,0-2.119,1.226-2.119,2.534A2.211,2.211,0,0,0,7.715.068ZM6.284-2.788c.039-.83.459-1.558,1.353-1.558,1,0,1.353.776,1.372,1.558ZM10.308,0H11.2l1.138-1.846L13.481,0h.869L12.725-2.461l1.626-2.417h-.869L12.339-3.071,11.2-4.878h-.894l1.646,2.417Zm6.5.1a1.966,1.966,0,0,0,.654-.1V-.625a1.164,1.164,0,0,1-.488.122c-.356,0-.62-.249-.62-.786V-4.282h1.235v-.6H16.357V-6.66l-.723.684v1.1h-.786v.6h.781v2.988C15.63-.459,15.947.1,16.812.1Zm6.47,0a2.4,2.4,0,0,0,2.324-2.549A2.383,2.383,0,0,0,23.281-4.98a2.361,2.361,0,0,0-2.3,2.529A2.376,2.376,0,0,0,23.281.1Zm0-.605c-1.074,0-1.572-.957-1.572-1.943s.5-1.924,1.582-1.924,1.572.947,1.572,1.924S24.38-.508,23.286-.508ZM29.1.1c1.27,0,1.963-1.147,1.963-2.539S30.371-4.98,29.1-4.98a1.747,1.747,0,0,0-1.514.767V-6.9h-.728V0h.728V-.664A1.747,1.747,0,0,0,29.1.1Zm-.19-.615c-.977,0-1.392-.928-1.392-1.924s.415-1.924,1.392-1.924,1.426.938,1.426,1.924S29.893-.518,28.911-.518Zm3.408-5.474h.84V-6.9h-.84Zm-.459,8.13c.884,0,1.25-.581,1.25-1.382V-4.878h-.742V.864c0,.327-.117.659-.527.659a2.256,2.256,0,0,1-.562-.083l-.156.547A2.283,2.283,0,0,0,31.86,2.139ZM36.582.068a2.392,2.392,0,0,0,1.865-.762l-.5-.4a1.7,1.7,0,0,1-1.372.522,1.444,1.444,0,0,1-1.426-1.621h3.4c.01-.088.024-.249.024-.376,0-1.123-.488-2.378-2.07-2.378-1.416,0-2.119,1.226-2.119,2.534A2.211,2.211,0,0,0,36.582.068ZM35.151-2.788c.039-.83.459-1.558,1.353-1.558,1,0,1.353.776,1.372,1.558ZM41.577.1A1.861,1.861,0,0,0,43.413-1.2l-.635-.273a1.224,1.224,0,0,1-1.211.952c-1.021,0-1.362-1.021-1.362-1.914s.352-1.934,1.362-1.934a1.234,1.234,0,0,1,1.211.977l.688-.293a2,2,0,0,0-1.9-1.3c-1.406,0-2.109,1.24-2.109,2.549S40.171.1,41.577.1Zm4.365,0A1.966,1.966,0,0,0,46.6,0V-.625a1.164,1.164,0,0,1-.488.122c-.356,0-.62-.249-.62-.786V-4.282h1.235v-.6H45.488V-6.66l-.723.684v1.1h-.786v.6h.781v2.988C44.761-.459,45.078.1,45.942.1Zm6.47,0a2.4,2.4,0,0,0,2.324-2.549A2.383,2.383,0,0,0,52.412-4.98a2.361,2.361,0,0,0-2.3,2.529A2.376,2.376,0,0,0,52.412.1Zm0-.605c-1.074,0-1.572-.957-1.572-1.943s.5-1.924,1.582-1.924S54-3.428,54-2.451,53.511-.508,52.417-.508ZM56.2,0h.728V-4.282h1.4v-.6h-1.4v-.781c0-.5.273-.728.649-.728a1.387,1.387,0,0,1,.571.151l.176-.581a1.825,1.825,0,0,0-.8-.186,1.225,1.225,0,0,0-1.318,1.3v.82h-.894v.6H56.2Zm8.857-6.9v2.686A1.746,1.746,0,0,0,63.53-4.98c-1.245,0-1.953,1.143-1.953,2.539S62.285.1,63.535.1a1.734,1.734,0,0,0,1.528-.776L65.078,0h.708V-6.9ZM63.721-.518c-.977,0-1.4-.928-1.4-1.924s.42-1.924,1.4-1.924c1,0,1.4.938,1.4,1.924S64.717-.518,63.721-.518ZM69.341.1a2.4,2.4,0,0,0,2.324-2.549A2.383,2.383,0,0,0,69.341-4.98a2.361,2.361,0,0,0-2.3,2.529A2.376,2.376,0,0,0,69.341.1Zm0-.605c-1.074,0-1.572-.957-1.572-1.943s.5-1.924,1.582-1.924,1.572.947,1.572,1.924S70.439-.508,69.346-.508Zm5.073.615a1.736,1.736,0,0,0,1.533-.933V0h.723V-4.878h-.723v2.7A1.566,1.566,0,0,1,74.5-.508c-.835,0-1.025-.786-1.025-1.489V-4.878h-.728v2.832C72.744-.83,73.218.107,74.419.107ZM80.576.1c1.27,0,1.963-1.147,1.963-2.539S81.846-4.98,80.571-4.98a1.747,1.747,0,0,0-1.514.767V-6.9H78.33V0h.728V-.664A1.747,1.747,0,0,0,80.576.1Zm-.19-.615c-.977,0-1.392-.928-1.392-1.924s.415-1.924,1.392-1.924,1.426.938,1.426,1.924S81.367-.518,80.386-.518ZM85.146.1A1.966,1.966,0,0,0,85.8,0V-.625a1.164,1.164,0,0,1-.488.122c-.356,0-.62-.249-.62-.786V-4.282h1.235v-.6H84.692V-6.66l-.723.684v1.1h-.786v.6h.781v2.988C83.965-.459,84.282.1,85.146.1Z" transform="translate(867.909 2667.722)"/>
      <path id="Path_161982" data-name="Path 161982" d="M1.035,0H2.783C5.01,0,6.274-1.226,6.274-3.4A3.147,3.147,0,0,0,2.793-6.9H1.035Zm.776-.708v-5.5h.962A2.441,2.441,0,0,1,5.5-3.452,2.553,2.553,0,0,1,2.666-.708ZM9.238.107a1.736,1.736,0,0,0,1.533-.933V0h.723V-4.878h-.723v2.7A1.566,1.566,0,0,1,9.316-.508C8.481-.508,8.291-1.294,8.291-2V-4.878H7.563v2.832C7.563-.83,8.037.107,9.238.107ZM15.4.1c1.27,0,1.963-1.147,1.963-2.539S16.665-4.98,15.391-4.98a1.747,1.747,0,0,0-1.514.767V-6.9h-.728V0h.728V-.664A1.747,1.747,0,0,0,15.4.1Zm-.19-.615c-.977,0-1.392-.928-1.392-1.924s.415-1.924,1.392-1.924,1.426.938,1.426,1.924S16.187-.518,15.205-.518Zm3.4-5.444h.83V-6.9H18.6ZM18.657,0h.723V-4.878h-.723Zm3.73.1a1.966,1.966,0,0,0,.654-.1V-.625a1.164,1.164,0,0,1-.488.122c-.356,0-.62-.249-.62-.786V-4.282h1.235v-.6H21.934V-6.66l-.723.684v1.1h-.786v.6h.781v2.988C21.206-.459,21.523.1,22.388.1Zm3.076,0a1.821,1.821,0,0,0,1.714-1.04L27.192,0h.62V-2.993A1.8,1.8,0,0,0,25.9-4.98a2.164,2.164,0,0,0-1.841.957l.532.415a1.605,1.605,0,0,1,1.353-.737c.884,0,1.2.64,1.2,1.558H26.03c-1.387,0-2.148.454-2.148,1.431A1.43,1.43,0,0,0,25.464.1Zm.083-.615c-.508,0-.913-.239-.913-.82,0-.649.5-.9,1.465-.9h1.045A1.683,1.683,0,0,1,25.547-.518ZM30.679.1a1.966,1.966,0,0,0,.654-.1V-.625a1.164,1.164,0,0,1-.488.122c-.356,0-.62-.249-.62-.786V-4.282H31.46v-.6H30.225V-6.66l-.723.684v1.1h-.786v.6H29.5v2.988C29.5-.459,29.814.1,30.679.1Zm1.895-6.06h.83V-6.9h-.83ZM32.627,0h.723V-4.878h-.723Zm3.55,0h.645l1.816-4.878h-.781L36.5-.947,35.151-4.878h-.8ZM41.3.068a2.392,2.392,0,0,0,1.865-.762l-.5-.4A1.7,1.7,0,0,1,41.3-.571a1.444,1.444,0,0,1-1.426-1.621h3.4c.01-.088.024-.249.024-.376,0-1.123-.488-2.378-2.07-2.378-1.416,0-2.119,1.226-2.119,2.534A2.211,2.211,0,0,0,41.3.068ZM39.873-2.788c.039-.83.459-1.558,1.353-1.558,1,0,1.353.776,1.372,1.558ZM48.55.1A1.966,1.966,0,0,0,49.2,0V-.625a1.164,1.164,0,0,1-.488.122c-.356,0-.62-.249-.62-.786V-4.282h1.235v-.6H48.1V-6.66l-.723.684v1.1h-.786v.6h.781v2.988C47.368-.459,47.686.1,48.55.1ZM52.261.068a2.392,2.392,0,0,0,1.865-.762l-.5-.4a1.7,1.7,0,0,1-1.372.522A1.444,1.444,0,0,1,50.83-2.192h3.4c.01-.088.024-.249.024-.376,0-1.123-.488-2.378-2.07-2.378-1.416,0-2.119,1.226-2.119,2.534A2.211,2.211,0,0,0,52.261.068ZM50.83-2.788c.039-.83.459-1.558,1.353-1.558,1,0,1.353.776,1.372,1.558ZM54.854,0h.894l1.138-1.846L58.027,0H58.9L57.271-2.461,58.9-4.878h-.869L56.885-3.071,55.747-4.878h-.894L56.5-2.461Zm6.5.1a1.966,1.966,0,0,0,.654-.1V-.625a1.164,1.164,0,0,1-.488.122c-.356,0-.62-.249-.62-.786V-4.282h1.235v-.6H60.9V-6.66l-.723.684v1.1h-.786v.6h.781v2.988C60.176-.459,60.493.1,61.357.1ZM66.714,0h.708L68.584-3.96,69.722,0h.708L71.8-4.878h-.776L70.029-.972,68.911-4.878h-.669L67.119-.962l-1-3.916h-.771Zm6.1-5.967h.83V-6.9h-.83ZM72.866,0h.723V-4.878h-.723ZM76.6.1a1.966,1.966,0,0,0,.654-.1V-.625a1.164,1.164,0,0,1-.488.122c-.356,0-.62-.249-.62-.786V-4.282h1.235v-.6H76.143V-6.66l-.723.684v1.1h-.786v.6h.781v2.988C75.415-.459,75.732.1,76.6.1ZM78.5,0h.723V-2.632a1.537,1.537,0,0,1,1.455-1.65c.84,0,1.035.728,1.035,1.392V0h.737V-3.008c0-1.04-.474-1.958-1.641-1.958a1.9,1.9,0,0,0-1.587.889V-6.9H78.5Zm8.13,2.139h.732v-2.8A1.75,1.75,0,0,0,88.853.1C90.161.1,90.84-1.06,90.84-2.441S90.156-4.98,88.848-4.98a1.743,1.743,0,0,0-1.489.767v-.664h-.732ZM88.7-.518c-.991,0-1.406-.928-1.406-1.924s.415-1.924,1.406-1.924,1.411.938,1.411,1.924S89.673-.518,88.7-.518ZM93.267.1A1.821,1.821,0,0,0,94.98-.942L95,0h.62V-2.993A1.8,1.8,0,0,0,93.706-4.98a2.164,2.164,0,0,0-1.841.957l.532.415a1.605,1.605,0,0,1,1.353-.737c.884,0,1.2.64,1.2,1.558H93.833c-1.387,0-2.148.454-2.148,1.431A1.43,1.43,0,0,0,93.267.1Zm.083-.615c-.508,0-.913-.239-.913-.82,0-.649.5-.9,1.465-.9h1.045A1.683,1.683,0,0,1,93.35-.518ZM97.134,0h.718V-2.437c0-1.177.5-1.846,1.333-1.846a.888.888,0,0,1,.6.186l.308-.63A1.268,1.268,0,0,0,99.3-4.98a1.572,1.572,0,0,0-1.44.967v-.864h-.728Zm5.3.068A2.392,2.392,0,0,0,104.3-.693l-.5-.4a1.7,1.7,0,0,1-1.372.522,1.444,1.444,0,0,1-1.426-1.621h3.4c.01-.088.024-.249.024-.376,0-1.123-.488-2.378-2.07-2.378-1.416,0-2.119,1.226-2.119,2.534A2.211,2.211,0,0,0,102.437.068Zm-1.431-2.856c.039-.83.459-1.558,1.353-1.558,1,0,1.353.776,1.372,1.558ZM105.684,0h.728V-2.534c0-1.211.61-1.812,1.377-1.812.859,0,1.108.781,1.108,1.455V0h.723V-2.964c0-1.074-.474-2-1.636-2a1.752,1.752,0,0,0-1.572.938v-.85h-.728ZM112.5.1a1.966,1.966,0,0,0,.654-.1V-.625a1.164,1.164,0,0,1-.488.122c-.356,0-.62-.249-.62-.786V-4.282h1.235v-.6h-1.235V-6.66l-.723.684v1.1h-.786v.6h.781v2.988C111.323-.459,111.641.1,112.5.1Zm1.9-.1h.723V-2.632a1.537,1.537,0,0,1,1.455-1.65c.84,0,1.035.728,1.035,1.392V0h.737V-3.008c0-1.04-.474-1.958-1.641-1.958a1.9,1.9,0,0,0-1.587.889V-6.9H114.4Zm7.3.068a2.392,2.392,0,0,0,1.865-.762l-.5-.4a1.7,1.7,0,0,1-1.372.522,1.444,1.444,0,0,1-1.426-1.621h3.4c.01-.088.024-.249.024-.376,0-1.123-.488-2.378-2.07-2.378-1.416,0-2.119,1.226-2.119,2.534A2.211,2.211,0,0,0,121.7.068Zm-1.431-2.856c.039-.83.459-1.558,1.353-1.558,1,0,1.353.776,1.372,1.558ZM126.3.1a1.521,1.521,0,0,0,1.675-1.489c0-1.792-2.632-1.2-2.632-2.324,0-.4.327-.674.854-.674a1.15,1.15,0,0,1,1.089.688l.537-.308a1.733,1.733,0,0,0-1.6-.972,1.392,1.392,0,0,0-1.548,1.353c0,1.655,2.593,1.011,2.593,2.324,0,.527-.405.806-.957.806a1.237,1.237,0,0,1-1.216-.928l-.615.317A1.893,1.893,0,0,0,126.3.1Zm4.668-.029a2.392,2.392,0,0,0,1.865-.762l-.5-.4a1.7,1.7,0,0,1-1.372.522,1.444,1.444,0,0,1-1.426-1.621h3.4c.01-.088.024-.249.024-.376,0-1.123-.488-2.378-2.07-2.378-1.416,0-2.119,1.226-2.119,2.534A2.211,2.211,0,0,0,130.972.068Zm-1.431-2.856c.039-.83.459-1.558,1.353-1.558,1,0,1.353.776,1.372,1.558ZM135.571.1a1.521,1.521,0,0,0,1.675-1.489c0-1.792-2.632-1.2-2.632-2.324,0-.4.327-.674.854-.674a1.15,1.15,0,0,1,1.089.688l.537-.308a1.733,1.733,0,0,0-1.6-.972,1.392,1.392,0,0,0-1.548,1.353c0,1.655,2.593,1.011,2.593,2.324,0,.527-.405.806-.957.806a1.237,1.237,0,0,1-1.216-.928l-.615.317A1.893,1.893,0,0,0,135.571.1ZM143,.1a2.4,2.4,0,0,0,2.324-2.549A2.383,2.383,0,0,0,143-4.98a2.361,2.361,0,0,0-2.3,2.529A2.376,2.376,0,0,0,143,.1Zm0-.605c-1.074,0-1.572-.957-1.572-1.943s.5-1.924,1.582-1.924,1.572.947,1.572,1.924S144.1-.508,143-.508Zm3.56.508h.718V-2.437c0-1.177.5-1.846,1.333-1.846a.888.888,0,0,1,.6.186l.308-.63a1.268,1.268,0,0,0-.786-.254,1.572,1.572,0,0,0-1.44.967v-.864h-.728Zm7.661.1a1.821,1.821,0,0,0,1.714-1.04l.015.942h.62V-2.993a1.8,1.8,0,0,0-1.909-1.987,2.164,2.164,0,0,0-1.841.957l.532.415a1.605,1.605,0,0,1,1.353-.737c.884,0,1.2.64,1.2,1.558H154.79c-1.387,0-2.148.454-2.148,1.431A1.43,1.43,0,0,0,154.224.1Zm.083-.615c-.508,0-.913-.239-.913-.82,0-.649.5-.9,1.465-.9H155.9A1.683,1.683,0,0,1,154.307-.518ZM159.443.1a1.521,1.521,0,0,0,1.675-1.489c0-1.792-2.632-1.2-2.632-2.324,0-.4.327-.674.854-.674a1.15,1.15,0,0,1,1.089.688l.537-.308a1.733,1.733,0,0,0-1.6-.972,1.392,1.392,0,0,0-1.548,1.353c0,1.655,2.593,1.011,2.593,2.324,0,.527-.405.806-.957.806a1.237,1.237,0,0,1-1.216-.928l-.615.317A1.893,1.893,0,0,0,159.443.1Zm2.842-6.06h.83V-6.9h-.83ZM162.339,0h.723V-4.878h-.723Zm5.5-6.9v2.686a1.746,1.746,0,0,0-1.528-.767c-1.245,0-1.953,1.143-1.953,2.539S165.068.1,166.318.1a1.734,1.734,0,0,0,1.528-.776l.015.679h.708V-6.9ZM166.5-.518c-.977,0-1.4-.928-1.4-1.924s.42-1.924,1.4-1.924c1,0,1.4.938,1.4,1.924S167.5-.518,166.5-.518Zm5.542.586a2.392,2.392,0,0,0,1.865-.762l-.5-.4a1.7,1.7,0,0,1-1.372.522,1.444,1.444,0,0,1-1.426-1.621h3.4c.01-.088.024-.249.024-.376,0-1.123-.488-2.378-2.07-2.378-1.416,0-2.119,1.226-2.119,2.534A2.211,2.211,0,0,0,172.046.068Zm-1.431-2.856c.039-.83.459-1.558,1.353-1.558,1,0,1.353.776,1.372,1.558ZM176.646.1a1.521,1.521,0,0,0,1.675-1.489c0-1.792-2.632-1.2-2.632-2.324,0-.4.327-.674.854-.674a1.15,1.15,0,0,1,1.089.688l.537-.308a1.733,1.733,0,0,0-1.6-.972,1.392,1.392,0,0,0-1.548,1.353c0,1.655,2.593,1.011,2.593,2.324,0,.527-.405.806-.957.806a1.237,1.237,0,0,1-1.216-.928l-.615.317A1.893,1.893,0,0,0,176.646.1Z" transform="translate(867.909 2685.722)"/>
      <path id="Rectangle_181" data-name="Rectangle 181" d="M-757-1935.42h9.882a5.3,5.3,0,0,1,5.559,5h0a5.3,5.3,0,0,1-5.559,5H-757a5.3,5.3,0,0,1-5.559-5h0A5.3,5.3,0,0,1-757-1935.42Z" transform="translate(1604.984 4596.142)" fill="#ffd93b"/>
    </g>
  </g>
</svg>
