<?xml version="1.0" encoding="utf-8"?>
<!-- Generator: Adobe Illustrator 25.1.0, SVG Export Plug-In . SVG Version: 6.00 Build 0)  -->
<svg version="1.1" id="Livello_1" xmlns="http://www.w3.org/2000/svg" xmlns:xlink="http://www.w3.org/1999/xlink" x="0px" y="0px"
	 viewBox="0 0 250 403" enable-background="new 0 0 250 403" xml:space="preserve">
<g>
	<defs>
		<rect id="SVGID_1_" y="0" width="250" height="403"/>
	</defs>
	<clipPath id="SVGID_2_">
		<use xlink:href="#SVGID_1_"  overflow="visible"/>
	</clipPath>
	<g id="info-01" clip-path="url(#SVGID_2_)">
		<line id="Line_192" fill="none" stroke="#999999" stroke-width="0.984" x1="70.875" y1="347.97699" x2="70.875" y2="389.315"/>
		<path id="Path_526" fill="none" stroke="#BBBBFF" stroke-width="1.5" stroke-linecap="round" stroke-dasharray="0.15,3" d="
			M53.11603,321.8999v14.08997H29.23901V321.8999"/>
		<path id="Path_527" fill="none" stroke="#BBBBFF" stroke-width="1.5" stroke-linecap="round" stroke-dasharray="0.15,3" d="
			M98.74701,321.8999v25.77502h-69.513V321.8999"/>
		<path id="Path_528" fill="none" stroke="#BBBBFF" stroke-width="1.5" stroke-linecap="round" stroke-dasharray="0.15,3" d="
			M130.229,321.8999v14.08997h-3.36102V321.8999"/>
		<path id="Path_529" fill="none" stroke="#BBBBFF" stroke-width="1.5" stroke-linecap="round" stroke-dasharray="0.15,3" d="
			M213.70801,321.8999v14.08997h-51.46698V321.8999"/>
		
			<line id="Line_174" opacity="0.5" fill="none" stroke="#000000" stroke-width="0.5" stroke-linecap="round" stroke-dasharray="2,4" enable-background="new    " x1="27.103" y1="312.63199" x2="246.65199" y2="312.63199"/>
		<g enable-background="new    ">
			<path d="M14.53857,307.02362c0.34668,0,0.64697,0.05176,0.90039,0.15527c0.25293,0.10254,0.46826,0.24414,0.64502,0.4248
				c0.17627,0.17969,0.31982,0.38965,0.42969,0.62988c0.11035,0.24023,0.19531,0.49512,0.25488,0.76465
				c0.06006,0.27051,0.1001,0.54883,0.12012,0.83496c0.02002,0.28711,0.03027,0.56738,0.03027,0.83984
				c0,0.4668-0.03369,0.91406-0.1001,1.34082c-0.06689,0.42676-0.18848,0.80273-0.36523,1.12988
				c-0.17676,0.32617-0.41846,0.58594-0.72461,0.7793c-0.30713,0.19336-0.70361,0.29004-1.19043,0.29004
				c-0.48633,0-0.88477-0.09668-1.19482-0.29004s-0.55322-0.45508-0.72998-0.78418
				c-0.17676-0.33008-0.29834-0.71387-0.36475-1.15039c-0.06689-0.43652-0.1001-0.89844-0.1001-1.38477
				c0-0.44727,0.02979-0.88379,0.08984-1.31055s0.1748-0.80762,0.34521-1.14453c0.16992-0.33691,0.41113-0.6084,0.72461-0.81543
				C13.62207,307.12714,14.03223,307.02362,14.53857,307.02362z M16.27881,310.6037c0-0.37988-0.02197-0.75195-0.06494-1.11523
				c-0.04346-0.36328-0.12842-0.68848-0.25488-0.97461c-0.12695-0.28711-0.30518-0.5166-0.53516-0.69043
				c-0.22998-0.17285-0.53174-0.25977-0.90527-0.25977c-0.35303,0-0.6416,0.08789-0.86475,0.26465
				c-0.22363,0.17676-0.39844,0.41211-0.5249,0.70508c-0.12695,0.29395-0.21533,0.62695-0.26514,1s-0.0752,0.75391-0.0752,1.13965
				c0,0.4541,0.02832,0.86523,0.08545,1.23535c0.05615,0.37012,0.15137,0.68457,0.28467,0.94531
				c0.1333,0.25977,0.31152,0.46191,0.53516,0.60449c0.22314,0.14355,0.50488,0.21484,0.84473,0.21484
				c0.38037,0,0.68506-0.09277,0.91504-0.2793s0.40527-0.42676,0.52539-0.7207c0.11963-0.29297,0.19971-0.62305,0.23975-0.98926
				C16.25879,311.31659,16.27881,310.95721,16.27881,310.6037z"/>
		</g>
		
			<line id="Line_175" opacity="0.5" fill="none" stroke="#000000" stroke-width="0.5" stroke-linecap="round" stroke-dasharray="2,4" enable-background="new    " x1="27.103" y1="284.61499" x2="250" y2="284.61499"/>
		<g enable-background="new    ">
			<path d="M14.77881,280.81659h-1.81982v-0.41992c0.2666-0.01953,0.5083-0.04688,0.72461-0.08008
				c0.2168-0.0332,0.40674-0.09668,0.57031-0.18945c0.16309-0.09375,0.2998-0.22852,0.40967-0.40527
				c0.11035-0.17676,0.19189-0.41504,0.24512-0.71484h0.51025v7.0498h-0.64014V280.81659z"/>
		</g>
		
			<line id="Line_176" opacity="0.5" fill="none" stroke="#000000" stroke-width="0.5" stroke-linecap="round" stroke-dasharray="2,4" enable-background="new    " x1="27.103" y1="256.59799" x2="246.65199" y2="256.59799"/>
		<g enable-background="new    ">
			<path d="M12.44873,253.29901c0-0.34668,0.05322-0.66113,0.16016-0.94434c0.10645-0.28418,0.25977-0.52734,0.45996-0.73047
				c0.19971-0.20312,0.44141-0.36035,0.7251-0.46973c0.2832-0.11035,0.59814-0.16504,0.94482-0.16504
				c0.35352,0,0.66504,0.05176,0.93506,0.15527c0.27002,0.10254,0.49658,0.24121,0.68018,0.41406
				c0.18311,0.17383,0.32129,0.38086,0.41455,0.62012c0.09375,0.24023,0.14014,0.49414,0.14014,0.76074
				c0,0.31348-0.05176,0.58984-0.15479,0.83008c-0.10352,0.23926-0.24023,0.45312-0.41016,0.63965s-0.36328,0.35352-0.58008,0.5
				s-0.43848,0.28516-0.66504,0.41504s-0.44971,0.25488-0.66992,0.375c-0.21973,0.12012-0.4165,0.24609-0.58984,0.37988
				c-0.11328,0.08691-0.22363,0.17871-0.33008,0.27539c-0.10693,0.09668-0.20361,0.20117-0.29004,0.31445
				c-0.08691,0.11328-0.15674,0.23828-0.20996,0.375s-0.0835,0.28809-0.08984,0.45508h3.92969v0.54004h-4.60986
				c0.00635-0.33984,0.04346-0.64648,0.10986-0.91992c0.06689-0.27344,0.21338-0.54004,0.43994-0.7998
				c0.24658-0.28027,0.50195-0.52051,0.76514-0.7207c0.26318-0.19922,0.52148-0.37793,0.7749-0.53418
				c0.25342-0.15723,0.49365-0.30078,0.72021-0.43066s0.42676-0.27148,0.6001-0.4248s0.31006-0.32617,0.40967-0.51953
				c0.1001-0.19336,0.15039-0.43066,0.15039-0.70996c0-0.22656-0.04004-0.43066-0.12012-0.61035s-0.18994-0.33301-0.33008-0.45996
				s-0.30322-0.22168-0.49023-0.28516c-0.18652-0.06348-0.38965-0.09473-0.60986-0.09473c-0.2334,0-0.44482,0.04785-0.63477,0.14453
				s-0.35352,0.22559-0.49023,0.38477c-0.13672,0.16016-0.2417,0.34766-0.31494,0.56055s-0.10352,0.43945-0.08984,0.67969H12.44873z
				"/>
		</g>
		
			<line id="Line_177" opacity="0.5" fill="none" stroke="#000000" stroke-width="0.5" stroke-linecap="round" stroke-dasharray="2,4" enable-background="new    " x1="27.103" y1="228.57899" x2="238.481" y2="228.57899"/>
		<g enable-background="new    ">
			<path d="M13.96875,226.09979c0.2998,0,0.57324-0.01855,0.81982-0.05469c0.24658-0.03711,0.4585-0.10742,0.63525-0.20996
				c0.17676-0.10352,0.31494-0.24219,0.41504-0.41504c0.1001-0.17383,0.1499-0.39648,0.1499-0.66992
				c0-0.2207-0.04004-0.40918-0.12012-0.56543s-0.18848-0.28516-0.32471-0.38477c-0.13672-0.10059-0.29688-0.17383-0.47998-0.2207
				c-0.18359-0.0459-0.375-0.06934-0.5752-0.06934c-0.22656,0-0.43164,0.03613-0.61475,0.10938
				c-0.18359,0.07422-0.3418,0.17871-0.4751,0.31543c-0.13379,0.13672-0.23682,0.29688-0.31006,0.47949
				c-0.07373,0.18359-0.10986,0.38574-0.10986,0.60547h-0.64014c0-0.32031,0.05469-0.6084,0.16504-0.86523
				c0.10986-0.25586,0.28125-0.49512,0.51465-0.71484c0.22021-0.2002,0.46875-0.32812,0.74512-0.38477
				c0.27686-0.05664,0.56152-0.08496,0.85498-0.08496c0.28027,0,0.5415,0.03516,0.78516,0.10449
				c0.24316,0.07031,0.45508,0.17676,0.63477,0.32031c0.18018,0.14355,0.32373,0.3252,0.43018,0.54492
				s0.16016,0.47656,0.16016,0.77051c0,0.36621-0.08203,0.68262-0.24512,0.94922c-0.16357,0.2666-0.41504,0.47363-0.75488,0.62012
				c0.25293,0.08008,0.46143,0.18555,0.625,0.31543c0.16309,0.12988,0.2915,0.27344,0.38477,0.42969
				c0.09326,0.15723,0.15674,0.32227,0.18994,0.49512c0.03369,0.17383,0.05029,0.33984,0.05029,0.5
				c0,0.29297-0.05029,0.56641-0.1499,0.82031c-0.1001,0.25293-0.24707,0.47656-0.44043,0.66992s-0.43164,0.34863-0.71484,0.46484
				s-0.60498,0.17773-0.96484,0.18457c-0.40674,0-0.76025-0.03613-1.06006-0.10938s-0.5498-0.19531-0.75-0.36523
				s-0.35693-0.39355-0.47021-0.66992s-0.18994-0.62207-0.22998-1.03516h0.64014c0,0.54004,0.16162,0.94824,0.48486,1.22461
				c0.32324,0.27734,0.74512,0.41504,1.26514,0.41504c0.25342,0,0.49023-0.04297,0.70996-0.12988
				c0.22021-0.08594,0.4082-0.20312,0.56494-0.34961s0.27686-0.31641,0.36035-0.50977
				c0.08301-0.19336,0.12109-0.39355,0.11475-0.60059c-0.01318-0.28613-0.08008-0.52441-0.2002-0.71484
				c-0.11963-0.18945-0.28174-0.33984-0.48486-0.4502c-0.20312-0.10938-0.44141-0.18262-0.71484-0.21973
				c-0.27344-0.03613-0.56348-0.04492-0.87012-0.02539V226.09979z"/>
		</g>
		
			<line id="Line_178" opacity="0.5" fill="none" stroke="#000000" stroke-width="0.5" stroke-linecap="round" stroke-dasharray="2,4" enable-background="new    " x1="27.103" y1="200.562" x2="246.65199" y2="200.562"/>
		<g enable-background="new    ">
			<path d="M15.33887,200.26288h-3.22021v-0.5498l3.28027-4.69043H15.979v4.7002h0.97998v0.54004H15.979v1.74023h-0.64014V200.26288
				z M12.74902,199.72284h2.58984v-3.73926L12.74902,199.72284z"/>
		</g>
		
			<line id="Line_179" opacity="0.5" fill="none" stroke="#000000" stroke-width="0.5" stroke-linecap="round" stroke-dasharray="2,4" enable-background="new    " x1="27.103" y1="172.54401" x2="246.65199" y2="172.54401"/>
		<g enable-background="new    ">
			<path d="M12.74902,172.15302c0.06641,0.48047,0.25781,0.83887,0.57471,1.0752c0.31641,0.23633,0.70508,0.35449,1.16504,0.35449
				c0.26025,0,0.49512-0.0459,0.70508-0.13965c0.20996-0.09277,0.38818-0.22168,0.53516-0.38477
				c0.14648-0.16309,0.2583-0.35352,0.33496-0.57031c0.07617-0.2168,0.11475-0.45117,0.11475-0.70508
				c0-0.25977-0.0415-0.5-0.125-0.71973s-0.19971-0.41016-0.3501-0.57031c-0.1499-0.16016-0.3335-0.2832-0.5498-0.37012
				c-0.2168-0.08594-0.4585-0.12988-0.7251-0.12988c-0.31982,0-0.60645,0.05859-0.85986,0.1748
				c-0.25342,0.11719-0.47656,0.30176-0.66992,0.55566l-0.53027-0.07031l0.57031-3.65039h3.5v0.54004H13.479l-0.44043,2.37012
				c0.14014-0.08594,0.26855-0.16016,0.38525-0.21973s0.23486-0.1084,0.35498-0.14453c0.12012-0.03711,0.24512-0.06152,0.375-0.0752
				s0.2749-0.02051,0.43506-0.02051c0.31982,0,0.6167,0.05371,0.89014,0.16016c0.27295,0.10645,0.50977,0.25977,0.70996,0.45996
				c0.19971,0.2002,0.35498,0.44531,0.46484,0.73535s0.16504,0.61523,0.16504,0.97461c0,0.37402-0.06201,0.70508-0.18506,0.99512
				c-0.12354,0.29004-0.28857,0.53516-0.49512,0.73535s-0.44482,0.35156-0.71484,0.45508
				c-0.27002,0.10254-0.54834,0.1543-0.83496,0.1543c-0.3335,0-0.64502-0.0332-0.93506-0.09961s-0.54492-0.17871-0.76514-0.33496
				c-0.21973-0.15625-0.39844-0.36035-0.53467-0.61035c-0.13672-0.25-0.21875-0.55762-0.24512-0.9248H12.74902z"/>
		</g>
		
			<line id="Line_180" opacity="0.5" fill="none" stroke="#000000" stroke-width="0.5" stroke-linecap="round" stroke-dasharray="2,4" enable-background="new    " x1="27.103" y1="144.526" x2="250" y2="144.526"/>
		<g enable-background="new    ">
			<path d="M16.12891,140.64569c-0.07373-0.35938-0.22021-0.64844-0.43994-0.86426c-0.22021-0.2168-0.52002-0.3252-0.90039-0.3252
				c-0.43311,0-0.7749,0.10352-1.0249,0.30957c-0.25,0.20703-0.44141,0.46875-0.57471,0.78516
				c-0.13379,0.31641-0.22363,0.66211-0.27002,1.03516c-0.04688,0.37305-0.0835,0.72656-0.11035,1.05957
				c0.1001-0.13281,0.20508-0.2666,0.31543-0.39941c0.10986-0.13379,0.23486-0.25195,0.375-0.35547
				c0.13965-0.10352,0.30322-0.18652,0.48975-0.25s0.41016-0.09473,0.66992-0.09473c0.71338,0,1.26514,0.20117,1.65527,0.60449
				c0.38965,0.4043,0.58496,0.95898,0.58496,1.66504c0,0.71387-0.19678,1.27344-0.59033,1.68066
				c-0.39307,0.40625-0.94971,0.60938-1.66992,0.60938c-0.35352,0-0.67969-0.05762-0.97998-0.1748
				c-0.2998-0.11621-0.56006-0.30859-0.77979-0.5752c-0.22021-0.2666-0.39355-0.61426-0.52002-1.04492
				c-0.12695-0.42969-0.18994-0.95508-0.18994-1.5752c0-0.41992,0.03662-0.85449,0.10986-1.30469s0.20508-0.86133,0.39502-1.23438
				c0.18994-0.37402,0.4502-0.68066,0.77979-0.9209c0.33008-0.23926,0.75537-0.35938,1.27539-0.35938
				c0.55957,0,1.02637,0.14648,1.3999,0.43945c0.37305,0.29395,0.59326,0.72363,0.65967,1.29004H16.12891z M14.63867,142.08612
				c-0.24658,0-0.46826,0.04688-0.66504,0.13965c-0.19678,0.09375-0.36328,0.2207-0.5,0.37988
				c-0.13672,0.16016-0.2417,0.3457-0.31494,0.55566s-0.10986,0.43457-0.10986,0.6748c0,0.2002,0.02832,0.40137,0.08496,0.60449
				c0.05664,0.2041,0.1499,0.38867,0.27979,0.55566c0.13037,0.16602,0.29541,0.30273,0.49512,0.41016
				c0.2002,0.10645,0.44678,0.15918,0.74023,0.15918c0.2998,0,0.55127-0.05078,0.75488-0.1543
				c0.20312-0.10352,0.36816-0.24023,0.49512-0.41016c0.12646-0.16992,0.21826-0.36035,0.2749-0.57031
				s0.08496-0.42188,0.08496-0.63477c0-0.54688-0.13184-0.96875-0.39502-1.26465
				C15.60059,142.23456,15.19189,142.08612,14.63867,142.08612z"/>
		</g>
		
			<line id="Line_181" opacity="0.5" fill="none" stroke="#000000" stroke-width="0.5" stroke-linecap="round" stroke-dasharray="2,4" enable-background="new    " x1="27.103" y1="116.508" x2="246.65199" y2="116.508"/>
		<g enable-background="new    ">
			<path d="M12.34863,110.96649h4.49023v0.60059c-0.50684,0.57324-0.93701,1.16113-1.29004,1.76465
				c-0.35352,0.60352-0.64355,1.19043-0.87012,1.75977c-0.22656,0.57031-0.39502,1.10254-0.50488,1.5957
				s-0.1748,0.91309-0.19482,1.25977h-0.7002c0.0332-0.50684,0.13477-1.04492,0.30518-1.61523
				c0.16992-0.56934,0.38135-1.13477,0.63477-1.69434c0.25342-0.56055,0.54004-1.10156,0.85986-1.625
				c0.32031-0.52344,0.65039-0.99219,0.99023-1.40527h-3.72021V110.96649z"/>
		</g>
		<rect id="Rectangle_741" x="161.35699" y="312.14499" fill="#FFE37D" width="14.149" height="9.754"/>
		<rect id="Rectangle_742" x="125.984" y="312.14499" fill="#FFE37D" width="1.238" height="9.754"/>
		
			<linearGradient id="Rectangle_743_1_" gradientUnits="userSpaceOnUse" x1="-159.49385" y1="592.67303" x2="-159.49385" y2="592.67401" gradientTransform="matrix(14.326 0 0 -37.773 2320.427 23593.54297)">
			<stop  offset="0" style="stop-color:#FFFCF0"/>
			<stop  offset="0.75" style="stop-color:#FFE37D"/>
		</linearGradient>
		<rect id="Rectangle_743" x="28.355" y="284.12701" fill="url(#Rectangle_743_1_)" width="14.326" height="37.773"/>
		<rect id="Rectangle_744" x="28.355" y="312.14499" fill="#FFE37D" width="14.326" height="9.754"/>
		<rect id="Rectangle_788" x="175.683" y="312.14499" fill="#D1D1F8" width="38.91" height="9.754"/>
		<rect id="Rectangle_789" x="127.399" y="312.14499" fill="#D1D1F8" width="3.714" height="9.754"/>
		
			<linearGradient id="Rectangle_790_1_" gradientUnits="userSpaceOnUse" x1="-167.70116" y1="592.67303" x2="-167.70116" y2="592.67401" gradientTransform="matrix(45.277 0 0 -37.773 7669.99805 23593.54297)">
			<stop  offset="0" style="stop-color:#F5F5FD"/>
			<stop  offset="0.75" style="stop-color:#D1D1F8"/>
		</linearGradient>
		<rect id="Rectangle_790" x="54.354" y="284.12701" fill="url(#Rectangle_790_1_)" width="45.277" height="37.773"/>
		<rect id="Rectangle_791" x="43.034" y="312.14499" fill="#D1D1F8" width="10.966" height="9.754"/>
		<g enable-background="new    ">
			<path d="M195.89258,303.40839c-0.17188,0.13477-0.35059,0.24609-0.52246,0.31152
				c-0.49316,0.18945-0.95703,0.05078-1.20703-0.59961l-0.91211-2.38184l-0.61328,0.23535l-0.16504-0.43262l0.6123-0.23438
				l-0.39453-1.03027l0.36523-0.58594l0.54395,1.41797l0.88867-0.33984l0.16602,0.43164l-0.88867,0.34082l0.8877,2.31543
				c0.13672,0.3584,0.36426,0.45898,0.65527,0.34766c0.12695-0.04883,0.25684-0.13281,0.40234-0.24805L195.89258,303.40839z"/>
			<path d="M197.92969,296.70135l1.99512,5.2041l-0.51562,0.19727l-0.18848-0.49219c-0.1377,0.44629-0.46777,0.8125-1.00488,1.01953
				c-1.0752,0.41211-1.94434-0.17969-2.36523-1.27734c-0.44043-1.15039-0.11719-2.13867,0.90625-2.53125
				c0.52148-0.19922,1.01758-0.15918,1.43066,0.09375l-0.77246-2.01562L197.92969,296.70135z M198.74805,300.24237
				c-0.33496-0.87402-1.00293-1.27734-1.74316-0.99414c-0.74609,0.28613-0.97363,1.0332-0.63867,1.90723
				c0.32031,0.83594,0.96484,1.29102,1.74902,0.99023C198.8916,301.84784,199.06836,301.07831,198.74805,300.24237z"/>
			<path d="M203.38379,294.61151l1.99414,5.2041l-0.51465,0.19727l-1.47949-3.85938l-1.29883,0.49707l-0.19531-0.50781
				l0.86719-0.33203c0.26074-0.09961,0.39844-0.25488,0.28027-0.56152l-0.16895-0.44043L203.38379,294.61151z"/>
			<path d="M206.4082,296.44159c-0.47559-1.23926-0.7666-2.78125,0.58496-3.2998c1.23145-0.47168,2.1416,0.62695,2.6875,2.05273
				c0.54688,1.42578,0.60352,2.82617-0.58301,3.28125C207.70898,299.008,206.88281,297.68085,206.4082,296.44159z
				 M209.12598,295.3996c-0.46094-1.20215-1.07031-2.09961-1.94434-1.76465c-0.91016,0.34961-0.67285,1.4834-0.24316,2.60352
				c0.41992,1.09668,1.00781,2.11426,1.95508,1.75098C209.7373,297.66522,209.57715,296.57831,209.12598,295.3996z"/>
		</g>
		<g enable-background="new    ">
			<path d="M130.01074,303.40546c-0.17188,0.13477-0.35059,0.24609-0.52246,0.3125c-0.49316,0.18848-0.95703,0.0498-1.20703-0.60059
				l-0.91211-2.38184l-0.61328,0.23438l-0.16504-0.43164l0.6123-0.23438l-0.39453-1.03027l0.36523-0.58691l0.54395,1.41992
				l0.88867-0.34082l0.16602,0.43164l-0.88867,0.34082l0.8877,2.31543c0.13672,0.3584,0.36426,0.45996,0.65527,0.34766
				c0.12695-0.04785,0.25684-0.13281,0.40234-0.24805L130.01074,303.40546z"/>
			<path d="M132.04785,296.69843l1.99512,5.2041l-0.51562,0.19824l-0.18848-0.49219c-0.1377,0.44531-0.46777,0.8125-1.00488,1.01758
				c-1.0752,0.41211-1.94434-0.17969-2.36523-1.27637c-0.44043-1.14941-0.11719-2.13867,0.90625-2.53027
				c0.52148-0.20117,1.01758-0.16016,1.43066,0.09277l-0.77246-2.0166L132.04785,296.69843z M132.86621,300.23944
				c-0.33496-0.87402-1.00293-1.27734-1.74316-0.99414c-0.74609,0.28613-0.97363,1.0332-0.63867,1.90723
				c0.32031,0.83594,0.96484,1.29004,1.74902,0.99023C133.00977,301.84491,133.18652,301.07538,132.86621,300.23944z"/>
			<path d="M139.29004,295.83221c0.12305,0.32129,0.14746,0.69824,0.08594,1.0293l-0.56543,3.21387l-0.58301,0.22363
				l0.45215-2.41699c-0.23242,0.19922-0.53906,0.37891-0.88379,0.44141c-0.83887,0.15918-1.72168-0.29102-2.04199-1.12695
				c-0.36328-0.94727,0.12695-2.03516,1.10547-2.41016C137.83008,294.41522,138.92578,294.88397,139.29004,295.83221z
				 M138.77051,296.04022c-0.26074-0.67969-1.02832-1.02734-1.72266-0.76172c-0.68652,0.26367-1.03223,1.03809-0.77148,1.71777
				s1.03223,1.0166,1.71875,0.75391C138.68262,297.48651,139.03027,296.71991,138.77051,296.04022z"/>
		</g>
		<g enable-background="new    ">
			<path d="M77.74707,275.38983c-0.17188,0.13477-0.35059,0.24609-0.52246,0.31152c-0.49316,0.18848-0.95703,0.0498-1.20703-0.60059
				l-0.91211-2.38086l-0.61328,0.23438l-0.16504-0.43164l0.6123-0.23438l-0.39453-1.03125l0.36523-0.58594l0.54395,1.41895
				l0.88867-0.34082l0.16602,0.43164l-0.88867,0.3418l0.8877,2.31445c0.13672,0.35938,0.36426,0.45996,0.65527,0.34766
				c0.12695-0.04785,0.25684-0.13281,0.40234-0.24805L77.74707,275.38983z"/>
			<path d="M79.78418,268.6828l1.99512,5.20312l-0.51562,0.19824l-0.18848-0.49219c-0.1377,0.44629-0.46777,0.8125-1.00488,1.01855
				c-1.0752,0.41211-1.94434-0.17969-2.36523-1.27734c-0.44043-1.14941-0.11719-2.13867,0.90625-2.53027
				c0.52148-0.2002,1.01758-0.15918,1.43066,0.09277l-0.77246-2.01562L79.78418,268.6828z M80.60254,272.22382
				c-0.33496-0.875-1.00293-1.27734-1.74316-0.99414c-0.74609,0.28516-0.97363,1.0332-0.63867,1.90625
				c0.32031,0.83594,0.96484,1.29102,1.74902,0.99023C80.74609,273.82928,80.92285,273.05975,80.60254,272.22382z"/>
			<path d="M84.29492,271.23553c-0.25195-0.65625-0.07812-1.29688,0.4502-1.73047c-0.48828-0.04492-0.91406-0.35156-1.11133-0.86719
				c-0.31738-0.82812,0.2373-1.58984,0.97754-1.87305c0.79883-0.30664,1.66211-0.03906,1.97461,0.77539
				c0.19434,0.50781,0.06641,1.01953-0.25879,1.35742c0.6748-0.02734,1.22754,0.34375,1.47656,0.99219
				c0.39258,1.02344-0.27148,1.86133-1.16016,2.20117C85.75586,272.43085,84.6875,272.25897,84.29492,271.23553z
				 M86.09277,267.77167c-0.19727-0.51465-0.7334-0.72949-1.29297-0.51465c-0.51562,0.19727-0.84082,0.69043-0.63379,1.22852
				c0.21973,0.57422,0.75195,0.78125,1.32031,0.56348C86.04688,268.83514,86.30469,268.3244,86.09277,267.77167z
				 M87.28223,270.04803c-0.26074-0.67969-0.94141-0.91602-1.66602-0.6377c-0.73145,0.28027-1.08105,0.91113-0.82031,1.59082
				c0.27441,0.7168,0.99512,0.85156,1.65918,0.59668C87.11133,271.34589,87.55664,270.76483,87.28223,270.04803z"/>
		</g>
		<g enable-background="new    ">
			<path d="M49.27148,303.40741c-0.17188,0.13477-0.35059,0.24609-0.52246,0.3125c-0.49316,0.18848-0.95703,0.0498-1.20703-0.60059
				l-0.91211-2.38184l-0.61328,0.23438l-0.16504-0.43164l0.6123-0.23438l-0.39453-1.03027l0.36523-0.58691l0.54395,1.41992
				l0.88867-0.34082l0.16602,0.43164l-0.88867,0.34082l0.8877,2.31543c0.13672,0.3584,0.36426,0.45996,0.65527,0.34766
				c0.12695-0.04785,0.25684-0.13281,0.40234-0.24805L49.27148,303.40741z"/>
			<path d="M51.30859,296.70038l1.99512,5.2041l-0.51562,0.19824l-0.18848-0.49219c-0.1377,0.44531-0.46777,0.8125-1.00488,1.01758
				c-1.0752,0.41211-1.94434-0.17969-2.36523-1.27637c-0.44043-1.14941-0.11719-2.13867,0.90625-2.53027
				c0.52148-0.20117,1.01758-0.16016,1.43066,0.09277l-0.77246-2.0166L51.30859,296.70038z M52.12695,300.24139
				c-0.33496-0.87402-1.00293-1.27734-1.74316-0.99414c-0.74609,0.28613-0.97363,1.0332-0.63867,1.90723
				c0.32031,0.83594,0.96484,1.29004,1.74902,0.99023C52.27051,301.84686,52.44727,301.07733,52.12695,300.24139z"/>
			<path d="M57.99414,294.13788l0.12305,0.32129l-0.66602,5.85645l-0.58301,0.22266l0.68066-5.66309l-3.09082,1.18457
				l-0.18945-0.49414L57.99414,294.13788z"/>
		</g>
		<g enable-background="new    ">
			<path d="M13.61328,370.14667v3.01855h-0.68945v-2.84863c0-1.05957-0.33984-1.54883-1.07959-1.54883
				c-0.92969,0-1.46924,0.7998-1.46924,2.18848v2.20898H9.68555v-4.92773H10.375v0.71973
				c0.31982-0.49902,0.91943-0.79883,1.62891-0.79883C13.06348,368.15839,13.61328,368.83807,13.61328,370.14667z"/>
			<path d="M14.88525,370.69647c0-1.45898,0.94971-2.53809,2.35889-2.53809c1.39941,0,2.36865,1.0791,2.36865,2.53809
				c0,1.44922-0.95947,2.54883-2.36865,2.54883S14.88525,372.15546,14.88525,370.69647z M18.92334,370.69647
				c0-1.11914-0.62988-1.92871-1.6792-1.92871c-1.05957,0-1.66895,0.81934-1.66895,1.92871
				c0,1.11914,0.61963,1.93945,1.66895,1.93945C18.30371,372.63593,18.92334,371.79608,18.92334,370.69647z"/>
			<path d="M24.93311,370.14667v3.01855h-0.68945v-2.84863c0-1.05957-0.33984-1.54883-1.07959-1.54883
				c-0.92969,0-1.46924,0.7998-1.46924,2.18848v2.20898h-0.68945v-4.92773h0.68945v0.71973
				c0.31982-0.49902,0.91943-0.79883,1.62891-0.79883C24.3833,368.15839,24.93311,368.83807,24.93311,370.14667z"/>
			<path d="M33.2627,370.8869h-3.60791c0.02002,1.0791,0.61963,1.72852,1.58936,1.72852c0.53955,0,0.96924-0.13965,1.41895-0.61914
				l0.47998,0.41895c-0.57959,0.61035-1.14941,0.83008-1.90918,0.83008c-1.49902,0-2.26855-1.11914-2.26855-2.51855
				c0-1.38965,0.75977-2.56836,2.18896-2.56836c1.50879,0,2.13867,1.17871,2.13867,2.29785
				C33.29297,370.59686,33.28271,370.76678,33.2627,370.8869z M30.89404,367.60858l-1.23926-1.40918h0.73975l1.03955,1.40918
				H30.89404z M29.65479,370.30682h2.97852c0-0.02051-0.01025-0.07031-0.01025-0.16016
				c-0.0498-0.7998-0.55957-1.40918-1.46875-1.40918C30.26465,368.73749,29.71484,369.43768,29.65479,370.30682z"/>
			<path d="M41.92236,370.69647c0,1.46973-0.74951,2.54883-2.18896,2.54883c-0.71924,0-1.26904-0.28027-1.62891-0.73926v2.69824
				h-0.68945v-6.9668h0.68945v0.66016c0.36963-0.47949,0.92969-0.75,1.62891-0.75
				C41.10303,368.14764,41.92236,369.15741,41.92236,370.69647z M41.23291,370.69647c0-1.16895-0.59961-1.93848-1.59912-1.93848
				c-0.98975,0-1.58936,0.76953-1.58936,1.93848c0,1.11914,0.5498,1.93945,1.58936,1.93945
				C40.68311,372.63593,41.23291,371.81561,41.23291,370.69647z"/>
			<path d="M47.25244,370.8869h-3.60791c0.02002,1.0791,0.61963,1.72852,1.58936,1.72852c0.53955,0,0.96924-0.13965,1.41895-0.61914
				l0.47998,0.41895c-0.57959,0.61035-1.14941,0.83008-1.90918,0.83008c-1.49902,0-2.26855-1.11914-2.26855-2.51855
				c0-1.38965,0.75977-2.56836,2.18896-2.56836c1.50879,0,2.13867,1.17871,2.13867,2.29785
				C47.28271,370.59686,47.27246,370.76678,47.25244,370.8869z M43.64453,370.30682h2.97852
				c0-0.02051-0.01025-0.07031-0.01025-0.16016c-0.0498-0.7998-0.55957-1.40918-1.46875-1.40918
				C44.25439,368.73749,43.70459,369.43768,43.64453,370.30682z"/>
			<path d="M51.67285,368.36835l-0.33984,0.55957c-0.22949-0.10059-0.43945-0.15039-0.64941-0.15039
				c-0.75977,0-1.31934,0.56934-1.31934,1.63965v2.74805H48.6748v-4.92773h0.68945v0.74023
				c0.35986-0.64941,0.95947-0.81934,1.45898-0.81934C51.12354,368.15839,51.40332,368.21796,51.67285,368.36835z"/>
			<path d="M51.83496,370.71698c0-1.2998,0.72998-2.55859,2.21924-2.55859c0.87939,0,1.60889,0.43945,1.99854,1.3584
				l-0.65967,0.26074c-0.22949-0.62988-0.71924-1.00977-1.33887-1.00977c-1.0498,0-1.51953,0.93945-1.51953,1.94922
				c0,1.00879,0.46973,1.91895,1.5293,1.91895c0.61963,0,1.10938-0.37012,1.29932-1l0.63965,0.24023
				c-0.33008,0.89941-1.04932,1.36914-1.93896,1.36914C52.63477,373.2453,51.83496,372.08612,51.83496,370.71698z"/>
			<path d="M61.25244,370.14667v3.01855h-0.68945v-2.84863c0-1.06934-0.33984-1.54883-1.07959-1.54883
				c-0.93945,0-1.46924,0.76953-1.46924,2.12891v2.26855h-0.68945v-6.96582h0.68945v2.75781
				c0.31982-0.49902,0.91943-0.79883,1.62891-0.79883C60.70264,368.15839,61.25244,368.83807,61.25244,370.14667z"/>
			<path d="M66.85205,370.8869h-3.60791c0.02002,1.0791,0.61963,1.72852,1.58936,1.72852c0.53955,0,0.96924-0.13965,1.41895-0.61914
				l0.47998,0.41895c-0.57959,0.61035-1.14941,0.83008-1.90918,0.83008c-1.49902,0-2.26855-1.11914-2.26855-2.51855
				c0-1.38965,0.75977-2.56836,2.18896-2.56836c1.50879,0,2.13867,1.17871,2.13867,2.29785
				C66.88232,370.59686,66.87207,370.76678,66.85205,370.8869z M63.24414,370.30682h2.97852
				c0-0.02051-0.01025-0.07031-0.01025-0.16016c-0.0498-0.7998-0.55957-1.40918-1.46875-1.40918
				C63.854,368.73749,63.3042,369.43768,63.24414,370.30682z M65.02344,367.60858h-0.52979l1.0791-1.40918h0.73975
				L65.02344,367.60858z"/>
		</g>
		<g enable-background="new    ">
			<path d="M57.53418,394.92792v3.07812h-0.68994v-2.88867c0-0.41992,0-1.50879-1.0791-1.50879
				c-0.99951,0-1.26953,0.91895-1.26953,2.02832v2.36914h-0.68945v-2.84863c0-0.81934-0.25-1.54883-1.10938-1.54883
				c-0.95947,0-1.22949,0.90918-1.22949,2.02832v2.36914h-0.68945l-0.01025-4.92773h0.66992v0.60059
				c0.30957-0.49023,0.80957-0.67969,1.35889-0.67969c0.68994,0,1.19971,0.2998,1.44922,0.94922
				c0.31982-0.62988,0.86963-0.94922,1.61914-0.94922C57.04443,392.99921,57.53418,393.7785,57.53418,394.92792z"/>
			<path d="M62.90576,394.93768v3.06836h-0.62988l-0.04004-0.75977c-0.38965,0.5498-0.98926,0.83984-1.76904,0.83984
				c-1.06934,0-1.69873-0.55957-1.69873-1.50977c0-0.49902,0.19971-0.87891,0.55957-1.09863
				c0.37988-0.21973,0.90967-0.31055,1.87891-0.31055h1.00928v-0.22949c0-0.85938-0.44971-1.3291-1.2793-1.3291
				c-0.61963,0-1.09912,0.26953-1.49902,0.81934l-0.49951-0.41992c0.5293-0.68945,1.16895-1.00879,2.00879-1.00879
				C62.18604,392.99921,62.90576,393.70819,62.90576,394.93768z M62.21582,395.79706v-0.06934H61.2666
				c-0.90967,0-1.29932,0.05957-1.53906,0.24902c-0.18018,0.14062-0.27002,0.36035-0.27002,0.63965
				c0,0.5498,0.46973,0.90039,1.20947,0.90039C61.61621,397.51678,62.21582,396.84686,62.21582,395.79706z"/>
			<path d="M71.82471,395.53729c0,1.46973-0.74951,2.54883-2.18896,2.54883c-0.71924,0-1.26904-0.28027-1.62891-0.73926v2.69824
				h-0.68945v-6.9668h0.68945v0.66016c0.36963-0.47949,0.92969-0.75,1.62891-0.75
				C71.00537,392.98846,71.82471,393.99823,71.82471,395.53729z M71.13525,395.53729c0-1.16895-0.59961-1.93848-1.59912-1.93848
				c-0.98975,0-1.58936,0.76953-1.58936,1.93848c0,1.11914,0.5498,1.93945,1.58936,1.93945
				C70.58545,397.47675,71.13525,396.65643,71.13525,395.53729z"/>
			<path d="M77.15479,395.72772h-3.60791c0.02002,1.0791,0.61963,1.72852,1.58936,1.72852
				c0.53955,0,0.96924-0.13965,1.41895-0.61914l0.47998,0.41895c-0.57959,0.61035-1.14941,0.83008-1.90918,0.83008
				c-1.49902,0-2.26855-1.11914-2.26855-2.51855c0-1.38965,0.75977-2.56836,2.18896-2.56836
				c1.50879,0,2.13867,1.17871,2.13867,2.29785C77.18506,395.43768,77.1748,395.6076,77.15479,395.72772z M73.54688,395.14764
				h2.97852c0-0.02051-0.01025-0.07031-0.01025-0.16016c-0.0498-0.7998-0.55957-1.40918-1.46875-1.40918
				C74.15674,393.57831,73.60693,394.2785,73.54688,395.14764z"/>
			<path d="M81.57568,393.20917l-0.33984,0.55957c-0.22949-0.10059-0.43945-0.15039-0.64941-0.15039
				c-0.75977,0-1.31934,0.56934-1.31934,1.63965v2.74805h-0.68945v-4.92773h0.68945v0.74023
				c0.35986-0.64941,0.95947-0.81934,1.45898-0.81934C81.02637,392.99921,81.30615,393.05878,81.57568,393.20917z"/>
			<path d="M81.7373,395.5578c0-1.2998,0.72998-2.55859,2.21875-2.55859c0.87988,0,1.60938,0.43945,1.99902,1.3584l-0.65967,0.26074
				c-0.22949-0.62988-0.71924-1.00977-1.33936-1.00977c-1.04932,0-1.51904,0.93945-1.51904,1.94922
				c0,1.00879,0.46973,1.91895,1.5293,1.91895c0.61963,0,1.10938-0.37012,1.29932-1l0.63965,0.24023
				c-0.33008,0.89941-1.04932,1.36914-1.93896,1.36914C82.53711,398.08612,81.7373,396.92694,81.7373,395.5578z"/>
			<path d="M91.15527,394.98749v3.01855h-0.68945v-2.84863c0-1.06934-0.33984-1.54883-1.07959-1.54883
				c-0.93945,0-1.46924,0.76953-1.46924,2.12891v2.26855h-0.68945v-6.96582h0.68945v2.75781
				c0.31982-0.49902,0.91943-0.79883,1.62891-0.79883C90.60547,392.99921,91.15527,393.67889,91.15527,394.98749z"/>
			<path d="M96.75488,395.72772h-3.60791c0.02002,1.0791,0.61963,1.72852,1.58936,1.72852
				c0.53955,0,0.96924-0.13965,1.41895-0.61914l0.47998,0.41895c-0.57959,0.61035-1.14941,0.83008-1.90918,0.83008
				c-1.49902,0-2.26855-1.11914-2.26855-2.51855c0-1.38965,0.75977-2.56836,2.18896-2.56836
				c1.50879,0,2.13867,1.17871,2.13867,2.29785C96.78516,395.43768,96.7749,395.6076,96.75488,395.72772z M93.14697,395.14764
				h2.97852c0-0.02051-0.01025-0.07031-0.01025-0.16016c-0.0498-0.7998-0.55957-1.40918-1.46875-1.40918
				C93.75684,393.57831,93.20703,394.2785,93.14697,395.14764z M94.92627,392.4494h-0.52979l1.0791-1.40918h0.73975
				L94.92627,392.4494z"/>
		</g>
		<g enable-background="new    ">
			<path d="M113.34961,369.69647c0-1.45898,0.94971-2.53809,2.35889-2.53809c1.39941,0,2.36865,1.0791,2.36865,2.53809
				c0,1.44922-0.95947,2.54883-2.36865,2.54883S113.34961,371.15546,113.34961,369.69647z M117.3877,369.69647
				c0-1.11914-0.62988-1.92871-1.6792-1.92871c-1.05957,0-1.66895,0.81934-1.66895,1.92871
				c0,1.11914,0.61963,1.93945,1.66895,1.93945C116.76807,371.63593,117.3877,370.79608,117.3877,369.69647z"/>
			<path d="M128.95605,369.0871v3.07812h-0.69043v-2.88867c0-0.41992,0-1.50879-1.0791-1.50879
				c-0.99902,0-1.26904,0.91895-1.26904,2.02832v2.36914h-0.68945v-2.84863c0-0.81934-0.25-1.54883-1.10938-1.54883
				c-0.95947,0-1.22949,0.90918-1.22949,2.02832v2.36914h-0.68945l-0.01025-4.92773h0.66992v0.60059
				c0.30957-0.49023,0.80957-0.67969,1.35889-0.67969c0.68994,0,1.19971,0.2998,1.44922,0.94922
				c0.31982-0.62988,0.86963-0.94922,1.61865-0.94922C128.46582,367.15839,128.95605,367.93768,128.95605,369.0871z"/>
			<path d="M134.32715,369.09686v3.06836h-0.62988l-0.04004-0.75977c-0.38965,0.5498-0.98926,0.83984-1.76855,0.83984
				c-1.06934,0-1.69922-0.55957-1.69922-1.50977c0-0.49902,0.2002-0.87891,0.55957-1.09863
				c0.37988-0.21973,0.91016-0.31055,1.87891-0.31055h1.00977v-0.22949c0-0.85938-0.4502-1.3291-1.2793-1.3291
				c-0.62012,0-1.09961,0.26953-1.49902,0.81934l-0.5-0.41992c0.5293-0.68945,1.16895-1.00879,2.00879-1.00879
				C133.60742,367.15839,134.32715,367.86737,134.32715,369.09686z M133.6377,369.95624v-0.06934h-0.94922
				c-0.91016,0-1.2998,0.05957-1.53906,0.24902c-0.18066,0.14062-0.27051,0.36035-0.27051,0.63965
				c0,0.5498,0.46973,0.90039,1.20996,0.90039C133.03809,371.67596,133.6377,371.00604,133.6377,369.95624z"/>
			<path d="M139.84668,372.92499c0,0.92969-0.86914,1.35938-2.1084,1.35938c-1.36914,0-2.19922-0.54004-2.19922-1.51953
				c0-0.09961,0.00977-0.16016,0.02051-0.21973l0.79883-0.67969c-0.37988-0.16992-0.63965-0.4502-0.63965-0.93945
				c0-0.39941,0.18066-0.69922,0.53027-0.93945c-0.25977-0.2998-0.41992-0.67969-0.41992-1.11914
				c0-1,0.81934-1.70898,1.87891-1.70898c0.47949,0,0.90918,0.14941,1.22949,0.39941l0.67969-0.58984l0.35938,0.4502
				l-0.66992,0.55957c0.16992,0.26953,0.27051,0.5791,0.27051,0.92969c0,1.00879-0.81934,1.67871-1.85938,1.67871
				c-0.37988,0-0.72949-0.08984-1.01953-0.25c-0.19922,0.11035-0.31934,0.29004-0.31934,0.5c0,0.5,0.61914,0.61914,1.3291,0.72949
				C138.6875,371.71503,139.84668,371.85565,139.84668,372.92499z M139.15723,372.98456c0-0.59961-0.7793-0.68945-1.59961-0.81934
				c-0.21973-0.03027-0.44922-0.07031-0.65918-0.12012l-0.66992,0.64941c-0.00977,0.05078-0.00977,0.07031-0.00977,0.09082
				c0,0.69922,0.70996,0.91895,1.54883,0.91895C138.6377,373.70428,139.15723,373.46405,139.15723,372.98456z M136.50879,368.8869
				c0,0.63965,0.45996,1.12988,1.19922,1.12988s1.17969-0.48047,1.17969-1.12988c0-0.67969-0.45996-1.14941-1.16992-1.14941
				C137.01855,367.73749,136.50879,368.20721,136.50879,368.8869z"/>
			<path d="M144.83691,369.09686v3.06836h-0.62988l-0.04004-0.75977c-0.38965,0.5498-0.98926,0.83984-1.76855,0.83984
				c-1.06934,0-1.69922-0.55957-1.69922-1.50977c0-0.49902,0.2002-0.87891,0.55957-1.09863
				c0.37988-0.21973,0.91016-0.31055,1.87891-0.31055h1.00977v-0.22949c0-0.85938-0.4502-1.3291-1.2793-1.3291
				c-0.62012,0-1.09961,0.26953-1.49902,0.81934l-0.5-0.41992c0.5293-0.68945,1.16895-1.00879,2.00879-1.00879
				C144.11719,367.15839,144.83691,367.86737,144.83691,369.09686z M144.14746,369.95624v-0.06934h-0.94922
				c-0.91016,0-1.2998,0.05957-1.53906,0.24902c-0.18066,0.14062-0.27051,0.36035-0.27051,0.63965
				c0,0.5498,0.46973,0.90039,1.20996,0.90039C143.54785,371.67596,144.14746,371.00604,144.14746,369.95624z"/>
			<path d="M149.51758,367.36835l-0.33984,0.55957c-0.22949-0.10059-0.43945-0.15039-0.64941-0.15039
				c-0.75977,0-1.31934,0.56934-1.31934,1.63965v2.74805h-0.68945v-4.92773h0.68945v0.74023
				c0.35938-0.64941,0.95898-0.81934,1.45898-0.81934C148.96777,367.15839,149.24805,367.21796,149.51758,367.36835z"/>
			<path d="M150.47852,365.1994h0.7998v1.01953h-0.7998V365.1994z M150.53906,367.23749h0.68945v4.92773h-0.68945V367.23749z"/>
		</g>
		<g enable-background="new    ">
			<path d="M172.10059,369.09686v3.06836h-0.62988l-0.04004-0.75977c-0.38965,0.5498-0.98926,0.83984-1.76855,0.83984
				c-1.06934,0-1.69922-0.55957-1.69922-1.50977c0-0.49902,0.2002-0.87891,0.55957-1.09863
				c0.37988-0.21973,0.91016-0.31055,1.87891-0.31055h1.00977v-0.22949c0-0.85938-0.4502-1.3291-1.2793-1.3291
				c-0.62012,0-1.09961,0.26953-1.49902,0.81934l-0.5-0.41992c0.5293-0.68945,1.16895-1.00879,2.00879-1.00879
				C171.38086,367.15839,172.10059,367.86737,172.10059,369.09686z M171.41113,369.95624v-0.06934h-0.94922
				c-0.91016,0-1.2998,0.05957-1.53906,0.24902c-0.18066,0.14062-0.27051,0.36035-0.27051,0.63965
				c0,0.5498,0.46973,0.90039,1.20996,0.90039C170.81152,371.67596,171.41113,371.00604,171.41113,369.95624z"/>
			<path d="M180.53906,369.0871v3.07812h-0.68945v-2.88867c0-0.41992,0-1.50879-1.0791-1.50879
				c-1,0-1.26953,0.91895-1.26953,2.02832v2.36914h-0.68945v-2.84863c0-0.81934-0.25-1.54883-1.10938-1.54883
				c-0.95996,0-1.22949,0.90918-1.22949,2.02832v2.36914h-0.68945l-0.01074-4.92773h0.66992v0.60059
				c0.30957-0.49023,0.80957-0.67969,1.35938-0.67969c0.68945,0,1.19922,0.2998,1.44922,0.94922
				c0.31934-0.62988,0.86914-0.94922,1.61914-0.94922C180.0498,367.15839,180.53906,367.93768,180.53906,369.0871z"/>
			<path d="M188.99902,369.0871v3.07812h-0.69043v-2.88867c0-0.41992,0-1.50879-1.0791-1.50879
				c-0.99902,0-1.26953,0.91895-1.26953,2.02832v2.36914h-0.68945v-2.84863c0-0.81934-0.25-1.54883-1.10938-1.54883
				c-0.95898,0-1.22949,0.90918-1.22949,2.02832v2.36914h-0.68945l-0.00977-4.92773h0.66992v0.60059
				c0.30957-0.49023,0.80957-0.67969,1.3584-0.67969c0.69043,0,1.2002,0.2998,1.44922,0.94922
				c0.32031-0.62988,0.87012-0.94922,1.61914-0.94922C188.50879,367.15839,188.99902,367.93768,188.99902,369.0871z"/>
			<path d="M194.59961,369.8869h-3.60742c0.01953,1.0791,0.61914,1.72852,1.58887,1.72852
				c0.54004,0,0.96973-0.13965,1.41895-0.61914l0.48047,0.41895c-0.58008,0.61035-1.14941,0.83008-1.90918,0.83008
				c-1.49902,0-2.26855-1.11914-2.26855-2.51855c0-1.38965,0.75977-2.56836,2.18848-2.56836
				c1.50879,0,2.13867,1.17871,2.13867,2.29785C194.62988,369.59686,194.62012,369.76678,194.59961,369.8869z M190.99219,369.30682
				h2.97852c0-0.02051-0.01074-0.07031-0.01074-0.16016c-0.0498-0.7998-0.55957-1.40918-1.46875-1.40918
				C191.60156,367.73749,191.05176,368.43768,190.99219,369.30682z"/>
			<path d="M195.49316,370.95624l0.5791-0.25977c0.17969,0.50977,0.66016,0.93945,1.42969,0.93945
				c0.66895,0,1.09961-0.33008,1.09961-0.84961c0-1.30957-2.83887-0.49023-2.83887-2.23926
				c0-0.85938,0.69922-1.38867,1.68945-1.38867c0.78906,0,1.42871,0.3291,1.76855,1.0293l-0.5498,0.2998
				c-0.23926-0.44043-0.62988-0.71973-1.23926-0.71973s-0.99902,0.25-0.99902,0.67969c0,1.16895,2.84766,0.42969,2.84766,2.29883
				c0,0.99902-0.81934,1.49902-1.76855,1.49902C196.54199,372.2453,195.75293,371.7453,195.49316,370.95624z"/>
			<path d="M200.15234,370.95624l0.58008-0.25977c0.17969,0.50977,0.65918,0.93945,1.42871,0.93945
				c0.66992,0,1.09961-0.33008,1.09961-0.84961c0-1.30957-2.83887-0.49023-2.83887-2.23926
				c0-0.85938,0.7002-1.38867,1.68945-1.38867c0.79004,0,1.42969,0.3291,1.76953,1.0293l-0.5498,0.2998
				c-0.24023-0.44043-0.62988-0.71973-1.23926-0.71973c-0.61035,0-1,0.25-1,0.67969c0,1.16895,2.84863,0.42969,2.84863,2.29883
				c0,0.99902-0.81934,1.49902-1.76855,1.49902C201.20215,372.2453,200.41211,371.7453,200.15234,370.95624z"/>
			<path d="M204.8623,369.69647c0-1.45898,0.94922-2.53809,2.3584-2.53809c1.39941,0,2.36914,1.0791,2.36914,2.53809
				c0,1.44922-0.95996,2.54883-2.36914,2.54883S204.8623,371.15546,204.8623,369.69647z M208.90039,369.69647
				c0-1.11914-0.62988-1.92871-1.67969-1.92871c-1.05957,0-1.66895,0.81934-1.66895,1.92871
				c0,1.11914,0.62012,1.93945,1.66895,1.93945C208.28027,371.63593,208.90039,370.79608,208.90039,369.69647z"/>
			<path d="M213.30176,369.71698c0-1.2998,0.73047-2.55859,2.21973-2.55859c0.87891,0,1.6084,0.43945,1.99805,1.3584
				l-0.65918,0.26074c-0.22949-0.62988-0.71973-1.00977-1.33887-1.00977c-1.0498,0-1.51953,0.93945-1.51953,1.94922
				c0,1.00879,0.46973,1.91895,1.5293,1.91895c0.61914,0,1.10938-0.37012,1.29883-1l0.63965,0.24023
				c-0.33008,0.89941-1.04883,1.36914-1.93848,1.36914C214.10156,372.2453,213.30176,371.08612,213.30176,369.71698z"/>
			<path d="M222.71973,369.14667v3.01855h-0.68945v-2.84863c0-1.06934-0.33984-1.54883-1.0791-1.54883
				c-0.93945,0-1.46973,0.76953-1.46973,2.12891v2.26855h-0.68945v-6.96582h0.68945v2.75781
				c0.32031-0.49902,0.91992-0.79883,1.62891-0.79883C222.16992,367.15839,222.71973,367.83807,222.71973,369.14667z"/>
			<path d="M228.31934,369.8869h-3.60742c0.01953,1.0791,0.61914,1.72852,1.58887,1.72852
				c0.54004,0,0.96973-0.13965,1.41895-0.61914l0.48047,0.41895c-0.58008,0.61035-1.14941,0.83008-1.90918,0.83008
				c-1.49902,0-2.26855-1.11914-2.26855-2.51855c0-1.38965,0.75977-2.56836,2.18848-2.56836
				c1.50879,0,2.13867,1.17871,2.13867,2.29785C228.34961,369.59686,228.33984,369.76678,228.31934,369.8869z M224.71191,369.30682
				h2.97852c0-0.02051-0.01074-0.07031-0.01074-0.16016c-0.0498-0.7998-0.55957-1.40918-1.46875-1.40918
				C225.32129,367.73749,224.77148,368.43768,224.71191,369.30682z"/>
		</g>
		<path id="Path_525" fill="none" stroke="#000000" stroke-width="0.984" d="M214.59299,321.50403h35.39999"/>
		<path id="Path_525-2" fill="none" stroke="#000000" stroke-width="0.984" d="M21.96802,325.14905v-3.64502h153.53796"/>
		<line id="Line_182" fill="none" stroke="#999999" stroke-width="0.984" x1="41.177" y1="335.258" x2="41.5" y2="362.5"/>
		<line id="Line_183" fill="none" stroke="#999999" stroke-width="0.984" x1="128.548" y1="335.258" x2="128.548" y2="363.29498"/>
		<line id="Line_184" fill="none" stroke="#999999" stroke-width="0.984" x1="187.974" y1="335.258" x2="187.974" y2="363.29498"/>
		<g enable-background="new    ">
			<path fill="#4500FF" d="M78.63672,134.70624c0-2.46875,1.54883-4.49707,3.95752-4.49707
				c1.54932,0,2.30908,0.75977,2.52881,1.90918l-0.68945,0.20898c-0.16992-0.92871-0.75-1.43848-1.89893-1.43848
				c-1.99902,0-3.19824,1.74902-3.19824,3.76758c0,1.15918,0.56934,1.99902,1.96875,1.99902
				c1.15918,0,2.00879-0.56934,2.57861-1.51953l0.62939,0.2998c-0.69922,1.13965-1.75879,1.89941-3.27783,1.89941
				C79.47607,137.33514,78.63672,136.26581,78.63672,134.70624z"/>
			<path fill="#4500FF" d="M89.83447,134.26678l-0.57959,2.98828h-0.68994l0.56982-2.92871
				c0.08984-0.44922,0.25977-1.46875-0.85938-1.46875c-1.08936,0-1.59912,0.94922-1.8291,2.14844l-0.42969,2.24902h-0.68994
				l1.35938-6.96582h0.68945l-0.51953,2.6084c0.45996-0.46973,1.06934-0.64941,1.60938-0.64941
				C89.60449,132.24823,90.07422,133.03729,89.83447,134.26678z"/>
			<path fill="#4500FF" d="M90.81641,135.34589c0-1.62891,1.23926-3.09766,2.86865-3.09766
				c1.21924,0,1.95898,0.81934,1.95898,1.97852c0,1.63867-1.25928,3.1084-2.87842,3.1084
				C91.54639,137.33514,90.81641,136.51581,90.81641,135.34589z M94.97412,134.22675c0-0.81934-0.46973-1.36914-1.33887-1.36914
				c-1.2793,0-2.13916,1.21875-2.13916,2.49805c0,0.82031,0.46973,1.37012,1.31934,1.37012
				C94.10498,136.72577,94.97412,135.49628,94.97412,134.22675z"/>
			<path fill="#4500FF" d="M96.38623,135.34589c0-1.62891,1.23926-3.09766,2.86865-3.09766
				c1.21924,0,1.95898,0.81934,1.95898,1.97852c0,1.63867-1.25928,3.1084-2.87842,3.1084
				C97.11621,137.33514,96.38623,136.51581,96.38623,135.34589z M100.54395,134.22675c0-0.81934-0.46973-1.36914-1.33887-1.36914
				c-1.2793,0-2.13916,1.21875-2.13916,2.49805c0,0.82031,0.46973,1.37012,1.31934,1.37012
				C99.6748,136.72577,100.54395,135.49628,100.54395,134.22675z"/>
			<path fill="#4500FF" d="M101.63672,136.02557l0.6499-0.21973c0.10986,0.5,0.49951,0.90918,1.30908,0.90918
				c0.68994,0,1.23926-0.28906,1.23926-0.92871c0-0.99023-2.43848-0.66992-2.43848-2.08887
				c0-0.87012,0.78955-1.44922,1.80908-1.44922c0.85938,0,1.45898,0.39941,1.729,1.03906l-0.59961,0.26953
				c-0.22021-0.47949-0.56982-0.68945-1.15967-0.68945c-0.60938,0-1.09912,0.25977-1.09912,0.75977
				c0,0.93945,2.43848,0.60938,2.43848,2.08887c0,1.0293-0.86963,1.61914-1.92871,1.61914
				C102.53662,137.33514,101.80664,136.76581,101.63672,136.02557z"/>
			<path fill="#4500FF" d="M107.45557,132.32733h0.68994l-0.95947,4.92773h-0.68994L107.45557,132.32733z M107.83545,130.28925
				h0.71973l-0.19971,1.01953h-0.71973L107.83545,130.28925z"/>
			<path fill="#4500FF" d="M113.46387,133.62714c0,0.26953-0.0498,0.54004-0.06982,0.63965l-0.57959,2.98828h-0.68994
				l0.56982-2.92871c0.02979-0.15918,0.06982-0.35938,0.06982-0.56934c0-0.5498-0.25977-0.89941-0.9292-0.89941
				c-1.07959,0-1.59912,0.94922-1.8291,2.14844l-0.42969,2.24902h-0.68994l0.95947-4.92773h0.68994l-0.12012,0.57031
				c0.45996-0.46973,1.07959-0.64941,1.61914-0.64941C112.97412,132.24823,113.46387,132.78729,113.46387,133.62714z"/>
			<path fill="#4500FF" d="M115.00586,136.03534c0,1.05957,3.08838,0.18066,3.08838,1.84961
				c0,0.98926-1.0791,1.48926-2.37842,1.48926c-1.17969,0-1.93896-0.41016-1.93896-1.23926
				c0-0.16992,0.02979-0.33984,0.07959-0.53027l1.00977-0.64941c-0.31982-0.16016-0.53955-0.39941-0.53955-0.80957
				c0-0.49023,0.31982-0.84961,0.73926-1.09961c-0.15967-0.22949-0.24951-0.5-0.24951-0.81934
				c0-1.05957,0.98926-1.97852,2.19873-1.97852c0.48975,0,0.89941,0.14941,1.1792,0.40918l0.79932-0.59961l0.29004,0.4502
				l-0.78955,0.5791c0.08984,0.17969,0.12988,0.37988,0.12988,0.61035c0,1.11914-0.99951,1.97852-2.16895,1.97852
				c-0.37939,0-0.70947-0.08984-0.96924-0.24023C115.20605,135.56561,115.00586,135.76581,115.00586,136.03534z M115.3457,137.11542
				l-0.83936,0.68945c-0.02979,0.10938-0.04004,0.20996-0.04004,0.2793c0,0.5498,0.56982,0.70996,1.28955,0.70996
				c0.88916,0,1.64893-0.25,1.64893-0.80957C117.40479,137.28534,116.23535,137.33514,115.3457,137.11542z M115.49561,134.22675
				c0,0.5293,0.35986,0.87988,0.96973,0.87988c0.83936,0,1.479-0.65039,1.479-1.38965c0-0.55957-0.35986-0.88965-0.93945-0.88965
				C116.15527,132.82733,115.49561,133.51678,115.49561,134.22675z"/>
		</g>
		
			<ellipse id="Ellipse_30" fill="none" stroke="#4500FF" stroke-width="0.5" stroke-miterlimit="10" cx="58.636" cy="297.51599" rx="57.497" ry="57.497"/>
		<g enable-background="new    ">
			<path fill="#4500FF" d="M154.2832,159.81708h0.70898l-1.35938,6.96582h-0.70898L154.2832,159.81708z"/>
			<path fill="#4500FF" d="M160.12109,163.15497c0,0.26953-0.0498,0.54004-0.06934,0.63965l-0.58008,2.98828h-0.68945
				l0.56934-2.92871c0.03027-0.15918,0.07031-0.35938,0.07031-0.56934c0-0.5498-0.25977-0.89941-0.92969-0.89941
				c-1.0791,0-1.59863,0.94922-1.8291,2.14844l-0.42969,2.24902h-0.68945l0.95898-4.92773h0.69043l-0.12012,0.57031
				c0.45996-0.46973,1.0791-0.64941,1.61914-0.64941C159.63184,161.77606,160.12109,162.31512,160.12109,163.15497z"/>
			<path fill="#4500FF" d="M162.1123,165.60321c-0.01953,0.10059-0.0293,0.2002-0.0293,0.25977
				c0,0.2998,0.16992,0.41992,0.47949,0.41992c0.16016,0,0.37988-0.04004,0.62012-0.12012l-0.07031,0.57031
				c-0.25977,0.08008-0.5293,0.12988-0.75977,0.12988c-0.56934,0-0.95898-0.28027-0.95898-0.87988
				c0-0.12988,0.01953-0.2793,0.04004-0.37988l0.61914-3.21777h-0.81934l0.10938-0.53027h0.80957l0.27051-1.37891l0.78906-0.51953
				l-0.36914,1.89844h1.18848l-0.09961,0.53027h-1.18945L162.1123,165.60321z"/>
			<path fill="#4500FF" d="M164.96289,164.53387c-0.0293,0.16016-0.0498,0.29004-0.0498,0.4502
				c0,0.78906,0.4502,1.24902,1.26953,1.24902c0.59961,0,1.04883-0.17969,1.56934-0.64941l0.41992,0.46973
				c-0.66992,0.5791-1.2793,0.80957-2.03906,0.80957c-1.2793,0-1.87891-0.7998-1.87891-1.89941
				c0-1.64844,1.11914-3.1875,2.70801-3.1875c1.2793,0,1.7793,0.83887,1.7793,1.77832c0,0.2998-0.07031,0.7002-0.16016,0.97949
				H164.96289z M165.07324,163.9743h2.96777c0.05078-0.17969,0.07031-0.34961,0.07031-0.5c0-0.5791-0.34961-1.0791-1.18945-1.0791
				C165.99219,162.3952,165.33301,163.0954,165.07324,163.9743z"/>
			<path fill="#4500FF" d="M173.36133,161.99579l-0.41992,0.5791c-0.12012-0.06934-0.33008-0.12988-0.58008-0.12988
				c-0.72949,0-1.49902,0.5-1.75879,1.86914l-0.46973,2.46875h-0.68945l0.95898-4.92773h0.69043l-0.14062,0.66992
				c0.44043-0.58984,1.09961-0.74902,1.5791-0.74902C172.82129,161.77606,173.10156,161.83563,173.36133,161.99579z"/>
			<path fill="#4500FF" d="M178.52051,163.73505c0,1.56836-1.15918,3.12793-2.73828,3.12793
				c-0.66992,0-1.22949-0.28027-1.51953-0.72949l-0.5293,2.68848h-0.75977l1.36914-6.9668h0.74902l-0.10938,0.57031
				c0.42969-0.41992,1.0498-0.64941,1.66895-0.64941C177.87109,161.77606,178.52051,162.56512,178.52051,163.73505z
				 M177.84082,163.80438c0-0.85938-0.46973-1.38867-1.28906-1.38867c-1.12012,0-1.96875,0.99902-2.09961,2.16797
				c-0.10938,0.99023,0.37012,1.64941,1.2793,1.64941C176.98145,166.23309,177.84082,164.96356,177.84082,163.80438z"/>
			<path fill="#4500FF" d="M183.19043,161.99579l-0.41992,0.5791c-0.11914-0.06934-0.3291-0.12988-0.5791-0.12988
				c-0.72949,0-1.49902,0.5-1.75879,1.86914l-0.46973,2.46875h-0.69043l0.95996-4.92773h0.68945l-0.13965,0.66992
				c0.43945-0.58984,1.09961-0.74902,1.5791-0.74902C182.65137,161.77606,182.93066,161.83563,183.19043,161.99579z"/>
			<path fill="#4500FF" d="M183.68262,164.53387c-0.0293,0.16016-0.0498,0.29004-0.0498,0.4502
				c0,0.78906,0.4502,1.24902,1.26953,1.24902c0.59961,0,1.04883-0.17969,1.56934-0.64941l0.41992,0.46973
				c-0.66992,0.5791-1.2793,0.80957-2.03906,0.80957c-1.2793,0-1.87891-0.7998-1.87891-1.89941
				c0-1.64844,1.11914-3.1875,2.70801-3.1875c1.2793,0,1.7793,0.83887,1.7793,1.77832c0,0.2998-0.07031,0.7002-0.16016,0.97949
				H183.68262z M183.79297,163.9743h2.96777c0.05078-0.17969,0.07031-0.34961,0.07031-0.5c0-0.5791-0.34961-1.0791-1.18945-1.0791
				C184.71191,162.3952,184.05273,163.0954,183.79297,163.9743z"/>
			<path fill="#4500FF" d="M189.23242,165.60321c-0.01953,0.10059-0.03027,0.2002-0.03027,0.25977
				c0,0.2998,0.16992,0.41992,0.48047,0.41992c0.15918,0,0.37891-0.04004,0.61914-0.12012l-0.07031,0.57031
				c-0.25977,0.08008-0.5293,0.12988-0.75879,0.12988c-0.57031,0-0.95996-0.28027-0.95996-0.87988
				c0-0.12988,0.02051-0.2793,0.04004-0.37988l0.62012-3.21777h-0.82031l0.11035-0.53027h0.80957l0.26953-1.37891l0.79004-0.51953
				l-0.37012,1.89844h1.18945l-0.09961,0.53027h-1.18945L189.23242,165.60321z"/>
			<path fill="#4500FF" d="M192.37207,161.85516h0.69043l-0.95996,4.92773h-0.68945L192.37207,161.85516z M192.75195,159.81708
				h0.71973l-0.19922,1.01953h-0.71973L192.75195,159.81708z"/>
			<path fill="#4500FF" d="M198.37988,163.15497c0,0.26953-0.0498,0.54004-0.06934,0.63965l-0.58008,2.98828h-0.68945
				l0.56934-2.92871c0.03027-0.15918,0.07031-0.35938,0.07031-0.56934c0-0.5498-0.25977-0.89941-0.92969-0.89941
				c-1.0791,0-1.59863,0.94922-1.8291,2.14844l-0.42969,2.24902h-0.68945l0.95898-4.92773h0.69043l-0.12012,0.57031
				c0.45996-0.46973,1.0791-0.64941,1.61914-0.64941C197.89062,161.77606,198.37988,162.31512,198.37988,163.15497z"/>
			<path fill="#4500FF" d="M199.92188,165.56317c0,1.05957,3.08887,0.18066,3.08887,1.84961
				c0,0.98926-1.0791,1.48926-2.37891,1.48926c-1.17969,0-1.93848-0.41016-1.93848-1.23926c0-0.16992,0.0293-0.33984,0.0791-0.53027
				l1.00977-0.64941c-0.31934-0.16016-0.53906-0.39941-0.53906-0.80957c0-0.49023,0.31934-0.84961,0.73926-1.09961
				c-0.16016-0.22949-0.25-0.5-0.25-0.81934c0-1.05957,0.98926-1.97852,2.19922-1.97852c0.48926,0,0.89941,0.14941,1.17871,0.40918
				l0.7998-0.59961l0.29004,0.4502l-0.79004,0.5791c0.08984,0.17969,0.12988,0.37988,0.12988,0.61035
				c0,1.11914-0.99902,1.97852-2.16895,1.97852c-0.37891,0-0.70898-0.08984-0.96875-0.24023
				C200.12207,165.09344,199.92188,165.29364,199.92188,165.56317z M200.26172,166.64325l-0.83887,0.68945
				c-0.03027,0.10938-0.04004,0.20996-0.04004,0.2793c0,0.5498,0.56934,0.70996,1.28906,0.70996
				c0.88965,0,1.64941-0.25,1.64941-0.80957C202.32129,166.81317,201.15137,166.86298,200.26172,166.64325z M200.41211,163.75458
				c0,0.5293,0.35938,0.87988,0.96973,0.87988c0.83887,0,1.47852-0.65039,1.47852-1.38965
				c0-0.55957-0.35938-0.88965-0.93945-0.88965C201.07129,162.35516,200.41211,163.04462,200.41211,163.75458z"/>
		</g>
		<g enable-background="new    ">
			<path fill="#4500FF" d="M185.1875,215.06561l0.71973-0.12891c-0.0498,0.95898,0.64941,1.43945,1.5293,1.43945
				c0.99902,0,1.75879-0.61133,1.75879-1.42969c0-0.80078-0.71973-1.08984-1.38867-1.38867
				c-0.83008-0.37109-1.56934-0.74023-1.56934-1.7207c0-1.10938,0.95898-1.9375,2.22852-1.9375
				c0.80957,0,1.56934,0.33984,1.87891,1.14844l-0.64941,0.33008c-0.18945-0.56055-0.70996-0.83984-1.2998-0.83984
				c-0.84863,0-1.44824,0.56055-1.44824,1.23047c0,0.66797,0.61914,0.93945,1.31836,1.25781
				c0.87988,0.40039,1.64941,0.75977,1.64941,1.81055c0,1.24805-1.11914,2.17773-2.52832,2.17773
				C186.14746,217.01483,185.1582,216.30585,185.1875,215.06561z"/>
			<path fill="#4500FF" d="M195.84473,213.89764c0,1.56836-1.15918,3.12695-2.73828,3.12695
				c-0.66992,0-1.22949-0.2793-1.51953-0.72852l-0.5293,2.6875h-0.75977l1.36914-6.9668h0.75l-0.11035,0.57031
				c0.42969-0.41992,1.0498-0.64844,1.66895-0.64844C195.19531,211.93866,195.84473,212.72772,195.84473,213.89764z
				 M195.16504,213.966c0-0.85938-0.46973-1.38867-1.28906-1.38867c-1.12012,0-1.96875,1-2.09863,2.16797
				c-0.11035,0.99023,0.36914,1.65039,1.2793,1.65039C194.30566,216.39569,195.16504,215.12616,195.16504,213.966z"/>
			<path fill="#4500FF" d="M197.31738,214.69647c-0.03027,0.16016-0.0498,0.28906-0.0498,0.44922
				c0,0.78906,0.44922,1.25,1.26855,1.25c0.59961,0,1.0498-0.17969,1.56934-0.65039l0.41992,0.4707
				c-0.66992,0.57812-1.2793,0.80859-2.03906,0.80859c-1.2793,0-1.87891-0.79883-1.87891-1.89844
				c0-1.64844,1.11914-3.1875,2.70898-3.1875c1.2793,0,1.77832,0.83789,1.77832,1.77734c0,0.30078-0.06934,0.70117-0.15918,0.98047
				H197.31738z M197.42676,214.13593h2.96875c0.0498-0.17969,0.07031-0.34961,0.07031-0.5
				c0-0.57812-0.35059-1.07812-1.18945-1.07812C198.34668,212.5578,197.68652,213.25702,197.42676,214.13593z"/>
			<path fill="#4500FF" d="M201.81738,215.08514c0-1.62891,1.15918-3.14648,2.73828-3.14648
				c0.91992,0,1.55957,0.48828,1.74902,1.37891l-0.68945,0.21875c-0.08984-0.62891-0.51953-0.98828-1.10938-0.98828
				c-1.19922,0-1.99902,1.29883-1.99902,2.55859c0,0.72852,0.34961,1.30859,1.17969,1.30859
				c0.64941,0,1.22949-0.39062,1.53906-1.01953l0.58984,0.28906c-0.48047,0.86133-1.2793,1.33984-2.16895,1.33984
				C202.42676,217.0246,201.81738,216.18475,201.81738,215.08514z"/>
			<path fill="#4500FF" d="M207.72656,212.01678h0.69043l-0.95996,4.92773h-0.68945L207.72656,212.01678z M208.10645,209.97968
				h0.71973l-0.19922,1.01953h-0.71973L208.10645,209.97968z"/>
			<path fill="#4500FF" d="M210.30664,212.54803h-1.03906l0.11035-0.53125h1.03906l0.14941-0.72852
				c0.2002-0.96875,0.74023-1.38867,1.59961-1.38867c0.30957,0,0.54004,0.08984,0.73926,0.19922l-0.2998,0.50977
				c-0.13965-0.08984-0.2793-0.13086-0.41992-0.13086c-0.60938,0-0.85938,0.41992-0.94922,0.86133l-0.13965,0.67773h1.42871
				l-0.10938,0.53125h-1.41895l-0.86035,4.39648h-0.67969L210.30664,212.54803z"/>
			<path fill="#4500FF" d="M217.69434,212.01678l-4.03711,6.9668h-0.75977l1.22949-2.11914l-1.13965-4.84766h0.74902
				l0.88965,3.97852l2.29883-3.97852H217.69434z"/>
			<path fill="#4500FF" d="M218.69629,212.01678h0.69043l-0.95996,4.92773h-0.68945L218.69629,212.01678z M219.07617,209.97968
				h0.71973l-0.19922,1.01953h-0.71973L219.07617,209.97968z"/>
			<path fill="#4500FF" d="M224.7041,213.31757c0,0.26953-0.0498,0.53906-0.06934,0.63867l-0.58008,2.98828h-0.68945
				l0.56934-2.92773c0.03027-0.16016,0.07031-0.35938,0.07031-0.57031c0-0.54883-0.25977-0.89844-0.92969-0.89844
				c-1.0791,0-1.59863,0.94922-1.8291,2.14844l-0.42969,2.24805h-0.68945l0.95898-4.92773h0.69043l-0.12012,0.57031
				c0.45996-0.46875,1.0791-0.64844,1.61914-0.64844C224.21484,211.93866,224.7041,212.47772,224.7041,213.31757z"/>
			<path fill="#4500FF" d="M226.24609,215.72577c0,1.05859,3.08887,0.17969,3.08887,1.84961
				c0,0.98828-1.0791,1.48828-2.37891,1.48828c-1.17969,0-1.93848-0.41016-1.93848-1.23828
				c0-0.16992,0.0293-0.33984,0.08008-0.53125l1.00879-0.64844c-0.31934-0.16016-0.53906-0.40039-0.53906-0.81055
				c0-0.49023,0.31934-0.84961,0.73926-1.09961c-0.16016-0.22852-0.25-0.5-0.25-0.81836c0-1.06055,0.98926-1.97852,2.19922-1.97852
				c0.48926,0,0.89941,0.14844,1.17871,0.4082l0.7998-0.59961l0.29004,0.45117l-0.79004,0.57812
				c0.08984,0.17969,0.12988,0.38086,0.12988,0.61133c0,1.11914-0.99902,1.97852-2.16895,1.97852
				c-0.37891,0-0.70898-0.08984-0.96875-0.24023C226.44629,215.25507,226.24609,215.45624,226.24609,215.72577z
				 M226.58594,216.80585l-0.83887,0.68945c-0.03027,0.10938-0.04004,0.20898-0.04004,0.2793
				c0,0.54883,0.56934,0.70898,1.28906,0.70898c0.88965,0,1.64941-0.25,1.64941-0.80859
				C228.64551,216.97577,227.47559,217.0246,226.58594,216.80585z M226.73633,213.91718c0,0.5293,0.35938,0.87891,0.96973,0.87891
				c0.83887,0,1.47852-0.65039,1.47852-1.38867c0-0.56055-0.35938-0.89062-0.93945-0.89062
				C227.39551,212.51678,226.73633,213.20624,226.73633,213.91718z"/>
		</g>
		
			<ellipse id="Ellipse_30-2" fill="none" stroke="#4500FF" stroke-width="0.5" stroke-miterlimit="10" cx="133.362" cy="302.28601" rx="25.699" ry="25.699"/>
		
			<ellipse id="Ellipse_31" fill="none" stroke="#4500FF" stroke-width="0.5" stroke-miterlimit="10" cx="191.94101" cy="307.49402" rx="41.32" ry="41.32"/>
		<path id="Tracciato_571" fill="none" stroke="#4500FF" stroke-width="0.5" stroke-miterlimit="10" d="M58.63501,240.01892
			v-106.172h13.95502"/>
		<path id="Tracciato_572" fill="none" stroke="#4500FF" stroke-width="0.5" stroke-miterlimit="10" d="M133.362,276.58704V164.505
			h13.95398"/>
		<path id="Tracciato_573" fill="none" stroke="#4500FF" stroke-width="0.5" stroke-miterlimit="10" d="M168.43103,273.51904
			v-58.85803h11.64801"/>
		
			<line id="Rectangle_741-2" fill="none" stroke="#FFC806" stroke-width="1.476" x1="161.35699" y1="312.14401" x2="175.506" y2="312.14401"/>
		
			<line id="Rectangle_742-2" fill="none" stroke="#FFC806" stroke-width="1.476" x1="125.984" y1="312.14401" x2="127.222" y2="312.14401"/>
		
			<line id="Rectangle_743-2" fill="none" stroke="#FFC806" stroke-width="1.476" x1="28.355" y1="284.12701" x2="42.681" y2="284.12701"/>
		
			<line id="Rectangle_744-2" fill="none" stroke="#FFC806" stroke-width="1.476" x1="28.355" y1="312.14401" x2="42.681" y2="312.14401"/>
		
			<line id="Rectangle_788-2" fill="none" stroke="#BBBBFF" stroke-width="1.476" x1="175.683" y1="312.14401" x2="214.593" y2="312.14401"/>
		
			<line id="Rectangle_789-2" fill="none" stroke="#BBBBFF" stroke-width="1.476" x1="127.399" y1="312.14401" x2="131.11301" y2="312.14401"/>
		
			<line id="Rectangle_790-2" fill="none" stroke="#BBBBFF" stroke-width="1.476" x1="54.354" y1="284.12701" x2="99.631" y2="284.12701"/>
		
			<line id="Rectangle_791-2" fill="none" stroke="#BBBBFF" stroke-width="1.476" x1="43.034" y1="312.14401" x2="54" y2="312.14401"/>
		<path id="Tracciato_575" fill="none" stroke="#4500FF" stroke-miterlimit="10" d="M175.68298,319.76807
			c2.15997,0,2.15997,3.47095,4.32001,3.47095s2.16199-3.47095,4.323-3.47095s2.16101,3.47095,4.32202,3.47095
			s2.16101-3.47095,4.32202-3.47095s2.16199,3.47095,4.323,3.47095s2.15997-3.47095,4.32098-3.47095
			s2.16302,3.47095,4.32397,3.47095s2.164-3.47095,4.328-3.47095s2.164,3.47095,4.328,3.47095"/>
		<g enable-background="new    ">
			<path d="M2.13916,88.03436h0.70996V94.341h3.17822v0.65918H2.13916V88.03436z"/>
			<path d="M11.12695,92.72186H7.51904c0.02002,1.0791,0.61963,1.72852,1.58936,1.72852c0.53955,0,0.96924-0.13965,1.41895-0.61914
				l0.47998,0.41895c-0.57959,0.61035-1.14941,0.83008-1.90918,0.83008c-1.49902,0-2.26855-1.11914-2.26855-2.51855
				c0-1.38965,0.75977-2.56836,2.18896-2.56836c1.50879,0,2.13867,1.17871,2.13867,2.29785
				C11.15723,92.43182,11.14697,92.60175,11.12695,92.72186z M7.51904,92.14178h2.97852c0-0.02051-0.01025-0.07031-0.01025-0.16016
				c-0.0498-0.7998-0.55957-1.40918-1.46875-1.40918C8.12891,90.57245,7.5791,91.27264,7.51904,92.14178z"/>
			<path d="M11.83984,90.07245h0.75l1.54883,4.04785l1.55908-4.04785h0.75977l-2.01904,4.92773h-0.58936L11.83984,90.07245z"/>
			<path d="M21.31689,92.72186h-3.60791c0.02002,1.0791,0.61963,1.72852,1.58936,1.72852c0.53955,0,0.96924-0.13965,1.41895-0.61914
				l0.47998,0.41895c-0.57959,0.61035-1.14941,0.83008-1.90918,0.83008c-1.49902,0-2.26855-1.11914-2.26855-2.51855
				c0-1.38965,0.75977-2.56836,2.18896-2.56836c1.50879,0,2.13867,1.17871,2.13867,2.29785
				C21.34717,92.43182,21.33691,92.60175,21.31689,92.72186z M17.70898,92.14178h2.97852c0-0.02051-0.01025-0.07031-0.01025-0.16016
				c-0.0498-0.7998-0.55957-1.40918-1.46875-1.40918C18.31885,90.57245,17.76904,91.27264,17.70898,92.14178z"/>
			<path d="M22.69971,93.93085v-5.89648h0.68945v5.85645c0,0.33984,0.12012,0.55957,0.44971,0.55957
				c0.1499,0,0.31982-0.04004,0.46973-0.08984l0.01025,0.58984c-0.20996,0.06934-0.45996,0.12988-0.67969,0.12988
				C23.06934,95.08026,22.69971,94.70038,22.69971,93.93085z"/>
			<path d="M24.90967,93.7912l0.57959-0.25977c0.17969,0.50977,0.65967,0.93945,1.4292,0.93945
				c0.66943,0,1.09961-0.33008,1.09961-0.84961c0-1.30957-2.83887-0.49023-2.83887-2.23926
				c0-0.85938,0.69971-1.38867,1.68945-1.38867c0.78955,0,1.4292,0.3291,1.76904,1.0293l-0.5498,0.2998
				c-0.23975-0.44043-0.62988-0.71973-1.23926-0.71973c-0.60986,0-0.99951,0.25-0.99951,0.67969
				c0,1.16895,2.84814,0.42969,2.84814,2.29883c0,0.99902-0.81934,1.49902-1.76855,1.49902
				C25.95898,95.08026,25.16943,94.58026,24.90967,93.7912z"/>
		</g>
		
			<linearGradient id="Rectangle_899_1_" gradientUnits="userSpaceOnUse" x1="0" y1="403.88983" x2="0" y2="403.88983" gradientTransform="matrix(1 0 0 -1 228.883 743.86682)">
			<stop  offset="0" style="stop-color:#FFFFFF;stop-opacity:0"/>
			<stop  offset="1" style="stop-color:#FFFFFF"/>
		</linearGradient>
		<path id="Rectangle_899" fill="url(#Rectangle_899_1_)" d="M228.883,339.97699"/>
		<g id="Raggruppa_793" transform="translate(-842 -2641)">
			<path id="Tracciato_612" fill="none" stroke="#4500FF" stroke-width="0.75" stroke-miterlimit="10" d="M842.48401,2680.46509
				c2.62299,0,2.62299,7,5.245,7s2.62299-7,5.24597-7s2.62799,7,5.255,7s2.62598-7,5.25403-7"/>
			<g enable-background="new    ">
				<path d="M868.56396,2643.11743h1.88916c2.26855,0,3.55811,1.28906,3.55811,3.53809c0,2.21875-1.25928,3.42773-3.56787,3.42773
					h-1.87939V2643.11743z M870.3833,2649.42407c1.94873,0,2.9082-0.91992,2.9082-2.79883
					c0-1.88867-0.95947-2.84863-2.84814-2.84863h-1.16943v5.64746H870.3833z"/>
				<path d="M879.39209,2645.15552v4.92773h-0.68945v-0.70996c-0.3501,0.53027-0.97949,0.79004-1.62939,0.79004
					c-1.11914,0-1.60889-0.76953-1.60889-1.98926v-3.01855h0.68945v2.84863c0,0.7998,0.14014,1.5498,1.07959,1.5498
					c0.97949,0,1.46924-0.84961,1.46924-2.12891v-2.26953H879.39209z"/>
				<path d="M885.72168,2647.6145c0,1.46973-0.74951,2.54883-2.18896,2.54883c-0.71924,0-1.26904-0.28027-1.62891-0.73926v0.65918
					h-0.68945v-6.96582h0.68945v2.69824c0.36963-0.47949,0.92969-0.75,1.62891-0.75
					C884.90234,2645.06567,885.72168,2646.07544,885.72168,2647.6145z M885.03223,2647.6145
					c0-1.16895-0.59961-1.93848-1.59912-1.93848c-0.98975,0-1.58936,0.76953-1.58936,1.93848
					c0,1.11914,0.5498,1.93945,1.58936,1.93945C884.48242,2649.55396,885.03223,2648.73364,885.03223,2647.6145z"/>
				<path d="M887.09424,2643.11743h0.79932v1.01953h-0.79932V2643.11743z M887.1543,2645.15552h0.68945v4.92773h-0.68945V2645.15552
					z"/>
				<path d="M891.71289,2650.03345c-0.25977,0.08008-0.52002,0.12988-0.74951,0.12988c-0.65967,0-1.13965-0.37012-1.13965-1.23926
					v-3.18848h-0.81934v-0.58008h0.81934v-1.37891l0.68994-0.51953v1.89844h1.18896v0.58008h-1.18896v3.09863
					c0,0.47949,0.21973,0.69922,0.60938,0.69922c0.16992,0,0.35986-0.04004,0.57959-0.10938L891.71289,2650.03345z"/>
				<path d="M896.69189,2647.01489v3.06836h-0.62988l-0.04004-0.75977c-0.38965,0.5498-0.98926,0.83984-1.76904,0.83984
					c-1.06934,0-1.69873-0.55957-1.69873-1.50977c0-0.49902,0.19971-0.87891,0.55957-1.09863
					c0.37988-0.21973,0.90967-0.31055,1.87891-0.31055h1.00928v-0.22949c0-0.85938-0.44971-1.3291-1.2793-1.3291
					c-0.61963,0-1.09912,0.26953-1.49902,0.81934l-0.49951-0.41992c0.5293-0.68945,1.16895-1.00879,2.00879-1.00879
					C895.97217,2645.07642,896.69189,2645.7854,896.69189,2647.01489z M896.00195,2647.87427v-0.06934h-0.94922
					c-0.90967,0-1.29932,0.05957-1.53906,0.24902c-0.18018,0.14062-0.27002,0.36035-0.27002,0.63965
					c0,0.5498,0.46973,0.90039,1.20947,0.90039C895.40234,2649.59399,896.00195,2648.92407,896.00195,2647.87427z"/>
				<path d="M900.42285,2650.03345c-0.25977,0.08008-0.52002,0.12988-0.74951,0.12988c-0.65967,0-1.13965-0.37012-1.13965-1.23926
					v-3.18848h-0.81934v-0.58008h0.81934v-1.37891l0.68994-0.51953v1.89844h1.18896v0.58008h-1.18896v3.09863
					c0,0.47949,0.21973,0.69922,0.60938,0.69922c0.16992,0,0.35986-0.04004,0.57959-0.10938L900.42285,2650.03345z"/>
				<path d="M901.67383,2643.11743h0.79932v1.01953h-0.79932V2643.11743z M901.73389,2645.15552h0.68945v4.92773h-0.68945
					V2645.15552z"/>
				<path d="M903.53369,2645.15552h0.75l1.54883,4.04785l1.55908-4.04785h0.75977l-2.01904,4.92773h-0.58936L903.53369,2645.15552z"
					/>
				<path d="M913.01123,2647.80493h-3.60791c0.02002,1.0791,0.61963,1.72852,1.58936,1.72852
					c0.53955,0,0.96924-0.13965,1.41895-0.61914l0.47998,0.41895c-0.57959,0.61035-1.14941,0.83008-1.90918,0.83008
					c-1.49902,0-2.26855-1.11914-2.26855-2.51855c0-1.38965,0.75977-2.56836,2.18896-2.56836
					c1.50879,0,2.13867,1.17871,2.13867,2.29785C913.0415,2647.51489,913.03125,2647.68481,913.01123,2647.80493z
					 M909.40332,2647.22485h2.97852c0-0.02051-0.01025-0.07031-0.01025-0.16016c-0.0498-0.7998-0.55957-1.40918-1.46875-1.40918
					C910.01318,2645.65552,909.46338,2646.35571,909.40332,2647.22485z"/>
				<path d="M919.2124,2650.03345c-0.25977,0.08008-0.52002,0.12988-0.74951,0.12988c-0.65967,0-1.13965-0.37012-1.13965-1.23926
					v-3.18848h-0.81934v-0.58008h0.81934v-1.37891l0.68945-0.51953v1.89844h1.18945v0.58008h-1.18945v3.09863
					c0,0.47949,0.22021,0.69922,0.60986,0.69922c0.16992,0,0.35986-0.04004,0.57959-0.10938L919.2124,2650.03345z"/>
				<path d="M924.37158,2647.80493h-3.60791c0.02002,1.0791,0.61963,1.72852,1.58936,1.72852
					c0.53955,0,0.96924-0.13965,1.41895-0.61914l0.47998,0.41895c-0.57959,0.61035-1.14941,0.83008-1.90918,0.83008
					c-1.49902,0-2.26855-1.11914-2.26855-2.51855c0-1.38965,0.75977-2.56836,2.18896-2.56836
					c1.50879,0,2.13867,1.17871,2.13867,2.29785C924.40186,2647.51489,924.3916,2647.68481,924.37158,2647.80493z
					 M920.76367,2647.22485h2.97852c0-0.02051-0.01025-0.07031-0.01025-0.16016c-0.0498-0.7998-0.55957-1.40918-1.46875-1.40918
					C921.37354,2645.65552,920.82373,2646.35571,920.76367,2647.22485z"/>
				<path d="M926.94336,2647.6145l-1.79932-2.45898h0.83984l1.41895,1.97949l1.40918-1.97949h0.83984l-1.79932,2.45898
					l1.80908,2.46875h-0.84961l-1.40918-1.99902l-1.40918,1.99902h-0.84961L926.94336,2647.6145z"/>
				<path d="M932.92236,2650.03345c-0.25977,0.08008-0.52002,0.12988-0.74951,0.12988c-0.65967,0-1.13965-0.37012-1.13965-1.23926
					v-3.18848h-0.81934v-0.58008h0.81934v-1.37891l0.68945-0.51953v1.89844h1.18945v0.58008h-1.18945v3.09863
					c0,0.47949,0.22021,0.69922,0.60986,0.69922c0.16992,0,0.35986-0.04004,0.57959-0.10938L932.92236,2650.03345z"/>
				<path d="M936.77344,2646.60474c0-1.51855,0.40967-2.91797,1.15918-3.80762h0.63965
					c-0.89941,1.10938-1.24902,2.50879-1.24902,3.82812c0,1.44922,0.42969,2.77832,1.23926,3.78809h-0.61963
					C937.20312,2649.58325,936.77344,2647.87427,936.77344,2646.60474z"/>
				<path d="M941.89258,2650.03345c-0.25977,0.08008-0.52002,0.12988-0.74951,0.12988c-0.65967,0-1.13965-0.37012-1.13965-1.23926
					v-3.18848h-0.81934v-0.58008h0.81934v-1.37891l0.68994-0.51953v1.89844h1.18896v0.58008h-1.18896v3.09863
					c0,0.47949,0.21973,0.69922,0.60938,0.69922c0.16992,0,0.35986-0.04004,0.57959-0.10938L941.89258,2650.03345z"/>
				<path d="M947.27148,2643.11743v6.96582h-0.68994v-0.65918c-0.35938,0.45898-0.90918,0.73926-1.62891,0.73926
					c-1.43896,0-2.18896-1.0791-2.18896-2.54883c0-1.53906,0.81982-2.54883,2.18896-2.54883c0.69971,0,1.25928,0.27051,1.62891,0.75
					v-2.69824H947.27148z M946.6416,2647.6145c0-1.16895-0.59961-1.93848-1.58887-1.93848
					c-0.99951,0-1.59912,0.76953-1.59912,1.93848c0,1.11914,0.54932,1.93945,1.59912,1.93945
					C946.0918,2649.55396,946.6416,2648.73364,946.6416,2647.6145z"/>
				<path d="M948.55371,2650.41333c0.80957-1.00977,1.23926-2.33887,1.23926-3.78809c0-1.31934-0.34961-2.71875-1.24902-3.82812
					h0.63965c0.74951,0.88965,1.15918,2.28906,1.15918,3.80762c0,1.26953-0.42969,2.97852-1.16943,3.80859H948.55371z"/>
			</g>
			<path id="Rectangle_179" fill="#D1D1F8" d="M847.98401,2644.08423h9.88202c2.91321-0.14697,5.39764,2.0874,5.55902,5l0,0
				c-0.16138,2.91235-2.64581,5.14697-5.55902,5h-9.88202c-2.91321,0.14697-5.39764-2.08765-5.55902-5l0,0
				C842.58636,2646.17163,845.0708,2643.93726,847.98401,2644.08423z"/>
			<g enable-background="new    ">
				<path d="M870.65771,2661.41528h-2.40869v-0.65918h5.54688v0.65918h-2.41846v6.30664h-0.71973V2661.41528z"/>
				<path d="M877.98633,2665.4436h-3.60791c0.02002,1.0791,0.61963,1.72852,1.58936,1.72852
					c0.53955,0,0.96924-0.13965,1.41895-0.61914l0.47998,0.41895c-0.57959,0.61035-1.14941,0.83008-1.90918,0.83008
					c-1.49902,0-2.26855-1.11914-2.26855-2.51855c0-1.38965,0.75977-2.56836,2.18896-2.56836
					c1.50879,0,2.13867,1.17871,2.13867,2.29785C878.0166,2665.15356,878.00635,2665.32349,877.98633,2665.4436z
					 M874.37842,2664.86353h2.97852c0-0.02051-0.01025-0.07031-0.01025-0.16016c-0.0498-0.7998-0.55957-1.40918-1.46875-1.40918
					C874.98828,2663.29419,874.43848,2663.99438,874.37842,2664.86353z"/>
				<path d="M880.55811,2665.25317l-1.79932-2.45898h0.83984l1.41895,1.97949l1.40918-1.97949h0.83984l-1.79932,2.45898
					l1.80908,2.46875h-0.84961l-1.40918-1.99902l-1.40918,1.99902h-0.84961L880.55811,2665.25317z"/>
				<path d="M886.5376,2667.67212c-0.25977,0.08008-0.52002,0.12988-0.74951,0.12988c-0.65967,0-1.13965-0.37012-1.13965-1.23926
					v-3.18848h-0.81934v-0.58008h0.81934v-1.37891l0.68945-0.51953v1.89844h1.18945v0.58008h-1.18945v3.09863
					c0,0.47949,0.22021,0.69922,0.60986,0.69922c0.16992,0,0.35986-0.04004,0.57959-0.10938L886.5376,2667.67212z"/>
				<path d="M890.14844,2665.25317c0-1.45898,0.94971-2.53809,2.35889-2.53809c1.39941,0,2.36865,1.0791,2.36865,2.53809
					c0,1.44922-0.95947,2.54883-2.36865,2.54883S890.14844,2666.71216,890.14844,2665.25317z M894.18652,2665.25317
					c0-1.11914-0.62988-1.92871-1.6792-1.92871c-1.05957,0-1.66895,0.81934-1.66895,1.92871
					c0,1.11914,0.61963,1.93945,1.66895,1.93945C893.56689,2667.19263,894.18652,2666.35278,894.18652,2665.25317z"/>
				<path d="M900.77588,2665.25317c0,1.46973-0.74951,2.54883-2.18896,2.54883c-0.71924,0-1.26904-0.28027-1.62891-0.73926v0.65918
					h-0.68945v-6.96582h0.68945v2.69824c0.36963-0.47949,0.92969-0.75,1.62891-0.75
					C899.95654,2662.70435,900.77588,2663.71411,900.77588,2665.25317z M900.08643,2665.25317
					c0-1.16895-0.59961-1.93848-1.59912-1.93848c-0.98975,0-1.58936,0.76953-1.58936,1.93848
					c0,1.11914,0.5498,1.93945,1.58936,1.93945C899.53662,2667.19263,900.08643,2666.37231,900.08643,2665.25317z"/>
				<path d="M901.26904,2669.71118l0.00977-0.55957c0.16992,0.05957,0.33008,0.0791,0.45996,0.0791
					c0.2998,0,0.46973-0.16992,0.46973-0.55957v-5.87695h0.67969v5.91699c0,0.7793-0.37012,1.12988-0.93994,1.12988
					C901.74854,2669.84106,901.51855,2669.79126,901.26904,2669.71118z M902.14844,2660.7561h0.79932v1.01953h-0.79932V2660.7561z"
					/>
				<path d="M908.60596,2665.4436h-3.60791c0.02002,1.0791,0.61963,1.72852,1.58936,1.72852
					c0.53955,0,0.96924-0.13965,1.41895-0.61914l0.47998,0.41895c-0.57959,0.61035-1.14941,0.83008-1.90918,0.83008
					c-1.49902,0-2.26855-1.11914-2.26855-2.51855c0-1.38965,0.75977-2.56836,2.18896-2.56836
					c1.50879,0,2.13867,1.17871,2.13867,2.29785C908.63623,2665.15356,908.62598,2665.32349,908.60596,2665.4436z
					 M904.99805,2664.86353h2.97852c0-0.02051-0.01025-0.07031-0.01025-0.16016c-0.0498-0.7998-0.55957-1.40918-1.46875-1.40918
					C905.60791,2663.29419,905.05811,2663.99438,904.99805,2664.86353z"/>
				<path d="M909.61816,2665.27368c0-1.2998,0.72998-2.55859,2.21875-2.55859c0.87988,0,1.60938,0.43945,1.99902,1.3584
					l-0.65967,0.26074c-0.22949-0.62988-0.71924-1.00977-1.33936-1.00977c-1.04932,0-1.51904,0.93945-1.51904,1.94922
					c0,1.00879,0.46973,1.91895,1.5293,1.91895c0.61963,0,1.10938-0.37012,1.29932-1l0.63965,0.24023
					c-0.33008,0.89941-1.04932,1.36914-1.93896,1.36914C910.41797,2667.802,909.61816,2666.64282,909.61816,2665.27368z"/>
				<path d="M917.15723,2667.67212c-0.25977,0.08008-0.52002,0.12988-0.74951,0.12988c-0.65967,0-1.13965-0.37012-1.13965-1.23926
					v-3.18848h-0.81934v-0.58008h0.81934v-1.37891l0.68994-0.51953v1.89844h1.18896v0.58008h-1.18896v3.09863
					c0,0.47949,0.21973,0.69922,0.60938,0.69922c0.16992,0,0.35986-0.04004,0.57959-0.10938L917.15723,2667.67212z"/>
				<path d="M920.76855,2665.25317c0-1.45898,0.94922-2.53809,2.3584-2.53809c1.39941,0,2.36865,1.0791,2.36865,2.53809
					c0,1.44922-0.95947,2.54883-2.36865,2.54883S920.76855,2666.71216,920.76855,2665.25317z M924.80615,2665.25317
					c0-1.11914-0.62988-1.92871-1.6792-1.92871c-1.05957,0-1.66895,0.81934-1.66895,1.92871
					c0,1.11914,0.61963,1.93945,1.66895,1.93945C924.18652,2667.19263,924.80615,2666.35278,924.80615,2665.25317z"/>
				<path d="M927.18799,2663.37427h-1.03955v-0.58008h1.04932v-0.75879c0-1.0498,0.60986-1.35938,1.23926-1.35938
					c0.27002,0,0.56982,0.05957,0.87988,0.18945l-0.24023,0.5498c-0.20996-0.09961-0.39941-0.16016-0.56934-0.16016
					c-0.39014,0-0.62988,0.27051-0.62988,0.72949v0.80957h1.41943v0.58008h-1.41943v4.34766h-0.68945V2663.37427z"/>
				<path d="M937.22559,2660.7561v6.96582h-0.68994v-0.65918c-0.35938,0.45898-0.90918,0.73926-1.62891,0.73926
					c-1.43896,0-2.18896-1.0791-2.18896-2.54883c0-1.53906,0.81982-2.54883,2.18896-2.54883c0.69971,0,1.25928,0.27051,1.62891,0.75
					v-2.69824H937.22559z M936.5957,2665.25317c0-1.16895-0.59961-1.93848-1.58887-1.93848
					c-0.99951,0-1.59912,0.76953-1.59912,1.93848c0,1.11914,0.54932,1.93945,1.59912,1.93945
					C936.0459,2667.19263,936.5957,2666.37231,936.5957,2665.25317z"/>
				<path d="M938.61816,2665.25317c0-1.45898,0.94922-2.53809,2.3584-2.53809c1.39941,0,2.36865,1.0791,2.36865,2.53809
					c0,1.44922-0.95947,2.54883-2.36865,2.54883S938.61816,2666.71216,938.61816,2665.25317z M942.65576,2665.25317
					c0-1.11914-0.62988-1.92871-1.6792-1.92871c-1.05957,0-1.66895,0.81934-1.66895,1.92871
					c0,1.11914,0.61963,1.93945,1.66895,1.93945C942.03613,2667.19263,942.65576,2666.35278,942.65576,2665.25317z"/>
				<path d="M948.49561,2662.79419v4.92773h-0.68945v-0.70996c-0.3501,0.53027-0.97949,0.79004-1.62939,0.79004
					c-1.11914,0-1.60889-0.76953-1.60889-1.98926v-3.01855h0.68945v2.84863c0,0.7998,0.14014,1.5498,1.07959,1.5498
					c0.97949,0,1.46924-0.84961,1.46924-2.12891v-2.26953H948.49561z"/>
				<path d="M954.8252,2665.25317c0,1.46973-0.74951,2.54883-2.18896,2.54883c-0.71924,0-1.26904-0.28027-1.62891-0.73926v0.65918
					h-0.68945v-6.96582h0.68945v2.69824c0.36963-0.47949,0.92969-0.75,1.62891-0.75
					C954.00586,2662.70435,954.8252,2663.71411,954.8252,2665.25317z M954.13574,2665.25317
					c0-1.16895-0.59961-1.93848-1.59912-1.93848c-0.98975,0-1.58936,0.76953-1.58936,1.93848
					c0,1.11914,0.5498,1.93945,1.58936,1.93945C953.58594,2667.19263,954.13574,2666.37231,954.13574,2665.25317z"/>
				<path d="M958.25635,2667.67212c-0.25977,0.08008-0.52002,0.12988-0.74951,0.12988c-0.65967,0-1.13965-0.37012-1.13965-1.23926
					v-3.18848h-0.81934v-0.58008h0.81934v-1.37891l0.68945-0.51953v1.89844h1.18945v0.58008h-1.18945v3.09863
					c0,0.47949,0.22021,0.69922,0.60986,0.69922c0.16992,0,0.35986-0.04004,0.57959-0.10938L958.25635,2667.67212z"/>
			</g>
			<g enable-background="new    ">
				<path d="M869.04834,2678.7561h1.88916c2.26855,0,3.55811,1.28906,3.55811,3.53809c0,2.21875-1.25928,3.42773-3.56787,3.42773
					h-1.87939V2678.7561z M870.86768,2685.06274c1.94873,0,2.9082-0.91992,2.9082-2.79883
					c0-1.88867-0.95947-2.84863-2.84814-2.84863h-1.16943v5.64746H870.86768z"/>
				<path d="M879.87646,2680.79419v4.92773h-0.68945v-0.70996c-0.3501,0.53027-0.97949,0.79004-1.62939,0.79004
					c-1.11914,0-1.60889-0.76953-1.60889-1.98926v-3.01855h0.68945v2.84863c0,0.7998,0.14014,1.5498,1.07959,1.5498
					c0.97949,0,1.46924-0.84961,1.46924-2.12891v-2.26953H879.87646z"/>
				<path d="M886.20605,2683.25317c0,1.46973-0.74951,2.54883-2.18896,2.54883c-0.71924,0-1.26904-0.28027-1.62891-0.73926v0.65918
					h-0.68945v-6.96582h0.68945v2.69824c0.36963-0.47949,0.92969-0.75,1.62891-0.75
					C885.38672,2680.70435,886.20605,2681.71411,886.20605,2683.25317z M885.5166,2683.25317
					c0-1.16895-0.59961-1.93848-1.59912-1.93848c-0.98975,0-1.58936,0.76953-1.58936,1.93848
					c0,1.11914,0.5498,1.93945,1.58936,1.93945C884.9668,2685.19263,885.5166,2684.37231,885.5166,2683.25317z"/>
				<path d="M887.57861,2678.7561h0.79932v1.01953h-0.79932V2678.7561z M887.63867,2680.79419h0.68945v4.92773h-0.68945V2680.79419z
					"/>
				<path d="M892.19727,2685.67212c-0.25977,0.08008-0.52002,0.12988-0.74951,0.12988c-0.65967,0-1.13965-0.37012-1.13965-1.23926
					v-3.18848h-0.81934v-0.58008h0.81934v-1.37891l0.68994-0.51953v1.89844h1.18896v0.58008h-1.18896v3.09863
					c0,0.47949,0.21973,0.69922,0.60938,0.69922c0.16992,0,0.35986-0.04004,0.57959-0.10938L892.19727,2685.67212z"/>
				<path d="M897.17627,2682.65356v3.06836h-0.62988l-0.04004-0.75977c-0.38965,0.5498-0.98926,0.83984-1.76904,0.83984
					c-1.06934,0-1.69873-0.55957-1.69873-1.50977c0-0.49902,0.19971-0.87891,0.55957-1.09863
					c0.37988-0.21973,0.90967-0.31055,1.87891-0.31055h1.00928v-0.22949c0-0.85938-0.44971-1.3291-1.2793-1.3291
					c-0.61963,0-1.09912,0.26953-1.49902,0.81934l-0.49951-0.41992c0.5293-0.68945,1.16895-1.00879,2.00879-1.00879
					C896.45654,2680.71509,897.17627,2681.42407,897.17627,2682.65356z M896.48633,2683.51294v-0.06934h-0.94922
					c-0.90967,0-1.29932,0.05957-1.53906,0.24902c-0.18018,0.14062-0.27002,0.36035-0.27002,0.63965
					c0,0.5498,0.46973,0.90039,1.20947,0.90039C895.88672,2685.23267,896.48633,2684.56274,896.48633,2683.51294z"/>
				<path d="M900.90723,2685.67212c-0.25977,0.08008-0.52002,0.12988-0.74951,0.12988c-0.65967,0-1.13965-0.37012-1.13965-1.23926
					v-3.18848h-0.81934v-0.58008h0.81934v-1.37891l0.68994-0.51953v1.89844h1.18896v0.58008h-1.18896v3.09863
					c0,0.47949,0.21973,0.69922,0.60938,0.69922c0.16992,0,0.35986-0.04004,0.57959-0.10938L900.90723,2685.67212z"/>
				<path d="M902.1582,2678.7561h0.79932v1.01953h-0.79932V2678.7561z M902.21826,2680.79419h0.68945v4.92773h-0.68945V2680.79419z"
					/>
				<path d="M904.01807,2680.79419h0.75l1.54883,4.04785l1.55908-4.04785h0.75977l-2.01904,4.92773h-0.58936L904.01807,2680.79419z"
					/>
				<path d="M913.49561,2683.4436h-3.60791c0.02002,1.0791,0.61963,1.72852,1.58936,1.72852
					c0.53955,0,0.96924-0.13965,1.41895-0.61914l0.47998,0.41895c-0.57959,0.61035-1.14941,0.83008-1.90918,0.83008
					c-1.49902,0-2.26855-1.11914-2.26855-2.51855c0-1.38965,0.75977-2.56836,2.18896-2.56836
					c1.50879,0,2.13867,1.17871,2.13867,2.29785C913.52588,2683.15356,913.51562,2683.32349,913.49561,2683.4436z
					 M909.8877,2682.86353h2.97852c0-0.02051-0.01025-0.07031-0.01025-0.16016c-0.0498-0.7998-0.55957-1.40918-1.46875-1.40918
					C910.49756,2681.29419,909.94775,2681.99438,909.8877,2682.86353z"/>
				<path d="M919.69678,2685.67212c-0.25977,0.08008-0.52002,0.12988-0.74951,0.12988c-0.65967,0-1.13965-0.37012-1.13965-1.23926
					v-3.18848h-0.81934v-0.58008h0.81934v-1.37891l0.68945-0.51953v1.89844h1.18945v0.58008h-1.18945v3.09863
					c0,0.47949,0.22021,0.69922,0.60986,0.69922c0.16992,0,0.35986-0.04004,0.57959-0.10938L919.69678,2685.67212z"/>
				<path d="M924.85596,2683.4436h-3.60791c0.02002,1.0791,0.61963,1.72852,1.58936,1.72852
					c0.53955,0,0.96924-0.13965,1.41895-0.61914l0.47998,0.41895c-0.57959,0.61035-1.14941,0.83008-1.90918,0.83008
					c-1.49902,0-2.26855-1.11914-2.26855-2.51855c0-1.38965,0.75977-2.56836,2.18896-2.56836
					c1.50879,0,2.13867,1.17871,2.13867,2.29785C924.88623,2683.15356,924.87598,2683.32349,924.85596,2683.4436z
					 M921.24805,2682.86353h2.97852c0-0.02051-0.01025-0.07031-0.01025-0.16016c-0.0498-0.7998-0.55957-1.40918-1.46875-1.40918
					C921.85791,2681.29419,921.30811,2681.99438,921.24805,2682.86353z"/>
				<path d="M927.42773,2683.25317l-1.79932-2.45898h0.83984l1.41895,1.97949l1.40918-1.97949h0.83984l-1.79932,2.45898
					l1.80908,2.46875h-0.84961l-1.40918-1.99902l-1.40918,1.99902h-0.84961L927.42773,2683.25317z"/>
				<path d="M933.40674,2685.67212c-0.25977,0.08008-0.52002,0.12988-0.74951,0.12988c-0.65967,0-1.13965-0.37012-1.13965-1.23926
					v-3.18848h-0.81934v-0.58008h0.81934v-1.37891l0.68945-0.51953v1.89844h1.18945v0.58008h-1.18945v3.09863
					c0,0.47949,0.22021,0.69922,0.60986,0.69922c0.16992,0,0.35986-0.04004,0.57959-0.10938L933.40674,2685.67212z"/>
				<path d="M936.81787,2680.79419h0.73975l1.05957,3.88867l1.29883-3.88867h0.62988l1.28906,3.88867l1.06982-3.88867h0.72949
					l-1.43945,4.92773h-0.64941l-1.30957-3.97754l-1.3291,3.97754h-0.63965L936.81787,2680.79419z"/>
				<path d="M944.77783,2678.7561h0.79932v1.01953h-0.79932V2678.7561z M944.83789,2680.79419h0.68945v4.92773h-0.68945V2680.79419z
					"/>
				<path d="M949.39697,2685.67212c-0.25977,0.08008-0.52002,0.12988-0.74951,0.12988c-0.65967,0-1.13965-0.37012-1.13965-1.23926
					v-3.18848h-0.81934v-0.58008h0.81934v-1.37891l0.68945-0.51953v1.89844h1.18945v0.58008h-1.18945v3.09863
					c0,0.47949,0.22021,0.69922,0.60986,0.69922c0.16992,0,0.35986-0.04004,0.57959-0.10938L949.39697,2685.67212z"/>
				<path d="M954.63574,2682.70337v3.01855h-0.68945v-2.84863c0-1.06934-0.33984-1.54883-1.07959-1.54883
					c-0.93945,0-1.46924,0.76953-1.46924,2.12891v2.26855h-0.68945v-6.96582h0.68945v2.75781
					c0.31982-0.49902,0.91943-0.79883,1.62891-0.79883C954.08594,2680.71509,954.63574,2681.39478,954.63574,2682.70337z"/>
				<path d="M963.5752,2683.25317c0,1.46973-0.74951,2.54883-2.18896,2.54883c-0.71924,0-1.26904-0.28027-1.62891-0.73926v2.69824
					h-0.68945v-6.9668h0.68945v0.66016c0.36963-0.47949,0.92969-0.75,1.62891-0.75
					C962.75586,2680.70435,963.5752,2681.71411,963.5752,2683.25317z M962.88574,2683.25317
					c0-1.16895-0.59961-1.93848-1.59912-1.93848c-0.98975,0-1.58936,0.76953-1.58936,1.93848
					c0,1.11914,0.5498,1.93945,1.58936,1.93945C962.33594,2685.19263,962.88574,2684.37231,962.88574,2683.25317z"/>
				<path d="M968.67578,2682.65356v3.06836h-0.62988l-0.04004-0.75977c-0.38965,0.5498-0.98926,0.83984-1.76904,0.83984
					c-1.06934,0-1.69873-0.55957-1.69873-1.50977c0-0.49902,0.19971-0.87891,0.55957-1.09863
					c0.37988-0.21973,0.90967-0.31055,1.87891-0.31055h1.00928v-0.22949c0-0.85938-0.44971-1.3291-1.2793-1.3291
					c-0.61963,0-1.09912,0.26953-1.49902,0.81934l-0.49951-0.41992c0.5293-0.68945,1.16895-1.00879,2.00879-1.00879
					C967.95605,2680.71509,968.67578,2681.42407,968.67578,2682.65356z M967.98584,2683.51294v-0.06934h-0.94922
					c-0.90967,0-1.29932,0.05957-1.53906,0.24902c-0.18018,0.14062-0.27002,0.36035-0.27002,0.63965
					c0,0.5498,0.46973,0.90039,1.20947,0.90039C967.38623,2685.23267,967.98584,2684.56274,967.98584,2683.51294z"/>
				<path d="M973.35547,2680.92505l-0.33984,0.55957c-0.22949-0.10059-0.43945-0.15039-0.64941-0.15039
					c-0.75977,0-1.31934,0.56934-1.31934,1.63965v2.74805h-0.68945v-4.92773h0.68945v0.74023
					c0.35938-0.64941,0.95898-0.81934,1.45898-0.81934C972.80566,2680.71509,973.08594,2680.77466,973.35547,2680.92505z"/>
				<path d="M977.82422,2683.4436h-3.60742c0.01953,1.0791,0.61914,1.72852,1.58887,1.72852
					c0.54004,0,0.96973-0.13965,1.41895-0.61914l0.48047,0.41895c-0.58008,0.61035-1.14941,0.83008-1.90918,0.83008
					c-1.49902,0-2.26855-1.11914-2.26855-2.51855c0-1.38965,0.75977-2.56836,2.18848-2.56836
					c1.50879,0,2.13867,1.17871,2.13867,2.29785C977.85449,2683.15356,977.84473,2683.32349,977.82422,2683.4436z
					 M974.2168,2682.86353h2.97852c0-0.02051-0.01074-0.07031-0.01074-0.16016c-0.0498-0.7998-0.55957-1.40918-1.46875-1.40918
					C974.82617,2681.29419,974.27637,2681.99438,974.2168,2682.86353z"/>
				<path d="M983.1748,2682.70337v3.01855h-0.68945v-2.84863c0-1.05957-0.33984-1.54883-1.0791-1.54883
					c-0.92969,0-1.46973,0.7998-1.46973,2.18848v2.20898h-0.68945v-4.92773h0.68945v0.71973
					c0.32031-0.49902,0.91992-0.79883,1.62891-0.79883C982.625,2680.71509,983.1748,2681.39478,983.1748,2682.70337z"/>
				<path d="M986.92578,2685.67212c-0.25977,0.08008-0.51953,0.12988-0.74902,0.12988c-0.66016,0-1.13965-0.37012-1.13965-1.23926
					v-3.18848h-0.81934v-0.58008h0.81934v-1.37891l0.68945-0.51953v1.89844h1.18945v0.58008h-1.18945v3.09863
					c0,0.47949,0.21973,0.69922,0.60938,0.69922c0.16992,0,0.36035-0.04004,0.58008-0.10938L986.92578,2685.67212z"/>
				<path d="M992.08496,2683.4436h-3.6084c0.02051,1.0791,0.62012,1.72852,1.58984,1.72852
					c0.53906,0,0.96875-0.13965,1.41895-0.61914l0.47949,0.41895c-0.5791,0.61035-1.14941,0.83008-1.90918,0.83008
					c-1.49902,0-2.26855-1.11914-2.26855-2.51855c0-1.38965,0.75977-2.56836,2.18945-2.56836
					c1.50879,0,2.13867,1.17871,2.13867,2.29785C992.11523,2683.15356,992.10449,2683.32349,992.08496,2683.4436z
					 M988.47656,2682.86353h2.97852c0-0.02051-0.00977-0.07031-0.00977-0.16016c-0.0498-0.7998-0.55957-1.40918-1.46875-1.40918
					C989.08691,2681.29419,988.53711,2681.99438,988.47656,2682.86353z"/>
				<path d="M992.97754,2684.51294l0.5791-0.25977c0.17969,0.50977,0.66016,0.93945,1.42969,0.93945
					c0.66895,0,1.09961-0.33008,1.09961-0.84961c0-1.30957-2.83887-0.49023-2.83887-2.23926
					c0-0.85938,0.69922-1.38867,1.68945-1.38867c0.78906,0,1.42871,0.3291,1.76855,1.0293l-0.5498,0.2998
					c-0.23926-0.44043-0.62988-0.71973-1.23926-0.71973s-0.99902,0.25-0.99902,0.67969c0,1.16895,2.84766,0.42969,2.84766,2.29883
					c0,0.99902-0.81934,1.49902-1.76855,1.49902C994.02637,2685.802,993.2373,2685.302,992.97754,2684.51294z"/>
				<path d="M1002.01465,2683.4436h-3.6084c0.02051,1.0791,0.62012,1.72852,1.58984,1.72852
					c0.53906,0,0.96875-0.13965,1.41895-0.61914l0.47949,0.41895c-0.5791,0.61035-1.14941,0.83008-1.90918,0.83008
					c-1.49902,0-2.26855-1.11914-2.26855-2.51855c0-1.38965,0.75977-2.56836,2.18945-2.56836
					c1.50879,0,2.13867,1.17871,2.13867,2.29785C1002.04492,2683.15356,1002.03418,2683.32349,1002.01465,2683.4436z
					 M998.40625,2682.86353h2.97852c0-0.02051-0.00977-0.07031-0.00977-0.16016c-0.0498-0.7998-0.55957-1.40918-1.46875-1.40918
					C999.0166,2681.29419,998.4668,2681.99438,998.40625,2682.86353z"/>
				<path d="M1002.90723,2684.51294l0.58008-0.25977c0.17969,0.50977,0.65918,0.93945,1.42871,0.93945
					c0.66992,0,1.09961-0.33008,1.09961-0.84961c0-1.30957-2.83887-0.49023-2.83887-2.23926
					c0-0.85938,0.7002-1.38867,1.68945-1.38867c0.79004,0,1.42969,0.3291,1.76953,1.0293l-0.5498,0.2998
					c-0.24023-0.44043-0.62988-0.71973-1.23926-0.71973c-0.61035,0-1,0.25-1,0.67969c0,1.16895,2.84863,0.42969,2.84863,2.29883
					c0,0.99902-0.81934,1.49902-1.76855,1.49902C1003.95703,2685.802,1003.16699,2685.302,1002.90723,2684.51294z"/>
				<path d="M1010.39746,2683.25317c0-1.45898,0.94922-2.53809,2.3584-2.53809c1.39941,0,2.36816,1.0791,2.36816,2.53809
					c0,1.44922-0.95898,2.54883-2.36816,2.54883S1010.39746,2684.71216,1010.39746,2683.25317z M1014.43457,2683.25317
					c0-1.11914-0.62988-1.92871-1.67871-1.92871c-1.05957,0-1.66895,0.81934-1.66895,1.92871
					c0,1.11914,0.61914,1.93945,1.66895,1.93945C1013.81543,2685.19263,1014.43457,2684.35278,1014.43457,2683.25317z"/>
				<path d="M1019.51465,2680.92505l-0.33984,0.55957c-0.22949-0.10059-0.43945-0.15039-0.64941-0.15039
					c-0.75977,0-1.31934,0.56934-1.31934,1.63965v2.74805h-0.68945v-4.92773h0.68945v0.74023
					c0.36035-0.64941,0.95996-0.81934,1.45898-0.81934C1018.96582,2680.71509,1019.24512,2680.77466,1019.51465,2680.92505z"/>
				<path d="M1026.93457,2682.65356v3.06836h-0.62988l-0.04004-0.75977c-0.38965,0.5498-0.98926,0.83984-1.76855,0.83984
					c-1.06934,0-1.69922-0.55957-1.69922-1.50977c0-0.49902,0.2002-0.87891,0.55957-1.09863
					c0.37988-0.21973,0.91016-0.31055,1.87891-0.31055h1.00977v-0.22949c0-0.85938-0.4502-1.3291-1.2793-1.3291
					c-0.62012,0-1.09961,0.26953-1.49902,0.81934l-0.5-0.41992c0.5293-0.68945,1.16895-1.00879,2.00879-1.00879
					C1026.21484,2680.71509,1026.93457,2681.42407,1026.93457,2682.65356z M1026.24512,2683.51294v-0.06934h-0.94922
					c-0.91016,0-1.2998,0.05957-1.53906,0.24902c-0.18066,0.14062-0.27051,0.36035-0.27051,0.63965
					c0,0.5498,0.46973,0.90039,1.20996,0.90039C1025.64551,2685.23267,1026.24512,2684.56274,1026.24512,2683.51294z"/>
				<path d="M1028.08691,2684.51294l0.5791-0.25977c0.17969,0.50977,0.66016,0.93945,1.42969,0.93945
					c0.66895,0,1.09961-0.33008,1.09961-0.84961c0-1.30957-2.83887-0.49023-2.83887-2.23926
					c0-0.85938,0.69922-1.38867,1.68945-1.38867c0.78906,0,1.42871,0.3291,1.76855,1.0293l-0.5498,0.2998
					c-0.23926-0.44043-0.62988-0.71973-1.23926-0.71973s-0.99902,0.25-0.99902,0.67969c0,1.16895,2.84766,0.42969,2.84766,2.29883
					c0,0.99902-0.81934,1.49902-1.76855,1.49902C1029.13574,2685.802,1028.34668,2685.302,1028.08691,2684.51294z"/>
				<path d="M1033.2168,2678.7561h0.79883v1.01953h-0.79883V2678.7561z M1033.27637,2680.79419h0.68945v4.92773h-0.68945V2680.79419
					z"/>
				<path d="M1039.9043,2678.7561v6.96582h-0.69043v-0.65918c-0.35938,0.45898-0.90918,0.73926-1.62891,0.73926
					c-1.43848,0-2.18848-1.0791-2.18848-2.54883c0-1.53906,0.81934-2.54883,2.18848-2.54883c0.7002,0,1.25977,0.27051,1.62891,0.75
					v-2.69824H1039.9043z M1039.27441,2683.25317c0-1.16895-0.59961-1.93848-1.58887-1.93848c-1,0-1.59961,0.76953-1.59961,1.93848
					c0,1.11914,0.5498,1.93945,1.59961,1.93945C1038.72461,2685.19263,1039.27441,2684.37231,1039.27441,2683.25317z"/>
				<path d="M1045.62402,2683.4436h-3.6084c0.02051,1.0791,0.62012,1.72852,1.58984,1.72852
					c0.53906,0,0.96875-0.13965,1.41895-0.61914l0.47949,0.41895c-0.5791,0.61035-1.14941,0.83008-1.90918,0.83008
					c-1.49902,0-2.26855-1.11914-2.26855-2.51855c0-1.38965,0.75977-2.56836,2.18945-2.56836
					c1.50879,0,2.13867,1.17871,2.13867,2.29785C1045.6543,2683.15356,1045.64355,2683.32349,1045.62402,2683.4436z
					 M1042.01562,2682.86353h2.97852c0-0.02051-0.00977-0.07031-0.00977-0.16016c-0.0498-0.7998-0.55957-1.40918-1.46875-1.40918
					C1042.62598,2681.29419,1042.07617,2681.99438,1042.01562,2682.86353z"/>
				<path d="M1046.5166,2684.51294l0.5791-0.25977c0.17969,0.50977,0.66016,0.93945,1.42969,0.93945
					c0.66895,0,1.09961-0.33008,1.09961-0.84961c0-1.30957-2.83887-0.49023-2.83887-2.23926
					c0-0.85938,0.69922-1.38867,1.68945-1.38867c0.78906,0,1.42871,0.3291,1.76855,1.0293l-0.5498,0.2998
					c-0.23926-0.44043-0.62988-0.71973-1.23926-0.71973s-0.99902,0.25-0.99902,0.67969c0,1.16895,2.84766,0.42969,2.84766,2.29883
					c0,0.99902-0.81934,1.49902-1.76855,1.49902C1047.56543,2685.802,1046.77637,2685.302,1046.5166,2684.51294z"/>
			</g>
			<path id="Rectangle_181" fill="#FFD93B" d="M847.98401,2660.72217h9.88202c2.91321-0.14697,5.39764,2.0874,5.55902,5l0,0
				c-0.16138,2.91235-2.64581,5.14697-5.55902,5h-9.88202c-2.91321,0.14697-5.39764-2.08765-5.55902-5l0,0
				C842.58636,2662.80957,845.0708,2660.5752,847.98401,2660.72217z"/>
		</g>
	</g>
</g>
</svg>
