<svg xmlns="http://www.w3.org/2000/svg" xmlns:xlink="http://www.w3.org/1999/xlink" width="127" height="82" viewBox="0 0 127 82">
  <defs>
    <clipPath id="clip-legenda-01">
      <rect width="127" height="82"/>
    </clipPath>
  </defs>
  <g id="legenda-01" clip-path="url(#clip-legenda-01)">
    <g id="Group_793" data-name="Group 793" transform="translate(-842 -2619)">
      <text id="LEGENDA" transform="translate(845 2630)" font-size="12" font-family="HKGrotesk-SemiBold, HK Grotesk" font-weight="600"><tspan x="0" y="0">LEGENDA</tspan></text>
      <path id="Path_612" data-name="Path 612" d="M-762.5-1915.677c2.623,0,2.623,7,5.245,7s2.623-7,5.246-7,2.628,7,5.255,7,2.626-7,5.254-7" transform="translate(1604.984 4596.142)" fill="none" stroke="#4500ff" stroke-miterlimit="10" stroke-width="0.75"/>
      <text id="Testo_dubitativo_td_" data-name="Testo dubitativo  (td)" transform="translate(867.425 2650.083)" font-size="10" font-family="HKGrotesk-Regular, HK Grotesk" style="isolation: isolate"><tspan x="0" y="0" xml:space="preserve">Testo dubitativo  (td)</tspan></text>
      <path id="Rectangle_179" data-name="Rectangle 179" d="M-757-1952.058h9.882a5.3,5.3,0,0,1,5.559,5h0a5.3,5.3,0,0,1-5.559,5H-757a5.3,5.3,0,0,1-5.559-5h0A5.3,5.3,0,0,1-757-1952.058Z" transform="translate(1604.984 4596.142)" fill="#d1d1f8"/>
      <text id="Testo_oggetto_di_dubbio" data-name="Testo oggetto di dubbio" transform="translate(867.909 2667.722)" font-size="10" font-family="HKGrotesk-Regular, HK Grotesk" style="isolation: isolate"><tspan x="0" y="0">Testo oggetto di dubbio</tspan></text>
      <path id="Rectangle_181" data-name="Rectangle 181" d="M-757-1935.42h9.882a5.3,5.3,0,0,1,5.559,5h0a5.3,5.3,0,0,1-5.559,5H-757a5.3,5.3,0,0,1-5.559-5h0A5.3,5.3,0,0,1-757-1935.42Z" transform="translate(1604.984 4596.142)" fill="#ffd93b"/>
      <text id="Testo_dubitativo_con_incisi_o_parentesi" data-name="Testo dubitativo
con incisi o parentesi" transform="translate(867.426 2684.965)" font-size="10" font-family="HKGrotesk-Regular, HK Grotesk" style="isolation: isolate"><tspan x="0" y="0">Testo dubitativo</tspan><tspan x="0" y="10.8">con incisi o parentesi</tspan></text>
    </g>
  </g>
</svg>
