<svg xmlns="http://www.w3.org/2000/svg" xmlns:xlink="http://www.w3.org/1999/xlink" width="695" height="12.9" viewBox="0 0 695 12.9">
  <defs>
    <clipPath id="clip-legenda">
      <rect width="695" height="12.9"/>
    </clipPath>
  </defs>
  <g id="legenda" clip-path="url(#clip-legenda)">
    <g id="Group_24937" data-name="Group 24937">
      <text id="Testo_dubitativo_td_" data-name="Testo dubitativo (td)" transform="translate(25 9)" font-size="10" font-family="HKGrotesk-Regular, HK Grotesk" style="isolation: isolate"><tspan x="0" y="0">Testo dubitativo (td)</tspan></text>
      <path id="Path_47" data-name="Path 47" d="M6.749,27.676h9.882a5.3,5.3,0,0,1,5.559,5,5.3,5.3,0,0,1-5.559,5H6.749a5.3,5.3,0,0,1-5.559-5A5.3,5.3,0,0,1,6.749,27.676Z" transform="translate(-1.19 -26.676)" fill="#d6d6fc"/>
    </g>
    <g id="Group_24938" data-name="Group 24938" transform="translate(7)">
      <text id="Testo_oggetto_di_dubbio" data-name="Testo oggetto di dubbio" transform="translate(139 9)" font-size="10" font-family="HKGrotesk-Regular, HK Grotesk" style="isolation: isolate"><tspan x="0" y="0">Testo oggetto di dubbio</tspan></text>
      <path id="Path_46" data-name="Path 46" d="M114.061,28.676h9.882a5.3,5.3,0,0,1,5.559,5,5.3,5.3,0,0,1-5.559,5h-9.882a5.3,5.3,0,0,1-5.559-5A5.3,5.3,0,0,1,114.061,28.676Z" transform="translate(4.498 -27.676)" fill="#ffd93b"/>
    </g>
    <g id="Group_24939" data-name="Group 24939" transform="translate(7)">
      <text id="Testo_dubitativo_e_oggetto_di_dubbio" data-name="Testo dubitativo e oggetto di dubbio" transform="translate(275 9)" font-size="10" font-family="HKGrotesk-Regular, HK Grotesk" style="isolation: isolate"><tspan x="0" y="0">Testo dubitativo e oggetto di dubbio</tspan></text>
      <path id="Path_46-2" data-name="Path 46" d="M114.061,28.676h9.882a5.3,5.3,0,0,1,5.559,5,5.3,5.3,0,0,1-5.559,5h-9.882a5.3,5.3,0,0,1-5.559-5A5.3,5.3,0,0,1,114.061,28.676Z" transform="translate(142.498 -27.676)" fill="#00c19c"/>
    </g>
    <g id="Group_24940" data-name="Group 24940" transform="translate(12)">
      <text id="Testo_dubitativo_con_incisi_o_parentesi" data-name="Testo dubitativo con incisi o parentesi" transform="translate(462.785 9)" font-size="10" font-family="HKGrotesk-Regular, HK Grotesk" style="isolation: isolate"><tspan x="0" y="0">Testo dubitativo con incisi o parentesi</tspan></text>
      <path id="Path_649" data-name="Path 649" d="M749.274,9.138c2.056,0,2.056,4.46,4.113,4.46s2.054-4.46,4.109-4.46,2.055,4.46,4.11,4.46,2.055-4.46,4.111-4.46,2.06,4.46,4.118,4.46,2.06-4.46,4.118-4.46" transform="translate(-314.274 -4.948)" fill="none" stroke="#4500ff" stroke-miterlimit="10" stroke-width="0.75"/>
    </g>
  </g>
</svg>
