<svg xmlns="http://www.w3.org/2000/svg" xmlns:xlink="http://www.w3.org/1999/xlink" width="900" height="318" viewBox="0 0 900 318">
  <defs>
    <linearGradient id="linear-gradient" y1="0.5" x2="1" y2="0.5" gradientUnits="objectBoundingBox">
      <stop offset="0" stop-color="#f3f3f3"/>
      <stop offset="0.75" stop-color="#fff"/>
    </linearGradient>
    <clipPath id="clip-zoom-01">
      <rect width="900" height="318"/>
    </clipPath>
  </defs>
  <g id="zoom-01" clip-path="url(#clip-zoom-01)">
    <g id="Group_617" data-name="Group 617" transform="translate(9.121 -35.769)">
      <g id="Group_595" data-name="Group 595" transform="translate(44.734 294.883)">
        <path id="Path_598" data-name="Path 598" d="M90.818,2906.931v-8H936.4v8" transform="translate(-90.818 -2898.935)" fill="none" stroke="#000" stroke-width="1.27"/>
      </g>
      <text id="Nota_dell_autore" data-name="Nota 
dell’autore" transform="translate(31.891 306.84) rotate(-45)" font-size="10" font-family="HKGrotesk-Regular, HK Grotesk" style="isolation: isolate"><tspan x="-23.281" y="0">Nota </tspan><tspan x="-45.61" y="10">dell’autore</tspan></text>
      <text id="Cap._1" data-name="Cap. 1" transform="translate(33.389 338.053) rotate(-45)" font-size="10" font-family="HKGrotesk-Regular, HK Grotesk" style="isolation: isolate"><tspan x="0" y="0">Cap. 1</tspan></text>
      <text id="Cap._2" data-name="Cap. 2" transform="translate(48.465 338.053) rotate(-45)" font-size="10" font-family="HKGrotesk-Regular, HK Grotesk" style="isolation: isolate"><tspan x="0" y="0">Cap. 2</tspan></text>
      <text id="Cap._3" data-name="Cap. 3" transform="translate(105.485 338.053) rotate(-45)" font-size="10" font-family="HKGrotesk-Regular, HK Grotesk" style="isolation: isolate"><tspan x="0" y="0">Cap. 3</tspan></text>
      <line id="Line_273" data-name="Line 273" y2="8.723" transform="translate(52.336 294.52)" fill="none" stroke="#000" stroke-width="1.271"/>
      <line id="Line_274" data-name="Line 274" y2="8.723" transform="translate(63.829 294.52)" fill="none" stroke="#000" stroke-width="1.271"/>
      <line id="Line_275" data-name="Line 275" y2="8.723" transform="translate(121.75 294.52)" fill="none" stroke="#000" stroke-width="1.271"/>
      <text id="Cap._4" data-name="Cap. 4" transform="translate(210.975 338.053) rotate(-45)" font-size="10" font-family="HKGrotesk-Regular, HK Grotesk" style="isolation: isolate"><tspan x="0" y="0">Cap. 4</tspan></text>
      <line id="Line_276" data-name="Line 276" y2="8.723" transform="translate(228.789 294.52)" fill="none" stroke="#000" stroke-width="1.271"/>
      <text id="Cap._5" data-name="Cap. 5" transform="translate(244.213 338.053) rotate(-45)" font-size="10" font-family="HKGrotesk-Regular, HK Grotesk" style="isolation: isolate"><tspan x="0" y="0">Cap. 5</tspan></text>
      <line id="Line_277" data-name="Line 277" y2="8.723" transform="translate(261.764 294.52)" fill="none" stroke="#000" stroke-width="1.271"/>
      <text id="Cap._6" data-name="Cap. 6" transform="translate(302.814 338.053) rotate(-45)" font-size="10" font-family="HKGrotesk-Regular, HK Grotesk" style="isolation: isolate"><tspan x="0" y="0">Cap. 6</tspan></text>
      <line id="Line_278" data-name="Line 278" y2="8.723" transform="translate(320.745 294.52)" fill="none" stroke="#000" stroke-width="1.271"/>
      <text id="Cap._7" data-name="Cap. 7" transform="translate(369.84 338.053) rotate(-45)" font-size="10" font-family="HKGrotesk-Regular, HK Grotesk" style="isolation: isolate"><tspan x="0" y="0">Cap. 7</tspan></text>
      <line id="Line_279" data-name="Line 279" y2="8.723" transform="translate(389.331 294.52)" fill="none" stroke="#000" stroke-width="1.271"/>
      <text id="Cap._8" data-name="Cap. 8" transform="translate(393.449 338.053) rotate(-45)" font-size="10" font-family="HKGrotesk-Regular, HK Grotesk" style="isolation: isolate"><tspan x="0" y="0">Cap. 8</tspan></text>
      <line id="Line_280" data-name="Line 280" y2="8.723" transform="translate(410.761 294.52)" fill="none" stroke="#000" stroke-width="1.271"/>
      <text id="Cap._9" data-name="Cap. 9" transform="translate(438.318 338.053) rotate(-45)" font-size="10" font-family="HKGrotesk-Regular, HK Grotesk" style="isolation: isolate"><tspan x="0" y="0">Cap. 9</tspan></text>
      <line id="Line_281" data-name="Line 281" y2="8.723" transform="translate(455.339 294.52)" fill="none" stroke="#000" stroke-width="1.271"/>
      <text id="Cap._10" data-name="Cap. 10" transform="translate(494.935 342.296) rotate(-45)" font-size="10" font-family="HKGrotesk-Regular, HK Grotesk" style="isolation: isolate"><tspan x="0" y="0">Cap. 10</tspan></text>
      <line id="Line_282" data-name="Line 282" y2="8.723" transform="translate(516.098 294.52)" fill="none" stroke="#000" stroke-width="1.271"/>
      <text id="Cap._11" data-name="Cap. 11" transform="translate(542.029 342.296) rotate(-45)" font-size="10" font-family="HKGrotesk-Regular, HK Grotesk" style="isolation: isolate"><tspan x="0" y="0">Cap. 11</tspan></text>
      <line id="Line_283" data-name="Line 283" y2="8.723" transform="translate(563.987 294.366)" fill="none" stroke="#000" stroke-width="1.271"/>
      <text id="Cap._12" data-name="Cap. 12" transform="translate(678.219 342.296) rotate(-45)" font-size="10" font-family="HKGrotesk-Regular, HK Grotesk" style="isolation: isolate"><tspan x="0" y="0">Cap. 12</tspan></text>
      <line id="Line_284" data-name="Line 284" y2="8.723" transform="translate(699.286 294.407)" fill="none" stroke="#000" stroke-width="1.271"/>
      <text id="Cap._13" data-name="Cap. 13" transform="translate(810.322 342.296) rotate(-45)" font-size="10" font-family="HKGrotesk-Regular, HK Grotesk" style="isolation: isolate"><tspan x="0" y="0">Cap. 13</tspan></text>
      <line id="Line_285" data-name="Line 285" y2="8.723" transform="translate(828.665 294.52)" fill="none" stroke="#000" stroke-width="1.271"/>
      <text id="Cap._14" data-name="Cap. 14" transform="translate(846.896 342.296) rotate(-45)" font-size="10" font-family="HKGrotesk-Regular, HK Grotesk" style="isolation: isolate"><tspan x="0" y="0">Cap. 14</tspan></text>
      <line id="Line_286" data-name="Line 286" y2="8.723" transform="translate(870.864 294.52)" fill="none" stroke="#000" stroke-width="1.271"/>
      <text id="Cap._15" data-name="Cap. 15" transform="translate(866.785 342.296) rotate(-45)" font-size="10" font-family="HKGrotesk-Regular, HK Grotesk" style="isolation: isolate"><tspan x="0" y="0">Cap. 15</tspan></text>
      <path id="Path_599" data-name="Path 599" d="M323.86,2898.56" transform="translate(-56.083 -2604.04)" fill="none" stroke="#000" stroke-width="1.297"/>
      <line id="Line_287" data-name="Line 287" x2="193.509" transform="translate(697.019 88.455)" fill="none" stroke="#999" stroke-width="0.5"/>
      <text id="_27" data-name="27" transform="translate(8.307 79.934)" font-size="10" font-family="HKGrotesk-Regular, HK Grotesk" style="isolation: isolate"><tspan x="0" y="0">27</tspan></text>
      <text id="Numero_di_occorrenze" data-name="Numero di occorrenze" transform="translate(-8.693 45.502)" font-size="10" font-family="HKGrotesk-Regular, HK Grotesk" style="isolation: isolate"><tspan x="0" y="0">Numero di occorrenze</tspan></text>
      <text id="_23" data-name="23" transform="translate(8.307 112.669)" font-size="10" font-family="HKGrotesk-Bold, HK Grotesk" font-weight="700" style="isolation: isolate"><tspan x="0" y="0">23</tspan></text>
      <rect id="Rectangle_2130" data-name="Rectangle 2130" width="6.739" height="233.92" transform="translate(45.165 60.6)" fill="url(#linear-gradient)"/>
      <rect id="Rectangle_2131" data-name="Rectangle 2131" width="11.493" height="233.92" transform="translate(52.336 60.6)" fill="url(#linear-gradient)"/>
      <rect id="Rectangle_2132" data-name="Rectangle 2132" width="57.921" height="233.92" transform="translate(63.829 60.6)" fill="url(#linear-gradient)"/>
      <rect id="Rectangle_2133" data-name="Rectangle 2133" width="109.44" height="233.92" transform="translate(121.75 60.6)" fill="url(#linear-gradient)"/>
      <rect id="Rectangle_2134" data-name="Rectangle 2134" width="33.308" height="233.92" transform="translate(228.698 60.6)" fill="url(#linear-gradient)"/>
      <rect id="Rectangle_2135" data-name="Rectangle 2135" width="59.577" height="233.92" transform="translate(261.573 60.6)" fill="url(#linear-gradient)"/>
      <rect id="Rectangle_2136" data-name="Rectangle 2136" width="69.278" height="233.92" transform="translate(320.472 60.6)" fill="url(#linear-gradient)"/>
      <rect id="Rectangle_2137" data-name="Rectangle 2137" width="21.647" height="233.92" transform="translate(389.233 60.6)" fill="url(#linear-gradient)"/>
      <rect id="Rectangle_2138" data-name="Rectangle 2138" width="45.027" height="233.92" transform="translate(410.541 60.6)" fill="url(#linear-gradient)"/>
      <rect id="Rectangle_2139" data-name="Rectangle 2139" width="61.373" height="233.92" transform="translate(455.001 60.6)" fill="url(#linear-gradient)"/>
      <rect id="Rectangle_2140" data-name="Rectangle 2140" width="48.42" height="233.92" transform="translate(515.801 60.6)" fill="url(#linear-gradient)"/>
      <rect id="Rectangle_2141" data-name="Rectangle 2141" width="136.624" height="233.92" transform="translate(563.015 60.6)" fill="url(#linear-gradient)"/>
      <rect id="Rectangle_2142" data-name="Rectangle 2142" width="131.381" height="233.92" transform="translate(697.322 60.6)" fill="url(#linear-gradient)"/>
      <rect id="Rectangle_2143" data-name="Rectangle 2143" width="42.173" height="233.92" transform="translate(828.703 60.6)" fill="url(#linear-gradient)"/>
      <rect id="Rectangle_2144" data-name="Rectangle 2144" width="20.002" height="233.92" transform="translate(870.876 60.6)" fill="url(#linear-gradient)"/>
      <g id="Group_596" data-name="Group 596" transform="translate(44.734 80.656)" style="mix-blend-mode: multiply;isolation: isolate">
        <path id="Path_600" data-name="Path 600" d="M90.818,2860.056c3.52,0,3.52,15.842,7.039,15.842,6.282,0,6.282-166.339,12.563-166.339,28.542,0,28.542-23.763,57.083-23.763,52.9,0,52.9,158.418,105.8,158.418,17.922,0,17.922-79.209,35.843-79.209,29.052,0,29.052,39.6,58.1,39.6h68.472c10.741,0,10.741,47.527,21.482,47.527,22.308,0,22.308-110.894,44.615-110.894,30.007,0,30.007,47.525,60.013,47.525,24.935,0,24.935-110.892,49.87-110.892,66.735,0,66.735,7.92,133.469,7.92,64.756,0,64.756,79.209,129.513,79.209,21.441,0,21.441,102.972,42.882,102.972,9.418,0,9.418-23.763,18.836-23.763v47.525H90.818Z" transform="translate(-90.818 -2677.875)" fill="#bbf" stroke="#60f" stroke-miterlimit="10" stroke-width="0.979"/>
      </g>
      <line id="Line_288" data-name="Line 288" x2="38.508" transform="translate(26.5 112.542)" fill="none" stroke="#000" stroke-width="1"/>
      <line id="Line_289" data-name="Line 289" x2="864.379" transform="translate(26.5 80.655)" fill="none" stroke="#999" stroke-width="0.5"/>
      <line id="Line_290" data-name="Line 290" x2="534.597" transform="translate(26.149 88.455)" fill="none" stroke="#999" stroke-width="0.5"/>
    </g>
  </g>
</svg>
