<svg xmlns="http://www.w3.org/2000/svg" xmlns:xlink="http://www.w3.org/1999/xlink" width="900" height="318" viewBox="0 0 900 318"><defs><linearGradient id="a" y1="0.5" x2="1" y2="0.5" gradientUnits="objectBoundingBox"><stop offset="0" stop-color="#f3f3f3"/><stop offset="0.75" stop-color="#fff"/></linearGradient><clipPath id="q"><rect width="900" height="318"/></clipPath></defs><g id="p" clip-path="url(#q)"><g transform="translate(9.121 -35.769)"><g transform="translate(44.734 294.883)"><path d="M90.818,2906.931v-8H936.4v8" transform="translate(-90.818 -2898.935)" fill="none" stroke="#000" stroke-width="1.27"/></g><text transform="translate(31.891 306.84) rotate(-45)" font-size="10" font-family="HKGrotesk-Regular, HK Grotesk" style="isolation:isolate"><tspan x="-23.281" y="0">Nota </tspan><tspan x="-45.61" y="10">dell’autore</tspan></text><text transform="translate(33.389 338.053) rotate(-45)" font-size="10" font-family="HKGrotesk-Regular, HK Grotesk" style="isolation:isolate"><tspan x="0" y="0">Cap. 1</tspan></text><text transform="translate(48.465 338.053) rotate(-45)" font-size="10" font-family="HKGrotesk-Regular, HK Grotesk" style="isolation:isolate"><tspan x="0" y="0">Cap. 2</tspan></text><text transform="translate(105.485 338.053) rotate(-45)" font-size="10" font-family="HKGrotesk-Regular, HK Grotesk" style="isolation:isolate"><tspan x="0" y="0">Cap. 3</tspan></text><line y2="8.723" transform="translate(52.336 294.52)" fill="none" stroke="#000" stroke-width="1.271"/><line y2="8.723" transform="translate(63.829 294.52)" fill="none" stroke="#000" stroke-width="1.271"/><line y2="8.723" transform="translate(121.75 294.52)" fill="none" stroke="#000" stroke-width="1.271"/><text transform="translate(210.975 338.053) rotate(-45)" font-size="10" font-family="HKGrotesk-Regular, HK Grotesk" style="isolation:isolate"><tspan x="0" y="0">Cap. 4</tspan></text><line y2="8.723" transform="translate(228.789 294.52)" fill="none" stroke="#000" stroke-width="1.271"/><text transform="translate(244.213 338.053) rotate(-45)" font-size="10" font-family="HKGrotesk-Regular, HK Grotesk" style="isolation:isolate"><tspan x="0" y="0">Cap. 5</tspan></text><line y2="8.723" transform="translate(261.764 294.52)" fill="none" stroke="#000" stroke-width="1.271"/><text transform="translate(302.814 338.053) rotate(-45)" font-size="10" font-family="HKGrotesk-Regular, HK Grotesk" style="isolation:isolate"><tspan x="0" y="0">Cap. 6</tspan></text><line y2="8.723" transform="translate(320.745 294.52)" fill="none" stroke="#000" stroke-width="1.271"/><text transform="translate(369.84 338.053) rotate(-45)" font-size="10" font-family="HKGrotesk-Regular, HK Grotesk" style="isolation:isolate"><tspan x="0" y="0">Cap. 7</tspan></text><line y2="8.723" transform="translate(389.331 294.52)" fill="none" stroke="#000" stroke-width="1.271"/><text transform="translate(393.449 338.053) rotate(-45)" font-size="10" font-family="HKGrotesk-Regular, HK Grotesk" style="isolation:isolate"><tspan x="0" y="0">Cap. 8</tspan></text><line y2="8.723" transform="translate(410.761 294.52)" fill="none" stroke="#000" stroke-width="1.271"/><text transform="translate(438.318 338.053) rotate(-45)" font-size="10" font-family="HKGrotesk-Regular, HK Grotesk" style="isolation:isolate"><tspan x="0" y="0">Cap. 9</tspan></text><line y2="8.723" transform="translate(455.339 294.52)" fill="none" stroke="#000" stroke-width="1.271"/><text transform="translate(494.935 342.296) rotate(-45)" font-size="10" font-family="HKGrotesk-Regular, HK Grotesk" style="isolation:isolate"><tspan x="0" y="0">Cap. 10</tspan></text><line y2="8.723" transform="translate(516.098 294.52)" fill="none" stroke="#000" stroke-width="1.271"/><text transform="translate(542.029 342.296) rotate(-45)" font-size="10" font-family="HKGrotesk-Regular, HK Grotesk" style="isolation:isolate"><tspan x="0" y="0">Cap. 11</tspan></text><line y2="8.723" transform="translate(563.987 294.366)" fill="none" stroke="#000" stroke-width="1.271"/><text transform="translate(678.219 342.296) rotate(-45)" font-size="10" font-family="HKGrotesk-Regular, HK Grotesk" style="isolation:isolate"><tspan x="0" y="0">Cap. 12</tspan></text><line y2="8.723" transform="translate(699.286 294.407)" fill="none" stroke="#000" stroke-width="1.271"/><text transform="translate(810.322 342.296) rotate(-45)" font-size="10" font-family="HKGrotesk-Regular, HK Grotesk" style="isolation:isolate"><tspan x="0" y="0">Cap. 13</tspan></text><line y2="8.723" transform="translate(828.665 294.52)" fill="none" stroke="#000" stroke-width="1.271"/><text transform="translate(846.896 342.296) rotate(-45)" font-size="10" font-family="HKGrotesk-Regular, HK Grotesk" style="isolation:isolate"><tspan x="0" y="0">Cap. 14</tspan></text><line y2="8.723" transform="translate(870.864 294.52)" fill="none" stroke="#000" stroke-width="1.271"/><text transform="translate(866.785 342.296) rotate(-45)" font-size="10" font-family="HKGrotesk-Regular, HK Grotesk" style="isolation:isolate"><tspan x="0" y="0">Cap. 15</tspan></text><path d="M323.86,2898.56" transform="translate(-56.083 -2604.04)" fill="none" stroke="#000" stroke-width="1.297"/><line x2="193.509" transform="translate(697.019 88.455)" fill="none" stroke="#999" stroke-width="0.5"/><text transform="translate(8.307 79.934)" font-size="10" font-family="HKGrotesk-Regular, HK Grotesk" style="isolation:isolate"><tspan x="0" y="0">27</tspan></text><text transform="translate(8.307 91.934)" font-size="10" font-family="HKGrotesk-Regular, HK Grotesk" style="isolation:isolate"><tspan x="0" y="0">26</tspan></text><text transform="translate(-8.693 45.502)" font-size="10" font-family="HKGrotesk-Regular, HK Grotesk" style="isolation:isolate"><tspan x="0" y="0">Numero di occorrenze</tspan></text><text transform="translate(8.307 112.669)" font-size="10" font-family="HKGrotesk-Bold, HK Grotesk" font-weight="700" style="isolation:isolate"><tspan x="0" y="0">23</tspan></text><rect width="6.739" height="233.92" transform="translate(45.165 60.6)" fill="url(#a)"/><rect width="11.493" height="233.92" transform="translate(52.336 60.6)" fill="url(#a)"/><rect width="57.921" height="233.92" transform="translate(63.829 60.6)" fill="url(#a)"/><rect width="109.44" height="233.92" transform="translate(121.75 60.6)" fill="url(#a)"/><rect width="33.308" height="233.92" transform="translate(228.698 60.6)" fill="url(#a)"/><rect width="59.577" height="233.92" transform="translate(261.573 60.6)" fill="url(#a)"/><rect width="69.278" height="233.92" transform="translate(320.472 60.6)" fill="url(#a)"/><rect width="21.647" height="233.92" transform="translate(389.233 60.6)" fill="url(#a)"/><rect width="45.027" height="233.92" transform="translate(410.541 60.6)" fill="url(#a)"/><rect width="61.373" height="233.92" transform="translate(455.001 60.6)" fill="url(#a)"/><rect width="48.42" height="233.92" transform="translate(515.801 60.6)" fill="url(#a)"/><rect width="136.624" height="233.92" transform="translate(563.015 60.6)" fill="url(#a)"/><rect width="131.381" height="233.92" transform="translate(697.322 60.6)" fill="url(#a)"/><rect width="42.173" height="233.92" transform="translate(828.703 60.6)" fill="url(#a)"/><rect width="20.002" height="233.92" transform="translate(870.876 60.6)" fill="url(#a)"/><g transform="translate(44.734 80.656)" style="mix-blend-mode:multiply;isolation:isolate"><path d="M90.818,2860.056c3.52,0,3.52,15.842,7.039,15.842,6.282,0,6.282-166.339,12.563-166.339,28.542,0,28.542-23.763,57.083-23.763,52.9,0,52.9,158.418,105.8,158.418,17.922,0,17.922-79.209,35.843-79.209,29.052,0,29.052,39.6,58.1,39.6h68.472c10.741,0,10.741,47.527,21.482,47.527,22.308,0,22.308-110.894,44.615-110.894,30.007,0,30.007,47.525,60.013,47.525,24.935,0,24.935-110.892,49.87-110.892,66.735,0,66.735,7.92,133.469,7.92,64.756,0,64.756,79.209,129.513,79.209,21.441,0,21.441,102.972,42.882,102.972,9.418,0,9.418-23.763,18.836-23.763v47.525H90.818Z" transform="translate(-90.818 -2677.875)" fill="#bbf" stroke="#60f" stroke-miterlimit="10" stroke-width="0.979"/></g><line x2="38.508" transform="translate(26.5 112.542)" fill="none" stroke="#000" stroke-width="1"/><line x2="864.379" transform="translate(26.5 80.655)" fill="none" stroke="#999" stroke-width="0.5"/><line x2="95.229" transform="translate(26.149 88.455)" fill="none" stroke="#999" stroke-width="0.5"/></g></g></svg>