<svg xmlns="http://www.w3.org/2000/svg" xmlns:xlink="http://www.w3.org/1999/xlink" width="1061" height="376" viewBox="0 0 1061 376">
  <defs>
    <linearGradient id="linear-gradient" y1="0.5" x2="1" y2="0.5" gradientUnits="objectBoundingBox">
      <stop offset="0" stop-color="#f3f3f3"/>
      <stop offset="0.75" stop-color="#fff"/>
    </linearGradient>
    <clipPath id="clip-zoom_02">
      <rect width="1061" height="376"/>
    </clipPath>
  </defs>
  <g id="zoom_02" clip-path="url(#clip-zoom_02)">
    <g id="Group_617" data-name="Group 617" transform="translate(0 -29.769)">
      <g id="Group_595" data-name="Group 595" transform="translate(52.856 341.247)">
        <path id="Path_598" data-name="Path 598" d="M90.818,2908.36v-9.425H1098.295v9.425" transform="translate(-90.818 -2898.935)" fill="none" stroke="#000" stroke-width="1.27"/>
      </g>
      <text id="Nota_dell_autore" data-name="Nota 
dell’autore" transform="translate(6.364 384.489) rotate(-45)" font-size="10" font-family="HKGrotesk-Regular, HK Grotesk" style="isolation: isolate"><tspan x="0" y="0">Nota </tspan><tspan x="0" y="12">dell’autore</tspan></text>
      <text id="Cap._1" data-name="Cap. 1" transform="translate(42.244 384.489) rotate(-45)" font-size="10" font-family="HKGrotesk-Regular, HK Grotesk" style="isolation: isolate"><tspan x="0" y="0">Cap. 1</tspan></text>
      <text id="Cap._2" data-name="Cap. 2" transform="translate(57.657 384.489) rotate(-45)" font-size="10" font-family="HKGrotesk-Regular, HK Grotesk" style="isolation: isolate"><tspan x="0" y="0">Cap. 2</tspan></text>
      <text id="Cap._3" data-name="Cap. 3" transform="translate(124.87 384.489) rotate(-45)" font-size="10" font-family="HKGrotesk-Regular, HK Grotesk" style="isolation: isolate"><tspan x="0" y="0">Cap. 3</tspan></text>
      <line id="Line_273" data-name="Line 273" y2="10.282" transform="translate(61.817 340.819)" fill="none" stroke="#000" stroke-width="1.271"/>
      <line id="Line_274" data-name="Line 274" y2="10.282" transform="translate(75.365 340.819)" fill="none" stroke="#000" stroke-width="1.271"/>
      <line id="Line_275" data-name="Line 275" y2="10.282" transform="translate(143.639 340.819)" fill="none" stroke="#000" stroke-width="1.271"/>
      <text id="Cap._4" data-name="Cap. 4" transform="translate(251.84 384.489) rotate(-45)" font-size="10" font-family="HKGrotesk-Regular, HK Grotesk" style="isolation: isolate"><tspan x="0" y="0">Cap. 4</tspan></text>
      <line id="Line_276" data-name="Line 276" y2="10.282" transform="translate(272.642 340.819)" fill="none" stroke="#000" stroke-width="1.271"/>
      <text id="Cap._5" data-name="Cap. 5" transform="translate(291.428 384.489) rotate(-45)" font-size="10" font-family="HKGrotesk-Regular, HK Grotesk" style="isolation: isolate"><tspan x="0" y="0">Cap. 5</tspan></text>
      <line id="Line_277" data-name="Line 277" y2="10.282" transform="translate(311.904 340.819)" fill="none" stroke="#000" stroke-width="1.271"/>
      <text id="Cap._6" data-name="Cap. 6" transform="translate(361.225 384.489) rotate(-45)" font-size="10" font-family="HKGrotesk-Regular, HK Grotesk" style="isolation: isolate"><tspan x="0" y="0">Cap. 6</tspan></text>
      <line id="Line_278" data-name="Line 278" y2="10.282" transform="translate(382.13 340.819)" fill="none" stroke="#000" stroke-width="1.271"/>
      <text id="Cap._7" data-name="Cap. 7" transform="translate(441.058 384.489) rotate(-45)" font-size="10" font-family="HKGrotesk-Regular, HK Grotesk" style="isolation: isolate"><tspan x="0" y="0">Cap. 7</tspan></text>
      <line id="Line_279" data-name="Line 279" y2="10.282" transform="translate(463.791 340.819)" fill="none" stroke="#000" stroke-width="1.271"/>
      <text id="Cap._8" data-name="Cap. 8" transform="translate(469.177 384.489) rotate(-45)" font-size="10" font-family="HKGrotesk-Regular, HK Grotesk" style="isolation: isolate"><tspan x="0" y="0">Cap. 8</tspan></text>
      <line id="Line_280" data-name="Line 280" y2="10.282" transform="translate(489.307 340.819)" fill="none" stroke="#000" stroke-width="1.271"/>
      <text id="Cap._9" data-name="Cap. 9" transform="translate(522.619 384.489) rotate(-45)" font-size="10" font-family="HKGrotesk-Regular, HK Grotesk" style="isolation: isolate"><tspan x="0" y="0">Cap. 9</tspan></text>
      <line id="Line_281" data-name="Line 281" y2="10.282" transform="translate(542.383 340.819)" fill="none" stroke="#000" stroke-width="1.271"/>
      <text id="Cap._10" data-name="Cap. 10" transform="translate(590.084 384.489) rotate(-45)" font-size="10" font-family="HKGrotesk-Regular, HK Grotesk" style="isolation: isolate"><tspan x="0" y="0">Cap. 10</tspan></text>
      <line id="Line_282" data-name="Line 282" y2="10.282" transform="translate(614.726 340.819)" fill="none" stroke="#000" stroke-width="1.271"/>
      <text id="Cap._11" data-name="Cap. 11" transform="translate(646.178 384.489) rotate(-45)" font-size="10" font-family="HKGrotesk-Regular, HK Grotesk" style="isolation: isolate"><tspan x="0" y="0">Cap. 11</tspan></text>
      <line id="Line_283" data-name="Line 283" y2="10.282" transform="translate(671.745 340.637)" fill="none" stroke="#000" stroke-width="1.271"/>
      <text id="Cap._12" data-name="Cap. 12" transform="translate(808.397 384.489) rotate(-45)" font-size="10" font-family="HKGrotesk-Regular, HK Grotesk" style="isolation: isolate"><tspan x="0" y="0">Cap. 12</tspan></text>
      <line id="Line_284" data-name="Line 284" y2="10.282" transform="translate(832.84 340.686)" fill="none" stroke="#000" stroke-width="1.271"/>
      <text id="Cap._13" data-name="Cap. 13" transform="translate(966.447 384.489) rotate(-45)" font-size="10" font-family="HKGrotesk-Regular, HK Grotesk" style="isolation: isolate"><tspan x="0" y="0">Cap. 13</tspan></text>
      <line id="Line_285" data-name="Line 285" y2="10.282" transform="translate(987.666 340.819)" fill="none" stroke="#000" stroke-width="1.271"/>
      <text id="Cap._14" data-name="Cap. 14" transform="translate(1009.559 384.489) rotate(-45)" font-size="10" font-family="HKGrotesk-Regular, HK Grotesk" style="isolation: isolate"><tspan x="0" y="0">Cap. 14</tspan></text>
      <line id="Line_286" data-name="Line 286" y2="10.282" transform="translate(1037.408 340.819)" fill="none" stroke="#000" stroke-width="1.271"/>
      <text id="Cap._15" data-name="Cap. 15" transform="translate(1033.003 384.489) rotate(-45)" font-size="10" font-family="HKGrotesk-Regular, HK Grotesk" style="isolation: isolate"><tspan x="0" y="0">Cap. 15</tspan></text>
      <path id="Path_599" data-name="Path 599" d="M323.86,2898.56" transform="translate(-4.796 -2557.741)" fill="none" stroke="#000" stroke-width="1.297"/>
      <line id="Line_287" data-name="Line 287" x2="228.098" transform="translate(832.489 97.92)" fill="none" stroke="#999" stroke-width="0.5"/>
      <text id="_27" data-name="27" transform="translate(9.918 88.446)" font-size="10" font-family="HKGrotesk-Regular, HK Grotesk" style="isolation: isolate"><tspan x="0" y="0">27</tspan></text>
      <text id="Numero_di_occorrenze" data-name="Numero di occorrenze" transform="translate(9.918 45.502)" font-size="10" font-family="HKGrotesk-Regular, HK Grotesk" style="isolation: isolate"><tspan x="0" y="0">Numero di occorrenze</tspan></text>
      <text id="_23" data-name="23" transform="translate(9.918 127.032)" font-size="10" font-family="HKGrotesk-Bold, HK Grotesk" font-weight="700" style="isolation: isolate"><tspan x="0" y="0">23</tspan></text>
      <rect id="Rectangle_2130" data-name="Rectangle 2130" width="7.944" height="275.733" transform="translate(53.365 65.087)" fill="url(#linear-gradient)"/>
      <rect id="Rectangle_2131" data-name="Rectangle 2131" width="13.548" height="275.733" transform="translate(61.817 65.087)" fill="url(#linear-gradient)"/>
      <rect id="Rectangle_2132" data-name="Rectangle 2132" width="68.274" height="275.733" transform="translate(75.365 65.087)" fill="url(#linear-gradient)"/>
      <rect id="Rectangle_2133" data-name="Rectangle 2133" width="129.003" height="275.733" transform="translate(143.639 65.087)" fill="url(#linear-gradient)"/>
      <rect id="Rectangle_2134" data-name="Rectangle 2134" width="39.262" height="275.733" transform="translate(272.642 65.087)" fill="url(#linear-gradient)"/>
      <rect id="Rectangle_2135" data-name="Rectangle 2135" width="70.226" height="275.733" transform="translate(311.904 65.087)" fill="url(#linear-gradient)"/>
      <rect id="Rectangle_2136" data-name="Rectangle 2136" width="81.661" height="275.733" transform="translate(382.13 65.087)" fill="url(#linear-gradient)"/>
      <rect id="Rectangle_2137" data-name="Rectangle 2137" width="25.516" height="275.733" transform="translate(463.791 65.087)" fill="url(#linear-gradient)"/>
      <rect id="Rectangle_2138" data-name="Rectangle 2138" width="53.076" height="275.733" transform="translate(489.307 65.087)" fill="url(#linear-gradient)"/>
      <rect id="Rectangle_2139" data-name="Rectangle 2139" width="72.343" height="275.733" transform="translate(542.383 65.087)" fill="url(#linear-gradient)"/>
      <rect id="Rectangle_2140" data-name="Rectangle 2140" width="57.075" height="275.733" transform="translate(614.726 65.087)" fill="url(#linear-gradient)"/>
      <rect id="Rectangle_2141" data-name="Rectangle 2141" width="161.045" height="275.733" transform="translate(671.801 65.087)" fill="url(#linear-gradient)"/>
      <rect id="Rectangle_2142" data-name="Rectangle 2142" width="154.865" height="275.733" transform="translate(832.846 65.087)" fill="url(#linear-gradient)"/>
      <rect id="Rectangle_2143" data-name="Rectangle 2143" width="49.712" height="275.733" transform="translate(987.711 65.087)" fill="url(#linear-gradient)"/>
      <rect id="Rectangle_2144" data-name="Rectangle 2144" width="23.577" height="275.733" transform="translate(1037.422 65.087)" fill="url(#linear-gradient)"/>
      <g id="Group_596" data-name="Group 596" transform="translate(52.856 88.727)" style="mix-blend-mode: multiply;isolation: isolate">
        <path id="Path_600" data-name="Path 600" d="M90.818,2892.62c4.193,0,4.193,18.674,8.387,18.674,7.484,0,7.484-196.072,14.968-196.072,34.007,0,34.007-28.01,68.012-28.01,63.026,0,63.026,186.735,126.051,186.735,21.353,0,21.353-93.367,42.705-93.367,34.614,0,34.614,46.683,69.229,46.683h81.582c12.8,0,12.8,56.022,25.595,56.022,26.579,0,26.579-130.716,53.158-130.716,35.752,0,35.752,56.021,71.5,56.021,29.709,0,29.709-130.714,59.419-130.714,79.512,0,79.512,9.336,159.024,9.336,77.154,0,77.154,93.368,154.31,93.368,25.546,0,25.546,121.378,51.092,121.378,11.221,0,11.221-28.01,22.442-28.01v56.021H90.818Z" transform="translate(-90.818 -2677.875)" fill="#bbf" stroke="#60f" stroke-miterlimit="10" stroke-width="0.979"/>
      </g>
      <line id="Line_288" data-name="Line 288" x2="45.391" transform="translate(31.363 126.312)" fill="none" stroke="#000" stroke-width="1"/>
      <line id="Line_289" data-name="Line 289" x2="1029.637" transform="translate(31.363 88.727)" fill="none" stroke="#999" stroke-width="0.5"/>
      <line id="Line_290" data-name="Line 290" x2="630.155" transform="translate(30.95 97.92)" fill="none" stroke="#999" stroke-width="0.5"/>
    </g>
  </g>
</svg>
