<svg xmlns="http://www.w3.org/2000/svg" xmlns:xlink="http://www.w3.org/1999/xlink" width="600" height="376" viewBox="0 0 600 376">
  <defs>
    <linearGradient id="linear-gradient" x1="-6.037" y1="5.823" x2="-6.036" y2="5.823" gradientUnits="objectBoundingBox">
      <stop offset="0" stop-color="#f3f3f3"/>
      <stop offset="0.75" stop-color="#fff"/>
    </linearGradient>
    <linearGradient id="linear-gradient-2" x1="0.5" y1="1" x2="0.5" gradientUnits="objectBoundingBox">
      <stop offset="0" stop-color="#fffcf0"/>
      <stop offset="0.75" stop-color="#ffe37d"/>
    </linearGradient>
    <linearGradient id="linear-gradient-16" x1="0.5" y1="1" x2="0.5" gradientUnits="objectBoundingBox">
      <stop offset="0" stop-color="#e7fcf8"/>
      <stop offset="0.726" stop-color="#6cd3bf"/>
    </linearGradient>
    <linearGradient id="linear-gradient-39" x1="0.5" y1="1" x2="0.5" gradientUnits="objectBoundingBox">
      <stop offset="0" stop-color="#f5f5fd"/>
      <stop offset="0.75" stop-color="#d1d1f8"/>
    </linearGradient>
    <linearGradient id="linear-gradient-53" y1="0.5" x2="1" y2="0.5" gradientUnits="objectBoundingBox">
      <stop offset="0.346" stop-color="#fff"/>
      <stop offset="1" stop-color="#fffcf0" stop-opacity="0"/>
    </linearGradient>
    <clipPath id="clip-zoom_03">
      <rect width="600" height="376"/>
    </clipPath>
  </defs>
  <g id="zoom_03" clip-path="url(#clip-zoom_03)">
    <path id="Path_552" data-name="Path 552" d="M33.548,293.134,30.612,65.17Z" transform="translate(-15.261 -51.486)" fill="url(#linear-gradient)"/>
    <line id="Line_174" data-name="Line 174" x2="585.729" transform="translate(17.543 232.111)" fill="none" stroke="#000" stroke-linecap="round" stroke-width="0.5" stroke-dasharray="2 4" opacity="0.5"/>
    <text id="_0" data-name="0" transform="translate(1.279 234.372)" font-size="10" font-family="Helvetica-Light, Helvetica" font-weight="300" style="isolation: isolate"><tspan x="0" y="0">0</tspan></text>
    <line id="Line_175" data-name="Line 175" x2="585.729" transform="translate(17.543 203.274)" fill="none" stroke="#000" stroke-linecap="round" stroke-width="0.5" stroke-dasharray="2 4" opacity="0.5"/>
    <text id="_1" data-name="1" transform="translate(1.279 205.536)" font-size="10" font-family="Helvetica-Light, Helvetica" font-weight="300" style="isolation: isolate"><tspan x="0" y="0">1</tspan></text>
    <line id="Line_176" data-name="Line 176" x2="585.729" transform="translate(17.543 174.438)" fill="none" stroke="#000" stroke-linecap="round" stroke-width="0.5" stroke-dasharray="2 4" opacity="0.5"/>
    <text id="_2" data-name="2" transform="translate(1.279 176.698)" font-size="10" font-family="Helvetica-Light, Helvetica" font-weight="300" style="isolation: isolate"><tspan x="0" y="0">2</tspan></text>
    <line id="Line_177" data-name="Line 177" x2="585.729" transform="translate(17.543 145.599)" fill="none" stroke="#000" stroke-linecap="round" stroke-width="0.5" stroke-dasharray="2 4" opacity="0.5"/>
    <text id="_3" data-name="3" transform="translate(1.279 147.858)" font-size="10" font-family="Helvetica-Light, Helvetica" font-weight="300" style="isolation: isolate"><tspan x="0" y="0">3</tspan></text>
    <line id="Line_178" data-name="Line 178" x2="585.729" transform="translate(17.543 116.762)" fill="none" stroke="#000" stroke-linecap="round" stroke-width="0.5" stroke-dasharray="2 4" opacity="0.5"/>
    <text id="_4" data-name="4" transform="translate(1.279 119.021)" font-size="10" font-family="Helvetica-Light, Helvetica" font-weight="300" style="isolation: isolate"><tspan x="0" y="0">4</tspan></text>
    <line id="Line_179" data-name="Line 179" x2="585.729" transform="translate(17.543 87.925)" fill="none" stroke="#000" stroke-linecap="round" stroke-width="0.5" stroke-dasharray="2 4" opacity="0.5"/>
    <text id="_5" data-name="5" transform="translate(1.279 90.186)" font-size="10" font-family="Helvetica-Light, Helvetica" font-weight="300" style="isolation: isolate"><tspan x="0" y="0">5</tspan></text>
    <line id="Line_180" data-name="Line 180" x2="585.729" transform="translate(17.543 59.088)" fill="none" stroke="#000" stroke-linecap="round" stroke-width="0.5" stroke-dasharray="2 4" opacity="0.5"/>
    <text id="_6" data-name="6" transform="translate(1.279 61.348)" font-size="10" font-family="Helvetica-Light, Helvetica" font-weight="300" style="isolation: isolate"><tspan x="0" y="0">6</tspan></text>
    <line id="Line_181" data-name="Line 181" x2="585.729" transform="translate(17.543 30.25)" fill="none" stroke="#000" stroke-linecap="round" stroke-width="0.5" stroke-dasharray="2 4" opacity="0.5"/>
    <text id="_7" data-name="7" transform="translate(1.279 32.51)" font-size="10" font-family="Helvetica-Light, Helvetica" font-weight="300" style="isolation: isolate"><tspan x="0" y="0">7</tspan></text>
    <rect id="Rectangle_722" data-name="Rectangle 722" width="27.124" height="211.901" transform="translate(535.444 29.747)" stroke="#ffc806" stroke-width="1.518" stroke-dasharray="27.351 454.702" fill="url(#linear-gradient-2)"/>
    <rect id="Rectangle_723" data-name="Rectangle 723" width="473.663" height="183.064" transform="translate(46.127 58.584)" stroke="#ffc806" stroke-width="1.518" stroke-dasharray="477.63 846.824" fill="url(#linear-gradient-2)"/>
    <rect id="Rectangle_724" data-name="Rectangle 724" width="8.01" height="154.226" transform="translate(472.823 87.421)" stroke="#ffc806" stroke-width="1.518" stroke-dasharray="8.077 319.112" fill="url(#linear-gradient-2)"/>
    <rect id="Rectangle_725" data-name="Rectangle 725" width="23.301" height="125.389" transform="translate(449.341 116.26)" stroke="#ffc806" stroke-width="1.518" stroke-dasharray="23.497 276.375" fill="url(#linear-gradient-2)"/>
    <rect id="Rectangle_726" data-name="Rectangle 726" width="65.534" height="96.552" transform="translate(383.444 145.097)" stroke="#ffc806" stroke-width="1.518" stroke-dasharray="66.083 260.804" fill="url(#linear-gradient-2)"/>
    <rect id="Rectangle_727" data-name="Rectangle 727" width="22.573" height="38.876" transform="translate(406.38 202.772)" stroke="#ffc806" stroke-width="1.518" stroke-dasharray="22.762 101.167" fill="url(#linear-gradient-2)"/>
    <rect id="Rectangle_728" data-name="Rectangle 728" width="9.83" height="10.039" transform="translate(396.368 231.609)" stroke="#ffc806" stroke-width="1.518" stroke-dasharray="9.913 30.16" fill="url(#linear-gradient-2)"/>
    <rect id="Rectangle_729" data-name="Rectangle 729" width="44.781" height="67.715" transform="translate(338.298 173.934)" stroke="#ffc806" stroke-width="1.518" stroke-dasharray="45.157 181.719" fill="url(#linear-gradient-2)"/>
    <rect id="Rectangle_730" data-name="Rectangle 730" width="1.82" height="38.876" transform="translate(350.13 202.772)" stroke="#ffc806" stroke-width="1.518" stroke-dasharray="1.836 80.241" fill="url(#linear-gradient-2)"/>
    <rect id="Rectangle_731" data-name="Rectangle 731" width="1.82" height="10.039" transform="translate(350.13 231.609)" stroke="#ffc806" stroke-width="1.518" stroke-dasharray="1.836 22.083" fill="url(#linear-gradient-2)"/>
    <rect id="Rectangle_732" data-name="Rectangle 732" width="29.672" height="38.876" transform="translate(254.378 202.772)" stroke="#ffc806" stroke-width="1.518" stroke-dasharray="29.921 108.326" fill="url(#linear-gradient-2)"/>
    <rect id="Rectangle_733" data-name="Rectangle 733" width="16.384" height="10.039" transform="translate(237.813 231.609)" stroke="#ffc806" stroke-width="1.518" stroke-dasharray="16.521 36.768" fill="url(#linear-gradient-2)"/>
    <rect id="Rectangle_734" data-name="Rectangle 734" width="4.188" height="38.876" transform="translate(201.587 202.772)" stroke="#ffc806" stroke-width="1.518" stroke-dasharray="4.221 82.627" fill="url(#linear-gradient-2)"/>
    <rect id="Rectangle_735" data-name="Rectangle 735" width="56.25" height="10.039" transform="translate(144.974 231.609)" stroke="#ffc806" stroke-width="1.518" stroke-dasharray="56.721 76.968" fill="url(#linear-gradient-2)"/>
    <rect id="Rectangle_746" data-name="Rectangle 746" width="4.188" height="183.064" transform="translate(201.587 58.584)" stroke="#00c19c" stroke-width="1.518" stroke-dasharray="4.221 373.416" fill="url(#linear-gradient-16)"/>
    <rect id="Rectangle_747" data-name="Rectangle 747" width="4.188" height="38.876" transform="translate(201.587 202.772)" stroke="#00c19c" stroke-width="1.518" stroke-dasharray="4.221 82.627" fill="url(#linear-gradient-16)"/>
    <rect id="Rectangle_748" data-name="Rectangle 748" width="6.554" height="183.064" transform="translate(205.956 58.584)" stroke="#00c19c" stroke-width="1.518" stroke-dasharray="6.608 375.802" fill="url(#linear-gradient-16)"/>
    <rect id="Rectangle_749" data-name="Rectangle 749" width="29.672" height="183.064" transform="translate(254.378 58.584)" stroke="#00c19c" stroke-width="1.518" stroke-dasharray="29.921 399.115" fill="url(#linear-gradient-16)"/>
    <rect id="Rectangle_750" data-name="Rectangle 750" width="29.672" height="38.876" transform="translate(254.378 202.772)" stroke="#00c19c" stroke-width="1.518" stroke-dasharray="29.921 108.326" fill="url(#linear-gradient-16)"/>
    <rect id="Rectangle_751" data-name="Rectangle 751" width="43.689" height="183.064" transform="translate(284.414 58.584)" stroke="#00c19c" stroke-width="1.518" stroke-dasharray="44.055 413.25" fill="url(#linear-gradient-16)"/>
    <rect id="Rectangle_752" data-name="Rectangle 752" width="4.369" height="183.064" transform="translate(345.579 58.584)" stroke="#00c19c" stroke-width="1.518" stroke-dasharray="4.405 373.599" fill="url(#linear-gradient-16)"/>
    <rect id="Rectangle_753" data-name="Rectangle 753" width="4.369" height="67.715" transform="translate(345.579 173.934)" stroke="#00c19c" stroke-width="1.518" stroke-dasharray="4.405 140.968" fill="url(#linear-gradient-16)"/>
    <rect id="Rectangle_754" data-name="Rectangle 754" width="30.946" height="183.064" transform="translate(352.132 58.584)" stroke="#00c19c" stroke-width="1.518" stroke-dasharray="31.206 400.399" fill="url(#linear-gradient-16)"/>
    <rect id="Rectangle_755" data-name="Rectangle 755" width="30.946" height="67.715" transform="translate(352.132 173.934)" stroke="#00c19c" stroke-width="1.518" stroke-dasharray="31.206 167.768" fill="url(#linear-gradient-16)"/>
    <rect id="Rectangle_756" data-name="Rectangle 756" width="12.561" height="183.064" transform="translate(383.444 58.584)" stroke="#00c19c" stroke-width="1.518" stroke-dasharray="12.666 381.86" fill="url(#linear-gradient-16)"/>
    <rect id="Rectangle_757" data-name="Rectangle 757" width="12.561" height="96.552" transform="translate(383.444 145.097)" stroke="#00c19c" stroke-width="1.518" stroke-dasharray="12.666 207.386" fill="url(#linear-gradient-16)"/>
    <rect id="Rectangle_758" data-name="Rectangle 758" width="22.573" height="183.064" transform="translate(406.38 58.584)" stroke="#00c19c" stroke-width="1.518" stroke-dasharray="22.762 391.956" fill="url(#linear-gradient-16)"/>
    <rect id="Rectangle_759" data-name="Rectangle 759" width="22.573" height="96.552" transform="translate(406.38 145.097)" stroke="#00c19c" stroke-width="1.518" stroke-dasharray="22.762 217.483" fill="url(#linear-gradient-16)"/>
    <rect id="Rectangle_760" data-name="Rectangle 760" width="22.573" height="38.876" transform="translate(406.38 202.772)" stroke="#00c19c" stroke-width="1.518" stroke-dasharray="22.762 101.167" fill="url(#linear-gradient-16)"/>
    <rect id="Rectangle_761" data-name="Rectangle 761" width="19.66" height="183.064" transform="translate(429.317 58.584)" stroke="#00c19c" stroke-width="1.518" stroke-dasharray="19.824 389.019" fill="url(#linear-gradient-16)"/>
    <rect id="Rectangle_762" data-name="Rectangle 762" width="19.66" height="96.552" transform="translate(429.317 145.097)" stroke="#00c19c" stroke-width="1.518" stroke-dasharray="19.824 214.545" fill="url(#linear-gradient-16)"/>
    <rect id="Rectangle_763" data-name="Rectangle 763" width="23.301" height="183.064" transform="translate(449.341 58.584)" stroke="#00c19c" stroke-width="1.518" stroke-dasharray="23.497 392.691" fill="url(#linear-gradient-16)"/>
    <rect id="Rectangle_764" data-name="Rectangle 764" width="23.301" height="125.389" transform="translate(449.341 116.26)" stroke="#00c19c" stroke-width="1.518" stroke-dasharray="23.497 276.375" fill="url(#linear-gradient-16)"/>
    <rect id="Rectangle_765" data-name="Rectangle 765" width="8.01" height="183.064" transform="translate(472.823 58.584)" stroke="#00c19c" stroke-width="1.518" stroke-dasharray="8.077 377.271" fill="url(#linear-gradient-16)"/>
    <rect id="Rectangle_766" data-name="Rectangle 766" width="8.01" height="154.226" transform="translate(472.823 87.421)" stroke="#00c19c" stroke-width="1.518" stroke-dasharray="8.077 319.112" fill="url(#linear-gradient-16)"/>
    <rect id="Rectangle_767" data-name="Rectangle 767" width="38.592" height="183.064" transform="translate(481.197 58.584)" stroke="#00c19c" stroke-width="1.518" stroke-dasharray="38.915 408.109" fill="url(#linear-gradient-16)"/>
    <rect id="Rectangle_768" data-name="Rectangle 768" width="27.124" height="211.901" transform="translate(535.444 29.747)" stroke="#00c19c" stroke-width="1.518" stroke-dasharray="27.351 454.702" fill="url(#linear-gradient-16)"/>
    <rect id="Rectangle_769" data-name="Rectangle 769" width="21.481" height="211.901" transform="translate(562.751 29.747)" stroke="#bbf" stroke-width="1.518" stroke-dasharray="21.66 449.012" fill="url(#linear-gradient-39)"/>
    <rect id="Rectangle_770" data-name="Rectangle 770" width="42.414" height="183.064" transform="translate(520.153 58.584)" stroke="#bbf" stroke-width="1.518" stroke-dasharray="42.77 411.965" fill="url(#linear-gradient-39)"/>
    <rect id="Rectangle_771" data-name="Rectangle 771" width="38.592" height="154.226" transform="translate(481.197 87.421)" stroke="#bbf" stroke-width="1.518" stroke-dasharray="38.915 349.952" fill="url(#linear-gradient-39)"/>
    <rect id="Rectangle_772" data-name="Rectangle 772" width="8.01" height="125.389" transform="translate(472.823 116.26)" stroke="#bbf" stroke-width="1.518" stroke-dasharray="8.077 260.955" fill="url(#linear-gradient-39)"/>
    <rect id="Rectangle_773" data-name="Rectangle 773" width="23.301" height="96.552" transform="translate(449.341 145.097)" stroke="#bbf" stroke-width="1.518" stroke-dasharray="23.497 218.217" fill="url(#linear-gradient-39)"/>
    <rect id="Rectangle_774" data-name="Rectangle 774" width="19.66" height="38.876" transform="translate(429.317 202.772)" stroke="#bbf" stroke-width="1.518" stroke-dasharray="19.824 98.231" fill="url(#linear-gradient-39)"/>
    <rect id="Rectangle_775" data-name="Rectangle 775" width="22.573" height="10.039" transform="translate(406.38 231.609)" stroke="#bbf" stroke-width="1.518" stroke-dasharray="22.762 43.009" fill="url(#linear-gradient-39)"/>
    <rect id="Rectangle_776" data-name="Rectangle 776" width="12.561" height="67.715" transform="translate(383.444 173.934)" stroke="#bbf" stroke-width="1.518" stroke-dasharray="12.666 149.229" fill="url(#linear-gradient-39)"/>
    <rect id="Rectangle_777" data-name="Rectangle 777" width="30.946" height="38.876" transform="translate(352.132 202.772)" stroke="#bbf" stroke-width="1.518" stroke-dasharray="31.206 109.611" fill="url(#linear-gradient-39)"/>
    <rect id="Rectangle_778" data-name="Rectangle 778" width="4.369" height="10.039" transform="translate(345.579 231.609)" stroke="#bbf" stroke-width="1.518" stroke-dasharray="4.405 24.652" fill="url(#linear-gradient-39)"/>
    <rect id="Rectangle_779" data-name="Rectangle 779" width="43.689" height="38.876" transform="translate(284.414 202.772)" stroke="#bbf" stroke-width="1.518" stroke-dasharray="44.055 122.46" fill="url(#linear-gradient-39)"/>
    <rect id="Rectangle_780" data-name="Rectangle 780" width="29.672" height="10.039" transform="translate(254.378 231.609)" stroke="#bbf" stroke-width="1.518" stroke-dasharray="29.921 50.168" fill="url(#linear-gradient-39)"/>
    <rect id="Rectangle_781" data-name="Rectangle 781" width="6.554" height="38.876" transform="translate(205.956 202.772)" stroke="#bbf" stroke-width="1.518" stroke-dasharray="6.608 85.013" fill="url(#linear-gradient-39)"/>
    <rect id="Rectangle_782" data-name="Rectangle 782" width="4.188" height="10.039" transform="translate(201.587 231.609)" stroke="#bbf" stroke-width="1.518" stroke-dasharray="4.221 24.47" fill="url(#linear-gradient-39)"/>
    <text id="td_29" data-name="td 29" transform="translate(551.149 22.99) rotate(-20.972)" font-size="10" font-family="HKGrotesk-Regular, HK Grotesk" style="isolation: isolate"><tspan x="0" y="0">td 29</tspan></text>
    <text id="td_28" data-name="td 28" transform="translate(540.397 51.826) rotate(-20.972)" font-size="10" font-family="HKGrotesk-Regular, HK Grotesk" style="isolation: isolate"><tspan x="0" y="0">td 28</tspan></text>
    <text id="td_27" data-name="td 27" transform="translate(499.529 80.662) rotate(-20.972)" font-size="10" font-family="HKGrotesk-Regular, HK Grotesk" style="isolation: isolate"><tspan x="0" y="0">td 27</tspan></text>
    <text id="td_26" data-name="td 26" transform="translate(475.867 109.501) rotate(-20.972)" font-size="10" font-family="HKGrotesk-Regular, HK Grotesk" style="isolation: isolate"><tspan x="0" y="0">td 26</tspan></text>
    <text id="td_25" data-name="td 25" transform="translate(460.028 138.339) rotate(-20.972)" font-size="10" font-family="HKGrotesk-Regular, HK Grotesk" style="isolation: isolate"><tspan x="0" y="0">td 25</tspan></text>
    <text id="td_24" data-name="td 24" transform="translate(438.182 196.013) rotate(-20.972)" font-size="10" font-family="HKGrotesk-Regular, HK Grotesk" style="isolation: isolate"><tspan x="0" y="0">td 24</tspan></text>
    <text id="td_23" data-name="td 23" transform="translate(416.703 224.853) rotate(-20.972)" font-size="10" font-family="HKGrotesk-Regular, HK Grotesk" style="isolation: isolate"><tspan x="0" y="0">td 23</tspan></text>
    <text id="td_22" data-name="td 22" transform="translate(388.761 167.178) rotate(-20.972)" font-size="10" font-family="HKGrotesk-Regular, HK Grotesk" style="isolation: isolate"><tspan x="0" y="0">td 22</tspan></text>
    <text id="td_21" data-name="td 21" transform="translate(366.642 196.016) rotate(-20.972)" font-size="10" font-family="HKGrotesk-Regular, HK Grotesk" style="isolation: isolate"><tspan x="0" y="0">td 21</tspan></text>
    <text id="td_20" data-name="td 20" transform="translate(346.8 224.851) rotate(-20.972)" font-size="10" font-family="HKGrotesk-Regular, HK Grotesk" style="isolation: isolate"><tspan x="0" y="0">td 20</tspan></text>
    <text id="td_19" data-name="td 19" transform="translate(305.296 196.015) rotate(-20.972)" font-size="10" font-family="HKGrotesk-Regular, HK Grotesk" style="isolation: isolate"><tspan x="0" y="0">td 19</tspan></text>
    <text id="td_18" data-name="td 18" transform="translate(268.252 224.852) rotate(-20.972)" font-size="10" font-family="HKGrotesk-Regular, HK Grotesk" style="isolation: isolate"><tspan x="0" y="0">td 18</tspan></text>
    <text id="td_17" data-name="td 17" transform="translate(208.269 196.018) rotate(-20.972)" font-size="10" font-family="HKGrotesk-Regular, HK Grotesk" style="isolation: isolate"><tspan x="0" y="0">td 17</tspan></text>
    <text id="td_16" data-name="td 16" transform="translate(202.717 224.852) rotate(-20.972)" font-size="10" font-family="HKGrotesk-Regular, HK Grotesk" style="isolation: isolate"><tspan x="0" y="0">td 16</tspan></text>
    <path id="Path_525" data-name="Path 525" d="M570.065,280.1" transform="translate(17.443 -38.456)" fill="none" stroke="#000" stroke-width="1.012"/>
    <path id="Path_525-2" data-name="Path 525" d="M32.679,280.1" transform="translate(-15.136 -38.456)" fill="none" stroke="#000" stroke-width="1.012"/>
    <line id="Line_187" data-name="Line 187" y2="19.437" transform="translate(177.376 256.488)" fill="none" stroke="#999" stroke-width="1.012"/>
    <path id="Line_188" data-name="Line 188" d="M484.076,392.088" transform="translate(12.23 -31.667)" fill="none" stroke="#999" stroke-width="1.012"/>
    <path id="Line_188-2" data-name="Line 188" d="M484.076,357.335" transform="translate(12.23 -33.773)" fill="none" stroke="#999" stroke-width="1.012"/>
    <path id="Line_189" data-name="Line 189" d="M454.641,377.9" transform="translate(10.445 -32.526)" fill="none" stroke="#999" stroke-width="1.012"/>
    <path id="Line_189-2" data-name="Line 189" d="M454.641,343.149" transform="translate(10.445 -34.633)" fill="none" stroke="#999" stroke-width="1.012"/>
    <line id="Line_188-3" data-name="Line 188" y2="40.666" transform="translate(496.306 323.561)" fill="none" stroke="#999" stroke-width="1.012"/>
    <line id="Line_189-3" data-name="Line 189" y2="40.993" transform="translate(465.086 308.516)" fill="none" stroke="#999" stroke-width="1.012"/>
    <line id="Line_190" data-name="Line 190" y2="43.823" transform="translate(367.605 280.304)" fill="none" stroke="#999" stroke-width="1.012"/>
    <line id="Line_191" data-name="Line 191" y2="32.27" transform="translate(291.241 265.886)" fill="none" stroke="#999" stroke-width="1.012"/>
    <line id="Line_193" data-name="Line 193" y2="9.093" transform="translate(425.395 265.886)" fill="none" stroke="#999" stroke-width="1.012"/>
    <line id="Line_194" data-name="Line 194" y2="15.708" transform="translate(422.942 294.724)" fill="none" stroke="#999" stroke-width="1.012"/>
    <path id="Path_534" data-name="Path 534" d="M212.663,280.1v14.839h-58.98V280.1" transform="translate(-7.8 -38.456)" fill="none" stroke="#99f" stroke-linecap="round" stroke-width="1.543" stroke-dasharray="0.154 3.086"/>
    <path id="Path_535" data-name="Path 535" d="M216.161,280.1v24.237h-9.1V280.1" transform="translate(-4.564 -38.456)" fill="none" stroke="#99f" stroke-linecap="round" stroke-width="1.543" stroke-dasharray="0.154 3.086"/>
    <path id="Path_536" data-name="Path 536" d="M285.633,280.1v14.839H241.216V280.1" transform="translate(-2.493 -38.456)" fill="none" stroke="#99f" stroke-linecap="round" stroke-width="1.543" stroke-dasharray="0.154 3.086"/>
    <path id="Path_537" data-name="Path 537" d="M328.74,280.1v24.237H256.834V280.1" transform="translate(-1.546 -38.456)" fill="none" stroke="#99f" stroke-linecap="round" stroke-width="1.543" stroke-dasharray="0.154 3.086"/>
    <path id="Path_538" data-name="Path 538" d="M345.224,280.1v14.839h2V280.1" transform="translate(3.813 -38.456)" fill="none" stroke="#99f" stroke-linecap="round" stroke-width="1.543" stroke-dasharray="0.154 3.086"/>
    <path id="Path_539" data-name="Path 539" d="M378.242,280.1v24.237H347.113V280.1" transform="translate(3.927 -38.456)" fill="none" stroke="#99f" stroke-linecap="round" stroke-width="1.543" stroke-dasharray="0.154 3.086"/>
    <path id="Path_540" data-name="Path 540" d="M421.471,280.1v14.839H390.707V280.1" transform="translate(6.57 -38.456)" fill="none" stroke="#99f" stroke-linecap="round" stroke-width="1.543" stroke-dasharray="0.154 3.086"/>
    <path id="Path_541" data-name="Path 541" d="M391.841,280.1v38.656H335.956V280.1" transform="translate(3.25 -38.456)" fill="none" stroke="#99f" stroke-linecap="round" stroke-width="1.543" stroke-dasharray="0.154 3.086"/>
    <path id="Path_542" data-name="Path 542" d="M440.924,280.1v24.237H400.148V280.1" transform="translate(7.142 -38.456)" fill="none" stroke="#99f" stroke-linecap="round" stroke-width="1.543" stroke-dasharray="0.154 3.086"/>
    <path id="Path_543" data-name="Path 543" d="M465.9,280.1v53.08H378.517V280.109" transform="translate(5.831 -38.456)" fill="none" stroke="#99f" stroke-linecap="round" stroke-width="1.543" stroke-dasharray="0.154 3.086"/>
    <path id="Path_544" data-name="Path 544" d="M470.326,280.1V347.6H440.653V280.1" transform="translate(9.598 -38.456)" fill="none" stroke="#99f" stroke-linecap="round" stroke-width="1.543" stroke-dasharray="0.154 3.086"/>
    <path id="Path_545" data-name="Path 545" d="M507.937,280.1v81.913H462.792V280.1" transform="translate(10.94 -38.456)" fill="none" stroke="#99f" stroke-linecap="round" stroke-width="1.543" stroke-dasharray="0.154 3.086"/>
    <path id="Path_546" data-name="Path 546" d="M568.8,280.1V390.853H521.835V280.1" transform="translate(14.52 -38.456)" fill="none" stroke="#99f" stroke-linecap="round" stroke-width="1.543" stroke-dasharray="0.154 3.086"/>
    <path id="Path_547" data-name="Path 547" d="M575.108,280.1v96.329H60.487V280.1" transform="translate(-13.45 -38.456)" fill="none" stroke="#99f" stroke-linecap="round" stroke-width="1.543" stroke-dasharray="0.154 3.086"/>
    <path id="Path_525-3" data-name="Path 525" d="M505.8,280.119h42.688" transform="translate(13.547 -38.455)" fill="none" stroke="#000" stroke-width="1.01"/>
    <path id="Path_525-4" data-name="Path 525" d="M566.4,280.119h20.1" transform="translate(17.221 -38.455)" fill="none" stroke="#000" stroke-width="1.01"/>
    <path id="Path_525-5" data-name="Path 525" d="M420.339,280.119h43.778" transform="translate(8.366 -38.455)" fill="none" stroke="#000" stroke-width="1.01"/>
    <path id="Path_525-6" data-name="Path 525" d="M376.322,280.119h24.16" transform="translate(5.697 -38.455)" fill="none" stroke="#000" stroke-width="1.01"/>
    <path id="Path_525-7" data-name="Path 525" d="M284.007,280.119h61.4" transform="translate(0.101 -38.455)" fill="none" stroke="#000" stroke-width="1.01"/>
    <path id="Path_525-8" data-name="Path 525" d="M216.7,280.119h41.779" transform="translate(-3.98 -38.455)" fill="none" stroke="#000" stroke-width="1.01"/>
    <path id="Path_525-9" data-name="Path 525" d="M7.053,280.119H222.688" transform="translate(-16.689 -38.455)" fill="none" stroke="#000" stroke-width="1.01"/>
    <path id="Path_525-10" data-name="Path 525" d="M216.5,280.1" transform="translate(-3.992 -38.456)" fill="none" stroke="#000" stroke-width="1.012"/>
    <path id="Path_525-11" data-name="Path 525" d="M210.151,280.1" transform="translate(-4.377 -38.456)" fill="none" stroke="#000" stroke-width="1.012"/>
    <text id="allora_bisognava_dire" data-name="allora bisognava dire" transform="translate(384.169 284.129)" font-size="10" font-family="HKGrotesk-Regular, HK Grotesk" style="isolation: isolate"><tspan x="0" y="0">allora bisognava dire</tspan></text>
    <rect id="Rectangle_1537" data-name="Rectangle 1537" width="24.146" height="3.56" transform="translate(-11.958 240.525)" fill="url(#linear-gradient-53)"/>
    <line id="Line_249" data-name="Line 249" x2="2.056" transform="translate(349.886 241.648)" fill="none" stroke="#000" stroke-width="1.01"/>
    <text id="o_meglio" data-name="o meglio" transform="translate(159.152 289.136)" font-size="10" font-family="HKGrotesk-Regular, HK Grotesk" style="isolation: isolate"><tspan x="0" y="0">o meglio</tspan></text>
    <text id="oppure" transform="translate(276.21 307.766)" font-size="10" font-family="HKGrotesk-Regular, HK Grotesk" style="isolation: isolate"><tspan x="0" y="0">oppure</tspan></text>
    <text id="ma_sempre" data-name="ma sempre" transform="translate(342.114 333.597)" font-size="10" font-family="HKGrotesk-Regular, HK Grotesk" style="isolation: isolate"><tspan x="0" y="0">ma sempre</tspan></text>
    <text id="cioè" transform="translate(413.505 318.16)" font-size="10" font-family="HKGrotesk-Regular, HK Grotesk" style="isolation: isolate"><tspan x="0" y="0">cioè</tspan></text>
    <text id="cioè-2" data-name="cioè" transform="translate(456.038 358.411)" font-size="10" font-family="HKGrotesk-Regular, HK Grotesk" style="isolation: isolate"><tspan x="0" y="0">cioè</tspan></text>
    <text id="e_allora" data-name="e allora" transform="translate(480.198 373.238)" font-size="10" font-family="HKGrotesk-Regular, HK Grotesk" style="isolation: isolate"><tspan x="0" y="0">e allora</tspan></text>
    <path id="Path_576" data-name="Path 576" d="M461.727,278.578c2.606,0,2.606,3.266,5.212,3.266s2.608-3.266,5.215-3.266,2.608,3.266,5.215,3.266,2.608-3.266,5.216-3.266,2.608,3.266,5.216,3.266,2.607-3.266,5.214-3.266,2.609,3.266,5.218,3.266,2.61-3.266,5.221-3.266,2.611,3.266,5.221,3.266" transform="translate(10.875 -38.548)" fill="none" stroke="#4500ff" stroke-miterlimit="10" stroke-width="1.155"/>
    <path id="Path_577" data-name="Path 577" d="M546.223,278.578c2.109,0,2.109,3.266,4.219,3.266s2.11-3.266,4.219-3.266,2.11,3.266,4.22,3.266,2.114-3.266,4.227-3.266,2.114,3.266,4.228,3.266" transform="translate(15.998 -38.548)" fill="none" stroke="#4500ff" stroke-miterlimit="10" stroke-width="1.155"/>
    <path id="Path_578" data-name="Path 578" d="M399.083,278.578c2.253,0,2.253,3.266,4.5,3.266s2.253-3.266,4.506-3.266,2.255,3.266,4.51,3.266,2.256-3.266,4.512-3.266,2.256,3.266,4.513,3.266" transform="translate(7.077 -38.548)" fill="none" stroke="#4500ff" stroke-miterlimit="10" stroke-width="1.155"/>
    <path id="Path_579" data-name="Path 579" d="M347.89,278.578c2.153,0,2.153,3.266,4.306,3.266s2.153-3.266,4.306-3.266,2.152,3.266,4.305,3.266,2.152-3.266,4.305-3.266,2.153,3.266,4.307,3.266,2.156-3.266,4.313-3.266,2.157,3.266,4.314,3.266" transform="translate(3.974 -38.548)" fill="none" stroke="#4500ff" stroke-miterlimit="10" stroke-width="1.155"/>
    <path id="Path_580" data-name="Path 580" d="M256.09,278.578c2.114,0,2.114,3.266,4.228,3.266s2.114-3.266,4.229-3.266,2.113,3.266,4.227,3.266,2.114-3.266,4.227-3.266,2.115,3.266,4.229,3.266,2.118-3.266,4.235-3.266,2.118,3.266,4.236,3.266" transform="translate(-1.592 -38.548)" fill="none" stroke="#4500ff" stroke-miterlimit="10" stroke-width="1.155"/>
    <path id="Path_581" data-name="Path 581" d="M341.9,278.578c1.136,0,1.136,3.266,2.271,3.266s1.136-3.266,2.271-3.266" transform="translate(3.61 -38.548)" fill="none" stroke="#4500ff" stroke-miterlimit="10" stroke-width="1.155"/>
    <path id="Path_582" data-name="Path 582" d="M210.362,278.578c1.68,0,1.68,3.266,3.36,3.266s1.68-3.266,3.361-3.266" transform="translate(-4.364 -38.548)" fill="none" stroke="#4500ff" stroke-miterlimit="10" stroke-width="1.155"/>
    <text id="Livelli_di_annidamento" data-name="Livelli di annidamento" transform="translate(0 10)" font-size="10" font-family="HKGrotesk-Regular, HK Grotesk"><tspan x="0" y="0">Livelli di annidamento</tspan></text>
  </g>
</svg>
