<svg xmlns="http://www.w3.org/2000/svg" xmlns:xlink="http://www.w3.org/1999/xlink" width="600" height="417" viewBox="0 0 600 417"><defs><linearGradient id="a" x1="-6.037" y1="5.823" x2="-6.036" y2="5.823" gradientUnits="objectBoundingBox"><stop offset="0" stop-color="#f3f3f3"/><stop offset="0.75" stop-color="#fff"/></linearGradient><linearGradient id="b" x1="0.5" y1="1" x2="0.5" gradientUnits="objectBoundingBox"><stop offset="0" stop-color="#fffcf0"/><stop offset="0.75" stop-color="#ffe37d"/></linearGradient><linearGradient id="p" x1="0.5" y1="1" x2="0.5" gradientUnits="objectBoundingBox"><stop offset="0" stop-color="#e7fcf8"/><stop offset="0.726" stop-color="#6cd3bf"/></linearGradient><linearGradient id="am" x1="0.5" y1="1" x2="0.5" gradientUnits="objectBoundingBox"><stop offset="0" stop-color="#f5f5fd"/><stop offset="0.75" stop-color="#d1d1f8"/></linearGradient><linearGradient id="ba" y1="0.5" x2="1" y2="0.5" gradientUnits="objectBoundingBox"><stop offset="0.346" stop-color="#fff"/><stop offset="1" stop-color="#fffcf0" stop-opacity="0"/></linearGradient><clipPath id="bc"><rect width="600" height="417"/></clipPath></defs><g id="bb" clip-path="url(#bc)"><path d="M33.548,293.134,30.612,65.17Z" transform="translate(-15.261 -10.486)" fill="url(#a)"/><line x2="585.729" transform="translate(17.543 273.111)" fill="none" stroke="#000" stroke-linecap="round" stroke-width="0.5" stroke-dasharray="2 4" opacity="0.5"/><text transform="translate(1.279 275.372)" font-size="10" font-family="Helvetica-Light, Helvetica" font-weight="300" style="isolation:isolate"><tspan x="0" y="0">0</tspan></text><line x2="585.729" transform="translate(17.543 244.274)" fill="none" stroke="#000" stroke-linecap="round" stroke-width="0.5" stroke-dasharray="2 4" opacity="0.5"/><text transform="translate(1.279 246.536)" font-size="10" font-family="Helvetica-Light, Helvetica" font-weight="300" style="isolation:isolate"><tspan x="0" y="0">1</tspan></text><line x2="585.729" transform="translate(17.543 215.438)" fill="none" stroke="#000" stroke-linecap="round" stroke-width="0.5" stroke-dasharray="2 4" opacity="0.5"/><text transform="translate(1.279 217.698)" font-size="10" font-family="Helvetica-Light, Helvetica" font-weight="300" style="isolation:isolate"><tspan x="0" y="0">2</tspan></text><line x2="585.729" transform="translate(17.543 186.599)" fill="none" stroke="#000" stroke-linecap="round" stroke-width="0.5" stroke-dasharray="2 4" opacity="0.5"/><text transform="translate(1.279 188.858)" font-size="10" font-family="Helvetica-Light, Helvetica" font-weight="300" style="isolation:isolate"><tspan x="0" y="0">3</tspan></text><line x2="585.729" transform="translate(17.543 157.762)" fill="none" stroke="#000" stroke-linecap="round" stroke-width="0.5" stroke-dasharray="2 4" opacity="0.5"/><text transform="translate(1.279 160.021)" font-size="10" font-family="Helvetica-Light, Helvetica" font-weight="300" style="isolation:isolate"><tspan x="0" y="0">4</tspan></text><line x2="585.729" transform="translate(17.543 128.925)" fill="none" stroke="#000" stroke-linecap="round" stroke-width="0.5" stroke-dasharray="2 4" opacity="0.5"/><text transform="translate(1.279 131.186)" font-size="10" font-family="Helvetica-Light, Helvetica" font-weight="300" style="isolation:isolate"><tspan x="0" y="0">5</tspan></text><line x2="585.729" transform="translate(17.543 100.088)" fill="none" stroke="#000" stroke-linecap="round" stroke-width="0.5" stroke-dasharray="2 4" opacity="0.5"/><text transform="translate(1.279 102.348)" font-size="10" font-family="Helvetica-Light, Helvetica" font-weight="300" style="isolation:isolate"><tspan x="0" y="0">6</tspan></text><line x2="585.729" transform="translate(17.543 71.25)" fill="none" stroke="#000" stroke-linecap="round" stroke-width="0.5" stroke-dasharray="2 4" opacity="0.5"/><text transform="translate(1.279 73.51)" font-size="10" font-family="Helvetica-Light, Helvetica" font-weight="300" style="isolation:isolate"><tspan x="0" y="0">7</tspan></text><rect width="27.124" height="211.901" transform="translate(535.444 70.747)" stroke="#ffc806" stroke-width="1.518" stroke-dasharray="27.351 454.702" fill="url(#b)"/><rect width="473.663" height="183.064" transform="translate(46.127 99.584)" stroke="#ffc806" stroke-width="1.518" stroke-dasharray="477.63 846.824" fill="url(#b)"/><rect width="8.01" height="154.226" transform="translate(472.823 128.421)" stroke="#ffc806" stroke-width="1.518" stroke-dasharray="8.077 319.112" fill="url(#b)"/><rect width="23.301" height="125.389" transform="translate(449.341 157.26)" stroke="#ffc806" stroke-width="1.518" stroke-dasharray="23.497 276.375" fill="url(#b)"/><rect width="65.534" height="96.552" transform="translate(383.444 186.097)" stroke="#ffc806" stroke-width="1.518" stroke-dasharray="66.083 260.804" fill="url(#b)"/><rect width="22.573" height="38.876" transform="translate(406.38 243.772)" stroke="#ffc806" stroke-width="1.518" stroke-dasharray="22.762 101.167" fill="url(#b)"/><rect width="9.83" height="10.039" transform="translate(396.368 272.609)" stroke="#ffc806" stroke-width="1.518" stroke-dasharray="9.913 30.16" fill="url(#b)"/><rect width="44.781" height="67.715" transform="translate(338.298 214.934)" stroke="#ffc806" stroke-width="1.518" stroke-dasharray="45.157 181.719" fill="url(#b)"/><rect width="1.82" height="38.876" transform="translate(350.13 243.772)" stroke="#ffc806" stroke-width="1.518" stroke-dasharray="1.836 80.241" fill="url(#b)"/><rect width="1.82" height="10.039" transform="translate(350.13 272.609)" stroke="#ffc806" stroke-width="1.518" stroke-dasharray="1.836 22.083" fill="url(#b)"/><rect width="29.672" height="38.876" transform="translate(254.378 243.772)" stroke="#ffc806" stroke-width="1.518" stroke-dasharray="29.921 108.326" fill="url(#b)"/><rect width="16.384" height="10.039" transform="translate(237.813 272.609)" stroke="#ffc806" stroke-width="1.518" stroke-dasharray="16.521 36.768" fill="url(#b)"/><rect width="4.188" height="38.876" transform="translate(201.587 243.772)" stroke="#ffc806" stroke-width="1.518" stroke-dasharray="4.221 82.627" fill="url(#b)"/><rect width="56.25" height="10.039" transform="translate(144.974 272.609)" stroke="#ffc806" stroke-width="1.518" stroke-dasharray="56.721 76.968" fill="url(#b)"/><rect width="4.188" height="183.064" transform="translate(201.587 99.584)" stroke="#00c19c" stroke-width="1.518" stroke-dasharray="4.221 373.416" fill="url(#p)"/><rect width="4.188" height="38.876" transform="translate(201.587 243.772)" stroke="#00c19c" stroke-width="1.518" stroke-dasharray="4.221 82.627" fill="url(#p)"/><rect width="6.554" height="183.064" transform="translate(205.956 99.584)" stroke="#00c19c" stroke-width="1.518" stroke-dasharray="6.608 375.802" fill="url(#p)"/><rect width="29.672" height="183.064" transform="translate(254.378 99.584)" stroke="#00c19c" stroke-width="1.518" stroke-dasharray="29.921 399.115" fill="url(#p)"/><rect width="29.672" height="38.876" transform="translate(254.378 243.772)" stroke="#00c19c" stroke-width="1.518" stroke-dasharray="29.921 108.326" fill="url(#p)"/><rect width="43.689" height="183.064" transform="translate(284.414 99.584)" stroke="#00c19c" stroke-width="1.518" stroke-dasharray="44.055 413.25" fill="url(#p)"/><rect width="4.369" height="183.064" transform="translate(345.579 99.584)" stroke="#00c19c" stroke-width="1.518" stroke-dasharray="4.405 373.599" fill="url(#p)"/><rect width="4.369" height="67.715" transform="translate(345.579 214.934)" stroke="#00c19c" stroke-width="1.518" stroke-dasharray="4.405 140.968" fill="url(#p)"/><rect width="30.946" height="183.064" transform="translate(352.132 99.584)" stroke="#00c19c" stroke-width="1.518" stroke-dasharray="31.206 400.399" fill="url(#p)"/><rect width="30.946" height="67.715" transform="translate(352.132 214.934)" stroke="#00c19c" stroke-width="1.518" stroke-dasharray="31.206 167.768" fill="url(#p)"/><rect width="12.561" height="183.064" transform="translate(383.444 99.584)" stroke="#00c19c" stroke-width="1.518" stroke-dasharray="12.666 381.86" fill="url(#p)"/><rect width="12.561" height="96.552" transform="translate(383.444 186.097)" stroke="#00c19c" stroke-width="1.518" stroke-dasharray="12.666 207.386" fill="url(#p)"/><rect width="22.573" height="183.064" transform="translate(406.38 99.584)" stroke="#00c19c" stroke-width="1.518" stroke-dasharray="22.762 391.956" fill="url(#p)"/><rect width="22.573" height="96.552" transform="translate(406.38 186.097)" stroke="#00c19c" stroke-width="1.518" stroke-dasharray="22.762 217.483" fill="url(#p)"/><rect width="22.573" height="38.876" transform="translate(406.38 243.772)" stroke="#00c19c" stroke-width="1.518" stroke-dasharray="22.762 101.167" fill="url(#p)"/><rect width="19.66" height="183.064" transform="translate(429.317 99.584)" stroke="#00c19c" stroke-width="1.518" stroke-dasharray="19.824 389.019" fill="url(#p)"/><rect width="19.66" height="96.552" transform="translate(429.317 186.097)" stroke="#00c19c" stroke-width="1.518" stroke-dasharray="19.824 214.545" fill="url(#p)"/><rect width="23.301" height="183.064" transform="translate(449.341 99.584)" stroke="#00c19c" stroke-width="1.518" stroke-dasharray="23.497 392.691" fill="url(#p)"/><rect width="23.301" height="125.389" transform="translate(449.341 157.26)" stroke="#00c19c" stroke-width="1.518" stroke-dasharray="23.497 276.375" fill="url(#p)"/><rect width="8.01" height="183.064" transform="translate(472.823 99.584)" stroke="#00c19c" stroke-width="1.518" stroke-dasharray="8.077 377.271" fill="url(#p)"/><rect width="8.01" height="154.226" transform="translate(472.823 128.421)" stroke="#00c19c" stroke-width="1.518" stroke-dasharray="8.077 319.112" fill="url(#p)"/><rect width="38.592" height="183.064" transform="translate(481.197 99.584)" stroke="#00c19c" stroke-width="1.518" stroke-dasharray="38.915 408.109" fill="url(#p)"/><rect width="27.124" height="211.901" transform="translate(535.444 70.747)" stroke="#00c19c" stroke-width="1.518" stroke-dasharray="27.351 454.702" fill="url(#p)"/><rect width="21.481" height="211.901" transform="translate(562.751 70.747)" stroke="#bbf" stroke-width="1.518" stroke-dasharray="21.66 449.012" fill="url(#am)"/><rect width="42.414" height="183.064" transform="translate(520.153 99.584)" stroke="#bbf" stroke-width="1.518" stroke-dasharray="42.77 411.965" fill="url(#am)"/><rect width="38.592" height="154.226" transform="translate(481.197 128.421)" stroke="#bbf" stroke-width="1.518" stroke-dasharray="38.915 349.952" fill="url(#am)"/><rect width="8.01" height="125.389" transform="translate(472.823 157.26)" stroke="#bbf" stroke-width="1.518" stroke-dasharray="8.077 260.955" fill="url(#am)"/><rect width="23.301" height="96.552" transform="translate(449.341 186.097)" stroke="#bbf" stroke-width="1.518" stroke-dasharray="23.497 218.217" fill="url(#am)"/><rect width="19.66" height="38.876" transform="translate(429.317 243.772)" stroke="#bbf" stroke-width="1.518" stroke-dasharray="19.824 98.231" fill="url(#am)"/><rect width="22.573" height="10.039" transform="translate(406.38 272.609)" stroke="#bbf" stroke-width="1.518" stroke-dasharray="22.762 43.009" fill="url(#am)"/><rect width="12.561" height="67.715" transform="translate(383.444 214.934)" stroke="#bbf" stroke-width="1.518" stroke-dasharray="12.666 149.229" fill="url(#am)"/><rect width="30.946" height="38.876" transform="translate(352.132 243.772)" stroke="#bbf" stroke-width="1.518" stroke-dasharray="31.206 109.611" fill="url(#am)"/><rect width="4.369" height="10.039" transform="translate(345.579 272.609)" stroke="#bbf" stroke-width="1.518" stroke-dasharray="4.405 24.652" fill="url(#am)"/><rect width="43.689" height="38.876" transform="translate(284.414 243.772)" stroke="#bbf" stroke-width="1.518" stroke-dasharray="44.055 122.46" fill="url(#am)"/><rect width="29.672" height="10.039" transform="translate(254.378 272.609)" stroke="#bbf" stroke-width="1.518" stroke-dasharray="29.921 50.168" fill="url(#am)"/><rect width="6.554" height="38.876" transform="translate(205.956 243.772)" stroke="#bbf" stroke-width="1.518" stroke-dasharray="6.608 85.013" fill="url(#am)"/><rect width="4.188" height="10.039" transform="translate(201.587 272.609)" stroke="#bbf" stroke-width="1.518" stroke-dasharray="4.221 24.47" fill="url(#am)"/><text transform="translate(551.149 63.99) rotate(-20.972)" font-size="10" font-family="HKGrotesk-Regular, HK Grotesk" style="isolation:isolate"><tspan x="0" y="0">td 29</tspan></text><text transform="translate(540.397 92.826) rotate(-20.972)" font-size="10" font-family="HKGrotesk-Regular, HK Grotesk" style="isolation:isolate"><tspan x="0" y="0">td 28</tspan></text><text transform="translate(499.529 121.662) rotate(-20.972)" font-size="10" font-family="HKGrotesk-Regular, HK Grotesk" style="isolation:isolate"><tspan x="0" y="0">td 27</tspan></text><text transform="translate(475.867 150.501) rotate(-20.972)" font-size="10" font-family="HKGrotesk-Regular, HK Grotesk" style="isolation:isolate"><tspan x="0" y="0">td 26</tspan></text><text transform="translate(460.028 179.339) rotate(-20.972)" font-size="10" font-family="HKGrotesk-Regular, HK Grotesk" style="isolation:isolate"><tspan x="0" y="0">td 25</tspan></text><text transform="translate(438.182 237.013) rotate(-20.972)" font-size="10" font-family="HKGrotesk-Regular, HK Grotesk" style="isolation:isolate"><tspan x="0" y="0">td 24</tspan></text><text transform="translate(416.703 265.853) rotate(-20.972)" font-size="10" font-family="HKGrotesk-Regular, HK Grotesk" style="isolation:isolate"><tspan x="0" y="0">td 23</tspan></text><text transform="translate(388.761 208.178) rotate(-20.972)" font-size="10" font-family="HKGrotesk-Regular, HK Grotesk" style="isolation:isolate"><tspan x="0" y="0">td 22</tspan></text><text transform="translate(366.642 237.016) rotate(-20.972)" font-size="10" font-family="HKGrotesk-Regular, HK Grotesk" style="isolation:isolate"><tspan x="0" y="0">td 21</tspan></text><text transform="translate(346.8 265.851) rotate(-20.972)" font-size="10" font-family="HKGrotesk-Regular, HK Grotesk" style="isolation:isolate"><tspan x="0" y="0">td 20</tspan></text><text transform="translate(305.296 237.015) rotate(-20.972)" font-size="10" font-family="HKGrotesk-Regular, HK Grotesk" style="isolation:isolate"><tspan x="0" y="0">td 19</tspan></text><text transform="translate(268.252 265.852) rotate(-20.972)" font-size="10" font-family="HKGrotesk-Regular, HK Grotesk" style="isolation:isolate"><tspan x="0" y="0">td 18</tspan></text><text transform="translate(208.269 237.018) rotate(-20.972)" font-size="10" font-family="HKGrotesk-Regular, HK Grotesk" style="isolation:isolate"><tspan x="0" y="0">td 17</tspan></text><text transform="translate(202.717 265.852) rotate(-20.972)" font-size="10" font-family="HKGrotesk-Regular, HK Grotesk" style="isolation:isolate"><tspan x="0" y="0">td 16</tspan></text><path d="M570.065,280.1" transform="translate(17.443 2.544)" fill="none" stroke="#000" stroke-width="1.012"/><path d="M32.679,280.1" transform="translate(-15.136 2.544)" fill="none" stroke="#000" stroke-width="1.012"/><line y2="19.437" transform="translate(177.376 297.488)" fill="none" stroke="#999" stroke-width="1.012"/><path d="M484.076,392.088" transform="translate(12.23 9.333)" fill="none" stroke="#999" stroke-width="1.012"/><path d="M484.076,357.335" transform="translate(12.23 7.227)" fill="none" stroke="#999" stroke-width="1.012"/><path d="M454.641,377.9" transform="translate(10.445 8.474)" fill="none" stroke="#999" stroke-width="1.012"/><path d="M454.641,343.149" transform="translate(10.445 6.367)" fill="none" stroke="#999" stroke-width="1.012"/><line y2="40.666" transform="translate(496.306 364.561)" fill="none" stroke="#999" stroke-width="1.012"/><line y2="40.993" transform="translate(465.086 349.516)" fill="none" stroke="#999" stroke-width="1.012"/><line y2="43.823" transform="translate(367.605 321.304)" fill="none" stroke="#999" stroke-width="1.012"/><line y2="32.27" transform="translate(291.241 306.886)" fill="none" stroke="#999" stroke-width="1.012"/><line y2="9.093" transform="translate(425.395 306.886)" fill="none" stroke="#999" stroke-width="1.012"/><line y2="15.708" transform="translate(422.942 335.724)" fill="none" stroke="#999" stroke-width="1.012"/><path d="M212.663,280.1v14.839h-58.98V280.1" transform="translate(-7.8 2.544)" fill="none" stroke="#99f" stroke-linecap="round" stroke-width="1.543" stroke-dasharray="0.154 3.086"/><path d="M216.161,280.1v24.237h-9.1V280.1" transform="translate(-4.564 2.544)" fill="none" stroke="#99f" stroke-linecap="round" stroke-width="1.543" stroke-dasharray="0.154 3.086"/><path d="M285.633,280.1v14.839H241.216V280.1" transform="translate(-2.493 2.544)" fill="none" stroke="#99f" stroke-linecap="round" stroke-width="1.543" stroke-dasharray="0.154 3.086"/><path d="M328.74,280.1v24.237H256.834V280.1" transform="translate(-1.546 2.544)" fill="none" stroke="#99f" stroke-linecap="round" stroke-width="1.543" stroke-dasharray="0.154 3.086"/><path d="M345.224,280.1v14.839h2V280.1" transform="translate(3.813 2.544)" fill="none" stroke="#99f" stroke-linecap="round" stroke-width="1.543" stroke-dasharray="0.154 3.086"/><path d="M378.242,280.1v24.237H347.113V280.1" transform="translate(3.927 2.544)" fill="none" stroke="#99f" stroke-linecap="round" stroke-width="1.543" stroke-dasharray="0.154 3.086"/><path d="M421.471,280.1v14.839H390.707V280.1" transform="translate(6.57 2.544)" fill="none" stroke="#99f" stroke-linecap="round" stroke-width="1.543" stroke-dasharray="0.154 3.086"/><path d="M391.841,280.1v38.656H335.956V280.1" transform="translate(3.25 2.544)" fill="none" stroke="#99f" stroke-linecap="round" stroke-width="1.543" stroke-dasharray="0.154 3.086"/><path d="M440.924,280.1v24.237H400.148V280.1" transform="translate(7.142 2.544)" fill="none" stroke="#99f" stroke-linecap="round" stroke-width="1.543" stroke-dasharray="0.154 3.086"/><path d="M465.9,280.1v53.08H378.517V280.109" transform="translate(5.831 2.544)" fill="none" stroke="#99f" stroke-linecap="round" stroke-width="1.543" stroke-dasharray="0.154 3.086"/><path d="M470.326,280.1V347.6H440.653V280.1" transform="translate(9.598 2.544)" fill="none" stroke="#99f" stroke-linecap="round" stroke-width="1.543" stroke-dasharray="0.154 3.086"/><path d="M507.937,280.1v81.913H462.792V280.1" transform="translate(10.94 2.544)" fill="none" stroke="#99f" stroke-linecap="round" stroke-width="1.543" stroke-dasharray="0.154 3.086"/><path d="M568.8,280.1V390.853H521.835V280.1" transform="translate(14.52 2.544)" fill="none" stroke="#99f" stroke-linecap="round" stroke-width="1.543" stroke-dasharray="0.154 3.086"/><path d="M575.108,280.1v96.329H60.487V280.1" transform="translate(-13.45 2.544)" fill="none" stroke="#99f" stroke-linecap="round" stroke-width="1.543" stroke-dasharray="0.154 3.086"/><path d="M505.8,280.119h42.688" transform="translate(13.547 2.545)" fill="none" stroke="#000" stroke-width="1.01"/><path d="M566.4,280.119h20.1" transform="translate(17.221 2.545)" fill="none" stroke="#000" stroke-width="1.01"/><path d="M420.339,280.119h43.778" transform="translate(8.366 2.545)" fill="none" stroke="#000" stroke-width="1.01"/><path d="M376.322,280.119h24.16" transform="translate(5.697 2.545)" fill="none" stroke="#000" stroke-width="1.01"/><path d="M284.007,280.119h61.4" transform="translate(0.101 2.545)" fill="none" stroke="#000" stroke-width="1.01"/><path d="M216.7,280.119h41.779" transform="translate(-3.98 2.545)" fill="none" stroke="#000" stroke-width="1.01"/><path d="M7.053,280.119H222.688" transform="translate(-16.689 2.545)" fill="none" stroke="#000" stroke-width="1.01"/><path d="M216.5,280.1" transform="translate(-3.992 2.544)" fill="none" stroke="#000" stroke-width="1.012"/><path d="M210.151,280.1" transform="translate(-4.377 2.544)" fill="none" stroke="#000" stroke-width="1.012"/><text transform="translate(384.169 325.129)" font-size="10" font-family="HKGrotesk-Regular, HK Grotesk" style="isolation:isolate"><tspan x="0" y="0">allora bisognava dire</tspan></text><rect width="24.146" height="3.56" transform="translate(-11.958 281.525)" fill="url(#ba)"/><line x2="2.056" transform="translate(349.886 282.648)" fill="none" stroke="#000" stroke-width="1.01"/><text transform="translate(159.152 330.136)" font-size="10" font-family="HKGrotesk-Regular, HK Grotesk" style="isolation:isolate"><tspan x="0" y="0">o meglio</tspan></text><text transform="translate(276.21 348.766)" font-size="10" font-family="HKGrotesk-Regular, HK Grotesk" style="isolation:isolate"><tspan x="0" y="0">oppure</tspan></text><text transform="translate(342.114 374.597)" font-size="10" font-family="HKGrotesk-Regular, HK Grotesk" style="isolation:isolate"><tspan x="0" y="0">ma sempre</tspan></text><text transform="translate(413.505 359.16)" font-size="10" font-family="HKGrotesk-Regular, HK Grotesk" style="isolation:isolate"><tspan x="0" y="0">cioè</tspan></text><text transform="translate(456.038 399.411)" font-size="10" font-family="HKGrotesk-Regular, HK Grotesk" style="isolation:isolate"><tspan x="0" y="0">cioè</tspan></text><text transform="translate(480.198 414.238)" font-size="10" font-family="HKGrotesk-Regular, HK Grotesk" style="isolation:isolate"><tspan x="0" y="0">e allora</tspan></text><path d="M461.727,278.578c2.606,0,2.606,3.266,5.212,3.266s2.608-3.266,5.215-3.266,2.608,3.266,5.215,3.266,2.608-3.266,5.216-3.266,2.608,3.266,5.216,3.266,2.607-3.266,5.214-3.266,2.609,3.266,5.218,3.266,2.61-3.266,5.221-3.266,2.611,3.266,5.221,3.266" transform="translate(10.875 2.452)" fill="none" stroke="#4500ff" stroke-miterlimit="10" stroke-width="1.155"/><path d="M546.223,278.578c2.109,0,2.109,3.266,4.219,3.266s2.11-3.266,4.219-3.266,2.11,3.266,4.22,3.266,2.114-3.266,4.227-3.266,2.114,3.266,4.228,3.266" transform="translate(15.998 2.452)" fill="none" stroke="#4500ff" stroke-miterlimit="10" stroke-width="1.155"/><path d="M399.083,278.578c2.253,0,2.253,3.266,4.5,3.266s2.253-3.266,4.506-3.266,2.255,3.266,4.51,3.266,2.256-3.266,4.512-3.266,2.256,3.266,4.513,3.266" transform="translate(7.077 2.452)" fill="none" stroke="#4500ff" stroke-miterlimit="10" stroke-width="1.155"/><path d="M347.89,278.578c2.153,0,2.153,3.266,4.306,3.266s2.153-3.266,4.306-3.266,2.152,3.266,4.305,3.266,2.152-3.266,4.305-3.266,2.153,3.266,4.307,3.266,2.156-3.266,4.313-3.266,2.157,3.266,4.314,3.266" transform="translate(3.974 2.452)" fill="none" stroke="#4500ff" stroke-miterlimit="10" stroke-width="1.155"/><path d="M256.09,278.578c2.114,0,2.114,3.266,4.228,3.266s2.114-3.266,4.229-3.266,2.113,3.266,4.227,3.266,2.114-3.266,4.227-3.266,2.115,3.266,4.229,3.266,2.118-3.266,4.235-3.266,2.118,3.266,4.236,3.266" transform="translate(-1.592 2.452)" fill="none" stroke="#4500ff" stroke-miterlimit="10" stroke-width="1.155"/><path d="M341.9,278.578c1.136,0,1.136,3.266,2.271,3.266s1.136-3.266,2.271-3.266" transform="translate(3.61 2.452)" fill="none" stroke="#4500ff" stroke-miterlimit="10" stroke-width="1.155"/><path d="M210.362,278.578c1.68,0,1.68,3.266,3.36,3.266s1.68-3.266,3.361-3.266" transform="translate(-4.364 2.452)" fill="none" stroke="#4500ff" stroke-miterlimit="10" stroke-width="1.155"/><text transform="translate(0 51)" font-size="10" font-family="HKGrotesk-Regular, HK Grotesk"><tspan x="0" y="0">Livelli </tspan></text></g></svg>