<?xml version="1.0" encoding="utf-8"?>
<!-- Generator: Adobe Illustrator 25.0.0, SVG Export Plug-In . SVG Version: 6.00 Build 0)  -->
<svg version="1.1" id="Livello_1" xmlns="http://www.w3.org/2000/svg" xmlns:xlink="http://www.w3.org/1999/xlink" x="0px" y="0px"
	 viewBox="0 0 145.2 143" enable-background="new 0 0 145.2 143" xml:space="preserve">
<rect x="8.4" y="87.5" fill="none" width="128.39999" height="46.7"/>
<g>
	<rect x="-6.04544" y="87.4053" fill="none" width="157.29086" height="41.3894"/>
	<path d="M11.11572,88.92383h1.88867c2.26855,0,3.55762,1.29004,3.55762,3.53809c0,2.21875-1.25879,3.42871-3.56738,3.42871
		h-1.87891V88.92383z M12.93408,95.23047c1.94922,0,2.90918-0.91895,2.90918-2.79785c0-1.88965-0.95996-2.84863-2.84863-2.84863
		h-1.16992v5.64648H12.93408z"/>
	<path d="M17.70557,93.42188c0-1.45898,0.9502-2.53906,2.35938-2.53906c1.39844,0,2.36816,1.08008,2.36816,2.53906
		c0,1.44922-0.95898,2.54883-2.36816,2.54883S17.70557,94.88086,17.70557,93.42188z M21.74365,93.42188
		c0-1.11914-0.62988-1.92871-1.67871-1.92871c-1.05957,0-1.66992,0.81934-1.66992,1.92871
		c0,1.11914,0.62012,1.93848,1.66992,1.93848C21.12354,95.36035,21.74365,94.52148,21.74365,93.42188z"/>
	<path d="M27.5835,90.96289v4.92773h-0.69043v-0.70996c-0.34961,0.53027-0.97949,0.79004-1.62891,0.79004
		c-1.11914,0-1.6084-0.76953-1.6084-1.98926v-3.01855h0.68945v2.84863c0,0.7998,0.13965,1.54883,1.0791,1.54883
		c0.97949,0,1.46875-0.84961,1.46875-2.12891v-2.26855H27.5835z"/>
	<path d="M33.9126,93.42188c0,1.46875-0.75,2.54883-2.18848,2.54883c-0.71973,0-1.26953-0.28027-1.62891-0.74023v0.66016h-0.69043
		v-6.9668h0.69043v2.69922c0.36914-0.48047,0.92871-0.75,1.62891-0.75C33.09326,90.87305,33.9126,91.88281,33.9126,93.42188z
		 M33.22314,93.42188c0-1.16992-0.59961-1.93945-1.59961-1.93945c-0.98926,0-1.58887,0.76953-1.58887,1.93945
		c0,1.11914,0.5498,1.93848,1.58887,1.93848C32.67334,95.36035,33.22314,94.54102,33.22314,93.42188z"/>
	<path d="M35.30518,94.82129v-5.89746h0.69043v5.85742c0,0.33984,0.11914,0.55957,0.44922,0.55957
		c0.15039,0,0.32031-0.04004,0.46973-0.08984l0.00977,0.58984c-0.20996,0.06934-0.45898,0.12988-0.67969,0.12988
		C35.67529,95.9707,35.30518,95.59082,35.30518,94.82129z"/>
	<path d="M41.94385,93.61133h-3.6084c0.02051,1.08008,0.62012,1.72949,1.58887,1.72949c0.54004,0,0.96973-0.13965,1.41992-0.62012
		l0.47949,0.41992c-0.58008,0.60938-1.14941,0.83008-1.90918,0.83008c-1.49902,0-2.26855-1.12012-2.26855-2.51855
		c0-1.38965,0.75977-2.56934,2.18848-2.56934c1.50977,0,2.13867,1.17969,2.13867,2.29883
		C41.97314,93.32227,41.96338,93.49121,41.94385,93.61133z M38.33545,93.03223h2.97852c0-0.02051-0.00977-0.07031-0.00977-0.16016
		c-0.0498-0.7998-0.55957-1.40918-1.46973-1.40918C38.94482,91.46289,38.396,92.16211,38.33545,93.03223z"/>
	<path d="M43.31592,92.5625h2.66895v0.5293h-2.66895V92.5625z"/>
	<path d="M47.34619,93.44141c0-1.29883,0.72949-2.55859,2.21875-2.55859c0.87891,0,1.6084,0.44043,1.99902,1.35938l-0.66016,0.25977
		c-0.22949-0.62891-0.71973-1.00879-1.33887-1.00879c-1.0498,0-1.51953,0.93945-1.51953,1.94824
		c0,1.00977,0.46973,1.91895,1.5293,1.91895c0.62012,0,1.10938-0.36914,1.29883-0.99902l0.63965,0.24023
		c-0.3291,0.89941-1.04883,1.36914-1.93848,1.36914C48.14502,95.9707,47.34619,94.81055,47.34619,93.44141z"/>
	<path d="M52.79541,94.82129v-5.89746h0.69043v5.85742c0,0.33984,0.11914,0.55957,0.44922,0.55957
		c0.15039,0,0.32031-0.04004,0.46973-0.08984l0.00977,0.58984c-0.20996,0.06934-0.45898,0.12988-0.67969,0.12988
		C53.16553,95.9707,52.79541,95.59082,52.79541,94.82129z"/>
	<path d="M55.47607,88.92383h0.7998v1.01953h-0.7998V88.92383z M55.53564,90.96289h0.69043v4.92773h-0.69043V90.96289z"/>
	<path d="M57.63623,93.44141c0-1.29883,0.72949-2.55859,2.21875-2.55859c0.87891,0,1.6084,0.44043,1.99902,1.35938l-0.66016,0.25977
		c-0.22949-0.62891-0.71973-1.00879-1.33887-1.00879c-1.0498,0-1.51953,0.93945-1.51953,1.94824
		c0,1.00977,0.46973,1.91895,1.5293,1.91895c0.62012,0,1.10938-0.36914,1.29883-0.99902l0.63965,0.24023
		c-0.3291,0.89941-1.04883,1.36914-1.93848,1.36914C58.43506,95.9707,57.63623,94.81055,57.63623,93.44141z"/>
	<path d="M63.12549,88.92383h0.69043v4.64746l2.45801-2.6084h0.92969l-1.78906,1.84961l2.06934,3.07812h-0.82031l-1.71875-2.64844
		l-1.12891,1.19922v1.44922h-0.69043V88.92383z"/>
	<path d="M70.87549,93.42188c0-1.45898,0.9502-2.53906,2.35938-2.53906c1.39795,0,2.36768,1.08008,2.36768,2.53906
		c0,1.44922-0.95898,2.54883-2.36768,2.54883C71.82568,95.9707,70.87549,94.88086,70.87549,93.42188z M74.91309,93.42188
		c0-1.11914-0.62988-1.92871-1.67822-1.92871c-1.05957,0-1.66992,0.81934-1.66992,1.92871
		c0,1.11914,0.62012,1.93848,1.66992,1.93848C74.29297,95.36035,74.91309,94.52148,74.91309,93.42188z"/>
	<path d="M80.92188,92.87207v3.01855h-0.68945v-2.84863c0-1.05957-0.33984-1.54883-1.0791-1.54883
		c-0.92969,0-1.46875,0.79883-1.46875,2.18848v2.20898h-0.69043v-4.92773h0.69043v0.71973
		c0.31934-0.5,0.91895-0.7998,1.62891-0.7998C80.37305,90.88281,80.92188,91.5625,80.92188,92.87207z"/>
	<path d="M87.40234,95.84082c-0.25977,0.0791-0.51953,0.12988-0.74902,0.12988c-0.66016,0-1.13965-0.37012-1.13965-1.23926v-3.18848
		h-0.81934v-0.58008h0.81934v-1.37891l0.68945-0.51953v1.89844h1.18945v0.58008h-1.18945v3.09766
		c0,0.48047,0.21973,0.7002,0.61035,0.7002c0.16992,0,0.35938-0.04004,0.5791-0.11035L87.40234,95.84082z"/>
	<path d="M92.6416,92.87207v3.01855h-0.68945v-2.84863c0-1.06934-0.33984-1.54883-1.0791-1.54883
		c-0.93945,0-1.46973,0.76953-1.46973,2.12891v2.26855h-0.68945v-6.9668h0.68945v2.75879c0.32031-0.5,0.91992-0.7998,1.62988-0.7998
		C92.09277,90.88281,92.6416,91.5625,92.6416,92.87207z"/>
	<path d="M98.24219,93.61133h-3.6084c0.02051,1.08008,0.62012,1.72949,1.58887,1.72949c0.54004,0,0.96973-0.13965,1.41992-0.62012
		l0.47949,0.41992c-0.58008,0.60938-1.14941,0.83008-1.90918,0.83008c-1.49902,0-2.26855-1.12012-2.26855-2.51855
		c0-1.38965,0.75977-2.56934,2.18848-2.56934c1.50977,0,2.13867,1.17969,2.13867,2.29883
		C98.27148,93.32227,98.26172,93.49121,98.24219,93.61133z M94.63379,93.03223h2.97852c0-0.02051-0.00977-0.07031-0.00977-0.16016
		c-0.0498-0.7998-0.55957-1.40918-1.46973-1.40918C95.24316,91.46289,94.69434,92.16211,94.63379,93.03223z"/>
	<path d="M106.23145,96.65039c0,0.92871-0.86914,1.3584-2.1084,1.3584c-1.36914,0-2.19922-0.53906-2.19922-1.51855
		c0-0.10059,0.01074-0.16016,0.02051-0.21973l0.7998-0.67969c-0.37988-0.16992-0.63965-0.4502-0.63965-0.93945
		c0-0.40039,0.17969-0.7002,0.5293-0.93945c-0.25977-0.2998-0.41992-0.67969-0.41992-1.12012
		c0-0.99902,0.81934-1.70898,1.87891-1.70898c0.47949,0,0.91016,0.15039,1.22949,0.40039l0.67969-0.58984l0.35938,0.44922
		l-0.66895,0.56055c0.16992,0.26953,0.26953,0.5791,0.26953,0.92871c0,1.00977-0.81934,1.67969-1.85938,1.67969
		c-0.37891,0-0.72949-0.08984-1.01953-0.25c-0.19922,0.10938-0.31934,0.29004-0.31934,0.5c0,0.49902,0.62012,0.61914,1.3291,0.72949
		C105.07227,95.44043,106.23145,95.58008,106.23145,96.65039z M105.54199,96.70996c0-0.59961-0.7793-0.68945-1.59863-0.81934
		c-0.21973-0.03027-0.4502-0.07031-0.66016-0.12012l-0.66992,0.64941c-0.00977,0.0498-0.00977,0.07031-0.00977,0.08984
		c0,0.7002,0.70996,0.91992,1.5498,0.91992C105.02246,97.42969,105.54199,97.18945,105.54199,96.70996z M102.89355,92.6123
		c0,0.63965,0.45996,1.12891,1.19922,1.12891c0.74023,0,1.17969-0.47949,1.17969-1.12891c0-0.67969-0.45996-1.14941-1.16992-1.14941
		C103.40332,91.46289,102.89355,91.93262,102.89355,92.6123z"/>
	<path d="M110.60254,91.09277l-0.33984,0.55957c-0.23047-0.09961-0.44043-0.14941-0.65039-0.14941
		c-0.75879,0-1.31836,0.56934-1.31836,1.63867v2.74902h-0.69043v-4.92773h0.69043v0.74023
		c0.35938-0.65039,0.95898-0.82031,1.45898-0.82031C110.05273,90.88281,110.33203,90.94336,110.60254,91.09277z"/>
	<path d="M115.29102,92.82227v3.06836h-0.62891l-0.04004-0.75977c-0.39062,0.5498-0.99023,0.83984-1.76953,0.83984
		c-1.06934,0-1.69922-0.56055-1.69922-1.50977c0-0.49902,0.2002-0.87891,0.55957-1.09961
		c0.37988-0.21973,0.91016-0.30957,1.87988-0.30957h1.00879v-0.22949c0-0.85938-0.44922-1.3291-1.2793-1.3291
		c-0.61914,0-1.09961,0.26953-1.49902,0.81934l-0.5-0.41992c0.53027-0.68945,1.16992-1.00977,2.00879-1.00977
		C114.57129,90.88281,115.29102,91.59277,115.29102,92.82227z M114.60156,93.68164v-0.07031h-0.94922
		c-0.90918,0-1.2998,0.06055-1.53906,0.25c-0.17969,0.13965-0.27051,0.36035-0.27051,0.63965
		c0,0.5498,0.4707,0.89941,1.20996,0.89941C114.00195,95.40039,114.60156,94.73145,114.60156,93.68164z"/>
	<path d="M121.48047,93.42188c0,1.46875-0.75,2.54883-2.18848,2.54883c-0.71973,0-1.26953-0.28027-1.62891-0.74023v2.69824h-0.69043
		v-6.96582h0.69043v0.66016c0.36914-0.48047,0.92871-0.75,1.62891-0.75C120.66113,90.87305,121.48047,91.88281,121.48047,93.42188z
		 M120.79102,93.42188c0-1.16992-0.59961-1.93945-1.59961-1.93945c-0.98926,0-1.58887,0.76953-1.58887,1.93945
		c0,1.11914,0.5498,1.93848,1.58887,1.93848C120.24121,95.36035,120.79102,94.54102,120.79102,93.42188z"/>
	<path d="M126.84082,92.87207v3.01855h-0.68945v-2.84863c0-1.06934-0.33984-1.54883-1.0791-1.54883
		c-0.93945,0-1.46973,0.76953-1.46973,2.12891v2.26855h-0.68945v-6.9668h0.68945v2.75879c0.32031-0.5,0.91992-0.7998,1.62988-0.7998
		C126.29199,90.88281,126.84082,91.5625,126.84082,92.87207z"/>
	<path d="M128.4834,88.92383h0.7998v1.01953h-0.7998V88.92383z M128.54297,90.96289h0.69043v4.92773h-0.69043V90.96289z"/>
	<path d="M130.64355,93.44141c0-1.29883,0.72949-2.55859,2.21875-2.55859c0.87891,0,1.6084,0.44043,1.99902,1.35938
		l-0.66016,0.25977c-0.22949-0.62891-0.71973-1.00879-1.33887-1.00879c-1.0498,0-1.51953,0.93945-1.51953,1.94824
		c0,1.00977,0.46973,1.91895,1.5293,1.91895c0.62012,0,1.10938-0.36914,1.29883-0.99902l0.63965,0.24023
		c-0.3291,0.89941-1.04883,1.36914-1.93848,1.36914C131.44238,95.9707,130.64355,94.81055,130.64355,93.44141z"/>
	<path d="M30.03857,105.6123h-3.6084c0.02051,1.0791,0.62012,1.72852,1.58887,1.72852c0.54004,0,0.96973-0.13965,1.41992-0.61914
		l0.47949,0.41895c-0.58008,0.61035-1.14941,0.83008-1.90918,0.83008c-1.49902,0-2.26855-1.11914-2.26855-2.51855
		c0-1.38965,0.75977-2.56836,2.18848-2.56836c1.50977,0,2.13867,1.17871,2.13867,2.29785
		C30.06787,105.32227,30.05811,105.49219,30.03857,105.6123z M26.43018,105.03223h2.97852
		c0-0.02051-0.00977-0.07031-0.00977-0.16016c-0.0498-0.7998-0.55957-1.40918-1.46973-1.40918
		C27.03955,103.46289,26.49072,104.16309,26.43018,105.03223z"/>
	<path d="M31.42041,106.82129v-5.89648h0.69043v5.85645c0,0.33984,0.11914,0.55957,0.44922,0.55957
		c0.15039,0,0.32031-0.04004,0.46973-0.08984l0.00977,0.58984c-0.20996,0.06934-0.45898,0.12988-0.67969,0.12988
		C31.79053,107.9707,31.42041,107.59082,31.42041,106.82129z"/>
	<path d="M38.05908,105.6123h-3.6084c0.02051,1.0791,0.62012,1.72852,1.58887,1.72852c0.54004,0,0.96973-0.13965,1.41992-0.61914
		l0.47949,0.41895c-0.58008,0.61035-1.14941,0.83008-1.90918,0.83008c-1.49902,0-2.26855-1.11914-2.26855-2.51855
		c0-1.38965,0.75977-2.56836,2.18848-2.56836c1.50977,0,2.13867,1.17871,2.13867,2.29785
		C38.08838,105.32227,38.07861,105.49219,38.05908,105.6123z M34.45068,105.03223h2.97852
		c0-0.02051-0.00977-0.07031-0.00977-0.16016c-0.0498-0.7998-0.55957-1.40918-1.46973-1.40918
		C35.06006,103.46289,34.51123,104.16309,34.45068,105.03223z"/>
	<path d="M46.23779,104.8125v3.07812h-0.68945v-2.88867c0-0.41992,0-1.50879-1.08008-1.50879
		c-0.99902,0-1.26855,0.91895-1.26855,2.02832v2.36914h-0.69043v-2.84863c0-0.81934-0.25-1.54883-1.10938-1.54883
		c-0.95898,0-1.22852,0.90918-1.22852,2.02832v2.36914h-0.69043l-0.00977-4.92773h0.66992v0.60059
		c0.30957-0.49023,0.80957-0.67969,1.35938-0.67969c0.68945,0,1.19922,0.2998,1.44922,0.94922
		c0.31934-0.62988,0.86914-0.94922,1.61914-0.94922C45.74756,102.88379,46.23779,103.66309,46.23779,104.8125z"/>
	<path d="M51.83936,105.6123h-3.6084c0.02051,1.0791,0.62012,1.72852,1.58887,1.72852c0.54004,0,0.96973-0.13965,1.41992-0.61914
		l0.47949,0.41895c-0.58008,0.61035-1.14941,0.83008-1.90918,0.83008c-1.49902,0-2.26855-1.11914-2.26855-2.51855
		c0-1.38965,0.75977-2.56836,2.18848-2.56836c1.50977,0,2.13867,1.17871,2.13867,2.29785
		C51.86865,105.32227,51.85889,105.49219,51.83936,105.6123z M48.23096,105.03223h2.97852
		c0-0.02051-0.00977-0.07031-0.00977-0.16016c-0.0498-0.7998-0.55957-1.40918-1.46973-1.40918
		C48.84033,103.46289,48.2915,104.16309,48.23096,105.03223z"/>
	<path d="M57.18896,104.87207v3.01855h-0.68945v-2.84863c0-1.05957-0.33984-1.54883-1.0791-1.54883
		c-0.92969,0-1.46973,0.7998-1.46973,2.18848v2.20898h-0.68945v-4.92773h0.68945v0.71973
		c0.32031-0.49902,0.91992-0.79883,1.62988-0.79883C56.64014,102.88379,57.18896,103.56348,57.18896,104.87207z"/>
	<path d="M60.93994,107.84082c-0.25977,0.08008-0.51953,0.12988-0.74902,0.12988c-0.66016,0-1.13965-0.37012-1.13965-1.23926
		v-3.18848h-0.81934v-0.58008h0.81934v-1.37891l0.68945-0.51953v1.89844h1.18945v0.58008h-1.18945v3.09863
		c0,0.47949,0.21973,0.69922,0.61035,0.69922c0.16992,0,0.35938-0.04004,0.5791-0.10938L60.93994,107.84082z"/>
	<path d="M67.02979,107.84082c-0.25977,0.08008-0.51953,0.12988-0.74902,0.12988c-0.66016,0-1.13965-0.37012-1.13965-1.23926
		v-3.18848h-0.81934v-0.58008h0.81934v-1.37891l0.68945-0.51953v1.89844h1.18945v0.58008h-1.18945v3.09863
		c0,0.47949,0.21973,0.69922,0.61035,0.69922c0.16992,0,0.35938-0.04004,0.5791-0.10938L67.02979,107.84082z"/>
	<path d="M67.86182,105.42188c0-1.45898,0.9502-2.53809,2.35938-2.53809c1.39844,0,2.36816,1.0791,2.36816,2.53809
		c0,1.44922-0.95898,2.54883-2.36816,2.54883S67.86182,106.88086,67.86182,105.42188z M71.8999,105.42188
		c0-1.11914-0.62988-1.92871-1.67871-1.92871c-1.05957,0-1.66992,0.81934-1.66992,1.92871
		c0,1.11914,0.62012,1.93945,1.66992,1.93945C71.27979,107.36133,71.8999,106.52148,71.8999,105.42188z"/>
	<path d="M79.70898,103.09375l-0.33984,0.55957c-0.23047-0.10059-0.44043-0.15039-0.65039-0.15039
		c-0.75879,0-1.31934,0.56934-1.31934,1.63965v2.74805h-0.68945v-4.92773h0.68945v0.74023
		c0.36035-0.64941,0.95996-0.81934,1.45996-0.81934C79.15918,102.88379,79.43848,102.94336,79.70898,103.09375z"/>
	<path d="M84.17773,105.6123h-3.6084c0.02051,1.0791,0.62012,1.72852,1.58887,1.72852c0.54004,0,0.96973-0.13965,1.41992-0.61914
		l0.47949,0.41895c-0.58008,0.61035-1.14941,0.83008-1.90918,0.83008c-1.49902,0-2.26855-1.11914-2.26855-2.51855
		c0-1.38965,0.75977-2.56836,2.18848-2.56836c1.50977,0,2.13867,1.17871,2.13867,2.29785
		C84.20703,105.32227,84.19727,105.49219,84.17773,105.6123z M80.56934,105.03223h2.97852
		c0-0.02051-0.00977-0.07031-0.00977-0.16016c-0.0498-0.7998-0.55957-1.40918-1.46973-1.40918
		C81.17871,103.46289,80.62988,104.16309,80.56934,105.03223z"/>
	<path d="M84.89062,102.96289h0.74902l1.5498,4.04785l1.55859-4.04785h0.75977l-2.01855,4.92773h-0.58984L84.89062,102.96289z"/>
	<path d="M94.36816,105.6123h-3.6084c0.02051,1.0791,0.62012,1.72852,1.58887,1.72852c0.54004,0,0.96973-0.13965,1.41992-0.61914
		l0.47949,0.41895c-0.58008,0.61035-1.14941,0.83008-1.90918,0.83008c-1.49902,0-2.26855-1.11914-2.26855-2.51855
		c0-1.38965,0.75977-2.56836,2.18848-2.56836c1.50977,0,2.13867,1.17871,2.13867,2.29785
		C94.39746,105.32227,94.3877,105.49219,94.36816,105.6123z M90.75977,105.03223h2.97852c0-0.02051-0.00977-0.07031-0.00977-0.16016
		c-0.0498-0.7998-0.55957-1.40918-1.46973-1.40918C91.36914,103.46289,90.82031,104.16309,90.75977,105.03223z"/>
	<path d="M99.45801,104.82227v3.06836H98.8291l-0.04004-0.75977c-0.38965,0.5498-0.99023,0.83984-1.76953,0.83984
		c-1.06934,0-1.69922-0.55957-1.69922-1.50977c0-0.49902,0.2002-0.87891,0.55957-1.09863
		c0.37988-0.21973,0.91016-0.31055,1.87891-0.31055h1.00977v-0.22949c0-0.85938-0.44922-1.3291-1.2793-1.3291
		c-0.61914,0-1.09961,0.26953-1.49902,0.81934l-0.5-0.41992c0.53027-0.68945,1.16992-1.00879,2.00879-1.00879
		C98.73828,102.88379,99.45801,103.59277,99.45801,104.82227z M98.76855,105.68164v-0.06934h-0.94922
		c-0.90918,0-1.2998,0.05957-1.53906,0.24902c-0.17969,0.14062-0.27051,0.36035-0.27051,0.63965
		c0,0.5498,0.46973,0.90039,1.20996,0.90039C98.16895,107.40137,98.76855,106.73145,98.76855,105.68164z"/>
	<path d="M101.09961,106.82129v-5.89648h0.69043v5.85645c0,0.33984,0.11914,0.55957,0.44922,0.55957
		c0.15039,0,0.32031-0.04004,0.46973-0.08984l0.00977,0.58984c-0.20996,0.06934-0.45898,0.12988-0.67969,0.12988
		C101.46973,107.9707,101.09961,107.59082,101.09961,106.82129z"/>
	<path d="M108.61816,107.84082c-0.25977,0.08008-0.51953,0.12988-0.74902,0.12988c-0.66016,0-1.13965-0.37012-1.13965-1.23926
		v-3.18848h-0.81934v-0.58008h0.81934v-1.37891l0.68945-0.51953v1.89844h1.18945v0.58008h-1.18945v3.09863
		c0,0.47949,0.21973,0.69922,0.61035,0.69922c0.16992,0,0.35938-0.04004,0.5791-0.10938L108.61816,107.84082z"/>
	<path d="M113.85742,104.87207v3.01855h-0.68945v-2.84863c0-1.06934-0.33984-1.54883-1.0791-1.54883
		c-0.93945,0-1.46875,0.76953-1.46875,2.12891v2.26855h-0.69043v-6.96582h0.69043v2.75781
		c0.31934-0.49902,0.91895-0.79883,1.62891-0.79883C113.30859,102.88379,113.85742,103.56348,113.85742,104.87207z"/>
	<path d="M119.45801,105.6123h-3.6084c0.02051,1.0791,0.62012,1.72852,1.58887,1.72852c0.54004,0,0.96973-0.13965,1.41992-0.61914
		l0.47949,0.41895c-0.58008,0.61035-1.14941,0.83008-1.90918,0.83008c-1.49902,0-2.26855-1.11914-2.26855-2.51855
		c0-1.38965,0.75977-2.56836,2.18848-2.56836c1.50977,0,2.13867,1.17871,2.13867,2.29785
		C119.4873,105.32227,119.47754,105.49219,119.45801,105.6123z M115.84961,105.03223h2.97852
		c0-0.02051-0.00977-0.07031-0.00977-0.16016c-0.0498-0.7998-0.55957-1.40918-1.46973-1.40918
		C116.45898,103.46289,115.91016,104.16309,115.84961,105.03223z"/>
	<path d="M38.51025,118.82129v-5.89648h0.69043v5.85645c0,0.33984,0.11914,0.55957,0.44922,0.55957
		c0.15039,0,0.32031-0.04004,0.46973-0.08984l0.00977,0.58984c-0.20996,0.06934-0.45898,0.12988-0.67969,0.12988
		C38.88037,119.9707,38.51025,119.59082,38.51025,118.82129z"/>
	<path d="M40.8208,117.42188c0-1.45898,0.9502-2.53809,2.35938-2.53809c1.39844,0,2.36816,1.0791,2.36816,2.53809
		c0,1.44922-0.95898,2.54883-2.36816,2.54883S40.8208,118.88086,40.8208,117.42188z M44.85889,117.42188
		c0-1.11914-0.62988-1.92871-1.67871-1.92871c-1.05957,0-1.66992,0.81934-1.66992,1.92871
		c0,1.11914,0.62012,1.93945,1.66992,1.93945C44.23877,119.36133,44.85889,118.52148,44.85889,117.42188z"/>
	<path d="M46.53076,117.44238c0-1.2998,0.72949-2.55859,2.21875-2.55859c0.87891,0,1.6084,0.43945,1.99902,1.3584l-0.66016,0.26074
		c-0.22949-0.62988-0.71973-1.00977-1.33887-1.00977c-1.0498,0-1.51953,0.93945-1.51953,1.94922
		c0,1.00879,0.46973,1.91895,1.5293,1.91895c0.62012,0,1.10938-0.37012,1.29883-1l0.63965,0.24023
		c-0.3291,0.89941-1.04883,1.36914-1.93848,1.36914C47.32959,119.9707,46.53076,118.81152,46.53076,117.44238z"/>
	<path d="M55.63818,116.82227v3.06836h-0.62891l-0.04004-0.75977c-0.38965,0.5498-0.99023,0.83984-1.76953,0.83984
		c-1.06934,0-1.69922-0.55957-1.69922-1.50977c0-0.49902,0.2002-0.87891,0.55957-1.09863
		c0.37988-0.21973,0.91016-0.31055,1.87891-0.31055h1.00977v-0.22949c0-0.85938-0.44922-1.3291-1.2793-1.3291
		c-0.61914,0-1.09961,0.26953-1.49902,0.81934l-0.5-0.41992c0.53027-0.68945,1.16992-1.00879,2.00879-1.00879
		C54.91846,114.88379,55.63818,115.59277,55.63818,116.82227z M54.94873,117.68164v-0.06934h-0.94922
		c-0.90918,0-1.2998,0.05957-1.53906,0.24902c-0.17969,0.14062-0.27051,0.36035-0.27051,0.63965
		c0,0.5498,0.46973,0.90039,1.20996,0.90039C54.34912,119.40137,54.94873,118.73145,54.94873,117.68164z"/>
	<path d="M59.36865,119.84082c-0.25977,0.08008-0.51953,0.12988-0.74902,0.12988c-0.66016,0-1.13965-0.37012-1.13965-1.23926
		v-3.18848h-0.81934v-0.58008h0.81934v-1.37891l0.68945-0.51953v1.89844h1.18945v0.58008h-1.18945v3.09863
		c0,0.47949,0.21973,0.69922,0.61035,0.69922c0.16992,0,0.35938-0.04004,0.5791-0.10938L59.36865,119.84082z"/>
	<path d="M60.62061,112.9248h0.7998v1.01953h-0.7998V112.9248z M60.68018,114.96289h0.69043v4.92773h-0.69043V114.96289z"/>
	<path d="M62.76025,117.42188c0-1.45898,0.9502-2.53809,2.35938-2.53809c1.39844,0,2.36816,1.0791,2.36816,2.53809
		c0,1.44922-0.95898,2.54883-2.36816,2.54883S62.76025,118.88086,62.76025,117.42188z M66.79834,117.42188
		c0-1.11914-0.62988-1.92871-1.67871-1.92871c-1.05957,0-1.66992,0.81934-1.66992,1.92871
		c0,1.11914,0.62012,1.93945,1.66992,1.93945C66.17822,119.36133,66.79834,118.52148,66.79834,117.42188z"/>
	<path d="M72.80713,116.87207v3.01855h-0.68945v-2.84863c0-1.05957-0.33984-1.54883-1.0791-1.54883
		c-0.92969,0-1.46875,0.7998-1.46875,2.18848v2.20898h-0.69043v-4.92773h0.69043v0.71973
		c0.31934-0.49902,0.91895-0.79883,1.62891-0.79883C72.2583,114.88379,72.80713,115.56348,72.80713,116.87207z"/>
	<path d="M73.97998,118.68164l0.57959-0.25977c0.17969,0.50977,0.65918,0.93945,1.42871,0.93945
		c0.66992,0,1.09961-0.33008,1.09961-0.84961c0-1.30957-2.83887-0.49023-2.83887-2.23926c0-0.85938,0.7002-1.38867,1.68945-1.38867
		c0.78906,0,1.42871,0.3291,1.76855,1.0293l-0.5498,0.2998c-0.23926-0.44043-0.62891-0.71973-1.23926-0.71973
		c-0.60938,0-0.99902,0.25-0.99902,0.67969c0,1.16895,2.84863,0.42969,2.84863,2.29883c0,0.99902-0.81934,1.49902-1.76953,1.49902
		C75.0293,119.9707,74.23926,119.4707,73.97998,118.68164z"/>
	<path d="M81.83887,112.9248h0.7998v1.01953h-0.7998V112.9248z M81.89844,114.96289h0.69043v4.92773h-0.69043V114.96289z"/>
	<path d="M88.33594,116.87207v3.01855h-0.68945v-2.84863c0-1.05957-0.33984-1.54883-1.0791-1.54883
		c-0.92969,0-1.46875,0.7998-1.46875,2.18848v2.20898H84.4082v-4.92773h0.69043v0.71973
		c0.31934-0.49902,0.91895-0.79883,1.62891-0.79883C87.78711,114.88379,88.33594,115.56348,88.33594,116.87207z"/>
	<path d="M89.50879,118.68164l0.58008-0.25977c0.17969,0.50977,0.65918,0.93945,1.42871,0.93945
		c0.66992,0,1.09961-0.33008,1.09961-0.84961c0-1.30957-2.83887-0.49023-2.83887-2.23926c0-0.85938,0.7002-1.38867,1.68945-1.38867
		c0.78906,0,1.42871,0.3291,1.76855,1.0293l-0.5498,0.2998c-0.23926-0.44043-0.62891-0.71973-1.23926-0.71973
		c-0.60938,0-0.99902,0.25-0.99902,0.67969c0,1.16895,2.84863,0.42969,2.84863,2.29883c0,0.99902-0.81934,1.49902-1.76953,1.49902
		C90.55859,119.9707,89.76855,119.4707,89.50879,118.68164z"/>
	<path d="M94.63867,112.9248h0.7998v1.01953h-0.7998V112.9248z M94.69824,114.96289h0.68945v4.92773h-0.68945V114.96289z"/>
	<path d="M101.32617,112.9248v6.96582h-0.68945v-0.65918c-0.36035,0.45898-0.91016,0.73926-1.62891,0.73926
		c-1.43945,0-2.18945-1.0791-2.18945-2.54883c0-1.53906,0.81934-2.54883,2.18945-2.54883c0.69922,0,1.25879,0.27051,1.62891,0.75
		v-2.69824H101.32617z M100.69629,117.42188c0-1.16895-0.59961-1.93848-1.58887-1.93848c-1,0-1.59961,0.76953-1.59961,1.93848
		c0,1.11914,0.5498,1.93945,1.59961,1.93945C100.14648,119.36133,100.69629,118.54102,100.69629,117.42188z"/>
	<path d="M107.0459,117.6123h-3.6084c0.02051,1.0791,0.62012,1.72852,1.58887,1.72852c0.54004,0,0.96973-0.13965,1.41992-0.61914
		l0.47949,0.41895c-0.58008,0.61035-1.14941,0.83008-1.90918,0.83008c-1.49902,0-2.26855-1.11914-2.26855-2.51855
		c0-1.38965,0.75977-2.56836,2.18848-2.56836c1.50977,0,2.13867,1.17871,2.13867,2.29785
		C107.0752,117.32227,107.06543,117.49219,107.0459,117.6123z M103.4375,117.03223h2.97852
		c0-0.02051-0.00977-0.07031-0.00977-0.16016c-0.0498-0.7998-0.55957-1.40918-1.46973-1.40918
		C104.04688,115.46289,103.49805,116.16309,103.4375,117.03223z"/>
</g>
</svg>
