<?xml version="1.0" encoding="utf-8"?>
<!-- Generator: Adobe Illustrator 25.0.0, SVG Export Plug-In . SVG Version: 6.00 Build 0)  -->
<svg version="1.1" id="Livello_1" xmlns="http://www.w3.org/2000/svg" xmlns:xlink="http://www.w3.org/1999/xlink" x="0px" y="0px"
	 viewBox="0 0 145.2 143" enable-background="new 0 0 145.2 143" xml:space="preserve">
<g enable-background="new    ">
	<path d="M23.70996,89.03418h4.72754v0.65918h-4.01758v2.42871h3.51807v0.66016h-3.51807V96h-0.70996V89.03418z"/>
	<path d="M33.07861,92.93164V96h-0.62988l-0.04004-0.75977c-0.38965,0.5498-0.98926,0.83984-1.76904,0.83984
		c-1.06934,0-1.69873-0.55957-1.69873-1.50977c0-0.49902,0.19971-0.87891,0.55957-1.09863
		c0.37988-0.21973,0.90967-0.31055,1.87891-0.31055h1.00928v-0.22949c0-0.85938-0.44971-1.3291-1.2793-1.3291
		c-0.61963,0-1.09912,0.26953-1.49902,0.81934l-0.49951-0.41992c0.5293-0.68945,1.16895-1.00879,2.00879-1.00879
		C32.35889,90.99316,33.07861,91.70215,33.07861,92.93164z M32.38867,93.79102v-0.06934h-0.94922
		c-0.90967,0-1.29932,0.05957-1.53906,0.24902c-0.18018,0.14062-0.27002,0.36035-0.27002,0.63965
		c0,0.5498,0.46973,0.90039,1.20947,0.90039C31.78906,95.51074,32.38867,94.84082,32.38867,93.79102z"/>
	<path d="M34.3501,93.55176c0-1.2998,0.72998-2.55859,2.21875-2.55859c0.87988,0,1.60938,0.43945,1.99902,1.3584L37.9082,92.6123
		c-0.22949-0.62988-0.71924-1.00977-1.33936-1.00977c-1.04932,0-1.51904,0.93945-1.51904,1.94922
		c0,1.00879,0.46973,1.91895,1.5293,1.91895c0.61963,0,1.10938-0.37012,1.29932-1l0.63965,0.24023
		c-0.33008,0.89941-1.04932,1.36914-1.93896,1.36914C35.1499,96.08008,34.3501,94.9209,34.3501,93.55176z"/>
	<path d="M43.68799,93.72168h-3.60791c0.02002,1.0791,0.61963,1.72852,1.58936,1.72852c0.53955,0,0.96924-0.13965,1.41895-0.61914
		L43.56836,95.25c-0.57959,0.61035-1.14941,0.83008-1.90918,0.83008c-1.49902,0-2.26855-1.11914-2.26855-2.51855
		c0-1.38965,0.75977-2.56836,2.18896-2.56836c1.50879,0,2.13867,1.17871,2.13867,2.29785
		C43.71826,93.43164,43.70801,93.60156,43.68799,93.72168z M40.08008,93.1416h2.97852c0-0.02051-0.01025-0.07031-0.01025-0.16016
		c-0.0498-0.7998-0.55957-1.40918-1.46875-1.40918C40.68994,91.57227,40.14014,92.27246,40.08008,93.1416z"/>
	<path d="M49.03809,92.98145V96h-0.68945v-2.84863c0-1.05957-0.33984-1.54883-1.07959-1.54883
		c-0.92969,0-1.46924,0.7998-1.46924,2.18848V96h-0.68945v-4.92773h0.68945v0.71973
		c0.31982-0.49902,0.91943-0.79883,1.62891-0.79883C48.48828,90.99316,49.03809,91.67285,49.03809,92.98145z"/>
	<path d="M54.85791,89.03418V96h-0.68994v-0.65918c-0.35938,0.45898-0.90918,0.73926-1.62891,0.73926
		c-1.43896,0-2.18896-1.0791-2.18896-2.54883c0-1.53906,0.81982-2.54883,2.18896-2.54883c0.69971,0,1.25928,0.27051,1.62891,0.75
		v-2.69824H54.85791z M54.22803,93.53125c0-1.16895-0.59961-1.93848-1.58887-1.93848c-0.99951,0-1.59912,0.76953-1.59912,1.93848
		c0,1.11914,0.54932,1.93945,1.59912,1.93945C53.67822,95.4707,54.22803,94.65039,54.22803,93.53125z"/>
	<path d="M56.25049,93.53125c0-1.45898,0.94922-2.53809,2.3584-2.53809c1.39941,0,2.36865,1.0791,2.36865,2.53809
		c0,1.44922-0.95947,2.54883-2.36865,2.54883S56.25049,94.99023,56.25049,93.53125z M60.28809,93.53125
		c0-1.11914-0.62988-1.92871-1.6792-1.92871c-1.05957,0-1.66895,0.81934-1.66895,1.92871c0,1.11914,0.61963,1.93945,1.66895,1.93945
		C59.66846,95.4707,60.28809,94.63086,60.28809,93.53125z"/>
	<path d="M69.21777,89.03418V96h-0.68994v-0.65918c-0.35938,0.45898-0.90918,0.73926-1.62891,0.73926
		c-1.43896,0-2.18896-1.0791-2.18896-2.54883c0-1.53906,0.81982-2.54883,2.18896-2.54883c0.69971,0,1.25928,0.27051,1.62891,0.75
		v-2.69824H69.21777z M68.58789,93.53125c0-1.16895-0.59961-1.93848-1.58887-1.93848c-0.99951,0-1.59912,0.76953-1.59912,1.93848
		c0,1.11914,0.5498,1.93945,1.59912,1.93945C68.03809,95.4707,68.58789,94.65039,68.58789,93.53125z"/>
	<path d="M70.60986,93.53125c0-1.45898,0.94971-2.53809,2.35889-2.53809c1.39941,0,2.36914,1.0791,2.36914,2.53809
		c0,1.44922-0.95996,2.54883-2.36914,2.54883S70.60986,94.99023,70.60986,93.53125z M74.64844,93.53125
		c0-1.11914-0.62988-1.92871-1.67969-1.92871c-1.05957,0-1.66895,0.81934-1.66895,1.92871
		c0,1.11914,0.61963,1.93945,1.66895,1.93945C74.02832,95.4707,74.64844,94.63086,74.64844,93.53125z"/>
	<path d="M81.2373,93.53125c0,1.46973-0.74902,2.54883-2.18848,2.54883c-0.71973,0-1.26953-0.28027-1.62891-0.73926v2.69824
		h-0.68945v-6.9668h0.68945v0.66016c0.36914-0.47949,0.92969-0.75,1.62891-0.75
		C80.41797,90.98242,81.2373,91.99219,81.2373,93.53125z M80.54785,93.53125c0-1.16895-0.59961-1.93848-1.59863-1.93848
		c-0.99023,0-1.58984,0.76953-1.58984,1.93848c0,1.11914,0.5498,1.93945,1.58984,1.93945
		C79.99805,95.4707,80.54785,94.65039,80.54785,93.53125z"/>
	<path d="M87.17773,93.53125c0,1.46973-0.75,2.54883-2.18945,2.54883c-0.71875,0-1.26855-0.28027-1.62891-0.73926v2.69824h-0.68945
		v-6.9668h0.68945v0.66016c0.37012-0.47949,0.92969-0.75,1.62891-0.75C86.3584,90.98242,87.17773,91.99219,87.17773,93.53125z
		 M86.48828,93.53125c0-1.16895-0.59961-1.93848-1.59961-1.93848c-0.98926,0-1.58887,0.76953-1.58887,1.93848
		c0,1.11914,0.5498,1.93945,1.58887,1.93945C85.93848,95.4707,86.48828,94.65039,86.48828,93.53125z"/>
	<path d="M88.5498,89.03418h0.7998v1.01953h-0.7998V89.03418z M88.61035,91.07227h0.68945V96h-0.68945V91.07227z"/>
	<path d="M90.69043,93.53125c0-1.45898,0.94922-2.53809,2.3584-2.53809c1.39941,0,2.36816,1.0791,2.36816,2.53809
		c0,1.44922-0.95898,2.54883-2.36816,2.54883S90.69043,94.99023,90.69043,93.53125z M94.72754,93.53125
		c0-1.11914-0.62988-1.92871-1.67871-1.92871c-1.05957,0-1.66895,0.81934-1.66895,1.92871
		c0,1.11914,0.61914,1.93945,1.66895,1.93945C94.1084,95.4707,94.72754,94.63086,94.72754,93.53125z"/>
	<path d="M99.12988,93.55176c0-1.2998,0.72949-2.55859,2.21875-2.55859c0.87988,0,1.60938,0.43945,1.99902,1.3584l-0.66016,0.26074
		c-0.22949-0.62988-0.71875-1.00977-1.33887-1.00977c-1.0498,0-1.51953,0.93945-1.51953,1.94922
		c0,1.00879,0.46973,1.91895,1.5293,1.91895c0.62012,0,1.10938-0.37012,1.2998-1l0.63965,0.24023
		c-0.33008,0.89941-1.0498,1.36914-1.93945,1.36914C99.92969,96.08008,99.12988,94.9209,99.12988,93.55176z"/>
	<path d="M104.5791,94.93066v-5.89648h0.68945v5.85645c0,0.33984,0.12012,0.55957,0.4502,0.55957
		c0.14941,0,0.31934-0.04004,0.46973-0.08984l0.00977,0.58984c-0.20996,0.06934-0.45996,0.12988-0.67969,0.12988
		C104.94922,96.08008,104.5791,95.7002,104.5791,94.93066z"/>
	<path d="M107.25977,89.03418h0.79883v1.01953h-0.79883V89.03418z M107.31934,91.07227h0.68945V96h-0.68945V91.07227z"/>
	<path d="M109.41895,93.55176c0-1.2998,0.73047-2.55859,2.21973-2.55859c0.87891,0,1.6084,0.43945,1.99805,1.3584l-0.65918,0.26074
		c-0.22949-0.62988-0.71973-1.00977-1.33887-1.00977c-1.0498,0-1.51953,0.93945-1.51953,1.94922
		c0,1.00879,0.46973,1.91895,1.5293,1.91895c0.61914,0,1.10938-0.37012,1.29883-1l0.63965,0.24023
		c-0.33008,0.89941-1.04883,1.36914-1.93848,1.36914C110.21875,96.08008,109.41895,94.9209,109.41895,93.55176z"/>
	<path d="M114.90918,89.03418h0.68945v4.64746l2.45898-2.60938h0.92969l-1.78906,1.84961L119.2666,96h-0.81934l-1.71875-2.64844
		l-1.12988,1.19922V96h-0.68945V89.03418z"/>
</g>
<g enable-background="new    ">
	<path d="M24.771,107.79102l0.57959-0.25977c0.17969,0.50977,0.65967,0.93945,1.4292,0.93945
		c0.66943,0,1.09961-0.33008,1.09961-0.84961c0-1.30957-2.83887-0.49023-2.83887-2.23926c0-0.85938,0.69971-1.38867,1.68945-1.38867
		c0.78955,0,1.4292,0.3291,1.76904,1.0293l-0.5498,0.2998c-0.23975-0.44043-0.62988-0.71973-1.23926-0.71973
		c-0.60986,0-0.99951,0.25-0.99951,0.67969c0,1.16895,2.84814,0.42969,2.84814,2.29883c0,0.99902-0.81934,1.49902-1.76904,1.49902
		C25.82031,109.08008,25.03076,108.58008,24.771,107.79102z"/>
	<path d="M33.71826,104.07227V109h-0.68945v-0.70996c-0.34961,0.53027-0.97949,0.79004-1.62891,0.79004
		c-1.11963,0-1.60938-0.76953-1.60938-1.98926v-3.01855h0.68945v2.84863c0,0.7998,0.14014,1.5498,1.07959,1.5498
		c0.97949,0,1.46924-0.84961,1.46924-2.12891v-2.26953H33.71826z"/>
	<path d="M35.50049,107.93066v-5.89648h0.68945v5.85645c0,0.33984,0.12012,0.55957,0.44971,0.55957
		c0.1499,0,0.31982-0.04004,0.46973-0.08984l0.01025,0.58984c-0.20996,0.06934-0.45996,0.12988-0.67969,0.12988
		C35.87012,109.08008,35.50049,108.7002,35.50049,107.93066z"/>
	<path d="M38.20068,107.93066v-5.89648h0.68945v5.85645c0,0.33984,0.12012,0.55957,0.44971,0.55957
		c0.1499,0,0.31982-0.04004,0.46973-0.08984l0.01025,0.58984c-0.20996,0.06934-0.45996,0.12988-0.67969,0.12988
		C38.57031,109.08008,38.20068,108.7002,38.20068,107.93066z"/>
	<path d="M41.62988,102.03418h0.78955l-1.31934,2.83789h-0.46973L41.62988,102.03418z"/>
	<path d="M46.73779,106.72168h-3.60791c0.02002,1.0791,0.61963,1.72852,1.58936,1.72852c0.53955,0,0.96924-0.13965,1.41895-0.61914
		l0.47998,0.41895c-0.57959,0.61035-1.14941,0.83008-1.90918,0.83008c-1.49902,0-2.26855-1.11914-2.26855-2.51855
		c0-1.38965,0.75977-2.56836,2.18896-2.56836c1.50879,0,2.13867,1.17871,2.13867,2.29785
		C46.76807,106.43164,46.75781,106.60156,46.73779,106.72168z M43.12988,106.1416h2.97852
		c0-0.02051-0.01025-0.07031-0.01025-0.16016c-0.0498-0.7998-0.55957-1.40918-1.46875-1.40918
		C43.73975,104.57227,43.18994,105.27246,43.12988,106.1416z"/>
	<path d="M48.12061,107.93066v-5.89648h0.68945v5.85645c0,0.33984,0.12012,0.55957,0.44971,0.55957
		c0.1499,0,0.31982-0.04004,0.46973-0.08984l0.01025,0.58984c-0.20996,0.06934-0.45996,0.12988-0.67969,0.12988
		C48.49023,109.08008,48.12061,108.7002,48.12061,107.93066z"/>
	<path d="M54.75781,106.72168H51.1499c0.02002,1.0791,0.61963,1.72852,1.58936,1.72852c0.53955,0,0.96924-0.13965,1.41895-0.61914
		l0.47998,0.41895c-0.57959,0.61035-1.14941,0.83008-1.90918,0.83008c-1.49902,0-2.26855-1.11914-2.26855-2.51855
		c0-1.38965,0.75977-2.56836,2.18896-2.56836c1.50879,0,2.13867,1.17871,2.13867,2.29785
		C54.78809,106.43164,54.77783,106.60156,54.75781,106.72168z M51.1499,106.1416h2.97852c0-0.02051-0.01025-0.07031-0.01025-0.16016
		c-0.0498-0.7998-0.55957-1.40918-1.46875-1.40918C51.75977,104.57227,51.20996,105.27246,51.1499,106.1416z"/>
	<path d="M62.93652,105.92188V109h-0.68994v-2.88867c0-0.41992,0-1.50879-1.0791-1.50879
		c-0.99951,0-1.26953,0.91895-1.26953,2.02832V109H59.2085v-2.84863c0-0.81934-0.25-1.54883-1.10938-1.54883
		c-0.95947,0-1.22949,0.90918-1.22949,2.02832V109h-0.68945l-0.01025-4.92773h0.66992v0.60059
		c0.30957-0.49023,0.80957-0.67969,1.35889-0.67969c0.68994,0,1.19971,0.2998,1.44922,0.94922
		c0.31982-0.62988,0.86963-0.94922,1.61914-0.94922C62.44678,103.99316,62.93652,104.77246,62.93652,105.92188z"/>
	<path d="M68.5376,106.72168h-3.60791c0.02002,1.0791,0.61963,1.72852,1.58936,1.72852c0.53955,0,0.96924-0.13965,1.41895-0.61914
		l0.47998,0.41895c-0.57959,0.61035-1.14941,0.83008-1.90918,0.83008c-1.49902,0-2.26855-1.11914-2.26855-2.51855
		c0-1.38965,0.75977-2.56836,2.18896-2.56836c1.50879,0,2.13867,1.17871,2.13867,2.29785
		C68.56787,106.43164,68.55762,106.60156,68.5376,106.72168z M64.92969,106.1416h2.97852c0-0.02051-0.01025-0.07031-0.01025-0.16016
		c-0.0498-0.7998-0.55957-1.40918-1.46875-1.40918C65.53955,104.57227,64.98975,105.27246,64.92969,106.1416z"/>
	<path d="M73.8877,105.98145V109h-0.68945v-2.84863c0-1.05957-0.33984-1.54883-1.07959-1.54883
		c-0.92969,0-1.46924,0.7998-1.46924,2.18848V109h-0.68945v-4.92773h0.68945v0.71973
		c0.31982-0.49902,0.91943-0.79883,1.62891-0.79883C73.33789,103.99316,73.8877,104.67285,73.8877,105.98145z"/>
	<path d="M77.63867,108.9502c-0.25977,0.08008-0.51953,0.12988-0.74902,0.12988c-0.66016,0-1.13965-0.37012-1.13965-1.23926
		v-3.18848h-0.81934v-0.58008H75.75v-1.37891l0.68945-0.51953v1.89844h1.18945v0.58008h-1.18945v3.09863
		c0,0.47949,0.21973,0.69922,0.60938,0.69922c0.16992,0,0.36035-0.04004,0.58008-0.10938L77.63867,108.9502z"/>
	<path d="M78.4707,106.53125c0-1.45898,0.94922-2.53809,2.3584-2.53809c1.39941,0,2.36914,1.0791,2.36914,2.53809
		c0,1.44922-0.95996,2.54883-2.36914,2.54883S78.4707,107.99023,78.4707,106.53125z M82.50879,106.53125
		c0-1.11914-0.62988-1.92871-1.67969-1.92871c-1.05957,0-1.66895,0.81934-1.66895,1.92871
		c0,1.11914,0.62012,1.93945,1.66895,1.93945C81.88867,108.4707,82.50879,107.63086,82.50879,106.53125z"/>
	<path d="M91.1582,109.75977c0,0.92969-0.87012,1.35938-2.10938,1.35938c-1.36914,0-2.19824-0.54004-2.19824-1.51953
		c0-0.09961,0.00977-0.16016,0.01953-0.21973l0.7998-0.67969c-0.37988-0.16992-0.63965-0.4502-0.63965-0.93945
		c0-0.39941,0.17969-0.69922,0.5293-0.93945c-0.25977-0.2998-0.41992-0.67969-0.41992-1.11914c0-1,0.82031-1.70898,1.87891-1.70898
		c0.48047,0,0.91016,0.14941,1.22949,0.39941l0.67969-0.58984l0.36035,0.4502l-0.66992,0.55957
		c0.16992,0.26953,0.26953,0.5791,0.26953,0.92969c0,1.00879-0.81934,1.67871-1.8584,1.67871
		c-0.37988,0-0.72949-0.08984-1.01953-0.25c-0.2002,0.11035-0.32031,0.29004-0.32031,0.5c0,0.5,0.62012,0.61914,1.3291,0.72949
		C89.99805,108.5498,91.1582,108.69043,91.1582,109.75977z M90.46777,109.81934c0-0.59961-0.7793-0.68945-1.59863-0.81934
		c-0.21973-0.03027-0.4502-0.07031-0.66016-0.12012l-0.66895,0.64941c-0.00977,0.05078-0.00977,0.07031-0.00977,0.09082
		c0,0.69922,0.70898,0.91895,1.54883,0.91895C89.94824,110.53906,90.46777,110.29883,90.46777,109.81934z M87.81934,105.72168
		c0,0.63965,0.45996,1.12988,1.19922,1.12988c0.74023,0,1.17969-0.48047,1.17969-1.12988c0-0.67969-0.45996-1.14941-1.16895-1.14941
		C88.3291,104.57227,87.81934,105.04199,87.81934,105.72168z"/>
	<path d="M95.52832,104.20312l-0.33984,0.55957c-0.22949-0.10059-0.43945-0.15039-0.64941-0.15039
		c-0.75977,0-1.31934,0.56934-1.31934,1.63965V109h-0.68945v-4.92773h0.68945v0.74023
		c0.35938-0.64941,0.95898-0.81934,1.45898-0.81934C94.97852,103.99316,95.25879,104.05273,95.52832,104.20312z"/>
	<path d="M100.21777,105.93164V109h-0.62988l-0.04004-0.75977c-0.38965,0.5498-0.98926,0.83984-1.76855,0.83984
		c-1.06934,0-1.69922-0.55957-1.69922-1.50977c0-0.49902,0.2002-0.87891,0.55957-1.09863
		c0.37988-0.21973,0.91016-0.31055,1.87891-0.31055h1.00977v-0.22949c0-0.85938-0.4502-1.3291-1.2793-1.3291
		c-0.62012,0-1.09961,0.26953-1.49902,0.81934l-0.5-0.41992c0.5293-0.68945,1.16895-1.00879,2.00879-1.00879
		C99.49805,103.99316,100.21777,104.70215,100.21777,105.93164z M99.52832,106.79102v-0.06934H98.5791
		c-0.91016,0-1.2998,0.05957-1.53906,0.24902c-0.18066,0.14062-0.27051,0.36035-0.27051,0.63965
		c0,0.5498,0.46973,0.90039,1.20996,0.90039C98.92871,108.51074,99.52832,107.84082,99.52832,106.79102z"/>
	<path d="M105.29785,109h-0.68945v-4.34766h-1.90918V109h-0.68945v-4.34766h-0.84961v-0.58008h0.84961v-0.39941
		c0-1.16895,0.79004-1.71875,1.75879-1.71875c0.59961,0,1.08008,0.16016,1.5293,0.46973l-0.3291,0.47949
		c-0.33008-0.24023-0.69043-0.37988-1.16992-0.37988c-0.70996,0-1.09961,0.34961-1.09961,1.15918v0.38965h2.59863V109z"/>
	<path d="M106.66016,106.55176c0-1.2998,0.72949-2.55859,2.21875-2.55859c0.87988,0,1.60938,0.43945,1.99902,1.3584
		l-0.66016,0.26074c-0.22949-0.62988-0.71875-1.00977-1.33887-1.00977c-1.0498,0-1.51953,0.93945-1.51953,1.94922
		c0,1.00879,0.46973,1.91895,1.5293,1.91895c0.62012,0,1.10938-0.37012,1.2998-1l0.63965,0.24023
		c-0.33008,0.89941-1.0498,1.36914-1.93945,1.36914C107.45996,109.08008,106.66016,107.9209,106.66016,106.55176z"/>
	<path d="M111.66992,106.53125c0-1.45898,0.94922-2.53809,2.3584-2.53809c1.39941,0,2.36914,1.0791,2.36914,2.53809
		c0,1.44922-0.95996,2.54883-2.36914,2.54883S111.66992,107.99023,111.66992,106.53125z M115.70801,106.53125
		c0-1.11914-0.62988-1.92871-1.67969-1.92871c-1.05957,0-1.66895,0.81934-1.66895,1.92871
		c0,1.11914,0.62012,1.93945,1.66895,1.93945C115.08789,108.4707,115.70801,107.63086,115.70801,106.53125z"/>
</g>
<g enable-background="new    ">
	<path d="M29.02051,119.55176c0-1.2998,0.72998-2.55859,2.21924-2.55859c0.87939,0,1.60889,0.43945,1.99854,1.3584l-0.65967,0.26074
		c-0.22949-0.62988-0.71924-1.00977-1.33887-1.00977c-1.0498,0-1.51953,0.93945-1.51953,1.94922
		c0,1.00879,0.46973,1.91895,1.5293,1.91895c0.61963,0,1.10938-0.37012,1.29932-1l0.63965,0.24023
		c-0.33008,0.89941-1.04932,1.36914-1.93896,1.36914C29.82031,122.08008,29.02051,120.9209,29.02051,119.55176z"/>
	<path d="M34.03076,119.53125c0-1.45898,0.94971-2.53809,2.35889-2.53809c1.39941,0,2.36865,1.0791,2.36865,2.53809
		c0,1.44922-0.95947,2.54883-2.36865,2.54883S34.03076,120.99023,34.03076,119.53125z M38.06885,119.53125
		c0-1.11914-0.62988-1.92871-1.6792-1.92871c-1.05957,0-1.66895,0.81934-1.66895,1.92871c0,1.11914,0.61963,1.93945,1.66895,1.93945
		C37.44922,121.4707,38.06885,120.63086,38.06885,119.53125z"/>
	<path d="M46.90674,118.92188V122H46.2168v-2.88867c0-0.41992,0-1.50879-1.0791-1.50879c-0.99951,0-1.26953,0.91895-1.26953,2.02832
		V122h-0.68945v-2.84863c0-0.81934-0.25-1.54883-1.10938-1.54883c-0.95947,0-1.22949,0.90918-1.22949,2.02832V122h-0.68945
		l-0.01025-4.92773h0.66992v0.60059c0.30957-0.49023,0.80957-0.67969,1.35889-0.67969c0.68994,0,1.19971,0.2998,1.44922,0.94922
		c0.31982-0.62988,0.86963-0.94922,1.61914-0.94922C46.41699,116.99316,46.90674,117.77246,46.90674,118.92188z"/>
	<path d="M53.11768,119.53125c0,1.46973-0.74951,2.54883-2.18896,2.54883c-0.71924,0-1.26904-0.28027-1.62891-0.73926v2.69824
		h-0.68945v-6.9668h0.68945v0.66016c0.36963-0.47949,0.92969-0.75,1.62891-0.75
		C52.29834,116.98242,53.11768,117.99219,53.11768,119.53125z M52.42822,119.53125c0-1.16895-0.59961-1.93848-1.59912-1.93848
		c-0.98975,0-1.58936,0.76953-1.58936,1.93848c0,1.11914,0.5498,1.93945,1.58936,1.93945
		C51.87842,121.4707,52.42822,120.65039,52.42822,119.53125z"/>
	<path d="M58.21826,118.93164V122h-0.62988l-0.04004-0.75977c-0.38965,0.5498-0.98926,0.83984-1.76904,0.83984
		c-1.06934,0-1.69873-0.55957-1.69873-1.50977c0-0.49902,0.19971-0.87891,0.55957-1.09863
		c0.37988-0.21973,0.90967-0.31055,1.87891-0.31055h1.00928v-0.22949c0-0.85938-0.44971-1.3291-1.2793-1.3291
		c-0.61963,0-1.09912,0.26953-1.49902,0.81934l-0.49951-0.41992c0.5293-0.68945,1.16895-1.00879,2.00879-1.00879
		C57.49854,116.99316,58.21826,117.70215,58.21826,118.93164z M57.52832,119.79102v-0.06934H56.5791
		c-0.90967,0-1.29932,0.05957-1.53906,0.24902c-0.18018,0.14062-0.27002,0.36035-0.27002,0.63965
		c0,0.5498,0.46973,0.90039,1.20947,0.90039C56.92871,121.51074,57.52832,120.84082,57.52832,119.79102z"/>
	<path d="M59.84033,115.03418h0.79932v1.01953h-0.79932V115.03418z M59.90039,117.07227h0.68945V122h-0.68945V117.07227z"/>
	<path d="M61.97998,119.53125c0-1.45898,0.94971-2.53809,2.35889-2.53809c1.39941,0,2.36865,1.0791,2.36865,2.53809
		c0,1.44922-0.95947,2.54883-2.36865,2.54883S61.97998,120.99023,61.97998,119.53125z M66.01807,119.53125
		c0-1.11914-0.62988-1.92871-1.6792-1.92871c-1.05957,0-1.66895,0.81934-1.66895,1.92871c0,1.11914,0.61963,1.93945,1.66895,1.93945
		C65.39844,121.4707,66.01807,120.63086,66.01807,119.53125z"/>
	<path d="M72.02783,118.98145V122h-0.68945v-2.84863c0-1.05957-0.33984-1.54883-1.07959-1.54883
		c-0.92969,0-1.46924,0.7998-1.46924,2.18848V122H68.1001v-4.92773h0.68945v0.71973
		c0.31982-0.49902,0.91943-0.79883,1.62891-0.79883C71.47803,116.99316,72.02783,117.67285,72.02783,118.98145z"/>
	<path d="M73.30029,119.53125c0-1.45898,0.94971-2.53809,2.35889-2.53809c1.39941,0,2.36816,1.0791,2.36816,2.53809
		c0,1.44922-0.95898,2.54883-2.36816,2.54883S73.30029,120.99023,73.30029,119.53125z M77.33789,119.53125
		c0-1.11914-0.62988-1.92871-1.67871-1.92871c-1.05957,0-1.66943,0.81934-1.66943,1.92871
		c0,1.11914,0.61963,1.93945,1.66943,1.93945C76.71875,121.4707,77.33789,120.63086,77.33789,119.53125z"/>
	<path d="M82.08984,115.03418h0.7998v1.01953h-0.7998V115.03418z M82.15039,117.07227h0.68945V122h-0.68945V117.07227z"/>
	<path d="M87.34961,120.93066v-5.89648h0.68945v5.85645c0,0.33984,0.12012,0.55957,0.4502,0.55957
		c0.14941,0,0.31934-0.04004,0.46973-0.08984l0.00977,0.58984c-0.20996,0.06934-0.45996,0.12988-0.67969,0.12988
		C87.71973,122.08008,87.34961,121.7002,87.34961,120.93066z"/>
	<path d="M93.84766,117.07227V122H93.1582v-0.70996c-0.34961,0.53027-0.97949,0.79004-1.62891,0.79004
		c-1.12012,0-1.60938-0.76953-1.60938-1.98926v-3.01855h0.68945v2.84863c0,0.7998,0.13965,1.5498,1.0791,1.5498
		c0.97949,0,1.46973-0.84961,1.46973-2.12891v-2.26953H93.84766z"/>
	<path d="M95.19043,119.53125c0-1.45898,0.94922-2.53809,2.3584-2.53809c1.39941,0,2.36816,1.0791,2.36816,2.53809
		c0,1.44922-0.95898,2.54883-2.36816,2.54883S95.19043,120.99023,95.19043,119.53125z M99.22754,119.53125
		c0-1.11914-0.62988-1.92871-1.67871-1.92871c-1.05957,0-1.66895,0.81934-1.66895,1.92871
		c0,1.11914,0.61914,1.93945,1.66895,1.93945C98.6084,121.4707,99.22754,120.63086,99.22754,119.53125z"/>
	<path d="M105.14746,122.75977c0,0.92969-0.86914,1.35938-2.1084,1.35938c-1.36914,0-2.19922-0.54004-2.19922-1.51953
		c0-0.09961,0.00977-0.16016,0.02051-0.21973l0.79883-0.67969c-0.37988-0.16992-0.63965-0.4502-0.63965-0.93945
		c0-0.39941,0.18066-0.69922,0.53027-0.93945c-0.25977-0.2998-0.41992-0.67969-0.41992-1.11914c0-1,0.81934-1.70898,1.87891-1.70898
		c0.47949,0,0.90918,0.14941,1.22949,0.39941l0.67969-0.58984l0.35938,0.4502l-0.66992,0.55957
		c0.16992,0.26953,0.27051,0.5791,0.27051,0.92969c0,1.00879-0.81934,1.67871-1.85938,1.67871
		c-0.37988,0-0.72949-0.08984-1.01953-0.25c-0.19922,0.11035-0.31934,0.29004-0.31934,0.5c0,0.5,0.61914,0.61914,1.3291,0.72949
		C103.98828,121.5498,105.14746,121.69043,105.14746,122.75977z M104.45801,122.81934c0-0.59961-0.7793-0.68945-1.59961-0.81934
		c-0.21973-0.03027-0.44922-0.07031-0.65918-0.12012l-0.66992,0.64941c-0.00977,0.05078-0.00977,0.07031-0.00977,0.09082
		c0,0.69922,0.70996,0.91895,1.54883,0.91895C103.93848,123.53906,104.45801,123.29883,104.45801,122.81934z M101.80957,118.72168
		c0,0.63965,0.45996,1.12988,1.19922,1.12988s1.17969-0.48047,1.17969-1.12988c0-0.67969-0.45996-1.14941-1.16992-1.14941
		C102.31934,117.57227,101.80957,118.04199,101.80957,118.72168z"/>
	<path d="M110.44727,118.98145V122h-0.68945v-2.84863c0-1.06934-0.33984-1.54883-1.0791-1.54883
		c-0.93945,0-1.46973,0.76953-1.46973,2.12891V122h-0.68945v-6.96582h0.68945v2.75781
		c0.32031-0.49902,0.91992-0.79883,1.62891-0.79883C109.89746,116.99316,110.44727,117.67285,110.44727,118.98145z"/>
	<path d="M112.08984,115.03418h0.79883v1.01953h-0.79883V115.03418z M112.14941,117.07227h0.68945V122h-0.68945V117.07227z"/>
</g>
<g enable-background="new    ">
	<path d="M27.70068,132.55176c0-1.2998,0.72998-2.55859,2.21924-2.55859c0.87939,0,1.60889,0.43945,1.99854,1.3584l-0.65967,0.26074
		c-0.22949-0.62988-0.71924-1.00977-1.33887-1.00977c-1.0498,0-1.51953,0.93945-1.51953,1.94922
		c0,1.00879,0.46973,1.91895,1.5293,1.91895c0.61963,0,1.10938-0.37012,1.29932-1l0.63965,0.24023
		c-0.33008,0.89941-1.04932,1.36914-1.93896,1.36914C28.50049,135.08008,27.70068,133.9209,27.70068,132.55176z"/>
	<path d="M32.71094,132.53125c0-1.45898,0.94971-2.53809,2.35889-2.53809c1.39941,0,2.36865,1.0791,2.36865,2.53809
		c0,1.44922-0.95947,2.54883-2.36865,2.54883S32.71094,133.99023,32.71094,132.53125z M36.74902,132.53125
		c0-1.11914-0.62988-1.92871-1.6792-1.92871c-1.05957,0-1.66895,0.81934-1.66895,1.92871c0,1.11914,0.61963,1.93945,1.66895,1.93945
		C36.12939,134.4707,36.74902,133.63086,36.74902,132.53125z"/>
	<path d="M42.7583,131.98145V135h-0.68945v-2.84863c0-1.05957-0.33984-1.54883-1.07959-1.54883
		c-0.92969,0-1.46924,0.7998-1.46924,2.18848V135h-0.68945v-4.92773h0.68945v0.71973
		c0.31982-0.49902,0.91943-0.79883,1.62891-0.79883C42.2085,129.99316,42.7583,130.67285,42.7583,131.98145z"/>
	<path d="M46.50928,134.9502c-0.25977,0.08008-0.52002,0.12988-0.74951,0.12988c-0.65967,0-1.13965-0.37012-1.13965-1.23926
		v-3.18848h-0.81934v-0.58008h0.81934v-1.37891l0.68945-0.51953v1.89844h1.18945v0.58008h-1.18945v3.09863
		c0,0.47949,0.22021,0.69922,0.60986,0.69922c0.16992,0,0.35986-0.04004,0.57959-0.10938L46.50928,134.9502z"/>
	<path d="M51.66797,132.72168h-3.60791c0.02002,1.0791,0.61963,1.72852,1.58936,1.72852c0.53955,0,0.96924-0.13965,1.41895-0.61914
		l0.47998,0.41895c-0.57959,0.61035-1.14941,0.83008-1.90918,0.83008c-1.49902,0-2.26855-1.11914-2.26855-2.51855
		c0-1.38965,0.75977-2.56836,2.18896-2.56836c1.50879,0,2.13867,1.17871,2.13867,2.29785
		C51.69824,132.43164,51.68799,132.60156,51.66797,132.72168z M48.06006,132.1416h2.97852
		c0-0.02051-0.01025-0.07031-0.01025-0.16016c-0.0498-0.7998-0.55957-1.40918-1.46875-1.40918
		C48.66992,130.57227,48.12012,131.27246,48.06006,132.1416z"/>
	<path d="M57.01855,131.98145V135H56.3291v-2.84863c0-1.05957-0.33984-1.54883-1.07959-1.54883
		c-0.92969,0-1.46924,0.7998-1.46924,2.18848V135h-0.68945v-4.92773h0.68945v0.71973
		c0.31982-0.49902,0.91943-0.79883,1.62891-0.79883C56.46875,129.99316,57.01855,130.67285,57.01855,131.98145z"/>
	<path d="M62.42822,130.07227V135h-0.68945v-0.70996c-0.3501,0.53027-0.97949,0.79004-1.62939,0.79004
		c-1.11914,0-1.60889-0.76953-1.60889-1.98926v-3.01855h0.68945v2.84863c0,0.7998,0.14014,1.5498,1.07959,1.5498
		c0.97949,0,1.46924-0.84961,1.46924-2.12891v-2.26953H62.42822z"/>
	<path d="M66.29932,134.9502c-0.25977,0.08008-0.52002,0.12988-0.74951,0.12988c-0.65967,0-1.13965-0.37012-1.13965-1.23926
		v-3.18848h-0.81934v-0.58008h0.81934v-1.37891l0.68945-0.51953v1.89844h1.18945v0.58008h-1.18945v3.09863
		c0,0.47949,0.22021,0.69922,0.60986,0.69922c0.16992,0,0.35986-0.04004,0.57959-0.10938L66.29932,134.9502z"/>
	<path d="M67.55029,128.03418h0.79932v1.01953h-0.79932V128.03418z M67.61035,130.07227h0.68945V135h-0.68945V130.07227z"/>
	<path d="M76.51855,131.93164V135h-0.62988l-0.04004-0.75977c-0.38965,0.5498-0.98926,0.83984-1.76855,0.83984
		c-1.06982,0-1.69922-0.55957-1.69922-1.50977c0-0.49902,0.19971-0.87891,0.55957-1.09863
		c0.37988-0.21973,0.90967-0.31055,1.87891-0.31055h1.00977v-0.22949c0-0.85938-0.4502-1.3291-1.2793-1.3291
		c-0.62012,0-1.09961,0.26953-1.49951,0.81934l-0.49951-0.41992c0.5293-0.68945,1.16895-1.00879,2.00879-1.00879
		C75.79883,129.99316,76.51855,130.70215,76.51855,131.93164z M75.8291,132.79102v-0.06934h-0.94922
		c-0.91016,0-1.2998,0.05957-1.53955,0.24902c-0.18018,0.14062-0.27002,0.36035-0.27002,0.63965
		c0,0.5498,0.46973,0.90039,1.20996,0.90039C75.22949,134.51074,75.8291,133.84082,75.8291,132.79102z"/>
	<path d="M78.16016,133.93066v-5.89648h0.68945v5.85645c0,0.33984,0.12012,0.55957,0.4502,0.55957
		c0.14941,0,0.31934-0.04004,0.46973-0.08984l0.00977,0.58984c-0.20996,0.06934-0.45996,0.12988-0.67969,0.12988
		C78.53027,135.08008,78.16016,134.7002,78.16016,133.93066z"/>
	<path d="M80.86035,133.93066v-5.89648h0.68945v5.85645c0,0.33984,0.12012,0.55957,0.44922,0.55957
		c0.15039,0,0.32031-0.04004,0.46973-0.08984l0.01074,0.58984c-0.20996,0.06934-0.45996,0.12988-0.67969,0.12988
		C81.22949,135.08008,80.86035,134.7002,80.86035,133.93066z"/>
	<path d="M84.29004,128.03418h0.78906l-1.31934,2.83789h-0.46973L84.29004,128.03418z"/>
	<path d="M86.44043,128.03418h0.79883v1.01953h-0.79883V128.03418z M86.5,130.07227h0.68945V135H86.5V130.07227z"/>
	<path d="M92.9375,131.98145V135h-0.68945v-2.84863c0-1.05957-0.33984-1.54883-1.0791-1.54883
		c-0.92969,0-1.46973,0.7998-1.46973,2.18848V135h-0.68945v-4.92773h0.68945v0.71973
		c0.32031-0.49902,0.91992-0.79883,1.62891-0.79883C92.3877,129.99316,92.9375,130.67285,92.9375,131.98145z"/>
	<path d="M96.68848,134.9502c-0.25977,0.08008-0.51953,0.12988-0.74902,0.12988c-0.66016,0-1.13965-0.37012-1.13965-1.23926
		v-3.18848h-0.81934v-0.58008h0.81934v-1.37891l0.68945-0.51953v1.89844h1.18945v0.58008h-1.18945v3.09863
		c0,0.47949,0.21973,0.69922,0.60938,0.69922c0.16992,0,0.36035-0.04004,0.58008-0.10938L96.68848,134.9502z"/>
	<path d="M101.84766,132.72168h-3.6084c0.02051,1.0791,0.62012,1.72852,1.58984,1.72852c0.53906,0,0.96875-0.13965,1.41895-0.61914
		l0.47949,0.41895c-0.5791,0.61035-1.14941,0.83008-1.90918,0.83008c-1.49902,0-2.26855-1.11914-2.26855-2.51855
		c0-1.38965,0.75977-2.56836,2.18945-2.56836c1.50879,0,2.13867,1.17871,2.13867,2.29785
		C101.87793,132.43164,101.86719,132.60156,101.84766,132.72168z M98.23926,132.1416h2.97852
		c0-0.02051-0.00977-0.07031-0.00977-0.16016c-0.0498-0.7998-0.55957-1.40918-1.46875-1.40918
		C98.84961,130.57227,98.2998,131.27246,98.23926,132.1416z"/>
	<path d="M106.26855,130.20312l-0.33984,0.55957c-0.22949-0.10059-0.43945-0.15039-0.64941-0.15039
		c-0.75977,0-1.31934,0.56934-1.31934,1.63965V135h-0.68945v-4.92773h0.68945v0.74023
		c0.35938-0.64941,0.95898-0.81934,1.45898-0.81934C105.71875,129.99316,105.99902,130.05273,106.26855,130.20312z"/>
	<path d="M111.21777,131.98145V135h-0.68945v-2.84863c0-1.05957-0.33984-1.54883-1.08008-1.54883
		c-0.92969,0-1.46875,0.7998-1.46875,2.18848V135h-0.68945v-4.92773h0.68945v0.71973
		c0.31934-0.49902,0.91895-0.79883,1.62891-0.79883C110.66797,129.99316,111.21777,130.67285,111.21777,131.98145z"/>
	<path d="M112.48926,132.53125c0-1.45898,0.9502-2.53809,2.35938-2.53809c1.39941,0,2.36816,1.0791,2.36816,2.53809
		c0,1.44922-0.95898,2.54883-2.36816,2.54883S112.48926,133.99023,112.48926,132.53125z M116.52734,132.53125
		c0-1.11914-0.62988-1.92871-1.67871-1.92871c-1.05957,0-1.66895,0.81934-1.66895,1.92871
		c0,1.11914,0.61914,1.93945,1.66895,1.93945C115.9082,134.4707,116.52734,133.63086,116.52734,132.53125z"/>
</g>
</svg>
