<?xml version="1.0" encoding="utf-8"?>
<!-- Generator: Adobe Illustrator 24.0.1, SVG Export Plug-In . SVG Version: 6.00 Build 0)  -->
<svg version="1.1" id="Livello_1" xmlns="http://www.w3.org/2000/svg" xmlns:xlink="http://www.w3.org/1999/xlink" x="0px" y="0px"
	 viewBox="0 0 145 89.7" style="enable-background:new 0 0 145 89.7;" xml:space="preserve">
<style type="text/css">
	.st0_ouxyc{fill:#DDDDDD;}
	.st1_ouxyc{fill:#DDDDDD;stroke:#000000;}
	.st2_ouxyc{fill:#DDDDDD;stroke:#000000;stroke-width:0.5;}
	.st3_ouxyc{font-family:'HKGrotesk-Regular';}
	.st4_ouxyc{font-size:10px;}
</style>
<g id="Raggruppa_4988" transform="translate(-19 -336.282)">
	<g id="Raggruppa_4864" transform="translate(-185 132)">
		<g id="Raggruppa_4859">
			<g id="Ellipse_24" transform="translate(-212.982 298.09)">
				<circle id="Ellisse_36" class="st0_ouxyc" cx="434" cy="-82.3" r="11"/>
				<circle id="Ellisse_37" class="st0_ouxyc" cx="434" cy="-82.3" r="10.9"/>
			</g>
			<g id="Ellipse_24-2" transform="translate(-169.982 298.09)">
				<circle id="Ellisse_36-2" class="st1_ouxyc" cx="434" cy="-82.3" r="11"/>
				<circle id="Ellisse_37-2" class="st2_ouxyc" cx="434" cy="-82.3" r="10.9"/>
			</g>
			<text transform="matrix(1 0 0 1 204 251.7491)" class="st3_ouxyc st4_ouxyc">Luogo</text>
			<g id="Raggruppa_4865" transform="translate(-17.453)">
				<g id="Ellipse_24-3" transform="translate(157.453 368.782)">
					<circle id="Ellisse_36-3" class="st1_ouxyc" cx="167" cy="-153" r="11"/>
					<circle id="Ellisse_37-3" class="st2_ouxyc" cx="167" cy="-153" r="10.9"/>
				</g>
				<g id="Ellipse_24-4" transform="translate(167.36 378.689)">
					<circle id="Ellisse_36-4" cx="157.1" cy="-162.9" r="1.1"/>
					<circle id="Ellisse_37-4" cx="157.1" cy="-162.9" r="1.1"/>
				</g>
			</g>
			<text transform="matrix(1 0 0 1 238 251.7493)" class="st3_ouxyc st4_ouxyc">Luogo che </text>
			<text transform="matrix(1 0 0 1 238 264.7493)" class="st3_ouxyc st4_ouxyc">contiene </text>
			<text transform="matrix(1 0 0 1 238 277.7493)" class="st3_ouxyc st4_ouxyc">altri luoghi</text>
			<text transform="matrix(1 0 0 1 296 251.7493)" class="st3_ouxyc st4_ouxyc">Luogo </text>
			<text transform="matrix(1 0 0 1 296 264.7493)" class="st3_ouxyc st4_ouxyc">desunto</text>
		</g>
	</g>
</g>
</svg>
