<svg xmlns="http://www.w3.org/2000/svg" width="134" height="85.749" viewBox="0 0 134 85.749">
  <g id="Raggruppa_4860" data-name="Raggruppa 4860" transform="translate(-192 -184)">
    <g id="Raggruppa_4863" data-name="Raggruppa 4863" transform="translate(-2 -6)">
      <g id="Raggruppa_4794" data-name="Raggruppa 4794" transform="translate(267.332 246.515) rotate(107)">
        <path id="Tracciato_109126" data-name="Tracciato 109126" d="M615.82,91.011l-.32.615,3.029,1.575-1.792,2.907.59.363,2.182-3.541Z" transform="translate(-615.5 -91.011)"/>
      </g>
      <g id="Raggruppa_4862" data-name="Raggruppa 4862" transform="translate(156 -164)">
        <g id="Raggruppa_4859" data-name="Raggruppa 4859">
          <g id="Group-3" transform="translate(-143.98 292.55)">
            <path id="Path-6" d="M252.205,107.989V74.2" transform="translate(0 -1.315)" fill="none" stroke="#c6cacf" stroke-width="0.5" stroke-dasharray="1.9 1.9"/>
            <path id="Path-5" d="M252.205,98.242V97.9" transform="translate(0 9.426)" fill="none" stroke="#c6cacf" stroke-width="0.5"/>
            <path id="Path-7" d="M252.205,72.542V72.2" transform="translate(0)" fill="none" stroke="#c6cacf" stroke-width="0.5"/>
          </g>
          <g id="Group" transform="translate(-190.98 303.639)">
            <path id="Path" d="M322.916,99.9l-70.711.176" transform="translate(12.294 -34.988)" fill="none" stroke="#444" stroke-width="0.5" stroke-dasharray="2 2"/>
          </g>
          <g id="Ellipse_24" data-name="Ellipse 24" transform="translate(-178.562 283.308)">
            <ellipse id="Ellisse_36" data-name="Ellisse 36" cx="19" cy="19" rx="19" ry="19" transform="translate(266.982 70.693)" fill="#fff"/>
            <ellipse id="Ellisse_37" data-name="Ellisse 37" cx="18.636" cy="18.636" rx="18.636" ry="18.636" transform="translate(267.346 71.056)" fill="none" stroke="#1a1a1a" stroke-width="0.5"/>
          </g>
          <text id="anno_di_prima_pubblicazione" data-name="anno di prima pubblicazione" transform="translate(43 436.749)" font-size="10" font-family="HKGrotesk-Regular, HK Grotesk"><tspan x="0" y="0">anno di prima pubblicazione</tspan></text>
          <text id="Titolo" transform="translate(112 406.749)" font-size="10" font-family="HKGrotesk-Regular, HK Grotesk"><tspan x="0" y="0">Titolo</tspan></text>
          <text id="Tipo_di_luogo" data-name="Tipo di
luogo" transform="translate(70 371.749)" font-size="10" font-family="HKGrotesk-Regular, HK Grotesk"><tspan x="-31.35" y="0">Tipo di</tspan><tspan x="-24.62" y="13">luogo</tspan></text>
          <text id="Nome_luogo" data-name="Nome 
luogo" transform="translate(108 370.749)" font-size="10" font-family="HKGrotesk-Regular, HK Grotesk"><tspan x="-14.7" y="0">Nome </tspan><tspan x="-12.31" y="13">luogo</tspan></text>
          <path id="Tracciato_116483" data-name="Tracciato 116483" d="M61.225,420.813v-4.628H132.49v4.628" transform="translate(11.739 0.315)" fill="none" stroke="#000" stroke-width="0.5"/>
          <line id="Linea_1462" data-name="Linea 1462" y2="4" transform="translate(108.5 416.5)" fill="none" stroke="#000" stroke-width="0.5"/>
          <line id="Linea_1463" data-name="Linea 1463" y2="12" transform="translate(108.5 401.5)" fill="none" stroke="#000" stroke-width="0.5"/>
        </g>
      </g>
    </g>
  </g>
</svg>
