<?xml version="1.0" encoding="utf-8"?>
<!-- Generator: Adobe Illustrator 25.0.0, SVG Export Plug-In . SVG Version: 6.00 Build 0)  -->
<svg version="1.1" id="Livello_1" xmlns="http://www.w3.org/2000/svg" xmlns:xlink="http://www.w3.org/1999/xlink" x="0px" y="0px"
	 viewBox="0 0 145 91.5" enable-background="new 0 0 145 91.5" xml:space="preserve">
<g>
	<g>
		<path id="Path-6" fill="none" stroke="#C6CACF" stroke-width="0.5" stroke-dasharray="1.9,1.9" d="M47.0004,55.4V33.6"/>
		<path id="Path-5" fill="none" stroke="#C6CACF" stroke-width="0.5" d="M47.0004,58.3v-1"/>
	</g>
	<path id="Path-7" fill="none" stroke="#C6CACF" stroke-width="0.5" d="M47.0004,32.6v-1"/>
</g>
<rect x="2.3" y="67" fill="none" width="142.7" height="34.5"/>
<g>
	<path id="Path-2" fill="none" stroke="#C6CACF" stroke-width="0.5" d="M97.70056,58.3v-1"/>
	<path id="Path-3" fill="none" stroke="#C6CACF" stroke-width="0.5" stroke-dasharray="1.9,1.9" d="M97.70056,55.4V33.5"/>
	<path id="Path-4" fill="none" stroke="#C6CACF" stroke-width="0.5" d="M97.70056,32.6v-1"/>
</g>
<path id="Path" fill="none" stroke="#444444" stroke-width="0.5" d="M97.5,59.3l-50.8,0.2"/>
<rect id="Rectangle" x="97.20056" y="57.70031" transform="matrix(1 -0.003 0.003 1 -0.17772 0.29356)" fill="#444444" width="1" height="3.30001"/>
<rect id="Rectangle-2" x="46.5004" y="57.90038" transform="matrix(1 -0.00311 0.00311 1 -0.18477 0.1463)" fill="#444444" width="1" height="3.30002"/>
<circle id="Ellisse_32" fill="#FFFFFF" cx="72.5" cy="26.1" r="26"/>
<circle id="Ellisse_33" fill="none" stroke="#1A1A1A" stroke-width="0.5" cx="72.5" cy="26.1" r="25.8"/>
<circle id="Ellisse_34" fill="#FFFFFF" cx="73" cy="32.6" r="19.5"/>
<circle id="Ellisse_35" fill="none" stroke="#1A1A1A" stroke-width="0.5" cx="73" cy="32.6" r="19.2"/>
<circle id="Ellisse_36" fill="#FFFFFF" cx="72.5" cy="41.1" r="11"/>
<circle id="Ellisse_37" fill="none" stroke="#1A1A1A" stroke-width="0.5" cx="72.5" cy="41.1" r="10.8"/>
<g>
	<rect x="2.28282" y="66.92472" fill="none" width="157.29086" height="41.3894"/>
	<path d="M8.33936,68.44336v6.96582h-0.7793l-3.42871-5.75684v5.75684H3.42236v-6.96582h0.76953l3.4375,5.72656v-5.72656H8.33936z"
		/>
	<path d="M14.20068,70.48242v4.92676h-0.69043V74.7002c-0.34961,0.5293-0.97949,0.78906-1.62891,0.78906
		c-1.11914,0-1.6084-0.76953-1.6084-1.98926v-3.01758h0.68945v2.84863c0,0.79883,0.13965,1.54883,1.0791,1.54883
		c0.97949,0,1.46875-0.84961,1.46875-2.12891v-2.26855H14.20068z"/>
	<path d="M22.77881,72.33105v3.07812h-0.68945v-2.8877c0-0.41992,0-1.50977-1.08008-1.50977
		c-0.99902,0-1.26855,0.91992-1.26855,2.0293v2.36816h-0.69043v-2.84863c0-0.81934-0.25-1.54883-1.10938-1.54883
		c-0.95898,0-1.22852,0.90918-1.22852,2.0293v2.36816h-0.69043l-0.00977-4.92676h0.66992v0.59961
		c0.30957-0.49023,0.80957-0.67969,1.35938-0.67969c0.68945,0,1.19922,0.2998,1.44922,0.94922
		c0.31934-0.62988,0.86914-0.94922,1.61914-0.94922C22.28857,70.40234,22.77881,71.18164,22.77881,72.33105z"/>
	<path d="M28.98975,72.94043c0,1.46973-0.75,2.54883-2.18848,2.54883c-0.71973,0-1.26953-0.2793-1.62988-0.73926v0.65918h-0.68945
		v-6.96582h0.68945v2.69824c0.37012-0.47949,0.92969-0.74902,1.62988-0.74902
		C28.17041,70.39258,28.98975,71.40137,28.98975,72.94043z M28.30029,72.94043c0-1.16895-0.59961-1.93848-1.59961-1.93848
		c-0.98926,0-1.58887,0.76953-1.58887,1.93848c0,1.12012,0.5498,1.93945,1.58887,1.93945
		C27.75049,74.87988,28.30029,74.06055,28.30029,72.94043z"/>
	<path d="M34.3208,73.13086h-3.6084c0.02051,1.0791,0.62012,1.72852,1.58887,1.72852c0.54004,0,0.96973-0.13965,1.41992-0.61914
		l0.47949,0.41992c-0.58008,0.60938-1.14941,0.8291-1.90918,0.8291c-1.49902,0-2.26855-1.11914-2.26855-2.51855
		c0-1.38965,0.75977-2.56836,2.18848-2.56836c1.50977,0,2.13867,1.17871,2.13867,2.29883
		C34.3501,72.84082,34.34033,73.01074,34.3208,73.13086z M30.7124,72.55078h2.97852c0-0.01953-0.00977-0.06934-0.00977-0.16016
		c-0.0498-0.79883-0.55957-1.40918-1.46973-1.40918C31.32178,70.98145,30.77295,71.68164,30.7124,72.55078z"/>
	<path d="M38.7417,70.6123l-0.33984,0.55957c-0.23047-0.09961-0.44043-0.15039-0.65039-0.15039
		c-0.75879,0-1.31836,0.57031-1.31836,1.63965v2.74805h-0.69043v-4.92676h0.69043v0.73926
		c0.35938-0.64941,0.95898-0.81934,1.45898-0.81934C38.19189,70.40234,38.47119,70.46191,38.7417,70.6123z"/>
	<path d="M42.06201,72.94043c0-1.45898,0.9502-2.53809,2.35938-2.53809c1.39844,0,2.36816,1.0791,2.36816,2.53809
		c0,1.44922-0.95898,2.54883-2.36816,2.54883S42.06201,74.40039,42.06201,72.94043z M46.1001,72.94043
		c0-1.11914-0.62988-1.92871-1.67871-1.92871c-1.05957,0-1.66992,0.81934-1.66992,1.92871
		c0,1.12012,0.62012,1.93945,1.66992,1.93945C45.47998,74.87988,46.1001,74.04004,46.1001,72.94043z"/>
	<path d="M48.48096,71.06152h-1.03906v-0.5791h1.0498v-0.75977c0-1.0498,0.60938-1.35938,1.23926-1.35938
		c0.26953,0,0.56934,0.05957,0.87891,0.18945l-0.23926,0.5498c-0.20996-0.09961-0.40039-0.15918-0.57031-0.15918
		c-0.38965,0-0.62891,0.26953-0.62891,0.72949v0.80957h1.41895v0.5791h-1.41895v4.34766h-0.69043V71.06152z"/>
	<path d="M54.36084,74.33984v-5.89648h0.69043v5.85645c0,0.33984,0.11914,0.55957,0.44922,0.55957
		c0.15039,0,0.32031-0.04004,0.46973-0.08984l0.00977,0.58984c-0.20996,0.07031-0.45898,0.12988-0.67969,0.12988
		C54.73096,75.48926,54.36084,75.10938,54.36084,74.33984z"/>
	<path d="M56.67139,72.94043c0-1.45898,0.9502-2.53809,2.35938-2.53809c1.39844,0,2.36816,1.0791,2.36816,2.53809
		c0,1.44922-0.95898,2.54883-2.36816,2.54883S56.67139,74.40039,56.67139,72.94043z M60.70947,72.94043
		c0-1.11914-0.62988-1.92871-1.67871-1.92871c-1.05957,0-1.66992,0.81934-1.66992,1.92871
		c0,1.12012,0.62012,1.93945,1.66992,1.93945C60.08936,74.87988,60.70947,74.04004,60.70947,72.94043z"/>
	<path d="M62.38135,72.96094c0-1.2998,0.72949-2.55859,2.21875-2.55859c0.87891,0,1.6084,0.43945,1.99902,1.35938l-0.66016,0.25977
		c-0.22949-0.62988-0.71973-1.00977-1.33887-1.00977c-1.0498,0-1.51953,0.93945-1.51953,1.94922s0.46973,1.91895,1.5293,1.91895
		c0.62012,0,1.10938-0.37012,1.29883-1l0.63965,0.24023c-0.3291,0.89941-1.04883,1.36914-1.93848,1.36914
		C63.18018,75.48926,62.38135,74.33008,62.38135,72.96094z"/>
	<path d="M71.48877,72.34082v3.06836h-0.62891l-0.04004-0.75977c-0.39062,0.5498-0.99023,0.83984-1.76953,0.83984
		c-1.06934,0-1.69922-0.55957-1.69922-1.50879c0-0.5,0.2002-0.87988,0.55957-1.09961
		c0.37988-0.21973,0.91016-0.30957,1.87988-0.30957h1.00879v-0.23047c0-0.85938-0.44922-1.3291-1.2793-1.3291
		c-0.61914,0-1.09961,0.26953-1.49902,0.81934l-0.5-0.41895c0.53027-0.69043,1.16992-1.00977,2.00879-1.00977
		C70.76904,70.40234,71.48877,71.11133,71.48877,72.34082z M70.79932,73.2002v-0.06934H69.8501
		c-0.90918,0-1.2998,0.05957-1.53906,0.25c-0.17969,0.13965-0.27051,0.35938-0.27051,0.63965
		c0,0.5498,0.4707,0.89941,1.20996,0.89941C70.19971,74.91992,70.79932,74.25,70.79932,73.2002z"/>
	<path d="M75.21973,75.35938c-0.25977,0.08008-0.51953,0.12988-0.74902,0.12988c-0.66016,0-1.13965-0.37012-1.13965-1.23926
		v-3.18848h-0.81982v-0.5791h0.81982v-1.37988l0.68945-0.51953v1.89941h1.18945v0.5791h-1.18945v3.09863
		c0,0.47949,0.21973,0.69922,0.61035,0.69922c0.16992,0,0.35938-0.04004,0.5791-0.10938L75.21973,75.35938z"/>
	<path d="M76.47168,68.44336h0.7998v1.01953h-0.7998V68.44336z M76.53125,70.48242h0.68945v4.92676h-0.68945V70.48242z"/>
	<path d="M78.61133,72.94043c0-1.45898,0.9502-2.53809,2.35938-2.53809c1.39844,0,2.36816,1.0791,2.36816,2.53809
		c0,1.44922-0.95898,2.54883-2.36816,2.54883S78.61133,74.40039,78.61133,72.94043z M82.64941,72.94043
		c0-1.11914-0.62988-1.92871-1.67871-1.92871c-1.05957,0-1.66992,0.81934-1.66992,1.92871
		c0,1.12012,0.62012,1.93945,1.66992,1.93945C82.0293,74.87988,82.64941,74.04004,82.64941,72.94043z"/>
	<path d="M88.6582,72.39062v3.01855h-0.68945v-2.84863c0-1.05859-0.33984-1.54883-1.0791-1.54883
		c-0.92969,0-1.46973,0.7998-1.46973,2.18848v2.20898h-0.68945v-4.92676h0.68945v0.71973c0.32031-0.5,0.91992-0.7998,1.62988-0.7998
		C88.10938,70.40234,88.6582,71.08203,88.6582,72.39062z"/>
	<path d="M89.83105,74.2002l0.5791-0.25977c0.18066,0.50977,0.66016,0.93945,1.42969,0.93945
		c0.66992,0,1.09961-0.33008,1.09961-0.84961c0-1.30957-2.83887-0.49023-2.83887-2.23926c0-0.85938,0.7002-1.38867,1.68945-1.38867
		c0.78906,0,1.42871,0.33008,1.76855,1.0293l-0.5498,0.2998c-0.23926-0.43945-0.62891-0.71973-1.23926-0.71973
		c-0.60938,0-0.99902,0.25-0.99902,0.67969c0,1.16895,2.84863,0.42969,2.84863,2.29883c0,0.99902-0.81934,1.49902-1.76953,1.49902
		C90.88086,75.48926,90.09082,74.98926,89.83105,74.2002z"/>
	<path d="M97.34082,72.96094c0-1.2998,0.72949-2.55859,2.21875-2.55859c0.87891,0,1.6084,0.43945,1.99902,1.35938l-0.66016,0.25977
		c-0.22949-0.62988-0.71973-1.00977-1.33887-1.00977c-1.0498,0-1.51953,0.93945-1.51953,1.94922s0.46973,1.91895,1.5293,1.91895
		c0.62012,0,1.10938-0.37012,1.29883-1l0.63965,0.24023c-0.3291,0.89941-1.04883,1.36914-1.93848,1.36914
		C98.13965,75.48926,97.34082,74.33008,97.34082,72.96094z"/>
	<path d="M102.35059,72.94043c0-1.45898,0.9502-2.53809,2.35938-2.53809c1.39844,0,2.36816,1.0791,2.36816,2.53809
		c0,1.44922-0.95898,2.54883-2.36816,2.54883S102.35059,74.40039,102.35059,72.94043z M106.38867,72.94043
		c0-1.11914-0.62988-1.92871-1.67871-1.92871c-1.05957,0-1.66992,0.81934-1.66992,1.92871
		c0,1.12012,0.62012,1.93945,1.66992,1.93945C105.76855,74.87988,106.38867,74.04004,106.38867,72.94043z"/>
	<path d="M112.39746,72.39062v3.01855h-0.68945v-2.84863c0-1.05859-0.33984-1.54883-1.0791-1.54883
		c-0.92969,0-1.46875,0.7998-1.46875,2.18848v2.20898h-0.69043v-4.92676h0.69043v0.71973c0.31934-0.5,0.91895-0.7998,1.62891-0.7998
		C111.84863,70.40234,112.39746,71.08203,112.39746,72.39062z"/>
	<path d="M116.14844,75.35938c-0.25977,0.08008-0.51953,0.12988-0.74902,0.12988c-0.66016,0-1.13965-0.37012-1.13965-1.23926
		v-3.18848h-0.81934v-0.5791h0.81934v-1.37988l0.68945-0.51953v1.89941h1.18945v0.5791h-1.18945v3.09863
		c0,0.47949,0.21973,0.69922,0.61035,0.69922c0.16992,0,0.35938-0.04004,0.5791-0.10938L116.14844,75.35938z"/>
	<path d="M121.12793,72.34082v3.06836h-0.62891l-0.04004-0.75977c-0.39062,0.5498-0.99023,0.83984-1.76953,0.83984
		c-1.06934,0-1.69922-0.55957-1.69922-1.50879c0-0.5,0.2002-0.87988,0.55957-1.09961
		c0.37988-0.21973,0.91016-0.30957,1.87988-0.30957h1.00879v-0.23047c0-0.85938-0.44922-1.3291-1.2793-1.3291
		c-0.61914,0-1.09961,0.26953-1.49902,0.81934l-0.5-0.41895c0.53027-0.69043,1.16992-1.00977,2.00879-1.00977
		C120.4082,70.40234,121.12793,71.11133,121.12793,72.34082z M120.43848,73.2002v-0.06934h-0.94922
		c-0.90918,0-1.2998,0.05957-1.53906,0.25c-0.17969,0.13965-0.27051,0.35938-0.27051,0.63965
		c0,0.5498,0.4707,0.89941,1.20996,0.89941C119.83887,74.91992,120.43848,74.25,120.43848,73.2002z"/>
	<path d="M122.75,68.44336h0.7998v1.01953H122.75V68.44336z M122.80957,70.48242H123.5v4.92676h-0.69043V70.48242z"/>
	<path d="M129.24707,72.39062v3.01855h-0.68945v-2.84863c0-1.05859-0.33984-1.54883-1.0791-1.54883
		c-0.92969,0-1.46875,0.7998-1.46875,2.18848v2.20898h-0.69043v-4.92676h0.69043v0.71973c0.31934-0.5,0.91895-0.7998,1.62891-0.7998
		C128.69824,70.40234,129.24707,71.08203,129.24707,72.39062z"/>
	<path d="M134.84766,73.13086h-3.6084c0.02051,1.0791,0.62012,1.72852,1.58887,1.72852c0.54004,0,0.96973-0.13965,1.41992-0.61914
		l0.47949,0.41992c-0.58008,0.60938-1.14941,0.8291-1.90918,0.8291c-1.49902,0-2.26855-1.11914-2.26855-2.51855
		c0-1.38965,0.75977-2.56836,2.18848-2.56836c1.50977,0,2.13867,1.17871,2.13867,2.29883
		C134.87695,72.84082,134.86719,73.01074,134.84766,73.13086z M131.23926,72.55078h2.97852
		c0-0.01953-0.00977-0.06934-0.00977-0.16016c-0.0498-0.79883-0.55957-1.40918-1.46973-1.40918
		C131.84863,70.98145,131.2998,71.68164,131.23926,72.55078z"/>
	<path d="M140.3877,68.44336v6.96582h-0.68945V74.75c-0.36035,0.45996-0.91016,0.73926-1.62891,0.73926
		c-1.43945,0-2.18945-1.0791-2.18945-2.54883c0-1.53906,0.81934-2.54785,2.18945-2.54785c0.69922,0,1.25879,0.26953,1.62891,0.74902
		v-2.69824H140.3877z M139.75781,72.94043c0-1.16895-0.59961-1.93848-1.58887-1.93848c-1,0-1.59961,0.76953-1.59961,1.93848
		c0,1.12012,0.5498,1.93945,1.59961,1.93945C139.20801,74.87988,139.75781,74.06055,139.75781,72.94043z"/>
	<path d="M3.13232,80.44434h0.7998v1.01953h-0.7998V80.44434z M3.19189,82.48242h0.69043v4.92773H3.19189V82.48242z"/>
	<path d="M9.62939,84.3916v3.01855H8.93994v-2.84863c0-1.05957-0.33984-1.54883-1.0791-1.54883
		c-0.92969,0-1.46875,0.7998-1.46875,2.18848v2.20898H5.70166v-4.92773h0.69043v0.71973
		c0.31934-0.49902,0.91895-0.79883,1.62891-0.79883C9.08057,82.40332,9.62939,83.08301,9.62939,84.3916z"/>
	<path d="M10.80225,86.20117l0.58008-0.25977c0.17969,0.50977,0.65918,0.93945,1.42871,0.93945
		c0.66992,0,1.09961-0.33008,1.09961-0.84961c0-1.30957-2.83887-0.49023-2.83887-2.23926c0-0.85938,0.7002-1.38867,1.68945-1.38867
		c0.78906,0,1.42871,0.3291,1.76855,1.0293l-0.5498,0.2998c-0.23926-0.44043-0.62891-0.71973-1.23926-0.71973
		c-0.60938,0-0.99902,0.25-0.99902,0.67969c0,1.16895,2.84863,0.42969,2.84863,2.29883c0,0.99902-0.81934,1.49902-1.76953,1.49902
		C11.85205,87.49023,11.06201,86.99023,10.80225,86.20117z"/>
	<path d="M15.93213,80.44434h0.7998v1.01953h-0.7998V80.44434z M15.9917,82.48242h0.68945v4.92773H15.9917V82.48242z"/>
	<path d="M22.61963,80.44434v6.96582h-0.68945v-0.65918c-0.36035,0.45898-0.91016,0.73926-1.62891,0.73926
		c-1.43945,0-2.18945-1.0791-2.18945-2.54883c0-1.53906,0.81934-2.54883,2.18945-2.54883c0.69922,0,1.25879,0.27051,1.62891,0.75
		v-2.69824H22.61963z M21.98975,84.94141c0-1.16895-0.59961-1.93848-1.58887-1.93848c-1,0-1.59961,0.76953-1.59961,1.93848
		c0,1.11914,0.5498,1.93945,1.59961,1.93945C21.43994,86.88086,21.98975,86.06055,21.98975,84.94141z"/>
	<path d="M28.34033,85.13184h-3.6084c0.02051,1.0791,0.62012,1.72852,1.58887,1.72852c0.54004,0,0.96973-0.13965,1.41992-0.61914
		l0.47949,0.41895c-0.58008,0.61035-1.14941,0.83008-1.90918,0.83008c-1.49902,0-2.26855-1.11914-2.26855-2.51855
		c0-1.38965,0.75977-2.56836,2.18848-2.56836c1.50977,0,2.13867,1.17871,2.13867,2.29785
		C28.36963,84.8418,28.35986,85.01172,28.34033,85.13184z M24.73193,84.55176h2.97852c0-0.02051-0.00977-0.07031-0.00977-0.16016
		c-0.0498-0.7998-0.55957-1.40918-1.46973-1.40918C25.34131,82.98242,24.79248,83.68262,24.73193,84.55176z"/>
	<path d="M36.15967,84.3418v3.06836h-0.62891l-0.04004-0.75977c-0.38965,0.5498-0.99023,0.83984-1.76953,0.83984
		c-1.06934,0-1.69922-0.55957-1.69922-1.50977c0-0.49902,0.2002-0.87891,0.55957-1.09863
		c0.37988-0.21973,0.91016-0.31055,1.87891-0.31055h1.00977V84.3418c0-0.85938-0.44922-1.3291-1.2793-1.3291
		c-0.61914,0-1.09961,0.26953-1.49902,0.81934l-0.5-0.41992c0.53027-0.68945,1.16992-1.00879,2.00879-1.00879
		C35.43994,82.40332,36.15967,83.1123,36.15967,84.3418z M35.47021,85.20117v-0.06934H34.521
		c-0.90918,0-1.2998,0.05957-1.53906,0.24902c-0.17969,0.14062-0.27051,0.36035-0.27051,0.63965
		c0,0.5498,0.46973,0.90039,1.20996,0.90039C34.87061,86.9209,35.47021,86.25098,35.47021,85.20117z"/>
	<path d="M41.76904,84.3916v3.01855h-0.68945v-2.84863c0-1.05957-0.33984-1.54883-1.0791-1.54883
		c-0.92969,0-1.46973,0.7998-1.46973,2.18848v2.20898h-0.68945v-4.92773h0.68945v0.71973
		c0.32031-0.49902,0.91992-0.79883,1.62988-0.79883C41.22021,82.40332,41.76904,83.08301,41.76904,84.3916z"/>
	<path d="M43.0415,84.94141c0-1.45898,0.9502-2.53809,2.35938-2.53809c1.39844,0,2.36816,1.0791,2.36816,2.53809
		c0,1.44922-0.95898,2.54883-2.36816,2.54883S43.0415,86.40039,43.0415,84.94141z M47.07959,84.94141
		c0-1.11914-0.62988-1.92871-1.67871-1.92871c-1.05957,0-1.66992,0.81934-1.66992,1.92871
		c0,1.11914,0.62012,1.93945,1.66992,1.93945C46.45947,86.88086,47.07959,86.04102,47.07959,84.94141z"/>
	<path d="M51.15967,87.36035c-0.25977,0.08008-0.51953,0.12988-0.74902,0.12988c-0.66016,0-1.13965-0.37012-1.13965-1.23926V83.0625
		h-0.81934v-0.58008H49.271v-1.37891l0.68945-0.51953v1.89844h1.18945v0.58008h-1.18945v3.09863
		c0,0.47949,0.21973,0.69922,0.61035,0.69922c0.16992,0,0.35938-0.04004,0.5791-0.10938L51.15967,87.36035z"/>
	<path d="M56.39893,84.3916v3.01855h-0.68945v-2.84863c0-1.06934-0.33984-1.54883-1.0791-1.54883
		c-0.93945,0-1.46875,0.76953-1.46875,2.12891v2.26855h-0.69043v-6.96582h0.69043v2.75781
		c0.31934-0.49902,0.91895-0.79883,1.62891-0.79883C55.8501,82.40332,56.39893,83.08301,56.39893,84.3916z"/>
	<path d="M61.99951,85.13184h-3.6084c0.02051,1.0791,0.62012,1.72852,1.58887,1.72852c0.54004,0,0.96973-0.13965,1.41992-0.61914
		l0.47949,0.41895c-0.58008,0.61035-1.14941,0.83008-1.90918,0.83008c-1.49902,0-2.26855-1.11914-2.26855-2.51855
		c0-1.38965,0.75977-2.56836,2.18848-2.56836c1.50977,0,2.13867,1.17871,2.13867,2.29785
		C62.02881,84.8418,62.01904,85.01172,61.99951,85.13184z M58.39111,84.55176h2.97852c0-0.02051-0.00977-0.07031-0.00977-0.16016
		c-0.0498-0.7998-0.55957-1.40918-1.46973-1.40918C59.00049,82.98242,58.45166,83.68262,58.39111,84.55176z"/>
	<path d="M66.42041,82.61328l-0.33984,0.55957c-0.23047-0.10059-0.44043-0.15039-0.65039-0.15039
		c-0.75879,0-1.31934,0.56934-1.31934,1.63965v2.74805h-0.68945v-4.92773h0.68945v0.74023
		c0.36035-0.64941,0.95996-0.81934,1.45996-0.81934C65.87061,82.40332,66.1499,82.46289,66.42041,82.61328z"/>
	<path d="M70.13037,86.34082v-5.89648h0.69043v5.85645c0,0.33984,0.11914,0.55957,0.44922,0.55957
		c0.15039,0,0.32031-0.04004,0.46973-0.08984l0.00977,0.58984c-0.20996,0.06934-0.45898,0.12988-0.67969,0.12988
		C70.50049,87.49023,70.13037,87.11035,70.13037,86.34082z"/>
	<path d="M72.44092,84.94141c0-1.45898,0.95068-2.53809,2.35986-2.53809c1.39844,0,2.36816,1.0791,2.36816,2.53809
		c0,1.44922-0.95898,2.54883-2.36816,2.54883S72.44092,86.40039,72.44092,84.94141z M76.47949,84.94141
		c0-1.11914-0.62988-1.92871-1.67871-1.92871c-1.05957,0-1.66992,0.81934-1.66992,1.92871
		c0,1.11914,0.62012,1.93945,1.66992,1.93945C75.85938,86.88086,76.47949,86.04102,76.47949,84.94141z"/>
	<path d="M78.15137,84.96191c0-1.2998,0.72949-2.55859,2.21875-2.55859c0.87891,0,1.6084,0.43945,1.99902,1.3584l-0.66016,0.26074
		c-0.22949-0.62988-0.71973-1.00977-1.33887-1.00977c-1.0498,0-1.51953,0.93945-1.51953,1.94922
		c0,1.00879,0.46973,1.91895,1.5293,1.91895c0.62012,0,1.10938-0.37012,1.29883-1l0.63965,0.24023
		c-0.3291,0.89941-1.04883,1.36914-1.93848,1.36914C78.9502,87.49023,78.15137,86.33105,78.15137,84.96191z"/>
	<path d="M87.25879,84.3418v3.06836h-0.62891l-0.04004-0.75977c-0.39062,0.5498-0.99023,0.83984-1.76953,0.83984
		c-1.06934,0-1.69922-0.55957-1.69922-1.50977c0-0.49902,0.2002-0.87891,0.55957-1.09863
		c0.37988-0.21973,0.91016-0.31055,1.87988-0.31055h1.00879V84.3418c0-0.85938-0.44922-1.3291-1.2793-1.3291
		c-0.61914,0-1.09961,0.26953-1.49902,0.81934l-0.5-0.41992c0.53027-0.68945,1.16992-1.00879,2.00879-1.00879
		C86.53906,82.40332,87.25879,83.1123,87.25879,84.3418z M86.56934,85.20117v-0.06934h-0.94922
		c-0.90918,0-1.2998,0.05957-1.53906,0.24902c-0.17969,0.14062-0.27051,0.36035-0.27051,0.63965
		c0,0.5498,0.4707,0.90039,1.20996,0.90039C85.96973,86.9209,86.56934,86.25098,86.56934,85.20117z"/>
	<path d="M90.98926,87.36035c-0.25977,0.08008-0.51953,0.12988-0.74902,0.12988c-0.66016,0-1.13965-0.37012-1.13965-1.23926V83.0625
		h-0.81934v-0.58008h0.81934v-1.37891l0.68945-0.51953v1.89844h1.18945v0.58008h-1.18945v3.09863
		c0,0.47949,0.21973,0.69922,0.61035,0.69922c0.16992,0,0.35938-0.04004,0.5791-0.10938L90.98926,87.36035z"/>
	<path d="M92.24121,80.44434h0.7998v1.01953h-0.7998V80.44434z M92.30078,82.48242h0.68945v4.92773h-0.68945V82.48242z"/>
	<path d="M94.38086,84.94141c0-1.45898,0.9502-2.53809,2.35938-2.53809c1.39844,0,2.36816,1.0791,2.36816,2.53809
		c0,1.44922-0.95898,2.54883-2.36816,2.54883S94.38086,86.40039,94.38086,84.94141z M98.41895,84.94141
		c0-1.11914-0.62988-1.92871-1.67871-1.92871c-1.05957,0-1.66992,0.81934-1.66992,1.92871
		c0,1.11914,0.62012,1.93945,1.66992,1.93945C97.79883,86.88086,98.41895,86.04102,98.41895,84.94141z"/>
	<path d="M104.42773,84.3916v3.01855h-0.68945v-2.84863c0-1.05957-0.33984-1.54883-1.0791-1.54883
		c-0.92969,0-1.46973,0.7998-1.46973,2.18848v2.20898H100.5v-4.92773h0.68945v0.71973
		c0.32031-0.49902,0.91992-0.79883,1.62988-0.79883C103.87891,82.40332,104.42773,83.08301,104.42773,84.3916z"/>
</g>
</svg>
