<?xml version="1.0" encoding="utf-8"?>
<!-- Generator: Adobe Illustrator 25.0.0, SVG Export Plug-In . SVG Version: 6.00 Build 0)  -->
<svg version="1.1" id="Livello_1" xmlns="http://www.w3.org/2000/svg" xmlns:xlink="http://www.w3.org/1999/xlink" x="0px" y="0px"
	 viewBox="0 0 145 92.6" enable-background="new 0 0 145 92.6" xml:space="preserve">
<path id="Path-6" fill="none" stroke="#C6CACF" stroke-width="0.5" stroke-dasharray="1.9,1.9" d="M78.5,64.3V30.5"/>
<path id="Path-5" fill="none" stroke="#C6CACF" stroke-width="0.5" d="M78.64143,65.3V65"/>
<path id="Path-7" fill="none" stroke="#C6CACF" stroke-width="0.5" d="M75.7,30.1v-0.3"/>
<path id="Path" fill="none" stroke="#444444" stroke-width="0.5" stroke-dasharray="2,2" d="M111.7,21.57992l-70.7,0.2"/>
<ellipse id="Ellisse_36" fill="#FFFFFF" cx="78.5" cy="22.6" rx="22.6" ry="22.6"/>
<ellipse id="Ellisse_37" fill="none" stroke="#1A1A1A" stroke-width="0.5953" cx="78.5" cy="22.6" rx="22.1" ry="22.1"/>
<path id="Tracciato_116483" fill="none" stroke="#000000" stroke-width="0.5" d="M41.51352,78.6V74h71.3v4.6"/>
<line id="Linea_1462" fill="none" stroke="#000000" stroke-width="0.5" x1="78.5" y1="74" x2="78.5" y2="78"/>
<g>
	<line id="Linea_1463" fill="none" stroke="#000000" stroke-width="0.5" x1="78.5" y1="58" x2="78.5" y2="70"/>
	<path id="Tracciato_109126" d="M81.35,67.3l-0.5-0.5l-2.4,2.4l-2.2-2.6l-0.6,0.5l2.8,3.2L81.35,67.3z"/>
</g>
<g>
	<path d="M8.1001,12.72314H5.69141v-0.65967h5.54688v0.65967H8.81982v6.30664H8.1001V12.72314z"/>
	<path d="M13.14014,18.96973l-2.08887-4.86719h0.75977l1.69922,4.05762l1.48926-4.05762h0.75928l-2.69824,6.96582H12.3208
		L13.14014,18.96973z"/>
	<path d="M21.38818,16.56104c0,1.46924-0.74951,2.54883-2.18896,2.54883c-0.71924,0-1.26904-0.27979-1.62891-0.73975v2.69824
		h-0.68945v-6.96582h0.68945v0.65967c0.36963-0.47998,0.92969-0.74951,1.62891-0.74951
		C20.56885,14.0127,21.38818,15.02197,21.38818,16.56104z M20.69873,16.56104c0-1.16943-0.59961-1.93896-1.59912-1.93896
		c-0.98975,0-1.58936,0.76953-1.58936,1.93896c0,1.11963,0.5498,1.93896,1.58936,1.93896
		C20.14893,18.5,20.69873,17.68066,20.69873,16.56104z"/>
	<path d="M26.71826,16.75098h-3.60791c0.02002,1.07959,0.61963,1.729,1.58936,1.729c0.53955,0,0.96924-0.13965,1.41895-0.61963
		l0.47998,0.41992c-0.57959,0.60938-1.14941,0.82959-1.90918,0.82959c-1.49902,0-2.26855-1.11963-2.26855-2.51855
		c0-1.38965,0.75977-2.56885,2.18896-2.56885c1.50879,0,2.13867,1.1792,2.13867,2.29883
		C26.74854,16.46143,26.73828,16.63086,26.71826,16.75098z M23.11035,16.17139h2.97852c0-0.02002-0.01025-0.06982-0.01025-0.16016
		c-0.0498-0.79932-0.55957-1.40918-1.46875-1.40918C23.72021,14.60205,23.17041,15.30176,23.11035,16.17139z"/>
	<path d="M30.44092,16.56104c0-1.45898,0.94971-2.53857,2.35889-2.53857c1.39941,0,2.36865,1.07959,2.36865,2.53857
		c0,1.44922-0.95947,2.54883-2.36865,2.54883S30.44092,18.02051,30.44092,16.56104z M34.479,16.56104
		c0-1.11914-0.62988-1.92871-1.6792-1.92871c-1.05957,0-1.66895,0.81934-1.66895,1.92871c0,1.11963,0.61963,1.93896,1.66895,1.93896
		C33.85938,18.5,34.479,17.66064,34.479,16.56104z"/>
	<path d="M36.86035,14.68213H35.8208v-0.57959h1.04932v-0.75977c0-1.04932,0.60986-1.35889,1.23926-1.35889
		c0.27002,0,0.56982,0.05957,0.87988,0.18945l-0.24023,0.5498c-0.20996-0.09961-0.39941-0.15967-0.56934-0.15967
		c-0.39014,0-0.62988,0.26953-0.62988,0.72949v0.80957h1.41943v0.57959H37.5498v4.34766h-0.68945V14.68213z"/>
	<path d="M4.05127,29.96094v-5.89648h0.68945v5.85645c0,0.33984,0.12012,0.55957,0.44971,0.55957
		c0.1499,0,0.31982-0.04004,0.46973-0.08984l0.01025,0.58984c-0.20996,0.06934-0.45996,0.12988-0.67969,0.12988
		C4.4209,31.11035,4.05127,30.73047,4.05127,29.96094z"/>
	<path d="M6.36084,28.56152c0-1.45898,0.94971-2.53809,2.35889-2.53809c1.39941,0,2.36865,1.0791,2.36865,2.53809
		c0,1.44922-0.95947,2.54883-2.36865,2.54883S6.36084,30.02051,6.36084,28.56152z M10.39893,28.56152
		c0-1.11914-0.62988-1.92871-1.6792-1.92871c-1.05957,0-1.66895,0.81934-1.66895,1.92871c0,1.11914,0.61963,1.93945,1.66895,1.93945
		C9.7793,30.50098,10.39893,29.66113,10.39893,28.56152z"/>
	<path d="M12.0708,28.58203c0-1.2998,0.72998-2.55859,2.21875-2.55859c0.87988,0,1.60938,0.43945,1.99902,1.3584l-0.65967,0.26074
		c-0.22949-0.62988-0.71924-1.00977-1.33936-1.00977c-1.04932,0-1.51904,0.93945-1.51904,1.94922
		c0,1.00879,0.46973,1.91895,1.5293,1.91895c0.61963,0,1.10938-0.37012,1.29932-1l0.63965,0.24023
		c-0.33008,0.89941-1.04932,1.36914-1.93896,1.36914C12.87061,31.11035,12.0708,29.95117,12.0708,28.58203z"/>
	<path d="M21.1792,27.96191v3.06836h-0.62988l-0.04004-0.75977c-0.38965,0.5498-0.98926,0.83984-1.76904,0.83984
		c-1.06934,0-1.69873-0.55957-1.69873-1.50977c0-0.49902,0.19971-0.87891,0.55957-1.09863
		c0.37988-0.21973,0.90967-0.31055,1.87891-0.31055h1.00928v-0.22949c0-0.85938-0.44971-1.3291-1.2793-1.3291
		c-0.61963,0-1.09912,0.26953-1.49902,0.81934l-0.49951-0.41992c0.5293-0.68945,1.16895-1.00879,2.00879-1.00879
		C20.45947,26.02344,21.1792,26.73242,21.1792,27.96191z M20.48926,28.82129v-0.06934h-0.94922
		c-0.90967,0-1.29932,0.05957-1.53906,0.24902c-0.18018,0.14062-0.27002,0.36035-0.27002,0.63965
		c0,0.5498,0.46973,0.90039,1.20947,0.90039C19.88965,30.54102,20.48926,29.87109,20.48926,28.82129z"/>
	<path d="M24.90967,30.98047c-0.25977,0.08008-0.52002,0.12988-0.74951,0.12988c-0.65967,0-1.13965-0.37012-1.13965-1.23926
		v-3.18848h-0.81934v-0.58008h0.81934v-1.37891l0.68994-0.51953v1.89844h1.18896v0.58008h-1.18896v3.09863
		c0,0.47949,0.21973,0.69922,0.60938,0.69922c0.16992,0,0.35986-0.04004,0.57959-0.10938L24.90967,30.98047z"/>
	<path d="M26.16113,24.06445h0.79932v1.01953h-0.79932V24.06445z M26.22119,26.10254h0.68945v4.92773h-0.68945V26.10254z"/>
	<path d="M28.30127,28.56152c0-1.45898,0.94922-2.53809,2.3584-2.53809c1.39941,0,2.36865,1.0791,2.36865,2.53809
		c0,1.44922-0.95947,2.54883-2.36865,2.54883S28.30127,30.02051,28.30127,28.56152z M32.33887,28.56152
		c0-1.11914-0.62988-1.92871-1.6792-1.92871c-1.05957,0-1.66895,0.81934-1.66895,1.92871c0,1.11914,0.61963,1.93945,1.66895,1.93945
		C31.71924,30.50098,32.33887,29.66113,32.33887,28.56152z"/>
	<path d="M38.34863,28.01172v3.01855h-0.68945v-2.84863c0-1.05957-0.33984-1.54883-1.07959-1.54883
		c-0.92969,0-1.46924,0.7998-1.46924,2.18848v2.20898H34.4209v-4.92773h0.68945v0.71973
		c0.31982-0.49902,0.91943-0.79883,1.62891-0.79883C37.79883,26.02344,38.34863,26.70312,38.34863,28.01172z"/>
</g>
<g>
	<path d="M84.25,59.04297h-2.40918v-0.66016h5.54688v0.66016h-2.41797v6.30664H84.25V59.04297z"/>
	<path d="M88.38086,58.38281h0.79883v1.01953h-0.79883V58.38281z M88.44043,60.42188h0.68945v4.92773h-0.68945V60.42188z"/>
	<path d="M93,65.2998c-0.25977,0.0791-0.52051,0.12988-0.75,0.12988c-0.65918,0-1.13965-0.37012-1.13965-1.23926v-3.18848h-0.81934
		v-0.58008h0.81934v-1.37891l0.68945-0.51953v1.89844h1.18945v0.58008H91.7998v3.09766c0,0.48047,0.2207,0.7002,0.61035,0.7002
		c0.16992,0,0.35938-0.04004,0.5791-0.11035L93,65.2998z"/>
	<path d="M94.27051,64.28027v-5.89746h0.68945v5.85742c0,0.33984,0.12012,0.55957,0.4502,0.55957
		c0.14941,0,0.31934-0.04004,0.46973-0.08984l0.00977,0.58984c-0.20996,0.06934-0.45996,0.12988-0.67969,0.12988
		C94.64062,65.42969,94.27051,65.0498,94.27051,64.28027z"/>
	<path d="M100.9082,63.07031h-3.6084c0.02051,1.08008,0.62012,1.72949,1.58984,1.72949c0.53906,0,0.96875-0.13965,1.41895-0.62012
		l0.47949,0.41992c-0.5791,0.60938-1.14941,0.83008-1.90918,0.83008c-1.49902,0-2.26855-1.12012-2.26855-2.51855
		c0-1.38965,0.75977-2.56934,2.18945-2.56934c1.50879,0,2.13867,1.17969,2.13867,2.29883
		C100.93848,62.78125,100.92773,62.9502,100.9082,63.07031z M97.2998,62.49121h2.97852c0-0.02051-0.00977-0.07031-0.00977-0.16016
		c-0.0498-0.7998-0.55957-1.40918-1.46875-1.40918C97.91016,60.92188,97.36035,61.62109,97.2998,62.49121z"/>
</g>
<g>
	<path d="M26.82178,80.83398h1.88867c2.26855,0,3.55762,1.28906,3.55762,3.53809c0,2.21875-1.25879,3.42773-3.56738,3.42773
		h-1.87891V80.83398z M28.64014,87.14062c1.94922,0,2.90918-0.91992,2.90918-2.79883c0-1.88867-0.95996-2.84863-2.84863-2.84863
		h-1.16992v5.64746H28.64014z"/>
	<path d="M37.50928,84.73145v3.06836h-0.62891l-0.04004-0.75977c-0.39062,0.5498-0.99023,0.83984-1.76953,0.83984
		c-1.06934,0-1.69922-0.55957-1.69922-1.50879c0-0.5,0.2002-0.87988,0.55957-1.09961
		c0.37988-0.21973,0.91016-0.30957,1.87988-0.30957h1.00879v-0.23047c0-0.85938-0.44922-1.3291-1.2793-1.3291
		c-0.61914,0-1.09961,0.26953-1.49902,0.81934l-0.5-0.41895c0.53027-0.69043,1.16992-1.00977,2.00879-1.00977
		C36.78955,82.79297,37.50928,83.50195,37.50928,84.73145z M36.81982,85.59082v-0.06934h-0.94922
		c-0.90918,0-1.2998,0.05957-1.53906,0.25c-0.17969,0.13965-0.27051,0.35938-0.27051,0.63965
		c0,0.5498,0.4707,0.89941,1.20996,0.89941C36.22021,87.31055,36.81982,86.64062,36.81982,85.59082z"/>
	<path d="M41.23975,87.75c-0.25977,0.08008-0.51953,0.12988-0.74902,0.12988c-0.66016,0-1.13965-0.37012-1.13965-1.23926v-3.18848
		h-0.81934v-0.5791h0.81934v-1.37988l0.68945-0.51953v1.89941h1.18945v0.5791h-1.18945v3.09863
		c0,0.47949,0.21973,0.69922,0.61035,0.69922c0.16992,0,0.35938-0.04004,0.5791-0.10938L41.23975,87.75z"/>
	<path d="M46.3999,85.52148h-3.6084c0.02051,1.0791,0.62012,1.72852,1.58887,1.72852c0.54004,0,0.96973-0.13965,1.41992-0.61914
		l0.47949,0.41992c-0.58008,0.60938-1.14941,0.8291-1.90918,0.8291c-1.49902,0-2.26855-1.11914-2.26855-2.51855
		c0-1.38965,0.75977-2.56836,2.18848-2.56836c1.50977,0,2.13867,1.17871,2.13867,2.29883
		C46.4292,85.23145,46.41943,85.40137,46.3999,85.52148z M42.7915,84.94141h2.97852c0-0.01953-0.00977-0.06934-0.00977-0.16016
		c-0.0498-0.79883-0.55957-1.40918-1.46973-1.40918C43.40088,83.37207,42.85205,84.07227,42.7915,84.94141z"/>
	<path d="M50.12158,85.33105c0-1.45898,0.9502-2.53809,2.35938-2.53809c1.39844,0,2.36816,1.0791,2.36816,2.53809
		c0,1.44922-0.95898,2.54883-2.36816,2.54883S50.12158,86.79102,50.12158,85.33105z M54.15967,85.33105
		c0-1.11914-0.62988-1.92871-1.67871-1.92871c-1.05957,0-1.66992,0.81934-1.66992,1.92871
		c0,1.12012,0.62012,1.93945,1.66992,1.93945C53.53955,87.27051,54.15967,86.43066,54.15967,85.33105z"/>
	<path d="M56.54053,83.45215h-1.03906v-0.5791h1.0498v-0.75977c0-1.0498,0.60938-1.35938,1.23926-1.35938
		c0.26953,0,0.56934,0.05957,0.87891,0.18945l-0.23926,0.5498c-0.20996-0.09961-0.40039-0.15918-0.57031-0.15918
		c-0.38965,0-0.62891,0.26953-0.62891,0.72949v0.80957h1.41895v0.5791h-1.41895v4.34766h-0.69043V83.45215z"/>
	<path d="M65.85889,87.7998h-0.68945v-4.34766h-1.90918v4.34766H62.5708v-4.34766h-0.84961v-0.5791h0.84961v-0.40039
		c0-1.16895,0.78906-1.71875,1.75879-1.71875c0.59961,0,1.0791,0.16016,1.5293,0.46973l-0.33008,0.47949
		c-0.3291-0.23926-0.68945-0.37988-1.16895-0.37988c-0.70996,0-1.09961,0.35059-1.09961,1.16016v0.38965h2.59863V87.7998z"/>
	<path d="M70.63037,83.00293l-0.33984,0.55957c-0.23047-0.09961-0.44043-0.15039-0.65039-0.15039
		c-0.75879,0-1.31934,0.57031-1.31934,1.63965v2.74805h-0.68945v-4.92676h0.68945v0.73926
		c0.36035-0.64941,0.95996-0.81934,1.45996-0.81934C70.08057,82.79297,70.35986,82.85254,70.63037,83.00293z"/>
	<path d="M70.82178,86.59082l0.5791-0.25977c0.18066,0.50977,0.66016,0.93945,1.42969,0.93945
		c0.67041,0,1.1001-0.33008,1.1001-0.84961c0-1.30957-2.83936-0.49023-2.83936-2.23926c0-0.85938,0.7002-1.38867,1.68945-1.38867
		c0.78955,0,1.4292,0.33008,1.76904,1.0293L74,84.12207c-0.23926-0.43945-0.62891-0.71973-1.23975-0.71973
		c-0.60938,0-0.99902,0.25-0.99902,0.67969c0,1.16895,2.84912,0.42969,2.84912,2.29883c0,0.99902-0.81934,1.49902-1.77002,1.49902
		C71.87158,87.87988,71.08154,87.37988,70.82178,86.59082z"/>
	<path d="M78.05957,87.75c-0.25977,0.08008-0.51953,0.12988-0.74902,0.12988c-0.66016,0-1.13965-0.37012-1.13965-1.23926v-3.18848
		h-0.81934v-0.5791h0.81934v-1.37988l0.68945-0.51953v1.89941h1.18945v0.5791h-1.18945v3.09863
		c0,0.47949,0.21973,0.69922,0.61035,0.69922c0.16992,0,0.35938-0.04004,0.5791-0.10938L78.05957,87.75z"/>
	<path d="M86.60938,85.33105c0,1.46973-0.75,2.54883-2.18848,2.54883c-0.71973,0-1.26953-0.2793-1.62891-0.73926v2.69824h-0.69043
		v-6.96582h0.69043v0.65918c0.36914-0.47949,0.92871-0.74902,1.62891-0.74902C85.79004,82.7832,86.60938,83.79199,86.60938,85.33105
		z M85.91992,85.33105c0-1.16895-0.59961-1.93848-1.59961-1.93848c-0.98926,0-1.58887,0.76953-1.58887,1.93848
		c0,1.12012,0.5498,1.93945,1.58887,1.93945C85.37012,87.27051,85.91992,86.45117,85.91992,85.33105z"/>
	<path d="M91.7998,82.87305v4.92676h-0.69043v-0.70898c-0.34961,0.5293-0.97949,0.78906-1.62891,0.78906
		c-1.11914,0-1.6084-0.76953-1.6084-1.98926v-3.01758h0.68945v2.84863c0,0.79883,0.13965,1.54883,1.0791,1.54883
		c0.97949,0,1.46875-0.84961,1.46875-2.12891v-2.26855H91.7998z"/>
	<path d="M98.12891,85.33105c0,1.46973-0.75,2.54883-2.18848,2.54883c-0.71973,0-1.26953-0.2793-1.62891-0.73926v0.65918h-0.69043
		v-6.96582h0.69043v2.69824c0.36914-0.47949,0.92871-0.74902,1.62891-0.74902C97.30957,82.7832,98.12891,83.79199,98.12891,85.33105
		z M97.43945,85.33105c0-1.16895-0.59961-1.93848-1.59961-1.93848c-0.98926,0-1.58887,0.76953-1.58887,1.93848
		c0,1.12012,0.5498,1.93945,1.58887,1.93945C96.88965,87.27051,97.43945,86.45117,97.43945,85.33105z"/>
	<path d="M99.52051,86.73047v-5.89648h0.69043v5.85645c0,0.33984,0.11914,0.55957,0.44922,0.55957
		c0.15039,0,0.32031-0.04004,0.46973-0.08984l0.00977,0.58984c-0.20996,0.07031-0.45898,0.12988-0.67969,0.12988
		C99.89062,87.87988,99.52051,87.5,99.52051,86.73047z"/>
	<path d="M102.20117,80.83398h0.7998v1.01953h-0.7998V80.83398z M102.26074,82.87305h0.68945v4.92676h-0.68945V82.87305z"/>
	<path d="M104.36133,85.35156c0-1.2998,0.72949-2.55859,2.21875-2.55859c0.87891,0,1.6084,0.43945,1.99902,1.35938l-0.66016,0.25977
		c-0.22949-0.62988-0.71973-1.00977-1.33887-1.00977c-1.0498,0-1.51953,0.93945-1.51953,1.94922s0.46973,1.91895,1.5293,1.91895
		c0.62012,0,1.10938-0.37012,1.29883-1l0.63965,0.24023c-0.3291,0.89941-1.04883,1.36914-1.93848,1.36914
		C105.16016,87.87988,104.36133,86.7207,104.36133,85.35156z"/>
	<path d="M113.46875,84.73145v3.06836h-0.62891l-0.04004-0.75977c-0.39062,0.5498-0.99023,0.83984-1.76953,0.83984
		c-1.06934,0-1.69922-0.55957-1.69922-1.50879c0-0.5,0.2002-0.87988,0.55957-1.09961
		c0.37988-0.21973,0.91016-0.30957,1.87988-0.30957h1.00879v-0.23047c0-0.85938-0.44922-1.3291-1.2793-1.3291
		c-0.61914,0-1.09961,0.26953-1.49902,0.81934l-0.5-0.41895c0.53027-0.69043,1.16992-1.00977,2.00879-1.00977
		C112.74902,82.79297,113.46875,83.50195,113.46875,84.73145z M112.7793,85.59082v-0.06934h-0.94922
		c-0.90918,0-1.2998,0.05957-1.53906,0.25c-0.17969,0.13965-0.27051,0.35938-0.27051,0.63965
		c0,0.5498,0.4707,0.89941,1.20996,0.89941C112.17969,87.31055,112.7793,86.64062,112.7793,85.59082z"/>
	<path d="M117.19922,87.75c-0.25977,0.08008-0.51953,0.12988-0.74902,0.12988c-0.66016,0-1.13965-0.37012-1.13965-1.23926v-3.18848
		h-0.81934v-0.5791h0.81934v-1.37988L116,80.97363v1.89941h1.18945v0.5791H116v3.09863c0,0.47949,0.21973,0.69922,0.61035,0.69922
		c0.16992,0,0.35938-0.04004,0.5791-0.10938L117.19922,87.75z"/>
	<path d="M118.45117,80.83398h0.7998v1.01953h-0.7998V80.83398z M118.51074,82.87305h0.68945v4.92676h-0.68945V82.87305z"/>
	<path d="M120.59082,85.33105c0-1.45898,0.9502-2.53809,2.35938-2.53809c1.39844,0,2.36816,1.0791,2.36816,2.53809
		c0,1.44922-0.95898,2.54883-2.36816,2.54883S120.59082,86.79102,120.59082,85.33105z M124.62891,85.33105
		c0-1.11914-0.62988-1.92871-1.67871-1.92871c-1.05957,0-1.66992,0.81934-1.66992,1.92871
		c0,1.12012,0.62012,1.93945,1.66992,1.93945C124.00879,87.27051,124.62891,86.43066,124.62891,85.33105z"/>
	<path d="M130.63867,84.78125v3.01855h-0.68945v-2.84863c0-1.05859-0.33984-1.54883-1.0791-1.54883
		c-0.92969,0-1.46875,0.7998-1.46875,2.18848v2.20898h-0.69043v-4.92676h0.69043v0.71973c0.31934-0.5,0.91895-0.7998,1.62891-0.7998
		C130.08984,82.79297,130.63867,83.47266,130.63867,84.78125z"/>
</g>
<g>
	<path d="M60.40088,14.30273h0.70996v6.30664h3.17822v0.65967h-3.88818V14.30273z"/>
	<path d="M65.06104,18.80029c0-1.45898,0.94971-2.53857,2.35889-2.53857c1.39941,0,2.36865,1.07959,2.36865,2.53857
		c0,1.44922-0.95947,2.54883-2.36865,2.54883S65.06104,20.25977,65.06104,18.80029z M69.09912,18.80029
		c0-1.11914-0.62988-1.92871-1.6792-1.92871c-1.05957,0-1.66895,0.81934-1.66895,1.92871c0,1.11963,0.61963,1.93896,1.66895,1.93896
		C68.47949,20.73926,69.09912,19.8999,69.09912,18.80029z"/>
	<path d="M70.771,18.82031c0-1.29932,0.72998-2.55859,2.21875-2.55859c0.87939,0,1.60889,0.43994,1.99854,1.35938l-0.65918,0.25977
		c-0.22949-0.62939-0.71973-1.00928-1.33936-1.00928c-1.04932,0-1.51904,0.93945-1.51904,1.94873
		c0,1.00977,0.46973,1.91895,1.5293,1.91895c0.61914,0,1.10938-0.36963,1.29883-0.99951l0.63965,0.24023
		C74.6084,20.87939,73.88965,21.34912,73,21.34912C71.5708,21.34912,70.771,20.18945,70.771,18.82031z"/>
	<path d="M79.87891,18.20068v3.06836h-0.62988l-0.04004-0.75977c-0.38965,0.5498-0.98926,0.83984-1.76855,0.83984
		c-1.06934,0-1.69922-0.56006-1.69922-1.50928c0-0.49951,0.2002-0.87939,0.55957-1.09961
		c0.37988-0.21973,0.91016-0.30957,1.87891-0.30957h1.00977v-0.22998c0-0.85938-0.4502-1.3291-1.2793-1.3291
		c-0.62012,0-1.09961,0.26953-1.49902,0.81934l-0.5-0.41943c0.5293-0.68994,1.16895-1.00977,2.00879-1.00977
		C79.15918,16.26172,79.87891,16.97119,79.87891,18.20068z M79.18945,19.06006v-0.06982h-0.94922
		c-0.91016,0-1.2998,0.06006-1.53906,0.25c-0.18066,0.13965-0.27051,0.35986-0.27051,0.63965
		c0,0.5498,0.46973,0.89941,1.20996,0.89941C78.58984,20.7793,79.18945,20.10986,79.18945,19.06006z"/>
	<path d="M83.60938,21.21924c-0.25977,0.07959-0.51953,0.12988-0.74902,0.12988c-0.66016,0-1.13965-0.37012-1.13965-1.23926
		v-3.18848h-0.81934V16.3418h0.81934V14.9624l0.68945-0.51953v1.89893h1.18945v0.57959h-1.18945v3.09814
		c0,0.47998,0.21973,0.69971,0.61035,0.69971c0.16992,0,0.35938-0.04004,0.5791-0.10986L83.60938,21.21924z"/>
	<path d="M84.86035,14.30273h0.7998v1.01953h-0.7998V14.30273z M84.91992,16.3418h0.68945v4.92725h-0.68945V16.3418z"/>
	<path d="M87,18.80029c0-1.45898,0.9502-2.53857,2.35938-2.53857c1.39844,0,2.36816,1.07959,2.36816,2.53857
		c0,1.44922-0.95898,2.54883-2.36816,2.54883S87,20.25977,87,18.80029z M91.03809,18.80029
		c0-1.11914-0.62988-1.92871-1.67871-1.92871c-1.05957,0-1.66992,0.81934-1.66992,1.92871
		c0,1.11963,0.62012,1.93896,1.66992,1.93896C90.41797,20.73926,91.03809,19.8999,91.03809,18.80029z"/>
	<path d="M97.04785,18.25049v3.01855H96.3584v-2.84863c0-1.05908-0.33984-1.54883-1.0791-1.54883
		c-0.92969,0-1.46875,0.79932-1.46875,2.18848v2.20898h-0.69043V16.3418h0.69043v0.71973c0.31934-0.5,0.91895-0.7998,1.62891-0.7998
		C96.49902,16.26172,97.04785,16.94141,97.04785,18.25049z"/>
	<path d="M71.00879,30.25098v3.01855h-0.68945V30.4209c0-1.05957-0.33984-1.54883-1.07959-1.54883
		c-0.92969,0-1.46924,0.7998-1.46924,2.18848v2.20898h-0.68945V28.3418h0.68945v0.71973
		c0.31982-0.49902,0.91943-0.79883,1.62891-0.79883C70.45898,28.2627,71.00879,28.94238,71.00879,30.25098z"/>
	<path d="M76.37891,30.20117v3.06836h-0.62988l-0.04004-0.75977c-0.38965,0.5498-0.98926,0.83984-1.76953,0.83984
		c-1.06885,0-1.69824-0.55957-1.69824-1.50977c0-0.49902,0.19971-0.87891,0.55957-1.09863
		c0.37988-0.21973,0.90918-0.31055,1.87891-0.31055h1.00879v-0.22949c0-0.85938-0.44922-1.3291-1.2793-1.3291
		c-0.61914,0-1.09863,0.26953-1.49854,0.81934l-0.49951-0.41992c0.5293-0.68945,1.16895-1.00879,2.00879-1.00879
		C75.65918,28.2627,76.37891,28.97168,76.37891,30.20117z M75.68848,31.06055v-0.06934h-0.94922
		c-0.90918,0-1.29883,0.05957-1.53906,0.24902c-0.17969,0.14062-0.26953,0.36035-0.26953,0.63965
		c0,0.5498,0.46973,0.90039,1.20898,0.90039C75.08887,32.78027,75.68848,32.11035,75.68848,31.06055z"/>
	<path d="M84.81641,30.19141v3.07812h-0.68945v-2.88867c0-0.41992,0-1.50879-1.0791-1.50879c-1,0-1.26953,0.91895-1.26953,2.02832
		v2.36914h-0.68945V30.4209c0-0.81934-0.25-1.54883-1.10938-1.54883c-0.95996,0-1.22949,0.90918-1.22949,2.02832v2.36914h-0.68945
		l-0.00977-4.92773h0.66895v0.60059c0.31055-0.49023,0.80957-0.67969,1.35938-0.67969c0.68945,0,1.19922,0.2998,1.44922,0.94922
		c0.32031-0.62988,0.87012-0.94922,1.61914-0.94922C84.32715,28.2627,84.81641,29.04199,84.81641,30.19141z"/>
	<path d="M90.41797,30.99121h-3.6084c0.02051,1.0791,0.62012,1.72852,1.58887,1.72852c0.54004,0,0.96973-0.13965,1.41992-0.61914
		l0.47949,0.41895c-0.58008,0.61035-1.14941,0.83008-1.90918,0.83008c-1.49902,0-2.26855-1.11914-2.26855-2.51855
		c0-1.38965,0.75977-2.56836,2.18848-2.56836c1.50977,0,2.13867,1.17871,2.13867,2.29785
		C90.44727,30.70117,90.4375,30.87109,90.41797,30.99121z M86.80957,30.41113h2.97852c0-0.02051-0.00977-0.07031-0.00977-0.16016
		c-0.0498-0.7998-0.55957-1.40918-1.46973-1.40918C87.41895,28.8418,86.87012,29.54199,86.80957,30.41113z"/>
</g>
</svg>
