<?xml version="1.0" encoding="utf-8"?>
<!-- Generator: Adobe Illustrator 25.0.0, SVG Export Plug-In . SVG Version: 6.00 Build 0)  -->
<svg version="1.1" id="Livello_1" xmlns="http://www.w3.org/2000/svg" xmlns:xlink="http://www.w3.org/1999/xlink" x="0px" y="0px"
	 viewBox="0 0 300 86.5" enable-background="new 0 0 300 86.5" xml:space="preserve">
<circle id="Ellisse_471" fill="none" stroke="#707070" stroke-linecap="round" stroke-dasharray="0.1,3" cx="255.299" cy="61.70001" r="21.20001"/>
<circle id="Ellisse_472" fill="none" stroke="#707070" stroke-linecap="round" stroke-dasharray="0.1,3" cx="203.69901" cy="22.70001" r="21.2"/>
<line id="Linea_1454" fill="none" stroke="#444444" stroke-width="0.567" x1="221.54518" y1="36.15028" x2="219.64261" y2="38.33893"/>
<line id="Linea_1455" fill="none" stroke="#444444" stroke-width="0.567" x1="236.5639" y1="49.20585" x2="234.66133" y2="51.3945"/>
<line id="Linea_1456" fill="none" stroke="#444444" stroke-width="0.5" x1="220.5611" y1="37.28234" x2="235.5798" y2="50.33791"/>
<path id="Tracciato_124407" fill="#8FCC81" d="M202.89899,29.79999c-0.60001-0.60001-0.89999-0.60001-1.19998-0.29999
	c-0.5,0.5-1.39999,0.5-1.89999,0c-0.30002-0.29999-0.5-0.79999-0.39999-1.29999c0.10001-0.39999-0.10001-0.70001-1.30002-0.89999
	c-2.39999-0.5-3.89999-2.89999-3.29999-5.29999c0.5-2.39999,2.89999-3.89999,5.29999-3.29999l0,0
	c1.30002,0.29999,1.80002-0.10001,2-1c0.39999-1.79999,2.20001-2.89999,3.89999-2.5c1.60001,0.39999,2.70001,1.89999,2.60001,3.5
	c-0.10001,1,0.30002,1.39999,1.20001,1.5c1.79999,0.20001,3.10001,1.79999,3,3.60001c-0.20001,1.79999-1.70001,3.10001-3.5,3
	c-1-0.10001-1.39999,0.29999-1.39999,1.20001c-0.10001,1.70001-1.5,2.89999-3.20001,2.79999
	C204.099,30.60001,203.39899,30.29999,202.89899,29.79999L202.89899,29.79999z"/>
<path id="Tracciato_124406" fill="#D78F66" d="M251.39899,65c0.5-1.39999,0.20001-2.10001-1-2.60001
	c-2.29999-0.89999-3.5-3.60001-2.60001-5.89999s3.5-3.5,5.79999-2.60001c1.20001,0.5,1.70001,0.20001,1.89999-0.39999
	c0.39999-1.20001,1.70001-1.79999,2.89999-1.39999s1.79999,1.70001,1.39999,2.89999l0,0c-0.20001,0.60001,0,1,0.89999,1.29999
	c1.70001,0.60001,2.60001,2.39999,2,4.10001c-0.29999,0.79999-0.89999,1.5-1.60001,1.89999
	c-0.79999,0.39999-1.10001,1-0.39999,2.39999c1.20001,2.5,0.20001,5.60001-2.29999,6.79999s-5.60001,0.20001-6.79999-2.29999
	C250.99899,67.79999,250.89899,66.29999,251.39899,65L251.39899,65z"/>
<g enable-background="new    ">
	<path d="M0.48975,9.74512L1.19922,9.5752c0.12988,0.89941,0.80957,1.46875,1.74902,1.46875
		c1.00977,0,1.51953-0.5293,1.51953-1.21875c0-0.75-0.43018-1.13965-1.65918-1.60938
		c-1.40918-0.5293-1.89893-1.0293-1.89893-1.93848c0-1.05957,0.79932-1.75977,1.97852-1.75977
		c0.87988,0,1.56934,0.38965,1.98926,1.12988L4.27783,6.0166c-0.2998-0.53906-0.80957-0.85938-1.40918-0.85938
		c-0.72998,0-1.24951,0.5-1.24951,1.08984c0,0.63965,0.47949,0.97949,1.5791,1.39941
		C4.74756,8.23535,5.18701,8.7959,5.18701,9.76465c0,1.16992-0.80957,1.91895-2.24854,1.91895
		C1.64893,11.68359,0.67969,10.91406,0.48975,9.74512z"/>
	<path d="M6.31934,9.11523c0-1.45898,0.94971-2.53809,2.35889-2.53809c1.39941,0,2.36865,1.0791,2.36865,2.53809
		c0,1.44922-0.95947,2.54883-2.36865,2.54883S6.31934,10.57422,6.31934,9.11523z M10.35742,9.11523
		c0-1.11914-0.62988-1.92871-1.6792-1.92871c-1.05957,0-1.66895,0.81934-1.66895,1.92871c0,1.11914,0.61963,1.93945,1.66895,1.93945
		C9.73779,11.05469,10.35742,10.21484,10.35742,9.11523z"/>
	<path d="M19.1958,8.50586v3.07812h-0.68994V8.69531c0-0.41992,0-1.50879-1.0791-1.50879
		c-0.99951,0-1.26953,0.91895-1.26953,2.02832v2.36914h-0.68945V8.73535c0-0.81934-0.25-1.54883-1.10938-1.54883
		c-0.95947,0-1.22949,0.90918-1.22949,2.02832v2.36914h-0.68945L12.4292,6.65625h0.66992v0.60059
		c0.30957-0.49023,0.80957-0.67969,1.35889-0.67969c0.68994,0,1.19971,0.2998,1.44922,0.94922
		c0.31982-0.62988,0.86963-0.94922,1.61914-0.94922C18.70605,6.57715,19.1958,7.35645,19.1958,8.50586z"/>
	<path d="M20.83936,4.61816h0.79932V5.6377h-0.79932V4.61816z M20.89941,6.65625h0.68945v4.92773h-0.68945V6.65625z"/>
	<path d="M27.24707,12.34375c0,0.92969-0.86963,1.35938-2.10889,1.35938c-1.36914,0-2.19873-0.54004-2.19873-1.51953
		c0-0.09961,0.00977-0.16016,0.02002-0.21973l0.79932-0.67969c-0.37988-0.16992-0.63965-0.4502-0.63965-0.93945
		c0-0.39941,0.17969-0.69922,0.52979-0.93945C23.38916,9.10547,23.229,8.72559,23.229,8.28613c0-1,0.81982-1.70898,1.87891-1.70898
		c0.47998,0,0.90967,0.14941,1.22949,0.39941l0.67969-0.58984l0.35986,0.4502l-0.66992,0.55957
		c0.16992,0.26953,0.27002,0.5791,0.27002,0.92969c0,1.00879-0.81934,1.67871-1.85889,1.67871
		c-0.37988,0-0.72949-0.08984-1.01953-0.25c-0.19971,0.11035-0.31982,0.29004-0.31982,0.5c0,0.5,0.61963,0.61914,1.3291,0.72949
		C26.0874,11.13379,27.24707,11.27441,27.24707,12.34375z M26.55713,12.40332c0-0.59961-0.7793-0.68945-1.59912-0.81934
		c-0.21973-0.03027-0.44971-0.07031-0.65967-0.12012l-0.66943,0.64941c-0.00977,0.05078-0.00977,0.07031-0.00977,0.09082
		c0,0.69922,0.70947,0.91895,1.54883,0.91895C26.0376,13.12305,26.55713,12.88281,26.55713,12.40332z M23.90869,8.30566
		c0,0.63965,0.45996,1.12988,1.19922,1.12988c0.73975,0,1.17969-0.48047,1.17969-1.12988c0-0.67969-0.45996-1.14941-1.16943-1.14941
		C24.41846,7.15625,23.90869,7.62598,23.90869,8.30566z"/>
	<path d="M28.5791,10.51465V4.61816h0.68945v5.85645c0,0.33984,0.12012,0.55957,0.44971,0.55957
		c0.1499,0,0.31982-0.04004,0.46973-0.08984l0.01025,0.58984c-0.20996,0.06934-0.45996,0.12988-0.67969,0.12988
		C28.94873,11.66406,28.5791,11.28418,28.5791,10.51465z"/>
	<path d="M31.25879,4.61816h0.79932V5.6377h-0.79932V4.61816z M31.31885,6.65625h0.68945v4.92773h-0.68945V6.65625z"/>
	<path d="M37.49707,8.51562v3.06836h-0.62988l-0.04004-0.75977c-0.38965,0.5498-0.98926,0.83984-1.76904,0.83984
		c-1.06934,0-1.69873-0.55957-1.69873-1.50977c0-0.49902,0.19971-0.87891,0.55957-1.09863
		c0.37988-0.21973,0.90967-0.31055,1.87891-0.31055h1.00928V8.51562c0-0.85938-0.44971-1.3291-1.2793-1.3291
		c-0.61963,0-1.09912,0.26953-1.49902,0.81934L33.5293,7.58594c0.5293-0.68945,1.16895-1.00879,2.00879-1.00879
		C36.77734,6.57715,37.49707,7.28613,37.49707,8.51562z M36.80713,9.375V9.30566h-0.94922
		c-0.90967,0-1.29932,0.05957-1.53906,0.24902c-0.18018,0.14062-0.27002,0.36035-0.27002,0.63965
		c0,0.5498,0.46973,0.90039,1.20947,0.90039C36.20752,11.09473,36.80713,10.4248,36.80713,9.375z"/>
	<path d="M43.10645,8.56543v3.01855h-0.68945V8.73535c0-1.05957-0.33984-1.54883-1.07959-1.54883
		c-0.92969,0-1.46924,0.7998-1.46924,2.18848v2.20898h-0.68945V6.65625h0.68945v0.71973
		c0.31982-0.49902,0.91943-0.79883,1.62891-0.79883C42.55664,6.57715,43.10645,7.25684,43.10645,8.56543z"/>
	<path d="M48.3667,7.20605l-3.2085,3.78809h3.18848v0.58984h-4.09814v-0.5l3.27832-3.83789h-3.1084V6.65625h3.94824V7.20605z"/>
	<path d="M53.34668,8.51562v3.06836H52.7168l-0.04004-0.75977c-0.38965,0.5498-0.98926,0.83984-1.76904,0.83984
		c-1.06934,0-1.69873-0.55957-1.69873-1.50977c0-0.49902,0.19971-0.87891,0.55957-1.09863
		c0.37988-0.21973,0.90967-0.31055,1.87891-0.31055h1.00928V8.51562c0-0.85938-0.44971-1.3291-1.2793-1.3291
		c-0.61963,0-1.09912,0.26953-1.49902,0.81934l-0.49951-0.41992c0.5293-0.68945,1.16895-1.00879,2.00879-1.00879
		C52.62695,6.57715,53.34668,7.28613,53.34668,8.51562z M52.65674,9.375V9.30566h-0.94922
		c-0.90967,0-1.29932,0.05957-1.53906,0.24902c-0.18018,0.14062-0.27002,0.36035-0.27002,0.63965
		c0,0.5498,0.46973,0.90039,1.20947,0.90039C52.05713,11.09473,52.65674,10.4248,52.65674,9.375z"/>
	<path d="M62.26611,9.11523c0,1.46973-0.74951,2.54883-2.18896,2.54883c-0.71924,0-1.26904-0.28027-1.62891-0.73926v0.65918
		h-0.68945V4.61816h0.68945v2.69824c0.36963-0.47949,0.92969-0.75,1.62891-0.75C61.44678,6.56641,62.26611,7.57617,62.26611,9.11523
		z M61.57666,9.11523c0-1.16895-0.59961-1.93848-1.59912-1.93848c-0.98975,0-1.58936,0.76953-1.58936,1.93848
		c0,1.11914,0.5498,1.93945,1.58936,1.93945C61.02686,11.05469,61.57666,10.23438,61.57666,9.11523z"/>
	<path d="M67.3667,8.51562v3.06836h-0.62988l-0.04004-0.75977c-0.38965,0.5498-0.98926,0.83984-1.76904,0.83984
		c-1.06934,0-1.69873-0.55957-1.69873-1.50977c0-0.49902,0.19971-0.87891,0.55957-1.09863
		c0.37988-0.21973,0.90967-0.31055,1.87891-0.31055h1.00928V8.51562c0-0.85938-0.44971-1.3291-1.2793-1.3291
		c-0.61963,0-1.09912,0.26953-1.49902,0.81934l-0.49951-0.41992c0.5293-0.68945,1.16895-1.00879,2.00879-1.00879
		C66.64697,6.57715,67.3667,7.28613,67.3667,8.51562z M66.67676,9.375V9.30566h-0.94922c-0.90967,0-1.29932,0.05957-1.53906,0.24902
		c-0.18018,0.14062-0.27002,0.36035-0.27002,0.63965c0,0.5498,0.46973,0.90039,1.20947,0.90039
		C66.07715,11.09473,66.67676,10.4248,66.67676,9.375z"/>
	<path d="M68.51855,10.375l0.57959-0.25977c0.17969,0.50977,0.65967,0.93945,1.4292,0.93945
		c0.66943,0,1.09961-0.33008,1.09961-0.84961c0-1.30957-2.83887-0.49023-2.83887-2.23926c0-0.85938,0.69971-1.38867,1.68945-1.38867
		c0.78955,0,1.4292,0.3291,1.76904,1.0293l-0.5498,0.2998c-0.23975-0.44043-0.62988-0.71973-1.23926-0.71973
		c-0.60986,0-0.99951,0.25-0.99951,0.67969c0,1.16895,2.84814,0.42969,2.84814,2.29883c0,0.99902-0.81934,1.49902-1.76904,1.49902
		C69.56787,11.66406,68.77832,11.16406,68.51855,10.375z"/>
	<path d="M77.27637,8.51562v3.06836h-0.62988l-0.04004-0.75977c-0.38965,0.5498-0.98926,0.83984-1.76904,0.83984
		c-1.06934,0-1.69873-0.55957-1.69873-1.50977c0-0.49902,0.19971-0.87891,0.55957-1.09863
		c0.37988-0.21973,0.90967-0.31055,1.87891-0.31055h1.00928V8.51562c0-0.85938-0.44971-1.3291-1.2793-1.3291
		c-0.61963,0-1.09912,0.26953-1.49902,0.81934l-0.49951-0.41992c0.5293-0.68945,1.16895-1.00879,2.00879-1.00879
		C76.55664,6.57715,77.27637,7.28613,77.27637,8.51562z M76.58643,9.375V9.30566h-0.94922
		c-0.90967,0-1.29932,0.05957-1.53906,0.24902c-0.18018,0.14062-0.27002,0.36035-0.27002,0.63965
		c0,0.5498,0.46973,0.90039,1.20947,0.90039C75.98682,11.09473,76.58643,10.4248,76.58643,9.375z"/>
	<path d="M81.00684,11.53418c-0.25977,0.08008-0.52002,0.12988-0.74951,0.12988c-0.65967,0-1.13965-0.37012-1.13965-1.23926V7.23633
		h-0.81934V6.65625h0.81934V5.27734l0.68994-0.51953v1.89844h1.18896v0.58008h-1.18896v3.09863
		c0,0.47949,0.21973,0.69922,0.60938,0.69922c0.16992,0,0.35986-0.04004,0.57959-0.10938L81.00684,11.53418z"/>
	<path d="M85.98633,8.51562v3.06836h-0.62988l-0.04004-0.75977c-0.38965,0.5498-0.98926,0.83984-1.76904,0.83984
		c-1.06934,0-1.69873-0.55957-1.69873-1.50977c0-0.49902,0.19971-0.87891,0.55957-1.09863
		c0.37988-0.21973,0.90967-0.31055,1.87891-0.31055h1.00928V8.51562c0-0.85938-0.44971-1.3291-1.2793-1.3291
		c-0.61963,0-1.09912,0.26953-1.49902,0.81934l-0.49951-0.41992c0.5293-0.68945,1.16895-1.00879,2.00879-1.00879
		C85.2666,6.57715,85.98633,7.28613,85.98633,8.51562z M85.29639,9.375V9.30566h-0.94922
		c-0.90967,0-1.29932,0.05957-1.53906,0.24902c-0.18018,0.14062-0.27002,0.36035-0.27002,0.63965
		c0,0.5498,0.46973,0.90039,1.20947,0.90039C84.69678,11.09473,85.29639,10.4248,85.29639,9.375z"/>
	<path d="M89.86816,10.375l0.57959-0.25977c0.17969,0.50977,0.65967,0.93945,1.4292,0.93945
		c0.66943,0,1.09961-0.33008,1.09961-0.84961c0-1.30957-2.83887-0.49023-2.83887-2.23926c0-0.85938,0.69971-1.38867,1.68945-1.38867
		c0.78955,0,1.4292,0.3291,1.76904,1.0293l-0.5498,0.2998c-0.23975-0.44043-0.62988-0.71973-1.23926-0.71973
		c-0.60986,0-0.99951,0.25-0.99951,0.67969c0,1.16895,2.84814,0.42969,2.84814,2.29883c0,0.99902-0.81934,1.49902-1.76904,1.49902
		C90.91748,11.66406,90.12793,11.16406,89.86816,10.375z"/>
	<path d="M98.81543,6.65625v4.92773h-0.68945v-0.70996c-0.34961,0.53027-0.97949,0.79004-1.62891,0.79004
		c-1.11963,0-1.60938-0.76953-1.60938-1.98926V6.65625h0.68945v2.84863c0,0.7998,0.14014,1.5498,1.07959,1.5498
		c0.97949,0,1.46924-0.84961,1.46924-2.12891V6.65625H98.81543z"/>
	<path d="M100.99756,6.87695h0.88916v1.09863h-0.88916V6.87695z M100.99756,10.48438h0.88916v1.09961h-0.88916V10.48438z"/>
</g>
<g enable-background="new    ">
	<path d="M4.57764,21.51562v3.06836H3.94775l-0.04004-0.75977c-0.38965,0.5498-0.98926,0.83984-1.76904,0.83984
		c-1.06934,0-1.69873-0.55957-1.69873-1.50977c0-0.49902,0.19971-0.87891,0.55957-1.09863
		c0.37988-0.21973,0.90967-0.31055,1.87891-0.31055H3.8877v-0.22949c0-0.85938-0.44971-1.3291-1.2793-1.3291
		c-0.61963,0-1.09912,0.26953-1.49902,0.81934l-0.49951-0.41992c0.5293-0.68945,1.16895-1.00879,2.00879-1.00879
		C3.85791,19.57715,4.57764,20.28613,4.57764,21.51562z M3.8877,22.375v-0.06934H2.93848
		c-0.90967,0-1.29932,0.05957-1.53906,0.24902c-0.18018,0.14062-0.27002,0.36035-0.27002,0.63965
		c0,0.5498,0.46973,0.90039,1.20947,0.90039C3.28809,24.09473,3.8877,23.4248,3.8877,22.375z"/>
	<path d="M6.59961,23.48438h0.89941v1.09961H6.59961V23.48438z"/>
	<path d="M20.9165,25.12402l-1.01953-1c-0.50977,0.36035-1.12939,0.55957-1.83936,0.55957
		c-1.90869,0-3.18799-1.42871-3.18799-3.57812c0-2.1582,1.2793-3.58789,3.18799-3.58789c1.90918,0,3.18848,1.42969,3.18848,3.58789
		c0,1.08008-0.31982,1.96973-0.87939,2.59863l1.00928,0.99023L20.9165,25.12402z M19.38721,23.63477l-1.12939-1.09961
		l0.47949-0.42969l1.12939,1.10938c0.42969-0.5,0.66992-1.22949,0.66992-2.10938c0-1.77832-0.96973-2.9082-2.479-2.9082
		c-1.50879,0-2.47852,1.12988-2.47852,2.9082c0,1.76953,0.96973,2.89844,2.47852,2.89844
		C18.56738,24.00391,19.01709,23.87402,19.38721,23.63477z"/>
	<path d="M26.76709,19.65625v4.92773h-0.68945v-0.70996c-0.3501,0.53027-0.97949,0.79004-1.62939,0.79004
		c-1.11914,0-1.60889-0.76953-1.60889-1.98926v-3.01855h0.68945v2.84863c0,0.7998,0.14014,1.5498,1.07959,1.5498
		c0.97949,0,1.46924-0.84961,1.46924-2.12891v-2.26953H26.76709z"/>
	<path d="M32.25732,21.51562v3.06836h-0.62988l-0.04004-0.75977c-0.38965,0.5498-0.98926,0.83984-1.76904,0.83984
		c-1.06934,0-1.69873-0.55957-1.69873-1.50977c0-0.49902,0.19971-0.87891,0.55957-1.09863
		c0.37988-0.21973,0.90967-0.31055,1.87891-0.31055h1.00928v-0.22949c0-0.85938-0.44971-1.3291-1.2793-1.3291
		c-0.61963,0-1.09912,0.26953-1.49902,0.81934l-0.49951-0.41992c0.5293-0.68945,1.16895-1.00879,2.00879-1.00879
		C31.5376,19.57715,32.25732,20.28613,32.25732,21.51562z M31.56738,22.375v-0.06934h-0.94922
		c-0.90967,0-1.29932,0.05957-1.53906,0.24902c-0.18018,0.14062-0.27002,0.36035-0.27002,0.63965
		c0,0.5498,0.46973,0.90039,1.20947,0.90039C30.96777,24.09473,31.56738,23.4248,31.56738,22.375z"/>
	<path d="M37.8667,21.56543v3.01855h-0.68945v-2.84863c0-1.05957-0.33984-1.54883-1.07959-1.54883
		c-0.92969,0-1.46924,0.7998-1.46924,2.18848v2.20898h-0.68945v-4.92773h0.68945v0.71973
		c0.31982-0.49902,0.91943-0.79883,1.62891-0.79883C37.31689,19.57715,37.8667,20.25684,37.8667,21.56543z"/>
	<path d="M41.61768,24.53418c-0.25977,0.08008-0.52002,0.12988-0.74951,0.12988c-0.65967,0-1.13965-0.37012-1.13965-1.23926
		v-3.18848h-0.81934v-0.58008h0.81934v-1.37891l0.68945-0.51953v1.89844h1.18945v0.58008h-1.18945v3.09863
		c0,0.47949,0.22021,0.69922,0.60986,0.69922c0.16992,0,0.35986-0.04004,0.57959-0.10938L41.61768,24.53418z"/>
	<path d="M42.86914,17.61816h0.79932v1.01953h-0.79932V17.61816z M42.9292,19.65625h0.68945v4.92773H42.9292V19.65625z"/>
	<path d="M47.48779,24.53418c-0.25977,0.08008-0.52002,0.12988-0.74951,0.12988c-0.65967,0-1.13965-0.37012-1.13965-1.23926
		v-3.18848H44.7793v-0.58008h0.81934v-1.37891l0.68945-0.51953v1.89844h1.18945v0.58008h-1.18945v3.09863
		c0,0.47949,0.22021,0.69922,0.60986,0.69922c0.16992,0,0.35986-0.04004,0.57959-0.10938L47.48779,24.53418z"/>
	<path d="M52.4668,21.51562v3.06836h-0.62988l-0.04004-0.75977c-0.38965,0.5498-0.98926,0.83984-1.76904,0.83984
		c-1.06934,0-1.69873-0.55957-1.69873-1.50977c0-0.49902,0.19971-0.87891,0.55957-1.09863
		c0.37988-0.21973,0.90967-0.31055,1.87891-0.31055h1.00928v-0.22949c0-0.85938-0.44971-1.3291-1.2793-1.3291
		c-0.61963,0-1.09912,0.26953-1.49902,0.81934l-0.49951-0.41992c0.5293-0.68945,1.16895-1.00879,2.00879-1.00879
		C51.74707,19.57715,52.4668,20.28613,52.4668,21.51562z M50.25781,19.02734l-1.23926-1.40918h0.73975l1.03906,1.40918H50.25781z
		 M51.77686,22.375v-0.06934h-0.94922c-0.90967,0-1.29932,0.05957-1.53906,0.24902
		c-0.18018,0.14062-0.27002,0.36035-0.27002,0.63965c0,0.5498,0.46973,0.90039,1.20947,0.90039
		C51.17725,24.09473,51.77686,23.4248,51.77686,22.375z"/>
	<path d="M60.99658,17.61816v6.96582h-0.68994V23.9248c-0.35938,0.45898-0.90918,0.73926-1.62891,0.73926
		c-1.43896,0-2.18896-1.0791-2.18896-2.54883c0-1.53906,0.81982-2.54883,2.18896-2.54883c0.69971,0,1.25928,0.27051,1.62891,0.75
		v-2.69824H60.99658z M60.3667,22.11523c0-1.16895-0.59961-1.93848-1.58887-1.93848c-0.99951,0-1.59912,0.76953-1.59912,1.93848
		c0,1.11914,0.5498,1.93945,1.59912,1.93945C59.81689,24.05469,60.3667,23.23438,60.3667,22.11523z"/>
	<path d="M62.75879,17.61816h0.79932v1.01953h-0.79932V17.61816z M62.81885,19.65625h0.68945v4.92773h-0.68945V19.65625z"/>
	<path d="M70.10742,24.53418c-0.25977,0.08008-0.52002,0.12988-0.74951,0.12988c-0.65967,0-1.13965-0.37012-1.13965-1.23926
		v-3.18848h-0.81934v-0.58008h0.81934v-1.37891l0.68994-0.51953v1.89844h1.18896v0.58008H68.9082v3.09863
		c0,0.47949,0.21973,0.69922,0.60938,0.69922c0.16992,0,0.35986-0.04004,0.57959-0.10938L70.10742,24.53418z"/>
	<path d="M75.26611,22.30566H71.6582c0.02002,1.0791,0.61963,1.72852,1.58936,1.72852c0.53955,0,0.96924-0.13965,1.41895-0.61914
		l0.47998,0.41895c-0.57959,0.61035-1.14941,0.83008-1.90918,0.83008c-1.49902,0-2.26855-1.11914-2.26855-2.51855
		c0-1.38965,0.75977-2.56836,2.18896-2.56836c1.50879,0,2.13867,1.17871,2.13867,2.29785
		C75.29639,22.01562,75.28613,22.18555,75.26611,22.30566z M71.6582,21.72559h2.97852c0-0.02051-0.01025-0.07031-0.01025-0.16016
		c-0.0498-0.7998-0.55957-1.40918-1.46875-1.40918C72.26807,20.15625,71.71826,20.85645,71.6582,21.72559z"/>
	<path d="M76.15869,23.375l0.57959-0.25977c0.17969,0.50977,0.65967,0.93945,1.4292,0.93945
		c0.66943,0,1.09961-0.33008,1.09961-0.84961c0-1.30957-2.83887-0.49023-2.83887-2.23926c0-0.85938,0.69971-1.38867,1.68945-1.38867
		c0.78955,0,1.4292,0.3291,1.76904,1.0293l-0.5498,0.2998c-0.23975-0.44043-0.62988-0.71973-1.23926-0.71973
		c-0.60986,0-0.99951,0.25-0.99951,0.67969c0,1.16895,2.84814,0.42969,2.84814,2.29883c0,0.99902-0.81934,1.49902-1.76855,1.49902
		C77.20801,24.66406,76.41846,24.16406,76.15869,23.375z"/>
	<path d="M83.39746,24.53418c-0.25977,0.08008-0.52002,0.12988-0.74951,0.12988c-0.65967,0-1.13965-0.37012-1.13965-1.23926
		v-3.18848h-0.81934v-0.58008h0.81934v-1.37891l0.68994-0.51953v1.89844h1.18896v0.58008h-1.18896v3.09863
		c0,0.47949,0.21973,0.69922,0.60938,0.69922c0.16992,0,0.35986-0.04004,0.57959-0.10938L83.39746,24.53418z"/>
	<path d="M84.22852,22.11523c0-1.45898,0.94971-2.53809,2.35889-2.53809c1.39941,0,2.36865,1.0791,2.36865,2.53809
		c0,1.44922-0.95947,2.54883-2.36865,2.54883S84.22852,23.57422,84.22852,22.11523z M88.2666,22.11523
		c0-1.11914-0.62988-1.92871-1.6792-1.92871c-1.05957,0-1.66895,0.81934-1.66895,1.92871c0,1.11914,0.61963,1.93945,1.66895,1.93945
		C87.64697,24.05469,88.2666,23.21484,88.2666,22.11523z"/>
	<path d="M97.19629,17.61816v6.96582h-0.68994V23.9248c-0.35938,0.45898-0.90918,0.73926-1.62891,0.73926
		c-1.43896,0-2.18896-1.0791-2.18896-2.54883c0-1.53906,0.81982-2.54883,2.18896-2.54883c0.69971,0,1.25928,0.27051,1.62891,0.75
		v-2.69824H97.19629z M96.56641,22.11523c0-1.16895-0.59961-1.93848-1.58887-1.93848c-0.99951,0-1.59912,0.76953-1.59912,1.93848
		c0,1.11914,0.54932,1.93945,1.59912,1.93945C96.0166,24.05469,96.56641,23.23438,96.56641,22.11523z"/>
	<path d="M102.77588,19.65625v4.92773h-0.68945v-0.70996c-0.3501,0.53027-0.97949,0.79004-1.62939,0.79004
		c-1.11914,0-1.60889-0.76953-1.60889-1.98926v-3.01855h0.68945v2.84863c0,0.7998,0.14014,1.5498,1.07959,1.5498
		c0.97949,0,1.46924-0.84961,1.46924-2.12891v-2.26953H102.77588z"/>
	<path d="M109.10547,22.11523c0,1.46973-0.74951,2.54883-2.18896,2.54883c-0.71924,0-1.26904-0.28027-1.62891-0.73926v0.65918
		h-0.68945v-6.96582h0.68945v2.69824c0.36963-0.47949,0.92969-0.75,1.62891-0.75
		C108.28613,19.56641,109.10547,20.57617,109.10547,22.11523z M108.41602,22.11523c0-1.16895-0.59961-1.93848-1.59912-1.93848
		c-0.98975,0-1.58936,0.76953-1.58936,1.93848c0,1.11914,0.5498,1.93945,1.58936,1.93945
		C107.86621,24.05469,108.41602,23.23438,108.41602,22.11523z"/>
	<path d="M110.47803,17.61816h0.79932v1.01953h-0.79932V17.61816z M110.53809,19.65625h0.68945v4.92773h-0.68945V19.65625z"/>
	<path d="M115.09717,24.53418c-0.25977,0.08008-0.52002,0.12988-0.74951,0.12988c-0.65967,0-1.13965-0.37012-1.13965-1.23926
		v-3.18848h-0.81934v-0.58008h0.81934v-1.37891l0.68945-0.51953v1.89844h1.18945v0.58008h-1.18945v3.09863
		c0,0.47949,0.22021,0.69922,0.60986,0.69922c0.16992,0,0.35986-0.04004,0.57959-0.10938L115.09717,24.53418z"/>
	<path d="M120.07617,21.51562v3.06836h-0.62988l-0.04004-0.75977c-0.38965,0.5498-0.98926,0.83984-1.76904,0.83984
		c-1.06934,0-1.69873-0.55957-1.69873-1.50977c0-0.49902,0.19971-0.87891,0.55957-1.09863
		c0.37988-0.21973,0.90967-0.31055,1.87891-0.31055h1.00928v-0.22949c0-0.85938-0.44971-1.3291-1.2793-1.3291
		c-0.61963,0-1.09912,0.26953-1.49902,0.81934l-0.49951-0.41992c0.5293-0.68945,1.16895-1.00879,2.00879-1.00879
		C119.35645,19.57715,120.07617,20.28613,120.07617,21.51562z M119.38623,22.375v-0.06934h-0.94922
		c-0.90967,0-1.29932,0.05957-1.53906,0.24902c-0.18018,0.14062-0.27002,0.36035-0.27002,0.63965
		c0,0.5498,0.46973,0.90039,1.20947,0.90039C118.78662,24.09473,119.38623,23.4248,119.38623,22.375z"/>
	<path d="M123.80713,24.53418c-0.25977,0.08008-0.52002,0.12988-0.74951,0.12988c-0.65967,0-1.13965-0.37012-1.13965-1.23926
		v-3.18848h-0.81934v-0.58008h0.81934v-1.37891l0.68945-0.51953v1.89844h1.18945v0.58008h-1.18945v3.09863
		c0,0.47949,0.22021,0.69922,0.60986,0.69922c0.16992,0,0.35986-0.04004,0.57959-0.10938L123.80713,24.53418z"/>
	<path d="M125.05811,17.61816h0.79932v1.01953h-0.79932V17.61816z M125.11816,19.65625h0.68945v4.92773h-0.68945V19.65625z"/>
	<path d="M126.91797,19.65625h0.75l1.54883,4.04785l1.55908-4.04785h0.75977l-2.01904,4.92773h-0.58936L126.91797,19.65625z"/>
	<path d="M132.06836,22.11523c0-1.45898,0.94922-2.53809,2.3584-2.53809c1.39941,0,2.36865,1.0791,2.36865,2.53809
		c0,1.44922-0.95947,2.54883-2.36865,2.54883S132.06836,23.57422,132.06836,22.11523z M136.10596,22.11523
		c0-1.11914-0.62988-1.92871-1.6792-1.92871c-1.05957,0-1.66895,0.81934-1.66895,1.92871c0,1.11914,0.61963,1.93945,1.66895,1.93945
		C135.48633,24.05469,136.10596,23.21484,136.10596,22.11523z"/>
	<path d="M140.85791,17.61816h0.79932v1.01953h-0.79932V17.61816z M140.91797,19.65625h0.68945v4.92773h-0.68945V19.65625z"/>
	<path d="M147.35547,21.56543v3.01855h-0.68945v-2.84863c0-1.05957-0.33984-1.54883-1.07959-1.54883
		c-0.92969,0-1.46924,0.7998-1.46924,2.18848v2.20898h-0.68945v-4.92773h0.68945v0.71973
		c0.31982-0.49902,0.91943-0.79883,1.62891-0.79883C146.80566,19.57715,147.35547,20.25684,147.35547,21.56543z"/>
</g>
<g enable-background="new    ">
	<path d="M5.41699,35.11523c0,1.46973-0.74951,2.54883-2.18896,2.54883c-0.71924,0-1.26904-0.28027-1.62891-0.73926v2.69824H0.90967
		v-6.9668h0.68945v0.66016c0.36963-0.47949,0.92969-0.75,1.62891-0.75C4.59766,32.56641,5.41699,33.57617,5.41699,35.11523z
		 M4.72754,35.11523c0-1.16895-0.59961-1.93848-1.59912-1.93848c-0.98975,0-1.58936,0.76953-1.58936,1.93848
		c0,1.11914,0.5498,1.93945,1.58936,1.93945C4.17773,37.05469,4.72754,36.23438,4.72754,35.11523z"/>
	<path d="M9.84766,32.78711l-0.33984,0.55957c-0.22949-0.10059-0.43945-0.15039-0.64941-0.15039
		c-0.75977,0-1.31934,0.56934-1.31934,1.63965v2.74805H6.84961v-4.92773h0.68945v0.74023
		c0.35986-0.64941,0.95947-0.81934,1.45898-0.81934C9.29785,32.57715,9.57812,32.63672,9.84766,32.78711z"/>
	<path d="M9.98926,35.11523c0-1.45898,0.94971-2.53809,2.35889-2.53809c1.39941,0,2.36865,1.0791,2.36865,2.53809
		c0,1.44922-0.95947,2.54883-2.36865,2.54883S9.98926,36.57422,9.98926,35.11523z M14.02734,35.11523
		c0-1.11914-0.62988-1.92871-1.6792-1.92871c-1.05957,0-1.66895,0.81934-1.66895,1.92871c0,1.11914,0.61963,1.93945,1.66895,1.93945
		C13.40771,37.05469,14.02734,36.21484,14.02734,35.11523z"/>
	<path d="M20.6167,35.11523c0,1.46973-0.74951,2.54883-2.18896,2.54883c-0.71924,0-1.26904-0.28027-1.62891-0.73926v2.69824
		h-0.68945v-6.9668h0.68945v0.66016c0.36963-0.47949,0.92969-0.75,1.62891-0.75
		C19.79736,32.56641,20.6167,33.57617,20.6167,35.11523z M19.92725,35.11523c0-1.16895-0.59961-1.93848-1.59912-1.93848
		c-0.98975,0-1.58936,0.76953-1.58936,1.93848c0,1.11914,0.5498,1.93945,1.58936,1.93945
		C19.37744,37.05469,19.92725,36.23438,19.92725,35.11523z"/>
	<path d="M21.61914,35.11523c0-1.45898,0.94971-2.53809,2.35889-2.53809c1.39941,0,2.36865,1.0791,2.36865,2.53809
		c0,1.44922-0.95947,2.54883-2.36865,2.54883S21.61914,36.57422,21.61914,35.11523z M25.65723,35.11523
		c0-1.11914-0.62988-1.92871-1.6792-1.92871c-1.05957,0-1.66895,0.81934-1.66895,1.92871c0,1.11914,0.61963,1.93945,1.66895,1.93945
		C25.0376,37.05469,25.65723,36.21484,25.65723,35.11523z"/>
	<path d="M30.7373,32.78711l-0.33984,0.55957c-0.22949-0.10059-0.43945-0.15039-0.64941-0.15039
		c-0.75977,0-1.31934,0.56934-1.31934,1.63965v2.74805h-0.68945v-4.92773h0.68945v0.74023
		c0.35986-0.64941,0.95947-0.81934,1.45898-0.81934C30.1875,32.57715,30.46777,32.63672,30.7373,32.78711z"/>
	<path d="M35.41699,33.20605l-3.2085,3.78809h3.18848v0.58984h-4.09814v-0.5l3.27832-3.83789h-3.1084v-0.58984h3.94824V33.20605z"/>
	<path d="M36.66895,30.61816h0.79932v1.01953h-0.79932V30.61816z M36.729,32.65625h0.68945v4.92773H36.729V32.65625z"/>
	<path d="M38.80859,35.11523c0-1.45898,0.94971-2.53809,2.35889-2.53809c1.39941,0,2.36865,1.0791,2.36865,2.53809
		c0,1.44922-0.95947,2.54883-2.36865,2.54883S38.80859,36.57422,38.80859,35.11523z M42.84668,35.11523
		c0-1.11914-0.62988-1.92871-1.6792-1.92871c-1.05957,0-1.66895,0.81934-1.66895,1.92871c0,1.11914,0.61963,1.93945,1.66895,1.93945
		C42.22705,37.05469,42.84668,36.21484,42.84668,35.11523z"/>
	<path d="M48.85645,34.56543v3.01855h-0.68945v-2.84863c0-1.05957-0.33984-1.54883-1.07959-1.54883
		c-0.92969,0-1.46924,0.7998-1.46924,2.18848v2.20898h-0.68945v-4.92773h0.68945v0.71973
		c0.31982-0.49902,0.91943-0.79883,1.62891-0.79883C48.30664,32.57715,48.85645,33.25684,48.85645,34.56543z"/>
	<path d="M54.45605,35.30566h-3.60791c0.02002,1.0791,0.61963,1.72852,1.58936,1.72852c0.53955,0,0.96924-0.13965,1.41895-0.61914
		l0.47998,0.41895c-0.57959,0.61035-1.14941,0.83008-1.90918,0.83008c-1.49902,0-2.26855-1.11914-2.26855-2.51855
		c0-1.38965,0.75977-2.56836,2.18896-2.56836c1.50879,0,2.13867,1.17871,2.13867,2.29785
		C54.48633,35.01562,54.47607,35.18555,54.45605,35.30566z M50.84814,34.72559h2.97852c0-0.02051-0.01025-0.07031-0.01025-0.16016
		c-0.0498-0.7998-0.55957-1.40918-1.46875-1.40918C51.45801,33.15625,50.9082,33.85645,50.84814,34.72559z"/>
	<path d="M62.27686,34.51562v3.06836h-0.62988l-0.04004-0.75977c-0.38965,0.5498-0.98926,0.83984-1.76904,0.83984
		c-1.06934,0-1.69873-0.55957-1.69873-1.50977c0-0.49902,0.19971-0.87891,0.55957-1.09863
		c0.37988-0.21973,0.90967-0.31055,1.87891-0.31055h1.00928v-0.22949c0-0.85938-0.44971-1.3291-1.2793-1.3291
		c-0.61963,0-1.09912,0.26953-1.49902,0.81934l-0.49951-0.41992c0.5293-0.68945,1.16895-1.00879,2.00879-1.00879
		C61.55713,32.57715,62.27686,33.28613,62.27686,34.51562z M61.58691,35.375v-0.06934H60.6377
		c-0.90967,0-1.29932,0.05957-1.53906,0.24902c-0.18018,0.14062-0.27002,0.36035-0.27002,0.63965
		c0,0.5498,0.46973,0.90039,1.20947,0.90039C60.9873,37.09473,61.58691,36.4248,61.58691,35.375z"/>
	<path d="M63.91846,36.51465v-5.89648h0.68945v5.85645c0,0.33984,0.12012,0.55957,0.44971,0.55957
		c0.1499,0,0.31982-0.04004,0.46973-0.08984l0.01025,0.58984c-0.20996,0.06934-0.45996,0.12988-0.67969,0.12988
		C64.28809,37.66406,63.91846,37.28418,63.91846,36.51465z"/>
	<path d="M66.61816,36.51465v-5.89648h0.68945v5.85645c0,0.33984,0.12012,0.55957,0.44971,0.55957
		c0.1499,0,0.31982-0.04004,0.46973-0.08984l0.01025,0.58984c-0.20996,0.06934-0.45996,0.12988-0.67969,0.12988
		C66.98779,37.66406,66.61816,37.28418,66.61816,36.51465z"/>
	<path d="M73.02637,34.51562v3.06836h-0.62988l-0.04004-0.75977c-0.38965,0.5498-0.98926,0.83984-1.76904,0.83984
		c-1.06934,0-1.69873-0.55957-1.69873-1.50977c0-0.49902,0.19971-0.87891,0.55957-1.09863
		c0.37988-0.21973,0.90967-0.31055,1.87891-0.31055h1.00928v-0.22949c0-0.85938-0.44971-1.3291-1.2793-1.3291
		c-0.61963,0-1.09912,0.26953-1.49902,0.81934l-0.49951-0.41992c0.5293-0.68945,1.16895-1.00879,2.00879-1.00879
		C72.30664,32.57715,73.02637,33.28613,73.02637,34.51562z M72.33643,35.375v-0.06934h-0.94922
		c-0.90967,0-1.29932,0.05957-1.53906,0.24902c-0.18018,0.14062-0.27002,0.36035-0.27002,0.63965
		c0,0.5498,0.46973,0.90039,1.20947,0.90039C71.73682,37.09473,72.33643,36.4248,72.33643,35.375z"/>
	<path d="M77.39795,36.51465v-5.89648h0.68945v5.85645c0,0.33984,0.12012,0.55957,0.44971,0.55957
		c0.1499,0,0.31982-0.04004,0.46973-0.08984l0.01025,0.58984c-0.20996,0.06934-0.45996,0.12988-0.67969,0.12988
		C77.76758,37.66406,77.39795,37.28418,77.39795,36.51465z"/>
	<path d="M83.896,32.65625v4.92773h-0.68945v-0.70996c-0.3501,0.53027-0.97949,0.79004-1.62939,0.79004
		c-1.11914,0-1.60889-0.76953-1.60889-1.98926v-3.01855h0.68945v2.84863c0,0.7998,0.14014,1.5498,1.07959,1.5498
		c0.97949,0,1.46924-0.84961,1.46924-2.12891v-2.26953H83.896z"/>
	<path d="M89.646,34.56543v3.01855h-0.68945v-2.84863c0-1.05957-0.33984-1.54883-1.07959-1.54883
		c-0.92969,0-1.46924,0.7998-1.46924,2.18848v2.20898h-0.68945v-4.92773h0.68945v0.71973
		c0.31982-0.49902,0.91943-0.79883,1.62891-0.79883C89.09619,32.57715,89.646,33.25684,89.646,34.56543z"/>
	<path d="M95.18604,38.34375c0,0.92969-0.86963,1.35938-2.10889,1.35938c-1.36914,0-2.19873-0.54004-2.19873-1.51953
		c0-0.09961,0.00977-0.16016,0.02002-0.21973l0.79932-0.67969c-0.37988-0.16992-0.63965-0.4502-0.63965-0.93945
		c0-0.39941,0.18018-0.69922,0.52979-0.93945c-0.25977-0.2998-0.41992-0.67969-0.41992-1.11914c0-1,0.81982-1.70898,1.87891-1.70898
		c0.47998,0,0.90967,0.14941,1.22949,0.39941l0.67969-0.58984l0.35986,0.4502L94.646,33.39648
		c0.16992,0.26953,0.27002,0.5791,0.27002,0.92969c0,1.00879-0.81934,1.67871-1.85889,1.67871
		c-0.37988,0-0.72949-0.08984-1.01953-0.25c-0.19971,0.11035-0.31982,0.29004-0.31982,0.5c0,0.5,0.61963,0.61914,1.3291,0.72949
		C94.02637,37.13379,95.18604,37.27441,95.18604,38.34375z M94.49609,38.40332c0-0.59961-0.7793-0.68945-1.59912-0.81934
		c-0.21973-0.03027-0.44971-0.07031-0.65967-0.12012l-0.66943,0.64941c-0.01025,0.05078-0.01025,0.07031-0.01025,0.09082
		c0,0.69922,0.70996,0.91895,1.54932,0.91895C93.97656,39.12305,94.49609,38.88281,94.49609,38.40332z M91.84766,34.30566
		c0,0.63965,0.45996,1.12988,1.19922,1.12988c0.73975,0,1.17969-0.48047,1.17969-1.12988c0-0.67969-0.45996-1.14941-1.16943-1.14941
		C92.35742,33.15625,91.84766,33.62598,91.84766,34.30566z"/>
	<path d="M100.48584,34.56543v3.01855h-0.68945v-2.84863c0-1.06934-0.33984-1.54883-1.07959-1.54883
		c-0.93945,0-1.46924,0.76953-1.46924,2.12891v2.26855h-0.68945v-6.96582h0.68945v2.75781
		c0.31982-0.49902,0.91943-0.79883,1.62891-0.79883C99.93604,32.57715,100.48584,33.25684,100.48584,34.56543z"/>
	<path d="M106.08545,35.30566h-3.60791c0.02002,1.0791,0.61963,1.72852,1.58936,1.72852c0.53955,0,0.96924-0.13965,1.41895-0.61914
		l0.47998,0.41895c-0.57959,0.61035-1.14941,0.83008-1.90918,0.83008c-1.49902,0-2.26855-1.11914-2.26855-2.51855
		c0-1.38965,0.75977-2.56836,2.18896-2.56836c1.50879,0,2.13867,1.17871,2.13867,2.29785
		C106.11572,35.01562,106.10547,35.18555,106.08545,35.30566z M102.47754,34.72559h2.97852
		c0-0.02051-0.01025-0.07031-0.01025-0.16016c-0.0498-0.7998-0.55957-1.40918-1.46875-1.40918
		C103.0874,33.15625,102.5376,33.85645,102.47754,34.72559z"/>
	<path d="M111.06592,33.20605l-3.2085,3.78809h3.18848v0.58984h-4.09814v-0.5l3.27832-3.83789h-3.1084v-0.58984h3.94824V33.20605z"
		/>
	<path d="M115.93604,33.20605l-3.2085,3.78809h3.18848v0.58984h-4.09814v-0.5l3.27832-3.83789h-3.1084v-0.58984h3.94824V33.20605z"
		/>
	<path d="M120.91553,34.51562v3.06836h-0.62988l-0.04004-0.75977c-0.38965,0.5498-0.98926,0.83984-1.76904,0.83984
		c-1.06934,0-1.69873-0.55957-1.69873-1.50977c0-0.49902,0.19971-0.87891,0.55957-1.09863
		c0.37988-0.21973,0.90967-0.31055,1.87891-0.31055h1.00928v-0.22949c0-0.85938-0.44971-1.3291-1.2793-1.3291
		c-0.61963,0-1.09912,0.26953-1.49902,0.81934l-0.49951-0.41992c0.5293-0.68945,1.16895-1.00879,2.00879-1.00879
		C120.1958,32.57715,120.91553,33.28613,120.91553,34.51562z M120.22559,35.375v-0.06934h-0.94922
		c-0.90967,0-1.29932,0.05957-1.53906,0.24902c-0.18018,0.14062-0.27002,0.36035-0.27002,0.63965
		c0,0.5498,0.46973,0.90039,1.20947,0.90039C119.62598,37.09473,120.22559,36.4248,120.22559,35.375z"/>
</g>
<g enable-background="new    ">
	<path d="M2.9585,50.53418c-0.25977,0.08008-0.52002,0.12988-0.74951,0.12988c-0.65967,0-1.13965-0.37012-1.13965-1.23926v-3.18848
		H0.25v-0.58008h0.81934v-1.37891l0.68945-0.51953v1.89844h1.18945v0.58008H1.75879v3.09863
		c0,0.47949,0.22021,0.69922,0.60986,0.69922c0.16992,0,0.35986-0.04004,0.57959-0.10938L2.9585,50.53418z"/>
	<path d="M3.79004,48.11523c0-1.45898,0.94922-2.53809,2.3584-2.53809c1.39941,0,2.36865,1.0791,2.36865,2.53809
		c0,1.44922-0.95947,2.54883-2.36865,2.54883S3.79004,49.57422,3.79004,48.11523z M7.82764,48.11523
		c0-1.11914-0.62988-1.92871-1.6792-1.92871c-1.05957,0-1.66895,0.81934-1.66895,1.92871c0,1.11914,0.61963,1.93945,1.66895,1.93945
		C7.20801,50.05469,7.82764,49.21484,7.82764,48.11523z"/>
	<path d="M11.90869,50.53418c-0.25977,0.08008-0.52002,0.12988-0.74951,0.12988c-0.65967,0-1.13965-0.37012-1.13965-1.23926
		v-3.18848H9.2002v-0.58008h0.81934v-1.37891l0.68945-0.51953v1.89844h1.18945v0.58008h-1.18945v3.09863
		c0,0.47949,0.22021,0.69922,0.60986,0.69922c0.16992,0,0.35986-0.04004,0.57959-0.10938L11.90869,50.53418z"/>
	<path d="M16.8877,47.51562v3.06836h-0.62988l-0.04004-0.75977c-0.38965,0.5498-0.98926,0.83984-1.76904,0.83984
		c-1.06934,0-1.69873-0.55957-1.69873-1.50977c0-0.49902,0.19971-0.87891,0.55957-1.09863
		c0.37988-0.21973,0.90967-0.31055,1.87891-0.31055h1.00928v-0.22949c0-0.85938-0.44971-1.3291-1.2793-1.3291
		c-0.61963,0-1.09912,0.26953-1.49902,0.81934l-0.49951-0.41992c0.5293-0.68945,1.16895-1.00879,2.00879-1.00879
		C16.16797,45.57715,16.8877,46.28613,16.8877,47.51562z M16.19775,48.375v-0.06934h-0.94922
		c-0.90967,0-1.29932,0.05957-1.53906,0.24902c-0.18018,0.14062-0.27002,0.36035-0.27002,0.63965
		c0,0.5498,0.46973,0.90039,1.20947,0.90039C15.59814,50.09473,16.19775,49.4248,16.19775,48.375z"/>
	<path d="M18.52979,49.51465v-5.89648h0.68945v5.85645c0,0.33984,0.12012,0.55957,0.44971,0.55957
		c0.1499,0,0.31982-0.04004,0.46973-0.08984l0.01025,0.58984c-0.20996,0.06934-0.45996,0.12988-0.67969,0.12988
		C18.89941,50.66406,18.52979,50.28418,18.52979,49.51465z"/>
	<path d="M25.16699,48.30566h-3.60791c0.02002,1.0791,0.61963,1.72852,1.58936,1.72852c0.53955,0,0.96924-0.13965,1.41895-0.61914
		l0.47998,0.41895c-0.57959,0.61035-1.14941,0.83008-1.90918,0.83008c-1.49902,0-2.26855-1.11914-2.26855-2.51855
		c0-1.38965,0.75977-2.56836,2.18896-2.56836c1.50879,0,2.13867,1.17871,2.13867,2.29785
		C25.19727,48.01562,25.18701,48.18555,25.16699,48.30566z M21.55908,47.72559h2.97852c0-0.02051-0.01025-0.07031-0.01025-0.16016
		c-0.0498-0.7998-0.55957-1.40918-1.46875-1.40918C22.16895,46.15625,21.61914,46.85645,21.55908,47.72559z"/>
	<path d="M33.43701,43.61816v6.96582h-0.68994V49.9248c-0.35938,0.45898-0.90918,0.73926-1.62891,0.73926
		c-1.43896,0-2.18896-1.0791-2.18896-2.54883c0-1.53906,0.81982-2.54883,2.18896-2.54883c0.69971,0,1.25928,0.27051,1.62891,0.75
		v-2.69824H33.43701z M32.80713,48.11523c0-1.16895-0.59961-1.93848-1.58887-1.93848c-0.99951,0-1.59912,0.76953-1.59912,1.93848
		c0,1.11914,0.5498,1.93945,1.59912,1.93945C32.25732,50.05469,32.80713,49.23438,32.80713,48.11523z"/>
	<path d="M39.15674,48.30566h-3.60791c0.02002,1.0791,0.61963,1.72852,1.58936,1.72852c0.53955,0,0.96924-0.13965,1.41895-0.61914
		l0.47998,0.41895c-0.57959,0.61035-1.14941,0.83008-1.90918,0.83008c-1.49902,0-2.26855-1.11914-2.26855-2.51855
		c0-1.38965,0.75977-2.56836,2.18896-2.56836c1.50879,0,2.13867,1.17871,2.13867,2.29785
		C39.18701,48.01562,39.17676,48.18555,39.15674,48.30566z M35.54883,47.72559h2.97852c0-0.02051-0.01025-0.07031-0.01025-0.16016
		c-0.0498-0.7998-0.55957-1.40918-1.46875-1.40918C36.15869,46.15625,35.60889,46.85645,35.54883,47.72559z"/>
	<path d="M40.53906,49.51465v-5.89648h0.68945v5.85645c0,0.33984,0.12012,0.55957,0.44971,0.55957
		c0.1499,0,0.31982-0.04004,0.46973-0.08984l0.01025,0.58984c-0.20996,0.06934-0.45996,0.12988-0.67969,0.12988
		C40.90869,50.66406,40.53906,50.28418,40.53906,49.51465z"/>
	<path d="M43.23926,49.51465v-5.89648h0.68945v5.85645c0,0.33984,0.12012,0.55957,0.44971,0.55957
		c0.1499,0,0.31982-0.04004,0.46973-0.08984l0.01025,0.58984c-0.20996,0.06934-0.45996,0.12988-0.67969,0.12988
		C43.60889,50.66406,43.23926,50.28418,43.23926,49.51465z"/>
	<path d="M46.66846,43.61816h0.78955l-1.31934,2.83789h-0.46973L46.66846,43.61816z"/>
	<path d="M47.44922,48.11523c0-1.45898,0.94922-2.53809,2.3584-2.53809c1.39941,0,2.36865,1.0791,2.36865,2.53809
		c0,1.44922-0.95947,2.54883-2.36865,2.54883S47.44922,49.57422,47.44922,48.11523z M51.48682,48.11523
		c0-1.11914-0.62988-1.92871-1.6792-1.92871c-1.05957,0-1.66895,0.81934-1.66895,1.92871c0,1.11914,0.61963,1.93945,1.66895,1.93945
		C50.86719,50.05469,51.48682,49.21484,51.48682,48.11523z"/>
	<path d="M58.07617,48.11523c0,1.46973-0.74951,2.54883-2.18896,2.54883c-0.71924,0-1.26904-0.28027-1.62891-0.73926v2.69824
		h-0.68945v-6.9668h0.68945v0.66016c0.36963-0.47949,0.92969-0.75,1.62891-0.75
		C57.25684,45.56641,58.07617,46.57617,58.07617,48.11523z M57.38672,48.11523c0-1.16895-0.59961-1.93848-1.59912-1.93848
		c-0.98975,0-1.58936,0.76953-1.58936,1.93848c0,1.11914,0.5498,1.93945,1.58936,1.93945
		C56.83691,50.05469,57.38672,49.23438,57.38672,48.11523z"/>
	<path d="M63.40625,48.30566h-3.60791c0.02002,1.0791,0.61963,1.72852,1.58936,1.72852c0.53955,0,0.96924-0.13965,1.41895-0.61914
		l0.47998,0.41895c-0.57959,0.61035-1.14941,0.83008-1.90918,0.83008c-1.49902,0-2.26855-1.11914-2.26855-2.51855
		c0-1.38965,0.75977-2.56836,2.18896-2.56836c1.50879,0,2.13867,1.17871,2.13867,2.29785
		C63.43652,48.01562,63.42627,48.18555,63.40625,48.30566z M59.79834,47.72559h2.97852c0-0.02051-0.01025-0.07031-0.01025-0.16016
		c-0.0498-0.7998-0.55957-1.40918-1.46875-1.40918C60.4082,46.15625,59.8584,46.85645,59.79834,47.72559z"/>
	<path d="M67.82715,45.78711l-0.33984,0.55957c-0.22949-0.10059-0.43945-0.15039-0.64941-0.15039
		c-0.75977,0-1.31934,0.56934-1.31934,1.63965v2.74805H64.8291v-4.92773h0.68945v0.74023
		c0.35986-0.64941,0.95947-0.81934,1.45898-0.81934C67.27734,45.57715,67.55762,45.63672,67.82715,45.78711z"/>
	<path d="M72.5166,47.51562v3.06836h-0.62988l-0.04004-0.75977c-0.38965,0.5498-0.98926,0.83984-1.76904,0.83984
		c-1.06934,0-1.69873-0.55957-1.69873-1.50977c0-0.49902,0.19971-0.87891,0.55957-1.09863
		c0.37988-0.21973,0.90967-0.31055,1.87891-0.31055h1.00928v-0.22949c0-0.85938-0.44971-1.3291-1.2793-1.3291
		c-0.61963,0-1.09912,0.26953-1.49902,0.81934l-0.49951-0.41992c0.5293-0.68945,1.16895-1.00879,2.00879-1.00879
		C71.79688,45.57715,72.5166,46.28613,72.5166,47.51562z M71.82666,48.375v-0.06934h-0.94922
		c-0.90967,0-1.29932,0.05957-1.53906,0.24902c-0.18018,0.14062-0.27002,0.36035-0.27002,0.63965
		c0,0.5498,0.46973,0.90039,1.20947,0.90039C71.22705,50.09473,71.82666,49.4248,71.82666,48.375z"/>
	<path d="M74.77832,49.29492h0.88965l-1.31934,2.83789h-0.46973L74.77832,49.29492z M74.79834,45.87695h0.89941v1.09863h-0.89941
		V45.87695z"/>
</g>
<g enable-background="new    ">
	<path d="M5.41699,61.11523c0,1.46973-0.74951,2.54883-2.18896,2.54883c-0.71924,0-1.26904-0.28027-1.62891-0.73926v0.65918H0.90967
		v-6.96582h0.68945v2.69824c0.36963-0.47949,0.92969-0.75,1.62891-0.75C4.59766,58.56641,5.41699,59.57617,5.41699,61.11523z
		 M4.72754,61.11523c0-1.16895-0.59961-1.93848-1.59912-1.93848c-0.98975,0-1.58936,0.76953-1.58936,1.93848
		c0,1.11914,0.5498,1.93945,1.58936,1.93945C4.17773,63.05469,4.72754,62.23438,4.72754,61.11523z"/>
	<path d="M7.18945,62.48438h0.89941v1.09961H7.18945V62.48438z"/>
	<path d="M15.47949,60.08594c0-2.23926,1.20947-3.56836,3.21826-3.56836c1.39893,0,2.37842,0.63965,2.86816,1.90918l-0.65967,0.25
		c-0.36963-1-1.10938-1.47949-2.2085-1.47949c-1.59912,0-2.50879,1.04004-2.50879,2.88867c0,1.85938,0.89941,2.91797,2.4585,2.91797
		c1.08984,0,1.86914-0.50977,2.25879-1.50879l0.67969,0.25c-0.51953,1.26953-1.54883,1.93848-2.93848,1.93848
		C16.66895,63.68359,15.47949,62.33496,15.47949,60.08594z"/>
	<path d="M22.36914,61.11523c0-1.45898,0.94971-2.53809,2.35889-2.53809c1.39941,0,2.36865,1.0791,2.36865,2.53809
		c0,1.44922-0.95947,2.54883-2.36865,2.54883S22.36914,62.57422,22.36914,61.11523z M26.40723,61.11523
		c0-1.11914-0.62988-1.92871-1.6792-1.92871c-1.05957,0-1.66895,0.81934-1.66895,1.92871c0,1.11914,0.61963,1.93945,1.66895,1.93945
		C25.7876,63.05469,26.40723,62.21484,26.40723,61.11523z"/>
	<path d="M35.24561,60.50586v3.07812h-0.68994v-2.88867c0-0.41992,0-1.50879-1.0791-1.50879
		c-0.99951,0-1.26953,0.91895-1.26953,2.02832v2.36914h-0.68945v-2.84863c0-0.81934-0.25-1.54883-1.10938-1.54883
		c-0.95947,0-1.22949,0.90918-1.22949,2.02832v2.36914h-0.68945L28.479,58.65625h0.66992v0.60059
		c0.30957-0.49023,0.80957-0.67969,1.35889-0.67969c0.68994,0,1.19971,0.2998,1.44922,0.94922
		c0.31982-0.62988,0.86963-0.94922,1.61914-0.94922C34.75586,58.57715,35.24561,59.35645,35.24561,60.50586z"/>
	<path d="M41.45654,61.11523c0,1.46973-0.74951,2.54883-2.18896,2.54883c-0.71924,0-1.26904-0.28027-1.62891-0.73926v0.65918
		h-0.68945v-6.96582h0.68945v2.69824c0.36963-0.47949,0.92969-0.75,1.62891-0.75
		C40.63721,58.56641,41.45654,59.57617,41.45654,61.11523z M40.76709,61.11523c0-1.16895-0.59961-1.93848-1.59912-1.93848
		c-0.98975,0-1.58936,0.76953-1.58936,1.93848c0,1.11914,0.5498,1.93945,1.58936,1.93945
		C40.21729,63.05469,40.76709,62.23438,40.76709,61.11523z"/>
	<path d="M42.8291,56.61816h0.79932v1.01953H42.8291V56.61816z M42.88916,58.65625h0.68945v4.92773h-0.68945V58.65625z"/>
	<path d="M49.32666,60.56543v3.01855h-0.68945v-2.84863c0-1.05957-0.33984-1.54883-1.07959-1.54883
		c-0.92969,0-1.46924,0.7998-1.46924,2.18848v2.20898h-0.68945v-4.92773h0.68945v0.71973
		c0.31982-0.49902,0.91943-0.79883,1.62891-0.79883C48.77686,58.57715,49.32666,59.25684,49.32666,60.56543z"/>
	<path d="M54.69678,60.51562v3.06836h-0.62988l-0.04004-0.75977c-0.38965,0.5498-0.98926,0.83984-1.76904,0.83984
		c-1.06934,0-1.69873-0.55957-1.69873-1.50977c0-0.49902,0.19971-0.87891,0.55957-1.09863
		c0.37988-0.21973,0.90967-0.31055,1.87891-0.31055h1.00928v-0.22949c0-0.85938-0.44971-1.3291-1.2793-1.3291
		c-0.61963,0-1.09912,0.26953-1.49902,0.81934L50.729,59.58594c0.5293-0.68945,1.16895-1.00879,2.00879-1.00879
		C53.97705,58.57715,54.69678,59.28613,54.69678,60.51562z M54.00684,61.375v-0.06934h-0.94922
		c-0.90967,0-1.29932,0.05957-1.53906,0.24902c-0.18018,0.14062-0.27002,0.36035-0.27002,0.63965
		c0,0.5498,0.46973,0.90039,1.20947,0.90039C53.40723,63.09473,54.00684,62.4248,54.00684,61.375z"/>
	<path d="M59.93701,59.20605l-3.2085,3.78809h3.18848v0.58984h-4.09814v-0.5l3.27832-3.83789h-3.1084v-0.58984h3.94824V59.20605z"/>
	<path d="M61.18896,56.61816h0.79932v1.01953h-0.79932V56.61816z M61.24902,58.65625h0.68945v4.92773h-0.68945V58.65625z"/>
	<path d="M63.3291,61.11523c0-1.45898,0.94922-2.53809,2.3584-2.53809c1.39941,0,2.36865,1.0791,2.36865,2.53809
		c0,1.44922-0.95947,2.54883-2.36865,2.54883S63.3291,62.57422,63.3291,61.11523z M67.3667,61.11523
		c0-1.11914-0.62988-1.92871-1.6792-1.92871c-1.05957,0-1.66895,0.81934-1.66895,1.92871c0,1.11914,0.61963,1.93945,1.66895,1.93945
		C66.74707,63.05469,67.3667,62.21484,67.3667,61.11523z"/>
	<path d="M73.37646,60.56543v3.01855h-0.68945v-2.84863c0-1.05957-0.33984-1.54883-1.07959-1.54883
		c-0.92969,0-1.46924,0.7998-1.46924,2.18848v2.20898h-0.68945v-4.92773h0.68945v0.71973
		c0.31982-0.49902,0.91943-0.79883,1.62891-0.79883C72.82666,58.57715,73.37646,59.25684,73.37646,60.56543z"/>
	<path d="M75.01855,56.61816h0.79932v1.01953h-0.79932V56.61816z M75.07861,58.65625h0.68945v4.92773h-0.68945V58.65625z"/>
	<path d="M84.43604,56.61816v6.96582h-0.68994V62.9248c-0.35938,0.45898-0.90918,0.73926-1.62891,0.73926
		c-1.43896,0-2.18896-1.0791-2.18896-2.54883c0-1.53906,0.81982-2.54883,2.18896-2.54883c0.69971,0,1.25928,0.27051,1.62891,0.75
		v-2.69824H84.43604z M83.80615,61.11523c0-1.16895-0.59961-1.93848-1.58887-1.93848c-0.99951,0-1.59912,0.76953-1.59912,1.93848
		c0,1.11914,0.5498,1.93945,1.59912,1.93945C83.25635,63.05469,83.80615,62.23438,83.80615,61.11523z"/>
	<path d="M90.15576,61.30566h-3.60791c0.02002,1.0791,0.61963,1.72852,1.58936,1.72852c0.53955,0,0.96924-0.13965,1.41895-0.61914
		l0.47998,0.41895c-0.57959,0.61035-1.14941,0.83008-1.90918,0.83008c-1.49902,0-2.26855-1.11914-2.26855-2.51855
		c0-1.38965,0.75977-2.56836,2.18896-2.56836c1.50879,0,2.13867,1.17871,2.13867,2.29785
		C90.18604,61.01562,90.17578,61.18555,90.15576,61.30566z M86.54785,60.72559h2.97852c0-0.02051-0.01025-0.07031-0.01025-0.16016
		c-0.0498-0.7998-0.55957-1.40918-1.46875-1.40918C87.15771,59.15625,86.60791,59.85645,86.54785,60.72559z"/>
	<path d="M91.53809,62.51465v-5.89648h0.68945v5.85645c0,0.33984,0.12012,0.55957,0.44971,0.55957
		c0.1499,0,0.31982-0.04004,0.46973-0.08984l0.01025,0.58984c-0.20996,0.06934-0.45996,0.12988-0.67969,0.12988
		C91.90771,63.66406,91.53809,63.28418,91.53809,62.51465z"/>
	<path d="M94.23828,62.51465v-5.89648h0.68945v5.85645c0,0.33984,0.12012,0.55957,0.44971,0.55957
		c0.1499,0,0.31982-0.04004,0.46973-0.08984l0.01025,0.58984c-0.20996,0.06934-0.45996,0.12988-0.67969,0.12988
		C94.60791,63.66406,94.23828,63.28418,94.23828,62.51465z"/>
	<path d="M100.87549,61.30566h-3.60791c0.02002,1.0791,0.61963,1.72852,1.58936,1.72852c0.53955,0,0.96924-0.13965,1.41895-0.61914
		l0.47998,0.41895c-0.57959,0.61035-1.14941,0.83008-1.90918,0.83008c-1.49902,0-2.26855-1.11914-2.26855-2.51855
		c0-1.38965,0.75977-2.56836,2.18896-2.56836c1.50879,0,2.13867,1.17871,2.13867,2.29785
		C100.90576,61.01562,100.89551,61.18555,100.87549,61.30566z M97.26758,60.72559h2.97852
		c0-0.02051-0.01025-0.07031-0.01025-0.16016c-0.0498-0.7998-0.55957-1.40918-1.46875-1.40918
		C97.87744,59.15625,97.32764,59.85645,97.26758,60.72559z"/>
	<path d="M104.61768,61.13574c0-1.2998,0.72998-2.55859,2.21924-2.55859c0.87939,0,1.60889,0.43945,1.99854,1.3584l-0.65967,0.26074
		c-0.22949-0.62988-0.71924-1.00977-1.33887-1.00977c-1.0498,0-1.51953,0.93945-1.51953,1.94922
		c0,1.00879,0.46973,1.91895,1.5293,1.91895c0.61963,0,1.10938-0.37012,1.29932-1l0.63965,0.24023
		c-0.33008,0.89941-1.04932,1.36914-1.93896,1.36914C105.41748,63.66406,104.61768,62.50488,104.61768,61.13574z"/>
	<path d="M113.72607,60.51562v3.06836h-0.62988l-0.04004-0.75977c-0.38965,0.5498-0.98926,0.83984-1.76904,0.83984
		c-1.06934,0-1.69873-0.55957-1.69873-1.50977c0-0.49902,0.19971-0.87891,0.55957-1.09863
		c0.37988-0.21973,0.90967-0.31055,1.87891-0.31055h1.00928v-0.22949c0-0.85938-0.44971-1.3291-1.2793-1.3291
		c-0.61963,0-1.09912,0.26953-1.49902,0.81934l-0.49951-0.41992c0.5293-0.68945,1.16895-1.00879,2.00879-1.00879
		C113.00635,58.57715,113.72607,59.28613,113.72607,60.51562z M113.03613,61.375v-0.06934h-0.94922
		c-0.90967,0-1.29932,0.05957-1.53906,0.24902c-0.18018,0.14062-0.27002,0.36035-0.27002,0.63965
		c0,0.5498,0.46973,0.90039,1.20947,0.90039C112.43652,63.09473,113.03613,62.4248,113.03613,61.375z"/>
	<path d="M117.45654,63.53418c-0.25977,0.08008-0.52002,0.12988-0.74951,0.12988c-0.65967,0-1.13965-0.37012-1.13965-1.23926
		v-3.18848h-0.81934v-0.58008h0.81934v-1.37891l0.68945-0.51953v1.89844h1.18945v0.58008h-1.18945v3.09863
		c0,0.47949,0.22021,0.69922,0.60986,0.69922c0.16992,0,0.35986-0.04004,0.57959-0.10938L117.45654,63.53418z"/>
	<path d="M122.61572,61.30566h-3.60791c0.02002,1.0791,0.61963,1.72852,1.58936,1.72852c0.53955,0,0.96924-0.13965,1.41895-0.61914
		l0.47998,0.41895c-0.57959,0.61035-1.14941,0.83008-1.90918,0.83008c-1.49902,0-2.26855-1.11914-2.26855-2.51855
		c0-1.38965,0.75977-2.56836,2.18896-2.56836c1.50879,0,2.13867,1.17871,2.13867,2.29785
		C122.646,61.01562,122.63574,61.18555,122.61572,61.30566z M119.00781,60.72559h2.97852c0-0.02051-0.01025-0.07031-0.01025-0.16016
		c-0.0498-0.7998-0.55957-1.40918-1.46875-1.40918C119.61768,59.15625,119.06787,59.85645,119.00781,60.72559z"/>
	<path d="M127.87598,64.34375c0,0.92969-0.86963,1.35938-2.10889,1.35938c-1.36914,0-2.19873-0.54004-2.19873-1.51953
		c0-0.09961,0.00977-0.16016,0.02002-0.21973l0.79932-0.67969c-0.37988-0.16992-0.63965-0.4502-0.63965-0.93945
		c0-0.39941,0.17969-0.69922,0.52979-0.93945c-0.25977-0.2998-0.41992-0.67969-0.41992-1.11914c0-1,0.81982-1.70898,1.87891-1.70898
		c0.47998,0,0.90967,0.14941,1.22949,0.39941l0.67969-0.58984l0.35986,0.4502l-0.66992,0.55957
		c0.16992,0.26953,0.27002,0.5791,0.27002,0.92969c0,1.00879-0.81934,1.67871-1.85889,1.67871
		c-0.37988,0-0.72949-0.08984-1.01953-0.25c-0.19971,0.11035-0.31982,0.29004-0.31982,0.5c0,0.5,0.61963,0.61914,1.3291,0.72949
		C126.71631,63.13379,127.87598,63.27441,127.87598,64.34375z M127.18604,64.40332c0-0.59961-0.7793-0.68945-1.59912-0.81934
		c-0.21973-0.03027-0.44971-0.07031-0.65967-0.12012l-0.66943,0.64941c-0.00977,0.05078-0.00977,0.07031-0.00977,0.09082
		c0,0.69922,0.70947,0.91895,1.54883,0.91895C126.6665,65.12305,127.18604,64.88281,127.18604,64.40332z M124.5376,60.30566
		c0,0.63965,0.45996,1.12988,1.19922,1.12988c0.73975,0,1.17969-0.48047,1.17969-1.12988c0-0.67969-0.45996-1.14941-1.16943-1.14941
		C125.04736,59.15625,124.5376,59.62598,124.5376,60.30566z"/>
	<path d="M128.61816,61.11523c0-1.45898,0.94971-2.53809,2.35889-2.53809c1.39941,0,2.36865,1.0791,2.36865,2.53809
		c0,1.44922-0.95947,2.54883-2.36865,2.54883S128.61816,62.57422,128.61816,61.11523z M132.65625,61.11523
		c0-1.11914-0.62988-1.92871-1.6792-1.92871c-1.05957,0-1.66895,0.81934-1.66895,1.92871c0,1.11914,0.61963,1.93945,1.66895,1.93945
		C132.03662,63.05469,132.65625,62.21484,132.65625,61.11523z"/>
	<path d="M137.73584,58.78711l-0.33984,0.55957c-0.22949-0.10059-0.43945-0.15039-0.64941-0.15039
		c-0.75977,0-1.31934,0.56934-1.31934,1.63965v2.74805h-0.68945v-4.92773h0.68945v0.74023
		c0.35986-0.64941,0.95947-0.81934,1.45898-0.81934C137.18652,58.57715,137.46631,58.63672,137.73584,58.78711z"/>
	<path d="M138.69775,56.61816h0.79932v1.01953h-0.79932V56.61816z M138.75781,58.65625h0.68945v4.92773h-0.68945V58.65625z"/>
	<path d="M145.16504,61.30566h-3.60791c0.02002,1.0791,0.61963,1.72852,1.58936,1.72852c0.53955,0,0.96924-0.13965,1.41895-0.61914
		l0.47998,0.41895c-0.57959,0.61035-1.14941,0.83008-1.90918,0.83008c-1.49902,0-2.26855-1.11914-2.26855-2.51855
		c0-1.38965,0.75977-2.56836,2.18896-2.56836c1.50879,0,2.13867,1.17871,2.13867,2.29785
		C145.19531,61.01562,145.18506,61.18555,145.16504,61.30566z M141.55713,60.72559h2.97852
		c0-0.02051-0.01025-0.07031-0.01025-0.16016c-0.0498-0.7998-0.55957-1.40918-1.46875-1.40918
		C142.16699,59.15625,141.61719,59.85645,141.55713,60.72559z"/>
</g>
<g enable-background="new    ">
	<path d="M4.80713,74.30566H1.19922c0.02002,1.0791,0.61963,1.72852,1.58936,1.72852c0.53955,0,0.96924-0.13965,1.41895-0.61914
		l0.47998,0.41895c-0.57959,0.61035-1.14941,0.83008-1.90918,0.83008c-1.49902,0-2.26855-1.11914-2.26855-2.51855
		c0-1.38965,0.75977-2.56836,2.18896-2.56836c1.50879,0,2.13867,1.17871,2.13867,2.29785
		C4.8374,74.01562,4.82715,74.18555,4.80713,74.30566z M1.19922,73.72559h2.97852c0-0.02051-0.01025-0.07031-0.01025-0.16016
		c-0.0498-0.7998-0.55957-1.40918-1.46875-1.40918C1.80908,72.15625,1.25928,72.85645,1.19922,73.72559z"/>
	<path d="M13.07715,69.61816v6.96582h-0.68994V75.9248c-0.35938,0.45898-0.90918,0.73926-1.62891,0.73926
		c-1.43896,0-2.18896-1.0791-2.18896-2.54883c0-1.53906,0.81982-2.54883,2.18896-2.54883c0.69971,0,1.25928,0.27051,1.62891,0.75
		v-2.69824H13.07715z M12.44727,74.11523c0-1.16895-0.59961-1.93848-1.58887-1.93848c-0.99951,0-1.59912,0.76953-1.59912,1.93848
		c0,1.11914,0.54932,1.93945,1.59912,1.93945C11.89746,76.05469,12.44727,75.23438,12.44727,74.11523z"/>
	<path d="M18.79688,74.30566h-3.60791c0.02002,1.0791,0.61963,1.72852,1.58936,1.72852c0.53955,0,0.96924-0.13965,1.41895-0.61914
		l0.47998,0.41895c-0.57959,0.61035-1.14941,0.83008-1.90918,0.83008c-1.49902,0-2.26855-1.11914-2.26855-2.51855
		c0-1.38965,0.75977-2.56836,2.18896-2.56836c1.50879,0,2.13867,1.17871,2.13867,2.29785
		C18.82715,74.01562,18.81689,74.18555,18.79688,74.30566z M15.18896,73.72559h2.97852c0-0.02051-0.01025-0.07031-0.01025-0.16016
		c-0.0498-0.7998-0.55957-1.40918-1.46875-1.40918C15.79883,72.15625,15.24902,72.85645,15.18896,73.72559z"/>
	<path d="M24.05762,77.34375c0,0.92969-0.86963,1.35938-2.10889,1.35938c-1.36914,0-2.19873-0.54004-2.19873-1.51953
		c0-0.09961,0.00977-0.16016,0.02002-0.21973l0.79932-0.67969c-0.37988-0.16992-0.63965-0.4502-0.63965-0.93945
		c0-0.39941,0.17969-0.69922,0.52979-0.93945c-0.25977-0.2998-0.41992-0.67969-0.41992-1.11914c0-1,0.81982-1.70898,1.87891-1.70898
		c0.47998,0,0.90967,0.14941,1.22949,0.39941l0.67969-0.58984l0.35986,0.4502l-0.66992,0.55957
		c0.16992,0.26953,0.27002,0.5791,0.27002,0.92969c0,1.00879-0.81934,1.67871-1.85889,1.67871
		c-0.37988,0-0.72949-0.08984-1.01953-0.25c-0.19971,0.11035-0.31982,0.29004-0.31982,0.5c0,0.5,0.61963,0.61914,1.3291,0.72949
		C22.89795,76.13379,24.05762,76.27441,24.05762,77.34375z M23.36768,77.40332c0-0.59961-0.7793-0.68945-1.59912-0.81934
		c-0.21973-0.03027-0.44971-0.07031-0.65967-0.12012l-0.66943,0.64941c-0.00977,0.05078-0.00977,0.07031-0.00977,0.09082
		c0,0.69922,0.70947,0.91895,1.54883,0.91895C22.84814,78.12305,23.36768,77.88281,23.36768,77.40332z M20.71924,73.30566
		c0,0.63965,0.45996,1.12988,1.19922,1.12988c0.73975,0,1.17969-0.48047,1.17969-1.12988c0-0.67969-0.45996-1.14941-1.16943-1.14941
		C21.229,72.15625,20.71924,72.62598,20.71924,73.30566z"/>
	<path d="M25.38965,75.51465v-5.89648h0.68945v5.85645c0,0.33984,0.12012,0.55957,0.44971,0.55957
		c0.1499,0,0.31982-0.04004,0.46973-0.08984l0.01025,0.58984c-0.20996,0.06934-0.45996,0.12988-0.67969,0.12988
		C25.75928,76.66406,25.38965,76.28418,25.38965,75.51465z"/>
	<path d="M28.06934,69.61816h0.79932v1.01953h-0.79932V69.61816z M28.12939,71.65625h0.68945v4.92773h-0.68945V71.65625z"/>
	<path d="M32.83936,75.375l0.57959-0.25977c0.17969,0.50977,0.65967,0.93945,1.4292,0.93945
		c0.66943,0,1.09961-0.33008,1.09961-0.84961c0-1.30957-2.83887-0.49023-2.83887-2.23926c0-0.85938,0.69971-1.38867,1.68945-1.38867
		c0.78955,0,1.4292,0.3291,1.76904,1.0293l-0.5498,0.2998c-0.23975-0.44043-0.62988-0.71973-1.23926-0.71973
		c-0.60986,0-0.99951,0.25-0.99951,0.67969c0,1.16895,2.84814,0.42969,2.84814,2.29883c0,0.99902-0.81934,1.49902-1.76855,1.49902
		C33.88867,76.66406,33.09912,76.16406,32.83936,75.375z"/>
	<path d="M40.07812,76.53418c-0.25977,0.08008-0.52002,0.12988-0.74951,0.12988c-0.65967,0-1.13965-0.37012-1.13965-1.23926
		v-3.18848h-0.81934v-0.58008h0.81934v-1.37891l0.68994-0.51953v1.89844h1.18896v0.58008h-1.18896v3.09863
		c0,0.47949,0.21973,0.69922,0.60938,0.69922c0.16992,0,0.35986-0.04004,0.57959-0.10938L40.07812,76.53418z"/>
	<path d="M41.3291,69.61816h0.79932v1.01953H41.3291V69.61816z M41.38916,71.65625h0.68945v4.92773h-0.68945V71.65625z"/>
	<path d="M43.85889,75.51465v-5.89648h0.68945v5.85645c0,0.33984,0.12012,0.55957,0.44971,0.55957
		c0.1499,0,0.31982-0.04004,0.46973-0.08984l0.01025,0.58984c-0.20996,0.06934-0.45996,0.12988-0.67969,0.12988
		C44.22852,76.66406,43.85889,76.28418,43.85889,75.51465z"/>
	<path d="M46.53906,69.61816h0.79932v1.01953h-0.79932V69.61816z M46.59912,71.65625h0.68945v4.92773h-0.68945V71.65625z"/>
	<path d="M55.7666,73.56543v3.01855h-0.68945v-2.84863c0-1.05957-0.33984-1.54883-1.07959-1.54883
		c-0.92969,0-1.46924,0.7998-1.46924,2.18848v2.20898h-0.68945v-4.92773h0.68945v0.71973
		c0.31982-0.49902,0.91943-0.79883,1.62891-0.79883C55.2168,71.57715,55.7666,72.25684,55.7666,73.56543z"/>
	<path d="M61.36621,74.30566H57.7583c0.02002,1.0791,0.61963,1.72852,1.58936,1.72852c0.53955,0,0.96924-0.13965,1.41895-0.61914
		l0.47998,0.41895c-0.57959,0.61035-1.14941,0.83008-1.90918,0.83008c-1.49902,0-2.26855-1.11914-2.26855-2.51855
		c0-1.38965,0.75977-2.56836,2.18896-2.56836c1.50879,0,2.13867,1.17871,2.13867,2.29785
		C61.39648,74.01562,61.38623,74.18555,61.36621,74.30566z M57.7583,73.72559h2.97852c0-0.02051-0.01025-0.07031-0.01025-0.16016
		c-0.0498-0.7998-0.55957-1.40918-1.46875-1.40918C58.36816,72.15625,57.81836,72.85645,57.7583,73.72559z"/>
	<path d="M62.74854,75.51465v-5.89648h0.68945v5.85645c0,0.33984,0.12012,0.55957,0.44971,0.55957
		c0.1499,0,0.31982-0.04004,0.46973-0.08984l0.01025,0.58984c-0.20996,0.06934-0.45996,0.12988-0.67969,0.12988
		C63.11816,76.66406,62.74854,76.28418,62.74854,75.51465z"/>
	<path d="M70.26709,76.53418c-0.25977,0.08008-0.52002,0.12988-0.74951,0.12988c-0.65967,0-1.13965-0.37012-1.13965-1.23926
		v-3.18848h-0.81934v-0.58008h0.81934v-1.37891l0.68945-0.51953v1.89844h1.18945v0.58008h-1.18945v3.09863
		c0,0.47949,0.22021,0.69922,0.60986,0.69922c0.16992,0,0.35986-0.04004,0.57959-0.10938L70.26709,76.53418z"/>
	<path d="M75.42627,74.30566h-3.60791c0.02002,1.0791,0.61963,1.72852,1.58936,1.72852c0.53955,0,0.96924-0.13965,1.41895-0.61914
		l0.47998,0.41895c-0.57959,0.61035-1.14941,0.83008-1.90918,0.83008c-1.49902,0-2.26855-1.11914-2.26855-2.51855
		c0-1.38965,0.75977-2.56836,2.18896-2.56836c1.50879,0,2.13867,1.17871,2.13867,2.29785
		C75.45654,74.01562,75.44629,74.18555,75.42627,74.30566z M71.81836,73.72559h2.97852c0-0.02051-0.01025-0.07031-0.01025-0.16016
		c-0.0498-0.7998-0.55957-1.40918-1.46875-1.40918C72.42822,72.15625,71.87842,72.85645,71.81836,73.72559z"/>
	<path d="M76.31885,75.375l0.57959-0.25977c0.17969,0.50977,0.65967,0.93945,1.4292,0.93945
		c0.66943,0,1.09961-0.33008,1.09961-0.84961c0-1.30957-2.83887-0.49023-2.83887-2.23926c0-0.85938,0.69971-1.38867,1.68945-1.38867
		c0.78955,0,1.4292,0.3291,1.76904,1.0293l-0.5498,0.2998c-0.23975-0.44043-0.62988-0.71973-1.23926-0.71973
		c-0.60986,0-0.99951,0.25-0.99951,0.67969c0,1.16895,2.84814,0.42969,2.84814,2.29883c0,0.99902-0.81934,1.49902-1.76855,1.49902
		C77.36816,76.66406,76.57861,76.16406,76.31885,75.375z"/>
	<path d="M83.55713,76.53418c-0.25977,0.08008-0.52002,0.12988-0.74951,0.12988c-0.65967,0-1.13965-0.37012-1.13965-1.23926
		v-3.18848h-0.81934v-0.58008h0.81934v-1.37891l0.68945-0.51953v1.89844h1.18945v0.58008h-1.18945v3.09863
		c0,0.47949,0.22021,0.69922,0.60986,0.69922c0.16992,0,0.35986-0.04004,0.57959-0.10938L83.55713,76.53418z"/>
	<path d="M84.38867,74.11523c0-1.45898,0.94922-2.53809,2.3584-2.53809c1.39941,0,2.36865,1.0791,2.36865,2.53809
		c0,1.44922-0.95947,2.54883-2.36865,2.54883S84.38867,75.57422,84.38867,74.11523z M88.42627,74.11523
		c0-1.11914-0.62988-1.92871-1.6792-1.92871c-1.05957,0-1.66895,0.81934-1.66895,1.92871c0,1.11914,0.61963,1.93945,1.66895,1.93945
		C87.80664,76.05469,88.42627,75.21484,88.42627,74.11523z"/>
	<path d="M97.35596,69.61816v6.96582h-0.68994V75.9248c-0.35938,0.45898-0.90918,0.73926-1.62891,0.73926
		c-1.43896,0-2.18896-1.0791-2.18896-2.54883c0-1.53906,0.81982-2.54883,2.18896-2.54883c0.69971,0,1.25928,0.27051,1.62891,0.75
		v-2.69824H97.35596z M96.72607,74.11523c0-1.16895-0.59961-1.93848-1.58887-1.93848c-0.99951,0-1.59912,0.76953-1.59912,1.93848
		c0,1.11914,0.5498,1.93945,1.59912,1.93945C96.17627,76.05469,96.72607,75.23438,96.72607,74.11523z"/>
	<path d="M102.93604,71.65625v4.92773h-0.68945v-0.70996c-0.3501,0.53027-0.97949,0.79004-1.62939,0.79004
		c-1.11914,0-1.60889-0.76953-1.60889-1.98926v-3.01855h0.68945v2.84863c0,0.7998,0.14014,1.5498,1.07959,1.5498
		c0.97949,0,1.46924-0.84961,1.46924-2.12891v-2.26953H102.93604z"/>
	<path d="M109.26562,74.11523c0,1.46973-0.74951,2.54883-2.18896,2.54883c-0.71924,0-1.26904-0.28027-1.62891-0.73926v0.65918
		h-0.68945v-6.96582h0.68945v2.69824c0.36963-0.47949,0.92969-0.75,1.62891-0.75
		C108.44629,71.56641,109.26562,72.57617,109.26562,74.11523z M108.57617,74.11523c0-1.16895-0.59961-1.93848-1.59912-1.93848
		c-0.98975,0-1.58936,0.76953-1.58936,1.93848c0,1.11914,0.5498,1.93945,1.58936,1.93945
		C108.02637,76.05469,108.57617,75.23438,108.57617,74.11523z"/>
	<path d="M110.63818,69.61816h0.79932v1.01953h-0.79932V69.61816z M110.69824,71.65625h0.68945v4.92773h-0.68945V71.65625z"/>
	<path d="M115.25684,76.53418c-0.25977,0.08008-0.52002,0.12988-0.74951,0.12988c-0.65967,0-1.13965-0.37012-1.13965-1.23926
		v-3.18848h-0.81934v-0.58008h0.81934v-1.37891l0.68994-0.51953v1.89844h1.18896v0.58008h-1.18896v3.09863
		c0,0.47949,0.21973,0.69922,0.60938,0.69922c0.16992,0,0.35986-0.04004,0.57959-0.10938L115.25684,76.53418z"/>
	<path d="M120.23584,73.51562v3.06836h-0.62988l-0.04004-0.75977c-0.38965,0.5498-0.98926,0.83984-1.76904,0.83984
		c-1.06934,0-1.69873-0.55957-1.69873-1.50977c0-0.49902,0.19971-0.87891,0.55957-1.09863
		c0.37988-0.21973,0.90967-0.31055,1.87891-0.31055h1.00928v-0.22949c0-0.85938-0.44971-1.3291-1.2793-1.3291
		c-0.61963,0-1.09912,0.26953-1.49902,0.81934l-0.49951-0.41992c0.5293-0.68945,1.16895-1.00879,2.00879-1.00879
		C119.51611,71.57715,120.23584,72.28613,120.23584,73.51562z M119.5459,74.375v-0.06934h-0.94922
		c-0.90967,0-1.29932,0.05957-1.53906,0.24902c-0.18018,0.14062-0.27002,0.36035-0.27002,0.63965
		c0,0.5498,0.46973,0.90039,1.20947,0.90039C118.94629,76.09473,119.5459,75.4248,119.5459,74.375z"/>
	<path d="M123.9668,76.53418c-0.25977,0.08008-0.52002,0.12988-0.74951,0.12988c-0.65967,0-1.13965-0.37012-1.13965-1.23926
		v-3.18848h-0.81934v-0.58008h0.81934v-1.37891l0.68994-0.51953v1.89844h1.18896v0.58008h-1.18896v3.09863
		c0,0.47949,0.21973,0.69922,0.60938,0.69922c0.16992,0,0.35986-0.04004,0.57959-0.10938L123.9668,76.53418z"/>
	<path d="M125.21777,69.61816h0.79932v1.01953h-0.79932V69.61816z M125.27783,71.65625h0.68945v4.92773h-0.68945V71.65625z"/>
	<path d="M127.07812,71.65625h0.75l1.54883,4.04785l1.55908-4.04785h0.75977l-2.01904,4.92773h-0.58936L127.07812,71.65625z"/>
	<path d="M132.22754,74.11523c0-1.45898,0.94971-2.53809,2.35889-2.53809c1.39941,0,2.36865,1.0791,2.36865,2.53809
		c0,1.44922-0.95947,2.54883-2.36865,2.54883S132.22754,75.57422,132.22754,74.11523z M136.26562,74.11523
		c0-1.11914-0.62988-1.92871-1.6792-1.92871c-1.05957,0-1.66895,0.81934-1.66895,1.92871c0,1.11914,0.61963,1.93945,1.66895,1.93945
		C135.646,76.05469,136.26562,75.21484,136.26562,74.11523z"/>
</g>
</svg>
