<?xml version="1.0" encoding="utf-8"?>
<!-- Generator: Adobe Illustrator 25.0.0, SVG Export Plug-In . SVG Version: 6.00 Build 0)  -->
<svg version="1.1" id="Livello_1" xmlns="http://www.w3.org/2000/svg" xmlns:xlink="http://www.w3.org/1999/xlink" x="0px" y="0px"
	 viewBox="0 0 300 86.5" enable-background="new 0 0 300 86.5" xml:space="preserve">
<circle id="Ellisse_471" fill="none" stroke="#707070" stroke-linecap="round" stroke-dasharray="0.1,3" cx="255.3" cy="61.7" r="21.2"/>
<circle id="Ellisse_472" fill="none" stroke="#707070" stroke-linecap="round" stroke-dasharray="0.1,3" cx="203.7" cy="22.7" r="21.2"/>
<g id="Raggruppa_4729" transform="translate(418.008 1.671) rotate(41)">
	<line id="Linea_1454" fill="none" stroke="#444444" stroke-width="0.567" x1="-125.7" y1="154.89992" x2="-125.7" y2="157.79993"/>
	
		<line id="Linea_1455" fill="none" stroke="#444444" stroke-width="0.567" x1="-105.80002" y1="154.89992" x2="-105.80002" y2="157.79993"/>
	
		<line id="Linea_1456" fill="none" stroke="#444444" stroke-width="0.5" x1="-125.7" y1="156.39992" x2="-105.80002" y2="156.39992"/>
</g>
<path id="Tracciato_124407" fill="#8FCC81" d="M202.89999,29.8c-0.60001-0.6-0.89999-0.6-1.2-0.3C201.2,30,200.3,30,199.8,29.5
	c-0.3-0.3-0.5-0.8-0.39999-1.3c0.10001-0.4-0.10001-0.7-1.3-0.9c-2.39999-0.5-3.89999-2.9-3.3-5.3c0.5-2.4,2.89999-3.9,5.3-3.3l0,0
	c1.3,0.3,1.8-0.1,2-1C202.5,15.9,204.3,14.8,206,15.2c1.60001,0.4,2.7,1.9,2.60001,3.5c-0.10001,1,0.3,1.4,1.2,1.5
	c1.8,0.2,3.10001,1.8,3,3.6c-0.2,1.8-1.7,3.1-3.5,3c-1-0.1-1.39999,0.3-1.39999,1.2c-0.10001,1.7-1.5,2.9-3.2,2.8
	C204.10001,30.6,203.39999,30.3,202.89999,29.8L202.89999,29.8z"/>
<path id="Tracciato_124406" fill="#D78F66" d="M251.39999,65c0.5-1.4,0.2-2.1-1-2.6c-2.3-0.9-3.5-3.6-2.60001-5.9s3.5-3.5,5.8-2.6
	c1.2,0.5,1.7,0.2,1.89999-0.4c0.39999-1.2,1.7-1.8,2.90001-1.4s1.79999,1.7,1.39999,2.9l0,0c-0.20001,0.6,0,1,0.89999,1.3
	c1.70001,0.6,2.60001,2.4,2,4.1c-0.29999,0.8-0.89999,1.5-1.60001,1.9c-0.79999,0.4-1.10001,1-0.39999,2.4
	c1.20001,2.5,0.20001,5.6-2.29999,6.8s-5.60001,0.2-6.8-2.3C251,67.8,250.89999,66.3,251.39999,65L251.39999,65z"/>
<rect id="Rettangolo_18726" x="-0.5" y="0" fill="none" width="301" height="86"/>
<g>
	<rect x="10.80457" y="7.2053" fill="none" width="157.29086" height="123.88199"/>
	<path d="M11.29395,13.85107l0.70996-0.16992c0.12988,0.89941,0.80957,1.46924,1.74902,1.46924
		c1.00977,0,1.51953-0.52979,1.51953-1.21973c0-0.74951-0.42969-1.13916-1.65918-1.60889
		c-1.40918-0.52979-1.89941-1.0293-1.89941-1.93896c0-1.05957,0.7998-1.75879,1.97949-1.75879
		c0.87891,0,1.56934,0.38965,1.98828,1.12939l-0.59961,0.36963c-0.2998-0.53955-0.80957-0.85938-1.40918-0.85938
		c-0.72949,0-1.24902,0.49951-1.24902,1.08936c0,0.63965,0.47949,0.97949,1.5791,1.39893
		c1.54883,0.58984,1.98926,1.14941,1.98926,2.11914c0,1.16943-0.80957,1.91895-2.24902,1.91895
		C12.4541,15.79004,11.48438,15.02051,11.29395,13.85107z"/>
	<path d="M17.34473,8.72363h0.7998v1.01953h-0.7998V8.72363z M17.4043,10.7627h0.68945v4.92725H17.4043V10.7627z"/>
	<path d="M26.6709,12.61182v3.07812h-0.68945v-2.88818c0-0.41992,0-1.50928-1.08008-1.50928
		c-0.99902,0-1.26855,0.91943-1.26855,2.02881v2.36865h-0.69043v-2.84863c0-0.81934-0.25-1.54883-1.10938-1.54883
		c-0.95898,0-1.22949,0.90918-1.22949,2.02881v2.36865h-0.68945L19.9043,10.7627h0.66992v0.59961
		c0.30957-0.48975,0.80957-0.67969,1.35938-0.67969c0.68945,0,1.19922,0.2998,1.44922,0.94971
		c0.31934-0.62988,0.86914-0.94971,1.61914-0.94971C26.18066,10.68262,26.6709,11.4624,26.6709,12.61182z"/>
	<path d="M28.31445,8.72363h0.7998v1.01953h-0.7998V8.72363z M28.37402,10.7627h0.69043v4.92725h-0.69043V10.7627z"/>
	<path d="M30.84375,14.62061V8.72363h0.69043v5.85693c0,0.33984,0.11914,0.55957,0.44922,0.55957
		c0.15039,0,0.32031-0.04004,0.46973-0.08984l0.00977,0.58984c-0.20996,0.06982-0.45898,0.12988-0.67969,0.12988
		C31.21387,15.77002,30.84375,15.39014,30.84375,14.62061z"/>
	<path d="M37.25195,12.62158v3.06836h-0.62891l-0.04004-0.75977c-0.38965,0.5498-0.99023,0.83984-1.76953,0.83984
		c-1.06934,0-1.69922-0.56006-1.69922-1.50928c0-0.49951,0.2002-0.87939,0.55957-1.09961
		c0.37988-0.21973,0.91016-0.30957,1.87891-0.30957h1.00977v-0.22998c0-0.85938-0.44922-1.3291-1.2793-1.3291
		c-0.61914,0-1.09961,0.26953-1.49902,0.81934l-0.5-0.41943c0.53027-0.68994,1.16992-1.00977,2.00879-1.00977
		C36.53223,10.68262,37.25195,11.39209,37.25195,12.62158z M36.5625,13.48096v-0.06982h-0.94922
		c-0.90918,0-1.2998,0.06006-1.53906,0.25c-0.17969,0.13965-0.27051,0.35986-0.27051,0.63965
		c0,0.5498,0.46973,0.89941,1.20996,0.89941C35.96289,15.2002,36.5625,14.53076,36.5625,13.48096z"/>
	<path d="M41.93262,10.89258l-0.33984,0.55957c-0.23047-0.09961-0.44043-0.1499-0.65039-0.1499
		c-0.75879,0-1.31934,0.56982-1.31934,1.63916v2.74854h-0.68945V10.7627h0.68945v0.73975
		c0.36035-0.6499,0.95996-0.81982,1.45996-0.81982C41.38281,10.68262,41.66211,10.74268,41.93262,10.89258z"/>
	<path d="M42.89355,8.72363h0.7998v1.01953h-0.7998V8.72363z M42.95312,10.7627h0.68945v4.92725h-0.68945V10.7627z"/>
	<path d="M47.51172,15.64014c-0.25977,0.07959-0.51953,0.12988-0.74902,0.12988c-0.66016,0-1.13965-0.37012-1.13965-1.23926
		v-3.18848h-0.81934V10.7627h0.81934V9.3833l0.68945-0.51953v1.89893h1.18945v0.57959H46.3125v3.09814
		c0,0.47998,0.21973,0.69971,0.61035,0.69971c0.16992,0,0.35938-0.04004,0.5791-0.10986L47.51172,15.64014z"/>
	<path d="M50.23242,15.62988l-2.08887-4.86719h0.75977l1.69922,4.05762l1.48926-4.05762h0.75977l-2.69922,6.96582h-0.73926
		L50.23242,15.62988z"/>
	<path d="M61.20996,13.22119c0,1.46924-0.75,2.54883-2.18848,2.54883c-0.71973,0-1.26953-0.27979-1.62891-0.73975v0.65967h-0.69043
		V8.72363h0.69043v2.69873c0.36914-0.47998,0.92871-0.74951,1.62891-0.74951C60.39062,10.67285,61.20996,11.68213,61.20996,13.22119
		z M60.52051,13.22119c0-1.16943-0.59961-1.93896-1.59961-1.93896c-0.98926,0-1.58887,0.76953-1.58887,1.93896
		c0,1.11963,0.5498,1.93896,1.58887,1.93896C59.9707,15.16016,60.52051,14.34082,60.52051,13.22119z"/>
	<path d="M66.30957,12.62158v3.06836h-0.62891l-0.04004-0.75977c-0.39062,0.5498-0.99023,0.83984-1.76953,0.83984
		c-1.06934,0-1.69922-0.56006-1.69922-1.50928c0-0.49951,0.2002-0.87939,0.55957-1.09961
		c0.37988-0.21973,0.91016-0.30957,1.87988-0.30957h1.00879v-0.22998c0-0.85938-0.44922-1.3291-1.2793-1.3291
		c-0.61914,0-1.09961,0.26953-1.49902,0.81934l-0.5-0.41943c0.53027-0.68994,1.16992-1.00977,2.00879-1.00977
		C65.58984,10.68262,66.30957,11.39209,66.30957,12.62158z M65.62012,13.48096v-0.06982H64.6709
		c-0.90918,0-1.2998,0.06006-1.53906,0.25c-0.17969,0.13965-0.27051,0.35986-0.27051,0.63965
		c0,0.5498,0.4707,0.89941,1.20996,0.89941C65.02051,15.2002,65.62012,14.53076,65.62012,13.48096z"/>
	<path d="M67.46191,14.48047l0.5791-0.25977c0.18066,0.50977,0.66016,0.93945,1.42969,0.93945
		c0.66992,0,1.09961-0.32959,1.09961-0.84961c0-1.30908-2.83887-0.48975-2.83887-2.23877c0-0.85938,0.7002-1.38916,1.68945-1.38916
		c0.78906,0,1.42871,0.33008,1.76855,1.0293l-0.5498,0.2998c-0.23926-0.43945-0.62891-0.71924-1.23926-0.71924
		c-0.60938,0-0.99902,0.24951-0.99902,0.67969c0,1.16895,2.84863,0.42969,2.84863,2.29834
		c0,0.99951-0.81934,1.49951-1.76953,1.49951C68.51172,15.77002,67.72168,15.27002,67.46191,14.48047z"/>
	<path d="M76.5,13.41113h-3.6084c0.02051,1.07959,0.62012,1.729,1.58887,1.729c0.54004,0,0.96973-0.13965,1.41992-0.61963
		l0.47949,0.41992c-0.58008,0.60938-1.14941,0.82959-1.90918,0.82959c-1.49902,0-2.26855-1.11963-2.26855-2.51855
		c0-1.38965,0.75977-2.56885,2.18848-2.56885c1.50977,0,2.13867,1.1792,2.13867,2.29883
		C76.5293,13.12158,76.51953,13.29102,76.5,13.41113z M72.8916,12.83154h2.97852c0-0.02002-0.00977-0.06982-0.00977-0.16016
		c-0.0498-0.79932-0.55957-1.40918-1.46973-1.40918C73.50098,11.26221,72.95215,11.96191,72.8916,12.83154z"/>
	<path d="M82.04004,8.72363v6.96631h-0.68945v-0.65967c-0.36035,0.45996-0.91016,0.73975-1.62891,0.73975
		c-1.43945,0-2.18945-1.07959-2.18945-2.54883c0-1.53906,0.81934-2.54834,2.18945-2.54834
		c0.69922,0,1.25879,0.26953,1.62891,0.74951V8.72363H82.04004z M81.41016,13.22119c0-1.16943-0.59961-1.93896-1.58887-1.93896
		c-1,0-1.59961,0.76953-1.59961,1.93896c0,1.11963,0.5498,1.93896,1.59961,1.93896
		C80.86035,15.16016,81.41016,14.34082,81.41016,13.22119z"/>
	<path d="M86.16113,13.22119c0-1.45898,0.9502-2.53857,2.35938-2.53857c1.39844,0,2.36816,1.07959,2.36816,2.53857
		c0,1.44922-0.95898,2.54883-2.36816,2.54883S86.16113,14.68066,86.16113,13.22119z M90.19922,13.22119
		c0-1.11914-0.62988-1.92871-1.67871-1.92871c-1.05957,0-1.66992,0.81934-1.66992,1.92871
		c0,1.11963,0.62012,1.93896,1.66992,1.93896C89.5791,15.16016,90.19922,14.3208,90.19922,13.22119z"/>
	<path d="M96.20801,12.67139v3.01855h-0.68945v-2.84863c0-1.05908-0.33984-1.54883-1.0791-1.54883
		c-0.92969,0-1.46875,0.79932-1.46875,2.18848v2.20898h-0.69043V10.7627h0.69043v0.71973c0.31934-0.5,0.91895-0.7998,1.62891-0.7998
		C95.65918,10.68262,96.20801,11.3623,96.20801,12.67139z"/>
	<path d="M98.27051,10.98242h0.88965v1.09961h-0.88965V10.98242z M98.27051,14.59033h0.88965v1.09961h-0.88965V14.59033z"/>
	<path d="M15.38184,24.62207v3.06836h-0.62891l-0.04004-0.75977c-0.39062,0.5498-0.99023,0.83984-1.76953,0.83984
		c-1.06934,0-1.69922-0.55957-1.69922-1.50977c0-0.49902,0.2002-0.87891,0.55957-1.09863
		c0.37988-0.21973,0.91016-0.31055,1.87988-0.31055h1.00879v-0.22949c0-0.85938-0.44922-1.3291-1.2793-1.3291
		c-0.61914,0-1.09961,0.26953-1.49902,0.81934l-0.5-0.41992c0.53027-0.68945,1.16992-1.00879,2.00879-1.00879
		C14.66211,22.68359,15.38184,23.39258,15.38184,24.62207z M14.69238,25.48145v-0.06934h-0.94922
		c-0.90918,0-1.2998,0.05957-1.53906,0.24902c-0.17969,0.14062-0.27051,0.36035-0.27051,0.63965
		c0,0.5498,0.4707,0.90039,1.20996,0.90039C14.09277,27.20117,14.69238,26.53125,14.69238,25.48145z"/>
	<path d="M17.40332,26.59082h0.89941v1.09961h-0.89941V26.59082z"/>
	<path d="M32.4502,25.82129h-2.89844l-0.66895,1.86914h-0.78027l2.59863-6.96582h0.58984l2.6084,6.96582h-0.78906L32.4502,25.82129z
		 M32.23047,25.21191l-1.22949-3.47852l-1.23926,3.47852H32.23047z"/>
	<path d="M41.87891,24.6123v3.07812h-0.68945v-2.88867c0-0.41992,0-1.50879-1.08008-1.50879
		c-0.99902,0-1.26855,0.91895-1.26855,2.02832v2.36914h-0.69043V24.8418c0-0.81934-0.25-1.54883-1.10938-1.54883
		c-0.95898,0-1.22852,0.90918-1.22852,2.02832v2.36914h-0.69043L35.1123,22.7627h0.66992v0.60059
		c0.30957-0.49023,0.80957-0.67969,1.35938-0.67969c0.68945,0,1.19922,0.2998,1.44922,0.94922
		c0.31934-0.62988,0.86914-0.94922,1.61914-0.94922C41.38867,22.68359,41.87891,23.46289,41.87891,24.6123z"/>
	<path d="M43.15234,25.22168c0-1.45898,0.9502-2.53809,2.35938-2.53809c1.39844,0,2.36816,1.0791,2.36816,2.53809
		c0,1.44922-0.95898,2.54883-2.36816,2.54883S43.15234,26.68066,43.15234,25.22168z M47.19043,25.22168
		c0-1.11914-0.62988-1.92871-1.67871-1.92871c-1.05957,0-1.66992,0.81934-1.66992,1.92871
		c0,1.11914,0.62012,1.93945,1.66992,1.93945C46.57031,27.16113,47.19043,26.32129,47.19043,25.22168z"/>
	<path d="M53.03027,22.7627v4.92773h-0.69043v-0.70996c-0.34961,0.53027-0.97949,0.79004-1.62891,0.79004
		c-1.11914,0-1.6084-0.76953-1.6084-1.98926V22.7627h0.68945v2.84863c0,0.7998,0.13965,1.5498,1.0791,1.5498
		c0.97949,0,1.46875-0.84961,1.46875-2.12891V22.7627H53.03027z"/>
	<path d="M58.7793,24.67188v3.01855h-0.68945V24.8418c0-1.05957-0.33984-1.54883-1.0791-1.54883
		c-0.92969,0-1.46973,0.7998-1.46973,2.18848v2.20898h-0.68945V22.7627h0.68945v0.71973
		c0.32031-0.49902,0.91992-0.79883,1.62988-0.79883C58.23047,22.68359,58.7793,23.36328,58.7793,24.67188z"/>
	<path d="M62.53027,27.64062c-0.25977,0.08008-0.51953,0.12988-0.74902,0.12988c-0.66016,0-1.13965-0.37012-1.13965-1.23926
		v-3.18848h-0.81934V22.7627h0.81934v-1.37891l0.68945-0.51953v1.89844h1.18945v0.58008h-1.18945v3.09863
		c0,0.47949,0.21973,0.69922,0.61035,0.69922c0.16992,0,0.35938-0.04004,0.5791-0.10938L62.53027,27.64062z"/>
	<path d="M66.1416,25.22168c0-1.45898,0.9502-2.53809,2.35938-2.53809c1.39844,0,2.36816,1.0791,2.36816,2.53809
		c0,1.44922-0.95898,2.54883-2.36816,2.54883S66.1416,26.68066,66.1416,25.22168z M70.17969,25.22168
		c0-1.11914-0.62988-1.92871-1.67871-1.92871c-1.05957,0-1.66992,0.81934-1.66992,1.92871
		c0,1.11914,0.62012,1.93945,1.66992,1.93945C69.55957,27.16113,70.17969,26.32129,70.17969,25.22168z"/>
	<path d="M72.56055,23.34277h-1.03906V22.7627h1.0498v-0.75879c0-1.0498,0.60938-1.35938,1.23926-1.35938
		c0.26953,0,0.56934,0.05957,0.87891,0.18945l-0.23926,0.5498c-0.20996-0.09961-0.40039-0.16016-0.57031-0.16016
		c-0.38965,0-0.62891,0.27051-0.62891,0.72949v0.80957h1.41895v0.58008h-1.41895v4.34766h-0.69043V23.34277z"/>
	<path d="M82.59863,20.72461v6.96582h-0.68945v-0.65918c-0.36035,0.45898-0.91016,0.73926-1.62891,0.73926
		c-1.43945,0-2.18945-1.0791-2.18945-2.54883c0-1.53906,0.81934-2.54883,2.18945-2.54883c0.69922,0,1.25879,0.27051,1.62891,0.75
		v-2.69824H82.59863z M81.96875,25.22168c0-1.16895-0.59961-1.93848-1.58887-1.93848c-1,0-1.59961,0.76953-1.59961,1.93848
		c0,1.11914,0.5498,1.93945,1.59961,1.93945C81.41895,27.16113,81.96875,26.34082,81.96875,25.22168z"/>
	<path d="M88.17969,22.7627v4.92773h-0.69043v-0.70996c-0.34961,0.53027-0.97949,0.79004-1.62891,0.79004
		c-1.11914,0-1.6084-0.76953-1.6084-1.98926V22.7627h0.68945v2.84863c0,0.7998,0.13965,1.5498,1.0791,1.5498
		c0.97949,0,1.46875-0.84961,1.46875-2.12891V22.7627H88.17969z"/>
	<path d="M94.50879,25.22168c0,1.46973-0.75,2.54883-2.18848,2.54883c-0.71973,0-1.26953-0.28027-1.62891-0.73926v0.65918h-0.69043
		v-6.96582h0.69043v2.69824c0.36914-0.47949,0.92871-0.75,1.62891-0.75C93.68945,22.67285,94.50879,23.68262,94.50879,25.22168z
		 M93.81934,25.22168c0-1.16895-0.59961-1.93848-1.59961-1.93848c-0.98926,0-1.58887,0.76953-1.58887,1.93848
		c0,1.11914,0.5498,1.93945,1.58887,1.93945C93.26953,27.16113,93.81934,26.34082,93.81934,25.22168z"/>
	<path d="M95.88184,20.72461h0.7998v1.01953h-0.7998V20.72461z M95.94141,22.7627h0.68945v4.92773h-0.68945V22.7627z"/>
	<path d="M100.5,27.64062c-0.25977,0.08008-0.51953,0.12988-0.74902,0.12988c-0.66016,0-1.13965-0.37012-1.13965-1.23926v-3.18848
		h-0.81934V22.7627h0.81934v-1.37891l0.68945-0.51953v1.89844h1.18945v0.58008h-1.18945v3.09863
		c0,0.47949,0.21973,0.69922,0.61035,0.69922c0.16992,0,0.35938-0.04004,0.5791-0.10938L100.5,27.64062z"/>
	<path d="M105.47949,24.62207v3.06836h-0.62891l-0.04004-0.75977c-0.39062,0.5498-0.99023,0.83984-1.76953,0.83984
		c-1.06934,0-1.69922-0.55957-1.69922-1.50977c0-0.49902,0.2002-0.87891,0.55957-1.09863
		c0.37988-0.21973,0.91016-0.31055,1.87988-0.31055h1.00879v-0.22949c0-0.85938-0.44922-1.3291-1.2793-1.3291
		c-0.61914,0-1.09961,0.26953-1.49902,0.81934l-0.5-0.41992c0.53027-0.68945,1.16992-1.00879,2.00879-1.00879
		C104.75977,22.68359,105.47949,23.39258,105.47949,24.62207z M104.79004,25.48145v-0.06934h-0.94922
		c-0.90918,0-1.2998,0.05957-1.53906,0.24902c-0.17969,0.14062-0.27051,0.36035-0.27051,0.63965
		c0,0.5498,0.4707,0.90039,1.20996,0.90039C104.19043,27.20117,104.79004,26.53125,104.79004,25.48145z"/>
	<path d="M109.20996,27.64062c-0.25977,0.08008-0.51953,0.12988-0.74902,0.12988c-0.66016,0-1.13965-0.37012-1.13965-1.23926
		v-3.18848h-0.81934V22.7627h0.81934v-1.37891l0.68945-0.51953v1.89844h1.18945v0.58008h-1.18945v3.09863
		c0,0.47949,0.21973,0.69922,0.61035,0.69922c0.16992,0,0.35938-0.04004,0.5791-0.10938L109.20996,27.64062z"/>
	<path d="M110.46191,20.72461h0.7998v1.01953h-0.7998V20.72461z M110.52148,22.7627h0.68945v4.92773h-0.68945V22.7627z"/>
	<path d="M112.32227,22.7627h0.74902l1.5498,4.04785l1.55859-4.04785h0.75977l-2.01855,4.92773h-0.58984L112.32227,22.7627z"/>
	<path d="M121.79883,25.41211h-3.6084c0.02051,1.0791,0.62012,1.72852,1.58887,1.72852c0.54004,0,0.96973-0.13965,1.41992-0.61914
		l0.47949,0.41895c-0.58008,0.61035-1.14941,0.83008-1.90918,0.83008c-1.49902,0-2.26855-1.11914-2.26855-2.51855
		c0-1.38965,0.75977-2.56836,2.18848-2.56836c1.50977,0,2.13867,1.17871,2.13867,2.29785
		C121.82812,25.12207,121.81836,25.29199,121.79883,25.41211z M118.19043,24.83203h2.97852
		c0-0.02051-0.00977-0.07031-0.00977-0.16016c-0.0498-0.7998-0.55957-1.40918-1.46973-1.40918
		C118.7998,23.2627,118.25098,23.96289,118.19043,24.83203z"/>
	<path d="M127.99902,27.64062c-0.25977,0.08008-0.51953,0.12988-0.74902,0.12988c-0.66016,0-1.13965-0.37012-1.13965-1.23926
		v-3.18848h-0.81934V22.7627h0.81934v-1.37891l0.68945-0.51953v1.89844h1.18945v0.58008h-1.18945v3.09863
		c0,0.47949,0.21973,0.69922,0.61035,0.69922c0.16992,0,0.35938-0.04004,0.5791-0.10938L127.99902,27.64062z"/>
	<path d="M133.15918,25.41211h-3.6084c0.02051,1.0791,0.62012,1.72852,1.58887,1.72852c0.54004,0,0.96973-0.13965,1.41992-0.61914
		l0.47949,0.41895c-0.58008,0.61035-1.14941,0.83008-1.90918,0.83008c-1.49902,0-2.26855-1.11914-2.26855-2.51855
		c0-1.38965,0.75977-2.56836,2.18848-2.56836c1.50977,0,2.13867,1.17871,2.13867,2.29785
		C133.18848,25.12207,133.17871,25.29199,133.15918,25.41211z M129.55078,24.83203h2.97852
		c0-0.02051-0.00977-0.07031-0.00977-0.16016c-0.0498-0.7998-0.55957-1.40918-1.46973-1.40918
		C130.16016,23.2627,129.61133,23.96289,129.55078,24.83203z"/>
	<path d="M135.73047,25.22168l-1.79883-2.45898h0.83984l1.41895,1.97949l1.40918-1.97949h0.83984l-1.79883,2.45898l1.80859,2.46875
		h-0.84961l-1.40918-1.99902l-1.40918,1.99902h-0.84961L135.73047,25.22168z"/>
	<path d="M141.70996,27.64062c-0.25977,0.08008-0.51953,0.12988-0.74902,0.12988c-0.66016,0-1.13965-0.37012-1.13965-1.23926
		v-3.18848h-0.81934V22.7627h0.81934v-1.37891l0.68945-0.51953v1.89844h1.18945v0.58008h-1.18945v3.09863
		c0,0.47949,0.21973,0.69922,0.61035,0.69922c0.16992,0,0.35938-0.04004,0.5791-0.10938L141.70996,27.64062z"/>
	<path d="M145.69141,20.72461h0.7998v1.01953h-0.7998V20.72461z M145.75098,22.7627h0.69043v4.92773h-0.69043V22.7627z"/>
	<path d="M152.18848,24.67188v3.01855h-0.68945V24.8418c0-1.05957-0.33984-1.54883-1.0791-1.54883
		c-0.92969,0-1.46875,0.7998-1.46875,2.18848v2.20898h-0.69043V22.7627h0.69043v0.71973
		c0.31934-0.49902,0.91895-0.79883,1.62891-0.79883C151.63965,22.68359,152.18848,23.36328,152.18848,24.67188z"/>
	<path d="M16.22168,37.22168c0,1.46973-0.75,2.54883-2.18848,2.54883c-0.71973,0-1.26953-0.28027-1.62891-0.73926v2.69824h-0.69043
		v-6.9668h0.69043v0.66016c0.36914-0.47949,0.92871-0.75,1.62891-0.75C15.40234,34.67285,16.22168,35.68262,16.22168,37.22168z
		 M15.53223,37.22168c0-1.16895-0.59961-1.93848-1.59961-1.93848c-0.98926,0-1.58887,0.76953-1.58887,1.93848
		c0,1.11914,0.5498,1.93945,1.58887,1.93945C14.98242,39.16113,15.53223,38.34082,15.53223,37.22168z"/>
	<path d="M20.65234,34.89355l-0.33984,0.55957c-0.23047-0.10059-0.44043-0.15039-0.65039-0.15039
		c-0.75879,0-1.31836,0.56934-1.31836,1.63965v2.74805h-0.69043V34.7627h0.69043v0.74023
		c0.35938-0.64941,0.95898-0.81934,1.45898-0.81934C20.10254,34.68359,20.38184,34.74316,20.65234,34.89355z"/>
	<path d="M20.79297,37.22168c0-1.45898,0.9502-2.53809,2.35938-2.53809c1.39844,0,2.36816,1.0791,2.36816,2.53809
		c0,1.44922-0.95898,2.54883-2.36816,2.54883S20.79297,38.68066,20.79297,37.22168z M24.83105,37.22168
		c0-1.11914-0.62988-1.92871-1.67871-1.92871c-1.05957,0-1.66992,0.81934-1.66992,1.92871
		c0,1.11914,0.62012,1.93945,1.66992,1.93945C24.21094,39.16113,24.83105,38.32129,24.83105,37.22168z"/>
	<path d="M31.41992,37.22168c0,1.46973-0.75,2.54883-2.18848,2.54883c-0.71973,0-1.26953-0.28027-1.62988-0.73926v2.69824h-0.68945
		v-6.9668h0.68945v0.66016c0.37012-0.47949,0.92969-0.75,1.62988-0.75C30.60059,34.67285,31.41992,35.68262,31.41992,37.22168z
		 M30.73047,37.22168c0-1.16895-0.59961-1.93848-1.59961-1.93848c-0.98926,0-1.58887,0.76953-1.58887,1.93848
		c0,1.11914,0.5498,1.93945,1.58887,1.93945C30.18066,39.16113,30.73047,38.34082,30.73047,37.22168z"/>
	<path d="M32.42188,37.22168c0-1.45898,0.9502-2.53809,2.35938-2.53809c1.39844,0,2.36816,1.0791,2.36816,2.53809
		c0,1.44922-0.95898,2.54883-2.36816,2.54883S32.42188,38.68066,32.42188,37.22168z M36.45996,37.22168
		c0-1.11914-0.62988-1.92871-1.67871-1.92871c-1.05957,0-1.66992,0.81934-1.66992,1.92871
		c0,1.11914,0.62012,1.93945,1.66992,1.93945C35.83984,39.16113,36.45996,38.32129,36.45996,37.22168z"/>
	<path d="M41.54004,34.89355l-0.33984,0.55957c-0.23047-0.10059-0.44043-0.15039-0.65039-0.15039
		c-0.75879,0-1.31934,0.56934-1.31934,1.63965v2.74805h-0.68945V34.7627h0.68945v0.74023
		c0.36035-0.64941,0.95996-0.81934,1.45996-0.81934C40.99023,34.68359,41.26953,34.74316,41.54004,34.89355z"/>
	<path d="M44.85938,39.64062c-0.25977,0.08008-0.51953,0.12988-0.74902,0.12988c-0.66016,0-1.13965-0.37012-1.13965-1.23926
		v-3.18848h-0.81934V34.7627h0.81934v-1.37891l0.68945-0.51953v1.89844h1.18945v0.58008h-1.18945v3.09863
		c0,0.47949,0.21973,0.69922,0.61035,0.69922c0.16992,0,0.35938-0.04004,0.5791-0.10938L44.85938,39.64062z"/>
	<path d="M46.11133,32.72461h0.7998v1.01953h-0.7998V32.72461z M46.1709,34.7627h0.69043v4.92773H46.1709V34.7627z"/>
	<path d="M48.25098,37.22168c0-1.45898,0.9502-2.53809,2.35938-2.53809c1.39844,0,2.36816,1.0791,2.36816,2.53809
		c0,1.44922-0.95898,2.54883-2.36816,2.54883S48.25098,38.68066,48.25098,37.22168z M52.28906,37.22168
		c0-1.11914-0.62988-1.92871-1.67871-1.92871c-1.05957,0-1.66992,0.81934-1.66992,1.92871
		c0,1.11914,0.62012,1.93945,1.66992,1.93945C51.66895,39.16113,52.28906,38.32129,52.28906,37.22168z"/>
	<path d="M58.29785,36.67188v3.01855H57.6084V36.8418c0-1.05957-0.33984-1.54883-1.0791-1.54883
		c-0.92969,0-1.46875,0.7998-1.46875,2.18848v2.20898h-0.69043V34.7627h0.69043v0.71973
		c0.31934-0.49902,0.91895-0.79883,1.62891-0.79883C57.74902,34.68359,58.29785,35.36328,58.29785,36.67188z"/>
	<path d="M64.77832,39.64062c-0.25977,0.08008-0.51953,0.12988-0.74902,0.12988c-0.66016,0-1.13965-0.37012-1.13965-1.23926
		v-3.18848h-0.81934V34.7627h0.81934v-1.37891l0.68945-0.51953v1.89844h1.18945v0.58008H63.5791v3.09863
		c0,0.47949,0.21973,0.69922,0.61035,0.69922c0.16992,0,0.35938-0.04004,0.5791-0.10938L64.77832,39.64062z"/>
	<path d="M65.61035,37.22168c0-1.45898,0.9502-2.53809,2.35938-2.53809c1.39844,0,2.36816,1.0791,2.36816,2.53809
		c0,1.44922-0.95898,2.54883-2.36816,2.54883S65.61035,38.68066,65.61035,37.22168z M69.64844,37.22168
		c0-1.11914-0.62988-1.92871-1.67871-1.92871c-1.05957,0-1.66992,0.81934-1.66992,1.92871
		c0,1.11914,0.62012,1.93945,1.66992,1.93945C69.02832,39.16113,69.64844,38.32129,69.64844,37.22168z"/>
	<path d="M76.50781,39.64062c-0.25977,0.08008-0.51953,0.12988-0.74902,0.12988c-0.66016,0-1.13965-0.37012-1.13965-1.23926
		v-3.18848H73.7998V34.7627h0.81934v-1.37891l0.68945-0.51953v1.89844h1.18945v0.58008h-1.18945v3.09863
		c0,0.47949,0.21973,0.69922,0.61035,0.69922c0.16992,0,0.35938-0.04004,0.5791-0.10938L76.50781,39.64062z"/>
	<path d="M81.74707,36.67188v3.01855h-0.68945V36.8418c0-1.06934-0.33984-1.54883-1.0791-1.54883
		c-0.93945,0-1.46875,0.76953-1.46875,2.12891v2.26855h-0.69043v-6.96582h0.69043v2.75781
		c0.31934-0.49902,0.91895-0.79883,1.62891-0.79883C81.19824,34.68359,81.74707,35.36328,81.74707,36.67188z"/>
	<path d="M87.34766,37.41211h-3.6084c0.02051,1.0791,0.62012,1.72852,1.58887,1.72852c0.54004,0,0.96973-0.13965,1.41992-0.61914
		l0.47949,0.41895c-0.58008,0.61035-1.14941,0.83008-1.90918,0.83008c-1.49902,0-2.26855-1.11914-2.26855-2.51855
		c0-1.38965,0.75977-2.56836,2.18848-2.56836c1.50977,0,2.13867,1.17871,2.13867,2.29785
		C87.37695,37.12207,87.36719,37.29199,87.34766,37.41211z M83.73926,36.83203h2.97852c0-0.02051-0.00977-0.07031-0.00977-0.16016
		c-0.0498-0.7998-0.55957-1.40918-1.46973-1.40918C84.34863,35.2627,83.7998,35.96289,83.73926,36.83203z"/>
	<path d="M93.54785,39.64062c-0.25977,0.08008-0.51953,0.12988-0.74902,0.12988c-0.66016,0-1.13965-0.37012-1.13965-1.23926
		v-3.18848h-0.81934V34.7627h0.81934v-1.37891l0.68945-0.51953v1.89844h1.18945v0.58008h-1.18945v3.09863
		c0,0.47949,0.21973,0.69922,0.61035,0.69922c0.16992,0,0.35938-0.04004,0.5791-0.10938L93.54785,39.64062z"/>
	<path d="M94.37988,37.22168c0-1.45898,0.9502-2.53809,2.35938-2.53809c1.39844,0,2.36816,1.0791,2.36816,2.53809
		c0,1.44922-0.95898,2.54883-2.36816,2.54883S94.37988,38.68066,94.37988,37.22168z M98.41797,37.22168
		c0-1.11914-0.62988-1.92871-1.67871-1.92871c-1.05957,0-1.66992,0.81934-1.66992,1.92871
		c0,1.11914,0.62012,1.93945,1.66992,1.93945C97.79785,39.16113,98.41797,38.32129,98.41797,37.22168z"/>
	<path d="M102.49805,39.64062c-0.25977,0.08008-0.51953,0.12988-0.74902,0.12988c-0.66016,0-1.13965-0.37012-1.13965-1.23926
		v-3.18848h-0.81934V34.7627h0.81934v-1.37891l0.68945-0.51953v1.89844h1.18945v0.58008h-1.18945v3.09863
		c0,0.47949,0.21973,0.69922,0.61035,0.69922c0.16992,0,0.35938-0.04004,0.5791-0.10938L102.49805,39.64062z"/>
	<path d="M107.47754,36.62207v3.06836h-0.62891l-0.04004-0.75977c-0.39062,0.5498-0.99023,0.83984-1.76953,0.83984
		c-1.06934,0-1.69922-0.55957-1.69922-1.50977c0-0.49902,0.2002-0.87891,0.55957-1.09863
		c0.37988-0.21973,0.91016-0.31055,1.87988-0.31055h1.00879v-0.22949c0-0.85938-0.44922-1.3291-1.2793-1.3291
		c-0.61914,0-1.09961,0.26953-1.49902,0.81934l-0.5-0.41992c0.53027-0.68945,1.16992-1.00879,2.00879-1.00879
		C106.75781,34.68359,107.47754,35.39258,107.47754,36.62207z M106.78809,37.48145v-0.06934h-0.94922
		c-0.90918,0-1.2998,0.05957-1.53906,0.24902c-0.17969,0.14062-0.27051,0.36035-0.27051,0.63965
		c0,0.5498,0.4707,0.90039,1.20996,0.90039C106.18848,39.20117,106.78809,38.53125,106.78809,37.48145z"/>
	<path d="M109.11914,38.62109v-5.89648h0.69043v5.85645c0,0.33984,0.11914,0.55957,0.44922,0.55957
		c0.15039,0,0.32031-0.04004,0.46973-0.08984l0.00977,0.58984c-0.20996,0.06934-0.45898,0.12988-0.67969,0.12988
		C109.48926,39.77051,109.11914,39.39062,109.11914,38.62109z"/>
	<path d="M114.54883,38.62109v-5.89648h0.69043v5.85645c0,0.33984,0.11914,0.55957,0.44922,0.55957
		c0.15039,0,0.32031-0.04004,0.46973-0.08984l0.00977,0.58984c-0.20996,0.06934-0.45898,0.12988-0.67969,0.12988
		C114.91895,39.77051,114.54883,39.39062,114.54883,38.62109z"/>
	<path d="M121.1875,37.41211h-3.6084c0.02051,1.0791,0.62012,1.72852,1.58887,1.72852c0.54004,0,0.96973-0.13965,1.41992-0.61914
		l0.47949,0.41895c-0.58008,0.61035-1.14941,0.83008-1.90918,0.83008c-1.49902,0-2.26855-1.11914-2.26855-2.51855
		c0-1.38965,0.75977-2.56836,2.18848-2.56836c1.50977,0,2.13867,1.17871,2.13867,2.29785
		C121.2168,37.12207,121.20703,37.29199,121.1875,37.41211z M117.5791,36.83203h2.97852c0-0.02051-0.00977-0.07031-0.00977-0.16016
		c-0.0498-0.7998-0.55957-1.40918-1.46973-1.40918C118.18848,35.2627,117.63965,35.96289,117.5791,36.83203z"/>
	<path d="M126.53711,36.67188v3.01855h-0.68945V36.8418c0-1.05957-0.33984-1.54883-1.0791-1.54883
		c-0.92969,0-1.46973,0.7998-1.46973,2.18848v2.20898h-0.68945V34.7627h0.68945v0.71973
		c0.32031-0.49902,0.91992-0.79883,1.62988-0.79883C125.98828,34.68359,126.53711,35.36328,126.53711,36.67188z"/>
	<path d="M132.07715,40.4502c0,0.92969-0.86914,1.35938-2.1084,1.35938c-1.36914,0-2.19922-0.54004-2.19922-1.51953
		c0-0.09961,0.01074-0.16016,0.02051-0.21973l0.7998-0.67969c-0.37988-0.16992-0.63965-0.4502-0.63965-0.93945
		c0-0.39941,0.17969-0.69922,0.5293-0.93945c-0.25977-0.2998-0.41992-0.67969-0.41992-1.11914c0-1,0.81934-1.70898,1.87891-1.70898
		c0.47949,0,0.90918,0.14941,1.22949,0.39941l0.67969-0.58984l0.35938,0.4502l-0.66895,0.55957
		c0.16992,0.26953,0.26953,0.5791,0.26953,0.92969c0,1.00879-0.81934,1.67871-1.85938,1.67871
		c-0.37988,0-0.72949-0.08984-1.01855-0.25c-0.2002,0.11035-0.32031,0.29004-0.32031,0.5c0,0.5,0.62012,0.61914,1.3291,0.72949
		C130.91797,39.24023,132.07715,39.38086,132.07715,40.4502z M131.3877,40.50977c0-0.59961-0.7793-0.68945-1.59863-0.81934
		c-0.2207-0.03027-0.4502-0.07031-0.66016-0.12012l-0.66992,0.64941c-0.00977,0.05078-0.00977,0.07031-0.00977,0.09082
		c0,0.69922,0.70996,0.91895,1.5498,0.91895C130.86816,41.22949,131.3877,40.98926,131.3877,40.50977z M128.73926,36.41211
		c0,0.63965,0.45996,1.12988,1.19922,1.12988c0.74023,0,1.17969-0.48047,1.17969-1.12988c0-0.67969-0.45996-1.14941-1.16992-1.14941
		C129.24902,35.2627,128.73926,35.73242,128.73926,36.41211z"/>
	<path d="M135.49805,39.64062c-0.25977,0.08008-0.51953,0.12988-0.74902,0.12988c-0.66016,0-1.13965-0.37012-1.13965-1.23926
		v-3.18848h-0.81934V34.7627h0.81934v-1.37891l0.68945-0.51953v1.89844h1.18945v0.58008h-1.18945v3.09863
		c0,0.47949,0.21973,0.69922,0.61035,0.69922c0.16992,0,0.35938-0.04004,0.5791-0.10938L135.49805,39.64062z"/>
	<path d="M140.7373,36.67188v3.01855h-0.68945V36.8418c0-1.06934-0.33984-1.54883-1.0791-1.54883
		c-0.93945,0-1.46875,0.76953-1.46875,2.12891v2.26855h-0.69043v-6.96582H137.5v2.75781
		c0.31934-0.49902,0.91895-0.79883,1.62891-0.79883C140.18848,34.68359,140.7373,35.36328,140.7373,36.67188z"/>
	<path d="M144.73926,37.22168c0-1.45898,0.9502-2.53809,2.35938-2.53809c1.39844,0,2.36816,1.0791,2.36816,2.53809
		c0,1.44922-0.95898,2.54883-2.36816,2.54883S144.73926,38.68066,144.73926,37.22168z M148.77734,37.22168
		c0-1.11914-0.62988-1.92871-1.67871-1.92871c-1.05957,0-1.66992,0.81934-1.66992,1.92871
		c0,1.11914,0.62012,1.93945,1.66992,1.93945C148.15723,39.16113,148.77734,38.32129,148.77734,37.22168z"/>
	<path d="M151.1582,35.34277h-1.03906V34.7627h1.0498v-0.75879c0-1.0498,0.60938-1.35938,1.23926-1.35938
		c0.26953,0,0.56934,0.05957,0.87891,0.18945l-0.23926,0.5498c-0.20996-0.09961-0.40039-0.16016-0.57031-0.16016
		c-0.38965,0-0.62891,0.27051-0.62891,0.72949v0.80957h1.41895v0.58008h-1.41895v4.34766h-0.69043V35.34277z"/>
	<path d="M13.7627,51.64062c-0.25977,0.08008-0.51953,0.12988-0.74902,0.12988c-0.66016,0-1.13965-0.37012-1.13965-1.23926v-3.18848
		h-0.81934V46.7627h0.81934v-1.37891l0.68945-0.51953v1.89844h1.18945v0.58008h-1.18945v3.09863
		c0,0.47949,0.21973,0.69922,0.61035,0.69922c0.16992,0,0.35938-0.04004,0.5791-0.10938L13.7627,51.64062z"/>
	<path d="M19.00195,48.67188v3.01855H18.3125V48.8418c0-1.06934-0.33984-1.54883-1.0791-1.54883
		c-0.93945,0-1.46973,0.76953-1.46973,2.12891v2.26855h-0.68945v-6.96582h0.68945v2.75781
		c0.32031-0.49902,0.91992-0.79883,1.62988-0.79883C18.45312,46.68359,19.00195,47.36328,19.00195,48.67188z"/>
	<path d="M24.60254,49.41211h-3.6084c0.02051,1.0791,0.62012,1.72852,1.58887,1.72852c0.54004,0,0.96973-0.13965,1.41992-0.61914
		l0.47949,0.41895c-0.58008,0.61035-1.14941,0.83008-1.90918,0.83008c-1.49902,0-2.26855-1.11914-2.26855-2.51855
		c0-1.38965,0.75977-2.56836,2.18848-2.56836c1.50977,0,2.13867,1.17871,2.13867,2.29785
		C24.63184,49.12207,24.62207,49.29199,24.60254,49.41211z M20.99414,48.83203h2.97852c0-0.02051-0.00977-0.07031-0.00977-0.16016
		c-0.0498-0.7998-0.55957-1.40918-1.46973-1.40918C21.60352,47.2627,21.05469,47.96289,20.99414,48.83203z"/>
	<path d="M28.125,46.7627h0.73926l1.05957,3.88867l1.29883-3.88867h0.62988l1.28906,3.88867l1.06934-3.88867h0.72949
		l-1.43848,4.92773h-0.65039l-1.30859-3.97754l-1.3291,3.97754h-0.63965L28.125,46.7627z"/>
	<path d="M35.61426,49.22168c0-1.45898,0.9502-2.53809,2.35938-2.53809c1.39844,0,2.36816,1.0791,2.36816,2.53809
		c0,1.44922-0.95898,2.54883-2.36816,2.54883S35.61426,50.68066,35.61426,49.22168z M39.65234,49.22168
		c0-1.11914-0.62988-1.92871-1.67871-1.92871c-1.05957,0-1.66992,0.81934-1.66992,1.92871
		c0,1.11914,0.62012,1.93945,1.66992,1.93945C39.03223,51.16113,39.65234,50.32129,39.65234,49.22168z"/>
	<path d="M44.73242,46.89355l-0.33984,0.55957c-0.23047-0.10059-0.44043-0.15039-0.65039-0.15039
		c-0.75879,0-1.31836,0.56934-1.31836,1.63965v2.74805H41.7334V46.7627h0.69043v0.74023
		c0.35938-0.64941,0.95898-0.81934,1.45898-0.81934C44.18262,46.68359,44.46191,46.74316,44.73242,46.89355z"/>
	<path d="M45.75293,44.72461h0.69043v4.64746l2.45801-2.60938h0.92969l-1.78906,1.84961l2.06934,3.07812h-0.82031l-1.71875-2.64844
		l-1.12891,1.19922v1.44922h-0.69043V44.72461z"/>
	<path d="M51.7334,50.40137h0.88965l-1.31934,2.83789h-0.46973L51.7334,50.40137z M51.75293,46.9834h0.89941v1.09863h-0.89941
		V46.9834z"/>
	<path d="M16.22168,61.22168c0,1.46973-0.75,2.54883-2.18848,2.54883c-0.71973,0-1.26953-0.28027-1.62891-0.73926v0.65918h-0.69043
		v-6.96582h0.69043v2.69824c0.36914-0.47949,0.92871-0.75,1.62891-0.75C15.40234,58.67285,16.22168,59.68262,16.22168,61.22168z
		 M15.53223,61.22168c0-1.16895-0.59961-1.93848-1.59961-1.93848c-0.98926,0-1.58887,0.76953-1.58887,1.93848
		c0,1.11914,0.5498,1.93945,1.58887,1.93945C14.98242,63.16113,15.53223,62.34082,15.53223,61.22168z"/>
	<path d="M17.99316,62.59082h0.89941v1.09961h-0.89941V62.59082z"/>
	<path d="M29.0127,60.19238c0-2.23926,1.20898-3.56836,3.21777-3.56836c1.39941,0,2.37891,0.63965,2.86914,1.90918l-0.66016,0.25
		c-0.36914-1-1.10938-1.47949-2.20898-1.47949c-1.59863,0-2.50781,1.04004-2.50781,2.88867
		c0,1.85938,0.89941,2.91797,2.45801,2.91797c1.08984,0,1.86914-0.50977,2.25879-1.50879l0.67969,0.25
		c-0.51953,1.26953-1.54883,1.93848-2.93848,1.93848C30.20215,63.79004,29.0127,62.44141,29.0127,60.19238z"/>
	<path d="M35.90234,61.22168c0-1.45898,0.9502-2.53809,2.35938-2.53809c1.39844,0,2.36816,1.0791,2.36816,2.53809
		c0,1.44922-0.95898,2.54883-2.36816,2.54883S35.90234,62.68066,35.90234,61.22168z M39.94043,61.22168
		c0-1.11914-0.62988-1.92871-1.67871-1.92871c-1.05957,0-1.66992,0.81934-1.66992,1.92871
		c0,1.11914,0.62012,1.93945,1.66992,1.93945C39.32031,63.16113,39.94043,62.32129,39.94043,61.22168z"/>
	<path d="M48.77832,60.6123v3.07812h-0.68945v-2.88867c0-0.41992,0-1.50879-1.08008-1.50879
		c-0.99902,0-1.26855,0.91895-1.26855,2.02832v2.36914H45.0498V60.8418c0-0.81934-0.25-1.54883-1.10938-1.54883
		c-0.95898,0-1.22949,0.90918-1.22949,2.02832v2.36914h-0.68945l-0.00977-4.92773h0.66992v0.60059
		c0.30957-0.49023,0.80957-0.67969,1.35938-0.67969c0.68945,0,1.19922,0.2998,1.44922,0.94922
		c0.31934-0.62988,0.86914-0.94922,1.61914-0.94922C48.28809,58.68359,48.77832,59.46289,48.77832,60.6123z"/>
	<path d="M54.98926,61.22168c0,1.46973-0.75,2.54883-2.18848,2.54883c-0.71973,0-1.26953-0.28027-1.62891-0.73926v0.65918h-0.69043
		v-6.96582h0.69043v2.69824c0.36914-0.47949,0.92871-0.75,1.62891-0.75C54.16992,58.67285,54.98926,59.68262,54.98926,61.22168z
		 M54.2998,61.22168c0-1.16895-0.59961-1.93848-1.59961-1.93848c-0.98926,0-1.58887,0.76953-1.58887,1.93848
		c0,1.11914,0.5498,1.93945,1.58887,1.93945C53.75,63.16113,54.2998,62.34082,54.2998,61.22168z"/>
	<path d="M56.3623,56.72461h0.7998v1.01953h-0.7998V56.72461z M56.42188,58.7627h0.68945v4.92773h-0.68945V58.7627z"/>
	<path d="M62.85938,60.67188v3.01855h-0.68945V60.8418c0-1.05957-0.33984-1.54883-1.0791-1.54883
		c-0.92969,0-1.46973,0.7998-1.46973,2.18848v2.20898h-0.68945V58.7627h0.68945v0.71973
		c0.32031-0.49902,0.91992-0.79883,1.62988-0.79883C62.31055,58.68359,62.85938,59.36328,62.85938,60.67188z"/>
	<path d="M68.22949,60.62207v3.06836h-0.62891l-0.04004-0.75977c-0.39062,0.5498-0.99023,0.83984-1.76953,0.83984
		c-1.06934,0-1.69922-0.55957-1.69922-1.50977c0-0.49902,0.2002-0.87891,0.55957-1.09863
		c0.37988-0.21973,0.91016-0.31055,1.87988-0.31055h1.00879v-0.22949c0-0.85938-0.44922-1.3291-1.2793-1.3291
		c-0.61914,0-1.09961,0.26953-1.49902,0.81934l-0.5-0.41992c0.53027-0.68945,1.16992-1.00879,2.00879-1.00879
		C67.50977,58.68359,68.22949,59.39258,68.22949,60.62207z M67.54004,61.48145v-0.06934h-0.94922
		c-0.90918,0-1.2998,0.05957-1.53906,0.24902c-0.17969,0.14062-0.27051,0.36035-0.27051,0.63965
		c0,0.5498,0.4707,0.90039,1.20996,0.90039C66.94043,63.20117,67.54004,62.53125,67.54004,61.48145z"/>
	<path d="M71.95996,63.64062c-0.25977,0.08008-0.51953,0.12988-0.74902,0.12988c-0.66016,0-1.13965-0.37012-1.13965-1.23926
		v-3.18848h-0.81934V58.7627h0.81934v-1.37891l0.68945-0.51953v1.89844h1.18945v0.58008h-1.18945v3.09863
		c0,0.47949,0.21973,0.69922,0.61035,0.69922c0.16992,0,0.35938-0.04004,0.5791-0.10938L71.95996,63.64062z"/>
	<path d="M73.21191,56.72461h0.7998v1.01953h-0.7998V56.72461z M73.27148,58.7627h0.68945v4.92773h-0.68945V58.7627z"/>
	<path d="M75.35156,61.22168c0-1.45898,0.9502-2.53809,2.35938-2.53809c1.39844,0,2.36816,1.0791,2.36816,2.53809
		c0,1.44922-0.95898,2.54883-2.36816,2.54883S75.35156,62.68066,75.35156,61.22168z M79.38965,61.22168
		c0-1.11914-0.62988-1.92871-1.67871-1.92871c-1.05957,0-1.66992,0.81934-1.66992,1.92871
		c0,1.11914,0.62012,1.93945,1.66992,1.93945C78.76953,63.16113,79.38965,62.32129,79.38965,61.22168z"/>
	<path d="M85.39844,60.67188v3.01855h-0.68945V60.8418c0-1.05957-0.33984-1.54883-1.0791-1.54883
		c-0.92969,0-1.46973,0.7998-1.46973,2.18848v2.20898H81.4707V58.7627h0.68945v0.71973
		c0.32031-0.49902,0.91992-0.79883,1.62988-0.79883C84.84961,58.68359,85.39844,59.36328,85.39844,60.67188z"/>
	<path d="M86.57129,62.48145l0.5791-0.25977c0.18066,0.50977,0.66016,0.93945,1.42969,0.93945
		c0.66992,0,1.09961-0.33008,1.09961-0.84961c0-1.30957-2.83887-0.49023-2.83887-2.23926c0-0.85938,0.7002-1.38867,1.68945-1.38867
		c0.78906,0,1.42871,0.3291,1.76855,1.0293l-0.5498,0.2998c-0.23926-0.44043-0.62891-0.71973-1.23926-0.71973
		c-0.60938,0-0.99902,0.25-0.99902,0.67969c0,1.16895,2.84863,0.42969,2.84863,2.29883c0,0.99902-0.81934,1.49902-1.76953,1.49902
		C87.62109,63.77051,86.83105,63.27051,86.57129,62.48145z"/>
	<path d="M94.06055,61.22168c0-1.45898,0.9502-2.53809,2.35938-2.53809c1.39844,0,2.36816,1.0791,2.36816,2.53809
		c0,1.44922-0.95898,2.54883-2.36816,2.54883S94.06055,62.68066,94.06055,61.22168z M98.09863,61.22168
		c0-1.11914-0.62988-1.92871-1.67871-1.92871c-1.05957,0-1.66992,0.81934-1.66992,1.92871
		c0,1.11914,0.62012,1.93945,1.66992,1.93945C97.47852,63.16113,98.09863,62.32129,98.09863,61.22168z"/>
	<path d="M100.47949,59.34277h-1.03906V58.7627h1.0498v-0.75879c0-1.0498,0.60938-1.35938,1.23926-1.35938
		c0.26953,0,0.56934,0.05957,0.87891,0.18945l-0.23926,0.5498c-0.20996-0.09961-0.40039-0.16016-0.57031-0.16016
		c-0.38965,0-0.62891,0.27051-0.62891,0.72949v0.80957h1.41895v0.58008h-1.41895v4.34766h-0.69043V59.34277z"/>
	<path d="M105.99023,61.24219c0-1.2998,0.72949-2.55859,2.21875-2.55859c0.87891,0,1.6084,0.43945,1.99902,1.3584l-0.66016,0.26074
		c-0.22949-0.62988-0.71973-1.00977-1.33887-1.00977c-1.0498,0-1.51953,0.93945-1.51953,1.94922
		c0,1.00879,0.46973,1.91895,1.5293,1.91895c0.62012,0,1.10938-0.37012,1.29883-1l0.63965,0.24023
		c-0.3291,0.89941-1.04883,1.36914-1.93848,1.36914C106.78906,63.77051,105.99023,62.61133,105.99023,61.24219z"/>
	<path d="M115.09766,60.62207v3.06836h-0.62891l-0.04004-0.75977c-0.38965,0.5498-0.99023,0.83984-1.76953,0.83984
		c-1.06934,0-1.69922-0.55957-1.69922-1.50977c0-0.49902,0.2002-0.87891,0.55957-1.09863
		c0.37988-0.21973,0.91016-0.31055,1.87891-0.31055h1.00977v-0.22949c0-0.85938-0.44922-1.3291-1.2793-1.3291
		c-0.61914,0-1.09961,0.26953-1.49902,0.81934l-0.5-0.41992c0.53027-0.68945,1.16992-1.00879,2.00879-1.00879
		C114.37793,58.68359,115.09766,59.39258,115.09766,60.62207z M114.4082,61.48145v-0.06934h-0.94922
		c-0.90918,0-1.2998,0.05957-1.53906,0.24902c-0.17969,0.14062-0.27051,0.36035-0.27051,0.63965
		c0,0.5498,0.46973,0.90039,1.20996,0.90039C113.80859,63.20117,114.4082,62.53125,114.4082,61.48145z"/>
	<path d="M118.82812,63.64062c-0.25977,0.08008-0.51953,0.12988-0.74902,0.12988c-0.66016,0-1.13965-0.37012-1.13965-1.23926
		v-3.18848h-0.81934V58.7627h0.81934v-1.37891l0.68945-0.51953v1.89844h1.18945v0.58008h-1.18945v3.09863
		c0,0.47949,0.21973,0.69922,0.61035,0.69922c0.16992,0,0.35938-0.04004,0.5791-0.10938L118.82812,63.64062z"/>
	<path d="M123.98828,61.41211h-3.6084c0.02051,1.0791,0.62012,1.72852,1.58887,1.72852c0.54004,0,0.96973-0.13965,1.41992-0.61914
		l0.47949,0.41895c-0.58008,0.61035-1.14941,0.83008-1.90918,0.83008c-1.49902,0-2.26855-1.11914-2.26855-2.51855
		c0-1.38965,0.75977-2.56836,2.18848-2.56836c1.50977,0,2.13867,1.17871,2.13867,2.29785
		C124.01758,61.12207,124.00781,61.29199,123.98828,61.41211z M120.37988,60.83203h2.97852
		c0-0.02051-0.00977-0.07031-0.00977-0.16016c-0.0498-0.7998-0.55957-1.40918-1.46973-1.40918
		C120.98926,59.2627,120.44043,59.96289,120.37988,60.83203z"/>
	<path d="M129.24805,64.4502c0,0.92969-0.86914,1.35938-2.1084,1.35938c-1.36914,0-2.19922-0.54004-2.19922-1.51953
		c0-0.09961,0.01074-0.16016,0.02051-0.21973l0.7998-0.67969c-0.37988-0.16992-0.63965-0.4502-0.63965-0.93945
		c0-0.39941,0.17969-0.69922,0.5293-0.93945c-0.25977-0.2998-0.41992-0.67969-0.41992-1.11914c0-1,0.81934-1.70898,1.87891-1.70898
		c0.47949,0,0.91016,0.14941,1.22949,0.39941l0.67969-0.58984l0.35938,0.4502l-0.66895,0.55957
		c0.16992,0.26953,0.26953,0.5791,0.26953,0.92969c0,1.00879-0.81934,1.67871-1.85938,1.67871
		c-0.37891,0-0.72949-0.08984-1.01953-0.25c-0.19922,0.11035-0.31934,0.29004-0.31934,0.5c0,0.5,0.62012,0.61914,1.3291,0.72949
		C128.08887,63.24023,129.24805,63.38086,129.24805,64.4502z M128.55859,64.50977c0-0.59961-0.7793-0.68945-1.59863-0.81934
		c-0.21973-0.03027-0.4502-0.07031-0.66016-0.12012l-0.66992,0.64941c-0.00977,0.05078-0.00977,0.07031-0.00977,0.09082
		c0,0.69922,0.70996,0.91895,1.5498,0.91895C128.03906,65.22949,128.55859,64.98926,128.55859,64.50977z M125.91016,60.41211
		c0,0.63965,0.45996,1.12988,1.19922,1.12988c0.74023,0,1.17969-0.48047,1.17969-1.12988c0-0.67969-0.45996-1.14941-1.16992-1.14941
		C126.41992,59.2627,125.91016,59.73242,125.91016,60.41211z"/>
	<path d="M129.99023,61.22168c0-1.45898,0.9502-2.53809,2.35938-2.53809c1.39844,0,2.36816,1.0791,2.36816,2.53809
		c0,1.44922-0.95898,2.54883-2.36816,2.54883S129.99023,62.68066,129.99023,61.22168z M134.02832,61.22168
		c0-1.11914-0.62988-1.92871-1.67871-1.92871c-1.05957,0-1.66992,0.81934-1.66992,1.92871
		c0,1.11914,0.62012,1.93945,1.66992,1.93945C133.4082,63.16113,134.02832,62.32129,134.02832,61.22168z"/>
	<path d="M139.1084,58.89355l-0.33984,0.55957c-0.23047-0.10059-0.44043-0.15039-0.65039-0.15039
		c-0.75879,0-1.31934,0.56934-1.31934,1.63965v2.74805h-0.68945V58.7627h0.68945v0.74023
		c0.36035-0.64941,0.95996-0.81934,1.45996-0.81934C138.55859,58.68359,138.83789,58.74316,139.1084,58.89355z"/>
	<path d="M140.06934,56.72461h0.7998v1.01953h-0.7998V56.72461z M140.12891,58.7627h0.68945v4.92773h-0.68945V58.7627z"/>
	<path d="M146.53711,61.41211h-3.6084c0.02051,1.0791,0.62012,1.72852,1.58887,1.72852c0.54004,0,0.96973-0.13965,1.41992-0.61914
		l0.47949,0.41895c-0.58008,0.61035-1.14941,0.83008-1.90918,0.83008c-1.49902,0-2.26855-1.11914-2.26855-2.51855
		c0-1.38965,0.75977-2.56836,2.18848-2.56836c1.50977,0,2.13867,1.17871,2.13867,2.29785
		C146.56641,61.12207,146.55664,61.29199,146.53711,61.41211z M142.92871,60.83203h2.97852
		c0-0.02051-0.00977-0.07031-0.00977-0.16016c-0.0498-0.7998-0.55957-1.40918-1.46973-1.40918
		C143.53809,59.2627,142.98926,59.96289,142.92871,60.83203z"/>
	<path d="M147.42969,62.48145l0.58008-0.25977c0.17969,0.50977,0.65918,0.93945,1.42871,0.93945
		c0.66992,0,1.09961-0.33008,1.09961-0.84961c0-1.30957-2.83887-0.49023-2.83887-2.23926c0-0.85938,0.7002-1.38867,1.68945-1.38867
		c0.78906,0,1.42871,0.3291,1.76855,1.0293l-0.5498,0.2998c-0.23926-0.44043-0.62891-0.71973-1.23926-0.71973
		c-0.60938,0-0.99902,0.25-0.99902,0.67969c0,1.16895,2.84863,0.42969,2.84863,2.29883c0,0.99902-0.81934,1.49902-1.76953,1.49902
		C148.47949,63.77051,147.68945,63.27051,147.42969,62.48145z"/>
	<path d="M15.38184,72.62207v3.06836h-0.62891l-0.04004-0.75977c-0.39062,0.5498-0.99023,0.83984-1.76953,0.83984
		c-1.06934,0-1.69922-0.55957-1.69922-1.50977c0-0.49902,0.2002-0.87891,0.55957-1.09863
		c0.37988-0.21973,0.91016-0.31055,1.87988-0.31055h1.00879v-0.22949c0-0.85938-0.44922-1.3291-1.2793-1.3291
		c-0.61914,0-1.09961,0.26953-1.49902,0.81934l-0.5-0.41992c0.53027-0.68945,1.16992-1.00879,2.00879-1.00879
		C14.66211,70.68359,15.38184,71.39258,15.38184,72.62207z M14.69238,73.48145v-0.06934h-0.94922
		c-0.90918,0-1.2998,0.05957-1.53906,0.24902c-0.17969,0.14062-0.27051,0.36035-0.27051,0.63965
		c0,0.5498,0.4707,0.90039,1.20996,0.90039C14.09277,75.20117,14.69238,74.53125,14.69238,73.48145z"/>
	<path d="M20.99121,72.67188v3.01855h-0.68945V72.8418c0-1.05957-0.33984-1.54883-1.0791-1.54883
		c-0.92969,0-1.46875,0.7998-1.46875,2.18848v2.20898h-0.69043V70.7627h0.69043v0.71973
		c0.31934-0.49902,0.91895-0.79883,1.62891-0.79883C20.44238,70.68359,20.99121,71.36328,20.99121,72.67188z"/>
	<path d="M26.81152,68.72461v6.96582h-0.68945v-0.65918c-0.36035,0.45898-0.91016,0.73926-1.62891,0.73926
		c-1.43945,0-2.18945-1.0791-2.18945-2.54883c0-1.53906,0.81934-2.54883,2.18945-2.54883c0.69922,0,1.25879,0.27051,1.62891,0.75
		v-2.69824H26.81152z M26.18164,73.22168c0-1.16895-0.59961-1.93848-1.58887-1.93848c-1,0-1.59961,0.76953-1.59961,1.93848
		c0,1.11914,0.5498,1.93945,1.59961,1.93945C25.63184,75.16113,26.18164,74.34082,26.18164,73.22168z"/>
	<path d="M30.83398,74.48145l0.58008-0.25977c0.17969,0.50977,0.65918,0.93945,1.42871,0.93945
		c0.66992,0,1.09961-0.33008,1.09961-0.84961c0-1.30957-2.83887-0.49023-2.83887-2.23926c0-0.85938,0.7002-1.38867,1.68945-1.38867
		c0.78906,0,1.42871,0.3291,1.76855,1.0293l-0.5498,0.2998c-0.23926-0.44043-0.62891-0.71973-1.23926-0.71973
		c-0.60938,0-0.99902,0.25-0.99902,0.67969c0,1.16895,2.84863,0.42969,2.84863,2.29883c0,0.99902-0.81934,1.49902-1.76953,1.49902
		C31.88379,75.77051,31.09375,75.27051,30.83398,74.48145z"/>
	<path d="M38.07227,75.64062c-0.25977,0.08008-0.51953,0.12988-0.74902,0.12988c-0.66016,0-1.13965-0.37012-1.13965-1.23926
		v-3.18848h-0.81934V70.7627h0.81934v-1.37891l0.68945-0.51953v1.89844h1.18945v0.58008h-1.18945v3.09863
		c0,0.47949,0.21973,0.69922,0.61035,0.69922c0.16992,0,0.35938-0.04004,0.5791-0.10938L38.07227,75.64062z"/>
	<path d="M40.79297,75.63086L38.7041,70.7627h0.75977l1.69922,4.05859l1.48926-4.05859h0.75977l-2.69922,6.9668h-0.73926
		L40.79297,75.63086z"/>
	<path d="M44.49316,74.62109v-5.89648h0.69043v5.85645c0,0.33984,0.11914,0.55957,0.44922,0.55957
		c0.15039,0,0.32031-0.04004,0.46973-0.08984l0.00977,0.58984c-0.20996,0.06934-0.45898,0.12988-0.67969,0.12988
		C44.86328,75.77051,44.49316,75.39062,44.49316,74.62109z"/>
	<path d="M51.13184,73.41211h-3.6084c0.02051,1.0791,0.62012,1.72852,1.58887,1.72852c0.54004,0,0.96973-0.13965,1.41992-0.61914
		l0.47949,0.41895c-0.58008,0.61035-1.14941,0.83008-1.90918,0.83008c-1.49902,0-2.26855-1.11914-2.26855-2.51855
		c0-1.38965,0.75977-2.56836,2.18848-2.56836c1.50977,0,2.13867,1.17871,2.13867,2.29785
		C51.16113,73.12207,51.15137,73.29199,51.13184,73.41211z M47.52344,72.83203h2.97852c0-0.02051-0.00977-0.07031-0.00977-0.16016
		c-0.0498-0.7998-0.55957-1.40918-1.46973-1.40918C48.13281,71.2627,47.58398,71.96289,47.52344,72.83203z"/>
	<path d="M52.02441,74.48145l0.5791-0.25977c0.18066,0.50977,0.66016,0.93945,1.42969,0.93945
		c0.66992,0,1.09961-0.33008,1.09961-0.84961c0-1.30957-2.83887-0.49023-2.83887-2.23926c0-0.85938,0.7002-1.38867,1.68945-1.38867
		c0.78906,0,1.42871,0.3291,1.76855,1.0293l-0.5498,0.2998c-0.23926-0.44043-0.62891-0.71973-1.23926-0.71973
		c-0.60938,0-0.99902,0.25-0.99902,0.67969c0,1.16895,2.84863,0.42969,2.84863,2.29883c0,0.99902-0.81934,1.49902-1.76953,1.49902
		C53.07422,75.77051,52.28418,75.27051,52.02441,74.48145z"/>
	<path d="M59.88379,68.72461h0.7998v1.01953h-0.7998V68.72461z M59.94336,70.7627h0.68945v4.92773h-0.68945V70.7627z"/>
	<path d="M66.38086,72.67188v3.01855h-0.68945V72.8418c0-1.05957-0.33984-1.54883-1.0791-1.54883
		c-0.92969,0-1.46973,0.7998-1.46973,2.18848v2.20898h-0.68945V70.7627h0.68945v0.71973
		c0.32031-0.49902,0.91992-0.79883,1.62988-0.79883C65.83203,70.68359,66.38086,71.36328,66.38086,72.67188z"/>
	<path d="M72.86133,75.64062c-0.25977,0.08008-0.51953,0.12988-0.74902,0.12988c-0.66016,0-1.13965-0.37012-1.13965-1.23926
		v-3.18848h-0.81934V70.7627h0.81934v-1.37891l0.68945-0.51953v1.89844h1.18945v0.58008h-1.18945v3.09863
		c0,0.47949,0.21973,0.69922,0.61035,0.69922c0.16992,0,0.35938-0.04004,0.5791-0.10938L72.86133,75.64062z"/>
	<path d="M78.10059,72.67188v3.01855h-0.68945V72.8418c0-1.06934-0.33984-1.54883-1.0791-1.54883
		c-0.93945,0-1.46875,0.76953-1.46875,2.12891v2.26855h-0.69043v-6.96582h0.69043v2.75781
		c0.31934-0.49902,0.91895-0.79883,1.62891-0.79883C77.55176,70.68359,78.10059,71.36328,78.10059,72.67188z"/>
	<path d="M83.70117,73.41211h-3.6084c0.02051,1.0791,0.62012,1.72852,1.58887,1.72852c0.54004,0,0.96973-0.13965,1.41992-0.61914
		l0.47949,0.41895c-0.58008,0.61035-1.14941,0.83008-1.90918,0.83008c-1.49902,0-2.26855-1.11914-2.26855-2.51855
		c0-1.38965,0.75977-2.56836,2.18848-2.56836c1.50977,0,2.13867,1.17871,2.13867,2.29785
		C83.73047,73.12207,83.7207,73.29199,83.70117,73.41211z M80.09277,72.83203h2.97852c0-0.02051-0.00977-0.07031-0.00977-0.16016
		c-0.0498-0.7998-0.55957-1.40918-1.46973-1.40918C80.70215,71.2627,80.15332,71.96289,80.09277,72.83203z"/>
	<path d="M91.9707,68.72461v6.96582h-0.68945v-0.65918c-0.36035,0.45898-0.91016,0.73926-1.62891,0.73926
		c-1.43945,0-2.18945-1.0791-2.18945-2.54883c0-1.53906,0.81934-2.54883,2.18945-2.54883c0.69922,0,1.25879,0.27051,1.62891,0.75
		v-2.69824H91.9707z M91.34082,73.22168c0-1.16895-0.59961-1.93848-1.58887-1.93848c-1,0-1.59961,0.76953-1.59961,1.93848
		c0,1.11914,0.5498,1.93945,1.59961,1.93945C90.79102,75.16113,91.34082,74.34082,91.34082,73.22168z"/>
	<path d="M97.55176,70.7627v4.92773h-0.69043v-0.70996c-0.34961,0.53027-0.97949,0.79004-1.62891,0.79004
		c-1.11914,0-1.6084-0.76953-1.6084-1.98926V70.7627h0.68945v2.84863c0,0.7998,0.13965,1.5498,1.0791,1.5498
		c0.97949,0,1.46875-0.84961,1.46875-2.12891V70.7627H97.55176z"/>
	<path d="M103.88086,73.22168c0,1.46973-0.75,2.54883-2.18848,2.54883c-0.71973,0-1.26953-0.28027-1.62988-0.73926v0.65918h-0.68945
		v-6.96582h0.68945v2.69824c0.37012-0.47949,0.92969-0.75,1.62988-0.75C103.06152,70.67285,103.88086,71.68262,103.88086,73.22168z
		 M103.19141,73.22168c0-1.16895-0.59961-1.93848-1.59961-1.93848c-0.98926,0-1.58887,0.76953-1.58887,1.93848
		c0,1.11914,0.5498,1.93945,1.58887,1.93945C102.6416,75.16113,103.19141,74.34082,103.19141,73.22168z"/>
	<path d="M105.25391,68.72461h0.7998v1.01953h-0.7998V68.72461z M105.31348,70.7627h0.69043v4.92773h-0.69043V70.7627z"/>
	<path d="M109.87207,75.64062c-0.25977,0.08008-0.51953,0.12988-0.74902,0.12988c-0.66016,0-1.13965-0.37012-1.13965-1.23926
		v-3.18848h-0.81934V70.7627h0.81934v-1.37891l0.68945-0.51953v1.89844h1.18945v0.58008h-1.18945v3.09863
		c0,0.47949,0.21973,0.69922,0.61035,0.69922c0.16992,0,0.35938-0.04004,0.5791-0.10938L109.87207,75.64062z"/>
	<path d="M114.85156,72.62207v3.06836h-0.62891l-0.04004-0.75977c-0.38965,0.5498-0.99023,0.83984-1.76953,0.83984
		c-1.06934,0-1.69922-0.55957-1.69922-1.50977c0-0.49902,0.2002-0.87891,0.55957-1.09863
		c0.37988-0.21973,0.91016-0.31055,1.87891-0.31055h1.00977v-0.22949c0-0.85938-0.44922-1.3291-1.2793-1.3291
		c-0.61914,0-1.09961,0.26953-1.49902,0.81934l-0.5-0.41992c0.53027-0.68945,1.16992-1.00879,2.00879-1.00879
		C114.13184,70.68359,114.85156,71.39258,114.85156,72.62207z M114.16211,73.48145v-0.06934h-0.94922
		c-0.90918,0-1.2998,0.05957-1.53906,0.24902c-0.17969,0.14062-0.27051,0.36035-0.27051,0.63965
		c0,0.5498,0.46973,0.90039,1.20996,0.90039C113.5625,75.20117,114.16211,74.53125,114.16211,73.48145z"/>
	<path d="M118.58203,75.64062c-0.25977,0.08008-0.51953,0.12988-0.74902,0.12988c-0.66016,0-1.13965-0.37012-1.13965-1.23926
		v-3.18848h-0.81934V70.7627h0.81934v-1.37891l0.68945-0.51953v1.89844h1.18945v0.58008h-1.18945v3.09863
		c0,0.47949,0.21973,0.69922,0.61035,0.69922c0.16992,0,0.35938-0.04004,0.5791-0.10938L118.58203,75.64062z"/>
	<path d="M119.83398,68.72461h0.7998v1.01953h-0.7998V68.72461z M119.89355,70.7627h0.69043v4.92773h-0.69043V70.7627z"/>
	<path d="M121.69434,70.7627h0.74902l1.5498,4.04785l1.55859-4.04785h0.75977l-2.01855,4.92773h-0.58984L121.69434,70.7627z"/>
	<path d="M131.1709,73.41211h-3.6084c0.02051,1.0791,0.62012,1.72852,1.58887,1.72852c0.54004,0,0.96973-0.13965,1.41992-0.61914
		l0.47949,0.41895c-0.58008,0.61035-1.14941,0.83008-1.90918,0.83008c-1.49902,0-2.26855-1.11914-2.26855-2.51855
		c0-1.38965,0.75977-2.56836,2.18848-2.56836c1.50977,0,2.13867,1.17871,2.13867,2.29785
		C131.2002,73.12207,131.19043,73.29199,131.1709,73.41211z M127.5625,72.83203h2.97852c0-0.02051-0.00977-0.07031-0.00977-0.16016
		c-0.0498-0.7998-0.55957-1.40918-1.46973-1.40918C128.17188,71.2627,127.62305,71.96289,127.5625,72.83203z"/>
	<path d="M137.37109,75.64062c-0.25977,0.08008-0.51953,0.12988-0.74902,0.12988c-0.66016,0-1.13965-0.37012-1.13965-1.23926
		v-3.18848h-0.81934V70.7627h0.81934v-1.37891l0.68945-0.51953v1.89844h1.18945v0.58008h-1.18945v3.09863
		c0,0.47949,0.21973,0.69922,0.61035,0.69922c0.16992,0,0.35938-0.04004,0.5791-0.10938L137.37109,75.64062z"/>
	<path d="M142.53125,73.41211h-3.6084c0.02051,1.0791,0.62012,1.72852,1.58887,1.72852c0.54004,0,0.96973-0.13965,1.41992-0.61914
		l0.47949,0.41895c-0.58008,0.61035-1.14941,0.83008-1.90918,0.83008c-1.49902,0-2.26855-1.11914-2.26855-2.51855
		c0-1.38965,0.75977-2.56836,2.18848-2.56836c1.50977,0,2.13867,1.17871,2.13867,2.29785
		C142.56055,73.12207,142.55078,73.29199,142.53125,73.41211z M138.92285,72.83203h2.97852
		c0-0.02051-0.00977-0.07031-0.00977-0.16016c-0.0498-0.7998-0.55957-1.40918-1.46973-1.40918
		C139.53223,71.2627,138.9834,71.96289,138.92285,72.83203z"/>
	<path d="M145.10254,73.22168l-1.79883-2.45898h0.83984l1.41895,1.97949l1.40918-1.97949h0.83984l-1.79883,2.45898l1.80859,2.46875
		h-0.84961l-1.40918-1.99902l-1.40918,1.99902h-0.84961L145.10254,73.22168z"/>
	<path d="M151.08203,75.64062c-0.25977,0.08008-0.51953,0.12988-0.74902,0.12988c-0.66016,0-1.13965-0.37012-1.13965-1.23926
		v-3.18848h-0.81934V70.7627h0.81934v-1.37891l0.68945-0.51953v1.89844h1.18945v0.58008h-1.18945v3.09863
		c0,0.47949,0.21973,0.69922,0.61035,0.69922c0.16992,0,0.35938-0.04004,0.5791-0.10938L151.08203,75.64062z"/>
</g>
</svg>
