<svg xmlns="http://www.w3.org/2000/svg" width="261" height="53.721" viewBox="0 0 261 53.721">
  <g id="Raggruppa_22303" data-name="Raggruppa 22303" transform="translate(-39 -183.279)">
    <circle id="Ellisse_469" data-name="Ellisse 469" cx="21.231" cy="21.231" r="21.231" transform="translate(142.625 183.926)" fill="none" stroke="#707070" stroke-linecap="round" stroke-width="1" stroke-dasharray="0.1 3"/>
    <g id="Group" transform="translate(225.395 50.82) rotate(90)">
      <path id="Path" d="M175.18,95.457l-42.55.167" fill="none" stroke="#444" stroke-width="0.5"/>
      <rect id="Rectangle" width="0.835" height="2.757" transform="translate(175.009 94.123) rotate(-0.172)" fill="#444"/>
      <rect id="Rectangle-2" width="0.835" height="2.757" transform="translate(132.459 94.289) rotate(-0.178)" fill="#444"/>
    </g>
    <g id="Group-2" transform="translate(23.764 137.5)">
      <path id="Path-2" d="M184.893,78.011V58.875" fill="none" stroke="#444" stroke-width="0.5"/>
      <rect id="Rectangle-3" width="2.673" height="0.835" transform="translate(183.473 77.76)" fill="#444"/>
      <rect id="Rectangle-4" width="2.673" height="0.835" transform="translate(183.473 58.624)" fill="#444"/>
    </g>
    <g id="lunghezza-opera" transform="translate(-70.236 93.938)" style="isolation: isolate">
      <text id="Lunghezza_opera_in_caratteri_" data-name="Lunghezza opera 
in caratteri " transform="translate(189.236 111.062)" font-size="10" font-family="HKGrotesk-Regular, HK Grotesk" style="isolation: isolate"><tspan x="-79.46" y="0">Lunghezza opera </tspan><tspan x="-51.87" y="13">in caratteri </tspan></text>
    </g>
    <g id="Group-6" transform="translate(162.33 215.483)">
      <path id="Path-12" d="M152.566,89.295h.835" transform="translate(-152.566 -77.983)" fill="none" stroke="#444" stroke-width="0.25"/>
      <path id="Path-13" d="M155.156,77.983h43.653" transform="translate(-152.566 -77.983)" fill="none" stroke="#444" stroke-width="0.25" stroke-dasharray="2.114 2.114"/>
    </g>
    <text id="Quantità_di_testo_dubitativo_in_caratteri" data-name="Quantità di testo 
dubitativo in caratteri" transform="translate(219 196)" font-size="10" font-family="HKGrotesk-Regular, HK Grotesk"><tspan x="0" y="10">Quantità di testo </tspan><tspan x="0" y="23">dubitativo in </tspan><tspan x="0" y="36">caratteri</tspan></text>
    <path id="Tracciato_124405" data-name="Tracciato 124405" d="M1181.445,499.882c-.606-.8-1.1-.875-1.7-.427a2.552,2.552,0,0,1-4.079-2.248c.114-1.389-.374-2.259-2.338-2.421a3.61,3.61,0,0,1,.594-7.195,3.516,3.516,0,0,1,.736.139c1.609.48,2.5.019,3-1.655a3.757,3.757,0,0,1,7.305,1.69c-.181,1.084.125,1.507.859,1.634a2.553,2.553,0,0,1,1.142,4.528c-.588.458-.652.957-.031,1.755a3.456,3.456,0,0,1-5.458,4.242Z" transform="translate(-1017.017 -286.393)" fill="#c7cd60"/>
  </g>
</svg>
