<svg xmlns="http://www.w3.org/2000/svg" width="300.5" height="115.107" viewBox="0 0 300.5 115.107">
  <g id="Raggruppa_1312" data-name="Raggruppa 1312" transform="translate(275.5 -339.393)">
    <g id="Raggruppa_1309" data-name="Raggruppa 1309" transform="translate(-338.445 -35)">
      <g id="Raggruppa_1304" data-name="Raggruppa 1304" transform="translate(-173.807 328.5)">
        <path id="Tracciato_116472" data-name="Tracciato 116472" d="M27.452,0A27.452,27.452,0,1,1,0,27.452,27.452,27.452,0,0,1,27.452,0Z" transform="translate(347.528 46.393)" fill="rgba(0,0,0,0)" stroke="#707070" stroke-linecap="round" stroke-width="1" stroke-dasharray="0.1 3"/>
        <circle id="Ellisse_460" data-name="Ellisse 460" cx="2.538" cy="2.538" r="2.538" transform="translate(372.538 71.014)" fill="#10bed2"/>
        <circle id="Ellisse_461" data-name="Ellisse 461" cx="4.11" cy="4.11" r="4.11" transform="translate(371.281 83.314)" fill="#f36"/>
        <circle id="Ellisse_462" data-name="Ellisse 462" cx="1.605" cy="1.605" r="1.605" transform="translate(373.793 58.457)" fill="#ffd93b"/>
        <circle id="Ellisse_463" data-name="Ellisse 463" cx="4.407" cy="4.407" r="4.407" transform="translate(357.469 69.758)" fill="#10bed2"/>
        <circle id="Ellisse_464" data-name="Ellisse 464" cx="3.654" cy="3.654" r="3.654" transform="translate(358.725 55.944)" fill="#ffd93b"/>
        <circle id="Ellisse_465" data-name="Ellisse 465" cx="1.914" cy="1.914" r="1.914" transform="translate(359.981 85.825)" fill="#f36"/>
        <circle id="Ellisse_466" data-name="Ellisse 466" cx="3.026" cy="3.026" r="3.026" transform="translate(386.349 71.014)" fill="#10bed2"/>
        <circle id="Ellisse_468" data-name="Ellisse 468" cx="5.974" cy="5.974" r="5.974" transform="translate(383.837 54.688)" fill="#ffd93b"/>
      </g>
      <g id="lunghezza-opera" transform="translate(-210 332.804)" style="isolation: isolate">
        <text id="contenuto" transform="translate(324.412 57.696)" fill="#ffd337" font-size="10" font-family="HKGrotesk-Regular, HK Grotesk" style="isolation: isolate"><tspan x="0" y="0">contenuto</tspan></text>
      </g>
      <g id="lunghezza-opera-2" data-name="lunghezza-opera" transform="translate(-190.813 357.5)" style="isolation: isolate">
        <text id="negazione" transform="translate(339.027 95.661) rotate(-45)" font-size="10" font-family="HKGrotesk-Regular, HK Grotesk" style="isolation: isolate"><tspan x="-45.48" y="0">negazione</tspan></text>
      </g>
      <g id="lunghezza-opera-3" data-name="lunghezza-opera" transform="translate(-188.114 343.5)" style="isolation: isolate">
        <text id="riformulazione" transform="translate(399.47 95.661) rotate(-45)" font-size="10" font-family="HKGrotesk-Regular, HK Grotesk" style="isolation: isolate"><tspan x="-65.59" y="0">riformulazione</tspan></text>
      </g>
      <g id="lunghezza-opera-4" data-name="lunghezza-opera" transform="translate(-213.001 357.5)" style="isolation: isolate">
        <text id="esitazione" transform="translate(385.215 95.661) rotate(-45)" font-size="10" font-family="HKGrotesk-Regular, HK Grotesk" style="isolation: isolate"><tspan x="-45.22" y="0">esitazione</tspan></text>
      </g>
      <g id="lunghezza-opera-5" data-name="lunghezza-opera" transform="translate(-228 348.5)" style="isolation: isolate">
        <text id="Stili" transform="translate(291.332 119.889)" font-size="10" font-family="HKGrotesk-Regular, HK Grotesk" style="isolation: isolate"><tspan x="0" y="0">Stili</tspan></text>
      </g>
      <g id="lunghezza-opera-6" data-name="lunghezza-opera" transform="translate(-210 335.5)" style="isolation: isolate">
        <text id="forma" transform="translate(324.412 69.326)" fill="#00bfd3" font-size="10" font-family="HKGrotesk-Regular, HK Grotesk" style="isolation: isolate"><tspan x="0" y="0">forma</tspan></text>
      </g>
      <g id="lunghezza-opera-7" data-name="lunghezza-opera" transform="translate(175.242 83.055) rotate(90)" style="isolation: isolate">
        <text id="Categorie" transform="translate(307.445 112.297) rotate(-90)" font-size="10" font-family="HKGrotesk-Regular, HK Grotesk" style="isolation: isolate"><tspan x="0" y="0">Categorie</tspan></text>
      </g>
      <g id="lunghezza-opera-8" data-name="lunghezza-opera" transform="translate(-210 337.5)" style="isolation: isolate">
        <text id="significato" transform="translate(324.412 80.956)" fill="#f36" font-size="10" font-family="HKGrotesk-Regular, HK Grotesk" style="isolation: isolate"><tspan x="0" y="0">significato</tspan></text>
      </g>
      <line id="Linea_612" data-name="Linea 612" x2="23" transform="translate(160.945 388)" fill="none" stroke="#444" stroke-width="0.5"/>
      <path id="Tracciato_116477" data-name="Tracciato 116477" d="M11.917,0H50.4" transform="translate(131.596 402)" fill="none" stroke="#444" stroke-width="0.5"/>
      <path id="Tracciato_116473" data-name="Tracciato 116473" d="M-19.848,0H6.667" transform="translate(178.261 416)" fill="none" stroke="#444" stroke-width="0.5"/>
      <g id="lunghezza-opera-9" data-name="lunghezza-opera" transform="translate(76 335.051)" style="isolation: isolate">
        <text id="Quantità_di_testo_dubitativo_in_caratteri" data-name="Quantità di testo 
dubitativo in caratteri" transform="translate(177.646 55.449)" font-size="10" font-family="HKGrotesk-Regular, HK Grotesk" style="isolation: isolate"><tspan x="0" y="0">Quantità di testo </tspan><tspan x="0" y="13">dubitativo in caratteri</tspan></text>
      </g>
      <g id="Group-2" transform="translate(63 323.896)">
        <path id="Path-2" d="M184.893,71.346V58.875" transform="translate(0 0)" fill="none" stroke="#444" stroke-width="0.5"/>
        <rect id="Rectangle-3" width="2.673" height="0.835" transform="translate(183.473 71.096)" fill="#444"/>
        <rect id="Rectangle-4" width="2.673" height="0.835" transform="translate(183.473 58.624)" fill="#444"/>
      </g>
      <g id="Group-5" transform="translate(213.156 383.026)">
        <path id="Path-10" d="M155.156,59.208h33.38" transform="translate(-155.156 -59.208)" fill="none" stroke="#444" stroke-width="0.25" stroke-dasharray="2.114 2.114"/>
      </g>
      <g id="Group-6" transform="translate(213.156 395.483)">
        <path id="Path-13" d="M155.156,77.983h34.717" transform="translate(-155.156 -77.983)" fill="none" stroke="#444" stroke-width="0.25" stroke-dasharray="2.114 2.114"/>
      </g>
      <text id="La_mancanza_di_un_pallino_indica_l_assenza_della_combinazione_di_categoria_e_stile." data-name="La mancanza di un pallino indica l’assenza della combinazione di categoria e stile." transform="translate(253.445 426.5)" font-size="10" font-family="HKGrotesk-Regular, HK Grotesk"><tspan x="0" y="10">La mancanza di un </tspan><tspan x="0" y="23">pallino indica l’assenza </tspan><tspan x="0" y="36">della combinazione di </tspan><tspan x="0" y="49">categoria e stile.</tspan></text>
      <path id="Tracciato_124412" data-name="Tracciato 124412" d="M202.6,467.045h3.209A4.455,4.455,0,0,0,208.9,465.8l11.3-10.637h0" transform="translate(-268.971 267.118) rotate(-47)" fill="none" stroke="#000" stroke-width="0.5"/>
      <path id="Tracciato_124413" data-name="Tracciato 124413" d="M169.561,463.572s34.308,3.473,36.246,3.473A4.455,4.455,0,0,0,208.9,465.8l1.966-1.834" transform="translate(-281.971 258.118) rotate(-47)" fill="none" stroke="#000" stroke-width="0.5"/>
      <path id="Tracciato_124414" data-name="Tracciato 124414" d="M157.85,460.745s46.019,6.3,47.957,6.3,2.145-.275,2.145-.275" transform="translate(-294.971 252.118) rotate(-47)" fill="none" stroke="#000" stroke-width="0.5"/>
    </g>
    <g id="Raggruppa_4731" data-name="Raggruppa 4731" transform="translate(361.973 768.53) rotate(-150)" opacity="0.3">
      <path id="Tracciato_109125" data-name="Tracciato 109125" d="M628.646,92.56a130.217,130.217,0,0,1-27.959,2.94c-3.143,0-6.237-.1-9.642-.333" transform="translate(-17.125)" fill="none" stroke="#000" stroke-miterlimit="10" stroke-width="0.5"/>
      <g id="Raggruppa_1315" data-name="Raggruppa 1315" transform="translate(609.141 91.011)">
        <path id="Tracciato_109126" data-name="Tracciato 109126" d="M615.731,91.011l-.231.444,2.187,1.137-1.294,2.1.426.262L618.4,92.4Z" transform="translate(-615.5 -91.011)"/>
      </g>
    </g>
  </g>
</svg>
