<?xml version="1.0" encoding="utf-8"?>
<!-- Generator: Adobe Illustrator 25.0.0, SVG Export Plug-In . SVG Version: 6.00 Build 0)  -->
<svg version="1.1" id="Livello_1" xmlns="http://www.w3.org/2000/svg" xmlns:xlink="http://www.w3.org/1999/xlink" x="0px" y="0px"
	 viewBox="0 0 300 99" enable-background="new 0 0 300 99" xml:space="preserve">
<g id="Raggruppa_1305" transform="translate(-482 520.065)">
	<path id="Rettangolo_9797" fill="#FF3366" d="M711.20001-447.5L711.20001-447.5c2.20001,0,3.90002,1.70001,3.90002,3.89999l0,0
		c0,2.20001-1.70001,3.89999-3.90002,3.89999l0,0c-2.20001,0-3.90002-1.70001-3.90002-3.89999l0,0
		C707.29999-445.79999,709-447.5,711.20001-447.5z"/>
	<path id="Rettangolo_9798" fill="#FF5D5B" d="M703-460.60001L703-460.60001c2.20001,0,3.90002,1.70001,3.90002,3.89999l0,0
		c0,2.20001-1.70001,3.89999-3.90002,3.89999l0,0c-2.20001,0-3.90002-1.70001-3.90002-3.89999l0,0
		C699.09998-458.79999,700.79999-460.60001,703-460.60001z"/>
	<path id="Rettangolo_9799" fill="#FFD93B" d="M678.40002-499.70001L678.40002-499.70001c2.20001,0,3.90002,1.70001,3.90002,3.89999
		l0,0c0,2.20001-1.70001,3.89999-3.90002,3.89999l0,0c-2.20001,0-3.90002-1.70001-3.90002-3.89999l0,0
		C674.5-498,676.20001-499.70001,678.40002-499.70001z"/>
	<path id="Rettangolo_9800" fill="#C3D261" d="M694.70001-499.60001L694.70001-499.60001c2.20001,0,3.90002,1.70001,3.90002,3.89999
		l0,0c0,2.20001-1.70001,3.89999-3.90002,3.89999l0,0c-2.20001,0-3.90002-1.70001-3.90002-3.89999l0,0
		C690.79999-497.89999,692.5-499.60001,694.70001-499.60001z"/>
	<path id="Rettangolo_9801" fill="#88CC87" d="M711-499.60001L711-499.60001c2.20001,0,3.90002,1.70001,3.90002,3.89999l0,0
		c0,2.20001-1.70001,3.89999-3.90002,3.89999l0,0c-2.20001,0-3.90002-1.70001-3.90002-3.89999l0,0
		C707.09998-497.79999,708.79999-499.60001,711-499.60001z"/>
	<path id="Rettangolo_9802" fill="#4CC5AC" d="M727.29999-499.5L727.29999-499.5c2.20001,0,3.90002,1.70001,3.90002,3.89999l0,0
		c0,2.20001-1.70001,3.89999-3.90002,3.89999l0,0c-2.20001,0-3.90002-1.70001-3.90002-3.89999l0,0
		C723.40002-497.79999,725.09998-499.5,727.29999-499.5z"/>
	<path id="Rettangolo_9803" fill="#10BED2" d="M743.59998-499.39999L743.59998-499.39999c2.20001,0,3.90002,1.70001,3.90002,3.89999
		l0,0c0,2.20001-1.70001,3.89999-3.90002,3.89999l0,0c-2.20001,0-3.90002-1.70001-3.90002-3.89999l0,0
		C739.70001-497.70001,741.40002-499.39999,743.59998-499.39999z"/>
	<path id="Rettangolo_9804" fill="#FF3366" d="M711.20001-447.5L711.20001-447.5c2.20001,0,3.90002,1.70001,3.90002,3.89999l0,0
		c0,2.20001-1.70001,3.89999-3.90002,3.89999l0,0c-2.20001,0-3.90002-1.70001-3.90002-3.89999l0,0
		C707.29999-445.79999,709-447.5,711.20001-447.5z"/>
	<path id="Rettangolo_9805" fill="#C35681" d="M719.29999-460.5L719.29999-460.5c2.20001,0,3.90002,1.70001,3.90002,3.89999l0,0
		c0,2.20001-1.70001,3.89999-3.90002,3.89999l0,0c-2.20001,0-3.90002-1.70001-3.90002-3.89999l0,0
		C715.40002-458.70001,717.09998-460.5,719.29999-460.5z"/>
	<g id="Raggruppa_1292">
		<path id="Rettangolo_9806" fill="#FF8651" d="M694.79999-473.60001L694.79999-473.60001
			c2.20001,0,3.90002,1.70001,3.90002,3.89999l0,0c0,2.20001-1.70001,3.89999-3.90002,3.89999l0,0
			c-2.20001,0-3.90002-1.70001-3.90002-3.89999l0,0C690.90002-471.89999,692.59998-473.60001,694.79999-473.60001z"/>
		<path id="Rettangolo_9807" fill="#C38077" d="M711.09998-473.5L711.09998-473.5c2.20001,0,3.90002,1.70001,3.90002,3.89999l0,0
			c0,2.20001-1.70001,3.89999-3.90002,3.89999l0,0c-2.20001,0-3.90002-1.70001-3.90002-3.89999l0,0
			C707.20001-471.79999,708.90002-473.5,711.09998-473.5z"/>
		<path id="Rettangolo_9808" fill="#88799C" d="M727.40002-473.5L727.40002-473.5c2.20001,0,3.90002,1.70001,3.90002,3.89999l0,0
			c0,2.20001-1.70001,3.89999-3.90002,3.89999l0,0c-2.20001,0-3.90002-1.70001-3.90002-3.89999l0,0
			C723.5-471.70001,725.20001-473.5,727.40002-473.5z"/>
	</g>
	<g id="Raggruppa_1293">
		<path id="Rettangolo_9809" fill="#FFB046" d="M686.59998-486.70001L686.59998-486.70001
			c2.20001,0,3.90002,1.70001,3.90002,3.89999l0,0c0,2.20001-1.70001,3.89999-3.90002,3.89999l0,0
			c-2.20001,0-3.90002-1.70001-3.90002-3.89999l0,0C682.70001-484.89999,684.40002-486.70001,686.59998-486.70001z"/>
		<path id="Rettangolo_9810" fill="#C3A96C" d="M702.90002-486.60001L702.90002-486.60001
			c2.20001,0,3.90002,1.70001,3.90002,3.89999l0,0c0,2.20001-1.70001,3.89999-3.90002,3.89999l0,0
			c-2.20001,0-3.90002-1.70001-3.90002-3.89999l0,0C699-484.79999,700.70001-486.60001,702.90002-486.60001z"/>
		<path id="Rettangolo_9811" fill="#88A291" d="M719.20001-486.5L719.20001-486.5c2.20001,0,3.90002,1.70001,3.90002,3.89999l0,0
			c0,2.20001-1.70001,3.89999-3.90002,3.89999l0,0c-2.20001,0-3.90002-1.70001-3.90002-3.89999l0,0
			C715.29999-484.79999,717-486.5,719.20001-486.5z"/>
		<path id="Rettangolo_9812" fill="#4C9BB7" d="M735.5-486.5L735.5-486.5c2.20001,0,3.90002,1.70001,3.90002,3.89999l0,0
			c0,2.20001-1.70001,3.89999-3.90002,3.89999l0,0c-2.20001,0-3.90002-1.70001-3.90002-3.89999l0,0
			C731.59998-484.70001,733.29999-486.5,735.5-486.5z"/>
	</g>
	<path id="Rettangolo_9813" fill="#10BED2" d="M743.59998-499.39999L743.59998-499.39999c2.20001,0,3.90002,1.70001,3.90002,3.89999
		l0,0c0,2.20001-1.70001,3.89999-3.90002,3.89999l0,0c-2.20001,0-3.90002-1.70001-3.90002-3.89999l0,0
		C739.70001-497.70001,741.40002-499.39999,743.59998-499.39999z"/>
</g>
<g id="Raggruppa_7794" transform="translate(-510.65 678.371) rotate(-16)" opacity="0.3">
	<path id="Tracciato_109125" fill="none" stroke="#000000" stroke-width="0.5" stroke-miterlimit="10" d="M857.29962-417.50027
		c-5.5,1.70001-11.09998,2.5-16.79999,2.5c-15.70001,0-29.29999-6-36.40002-15"/>
	<g id="Raggruppa_1315" transform="translate(604.614 87.959)">
		<path id="Tracciato_109126" d="M249.49965-507.80026l-0.3,0.60001l3,1.60001l-1.8,2.89999l0.60001,0.39999l2.2-3.5
			L249.49965-507.80026z"/>
	</g>
</g>
<g>
	<path d="M1.18066,3.53369h1.98828c1.47949,0,2.29883,0.69971,2.29883,1.94922c0,1.26904-0.8291,1.97852-2.29883,1.97852h-1.2793
		V10.5H1.18066V3.53369z M3.09961,6.80225c1.08887,0,1.64844-0.4502,1.64844-1.30957S4.18848,4.19336,3.09961,4.19336H1.88965
		v2.60889H3.09961z"/>
	<path d="M10.37891,8.22119h-3.6084c0.02051,1.07959,0.62012,1.729,1.58887,1.729c0.54004,0,0.96973-0.13965,1.41992-0.61963
		l0.47949,0.41992c-0.58008,0.60938-1.14941,0.82959-1.90918,0.82959c-1.49902,0-2.26855-1.11963-2.26855-2.51855
		c0-1.38965,0.75977-2.56885,2.18848-2.56885c1.50977,0,2.13867,1.1792,2.13867,2.29883
		C10.4082,7.93164,10.39844,8.10107,10.37891,8.22119z M6.77051,7.6416h2.97852c0-0.02002-0.00977-0.06982-0.00977-0.16016
		c-0.0498-0.79932-0.55957-1.40918-1.46973-1.40918C7.37988,6.07227,6.83105,6.77197,6.77051,7.6416z"/>
	<path d="M14.79883,5.70264l-0.33984,0.55957c-0.23047-0.09961-0.44043-0.1499-0.65039-0.1499
		c-0.75879,0-1.31836,0.56982-1.31836,1.63916V10.5H11.7998V5.57275h0.69043V6.3125c0.35938-0.6499,0.95898-0.81982,1.45898-0.81982
		C14.24902,5.49268,14.52832,5.55273,14.79883,5.70264z"/>
	<path d="M14.96094,8.05127c0-1.29932,0.72949-2.55859,2.21875-2.55859c0.87891,0,1.6084,0.43994,1.99902,1.35938l-0.66016,0.25977
		c-0.22949-0.62939-0.71973-1.00928-1.33887-1.00928c-1.0498,0-1.51953,0.93945-1.51953,1.94873
		c0,1.00977,0.46973,1.91895,1.5293,1.91895c0.62012,0,1.10938-0.36963,1.29883-0.99951l0.63965,0.24023
		c-0.3291,0.89941-1.04883,1.36914-1.93848,1.36914C15.75977,10.58008,14.96094,9.42041,14.96094,8.05127z"/>
	<path d="M24.29883,8.22119h-3.6084c0.02051,1.07959,0.62012,1.729,1.58887,1.729c0.54004,0,0.96973-0.13965,1.41992-0.61963
		l0.47949,0.41992c-0.58008,0.60938-1.14941,0.82959-1.90918,0.82959c-1.49902,0-2.26855-1.11963-2.26855-2.51855
		c0-1.38965,0.75977-2.56885,2.18848-2.56885c1.50977,0,2.13867,1.1792,2.13867,2.29883
		C24.32812,7.93164,24.31836,8.10107,24.29883,8.22119z M20.69043,7.6416h2.97852c0-0.02002-0.00977-0.06982-0.00977-0.16016
		c-0.0498-0.79932-0.55957-1.40918-1.46973-1.40918C21.2998,6.07227,20.75098,6.77197,20.69043,7.6416z"/>
	<path d="M29.64746,7.48145V10.5h-0.68945V7.65137c0-1.05908-0.33984-1.54883-1.0791-1.54883
		c-0.92969,0-1.46875,0.79932-1.46875,2.18848V10.5h-0.69043V5.57275h0.69043v0.71973c0.31934-0.5,0.91895-0.7998,1.62891-0.7998
		C29.09863,5.49268,29.64746,6.17236,29.64746,7.48145z"/>
	<path d="M33.39844,10.4502c-0.25977,0.07959-0.51953,0.12988-0.74902,0.12988c-0.66016,0-1.13965-0.37012-1.13965-1.23926V6.15234
		h-0.81934V5.57275h0.81934V4.19336l0.68945-0.51953v1.89893h1.18945v0.57959h-1.18945v3.09814
		c0,0.47998,0.21973,0.69971,0.61035,0.69971c0.16992,0,0.35938-0.04004,0.5791-0.10986L33.39844,10.4502z"/>
	<path d="M38.37793,7.43164V10.5h-0.62891l-0.04004-0.75977c-0.39062,0.5498-0.99023,0.83984-1.76953,0.83984
		c-1.06934,0-1.69922-0.56006-1.69922-1.50928c0-0.49951,0.2002-0.87939,0.55957-1.09961
		c0.37988-0.21973,0.91016-0.30957,1.87988-0.30957h1.00879V7.43164c0-0.85938-0.44922-1.3291-1.2793-1.3291
		c-0.61914,0-1.09961,0.26953-1.49902,0.81934l-0.5-0.41943c0.53027-0.68994,1.16992-1.00977,2.00879-1.00977
		C37.6582,5.49268,38.37793,6.20215,38.37793,7.43164z M37.68848,8.29102V8.22119h-0.94922c-0.90918,0-1.2998,0.06006-1.53906,0.25
		c-0.17969,0.13965-0.27051,0.35986-0.27051,0.63965c0,0.5498,0.4707,0.89941,1.20996,0.89941
		C37.08887,10.01025,37.68848,9.34082,37.68848,8.29102z"/>
	<path d="M43.89746,11.25977c0,0.9292-0.86914,1.35889-2.1084,1.35889c-1.36914,0-2.19922-0.53906-2.19922-1.51904
		c0-0.1001,0.01074-0.15967,0.02051-0.21973l0.7998-0.67969c-0.37988-0.16992-0.63965-0.44971-0.63965-0.93945
		c0-0.3999,0.17969-0.69971,0.5293-0.93945c-0.25977-0.2998-0.41992-0.67969-0.41992-1.11963
		c0-0.99951,0.81934-1.70898,1.87891-1.70898c0.47949,0,0.90918,0.1499,1.22949,0.3999l0.67969-0.58984l0.35938,0.44971
		L43.3584,6.3125c0.16992,0.26953,0.26953,0.57959,0.26953,0.9292c0,1.00977-0.81934,1.6792-1.85938,1.6792
		c-0.37988,0-0.72949-0.08984-1.01855-0.25c-0.2002,0.10986-0.32031,0.29004-0.32031,0.5c0,0.49951,0.62012,0.61963,1.3291,0.72949
		C42.73828,10.05029,43.89746,10.18994,43.89746,11.25977z M43.20801,11.31934c0-0.59961-0.7793-0.68945-1.59863-0.81934
		c-0.2207-0.02979-0.4502-0.06982-0.66016-0.12012l-0.66992,0.6499c-0.00977,0.0498-0.00977,0.06982-0.00977,0.08984
		c0,0.69971,0.70996,0.91943,1.5498,0.91943C42.68848,12.03906,43.20801,11.79932,43.20801,11.31934z M40.55957,7.22168
		c0,0.63965,0.45996,1.12939,1.19922,1.12939c0.74023,0,1.17969-0.47949,1.17969-1.12939c0-0.67969-0.45996-1.14941-1.16992-1.14941
		C41.06934,6.07227,40.55957,6.54199,40.55957,7.22168z"/>
	<path d="M48.96875,8.22119h-3.6084c0.02051,1.07959,0.62012,1.729,1.58887,1.729c0.54004,0,0.96973-0.13965,1.41992-0.61963
		l0.47949,0.41992c-0.58008,0.60938-1.14941,0.82959-1.90918,0.82959c-1.49902,0-2.26855-1.11963-2.26855-2.51855
		c0-1.38965,0.75977-2.56885,2.18848-2.56885c1.50977,0,2.13867,1.1792,2.13867,2.29883
		C48.99805,7.93164,48.98828,8.10107,48.96875,8.22119z M45.36035,7.6416h2.97852c0-0.02002-0.00977-0.06982-0.00977-0.16016
		c-0.0498-0.79932-0.55957-1.40918-1.46973-1.40918C45.96973,6.07227,45.4209,6.77197,45.36035,7.6416z"/>
	<path d="M52.69043,8.03125c0-1.45898,0.9502-2.53857,2.35938-2.53857c1.39844,0,2.36816,1.07959,2.36816,2.53857
		c0,1.44922-0.95898,2.54883-2.36816,2.54883S52.69043,9.49072,52.69043,8.03125z M56.72852,8.03125
		c0-1.11914-0.62988-1.92871-1.67871-1.92871c-1.05957,0-1.66992,0.81934-1.66992,1.92871
		c0,1.11963,0.62012,1.93896,1.66992,1.93896C56.1084,9.97021,56.72852,9.13086,56.72852,8.03125z"/>
	<path d="M59.10938,6.15234h-1.03906V5.57275h1.0498V4.81299c0-1.04932,0.60938-1.35889,1.23926-1.35889
		c0.26953,0,0.56934,0.05957,0.87891,0.18945l-0.23926,0.5498c-0.20996-0.09961-0.40039-0.15967-0.57031-0.15967
		c-0.38965,0-0.62891,0.26953-0.62891,0.72949v0.80957h1.41895v0.57959H59.7998V10.5h-0.69043V6.15234z"/>
	<path d="M68.83789,5.57275V10.5h-0.69043V9.79053c-0.34961,0.52979-0.97949,0.78955-1.62891,0.78955
		c-1.11914,0-1.6084-0.76953-1.6084-1.98926V5.57275h0.68945v2.84863c0,0.79932,0.13965,1.54883,1.0791,1.54883
		c0.97949,0,1.46875-0.84961,1.46875-2.12891V5.57275H68.83789z"/>
	<path d="M70.12988,9.29053l0.5791-0.25977c0.18066,0.50977,0.66016,0.93945,1.42969,0.93945
		c0.66992,0,1.09961-0.32959,1.09961-0.84961c0-1.30908-2.83887-0.48975-2.83887-2.23877c0-0.85938,0.7002-1.38916,1.68945-1.38916
		c0.78906,0,1.42871,0.33008,1.76855,1.0293l-0.5498,0.2998c-0.23926-0.43945-0.62891-0.71924-1.23926-0.71924
		c-0.60938,0-0.99902,0.24951-0.99902,0.67969c0,1.16895,2.84863,0.42969,2.84863,2.29834
		c0,0.99951-0.81934,1.49951-1.76953,1.49951C71.17969,10.58008,70.38965,10.08008,70.12988,9.29053z"/>
	<path d="M79.16797,8.22119h-3.6084c0.02051,1.07959,0.62012,1.729,1.58887,1.729c0.54004,0,0.96973-0.13965,1.41992-0.61963
		l0.47949,0.41992c-0.58008,0.60938-1.14941,0.82959-1.90918,0.82959c-1.49902,0-2.26855-1.11963-2.26855-2.51855
		c0-1.38965,0.75977-2.56885,2.18848-2.56885c1.50977,0,2.13867,1.1792,2.13867,2.29883
		C79.19727,7.93164,79.1875,8.10107,79.16797,8.22119z M75.55957,7.6416h2.97852c0-0.02002-0.00977-0.06982-0.00977-0.16016
		c-0.0498-0.79932-0.55957-1.40918-1.46973-1.40918C76.16895,6.07227,75.62012,6.77197,75.55957,7.6416z"/>
	<path d="M82.88965,8.03125c0-1.45898,0.9502-2.53857,2.35938-2.53857c1.39844,0,2.36816,1.07959,2.36816,2.53857
		c0,1.44922-0.95898,2.54883-2.36816,2.54883S82.88965,9.49072,82.88965,8.03125z M86.92773,8.03125
		c0-1.11914-0.62988-1.92871-1.67871-1.92871c-1.05957,0-1.66992,0.81934-1.66992,1.92871
		c0,1.11963,0.62012,1.93896,1.66992,1.93896C86.30762,9.97021,86.92773,9.13086,86.92773,8.03125z"/>
	<path d="M89.30859,6.15234h-1.03906V5.57275h1.0498V4.81299c0-1.04932,0.60938-1.35889,1.23926-1.35889
		c0.26953,0,0.56934,0.05957,0.87891,0.18945l-0.23926,0.5498c-0.20996-0.09961-0.40039-0.15967-0.57031-0.15967
		c-0.38965,0-0.62891,0.26953-0.62891,0.72949v0.80957h1.41895v0.57959h-1.41895V10.5h-0.69043V6.15234z"/>
	<path d="M0.54102,20.05225c0-1.2998,0.72949-2.55859,2.21875-2.55859c0.87891,0,1.6084,0.43945,1.99902,1.3584l-0.66016,0.26074
		c-0.22949-0.62988-0.71973-1.00977-1.33887-1.00977c-1.0498,0-1.51953,0.93945-1.51953,1.94922
		c0,1.00879,0.46973,1.91895,1.5293,1.91895c0.62012,0,1.10938-0.37012,1.29883-1l0.63965,0.24023
		c-0.3291,0.89941-1.04883,1.36914-1.93848,1.36914C1.33984,22.58057,0.54102,21.42139,0.54102,20.05225z"/>
	<path d="M9.64844,19.43213v3.06836H9.01953l-0.04004-0.75977c-0.38965,0.5498-0.99023,0.83984-1.76953,0.83984
		c-1.06934,0-1.69922-0.55957-1.69922-1.50977c0-0.49902,0.2002-0.87891,0.55957-1.09863
		c0.37988-0.21973,0.91016-0.31055,1.87891-0.31055h1.00977v-0.22949c0-0.85938-0.44922-1.3291-1.2793-1.3291
		c-0.61914,0-1.09961,0.26953-1.49902,0.81934l-0.5-0.41992c0.53027-0.68945,1.16992-1.00879,2.00879-1.00879
		C8.92871,17.49365,9.64844,18.20264,9.64844,19.43213z M8.95898,20.2915v-0.06934H8.00977
		c-0.90918,0-1.2998,0.05957-1.53906,0.24902c-0.17969,0.14062-0.27051,0.36035-0.27051,0.63965
		c0,0.5498,0.46973,0.90039,1.20996,0.90039C8.35938,22.01123,8.95898,21.34131,8.95898,20.2915z"/>
	<path d="M13.37891,22.45068c-0.25977,0.08008-0.51953,0.12988-0.74902,0.12988c-0.66016,0-1.13965-0.37012-1.13965-1.23926
		v-3.18848H10.6709v-0.58008h0.81934v-1.37891l0.68945-0.51953v1.89844h1.18945v0.58008h-1.18945v3.09863
		c0,0.47949,0.21973,0.69922,0.61035,0.69922c0.16992,0,0.35938-0.04004,0.5791-0.10938L13.37891,22.45068z"/>
	<path d="M18.53906,20.22217h-3.6084c0.02051,1.0791,0.62012,1.72852,1.58887,1.72852c0.54004,0,0.96973-0.13965,1.41992-0.61914
		l0.47949,0.41895c-0.58008,0.61035-1.14941,0.83008-1.90918,0.83008c-1.49902,0-2.26855-1.11914-2.26855-2.51855
		c0-1.38965,0.75977-2.56836,2.18848-2.56836c1.50977,0,2.13867,1.17871,2.13867,2.29785
		C18.56836,19.93213,18.55859,20.10205,18.53906,20.22217z M14.93066,19.64209h2.97852c0-0.02051-0.00977-0.07031-0.00977-0.16016
		c-0.0498-0.7998-0.55957-1.40918-1.46973-1.40918C15.54004,18.07275,14.99121,18.77295,14.93066,19.64209z"/>
	<path d="M23.79785,23.26025c0,0.92969-0.86914,1.35938-2.1084,1.35938c-1.36914,0-2.19922-0.54004-2.19922-1.51953
		c0-0.09961,0.01074-0.16016,0.02051-0.21973l0.7998-0.67969c-0.37988-0.16992-0.63965-0.4502-0.63965-0.93945
		c0-0.39941,0.17969-0.69922,0.5293-0.93945c-0.25977-0.2998-0.41992-0.67969-0.41992-1.11914c0-1,0.81934-1.70898,1.87891-1.70898
		c0.47949,0,0.90918,0.14941,1.22949,0.39941l0.67969-0.58984l0.35938,0.4502l-0.66895,0.55957
		c0.16992,0.26953,0.26953,0.5791,0.26953,0.92969c0,1.00879-0.81934,1.67871-1.85938,1.67871
		c-0.37988,0-0.72949-0.08984-1.01855-0.25c-0.2002,0.11035-0.32031,0.29004-0.32031,0.5c0,0.5,0.62012,0.61914,1.3291,0.72949
		C22.63867,22.05029,23.79785,22.19092,23.79785,23.26025z M23.1084,23.31982c0-0.59961-0.7793-0.68945-1.59863-0.81934
		c-0.2207-0.03027-0.4502-0.07031-0.66016-0.12012l-0.66992,0.64941c-0.00977,0.05078-0.00977,0.07031-0.00977,0.09082
		c0,0.69922,0.70996,0.91895,1.5498,0.91895C22.58887,24.03955,23.1084,23.79932,23.1084,23.31982z M20.45996,19.22217
		c0,0.63965,0.45996,1.12988,1.19922,1.12988c0.74023,0,1.17969-0.48047,1.17969-1.12988c0-0.67969-0.45996-1.14941-1.16992-1.14941
		C20.96973,18.07275,20.45996,18.54248,20.45996,19.22217z"/>
	<path d="M24.54102,20.03174c0-1.45898,0.9502-2.53809,2.35938-2.53809c1.39844,0,2.36816,1.0791,2.36816,2.53809
		c0,1.44922-0.95898,2.54883-2.36816,2.54883S24.54102,21.49072,24.54102,20.03174z M28.5791,20.03174
		c0-1.11914-0.62988-1.92871-1.67871-1.92871c-1.05957,0-1.66992,0.81934-1.66992,1.92871
		c0,1.11914,0.62012,1.93945,1.66992,1.93945C27.95898,21.97119,28.5791,21.13135,28.5791,20.03174z"/>
	<path d="M33.65918,17.70361l-0.33984,0.55957c-0.23047-0.10059-0.44043-0.15039-0.65039-0.15039
		c-0.75879,0-1.31934,0.56934-1.31934,1.63965v2.74805h-0.68945v-4.92773h0.68945v0.74023
		c0.36035-0.64941,0.95996-0.81934,1.45996-0.81934C33.10938,17.49365,33.38867,17.55322,33.65918,17.70361z"/>
	<path d="M34.62012,15.53467h0.7998v1.01953h-0.7998V15.53467z M34.67969,17.57275h0.68945v4.92773h-0.68945V17.57275z"/>
	<path d="M41.08887,20.22217h-3.6084c0.02051,1.0791,0.62012,1.72852,1.58887,1.72852c0.54004,0,0.96973-0.13965,1.41992-0.61914
		l0.47949,0.41895c-0.58008,0.61035-1.14941,0.83008-1.90918,0.83008c-1.49902,0-2.26855-1.11914-2.26855-2.51855
		c0-1.38965,0.75977-2.56836,2.18848-2.56836c1.50977,0,2.13867,1.17871,2.13867,2.29785
		C41.11816,19.93213,41.1084,20.10205,41.08887,20.22217z M37.48047,19.64209h2.97852c0-0.02051-0.00977-0.07031-0.00977-0.16016
		c-0.0498-0.7998-0.55957-1.40918-1.46973-1.40918C38.08984,18.07275,37.54102,18.77295,37.48047,19.64209z"/>
	<path d="M41.98047,21.2915l0.58008-0.25977c0.17969,0.50977,0.65918,0.93945,1.42871,0.93945
		c0.66992,0,1.09961-0.33008,1.09961-0.84961c0-1.30957-2.83887-0.49023-2.83887-2.23926c0-0.85938,0.7002-1.38867,1.68945-1.38867
		c0.78906,0,1.42871,0.3291,1.76855,1.0293l-0.5498,0.2998c-0.23926-0.44043-0.62891-0.71973-1.23926-0.71973
		c-0.60938,0-0.99902,0.25-0.99902,0.67969c0,1.16895,2.84863,0.42969,2.84863,2.29883c0,0.99902-0.81934,1.49902-1.76953,1.49902
		C43.03027,22.58057,42.24023,22.08057,41.98047,21.2915z"/>
	<path d="M49.83984,15.53467h0.7998v1.01953h-0.7998V15.53467z M49.89941,17.57275h0.69043v4.92773h-0.69043V17.57275z"/>
	<path d="M56.33789,19.48193v3.01855h-0.68945v-2.84863c0-1.05957-0.33984-1.54883-1.0791-1.54883
		c-0.92969,0-1.46973,0.7998-1.46973,2.18848v2.20898h-0.68945v-4.92773h0.68945v0.71973
		c0.32031-0.49902,0.91992-0.79883,1.62988-0.79883C55.78906,17.49365,56.33789,18.17334,56.33789,19.48193z"/>
	<path d="M62.81836,22.45068c-0.25977,0.08008-0.51953,0.12988-0.74902,0.12988c-0.66016,0-1.13965-0.37012-1.13965-1.23926
		v-3.18848h-0.81934v-0.58008h0.81934v-1.37891l0.68945-0.51953v1.89844h1.18945v0.58008h-1.18945v3.09863
		c0,0.47949,0.21973,0.69922,0.61035,0.69922c0.16992,0,0.35938-0.04004,0.5791-0.10938L62.81836,22.45068z"/>
	<path d="M68.05762,19.48193v3.01855h-0.68945v-2.84863c0-1.06934-0.33984-1.54883-1.0791-1.54883
		c-0.93945,0-1.46875,0.76953-1.46875,2.12891v2.26855h-0.69043v-6.96582h0.69043v2.75781
		c0.31934-0.49902,0.91895-0.79883,1.62891-0.79883C67.50879,17.49365,68.05762,18.17334,68.05762,19.48193z"/>
	<path d="M73.6582,20.22217h-3.6084c0.02051,1.0791,0.62012,1.72852,1.58887,1.72852c0.54004,0,0.96973-0.13965,1.41992-0.61914
		l0.47949,0.41895c-0.58008,0.61035-1.14941,0.83008-1.90918,0.83008c-1.49902,0-2.26855-1.11914-2.26855-2.51855
		c0-1.38965,0.75977-2.56836,2.18848-2.56836c1.50977,0,2.13867,1.17871,2.13867,2.29785
		C73.6875,19.93213,73.67773,20.10205,73.6582,20.22217z M70.0498,19.64209h2.97852c0-0.02051-0.00977-0.07031-0.00977-0.16016
		c-0.0498-0.7998-0.55957-1.40918-1.46973-1.40918C70.65918,18.07275,70.11035,18.77295,70.0498,19.64209z"/>
	<path d="M5.06836,27.53467v6.96582H4.37891v-0.65918C4.01855,34.30029,3.46875,34.58057,2.75,34.58057
		c-1.43945,0-2.18945-1.0791-2.18945-2.54883c0-1.53906,0.81934-2.54883,2.18945-2.54883c0.69922,0,1.25879,0.27051,1.62891,0.75
		v-2.69824H5.06836z M4.43848,32.03174c0-1.16895-0.59961-1.93848-1.58887-1.93848c-1,0-1.59961,0.76953-1.59961,1.93848
		c0,1.11914,0.5498,1.93945,1.59961,1.93945C3.88867,33.97119,4.43848,33.15088,4.43848,32.03174z"/>
	<path d="M10.64844,29.57275v4.92773H9.95801v-0.70996C9.6084,34.3208,8.97852,34.58057,8.3291,34.58057
		c-1.11914,0-1.6084-0.76953-1.6084-1.98926v-3.01855h0.68945v2.84863c0,0.7998,0.13965,1.5498,1.0791,1.5498
		c0.97949,0,1.46875-0.84961,1.46875-2.12891v-2.26953H10.64844z"/>
	<path d="M16.97754,32.03174c0,1.46973-0.75,2.54883-2.18848,2.54883c-0.71973,0-1.26953-0.28027-1.62891-0.73926v0.65918h-0.69043
		v-6.96582h0.69043v2.69824c0.36914-0.47949,0.92871-0.75,1.62891-0.75C16.1582,29.48291,16.97754,30.49268,16.97754,32.03174z
		 M16.28809,32.03174c0-1.16895-0.59961-1.93848-1.59961-1.93848c-0.98926,0-1.58887,0.76953-1.58887,1.93848
		c0,1.11914,0.5498,1.93945,1.58887,1.93945C15.73828,33.97119,16.28809,33.15088,16.28809,32.03174z"/>
	<path d="M18.35059,27.53467h0.7998v1.01953h-0.7998V27.53467z M18.41016,29.57275h0.68945v4.92773h-0.68945V29.57275z"/>
	<path d="M22.96875,34.45068c-0.25977,0.08008-0.51953,0.12988-0.74902,0.12988c-0.66016,0-1.13965-0.37012-1.13965-1.23926
		v-3.18848h-0.81934v-0.58008h0.81934v-1.37891l0.68945-0.51953v1.89844h1.18945v0.58008h-1.18945v3.09863
		c0,0.47949,0.21973,0.69922,0.61035,0.69922c0.16992,0,0.35938-0.04004,0.5791-0.10938L22.96875,34.45068z"/>
	<path d="M27.94824,31.43213v3.06836h-0.62891l-0.04004-0.75977c-0.39062,0.5498-0.99023,0.83984-1.76953,0.83984
		c-1.06934,0-1.69922-0.55957-1.69922-1.50977c0-0.49902,0.2002-0.87891,0.55957-1.09863
		c0.37988-0.21973,0.91016-0.31055,1.87988-0.31055h1.00879v-0.22949c0-0.85938-0.44922-1.3291-1.2793-1.3291
		c-0.61914,0-1.09961,0.26953-1.49902,0.81934l-0.5-0.41992c0.53027-0.68945,1.16992-1.00879,2.00879-1.00879
		C27.22852,29.49365,27.94824,30.20264,27.94824,31.43213z M27.25879,32.2915v-0.06934h-0.94922
		c-0.90918,0-1.2998,0.05957-1.53906,0.24902C24.59082,32.61182,24.5,32.83154,24.5,33.11084
		c0,0.5498,0.4707,0.90039,1.20996,0.90039C26.65918,34.01123,27.25879,33.34131,27.25879,32.2915z"/>
	<path d="M31.67871,34.45068c-0.25977,0.08008-0.51953,0.12988-0.74902,0.12988c-0.66016,0-1.13965-0.37012-1.13965-1.23926
		v-3.18848H28.9707v-0.58008h0.81934v-1.37891l0.68945-0.51953v1.89844h1.18945v0.58008h-1.18945v3.09863
		c0,0.47949,0.21973,0.69922,0.61035,0.69922c0.16992,0,0.35938-0.04004,0.5791-0.10938L31.67871,34.45068z"/>
	<path d="M32.93066,27.53467h0.7998v1.01953h-0.7998V27.53467z M32.99023,29.57275h0.68945v4.92773h-0.68945V29.57275z"/>
	<path d="M34.79102,29.57275h0.74902l1.5498,4.04785l1.55859-4.04785h0.75977l-2.01855,4.92773H36.7998L34.79102,29.57275z"/>
	<path d="M44.26855,32.22217h-3.6084c0.02051,1.0791,0.62012,1.72852,1.58887,1.72852c0.54004,0,0.96973-0.13965,1.41992-0.61914
		l0.47949,0.41895c-0.58008,0.61035-1.14941,0.83008-1.90918,0.83008c-1.49902,0-2.26855-1.11914-2.26855-2.51855
		c0-1.38965,0.75977-2.56836,2.18848-2.56836c1.50977,0,2.13867,1.17871,2.13867,2.29785
		C44.29785,31.93213,44.28809,32.10205,44.26855,32.22217z M40.66016,31.64209h2.97852c0-0.02051-0.00977-0.07031-0.00977-0.16016
		c-0.0498-0.7998-0.55957-1.40918-1.46973-1.40918C41.26953,30.07275,40.7207,30.77295,40.66016,31.64209z"/>
	<path d="M50.46875,34.45068c-0.25977,0.08008-0.51953,0.12988-0.74902,0.12988c-0.66016,0-1.13965-0.37012-1.13965-1.23926
		v-3.18848h-0.81934v-0.58008h0.81934v-1.37891l0.68945-0.51953v1.89844h1.18945v0.58008h-1.18945v3.09863
		c0,0.47949,0.21973,0.69922,0.61035,0.69922c0.16992,0,0.35938-0.04004,0.5791-0.10938L50.46875,34.45068z"/>
	<path d="M55.62793,32.22217h-3.6084c0.02051,1.0791,0.62012,1.72852,1.58887,1.72852c0.54004,0,0.96973-0.13965,1.41992-0.61914
		l0.47949,0.41895c-0.58008,0.61035-1.14941,0.83008-1.90918,0.83008c-1.49902,0-2.26855-1.11914-2.26855-2.51855
		c0-1.38965,0.75977-2.56836,2.18848-2.56836c1.50977,0,2.13867,1.17871,2.13867,2.29785
		C55.65723,31.93213,55.64746,32.10205,55.62793,32.22217z M52.01953,31.64209h2.97852c0-0.02051-0.00977-0.07031-0.00977-0.16016
		c-0.0498-0.7998-0.55957-1.40918-1.46973-1.40918C52.62891,30.07275,52.08008,30.77295,52.01953,31.64209z"/>
	<path d="M58.19922,32.03174l-1.79883-2.45898h0.83984l1.41895,1.97949l1.40918-1.97949h0.83984l-1.79883,2.45898l1.80859,2.46875
		h-0.84961l-1.40918-1.99902L57.25,34.50049h-0.84961L58.19922,32.03174z"/>
	<path d="M64.17871,34.45068c-0.25977,0.08008-0.51953,0.12988-0.74902,0.12988c-0.66016,0-1.13965-0.37012-1.13965-1.23926
		v-3.18848H61.4707v-0.58008h0.81934v-1.37891l0.68945-0.51953v1.89844h1.18945v0.58008h-1.18945v3.09863
		c0,0.47949,0.21973,0.69922,0.61035,0.69922c0.16992,0,0.35938-0.04004,0.5791-0.10938L64.17871,34.45068z"/>
	<path d="M0.52051,44.03174c0-1.45898,0.9502-2.53809,2.35938-2.53809c1.39844,0,2.36816,1.0791,2.36816,2.53809
		c0,1.44922-0.95898,2.54883-2.36816,2.54883S0.52051,45.49072,0.52051,44.03174z M4.55859,44.03174
		c0-1.11914-0.62988-1.92871-1.67871-1.92871c-1.05957,0-1.66992,0.81934-1.66992,1.92871
		c0,1.11914,0.62012,1.93945,1.66992,1.93945C3.93848,45.97119,4.55859,45.13135,4.55859,44.03174z"/>
	<path d="M6.93945,42.15283H5.90039v-0.58008h1.0498v-0.75879c0-1.0498,0.60938-1.35938,1.23926-1.35938
		c0.26953,0,0.56934,0.05957,0.87891,0.18945l-0.23926,0.5498c-0.20996-0.09961-0.40039-0.16016-0.57031-0.16016
		c-0.38965,0-0.62891,0.27051-0.62891,0.72949v0.80957h1.41895v0.58008H7.62988v4.34766H6.93945V42.15283z"/>
	<path d="M16.52832,43.43213v3.06836h-0.62891l-0.04004-0.75977c-0.39062,0.5498-0.99023,0.83984-1.76953,0.83984
		c-1.06934,0-1.69922-0.55957-1.69922-1.50977c0-0.49902,0.2002-0.87891,0.55957-1.09863
		c0.37988-0.21973,0.91016-0.31055,1.87988-0.31055h1.00879v-0.22949c0-0.85938-0.44922-1.3291-1.2793-1.3291
		c-0.61914,0-1.09961,0.26953-1.49902,0.81934l-0.5-0.41992c0.53027-0.68945,1.16992-1.00879,2.00879-1.00879
		C15.80859,41.49365,16.52832,42.20264,16.52832,43.43213z M15.83887,44.2915v-0.06934h-0.94922
		c-0.90918,0-1.2998,0.05957-1.53906,0.24902c-0.17969,0.14062-0.27051,0.36035-0.27051,0.63965
		c0,0.5498,0.4707,0.90039,1.20996,0.90039C15.23926,46.01123,15.83887,45.34131,15.83887,44.2915z"/>
	<path d="M20.31055,41.57275h0.73926l1.05957,3.88867l1.29883-3.88867h0.62988l1.28906,3.88867l1.06934-3.88867h0.72949
		l-1.43848,4.92773h-0.65039l-1.30859-3.97754l-1.3291,3.97754h-0.63965L20.31055,41.57275z"/>
	<path d="M27.7998,44.03174c0-1.45898,0.9502-2.53809,2.35938-2.53809c1.39844,0,2.36816,1.0791,2.36816,2.53809
		c0,1.44922-0.95898,2.54883-2.36816,2.54883S27.7998,45.49072,27.7998,44.03174z M31.83789,44.03174
		c0-1.11914-0.62988-1.92871-1.67871-1.92871c-1.05957,0-1.66992,0.81934-1.66992,1.92871
		c0,1.11914,0.62012,1.93945,1.66992,1.93945C31.21777,45.97119,31.83789,45.13135,31.83789,44.03174z"/>
	<path d="M36.91895,41.70361l-0.33984,0.55957c-0.23047-0.10059-0.44043-0.15039-0.65039-0.15039
		c-0.75879,0-1.31934,0.56934-1.31934,1.63965v2.74805h-0.68945v-4.92773h0.68945v0.74023
		c0.36035-0.64941,0.95996-0.81934,1.45996-0.81934C36.36914,41.49365,36.64844,41.55322,36.91895,41.70361z"/>
	<path d="M37.93945,39.53467h0.68945v4.64746l2.45898-2.60938h0.92969l-1.78906,1.84961l2.06934,3.07812h-0.82031l-1.71875-2.64844
		l-1.12988,1.19922v1.44922h-0.68945V39.53467z"/>
</g>
<g>
	<path d="M154.09961,3.53369V10.5h-0.68945V5.33301h-1.73926V4.65332h1.15918c0.34961,0,0.58008-0.12012,0.58008-0.52979V3.53369
		H154.09961z"/>
	<path d="M156.81055,7.02197c0-1.65918,0.34961-3.58789,2.15918-3.58789c1.64941,0,2.21875,1.68896,2.21875,3.59766
		c0,1.90918-0.55957,3.56836-2.14941,3.56836C157.18066,10.6001,156.81055,8.68115,156.81055,7.02197z M160.44922,7.02197
		c0-1.60938-0.31055-2.92822-1.47949-2.92822c-1.21973,0-1.44922,1.4292-1.44922,2.92822c0,1.46924,0.22949,2.91846,1.49902,2.91846
		C160.14941,9.94043,160.44922,8.60107,160.44922,7.02197z"/>
	<path d="M162.44043,7.02197c0-1.65918,0.34961-3.58789,2.15918-3.58789c1.64941,0,2.21875,1.68896,2.21875,3.59766
		c0,1.90918-0.55957,3.56836-2.14844,3.56836C162.81055,10.6001,162.44043,8.68115,162.44043,7.02197z M166.0791,7.02197
		c0-1.60938-0.31055-2.92822-1.47949-2.92822c-1.21973,0-1.44922,1.4292-1.44922,2.92822c0,1.46924,0.22949,2.91846,1.49902,2.91846
		C165.7793,9.94043,166.0791,8.60107,166.0791,7.02197z"/>
	<path d="M167.95996,5.0332c0-0.78955,0.44043-1.5791,1.2998-1.5791c0.76953,0,1.31934,0.6792,1.31934,1.58887
		c0,0.88965-0.54004,1.55908-1.28906,1.55908C168.41016,6.60205,167.95996,5.82275,167.95996,5.0332z M170.09961,5.04297
		c0-0.59961-0.2998-1.10938-0.83984-1.10938c-0.58008,0-0.81934,0.55957-0.81934,1.09961c0,0.53955,0.25,1.08936,0.84961,1.08936
		C169.75977,6.12256,170.09961,5.67285,170.09961,5.04297z M172.75781,3.53369h0.5L169.33008,10.5h-0.50977L172.75781,3.53369z
		 M171.50879,9.00098c0-0.77979,0.43945-1.56934,1.29883-1.56934c0.76953,0,1.31934,0.67969,1.31934,1.5791
		s-0.54004,1.56934-1.28906,1.56934C171.94824,10.58008,171.50879,9.78027,171.50879,9.00098z M173.64746,9.01074
		c0-0.58936-0.29004-1.09912-0.83984-1.09912c-0.56934,0-0.81934,0.54932-0.81934,1.08936c0,0.53955,0.25,1.09912,0.84961,1.09912
		C173.31738,10.1001,173.64746,9.64062,173.64746,9.01074z"/>
	<path d="M178.06055,8.05127c0-1.29932,0.72949-2.55859,2.21875-2.55859c0.87891,0,1.6084,0.43994,1.99902,1.35938l-0.66016,0.25977
		c-0.22949-0.62939-0.71973-1.00928-1.33887-1.00928c-1.0498,0-1.51953,0.93945-1.51953,1.94873
		c0,1.00977,0.46973,1.91895,1.5293,1.91895c0.62012,0,1.10938-0.36963,1.29883-0.99951l0.63965,0.24023
		c-0.3291,0.89941-1.04883,1.36914-1.93848,1.36914C178.85938,10.58008,178.06055,9.42041,178.06055,8.05127z"/>
	<path d="M183.07031,8.03125c0-1.45898,0.9502-2.53857,2.35938-2.53857c1.39844,0,2.36816,1.07959,2.36816,2.53857
		c0,1.44922-0.95898,2.54883-2.36816,2.54883S183.07031,9.49072,183.07031,8.03125z M187.1084,8.03125
		c0-1.11914-0.62988-1.92871-1.67871-1.92871c-1.05957,0-1.66992,0.81934-1.66992,1.92871
		c0,1.11963,0.62012,1.93896,1.66992,1.93896C186.48828,9.97021,187.1084,9.13086,187.1084,8.03125z"/>
	<path d="M193.11816,7.48145V10.5h-0.68945V7.65137c0-1.05908-0.33984-1.54883-1.0791-1.54883
		c-0.92969,0-1.46875,0.79932-1.46875,2.18848V10.5h-0.69043V5.57275h0.69043v0.71973c0.31934-0.5,0.91895-0.7998,1.62891-0.7998
		C192.56934,5.49268,193.11816,6.17236,193.11816,7.48145z"/>
	<path d="M196.86816,10.4502c-0.25977,0.07959-0.51953,0.12988-0.74902,0.12988c-0.66016,0-1.13965-0.37012-1.13965-1.23926V6.15234
		h-0.81934V5.57275h0.81934V4.19336l0.68945-0.51953v1.89893h1.18945v0.57959h-1.18945v3.09814
		c0,0.47998,0.21973,0.69971,0.61035,0.69971c0.16992,0,0.35938-0.04004,0.5791-0.10986L196.86816,10.4502z"/>
	<path d="M202.02832,8.22119h-3.6084c0.02051,1.07959,0.62012,1.729,1.58887,1.729c0.54004,0,0.96973-0.13965,1.41992-0.61963
		l0.47949,0.41992c-0.58008,0.60938-1.14941,0.82959-1.90918,0.82959c-1.49902,0-2.26855-1.11963-2.26855-2.51855
		c0-1.38965,0.75977-2.56885,2.18848-2.56885c1.50977,0,2.13867,1.1792,2.13867,2.29883
		C202.05762,7.93164,202.04785,8.10107,202.02832,8.22119z M198.41992,7.6416h2.97852c0-0.02002-0.00977-0.06982-0.00977-0.16016
		c-0.0498-0.79932-0.55957-1.40918-1.46973-1.40918C199.0293,6.07227,198.48047,6.77197,198.41992,7.6416z"/>
	<path d="M207.37793,7.48145V10.5h-0.68945V7.65137c0-1.05908-0.33984-1.54883-1.0791-1.54883
		c-0.92969,0-1.46875,0.79932-1.46875,2.18848V10.5h-0.69043V5.57275h0.69043v0.71973c0.31934-0.5,0.91895-0.7998,1.62891-0.7998
		C206.8291,5.49268,207.37793,6.17236,207.37793,7.48145z"/>
	<path d="M211.12891,10.4502c-0.25977,0.07959-0.51953,0.12988-0.74902,0.12988c-0.66016,0-1.13965-0.37012-1.13965-1.23926V6.15234
		h-0.81934V5.57275h0.81934V4.19336l0.68945-0.51953v1.89893h1.18945v0.57959h-1.18945v3.09814
		c0,0.47998,0.21973,0.69971,0.61035,0.69971c0.16992,0,0.35938-0.04004,0.5791-0.10986L211.12891,10.4502z"/>
</g>
<g>
	<path d="M200.01172,88.80176v6.9668h-0.68945v-5.16699h-1.73926v-0.67969h1.15918c0.34961,0,0.58008-0.12012,0.58008-0.53027
		v-0.58984H200.01172z"/>
	<path d="M202.72266,92.29004c0-1.65918,0.34961-3.58789,2.15918-3.58789c1.64941,0,2.21875,1.68945,2.21875,3.59766
		c0,1.90918-0.55957,3.56836-2.14941,3.56836C203.09277,95.86816,202.72266,93.94922,202.72266,92.29004z M206.36133,92.29004
		c0-1.60938-0.31055-2.92773-1.47949-2.92773c-1.21973,0-1.44922,1.42871-1.44922,2.92773
		c0,1.46973,0.22949,2.91895,1.49902,2.91895C206.06152,95.20898,206.36133,93.86914,206.36133,92.29004z"/>
	<path d="M208.35254,92.29004c0-1.65918,0.34961-3.58789,2.15918-3.58789c1.64941,0,2.21875,1.68945,2.21875,3.59766
		c0,1.90918-0.55957,3.56836-2.14844,3.56836C208.72266,95.86816,208.35254,93.94922,208.35254,92.29004z M211.99121,92.29004
		c0-1.60938-0.31055-2.92773-1.47949-2.92773c-1.21973,0-1.44922,1.42871-1.44922,2.92773
		c0,1.46973,0.22949,2.91895,1.49902,2.91895C211.69141,95.20898,211.99121,93.86914,211.99121,92.29004z"/>
	<path d="M213.87207,90.30176c0-0.79004,0.44043-1.5791,1.2998-1.5791c0.76953,0,1.31934,0.67871,1.31934,1.58887
		c0,0.88965-0.54004,1.55859-1.28906,1.55859C214.32227,91.87012,213.87207,91.09082,213.87207,90.30176z M216.01172,90.31152
		c0-0.59961-0.2998-1.10938-0.83984-1.10938c-0.58008,0-0.81934,0.55957-0.81934,1.09961c0,0.53906,0.25,1.08887,0.84961,1.08887
		C215.67188,91.39062,216.01172,90.94141,216.01172,90.31152z M218.66992,88.80176h0.5l-3.92773,6.9668h-0.50977L218.66992,88.80176
		z M217.4209,94.26953c0-0.78027,0.43945-1.56934,1.29883-1.56934c0.76953,0,1.31934,0.67969,1.31934,1.5791
		s-0.54004,1.56934-1.28906,1.56934C217.86035,95.84863,217.4209,95.04883,217.4209,94.26953z M219.55957,94.2793
		c0-0.58984-0.29004-1.09961-0.83984-1.09961c-0.56934,0-0.81934,0.5498-0.81934,1.08984c0,0.53906,0.25,1.09863,0.84961,1.09863
		C219.22949,95.36816,219.55957,94.90918,219.55957,94.2793z"/>
	<path d="M231.13867,92.69043v3.07812h-0.68945v-2.88867c0-0.41992,0-1.50879-1.08008-1.50879
		c-0.99902,0-1.26855,0.91895-1.26855,2.02832v2.36914h-0.69043v-2.84863c0-0.81934-0.25-1.54883-1.10938-1.54883
		c-0.95898,0-1.22852,0.90918-1.22852,2.02832v2.36914h-0.69043l-0.00977-4.92773h0.66992v0.59961
		c0.30957-0.48926,0.80957-0.67969,1.35938-0.67969c0.68945,0,1.19922,0.2998,1.44922,0.9502
		c0.31934-0.62988,0.86914-0.9502,1.61914-0.9502C230.64844,90.76074,231.13867,91.54102,231.13867,92.69043z"/>
	<path d="M236.74023,93.48926h-3.6084c0.02051,1.08008,0.62012,1.72949,1.58887,1.72949c0.54004,0,0.96973-0.13965,1.41992-0.62012
		l0.47949,0.41992c-0.58008,0.60938-1.14941,0.83008-1.90918,0.83008c-1.49902,0-2.26855-1.12012-2.26855-2.51855
		c0-1.38965,0.75977-2.56934,2.18848-2.56934c1.50977,0,2.13867,1.17969,2.13867,2.29883
		C236.76953,93.2002,236.75977,93.36914,236.74023,93.48926z M233.13184,92.91016h2.97852
		c0-0.02051-0.00977-0.07031-0.00977-0.16016c-0.0498-0.7998-0.55957-1.40918-1.46973-1.40918
		C233.74121,91.34082,233.19238,92.04004,233.13184,92.91016z"/>
	<path d="M241.83008,92.7002v3.06836h-0.62891l-0.04004-0.75977c-0.38965,0.5498-0.99023,0.83984-1.76953,0.83984
		c-1.06934,0-1.69922-0.56055-1.69922-1.50977c0-0.49902,0.2002-0.87891,0.55957-1.09961
		c0.37988-0.21973,0.91016-0.30957,1.87891-0.30957h1.00977V92.7002c0-0.85938-0.44922-1.3291-1.2793-1.3291
		c-0.61914,0-1.09961,0.26953-1.49902,0.81934l-0.5-0.41992c0.53027-0.68945,1.16992-1.00977,2.00879-1.00977
		C241.11035,90.76074,241.83008,91.4707,241.83008,92.7002z M241.14062,93.55957v-0.07031h-0.94922
		c-0.90918,0-1.2998,0.06055-1.53906,0.25c-0.17969,0.13965-0.27051,0.36035-0.27051,0.63965
		c0,0.5498,0.46973,0.89941,1.20996,0.89941C240.54102,95.27832,241.14062,94.60938,241.14062,93.55957z"/>
	<path d="M247.43945,92.75v3.01855H246.75v-2.84863c0-1.05957-0.33984-1.54883-1.0791-1.54883
		c-0.92969,0-1.46973,0.79883-1.46973,2.18848v2.20898h-0.68945v-4.92773h0.68945v0.71973
		c0.32031-0.5,0.91992-0.7998,1.62988-0.7998C246.89062,90.76074,247.43945,91.44043,247.43945,92.75z"/>
	<path d="M249.08203,88.80176h0.7998v1.01953h-0.7998V88.80176z M249.1416,90.84082h0.69043v4.92773h-0.69043V90.84082z"/>
	<path d="M255.5791,92.75v3.01855h-0.68945v-2.84863c0-1.05957-0.33984-1.54883-1.0791-1.54883
		c-0.92969,0-1.46875,0.79883-1.46875,2.18848v2.20898h-0.69043v-4.92773h0.69043v0.71973
		c0.31934-0.5,0.91895-0.7998,1.62891-0.7998C255.03027,90.76074,255.5791,91.44043,255.5791,92.75z"/>
	<path d="M261.11914,96.52832c0,0.92871-0.86914,1.3584-2.1084,1.3584c-1.36914,0-2.19922-0.53906-2.19922-1.51855
		c0-0.10059,0.01074-0.16016,0.02051-0.21973l0.7998-0.67969c-0.37988-0.16992-0.63965-0.4502-0.63965-0.93945
		c0-0.40039,0.17969-0.7002,0.5293-0.93945c-0.25977-0.2998-0.41992-0.67969-0.41992-1.12012
		c0-0.99902,0.81934-1.70898,1.87891-1.70898c0.47949,0,0.91016,0.15039,1.22949,0.40039l0.67969-0.58984l0.35938,0.44922
		l-0.66895,0.56055c0.16992,0.26953,0.26953,0.5791,0.26953,0.92871c0,1.00977-0.81934,1.67969-1.85938,1.67969
		c-0.37891,0-0.72949-0.08984-1.01953-0.25c-0.19922,0.10938-0.31934,0.29004-0.31934,0.5c0,0.49902,0.62012,0.61914,1.3291,0.72949
		C259.95996,95.31836,261.11914,95.45801,261.11914,96.52832z M260.42969,96.58789c0-0.59961-0.7793-0.68945-1.59863-0.81934
		c-0.21973-0.03027-0.4502-0.07031-0.66016-0.12012l-0.66992,0.64941c-0.00977,0.0498-0.00977,0.07031-0.00977,0.08984
		c0,0.7002,0.70996,0.91992,1.5498,0.91992C259.91016,97.30762,260.42969,97.06738,260.42969,96.58789z M257.78125,92.49023
		c0,0.63965,0.45996,1.12891,1.19922,1.12891c0.74023,0,1.17969-0.47949,1.17969-1.12891c0-0.67969-0.45996-1.14941-1.16992-1.14941
		C258.29102,91.34082,257.78125,91.81055,257.78125,92.49023z"/>
</g>
<g>
	<path d="M252.45801,3.53369V10.5h-0.68945V5.33301h-1.73926V4.65332h1.15918c0.34961,0,0.58008-0.12012,0.58008-0.52979V3.53369
		H252.45801z"/>
	<path d="M255.16895,7.02197c0-1.65918,0.34961-3.58789,2.15918-3.58789c1.64941,0,2.21875,1.68896,2.21875,3.59766
		c0,1.90918-0.55957,3.56836-2.14941,3.56836C255.53906,10.6001,255.16895,8.68115,255.16895,7.02197z M258.80762,7.02197
		c0-1.60938-0.31055-2.92822-1.47949-2.92822c-1.21973,0-1.44922,1.4292-1.44922,2.92822c0,1.46924,0.22949,2.91846,1.49902,2.91846
		C258.50781,9.94043,258.80762,8.60107,258.80762,7.02197z"/>
	<path d="M260.79883,7.02197c0-1.65918,0.34961-3.58789,2.15918-3.58789c1.64941,0,2.21875,1.68896,2.21875,3.59766
		c0,1.90918-0.55957,3.56836-2.14844,3.56836C261.16895,10.6001,260.79883,8.68115,260.79883,7.02197z M264.4375,7.02197
		c0-1.60938-0.31055-2.92822-1.47949-2.92822c-1.21973,0-1.44922,1.4292-1.44922,2.92822c0,1.46924,0.22949,2.91846,1.49902,2.91846
		C264.1377,9.94043,264.4375,8.60107,264.4375,7.02197z"/>
	<path d="M266.31836,5.0332c0-0.78955,0.44043-1.5791,1.2998-1.5791c0.76953,0,1.31934,0.6792,1.31934,1.58887
		c0,0.88965-0.54004,1.55908-1.28906,1.55908C266.76855,6.60205,266.31836,5.82275,266.31836,5.0332z M268.45801,5.04297
		c0-0.59961-0.2998-1.10938-0.83984-1.10938c-0.58008,0-0.81934,0.55957-0.81934,1.09961c0,0.53955,0.25,1.08936,0.84961,1.08936
		C268.11816,6.12256,268.45801,5.67285,268.45801,5.04297z M271.11621,3.53369h0.5L267.68848,10.5h-0.50977L271.11621,3.53369z
		 M269.86719,9.00098c0-0.77979,0.43945-1.56934,1.29883-1.56934c0.76953,0,1.31934,0.67969,1.31934,1.5791
		s-0.54004,1.56934-1.28906,1.56934C270.30664,10.58008,269.86719,9.78027,269.86719,9.00098z M272.00586,9.01074
		c0-0.58936-0.29004-1.09912-0.83984-1.09912c-0.56934,0-0.81934,0.54932-0.81934,1.08936c0,0.53955,0.25,1.09912,0.84961,1.09912
		C271.67578,10.1001,272.00586,9.64062,272.00586,9.01074z"/>
	<path d="M277.12793,6.15234h-1.03906V5.57275h1.0498V4.81299c0-1.04932,0.60938-1.35889,1.23926-1.35889
		c0.26953,0,0.56934,0.05957,0.87891,0.18945l-0.23926,0.5498c-0.20996-0.09961-0.40039-0.15967-0.57031-0.15967
		c-0.38965,0-0.62891,0.26953-0.62891,0.72949v0.80957h1.41895v0.57959h-1.41895V10.5h-0.69043V6.15234z"/>
	<path d="M279.68848,8.03125c0-1.45898,0.9502-2.53857,2.35938-2.53857c1.39844,0,2.36816,1.07959,2.36816,2.53857
		c0,1.44922-0.95898,2.54883-2.36816,2.54883S279.68848,9.49072,279.68848,8.03125z M283.72656,8.03125
		c0-1.11914-0.62988-1.92871-1.67871-1.92871c-1.05957,0-1.66992,0.81934-1.66992,1.92871
		c0,1.11963,0.62012,1.93896,1.66992,1.93896C283.10645,9.97021,283.72656,9.13086,283.72656,8.03125z"/>
	<path d="M288.80762,5.70264l-0.33984,0.55957c-0.23047-0.09961-0.44043-0.1499-0.65039-0.1499
		c-0.75879,0-1.31836,0.56982-1.31836,1.63916V10.5h-0.69043V5.57275h0.69043V6.3125
		c0.35938-0.6499,0.95898-0.81982,1.45898-0.81982C288.25781,5.49268,288.53711,5.55273,288.80762,5.70264z"/>
	<path d="M296.58496,7.42188V10.5h-0.68945V7.61182c0-0.41992,0-1.50928-1.08008-1.50928
		c-0.99902,0-1.26855,0.91943-1.26855,2.02881V10.5h-0.69043V7.65137c0-0.81934-0.25-1.54883-1.10938-1.54883
		c-0.95898,0-1.22852,0.90918-1.22852,2.02881V10.5h-0.69043l-0.00977-4.92725h0.66992v0.59961
		c0.30957-0.48975,0.80957-0.67969,1.35938-0.67969c0.68945,0,1.19922,0.2998,1.44922,0.94971
		c0.31934-0.62988,0.86914-0.94971,1.61914-0.94971C296.09473,5.49268,296.58496,6.27246,296.58496,7.42188z"/>
</g>
</svg>
