<?xml version="1.0" encoding="utf-8"?>
<!-- Generator: Adobe Illustrator 25.0.0, SVG Export Plug-In . SVG Version: 6.00 Build 0)  -->
<svg version="1.1" id="Livello_1" xmlns="http://www.w3.org/2000/svg" xmlns:xlink="http://www.w3.org/1999/xlink" x="0px" y="0px"
	 viewBox="0 0 268 57.721" enable-background="new 0 0 268 57.721" xml:space="preserve">
<circle id="Ellisse_469" fill="none" stroke="#707070" stroke-linecap="round" stroke-dasharray="0.1,3" cx="124.856" cy="21.87799" r="21.231"/>
<path id="Path" fill="none" stroke="#444444" stroke-width="0.5" d="M90.938,43.39326L90.771,0.17098"/>
<rect id="Rectangle" x="89.51627" y="42.97576" transform="matrix(1 -0.003 0.003 1 -0.12985 0.27305)" fill="#444444" width="2.757" height="0.835"/>
<rect id="Rectangle-2" x="89.3503" y="0.00428" transform="matrix(1 -0.00311 0.00311 1 -0.00087 0.28187)" fill="#444444" width="2.757" height="0.835"/>
<path id="Path-2" fill="none" stroke="#444444" stroke-width="0.5" d="M169.65701,32.23199v-19.136"/>
<rect id="Rectangle-3" x="168.237" y="31.98099" fill="#444444" width="2.673" height="0.835"/>
<rect id="Rectangle-4" x="168.237" y="12.84499" fill="#444444" width="2.673" height="0.835"/>
<g enable-background="new    ">
	<path d="M1.6792,14.75488h0.70996v6.30664h3.17822v0.65918H1.6792V14.75488z"/>
	<path d="M10.42725,16.79297v4.92773H9.73779v-0.70996c-0.3501,0.53027-0.97949,0.79004-1.62939,0.79004
		c-1.11914,0-1.60889-0.76953-1.60889-1.98926v-3.01855h0.68945v2.84863c0,0.7998,0.14014,1.5498,1.07959,1.5498
		c0.97949,0,1.46924-0.84961,1.46924-2.12891v-2.26953H10.42725z"/>
	<path d="M16.17725,18.70215v3.01855h-0.68945v-2.84863c0-1.05957-0.33984-1.54883-1.07959-1.54883
		c-0.92969,0-1.46924,0.7998-1.46924,2.18848v2.20898h-0.68945v-4.92773h0.68945v0.71973
		c0.31982-0.49902,0.91943-0.79883,1.62891-0.79883C15.62744,16.71387,16.17725,17.39355,16.17725,18.70215z"/>
	<path d="M21.71729,22.48047c0,0.92969-0.86963,1.35938-2.10889,1.35938c-1.36914,0-2.19873-0.54004-2.19873-1.51953
		c0-0.09961,0.00977-0.16016,0.02002-0.21973L18.229,21.4209c-0.37988-0.16992-0.63965-0.4502-0.63965-0.93945
		c0-0.39941,0.18018-0.69922,0.52979-0.93945c-0.25977-0.2998-0.41992-0.67969-0.41992-1.11914c0-1,0.81982-1.70898,1.87891-1.70898
		c0.47998,0,0.90967,0.14941,1.22949,0.39941l0.67969-0.58984l0.35986,0.4502l-0.66992,0.55957
		c0.16992,0.26953,0.27002,0.5791,0.27002,0.92969c0,1.00879-0.81934,1.67871-1.85889,1.67871
		c-0.37988,0-0.72949-0.08984-1.01953-0.25c-0.19971,0.11035-0.31982,0.29004-0.31982,0.5c0,0.5,0.61963,0.61914,1.3291,0.72949
		C20.55762,21.27051,21.71729,21.41113,21.71729,22.48047z M21.02734,22.54004c0-0.59961-0.7793-0.68945-1.59912-0.81934
		c-0.21973-0.03027-0.44971-0.07031-0.65967-0.12012L18.09912,22.25c-0.01025,0.05078-0.01025,0.07031-0.01025,0.09082
		c0,0.69922,0.70996,0.91895,1.54932,0.91895C20.50781,23.25977,21.02734,23.01953,21.02734,22.54004z M18.37891,18.44238
		c0,0.63965,0.45996,1.12988,1.19922,1.12988c0.73975,0,1.17969-0.48047,1.17969-1.12988c0-0.67969-0.45996-1.14941-1.16943-1.14941
		C18.88867,17.29297,18.37891,17.7627,18.37891,18.44238z"/>
	<path d="M27.01709,18.70215v3.01855h-0.68945v-2.84863c0-1.06934-0.33984-1.54883-1.07959-1.54883
		c-0.93945,0-1.46924,0.76953-1.46924,2.12891v2.26855h-0.68945v-6.96582h0.68945v2.75781
		c0.31982-0.49902,0.91943-0.79883,1.62891-0.79883C26.46729,16.71387,27.01709,17.39355,27.01709,18.70215z"/>
	<path d="M32.6167,19.44238h-3.60791c0.02002,1.0791,0.61963,1.72852,1.58936,1.72852c0.53955,0,0.96924-0.13965,1.41895-0.61914
		l0.47998,0.41895c-0.57959,0.61035-1.14941,0.83008-1.90918,0.83008c-1.49902,0-2.26855-1.11914-2.26855-2.51855
		c0-1.38965,0.75977-2.56836,2.18896-2.56836c1.50879,0,2.13867,1.17871,2.13867,2.29785
		C32.64697,19.15234,32.63672,19.32227,32.6167,19.44238z M29.00879,18.8623h2.97852c0-0.02051-0.01025-0.07031-0.01025-0.16016
		c-0.0498-0.7998-0.55957-1.40918-1.46875-1.40918C29.61865,17.29297,29.06885,17.99316,29.00879,18.8623z"/>
	<path d="M37.59717,17.34277l-3.2085,3.78809h3.18848v0.58984H33.479v-0.5l3.27832-3.83789h-3.1084v-0.58984h3.94824V17.34277z"/>
	<path d="M42.46729,17.34277l-3.2085,3.78809h3.18848v0.58984h-4.09814v-0.5l3.27832-3.83789h-3.1084v-0.58984h3.94824V17.34277z"/>
	<path d="M47.44727,18.65234v3.06836h-0.62988l-0.04004-0.75977c-0.38965,0.5498-0.98926,0.83984-1.76904,0.83984
		c-1.06934,0-1.69873-0.55957-1.69873-1.50977c0-0.49902,0.19971-0.87891,0.55957-1.09863
		c0.37988-0.21973,0.90967-0.31055,1.87891-0.31055h1.00928v-0.22949c0-0.85938-0.44971-1.3291-1.2793-1.3291
		c-0.61963,0-1.09912,0.26953-1.49902,0.81934l-0.49951-0.41992c0.5293-0.68945,1.16895-1.00879,2.00879-1.00879
		C46.72754,16.71387,47.44727,17.42285,47.44727,18.65234z M46.75732,19.51172v-0.06934h-0.94922
		c-0.90967,0-1.29932,0.05957-1.53906,0.24902c-0.18018,0.14062-0.27002,0.36035-0.27002,0.63965
		c0,0.5498,0.46973,0.90039,1.20947,0.90039C46.15771,21.23145,46.75732,20.56152,46.75732,19.51172z"/>
	<path d="M51.42871,19.25195c0-1.45898,0.94971-2.53809,2.35889-2.53809c1.39941,0,2.36865,1.0791,2.36865,2.53809
		c0,1.44922-0.95947,2.54883-2.36865,2.54883S51.42871,20.71094,51.42871,19.25195z M55.4668,19.25195
		c0-1.11914-0.62988-1.92871-1.6792-1.92871c-1.05957,0-1.66895,0.81934-1.66895,1.92871c0,1.11914,0.61963,1.93945,1.66895,1.93945
		C54.84717,21.19141,55.4668,20.35156,55.4668,19.25195z"/>
	<path d="M62.05615,19.25195c0,1.46973-0.74951,2.54883-2.18896,2.54883c-0.71924,0-1.26904-0.28027-1.62891-0.73926v2.69824
		h-0.68945v-6.9668h0.68945v0.66016c0.36963-0.47949,0.92969-0.75,1.62891-0.75
		C61.23682,16.70312,62.05615,17.71289,62.05615,19.25195z M61.3667,19.25195c0-1.16895-0.59961-1.93848-1.59912-1.93848
		c-0.98975,0-1.58936,0.76953-1.58936,1.93848c0,1.11914,0.5498,1.93945,1.58936,1.93945
		C60.81689,21.19141,61.3667,20.37109,61.3667,19.25195z"/>
	<path d="M67.38623,19.44238h-3.60791c0.02002,1.0791,0.61963,1.72852,1.58936,1.72852c0.53955,0,0.96924-0.13965,1.41895-0.61914
		l0.47998,0.41895c-0.57959,0.61035-1.14941,0.83008-1.90918,0.83008c-1.49902,0-2.26855-1.11914-2.26855-2.51855
		c0-1.38965,0.75977-2.56836,2.18896-2.56836c1.50879,0,2.13867,1.17871,2.13867,2.29785
		C67.4165,19.15234,67.40625,19.32227,67.38623,19.44238z M63.77832,18.8623h2.97852c0-0.02051-0.01025-0.07031-0.01025-0.16016
		c-0.0498-0.7998-0.55957-1.40918-1.46875-1.40918C64.38818,17.29297,63.83838,17.99316,63.77832,18.8623z"/>
	<path d="M71.80713,16.92383l-0.33984,0.55957c-0.22949-0.10059-0.43945-0.15039-0.64941-0.15039
		c-0.75977,0-1.31934,0.56934-1.31934,1.63965v2.74805h-0.68945v-4.92773h0.68945v0.74023
		c0.35986-0.64941,0.95947-0.81934,1.45898-0.81934C71.25781,16.71387,71.5376,16.77344,71.80713,16.92383z"/>
	<path d="M76.49658,18.65234v3.06836H75.8667l-0.04004-0.75977c-0.38965,0.5498-0.98926,0.83984-1.76904,0.83984
		c-1.06934,0-1.69873-0.55957-1.69873-1.50977c0-0.49902,0.19971-0.87891,0.55957-1.09863
		c0.37988-0.21973,0.90967-0.31055,1.87891-0.31055h1.00928v-0.22949c0-0.85938-0.44971-1.3291-1.2793-1.3291
		c-0.61963,0-1.09912,0.26953-1.49902,0.81934l-0.49951-0.41992c0.5293-0.68945,1.16895-1.00879,2.00879-1.00879
		C75.77686,16.71387,76.49658,17.42285,76.49658,18.65234z M75.80664,19.51172v-0.06934h-0.94922
		c-0.90967,0-1.29932,0.05957-1.53906,0.24902c-0.18018,0.14062-0.27002,0.36035-0.27002,0.63965
		c0,0.5498,0.46973,0.90039,1.20947,0.90039C75.20703,21.23145,75.80664,20.56152,75.80664,19.51172z"/>
</g>
<g enable-background="new    ">
	<path d="M28.97949,27.75488h0.79932v1.01953h-0.79932V27.75488z M29.03955,29.79297H29.729v4.92773h-0.68945V29.79297z"/>
	<path d="M35.47705,31.70215v3.01855H34.7876v-2.84863c0-1.05957-0.33984-1.54883-1.07959-1.54883
		c-0.92969,0-1.46924,0.7998-1.46924,2.18848v2.20898h-0.68945v-4.92773h0.68945v0.71973
		c0.31982-0.49902,0.91943-0.79883,1.62891-0.79883C34.92725,29.71387,35.47705,30.39355,35.47705,31.70215z"/>
	<path d="M39.49902,32.27246c0-1.2998,0.72998-2.55859,2.21875-2.55859c0.87988,0,1.60938,0.43945,1.99902,1.3584l-0.65967,0.26074
		c-0.22949-0.62988-0.71924-1.00977-1.33936-1.00977c-1.04932,0-1.51904,0.93945-1.51904,1.94922
		c0,1.00879,0.46973,1.91895,1.5293,1.91895c0.61963,0,1.10938-0.37012,1.29932-1l0.63965,0.24023
		c-0.33008,0.89941-1.04932,1.36914-1.93896,1.36914C40.29883,34.80078,39.49902,33.6416,39.49902,32.27246z"/>
	<path d="M48.60742,31.65234v3.06836h-0.62988l-0.04004-0.75977c-0.38965,0.5498-0.98926,0.83984-1.76904,0.83984
		c-1.06934,0-1.69873-0.55957-1.69873-1.50977c0-0.49902,0.19971-0.87891,0.55957-1.09863
		c0.37988-0.21973,0.90967-0.31055,1.87891-0.31055h1.00928v-0.22949c0-0.85938-0.44971-1.3291-1.2793-1.3291
		c-0.61963,0-1.09912,0.26953-1.49902,0.81934l-0.49951-0.41992c0.5293-0.68945,1.16895-1.00879,2.00879-1.00879
		C47.8877,29.71387,48.60742,30.42285,48.60742,31.65234z M47.91748,32.51172v-0.06934h-0.94922
		c-0.90967,0-1.29932,0.05957-1.53906,0.24902c-0.18018,0.14062-0.27002,0.36035-0.27002,0.63965
		c0,0.5498,0.46973,0.90039,1.20947,0.90039C47.31787,34.23145,47.91748,33.56152,47.91748,32.51172z"/>
	<path d="M53.28711,29.92383l-0.33984,0.55957c-0.22949-0.10059-0.43945-0.15039-0.64941-0.15039
		c-0.75977,0-1.31934,0.56934-1.31934,1.63965v2.74805h-0.68945v-4.92773h0.68945v0.74023
		c0.35986-0.64941,0.95947-0.81934,1.45898-0.81934C52.7373,29.71387,53.01758,29.77344,53.28711,29.92383z"/>
	<path d="M57.97705,31.65234v3.06836h-0.62988l-0.04004-0.75977c-0.38965,0.5498-0.98926,0.83984-1.76904,0.83984
		c-1.06934,0-1.69873-0.55957-1.69873-1.50977c0-0.49902,0.19971-0.87891,0.55957-1.09863
		c0.37988-0.21973,0.90967-0.31055,1.87891-0.31055h1.00928v-0.22949c0-0.85938-0.44971-1.3291-1.2793-1.3291
		c-0.61963,0-1.09912,0.26953-1.49902,0.81934l-0.49951-0.41992c0.5293-0.68945,1.16895-1.00879,2.00879-1.00879
		C57.25732,29.71387,57.97705,30.42285,57.97705,31.65234z M57.28711,32.51172v-0.06934h-0.94922
		c-0.90967,0-1.29932,0.05957-1.53906,0.24902c-0.18018,0.14062-0.27002,0.36035-0.27002,0.63965
		c0,0.5498,0.46973,0.90039,1.20947,0.90039C56.6875,34.23145,57.28711,33.56152,57.28711,32.51172z"/>
	<path d="M61.70801,34.6709c-0.25977,0.08008-0.52002,0.12988-0.74951,0.12988c-0.65967,0-1.13965-0.37012-1.13965-1.23926v-3.18848
		h-0.81934v-0.58008h0.81934v-1.37891l0.68994-0.51953v1.89844h1.18896v0.58008h-1.18896v3.09863
		c0,0.47949,0.21973,0.69922,0.60938,0.69922c0.16992,0,0.35986-0.04004,0.57959-0.10938L61.70801,34.6709z"/>
	<path d="M65.06787,34.6709c-0.25977,0.08008-0.52002,0.12988-0.74951,0.12988c-0.65967,0-1.13965-0.37012-1.13965-1.23926v-3.18848
		h-0.81934v-0.58008h0.81934v-1.37891l0.68945-0.51953v1.89844h1.18945v0.58008h-1.18945v3.09863
		c0,0.47949,0.22021,0.69922,0.60986,0.69922c0.16992,0,0.35986-0.04004,0.57959-0.10938L65.06787,34.6709z"/>
	<path d="M70.22656,32.44238h-3.60791c0.02002,1.0791,0.61963,1.72852,1.58936,1.72852c0.53955,0,0.96924-0.13965,1.41895-0.61914
		l0.47998,0.41895c-0.57959,0.61035-1.14941,0.83008-1.90918,0.83008c-1.49902,0-2.26855-1.11914-2.26855-2.51855
		c0-1.38965,0.75977-2.56836,2.18896-2.56836c1.50879,0,2.13867,1.17871,2.13867,2.29785
		C70.25684,32.15234,70.24658,32.32227,70.22656,32.44238z M66.61865,31.8623h2.97852c0-0.02051-0.01025-0.07031-0.01025-0.16016
		c-0.0498-0.7998-0.55957-1.40918-1.46875-1.40918C67.22852,30.29297,66.67871,30.99316,66.61865,31.8623z"/>
	<path d="M74.64697,29.92383l-0.33984,0.55957c-0.22949-0.10059-0.43945-0.15039-0.64941-0.15039
		c-0.75977,0-1.31934,0.56934-1.31934,1.63965v2.74805h-0.68945v-4.92773h0.68945v0.74023
		c0.35986-0.64941,0.95947-0.81934,1.45898-0.81934C74.09766,29.71387,74.37744,29.77344,74.64697,29.92383z"/>
	<path d="M75.60889,27.75488h0.79932v1.01953h-0.79932V27.75488z M75.66895,29.79297h0.68945v4.92773h-0.68945V29.79297z"/>
</g>
<path id="Path-4" fill="none" stroke="#444444" stroke-width="0.25" stroke-dasharray="1.9,1.9" d="M91.66105,43.39326h31.74458"/>
<path id="Path-7" fill="none" stroke="#444444" stroke-width="0.25" stroke-dasharray="1.9,1.9" d="M90.0637,0.40899h34.7923"/>
<path id="Path-10" fill="none" stroke="#444444" stroke-width="0.25" stroke-dasharray="2.114,2.114" d="M126.15015,13.26249
	h43.65301"/>
<path id="Path-13" fill="none" stroke="#444444" stroke-width="0.25" stroke-dasharray="2.114,2.114" d="M126.00401,32.39849
	h43.65301"/>
<g enable-background="new    ">
	<path d="M186.70703,23.26074l-1.01953-1c-0.50977,0.36035-1.12988,0.55957-1.83984,0.55957
		c-1.9082,0-3.1875-1.42871-3.1875-3.57812c0-2.1582,1.2793-3.58789,3.1875-3.58789c1.90918,0,3.18848,1.42969,3.18848,3.58789
		c0,1.08008-0.31934,1.96973-0.87988,2.59863l1.00977,0.99023L186.70703,23.26074z M185.17773,21.77148l-1.12988-1.09961
		l0.47949-0.42969l1.12891,1.10938c0.42969-0.5,0.66992-1.22949,0.66992-2.10938c0-1.77832-0.96875-2.9082-2.47852-2.9082
		c-1.50879,0-2.47852,1.12988-2.47852,2.9082c0,1.76953,0.96973,2.89844,2.47852,2.89844
		C184.35742,22.14062,184.80664,22.01074,185.17773,21.77148z"/>
	<path d="M192.55664,17.79297v4.92773h-0.68945v-0.70996c-0.34961,0.53027-0.97852,0.79004-1.62891,0.79004
		c-1.11914,0-1.60938-0.76953-1.60938-1.98926v-3.01855h0.68945v2.84863c0,0.7998,0.14062,1.5498,1.08008,1.5498
		c0.97949,0,1.46875-0.84961,1.46875-2.12891v-2.26953H192.55664z"/>
	<path d="M198.04688,19.65234v3.06836h-0.62891l-0.04102-0.75977c-0.38867,0.5498-0.98828,0.83984-1.76855,0.83984
		c-1.06934,0-1.69824-0.55957-1.69824-1.50977c0-0.49902,0.19922-0.87891,0.55859-1.09863
		c0.38086-0.21973,0.91016-0.31055,1.87891-0.31055h1.00977v-0.22949c0-0.85938-0.44922-1.3291-1.2793-1.3291
		c-0.61914,0-1.09961,0.26953-1.49902,0.81934l-0.49902-0.41992c0.5293-0.68945,1.16797-1.00879,2.00781-1.00879
		C197.32812,17.71387,198.04688,18.42285,198.04688,19.65234z M197.35742,20.51172v-0.06934h-0.94922
		c-0.91016,0-1.29883,0.05957-1.53906,0.24902c-0.17969,0.14062-0.26953,0.36035-0.26953,0.63965
		c0,0.5498,0.46875,0.90039,1.20898,0.90039C196.75781,22.23145,197.35742,21.56152,197.35742,20.51172z"/>
	<path d="M203.65723,19.70215v3.01855h-0.68945v-2.84863c0-1.05957-0.33984-1.54883-1.0791-1.54883
		c-0.92969,0-1.46973,0.7998-1.46973,2.18848v2.20898h-0.68945v-4.92773h0.68945v0.71973
		c0.31934-0.49902,0.91895-0.79883,1.62891-0.79883C203.10742,17.71387,203.65723,18.39355,203.65723,19.70215z"/>
	<path d="M207.4082,22.6709c-0.25977,0.08008-0.51953,0.12988-0.75,0.12988c-0.65918,0-1.13867-0.37012-1.13867-1.23926v-3.18848
		h-0.82031v-0.58008h0.82031v-1.37891l0.68945-0.51953v1.89844h1.18945v0.58008h-1.18945v3.09863
		c0,0.47949,0.21973,0.69922,0.60938,0.69922c0.16992,0,0.35938-0.04004,0.58008-0.10938L207.4082,22.6709z"/>
	<path d="M208.65918,15.75488h0.7998v1.01953h-0.7998V15.75488z M208.71875,17.79297h0.68945v4.92773h-0.68945V17.79297z"/>
	<path d="M213.27734,22.6709c-0.25977,0.08008-0.51953,0.12988-0.74902,0.12988c-0.65918,0-1.13965-0.37012-1.13965-1.23926
		v-3.18848h-0.81934v-0.58008h0.81934v-1.37891l0.68945-0.51953v1.89844h1.18945v0.58008h-1.18945v3.09863
		c0,0.47949,0.2207,0.69922,0.60938,0.69922c0.16992,0,0.36035-0.04004,0.58008-0.10938L213.27734,22.6709z"/>
	<path d="M218.25781,19.65234v3.06836h-0.63086l-0.03906-0.75977c-0.39062,0.5498-0.99023,0.83984-1.76953,0.83984
		c-1.06934,0-1.69922-0.55957-1.69922-1.50977c0-0.49902,0.2002-0.87891,0.56055-1.09863
		c0.37891-0.21973,0.90918-0.31055,1.87891-0.31055h1.00879v-0.22949c0-0.85938-0.4502-1.3291-1.2793-1.3291
		c-0.62012,0-1.09863,0.26953-1.49902,0.81934l-0.5-0.41992c0.5293-0.68945,1.16992-1.00879,2.00977-1.00879
		C217.53711,17.71387,218.25781,18.42285,218.25781,19.65234z M216.04883,17.16406l-1.24023-1.40918h0.74023l1.03906,1.40918
		H216.04883z M217.56738,20.51172v-0.06934h-0.94922c-0.90918,0-1.2998,0.05957-1.53906,0.24902
		c-0.18066,0.14062-0.27051,0.36035-0.27051,0.63965c0,0.5498,0.4707,0.90039,1.20996,0.90039
		C216.96777,22.23145,217.56738,21.56152,217.56738,20.51172z"/>
	<path d="M226.78711,15.75488v6.96582h-0.69043v-0.65918c-0.35938,0.45898-0.90918,0.73926-1.62891,0.73926
		c-1.43848,0-2.18848-1.0791-2.18848-2.54883c0-1.53906,0.81934-2.54883,2.18848-2.54883c0.7002,0,1.25879,0.27051,1.62891,0.75
		v-2.69824H226.78711z M226.15625,20.25195c0-1.16895-0.59961-1.93848-1.58789-1.93848c-1,0-1.59961,0.76953-1.59961,1.93848
		c0,1.11914,0.5498,1.93945,1.59961,1.93945C225.60742,22.19141,226.15625,21.37109,226.15625,20.25195z"/>
	<path d="M228.54883,15.75488h0.79883v1.01953h-0.79883V15.75488z M228.60938,17.79297h0.68945v4.92773h-0.68945V17.79297z"/>
	<path d="M235.89746,22.6709c-0.25977,0.08008-0.52051,0.12988-0.74902,0.12988c-0.66016,0-1.14062-0.37012-1.14062-1.23926
		v-3.18848h-0.81836v-0.58008h0.81836v-1.37891l0.69043-0.51953v1.89844h1.18848v0.58008h-1.18848v3.09863
		c0,0.47949,0.21973,0.69922,0.60938,0.69922c0.16992,0,0.36035-0.04004,0.5791-0.10938L235.89746,22.6709z"/>
	<path d="M241.05664,20.44238h-3.6084c0.02051,1.0791,0.62012,1.72852,1.58887,1.72852c0.54004,0,0.96973-0.13965,1.41992-0.61914
		l0.47949,0.41895c-0.5791,0.61035-1.14941,0.83008-1.90918,0.83008c-1.49902,0-2.26855-1.11914-2.26855-2.51855
		c0-1.38965,0.75977-2.56836,2.18848-2.56836c1.50977,0,2.13867,1.17871,2.13867,2.29785
		C241.08594,20.15234,241.07617,20.32227,241.05664,20.44238z M237.44824,19.8623h2.97852
		c0-0.02051-0.01074-0.07031-0.01074-0.16016c-0.04883-0.7998-0.55859-1.40918-1.46875-1.40918
		C238.05859,18.29297,237.50781,18.99316,237.44824,19.8623z"/>
	<path d="M241.94922,21.51172l0.58008-0.25977c0.17969,0.50977,0.65918,0.93945,1.42871,0.93945
		c0.66895,0,1.09961-0.33008,1.09961-0.84961c0-1.30957-2.83887-0.49023-2.83887-2.23926c0-0.85938,0.69922-1.38867,1.68945-1.38867
		c0.78906,0,1.42969,0.3291,1.76953,1.0293l-0.55078,0.2998c-0.23926-0.44043-0.62891-0.71973-1.23828-0.71973
		c-0.61035,0-1,0.25-1,0.67969c0,1.16895,2.84766,0.42969,2.84766,2.29883c0,0.99902-0.81836,1.49902-1.76855,1.49902
		C242.99805,22.80078,242.20898,22.30078,241.94922,21.51172z"/>
	<path d="M249.1875,22.6709c-0.25977,0.08008-0.51953,0.12988-0.75,0.12988c-0.65918,0-1.13867-0.37012-1.13867-1.23926v-3.18848
		h-0.82031v-0.58008h0.82031v-1.37891l0.68945-0.51953v1.89844h1.18945v0.58008h-1.18945v3.09863
		c0,0.47949,0.21973,0.69922,0.60938,0.69922c0.16992,0,0.35938-0.04004,0.58008-0.10938L249.1875,22.6709z"/>
	<path d="M250.01855,20.25195c0-1.45898,0.9502-2.53809,2.3584-2.53809c1.40039,0,2.36914,1.0791,2.36914,2.53809
		c0,1.44922-0.95898,2.54883-2.36914,2.54883C250.96875,22.80078,250.01855,21.71094,250.01855,20.25195z M254.05664,20.25195
		c0-1.11914-0.62988-1.92871-1.67969-1.92871c-1.05859,0-1.66797,0.81934-1.66797,1.92871
		c0,1.11914,0.61914,1.93945,1.66797,1.93945C253.4375,22.19141,254.05664,21.35156,254.05664,20.25195z"/>
</g>
<g enable-background="new    ">
	<path d="M185.02734,28.75488v6.96582h-0.68945v-0.65918c-0.35938,0.45898-0.91016,0.73926-1.62891,0.73926
		c-1.43945,0-2.18945-1.0791-2.18945-2.54883c0-1.53906,0.82031-2.54883,2.18945-2.54883c0.69922,0,1.25879,0.27051,1.62891,0.75
		v-2.69824H185.02734z M184.39746,33.25195c0-1.16895-0.59961-1.93848-1.58887-1.93848c-1,0-1.59961,0.76953-1.59961,1.93848
		c0,1.11914,0.5498,1.93945,1.59961,1.93945C183.84766,35.19141,184.39746,34.37109,184.39746,33.25195z"/>
	<path d="M190.60742,30.79297v4.92773h-0.68945v-0.70996c-0.34961,0.53027-0.97949,0.79004-1.62891,0.79004
		c-1.11914,0-1.60938-0.76953-1.60938-1.98926v-3.01855h0.68945v2.84863c0,0.7998,0.14062,1.5498,1.08008,1.5498
		c0.97852,0,1.46875-0.84961,1.46875-2.12891v-2.26953H190.60742z"/>
	<path d="M196.9375,33.25195c0,1.46973-0.75,2.54883-2.18945,2.54883c-0.71875,0-1.26953-0.28027-1.62891-0.73926v0.65918h-0.68945
		v-6.96582h0.68945v2.69824c0.36914-0.47949,0.92969-0.75,1.62891-0.75C196.11719,30.70312,196.9375,31.71289,196.9375,33.25195z
		 M196.24805,33.25195c0-1.16895-0.59961-1.93848-1.59961-1.93848c-0.99023,0-1.58984,0.76953-1.58984,1.93848
		c0,1.11914,0.55078,1.93945,1.58984,1.93945C195.69727,35.19141,196.24805,34.37109,196.24805,33.25195z"/>
	<path d="M198.30957,28.75488h0.7998v1.01953h-0.7998V28.75488z M198.36914,30.79297h0.68945v4.92773h-0.68945V30.79297z"/>
	<path d="M202.92773,35.6709c-0.25977,0.08008-0.51953,0.12988-0.74902,0.12988c-0.65918,0-1.13965-0.37012-1.13965-1.23926
		v-3.18848h-0.81934v-0.58008h0.81934v-1.37891l0.68945-0.51953v1.89844h1.18945v0.58008h-1.18945v3.09863
		c0,0.47949,0.2207,0.69922,0.60938,0.69922c0.16992,0,0.36035-0.04004,0.58008-0.10938L202.92773,35.6709z"/>
	<path d="M207.90723,32.65234v3.06836h-0.62988l-0.04004-0.75977c-0.38965,0.5498-0.98926,0.83984-1.76855,0.83984
		c-1.07031,0-1.69922-0.55957-1.69922-1.50977c0-0.49902,0.19922-0.87891,0.55957-1.09863
		c0.37988-0.21973,0.90918-0.31055,1.87891-0.31055h1.00879v-0.22949c0-0.85938-0.44922-1.3291-1.2793-1.3291
		c-0.61914,0-1.09863,0.26953-1.49805,0.81934l-0.5-0.41992c0.5293-0.68945,1.16895-1.00879,2.00879-1.00879
		C207.1875,30.71387,207.90723,31.42285,207.90723,32.65234z M207.2168,33.51172v-0.06934h-0.94922
		c-0.90918,0-1.29883,0.05957-1.53906,0.24902c-0.17969,0.14062-0.26953,0.36035-0.26953,0.63965
		c0,0.5498,0.46973,0.90039,1.20898,0.90039C206.61719,35.23145,207.2168,34.56152,207.2168,33.51172z"/>
	<path d="M211.63867,35.6709c-0.25977,0.08008-0.52051,0.12988-0.75,0.12988c-0.66016,0-1.13965-0.37012-1.13965-1.23926v-3.18848
		h-0.81934v-0.58008h0.81934v-1.37891l0.68945-0.51953v1.89844h1.18945v0.58008h-1.18945v3.09863
		c0,0.47949,0.21973,0.69922,0.61035,0.69922c0.16992,0,0.35938-0.04004,0.5791-0.10938L211.63867,35.6709z"/>
	<path d="M212.88867,28.75488h0.7998v1.01953h-0.7998V28.75488z M212.94922,30.79297h0.68945v4.92773h-0.68945V30.79297z"/>
	<path d="M214.75,30.79297h0.75l1.54883,4.04785l1.55859-4.04785h0.75977l-2.01953,4.92773h-0.58887L214.75,30.79297z"/>
	<path d="M219.89941,33.25195c0-1.45898,0.94922-2.53809,2.3584-2.53809c1.39941,0,2.36914,1.0791,2.36914,2.53809
		c0,1.44922-0.95996,2.54883-2.36914,2.54883S219.89941,34.71094,219.89941,33.25195z M223.9375,33.25195
		c0-1.11914-0.63086-1.92871-1.67969-1.92871c-1.05957,0-1.66895,0.81934-1.66895,1.92871
		c0,1.11914,0.62012,1.93945,1.66895,1.93945C223.31738,35.19141,223.9375,34.35156,223.9375,33.25195z"/>
	<path d="M228.68945,28.75488h0.79883v1.01953h-0.79883V28.75488z M228.74902,30.79297h0.68945v4.92773h-0.68945V30.79297z"/>
	<path d="M235.18652,32.70215v3.01855h-0.68945v-2.84863c0-1.05957-0.33984-1.54883-1.0791-1.54883
		c-0.92969,0-1.46973,0.7998-1.46973,2.18848v2.20898h-0.68945v-4.92773h0.68945v0.71973
		c0.31934-0.49902,0.91895-0.79883,1.62891-0.79883C234.63672,30.71387,235.18652,31.39355,235.18652,32.70215z"/>
</g>
<g enable-background="new    ">
	<path d="M180.5,46.27246c0-1.2998,0.72949-2.55859,2.21875-2.55859c0.87891,0,1.60938,0.43945,1.99805,1.3584l-0.65918,0.26074
		c-0.22949-0.62988-0.71973-1.00977-1.33887-1.00977c-1.0498,0-1.51953,0.93945-1.51953,1.94922
		c0,1.00879,0.46973,1.91895,1.5293,1.91895c0.61914,0,1.10938-0.37012,1.29883-1l0.64062,0.24023
		c-0.33008,0.89941-1.0498,1.36914-1.93945,1.36914C181.29883,48.80078,180.5,47.6416,180.5,46.27246z"/>
	<path d="M189.60742,45.65234v3.06836h-0.62891l-0.04102-0.75977c-0.38867,0.5498-0.98828,0.83984-1.76855,0.83984
		c-1.06934,0-1.69824-0.55957-1.69824-1.50977c0-0.49902,0.19922-0.87891,0.55859-1.09863
		c0.38086-0.21973,0.91016-0.31055,1.87891-0.31055h1.00977v-0.22949c0-0.85938-0.44922-1.3291-1.2793-1.3291
		c-0.61914,0-1.09961,0.26953-1.49902,0.81934l-0.49902-0.41992c0.5293-0.68945,1.16797-1.00879,2.00781-1.00879
		C188.88867,43.71387,189.60742,44.42285,189.60742,45.65234z M188.91797,46.51172v-0.06934h-0.94922
		c-0.91016,0-1.29883,0.05957-1.53906,0.24902c-0.17969,0.14062-0.26953,0.36035-0.26953,0.63965
		c0,0.5498,0.46875,0.90039,1.20898,0.90039C188.31836,48.23145,188.91797,47.56152,188.91797,46.51172z"/>
	<path d="M194.28711,43.92383l-0.33984,0.55957c-0.22852-0.10059-0.43945-0.15039-0.64844-0.15039
		c-0.75977,0-1.32031,0.56934-1.32031,1.63965v2.74805h-0.68945v-4.92773h0.68945v0.74023
		c0.36035-0.64941,0.95996-0.81934,1.45898-0.81934C193.73828,43.71387,194.01758,43.77344,194.28711,43.92383z"/>
	<path d="M198.97754,45.65234v3.06836h-0.62988l-0.04004-0.75977c-0.38965,0.5498-0.98926,0.83984-1.76855,0.83984
		c-1.07031,0-1.69922-0.55957-1.69922-1.50977c0-0.49902,0.19922-0.87891,0.55957-1.09863
		c0.37988-0.21973,0.90918-0.31055,1.87891-0.31055h1.00879v-0.22949c0-0.85938-0.44922-1.3291-1.2793-1.3291
		c-0.61914,0-1.09863,0.26953-1.49805,0.81934l-0.5-0.41992c0.5293-0.68945,1.16895-1.00879,2.00879-1.00879
		C198.25781,43.71387,198.97754,44.42285,198.97754,45.65234z M198.28711,46.51172v-0.06934h-0.94922
		c-0.90918,0-1.29883,0.05957-1.53906,0.24902c-0.17969,0.14062-0.26953,0.36035-0.26953,0.63965
		c0,0.5498,0.46973,0.90039,1.20898,0.90039C197.6875,48.23145,198.28711,47.56152,198.28711,46.51172z"/>
	<path d="M202.70898,48.6709c-0.25977,0.08008-0.52051,0.12988-0.75,0.12988c-0.66016,0-1.13965-0.37012-1.13965-1.23926v-3.18848
		H200v-0.58008h0.81934v-1.37891l0.68945-0.51953v1.89844h1.18945v0.58008h-1.18945v3.09863
		c0,0.47949,0.21973,0.69922,0.61035,0.69922c0.16992,0,0.35938-0.04004,0.5791-0.10938L202.70898,48.6709z"/>
	<path d="M206.06836,48.6709c-0.25977,0.08008-0.51953,0.12988-0.75,0.12988c-0.65918,0-1.13867-0.37012-1.13867-1.23926v-3.18848
		h-0.82031v-0.58008h0.82031v-1.37891l0.68945-0.51953v1.89844h1.18945v0.58008h-1.18945v3.09863
		c0,0.47949,0.21973,0.69922,0.60938,0.69922c0.16992,0,0.35938-0.04004,0.58008-0.10938L206.06836,48.6709z"/>
	<path d="M211.22656,46.44238h-3.60742c0.01953,1.0791,0.61914,1.72852,1.58984,1.72852c0.53906,0,0.96875-0.13965,1.41797-0.61914
		l0.48047,0.41895c-0.58008,0.61035-1.14941,0.83008-1.90918,0.83008c-1.49902,0-2.26855-1.11914-2.26855-2.51855
		c0-1.38965,0.75977-2.56836,2.18945-2.56836c1.50781,0,2.13867,1.17871,2.13867,2.29785
		C211.25781,46.15234,211.24707,46.32227,211.22656,46.44238z M207.61914,45.8623h2.97852
		c0-0.02051-0.00977-0.07031-0.00977-0.16016c-0.05078-0.7998-0.56055-1.40918-1.46875-1.40918
		C208.22852,44.29297,207.67969,44.99316,207.61914,45.8623z"/>
	<path d="M215.64746,43.92383l-0.33984,0.55957c-0.22949-0.10059-0.43945-0.15039-0.64941-0.15039
		c-0.75977,0-1.31934,0.56934-1.31934,1.63965v2.74805h-0.68945v-4.92773h0.68945v0.74023
		c0.36035-0.64941,0.95996-0.81934,1.45898-0.81934C215.09766,43.71387,215.37793,43.77344,215.64746,43.92383z"/>
	<path d="M216.60938,41.75488h0.79883v1.01953h-0.79883V41.75488z M216.66992,43.79297h0.68945v4.92773h-0.68945V43.79297z"/>
</g>
<path id="Tracciato_124409" fill="#A8A8FD" d="M125.42792,30.20998c-0.60596-0.79999-1.09998-0.875-1.69995-0.427
	c-1.12573,0.84808-2.72583,0.62305-3.57385-0.50269c-0.37683-0.50009-0.55652-1.12128-0.50513-1.7453
	c0.11401-1.38901-0.37402-2.259-2.33801-2.42099c-1.98486-0.18774-3.44177-1.94904-3.25403-3.93393
	c0.18469-1.95145,1.8927-3.39902,3.84802-3.26108c0.24951,0.01999,0.49634,0.06659,0.73596,0.13901
	c1.60901,0.48001,2.5,0.01901,3-1.655c0.59851-1.98672,2.69434-3.11206,4.68103-2.51349
	c1.80579,0.54401,2.92834,2.34235,2.62402,4.20349c-0.18103,1.08401,0.125,1.50699,0.85901,1.634
	c1.38977,0.23758,2.32385,1.55688,2.0863,2.94669c-0.10706,0.62625-0.44373,1.19006-0.94434,1.5813
	c-0.58801,0.45801-0.65198,0.957-0.03101,1.755c1.17139,1.5072,0.89917,3.67862-0.60803,4.85001s-3.67859,0.8992-4.84998-0.608
	L125.42792,30.20998z"/>
</svg>
