<svg xmlns="http://www.w3.org/2000/svg" width="300.421" height="98.473" viewBox="0 0 300.421 98.473">
  <g id="Raggruppa_1310" data-name="Raggruppa 1310" transform="translate(99.77 -557.064)">
    <text id="_100_significato" data-name="100% significato" transform="translate(165.792 652.538)" font-size="10" font-family="HKGrotesk-Regular, HK Grotesk"><tspan x="-72.19" y="0">100% significato</tspan></text>
    <text id="_100_forma" data-name="100% forma" transform="translate(200.651 567.065)" font-size="10" font-family="HKGrotesk-Regular, HK Grotesk"><tspan x="-53.93" y="0">100% forma</tspan></text>
    <text id="_100_contenuto" data-name="100% contenuto" transform="translate(122.727 567.064)" font-size="10" font-family="HKGrotesk-Regular, HK Grotesk"><tspan x="-72.26" y="0">100% contenuto</tspan></text>
    <g id="Raggruppa_1305" data-name="Raggruppa 1305" transform="translate(-482 520.065)">
      <rect id="Rettangolo_9797" data-name="Rettangolo 9797" width="7.812" height="7.812" rx="3.906" transform="translate(607.462 109.298)" fill="#f36"/>
      <rect id="Rettangolo_9798" data-name="Rettangolo 9798" width="7.812" height="7.812" rx="3.906" transform="translate(599.265 96.246)" fill="#ff5d5b"/>
      <rect id="Rettangolo_9799" data-name="Rettangolo 9799" width="7.812" height="7.812" rx="3.906" transform="translate(574.677 57.089)" fill="#ffd93b"/>
      <rect id="Rettangolo_9800" data-name="Rettangolo 9800" width="7.812" height="7.812" rx="3.906" transform="translate(590.978 57.157)" fill="#c3d261"/>
      <rect id="Rettangolo_9801" data-name="Rettangolo 9801" width="7.812" height="7.812" rx="3.906" transform="translate(607.279 57.226)" fill="#88cc87"/>
      <rect id="Rettangolo_9802" data-name="Rettangolo 9802" width="7.812" height="7.812" rx="3.906" transform="translate(623.581 57.294)" fill="#4cc5ac"/>
      <rect id="Rettangolo_9803" data-name="Rettangolo 9803" width="7.812" height="7.812" rx="3.906" transform="translate(639.882 57.362)" fill="#10bed2"/>
      <rect id="Rettangolo_9804" data-name="Rettangolo 9804" width="7.812" height="7.812" rx="3.906" transform="translate(607.462 109.298)" fill="#f36"/>
      <rect id="Rettangolo_9805" data-name="Rettangolo 9805" width="7.812" height="7.812" rx="3.906" transform="translate(615.567 96.314)" fill="#c35681"/>
      <g id="Raggruppa_1292" data-name="Raggruppa 1292">
        <rect id="Rettangolo_9806" data-name="Rettangolo 9806" width="7.812" height="7.812" rx="3.906" transform="translate(591.069 83.194)" fill="#ff8651"/>
        <rect id="Rettangolo_9807" data-name="Rettangolo 9807" width="7.812" height="7.812" rx="3.906" transform="translate(607.37 83.262)" fill="#c38077"/>
        <rect id="Rettangolo_9808" data-name="Rettangolo 9808" width="7.812" height="7.812" rx="3.906" transform="translate(623.672 83.33)" fill="#88799c"/>
      </g>
      <g id="Raggruppa_1293" data-name="Raggruppa 1293">
        <rect id="Rettangolo_9809" data-name="Rettangolo 9809" width="7.812" height="7.812" rx="3.906" transform="translate(582.873 70.142)" fill="#ffb046"/>
        <rect id="Rettangolo_9810" data-name="Rettangolo 9810" width="7.812" height="7.812" rx="3.906" transform="translate(599.174 70.21)" fill="#c3a96c"/>
        <rect id="Rettangolo_9811" data-name="Rettangolo 9811" width="7.812" height="7.812" rx="3.906" transform="translate(615.475 70.278)" fill="#88a291"/>
        <rect id="Rettangolo_9812" data-name="Rettangolo 9812" width="7.812" height="7.812" rx="3.906" transform="translate(631.777 70.346)" fill="#4c9bb7"/>
      </g>
      <rect id="Rettangolo_9813" data-name="Rettangolo 9813" width="7.812" height="7.812" rx="3.906" transform="translate(639.882 57.362)" fill="#10bed2"/>
    </g>
    <text id="Percentuale_d_utilizzo_delle_categorie_nel_testo_dubitativo_di_un_opera" data-name="Percentuale d’utilizzo delle categorie nel testo dubitativo di un’opera" transform="translate(-99.77 558.064)" font-size="10" font-family="HKGrotesk-Regular, HK Grotesk"><tspan x="0" y="10">Percentuale </tspan><tspan x="0" y="23">d’utilizzo delle </tspan><tspan x="0" y="36">categorie nel testo </tspan><tspan x="0" y="49">dubitativo di </tspan><tspan x="0" y="62">un’opera</tspan></text>
    <g id="Raggruppa_7794" data-name="Raggruppa 7794" transform="translate(-510.65 678.371) rotate(-16)" opacity="0.3">
      <path id="Tracciato_109125" data-name="Tracciato 109125" d="M608.073,90.26a57.06,57.06,0,0,1-16.848,2.482c-15.654,0-29.285-6.04-36.351-14.96" fill="none" stroke="#000" stroke-miterlimit="10" stroke-width="0.5"/>
      <g id="Raggruppa_1315" data-name="Raggruppa 1315" transform="translate(604.614 87.959)">
        <path id="Tracciato_109126" data-name="Tracciato 109126" d="M615.82,91.011l-.32.615,3.029,1.575-1.792,2.907.59.363,2.182-3.541Z" transform="translate(-615.5 -91.011)"/>
      </g>
    </g>
  </g>
</svg>
