<?xml version="1.0" encoding="utf-8"?>
<!-- Generator: Adobe Illustrator 25.0.0, SVG Export Plug-In . SVG Version: 6.00 Build 0)  -->
<svg version="1.1" id="Livello_1" xmlns="http://www.w3.org/2000/svg" xmlns:xlink="http://www.w3.org/1999/xlink" x="0px" y="0px"
	 viewBox="0 0 300 115.1" enable-background="new 0 0 300 115.1" xml:space="preserve">
<g id="Raggruppa_1304" transform="translate(-173.807 328.5)">
	<path id="Tracciato_116472" fill="none" stroke="#707070" stroke-linecap="round" stroke-dasharray="0.1,3" d="M311.79999-328
		c15.20001,0,27.5,12.29999,27.5,27.5S327-273,311.79999-273s-27.39999-12.39999-27.39999-27.60001l0,0
		C284.39999-315.70001,296.70001-328,311.79999-328z"/>
	<circle id="Ellisse_460" fill="#10BED2" cx="311.89999" cy="-300.79999" r="2.5"/>
	<circle id="Ellisse_461" fill="#FF3366" cx="312.20001" cy="-287" r="4.10001"/>
	<circle id="Ellisse_462" fill="#FFD93B" cx="312.20001" cy="-314.29999" r="1.60001"/>
	<circle id="Ellisse_463" fill="#10BED2" cx="298.70001" cy="-300.20001" r="4.39999"/>
	<circle id="Ellisse_464" fill="#FFD93B" cx="299.20001" cy="-314.79999" r="3.70001"/>
	<circle id="Ellisse_465" fill="#FF3366" cx="298.70001" cy="-286.70001" r="1.89999"/>
	<circle id="Ellisse_466" fill="#10BED2" cx="326.20001" cy="-300.39999" r="3"/>
	<circle id="Ellisse_468" fill="#FFD93B" cx="326.70001" cy="-313.70001" r="6"/>
</g>
<line id="Linea_612" fill="none" stroke="#444444" stroke-width="0.4591" x1="97.3" y1="13.6" x2="121" y2="13.6"/>
<path id="Tracciato_116477" fill="none" stroke="#444444" stroke-width="0.4591" d="M85.1,27.6h34.3"/>
<path id="Tracciato_116473" fill="none" stroke="#444444" stroke-width="0.4591" d="M99.5,41.6h22.3"/>
<g id="Group-2" transform="translate(63 323.896)">
	<path id="Path-2" fill="none" stroke="#444444" stroke-width="0.5" d="M121.7-303.10001V-315.5"/>
	<rect id="Rectangle-3" x="120.3" y="-303.25891" fill="#444444" width="2.7" height="0.79999"/>
	<rect id="Rectangle-4" x="120.3" y="-315.66998" fill="#444444" width="2.7" height="0.79999"/>
</g>
<g id="Group-5" transform="translate(213.156 383.026)">
	<path id="Path-10" fill="none" stroke="#444444" stroke-width="0.25" stroke-dasharray="2.114,2.114" d="M-63.2-374.39999h33.4"/>
</g>
<g id="Group-6" transform="translate(213.156 395.483)">
	<path id="Path-13" fill="none" stroke="#444444" stroke-width="0.25" stroke-dasharray="2.114,2.114" d="M-63.2-374.39999h34.7"/>
</g>
<path id="Tracciato_124412" fill="none" stroke="#000000" stroke-width="0.5" d="M147.60001,63.1l2.2-2.3c0.8-0.8,1.2-2,1.2-3.1
	l-0.10001-15.5l0,0"/>
<path id="Tracciato_124413" fill="none" stroke="#000000" stroke-width="0.5" d="M109.6,75.9c0,0,25.9-22.7,27.3-24.1
	c0.8-0.8,1.2-2,1.2-3.1v-2.14817"/>
<path id="Tracciato_124414" fill="none" stroke="#000000" stroke-width="0.5" d="M86.03802,76.5c0,0,36-29.4,37.3-30.8
	c1.14209-0.9516,1.13537-1.42149,1.13537-1.42149"/>
<g>
	<path d="M194.77441,14.23047h-2.89844l-0.66895,1.86914h-0.78027l2.59863-6.96631h0.58984l2.6084,6.96631h-0.78906
		L194.77441,14.23047z M194.55469,13.62109l-1.22949-3.47803l-1.23926,3.47803H194.55469z"/>
	<path d="M204.20312,13.02148v3.07812h-0.68945v-2.88818c0-0.41992,0-1.50928-1.08008-1.50928
		c-0.99902,0-1.26855,0.91943-1.26855,2.02881v2.36865h-0.69043v-2.84863c0-0.81934-0.25-1.54883-1.10938-1.54883
		c-0.95898,0-1.22949,0.90918-1.22949,2.02881v2.36865h-0.68945l-0.00977-4.92725h0.66992v0.59961
		c0.30957-0.48975,0.80957-0.67969,1.35938-0.67969c0.68945,0,1.19922,0.2998,1.44922,0.94971
		c0.31934-0.62988,0.86914-0.94971,1.61914-0.94971C203.71289,11.09229,204.20312,11.87207,204.20312,13.02148z"/>
	<path d="M205.47656,13.63086c0-1.45898,0.9502-2.53857,2.35938-2.53857c1.39844,0,2.36816,1.07959,2.36816,2.53857
		c0,1.44922-0.95898,2.54883-2.36816,2.54883S205.47656,15.09033,205.47656,13.63086z M209.51465,13.63086
		c0-1.11914-0.62988-1.92871-1.67871-1.92871c-1.05957,0-1.66992,0.81934-1.66992,1.92871
		c0,1.11963,0.62012,1.93896,1.66992,1.93896C208.89453,15.56982,209.51465,14.73047,209.51465,13.63086z"/>
	<path d="M215.35547,11.17236v4.92725h-0.69043v-0.70947c-0.34961,0.52979-0.97949,0.78955-1.62891,0.78955
		c-1.11914,0-1.6084-0.76953-1.6084-1.98926v-3.01807h0.68945V14.021c0,0.79932,0.13965,1.54883,1.0791,1.54883
		c0.97949,0,1.46875-0.84961,1.46875-2.12891v-2.26855H215.35547z"/>
	<path d="M221.10449,13.08105v3.01855h-0.68945v-2.84863c0-1.05908-0.33984-1.54883-1.0791-1.54883
		c-0.92969,0-1.46973,0.79932-1.46973,2.18848v2.20898h-0.68945v-4.92725h0.68945v0.71973
		c0.32031-0.5,0.91992-0.7998,1.62988-0.7998C220.55566,11.09229,221.10449,11.77197,221.10449,13.08105z"/>
	<path d="M224.85547,16.0498c-0.25977,0.07959-0.51953,0.12988-0.74902,0.12988c-0.66016,0-1.13965-0.37012-1.13965-1.23926
		v-3.18848h-0.81934v-0.57959h0.81934V9.79297l0.68945-0.51953v1.89893h1.18945v0.57959h-1.18945v3.09814
		c0,0.47998,0.21973,0.69971,0.61035,0.69971c0.16992,0,0.35938-0.04004,0.5791-0.10986L224.85547,16.0498z"/>
	<path d="M228.4668,13.63086c0-1.45898,0.9502-2.53857,2.35938-2.53857c1.39844,0,2.36816,1.07959,2.36816,2.53857
		c0,1.44922-0.95898,2.54883-2.36816,2.54883S228.4668,15.09033,228.4668,13.63086z M232.50488,13.63086
		c0-1.11914-0.62988-1.92871-1.67871-1.92871c-1.05957,0-1.66992,0.81934-1.66992,1.92871
		c0,1.11963,0.62012,1.93896,1.66992,1.93896C231.88477,15.56982,232.50488,14.73047,232.50488,13.63086z"/>
	<path d="M234.88574,11.75195h-1.03906v-0.57959h1.0498V10.4126c0-1.04932,0.60938-1.35889,1.23926-1.35889
		c0.26953,0,0.56934,0.05957,0.87891,0.18945l-0.23926,0.5498c-0.20996-0.09961-0.40039-0.15967-0.57031-0.15967
		c-0.38965,0-0.62891,0.26953-0.62891,0.72949v0.80957h1.41895v0.57959h-1.41895v4.34766h-0.69043V11.75195z"/>
	<path d="M244.92383,9.1333v6.96631h-0.68945v-0.65967c-0.36035,0.45996-0.91016,0.73975-1.62891,0.73975
		c-1.43945,0-2.18945-1.07959-2.18945-2.54883c0-1.53906,0.81934-2.54834,2.18945-2.54834
		c0.69922,0,1.25879,0.26953,1.62891,0.74951V9.1333H244.92383z M244.29395,13.63086c0-1.16943-0.59961-1.93896-1.58887-1.93896
		c-1,0-1.59961,0.76953-1.59961,1.93896c0,1.11963,0.5498,1.93896,1.59961,1.93896
		C243.74414,15.56982,244.29395,14.75049,244.29395,13.63086z"/>
	<path d="M250.50488,11.17236v4.92725h-0.69043v-0.70947c-0.34961,0.52979-0.97949,0.78955-1.62891,0.78955
		c-1.11914,0-1.6084-0.76953-1.6084-1.98926v-3.01807h0.68945V14.021c0,0.79932,0.13965,1.54883,1.0791,1.54883
		c0.97949,0,1.46875-0.84961,1.46875-2.12891v-2.26855H250.50488z"/>
	<path d="M256.83398,13.63086c0,1.46924-0.75,2.54883-2.18848,2.54883c-0.71973,0-1.26953-0.27979-1.62891-0.73975v0.65967h-0.69043
		V9.1333h0.69043v2.69873c0.36914-0.47998,0.92871-0.74951,1.62891-0.74951
		C256.01465,11.08252,256.83398,12.0918,256.83398,13.63086z M256.14453,13.63086c0-1.16943-0.59961-1.93896-1.59961-1.93896
		c-0.98926,0-1.58887,0.76953-1.58887,1.93896c0,1.11963,0.5498,1.93896,1.58887,1.93896
		C255.59473,15.56982,256.14453,14.75049,256.14453,13.63086z"/>
	<path d="M258.20605,9.1333h0.7998v1.01953h-0.7998V9.1333z M258.26562,11.17236h0.69043v4.92725h-0.69043V11.17236z"/>
	<path d="M262.82422,16.0498c-0.25977,0.07959-0.51953,0.12988-0.74902,0.12988c-0.66016,0-1.13965-0.37012-1.13965-1.23926
		v-3.18848h-0.81934v-0.57959h0.81934V9.79297l0.68945-0.51953v1.89893h1.18945v0.57959H261.625v3.09814
		c0,0.47998,0.21973,0.69971,0.61035,0.69971c0.16992,0,0.35938-0.04004,0.5791-0.10986L262.82422,16.0498z"/>
	<path d="M267.80371,13.03125v3.06836h-0.62891l-0.04004-0.75977c-0.38965,0.5498-0.99023,0.83984-1.76953,0.83984
		c-1.06934,0-1.69922-0.56006-1.69922-1.50928c0-0.49951,0.2002-0.87939,0.55957-1.09961
		c0.37988-0.21973,0.91016-0.30957,1.87891-0.30957h1.00977v-0.22998c0-0.85938-0.44922-1.3291-1.2793-1.3291
		c-0.61914,0-1.09961,0.26953-1.49902,0.81934l-0.5-0.41943c0.53027-0.68994,1.16992-1.00977,2.00879-1.00977
		C267.08398,11.09229,267.80371,11.80176,267.80371,13.03125z M267.11426,13.89062V13.8208h-0.94922
		c-0.90918,0-1.2998,0.06006-1.53906,0.25c-0.17969,0.13965-0.27051,0.35986-0.27051,0.63965
		c0,0.5498,0.46973,0.89941,1.20996,0.89941C266.51465,15.60986,267.11426,14.94043,267.11426,13.89062z"/>
	<path d="M271.53418,16.0498c-0.25977,0.07959-0.51953,0.12988-0.74902,0.12988c-0.66016,0-1.13965-0.37012-1.13965-1.23926
		v-3.18848h-0.81934v-0.57959h0.81934V9.79297l0.68945-0.51953v1.89893h1.18945v0.57959h-1.18945v3.09814
		c0,0.47998,0.21973,0.69971,0.61035,0.69971c0.16992,0,0.35938-0.04004,0.5791-0.10986L271.53418,16.0498z"/>
	<path d="M272.78613,9.1333h0.7998v1.01953h-0.7998V9.1333z M272.8457,11.17236h0.69043v4.92725h-0.69043V11.17236z"/>
	<path d="M274.64648,11.17236h0.74902l1.5498,4.04785l1.55859-4.04785h0.75977l-2.01855,4.92725h-0.58984L274.64648,11.17236z"/>
	<path d="M284.12402,13.8208h-3.6084c0.02051,1.07959,0.62012,1.729,1.58887,1.729c0.54004,0,0.96973-0.13965,1.41992-0.61963
		l0.47949,0.41992c-0.58008,0.60938-1.14941,0.82959-1.90918,0.82959c-1.49902,0-2.26855-1.11963-2.26855-2.51855
		c0-1.38965,0.75977-2.56885,2.18848-2.56885c1.50977,0,2.13867,1.1792,2.13867,2.29883
		C284.15332,13.53125,284.14355,13.70068,284.12402,13.8208z M280.51562,13.24121h2.97852
		c0-0.02002-0.00977-0.06982-0.00977-0.16016c-0.0498-0.79932-0.55957-1.40918-1.46973-1.40918
		C281.125,11.67188,280.57617,12.37158,280.51562,13.24121z"/>
	<path d="M193.02539,28.05029c-0.25977,0.08008-0.51953,0.12988-0.74902,0.12988c-0.66016,0-1.13965-0.37012-1.13965-1.23926
		v-3.18848h-0.81934v-0.58008h0.81934v-1.37891l0.68945-0.51953v1.89844h1.18945v0.58008h-1.18945v3.09863
		c0,0.47949,0.21973,0.69922,0.61035,0.69922c0.16992,0,0.35938-0.04004,0.5791-0.10938L193.02539,28.05029z"/>
	<path d="M198.18555,25.82178h-3.6084c0.02051,1.0791,0.62012,1.72852,1.58887,1.72852c0.54004,0,0.96973-0.13965,1.41992-0.61914
		l0.47949,0.41895c-0.58008,0.61035-1.14941,0.83008-1.90918,0.83008c-1.49902,0-2.26855-1.11914-2.26855-2.51855
		c0-1.38965,0.75977-2.56836,2.18848-2.56836c1.50977,0,2.13867,1.17871,2.13867,2.29785
		C198.21484,25.53174,198.20508,25.70166,198.18555,25.82178z M194.57715,25.2417h2.97852
		c0-0.02051-0.00977-0.07031-0.00977-0.16016c-0.0498-0.7998-0.55957-1.40918-1.46973-1.40918
		C195.18652,23.67236,194.6377,24.37256,194.57715,25.2417z"/>
	<path d="M200.75586,25.63135l-1.79883-2.45898h0.83984l1.41895,1.97949l1.40918-1.97949h0.83984l-1.79883,2.45898l1.80859,2.46875
		H202.625l-1.40918-1.99902l-1.40918,1.99902h-0.84961L200.75586,25.63135z"/>
	<path d="M206.73535,28.05029c-0.25977,0.08008-0.51953,0.12988-0.74902,0.12988c-0.66016,0-1.13965-0.37012-1.13965-1.23926
		v-3.18848h-0.81934v-0.58008h0.81934v-1.37891l0.68945-0.51953v1.89844h1.18945v0.58008h-1.18945v3.09863
		c0,0.47949,0.21973,0.69922,0.61035,0.69922c0.16992,0,0.35938-0.04004,0.5791-0.10938L206.73535,28.05029z"/>
	<path d="M217.5332,25.02197v3.07812h-0.68945v-2.88867c0-0.41992,0-1.50879-1.08008-1.50879
		c-0.99902,0-1.26855,0.91895-1.26855,2.02832v2.36914h-0.69043v-2.84863c0-0.81934-0.25-1.54883-1.10938-1.54883
		c-0.95898,0-1.22949,0.90918-1.22949,2.02832v2.36914h-0.68945l-0.00977-4.92773h0.66992v0.60059
		c0.30957-0.49023,0.80957-0.67969,1.35938-0.67969c0.68945,0,1.19922,0.2998,1.44922,0.94922
		c0.31934-0.62988,0.86914-0.94922,1.61914-0.94922C217.04297,23.09326,217.5332,23.87256,217.5332,25.02197z"/>
	<path d="M223.13477,25.82178h-3.6084c0.02051,1.0791,0.62012,1.72852,1.58887,1.72852c0.54004,0,0.96973-0.13965,1.41992-0.61914
		l0.47949,0.41895c-0.58008,0.61035-1.14941,0.83008-1.90918,0.83008c-1.49902,0-2.26855-1.11914-2.26855-2.51855
		c0-1.38965,0.75977-2.56836,2.18848-2.56836c1.50977,0,2.13867,1.17871,2.13867,2.29785
		C223.16406,25.53174,223.1543,25.70166,223.13477,25.82178z M219.52637,25.2417h2.97852c0-0.02051-0.00977-0.07031-0.00977-0.16016
		c-0.0498-0.7998-0.55957-1.40918-1.46973-1.40918C220.13574,23.67236,219.58691,24.37256,219.52637,25.2417z"/>
	<path d="M228.22461,25.03174v3.06836h-0.62891l-0.04004-0.75977c-0.39062,0.5498-0.99023,0.83984-1.76953,0.83984
		c-1.06934,0-1.69922-0.55957-1.69922-1.50977c0-0.49902,0.2002-0.87891,0.55957-1.09863
		c0.37988-0.21973,0.91016-0.31055,1.87988-0.31055h1.00879v-0.22949c0-0.85938-0.44922-1.3291-1.2793-1.3291
		c-0.61914,0-1.09961,0.26953-1.49902,0.81934l-0.5-0.41992c0.53027-0.68945,1.16992-1.00879,2.00879-1.00879
		C227.50488,23.09326,228.22461,23.80225,228.22461,25.03174z M227.53516,25.89111v-0.06934h-0.94922
		c-0.90918,0-1.2998,0.05957-1.53906,0.24902c-0.17969,0.14062-0.27051,0.36035-0.27051,0.63965
		c0,0.5498,0.4707,0.90039,1.20996,0.90039C226.93555,27.61084,227.53516,26.94092,227.53516,25.89111z"/>
	<path d="M229.37695,26.89111l0.5791-0.25977c0.18066,0.50977,0.66016,0.93945,1.42969,0.93945
		c0.66992,0,1.09961-0.33008,1.09961-0.84961c0-1.30957-2.83887-0.49023-2.83887-2.23926c0-0.85938,0.7002-1.38867,1.68945-1.38867
		c0.78906,0,1.42871,0.3291,1.76855,1.0293l-0.5498,0.2998c-0.23926-0.44043-0.62891-0.71973-1.23926-0.71973
		c-0.60938,0-0.99902,0.25-0.99902,0.67969c0,1.16895,2.84863,0.42969,2.84863,2.29883c0,0.99902-0.81934,1.49902-1.76953,1.49902
		C230.42676,28.18018,229.63672,27.68018,229.37695,26.89111z"/>
	<path d="M238.3252,23.17236v4.92773h-0.69043v-0.70996c-0.34961,0.53027-0.97949,0.79004-1.62891,0.79004
		c-1.11914,0-1.6084-0.76953-1.6084-1.98926v-3.01855h0.68945V26.021c0,0.7998,0.13965,1.5498,1.0791,1.5498
		c0.97949,0,1.46875-0.84961,1.46875-2.12891v-2.26953H238.3252z"/>
	<path d="M243.14551,23.30322l-0.33984,0.55957c-0.23047-0.10059-0.44043-0.15039-0.65039-0.15039
		c-0.75879,0-1.31836,0.56934-1.31836,1.63965v2.74805h-0.69043v-4.92773h0.69043v0.74023
		c0.35938-0.64941,0.95898-0.81934,1.45898-0.81934C242.5957,23.09326,242.875,23.15283,243.14551,23.30322z"/>
	<path d="M247.61426,25.82178h-3.6084c0.02051,1.0791,0.62012,1.72852,1.58887,1.72852c0.54004,0,0.96973-0.13965,1.41992-0.61914
		l0.47949,0.41895c-0.58008,0.61035-1.14941,0.83008-1.90918,0.83008c-1.49902,0-2.26855-1.11914-2.26855-2.51855
		c0-1.38965,0.75977-2.56836,2.18848-2.56836c1.50977,0,2.13867,1.17871,2.13867,2.29785
		C247.64355,25.53174,247.63379,25.70166,247.61426,25.82178z M244.00586,25.2417h2.97852
		c0-0.02051-0.00977-0.07031-0.00977-0.16016c-0.0498-0.7998-0.55957-1.40918-1.46973-1.40918
		C244.61523,23.67236,244.06641,24.37256,244.00586,25.2417z"/>
	<path d="M253.1543,21.13428v6.96582h-0.68945v-0.65918c-0.36035,0.45898-0.91016,0.73926-1.62891,0.73926
		c-1.43945,0-2.18945-1.0791-2.18945-2.54883c0-1.53906,0.81934-2.54883,2.18945-2.54883c0.69922,0,1.25879,0.27051,1.62891,0.75
		v-2.69824H253.1543z M252.52441,25.63135c0-1.16895-0.59961-1.93848-1.58887-1.93848c-1,0-1.59961,0.76953-1.59961,1.93848
		c0,1.11914,0.5498,1.93945,1.59961,1.93945C251.97461,27.5708,252.52441,26.75049,252.52441,25.63135z"/>
	<path d="M257.64648,21.13428h0.7998v1.01953h-0.7998V21.13428z M257.70605,23.17236h0.68945v4.92773h-0.68945V23.17236z"/>
	<path d="M264.14355,25.08154v3.01855h-0.68945v-2.84863c0-1.05957-0.33984-1.54883-1.0791-1.54883
		c-0.92969,0-1.46973,0.7998-1.46973,2.18848v2.20898h-0.68945v-4.92773h0.68945v0.71973
		c0.32031-0.49902,0.91992-0.79883,1.62988-0.79883C263.59473,23.09326,264.14355,23.77295,264.14355,25.08154z"/>
	<path d="M190.56738,37.65186c0-1.2998,0.72949-2.55859,2.21875-2.55859c0.87891,0,1.6084,0.43945,1.99902,1.3584L194.125,36.7124
		c-0.22949-0.62988-0.71973-1.00977-1.33887-1.00977c-1.0498,0-1.51953,0.93945-1.51953,1.94922
		c0,1.00879,0.46973,1.91895,1.5293,1.91895c0.62012,0,1.10938-0.37012,1.29883-1l0.63965,0.24023
		c-0.3291,0.89941-1.04883,1.36914-1.93848,1.36914C191.36621,40.18018,190.56738,39.021,190.56738,37.65186z"/>
	<path d="M199.98438,37.08154v3.01855h-0.68945v-2.84863c0-1.06934-0.33984-1.54883-1.0791-1.54883
		c-0.93945,0-1.46875,0.76953-1.46875,2.12891v2.26855h-0.69043v-6.96582h0.69043v2.75781
		c0.31934-0.49902,0.91895-0.79883,1.62891-0.79883C199.43555,35.09326,199.98438,35.77295,199.98438,37.08154z"/>
	<path d="M205.35449,37.03174v3.06836h-0.62891l-0.04004-0.75977c-0.38965,0.5498-0.99023,0.83984-1.76953,0.83984
		c-1.06934,0-1.69922-0.55957-1.69922-1.50977c0-0.49902,0.2002-0.87891,0.55957-1.09863
		c0.37988-0.21973,0.91016-0.31055,1.87891-0.31055h1.00977v-0.22949c0-0.85938-0.44922-1.3291-1.2793-1.3291
		c-0.61914,0-1.09961,0.26953-1.49902,0.81934l-0.5-0.41992c0.53027-0.68945,1.16992-1.00879,2.00879-1.00879
		C204.63477,35.09326,205.35449,35.80225,205.35449,37.03174z M204.66504,37.89111v-0.06934h-0.94922
		c-0.90918,0-1.2998,0.05957-1.53906,0.24902c-0.17969,0.14062-0.27051,0.36035-0.27051,0.63965
		c0,0.5498,0.46973,0.90039,1.20996,0.90039C204.06543,39.61084,204.66504,38.94092,204.66504,37.89111z"/>
	<path d="M210.03516,35.30322l-0.33984,0.55957c-0.23047-0.10059-0.44043-0.15039-0.65039-0.15039
		c-0.75879,0-1.31934,0.56934-1.31934,1.63965v2.74805h-0.68945v-4.92773h0.68945v0.74023
		c0.36035-0.64941,0.95996-0.81934,1.45996-0.81934C209.48535,35.09326,209.76465,35.15283,210.03516,35.30322z"/>
	<path d="M214.72461,37.03174v3.06836h-0.62891l-0.04004-0.75977c-0.39062,0.5498-0.99023,0.83984-1.76953,0.83984
		c-1.06934,0-1.69922-0.55957-1.69922-1.50977c0-0.49902,0.2002-0.87891,0.55957-1.09863
		c0.37988-0.21973,0.91016-0.31055,1.87988-0.31055h1.00879v-0.22949c0-0.85938-0.44922-1.3291-1.2793-1.3291
		c-0.61914,0-1.09961,0.26953-1.49902,0.81934l-0.5-0.41992c0.53027-0.68945,1.16992-1.00879,2.00879-1.00879
		C214.00488,35.09326,214.72461,35.80225,214.72461,37.03174z M214.03516,37.89111v-0.06934h-0.94922
		c-0.90918,0-1.2998,0.05957-1.53906,0.24902c-0.17969,0.14062-0.27051,0.36035-0.27051,0.63965
		c0,0.5498,0.4707,0.90039,1.20996,0.90039C213.43555,39.61084,214.03516,38.94092,214.03516,37.89111z"/>
	<path d="M215.99707,37.65186c0-1.2998,0.72949-2.55859,2.21875-2.55859c0.87891,0,1.6084,0.43945,1.99902,1.3584l-0.66016,0.26074
		c-0.22949-0.62988-0.71973-1.00977-1.33887-1.00977c-1.0498,0-1.51953,0.93945-1.51953,1.94922
		c0,1.00879,0.46973,1.91895,1.5293,1.91895c0.62012,0,1.10938-0.37012,1.29883-1l0.63965,0.24023
		c-0.3291,0.89941-1.04883,1.36914-1.93848,1.36914C216.7959,40.18018,215.99707,39.021,215.99707,37.65186z"/>
	<path d="M223.53516,40.05029c-0.25977,0.08008-0.51953,0.12988-0.74902,0.12988c-0.66016,0-1.13965-0.37012-1.13965-1.23926
		v-3.18848h-0.81934v-0.58008h0.81934v-1.37891l0.68945-0.51953v1.89844h1.18945v0.58008h-1.18945v3.09863
		c0,0.47949,0.21973,0.69922,0.61035,0.69922c0.16992,0,0.35938-0.04004,0.5791-0.10938L223.53516,40.05029z"/>
	<path d="M228.69434,37.82178h-3.6084c0.02051,1.0791,0.62012,1.72852,1.58887,1.72852c0.54004,0,0.96973-0.13965,1.41992-0.61914
		l0.47949,0.41895c-0.58008,0.61035-1.14941,0.83008-1.90918,0.83008c-1.49902,0-2.26855-1.11914-2.26855-2.51855
		c0-1.38965,0.75977-2.56836,2.18848-2.56836c1.50977,0,2.13867,1.17871,2.13867,2.29785
		C228.72363,37.53174,228.71387,37.70166,228.69434,37.82178z M225.08594,37.2417h2.97852
		c0-0.02051-0.00977-0.07031-0.00977-0.16016c-0.0498-0.7998-0.55957-1.40918-1.46973-1.40918
		C225.69531,35.67236,225.14648,36.37256,225.08594,37.2417z"/>
	<path d="M233.11523,35.30322l-0.33984,0.55957c-0.23047-0.10059-0.44043-0.15039-0.65039-0.15039
		c-0.75879,0-1.31934,0.56934-1.31934,1.63965v2.74805h-0.68945v-4.92773h0.68945v0.74023
		c0.36035-0.64941,0.95996-0.81934,1.45996-0.81934C232.56543,35.09326,232.84473,35.15283,233.11523,35.30322z"/>
	<path d="M233.30664,38.89111l0.5791-0.25977c0.18066,0.50977,0.66016,0.93945,1.42969,0.93945
		c0.66992,0,1.09961-0.33008,1.09961-0.84961c0-1.30957-2.83887-0.49023-2.83887-2.23926c0-0.85938,0.7002-1.38867,1.68945-1.38867
		c0.78906,0,1.42871,0.3291,1.76855,1.0293l-0.5498,0.2998c-0.23926-0.44043-0.62891-0.71973-1.23926-0.71973
		c-0.60938,0-0.99902,0.25-0.99902,0.67969c0,1.16895,2.84863,0.42969,2.84863,2.29883c0,0.99902-0.81934,1.49902-1.76953,1.49902
		C234.35645,40.18018,233.56641,39.68018,233.30664,38.89111z"/>
</g>
<g>
	<path d="M196.35645,56.1333v6.96631h-0.7793l-3.42871-5.75684v5.75684h-0.70898V56.1333h0.76953l3.4375,5.72705V56.1333H196.35645z
		"/>
	<path d="M197.97949,60.63086c0-1.45898,0.9502-2.53857,2.35938-2.53857c1.39844,0,2.36816,1.07959,2.36816,2.53857
		c0,1.44922-0.95898,2.54883-2.36816,2.54883S197.97949,62.09082,197.97949,60.63086z M202.01758,60.63086
		c0-1.11914-0.62988-1.92871-1.67871-1.92871c-1.05957,0-1.66992,0.81934-1.66992,1.92871
		c0,1.12012,0.62012,1.93945,1.66992,1.93945C201.39746,62.57031,202.01758,61.73047,202.01758,60.63086z"/>
	<path d="M210.94727,56.1333v6.96631h-0.68945v-0.65918c-0.36035,0.45996-0.91016,0.73926-1.62891,0.73926
		c-1.43945,0-2.18945-1.0791-2.18945-2.54883c0-1.53906,0.81934-2.54834,2.18945-2.54834c0.69922,0,1.25879,0.26953,1.62891,0.74951
		V56.1333H210.94727z M210.31738,60.63086c0-1.16895-0.59961-1.93896-1.58887-1.93896c-1,0-1.59961,0.77002-1.59961,1.93896
		c0,1.12012,0.5498,1.93945,1.59961,1.93945C209.76758,62.57031,210.31738,61.75098,210.31738,60.63086z"/>
	<path d="M212.33887,60.63086c0-1.45898,0.9502-2.53857,2.35938-2.53857c1.39844,0,2.36816,1.07959,2.36816,2.53857
		c0,1.44922-0.95898,2.54883-2.36816,2.54883S212.33887,62.09082,212.33887,60.63086z M216.37695,60.63086
		c0-1.11914-0.62988-1.92871-1.67871-1.92871c-1.05957,0-1.66992,0.81934-1.66992,1.92871
		c0,1.12012,0.62012,1.93945,1.66992,1.93945C215.75684,62.57031,216.37695,61.73047,216.37695,60.63086z"/>
	<path d="M220.45703,63.0498c-0.25977,0.08008-0.51953,0.12988-0.74902,0.12988c-0.66016,0-1.13965-0.37012-1.13965-1.23926
		v-3.18848h-0.81934v-0.57959h0.81934v-1.37939l0.68945-0.51953v1.89893h1.18945v0.57959h-1.18945v3.09863
		c0,0.47949,0.21973,0.69922,0.61035,0.69922c0.16992,0,0.35938-0.04004,0.5791-0.10938L220.45703,63.0498z"/>
	<path d="M224.43848,56.1333h0.7998v1.01953h-0.7998V56.1333z M224.49805,58.17236h0.69043v4.92725h-0.69043V58.17236z"/>
	<path d="M230.93652,60.08105v3.01855h-0.68945v-2.84863c0-1.05859-0.33984-1.54883-1.0791-1.54883
		c-0.92969,0-1.46973,0.7998-1.46973,2.18848v2.20898h-0.68945v-4.92725h0.68945v0.71973c0.32031-0.5,0.91992-0.7998,1.62988-0.7998
		C230.3877,58.09229,230.93652,58.77197,230.93652,60.08105z"/>
	<path d="M236.75684,56.1333v6.96631h-0.68945v-0.65918c-0.36035,0.45996-0.91016,0.73926-1.62891,0.73926
		c-1.43945,0-2.18945-1.0791-2.18945-2.54883c0-1.53906,0.81934-2.54834,2.18945-2.54834c0.69922,0,1.25879,0.26953,1.62891,0.74951
		V56.1333H236.75684z M236.12695,60.63086c0-1.16895-0.59961-1.93896-1.58887-1.93896c-1,0-1.59961,0.77002-1.59961,1.93896
		c0,1.12012,0.5498,1.93945,1.59961,1.93945C235.57715,62.57031,236.12695,61.75098,236.12695,60.63086z"/>
	<path d="M238.51855,56.1333h0.7998v1.01953h-0.7998V56.1333z M238.57812,58.17236h0.69043v4.92725h-0.69043V58.17236z"/>
	<path d="M240.67871,60.65137c0-1.2998,0.72949-2.55908,2.21875-2.55908c0.87891,0,1.6084,0.43994,1.99902,1.35986l-0.66016,0.25977
		c-0.22949-0.62988-0.71973-1.00977-1.33887-1.00977c-1.0498,0-1.51953,0.93945-1.51953,1.94922s0.46973,1.91895,1.5293,1.91895
		c0.62012,0,1.10938-0.37012,1.29883-1l0.63965,0.24023c-0.3291,0.89941-1.04883,1.36914-1.93848,1.36914
		C241.47754,63.17969,240.67871,62.02051,240.67871,60.65137z"/>
	<path d="M249.78613,60.03125v3.06836h-0.62891l-0.04004-0.75977c-0.38965,0.5498-0.99023,0.83984-1.76953,0.83984
		c-1.06934,0-1.69922-0.55957-1.69922-1.50879c0-0.5,0.2002-0.87988,0.55957-1.09961
		c0.37988-0.21973,0.91016-0.30957,1.87891-0.30957h1.00977v-0.23047c0-0.85938-0.44922-1.3291-1.2793-1.3291
		c-0.61914,0-1.09961,0.26953-1.49902,0.81934l-0.5-0.41895c0.53027-0.69043,1.16992-1.01025,2.00879-1.01025
		C249.06641,58.09229,249.78613,58.80176,249.78613,60.03125z M249.09668,60.89062v-0.06934h-0.94922
		c-0.90918,0-1.2998,0.05957-1.53906,0.25c-0.17969,0.13965-0.27051,0.35938-0.27051,0.63965
		c0,0.5498,0.46973,0.89941,1.20996,0.89941C248.49707,62.61035,249.09668,61.94043,249.09668,60.89062z"/>
	<path d="M253.5166,63.0498c-0.25977,0.08008-0.51953,0.12988-0.74902,0.12988c-0.66016,0-1.13965-0.37012-1.13965-1.23926v-3.18848
		h-0.81934v-0.57959h0.81934v-1.37939l0.68945-0.51953v1.89893h1.18945v0.57959h-1.18945v3.09863
		c0,0.47949,0.21973,0.69922,0.61035,0.69922c0.16992,0,0.35938-0.04004,0.5791-0.10938L253.5166,63.0498z"/>
	<path d="M258.67676,60.82129h-3.6084c0.02051,1.0791,0.62012,1.72852,1.58887,1.72852c0.54004,0,0.96973-0.13965,1.41992-0.61914
		l0.47949,0.41992c-0.58008,0.60938-1.14941,0.8291-1.90918,0.8291c-1.49902,0-2.26855-1.11914-2.26855-2.51855
		c0-1.38965,0.75977-2.56885,2.18848-2.56885c1.50977,0,2.13867,1.1792,2.13867,2.29932
		C258.70605,60.53125,258.69629,60.70117,258.67676,60.82129z M255.06836,60.24121h2.97852
		c0-0.01953-0.00977-0.06934-0.00977-0.16016c-0.0498-0.79883-0.55957-1.40918-1.46973-1.40918
		C255.67773,58.67188,255.12891,59.37207,255.06836,60.24121z"/>
	<path d="M259.56836,61.89062l0.5791-0.25977c0.18066,0.50977,0.66016,0.93945,1.42969,0.93945
		c0.66992,0,1.09961-0.33008,1.09961-0.84961c0-1.30957-2.83887-0.49023-2.83887-2.23926c0-0.85938,0.7002-1.38916,1.68945-1.38916
		c0.78906,0,1.42871,0.33008,1.76855,1.02979l-0.5498,0.2998c-0.23926-0.43994-0.62891-0.71973-1.23926-0.71973
		c-0.60938,0-0.99902,0.24951-0.99902,0.67969c0,1.16895,2.84863,0.42969,2.84863,2.29883
		c0,0.99902-0.81934,1.49902-1.76953,1.49902C260.61816,63.17969,259.82812,62.67969,259.56836,61.89062z"/>
	<path d="M267.44824,62.03027V56.1333h0.69043v5.85693c0,0.33984,0.11914,0.55957,0.44922,0.55957
		c0.15039,0,0.32031-0.04004,0.46973-0.08984l0.00977,0.58984c-0.20996,0.07031-0.45898,0.12988-0.67969,0.12988
		C267.81836,63.17969,267.44824,62.7998,267.44824,62.03027z"/>
	<path d="M273.85547,60.03125v3.06836h-0.62891l-0.04004-0.75977c-0.39062,0.5498-0.99023,0.83984-1.76953,0.83984
		c-1.06934,0-1.69922-0.55957-1.69922-1.50879c0-0.5,0.2002-0.87988,0.55957-1.09961
		c0.37988-0.21973,0.91016-0.30957,1.87988-0.30957h1.00879v-0.23047c0-0.85938-0.44922-1.3291-1.2793-1.3291
		c-0.61914,0-1.09961,0.26953-1.49902,0.81934l-0.5-0.41895c0.53027-0.69043,1.16992-1.01025,2.00879-1.01025
		C273.13574,58.09229,273.85547,58.80176,273.85547,60.03125z M273.16602,60.89062v-0.06934h-0.94922
		c-0.90918,0-1.2998,0.05957-1.53906,0.25c-0.17969,0.13965-0.27051,0.35938-0.27051,0.63965
		c0,0.5498,0.4707,0.89941,1.20996,0.89941C272.56641,62.61035,273.16602,61.94043,273.16602,60.89062z"/>
	<path d="M275.12891,60.65137c0-1.2998,0.72949-2.55908,2.21875-2.55908c0.87891,0,1.6084,0.43994,1.99902,1.35986l-0.66016,0.25977
		c-0.22949-0.62988-0.71973-1.00977-1.33887-1.00977c-1.0498,0-1.51953,0.93945-1.51953,1.94922s0.46973,1.91895,1.5293,1.91895
		c0.62012,0,1.10938-0.37012,1.29883-1l0.63965,0.24023c-0.3291,0.89941-1.04883,1.36914-1.93848,1.36914
		C275.92773,63.17969,275.12891,62.02051,275.12891,60.65137z"/>
	<path d="M280.61816,56.1333h0.68945v4.64795l2.45898-2.60889h0.92969l-1.78906,1.84912l2.06934,3.07812h-0.82031l-1.71875-2.64844
		l-1.12988,1.19922v1.44922h-0.68945V56.1333z"/>
	<path d="M288.36816,60.63086c0-1.45898,0.9502-2.53857,2.35938-2.53857c1.39844,0,2.36816,1.07959,2.36816,2.53857
		c0,1.44922-0.95898,2.54883-2.36816,2.54883S288.36816,62.09082,288.36816,60.63086z M292.40625,60.63086
		c0-1.11914-0.62988-1.92871-1.67871-1.92871c-1.05957,0-1.66992,0.81934-1.66992,1.92871
		c0,1.12012,0.62012,1.93945,1.66992,1.93945C291.78613,62.57031,292.40625,61.73047,292.40625,60.63086z"/>
	<path d="M294.78711,58.75195h-1.03906v-0.57959h1.0498V57.4126c0-1.04932,0.60938-1.35889,1.23926-1.35889
		c0.26953,0,0.56934,0.05957,0.87891,0.18945l-0.23926,0.5498c-0.20996-0.09961-0.40039-0.15967-0.57031-0.15967
		c-0.38965,0-0.62891,0.26953-0.62891,0.72949v0.80957h1.41895v0.57959h-1.41895v4.34766h-0.69043V58.75195z"/>
	<path d="M194.87695,72.03223v3.06836h-0.62891l-0.04004-0.75977c-0.39062,0.5498-0.99023,0.83984-1.76953,0.83984
		c-1.06934,0-1.69922-0.55957-1.69922-1.50977c0-0.49902,0.2002-0.87891,0.55957-1.09863
		c0.37988-0.21973,0.91016-0.31055,1.87988-0.31055h1.00879v-0.22949c0-0.85938-0.44922-1.3291-1.2793-1.3291
		c-0.61914,0-1.09961,0.26953-1.49902,0.81934l-0.5-0.41992c0.53027-0.68945,1.16992-1.00879,2.00879-1.00879
		C194.15723,70.09375,194.87695,70.80273,194.87695,72.03223z M194.1875,72.8916v-0.06934h-0.94922
		c-0.90918,0-1.2998,0.05957-1.53906,0.24902c-0.17969,0.14062-0.27051,0.36035-0.27051,0.63965
		c0,0.5498,0.4707,0.90039,1.20996,0.90039C193.58789,74.61133,194.1875,73.94141,194.1875,72.8916z"/>
	<path d="M198.75977,73.8916l0.5791-0.25977c0.18066,0.50977,0.66016,0.93945,1.42969,0.93945
		c0.66992,0,1.09961-0.33008,1.09961-0.84961c0-1.30957-2.83887-0.49023-2.83887-2.23926c0-0.85938,0.7002-1.38867,1.68945-1.38867
		c0.78906,0,1.42871,0.3291,1.76855,1.0293l-0.5498,0.2998c-0.23926-0.44043-0.62891-0.71973-1.23926-0.71973
		c-0.60938,0-0.99902,0.25-0.99902,0.67969c0,1.16895,2.84863,0.42969,2.84863,2.29883c0,0.99902-0.81934,1.49902-1.76953,1.49902
		C199.80957,75.18066,199.01953,74.68066,198.75977,73.8916z"/>
	<path d="M208.45605,72.63184c0,1.46973-0.75,2.54883-2.18848,2.54883c-0.71973,0-1.26953-0.28027-1.62988-0.73926v2.69824h-0.68945
		v-6.9668h0.68945v0.66016c0.37012-0.47949,0.92969-0.75,1.62988-0.75C207.63672,70.08301,208.45605,71.09277,208.45605,72.63184z
		 M207.7666,72.63184c0-1.16895-0.59961-1.93848-1.59961-1.93848c-0.98926,0-1.58887,0.76953-1.58887,1.93848
		c0,1.11914,0.5498,1.93945,1.58887,1.93945C207.2168,74.57129,207.7666,73.75098,207.7666,72.63184z"/>
	<path d="M213.78711,72.82227h-3.6084c0.02051,1.0791,0.62012,1.72852,1.58887,1.72852c0.54004,0,0.96973-0.13965,1.41992-0.61914
		l0.47949,0.41895c-0.58008,0.61035-1.14941,0.83008-1.90918,0.83008c-1.49902,0-2.26855-1.11914-2.26855-2.51855
		c0-1.38965,0.75977-2.56836,2.18848-2.56836c1.50977,0,2.13867,1.17871,2.13867,2.29785
		C213.81641,72.53223,213.80664,72.70215,213.78711,72.82227z M210.17871,72.24219h2.97852
		c0-0.02051-0.00977-0.07031-0.00977-0.16016c-0.0498-0.7998-0.55957-1.40918-1.46973-1.40918
		C210.78809,70.67285,210.23926,71.37305,210.17871,72.24219z"/>
	<path d="M214.7998,72.65234c0-1.2998,0.72949-2.55859,2.21875-2.55859c0.87891,0,1.6084,0.43945,1.99902,1.3584l-0.66016,0.26074
		c-0.22949-0.62988-0.71973-1.00977-1.33887-1.00977c-1.0498,0-1.51953,0.93945-1.51953,1.94922
		c0,1.00879,0.46973,1.91895,1.5293,1.91895c0.62012,0,1.10938-0.37012,1.29883-1l0.63965,0.24023
		c-0.3291,0.89941-1.04883,1.36914-1.93848,1.36914C215.59863,75.18066,214.7998,74.02148,214.7998,72.65234z"/>
	<path d="M220.22949,68.13477h0.7998v1.01953h-0.7998V68.13477z M220.28906,70.17285h0.69043v4.92773h-0.69043V70.17285z"/>
	<path d="M226.19727,75.10059h-0.68945v-4.34766h-1.90918v4.34766h-0.68945v-4.34766h-0.84961v-0.58008h0.84961v-0.39941
		c0-1.16895,0.78906-1.71875,1.75879-1.71875c0.59961,0,1.0791,0.16016,1.5293,0.46973l-0.33008,0.47949
		c-0.3291-0.24023-0.68945-0.37988-1.16895-0.37988c-0.70996,0-1.09961,0.34961-1.09961,1.15918v0.38965h2.59863V75.10059z"/>
	<path d="M227.55957,72.65234c0-1.2998,0.72949-2.55859,2.21875-2.55859c0.87891,0,1.6084,0.43945,1.99902,1.3584l-0.66016,0.26074
		c-0.22949-0.62988-0.71973-1.00977-1.33887-1.00977c-1.0498,0-1.51953,0.93945-1.51953,1.94922
		c0,1.00879,0.46973,1.91895,1.5293,1.91895c0.62012,0,1.10938-0.37012,1.29883-1l0.63965,0.24023
		c-0.3291,0.89941-1.04883,1.36914-1.93848,1.36914C228.3584,75.18066,227.55957,74.02148,227.55957,72.65234z"/>
	<path d="M235.36914,72.65234c0-1.2998,0.72949-2.55859,2.21875-2.55859c0.87891,0,1.6084,0.43945,1.99902,1.3584l-0.66016,0.26074
		c-0.22949-0.62988-0.71973-1.00977-1.33887-1.00977c-1.0498,0-1.51953,0.93945-1.51953,1.94922
		c0,1.00879,0.46973,1.91895,1.5293,1.91895c0.62012,0,1.10938-0.37012,1.29883-1l0.63965,0.24023
		c-0.3291,0.89941-1.04883,1.36914-1.93848,1.36914C236.16797,75.18066,235.36914,74.02148,235.36914,72.65234z"/>
	<path d="M244.47656,72.03223v3.06836h-0.62891l-0.04004-0.75977c-0.39062,0.5498-0.99023,0.83984-1.76953,0.83984
		c-1.06934,0-1.69922-0.55957-1.69922-1.50977c0-0.49902,0.2002-0.87891,0.55957-1.09863
		c0.37988-0.21973,0.91016-0.31055,1.87988-0.31055h1.00879v-0.22949c0-0.85938-0.44922-1.3291-1.2793-1.3291
		c-0.61914,0-1.09961,0.26953-1.49902,0.81934l-0.5-0.41992c0.53027-0.68945,1.16992-1.00879,2.00879-1.00879
		C243.75684,70.09375,244.47656,70.80273,244.47656,72.03223z M243.78711,72.8916v-0.06934h-0.94922
		c-0.90918,0-1.2998,0.05957-1.53906,0.24902c-0.17969,0.14062-0.27051,0.36035-0.27051,0.63965
		c0,0.5498,0.4707,0.90039,1.20996,0.90039C243.1875,74.61133,243.78711,73.94141,243.78711,72.8916z"/>
	<path d="M248.20703,75.05078c-0.25977,0.08008-0.51953,0.12988-0.74902,0.12988c-0.66016,0-1.13965-0.37012-1.13965-1.23926
		v-3.18848h-0.81934v-0.58008h0.81934v-1.37891l0.68945-0.51953v1.89844h1.18945v0.58008h-1.18945v3.09863
		c0,0.47949,0.21973,0.69922,0.61035,0.69922c0.16992,0,0.35938-0.04004,0.5791-0.10938L248.20703,75.05078z"/>
	<path d="M253.36719,72.82227h-3.6084c0.02051,1.0791,0.62012,1.72852,1.58887,1.72852c0.54004,0,0.96973-0.13965,1.41992-0.61914
		l0.47949,0.41895c-0.58008,0.61035-1.14941,0.83008-1.90918,0.83008c-1.49902,0-2.26855-1.11914-2.26855-2.51855
		c0-1.38965,0.75977-2.56836,2.18848-2.56836c1.50977,0,2.13867,1.17871,2.13867,2.29785
		C253.39648,72.53223,253.38672,72.70215,253.36719,72.82227z M249.75879,72.24219h2.97852
		c0-0.02051-0.00977-0.07031-0.00977-0.16016c-0.0498-0.7998-0.55957-1.40918-1.46973-1.40918
		C250.36816,70.67285,249.81934,71.37305,249.75879,72.24219z"/>
	<path d="M258.62598,75.86035c0,0.92969-0.86914,1.35938-2.1084,1.35938c-1.36914,0-2.19922-0.54004-2.19922-1.51953
		c0-0.09961,0.01074-0.16016,0.02051-0.21973l0.7998-0.67969c-0.37988-0.16992-0.63965-0.4502-0.63965-0.93945
		c0-0.39941,0.17969-0.69922,0.5293-0.93945c-0.25977-0.2998-0.41992-0.67969-0.41992-1.11914c0-1,0.81934-1.70898,1.87891-1.70898
		c0.47949,0,0.91016,0.14941,1.22949,0.39941l0.67969-0.58984l0.35938,0.4502l-0.66895,0.55957
		c0.16992,0.26953,0.26953,0.5791,0.26953,0.92969c0,1.00879-0.81934,1.67871-1.85938,1.67871
		c-0.37891,0-0.72949-0.08984-1.01953-0.25c-0.19922,0.11035-0.31934,0.29004-0.31934,0.5c0,0.5,0.62012,0.61914,1.3291,0.72949
		C257.4668,74.65039,258.62598,74.79102,258.62598,75.86035z M257.93652,75.91992c0-0.59961-0.7793-0.68945-1.59863-0.81934
		c-0.21973-0.03027-0.4502-0.07031-0.66016-0.12012l-0.66992,0.64941c-0.00977,0.05078-0.00977,0.07031-0.00977,0.09082
		c0,0.69922,0.70996,0.91895,1.5498,0.91895C257.41699,76.63965,257.93652,76.39941,257.93652,75.91992z M255.28809,71.82227
		c0,0.63965,0.45996,1.12988,1.19922,1.12988c0.74023,0,1.17969-0.48047,1.17969-1.12988c0-0.67969-0.45996-1.14941-1.16992-1.14941
		C255.79785,70.67285,255.28809,71.14258,255.28809,71.82227z"/>
	<path d="M259.36914,72.63184c0-1.45898,0.9502-2.53809,2.35938-2.53809c1.39844,0,2.36816,1.0791,2.36816,2.53809
		c0,1.44922-0.95898,2.54883-2.36816,2.54883S259.36914,74.09082,259.36914,72.63184z M263.40723,72.63184
		c0-1.11914-0.62988-1.92871-1.67871-1.92871c-1.05957,0-1.66992,0.81934-1.66992,1.92871
		c0,1.11914,0.62012,1.93945,1.66992,1.93945C262.78711,74.57129,263.40723,73.73145,263.40723,72.63184z"/>
	<path d="M268.4873,70.30371l-0.33984,0.55957c-0.23047-0.10059-0.44043-0.15039-0.65039-0.15039
		c-0.75879,0-1.31836,0.56934-1.31836,1.63965v2.74805h-0.69043v-4.92773h0.69043v0.74023
		c0.35938-0.64941,0.95898-0.81934,1.45898-0.81934C267.9375,70.09375,268.2168,70.15332,268.4873,70.30371z"/>
	<path d="M271.01758,75.04102l-2.08887-4.86816h0.75977l1.69922,4.05859l1.48926-4.05859h0.75977l-2.69922,6.9668h-0.73926
		L271.01758,75.04102z"/>
	<path d="M274.50879,71.77246h2.66895v0.5293h-2.66895V71.77246z"/>
	<path d="M278.41895,73.8916l0.58008-0.25977c0.17969,0.50977,0.65918,0.93945,1.42871,0.93945
		c0.66992,0,1.09961-0.33008,1.09961-0.84961c0-1.30957-2.83887-0.49023-2.83887-2.23926c0-0.85938,0.7002-1.38867,1.68945-1.38867
		c0.78906,0,1.42871,0.3291,1.76855,1.0293l-0.5498,0.2998c-0.23926-0.44043-0.62891-0.71973-1.23926-0.71973
		c-0.60938,0-0.99902,0.25-0.99902,0.67969c0,1.16895,2.84863,0.42969,2.84863,2.29883c0,0.99902-0.81934,1.49902-1.76953,1.49902
		C279.46875,75.18066,278.67871,74.68066,278.41895,73.8916z"/>
	<path d="M285.65723,75.05078c-0.25977,0.08008-0.51953,0.12988-0.74902,0.12988c-0.66016,0-1.13965-0.37012-1.13965-1.23926
		v-3.18848h-0.81934v-0.58008h0.81934v-1.37891l0.68945-0.51953v1.89844h1.18945v0.58008h-1.18945v3.09863
		c0,0.47949,0.21973,0.69922,0.61035,0.69922c0.16992,0,0.35938-0.04004,0.5791-0.10938L285.65723,75.05078z"/>
	<path d="M288.37695,75.04102l-2.08887-4.86816h0.75977l1.69922,4.05859l1.48926-4.05859h0.75977l-2.69922,6.9668h-0.73926
		L288.37695,75.04102z"/>
	<path d="M292.07812,74.03125v-5.89648h0.69043v5.85645c0,0.33984,0.11914,0.55957,0.44922,0.55957
		c0.15039,0,0.32031-0.04004,0.46973-0.08984l0.00977,0.58984c-0.20996,0.06934-0.45898,0.12988-0.67969,0.12988
		C292.44824,75.18066,292.07812,74.80078,292.07812,74.03125z"/>
	<path d="M298.71582,72.82227h-3.6084c0.02051,1.0791,0.62012,1.72852,1.58887,1.72852c0.54004,0,0.96973-0.13965,1.41992-0.61914
		l0.47949,0.41895c-0.58008,0.61035-1.14941,0.83008-1.90918,0.83008c-1.49902,0-2.26855-1.11914-2.26855-2.51855
		c0-1.38965,0.75977-2.56836,2.18848-2.56836c1.50977,0,2.13867,1.17871,2.13867,2.29785
		C298.74512,72.53223,298.73535,72.70215,298.71582,72.82227z M295.10742,72.24219h2.97852
		c0-0.02051-0.00977-0.07031-0.00977-0.16016c-0.0498-0.7998-0.55957-1.40918-1.46973-1.40918
		C295.7168,70.67285,295.16797,71.37305,295.10742,72.24219z"/>
	<path d="M190.7998,84.65234c0-1.2998,0.72949-2.55859,2.21875-2.55859c0.87891,0,1.6084,0.43945,1.99902,1.3584l-0.66016,0.26074
		c-0.22949-0.62988-0.71973-1.00977-1.33887-1.00977c-1.0498,0-1.51953,0.93945-1.51953,1.94922
		c0,1.00879,0.46973,1.91895,1.5293,1.91895c0.62012,0,1.10938-0.37012,1.29883-1l0.63965,0.24023
		c-0.3291,0.89941-1.04883,1.36914-1.93848,1.36914C191.59863,87.18066,190.7998,86.02148,190.7998,84.65234z"/>
	<path d="M195.80957,84.63184c0-1.45898,0.9502-2.53809,2.35938-2.53809c1.39844,0,2.36816,1.0791,2.36816,2.53809
		c0,1.44922-0.95898,2.54883-2.36816,2.54883S195.80957,86.09082,195.80957,84.63184z M199.84766,84.63184
		c0-1.11914-0.62988-1.92871-1.67871-1.92871c-1.05957,0-1.66992,0.81934-1.66992,1.92871
		c0,1.11914,0.62012,1.93945,1.66992,1.93945C199.22754,86.57129,199.84766,85.73145,199.84766,84.63184z"/>
	<path d="M208.68555,84.02246v3.07812h-0.68945v-2.88867c0-0.41992,0-1.50879-1.08008-1.50879
		c-0.99902,0-1.26855,0.91895-1.26855,2.02832v2.36914h-0.69043v-2.84863c0-0.81934-0.25-1.54883-1.10938-1.54883
		c-0.95898,0-1.22949,0.90918-1.22949,2.02832v2.36914h-0.68945l-0.00977-4.92773h0.66992v0.60059
		c0.30957-0.49023,0.80957-0.67969,1.35938-0.67969c0.68945,0,1.19922,0.2998,1.44922,0.94922
		c0.31934-0.62988,0.86914-0.94922,1.61914-0.94922C208.19531,82.09375,208.68555,82.87305,208.68555,84.02246z"/>
	<path d="M214.89648,84.63184c0,1.46973-0.75,2.54883-2.18848,2.54883c-0.71973,0-1.26953-0.28027-1.62891-0.73926v0.65918h-0.69043
		v-6.96582h0.69043v2.69824c0.36914-0.47949,0.92871-0.75,1.62891-0.75C214.07715,82.08301,214.89648,83.09277,214.89648,84.63184z
		 M214.20703,84.63184c0-1.16895-0.59961-1.93848-1.59961-1.93848c-0.98926,0-1.58887,0.76953-1.58887,1.93848
		c0,1.11914,0.5498,1.93945,1.58887,1.93945C213.65723,86.57129,214.20703,85.75098,214.20703,84.63184z"/>
	<path d="M216.26953,80.13477h0.7998v1.01953h-0.7998V80.13477z M216.3291,82.17285h0.68945v4.92773h-0.68945V82.17285z"/>
	<path d="M222.7666,84.08203v3.01855h-0.68945v-2.84863c0-1.05957-0.33984-1.54883-1.0791-1.54883
		c-0.92969,0-1.46973,0.7998-1.46973,2.18848v2.20898h-0.68945v-4.92773h0.68945v0.71973
		c0.32031-0.49902,0.91992-0.79883,1.62988-0.79883C222.21777,82.09375,222.7666,82.77344,222.7666,84.08203z"/>
	<path d="M228.13672,84.03223v3.06836h-0.62891l-0.04004-0.75977c-0.39062,0.5498-0.99023,0.83984-1.76953,0.83984
		c-1.06934,0-1.69922-0.55957-1.69922-1.50977c0-0.49902,0.2002-0.87891,0.55957-1.09863
		c0.37988-0.21973,0.91016-0.31055,1.87988-0.31055h1.00879v-0.22949c0-0.85938-0.44922-1.3291-1.2793-1.3291
		c-0.61914,0-1.09961,0.26953-1.49902,0.81934l-0.5-0.41992c0.53027-0.68945,1.16992-1.00879,2.00879-1.00879
		C227.41699,82.09375,228.13672,82.80273,228.13672,84.03223z M227.44727,84.8916v-0.06934h-0.94922
		c-0.90918,0-1.2998,0.05957-1.53906,0.24902c-0.17969,0.14062-0.27051,0.36035-0.27051,0.63965
		c0,0.5498,0.4707,0.90039,1.20996,0.90039C226.84766,86.61133,227.44727,85.94141,227.44727,84.8916z"/>
	<path d="M231.86719,87.05078c-0.25977,0.08008-0.51953,0.12988-0.74902,0.12988c-0.66016,0-1.13965-0.37012-1.13965-1.23926
		v-3.18848h-0.81934v-0.58008h0.81934v-1.37891l0.68945-0.51953v1.89844h1.18945v0.58008h-1.18945v3.09863
		c0,0.47949,0.21973,0.69922,0.61035,0.69922c0.16992,0,0.35938-0.04004,0.5791-0.10938L231.86719,87.05078z"/>
	<path d="M233.11914,80.13477h0.7998v1.01953h-0.7998V80.13477z M233.17871,82.17285h0.68945v4.92773h-0.68945V82.17285z"/>
	<path d="M235.25879,84.63184c0-1.45898,0.9502-2.53809,2.35938-2.53809c1.39844,0,2.36816,1.0791,2.36816,2.53809
		c0,1.44922-0.95898,2.54883-2.36816,2.54883S235.25879,86.09082,235.25879,84.63184z M239.29688,84.63184
		c0-1.11914-0.62988-1.92871-1.67871-1.92871c-1.05957,0-1.66992,0.81934-1.66992,1.92871
		c0,1.11914,0.62012,1.93945,1.66992,1.93945C238.67676,86.57129,239.29688,85.73145,239.29688,84.63184z"/>
	<path d="M245.30566,84.08203v3.01855h-0.68945v-2.84863c0-1.05957-0.33984-1.54883-1.0791-1.54883
		c-0.92969,0-1.46973,0.7998-1.46973,2.18848v2.20898h-0.68945v-4.92773h0.68945v0.71973
		c0.32031-0.49902,0.91992-0.79883,1.62988-0.79883C244.75684,82.09375,245.30566,82.77344,245.30566,84.08203z"/>
</g>
<g>
	<path d="M106.70215,107.10254l-3.44141-0.92578l-0.33301,0.33301l-0.68555,0.68555l2.18359,2.18359l-0.50098,0.50098
		l-4.92578-4.92578l1.40625-1.40625c1.06055-1.06055,2.09863-1.15137,2.98926-0.26074
		c0.69336,0.69141,0.79199,1.4834,0.30469,2.32422l3.58984,0.9043L106.70215,107.10254z M102.63086,105.87305
		c0.77832-0.77832,0.86328-1.4707,0.26172-2.07031c-0.60059-0.60156-1.29297-0.51758-2.07031,0.26074l-0.85547,0.85547
		l1.80859,1.80957L102.63086,105.87305z"/>
	<path d="M109.24219,101.33984l-2.55176,2.55176c0.77832,0.74902,1.66113,0.78418,2.34668,0.09863
		c0.38086-0.38086,0.58594-0.7832,0.56543-1.44141l0.63574-0.04199c0.02051,0.84082-0.22656,1.39941-0.76367,1.93652
		c-1.05957,1.05957-2.39551,0.8125-3.38477-0.17676c-0.98242-0.9834-1.2793-2.35352-0.26953-3.36426
		c1.06836-1.06738,2.34668-0.67871,3.13867,0.11328C109.05859,101.11523,109.16992,101.24219,109.24219,101.33984z
		 M106.28125,103.48242l2.10547-2.10645c-0.01367-0.01465-0.05664-0.04199-0.12012-0.10645
		c-0.60059-0.53027-1.3916-0.60156-2.03613,0.04297C105.60156,101.94141,105.70801,102.82422,106.28125,103.48242z"/>
	<path d="M108.99609,98.66016l-0.73438,0.73438l-0.41016-0.41016l0.74219-0.74219l-0.53711-0.53711
		c-0.74219-0.74219-0.5293-1.39062-0.08398-1.83691c0.19043-0.19043,0.44434-0.36035,0.75488-0.4873l0.21973,0.55762
		c-0.21875,0.07812-0.39648,0.1709-0.51562,0.29004c-0.27539,0.27539-0.25488,0.63574,0.07031,0.96094l0.57227,0.57227
		l1.00391-1.00293l0.41016,0.40918l-1.00391,1.00391l3.07422,3.07422l-0.48828,0.48828L108.99609,98.66016z"/>
	<path d="M112.13574,98.17773c-1.03223-1.03125-1.12305-2.4668-0.12695-3.46289c0.98926-0.98828,2.43848-0.91211,3.46973,0.12012
		c1.02539,1.02441,1.12402,2.48047,0.12695,3.47754C114.60938,99.30859,113.16797,99.20996,112.13574,98.17773z M114.99023,95.32227
		c-0.79102-0.79102-1.80859-0.91797-2.55078-0.17578c-0.74805,0.74805-0.60059,1.75977,0.18359,2.54395
		c0.79102,0.79199,1.80957,0.93262,2.55176,0.19043C115.92383,97.13281,115.76758,96.09961,114.99023,95.32227z"/>
	<path d="M116.93652,90.08398l0.15527,0.63574c-0.2334,0.09277-0.41797,0.20605-0.56641,0.35449
		c-0.53613,0.53613-0.5293,1.33398,0.22754,2.09082l1.94336,1.94336l-0.48828,0.48828l-3.4834-3.4834l0.48828-0.48828
		l0.52246,0.52246c-0.20605-0.71387,0.09863-1.25781,0.45215-1.61133C116.39941,90.32422,116.63867,90.16992,116.93652,90.08398z"/>
	<path d="M123.65234,85.7998l2.17578,2.17676l-0.48633,0.48633l-2.04297-2.04102c-0.29688-0.29688-1.06641-1.06836-1.83008-0.30469
		c-0.70703,0.70703-0.24805,1.54688,0.53711,2.33203l1.6748,1.6748l-0.48828,0.48828l-2.01465-2.01465
		c-0.5791-0.5791-1.27148-0.91797-1.87891-0.31055c-0.67871,0.67871-0.22656,1.5127,0.56445,2.30469l1.67578,1.67383
		l-0.48828,0.48828l-3.49023-3.47656l0.47266-0.47461l0.42383,0.42383c-0.12695-0.56445,0.09277-1.05273,0.48145-1.44141
		c0.4873-0.4873,1.05957-0.63672,1.69629-0.35352c-0.21973-0.6709-0.05664-1.28516,0.47266-1.81641
		C121.94141,84.78223,122.83984,84.98633,123.65234,85.7998z"/>
	<path d="M126.1709,80.66602l3.4834,3.48438l-0.4873,0.4873l-0.50098-0.50098c0.12695,0.62109-0.13477,1.25-0.59375,1.70898
		c-0.79199,0.79199-1.68164,0.59375-2.54492-0.26855l-2.13379-2.13379l0.4873-0.48828l2.01465,2.01465
		c0.56543,0.56543,1.19434,0.99707,1.8584,0.33203c0.69238-0.69238,0.4375-1.63965-0.4668-2.54395l-1.60352-1.60352
		L126.1709,80.66602z"/>
	<path d="M130.1582,82.13477l-4.16992-4.16992l0.48828-0.48828l4.14258,4.14062c0.24023,0.24023,0.47852,0.3125,0.71289,0.07812
		c0.10547-0.10547,0.19727-0.25391,0.26855-0.39551l0.42383,0.41016c-0.09863,0.19824-0.2334,0.41699-0.38965,0.57324
		C131.23242,82.68555,130.70312,82.67773,130.1582,82.13477z"/>
	<path d="M133.27637,76.18945l2.16895,2.16992l-0.44434,0.44434l-0.56543-0.50879c0.11328,0.66406-0.10645,1.29395-0.65723,1.84473
		c-0.75684,0.75684-1.59766,0.80566-2.26855,0.13477c-0.35352-0.35352-0.48047-0.76367-0.38281-1.17285
		c0.11328-0.42383,0.42578-0.86328,1.11035-1.54785l0.71387-0.71387l-0.16211-0.16309
		c-0.60742-0.6084-1.25781-0.62207-1.84473-0.03516c-0.43848,0.43848-0.58691,0.96777-0.48047,1.63965l-0.65039,0.05664
		c-0.1123-0.86328,0.11328-1.54102,0.70605-2.13477C131.39648,75.32715,132.40625,75.32031,133.27637,76.18945z M133.39648,77.28418
		l-0.04883-0.0498l-0.67188,0.67188c-0.64258,0.64258-0.87695,0.96094-0.91211,1.26562
		c-0.02734,0.22461,0.06348,0.44531,0.26172,0.64258c0.38867,0.38965,0.96875,0.30469,1.49219-0.21875
		C134.1875,78.92383,134.13867,78.02734,133.39648,77.28418z"/>
	<path d="M138.04883,75.68555c-0.12793,0.24023-0.27539,0.45898-0.4375,0.62109c-0.4668,0.4668-1.06836,0.54492-1.68262-0.06934
		l-2.25488-2.25488l-0.5791,0.5791l-0.40918-0.40918l0.57812-0.58008l-0.97461-0.97461l0.12012-0.85547l1.34277,1.34277
		l0.84082-0.84082l0.40918,0.41016l-0.83984,0.83984l2.19043,2.19141c0.33887,0.33984,0.64941,0.33984,0.92676,0.0625
		c0.11914-0.11914,0.22461-0.28125,0.33105-0.48633L138.04883,75.68555z"/>
	<path d="M134.04297,69.91016l0.56641-0.56641l0.7207,0.7207l-0.56641,0.56641L134.04297,69.91016z M135.52734,71.30957
		l0.48828-0.4873l3.4834,3.4834l-0.4873,0.4873L135.52734,71.30957z"/>
	<path d="M138.73633,71.57715c-1.03125-1.03223-1.12305-2.4668-0.12695-3.46387c0.98926-0.98828,2.4375-0.91016,3.46973,0.12109
		c1.02441,1.02539,1.12402,2.48047,0.12793,3.47656S139.76855,72.60938,138.73633,71.57715z M141.5918,68.72168
		c-0.79102-0.79199-1.80957-0.91797-2.55078-0.17676c-0.75,0.75-0.60156,1.76074,0.18262,2.54492
		c0.79199,0.79102,1.80957,0.93262,2.55176,0.18945C142.52441,70.53125,142.36914,69.49902,141.5918,68.72168z"/>
	<path d="M145.45117,64.08398l2.13477,2.13477l-0.4873,0.4873l-2.01465-2.01465c-0.74805-0.74805-1.33496-0.85449-1.85742-0.33203
		c-0.6582,0.6582-0.47363,1.60449,0.50781,2.58594l1.5625,1.5625l-0.48828,0.48828l-3.48438-3.48438l0.48828-0.48828
		l0.50977,0.50977c-0.12793-0.58008,0.08398-1.21582,0.58594-1.71777C143.65723,63.06641,144.52539,63.1582,145.45117,64.08398z"/>
</g>
<g>
	<path d="M74.02979,104.9541l0.50098-0.50098l2.17773,2.17578l2.55859-2.55859l-2.17773-2.17578l0.50977-0.50977l4.92578,4.92578
		l-0.50977,0.50977l-2.27539-2.27539l-2.55859,2.55859l2.27539,2.27539l-0.50098,0.50098L74.02979,104.9541z"/>
	<path d="M85.12061,100.49219l-2.55078,2.55078c0.77734,0.75,1.66113,0.78418,2.3457,0.09961
		c0.38281-0.38281,0.58789-0.78516,0.56641-1.44238l0.63574-0.04199c0.02051,0.84082-0.22559,1.39844-0.7627,1.93555
		c-1.06055,1.06055-2.39648,0.81348-3.38574-0.17578c-0.9834-0.98242-1.27832-2.35352-0.26855-3.36426
		c1.06738-1.06738,2.3457-0.67871,3.1377,0.11328C84.93701,100.26562,85.05029,100.39258,85.12061,100.49219z M82.15967,102.63281
		l2.10645-2.10547c-0.01465-0.01367-0.05566-0.04297-0.12012-0.10645c-0.60059-0.53027-1.39258-0.60059-2.03516,0.04199
		C81.48096,101.09277,81.5874,101.97559,82.15967,102.63281z"/>
	<path d="M86.50732,100.61719l0.22656-0.59375c0.48828,0.2334,1.13086,0.19824,1.6748-0.3457
		c0.47363-0.47461,0.54492-1.01074,0.17676-1.37891c-0.92578-0.92578-2.35352,1.66113-3.58984,0.4248
		c-0.60742-0.6084-0.4873-1.47754,0.21191-2.17676c0.55762-0.55859,1.24316-0.77734,1.97754-0.52344L87.00928,96.625
		c-0.48047-0.14258-0.95312-0.06445-1.38477,0.36719s-0.53027,0.88281-0.22656,1.1875
		c0.82715,0.82617,2.31836-1.71094,3.64062-0.38867c0.70605,0.70605,0.48047,1.63867-0.19141,2.31055
		C88.16162,100.78711,87.24951,100.99219,86.50732,100.61719z"/>
	<path d="M86.06396,92.91992l0.56641-0.56641l0.7207,0.7207l-0.56641,0.56641L86.06396,92.91992z M87.54834,94.31836
		l0.48828-0.48633l3.4834,3.4834l-0.4873,0.4873L87.54834,94.31836z"/>
	<path d="M94.22021,94.54492c-0.12695,0.23926-0.27539,0.45898-0.4375,0.62109c-0.4668,0.4668-1.06738,0.54395-1.68164-0.07031
		l-2.25488-2.25488l-0.5791,0.5791l-0.41016-0.41016l0.58008-0.57812l-0.97656-0.97656l0.12109-0.85352l1.3418,1.3418
		l0.8418-0.84082l0.41016,0.40918l-0.8418,0.8418l2.19141,2.19141c0.33887,0.33887,0.65039,0.33789,0.92578,0.0625
		c0.12012-0.12012,0.22656-0.2832,0.33203-0.4873L94.22021,94.54492z"/>
	<path d="M95.60693,88.88867l2.16992,2.16992l-0.44531,0.44531l-0.56445-0.50977c0.1123,0.66504-0.10742,1.29492-0.6582,1.8457
		c-0.75586,0.75586-1.59766,0.80469-2.26758,0.13477c-0.35352-0.35352-0.48047-0.76367-0.38281-1.17383
		c0.11328-0.42383,0.42578-0.86328,1.11133-1.54883l0.71289-0.71289l-0.16211-0.16211
		c-0.6084-0.6084-1.25781-0.62305-1.8457-0.03516c-0.4375,0.4375-0.58594,0.9668-0.48047,1.63867l-0.65039,0.05664
		c-0.1123-0.8623,0.11328-1.54102,0.70703-2.13379C93.72803,88.02734,94.73779,88.01953,95.60693,88.88867z M95.72803,89.98438
		l-0.0498-0.0498l-0.6709,0.6709c-0.64258,0.64258-0.87695,0.96191-0.91211,1.26562
		c-0.02832,0.22559,0.06348,0.44531,0.26172,0.64258c0.38867,0.38965,0.96875,0.30469,1.49121-0.21875
		C96.51904,91.62402,96.47021,90.72656,95.72803,89.98438z"/>
	<path d="M100.37939,88.38574c-0.12793,0.23926-0.27539,0.45898-0.4375,0.62109c-0.4668,0.4668-1.06738,0.54395-1.68262-0.06934
		l-2.25391-2.25586l-0.58008,0.58008l-0.40918-0.41016l0.5791-0.5791l-0.97559-0.97559l0.12012-0.85547l1.34375,1.34375
		l0.83984-0.8418l0.41016,0.41016l-0.84082,0.84082l2.19043,2.19043c0.33984,0.33984,0.65039,0.33984,0.92676,0.06348
		c0.12012-0.12012,0.22559-0.28223,0.33105-0.4873L100.37939,88.38574z"/>
	<path d="M96.37451,82.60938l0.56543-0.56543l0.7207,0.7207l-0.56543,0.56543L96.37451,82.60938z M97.85889,84.00977
		l0.48633-0.48828l3.48438,3.48438l-0.4873,0.4873L97.85889,84.00977z"/>
	<path d="M101.06787,84.27734c-1.03223-1.03223-1.12305-2.4668-0.12695-3.46387c0.98828-0.98926,2.4375-0.91113,3.46875,0.12012
		c1.02539,1.02539,1.125,2.48047,0.12891,3.47656C103.5415,85.40723,102.09912,85.30859,101.06787,84.27734z M103.92334,81.42188
		c-0.79199-0.79199-1.80957-0.91895-2.55078-0.17773c-0.75,0.75-0.60156,1.76172,0.18164,2.54492
		c0.79199,0.79199,1.81055,0.93262,2.55273,0.19043C104.85498,83.23047,104.70068,82.19922,103.92334,81.42188z"/>
	<path d="M107.78271,76.78418l2.13477,2.13379l-0.48828,0.48828l-2.01367-2.01465c-0.74902-0.74902-1.33594-0.85449-1.8584-0.33203
		c-0.65723,0.65723-0.47363,1.60449,0.50879,2.58691l1.56152,1.56152l-0.4873,0.4873l-3.48438-3.48438l0.48828-0.48633
		l0.50781,0.50781c-0.12695-0.58008,0.08594-1.21484,0.58789-1.7168C105.98877,75.76562,106.85693,75.8584,107.78271,76.78418z"/>
</g>
<g>
	<path d="M57.64795,98.24219l4.92578,4.92578l-0.55176,0.55176l-6.49512-1.64648l4.07031,4.07129l-0.50098,0.50098l-4.92578-4.92578
		l0.54395-0.54395l6.48047,1.61914L57.146,98.74414L57.64795,98.24219z"/>
	<path d="M65.16943,97.34961l-2.55078,2.55078c0.77734,0.75,1.66113,0.78418,2.3457,0.09961
		c0.38281-0.38281,0.58789-0.78516,0.56641-1.44238l0.63574-0.04199c0.02051,0.84082-0.22559,1.39844-0.76367,1.93652
		c-1.05957,1.05957-2.39551,0.8125-3.38477-0.17676c-0.9834-0.98242-1.2793-2.35352-0.26855-3.36328
		c1.06738-1.06836,2.3457-0.67969,3.1377,0.1123C64.98584,97.12305,65.09912,97.25,65.16943,97.34961z M62.2085,99.49023
		l2.10645-2.10547c-0.01465-0.01367-0.05566-0.04297-0.12012-0.10645c-0.60059-0.53027-1.39258-0.60059-2.03613,0.04297
		C61.52979,97.9502,61.63623,98.83301,62.2085,99.49023z"/>
	<path d="M71.03662,95.7793c0.6582,0.65625,0.34668,1.5752-0.5293,2.45117c-0.96875,0.96875-1.93555,1.17383-2.62891,0.48145
		c-0.07031-0.07129-0.10547-0.12012-0.1416-0.16992l0.08496-1.0459c-0.38867,0.14844-0.76953,0.13477-1.11621-0.21191
		c-0.2832-0.2832-0.36816-0.62207-0.29004-1.03906c-0.39551-0.02832-0.77734-0.18359-1.08789-0.49512
		c-0.70703-0.70703-0.62988-1.78711,0.11914-2.53711c0.33984-0.33789,0.74902-0.53613,1.15234-0.58594l0.06348-0.89746
		l0.57227,0.06348l-0.07715,0.86914c0.31055,0.07031,0.59961,0.21875,0.84766,0.4668
		c0.71387,0.71387,0.60742,1.76562-0.12695,2.50195c-0.26953,0.26758-0.58008,0.45215-0.89746,0.54297
		c-0.06348,0.21875-0.02148,0.43164,0.12695,0.58008c0.35352,0.35352,0.87695,0,1.45605-0.42383
		C69.36279,95.74414,70.28076,95.02246,71.03662,95.7793z M65.82178,95.28418c0.45215,0.45215,1.12305,0.47363,1.64648-0.0498
		s0.49512-1.17285,0.03516-1.63281c-0.48047-0.48047-1.1377-0.4873-1.63965,0.01465
		C65.36865,94.11133,65.34131,94.80273,65.82178,95.28418z M70.59131,96.30859c-0.42383-0.42383-1.03809,0.06348-1.70898,0.55078
		c-0.17773,0.13477-0.36816,0.26953-0.55273,0.38281l-0.01367,0.93262c0.0293,0.04199,0.04297,0.05664,0.05664,0.07129
		c0.49512,0.49414,1.15234,0.14746,1.74609-0.44629C70.73389,97.18555,70.93115,96.64844,70.59131,96.30859z"/>
	<path d="M71.85889,89.54395l2.16992,2.16895L73.5835,92.1582l-0.56445-0.50977c0.11133,0.66602-0.10742,1.29492-0.6582,1.8457
		c-0.75586,0.75586-1.59766,0.80566-2.26855,0.13477c-0.35352-0.35352-0.48047-0.76367-0.38184-1.17383
		c0.11328-0.42383,0.4248-0.8623,1.11035-1.54785l0.71387-0.71387l-0.16309-0.16211
		c-0.6084-0.60742-1.25781-0.62207-1.84473-0.03516c-0.4375,0.4375-0.58691,0.96777-0.48047,1.63965L68.396,91.69238
		c-0.11328-0.8623,0.11328-1.54199,0.70703-2.13379C69.979,88.68164,70.98975,88.67383,71.85889,89.54395z M71.979,90.63867
		l-0.0498-0.04883l-0.6709,0.6709c-0.64258,0.64258-0.87598,0.96191-0.91113,1.26465
		c-0.0293,0.22656,0.0625,0.44531,0.26074,0.64355c0.38965,0.38965,0.96875,0.30371,1.49121-0.21973
		C72.771,92.27832,72.72217,91.38086,71.979,90.63867z"/>
	<path d="M76.63135,89.04004c-0.12793,0.24023-0.27637,0.45996-0.43848,0.62207c-0.4668,0.4668-1.06641,0.54297-1.68164-0.07031
		l-2.25391-2.25586l-0.58008,0.58008l-0.41016-0.41016l0.58008-0.5791l-0.97559-0.97559l0.12012-0.85449l1.34277,1.34277
		l0.84082-0.84082l0.41016,0.40918l-0.8418,0.8418l2.19141,2.19043c0.33984,0.33887,0.65039,0.33887,0.92578,0.06348
		c0.12109-0.12109,0.22656-0.2832,0.33203-0.4873L76.63135,89.04004z"/>
	<path d="M72.62646,83.26367l0.56445-0.56445l0.7207,0.7207l-0.56445,0.56445L72.62646,83.26367z M74.10986,84.66406l0.4873-0.4873
		l3.48438,3.4834l-0.48828,0.48828L74.10986,84.66406z"/>
	<path d="M77.31885,84.93164c-1.03223-1.03125-1.12305-2.4668-0.12598-3.46289c0.98828-0.98926,2.4375-0.91211,3.46875,0.12012
		c1.02539,1.02441,1.125,2.47949,0.12793,3.47656S78.35107,85.96387,77.31885,84.93164z M80.17432,82.07617
		c-0.79199-0.79102-1.80957-0.91797-2.55078-0.17676c-0.74902,0.74902-0.60059,1.76074,0.18262,2.54395
		c0.79199,0.79199,1.81055,0.93359,2.55273,0.19141C81.10693,83.88574,80.95166,82.85352,80.17432,82.07617z"/>
	<path d="M84.03467,77.4375l2.13477,2.13477l-0.4873,0.4873l-2.01465-2.01465c-0.74805-0.74805-1.33594-0.85352-1.85742-0.33203
		c-0.6582,0.6582-0.47363,1.60449,0.50781,2.58594l1.5625,1.5625l-0.48828,0.48828l-3.48438-3.48438l0.48828-0.48828
		l0.50977,0.50977c-0.12891-0.58008,0.08398-1.21582,0.58594-1.71777C82.24072,76.41992,83.10889,76.51172,84.03467,77.4375z"/>
</g>
<g id="Raggruppa_4731" transform="translate(361.973 768.53) rotate(-150)" opacity="0.3">
	<path id="Tracciato_109125" fill="none" stroke="#000000" stroke-width="0.5" stroke-miterlimit="10" d="M542.80029,524.10004
		c-9.20001,2-18.59998,3-28,2.90002c-3.10004,0-6.20004-0.09998-9.60004-0.29999"/>
	<g id="Raggruppa_1315" transform="translate(609.141 91.011)">
		<path id="Tracciato_109126" d="M-68.49972,431.60007l-0.2,0.39999l2.2,1.10001l-1.3,2.20001l0.4,0.29999l1.6-2.60001
			L-68.49972,431.60007z"/>
	</g>
</g>
<g>
	<path fill="#FFD337" d="M59.29199,12.4502c0-2.23877,1.20898-3.56787,3.21777-3.56787c1.39941,0,2.37891,0.63965,2.86914,1.90869
		l-0.66016,0.25c-0.36914-0.99951-1.10938-1.47949-2.20898-1.47949c-1.59863,0-2.50781,1.03955-2.50781,2.88867
		c0,1.85889,0.89941,2.91846,2.45801,2.91846c1.08984,0,1.86914-0.50977,2.25879-1.50928l0.67969,0.25
		c-0.51953,1.26904-1.54883,1.93896-2.93848,1.93896C60.48145,16.04834,59.29199,14.69873,59.29199,12.4502z"/>
	<path fill="#FFD337" d="M66.18164,13.47949c0-1.45898,0.9502-2.53857,2.35938-2.53857c1.39844,0,2.36816,1.07959,2.36816,2.53857
		c0,1.44922-0.95898,2.54883-2.36816,2.54883S66.18164,14.93896,66.18164,13.47949z M70.21973,13.47949
		c0-1.11914-0.62988-1.92871-1.67871-1.92871c-1.05957,0-1.66992,0.81934-1.66992,1.92871
		c0,1.11963,0.62012,1.93896,1.66992,1.93896C69.59961,15.41846,70.21973,14.5791,70.21973,13.47949z"/>
	<path fill="#FFD337" d="M76.22949,12.92969v3.01855h-0.68945v-2.84863c0-1.05908-0.33984-1.54883-1.0791-1.54883
		c-0.92969,0-1.46973,0.79932-1.46973,2.18848v2.20898h-0.68945V11.021h0.68945v0.71973c0.32031-0.5,0.91992-0.7998,1.62988-0.7998
		C75.68066,10.94092,76.22949,11.62061,76.22949,12.92969z"/>
	<path fill="#FFD337" d="M79.98047,15.89844c-0.25977,0.07959-0.51953,0.12988-0.74902,0.12988
		c-0.66016,0-1.13965-0.37012-1.13965-1.23926v-3.18848h-0.81934V11.021h0.81934V9.6416l0.68945-0.51953V11.021h1.18945v0.57959
		h-1.18945v3.09814c0,0.47998,0.21973,0.69971,0.61035,0.69971c0.16992,0,0.35938-0.04004,0.5791-0.10986L79.98047,15.89844z"/>
	<path fill="#FFD337" d="M85.13965,13.66943h-3.6084c0.02051,1.07959,0.62012,1.729,1.58887,1.729
		c0.54004,0,0.96973-0.13965,1.41992-0.61963l0.47949,0.41992c-0.58008,0.60938-1.14941,0.82959-1.90918,0.82959
		c-1.49902,0-2.26855-1.11963-2.26855-2.51855c0-1.38965,0.75977-2.56885,2.18848-2.56885c1.50977,0,2.13867,1.1792,2.13867,2.29883
		C85.16895,13.37988,85.15918,13.54932,85.13965,13.66943z M81.53125,13.08984h2.97852c0-0.02002-0.00977-0.06982-0.00977-0.16016
		c-0.0498-0.79932-0.55957-1.40918-1.46973-1.40918C82.14062,11.52051,81.5918,12.22021,81.53125,13.08984z"/>
	<path fill="#FFD337" d="M90.48926,12.92969v3.01855H89.7998v-2.84863c0-1.05908-0.33984-1.54883-1.0791-1.54883
		c-0.92969,0-1.46973,0.79932-1.46973,2.18848v2.20898h-0.68945V11.021h0.68945v0.71973c0.32031-0.5,0.91992-0.7998,1.62988-0.7998
		C89.94043,10.94092,90.48926,11.62061,90.48926,12.92969z"/>
	<path fill="#FFD337" d="M94.24023,15.89844c-0.25977,0.07959-0.51953,0.12988-0.74902,0.12988
		c-0.66016,0-1.13965-0.37012-1.13965-1.23926v-3.18848h-0.81934V11.021h0.81934V9.6416l0.68945-0.51953V11.021h1.18945v0.57959
		h-1.18945v3.09814c0,0.47998,0.21973,0.69971,0.61035,0.69971c0.16992,0,0.35938-0.04004,0.5791-0.10986L94.24023,15.89844z"/>
</g>
<g>
	<path d="M-0.02002,12.4502c0-2.23877,1.20898-3.56787,3.21777-3.56787c1.39941,0,2.37891,0.63965,2.86914,1.90869l-0.66016,0.25
		C5.0376,10.0415,4.29736,9.56152,3.19775,9.56152c-1.59863,0-2.50781,1.03955-2.50781,2.88867
		c0,1.85889,0.89941,2.91846,2.45801,2.91846c1.08984,0,1.86914-0.50977,2.25879-1.50928l0.67969,0.25
		c-0.51953,1.26904-1.54883,1.93896-2.93848,1.93896C1.16943,16.04834-0.02002,14.69873-0.02002,12.4502z"/>
	<path d="M10.96729,12.87988v3.06836h-0.62891l-0.04004-0.75977c-0.39062,0.5498-0.99023,0.83984-1.76953,0.83984
		c-1.06934,0-1.69922-0.56006-1.69922-1.50928c0-0.49951,0.2002-0.87939,0.55957-1.09961
		c0.37988-0.21973,0.91016-0.30957,1.87988-0.30957h1.00879v-0.22998c0-0.85938-0.44922-1.3291-1.2793-1.3291
		c-0.61914,0-1.09961,0.26953-1.49902,0.81934l-0.5-0.41943c0.53027-0.68994,1.16992-1.00977,2.00879-1.00977
		C10.24756,10.94092,10.96729,11.65039,10.96729,12.87988z M10.27783,13.73926v-0.06982H9.32861
		c-0.90918,0-1.2998,0.06006-1.53906,0.25c-0.17969,0.13965-0.27051,0.35986-0.27051,0.63965
		c0,0.5498,0.4707,0.89941,1.20996,0.89941C9.67822,15.4585,10.27783,14.78906,10.27783,13.73926z"/>
	<path d="M14.69775,15.89844c-0.25977,0.07959-0.51953,0.12988-0.74902,0.12988c-0.66016,0-1.13965-0.37012-1.13965-1.23926
		v-3.18848h-0.81934V11.021h0.81934V9.6416l0.68945-0.51953V11.021h1.18945v0.57959h-1.18945v3.09814
		c0,0.47998,0.21973,0.69971,0.61035,0.69971c0.16992,0,0.35938-0.04004,0.5791-0.10986L14.69775,15.89844z"/>
	<path d="M19.85791,13.66943h-3.6084c0.02051,1.07959,0.62012,1.729,1.58887,1.729c0.54004,0,0.96973-0.13965,1.41992-0.61963
		l0.47949,0.41992c-0.58008,0.60938-1.14941,0.82959-1.90918,0.82959c-1.49902,0-2.26855-1.11963-2.26855-2.51855
		c0-1.38965,0.75977-2.56885,2.18848-2.56885c1.50977,0,2.13867,1.1792,2.13867,2.29883
		C19.88721,13.37988,19.87744,13.54932,19.85791,13.66943z M16.24951,13.08984h2.97852c0-0.02002-0.00977-0.06982-0.00977-0.16016
		c-0.0498-0.79932-0.55957-1.40918-1.46973-1.40918C16.85889,11.52051,16.31006,12.22021,16.24951,13.08984z"/>
	<path d="M25.11768,16.70801c0,0.9292-0.86914,1.35889-2.1084,1.35889c-1.36914,0-2.19922-0.53906-2.19922-1.51904
		c0-0.1001,0.01074-0.15967,0.02051-0.21973l0.7998-0.67969c-0.37988-0.16992-0.63965-0.44971-0.63965-0.93945
		c0-0.3999,0.17969-0.69971,0.5293-0.93945c-0.25977-0.2998-0.41992-0.67969-0.41992-1.11963
		c0-0.99951,0.81934-1.70898,1.87891-1.70898c0.47949,0,0.90918,0.1499,1.22949,0.3999l0.67969-0.58984l0.35938,0.44971
		l-0.66895,0.56006c0.16992,0.26953,0.26953,0.57959,0.26953,0.9292c0,1.00977-0.81934,1.6792-1.85938,1.6792
		c-0.37988,0-0.72949-0.08984-1.01855-0.25c-0.2002,0.10986-0.32031,0.29004-0.32031,0.5c0,0.49951,0.62012,0.61963,1.3291,0.72949
		C23.9585,15.49854,25.11768,15.63818,25.11768,16.70801z M24.42822,16.76758c0-0.59961-0.7793-0.68945-1.59863-0.81934
		c-0.2207-0.02979-0.4502-0.06982-0.66016-0.12012l-0.66992,0.6499c-0.00977,0.0498-0.00977,0.06982-0.00977,0.08984
		c0,0.69971,0.70996,0.91943,1.5498,0.91943C23.90869,17.4873,24.42822,17.24756,24.42822,16.76758z M21.77979,12.66992
		c0,0.63965,0.45996,1.12939,1.19922,1.12939c0.74023,0,1.17969-0.47949,1.17969-1.12939c0-0.67969-0.45996-1.14941-1.16992-1.14941
		C22.28955,11.52051,21.77979,11.99023,21.77979,12.66992z"/>
	<path d="M25.85986,13.47949c0-1.45898,0.9502-2.53857,2.35938-2.53857c1.39844,0,2.36816,1.07959,2.36816,2.53857
		c0,1.44922-0.95898,2.54883-2.36816,2.54883S25.85986,14.93896,25.85986,13.47949z M29.89795,13.47949
		c0-1.11914-0.62988-1.92871-1.67871-1.92871c-1.05957,0-1.66992,0.81934-1.66992,1.92871
		c0,1.11963,0.62012,1.93896,1.66992,1.93896C29.27783,15.41846,29.89795,14.5791,29.89795,13.47949z"/>
	<path d="M34.97803,11.15088l-0.33984,0.55957c-0.23047-0.09961-0.44043-0.1499-0.65039-0.1499
		c-0.75879,0-1.31836,0.56982-1.31836,1.63916v2.74854H31.979V11.021h0.69043v0.73975
		c0.35938-0.6499,0.95898-0.81982,1.45898-0.81982C34.42822,10.94092,34.70752,11.00098,34.97803,11.15088z"/>
	<path d="M35.93994,8.98193h0.7998v1.01953h-0.7998V8.98193z M35.99951,11.021h0.68945v4.92725h-0.68945V11.021z"/>
	<path d="M42.40771,13.66943h-3.6084c0.02051,1.07959,0.62012,1.729,1.58887,1.729c0.54004,0,0.96973-0.13965,1.41992-0.61963
		l0.47949,0.41992c-0.58008,0.60938-1.14941,0.82959-1.90918,0.82959c-1.49902,0-2.26855-1.11963-2.26855-2.51855
		c0-1.38965,0.75977-2.56885,2.18848-2.56885c1.50977,0,2.13867,1.1792,2.13867,2.29883
		C42.43701,13.37988,42.42725,13.54932,42.40771,13.66943z M38.79932,13.08984h2.97852c0-0.02002-0.00977-0.06982-0.00977-0.16016
		c-0.0498-0.79932-0.55957-1.40918-1.46973-1.40918C39.40869,11.52051,38.85986,12.22021,38.79932,13.08984z"/>
	<path d="M43.30029,14.73877l0.58008-0.25977c0.17969,0.50977,0.65918,0.93945,1.42871,0.93945
		c0.66992,0,1.09961-0.32959,1.09961-0.84961c0-1.30908-2.83887-0.48975-2.83887-2.23877c0-0.85938,0.7002-1.38916,1.68945-1.38916
		c0.78906,0,1.42871,0.33008,1.76855,1.0293l-0.5498,0.2998c-0.23926-0.43945-0.62891-0.71924-1.23926-0.71924
		c-0.60938,0-0.99902,0.24951-0.99902,0.67969c0,1.16895,2.84863,0.42969,2.84863,2.29834
		c0,0.99951-0.81934,1.49951-1.76953,1.49951C44.3501,16.02832,43.56006,15.52832,43.30029,14.73877z"/>
</g>
<g>
	<path d="M0.48926,92.16113l0.70996-0.16992c0.12988,0.89941,0.80957,1.46973,1.74902,1.46973
		c1.00977,0,1.51953-0.53027,1.51953-1.21973c0-0.75-0.42969-1.13965-1.65918-1.60938
		c-1.40918-0.5293-1.89941-1.0293-1.89941-1.93848c0-1.05957,0.7998-1.75879,1.97949-1.75879
		c0.87891,0,1.56934,0.38965,1.98828,1.12891l-0.59961,0.37012c-0.2998-0.54004-0.80957-0.85938-1.40918-0.85938
		c-0.72949,0-1.24902,0.49902-1.24902,1.08887c0,0.63965,0.47949,0.97949,1.5791,1.39941
		c1.54883,0.58984,1.98926,1.14941,1.98926,2.11914c0,1.16895-0.80957,1.91895-2.24902,1.91895
		C1.64941,94.10059,0.67969,93.33105,0.48926,92.16113z"/>
	<path d="M8.59766,93.9502c-0.25977,0.08008-0.51953,0.12988-0.74902,0.12988c-0.66016,0-1.13965-0.37012-1.13965-1.23926v-3.18848
		H5.88965v-0.5791h0.81934v-1.37988l0.68945-0.51953v1.89941h1.18945v0.5791H7.39844v3.09863
		c0,0.47949,0.21973,0.69922,0.61035,0.69922c0.16992,0,0.35938-0.04004,0.5791-0.10938L8.59766,93.9502z"/>
	<path d="M11.31836,93.94043l-2.08887-4.86719h0.75977l1.69922,4.05762l1.48926-4.05762h0.75977l-2.69922,6.96582h-0.73926
		L11.31836,93.94043z"/>
	<path d="M15.01855,92.93066v-5.89648h0.69043v5.85645c0,0.33984,0.11914,0.55957,0.44922,0.55957
		c0.15039,0,0.32031-0.04004,0.46973-0.08984l0.00977,0.58984c-0.20996,0.07031-0.45898,0.12988-0.67969,0.12988
		C15.38867,94.08008,15.01855,93.7002,15.01855,92.93066z"/>
	<path d="M21.65723,91.72168h-3.6084c0.02051,1.0791,0.62012,1.72852,1.58887,1.72852c0.54004,0,0.96973-0.13965,1.41992-0.61914
		l0.47949,0.41992c-0.58008,0.60938-1.14941,0.8291-1.90918,0.8291c-1.49902,0-2.26855-1.11914-2.26855-2.51855
		c0-1.38965,0.75977-2.56836,2.18848-2.56836c1.50977,0,2.13867,1.17871,2.13867,2.29883
		C21.68652,91.43164,21.67676,91.60156,21.65723,91.72168z M18.04883,91.1416h2.97852c0-0.01953-0.00977-0.06934-0.00977-0.16016
		c-0.0498-0.79883-0.55957-1.40918-1.46973-1.40918C18.6582,89.57227,18.10938,90.27246,18.04883,91.1416z"/>
	<path d="M22.5498,92.79102l0.5791-0.25977c0.18066,0.50977,0.66016,0.93945,1.42969,0.93945
		c0.66992,0,1.09961-0.33008,1.09961-0.84961c0-1.30957-2.83887-0.49023-2.83887-2.23926c0-0.85938,0.7002-1.38867,1.68945-1.38867
		c0.78906,0,1.42871,0.33008,1.76855,1.0293l-0.5498,0.2998c-0.23926-0.43945-0.62891-0.71973-1.23926-0.71973
		c-0.60938,0-0.99902,0.25-0.99902,0.67969c0,1.16895,2.84863,0.42969,2.84863,2.29883c0,0.99902-0.81934,1.49902-1.76953,1.49902
		C23.59961,94.08008,22.80957,93.58008,22.5498,92.79102z"/>
</g>
<g>
	<path fill="#00BFD3" d="M59.75195,22.5127h4.72754v0.65967h-4.01855v2.42871h3.51855v0.65967h-3.51855V29.479h-0.70898V22.5127z"/>
	<path fill="#00BFD3" d="M65.02148,27.01025c0-1.45898,0.9502-2.53857,2.35938-2.53857c1.39844,0,2.36816,1.07959,2.36816,2.53857
		c0,1.44922-0.95898,2.54883-2.36816,2.54883S65.02148,28.46973,65.02148,27.01025z M69.05957,27.01025
		c0-1.11914-0.62988-1.92871-1.67871-1.92871c-1.05957,0-1.66992,0.81934-1.66992,1.92871
		c0,1.11963,0.62012,1.93896,1.66992,1.93896C68.43945,28.94922,69.05957,28.10986,69.05957,27.01025z"/>
	<path fill="#00BFD3" d="M74.14062,24.68164l-0.33984,0.55957c-0.23047-0.09961-0.44043-0.1499-0.65039-0.1499
		c-0.75879,0-1.31934,0.56982-1.31934,1.63916V29.479H71.1416v-4.92725h0.68945v0.73975
		c0.36035-0.6499,0.95996-0.81982,1.45996-0.81982C73.59082,24.47168,73.87012,24.53174,74.14062,24.68164z"/>
	<path fill="#00BFD3" d="M81.91797,26.40088V29.479h-0.68945v-2.88818c0-0.41992,0-1.50928-1.08008-1.50928
		c-0.99902,0-1.26855,0.91943-1.26855,2.02881V29.479h-0.69043v-2.84863c0-0.81934-0.25-1.54883-1.10938-1.54883
		c-0.95898,0-1.22949,0.90918-1.22949,2.02881V29.479h-0.68945l-0.00977-4.92725h0.66992v0.59961
		c0.30957-0.48975,0.80957-0.67969,1.35938-0.67969c0.68945,0,1.19922,0.2998,1.44922,0.94971
		c0.31934-0.62988,0.86914-0.94971,1.61914-0.94971C81.42773,24.47168,81.91797,25.25146,81.91797,26.40088z"/>
</g>
<g>
	<path fill="#FF3366" d="M66.3877,36.80225v6.96631h-0.71973v-6.0166l-2.24805,5.43701h-0.7002l-2.25879-5.45703v6.03662h-0.70898
		v-6.96631h1.03906l2.2793,5.55713l2.27832-5.55713H66.3877z"/>
	<path fill="#FF3366" d="M72.33984,41.48975h-3.6084c0.02051,1.07959,0.62012,1.729,1.58887,1.729
		c0.54004,0,0.96973-0.13965,1.41992-0.61963l0.47949,0.41992c-0.58008,0.60938-1.14941,0.82959-1.90918,0.82959
		c-1.49902,0-2.26855-1.11963-2.26855-2.51855c0-1.38965,0.75977-2.56885,2.18848-2.56885c1.50977,0,2.13867,1.1792,2.13867,2.29883
		C72.36914,41.2002,72.35938,41.36963,72.33984,41.48975z M68.73145,40.91016h2.97852c0-0.02002-0.00977-0.06982-0.00977-0.16016
		c-0.0498-0.79932-0.55957-1.40918-1.46973-1.40918C69.34082,39.34082,68.79199,40.04053,68.73145,40.91016z"/>
	<path fill="#FF3366" d="M77.42969,40.7002v3.06836h-0.62891l-0.04004-0.75977c-0.39062,0.5498-0.99023,0.83984-1.76953,0.83984
		c-1.06934,0-1.69922-0.56006-1.69922-1.50928c0-0.49951,0.2002-0.87939,0.55957-1.09961
		c0.37988-0.21973,0.91016-0.30957,1.87988-0.30957h1.00879V40.7002c0-0.85938-0.44922-1.3291-1.2793-1.3291
		c-0.61914,0-1.09961,0.26953-1.49902,0.81934l-0.5-0.41943c0.53027-0.68994,1.16992-1.00977,2.00879-1.00977
		C76.70996,38.76123,77.42969,39.4707,77.42969,40.7002z M76.74023,41.55957v-0.06982h-0.94922
		c-0.90918,0-1.2998,0.06006-1.53906,0.25c-0.17969,0.13965-0.27051,0.35986-0.27051,0.63965
		c0,0.5498,0.4707,0.89941,1.20996,0.89941C76.14062,43.27881,76.74023,42.60938,76.74023,41.55957z"/>
	<path fill="#FF3366" d="M83.03906,40.75v3.01855h-0.68945v-2.84863c0-1.05908-0.33984-1.54883-1.0791-1.54883
		c-0.92969,0-1.46875,0.79932-1.46875,2.18848v2.20898h-0.69043v-4.92725h0.69043v0.71973
		c0.31934-0.5,0.91895-0.7998,1.62891-0.7998C82.49023,38.76123,83.03906,39.44092,83.03906,40.75z"/>
	<path fill="#FF3366" d="M84.68164,36.80225h0.7998v1.01953h-0.7998V36.80225z M84.74121,38.84131h0.68945v4.92725h-0.68945
		V38.84131z"/>
	<path fill="#FF3366" d="M91.17871,40.75v3.01855h-0.68945v-2.84863c0-1.05908-0.33984-1.54883-1.0791-1.54883
		c-0.92969,0-1.46973,0.79932-1.46973,2.18848v2.20898h-0.68945v-4.92725h0.68945v0.71973
		c0.32031-0.5,0.91992-0.7998,1.62988-0.7998C90.62988,38.76123,91.17871,39.44092,91.17871,40.75z"/>
	<path fill="#FF3366" d="M96.71875,44.52832c0,0.9292-0.86914,1.35889-2.1084,1.35889c-1.36914,0-2.19922-0.53906-2.19922-1.51904
		c0-0.1001,0.01074-0.15967,0.02051-0.21973l0.7998-0.67969c-0.37988-0.16992-0.63965-0.44971-0.63965-0.93945
		c0-0.3999,0.17969-0.69971,0.5293-0.93945c-0.25977-0.2998-0.41992-0.67969-0.41992-1.11963
		c0-0.99951,0.81934-1.70898,1.87891-1.70898c0.47949,0,0.90918,0.1499,1.22949,0.3999l0.67969-0.58984l0.35938,0.44971
		l-0.66895,0.56006c0.16992,0.26953,0.26953,0.57959,0.26953,0.9292c0,1.00977-0.81934,1.6792-1.85938,1.6792
		c-0.37988,0-0.72949-0.08984-1.01855-0.25c-0.2002,0.10986-0.32031,0.29004-0.32031,0.5c0,0.49951,0.62012,0.61963,1.3291,0.72949
		C95.55957,43.31885,96.71875,43.4585,96.71875,44.52832z M96.0293,44.58789c0-0.59961-0.7793-0.68945-1.59863-0.81934
		c-0.2207-0.02979-0.4502-0.06982-0.66016-0.12012l-0.66992,0.6499c-0.00977,0.0498-0.00977,0.06982-0.00977,0.08984
		c0,0.69971,0.70996,0.91943,1.5498,0.91943C95.50977,45.30762,96.0293,45.06787,96.0293,44.58789z M93.38086,40.49023
		c0,0.63965,0.45996,1.12939,1.19922,1.12939c0.74023,0,1.17969-0.47949,1.17969-1.12939c0-0.67969-0.45996-1.14941-1.16992-1.14941
		C93.89062,39.34082,93.38086,39.81055,93.38086,40.49023z"/>
</g>
</svg>
