<?xml version="1.0" encoding="utf-8"?>
<!-- Generator: Adobe Illustrator 25.0.0, SVG Export Plug-In . SVG Version: 6.00 Build 0)  -->
<svg version="1.1" id="Livello_1" xmlns="http://www.w3.org/2000/svg" xmlns:xlink="http://www.w3.org/1999/xlink" x="0px" y="0px"
	 viewBox="0 0 300 115.1" enable-background="new 0 0 300 115.1" xml:space="preserve">
<path id="Tracciato_116472" fill="none" stroke="#707070" stroke-linecap="round" stroke-dasharray="0.1,3" d="M137.948,0.507
	c15.20001,0,27.5,12.3,27.5,27.5s-12.29999,27.5-27.5,27.5s-27.40002-12.4-27.40002-27.6l0,0
	C110.54797,12.807,122.84799,0.507,137.948,0.507z"/>
<circle id="Ellisse_460" fill="#10BED2" cx="138.04797" cy="27.70699" r="2.5"/>
<circle id="Ellisse_461" fill="#FF3366" cx="138.34799" cy="41.507" r="4.1"/>
<circle id="Ellisse_462" fill="#FFD93B" cx="138.34799" cy="14.20699" r="1.6"/>
<circle id="Ellisse_463" fill="#10BED2" cx="124.84799" cy="28.30699" r="4.4"/>
<circle id="Ellisse_464" fill="#FFD93B" cx="125.34799" cy="13.70699" r="3.70001"/>
<circle id="Ellisse_465" fill="#FF3366" cx="124.84799" cy="41.80699" r="1.9"/>
<circle id="Ellisse_466" fill="#10BED2" cx="152.34799" cy="28.10699" r="3"/>
<circle id="Ellisse_468" fill="#FFD93B" cx="152.84799" cy="14.80699" r="6"/>
<g enable-background="new    ">
	<path fill="#FFD337" d="M48.63281,12.60889c0-2.23926,1.20947-3.56836,3.21826-3.56836c1.39893,0,2.37842,0.63965,2.86816,1.90918
		l-0.65967,0.25c-0.36963-1-1.10938-1.47949-2.2085-1.47949c-1.59912,0-2.50879,1.04004-2.50879,2.88867
		c0,1.85938,0.89941,2.91797,2.4585,2.91797c1.08984,0,1.86914-0.50977,2.25879-1.50879l0.67969,0.25
		c-0.51953,1.26953-1.54883,1.93848-2.93848,1.93848C49.82227,16.20654,48.63281,14.85791,48.63281,12.60889z"/>
	<path fill="#FFD337" d="M55.52246,13.63818c0-1.45898,0.94971-2.53809,2.35889-2.53809c1.39941,0,2.36865,1.0791,2.36865,2.53809
		c0,1.44922-0.95947,2.54883-2.36865,2.54883S55.52246,15.09717,55.52246,13.63818z M59.56055,13.63818
		c0-1.11914-0.62988-1.92871-1.6792-1.92871c-1.05957,0-1.66895,0.81934-1.66895,1.92871c0,1.11914,0.61963,1.93945,1.66895,1.93945
		C58.94092,15.57764,59.56055,14.73779,59.56055,13.63818z"/>
	<path fill="#FFD337" d="M65.57031,13.08838v3.01855h-0.68945V13.2583c0-1.05957-0.33984-1.54883-1.07959-1.54883
		c-0.92969,0-1.46924,0.7998-1.46924,2.18848v2.20898h-0.68945V11.1792h0.68945v0.71973
		c0.31982-0.49902,0.91943-0.79883,1.62891-0.79883C65.02051,11.1001,65.57031,11.77979,65.57031,13.08838z"/>
	<path fill="#FFD337" d="M69.32129,16.05713c-0.25977,0.08008-0.52002,0.12988-0.74951,0.12988
		c-0.65967,0-1.13965-0.37012-1.13965-1.23926v-3.18848h-0.81934V11.1792h0.81934V9.80029l0.68994-0.51953v1.89844h1.18896v0.58008
		h-1.18896v3.09863c0,0.47949,0.21973,0.69922,0.60938,0.69922c0.16992,0,0.35986-0.04004,0.57959-0.10938L69.32129,16.05713z"/>
	<path fill="#FFD337" d="M74.47998,13.82861h-3.60791c0.02002,1.0791,0.61963,1.72852,1.58936,1.72852
		c0.53955,0,0.96924-0.13965,1.41895-0.61914l0.47998,0.41895c-0.57959,0.61035-1.14941,0.83008-1.90918,0.83008
		c-1.49902,0-2.26855-1.11914-2.26855-2.51855c0-1.38965,0.75977-2.56836,2.18896-2.56836
		c1.50879,0,2.13867,1.17871,2.13867,2.29785C74.51025,13.53857,74.5,13.7085,74.47998,13.82861z M70.87207,13.24854h2.97852
		c0-0.02051-0.01025-0.07031-0.01025-0.16016c-0.0498-0.7998-0.55957-1.40918-1.46875-1.40918
		C71.48193,11.6792,70.93213,12.37939,70.87207,13.24854z"/>
	<path fill="#FFD337" d="M79.83057,13.08838v3.01855h-0.68945V13.2583c0-1.05957-0.33984-1.54883-1.07959-1.54883
		c-0.92969,0-1.46924,0.7998-1.46924,2.18848v2.20898h-0.68945V11.1792h0.68945v0.71973
		c0.31982-0.49902,0.91943-0.79883,1.62891-0.79883C79.28076,11.1001,79.83057,11.77979,79.83057,13.08838z"/>
	<path fill="#FFD337" d="M85.24023,11.1792v4.92773h-0.68945v-0.70996c-0.34961,0.53027-0.97949,0.79004-1.62891,0.79004
		c-1.11963,0-1.60938-0.76953-1.60938-1.98926V11.1792h0.68945v2.84863c0,0.7998,0.14014,1.5498,1.07959,1.5498
		c0.97949,0,1.46924-0.84961,1.46924-2.12891V11.1792H85.24023z"/>
	<path fill="#FFD337" d="M89.11133,16.05713c-0.25977,0.08008-0.52002,0.12988-0.74951,0.12988
		c-0.65967,0-1.13965-0.37012-1.13965-1.23926v-3.18848h-0.81934V11.1792h0.81934V9.80029l0.68994-0.51953v1.89844h1.18896v0.58008
		h-1.18896v3.09863c0,0.47949,0.21973,0.69922,0.60938,0.69922c0.16992,0,0.35986-0.04004,0.57959-0.10938L89.11133,16.05713z"/>
	<path fill="#FFD337" d="M89.94238,13.63818c0-1.45898,0.94971-2.53809,2.35889-2.53809c1.39941,0,2.36865,1.0791,2.36865,2.53809
		c0,1.44922-0.95947,2.54883-2.36865,2.54883S89.94238,15.09717,89.94238,13.63818z M93.98047,13.63818
		c0-1.11914-0.62988-1.92871-1.6792-1.92871c-1.05957,0-1.66895,0.81934-1.66895,1.92871c0,1.11914,0.61963,1.93945,1.66895,1.93945
		C93.36084,15.57764,93.98047,14.73779,93.98047,13.63818z"/>
</g>
<g enable-background="new    ">
	<path d="M52.21729,103.60742l4.9248,4.92578l-0.55176,0.55078l-6.49414-1.64648l4.07031,4.07031l-0.50195,0.50195l-4.9248-4.92578
		l0.54395-0.54395l6.48047,1.61816l-4.04883-4.04883L52.21729,103.60742z"/>
	<path d="M59.73877,102.71484l-2.55078,2.55078c0.77637,0.74805,1.66016,0.78418,2.3457,0.09863
		c0.38086-0.38184,0.58594-0.78418,0.56445-1.44141l0.63672-0.04297c0.02148,0.84082-0.22656,1.39941-0.76367,1.93652
		c-1.05957,1.06055-2.39551,0.8125-3.38477-0.17578c-0.98242-0.9834-1.2793-2.35449-0.26855-3.36523
		c1.06738-1.06641,2.3457-0.67773,3.1377,0.11328C59.55518,102.48828,59.66748,102.61523,59.73877,102.71484z M56.77783,104.85547
		L58.8833,102.75c-0.01465-0.01562-0.05664-0.04297-0.12109-0.10645c-0.60059-0.53027-1.3916-0.60059-2.03516,0.04199
		C56.09814,103.31445,56.20557,104.19824,56.77783,104.85547z"/>
	<path d="M65.60596,101.14258c0.6582,0.6582,0.34668,1.57617-0.5293,2.45312c-0.96875,0.96777-1.93652,1.17188-2.62891,0.47949
		c-0.07031-0.07031-0.10742-0.12012-0.1416-0.16895l0.08496-1.0459c-0.38867,0.14844-0.77148,0.13379-1.11719-0.21191
		c-0.28223-0.2832-0.36719-0.62109-0.28906-1.03906c-0.39648-0.02832-0.77734-0.18359-1.08887-0.49414
		c-0.70703-0.70703-0.62891-1.78906,0.12012-2.53711c0.33984-0.33984,0.74902-0.53711,1.15234-0.58691l0.06348-0.89746
		l0.57324,0.06348l-0.07812,0.86914c0.31055,0.07031,0.59961,0.21875,0.84766,0.46582
		c0.71289,0.71387,0.60742,1.76758-0.12695,2.50195c-0.26953,0.26855-0.58008,0.45312-0.89844,0.54492
		c-0.0625,0.21875-0.02148,0.43066,0.12695,0.5791c0.35352,0.35352,0.87695-0.00098,1.45703-0.42383
		C63.93018,101.10742,64.8501,100.38672,65.60596,101.14258z M60.39111,100.64844c0.45117,0.45215,1.12305,0.47363,1.64648-0.04883
		c0.52344-0.52344,0.49414-1.17383,0.03516-1.63281c-0.48047-0.48145-1.13867-0.48828-1.63965,0.01367
		C59.93799,99.47461,59.90967,100.16797,60.39111,100.64844z M65.16064,101.67285c-0.42383-0.4248-1.03906,0.06348-1.70996,0.55176
		c-0.17676,0.13281-0.36816,0.26758-0.55176,0.38086l-0.01367,0.93262c0.0293,0.04297,0.04297,0.05664,0.05664,0.07129
		c0.49512,0.49414,1.15234,0.14844,1.74609-0.44531C65.30225,102.54883,65.50049,102.01172,65.16064,101.67285z"/>
	<path d="M66.42822,94.9082l2.16992,2.16895l-0.44629,0.44629l-0.56543-0.50977c0.11328,0.66406-0.10547,1.29297-0.65625,1.84473
		c-0.75684,0.75684-1.59766,0.80566-2.26953,0.13379c-0.35254-0.35352-0.48047-0.7627-0.38086-1.17188
		c0.11328-0.4248,0.42383-0.86328,1.10938-1.54883l0.71289-0.71289l-0.16211-0.16211
		c-0.60742-0.6084-1.25781-0.62305-1.84375-0.03613C63.65771,95.79883,63.5083,96.32812,63.61475,97l-0.64941,0.05566
		c-0.11328-0.86133,0.11328-1.54004,0.70703-2.13379C64.54736,94.0459,65.55908,94.03809,66.42822,94.9082z M66.54736,96.00391
		l-0.04883-0.04883l-0.6709,0.66992c-0.64355,0.64355-0.87695,0.96094-0.91309,1.26465
		c-0.02734,0.22754,0.06445,0.44629,0.26172,0.64355c0.38867,0.38867,0.96875,0.30469,1.49219-0.21875
		C67.33936,97.64258,67.28955,96.74609,66.54736,96.00391z"/>
	<path d="M69.20752,90.27637l0.41016,4.94727l2.25391-2.25488l0.41699,0.41797l-2.89746,2.89648l-0.35352-0.35352l-0.39648-5.03125
		l-2.19727,2.19727l-0.41699-0.41602l2.79199-2.79199L69.20752,90.27637z"/>
	<path d="M68.26221,87.56152l0.56641-0.56543l0.7207,0.7207l-0.56641,0.56543L68.26221,87.56152z M69.74658,88.95996l0.4873-0.4873
		l3.48438,3.48438l-0.4873,0.4873L69.74658,88.95996z"/>
	<path d="M72.95557,89.22852c-1.03125-1.03223-1.12305-2.4668-0.12695-3.46289c0.98926-0.99023,2.4375-0.91211,3.46973,0.11914
		c1.02441,1.02539,1.12402,2.48145,0.12793,3.47754C75.4292,90.35938,73.98682,90.25977,72.95557,89.22852z M75.81104,86.37305
		c-0.79199-0.79102-1.80957-0.91797-2.55078-0.17676c-0.75,0.74902-0.60156,1.75879,0.18359,2.54395
		c0.79102,0.79102,1.80859,0.93359,2.55078,0.19141C76.74463,88.18262,76.58838,87.15039,75.81104,86.37305z"/>
	<path d="M79.67139,81.73438l2.13379,2.13477l-0.48633,0.4873L79.3042,82.3418c-0.74902-0.74902-1.33496-0.85449-1.8584-0.33203
		c-0.6582,0.6582-0.47363,1.60547,0.50781,2.58691l1.5625,1.56152l-0.4873,0.48828l-3.48438-3.48438l0.4873-0.48828l0.50879,0.50977
		c-0.12598-0.5791,0.08496-1.21484,0.58691-1.7168C77.87646,80.7168,78.74658,80.80957,79.67139,81.73438z"/>
	<path d="M84.15479,78.29883L81.604,80.84961c0.77637,0.74805,1.66016,0.78418,2.3457,0.09863
		c0.38086-0.38184,0.58594-0.78418,0.56445-1.44141l0.63672-0.04297c0.02148,0.84082-0.22656,1.39941-0.76367,1.93652
		c-1.05957,1.06055-2.39551,0.8125-3.38477-0.17578c-0.98242-0.9834-1.2793-2.35449-0.26855-3.36523
		c1.06738-1.06641,2.3457-0.67773,3.1377,0.11328C83.97119,78.07227,84.0835,78.19922,84.15479,78.29883z M81.19385,80.43945
		l2.10547-2.10547c-0.01465-0.01562-0.05664-0.04297-0.12109-0.10645c-0.60059-0.53027-1.3916-0.60059-2.03516,0.04199
		C80.51416,78.89844,80.62158,79.78223,81.19385,80.43945z"/>
</g>
<g enable-background="new    ">
	<path d="M103.17773,109.98633l-3.44141-0.9248l-0.33203,0.33203l-0.68555,0.68457l2.18359,2.18359l-0.50195,0.50195l-4.9248-4.9248
		l1.40625-1.40625c1.05957-1.05957,2.09863-1.15332,2.98926-0.26172c0.69238,0.69238,0.79102,1.4834,0.30371,2.32422
		l3.59082,0.90527L103.17773,109.98633z M99.10742,108.75781c0.77734-0.77832,0.8623-1.4707,0.26172-2.07129
		c-0.60156-0.60059-1.29297-0.5166-2.07129,0.26172l-0.85449,0.85449l1.80859,1.80859L99.10742,108.75781z"/>
	<path d="M99.74609,103.56836l0.56641-0.56641l0.7207,0.7207l-0.56641,0.56641L99.74609,103.56836z M101.23047,104.9668
		l0.48633-0.48828l3.48438,3.48438l-0.48633,0.48828L101.23047,104.9668z"/>
	<path d="M103.62695,103.38965l-0.73535,0.73535l-0.41016-0.41016l0.74219-0.74219l-0.53613-0.53711
		c-0.74219-0.74219-0.53027-1.3916-0.08594-1.83594c0.19141-0.19141,0.44531-0.36133,0.75684-0.48926l0.21875,0.55859
		c-0.21875,0.07812-0.39551,0.16895-0.5166,0.29004c-0.27539,0.27539-0.25391,0.63672,0.07129,0.96094l0.57227,0.57227
		l1.00391-1.00391l0.41016,0.41016l-1.00391,1.00391l3.07422,3.07422l-0.4873,0.4873L103.62695,103.38965z"/>
	<path d="M106.76562,102.9082c-1.03125-1.03125-1.12305-2.4668-0.12695-3.46289c0.99023-0.99023,2.4375-0.91211,3.46973,0.12012
		c1.02441,1.02441,1.12402,2.48047,0.12793,3.47754C109.23926,104.03906,107.79688,103.93945,106.76562,102.9082z
		 M109.62109,100.05273c-0.79102-0.79102-1.80859-0.91797-2.55078-0.17578c-0.75,0.74805-0.60156,1.75879,0.18359,2.54297
		c0.79102,0.79199,1.80859,0.93359,2.55078,0.19141C110.55469,101.86328,110.39844,100.83008,109.62109,100.05273z"/>
	<path d="M111.56641,94.81445l0.15625,0.63672c-0.23438,0.08984-0.41797,0.20312-0.56641,0.35156
		c-0.53711,0.53711-0.53027,1.33594,0.22656,2.09277l1.94336,1.94336l-0.4873,0.4873l-3.48438-3.48438l0.4873-0.4873
		l0.52344,0.52344c-0.20508-0.71387,0.09961-1.25879,0.45215-1.61133C111.0293,95.05469,111.26953,94.89844,111.56641,94.81445z"/>
	<path d="M118.28223,90.5293l2.17676,2.17676l-0.48828,0.48828l-2.04297-2.04199c-0.29688-0.29688-1.06641-1.06738-1.8291-0.30469
		c-0.70703,0.70703-0.24805,1.54785,0.53613,2.33203l1.67578,1.67578l-0.48828,0.48633l-2.01367-2.01367
		c-0.58008-0.58008-1.27148-0.91797-1.87988-0.31055c-0.67871,0.67773-0.22656,1.51172,0.56543,2.30273l1.6748,1.67578
		l-0.4873,0.48828l-3.49219-3.47852l0.47461-0.47266l0.42383,0.42383c-0.12695-0.56445,0.0918-1.05273,0.48047-1.44141
		c0.48828-0.48828,1.06055-0.63574,1.69531-0.35352c-0.21875-0.6709-0.05566-1.28613,0.47461-1.81641
		C116.57227,89.51172,117.46973,89.7168,118.28223,90.5293z"/>
	<path d="M120.80078,85.39551l3.48438,3.48438l-0.48828,0.4873l-0.50195-0.50195c0.12891,0.62305-0.13281,1.25195-0.59277,1.71094
		c-0.79199,0.79102-1.68164,0.59375-2.54395-0.26953l-2.13477-2.13379l0.4873-0.4873l2.01465,2.01367
		c0.56445,0.56641,1.19531,0.99805,1.85938,0.33301c0.69238-0.69238,0.4375-1.63965-0.4668-2.54395l-1.60547-1.60547
		L120.80078,85.39551z"/>
	<path d="M124.78906,86.86328l-4.16895-4.16895l0.4873-0.4873l4.14062,4.14062c0.24023,0.24023,0.48047,0.31055,0.71387,0.07812
		c0.10645-0.10547,0.19824-0.25391,0.26855-0.39551l0.42383,0.40918c-0.09961,0.19727-0.23242,0.41797-0.38867,0.57227
		C125.86328,87.41504,125.33398,87.4082,124.78906,86.86328z"/>
	<path d="M127.90625,80.91992l2.16992,2.16895l-0.44531,0.44531l-0.56543-0.50879c0.1123,0.66406-0.10645,1.29297-0.65723,1.84473
		c-0.75586,0.75684-1.59668,0.80566-2.26855,0.13379c-0.35254-0.35352-0.48047-0.7627-0.38184-1.17188
		c0.11328-0.4248,0.42383-0.86328,1.10938-1.54883l0.71387-0.71387l-0.16211-0.16211
		c-0.6084-0.6084-1.25879-0.62207-1.84473-0.03516c-0.4375,0.43848-0.58691,0.96777-0.48047,1.63965l-0.65039,0.05566
		c-0.11328-0.86133,0.11328-1.54004,0.70703-2.13379C126.02734,80.05664,127.03711,80.0498,127.90625,80.91992z M128.02637,82.01465
		l-0.04883-0.04883l-0.6709,0.6709c-0.64355,0.64355-0.87695,0.96094-0.91309,1.26465
		c-0.02832,0.22754,0.06348,0.44629,0.26172,0.64355c0.38867,0.38867,0.96777,0.30469,1.49121-0.21875
		C128.81836,83.6543,128.76855,82.75684,128.02637,82.01465z"/>
	<path d="M130.68555,76.28809l0.41016,4.94727l2.25391-2.25488l0.41797,0.41797l-2.89844,2.89648l-0.35352-0.35352l-0.39551-5.03125
		l-2.19824,2.19727l-0.41602-0.41602l2.79102-2.79199L130.68555,76.28809z"/>
	<path d="M129.74121,73.57324l0.56543-0.56543l0.7207,0.7207l-0.56543,0.56543L129.74121,73.57324z M131.22461,74.97168
		l0.48828-0.4873l3.48438,3.48438l-0.48828,0.4873L131.22461,74.97168z"/>
	<path d="M134.43457,75.23926c-1.03223-1.03223-1.12402-2.46582-0.12793-3.46191c0.99023-0.99023,2.43848-0.91211,3.4707,0.11914
		c1.02441,1.02539,1.12305,2.48047,0.12695,3.47754S135.4668,76.27148,134.43457,75.23926z M137.28906,72.38477
		c-0.79102-0.79199-1.80859-0.91797-2.55078-0.17676c-0.75,0.74902-0.60156,1.75879,0.18359,2.54395
		c0.79102,0.79102,1.80957,0.93359,2.55176,0.19141C138.22266,74.19434,138.06641,73.16211,137.28906,72.38477z"/>
	<path d="M141.15039,67.74609l2.13477,2.13477l-0.48828,0.4873l-2.01367-2.01465c-0.75-0.74902-1.33594-0.85449-1.85938-0.33203
		c-0.65723,0.6582-0.47266,1.60547,0.50879,2.58691l1.56152,1.56152l-0.48633,0.48828l-3.48438-3.48438l0.48633-0.48828
		l0.50977,0.50977c-0.12695-0.5791,0.08496-1.21582,0.58594-1.7168C139.35547,66.72852,140.22461,66.82031,141.15039,67.74609z"/>
	<path d="M145.63281,64.31055l-2.55078,2.55078c0.77734,0.74805,1.66016,0.78418,2.3457,0.09863
		c0.38184-0.38184,0.58691-0.78418,0.56543-1.44141l0.63574-0.04297c0.02148,0.84082-0.22559,1.39941-0.7627,1.93652
		c-1.05957,1.06055-2.39551,0.8125-3.38574-0.17578c-0.98242-0.9834-1.27832-2.35449-0.26758-3.36523
		c1.06641-1.06641,2.3457-0.67773,3.13672,0.11328C145.44922,64.08398,145.5625,64.21094,145.63281,64.31055z M142.67188,66.45117
		l2.10547-2.10547c-0.01367-0.01562-0.05664-0.04297-0.12012-0.10645c-0.60059-0.53027-1.3916-0.60059-2.03516,0.04199
		C141.99316,64.91016,142.09961,65.79395,142.67188,66.45117z"/>
</g>
<g enable-background="new    ">
	<path d="M72.92383,105.91797l3.22949-3.22949l0.46582,0.46582l-2.72754,2.72754l1.7168,1.71777l2.45215-2.45215l0.4668,0.4668
		l-2.45215,2.45215l1.80957,1.80859l2.72754-2.72754l0.4668,0.46582l-3.23047,3.23047L72.92383,105.91797z"/>
	<path d="M80.92578,106.05664l0.22559-0.59375c0.48828,0.2334,1.13184,0.19824,1.67578-0.3457
		c0.47266-0.47266,0.54395-1.01074,0.17578-1.37891c-0.92578-0.92578-2.35352,1.66113-3.58984,0.42383
		c-0.60742-0.60742-0.4873-1.47656,0.21289-2.17578c0.55762-0.55859,1.24316-0.77832,1.97852-0.52344l-0.17676,0.60059
		c-0.48145-0.1416-0.9541-0.06348-1.38574,0.36816c-0.43066,0.43066-0.5293,0.88281-0.22656,1.1875
		c0.82715,0.82617,2.31836-1.71094,3.64062-0.38867c0.70605,0.70605,0.48047,1.63867-0.19141,2.31055
		C82.5791,106.22656,81.66699,106.43164,80.92578,106.05664z"/>
	<path d="M80.4834,98.35938l0.56445-0.56543l0.7207,0.7207l-0.56445,0.56543L80.4834,98.35938z M81.96582,99.75781l0.48828-0.48828
		l3.48438,3.48438l-0.48828,0.48828L81.96582,99.75781z"/>
	<path d="M88.63867,99.9834c-0.12695,0.24023-0.27637,0.45996-0.43848,0.62207c-0.46582,0.46582-1.06738,0.54395-1.68164-0.07031
		l-2.25488-2.25488l-0.5791,0.5791l-0.41016-0.41016l0.5791-0.5791l-0.97559-0.97559l0.12109-0.85547l1.34277,1.34277
		l0.84082-0.84082l0.41016,0.41016l-0.84082,0.84082l2.19043,2.19043c0.33984,0.33984,0.65039,0.33984,0.92578,0.06445
		c0.12012-0.12012,0.22656-0.2832,0.33203-0.4873L88.63867,99.9834z"/>
	<path d="M90.02539,94.32812l2.16895,2.16992l-0.44531,0.44531l-0.56543-0.50879c0.11328,0.66406-0.10547,1.29297-0.65723,1.84473
		c-0.75586,0.75586-1.5957,0.80469-2.26758,0.13281c-0.35352-0.35254-0.48047-0.76172-0.38184-1.17188
		c0.1123-0.42383,0.42285-0.86328,1.1084-1.54883l0.71387-0.71289l-0.16211-0.16211
		c-0.6084-0.60742-1.25781-0.62207-1.84473-0.03516c-0.4375,0.4375-0.58594,0.9668-0.48047,1.63867l-0.65039,0.05664
		c-0.11328-0.86133,0.11328-1.54004,0.70703-2.13477C88.14551,93.4668,89.15527,93.45898,90.02539,94.32812z M90.14453,95.42383
		L90.0957,95.375l-0.6709,0.6709c-0.64355,0.64355-0.87695,0.96094-0.91211,1.26465
		c-0.02832,0.22656,0.06348,0.44531,0.26172,0.64258c0.38867,0.38867,0.96777,0.30469,1.49023-0.21875
		C90.93652,97.06348,90.88672,96.16602,90.14453,95.42383z"/>
	<path d="M92.80371,89.69727l0.41016,4.94727l2.25488-2.25488l0.41699,0.41699l-2.89844,2.89844l-0.35352-0.35352l-0.39453-5.0332
		l-2.19824,2.19824l-0.41699-0.41699l2.79102-2.79102L92.80371,89.69727z"/>
	<path d="M91.85938,86.98242l0.56543-0.56543l0.7207,0.7207l-0.56543,0.56543L91.85938,86.98242z M93.34277,88.38086
		l0.48828-0.48828l3.48438,3.48438l-0.48828,0.48828L93.34277,88.38086z"/>
	<path d="M96.55273,88.64844c-1.03223-1.03125-1.12402-2.4668-0.12695-3.46289c0.98926-0.98926,2.43848-0.91211,3.46973,0.12012
		c1.02539,1.02441,1.12305,2.48145,0.12695,3.47754S97.58496,89.67969,96.55273,88.64844z M99.40723,85.79297
		c-0.79102-0.79102-1.80859-0.91797-2.55078-0.17578c-0.74902,0.74902-0.60059,1.75879,0.18359,2.54297
		c0.79199,0.79199,1.81055,0.93359,2.55273,0.19141C100.34082,87.60352,100.18457,86.57031,99.40723,85.79297z"/>
	<path d="M103.26855,81.15527l2.13477,2.13379l-0.48828,0.48828l-2.01367-2.01465c-0.75-0.74902-1.33594-0.85449-1.8584-0.33203
		c-0.65723,0.65723-0.47363,1.60449,0.50879,2.58691l1.56152,1.56152l-0.4873,0.4873l-3.48438-3.48438l0.4873-0.4873
		l0.50879,0.50879c-0.12695-0.57812,0.08496-1.21484,0.58691-1.7168C101.47363,80.1377,102.34277,80.23047,103.26855,81.15527z"/>
	<path d="M107.75098,77.71875l-2.55078,2.55078c0.77734,0.74902,1.66016,0.78516,2.3457,0.09961
		c0.38281-0.38281,0.58789-0.78516,0.56641-1.44141l0.63477-0.04297c0.02246,0.84082-0.22461,1.39844-0.7627,1.93652
		c-1.05957,1.05957-2.39551,0.8125-3.38477-0.17676c-0.9834-0.98242-1.2793-2.35352-0.26855-3.36426
		c1.06641-1.06738,2.3457-0.67871,3.13672,0.1123C107.56738,77.49219,107.68066,77.62012,107.75098,77.71875z M104.79004,79.85938
		l2.10645-2.10547c-0.01465-0.01465-0.05762-0.04297-0.12012-0.10547c-0.60156-0.53125-1.39258-0.60156-2.03516,0.04102
		C104.1123,78.31836,104.21777,79.20312,104.79004,79.85938z"/>
</g>
<g enable-background="new    ">
	<path d="M0.62695,92.15723l0.70898-0.16992c0.12988,0.89941,0.80957,1.46875,1.74902,1.46875
		c1.00977,0,1.51953-0.5293,1.51953-1.21875c0-0.75-0.42969-1.13965-1.65918-1.60938
		c-1.40918-0.5293-1.89844-1.0293-1.89844-1.93848c0-1.05957,0.79883-1.75977,1.97852-1.75977
		c0.87988,0,1.56934,0.38965,1.98926,1.12988l-0.59961,0.36914c-0.2998-0.53906-0.80957-0.85938-1.40918-0.85938
		c-0.73047,0-1.25,0.5-1.25,1.08984c0,0.63965,0.47949,0.97949,1.5791,1.39941c1.5498,0.58887,1.98926,1.14941,1.98926,2.11816
		c0,1.16992-0.80957,1.91895-2.24902,1.91895C1.78613,94.0957,0.81641,93.32617,0.62695,92.15723z"/>
	<path d="M8.73535,93.94629c-0.25977,0.08008-0.51953,0.12988-0.74902,0.12988c-0.66016,0-1.13965-0.37012-1.13965-1.23926v-3.18848
		H6.02734v-0.58008h0.81934v-1.37891l0.68945-0.51953v1.89844h1.18945v0.58008H7.53613v3.09863
		c0,0.47949,0.21973,0.69922,0.60938,0.69922c0.16992,0,0.36035-0.04004,0.58008-0.10938L8.73535,93.94629z"/>
	<path d="M9.98633,87.03027h0.7998v1.01953h-0.7998V87.03027z M10.04688,89.06836h0.68945v4.92773h-0.68945V89.06836z"/>
	<path d="M12.5166,92.92676v-5.89648h0.68945v5.85645c0,0.33984,0.12012,0.55957,0.44922,0.55957
		c0.15039,0,0.32031-0.04004,0.46973-0.08984l0.01074,0.58984c-0.20996,0.06934-0.45996,0.12988-0.67969,0.12988
		C12.88574,94.07617,12.5166,93.69629,12.5166,92.92676z"/>
	<path d="M15.19629,87.03027h0.7998v1.01953h-0.7998V87.03027z M15.25684,89.06836h0.68945v4.92773h-0.68945V89.06836z"/>
</g>
<g enable-background="new    ">
	<path fill="#00BFD3" d="M49.09229,23.46729h4.72754v0.65918h-4.01758v2.42871h3.51807v0.66016h-3.51807v3.21777h-0.70996V23.46729z
		"/>
	<path fill="#00BFD3" d="M54.36328,27.96436c0-1.45898,0.94922-2.53809,2.3584-2.53809c1.39941,0,2.36865,1.0791,2.36865,2.53809
		c0,1.44922-0.95947,2.54883-2.36865,2.54883S54.36328,29.42334,54.36328,27.96436z M58.40088,27.96436
		c0-1.11914-0.62988-1.92871-1.6792-1.92871c-1.05957,0-1.66895,0.81934-1.66895,1.92871c0,1.11914,0.61963,1.93945,1.66895,1.93945
		C57.78125,29.90381,58.40088,29.06396,58.40088,27.96436z"/>
	<path fill="#00BFD3" d="M63.48096,25.63623l-0.33984,0.55957c-0.22949-0.10059-0.43945-0.15039-0.64941-0.15039
		c-0.75977,0-1.31934,0.56934-1.31934,1.63965v2.74805h-0.68945v-4.92773h0.68945v0.74023
		c0.35986-0.64941,0.95947-0.81934,1.45898-0.81934C62.93164,25.42627,63.21143,25.48584,63.48096,25.63623z"/>
	<path fill="#00BFD3" d="M71.25879,27.35498v3.07812h-0.68994v-2.88867c0-0.41992,0-1.50879-1.0791-1.50879
		c-0.99951,0-1.26953,0.91895-1.26953,2.02832v2.36914h-0.68945v-2.84863c0-0.81934-0.25-1.54883-1.10938-1.54883
		c-0.95947,0-1.22949,0.90918-1.22949,2.02832v2.36914h-0.68945l-0.01025-4.92773h0.66992v0.60059
		c0.30957-0.49023,0.80957-0.67969,1.35889-0.67969c0.68994,0,1.19971,0.2998,1.44922,0.94922
		c0.31982-0.62988,0.86963-0.94922,1.61914-0.94922C70.76904,25.42627,71.25879,26.20557,71.25879,27.35498z"/>
	<path fill="#00BFD3" d="M76.63037,27.36475v3.06836h-0.62988l-0.04004-0.75977c-0.38965,0.5498-0.98926,0.83984-1.76904,0.83984
		c-1.06934,0-1.69873-0.55957-1.69873-1.50977c0-0.49902,0.19971-0.87891,0.55957-1.09863
		c0.37988-0.21973,0.90967-0.31055,1.87891-0.31055h1.00928v-0.22949c0-0.85938-0.44971-1.3291-1.2793-1.3291
		c-0.61963,0-1.09912,0.26953-1.49902,0.81934l-0.49951-0.41992c0.5293-0.68945,1.16895-1.00879,2.00879-1.00879
		C75.91064,25.42627,76.63037,26.13525,76.63037,27.36475z M75.94043,28.22412v-0.06934h-0.94922
		c-0.90967,0-1.29932,0.05957-1.53906,0.24902c-0.18018,0.14062-0.27002,0.36035-0.27002,0.63965
		c0,0.5498,0.46973,0.90039,1.20947,0.90039C75.34082,29.94385,75.94043,29.27393,75.94043,28.22412z"/>
</g>
<g enable-background="new    ">
	<path d="M0.42969,12.60889c0-2.23926,1.20947-3.56836,3.21826-3.56836c1.39893,0,2.37842,0.63965,2.86816,1.90918l-0.65967,0.25
		c-0.36963-1-1.10938-1.47949-2.2085-1.47949c-1.59912,0-2.50879,1.04004-2.50879,2.88867c0,1.85938,0.89941,2.91797,2.4585,2.91797
		c1.08984,0,1.86914-0.50977,2.25879-1.50879l0.67969,0.25C6.0166,15.5376,4.9873,16.20654,3.59766,16.20654
		C1.61914,16.20654,0.42969,14.85791,0.42969,12.60889z"/>
	<path d="M11.41748,13.03857v3.06836H10.7876l-0.04004-0.75977c-0.38965,0.5498-0.98926,0.83984-1.76904,0.83984
		c-1.06934,0-1.69873-0.55957-1.69873-1.50977c0-0.49902,0.19971-0.87891,0.55957-1.09863
		c0.37988-0.21973,0.90967-0.31055,1.87891-0.31055h1.00928v-0.22949c0-0.85938-0.44971-1.3291-1.2793-1.3291
		c-0.61963,0-1.09912,0.26953-1.49902,0.81934l-0.49951-0.41992C7.979,11.41943,8.61865,11.1001,9.4585,11.1001
		C10.69775,11.1001,11.41748,11.80908,11.41748,13.03857z M10.72754,13.89795v-0.06934H9.77832
		c-0.90967,0-1.29932,0.05957-1.53906,0.24902c-0.18018,0.14062-0.27002,0.36035-0.27002,0.63965
		c0,0.5498,0.46973,0.90039,1.20947,0.90039C10.12793,15.61768,10.72754,14.94775,10.72754,13.89795z"/>
	<path d="M15.14844,16.05713c-0.25977,0.08008-0.52002,0.12988-0.74951,0.12988c-0.65967,0-1.13965-0.37012-1.13965-1.23926
		v-3.18848h-0.81934V11.1792h0.81934V9.80029l0.68994-0.51953v1.89844h1.18896v0.58008h-1.18896v3.09863
		c0,0.47949,0.21973,0.69922,0.60938,0.69922c0.16992,0,0.35986-0.04004,0.57959-0.10938L15.14844,16.05713z"/>
	<path d="M20.30713,13.82861h-3.60791c0.02002,1.0791,0.61963,1.72852,1.58936,1.72852c0.53955,0,0.96924-0.13965,1.41895-0.61914
		l0.47998,0.41895c-0.57959,0.61035-1.14941,0.83008-1.90918,0.83008c-1.49902,0-2.26855-1.11914-2.26855-2.51855
		c0-1.38965,0.75977-2.56836,2.18896-2.56836c1.50879,0,2.13867,1.17871,2.13867,2.29785
		C20.3374,13.53857,20.32715,13.7085,20.30713,13.82861z M16.69922,13.24854h2.97852c0-0.02051-0.01025-0.07031-0.01025-0.16016
		c-0.0498-0.7998-0.55957-1.40918-1.46875-1.40918C17.30908,11.6792,16.75928,12.37939,16.69922,13.24854z"/>
	<path d="M25.56738,16.8667c0,0.92969-0.86963,1.35938-2.10889,1.35938c-1.36914,0-2.19873-0.54004-2.19873-1.51953
		c0-0.09961,0.00977-0.16016,0.02002-0.21973l0.79932-0.67969c-0.37988-0.16992-0.63965-0.4502-0.63965-0.93945
		c0-0.39941,0.17969-0.69922,0.52979-0.93945c-0.25977-0.2998-0.41992-0.67969-0.41992-1.11914c0-1,0.81982-1.70898,1.87891-1.70898
		c0.47998,0,0.90967,0.14941,1.22949,0.39941l0.67969-0.58984l0.35986,0.4502l-0.66992,0.55957
		c0.16992,0.26953,0.27002,0.5791,0.27002,0.92969c0,1.00879-0.81934,1.67871-1.85889,1.67871
		c-0.37988,0-0.72949-0.08984-1.01953-0.25c-0.19971,0.11035-0.31982,0.29004-0.31982,0.5c0,0.5,0.61963,0.61914,1.3291,0.72949
		C24.40771,15.65674,25.56738,15.79736,25.56738,16.8667z M24.87744,16.92627c0-0.59961-0.7793-0.68945-1.59912-0.81934
		c-0.21973-0.03027-0.44971-0.07031-0.65967-0.12012l-0.66943,0.64941c-0.00977,0.05078-0.00977,0.07031-0.00977,0.09082
		c0,0.69922,0.70947,0.91895,1.54883,0.91895C24.35791,17.646,24.87744,17.40576,24.87744,16.92627z M22.229,12.82861
		c0,0.63965,0.45996,1.12988,1.19922,1.12988c0.73975,0,1.17969-0.48047,1.17969-1.12988c0-0.67969-0.45996-1.14941-1.16943-1.14941
		C22.73877,11.6792,22.229,12.14893,22.229,12.82861z"/>
	<path d="M26.30957,13.63818c0-1.45898,0.94971-2.53809,2.35889-2.53809c1.39941,0,2.36865,1.0791,2.36865,2.53809
		c0,1.44922-0.95947,2.54883-2.36865,2.54883S26.30957,15.09717,26.30957,13.63818z M30.34766,13.63818
		c0-1.11914-0.62988-1.92871-1.6792-1.92871c-1.05957,0-1.66895,0.81934-1.66895,1.92871c0,1.11914,0.61963,1.93945,1.66895,1.93945
		C29.72803,15.57764,30.34766,14.73779,30.34766,13.63818z"/>
	<path d="M35.42773,11.31006l-0.33984,0.55957c-0.22949-0.10059-0.43945-0.15039-0.64941-0.15039
		c-0.75977,0-1.31934,0.56934-1.31934,1.63965v2.74805h-0.68945V11.1792h0.68945v0.74023
		c0.35986-0.64941,0.95947-0.81934,1.45898-0.81934C34.87793,11.1001,35.1582,11.15967,35.42773,11.31006z"/>
	<path d="M36.38965,9.14111h0.79932v1.01953h-0.79932V9.14111z M36.44971,11.1792h0.68945v4.92773h-0.68945V11.1792z"/>
	<path d="M42.85693,13.82861h-3.60791c0.02002,1.0791,0.61963,1.72852,1.58936,1.72852c0.53955,0,0.96924-0.13965,1.41895-0.61914
		l0.47998,0.41895c-0.57959,0.61035-1.14941,0.83008-1.90918,0.83008c-1.49902,0-2.26855-1.11914-2.26855-2.51855
		c0-1.38965,0.75977-2.56836,2.18896-2.56836c1.50879,0,2.13867,1.17871,2.13867,2.29785
		C42.88721,13.53857,42.87695,13.7085,42.85693,13.82861z M39.24902,13.24854h2.97852c0-0.02051-0.01025-0.07031-0.01025-0.16016
		c-0.0498-0.7998-0.55957-1.40918-1.46875-1.40918C39.85889,11.6792,39.30908,12.37939,39.24902,13.24854z"/>
</g>
<g enable-background="new    ">
	<path fill="#FF3366" d="M48.44287,42.22412l0.70947-0.16992c0.12988,0.89941,0.80957,1.46875,1.74902,1.46875
		c1.00977,0,1.51953-0.5293,1.51953-1.21875c0-0.75-0.43018-1.13965-1.65918-1.60938
		c-1.40918-0.5293-1.89893-1.0293-1.89893-1.93848c0-1.05957,0.79932-1.75977,1.97852-1.75977
		c0.87988,0,1.56934,0.38965,1.98926,1.12988l-0.59961,0.36914c-0.2998-0.53906-0.80957-0.85938-1.40918-0.85938
		c-0.72998,0-1.24951,0.5-1.24951,1.08984c0,0.63965,0.47949,0.97949,1.5791,1.39941
		c1.54932,0.58887,1.98877,1.14941,1.98877,2.11816c0,1.16992-0.80957,1.91895-2.24854,1.91895
		C49.60205,44.1626,48.63281,43.39307,48.44287,42.22412z"/>
	<path fill="#FF3366" d="M54.49268,37.09717h0.79932v1.01953h-0.79932V37.09717z M54.55273,39.13525h0.68945v4.92773h-0.68945
		V39.13525z"/>
	<path fill="#FF3366" d="M60.90039,44.82275c0,0.92969-0.86963,1.35938-2.10889,1.35938c-1.36914,0-2.19873-0.54004-2.19873-1.51953
		c0-0.09961,0.00977-0.16016,0.02002-0.21973l0.79932-0.67969c-0.37988-0.16992-0.63965-0.4502-0.63965-0.93945
		c0-0.39941,0.17969-0.69922,0.52979-0.93945c-0.25977-0.2998-0.41992-0.67969-0.41992-1.11914c0-1,0.81982-1.70898,1.87891-1.70898
		c0.47998,0,0.90967,0.14941,1.22949,0.39941l0.67969-0.58984l0.35986,0.4502l-0.66992,0.55957
		c0.16992,0.26953,0.27002,0.5791,0.27002,0.92969c0,1.00879-0.81934,1.67871-1.85889,1.67871
		c-0.37988,0-0.72949-0.08984-1.01953-0.25c-0.19971,0.11035-0.31982,0.29004-0.31982,0.5c0,0.5,0.61963,0.61914,1.3291,0.72949
		C59.74072,43.61279,60.90039,43.75342,60.90039,44.82275z M60.21045,44.88232c0-0.59961-0.7793-0.68945-1.59912-0.81934
		c-0.21973-0.03027-0.44971-0.07031-0.65967-0.12012l-0.66943,0.64941c-0.00977,0.05078-0.00977,0.07031-0.00977,0.09082
		c0,0.69922,0.70947,0.91895,1.54883,0.91895C59.69092,45.60205,60.21045,45.36182,60.21045,44.88232z M57.56201,40.78467
		c0,0.63965,0.45996,1.12988,1.19922,1.12988c0.73975,0,1.17969-0.48047,1.17969-1.12988c0-0.67969-0.45996-1.14941-1.16943-1.14941
		C58.07178,39.63525,57.56201,40.10498,57.56201,40.78467z"/>
	<path fill="#FF3366" d="M66.2002,41.04443v3.01855h-0.68945v-2.84863c0-1.05957-0.33984-1.54883-1.07959-1.54883
		c-0.92969,0-1.46924,0.7998-1.46924,2.18848v2.20898h-0.68945v-4.92773h0.68945v0.71973
		c0.31982-0.49902,0.91943-0.79883,1.62891-0.79883C65.65039,39.05615,66.2002,39.73584,66.2002,41.04443z"/>
	<path fill="#FF3366" d="M67.84229,37.09717h0.79932v1.01953h-0.79932V37.09717z M67.90234,39.13525h0.68945v4.92773h-0.68945
		V39.13525z"/>
	<path fill="#FF3366" d="M73.81055,44.06299h-0.68945v-4.34766h-1.90918v4.34766h-0.68945v-4.34766h-0.84961v-0.58008h0.84961
		v-0.39941c0-1.16895,0.78955-1.71875,1.75879-1.71875c0.59961,0,1.07959,0.16016,1.5293,0.46973l-0.32959,0.47949
		c-0.33008-0.24023-0.68994-0.37988-1.16943-0.37988c-0.70996,0-1.09961,0.34961-1.09961,1.15918v0.38965h2.59863V44.06299z"/>
	<path fill="#FF3366" d="M75.17236,41.61475c0-1.2998,0.72998-2.55859,2.21924-2.55859c0.87939,0,1.60889,0.43945,1.99854,1.3584
		l-0.65967,0.26074c-0.22949-0.62988-0.71924-1.00977-1.33887-1.00977c-1.0498,0-1.51953,0.93945-1.51953,1.94922
		c0,1.00879,0.46973,1.91895,1.5293,1.91895c0.61963,0,1.10938-0.37012,1.29932-1l0.63965,0.24023
		c-0.33008,0.89941-1.04932,1.36914-1.93896,1.36914C75.97217,44.14307,75.17236,42.98389,75.17236,41.61475z"/>
	<path fill="#FF3366" d="M84.28027,40.99463v3.06836h-0.62988l-0.04004-0.75977c-0.38965,0.5498-0.98926,0.83984-1.76904,0.83984
		c-1.06934,0-1.69873-0.55957-1.69873-1.50977c0-0.49902,0.19971-0.87891,0.55957-1.09863
		c0.37988-0.21973,0.90967-0.31055,1.87891-0.31055h1.00928v-0.22949c0-0.85938-0.44971-1.3291-1.2793-1.3291
		c-0.61963,0-1.09912,0.26953-1.49902,0.81934l-0.49951-0.41992c0.5293-0.68945,1.16895-1.00879,2.00879-1.00879
		C83.56055,39.05615,84.28027,39.76514,84.28027,40.99463z M83.59033,41.854v-0.06934h-0.94922
		c-0.90967,0-1.29932,0.05957-1.53906,0.24902c-0.18018,0.14062-0.27002,0.36035-0.27002,0.63965
		c0,0.5498,0.46973,0.90039,1.20947,0.90039C82.99072,43.57373,83.59033,42.90381,83.59033,41.854z"/>
	<path fill="#FF3366" d="M88.01123,44.01318c-0.25977,0.08008-0.52002,0.12988-0.74951,0.12988
		c-0.65967,0-1.13965-0.37012-1.13965-1.23926v-3.18848h-0.81934v-0.58008h0.81934v-1.37891l0.68945-0.51953v1.89844h1.18945
		v0.58008h-1.18945v3.09863c0,0.47949,0.22021,0.69922,0.60986,0.69922c0.16992,0,0.35986-0.04004,0.57959-0.10938
		L88.01123,44.01318z"/>
	<path fill="#FF3366" d="M88.84277,41.59424c0-1.45898,0.94922-2.53809,2.3584-2.53809c1.39941,0,2.36865,1.0791,2.36865,2.53809
		c0,1.44922-0.95947,2.54883-2.36865,2.54883S88.84277,43.05322,88.84277,41.59424z M92.88037,41.59424
		c0-1.11914-0.62988-1.92871-1.6792-1.92871c-1.05957,0-1.66895,0.81934-1.66895,1.92871c0,1.11914,0.61963,1.93945,1.66895,1.93945
		C92.26074,43.53369,92.88037,42.69385,92.88037,41.59424z"/>
</g>
<line id="Linea_612" fill="none" stroke="#444444" stroke-width="0.5" x1="97.75499" y1="13.60699" x2="120.75499" y2="13.60699"/>
<path id="Tracciato_116477" fill="none" stroke="#444444" stroke-width="0.5" d="M80.355,27.60699h38.5"/>
<path id="Tracciato_116473" fill="none" stroke="#444444" stroke-width="0.5" d="M95.25499,41.60699h26.5"/>
<g enable-background="new    ">
	<path d="M196.95605,16.64697l-1.01953-1c-0.50977,0.36035-1.12891,0.55957-1.83887,0.55957
		c-1.90918,0-3.18848-1.42871-3.18848-3.57812c0-2.1582,1.2793-3.58789,3.18848-3.58789s3.18848,1.42969,3.18848,3.58789
		c0,1.08008-0.32031,1.96973-0.87988,2.59863l1.00977,0.99023L196.95605,16.64697z M195.42676,15.15771l-1.12891-1.09961
		l0.47949-0.42969l1.12891,1.10938c0.42969-0.5,0.66992-1.22949,0.66992-2.10938c0-1.77832-0.96973-2.9082-2.47852-2.9082
		s-2.47852,1.12988-2.47852,2.9082c0,1.76953,0.96973,2.89844,2.47852,2.89844
		C194.60742,15.52686,195.05664,15.39697,195.42676,15.15771z"/>
	<path d="M202.80664,11.1792v4.92773h-0.68945v-0.70996c-0.34961,0.53027-0.97949,0.79004-1.62891,0.79004
		c-1.11914,0-1.60938-0.76953-1.60938-1.98926V11.1792h0.68945v2.84863c0,0.7998,0.14062,1.5498,1.08008,1.5498
		c0.97949,0,1.46875-0.84961,1.46875-2.12891V11.1792H202.80664z"/>
	<path d="M208.29688,13.03857v3.06836h-0.62988l-0.04004-0.75977c-0.38965,0.5498-0.98926,0.83984-1.76855,0.83984
		c-1.06934,0-1.69922-0.55957-1.69922-1.50977c0-0.49902,0.2002-0.87891,0.55957-1.09863
		c0.37988-0.21973,0.91016-0.31055,1.87891-0.31055h1.00977v-0.22949c0-0.85938-0.4502-1.3291-1.2793-1.3291
		c-0.62012,0-1.09961,0.26953-1.49902,0.81934l-0.5-0.41992c0.5293-0.68945,1.16895-1.00879,2.00879-1.00879
		C207.57715,11.1001,208.29688,11.80908,208.29688,13.03857z M207.60742,13.89795v-0.06934h-0.94922
		c-0.91016,0-1.2998,0.05957-1.53906,0.24902c-0.18066,0.14062-0.27051,0.36035-0.27051,0.63965
		c0,0.5498,0.46973,0.90039,1.20996,0.90039C207.00781,15.61768,207.60742,14.94775,207.60742,13.89795z"/>
	<path d="M213.90723,13.08838v3.01855h-0.68945V13.2583c0-1.05957-0.33984-1.54883-1.08008-1.54883
		c-0.92969,0-1.46875,0.7998-1.46875,2.18848v2.20898h-0.68945V11.1792h0.68945v0.71973
		c0.31934-0.49902,0.91895-0.79883,1.62891-0.79883C213.35742,11.1001,213.90723,11.77979,213.90723,13.08838z"/>
	<path d="M217.6582,16.05713c-0.25977,0.08008-0.52051,0.12988-0.75,0.12988c-0.65918,0-1.13965-0.37012-1.13965-1.23926v-3.18848
		h-0.81934V11.1792h0.81934V9.80029l0.69043-0.51953v1.89844h1.18848v0.58008h-1.18848v3.09863
		c0,0.47949,0.21973,0.69922,0.60938,0.69922c0.16992,0,0.35938-0.04004,0.5791-0.10938L217.6582,16.05713z"/>
	<path d="M218.90918,9.14111h0.79883v1.01953h-0.79883V9.14111z M218.96875,11.1792h0.68945v4.92773h-0.68945V11.1792z"/>
	<path d="M223.52734,16.05713c-0.25977,0.08008-0.51953,0.12988-0.74902,0.12988c-0.66016,0-1.13965-0.37012-1.13965-1.23926
		v-3.18848h-0.81934V11.1792h0.81934V9.80029l0.68945-0.51953v1.89844h1.18945v0.58008h-1.18945v3.09863
		c0,0.47949,0.21973,0.69922,0.60938,0.69922c0.16992,0,0.36035-0.04004,0.58008-0.10938L223.52734,16.05713z"/>
	<path d="M228.50684,13.03857v3.06836h-0.62988l-0.04004-0.75977c-0.38965,0.5498-0.98926,0.83984-1.76855,0.83984
		c-1.06934,0-1.69922-0.55957-1.69922-1.50977c0-0.49902,0.2002-0.87891,0.55957-1.09863
		c0.37988-0.21973,0.91016-0.31055,1.87891-0.31055h1.00977v-0.22949c0-0.85938-0.4502-1.3291-1.2793-1.3291
		c-0.62012,0-1.09961,0.26953-1.49902,0.81934l-0.5-0.41992c0.5293-0.68945,1.16895-1.00879,2.00879-1.00879
		C227.78711,11.1001,228.50684,11.80908,228.50684,13.03857z M226.29785,10.55029l-1.23926-1.40918h0.74023l1.03906,1.40918
		H226.29785z M227.81738,13.89795v-0.06934h-0.94922c-0.91016,0-1.2998,0.05957-1.53906,0.24902
		c-0.18066,0.14062-0.27051,0.36035-0.27051,0.63965c0,0.5498,0.46973,0.90039,1.20996,0.90039
		C227.21777,15.61768,227.81738,14.94775,227.81738,13.89795z"/>
	<path d="M237.03613,9.14111v6.96582h-0.68945v-0.65918c-0.35938,0.45898-0.90918,0.73926-1.62891,0.73926
		c-1.43945,0-2.18945-1.0791-2.18945-2.54883c0-1.53906,0.82031-2.54883,2.18945-2.54883c0.69922,0,1.25879,0.27051,1.62891,0.75
		V9.14111H237.03613z M236.40625,13.63818c0-1.16895-0.59961-1.93848-1.58887-1.93848c-0.99902,0-1.59863,0.76953-1.59863,1.93848
		c0,1.11914,0.5498,1.93945,1.59863,1.93945C235.85645,15.57764,236.40625,14.75732,236.40625,13.63818z"/>
	<path d="M238.79883,9.14111h0.79883v1.01953h-0.79883V9.14111z M238.8584,11.1792h0.68945v4.92773h-0.68945V11.1792z"/>
	<path d="M246.14746,16.05713c-0.25977,0.08008-0.52051,0.12988-0.75,0.12988c-0.65918,0-1.13965-0.37012-1.13965-1.23926v-3.18848
		h-0.81934V11.1792h0.81934V9.80029l0.69043-0.51953v1.89844h1.18848v0.58008h-1.18848v3.09863
		c0,0.47949,0.21973,0.69922,0.60938,0.69922c0.16992,0,0.35938-0.04004,0.5791-0.10938L246.14746,16.05713z"/>
	<path d="M251.30566,13.82861h-3.60742c0.01953,1.0791,0.61914,1.72852,1.58887,1.72852c0.54004,0,0.96973-0.13965,1.41895-0.61914
		l0.48047,0.41895c-0.58008,0.61035-1.14941,0.83008-1.90918,0.83008c-1.49902,0-2.26855-1.11914-2.26855-2.51855
		c0-1.38965,0.75977-2.56836,2.18848-2.56836c1.50879,0,2.13867,1.17871,2.13867,2.29785
		C251.33594,13.53857,251.32617,13.7085,251.30566,13.82861z M247.69824,13.24854h2.97852
		c0-0.02051-0.01074-0.07031-0.01074-0.16016c-0.0498-0.7998-0.55957-1.40918-1.46875-1.40918
		C248.30762,11.6792,247.75781,12.37939,247.69824,13.24854z"/>
	<path d="M252.19922,14.89795l0.5791-0.25977c0.17969,0.50977,0.66016,0.93945,1.42969,0.93945
		c0.66895,0,1.09961-0.33008,1.09961-0.84961c0-1.30957-2.83887-0.49023-2.83887-2.23926c0-0.85938,0.69922-1.38867,1.68945-1.38867
		c0.78906,0,1.42871,0.3291,1.76855,1.0293l-0.5498,0.2998c-0.23926-0.44043-0.62988-0.71973-1.23926-0.71973
		s-0.99902,0.25-0.99902,0.67969c0,1.16895,2.84766,0.42969,2.84766,2.29883c0,0.99902-0.81934,1.49902-1.76855,1.49902
		C253.24805,16.18701,252.45898,15.68701,252.19922,14.89795z"/>
	<path d="M259.4375,16.05713c-0.25977,0.08008-0.52051,0.12988-0.75,0.12988c-0.65918,0-1.13965-0.37012-1.13965-1.23926v-3.18848
		h-0.81934V11.1792h0.81934V9.80029l0.69043-0.51953v1.89844h1.18848v0.58008h-1.18848v3.09863
		c0,0.47949,0.21973,0.69922,0.60938,0.69922c0.16992,0,0.35938-0.04004,0.5791-0.10938L259.4375,16.05713z"/>
	<path d="M260.26855,13.63818c0-1.45898,0.94922-2.53809,2.3584-2.53809c1.39941,0,2.36914,1.0791,2.36914,2.53809
		c0,1.44922-0.95996,2.54883-2.36914,2.54883S260.26855,15.09717,260.26855,13.63818z M264.30664,13.63818
		c0-1.11914-0.62988-1.92871-1.67969-1.92871c-1.05957,0-1.66895,0.81934-1.66895,1.92871
		c0,1.11914,0.62012,1.93945,1.66895,1.93945C263.68652,15.57764,264.30664,14.73779,264.30664,13.63818z"/>
</g>
<g enable-background="new    ">
	<path d="M195.27734,22.14111v6.96582h-0.69043v-0.65918c-0.35938,0.45898-0.90918,0.73926-1.62891,0.73926
		c-1.43848,0-2.18848-1.0791-2.18848-2.54883c0-1.53906,0.81934-2.54883,2.18848-2.54883c0.7002,0,1.25977,0.27051,1.62891,0.75
		v-2.69824H195.27734z M194.64746,26.63818c0-1.16895-0.59961-1.93848-1.58887-1.93848c-1,0-1.59961,0.76953-1.59961,1.93848
		c0,1.11914,0.5498,1.93945,1.59961,1.93945C194.09766,28.57764,194.64746,27.75732,194.64746,26.63818z"/>
	<path d="M200.85742,24.1792v4.92773h-0.68945v-0.70996c-0.34961,0.53027-0.97949,0.79004-1.62891,0.79004
		c-1.12012,0-1.60938-0.76953-1.60938-1.98926V24.1792h0.68945v2.84863c0,0.7998,0.13965,1.5498,1.0791,1.5498
		c0.97949,0,1.46973-0.84961,1.46973-2.12891V24.1792H200.85742z"/>
	<path d="M207.18652,26.63818c0,1.46973-0.74902,2.54883-2.18848,2.54883c-0.71973,0-1.26953-0.28027-1.62891-0.73926v0.65918
		h-0.68945v-6.96582h0.68945v2.69824c0.36914-0.47949,0.92969-0.75,1.62891-0.75
		C206.36719,24.08936,207.18652,25.09912,207.18652,26.63818z M206.49707,26.63818c0-1.16895-0.59961-1.93848-1.59863-1.93848
		c-0.99023,0-1.58984,0.76953-1.58984,1.93848c0,1.11914,0.5498,1.93945,1.58984,1.93945
		C205.94727,28.57764,206.49707,27.75732,206.49707,26.63818z"/>
	<path d="M208.55957,22.14111h0.79883v1.01953h-0.79883V22.14111z M208.61914,24.1792h0.68945v4.92773h-0.68945V24.1792z"/>
	<path d="M213.17773,29.05713c-0.25977,0.08008-0.51953,0.12988-0.74902,0.12988c-0.66016,0-1.13965-0.37012-1.13965-1.23926
		v-3.18848h-0.81934V24.1792h0.81934v-1.37891l0.68945-0.51953v1.89844h1.18945v0.58008h-1.18945v3.09863
		c0,0.47949,0.21973,0.69922,0.60938,0.69922c0.16992,0,0.36035-0.04004,0.58008-0.10938L213.17773,29.05713z"/>
	<path d="M218.15723,26.03857v3.06836h-0.62988l-0.04004-0.75977c-0.38965,0.5498-0.98926,0.83984-1.76953,0.83984
		c-1.06934,0-1.69824-0.55957-1.69824-1.50977c0-0.49902,0.19922-0.87891,0.55957-1.09863
		c0.37988-0.21973,0.90918-0.31055,1.87891-0.31055h1.00879v-0.22949c0-0.85938-0.44922-1.3291-1.2793-1.3291
		c-0.61914,0-1.09863,0.26953-1.49902,0.81934l-0.49902-0.41992c0.5293-0.68945,1.16895-1.00879,2.00879-1.00879
		C217.4375,24.1001,218.15723,24.80908,218.15723,26.03857z M217.4668,26.89795v-0.06934h-0.94922
		c-0.90918,0-1.29883,0.05957-1.53906,0.24902c-0.17969,0.14062-0.26953,0.36035-0.26953,0.63965
		c0,0.5498,0.46973,0.90039,1.20898,0.90039C216.86719,28.61768,217.4668,27.94775,217.4668,26.89795z"/>
	<path d="M221.8877,29.05713c-0.25977,0.08008-0.51953,0.12988-0.74902,0.12988c-0.66016,0-1.13965-0.37012-1.13965-1.23926
		v-3.18848h-0.81934V24.1792h0.81934v-1.37891l0.68945-0.51953v1.89844h1.18945v0.58008h-1.18945v3.09863
		c0,0.47949,0.21973,0.69922,0.60938,0.69922c0.16992,0,0.36035-0.04004,0.58008-0.10938L221.8877,29.05713z"/>
	<path d="M223.13867,22.14111h0.7998v1.01953h-0.7998V22.14111z M223.19922,24.1792h0.68945v4.92773h-0.68945V24.1792z"/>
	<path d="M224.99902,24.1792h0.75l1.54883,4.04785l1.55957-4.04785h0.75977l-2.01953,4.92773h-0.58887L224.99902,24.1792z"/>
	<path d="M230.14941,26.63818c0-1.45898,0.94922-2.53809,2.3584-2.53809c1.39941,0,2.36816,1.0791,2.36816,2.53809
		c0,1.44922-0.95898,2.54883-2.36816,2.54883S230.14941,28.09717,230.14941,26.63818z M234.18652,26.63818
		c0-1.11914-0.62988-1.92871-1.67871-1.92871c-1.05957,0-1.66895,0.81934-1.66895,1.92871
		c0,1.11914,0.61914,1.93945,1.66895,1.93945C233.56738,28.57764,234.18652,27.73779,234.18652,26.63818z"/>
	<path d="M238.93848,22.14111h0.7998v1.01953h-0.7998V22.14111z M238.99902,24.1792h0.68945v4.92773h-0.68945V24.1792z"/>
	<path d="M245.43652,26.08838v3.01855h-0.68945V26.2583c0-1.05957-0.33984-1.54883-1.08008-1.54883
		c-0.92969,0-1.46875,0.7998-1.46875,2.18848v2.20898h-0.68945V24.1792h0.68945v0.71973
		c0.31934-0.49902,0.91895-0.79883,1.62891-0.79883C244.88672,24.1001,245.43652,24.77979,245.43652,26.08838z"/>
	<path d="M249.45801,26.65869c0-1.2998,0.73047-2.55859,2.21973-2.55859c0.87891,0,1.6084,0.43945,1.99805,1.3584l-0.65918,0.26074
		c-0.22949-0.62988-0.71973-1.00977-1.33887-1.00977c-1.0498,0-1.51953,0.93945-1.51953,1.94922
		c0,1.00879,0.46973,1.91895,1.5293,1.91895c0.61914,0,1.10938-0.37012,1.29883-1l0.63965,0.24023
		c-0.33008,0.89941-1.04883,1.36914-1.93848,1.36914C250.25781,29.18701,249.45801,28.02783,249.45801,26.65869z"/>
	<path d="M258.56641,26.03857v3.06836h-0.62988l-0.04004-0.75977c-0.38965,0.5498-0.98926,0.83984-1.76855,0.83984
		c-1.06934,0-1.69922-0.55957-1.69922-1.50977c0-0.49902,0.2002-0.87891,0.55957-1.09863
		c0.37988-0.21973,0.91016-0.31055,1.87891-0.31055h1.00977v-0.22949c0-0.85938-0.4502-1.3291-1.2793-1.3291
		c-0.62012,0-1.09961,0.26953-1.49902,0.81934l-0.5-0.41992c0.5293-0.68945,1.16895-1.00879,2.00879-1.00879
		C257.84668,24.1001,258.56641,24.80908,258.56641,26.03857z M257.87695,26.89795v-0.06934h-0.94922
		c-0.91016,0-1.2998,0.05957-1.53906,0.24902c-0.18066,0.14062-0.27051,0.36035-0.27051,0.63965
		c0,0.5498,0.46973,0.90039,1.20996,0.90039C257.27734,28.61768,257.87695,27.94775,257.87695,26.89795z"/>
	<path d="M263.24609,24.31006l-0.33984,0.55957c-0.22949-0.10059-0.43945-0.15039-0.64941-0.15039
		c-0.75977,0-1.31934,0.56934-1.31934,1.63965v2.74805h-0.68945V24.1792h0.68945v0.74023
		c0.36035-0.64941,0.95996-0.81934,1.45898-0.81934C262.69727,24.1001,262.97656,24.15967,263.24609,24.31006z"/>
	<path d="M267.93652,26.03857v3.06836h-0.62988l-0.04004-0.75977c-0.38965,0.5498-0.98926,0.83984-1.76953,0.83984
		c-1.06934,0-1.69824-0.55957-1.69824-1.50977c0-0.49902,0.19922-0.87891,0.55957-1.09863
		c0.37988-0.21973,0.90918-0.31055,1.87891-0.31055h1.00879v-0.22949c0-0.85938-0.44922-1.3291-1.2793-1.3291
		c-0.61914,0-1.09863,0.26953-1.49902,0.81934l-0.49902-0.41992c0.5293-0.68945,1.16895-1.00879,2.00879-1.00879
		C267.2168,24.1001,267.93652,24.80908,267.93652,26.03857z M267.24609,26.89795v-0.06934h-0.94922
		c-0.90918,0-1.29883,0.05957-1.53906,0.24902c-0.17969,0.14062-0.26953,0.36035-0.26953,0.63965
		c0,0.5498,0.46973,0.90039,1.20898,0.90039C266.64648,28.61768,267.24609,27.94775,267.24609,26.89795z"/>
	<path d="M271.66699,29.05713c-0.25977,0.08008-0.51953,0.12988-0.74902,0.12988c-0.66016,0-1.13965-0.37012-1.13965-1.23926
		v-3.18848h-0.81934V24.1792h0.81934v-1.37891l0.68945-0.51953v1.89844h1.18945v0.58008h-1.18945v3.09863
		c0,0.47949,0.21973,0.69922,0.60938,0.69922c0.16992,0,0.36035-0.04004,0.58008-0.10938L271.66699,29.05713z"/>
	<path d="M275.02734,29.05713c-0.25977,0.08008-0.52051,0.12988-0.75,0.12988c-0.65918,0-1.13965-0.37012-1.13965-1.23926v-3.18848
		h-0.81934V24.1792h0.81934v-1.37891l0.69043-0.51953v1.89844h1.18848v0.58008h-1.18848v3.09863
		c0,0.47949,0.21973,0.69922,0.60938,0.69922c0.16992,0,0.35938-0.04004,0.5791-0.10938L275.02734,29.05713z"/>
	<path d="M280.18555,26.82861h-3.60742c0.01953,1.0791,0.61914,1.72852,1.58887,1.72852c0.54004,0,0.96973-0.13965,1.41895-0.61914
		l0.48047,0.41895c-0.58008,0.61035-1.14941,0.83008-1.90918,0.83008c-1.49902,0-2.26855-1.11914-2.26855-2.51855
		c0-1.38965,0.75977-2.56836,2.18848-2.56836c1.50879,0,2.13867,1.17871,2.13867,2.29785
		C280.21582,26.53857,280.20605,26.7085,280.18555,26.82861z M276.57812,26.24854h2.97852
		c0-0.02051-0.01074-0.07031-0.01074-0.16016c-0.0498-0.7998-0.55957-1.40918-1.46875-1.40918
		C277.1875,24.6792,276.6377,25.37939,276.57812,26.24854z"/>
	<path d="M284.60645,24.31006l-0.33984,0.55957c-0.22949-0.10059-0.43945-0.15039-0.64941-0.15039
		c-0.75977,0-1.31934,0.56934-1.31934,1.63965v2.74805h-0.68945V24.1792h0.68945v0.74023
		c0.35938-0.64941,0.95898-0.81934,1.45898-0.81934C284.05664,24.1001,284.33691,24.15967,284.60645,24.31006z"/>
	<path d="M285.56836,22.14111h0.79883v1.01953h-0.79883V22.14111z M285.62793,24.1792h0.68945v4.92773h-0.68945V24.1792z"/>
</g>
<path id="Path-2" fill="none" stroke="#444444" stroke-width="0.5" d="M184.655,20.80299v-12.4"/>
<rect id="Rectangle-3" x="183.25499" y="20.68999" fill="#444444" width="2.7" height="0.8"/>
<rect id="Rectangle-4" x="183.25499" y="8.233" fill="#444444" width="2.7" height="0.8"/>
<path id="Path-10" fill="none" stroke="#444444" stroke-width="0.25" stroke-dasharray="2.114,2.114" d="M149.911,8.633H183.311"/>
<path id="Path-13" fill="none" stroke="#444444" stroke-width="0.25" stroke-dasharray="2.114,2.114" d="M149.911,21.09h34.7"/>
<g enable-background="new    ">
	<path d="M191.38867,55.14111h0.71094v6.30713h3.17773v0.65918h-3.88867V55.14111z"/>
	<path d="M200.19727,59.03906v3.06836h-0.62891l-0.04102-0.75977c-0.38867,0.5498-0.98828,0.83984-1.76855,0.83984
		c-1.06934,0-1.69824-0.55957-1.69824-1.50977c0-0.49902,0.19922-0.87891,0.55859-1.09863
		c0.38086-0.21973,0.91016-0.31055,1.87891-0.31055h1.00977v-0.22949c0-0.85986-0.44922-1.32959-1.2793-1.32959
		c-0.61914,0-1.09961,0.26953-1.49902,0.81934l-0.49902-0.41992c0.5293-0.68945,1.16797-1.00879,2.00781-1.00879
		C199.47852,57.1001,200.19727,57.80908,200.19727,59.03906z M199.50781,59.89844V59.8291h-0.94922
		c-0.91016,0-1.29883,0.05957-1.53906,0.24902c-0.17969,0.14062-0.26953,0.36035-0.26953,0.63965
		c0,0.5498,0.46875,0.90039,1.20898,0.90039C198.9082,61.61816,199.50781,60.94824,199.50781,59.89844z"/>
	<path d="M211.36523,59.0293v3.07812h-0.68945v-2.88867c0-0.42041,0-1.50928-1.0791-1.50928
		c-0.99902,0-1.26953,0.91895-1.26953,2.02881v2.36914h-0.68945v-2.84863c0-0.81982-0.25-1.54932-1.10938-1.54932
		c-0.95996,0-1.22949,0.90918-1.22949,2.02881v2.36914h-0.68945l-0.00977-4.92822h0.66992v0.60059
		c0.30859-0.49023,0.80859-0.67969,1.3584-0.67969c0.69043,0,1.2002,0.2998,1.44922,0.94922
		c0.31934-0.62988,0.87012-0.94922,1.61914-0.94922C210.87598,57.1001,211.36523,57.87939,211.36523,59.0293z"/>
	<path d="M216.7373,59.03906v3.06836h-0.62988l-0.04004-0.75977c-0.38965,0.5498-0.98926,0.83984-1.76855,0.83984
		c-1.07031,0-1.69922-0.55957-1.69922-1.50977c0-0.49902,0.19922-0.87891,0.55957-1.09863
		c0.37988-0.21973,0.90918-0.31055,1.87891-0.31055h1.00879v-0.22949c0-0.85986-0.44922-1.32959-1.2793-1.32959
		c-0.61914,0-1.09863,0.26953-1.49805,0.81934l-0.5-0.41992c0.5293-0.68945,1.16895-1.00879,2.00879-1.00879
		C216.01758,57.1001,216.7373,57.80908,216.7373,59.03906z M216.04688,59.89844V59.8291h-0.94922
		c-0.90918,0-1.29883,0.05957-1.53906,0.24902c-0.17969,0.14062-0.26953,0.36035-0.26953,0.63965
		c0,0.5498,0.46973,0.90039,1.20898,0.90039C215.44727,61.61816,216.04688,60.94824,216.04688,59.89844z"/>
	<path d="M222.34766,59.08887v3.01855h-0.68945v-2.84863c0-1.06006-0.33984-1.54932-1.08008-1.54932
		c-0.92969,0-1.46875,0.7998-1.46875,2.18896v2.20898h-0.68945V57.1792h0.68945v0.71973
		c0.31934-0.49902,0.91895-0.79883,1.62891-0.79883C221.79688,57.1001,222.34766,57.77979,222.34766,59.08887z"/>
	<path d="M223.63867,59.65918c0-1.30029,0.73047-2.55908,2.21973-2.55908c0.87988,0,1.6084,0.43945,1.99902,1.3584l-0.66016,0.26074
		c-0.22949-0.62988-0.71875-1.00977-1.33887-1.00977c-1.0498,0-1.51953,0.93945-1.51953,1.94971
		c0,1.00879,0.46973,1.91895,1.5293,1.91895c0.62012,0,1.10938-0.37012,1.2998-1l0.63867,0.24023
		c-0.33008,0.89941-1.04883,1.36914-1.93848,1.36914C224.43945,62.1875,223.63867,61.02832,223.63867,59.65918z"/>
	<path d="M232.74707,59.03906v3.06836h-0.62988l-0.04004-0.75977c-0.38965,0.5498-0.98926,0.83984-1.76855,0.83984
		c-1.07031,0-1.69922-0.55957-1.69922-1.50977c0-0.49902,0.19922-0.87891,0.55957-1.09863
		c0.37988-0.21973,0.90918-0.31055,1.87891-0.31055h1.00879v-0.22949c0-0.85986-0.44922-1.32959-1.2793-1.32959
		c-0.61914,0-1.09863,0.26953-1.49805,0.81934l-0.5-0.41992c0.5293-0.68945,1.16895-1.00879,2.00879-1.00879
		C232.02734,57.1001,232.74707,57.80908,232.74707,59.03906z M232.05664,59.89844V59.8291h-0.94922
		c-0.90918,0-1.29883,0.05957-1.53906,0.24902c-0.17969,0.14062-0.26953,0.36035-0.26953,0.63965
		c0,0.5498,0.46973,0.90039,1.20898,0.90039C231.45703,61.61816,232.05664,60.94824,232.05664,59.89844z"/>
	<path d="M238.35742,59.08887v3.01855h-0.68945v-2.84863c0-1.06006-0.33984-1.54932-1.08008-1.54932
		c-0.92969,0-1.46875,0.7998-1.46875,2.18896v2.20898h-0.68945V57.1792h0.68945v0.71973
		c0.31934-0.49902,0.91895-0.79883,1.62891-0.79883C237.80664,57.1001,238.35742,57.77979,238.35742,59.08887z"/>
	<path d="M243.61719,57.729l-3.20898,3.78857h3.18945v0.58984h-4.09863v-0.5l3.27832-3.83838h-3.1084V57.1792h3.94824V57.729z"/>
	<path d="M248.59668,59.03906v3.06836h-0.62988l-0.04004-0.75977c-0.38965,0.5498-0.98926,0.83984-1.76855,0.83984
		c-1.07031,0-1.69922-0.55957-1.69922-1.50977c0-0.49902,0.19922-0.87891,0.55957-1.09863
		c0.37988-0.21973,0.90918-0.31055,1.87891-0.31055h1.00879v-0.22949c0-0.85986-0.44922-1.32959-1.2793-1.32959
		c-0.61914,0-1.09863,0.26953-1.49805,0.81934l-0.5-0.41992c0.5293-0.68945,1.16895-1.00879,2.00879-1.00879
		C247.87695,57.1001,248.59668,57.80908,248.59668,59.03906z M247.90625,59.89844V59.8291h-0.94922
		c-0.90918,0-1.29883,0.05957-1.53906,0.24902c-0.17969,0.14062-0.26953,0.36035-0.26953,0.63965
		c0,0.5498,0.46973,0.90039,1.20898,0.90039C247.30664,61.61816,247.90625,60.94824,247.90625,59.89844z"/>
	<path d="M257.12695,55.14111v6.96631h-0.69043v-0.65918c-0.35938,0.45898-0.90918,0.73926-1.62891,0.73926
		c-1.43848,0-2.18848-1.0791-2.18848-2.54883c0-1.53955,0.81934-2.54932,2.18848-2.54932c0.7002,0,1.25879,0.27051,1.62891,0.75
		v-2.69824H257.12695z M256.49609,59.63867c0-1.16943-0.59961-1.93896-1.58789-1.93896c-1,0-1.59961,0.76953-1.59961,1.93896
		c0,1.11914,0.5498,1.93945,1.59961,1.93945C255.94727,61.57812,256.49609,60.75781,256.49609,59.63867z"/>
	<path d="M258.88867,55.14111h0.79883v1.01953h-0.79883V55.14111z M258.94922,57.1792h0.68945v4.92822h-0.68945V57.1792z"/>
	<path d="M267.99609,57.1792v4.92822h-0.68945v-0.70996c-0.34961,0.53027-0.97949,0.79004-1.62891,0.79004
		c-1.11914,0-1.60938-0.76953-1.60938-1.98926V57.1792h0.68945v2.84912c0,0.7998,0.14062,1.5498,1.08008,1.5498
		c0.97852,0,1.46875-0.84961,1.46875-2.12891V57.1792H267.99609z"/>
	<path d="M273.74609,59.08887v3.01855h-0.68945v-2.84863c0-1.06006-0.33984-1.54932-1.08008-1.54932
		c-0.92969,0-1.46875,0.7998-1.46875,2.18896v2.20898h-0.68945V57.1792h0.68945v0.71973
		c0.32031-0.49902,0.91992-0.79883,1.62891-0.79883C273.19629,57.1001,273.74609,57.77979,273.74609,59.08887z"/>
</g>
<g enable-background="new    ">
	<path d="M195.66699,72.63867c0,1.46973-0.74902,2.54883-2.18848,2.54883c-0.71973,0-1.26953-0.28027-1.62891-0.73926v2.69824
		h-0.68945v-6.9668h0.68945v0.66016c0.36914-0.47949,0.92969-0.75,1.62891-0.75
		C194.84766,70.08984,195.66699,71.09961,195.66699,72.63867z M194.97754,72.63867c0-1.16895-0.59961-1.93848-1.59863-1.93848
		c-0.99023,0-1.58984,0.76953-1.58984,1.93848c0,1.11914,0.5498,1.93945,1.58984,1.93945
		C194.42773,74.57812,194.97754,73.75781,194.97754,72.63867z"/>
	<path d="M200.76758,72.03906v3.06836h-0.62988l-0.04004-0.75977c-0.38965,0.5498-0.98926,0.83984-1.76953,0.83984
		c-1.06836,0-1.69824-0.55957-1.69824-1.50977c0-0.49902,0.2002-0.87891,0.55957-1.09863
		c0.37988-0.21973,0.91016-0.31055,1.87891-0.31055h1.00977v-0.22949c0-0.85938-0.4502-1.3291-1.2793-1.3291
		c-0.62012,0-1.09961,0.26953-1.5,0.81934l-0.49902-0.41992c0.5293-0.68945,1.16895-1.00879,2.00879-1.00879
		C200.04785,70.10059,200.76758,70.80957,200.76758,72.03906z M200.07812,72.89844V72.8291h-0.94922
		c-0.91016,0-1.2998,0.05957-1.53906,0.24902c-0.18066,0.14062-0.27051,0.36035-0.27051,0.63965
		c0,0.5498,0.46973,0.90039,1.20996,0.90039C199.47852,74.61816,200.07812,73.94824,200.07812,72.89844z"/>
	<path d="M202.41016,74.03809V68.1416h0.68945v5.85645c0,0.33984,0.11914,0.55957,0.44922,0.55957
		c0.15039,0,0.32031-0.04004,0.46973-0.08984l0.01074,0.58984c-0.21094,0.06934-0.46094,0.12988-0.67969,0.12988
		C202.7793,75.1875,202.41016,74.80762,202.41016,74.03809z"/>
	<path d="M205.10938,74.03809V68.1416h0.68945v5.85645c0,0.33984,0.12012,0.55957,0.44922,0.55957
		c0.15039,0,0.32031-0.04004,0.4707-0.08984l0.00977,0.58984c-0.20996,0.06934-0.45996,0.12988-0.67969,0.12988
		C205.47852,75.1875,205.10938,74.80762,205.10938,74.03809z"/>
	<path d="M207.78906,68.1416h0.79883v1.01953h-0.79883V68.1416z M207.84961,70.17969h0.68945v4.92773h-0.68945V70.17969z"/>
	<path d="M214.28711,72.08887v3.01855h-0.68945v-2.84863c0-1.05957-0.33984-1.54883-1.08008-1.54883
		c-0.92969,0-1.46875,0.7998-1.46875,2.18848v2.20898h-0.68945v-4.92773h0.68945v0.71973
		c0.32031-0.49902,0.91992-0.79883,1.62891-0.79883C213.7373,70.10059,214.28711,70.78027,214.28711,72.08887z"/>
	<path d="M215.55957,72.63867c0-1.45898,0.94922-2.53809,2.3584-2.53809c1.39941,0,2.36914,1.0791,2.36914,2.53809
		c0,1.44922-0.95996,2.54883-2.36914,2.54883S215.55957,74.09766,215.55957,72.63867z M219.59766,72.63867
		c0-1.11914-0.63086-1.92871-1.67969-1.92871c-1.05957,0-1.66895,0.81934-1.66895,1.92871
		c0,1.11914,0.62012,1.93945,1.66895,1.93945C218.97754,74.57812,219.59766,73.73828,219.59766,72.63867z"/>
	<path d="M224.34863,68.1416h0.7998v1.01953h-0.7998V68.1416z M224.4082,70.17969h0.68945v4.92773h-0.68945V70.17969z"/>
	<path d="M230.84668,72.08887v3.01855h-0.68945v-2.84863c0-1.05957-0.33984-1.54883-1.0791-1.54883
		c-0.92969,0-1.46973,0.7998-1.46973,2.18848v2.20898h-0.68945v-4.92773h0.68945v0.71973
		c0.31934-0.49902,0.91895-0.79883,1.62891-0.79883C230.29688,70.10059,230.84668,70.78027,230.84668,72.08887z"/>
	<path d="M236.66602,68.1416v6.96582h-0.68945v-0.65918c-0.35938,0.45898-0.90918,0.73926-1.62891,0.73926
		c-1.43945,0-2.18945-1.0791-2.18945-2.54883c0-1.53906,0.82031-2.54883,2.18945-2.54883c0.69922,0,1.25977,0.27051,1.62891,0.75
		V68.1416H236.66602z M236.03711,72.63867c0-1.16895-0.59961-1.93848-1.58984-1.93848c-0.99902,0-1.59863,0.76953-1.59863,1.93848
		c0,1.11914,0.5498,1.93945,1.59863,1.93945C235.48633,74.57812,236.03711,73.75781,236.03711,72.63867z"/>
	<path d="M238.42871,68.1416h0.7998v1.01953h-0.7998V68.1416z M238.48828,70.17969h0.68945v4.92773h-0.68945V70.17969z"/>
	<path d="M240.58789,72.65918c0-1.2998,0.73047-2.55859,2.21973-2.55859c0.87988,0,1.6084,0.43945,1.99902,1.3584l-0.66016,0.26074
		c-0.22949-0.62988-0.71875-1.00977-1.33887-1.00977c-1.0498,0-1.51953,0.93945-1.51953,1.94922
		c0,1.00879,0.46973,1.91895,1.5293,1.91895c0.62012,0,1.10938-0.37012,1.2998-1l0.63867,0.24023
		c-0.33008,0.89941-1.04883,1.36914-1.93848,1.36914C241.38867,75.1875,240.58789,74.02832,240.58789,72.65918z"/>
	<path d="M249.69727,72.03906v3.06836h-0.63086l-0.03906-0.75977c-0.39062,0.5498-0.99023,0.83984-1.76953,0.83984
		c-1.06934,0-1.69922-0.55957-1.69922-1.50977c0-0.49902,0.2002-0.87891,0.56055-1.09863
		c0.37891-0.21973,0.90918-0.31055,1.87891-0.31055h1.00879v-0.22949c0-0.85938-0.4502-1.3291-1.2793-1.3291
		c-0.62012,0-1.09863,0.26953-1.49902,0.81934l-0.5-0.41992c0.5293-0.68945,1.16992-1.00879,2.00977-1.00879
		C248.97656,70.10059,249.69727,70.80957,249.69727,72.03906z M249.00684,72.89844V72.8291h-0.94922
		c-0.90918,0-1.2998,0.05957-1.53906,0.24902c-0.18066,0.14062-0.27051,0.36035-0.27051,0.63965
		c0,0.5498,0.4707,0.90039,1.20996,0.90039C248.40723,74.61816,249.00684,73.94824,249.00684,72.89844z"/>
	<path d="M254.06836,74.03809V68.1416h0.68945v5.85645c0,0.33984,0.12012,0.55957,0.44922,0.55957
		c0.15039,0,0.32031-0.04004,0.4707-0.08984l0.00977,0.58984c-0.20996,0.06934-0.45996,0.12988-0.67969,0.12988
		C254.4375,75.1875,254.06836,74.80762,254.06836,74.03809z"/>
	<path d="M257.49805,68.1416h0.78906l-1.31934,2.83789h-0.46973L257.49805,68.1416z"/>
	<path d="M263.37695,72.03906v3.06836h-0.63086l-0.03906-0.75977c-0.39062,0.5498-0.99023,0.83984-1.76953,0.83984
		c-1.06934,0-1.69922-0.55957-1.69922-1.50977c0-0.49902,0.2002-0.87891,0.56055-1.09863
		c0.37891-0.21973,0.90918-0.31055,1.87891-0.31055h1.00879v-0.22949c0-0.85938-0.4502-1.3291-1.2793-1.3291
		c-0.62012,0-1.09863,0.26953-1.49902,0.81934l-0.5-0.41992c0.5293-0.68945,1.16992-1.00879,2.00977-1.00879
		C262.65625,70.10059,263.37695,70.80957,263.37695,72.03906z M262.68652,72.89844V72.8291h-0.94922
		c-0.90918,0-1.2998,0.05957-1.53906,0.24902c-0.18066,0.14062-0.27051,0.36035-0.27051,0.63965
		c0,0.5498,0.4707,0.90039,1.20996,0.90039C262.08691,74.61816,262.68652,73.94824,262.68652,72.89844z"/>
	<path d="M264.52832,73.89844l0.5791-0.25977c0.17969,0.50977,0.66016,0.93945,1.42969,0.93945
		c0.66992,0,1.09961-0.33008,1.09961-0.84961c0-1.30957-2.83887-0.49023-2.83887-2.23926c0-0.85938,0.7002-1.38867,1.68945-1.38867
		c0.79004,0,1.42871,0.3291,1.76855,1.0293l-0.54883,0.2998c-0.24023-0.44043-0.63086-0.71973-1.24023-0.71973
		s-0.99902,0.25-0.99902,0.67969c0,1.16895,2.84863,0.42969,2.84863,2.29883c0,0.99902-0.82031,1.49902-1.76953,1.49902
		C265.57812,75.1875,264.78809,74.6875,264.52832,73.89844z"/>
	<path d="M269.18848,73.89844l0.5791-0.25977c0.17969,0.50977,0.66016,0.93945,1.42969,0.93945
		c0.66992,0,1.09961-0.33008,1.09961-0.84961c0-1.30957-2.83887-0.49023-2.83887-2.23926c0-0.85938,0.7002-1.38867,1.68945-1.38867
		c0.79004,0,1.42871,0.3291,1.76855,1.0293l-0.54883,0.2998c-0.24023-0.44043-0.63086-0.71973-1.24023-0.71973
		s-0.99902,0.25-0.99902,0.67969c0,1.16895,2.84863,0.42969,2.84863,2.29883c0,0.99902-0.82031,1.49902-1.76953,1.49902
		C270.23828,75.1875,269.44824,74.6875,269.18848,73.89844z"/>
	<path d="M278.22559,72.8291h-3.6084c0.02051,1.0791,0.62012,1.72852,1.58984,1.72852c0.53906,0,0.96875-0.13965,1.41895-0.61914
		l0.47949,0.41895c-0.5791,0.61035-1.14844,0.83008-1.9082,0.83008c-1.5,0-2.26953-1.11914-2.26953-2.51855
		c0-1.38965,0.75977-2.56836,2.18945-2.56836c1.50879,0,2.13867,1.17871,2.13867,2.29785
		C278.25586,72.53906,278.24609,72.70898,278.22559,72.8291z M274.61719,72.24902h2.97852
		c0-0.02051-0.00977-0.07031-0.00977-0.16016c-0.0498-0.7998-0.55957-1.40918-1.46875-1.40918
		C275.22754,70.67969,274.67773,71.37988,274.61719,72.24902z"/>
	<path d="M283.57617,72.08887v3.01855h-0.68945v-2.84863c0-1.05957-0.33984-1.54883-1.08008-1.54883
		c-0.92969,0-1.46875,0.7998-1.46875,2.18848v2.20898h-0.68945v-4.92773h0.68945v0.71973
		c0.31934-0.49902,0.91895-0.79883,1.62891-0.79883C283.02539,70.10059,283.57617,70.78027,283.57617,72.08887z"/>
	<path d="M288.83594,70.72949l-3.20898,3.78809h3.18945v0.58984h-4.09863v-0.5l3.27832-3.83789h-3.1084v-0.58984h3.94824V70.72949z"
		/>
	<path d="M293.81641,72.03906v3.06836h-0.63086l-0.03906-0.75977c-0.39062,0.5498-0.99023,0.83984-1.76953,0.83984
		c-1.06934,0-1.69922-0.55957-1.69922-1.50977c0-0.49902,0.2002-0.87891,0.56055-1.09863
		c0.37891-0.21973,0.90918-0.31055,1.87891-0.31055h1.00879v-0.22949c0-0.85938-0.4502-1.3291-1.2793-1.3291
		c-0.62012,0-1.09863,0.26953-1.49902,0.81934l-0.5-0.41992c0.5293-0.68945,1.16992-1.00879,2.00977-1.00879
		C293.0957,70.10059,293.81641,70.80957,293.81641,72.03906z M293.12598,72.89844V72.8291h-0.94922
		c-0.90918,0-1.2998,0.05957-1.53906,0.24902c-0.18066,0.14062-0.27051,0.36035-0.27051,0.63965
		c0,0.5498,0.4707,0.90039,1.20996,0.90039C292.52637,74.61816,293.12598,73.94824,293.12598,72.89844z"/>
</g>
<g enable-background="new    ">
	<path d="M195.27734,81.1416v6.96582h-0.68945v-0.65918c-0.35938,0.45898-0.91016,0.73926-1.62891,0.73926
		c-1.43945,0-2.18945-1.0791-2.18945-2.54883c0-1.53906,0.82031-2.54883,2.18945-2.54883c0.69922,0,1.25879,0.27051,1.62891,0.75
		V81.1416H195.27734z M194.64746,85.63867c0-1.16895-0.59961-1.93848-1.58887-1.93848c-1,0-1.59961,0.76953-1.59961,1.93848
		c0,1.11914,0.5498,1.93945,1.59961,1.93945C194.09766,87.57812,194.64746,86.75781,194.64746,85.63867z"/>
	<path d="M200.99707,85.8291h-3.6084c0.02051,1.0791,0.62012,1.72852,1.58984,1.72852c0.53906,0,0.96875-0.13965,1.41895-0.61914
		l0.47949,0.41895c-0.5791,0.61035-1.14844,0.83008-1.9082,0.83008c-1.5,0-2.26953-1.11914-2.26953-2.51855
		c0-1.38965,0.75977-2.56836,2.18945-2.56836c1.50879,0,2.13867,1.17871,2.13867,2.29785
		C201.02734,85.53906,201.01758,85.70898,200.99707,85.8291z M197.38867,85.24902h2.97852
		c0-0.02051-0.00977-0.07031-0.00977-0.16016c-0.0498-0.7998-0.55957-1.40918-1.46875-1.40918
		C197.99902,83.67969,197.44922,84.37988,197.38867,85.24902z"/>
	<path d="M202.37891,87.03809V81.1416h0.68945v5.85645c0,0.33984,0.12109,0.55957,0.4502,0.55957
		c0.14941,0,0.31934-0.04004,0.46973-0.08984l0.00977,0.58984c-0.20898,0.06934-0.45898,0.12988-0.67969,0.12988
		C202.74902,88.1875,202.37891,87.80762,202.37891,87.03809z"/>
	<path d="M205.08008,87.03809V81.1416h0.68945v5.85645c0,0.33984,0.11914,0.55957,0.44922,0.55957
		c0.15039,0,0.32031-0.04004,0.46973-0.08984l0.01074,0.58984c-0.21094,0.06934-0.46094,0.12988-0.67969,0.12988
		C205.44922,88.1875,205.08008,87.80762,205.08008,87.03809z"/>
	<path d="M211.4873,85.03906v3.06836h-0.62988l-0.04004-0.75977c-0.38965,0.5498-0.98926,0.83984-1.76855,0.83984
		c-1.07031,0-1.69922-0.55957-1.69922-1.50977c0-0.49902,0.19922-0.87891,0.55957-1.09863
		c0.37988-0.21973,0.90918-0.31055,1.87891-0.31055h1.00879v-0.22949c0-0.85938-0.44922-1.3291-1.2793-1.3291
		c-0.61914,0-1.09863,0.26953-1.49805,0.81934l-0.5-0.41992c0.5293-0.68945,1.16895-1.00879,2.00879-1.00879
		C210.76758,83.10059,211.4873,83.80957,211.4873,85.03906z M210.79688,85.89844V85.8291h-0.94922
		c-0.90918,0-1.29883,0.05957-1.53906,0.24902c-0.17969,0.14062-0.26953,0.36035-0.26953,0.63965
		c0,0.5498,0.46973,0.90039,1.20898,0.90039C210.19727,87.61816,210.79688,86.94824,210.79688,85.89844z"/>
	<path d="M215.48926,85.65918c0-1.2998,0.72949-2.55859,2.21875-2.55859c0.87988,0,1.60938,0.43945,1.99902,1.3584l-0.66016,0.26074
		c-0.22852-0.62988-0.71875-1.00977-1.33887-1.00977c-1.0498,0-1.51855,0.93945-1.51855,1.94922
		c0,1.00879,0.46875,1.91895,1.5293,1.91895c0.61914,0,1.10938-0.37012,1.29883-1l0.63965,0.24023
		c-0.33008,0.89941-1.0498,1.36914-1.93848,1.36914C216.28906,88.1875,215.48926,87.02832,215.48926,85.65918z"/>
	<path d="M220.49902,85.63867c0-1.45898,0.9502-2.53809,2.3584-2.53809c1.40039,0,2.36914,1.0791,2.36914,2.53809
		c0,1.44922-0.95898,2.54883-2.36914,2.54883C221.44922,88.1875,220.49902,87.09766,220.49902,85.63867z M224.53711,85.63867
		c0-1.11914-0.62988-1.92871-1.67969-1.92871c-1.05859,0-1.66797,0.81934-1.66797,1.92871
		c0,1.11914,0.61914,1.93945,1.66797,1.93945C223.91797,87.57812,224.53711,86.73828,224.53711,85.63867z"/>
	<path d="M233.375,85.0293v3.07812h-0.68945v-2.88867c0-0.41992,0-1.50879-1.0791-1.50879
		c-0.99902,0-1.26953,0.91895-1.26953,2.02832v2.36914h-0.68945v-2.84863c0-0.81934-0.25-1.54883-1.10938-1.54883
		c-0.95996,0-1.22949,0.90918-1.22949,2.02832v2.36914h-0.68945l-0.00977-4.92773h0.66992v0.60059
		c0.30859-0.49023,0.80859-0.67969,1.3584-0.67969c0.69043,0,1.2002,0.2998,1.44922,0.94922
		c0.31934-0.62988,0.87012-0.94922,1.61914-0.94922C232.88574,83.10059,233.375,83.87988,233.375,85.0293z"/>
	<path d="M239.58594,85.63867c0,1.46973-0.74902,2.54883-2.18848,2.54883c-0.71973,0-1.26855-0.28027-1.62891-0.73926v0.65918
		h-0.68945V81.1416h0.68945v2.69824c0.37012-0.47949,0.92969-0.75,1.62891-0.75
		C238.76758,83.08984,239.58594,84.09961,239.58594,85.63867z M238.89648,85.63867c0-1.16895-0.59961-1.93848-1.59863-1.93848
		c-0.98926,0-1.58887,0.76953-1.58887,1.93848c0,1.11914,0.54883,1.93945,1.58887,1.93945
		C238.34766,87.57812,238.89648,86.75781,238.89648,85.63867z"/>
	<path d="M240.95898,81.1416h0.79883v1.01953h-0.79883V81.1416z M241.01953,83.17969h0.68945v4.92773h-0.68945V83.17969z"/>
	<path d="M247.45703,85.08887v3.01855h-0.68945v-2.84863c0-1.05957-0.33984-1.54883-1.08008-1.54883
		c-0.92969,0-1.46875,0.7998-1.46875,2.18848v2.20898h-0.68945v-4.92773h0.68945v0.71973
		c0.31934-0.49902,0.91895-0.79883,1.62891-0.79883C246.90625,83.10059,247.45703,83.78027,247.45703,85.08887z"/>
	<path d="M252.82617,85.03906v3.06836h-0.62891l-0.04102-0.75977c-0.38867,0.5498-0.98828,0.83984-1.76855,0.83984
		c-1.06934,0-1.69824-0.55957-1.69824-1.50977c0-0.49902,0.19922-0.87891,0.55859-1.09863
		c0.38086-0.21973,0.91016-0.31055,1.87891-0.31055h1.00977v-0.22949c0-0.85938-0.44922-1.3291-1.2793-1.3291
		c-0.61914,0-1.09961,0.26953-1.49902,0.81934l-0.49902-0.41992c0.5293-0.68945,1.16797-1.00879,2.00781-1.00879
		C252.10742,83.10059,252.82617,83.80957,252.82617,85.03906z M252.13672,85.89844V85.8291h-0.94922
		c-0.91016,0-1.29883,0.05957-1.53906,0.24902c-0.17969,0.14062-0.26953,0.36035-0.26953,0.63965
		c0,0.5498,0.46875,0.90039,1.20898,0.90039C251.53711,87.61816,252.13672,86.94824,252.13672,85.89844z"/>
	<path d="M258.06641,83.72949l-3.20801,3.78809h3.18848v0.58984h-4.09766v-0.5l3.27734-3.83789h-3.10742v-0.58984h3.94727V83.72949z
		"/>
	<path d="M259.31836,81.1416h0.79883v1.01953h-0.79883V81.1416z M259.37891,83.17969h0.68945v4.92773h-0.68945V83.17969z"/>
	<path d="M261.45898,85.63867c0-1.45898,0.94922-2.53809,2.3584-2.53809c1.39941,0,2.36816,1.0791,2.36816,2.53809
		c0,1.44922-0.95898,2.54883-2.36816,2.54883S261.45898,87.09766,261.45898,85.63867z M265.49609,85.63867
		c0-1.11914-0.62891-1.92871-1.67871-1.92871c-1.05957,0-1.66895,0.81934-1.66895,1.92871
		c0,1.11914,0.61914,1.93945,1.66895,1.93945C264.87695,87.57812,265.49609,86.73828,265.49609,85.63867z"/>
	<path d="M271.50586,85.08887v3.01855h-0.68945v-2.84863c0-1.05957-0.33984-1.54883-1.0791-1.54883
		c-0.92969,0-1.46973,0.7998-1.46973,2.18848v2.20898h-0.68945v-4.92773h0.68945v0.71973
		c0.32031-0.49902,0.91992-0.79883,1.62891-0.79883C270.95703,83.10059,271.50586,83.78027,271.50586,85.08887z"/>
	<path d="M277.10547,85.8291h-3.60742c0.01953,1.0791,0.61914,1.72852,1.58984,1.72852c0.53906,0,0.96875-0.13965,1.41797-0.61914
		l0.48047,0.41895c-0.58008,0.61035-1.14941,0.83008-1.90918,0.83008c-1.49902,0-2.26855-1.11914-2.26855-2.51855
		c0-1.38965,0.75977-2.56836,2.18945-2.56836c1.50781,0,2.13867,1.17871,2.13867,2.29785
		C277.13672,85.53906,277.12598,85.70898,277.10547,85.8291z M273.49805,85.24902h2.97852
		c0-0.02051-0.00977-0.07031-0.00977-0.16016c-0.05078-0.7998-0.56055-1.40918-1.46875-1.40918
		C274.10742,83.67969,273.55859,84.37988,273.49805,85.24902z"/>
	<path d="M285.37598,81.1416v6.96582h-0.69043v-0.65918c-0.35938,0.45898-0.9082,0.73926-1.62891,0.73926
		c-1.43848,0-2.18848-1.0791-2.18848-2.54883c0-1.53906,0.81934-2.54883,2.18848-2.54883c0.7002,0,1.25977,0.27051,1.62891,0.75
		V81.1416H285.37598z M284.74609,85.63867c0-1.16895-0.59961-1.93848-1.58887-1.93848c-0.99902,0-1.59863,0.76953-1.59863,1.93848
		c0,1.11914,0.54883,1.93945,1.59863,1.93945C284.19629,87.57812,284.74609,86.75781,284.74609,85.63867z"/>
	<path d="M287.13867,81.1416h0.79883v1.01953h-0.79883V81.1416z M287.19824,83.17969h0.68945v4.92773h-0.68945V83.17969z"/>
</g>
<g enable-background="new    ">
	<path d="M190.75,98.65918c0-1.2998,0.72949-2.55859,2.21875-2.55859c0.87891,0,1.60938,0.43945,1.99805,1.3584l-0.65918,0.26074
		c-0.22949-0.62988-0.71973-1.00977-1.33887-1.00977c-1.0498,0-1.51953,0.93945-1.51953,1.94922
		c0,1.00879,0.46973,1.91895,1.5293,1.91895c0.61914,0,1.10938-0.37012,1.29883-1l0.64062,0.24023
		c-0.33008,0.89941-1.0498,1.36914-1.93945,1.36914C191.54883,101.1875,190.75,100.02832,190.75,98.65918z"/>
	<path d="M199.85742,98.03906v3.06836h-0.62891l-0.04102-0.75977c-0.38867,0.5498-0.98828,0.83984-1.76855,0.83984
		c-1.06934,0-1.69824-0.55957-1.69824-1.50977c0-0.49902,0.19922-0.87891,0.55859-1.09863
		c0.38086-0.21973,0.91016-0.31055,1.87891-0.31055h1.00977v-0.22949c0-0.85938-0.44922-1.3291-1.2793-1.3291
		c-0.61914,0-1.09961,0.26953-1.49902,0.81934l-0.49902-0.41992c0.5293-0.68945,1.16797-1.00879,2.00781-1.00879
		C199.13867,96.10059,199.85742,96.80957,199.85742,98.03906z M199.16797,98.89844V98.8291h-0.94922
		c-0.91016,0-1.29883,0.05957-1.53906,0.24902c-0.17969,0.14062-0.26953,0.36035-0.26953,0.63965
		c0,0.5498,0.46875,0.90039,1.20898,0.90039C198.56836,100.61816,199.16797,99.94824,199.16797,98.89844z"/>
	<path d="M203.58789,101.05762c-0.25977,0.08008-0.51953,0.12988-0.74902,0.12988c-0.65918,0-1.13965-0.37012-1.13965-1.23926
		v-3.18848h-0.81934v-0.58008h0.81934v-1.37891l0.68945-0.51953v1.89844h1.18945v0.58008h-1.18945v3.09863
		c0,0.47949,0.2207,0.69922,0.60938,0.69922c0.16992,0,0.36035-0.04004,0.58008-0.10938L203.58789,101.05762z"/>
	<path d="M208.74707,98.8291h-3.6084c0.02051,1.0791,0.62012,1.72852,1.58984,1.72852c0.53906,0,0.96875-0.13965,1.41895-0.61914
		l0.47949,0.41895c-0.5791,0.61035-1.14844,0.83008-1.9082,0.83008c-1.5,0-2.26953-1.11914-2.26953-2.51855
		c0-1.38965,0.75977-2.56836,2.18945-2.56836c1.50879,0,2.13867,1.17871,2.13867,2.29785
		C208.77734,98.53906,208.76758,98.70898,208.74707,98.8291z M205.13867,98.24902h2.97852
		c0-0.02051-0.00977-0.07031-0.00977-0.16016c-0.0498-0.7998-0.55957-1.40918-1.46875-1.40918
		C205.74902,96.67969,205.19922,97.37988,205.13867,98.24902z"/>
	<path d="M214.00781,101.86719c0,0.92969-0.87012,1.35938-2.10938,1.35938c-1.36914,0-2.19922-0.54004-2.19922-1.51953
		c0-0.09961,0.00977-0.16016,0.02051-0.21973l0.7998-0.67969c-0.38086-0.16992-0.64062-0.4502-0.64062-0.93945
		c0-0.39941,0.18066-0.69922,0.53027-0.93945c-0.25977-0.2998-0.41992-0.67969-0.41992-1.11914c0-1,0.81934-1.70898,1.87891-1.70898
		c0.47949,0,0.90918,0.14941,1.22949,0.39941l0.67969-0.58984l0.35938,0.4502l-0.66992,0.55957
		c0.16992,0.26953,0.27051,0.5791,0.27051,0.92969c0,1.00879-0.81934,1.67871-1.8584,1.67871
		c-0.38086,0-0.73047-0.08984-1.01953-0.25c-0.2002,0.11035-0.32031,0.29004-0.32031,0.5c0,0.5,0.61914,0.61914,1.3291,0.72949
		C212.84766,100.65723,214.00781,100.79785,214.00781,101.86719z M213.31738,101.92676c0-0.59961-0.7793-0.68945-1.59863-0.81934
		c-0.2207-0.03027-0.4502-0.07031-0.66016-0.12012l-0.66992,0.64941c-0.00977,0.05078-0.00977,0.07031-0.00977,0.09082
		c0,0.69922,0.70996,0.91895,1.54883,0.91895C212.79785,102.64648,213.31738,102.40625,213.31738,101.92676z M210.66895,97.8291
		c0,0.63965,0.45996,1.12988,1.19922,1.12988s1.17969-0.48047,1.17969-1.12988c0-0.67969-0.45996-1.14941-1.16895-1.14941
		C211.17871,96.67969,210.66895,97.14941,210.66895,97.8291z"/>
	<path d="M214.75,98.63867c0-1.45898,0.94922-2.53809,2.3584-2.53809c1.39941,0,2.36816,1.0791,2.36816,2.53809
		c0,1.44922-0.95898,2.54883-2.36816,2.54883S214.75,100.09766,214.75,98.63867z M218.78711,98.63867
		c0-1.11914-0.62891-1.92871-1.67871-1.92871c-1.05957,0-1.66895,0.81934-1.66895,1.92871
		c0,1.11914,0.61914,1.93945,1.66895,1.93945C218.16797,100.57812,218.78711,99.73828,218.78711,98.63867z"/>
	<path d="M223.86719,96.31055l-0.33984,0.55957c-0.22852-0.10059-0.43945-0.15039-0.64844-0.15039
		c-0.75977,0-1.32031,0.56934-1.32031,1.63965v2.74805h-0.68945v-4.92773h0.68945v0.74023
		c0.36035-0.64941,0.95996-0.81934,1.45898-0.81934C223.31836,96.10059,223.59766,96.16016,223.86719,96.31055z"/>
	<path d="M224.83008,94.1416h0.79883v1.01953h-0.79883V94.1416z M224.88965,96.17969h0.68945v4.92773h-0.68945V96.17969z"/>
	<path d="M231.06738,98.03906v3.06836h-0.62988l-0.04004-0.75977c-0.38965,0.5498-0.98926,0.83984-1.76855,0.83984
		c-1.07031,0-1.69922-0.55957-1.69922-1.50977c0-0.49902,0.19922-0.87891,0.55957-1.09863
		c0.37988-0.21973,0.90918-0.31055,1.87891-0.31055h1.00879v-0.22949c0-0.85938-0.44922-1.3291-1.2793-1.3291
		c-0.61914,0-1.09863,0.26953-1.49805,0.81934l-0.5-0.41992c0.5293-0.68945,1.16895-1.00879,2.00879-1.00879
		C230.34766,96.10059,231.06738,96.80957,231.06738,98.03906z M230.37695,98.89844V98.8291h-0.94922
		c-0.90918,0-1.29883,0.05957-1.53906,0.24902c-0.17969,0.14062-0.26953,0.36035-0.26953,0.63965
		c0,0.5498,0.46973,0.90039,1.20898,0.90039C229.77734,100.61816,230.37695,99.94824,230.37695,98.89844z"/>
	<path d="M239.37695,98.8291h-3.60742c0.01953,1.0791,0.61914,1.72852,1.58887,1.72852c0.54004,0,0.96973-0.13965,1.41895-0.61914
		l0.48047,0.41895c-0.58008,0.61035-1.15039,0.83008-1.91016,0.83008c-1.49805,0-2.26758-1.11914-2.26758-2.51855
		c0-1.38965,0.75977-2.56836,2.18848-2.56836c1.50879,0,2.13867,1.17871,2.13867,2.29785
		C239.40723,98.53906,239.39648,98.70898,239.37695,98.8291z M235.76953,98.24902h2.97852
		c0-0.02051-0.01074-0.07031-0.01074-0.16016c-0.0498-0.7998-0.55957-1.40918-1.46875-1.40918
		C236.37891,96.67969,235.8291,97.37988,235.76953,98.24902z"/>
	<path d="M243,99.89844l0.5791-0.25977c0.17969,0.50977,0.65918,0.93945,1.42871,0.93945c0.66992,0,1.09961-0.33008,1.09961-0.84961
		c0-1.30957-2.83789-0.49023-2.83789-2.23926c0-0.85938,0.69922-1.38867,1.68945-1.38867c0.78906,0,1.42871,0.3291,1.76855,1.0293
		l-0.5498,0.2998c-0.24023-0.44043-0.62988-0.71973-1.23926-0.71973c-0.61035,0-0.99902,0.25-0.99902,0.67969
		c0,1.16895,2.84766,0.42969,2.84766,2.29883c0,0.99902-0.81934,1.49902-1.76855,1.49902
		C244.04883,101.1875,243.25977,100.6875,243,99.89844z"/>
	<path d="M250.23828,101.05762c-0.25977,0.08008-0.52051,0.12988-0.75,0.12988c-0.66016,0-1.13965-0.37012-1.13965-1.23926v-3.18848
		h-0.81934v-0.58008h0.81934v-1.37891l0.68945-0.51953v1.89844h1.18945v0.58008h-1.18945v3.09863
		c0,0.47949,0.21973,0.69922,0.61035,0.69922c0.16992,0,0.35938-0.04004,0.5791-0.10938L250.23828,101.05762z"/>
	<path d="M251.48926,94.1416h0.7998v1.01953h-0.7998V94.1416z M251.54883,96.17969h0.68945v4.92773h-0.68945V96.17969z"/>
	<path d="M254.01953,100.03809V94.1416h0.68945v5.85645c0,0.33984,0.11914,0.55957,0.44922,0.55957
		c0.15039,0,0.32031-0.04004,0.46973-0.08984l0.01074,0.58984c-0.21094,0.06934-0.46094,0.12988-0.67969,0.12988
		C254.38867,101.1875,254.01953,100.80762,254.01953,100.03809z"/>
	<path d="M260.65625,98.8291h-3.60742c0.01953,1.0791,0.61914,1.72852,1.58887,1.72852c0.54004,0,0.96973-0.13965,1.41895-0.61914
		l0.48047,0.41895c-0.58008,0.61035-1.15039,0.83008-1.91016,0.83008c-1.49805,0-2.26758-1.11914-2.26758-2.51855
		c0-1.38965,0.75977-2.56836,2.18848-2.56836c1.50879,0,2.13867,1.17871,2.13867,2.29785
		C260.68652,98.53906,260.67578,98.70898,260.65625,98.8291z M257.04883,98.24902h2.97852
		c0-0.02051-0.01074-0.07031-0.01074-0.16016c-0.0498-0.7998-0.55957-1.40918-1.46875-1.40918
		C257.6582,96.67969,257.1084,97.37988,257.04883,98.24902z"/>
	<path d="M262.41797,100.00781h0.90039v1.09961h-0.90039V100.00781z"/>
</g>
<path id="Tracciato_124412" fill="none" stroke="#000000" stroke-width="0.5" d="M147.55499,63.10699l2.2-2.29999
	c0.8-0.79999,1.2-2,1.2-3.10001l-0.10001-15.5l0,0"/>
<path id="Tracciato_124413" fill="none" stroke="#000000" stroke-width="0.5" d="M109.55499,75.90698
	c0,0,25.89999-22.70001,27.3-24.10001c0.8-0.79999,1.2-2,1.2-3.10001v-1.62991"/>
<path id="Tracciato_124414" fill="none" stroke="#000000" stroke-width="0.5" d="M86.45499,76.50699
	c0,0,35.19301-28.54638,36.49301-29.94637s1.20194-1.85305,1.20194-1.85305"/>
<path id="Tracciato_109125" fill="none" stroke="#000000" stroke-width="0.5" stroke-miterlimit="10" d="M153.92525,43.26627
	c8.96745,2.86796,17.60806,6.70191,25.69872,11.48853c2.68466,1.54999,5.31937,3.18661,8.16382,5.0598"/>
<path id="Tracciato_109126" d="M155.05052,45.63529l0.3732-0.24641l-1.35526-2.05263l2.22583-1.25526l-0.19641-0.4598
	l-2.68564,1.45166L155.05052,45.63529z"/>
</svg>
