<?xml version="1.0" encoding="utf-8"?>
<!-- Generator: Adobe Illustrator 25.0.0, SVG Export Plug-In . SVG Version: 6.00 Build 0)  -->
<svg version="1.1" id="Livello_1" xmlns="http://www.w3.org/2000/svg" xmlns:xlink="http://www.w3.org/1999/xlink" x="0px" y="0px"
	 viewBox="0 0 119.9 61.4" enable-background="new 0 0 119.9 61.4" xml:space="preserve">
<g id="Raggruppa_3993">
	
		<circle id="Ellisse_22" fill="#FFFFFF" stroke="#C6CACF" stroke-width="0.25" stroke-miterlimit="10" cx="24.295" cy="8.43501" r="2.7"/>
	<circle id="Ellisse_23" fill="#939699" cx="49.195" cy="21.13501" r="4.4"/>
	<circle id="Ellisse_24" fill="#C6CACF" cx="29.59501" cy="15.23501" r="4.4"/>
	<ellipse id="Ellisse_25" fill="#939699" cx="20.09501" cy="15.23501" rx="3.2" ry="3"/>
	<circle id="Ellisse_26" fill="#C6CACF" cx="44.39501" cy="28.23501" r="2.7"/>
	
		<circle id="Ellisse_27" fill="#FFFFFF" stroke="#C6CACF" stroke-width="0.25" stroke-miterlimit="10" cx="52.39501" cy="29.93501" r="4.1"/>
	<g id="Raggruppa_3992">
		<path id="Tracciato_116438" fill="none" stroke="#FF0066" stroke-width="0.75" stroke-miterlimit="10" d="M33.09501,40.43501
			c0-3.4-2.8-6.2-6.2-6.2h-0.7c-2.2,0.3-2.7,0-3.8-1.4l0,0c-0.9-1.2-2.4-1.9-3.9-1.9c-1.2,0-2.3,0.5-3.2,1.2l0,0
			c-1.4,1.2-2,1.4-4.5,0.4l0,0c-0.9-0.4-1.8-0.6-2.8-0.6c-4.2,0-7.6,3.4-7.6,7.6s3.4,7.6,7.6,7.6h0.3c2.8-0.1,3.4,0.3,4.6,2.4l0,0
			c1.7,3.1,5.6,4.2,8.7,2.5c1.2-0.7,2.1-1.7,2.7-2.9l0,0c1-2.1,1.4-2.4,3.6-2.7l0,0
			C30.895,46.035,33.09501,43.43501,33.09501,40.43501z"/>
		
			<circle id="Ellisse_28" fill="#FFFFFF" stroke="#C6CACF" stroke-width="0.25" stroke-miterlimit="10" cx="18.495" cy="36.035" r="3.2"/>
		<circle id="Ellisse_29" fill="#C6CACF" cx="18.495" cy="46.43501" r="4.2"/>
		<circle id="Ellisse_30" fill="#AFB1B2" cx="7.995" cy="39.63501" r="5.8"/>
		<circle id="Ellisse_31" fill="#C6CACF" cx="26.995" cy="40.43501" r="4.4"/>
	</g>
</g>
<g id="Raggruppa_3995">
	<path id="Tracciato_116439" fill="none" stroke="#000000" stroke-width="0.5" stroke-miterlimit="10" d="M0.295,19.83501
		c5-12,16.9-19.8,29.9-19.6c5.1,0,10.2,1.3,14.7,3.8c4.2,2.3,7.8,5.5,10.7,9.3"/>
	<g id="Raggruppa_3994">
		<path id="Tracciato_116440" d="M51.59501,12.13501c0-0.1,0.2-0.2,0.3-0.2l3.60001,1.2l-0.39999-3.8c0-0.1,0.10001-0.3,0.2-0.3
			s0.3,0.1,0.3,0.2l0.39999,4.2c0,0.1,0,0.2-0.10001,0.2c-0.10001,0.1-0.2,0.1-0.2,0l-4-1.4
			C51.59501,12.23501,51.59501,12.23501,51.59501,12.13501L51.59501,12.13501z"/>
	</g>
</g>
<g>
	<path d="M38.01465,40.45703h-2.4082v-0.65918h5.54688v0.65918h-2.41895v6.30664h-0.71973V40.45703z"/>
	<path d="M45.34375,44.48535h-3.6084c0.02051,1.0791,0.62012,1.72852,1.58887,1.72852c0.54004,0,0.96973-0.13965,1.41992-0.61914
		l0.47949,0.41992c-0.58008,0.60938-1.14941,0.8291-1.90918,0.8291c-1.49902,0-2.26855-1.11914-2.26855-2.51855
		c0-1.38965,0.75977-2.56836,2.18848-2.56836c1.50977,0,2.13867,1.17871,2.13867,2.29883
		C45.37305,44.19531,45.36328,44.36523,45.34375,44.48535z M41.73535,43.90527h2.97852c0-0.01953-0.00977-0.06934-0.00977-0.16016
		c-0.0498-0.79883-0.55957-1.40918-1.46973-1.40918C42.34473,42.33594,41.7959,43.03613,41.73535,43.90527z"/>
	<path d="M47.91504,44.29492l-1.79883-2.45801h0.83984l1.41895,1.97852l1.40918-1.97852h0.83984l-1.79883,2.45801l1.80859,2.46875
		h-0.84961L48.375,44.76465l-1.40918,1.99902h-0.84961L47.91504,44.29492z"/>
	<path d="M53.89453,46.71387c-0.25977,0.08008-0.51953,0.12988-0.74902,0.12988c-0.66016,0-1.13965-0.37012-1.13965-1.23926
		v-3.18848h-0.81934v-0.5791h0.81934v-1.37988l0.68945-0.51953v1.89941h1.18945v0.5791h-1.18945v3.09863
		c0,0.47949,0.21973,0.69922,0.61035,0.69922c0.16992,0,0.35938-0.04004,0.5791-0.10938L53.89453,46.71387z"/>
	<path d="M54.72656,45.55469l0.5791-0.25977c0.18066,0.50977,0.66016,0.93945,1.42969,0.93945
		c0.66992,0,1.09961-0.33008,1.09961-0.84961c0-1.30957-2.83887-0.49023-2.83887-2.23926c0-0.85938,0.7002-1.38867,1.68945-1.38867
		c0.78906,0,1.42871,0.33008,1.76855,1.0293l-0.5498,0.2998c-0.23926-0.43945-0.62891-0.71973-1.23926-0.71973
		c-0.60938,0-0.99902,0.25-0.99902,0.67969c0,1.16895,2.84863,0.42969,2.84863,2.29883c0,0.99902-0.81934,1.49902-1.76953,1.49902
		C55.77637,46.84375,54.98633,46.34375,54.72656,45.55469z"/>
	<path d="M67.15332,44.29492c0,1.46973-0.75,2.54883-2.18848,2.54883c-0.71973,0-1.26953-0.2793-1.62988-0.73926v0.65918h-0.68945
		v-6.96582h0.68945v2.69824c0.37012-0.47949,0.92969-0.74902,1.62988-0.74902
		C66.33398,41.74707,67.15332,42.75586,67.15332,44.29492z M66.46387,44.29492c0-1.16895-0.59961-1.93848-1.59961-1.93848
		c-0.98926,0-1.58887,0.76953-1.58887,1.93848c0,1.12012,0.5498,1.93945,1.58887,1.93945
		C65.91406,46.23438,66.46387,45.41504,66.46387,44.29492z"/>
	<path d="M72.4834,44.48535H68.875c0.02051,1.0791,0.62012,1.72852,1.58887,1.72852c0.54004,0,0.96973-0.13965,1.41992-0.61914
		l0.47949,0.41992c-0.58008,0.60938-1.14941,0.8291-1.90918,0.8291c-1.49902,0-2.26855-1.11914-2.26855-2.51855
		c0-1.38965,0.75977-2.56836,2.18848-2.56836c1.50977,0,2.13867,1.17871,2.13867,2.29883
		C72.5127,44.19531,72.50293,44.36523,72.4834,44.48535z M68.875,43.90527h2.97852c0-0.01953-0.00977-0.06934-0.00977-0.16016
		c-0.0498-0.79883-0.55957-1.40918-1.46973-1.40918C69.48438,42.33594,68.93555,43.03613,68.875,43.90527z"/>
	<path d="M73.86523,45.69434v-5.89648h0.69043v5.85645c0,0.33984,0.11914,0.55957,0.44922,0.55957
		c0.15039,0,0.32031-0.04004,0.46973-0.08984l0.00977,0.58984c-0.20996,0.07031-0.45898,0.12988-0.67969,0.12988
		C74.23535,46.84375,73.86523,46.46387,73.86523,45.69434z"/>
	<path d="M76.17578,44.29492c0-1.45898,0.9502-2.53809,2.35938-2.53809c1.39844,0,2.36816,1.0791,2.36816,2.53809
		c0,1.44922-0.95898,2.54883-2.36816,2.54883S76.17578,45.75488,76.17578,44.29492z M80.21387,44.29492
		c0-1.11914-0.62988-1.92871-1.67871-1.92871c-1.05957,0-1.66992,0.81934-1.66992,1.92871
		c0,1.12012,0.62012,1.93945,1.66992,1.93945C79.59375,46.23438,80.21387,45.39453,80.21387,44.29492z"/>
	<path d="M86.22266,43.74512v3.01855H85.5332v-2.84863c0-1.05859-0.33984-1.54883-1.0791-1.54883
		c-0.92969,0-1.46875,0.7998-1.46875,2.18848v2.20898h-0.69043v-4.92676h0.69043v0.71973c0.31934-0.5,0.91895-0.7998,1.62891-0.7998
		C85.67383,41.75684,86.22266,42.43652,86.22266,43.74512z"/>
	<path d="M91.7627,47.52344c0,0.92969-0.86914,1.35938-2.1084,1.35938c-1.36914,0-2.19922-0.54004-2.19922-1.51953
		c0-0.09961,0.01074-0.15918,0.02051-0.21973l0.7998-0.67969c-0.37988-0.16992-0.63965-0.44922-0.63965-0.93945
		c0-0.39941,0.17969-0.69922,0.5293-0.93945c-0.25977-0.2998-0.41992-0.67969-0.41992-1.11914c0-1,0.81934-1.70898,1.87891-1.70898
		c0.47949,0,0.91016,0.14941,1.22949,0.39941l0.67969-0.58984l0.35938,0.4502l-0.66895,0.55957
		c0.16992,0.26953,0.26953,0.58008,0.26953,0.92969c0,1.00977-0.81934,1.67871-1.85938,1.67871
		c-0.37891,0-0.72949-0.08984-1.01953-0.25c-0.19922,0.11035-0.31934,0.29004-0.31934,0.5c0,0.5,0.62012,0.62012,1.3291,0.72949
		C90.60352,46.31445,91.7627,46.4541,91.7627,47.52344z M91.07324,47.58301c0-0.59961-0.7793-0.68945-1.59863-0.81934
		c-0.21973-0.0293-0.4502-0.06934-0.66016-0.12012l-0.66992,0.65039c-0.00977,0.0498-0.00977,0.06934-0.00977,0.08984
		c0,0.69922,0.70996,0.91895,1.5498,0.91895C90.55371,48.30273,91.07324,48.06348,91.07324,47.58301z M88.4248,43.48535
		c0,0.63965,0.45996,1.12988,1.19922,1.12988c0.74023,0,1.17969-0.47949,1.17969-1.12988c0-0.67969-0.45996-1.14941-1.16992-1.14941
		C88.93457,42.33594,88.4248,42.80566,88.4248,43.48535z"/>
	<path d="M93.0752,39.79785h0.7998v1.01953h-0.7998V39.79785z M93.13477,41.83691h0.69043v4.92676h-0.69043V41.83691z"/>
	<path d="M99.57227,43.74512v3.01855h-0.68945v-2.84863c0-1.05859-0.33984-1.54883-1.0791-1.54883
		c-0.92969,0-1.46875,0.7998-1.46875,2.18848v2.20898h-0.69043v-4.92676h0.69043v0.71973c0.31934-0.5,0.91895-0.7998,1.62891-0.7998
		C99.02344,41.75684,99.57227,42.43652,99.57227,43.74512z"/>
	<path d="M105.1123,47.52344c0,0.92969-0.86914,1.35938-2.1084,1.35938c-1.36914,0-2.19922-0.54004-2.19922-1.51953
		c0-0.09961,0.01074-0.15918,0.02051-0.21973l0.7998-0.67969c-0.37988-0.16992-0.63965-0.44922-0.63965-0.93945
		c0-0.39941,0.17969-0.69922,0.5293-0.93945c-0.25977-0.2998-0.41992-0.67969-0.41992-1.11914c0-1,0.81934-1.70898,1.87891-1.70898
		c0.47949,0,0.91016,0.14941,1.22949,0.39941l0.67969-0.58984l0.35938,0.4502l-0.66895,0.55957
		c0.16992,0.26953,0.26953,0.58008,0.26953,0.92969c0,1.00977-0.81934,1.67871-1.85938,1.67871
		c-0.37891,0-0.72949-0.08984-1.01953-0.25c-0.19922,0.11035-0.31934,0.29004-0.31934,0.5c0,0.5,0.62012,0.62012,1.3291,0.72949
		C103.95312,46.31445,105.1123,46.4541,105.1123,47.52344z M104.42285,47.58301c0-0.59961-0.7793-0.68945-1.59863-0.81934
		c-0.21973-0.0293-0.4502-0.06934-0.66016-0.12012l-0.66992,0.65039c-0.00977,0.0498-0.00977,0.06934-0.00977,0.08984
		c0,0.69922,0.70996,0.91895,1.5498,0.91895C103.90332,48.30273,104.42285,48.06348,104.42285,47.58301z M101.77441,43.48535
		c0,0.63965,0.45996,1.12988,1.19922,1.12988c0.74023,0,1.17969-0.47949,1.17969-1.12988c0-0.67969-0.45996-1.14941-1.16992-1.14941
		C102.28418,42.33594,101.77441,42.80566,101.77441,43.48535z"/>
	<path d="M111.26367,46.71387c-0.25977,0.08008-0.51953,0.12988-0.74902,0.12988c-0.66016,0-1.13965-0.37012-1.13965-1.23926
		v-3.18848h-0.81934v-0.5791h0.81934v-1.37988l0.68945-0.51953v1.89941h1.18945v0.5791h-1.18945v3.09863
		c0,0.47949,0.21973,0.69922,0.61035,0.69922c0.16992,0,0.35938-0.04004,0.5791-0.10938L111.26367,46.71387z"/>
	<path d="M112.09473,44.29492c0-1.45898,0.9502-2.53809,2.35938-2.53809c1.39844,0,2.36816,1.0791,2.36816,2.53809
		c0,1.44922-0.95898,2.54883-2.36816,2.54883S112.09473,45.75488,112.09473,44.29492z M116.13281,44.29492
		c0-1.11914-0.62988-1.92871-1.67871-1.92871c-1.05957,0-1.66992,0.81934-1.66992,1.92871
		c0,1.12012,0.62012,1.93945,1.66992,1.93945C115.5127,46.23438,116.13281,45.39453,116.13281,44.29492z"/>
	<path d="M38.22461,58.71387c-0.25977,0.08008-0.51953,0.12988-0.74902,0.12988c-0.66016,0-1.13965-0.37012-1.13965-1.23926
		v-3.18848H35.5166v-0.5791h0.81934v-1.37988l0.68945-0.51953v1.89941h1.18945v0.5791h-1.18945v3.09863
		c0,0.47949,0.21973,0.69922,0.61035,0.69922c0.16992,0,0.35938-0.04004,0.5791-0.10938L38.22461,58.71387z"/>
	<path d="M43.46387,55.74512v3.01855h-0.68945v-2.84863c0-1.06934-0.33984-1.54883-1.0791-1.54883
		c-0.93945,0-1.46973,0.76953-1.46973,2.12891v2.26855h-0.68945v-6.96582h0.68945v2.75879
		c0.32031-0.5,0.91992-0.7998,1.62988-0.7998C42.91504,53.75684,43.46387,54.43652,43.46387,55.74512z"/>
	<path d="M49.06445,56.48535h-3.6084c0.02051,1.0791,0.62012,1.72852,1.58887,1.72852c0.54004,0,0.96973-0.13965,1.41992-0.61914
		l0.47949,0.41992c-0.58008,0.60938-1.14941,0.8291-1.90918,0.8291c-1.49902,0-2.26855-1.11914-2.26855-2.51855
		c0-1.38965,0.75977-2.56836,2.18848-2.56836c1.50977,0,2.13867,1.17871,2.13867,2.29883
		C49.09375,56.19531,49.08398,56.36523,49.06445,56.48535z M45.45605,55.90527h2.97852c0-0.01953-0.00977-0.06934-0.00977-0.16016
		c-0.0498-0.79883-0.55957-1.40918-1.46973-1.40918C46.06543,54.33594,45.5166,55.03613,45.45605,55.90527z"/>
	<path d="M52.68652,57.55469l0.58008-0.25977c0.17969,0.50977,0.65918,0.93945,1.42871,0.93945
		c0.66992,0,1.09961-0.33008,1.09961-0.84961c0-1.30957-2.83887-0.49023-2.83887-2.23926c0-0.85938,0.7002-1.38867,1.68945-1.38867
		c0.78906,0,1.42871,0.33008,1.76855,1.0293l-0.5498,0.2998c-0.23926-0.43945-0.62891-0.71973-1.23926-0.71973
		c-0.60938,0-0.99902,0.25-0.99902,0.67969c0,1.16895,2.84863,0.42969,2.84863,2.29883c0,0.99902-0.81934,1.49902-1.76953,1.49902
		C53.73633,58.84375,52.94629,58.34375,52.68652,57.55469z"/>
	<path d="M61.44336,55.69531v3.06836h-0.62891l-0.04004-0.75977c-0.39062,0.5498-0.99023,0.83984-1.76953,0.83984
		c-1.06934,0-1.69922-0.55957-1.69922-1.50879c0-0.5,0.2002-0.87988,0.55957-1.09961
		c0.37988-0.21973,0.91016-0.30957,1.87988-0.30957h1.00879v-0.23047c0-0.85938-0.44922-1.3291-1.2793-1.3291
		c-0.61914,0-1.09961,0.26953-1.49902,0.81934l-0.5-0.41895c0.53027-0.69043,1.16992-1.00977,2.00879-1.00977
		C60.72363,53.75684,61.44336,54.46582,61.44336,55.69531z M60.75391,56.55469v-0.06934h-0.94922
		c-0.90918,0-1.2998,0.05957-1.53906,0.25c-0.17969,0.13965-0.27051,0.35938-0.27051,0.63965
		c0,0.5498,0.4707,0.89941,1.20996,0.89941C60.1543,58.27441,60.75391,57.60449,60.75391,56.55469z"/>
	<path d="M69.88184,55.68555v3.07812h-0.68945v-2.8877c0-0.41992,0-1.50977-1.08008-1.50977
		c-0.99902,0-1.26855,0.91992-1.26855,2.0293v2.36816h-0.69043v-2.84863c0-0.81934-0.25-1.54883-1.10938-1.54883
		c-0.95898,0-1.22852,0.90918-1.22852,2.0293v2.36816H63.125l-0.00977-4.92676h0.66992v0.59961
		c0.30957-0.49023,0.80957-0.67969,1.35938-0.67969c0.68945,0,1.19922,0.2998,1.44922,0.94922
		c0.31934-0.62988,0.86914-0.94922,1.61914-0.94922C69.3916,53.75684,69.88184,54.53613,69.88184,55.68555z"/>
	<path d="M75.4834,56.48535H71.875c0.02051,1.0791,0.62012,1.72852,1.58887,1.72852c0.54004,0,0.96973-0.13965,1.41992-0.61914
		l0.47949,0.41992c-0.58008,0.60938-1.14941,0.8291-1.90918,0.8291c-1.49902,0-2.26855-1.11914-2.26855-2.51855
		c0-1.38965,0.75977-2.56836,2.18848-2.56836c1.50977,0,2.13867,1.17871,2.13867,2.29883
		C75.5127,56.19531,75.50293,56.36523,75.4834,56.48535z M71.875,55.90527h2.97852c0-0.01953-0.00977-0.06934-0.00977-0.16016
		c-0.0498-0.79883-0.55957-1.40918-1.46973-1.40918C72.48438,54.33594,71.93555,55.03613,71.875,55.90527z"/>
	<path d="M78.92578,53.83691h0.74902l1.5498,4.04785l1.55859-4.04785h0.75977l-2.01855,4.92676h-0.58984L78.92578,53.83691z"/>
	<path d="M84.0752,56.29492c0-1.45898,0.9502-2.53809,2.35938-2.53809c1.39844,0,2.36816,1.0791,2.36816,2.53809
		c0,1.44922-0.95898,2.54883-2.36816,2.54883S84.0752,57.75488,84.0752,56.29492z M88.11328,56.29492
		c0-1.11914-0.62988-1.92871-1.67871-1.92871c-1.05957,0-1.66992,0.81934-1.66992,1.92871
		c0,1.12012,0.62012,1.93945,1.66992,1.93945C87.49316,58.23438,88.11328,57.39453,88.11328,56.29492z"/>
	<path d="M90.15527,57.69434v-5.89648h0.69043v5.85645c0,0.33984,0.11914,0.55957,0.44922,0.55957
		c0.15039,0,0.32031-0.04004,0.46973-0.08984l0.00977,0.58984c-0.20996,0.07031-0.45898,0.12988-0.67969,0.12988
		C90.52539,58.84375,90.15527,58.46387,90.15527,57.69434z"/>
	<path d="M96.65332,53.83691v4.92676h-0.69043v-0.70898c-0.34961,0.5293-0.97949,0.78906-1.62891,0.78906
		c-1.11914,0-1.6084-0.76953-1.6084-1.98926v-3.01758h0.68945v2.84863c0,0.79883,0.13965,1.54883,1.0791,1.54883
		c0.97949,0,1.46875-0.84961,1.46875-2.12891v-2.26855H96.65332z"/>
	<path d="M105.23145,55.68555v3.07812h-0.68945v-2.8877c0-0.41992,0-1.50977-1.08008-1.50977
		c-0.99902,0-1.26855,0.91992-1.26855,2.0293v2.36816h-0.69043v-2.84863c0-0.81934-0.25-1.54883-1.10938-1.54883
		c-0.95898,0-1.22852,0.90918-1.22852,2.0293v2.36816h-0.69043l-0.00977-4.92676h0.66992v0.59961
		c0.30957-0.49023,0.80957-0.67969,1.35938-0.67969c0.68945,0,1.19922,0.2998,1.44922,0.94922
		c0.31934-0.62988,0.86914-0.94922,1.61914-0.94922C104.74121,53.75684,105.23145,54.53613,105.23145,55.68555z"/>
	<path d="M110.83301,56.48535h-3.6084c0.02051,1.0791,0.62012,1.72852,1.58887,1.72852c0.54004,0,0.96973-0.13965,1.41992-0.61914
		l0.47949,0.41992c-0.58008,0.60938-1.14941,0.8291-1.90918,0.8291c-1.49902,0-2.26855-1.11914-2.26855-2.51855
		c0-1.38965,0.75977-2.56836,2.18848-2.56836c1.50977,0,2.13867,1.17871,2.13867,2.29883
		C110.8623,56.19531,110.85254,56.36523,110.83301,56.48535z M107.22461,55.90527h2.97852
		c0-0.01953-0.00977-0.06934-0.00977-0.16016c-0.0498-0.79883-0.55957-1.40918-1.46973-1.40918
		C107.83398,54.33594,107.28516,55.03613,107.22461,55.90527z"/>
</g>
<g>
	<path d="M60.25732,13.50586c0-2.23877,1.20947-3.56787,3.21826-3.56787c1.39941,0,2.37891,0.63965,2.86914,1.90869l-0.66016,0.25
		c-0.36914-0.99951-1.10938-1.47949-2.20898-1.47949c-1.59863,0-2.5083,1.03955-2.5083,2.88867
		c0,1.85889,0.8999,2.91846,2.4585,2.91846c1.08984,0,1.86914-0.50977,2.25879-1.50928l0.67969,0.25
		c-0.51953,1.26904-1.54883,1.93896-2.93848,1.93896C61.44727,17.104,60.25732,15.75439,60.25732,13.50586z"/>
	<path d="M71.60449,13.98535v3.01855h-0.68945v-2.84863c0-1.06934-0.33984-1.54883-1.0791-1.54883
		c-0.93945,0-1.46875,0.76953-1.46875,2.12891v2.26855h-0.69043V10.0376h0.69043v2.75879c0.31934-0.5,0.91895-0.7998,1.62891-0.7998
		C71.05566,11.99658,71.60449,12.67627,71.60449,13.98535z"/>
	<path d="M76.30664,12.20654l-0.33984,0.55957c-0.23047-0.09961-0.44043-0.1499-0.65039-0.1499
		c-0.75879,0-1.31836,0.56982-1.31836,1.63916v2.74854h-0.69043v-4.92725h0.69043v0.73975
		c0.35938-0.6499,0.95898-0.81982,1.45898-0.81982C75.75684,11.99658,76.03613,12.05664,76.30664,12.20654z"/>
	<path d="M76.44727,14.53516c0-1.45898,0.9502-2.53857,2.35938-2.53857c1.39844,0,2.36816,1.07959,2.36816,2.53857
		c0,1.44922-0.95898,2.54883-2.36816,2.54883S76.44727,15.99463,76.44727,14.53516z M80.48535,14.53516
		c0-1.11914-0.62988-1.92871-1.67871-1.92871c-1.05957,0-1.66992,0.81934-1.66992,1.92871
		c0,1.11963,0.62012,1.93896,1.66992,1.93896C79.86523,16.47412,80.48535,15.63477,80.48535,14.53516z"/>
	<path d="M86.49512,13.98535v3.01855h-0.68945v-2.84863c0-1.05908-0.33984-1.54883-1.0791-1.54883
		c-0.92969,0-1.46875,0.79932-1.46875,2.18848v2.20898h-0.69043v-4.92725h0.69043v0.71973
		c0.31934-0.5,0.91895-0.7998,1.62891-0.7998C85.94629,11.99658,86.49512,12.67627,86.49512,13.98535z"/>
	<path d="M87.76758,14.53516c0-1.45898,0.9502-2.53857,2.35938-2.53857c1.39844,0,2.36816,1.07959,2.36816,2.53857
		c0,1.44922-0.95898,2.54883-2.36816,2.54883S87.76758,15.99463,87.76758,14.53516z M91.80566,14.53516
		c0-1.11914-0.62988-1.92871-1.67871-1.92871c-1.05957,0-1.66992,0.81934-1.66992,1.92871
		c0,1.11963,0.62012,1.93896,1.66992,1.93896C91.18555,16.47412,91.80566,15.63477,91.80566,14.53516z"/>
	<path d="M93.84668,15.93457V10.0376h0.69043v5.85693c0,0.33984,0.11914,0.55957,0.44922,0.55957
		c0.15039,0,0.32031-0.04004,0.46973-0.08984l0.00977,0.58984c-0.20996,0.06982-0.45898,0.12988-0.67969,0.12988
		C94.2168,17.08398,93.84668,16.7041,93.84668,15.93457z"/>
	<path d="M96.15723,14.53516c0-1.45898,0.9502-2.53857,2.35938-2.53857c1.39844,0,2.36816,1.07959,2.36816,2.53857
		c0,1.44922-0.95898,2.54883-2.36816,2.54883S96.15723,15.99463,96.15723,14.53516z M100.19531,14.53516
		c0-1.11914-0.62988-1.92871-1.67871-1.92871c-1.05957,0-1.66992,0.81934-1.66992,1.92871
		c0,1.11963,0.62012,1.93896,1.66992,1.93896C99.5752,16.47412,100.19531,15.63477,100.19531,14.53516z"/>
	<path d="M106.11426,17.76367c0,0.9292-0.86914,1.35889-2.1084,1.35889c-1.36914,0-2.19922-0.53955-2.19922-1.51904
		c0-0.1001,0.01074-0.15967,0.02051-0.21973l0.7998-0.67969c-0.37988-0.16992-0.63965-0.44971-0.63965-0.93945
		c0-0.3999,0.17969-0.69971,0.5293-0.93945c-0.25977-0.2998-0.41992-0.67969-0.41992-1.11963
		c0-0.99951,0.81934-1.70898,1.87891-1.70898c0.47949,0,0.90918,0.1499,1.22949,0.3999l0.67969-0.58984l0.35938,0.44971
		l-0.66895,0.56006c0.16992,0.26953,0.26953,0.57959,0.26953,0.9292c0,1.00977-0.81934,1.6792-1.85938,1.6792
		c-0.37988,0-0.72949-0.08984-1.01855-0.25c-0.2002,0.10986-0.32031,0.29004-0.32031,0.5c0,0.49951,0.62012,0.61963,1.3291,0.72949
		C104.95508,16.5542,106.11426,16.69385,106.11426,17.76367z M105.4248,17.82324c0-0.59961-0.7793-0.68945-1.59863-0.81934
		c-0.2207-0.02979-0.4502-0.06982-0.66016-0.12012l-0.66992,0.6499c-0.00977,0.0498-0.00977,0.06982-0.00977,0.08984
		c0,0.69971,0.70996,0.91943,1.5498,0.91943C104.90527,18.54297,105.4248,18.30322,105.4248,17.82324z M102.77637,13.72559
		c0,0.63965,0.45996,1.12939,1.19922,1.12939c0.74023,0,1.17969-0.47949,1.17969-1.12939c0-0.67969-0.45996-1.14941-1.16992-1.14941
		C103.28613,12.57617,102.77637,13.0459,102.77637,13.72559z"/>
	<path d="M108.7959,16.94385l-2.08887-4.86719h0.75977l1.69922,4.05762l1.48926-4.05762h0.75977l-2.69922,6.96631h-0.73926
		L108.7959,16.94385z"/>
</g>
</svg>
