<?xml version="1.0" encoding="utf-8"?>
<!-- Generator: Adobe Illustrator 24.0.1, SVG Export Plug-In . SVG Version: 6.00 Build 0)  -->
<svg version="1.1" id="Livello_1" xmlns="http://www.w3.org/2000/svg" xmlns:xlink="http://www.w3.org/1999/xlink" x="0px" y="0px"
	 viewBox="0 0 119.9 61.4" style="enable-background:new 0 0 119.9 61.4;" xml:space="preserve">
<style type="text/css">
	.st0_3ubcd6{fill:#FFFFFF;stroke:#C6CACF;stroke-width:0.25;stroke-miterlimit:10;}
	.st1_3ubcd6{fill:#939699;}
	.st2_3ubcd6{fill:#C6CACF;}
	.st3_3ubcd6{fill:none;stroke:#FF0066;stroke-width:0.75;stroke-miterlimit:10;}
	.st4_3ubcd6{fill:#AFB1B2;}
	.st5_3ubcd6{fill:none;stroke:#000000;stroke-width:0.5;stroke-miterlimit:10;}
	.st6_3ubcd6{font-family:'HKGrotesk-Regular';}
	.st7_3ubcd6{font-size:10px;}
</style>
<g id="Raggruppa_3935" transform="translate(-14.658 -218.304)">
	<g id="Raggruppa_4014" transform="translate(-69.047 174.639)">
		<g id="Raggruppa_3996">
			<g id="Raggruppa_3993">
				<circle id="Ellisse_22" class="st0_3ubcd6" cx="108" cy="52.1" r="2.7"/>
				<circle id="Ellisse_23" class="st1_3ubcd6" cx="132.9" cy="64.8" r="4.4"/>
				<circle id="Ellisse_24" class="st2_3ubcd6" cx="113.3" cy="58.9" r="4.4"/>
				<ellipse id="Ellisse_25" class="st1_3ubcd6" cx="103.8" cy="58.9" rx="3.2" ry="3"/>
				<circle id="Ellisse_26" class="st2_3ubcd6" cx="128.1" cy="71.9" r="2.7"/>
				<circle id="Ellisse_27" class="st0_3ubcd6" cx="136.1" cy="73.6" r="4.1"/>
				<g id="Raggruppa_3992">
					<path id="Tracciato_116438" class="st3_3ubcd6" d="M116.8,84.1c0-3.4-2.8-6.2-6.2-6.2h-0.7c-2.2,0.3-2.7,0-3.8-1.4l0,0
						c-0.9-1.2-2.4-1.9-3.9-1.9c-1.2,0-2.3,0.5-3.2,1.2l0,0c-1.4,1.2-2,1.4-4.5,0.4l0,0c-0.9-0.4-1.8-0.6-2.8-0.6
						c-4.2,0-7.6,3.4-7.6,7.6c0,4.2,3.4,7.6,7.6,7.6H92c2.8-0.1,3.4,0.3,4.6,2.4l0,0c1.7,3.1,5.6,4.2,8.7,2.5
						c1.2-0.7,2.1-1.7,2.7-2.9l0,0c1-2.1,1.4-2.4,3.6-2.7l0,0C114.6,89.7,116.8,87.1,116.8,84.1z"/>
					<circle id="Ellisse_28" class="st0_3ubcd6" cx="102.2" cy="79.7" r="3.2"/>
					<circle id="Ellisse_29" class="st2_3ubcd6" cx="102.2" cy="90.1" r="4.2"/>
					<circle id="Ellisse_30" class="st4_3ubcd6" cx="91.7" cy="83.3" r="5.8"/>
					<circle id="Ellisse_31" class="st2_3ubcd6" cx="110.7" cy="84.1" r="4.4"/>
				</g>
			</g>
			<g id="Raggruppa_3995">
				<path id="Tracciato_116439" class="st5_3ubcd6" d="M84,63.5c5-12,16.9-19.8,29.9-19.6c5.1,0,10.2,1.3,14.7,3.8
					c4.2,2.3,7.8,5.5,10.7,9.3"/>
				<g id="Raggruppa_3994">
					<path id="Tracciato_116440" d="M135.3,55.8c0-0.1,0.2-0.2,0.3-0.2l3.6,1.2l-0.4-3.8c0-0.1,0.1-0.3,0.2-0.3s0.3,0.1,0.3,0.2
						l0.4,4.2c0,0.1,0,0.2-0.1,0.2c-0.1,0.1-0.2,0.1-0.2,0l-4-1.4C135.3,55.9,135.3,55.9,135.3,55.8
						C135.3,55.8,135.3,55.8,135.3,55.8z"/>
				</g>
			</g>
		</g>
		<g id="Isolation_Mode">
			<text transform="matrix(1 0 0 1 119.623 90.968)" class="st6_3ubcd6 st7_3ubcd6">appartenenza a </text>
			<text transform="matrix(1 0 0 1 119.623 103.968)" class="st6_3ubcd6 st7_3ubcd6">uno stesso volume</text>
			<text transform="matrix(1 0 0 1 144.956 58.882)" class="st6_3ubcd6 st7_3ubcd6">cronologia</text>
		</g>
	</g>
</g>
</svg>
