<?xml version="1.0" encoding="utf-8"?>
<!-- Generator: Adobe Illustrator 25.0.0, SVG Export Plug-In . SVG Version: 6.00 Build 0)  -->
<svg version="1.1" id="Livello_1" xmlns="http://www.w3.org/2000/svg" xmlns:xlink="http://www.w3.org/1999/xlink" x="0px" y="0px"
	 viewBox="0 0 119.9 61.4" enable-background="new 0 0 119.9 61.4" xml:space="preserve">
<g id="Raggruppa_3993">
	
		<circle id="Ellisse_22" fill="#FFFFFF" stroke="#C6CACF" stroke-width="0.25" stroke-miterlimit="10" cx="24.295" cy="8.43501" r="2.7"/>
	<circle id="Ellisse_23" fill="#939699" cx="49.195" cy="21.13501" r="4.4"/>
	<circle id="Ellisse_24" fill="#C6CACF" cx="29.59501" cy="15.23501" r="4.4"/>
	<ellipse id="Ellisse_25" fill="#939699" cx="20.09501" cy="15.23501" rx="3.2" ry="3"/>
	<circle id="Ellisse_26" fill="#C6CACF" cx="44.39501" cy="28.23501" r="2.7"/>
	
		<circle id="Ellisse_27" fill="#FFFFFF" stroke="#C6CACF" stroke-width="0.25" stroke-miterlimit="10" cx="52.39501" cy="29.93501" r="4.1"/>
	<g id="Raggruppa_3992">
		<path id="Tracciato_116438" fill="none" stroke="#FF0066" stroke-width="0.75" stroke-miterlimit="10" d="M33.09501,40.43501
			c0-3.4-2.8-6.2-6.2-6.2h-0.7c-2.2,0.3-2.7,0-3.8-1.4l0,0c-0.9-1.2-2.4-1.9-3.9-1.9c-1.2,0-2.3,0.5-3.2,1.2l0,0
			c-1.4,1.2-2,1.4-4.5,0.4l0,0c-0.9-0.4-1.8-0.6-2.8-0.6c-4.2,0-7.6,3.4-7.6,7.6s3.4,7.6,7.6,7.6h0.3c2.8-0.1,3.4,0.3,4.6,2.4l0,0
			c1.7,3.1,5.6,4.2,8.7,2.5c1.2-0.7,2.1-1.7,2.7-2.9l0,0c1-2.1,1.4-2.4,3.6-2.7l0,0
			C30.895,46.035,33.09501,43.43501,33.09501,40.43501z"/>
		
			<circle id="Ellisse_28" fill="#FFFFFF" stroke="#C6CACF" stroke-width="0.25" stroke-miterlimit="10" cx="18.495" cy="36.035" r="3.2"/>
		<circle id="Ellisse_29" fill="#C6CACF" cx="18.495" cy="46.43501" r="4.2"/>
		<circle id="Ellisse_30" fill="#AFB1B2" cx="7.995" cy="39.63501" r="5.8"/>
		<circle id="Ellisse_31" fill="#C6CACF" cx="26.995" cy="40.43501" r="4.4"/>
	</g>
</g>
<g id="Raggruppa_3995">
	<path id="Tracciato_116439" fill="none" stroke="#000000" stroke-width="0.5" stroke-miterlimit="10" d="M0.295,19.83501
		c5-12,16.9-19.8,29.9-19.6c5.1,0,10.2,1.3,14.7,3.8c4.2,2.3,7.8,5.5,10.7,9.3"/>
	<g id="Raggruppa_3994">
		<path id="Tracciato_116440" d="M51.59501,12.13501c0-0.1,0.2-0.2,0.3-0.2l3.60001,1.2l-0.39999-3.8c0-0.1,0.10001-0.3,0.2-0.3
			s0.3,0.1,0.3,0.2l0.39999,4.2c0,0.1,0,0.2-0.10001,0.2c-0.10001,0.1-0.2,0.1-0.2,0l-4-1.4
			C51.59501,12.23501,51.59501,12.23501,51.59501,12.13501L51.59501,12.13501z"/>
	</g>
</g>
<g enable-background="new    ">
	<path d="M40.62549,45.43359h-2.89844l-0.66992,1.86914h-0.7793l2.59863-6.96582h0.58936l2.60889,6.96582h-0.78955
		L40.62549,45.43359z M40.40527,44.82422l-1.229-3.47852l-1.23926,3.47852H40.40527z"/>
	<path d="M47.80518,44.83398c0,1.46973-0.74951,2.54883-2.18896,2.54883c-0.71924,0-1.26904-0.28027-1.62891-0.73926v2.69824
		h-0.68945V42.375h0.68945v0.66016c0.36963-0.47949,0.92969-0.75,1.62891-0.75
		C46.98584,42.28516,47.80518,43.29492,47.80518,44.83398z M47.11572,44.83398c0-1.16895-0.59961-1.93848-1.59912-1.93848
		c-0.98975,0-1.58936,0.76953-1.58936,1.93848c0,1.11914,0.5498,1.93945,1.58936,1.93945
		C46.56592,46.77344,47.11572,45.95312,47.11572,44.83398z"/>
	<path d="M53.74512,44.83398c0,1.46973-0.74951,2.54883-2.18896,2.54883c-0.71924,0-1.26904-0.28027-1.62891-0.73926v2.69824
		h-0.68945V42.375h0.68945v0.66016c0.36963-0.47949,0.92969-0.75,1.62891-0.75
		C52.92578,42.28516,53.74512,43.29492,53.74512,44.83398z M53.05566,44.83398c0-1.16895-0.59961-1.93848-1.59912-1.93848
		c-0.98975,0-1.58936,0.76953-1.58936,1.93848c0,1.11914,0.5498,1.93945,1.58936,1.93945
		C52.50586,46.77344,53.05566,45.95312,53.05566,44.83398z"/>
	<path d="M58.8457,44.23438v3.06836h-0.62988l-0.04004-0.75977c-0.38965,0.5498-0.98926,0.83984-1.76904,0.83984
		c-1.06934,0-1.69873-0.55957-1.69873-1.50977c0-0.49902,0.19971-0.87891,0.55957-1.09863
		c0.37988-0.21973,0.90967-0.31055,1.87891-0.31055h1.00928v-0.22949c0-0.85938-0.44971-1.3291-1.2793-1.3291
		c-0.61963,0-1.09912,0.26953-1.49902,0.81934l-0.49951-0.41992c0.5293-0.68945,1.16895-1.00879,2.00879-1.00879
		C58.12598,42.2959,58.8457,43.00488,58.8457,44.23438z M58.15576,45.09375v-0.06934h-0.94922
		c-0.90967,0-1.29932,0.05957-1.53906,0.24902c-0.18018,0.14062-0.27002,0.36035-0.27002,0.63965
		c0,0.5498,0.46973,0.90039,1.20947,0.90039C57.55615,46.81348,58.15576,46.14355,58.15576,45.09375z"/>
	<path d="M63.52539,42.50586l-0.33984,0.55957c-0.22949-0.10059-0.43945-0.15039-0.64941-0.15039
		c-0.75977,0-1.31934,0.56934-1.31934,1.63965v2.74805h-0.68945V42.375h0.68945v0.74023
		c0.36035-0.64941,0.95996-0.81934,1.45898-0.81934C62.97559,42.2959,63.25586,42.35547,63.52539,42.50586z"/>
	<path d="M66.84668,47.25293c-0.25977,0.08008-0.52051,0.12988-0.75,0.12988c-0.65918,0-1.13965-0.37012-1.13965-1.23926v-3.18848
		H64.1377V42.375h0.81934v-1.37891l0.68945-0.51953V42.375h1.18945v0.58008h-1.18945v3.09863
		c0,0.47949,0.2207,0.69922,0.61035,0.69922c0.16992,0,0.35938-0.04004,0.5791-0.10938L66.84668,47.25293z"/>
	<path d="M72.00488,45.02441h-3.60742c0.01953,1.0791,0.61914,1.72852,1.58887,1.72852c0.54004,0,0.96973-0.13965,1.41895-0.61914
		l0.48047,0.41895c-0.58008,0.61035-1.14941,0.83008-1.90918,0.83008c-1.49902,0-2.26855-1.11914-2.26855-2.51855
		c0-1.38965,0.75977-2.56836,2.18848-2.56836c1.50879,0,2.13867,1.17871,2.13867,2.29785
		C72.03516,44.73438,72.02539,44.9043,72.00488,45.02441z M68.39746,44.44434h2.97852c0-0.02051-0.01074-0.07031-0.01074-0.16016
		c-0.0498-0.7998-0.55957-1.40918-1.46875-1.40918C69.00684,42.875,68.45703,43.5752,68.39746,44.44434z"/>
	<path d="M77.35547,44.28418v3.01855h-0.68945V44.4541c0-1.05957-0.33984-1.54883-1.08008-1.54883
		c-0.92969,0-1.46875,0.7998-1.46875,2.18848v2.20898h-0.68945V42.375h0.68945v0.71973
		c0.31934-0.49902,0.91895-0.79883,1.62891-0.79883C76.80566,42.2959,77.35547,42.97559,77.35547,44.28418z"/>
	<path d="M82.95508,45.02441h-3.6084c0.02051,1.0791,0.62012,1.72852,1.58984,1.72852c0.53906,0,0.96875-0.13965,1.41895-0.61914
		l0.47949,0.41895c-0.5791,0.61035-1.14941,0.83008-1.90918,0.83008c-1.49902,0-2.26855-1.11914-2.26855-2.51855
		c0-1.38965,0.75977-2.56836,2.18945-2.56836c1.50879,0,2.13867,1.17871,2.13867,2.29785
		C82.98535,44.73438,82.97461,44.9043,82.95508,45.02441z M79.34668,44.44434h2.97852c0-0.02051-0.00977-0.07031-0.00977-0.16016
		c-0.0498-0.7998-0.55957-1.40918-1.46875-1.40918C79.95703,42.875,79.40723,43.5752,79.34668,44.44434z"/>
	<path d="M88.30566,44.28418v3.01855h-0.68945V44.4541c0-1.05957-0.33984-1.54883-1.08008-1.54883
		c-0.92969,0-1.46875,0.7998-1.46875,2.18848v2.20898h-0.68945V42.375h0.68945v0.71973
		c0.31934-0.49902,0.91895-0.79883,1.62891-0.79883C87.75586,42.2959,88.30566,42.97559,88.30566,44.28418z"/>
	<path d="M93.56543,42.9248l-3.20801,3.78809h3.18848v0.58984h-4.09863v-0.5l3.27832-3.83789h-3.1084V42.375h3.94824V42.9248z"/>
	<path d="M98.54492,44.23438v3.06836h-0.62988L97.875,46.54297c-0.38965,0.5498-0.98926,0.83984-1.76855,0.83984
		c-1.06934,0-1.69922-0.55957-1.69922-1.50977c0-0.49902,0.2002-0.87891,0.55957-1.09863
		c0.37988-0.21973,0.91016-0.31055,1.87891-0.31055h1.00977v-0.22949c0-0.85938-0.4502-1.3291-1.2793-1.3291
		c-0.62012,0-1.09961,0.26953-1.49902,0.81934l-0.5-0.41992c0.5293-0.68945,1.16895-1.00879,2.00879-1.00879
		C97.8252,42.2959,98.54492,43.00488,98.54492,44.23438z M97.85547,45.09375v-0.06934h-0.94922
		c-0.91016,0-1.2998,0.05957-1.53906,0.24902c-0.18066,0.14062-0.27051,0.36035-0.27051,0.63965
		c0,0.5498,0.46973,0.90039,1.20996,0.90039C97.25586,46.81348,97.85547,46.14355,97.85547,45.09375z"/>
	<path d="M106.625,44.23438v3.06836h-0.62988l-0.04004-0.75977c-0.38965,0.5498-0.98926,0.83984-1.76855,0.83984
		c-1.06934,0-1.69922-0.55957-1.69922-1.50977c0-0.49902,0.2002-0.87891,0.55957-1.09863
		c0.37988-0.21973,0.91016-0.31055,1.87891-0.31055h1.00977v-0.22949c0-0.85938-0.4502-1.3291-1.2793-1.3291
		c-0.62012,0-1.09961,0.26953-1.49902,0.81934l-0.5-0.41992c0.5293-0.68945,1.16895-1.00879,2.00879-1.00879
		C105.90527,42.2959,106.625,43.00488,106.625,44.23438z M105.93555,45.09375v-0.06934h-0.94922
		c-0.91016,0-1.2998,0.05957-1.53906,0.24902c-0.18066,0.14062-0.27051,0.36035-0.27051,0.63965
		c0,0.5498,0.46973,0.90039,1.20996,0.90039C105.33594,46.81348,105.93555,46.14355,105.93555,45.09375z"/>
</g>
<g enable-background="new    ">
	<path d="M40.63525,55.375v4.92773H39.9458v-0.70996c-0.3501,0.53027-0.97949,0.79004-1.62939,0.79004
		c-1.11914,0-1.60889-0.76953-1.60889-1.98926V55.375h0.68945v2.84863c0,0.7998,0.14014,1.5498,1.07959,1.5498
		c0.97949,0,1.46924-0.84961,1.46924-2.12891V55.375H40.63525z"/>
	<path d="M46.38525,57.28418v3.01855H45.6958V57.4541c0-1.05957-0.33984-1.54883-1.07959-1.54883
		c-0.92969,0-1.46924,0.7998-1.46924,2.18848v2.20898h-0.68945V55.375h0.68945v0.71973
		c0.31982-0.49902,0.91943-0.79883,1.62891-0.79883C45.83545,55.2959,46.38525,55.97559,46.38525,57.28418z"/>
	<path d="M47.65723,57.83398c0-1.45898,0.94971-2.53809,2.35889-2.53809c1.39941,0,2.36865,1.0791,2.36865,2.53809
		c0,1.44922-0.95947,2.54883-2.36865,2.54883S47.65723,59.29297,47.65723,57.83398z M51.69531,57.83398
		c0-1.11914-0.62988-1.92871-1.6792-1.92871c-1.05957,0-1.66895,0.81934-1.66895,1.92871c0,1.11914,0.61963,1.93945,1.66895,1.93945
		C51.07568,59.77344,51.69531,58.93359,51.69531,57.83398z"/>
	<path d="M55.97754,59.09375l0.57959-0.25977c0.17969,0.50977,0.65967,0.93945,1.4292,0.93945
		c0.66943,0,1.09961-0.33008,1.09961-0.84961c0-1.30957-2.83887-0.49023-2.83887-2.23926c0-0.85938,0.69971-1.38867,1.68945-1.38867
		c0.78955,0,1.4292,0.3291,1.76904,1.0293l-0.5498,0.2998c-0.23975-0.44043-0.62988-0.71973-1.23926-0.71973
		c-0.60986,0-0.99951,0.25-0.99951,0.67969c0,1.16895,2.84814,0.42969,2.84814,2.29883c0,0.99902-0.81934,1.49902-1.76904,1.49902
		C57.02686,60.38281,56.2373,59.88281,55.97754,59.09375z"/>
	<path d="M63.21582,60.25293c-0.25977,0.08008-0.51953,0.12988-0.74902,0.12988c-0.66016,0-1.13965-0.37012-1.13965-1.23926
		v-3.18848h-0.81982V55.375h0.81982v-1.37891l0.68945-0.51953V55.375h1.18945v0.58008H62.0166v3.09863
		c0,0.47949,0.21973,0.69922,0.60938,0.69922c0.16992,0,0.36035-0.04004,0.58008-0.10938L63.21582,60.25293z"/>
	<path d="M68.375,58.02441h-3.6084c0.02051,1.0791,0.62012,1.72852,1.58984,1.72852c0.53906,0,0.96875-0.13965,1.41895-0.61914
		l0.47949,0.41895c-0.5791,0.61035-1.14941,0.83008-1.90918,0.83008c-1.49902,0-2.26855-1.11914-2.26855-2.51855
		c0-1.38965,0.75977-2.56836,2.18945-2.56836c1.50879,0,2.13867,1.17871,2.13867,2.29785
		C68.40527,57.73438,68.39453,57.9043,68.375,58.02441z M64.7666,57.44434h2.97852c0-0.02051-0.00977-0.07031-0.00977-0.16016
		c-0.0498-0.7998-0.55957-1.40918-1.46875-1.40918C65.37695,55.875,64.82715,56.5752,64.7666,57.44434z"/>
	<path d="M69.26758,59.09375l0.58008-0.25977c0.17969,0.50977,0.65918,0.93945,1.42871,0.93945
		c0.66992,0,1.09961-0.33008,1.09961-0.84961c0-1.30957-2.83887-0.49023-2.83887-2.23926c0-0.85938,0.7002-1.38867,1.68945-1.38867
		c0.79004,0,1.42969,0.3291,1.76953,1.0293l-0.5498,0.2998c-0.24023-0.44043-0.62988-0.71973-1.23926-0.71973
		c-0.61035,0-1,0.25-1,0.67969c0,1.16895,2.84863,0.42969,2.84863,2.29883c0,0.99902-0.81934,1.49902-1.76953,1.49902
		C70.31738,60.38281,69.52734,59.88281,69.26758,59.09375z"/>
	<path d="M73.92773,59.09375l0.5791-0.25977c0.17969,0.50977,0.66016,0.93945,1.42969,0.93945
		c0.66895,0,1.09961-0.33008,1.09961-0.84961c0-1.30957-2.83887-0.49023-2.83887-2.23926c0-0.85938,0.69922-1.38867,1.68945-1.38867
		c0.78906,0,1.42871,0.3291,1.76855,1.0293l-0.5498,0.2998c-0.23926-0.44043-0.62988-0.71973-1.23926-0.71973
		s-0.99902,0.25-0.99902,0.67969c0,1.16895,2.84766,0.42969,2.84766,2.29883c0,0.99902-0.81934,1.49902-1.76855,1.49902
		C74.97656,60.38281,74.1875,59.88281,73.92773,59.09375z"/>
	<path d="M78.63672,57.83398c0-1.45898,0.9502-2.53809,2.35938-2.53809c1.39941,0,2.36816,1.0791,2.36816,2.53809
		c0,1.44922-0.95898,2.54883-2.36816,2.54883S78.63672,59.29297,78.63672,57.83398z M82.6748,57.83398
		c0-1.11914-0.62988-1.92871-1.67871-1.92871c-1.05957,0-1.66895,0.81934-1.66895,1.92871
		c0,1.11914,0.61914,1.93945,1.66895,1.93945C82.05566,59.77344,82.6748,58.93359,82.6748,57.83398z"/>
	<path d="M86.77734,55.375h0.75l1.54883,4.04785l1.55859-4.04785h0.75977l-2.01855,4.92773h-0.58984L86.77734,55.375z"/>
	<path d="M91.92676,57.83398c0-1.45898,0.9502-2.53809,2.35938-2.53809c1.39941,0,2.36816,1.0791,2.36816,2.53809
		c0,1.44922-0.95898,2.54883-2.36816,2.54883S91.92676,59.29297,91.92676,57.83398z M95.96484,57.83398
		c0-1.11914-0.62988-1.92871-1.67871-1.92871c-1.05957,0-1.66895,0.81934-1.66895,1.92871
		c0,1.11914,0.61914,1.93945,1.66895,1.93945C95.3457,59.77344,95.96484,58.93359,95.96484,57.83398z"/>
	<path d="M98.00684,59.2334v-5.89648h0.68945v5.85645c0,0.33984,0.12012,0.55957,0.4502,0.55957
		c0.14941,0,0.31934-0.04004,0.46973-0.08984l0.00977,0.58984c-0.20996,0.06934-0.45996,0.12988-0.67969,0.12988
		C98.37695,60.38281,98.00684,60.00293,98.00684,59.2334z"/>
	<path d="M104.50488,55.375v4.92773h-0.68945v-0.70996c-0.35059,0.53027-0.97949,0.79004-1.62988,0.79004
		c-1.11914,0-1.6084-0.76953-1.6084-1.98926V55.375h0.68945v2.84863c0,0.7998,0.13965,1.5498,1.0791,1.5498
		c0.97949,0,1.46973-0.84961,1.46973-2.12891V55.375H104.50488z"/>
	<path d="M113.08301,57.22461v3.07812h-0.68945v-2.88867c0-0.41992,0-1.50879-1.0791-1.50879c-1,0-1.26953,0.91895-1.26953,2.02832
		v2.36914h-0.68945V57.4541c0-0.81934-0.25-1.54883-1.10938-1.54883c-0.95996,0-1.22949,0.90918-1.22949,2.02832v2.36914h-0.68945
		l-0.01074-4.92773h0.66992v0.60059c0.30957-0.49023,0.80957-0.67969,1.35938-0.67969c0.68945,0,1.19922,0.2998,1.44922,0.94922
		c0.31934-0.62988,0.86914-0.94922,1.61914-0.94922C112.59375,55.2959,113.08301,56.0752,113.08301,57.22461z"/>
	<path d="M118.68457,58.02441h-3.6084c0.02051,1.0791,0.62012,1.72852,1.58984,1.72852c0.53906,0,0.96875-0.13965,1.41895-0.61914
		l0.47949,0.41895c-0.5791,0.61035-1.14941,0.83008-1.90918,0.83008c-1.49902,0-2.26855-1.11914-2.26855-2.51855
		c0-1.38965,0.75977-2.56836,2.18945-2.56836c1.50879,0,2.13867,1.17871,2.13867,2.29785
		C118.71484,57.73438,118.7041,57.9043,118.68457,58.02441z M115.07617,57.44434h2.97852c0-0.02051-0.00977-0.07031-0.00977-0.16016
		c-0.0498-0.7998-0.55957-1.40918-1.46875-1.40918C115.68652,55.875,115.13672,56.5752,115.07617,57.44434z"/>
</g>
<g enable-background="new    ">
	<path d="M61.93066,11.71875c0-2.23926,1.20996-3.56836,3.21777-3.56836c1.39941,0,2.37891,0.63965,2.86914,1.90918l-0.66016,0.25
		c-0.36914-1-1.10938-1.47949-2.20898-1.47949c-1.59863,0-2.50781,1.04004-2.50781,2.88867
		c0,1.85938,0.89844,2.91797,2.45801,2.91797c1.08984,0,1.86914-0.50977,2.25879-1.50879l0.67969,0.25
		c-0.51953,1.26953-1.54883,1.93848-2.93848,1.93848C63.12012,15.31641,61.93066,13.96777,61.93066,11.71875z"/>
	<path d="M72.29883,10.41992l-0.33984,0.55957c-0.23047-0.10059-0.43945-0.15039-0.65039-0.15039
		c-0.75977,0-1.31836,0.56934-1.31836,1.63965v2.74805h-0.68945v-4.92773h0.68945v0.74023
		c0.35938-0.64941,0.95898-0.81934,1.45898-0.81934C71.74902,10.20996,72.0293,10.26953,72.29883,10.41992z"/>
	<path d="M72.44043,12.74805c0-1.45898,0.9502-2.53809,2.3584-2.53809c1.40039,0,2.36914,1.0791,2.36914,2.53809
		c0,1.44922-0.95898,2.54883-2.36914,2.54883C73.39062,15.29688,72.44043,14.20703,72.44043,12.74805z M76.47852,12.74805
		c0-1.11914-0.62988-1.92871-1.67969-1.92871c-1.05859,0-1.66797,0.81934-1.66797,1.92871
		c0,1.11914,0.61914,1.93945,1.66797,1.93945C75.85938,14.6875,76.47852,13.84766,76.47852,12.74805z"/>
	<path d="M82.48828,12.19824v3.01855h-0.68945v-2.84863c0-1.05957-0.33984-1.54883-1.08008-1.54883
		c-0.92969,0-1.46875,0.7998-1.46875,2.18848v2.20898h-0.68945v-4.92773H79.25v0.71973
		c0.32031-0.49902,0.91992-0.79883,1.62891-0.79883C81.93848,10.20996,82.48828,10.88965,82.48828,12.19824z"/>
	<path d="M83.76074,12.74805c0-1.45898,0.94922-2.53809,2.3584-2.53809c1.39941,0,2.36914,1.0791,2.36914,2.53809
		c0,1.44922-0.95996,2.54883-2.36914,2.54883S83.76074,14.20703,83.76074,12.74805z M87.79883,12.74805
		c0-1.11914-0.63086-1.92871-1.67969-1.92871c-1.05957,0-1.66895,0.81934-1.66895,1.92871
		c0,1.11914,0.62012,1.93945,1.66895,1.93945C87.17871,14.6875,87.79883,13.84766,87.79883,12.74805z"/>
	<path d="M89.83984,14.14746V8.25098h0.68945v5.85645c0,0.33984,0.12012,0.55957,0.44922,0.55957
		c0.15039,0,0.32031-0.04004,0.4707-0.08984l0.00977,0.58984c-0.20996,0.06934-0.45996,0.12988-0.67969,0.12988
		C90.20898,15.29688,89.83984,14.91699,89.83984,14.14746z"/>
	<path d="M92.15039,12.74805c0-1.45898,0.94922-2.53809,2.3584-2.53809c1.39941,0,2.36816,1.0791,2.36816,2.53809
		c0,1.44922-0.95898,2.54883-2.36816,2.54883S92.15039,14.20703,92.15039,12.74805z M96.1875,12.74805
		c0-1.11914-0.62891-1.92871-1.67871-1.92871c-1.05957,0-1.66895,0.81934-1.66895,1.92871
		c0,1.11914,0.61914,1.93945,1.66895,1.93945C95.56836,14.6875,96.1875,13.84766,96.1875,12.74805z"/>
	<path d="M102.10742,15.97656c0,0.92969-0.86914,1.35938-2.1084,1.35938c-1.36914,0-2.19824-0.54004-2.19824-1.51953
		c0-0.09961,0.00977-0.16016,0.01953-0.21973l0.79883-0.67969c-0.37891-0.16992-0.63867-0.4502-0.63867-0.93945
		c0-0.39941,0.17969-0.69922,0.5293-0.93945c-0.25977-0.2998-0.41992-0.67969-0.41992-1.11914c0-1,0.82031-1.70898,1.87891-1.70898
		c0.48047,0,0.91016,0.14941,1.22949,0.39941l0.67969-0.58984l0.36035,0.4502l-0.66992,0.55957
		c0.16992,0.26953,0.26953,0.5791,0.26953,0.92969c0,1.00879-0.81934,1.67871-1.85938,1.67871
		c-0.37891,0-0.72852-0.08984-1.01953-0.25c-0.19922,0.11035-0.31934,0.29004-0.31934,0.5c0,0.5,0.62012,0.61914,1.3291,0.72949
		C100.94824,14.7666,102.10742,14.90723,102.10742,15.97656z M101.41797,16.03613c0-0.59961-0.7793-0.68945-1.59961-0.81934
		c-0.21875-0.03027-0.44922-0.07031-0.65918-0.12012l-0.66895,0.64941c-0.01074,0.05078-0.01074,0.07031-0.01074,0.09082
		c0,0.69922,0.70996,0.91895,1.5498,0.91895C100.89844,16.75586,101.41797,16.51562,101.41797,16.03613z M98.76953,11.93848
		c0,0.63965,0.45996,1.12988,1.19922,1.12988c0.74023,0,1.17969-0.48047,1.17969-1.12988c0-0.67969-0.45996-1.14941-1.16992-1.14941
		C99.2793,10.78906,98.76953,11.25879,98.76953,11.93848z"/>
	<path d="M103.41992,8.25098h0.79883v1.01953h-0.79883V8.25098z M103.48047,10.28906h0.68945v4.92773h-0.68945V10.28906z"/>
	<path d="M109.6582,12.14844v3.06836h-0.63086l-0.03906-0.75977c-0.39062,0.5498-0.99023,0.83984-1.76953,0.83984
		c-1.06934,0-1.69922-0.55957-1.69922-1.50977c0-0.49902,0.2002-0.87891,0.56055-1.09863
		c0.37891-0.21973,0.90918-0.31055,1.87891-0.31055h1.00879v-0.22949c0-0.85938-0.4502-1.3291-1.2793-1.3291
		c-0.62012,0-1.09863,0.26953-1.49902,0.81934l-0.5-0.41992c0.5293-0.68945,1.16992-1.00879,2.00977-1.00879
		C108.9375,10.20996,109.6582,10.91895,109.6582,12.14844z M108.96777,13.00781v-0.06934h-0.94922
		c-0.90918,0-1.2998,0.05957-1.53906,0.24902c-0.18066,0.14062-0.27051,0.36035-0.27051,0.63965
		c0,0.5498,0.4707,0.90039,1.20996,0.90039C108.36816,14.72754,108.96777,14.05762,108.96777,13.00781z"/>
</g>
</svg>
