<?xml version="1.0" encoding="utf-8"?>
<!-- Generator: Adobe Illustrator 25.0.0, SVG Export Plug-In . SVG Version: 6.00 Build 0)  -->
<svg version="1.1" id="Livello_1" xmlns="http://www.w3.org/2000/svg" xmlns:xlink="http://www.w3.org/1999/xlink" x="0px" y="0px"
	 viewBox="0 0 145 82.4" enable-background="new 0 0 145 82.4" xml:space="preserve">
<g id="Group-3-2" transform="translate(77.309 129.497) rotate(-90)">
	<path id="Path-6-2" fill="none" stroke="#444444" stroke-width="0.25" stroke-dasharray="1.9,1.9" d="M103.5,8.1H92.7"/>
</g>
<g id="Group-3-2-2" transform="translate(170.122 95.753) rotate(-137)">
	<path id="Path-6-2-2" fill="none" stroke="#444444" stroke-width="0.3045" stroke-dasharray="2.3142,2.3142" d="
		M147.40001-24.29993l-43.1,7.09998"/>
</g>
<g id="Group-3-2-3" transform="translate(19.415 129.496) rotate(-90)">
	<path id="Path-6-2-3" fill="none" stroke="#444444" stroke-width="0.25" stroke-dasharray="1.9,1.9" d="M115.5,8.1H92.7"/>
</g>
<path id="Path_89" fill="none" stroke="#5151FC" stroke-width="2.684" stroke-linejoin="round" d="M23.3,36.3L23.3,36.3"/>
<path id="Path_89-2" fill="none" stroke="#CCCCCC" stroke-width="2.76" stroke-miterlimit="10" d="M23.3,81.1
	C10.9,81,0.9,71,0.9,58.7"/>
<path id="Path_89-3" fill="none" stroke="#CCCCCC" stroke-width="2.76" stroke-miterlimit="10" d="M0.9,58.7
	c0-12.3,10-22.3,22.4-22.4"/>
<path id="Path_90" fill="none" stroke="#CCCCCC" stroke-width="2.76" stroke-miterlimit="10" d="M45.6,58.7
	c0,12.3-10,22.3-22.4,22.4"/>
<path id="Path_90-2" fill="none" stroke="#FF3366" stroke-width="2.76" stroke-miterlimit="10" d="M23.3,36.3"/>
<path id="Path_90-3" fill="none" stroke="#00CCCC" stroke-width="2.76" stroke-miterlimit="10" d="M23.3,36.3
	c12.3,0,22.3,10,22.4,22.4"/>
<path id="Path_89-4" fill="none" stroke="#CCCCCC" stroke-width="2.76" stroke-miterlimit="10" d="M78.2,81.1
	c-12.3,0-22.3-10-22.4-22.4"/>
<path id="Path_89-5" fill="none" stroke="#CCCCCC" stroke-width="2.76" stroke-miterlimit="10" d="M55.9,58.7
	c0-12.3,10-22.3,22.4-22.4"/>
<path id="Path_90-4" fill="none" stroke="#CCCCCC" stroke-width="2.76" stroke-miterlimit="10" d="M100.6,58.7
	c0,12.3-10,22.3-22.4,22.4"/>
<path id="Path_90-5" fill="none" stroke="#CCCCCC" stroke-width="2.76" stroke-miterlimit="10" d="M97.5,47.3
	c2.1,3.4,3.1,7.4,3.1,11.4"/>
<path id="Path_90-6" fill="none" stroke="#CCCCCC" stroke-width="2.76" stroke-miterlimit="10" d="M93.6,42.5
	c1.5,1.4,2.8,3.1,3.9,4.8"/>
<path id="Path_90-7" fill="none" stroke="#000000" stroke-width="2.76" stroke-miterlimit="10" d="M78.2,36.3c3.5,0,7,0.8,10.2,2.4"
	/>
<path id="Path_90-8" fill="none" stroke="#CCCCCC" stroke-width="2.76" stroke-miterlimit="10" d="M88.4,38.8c1.9,1,3.6,2.2,5.2,3.7
	"/>
<g>
	<path d="M27.60254,3.1333h0.70898v6.30664h3.17871v0.65967h-3.8877V3.1333z"/>
	<path d="M32.68262,3.1333h0.7998v1.01953h-0.7998V3.1333z M32.74219,5.17236h0.68945v4.92725h-0.68945V5.17236z"/>
	<path d="M34.72266,8.89014l0.58008-0.25977c0.17969,0.50977,0.65918,0.93945,1.42871,0.93945
		c0.66992,0,1.09961-0.32959,1.09961-0.84961c0-1.30908-2.83887-0.48975-2.83887-2.23877c0-0.85938,0.7002-1.38916,1.68945-1.38916
		c0.78906,0,1.42871,0.33008,1.76855,1.0293l-0.5498,0.2998c-0.23926-0.43945-0.62891-0.71924-1.23926-0.71924
		c-0.60938,0-0.99902,0.24951-0.99902,0.67969c0,1.16895,2.84863,0.42969,2.84863,2.29834
		c0,0.99951-0.81934,1.49951-1.76953,1.49951C35.77246,10.17969,34.98242,9.67969,34.72266,8.89014z"/>
	<path d="M41.96094,10.0498c-0.25977,0.07959-0.51953,0.12988-0.74902,0.12988c-0.66016,0-1.13965-0.37012-1.13965-1.23926V5.75195
		h-0.81934V5.17236h0.81934V3.79297l0.68945-0.51953v1.89893h1.18945v0.57959h-1.18945V8.8501
		c0,0.47998,0.21973,0.69971,0.61035,0.69971c0.16992,0,0.35938-0.04004,0.5791-0.10986L41.96094,10.0498z"/>
	<path d="M42.79199,8.89014l0.5791-0.25977c0.18066,0.50977,0.66016,0.93945,1.42969,0.93945
		c0.66992,0,1.09961-0.32959,1.09961-0.84961c0-1.30908-2.83887-0.48975-2.83887-2.23877c0-0.85938,0.7002-1.38916,1.68945-1.38916
		c0.78906,0,1.42871,0.33008,1.76855,1.0293l-0.5498,0.2998c-0.23926-0.43945-0.62891-0.71924-1.23926-0.71924
		c-0.60938,0-0.99902,0.24951-0.99902,0.67969c0,1.16895,2.84863,0.42969,2.84863,2.29834
		c0,0.99951-0.81934,1.49951-1.76953,1.49951C43.8418,10.17969,43.05176,9.67969,42.79199,8.89014z"/>
</g>
<g>
	<path d="M80.33984,3.23389h0.70898v6.30664h3.17871v0.65967h-3.8877V3.23389z"/>
	<path d="M89.32812,7.92139h-3.6084c0.02051,1.07959,0.62012,1.729,1.58887,1.729c0.54004,0,0.96973-0.13965,1.41992-0.61963
		l0.47949,0.41992c-0.58008,0.60938-1.14941,0.82959-1.90918,0.82959c-1.49902,0-2.26855-1.11963-2.26855-2.51855
		c0-1.38965,0.75977-2.56885,2.18848-2.56885c1.50977,0,2.13867,1.1792,2.13867,2.29883
		C89.35742,7.63184,89.34766,7.80127,89.32812,7.92139z M85.71973,7.3418h2.97852c0-0.02002-0.00977-0.06982-0.00977-0.16016
		c-0.0498-0.79932-0.55957-1.40918-1.46973-1.40918C86.3291,5.77246,85.78027,6.47217,85.71973,7.3418z"/>
	<path d="M90.21973,8.99072l0.58008-0.25977c0.17969,0.50977,0.65918,0.93945,1.42871,0.93945
		c0.66992,0,1.09961-0.32959,1.09961-0.84961c0-1.30908-2.83887-0.48975-2.83887-2.23877c0-0.85938,0.7002-1.38916,1.68945-1.38916
		c0.78906,0,1.42871,0.33008,1.76855,1.0293l-0.5498,0.2998c-0.23926-0.43945-0.62891-0.71924-1.23926-0.71924
		c-0.60938,0-0.99902,0.24951-0.99902,0.67969c0,1.16895,2.84863,0.42969,2.84863,2.29834
		c0,0.99951-0.81934,1.49951-1.76953,1.49951C91.26953,10.28027,90.47949,9.78027,90.21973,8.99072z"/>
	<path d="M94.87988,8.99072l0.58008-0.25977c0.17969,0.50977,0.65918,0.93945,1.42871,0.93945
		c0.66992,0,1.09961-0.32959,1.09961-0.84961c0-1.30908-2.83887-0.48975-2.83887-2.23877c0-0.85938,0.7002-1.38916,1.68945-1.38916
		c0.78906,0,1.42871,0.33008,1.76855,1.0293l-0.5498,0.2998c-0.23926-0.43945-0.62891-0.71924-1.23926-0.71924
		c-0.60938,0-0.99902,0.24951-0.99902,0.67969c0,1.16895,2.84863,0.42969,2.84863,2.29834
		c0,0.99951-0.81934,1.49951-1.76953,1.49951C95.92969,10.28027,95.13965,9.78027,94.87988,8.99072z"/>
	<path d="M104.84766,10.15039c-0.25977,0.07959-0.51953,0.12988-0.74902,0.12988c-0.66016,0-1.13965-0.37012-1.13965-1.23926
		V5.85254h-0.81934V5.27295h0.81934V3.89355l0.68945-0.51953v1.89893h1.18945v0.57959h-1.18945v3.09814
		c0,0.47998,0.21973,0.69971,0.61035,0.69971c0.16992,0,0.35938-0.04004,0.5791-0.10986L104.84766,10.15039z"/>
	<path d="M110.08691,7.18164v3.01855h-0.68945V7.35156c0-1.06934-0.33984-1.54883-1.0791-1.54883
		c-0.93945,0-1.46973,0.76953-1.46973,2.12891v2.26855h-0.68945V3.23389h0.68945v2.75879c0.32031-0.5,0.91992-0.7998,1.62988-0.7998
		C109.53809,5.19287,110.08691,5.87256,110.08691,7.18164z"/>
	<path d="M115.45703,7.13184v3.06836h-0.62891l-0.04004-0.75977c-0.39062,0.5498-0.99023,0.83984-1.76953,0.83984
		c-1.06934,0-1.69922-0.56006-1.69922-1.50928c0-0.49951,0.2002-0.87939,0.55957-1.09961
		c0.37988-0.21973,0.91016-0.30957,1.87988-0.30957h1.00879V7.13184c0-0.85938-0.44922-1.3291-1.2793-1.3291
		c-0.61914,0-1.09961,0.26953-1.49902,0.81934l-0.5-0.41943c0.53027-0.68994,1.16992-1.00977,2.00879-1.00977
		C114.7373,5.19287,115.45703,5.90234,115.45703,7.13184z M114.76758,7.99121V7.92139h-0.94922
		c-0.90918,0-1.2998,0.06006-1.53906,0.25c-0.17969,0.13965-0.27051,0.35986-0.27051,0.63965
		c0,0.5498,0.4707,0.89941,1.20996,0.89941C114.16797,9.71045,114.76758,9.04102,114.76758,7.99121z"/>
	<path d="M121.06641,7.18164v3.01855h-0.68945V7.35156c0-1.05908-0.33984-1.54883-1.0791-1.54883
		c-0.92969,0-1.46875,0.79932-1.46875,2.18848v2.20898h-0.69043V5.27295h0.69043v0.71973c0.31934-0.5,0.91895-0.7998,1.62891-0.7998
		C120.51758,5.19287,121.06641,5.87256,121.06641,7.18164z"/>
	<path d="M129.81738,7.84131c0,1.31934-1.03027,2.43896-2.41895,2.43896c-1.25977,0-2.16895-0.88965-2.36914-2.00879
		l0.67969-0.11035c0.15039,0.83984,0.78027,1.45947,1.68945,1.45947c1.0293,0,1.68848-0.82959,1.68848-1.7793
		c0-0.91943-0.59961-1.65869-1.6084-1.65869c-0.66992,0-1.17969,0.32959-1.5293,0.83936l-0.7002-0.18994l0.62988-3.59814h3.6084
		v0.65967h-3.03809l-0.40039,2.25879c0.46973-0.43945,1-0.60938,1.50977-0.60938
		C128.86719,5.54297,129.81738,6.56201,129.81738,7.84131z"/>
	<path d="M130.95898,4.7334c0-0.78955,0.44043-1.5791,1.2998-1.5791c0.76953,0,1.31934,0.6792,1.31934,1.58887
		c0,0.88965-0.54004,1.55908-1.28906,1.55908C131.40918,6.30225,130.95898,5.52295,130.95898,4.7334z M133.09863,4.74316
		c0-0.59961-0.2998-1.10938-0.83984-1.10938c-0.58008,0-0.81934,0.55957-0.81934,1.09961c0,0.53955,0.25,1.08936,0.84961,1.08936
		C132.75879,5.82275,133.09863,5.37305,133.09863,4.74316z M135.75684,3.23389h0.5l-3.92773,6.96631h-0.50977L135.75684,3.23389z
		 M134.50781,8.70117c0-0.77979,0.43945-1.56934,1.29883-1.56934c0.76953,0,1.31934,0.67969,1.31934,1.5791
		s-0.54004,1.56934-1.28906,1.56934C134.94727,10.28027,134.50781,9.48047,134.50781,8.70117z M136.64648,8.71094
		c0-0.58936-0.29004-1.09912-0.83984-1.09912c-0.56934,0-0.81934,0.54932-0.81934,1.08936c0,0.53955,0.25,1.09912,0.84961,1.09912
		C136.31641,9.80029,136.64648,9.34082,136.64648,8.71094z"/>
	<path d="M84.61719,19.73145c0,1.46924-0.75,2.54883-2.18848,2.54883c-0.71973,0-1.26953-0.27979-1.62891-0.73975v2.69873h-0.69043
		v-6.96631h0.69043v0.65967c0.36914-0.47998,0.92871-0.74951,1.62891-0.74951
		C83.79785,17.18311,84.61719,18.19238,84.61719,19.73145z M83.92773,19.73145c0-1.16943-0.59961-1.93896-1.59961-1.93896
		c-0.98926,0-1.58887,0.76953-1.58887,1.93896c0,1.11963,0.5498,1.93896,1.58887,1.93896
		C83.37793,21.67041,83.92773,20.85107,83.92773,19.73145z"/>
	<path d="M89.04785,17.40283l-0.33984,0.55957c-0.23047-0.09961-0.44043-0.1499-0.65039-0.1499
		c-0.75879,0-1.31836,0.56982-1.31836,1.63916v2.74854h-0.69043v-4.92725h0.69043v0.73975
		c0.35938-0.6499,0.95898-0.81982,1.45898-0.81982C88.49805,17.19287,88.77734,17.25293,89.04785,17.40283z"/>
	<path d="M93.51758,19.92139h-3.6084c0.02051,1.07959,0.62012,1.729,1.58887,1.729c0.54004,0,0.96973-0.13965,1.41992-0.61963
		l0.47949,0.41992c-0.58008,0.60938-1.14941,0.82959-1.90918,0.82959c-1.49902,0-2.26855-1.11963-2.26855-2.51855
		c0-1.38965,0.75977-2.56885,2.18848-2.56885c1.50977,0,2.13867,1.1792,2.13867,2.29883
		C93.54688,19.63184,93.53711,19.80127,93.51758,19.92139z M89.90918,19.3418h2.97852c0-0.02002-0.00977-0.06982-0.00977-0.16016
		c-0.0498-0.79932-0.55957-1.40918-1.46973-1.40918C90.51855,17.77246,89.96973,18.47217,89.90918,19.3418z"/>
	<path d="M94.41016,20.99072l0.5791-0.25977c0.18066,0.50977,0.66016,0.93945,1.42969,0.93945
		c0.66992,0,1.09961-0.32959,1.09961-0.84961c0-1.30908-2.83887-0.48975-2.83887-2.23877c0-0.85938,0.7002-1.38916,1.68945-1.38916
		c0.78906,0,1.42871,0.33008,1.76855,1.0293l-0.5498,0.2998c-0.23926-0.43945-0.62891-0.71924-1.23926-0.71924
		c-0.60938,0-0.99902,0.24951-0.99902,0.67969c0,1.16895,2.84863,0.42969,2.84863,2.29834
		c0,0.99951-0.81934,1.49951-1.76953,1.49951C95.45996,22.28027,94.66992,21.78027,94.41016,20.99072z"/>
	<path d="M103.44727,19.92139h-3.6084c0.02051,1.07959,0.62012,1.729,1.58887,1.729c0.54004,0,0.96973-0.13965,1.41992-0.61963
		l0.47949,0.41992c-0.58008,0.60938-1.14941,0.82959-1.90918,0.82959c-1.49902,0-2.26855-1.11963-2.26855-2.51855
		c0-1.38965,0.75977-2.56885,2.18848-2.56885c1.50977,0,2.13867,1.1792,2.13867,2.29883
		C103.47656,19.63184,103.4668,19.80127,103.44727,19.92139z M99.83887,19.3418h2.97852c0-0.02002-0.00977-0.06982-0.00977-0.16016
		c-0.0498-0.79932-0.55957-1.40918-1.46973-1.40918C100.44824,17.77246,99.89941,18.47217,99.83887,19.3418z"/>
	<path d="M108.79688,19.18164v3.01855h-0.68945v-2.84863c0-1.05908-0.33984-1.54883-1.0791-1.54883
		c-0.92969,0-1.46875,0.79932-1.46875,2.18848v2.20898h-0.69043v-4.92725h0.69043v0.71973
		c0.31934-0.5,0.91895-0.7998,1.62891-0.7998C108.24805,17.19287,108.79688,17.87256,108.79688,19.18164z"/>
	<path d="M110.08984,19.75146c0-1.29932,0.72949-2.55859,2.21875-2.55859c0.87891,0,1.6084,0.43994,1.99902,1.35938
		l-0.66016,0.25977c-0.22949-0.62939-0.71973-1.00928-1.33887-1.00928c-1.0498,0-1.51953,0.93945-1.51953,1.94873
		c0,1.00977,0.46973,1.91895,1.5293,1.91895c0.62012,0,1.10938-0.36963,1.29883-0.99951l0.63965,0.24023
		c-0.3291,0.89941-1.04883,1.36914-1.93848,1.36914C110.88867,22.28027,110.08984,21.12061,110.08984,19.75146z"/>
	<path d="M119.42773,19.92139h-3.6084c0.02051,1.07959,0.62012,1.729,1.58887,1.729c0.54004,0,0.96973-0.13965,1.41992-0.61963
		l0.47949,0.41992c-0.58008,0.60938-1.14941,0.82959-1.90918,0.82959c-1.49902,0-2.26855-1.11963-2.26855-2.51855
		c0-1.38965,0.75977-2.56885,2.18848-2.56885c1.50977,0,2.13867,1.1792,2.13867,2.29883
		C119.45703,19.63184,119.44727,19.80127,119.42773,19.92139z M115.81934,19.3418h2.97852
		c0-0.02002-0.00977-0.06982-0.00977-0.16016c-0.0498-0.79932-0.55957-1.40918-1.46973-1.40918
		C116.42871,17.77246,115.87988,18.47217,115.81934,19.3418z"/>
</g>
</svg>
