<svg id="Layer_1" data-name="Layer 1" xmlns="http://www.w3.org/2000/svg" width="200" height="100" viewBox="0 0 200 100"><text transform="translate(65.7687 8.2599)" font-size="8" font-family="HKGrotesk-Bold, HK Grotesk" font-weight="700">100%<tspan x="-2.7207" y="8">SEN</tspan><tspan x="12.2637" y="8" letter-spacing="-0.002em">S</tspan><tspan x="16.6895" y="8">O</tspan></text><text transform="translate(0.5643 8.2599)" font-size="8" font-family="HKGrotesk-Bold, HK Grotesk" font-weight="700">100%<tspan x="-0.5645" y="8" letter-spacing="-0.0068em">C</tspan><tspan x="4.9746" y="8" letter-spacing="-0.002em">O</tspan><tspan x="10.9277" y="8" letter-spacing="-0.0142em">S</tspan><tspan x="15.2559" y="8">A</tspan></text><text transform="translate(33.1659 89.577)" font-size="8" font-family="HKGrotesk-Bold, HK Grotesk" font-weight="700">100%<tspan x="-1.7285" y="8" letter-spacing="-0.0068em">C</tspan><tspan x="3.8105" y="8">OME</tspan></text><path id="Rectangle_9797" data-name="Rectangle 9797" d="M43.3178,72.1649h0a3.906,3.906,0,0,1,3.906,3.906h0a3.906,3.906,0,0,1-3.906,3.906h0a3.906,3.906,0,0,1-3.906-3.906h0A3.906,3.906,0,0,1,43.3178,72.1649Z" fill="#f36"/><path id="Rectangle_9798" data-name="Rectangle 9798" d="M35.1208,59.1129h0a3.906,3.906,0,0,1,3.906,3.906h0a3.9059,3.9059,0,0,1-3.906,3.906h0a3.906,3.906,0,0,1-3.906-3.906h0A3.906,3.906,0,0,1,35.1208,59.1129Z" fill="#ff5d5b"/><path id="Rectangle_9799" data-name="Rectangle 9799" d="M10.5328,19.9559h0a3.906,3.906,0,0,1,3.906,3.906h0a3.906,3.906,0,0,1-3.906,3.906h0a3.906,3.906,0,0,1-3.906-3.906h0A3.906,3.906,0,0,1,10.5328,19.9559Z" fill="#ffd93b"/><path id="Rectangle_9800" data-name="Rectangle 9800" d="M26.8338,20.0239h0A3.906,3.906,0,0,1,30.74,23.93h0a3.9059,3.9059,0,0,1-3.906,3.906h0a3.906,3.906,0,0,1-3.906-3.906h0A3.906,3.906,0,0,1,26.8338,20.0239Z" fill="#c3d261"/><path id="Rectangle_9801" data-name="Rectangle 9801" d="M43.1348,20.0929h0a3.906,3.906,0,0,1,3.906,3.906h0a3.906,3.906,0,0,1-3.906,3.906h0a3.906,3.906,0,0,1-3.906-3.906h0A3.906,3.906,0,0,1,43.1348,20.0929Z" fill="#88cc87"/><path id="Rectangle_9802" data-name="Rectangle 9802" d="M59.4368,20.1609h0a3.906,3.906,0,0,1,3.906,3.906h0a3.906,3.906,0,0,1-3.906,3.906h0a3.906,3.906,0,0,1-3.906-3.906h0A3.906,3.906,0,0,1,59.4368,20.1609Z" fill="#4cc5ac"/><path id="Rectangle_9803" data-name="Rectangle 9803" d="M75.7378,20.2289h0a3.906,3.906,0,0,1,3.906,3.906h0a3.9059,3.9059,0,0,1-3.906,3.906h0a3.906,3.906,0,0,1-3.906-3.906h0A3.906,3.906,0,0,1,75.7378,20.2289Z" fill="#10bed2"/><path id="Rectangle_9804" data-name="Rectangle 9804" d="M43.3178,72.1649h0a3.906,3.906,0,0,1,3.906,3.906h0a3.906,3.906,0,0,1-3.906,3.906h0a3.906,3.906,0,0,1-3.906-3.906h0A3.906,3.906,0,0,1,43.3178,72.1649Z" fill="#f36"/><path id="Rectangle_9805" data-name="Rectangle 9805" d="M51.4228,59.1809h0a3.906,3.906,0,0,1,3.906,3.906h0a3.9059,3.9059,0,0,1-3.906,3.906h0a3.906,3.906,0,0,1-3.906-3.906h0A3.906,3.906,0,0,1,51.4228,59.1809Z" fill="#c35681"/><path id="Rectangle_9806" data-name="Rectangle 9806" d="M26.9248,46.0609h0a3.906,3.906,0,0,1,3.906,3.906h0a3.906,3.906,0,0,1-3.906,3.906h0a3.906,3.906,0,0,1-3.906-3.906h0A3.906,3.906,0,0,1,26.9248,46.0609Z" fill="#ff8651"/><path id="Rectangle_9807" data-name="Rectangle 9807" d="M43.2258,46.1289h0a3.906,3.906,0,0,1,3.906,3.906h0a3.906,3.906,0,0,1-3.906,3.906h0a3.906,3.906,0,0,1-3.906-3.906h0A3.906,3.906,0,0,1,43.2258,46.1289Z" fill="#c38077"/><path id="Rectangle_9808" data-name="Rectangle 9808" d="M59.5278,46.1969h0a3.906,3.906,0,0,1,3.906,3.906h0a3.906,3.906,0,0,1-3.906,3.906h0a3.906,3.906,0,0,1-3.906-3.906h0A3.906,3.906,0,0,1,59.5278,46.1969Z" fill="#88799c"/><path id="Rectangle_9809" data-name="Rectangle 9809" d="M18.7288,33.0089h0a3.906,3.906,0,0,1,3.906,3.906h0a3.906,3.906,0,0,1-3.906,3.906h0a3.906,3.906,0,0,1-3.906-3.906h0A3.906,3.906,0,0,1,18.7288,33.0089Z" fill="#ffb046"/><path id="Rectangle_9810" data-name="Rectangle 9810" d="M35.03,33.0769h0a3.906,3.906,0,0,1,3.906,3.906h0a3.906,3.906,0,0,1-3.906,3.906h0a3.906,3.906,0,0,1-3.906-3.906h0A3.906,3.906,0,0,1,35.03,33.0769Z" fill="#c3a96c"/><path id="Rectangle_9811" data-name="Rectangle 9811" d="M51.3308,33.1449h0a3.906,3.906,0,0,1,3.906,3.906h0a3.906,3.906,0,0,1-3.906,3.906h0a3.906,3.906,0,0,1-3.906-3.906h0A3.906,3.906,0,0,1,51.3308,33.1449Z" fill="#88a291"/><path id="Rectangle_9812" data-name="Rectangle 9812" d="M67.6328,33.2129h0a3.906,3.906,0,0,1,3.906,3.906h0a3.906,3.906,0,0,1-3.906,3.906h0a3.906,3.906,0,0,1-3.906-3.906h0A3.906,3.906,0,0,1,67.6328,33.2129Z" fill="#4c9bb7"/><g opacity="0"><circle id="length-V009" cx="150" cy="50" r="22.5" fill="#fff" fill-opacity="0.5" stroke="#ccc" stroke-miterlimit="4.3669"/><g id="combinations-V009"><path d="M151.2158,59.4429c-.5892-.8175-1.0255-.8858-1.5055-.54a2.0467,2.0467,0,0,1-3.2159-1.3261c-.3026-1.8273-1.2145-1.9851-2.2154-1.8194a1.1208,1.1208,0,0,1-1.3019-1.1763c.0188-.3-.1648-.5384-1.2729-.6081a4.1442,4.1442,0,1,1,.52-8.2721q.1353.0084.27.0258c1.2274.1583,1.8744-.334,2.0752-1.8913a5.258,5.258,0,0,1,10.4515.1985c.1384,1.5286.7362,2.0264,1.8961,1.9215a3.99,3.99,0,0,1,1.7134,7.7265c-1.4346.5175-1.7607,1.2869-1.3086,2.54a3.4854,3.4854,0,0,1-6.1061,3.2207Z" fill="#88a291"/></g></g><g id="Path"><line x1="115.2658" y1="49.9165" x2="82.8046" y2="50.0835" fill="none" stroke="#444" stroke-width="0.5"/><polygon points="113.599 47.88 113.259 48.248 115.074 49.917 113.277 51.605 113.62 51.969 115.808 49.913 113.599 47.88" fill="#444"/></g></svg>