<svg id="Layer_1" data-name="Layer 1" xmlns="http://www.w3.org/2000/svg" width="200" height="80" viewBox="0 0 200 80"><g id="length-V009"><circle cx="22.4678" cy="22.4678" r="21.9678" fill="#fff" opacity="0.5"/><path d="M22.4677,1A21.4677,21.4677,0,1,1,1,22.4677,21.492,21.492,0,0,1,22.4677,1m0-1A22.4677,22.4677,0,1,0,44.9353,22.4677,22.4677,22.4677,0,0,0,22.4677,0Z" fill="#ccc"/></g><g id="combinations-V009"><path d="M23.6835,31.9429c-.5892-.8175-1.0255-.8858-1.5055-.54a2.0468,2.0468,0,0,1-3.216-1.3261c-.3025-1.8273-1.2145-1.9851-2.2154-1.8194a1.1212,1.1212,0,0,1-1.3019-1.1763c.0188-.3-.1647-.5384-1.2729-.6081a4.1442,4.1442,0,0,1,.52-8.2721q.1354.0084.27.0258c1.2274.1583,1.8745-.334,2.0753-1.8913a5.258,5.258,0,0,1,10.4515.1985c.1383,1.5286.7362,2.0264,1.8961,1.9215a3.99,3.99,0,0,1,1.7134,7.7265c-1.4346.5175-1.7607,1.2869-1.3086,2.54a3.4854,3.4854,0,0,1-6.1061,3.2207Z" fill="#e1b556"/></g><g id="Path"><line x1="44.3785" y1="55.031" x2="0.5" y2="55.198" fill="none" stroke="#444" stroke-width="0.5"/><rect x="44.1285" y="53.406" width="0.5" height="3.25" transform="translate(-0.2092 0.1694) rotate(-0.2181)" fill="#444"/><rect x="0.25" y="53.573" width="0.5" height="3.25" transform="translate(-0.2101 0.0023) rotate(-0.2181)" fill="#444"/></g><g id="Path-2"><line x1="66.6571" y1="33.557" x2="66.6571" y2="11.782" fill="none" stroke="#444" stroke-width="0.5"/><rect x="65.0321" y="33.307" width="3.25" height="0.5" fill="#444"/><rect x="65.0321" y="11.532" width="3.25" height="0.5" fill="#444"/></g><g id="lunghezza_opera_in_caratteri_" data-name="lunghezza opera in caratteri " style="isolation:isolate"><text transform="translate(0.0001 67.636)" font-size="10" font-family="HKGrotesk-Regular, HK Grotesk" style="isolation:isolate"><tspan letter-spacing="-0.019em">L</tspan><tspan x="4.873" y="0">unghe</tspan><tspan x="31.3477" y="0" letter-spacing="0.001em">zz</tspan><tspan x="40.4492" y="0">a ope</tspan><tspan x="64.1406" y="0" letter-spacing="0.001em">r</tspan><tspan x="68.0322" y="0">a</tspan><tspan x="0" y="12">in </tspan><tspan x="10.4883" y="12" letter-spacing="-0.0039em">c</tspan><tspan x="15.2051" y="12">a</tspan><tspan x="20.21" y="12" letter-spacing="0.001em">r</tspan><tspan x="24.1016" y="12" letter-spacing="-0.001em">a</tspan><tspan x="29.0967" y="12">t</tspan><tspan x="32.3828" y="12" letter-spacing="-0.0039em">t</tspan><tspan x="35.6299" y="12">e</tspan><tspan x="40.6982" y="12" letter-spacing="0.001em">r</tspan><tspan x="44.5898" y="12">i</tspan></text></g><text transform="translate(71.4101 20.0229)" font-size="10" font-family="HKGrotesk-Regular, HK Grotesk" style="isolation:isolate"><tspan letter-spacing="-0.001em">Q</tspan><tspan x="7.5342" y="0">uan</tspan><tspan x="23.457" y="0" letter-spacing="0.001em">t</tspan><tspan x="26.7529" y="0">i</tspan><tspan x="29.1357" y="0" letter-spacing="0.001em">t</tspan><tspan x="32.4316" y="0">à di </tspan><tspan x="50.6152" y="0" letter-spacing="-0.0039em">t</tspan><tspan x="53.8623" y="0">es</tspan><tspan x="63.1689" y="0" letter-spacing="-0.0039em">t</tspan><tspan x="66.416" y="0">o</tspan><tspan x="0" y="12" letter-spacing="-0.0039em">d</tspan><tspan x="5.4736" y="12">ubi</tspan><tspan x="18.8184" y="12" letter-spacing="0.001em">t</tspan><tspan x="22.1143" y="12" letter-spacing="-0.001em">a</tspan><tspan x="27.1094" y="12" letter-spacing="0.001em">t</tspan><tspan x="30.4053" y="12">i</tspan><tspan x="32.7881" y="12" letter-spacing="-0.0151em">v</tspan><tspan x="37.2705" y="12">o in </tspan><tspan x="55.8643" y="12" letter-spacing="-0.0039em">c</tspan><tspan x="60.5811" y="12">a</tspan><tspan x="65.5859" y="12" letter-spacing="0.001em">r</tspan><tspan x="69.4775" y="12" letter-spacing="-0.001em">a</tspan><tspan x="74.4727" y="12">t</tspan><tspan x="77.7588" y="12" letter-spacing="-0.0039em">t</tspan><tspan x="81.0059" y="12">e</tspan><tspan x="86.0742" y="12" letter-spacing="0.001em">r</tspan><tspan x="89.9658" y="12">i</tspan></text><path id="Path-4" d="M44.3785,51.3275v-28.86" fill="none" stroke="#444" stroke-width="0.25" stroke-dasharray="1.9 1.9"/><path id="Path-4-2" data-name="Path-4" d="M.5,51.3275v-28.86" fill="none" stroke="#444" stroke-width="0.25" stroke-dasharray="1.9 1.9"/><path id="Path-10" d="M22.92,11.782h40.163" fill="none" stroke="#444" stroke-width="0.25" stroke-dasharray="2.114 2.114"/><path id="Path-13" d="M26.6738,33.557H63.0831" fill="none" stroke="#444" stroke-width="0.25" stroke-dasharray="2.114 2.114"/></svg>