<svg id="Layer_1" data-name="Layer 1" xmlns="http://www.w3.org/2000/svg" width="200" height="105" viewBox="0 0 200 105"><g id="Ellipse_459" data-name="Ellipse 459"><path d="M80.396,46.2241a21.3618,21.3618,0,1,1,21.3618-21.3623A21.3863,21.3863,0,0,1,80.396,46.2241Z" fill="#fff" opacity="0.5"/><path d="M80.396,4A20.862,20.862,0,1,1,59.534,24.862,20.8856,20.8856,0,0,1,80.396,4m0-1a21.862,21.862,0,1,0,21.862,21.862A21.8621,21.8621,0,0,0,80.396,3Z" fill="#ccc"/></g><circle id="Ellipse_460" data-name="Ellipse 460" cx="80.396" cy="24.862" r="2.021" fill="#10bed2"/><circle id="Ellipse_461" data-name="Ellipse 461" cx="80.396" cy="37.9792" r="3.273" fill="#f36"/><circle id="Ellipse_462" data-name="Ellipse 462" cx="80.396" cy="11.7448" r="1.278" fill="#ffd93b"/><circle id="Ellipse_463" data-name="Ellipse 463" cx="67.2788" cy="24.862" r="3.51" fill="#10bed2"/><circle id="Ellipse_464" data-name="Ellipse 464" cx="67.2788" cy="11.7448" r="2.91" fill="#ffd93b"/><circle id="Ellipse_465" data-name="Ellipse 465" cx="67.2788" cy="37.9792" r="1.524" fill="#f36"/><circle id="Ellipse_466" data-name="Ellipse 466" cx="93.5132" cy="24.862" r="2.41" fill="#10bed2"/><circle id="Ellipse_468" data-name="Ellipse 468" cx="93.5132" cy="11.7448" r="4.758" fill="#ffd93b"/><text transform="translate(25.1413 13.803)" font-size="10" font-family="HKGrotesk-Regular, HK Grotesk" style="isolation:isolate"><tspan letter-spacing="-0.019em">C</tspan><tspan x="6.7432" y="0">o</tspan><tspan x="12.207" y="0" letter-spacing="-0.0088em">s</tspan><tspan x="16.3574" y="0">a</tspan></text><text transform="translate(46.1953 78.5048) rotate(-45)" font-size="8" font-family="HKGrotesk-Regular, HK Grotesk" style="isolation:isolate"><tspan letter-spacing="-0.001em">N</tspan><tspan x="5.5313" y="0">e</tspan><tspan x="9.5859" y="0" letter-spacing="-0.0049em">g</tspan><tspan x="13.5469" y="0">azione</tspan></text><text transform="translate(56.8153 89.86) rotate(-45)" font-size="8" font-family="HKGrotesk-Regular, HK Grotesk" style="isolation:isolate">Ri<tspan x="6.6719" y="0" letter-spacing="-0.0181em">f</tspan><tspan x="9.1758" y="0">o</tspan><tspan x="13.5469" y="0" letter-spacing="0.001em">r</tspan><tspan x="16.6602" y="0" letter-spacing="-0.0088em">m</tspan><tspan x="23.2266" y="0">u</tspan><tspan x="27.5898" y="0" letter-spacing="-0.001em">l</tspan><tspan x="29.6055" y="0">azione</tspan></text><text transform="translate(57.7519 77.9358) rotate(-45)" font-size="8" font-family="HKGrotesk-Regular, HK Grotesk" style="isolation:isolate"><tspan letter-spacing="-0.0039em">E</tspan><tspan x="4.8086" y="0">si</tspan><tspan x="10.1055" y="0" letter-spacing="0.001em">t</tspan><tspan x="12.7422" y="0">azione</tspan></text><text transform="translate(43.1347 100.5821)" font-size="8" font-family="HKGrotesk-Regular, HK Grotesk" style="isolation:isolate">MANIFE<tspan x="29.3086" y="0" letter-spacing="-0.0039em">S</tspan><tspan x="33.6133" y="0" letter-spacing="-0.0649em">T</tspan><tspan x="37.9141" y="0" letter-spacing="0.002em">A</tspan><tspan x="43.0313" y="0">ZIONI</tspan><tspan x="64.0078" y="0" letter-spacing="-0.0039em">S</tspan><tspan x="68.3125" y="0">TILI</tspan><tspan x="81.7305" y="0" letter-spacing="-0.0039em">S</tspan><tspan x="86.0352" y="0">TICHE</tspan></text><text transform="translate(25.1413 27.0031)" font-size="10" font-family="HKGrotesk-Regular, HK Grotesk" style="isolation:isolate"><tspan letter-spacing="-0.019em">C</tspan><tspan x="6.7432" y="0">ome</tspan></text><text transform="translate(13.451 81.0667) rotate(-90)" font-size="8" font-family="HKGrotesk-Regular, HK Grotesk" style="isolation:isolate">M<tspan x="6.8828" y="0" letter-spacing="-0.0269em">A</tspan><tspan x="11.7695" y="0">C</tspan><tspan x="17.3164" y="0" letter-spacing="-0.0049em">R</tspan><tspan x="22.043" y="0">O-</tspan><tspan x="31.2227" y="0" letter-spacing="-0.022em">C</tspan><tspan x="36.5938" y="0" letter-spacing="-0.0649em">A</tspan><tspan x="41.1758" y="0">T</tspan><tspan x="45.9961" y="0" letter-spacing="-0.0039em">E</tspan><tspan x="50.8047" y="0">GORIE</tspan></text><text transform="translate(25.1413 39.7487)" font-size="10" font-family="HKGrotesk-Regular, HK Grotesk" style="isolation:isolate"><tspan letter-spacing="-0.0088em">S</tspan><tspan x="5.332" y="0">en</tspan><tspan x="15.8643" y="0" letter-spacing="-0.0039em">s</tspan><tspan x="20.0635" y="0">o</tspan></text><line id="Line_612" data-name="Line 612" x1="55.3599" y1="11.7448" x2="62.2535" y2="11.7448" fill="none" stroke="#444" stroke-width="0.5"/><line id="Line_613" data-name="Line 613" x1="55.3599" y1="24.862" x2="62.2535" y2="24.862" fill="none" stroke="#444" stroke-width="0.5"/><line id="Line_614" data-name="Line 614" x1="55.2535" y1="37.9792" x2="62.1471" y2="37.9792" fill="none" stroke="#444" stroke-width="0.5"/><line id="Line_615" data-name="Line 615" x1="69.571" y1="42.129" x2="69.571" y2="49.129" fill="none" stroke="#444" stroke-width="0.5"/><line id="Line_616" data-name="Line 616" x1="80.5584" y1="42.129" x2="80.5584" y2="49.129" fill="none" stroke="#444" stroke-width="0.5"/><line id="Line_617" data-name="Line 617" x1="91.5458" y1="42.129" x2="91.5458" y2="49.129" fill="none" stroke="#444" stroke-width="0.5"/><text transform="translate(124.8104 9.556)" font-size="10" font-family="HKGrotesk-Regular, HK Grotesk"><tspan letter-spacing="-0.001em">Q</tspan><tspan x="7.5342" y="0">uan</tspan><tspan x="23.457" y="0" letter-spacing="0.001em">t</tspan><tspan x="26.7529" y="0">i</tspan><tspan x="29.1357" y="0" letter-spacing="0.001em">t</tspan><tspan x="32.4316" y="0">à</tspan><tspan x="0" y="12">in </tspan><tspan x="10.4883" y="12" letter-spacing="-0.0039em">c</tspan><tspan x="15.2051" y="12">a</tspan><tspan x="20.21" y="12" letter-spacing="0.001em">r</tspan><tspan x="24.1016" y="12" letter-spacing="-0.001em">a</tspan><tspan x="29.0967" y="12">t</tspan><tspan x="32.3828" y="12" letter-spacing="-0.0039em">t</tspan><tspan x="35.6299" y="12">e</tspan><tspan x="40.6982" y="12" letter-spacing="0.001em">r</tspan><tspan x="44.5898" y="12">i</tspan></text><g id="Path-2"><line x1="120.5038" y1="16.4403" x2="120.5038" y2="6.9243" fill="none" stroke="#444" stroke-width="0.5"/><rect x="118.8788" y="16.1903" width="3.25" height="0.5" fill="#444"/><rect x="118.8788" y="6.6743" width="3.25" height="0.5" fill="#444"/></g><path id="Path-13" d="M93.5132,16.5028h23.1512" fill="none" stroke="#444" stroke-width="0.25" stroke-dasharray="2.114 2.114"/><path id="Path-13-2" data-name="Path-13" d="M93.5132,6.9868h23.1512" fill="none" stroke="#444" stroke-width="0.25" stroke-dasharray="2.114 2.114"/></svg>