<svg id="Layer_1" data-name="Layer 1" xmlns="http://www.w3.org/2000/svg" viewBox="0 0 34 34">
  <title>glifi</title>
  <rect width="34" height="34" style="fill: #fff"/>
  <path id="romanzo-racconti-cornice" d="M5.90823,21.95764a5.9335,5.9335,0,0,1,.30268-1.523,5.8228,5.8228,0,0,1,.67561-1.36592,5.71171,5.71171,0,0,1,.98863-1.12145,5.60028,5.60028,0,0,1,1.22232-.80961,5.48942,5.48942,0,0,1,1.36353-.45444,5.379,5.379,0,0,1,1.406-.08211,5.268,5.268,0,0,1,1.35062.281,5.15689,5.15689,0,0,1,1.20508.61,5.04624,5.04624,0,0,1,.983.88365,4.93484,4.93484,0,0,1,.7031,1.08511,4.82365,4.82365,0,0,1,.38707,1.20342,4.7137,4.7137,0,0,1,.05848,1.23392,4.603,4.603,0,0,1-.25926,1.17828,4.49246,4.49246,0,0,1-.54446,1.04422,4.38123,4.38123,0,0,1-.77868.84466,4.27016,4.27016,0,0,1-.94789.59659,4.15914,4.15914,0,0,1-1.04331.3197,4.04808,4.04808,0,0,1-1.06183.03484A3.93741,3.93741,0,0,1,10.913,25.679a3.82657,3.82657,0,0,1-.88338-.47888,3.71615,3.71615,0,0,1-.70626-.6737,3.605,3.605,0,0,1-.49008-.81068,3.494,3.494,0,0,1-.25233-.8832,3.38309,3.38309,0,0,1-.01121-.88974,3.27222,3.27222,0,0,1,.21584-.8336,3.16142,3.16142,0,0,1,.4133-.72253,3.05065,3.05065,0,0,1,.56873-.56786,2.93974,2.93974,0,0,1,.67346-.38357,2.82923,2.82923,0,0,1,.7231-.185,2.7184,2.7184,0,0,1,.71765.01243,2.60748,2.60748,0,0,1,.66126.19412,2.497,2.497,0,0,1,.56167.34773,2.38643,2.38643,0,0,1,.42948.46376,2.27558,2.27558,0,0,1,.27705.53624,2.1649,2.1649,0,0,1,.1176.563,2.05454,2.05454,0,0,1-.03606.54556,1.94443,1.94443,0,0,1-.17241.48892,1.83444,1.83444,0,0,1-.28215.40083,1.72442,1.72442,0,0,1-.35878.29107,1.61475,1.61475,0,0,1-.399.17055,1.50463,1.50463,0,0,1-.40288.05023,1.39572,1.39572,0,0,1-.37348-.05969,1.28763,1.28763,0,0,1-.31658-.1507,1.17974,1.17974,0,0,1-.24-.21658,1.07315,1.07315,0,0,1-.15268-.25381.96892.96892,0,0,1-.064-.2618.86684.86684,0,0,1,.01714-.24278.76953.76953,0,0,1,.08332-.20139.67973.67973,0,0,1,.129-.14424.60177.60177,0,0,1,.151-.07912.54647.54647,0,0,1,.14884-.01429.537.537,0,0,1,.12459.04248.65608.65608,0,0,1,.08267.0845c.00489.00837.0293.107.0293.107s.0244.09859.0293.107a.6567.6567,0,0,0,.08267.0845.53727.53727,0,0,0,.12459.04248.54654.54654,0,0,0,.14884-.01429.60177.60177,0,0,0,.151-.07913.67964.67964,0,0,0,.129-.14423.76988.76988,0,0,0,.08333-.20139.86725.86725,0,0,0,.01713-.24278.96859.96859,0,0,0-.064-.26181,1.07382,1.07382,0,0,0-.15268-.25381,1.18,1.18,0,0,0-.24-.21657,1.28746,1.28746,0,0,0-.31658-.1507,1.396,1.396,0,0,0-.37347-.0597,1.50518,1.50518,0,0,0-.40289.05024,1.61427,1.61427,0,0,0-.399.17054,1.72421,1.72421,0,0,0-.35878.29108,1.83447,1.83447,0,0,0-.28216.40083,1.94475,1.94475,0,0,0-.17241.48891,2.055,2.055,0,0,0-.03606.54557,2.1654,2.1654,0,0,0,.1176.563,2.276,2.276,0,0,0,.27706.53624,2.38635,2.38635,0,0,0,.42947.46376,2.49731,2.49731,0,0,0,.56168.34773,2.6081,2.6081,0,0,0,.66125.19412,2.71847,2.71847,0,0,0,.71766.01243,2.82934,2.82934,0,0,0,.7231-.185,2.93989,2.93989,0,0,0,.67345-.38357,3.0504,3.0504,0,0,0,.56873-.56787,3.16155,3.16155,0,0,0,.41331-.72252,3.27263,3.27263,0,0,0,.21584-.8336,3.38351,3.38351,0,0,0-.01121-.88974,3.49413,3.49413,0,0,0-.25234-.88321,3.60454,3.60454,0,0,0-.49008-.81067,3.71524,3.71524,0,0,0-.70626-.6737,3.8267,3.8267,0,0,0-.88337-.47889,3.93751,3.93751,0,0,0-1.00594-.23755,4.04849,4.04849,0,0,0-1.06183.03484,4.15923,4.15923,0,0,0-1.04332.31971,4.2698,4.2698,0,0,0-.94789.59659,4.38058,4.38058,0,0,0-.77867.84466,4.49149,4.49149,0,0,0-.54446,1.04422A4.60247,4.60247,0,0,0,7.239,21.95021a4.71326,4.71326,0,0,0,.05847,1.23392,4.82447,4.82447,0,0,0,.38707,1.20342,4.93538,4.93538,0,0,0,.7031,1.0851,5.04566,5.04566,0,0,0,.98306.88365,5.15666,5.15666,0,0,0,1.20507.61,5.26761,5.26761,0,0,0,1.35062.281,5.37863,5.37863,0,0,0,1.406-.0821,5.48983,5.48983,0,0,0,1.36353-.45444,5.60088,5.60088,0,0,0,1.22232-.80961,5.712,5.712,0,0,0,.98862-1.12145,5.82222,5.82222,0,0,0,.67561-1.36592,5.93309,5.93309,0,0,0,.30269-1.523,5.04623,5.04623,0,0,1,.27373-1.29317,4.93531,4.93531,0,0,1,.58818-1.15146,4.82433,4.82433,0,0,1,.84866-.93692,4.71314,4.71314,0,0,1,1.03937-.6676,4.60262,4.60262,0,0,1,1.15005-.36462,4.49173,4.49173,0,0,1,1.17655-.05059,4.381,4.381,0,0,1,1.12084.252,4.27022,4.27022,0,0,1,.9906.5226,4.15908,4.15908,0,0,1,.79853.74369,4.04832,4.04832,0,0,1,.56109.90215,3.937,3.937,0,0,1,.29724.98994,3.82674,3.82674,0,0,1,.027,1.00447,3.71568,3.71568,0,0,1-.23032.94849,3.60435,3.60435,0,0,1-.457.82976,3.49392,3.49392,0,0,1-.63871.66013,3.38309,3.38309,0,0,1-.76493.45458,3.27256,3.27256,0,0,1-.82984.22988,3.16166,3.16166,0,0,1-.83238.00333,3.05117,3.05117,0,0,1-.77615-.2086,2.94,2.94,0,0,1-.66891-.39145,2.82933,2.82933,0,0,1-.52174-.53374,2.71848,2.71848,0,0,1-.34806-.62772,2.60758,2.60758,0,0,1-.16251-.66973,2.49694,2.49694,0,0,1,.0203-.66029,2.3868,2.3868,0,0,1,.18689-.60381,2.27585,2.27585,0,0,1,.32587-.50806,2.16545,2.16545,0,0,1,.42876-.38334,2.05491,2.05491,0,0,1,.49051-.24155,1.94482,1.94482,0,0,1,.50962-.09515,1.83461,1.83461,0,0,1,.4882.04394,1.724,1.724,0,0,1,.43147.16518,1.61454,1.61454,0,0,1,.34721.26029,1.50528,1.50528,0,0,1,.24495.32379,1.3961,1.3961,0,0,1,.135.35329,1.28711,1.28711,0,0,1,.02777.34951,1.17985,1.17985,0,0,1-.06757.31612,1.0737,1.0737,0,0,1-.14346.25913.96922.96922,0,0,1-.19472.18636.86761.86761,0,0,1-.21881.10655.77018.77018,0,0,1-.21607.02853.68.68,0,0,1-.18941-.03959.60191.60191,0,0,1-.144-.09121.54623.54623,0,0,1-.08679-.12175.53788.53788,0,0,1-.02551-.12914.65676.65676,0,0,1,.03185-.11384c.0048-.00842.078-.07886.078-.07886s.07318-.07043.078-.07885a.65579.65579,0,0,0,.03184-.11385.53683.53683,0,0,0-.02551-.12913.54618.54618,0,0,0-.08679-.12176.60213.60213,0,0,0-.144-.0912.67931.67931,0,0,0-.18941-.03959.76977.76977,0,0,0-.21607.02853.86682.86682,0,0,0-.21882.10655.9689.9689,0,0,0-.19471.18636,1.07334,1.07334,0,0,0-.14347.25913,1.17986,1.17986,0,0,0-.06757.31611,1.28757,1.28757,0,0,0,.02778.34952,1.396,1.396,0,0,0,.135.35328,1.505,1.505,0,0,0,.245.3238,1.61437,1.61437,0,0,0,.34721.26029,1.72481,1.72481,0,0,0,.43147.16518,1.83416,1.83416,0,0,0,.4882.04393,1.94439,1.94439,0,0,0,.50962-.09514,2.05451,2.05451,0,0,0,.4905-.24156,2.16522,2.16522,0,0,0,.42877-.38334,2.276,2.276,0,0,0,.32587-.50806,2.38655,2.38655,0,0,0,.18689-.60381,2.49735,2.49735,0,0,0,.0203-.66029,2.60819,2.60819,0,0,0-.16251-.66973,2.71845,2.71845,0,0,0-.34807-.62771,2.829,2.829,0,0,0-.52173-.53374,2.94018,2.94018,0,0,0-.66891-.39145,3.05076,3.05076,0,0,0-.77615-.2086,3.16166,3.16166,0,0,0-.83238.00333,3.27245,3.27245,0,0,0-.82984.22988,3.3832,3.3832,0,0,0-.76493.45457,3.494,3.494,0,0,0-.63871.66014,3.6049,3.6049,0,0,0-.457.82975,3.71616,3.71616,0,0,0-.23031.9485,3.82665,3.82665,0,0,0,.027,1.00446,3.93748,3.93748,0,0,0,.29725.99,4.04818,4.04818,0,0,0,.56109.90215,4.159,4.159,0,0,0,.79852.74368,4.26991,4.26991,0,0,0,.99061.5226,4.38065,4.38065,0,0,0,1.12083.252,4.49179,4.49179,0,0,0,1.17656-.0506,4.60272,4.60272,0,0,0,1.15005-.36461,4.71373,4.71373,0,0,0,1.03937-.6676,4.82465,4.82465,0,0,0,.84866-.93692,4.93547,4.93547,0,0,0,.58817-1.15146,5.046,5.046,0,0,0,.27374-1.29317,5.15736,5.15736,0,0,0-.07423-1.34865,5.26773,5.26773,0,0,0-.432-1.31016,5.37912,5.37912,0,0,0-.77411-1.17658,5.48963,5.48963,0,0,0-1.07532-.95363,5.60038,5.60038,0,0,0-1.3123-.65375,5.71128,5.71128,0,0,0-1.46552-.29545,5.8223,5.8223,0,0,0-1.52073.09786,5.9336,5.9336,0,0,0-1.47027.49935,5.93346,5.93346,0,0,1-1.47027.49935,5.82273,5.82273,0,0,1-1.52073.09786,5.71112,5.71112,0,0,1-1.46551-.29545,5.60045,5.60045,0,0,1-1.31231-.65375,5.48991,5.48991,0,0,1-1.07532-.95363,5.37894,5.37894,0,0,1-.77411-1.17659,5.26841,5.26841,0,0,1-.432-1.31016,5.15729,5.15729,0,0,1-.07423-1.34864,5.04624,5.04624,0,0,1,.27374-1.29317,4.93531,4.93531,0,0,1,.58818-1.15146,4.82433,4.82433,0,0,1,.84866-.93692,4.71344,4.71344,0,0,1,1.03936-.6676,4.60272,4.60272,0,0,1,1.15005-.36461,4.49179,4.49179,0,0,1,1.17656-.0506,4.381,4.381,0,0,1,1.12083.252,4.27029,4.27029,0,0,1,.99061.5226,4.15908,4.15908,0,0,1,.79853.74369,4.04814,4.04814,0,0,1,.56108.90215,3.93736,3.93736,0,0,1,.29725.99,3.82622,3.82622,0,0,1,.027,1.00446,3.71525,3.71525,0,0,1-.23031.94849,3.6051,3.6051,0,0,1-.457.82976,3.49423,3.49423,0,0,1-.63871.66013,3.38316,3.38316,0,0,1-.76494.45458,3.27233,3.27233,0,0,1-.82984.22988,3.16159,3.16159,0,0,1-.83237.00333,3.05072,3.05072,0,0,1-.77616-.2086,2.94011,2.94011,0,0,1-.6689-.39145,2.829,2.829,0,0,1-.52174-.53374,2.71831,2.71831,0,0,1-.34807-.62772,2.608,2.608,0,0,1-.16251-.66973,2.49694,2.49694,0,0,1,.02031-.66029,2.386,2.386,0,0,1,.18689-.60381,2.27582,2.27582,0,0,1,.32586-.50806,2.16582,2.16582,0,0,1,.42877-.38334,2.055,2.055,0,0,1,.4905-.24155,1.94439,1.94439,0,0,1,.50962-.09514,1.83423,1.83423,0,0,1,.48821.04393,1.72434,1.72434,0,0,1,.43147.16518,1.61486,1.61486,0,0,1,.34721.26029,1.50523,1.50523,0,0,1,.24494.32379,1.39572,1.39572,0,0,1,.135.35329,1.28752,1.28752,0,0,1,.02778.34951,1.17985,1.17985,0,0,1-.06757.31612,1.074,1.074,0,0,1-.14346.25913.96922.96922,0,0,1-.19472.18636.8675.8675,0,0,1-.21882.10655.77014.77014,0,0,1-.21607.02853.6801.6801,0,0,1-.18941-.03959.60213.60213,0,0,1-.144-.0912.54651.54651,0,0,1-.08679-.12176.53691.53691,0,0,1-.02551-.12914.65587.65587,0,0,1,.03185-.11384c.00479-.00842.078-.07886.078-.07886s.07318-.07043.078-.07885a.65587.65587,0,0,0,.03185-.11384.53691.53691,0,0,0-.02551-.12914.54651.54651,0,0,0-.08679-.12176.602.602,0,0,0-.144-.0912.68.68,0,0,0-.1894-.03959.76972.76972,0,0,0-.21607.02853.8675.8675,0,0,0-.21882.10655.96894.96894,0,0,0-.19472.18636,1.07351,1.07351,0,0,0-.14346.25913,1.17986,1.17986,0,0,0-.06757.31611,1.288,1.288,0,0,0,.02777.34952,1.39628,1.39628,0,0,0,.135.35329,1.5049,1.5049,0,0,0,.24494.32379,1.61486,1.61486,0,0,0,.34721.26029,1.72457,1.72457,0,0,0,.43147.16518,1.8342,1.8342,0,0,0,.4882.04393,1.94446,1.94446,0,0,0,.50963-.09514,2.055,2.055,0,0,0,.4905-.24155,2.1658,2.1658,0,0,0,.42876-.38334,2.27608,2.27608,0,0,0,.32587-.50806,2.38675,2.38675,0,0,0,.18689-.60382,2.49734,2.49734,0,0,0,.02031-.66029,2.6078,2.6078,0,0,0-.16252-.66973,2.718,2.718,0,0,0-.34806-.62771,2.829,2.829,0,0,0-.52174-.53374A2.94,2.94,0,0,0,17.699,8.6269a3.05065,3.05065,0,0,0-.77615-.2086,3.16166,3.16166,0,0,0-.83238.00333,3.27237,3.27237,0,0,0-.82983.22988,3.38316,3.38316,0,0,0-.76494.45458,3.49423,3.49423,0,0,0-.63871.66013,3.60487,3.60487,0,0,0-.457.82975,3.71543,3.71543,0,0,0-.23031.9485,3.82622,3.82622,0,0,0,.027,1.00446,3.93733,3.93733,0,0,0,.29724.99,4.04855,4.04855,0,0,0,.56109.90215,4.159,4.159,0,0,0,.79853.74368,4.27033,4.27033,0,0,0,.99061.52261,4.381,4.381,0,0,0,1.12083.252,4.49172,4.49172,0,0,0,1.17655-.0506,4.60279,4.60279,0,0,0,1.15006-.36461,4.71344,4.71344,0,0,0,1.03936-.6676,4.82433,4.82433,0,0,0,.84866-.93692,4.9355,4.9355,0,0,0,.58818-1.15146,5.04632,5.04632,0,0,0,.27373-1.29317,5.15683,5.15683,0,0,0-.07422-1.34864,5.268,5.268,0,0,0-.432-1.31016,5.37853,5.37853,0,0,0-.7741-1.17659A5.4902,5.4902,0,0,0,19.68578,6.706a5.60045,5.60045,0,0,0-1.31231-.65375A5.71111,5.71111,0,0,0,16.908,5.75676a5.82235,5.82235,0,0,0-1.52073.09786A5.93339,5.93339,0,0,0,13.917,6.354" style="fill: none;stroke: #231f20;stroke-miterlimit: 10;stroke-width: 0.3499999940395355px"/>
</svg>
