<svg xmlns="http://www.w3.org/2000/svg" xmlns:xlink="http://www.w3.org/1999/xlink" viewBox="0 0 459 137.45"><defs><style>.cls-1,.cls-2,.cls-25,.cls-27,.cls-3,.cls-4{fill:none;stroke-miterlimit:10;}.cls-1{stroke:#4f4f4f;}.cls-1,.cls-2,.cls-27,.cls-3,.cls-4{stroke-width:0.5px;}.cls-2{stroke:#f36;}.cls-3{stroke:#8131f4;}.cls-4{stroke:#0505c4;}.cls-13,.cls-5,.cls-6{font-size:8px;font-family:HKGrotesk-Light, HK Grotesk;font-weight:300;}.cls-16,.cls-5{letter-spacing:0em;}.cls-14,.cls-6{letter-spacing:0em;}.cls-7{font-size:12px;}.cls-19,.cls-26,.cls-7{font-family:HKGrotesk-Medium, HK Grotesk;font-weight:500;}.cls-8{letter-spacing:0em;}.cls-9{letter-spacing:-0.07em;}.cls-10{letter-spacing:0em;}.cls-11{letter-spacing:-0.01em;}.cls-12{letter-spacing:0em;}.cls-15{letter-spacing:0em;}.cls-17{letter-spacing:-0.01em;}.cls-18{letter-spacing:0em;}.cls-20{clip-path:url(#clip-path);}.cls-21{clip-path:url(#clip-path-2);}.cls-22{clip-path:url(#clip-path-3);}.cls-23{clip-path:url(#clip-path-4);}.cls-24{fill:#dbdbdb;}.cls-25{stroke:#000;stroke-width:0.25px;}.cls-26{letter-spacing:0em;}.cls-27{stroke:red;stroke-dasharray:2 2;}</style><clipPath id="clip-path"><rect class="cls-1" x="0.5" y="35.5" width="14" height="8" rx="4"/></clipPath><clipPath id="clip-path-2"><rect class="cls-2" x="202.5" y="35.5" width="14" height="8" rx="4"/></clipPath><clipPath id="clip-path-3"><rect class="cls-3" x="202.5" y="56.25" width="14" height="8" rx="4"/></clipPath><clipPath id="clip-path-4"><rect class="cls-4" x="202.5" y="76.5" width="14" height="8" rx="4"/></clipPath></defs><title>legenda_04</title><g id="Isolation_Mode" data-name="Isolation Mode"><text class="cls-5" transform="translate(225.2 42.26)">Metropoli</text><text class="cls-6" transform="translate(225.2 63.01)">Viaggio</text><text class="cls-7" transform="translate(-0.61 22.99)">TEMPO<tspan class="cls-8" x="41.7" y="0">R</tspan><tspan x="49.2" y="0">ALI</tspan><tspan class="cls-9" x="67.02" y="0">T</tspan><tspan class="cls-10" x="73.52" y="0">À</tspan></text><text class="cls-7" transform="translate(202.39 22.99)"><tspan class="cls-11">C</tspan><tspan class="cls-10" x="8.57" y="0">ONTE</tspan><tspan class="cls-12" x="41.17" y="0">S</tspan><tspan x="47.95" y="0">TI</tspan></text><text class="cls-13" transform="translate(21.2 42.26)"><tspan class="cls-14">A</tspan><tspan x="5.09" y="0">mbientazioni di </tspan><tspan class="cls-15" x="61.65" y="0">t</tspan><tspan x="64.15" y="0">esti in </tspan><tspan class="cls-16" x="87.26" y="0">c</tspan><tspan x="91.29" y="0">ui il </tspan><tspan class="cls-17" x="106.01" y="0">t</tspan><tspan class="cls-18" x="108.52" y="0">empo</tspan><tspan x="0" y="9.6">il tempo è collocato nel </tspan><tspan class="cls-19" x="85.65" y="9.6">presente</tspan></text><g class="cls-20"><line class="cls-1" x1="-43.53" y1="36.83" x2="27.87" y2="108.23"/><line class="cls-1" x1="-41.13" y1="35.63" x2="30.27" y2="107.03"/><line class="cls-1" x1="-38.73" y1="34.43" x2="32.67" y2="105.83"/><line class="cls-1" x1="-36.33" y1="33.23" x2="35.07" y2="104.63"/><line class="cls-1" x1="-33.93" y1="32.03" x2="37.47" y2="103.43"/><line class="cls-1" x1="-31.53" y1="30.83" x2="39.87" y2="102.23"/><line class="cls-1" x1="-29.13" y1="29.63" x2="42.27" y2="101.03"/><line class="cls-1" x1="-26.73" y1="28.43" x2="44.67" y2="99.83"/><line class="cls-1" x1="-24.33" y1="27.23" x2="47.07" y2="98.63"/><line class="cls-1" x1="-21.93" y1="26.03" x2="49.47" y2="97.43"/><line class="cls-1" x1="-19.53" y1="24.83" x2="51.87" y2="96.23"/><line class="cls-1" x1="-17.13" y1="23.63" x2="54.27" y2="95.03"/><line class="cls-1" x1="-14.73" y1="22.43" x2="56.67" y2="93.83"/><line class="cls-1" x1="-12.33" y1="21.23" x2="59.07" y2="92.63"/><line class="cls-1" x1="-9.93" y1="20.03" x2="61.47" y2="91.43"/><line class="cls-1" x1="-7.53" y1="18.83" x2="63.87" y2="90.23"/><line class="cls-1" x1="-5.13" y1="17.63" x2="66.27" y2="89.03"/><line class="cls-1" x1="-2.73" y1="16.43" x2="68.67" y2="87.83"/><line class="cls-1" x1="-0.33" y1="15.23" x2="71.07" y2="86.63"/><line class="cls-1" x1="2.07" y1="14.03" x2="73.47" y2="85.43"/><line class="cls-1" x1="4.47" y1="12.83" x2="75.87" y2="84.23"/></g><rect class="cls-1" x="0.5" y="35.5" width="14" height="8" rx="4"/><g class="cls-21"><line class="cls-2" x1="158.47" y1="36.83" x2="229.87" y2="108.23"/><line class="cls-2" x1="160.87" y1="35.63" x2="232.27" y2="107.03"/><line class="cls-2" x1="163.27" y1="34.43" x2="234.67" y2="105.83"/><line class="cls-2" x1="165.67" y1="33.23" x2="237.07" y2="104.63"/><line class="cls-2" x1="168.07" y1="32.03" x2="239.47" y2="103.43"/><line class="cls-2" x1="170.47" y1="30.83" x2="241.87" y2="102.23"/><line class="cls-2" x1="172.87" y1="29.63" x2="244.27" y2="101.03"/><line class="cls-2" x1="175.27" y1="28.43" x2="246.67" y2="99.83"/><line class="cls-2" x1="177.67" y1="27.23" x2="249.07" y2="98.63"/><line class="cls-2" x1="180.07" y1="26.03" x2="251.47" y2="97.43"/><line class="cls-2" x1="182.47" y1="24.83" x2="253.87" y2="96.23"/><line class="cls-2" x1="184.87" y1="23.63" x2="256.27" y2="95.03"/><line class="cls-2" x1="187.27" y1="22.43" x2="258.67" y2="93.83"/><line class="cls-2" x1="189.67" y1="21.23" x2="261.07" y2="92.63"/><line class="cls-2" x1="192.07" y1="20.03" x2="263.47" y2="91.43"/><line class="cls-2" x1="194.47" y1="18.83" x2="265.87" y2="90.23"/><line class="cls-2" x1="196.87" y1="17.63" x2="268.27" y2="89.03"/><line class="cls-2" x1="199.27" y1="16.43" x2="270.67" y2="87.83"/><line class="cls-2" x1="201.67" y1="15.23" x2="273.07" y2="86.63"/><line class="cls-2" x1="204.07" y1="14.03" x2="275.47" y2="85.43"/><line class="cls-2" x1="206.47" y1="12.83" x2="277.87" y2="84.23"/></g><rect class="cls-2" x="202.5" y="35.5" width="14" height="8" rx="4"/><g class="cls-22"><line class="cls-3" x1="158.47" y1="57.58" x2="229.87" y2="128.98"/><line class="cls-3" x1="160.87" y1="56.38" x2="232.27" y2="127.78"/><line class="cls-3" x1="163.27" y1="55.18" x2="234.67" y2="126.58"/><line class="cls-3" x1="165.67" y1="53.98" x2="237.07" y2="125.38"/><line class="cls-3" x1="168.07" y1="52.78" x2="239.47" y2="124.18"/><line class="cls-3" x1="170.47" y1="51.58" x2="241.87" y2="122.98"/><line class="cls-3" x1="172.87" y1="50.38" x2="244.27" y2="121.78"/><line class="cls-3" x1="175.27" y1="49.18" x2="246.67" y2="120.58"/><line class="cls-3" x1="177.67" y1="47.98" x2="249.07" y2="119.38"/><line class="cls-3" x1="180.07" y1="46.78" x2="251.47" y2="118.18"/><line class="cls-3" x1="182.47" y1="45.58" x2="253.87" y2="116.98"/><line class="cls-3" x1="184.87" y1="44.38" x2="256.27" y2="115.78"/><line class="cls-3" x1="187.27" y1="43.18" x2="258.67" y2="114.58"/><line class="cls-3" x1="189.67" y1="41.98" x2="261.07" y2="113.38"/><line class="cls-3" x1="192.07" y1="40.78" x2="263.47" y2="112.18"/><line class="cls-3" x1="194.47" y1="39.58" x2="265.87" y2="110.98"/><line class="cls-3" x1="196.87" y1="38.38" x2="268.27" y2="109.78"/><line class="cls-3" x1="199.27" y1="37.18" x2="270.67" y2="108.58"/><line class="cls-3" x1="201.67" y1="35.98" x2="273.07" y2="107.38"/><line class="cls-3" x1="204.07" y1="34.78" x2="275.47" y2="106.18"/><line class="cls-3" x1="206.47" y1="33.58" x2="277.87" y2="104.98"/></g><rect class="cls-3" x="202.5" y="56.25" width="14" height="8" rx="4"/><text class="cls-5" transform="translate(225.2 83.26)">Paesaggio cosmico</text><g class="cls-23"><line class="cls-4" x1="158.47" y1="77.83" x2="229.87" y2="149.23"/><line class="cls-4" x1="160.87" y1="76.63" x2="232.27" y2="148.03"/><line class="cls-4" x1="163.27" y1="75.43" x2="234.67" y2="146.83"/><line class="cls-4" x1="165.67" y1="74.23" x2="237.07" y2="145.63"/><line class="cls-4" x1="168.07" y1="73.03" x2="239.47" y2="144.43"/><line class="cls-4" x1="170.47" y1="71.83" x2="241.87" y2="143.23"/><line class="cls-4" x1="172.87" y1="70.63" x2="244.27" y2="142.03"/><line class="cls-4" x1="175.27" y1="69.43" x2="246.67" y2="140.83"/><line class="cls-4" x1="177.67" y1="68.23" x2="249.07" y2="139.63"/><line class="cls-4" x1="180.07" y1="67.03" x2="251.47" y2="138.43"/><line class="cls-4" x1="182.47" y1="65.83" x2="253.87" y2="137.23"/><line class="cls-4" x1="184.87" y1="64.63" x2="256.27" y2="136.03"/><line class="cls-4" x1="187.27" y1="63.43" x2="258.67" y2="134.83"/><line class="cls-4" x1="189.67" y1="62.23" x2="261.07" y2="133.63"/><line class="cls-4" x1="192.07" y1="61.03" x2="263.47" y2="132.43"/><line class="cls-4" x1="194.47" y1="59.83" x2="265.87" y2="131.23"/><line class="cls-4" x1="196.87" y1="58.63" x2="268.27" y2="130.03"/><line class="cls-4" x1="199.27" y1="57.43" x2="270.67" y2="128.83"/><line class="cls-4" x1="201.67" y1="56.23" x2="273.07" y2="127.63"/><line class="cls-4" x1="204.07" y1="55.03" x2="275.47" y2="126.43"/><line class="cls-4" x1="206.47" y1="53.83" x2="277.87" y2="125.23"/></g><rect class="cls-4" x="202.5" y="76.5" width="14" height="8" rx="4"/><path class="cls-24" d="M4.5,73.83a3.5,3.5,0,0,1,0-7h6a3.5,3.5,0,0,1,0,7Z"/><path class="cls-24" d="M10.5,67.33a3,3,0,0,1,0,6h-6a3,3,0,0,1,0-6h6m0-1h-6a4,4,0,0,0-4,4h0a4,4,0,0,0,4,4h6a4,4,0,0,0,4-4h0a4,4,0,0,0-4-4Z"/><text class="cls-13" transform="translate(21.2 73.09)"><tspan class="cls-14">A</tspan><tspan x="5.09" y="0">mbientazioni di </tspan><tspan class="cls-15" x="61.65" y="0">t</tspan><tspan x="64.15" y="0">esti in </tspan><tspan class="cls-16" x="87.26" y="0">c</tspan><tspan x="91.29" y="0">ui il </tspan><tspan class="cls-17" x="106.01" y="0">t</tspan><tspan class="cls-18" x="108.52" y="0">empo </tspan><tspan x="0" y="9.6">della storia è collocato nel </tspan><tspan class="cls-19" x="96.49" y="9.6">passato </tspan></text><rect class="cls-25" x="1" y="97.17" width="14" height="8" rx="4"/><text class="cls-13" transform="translate(21.7 103.93)"><tspan class="cls-14">A</tspan><tspan x="5.09" y="0">mbientazioni di </tspan><tspan class="cls-15" x="61.65" y="0">t</tspan><tspan x="64.15" y="0">esti in </tspan><tspan class="cls-16" x="87.26" y="0">c</tspan><tspan x="91.29" y="0">ui presente </tspan><tspan x="0" y="9.6">e passato si fondono in un testo </tspan><tspan class="cls-26" x="115.93" y="9.6">misto</tspan></text><rect class="cls-27" x="1" y="128" width="14" height="8" rx="4"/><text class="cls-6" transform="translate(21.7 134.76)">Luoghi scomparsi dalla narrazione</text><text class="cls-5" transform="translate(362.7 43.01)">Numero di occorrenze</text><text class="cls-7" transform="translate(339.89 23.99)">DIMENSIONE</text><circle class="cls-25" cx="345.5" cy="42.5" r="2.5"/><circle class="cls-25" cx="345.5" cy="39.5" r="5.5"/></g></svg>