<svg xmlns="http://www.w3.org/2000/svg" xmlns:xlink="http://www.w3.org/1999/xlink" width="600" height="103" viewBox="0 0 600 103">
  <defs>
    <clipPath id="clip-legenda_0">
      <rect width="600" height="103"/>
    </clipPath>
  </defs>
  <g id="legenda_0" clip-path="url(#clip-legenda_0)">
    <text id="TEMPO_DELLA_STORIA" data-name="TEMPO DELLA STORIA" transform="translate(0.452 12)" font-size="12" font-family="HKGrotesk-Medium, HK Grotesk" font-weight="500"><tspan x="0" y="0">TEMPO DELLA STORIA</tspan></text>
    <text id="DECENNI_DI_SCRITTURA" data-name="DECENNI DI SCRITTURA" transform="translate(243.086 12)" font-size="12" font-family="HKGrotesk-Medium, HK Grotesk" font-weight="500"><tspan x="0" y="0">DECENNI DI SCRITTURA</tspan></text>
    <path id="Path_534" data-name="Path 534" d="M13.168,41.3c-3.243,0-5.868-2.237-5.868-5s2.625-5,5.868-5h9.265c3.243,0,5.868,2.237,5.868,5s-2.625,5-5.868,5Z" transform="translate(-7.1 -7.8)" fill="#fff" stroke="#000" stroke-width="0.5"/>
    <circle id="Ellipse_5" data-name="Ellipse 5" cx="0.7" cy="0.7" r="0.7" transform="translate(10.3 27.721)"/>
    <path id="Path_536" data-name="Path 536" d="M288.4,70.2h-9c-3.3,0-6-2.25-6-5h0c0-2.75,2.7-5,6-5h9c3.3,0,6,2.25,6,5h0C294.4,67.95,291.7,70.2,288.4,70.2Z" transform="translate(-30.4 -6.779)" fill="#ff916b"/>
    <path id="Path_537" data-name="Path 537" d="M288.2,99.1h-9c-3.3,0-6-2.25-6-5h0c0-2.75,2.7-5,6-5h9c3.3,0,6,2.25,6,5h0C294.2,96.85,291.5,99.1,288.2,99.1Z" transform="translate(-30.2 -6.779)" fill="#40e6fd"/>
    <path id="Path_538" data-name="Path 538" d="M467.1,41.2h-9c-3.3,0-6-2.25-6-5h0c0-2.75,2.7-5,6-5h9c3.3,0,6,2.25,6,5h0C473.1,38.95,470.4,41.2,467.1,41.2Z" transform="translate(-25.1 -8.2)" fill="#40d1b5"/>
    <path id="Path_539" data-name="Path 539" d="M467.1,70.5h-9c-3.3,0-6-2.25-6-5h0c0-2.75,2.7-5,6-5h9c3.3,0,6,2.25,6,5h0C473.1,68.25,470.4,70.5,467.1,70.5Z" transform="translate(-25.1 -7.779)" fill="#8383ff"/>
    <path id="Path_540" data-name="Path 540" d="M22.1,71.3h-9c-3.3,0-6-2.25-6-5h0c0-2.75,2.7-5,6-5h9c3.3,0,6,2.25,6,5h0C28.1,69.05,25.4,71.3,22.1,71.3Z" transform="translate(-7.1 -7.779)" fill="#6e6e6e"/>
    <text id="Ambientazioni_di_testi_in_cui_il_tempo_della_storia_è_collocato_nella_contemporaneità_o_in_cui_presente_e_passato_si_fondono_in_un_tempo_misto" data-name="Ambientazioni di testi in cui 
il tempo della storia è collocato nella contemporaneità o in cui presente e passato si fondono in un tempo misto" transform="translate(30 54)" font-size="9" font-family="HKGrotesk-Regular, HK Grotesk"><tspan x="0" y="8">Ambientazioni di testi in cui </tspan><tspan x="0" y="19">il tempo della storia è collocato nella </tspan><tspan x="0" y="30" font-family="HKGrotesk-Medium, HK Grotesk" font-weight="500">contemporaneità</tspan><tspan y="30" xml:space="preserve"> o in cui presente e passato </tspan><tspan x="0" y="41">si fondono in un </tspan><tspan y="41" font-family="HKGrotesk-Medium, HK Grotesk" font-weight="500">tempo misto</tspan></text>
    <path id="Path_541" data-name="Path 541" d="M288.4,41.2h-9c-3.3,0-6-2.25-6-5h0c0-2.75,2.7-5,6-5h9c3.3,0,6,2.25,6,5h0C294.4,38.95,291.7,41.2,288.4,41.2Z" transform="translate(-30.4 -8.2)" fill="#ffda40"/>
    <text id="Ambientazioni_di_testi_in_cui_il_tempo_della_storia_è_collocato_in_un_tempo_indefinito_" data-name="Ambientazioni di testi in cui il tempo
della storia è collocato in un tempo indefinito " transform="translate(30 23)" font-size="9" font-family="HKGrotesk-Regular, HK Grotesk"><tspan x="0" y="8">Ambientazioni di testi in cui il tempo</tspan><tspan x="0" y="19">della storia è collocato in un </tspan><tspan y="19" font-family="HKGrotesk-Medium, HK Grotesk" font-weight="500">tempo indefinito </tspan></text>
    <text id="Luoghi_d_ambientazione_ricorrenti_che_attraversano_un_decennio" data-name="Luoghi d’ambientazione ricorrenti 
che attraversano un decennio" transform="translate(272 23)" font-size="9" font-family="HKGrotesk-Regular, HK Grotesk"><tspan x="0" y="8">Luoghi d’ambientazione ricorrenti </tspan><tspan x="0" y="19">che attraversano un decennio</tspan></text>
    <text id="Ambientazioni_di_testi_scritti_tra_il_1945_e_il_1955" data-name="Ambientazioni di testi scritti 
tra il 1945 e il 1955" transform="translate(272 52)" font-size="9" font-family="HKGrotesk-Regular, HK Grotesk"><tspan x="0" y="8">Ambientazioni di testi scritti </tspan><tspan x="0" y="19">tra il 1945 e il 1955</tspan></text>
    <text id="Ambientazioni_di_testi_scritti_tra_il_1956_e_il_1965" data-name="Ambientazioni di testi scritti 
tra il 1956 e il 1965" transform="translate(272 80)" font-size="9" font-family="HKGrotesk-Regular, HK Grotesk"><tspan x="0" y="8">Ambientazioni di testi scritti </tspan><tspan x="0" y="19">tra il 1956 e il 1965</tspan></text>
    <text id="Ambientazioni_di_testi_scritti_tra_il_1966_e_il_1975" data-name="Ambientazioni di testi scritti 
tra il 1966 e il 1975" transform="translate(454 23)" font-size="9" font-family="HKGrotesk-Regular, HK Grotesk"><tspan x="0" y="8">Ambientazioni di testi scritti </tspan><tspan x="0" y="19">tra il 1966 e il 1975</tspan></text>
    <text id="Ambientazioni_di_testi_scritti_tra_il_1976_e_il_1985" data-name="Ambientazioni di testi scritti 
tra il 1976 e il 1985" transform="translate(454 52)" font-size="9" font-family="HKGrotesk-Regular, HK Grotesk"><tspan x="0" y="8">Ambientazioni di testi scritti </tspan><tspan x="0" y="19">tra il 1976 e il 1985</tspan></text>
  </g>
</svg>
