<svg xmlns="http://www.w3.org/2000/svg" xmlns:xlink="http://www.w3.org/1999/xlink" width="600" height="150" viewBox="0 0 600 150">
  <defs>
    <clipPath id="clip-path">
      <path id="Path_148032" data-name="Path 148032" d="M209,35.5h9c3.3,0,6,2.25,6,5h0c0,2.75-2.7,5-6,5h-9c-3.3,0-6-2.25-6-5h0C203,37.75,205.7,35.5,209,35.5Z" transform="translate(-203 -35.5)"/>
    </clipPath>
    <clipPath id="clip-path-2">
      <path id="Path_148034" data-name="Path 148034" d="M209,55.8h9c3.3,0,6,2.25,6,5h0c0,2.75-2.7,5-6,5h-9c-3.3,0-6-2.25-6-5h0C203,58.05,205.7,55.8,209,55.8Z" transform="translate(-203 -55.8)"/>
    </clipPath>
    <clipPath id="clip-path-3">
      <path id="Path_148036" data-name="Path 148036" d="M209,76.2h9c3.3,0,6,2.25,6,5h0c0,2.75-2.7,5-6,5h-9c-3.3,0-6-2.25-6-5h0C203,78.45,205.7,76.2,209,76.2Z" transform="translate(-203 -76.2)"/>
    </clipPath>
    <clipPath id="clip-path-4">
      <path id="Path_148038" data-name="Path 148038" d="M209,96.5h9c3.3,0,6,2.25,6,5h0c0,2.75-2.7,5-6,5h-9c-3.3,0-6-2.25-6-5h0C203,98.75,205.7,96.5,209,96.5Z" transform="translate(-203 -96.5)"/>
    </clipPath>
    <clipPath id="clip-path-5">
      <path id="Path_157232" data-name="Path 157232" d="M209.5,35.5h9c3.3,0,6,2.25,6,5h0c0,2.75-2.7,5-6,5h-9c-3.3,0-6-2.25-6-5h0C203.5,37.75,206.2,35.5,209.5,35.5Z" transform="translate(-203.5 -35.5)"/>
    </clipPath>
    <clipPath id="clip-legenda_03">
      <rect width="600" height="150"/>
    </clipPath>
  </defs>
  <g id="legenda_03" clip-path="url(#clip-legenda_03)">
    <text id="Metropoli" transform="translate(272.295 34.867)" font-size="8" font-family="HKGrotesk-Regular, HK Grotesk"><tspan x="0" y="0">Metropoli</tspan></text>
    <g id="Group_24045" data-name="Group 24045" transform="translate(243.086 28.299)" clip-path="url(#clip-path)">
      <line id="Line_7689" data-name="Line 7689" x2="107.1" y2="89.25" transform="translate(-66 1.625)" fill="none" stroke="#f36" stroke-miterlimit="10" stroke-width="0.5"/>
      <line id="Line_7690" data-name="Line 7690" x2="107.1" y2="89.25" transform="translate(-62.4 0.125)" fill="none" stroke="#f36" stroke-miterlimit="10" stroke-width="0.5"/>
      <line id="Line_7691" data-name="Line 7691" x2="107.1" y2="89.25" transform="translate(-58.8 -1.375)" fill="none" stroke="#f36" stroke-miterlimit="10" stroke-width="0.5"/>
      <line id="Line_7692" data-name="Line 7692" x2="107.1" y2="89.25" transform="translate(-55.2 -2.875)" fill="none" stroke="#f36" stroke-miterlimit="10" stroke-width="0.5"/>
      <line id="Line_7693" data-name="Line 7693" x2="107.1" y2="89.25" transform="translate(-51.6 -4.375)" fill="none" stroke="#f36" stroke-miterlimit="10" stroke-width="0.5"/>
      <line id="Line_7694" data-name="Line 7694" x2="107.1" y2="89.25" transform="translate(-48 -5.875)" fill="none" stroke="#f36" stroke-miterlimit="10" stroke-width="0.5"/>
      <line id="Line_7695" data-name="Line 7695" x2="107.1" y2="89.25" transform="translate(-44.4 -7.375)" fill="none" stroke="#f36" stroke-miterlimit="10" stroke-width="0.5"/>
      <line id="Line_7696" data-name="Line 7696" x2="107.1" y2="89.25" transform="translate(-40.8 -8.875)" fill="none" stroke="#f36" stroke-miterlimit="10" stroke-width="0.5"/>
      <line id="Line_7697" data-name="Line 7697" x2="107.1" y2="89.25" transform="translate(-37.2 -10.375)" fill="none" stroke="#f36" stroke-miterlimit="10" stroke-width="0.5"/>
      <line id="Line_7698" data-name="Line 7698" x2="107.1" y2="89.25" transform="translate(-33.6 -11.875)" fill="none" stroke="#f36" stroke-miterlimit="10" stroke-width="0.5"/>
      <line id="Line_7699" data-name="Line 7699" x2="107.1" y2="89.25" transform="translate(-30 -13.375)" fill="none" stroke="#f36" stroke-miterlimit="10" stroke-width="0.5"/>
      <line id="Line_7700" data-name="Line 7700" x2="107.1" y2="89.25" transform="translate(-26.4 -14.875)" fill="none" stroke="#f36" stroke-miterlimit="10" stroke-width="0.5"/>
      <line id="Line_7701" data-name="Line 7701" x2="107.1" y2="89.25" transform="translate(-22.8 -16.375)" fill="none" stroke="#f36" stroke-miterlimit="10" stroke-width="0.5"/>
      <line id="Line_7702" data-name="Line 7702" x2="107.1" y2="89.25" transform="translate(-19.2 -17.875)" fill="none" stroke="#f36" stroke-miterlimit="10" stroke-width="0.5"/>
      <line id="Line_7703" data-name="Line 7703" x2="107.1" y2="89.25" transform="translate(-15.6 -19.375)" fill="none" stroke="#f36" stroke-miterlimit="10" stroke-width="0.5"/>
      <line id="Line_7704" data-name="Line 7704" x2="107.1" y2="89.25" transform="translate(-12 -20.875)" fill="none" stroke="#f36" stroke-miterlimit="10" stroke-width="0.5"/>
      <line id="Line_7705" data-name="Line 7705" x2="107.1" y2="89.25" transform="translate(-8.4 -22.375)" fill="none" stroke="#f36" stroke-miterlimit="10" stroke-width="0.5"/>
      <line id="Line_7706" data-name="Line 7706" x2="107.1" y2="89.25" transform="translate(-4.8 -23.875)" fill="none" stroke="#f36" stroke-miterlimit="10" stroke-width="0.5"/>
      <line id="Line_7707" data-name="Line 7707" x2="107.1" y2="89.25" transform="translate(-1.2 -25.375)" fill="none" stroke="#f36" stroke-miterlimit="10" stroke-width="0.5"/>
      <line id="Line_7708" data-name="Line 7708" x2="107.1" y2="89.25" transform="translate(2.4 -26.875)" fill="none" stroke="#f36" stroke-miterlimit="10" stroke-width="0.5"/>
      <line id="Line_7709" data-name="Line 7709" x2="107.1" y2="89.25" transform="translate(6 -28.375)" fill="none" stroke="#f36" stroke-miterlimit="10" stroke-width="0.5"/>
    </g>
    <path id="Path_148033" data-name="Path 148033" d="M209,35.5h9c3.3,0,6,2.25,6,5h0c0,2.75-2.7,5-6,5h-9c-3.3,0-6-2.25-6-5h0C203,37.75,205.7,35.5,209,35.5Z" transform="translate(40.086 -7.201)" fill="none" stroke="#f36" stroke-miterlimit="10" stroke-width="0.5"/>
    <text id="Ambiente_urbano" data-name="Ambiente urbano" transform="translate(272.295 59.34)" font-size="9" font-family="HKGrotesk-Regular, HK Grotesk"><tspan x="0" y="0">Ambiente urbano</tspan></text>
    <g id="Group_24047" data-name="Group 24047" transform="translate(243.086 51.737)" clip-path="url(#clip-path-2)">
      <line id="Line_7710" data-name="Line 7710" x2="107.1" y2="89.25" transform="translate(-66 1.75)" fill="none" stroke="#8131f4" stroke-miterlimit="10" stroke-width="0.5"/>
      <line id="Line_7711" data-name="Line 7711" x2="107.1" y2="89.25" transform="translate(-62.4 0.25)" fill="none" stroke="#8131f4" stroke-miterlimit="10" stroke-width="0.5"/>
      <line id="Line_7712" data-name="Line 7712" x2="107.1" y2="89.25" transform="translate(-58.8 -1.25)" fill="none" stroke="#8131f4" stroke-miterlimit="10" stroke-width="0.5"/>
      <line id="Line_7713" data-name="Line 7713" x2="107.1" y2="89.25" transform="translate(-55.2 -2.75)" fill="none" stroke="#8131f4" stroke-miterlimit="10" stroke-width="0.5"/>
      <line id="Line_7714" data-name="Line 7714" x2="107.1" y2="89.25" transform="translate(-51.6 -4.25)" fill="none" stroke="#8131f4" stroke-miterlimit="10" stroke-width="0.5"/>
      <line id="Line_7715" data-name="Line 7715" x2="107.1" y2="89.25" transform="translate(-48 -5.75)" fill="none" stroke="#8131f4" stroke-miterlimit="10" stroke-width="0.5"/>
      <line id="Line_7716" data-name="Line 7716" x2="107.1" y2="89.25" transform="translate(-44.4 -7.25)" fill="none" stroke="#8131f4" stroke-miterlimit="10" stroke-width="0.5"/>
      <line id="Line_7717" data-name="Line 7717" x2="107.1" y2="89.25" transform="translate(-40.8 -8.75)" fill="none" stroke="#8131f4" stroke-miterlimit="10" stroke-width="0.5"/>
      <line id="Line_7718" data-name="Line 7718" x2="107.1" y2="89.25" transform="translate(-37.2 -10.25)" fill="none" stroke="#8131f4" stroke-miterlimit="10" stroke-width="0.5"/>
      <line id="Line_7719" data-name="Line 7719" x2="107.1" y2="89.25" transform="translate(-33.6 -11.75)" fill="none" stroke="#8131f4" stroke-miterlimit="10" stroke-width="0.5"/>
      <line id="Line_7720" data-name="Line 7720" x2="107.1" y2="89.25" transform="translate(-30 -13.25)" fill="none" stroke="#8131f4" stroke-miterlimit="10" stroke-width="0.5"/>
      <line id="Line_7721" data-name="Line 7721" x2="107.1" y2="89.25" transform="translate(-26.4 -14.75)" fill="none" stroke="#8131f4" stroke-miterlimit="10" stroke-width="0.5"/>
      <line id="Line_7722" data-name="Line 7722" x2="107.1" y2="89.25" transform="translate(-22.8 -16.25)" fill="none" stroke="#8131f4" stroke-miterlimit="10" stroke-width="0.5"/>
      <line id="Line_7723" data-name="Line 7723" x2="107.1" y2="89.25" transform="translate(-19.2 -17.75)" fill="none" stroke="#8131f4" stroke-miterlimit="10" stroke-width="0.5"/>
      <line id="Line_7724" data-name="Line 7724" x2="107.1" y2="89.25" transform="translate(-15.6 -19.25)" fill="none" stroke="#8131f4" stroke-miterlimit="10" stroke-width="0.5"/>
      <line id="Line_7725" data-name="Line 7725" x2="107.1" y2="89.25" transform="translate(-12 -20.75)" fill="none" stroke="#8131f4" stroke-miterlimit="10" stroke-width="0.5"/>
      <line id="Line_7726" data-name="Line 7726" x2="107.1" y2="89.25" transform="translate(-8.4 -22.25)" fill="none" stroke="#8131f4" stroke-miterlimit="10" stroke-width="0.5"/>
      <line id="Line_7727" data-name="Line 7727" x2="107.1" y2="89.25" transform="translate(-4.8 -23.75)" fill="none" stroke="#8131f4" stroke-miterlimit="10" stroke-width="0.5"/>
      <line id="Line_7728" data-name="Line 7728" x2="107.1" y2="89.25" transform="translate(-1.2 -25.25)" fill="none" stroke="#8131f4" stroke-miterlimit="10" stroke-width="0.5"/>
      <line id="Line_7729" data-name="Line 7729" x2="107.1" y2="89.25" transform="translate(2.4 -26.75)" fill="none" stroke="#8131f4" stroke-miterlimit="10" stroke-width="0.5"/>
      <line id="Line_7730" data-name="Line 7730" x2="107.1" y2="89.25" transform="translate(6 -28.25)" fill="none" stroke="#8131f4" stroke-miterlimit="10" stroke-width="0.5"/>
    </g>
    <path id="Path_148035" data-name="Path 148035" d="M209,55.8h9c3.3,0,6,2.25,6,5h0c0,2.75-2.7,5-6,5h-9c-3.3,0-6-2.25-6-5h0C203,58.05,205.7,55.8,209,55.8Z" transform="translate(40.086 -4.063)" fill="none" stroke="#8131f4" stroke-miterlimit="10" stroke-width="0.5"/>
    <text id="Paesaggio_cosmico" data-name="Paesaggio cosmico" transform="translate(272.295 82.824)" font-size="9" font-family="HKGrotesk-Regular, HK Grotesk"><tspan x="0" y="0">Paesaggio cosmico</tspan></text>
    <g id="Group_24049" data-name="Group 24049" transform="translate(243.086 75.291)" clip-path="url(#clip-path-3)">
      <line id="Line_7731" data-name="Line 7731" x2="107.1" y2="89.25" transform="translate(-66 1.625)" fill="none" stroke="#0505c4" stroke-miterlimit="10" stroke-width="0.5"/>
      <line id="Line_7732" data-name="Line 7732" x2="107.1" y2="89.25" transform="translate(-62.4 0.125)" fill="none" stroke="#0505c4" stroke-miterlimit="10" stroke-width="0.5"/>
      <line id="Line_7733" data-name="Line 7733" x2="107.1" y2="89.25" transform="translate(-58.8 -1.375)" fill="none" stroke="#0505c4" stroke-miterlimit="10" stroke-width="0.5"/>
      <line id="Line_7734" data-name="Line 7734" x2="107.1" y2="89.25" transform="translate(-55.2 -2.875)" fill="none" stroke="#0505c4" stroke-miterlimit="10" stroke-width="0.5"/>
      <line id="Line_7735" data-name="Line 7735" x2="107.1" y2="89.25" transform="translate(-51.6 -4.375)" fill="none" stroke="#0505c4" stroke-miterlimit="10" stroke-width="0.5"/>
      <line id="Line_7736" data-name="Line 7736" x2="107.1" y2="89.25" transform="translate(-48 -5.875)" fill="none" stroke="#0505c4" stroke-miterlimit="10" stroke-width="0.5"/>
      <line id="Line_7737" data-name="Line 7737" x2="107.1" y2="89.25" transform="translate(-44.4 -7.375)" fill="none" stroke="#0505c4" stroke-miterlimit="10" stroke-width="0.5"/>
      <line id="Line_7738" data-name="Line 7738" x2="107.1" y2="89.25" transform="translate(-40.8 -8.875)" fill="none" stroke="#0505c4" stroke-miterlimit="10" stroke-width="0.5"/>
      <line id="Line_7739" data-name="Line 7739" x2="107.1" y2="89.25" transform="translate(-37.2 -10.375)" fill="none" stroke="#0505c4" stroke-miterlimit="10" stroke-width="0.5"/>
      <line id="Line_7740" data-name="Line 7740" x2="107.1" y2="89.25" transform="translate(-33.6 -11.875)" fill="none" stroke="#0505c4" stroke-miterlimit="10" stroke-width="0.5"/>
      <line id="Line_7741" data-name="Line 7741" x2="107.1" y2="89.25" transform="translate(-30 -13.375)" fill="none" stroke="#0505c4" stroke-miterlimit="10" stroke-width="0.5"/>
      <line id="Line_7742" data-name="Line 7742" x2="107.1" y2="89.25" transform="translate(-26.4 -14.875)" fill="none" stroke="#0505c4" stroke-miterlimit="10" stroke-width="0.5"/>
      <line id="Line_7743" data-name="Line 7743" x2="107.1" y2="89.25" transform="translate(-22.8 -16.375)" fill="none" stroke="#0505c4" stroke-miterlimit="10" stroke-width="0.5"/>
      <line id="Line_7744" data-name="Line 7744" x2="107.1" y2="89.25" transform="translate(-19.2 -17.875)" fill="none" stroke="#0505c4" stroke-miterlimit="10" stroke-width="0.5"/>
      <line id="Line_7745" data-name="Line 7745" x2="107.1" y2="89.25" transform="translate(-15.6 -19.375)" fill="none" stroke="#0505c4" stroke-miterlimit="10" stroke-width="0.5"/>
      <line id="Line_7746" data-name="Line 7746" x2="107.1" y2="89.25" transform="translate(-12 -20.875)" fill="none" stroke="#0505c4" stroke-miterlimit="10" stroke-width="0.5"/>
      <line id="Line_7747" data-name="Line 7747" x2="107.1" y2="89.25" transform="translate(-8.4 -22.375)" fill="none" stroke="#0505c4" stroke-miterlimit="10" stroke-width="0.5"/>
      <line id="Line_7748" data-name="Line 7748" x2="107.1" y2="89.25" transform="translate(-4.8 -23.875)" fill="none" stroke="#0505c4" stroke-miterlimit="10" stroke-width="0.5"/>
      <line id="Line_7749" data-name="Line 7749" x2="107.1" y2="89.25" transform="translate(-1.2 -25.375)" fill="none" stroke="#0505c4" stroke-miterlimit="10" stroke-width="0.5"/>
      <line id="Line_7750" data-name="Line 7750" x2="107.1" y2="89.25" transform="translate(2.4 -26.875)" fill="none" stroke="#0505c4" stroke-miterlimit="10" stroke-width="0.5"/>
      <line id="Line_7751" data-name="Line 7751" x2="107.1" y2="89.25" transform="translate(6 -28.375)" fill="none" stroke="#0505c4" stroke-miterlimit="10" stroke-width="0.5"/>
    </g>
    <path id="Path_148037" data-name="Path 148037" d="M209,76.2h9c3.3,0,6,2.25,6,5h0c0,2.75-2.7,5-6,5h-9c-3.3,0-6-2.25-6-5h0C203,78.45,205.7,76.2,209,76.2Z" transform="translate(40.086 -0.909)" fill="none" stroke="#0505c4" stroke-miterlimit="10" stroke-width="0.5"/>
    <text id="Assenza_di_contesto" data-name="Assenza di contesto" transform="translate(272.295 106.297)" font-size="9" font-family="HKGrotesk-Regular, HK Grotesk"><tspan x="0" y="0">Assenza di contesto</tspan></text>
    <g id="Group_24051" data-name="Group 24051" transform="translate(243.086 98.729)" clip-path="url(#clip-path-4)">
      <line id="Line_7752" data-name="Line 7752" x2="107.1" y2="89.25" transform="translate(-66 1.625)" fill="none" stroke="#869fd1" stroke-miterlimit="10" stroke-width="0.5"/>
      <line id="Line_7753" data-name="Line 7753" x2="107.1" y2="89.25" transform="translate(-62.4 0.125)" fill="none" stroke="#869fd1" stroke-miterlimit="10" stroke-width="0.5"/>
      <line id="Line_7754" data-name="Line 7754" x2="107.1" y2="89.25" transform="translate(-58.8 -1.375)" fill="none" stroke="#869fd1" stroke-miterlimit="10" stroke-width="0.5"/>
      <line id="Line_7755" data-name="Line 7755" x2="107.1" y2="89.25" transform="translate(-55.2 -2.875)" fill="none" stroke="#869fd1" stroke-miterlimit="10" stroke-width="0.5"/>
      <line id="Line_7756" data-name="Line 7756" x2="107.1" y2="89.25" transform="translate(-51.6 -4.375)" fill="none" stroke="#869fd1" stroke-miterlimit="10" stroke-width="0.5"/>
      <line id="Line_7757" data-name="Line 7757" x2="107.1" y2="89.25" transform="translate(-48 -5.875)" fill="none" stroke="#869fd1" stroke-miterlimit="10" stroke-width="0.5"/>
      <line id="Line_7758" data-name="Line 7758" x2="107.1" y2="89.25" transform="translate(-44.4 -7.375)" fill="none" stroke="#869fd1" stroke-miterlimit="10" stroke-width="0.5"/>
      <line id="Line_7759" data-name="Line 7759" x2="107.1" y2="89.25" transform="translate(-40.8 -8.875)" fill="none" stroke="#869fd1" stroke-miterlimit="10" stroke-width="0.5"/>
      <line id="Line_7760" data-name="Line 7760" x2="107.1" y2="89.25" transform="translate(-37.2 -10.375)" fill="none" stroke="#869fd1" stroke-miterlimit="10" stroke-width="0.5"/>
      <line id="Line_7761" data-name="Line 7761" x2="107.1" y2="89.25" transform="translate(-33.6 -11.875)" fill="none" stroke="#869fd1" stroke-miterlimit="10" stroke-width="0.5"/>
      <line id="Line_7762" data-name="Line 7762" x2="107.1" y2="89.25" transform="translate(-30 -13.375)" fill="none" stroke="#869fd1" stroke-miterlimit="10" stroke-width="0.5"/>
      <line id="Line_7763" data-name="Line 7763" x2="107.1" y2="89.25" transform="translate(-26.4 -14.875)" fill="none" stroke="#869fd1" stroke-miterlimit="10" stroke-width="0.5"/>
      <line id="Line_7764" data-name="Line 7764" x2="107.1" y2="89.25" transform="translate(-22.8 -16.375)" fill="none" stroke="#869fd1" stroke-miterlimit="10" stroke-width="0.5"/>
      <line id="Line_7765" data-name="Line 7765" x2="107.1" y2="89.25" transform="translate(-19.2 -17.875)" fill="none" stroke="#869fd1" stroke-miterlimit="10" stroke-width="0.5"/>
      <line id="Line_7766" data-name="Line 7766" x2="107.1" y2="89.25" transform="translate(-15.6 -19.375)" fill="none" stroke="#869fd1" stroke-miterlimit="10" stroke-width="0.5"/>
      <line id="Line_7767" data-name="Line 7767" x2="107.1" y2="89.25" transform="translate(-12 -20.875)" fill="none" stroke="#869fd1" stroke-miterlimit="10" stroke-width="0.5"/>
      <line id="Line_7768" data-name="Line 7768" x2="107.1" y2="89.25" transform="translate(-8.4 -22.375)" fill="none" stroke="#869fd1" stroke-miterlimit="10" stroke-width="0.5"/>
      <line id="Line_7769" data-name="Line 7769" x2="107.1" y2="89.25" transform="translate(-4.8 -23.875)" fill="none" stroke="#869fd1" stroke-miterlimit="10" stroke-width="0.5"/>
      <line id="Line_7770" data-name="Line 7770" x2="107.1" y2="89.25" transform="translate(-1.2 -25.375)" fill="none" stroke="#869fd1" stroke-miterlimit="10" stroke-width="0.5"/>
      <line id="Line_7771" data-name="Line 7771" x2="107.1" y2="89.25" transform="translate(2.4 -26.875)" fill="none" stroke="#869fd1" stroke-miterlimit="10" stroke-width="0.5"/>
      <line id="Line_7772" data-name="Line 7772" x2="107.1" y2="89.25" transform="translate(6 -28.375)" fill="none" stroke="#869fd1" stroke-miterlimit="10" stroke-width="0.5"/>
    </g>
    <path id="Path_148039" data-name="Path 148039" d="M209,96.5h9c3.3,0,6,2.25,6,5h0c0,2.75-2.7,5-6,5h-9c-3.3,0-6-2.25-6-5h0C203,98.75,205.7,96.5,209,96.5Z" transform="translate(40.086 2.229)" fill="none" stroke="#869fd1" stroke-miterlimit="10" stroke-width="0.5"/>
    <text id="TEMPO_DELLA_STORIA" data-name="TEMPO DELLA STORIA" transform="translate(0 13)" font-size="13" font-family="HKGrotesk-Medium, HK Grotesk" font-weight="500"><tspan x="0" y="0">TEMPO DELLA STORIA</tspan></text>
    <text id="CONTESTI" transform="translate(243.086 12)" font-size="12" font-family="HKGrotesk-Medium, HK Grotesk" font-weight="500"><tspan x="0" y="0">CONTESTI</tspan></text>
    <text id="Numero_di_occorrenze" data-name="Numero di occorrenze" transform="translate(419.82 34.764)" font-size="9" font-family="HKGrotesk-Regular, HK Grotesk"><tspan x="0" y="0">Numero di occorrenze</tspan></text>
    <circle id="Ellipse_33203" data-name="Ellipse 33203" cx="2.89" cy="2.89" r="2.89" transform="translate(397.074 31.531)" fill="none" stroke="#000" stroke-miterlimit="10" stroke-width="0.25"/>
    <circle id="Ellipse_33204" data-name="Ellipse 33204" cx="6.357" cy="6.357" r="6.357" transform="translate(393.606 24.596)" fill="none" stroke="#000" stroke-miterlimit="10" stroke-width="0.25"/>
    <text id="DIMENSIONE" transform="translate(391.086 12)" font-size="12" font-family="HKGrotesk-Medium, HK Grotesk" font-weight="500"><tspan x="0" y="0">DIMENSIONE</tspan></text>
    <g id="Group_24681" data-name="Group 24681">
      <path id="Path_148042" data-name="Path 148042" d="M7.5,97.2h9c3.3,0,6,2.25,6,5h0c0,2.75-2.7,5-6,5h-9c-3.3,0-6-2.25-6-5h0C1.5,99.45,4.2,97.2,7.5,97.2Z" transform="translate(0 2.337)" fill="none" stroke="#000" stroke-miterlimit="10" stroke-width="0.25"/>
      <path id="Path_148043" data-name="Path 148043" d="M7.5,128h9c3.3,0,6,2.25,6,5h0c0,2.75-2.7,5-6,5h-9c-3.3,0-6-2.25-6-5h0C1.5,130.25,4.2,128,7.5,128Z" transform="translate(0 7.099)" fill="none" stroke="red" stroke-miterlimit="10" stroke-width="0.5" stroke-dasharray="2 2"/>
      <text id="Luoghi_scomparsi_dalla_narrazione" data-name="Luoghi scomparsi dalla narrazione" transform="translate(29 142.667)" font-size="9" font-family="HKGrotesk-Regular, HK Grotesk"><tspan x="0" y="0">Luoghi scomparsi dalla narrazione</tspan></text>
      <text id="Ambientazioni_di_testi_in_cui_presente_e_passato_si_fondono_in_un_testo_misto" data-name="Ambientazioni di testi in cui presente
e passato si fondono in un testo misto" transform="translate(29 97)" font-size="9" font-family="HKGrotesk-Regular, HK Grotesk"><tspan x="0" y="8">Ambientazioni di testi in cui presente</tspan><tspan x="0" y="19">e passato si fondono in un </tspan><tspan y="19" font-family="HKGrotesk-Medium, HK Grotesk" font-weight="500">testo misto</tspan></text>
      <text id="Ambientazioni_di_testi_in_cui_il_tempo_della_storia_è_collocato_in_un_tempo_indefinito_" data-name="Ambientazioni di testi in cui il tempo
della storia è collocato in un tempo indefinito " transform="translate(30 25)" font-size="9" font-family="HKGrotesk-Regular, HK Grotesk"><tspan x="0" y="8">Ambientazioni di testi in cui il tempo</tspan><tspan x="0" y="19">della storia è collocato in un </tspan><tspan y="19" font-family="HKGrotesk-Medium, HK Grotesk" font-weight="500">tempo indefinito </tspan></text>
      <text id="Ambientazioni_di_testi_in_cui_il_tempo_della_storia_è_collocato_nel_passato" data-name="Ambientazioni di testi in cui il tempo
della storia è collocato nel passato" transform="translate(30 61)" font-size="9" font-family="HKGrotesk-Regular, HK Grotesk"><tspan x="0" y="8">Ambientazioni di testi in cui il tempo</tspan><tspan x="0" y="19">della storia è collocato nel </tspan><tspan y="19" font-family="HKGrotesk-MediumLegacy, HK Grotesk" font-weight="500">passato</tspan></text>
      <path id="Path_157234" data-name="Path 157234" d="M7.654,76.8C4.585,76.8,2,74.514,2,71.8s2.585-5,5.654-5h9.692c3.069,0,5.654,2.286,5.654,5s-2.585,5-5.654,5Z" transform="translate(-1 -5.309)" fill="#dbdbdb"/>
      <g id="Group_24680" data-name="Group 24680">
        <g id="Group_24678" data-name="Group 24678" transform="translate(0.703 26.322)" clip-path="url(#clip-path-5)">
          <line id="Line_7918" data-name="Line 7918" x2="107.1" y2="89.25" transform="translate(-66 1.625)" fill="none" stroke="#0d1b3a" stroke-miterlimit="10" stroke-width="0.25"/>
          <line id="Line_7919" data-name="Line 7919" x2="107.1" y2="89.25" transform="translate(-62.4 0.125)" fill="none" stroke="#0d1b3a" stroke-miterlimit="10" stroke-width="0.25"/>
          <line id="Line_7920" data-name="Line 7920" x2="107.1" y2="89.25" transform="translate(-58.8 -1.375)" fill="none" stroke="#0d1b3a" stroke-miterlimit="10" stroke-width="0.25"/>
          <line id="Line_7921" data-name="Line 7921" x2="107.1" y2="89.25" transform="translate(-55.2 -2.875)" fill="none" stroke="#0d1b3a" stroke-miterlimit="10" stroke-width="0.25"/>
          <line id="Line_7922" data-name="Line 7922" x2="107.1" y2="89.25" transform="translate(-51.6 -4.375)" fill="none" stroke="#0d1b3a" stroke-miterlimit="10" stroke-width="0.25"/>
          <line id="Line_7923" data-name="Line 7923" x2="107.1" y2="89.25" transform="translate(-48 -5.875)" fill="none" stroke="#0d1b3a" stroke-miterlimit="10" stroke-width="0.25"/>
          <line id="Line_7924" data-name="Line 7924" x2="107.1" y2="89.25" transform="translate(-44.4 -7.375)" fill="none" stroke="#0d1b3a" stroke-miterlimit="10" stroke-width="0.25"/>
          <line id="Line_7925" data-name="Line 7925" x2="107.1" y2="89.25" transform="translate(-40.8 -8.875)" fill="none" stroke="#0d1b3a" stroke-miterlimit="10" stroke-width="0.25"/>
          <line id="Line_7926" data-name="Line 7926" x2="107.1" y2="89.25" transform="translate(-37.2 -10.375)" fill="none" stroke="#0d1b3a" stroke-miterlimit="10" stroke-width="0.25"/>
          <line id="Line_7927" data-name="Line 7927" x2="107.1" y2="89.25" transform="translate(-33.6 -11.875)" fill="none" stroke="#0d1b3a" stroke-miterlimit="10" stroke-width="0.25"/>
          <line id="Line_7928" data-name="Line 7928" x2="107.1" y2="89.25" transform="translate(-30 -13.375)" fill="none" stroke="#0d1b3a" stroke-miterlimit="10" stroke-width="0.25"/>
          <line id="Line_7929" data-name="Line 7929" x2="107.1" y2="89.25" transform="translate(-26.4 -14.875)" fill="none" stroke="#0d1b3a" stroke-miterlimit="10" stroke-width="0.25"/>
          <line id="Line_7930" data-name="Line 7930" x2="107.1" y2="89.25" transform="translate(-22.8 -16.375)" fill="none" stroke="#0d1b3a" stroke-miterlimit="10" stroke-width="0.25"/>
          <line id="Line_7931" data-name="Line 7931" x2="107.1" y2="89.25" transform="translate(-19.2 -17.875)" fill="none" stroke="#0d1b3a" stroke-miterlimit="10" stroke-width="0.25"/>
          <line id="Line_7932" data-name="Line 7932" x2="107.1" y2="89.25" transform="translate(-15.6 -19.375)" fill="none" stroke="#0d1b3a" stroke-miterlimit="10" stroke-width="0.25"/>
          <line id="Line_7933" data-name="Line 7933" x2="107.1" y2="89.25" transform="translate(-12 -20.875)" fill="none" stroke="#0d1b3a" stroke-miterlimit="10" stroke-width="0.25"/>
          <line id="Line_7934" data-name="Line 7934" x2="107.1" y2="89.25" transform="translate(-8.4 -22.375)" fill="none" stroke="#0d1b3a" stroke-miterlimit="10" stroke-width="0.25"/>
          <line id="Line_7935" data-name="Line 7935" x2="107.1" y2="89.25" transform="translate(-4.8 -23.875)" fill="none" stroke="#0d1b3a" stroke-miterlimit="10" stroke-width="0.25"/>
          <line id="Line_7936" data-name="Line 7936" x2="107.1" y2="89.25" transform="translate(-1.2 -25.375)" fill="none" stroke="#0d1b3a" stroke-miterlimit="10" stroke-width="0.25"/>
          <line id="Line_7937" data-name="Line 7937" x2="107.1" y2="89.25" transform="translate(2.4 -26.875)" fill="none" stroke="#0d1b3a" stroke-miterlimit="10" stroke-width="0.25"/>
          <line id="Line_7938" data-name="Line 7938" x2="107.1" y2="89.25" transform="translate(6 -28.375)" fill="none" stroke="#0d1b3a" stroke-miterlimit="10" stroke-width="0.25"/>
        </g>
        <path id="Path_157233" data-name="Path 157233" d="M209.5,35.5h9c3.3,0,6,2.25,6,5h0c0,2.75-2.7,5-6,5h-9c-3.3,0-6-2.25-6-5h0C203.5,37.75,206.2,35.5,209.5,35.5Z" transform="translate(-202.797 -9.178)" fill="none" stroke="#0d1b3a" stroke-miterlimit="10" stroke-width="0.25"/>
      </g>
    </g>
  </g>
</svg>
