<?xml version="1.0" encoding="utf-8"?>
<!-- Generator: Adobe Illustrator 24.0.1, SVG Export Plug-In . SVG Version: 6.00 Build 0)  -->
<svg version="1.1" xmlns="http://www.w3.org/2000/svg" xmlns:xlink="http://www.w3.org/1999/xlink" x="0px" y="0px"
	 viewBox="0 0 578.6 110.6" style="enable-background:new 0 0 578.6 110.6;" xml:space="preserve">
<style type="text/css">
	.st0{display:none;}
	.st1{display:none;fill:#F8F8FF;stroke:#000000;stroke-width:0.523;stroke-miterlimit:10;}
	.st2{display:none;fill:none;stroke:#000000;stroke-width:0.5011;stroke-miterlimit:10;}
	.st3{fill:none;stroke:#000000;stroke-width:0.5011;stroke-miterlimit:10;}
	.st4{opacity:0.5;}
	.st5{fill:url(#);}
	.st6{fill:none;stroke:#000000;stroke-width:0.5275;stroke-miterlimit:10;}
	.st7{fill:none;stroke:#000000;stroke-width:0.5;stroke-miterlimit:10;}
	.st8{fill:none;stroke:#000000;stroke-width:0.5058;stroke-miterlimit:10;}
	.st9{font-family:'HKGrotesk-Medium';}
	.st10{font-size:12px;}
	.st11{clip-path:url(#SVGID_2_);fill:none;stroke:#4F4F4F;stroke-width:0.5;stroke-miterlimit:10;}
	.st12{clip-path:url(#SVGID_4_);fill:none;stroke:#0D1B3A;stroke-width:0.25;stroke-miterlimit:10;}
	.st13{clip-path:url(#SVGID_6_);fill:none;stroke:#00FFB6;stroke-width:0.5;stroke-miterlimit:10;}
	.st14{clip-path:url(#SVGID_8_);fill:none;stroke:#D34709;stroke-width:0.5;stroke-miterlimit:10;}
	.st15{clip-path:url(#SVGID_10_);fill:none;stroke:#C17B0C;stroke-width:0.5;stroke-miterlimit:10;}
	.st16{fill:#DBDBDB;}
	.st17{fill:none;stroke:#000000;stroke-width:0.25;stroke-miterlimit:10;}
	.st18{clip-path:url(#SVGID_12_);fill:none;stroke:#4F4F4F;stroke-width:0.5;stroke-miterlimit:10;}
	.st19{clip-path:url(#SVGID_14_);fill:none;stroke:#FF3366;stroke-width:0.5;stroke-miterlimit:10;}
	.st20{clip-path:url(#SVGID_16_);fill:none;stroke:#8131F4;stroke-width:0.5;stroke-miterlimit:10;}
	.st21{clip-path:url(#SVGID_18_);fill:none;stroke:#0505C4;stroke-width:0.5;stroke-miterlimit:10;}
	.st22{clip-path:url(#SVGID_20_);fill:none;stroke:#869FD1;stroke-width:0.5;stroke-miterlimit:10;}
	.st23{fill:none;stroke:#FF0000;stroke-width:0.5;stroke-miterlimit:10;stroke-dasharray:2,2;}
	.st24{clip-path:url(#SVGID_22_);fill:none;stroke:#4F4F4F;stroke-width:0.5;stroke-miterlimit:10;}
	.st25{clip-path:url(#SVGID_24_);fill:none;stroke:#FF3366;stroke-width:0.5;stroke-miterlimit:10;}
	.st26{clip-path:url(#SVGID_26_);fill:none;stroke:#8131F4;stroke-width:0.5;stroke-miterlimit:10;}
	.st27{clip-path:url(#SVGID_28_);fill:none;stroke:#0505C4;stroke-width:0.5;stroke-miterlimit:10;}
	.st28{clip-path:url(#SVGID_30_);fill:none;stroke:#ED6826;stroke-width:0.5;stroke-miterlimit:10;}
	.st29{clip-path:url(#SVGID_32_);fill:none;stroke:#00FFB6;stroke-width:0.5;stroke-miterlimit:10;}
	.st30{clip-path:url(#SVGID_34_);fill:none;stroke:#4F4F4F;stroke-width:0.5;stroke-miterlimit:10;}
	.st31{fill:#6E6E6E;}
	.st32{fill:#FFDA40;}
	.st33{fill:#FF916B;}
	.st34{fill:#40E6FD;}
	.st35{fill:#40D1B5;}
	.st36{fill:#8383FF;}
	.st37{fill:#FFFFFF;}
	.st38{font-family:'HKGrotesk-Light';}
	.st39{font-size:8px;}
	.st40{fill:#00BFD3;}
	.st41{fill:#FFA500;}
	.st42{opacity:0.5;fill:#FFA500;}
	.st43{opacity:0.5;fill:#00BFD3;}
	.st44{fill:none;}
	.st45{clip-path:url(#SVGID_36_);}
	.st46{fill-rule:evenodd;clip-rule:evenodd;fill:#A5A5A5;}
	.st47{fill:#A5A5A5;}
	.st48{fill:#A5A5A5;fill-opacity:0;}
	.st49{opacity:0.2;}
	.st50{clip-path:url(#SVGID_38_);}
	.st51{clip-path:url(#SVGID_40_);}
	.st52{clip-path:url(#SVGID_42_);}
	.st53{clip-path:url(#SVGID_44_);}
</style>
<g id="Layer_4" class="st0">
</g>
<g id="Layer_1">
</g>
<g id="legenda">
	<g>
		<text transform="matrix(1 0 0 1 7.5519 17.7791)" class="st9 st10">TEMPO DELLA STORIA</text>
	</g>
	<g>
		<text transform="matrix(1 0 0 1 276.1853 17.7791)" class="st9 st10">DECENNI DI SCRITTURA</text>
	</g>
</g>
<g id="Isolation_Mode">
	<g>
		<path class="st37" d="M11.1,38.9c-2.1,0-3.8-1.7-3.8-3.8s1.7-3.8,3.8-3.8h6c2.1,0,3.8,1.7,3.8,3.8s-1.7,3.8-3.8,3.8H11.1z"/>
		<path d="M17.1,31.7c1.9,0,3.5,1.6,3.5,3.5s-1.6,3.5-3.5,3.5h-6c-1.9,0-3.5-1.6-3.5-3.5s1.6-3.5,3.5-3.5H17.1 M17.1,31.2h-6
			c-2.2,0-4,1.8-4,4s1.8,4,4,4h6c2.2,0,4-1.8,4-4S19.3,31.2,17.1,31.2L17.1,31.2z"/>
	</g>
	<circle cx="14.1" cy="35.2" r="0.7"/>
	<g>
		<g>
			<text transform="matrix(1 0 0 1 294.2029 66.944)"><tspan x="0" y="0" class="st38 st39">Ambientazioni di testi scritti </tspan><tspan x="0" y="9.6" class="st38 st39">tra il 1945 e il 1955</tspan></text>
		</g>
		<path class="st33" d="M283.4,68.2h-6c-2.2,0-4-1.8-4-4v0c0-2.2,1.8-4,4-4h6c2.2,0,4,1.8,4,4v0C287.4,66.4,285.6,68.2,283.4,68.2z"
			/>
	</g>
	<g>
		<g>
			<text transform="matrix(1 0 0 1 293.936 95.9125)"><tspan x="0" y="0" class="st38 st39">Ambientazioni di testi scritti</tspan><tspan x="0" y="9.6" class="st38 st39">tra il 1956 e il 1965</tspan></text>
		</g>
		<path class="st34" d="M283.2,97.1h-6c-2.2,0-4-1.8-4-4v0c0-2.2,1.8-4,4-4h6c2.2,0,4,1.8,4,4v0C287.2,95.3,285.4,97.1,283.2,97.1z"
			/>
	</g>
	<g>
		<g>
			<text transform="matrix(1 0 0 1 472.844 37.9755)"><tspan x="0" y="0" class="st38 st39">Ambientazioni di testi scritti</tspan><tspan x="0" y="9.6" class="st38 st39">tra il 1966 e il 1975</tspan></text>
		</g>
		<path class="st35" d="M462.1,39.2h-6c-2.2,0-4-1.8-4-4v0c0-2.2,1.8-4,4-4h6c2.2,0,4,1.8,4,4v0C466.1,37.4,464.3,39.2,462.1,39.2z"
			/>
	</g>
	<g>
		<g>
			<text transform="matrix(1 0 0 1 472.844 66.9441)"><tspan x="0" y="0" class="st38 st39">Ambientazioni di testi scritti</tspan><tspan x="0" y="9.6" class="st38 st39">tra il 1976  e il 1985</tspan></text>
		</g>
		<path class="st36" d="M462.1,68.5h-6c-2.2,0-4-1.8-4-4v0c0-2.2,1.8-4,4-4h6c2.2,0,4,1.8,4,4v0C466.1,66.7,464.3,68.5,462.1,68.5z"
			/>
	</g>
	<g>
		<path class="st31" d="M17.1,69.3h-6c-2.2,0-4-1.8-4-4v0c0-2.2,1.8-4,4-4h6c2.2,0,4,1.8,4,4v0C21.1,67.5,19.3,69.3,17.1,69.3z"/>
		<g>
			<g>
				<rect x="24.8" y="60.2" class="st44" width="154.4" height="53.4"/>
				<text transform="matrix(1 0 0 1 24.7794 66.9438)"><tspan x="0" y="0" class="st38 st39">A</tspan><tspan x="5.1" y="0" class="st38 st39">mbientazioni di </tspan><tspan x="61.6" y="0" class="st38 st39">t</tspan><tspan x="64.2" y="0" class="st38 st39">esti in </tspan><tspan x="87.3" y="0" class="st38 st39">c</tspan><tspan x="91.3" y="0" class="st38 st39">ui il </tspan><tspan x="106" y="0" class="st38 st39">t</tspan><tspan x="108.5" y="0" class="st38 st39">empo della </tspan><tspan x="0" y="9.6" class="st38 st39">storia è collocato nel </tspan><tspan x="76.8" y="9.6" class="st9 st39">presente </tspan><tspan x="0" y="19.2" class="st38 st39">o in cui presente e passato si fondono in </tspan><tspan x="0" y="28.8" class="st38 st39">un </tspan><tspan x="11" y="28.8" class="st9 st39">tempo misto</tspan><tspan x="55.8" y="28.8" class="st38 st39">. </tspan></text>
			</g>
		</g>
	</g>
	<g>
		<g>
			<g>
				<rect x="25.2" y="31.2" class="st44" width="172.7" height="24.5"/>
				<text transform="matrix(1 0 0 1 25.1739 37.976)"><tspan x="0" y="0" class="st38 st39">Ambientazioni di testi in cui il tempo  della </tspan><tspan x="0" y="9.6" class="st38 st39">storia è collocato in un </tspan><tspan x="83.3" y="9.6" class="st9 st39">tempo indefinito</tspan><tspan x="141.9" y="9.6" class="st38 st39">.</tspan></text>
			</g>
		</g>
	</g>
	<g>
		<g>
			<text transform="matrix(1 0 0 1 294.2029 37.9757)"><tspan x="0" y="0" class="st38 st39">Luoghi d’ambientazione ricorrenti</tspan><tspan x="0" y="9.6" class="st38 st39">che attraversano più di un decennio</tspan></text>
		</g>
		<path class="st32" d="M283.4,39.2h-6c-2.2,0-4-1.8-4-4v0c0-2.2,1.8-4,4-4h6c2.2,0,4,1.8,4,4v0C287.4,37.4,285.6,39.2,283.4,39.2z"
			/>
	</g>
</g>
<g id="Layer_6">
</g>
<g id="Livello_3">
</g>
<g id="Tavola_2">
</g>
</svg>
