<svg xmlns="http://www.w3.org/2000/svg" xmlns:xlink="http://www.w3.org/1999/xlink" width="600" height="103" viewBox="0 0 600 103"><defs><clipPath id="b"><rect width="600" height="103"/></clipPath></defs><g id="a" clip-path="url(#b)"><text transform="translate(0.452 12)" font-size="12" font-family="HKGrotesk-Medium, HK Grotesk" font-weight="500"><tspan x="0" y="0">TEMPO DELLA STORIA</tspan></text><text transform="translate(243.086 12)" font-size="12" font-family="HKGrotesk-Medium, HK Grotesk" font-weight="500"><tspan x="0" y="0">DECENNI DI SCRITTURA</tspan></text><path d="M13.168,41.3c-3.243,0-5.868-2.237-5.868-5s2.625-5,5.868-5h9.265c3.243,0,5.868,2.237,5.868,5s-2.625,5-5.868,5Z" transform="translate(-7.1 -7.8)" fill="#fff" stroke="#000" stroke-width="0.5"/><circle cx="0.7" cy="0.7" r="0.7" transform="translate(10.3 27.721)"/><path d="M288.4,70.2h-9c-3.3,0-6-2.25-6-5h0c0-2.75,2.7-5,6-5h9c3.3,0,6,2.25,6,5h0C294.4,67.95,291.7,70.2,288.4,70.2Z" transform="translate(-30.4 -6.779)" fill="#ff916b"/><path d="M288.2,99.1h-9c-3.3,0-6-2.25-6-5h0c0-2.75,2.7-5,6-5h9c3.3,0,6,2.25,6,5h0C294.2,96.85,291.5,99.1,288.2,99.1Z" transform="translate(-30.2 -6.779)" fill="#40e6fd"/><path d="M467.1,41.2h-9c-3.3,0-6-2.25-6-5h0c0-2.75,2.7-5,6-5h9c3.3,0,6,2.25,6,5h0C473.1,38.95,470.4,41.2,467.1,41.2Z" transform="translate(-7.1 -8.2)" fill="#40d1b5"/><path d="M467.1,70.5h-9c-3.3,0-6-2.25-6-5h0c0-2.75,2.7-5,6-5h9c3.3,0,6,2.25,6,5h0C473.1,68.25,470.4,70.5,467.1,70.5Z" transform="translate(-7.1 -7.779)" fill="#8383ff"/><path d="M22.1,71.3h-9c-3.3,0-6-2.25-6-5h0c0-2.75,2.7-5,6-5h9c3.3,0,6,2.25,6,5h0C28.1,69.05,25.4,71.3,22.1,71.3Z" transform="translate(-7.1 -7.779)" fill="#6e6e6e"/><text transform="translate(30 54)" font-size="10" font-family="HKGrotesk-Regular, HK Grotesk"><tspan x="0" y="9">Ambientazioni di testi in cui </tspan><tspan x="0" y="21">il tempo della storia è collocato nella </tspan><tspan x="0" y="33" font-family="HKGrotesk-Medium, HK Grotesk" font-weight="500">contemporaneità</tspan><tspan y="33" xml:space="preserve"> o in cui presente e </tspan><tspan x="0" y="45">passato si fondono in un </tspan><tspan y="45" font-family="HKGrotesk-Medium, HK Grotesk" font-weight="500">tempo misto</tspan></text><path d="M288.4,41.2h-9c-3.3,0-6-2.25-6-5h0c0-2.75,2.7-5,6-5h9c3.3,0,6,2.25,6,5h0C294.4,38.95,291.7,41.2,288.4,41.2Z" transform="translate(-30.4 -8.2)" fill="#ffda40"/><text transform="translate(30 23)" font-size="10" font-family="HKGrotesk-Regular, HK Grotesk"><tspan x="0" y="9">Ambientazioni di testi in cui il tempo</tspan><tspan x="0" y="21">della storia è collocato in un </tspan><tspan y="21" font-family="HKGrotesk-Medium, HK Grotesk" font-weight="500">tempo indefinito </tspan></text><text transform="translate(272 23)" font-size="10" font-family="HKGrotesk-Regular, HK Grotesk"><tspan x="0" y="9">Luoghi d’ambientazione ricorrenti </tspan><tspan x="0" y="21">che attraversano più di un decennio</tspan></text><text transform="translate(272 52)" font-size="10" font-family="HKGrotesk-Regular, HK Grotesk"><tspan x="0" y="9">Ambientazioni di testi scritti </tspan><tspan x="0" y="21">tra il 1945 e il 1955</tspan></text><text transform="translate(272 80)" font-size="10" font-family="HKGrotesk-Regular, HK Grotesk"><tspan x="0" y="9">Ambientazioni di testi scritti </tspan><tspan x="0" y="21">tra il 1956 e il 1965</tspan></text><text transform="translate(472 23)" font-size="10" font-family="HKGrotesk-Regular, HK Grotesk"><tspan x="0" y="9">Ambientazioni di testi scritti </tspan><tspan x="0" y="21">tra il 1966 e il 1975</tspan></text><text transform="translate(472 52)" font-size="10" font-family="HKGrotesk-Regular, HK Grotesk"><tspan x="0" y="9">Ambientazioni di testi scritti </tspan><tspan x="0" y="21">tra il 1976 e il 1985</tspan></text></g></svg>