<?xml version="1.0" encoding="utf-8"?>
<!-- Generator: Adobe Illustrator 24.3.0, SVG Export Plug-In . SVG Version: 6.00 Build 0)  -->
<svg version="1.1" id="Layer_1" xmlns="http://www.w3.org/2000/svg" xmlns:xlink="http://www.w3.org/1999/xlink" x="0px" y="0px"
	 viewBox="0 0 600 150" style="enable-background:new 0 0 600 150;" xml:space="preserve">
<style type="text/css">
	.st0{clip-path:url(#SVGID_2_);}
	.st1{fill:none;stroke:#FF3366;stroke-width:0.5;stroke-miterlimit:10;}
	.st2{clip-path:url(#SVGID_4_);}
	.st3{fill:none;stroke:#0505C4;stroke-width:0.5;stroke-miterlimit:10;}
	.st4{clip-path:url(#SVGID_6_);}
	.st5{fill:none;stroke:#869FD1;stroke-width:0.5;stroke-miterlimit:10;}
	.st6{font-family:'HKGrotesk-Medium';}
	.st7{font-size:12px;}
	.st8{fill:none;stroke:#000000;stroke-width:0.25;stroke-miterlimit:10;}
	.st9{fill:none;stroke:#FF0000;stroke-width:0.5;stroke-miterlimit:10;stroke-dasharray:2,2;}
	.st10{fill:#DBDBDB;}
	.st11{clip-path:url(#SVGID_8_);}
	.st12{fill:none;stroke:#0D1B3A;stroke-width:0.25;stroke-miterlimit:10;}
	.st13{clip-path:url(#SVGID_10_);}
	.st14{fill:none;stroke:#ED6826;stroke-width:0.5;stroke-miterlimit:10;}
</style>
<g>
	<g id="f">
		<path d="M299.2,34.9h0.7v-5.6l1.9,5.1h0.8l1.9-5.1v5.6h0.7v-6.2H304l-1.8,5l-1.8-5h-1.1V34.9z M308.4,34.9c0.6,0,1.2-0.2,1.7-0.7
			l-0.4-0.4c-0.3,0.3-0.8,0.5-1.2,0.5c-0.7,0-1.3-0.6-1.3-1.3c0-0.1,0-0.1,0-0.2h3.1c0-0.1,0-0.2,0-0.3c0-1-0.4-2.1-1.9-2.1
			c-1.1,0.1-2,1-1.9,2.1c0,0.1,0,0.1,0,0.2c-0.1,1.1,0.6,2.1,1.7,2.2C308.2,34.9,308.3,34.9,308.4,34.9z M307.1,32.4
			c0-0.7,0.4-1.4,1.2-1.4c0.9,0,1.2,0.7,1.2,1.4H307.1z M312.6,35c0.2,0,0.4,0,0.6-0.1v-0.6c-0.1,0.1-0.3,0.1-0.4,0.1
			c-0.3,0-0.6-0.2-0.6-0.7V31h1.1v-0.5h-1.1v-1.6l-0.7,0.6v1h-0.7V31h0.7v2.7C311.5,34.5,311.8,35,312.6,35L312.6,35z M314.2,34.9
			h0.6v-2.2c0-1.1,0.5-1.7,1.2-1.7c0.2,0,0.4,0,0.5,0.2l0.3-0.6c-0.2-0.2-0.5-0.2-0.7-0.2c-0.6,0-1.1,0.3-1.3,0.9v-0.8h-0.7
			L314.2,34.9z M319.1,35c1.2,0,2.1-1,2.1-2.2c0,0,0-0.1,0-0.1c0.1-1.2-0.8-2.2-2-2.3c0,0-0.1,0-0.1,0c-1.2,0-2.1,1-2.1,2.2
			c0,0,0,0.1,0,0.1C316.9,33.8,317.8,34.9,319.1,35C319,35,319,35,319.1,35L319.1,35z M319.1,34.4c-1,0-1.4-0.9-1.4-1.7
			s0.4-1.7,1.4-1.7c1,0,1.4,0.9,1.4,1.7C320.5,33.5,320,34.4,319.1,34.4L319.1,34.4z M322.3,36.8h0.7v-2.5c0.3,0.4,0.8,0.7,1.3,0.7
			c1.2,0,1.8-1,1.8-2.3c0-1.2-0.6-2.3-1.8-2.3c-0.5,0-1,0.2-1.3,0.7v-0.6h-0.7L322.3,36.8z M324.1,34.4c-0.9,0-1.3-0.8-1.3-1.7
			s0.4-1.7,1.3-1.7s1.3,0.8,1.3,1.7C325.4,33.6,325,34.4,324.1,34.4z M328.9,35c1.2,0,2.1-1,2.1-2.2c0,0,0-0.1,0-0.1
			c0.1-1.2-0.8-2.2-2-2.3c0,0-0.1,0-0.1,0c-1.2,0-2.1,1-2.1,2.2c0,0,0,0.1,0,0.1C326.8,33.8,327.7,34.9,328.9,35
			C328.9,35,328.9,35,328.9,35L328.9,35z M328.9,34.4c-1,0-1.4-0.9-1.4-1.7s0.4-1.7,1.4-1.7c1,0,1.4,0.9,1.4,1.7
			C330.4,33.5,329.9,34.4,328.9,34.4L328.9,34.4z M333,34.4c-0.2,0-0.2-0.2-0.2-0.2v-5.5h-0.7V34c0,0.5,0,1,0.7,1
			c0.2,0,0.4,0,0.6-0.1v-0.5C333.3,34.4,333.1,34.4,333,34.4L333,34.4z M334.4,29.5h0.7v-0.8h-0.7V29.5z M334.4,34.9h0.7v-4.4h-0.7
			V34.9z"/>
		<g>
			<defs>
				<path id="SVGID_1_" d="M275.1,28.3h9c3.3,0,6,2.2,6,5l0,0c0,2.8-2.7,5-6,5h-9c-3.3,0-6-2.2-6-5l0,0
					C269.1,30.5,271.8,28.3,275.1,28.3z"/>
			</defs>
			<clipPath id="SVGID_2_">
				<use xlink:href="#SVGID_1_"  style="overflow:visible;"/>
			</clipPath>
			<g transform="translate(269.086 28.299)" class="st0">
				<line class="st1" x1="-66" y1="1.6" x2="41.1" y2="90.9"/>
				<line class="st1" x1="-62.4" y1="0.1" x2="44.7" y2="89.4"/>
				<line class="st1" x1="-58.8" y1="-1.4" x2="48.3" y2="87.9"/>
				<line class="st1" x1="-55.2" y1="-2.9" x2="51.9" y2="86.4"/>
				<line class="st1" x1="-51.6" y1="-4.4" x2="55.5" y2="84.9"/>
				<line class="st1" x1="-48" y1="-5.9" x2="59.1" y2="83.4"/>
				<line class="st1" x1="-44.4" y1="-7.4" x2="62.7" y2="81.9"/>
				<line class="st1" x1="-40.8" y1="-8.9" x2="66.3" y2="80.4"/>
				<line class="st1" x1="-37.2" y1="-10.4" x2="69.9" y2="78.9"/>
				<line class="st1" x1="-33.6" y1="-11.9" x2="73.5" y2="77.4"/>
				<line class="st1" x1="-30" y1="-13.4" x2="77.1" y2="75.9"/>
				<line class="st1" x1="-26.4" y1="-14.9" x2="80.7" y2="74.4"/>
				<line class="st1" x1="-22.8" y1="-16.4" x2="84.3" y2="72.9"/>
				<line class="st1" x1="-19.2" y1="-17.9" x2="87.9" y2="71.4"/>
				<line class="st1" x1="-15.6" y1="-19.4" x2="91.5" y2="69.9"/>
				<line class="st1" x1="-12" y1="-20.9" x2="95.1" y2="68.4"/>
				<line class="st1" x1="-8.4" y1="-22.4" x2="98.7" y2="66.9"/>
				<line class="st1" x1="-4.8" y1="-23.9" x2="102.3" y2="65.4"/>
				<line class="st1" x1="-1.2" y1="-25.4" x2="105.9" y2="63.9"/>
				<line class="st1" x1="2.4" y1="-26.9" x2="109.5" y2="62.4"/>
				<line class="st1" x1="6" y1="-28.4" x2="113.1" y2="60.9"/>
			</g>
		</g>
		<path class="st1" d="M275.1,28.3h9c3.3,0,6,2.2,6,5l0,0c0,2.8-2.7,5-6,5h-9c-3.3,0-6-2.2-6-5l0,0
			C269.1,30.5,271.8,28.3,275.1,28.3z"/>
		<path d="M299.2,59.3h0.7v-2.8h1c1.2,0,2-0.6,2-1.7c0-1.1-0.8-1.7-2-1.7h-1.7V59.3z M299.9,55.9v-2.2h1c0.8,0,1.3,0.4,1.3,1.1
			c0,0.7-0.5,1.1-1.3,1.1L299.9,55.9z M304.9,59.4c0.7,0,1.3-0.3,1.5-0.9l0,0.8h0.6v-2.7c0.1-0.9-0.5-1.7-1.4-1.8
			c-0.1,0-0.2,0-0.3,0c-0.7,0-1.3,0.3-1.7,0.9l0.5,0.4c0.3-0.4,0.7-0.7,1.2-0.7c0.8,0,1.1,0.6,1.1,1.4h-1c-1.2,0-1.9,0.4-1.9,1.3
			c0,0.7,0.5,1.3,1.3,1.3C304.7,59.4,304.8,59.4,304.9,59.4z M304.9,58.9c-0.5,0-0.8-0.2-0.8-0.7c0-0.6,0.4-0.8,1.3-0.8h0.9
			C306.4,58.1,305.7,58.8,304.9,58.9L304.9,58.9z M310,59.4c0.6,0,1.2-0.2,1.7-0.7l-0.4-0.4c-0.3,0.3-0.8,0.5-1.2,0.5
			c-0.7,0-1.3-0.6-1.3-1.3c0-0.1,0-0.1,0-0.2h3.1c0-0.1,0-0.2,0-0.3c0-1-0.4-2.1-1.9-2.1c-1.1,0.1-2,1-1.9,2.1c0,0.1,0,0.1,0,0.2
			c-0.1,1.1,0.6,2.1,1.7,2.2C309.8,59.4,309.9,59.4,310,59.4L310,59.4z M308.7,56.8c0-0.7,0.4-1.4,1.2-1.4c0.9,0,1.2,0.7,1.2,1.4
			H308.7z M314.1,59.4c0.8,0.1,1.4-0.5,1.5-1.2c0,0,0-0.1,0-0.1c0-1.6-2.4-1.1-2.4-2.1c0-0.4,0.3-0.6,0.8-0.6c0.4,0,0.8,0.2,1,0.6
			l0.5-0.3c-0.3-0.5-0.8-0.9-1.4-0.9c-0.7-0.1-1.3,0.4-1.4,1.1c0,0,0,0.1,0,0.1c0,1.5,2.3,0.9,2.3,2.1c0,0.5-0.4,0.7-0.9,0.7
			c-0.5,0-1-0.3-1.1-0.8l-0.6,0.3C312.7,59,313.4,59.5,314.1,59.4L314.1,59.4z M317.7,59.4c0.7,0,1.3-0.3,1.5-0.9l0,0.8h0.6v-2.7
			c0.1-0.9-0.5-1.7-1.4-1.8c-0.1,0-0.2,0-0.3,0c-0.7,0-1.3,0.3-1.7,0.9l0.5,0.4c0.3-0.4,0.7-0.7,1.2-0.7c0.8,0,1.1,0.6,1.1,1.4h-1
			c-1.2,0-1.9,0.4-1.9,1.3c0,0.7,0.5,1.3,1.3,1.3C317.5,59.4,317.6,59.4,317.7,59.4L317.7,59.4z M317.7,58.9c-0.5,0-0.8-0.2-0.8-0.7
			c0-0.6,0.4-0.8,1.3-0.8h0.9C319.2,58.1,318.5,58.8,317.7,58.9L317.7,58.9z M322.7,58.8c-0.6-0.1-1.2-0.2-1.2-0.7
			c0-0.1,0.1-0.3,0.2-0.3c0.3,0.1,0.5,0.2,0.8,0.2c0.8,0.1,1.5-0.5,1.6-1.4c0,0,0-0.1,0-0.1c0-0.2-0.1-0.5-0.2-0.7l0.7-0.6l-0.4-0.5
			l-0.7,0.6c-0.3-0.3-0.7-0.4-1.1-0.4c-0.8-0.1-1.6,0.6-1.6,1.4c0,0,0,0.1,0,0.1c0,0.4,0.1,0.7,0.4,1c-0.2,0.2-0.3,0.4-0.3,0.7
			c0,0.4,0.2,0.7,0.6,0.9l-0.6,0.6c0,0.1,0,0.1,0,0.2c0,0.8,0.8,1.5,1.9,1.5c0.9,0,1.8-0.4,1.8-1.3C324.5,59,323.6,58.9,322.7,58.8
			L322.7,58.8z M322.5,55.4c0.5,0,1,0.4,1,0.9c0,0,0,0,0,0.1c0,0.5-0.3,0.9-0.8,1c0,0-0.1,0-0.1,0c-0.5,0-0.9-0.4-1-0.9
			c0,0,0-0.1,0-0.1C321.5,55.9,322,55.4,322.5,55.4C322.5,55.4,322.5,55.4,322.5,55.4L322.5,55.4z M322.8,60.8
			c-0.9,0-1.3-0.4-1.3-0.9l0.5-0.6c0.2,0,0.3,0.1,0.5,0.1c0.8,0.1,1.4,0.1,1.4,0.7C323.9,60.5,323.4,60.8,322.8,60.8L322.8,60.8z
			 M327.2,58.8c-0.6-0.1-1.2-0.2-1.2-0.7c0-0.1,0.1-0.3,0.2-0.3c0.3,0.1,0.5,0.2,0.8,0.2c0.8,0.1,1.5-0.5,1.6-1.4c0,0,0-0.1,0-0.1
			c0-0.2-0.1-0.5-0.2-0.7l0.7-0.6l-0.4-0.5l-0.7,0.6c-0.3-0.3-0.7-0.4-1.1-0.4c-0.8-0.1-1.6,0.6-1.6,1.4c0,0,0,0.1,0,0.1
			c0,0.4,0.1,0.7,0.4,1c-0.2,0.2-0.3,0.4-0.3,0.7c0,0.4,0.2,0.7,0.6,0.9l-0.6,0.6c0,0.1,0,0.1,0,0.2c0,0.8,0.8,1.5,1.9,1.5
			c0.9,0,1.8-0.4,1.8-1.3C329,59,328.1,58.9,327.2,58.8L327.2,58.8z M327,55.4c0.5,0,1,0.4,1,0.9c0,0,0,0,0,0.1c0,0.5-0.3,0.9-0.8,1
			c0,0-0.1,0-0.1,0c-0.5,0-0.9-0.4-1-0.9c0,0,0-0.1,0-0.1C326,55.9,326.5,55.4,327,55.4C327,55.4,327,55.4,327,55.4L327,55.4z
			 M327.3,60.8c-0.9,0-1.3-0.4-1.3-0.9l0.5-0.6c0.2,0,0.3,0.1,0.5,0.1c0.8,0.1,1.4,0.1,1.4,0.7C328.4,60.5,327.9,60.8,327.3,60.8
			L327.3,60.8z M330.1,54h0.7v-0.8h-0.7L330.1,54z M330.1,59.3h0.6V55h-0.6V59.3z M334,59.4c1.2,0,2.1-1,2.1-2.2c0,0,0-0.1,0-0.1
			c0.1-1.2-0.8-2.2-2-2.3c0,0-0.1,0-0.1,0c-1.2,0-2.1,1-2.1,2.2c0,0,0,0.1,0,0.1C331.8,58.3,332.7,59.3,334,59.4
			C333.9,59.4,334,59.4,334,59.4z M334,58.9c-1,0-1.4-0.9-1.4-1.7s0.4-1.7,1.4-1.7c1,0,1.4,0.9,1.4,1.7C335.4,58,335,58.9,334,58.9
			L334,58.9z M341,59.4c0.6,0,1.1-0.3,1.4-0.8v0.7h0.6V55h-0.6v2.4c0.1,0.8-0.5,1.4-1.3,1.5c-0.8,0-0.9-0.7-0.9-1.3V55h-0.7v2.5
			C339.5,58.6,339.9,59.4,341,59.4z M344.5,59.3h0.6v-2.2c0-1.1,0.5-1.7,1.2-1.7c0.2,0,0.4,0,0.5,0.2l0.3-0.6
			c-0.2-0.2-0.5-0.2-0.7-0.2c-0.6,0-1.1,0.3-1.3,0.9V55h-0.7L344.5,59.3z M350,59.4c1.1,0,1.8-1,1.8-2.3s-0.6-2.3-1.8-2.3
			c-0.5,0-1.1,0.2-1.4,0.7v-2.4H348v6.2h0.7v-0.6C349,59.2,349.5,59.4,350,59.4L350,59.4z M349.8,58.9c-0.9,0-1.2-0.8-1.2-1.7
			c0-0.9,0.4-1.7,1.3-1.7s1.3,0.8,1.3,1.7C351.1,58,350.7,58.9,349.8,58.9L349.8,58.9z M354,59.4c0.7,0,1.3-0.3,1.5-0.9l0,0.8h0.6
			v-2.7c0.1-0.9-0.5-1.7-1.4-1.8c-0.1,0-0.2,0-0.3,0c-0.7,0-1.3,0.3-1.7,0.9l0.5,0.4c0.3-0.4,0.7-0.7,1.2-0.7c0.8,0,1.1,0.6,1.1,1.4
			h-1c-1.2,0-1.9,0.4-1.9,1.3c0,0.7,0.5,1.3,1.3,1.3C353.9,59.4,353.9,59.4,354,59.4z M354,58.9c-0.5,0-0.8-0.2-0.8-0.7
			c0-0.6,0.4-0.8,1.3-0.8h0.9C355.5,58.1,354.9,58.8,354,58.9z M357.4,59.3h0.7v-2.3c0-1.1,0.5-1.6,1.2-1.6c0.8,0,1,0.7,1,1.3v2.6
			h0.6v-2.7c0-1-0.4-1.8-1.5-1.8c-0.6,0-1.1,0.3-1.4,0.8V55h-0.7V59.3z M364.1,59.4c1.2,0,2.1-1,2.1-2.2c0,0,0-0.1,0-0.1
			c0.1-1.2-0.8-2.2-2-2.3c0,0-0.1,0-0.1,0c-1.2,0-2.1,1-2.1,2.2c0,0,0,0.1,0,0.1C361.9,58.3,362.8,59.3,364.1,59.4
			C364,59.4,364,59.4,364.1,59.4z M364.1,58.9c-1,0-1.4-0.9-1.4-1.7s0.4-1.7,1.4-1.7c1,0,1.4,0.9,1.4,1.7
			C365.5,58,365.1,58.9,364.1,58.9L364.1,58.9z"/>
		<path d="M299.2,82.8h0.7V80h1c1.2,0,2-0.6,2-1.7c0-1.1-0.8-1.7-2-1.7h-1.7V82.8z M299.9,79.4v-2.2h1c0.8,0,1.3,0.4,1.3,1.1
			c0,0.7-0.5,1.1-1.3,1.1L299.9,79.4z M304.9,82.9c0.7,0,1.3-0.3,1.5-0.9l0,0.8h0.6v-2.7c0.1-0.9-0.5-1.7-1.4-1.8
			c-0.1,0-0.2,0-0.3,0c-0.7,0-1.3,0.3-1.7,0.9l0.5,0.4c0.3-0.4,0.7-0.7,1.2-0.7c0.8,0,1.1,0.6,1.1,1.4h-1c-1.2,0-1.9,0.4-1.9,1.3
			c0,0.7,0.5,1.3,1.3,1.3C304.7,82.9,304.8,82.9,304.9,82.9z M304.9,82.4c-0.5,0-0.8-0.2-0.8-0.7c0-0.6,0.4-0.8,1.3-0.8h0.9
			C306.4,81.6,305.7,82.3,304.9,82.4L304.9,82.4z M310,82.9c0.6,0,1.2-0.2,1.7-0.7l-0.4-0.4c-0.3,0.3-0.8,0.5-1.2,0.5
			c-0.7,0-1.3-0.6-1.3-1.3c0-0.1,0-0.1,0-0.2h3.1c0-0.1,0-0.2,0-0.3c0-1-0.4-2.1-1.9-2.1c-1.1,0.1-2,1-1.9,2.1c0,0.1,0,0.1,0,0.2
			c-0.1,1.1,0.6,2.1,1.7,2.2C309.8,82.9,309.9,82.9,310,82.9L310,82.9z M308.7,80.3c0-0.7,0.4-1.4,1.2-1.4c0.9,0,1.2,0.7,1.2,1.4
			H308.7z M314.1,82.9c0.8,0.1,1.4-0.5,1.5-1.2c0,0,0-0.1,0-0.1c0-1.6-2.4-1.1-2.4-2.1c0-0.4,0.3-0.6,0.8-0.6c0.4,0,0.8,0.2,1,0.6
			l0.5-0.3c-0.3-0.5-0.8-0.9-1.4-0.9c-0.7-0.1-1.3,0.4-1.4,1.1c0,0,0,0.1,0,0.1c0,1.5,2.3,0.9,2.3,2.1c0,0.5-0.4,0.7-0.9,0.7
			c-0.5,0-1-0.3-1.1-0.8l-0.6,0.3C312.7,82.5,313.4,82.9,314.1,82.9L314.1,82.9z M317.7,82.9c0.7,0,1.3-0.3,1.5-0.9l0,0.8h0.6v-2.7
			c0.1-0.9-0.5-1.7-1.4-1.8c-0.1,0-0.2,0-0.3,0c-0.7,0-1.3,0.3-1.7,0.9l0.5,0.4c0.3-0.4,0.7-0.7,1.2-0.7c0.8,0,1.1,0.6,1.1,1.4h-1
			c-1.2,0-1.9,0.4-1.9,1.3c0,0.7,0.5,1.3,1.3,1.3C317.5,82.9,317.6,82.9,317.7,82.9L317.7,82.9z M317.7,82.4c-0.5,0-0.8-0.2-0.8-0.7
			c0-0.6,0.4-0.8,1.3-0.8h0.9C319.2,81.6,318.5,82.3,317.7,82.4L317.7,82.4z M322.7,82.3c-0.6-0.1-1.2-0.2-1.2-0.7
			c0-0.1,0.1-0.3,0.2-0.3c0.3,0.1,0.5,0.2,0.8,0.2c0.8,0.1,1.5-0.5,1.6-1.4c0,0,0-0.1,0-0.1c0-0.2-0.1-0.5-0.2-0.7l0.7-0.6l-0.4-0.5
			l-0.7,0.6c-0.3-0.3-0.7-0.4-1.1-0.4c-0.8-0.1-1.6,0.6-1.6,1.4c0,0,0,0.1,0,0.1c0,0.4,0.1,0.7,0.4,1c-0.2,0.2-0.3,0.4-0.3,0.7
			c0,0.4,0.2,0.7,0.6,0.9l-0.6,0.6c0,0.1,0,0.1,0,0.2c0,0.8,0.8,1.5,1.9,1.5c0.9,0,1.8-0.4,1.8-1.3
			C324.5,82.5,323.6,82.4,322.7,82.3L322.7,82.3z M322.5,78.9c0.5,0,1,0.4,1,0.9c0,0,0,0,0,0.1c0,0.5-0.3,0.9-0.8,1c0,0-0.1,0-0.1,0
			c-0.5,0-0.9-0.4-1-0.9c0,0,0-0.1,0-0.1C321.5,79.4,322,78.9,322.5,78.9C322.5,78.9,322.5,78.9,322.5,78.9L322.5,78.9z M322.8,84.3
			c-0.9,0-1.3-0.4-1.3-0.9l0.5-0.6c0.2,0,0.3,0.1,0.5,0.1c0.8,0.1,1.4,0.1,1.4,0.7C323.9,84,323.4,84.3,322.8,84.3L322.8,84.3z
			 M327.2,82.3c-0.6-0.1-1.2-0.2-1.2-0.7c0-0.1,0.1-0.3,0.2-0.3c0.3,0.1,0.5,0.2,0.8,0.2c0.8,0.1,1.5-0.5,1.6-1.4c0,0,0-0.1,0-0.1
			c0-0.2-0.1-0.5-0.2-0.7l0.7-0.6l-0.4-0.5l-0.7,0.6c-0.3-0.3-0.7-0.4-1.1-0.4c-0.8-0.1-1.6,0.6-1.6,1.4c0,0,0,0.1,0,0.1
			c0,0.4,0.1,0.7,0.4,1c-0.2,0.2-0.3,0.4-0.3,0.7c0,0.4,0.2,0.7,0.6,0.9l-0.6,0.6c0,0.1,0,0.1,0,0.2c0,0.8,0.8,1.5,1.9,1.5
			c0.9,0,1.8-0.4,1.8-1.3C329,82.5,328.1,82.4,327.2,82.3L327.2,82.3z M327,78.9c0.5,0,1,0.4,1,0.9c0,0,0,0,0,0.1
			c0,0.5-0.3,0.9-0.8,1c0,0-0.1,0-0.1,0c-0.5,0-0.9-0.4-1-0.9c0,0,0-0.1,0-0.1C326,79.4,326.5,78.9,327,78.9
			C327,78.9,327,78.9,327,78.9L327,78.9z M327.3,84.3c-0.9,0-1.3-0.4-1.3-0.9l0.5-0.6c0.2,0,0.3,0.1,0.5,0.1
			c0.8,0.1,1.4,0.1,1.4,0.7C328.4,84,327.9,84.3,327.3,84.3L327.3,84.3z M330.1,77.5h0.7v-0.8h-0.7L330.1,77.5z M330.1,82.8h0.6
			v-4.4h-0.6V82.8z M334,82.9c1.2,0,2.1-1,2.1-2.2c0,0,0-0.1,0-0.1c0.1-1.2-0.8-2.2-2-2.3c0,0-0.1,0-0.1,0c-1.2,0-2.1,1-2.1,2.2
			c0,0,0,0.1,0,0.1C331.8,81.8,332.7,82.8,334,82.9C333.9,82.9,334,82.9,334,82.9z M334,82.4c-1,0-1.4-0.9-1.4-1.7s0.4-1.7,1.4-1.7
			c1,0,1.4,0.9,1.4,1.7C335.4,81.5,335,82.4,334,82.4L334,82.4z M341.1,82.9c0.8,0,1.4-0.4,1.7-1.2l-0.6-0.2
			c-0.1,0.5-0.6,0.9-1.1,0.9c-0.9,0-1.2-0.9-1.2-1.7s0.3-1.7,1.2-1.7c0.5,0,1,0.4,1.1,0.9l0.6-0.3c-0.3-0.7-0.9-1.2-1.7-1.2
			c-1.3,0-1.9,1.1-1.9,2.3c-0.1,1.1,0.6,2.1,1.7,2.3C341,82.9,341.1,82.9,341.1,82.9L341.1,82.9z M345.5,82.9c1.2,0,2.1-1,2.1-2.2
			c0,0,0-0.1,0-0.1c0.1-1.2-0.8-2.2-2-2.3c0,0-0.1,0-0.1,0c-1.2,0-2.1,1-2.1,2.2c0,0,0,0.1,0,0.1C343.4,81.8,344.2,82.8,345.5,82.9
			C345.5,82.9,345.5,82.9,345.5,82.9L345.5,82.9z M345.5,82.4c-1,0-1.4-0.9-1.4-1.7s0.4-1.7,1.4-1.7c1,0,1.4,0.9,1.4,1.7
			C346.9,81.5,346.5,82.4,345.5,82.4L345.5,82.4z M349.9,82.9c0.8,0.1,1.4-0.5,1.5-1.2c0,0,0-0.1,0-0.1c0-1.6-2.4-1.1-2.4-2.1
			c0-0.4,0.3-0.6,0.8-0.6c0.4,0,0.8,0.2,1,0.6l0.5-0.3c-0.3-0.5-0.8-0.9-1.4-0.9c-0.7-0.1-1.3,0.4-1.4,1.1c0,0,0,0.1,0,0.1
			c0,1.5,2.3,0.9,2.3,2.1c0,0.5-0.4,0.7-0.9,0.7c-0.5,0-1-0.3-1.1-0.8l-0.5,0.3C348.6,82.5,349.2,82.9,349.9,82.9L349.9,82.9z
			 M352.5,82.8h0.7v-2.3c0-0.8,0.4-1.6,1.1-1.6c0.8,0,0.9,0.7,0.9,1.3v2.6h0.7v-2.4c0-0.7,0.4-1.5,1.1-1.5c0.8,0,0.9,0.7,0.9,1.3
			v2.6h0.7v-2.7c0-1-0.4-1.8-1.5-1.8c-0.6,0-1.1,0.4-1.4,0.9c-0.2-0.6-0.7-1-1.3-0.9c-0.5,0-1,0.3-1.2,0.8v-0.7h-0.7L352.5,82.8z
			 M360,77.5h0.7v-0.8H360V77.5z M360,82.8h0.6v-4.4H360V82.8z M363.7,82.9c0.7,0,1.4-0.5,1.7-1.2l-0.6-0.2
			c-0.1,0.5-0.6,0.9-1.1,0.9c-0.9,0-1.2-0.9-1.2-1.7s0.3-1.7,1.2-1.7c0.5,0,1,0.4,1.1,0.9l0.6-0.3c-0.3-0.7-0.9-1.2-1.7-1.2
			c-1.3,0-1.9,1.1-1.9,2.3c-0.1,1.1,0.6,2.1,1.7,2.3C363.6,82.9,363.7,82.9,363.7,82.9z M368.1,82.9c1.2,0,2.1-1,2.1-2.2
			c0,0,0-0.1,0-0.1c0.1-1.2-0.8-2.2-2-2.3c0,0-0.1,0-0.1,0c-1.2,0-2.1,1-2.1,2.2c0,0,0,0.1,0,0.1C365.9,81.8,366.8,82.8,368.1,82.9
			C368,82.9,368.1,82.9,368.1,82.9L368.1,82.9z M368.1,82.4c-1,0-1.4-0.9-1.4-1.7s0.4-1.7,1.4-1.7c1,0,1.4,0.9,1.4,1.7
			C369.5,81.5,369.1,82.4,368.1,82.4L368.1,82.4z"/>
		<g>
			<defs>
				<path id="SVGID_3_" d="M275.1,75.3h9c3.3,0,6,2.2,6,5l0,0c0,2.8-2.7,5-6,5h-9c-3.3,0-6-2.2-6-5l0,0
					C269.1,77.5,271.8,75.3,275.1,75.3z"/>
			</defs>
			<clipPath id="SVGID_4_">
				<use xlink:href="#SVGID_3_"  style="overflow:visible;"/>
			</clipPath>
			<g transform="translate(269.086 75.291)" class="st2">
				<line class="st3" x1="-66" y1="1.6" x2="41.1" y2="90.9"/>
				<line class="st3" x1="-62.4" y1="0.1" x2="44.7" y2="89.4"/>
				<line class="st3" x1="-58.8" y1="-1.4" x2="48.3" y2="87.9"/>
				<line class="st3" x1="-55.2" y1="-2.9" x2="51.9" y2="86.4"/>
				<line class="st3" x1="-51.6" y1="-4.4" x2="55.5" y2="84.9"/>
				<line class="st3" x1="-48" y1="-5.9" x2="59.1" y2="83.4"/>
				<line class="st3" x1="-44.4" y1="-7.4" x2="62.7" y2="81.9"/>
				<line class="st3" x1="-40.8" y1="-8.9" x2="66.3" y2="80.4"/>
				<line class="st3" x1="-37.2" y1="-10.4" x2="69.9" y2="78.9"/>
				<line class="st3" x1="-33.6" y1="-11.9" x2="73.5" y2="77.4"/>
				<line class="st3" x1="-30" y1="-13.4" x2="77.1" y2="75.9"/>
				<line class="st3" x1="-26.4" y1="-14.9" x2="80.7" y2="74.4"/>
				<line class="st3" x1="-22.8" y1="-16.4" x2="84.3" y2="72.9"/>
				<line class="st3" x1="-19.2" y1="-17.9" x2="87.9" y2="71.4"/>
				<line class="st3" x1="-15.6" y1="-19.4" x2="91.5" y2="69.9"/>
				<line class="st3" x1="-12" y1="-20.9" x2="95.1" y2="68.4"/>
				<line class="st3" x1="-8.4" y1="-22.4" x2="98.7" y2="66.9"/>
				<line class="st3" x1="-4.8" y1="-23.9" x2="102.3" y2="65.4"/>
				<line class="st3" x1="-1.2" y1="-25.4" x2="105.9" y2="63.9"/>
				<line class="st3" x1="2.4" y1="-26.9" x2="109.5" y2="62.4"/>
				<line class="st3" x1="6" y1="-28.4" x2="113.1" y2="60.9"/>
			</g>
		</g>
		<path class="st3" d="M275.1,75.3h9c3.3,0,6,2.2,6,5l0,0c0,2.8-2.7,5-6,5h-9c-3.3,0-6-2.2-6-5l0,0
			C269.1,77.5,271.8,75.3,275.1,75.3z"/>
		<path d="M298.6,106.3h0.8l0.5-1.3h2.7l0.5,1.3h0.7l-2.3-6.2h-0.5L298.6,106.3z M300,104.3l1.1-3.2l1.1,3.2H300z M306,106.4
			c0.8,0.1,1.4-0.5,1.5-1.2c0,0,0-0.1,0-0.1c0-1.6-2.4-1.1-2.4-2.1c0-0.4,0.3-0.6,0.8-0.6c0.4,0,0.8,0.2,1,0.6l0.5-0.3
			c-0.3-0.5-0.8-0.9-1.4-0.9c-0.7-0.1-1.3,0.4-1.4,1.1c0,0,0,0.1,0,0.1c0,1.5,2.3,0.9,2.3,2.1c0,0.5-0.4,0.7-0.9,0.7
			c-0.5,0-1-0.3-1.1-0.8l-0.6,0.3C304.6,106,305.3,106.4,306,106.4z M309.8,106.4c0.8,0.1,1.4-0.5,1.5-1.2c0,0,0-0.1,0-0.1
			c0-1.6-2.4-1.1-2.4-2.1c0-0.4,0.3-0.6,0.8-0.6c0.4,0,0.8,0.2,1,0.6l0.5-0.3c-0.3-0.5-0.8-0.9-1.4-0.9c-0.7-0.1-1.3,0.4-1.4,1.1
			c0,0,0,0.1,0,0.1c0,1.5,2.3,0.9,2.3,2.1c0,0.5-0.4,0.7-0.9,0.7c-0.5,0-1-0.3-1.1-0.8l-0.6,0.3C308.4,106,309.1,106.4,309.8,106.4z
			 M314,106.4c0.6,0,1.2-0.2,1.7-0.7l-0.4-0.4c-0.3,0.3-0.8,0.5-1.2,0.5c-0.7,0-1.3-0.6-1.3-1.3c0-0.1,0-0.1,0-0.2h3.1
			c0-0.1,0-0.2,0-0.3c0-1-0.4-2.1-1.9-2.1c-1.1,0.1-2,1-1.9,2.1c0,0.1,0,0.1,0,0.2c-0.1,1.1,0.6,2.1,1.7,2.2
			C313.8,106.4,313.9,106.4,314,106.4L314,106.4z M312.7,103.8c0-0.7,0.4-1.4,1.2-1.4c0.9,0,1.2,0.7,1.2,1.4H312.7z M316.9,106.3
			h0.7V104c0-1.1,0.5-1.6,1.2-1.6c0.8,0,1,0.7,1,1.3v2.6h0.6v-2.7c0-1-0.4-1.8-1.5-1.8c-0.6,0-1.1,0.3-1.4,0.8v-0.8h-0.7
			L316.9,106.3z M324.9,101.9h-3.3v0.5h2.6l-2.7,3.4v0.5h3.5v-0.6h-2.6l2.6-3.3V101.9z M327,106.4c0.7,0,1.3-0.3,1.5-0.9l0,0.8h0.6
			v-2.7c0.1-0.9-0.5-1.7-1.4-1.8c-0.1,0-0.2,0-0.3,0c-0.7,0-1.3,0.3-1.7,0.9l0.5,0.4c0.3-0.4,0.7-0.7,1.2-0.7c0.8,0,1.1,0.6,1.1,1.4
			h-1c-1.2,0-1.9,0.4-1.9,1.3c0,0.7,0.5,1.3,1.3,1.3C326.9,106.4,326.9,106.4,327,106.4z M327,105.8c-0.5,0-0.8-0.2-0.8-0.7
			c0-0.6,0.4-0.8,1.3-0.8h0.9C328.5,105.1,327.9,105.8,327,105.8z M335.6,100.1v2.4c-0.3-0.5-0.8-0.7-1.4-0.7c-1.1,0-1.8,1-1.8,2.3
			s0.6,2.3,1.8,2.3c0.5,0,1.1-0.2,1.4-0.7l0,0.6h0.6v-6.2L335.6,100.1z M334.4,105.8c-0.9,0-1.3-0.8-1.3-1.7c0-0.9,0.4-1.7,1.3-1.7
			c0.9,0,1.3,0.8,1.3,1.7S335.3,105.8,334.4,105.8L334.4,105.8z M337.7,100.9h0.7v-0.8h-0.8L337.7,100.9z M337.8,106.3h0.6v-4.4
			h-0.6V106.3z M343.9,106.4c0.7,0,1.4-0.5,1.7-1.2L345,105c-0.1,0.5-0.6,0.9-1.1,0.9c-0.9,0-1.2-0.9-1.2-1.7s0.3-1.7,1.2-1.7
			c0.5,0,1,0.4,1.1,0.9l0.6-0.3c-0.3-0.7-0.9-1.2-1.7-1.2c-1.3,0-1.9,1.1-1.9,2.3c-0.1,1.1,0.6,2.1,1.7,2.3
			C343.8,106.4,343.8,106.4,343.9,106.4L343.9,106.4z M348.3,106.4c1.2,0,2.1-1,2.1-2.2c0,0,0-0.1,0-0.1c0.1-1.2-0.8-2.2-2-2.3
			c0,0-0.1,0-0.1,0c-1.2,0-2.1,1-2.1,2.2c0,0,0,0.1,0,0.1C346.1,105.3,347,106.3,348.3,106.4C348.2,106.4,348.2,106.4,348.3,106.4
			L348.3,106.4z M348.3,105.8c-1,0-1.4-0.9-1.4-1.7s0.4-1.7,1.4-1.7c1,0,1.4,0.9,1.4,1.7C349.7,105,349.2,105.8,348.3,105.8
			L348.3,105.8z M351.5,106.3h0.7V104c0-1.1,0.5-1.6,1.2-1.6c0.8,0,1,0.7,1,1.3v2.6h0.6v-2.7c0-1-0.4-1.8-1.5-1.8
			c-0.6,0-1.1,0.3-1.4,0.8v-0.8h-0.7L351.5,106.3z M357.6,106.4c0.2,0,0.4,0,0.6-0.1v-0.6c-0.1,0.1-0.3,0.1-0.4,0.1
			c-0.3,0-0.6-0.2-0.6-0.7v-2.7h1.1v-0.5h-1.1v-1.6l-0.6,0.6v1h-0.7v0.5h0.7v2.7C356.5,105.9,356.8,106.4,357.6,106.4z M360.9,106.4
			c0.6,0,1.2-0.2,1.7-0.7l-0.4-0.4c-0.3,0.3-0.8,0.5-1.2,0.5c-0.7,0-1.3-0.6-1.3-1.3c0-0.1,0-0.1,0-0.2h3.1c0-0.1,0-0.2,0-0.3
			c0-1-0.4-2.1-1.9-2.1c-1.1,0.1-2,1-1.9,2.1c0,0.1,0,0.1,0,0.2c-0.1,1.1,0.6,2.1,1.7,2.2C360.8,106.4,360.9,106.4,360.9,106.4
			L360.9,106.4z M359.7,103.8c0-0.7,0.4-1.4,1.2-1.4c0.9,0,1.2,0.7,1.2,1.4H359.7z M365.1,106.4c0.8,0.1,1.4-0.5,1.5-1.2
			c0,0,0-0.1,0-0.1c0-1.6-2.4-1.1-2.4-2.1c0-0.4,0.3-0.6,0.8-0.6c0.4,0,0.8,0.2,1,0.6l0.5-0.3c-0.3-0.5-0.8-0.9-1.4-0.9
			c-0.7-0.1-1.3,0.4-1.4,1.1c0,0,0,0.1,0,0.1c0,1.5,2.3,0.9,2.3,2.1c0,0.5-0.4,0.7-0.9,0.7c-0.5,0-1-0.3-1.1-0.8l-0.6,0.3
			C363.7,106,364.4,106.4,365.1,106.4L365.1,106.4z M368.9,106.4c0.2,0,0.4,0,0.6-0.1v-0.6c-0.1,0.1-0.3,0.1-0.4,0.1
			c-0.3,0-0.6-0.2-0.6-0.7v-2.7h1.1v-0.5h-1.1v-1.6l-0.6,0.6v1h-0.7v0.5h0.7v2.7C367.8,105.9,368.1,106.4,368.9,106.4L368.9,106.4z
			 M372.3,106.4c1.2,0,2.1-1,2.1-2.2c0,0,0,0,0-0.1c0.1-1.2-0.8-2.2-2-2.3c0,0-0.1,0-0.1,0c-1.2,0-2.1,1-2.1,2.2c0,0,0,0.1,0,0.1
			C370.1,105.3,371,106.3,372.3,106.4C372.2,106.4,372.3,106.4,372.3,106.4L372.3,106.4z M372.3,105.8c-1,0-1.4-0.9-1.4-1.7
			s0.4-1.7,1.4-1.7c1,0,1.4,0.9,1.4,1.7C373.7,105,373.3,105.8,372.3,105.8L372.3,105.8z"/>
		<g>
			<defs>
				<path id="SVGID_5_" d="M275.1,98.7h9c3.3,0,6,2.2,6,5l0,0c0,2.8-2.7,5-6,5h-9c-3.3,0-6-2.2-6-5l0,0
					C269.1,101,271.8,98.7,275.1,98.7z"/>
			</defs>
			<clipPath id="SVGID_6_">
				<use xlink:href="#SVGID_5_"  style="overflow:visible;"/>
			</clipPath>
			<g transform="translate(269.086 98.729)" class="st4">
				<line class="st5" x1="-66" y1="1.6" x2="41.1" y2="90.9"/>
				<line class="st5" x1="-62.4" y1="0.1" x2="44.7" y2="89.4"/>
				<line class="st5" x1="-58.8" y1="-1.4" x2="48.3" y2="87.9"/>
				<line class="st5" x1="-55.2" y1="-2.9" x2="51.9" y2="86.4"/>
				<line class="st5" x1="-51.6" y1="-4.4" x2="55.5" y2="84.9"/>
				<line class="st5" x1="-48" y1="-5.9" x2="59.1" y2="83.4"/>
				<line class="st5" x1="-44.4" y1="-7.4" x2="62.7" y2="81.9"/>
				<line class="st5" x1="-40.8" y1="-8.9" x2="66.3" y2="80.4"/>
				<line class="st5" x1="-37.2" y1="-10.4" x2="69.9" y2="78.9"/>
				<line class="st5" x1="-33.6" y1="-11.9" x2="73.5" y2="77.4"/>
				<line class="st5" x1="-30" y1="-13.4" x2="77.1" y2="75.9"/>
				<line class="st5" x1="-26.4" y1="-14.9" x2="80.7" y2="74.4"/>
				<line class="st5" x1="-22.8" y1="-16.4" x2="84.3" y2="72.9"/>
				<line class="st5" x1="-19.2" y1="-17.9" x2="87.9" y2="71.4"/>
				<line class="st5" x1="-15.6" y1="-19.4" x2="91.5" y2="69.9"/>
				<line class="st5" x1="-12" y1="-20.9" x2="95.1" y2="68.4"/>
				<line class="st5" x1="-8.4" y1="-22.4" x2="98.7" y2="66.9"/>
				<line class="st5" x1="-4.8" y1="-23.9" x2="102.3" y2="65.4"/>
				<line class="st5" x1="-1.2" y1="-25.4" x2="105.9" y2="63.9"/>
				<line class="st5" x1="2.4" y1="-26.9" x2="109.5" y2="62.4"/>
				<line class="st5" x1="6" y1="-28.4" x2="113.1" y2="60.9"/>
			</g>
		</g>
		<path class="st5" d="M275.1,98.7h9c3.3,0,6,2.2,6,5l0,0c0,2.8-2.7,5-6,5h-9c-3.3,0-6-2.2-6-5l0,0C269.1,101,271.8,98.7,275.1,98.7
			z"/>
		<path d="M2.9,13h1.2V5.8h2.7v-1H0.2v1h2.7L2.9,13z M8.2,13h5.4v-1.1H9.4V9.4h3.8V8.3H9.4V5.8h4.2V4.7H8.2L8.2,13z M15.5,13h1.2
			V6.1l2.3,6.2h1.2l2.3-6.2V13h1.2V4.7h-1.7L19.6,11l-2.3-6.3h-1.7L15.5,13z M25.9,13h1.2V9.4h1.3c1.6,0,2.8-0.8,2.8-2.3
			S30,4.7,28.4,4.7h-2.5V13z M27.1,8.3V5.8h1.3c1.1,0,1.6,0.5,1.6,1.3s-0.5,1.2-1.6,1.2L27.1,8.3z M36,13.1c2.6,0,3.8-2,3.8-4.3
			S38.6,4.6,36,4.6s-3.8,2-3.8,4.3S33.4,13.1,36,13.1L36,13.1z M36,12c-1.9,0-2.6-1.5-2.6-3.2s0.7-3.2,2.6-3.2s2.6,1.5,2.6,3.2
			S37.9,12,36,12L36,12z M44.7,13h2.2c2.7,0,4.2-1.5,4.2-4.1c0-2.7-1.5-4.2-4.2-4.2h-2.2V13z M45.9,11.9V5.8h1c2.1,0,3.1,1,3.1,3.1
			c0,2.2-1.3,3.1-3.2,3.1L45.9,11.9z M52.9,13h5.4v-1.1h-4.2V9.4h3.8V8.3h-3.8V5.8h4.2V4.7h-5.4V13z M60.2,13h4.7v-1.1h-3.5V4.7
			h-1.2L60.2,13z M66.3,13h4.7v-1.1h-3.5V4.7h-1.2L66.3,13z M71.7,13H73l0.6-1.8h3.4l0.6,1.8H79l-3.2-8.3h-0.9L71.7,13z M74,10.2
			l1.3-3.7l1.3,3.7H74z M85.7,13.1c1.4,0.1,2.6-0.9,2.7-2.2c0-0.1,0-0.1,0-0.2c0-2.7-4-2.2-4-3.9c0-0.6,0.5-1.1,1.1-1.1
			c0,0,0,0,0.1,0c0.6,0,1.2,0.4,1.5,0.9L88,6c-0.5-0.9-1.4-1.4-2.4-1.4c-1.2-0.1-2.3,0.8-2.4,2c0,0.1,0,0.1,0,0.2c0,2.6,4,2,4,4
			c0,0.8-0.6,1.3-1.5,1.3c-0.9,0.1-1.8-0.6-1.9-1.5c0,0,0,0,0,0l-1.2,0.3C82.9,12.2,84.2,13.2,85.7,13.1z M91.8,13H93V5.8h2.7v-1
			h-6.6v1h2.7L91.8,13z M100.1,13.1c2.6,0,3.8-2,3.8-4.3s-1.2-4.3-3.8-4.3s-3.8,2-3.8,4.3S97.5,13.1,100.1,13.1z M100.1,12
			c-1.9,0-2.6-1.5-2.6-3.2s0.7-3.2,2.6-3.2s2.6,1.5,2.6,3.2S102,12,100.1,12z M105.7,13h1.2V9.4h1.2l2.1,3.6h1.4l-2.3-3.8
			c1-0.2,1.7-1.1,1.7-2.2c0-1.4-1.2-2.4-2.5-2.4c-0.1,0-0.1,0-0.2,0h-2.5V13z M106.9,8.3V5.8h1.3c0.9,0,1.5,0.5,1.5,1.3
			c0,0.8-0.6,1.2-1.4,1.2L106.9,8.3z M113,13h1.2V4.7H113V13z M115.6,13h1.3l0.6-1.8h3.4l0.6,1.8h1.3l-3.2-8.3h-0.9L115.6,13z
			 M117.9,10.2l1.3-3.7l1.3,3.7H117.9z"/>
		<path d="M273.5,12.1c1.5,0.1,2.9-0.9,3.5-2.3l-1.1-0.5c-0.3,1-1.3,1.7-2.4,1.6c-1.9,0-2.7-1.4-2.7-3.2c0-1.7,0.8-3.1,2.7-3.1
			c1.1-0.1,2.1,0.6,2.4,1.6l1.1-0.5c-0.5-1.4-1.9-2.4-3.4-2.3c-2.7,0-3.9,2-3.9,4.3C269.7,10.2,270.9,12.1,273.5,12.1z M281.8,12.1
			c2.6,0,3.9-2,3.9-4.3s-1.2-4.3-3.9-4.3s-3.8,2-3.8,4.3S279.2,12.1,281.8,12.1z M281.8,11c-1.9,0-2.6-1.5-2.6-3.2s0.7-3.2,2.6-3.2
			c1.9,0,2.6,1.5,2.6,3.2S283.7,11,281.8,11z M287.4,12h1.2V5.4l3.5,6.6h1.4V3.7h-1.2v6.6l-3.5-6.6h-1.4V12z M297.6,12h1.2V4.8h2.7
			v-1h-6.6v1h2.7V12z M302.9,12h5.4v-1.1h-4.2V8.4h3.8V7.3h-3.8V4.8h4.2V3.7h-5.4L302.9,12z M312.4,12.1c1.4,0.1,2.6-0.9,2.7-2.2
			c0-0.1,0-0.1,0-0.2c0-2.7-4-2.2-4-3.9c0-0.6,0.5-1.1,1.1-1.1c0,0,0,0,0.1,0c0.6,0,1.2,0.4,1.5,0.9l0.9-0.6
			c-0.5-0.9-1.4-1.4-2.4-1.4c-1.2-0.1-2.3,0.8-2.4,2c0,0.1,0,0.1,0,0.2c0,2.6,4,2,4,4c0,0.8-0.6,1.3-1.5,1.3
			c-0.9,0.1-1.8-0.6-1.9-1.5c0,0,0,0,0,0l-1.2,0.3C309.7,11.2,311,12.2,312.4,12.1z M318.5,12h1.2V4.8h2.7v-1h-6.6v1h2.7V12z
			 M323.8,12h1.2V3.7h-1.2L323.8,12z"/>
		<text transform="matrix(1 0 0 1 391.086 12)" class="st6 st7">DIMENSIONE</text>
		<path class="st8" d="M7.5,99.5h9c3.3,0,6,2.2,6,5l0,0c0,2.8-2.7,5-6,5h-9c-3.3,0-6-2.2-6-5l0,0C1.5,101.8,4.2,99.5,7.5,99.5z"/>
		<path class="st9" d="M7.5,135.1h9c3.3,0,6,2.2,6,5l0,0c0,2.8-2.7,5-6,5h-9c-3.3,0-6-2.2-6-5l0,0C1.5,137.3,4.2,135.1,7.5,135.1z"
			/>
		<path d="M29.9,142.7h3.4V142h-2.7v-5.6h-0.7L29.9,142.7z M35.5,142.8c0.6,0,1.1-0.3,1.4-0.8v0.7h0.6v-4.4h-0.6v2.4
			c0.1,0.8-0.5,1.4-1.3,1.5c-0.8,0-0.9-0.7-0.9-1.3v-2.6H34v2.5C34,141.9,34.4,142.8,35.5,142.8L35.5,142.8z M40.7,142.8
			c1.2,0,2.1-1,2.1-2.2c0,0,0-0.1,0-0.1c0.1-1.2-0.8-2.2-2-2.3c0,0-0.1,0-0.1,0c-1.2,0-2.1,1-2.1,2.2c0,0,0,0.1,0,0.1
			C38.6,141.6,39.4,142.7,40.7,142.8C40.6,142.8,40.7,142.8,40.7,142.8z M40.7,142.2c-1,0-1.4-0.9-1.4-1.7s0.4-1.7,1.4-1.7
			s1.4,0.9,1.4,1.7C42.1,141.3,41.7,142.2,40.7,142.2L40.7,142.2z M45.5,142.1c-0.6-0.1-1.2-0.2-1.2-0.7c0-0.1,0.1-0.3,0.2-0.3
			c0.3,0.1,0.5,0.2,0.8,0.2c0.8,0.1,1.6-0.5,1.6-1.4c0,0,0-0.1,0-0.1c0-0.2-0.1-0.5-0.2-0.7l0.7-0.6l-0.4-0.5l-0.7,0.6
			c-0.3-0.3-0.7-0.4-1.1-0.4c-0.8-0.1-1.6,0.6-1.6,1.4c0,0,0,0.1,0,0.1c0,0.4,0.1,0.7,0.4,1c-0.2,0.2-0.3,0.4-0.3,0.7
			c0,0.4,0.2,0.7,0.6,0.9l-0.6,0.6c0,0.1,0,0.1,0,0.2c0,0.8,0.8,1.5,1.9,1.5c0.9,0,1.8-0.4,1.8-1.3
			C47.3,142.4,46.4,142.2,45.5,142.1L45.5,142.1z M45.3,138.7c0.5,0,1,0.4,1,0.9c0,0,0,0.1,0,0.1c0,0.5-0.3,0.9-0.8,1
			c0,0-0.1,0-0.1,0c-0.5,0-0.9-0.4-1-0.9c0,0,0-0.1,0-0.1C44.3,139.2,44.7,138.8,45.3,138.7C45.3,138.7,45.3,138.7,45.3,138.7
			L45.3,138.7z M45.6,144.1c-0.9,0-1.3-0.4-1.3-0.9l0.5-0.6c0.2,0,0.3,0.1,0.5,0.1c0.8,0.1,1.4,0.1,1.4,0.7
			C46.7,143.9,46.2,144.1,45.6,144.1z M48.4,142.7h0.6v-2.4c-0.1-0.8,0.5-1.4,1.3-1.5c0,0,0,0,0,0c0.8,0,0.9,0.7,0.9,1.3v2.6H52V140
			c0-0.9-0.4-1.8-1.5-1.8c-0.6,0-1.1,0.3-1.4,0.8v-2.5h-0.6L48.4,142.7z M53.3,137.3h0.7v-0.8h-0.7V137.3z M53.4,142.7H54v-4.4h-0.7
			V142.7z M59.1,142.8c0.8,0.1,1.4-0.5,1.5-1.2c0,0,0-0.1,0-0.1c0-1.6-2.4-1.1-2.4-2.1c0-0.4,0.3-0.6,0.8-0.6c0.4,0,0.8,0.2,1,0.6
			l0.5-0.3c-0.3-0.5-0.8-0.9-1.4-0.9c-0.7-0.1-1.3,0.4-1.4,1.1c0,0,0,0.1,0,0.1c0,1.5,2.3,0.9,2.3,2.1c0,0.5-0.4,0.7-0.9,0.7
			c-0.5,0-1-0.3-1.1-0.8l-0.6,0.3C57.7,142.3,58.4,142.8,59.1,142.8L59.1,142.8z M63.2,142.8c0.7,0,1.4-0.5,1.7-1.2l-0.6-0.2
			c-0.1,0.5-0.6,0.9-1.1,0.9c-0.9,0-1.2-0.9-1.2-1.7c0-0.8,0.3-1.7,1.2-1.7c0.5,0,1,0.4,1.1,0.9l0.6-0.3c-0.3-0.7-1-1.2-1.7-1.2
			c-1.3,0-1.9,1.1-1.9,2.3c-0.1,1.1,0.6,2.1,1.7,2.3C63.1,142.7,63.2,142.8,63.2,142.8L63.2,142.8z M67.6,142.8c1.2,0,2.1-1,2.1-2.2
			c0,0,0-0.1,0-0.1c0.1-1.2-0.8-2.2-2-2.3c0,0-0.1,0-0.1,0c-1.2,0-2.1,1-2.1,2.2c0,0,0,0.1,0,0.1C65.4,141.6,66.3,142.7,67.6,142.8
			C67.5,142.8,67.6,142.8,67.6,142.8L67.6,142.8z M67.6,142.2c-1,0-1.4-0.9-1.4-1.7s0.4-1.7,1.4-1.7s1.4,0.9,1.4,1.7
			C69,141.3,68.6,142.2,67.6,142.2L67.6,142.2z M70.8,142.7h0.7v-2.3c0-0.8,0.4-1.6,1.1-1.6c0.8,0,0.9,0.7,0.9,1.3v2.6h0.7v-2.4
			c0-0.7,0.4-1.5,1.1-1.5c0.8,0,0.9,0.7,0.9,1.3v2.6h0.7V140c0-1-0.4-1.8-1.5-1.8c-0.6,0-1.1,0.4-1.4,0.9c-0.2-0.6-0.7-1-1.3-0.9
			c-0.5,0-1,0.3-1.2,0.8v-0.7h-0.7V142.7z M78.3,144.6h0.7v-2.5c0.3,0.4,0.8,0.7,1.3,0.7c1.2,0,1.8-1,1.8-2.3c0-1.2-0.6-2.3-1.8-2.3
			c-0.5,0-1,0.2-1.3,0.7v-0.6h-0.7L78.3,144.6z M80.1,142.2c-0.9,0-1.3-0.8-1.3-1.7c0-0.9,0.4-1.7,1.3-1.7s1.3,0.8,1.3,1.7
			C81.4,141.4,81,142.2,80.1,142.2z M84.3,142.8c0.7,0,1.3-0.3,1.5-0.9l0,0.8h0.6V140c0.1-0.9-0.5-1.7-1.4-1.8c-0.1,0-0.2,0-0.3,0
			c-0.7,0-1.3,0.3-1.7,0.9l0.5,0.4c0.3-0.4,0.7-0.7,1.2-0.7c0.8,0,1.1,0.6,1.1,1.4h-1c-1.2,0-1.9,0.4-1.9,1.3c0,0.7,0.5,1.3,1.3,1.3
			C84.2,142.8,84.2,142.8,84.3,142.8z M84.3,142.2c-0.5,0-0.8-0.2-0.8-0.7c0-0.6,0.4-0.8,1.3-0.8h0.9
			C85.8,141.5,85.2,142.2,84.3,142.2z M87.7,142.7h0.6v-2.2c0-1.1,0.5-1.7,1.2-1.7c0.2,0,0.4,0,0.5,0.2l0.3-0.6
			c-0.2-0.2-0.5-0.2-0.7-0.2c-0.6,0-1.1,0.3-1.3,0.9v-0.8h-0.7L87.7,142.7z M92.2,142.8c0.8,0.1,1.4-0.5,1.5-1.2c0,0,0-0.1,0-0.1
			c0-1.6-2.4-1.1-2.4-2.1c0-0.4,0.3-0.6,0.8-0.6c0.4,0,0.8,0.2,1,0.6l0.5-0.3c-0.3-0.5-0.8-0.9-1.4-0.9c-0.7-0.1-1.3,0.4-1.4,1.1
			c0,0,0,0.1,0,0.1c0,1.5,2.3,0.9,2.3,2.1c0,0.5-0.4,0.7-0.9,0.7c-0.5,0-1-0.3-1.1-0.8l-0.6,0.3C90.8,142.3,91.5,142.8,92.2,142.8z
			 M94.8,137.3h0.7v-0.8h-0.7V137.3z M94.8,142.7h0.7v-4.4h-0.7V142.7z M102.1,136.5v2.4c-0.3-0.5-0.8-0.7-1.4-0.7
			c-1.1,0-1.8,1-1.8,2.3c0,1.3,0.6,2.3,1.8,2.3c0.5,0,1.1-0.2,1.4-0.7l0,0.6h0.6v-6.2H102.1z M100.9,142.2c-0.9,0-1.3-0.8-1.3-1.7
			s0.4-1.7,1.3-1.7c0.9,0,1.3,0.8,1.3,1.7S101.8,142.2,100.9,142.2L100.9,142.2z M105.3,142.8c0.7,0,1.3-0.3,1.5-0.9l0,0.8h0.6V140
			c0.1-0.9-0.5-1.7-1.4-1.8c-0.1,0-0.2,0-0.3,0c-0.7,0-1.3,0.3-1.7,0.9l0.5,0.4c0.3-0.4,0.7-0.7,1.2-0.7c0.8,0,1.1,0.6,1.1,1.4h-1
			c-1.2,0-1.9,0.4-1.9,1.3c0,0.7,0.5,1.3,1.3,1.3C105.2,142.8,105.3,142.8,105.3,142.8L105.3,142.8z M105.4,142.2
			c-0.5,0-0.8-0.2-0.8-0.7c0-0.6,0.4-0.8,1.3-0.8h0.9C106.8,141.5,106.2,142.2,105.4,142.2L105.4,142.2z M109.7,142.2
			c-0.2,0-0.2-0.2-0.2-0.2v-5.5h-0.7v5.3c0,0.5,0,1,0.7,1c0.2,0,0.4,0,0.6-0.1v-0.5C109.9,142.2,109.8,142.2,109.7,142.2
			L109.7,142.2z M111.9,142.2c-0.2,0-0.2-0.2-0.2-0.2v-5.5h-0.7v5.3c0,0.5,0,1,0.7,1c0.2,0,0.4,0,0.6-0.1v-0.5
			C112.2,142.2,112.1,142.2,111.9,142.2L111.9,142.2z M114.4,142.8c0.7,0,1.3-0.3,1.5-0.9l0,0.8h0.6V140c0.1-0.9-0.5-1.7-1.4-1.8
			c-0.1,0-0.2,0-0.3,0c-0.7,0-1.3,0.3-1.7,0.9l0.5,0.4c0.3-0.4,0.7-0.7,1.2-0.7c0.8,0,1.1,0.6,1.1,1.4h-1c-1.2,0-1.9,0.4-1.9,1.3
			c0,0.7,0.5,1.3,1.3,1.3C114.2,142.8,114.3,142.8,114.4,142.8L114.4,142.8z M114.4,142.2c-0.5,0-0.8-0.2-0.8-0.7
			c0-0.6,0.4-0.8,1.3-0.8h0.9C115.9,141.5,115.2,142.2,114.4,142.2L114.4,142.2z M120.2,142.7h0.7v-2.3c0-1.1,0.5-1.6,1.2-1.6
			c0.8,0,1,0.7,1,1.3v2.6h0.7V140c0-1-0.4-1.8-1.5-1.8c-0.6,0-1.1,0.3-1.4,0.8v-0.8h-0.7L120.2,142.7z M126.2,142.8
			c0.7,0,1.3-0.3,1.5-0.9l0,0.8h0.6V140c0.1-0.9-0.5-1.7-1.4-1.8c-0.1,0-0.2,0-0.3,0c-0.7,0-1.3,0.3-1.7,0.9l0.5,0.4
			c0.3-0.4,0.7-0.7,1.2-0.7c0.8,0,1.1,0.6,1.1,1.4h-1c-1.2,0-1.9,0.4-1.9,1.3c0,0.7,0.5,1.3,1.3,1.3
			C126,142.8,126.1,142.8,126.2,142.8z M126.2,142.2c-0.5,0-0.8-0.2-0.8-0.7c0-0.6,0.4-0.8,1.3-0.8h0.9
			C127.7,141.5,127,142.2,126.2,142.2z M129.6,142.7h0.6v-2.2c0-1.1,0.5-1.7,1.2-1.7c0.2,0,0.4,0,0.5,0.2l0.3-0.6
			c-0.2-0.2-0.5-0.2-0.7-0.2c-0.6,0-1.1,0.3-1.3,0.9v-0.8h-0.7L129.6,142.7z M133.1,142.7h0.6v-2.2c0-1.1,0.5-1.7,1.2-1.7
			c0.2,0,0.4,0,0.5,0.2l0.3-0.6c-0.2-0.2-0.5-0.2-0.7-0.2c-0.6,0-1.1,0.3-1.3,0.9v-0.8h-0.7L133.1,142.7z M137.7,142.8
			c0.7,0,1.3-0.3,1.5-0.9l0,0.8h0.6V140c0.1-0.9-0.5-1.7-1.4-1.8c-0.1,0-0.2,0-0.3,0c-0.7,0-1.3,0.3-1.7,0.9l0.5,0.4
			c0.3-0.4,0.7-0.7,1.2-0.7c0.8,0,1.1,0.6,1.1,1.4h-1c-1.2,0-1.9,0.4-1.9,1.3c0,0.7,0.5,1.3,1.3,1.3
			C137.5,142.8,137.6,142.8,137.7,142.8L137.7,142.8z M137.7,142.2c-0.5,0-0.8-0.2-0.8-0.7c0-0.6,0.4-0.8,1.3-0.8h0.9
			C139.2,141.5,138.6,142.2,137.7,142.2L137.7,142.2z M144.1,138.3h-3.3v0.5h2.6l-2.7,3.4v0.5h3.5v-0.6h-2.6l2.6-3.3V138.3z
			 M145.2,137.3h0.7v-0.8h-0.7V137.3z M145.2,142.7h0.7v-4.4h-0.7V142.7z M149.1,142.8c1.2,0,2.1-1,2.1-2.2c0,0,0-0.1,0-0.1
			c0.1-1.2-0.8-2.2-2-2.3c0,0-0.1,0-0.1,0c-1.2,0-2.1,1-2.1,2.2c0,0,0,0.1,0,0.1C146.9,141.6,147.8,142.7,149.1,142.8
			C149,142.8,149.1,142.8,149.1,142.8z M149.1,142.2c-1,0-1.4-0.9-1.4-1.7s0.4-1.7,1.4-1.7c1,0,1.4,0.9,1.4,1.7
			C150.5,141.3,150.1,142.2,149.1,142.2L149.1,142.2z M152.3,142.7h0.7v-2.3c0-1.1,0.5-1.6,1.2-1.6c0.8,0,1,0.7,1,1.3v2.6h0.7V140
			c0-1-0.4-1.8-1.5-1.8c-0.6,0-1.1,0.3-1.4,0.8v-0.8h-0.7L152.3,142.7z M158.8,142.7c0.6,0,1.2-0.2,1.7-0.7l-0.4-0.4
			c-0.3,0.3-0.8,0.5-1.2,0.5c-0.7,0-1.3-0.6-1.3-1.3c0-0.1,0-0.1,0-0.2h3.1c0-0.1,0-0.2,0-0.3c0-1-0.4-2.1-1.9-2.1
			c-1.1,0.1-2,1-1.9,2.1c0,0.1,0,0.1,0,0.2c-0.1,1.1,0.6,2.1,1.7,2.2C158.7,142.7,158.8,142.7,158.8,142.7L158.8,142.7z
			 M157.6,140.2c0-0.7,0.4-1.4,1.2-1.4c0.9,0,1.2,0.7,1.2,1.4H157.6z"/>
		<path d="M29.3,105H30l0.5-1.3h2.7l0.5,1.3h0.7l-2.3-6.2h-0.5L29.3,105z M30.7,103l1.1-3.2L33,103H30.7z M35.4,105h0.7v-2.3
			c0-0.8,0.4-1.6,1.1-1.6c0.8,0,0.9,0.7,0.9,1.3v2.6h0.7v-2.4c0-0.7,0.4-1.5,1.1-1.5c0.8,0,0.9,0.7,0.9,1.3v2.6h0.7v-2.7
			c0-1-0.4-1.8-1.5-1.8c-0.6,0-1.1,0.4-1.4,0.9c-0.3-0.7-1-1.1-1.8-0.8c-0.3,0.1-0.6,0.4-0.8,0.7v-0.7h-0.7V105z M44.9,105.1
			c1.1,0,1.8-1,1.8-2.3s-0.6-2.3-1.8-2.3c-0.5,0-1.1,0.2-1.4,0.7v-2.4h-0.7v6.2h0.7v-0.6C43.9,104.8,44.4,105.1,44.9,105.1
			L44.9,105.1z M44.8,104.5c-0.9,0-1.3-0.8-1.3-1.7c0-0.9,0.4-1.7,1.3-1.7s1.3,0.8,1.3,1.7S45.7,104.5,44.8,104.5L44.8,104.5z
			 M47.8,99.6h0.7v-0.8h-0.7V99.6z M47.9,105h0.7v-4.4h-0.7V105z M51.7,105.1c0.6,0,1.2-0.2,1.7-0.7l-0.4-0.4
			c-0.3,0.3-0.8,0.5-1.2,0.5c-0.7,0-1.3-0.6-1.3-1.3c0-0.1,0-0.1,0-0.2h3.1c0-0.1,0-0.2,0-0.3c0-1-0.4-2.1-1.9-2.1
			c-1.1,0.1-2,1-1.9,2.1c0,0.1,0,0.1,0,0.2c-0.1,1.1,0.6,2.1,1.7,2.2C51.5,105.1,51.6,105.1,51.7,105.1L51.7,105.1z M50.4,102.5
			c0-0.7,0.4-1.4,1.2-1.4c0.9,0,1.2,0.7,1.2,1.4H50.4z M54.6,105h0.7v-2.3c0-1.1,0.5-1.6,1.2-1.6c0.8,0,1,0.7,1,1.3v2.6h0.6v-2.7
			c0-1-0.4-1.8-1.5-1.8c-0.6,0-1.1,0.3-1.4,0.8v-0.8h-0.7L54.6,105z M60.7,105.1c0.2,0,0.4,0,0.6-0.1v-0.6c-0.1,0.1-0.3,0.1-0.4,0.1
			c-0.3,0-0.6-0.2-0.6-0.7v-2.7h1.1v-0.5h-1.1V99l-0.6,0.6v1h-0.7v0.5h0.7v2.7C59.6,104.6,59.9,105.1,60.7,105.1z M63.5,105.1
			c0.7,0,1.3-0.3,1.5-0.9l0,0.8h0.6v-2.7c0.1-0.9-0.5-1.7-1.4-1.8c-0.1,0-0.2,0-0.3,0c-0.7,0-1.3,0.3-1.7,0.9l0.5,0.4
			c0.3-0.4,0.7-0.7,1.2-0.7c0.8,0,1.1,0.6,1.1,1.4h-1c-1.2,0-1.9,0.4-1.9,1.3c0,0.7,0.5,1.3,1.3,1.3
			C63.4,105.1,63.4,105.1,63.5,105.1L63.5,105.1z M63.6,104.5c-0.5,0-0.8-0.2-0.8-0.7c0-0.6,0.4-0.8,1.3-0.8H65
			C65,103.8,64.4,104.5,63.6,104.5L63.6,104.5z M70,100.6h-3.3v0.5h2.6l-2.7,3.4v0.5H70v-0.6h-2.6l2.6-3.3V100.6z M71,99.6h0.7v-0.8
			H71V99.6z M71.1,105h0.7v-4.4h-0.7V105z M74.9,105.1c1.2,0,2.1-1,2.1-2.2c0,0,0-0.1,0-0.1c0.1-1.1-0.7-2.2-1.9-2.3
			c-1.1-0.1-2.2,0.7-2.3,1.9c0,0.1,0,0.2,0,0.4C72.7,104,73.6,105,74.9,105.1C74.8,105.1,74.9,105.1,74.9,105.1L74.9,105.1z
			 M74.9,104.5c-1,0-1.4-0.9-1.4-1.7s0.4-1.7,1.4-1.7s1.4,0.9,1.4,1.7C76.3,103.7,75.9,104.5,74.9,104.5L74.9,104.5z M78.1,105h0.7
			v-2.3c0-1.1,0.5-1.6,1.2-1.6c0.8,0,1,0.7,1,1.3v2.6h0.7v-2.7c0-1-0.4-1.8-1.5-1.8c-0.6,0-1.1,0.3-1.4,0.8v-0.8h-0.7L78.1,105z
			 M83,99.6h0.7v-0.8H83V99.6z M83,105h0.6v-4.4H83V105z M90.4,98.8v2.4c-0.3-0.5-0.8-0.7-1.4-0.7c-1.1,0-1.8,1-1.8,2.3
			c0,1.3,0.6,2.3,1.8,2.3c0.5,0,1.1-0.2,1.4-0.7l0,0.6H91v-6.2H90.4z M89.2,104.5c-0.9,0-1.3-0.8-1.3-1.7s0.4-1.7,1.3-1.7
			c0.9,0,1.3,0.8,1.3,1.7S90.1,104.5,89.2,104.5L89.2,104.5z M92.5,99.6h0.7v-0.8h-0.8L92.5,99.6z M92.5,105h0.7v-4.4h-0.7V105z
			 M98.3,105.1c0.2,0,0.4,0,0.6-0.1v-0.6c-0.1,0.1-0.3,0.1-0.4,0.1c-0.3,0-0.6-0.2-0.6-0.7v-2.7H99v-0.5h-1.1V99l-0.7,0.6v1h-0.7
			v0.5h0.7v2.7C97.2,104.6,97.5,105.1,98.3,105.1L98.3,105.1z M101.6,105.1c0.6,0,1.2-0.2,1.7-0.7l-0.4-0.4
			c-0.3,0.3-0.8,0.5-1.2,0.5c-0.7,0-1.3-0.6-1.3-1.3c0-0.1,0-0.1,0-0.2h3.1c0-0.1,0-0.2,0-0.3c0-1-0.4-2.1-1.9-2.1
			c-1.1,0.1-2,1-1.9,2.1c0,0.1,0,0.1,0,0.2c-0.1,1.1,0.6,2.1,1.7,2.2C101.4,105.1,101.5,105.1,101.6,105.1L101.6,105.1z
			 M100.3,102.5c0-0.7,0.4-1.4,1.2-1.4c0.9,0,1.2,0.7,1.2,1.4H100.3z M105.7,105.1c0.8,0.1,1.4-0.5,1.5-1.2c0,0,0-0.1,0-0.1
			c0-1.6-2.4-1.1-2.4-2.1c0-0.4,0.3-0.6,0.8-0.6c0.4,0,0.8,0.2,1,0.6l0.5-0.3c-0.3-0.5-0.8-0.9-1.4-0.9c-0.7-0.1-1.3,0.4-1.4,1.1
			c0,0,0,0.1,0,0.1c0,1.5,2.3,0.9,2.3,2.1c0,0.5-0.4,0.7-0.9,0.7c-0.5,0-1-0.3-1.1-0.8l-0.6,0.3C104.4,104.7,105,105.1,105.7,105.1
			L105.7,105.1z M109.6,105.1c0.2,0,0.4,0,0.6-0.1v-0.6c-0.1,0.1-0.3,0.1-0.4,0.1c-0.3,0-0.6-0.2-0.6-0.7v-2.7h1.1v-0.5h-1.1V99
			l-0.7,0.6v1h-0.7v0.5h0.7v2.7C108.5,104.6,108.8,105.1,109.6,105.1L109.6,105.1z M111.3,99.6h0.7v-0.8h-0.7L111.3,99.6z
			 M111.3,105h0.7v-4.4h-0.7V105z M115.8,99.6h0.7v-0.8h-0.7V99.6z M115.8,105h0.7v-4.4h-0.7V105z M118,105h0.7v-2.3
			c0-1.1,0.5-1.6,1.2-1.6c0.8,0,1,0.7,1,1.3v2.6h0.7v-2.7c0-1-0.4-1.8-1.5-1.8c-0.6,0-1.1,0.3-1.4,0.8v-0.8H118L118,105z
			 M126.8,105.1c0.7,0,1.4-0.5,1.7-1.2l-0.6-0.2c-0.1,0.5-0.6,0.9-1.1,0.9c-0.9,0-1.2-0.9-1.2-1.7s0.3-1.7,1.2-1.7
			c0.5,0,1,0.4,1.1,0.9l0.6-0.3c-0.3-0.7-0.9-1.2-1.7-1.2c-1.3,0-1.9,1.1-1.9,2.3c-0.1,1.1,0.6,2.1,1.7,2.3
			C126.7,105.1,126.8,105.1,126.8,105.1z M130.9,105.1c0.6,0,1.1-0.3,1.4-0.8v0.7h0.7v-4.4h-0.7v2.4c0.1,0.8-0.5,1.4-1.3,1.5
			c-0.8,0-0.9-0.7-0.9-1.3v-2.6h-0.7v2.5C129.4,104.3,129.8,105.1,130.9,105.1L130.9,105.1z M134.4,99.6h0.7v-0.8h-0.7V99.6z
			 M134.4,105h0.7v-4.4h-0.7V105z M138.9,106.9h0.7v-2.5c0.3,0.4,0.8,0.7,1.3,0.7c1.2,0,1.8-1,1.8-2.3c0-1.2-0.6-2.3-1.8-2.3
			c-0.5,0-1,0.2-1.3,0.7v-0.6h-0.7L138.9,106.9z M140.8,104.5c-0.9,0-1.3-0.8-1.3-1.7c0-0.9,0.4-1.7,1.3-1.7s1.3,0.8,1.3,1.7
			S141.7,104.5,140.8,104.5L140.8,104.5z M143.9,105h0.6v-2.2c0-1.1,0.5-1.7,1.2-1.7c0.2,0,0.4,0,0.5,0.2l0.3-0.6
			c-0.2-0.2-0.5-0.2-0.7-0.2c-0.6,0-1.1,0.3-1.3,0.9v-0.8h-0.7L143.9,105z M148.6,105.1c0.6,0,1.2-0.2,1.7-0.7l-0.4-0.4
			c-0.3,0.3-0.8,0.5-1.2,0.5c-0.7,0-1.3-0.6-1.3-1.3c0-0.1,0-0.1,0-0.2h3.1c0-0.1,0-0.2,0-0.3c0-1-0.4-2.1-1.9-2.1
			c-1.1,0.1-2,1-1.9,2.1c0,0.1,0,0.1,0,0.2c-0.1,1.1,0.6,2.1,1.7,2.2C148.5,105.1,148.6,105.1,148.6,105.1L148.6,105.1z
			 M147.4,102.5c0-0.7,0.4-1.4,1.2-1.4c0.9,0,1.2,0.7,1.2,1.4H147.4z M152.8,105.1c0.8,0.1,1.4-0.5,1.5-1.2c0,0,0-0.1,0-0.1
			c0-1.6-2.4-1.1-2.4-2.1c0-0.4,0.3-0.6,0.8-0.6c0.4,0,0.8,0.2,1,0.6l0.5-0.3c-0.3-0.5-0.8-0.9-1.4-0.9c-0.7-0.1-1.3,0.4-1.4,1.1
			c0,0,0,0.1,0,0.1c0,1.5,2.3,0.9,2.3,2.1c0,0.5-0.4,0.7-0.9,0.7c-0.5,0-1-0.3-1.1-0.8l-0.6,0.3
			C151.4,104.7,152.1,105.1,152.8,105.1L152.8,105.1z M157,105.1c0.6,0,1.2-0.2,1.7-0.7l-0.4-0.4c-0.3,0.3-0.8,0.5-1.2,0.5
			c-0.7,0-1.3-0.6-1.3-1.3c0-0.1,0-0.1,0-0.2h3.1c0-0.1,0-0.2,0-0.3c0-1-0.4-2.1-1.9-2.1c-1.1,0.1-2,1-1.9,2.1c0,0.1,0,0.1,0,0.2
			c-0.1,1.1,0.6,2.1,1.7,2.2C156.8,105.1,156.9,105.1,157,105.1L157,105.1z M155.7,102.5c0-0.7,0.4-1.4,1.2-1.4
			c0.9,0,1.2,0.7,1.2,1.4H155.7z M159.9,105h0.7v-2.3c0-1.1,0.5-1.6,1.2-1.6c0.8,0,1,0.7,1,1.3v2.6h0.6v-2.7c0-1-0.4-1.8-1.5-1.8
			c-0.6,0-1.1,0.3-1.4,0.8v-0.8h-0.7L159.9,105z M166.1,105.1c0.2,0,0.4,0,0.6-0.1v-0.6c-0.1,0.1-0.3,0.1-0.4,0.1
			c-0.3,0-0.6-0.2-0.6-0.7v-2.7h1.1v-0.5h-1.1V99l-0.6,0.6v1h-0.7v0.5h0.7v2.7C165,104.6,165.3,105.1,166.1,105.1z M169.4,105.1
			c0.6,0,1.2-0.2,1.7-0.7l-0.4-0.4c-0.3,0.3-0.8,0.5-1.2,0.5c-0.7,0-1.3-0.6-1.3-1.3c0-0.1,0-0.1,0-0.2h3.1c0-0.1,0-0.2,0-0.3
			c0-1-0.4-2.1-1.9-2.1c-1.1,0.1-2,1-1.9,2.1c0,0.1,0,0.1,0,0.2c-0.1,1.1,0.6,2.1,1.7,2.2C169.2,105.1,169.3,105.1,169.4,105.1z
			 M168.1,102.5c0-0.7,0.4-1.4,1.2-1.4c0.9,0,1.2,0.7,1.2,1.4H168.1z M176.3,105.1c0.6,0,1.2-0.2,1.7-0.7l-0.4-0.4
			c-0.3,0.3-0.8,0.5-1.2,0.5c-0.7,0-1.3-0.6-1.3-1.3c0-0.1,0-0.1,0-0.2h3.1c0-0.1,0-0.2,0-0.3c0-1-0.4-2.1-1.9-2.1
			c-1.1,0.1-2,1-1.9,2.1c0,0.1,0,0.1,0,0.2c-0.1,1.1,0.6,2.1,1.7,2.2C176.2,105.1,176.2,105.1,176.3,105.1L176.3,105.1z M175,102.5
			c0-0.7,0.4-1.4,1.2-1.4c0.9,0,1.2,0.7,1.2,1.4H175z M181.6,106.9h0.7v-2.5c0.3,0.4,0.8,0.7,1.3,0.7c1.2,0,1.8-1,1.8-2.3
			c0-1.2-0.6-2.3-1.8-2.3c-0.5,0-1,0.2-1.3,0.7v-0.6h-0.7L181.6,106.9z M183.5,104.5c-0.9,0-1.3-0.8-1.3-1.7c0-0.9,0.4-1.7,1.3-1.7
			s1.3,0.8,1.3,1.7S184.4,104.5,183.5,104.5z M187.6,105.1c0.7,0,1.3-0.3,1.5-0.9l0,0.8h0.6v-2.7c0.1-0.9-0.5-1.7-1.4-1.8
			c-0.1,0-0.2,0-0.3,0c-0.7,0-1.3,0.3-1.7,0.9l0.5,0.4c0.3-0.4,0.7-0.7,1.2-0.7c0.8,0,1.1,0.6,1.1,1.4h-1c-1.2,0-1.9,0.4-1.9,1.3
			c0,0.7,0.5,1.3,1.3,1.3C187.5,105.1,187.6,105.1,187.6,105.1L187.6,105.1z M187.7,104.5c-0.5,0-0.8-0.2-0.8-0.7
			c0-0.6,0.4-0.8,1.3-0.8h0.9C189.1,103.8,188.5,104.5,187.7,104.5L187.7,104.5z M192.3,105.1c0.8,0.1,1.4-0.5,1.5-1.2
			c0,0,0-0.1,0-0.1c0-1.6-2.4-1.1-2.4-2.1c0-0.4,0.3-0.6,0.8-0.6c0.4,0,0.8,0.2,1,0.6l0.5-0.3c-0.3-0.5-0.8-0.9-1.4-0.9
			c-0.7-0.1-1.3,0.4-1.4,1.1c0,0,0,0.1,0,0.1c0,1.5,2.3,0.9,2.3,2.1c0,0.5-0.4,0.7-0.9,0.7c-0.5,0-1-0.3-1.1-0.8l-0.6,0.3
			C190.9,104.7,191.6,105.1,192.3,105.1L192.3,105.1z M196.1,105.1c0.8,0.1,1.4-0.5,1.5-1.2c0,0,0-0.1,0-0.1c0-1.6-2.4-1.1-2.4-2.1
			c0-0.4,0.3-0.6,0.8-0.6c0.4,0,0.8,0.2,1,0.6l0.5-0.3c-0.3-0.5-0.8-0.9-1.4-0.9c-0.7-0.1-1.3,0.4-1.4,1.1c0,0,0,0.1,0,0.1
			c0,1.5,2.3,0.9,2.3,2.1c0,0.5-0.4,0.7-0.9,0.7c-0.5,0-1-0.3-1.1-0.8l-0.6,0.3C194.7,104.7,195.4,105.1,196.1,105.1L196.1,105.1z
			 M199.7,105.1c0.7,0,1.3-0.3,1.5-0.9l0,0.8h0.6v-2.7c0.1-0.9-0.5-1.7-1.4-1.8c-0.1,0-0.2,0-0.3,0c-0.7,0-1.3,0.3-1.7,0.9l0.5,0.4
			c0.3-0.4,0.7-0.7,1.2-0.7c0.8,0,1.1,0.6,1.1,1.4h-1c-1.2,0-1.9,0.4-1.9,1.3c0,0.7,0.5,1.3,1.3,1.3
			C199.6,105.1,199.6,105.1,199.7,105.1L199.7,105.1z M199.7,104.5c-0.5,0-0.8-0.2-0.8-0.7c0-0.6,0.4-0.8,1.3-0.8h0.9
			C201.2,103.8,200.6,104.5,199.7,104.5L199.7,104.5z M204.4,105.1c0.2,0,0.4,0,0.6-0.1v-0.6c-0.1,0.1-0.3,0.1-0.4,0.1
			c-0.3,0-0.6-0.2-0.6-0.7v-2.7h1.1v-0.5H204V99l-0.6,0.6v1h-0.7v0.5h0.7v2.7C203.3,104.6,203.6,105.1,204.4,105.1L204.4,105.1z
			 M207.8,105.1c1.2,0,2.1-1,2.1-2.2c0,0,0-0.1,0-0.1c0.1-1.1-0.7-2.2-1.9-2.3c-1.1-0.1-2.2,0.7-2.3,1.9c0,0.1,0,0.2,0,0.4
			C205.6,104,206.5,105,207.8,105.1C207.7,105.1,207.7,105.1,207.8,105.1L207.8,105.1z M207.8,104.5c-1,0-1.4-0.9-1.4-1.7
			s0.4-1.7,1.4-1.7s1.4,0.9,1.4,1.7C209.2,103.7,208.8,104.5,207.8,104.5L207.8,104.5z M214.6,105.1c0.8,0.1,1.4-0.5,1.5-1.2
			c0,0,0-0.1,0-0.1c0-1.6-2.4-1.1-2.4-2.1c0-0.4,0.3-0.6,0.8-0.6c0.4,0,0.8,0.2,1,0.6l0.5-0.3c-0.3-0.5-0.8-0.9-1.4-0.9
			c-0.7-0.1-1.3,0.4-1.4,1.1c0,0,0,0.1,0,0.1c0,1.5,2.3,0.9,2.3,2.1c0,0.5-0.4,0.7-0.9,0.7c-0.5,0-1-0.3-1.1-0.8l-0.5,0.3
			C213.2,104.7,213.9,105.1,214.6,105.1L214.6,105.1z M217.1,99.6h0.7v-0.8h-0.7V99.6z M217.2,105h0.6v-4.4h-0.6V105z M29.9,116h0.7
			v-3.9h1.3v-0.5h-1.3v-0.7c0-0.4,0.2-0.7,0.6-0.7c0.2,0,0.4,0.1,0.5,0.1l0.2-0.5c-0.2-0.1-0.5-0.2-0.7-0.2c-0.6-0.1-1.1,0.4-1.2,1
			c0,0.1,0,0.1,0,0.2v0.7h-0.8v0.5h0.8L29.9,116z M34.3,116.1c1.2,0,2.1-1,2.1-2.2c0,0,0-0.1,0-0.1c0.1-1.2-0.8-2.2-2-2.3
			c0,0-0.1,0-0.1,0c-1.2,0-2.1,1-2.1,2.2c0,0,0,0.1,0,0.1C32.1,115,33,116,34.3,116.1C34.2,116.1,34.2,116.1,34.3,116.1L34.3,116.1z
			 M34.3,115.5c-1,0-1.4-0.9-1.4-1.7s0.4-1.7,1.4-1.7c1,0,1.4,0.9,1.4,1.7S35.3,115.5,34.3,115.5L34.3,115.5z M37.5,116h0.7v-2.3
			c0-1.1,0.5-1.6,1.2-1.6c0.8,0,1,0.7,1,1.3v2.6H41v-2.7c0-1-0.4-1.8-1.5-1.8c-0.6,0-1.1,0.3-1.4,0.8v-0.8h-0.6L37.5,116z
			 M45.2,109.8v2.4c-0.3-0.5-0.8-0.7-1.4-0.7c-1.1,0-1.8,1-1.8,2.3c0,1.3,0.6,2.3,1.8,2.3c0.5,0,1.1-0.2,1.4-0.7l0,0.6h0.6v-6.2
			H45.2z M44,115.5c-0.9,0-1.3-0.8-1.3-1.7c0-0.9,0.4-1.7,1.3-1.7c0.9,0,1.3,0.8,1.3,1.7S44.9,115.5,44,115.5z M49.1,116.1
			c1.2,0,2.1-1,2.1-2.2c0,0,0-0.1,0-0.1c0.1-1.1-0.7-2.2-1.9-2.3c-1.1-0.1-2.2,0.7-2.3,1.9c0,0.1,0,0.2,0,0.4
			C46.9,115,47.8,116,49.1,116.1C49,116.1,49,116.1,49.1,116.1L49.1,116.1z M49.1,115.5c-1,0-1.4-0.9-1.4-1.7s0.4-1.7,1.4-1.7
			s1.4,0.9,1.4,1.7C50.5,114.7,50,115.5,49.1,115.5L49.1,115.5z M52.3,116h0.7v-2.3c0-1.1,0.5-1.6,1.2-1.6c0.8,0,1,0.7,1,1.3v2.6
			h0.7v-2.7c0-1-0.4-1.8-1.5-1.8c-0.6,0-1.1,0.3-1.4,0.8v-0.8h-0.7L52.3,116z M58.9,116.1c1.2,0,2.1-1,2.1-2.2c0,0,0-0.1,0-0.1
			c0.1-1.1-0.7-2.2-1.9-2.3c-1.1-0.1-2.2,0.7-2.3,1.9c0,0.1,0,0.2,0,0.4C56.7,115,57.6,116,58.9,116.1
			C58.8,116.1,58.9,116.1,58.9,116.1L58.9,116.1z M58.9,115.5c-1,0-1.4-0.9-1.4-1.7s0.4-1.7,1.4-1.7s1.4,0.9,1.4,1.7
			C60.3,114.7,59.9,115.5,58.9,115.5L58.9,115.5z M64.4,110.6h0.7v-0.8h-0.7V110.6z M64.5,116h0.6v-4.4h-0.6V116z M66.6,116h0.7
			v-2.3c0-1.1,0.5-1.6,1.2-1.6c0.8,0,1,0.7,1,1.3v2.6h0.6v-2.7c0-1-0.4-1.8-1.5-1.8c-0.6,0-1.1,0.3-1.4,0.8v-0.8h-0.7L66.6,116z
			 M75.3,116.1c0.6,0,1.1-0.3,1.4-0.8v0.7h0.7v-4.4h-0.6v2.4c0.1,0.8-0.5,1.4-1.3,1.5c-0.8,0-0.9-0.7-0.9-1.3v-2.6h-0.7v2.5
			C73.8,115.3,74.2,116.1,75.3,116.1z M78.8,116h0.7v-2.3c0-1.1,0.5-1.6,1.2-1.6c0.8,0,1,0.7,1,1.3v2.6h0.7v-2.7
			c0-1-0.4-1.8-1.5-1.8c-0.6,0-1.1,0.3-1.4,0.8v-0.8h-0.7V116z M87.5,116.1c0.2,0,0.5,0,0.7-0.1v-0.8c-0.2,0.1-0.3,0.1-0.5,0.1
			c-0.3,0-0.5-0.2-0.5-0.6v-2.4h1.1v-0.7h-1.1v-1.7l-0.8,0.7v1h-0.7v0.7h0.7v2.5c-0.1,0.6,0.4,1.2,1,1.3
			C87.3,116.1,87.4,116.1,87.5,116.1z M90.9,116.1c0.7,0,1.3-0.2,1.7-0.7l-0.6-0.5c-0.3,0.3-0.7,0.5-1.1,0.5c-0.6,0-1.2-0.5-1.2-1.1
			c0,0,0-0.1,0-0.1h3c0-0.1,0-0.2,0-0.4c0.1-1.1-0.6-2-1.7-2.2c-0.1,0-0.2,0-0.3,0c-1.1,0-2.1,1-2,2.1c0,0.1,0,0.1,0,0.2
			c-0.1,1.1,0.7,2.1,1.8,2.2C90.7,116.1,90.8,116.1,90.9,116.1z M89.7,113.4c0.1-0.7,0.4-1.2,1.1-1.2c0.7,0,1.1,0.5,1.1,1.2H89.7z
			 M95.1,116.1c0.8,0.1,1.5-0.5,1.6-1.3c0,0,0-0.1,0-0.1c0-1.6-2.3-1.1-2.3-2c0-0.3,0.3-0.5,0.7-0.5c0.4,0,0.8,0.2,0.9,0.6l0.6-0.4
			c-0.3-0.6-0.9-0.9-1.5-0.9c-0.7-0.1-1.4,0.4-1.5,1.2c0,0,0,0.1,0,0.1c0,1.5,2.3,1,2.3,2c0,0.4-0.3,0.6-0.8,0.6
			c-0.5,0-0.9-0.3-1-0.8l-0.7,0.3C93.6,115.7,94.3,116.1,95.1,116.1L95.1,116.1z M99.1,116.1c0.2,0,0.5,0,0.7-0.1v-0.8
			c-0.2,0.1-0.3,0.1-0.5,0.1c-0.3,0-0.5-0.2-0.5-0.6v-2.4h1.1v-0.7h-1.1v-1.7l-0.8,0.7v1h-0.7v0.7h0.7v2.5c-0.1,0.6,0.4,1.2,1,1.3
			C98.9,116.1,99,116.1,99.1,116.1L99.1,116.1z M102.6,116.1c1.2,0,2.2-1,2.2-2.2c0,0,0-0.1,0-0.1c0.1-1.2-0.9-2.2-2-2.3
			s-2.2,0.9-2.3,2c0,0.1,0,0.2,0,0.2c-0.1,1.2,0.9,2.2,2.1,2.3C102.5,116.1,102.5,116.1,102.6,116.1L102.6,116.1z M102.6,115.4
			c-0.9,0-1.3-0.8-1.3-1.6s0.4-1.6,1.3-1.6s1.3,0.7,1.3,1.6S103.5,115.4,102.6,115.4L102.6,115.4z M108,116h0.9v-2.3
			c0-0.7,0.4-1.4,1-1.4s0.8,0.6,0.8,1.1v2.6h0.9v-2.4c0-0.7,0.4-1.3,1-1.3s0.8,0.6,0.8,1.2v2.6h0.9v-2.7c0-1-0.5-1.8-1.6-1.8
			c-0.6,0-1.1,0.3-1.4,0.9c-0.3-0.7-1.1-1-1.8-0.8c-0.3,0.1-0.5,0.3-0.7,0.6v-0.6H108L108,116z M115.5,110.7h0.9v-0.9h-0.9V110.7z
			 M115.6,116h0.8v-4.4h-0.8V116z M119.1,116.1c0.8,0.1,1.5-0.5,1.6-1.3c0,0,0-0.1,0-0.1c0-1.6-2.3-1.1-2.3-2c0-0.3,0.3-0.5,0.7-0.5
			c0.4,0,0.8,0.2,0.9,0.6l0.6-0.4c-0.3-0.6-0.9-0.9-1.5-0.9c-0.7-0.1-1.4,0.4-1.5,1.2c0,0,0,0.1,0,0.1c0,1.5,2.3,1,2.3,2
			c0,0.4-0.3,0.6-0.8,0.6c-0.5,0-0.9-0.3-1-0.8l-0.7,0.3C117.6,115.7,118.3,116.1,119.1,116.1L119.1,116.1z M123.1,116.1
			c0.2,0,0.5,0,0.7-0.1v-0.8c-0.2,0.1-0.3,0.1-0.5,0.1c-0.3,0-0.5-0.2-0.5-0.6v-2.4h1.1v-0.7h-1.1v-1.7l-0.8,0.7v1h-0.7v0.7h0.7v2.5
			c-0.1,0.6,0.4,1.2,1,1.3C122.9,116.1,123,116.1,123.1,116.1L123.1,116.1z M126.6,116.1c1.2,0,2.2-1,2.2-2.2c0,0,0-0.1,0-0.1
			c0.1-1.2-0.9-2.2-2-2.3s-2.2,0.9-2.3,2c0,0.1,0,0.2,0,0.2c-0.1,1.2,0.9,2.2,2.1,2.3C126.5,116.1,126.5,116.1,126.6,116.1
			L126.6,116.1z M126.6,115.4c-0.9,0-1.3-0.8-1.3-1.6s0.4-1.6,1.3-1.6s1.3,0.7,1.3,1.6S127.5,115.4,126.6,115.4L126.6,115.4z"/>
		<path class="st10" d="M6.7,71.5c-3.1,0-5.7-2.3-5.7-5s2.6-5,5.7-5h9.7c3.1,0,5.7,2.3,5.7,5s-2.6,5-5.7,5H6.7z"/>
		<g>
			<defs>
				<path id="SVGID_7_" d="M6.7,26.3h9c3.3,0,6,2.2,6,5l0,0c0,2.8-2.7,5-6,5h-9c-3.3,0-6-2.2-6-5l0,0C0.7,28.6,3.4,26.3,6.7,26.3z"
					/>
			</defs>
			<clipPath id="SVGID_8_">
				<use xlink:href="#SVGID_7_"  style="overflow:visible;"/>
			</clipPath>
			<g transform="translate(0.703 26.322)" class="st11">
				<line class="st12" x1="-66" y1="1.6" x2="41.1" y2="90.9"/>
				<line class="st12" x1="-62.4" y1="0.1" x2="44.7" y2="89.4"/>
				<line class="st12" x1="-58.8" y1="-1.4" x2="48.3" y2="87.9"/>
				<line class="st12" x1="-55.2" y1="-2.9" x2="51.9" y2="86.4"/>
				<line class="st12" x1="-51.6" y1="-4.4" x2="55.5" y2="84.9"/>
				<line class="st12" x1="-48" y1="-5.9" x2="59.1" y2="83.4"/>
				<line class="st12" x1="-44.4" y1="-7.4" x2="62.7" y2="81.9"/>
				<line class="st12" x1="-40.8" y1="-8.9" x2="66.3" y2="80.4"/>
				<line class="st12" x1="-37.2" y1="-10.4" x2="69.9" y2="78.9"/>
				<line class="st12" x1="-33.6" y1="-11.9" x2="73.5" y2="77.4"/>
				<line class="st12" x1="-30" y1="-13.4" x2="77.1" y2="75.9"/>
				<line class="st12" x1="-26.4" y1="-14.9" x2="80.7" y2="74.4"/>
				<line class="st12" x1="-22.8" y1="-16.4" x2="84.3" y2="72.9"/>
				<line class="st12" x1="-19.2" y1="-17.9" x2="87.9" y2="71.4"/>
				<line class="st12" x1="-15.6" y1="-19.4" x2="91.5" y2="69.9"/>
				<line class="st12" x1="-12" y1="-20.9" x2="95.1" y2="68.4"/>
				<line class="st12" x1="-8.4" y1="-22.4" x2="98.7" y2="66.9"/>
				<line class="st12" x1="-4.8" y1="-23.9" x2="102.3" y2="65.4"/>
				<line class="st12" x1="-1.2" y1="-25.4" x2="105.9" y2="63.9"/>
				<line class="st12" x1="2.4" y1="-26.9" x2="109.5" y2="62.4"/>
				<line class="st12" x1="6" y1="-28.4" x2="113.1" y2="60.9"/>
			</g>
		</g>
		<path class="st12" d="M6.7,26.3h9c3.3,0,6,2.2,6,5l0,0c0,2.8-2.7,5-6,5h-9c-3.3,0-6-2.2-6-5l0,0C0.7,28.6,3.4,26.3,6.7,26.3z"/>
		<path d="M30.3,33H31l0.5-1.3h2.7l0.5,1.3h0.7l-2.3-6.2h-0.5L30.3,33z M31.7,31l1.1-3.2L34,31H31.7z M36.4,33h0.7v-2.3
			c0-0.8,0.4-1.6,1.1-1.6c0.8,0,0.9,0.7,0.9,1.3V33h0.7v-2.4c0-0.7,0.4-1.5,1.1-1.5c0.8,0,0.9,0.7,0.9,1.3V33h0.7v-2.7
			c0-1-0.4-1.8-1.5-1.8c-0.6,0-1.1,0.4-1.4,0.9c-0.3-0.7-1-1.1-1.8-0.8c-0.3,0.1-0.6,0.4-0.8,0.7v-0.7h-0.7V33z M45.9,33.1
			c1.1,0,1.8-1,1.8-2.3s-0.6-2.3-1.8-2.3c-0.5,0-1.1,0.2-1.4,0.7v-2.4h-0.7V33h0.7v-0.6C44.9,32.8,45.4,33.1,45.9,33.1L45.9,33.1z
			 M45.8,32.5c-0.9,0-1.3-0.8-1.3-1.7s0.4-1.7,1.3-1.7s1.3,0.8,1.3,1.7C47.1,31.7,46.7,32.5,45.8,32.5L45.8,32.5z M48.8,27.6h0.7
			v-0.8h-0.7V27.6z M48.9,33h0.7v-4.4h-0.7V33z M52.7,33.1c0.6,0,1.2-0.2,1.7-0.7L53.9,32c-0.3,0.3-0.8,0.5-1.2,0.5
			c-0.7,0-1.3-0.6-1.3-1.3c0-0.1,0-0.1,0-0.2h3.1c0-0.1,0-0.2,0-0.3c0-1-0.4-2.1-1.9-2.1c-1.1,0.1-2,1-1.9,2.1c0,0.1,0,0.1,0,0.2
			c-0.1,1.1,0.6,2.1,1.7,2.2C52.5,33.1,52.6,33.1,52.7,33.1L52.7,33.1z M51.4,30.5c0-0.7,0.4-1.4,1.2-1.4c0.9,0,1.2,0.7,1.2,1.4
			H51.4z M55.6,33h0.7v-2.3c0-1.1,0.5-1.6,1.2-1.6c0.8,0,1,0.7,1,1.3V33h0.6v-2.7c0-1-0.4-1.8-1.5-1.8c-0.6,0-1.1,0.3-1.4,0.8v-0.8
			h-0.7L55.6,33z M61.7,33.1c0.2,0,0.4,0,0.6-0.1v-0.6c-0.1,0.1-0.3,0.1-0.4,0.1c-0.3,0-0.6-0.2-0.6-0.7v-2.7h1.1v-0.5h-1.1V27
			l-0.6,0.6v1h-0.7v0.5h0.7v2.7C60.6,32.6,60.9,33.1,61.7,33.1z M64.5,33.1c0.7,0,1.3-0.3,1.5-0.9l0,0.8h0.6v-2.7
			c0.1-0.9-0.5-1.7-1.4-1.8c-0.1,0-0.2,0-0.3,0c-0.7,0-1.3,0.3-1.7,0.9l0.5,0.4c0.3-0.4,0.7-0.7,1.2-0.7c0.8,0,1.1,0.6,1.1,1.4h-1
			c-1.2,0-1.9,0.4-1.9,1.3c0,0.7,0.5,1.3,1.3,1.3C64.4,33.1,64.4,33.1,64.5,33.1L64.5,33.1z M64.6,32.5c-0.5,0-0.8-0.2-0.8-0.7
			c0-0.6,0.4-0.8,1.3-0.8H66C66,31.8,65.4,32.5,64.6,32.5L64.6,32.5z M71,28.6h-3.3v0.5h2.6l-2.7,3.4V33H71v-0.6h-2.6l2.6-3.3V28.6z
			 M72,27.6h0.7v-0.8H72V27.6z M72.1,33h0.7v-4.4h-0.7V33z M75.9,33.1c1.2,0,2.1-1,2.1-2.2c0,0,0-0.1,0-0.1c0.1-1.1-0.7-2.2-1.9-2.3
			c-1.1-0.1-2.2,0.7-2.3,1.9c0,0.1,0,0.2,0,0.4C73.7,32,74.6,33,75.9,33.1C75.8,33.1,75.9,33.1,75.9,33.1L75.9,33.1z M75.9,32.5
			c-1,0-1.4-0.9-1.4-1.7c0-0.9,0.4-1.7,1.4-1.7s1.4,0.9,1.4,1.7C77.3,31.7,76.9,32.5,75.9,32.5L75.9,32.5z M79.1,33h0.7v-2.3
			c0-1.1,0.5-1.6,1.2-1.6c0.8,0,1,0.7,1,1.3V33h0.7v-2.7c0-1-0.4-1.8-1.5-1.8c-0.6,0-1.1,0.3-1.4,0.8v-0.8h-0.7L79.1,33z M84,27.6
			h0.7v-0.8H84V27.6z M84,33h0.6v-4.4H84V33z M91.4,26.8v2.4c-0.3-0.5-0.8-0.7-1.4-0.7c-1.1,0-1.8,1-1.8,2.3s0.6,2.3,1.8,2.3
			c0.5,0,1.1-0.2,1.4-0.7l0,0.6H92v-6.2H91.4z M90.2,32.5c-0.9,0-1.3-0.8-1.3-1.7s0.4-1.7,1.3-1.7c0.9,0,1.3,0.8,1.3,1.7
			C91.4,31.7,91.1,32.5,90.2,32.5L90.2,32.5z M93.5,27.6h0.7v-0.8h-0.8L93.5,27.6z M93.5,33h0.7v-4.4h-0.7V33z M99.3,33.1
			c0.2,0,0.4,0,0.6-0.1v-0.6c-0.1,0.1-0.3,0.1-0.4,0.1c-0.3,0-0.6-0.2-0.6-0.7v-2.7h1.1v-0.5h-1.1V27l-0.7,0.6v1h-0.7v0.5h0.7v2.7
			C98.2,32.6,98.5,33.1,99.3,33.1L99.3,33.1z M102.6,33.1c0.6,0,1.2-0.2,1.7-0.7l-0.4-0.4c-0.3,0.3-0.8,0.5-1.2,0.5
			c-0.7,0-1.3-0.6-1.3-1.3c0-0.1,0-0.1,0-0.2h3.1c0-0.1,0-0.2,0-0.3c0-1-0.4-2.1-1.9-2.1c-1.1,0.1-2,1-1.9,2.1c0,0.1,0,0.1,0,0.2
			c-0.1,1.1,0.6,2.1,1.7,2.2C102.4,33.1,102.5,33.1,102.6,33.1L102.6,33.1z M101.3,30.5c0-0.7,0.4-1.4,1.2-1.4
			c0.9,0,1.2,0.7,1.2,1.4H101.3z M106.7,33.1c0.8,0.1,1.4-0.5,1.5-1.2c0,0,0-0.1,0-0.1c0-1.6-2.4-1.1-2.4-2.1c0-0.4,0.3-0.6,0.8-0.6
			c0.4,0,0.8,0.2,1,0.6l0.5-0.3c-0.3-0.5-0.8-0.9-1.4-0.9c-0.7-0.1-1.3,0.4-1.4,1.1c0,0,0,0.1,0,0.1c0,1.5,2.3,0.9,2.3,2.1
			c0,0.5-0.4,0.7-0.9,0.7c-0.5,0-1-0.3-1.1-0.8l-0.6,0.3C105.4,32.7,106,33.1,106.7,33.1L106.7,33.1z M110.6,33.1
			c0.2,0,0.4,0,0.6-0.1v-0.6c-0.1,0.1-0.3,0.1-0.4,0.1c-0.3,0-0.6-0.2-0.6-0.7v-2.7h1.1v-0.5h-1.1V27l-0.7,0.6v1h-0.7v0.5h0.7v2.7
			C109.5,32.6,109.8,33.1,110.6,33.1L110.6,33.1z M112.3,27.6h0.7v-0.8h-0.7L112.3,27.6z M112.3,33h0.7v-4.4h-0.7V33z M116.8,27.6
			h0.7v-0.8h-0.7V27.6z M116.8,33h0.7v-4.4h-0.7V33z M119,33h0.7v-2.3c0-1.1,0.5-1.6,1.2-1.6c0.8,0,1,0.7,1,1.3V33h0.7v-2.7
			c0-1-0.4-1.8-1.5-1.8c-0.6,0-1.1,0.3-1.4,0.8v-0.8H119L119,33z M127.8,33.1c0.7,0,1.4-0.5,1.7-1.2l-0.6-0.2
			c-0.1,0.5-0.6,0.9-1.1,0.9c-0.9,0-1.2-0.9-1.2-1.7c0-0.8,0.3-1.7,1.2-1.7c0.5,0,1,0.4,1.1,0.9l0.6-0.3c-0.3-0.7-0.9-1.2-1.7-1.2
			c-1.3,0-1.9,1.1-1.9,2.3c-0.1,1.1,0.6,2.1,1.7,2.3C127.7,33.1,127.8,33.1,127.8,33.1z M131.9,33.1c0.6,0,1.1-0.3,1.4-0.8V33h0.7
			v-4.4h-0.7V31c0.1,0.8-0.5,1.4-1.3,1.5c-0.8,0-0.9-0.7-0.9-1.3v-2.6h-0.7v2.5C130.4,32.3,130.8,33.1,131.9,33.1L131.9,33.1z
			 M135.4,27.6h0.7v-0.8h-0.7V27.6z M135.4,33h0.7v-4.4h-0.7V33z M139.9,27.6h0.7v-0.8h-0.7V27.6z M139.9,33h0.7v-4.4h-0.7V33z
			 M142.9,32.5c-0.2,0-0.2-0.2-0.2-0.2v-5.5H142v5.3c0,0.5,0,1,0.7,1c0.2,0,0.4,0,0.6-0.1v-0.5C143.2,32.5,143.1,32.5,142.9,32.5
			L142.9,32.5z M147.9,33.1c0.2,0,0.4,0,0.6-0.1v-0.6c-0.1,0.1-0.3,0.1-0.4,0.1c-0.3,0-0.6-0.2-0.6-0.7v-2.7h1.1v-0.5h-1.1V27
			l-0.7,0.6v1h-0.7v0.5h0.7v2.7C146.9,32.6,147.2,33.1,147.9,33.1L147.9,33.1z M151.3,33.1c0.6,0,1.2-0.2,1.7-0.7l-0.4-0.4
			c-0.3,0.3-0.8,0.5-1.2,0.5c-0.7,0-1.3-0.6-1.3-1.3c0-0.1,0-0.1,0-0.2h3.1c0-0.1,0-0.2,0-0.3c0-1-0.4-2.1-1.9-2.1
			c-1.1,0.1-2,1-1.9,2.1c0,0.1,0,0.1,0,0.2c-0.1,1.1,0.6,2.1,1.7,2.2C151.1,33.1,151.2,33.1,151.3,33.1L151.3,33.1z M150,30.5
			c0-0.7,0.4-1.4,1.2-1.4c0.9,0,1.2,0.7,1.2,1.4H150z M154.2,33h0.7v-2.3c0-0.8,0.4-1.6,1.1-1.6c0.8,0,0.9,0.7,0.9,1.3V33h0.7v-2.4
			c0-0.7,0.4-1.5,1.1-1.5c0.8,0,0.9,0.7,0.9,1.3V33h0.7v-2.7c0-1-0.4-1.8-1.5-1.8c-0.6,0-1.1,0.4-1.4,0.9c-0.3-0.7-1-1.1-1.8-0.8
			c-0.3,0.1-0.6,0.4-0.8,0.7v-0.7h-0.7V33z M161.7,34.9h0.7v-2.5c0.3,0.4,0.8,0.7,1.3,0.7c1.2,0,1.8-1,1.8-2.3s-0.6-2.3-1.8-2.3
			c-0.5,0-1,0.2-1.3,0.7v-0.6h-0.7L161.7,34.9z M163.5,32.5c-0.9,0-1.3-0.8-1.3-1.7s0.4-1.7,1.3-1.7s1.3,0.8,1.3,1.7
			C164.8,31.7,164.4,32.5,163.5,32.5L163.5,32.5z M168.3,33.1c1.2,0,2.1-1,2.1-2.2c0,0,0-0.1,0-0.1c0.1-1.1-0.7-2.2-1.9-2.3
			c-1.1-0.1-2.2,0.7-2.3,1.9c0,0.1,0,0.2,0,0.4C166.2,32,167.1,33,168.3,33.1C168.3,33.1,168.3,33.1,168.3,33.1L168.3,33.1z
			 M168.3,32.5c-1,0-1.4-0.9-1.4-1.7c0-0.9,0.4-1.7,1.4-1.7s1.4,0.9,1.4,1.7C169.8,31.7,169.3,32.5,168.3,32.5L168.3,32.5z
			 M176.7,26.8v2.4c-0.3-0.5-0.8-0.7-1.4-0.7c-1.1,0-1.8,1-1.8,2.3s0.6,2.3,1.8,2.3c0.5,0,1.1-0.2,1.4-0.7l0,0.6h0.6v-6.2H176.7z
			 M175.5,32.5c-0.9,0-1.3-0.8-1.3-1.7s0.4-1.7,1.3-1.7c0.9,0,1.3,0.8,1.3,1.7C176.8,31.7,176.4,32.5,175.5,32.5L175.5,32.5z
			 M180.5,33.1c0.6,0,1.2-0.2,1.7-0.7l-0.4-0.4c-0.3,0.3-0.8,0.5-1.2,0.5c-0.7,0-1.3-0.6-1.3-1.3c0-0.1,0-0.1,0-0.2h3.1
			c0-0.1,0-0.2,0-0.3c0-1-0.4-2.1-1.9-2.1c-1.1,0.1-2,1-1.9,2.1c0,0.1,0,0.1,0,0.2c-0.1,1.1,0.6,2.1,1.7,2.2
			C180.4,33.1,180.4,33.1,180.5,33.1L180.5,33.1z M179.2,30.5c0-0.7,0.4-1.4,1.2-1.4c0.9,0,1.2,0.7,1.2,1.4H179.2z M184.3,32.5
			c-0.2,0-0.2-0.2-0.2-0.2v-5.5h-0.7v5.3c0,0.5,0,1,0.7,1c0.2,0,0.4,0,0.6-0.1v-0.5C184.6,32.5,184.5,32.5,184.3,32.5L184.3,32.5z
			 M186.6,32.5c-0.2,0-0.2-0.2-0.2-0.2v-5.5h-0.7v5.3c0,0.5,0,1,0.7,1c0.2,0,0.4,0,0.6-0.1v-0.5C186.9,32.5,186.7,32.5,186.6,32.5
			L186.6,32.5z M189,33.1c0.7,0,1.3-0.3,1.5-0.9l0,0.8h0.6v-2.7c0.1-0.9-0.5-1.7-1.4-1.8c-0.1,0-0.2,0-0.3,0c-0.7,0-1.3,0.3-1.7,0.9
			l0.5,0.4c0.3-0.4,0.7-0.7,1.2-0.7c0.8,0,1.1,0.6,1.1,1.4h-1c-1.2,0-1.9,0.4-1.9,1.3c0,0.7,0.5,1.3,1.3,1.3
			C188.9,33.1,189,33.1,189,33.1L189,33.1z M189.1,32.5c-0.5,0-0.8-0.2-0.8-0.7c0-0.6,0.4-0.8,1.3-0.8h0.9
			C190.5,31.8,189.9,32.5,189.1,32.5L189.1,32.5z M196.1,33.1c0.8,0.1,1.4-0.5,1.5-1.2c0,0,0-0.1,0-0.1c0-1.6-2.4-1.1-2.4-2.1
			c0-0.4,0.3-0.6,0.8-0.6c0.4,0,0.8,0.2,1,0.6l0.5-0.3c-0.3-0.5-0.8-0.9-1.4-0.9c-0.7-0.1-1.3,0.4-1.4,1.1c0,0,0,0.1,0,0.1
			c0,1.5,2.3,0.9,2.3,2.1c0,0.5-0.4,0.7-0.9,0.7c-0.5,0-1-0.3-1.1-0.8l-0.6,0.3C194.7,32.7,195.4,33.1,196.1,33.1L196.1,33.1z
			 M199.9,33.1c0.2,0,0.4,0,0.6-0.1v-0.6c-0.1,0.1-0.3,0.1-0.4,0.1c-0.3,0-0.6-0.2-0.6-0.7v-2.7h1.1v-0.5h-1.1V27l-0.6,0.6v1h-0.7
			v0.5h0.7v2.7C198.8,32.6,199.1,33.1,199.9,33.1L199.9,33.1z M203.3,33.1c1.2,0,2.1-1,2.1-2.2c0,0,0-0.1,0-0.1
			c0.1-1.1-0.7-2.2-1.9-2.3c-1.1-0.1-2.2,0.7-2.3,1.9c0,0.1,0,0.2,0,0.4C201.2,32,202,33,203.3,33.1
			C203.3,33.1,203.3,33.1,203.3,33.1L203.3,33.1z M203.3,32.5c-1,0-1.4-0.9-1.4-1.7c0-0.9,0.4-1.7,1.4-1.7s1.4,0.9,1.4,1.7
			C204.7,31.7,204.3,32.5,203.3,32.5L203.3,32.5z M206.5,33h0.6v-2.2c0-1.1,0.5-1.7,1.2-1.7c0.2,0,0.4,0,0.5,0.2l0.3-0.6
			c-0.2-0.2-0.5-0.2-0.7-0.2c-0.6,0-1.1,0.3-1.3,0.9v-0.8h-0.7L206.5,33z M210,27.6h0.7v-0.8H210V27.6z M210,33h0.6v-4.4H210V33z
			 M213.2,33.1c0.7,0,1.3-0.3,1.5-0.9l0,0.8h0.6v-2.7c0.1-0.9-0.5-1.7-1.4-1.8c-0.1,0-0.2,0-0.3,0c-0.7,0-1.3,0.3-1.7,0.9l0.5,0.4
			c0.3-0.4,0.7-0.7,1.2-0.7c0.8,0,1.1,0.6,1.1,1.4h-1c-1.2,0-1.9,0.4-1.9,1.3c0,0.7,0.5,1.3,1.3,1.3
			C213.1,33.1,213.1,33.1,213.2,33.1z M213.3,32.5c-0.5,0-0.8-0.2-0.8-0.7c0-0.6,0.4-0.8,1.3-0.8h0.9
			C214.7,31.8,214.1,32.5,213.3,32.5z M220.2,28.1h0.7l-1-1.3h-0.8L220.2,28.1z M220.7,33.1c0.6,0,1.2-0.2,1.7-0.7l-0.4-0.4
			c-0.3,0.3-0.8,0.5-1.2,0.5c-0.7,0-1.3-0.6-1.3-1.3c0-0.1,0-0.1,0-0.2h3.1c0-0.1,0-0.2,0-0.3c0-1-0.4-2.1-1.9-2.1
			c-1.1,0.1-2,1-1.9,2.1c0,0.1,0,0.1,0,0.2c-0.1,1.1,0.6,2.1,1.7,2.2C220.5,33.1,220.6,33.1,220.7,33.1L220.7,33.1z M219.4,30.5
			c0-0.7,0.4-1.4,1.2-1.4c0.9,0,1.2,0.7,1.2,1.4H219.4z M32.3,44.1c0.7,0,1.4-0.5,1.7-1.2l-0.6-0.2c-0.1,0.5-0.6,0.9-1.1,0.9
			c-0.9,0-1.2-0.9-1.2-1.7s0.3-1.7,1.2-1.7c0.5,0,1,0.4,1.1,0.9l0.6-0.3c-0.3-0.7-1-1.2-1.7-1.2c-1.3,0-1.9,1.1-1.9,2.3
			c-0.1,1.1,0.6,2.1,1.7,2.3C32.2,44.1,32.3,44.1,32.3,44.1z M36.7,44.1c1.2,0,2.1-1,2.1-2.2c0,0,0-0.1,0-0.1c0.1-1.2-0.8-2.2-2-2.3
			c0,0-0.1,0-0.1,0c-1.2,0-2.1,1-2.1,2.2c0,0,0,0.1,0,0.1C34.5,43,35.4,44,36.7,44.1C36.6,44.1,36.7,44.1,36.7,44.1L36.7,44.1z
			 M36.7,43.5c-1,0-1.4-0.9-1.4-1.7s0.4-1.7,1.4-1.7s1.4,0.9,1.4,1.7C38.1,42.7,37.7,43.5,36.7,43.5L36.7,43.5z M40.8,43.5
			c-0.2,0-0.2-0.2-0.2-0.2v-5.5h-0.7v5.3c0,0.5,0,1,0.7,1c0.2,0,0.4,0,0.6-0.1v-0.5C41,43.5,40.9,43.5,40.8,43.5L40.8,43.5z
			 M43,43.5c-0.2,0-0.2-0.2-0.2-0.2v-5.5h-0.7v5.3c0,0.5,0,1,0.7,1c0.2,0,0.4,0,0.6-0.1v-0.5C43.3,43.5,43.2,43.5,43,43.5L43,43.5z
			 M46.2,44.1c1.2,0,2.1-1,2.1-2.2c0,0,0-0.1,0-0.1c0.1-1.1-0.7-2.2-1.9-2.3c-1.1-0.1-2.2,0.7-2.3,1.9c0,0.1,0,0.2,0,0.4
			C44,43,44.9,44,46.2,44.1C46.1,44.1,46.1,44.1,46.2,44.1L46.2,44.1z M46.2,43.5c-1,0-1.4-0.9-1.4-1.7s0.4-1.7,1.4-1.7
			s1.4,0.9,1.4,1.7C47.6,42.7,47.1,43.5,46.2,43.5L46.2,43.5z M50.9,44.1c0.7,0,1.4-0.5,1.7-1.2L52,42.7c-0.1,0.5-0.6,0.9-1.1,0.9
			c-0.9,0-1.2-0.9-1.2-1.7s0.3-1.7,1.2-1.7c0.5,0,1,0.4,1.1,0.9l0.6-0.3c-0.3-0.7-0.9-1.2-1.7-1.2c-1.3,0-1.9,1.1-1.9,2.3
			c-0.1,1.1,0.6,2.1,1.7,2.3C50.8,44.1,50.9,44.1,50.9,44.1L50.9,44.1z M54.6,44.1c0.7,0,1.3-0.3,1.5-0.9l0,0.8h0.6v-2.7
			c0.1-0.9-0.5-1.7-1.4-1.8c-0.1,0-0.2,0-0.3,0c-0.7,0-1.3,0.3-1.7,0.9l0.5,0.4c0.3-0.4,0.7-0.7,1.2-0.7c0.8,0,1.1,0.6,1.1,1.4h-1
			c-1.2,0-1.9,0.4-1.9,1.3c0,0.7,0.5,1.3,1.3,1.3C54.5,44.1,54.6,44.1,54.6,44.1L54.6,44.1z M54.7,43.5c-0.5,0-0.8-0.2-0.8-0.7
			c0-0.6,0.4-0.8,1.3-0.8h0.9C56.2,42.8,55.5,43.5,54.7,43.5L54.7,43.5z M59.3,44.1c0.2,0,0.4,0,0.6-0.1v-0.6
			c-0.1,0.1-0.3,0.1-0.4,0.1c-0.3,0-0.6-0.2-0.6-0.7v-2.7H60v-0.5h-1.1V38l-0.7,0.6v1h-0.7v0.5h0.7v2.7
			C58.3,43.6,58.5,44.1,59.3,44.1L59.3,44.1z M62.7,44.1c1.2,0,2.1-1,2.1-2.2c0,0,0-0.1,0-0.1c0.1-1.1-0.7-2.2-1.9-2.3
			c-1.1-0.1-2.2,0.7-2.3,1.9c0,0.1,0,0.2,0,0.4C60.6,43,61.5,44,62.7,44.1C62.7,44.1,62.7,44.1,62.7,44.1L62.7,44.1z M62.7,43.5
			c-1,0-1.4-0.9-1.4-1.7s0.4-1.7,1.4-1.7s1.4,0.9,1.4,1.7C64.2,42.7,63.7,43.5,62.7,43.5L62.7,43.5z M68.3,44H69v-2.3
			c0-1.1,0.5-1.6,1.2-1.6c0.8,0,1,0.7,1,1.3V44h0.7v-2.7c0-1-0.4-1.8-1.5-1.8c-0.6,0-1.1,0.3-1.4,0.8v-0.8h-0.7V44z M74.9,44.1
			c0.6,0,1.2-0.2,1.7-0.7L76.1,43c-0.3,0.3-0.8,0.5-1.2,0.5c-0.7,0-1.3-0.6-1.3-1.3c0-0.1,0-0.1,0-0.2h3.1c0-0.1,0-0.2,0-0.3
			c0-1-0.4-2.1-1.9-2.1c-1.1,0.1-2,1-1.9,2.1c0,0.1,0,0.1,0,0.2c-0.1,1.1,0.6,2.1,1.7,2.2C74.7,44.1,74.8,44.1,74.9,44.1z
			 M73.6,41.5c0-0.7,0.4-1.4,1.2-1.4c0.9,0,1.2,0.7,1.2,1.4H73.6z M78.7,43.5c-0.2,0-0.2-0.2-0.2-0.2v-5.5h-0.7v5.3c0,0.5,0,1,0.7,1
			c0.2,0,0.4,0,0.6-0.1v-0.5C79,43.5,78.8,43.5,78.7,43.5z M80.9,43.5c-0.2,0-0.2-0.2-0.2-0.2v-5.5h-0.7v5.3c0,0.5,0,1,0.7,1
			c0.2,0,0.4,0,0.6-0.1v-0.5C81.2,43.5,81.1,43.5,80.9,43.5z M83.4,44.1c0.7,0,1.3-0.3,1.5-0.9l0,0.8h0.6v-2.7
			c0.1-0.9-0.5-1.7-1.4-1.8c-0.1,0-0.2,0-0.3,0c-0.7,0-1.3,0.3-1.7,0.9l0.5,0.4c0.3-0.4,0.7-0.7,1.2-0.7c0.8,0,1.1,0.6,1.1,1.4h-1
			c-1.2,0-1.9,0.4-1.9,1.3c0,0.7,0.5,1.3,1.3,1.3C83.3,44.1,83.3,44.1,83.4,44.1z M83.4,43.5c-0.5,0-0.8-0.2-0.8-0.7
			c0-0.6,0.4-0.8,1.3-0.8h0.9C84.9,42.8,84.3,43.5,83.4,43.5z M90.8,44.1c0.8,0,1.5-0.5,1.7-1.2l-0.8-0.3c-0.1,0.5-0.5,0.8-1,0.8
			c-0.8,0-1.1-0.8-1.1-1.5s0.3-1.5,1.1-1.5c0.5,0,0.9,0.3,1,0.8l0.8-0.3c-0.3-0.8-1-1.2-1.8-1.2c-1.1,0-2,1-2,2.1c0,0.1,0,0.1,0,0.2
			c-0.1,1.1,0.7,2.1,1.8,2.3C90.7,44.1,90.8,44.1,90.8,44.1z M95.2,44.1c1.2,0,2.2-1,2.2-2.2c0,0,0-0.1,0-0.1c0.1-1.2-0.9-2.2-2-2.3
			c-1.2-0.1-2.2,0.9-2.3,2c0,0.1,0,0.2,0,0.2C93,43,93.9,44,95.1,44.1C95.2,44.1,95.2,44.1,95.2,44.1z M95.2,43.4
			c-0.9,0-1.3-0.8-1.3-1.6c0-0.8,0.4-1.6,1.3-1.6s1.3,0.7,1.3,1.6C96.5,42.6,96.2,43.4,95.2,43.4L95.2,43.4z M98.4,44h0.8v-2.3
			c0-0.9,0.5-1.4,1.1-1.4c0.7,0,0.9,0.6,0.9,1.2V44h0.8v-2.7c0-0.9-0.4-1.8-1.5-1.8c-0.5,0-1.1,0.3-1.4,0.7v-0.6h-0.8L98.4,44z
			 M104.8,44.1c0.2,0,0.5,0,0.7-0.1v-0.8c-0.2,0.1-0.3,0.1-0.5,0.1c-0.3,0-0.5-0.2-0.5-0.6v-2.4h1.1v-0.7h-1.1v-1.7l-0.8,0.7v1h-0.7
			v0.7h0.7v2.5c-0.1,0.6,0.4,1.2,1,1.3C104.6,44.1,104.7,44.1,104.8,44.1z M108.2,44.1c0.7,0,1.3-0.2,1.7-0.7l-0.6-0.5
			c-0.3,0.3-0.7,0.5-1.1,0.5c-0.6,0-1.2-0.5-1.2-1.1c0,0,0-0.1,0-0.1h3c0-0.1,0-0.2,0-0.4c0.1-1.1-0.6-2-1.7-2.2c-0.1,0-0.2,0-0.3,0
			c-1.1,0-2.1,1-2,2.1c0,0.1,0,0.1,0,0.2c-0.1,1.1,0.7,2.1,1.8,2.2C108.1,44.1,108.2,44.1,108.2,44.1z M107,41.4
			c0.1-0.6,0.4-1.2,1.1-1.2c0.7,0,1.1,0.5,1.1,1.2H107z M111.1,44h0.9v-2.3c0-0.7,0.4-1.4,1-1.4s0.8,0.6,0.8,1.1V44h0.9v-2.4
			c0-0.7,0.4-1.3,1-1.3s0.8,0.6,0.8,1.2V44h0.9v-2.7c0-1-0.5-1.8-1.6-1.8c-0.6,0-1.1,0.3-1.4,0.9c-0.3-0.7-1.1-1-1.8-0.8
			c-0.3,0.1-0.5,0.3-0.7,0.6v-0.6h-0.9L111.1,44z M118.7,45.9h0.9v-2.5c0.3,0.4,0.8,0.6,1.3,0.6c1.2,0,1.8-1.1,1.8-2.3
			s-0.6-2.3-1.8-2.3c-0.5,0-1,0.2-1.3,0.6v-0.5h-0.9V45.9z M120.7,43.3c-0.8,0-1.2-0.7-1.2-1.5c0-0.8,0.4-1.5,1.2-1.5
			s1.2,0.7,1.2,1.5C121.8,42.6,121.5,43.3,120.7,43.3L120.7,43.3z M125.5,44.1c1.2,0,2.2-1,2.2-2.2c0,0,0-0.1,0-0.1
			c0.1-1.2-0.9-2.2-2-2.3c-1.2-0.1-2.2,0.9-2.3,2c0,0.1,0,0.2,0,0.2c-0.1,1.2,0.9,2.2,2,2.3C125.4,44.1,125.5,44.1,125.5,44.1
			L125.5,44.1z M125.5,43.4c-0.9,0-1.3-0.8-1.3-1.6c0-0.8,0.4-1.6,1.3-1.6s1.3,0.7,1.3,1.6C126.8,42.6,126.4,43.4,125.5,43.4
			L125.5,43.4z M128.7,44h0.8v-2c0-1.1,0.5-1.6,1.1-1.6c0.2,0,0.4,0.1,0.5,0.2l0.4-0.7c-0.2-0.2-0.5-0.3-0.8-0.3
			c-0.5,0-1,0.3-1.2,0.9v-0.8h-0.8V44z M133.3,44.1c0.6,0,1.2-0.3,1.5-0.8l0,0.7h0.7v-2.7c0.1-0.9-0.6-1.7-1.5-1.8
			c-0.1,0-0.2,0-0.3,0c-0.7,0-1.4,0.3-1.7,0.9l0.6,0.5c0.2-0.4,0.7-0.6,1.1-0.6c0.7,0,1,0.5,1,1.2h-1.1c-1.1,0-1.8,0.4-1.8,1.3
			c0,0.7,0.6,1.4,1.3,1.4C133.2,44.1,133.3,44.1,133.3,44.1z M133.5,43.4c-0.4,0-0.7-0.2-0.7-0.6c0-0.4,0.3-0.7,1-0.7h1
			C134.7,42.8,134.2,43.4,133.5,43.4z M136.8,44h0.8v-2.3c0-0.9,0.5-1.4,1.1-1.4c0.7,0,0.9,0.6,0.9,1.2V44h0.8v-2.7
			c0-0.9-0.4-1.8-1.5-1.8c-0.5,0-1.1,0.3-1.4,0.7v-0.6h-0.8L136.8,44z M143.6,44.1c0.7,0,1.3-0.2,1.7-0.7l-0.6-0.5
			c-0.3,0.3-0.7,0.5-1.1,0.5c-0.6,0-1.2-0.5-1.2-1.1c0,0,0-0.1,0-0.1h3c0-0.1,0-0.2,0-0.4c0.1-1.1-0.6-2-1.7-2.2c-0.1,0-0.2,0-0.3,0
			c-1.1,0-2.1,1-2,2.1c0,0.1,0,0.1,0,0.2c-0.1,1.1,0.7,2.1,1.8,2.2C143.4,44.1,143.5,44.1,143.6,44.1z M142.4,41.4
			c0.1-0.6,0.4-1.2,1.1-1.2c0.7,0,1.1,0.5,1.1,1.2H142.4z M146.4,38.7h0.9v-0.9h-0.9V38.7z M146.4,44h0.8v-4.4h-0.8V44z M150,44.1
			c0.2,0,0.5,0,0.7-0.1v-0.8c-0.2,0.1-0.3,0.1-0.5,0.1c-0.3,0-0.5-0.2-0.5-0.6v-2.4h1.1v-0.7h-1.1v-1.7l-0.8,0.7v1h-0.7v0.7h0.7v2.5
			c-0.1,0.6,0.4,1.2,1,1.3C149.9,44.1,150,44.1,150,44.1L150,44.1z M153,39.1h0.7l-1-1.3h-1L153,39.1z M152.9,44.1
			c0.6,0,1.2-0.3,1.5-0.8l0,0.7h0.7v-2.7c0.1-0.9-0.6-1.7-1.5-1.8c-0.1,0-0.2,0-0.3,0c-0.7,0-1.4,0.3-1.7,0.9l0.6,0.5
			c0.2-0.4,0.7-0.6,1.1-0.6c0.7,0,1,0.5,1,1.2h-1.1c-1.1,0-1.8,0.4-1.8,1.3c0,0.7,0.6,1.4,1.3,1.4C152.8,44.1,152.9,44.1,152.9,44.1
			L152.9,44.1z M153,43.4c-0.4,0-0.7-0.2-0.7-0.6c0-0.4,0.3-0.7,1-0.7h1C154.3,42.8,153.7,43.3,153,43.4L153,43.4z"/>
		<path d="M30.3,69H31l0.5-1.3h2.7l0.5,1.3h0.7l-2.3-6.2h-0.5L30.3,69z M31.7,67l1.1-3.2L34,67H31.7z M36.4,69h0.7v-2.3
			c0-0.8,0.4-1.6,1.1-1.6c0.8,0,0.9,0.7,0.9,1.3V69h0.7v-2.4c0-0.7,0.4-1.5,1.1-1.5c0.8,0,0.9,0.7,0.9,1.3V69h0.7v-2.7
			c0-1-0.4-1.8-1.5-1.8c-0.6,0-1.1,0.4-1.4,0.9c-0.3-0.7-1-1.1-1.8-0.8c-0.3,0.1-0.6,0.4-0.8,0.7v-0.7h-0.7V69z M45.9,69.1
			c1.1,0,1.8-1,1.8-2.3s-0.6-2.3-1.8-2.3c-0.5,0-1.1,0.2-1.4,0.7v-2.4h-0.7V69h0.7v-0.6C44.9,68.8,45.4,69.1,45.9,69.1L45.9,69.1z
			 M45.8,68.5c-0.9,0-1.3-0.8-1.3-1.7c0-0.9,0.4-1.7,1.3-1.7s1.3,0.8,1.3,1.7S46.7,68.5,45.8,68.5L45.8,68.5z M48.8,63.6h0.7v-0.8
			h-0.7V63.6z M48.9,69h0.7v-4.4h-0.7V69z M52.7,69.1c0.6,0,1.2-0.2,1.7-0.7L53.9,68c-0.3,0.3-0.8,0.5-1.2,0.5
			c-0.7,0-1.3-0.6-1.3-1.3c0-0.1,0-0.1,0-0.2h3.1c0-0.1,0-0.2,0-0.3c0-1-0.4-2.1-1.9-2.1c-1.1,0.1-2,1-1.9,2.1c0,0.1,0,0.1,0,0.2
			c-0.1,1.1,0.6,2.1,1.7,2.2C52.5,69.1,52.6,69.1,52.7,69.1L52.7,69.1z M51.4,66.5c0-0.7,0.4-1.4,1.2-1.4c0.9,0,1.2,0.7,1.2,1.4
			H51.4z M55.6,69h0.7v-2.3c0-1.1,0.5-1.6,1.2-1.6c0.8,0,1,0.7,1,1.3V69h0.6v-2.7c0-1-0.4-1.8-1.5-1.8c-0.6,0-1.1,0.3-1.4,0.8v-0.8
			h-0.7L55.6,69z M61.7,69.1c0.2,0,0.4,0,0.6-0.1v-0.6c-0.1,0.1-0.3,0.1-0.4,0.1c-0.3,0-0.6-0.2-0.6-0.7v-2.7h1.1v-0.5h-1.1V63
			l-0.6,0.6v1h-0.7v0.5h0.7v2.7C60.6,68.6,60.9,69.1,61.7,69.1z M64.5,69.1c0.7,0,1.3-0.3,1.5-0.9l0,0.8h0.6v-2.7
			c0.1-0.9-0.5-1.7-1.4-1.8c-0.1,0-0.2,0-0.3,0c-0.7,0-1.3,0.3-1.7,0.9l0.5,0.4c0.3-0.4,0.7-0.7,1.2-0.7c0.8,0,1.1,0.6,1.1,1.4h-1
			c-1.2,0-1.9,0.4-1.9,1.3c0,0.7,0.5,1.3,1.3,1.3C64.4,69.1,64.4,69.1,64.5,69.1L64.5,69.1z M64.6,68.5c-0.5,0-0.8-0.2-0.8-0.7
			c0-0.6,0.4-0.8,1.3-0.8H66C66,67.8,65.4,68.5,64.6,68.5L64.6,68.5z M71,64.6h-3.3v0.5h2.6l-2.7,3.4V69H71v-0.6h-2.6l2.6-3.3V64.6z
			 M72,63.6h0.7v-0.8H72V63.6z M72.1,69h0.7v-4.4h-0.7V69z M75.9,69.1c1.2,0,2.1-1,2.1-2.2c0,0,0-0.1,0-0.1c0.1-1.1-0.7-2.2-1.9-2.3
			c-1.1-0.1-2.2,0.7-2.3,1.9c0,0.1,0,0.2,0,0.4C73.7,68,74.6,69,75.9,69.1C75.8,69.1,75.9,69.1,75.9,69.1L75.9,69.1z M75.9,68.5
			c-1,0-1.4-0.9-1.4-1.7s0.4-1.7,1.4-1.7s1.4,0.9,1.4,1.7C77.3,67.7,76.9,68.5,75.9,68.5L75.9,68.5z M79.1,69h0.7v-2.3
			c0-1.1,0.5-1.6,1.2-1.6c0.8,0,1,0.7,1,1.3V69h0.7v-2.7c0-1-0.4-1.8-1.5-1.8c-0.6,0-1.1,0.3-1.4,0.8v-0.8h-0.7L79.1,69z M84,63.6
			h0.7v-0.8H84V63.6z M84,69h0.6v-4.4H84V69z M91.4,62.8v2.4c-0.3-0.5-0.8-0.7-1.4-0.7c-1.1,0-1.8,1-1.8,2.3c0,1.3,0.6,2.3,1.8,2.3
			c0.5,0,1.1-0.2,1.4-0.7l0,0.6H92v-6.2H91.4z M90.2,68.5c-0.9,0-1.3-0.8-1.3-1.7s0.4-1.7,1.3-1.7c0.9,0,1.3,0.8,1.3,1.7
			S91.1,68.5,90.2,68.5L90.2,68.5z M93.5,63.6h0.7v-0.8h-0.8L93.5,63.6z M93.5,69h0.7v-4.4h-0.7V69z M99.3,69.1c0.2,0,0.4,0,0.6-0.1
			v-0.6c-0.1,0.1-0.3,0.1-0.4,0.1c-0.3,0-0.6-0.2-0.6-0.7v-2.7h1.1v-0.5h-1.1V63l-0.7,0.6v1h-0.7v0.5h0.7v2.7
			C98.2,68.6,98.5,69.1,99.3,69.1L99.3,69.1z M102.6,69.1c0.6,0,1.2-0.2,1.7-0.7l-0.4-0.4c-0.3,0.3-0.8,0.5-1.2,0.5
			c-0.7,0-1.3-0.6-1.3-1.3c0-0.1,0-0.1,0-0.2h3.1c0-0.1,0-0.2,0-0.3c0-1-0.4-2.1-1.9-2.1c-1.1,0.1-2,1-1.9,2.1c0,0.1,0,0.1,0,0.2
			c-0.1,1.1,0.6,2.1,1.7,2.2C102.4,69.1,102.5,69.1,102.6,69.1L102.6,69.1z M101.3,66.5c0-0.7,0.4-1.4,1.2-1.4
			c0.9,0,1.2,0.7,1.2,1.4H101.3z M106.7,69.1c0.8,0.1,1.4-0.5,1.5-1.2c0,0,0-0.1,0-0.1c0-1.6-2.4-1.1-2.4-2.1c0-0.4,0.3-0.6,0.8-0.6
			c0.4,0,0.8,0.2,1,0.6l0.5-0.3c-0.3-0.5-0.8-0.9-1.4-0.9c-0.7-0.1-1.3,0.4-1.4,1.1c0,0,0,0.1,0,0.1c0,1.5,2.3,0.9,2.3,2.1
			c0,0.5-0.4,0.7-0.9,0.7c-0.5,0-1-0.3-1.1-0.8l-0.6,0.3C105.4,68.7,106,69.1,106.7,69.1L106.7,69.1z M110.6,69.1
			c0.2,0,0.4,0,0.6-0.1v-0.6c-0.1,0.1-0.3,0.1-0.4,0.1c-0.3,0-0.6-0.2-0.6-0.7v-2.7h1.1v-0.5h-1.1V63l-0.7,0.6v1h-0.7v0.5h0.7v2.7
			C109.5,68.6,109.8,69.1,110.6,69.1L110.6,69.1z M112.3,63.6h0.7v-0.8h-0.7L112.3,63.6z M112.3,69h0.7v-4.4h-0.7V69z M116.8,63.6
			h0.7v-0.8h-0.7V63.6z M116.8,69h0.7v-4.4h-0.7V69z M119,69h0.7v-2.3c0-1.1,0.5-1.6,1.2-1.6c0.8,0,1,0.7,1,1.3V69h0.7v-2.7
			c0-1-0.4-1.8-1.5-1.8c-0.6,0-1.1,0.3-1.4,0.8v-0.8H119L119,69z M127.8,69.1c0.7,0,1.4-0.5,1.7-1.2l-0.6-0.2
			c-0.1,0.5-0.6,0.9-1.1,0.9c-0.9,0-1.2-0.9-1.2-1.7s0.3-1.7,1.2-1.7c0.5,0,1,0.4,1.1,0.9l0.6-0.3c-0.3-0.7-0.9-1.2-1.7-1.2
			c-1.3,0-1.9,1.1-1.9,2.3c-0.1,1.1,0.6,2.1,1.7,2.3C127.7,69.1,127.8,69.1,127.8,69.1z M131.9,69.1c0.6,0,1.1-0.3,1.4-0.8V69h0.7
			v-4.4h-0.7V67c0.1,0.8-0.5,1.4-1.3,1.5c-0.8,0-0.9-0.7-0.9-1.3v-2.6h-0.7v2.5C130.4,68.3,130.8,69.1,131.9,69.1L131.9,69.1z
			 M135.4,63.6h0.7v-0.8h-0.7V63.6z M135.4,69h0.7v-4.4h-0.7V69z M139.9,63.6h0.7v-0.8h-0.7V63.6z M139.9,69h0.7v-4.4h-0.7V69z
			 M142.9,68.5c-0.2,0-0.2-0.2-0.2-0.2v-5.5H142v5.3c0,0.5,0,1,0.7,1c0.2,0,0.4,0,0.6-0.1v-0.5C143.2,68.5,143.1,68.5,142.9,68.5
			L142.9,68.5z M147.9,69.1c0.2,0,0.4,0,0.6-0.1v-0.6c-0.1,0.1-0.3,0.1-0.4,0.1c-0.3,0-0.6-0.2-0.6-0.7v-2.7h1.1v-0.5h-1.1V63
			l-0.7,0.6v1h-0.7v0.5h0.7v2.7C146.9,68.6,147.2,69.1,147.9,69.1L147.9,69.1z M151.3,69.1c0.6,0,1.2-0.2,1.7-0.7l-0.4-0.4
			c-0.3,0.3-0.8,0.5-1.2,0.5c-0.7,0-1.3-0.6-1.3-1.3c0-0.1,0-0.1,0-0.2h3.1c0-0.1,0-0.2,0-0.3c0-1-0.4-2.1-1.9-2.1
			c-1.1,0.1-2,1-1.9,2.1c0,0.1,0,0.1,0,0.2c-0.1,1.1,0.6,2.1,1.7,2.2C151.1,69.1,151.2,69.1,151.3,69.1L151.3,69.1z M150,66.5
			c0-0.7,0.4-1.4,1.2-1.4c0.9,0,1.2,0.7,1.2,1.4H150z M154.2,69h0.7v-2.3c0-0.8,0.4-1.6,1.1-1.6c0.8,0,0.9,0.7,0.9,1.3V69h0.7v-2.4
			c0-0.7,0.4-1.5,1.1-1.5c0.8,0,0.9,0.7,0.9,1.3V69h0.7v-2.7c0-1-0.4-1.8-1.5-1.8c-0.6,0-1.1,0.4-1.4,0.9c-0.3-0.7-1-1.1-1.8-0.8
			c-0.3,0.1-0.6,0.4-0.8,0.7v-0.7h-0.7V69z M161.7,70.9h0.7v-2.5c0.3,0.4,0.8,0.7,1.3,0.7c1.2,0,1.8-1,1.8-2.3
			c0-1.2-0.6-2.3-1.8-2.3c-0.5,0-1,0.2-1.3,0.7v-0.6h-0.7L161.7,70.9z M163.5,68.5c-0.9,0-1.3-0.8-1.3-1.7c0-0.9,0.4-1.7,1.3-1.7
			s1.3,0.8,1.3,1.7S164.4,68.5,163.5,68.5L163.5,68.5z M168.3,69.1c1.2,0,2.1-1,2.1-2.2c0,0,0-0.1,0-0.1c0.1-1.1-0.7-2.2-1.9-2.3
			c-1.1-0.1-2.2,0.7-2.3,1.9c0,0.1,0,0.2,0,0.4C166.2,68,167.1,69,168.3,69.1C168.3,69.1,168.3,69.1,168.3,69.1L168.3,69.1z
			 M168.3,68.5c-1,0-1.4-0.9-1.4-1.7s0.4-1.7,1.4-1.7s1.4,0.9,1.4,1.7C169.8,67.7,169.3,68.5,168.3,68.5L168.3,68.5z M176.7,62.8
			v2.4c-0.3-0.5-0.8-0.7-1.4-0.7c-1.1,0-1.8,1-1.8,2.3c0,1.3,0.6,2.3,1.8,2.3c0.5,0,1.1-0.2,1.4-0.7l0,0.6h0.6v-6.2H176.7z
			 M175.5,68.5c-0.9,0-1.3-0.8-1.3-1.7c0-0.9,0.4-1.7,1.3-1.7c0.9,0,1.3,0.8,1.3,1.7S176.4,68.5,175.5,68.5L175.5,68.5z M180.5,69.1
			c0.6,0,1.2-0.2,1.7-0.7l-0.4-0.4c-0.3,0.3-0.8,0.5-1.2,0.5c-0.7,0-1.3-0.6-1.3-1.3c0-0.1,0-0.1,0-0.2h3.1c0-0.1,0-0.2,0-0.3
			c0-1-0.4-2.1-1.9-2.1c-1.1,0.1-2,1-1.9,2.1c0,0.1,0,0.1,0,0.2c-0.1,1.1,0.6,2.1,1.7,2.2C180.4,69.1,180.4,69.1,180.5,69.1
			L180.5,69.1z M179.2,66.5c0-0.7,0.4-1.4,1.2-1.4c0.9,0,1.2,0.7,1.2,1.4H179.2z M184.3,68.5c-0.2,0-0.2-0.2-0.2-0.2v-5.5h-0.7v5.3
			c0,0.5,0,1,0.7,1c0.2,0,0.4,0,0.6-0.1v-0.5C184.6,68.5,184.5,68.5,184.3,68.5L184.3,68.5z M186.6,68.5c-0.2,0-0.2-0.2-0.2-0.2
			v-5.5h-0.7v5.3c0,0.5,0,1,0.7,1c0.2,0,0.4,0,0.6-0.1v-0.5C186.9,68.5,186.7,68.5,186.6,68.5L186.6,68.5z M189,69.1
			c0.7,0,1.3-0.3,1.5-0.9l0,0.8h0.6v-2.7c0.1-0.9-0.5-1.7-1.4-1.8c-0.1,0-0.2,0-0.3,0c-0.7,0-1.3,0.3-1.7,0.9l0.5,0.4
			c0.3-0.4,0.7-0.7,1.2-0.7c0.8,0,1.1,0.6,1.1,1.4h-1c-1.2,0-1.9,0.4-1.9,1.3c0,0.7,0.5,1.3,1.3,1.3C188.9,69.1,189,69.1,189,69.1
			L189,69.1z M189.1,68.5c-0.5,0-0.8-0.2-0.8-0.7c0-0.6,0.4-0.8,1.3-0.8h0.9C190.5,67.8,189.9,68.5,189.1,68.5L189.1,68.5z
			 M196.1,69.1c0.8,0.1,1.4-0.5,1.5-1.2c0,0,0-0.1,0-0.1c0-1.6-2.4-1.1-2.4-2.1c0-0.4,0.3-0.6,0.8-0.6c0.4,0,0.8,0.2,1,0.6l0.5-0.3
			c-0.3-0.5-0.8-0.9-1.4-0.9c-0.7-0.1-1.3,0.4-1.4,1.1c0,0,0,0.1,0,0.1c0,1.5,2.3,0.9,2.3,2.1c0,0.5-0.4,0.7-0.9,0.7
			c-0.5,0-1-0.3-1.1-0.8l-0.6,0.3C194.7,68.7,195.4,69.1,196.1,69.1L196.1,69.1z M199.9,69.1c0.2,0,0.4,0,0.6-0.1v-0.6
			c-0.1,0.1-0.3,0.1-0.4,0.1c-0.3,0-0.6-0.2-0.6-0.7v-2.7h1.1v-0.5h-1.1V63l-0.6,0.6v1h-0.7v0.5h0.7v2.7
			C198.8,68.6,199.1,69.1,199.9,69.1L199.9,69.1z M203.3,69.1c1.2,0,2.1-1,2.1-2.2c0,0,0-0.1,0-0.1c0.1-1.1-0.7-2.2-1.9-2.3
			c-1.1-0.1-2.2,0.7-2.3,1.9c0,0.1,0,0.2,0,0.4C201.2,68,202,69,203.3,69.1C203.3,69.1,203.3,69.1,203.3,69.1L203.3,69.1z
			 M203.3,68.5c-1,0-1.4-0.9-1.4-1.7s0.4-1.7,1.4-1.7s1.4,0.9,1.4,1.7C204.7,67.7,204.3,68.5,203.3,68.5L203.3,68.5z M206.5,69h0.6
			v-2.2c0-1.1,0.5-1.7,1.2-1.7c0.2,0,0.4,0,0.5,0.2l0.3-0.6c-0.2-0.2-0.5-0.2-0.7-0.2c-0.6,0-1.1,0.3-1.3,0.9v-0.8h-0.7L206.5,69z
			 M210,63.6h0.7v-0.8H210V63.6z M210,69h0.6v-4.4H210V69z M213.2,69.1c0.7,0,1.3-0.3,1.5-0.9l0,0.8h0.6v-2.7
			c0.1-0.9-0.5-1.7-1.4-1.8c-0.1,0-0.2,0-0.3,0c-0.7,0-1.3,0.3-1.7,0.9l0.5,0.4c0.3-0.4,0.7-0.7,1.2-0.7c0.8,0,1.1,0.6,1.1,1.4h-1
			c-1.2,0-1.9,0.4-1.9,1.3c0,0.7,0.5,1.3,1.3,1.3C213.1,69.1,213.1,69.1,213.2,69.1z M213.3,68.5c-0.5,0-0.8-0.2-0.8-0.7
			c0-0.6,0.4-0.8,1.3-0.8h0.9C214.7,67.8,214.1,68.5,213.3,68.5z M220.2,64.1h0.7l-1-1.3h-0.8L220.2,64.1z M220.7,69.1
			c0.6,0,1.2-0.2,1.7-0.7l-0.4-0.4c-0.3,0.3-0.8,0.5-1.2,0.5c-0.7,0-1.3-0.6-1.3-1.3c0-0.1,0-0.1,0-0.2h3.1c0-0.1,0-0.2,0-0.3
			c0-1-0.4-2.1-1.9-2.1c-1.1,0.1-2,1-1.9,2.1c0,0.1,0,0.1,0,0.2c-0.1,1.1,0.6,2.1,1.7,2.2C220.5,69.1,220.6,69.1,220.7,69.1
			L220.7,69.1z M219.4,66.5c0-0.7,0.4-1.4,1.2-1.4c0.9,0,1.2,0.7,1.2,1.4H219.4z M32.3,80.1c0.7,0,1.4-0.5,1.7-1.2l-0.6-0.2
			c-0.1,0.5-0.6,0.9-1.1,0.9c-0.9,0-1.2-0.9-1.2-1.7s0.3-1.7,1.2-1.7c0.5,0,1,0.4,1.1,0.9l0.6-0.3c-0.3-0.7-1-1.2-1.7-1.2
			c-1.3,0-1.9,1.1-1.9,2.3c-0.1,1.1,0.6,2.1,1.7,2.3C32.2,80.1,32.3,80.1,32.3,80.1z M36.7,80.1c1.2,0,2.1-1,2.1-2.2
			c0,0,0-0.1,0-0.1c0.1-1.2-0.8-2.2-2-2.3c0,0-0.1,0-0.1,0c-1.2,0-2.1,1-2.1,2.2c0,0,0,0.1,0,0.1C34.5,79,35.4,80,36.7,80.1
			C36.6,80.1,36.7,80.1,36.7,80.1L36.7,80.1z M36.7,79.5c-1,0-1.4-0.9-1.4-1.7s0.4-1.7,1.4-1.7s1.4,0.9,1.4,1.7S37.7,79.5,36.7,79.5
			L36.7,79.5z M40.8,79.5c-0.2,0-0.2-0.2-0.2-0.2v-5.5h-0.7v5.3c0,0.5,0,1,0.7,1c0.2,0,0.4,0,0.6-0.1v-0.5
			C41,79.5,40.9,79.5,40.8,79.5L40.8,79.5z M43,79.5c-0.2,0-0.2-0.2-0.2-0.2v-5.5h-0.7v5.3c0,0.5,0,1,0.7,1c0.2,0,0.4,0,0.6-0.1
			v-0.5C43.3,79.5,43.2,79.5,43,79.5L43,79.5z M46.2,80.1c1.2,0,2.1-1,2.1-2.2c0,0,0-0.1,0-0.1c0.1-1.1-0.7-2.2-1.9-2.3
			c-1.1-0.1-2.2,0.7-2.3,1.9c0,0.1,0,0.2,0,0.4C44,79,44.9,80,46.2,80.1C46.1,80.1,46.1,80.1,46.2,80.1L46.2,80.1z M46.2,79.5
			c-1,0-1.4-0.9-1.4-1.7s0.4-1.7,1.4-1.7s1.4,0.9,1.4,1.7S47.1,79.5,46.2,79.5L46.2,79.5z M50.9,80.1c0.7,0,1.4-0.5,1.7-1.2L52,78.7
			c-0.1,0.5-0.6,0.9-1.1,0.9c-0.9,0-1.2-0.9-1.2-1.7s0.3-1.7,1.2-1.7c0.5,0,1,0.4,1.1,0.9l0.6-0.3c-0.3-0.7-0.9-1.2-1.7-1.2
			c-1.3,0-1.9,1.1-1.9,2.3c-0.1,1.1,0.6,2.1,1.7,2.3C50.8,80.1,50.9,80.1,50.9,80.1L50.9,80.1z M54.6,80.1c0.7,0,1.3-0.3,1.5-0.9
			l0,0.8h0.6v-2.7c0.1-0.9-0.5-1.7-1.4-1.8c-0.1,0-0.2,0-0.3,0c-0.7,0-1.3,0.3-1.7,0.9l0.5,0.4c0.3-0.4,0.7-0.7,1.2-0.7
			c0.8,0,1.1,0.6,1.1,1.4h-1c-1.2,0-1.9,0.4-1.9,1.3c0,0.7,0.5,1.3,1.3,1.3C54.5,80.1,54.6,80.1,54.6,80.1L54.6,80.1z M54.7,79.5
			c-0.5,0-0.8-0.2-0.8-0.7c0-0.6,0.4-0.8,1.3-0.8h0.9C56.2,78.8,55.5,79.5,54.7,79.5L54.7,79.5z M59.3,80.1c0.2,0,0.4,0,0.6-0.1
			v-0.6c-0.1,0.1-0.3,0.1-0.4,0.1c-0.3,0-0.6-0.2-0.6-0.7v-2.7H60v-0.5h-1.1V74l-0.7,0.6v1h-0.7v0.5h0.7v2.7
			C58.3,79.6,58.5,80.1,59.3,80.1L59.3,80.1z M62.7,80.1c1.2,0,2.1-1,2.1-2.2c0,0,0-0.1,0-0.1c0.1-1.1-0.7-2.2-1.9-2.3
			c-1.1-0.1-2.2,0.7-2.3,1.9c0,0.1,0,0.2,0,0.4C60.6,79,61.5,80,62.7,80.1C62.7,80.1,62.7,80.1,62.7,80.1L62.7,80.1z M62.7,79.5
			c-1,0-1.4-0.9-1.4-1.7s0.4-1.7,1.4-1.7s1.4,0.9,1.4,1.7S63.7,79.5,62.7,79.5L62.7,79.5z M69.3,80.1c0.7,0,1.3-0.3,1.5-0.9l0,0.8
			h0.6v-2.7c0.1-0.9-0.5-1.7-1.4-1.8c-0.1,0-0.2,0-0.3,0c-0.7,0-1.3,0.3-1.7,0.9l0.5,0.4c0.3-0.4,0.7-0.7,1.2-0.7
			c0.8,0,1.1,0.6,1.1,1.4h-1c-1.2,0-1.9,0.4-1.9,1.3c0,0.7,0.5,1.3,1.3,1.3C69.2,80.1,69.3,80.1,69.3,80.1L69.3,80.1z M69.4,79.5
			c-0.5,0-0.8-0.2-0.8-0.7c0-0.6,0.4-0.8,1.3-0.8h0.9C70.9,78.8,70.2,79.5,69.4,79.5L69.4,79.5z M73.7,79.5c-0.2,0-0.2-0.2-0.2-0.2
			v-5.5h-0.7v5.3c0,0.5,0,1,0.7,1c0.2,0,0.4,0,0.6-0.1v-0.5C74,79.5,73.8,79.5,73.7,79.5L73.7,79.5z M77.4,81.9h0.9v-2.5
			c0.3,0.4,0.8,0.6,1.3,0.6c1.2,0,1.8-1.1,1.8-2.3c0-1.2-0.6-2.3-1.8-2.3c-0.5,0-1,0.2-1.3,0.6v-0.5h-0.9L77.4,81.9z M79.4,79.3
			c-0.8,0-1.2-0.7-1.2-1.5c0-0.8,0.4-1.5,1.2-1.5s1.2,0.7,1.2,1.5S80.2,79.3,79.4,79.3L79.4,79.3z M83.6,80.1c0.6,0,1.2-0.3,1.5-0.8
			l0.1,0.7h0.7v-2.7c0.1-0.9-0.6-1.7-1.5-1.8c-0.1,0-0.2,0-0.3,0c-0.7,0-1.4,0.3-1.7,0.9l0.6,0.5c0.2-0.4,0.7-0.6,1.1-0.6
			c0.7,0,1,0.5,1,1.2h-1.1c-1.1,0-1.8,0.4-1.8,1.3c0,0.7,0.6,1.4,1.3,1.4C83.5,80.1,83.5,80.1,83.6,80.1L83.6,80.1z M83.7,79.4
			c-0.4,0-0.7-0.2-0.7-0.6c0-0.4,0.3-0.7,1-0.7h1C85,78.8,84.4,79.4,83.7,79.4L83.7,79.4z M88.3,80.1c0.8,0.1,1.5-0.5,1.6-1.3
			c0,0,0-0.1,0-0.1c0-1.6-2.3-1.1-2.3-2c0-0.3,0.3-0.5,0.7-0.5c0.4,0,0.8,0.2,0.9,0.6l0.6-0.4c-0.3-0.6-0.9-0.9-1.5-0.9
			c-0.7-0.1-1.4,0.4-1.5,1.2c0,0,0,0.1,0,0.1c0,1.5,2.3,1,2.3,2c0,0.4-0.3,0.6-0.8,0.6c-0.5,0-0.9-0.3-1-0.8l-0.7,0.3
			C86.9,79.7,87.6,80.1,88.3,80.1L88.3,80.1z M92.2,80.1c0.8,0.1,1.5-0.5,1.6-1.3c0,0,0-0.1,0-0.1c0-1.6-2.3-1.1-2.3-2
			c0-0.3,0.3-0.5,0.7-0.5c0.4,0,0.8,0.2,0.9,0.6l0.6-0.4c-0.3-0.6-0.9-0.9-1.5-0.9c-0.7-0.1-1.4,0.4-1.5,1.2c0,0,0,0.1,0,0.1
			c0,1.5,2.3,1,2.3,2c0,0.4-0.3,0.6-0.8,0.6c-0.5,0-0.9-0.3-1-0.8l-0.7,0.3C90.8,79.7,91.5,80.1,92.2,80.1L92.2,80.1z M95.9,80.1
			c0.6,0,1.2-0.3,1.5-0.8l0,0.7h0.7v-2.7c0.1-0.9-0.6-1.7-1.5-1.8c-0.1,0-0.2,0-0.3,0c-0.7,0-1.4,0.3-1.7,0.9l0.6,0.5
			c0.2-0.4,0.7-0.6,1.1-0.6c0.7,0,1,0.5,1,1.2h-1.1c-1.1,0-1.8,0.4-1.8,1.3c0,0.7,0.6,1.4,1.3,1.4C95.8,80.1,95.9,80.1,95.9,80.1
			L95.9,80.1z M96,79.4c-0.4,0-0.7-0.2-0.7-0.6c0-0.4,0.3-0.7,1-0.7h1C97.3,78.8,96.7,79.4,96,79.4L96,79.4z M100.7,80.1
			c0.2,0,0.5,0,0.7-0.1v-0.8c-0.2,0.1-0.3,0.1-0.5,0.1c-0.3,0-0.5-0.2-0.5-0.6v-2.4h1.1v-0.7h-1.1v-1.7l-0.8,0.7v1h-0.7v0.7h0.7v2.5
			c-0.1,0.6,0.4,1.2,1,1.3C100.6,80.1,100.7,80.1,100.7,80.1L100.7,80.1z M104.2,80.1c1.2,0,2.2-1,2.2-2.2c0,0,0-0.1,0-0.1
			c0.1-1.2-0.9-2.2-2-2.3c-1.2-0.1-2.2,0.9-2.3,2c0,0.1,0,0.2,0,0.2C102,79,102.9,80,104.2,80.1C104.2,80.1,104.2,80.1,104.2,80.1
			L104.2,80.1z M104.2,79.4c-0.9,0-1.3-0.8-1.3-1.6s0.4-1.6,1.3-1.6s1.3,0.7,1.3,1.6S105.1,79.4,104.2,79.4L104.2,79.4z M111.5,80.1
			c1.2,0,2.1-1,2.1-2.2c0,0,0-0.1,0-0.1c0.1-1.1-0.7-2.2-1.9-2.3s-2.2,0.7-2.3,1.9c0,0.1,0,0.2,0,0.4C109.4,79,110.2,80,111.5,80.1
			C111.5,80.1,111.5,80.1,111.5,80.1L111.5,80.1z M111.5,79.5c-1,0-1.4-0.9-1.4-1.7s0.4-1.7,1.4-1.7s1.4,0.9,1.4,1.7
			S112.5,79.5,111.5,79.5L111.5,79.5z M117.1,74.6h0.7v-0.8h-0.7V74.6z M117.1,80h0.7v-4.4h-0.7V80z M119.3,80h0.7v-2.3
			c0-1.1,0.5-1.6,1.2-1.6c0.8,0,1,0.7,1,1.3V80h0.7v-2.7c0-1-0.4-1.8-1.5-1.8c-0.6,0-1.1,0.3-1.4,0.8v-0.8h-0.7L119.3,80z M128,80.1
			c0.6,0,1.1-0.3,1.4-0.8V80h0.7v-4.4h-0.7V78c0.1,0.8-0.5,1.4-1.3,1.5c-0.8,0-0.9-0.7-0.9-1.3v-2.6h-0.7v2.5
			C126.4,79.3,126.9,80.1,128,80.1z M131.5,80h0.7v-2.3c0-1.1,0.5-1.6,1.2-1.6c0.8,0,1,0.7,1,1.3V80h0.6v-2.7c0-1-0.4-1.8-1.5-1.8
			c-0.6,0-1.1,0.3-1.4,0.8v-0.8h-0.7L131.5,80z M140.1,80.1c0.2,0,0.5,0,0.7-0.1v-0.8c-0.2,0.1-0.3,0.1-0.5,0.1
			c-0.3,0-0.5-0.2-0.5-0.6v-2.4h1.1v-0.7h-1.1v-1.7l-0.8,0.7v1h-0.7v0.7h0.7v2.5c-0.1,0.6,0.4,1.2,1,1.3
			C139.9,80.1,140,80.1,140.1,80.1L140.1,80.1z M143.5,80.1c0.7,0,1.3-0.2,1.7-0.7l-0.6-0.5c-0.3,0.3-0.7,0.5-1.1,0.5
			c-0.6,0-1.2-0.5-1.2-1.1c0,0,0-0.1,0-0.1h3c0-0.1,0-0.2,0-0.4c0.1-1.1-0.6-2-1.7-2.2c-0.1,0-0.2,0-0.3,0c-1.1,0-2.1,1-2,2.1
			c0,0.1,0,0.1,0,0.2c-0.1,1.1,0.7,2.1,1.8,2.2C143.4,80.1,143.5,80.1,143.5,80.1L143.5,80.1z M142.3,77.4c0.1-0.7,0.4-1.2,1.1-1.2
			c0.7,0,1.1,0.5,1.1,1.2H142.3z M146.4,80h0.9v-2.3c0-0.7,0.4-1.4,1-1.4s0.8,0.6,0.8,1.1V80h0.9v-2.4c0-0.7,0.4-1.3,1-1.3
			s0.8,0.6,0.8,1.2V80h0.9v-2.7c0-1-0.5-1.8-1.6-1.8c-0.6,0-1.1,0.3-1.4,0.9c-0.3-0.7-1.1-1-1.8-0.8c-0.3,0.1-0.5,0.3-0.7,0.6v-0.6
			h-0.9L146.4,80z M154,81.9h0.9v-2.5c0.3,0.4,0.8,0.6,1.3,0.6c1.2,0,1.8-1.1,1.8-2.3c0-1.2-0.6-2.3-1.8-2.3c-0.5,0-1,0.2-1.3,0.6
			v-0.5H154V81.9z M156,79.3c-0.8,0-1.2-0.7-1.2-1.5c0-0.8,0.4-1.5,1.2-1.5c0.8,0,1.2,0.7,1.2,1.5S156.8,79.3,156,79.3L156,79.3z
			 M160.8,80.1c1.2,0,2.2-1,2.2-2.2c0,0,0-0.1,0-0.1c0.1-1.2-0.9-2.2-2-2.3c-1.2-0.1-2.2,0.9-2.3,2c0,0.1,0,0.2,0,0.2
			c-0.1,1.2,0.9,2.2,2,2.3C160.7,80.1,160.8,80.1,160.8,80.1L160.8,80.1z M160.8,79.4c-0.9,0-1.3-0.8-1.3-1.6s0.4-1.6,1.3-1.6
			s1.3,0.7,1.3,1.6S161.7,79.4,160.8,79.4L160.8,79.4z M166.2,74.7h0.9v-0.9h-0.9V74.7z M166.2,80h0.8v-4.4h-0.8V80z M168.5,80h0.8
			v-2.3c0-0.9,0.5-1.4,1.1-1.4c0.7,0,0.9,0.6,0.9,1.2V80h0.8v-2.7c0-0.9-0.4-1.8-1.5-1.8c-0.5,0-1.1,0.3-1.4,0.7v-0.6h-0.8L168.5,80
			z M176.3,73.8v2.3c-0.3-0.4-0.8-0.6-1.3-0.6c-1.2,0-1.8,1-1.8,2.3s0.6,2.3,1.8,2.3c0.5,0,1-0.2,1.3-0.6l0,0.5h0.8v-6.2L176.3,73.8
			z M175.2,79.3c-0.8,0-1.2-0.7-1.2-1.5s0.4-1.5,1.2-1.5s1.2,0.7,1.2,1.5S176,79.3,175.2,79.3L175.2,79.3z M180.3,80.1
			c0.7,0,1.3-0.2,1.7-0.7l-0.6-0.5c-0.3,0.3-0.7,0.5-1.1,0.5c-0.6,0-1.2-0.5-1.2-1.1c0,0,0-0.1,0-0.1h3c0-0.1,0-0.2,0-0.4
			c0.1-1.1-0.6-2-1.7-2.2c-0.1,0-0.2,0-0.3,0c-1.1,0-2.1,1-2,2.1c0,0.1,0,0.1,0,0.2c-0.1,1.1,0.7,2.1,1.8,2.2
			C180.1,80.1,180.2,80.1,180.3,80.1L180.3,80.1z M179.1,77.4c0.1-0.7,0.4-1.2,1.1-1.2c0.7,0,1.1,0.5,1.1,1.2H179.1z M183.2,80h0.8
			v-3.7h1.5V80h0.8v-4.4h-2.3c0-0.7,0.2-1.2,0.9-1.2c0.3,0,0.7,0.1,0.9,0.4l0.5-0.6c-0.4-0.4-0.8-0.6-1.3-0.5
			c-1.3,0-1.7,0.9-1.7,1.9h-0.7v0.7h0.7L183.2,80z M187.8,80h0.8v-2.3c0-0.9,0.5-1.4,1.1-1.4c0.7,0,0.9,0.6,0.9,1.2V80h0.8v-2.7
			c0-0.9-0.4-1.8-1.5-1.8c-0.5,0-1.1,0.3-1.4,0.7v-0.6h-0.8L187.8,80z M192.7,74.7h0.9v-0.9h-0.9V74.7z M192.8,80h0.8v-4.4h-0.8V80z
			 M196.4,80.1c0.2,0,0.5,0,0.7-0.1v-0.8c-0.2,0.1-0.3,0.1-0.5,0.1c-0.3,0-0.5-0.2-0.5-0.6v-2.4h1.1v-0.7H196v-1.7l-0.8,0.7v1h-0.7
			v0.7h0.7v2.5c-0.1,0.6,0.4,1.2,1,1.3C196.2,80.1,196.3,80.1,196.4,80.1L196.4,80.1z M199.9,80.1c1.2,0,2.2-1,2.2-2.2
			c0,0,0-0.1,0-0.1c0.1-1.2-0.9-2.2-2-2.3c-1.2-0.1-2.2,0.9-2.3,2c0,0.1,0,0.2,0,0.2c-0.1,1.2,0.9,2.2,2.1,2.3
			C199.8,80.1,199.8,80.1,199.9,80.1L199.9,80.1z M199.9,79.4c-0.9,0-1.3-0.8-1.3-1.6s0.4-1.6,1.3-1.6s1.3,0.7,1.3,1.6
			S200.8,79.4,199.9,79.4L199.9,79.4z"/>
		<path d="M415.8,36.7h0.7v-5.5l2.7,5.5h1v-6.2h-0.7V36l-2.7-5.5h-1V36.7z M423.2,36.8c0.6,0,1.1-0.3,1.4-0.8v0.7h0.6v-4.4h-0.6v2.4
			c0.1,0.8-0.5,1.4-1.3,1.5c-0.8,0-0.9-0.7-0.9-1.3v-2.6h-0.7v2.5C421.7,36,422.1,36.8,423.2,36.8z M426.7,36.7h0.7v-2.3
			c0-0.8,0.4-1.6,1.1-1.6c0.8,0,0.9,0.7,0.9,1.3v2.6h0.7v-2.4c0-0.7,0.4-1.5,1.1-1.5c0.8,0,0.9,0.7,0.9,1.3v2.6h0.7v-2.7
			c0-1-0.4-1.8-1.5-1.8c-0.6,0-1.1,0.4-1.4,0.9c-0.2-0.6-0.7-1-1.3-0.9c-0.5,0-1,0.3-1.2,0.8v-0.7h-0.7L426.7,36.7z M435.8,36.8
			c0.6,0,1.2-0.2,1.7-0.7l-0.4-0.4c-0.3,0.3-0.8,0.5-1.2,0.5c-0.7,0-1.3-0.6-1.3-1.3c0,0,0-0.1,0-0.1h3.1c0-0.1,0-0.2,0-0.3
			c0-1-0.4-2.1-1.9-2.1c-1.1,0.1-2,1-1.9,2.1c0,0.1,0,0.1,0,0.2c-0.1,1.1,0.6,2.1,1.7,2.2C435.7,36.8,435.7,36.8,435.8,36.8
			L435.8,36.8z M434.5,34.2c0-0.7,0.4-1.4,1.2-1.4c0.9,0,1.2,0.7,1.2,1.4H434.5z M438.7,36.7h0.6v-2.2c0-1.1,0.5-1.7,1.2-1.7
			c0.2,0,0.4,0,0.5,0.2l0.3-0.6c-0.2-0.2-0.5-0.2-0.7-0.2c-0.6,0-1.1,0.3-1.3,0.9v-0.8h-0.7L438.7,36.7z M443.6,36.8
			c1.2,0,2.1-1,2.1-2.2c0,0,0-0.1,0-0.1c0.1-1.2-0.8-2.2-2-2.3c0,0-0.1,0-0.1,0c-1.2,0-2.1,1-2.1,2.2c0,0,0,0.1,0,0.1
			C441.4,35.7,442.3,36.7,443.6,36.8C443.5,36.8,443.5,36.8,443.6,36.8z M443.6,36.3c-1,0-1.4-0.9-1.4-1.7s0.4-1.7,1.4-1.7
			c1,0,1.4,0.9,1.4,1.7C445,35.4,444.6,36.3,443.6,36.3L443.6,36.3z M452,30.5V33c-0.3-0.5-0.8-0.7-1.4-0.7c-1.1,0-1.8,1-1.8,2.3
			s0.6,2.3,1.8,2.3c0.5,0,1.1-0.2,1.4-0.7l0,0.6h0.6v-6.2H452z M450.8,36.3c-0.9,0-1.3-0.8-1.3-1.7s0.4-1.7,1.3-1.7
			c0.9,0,1.3,0.8,1.3,1.7C452,35.4,451.7,36.3,450.8,36.3L450.8,36.3z M454.1,31.4h0.7v-0.8h-0.7L454.1,31.4z M454.1,36.7h0.7v-4.4
			h-0.7V36.7z M460.4,36.8c1.2,0,2.1-1,2.1-2.2c0,0,0-0.1,0-0.1c0.1-1.2-0.8-2.2-2-2.3c0,0-0.1,0-0.1,0c-1.2,0-2.1,1-2.1,2.2
			c0,0,0,0.1,0,0.1C458.2,35.7,459.1,36.7,460.4,36.8C460.3,36.8,460.3,36.8,460.4,36.8L460.4,36.8z M460.4,36.3
			c-1,0-1.4-0.9-1.4-1.7s0.4-1.7,1.4-1.7c1,0,1.4,0.9,1.4,1.7C461.8,35.4,461.3,36.3,460.4,36.3L460.4,36.3z M465.1,36.8
			c0.7,0,1.4-0.5,1.7-1.2l-0.6-0.2c-0.1,0.5-0.6,0.9-1.1,0.9c-0.9,0-1.2-0.9-1.2-1.7s0.3-1.7,1.2-1.7c0.5,0,1,0.4,1.1,0.9l0.6-0.3
			c-0.3-0.7-0.9-1.2-1.7-1.2c-1.3,0-1.9,1.1-1.9,2.3c-0.1,1.1,0.6,2.1,1.7,2.3C465,36.8,465.1,36.8,465.1,36.8L465.1,36.8z
			 M469.4,36.8c0.8,0,1.4-0.4,1.7-1.2l-0.6-0.2c-0.1,0.5-0.6,0.9-1.1,0.9c-0.9,0-1.2-0.9-1.2-1.7s0.3-1.7,1.2-1.7
			c0.5,0,1,0.4,1.1,0.9l0.6-0.3c-0.3-0.7-0.9-1.2-1.7-1.2c-1.3,0-1.9,1.1-1.9,2.3c-0.1,1.1,0.6,2.1,1.7,2.3
			C469.3,36.8,469.3,36.8,469.4,36.8L469.4,36.8z M473.7,36.8c1.2,0,2.1-1,2.1-2.2c0,0,0-0.1,0-0.1c0.1-1.2-0.8-2.2-2-2.3
			c0,0-0.1,0-0.1,0c-1.2,0-2.1,1-2.1,2.2c0,0,0,0.1,0,0.1C471.6,35.7,472.5,36.7,473.7,36.8C473.7,36.8,473.7,36.8,473.7,36.8
			L473.7,36.8z M473.7,36.3c-1,0-1.4-0.9-1.4-1.7s0.4-1.7,1.4-1.7s1.4,0.9,1.4,1.7C475.2,35.4,474.7,36.3,473.7,36.3L473.7,36.3z
			 M476.9,36.7h0.6v-2.2c0-1.1,0.5-1.7,1.2-1.7c0.2,0,0.4,0,0.5,0.2l0.3-0.6c-0.2-0.2-0.5-0.2-0.7-0.2c-0.6,0-1.1,0.3-1.3,0.9v-0.8
			h-0.7L476.9,36.7z M480.4,36.7h0.6v-2.2c0-1.1,0.5-1.7,1.2-1.7c0.2,0,0.4,0,0.5,0.2l0.3-0.6c-0.2-0.2-0.5-0.2-0.7-0.2
			c-0.6,0-1.1,0.3-1.3,0.9v-0.8h-0.7L480.4,36.7z M485.2,36.8c0.6,0,1.2-0.2,1.7-0.7l-0.4-0.4c-0.3,0.3-0.8,0.5-1.2,0.5
			c-0.7,0-1.3-0.6-1.3-1.3c0-0.1,0-0.1,0-0.2h3.1c0-0.1,0-0.2,0-0.3c0-1-0.4-2.1-1.9-2.1c-1.1,0.1-2,1-1.9,2.1c0,0.1,0,0.1,0,0.2
			c-0.1,1.1,0.6,2.1,1.7,2.2C485.1,36.8,485.1,36.8,485.2,36.8z M483.9,34.2c0-0.7,0.4-1.4,1.2-1.4c0.9,0,1.2,0.7,1.2,1.4H483.9z
			 M488.2,36.7h0.7v-2.3c0-1.1,0.5-1.6,1.2-1.6c0.8,0,1,0.7,1,1.3v2.6h0.6v-2.7c0-1-0.4-1.8-1.5-1.8c-0.6,0-1.1,0.3-1.4,0.8v-0.8
			h-0.7L488.2,36.7z M496.1,32.4h-3.3v0.5h2.6l-2.7,3.4v0.5h3.5v-0.6h-2.6l2.6-3.3V32.4z M498.8,36.8c0.6,0,1.2-0.2,1.7-0.7
			l-0.4-0.4c-0.3,0.3-0.8,0.5-1.2,0.5c-0.7,0-1.3-0.6-1.3-1.3c0-0.1,0-0.1,0-0.2h3.1c0-0.1,0-0.2,0-0.3c0-1-0.4-2.1-1.9-2.1
			c-1.1,0.1-2,1-1.9,2.1c0,0.1,0,0.1,0,0.2c-0.1,1.1,0.6,2.1,1.7,2.2C498.6,36.8,498.7,36.8,498.8,36.8z M497.5,34.2
			c0-0.7,0.4-1.4,1.2-1.4c0.9,0,1.2,0.7,1.2,1.4H497.5z"/>
		<circle class="st8" cx="399.6" cy="36.4" r="2.9"/>
		<circle class="st8" cx="399.7" cy="32.9" r="6.3"/>
		<g transform="translate(26.61 13.01)">
			<g transform="translate(242.102 39.32)">
				<g>
					<defs>
						<path id="SVGID_9_" d="M6,0h9c3.3,0,6,2.2,6,5l0,0c0,2.8-2.7,5-6,5H6c-3.3,0-6-2.3-6-5l0,0C0,2.3,2.7,0,6,0z"/>
					</defs>
					<clipPath id="SVGID_10_">
						<use xlink:href="#SVGID_9_"  style="overflow:visible;"/>
					</clipPath>
					<g class="st13">
						<line class="st14" x1="-66" y1="1.6" x2="41.1" y2="90.9"/>
						<line class="st14" x1="-62.4" y1="0.1" x2="44.7" y2="89.4"/>
						<line class="st14" x1="-58.8" y1="-1.4" x2="48.3" y2="87.9"/>
						<line class="st14" x1="-55.2" y1="-2.9" x2="51.9" y2="86.4"/>
						<line class="st14" x1="-51.6" y1="-4.4" x2="55.5" y2="84.9"/>
						<line class="st14" x1="-48" y1="-5.9" x2="59.1" y2="83.4"/>
						<line class="st14" x1="-44.4" y1="-7.4" x2="62.7" y2="81.9"/>
						<line class="st14" x1="-40.8" y1="-8.9" x2="66.3" y2="80.4"/>
						<line class="st14" x1="-37.2" y1="-10.4" x2="69.9" y2="78.9"/>
						<line class="st14" x1="-33.6" y1="-11.9" x2="73.5" y2="77.4"/>
						<line class="st14" x1="-30" y1="-13.4" x2="77.1" y2="75.9"/>
						<line class="st14" x1="-26.4" y1="-14.9" x2="80.7" y2="74.4"/>
						<line class="st14" x1="-22.8" y1="-16.4" x2="84.3" y2="72.9"/>
						<line class="st14" x1="-19.2" y1="-17.9" x2="87.9" y2="71.4"/>
						<line class="st14" x1="-15.6" y1="-19.4" x2="91.5" y2="69.9"/>
						<line class="st14" x1="-12" y1="-20.9" x2="95.1" y2="68.4"/>
						<line class="st14" x1="-8.4" y1="-22.4" x2="98.7" y2="66.9"/>
						<line class="st14" x1="-4.8" y1="-23.9" x2="102.3" y2="65.4"/>
						<line class="st14" x1="-1.2" y1="-25.4" x2="105.9" y2="63.9"/>
						<line class="st14" x1="2.4" y1="-26.9" x2="109.5" y2="62.4"/>
						<line class="st14" x1="6" y1="-28.4" x2="113.1" y2="60.9"/>
					</g>
				</g>
			</g>
			<path class="st14" d="M248.1,39.3h9c3.3,0,6,2.2,6,5l0,0c0,2.8-2.7,5-6,5h-9c-3.3,0-6-2.2-6-5l0,0
				C242.1,41.6,244.8,39.3,248.1,39.3z"/>
		</g>
	</g>
</g>
</svg>
