<svg xmlns="http://www.w3.org/2000/svg" xmlns:xlink="http://www.w3.org/1999/xlink" width="600" height="150" viewBox="0 0 600 150">
  <defs>
    <clipPath id="clip-path">
      <path id="Path_147920" data-name="Path 147920" d="M207.1,35.5H214a4.615,4.615,0,0,1,4.6,4.6h0a4.615,4.615,0,0,1-4.6,4.6h-6.9a4.615,4.615,0,0,1-4.6-4.6h0A4.615,4.615,0,0,1,207.1,35.5Z" transform="translate(-202.5 -35.5)"/>
    </clipPath>
    <clipPath id="clip-path-2">
      <path id="Path_147922" data-name="Path 147922" d="M207.1,56.3H214a4.615,4.615,0,0,1,4.6,4.6h0a4.615,4.615,0,0,1-4.6,4.6h-6.9a4.615,4.615,0,0,1-4.6-4.6h0A4.542,4.542,0,0,1,207.1,56.3Z" transform="translate(-202.5 -56.3)"/>
    </clipPath>
    <clipPath id="clip-path-3">
      <path id="Path_147924" data-name="Path 147924" d="M207.1,76.5H214a4.615,4.615,0,0,1,4.6,4.6h0a4.615,4.615,0,0,1-4.6,4.6h-6.9a4.615,4.615,0,0,1-4.6-4.6h0A4.615,4.615,0,0,1,207.1,76.5Z" transform="translate(-202.5 -76.5)"/>
    </clipPath>
    <clipPath id="clip-path-4">
      <path id="Path_157232" data-name="Path 157232" d="M209.5,35.5h9c3.3,0,6,2.25,6,5h0c0,2.75-2.7,5-6,5h-9c-3.3,0-6-2.25-6-5h0C203.5,37.75,206.2,35.5,209.5,35.5Z" transform="translate(-203.5 -35.5)"/>
    </clipPath>
    <clipPath id="clip-legenda_04">
      <rect width="600" height="150"/>
    </clipPath>
  </defs>
  <g id="legenda_04" clip-path="url(#clip-legenda_04)">
    <g id="legenda_04-2" data-name="legenda_04" transform="translate(0.61 -10.99)">
      <g id="Layer_1" transform="translate(0.667 10.99)">
        <g id="Isolation_Mode">
          <text id="Metropoli" transform="translate(270.535 35.877)" font-size="9" font-family="HKGrotesk-Light, HK Grotesk" font-weight="300"><tspan x="0" y="0">Metropoli</tspan></text>
          <text id="Viaggio" transform="translate(270.507 58.842)" font-size="8" font-family="HKGrotesk-Light, HK Grotesk" font-weight="300"><tspan x="0" y="0">Viaggio</tspan></text>
          <g id="Group_23968" data-name="Group 23968" transform="translate(244.272 28.308)">
            <g id="Group_23967" data-name="Group 23967" clip-path="url(#clip-path)">
              <line id="Line_7322" data-name="Line 7322" x2="82.138" y2="82.138" transform="translate(-50.617 1.496)" fill="none" stroke="#f36" stroke-miterlimit="10" stroke-width="0.5"/>
              <line id="Line_7323" data-name="Line 7323" x2="82.138" y2="82.138" transform="translate(-47.856 0.115)" fill="none" stroke="#f36" stroke-miterlimit="10" stroke-width="0.5"/>
              <line id="Line_7324" data-name="Line 7324" x2="82.138" y2="82.138" transform="translate(-45.096 -1.265)" fill="none" stroke="#f36" stroke-miterlimit="10" stroke-width="0.5"/>
              <line id="Line_7325" data-name="Line 7325" x2="82.138" y2="82.138" transform="translate(-42.335 -2.646)" fill="none" stroke="#f36" stroke-miterlimit="10" stroke-width="0.5"/>
              <line id="Line_7326" data-name="Line 7326" x2="82.138" y2="82.138" transform="translate(-39.574 -4.026)" fill="none" stroke="#f36" stroke-miterlimit="10" stroke-width="0.5"/>
              <line id="Line_7327" data-name="Line 7327" x2="82.138" y2="82.138" transform="translate(-36.813 -5.407)" fill="none" stroke="#f36" stroke-miterlimit="10" stroke-width="0.5"/>
              <line id="Line_7328" data-name="Line 7328" x2="82.138" y2="82.138" transform="translate(-34.052 -6.787)" fill="none" stroke="#f36" stroke-miterlimit="10" stroke-width="0.5"/>
              <line id="Line_7329" data-name="Line 7329" x2="82.138" y2="82.138" transform="translate(-31.291 -8.168)" fill="none" stroke="#f36" stroke-miterlimit="10" stroke-width="0.5"/>
              <line id="Line_7330" data-name="Line 7330" x2="82.138" y2="82.138" transform="translate(-28.53 -9.548)" fill="none" stroke="#f36" stroke-miterlimit="10" stroke-width="0.5"/>
              <line id="Line_7331" data-name="Line 7331" x2="82.138" y2="82.138" transform="translate(-25.769 -10.929)" fill="none" stroke="#f36" stroke-miterlimit="10" stroke-width="0.5"/>
              <line id="Line_7332" data-name="Line 7332" x2="82.138" y2="82.138" transform="translate(-23.008 -12.309)" fill="none" stroke="#f36" stroke-miterlimit="10" stroke-width="0.5"/>
              <line id="Line_7333" data-name="Line 7333" x2="82.138" y2="82.138" transform="translate(-20.247 -13.69)" fill="none" stroke="#f36" stroke-miterlimit="10" stroke-width="0.5"/>
              <line id="Line_7334" data-name="Line 7334" x2="82.138" y2="82.138" transform="translate(-17.486 -15.07)" fill="none" stroke="#f36" stroke-miterlimit="10" stroke-width="0.5"/>
              <line id="Line_7335" data-name="Line 7335" x2="82.138" y2="82.138" transform="translate(-14.725 -16.451)" fill="none" stroke="#f36" stroke-miterlimit="10" stroke-width="0.5"/>
              <line id="Line_7336" data-name="Line 7336" x2="82.138" y2="82.138" transform="translate(-11.964 -17.831)" fill="none" stroke="#f36" stroke-miterlimit="10" stroke-width="0.5"/>
              <line id="Line_7337" data-name="Line 7337" x2="82.138" y2="82.138" transform="translate(-9.203 -19.212)" fill="none" stroke="#f36" stroke-miterlimit="10" stroke-width="0.5"/>
              <line id="Line_7338" data-name="Line 7338" x2="82.138" y2="82.138" transform="translate(-6.442 -20.592)" fill="none" stroke="#f36" stroke-miterlimit="10" stroke-width="0.5"/>
              <line id="Line_7339" data-name="Line 7339" x2="82.138" y2="82.138" transform="translate(-3.681 -21.973)" fill="none" stroke="#f36" stroke-miterlimit="10" stroke-width="0.5"/>
              <line id="Line_7340" data-name="Line 7340" x2="82.138" y2="82.138" transform="translate(-0.92 -23.353)" fill="none" stroke="#f36" stroke-miterlimit="10" stroke-width="0.5"/>
              <line id="Line_7341" data-name="Line 7341" x2="82.138" y2="82.138" transform="translate(1.841 -24.734)" fill="none" stroke="#f36" stroke-miterlimit="10" stroke-width="0.5"/>
              <line id="Line_7342" data-name="Line 7342" x2="82.138" y2="82.138" transform="translate(4.602 -26.114)" fill="none" stroke="#f36" stroke-miterlimit="10" stroke-width="0.5"/>
            </g>
          </g>
          <path id="Path_147921" data-name="Path 147921" d="M207.1,35.5H214a4.615,4.615,0,0,1,4.6,4.6h0a4.615,4.615,0,0,1-4.6,4.6h-6.9a4.615,4.615,0,0,1-4.6-4.6h0A4.615,4.615,0,0,1,207.1,35.5Z" transform="translate(41.772 -7.192)" fill="none" stroke="#f36" stroke-miterlimit="10" stroke-width="0.5"/>
          <g id="Group_23970" data-name="Group 23970" transform="translate(244.272 52.331)">
            <g id="Group_23969" data-name="Group 23969" clip-path="url(#clip-path-2)">
              <line id="Line_7343" data-name="Line 7343" x2="82.138" y2="82.138" transform="translate(-50.617 1.496)" fill="none" stroke="#8131f4" stroke-miterlimit="10" stroke-width="0.5"/>
              <line id="Line_7344" data-name="Line 7344" x2="82.138" y2="82.138" transform="translate(-47.856 0.115)" fill="none" stroke="#8131f4" stroke-miterlimit="10" stroke-width="0.5"/>
              <line id="Line_7345" data-name="Line 7345" x2="82.138" y2="82.138" transform="translate(-45.096 -1.265)" fill="none" stroke="#8131f4" stroke-miterlimit="10" stroke-width="0.5"/>
              <line id="Line_7346" data-name="Line 7346" x2="82.138" y2="82.138" transform="translate(-42.335 -2.646)" fill="none" stroke="#8131f4" stroke-miterlimit="10" stroke-width="0.5"/>
              <line id="Line_7347" data-name="Line 7347" x2="82.138" y2="82.138" transform="translate(-39.574 -4.026)" fill="none" stroke="#8131f4" stroke-miterlimit="10" stroke-width="0.5"/>
              <line id="Line_7348" data-name="Line 7348" x2="82.138" y2="82.138" transform="translate(-36.813 -5.407)" fill="none" stroke="#8131f4" stroke-miterlimit="10" stroke-width="0.5"/>
              <line id="Line_7349" data-name="Line 7349" x2="82.138" y2="82.138" transform="translate(-34.052 -6.787)" fill="none" stroke="#8131f4" stroke-miterlimit="10" stroke-width="0.5"/>
              <line id="Line_7350" data-name="Line 7350" x2="82.138" y2="82.138" transform="translate(-31.291 -8.168)" fill="none" stroke="#8131f4" stroke-miterlimit="10" stroke-width="0.5"/>
              <line id="Line_7351" data-name="Line 7351" x2="82.138" y2="82.138" transform="translate(-28.53 -9.548)" fill="none" stroke="#8131f4" stroke-miterlimit="10" stroke-width="0.5"/>
              <line id="Line_7352" data-name="Line 7352" x2="82.138" y2="82.138" transform="translate(-25.769 -10.929)" fill="none" stroke="#8131f4" stroke-miterlimit="10" stroke-width="0.5"/>
              <line id="Line_7353" data-name="Line 7353" x2="82.138" y2="82.138" transform="translate(-23.008 -12.309)" fill="none" stroke="#8131f4" stroke-miterlimit="10" stroke-width="0.5"/>
              <line id="Line_7354" data-name="Line 7354" x2="82.138" y2="82.138" transform="translate(-20.247 -13.69)" fill="none" stroke="#8131f4" stroke-miterlimit="10" stroke-width="0.5"/>
              <line id="Line_7355" data-name="Line 7355" x2="82.138" y2="82.138" transform="translate(-17.486 -15.07)" fill="none" stroke="#8131f4" stroke-miterlimit="10" stroke-width="0.5"/>
              <line id="Line_7356" data-name="Line 7356" x2="82.138" y2="82.138" transform="translate(-14.725 -16.451)" fill="none" stroke="#8131f4" stroke-miterlimit="10" stroke-width="0.5"/>
              <line id="Line_7357" data-name="Line 7357" x2="82.138" y2="82.138" transform="translate(-11.964 -17.831)" fill="none" stroke="#8131f4" stroke-miterlimit="10" stroke-width="0.5"/>
              <line id="Line_7358" data-name="Line 7358" x2="82.138" y2="82.138" transform="translate(-9.203 -19.212)" fill="none" stroke="#8131f4" stroke-miterlimit="10" stroke-width="0.5"/>
              <line id="Line_7359" data-name="Line 7359" x2="82.138" y2="82.138" transform="translate(-6.442 -20.592)" fill="none" stroke="#8131f4" stroke-miterlimit="10" stroke-width="0.5"/>
              <line id="Line_7360" data-name="Line 7360" x2="82.138" y2="82.138" transform="translate(-3.681 -21.973)" fill="none" stroke="#8131f4" stroke-miterlimit="10" stroke-width="0.5"/>
              <line id="Line_7361" data-name="Line 7361" x2="82.138" y2="82.138" transform="translate(-0.92 -23.353)" fill="none" stroke="#8131f4" stroke-miterlimit="10" stroke-width="0.5"/>
              <line id="Line_7362" data-name="Line 7362" x2="82.138" y2="82.138" transform="translate(1.841 -24.734)" fill="none" stroke="#8131f4" stroke-miterlimit="10" stroke-width="0.5"/>
              <line id="Line_7363" data-name="Line 7363" x2="82.138" y2="82.138" transform="translate(4.602 -26.114)" fill="none" stroke="#8131f4" stroke-miterlimit="10" stroke-width="0.5"/>
            </g>
          </g>
          <path id="Path_147923" data-name="Path 147923" d="M207.1,56.3H214a4.615,4.615,0,0,1,4.6,4.6h0a4.615,4.615,0,0,1-4.6,4.6h-6.9a4.615,4.615,0,0,1-4.6-4.6h0A4.542,4.542,0,0,1,207.1,56.3Z" transform="translate(41.772 -3.969)" fill="none" stroke="#8131f4" stroke-miterlimit="10" stroke-width="0.5"/>
          <text id="Paesaggio_cosmico" data-name="Paesaggio cosmico" transform="translate(270.625 83.233)" font-size="9" font-family="HKGrotesk-Light, HK Grotesk" font-weight="300"><tspan x="0" y="0">Paesaggio cosmico</tspan></text>
          <g id="Group_23972" data-name="Group 23972" transform="translate(244.272 75.661)">
            <g id="Group_23971" data-name="Group 23971" clip-path="url(#clip-path-3)">
              <line id="Line_7364" data-name="Line 7364" x2="82.138" y2="82.138" transform="translate(-50.617 1.496)" fill="none" stroke="#0505c4" stroke-miterlimit="10" stroke-width="0.5"/>
              <line id="Line_7365" data-name="Line 7365" x2="82.138" y2="82.138" transform="translate(-47.856 0.115)" fill="none" stroke="#0505c4" stroke-miterlimit="10" stroke-width="0.5"/>
              <line id="Line_7366" data-name="Line 7366" x2="82.138" y2="82.138" transform="translate(-45.096 -1.265)" fill="none" stroke="#0505c4" stroke-miterlimit="10" stroke-width="0.5"/>
              <line id="Line_7367" data-name="Line 7367" x2="82.138" y2="82.138" transform="translate(-42.335 -2.646)" fill="none" stroke="#0505c4" stroke-miterlimit="10" stroke-width="0.5"/>
              <line id="Line_7368" data-name="Line 7368" x2="82.138" y2="82.138" transform="translate(-39.574 -4.026)" fill="none" stroke="#0505c4" stroke-miterlimit="10" stroke-width="0.5"/>
              <line id="Line_7369" data-name="Line 7369" x2="82.138" y2="82.138" transform="translate(-36.813 -5.407)" fill="none" stroke="#0505c4" stroke-miterlimit="10" stroke-width="0.5"/>
              <line id="Line_7370" data-name="Line 7370" x2="82.138" y2="82.138" transform="translate(-34.052 -6.787)" fill="none" stroke="#0505c4" stroke-miterlimit="10" stroke-width="0.5"/>
              <line id="Line_7371" data-name="Line 7371" x2="82.138" y2="82.138" transform="translate(-31.291 -8.168)" fill="none" stroke="#0505c4" stroke-miterlimit="10" stroke-width="0.5"/>
              <line id="Line_7372" data-name="Line 7372" x2="82.138" y2="82.138" transform="translate(-28.53 -9.548)" fill="none" stroke="#0505c4" stroke-miterlimit="10" stroke-width="0.5"/>
              <line id="Line_7373" data-name="Line 7373" x2="82.138" y2="82.138" transform="translate(-25.769 -10.929)" fill="none" stroke="#0505c4" stroke-miterlimit="10" stroke-width="0.5"/>
              <line id="Line_7374" data-name="Line 7374" x2="82.138" y2="82.138" transform="translate(-23.008 -12.309)" fill="none" stroke="#0505c4" stroke-miterlimit="10" stroke-width="0.5"/>
              <line id="Line_7375" data-name="Line 7375" x2="82.138" y2="82.138" transform="translate(-20.247 -13.69)" fill="none" stroke="#0505c4" stroke-miterlimit="10" stroke-width="0.5"/>
              <line id="Line_7376" data-name="Line 7376" x2="82.138" y2="82.138" transform="translate(-17.486 -15.07)" fill="none" stroke="#0505c4" stroke-miterlimit="10" stroke-width="0.5"/>
              <line id="Line_7377" data-name="Line 7377" x2="82.138" y2="82.138" transform="translate(-14.725 -16.451)" fill="none" stroke="#0505c4" stroke-miterlimit="10" stroke-width="0.5"/>
              <line id="Line_7378" data-name="Line 7378" x2="82.138" y2="82.138" transform="translate(-11.964 -17.831)" fill="none" stroke="#0505c4" stroke-miterlimit="10" stroke-width="0.5"/>
              <line id="Line_7379" data-name="Line 7379" x2="82.138" y2="82.138" transform="translate(-9.203 -19.212)" fill="none" stroke="#0505c4" stroke-miterlimit="10" stroke-width="0.5"/>
              <line id="Line_7380" data-name="Line 7380" x2="82.138" y2="82.138" transform="translate(-6.442 -20.592)" fill="none" stroke="#0505c4" stroke-miterlimit="10" stroke-width="0.5"/>
              <line id="Line_7381" data-name="Line 7381" x2="82.138" y2="82.138" transform="translate(-3.681 -21.973)" fill="none" stroke="#0505c4" stroke-miterlimit="10" stroke-width="0.5"/>
              <line id="Line_7382" data-name="Line 7382" x2="82.138" y2="82.138" transform="translate(-0.92 -23.353)" fill="none" stroke="#0505c4" stroke-miterlimit="10" stroke-width="0.5"/>
              <line id="Line_7383" data-name="Line 7383" x2="82.138" y2="82.138" transform="translate(1.841 -24.734)" fill="none" stroke="#0505c4" stroke-miterlimit="10" stroke-width="0.5"/>
              <line id="Line_7384" data-name="Line 7384" x2="82.138" y2="82.138" transform="translate(4.602 -26.114)" fill="none" stroke="#0505c4" stroke-miterlimit="10" stroke-width="0.5"/>
            </g>
          </g>
          <path id="Path_147925" data-name="Path 147925" d="M207.1,76.5H214a4.615,4.615,0,0,1,4.6,4.6h0a4.615,4.615,0,0,1-4.6,4.6h-6.9a4.615,4.615,0,0,1-4.6-4.6h0A4.615,4.615,0,0,1,207.1,76.5Z" transform="translate(41.772 -0.839)" fill="none" stroke="#0505c4" stroke-miterlimit="10" stroke-width="0.5"/>
          <text id="Numero_di_occorrenze" data-name="Numero di occorrenze" transform="translate(418.553 36.743)" font-size="9" font-family="HKGrotesk-Light, HK Grotesk" font-weight="300"><tspan x="0" y="0">Numero di occorrenze</tspan></text>
          <text id="DIMENSIONE" transform="translate(392.313 14.15)" font-size="13" font-family="HKGrotesk-Medium, HK Grotesk" font-weight="500"><tspan x="0" y="0">DIMENSIONE</tspan></text>
          <circle id="Ellipse_33243" data-name="Ellipse 33243" cx="2.876" cy="2.876" r="2.876" transform="translate(395.492 33.502)" fill="none" stroke="#000" stroke-miterlimit="10" stroke-width="0.25"/>
          <circle id="Ellipse_33244" data-name="Ellipse 33244" cx="6.327" cy="6.327" r="6.327" transform="translate(392.048 26.578)" fill="none" stroke="#000" stroke-miterlimit="10" stroke-width="0.25"/>
        </g>
      </g>
      <g id="Isolation_Mode_1_" transform="translate(-0.61 10.99)">
        <text id="TEMPO_DELLA_STORIA" data-name="TEMPO DELLA STORIA" transform="translate(0 13)" font-size="13" font-family="HKGrotesk-Medium, HK Grotesk" font-weight="500"><tspan x="0" y="0">TEMPO DELLA STORIA</tspan></text>
      </g>
    </g>
    <g id="Group_24681" data-name="Group 24681">
      <path id="Path_148042" data-name="Path 148042" d="M7.5,97.2h9c3.3,0,6,2.25,6,5h0c0,2.75-2.7,5-6,5h-9c-3.3,0-6-2.25-6-5h0C1.5,99.45,4.2,97.2,7.5,97.2Z" transform="translate(0 2.337)" fill="none" stroke="#000" stroke-miterlimit="10" stroke-width="0.25"/>
      <path id="Path_148043" data-name="Path 148043" d="M7.5,128h9c3.3,0,6,2.25,6,5h0c0,2.75-2.7,5-6,5h-9c-3.3,0-6-2.25-6-5h0C1.5,130.25,4.2,128,7.5,128Z" transform="translate(0 7.099)" fill="none" stroke="red" stroke-miterlimit="10" stroke-width="0.5" stroke-dasharray="2 2"/>
      <text id="Luoghi_scomparsi_dalla_narrazione" data-name="Luoghi scomparsi dalla narrazione" transform="translate(29 142.667)" font-size="9" font-family="HKGrotesk-Regular, HK Grotesk"><tspan x="0" y="0">Luoghi scomparsi dalla narrazione</tspan></text>
      <text id="Ambientazioni_di_testi_in_cui_presente_e_passato_si_fondono_in_un_testo_misto" data-name="Ambientazioni di testi in cui presente
e passato si fondono in un testo misto" transform="translate(29 97)" font-size="9" font-family="HKGrotesk-Regular, HK Grotesk"><tspan x="0" y="8">Ambientazioni di testi in cui presente</tspan><tspan x="0" y="19">e passato si fondono in un </tspan><tspan y="19" font-family="HKGrotesk-Medium, HK Grotesk" font-weight="500">testo misto</tspan></text>
      <text id="Ambientazioni_di_testi_in_cui_il_tempo_della_storia_è_collocato_in_un_tempo_indefinito_" data-name="Ambientazioni di testi in cui il tempo
della storia è collocato in un tempo indefinito " transform="translate(30 25)" font-size="9" font-family="HKGrotesk-Regular, HK Grotesk"><tspan x="0" y="8">Ambientazioni di testi in cui il tempo</tspan><tspan x="0" y="19">della storia è collocato in un </tspan><tspan y="19" font-family="HKGrotesk-Medium, HK Grotesk" font-weight="500">tempo indefinito </tspan></text>
      <text id="Ambientazioni_di_testi_in_cui_il_tempo_della_storia_è_collocato_nel_passato" data-name="Ambientazioni di testi in cui il tempo
della storia è collocato nel passato" transform="translate(30 61)" font-size="9" font-family="HKGrotesk-Regular, HK Grotesk"><tspan x="0" y="8">Ambientazioni di testi in cui il tempo</tspan><tspan x="0" y="19">della storia è collocato nel </tspan><tspan y="19" font-family="HKGrotesk-MediumLegacy, HK Grotesk" font-weight="500">passato</tspan></text>
      <path id="Path_157234" data-name="Path 157234" d="M7.654,76.8C4.585,76.8,2,74.514,2,71.8s2.585-5,5.654-5h9.692c3.069,0,5.654,2.286,5.654,5s-2.585,5-5.654,5Z" transform="translate(-1 -5.309)" fill="#dbdbdb"/>
      <g id="Group_24680" data-name="Group 24680">
        <g id="Group_24678" data-name="Group 24678" transform="translate(0.703 26.322)" clip-path="url(#clip-path-4)">
          <line id="Line_7918" data-name="Line 7918" x2="107.1" y2="89.25" transform="translate(-66 1.625)" fill="none" stroke="#0d1b3a" stroke-miterlimit="10" stroke-width="0.25"/>
          <line id="Line_7919" data-name="Line 7919" x2="107.1" y2="89.25" transform="translate(-62.4 0.125)" fill="none" stroke="#0d1b3a" stroke-miterlimit="10" stroke-width="0.25"/>
          <line id="Line_7920" data-name="Line 7920" x2="107.1" y2="89.25" transform="translate(-58.8 -1.375)" fill="none" stroke="#0d1b3a" stroke-miterlimit="10" stroke-width="0.25"/>
          <line id="Line_7921" data-name="Line 7921" x2="107.1" y2="89.25" transform="translate(-55.2 -2.875)" fill="none" stroke="#0d1b3a" stroke-miterlimit="10" stroke-width="0.25"/>
          <line id="Line_7922" data-name="Line 7922" x2="107.1" y2="89.25" transform="translate(-51.6 -4.375)" fill="none" stroke="#0d1b3a" stroke-miterlimit="10" stroke-width="0.25"/>
          <line id="Line_7923" data-name="Line 7923" x2="107.1" y2="89.25" transform="translate(-48 -5.875)" fill="none" stroke="#0d1b3a" stroke-miterlimit="10" stroke-width="0.25"/>
          <line id="Line_7924" data-name="Line 7924" x2="107.1" y2="89.25" transform="translate(-44.4 -7.375)" fill="none" stroke="#0d1b3a" stroke-miterlimit="10" stroke-width="0.25"/>
          <line id="Line_7925" data-name="Line 7925" x2="107.1" y2="89.25" transform="translate(-40.8 -8.875)" fill="none" stroke="#0d1b3a" stroke-miterlimit="10" stroke-width="0.25"/>
          <line id="Line_7926" data-name="Line 7926" x2="107.1" y2="89.25" transform="translate(-37.2 -10.375)" fill="none" stroke="#0d1b3a" stroke-miterlimit="10" stroke-width="0.25"/>
          <line id="Line_7927" data-name="Line 7927" x2="107.1" y2="89.25" transform="translate(-33.6 -11.875)" fill="none" stroke="#0d1b3a" stroke-miterlimit="10" stroke-width="0.25"/>
          <line id="Line_7928" data-name="Line 7928" x2="107.1" y2="89.25" transform="translate(-30 -13.375)" fill="none" stroke="#0d1b3a" stroke-miterlimit="10" stroke-width="0.25"/>
          <line id="Line_7929" data-name="Line 7929" x2="107.1" y2="89.25" transform="translate(-26.4 -14.875)" fill="none" stroke="#0d1b3a" stroke-miterlimit="10" stroke-width="0.25"/>
          <line id="Line_7930" data-name="Line 7930" x2="107.1" y2="89.25" transform="translate(-22.8 -16.375)" fill="none" stroke="#0d1b3a" stroke-miterlimit="10" stroke-width="0.25"/>
          <line id="Line_7931" data-name="Line 7931" x2="107.1" y2="89.25" transform="translate(-19.2 -17.875)" fill="none" stroke="#0d1b3a" stroke-miterlimit="10" stroke-width="0.25"/>
          <line id="Line_7932" data-name="Line 7932" x2="107.1" y2="89.25" transform="translate(-15.6 -19.375)" fill="none" stroke="#0d1b3a" stroke-miterlimit="10" stroke-width="0.25"/>
          <line id="Line_7933" data-name="Line 7933" x2="107.1" y2="89.25" transform="translate(-12 -20.875)" fill="none" stroke="#0d1b3a" stroke-miterlimit="10" stroke-width="0.25"/>
          <line id="Line_7934" data-name="Line 7934" x2="107.1" y2="89.25" transform="translate(-8.4 -22.375)" fill="none" stroke="#0d1b3a" stroke-miterlimit="10" stroke-width="0.25"/>
          <line id="Line_7935" data-name="Line 7935" x2="107.1" y2="89.25" transform="translate(-4.8 -23.875)" fill="none" stroke="#0d1b3a" stroke-miterlimit="10" stroke-width="0.25"/>
          <line id="Line_7936" data-name="Line 7936" x2="107.1" y2="89.25" transform="translate(-1.2 -25.375)" fill="none" stroke="#0d1b3a" stroke-miterlimit="10" stroke-width="0.25"/>
          <line id="Line_7937" data-name="Line 7937" x2="107.1" y2="89.25" transform="translate(2.4 -26.875)" fill="none" stroke="#0d1b3a" stroke-miterlimit="10" stroke-width="0.25"/>
          <line id="Line_7938" data-name="Line 7938" x2="107.1" y2="89.25" transform="translate(6 -28.375)" fill="none" stroke="#0d1b3a" stroke-miterlimit="10" stroke-width="0.25"/>
        </g>
        <path id="Path_157233" data-name="Path 157233" d="M209.5,35.5h9c3.3,0,6,2.25,6,5h0c0,2.75-2.7,5-6,5h-9c-3.3,0-6-2.25-6-5h0C203.5,37.75,206.2,35.5,209.5,35.5Z" transform="translate(-202.797 -9.178)" fill="none" stroke="#0d1b3a" stroke-miterlimit="10" stroke-width="0.25"/>
      </g>
    </g>
    <text id="CONTESTI" transform="translate(243.086 12)" font-size="12" font-family="HKGrotesk-Medium, HK Grotesk" font-weight="500"><tspan x="0" y="0">CONTESTI</tspan></text>
  </g>
</svg>
