<?xml version="1.0" encoding="utf-8"?>
<!-- Generator: Adobe Illustrator 24.2.1, SVG Export Plug-In . SVG Version: 6.00 Build 0)  -->
<svg version="1.1" id="Layer_1" xmlns="http://www.w3.org/2000/svg" xmlns:xlink="http://www.w3.org/1999/xlink" x="0px" y="0px"
	 viewBox="0 0 459 86.5" style="enable-background:new 0 0 459 86.5;" xml:space="preserve">
<style type="text/css">
	.st0{font-family:'HKGrotesk-Light';}
	.st1{font-size:8px;}
	.st2{clip-path:url(#SVGID_2_);}
	.st3{fill:none;stroke:#ED6826;stroke-width:0.5;stroke-miterlimit:10;}
	.st4{clip-path:url(#SVGID_4_);}
	.st5{fill:none;stroke:#00FFB6;stroke-width:0.5;stroke-miterlimit:10;}
	.st6{font-family:'HKGrotesk-Medium';}
	.st7{font-size:12px;}
	.st8{clip-path:url(#SVGID_6_);}
	.st9{fill:none;stroke:#4F4F4F;stroke-width:0.5;stroke-miterlimit:10;}
	.st10{fill:#DBDBDB;}
	.st11{fill:none;stroke:#000000;stroke-width:0.25;stroke-miterlimit:10;}
</style>
<g id="Isolation_Mode">
	<text transform="matrix(1 0 0 1 225.2 42.26)" class="st0 st1">Ambiente urbano</text>
	<text transform="matrix(1 0 0 1 225.2 63.01)" class="st0 st1">Natura ligure</text>
	<g>
		<defs>
			<path id="SVGID_1_" d="M206.5,35.5h6c2.2,0,4,1.8,4,4l0,0c0,2.2-1.8,4-4,4h-6c-2.2,0-4-1.8-4-4l0,0
				C202.5,37.3,204.3,35.5,206.5,35.5z"/>
		</defs>
		<clipPath id="SVGID_2_">
			<use xlink:href="#SVGID_1_"  style="overflow:visible;"/>
		</clipPath>
		<g class="st2">
			<line class="st3" x1="158.5" y1="36.8" x2="229.9" y2="108.2"/>
			<line class="st3" x1="160.9" y1="35.6" x2="232.3" y2="107"/>
			<line class="st3" x1="163.3" y1="34.4" x2="234.7" y2="105.8"/>
			<line class="st3" x1="165.7" y1="33.2" x2="237.1" y2="104.6"/>
			<line class="st3" x1="168.1" y1="32" x2="239.5" y2="103.4"/>
			<line class="st3" x1="170.5" y1="30.8" x2="241.9" y2="102.2"/>
			<line class="st3" x1="172.9" y1="29.6" x2="244.3" y2="101"/>
			<line class="st3" x1="175.3" y1="28.4" x2="246.7" y2="99.8"/>
			<line class="st3" x1="177.7" y1="27.2" x2="249.1" y2="98.6"/>
			<line class="st3" x1="180.1" y1="26" x2="251.5" y2="97.4"/>
			<line class="st3" x1="182.5" y1="24.8" x2="253.9" y2="96.2"/>
			<line class="st3" x1="184.9" y1="23.6" x2="256.3" y2="95"/>
			<line class="st3" x1="187.3" y1="22.4" x2="258.7" y2="93.8"/>
			<line class="st3" x1="189.7" y1="21.2" x2="261.1" y2="92.6"/>
			<line class="st3" x1="192.1" y1="20" x2="263.5" y2="91.4"/>
			<line class="st3" x1="194.5" y1="18.8" x2="265.9" y2="90.2"/>
			<line class="st3" x1="196.9" y1="17.6" x2="268.3" y2="89"/>
			<line class="st3" x1="199.3" y1="16.4" x2="270.7" y2="87.8"/>
			<line class="st3" x1="201.7" y1="15.2" x2="273.1" y2="86.6"/>
			<line class="st3" x1="204.1" y1="14" x2="275.5" y2="85.4"/>
			<line class="st3" x1="206.5" y1="12.8" x2="277.9" y2="84.2"/>
		</g>
	</g>
	<path class="st3" d="M206.5,35.5h6c2.2,0,4,1.8,4,4l0,0c0,2.2-1.8,4-4,4h-6c-2.2,0-4-1.8-4-4l0,0C202.5,37.3,204.3,35.5,206.5,35.5
		z"/>
	<g>
		<defs>
			<path id="SVGID_3_" d="M206.5,56.3h6c2.2,0,4,1.8,4,4l0,0c0,2.2-1.8,4-4,4h-6c-2.2,0-4-1.8-4-4l0,0
				C202.5,58,204.3,56.3,206.5,56.3z"/>
		</defs>
		<clipPath id="SVGID_4_">
			<use xlink:href="#SVGID_3_"  style="overflow:visible;"/>
		</clipPath>
		<g class="st4">
			<line class="st5" x1="158.5" y1="57.6" x2="229.9" y2="129"/>
			<line class="st5" x1="160.9" y1="56.4" x2="232.3" y2="127.8"/>
			<line class="st5" x1="163.3" y1="55.2" x2="234.7" y2="126.6"/>
			<line class="st5" x1="165.7" y1="54" x2="237.1" y2="125.4"/>
			<line class="st5" x1="168.1" y1="52.8" x2="239.5" y2="124.2"/>
			<line class="st5" x1="170.5" y1="51.6" x2="241.9" y2="123"/>
			<line class="st5" x1="172.9" y1="50.4" x2="244.3" y2="121.8"/>
			<line class="st5" x1="175.3" y1="49.2" x2="246.7" y2="120.6"/>
			<line class="st5" x1="177.7" y1="48" x2="249.1" y2="119.4"/>
			<line class="st5" x1="180.1" y1="46.8" x2="251.5" y2="118.2"/>
			<line class="st5" x1="182.5" y1="45.6" x2="253.9" y2="117"/>
			<line class="st5" x1="184.9" y1="44.4" x2="256.3" y2="115.8"/>
			<line class="st5" x1="187.3" y1="43.2" x2="258.7" y2="114.6"/>
			<line class="st5" x1="189.7" y1="42" x2="261.1" y2="113.4"/>
			<line class="st5" x1="192.1" y1="40.8" x2="263.5" y2="112.2"/>
			<line class="st5" x1="194.5" y1="39.6" x2="265.9" y2="111"/>
			<line class="st5" x1="196.9" y1="38.4" x2="268.3" y2="109.8"/>
			<line class="st5" x1="199.3" y1="37.2" x2="270.7" y2="108.6"/>
			<line class="st5" x1="201.7" y1="36" x2="273.1" y2="107.4"/>
			<line class="st5" x1="204.1" y1="34.8" x2="275.5" y2="106.2"/>
			<line class="st5" x1="206.5" y1="33.6" x2="277.9" y2="105"/>
		</g>
	</g>
	<path class="st5" d="M206.5,56.3h6c2.2,0,4,1.8,4,4l0,0c0,2.2-1.8,4-4,4h-6c-2.2,0-4-1.8-4-4l0,0C202.5,58,204.3,56.3,206.5,56.3z"
		/>
	<text transform="matrix(1 0 0 1 -0.61 22.99)" class="st6 st7">TEMPO DELLA STORIA</text>
	<text transform="matrix(1 0 0 1 202.39 22.99)" class="st6 st7">C</text>
	<text transform="matrix(1 0 0 1 210.96 22.99)" class="st6 st7">ONTE</text>
	<text transform="matrix(1 0 0 1 243.56 22.99)" class="st6 st7">S</text>
	<text transform="matrix(1 0 0 1 250.34 22.99)" class="st6 st7">TI</text>
	<text transform="matrix(1 0 0 1 21.2 42.26)" class="st0 st1">A</text>
	<text transform="matrix(1 0 0 1 26.29 42.26)" class="st0 st1">mbientazioni di </text>
	<text transform="matrix(1 0 0 1 82.85 42.26)" class="st0 st1">t</text>
	<text transform="matrix(1 0 0 1 85.35 42.26)" class="st0 st1">esti in </text>
	<text transform="matrix(1 0 0 1 108.46 42.26)" class="st0 st1">c</text>
	<text transform="matrix(1 0 0 1 112.49 42.26)" class="st0 st1">ui il </text>
	<text transform="matrix(1 0 0 1 127.21 42.26)" class="st0 st1">t</text>
	<text transform="matrix(1 0 0 1 129.72 42.26)" class="st0 st1">empo</text>
	<text transform="matrix(1 0 0 1 21.2 51.86)" class="st0 st1">il tempo è collocato nella </text>
	<text transform="matrix(1 0 0 1 112.3121 51.86)" class="st6 st1">contemporaneità</text>
	<g>
		<defs>
			<path id="SVGID_5_" d="M4.5,35.5h6c2.2,0,4,1.8,4,4l0,0c0,2.2-1.8,4-4,4h-6c-2.2,0-4-1.8-4-4l0,0C0.5,37.3,2.3,35.5,4.5,35.5z"/>
		</defs>
		<clipPath id="SVGID_6_">
			<use xlink:href="#SVGID_5_"  style="overflow:visible;"/>
		</clipPath>
		<g class="st8">
			<line class="st9" x1="-43.5" y1="36.8" x2="27.9" y2="108.2"/>
			<line class="st9" x1="-41.1" y1="35.6" x2="30.3" y2="107"/>
			<line class="st9" x1="-38.7" y1="34.4" x2="32.7" y2="105.8"/>
			<line class="st9" x1="-36.3" y1="33.2" x2="35.1" y2="104.6"/>
			<line class="st9" x1="-33.9" y1="32" x2="37.5" y2="103.4"/>
			<line class="st9" x1="-31.5" y1="30.8" x2="39.9" y2="102.2"/>
			<line class="st9" x1="-29.1" y1="29.6" x2="42.3" y2="101"/>
			<line class="st9" x1="-26.7" y1="28.4" x2="44.7" y2="99.8"/>
			<line class="st9" x1="-24.3" y1="27.2" x2="47.1" y2="98.6"/>
			<line class="st9" x1="-21.9" y1="26" x2="49.5" y2="97.4"/>
			<line class="st9" x1="-19.5" y1="24.8" x2="51.9" y2="96.2"/>
			<line class="st9" x1="-17.1" y1="23.6" x2="54.3" y2="95"/>
			<line class="st9" x1="-14.7" y1="22.4" x2="56.7" y2="93.8"/>
			<line class="st9" x1="-12.3" y1="21.2" x2="59.1" y2="92.6"/>
			<line class="st9" x1="-9.9" y1="20" x2="61.5" y2="91.4"/>
			<line class="st9" x1="-7.5" y1="18.8" x2="63.9" y2="90.2"/>
			<line class="st9" x1="-5.1" y1="17.6" x2="66.3" y2="89"/>
			<line class="st9" x1="-2.7" y1="16.4" x2="68.7" y2="87.8"/>
			<line class="st9" x1="-0.3" y1="15.2" x2="71.1" y2="86.6"/>
			<line class="st9" x1="2.1" y1="14" x2="73.5" y2="85.4"/>
			<line class="st9" x1="4.5" y1="12.8" x2="75.9" y2="84.2"/>
		</g>
	</g>
	<path class="st9" d="M4.5,35.5h6c2.2,0,4,1.8,4,4l0,0c0,2.2-1.8,4-4,4h-6c-2.2,0-4-1.8-4-4l0,0C0.5,37.3,2.3,35.5,4.5,35.5z"/>
	<path class="st10" d="M4.5,73.8c-1.9,0-3.5-1.6-3.5-3.5s1.6-3.5,3.5-3.5h6c1.9,0,3.5,1.6,3.5,3.5s-1.6,3.5-3.5,3.5H4.5z"/>
	<path class="st10" d="M10.5,67.3c1.7,0,3,1.3,3,3s-1.3,3-3,3h-6c-1.7,0-3-1.3-3-3s1.3-3,3-3H10.5 M10.5,66.3h-6c-2.2,0-4,1.8-4,4
		l0,0c0,2.2,1.8,4,4,4h6c2.2,0,4-1.8,4-4l0,0C14.5,68.1,12.7,66.3,10.5,66.3z"/>
	<text transform="matrix(1 0 0 1 21.2 73.09)" class="st0 st1">A</text>
	<text transform="matrix(1 0 0 1 26.29 73.09)" class="st0 st1">mbientazioni di </text>
	<text transform="matrix(1 0 0 1 82.85 73.09)" class="st0 st1">t</text>
	<text transform="matrix(1 0 0 1 85.35 73.09)" class="st0 st1">esti in </text>
	<text transform="matrix(1 0 0 1 108.46 73.09)" class="st0 st1">c</text>
	<text transform="matrix(1 0 0 1 112.49 73.09)" class="st0 st1">ui il </text>
	<text transform="matrix(1 0 0 1 127.21 73.09)" class="st0 st1">t</text>
	<text transform="matrix(1 0 0 1 129.72 73.09)" class="st0 st1">empo </text>
	<text transform="matrix(1 0 0 1 21.2 82.69)" class="st0 st1">della storia è collocato nel </text>
	<text transform="matrix(1 0 0 1 117.69 82.69)" class="st6 st1">passato</text>
	<text transform="matrix(1 0 0 1 362.7 43.01)" class="st0 st1">Numero di occorrenze</text>
	<text transform="matrix(1 0 0 1 339.89 23.99)" class="st6 st7">DIMENSIONE</text>
	<circle class="st11" cx="345.5" cy="42.5" r="2.5"/>
	<circle class="st11" cx="345.5" cy="39.5" r="5.5"/>
</g>
</svg>
