<svg xmlns="http://www.w3.org/2000/svg" xmlns:xlink="http://www.w3.org/1999/xlink" width="600" height="87" viewBox="0 0 600 87"><defs><clipPath id="a"><path d="M208.5,35.5h9c3.3,0,6,2.25,6,5h0c0,2.75-2.7,5-6,5h-9c-3.3,0-6-2.25-6-5h0C202.5,37.75,205.2,35.5,208.5,35.5Z" transform="translate(-202.5 -35.5)"/></clipPath><clipPath id="b"><path d="M208.5,56.3h9c3.3,0,6,2.25,6,5h0c0,2.75-2.7,5-6,5h-9c-3.3,0-6-2.25-6-5h0C202.5,58.425,205.2,56.3,208.5,56.3Z" transform="translate(-202.5 -56.3)"/></clipPath><clipPath id="c"><path d="M209.5,35.5h9c3.3,0,6,2.25,6,5h0c0,2.75-2.7,5-6,5h-9c-3.3,0-6-2.25-6-5h0C203.5,37.75,206.2,35.5,209.5,35.5Z" transform="translate(-203.5 -35.5)"/></clipPath><clipPath id="e"><rect width="600" height="87"/></clipPath></defs><g id="d" clip-path="url(#e)"><g transform="translate(26.61 -12.99)"><text transform="translate(271.326 46.887)" font-size="9" font-family="HKGrotesk-Regular, HK Grotesk"><tspan x="0" y="0">Paesaggio urbano</tspan></text><text transform="translate(271.329 70.871)" font-size="9" font-family="HKGrotesk-Regular, HK Grotesk"><tspan x="0" y="0">Natura ligure</tspan></text><g transform="translate(242.102 39.32)"><g clip-path="url(#a)"><line x2="107.1" y2="89.25" transform="translate(-66 1.625)" fill="none" stroke="#ed6826" stroke-miterlimit="10" stroke-width="0.5"/><line x2="107.1" y2="89.25" transform="translate(-62.4 0.125)" fill="none" stroke="#ed6826" stroke-miterlimit="10" stroke-width="0.5"/><line x2="107.1" y2="89.25" transform="translate(-58.8 -1.375)" fill="none" stroke="#ed6826" stroke-miterlimit="10" stroke-width="0.5"/><line x2="107.1" y2="89.25" transform="translate(-55.2 -2.875)" fill="none" stroke="#ed6826" stroke-miterlimit="10" stroke-width="0.5"/><line x2="107.1" y2="89.25" transform="translate(-51.6 -4.375)" fill="none" stroke="#ed6826" stroke-miterlimit="10" stroke-width="0.5"/><line x2="107.1" y2="89.25" transform="translate(-48 -5.875)" fill="none" stroke="#ed6826" stroke-miterlimit="10" stroke-width="0.5"/><line x2="107.1" y2="89.25" transform="translate(-44.4 -7.375)" fill="none" stroke="#ed6826" stroke-miterlimit="10" stroke-width="0.5"/><line x2="107.1" y2="89.25" transform="translate(-40.8 -8.875)" fill="none" stroke="#ed6826" stroke-miterlimit="10" stroke-width="0.5"/><line x2="107.1" y2="89.25" transform="translate(-37.2 -10.375)" fill="none" stroke="#ed6826" stroke-miterlimit="10" stroke-width="0.5"/><line x2="107.1" y2="89.25" transform="translate(-33.6 -11.875)" fill="none" stroke="#ed6826" stroke-miterlimit="10" stroke-width="0.5"/><line x2="107.1" y2="89.25" transform="translate(-30 -13.375)" fill="none" stroke="#ed6826" stroke-miterlimit="10" stroke-width="0.5"/><line x2="107.1" y2="89.25" transform="translate(-26.4 -14.875)" fill="none" stroke="#ed6826" stroke-miterlimit="10" stroke-width="0.5"/><line x2="107.1" y2="89.25" transform="translate(-22.8 -16.375)" fill="none" stroke="#ed6826" stroke-miterlimit="10" stroke-width="0.5"/><line x2="107.1" y2="89.25" transform="translate(-19.2 -17.875)" fill="none" stroke="#ed6826" stroke-miterlimit="10" stroke-width="0.5"/><line x2="107.1" y2="89.25" transform="translate(-15.6 -19.375)" fill="none" stroke="#ed6826" stroke-miterlimit="10" stroke-width="0.5"/><line x2="107.1" y2="89.25" transform="translate(-12 -20.875)" fill="none" stroke="#ed6826" stroke-miterlimit="10" stroke-width="0.5"/><line x2="107.1" y2="89.25" transform="translate(-8.4 -22.375)" fill="none" stroke="#ed6826" stroke-miterlimit="10" stroke-width="0.5"/><line x2="107.1" y2="89.25" transform="translate(-4.8 -23.875)" fill="none" stroke="#ed6826" stroke-miterlimit="10" stroke-width="0.5"/><line x2="107.1" y2="89.25" transform="translate(-1.2 -25.375)" fill="none" stroke="#ed6826" stroke-miterlimit="10" stroke-width="0.5"/><line x2="107.1" y2="89.25" transform="translate(2.4 -26.875)" fill="none" stroke="#ed6826" stroke-miterlimit="10" stroke-width="0.5"/><line x2="107.1" y2="89.25" transform="translate(6 -28.375)" fill="none" stroke="#ed6826" stroke-miterlimit="10" stroke-width="0.5"/></g></g><path d="M208.5,35.5h9c3.3,0,6,2.25,6,5h0c0,2.75-2.7,5-6,5h-9c-3.3,0-6-2.25-6-5h0C202.5,37.75,205.2,35.5,208.5,35.5Z" transform="translate(39.602 3.82)" fill="none" stroke="#ed6826" stroke-miterlimit="10" stroke-width="0.5"/><g transform="translate(242.102 63.362)"><g clip-path="url(#b)"><line x2="107.1" y2="89.25" transform="translate(-66 1.625)" fill="none" stroke="#00ffb6" stroke-miterlimit="10" stroke-width="0.5"/><line x2="107.1" y2="89.25" transform="translate(-62.4 0.125)" fill="none" stroke="#00ffb6" stroke-miterlimit="10" stroke-width="0.5"/><line x2="107.1" y2="89.25" transform="translate(-58.8 -1.375)" fill="none" stroke="#00ffb6" stroke-miterlimit="10" stroke-width="0.5"/><line x2="107.1" y2="89.25" transform="translate(-55.2 -2.875)" fill="none" stroke="#00ffb6" stroke-miterlimit="10" stroke-width="0.5"/><line x2="107.1" y2="89.25" transform="translate(-51.6 -4.375)" fill="none" stroke="#00ffb6" stroke-miterlimit="10" stroke-width="0.5"/><line x2="107.1" y2="89.25" transform="translate(-48 -5.875)" fill="none" stroke="#00ffb6" stroke-miterlimit="10" stroke-width="0.5"/><line x2="107.1" y2="89.25" transform="translate(-44.4 -7.375)" fill="none" stroke="#00ffb6" stroke-miterlimit="10" stroke-width="0.5"/><line x2="107.1" y2="89.25" transform="translate(-40.8 -8.875)" fill="none" stroke="#00ffb6" stroke-miterlimit="10" stroke-width="0.5"/><line x2="107.1" y2="89.25" transform="translate(-37.2 -10.375)" fill="none" stroke="#00ffb6" stroke-miterlimit="10" stroke-width="0.5"/><line x2="107.1" y2="89.25" transform="translate(-33.6 -11.875)" fill="none" stroke="#00ffb6" stroke-miterlimit="10" stroke-width="0.5"/><line x2="107.1" y2="89.25" transform="translate(-30 -13.375)" fill="none" stroke="#00ffb6" stroke-miterlimit="10" stroke-width="0.5"/><line x2="107.1" y2="89.25" transform="translate(-26.4 -14.875)" fill="none" stroke="#00ffb6" stroke-miterlimit="10" stroke-width="0.5"/><line x2="107.1" y2="89.25" transform="translate(-22.8 -16.375)" fill="none" stroke="#00ffb6" stroke-miterlimit="10" stroke-width="0.5"/><line x2="107.1" y2="89.25" transform="translate(-19.2 -17.875)" fill="none" stroke="#00ffb6" stroke-miterlimit="10" stroke-width="0.5"/><line x2="107.1" y2="89.25" transform="translate(-15.6 -19.375)" fill="none" stroke="#00ffb6" stroke-miterlimit="10" stroke-width="0.5"/><line x2="107.1" y2="89.25" transform="translate(-12 -20.875)" fill="none" stroke="#00ffb6" stroke-miterlimit="10" stroke-width="0.5"/><line x2="107.1" y2="89.25" transform="translate(-8.4 -22.375)" fill="none" stroke="#00ffb6" stroke-miterlimit="10" stroke-width="0.5"/><line x2="107.1" y2="89.25" transform="translate(-4.8 -23.875)" fill="none" stroke="#00ffb6" stroke-miterlimit="10" stroke-width="0.5"/><line x2="107.1" y2="89.25" transform="translate(-1.2 -25.375)" fill="none" stroke="#00ffb6" stroke-miterlimit="10" stroke-width="0.5"/><line x2="107.1" y2="89.25" transform="translate(2.4 -26.875)" fill="none" stroke="#00ffb6" stroke-miterlimit="10" stroke-width="0.5"/><line x2="107.1" y2="89.25" transform="translate(6 -28.375)" fill="none" stroke="#00ffb6" stroke-miterlimit="10" stroke-width="0.5"/></g></g><path d="M208.5,56.3h9c3.3,0,6,2.25,6,5h0c0,2.75-2.7,5-6,5h-9c-3.3,0-6-2.25-6-5h0C202.5,58.425,205.2,56.3,208.5,56.3Z" transform="translate(39.602 7.062)" fill="none" stroke="#00ffb6" stroke-miterlimit="10" stroke-width="0.5"/><text transform="translate(393.21 47.754)" font-size="9" font-family="HKGrotesk-Regular, HK Grotesk"><tspan x="0" y="0">Numero di occorrenze</tspan></text><circle cx="2.89" cy="2.89" r="2.89" transform="translate(370.464 44.521)" fill="none" stroke="#000" stroke-miterlimit="10" stroke-width="0.25"/><circle cx="6.357" cy="6.357" r="6.357" transform="translate(366.996 37.586)" fill="none" stroke="#000" stroke-miterlimit="10" stroke-width="0.25"/><text transform="translate(242.476 24.99)" font-size="12" font-family="HKGrotesk-Medium, HK Grotesk" font-weight="500"><tspan x="0" y="0">CONTESTI</tspan></text><text transform="translate(364.476 24.99)" font-size="12" font-family="HKGrotesk-Medium, HK Grotesk" font-weight="500"><tspan x="0" y="0">DIMENSIONE</tspan></text></g><text transform="translate(0.452 12)" font-size="12" font-family="HKGrotesk-Medium, HK Grotesk" font-weight="500"><tspan x="0" y="0">TEMPO DELLA STORIA</tspan></text><path d="M7.654,76.8C4.585,76.8,2,74.514,2,71.8s2.585-5,5.654-5h9.692c3.069,0,5.654,2.286,5.654,5s-2.585,5-5.654,5Z" transform="translate(-1 -5.309)" fill="#dbdbdb"/><g transform="translate(0.703 26.322)" clip-path="url(#c)"><line x2="107.1" y2="89.25" transform="translate(-66 1.625)" fill="none" stroke="#0d1b3a" stroke-miterlimit="10" stroke-width="0.25"/><line x2="107.1" y2="89.25" transform="translate(-62.4 0.125)" fill="none" stroke="#0d1b3a" stroke-miterlimit="10" stroke-width="0.25"/><line x2="107.1" y2="89.25" transform="translate(-58.8 -1.375)" fill="none" stroke="#0d1b3a" stroke-miterlimit="10" stroke-width="0.25"/><line x2="107.1" y2="89.25" transform="translate(-55.2 -2.875)" fill="none" stroke="#0d1b3a" stroke-miterlimit="10" stroke-width="0.25"/><line x2="107.1" y2="89.25" transform="translate(-51.6 -4.375)" fill="none" stroke="#0d1b3a" stroke-miterlimit="10" stroke-width="0.25"/><line x2="107.1" y2="89.25" transform="translate(-48 -5.875)" fill="none" stroke="#0d1b3a" stroke-miterlimit="10" stroke-width="0.25"/><line x2="107.1" y2="89.25" transform="translate(-44.4 -7.375)" fill="none" stroke="#0d1b3a" stroke-miterlimit="10" stroke-width="0.25"/><line x2="107.1" y2="89.25" transform="translate(-40.8 -8.875)" fill="none" stroke="#0d1b3a" stroke-miterlimit="10" stroke-width="0.25"/><line x2="107.1" y2="89.25" transform="translate(-37.2 -10.375)" fill="none" stroke="#0d1b3a" stroke-miterlimit="10" stroke-width="0.25"/><line x2="107.1" y2="89.25" transform="translate(-33.6 -11.875)" fill="none" stroke="#0d1b3a" stroke-miterlimit="10" stroke-width="0.25"/><line x2="107.1" y2="89.25" transform="translate(-30 -13.375)" fill="none" stroke="#0d1b3a" stroke-miterlimit="10" stroke-width="0.25"/><line x2="107.1" y2="89.25" transform="translate(-26.4 -14.875)" fill="none" stroke="#0d1b3a" stroke-miterlimit="10" stroke-width="0.25"/><line x2="107.1" y2="89.25" transform="translate(-22.8 -16.375)" fill="none" stroke="#0d1b3a" stroke-miterlimit="10" stroke-width="0.25"/><line x2="107.1" y2="89.25" transform="translate(-19.2 -17.875)" fill="none" stroke="#0d1b3a" stroke-miterlimit="10" stroke-width="0.25"/><line x2="107.1" y2="89.25" transform="translate(-15.6 -19.375)" fill="none" stroke="#0d1b3a" stroke-miterlimit="10" stroke-width="0.25"/><line x2="107.1" y2="89.25" transform="translate(-12 -20.875)" fill="none" stroke="#0d1b3a" stroke-miterlimit="10" stroke-width="0.25"/><line x2="107.1" y2="89.25" transform="translate(-8.4 -22.375)" fill="none" stroke="#0d1b3a" stroke-miterlimit="10" stroke-width="0.25"/><line x2="107.1" y2="89.25" transform="translate(-4.8 -23.875)" fill="none" stroke="#0d1b3a" stroke-miterlimit="10" stroke-width="0.25"/><line x2="107.1" y2="89.25" transform="translate(-1.2 -25.375)" fill="none" stroke="#0d1b3a" stroke-miterlimit="10" stroke-width="0.25"/><line x2="107.1" y2="89.25" transform="translate(2.4 -26.875)" fill="none" stroke="#0d1b3a" stroke-miterlimit="10" stroke-width="0.25"/><line x2="107.1" y2="89.25" transform="translate(6 -28.375)" fill="none" stroke="#0d1b3a" stroke-miterlimit="10" stroke-width="0.25"/></g><path d="M209.5,35.5h9c3.3,0,6,2.25,6,5h0c0,2.75-2.7,5-6,5h-9c-3.3,0-6-2.25-6-5h0C203.5,37.75,206.2,35.5,209.5,35.5Z" transform="translate(-202.797 -9.178)" fill="none" stroke="#0d1b3a" stroke-miterlimit="10" stroke-width="0.25"/><text transform="translate(30 25)" font-size="10" font-family="HKGrotesk-Regular, HK Grotesk"><tspan x="0" y="9">Ambientazioni di testi in cui il tempo della storia </tspan><tspan x="0" y="21">è collocato nella </tspan><tspan y="21" font-family="HKGrotesk-MediumLegacy, HK Grotesk" font-weight="500">contemporaneità</tspan></text><text transform="translate(30 61)" font-size="10" font-family="HKGrotesk-Regular, HK Grotesk"><tspan x="0" y="9">Ambientazioni di testi in cui il tempo della storia </tspan><tspan x="0" y="21">è collocato nel passato o in un tempo </tspan><tspan y="21" font-family="HKGrotesk-MediumLegacy, HK Grotesk" font-weight="500">indefinito</tspan></text></g></svg>