<?xml version="1.0" encoding="utf-8"?>
<!-- Generator: Adobe Illustrator 24.2.1, SVG Export Plug-In . SVG Version: 6.00 Build 0)  -->
<svg version="1.1" id="Layer_1" xmlns="http://www.w3.org/2000/svg" xmlns:xlink="http://www.w3.org/1999/xlink" x="0px" y="0px"
	 viewBox="0 0 458 139.4" style="enable-background:new 0 0 458 139.4;" xml:space="preserve">
<style type="text/css">
	.st0{font-family:'HKGrotesk-Light';}
	.st1{font-size:8px;}
	.st2{font-family:'HKGrotesk-Medium';}
	.st3{font-size:12px;}
	.st4{clip-path:url(#SVGID_2_);}
	.st5{fill:none;stroke:#4F4F4F;stroke-width:0.5;stroke-miterlimit:10;}
	.st6{clip-path:url(#SVGID_4_);}
	.st7{fill:none;stroke:#FF3366;stroke-width:0.5;stroke-miterlimit:10;}
	.st8{clip-path:url(#SVGID_6_);}
	.st9{fill:none;stroke:#8131F4;stroke-width:0.5;stroke-miterlimit:10;}
	.st10{clip-path:url(#SVGID_8_);}
	.st11{fill:none;stroke:#0505C4;stroke-width:0.5;stroke-miterlimit:10;}
	.st12{clip-path:url(#SVGID_10_);}
	.st13{fill:none;stroke:#869FD1;stroke-width:0.5;stroke-miterlimit:10;}
	.st14{fill:#DBDBDB;}
	.st15{fill:none;stroke:#000000;stroke-width:0.25;stroke-miterlimit:10;}
	.st16{fill:none;stroke:#FF0000;stroke-width:0.5;stroke-miterlimit:10;stroke-dasharray:2,2;}
</style>
<g id="Isolation_Mode">
	<text transform="matrix(1 0 0 1 363.2 43.01)" class="st0 st1">Numero di occorrenze</text>
	<text transform="matrix(1 0 0 1 202.89 22.99)" class="st2 st3">C</text>
	<text transform="matrix(1 0 0 1 211.46 22.99)" class="st2 st3">ONTE</text>
	<text transform="matrix(1 0 0 1 244.06 22.99)" class="st2 st3">S</text>
	<text transform="matrix(1 0 0 1 250.84 22.99)" class="st2 st3">TI</text>
	<text transform="matrix(1 0 0 1 340.39 23.99)" class="st2 st3">DIMENSIONE</text>
	<text transform="matrix(1 0 0 1 21.7 42.26)" class="st0 st1">A</text>
	<text transform="matrix(1 0 0 1 26.79 42.26)" class="st0 st1">mbientazioni di </text>
	<text transform="matrix(1 0 0 1 83.35 42.26)" class="st0 st1">t</text>
	<text transform="matrix(1 0 0 1 85.85 42.26)" class="st0 st1">esti in </text>
	<text transform="matrix(1 0 0 1 108.96 42.26)" class="st0 st1">c</text>
	<text transform="matrix(1 0 0 1 112.99 42.26)" class="st0 st1">ui il </text>
	<text transform="matrix(1 0 0 1 127.71 42.26)" class="st0 st1">t</text>
	<text transform="matrix(1 0 0 1 130.22 42.26)" class="st0 st1">empo</text>
	<text transform="matrix(1 0 0 1 21.7 51.86)" class="st0 st1">il tempo è collocato nella </text>
	<text transform="matrix(1 0 0 1 112.9419 51.86)" class="st2 st1">contemporaneità</text>
	<g>
		<defs>
			<path id="SVGID_1_" d="M5,35.5h6c2.2,0,4,1.8,4,4l0,0c0,2.2-1.8,4-4,4H5c-2.2,0-4-1.8-4-4l0,0C1,37.3,2.8,35.5,5,35.5z"/>
		</defs>
		<clipPath id="SVGID_2_">
			<use xlink:href="#SVGID_1_"  style="overflow:visible;"/>
		</clipPath>
		<g class="st4">
			<line class="st5" x1="-43" y1="36.8" x2="28.4" y2="108.2"/>
			<line class="st5" x1="-40.6" y1="35.6" x2="30.8" y2="107"/>
			<line class="st5" x1="-38.2" y1="34.4" x2="33.2" y2="105.8"/>
			<line class="st5" x1="-35.8" y1="33.2" x2="35.6" y2="104.6"/>
			<line class="st5" x1="-33.4" y1="32" x2="38" y2="103.4"/>
			<line class="st5" x1="-31" y1="30.8" x2="40.4" y2="102.2"/>
			<line class="st5" x1="-28.6" y1="29.6" x2="42.8" y2="101"/>
			<line class="st5" x1="-26.2" y1="28.4" x2="45.2" y2="99.8"/>
			<line class="st5" x1="-23.8" y1="27.2" x2="47.6" y2="98.6"/>
			<line class="st5" x1="-21.4" y1="26" x2="50" y2="97.4"/>
			<line class="st5" x1="-19" y1="24.8" x2="52.4" y2="96.2"/>
			<line class="st5" x1="-16.6" y1="23.6" x2="54.8" y2="95"/>
			<line class="st5" x1="-14.2" y1="22.4" x2="57.2" y2="93.8"/>
			<line class="st5" x1="-11.8" y1="21.2" x2="59.6" y2="92.6"/>
			<line class="st5" x1="-9.4" y1="20" x2="62" y2="91.4"/>
			<line class="st5" x1="-7" y1="18.8" x2="64.4" y2="90.2"/>
			<line class="st5" x1="-4.6" y1="17.6" x2="66.8" y2="89"/>
			<line class="st5" x1="-2.2" y1="16.4" x2="69.2" y2="87.8"/>
			<line class="st5" x1="0.2" y1="15.2" x2="71.6" y2="86.6"/>
			<line class="st5" x1="2.6" y1="14" x2="74" y2="85.4"/>
			<line class="st5" x1="5" y1="12.8" x2="76.4" y2="84.2"/>
		</g>
	</g>
	<path class="st5" d="M5,35.5h6c2.2,0,4,1.8,4,4l0,0c0,2.2-1.8,4-4,4H5c-2.2,0-4-1.8-4-4l0,0C1,37.3,2.8,35.5,5,35.5z"/>
	<text transform="matrix(1 0 0 1 225.7 42.26)" class="st0 st1">Metropoli</text>
	<g>
		<defs>
			<path id="SVGID_3_" d="M207,35.5h6c2.2,0,4,1.8,4,4l0,0c0,2.2-1.8,4-4,4h-6c-2.2,0-4-1.8-4-4l0,0C203,37.3,204.8,35.5,207,35.5z"
				/>
		</defs>
		<clipPath id="SVGID_4_">
			<use xlink:href="#SVGID_3_"  style="overflow:visible;"/>
		</clipPath>
		<g class="st6">
			<line class="st7" x1="159" y1="36.8" x2="230.4" y2="108.2"/>
			<line class="st7" x1="161.4" y1="35.6" x2="232.8" y2="107"/>
			<line class="st7" x1="163.8" y1="34.4" x2="235.2" y2="105.8"/>
			<line class="st7" x1="166.2" y1="33.2" x2="237.6" y2="104.6"/>
			<line class="st7" x1="168.6" y1="32" x2="240" y2="103.4"/>
			<line class="st7" x1="171" y1="30.8" x2="242.4" y2="102.2"/>
			<line class="st7" x1="173.4" y1="29.6" x2="244.8" y2="101"/>
			<line class="st7" x1="175.8" y1="28.4" x2="247.2" y2="99.8"/>
			<line class="st7" x1="178.2" y1="27.2" x2="249.6" y2="98.6"/>
			<line class="st7" x1="180.6" y1="26" x2="252" y2="97.4"/>
			<line class="st7" x1="183" y1="24.8" x2="254.4" y2="96.2"/>
			<line class="st7" x1="185.4" y1="23.6" x2="256.8" y2="95"/>
			<line class="st7" x1="187.8" y1="22.4" x2="259.2" y2="93.8"/>
			<line class="st7" x1="190.2" y1="21.2" x2="261.6" y2="92.6"/>
			<line class="st7" x1="192.6" y1="20" x2="264" y2="91.4"/>
			<line class="st7" x1="195" y1="18.8" x2="266.4" y2="90.2"/>
			<line class="st7" x1="197.4" y1="17.6" x2="268.8" y2="89"/>
			<line class="st7" x1="199.8" y1="16.4" x2="271.2" y2="87.8"/>
			<line class="st7" x1="202.2" y1="15.2" x2="273.6" y2="86.6"/>
			<line class="st7" x1="204.6" y1="14" x2="276" y2="85.4"/>
			<line class="st7" x1="207" y1="12.8" x2="278.4" y2="84.2"/>
		</g>
	</g>
	<path class="st7" d="M207,35.5h6c2.2,0,4,1.8,4,4l0,0c0,2.2-1.8,4-4,4h-6c-2.2,0-4-1.8-4-4l0,0C203,37.3,204.8,35.5,207,35.5z"/>
	<text transform="matrix(1 0 0 1 225.7 62.59)" class="st0 st1">Ambiente urbano</text>
	<g>
		<defs>
			<path id="SVGID_5_" d="M207,55.8h6c2.2,0,4,1.8,4,4l0,0c0,2.2-1.8,4-4,4h-6c-2.2,0-4-1.8-4-4l0,0C203,57.6,204.8,55.8,207,55.8z"
				/>
		</defs>
		<clipPath id="SVGID_6_">
			<use xlink:href="#SVGID_5_"  style="overflow:visible;"/>
		</clipPath>
		<g class="st8">
			<line class="st9" x1="159" y1="57.2" x2="230.4" y2="128.6"/>
			<line class="st9" x1="161.4" y1="56" x2="232.8" y2="127.4"/>
			<line class="st9" x1="163.8" y1="54.8" x2="235.2" y2="126.2"/>
			<line class="st9" x1="166.2" y1="53.6" x2="237.6" y2="125"/>
			<line class="st9" x1="168.6" y1="52.4" x2="240" y2="123.8"/>
			<line class="st9" x1="171" y1="51.2" x2="242.4" y2="122.6"/>
			<line class="st9" x1="173.4" y1="50" x2="244.8" y2="121.4"/>
			<line class="st9" x1="175.8" y1="48.8" x2="247.2" y2="120.2"/>
			<line class="st9" x1="178.2" y1="47.6" x2="249.6" y2="119"/>
			<line class="st9" x1="180.6" y1="46.4" x2="252" y2="117.8"/>
			<line class="st9" x1="183" y1="45.2" x2="254.4" y2="116.6"/>
			<line class="st9" x1="185.4" y1="44" x2="256.8" y2="115.4"/>
			<line class="st9" x1="187.8" y1="42.8" x2="259.2" y2="114.2"/>
			<line class="st9" x1="190.2" y1="41.6" x2="261.6" y2="113"/>
			<line class="st9" x1="192.6" y1="40.4" x2="264" y2="111.8"/>
			<line class="st9" x1="195" y1="39.2" x2="266.4" y2="110.6"/>
			<line class="st9" x1="197.4" y1="38" x2="268.8" y2="109.4"/>
			<line class="st9" x1="199.8" y1="36.8" x2="271.2" y2="108.2"/>
			<line class="st9" x1="202.2" y1="35.6" x2="273.6" y2="107"/>
			<line class="st9" x1="204.6" y1="34.4" x2="276" y2="105.8"/>
			<line class="st9" x1="207" y1="33.2" x2="278.4" y2="104.6"/>
		</g>
	</g>
	<path class="st9" d="M207,55.8h6c2.2,0,4,1.8,4,4l0,0c0,2.2-1.8,4-4,4h-6c-2.2,0-4-1.8-4-4l0,0C203,57.6,204.8,55.8,207,55.8z"/>
	<text transform="matrix(1 0 0 1 225.7 82.93)" class="st0 st1">Paesaggio cosmico</text>
	<g>
		<defs>
			<path id="SVGID_7_" d="M207,76.2h6c2.2,0,4,1.8,4,4l0,0c0,2.2-1.8,4-4,4h-6c-2.2,0-4-1.8-4-4l0,0C203,78,204.8,76.2,207,76.2z"/>
		</defs>
		<clipPath id="SVGID_8_">
			<use xlink:href="#SVGID_7_"  style="overflow:visible;"/>
		</clipPath>
		<g class="st10">
			<line class="st11" x1="159" y1="77.5" x2="230.4" y2="148.9"/>
			<line class="st11" x1="161.4" y1="76.3" x2="232.8" y2="147.7"/>
			<line class="st11" x1="163.8" y1="75.1" x2="235.2" y2="146.5"/>
			<line class="st11" x1="166.2" y1="73.9" x2="237.6" y2="145.3"/>
			<line class="st11" x1="168.6" y1="72.7" x2="240" y2="144.1"/>
			<line class="st11" x1="171" y1="71.5" x2="242.4" y2="142.9"/>
			<line class="st11" x1="173.4" y1="70.3" x2="244.8" y2="141.7"/>
			<line class="st11" x1="175.8" y1="69.1" x2="247.2" y2="140.5"/>
			<line class="st11" x1="178.2" y1="67.9" x2="249.6" y2="139.3"/>
			<line class="st11" x1="180.6" y1="66.7" x2="252" y2="138.1"/>
			<line class="st11" x1="183" y1="65.5" x2="254.4" y2="136.9"/>
			<line class="st11" x1="185.4" y1="64.3" x2="256.8" y2="135.7"/>
			<line class="st11" x1="187.8" y1="63.1" x2="259.2" y2="134.5"/>
			<line class="st11" x1="190.2" y1="61.9" x2="261.6" y2="133.3"/>
			<line class="st11" x1="192.6" y1="60.7" x2="264" y2="132.1"/>
			<line class="st11" x1="195" y1="59.5" x2="266.4" y2="130.9"/>
			<line class="st11" x1="197.4" y1="58.3" x2="268.8" y2="129.7"/>
			<line class="st11" x1="199.8" y1="57.1" x2="271.2" y2="128.5"/>
			<line class="st11" x1="202.2" y1="55.9" x2="273.6" y2="127.3"/>
			<line class="st11" x1="204.6" y1="54.7" x2="276" y2="126.1"/>
			<line class="st11" x1="207" y1="53.5" x2="278.4" y2="124.9"/>
		</g>
	</g>
	<path class="st11" d="M207,76.2h6c2.2,0,4,1.8,4,4l0,0c0,2.2-1.8,4-4,4h-6c-2.2,0-4-1.8-4-4l0,0C203,78,204.8,76.2,207,76.2z"/>
	<text transform="matrix(1 0 0 1 225.7 103.26)" class="st0 st1">Assenza di contesto</text>
	<g>
		<defs>
			<path id="SVGID_9_" d="M207,96.5h6c2.2,0,4,1.8,4,4l0,0c0,2.2-1.8,4-4,4h-6c-2.2,0-4-1.8-4-4l0,0C203,98.3,204.8,96.5,207,96.5z"
				/>
		</defs>
		<clipPath id="SVGID_10_">
			<use xlink:href="#SVGID_9_"  style="overflow:visible;"/>
		</clipPath>
		<g class="st12">
			<line class="st13" x1="159" y1="97.8" x2="230.4" y2="169.2"/>
			<line class="st13" x1="161.4" y1="96.6" x2="232.8" y2="168"/>
			<line class="st13" x1="163.8" y1="95.4" x2="235.2" y2="166.8"/>
			<line class="st13" x1="166.2" y1="94.2" x2="237.6" y2="165.6"/>
			<line class="st13" x1="168.6" y1="93" x2="240" y2="164.4"/>
			<line class="st13" x1="171" y1="91.8" x2="242.4" y2="163.2"/>
			<line class="st13" x1="173.4" y1="90.6" x2="244.8" y2="162"/>
			<line class="st13" x1="175.8" y1="89.4" x2="247.2" y2="160.8"/>
			<line class="st13" x1="178.2" y1="88.2" x2="249.6" y2="159.6"/>
			<line class="st13" x1="180.6" y1="87" x2="252" y2="158.4"/>
			<line class="st13" x1="183" y1="85.8" x2="254.4" y2="157.2"/>
			<line class="st13" x1="185.4" y1="84.6" x2="256.8" y2="156"/>
			<line class="st13" x1="187.8" y1="83.4" x2="259.2" y2="154.8"/>
			<line class="st13" x1="190.2" y1="82.2" x2="261.6" y2="153.6"/>
			<line class="st13" x1="192.6" y1="81" x2="264" y2="152.4"/>
			<line class="st13" x1="195" y1="79.8" x2="266.4" y2="151.2"/>
			<line class="st13" x1="197.4" y1="78.6" x2="268.8" y2="150"/>
			<line class="st13" x1="199.8" y1="77.4" x2="271.2" y2="148.8"/>
			<line class="st13" x1="202.2" y1="76.2" x2="273.6" y2="147.6"/>
			<line class="st13" x1="204.6" y1="75" x2="276" y2="146.4"/>
			<line class="st13" x1="207" y1="73.8" x2="278.4" y2="145.2"/>
		</g>
	</g>
	<path class="st13" d="M207,96.5h6c2.2,0,4,1.8,4,4l0,0c0,2.2-1.8,4-4,4h-6c-2.2,0-4-1.8-4-4l0,0C203,98.3,204.8,96.5,207,96.5z"/>
	<path class="st14" d="M5,73.8c-1.9,0-3.5-1.6-3.5-3.5s1.6-3.5,3.5-3.5h6c1.9,0,3.5,1.6,3.5,3.5s-1.6,3.5-3.5,3.5H5z"/>
	<path class="st14" d="M11,67.3c1.7,0,3,1.3,3,3s-1.3,3-3,3H5c-1.7,0-3-1.3-3-3s1.3-3,3-3H11 M11,66.3H5c-2.2,0-4,1.8-4,4l0,0
		c0,2.2,1.8,4,4,4h6c2.2,0,4-1.8,4-4l0,0C15,68.1,13.2,66.3,11,66.3z"/>
	<text transform="matrix(1 0 0 1 21.7 73.09)" class="st0 st1">A</text>
	<text transform="matrix(1 0 0 1 26.79 73.09)" class="st0 st1">mbientazioni di </text>
	<text transform="matrix(1 0 0 1 83.35 73.09)" class="st0 st1">t</text>
	<text transform="matrix(1 0 0 1 85.85 73.09)" class="st0 st1">esti in </text>
	<text transform="matrix(1 0 0 1 108.96 73.09)" class="st0 st1">c</text>
	<text transform="matrix(1 0 0 1 112.99 73.09)" class="st0 st1">ui il </text>
	<text transform="matrix(1 0 0 1 127.71 73.09)" class="st0 st1">t</text>
	<text transform="matrix(1 0 0 1 130.22 73.09)" class="st0 st1">empo </text>
	<text transform="matrix(1 0 0 1 21.7 82.69)" class="st0 st1">della storia è collocato nel </text>
	<text transform="matrix(1 0 0 1 118.19 82.69)" class="st2 st1">passato</text>
	<path class="st15" d="M5.5,97.2h6c2.2,0,4,1.8,4,4l0,0c0,2.2-1.8,4-4,4h-6c-2.2,0-4-1.8-4-4l0,0C1.5,99,3.3,97.2,5.5,97.2z"/>
	<text transform="matrix(1 0 0 1 22.2 103.93)" class="st0 st1">A</text>
	<text transform="matrix(1 0 0 1 27.29 103.93)" class="st0 st1">mbientazioni di </text>
	<text transform="matrix(1 0 0 1 83.85 103.93)" class="st0 st1">t</text>
	<text transform="matrix(1 0 0 1 86.35 103.93)" class="st0 st1">esti in </text>
	<text transform="matrix(1 0 0 1 109.46 103.93)" class="st0 st1">c</text>
	<text transform="matrix(1 0 0 1 113.49 103.93)" class="st0 st1">ui presente </text>
	<text transform="matrix(1 0 0 1 22.2 113.53)" class="st0 st1">e passato si fondono in un testo </text>
	<text transform="matrix(1 0 0 1 138.13 113.53)" class="st2 st1">misto</text>
	<path class="st16" d="M5.5,128h6c2.2,0,4,1.8,4,4l0,0c0,2.2-1.8,4-4,4h-6c-2.2,0-4-1.8-4-4l0,0C1.5,129.8,3.3,128,5.5,128z"/>
	<text transform="matrix(1 0 0 1 22.2 134.76)" class="st0 st1">Luoghi scomparsi dalla narrazione</text>
	<circle class="st15" cx="346" cy="42.5" r="2.5"/>
	<circle class="st15" cx="346" cy="39.5" r="5.5"/>
	<text transform="matrix(1 0 0 1 -0.61 22.99)" class="st2 st3">TEMPO DELLA STORIA</text>
</g>
</svg>
