<svg xmlns="http://www.w3.org/2000/svg" xmlns:xlink="http://www.w3.org/1999/xlink" width="800" height="12" viewBox="0 0 800 12">
  <defs>
    <clipPath id="clip-legend_01">
      <rect width="800" height="12"/>
    </clipPath>
  </defs>
  <g id="legend_01" clip-path="url(#clip-legend_01)">
    <g id="Group_312" data-name="Group 312">
      <text id="Incipit" transform="translate(26 9)" font-size="10" font-family="HKGrotesk-Regular, HK Grotesk" style="isolation: isolate"><tspan x="0" y="0">Incipit</tspan></text>
      <path id="Path_47" data-name="Path 47" d="M5.559,0h9.882A5.3,5.3,0,0,1,21,5a5.3,5.3,0,0,1-5.559,5H5.559A5.3,5.3,0,0,1,0,5,5.3,5.3,0,0,1,5.559,0Z" transform="translate(0 1)" fill="#dcdcdc"/>
    </g>
    <text id="Storia_del_lettore" data-name="Storia del lettore" transform="translate(100 9)" font-size="10" font-family="HKGrotesk-Regular, HK Grotesk" style="isolation: isolate"><tspan x="0" y="0">Storia del lettore</tspan></text>
    <g id="Path_46" data-name="Path 46" transform="translate(74 1)" fill="#fffffa">
      <path d="M 15.44118022918701 9.75 L 5.558819770812988 9.75 C 2.631530046463013 9.75 0.25 7.619160175323486 0.25 5 C 0.25 2.380840063095093 2.631530046463013 0.25 5.558819770812988 0.25 L 15.44118022918701 0.25 C 18.36846923828125 0.25 20.75 2.380840063095093 20.75 5 C 20.75 7.619160175323486 18.36846923828125 9.75 15.44118022918701 9.75 Z" stroke="none"/>
      <path d="M 5.558819770812988 0.5 C 2.769380569458008 0.5 0.5 2.51869010925293 0.5 5 C 0.5 7.48130989074707 2.769380569458008 9.5 5.558819770812988 9.5 L 15.44118022918701 9.5 C 18.23061943054199 9.5 20.5 7.48130989074707 20.5 5 C 20.5 2.51869010925293 18.23061943054199 0.5 15.44118022918701 0.5 L 5.558819770812988 0.5 M 5.558819770812988 0 L 15.44118022918701 0 C 18.51123046875 0 21 2.238580226898193 21 5 C 21 7.761420249938965 18.51123046875 10 15.44118022918701 10 L 5.558819770812988 10 C 2.48876953125 10 0 7.761420249938965 0 5 C 0 2.238580226898193 2.48876953125 0 5.558819770812988 0 Z" stroke="none"/>
    </g>
    <text id="Parentesi_con_cambio_di_punto_di_vista" data-name="Parentesi con cambio di punto di vista" transform="translate(207.483 9)" font-size="10" font-family="HKGrotesk-Regular, HK Grotesk" style="isolation: isolate"><tspan x="0" y="0">Parentesi con cambio di punto di vista</tspan></text>
    <rect id="Rectangle_181" data-name="Rectangle 181" width="21" height="10" rx="5" transform="translate(181 1)" fill="#dbdbea"/>
  </g>
</svg>
