<?xml version="1.0" encoding="utf-8"?>
<!-- Generator: Adobe Illustrator 24.2.1, SVG Export Plug-In . SVG Version: 6.00 Build 0)  -->
<svg version="1.1" id="Layer_1" xmlns="http://www.w3.org/2000/svg" xmlns:xlink="http://www.w3.org/1999/xlink" x="0px" y="0px"
	 viewBox="0 0 460 106.1" style="enable-background:new 0 0 460 106.1;" xml:space="preserve">
<style type="text/css">
	.st0{font-family:'HKGrotesk-Light';}
	.st1{font-size:8px;}
	.st2{font-family:'HKGrotesk-Medium';}
	.st3{font-size:12px;}
	.st4{clip-path:url(#SVGID_2_);}
	.st5{fill:none;stroke:#4F4F4F;stroke-width:0.5;stroke-miterlimit:10;}
	.st6{clip-path:url(#SVGID_4_);}
	.st7{fill:none;stroke:#0D1B3A;stroke-width:0.25;stroke-miterlimit:10;}
	.st8{clip-path:url(#SVGID_6_);}
	.st9{fill:none;stroke:#00FFB6;stroke-width:0.5;stroke-miterlimit:10;}
	.st10{clip-path:url(#SVGID_8_);}
	.st11{fill:none;stroke:#D34709;stroke-width:0.5;stroke-miterlimit:10;}
	.st12{clip-path:url(#SVGID_10_);}
	.st13{fill:none;stroke:#C17B0C;stroke-width:0.5;stroke-miterlimit:10;}
	.st14{fill:#DBDBDB;}
	.st15{fill:none;stroke:#000000;stroke-width:0.25;stroke-miterlimit:10;}
</style>
<g id="Isolation_Mode">
	<text transform="matrix(1 0 0 1 363.7 43.01)" class="st0 st1">Numero di occorrenze</text>
	<text transform="matrix(1 0 0 1 0.39 22.99)" class="st2 st3">TEMPO</text>
	<text transform="matrix(1 0 0 1 45.3967 22.99)" class="st2 st3">DELLA STORIA</text>
	<text transform="matrix(1 0 0 1 203.39 22.99)" class="st2 st3">C</text>
	<text transform="matrix(1 0 0 1 211.96 22.99)" class="st2 st3">ONTE</text>
	<text transform="matrix(1 0 0 1 244.56 22.99)" class="st2 st3">S</text>
	<text transform="matrix(1 0 0 1 251.34 22.99)" class="st2 st3">TI</text>
	<text transform="matrix(1 0 0 1 340.89 23.99)" class="st2 st3">DIMENSIONE</text>
	<text transform="matrix(1 0 0 1 22.2 42.26)" class="st0 st1">A</text>
	<text transform="matrix(1 0 0 1 27.29 42.26)" class="st0 st1">mbientazioni di </text>
	<text transform="matrix(1 0 0 1 83.85 42.26)" class="st0 st1">t</text>
	<text transform="matrix(1 0 0 1 86.35 42.26)" class="st0 st1">esti in </text>
	<text transform="matrix(1 0 0 1 109.46 42.26)" class="st0 st1">c</text>
	<text transform="matrix(1 0 0 1 113.49 42.26)" class="st0 st1">ui il </text>
	<text transform="matrix(1 0 0 1 128.21 42.26)" class="st0 st1">t</text>
	<text transform="matrix(1 0 0 1 130.72 42.26)" class="st0 st1">empo</text>
	<text transform="matrix(1 0 0 1 22.2 51.86)" class="st0 st1">il tempo è collocato nella </text>
	<text transform="matrix(1 0 0 1 113.2 51.86)" class="st2 st1">contemporaneità</text>
	<g>
		<defs>
			<path id="SVGID_1_" d="M5.5,35.5h6c2.2,0,4,1.8,4,4l0,0c0,2.2-1.8,4-4,4h-6c-2.2,0-4-1.8-4-4l0,0C1.5,37.3,3.3,35.5,5.5,35.5z"/>
		</defs>
		<clipPath id="SVGID_2_">
			<use xlink:href="#SVGID_1_"  style="overflow:visible;"/>
		</clipPath>
		<g class="st4">
			<line class="st5" x1="-42.5" y1="36.8" x2="28.9" y2="108.2"/>
			<line class="st5" x1="-40.1" y1="35.6" x2="31.3" y2="107"/>
			<line class="st5" x1="-37.7" y1="34.4" x2="33.7" y2="105.8"/>
			<line class="st5" x1="-35.3" y1="33.2" x2="36.1" y2="104.6"/>
			<line class="st5" x1="-32.9" y1="32" x2="38.5" y2="103.4"/>
			<line class="st5" x1="-30.5" y1="30.8" x2="40.9" y2="102.2"/>
			<line class="st5" x1="-28.1" y1="29.6" x2="43.3" y2="101"/>
			<line class="st5" x1="-25.7" y1="28.4" x2="45.7" y2="99.8"/>
			<line class="st5" x1="-23.3" y1="27.2" x2="48.1" y2="98.6"/>
			<line class="st5" x1="-20.9" y1="26" x2="50.5" y2="97.4"/>
			<line class="st5" x1="-18.5" y1="24.8" x2="52.9" y2="96.2"/>
			<line class="st5" x1="-16.1" y1="23.6" x2="55.3" y2="95"/>
			<line class="st5" x1="-13.7" y1="22.4" x2="57.7" y2="93.8"/>
			<line class="st5" x1="-11.3" y1="21.2" x2="60.1" y2="92.6"/>
			<line class="st5" x1="-8.9" y1="20" x2="62.5" y2="91.4"/>
			<line class="st5" x1="-6.5" y1="18.8" x2="64.9" y2="90.2"/>
			<line class="st5" x1="-4.1" y1="17.6" x2="67.3" y2="89"/>
			<line class="st5" x1="-1.7" y1="16.4" x2="69.7" y2="87.8"/>
			<line class="st5" x1="0.7" y1="15.2" x2="72.1" y2="86.6"/>
			<line class="st5" x1="3.1" y1="14" x2="74.5" y2="85.4"/>
			<line class="st5" x1="5.5" y1="12.8" x2="76.9" y2="84.2"/>
		</g>
	</g>
	<path class="st5" d="M5.5,35.5h6c2.2,0,4,1.8,4,4l0,0c0,2.2-1.8,4-4,4h-6c-2.2,0-4-1.8-4-4l0,0C1.5,37.3,3.3,35.5,5.5,35.5z"/>
	<text transform="matrix(1 0 0 1 226.2 42.26)" class="st0 st1">Guerra</text>
	<g>
		<defs>
			<path id="SVGID_3_" d="M207.5,35.5h6c2.2,0,4,1.8,4,4l0,0c0,2.2-1.8,4-4,4h-6c-2.2,0-4-1.8-4-4l0,0
				C203.5,37.3,205.3,35.5,207.5,35.5z"/>
		</defs>
		<clipPath id="SVGID_4_">
			<use xlink:href="#SVGID_3_"  style="overflow:visible;"/>
		</clipPath>
		<g class="st6">
			<line class="st7" x1="159.5" y1="36.8" x2="230.9" y2="108.2"/>
			<line class="st7" x1="161.9" y1="35.6" x2="233.3" y2="107"/>
			<line class="st7" x1="164.3" y1="34.4" x2="235.7" y2="105.8"/>
			<line class="st7" x1="166.7" y1="33.2" x2="238.1" y2="104.6"/>
			<line class="st7" x1="169.1" y1="32" x2="240.5" y2="103.4"/>
			<line class="st7" x1="171.5" y1="30.8" x2="242.9" y2="102.2"/>
			<line class="st7" x1="173.9" y1="29.6" x2="245.3" y2="101"/>
			<line class="st7" x1="176.3" y1="28.4" x2="247.7" y2="99.8"/>
			<line class="st7" x1="178.7" y1="27.2" x2="250.1" y2="98.6"/>
			<line class="st7" x1="181.1" y1="26" x2="252.5" y2="97.4"/>
			<line class="st7" x1="183.5" y1="24.8" x2="254.9" y2="96.2"/>
			<line class="st7" x1="185.9" y1="23.6" x2="257.3" y2="95"/>
			<line class="st7" x1="188.3" y1="22.4" x2="259.7" y2="93.8"/>
			<line class="st7" x1="190.7" y1="21.2" x2="262.1" y2="92.6"/>
			<line class="st7" x1="193.1" y1="20" x2="264.5" y2="91.4"/>
			<line class="st7" x1="195.5" y1="18.8" x2="266.9" y2="90.2"/>
			<line class="st7" x1="197.9" y1="17.6" x2="269.3" y2="89"/>
			<line class="st7" x1="200.3" y1="16.4" x2="271.7" y2="87.8"/>
			<line class="st7" x1="202.7" y1="15.2" x2="274.1" y2="86.6"/>
			<line class="st7" x1="205.1" y1="14" x2="276.5" y2="85.4"/>
			<line class="st7" x1="207.5" y1="12.8" x2="278.9" y2="84.2"/>
		</g>
	</g>
	<path class="st7" d="M207.5,35.5h6c2.2,0,4,1.8,4,4l0,0c0,2.2-1.8,4-4,4h-6c-2.2,0-4-1.8-4-4l0,0C203.5,37.3,205.3,35.5,207.5,35.5
		z"/>
	<text transform="matrix(1 0 0 1 226.2 62.59)" class="st0 st1">Natura ligure</text>
	<g>
		<defs>
			<path id="SVGID_5_" d="M207.5,55.8h6c2.2,0,4,1.8,4,4l0,0c0,2.2-1.8,4-4,4h-6c-2.2,0-4-1.8-4-4l0,0
				C203.5,57.6,205.3,55.8,207.5,55.8z"/>
		</defs>
		<clipPath id="SVGID_6_">
			<use xlink:href="#SVGID_5_"  style="overflow:visible;"/>
		</clipPath>
		<g class="st8">
			<line class="st9" x1="159.5" y1="57.2" x2="230.9" y2="128.6"/>
			<line class="st9" x1="161.9" y1="56" x2="233.3" y2="127.4"/>
			<line class="st9" x1="164.3" y1="54.8" x2="235.7" y2="126.2"/>
			<line class="st9" x1="166.7" y1="53.6" x2="238.1" y2="125"/>
			<line class="st9" x1="169.1" y1="52.4" x2="240.5" y2="123.8"/>
			<line class="st9" x1="171.5" y1="51.2" x2="242.9" y2="122.6"/>
			<line class="st9" x1="173.9" y1="50" x2="245.3" y2="121.4"/>
			<line class="st9" x1="176.3" y1="48.8" x2="247.7" y2="120.2"/>
			<line class="st9" x1="178.7" y1="47.6" x2="250.1" y2="119"/>
			<line class="st9" x1="181.1" y1="46.4" x2="252.5" y2="117.8"/>
			<line class="st9" x1="183.5" y1="45.2" x2="254.9" y2="116.6"/>
			<line class="st9" x1="185.9" y1="44" x2="257.3" y2="115.4"/>
			<line class="st9" x1="188.3" y1="42.8" x2="259.7" y2="114.2"/>
			<line class="st9" x1="190.7" y1="41.6" x2="262.1" y2="113"/>
			<line class="st9" x1="193.1" y1="40.4" x2="264.5" y2="111.8"/>
			<line class="st9" x1="195.5" y1="39.2" x2="266.9" y2="110.6"/>
			<line class="st9" x1="197.9" y1="38" x2="269.3" y2="109.4"/>
			<line class="st9" x1="200.3" y1="36.8" x2="271.7" y2="108.2"/>
			<line class="st9" x1="202.7" y1="35.6" x2="274.1" y2="107"/>
			<line class="st9" x1="205.1" y1="34.4" x2="276.5" y2="105.8"/>
			<line class="st9" x1="207.5" y1="33.2" x2="278.9" y2="104.6"/>
		</g>
	</g>
	<path class="st9" d="M207.5,55.8h6c2.2,0,4,1.8,4,4l0,0c0,2.2-1.8,4-4,4h-6c-2.2,0-4-1.8-4-4l0,0C203.5,57.6,205.3,55.8,207.5,55.8
		z"/>
	<text transform="matrix(1 0 0 1 226.2 82.93)" class="st0 st1">Ambiente urbano</text>
	<g>
		<defs>
			<path id="SVGID_7_" d="M207.5,76.2h6c2.2,0,4,1.8,4,4l0,0c0,2.2-1.8,4-4,4h-6c-2.2,0-4-1.8-4-4l0,0
				C203.5,78,205.3,76.2,207.5,76.2z"/>
		</defs>
		<clipPath id="SVGID_8_">
			<use xlink:href="#SVGID_7_"  style="overflow:visible;"/>
		</clipPath>
		<g class="st10">
			<line class="st11" x1="159.5" y1="77.5" x2="230.9" y2="148.9"/>
			<line class="st11" x1="161.9" y1="76.3" x2="233.3" y2="147.7"/>
			<line class="st11" x1="164.3" y1="75.1" x2="235.7" y2="146.5"/>
			<line class="st11" x1="166.7" y1="73.9" x2="238.1" y2="145.3"/>
			<line class="st11" x1="169.1" y1="72.7" x2="240.5" y2="144.1"/>
			<line class="st11" x1="171.5" y1="71.5" x2="242.9" y2="142.9"/>
			<line class="st11" x1="173.9" y1="70.3" x2="245.3" y2="141.7"/>
			<line class="st11" x1="176.3" y1="69.1" x2="247.7" y2="140.5"/>
			<line class="st11" x1="178.7" y1="67.9" x2="250.1" y2="139.3"/>
			<line class="st11" x1="181.1" y1="66.7" x2="252.5" y2="138.1"/>
			<line class="st11" x1="183.5" y1="65.5" x2="254.9" y2="136.9"/>
			<line class="st11" x1="185.9" y1="64.3" x2="257.3" y2="135.7"/>
			<line class="st11" x1="188.3" y1="63.1" x2="259.7" y2="134.5"/>
			<line class="st11" x1="190.7" y1="61.9" x2="262.1" y2="133.3"/>
			<line class="st11" x1="193.1" y1="60.7" x2="264.5" y2="132.1"/>
			<line class="st11" x1="195.5" y1="59.5" x2="266.9" y2="130.9"/>
			<line class="st11" x1="197.9" y1="58.3" x2="269.3" y2="129.7"/>
			<line class="st11" x1="200.3" y1="57.1" x2="271.7" y2="128.5"/>
			<line class="st11" x1="202.7" y1="55.9" x2="274.1" y2="127.3"/>
			<line class="st11" x1="205.1" y1="54.7" x2="276.5" y2="126.1"/>
			<line class="st11" x1="207.5" y1="53.5" x2="278.9" y2="124.9"/>
		</g>
	</g>
	<path class="st11" d="M207.5,76.2h6c2.2,0,4,1.8,4,4l0,0c0,2.2-1.8,4-4,4h-6c-2.2,0-4-1.8-4-4l0,0C203.5,78,205.3,76.2,207.5,76.2z
		"/>
	<text transform="matrix(1 0 0 1 226.2 103.26)" class="st0 st1">Fabbrica</text>
	<g>
		<defs>
			<path id="SVGID_9_" d="M207.5,96.5h6c2.2,0,4,1.8,4,4l0,0c0,2.2-1.8,4-4,4h-6c-2.2,0-4-1.8-4-4l0,0
				C203.5,98.3,205.3,96.5,207.5,96.5z"/>
		</defs>
		<clipPath id="SVGID_10_">
			<use xlink:href="#SVGID_9_"  style="overflow:visible;"/>
		</clipPath>
		<g class="st12">
			<line class="st13" x1="159.5" y1="97.8" x2="230.9" y2="169.2"/>
			<line class="st13" x1="161.9" y1="96.6" x2="233.3" y2="168"/>
			<line class="st13" x1="164.3" y1="95.4" x2="235.7" y2="166.8"/>
			<line class="st13" x1="166.7" y1="94.2" x2="238.1" y2="165.6"/>
			<line class="st13" x1="169.1" y1="93" x2="240.5" y2="164.4"/>
			<line class="st13" x1="171.5" y1="91.8" x2="242.9" y2="163.2"/>
			<line class="st13" x1="173.9" y1="90.6" x2="245.3" y2="162"/>
			<line class="st13" x1="176.3" y1="89.4" x2="247.7" y2="160.8"/>
			<line class="st13" x1="178.7" y1="88.2" x2="250.1" y2="159.6"/>
			<line class="st13" x1="181.1" y1="87" x2="252.5" y2="158.4"/>
			<line class="st13" x1="183.5" y1="85.8" x2="254.9" y2="157.2"/>
			<line class="st13" x1="185.9" y1="84.6" x2="257.3" y2="156"/>
			<line class="st13" x1="188.3" y1="83.4" x2="259.7" y2="154.8"/>
			<line class="st13" x1="190.7" y1="82.2" x2="262.1" y2="153.6"/>
			<line class="st13" x1="193.1" y1="81" x2="264.5" y2="152.4"/>
			<line class="st13" x1="195.5" y1="79.8" x2="266.9" y2="151.2"/>
			<line class="st13" x1="197.9" y1="78.6" x2="269.3" y2="150"/>
			<line class="st13" x1="200.3" y1="77.4" x2="271.7" y2="148.8"/>
			<line class="st13" x1="202.7" y1="76.2" x2="274.1" y2="147.6"/>
			<line class="st13" x1="205.1" y1="75" x2="276.5" y2="146.4"/>
			<line class="st13" x1="207.5" y1="73.8" x2="278.9" y2="145.2"/>
		</g>
	</g>
	<path class="st13" d="M207.5,96.5h6c2.2,0,4,1.8,4,4l0,0c0,2.2-1.8,4-4,4h-6c-2.2,0-4-1.8-4-4l0,0
		C203.5,98.3,205.3,96.5,207.5,96.5z"/>
	<path class="st14" d="M5.5,73.8c-1.9,0-3.5-1.6-3.5-3.5s1.6-3.5,3.5-3.5h6c1.9,0,3.5,1.6,3.5,3.5s-1.6,3.5-3.5,3.5H5.5z"/>
	<path class="st14" d="M11.5,67.3c1.7,0,3,1.3,3,3s-1.3,3-3,3h-6c-1.7,0-3-1.3-3-3s1.3-3,3-3H11.5 M11.5,66.3h-6c-2.2,0-4,1.8-4,4
		s1.8,4,4,4h6c2.2,0,4-1.8,4-4S13.7,66.3,11.5,66.3z"/>
	<text transform="matrix(1 0 0 1 22.2 73.09)" class="st0 st1">A</text>
	<text transform="matrix(1 0 0 1 27.29 73.09)" class="st0 st1">mbientazioni di </text>
	<text transform="matrix(1 0 0 1 83.85 73.09)" class="st0 st1">t</text>
	<text transform="matrix(1 0 0 1 86.35 73.09)" class="st0 st1">esti in </text>
	<text transform="matrix(1 0 0 1 109.46 73.09)" class="st0 st1">c</text>
	<text transform="matrix(1 0 0 1 113.49 73.09)" class="st0 st1">ui il </text>
	<text transform="matrix(1 0 0 1 128.21 73.09)" class="st0 st1">t</text>
	<text transform="matrix(1 0 0 1 130.72 73.09)" class="st0 st1">empo </text>
	<text transform="matrix(1 0 0 1 22.2 82.69)" class="st0 st1">della storia è collocato nel </text>
	<text transform="matrix(1 0 0 1 118.69 82.69)" class="st2 st1">passato</text>
	<circle class="st15" cx="346.5" cy="42.5" r="2.5"/>
	<circle class="st15" cx="346.5" cy="39.5" r="5.5"/>
</g>
</svg>
