<svg xmlns="http://www.w3.org/2000/svg" xmlns:xlink="http://www.w3.org/1999/xlink" width="600" height="112" viewBox="0 0 600 112"><defs><clipPath id="a"><path d="M209.5,35.5h9c3.3,0,6,2.25,6,5h0c0,2.75-2.7,5-6,5h-9c-3.3,0-6-2.25-6-5h0C203.5,37.75,206.2,35.5,209.5,35.5Z" transform="translate(-203.5 -35.5)"/></clipPath><clipPath id="b"><path d="M209.5,55.8h9c3.3,0,6,2.25,6,5h0c0,2.75-2.7,5-6,5h-9c-3.3,0-6-2.25-6-5h0C203.5,58.05,206.2,55.8,209.5,55.8Z" transform="translate(-203.5 -55.8)"/></clipPath><clipPath id="c"><path d="M209.5,76.2h9c3.3,0,6,2.25,6,5h0c0,2.75-2.7,5-6,5h-9c-3.3,0-6-2.25-6-5h0C203.5,78.45,206.2,76.2,209.5,76.2Z" transform="translate(-203.5 -76.2)"/></clipPath><clipPath id="d"><path d="M209.5,96.5h9c3.3,0,6,2.25,6,5h0c0,2.75-2.7,5-6,5h-9c-3.3,0-6-2.25-6-5h0C203.5,98.75,206.2,96.5,209.5,96.5Z" transform="translate(-203.5 -96.5)"/></clipPath><clipPath id="g"><rect width="600" height="112"/></clipPath></defs><g id="f" clip-path="url(#g)"><text transform="translate(271.934 33.889)" font-size="10" font-family="HKGrotesk-Regular, HK Grotesk"><tspan x="0" y="0">Guerra</tspan></text><g transform="translate(242.703 26.322)" clip-path="url(#a)"><line x2="107.1" y2="89.25" transform="translate(-66 1.625)" fill="none" stroke="#0d1b3a" stroke-miterlimit="10" stroke-width="0.25"/><line x2="107.1" y2="89.25" transform="translate(-62.4 0.125)" fill="none" stroke="#0d1b3a" stroke-miterlimit="10" stroke-width="0.25"/><line x2="107.1" y2="89.25" transform="translate(-58.8 -1.375)" fill="none" stroke="#0d1b3a" stroke-miterlimit="10" stroke-width="0.25"/><line x2="107.1" y2="89.25" transform="translate(-55.2 -2.875)" fill="none" stroke="#0d1b3a" stroke-miterlimit="10" stroke-width="0.25"/><line x2="107.1" y2="89.25" transform="translate(-51.6 -4.375)" fill="none" stroke="#0d1b3a" stroke-miterlimit="10" stroke-width="0.25"/><line x2="107.1" y2="89.25" transform="translate(-48 -5.875)" fill="none" stroke="#0d1b3a" stroke-miterlimit="10" stroke-width="0.25"/><line x2="107.1" y2="89.25" transform="translate(-44.4 -7.375)" fill="none" stroke="#0d1b3a" stroke-miterlimit="10" stroke-width="0.25"/><line x2="107.1" y2="89.25" transform="translate(-40.8 -8.875)" fill="none" stroke="#0d1b3a" stroke-miterlimit="10" stroke-width="0.25"/><line x2="107.1" y2="89.25" transform="translate(-37.2 -10.375)" fill="none" stroke="#0d1b3a" stroke-miterlimit="10" stroke-width="0.25"/><line x2="107.1" y2="89.25" transform="translate(-33.6 -11.875)" fill="none" stroke="#0d1b3a" stroke-miterlimit="10" stroke-width="0.25"/><line x2="107.1" y2="89.25" transform="translate(-30 -13.375)" fill="none" stroke="#0d1b3a" stroke-miterlimit="10" stroke-width="0.25"/><line x2="107.1" y2="89.25" transform="translate(-26.4 -14.875)" fill="none" stroke="#0d1b3a" stroke-miterlimit="10" stroke-width="0.25"/><line x2="107.1" y2="89.25" transform="translate(-22.8 -16.375)" fill="none" stroke="#0d1b3a" stroke-miterlimit="10" stroke-width="0.25"/><line x2="107.1" y2="89.25" transform="translate(-19.2 -17.875)" fill="none" stroke="#0d1b3a" stroke-miterlimit="10" stroke-width="0.25"/><line x2="107.1" y2="89.25" transform="translate(-15.6 -19.375)" fill="none" stroke="#0d1b3a" stroke-miterlimit="10" stroke-width="0.25"/><line x2="107.1" y2="89.25" transform="translate(-12 -20.875)" fill="none" stroke="#0d1b3a" stroke-miterlimit="10" stroke-width="0.25"/><line x2="107.1" y2="89.25" transform="translate(-8.4 -22.375)" fill="none" stroke="#0d1b3a" stroke-miterlimit="10" stroke-width="0.25"/><line x2="107.1" y2="89.25" transform="translate(-4.8 -23.875)" fill="none" stroke="#0d1b3a" stroke-miterlimit="10" stroke-width="0.25"/><line x2="107.1" y2="89.25" transform="translate(-1.2 -25.375)" fill="none" stroke="#0d1b3a" stroke-miterlimit="10" stroke-width="0.25"/><line x2="107.1" y2="89.25" transform="translate(2.4 -26.875)" fill="none" stroke="#0d1b3a" stroke-miterlimit="10" stroke-width="0.25"/><line x2="107.1" y2="89.25" transform="translate(6 -28.375)" fill="none" stroke="#0d1b3a" stroke-miterlimit="10" stroke-width="0.25"/></g><path d="M209.5,35.5h9c3.3,0,6,2.25,6,5h0c0,2.75-2.7,5-6,5h-9c-3.3,0-6-2.25-6-5h0C203.5,37.75,206.2,35.5,209.5,35.5Z" transform="translate(39.203 -9.178)" fill="none" stroke="#0d1b3a" stroke-miterlimit="10" stroke-width="0.25"/><text transform="translate(271.934 57.382)" font-size="10" font-family="HKGrotesk-Regular, HK Grotesk"><tspan x="0" y="0">Natura ligure</tspan></text><g transform="translate(242.703 49.78)" clip-path="url(#b)"><line x2="107.1" y2="89.25" transform="translate(-66 1.75)" fill="none" stroke="#00ffb6" stroke-miterlimit="10" stroke-width="0.5"/><line x2="107.1" y2="89.25" transform="translate(-62.4 0.25)" fill="none" stroke="#00ffb6" stroke-miterlimit="10" stroke-width="0.5"/><line x2="107.1" y2="89.25" transform="translate(-58.8 -1.25)" fill="none" stroke="#00ffb6" stroke-miterlimit="10" stroke-width="0.5"/><line x2="107.1" y2="89.25" transform="translate(-55.2 -2.75)" fill="none" stroke="#00ffb6" stroke-miterlimit="10" stroke-width="0.5"/><line x2="107.1" y2="89.25" transform="translate(-51.6 -4.25)" fill="none" stroke="#00ffb6" stroke-miterlimit="10" stroke-width="0.5"/><line x2="107.1" y2="89.25" transform="translate(-48 -5.75)" fill="none" stroke="#00ffb6" stroke-miterlimit="10" stroke-width="0.5"/><line x2="107.1" y2="89.25" transform="translate(-44.4 -7.25)" fill="none" stroke="#00ffb6" stroke-miterlimit="10" stroke-width="0.5"/><line x2="107.1" y2="89.25" transform="translate(-40.8 -8.75)" fill="none" stroke="#00ffb6" stroke-miterlimit="10" stroke-width="0.5"/><line x2="107.1" y2="89.25" transform="translate(-37.2 -10.25)" fill="none" stroke="#00ffb6" stroke-miterlimit="10" stroke-width="0.5"/><line x2="107.1" y2="89.25" transform="translate(-33.6 -11.75)" fill="none" stroke="#00ffb6" stroke-miterlimit="10" stroke-width="0.5"/><line x2="107.1" y2="89.25" transform="translate(-30 -13.25)" fill="none" stroke="#00ffb6" stroke-miterlimit="10" stroke-width="0.5"/><line x2="107.1" y2="89.25" transform="translate(-26.4 -14.75)" fill="none" stroke="#00ffb6" stroke-miterlimit="10" stroke-width="0.5"/><line x2="107.1" y2="89.25" transform="translate(-22.8 -16.25)" fill="none" stroke="#00ffb6" stroke-miterlimit="10" stroke-width="0.5"/><line x2="107.1" y2="89.25" transform="translate(-19.2 -17.75)" fill="none" stroke="#00ffb6" stroke-miterlimit="10" stroke-width="0.5"/><line x2="107.1" y2="89.25" transform="translate(-15.6 -19.25)" fill="none" stroke="#00ffb6" stroke-miterlimit="10" stroke-width="0.5"/><line x2="107.1" y2="89.25" transform="translate(-12 -20.75)" fill="none" stroke="#00ffb6" stroke-miterlimit="10" stroke-width="0.5"/><line x2="107.1" y2="89.25" transform="translate(-8.4 -22.25)" fill="none" stroke="#00ffb6" stroke-miterlimit="10" stroke-width="0.5"/><line x2="107.1" y2="89.25" transform="translate(-4.8 -23.75)" fill="none" stroke="#00ffb6" stroke-miterlimit="10" stroke-width="0.5"/><line x2="107.1" y2="89.25" transform="translate(-1.2 -25.25)" fill="none" stroke="#00ffb6" stroke-miterlimit="10" stroke-width="0.5"/><line x2="107.1" y2="89.25" transform="translate(2.4 -26.75)" fill="none" stroke="#00ffb6" stroke-miterlimit="10" stroke-width="0.5"/><line x2="107.1" y2="89.25" transform="translate(6 -28.25)" fill="none" stroke="#00ffb6" stroke-miterlimit="10" stroke-width="0.5"/></g><path d="M209.5,55.8h9c3.3,0,6,2.25,6,5h0c0,2.75-2.7,5-6,5h-9c-3.3,0-6-2.25-6-5h0C203.5,58.05,206.2,55.8,209.5,55.8Z" transform="translate(39.203 -6.02)" fill="none" stroke="#00ffb6" stroke-miterlimit="10" stroke-width="0.5"/><text transform="translate(271.934 80.886)" font-size="10" font-family="HKGrotesk-Regular, HK Grotesk"><tspan x="0" y="0">Paesaggio urbano</tspan></text><g transform="translate(242.703 73.353)" clip-path="url(#c)"><line x2="107.1" y2="89.25" transform="translate(-66 1.625)" fill="none" stroke="#d34709" stroke-miterlimit="10" stroke-width="0.5"/><line x2="107.1" y2="89.25" transform="translate(-62.4 0.125)" fill="none" stroke="#d34709" stroke-miterlimit="10" stroke-width="0.5"/><line x2="107.1" y2="89.25" transform="translate(-58.8 -1.375)" fill="none" stroke="#d34709" stroke-miterlimit="10" stroke-width="0.5"/><line x2="107.1" y2="89.25" transform="translate(-55.2 -2.875)" fill="none" stroke="#d34709" stroke-miterlimit="10" stroke-width="0.5"/><line x2="107.1" y2="89.25" transform="translate(-51.6 -4.375)" fill="none" stroke="#d34709" stroke-miterlimit="10" stroke-width="0.5"/><line x2="107.1" y2="89.25" transform="translate(-48 -5.875)" fill="none" stroke="#d34709" stroke-miterlimit="10" stroke-width="0.5"/><line x2="107.1" y2="89.25" transform="translate(-44.4 -7.375)" fill="none" stroke="#d34709" stroke-miterlimit="10" stroke-width="0.5"/><line x2="107.1" y2="89.25" transform="translate(-40.8 -8.875)" fill="none" stroke="#d34709" stroke-miterlimit="10" stroke-width="0.5"/><line x2="107.1" y2="89.25" transform="translate(-37.2 -10.375)" fill="none" stroke="#d34709" stroke-miterlimit="10" stroke-width="0.5"/><line x2="107.1" y2="89.25" transform="translate(-33.6 -11.875)" fill="none" stroke="#d34709" stroke-miterlimit="10" stroke-width="0.5"/><line x2="107.1" y2="89.25" transform="translate(-30 -13.375)" fill="none" stroke="#d34709" stroke-miterlimit="10" stroke-width="0.5"/><line x2="107.1" y2="89.25" transform="translate(-26.4 -14.875)" fill="none" stroke="#d34709" stroke-miterlimit="10" stroke-width="0.5"/><line x2="107.1" y2="89.25" transform="translate(-22.8 -16.375)" fill="none" stroke="#d34709" stroke-miterlimit="10" stroke-width="0.5"/><line x2="107.1" y2="89.25" transform="translate(-19.2 -17.875)" fill="none" stroke="#d34709" stroke-miterlimit="10" stroke-width="0.5"/><line x2="107.1" y2="89.25" transform="translate(-15.6 -19.375)" fill="none" stroke="#d34709" stroke-miterlimit="10" stroke-width="0.5"/><line x2="107.1" y2="89.25" transform="translate(-12 -20.875)" fill="none" stroke="#d34709" stroke-miterlimit="10" stroke-width="0.5"/><line x2="107.1" y2="89.25" transform="translate(-8.4 -22.375)" fill="none" stroke="#d34709" stroke-miterlimit="10" stroke-width="0.5"/><line x2="107.1" y2="89.25" transform="translate(-4.8 -23.875)" fill="none" stroke="#d34709" stroke-miterlimit="10" stroke-width="0.5"/><line x2="107.1" y2="89.25" transform="translate(-1.2 -25.375)" fill="none" stroke="#d34709" stroke-miterlimit="10" stroke-width="0.5"/><line x2="107.1" y2="89.25" transform="translate(2.4 -26.875)" fill="none" stroke="#d34709" stroke-miterlimit="10" stroke-width="0.5"/><line x2="107.1" y2="89.25" transform="translate(6 -28.375)" fill="none" stroke="#d34709" stroke-miterlimit="10" stroke-width="0.5"/></g><path d="M209.5,76.2h9c3.3,0,6,2.25,6,5h0c0,2.75-2.7,5-6,5h-9c-3.3,0-6-2.25-6-5h0C203.5,78.45,206.2,76.2,209.5,76.2Z" transform="translate(39.203 -2.847)" fill="none" stroke="#d34709" stroke-miterlimit="10" stroke-width="0.5"/><text transform="translate(271.934 104.378)" font-size="10" font-family="HKGrotesk-Regular, HK Grotesk"><tspan x="0" y="0">Fabbrica</tspan></text><g transform="translate(242.703 96.811)" clip-path="url(#d)"><line x2="107.1" y2="89.25" transform="translate(-66 1.625)" fill="none" stroke="#c17b0c" stroke-miterlimit="10" stroke-width="0.5"/><line x2="107.1" y2="89.25" transform="translate(-62.4 0.125)" fill="none" stroke="#c17b0c" stroke-miterlimit="10" stroke-width="0.5"/><line x2="107.1" y2="89.25" transform="translate(-58.8 -1.375)" fill="none" stroke="#c17b0c" stroke-miterlimit="10" stroke-width="0.5"/><line x2="107.1" y2="89.25" transform="translate(-55.2 -2.875)" fill="none" stroke="#c17b0c" stroke-miterlimit="10" stroke-width="0.5"/><line x2="107.1" y2="89.25" transform="translate(-51.6 -4.375)" fill="none" stroke="#c17b0c" stroke-miterlimit="10" stroke-width="0.5"/><line x2="107.1" y2="89.25" transform="translate(-48 -5.875)" fill="none" stroke="#c17b0c" stroke-miterlimit="10" stroke-width="0.5"/><line x2="107.1" y2="89.25" transform="translate(-44.4 -7.375)" fill="none" stroke="#c17b0c" stroke-miterlimit="10" stroke-width="0.5"/><line x2="107.1" y2="89.25" transform="translate(-40.8 -8.875)" fill="none" stroke="#c17b0c" stroke-miterlimit="10" stroke-width="0.5"/><line x2="107.1" y2="89.25" transform="translate(-37.2 -10.375)" fill="none" stroke="#c17b0c" stroke-miterlimit="10" stroke-width="0.5"/><line x2="107.1" y2="89.25" transform="translate(-33.6 -11.875)" fill="none" stroke="#c17b0c" stroke-miterlimit="10" stroke-width="0.5"/><line x2="107.1" y2="89.25" transform="translate(-30 -13.375)" fill="none" stroke="#c17b0c" stroke-miterlimit="10" stroke-width="0.5"/><line x2="107.1" y2="89.25" transform="translate(-26.4 -14.875)" fill="none" stroke="#c17b0c" stroke-miterlimit="10" stroke-width="0.5"/><line x2="107.1" y2="89.25" transform="translate(-22.8 -16.375)" fill="none" stroke="#c17b0c" stroke-miterlimit="10" stroke-width="0.5"/><line x2="107.1" y2="89.25" transform="translate(-19.2 -17.875)" fill="none" stroke="#c17b0c" stroke-miterlimit="10" stroke-width="0.5"/><line x2="107.1" y2="89.25" transform="translate(-15.6 -19.375)" fill="none" stroke="#c17b0c" stroke-miterlimit="10" stroke-width="0.5"/><line x2="107.1" y2="89.25" transform="translate(-12 -20.875)" fill="none" stroke="#c17b0c" stroke-miterlimit="10" stroke-width="0.5"/><line x2="107.1" y2="89.25" transform="translate(-8.4 -22.375)" fill="none" stroke="#c17b0c" stroke-miterlimit="10" stroke-width="0.5"/><line x2="107.1" y2="89.25" transform="translate(-4.8 -23.875)" fill="none" stroke="#c17b0c" stroke-miterlimit="10" stroke-width="0.5"/><line x2="107.1" y2="89.25" transform="translate(-1.2 -25.375)" fill="none" stroke="#c17b0c" stroke-miterlimit="10" stroke-width="0.5"/><line x2="107.1" y2="89.25" transform="translate(2.4 -26.875)" fill="none" stroke="#c17b0c" stroke-miterlimit="10" stroke-width="0.5"/><line x2="107.1" y2="89.25" transform="translate(6 -28.375)" fill="none" stroke="#c17b0c" stroke-miterlimit="10" stroke-width="0.5"/></g><path d="M209.5,96.5h9c3.3,0,6,2.25,6,5h0c0,2.75-2.7,5-6,5h-9c-3.3,0-6-2.25-6-5h0C203.5,98.75,206.2,96.5,209.5,96.5Z" transform="translate(39.203 0.311)" fill="none" stroke="#c17b0c" stroke-miterlimit="10" stroke-width="0.5"/><text transform="translate(414.823 34.756)" font-size="9" font-family="HKGrotesk-Regular, HK Grotesk"><tspan x="0" y="0">Numero di occorrenze</tspan></text><circle cx="2.889" cy="2.889" r="2.889" transform="translate(397.058 31.522)" fill="none" stroke="#000" stroke-miterlimit="10" stroke-width="0.25"/><circle cx="6.356" cy="6.356" r="6.356" transform="translate(393.592 24.589)" fill="none" stroke="#000" stroke-miterlimit="10" stroke-width="0.25"/><text transform="translate(30 25)" font-size="10" font-family="HKGrotesk-Regular, HK Grotesk"><tspan x="0" y="9">Ambientazioni di testi in cui il tempo</tspan><tspan x="0" y="21">della storia è collocato in un </tspan><tspan y="21" font-family="HKGrotesk-Medium, HK Grotesk" font-weight="500">tempo indefinito </tspan></text><text transform="translate(30 61)" font-size="10" font-family="HKGrotesk-Regular, HK Grotesk"><tspan x="0" y="9">Ambientazioni di testi in cui il tempo</tspan><tspan x="0" y="21">della storia è collocato nel </tspan><tspan y="21" font-family="HKGrotesk-MediumLegacy, HK Grotesk" font-weight="500">passato</tspan></text><text transform="translate(0.452 12)" font-size="12" font-family="HKGrotesk-Medium, HK Grotesk" font-weight="500"><tspan x="0" y="0">TEMPO DELLA STORIA</tspan></text><text transform="translate(243.086 12)" font-size="12" font-family="HKGrotesk-Medium, HK Grotesk" font-weight="500"><tspan x="0" y="0">CONTESTI</tspan></text><text transform="translate(391.086 12)" font-size="12" font-family="HKGrotesk-Medium, HK Grotesk" font-weight="500"><tspan x="0" y="0">DIMENSIONE</tspan></text><path d="M7.654,76.8C4.585,76.8,2,74.514,2,71.8s2.585-5,5.654-5h9.692c3.069,0,5.654,2.286,5.654,5s-2.585,5-5.654,5Z" transform="translate(-1 -5.309)" fill="#dbdbdb"/><g transform="translate(0.703 26.322)" clip-path="url(#a)"><line x2="107.1" y2="89.25" transform="translate(-66 1.625)" fill="none" stroke="#0d1b3a" stroke-miterlimit="10" stroke-width="0.25"/><line x2="107.1" y2="89.25" transform="translate(-62.4 0.125)" fill="none" stroke="#0d1b3a" stroke-miterlimit="10" stroke-width="0.25"/><line x2="107.1" y2="89.25" transform="translate(-58.8 -1.375)" fill="none" stroke="#0d1b3a" stroke-miterlimit="10" stroke-width="0.25"/><line x2="107.1" y2="89.25" transform="translate(-55.2 -2.875)" fill="none" stroke="#0d1b3a" stroke-miterlimit="10" stroke-width="0.25"/><line x2="107.1" y2="89.25" transform="translate(-51.6 -4.375)" fill="none" stroke="#0d1b3a" stroke-miterlimit="10" stroke-width="0.25"/><line x2="107.1" y2="89.25" transform="translate(-48 -5.875)" fill="none" stroke="#0d1b3a" stroke-miterlimit="10" stroke-width="0.25"/><line x2="107.1" y2="89.25" transform="translate(-44.4 -7.375)" fill="none" stroke="#0d1b3a" stroke-miterlimit="10" stroke-width="0.25"/><line x2="107.1" y2="89.25" transform="translate(-40.8 -8.875)" fill="none" stroke="#0d1b3a" stroke-miterlimit="10" stroke-width="0.25"/><line x2="107.1" y2="89.25" transform="translate(-37.2 -10.375)" fill="none" stroke="#0d1b3a" stroke-miterlimit="10" stroke-width="0.25"/><line x2="107.1" y2="89.25" transform="translate(-33.6 -11.875)" fill="none" stroke="#0d1b3a" stroke-miterlimit="10" stroke-width="0.25"/><line x2="107.1" y2="89.25" transform="translate(-30 -13.375)" fill="none" stroke="#0d1b3a" stroke-miterlimit="10" stroke-width="0.25"/><line x2="107.1" y2="89.25" transform="translate(-26.4 -14.875)" fill="none" stroke="#0d1b3a" stroke-miterlimit="10" stroke-width="0.25"/><line x2="107.1" y2="89.25" transform="translate(-22.8 -16.375)" fill="none" stroke="#0d1b3a" stroke-miterlimit="10" stroke-width="0.25"/><line x2="107.1" y2="89.25" transform="translate(-19.2 -17.875)" fill="none" stroke="#0d1b3a" stroke-miterlimit="10" stroke-width="0.25"/><line x2="107.1" y2="89.25" transform="translate(-15.6 -19.375)" fill="none" stroke="#0d1b3a" stroke-miterlimit="10" stroke-width="0.25"/><line x2="107.1" y2="89.25" transform="translate(-12 -20.875)" fill="none" stroke="#0d1b3a" stroke-miterlimit="10" stroke-width="0.25"/><line x2="107.1" y2="89.25" transform="translate(-8.4 -22.375)" fill="none" stroke="#0d1b3a" stroke-miterlimit="10" stroke-width="0.25"/><line x2="107.1" y2="89.25" transform="translate(-4.8 -23.875)" fill="none" stroke="#0d1b3a" stroke-miterlimit="10" stroke-width="0.25"/><line x2="107.1" y2="89.25" transform="translate(-1.2 -25.375)" fill="none" stroke="#0d1b3a" stroke-miterlimit="10" stroke-width="0.25"/><line x2="107.1" y2="89.25" transform="translate(2.4 -26.875)" fill="none" stroke="#0d1b3a" stroke-miterlimit="10" stroke-width="0.25"/><line x2="107.1" y2="89.25" transform="translate(6 -28.375)" fill="none" stroke="#0d1b3a" stroke-miterlimit="10" stroke-width="0.25"/></g><path d="M209.5,35.5h9c3.3,0,6,2.25,6,5h0c0,2.75-2.7,5-6,5h-9c-3.3,0-6-2.25-6-5h0C203.5,37.75,206.2,35.5,209.5,35.5Z" transform="translate(-202.797 -9.178)" fill="none" stroke="#0d1b3a" stroke-miterlimit="10" stroke-width="0.25"/></g></svg>