<?xml version="1.0" encoding="utf-8"?>
<!-- Generator: Adobe Illustrator 24.3.0, SVG Export Plug-In . SVG Version: 6.00 Build 0)  -->
<svg version="1.1" id="Layer_1" xmlns="http://www.w3.org/2000/svg" xmlns:xlink="http://www.w3.org/1999/xlink" x="0px" y="0px"
	 width="600px" height="157px" viewBox="0 0 600 157" style="enable-background:new 0 0 600 157;" xml:space="preserve">
<style type="text/css">
	.st0{clip-path:url(#SVGID_2_);}
	.st1{clip-path:url(#SVGID_4_);}
	.st2{fill:none;stroke:#FF3366;stroke-width:0.5;stroke-miterlimit:10;}
	.st3{clip-path:url(#SVGID_6_);}
	.st4{fill:none;stroke:#8131F4;stroke-width:0.5;stroke-miterlimit:10;}
	.st5{clip-path:url(#SVGID_8_);}
	.st6{fill:none;stroke:#0505C4;stroke-width:0.5;stroke-miterlimit:10;}
	.st7{fill:none;stroke:#000000;stroke-width:0.25;stroke-miterlimit:10;}
	.st8{fill:none;stroke:#FF0000;stroke-width:0.5;stroke-miterlimit:10;stroke-dasharray:2,2;}
	.st9{fill:#DBDBDB;}
	.st10{clip-path:url(#SVGID_10_);}
	.st11{fill:none;stroke:#0D1B3A;stroke-width:0.25;stroke-miterlimit:10;}
</style>
<g>
	<defs>
		<rect id="SVGID_1_" y="0" width="600" height="157"/>
	</defs>
	<clipPath id="SVGID_2_">
		<use xlink:href="#SVGID_1_"  style="overflow:visible;"/>
	</clipPath>
	<g id="legenda_04" class="st0">
		<path id="Path_161698" d="M299.2,34.9h0.7v-5.6l1.9,5.1h0.8l1.9-5.1v5.6h0.7v-6.2H304l-1.8,5l-1.8-5h-1.1V34.9z M308.4,34.9
			c0.6,0,1.2-0.2,1.7-0.7l-0.4-0.4c-0.3,0.3-0.8,0.5-1.2,0.5c-0.7,0-1.3-0.6-1.3-1.3c0-0.1,0-0.1,0-0.2h3.1c0-0.1,0-0.2,0-0.3
			c0-1-0.4-2.1-1.9-2.1c-1.1,0.1-2,1-1.9,2.1c0,0.1,0,0.1,0,0.2c-0.1,1.1,0.6,2.1,1.7,2.2C308.2,34.9,308.3,34.9,308.4,34.9z
			 M307.1,32.4c0-0.7,0.4-1.4,1.2-1.4c0.9,0,1.2,0.7,1.2,1.4H307.1z M312.6,35c0.2,0,0.4,0,0.6-0.1v-0.6c-0.1,0.1-0.3,0.1-0.4,0.1
			c-0.3,0-0.6-0.2-0.6-0.7V31h1.1v-0.5h-1.1v-1.6l-0.7,0.6v1h-0.7V31h0.7v2.7C311.5,34.5,311.8,35,312.6,35L312.6,35z M314.2,34.9
			h0.6v-2.2c0-1.1,0.5-1.7,1.2-1.7c0.2,0,0.4,0,0.5,0.2l0.3-0.6c-0.2-0.2-0.5-0.2-0.7-0.2c-0.6,0-1.1,0.3-1.3,0.9v-0.8h-0.7
			L314.2,34.9z M319.1,35c1.2,0,2.1-1,2.1-2.2c0,0,0-0.1,0-0.1c0.1-1.2-0.8-2.2-2-2.3c0,0-0.1,0-0.1,0c-1.2,0-2.1,1-2.1,2.2
			c0,0,0,0.1,0,0.1C316.9,33.8,317.8,34.9,319.1,35C319,35,319,35,319.1,35L319.1,35z M319.1,34.4c-1,0-1.4-0.9-1.4-1.7
			s0.4-1.7,1.4-1.7c1,0,1.4,0.9,1.4,1.7C320.5,33.5,320,34.4,319.1,34.4L319.1,34.4z M322.3,36.8h0.7v-2.5c0.3,0.4,0.8,0.7,1.3,0.7
			c1.2,0,1.8-1,1.8-2.3c0-1.2-0.6-2.3-1.8-2.3c-0.5,0-1,0.2-1.3,0.7v-0.6h-0.7L322.3,36.8z M324.1,34.4c-0.9,0-1.3-0.8-1.3-1.7
			s0.4-1.7,1.3-1.7s1.3,0.8,1.3,1.7C325.4,33.6,325,34.4,324.1,34.4z M328.9,35c1.2,0,2.1-1,2.1-2.2c0,0,0-0.1,0-0.1
			c0.1-1.2-0.8-2.2-2-2.3c0,0-0.1,0-0.1,0c-1.2,0-2.1,1-2.1,2.2c0,0,0,0.1,0,0.1C326.8,33.8,327.7,34.9,328.9,35
			C328.9,35,328.9,35,328.9,35L328.9,35z M328.9,34.4c-1,0-1.4-0.9-1.4-1.7s0.4-1.7,1.4-1.7c1,0,1.4,0.9,1.4,1.7
			C330.4,33.5,329.9,34.4,328.9,34.4L328.9,34.4z M333,34.4c-0.2,0-0.2-0.2-0.2-0.2v-5.5h-0.7V34c0,0.5,0,1,0.7,1
			c0.2,0,0.4,0,0.6-0.1v-0.5C333.3,34.4,333.1,34.4,333,34.4L333,34.4z M334.4,29.5h0.7v-0.8h-0.7V29.5z M334.4,34.9h0.7v-4.4h-0.7
			V34.9z"/>
		<g>
			<defs>
				<path id="SVGID_3_" d="M275.1,28.3h9c3.3,0,6,2.2,6,5l0,0c0,2.8-2.7,5-6,5h-9c-3.3,0-6-2.2-6-5l0,0
					C269.1,30.5,271.8,28.3,275.1,28.3z"/>
			</defs>
			<clipPath id="SVGID_4_">
				<use xlink:href="#SVGID_3_"  style="overflow:visible;"/>
			</clipPath>
			<g id="Group_24045" transform="translate(269.086 28.299)" class="st1">
				<line id="Line_7689" class="st2" x1="-66" y1="1.6" x2="41.1" y2="90.9"/>
				<line id="Line_7690" class="st2" x1="-62.4" y1="0.1" x2="44.7" y2="89.4"/>
				<line id="Line_7691" class="st2" x1="-58.8" y1="-1.4" x2="48.3" y2="87.9"/>
				<line id="Line_7692" class="st2" x1="-55.2" y1="-2.9" x2="51.9" y2="86.4"/>
				<line id="Line_7693" class="st2" x1="-51.6" y1="-4.4" x2="55.5" y2="84.9"/>
				<line id="Line_7694" class="st2" x1="-48" y1="-5.9" x2="59.1" y2="83.4"/>
				<line id="Line_7695" class="st2" x1="-44.4" y1="-7.4" x2="62.7" y2="81.9"/>
				<line id="Line_7696" class="st2" x1="-40.8" y1="-8.9" x2="66.3" y2="80.4"/>
				<line id="Line_7697" class="st2" x1="-37.2" y1="-10.4" x2="69.9" y2="78.9"/>
				<line id="Line_7698" class="st2" x1="-33.6" y1="-11.9" x2="73.5" y2="77.4"/>
				<line id="Line_7699" class="st2" x1="-30" y1="-13.4" x2="77.1" y2="75.9"/>
				<line id="Line_7700" class="st2" x1="-26.4" y1="-14.9" x2="80.7" y2="74.4"/>
				<line id="Line_7701" class="st2" x1="-22.8" y1="-16.4" x2="84.3" y2="72.9"/>
				<line id="Line_7702" class="st2" x1="-19.2" y1="-17.9" x2="87.9" y2="71.4"/>
				<line id="Line_7703" class="st2" x1="-15.6" y1="-19.4" x2="91.5" y2="69.9"/>
				<line id="Line_7704" class="st2" x1="-12" y1="-20.9" x2="95.1" y2="68.4"/>
				<line id="Line_7705" class="st2" x1="-8.4" y1="-22.4" x2="98.7" y2="66.9"/>
				<line id="Line_7706" class="st2" x1="-4.8" y1="-23.9" x2="102.3" y2="65.4"/>
				<line id="Line_7707" class="st2" x1="-1.2" y1="-25.4" x2="105.9" y2="63.9"/>
				<line id="Line_7708" class="st2" x1="2.4" y1="-26.9" x2="109.5" y2="62.4"/>
				<line id="Line_7709" class="st2" x1="6" y1="-28.4" x2="113.1" y2="60.9"/>
			</g>
		</g>
		<path id="Path_148033" class="st2" d="M275.1,28.3h9c3.3,0,6,2.2,6,5l0,0c0,2.8-2.7,5-6,5h-9c-3.3,0-6-2.2-6-5l0,0
			C269.1,30.5,271.8,28.3,275.1,28.3z"/>
		<path id="Path_161699" d="M300.9,59.3h0.6l2.3-6.2h-0.7l-1.9,5.3l-1.9-5.3h-0.7L300.9,59.3z M304.8,54h0.7v-0.8h-0.7L304.8,54z
			 M304.9,59.3h0.6V55h-0.6V59.3z M308,59.4c0.7,0,1.3-0.3,1.5-0.9l0,0.8h0.6v-2.7c0.1-0.9-0.5-1.7-1.4-1.8c-0.1,0-0.2,0-0.3,0
			c-0.7,0-1.3,0.3-1.7,0.9l0.5,0.4c0.3-0.4,0.7-0.7,1.2-0.7c0.8,0,1.1,0.6,1.1,1.4h-1c-1.2,0-1.9,0.4-1.9,1.3c0,0.7,0.5,1.3,1.3,1.3
			C307.9,59.4,308,59.4,308,59.4z M308.1,58.9c-0.5,0-0.8-0.2-0.8-0.7c0-0.6,0.4-0.8,1.3-0.8h0.9C309.5,58.1,308.9,58.8,308.1,58.9z
			 M313.1,58.8c-0.6-0.1-1.2-0.2-1.2-0.7c0-0.1,0.1-0.3,0.2-0.3c0.3,0.1,0.5,0.2,0.8,0.2c0.8,0.1,1.5-0.5,1.6-1.4c0,0,0-0.1,0-0.1
			c0-0.2-0.1-0.5-0.2-0.7l0.7-0.6l-0.4-0.5l-0.7,0.6c-0.3-0.3-0.7-0.4-1.1-0.4c-0.8-0.1-1.6,0.6-1.6,1.4c0,0,0,0.1,0,0.1
			c0,0.4,0.1,0.7,0.4,1c-0.2,0.2-0.3,0.4-0.3,0.7c0,0.4,0.2,0.7,0.6,0.9l-0.6,0.6c0,0.1,0,0.1,0,0.2c0,0.8,0.8,1.5,1.9,1.5
			c0.9,0,1.8-0.4,1.8-1.3C314.9,59,314,58.9,313.1,58.8L313.1,58.8z M312.9,55.4c0.5,0,1,0.4,1,0.9c0,0,0,0,0,0.1
			c0,0.5-0.3,0.9-0.8,1c0,0-0.1,0-0.1,0c-0.5,0-0.9-0.4-1-0.9c0,0,0-0.1,0-0.1C311.9,55.9,312.3,55.4,312.9,55.4
			C312.9,55.4,312.9,55.4,312.9,55.4L312.9,55.4z M313.2,60.8c-0.9,0-1.3-0.4-1.3-0.9l0.5-0.6c0.2,0,0.3,0.1,0.5,0.1
			c0.8,0.1,1.4,0.1,1.4,0.7C314.3,60.5,313.8,60.8,313.2,60.8L313.2,60.8z M317.6,58.8c-0.6-0.1-1.2-0.2-1.2-0.7
			c0-0.1,0.1-0.3,0.2-0.3c0.3,0.1,0.5,0.2,0.8,0.2c0.8,0.1,1.5-0.5,1.6-1.4c0,0,0-0.1,0-0.1c0-0.2-0.1-0.5-0.2-0.7l0.7-0.6l-0.4-0.5
			l-0.7,0.6c-0.3-0.3-0.7-0.4-1.1-0.4c-0.8-0.1-1.6,0.6-1.6,1.4c0,0,0,0.1,0,0.1c0,0.4,0.1,0.7,0.4,1c-0.2,0.2-0.3,0.4-0.3,0.7
			c0,0.4,0.2,0.7,0.6,0.9l-0.6,0.6c0,0.1,0,0.1,0,0.2c0,0.8,0.8,1.5,1.9,1.5c0.9,0,1.8-0.4,1.8-1.3C319.4,59,318.5,58.9,317.6,58.8
			L317.6,58.8z M317.4,55.4c0.5,0,1,0.4,1,0.9c0,0,0,0,0,0.1c0,0.5-0.3,0.9-0.8,1c0,0-0.1,0-0.1,0c-0.5,0-0.9-0.4-1-0.9
			c0,0,0-0.1,0-0.1C316.4,55.9,316.8,55.4,317.4,55.4C317.4,55.4,317.4,55.4,317.4,55.4L317.4,55.4z M317.7,60.8
			c-0.9,0-1.3-0.4-1.3-0.9l0.5-0.6c0.2,0,0.3,0.1,0.5,0.1c0.8,0.1,1.4,0.1,1.4,0.7C318.8,60.5,318.3,60.8,317.7,60.8L317.7,60.8z
			 M320.5,54h0.7v-0.8h-0.7V54z M320.5,59.3h0.7V55h-0.7V59.3z M324.4,59.4c1.2,0,2.1-1,2.1-2.2c0,0,0-0.1,0-0.1
			c0.1-1.2-0.8-2.2-2-2.3c0,0-0.1,0-0.1,0c-1.2,0-2.1,1-2.1,2.2c0,0,0,0.1,0,0.1C322.2,58.3,323.1,59.3,324.4,59.4
			C324.3,59.4,324.3,59.4,324.4,59.4z M324.4,58.9c-1,0-1.4-0.9-1.4-1.7s0.4-1.7,1.4-1.7s1.4,0.9,1.4,1.7
			C325.8,58,325.3,58.9,324.4,58.9L324.4,58.9z"/>
		<g>
			<defs>
				<path id="SVGID_5_" d="M275.1,51.7h9c3.3,0,6,2.2,6,5l0,0c0,2.8-2.7,5-6,5h-9c-3.3,0-6-2.2-6-5l0,0
					C269.1,54,271.8,51.7,275.1,51.7z"/>
			</defs>
			<clipPath id="SVGID_6_">
				<use xlink:href="#SVGID_5_"  style="overflow:visible;"/>
			</clipPath>
			<g id="Group_24047" transform="translate(269.086 51.737)" class="st3">
				<line id="Line_7710" class="st4" x1="-66" y1="1.8" x2="41.1" y2="91"/>
				<line id="Line_7711" class="st4" x1="-62.4" y1="0.3" x2="44.7" y2="89.5"/>
				<line id="Line_7712" class="st4" x1="-58.8" y1="-1.2" x2="48.3" y2="88"/>
				<line id="Line_7713" class="st4" x1="-55.2" y1="-2.7" x2="51.9" y2="86.5"/>
				<line id="Line_7714" class="st4" x1="-51.6" y1="-4.2" x2="55.5" y2="85"/>
				<line id="Line_7715" class="st4" x1="-48" y1="-5.7" x2="59.1" y2="83.5"/>
				<line id="Line_7716" class="st4" x1="-44.4" y1="-7.2" x2="62.7" y2="82"/>
				<line id="Line_7717" class="st4" x1="-40.8" y1="-8.7" x2="66.3" y2="80.5"/>
				<line id="Line_7718" class="st4" x1="-37.2" y1="-10.2" x2="69.9" y2="79"/>
				<line id="Line_7719" class="st4" x1="-33.6" y1="-11.7" x2="73.5" y2="77.5"/>
				<line id="Line_7720" class="st4" x1="-30" y1="-13.2" x2="77.1" y2="76"/>
				<line id="Line_7721" class="st4" x1="-26.4" y1="-14.7" x2="80.7" y2="74.5"/>
				<line id="Line_7722" class="st4" x1="-22.8" y1="-16.2" x2="84.3" y2="73"/>
				<line id="Line_7723" class="st4" x1="-19.2" y1="-17.7" x2="87.9" y2="71.5"/>
				<line id="Line_7724" class="st4" x1="-15.6" y1="-19.2" x2="91.5" y2="70"/>
				<line id="Line_7725" class="st4" x1="-12" y1="-20.7" x2="95.1" y2="68.5"/>
				<line id="Line_7726" class="st4" x1="-8.4" y1="-22.2" x2="98.7" y2="67"/>
				<line id="Line_7727" class="st4" x1="-4.8" y1="-23.7" x2="102.3" y2="65.5"/>
				<line id="Line_7728" class="st4" x1="-1.2" y1="-25.2" x2="105.9" y2="64"/>
				<line id="Line_7729" class="st4" x1="2.4" y1="-26.7" x2="109.5" y2="62.5"/>
				<line id="Line_7730" class="st4" x1="6" y1="-28.2" x2="113.1" y2="61"/>
			</g>
		</g>
		<path id="Path_148035" class="st4" d="M275.1,51.7h9c3.3,0,6,2.2,6,5l0,0c0,2.8-2.7,5-6,5h-9c-3.3,0-6-2.2-6-5l0,0
			C269.1,54,271.8,51.7,275.1,51.7z"/>
		<path id="Path_161700" d="M299.2,82.8h0.7V80h1c1.2,0,2-0.6,2-1.7c0-1.1-0.8-1.7-2-1.7h-1.7V82.8z M299.9,79.4v-2.2h1
			c0.8,0,1.3,0.4,1.3,1.1c0,0.7-0.5,1.1-1.3,1.1L299.9,79.4z M304.9,82.9c0.7,0,1.3-0.3,1.5-0.9l0,0.8h0.6v-2.7
			c0.1-0.9-0.5-1.7-1.4-1.8c-0.1,0-0.2,0-0.3,0c-0.7,0-1.3,0.3-1.7,0.9l0.5,0.4c0.3-0.4,0.7-0.7,1.2-0.7c0.8,0,1.1,0.6,1.1,1.4h-1
			c-1.2,0-1.9,0.4-1.9,1.3c0,0.7,0.5,1.3,1.3,1.3C304.7,82.9,304.8,82.9,304.9,82.9z M304.9,82.4c-0.5,0-0.8-0.2-0.8-0.7
			c0-0.6,0.4-0.8,1.3-0.8h0.9C306.4,81.6,305.7,82.3,304.9,82.4L304.9,82.4z M310,82.9c0.6,0,1.2-0.2,1.7-0.7l-0.4-0.4
			c-0.3,0.3-0.8,0.5-1.2,0.5c-0.7,0-1.3-0.6-1.3-1.3c0-0.1,0-0.1,0-0.2h3.1c0-0.1,0-0.2,0-0.3c0-1-0.4-2.1-1.9-2.1
			c-1.1,0.1-2,1-1.9,2.1c0,0.1,0,0.1,0,0.2c-0.1,1.1,0.6,2.1,1.7,2.2C309.8,82.9,309.9,82.9,310,82.9L310,82.9z M308.7,80.3
			c0-0.7,0.4-1.4,1.2-1.4c0.9,0,1.2,0.7,1.2,1.4H308.7z M314.1,82.9c0.8,0.1,1.4-0.5,1.5-1.2c0,0,0-0.1,0-0.1c0-1.6-2.4-1.1-2.4-2.1
			c0-0.4,0.3-0.6,0.8-0.6c0.4,0,0.8,0.2,1,0.6l0.5-0.3c-0.3-0.5-0.8-0.9-1.4-0.9c-0.7-0.1-1.3,0.4-1.4,1.1c0,0,0,0.1,0,0.1
			c0,1.5,2.3,0.9,2.3,2.1c0,0.5-0.4,0.7-0.9,0.7c-0.5,0-1-0.3-1.1-0.8l-0.6,0.3C312.7,82.5,313.4,82.9,314.1,82.9L314.1,82.9z
			 M317.7,82.9c0.7,0,1.3-0.3,1.5-0.9l0,0.8h0.6v-2.7c0.1-0.9-0.5-1.7-1.4-1.8c-0.1,0-0.2,0-0.3,0c-0.7,0-1.3,0.3-1.7,0.9l0.5,0.4
			c0.3-0.4,0.7-0.7,1.2-0.7c0.8,0,1.1,0.6,1.1,1.4h-1c-1.2,0-1.9,0.4-1.9,1.3c0,0.7,0.5,1.3,1.3,1.3
			C317.5,82.9,317.6,82.9,317.7,82.9L317.7,82.9z M317.7,82.4c-0.5,0-0.8-0.2-0.8-0.7c0-0.6,0.4-0.8,1.3-0.8h0.9
			C319.2,81.6,318.5,82.3,317.7,82.4L317.7,82.4z M322.7,82.3c-0.6-0.1-1.2-0.2-1.2-0.7c0-0.1,0.1-0.3,0.2-0.3
			c0.3,0.1,0.5,0.2,0.8,0.2c0.8,0.1,1.5-0.5,1.6-1.4c0,0,0-0.1,0-0.1c0-0.2-0.1-0.5-0.2-0.7l0.7-0.6l-0.4-0.5l-0.7,0.6
			c-0.3-0.3-0.7-0.4-1.1-0.4c-0.8-0.1-1.6,0.6-1.6,1.4c0,0,0,0.1,0,0.1c0,0.4,0.1,0.7,0.4,1c-0.2,0.2-0.3,0.4-0.3,0.7
			c0,0.4,0.2,0.7,0.6,0.9l-0.6,0.6c0,0.1,0,0.1,0,0.2c0,0.8,0.8,1.5,1.9,1.5c0.9,0,1.8-0.4,1.8-1.3
			C324.5,82.5,323.6,82.4,322.7,82.3L322.7,82.3z M322.5,78.9c0.5,0,1,0.4,1,0.9c0,0,0,0,0,0.1c0,0.5-0.3,0.9-0.8,1c0,0-0.1,0-0.1,0
			c-0.5,0-0.9-0.4-1-0.9c0,0,0-0.1,0-0.1C321.5,79.4,322,78.9,322.5,78.9C322.5,78.9,322.5,78.9,322.5,78.9L322.5,78.9z M322.8,84.3
			c-0.9,0-1.3-0.4-1.3-0.9l0.5-0.6c0.2,0,0.3,0.1,0.5,0.1c0.8,0.1,1.4,0.1,1.4,0.7C323.9,84,323.4,84.3,322.8,84.3L322.8,84.3z
			 M327.2,82.3c-0.6-0.1-1.2-0.2-1.2-0.7c0-0.1,0.1-0.3,0.2-0.3c0.3,0.1,0.5,0.2,0.8,0.2c0.8,0.1,1.5-0.5,1.6-1.4c0,0,0-0.1,0-0.1
			c0-0.2-0.1-0.5-0.2-0.7l0.7-0.6l-0.4-0.5l-0.7,0.6c-0.3-0.3-0.7-0.4-1.1-0.4c-0.8-0.1-1.6,0.6-1.6,1.4c0,0,0,0.1,0,0.1
			c0,0.4,0.1,0.7,0.4,1c-0.2,0.2-0.3,0.4-0.3,0.7c0,0.4,0.2,0.7,0.6,0.9l-0.6,0.6c0,0.1,0,0.1,0,0.2c0,0.8,0.8,1.5,1.9,1.5
			c0.9,0,1.8-0.4,1.8-1.3C329,82.5,328.1,82.4,327.2,82.3L327.2,82.3z M327,78.9c0.5,0,1,0.4,1,0.9c0,0,0,0,0,0.1
			c0,0.5-0.3,0.9-0.8,1c0,0-0.1,0-0.1,0c-0.5,0-0.9-0.4-1-0.9c0,0,0-0.1,0-0.1C326,79.4,326.5,78.9,327,78.9
			C327,78.9,327,78.9,327,78.9L327,78.9z M327.3,84.3c-0.9,0-1.3-0.4-1.3-0.9l0.5-0.6c0.2,0,0.3,0.1,0.5,0.1
			c0.8,0.1,1.4,0.1,1.4,0.7C328.4,84,327.9,84.3,327.3,84.3L327.3,84.3z M330.1,77.5h0.7v-0.8h-0.7L330.1,77.5z M330.1,82.8h0.6
			v-4.4h-0.6V82.8z M334,82.9c1.2,0,2.1-1,2.1-2.2c0,0,0-0.1,0-0.1c0.1-1.2-0.8-2.2-2-2.3c0,0-0.1,0-0.1,0c-1.2,0-2.1,1-2.1,2.2
			c0,0,0,0.1,0,0.1C331.8,81.8,332.7,82.8,334,82.9C333.9,82.9,334,82.9,334,82.9z M334,82.4c-1,0-1.4-0.9-1.4-1.7s0.4-1.7,1.4-1.7
			c1,0,1.4,0.9,1.4,1.7C335.4,81.5,335,82.4,334,82.4L334,82.4z M341.1,82.9c0.8,0,1.4-0.4,1.7-1.2l-0.6-0.2
			c-0.1,0.5-0.6,0.9-1.1,0.9c-0.9,0-1.2-0.9-1.2-1.7s0.3-1.7,1.2-1.7c0.5,0,1,0.4,1.1,0.9l0.6-0.3c-0.3-0.7-0.9-1.2-1.7-1.2
			c-1.3,0-1.9,1.1-1.9,2.3c-0.1,1.1,0.6,2.1,1.7,2.3C341,82.9,341.1,82.9,341.1,82.9L341.1,82.9z M345.5,82.9c1.2,0,2.1-1,2.1-2.2
			c0,0,0-0.1,0-0.1c0.1-1.2-0.8-2.2-2-2.3c0,0-0.1,0-0.1,0c-1.2,0-2.1,1-2.1,2.2c0,0,0,0.1,0,0.1C343.4,81.8,344.2,82.8,345.5,82.9
			C345.5,82.9,345.5,82.9,345.5,82.9L345.5,82.9z M345.5,82.4c-1,0-1.4-0.9-1.4-1.7s0.4-1.7,1.4-1.7c1,0,1.4,0.9,1.4,1.7
			C346.9,81.5,346.5,82.4,345.5,82.4L345.5,82.4z M349.9,82.9c0.8,0.1,1.4-0.5,1.5-1.2c0,0,0-0.1,0-0.1c0-1.6-2.4-1.1-2.4-2.1
			c0-0.4,0.3-0.6,0.8-0.6c0.4,0,0.8,0.2,1,0.6l0.5-0.3c-0.3-0.5-0.8-0.9-1.4-0.9c-0.7-0.1-1.3,0.4-1.4,1.1c0,0,0,0.1,0,0.1
			c0,1.5,2.3,0.9,2.3,2.1c0,0.5-0.4,0.7-0.9,0.7c-0.5,0-1-0.3-1.1-0.8l-0.5,0.3C348.6,82.5,349.2,82.9,349.9,82.9L349.9,82.9z
			 M352.5,82.8h0.7v-2.3c0-0.8,0.4-1.6,1.1-1.6c0.8,0,0.9,0.7,0.9,1.3v2.6h0.7v-2.4c0-0.7,0.4-1.5,1.1-1.5c0.8,0,0.9,0.7,0.9,1.3
			v2.6h0.7v-2.7c0-1-0.4-1.8-1.5-1.8c-0.6,0-1.1,0.4-1.4,0.9c-0.2-0.6-0.7-1-1.3-0.9c-0.5,0-1,0.3-1.2,0.8v-0.7h-0.7L352.5,82.8z
			 M360,77.5h0.7v-0.8H360V77.5z M360,82.8h0.6v-4.4H360V82.8z M363.7,82.9c0.7,0,1.4-0.5,1.7-1.2l-0.6-0.2
			c-0.1,0.5-0.6,0.9-1.1,0.9c-0.9,0-1.2-0.9-1.2-1.7s0.3-1.7,1.2-1.7c0.5,0,1,0.4,1.1,0.9l0.6-0.3c-0.3-0.7-0.9-1.2-1.7-1.2
			c-1.3,0-1.9,1.1-1.9,2.3c-0.1,1.1,0.6,2.1,1.7,2.3C363.6,82.9,363.7,82.9,363.7,82.9z M368.1,82.9c1.2,0,2.1-1,2.1-2.2
			c0,0,0-0.1,0-0.1c0.1-1.2-0.8-2.2-2-2.3c0,0-0.1,0-0.1,0c-1.2,0-2.1,1-2.1,2.2c0,0,0,0.1,0,0.1C365.9,81.8,366.8,82.8,368.1,82.9
			C368,82.9,368.1,82.9,368.1,82.9L368.1,82.9z M368.1,82.4c-1,0-1.4-0.9-1.4-1.7s0.4-1.7,1.4-1.7c1,0,1.4,0.9,1.4,1.7
			C369.5,81.5,369.1,82.4,368.1,82.4L368.1,82.4z"/>
		<g>
			<defs>
				<path id="SVGID_7_" d="M275.1,75.3h9c3.3,0,6,2.2,6,5l0,0c0,2.8-2.7,5-6,5h-9c-3.3,0-6-2.2-6-5l0,0
					C269.1,77.5,271.8,75.3,275.1,75.3z"/>
			</defs>
			<clipPath id="SVGID_8_">
				<use xlink:href="#SVGID_7_"  style="overflow:visible;"/>
			</clipPath>
			<g id="Group_24049" transform="translate(269.086 75.291)" class="st5">
				<line id="Line_7731" class="st6" x1="-66" y1="1.6" x2="41.1" y2="90.9"/>
				<line id="Line_7732" class="st6" x1="-62.4" y1="0.1" x2="44.7" y2="89.4"/>
				<line id="Line_7733" class="st6" x1="-58.8" y1="-1.4" x2="48.3" y2="87.9"/>
				<line id="Line_7734" class="st6" x1="-55.2" y1="-2.9" x2="51.9" y2="86.4"/>
				<line id="Line_7735" class="st6" x1="-51.6" y1="-4.4" x2="55.5" y2="84.9"/>
				<line id="Line_7736" class="st6" x1="-48" y1="-5.9" x2="59.1" y2="83.4"/>
				<line id="Line_7737" class="st6" x1="-44.4" y1="-7.4" x2="62.7" y2="81.9"/>
				<line id="Line_7738" class="st6" x1="-40.8" y1="-8.9" x2="66.3" y2="80.4"/>
				<line id="Line_7739" class="st6" x1="-37.2" y1="-10.4" x2="69.9" y2="78.9"/>
				<line id="Line_7740" class="st6" x1="-33.6" y1="-11.9" x2="73.5" y2="77.4"/>
				<line id="Line_7741" class="st6" x1="-30" y1="-13.4" x2="77.1" y2="75.9"/>
				<line id="Line_7742" class="st6" x1="-26.4" y1="-14.9" x2="80.7" y2="74.4"/>
				<line id="Line_7743" class="st6" x1="-22.8" y1="-16.4" x2="84.3" y2="72.9"/>
				<line id="Line_7744" class="st6" x1="-19.2" y1="-17.9" x2="87.9" y2="71.4"/>
				<line id="Line_7745" class="st6" x1="-15.6" y1="-19.4" x2="91.5" y2="69.9"/>
				<line id="Line_7746" class="st6" x1="-12" y1="-20.9" x2="95.1" y2="68.4"/>
				<line id="Line_7747" class="st6" x1="-8.4" y1="-22.4" x2="98.7" y2="66.9"/>
				<line id="Line_7748" class="st6" x1="-4.8" y1="-23.9" x2="102.3" y2="65.4"/>
				<line id="Line_7749" class="st6" x1="-1.2" y1="-25.4" x2="105.9" y2="63.9"/>
				<line id="Line_7750" class="st6" x1="2.4" y1="-26.9" x2="109.5" y2="62.4"/>
				<line id="Line_7751" class="st6" x1="6" y1="-28.4" x2="113.1" y2="60.9"/>
			</g>
		</g>
		<path id="Path_148037" class="st6" d="M275.1,75.3h9c3.3,0,6,2.2,6,5l0,0c0,2.8-2.7,5-6,5h-9c-3.3,0-6-2.2-6-5l0,0
			C269.1,77.5,271.8,75.3,275.1,75.3z"/>
		<path id="Path_161695" d="M2.9,13h1.2V5.8h2.7v-1H0.2v1h2.7L2.9,13z M8.2,13h5.4v-1.1H9.4V9.4h3.8V8.3H9.4V5.8h4.2V4.7H8.2L8.2,13
			z M15.5,13h1.2V6.1l2.3,6.2h1.2l2.3-6.2V13h1.2V4.7h-1.7L19.6,11l-2.3-6.3h-1.7L15.5,13z M25.9,13h1.2V9.4h1.3
			c1.6,0,2.8-0.8,2.8-2.3S30,4.7,28.4,4.7h-2.5V13z M27.1,8.3V5.8h1.3c1.1,0,1.6,0.5,1.6,1.3s-0.5,1.2-1.6,1.2L27.1,8.3z M36,13.1
			c2.6,0,3.8-2,3.8-4.3S38.6,4.6,36,4.6s-3.8,2-3.8,4.3S33.4,13.1,36,13.1L36,13.1z M36,12c-1.9,0-2.6-1.5-2.6-3.2s0.7-3.2,2.6-3.2
			s2.6,1.5,2.6,3.2S37.9,12,36,12L36,12z M44.7,13h2.2c2.7,0,4.2-1.5,4.2-4.1c0-2.7-1.5-4.2-4.2-4.2h-2.2V13z M45.9,11.9V5.8h1
			c2.1,0,3.1,1,3.1,3.1c0,2.2-1.3,3.1-3.2,3.1L45.9,11.9z M52.9,13h5.4v-1.1h-4.2V9.4h3.8V8.3h-3.8V5.8h4.2V4.7h-5.4V13z M60.2,13
			h4.7v-1.1h-3.5V4.7h-1.2L60.2,13z M66.3,13h4.7v-1.1h-3.5V4.7h-1.2L66.3,13z M71.7,13H73l0.6-1.8h3.4l0.6,1.8H79l-3.2-8.3h-0.9
			L71.7,13z M74,10.2l1.3-3.7l1.3,3.7H74z M85.7,13.1c1.4,0.1,2.6-0.9,2.7-2.2c0-0.1,0-0.1,0-0.2c0-2.7-4-2.2-4-3.9
			c0-0.6,0.5-1.1,1.1-1.1c0,0,0,0,0.1,0c0.6,0,1.2,0.4,1.5,0.9L88,6c-0.5-0.9-1.4-1.4-2.4-1.4c-1.2-0.1-2.3,0.8-2.4,2
			c0,0.1,0,0.1,0,0.2c0,2.6,4,2,4,4c0,0.8-0.6,1.3-1.5,1.3c-0.9,0.1-1.8-0.6-1.9-1.5c0,0,0,0,0,0l-1.2,0.3
			C82.9,12.2,84.2,13.2,85.7,13.1z M91.8,13H93V5.8h2.7v-1h-6.6v1h2.7L91.8,13z M100.1,13.1c2.6,0,3.8-2,3.8-4.3s-1.2-4.3-3.8-4.3
			s-3.8,2-3.8,4.3S97.5,13.1,100.1,13.1z M100.1,12c-1.9,0-2.6-1.5-2.6-3.2s0.7-3.2,2.6-3.2s2.6,1.5,2.6,3.2S102,12,100.1,12z
			 M105.7,13h1.2V9.4h1.2l2.1,3.6h1.4l-2.3-3.8c1-0.2,1.7-1.1,1.7-2.2c0-1.4-1.2-2.4-2.5-2.4c-0.1,0-0.1,0-0.2,0h-2.5V13z
			 M106.9,8.3V5.8h1.3c0.9,0,1.5,0.5,1.5,1.3c0,0.8-0.6,1.2-1.4,1.2L106.9,8.3z M113,13h1.2V4.7H113V13z M115.6,13h1.3l0.6-1.8h3.4
			l0.6,1.8h1.3l-3.2-8.3h-0.9L115.6,13z M117.9,10.2l1.3-3.7l1.3,3.7H117.9z"/>
		<path id="Path_161696" d="M273.5,12.1c1.5,0.1,2.9-0.9,3.5-2.3l-1.1-0.5c-0.3,1-1.3,1.7-2.4,1.6c-1.9,0-2.7-1.4-2.7-3.2
			c0-1.7,0.8-3.1,2.7-3.1c1.1-0.1,2.1,0.6,2.4,1.6l1.1-0.5c-0.5-1.4-1.9-2.4-3.4-2.3c-2.7,0-3.9,2-3.9,4.3
			C269.7,10.2,270.9,12.1,273.5,12.1z M281.8,12.1c2.6,0,3.9-2,3.9-4.3s-1.2-4.3-3.9-4.3s-3.8,2-3.8,4.3S279.2,12.1,281.8,12.1z
			 M281.8,11c-1.9,0-2.6-1.5-2.6-3.2s0.7-3.2,2.6-3.2c1.9,0,2.6,1.5,2.6,3.2S283.7,11,281.8,11z M287.4,12h1.2V5.4l3.5,6.6h1.4V3.7
			h-1.2v6.6l-3.5-6.6h-1.4V12z M297.6,12h1.2V4.8h2.7v-1h-6.6v1h2.7V12z M302.9,12h5.4v-1.1h-4.2V8.4h3.8V7.3h-3.8V4.8h4.2V3.7h-5.4
			L302.9,12z M312.4,12.1c1.4,0.1,2.6-0.9,2.7-2.2c0-0.1,0-0.1,0-0.2c0-2.7-4-2.2-4-3.9c0-0.6,0.5-1.1,1.1-1.1c0,0,0,0,0.1,0
			c0.6,0,1.2,0.4,1.5,0.9l0.9-0.6c-0.5-0.9-1.4-1.4-2.4-1.4c-1.2-0.1-2.3,0.8-2.4,2c0,0.1,0,0.1,0,0.2c0,2.6,4,2,4,4
			c0,0.8-0.6,1.3-1.5,1.3c-0.9,0.1-1.8-0.6-1.9-1.5c0,0,0,0,0,0l-1.2,0.3C309.7,11.2,311,12.2,312.4,12.1z M318.5,12h1.2V4.8h2.7v-1
			h-6.6v1h2.7V12z M323.8,12h1.2V3.7h-1.2L323.8,12z"/>
		<g id="Group_24681">
			<path id="Path_148042" class="st7" d="M7.5,99.5h9c3.3,0,6,2.2,6,5l0,0c0,2.8-2.7,5-6,5h-9c-3.3,0-6-2.2-6-5l0,0
				C1.5,101.8,4.2,99.5,7.5,99.5z"/>
			<path id="Path_148043" class="st8" d="M7.5,135.1h9c3.3,0,6,2.2,6,5l0,0c0,2.8-2.7,5-6,5h-9c-3.3,0-6-2.2-6-5l0,0
				C1.5,137.3,4.2,135.1,7.5,135.1z"/>
			<path id="Path_161705" d="M29.9,142.7h3.4V142h-2.7v-5.6h-0.7L29.9,142.7z M35.5,142.8c0.6,0,1.1-0.3,1.4-0.8v0.7h0.6v-4.4h-0.6
				v2.4c0.1,0.8-0.5,1.4-1.3,1.5c-0.8,0-0.9-0.7-0.9-1.3v-2.6H34v2.5C34,141.9,34.4,142.8,35.5,142.8L35.5,142.8z M40.7,142.8
				c1.2,0,2.1-1,2.1-2.2c0,0,0-0.1,0-0.1c0.1-1.2-0.8-2.2-2-2.3c0,0-0.1,0-0.1,0c-1.2,0-2.1,1-2.1,2.2c0,0,0,0.1,0,0.1
				C38.6,141.6,39.4,142.7,40.7,142.8C40.6,142.8,40.7,142.8,40.7,142.8z M40.7,142.2c-1,0-1.4-0.9-1.4-1.7s0.4-1.7,1.4-1.7
				s1.4,0.9,1.4,1.7C42.1,141.3,41.7,142.2,40.7,142.2L40.7,142.2z M45.5,142.1c-0.6-0.1-1.2-0.2-1.2-0.7c0-0.1,0.1-0.3,0.2-0.3
				c0.3,0.1,0.5,0.2,0.8,0.2c0.8,0.1,1.6-0.5,1.6-1.4c0,0,0-0.1,0-0.1c0-0.2-0.1-0.5-0.2-0.7l0.7-0.6l-0.4-0.5l-0.7,0.6
				c-0.3-0.3-0.7-0.4-1.1-0.4c-0.8-0.1-1.6,0.6-1.6,1.4c0,0,0,0.1,0,0.1c0,0.4,0.1,0.7,0.4,1c-0.2,0.2-0.3,0.4-0.3,0.7
				c0,0.4,0.2,0.7,0.6,0.9l-0.6,0.6c0,0.1,0,0.1,0,0.2c0,0.8,0.8,1.5,1.9,1.5c0.9,0,1.8-0.4,1.8-1.3
				C47.3,142.4,46.4,142.2,45.5,142.1L45.5,142.1z M45.3,138.7c0.5,0,1,0.4,1,0.9c0,0,0,0.1,0,0.1c0,0.5-0.3,0.9-0.8,1
				c0,0-0.1,0-0.1,0c-0.5,0-0.9-0.4-1-0.9c0,0,0-0.1,0-0.1C44.3,139.2,44.7,138.8,45.3,138.7C45.3,138.7,45.3,138.7,45.3,138.7
				L45.3,138.7z M45.6,144.1c-0.9,0-1.3-0.4-1.3-0.9l0.5-0.6c0.2,0,0.3,0.1,0.5,0.1c0.8,0.1,1.4,0.1,1.4,0.7
				C46.7,143.9,46.2,144.1,45.6,144.1z M48.4,142.7h0.6v-2.4c-0.1-0.8,0.5-1.4,1.3-1.5c0,0,0,0,0,0c0.8,0,0.9,0.7,0.9,1.3v2.6H52
				V140c0-0.9-0.4-1.8-1.5-1.8c-0.6,0-1.1,0.3-1.4,0.8v-2.5h-0.6L48.4,142.7z M53.3,137.3h0.7v-0.8h-0.7V137.3z M53.4,142.7H54v-4.4
				h-0.7V142.7z M59.1,142.8c0.8,0.1,1.4-0.5,1.5-1.2c0,0,0-0.1,0-0.1c0-1.6-2.4-1.1-2.4-2.1c0-0.4,0.3-0.6,0.8-0.6
				c0.4,0,0.8,0.2,1,0.6l0.5-0.3c-0.3-0.5-0.8-0.9-1.4-0.9c-0.7-0.1-1.3,0.4-1.4,1.1c0,0,0,0.1,0,0.1c0,1.5,2.3,0.9,2.3,2.1
				c0,0.5-0.4,0.7-0.9,0.7c-0.5,0-1-0.3-1.1-0.8l-0.6,0.3C57.7,142.3,58.4,142.8,59.1,142.8L59.1,142.8z M63.2,142.8
				c0.7,0,1.4-0.5,1.7-1.2l-0.6-0.2c-0.1,0.5-0.6,0.9-1.1,0.9c-0.9,0-1.2-0.9-1.2-1.7c0-0.8,0.3-1.7,1.2-1.7c0.5,0,1,0.4,1.1,0.9
				l0.6-0.3c-0.3-0.7-1-1.2-1.7-1.2c-1.3,0-1.9,1.1-1.9,2.3c-0.1,1.1,0.6,2.1,1.7,2.3C63.1,142.7,63.2,142.8,63.2,142.8L63.2,142.8z
				 M67.6,142.8c1.2,0,2.1-1,2.1-2.2c0,0,0-0.1,0-0.1c0.1-1.2-0.8-2.2-2-2.3c0,0-0.1,0-0.1,0c-1.2,0-2.1,1-2.1,2.2c0,0,0,0.1,0,0.1
				C65.4,141.6,66.3,142.7,67.6,142.8C67.5,142.8,67.6,142.8,67.6,142.8L67.6,142.8z M67.6,142.2c-1,0-1.4-0.9-1.4-1.7
				s0.4-1.7,1.4-1.7s1.4,0.9,1.4,1.7C69,141.3,68.6,142.2,67.6,142.2L67.6,142.2z M70.8,142.7h0.7v-2.3c0-0.8,0.4-1.6,1.1-1.6
				c0.8,0,0.9,0.7,0.9,1.3v2.6h0.7v-2.4c0-0.7,0.4-1.5,1.1-1.5c0.8,0,0.9,0.7,0.9,1.3v2.6h0.7V140c0-1-0.4-1.8-1.5-1.8
				c-0.6,0-1.1,0.4-1.4,0.9c-0.2-0.6-0.7-1-1.3-0.9c-0.5,0-1,0.3-1.2,0.8v-0.7h-0.7V142.7z M78.3,144.6h0.7v-2.5
				c0.3,0.4,0.8,0.7,1.3,0.7c1.2,0,1.8-1,1.8-2.3c0-1.2-0.6-2.3-1.8-2.3c-0.5,0-1,0.2-1.3,0.7v-0.6h-0.7L78.3,144.6z M80.1,142.2
				c-0.9,0-1.3-0.8-1.3-1.7c0-0.9,0.4-1.7,1.3-1.7s1.3,0.8,1.3,1.7C81.4,141.4,81,142.2,80.1,142.2z M84.3,142.8
				c0.7,0,1.3-0.3,1.5-0.9l0,0.8h0.6V140c0.1-0.9-0.5-1.7-1.4-1.8c-0.1,0-0.2,0-0.3,0c-0.7,0-1.3,0.3-1.7,0.9l0.5,0.4
				c0.3-0.4,0.7-0.7,1.2-0.7c0.8,0,1.1,0.6,1.1,1.4h-1c-1.2,0-1.9,0.4-1.9,1.3c0,0.7,0.5,1.3,1.3,1.3
				C84.2,142.8,84.2,142.8,84.3,142.8z M84.3,142.2c-0.5,0-0.8-0.2-0.8-0.7c0-0.6,0.4-0.8,1.3-0.8h0.9
				C85.8,141.5,85.2,142.2,84.3,142.2z M87.7,142.7h0.6v-2.2c0-1.1,0.5-1.7,1.2-1.7c0.2,0,0.4,0,0.5,0.2l0.3-0.6
				c-0.2-0.2-0.5-0.2-0.7-0.2c-0.6,0-1.1,0.3-1.3,0.9v-0.8h-0.7L87.7,142.7z M92.2,142.8c0.8,0.1,1.4-0.5,1.5-1.2c0,0,0-0.1,0-0.1
				c0-1.6-2.4-1.1-2.4-2.1c0-0.4,0.3-0.6,0.8-0.6c0.4,0,0.8,0.2,1,0.6l0.5-0.3c-0.3-0.5-0.8-0.9-1.4-0.9c-0.7-0.1-1.3,0.4-1.4,1.1
				c0,0,0,0.1,0,0.1c0,1.5,2.3,0.9,2.3,2.1c0,0.5-0.4,0.7-0.9,0.7c-0.5,0-1-0.3-1.1-0.8l-0.6,0.3C90.8,142.3,91.5,142.8,92.2,142.8z
				 M94.8,137.3h0.7v-0.8h-0.7V137.3z M94.8,142.7h0.7v-4.4h-0.7V142.7z M102.1,136.5v2.4c-0.3-0.5-0.8-0.7-1.4-0.7
				c-1.1,0-1.8,1-1.8,2.3c0,1.3,0.6,2.3,1.8,2.3c0.5,0,1.1-0.2,1.4-0.7l0,0.6h0.6v-6.2H102.1z M100.9,142.2c-0.9,0-1.3-0.8-1.3-1.7
				s0.4-1.7,1.3-1.7c0.9,0,1.3,0.8,1.3,1.7S101.8,142.2,100.9,142.2L100.9,142.2z M105.3,142.8c0.7,0,1.3-0.3,1.5-0.9l0,0.8h0.6V140
				c0.1-0.9-0.5-1.7-1.4-1.8c-0.1,0-0.2,0-0.3,0c-0.7,0-1.3,0.3-1.7,0.9l0.5,0.4c0.3-0.4,0.7-0.7,1.2-0.7c0.8,0,1.1,0.6,1.1,1.4h-1
				c-1.2,0-1.9,0.4-1.9,1.3c0,0.7,0.5,1.3,1.3,1.3C105.2,142.8,105.3,142.8,105.3,142.8L105.3,142.8z M105.4,142.2
				c-0.5,0-0.8-0.2-0.8-0.7c0-0.6,0.4-0.8,1.3-0.8h0.9C106.8,141.5,106.2,142.2,105.4,142.2L105.4,142.2z M109.7,142.2
				c-0.2,0-0.2-0.2-0.2-0.2v-5.5h-0.7v5.3c0,0.5,0,1,0.7,1c0.2,0,0.4,0,0.6-0.1v-0.5C109.9,142.2,109.8,142.2,109.7,142.2
				L109.7,142.2z M111.9,142.2c-0.2,0-0.2-0.2-0.2-0.2v-5.5h-0.7v5.3c0,0.5,0,1,0.7,1c0.2,0,0.4,0,0.6-0.1v-0.5
				C112.2,142.2,112.1,142.2,111.9,142.2L111.9,142.2z M114.4,142.8c0.7,0,1.3-0.3,1.5-0.9l0,0.8h0.6V140c0.1-0.9-0.5-1.7-1.4-1.8
				c-0.1,0-0.2,0-0.3,0c-0.7,0-1.3,0.3-1.7,0.9l0.5,0.4c0.3-0.4,0.7-0.7,1.2-0.7c0.8,0,1.1,0.6,1.1,1.4h-1c-1.2,0-1.9,0.4-1.9,1.3
				c0,0.7,0.5,1.3,1.3,1.3C114.2,142.8,114.3,142.8,114.4,142.8L114.4,142.8z M114.4,142.2c-0.5,0-0.8-0.2-0.8-0.7
				c0-0.6,0.4-0.8,1.3-0.8h0.9C115.9,141.5,115.2,142.2,114.4,142.2L114.4,142.2z M120.2,142.7h0.7v-2.3c0-1.1,0.5-1.6,1.2-1.6
				c0.8,0,1,0.7,1,1.3v2.6h0.7V140c0-1-0.4-1.8-1.5-1.8c-0.6,0-1.1,0.3-1.4,0.8v-0.8h-0.7L120.2,142.7z M126.2,142.8
				c0.7,0,1.3-0.3,1.5-0.9l0,0.8h0.6V140c0.1-0.9-0.5-1.7-1.4-1.8c-0.1,0-0.2,0-0.3,0c-0.7,0-1.3,0.3-1.7,0.9l0.5,0.4
				c0.3-0.4,0.7-0.7,1.2-0.7c0.8,0,1.1,0.6,1.1,1.4h-1c-1.2,0-1.9,0.4-1.9,1.3c0,0.7,0.5,1.3,1.3,1.3
				C126,142.8,126.1,142.8,126.2,142.8z M126.2,142.2c-0.5,0-0.8-0.2-0.8-0.7c0-0.6,0.4-0.8,1.3-0.8h0.9
				C127.7,141.5,127,142.2,126.2,142.2z M129.6,142.7h0.6v-2.2c0-1.1,0.5-1.7,1.2-1.7c0.2,0,0.4,0,0.5,0.2l0.3-0.6
				c-0.2-0.2-0.5-0.2-0.7-0.2c-0.6,0-1.1,0.3-1.3,0.9v-0.8h-0.7L129.6,142.7z M133.1,142.7h0.6v-2.2c0-1.1,0.5-1.7,1.2-1.7
				c0.2,0,0.4,0,0.5,0.2l0.3-0.6c-0.2-0.2-0.5-0.2-0.7-0.2c-0.6,0-1.1,0.3-1.3,0.9v-0.8h-0.7L133.1,142.7z M137.7,142.8
				c0.7,0,1.3-0.3,1.5-0.9l0,0.8h0.6V140c0.1-0.9-0.5-1.7-1.4-1.8c-0.1,0-0.2,0-0.3,0c-0.7,0-1.3,0.3-1.7,0.9l0.5,0.4
				c0.3-0.4,0.7-0.7,1.2-0.7c0.8,0,1.1,0.6,1.1,1.4h-1c-1.2,0-1.9,0.4-1.9,1.3c0,0.7,0.5,1.3,1.3,1.3
				C137.5,142.8,137.6,142.8,137.7,142.8L137.7,142.8z M137.7,142.2c-0.5,0-0.8-0.2-0.8-0.7c0-0.6,0.4-0.8,1.3-0.8h0.9
				C139.2,141.5,138.6,142.2,137.7,142.2L137.7,142.2z M144.1,138.3h-3.3v0.5h2.6l-2.7,3.4v0.5h3.5v-0.6h-2.6l2.6-3.3V138.3z
				 M145.2,137.3h0.7v-0.8h-0.7V137.3z M145.2,142.7h0.7v-4.4h-0.7V142.7z M149.1,142.8c1.2,0,2.1-1,2.1-2.2c0,0,0-0.1,0-0.1
				c0.1-1.2-0.8-2.2-2-2.3c0,0-0.1,0-0.1,0c-1.2,0-2.1,1-2.1,2.2c0,0,0,0.1,0,0.1C146.9,141.6,147.8,142.7,149.1,142.8
				C149,142.8,149.1,142.8,149.1,142.8z M149.1,142.2c-1,0-1.4-0.9-1.4-1.7s0.4-1.7,1.4-1.7c1,0,1.4,0.9,1.4,1.7
				C150.5,141.3,150.1,142.2,149.1,142.2L149.1,142.2z M152.3,142.7h0.7v-2.3c0-1.1,0.5-1.6,1.2-1.6c0.8,0,1,0.7,1,1.3v2.6h0.7V140
				c0-1-0.4-1.8-1.5-1.8c-0.6,0-1.1,0.3-1.4,0.8v-0.8h-0.7L152.3,142.7z M158.8,142.7c0.6,0,1.2-0.2,1.7-0.7l-0.4-0.4
				c-0.3,0.3-0.8,0.5-1.2,0.5c-0.7,0-1.3-0.6-1.3-1.3c0-0.1,0-0.1,0-0.2h3.1c0-0.1,0-0.2,0-0.3c0-1-0.4-2.1-1.9-2.1
				c-1.1,0.1-2,1-1.9,2.1c0,0.1,0,0.1,0,0.2c-0.1,1.1,0.6,2.1,1.7,2.2C158.7,142.7,158.8,142.7,158.8,142.7L158.8,142.7z
				 M157.6,140.2c0-0.7,0.4-1.4,1.2-1.4c0.9,0,1.2,0.7,1.2,1.4H157.6z"/>
			<path id="Path_161704" d="M29.3,105H30l0.5-1.3h2.7l0.5,1.3h0.7l-2.3-6.2h-0.5L29.3,105z M30.7,103l1.1-3.2L33,103H30.7z
				 M35.4,105h0.7v-2.3c0-0.8,0.4-1.6,1.1-1.6c0.8,0,0.9,0.7,0.9,1.3v2.6h0.7v-2.4c0-0.7,0.4-1.5,1.1-1.5c0.8,0,0.9,0.7,0.9,1.3v2.6
				h0.7v-2.7c0-1-0.4-1.8-1.5-1.8c-0.6,0-1.1,0.4-1.4,0.9c-0.3-0.7-1-1.1-1.8-0.8c-0.3,0.1-0.6,0.4-0.8,0.7v-0.7h-0.7V105z
				 M44.9,105.1c1.1,0,1.8-1,1.8-2.3s-0.6-2.3-1.8-2.3c-0.5,0-1.1,0.2-1.4,0.7v-2.4h-0.7v6.2h0.7v-0.6
				C43.9,104.8,44.4,105.1,44.9,105.1L44.9,105.1z M44.8,104.5c-0.9,0-1.3-0.8-1.3-1.7c0-0.9,0.4-1.7,1.3-1.7s1.3,0.8,1.3,1.7
				S45.7,104.5,44.8,104.5L44.8,104.5z M47.8,99.6h0.7v-0.8h-0.7V99.6z M47.9,105h0.7v-4.4h-0.7V105z M51.7,105.1
				c0.6,0,1.2-0.2,1.7-0.7l-0.4-0.4c-0.3,0.3-0.8,0.5-1.2,0.5c-0.7,0-1.3-0.6-1.3-1.3c0-0.1,0-0.1,0-0.2h3.1c0-0.1,0-0.2,0-0.3
				c0-1-0.4-2.1-1.9-2.1c-1.1,0.1-2,1-1.9,2.1c0,0.1,0,0.1,0,0.2c-0.1,1.1,0.6,2.1,1.7,2.2C51.5,105.1,51.6,105.1,51.7,105.1
				L51.7,105.1z M50.4,102.5c0-0.7,0.4-1.4,1.2-1.4c0.9,0,1.2,0.7,1.2,1.4H50.4z M54.6,105h0.7v-2.3c0-1.1,0.5-1.6,1.2-1.6
				c0.8,0,1,0.7,1,1.3v2.6h0.6v-2.7c0-1-0.4-1.8-1.5-1.8c-0.6,0-1.1,0.3-1.4,0.8v-0.8h-0.7L54.6,105z M60.7,105.1
				c0.2,0,0.4,0,0.6-0.1v-0.6c-0.1,0.1-0.3,0.1-0.4,0.1c-0.3,0-0.6-0.2-0.6-0.7v-2.7h1.1v-0.5h-1.1V99l-0.6,0.6v1h-0.7v0.5h0.7v2.7
				C59.6,104.6,59.9,105.1,60.7,105.1z M63.5,105.1c0.7,0,1.3-0.3,1.5-0.9l0,0.8h0.6v-2.7c0.1-0.9-0.5-1.7-1.4-1.8
				c-0.1,0-0.2,0-0.3,0c-0.7,0-1.3,0.3-1.7,0.9l0.5,0.4c0.3-0.4,0.7-0.7,1.2-0.7c0.8,0,1.1,0.6,1.1,1.4h-1c-1.2,0-1.9,0.4-1.9,1.3
				c0,0.7,0.5,1.3,1.3,1.3C63.4,105.1,63.4,105.1,63.5,105.1L63.5,105.1z M63.6,104.5c-0.5,0-0.8-0.2-0.8-0.7c0-0.6,0.4-0.8,1.3-0.8
				H65C65,103.8,64.4,104.5,63.6,104.5L63.6,104.5z M70,100.6h-3.3v0.5h2.6l-2.7,3.4v0.5H70v-0.6h-2.6l2.6-3.3V100.6z M71,99.6h0.7
				v-0.8H71V99.6z M71.1,105h0.7v-4.4h-0.7V105z M74.9,105.1c1.2,0,2.1-1,2.1-2.2c0,0,0-0.1,0-0.1c0.1-1.1-0.7-2.2-1.9-2.3
				c-1.1-0.1-2.2,0.7-2.3,1.9c0,0.1,0,0.2,0,0.4C72.7,104,73.6,105,74.9,105.1C74.8,105.1,74.9,105.1,74.9,105.1L74.9,105.1z
				 M74.9,104.5c-1,0-1.4-0.9-1.4-1.7s0.4-1.7,1.4-1.7s1.4,0.9,1.4,1.7C76.3,103.7,75.9,104.5,74.9,104.5L74.9,104.5z M78.1,105h0.7
				v-2.3c0-1.1,0.5-1.6,1.2-1.6c0.8,0,1,0.7,1,1.3v2.6h0.7v-2.7c0-1-0.4-1.8-1.5-1.8c-0.6,0-1.1,0.3-1.4,0.8v-0.8h-0.7L78.1,105z
				 M83,99.6h0.7v-0.8H83V99.6z M83,105h0.6v-4.4H83V105z M90.4,98.8v2.4c-0.3-0.5-0.8-0.7-1.4-0.7c-1.1,0-1.8,1-1.8,2.3
				c0,1.3,0.6,2.3,1.8,2.3c0.5,0,1.1-0.2,1.4-0.7l0,0.6H91v-6.2H90.4z M89.2,104.5c-0.9,0-1.3-0.8-1.3-1.7s0.4-1.7,1.3-1.7
				c0.9,0,1.3,0.8,1.3,1.7S90.1,104.5,89.2,104.5L89.2,104.5z M92.5,99.6h0.7v-0.8h-0.8L92.5,99.6z M92.5,105h0.7v-4.4h-0.7V105z
				 M98.3,105.1c0.2,0,0.4,0,0.6-0.1v-0.6c-0.1,0.1-0.3,0.1-0.4,0.1c-0.3,0-0.6-0.2-0.6-0.7v-2.7H99v-0.5h-1.1V99l-0.7,0.6v1h-0.7
				v0.5h0.7v2.7C97.2,104.6,97.5,105.1,98.3,105.1L98.3,105.1z M101.6,105.1c0.6,0,1.2-0.2,1.7-0.7l-0.4-0.4
				c-0.3,0.3-0.8,0.5-1.2,0.5c-0.7,0-1.3-0.6-1.3-1.3c0-0.1,0-0.1,0-0.2h3.1c0-0.1,0-0.2,0-0.3c0-1-0.4-2.1-1.9-2.1
				c-1.1,0.1-2,1-1.9,2.1c0,0.1,0,0.1,0,0.2c-0.1,1.1,0.6,2.1,1.7,2.2C101.4,105.1,101.5,105.1,101.6,105.1L101.6,105.1z
				 M100.3,102.5c0-0.7,0.4-1.4,1.2-1.4c0.9,0,1.2,0.7,1.2,1.4H100.3z M105.7,105.1c0.8,0.1,1.4-0.5,1.5-1.2c0,0,0-0.1,0-0.1
				c0-1.6-2.4-1.1-2.4-2.1c0-0.4,0.3-0.6,0.8-0.6c0.4,0,0.8,0.2,1,0.6l0.5-0.3c-0.3-0.5-0.8-0.9-1.4-0.9c-0.7-0.1-1.3,0.4-1.4,1.1
				c0,0,0,0.1,0,0.1c0,1.5,2.3,0.9,2.3,2.1c0,0.5-0.4,0.7-0.9,0.7c-0.5,0-1-0.3-1.1-0.8l-0.6,0.3C104.4,104.7,105,105.1,105.7,105.1
				L105.7,105.1z M109.6,105.1c0.2,0,0.4,0,0.6-0.1v-0.6c-0.1,0.1-0.3,0.1-0.4,0.1c-0.3,0-0.6-0.2-0.6-0.7v-2.7h1.1v-0.5h-1.1V99
				l-0.7,0.6v1h-0.7v0.5h0.7v2.7C108.5,104.6,108.8,105.1,109.6,105.1L109.6,105.1z M111.3,99.6h0.7v-0.8h-0.7L111.3,99.6z
				 M111.3,105h0.7v-4.4h-0.7V105z M115.8,99.6h0.7v-0.8h-0.7V99.6z M115.8,105h0.7v-4.4h-0.7V105z M118,105h0.7v-2.3
				c0-1.1,0.5-1.6,1.2-1.6c0.8,0,1,0.7,1,1.3v2.6h0.7v-2.7c0-1-0.4-1.8-1.5-1.8c-0.6,0-1.1,0.3-1.4,0.8v-0.8H118L118,105z
				 M126.8,105.1c0.7,0,1.4-0.5,1.7-1.2l-0.6-0.2c-0.1,0.5-0.6,0.9-1.1,0.9c-0.9,0-1.2-0.9-1.2-1.7s0.3-1.7,1.2-1.7
				c0.5,0,1,0.4,1.1,0.9l0.6-0.3c-0.3-0.7-0.9-1.2-1.7-1.2c-1.3,0-1.9,1.1-1.9,2.3c-0.1,1.1,0.6,2.1,1.7,2.3
				C126.7,105.1,126.8,105.1,126.8,105.1z M130.9,105.1c0.6,0,1.1-0.3,1.4-0.8v0.7h0.7v-4.4h-0.7v2.4c0.1,0.8-0.5,1.4-1.3,1.5
				c-0.8,0-0.9-0.7-0.9-1.3v-2.6h-0.7v2.5C129.4,104.3,129.8,105.1,130.9,105.1L130.9,105.1z M134.4,99.6h0.7v-0.8h-0.7V99.6z
				 M134.4,105h0.7v-4.4h-0.7V105z M138.9,106.9h0.7v-2.5c0.3,0.4,0.8,0.7,1.3,0.7c1.2,0,1.8-1,1.8-2.3c0-1.2-0.6-2.3-1.8-2.3
				c-0.5,0-1,0.2-1.3,0.7v-0.6h-0.7L138.9,106.9z M140.8,104.5c-0.9,0-1.3-0.8-1.3-1.7c0-0.9,0.4-1.7,1.3-1.7s1.3,0.8,1.3,1.7
				S141.7,104.5,140.8,104.5L140.8,104.5z M143.9,105h0.6v-2.2c0-1.1,0.5-1.7,1.2-1.7c0.2,0,0.4,0,0.5,0.2l0.3-0.6
				c-0.2-0.2-0.5-0.2-0.7-0.2c-0.6,0-1.1,0.3-1.3,0.9v-0.8h-0.7L143.9,105z M148.6,105.1c0.6,0,1.2-0.2,1.7-0.7l-0.4-0.4
				c-0.3,0.3-0.8,0.5-1.2,0.5c-0.7,0-1.3-0.6-1.3-1.3c0-0.1,0-0.1,0-0.2h3.1c0-0.1,0-0.2,0-0.3c0-1-0.4-2.1-1.9-2.1
				c-1.1,0.1-2,1-1.9,2.1c0,0.1,0,0.1,0,0.2c-0.1,1.1,0.6,2.1,1.7,2.2C148.5,105.1,148.6,105.1,148.6,105.1L148.6,105.1z
				 M147.4,102.5c0-0.7,0.4-1.4,1.2-1.4c0.9,0,1.2,0.7,1.2,1.4H147.4z M152.8,105.1c0.8,0.1,1.4-0.5,1.5-1.2c0,0,0-0.1,0-0.1
				c0-1.6-2.4-1.1-2.4-2.1c0-0.4,0.3-0.6,0.8-0.6c0.4,0,0.8,0.2,1,0.6l0.5-0.3c-0.3-0.5-0.8-0.9-1.4-0.9c-0.7-0.1-1.3,0.4-1.4,1.1
				c0,0,0,0.1,0,0.1c0,1.5,2.3,0.9,2.3,2.1c0,0.5-0.4,0.7-0.9,0.7c-0.5,0-1-0.3-1.1-0.8l-0.6,0.3
				C151.4,104.7,152.1,105.1,152.8,105.1L152.8,105.1z M157,105.1c0.6,0,1.2-0.2,1.7-0.7l-0.4-0.4c-0.3,0.3-0.8,0.5-1.2,0.5
				c-0.7,0-1.3-0.6-1.3-1.3c0-0.1,0-0.1,0-0.2h3.1c0-0.1,0-0.2,0-0.3c0-1-0.4-2.1-1.9-2.1c-1.1,0.1-2,1-1.9,2.1c0,0.1,0,0.1,0,0.2
				c-0.1,1.1,0.6,2.1,1.7,2.2C156.8,105.1,156.9,105.1,157,105.1L157,105.1z M155.7,102.5c0-0.7,0.4-1.4,1.2-1.4
				c0.9,0,1.2,0.7,1.2,1.4H155.7z M159.9,105h0.7v-2.3c0-1.1,0.5-1.6,1.2-1.6c0.8,0,1,0.7,1,1.3v2.6h0.6v-2.7c0-1-0.4-1.8-1.5-1.8
				c-0.6,0-1.1,0.3-1.4,0.8v-0.8h-0.7L159.9,105z M166.1,105.1c0.2,0,0.4,0,0.6-0.1v-0.6c-0.1,0.1-0.3,0.1-0.4,0.1
				c-0.3,0-0.6-0.2-0.6-0.7v-2.7h1.1v-0.5h-1.1V99l-0.6,0.6v1h-0.7v0.5h0.7v2.7C165,104.6,165.3,105.1,166.1,105.1z M169.4,105.1
				c0.6,0,1.2-0.2,1.7-0.7l-0.4-0.4c-0.3,0.3-0.8,0.5-1.2,0.5c-0.7,0-1.3-0.6-1.3-1.3c0-0.1,0-0.1,0-0.2h3.1c0-0.1,0-0.2,0-0.3
				c0-1-0.4-2.1-1.9-2.1c-1.1,0.1-2,1-1.9,2.1c0,0.1,0,0.1,0,0.2c-0.1,1.1,0.6,2.1,1.7,2.2C169.2,105.1,169.3,105.1,169.4,105.1z
				 M168.1,102.5c0-0.7,0.4-1.4,1.2-1.4c0.9,0,1.2,0.7,1.2,1.4H168.1z M176.3,105.1c0.6,0,1.2-0.2,1.7-0.7l-0.4-0.4
				c-0.3,0.3-0.8,0.5-1.2,0.5c-0.7,0-1.3-0.6-1.3-1.3c0-0.1,0-0.1,0-0.2h3.1c0-0.1,0-0.2,0-0.3c0-1-0.4-2.1-1.9-2.1
				c-1.1,0.1-2,1-1.9,2.1c0,0.1,0,0.1,0,0.2c-0.1,1.1,0.6,2.1,1.7,2.2C176.2,105.1,176.2,105.1,176.3,105.1L176.3,105.1z M175,102.5
				c0-0.7,0.4-1.4,1.2-1.4c0.9,0,1.2,0.7,1.2,1.4H175z M181.6,106.9h0.7v-2.5c0.3,0.4,0.8,0.7,1.3,0.7c1.2,0,1.8-1,1.8-2.3
				c0-1.2-0.6-2.3-1.8-2.3c-0.5,0-1,0.2-1.3,0.7v-0.6h-0.7L181.6,106.9z M183.5,104.5c-0.9,0-1.3-0.8-1.3-1.7c0-0.9,0.4-1.7,1.3-1.7
				s1.3,0.8,1.3,1.7S184.4,104.5,183.5,104.5z M187.6,105.1c0.7,0,1.3-0.3,1.5-0.9l0,0.8h0.6v-2.7c0.1-0.9-0.5-1.7-1.4-1.8
				c-0.1,0-0.2,0-0.3,0c-0.7,0-1.3,0.3-1.7,0.9l0.5,0.4c0.3-0.4,0.7-0.7,1.2-0.7c0.8,0,1.1,0.6,1.1,1.4h-1c-1.2,0-1.9,0.4-1.9,1.3
				c0,0.7,0.5,1.3,1.3,1.3C187.5,105.1,187.6,105.1,187.6,105.1L187.6,105.1z M187.7,104.5c-0.5,0-0.8-0.2-0.8-0.7
				c0-0.6,0.4-0.8,1.3-0.8h0.9C189.1,103.8,188.5,104.5,187.7,104.5L187.7,104.5z M192.3,105.1c0.8,0.1,1.4-0.5,1.5-1.2
				c0,0,0-0.1,0-0.1c0-1.6-2.4-1.1-2.4-2.1c0-0.4,0.3-0.6,0.8-0.6c0.4,0,0.8,0.2,1,0.6l0.5-0.3c-0.3-0.5-0.8-0.9-1.4-0.9
				c-0.7-0.1-1.3,0.4-1.4,1.1c0,0,0,0.1,0,0.1c0,1.5,2.3,0.9,2.3,2.1c0,0.5-0.4,0.7-0.9,0.7c-0.5,0-1-0.3-1.1-0.8l-0.6,0.3
				C190.9,104.7,191.6,105.1,192.3,105.1L192.3,105.1z M196.1,105.1c0.8,0.1,1.4-0.5,1.5-1.2c0,0,0-0.1,0-0.1c0-1.6-2.4-1.1-2.4-2.1
				c0-0.4,0.3-0.6,0.8-0.6c0.4,0,0.8,0.2,1,0.6l0.5-0.3c-0.3-0.5-0.8-0.9-1.4-0.9c-0.7-0.1-1.3,0.4-1.4,1.1c0,0,0,0.1,0,0.1
				c0,1.5,2.3,0.9,2.3,2.1c0,0.5-0.4,0.7-0.9,0.7c-0.5,0-1-0.3-1.1-0.8l-0.6,0.3C194.7,104.7,195.4,105.1,196.1,105.1L196.1,105.1z
				 M199.7,105.1c0.7,0,1.3-0.3,1.5-0.9l0,0.8h0.6v-2.7c0.1-0.9-0.5-1.7-1.4-1.8c-0.1,0-0.2,0-0.3,0c-0.7,0-1.3,0.3-1.7,0.9l0.5,0.4
				c0.3-0.4,0.7-0.7,1.2-0.7c0.8,0,1.1,0.6,1.1,1.4h-1c-1.2,0-1.9,0.4-1.9,1.3c0,0.7,0.5,1.3,1.3,1.3
				C199.6,105.1,199.6,105.1,199.7,105.1L199.7,105.1z M199.7,104.5c-0.5,0-0.8-0.2-0.8-0.7c0-0.6,0.4-0.8,1.3-0.8h0.9
				C201.2,103.8,200.6,104.5,199.7,104.5L199.7,104.5z M204.4,105.1c0.2,0,0.4,0,0.6-0.1v-0.6c-0.1,0.1-0.3,0.1-0.4,0.1
				c-0.3,0-0.6-0.2-0.6-0.7v-2.7h1.1v-0.5H204V99l-0.6,0.6v1h-0.7v0.5h0.7v2.7C203.3,104.6,203.6,105.1,204.4,105.1L204.4,105.1z
				 M207.8,105.1c1.2,0,2.1-1,2.1-2.2c0,0,0-0.1,0-0.1c0.1-1.1-0.7-2.2-1.9-2.3c-1.1-0.1-2.2,0.7-2.3,1.9c0,0.1,0,0.2,0,0.4
				C205.6,104,206.5,105,207.8,105.1C207.7,105.1,207.7,105.1,207.8,105.1L207.8,105.1z M207.8,104.5c-1,0-1.4-0.9-1.4-1.7
				s0.4-1.7,1.4-1.7s1.4,0.9,1.4,1.7C209.2,103.7,208.8,104.5,207.8,104.5L207.8,104.5z M214.6,105.1c0.8,0.1,1.4-0.5,1.5-1.2
				c0,0,0-0.1,0-0.1c0-1.6-2.4-1.1-2.4-2.1c0-0.4,0.3-0.6,0.8-0.6c0.4,0,0.8,0.2,1,0.6l0.5-0.3c-0.3-0.5-0.8-0.9-1.4-0.9
				c-0.7-0.1-1.3,0.4-1.4,1.1c0,0,0,0.1,0,0.1c0,1.5,2.3,0.9,2.3,2.1c0,0.5-0.4,0.7-0.9,0.7c-0.5,0-1-0.3-1.1-0.8l-0.5,0.3
				C213.2,104.7,213.9,105.1,214.6,105.1L214.6,105.1z M217.1,99.6h0.7v-0.8h-0.7V99.6z M217.2,105h0.6v-4.4h-0.6V105z M29.9,116
				h0.7v-3.9h1.3v-0.5h-1.3v-0.7c0-0.4,0.2-0.7,0.6-0.7c0.2,0,0.4,0.1,0.5,0.1l0.2-0.5c-0.2-0.1-0.5-0.2-0.7-0.2
				c-0.6-0.1-1.1,0.4-1.2,1c0,0.1,0,0.1,0,0.2v0.7h-0.8v0.5h0.8L29.9,116z M34.3,116.1c1.2,0,2.1-1,2.1-2.2c0,0,0-0.1,0-0.1
				c0.1-1.2-0.8-2.2-2-2.3c0,0-0.1,0-0.1,0c-1.2,0-2.1,1-2.1,2.2c0,0,0,0.1,0,0.1C32.1,115,33,116,34.3,116.1
				C34.2,116.1,34.2,116.1,34.3,116.1L34.3,116.1z M34.3,115.5c-1,0-1.4-0.9-1.4-1.7s0.4-1.7,1.4-1.7c1,0,1.4,0.9,1.4,1.7
				S35.3,115.5,34.3,115.5L34.3,115.5z M37.5,116h0.7v-2.3c0-1.1,0.5-1.6,1.2-1.6c0.8,0,1,0.7,1,1.3v2.6H41v-2.7
				c0-1-0.4-1.8-1.5-1.8c-0.6,0-1.1,0.3-1.4,0.8v-0.8h-0.6L37.5,116z M45.2,109.8v2.4c-0.3-0.5-0.8-0.7-1.4-0.7
				c-1.1,0-1.8,1-1.8,2.3c0,1.3,0.6,2.3,1.8,2.3c0.5,0,1.1-0.2,1.4-0.7l0,0.6h0.6v-6.2H45.2z M44,115.5c-0.9,0-1.3-0.8-1.3-1.7
				c0-0.9,0.4-1.7,1.3-1.7c0.9,0,1.3,0.8,1.3,1.7S44.9,115.5,44,115.5z M49.1,116.1c1.2,0,2.1-1,2.1-2.2c0,0,0-0.1,0-0.1
				c0.1-1.1-0.7-2.2-1.9-2.3c-1.1-0.1-2.2,0.7-2.3,1.9c0,0.1,0,0.2,0,0.4C46.9,115,47.8,116,49.1,116.1
				C49,116.1,49,116.1,49.1,116.1L49.1,116.1z M49.1,115.5c-1,0-1.4-0.9-1.4-1.7s0.4-1.7,1.4-1.7s1.4,0.9,1.4,1.7
				C50.5,114.7,50,115.5,49.1,115.5L49.1,115.5z M52.3,116h0.7v-2.3c0-1.1,0.5-1.6,1.2-1.6c0.8,0,1,0.7,1,1.3v2.6h0.7v-2.7
				c0-1-0.4-1.8-1.5-1.8c-0.6,0-1.1,0.3-1.4,0.8v-0.8h-0.7L52.3,116z M58.9,116.1c1.2,0,2.1-1,2.1-2.2c0,0,0-0.1,0-0.1
				c0.1-1.1-0.7-2.2-1.9-2.3c-1.1-0.1-2.2,0.7-2.3,1.9c0,0.1,0,0.2,0,0.4C56.7,115,57.6,116,58.9,116.1
				C58.8,116.1,58.9,116.1,58.9,116.1L58.9,116.1z M58.9,115.5c-1,0-1.4-0.9-1.4-1.7s0.4-1.7,1.4-1.7s1.4,0.9,1.4,1.7
				C60.3,114.7,59.9,115.5,58.9,115.5L58.9,115.5z M64.4,110.6h0.7v-0.8h-0.7V110.6z M64.5,116h0.6v-4.4h-0.6V116z M66.6,116h0.7
				v-2.3c0-1.1,0.5-1.6,1.2-1.6c0.8,0,1,0.7,1,1.3v2.6h0.6v-2.7c0-1-0.4-1.8-1.5-1.8c-0.6,0-1.1,0.3-1.4,0.8v-0.8h-0.7L66.6,116z
				 M75.3,116.1c0.6,0,1.1-0.3,1.4-0.8v0.7h0.7v-4.4h-0.6v2.4c0.1,0.8-0.5,1.4-1.3,1.5c-0.8,0-0.9-0.7-0.9-1.3v-2.6h-0.7v2.5
				C73.8,115.3,74.2,116.1,75.3,116.1z M78.8,116h0.7v-2.3c0-1.1,0.5-1.6,1.2-1.6c0.8,0,1,0.7,1,1.3v2.6h0.7v-2.7
				c0-1-0.4-1.8-1.5-1.8c-0.6,0-1.1,0.3-1.4,0.8v-0.8h-0.7V116z M87.5,116.1c0.2,0,0.5,0,0.7-0.1v-0.8c-0.2,0.1-0.3,0.1-0.5,0.1
				c-0.3,0-0.5-0.2-0.5-0.6v-2.4h1.1v-0.7h-1.1v-1.7l-0.8,0.7v1h-0.7v0.7h0.7v2.5c-0.1,0.6,0.4,1.2,1,1.3
				C87.3,116.1,87.4,116.1,87.5,116.1z M90.9,116.1c0.7,0,1.3-0.2,1.7-0.7l-0.6-0.5c-0.3,0.3-0.7,0.5-1.1,0.5
				c-0.6,0-1.2-0.5-1.2-1.1c0,0,0-0.1,0-0.1h3c0-0.1,0-0.2,0-0.4c0.1-1.1-0.6-2-1.7-2.2c-0.1,0-0.2,0-0.3,0c-1.1,0-2.1,1-2,2.1
				c0,0.1,0,0.1,0,0.2c-0.1,1.1,0.7,2.1,1.8,2.2C90.7,116.1,90.8,116.1,90.9,116.1z M89.7,113.4c0.1-0.7,0.4-1.2,1.1-1.2
				c0.7,0,1.1,0.5,1.1,1.2H89.7z M95.1,116.1c0.8,0.1,1.5-0.5,1.6-1.3c0,0,0-0.1,0-0.1c0-1.6-2.3-1.1-2.3-2c0-0.3,0.3-0.5,0.7-0.5
				c0.4,0,0.8,0.2,0.9,0.6l0.6-0.4c-0.3-0.6-0.9-0.9-1.5-0.9c-0.7-0.1-1.4,0.4-1.5,1.2c0,0,0,0.1,0,0.1c0,1.5,2.3,1,2.3,2
				c0,0.4-0.3,0.6-0.8,0.6c-0.5,0-0.9-0.3-1-0.8l-0.7,0.3C93.6,115.7,94.3,116.1,95.1,116.1L95.1,116.1z M99.1,116.1
				c0.2,0,0.5,0,0.7-0.1v-0.8c-0.2,0.1-0.3,0.1-0.5,0.1c-0.3,0-0.5-0.2-0.5-0.6v-2.4h1.1v-0.7h-1.1v-1.7l-0.8,0.7v1h-0.7v0.7h0.7
				v2.5c-0.1,0.6,0.4,1.2,1,1.3C98.9,116.1,99,116.1,99.1,116.1L99.1,116.1z M102.6,116.1c1.2,0,2.2-1,2.2-2.2c0,0,0-0.1,0-0.1
				c0.1-1.2-0.9-2.2-2-2.3s-2.2,0.9-2.3,2c0,0.1,0,0.2,0,0.2c-0.1,1.2,0.9,2.2,2.1,2.3C102.5,116.1,102.5,116.1,102.6,116.1
				L102.6,116.1z M102.6,115.4c-0.9,0-1.3-0.8-1.3-1.6s0.4-1.6,1.3-1.6s1.3,0.7,1.3,1.6S103.5,115.4,102.6,115.4L102.6,115.4z
				 M108,116h0.9v-2.3c0-0.7,0.4-1.4,1-1.4s0.8,0.6,0.8,1.1v2.6h0.9v-2.4c0-0.7,0.4-1.3,1-1.3s0.8,0.6,0.8,1.2v2.6h0.9v-2.7
				c0-1-0.5-1.8-1.6-1.8c-0.6,0-1.1,0.3-1.4,0.9c-0.3-0.7-1.1-1-1.8-0.8c-0.3,0.1-0.5,0.3-0.7,0.6v-0.6H108L108,116z M115.5,110.7
				h0.9v-0.9h-0.9V110.7z M115.6,116h0.8v-4.4h-0.8V116z M119.1,116.1c0.8,0.1,1.5-0.5,1.6-1.3c0,0,0-0.1,0-0.1c0-1.6-2.3-1.1-2.3-2
				c0-0.3,0.3-0.5,0.7-0.5c0.4,0,0.8,0.2,0.9,0.6l0.6-0.4c-0.3-0.6-0.9-0.9-1.5-0.9c-0.7-0.1-1.4,0.4-1.5,1.2c0,0,0,0.1,0,0.1
				c0,1.5,2.3,1,2.3,2c0,0.4-0.3,0.6-0.8,0.6c-0.5,0-0.9-0.3-1-0.8l-0.7,0.3C117.6,115.7,118.3,116.1,119.1,116.1L119.1,116.1z
				 M123.1,116.1c0.2,0,0.5,0,0.7-0.1v-0.8c-0.2,0.1-0.3,0.1-0.5,0.1c-0.3,0-0.5-0.2-0.5-0.6v-2.4h1.1v-0.7h-1.1v-1.7l-0.8,0.7v1
				h-0.7v0.7h0.7v2.5c-0.1,0.6,0.4,1.2,1,1.3C122.9,116.1,123,116.1,123.1,116.1L123.1,116.1z M126.6,116.1c1.2,0,2.2-1,2.2-2.2
				c0,0,0-0.1,0-0.1c0.1-1.2-0.9-2.2-2-2.3s-2.2,0.9-2.3,2c0,0.1,0,0.2,0,0.2c-0.1,1.2,0.9,2.2,2.1,2.3
				C126.5,116.1,126.5,116.1,126.6,116.1L126.6,116.1z M126.6,115.4c-0.9,0-1.3-0.8-1.3-1.6s0.4-1.6,1.3-1.6s1.3,0.7,1.3,1.6
				S127.5,115.4,126.6,115.4L126.6,115.4z"/>
			<path id="Path_157234" class="st9" d="M6.7,71.5c-3.1,0-5.7-2.3-5.7-5s2.6-5,5.7-5h9.7c3.1,0,5.7,2.3,5.7,5s-2.6,5-5.7,5H6.7z"/>
			<g id="Group_24680">
				<g>
					<defs>
						<path id="SVGID_9_" d="M6.7,26.3h9c3.3,0,6,2.2,6,5l0,0c0,2.8-2.7,5-6,5h-9c-3.3,0-6-2.2-6-5l0,0C0.7,28.6,3.4,26.3,6.7,26.3z
							"/>
					</defs>
					<clipPath id="SVGID_10_">
						<use xlink:href="#SVGID_9_"  style="overflow:visible;"/>
					</clipPath>
					<g id="Group_24678" transform="translate(0.703 26.322)" class="st10">
						<line id="Line_7918" class="st11" x1="-66" y1="1.6" x2="41.1" y2="90.9"/>
						<line id="Line_7919" class="st11" x1="-62.4" y1="0.1" x2="44.7" y2="89.4"/>
						<line id="Line_7920" class="st11" x1="-58.8" y1="-1.4" x2="48.3" y2="87.9"/>
						<line id="Line_7921" class="st11" x1="-55.2" y1="-2.9" x2="51.9" y2="86.4"/>
						<line id="Line_7922" class="st11" x1="-51.6" y1="-4.4" x2="55.5" y2="84.9"/>
						<line id="Line_7923" class="st11" x1="-48" y1="-5.9" x2="59.1" y2="83.4"/>
						<line id="Line_7924" class="st11" x1="-44.4" y1="-7.4" x2="62.7" y2="81.9"/>
						<line id="Line_7925" class="st11" x1="-40.8" y1="-8.9" x2="66.3" y2="80.4"/>
						<line id="Line_7926" class="st11" x1="-37.2" y1="-10.4" x2="69.9" y2="78.9"/>
						<line id="Line_7927" class="st11" x1="-33.6" y1="-11.9" x2="73.5" y2="77.4"/>
						<line id="Line_7928" class="st11" x1="-30" y1="-13.4" x2="77.1" y2="75.9"/>
						<line id="Line_7929" class="st11" x1="-26.4" y1="-14.9" x2="80.7" y2="74.4"/>
						<line id="Line_7930" class="st11" x1="-22.8" y1="-16.4" x2="84.3" y2="72.9"/>
						<line id="Line_7931" class="st11" x1="-19.2" y1="-17.9" x2="87.9" y2="71.4"/>
						<line id="Line_7932" class="st11" x1="-15.6" y1="-19.4" x2="91.5" y2="69.9"/>
						<line id="Line_7933" class="st11" x1="-12" y1="-20.9" x2="95.1" y2="68.4"/>
						<line id="Line_7934" class="st11" x1="-8.4" y1="-22.4" x2="98.7" y2="66.9"/>
						<line id="Line_7935" class="st11" x1="-4.8" y1="-23.9" x2="102.3" y2="65.4"/>
						<line id="Line_7936" class="st11" x1="-1.2" y1="-25.4" x2="105.9" y2="63.9"/>
						<line id="Line_7937" class="st11" x1="2.4" y1="-26.9" x2="109.5" y2="62.4"/>
						<line id="Line_7938" class="st11" x1="6" y1="-28.4" x2="113.1" y2="60.9"/>
					</g>
				</g>
				<path id="Path_157233" class="st11" d="M6.7,26.3h9c3.3,0,6,2.2,6,5l0,0c0,2.8-2.7,5-6,5h-9c-3.3,0-6-2.2-6-5l0,0
					C0.7,28.6,3.4,26.3,6.7,26.3z"/>
			</g>
			<path id="Path_161702" d="M30.3,34h0.8l0.5-1.5h3l0.5,1.5h0.8l-2.6-6.9h-0.6L30.3,34z M31.9,31.8l1.3-3.6l1.2,3.6H31.9z M37.2,34
				h0.7v-2.5c0-0.9,0.4-1.8,1.2-1.8c0.8,0,1,0.8,1,1.5V34h0.7v-2.7c0-0.8,0.4-1.7,1.2-1.7c0.8,0,1,0.8,1,1.5V34h0.7v-3
				c0-1.1-0.5-2-1.7-2c-0.7,0-1.3,0.4-1.5,1c-0.3-0.8-1.2-1.2-2-0.9c-0.4,0.1-0.7,0.4-0.9,0.8v-0.8h-0.7V34z M47.7,34.1
				c1.3,0,2-1.1,2-2.5S49,29,47.7,29c-0.6,0-1.2,0.3-1.5,0.8v-2.7h-0.7V34h0.7v-0.7C46.5,33.8,47.1,34.1,47.7,34.1z M47.5,33.5
				c-1,0-1.4-0.9-1.4-1.9s0.4-1.9,1.4-1.9c1,0,1.4,0.9,1.4,1.9C48.9,32.5,48.5,33.5,47.5,33.5L47.5,33.5z M50.9,28h0.8v-0.9h-0.8V28
				z M51,34h0.7v-4.9H51V34z M55.2,34.1c0.7,0,1.4-0.2,1.9-0.8l-0.5-0.4c-0.4,0.4-0.9,0.6-1.4,0.5c-0.8,0-1.4-0.7-1.4-1.5
				c0-0.1,0-0.1,0-0.2h3.4c0-0.1,0-0.2,0-0.4c0-1.1-0.5-2.4-2.1-2.4c-1.4,0-2.1,1.2-2.1,2.5c-0.1,1.2,0.7,2.3,1.9,2.5
				C55,34.1,55.1,34.1,55.2,34.1z M53.7,31.2c0-0.8,0.5-1.6,1.4-1.6c1,0,1.4,0.8,1.4,1.6H53.7z M58.4,34h0.7v-2.5
				c0-1.2,0.6-1.8,1.4-1.8c0.9,0,1.1,0.8,1.1,1.5V34h0.7v-3c0-1.1-0.5-2-1.6-2c-0.7,0-1.3,0.4-1.6,0.9v-0.8h-0.7V34z M65.2,34.1
				c0.2,0,0.4,0,0.7-0.1v-0.6c-0.2,0.1-0.3,0.1-0.5,0.1c-0.4,0-0.6-0.2-0.6-0.8v-3H66v-0.6h-1.2v-1.8L64.1,28v1.1h-0.8v0.6h0.8v3
				C64.1,33.5,64.4,34.1,65.2,34.1z M68.3,34.1c0.7,0,1.4-0.4,1.7-1l0,0.9h0.6v-3c0.1-1-0.6-1.9-1.6-2c-0.1,0-0.2,0-0.3,0
				c-0.7,0-1.4,0.3-1.8,1l0.5,0.4c0.3-0.5,0.8-0.7,1.4-0.7c0.9,0,1.2,0.6,1.2,1.6h-1.1c-1.4,0-2.1,0.5-2.1,1.4
				c0,0.8,0.6,1.4,1.4,1.5C68.2,34.1,68.2,34.1,68.3,34.1L68.3,34.1z M68.4,33.5c-0.5,0-0.9-0.2-0.9-0.8c0-0.6,0.5-0.9,1.5-0.9h1
				C70,32.7,69.3,33.4,68.4,33.5L68.4,33.5z M75.5,29.1h-3.7v0.6h2.8l-3,3.7V34h3.8v-0.6h-2.9l2.9-3.7L75.5,29.1z M76.7,28h0.8v-0.9
				h-0.8V28z M76.7,34h0.7v-4.9h-0.7V34z M81,34.1c1.3,0,2.4-1.1,2.3-2.5c0,0,0-0.1,0-0.1c0.1-1.3-0.8-2.4-2.1-2.5
				c-1.3-0.1-2.4,0.8-2.5,2.1c0,0.1,0,0.3,0,0.4c-0.1,1.3,0.9,2.4,2.2,2.5C80.9,34.1,81,34.1,81,34.1z M81,33.5
				c-1.1,0-1.6-1-1.6-1.9s0.5-1.9,1.6-1.9s1.6,0.9,1.6,1.9C82.6,32.5,82.1,33.5,81,33.5L81,33.5z M84.6,34h0.7v-2.5
				c0-1.2,0.6-1.8,1.4-1.8c0.9,0,1.1,0.8,1.1,1.5V34h0.7v-3c0-1.1-0.5-2-1.6-2c-0.7,0-1.3,0.4-1.6,0.9v-0.8h-0.7L84.6,34z M90,28
				h0.8v-0.9H90V28z M90,34h0.7v-4.9H90V34z M98.2,27.1v2.7c-0.3-0.5-0.9-0.8-1.5-0.8c-1.2,0-2,1.1-2,2.5s0.7,2.5,2,2.5
				c0.6,0,1.2-0.3,1.5-0.8l0,0.7h0.7v-6.9H98.2z M96.8,33.5c-1,0-1.4-0.9-1.4-1.9c0-1,0.4-1.9,1.4-1.9c1,0,1.4,0.9,1.4,1.9
				S97.8,33.5,96.8,33.5z M100.5,28h0.8v-0.9h-0.8V28z M100.6,34h0.7v-4.9h-0.7L100.6,34z M106.9,34.1c0.2,0,0.4,0,0.7-0.1v-0.6
				c-0.2,0.1-0.3,0.1-0.5,0.1c-0.4,0-0.6-0.2-0.6-0.8v-3h1.2v-0.6h-1.2v-1.8l-0.7,0.7v1.1H105v0.6h0.8v3
				C105.8,33.5,106.1,34.1,106.9,34.1z M110.7,34.1c0.7,0,1.4-0.2,1.9-0.8l-0.5-0.4c-0.4,0.4-0.9,0.6-1.4,0.5
				c-0.8,0-1.4-0.7-1.4-1.5c0-0.1,0-0.1,0-0.2h3.4c0-0.1,0-0.2,0-0.4c0-1.1-0.5-2.4-2.1-2.4c-1.4,0-2.1,1.2-2.1,2.5
				c-0.1,1.2,0.7,2.3,1.9,2.5C110.5,34.1,110.6,34.1,110.7,34.1L110.7,34.1z M109.2,31.2c0-0.8,0.5-1.6,1.4-1.6c1,0,1.4,0.8,1.4,1.6
				H109.2z M115.3,34.1c0.8,0.1,1.6-0.5,1.7-1.4c0,0,0-0.1,0-0.1c0-1.8-2.6-1.2-2.6-2.3c0-0.4,0.3-0.7,0.9-0.7
				c0.5,0,0.9,0.3,1.1,0.7l0.5-0.3c-0.3-0.6-0.9-1-1.6-1c-0.8-0.1-1.5,0.5-1.5,1.2c0,0,0,0.1,0,0.1c0,1.7,2.6,1,2.6,2.3
				c0,0.5-0.4,0.8-1,0.8c-0.6,0-1.1-0.4-1.2-0.9l-0.6,0.3C113.7,33.6,114.5,34.1,115.3,34.1z M119.5,34.1c0.2,0,0.4,0,0.7-0.1v-0.6
				c-0.2,0.1-0.3,0.1-0.5,0.1c-0.4,0-0.6-0.2-0.6-0.8v-3h1.2v-0.6H119v-1.8l-0.7,0.7v1.1h-0.8v0.6h0.8v3
				C118.3,33.5,118.6,34.1,119.5,34.1L119.5,34.1z M121.4,28h0.8v-0.9h-0.8V28z M121.4,34h0.7v-4.9h-0.7V34z M126.4,28h0.8v-0.9
				h-0.8V28z M126.5,34h0.7v-4.9h-0.7L126.5,34z M128.8,34h0.7v-2.5c0-1.2,0.6-1.8,1.4-1.8c0.9,0,1.1,0.8,1.1,1.5V34h0.7v-3
				c0-1.1-0.5-2-1.6-2c-0.7,0-1.3,0.4-1.6,0.9v-0.8h-0.7V34z M138.7,34.1c0.8,0,1.6-0.5,1.8-1.3l-0.6-0.3c-0.1,0.6-0.6,1-1.2,1
				c-1,0-1.4-1-1.4-1.9c0-0.9,0.4-1.9,1.4-1.9c0.6,0,1.1,0.4,1.2,1l0.7-0.3c-0.3-0.8-1.1-1.3-1.9-1.3c-1.4,0-2.1,1.2-2.1,2.5
				C136.6,32.9,137.3,34.1,138.7,34.1L138.7,34.1z M143.2,34.1c0.6,0,1.2-0.4,1.5-0.9V34h0.7v-4.9h-0.7v2.7c0.1,0.9-0.6,1.6-1.5,1.7
				c0,0,0,0,0,0c-0.8,0-1-0.8-1-1.5v-2.9h-0.7V32C141.5,33.2,142,34.1,143.2,34.1L143.2,34.1z M147.1,28h0.8v-0.9h-0.8V28z
				 M147.1,34h0.7v-4.9h-0.7V34z M152.1,28h0.8v-0.9h-0.8V28z M152.1,34h0.7v-4.9h-0.7V34z M155.5,33.5c-0.2,0-0.2-0.3-0.2-0.3v-6.1
				h-0.7V33c0,0.6,0.1,1.1,0.8,1.1c0.2,0,0.4,0,0.7-0.1v-0.6C155.8,33.4,155.6,33.5,155.5,33.5z M161,34.1c0.2,0,0.4,0,0.7-0.1v-0.6
				c-0.2,0.1-0.3,0.1-0.5,0.1c-0.4,0-0.6-0.2-0.6-0.8v-3h1.2v-0.6h-1.2v-1.8l-0.7,0.7v1.1h-0.8v0.6h0.8v3
				C159.9,33.5,160.2,34.1,161,34.1L161,34.1z M164.8,34.1c0.7,0,1.4-0.2,1.9-0.8l-0.5-0.4c-0.4,0.4-0.9,0.6-1.4,0.5
				c-0.8,0-1.4-0.7-1.4-1.5c0-0.1,0-0.1,0-0.2h3.4c0-0.1,0-0.2,0-0.4c0-1.1-0.5-2.4-2.1-2.4c-1.4,0-2.1,1.2-2.1,2.5
				c-0.1,1.2,0.7,2.3,1.9,2.5C164.6,34.1,164.7,34.1,164.8,34.1L164.8,34.1z M163.3,31.2c0-0.8,0.5-1.6,1.4-1.6c1,0,1.4,0.8,1.4,1.6
				H163.3z M168,34h0.7v-2.5c0-0.9,0.4-1.8,1.2-1.8c0.8,0,1,0.8,1,1.5V34h0.7v-2.7c0-0.8,0.4-1.7,1.2-1.7c0.8,0,1,0.8,1,1.5V34h0.7
				v-3c0-1.1-0.5-2-1.7-2c-0.7,0-1.3,0.4-1.5,1c-0.3-0.8-1.2-1.2-2-0.9c-0.4,0.1-0.7,0.4-0.9,0.8v-0.8H168V34z M176.3,36.1h0.7v-2.8
				c0.3,0.5,0.9,0.8,1.5,0.8c1.3,0,2-1.2,2-2.5c0-1.4-0.7-2.5-2-2.5c-0.6,0-1.2,0.3-1.5,0.8v-0.7h-0.7L176.3,36.1z M178.4,33.5
				c-1,0-1.4-0.9-1.4-1.9c0-1,0.4-1.9,1.4-1.9s1.4,0.9,1.4,1.9S179.4,33.5,178.4,33.5L178.4,33.5z M183.7,34.1
				c1.3,0,2.4-1.1,2.3-2.5c0,0,0-0.1,0-0.1c0.1-1.3-0.8-2.4-2.1-2.5s-2.4,0.8-2.5,2.1c0,0.1,0,0.3,0,0.4c-0.1,1.3,0.9,2.4,2.2,2.5
				C183.6,34.1,183.7,34.1,183.7,34.1L183.7,34.1z M183.7,33.5c-1.1,0-1.6-1-1.6-1.9c0-1,0.5-1.9,1.6-1.9s1.6,0.9,1.6,1.9
				S184.8,33.5,183.7,33.5L183.7,33.5z M193,27.1v2.7c-0.3-0.5-0.9-0.8-1.5-0.8c-1.2,0-2,1.1-2,2.5c0,1.4,0.7,2.5,2,2.5
				c0.6,0,1.2-0.3,1.5-0.8l0,0.7h0.7v-6.9H193z M191.7,33.5c-1,0-1.4-0.9-1.4-1.9c0-1,0.4-1.9,1.4-1.9c1,0,1.4,0.9,1.4,1.9
				S192.7,33.5,191.7,33.5z M197.2,34.1c0.7,0,1.4-0.2,1.9-0.8l-0.5-0.4c-0.4,0.4-0.9,0.6-1.4,0.5c-0.8,0-1.4-0.7-1.4-1.5
				c0-0.1,0-0.1,0-0.2h3.4c0-0.1,0-0.2,0-0.4c0-1.1-0.5-2.4-2.1-2.4c-1.4,0-2.1,1.2-2.1,2.5c-0.1,1.2,0.7,2.3,1.9,2.5
				C197.1,34.1,197.2,34.1,197.2,34.1L197.2,34.1z M195.8,31.2c0-0.8,0.5-1.6,1.4-1.6c1,0,1.4,0.8,1.4,1.6H195.8z M201.5,33.5
				c-0.2,0-0.2-0.3-0.2-0.3v-6.1h-0.7V33c0,0.6,0.1,1.1,0.8,1.1c0.2,0,0.4,0,0.7-0.1v-0.6C201.8,33.4,201.6,33.5,201.5,33.5
				L201.5,33.5z M204,33.5c-0.2,0-0.2-0.3-0.2-0.3v-6.1H203V33c0,0.6,0.1,1.1,0.8,1.1c0.2,0,0.4,0,0.7-0.1v-0.6
				C204.3,33.4,204.1,33.5,204,33.5L204,33.5z M206.7,34.1c0.7,0,1.4-0.4,1.7-1l0,0.9h0.6v-3c0.1-1-0.6-1.9-1.6-2
				c-0.1,0-0.2,0-0.3,0c-0.7,0-1.4,0.3-1.8,1l0.5,0.4c0.3-0.5,0.8-0.7,1.4-0.7c0.9,0,1.2,0.6,1.2,1.6h-1.1c-1.4,0-2.1,0.5-2.1,1.4
				c0,0.8,0.6,1.4,1.4,1.5C206.6,34.1,206.6,34.1,206.7,34.1L206.7,34.1z M206.8,33.5c-0.5,0-0.9-0.2-0.9-0.8c0-0.6,0.5-0.9,1.5-0.9
				h1C208.4,32.7,207.7,33.4,206.8,33.5L206.8,33.5z M214.5,34.1c0.8,0.1,1.6-0.5,1.7-1.4c0,0,0-0.1,0-0.1c0-1.8-2.6-1.2-2.6-2.3
				c0-0.4,0.3-0.7,0.9-0.7c0.5,0,0.9,0.3,1.1,0.7l0.5-0.3c-0.3-0.6-0.9-1-1.6-1c-0.8-0.1-1.5,0.5-1.5,1.2c0,0,0,0.1,0,0.1
				c0,1.7,2.6,1,2.6,2.3c0,0.5-0.4,0.8-1,0.8c-0.6,0-1.1-0.4-1.2-0.9l-0.6,0.3C213,33.6,213.7,34.1,214.5,34.1L214.5,34.1z
				 M218.8,34.1c0.2,0,0.4,0,0.7-0.1v-0.6c-0.2,0.1-0.3,0.1-0.5,0.1c-0.4,0-0.6-0.2-0.6-0.8v-3h1.2v-0.6h-1.2v-1.8l-0.7,0.7v1.1
				h-0.8v0.6h0.8v3C217.6,33.5,217.9,34.1,218.8,34.1L218.8,34.1z M222.6,34.1c1.3,0,2.4-1.1,2.3-2.5c0,0,0-0.1,0-0.1
				c0.1-1.3-0.8-2.4-2.1-2.5s-2.4,0.8-2.5,2.1c0,0.1,0,0.3,0,0.4c-0.1,1.3,0.9,2.4,2.2,2.5C222.5,34.1,222.5,34.1,222.6,34.1
				L222.6,34.1z M222.6,33.5c-1.1,0-1.6-1-1.6-1.9s0.5-1.9,1.6-1.9s1.6,0.9,1.6,1.9C224.2,32.5,223.7,33.5,222.6,33.5L222.6,33.5z
				 M226.1,34h0.7v-2.4c0-1.2,0.5-1.8,1.3-1.8c0.2,0,0.4,0.1,0.6,0.2l0.3-0.6c-0.2-0.2-0.5-0.3-0.8-0.3c-0.6,0-1.2,0.4-1.4,1v-0.9
				h-0.7L226.1,34z M230,28h0.8v-0.9H230V28z M230,34h0.7v-4.9H230V34z M233.6,34.1c0.7,0,1.4-0.4,1.7-1l0,0.9h0.6v-3
				c0.1-1-0.6-1.9-1.6-2c-0.1,0-0.2,0-0.3,0c-0.7,0-1.4,0.3-1.8,1l0.5,0.4c0.3-0.5,0.8-0.7,1.4-0.7c0.9,0,1.2,0.6,1.2,1.6h-1.1
				c-1.4,0-2.1,0.5-2.1,1.4c0,0.8,0.6,1.4,1.4,1.5C233.4,34.1,233.5,34.1,233.6,34.1z M233.6,33.5c-0.5,0-0.9-0.2-0.9-0.8
				c0-0.6,0.5-0.9,1.5-0.9h1C235.2,32.7,234.5,33.4,233.6,33.5L233.6,33.5z M32.1,40.5h0.7l-1.1-1.4h-0.9L32.1,40.5z M32.6,46.1
				c0.7,0,1.4-0.2,1.9-0.8L34,44.9c-0.4,0.4-0.9,0.6-1.4,0.5c-0.8,0-1.4-0.7-1.4-1.5c0-0.1,0-0.1,0-0.2h3.4c0-0.1,0-0.2,0-0.4
				c0-1.1-0.5-2.4-2.1-2.4c-1.4,0-2.1,1.2-2.1,2.5c-0.1,1.2,0.7,2.3,1.9,2.5C32.5,46.1,32.6,46.1,32.6,46.1L32.6,46.1z M31.2,43.2
				c0-0.8,0.5-1.6,1.4-1.6c1,0,1.4,0.8,1.4,1.6H31.2z M40.3,46.1c0.8,0,1.6-0.5,1.8-1.3l-0.6-0.3c-0.1,0.6-0.6,1-1.2,1
				c-1,0-1.4-1-1.4-1.9c0-0.9,0.4-1.9,1.4-1.9c0.6,0,1.1,0.4,1.2,1l0.7-0.3c-0.3-0.8-1.1-1.3-1.9-1.3c-1.4,0-2.1,1.2-2.1,2.5
				C38.2,44.9,38.9,46.1,40.3,46.1z M45.1,46.1c1.3,0,2.4-1.1,2.3-2.5c0,0,0-0.1,0-0.1c0.1-1.3-0.8-2.4-2.1-2.5s-2.4,0.8-2.5,2.1
				c0,0.1,0,0.3,0,0.4c-0.1,1.3,0.9,2.4,2.2,2.5C45.1,46.1,45.1,46.1,45.1,46.1L45.1,46.1z M45.1,45.5c-1.1,0-1.6-1-1.6-1.9
				s0.5-1.9,1.6-1.9c1.1,0,1.6,0.9,1.6,1.9C46.7,44.5,46.2,45.5,45.1,45.5L45.1,45.5z M49.7,45.5c-0.2,0-0.2-0.3-0.2-0.3v-6.1h-0.7
				V45c0,0.6,0.1,1.1,0.8,1.1c0.2,0,0.4,0,0.7-0.1v-0.6C50,45.4,49.8,45.5,49.7,45.5L49.7,45.5z M52.2,45.5c-0.2,0-0.2-0.3-0.2-0.3
				v-6.1h-0.7V45c0,0.6,0.1,1.1,0.8,1.1c0.2,0,0.4,0,0.7-0.1v-0.6C52.5,45.4,52.3,45.5,52.2,45.5L52.2,45.5z M55.7,46.1
				c1.3,0,2.4-1.1,2.3-2.5c0,0,0-0.1,0-0.1c0.1-1.3-0.8-2.4-2.1-2.5c-1.3-0.1-2.4,0.8-2.5,2.1c0,0.1,0,0.3,0,0.4
				c-0.1,1.3,0.9,2.4,2.2,2.5C55.6,46.1,55.6,46.1,55.7,46.1L55.7,46.1z M55.7,45.5c-1.1,0-1.6-1-1.6-1.9s0.5-1.9,1.6-1.9
				s1.6,0.9,1.6,1.9C57.2,44.5,56.8,45.5,55.7,45.5L55.7,45.5z M61,46.1c0.8,0,1.6-0.5,1.8-1.3l-0.6-0.3c-0.1,0.6-0.6,1-1.2,1
				c-1,0-1.4-1-1.4-1.9c0-0.9,0.4-1.9,1.4-1.9c0.6,0,1.1,0.4,1.2,1l0.7-0.3C62.6,41.5,61.8,41,61,41c-1.4,0-2.1,1.2-2.1,2.5
				C58.9,44.9,59.6,46.1,61,46.1L61,46.1z M65.1,46.1c0.7,0,1.4-0.4,1.7-1l0,0.9h0.6v-3c0.1-1-0.6-1.9-1.6-2c-0.1,0-0.2,0-0.3,0
				c-0.7,0-1.4,0.3-1.8,1l0.5,0.4c0.3-0.5,0.8-0.7,1.4-0.7c0.9,0,1.2,0.6,1.2,1.6h-1.1c-1.4,0-2.1,0.5-2.1,1.4
				c0,0.8,0.6,1.4,1.4,1.5C65,46.1,65,46.1,65.1,46.1L65.1,46.1z M65.2,45.5c-0.5,0-0.9-0.2-0.9-0.8c0-0.6,0.5-0.9,1.5-0.9h1
				C66.8,44.7,66.1,45.4,65.2,45.5L65.2,45.5z M70.3,46.1c0.2,0,0.4,0,0.7-0.1v-0.6c-0.2,0.1-0.3,0.1-0.5,0.1
				c-0.4,0-0.6-0.2-0.6-0.8v-3h1.2v-0.6h-1.2v-1.8L69.1,40v1.1h-0.8v0.6h0.8v3C69.1,45.5,69.4,46.1,70.3,46.1L70.3,46.1z M74.1,46.1
				c1.3,0,2.4-1.1,2.3-2.5c0,0,0-0.1,0-0.1c0.1-1.3-0.8-2.4-2.1-2.5c-1.3-0.1-2.4,0.8-2.5,2.1c0,0.1,0,0.3,0,0.4
				c-0.1,1.3,0.9,2.4,2.2,2.5C74,46.1,74,46.1,74.1,46.1L74.1,46.1z M74.1,45.5c-1.1,0-1.6-1-1.6-1.9s0.5-1.9,1.6-1.9
				s1.6,0.9,1.6,1.9C75.7,44.5,75.2,45.5,74.1,45.5L74.1,45.5z M80.3,46H81v-2.5c0-1.2,0.6-1.8,1.4-1.8c0.9,0,1.1,0.8,1.1,1.5V46
				h0.7v-3c0-1.1-0.5-2-1.6-2c-0.7,0-1.3,0.4-1.6,0.9v-0.8h-0.7V46z M87.6,46.1c0.7,0,1.4-0.2,1.9-0.8l-0.5-0.4
				c-0.4,0.4-0.9,0.6-1.4,0.5c-0.8,0-1.4-0.7-1.4-1.5c0-0.1,0-0.1,0-0.2h3.4c0-0.1,0-0.2,0-0.4c0-1.1-0.5-2.4-2.1-2.4
				c-1.4,0-2.1,1.2-2.1,2.5c-0.1,1.2,0.7,2.3,1.9,2.5C87.4,46.1,87.5,46.1,87.6,46.1L87.6,46.1z M86.1,43.2c0-0.8,0.5-1.6,1.4-1.6
				c1,0,1.4,0.8,1.4,1.6H86.1z M91.8,45.5c-0.2,0-0.2-0.3-0.2-0.3v-6.1h-0.7V45c0,0.6,0.1,1.1,0.8,1.1c0.2,0,0.4,0,0.7-0.1v-0.6
				C92.1,45.4,91.9,45.5,91.8,45.5L91.8,45.5z M94.3,45.5c-0.2,0-0.2-0.3-0.2-0.3v-6.1h-0.7V45c0,0.6,0.1,1.1,0.8,1.1
				c0.2,0,0.4,0,0.7-0.1v-0.6C94.6,45.4,94.5,45.5,94.3,45.5L94.3,45.5z M97,46.1c0.7,0,1.4-0.4,1.7-1l0,0.9h0.6v-3
				c0.1-1-0.6-1.9-1.6-2c-0.1,0-0.2,0-0.3,0c-0.7,0-1.4,0.3-1.8,1l0.5,0.4c0.3-0.5,0.8-0.7,1.4-0.7c0.9,0,1.2,0.6,1.2,1.6h-1.1
				c-1.4,0-2.1,0.5-2.1,1.4c0,0.8,0.6,1.4,1.4,1.5C96.9,46.1,96.9,46.1,97,46.1L97,46.1z M97.1,45.5c-0.5,0-0.9-0.2-0.9-0.8
				c0-0.6,0.5-0.9,1.5-0.9h1C98.7,44.7,98,45.4,97.1,45.5L97.1,45.5z M105.3,46.1c0.9,0,1.7-0.5,1.9-1.4l-0.8-0.3
				c-0.1,0.5-0.6,0.9-1.1,0.9c-0.9,0-1.3-0.9-1.3-1.7c0-0.8,0.3-1.7,1.3-1.7c0.5,0,1,0.4,1.1,0.9l0.9-0.4c-0.3-0.8-1.1-1.4-2-1.4
				c-1.3,0-2.3,1.1-2.2,2.4c0,0.1,0,0.1,0,0.2c-0.1,1.3,0.8,2.4,2,2.5C105.2,46.1,105.2,46.1,105.3,46.1z M110.2,46.1
				c1.3,0,2.4-1.1,2.4-2.4c0,0,0-0.1,0-0.1c0.1-1.3-0.9-2.5-2.2-2.6c-1.3-0.1-2.5,0.9-2.6,2.2c0,0.1,0,0.2,0,0.3
				c-0.1,1.3,0.9,2.5,2.3,2.5C110.1,46.1,110.2,46.1,110.2,46.1L110.2,46.1z M110.2,45.3c-1,0-1.4-0.9-1.4-1.7s0.4-1.7,1.4-1.7
				s1.4,0.8,1.4,1.7C111.6,44.4,111.2,45.3,110.2,45.3L110.2,45.3z M113.7,46h0.9v-2.6c0-1,0.5-1.5,1.2-1.5c0.7,0,1,0.6,1,1.3V46
				h0.9v-2.9c0-1-0.5-2-1.7-2c-0.6,0-1.2,0.3-1.5,0.8v-0.7h-0.9L113.7,46z M120.8,46.1c0.3,0,0.5,0,0.8-0.1v-0.8
				c-0.2,0.1-0.4,0.1-0.6,0.2c-0.3,0-0.6-0.2-0.6-0.7v-2.7h1.2v-0.8h-1.2v-1.9l-0.9,0.8v1.2h-0.8v0.8h0.8v2.8
				c-0.1,0.7,0.4,1.3,1.1,1.4C120.6,46.1,120.7,46.1,120.8,46.1L120.8,46.1z M124.6,46.1c0.7,0,1.4-0.3,1.9-0.8l-0.7-0.6
				c-0.3,0.4-0.8,0.6-1.3,0.5c-0.7,0-1.3-0.5-1.3-1.2c0,0,0-0.1,0-0.1h3.4c0-0.1,0-0.3,0-0.4c0.2-1.2-0.7-2.2-1.9-2.4
				c-0.1,0-0.2,0-0.3,0c-1.3,0-2.3,1.1-2.3,2.3c0,0.1,0,0.1,0,0.2c-0.1,1.3,0.8,2.4,2.1,2.5C124.5,46.1,124.6,46.1,124.6,46.1
				L124.6,46.1z M123.3,43.2c0.1-0.7,0.4-1.3,1.2-1.3c0.8,0,1.2,0.6,1.2,1.3H123.3z M127.9,46h1v-2.6c0-0.8,0.4-1.5,1.1-1.5
				c0.7,0,0.9,0.6,0.9,1.3V46h1v-2.7c0-0.7,0.4-1.4,1.1-1.4s0.9,0.7,0.9,1.3V46h1v-2.9c0-1.1-0.5-2-1.7-2c-0.7,0-1.3,0.4-1.6,0.9
				c-0.3-0.8-1.2-1.2-2-0.8c-0.3,0.1-0.6,0.3-0.7,0.6v-0.6h-1L127.9,46z M136.3,48.1h1v-2.7c0.3,0.4,0.9,0.7,1.4,0.7
				c1.3,0,2-1.2,2-2.5c0-1.4-0.7-2.5-2-2.5c-0.6,0-1.1,0.2-1.4,0.7v-0.6h-1L136.3,48.1z M138.4,45.3c-0.9,0-1.3-0.8-1.3-1.7
				c0-0.9,0.4-1.7,1.3-1.7s1.3,0.8,1.3,1.7S139.3,45.3,138.4,45.3L138.4,45.3z M143.8,46.1c1.3,0,2.4-1.1,2.4-2.4c0,0,0-0.1,0-0.1
				c0.1-1.3-0.9-2.5-2.2-2.6c-1.3-0.1-2.5,0.9-2.6,2.2c0,0.1,0,0.2,0,0.3c-0.1,1.3,0.9,2.5,2.3,2.5
				C143.8,46.1,143.8,46.1,143.8,46.1L143.8,46.1z M143.8,45.3c-1,0-1.4-0.8-1.4-1.7s0.4-1.7,1.4-1.7s1.4,0.8,1.4,1.7
				C145.3,44.4,144.8,45.3,143.8,45.3L143.8,45.3z M147.3,46h0.9v-2.3c0-1.2,0.5-1.8,1.2-1.8c0.2,0,0.4,0.1,0.6,0.2l0.4-0.8
				c-0.2-0.2-0.5-0.3-0.8-0.3c-0.6,0-1.2,0.4-1.4,0.9v-0.8h-0.9L147.3,46z M152.5,46.1c0.7,0,1.3-0.3,1.6-0.9l0,0.8h0.8v-3
				c0.1-1-0.7-1.9-1.7-2c-0.1,0-0.2,0-0.3,0c-0.8,0-1.5,0.4-1.9,1l0.7,0.5c0.3-0.4,0.7-0.7,1.3-0.7c0.8,0,1.1,0.5,1.1,1.3h-1.2
				c-1.2,0-2.1,0.4-2.1,1.4c0,0.8,0.7,1.5,1.5,1.5C152.4,46.1,152.5,46.1,152.5,46.1L152.5,46.1z M152.7,45.3
				c-0.5,0-0.8-0.2-0.8-0.7c0-0.5,0.4-0.8,1.1-0.8h1.1C154.1,44.6,153.4,45.3,152.7,45.3L152.7,45.3z M156.4,46h0.9v-2.6
				c0-1,0.5-1.5,1.2-1.5c0.7,0,1,0.6,1,1.3V46h0.9v-2.9c0-1-0.5-2-1.7-2c-0.6,0-1.2,0.3-1.5,0.8v-0.7h-0.9L156.4,46z M163.9,46.1
				c0.7,0,1.4-0.3,1.9-0.8l-0.7-0.6c-0.3,0.4-0.8,0.6-1.3,0.5c-0.7,0-1.3-0.5-1.3-1.2c0,0,0-0.1,0-0.1h3.4c0-0.1,0-0.3,0-0.4
				c0.2-1.2-0.7-2.2-1.9-2.4c-0.1,0-0.2,0-0.3,0c-1.3,0-2.3,1.1-2.3,2.3c0,0.1,0,0.1,0,0.2c-0.1,1.3,0.8,2.4,2,2.5
				C163.7,46.1,163.8,46.1,163.9,46.1L163.9,46.1z M162.5,43.2c0.1-0.7,0.4-1.3,1.2-1.3c0.8,0,1.2,0.6,1.2,1.3H162.5z M167,40.1h1
				v-1h-1V40.1z M167.1,46h0.9v-4.9h-0.9V46z M171.1,46.1c0.3,0,0.5,0,0.8-0.1v-0.8c-0.2,0.1-0.4,0.1-0.6,0.2
				c-0.3,0-0.6-0.2-0.6-0.7v-2.7h1.2v-0.8h-1.2v-1.9l-0.9,0.8v1.2H169v0.8h0.8v2.8c-0.1,0.7,0.4,1.3,1.1,1.4
				C170.9,46.1,171,46.1,171.1,46.1L171.1,46.1z M174.4,40.6h0.8l-1.1-1.5h-1.1L174.4,40.6z M174.3,46.1c0.7,0,1.3-0.3,1.6-0.9
				l0,0.8h0.8v-3c0.1-1-0.7-1.9-1.7-2c-0.1,0-0.2,0-0.3,0c-0.8,0-1.5,0.4-1.9,1l0.7,0.5c0.3-0.4,0.7-0.7,1.3-0.7
				c0.8,0,1.1,0.5,1.1,1.3h-1.2c-1.2,0-2.1,0.4-2.1,1.4c0,0.8,0.7,1.5,1.5,1.5C174.2,46.1,174.2,46.1,174.3,46.1z M174.4,45.3
				c-0.5,0-0.8-0.2-0.8-0.7c0-0.5,0.4-0.8,1.1-0.8h1.1C175.8,44.6,175.2,45.3,174.4,45.3L174.4,45.3z"/>
			<path id="Path_161703" d="M30.3,70h0.8l0.5-1.5h3l0.5,1.5h0.8l-2.6-6.9h-0.6L30.3,70z M31.9,67.8l1.3-3.6l1.2,3.6H31.9z M37.2,70
				h0.7v-2.5c0-0.9,0.4-1.8,1.2-1.8c0.8,0,1,0.8,1,1.5V70h0.7v-2.7c0-0.8,0.4-1.7,1.2-1.7c0.8,0,1,0.8,1,1.5V70h0.7v-3
				c0-1.1-0.5-2-1.7-2c-0.7,0-1.3,0.4-1.5,1c-0.3-0.8-1.2-1.2-2-0.9c-0.4,0.1-0.7,0.4-0.9,0.8v-0.8h-0.7V70z M47.7,70.1
				c1.3,0,2-1.1,2-2.5c0-1.4-0.7-2.5-2-2.5c-0.6,0-1.2,0.3-1.5,0.8v-2.7h-0.7V70h0.7v-0.7C46.5,69.8,47.1,70.1,47.7,70.1z
				 M47.5,69.5c-1,0-1.4-0.9-1.4-1.9c0-1,0.4-1.9,1.4-1.9c1,0,1.4,0.9,1.4,1.9S48.5,69.5,47.5,69.5L47.5,69.5z M50.9,64h0.8v-0.9
				h-0.8V64z M51,70h0.7v-4.9H51V70z M55.2,70.1c0.7,0,1.4-0.2,1.9-0.8l-0.5-0.4c-0.4,0.4-0.9,0.6-1.4,0.5c-0.8,0-1.4-0.7-1.4-1.5
				c0-0.1,0-0.1,0-0.2h3.4c0-0.1,0-0.2,0-0.4c0-1.1-0.5-2.4-2.1-2.4c-1.4,0-2.1,1.2-2.1,2.5c-0.1,1.2,0.7,2.3,1.9,2.5
				C55,70.1,55.1,70.1,55.2,70.1z M53.7,67.2c0-0.8,0.5-1.6,1.4-1.6c1,0,1.4,0.8,1.4,1.6H53.7z M58.4,70h0.7v-2.5
				c0-1.2,0.6-1.8,1.4-1.8c0.9,0,1.1,0.8,1.1,1.5V70h0.7v-3c0-1.1-0.5-2-1.6-2c-0.7,0-1.3,0.4-1.6,0.9v-0.8h-0.7V70z M65.2,70.1
				c0.2,0,0.4,0,0.7-0.1v-0.6c-0.2,0.1-0.3,0.1-0.5,0.1c-0.4,0-0.6-0.2-0.6-0.8v-3H66v-0.6h-1.2v-1.8L64.1,64v1.1h-0.8v0.6h0.8v3
				C64.1,69.5,64.4,70.1,65.2,70.1z M68.3,70.1c0.7,0,1.4-0.4,1.7-1l0,0.9h0.6v-3c0.1-1-0.6-1.9-1.6-2c-0.1,0-0.2,0-0.3,0
				c-0.7,0-1.4,0.3-1.8,1l0.5,0.4c0.3-0.5,0.8-0.7,1.4-0.7c0.9,0,1.2,0.6,1.2,1.6h-1.1c-1.4,0-2.1,0.5-2.1,1.4
				c0,0.8,0.6,1.4,1.4,1.5C68.2,70.1,68.2,70.1,68.3,70.1L68.3,70.1z M68.4,69.5c-0.5,0-0.9-0.2-0.9-0.8c0-0.6,0.5-0.9,1.5-0.9h1
				C70,68.7,69.3,69.4,68.4,69.5L68.4,69.5z M75.5,65.1h-3.7v0.6h2.8l-3,3.7V70h3.8v-0.6h-2.9l2.9-3.7L75.5,65.1z M76.7,64h0.8v-0.9
				h-0.8V64z M76.7,70h0.7v-4.9h-0.7V70z M81,70.1c1.3,0,2.4-1.1,2.3-2.5c0,0,0-0.1,0-0.1c0.1-1.3-0.8-2.4-2.1-2.5
				c-1.3-0.1-2.4,0.8-2.5,2.1c0,0.1,0,0.3,0,0.4c-0.1,1.3,0.9,2.4,2.2,2.5C80.9,70.1,81,70.1,81,70.1z M81,69.5
				c-1.1,0-1.6-1-1.6-1.9s0.5-1.9,1.6-1.9s1.6,0.9,1.6,1.9S82.1,69.5,81,69.5L81,69.5z M84.6,70h0.7v-2.5c0-1.2,0.6-1.8,1.4-1.8
				c0.9,0,1.1,0.8,1.1,1.5V70h0.7v-3c0-1.1-0.5-2-1.6-2c-0.7,0-1.3,0.4-1.6,0.9v-0.8h-0.7L84.6,70z M90,64h0.8v-0.9H90V64z M90,70
				h0.7v-4.9H90V70z M98.2,63.1v2.7c-0.3-0.5-0.9-0.8-1.5-0.8c-1.2,0-2,1.1-2,2.5c0,1.4,0.7,2.5,2,2.5c0.6,0,1.2-0.3,1.5-0.8l0,0.7
				h0.7v-6.9H98.2z M96.8,69.5c-1,0-1.4-0.9-1.4-1.9c0-1,0.4-1.9,1.4-1.9c1,0,1.4,0.9,1.4,1.9C98.2,68.5,97.8,69.5,96.8,69.5z
				 M100.5,64h0.8v-0.9h-0.8V64z M100.6,70h0.7v-4.9h-0.7L100.6,70z M106.9,70.1c0.2,0,0.4,0,0.7-0.1v-0.6c-0.2,0.1-0.3,0.1-0.5,0.1
				c-0.4,0-0.6-0.2-0.6-0.8v-3h1.2v-0.6h-1.2v-1.8l-0.7,0.7v1.1H105v0.6h0.8v3C105.8,69.5,106.1,70.1,106.9,70.1z M110.7,70.1
				c0.7,0,1.4-0.2,1.9-0.8l-0.5-0.4c-0.4,0.4-0.9,0.6-1.4,0.5c-0.8,0-1.4-0.7-1.4-1.5c0-0.1,0-0.1,0-0.2h3.4c0-0.1,0-0.2,0-0.4
				c0-1.1-0.5-2.4-2.1-2.4c-1.4,0-2.1,1.2-2.1,2.5c-0.1,1.2,0.7,2.3,1.9,2.5C110.5,70.1,110.6,70.1,110.7,70.1L110.7,70.1z
				 M109.2,67.2c0-0.8,0.5-1.6,1.4-1.6c1,0,1.4,0.8,1.4,1.6H109.2z M115.3,70.1c0.8,0.1,1.6-0.5,1.7-1.4c0,0,0-0.1,0-0.1
				c0-1.8-2.6-1.2-2.6-2.3c0-0.4,0.3-0.7,0.9-0.7c0.5,0,0.9,0.3,1.1,0.7l0.5-0.3c-0.3-0.6-0.9-1-1.6-1c-0.8-0.1-1.5,0.5-1.5,1.2
				c0,0,0,0.1,0,0.1c0,1.7,2.6,1,2.6,2.3c0,0.5-0.4,0.8-1,0.8c-0.6,0-1.1-0.4-1.2-0.9l-0.6,0.3C113.7,69.6,114.5,70.1,115.3,70.1z
				 M119.5,70.1c0.2,0,0.4,0,0.7-0.1v-0.6c-0.2,0.1-0.3,0.1-0.5,0.1c-0.4,0-0.6-0.2-0.6-0.8v-3h1.2v-0.6H119v-1.8l-0.7,0.7v1.1h-0.8
				v0.6h0.8v3C118.3,69.5,118.6,70.1,119.5,70.1L119.5,70.1z M121.4,64h0.8v-0.9h-0.8V64z M121.4,70h0.7v-4.9h-0.7V70z M126.4,64
				h0.8v-0.9h-0.8V64z M126.5,70h0.7v-4.9h-0.7L126.5,70z M128.8,70h0.7v-2.5c0-1.2,0.6-1.8,1.4-1.8c0.9,0,1.1,0.8,1.1,1.5V70h0.7
				v-3c0-1.1-0.5-2-1.6-2c-0.7,0-1.3,0.4-1.6,0.9v-0.8h-0.7V70z M138.7,70.1c0.8,0,1.6-0.5,1.8-1.3l-0.6-0.3c-0.1,0.6-0.6,1-1.2,1
				c-1,0-1.4-1-1.4-1.9s0.4-1.9,1.4-1.9c0.6,0,1.1,0.4,1.2,1l0.7-0.3c-0.3-0.8-1.1-1.3-1.9-1.3c-1.4,0-2.1,1.2-2.1,2.5
				S137.3,70.1,138.7,70.1L138.7,70.1z M143.2,70.1c0.6,0,1.2-0.4,1.5-0.9V70h0.7v-4.9h-0.7v2.7c0.1,0.9-0.6,1.6-1.5,1.7
				c0,0,0,0,0,0c-0.8,0-1-0.8-1-1.5v-2.9h-0.7V68C141.5,69.2,142,70.1,143.2,70.1L143.2,70.1z M147.1,64h0.8v-0.9h-0.8V64z
				 M147.1,70h0.7v-4.9h-0.7V70z M152.1,64h0.8v-0.9h-0.8V64z M152.1,70h0.7v-4.9h-0.7V70z M155.5,69.5c-0.2,0-0.2-0.3-0.2-0.3v-6.1
				h-0.7V69c0,0.6,0.1,1.1,0.8,1.1c0.2,0,0.4,0,0.7-0.1v-0.6C155.8,69.4,155.6,69.5,155.5,69.5z M161,70.1c0.2,0,0.4,0,0.7-0.1v-0.6
				c-0.2,0.1-0.3,0.1-0.5,0.1c-0.4,0-0.6-0.2-0.6-0.8v-3h1.2v-0.6h-1.2v-1.8l-0.7,0.7v1.1h-0.8v0.6h0.8v3
				C159.9,69.5,160.2,70.1,161,70.1L161,70.1z M164.8,70.1c0.7,0,1.4-0.2,1.9-0.8l-0.5-0.4c-0.4,0.4-0.9,0.6-1.4,0.5
				c-0.8,0-1.4-0.7-1.4-1.5c0-0.1,0-0.1,0-0.2h3.4c0-0.1,0-0.2,0-0.4c0-1.1-0.5-2.4-2.1-2.4c-1.4,0-2.1,1.2-2.1,2.5
				c-0.1,1.2,0.7,2.3,1.9,2.5C164.6,70.1,164.7,70.1,164.8,70.1L164.8,70.1z M163.3,67.2c0-0.8,0.5-1.6,1.4-1.6c1,0,1.4,0.8,1.4,1.6
				H163.3z M168,70h0.7v-2.5c0-0.9,0.4-1.8,1.2-1.8c0.8,0,1,0.8,1,1.5V70h0.7v-2.7c0-0.8,0.4-1.7,1.2-1.7c0.8,0,1,0.8,1,1.5V70h0.7
				v-3c0-1.1-0.5-2-1.7-2c-0.7,0-1.3,0.4-1.5,1c-0.3-0.8-1.2-1.2-2-0.9c-0.4,0.1-0.7,0.4-0.9,0.8v-0.8H168V70z M176.3,72.1h0.7v-2.8
				c0.3,0.5,0.9,0.8,1.5,0.8c1.3,0,2-1.2,2-2.5c0-1.4-0.7-2.5-2-2.5c-0.6,0-1.2,0.3-1.5,0.8v-0.7h-0.7L176.3,72.1z M178.4,69.5
				c-1,0-1.4-0.9-1.4-1.9c0-1,0.4-1.9,1.4-1.9s1.4,0.9,1.4,1.9C179.8,68.5,179.4,69.5,178.4,69.5L178.4,69.5z M183.7,70.1
				c1.3,0,2.4-1.1,2.3-2.5c0,0,0-0.1,0-0.1c0.1-1.3-0.8-2.4-2.1-2.5c-1.3-0.1-2.4,0.8-2.5,2.1c0,0.1,0,0.3,0,0.4
				c-0.1,1.3,0.9,2.4,2.2,2.5C183.6,70.1,183.7,70.1,183.7,70.1L183.7,70.1z M183.7,69.5c-1.1,0-1.6-1-1.6-1.9s0.5-1.9,1.6-1.9
				s1.6,0.9,1.6,1.9S184.8,69.5,183.7,69.5L183.7,69.5z M193,63.1v2.7c-0.3-0.5-0.9-0.8-1.5-0.8c-1.2,0-2,1.1-2,2.5
				c0,1.4,0.7,2.5,2,2.5c0.6,0,1.2-0.3,1.5-0.8l0,0.7h0.7v-6.9H193z M191.7,69.5c-1,0-1.4-0.9-1.4-1.9c0-1,0.4-1.9,1.4-1.9
				c1,0,1.4,0.9,1.4,1.9C193.1,68.5,192.7,69.5,191.7,69.5z M197.2,70.1c0.7,0,1.4-0.2,1.9-0.8l-0.5-0.4c-0.4,0.4-0.9,0.6-1.4,0.5
				c-0.8,0-1.4-0.7-1.4-1.5c0-0.1,0-0.1,0-0.2h3.4c0-0.1,0-0.2,0-0.4c0-1.1-0.5-2.4-2.1-2.4c-1.4,0-2.1,1.2-2.1,2.5
				c-0.1,1.2,0.7,2.3,1.9,2.5C197.1,70.1,197.2,70.1,197.2,70.1L197.2,70.1z M195.8,67.2c0-0.8,0.5-1.6,1.4-1.6c1,0,1.4,0.8,1.4,1.6
				H195.8z M201.5,69.5c-0.2,0-0.2-0.3-0.2-0.3v-6.1h-0.7V69c0,0.6,0.1,1.1,0.8,1.1c0.2,0,0.4,0,0.7-0.1v-0.6
				C201.8,69.4,201.6,69.5,201.5,69.5L201.5,69.5z M204,69.5c-0.2,0-0.2-0.3-0.2-0.3v-6.1H203V69c0,0.6,0.1,1.1,0.8,1.1
				c0.2,0,0.4,0,0.7-0.1v-0.6C204.3,69.4,204.1,69.5,204,69.5L204,69.5z M206.7,70.1c0.7,0,1.4-0.4,1.7-1l0,0.9h0.6v-3
				c0.1-1-0.6-1.9-1.6-2c-0.1,0-0.2,0-0.3,0c-0.7,0-1.4,0.3-1.8,1l0.5,0.4c0.3-0.5,0.8-0.7,1.4-0.7c0.9,0,1.2,0.6,1.2,1.6h-1.1
				c-1.4,0-2.1,0.5-2.1,1.4c0,0.8,0.6,1.4,1.4,1.5C206.6,70.1,206.6,70.1,206.7,70.1L206.7,70.1z M206.8,69.5
				c-0.5,0-0.9-0.2-0.9-0.8c0-0.6,0.5-0.9,1.5-0.9h1C208.4,68.7,207.7,69.4,206.8,69.5L206.8,69.5z M214.5,70.1
				c0.8,0.1,1.6-0.5,1.7-1.4c0,0,0-0.1,0-0.1c0-1.8-2.6-1.2-2.6-2.3c0-0.4,0.3-0.7,0.9-0.7c0.5,0,0.9,0.3,1.1,0.7l0.5-0.3
				c-0.3-0.6-0.9-1-1.6-1c-0.8-0.1-1.5,0.5-1.5,1.2c0,0,0,0.1,0,0.1c0,1.7,2.6,1,2.6,2.3c0,0.5-0.4,0.8-1,0.8
				c-0.6,0-1.1-0.4-1.2-0.9l-0.6,0.3C213,69.6,213.7,70.1,214.5,70.1L214.5,70.1z M218.8,70.1c0.2,0,0.4,0,0.7-0.1v-0.6
				c-0.2,0.1-0.3,0.1-0.5,0.1c-0.4,0-0.6-0.2-0.6-0.8v-3h1.2v-0.6h-1.2v-1.8l-0.7,0.7v1.1h-0.8v0.6h0.8v3
				C217.6,69.5,217.9,70.1,218.8,70.1L218.8,70.1z M222.6,70.1c1.3,0,2.4-1.1,2.3-2.5c0,0,0-0.1,0-0.1c0.1-1.3-0.8-2.4-2.1-2.5
				c-1.3-0.1-2.4,0.8-2.5,2.1c0,0.1,0,0.3,0,0.4c-0.1,1.3,0.9,2.4,2.2,2.5C222.5,70.1,222.5,70.1,222.6,70.1L222.6,70.1z
				 M222.6,69.5c-1.1,0-1.6-1-1.6-1.9s0.5-1.9,1.6-1.9s1.6,0.9,1.6,1.9S223.7,69.5,222.6,69.5L222.6,69.5z M226.1,70h0.7v-2.4
				c0-1.2,0.5-1.8,1.3-1.8c0.2,0,0.4,0.1,0.6,0.2l0.3-0.6c-0.2-0.2-0.5-0.3-0.8-0.3c-0.6,0-1.2,0.4-1.4,1v-0.9h-0.7L226.1,70z
				 M230,64h0.8v-0.9H230V64z M230,70h0.7v-4.9H230V70z M233.6,70.1c0.7,0,1.4-0.4,1.7-1l0,0.9h0.6v-3c0.1-1-0.6-1.9-1.6-2
				c-0.1,0-0.2,0-0.3,0c-0.7,0-1.4,0.3-1.8,1l0.5,0.4c0.3-0.5,0.8-0.7,1.4-0.7c0.9,0,1.2,0.6,1.2,1.6h-1.1c-1.4,0-2.1,0.5-2.1,1.4
				c0,0.8,0.6,1.4,1.4,1.5C233.4,70.1,233.5,70.1,233.6,70.1z M233.6,69.5c-0.5,0-0.9-0.2-0.9-0.8c0-0.6,0.5-0.9,1.5-0.9h1
				C235.2,68.7,234.5,69.4,233.6,69.5L233.6,69.5z M32.1,76.5h0.7l-1.1-1.4h-0.9L32.1,76.5z M32.6,82.1c0.7,0,1.4-0.2,1.9-0.8
				L34,80.9c-0.4,0.4-0.9,0.6-1.4,0.5c-0.8,0-1.4-0.7-1.4-1.5c0-0.1,0-0.1,0-0.2h3.4c0-0.1,0-0.2,0-0.4c0-1.1-0.5-2.4-2.1-2.4
				c-1.4,0-2.1,1.2-2.1,2.5c-0.1,1.2,0.7,2.3,1.9,2.5C32.5,82.1,32.6,82.1,32.6,82.1L32.6,82.1z M31.2,79.2c0-0.8,0.5-1.6,1.4-1.6
				c1,0,1.4,0.8,1.4,1.6H31.2z M40.3,82.1c0.8,0,1.6-0.5,1.8-1.3l-0.6-0.3c-0.1,0.6-0.6,1-1.2,1c-1,0-1.4-1-1.4-1.9
				c0-0.9,0.4-1.9,1.4-1.9c0.6,0,1.1,0.4,1.2,1l0.7-0.3c-0.3-0.8-1.1-1.3-1.9-1.3c-1.4,0-2.1,1.2-2.1,2.5
				C38.2,80.9,38.9,82.1,40.3,82.1z M45.1,82.1c1.3,0,2.4-1.1,2.3-2.5c0,0,0-0.1,0-0.1c0.1-1.3-0.8-2.4-2.1-2.5s-2.4,0.8-2.5,2.1
				c0,0.1,0,0.3,0,0.4c-0.1,1.3,0.9,2.4,2.2,2.5C45.1,82.1,45.1,82.1,45.1,82.1L45.1,82.1z M45.1,81.5c-1.1,0-1.6-1-1.6-1.9
				s0.5-1.9,1.6-1.9c1.1,0,1.6,0.9,1.6,1.9S46.2,81.5,45.1,81.5L45.1,81.5z M49.7,81.5c-0.2,0-0.2-0.3-0.2-0.3v-6.1h-0.7V81
				c0,0.6,0.1,1.1,0.8,1.1c0.2,0,0.4,0,0.7-0.1v-0.6C50,81.4,49.8,81.5,49.7,81.5L49.7,81.5z M52.2,81.5c-0.2,0-0.2-0.3-0.2-0.3
				v-6.1h-0.7V81c0,0.6,0.1,1.1,0.8,1.1c0.2,0,0.4,0,0.7-0.1v-0.6C52.5,81.4,52.3,81.5,52.2,81.5L52.2,81.5z M55.7,82.1
				c1.3,0,2.4-1.1,2.3-2.5c0,0,0-0.1,0-0.1c0.1-1.3-0.8-2.4-2.1-2.5c-1.3-0.1-2.4,0.8-2.5,2.1c0,0.1,0,0.3,0,0.4
				c-0.1,1.3,0.9,2.4,2.2,2.5C55.6,82.1,55.6,82.1,55.7,82.1L55.7,82.1z M55.7,81.5c-1.1,0-1.6-1-1.6-1.9s0.5-1.9,1.6-1.9
				s1.6,0.9,1.6,1.9S56.8,81.5,55.7,81.5L55.7,81.5z M61,82.1c0.8,0,1.6-0.5,1.8-1.3l-0.6-0.3c-0.1,0.6-0.6,1-1.2,1
				c-1,0-1.4-1-1.4-1.9c0-0.9,0.4-1.9,1.4-1.9c0.6,0,1.1,0.4,1.2,1l0.7-0.3C62.6,77.5,61.8,77,61,77c-1.4,0-2.1,1.2-2.1,2.5
				C58.9,80.9,59.6,82.1,61,82.1L61,82.1z M65.1,82.1c0.7,0,1.4-0.4,1.7-1l0,0.9h0.6v-3c0.1-1-0.6-1.9-1.6-2c-0.1,0-0.2,0-0.3,0
				c-0.7,0-1.4,0.3-1.8,1l0.5,0.4c0.3-0.5,0.8-0.7,1.4-0.7c0.9,0,1.2,0.6,1.2,1.6h-1.1c-1.4,0-2.1,0.5-2.1,1.4
				c0,0.8,0.6,1.4,1.4,1.5C65,82.1,65,82.1,65.1,82.1L65.1,82.1z M65.2,81.5c-0.5,0-0.9-0.2-0.9-0.8c0-0.6,0.5-0.9,1.5-0.9h1
				C66.8,80.7,66.1,81.4,65.2,81.5L65.2,81.5z M70.3,82.1c0.2,0,0.4,0,0.7-0.1v-0.6c-0.2,0.1-0.3,0.1-0.5,0.1
				c-0.4,0-0.6-0.2-0.6-0.8v-3h1.2v-0.6h-1.2v-1.8L69.1,76v1.1h-0.8v0.6h0.8v3C69.1,81.5,69.4,82.1,70.3,82.1L70.3,82.1z M74.1,82.1
				c1.3,0,2.4-1.1,2.3-2.5c0,0,0-0.1,0-0.1c0.1-1.3-0.8-2.4-2.1-2.5c-1.3-0.1-2.4,0.8-2.5,2.1c0,0.1,0,0.3,0,0.4
				c-0.1,1.3,0.9,2.4,2.2,2.5C74,82.1,74,82.1,74.1,82.1L74.1,82.1z M74.1,81.5c-1.1,0-1.6-1-1.6-1.9s0.5-1.9,1.6-1.9
				s1.6,0.9,1.6,1.9S75.2,81.5,74.1,81.5L74.1,81.5z M80.3,82H81v-2.5c0-1.2,0.6-1.8,1.4-1.8c0.9,0,1.1,0.8,1.1,1.5V82h0.7v-3
				c0-1.1-0.5-2-1.6-2c-0.7,0-1.3,0.4-1.6,0.9v-0.8h-0.7V82z M87.6,82.1c0.7,0,1.4-0.2,1.9-0.8l-0.5-0.4c-0.4,0.4-0.9,0.6-1.4,0.5
				c-0.8,0-1.4-0.7-1.4-1.5c0-0.1,0-0.1,0-0.2h3.4c0-0.1,0-0.2,0-0.4c0-1.1-0.5-2.4-2.1-2.4c-1.4,0-2.1,1.2-2.1,2.5
				c-0.1,1.2,0.7,2.3,1.9,2.5C87.4,82.1,87.5,82.1,87.6,82.1L87.6,82.1z M86.1,79.2c0-0.8,0.5-1.6,1.4-1.6c1,0,1.4,0.8,1.4,1.6H86.1
				z M91.8,81.5c-0.2,0-0.2-0.3-0.2-0.3v-6.1h-0.7V81c0,0.6,0.1,1.1,0.8,1.1c0.2,0,0.4,0,0.7-0.1v-0.6
				C92.1,81.4,91.9,81.5,91.8,81.5L91.8,81.5z M95.9,84.1h1v-2.7c0.3,0.4,0.9,0.7,1.4,0.7c1.3,0,2-1.2,2-2.5c0-1.4-0.7-2.5-2-2.5
				c-0.6,0-1.1,0.2-1.4,0.7v-0.6h-1L95.9,84.1z M98.1,81.3c-0.9,0-1.3-0.8-1.3-1.7s0.4-1.7,1.3-1.7s1.3,0.8,1.3,1.7
				C99.4,80.5,99,81.3,98.1,81.3L98.1,81.3z M102.8,82.1c0.7,0,1.3-0.3,1.6-0.9l0,0.8h0.8v-3c0.1-1-0.7-1.9-1.7-2
				c-0.1,0-0.2,0-0.3,0c-0.8,0-1.5,0.4-1.9,1l0.7,0.5c0.3-0.4,0.7-0.7,1.3-0.7c0.8,0,1.1,0.5,1.1,1.3h-1.2c-1.2,0-2.1,0.4-2.1,1.4
				c0,0.8,0.7,1.5,1.5,1.5C102.7,82.1,102.7,82.1,102.8,82.1L102.8,82.1z M102.9,81.3c-0.5,0-0.8-0.2-0.8-0.7c0-0.5,0.4-0.8,1.1-0.8
				h1.1C104.3,80.6,103.7,81.3,102.9,81.3L102.9,81.3z M108,82.1c0.9,0.1,1.7-0.5,1.8-1.4c0,0,0-0.1,0-0.1c0-1.8-2.6-1.3-2.6-2.2
				c0-0.3,0.3-0.6,0.7-0.6c0.4,0,0.9,0.3,1,0.7l0.7-0.4c-0.3-0.6-1-1-1.7-1c-0.8-0.1-1.6,0.5-1.7,1.3c0,0,0,0.1,0,0.1
				c0,1.7,2.5,1.1,2.5,2.2c0,0.4-0.3,0.7-0.9,0.7c-0.5,0-1-0.3-1.1-0.9l-0.8,0.4C106.4,81.6,107.2,82.1,108,82.1L108,82.1z
				 M112.4,82.1c0.9,0.1,1.7-0.5,1.8-1.4c0-0.1,0-0.1,0-0.2c0-1.8-2.6-1.3-2.6-2.2c0-0.3,0.3-0.6,0.7-0.6c0.4,0,0.9,0.3,1,0.7
				l0.7-0.4c-0.3-0.6-1-1-1.7-1c-0.8-0.1-1.6,0.5-1.7,1.3c0,0,0,0.1,0,0.1c0,1.7,2.5,1.1,2.5,2.2c0,0.4-0.3,0.7-0.9,0.7
				c-0.5,0-1-0.3-1.1-0.9l-0.8,0.4C110.8,81.6,111.5,82.1,112.4,82.1L112.4,82.1z M116.5,82.1c0.7,0,1.3-0.3,1.6-0.9l0.1,0.8h0.8v-3
				c0.1-1-0.7-1.9-1.7-2c-0.1,0-0.2,0-0.3,0c-0.8,0-1.5,0.4-1.9,1l0.7,0.5c0.3-0.4,0.7-0.7,1.3-0.7c0.8,0,1.1,0.5,1.1,1.3h-1.2
				c-1.2,0-2.1,0.4-2.1,1.4c0,0.8,0.7,1.5,1.5,1.5C116.3,82.1,116.4,82.1,116.5,82.1L116.5,82.1z M116.6,81.3
				c-0.5,0-0.8-0.2-0.8-0.7c0-0.5,0.4-0.8,1.1-0.8h1.1C118,80.6,117.4,81.3,116.6,81.3L116.6,81.3z M121.8,82.1c0.3,0,0.5,0,0.8-0.1
				v-0.8c-0.2,0.1-0.4,0.1-0.6,0.2c-0.3,0-0.6-0.2-0.6-0.7v-2.7h1.2v-0.8h-1.2v-1.9l-0.9,0.8v1.2h-0.8v0.8h0.8v2.8
				c-0.1,0.7,0.4,1.3,1.1,1.4C121.7,82.1,121.7,82.1,121.8,82.1L121.8,82.1z M125.7,82.1c1.3,0,2.4-1.1,2.4-2.4c0,0,0-0.1,0-0.1
				c0.1-1.3-0.9-2.5-2.2-2.6c-1.3-0.1-2.5,0.9-2.6,2.2c0,0.1,0,0.2,0,0.3c-0.1,1.3,0.9,2.5,2.3,2.5
				C125.6,82.1,125.7,82.1,125.7,82.1L125.7,82.1z M125.7,81.3c-1,0-1.4-0.8-1.4-1.7c0-0.9,0.4-1.7,1.4-1.7s1.4,0.8,1.4,1.7
				C127.1,80.4,126.7,81.3,125.7,81.3L125.7,81.3z M133.8,82.1c1.3,0,2.4-1.1,2.3-2.5c0,0,0-0.1,0-0.1c0.1-1.3-0.8-2.4-2.1-2.5
				c-1.3-0.1-2.4,0.8-2.5,2.1c0,0.1,0,0.3,0,0.4c-0.1,1.3,0.9,2.4,2.2,2.5C133.7,82.1,133.8,82.1,133.8,82.1L133.8,82.1z
				 M133.8,81.5c-1.1,0-1.6-1-1.6-1.9s0.5-1.9,1.6-1.9s1.6,0.9,1.6,1.9C135.4,80.5,134.9,81.5,133.8,81.5L133.8,81.5z M140,76h0.8
				v-0.9H140V76z M140,82h0.7v-4.9H140V82z M142.4,82h0.7v-2.5c0-1.2,0.6-1.8,1.4-1.8c0.9,0,1.1,0.8,1.1,1.5V82h0.7v-3
				c0-1.1-0.5-2-1.6-2c-0.7,0-1.3,0.4-1.6,0.9v-0.8h-0.7V82z M152.1,82.1c0.6,0,1.2-0.4,1.5-0.9V82h0.7v-4.9h-0.7v2.7
				c0.1,0.9-0.6,1.6-1.5,1.7c0,0,0,0,0,0c-0.8,0-1-0.8-1-1.5v-2.9h-0.7V80C150.4,81.2,150.9,82.1,152.1,82.1z M156,82h0.7v-2.5
				c0-1.2,0.6-1.8,1.4-1.8c0.9,0,1.1,0.8,1.1,1.5V82h0.7v-3c0-1.1-0.5-2-1.6-2c-0.7,0-1.3,0.4-1.6,0.9v-0.8H156V82z M165.4,82.1
				c0.2,0,0.4,0,0.7-0.1v-0.6c-0.2,0.1-0.3,0.1-0.5,0.1c-0.4,0-0.6-0.2-0.6-0.8v-3h1.2v-0.6H165v-1.8l-0.7,0.7v1.1h-0.8v0.6h0.8v3
				C164.3,81.5,164.6,82.1,165.4,82.1L165.4,82.1z M169.1,82.1c0.7,0,1.4-0.2,1.9-0.8l-0.5-0.4c-0.4,0.4-0.9,0.6-1.4,0.5
				c-0.8,0-1.4-0.7-1.4-1.5c0-0.1,0-0.1,0-0.2h3.4c0-0.1,0-0.2,0-0.4c0-1.1-0.5-2.4-2.1-2.4c-1.4,0-2.1,1.2-2.1,2.5
				c-0.1,1.2,0.7,2.3,1.9,2.5C169,82.1,169.1,82.1,169.1,82.1L169.1,82.1z M167.7,79.2c0-0.8,0.5-1.6,1.4-1.6c1,0,1.4,0.8,1.4,1.6
				H167.7z M172.4,82h0.7v-2.5c0-0.9,0.4-1.8,1.2-1.8c0.8,0,1,0.8,1,1.5V82h0.7v-2.7c0-0.8,0.4-1.7,1.2-1.7c0.8,0,1,0.8,1,1.5V82
				h0.7v-3c0-1.1-0.5-2-1.7-2c-0.7,0-1.3,0.4-1.5,1c-0.3-0.8-1.2-1.2-2-0.9c-0.4,0.1-0.7,0.4-0.9,0.8v-0.8h-0.7V82z M180.7,84.1h0.7
				v-2.8c0.3,0.5,0.9,0.8,1.5,0.8c1.3,0,2-1.2,2-2.5c0-1.4-0.7-2.5-2-2.5c-0.6,0-1.2,0.3-1.5,0.8v-0.7h-0.7L180.7,84.1z M182.8,81.5
				c-1,0-1.4-0.9-1.4-1.9c0-1,0.4-1.9,1.4-1.9s1.4,0.9,1.4,1.9S183.8,81.5,182.8,81.5L182.8,81.5z M188.1,82.1
				c1.3,0,2.4-1.1,2.3-2.5c0,0,0-0.1,0-0.1c0.1-1.3-0.8-2.4-2.1-2.5c-1.3-0.1-2.4,0.8-2.5,2.1c0,0.1,0,0.3,0,0.4
				c-0.1,1.3,0.9,2.4,2.2,2.5C188,82.1,188.1,82.1,188.1,82.1L188.1,82.1z M188.1,81.5c-1.1,0-1.6-1-1.6-1.9s0.5-1.9,1.6-1.9
				s1.6,0.9,1.6,1.9C189.7,80.5,189.2,81.5,188.1,81.5L188.1,81.5z M194.2,76.1h1v-1h-1V76.1z M194.3,82h0.9v-4.9h-0.9V82z
				 M196.7,82h0.9v-2.6c0-1,0.5-1.5,1.2-1.5c0.7,0,1,0.6,1,1.3V82h0.9v-2.9c0-1.1-0.5-2-1.7-2c-0.6,0-1.2,0.3-1.5,0.8v-0.7h-0.9V82z
				 M205.4,75.1v2.6c-0.3-0.5-0.9-0.7-1.5-0.7c-1.3,0-2,1.2-2,2.5s0.7,2.5,2,2.5c0.6,0,1.1-0.2,1.5-0.7l0,0.6h0.9v-6.9H205.4z
				 M204.2,81.3c-0.9,0-1.3-0.8-1.3-1.7c0-0.9,0.4-1.7,1.3-1.7s1.3,0.8,1.3,1.7S205.1,81.3,204.2,81.3z M209.8,82.1
				c0.7,0,1.4-0.3,1.9-0.8l-0.7-0.6c-0.3,0.4-0.8,0.6-1.3,0.5c-0.7,0-1.3-0.5-1.3-1.2c0,0,0-0.1,0-0.1h3.4c0-0.1,0-0.3,0-0.4
				c0.2-1.2-0.7-2.2-1.9-2.4c-0.1,0-0.2,0-0.3,0c-1.3,0-2.3,1.1-2.3,2.3c0,0.1,0,0.1,0,0.2c-0.1,1.3,0.8,2.4,2,2.5
				C209.7,82.1,209.7,82.1,209.8,82.1L209.8,82.1z M208.5,79.2c0.1-0.7,0.4-1.3,1.2-1.3c0.8,0,1.2,0.6,1.2,1.3H208.5z M213.1,82h0.9
				v-4.1h1.7V82h0.9v-4.9h-2.6c0-0.7,0.2-1.3,1-1.3c0.4,0,0.8,0.2,1,0.5l0.5-0.7c-0.4-0.4-0.9-0.6-1.5-0.6c-1.4,0-1.9,1-1.9,2.1
				h-0.7v0.8h0.7L213.1,82z M218.2,82h0.9v-2.6c0-1,0.5-1.5,1.2-1.5c0.7,0,1,0.6,1,1.3V82h0.9v-2.9c0-1.1-0.5-2-1.7-2
				c-0.6,0-1.2,0.3-1.5,0.8v-0.7h-0.9V82z M223.7,76.1h1v-1h-1L223.7,76.1z M223.7,82h0.9v-4.9h-0.9V82z M227.8,82.1
				c0.3,0,0.5,0,0.8-0.1v-0.8c-0.2,0.1-0.4,0.1-0.6,0.2c-0.3,0-0.6-0.2-0.6-0.7v-2.7h1.2v-0.8h-1.2v-1.9l-0.9,0.8v1.2h-0.8v0.8h0.8
				v2.8c-0.1,0.7,0.4,1.3,1.1,1.4C227.6,82.1,227.7,82.1,227.8,82.1z M231.6,82.1c1.3,0,2.4-1.1,2.4-2.4c0,0,0-0.1,0-0.1
				c0.1-1.3-0.9-2.5-2.2-2.6c-1.3-0.1-2.5,0.9-2.6,2.2c0,0.1,0,0.2,0,0.3c-0.1,1.3,0.9,2.5,2.3,2.5
				C231.6,82.1,231.6,82.1,231.6,82.1z M231.6,81.3c-1,0-1.4-0.8-1.4-1.7c0-0.9,0.4-1.7,1.4-1.7s1.4,0.8,1.4,1.7
				S232.6,81.3,231.6,81.3L231.6,81.3z"/>
		</g>
		<path id="Path_161701" d="M415.9,36.7h0.8v-6.1l3,6.1h1.1v-6.9H420v6.1l-3-6.1h-1.1V36.7z M424.1,36.9c0.6,0,1.2-0.4,1.5-0.9v0.8
			h0.7v-4.9h-0.7v2.7c0.1,0.9-0.6,1.6-1.5,1.7c0,0,0,0,0,0c-0.8,0-1-0.8-1-1.5v-2.9h-0.7v2.8C422.5,35.9,422.9,36.9,424.1,36.9z
			 M428,36.7h0.7v-2.5c0-0.9,0.4-1.8,1.2-1.8c0.8,0,1,0.8,1,1.4v2.9h0.7V34c0-0.8,0.4-1.7,1.2-1.7c0.8,0,1,0.8,1,1.5v2.9h0.7v-3
			c0-1.1-0.5-2-1.7-2c-0.7,0-1.3,0.4-1.5,1c-0.2-0.6-0.8-1.1-1.5-1c-0.6,0-1.1,0.3-1.3,0.9v-0.8H428V36.7z M438.1,36.8
			c0.7,0,1.4-0.2,1.9-0.8l-0.5-0.4c-0.4,0.4-0.9,0.6-1.4,0.5c-0.8,0-1.4-0.7-1.4-1.5c0-0.1,0-0.1,0-0.2h3.4c0-0.1,0-0.2,0-0.4
			c0-1.1-0.5-2.4-2.1-2.4c-1.4,0-2.1,1.2-2.1,2.5c-0.1,1.2,0.7,2.3,1.9,2.5C438,36.8,438.1,36.8,438.1,36.8z M436.7,34
			c0-0.8,0.5-1.6,1.4-1.6c1,0,1.4,0.8,1.4,1.6H436.7z M441.4,36.7h0.7v-2.4c0-1.2,0.5-1.8,1.3-1.8c0.2,0,0.4,0.1,0.6,0.2l0.3-0.6
			c-0.2-0.2-0.5-0.3-0.8-0.3c-0.6,0-1.2,0.4-1.4,1v-0.9h-0.7L441.4,36.7z M446.8,36.8c1.3,0,2.4-1.1,2.3-2.5c0,0,0-0.1,0-0.1
			c0.1-1.3-0.9-2.4-2.2-2.5c0,0-0.1,0-0.1,0c-1.3,0-2.3,1.1-2.3,2.4c0,0,0,0.1,0,0.1c-0.1,1.3,0.9,2.4,2.2,2.5
			C446.7,36.8,446.7,36.8,446.8,36.8L446.8,36.8z M446.8,36.2c-1.1,0-1.6-1-1.6-1.9s0.5-1.9,1.6-1.9s1.6,0.9,1.6,1.9
			S447.9,36.2,446.8,36.2L446.8,36.2z M456.1,29.8v2.7c-0.3-0.5-0.9-0.8-1.5-0.8c-1.2,0-2,1.1-2,2.5s0.7,2.5,2,2.5
			c0.6,0,1.2-0.3,1.5-0.8l0,0.7h0.7v-6.9H456.1z M454.8,36.2c-1,0-1.4-0.9-1.4-1.9c0-1,0.4-1.9,1.4-1.9c1,0,1.4,0.9,1.4,1.9
			S455.8,36.2,454.8,36.2z M458.4,30.8h0.8v-0.9h-0.8V30.8z M458.5,36.7h0.7v-4.9h-0.7V36.7z M465.4,36.8c1.3,0,2.4-1.1,2.3-2.5
			c0,0,0-0.1,0-0.1c0.1-1.3-0.9-2.4-2.2-2.5c0,0-0.1,0-0.1,0c-1.3,0-2.3,1.1-2.3,2.4c0,0,0,0.1,0,0.1c-0.1,1.3,0.9,2.4,2.2,2.5
			C465.3,36.8,465.4,36.8,465.4,36.8z M465.4,36.2c-1.1,0-1.6-1-1.6-1.9s0.5-1.9,1.6-1.9s1.6,0.9,1.6,1.9S466.5,36.2,465.4,36.2
			L465.4,36.2z M470.7,36.8c0.8,0,1.6-0.5,1.8-1.3l-0.6-0.3c-0.1,0.6-0.6,1-1.2,1c-1,0-1.4-1-1.4-1.9c0-0.9,0.4-1.9,1.4-1.9
			c0.6,0,1.1,0.4,1.2,1l0.7-0.3c-0.3-0.8-1.1-1.3-1.9-1.3c-1.4,0-2.1,1.2-2.1,2.5C468.6,35.6,469.3,36.8,470.7,36.8z M475.4,36.8
			c0.8,0,1.6-0.5,1.8-1.3l-0.6-0.3c-0.1,0.6-0.6,1-1.2,1c-1,0-1.4-1-1.4-1.9c0-0.9,0.4-1.9,1.4-1.9c0.6,0,1.1,0.4,1.2,1l0.7-0.3
			c-0.3-0.8-1.1-1.3-1.9-1.3c-1.4,0-2.1,1.2-2.1,2.5C473.3,35.6,474,36.8,475.4,36.8L475.4,36.8z M480.3,36.8c1.3,0,2.4-1.1,2.3-2.5
			c0,0,0-0.1,0-0.1c0.1-1.3-0.9-2.4-2.2-2.5c0,0-0.1,0-0.1,0c-1.3,0-2.3,1.1-2.3,2.4c0,0,0,0.1,0,0.1c-0.1,1.3,0.9,2.4,2.2,2.5
			C480.2,36.8,480.3,36.8,480.3,36.8L480.3,36.8z M480.3,36.2c-1.1,0-1.6-1-1.6-1.9s0.5-1.9,1.6-1.9s1.6,0.9,1.6,1.9
			S481.4,36.2,480.3,36.2L480.3,36.2z M483.9,36.7h0.7v-2.4c0-1.2,0.5-1.8,1.3-1.8c0.2,0,0.4,0.1,0.6,0.2l0.3-0.6
			c-0.2-0.2-0.5-0.3-0.8-0.3c-0.6,0-1.2,0.4-1.4,1v-0.9h-0.7L483.9,36.7z M487.8,36.7h0.7v-2.4c0-1.2,0.5-1.8,1.3-1.8
			c0.2,0,0.4,0.1,0.6,0.2l0.3-0.6c-0.2-0.2-0.5-0.3-0.8-0.3c-0.6,0-1.2,0.4-1.4,1v-0.9h-0.7V36.7z M493,36.8c0.7,0,1.4-0.2,1.9-0.8
			l-0.5-0.4c-0.4,0.4-0.9,0.6-1.4,0.5c-0.8,0-1.4-0.7-1.4-1.5c0-0.1,0-0.1,0-0.2h3.4c0-0.1,0-0.2,0-0.4c0-1.1-0.5-2.4-2.1-2.4
			c-1.4,0-2.1,1.2-2.1,2.5c-0.1,1.2,0.7,2.3,1.9,2.5C492.9,36.8,493,36.8,493,36.8L493,36.8z M491.6,34c0-0.8,0.5-1.6,1.4-1.6
			c1,0,1.4,0.8,1.4,1.6H491.6z M496.3,36.7h0.7v-2.5c0-1.2,0.6-1.8,1.4-1.8c0.9,0,1.1,0.8,1.1,1.5v2.9h0.7v-3c0-1.1-0.5-2-1.6-2
			c-0.7,0-1.3,0.4-1.6,0.9v-0.9h-0.7V36.7z M505.1,31.9h-3.7v0.6h2.8l-3,3.7v0.6h3.8v-0.6h-2.9l2.9-3.7L505.1,31.9z M508.1,36.8
			c0.7,0,1.4-0.2,1.9-0.8l-0.5-0.4c-0.4,0.4-0.9,0.6-1.4,0.5c-0.8,0-1.4-0.7-1.4-1.5c0-0.1,0-0.1,0-0.2h3.4c0-0.1,0-0.2,0-0.4
			c0-1.1-0.5-2.4-2.1-2.4c-1.4,0-2.1,1.2-2.1,2.5c-0.1,1.2,0.7,2.3,1.9,2.5C507.9,36.8,508,36.8,508.1,36.8z M506.7,34
			c0-0.8,0.5-1.6,1.4-1.6c1,0,1.4,0.8,1.4,1.6H506.7z"/>
		<circle id="Ellipse_33243" class="st7" cx="399.6" cy="36.4" r="2.9"/>
		<circle id="Ellipse_33244" class="st7" cx="399.7" cy="32.9" r="6.3"/>
		<path id="Path_159707" d="M392.2,12h2.2c2.7,0,4.2-1.5,4.2-4.1c0-2.7-1.5-4.2-4.2-4.2h-2.2V12z M393.4,10.9V4.8h1
			c2.1,0,3.1,1,3.1,3.1c0,2.2-1.3,3.1-3.2,3.1L393.4,10.9z M400.5,12h1.2V3.7h-1.2V12z M404,12h1.2V5.1l2.3,6.2h1.2l2.3-6.2V12h1.2
			V3.7h-1.7L408,10l-2.3-6.3H404L404,12z M414.4,12h5.4v-1.1h-4.2V8.4h3.8V7.3h-3.8V4.8h4.2V3.7h-5.4V12z M421.7,12h1.2V5.4l3.5,6.6
			h1.4V3.7h-1.2v6.6l-3.5-6.6h-1.4V12z M432.3,12.1c1.4,0.1,2.6-0.9,2.7-2.2c0-0.1,0-0.1,0-0.2c0-2.7-4-2.2-4-3.9
			c0-0.6,0.5-1.1,1.1-1.1c0,0,0,0,0.1,0c0.6,0,1.2,0.4,1.5,0.9l0.9-0.6c-0.5-0.9-1.4-1.4-2.4-1.4c-1.2-0.1-2.3,0.8-2.4,2
			c0,0.1,0,0.1,0,0.2c0,2.6,4,2,4,4c0,0.8-0.6,1.3-1.5,1.3c-0.9,0.1-1.8-0.6-1.9-1.5c0,0,0,0,0,0l-1.2,0.3
			C429.6,11.2,430.9,12.2,432.3,12.1z M436.7,12h1.2V3.7h-1.2V12z M443.5,12.1c2.6,0,3.9-2,3.9-4.3s-1.2-4.3-3.8-4.3s-3.8,2-3.8,4.3
			S440.9,12.1,443.5,12.1L443.5,12.1z M443.5,11c-1.9,0-2.6-1.5-2.6-3.2s0.7-3.2,2.6-3.2s2.6,1.5,2.6,3.2S445.4,11,443.5,11
			L443.5,11z M449.1,12h1.2V5.4l3.5,6.6h1.4V3.7H454v6.6l-3.5-6.6h-1.4V12z M457.5,12h5.4v-1.1h-4.2V8.4h3.8V7.3h-3.8V4.8h4.2V3.7
			h-5.4L457.5,12z M213,248"/>
	</g>
</g>
</svg>
