<svg xmlns="http://www.w3.org/2000/svg" xmlns:xlink="http://www.w3.org/1999/xlink" viewBox="0 0 460 106.07"><defs><style>.cls-1,.cls-2,.cls-27,.cls-3,.cls-4,.cls-5{fill:none;stroke-miterlimit:10;}.cls-1{stroke:#4f4f4f;}.cls-1,.cls-3,.cls-4,.cls-5{stroke-width:0.5px;}.cls-2{stroke:#0d1b3a;}.cls-2,.cls-27{stroke-width:0.25px;}.cls-3{stroke:#00ffb6;}.cls-4{stroke:#d34709;}.cls-5{stroke:#c17b0c;}.cls-13,.cls-23,.cls-6{font-size:8px;font-family:HKGrotesk-Light, HK Grotesk;font-weight:300;}.cls-16,.cls-6{letter-spacing:0em;}.cls-7{font-size:12px;}.cls-19,.cls-7{font-family:HKGrotesk-Medium, HK Grotesk;font-weight:500;}.cls-8{letter-spacing:0em;}.cls-9{letter-spacing:-0.07em;}.cls-10{letter-spacing:0em;}.cls-11{letter-spacing:-0.01em;}.cls-12{letter-spacing:0em;}.cls-14,.cls-23{letter-spacing:0em;}.cls-15{letter-spacing:0em;}.cls-17{letter-spacing:-0.01em;}.cls-18{letter-spacing:0em;}.cls-20{clip-path:url(#clip-path);}.cls-21{clip-path:url(#clip-path-2);}.cls-22{clip-path:url(#clip-path-3);}.cls-24{clip-path:url(#clip-path-4);}.cls-25{clip-path:url(#clip-path-5);}.cls-26{fill:#dbdbdb;}.cls-27{stroke:#000;}</style><clipPath id="clip-path"><rect class="cls-1" x="1.5" y="35.5" width="14" height="8" rx="4"/></clipPath><clipPath id="clip-path-2"><rect class="cls-2" x="203.5" y="35.5" width="14" height="8" rx="4"/></clipPath><clipPath id="clip-path-3"><rect class="cls-3" x="203.5" y="55.83" width="14" height="8" rx="4"/></clipPath><clipPath id="clip-path-4"><rect class="cls-4" x="203.5" y="76.17" width="14" height="8" rx="4"/></clipPath><clipPath id="clip-path-5"><rect class="cls-5" x="203.5" y="96.5" width="14" height="8" rx="4"/></clipPath></defs><title>legenda_01</title><g id="Isolation_Mode" data-name="Isolation Mode"><text class="cls-6" transform="translate(363.7 43.01)">Numero di occorrenze</text><text class="cls-7" transform="translate(0.39 22.99)">TEMPO<tspan class="cls-8" x="41.7" y="0">R</tspan><tspan x="49.2" y="0">ALI</tspan><tspan class="cls-9" x="67.02" y="0">T</tspan><tspan class="cls-10" x="73.52" y="0">À</tspan></text><text class="cls-7" transform="translate(203.39 22.99)"><tspan class="cls-11">C</tspan><tspan class="cls-10" x="8.57" y="0">ONTE</tspan><tspan class="cls-12" x="41.17" y="0">S</tspan><tspan x="47.95" y="0">TI</tspan></text><text class="cls-7" transform="translate(340.89 23.99)">DIMENSIONE</text><text class="cls-13" transform="translate(22.2 42.26)"><tspan class="cls-14">A</tspan><tspan x="5.09" y="0">mbientazioni di </tspan><tspan class="cls-15" x="61.65" y="0">t</tspan><tspan x="64.15" y="0">esti in </tspan><tspan class="cls-16" x="87.26" y="0">c</tspan><tspan x="91.29" y="0">ui il </tspan><tspan class="cls-17" x="106.01" y="0">t</tspan><tspan class="cls-18" x="108.52" y="0">empo</tspan><tspan x="0" y="9.6">il tempo è collocato nel </tspan><tspan class="cls-19" x="85.65" y="9.6">presente</tspan></text><g class="cls-20"><line class="cls-1" x1="-42.53" y1="36.83" x2="28.87" y2="108.23"/><line class="cls-1" x1="-40.13" y1="35.63" x2="31.27" y2="107.03"/><line class="cls-1" x1="-37.73" y1="34.43" x2="33.67" y2="105.83"/><line class="cls-1" x1="-35.33" y1="33.23" x2="36.07" y2="104.63"/><line class="cls-1" x1="-32.93" y1="32.03" x2="38.47" y2="103.43"/><line class="cls-1" x1="-30.53" y1="30.83" x2="40.87" y2="102.23"/><line class="cls-1" x1="-28.13" y1="29.63" x2="43.27" y2="101.03"/><line class="cls-1" x1="-25.73" y1="28.43" x2="45.67" y2="99.83"/><line class="cls-1" x1="-23.33" y1="27.23" x2="48.07" y2="98.63"/><line class="cls-1" x1="-20.93" y1="26.03" x2="50.47" y2="97.43"/><line class="cls-1" x1="-18.53" y1="24.83" x2="52.87" y2="96.23"/><line class="cls-1" x1="-16.13" y1="23.63" x2="55.27" y2="95.03"/><line class="cls-1" x1="-13.73" y1="22.43" x2="57.67" y2="93.83"/><line class="cls-1" x1="-11.33" y1="21.23" x2="60.07" y2="92.63"/><line class="cls-1" x1="-8.93" y1="20.03" x2="62.47" y2="91.43"/><line class="cls-1" x1="-6.53" y1="18.83" x2="64.87" y2="90.23"/><line class="cls-1" x1="-4.13" y1="17.63" x2="67.27" y2="89.03"/><line class="cls-1" x1="-1.73" y1="16.43" x2="69.67" y2="87.83"/><line class="cls-1" x1="0.67" y1="15.23" x2="72.07" y2="86.63"/><line class="cls-1" x1="3.07" y1="14.03" x2="74.47" y2="85.43"/><line class="cls-1" x1="5.47" y1="12.83" x2="76.87" y2="84.23"/></g><rect class="cls-1" x="1.5" y="35.5" width="14" height="8" rx="4"/><text class="cls-6" transform="translate(226.2 42.26)">Guerra</text><g class="cls-21"><line class="cls-2" x1="159.47" y1="36.83" x2="230.87" y2="108.23"/><line class="cls-2" x1="161.87" y1="35.63" x2="233.27" y2="107.03"/><line class="cls-2" x1="164.27" y1="34.43" x2="235.67" y2="105.83"/><line class="cls-2" x1="166.67" y1="33.23" x2="238.07" y2="104.63"/><line class="cls-2" x1="169.07" y1="32.03" x2="240.47" y2="103.43"/><line class="cls-2" x1="171.47" y1="30.83" x2="242.87" y2="102.23"/><line class="cls-2" x1="173.87" y1="29.63" x2="245.27" y2="101.03"/><line class="cls-2" x1="176.27" y1="28.43" x2="247.67" y2="99.83"/><line class="cls-2" x1="178.67" y1="27.23" x2="250.07" y2="98.63"/><line class="cls-2" x1="181.07" y1="26.03" x2="252.47" y2="97.43"/><line class="cls-2" x1="183.47" y1="24.83" x2="254.87" y2="96.23"/><line class="cls-2" x1="185.87" y1="23.63" x2="257.27" y2="95.03"/><line class="cls-2" x1="188.27" y1="22.43" x2="259.67" y2="93.83"/><line class="cls-2" x1="190.67" y1="21.23" x2="262.07" y2="92.63"/><line class="cls-2" x1="193.07" y1="20.03" x2="264.47" y2="91.43"/><line class="cls-2" x1="195.47" y1="18.83" x2="266.87" y2="90.23"/><line class="cls-2" x1="197.87" y1="17.63" x2="269.27" y2="89.03"/><line class="cls-2" x1="200.27" y1="16.43" x2="271.67" y2="87.83"/><line class="cls-2" x1="202.67" y1="15.23" x2="274.07" y2="86.63"/><line class="cls-2" x1="205.07" y1="14.03" x2="276.47" y2="85.43"/><line class="cls-2" x1="207.47" y1="12.83" x2="278.87" y2="84.23"/></g><rect class="cls-2" x="203.5" y="35.5" width="14" height="8" rx="4"/><text class="cls-6" transform="translate(226.2 62.59)">Natura ligure</text><g class="cls-22"><line class="cls-3" x1="159.47" y1="57.16" x2="230.87" y2="128.56"/><line class="cls-3" x1="161.87" y1="55.96" x2="233.27" y2="127.36"/><line class="cls-3" x1="164.27" y1="54.76" x2="235.67" y2="126.16"/><line class="cls-3" x1="166.67" y1="53.56" x2="238.07" y2="124.96"/><line class="cls-3" x1="169.07" y1="52.36" x2="240.47" y2="123.76"/><line class="cls-3" x1="171.47" y1="51.16" x2="242.87" y2="122.56"/><line class="cls-3" x1="173.87" y1="49.96" x2="245.27" y2="121.36"/><line class="cls-3" x1="176.27" y1="48.76" x2="247.67" y2="120.16"/><line class="cls-3" x1="178.67" y1="47.56" x2="250.07" y2="118.96"/><line class="cls-3" x1="181.07" y1="46.36" x2="252.47" y2="117.76"/><line class="cls-3" x1="183.47" y1="45.16" x2="254.87" y2="116.56"/><line class="cls-3" x1="185.87" y1="43.96" x2="257.27" y2="115.36"/><line class="cls-3" x1="188.27" y1="42.76" x2="259.67" y2="114.16"/><line class="cls-3" x1="190.67" y1="41.56" x2="262.07" y2="112.96"/><line class="cls-3" x1="193.07" y1="40.36" x2="264.47" y2="111.76"/><line class="cls-3" x1="195.47" y1="39.16" x2="266.87" y2="110.56"/><line class="cls-3" x1="197.87" y1="37.96" x2="269.27" y2="109.36"/><line class="cls-3" x1="200.27" y1="36.76" x2="271.67" y2="108.16"/><line class="cls-3" x1="202.67" y1="35.56" x2="274.07" y2="106.96"/><line class="cls-3" x1="205.07" y1="34.36" x2="276.47" y2="105.76"/><line class="cls-3" x1="207.47" y1="33.16" x2="278.87" y2="104.56"/></g><rect class="cls-3" x="203.5" y="55.83" width="14" height="8" rx="4"/><text class="cls-23" transform="translate(226.2 82.93)">Ambiente urbano</text><g class="cls-24"><line class="cls-4" x1="159.47" y1="77.49" x2="230.87" y2="148.89"/><line class="cls-4" x1="161.87" y1="76.29" x2="233.27" y2="147.69"/><line class="cls-4" x1="164.27" y1="75.09" x2="235.67" y2="146.49"/><line class="cls-4" x1="166.67" y1="73.89" x2="238.07" y2="145.29"/><line class="cls-4" x1="169.07" y1="72.69" x2="240.47" y2="144.09"/><line class="cls-4" x1="171.47" y1="71.49" x2="242.87" y2="142.89"/><line class="cls-4" x1="173.87" y1="70.29" x2="245.27" y2="141.69"/><line class="cls-4" x1="176.27" y1="69.09" x2="247.67" y2="140.49"/><line class="cls-4" x1="178.67" y1="67.89" x2="250.07" y2="139.29"/><line class="cls-4" x1="181.07" y1="66.69" x2="252.47" y2="138.09"/><line class="cls-4" x1="183.47" y1="65.49" x2="254.87" y2="136.89"/><line class="cls-4" x1="185.87" y1="64.29" x2="257.27" y2="135.69"/><line class="cls-4" x1="188.27" y1="63.09" x2="259.67" y2="134.49"/><line class="cls-4" x1="190.67" y1="61.89" x2="262.07" y2="133.29"/><line class="cls-4" x1="193.07" y1="60.69" x2="264.47" y2="132.09"/><line class="cls-4" x1="195.47" y1="59.49" x2="266.87" y2="130.89"/><line class="cls-4" x1="197.87" y1="58.29" x2="269.27" y2="129.69"/><line class="cls-4" x1="200.27" y1="57.09" x2="271.67" y2="128.49"/><line class="cls-4" x1="202.67" y1="55.89" x2="274.07" y2="127.29"/><line class="cls-4" x1="205.07" y1="54.69" x2="276.47" y2="126.09"/><line class="cls-4" x1="207.47" y1="53.49" x2="278.87" y2="124.89"/></g><rect class="cls-4" x="203.5" y="76.17" width="14" height="8" rx="4"/><text class="cls-23" transform="translate(226.2 103.26)">Fabbrica</text><g class="cls-25"><line class="cls-5" x1="159.47" y1="97.83" x2="230.87" y2="169.23"/><line class="cls-5" x1="161.87" y1="96.63" x2="233.27" y2="168.03"/><line class="cls-5" x1="164.27" y1="95.43" x2="235.67" y2="166.83"/><line class="cls-5" x1="166.67" y1="94.23" x2="238.07" y2="165.63"/><line class="cls-5" x1="169.07" y1="93.03" x2="240.47" y2="164.43"/><line class="cls-5" x1="171.47" y1="91.83" x2="242.87" y2="163.23"/><line class="cls-5" x1="173.87" y1="90.63" x2="245.27" y2="162.03"/><line class="cls-5" x1="176.27" y1="89.43" x2="247.67" y2="160.83"/><line class="cls-5" x1="178.67" y1="88.23" x2="250.07" y2="159.63"/><line class="cls-5" x1="181.07" y1="87.03" x2="252.47" y2="158.43"/><line class="cls-5" x1="183.47" y1="85.83" x2="254.87" y2="157.23"/><line class="cls-5" x1="185.87" y1="84.63" x2="257.27" y2="156.03"/><line class="cls-5" x1="188.27" y1="83.43" x2="259.67" y2="154.83"/><line class="cls-5" x1="190.67" y1="82.23" x2="262.07" y2="153.63"/><line class="cls-5" x1="193.07" y1="81.03" x2="264.47" y2="152.43"/><line class="cls-5" x1="195.47" y1="79.83" x2="266.87" y2="151.23"/><line class="cls-5" x1="197.87" y1="78.63" x2="269.27" y2="150.03"/><line class="cls-5" x1="200.27" y1="77.43" x2="271.67" y2="148.83"/><line class="cls-5" x1="202.67" y1="76.23" x2="274.07" y2="147.63"/><line class="cls-5" x1="205.07" y1="75.03" x2="276.47" y2="146.43"/><line class="cls-5" x1="207.47" y1="73.83" x2="278.87" y2="145.23"/></g><rect class="cls-5" x="203.5" y="96.5" width="14" height="8" rx="4"/><path class="cls-26" d="M5.5,73.83a3.5,3.5,0,0,1,0-7h6a3.5,3.5,0,0,1,0,7Z"/><path class="cls-26" d="M11.5,67.33a3,3,0,0,1,0,6h-6a3,3,0,0,1,0-6h6m0-1h-6a4,4,0,0,0,0,8h6a4,4,0,0,0,0-8Z"/><text class="cls-13" transform="translate(22.2 73.09)"><tspan class="cls-14">A</tspan><tspan x="5.09" y="0">mbientazioni di </tspan><tspan class="cls-15" x="61.65" y="0">t</tspan><tspan x="64.15" y="0">esti in </tspan><tspan class="cls-16" x="87.26" y="0">c</tspan><tspan x="91.29" y="0">ui il </tspan><tspan class="cls-17" x="106.01" y="0">t</tspan><tspan class="cls-18" x="108.52" y="0">empo </tspan><tspan x="0" y="9.6">della storia è collocato nel </tspan><tspan class="cls-19" x="96.49" y="9.6">passato </tspan></text><circle class="cls-27" cx="346.5" cy="42.5" r="2.5"/><circle class="cls-27" cx="346.5" cy="39.5" r="5.5"/></g></svg>