<svg xmlns="http://www.w3.org/2000/svg" xmlns:xlink="http://www.w3.org/1999/xlink" width="600" height="150" viewBox="0 0 600 150"><defs><clipPath id="a"><path d="M209,35.5h9c3.3,0,6,2.25,6,5h0c0,2.75-2.7,5-6,5h-9c-3.3,0-6-2.25-6-5h0C203,37.75,205.7,35.5,209,35.5Z" transform="translate(-203 -35.5)"/></clipPath><clipPath id="b"><path d="M209,55.8h9c3.3,0,6,2.25,6,5h0c0,2.75-2.7,5-6,5h-9c-3.3,0-6-2.25-6-5h0C203,58.05,205.7,55.8,209,55.8Z" transform="translate(-203 -55.8)"/></clipPath><clipPath id="c"><path d="M209,76.2h9c3.3,0,6,2.25,6,5h0c0,2.75-2.7,5-6,5h-9c-3.3,0-6-2.25-6-5h0C203,78.45,205.7,76.2,209,76.2Z" transform="translate(-203 -76.2)"/></clipPath><clipPath id="d"><path d="M209,96.5h9c3.3,0,6,2.25,6,5h0c0,2.75-2.7,5-6,5h-9c-3.3,0-6-2.25-6-5h0C203,98.75,205.7,96.5,209,96.5Z" transform="translate(-203 -96.5)"/></clipPath><clipPath id="e"><path d="M209.5,35.5h9c3.3,0,6,2.25,6,5h0c0,2.75-2.7,5-6,5h-9c-3.3,0-6-2.25-6-5h0C203.5,37.75,206.2,35.5,209.5,35.5Z" transform="translate(-203.5 -35.5)"/></clipPath><clipPath id="g"><rect width="600" height="150"/></clipPath></defs><g id="f" clip-path="url(#g)"><text transform="translate(272.295 34.867)" font-size="8" font-family="HKGrotesk-Regular, HK Grotesk"><tspan x="0" y="0">Metropoli</tspan></text><g transform="translate(243.086 28.299)" clip-path="url(#a)"><line x2="107.1" y2="89.25" transform="translate(-66 1.625)" fill="none" stroke="#f36" stroke-miterlimit="10" stroke-width="0.5"/><line x2="107.1" y2="89.25" transform="translate(-62.4 0.125)" fill="none" stroke="#f36" stroke-miterlimit="10" stroke-width="0.5"/><line x2="107.1" y2="89.25" transform="translate(-58.8 -1.375)" fill="none" stroke="#f36" stroke-miterlimit="10" stroke-width="0.5"/><line x2="107.1" y2="89.25" transform="translate(-55.2 -2.875)" fill="none" stroke="#f36" stroke-miterlimit="10" stroke-width="0.5"/><line x2="107.1" y2="89.25" transform="translate(-51.6 -4.375)" fill="none" stroke="#f36" stroke-miterlimit="10" stroke-width="0.5"/><line x2="107.1" y2="89.25" transform="translate(-48 -5.875)" fill="none" stroke="#f36" stroke-miterlimit="10" stroke-width="0.5"/><line x2="107.1" y2="89.25" transform="translate(-44.4 -7.375)" fill="none" stroke="#f36" stroke-miterlimit="10" stroke-width="0.5"/><line x2="107.1" y2="89.25" transform="translate(-40.8 -8.875)" fill="none" stroke="#f36" stroke-miterlimit="10" stroke-width="0.5"/><line x2="107.1" y2="89.25" transform="translate(-37.2 -10.375)" fill="none" stroke="#f36" stroke-miterlimit="10" stroke-width="0.5"/><line x2="107.1" y2="89.25" transform="translate(-33.6 -11.875)" fill="none" stroke="#f36" stroke-miterlimit="10" stroke-width="0.5"/><line x2="107.1" y2="89.25" transform="translate(-30 -13.375)" fill="none" stroke="#f36" stroke-miterlimit="10" stroke-width="0.5"/><line x2="107.1" y2="89.25" transform="translate(-26.4 -14.875)" fill="none" stroke="#f36" stroke-miterlimit="10" stroke-width="0.5"/><line x2="107.1" y2="89.25" transform="translate(-22.8 -16.375)" fill="none" stroke="#f36" stroke-miterlimit="10" stroke-width="0.5"/><line x2="107.1" y2="89.25" transform="translate(-19.2 -17.875)" fill="none" stroke="#f36" stroke-miterlimit="10" stroke-width="0.5"/><line x2="107.1" y2="89.25" transform="translate(-15.6 -19.375)" fill="none" stroke="#f36" stroke-miterlimit="10" stroke-width="0.5"/><line x2="107.1" y2="89.25" transform="translate(-12 -20.875)" fill="none" stroke="#f36" stroke-miterlimit="10" stroke-width="0.5"/><line x2="107.1" y2="89.25" transform="translate(-8.4 -22.375)" fill="none" stroke="#f36" stroke-miterlimit="10" stroke-width="0.5"/><line x2="107.1" y2="89.25" transform="translate(-4.8 -23.875)" fill="none" stroke="#f36" stroke-miterlimit="10" stroke-width="0.5"/><line x2="107.1" y2="89.25" transform="translate(-1.2 -25.375)" fill="none" stroke="#f36" stroke-miterlimit="10" stroke-width="0.5"/><line x2="107.1" y2="89.25" transform="translate(2.4 -26.875)" fill="none" stroke="#f36" stroke-miterlimit="10" stroke-width="0.5"/><line x2="107.1" y2="89.25" transform="translate(6 -28.375)" fill="none" stroke="#f36" stroke-miterlimit="10" stroke-width="0.5"/></g><path d="M209,35.5h9c3.3,0,6,2.25,6,5h0c0,2.75-2.7,5-6,5h-9c-3.3,0-6-2.25-6-5h0C203,37.75,205.7,35.5,209,35.5Z" transform="translate(40.086 -7.201)" fill="none" stroke="#f36" stroke-miterlimit="10" stroke-width="0.5"/><text transform="translate(272.295 59.34)" font-size="9" font-family="HKGrotesk-Regular, HK Grotesk"><tspan x="0" y="0">Paesaggio urbano</tspan></text><g transform="translate(243.086 51.737)" clip-path="url(#b)"><line x2="107.1" y2="89.25" transform="translate(-66 1.75)" fill="none" stroke="#8131f4" stroke-miterlimit="10" stroke-width="0.5"/><line x2="107.1" y2="89.25" transform="translate(-62.4 0.25)" fill="none" stroke="#8131f4" stroke-miterlimit="10" stroke-width="0.5"/><line x2="107.1" y2="89.25" transform="translate(-58.8 -1.25)" fill="none" stroke="#8131f4" stroke-miterlimit="10" stroke-width="0.5"/><line x2="107.1" y2="89.25" transform="translate(-55.2 -2.75)" fill="none" stroke="#8131f4" stroke-miterlimit="10" stroke-width="0.5"/><line x2="107.1" y2="89.25" transform="translate(-51.6 -4.25)" fill="none" stroke="#8131f4" stroke-miterlimit="10" stroke-width="0.5"/><line x2="107.1" y2="89.25" transform="translate(-48 -5.75)" fill="none" stroke="#8131f4" stroke-miterlimit="10" stroke-width="0.5"/><line x2="107.1" y2="89.25" transform="translate(-44.4 -7.25)" fill="none" stroke="#8131f4" stroke-miterlimit="10" stroke-width="0.5"/><line x2="107.1" y2="89.25" transform="translate(-40.8 -8.75)" fill="none" stroke="#8131f4" stroke-miterlimit="10" stroke-width="0.5"/><line x2="107.1" y2="89.25" transform="translate(-37.2 -10.25)" fill="none" stroke="#8131f4" stroke-miterlimit="10" stroke-width="0.5"/><line x2="107.1" y2="89.25" transform="translate(-33.6 -11.75)" fill="none" stroke="#8131f4" stroke-miterlimit="10" stroke-width="0.5"/><line x2="107.1" y2="89.25" transform="translate(-30 -13.25)" fill="none" stroke="#8131f4" stroke-miterlimit="10" stroke-width="0.5"/><line x2="107.1" y2="89.25" transform="translate(-26.4 -14.75)" fill="none" stroke="#8131f4" stroke-miterlimit="10" stroke-width="0.5"/><line x2="107.1" y2="89.25" transform="translate(-22.8 -16.25)" fill="none" stroke="#8131f4" stroke-miterlimit="10" stroke-width="0.5"/><line x2="107.1" y2="89.25" transform="translate(-19.2 -17.75)" fill="none" stroke="#8131f4" stroke-miterlimit="10" stroke-width="0.5"/><line x2="107.1" y2="89.25" transform="translate(-15.6 -19.25)" fill="none" stroke="#8131f4" stroke-miterlimit="10" stroke-width="0.5"/><line x2="107.1" y2="89.25" transform="translate(-12 -20.75)" fill="none" stroke="#8131f4" stroke-miterlimit="10" stroke-width="0.5"/><line x2="107.1" y2="89.25" transform="translate(-8.4 -22.25)" fill="none" stroke="#8131f4" stroke-miterlimit="10" stroke-width="0.5"/><line x2="107.1" y2="89.25" transform="translate(-4.8 -23.75)" fill="none" stroke="#8131f4" stroke-miterlimit="10" stroke-width="0.5"/><line x2="107.1" y2="89.25" transform="translate(-1.2 -25.25)" fill="none" stroke="#8131f4" stroke-miterlimit="10" stroke-width="0.5"/><line x2="107.1" y2="89.25" transform="translate(2.4 -26.75)" fill="none" stroke="#8131f4" stroke-miterlimit="10" stroke-width="0.5"/><line x2="107.1" y2="89.25" transform="translate(6 -28.25)" fill="none" stroke="#8131f4" stroke-miterlimit="10" stroke-width="0.5"/></g><path d="M209,55.8h9c3.3,0,6,2.25,6,5h0c0,2.75-2.7,5-6,5h-9c-3.3,0-6-2.25-6-5h0C203,58.05,205.7,55.8,209,55.8Z" transform="translate(40.086 -4.063)" fill="none" stroke="#8131f4" stroke-miterlimit="10" stroke-width="0.5"/><text transform="translate(272.295 82.824)" font-size="9" font-family="HKGrotesk-Regular, HK Grotesk"><tspan x="0" y="0">Paesaggio cosmico</tspan></text><g transform="translate(243.086 75.291)" clip-path="url(#c)"><line x2="107.1" y2="89.25" transform="translate(-66 1.625)" fill="none" stroke="#0505c4" stroke-miterlimit="10" stroke-width="0.5"/><line x2="107.1" y2="89.25" transform="translate(-62.4 0.125)" fill="none" stroke="#0505c4" stroke-miterlimit="10" stroke-width="0.5"/><line x2="107.1" y2="89.25" transform="translate(-58.8 -1.375)" fill="none" stroke="#0505c4" stroke-miterlimit="10" stroke-width="0.5"/><line x2="107.1" y2="89.25" transform="translate(-55.2 -2.875)" fill="none" stroke="#0505c4" stroke-miterlimit="10" stroke-width="0.5"/><line x2="107.1" y2="89.25" transform="translate(-51.6 -4.375)" fill="none" stroke="#0505c4" stroke-miterlimit="10" stroke-width="0.5"/><line x2="107.1" y2="89.25" transform="translate(-48 -5.875)" fill="none" stroke="#0505c4" stroke-miterlimit="10" stroke-width="0.5"/><line x2="107.1" y2="89.25" transform="translate(-44.4 -7.375)" fill="none" stroke="#0505c4" stroke-miterlimit="10" stroke-width="0.5"/><line x2="107.1" y2="89.25" transform="translate(-40.8 -8.875)" fill="none" stroke="#0505c4" stroke-miterlimit="10" stroke-width="0.5"/><line x2="107.1" y2="89.25" transform="translate(-37.2 -10.375)" fill="none" stroke="#0505c4" stroke-miterlimit="10" stroke-width="0.5"/><line x2="107.1" y2="89.25" transform="translate(-33.6 -11.875)" fill="none" stroke="#0505c4" stroke-miterlimit="10" stroke-width="0.5"/><line x2="107.1" y2="89.25" transform="translate(-30 -13.375)" fill="none" stroke="#0505c4" stroke-miterlimit="10" stroke-width="0.5"/><line x2="107.1" y2="89.25" transform="translate(-26.4 -14.875)" fill="none" stroke="#0505c4" stroke-miterlimit="10" stroke-width="0.5"/><line x2="107.1" y2="89.25" transform="translate(-22.8 -16.375)" fill="none" stroke="#0505c4" stroke-miterlimit="10" stroke-width="0.5"/><line x2="107.1" y2="89.25" transform="translate(-19.2 -17.875)" fill="none" stroke="#0505c4" stroke-miterlimit="10" stroke-width="0.5"/><line x2="107.1" y2="89.25" transform="translate(-15.6 -19.375)" fill="none" stroke="#0505c4" stroke-miterlimit="10" stroke-width="0.5"/><line x2="107.1" y2="89.25" transform="translate(-12 -20.875)" fill="none" stroke="#0505c4" stroke-miterlimit="10" stroke-width="0.5"/><line x2="107.1" y2="89.25" transform="translate(-8.4 -22.375)" fill="none" stroke="#0505c4" stroke-miterlimit="10" stroke-width="0.5"/><line x2="107.1" y2="89.25" transform="translate(-4.8 -23.875)" fill="none" stroke="#0505c4" stroke-miterlimit="10" stroke-width="0.5"/><line x2="107.1" y2="89.25" transform="translate(-1.2 -25.375)" fill="none" stroke="#0505c4" stroke-miterlimit="10" stroke-width="0.5"/><line x2="107.1" y2="89.25" transform="translate(2.4 -26.875)" fill="none" stroke="#0505c4" stroke-miterlimit="10" stroke-width="0.5"/><line x2="107.1" y2="89.25" transform="translate(6 -28.375)" fill="none" stroke="#0505c4" stroke-miterlimit="10" stroke-width="0.5"/></g><path d="M209,76.2h9c3.3,0,6,2.25,6,5h0c0,2.75-2.7,5-6,5h-9c-3.3,0-6-2.25-6-5h0C203,78.45,205.7,76.2,209,76.2Z" transform="translate(40.086 -0.909)" fill="none" stroke="#0505c4" stroke-miterlimit="10" stroke-width="0.5"/><text transform="translate(272.295 106.297)" font-size="9" font-family="HKGrotesk-Regular, HK Grotesk"><tspan x="0" y="0">Assenza di contesto</tspan></text><g transform="translate(243.086 98.729)" clip-path="url(#d)"><line x2="107.1" y2="89.25" transform="translate(-66 1.625)" fill="none" stroke="#869fd1" stroke-miterlimit="10" stroke-width="0.5"/><line x2="107.1" y2="89.25" transform="translate(-62.4 0.125)" fill="none" stroke="#869fd1" stroke-miterlimit="10" stroke-width="0.5"/><line x2="107.1" y2="89.25" transform="translate(-58.8 -1.375)" fill="none" stroke="#869fd1" stroke-miterlimit="10" stroke-width="0.5"/><line x2="107.1" y2="89.25" transform="translate(-55.2 -2.875)" fill="none" stroke="#869fd1" stroke-miterlimit="10" stroke-width="0.5"/><line x2="107.1" y2="89.25" transform="translate(-51.6 -4.375)" fill="none" stroke="#869fd1" stroke-miterlimit="10" stroke-width="0.5"/><line x2="107.1" y2="89.25" transform="translate(-48 -5.875)" fill="none" stroke="#869fd1" stroke-miterlimit="10" stroke-width="0.5"/><line x2="107.1" y2="89.25" transform="translate(-44.4 -7.375)" fill="none" stroke="#869fd1" stroke-miterlimit="10" stroke-width="0.5"/><line x2="107.1" y2="89.25" transform="translate(-40.8 -8.875)" fill="none" stroke="#869fd1" stroke-miterlimit="10" stroke-width="0.5"/><line x2="107.1" y2="89.25" transform="translate(-37.2 -10.375)" fill="none" stroke="#869fd1" stroke-miterlimit="10" stroke-width="0.5"/><line x2="107.1" y2="89.25" transform="translate(-33.6 -11.875)" fill="none" stroke="#869fd1" stroke-miterlimit="10" stroke-width="0.5"/><line x2="107.1" y2="89.25" transform="translate(-30 -13.375)" fill="none" stroke="#869fd1" stroke-miterlimit="10" stroke-width="0.5"/><line x2="107.1" y2="89.25" transform="translate(-26.4 -14.875)" fill="none" stroke="#869fd1" stroke-miterlimit="10" stroke-width="0.5"/><line x2="107.1" y2="89.25" transform="translate(-22.8 -16.375)" fill="none" stroke="#869fd1" stroke-miterlimit="10" stroke-width="0.5"/><line x2="107.1" y2="89.25" transform="translate(-19.2 -17.875)" fill="none" stroke="#869fd1" stroke-miterlimit="10" stroke-width="0.5"/><line x2="107.1" y2="89.25" transform="translate(-15.6 -19.375)" fill="none" stroke="#869fd1" stroke-miterlimit="10" stroke-width="0.5"/><line x2="107.1" y2="89.25" transform="translate(-12 -20.875)" fill="none" stroke="#869fd1" stroke-miterlimit="10" stroke-width="0.5"/><line x2="107.1" y2="89.25" transform="translate(-8.4 -22.375)" fill="none" stroke="#869fd1" stroke-miterlimit="10" stroke-width="0.5"/><line x2="107.1" y2="89.25" transform="translate(-4.8 -23.875)" fill="none" stroke="#869fd1" stroke-miterlimit="10" stroke-width="0.5"/><line x2="107.1" y2="89.25" transform="translate(-1.2 -25.375)" fill="none" stroke="#869fd1" stroke-miterlimit="10" stroke-width="0.5"/><line x2="107.1" y2="89.25" transform="translate(2.4 -26.875)" fill="none" stroke="#869fd1" stroke-miterlimit="10" stroke-width="0.5"/><line x2="107.1" y2="89.25" transform="translate(6 -28.375)" fill="none" stroke="#869fd1" stroke-miterlimit="10" stroke-width="0.5"/></g><path d="M209,96.5h9c3.3,0,6,2.25,6,5h0c0,2.75-2.7,5-6,5h-9c-3.3,0-6-2.25-6-5h0C203,98.75,205.7,96.5,209,96.5Z" transform="translate(40.086 2.229)" fill="none" stroke="#869fd1" stroke-miterlimit="10" stroke-width="0.5"/><text transform="translate(0 13)" font-size="12" font-family="HKGrotesk-Medium, HK Grotesk" font-weight="500"><tspan x="0" y="0">TEMPO DELLA STORIA</tspan></text><text transform="translate(243.086 12)" font-size="12" font-family="HKGrotesk-Medium, HK Grotesk" font-weight="500"><tspan x="0" y="0">CONTESTI</tspan></text><text transform="translate(391.086 12)" font-size="12" font-family="HKGrotesk-Medium, HK Grotesk" font-weight="500"><tspan x="0" y="0">DIMENSIONE</tspan></text><path d="M7.5,97.2h9c3.3,0,6,2.25,6,5h0c0,2.75-2.7,5-6,5h-9c-3.3,0-6-2.25-6-5h0C1.5,99.45,4.2,97.2,7.5,97.2Z" transform="translate(0 2.337)" fill="none" stroke="#000" stroke-miterlimit="10" stroke-width="0.25"/><path d="M7.5,128h9c3.3,0,6,2.25,6,5h0c0,2.75-2.7,5-6,5h-9c-3.3,0-6-2.25-6-5h0C1.5,130.25,4.2,128,7.5,128Z" transform="translate(0 7.099)" fill="none" stroke="red" stroke-miterlimit="10" stroke-width="0.5" stroke-dasharray="2 2"/><text transform="translate(29 142.667)" font-size="9" font-family="HKGrotesk-Regular, HK Grotesk"><tspan x="0" y="0">Luoghi scomparsi dalla narrazione</tspan></text><text transform="translate(29 97)" font-size="9" font-family="HKGrotesk-Regular, HK Grotesk"><tspan x="0" y="8">Ambientazioni di testi in cui presente</tspan><tspan x="0" y="19">e passato si fondono in un </tspan><tspan y="19" font-family="HKGrotesk-Medium, HK Grotesk" font-weight="500">testo misto</tspan></text><text transform="translate(30 25)" font-size="9" font-family="HKGrotesk-Regular, HK Grotesk"><tspan x="0" y="8">Ambientazioni di testi in cui il tempo</tspan><tspan x="0" y="19">della storia è collocato in un </tspan><tspan y="19" font-family="HKGrotesk-Medium, HK Grotesk" font-weight="500">tempo indefinito </tspan></text><text transform="translate(30 61)" font-size="9" font-family="HKGrotesk-Regular, HK Grotesk"><tspan x="0" y="8">Ambientazioni di testi in cui il tempo</tspan><tspan x="0" y="19">della storia è collocato nel </tspan><tspan y="19" font-family="HKGrotesk-MediumLegacy, HK Grotesk" font-weight="500">passato</tspan></text><path d="M7.654,76.8C4.585,76.8,2,74.514,2,71.8s2.585-5,5.654-5h9.692c3.069,0,5.654,2.286,5.654,5s-2.585,5-5.654,5Z" transform="translate(-1 -5.309)" fill="#dbdbdb"/><g transform="translate(0.703 26.322)" clip-path="url(#e)"><line x2="107.1" y2="89.25" transform="translate(-66 1.625)" fill="none" stroke="#0d1b3a" stroke-miterlimit="10" stroke-width="0.25"/><line x2="107.1" y2="89.25" transform="translate(-62.4 0.125)" fill="none" stroke="#0d1b3a" stroke-miterlimit="10" stroke-width="0.25"/><line x2="107.1" y2="89.25" transform="translate(-58.8 -1.375)" fill="none" stroke="#0d1b3a" stroke-miterlimit="10" stroke-width="0.25"/><line x2="107.1" y2="89.25" transform="translate(-55.2 -2.875)" fill="none" stroke="#0d1b3a" stroke-miterlimit="10" stroke-width="0.25"/><line x2="107.1" y2="89.25" transform="translate(-51.6 -4.375)" fill="none" stroke="#0d1b3a" stroke-miterlimit="10" stroke-width="0.25"/><line x2="107.1" y2="89.25" transform="translate(-48 -5.875)" fill="none" stroke="#0d1b3a" stroke-miterlimit="10" stroke-width="0.25"/><line x2="107.1" y2="89.25" transform="translate(-44.4 -7.375)" fill="none" stroke="#0d1b3a" stroke-miterlimit="10" stroke-width="0.25"/><line x2="107.1" y2="89.25" transform="translate(-40.8 -8.875)" fill="none" stroke="#0d1b3a" stroke-miterlimit="10" stroke-width="0.25"/><line x2="107.1" y2="89.25" transform="translate(-37.2 -10.375)" fill="none" stroke="#0d1b3a" stroke-miterlimit="10" stroke-width="0.25"/><line x2="107.1" y2="89.25" transform="translate(-33.6 -11.875)" fill="none" stroke="#0d1b3a" stroke-miterlimit="10" stroke-width="0.25"/><line x2="107.1" y2="89.25" transform="translate(-30 -13.375)" fill="none" stroke="#0d1b3a" stroke-miterlimit="10" stroke-width="0.25"/><line x2="107.1" y2="89.25" transform="translate(-26.4 -14.875)" fill="none" stroke="#0d1b3a" stroke-miterlimit="10" stroke-width="0.25"/><line x2="107.1" y2="89.25" transform="translate(-22.8 -16.375)" fill="none" stroke="#0d1b3a" stroke-miterlimit="10" stroke-width="0.25"/><line x2="107.1" y2="89.25" transform="translate(-19.2 -17.875)" fill="none" stroke="#0d1b3a" stroke-miterlimit="10" stroke-width="0.25"/><line x2="107.1" y2="89.25" transform="translate(-15.6 -19.375)" fill="none" stroke="#0d1b3a" stroke-miterlimit="10" stroke-width="0.25"/><line x2="107.1" y2="89.25" transform="translate(-12 -20.875)" fill="none" stroke="#0d1b3a" stroke-miterlimit="10" stroke-width="0.25"/><line x2="107.1" y2="89.25" transform="translate(-8.4 -22.375)" fill="none" stroke="#0d1b3a" stroke-miterlimit="10" stroke-width="0.25"/><line x2="107.1" y2="89.25" transform="translate(-4.8 -23.875)" fill="none" stroke="#0d1b3a" stroke-miterlimit="10" stroke-width="0.25"/><line x2="107.1" y2="89.25" transform="translate(-1.2 -25.375)" fill="none" stroke="#0d1b3a" stroke-miterlimit="10" stroke-width="0.25"/><line x2="107.1" y2="89.25" transform="translate(2.4 -26.875)" fill="none" stroke="#0d1b3a" stroke-miterlimit="10" stroke-width="0.25"/><line x2="107.1" y2="89.25" transform="translate(6 -28.375)" fill="none" stroke="#0d1b3a" stroke-miterlimit="10" stroke-width="0.25"/></g><path d="M209.5,35.5h9c3.3,0,6,2.25,6,5h0c0,2.75-2.7,5-6,5h-9c-3.3,0-6-2.25-6-5h0C203.5,37.75,206.2,35.5,209.5,35.5Z" transform="translate(-202.797 -9.178)" fill="none" stroke="#0d1b3a" stroke-miterlimit="10" stroke-width="0.25"/><text transform="translate(414.83 36.743)" font-size="10" font-family="HKGrotesk-Regular, HK Grotesk"><tspan x="0" y="0">Numero di occorrenze</tspan></text><circle cx="2.876" cy="2.876" r="2.876" transform="translate(396.769 33.502)" fill="none" stroke="#000" stroke-miterlimit="10" stroke-width="0.25"/><circle cx="6.327" cy="6.327" r="6.327" transform="translate(393.325 26.578)" fill="none" stroke="#000" stroke-miterlimit="10" stroke-width="0.25"/></g></svg>