<svg id="Layer_1" data-name="Layer 1" xmlns="http://www.w3.org/2000/svg" xmlns:xlink="http://www.w3.org/1999/xlink" viewBox="0 0 313.9 135.39"><defs><style>.cls-1,.cls-2,.cls-4,.cls-5,.cls-6,.cls-7{fill:none;}.cls-2{stroke:#ffda40;stroke-linecap:square;stroke-width:0.3px;}.cls-3{fill:url(#USGS_8_Sewage_Disposal);}.cls-4,.cls-5,.cls-6,.cls-7{stroke:#000;stroke-miterlimit:10;}.cls-4{stroke-width:0.53px;}.cls-5{stroke-width:0.5px;}.cls-6{stroke-width:0.5px;}.cls-7{stroke-width:0.51px;}.cls-8,.cls-9{font-size:8px;}.cls-8{font-family:HKGrotesk-Medium, HK Grotesk;font-weight:500;}.cls-9{font-family:HKGrotesk-Regular, HK Grotesk;}.cls-10{letter-spacing:3.54em;}.cls-11{letter-spacing:3.59em;}.cls-12{letter-spacing:3.63em;}.cls-13{letter-spacing:3.61em;}</style><pattern id="USGS_8_Sewage_Disposal" data-name="USGS 8 Sewage Disposal" width="72.03" height="62.05" patternUnits="userSpaceOnUse" viewBox="0 0 72.03 62.05"><rect class="cls-1" width="72.03" height="62.05"/><line class="cls-2" x1="-35.62" y1="20.25" x2="15.29" y2="-30.67"/><line class="cls-2" x1="-36.83" y1="19.04" x2="14.09" y2="-31.87"/><line class="cls-2" x1="-38.03" y1="17.84" x2="12.88" y2="-33.07"/><line class="cls-2" x1="-39.23" y1="16.64" x2="11.68" y2="-34.27"/><line class="cls-2" x1="-40.43" y1="15.44" x2="10.48" y2="-35.48"/><line class="cls-2" x1="-41.63" y1="14.23" x2="9.28" y2="-36.68"/><line class="cls-2" x1="-42.84" y1="13.03" x2="8.08" y2="-37.88"/><line class="cls-2" x1="-44.04" y1="11.83" x2="6.87" y2="-39.08"/><line class="cls-2" x1="-45.24" y1="10.63" x2="5.67" y2="-40.28"/><line class="cls-2" x1="-46.44" y1="9.43" x2="4.47" y2="-41.49"/><line class="cls-2" x1="-47.64" y1="8.22" x2="3.27" y2="-42.69"/><line class="cls-2" x1="-48.85" y1="7.02" x2="2.06" y2="-43.89"/><line class="cls-2" x1="-50.05" y1="5.82" x2="0.86" y2="-45.09"/><line class="cls-2" x1="36.4" y1="20.25" x2="87.31" y2="-30.67"/><line class="cls-2" x1="35.2" y1="19.04" x2="86.11" y2="-31.87"/><line class="cls-2" x1="34" y1="17.84" x2="84.91" y2="-33.07"/><line class="cls-2" x1="32.79" y1="16.64" x2="83.71" y2="-34.27"/><line class="cls-2" x1="31.59" y1="15.44" x2="82.5" y2="-35.48"/><line class="cls-2" x1="30.39" y1="14.23" x2="81.3" y2="-36.68"/><line class="cls-2" x1="29.19" y1="13.03" x2="80.1" y2="-37.88"/><line class="cls-2" x1="27.99" y1="11.83" x2="78.9" y2="-39.08"/><line class="cls-2" x1="26.78" y1="10.63" x2="77.7" y2="-40.28"/><line class="cls-2" x1="25.58" y1="9.43" x2="76.49" y2="-41.49"/><line class="cls-2" x1="24.38" y1="8.22" x2="75.29" y2="-42.69"/><line class="cls-2" x1="23.18" y1="7.02" x2="74.09" y2="-43.89"/><line class="cls-2" x1="21.98" y1="5.82" x2="72.89" y2="-45.09"/><line class="cls-2" x1="20.77" y1="4.62" x2="71.69" y2="-46.29"/><line class="cls-2" x1="19.57" y1="3.42" x2="70.48" y2="-47.5"/><line class="cls-2" x1="18.37" y1="2.21" x2="69.28" y2="-48.7"/><line class="cls-2" x1="17.17" y1="1.01" x2="68.08" y2="-49.9"/><line class="cls-2" x1="15.97" y1="-0.19" x2="66.88" y2="-51.1"/><line class="cls-2" x1="-35.62" y1="51.27" x2="15.29" y2="0.36"/><line class="cls-2" x1="-36.83" y1="50.07" x2="14.09" y2="-0.84"/><line class="cls-2" x1="-38.03" y1="48.87" x2="12.88" y2="-2.05"/><line class="cls-2" x1="-39.23" y1="47.66" x2="11.68" y2="-3.25"/><line class="cls-2" x1="-40.43" y1="46.46" x2="10.48" y2="-4.45"/><line class="cls-2" x1="-41.63" y1="45.26" x2="9.28" y2="-5.65"/><line class="cls-2" x1="-42.84" y1="44.06" x2="8.08" y2="-6.85"/><line class="cls-2" x1="-44.04" y1="42.86" x2="6.87" y2="-8.06"/><line class="cls-2" x1="-45.24" y1="41.65" x2="5.67" y2="-9.26"/><line class="cls-2" x1="-46.44" y1="40.45" x2="4.47" y2="-10.46"/><line class="cls-2" x1="-47.64" y1="39.25" x2="3.27" y2="-11.66"/><line class="cls-2" x1="-48.85" y1="38.05" x2="2.06" y2="-12.86"/><line class="cls-2" x1="-50.05" y1="36.85" x2="0.86" y2="-14.07"/><line class="cls-2" x1="36.4" y1="51.27" x2="87.31" y2="0.36"/><line class="cls-2" x1="35.2" y1="50.07" x2="86.11" y2="-0.84"/><line class="cls-2" x1="34" y1="48.87" x2="84.91" y2="-2.05"/><line class="cls-2" x1="32.79" y1="47.66" x2="83.71" y2="-3.25"/><line class="cls-2" x1="31.59" y1="46.46" x2="82.5" y2="-4.45"/><line class="cls-2" x1="30.39" y1="45.26" x2="81.3" y2="-5.65"/><line class="cls-2" x1="29.19" y1="44.06" x2="80.1" y2="-6.85"/><line class="cls-2" x1="27.99" y1="42.86" x2="78.9" y2="-8.06"/><line class="cls-2" x1="26.78" y1="41.65" x2="77.7" y2="-9.26"/><line class="cls-2" x1="25.58" y1="40.45" x2="76.49" y2="-10.46"/><line class="cls-2" x1="24.38" y1="39.25" x2="75.29" y2="-11.66"/><line class="cls-2" x1="23.18" y1="38.05" x2="74.09" y2="-12.86"/><line class="cls-2" x1="21.98" y1="36.85" x2="72.89" y2="-14.07"/><line class="cls-2" x1="20.77" y1="35.64" x2="71.69" y2="-15.27"/><line class="cls-2" x1="19.57" y1="34.44" x2="70.48" y2="-16.47"/><line class="cls-2" x1="18.37" y1="33.24" x2="69.28" y2="-17.67"/><line class="cls-2" x1="17.17" y1="32.04" x2="68.08" y2="-18.87"/><line class="cls-2" x1="15.97" y1="30.84" x2="66.88" y2="-20.08"/><line class="cls-2" x1="14.76" y1="29.63" x2="65.68" y2="-21.28"/><line class="cls-2" x1="13.56" y1="28.43" x2="64.47" y2="-22.48"/><line class="cls-2" x1="12.36" y1="27.23" x2="63.27" y2="-23.68"/><line class="cls-2" x1="11.16" y1="26.03" x2="62.07" y2="-24.88"/><line class="cls-2" x1="9.96" y1="24.83" x2="60.87" y2="-26.09"/><line class="cls-2" x1="8.75" y1="23.62" x2="59.67" y2="-27.29"/><line class="cls-2" x1="7.55" y1="22.42" x2="58.46" y2="-28.49"/><line class="cls-2" x1="6.35" y1="21.22" x2="57.26" y2="-29.69"/><line class="cls-2" x1="5.15" y1="20.02" x2="56.06" y2="-30.89"/><line class="cls-2" x1="3.95" y1="18.81" x2="54.86" y2="-32.1"/><line class="cls-2" x1="2.74" y1="17.61" x2="53.65" y2="-33.3"/><line class="cls-2" x1="1.54" y1="16.41" x2="52.45" y2="-34.5"/><line class="cls-2" x1="0.34" y1="15.21" x2="51.25" y2="-35.7"/><line class="cls-2" x1="-0.86" y1="14.01" x2="50.05" y2="-36.91"/><line class="cls-2" x1="-2.06" y1="12.8" x2="48.85" y2="-38.11"/><line class="cls-2" x1="-3.27" y1="11.6" x2="47.64" y2="-39.31"/><line class="cls-2" x1="-4.47" y1="10.4" x2="46.44" y2="-40.51"/><line class="cls-2" x1="-5.67" y1="9.2" x2="45.24" y2="-41.71"/><line class="cls-2" x1="-6.87" y1="8" x2="44.04" y2="-42.92"/><line class="cls-2" x1="-8.08" y1="6.79" x2="42.84" y2="-44.12"/><line class="cls-2" x1="-9.28" y1="5.59" x2="41.63" y2="-45.32"/><line class="cls-2" x1="-10.48" y1="4.39" x2="40.43" y2="-46.52"/><line class="cls-2" x1="-11.68" y1="3.19" x2="39.23" y2="-47.72"/><line class="cls-2" x1="-12.88" y1="1.99" x2="38.03" y2="-48.93"/><line class="cls-2" x1="-14.09" y1="0.78" x2="36.83" y2="-50.13"/><line class="cls-2" x1="71.16" y1="14.01" x2="122.07" y2="-36.91"/><line class="cls-2" x1="69.96" y1="12.8" x2="120.87" y2="-38.11"/><line class="cls-2" x1="68.76" y1="11.6" x2="119.67" y2="-39.31"/><line class="cls-2" x1="67.56" y1="10.4" x2="118.47" y2="-40.51"/><line class="cls-2" x1="66.35" y1="9.2" x2="117.27" y2="-41.71"/><line class="cls-2" x1="65.15" y1="8" x2="116.06" y2="-42.92"/><line class="cls-2" x1="63.95" y1="6.79" x2="114.86" y2="-44.12"/><line class="cls-2" x1="62.75" y1="5.59" x2="113.66" y2="-45.32"/><line class="cls-2" x1="61.55" y1="4.39" x2="112.46" y2="-46.52"/><line class="cls-2" x1="60.34" y1="3.19" x2="111.26" y2="-47.72"/><line class="cls-2" x1="59.14" y1="1.99" x2="110.05" y2="-48.93"/><line class="cls-2" x1="57.94" y1="0.78" x2="108.85" y2="-50.13"/><line class="cls-2" x1="-35.62" y1="82.3" x2="15.29" y2="31.38"/><line class="cls-2" x1="-36.83" y1="81.09" x2="14.09" y2="30.18"/><line class="cls-2" x1="-38.03" y1="79.89" x2="12.88" y2="28.98"/><line class="cls-2" x1="-39.23" y1="78.69" x2="11.68" y2="27.78"/><line class="cls-2" x1="-40.43" y1="77.49" x2="10.48" y2="26.58"/><line class="cls-2" x1="-41.63" y1="76.29" x2="9.28" y2="25.37"/><line class="cls-2" x1="-42.84" y1="75.08" x2="8.08" y2="24.17"/><line class="cls-2" x1="-44.04" y1="73.88" x2="6.87" y2="22.97"/><line class="cls-2" x1="-45.24" y1="72.68" x2="5.67" y2="21.77"/><line class="cls-2" x1="-46.44" y1="71.48" x2="4.47" y2="20.56"/><line class="cls-2" x1="-47.64" y1="70.27" x2="3.27" y2="19.36"/><line class="cls-2" x1="-48.85" y1="69.07" x2="2.06" y2="18.16"/><line class="cls-2" x1="-50.05" y1="67.87" x2="0.86" y2="16.96"/><line class="cls-2" x1="36.4" y1="82.3" x2="87.31" y2="31.38"/><line class="cls-2" x1="35.2" y1="81.09" x2="86.11" y2="30.18"/><line class="cls-2" x1="34" y1="79.89" x2="84.91" y2="28.98"/><line class="cls-2" x1="32.79" y1="78.69" x2="83.71" y2="27.78"/><line class="cls-2" x1="31.59" y1="77.49" x2="82.5" y2="26.58"/><line class="cls-2" x1="30.39" y1="76.29" x2="81.3" y2="25.37"/><line class="cls-2" x1="29.19" y1="75.08" x2="80.1" y2="24.17"/><line class="cls-2" x1="27.99" y1="73.88" x2="78.9" y2="22.97"/><line class="cls-2" x1="26.78" y1="72.68" x2="77.7" y2="21.77"/><line class="cls-2" x1="25.58" y1="71.48" x2="76.49" y2="20.56"/><line class="cls-2" x1="24.38" y1="70.27" x2="75.29" y2="19.36"/><line class="cls-2" x1="23.18" y1="69.07" x2="74.09" y2="18.16"/><line class="cls-2" x1="21.98" y1="67.87" x2="72.89" y2="16.96"/><line class="cls-2" x1="20.77" y1="66.67" x2="71.69" y2="15.76"/><line class="cls-2" x1="19.57" y1="65.47" x2="70.48" y2="14.56"/><line class="cls-2" x1="18.37" y1="64.27" x2="69.28" y2="13.35"/><line class="cls-2" x1="17.17" y1="63.06" x2="68.08" y2="12.15"/><line class="cls-2" x1="15.97" y1="61.86" x2="66.88" y2="10.95"/><line class="cls-2" x1="14.76" y1="60.66" x2="65.68" y2="9.75"/><line class="cls-2" x1="13.56" y1="59.46" x2="64.47" y2="8.54"/><line class="cls-2" x1="12.36" y1="58.25" x2="63.27" y2="7.34"/><line class="cls-2" x1="11.16" y1="57.05" x2="62.07" y2="6.14"/><line class="cls-2" x1="9.96" y1="55.85" x2="60.87" y2="4.94"/><line class="cls-2" x1="8.75" y1="54.65" x2="59.67" y2="3.74"/><line class="cls-2" x1="7.55" y1="53.45" x2="58.46" y2="2.53"/><line class="cls-2" x1="6.35" y1="52.24" x2="57.26" y2="1.33"/><line class="cls-2" x1="5.15" y1="51.04" x2="56.06" y2="0.13"/><line class="cls-2" x1="3.95" y1="49.84" x2="54.86" y2="-1.07"/><line class="cls-2" x1="2.74" y1="48.64" x2="53.65" y2="-2.27"/><line class="cls-2" x1="1.54" y1="47.44" x2="52.45" y2="-3.48"/><line class="cls-2" x1="0.34" y1="46.23" x2="51.25" y2="-4.68"/><line class="cls-2" x1="-0.86" y1="45.03" x2="50.05" y2="-5.88"/><line class="cls-2" x1="-2.06" y1="43.83" x2="48.85" y2="-7.08"/><line class="cls-2" x1="-3.27" y1="42.63" x2="47.64" y2="-8.28"/><line class="cls-2" x1="-4.47" y1="41.43" x2="46.44" y2="-9.49"/><line class="cls-2" x1="-5.67" y1="40.22" x2="45.24" y2="-10.69"/><line class="cls-2" x1="-6.87" y1="39.02" x2="44.04" y2="-11.89"/><line class="cls-2" x1="-8.08" y1="37.82" x2="42.84" y2="-13.09"/><line class="cls-2" x1="-9.28" y1="36.62" x2="41.63" y2="-14.29"/><line class="cls-2" x1="-10.48" y1="35.41" x2="40.43" y2="-15.5"/><line class="cls-2" x1="-11.68" y1="34.21" x2="39.23" y2="-16.7"/><line class="cls-2" x1="-12.88" y1="33.01" x2="38.03" y2="-17.9"/><line class="cls-2" x1="-14.09" y1="31.81" x2="36.83" y2="-19.1"/><line class="cls-2" x1="-15.29" y1="30.61" x2="35.62" y2="-20.31"/><line class="cls-2" x1="71.16" y1="45.03" x2="122.07" y2="-5.88"/><line class="cls-2" x1="69.96" y1="43.83" x2="120.87" y2="-7.08"/><line class="cls-2" x1="68.76" y1="42.63" x2="119.67" y2="-8.28"/><line class="cls-2" x1="67.56" y1="41.43" x2="118.47" y2="-9.49"/><line class="cls-2" x1="66.35" y1="40.22" x2="117.27" y2="-10.69"/><line class="cls-2" x1="65.15" y1="39.02" x2="116.06" y2="-11.89"/><line class="cls-2" x1="63.95" y1="37.82" x2="114.86" y2="-13.09"/><line class="cls-2" x1="62.75" y1="36.62" x2="113.66" y2="-14.29"/><line class="cls-2" x1="61.55" y1="35.41" x2="112.46" y2="-15.5"/><line class="cls-2" x1="60.34" y1="34.21" x2="111.26" y2="-16.7"/><line class="cls-2" x1="59.14" y1="33.01" x2="110.05" y2="-17.9"/><line class="cls-2" x1="57.94" y1="31.81" x2="108.85" y2="-19.1"/><line class="cls-2" x1="56.74" y1="30.61" x2="107.65" y2="-20.31"/><line class="cls-2" x1="-36.83" y1="112.12" x2="14.09" y2="61.21"/><line class="cls-2" x1="-38.03" y1="110.92" x2="12.88" y2="60"/><line class="cls-2" x1="-39.23" y1="109.71" x2="11.68" y2="58.8"/><line class="cls-2" x1="-40.43" y1="108.51" x2="10.48" y2="57.6"/><line class="cls-2" x1="-41.63" y1="107.31" x2="9.28" y2="56.4"/><line class="cls-2" x1="-42.84" y1="106.11" x2="8.08" y2="55.2"/><line class="cls-2" x1="-44.04" y1="104.91" x2="6.87" y2="53.99"/><line class="cls-2" x1="-45.24" y1="103.7" x2="5.67" y2="52.79"/><line class="cls-2" x1="-46.44" y1="102.5" x2="4.47" y2="51.59"/><line class="cls-2" x1="-47.64" y1="101.3" x2="3.27" y2="50.39"/><line class="cls-2" x1="-48.85" y1="100.1" x2="2.06" y2="49.19"/><line class="cls-2" x1="-50.05" y1="98.9" x2="0.86" y2="47.98"/><line class="cls-2" x1="35.2" y1="112.12" x2="86.11" y2="61.21"/><line class="cls-2" x1="34" y1="110.92" x2="84.91" y2="60"/><line class="cls-2" x1="32.79" y1="109.71" x2="83.71" y2="58.8"/><line class="cls-2" x1="31.59" y1="108.51" x2="82.5" y2="57.6"/><line class="cls-2" x1="30.39" y1="107.31" x2="81.3" y2="56.4"/><line class="cls-2" x1="29.19" y1="106.11" x2="80.1" y2="55.2"/><line class="cls-2" x1="27.99" y1="104.91" x2="78.9" y2="53.99"/><line class="cls-2" x1="26.78" y1="103.7" x2="77.7" y2="52.79"/><line class="cls-2" x1="25.58" y1="102.5" x2="76.49" y2="51.59"/><line class="cls-2" x1="24.38" y1="101.3" x2="75.29" y2="50.39"/><line class="cls-2" x1="23.18" y1="100.1" x2="74.09" y2="49.19"/><line class="cls-2" x1="21.98" y1="98.9" x2="72.89" y2="47.98"/><line class="cls-2" x1="20.77" y1="97.69" x2="71.69" y2="46.78"/><line class="cls-2" x1="19.57" y1="96.49" x2="70.48" y2="45.58"/><line class="cls-2" x1="18.37" y1="95.29" x2="69.28" y2="44.38"/><line class="cls-2" x1="17.17" y1="94.09" x2="68.08" y2="43.18"/><line class="cls-2" x1="15.97" y1="92.89" x2="66.88" y2="41.97"/><line class="cls-2" x1="14.76" y1="91.68" x2="65.68" y2="40.77"/><line class="cls-2" x1="13.56" y1="90.48" x2="64.47" y2="39.57"/><line class="cls-2" x1="12.36" y1="89.28" x2="63.27" y2="38.37"/><line class="cls-2" x1="11.16" y1="88.08" x2="62.07" y2="37.17"/><line class="cls-2" x1="9.96" y1="86.88" x2="60.87" y2="35.96"/><line class="cls-2" x1="8.75" y1="85.67" x2="59.67" y2="34.76"/><line class="cls-2" x1="7.55" y1="84.47" x2="58.46" y2="33.56"/><line class="cls-2" x1="6.35" y1="83.27" x2="57.26" y2="32.36"/><line class="cls-2" x1="5.15" y1="82.07" x2="56.06" y2="31.16"/><line class="cls-2" x1="3.95" y1="80.87" x2="54.86" y2="29.95"/><line class="cls-2" x1="2.74" y1="79.66" x2="53.65" y2="28.75"/><line class="cls-2" x1="1.54" y1="78.46" x2="52.45" y2="27.55"/><line class="cls-2" x1="0.34" y1="77.26" x2="51.25" y2="26.35"/><line class="cls-2" x1="-0.86" y1="76.06" x2="50.05" y2="25.15"/><line class="cls-2" x1="-2.06" y1="74.85" x2="48.85" y2="23.94"/><line class="cls-2" x1="-3.27" y1="73.65" x2="47.64" y2="22.74"/><line class="cls-2" x1="-4.47" y1="72.45" x2="46.44" y2="21.54"/><line class="cls-2" x1="-5.67" y1="71.25" x2="45.24" y2="20.34"/><line class="cls-2" x1="-6.87" y1="70.05" x2="44.04" y2="19.13"/><line class="cls-2" x1="-8.08" y1="68.84" x2="42.84" y2="17.93"/><line class="cls-2" x1="-9.28" y1="67.64" x2="41.63" y2="16.73"/><line class="cls-2" x1="-10.48" y1="66.44" x2="40.43" y2="15.53"/><line class="cls-2" x1="-11.68" y1="65.24" x2="39.23" y2="14.33"/><line class="cls-2" x1="-12.88" y1="64.04" x2="38.03" y2="13.12"/><line class="cls-2" x1="-14.09" y1="62.83" x2="36.83" y2="11.92"/><line class="cls-2" x1="-15.29" y1="61.63" x2="35.62" y2="10.72"/><line class="cls-2" x1="71.16" y1="76.06" x2="122.07" y2="25.15"/><line class="cls-2" x1="69.96" y1="74.85" x2="120.87" y2="23.94"/><line class="cls-2" x1="68.76" y1="73.65" x2="119.67" y2="22.74"/><line class="cls-2" x1="67.56" y1="72.45" x2="118.47" y2="21.54"/><line class="cls-2" x1="66.35" y1="71.25" x2="117.27" y2="20.34"/><line class="cls-2" x1="65.15" y1="70.05" x2="116.06" y2="19.13"/><line class="cls-2" x1="63.95" y1="68.84" x2="114.86" y2="17.93"/><line class="cls-2" x1="62.75" y1="67.64" x2="113.66" y2="16.73"/><line class="cls-2" x1="61.55" y1="66.44" x2="112.46" y2="15.53"/><line class="cls-2" x1="60.34" y1="65.24" x2="111.26" y2="14.33"/><line class="cls-2" x1="59.14" y1="64.04" x2="110.05" y2="13.12"/><line class="cls-2" x1="57.94" y1="62.83" x2="108.85" y2="11.92"/><line class="cls-2" x1="56.74" y1="61.63" x2="107.65" y2="10.72"/><line class="cls-2" x1="5.15" y1="113.09" x2="56.06" y2="62.18"/><line class="cls-2" x1="3.95" y1="111.89" x2="54.86" y2="60.98"/><line class="cls-2" x1="2.74" y1="110.69" x2="53.65" y2="59.78"/><line class="cls-2" x1="1.54" y1="109.49" x2="52.45" y2="58.57"/><line class="cls-2" x1="0.34" y1="108.28" x2="51.25" y2="57.37"/><line class="cls-2" x1="-0.86" y1="107.08" x2="50.05" y2="56.17"/><line class="cls-2" x1="-2.06" y1="105.88" x2="48.85" y2="54.97"/><line class="cls-2" x1="-3.27" y1="104.68" x2="47.64" y2="53.77"/><line class="cls-2" x1="-4.47" y1="103.48" x2="46.44" y2="52.56"/><line class="cls-2" x1="-5.67" y1="102.27" x2="45.24" y2="51.36"/><line class="cls-2" x1="-6.87" y1="101.07" x2="44.04" y2="50.16"/><line class="cls-2" x1="-8.08" y1="99.87" x2="42.84" y2="48.96"/><line class="cls-2" x1="-9.28" y1="98.67" x2="41.63" y2="47.76"/><line class="cls-2" x1="-10.48" y1="97.46" x2="40.43" y2="46.55"/><line class="cls-2" x1="-11.68" y1="96.26" x2="39.23" y2="45.35"/><line class="cls-2" x1="-12.88" y1="95.06" x2="38.03" y2="44.15"/><line class="cls-2" x1="-14.09" y1="93.86" x2="36.83" y2="42.95"/><line class="cls-2" x1="-15.29" y1="92.66" x2="35.62" y2="41.75"/><line class="cls-2" x1="71.16" y1="107.08" x2="122.07" y2="56.17"/><line class="cls-2" x1="69.96" y1="105.88" x2="120.87" y2="54.97"/><line class="cls-2" x1="68.76" y1="104.68" x2="119.67" y2="53.77"/><line class="cls-2" x1="67.56" y1="103.48" x2="118.47" y2="52.56"/><line class="cls-2" x1="66.35" y1="102.27" x2="117.27" y2="51.36"/><line class="cls-2" x1="65.15" y1="101.07" x2="116.06" y2="50.16"/><line class="cls-2" x1="63.95" y1="99.87" x2="114.86" y2="48.96"/><line class="cls-2" x1="62.75" y1="98.67" x2="113.66" y2="47.76"/><line class="cls-2" x1="61.55" y1="97.46" x2="112.46" y2="46.55"/><line class="cls-2" x1="60.34" y1="96.26" x2="111.26" y2="45.35"/><line class="cls-2" x1="59.14" y1="95.06" x2="110.05" y2="44.15"/><line class="cls-2" x1="57.94" y1="93.86" x2="108.85" y2="42.95"/><line class="cls-2" x1="56.74" y1="92.66" x2="107.65" y2="41.75"/></pattern></defs><title>table</title><rect class="cls-3" x="4.14" y="2.8" width="80.97" height="23.37"/><rect class="cls-4" x="3.88" y="2.33" width="305.95" height="129.28"/><line class="cls-5" x1="3.89" y1="25.79" x2="309.65" y2="25.79"/><line class="cls-5" x1="3.89" y1="68.13" x2="309.65" y2="68.13"/><line class="cls-5" x1="3.89" y1="46.96" x2="309.65" y2="46.96"/><line class="cls-6" x1="28.47" y1="131.63" x2="309.65" y2="131.63"/><line class="cls-5" x1="3.89" y1="110.46" x2="309.65" y2="110.46"/><line class="cls-5" x1="3.89" y1="89.29" x2="309.65" y2="89.29"/><line class="cls-7" x1="84.87" y1="2.16" x2="84.87" y2="131.83"/><line class="cls-7" x1="141.07" y1="2.16" x2="141.07" y2="131.83"/><line class="cls-7" x1="197.27" y1="2.16" x2="197.27" y2="131.83"/><line class="cls-7" x1="253.47" y1="2.16" x2="253.47" y2="131.83"/><line class="cls-6" x1="309.67" y1="4.56" x2="309.67" y2="131.83"/><text class="cls-8" transform="translate(9.65 12.17)">AMBIENTAZIONI <tspan x="0" y="9.6">RICORRENTI</tspan></text><text class="cls-9" transform="translate(9.99 123.68)">New York</text><text class="cls-9" transform="translate(277.93 123.68)">9</text><text class="cls-9" transform="translate(108.33 123.68)">0</text><text class="cls-9" transform="translate(166.7 123.68)">0</text><text class="cls-9" transform="translate(222.48 123.68)">?</text><text class="cls-9" transform="translate(275.66 103.68)">20</text><text class="cls-9" transform="translate(108.33 103.68)">1</text><text class="cls-9" transform="translate(166.7 103.68)">4</text><text class="cls-9" transform="translate(220.06 103.68)">12</text><text class="cls-9" transform="translate(9.99 102.93)">Parigi</text><text class="cls-9" transform="translate(277.93 80.68)">8</text><text class="cls-8" transform="translate(108.31 81.68)">0</text><text class="cls-9" transform="translate(166.7 81.68)">6</text><text class="cls-9" transform="translate(222.33 81.68)">0</text><text class="cls-9" transform="translate(9.99 81.18)">Roma</text><text class="cls-8" transform="translate(90.58 18.47)">1945 - 1955<tspan class="cls-10" x="41.58" y="0">	</tspan></text><text class="cls-8" transform="translate(147.6 18.47)">1956 - 1965<tspan class="cls-11" x="41.15" y="0">	</tspan></text><text class="cls-8" transform="translate(204.6 18.47)">1966 - 1975<tspan class="cls-12" x="40.83" y="0">	</tspan></text><text class="cls-8" transform="translate(259.6 18.47)">1976 - 1985<tspan class="cls-13" x="41.05" y="0">	</tspan></text><text class="cls-9" transform="translate(277.93 39.81)">0</text><text class="cls-9" transform="translate(108.33 39.81)">5</text><text class="cls-9" transform="translate(166.7 39.81)">2</text><text class="cls-9" transform="translate(222.33 39.81)">3</text><text class="cls-9" transform="translate(9.99 38.56)">Sanremo</text><text class="cls-9" transform="translate(277.93 61.81)">0</text><text class="cls-9" transform="translate(108.33 60.81)">5</text><text class="cls-9" transform="translate(166.7 60.81)">4</text><text class="cls-9" transform="translate(222.33 61.81)">0</text><text class="cls-9" transform="translate(9.99 60.81)">Torino</text></svg>