<?xml version="1.0" encoding="utf-8"?>
<!-- Generator: Adobe Illustrator 25.1.0, SVG Export Plug-In . SVG Version: 6.00 Build 0)  -->
<svg version="1.1" id="Livello_1" xmlns="http://www.w3.org/2000/svg" xmlns:xlink="http://www.w3.org/1999/xlink" x="0px" y="0px"
	 viewBox="0 0 250 108" enable-background="new 0 0 250 108" xml:space="preserve">
<g>
	<defs>
		<rect id="SVGID_1_" y="0" width="250" height="108"/>
	</defs>
	<clipPath id="SVGID_2_">
		<use xlink:href="#SVGID_1_"  overflow="visible"/>
	</clipPath>
	<g id="Table" clip-path="url(#SVGID_2_)">
		<g id="table-2" transform="translate(-1.9 -0.8)">
			
				<rect id="Rettangolo_18845" x="2.138" y="1.356" opacity="0.355" fill="#FFD337" enable-background="new    " width="66.19" height="19.127"/>
			<path id="Tracciato_157235" fill="none" stroke="#000000" stroke-width="0.5" d="M1.9,108.641"/>
			
				<line id="Linea_5884" fill="none" stroke="#000000" stroke-width="0.5" stroke-miterlimit="10" x1="1.9" y1="20.086" x2="251.741" y2="20.086"/>
			
				<line id="Linea_5885" fill="none" stroke="#000000" stroke-width="0.5" stroke-miterlimit="10" x1="1.9" y1="55.73" x2="251.741" y2="55.73"/>
			
				<line id="Linea_5886" fill="none" stroke="#000000" stroke-width="0.5" stroke-miterlimit="10" x1="1.9" y1="38.094" x2="251.741" y2="38.094"/>
			
				<line id="Linea_5888" fill="none" stroke="#000000" stroke-width="0.5" stroke-miterlimit="10" x1="1.9" y1="91.339" x2="251.741" y2="91.339"/>
			
				<line id="Linea_5889" fill="none" stroke="#000000" stroke-width="0.5" stroke-miterlimit="10" x1="1.9" y1="73.366" x2="251.741" y2="73.366"/>
			
				<line id="Linea_5890" fill="none" stroke="#000000" stroke-width="0.5" stroke-miterlimit="10" x1="68.09" y1="0.8" x2="68.09" y2="108.8"/>
			
				<line id="Linea_5891" fill="none" stroke="#000000" stroke-width="0.5" stroke-miterlimit="10" x1="114.043" y1="0.8" x2="114.043" y2="108.8"/>
			
				<line id="Linea_5892" fill="none" stroke="#000000" stroke-width="0.5" stroke-miterlimit="10" x1="159.916" y1="0.8" x2="159.916" y2="108.8"/>
			
				<line id="Linea_5893" fill="none" stroke="#000000" stroke-width="0.5" stroke-miterlimit="10" x1="205.868" y1="0.8" x2="205.868" y2="108.8"/>
			<g enable-background="new    ">
				<path d="M9.09775,8.85292L7.87217,6.73768H7.55674H6.99668v2.11523H6.37314V3.97108h1.46387
					c1.08545,0,1.625,0.49023,1.625,1.37305c0,0.69336-0.33643,1.13477-0.9668,1.30957l1.32373,2.19922H9.09775z M7.77402,6.15663
					c0.70019,0,1.06445-0.25195,1.06445-0.80566S8.47422,4.5453,7.77402,4.5453H6.99668v1.61133H7.77402z"/>
				<path d="M10.77598,3.97108h3.22168V4.5453h-2.59814v1.52734h2.36035v0.57422h-2.36035V8.2787h2.59814v0.57422h-3.22168V3.97108z
					"/>
				<path d="M14.82871,6.40175c0-1.56152,0.86865-2.51465,2.29053-2.51465c0.99414,0,1.71582,0.46191,2.05908,1.36621
					L18.6041,5.47694c-0.24512-0.67188-0.74951-0.99414-1.48486-0.99414c-1.06494,0-1.66699,0.69336-1.66699,1.91895
					c0,1.23242,0.60205,1.93945,1.646,1.93945c0.72803,0,1.25342-0.34277,1.50586-1.01465l0.58789,0.2168
					C18.83506,8.4535,18.09238,8.9369,17.09824,8.9369C15.69053,8.9369,14.82871,7.97792,14.82871,6.40175z"/>
				<path d="M20.09971,7.08827V3.97108h0.62354v3.05371c0,0.90332,0.35693,1.30273,1.1626,1.30273
					c0.8125,0,1.16943-0.40625,1.16943-1.31641V3.97108h0.62354v3.08203c0,1.23926-0.62354,1.88379-1.79297,1.88379
					C20.72324,8.9369,20.09971,8.29921,20.09971,7.08827z"/>
				<path d="M27.77353,8.85292l-1.22559-2.11523h-0.31543h-0.56006v2.11523h-0.62354V3.97108h1.46387
					c1.08545,0,1.625,0.49023,1.625,1.37305c0,0.69336-0.33643,1.13477-0.9668,1.30957l1.32373,2.19922H27.77353z M26.4498,6.15663
					c0.7002,0,1.06445-0.25195,1.06445-0.80566S27.15,4.5453,26.4498,4.5453h-0.77734v1.61133H26.4498z"/>
				<path d="M32.17686,8.85292l-1.22559-2.11523h-0.31543h-0.56006v2.11523h-0.62354V3.97108h1.46387
					c1.08545,0,1.625,0.49023,1.625,1.37305c0,0.69336-0.33643,1.13477-0.9668,1.30957l1.32373,2.19922H32.17686z M30.85312,6.15663
					c0.7002,0,1.06445-0.25195,1.06445-0.80566S31.55332,4.5453,30.85312,4.5453h-0.77734v1.61133H30.85312z"/>
				<path d="M33.85508,3.97108h0.62354v4.88184h-0.62354V3.97108z"/>
				<path d="M39.53379,3.97108v4.88184h-0.67236l-2.2832-3.81738v3.81738h-0.62354V3.97108h0.66553l2.29004,3.80371V3.97108
					H39.53379z"/>
				<path d="M45.04307,6.28944v2.56348h-0.47607l-0.08398-0.66504c-0.28027,0.4834-0.84766,0.74902-1.54785,0.74902
					c-1.40771,0-2.26221-1.05078-2.26221-2.53516c0-1.4502,0.8125-2.51465,2.29736-2.51465
					c1.01562,0,1.72266,0.49707,2.05908,1.36621l-0.58154,0.22363C44.2169,4.83241,43.72666,4.4828,42.96299,4.4828
					c-1.09229,0-1.6665,0.74219-1.6665,1.90527c0,1.1416,0.53906,1.95312,1.68066,1.95312
					c0.81934,0,1.46387-0.42676,1.46387-1.38672V6.8285h-1.14893V6.28944H45.04307z"/>
			</g>
			<g enable-background="new    ">
				<path d="M6.37314,11.8163h0.62354v4.30762h2.18506v0.57422H6.37314V11.8163z"/>
				<path d="M9.54404,14.26063c0-1.51953,0.91064-2.52832,2.26221-2.52832c1.35889,0,2.26904,1.00879,2.26904,2.52832
					c0,1.5127-0.91016,2.52148-2.26904,2.52148C10.45469,16.78212,9.54404,15.77333,9.54404,14.26063z M13.45225,14.26063
					c0-1.18359-0.64453-1.93262-1.646-1.93262s-1.63867,0.74902-1.63867,1.93262c0,1.17676,0.63721,1.92578,1.63867,1.92578
					S13.45225,15.43739,13.45225,14.26063z"/>
				<path d="M14.8917,14.24696c0-1.56152,0.86865-2.51465,2.29053-2.51465c0.99463,0,1.71582,0.46191,2.05908,1.36621
					l-0.57422,0.22363c-0.24512-0.67188-0.74951-0.99414-1.48486-0.99414c-1.06494,0-1.66699,0.69336-1.66699,1.91895
					c0,1.23242,0.60205,1.93945,1.646,1.93945c0.72803,0,1.25342-0.34277,1.50586-1.01465l0.58789,0.2168
					c-0.35693,0.91016-1.09961,1.39355-2.09375,1.39355C15.75352,16.78212,14.8917,15.82313,14.8917,14.24696z"/>
				<path d="M22.66318,15.48622h-1.98877l-0.43457,1.21191h-0.68604l1.86963-4.88183h0.49023l1.87012,4.88183h-0.68604
					L22.66318,15.48622z M22.46006,14.93348l-0.7915-2.21387l-0.79102,2.21387H22.46006z"/>
				<path d="M25.30869,12.39052h-1.63867V11.8163h3.90771v0.57422h-1.63867v4.30762h-0.63037V12.39052z"/>
				<path d="M28.48594,11.8163h0.62354v4.88183h-0.62354V11.8163z"/>
				<path d="M30.25693,14.26063c0-1.51953,0.91064-2.52832,2.26221-2.52832c1.35889,0,2.26904,1.00879,2.26904,2.52832
					c0,1.5127-0.91016,2.52148-2.26904,2.52148C31.16758,16.78212,30.25693,15.77333,30.25693,14.26063z M34.16514,14.26063
					c0-1.18359-0.64453-1.93262-1.646-1.93262c-1.00147,0-1.63867,0.74902-1.63867,1.93262
					c0,1.17676,0.63721,1.92578,1.63867,1.92578C33.52061,16.18641,34.16514,15.43739,34.16514,14.26063z"/>
				<path d="M39.50596,11.8163v4.88183H38.8336l-2.2832-3.81738v3.81738h-0.62354V11.8163h0.66553l2.29004,3.80371V11.8163H39.50596
					z"/>
				<path d="M40.51865,15.38173l0.61621-0.1543c0.08398,0.61621,0.53223,0.9873,1.15576,0.9873
					c0.63721,0,0.98047-0.3291,0.98047-0.78418c0-0.46191-0.28711-0.71484-1.09961-1.0293
					c-1.00146-0.38574-1.35156-0.74316-1.35156-1.40137c0-0.75586,0.58105-1.26758,1.43555-1.26758
					c0.63037,0,1.12061,0.28711,1.42188,0.82617l-0.52539,0.32227c-0.19629-0.37109-0.52539-0.58789-0.91748-0.58789
					c-0.45508,0-0.7915,0.30762-0.7915,0.68652c0,0.40625,0.30811,0.62305,1.06445,0.91699
					c1.07178,0.40625,1.39404,0.79199,1.39404,1.47852c0,0.84668-0.60938,1.40039-1.61816,1.40039
					C41.35899,16.77528,40.65147,16.22157,40.51865,15.38173z"/>
			</g>
			<g enable-background="new    ">
				<path d="M11.21445,97.96523v4.88184h-0.67236l-2.2832-3.81738v3.81738H7.63535v-4.88184h0.66553l2.29004,3.80371v-3.80371
					H11.21445z"/>
				<path d="M15.32285,101.29921h-2.47217c0.021,0.6582,0.39209,1.05762,1.0293,1.05762c0.3501,0,0.64453-0.09766,0.93848-0.41309
					l0.41357,0.37109c-0.39258,0.41992-0.8125,0.5957-1.35889,0.5957c-1.09961,0-1.625-0.8125-1.625-1.77246
					c0-0.95215,0.51855-1.80664,1.56885-1.80664c1.05762,0,1.52686,0.81934,1.52686,1.65918
					C15.34385,101.08925,15.33701,101.20839,15.32285,101.29921z M14.76963,100.80898
					c-0.00684-0.01367-0.00684-0.03516-0.00684-0.06348c-0.021-0.53223-0.37158-0.91016-0.95264-0.91016
					c-0.58838,0-0.91748,0.45508-0.95947,0.97363H14.76963z"/>
				<path d="M15.77598,99.39394h0.64453l0.69336,2.53516l0.81934-2.53516h0.53906l0.81934,2.53516l0.69336-2.53516h0.64453
					l-1.0293,3.45312h-0.55371l-0.84033-2.6123l-0.84717,2.6123h-0.55371L15.77598,99.39394z"/>
				<path d="M24.6041,100.96327l-1.86279-2.99805h0.73535l1.42871,2.39551l1.43555-2.39551h0.74268l-1.85596,2.99805v1.88379
					H24.6041V100.96327z"/>
				<path d="M26.84287,101.11757c0-1.00879,0.6582-1.78613,1.67383-1.78613c1.00879,0,1.68799,0.77734,1.68799,1.78613
					c0,1.00098-0.67236,1.79297-1.68799,1.79297S26.84287,102.12538,26.84287,101.11757z M29.60264,101.11757
					c0-0.71484-0.37842-1.25391-1.08594-1.25391c-0.70703,0-1.07129,0.5459-1.07129,1.25391
					c0,0.70703,0.37109,1.25977,1.07129,1.25977C29.22422,102.37733,29.60264,101.81776,29.60264,101.11757z"/>
				<path d="M33.28379,99.4994l-0.29395,0.50391c-0.14697-0.07031-0.29395-0.10449-0.44824-0.10449
					c-0.52539,0-0.86865,0.37109-0.86865,1.08496v1.86328H31.0709v-3.45312h0.60205V99.933
					c0.21729-0.44043,0.63037-0.60156,0.99463-0.60156C32.88486,99.33144,33.08115,99.38026,33.28379,99.4994z"/>
				<path d="M33.89902,97.96523h0.60205v3.11719l1.57617-1.68848h0.80518l-1.26074,1.30957l1.44287,2.14355H36.3502l-1.1416-1.77148
					l-0.70752,0.75586v1.01562h-0.60205V97.96523z"/>
			</g>
			<g enable-background="new    ">
				<path d="M7.63535,79.91835h1.46387c1.05762,0,1.625,0.4834,1.625,1.37988c0,0.91016-0.58154,1.4082-1.625,1.4082H8.25889
					v2.09375H7.63535V79.91835z M9.03623,82.13222c0.71436,0,1.06445-0.27344,1.06445-0.82715
					c0-0.5459-0.3501-0.8125-1.06445-0.8125H8.25889v1.63965H9.03623z"/>
				<path d="M14.06992,82.64296v2.15723H13.5167l-0.04199-0.51855c-0.24512,0.37109-0.6582,0.58203-1.17676,0.58203
					c-0.74219,0-1.21143-0.4209-1.21143-1.08594c0-0.36426,0.15381-0.64453,0.43408-0.79883
					c0.25928-0.13965,0.60254-0.19629,1.18359-0.19629h0.76367v-0.13965c0-0.53223-0.29443-0.82617-0.81982-0.82617
					c-0.40625,0-0.73535,0.18848-1.0083,0.55273l-0.43408-0.36426c0.38477-0.49023,0.85449-0.7207,1.45654-0.7207
					C13.54453,81.28456,14.06992,81.78847,14.06992,82.64296z M13.46787,83.28749v-0.03516h-0.69336
					c-0.52539,0-0.76367,0.04199-0.91064,0.1543c-0.1123,0.09082-0.17529,0.22363-0.17529,0.39941
					c0,0.33594,0.28711,0.55273,0.74951,0.55273C13.04746,84.35878,13.46787,83.92519,13.46787,83.28749z"/>
				<path d="M17.35996,81.45253l-0.29443,0.50391c-0.14697-0.07031-0.29395-0.10449-0.44824-0.10449
					c-0.52539,0-0.86865,0.37109-0.86865,1.08496v1.86328h-0.60205v-3.45312h0.60205v0.53906
					c0.21729-0.44043,0.63037-0.60156,0.99463-0.60156C16.96055,81.28456,17.15684,81.33339,17.35996,81.45253z"/>
				<path d="M17.93906,79.91835h0.67236v0.73535h-0.67236V79.91835z M17.97422,81.34706h0.60205v3.45312h-0.60205V81.34706z"/>
				<path d="M19.38096,83.93886l0.49707-0.22461c0.1123,0.32227,0.39941,0.63086,0.91064,0.63086
					c0.44824,0,0.7002-0.23145,0.7002-0.53223c0-0.80566-1.91895-0.29395-1.91895-1.54102c0-0.62305,0.53223-0.9873,1.21143-0.9873
					c0.56738,0,1.02295,0.25195,1.26807,0.73535l-0.47656,0.25879c-0.15381-0.28027-0.39893-0.4834-0.80518-0.4834
					c-0.37842,0-0.6167,0.16113-0.6167,0.41309c0,0.72168,1.93311,0.27344,1.93311,1.56934
					c0,0.73535-0.61621,1.08594-1.27441,1.08594C20.11631,84.86366,19.56309,84.47792,19.38096,83.93886z"/>
			</g>
			<g enable-background="new    ">
				<path d="M7.18027,30.48378l0.61621-0.1543c0.08398,0.61621,0.53223,0.9873,1.15576,0.9873
					c0.63721,0,0.98047-0.3291,0.98047-0.78418c0-0.46191-0.28711-0.71484-1.09961-1.0293
					c-1.00146-0.38574-1.35156-0.74316-1.35156-1.40137c0-0.75586,0.58105-1.26758,1.43555-1.26758
					c0.63037,0,1.12061,0.28711,1.42188,0.82617L9.81357,27.9828c-0.19629-0.37109-0.52539-0.58789-0.91748-0.58789
					c-0.45508,0-0.7915,0.30762-0.7915,0.68652c0,0.40625,0.30811,0.62305,1.06445,0.91699
					c1.07178,0.40625,1.39404,0.79199,1.39404,1.47852c0,0.84668-0.60938,1.40039-1.61816,1.40039
					C8.02061,31.87733,7.31309,31.32362,7.18027,30.48378z"/>
				<path d="M14.09775,29.64296v2.15723h-0.55322l-0.04199-0.51855c-0.24512,0.37109-0.6582,0.58203-1.17676,0.58203
					c-0.74219,0-1.21143-0.4209-1.21143-1.08594c0-0.36426,0.15381-0.64453,0.43408-0.79883
					c0.25928-0.13965,0.60254-0.19629,1.18359-0.19629h0.76367v-0.13965c0-0.53223-0.29443-0.82617-0.81982-0.82617
					c-0.40625,0-0.73535,0.18848-1.0083,0.55273l-0.43408-0.36426c0.38477-0.49023,0.854-0.7207,1.45654-0.7207
					C13.57236,28.28456,14.09775,28.78846,14.09775,29.64296z M13.4957,30.28749v-0.03516h-0.69336
					c-0.52539,0-0.76367,0.04199-0.91064,0.1543c-0.1123,0.09082-0.17529,0.22363-0.17529,0.39941
					c0,0.33594,0.28711,0.55273,0.74951,0.55273C13.07529,31.35878,13.4957,30.92518,13.4957,30.28749z"/>
				<path d="M18.046,29.64979v2.15039h-0.60254v-2.00293c0-0.57422-0.16113-0.98047-0.72119-0.98047
					c-0.69336,0-0.9458,0.63672-0.9458,1.49121v1.49219h-0.60205v-3.45312h0.60205v0.46973
					c0.23145-0.33594,0.6377-0.53223,1.10693-0.53223C17.63975,28.28456,18.046,28.76014,18.046,29.64979z"/>
				<path d="M21.34922,28.45253l-0.29395,0.50391c-0.14697-0.07031-0.29395-0.10449-0.44824-0.10449
					c-0.52539,0-0.86865,0.37109-0.86865,1.08496v1.86328h-0.60205v-3.45312h0.60205v0.53906
					c0.21729-0.44043,0.63037-0.60156,0.99463-0.60156C20.95029,28.28456,21.14658,28.33339,21.34922,28.45253z"/>
				<path d="M24.49277,30.25233h-2.47217c0.021,0.6582,0.39209,1.05762,1.0293,1.05762c0.3501,0,0.64453-0.09766,0.93848-0.41309
					l0.41357,0.37109c-0.39258,0.41992-0.8125,0.5957-1.35889,0.5957c-1.09961,0-1.625-0.8125-1.625-1.77246
					c0-0.95215,0.51855-1.80664,1.56885-1.80664c1.05762,0,1.52686,0.81934,1.52686,1.65918
					C24.51377,30.04237,24.50693,30.16151,24.49277,30.25233z M23.93955,29.7621c-0.00684-0.01367-0.00684-0.03516-0.00684-0.06348
					c-0.021-0.53223-0.37158-0.91016-0.95264-0.91016c-0.58838,0-0.91748,0.45508-0.95947,0.97363H23.93955z"/>
				<path d="M30.24082,29.62928v2.1709h-0.60254v-1.99609c0-0.28711-0.01367-0.9873-0.7002-0.9873
					c-0.70752,0-0.81934,0.68652-0.81934,1.43555v1.54785h-0.60254v-1.98242c0-0.46875-0.13281-1.00098-0.71436-1.00098
					c-0.68652,0-0.80566,0.68652-0.80566,1.43555v1.54785h-0.60205l-0.00684-3.45312h0.58789v0.42773
					c0.21729-0.35742,0.56738-0.49023,0.93848-0.49023c0.44824,0,0.82666,0.18848,1.01562,0.67188
					c0.23828-0.46875,0.63037-0.67188,1.12793-0.67188C29.8834,28.28456,30.24082,28.85878,30.24082,29.62928z"/>
				<path d="M31.02891,30.07069c0-1.00879,0.6582-1.78613,1.67383-1.78613c1.00879,0,1.68799,0.77734,1.68799,1.78613
					c0,1.00098-0.67236,1.79297-1.68799,1.79297C31.68711,31.86366,31.02891,31.0785,31.02891,30.07069z M33.78867,30.07069
					c0-0.71484-0.37842-1.25391-1.08594-1.25391c-0.70703,0-1.07129,0.5459-1.07129,1.25391
					c0,0.70703,0.3711,1.25977,1.07129,1.25977C33.41026,31.33046,33.78867,30.77089,33.78867,30.07069z"/>
			</g>
			<g enable-background="new    ">
				<path d="M10.35996,66.80019l-1.22559-2.11523H8.81894H8.25889v2.11523H7.63535v-4.88184h1.46387
					c1.08545,0,1.625,0.49023,1.625,1.37305c0,0.69336-0.33643,1.13477-0.9668,1.30957l1.32373,2.19922H10.35996z M9.03623,64.1039
					c0.7002,0,1.06445-0.25196,1.06445-0.80567s-0.36426-0.80566-1.06445-0.80566H8.25889v1.61133H9.03623z"/>
				<path d="M11.46396,65.07069c0-1.00879,0.6582-1.78614,1.67383-1.78614c1.00879,0,1.68799,0.77735,1.68799,1.78614
					c0,1.00098-0.67236,1.79297-1.68799,1.79297S11.46396,66.07851,11.46396,65.07069z M14.22373,65.07069
					c0-0.71484-0.37842-1.25391-1.08594-1.25391c-0.70703,0-1.07129,0.5459-1.07129,1.25391
					c0,0.70703,0.37109,1.25977,1.07129,1.25977C13.84531,66.33046,14.22373,65.77089,14.22373,65.07069z"/>
				<path d="M20.53916,64.62929v2.1709h-0.60254v-1.99609c0-0.28711-0.01416-0.98731-0.7002-0.98731
					c-0.70752,0-0.81934,0.68653-0.81934,1.43555v1.54785h-0.60254v-1.98242c0-0.46875-0.1333-1.00098-0.71436-1.00098
					c-0.68652,0-0.80566,0.68653-0.80566,1.43555v1.54785h-0.60205l-0.00684-3.45313h0.58789v0.42773
					c0.21729-0.35742,0.56738-0.49023,0.93848-0.49023c0.44824,0,0.82666,0.18848,1.01562,0.67188
					c0.23828-0.46875,0.63037-0.67188,1.12793-0.67188C20.18174,63.28456,20.53916,63.85878,20.53916,64.62929z"/>
				<path d="M24.42295,65.25233h-2.47217c0.021,0.6582,0.39209,1.05762,1.0293,1.05762c0.3501,0,0.64453-0.09766,0.93848-0.41309
					l0.41357,0.37109c-0.39258,0.41992-0.8125,0.5957-1.35889,0.5957c-1.09961,0-1.625-0.8125-1.625-1.77246
					c0-0.95215,0.51855-1.80664,1.56885-1.80664c1.05762,0,1.52686,0.81934,1.52686,1.65918
					C24.44394,65.04237,24.43711,65.16151,24.42295,65.25233z M23.86973,64.7621c-0.00684-0.01367-0.00684-0.03516-0.00684-0.06348
					c-0.02148-0.53223-0.37158-0.91016-0.95264-0.91016c-0.58838,0-0.91748,0.45508-0.95947,0.97364H23.86973z"/>
			</g>
			<g enable-background="new    ">
				<path d="M8.71396,45.33241H7.07529v-0.57422h3.90771v0.57422H9.34434v4.30762H8.71396V45.33241z"/>
				<path d="M13.88779,46.1869v3.45312h-0.60254V49.1703c-0.24512,0.36426-0.67236,0.5332-1.10645,0.5332
					c-0.8125,0-1.1626-0.5752-1.1626-1.38672V46.1869h0.60205v1.98242c0,0.44824,0.06299,1.00098,0.71436,1.00098
					c0.72168,0,0.95264-0.68555,0.95264-1.48438V46.1869H13.88779z"/>
				<path d="M17.275,46.29237l-0.29395,0.50391c-0.14697-0.07031-0.29395-0.10449-0.44824-0.10449
					c-0.52539,0-0.86865,0.37109-0.86865,1.08496v1.86328h-0.60205V46.1869h0.60205v0.53906
					c0.21729-0.44043,0.63037-0.60156,0.99463-0.60156C16.87607,46.1244,17.07236,46.17323,17.275,46.29237z"/>
				<path d="M17.85508,44.75819h0.67236v0.73535h-0.67236V44.75819z M17.89023,46.1869h0.60205v3.45312h-0.60205V46.1869z"/>
				<path d="M22.53965,47.48964v2.15039h-0.60254V47.6371c0-0.57422-0.16113-0.98047-0.72119-0.98047
					c-0.69336,0-0.9458,0.63672-0.9458,1.49121v1.49219h-0.60205V46.1869h0.60205v0.46973
					c0.23145-0.33594,0.6377-0.53223,1.10693-0.53223C22.1334,46.1244,22.53965,46.59999,22.53965,47.48964z"/>
			</g>
			<g enable-background="new    ">
				<path d="M74.54063,7.11903v4.88184h-0.60254V8.45009h-1.19043V7.89637h0.75635c0.27295,0,0.43408-0.10449,0.43408-0.40625
					V7.11903H74.54063z"/>
				<path d="M79.61582,8.70204c0,0.30859-0.09814,0.62305-0.25928,0.88281l-1.46387,2.41602h-0.68604l1.07861-1.7373
					c-0.20312,0.05664-0.42041,0.07715-0.64453,0.0498c-0.81934-0.0918-1.42188-0.76367-1.42188-1.60449
					c0-0.93164,0.75635-1.65234,1.69482-1.65234C78.84531,7.05653,79.61582,7.77723,79.61582,8.70204z M78.99961,8.70887
					c0-0.60938-0.47656-1.07129-1.08594-1.07129c-0.60205,0-1.08545,0.46191-1.08545,1.07129s0.4834,1.07227,1.08545,1.07227
					C78.51621,9.78114,78.99961,9.31825,78.99961,8.70887z"/>
				<path d="M83.81602,10.26356v0.58203h-0.78418v1.15527H82.4293v-1.15527h-2.39551v-0.37891l2.45166-3.34766h0.54639v3.14453
					H83.81602z M82.4293,10.26356V8.00184l-1.61084,2.26172H82.4293z"/>
				<path d="M87.64512,10.33387c0,0.9248-0.72852,1.73047-1.72266,1.73047c-0.90381,0-1.56201-0.6377-1.69531-1.43652
					l0.58838-0.09766c0.09131,0.52539,0.4834,0.95215,1.09961,0.95215c0.68652,0,1.09277-0.5459,1.09277-1.14844
					c0-0.58105-0.37109-1.06445-1.04346-1.06445c-0.45557,0-0.77734,0.2168-0.99463,0.53906l-0.59521-0.1543l0.45508-2.53516H87.421
					v0.57422h-2.09424l-0.24512,1.35938c0.30859-0.25977,0.65137-0.34375,0.95264-0.34375
					C86.97276,8.70887,87.64512,9.43739,87.64512,10.33387z"/>
				<path d="M89.98789,9.64735h1.91943v0.46289h-1.91943V9.64735z"/>
				<path d="M96.59043,7.11903v4.88184h-0.60254V8.45009h-1.19043V7.89637h0.75635c0.27295,0,0.43408-0.10449,0.43408-0.40625
					V7.11903H96.59043z"/>
				<path d="M101.66563,8.70204c0,0.30859-0.09814,0.62305-0.25928,0.88281l-1.46387,2.41602h-0.68604l1.07861-1.7373
					c-0.20312,0.05664-0.42041,0.07715-0.64453,0.0498c-0.81934-0.0918-1.42188-0.76367-1.42188-1.60449
					c0-0.93164,0.75635-1.65234,1.69482-1.65234C100.89512,7.05653,101.66563,7.77723,101.66563,8.70204z M101.04942,8.70887
					c0-0.60938-0.47656-1.07129-1.08594-1.07129c-0.60205,0-1.08545,0.46191-1.08545,1.07129s0.4834,1.07227,1.08545,1.07227
					C100.56602,9.78114,101.04942,9.31825,101.04942,8.70887z"/>
				<path d="M105.6627,10.33387c0,0.9248-0.72852,1.73047-1.72266,1.73047c-0.90381,0-1.56201-0.6377-1.69531-1.43652
					l0.58838-0.09766c0.09131,0.52539,0.4834,0.95215,1.09961,0.95215c0.68652,0,1.09277-0.5459,1.09277-1.14844
					c0-0.58105-0.37109-1.06445-1.04346-1.06445c-0.45557,0-0.77734,0.2168-0.99463,0.53906l-0.59521-0.1543l0.45508-2.53516
					h2.59131v0.57422h-2.09424l-0.24512,1.35938c0.30859-0.25977,0.65137-0.34375,0.95264-0.34375
					C104.99033,8.70887,105.6627,9.43739,105.6627,10.33387z"/>
				<path d="M109.67344,10.33387c0,0.9248-0.72852,1.73047-1.72266,1.73047c-0.90381,0-1.56201-0.6377-1.69531-1.43652
					l0.58838-0.09766c0.09131,0.52539,0.4834,0.95215,1.09961,0.95215c0.68652,0,1.09277-0.5459,1.09277-1.14844
					c0-0.58105-0.37109-1.06445-1.04346-1.06445c-0.45557,0-0.77734,0.2168-0.99463,0.53906l-0.59521-0.1543l0.45508-2.53516
					h2.59131v0.57422h-2.09424l-0.24512,1.35938c0.30859-0.25977,0.65137-0.34375,0.95264-0.34375
					C109.00108,8.70887,109.67344,9.43739,109.67344,10.33387z"/>
			</g>
			<g enable-background="new    ">
				<path d="M120.54063,7.11903v4.88184h-0.60254V8.45009h-1.19043V7.89637h0.75635c0.27295,0,0.43408-0.10449,0.43408-0.40625
					V7.11903H120.54063z"/>
				<path d="M125.61582,8.70204c0,0.30859-0.09814,0.62305-0.25928,0.88281l-1.46387,2.41602h-0.68604l1.07861-1.7373
					c-0.20312,0.05664-0.42041,0.07715-0.64453,0.0498c-0.81934-0.0918-1.42188-0.76367-1.42188-1.60449
					c0-0.93164,0.75635-1.65234,1.69482-1.65234C124.84531,7.05653,125.61582,7.77723,125.61582,8.70204z M124.99961,8.70887
					c0-0.60938-0.47656-1.07129-1.08594-1.07129c-0.60205,0-1.08545,0.46191-1.08545,1.07129s0.4834,1.07227,1.08545,1.07227
					C124.51621,9.78114,124.99961,9.31825,124.99961,8.70887z"/>
				<path d="M129.61288,10.33387c0,0.9248-0.72852,1.73047-1.72265,1.73047c-0.90381,0-1.56201-0.6377-1.69531-1.43652
					l0.58838-0.09766c0.09131,0.52539,0.4834,0.95215,1.09961,0.95215c0.687,0,1.09325-0.5459,1.09325-1.14844
					c0-0.58105-0.37109-1.06445-1.04394-1.06445c-0.45557,0-0.77734,0.2168-0.99463,0.53906l-0.59521-0.1543l0.45508-2.53516
					h2.59081v0.57422h-2.09374l-0.24512,1.35938c0.30859-0.25977,0.65137-0.34375,0.95214-0.34375
					C128.94101,8.70887,129.61288,9.43739,129.61288,10.33387z"/>
				<path d="M133.6246,10.41102c0,0.93164-0.76367,1.65332-1.69531,1.65332c-0.93848,0-1.70215-0.72168-1.70215-1.64648
					c0-0.30762,0.09863-0.62305,0.25879-0.88184l1.46484-2.41699h0.68555l-1.08594,1.7373
					c0.20312-0.05664,0.42773-0.07715,0.64453-0.04883C133.02206,8.89833,133.6246,9.5702,133.6246,10.41102z M133.01523,10.41102
					c0-0.60938-0.49023-1.07129-1.08594-1.07129c-0.60254,0-1.09277,0.46191-1.09277,1.07129s0.4834,1.07129,1.09277,1.07129
					C132.52499,11.48231,133.01523,11.0204,133.01523,10.41102z"/>
				<path d="M135.96738,9.64735h1.91895v0.46289h-1.91895V9.64735z"/>
				<path d="M142.56992,7.11903v4.88184h-0.60352V8.45009h-1.18945V7.89637h0.75586c0.27344,0,0.43359-0.10449,0.43359-0.40625
					V7.11903H142.56992z"/>
				<path d="M147.64511,8.70204c0,0.30859-0.09863,0.62305-0.25879,0.88281l-1.46484,2.41602h-0.68555l1.07812-1.7373
					c-0.20312,0.05664-0.41992,0.07715-0.64453,0.0498c-0.81836-0.0918-1.42188-0.76367-1.42188-1.60449
					c0-0.93164,0.75684-1.65234,1.69531-1.65234C146.8746,7.05653,147.64511,7.77723,147.64511,8.70204z M147.0289,8.70887
					c0-0.60938-0.47656-1.07129-1.08594-1.07129c-0.60156,0-1.08594,0.46191-1.08594,1.07129s0.48438,1.07227,1.08594,1.07227
					C146.5455,9.78114,147.0289,9.31825,147.0289,8.70887z"/>
				<path d="M151.64218,10.41102c0,0.93164-0.76367,1.65332-1.69531,1.65332c-0.93848,0-1.70215-0.72168-1.70215-1.64648
					c0-0.30762,0.09863-0.62305,0.25879-0.88184l1.46484-2.41699h0.68555l-1.08594,1.7373
					c0.20312-0.05664,0.42773-0.07715,0.64453-0.04883C151.03964,8.89833,151.64218,9.5702,151.64218,10.41102z M151.03281,10.41102
					c0-0.60938-0.49023-1.07129-1.08594-1.07129c-0.60254,0-1.09277,0.46191-1.09277,1.07129s0.4834,1.07129,1.09277,1.07129
					C150.54257,11.48231,151.03281,11.0204,151.03281,10.41102z"/>
				<path d="M155.65292,10.33387c0,0.9248-0.72852,1.73047-1.72266,1.73047c-0.90332,0-1.56152-0.6377-1.69531-1.43652
					l0.58887-0.09766c0.09082,0.52539,0.48242,0.95215,1.09961,0.95215c0.68555,0,1.0918-0.5459,1.0918-1.14844
					c0-0.58105-0.37109-1.06445-1.04297-1.06445c-0.45508,0-0.77734,0.2168-0.99414,0.53906l-0.5957-0.1543l0.45508-2.53516h2.5918
					v0.57422h-2.09473l-0.24512,1.35938c0.30859-0.25977,0.65137-0.34375,0.95312-0.34375
					C154.98007,8.70887,155.65292,9.43739,155.65292,10.33387z"/>
			</g>
			<g enable-background="new    ">
				<path d="M166.54062,7.11903v4.88184h-0.60254V8.45009h-1.19043V7.89637h0.75586c0.27344,0,0.43457-0.10449,0.43457-0.40625
					V7.11903H166.54062z"/>
				<path d="M171.61581,8.70204c0,0.30859-0.09863,0.62305-0.25879,0.88281l-1.46484,2.41602h-0.68555l1.07812-1.7373
					c-0.20312,0.05664-0.41992,0.07715-0.64453,0.0498c-0.81836-0.0918-1.42188-0.76367-1.42188-1.60449
					c0-0.93164,0.75684-1.65234,1.69531-1.65234C170.84531,7.05653,171.61581,7.77723,171.61581,8.70204z M170.9996,8.70887
					c0-0.60938-0.47656-1.07129-1.08594-1.07129c-0.60156,0-1.08594,0.46191-1.08594,1.07129s0.48438,1.07227,1.08594,1.07227
					C170.5162,9.78114,170.9996,9.31825,170.9996,8.70887z"/>
				<path d="M175.61288,10.41102c0,0.93164-0.76367,1.65332-1.69531,1.65332c-0.9375,0-1.70117-0.72168-1.70117-1.64648
					c0-0.30762,0.09766-0.62305,0.25879-0.88184l1.46387-2.41699h0.68652l-1.08594,1.7373
					c0.20312-0.05664,0.42676-0.07715,0.64453-0.04883C175.01132,8.89833,175.61288,9.5702,175.61288,10.41102z M175.00351,10.41102
					c0-0.60938-0.49023-1.07129-1.08594-1.07129c-0.60156,0-1.0918,0.46191-1.0918,1.07129s0.48242,1.07129,1.0918,1.07129
					C174.51328,11.48231,175.00351,11.0204,175.00351,10.41102z"/>
				<path d="M179.6246,10.41102c0,0.93164-0.76367,1.65332-1.69531,1.65332c-0.93848,0-1.70215-0.72168-1.70215-1.64648
					c0-0.30762,0.09863-0.62305,0.25879-0.88184l1.46484-2.41699h0.68555l-1.08594,1.7373
					c0.20312-0.05664,0.42773-0.07715,0.64453-0.04883C179.02206,8.89833,179.6246,9.5702,179.6246,10.41102z M179.01523,10.41102
					c0-0.60938-0.49023-1.07129-1.08594-1.07129c-0.60254,0-1.09277,0.46191-1.09277,1.07129s0.4834,1.07129,1.09277,1.07129
					C178.52499,11.48231,179.01523,11.0204,179.01523,10.41102z"/>
				<path d="M181.96738,9.64735h1.91895v0.46289h-1.91895V9.64735z"/>
				<path d="M188.56992,7.11903v4.88184h-0.60352V8.45009h-1.18945V7.89637h0.75586c0.27344,0,0.43359-0.10449,0.43359-0.40625
					V7.11903H188.56992z"/>
				<path d="M193.64511,8.70204c0,0.30859-0.09863,0.62305-0.25879,0.88281l-1.46484,2.41602h-0.68555l1.07812-1.7373
					c-0.20312,0.05664-0.41992,0.07715-0.64453,0.0498c-0.81836-0.0918-1.42188-0.76367-1.42188-1.60449
					c0-0.93164,0.75684-1.65234,1.69531-1.65234C192.8746,7.05653,193.64511,7.77723,193.64511,8.70204z M193.0289,8.70887
					c0-0.60938-0.47656-1.07129-1.08594-1.07129c-0.60156,0-1.08594,0.46191-1.08594,1.07129s0.48438,1.07227,1.08594,1.07227
					C192.5455,9.78114,193.0289,9.31825,193.0289,8.70887z"/>
				<path d="M197.70468,7.11903v0.35059l-2.31055,4.53125h-0.6875l2.24805-4.30762h-2.75195V7.11903H197.70468z"/>
				<path d="M201.67343,10.33387c0,0.9248-0.72852,1.73047-1.72266,1.73047c-0.9043,0-1.5625-0.6377-1.69531-1.43652
					l0.58789-0.09766c0.0918,0.52539,0.48438,0.95215,1.09961,0.95215c0.6875,0,1.09375-0.5459,1.09375-1.14844
					c0-0.58105-0.37109-1.06445-1.04395-1.06445c-0.45605,0-0.77734,0.2168-0.99512,0.53906l-0.59473-0.1543l0.45508-2.53516
					h2.59082v0.57422h-2.09375l-0.24512,1.35938c0.30859-0.25977,0.65137-0.34375,0.95215-0.34375
					C201.00156,8.70887,201.67343,9.43739,201.67343,10.33387z"/>
			</g>
			<g enable-background="new    ">
				<path d="M212.54062,7.11903v4.88184h-0.60254V8.45009h-1.19043V7.89637h0.75586c0.27344,0,0.43457-0.10449,0.43457-0.40625
					V7.11903H212.54062z"/>
				<path d="M217.61581,8.70204c0,0.30859-0.09863,0.62305-0.25879,0.88281l-1.46484,2.41602h-0.68555l1.07812-1.7373
					c-0.20312,0.05664-0.41992,0.07715-0.64453,0.0498c-0.81836-0.0918-1.42188-0.76367-1.42188-1.60449
					c0-0.93164,0.75684-1.65234,1.69531-1.65234C216.84531,7.05653,217.61581,7.77723,217.61581,8.70204z M216.9996,8.70887
					c0-0.60938-0.47656-1.07129-1.08594-1.07129c-0.60156,0-1.08594,0.46191-1.08594,1.07129s0.48438,1.07227,1.08594,1.07227
					C216.5162,9.78114,216.9996,9.31825,216.9996,8.70887z"/>
				<path d="M221.67538,7.11903v0.35059l-2.31055,4.53125h-0.68652l2.24805-4.30762h-2.75293V7.11903H221.67538z"/>
				<path d="M225.64511,10.41102c0,0.93164-0.7627,1.65332-1.69434,1.65332c-0.93945,0-1.70312-0.72168-1.70312-1.64648
					c0-0.30762,0.09863-0.62305,0.25977-0.88184l1.46387-2.41699h0.68652l-1.08594,1.7373
					c0.20312-0.05664,0.42773-0.07715,0.64453-0.04883C225.04257,8.89833,225.64511,9.5702,225.64511,10.41102z M225.03574,10.41102
					c0-0.60938-0.49023-1.07129-1.08496-1.07129c-0.60352,0-1.09375,0.46191-1.09375,1.07129s0.48438,1.07129,1.09375,1.07129
					C224.5455,11.48231,225.03574,11.0204,225.03574,10.41102z"/>
				<path d="M227.98788,9.64735h1.91992v0.46289h-1.91992V9.64735z"/>
				<path d="M234.59042,7.11903v4.88184h-0.60254V8.45009h-1.19043V7.89637h0.75684c0.27246,0,0.43359-0.10449,0.43359-0.40625
					V7.11903H234.59042z"/>
				<path d="M239.66562,8.70204c0,0.30859-0.09766,0.62305-0.25977,0.88281l-1.46289,2.41602h-0.68652l1.0791-1.7373
					c-0.20312,0.05664-0.4209,0.07715-0.64453,0.0498c-0.82031-0.0918-1.42188-0.76367-1.42188-1.60449
					c0-0.93164,0.75586-1.65234,1.69434-1.65234C238.89511,7.05653,239.66562,7.77723,239.66562,8.70204z M239.04941,8.70887
					c0-0.60938-0.47656-1.07129-1.08594-1.07129c-0.60254,0-1.08496,0.46191-1.08496,1.07129s0.48242,1.07227,1.08496,1.07227
					S239.04941,9.31825,239.04941,8.70887z"/>
				<path d="M240.25937,10.60048c0-0.58887,0.30762-1.04395,0.83984-1.25391c-0.34961-0.19629-0.58105-0.55371-0.58105-1.01562
					c0-0.80566,0.71387-1.27441,1.4502-1.27441c0.76953,0,1.43555,0.49707,1.43555,1.29492
					c0,0.45605-0.23828,0.8125-0.58203,0.99512c0.5332,0.20996,0.83398,0.67188,0.83398,1.25391
					c0,0.97363-0.82617,1.46387-1.69531,1.46387C241.09238,12.06434,240.25937,11.58095,240.25937,10.60048z M243.06015,10.55067
					c0-0.59473-0.45508-0.95898-1.09961-0.95898s-1.09961,0.36426-1.09961,0.95898c0,0.62402,0.50391,0.93848,1.09961,0.93848
					S243.06015,11.1747,243.06015,10.55067z M242.8082,8.39345c0-0.44824-0.34961-0.75586-0.83984-0.75586
					c-0.46973,0-0.84766,0.28027-0.84766,0.74219c0,0.49023,0.34277,0.79199,0.84766,0.79199
					C242.45859,9.17177,242.8082,8.87001,242.8082,8.39345z"/>
				<path d="M247.67343,10.33387c0,0.9248-0.72852,1.73047-1.72266,1.73047c-0.9043,0-1.5625-0.6377-1.69531-1.43652
					l0.58789-0.09766c0.0918,0.52539,0.48438,0.95215,1.09961,0.95215c0.6875,0,1.09375-0.5459,1.09375-1.14844
					c0-0.58105-0.37109-1.06445-1.04395-1.06445c-0.45605,0-0.77734,0.2168-0.99512,0.53906l-0.59473-0.1543l0.45508-2.53516
					h2.59082v0.57422h-2.09375l-0.24512,1.35938c0.30859-0.25977,0.65137-0.34375,0.95215-0.34375
					C247.00156,8.70887,247.67343,9.43739,247.67343,10.33387z"/>
			</g>
			<g enable-background="new    ">
				<path d="M227.35507,99.78944c0-1.16211,0.24512-2.51465,1.51367-2.51465c1.1543,0,1.55469,1.18457,1.55469,2.52148
					c0,1.33789-0.39258,2.50098-1.50586,2.50098C227.61484,102.29726,227.35507,100.95253,227.35507,99.78944z M229.9039,99.78944
					c0-1.12695-0.2168-2.05176-1.03516-2.05176c-0.85547,0-1.01562,1.00098-1.01562,2.05176
					c0,1.0293,0.16016,2.04492,1.0498,2.04492C229.69492,101.83437,229.9039,100.89589,229.9039,99.78944z"/>
			</g>
			<g enable-background="new    ">
				<path d="M88.35508,98.78944c0-1.16211,0.24512-2.51465,1.51318-2.51465c1.15527,0,1.55469,1.18457,1.55469,2.52148
					c0,1.33789-0.39209,2.50098-1.50586,2.50098C88.61436,101.29726,88.35508,99.95253,88.35508,98.78944z M90.9044,98.78944
					c0-1.12695-0.2168-2.05176-1.03613-2.05176c-0.85449,0-1.01562,1.00098-1.01562,2.05176
					c0,1.0293,0.16113,2.04492,1.05029,2.04492C90.69444,100.83437,90.9044,99.89589,90.9044,98.78944z"/>
			</g>
			<g enable-background="new    ">
				<path d="M134.35507,99.78944c0-1.16211,0.24512-2.51465,1.51367-2.51465c1.1543,0,1.55469,1.18457,1.55469,2.52148
					c0,1.33789-0.39258,2.50098-1.50586,2.50098C134.61484,102.29726,134.35507,100.95253,134.35507,99.78944z M136.9039,99.78944
					c0-1.12695-0.2168-2.05176-1.03516-2.05176c-0.85547,0-1.01562,1.00098-1.01562,2.05176
					c0,1.0293,0.16016,2.04492,1.0498,2.04492C136.69492,101.83437,136.9039,100.89589,136.9039,99.78944z"/>
			</g>
			<g enable-background="new    ">
				<path d="M185.54257,98.90761c0,0.30078-0.09863,0.61621-0.25293,0.86816l-1.4707,2.45117h-0.5459l1.12695-1.83496
					c-0.25195,0.09082-0.56055,0.13965-0.86133,0.08398c-0.73535-0.13281-1.31641-0.77734-1.31641-1.56152
					c0-0.88965,0.74219-1.625,1.66016-1.625C184.79257,97.28944,185.54257,98.01796,185.54257,98.90761z M185.05234,98.91444
					c0-0.6377-0.51953-1.16309-1.16992-1.16309c-0.64453,0-1.16992,0.52539-1.16992,1.16309
					c0,0.63672,0.52539,1.15527,1.16992,1.15527S185.05234,99.55116,185.05234,98.91444z"/>
			</g>
			<g enable-background="new    ">
				<path d="M228.56308,84.34511v0.45508h-3.37598v-0.44824c1.1416-0.71484,2.66211-1.7373,2.66211-3.03223
					c0-0.61719-0.34375-1.00879-0.97461-1.00879c-0.74219,0-1.07812,0.53906-1.08496,1.26074l-0.47656-0.03516
					c0-0.95996,0.55371-1.68848,1.56152-1.68848c0.86914,0,1.46484,0.54004,1.46484,1.47852
					c0,1.24609-1.10742,2.24121-2.34668,3.01855H228.56308z"/>
				<path d="M229.32382,82.36269c0-1.16211,0.24512-2.51465,1.51367-2.51465c1.1543,0,1.55469,1.18457,1.55469,2.52148
					c0,1.33789-0.39258,2.50098-1.50586,2.50098C229.58359,84.8705,229.32382,83.52577,229.32382,82.36269z M231.87265,82.36269
					c0-1.12695-0.2168-2.05176-1.03516-2.05176c-0.85547,0-1.01562,1.00098-1.01562,2.05176
					c0,1.0293,0.16016,2.04492,1.0498,2.04492C231.66367,84.40761,231.87265,83.46913,231.87265,82.36269z"/>
			</g>
			<g enable-background="new    ">
				<path d="M90.46348,79.91835v4.88184h-0.4834v-3.62109h-1.21875v-0.47656h0.8125c0.24512,0,0.40625-0.08398,0.40625-0.37109
					v-0.41309H90.46348z"/>
			</g>
			<g enable-background="new    ">
				<path d="M137.7457,83.17519v0.46191h-0.79199v1.16309h-0.4834V83.6371h-2.44434v-0.31445l2.47949-3.4043h0.44824v3.25684
					H137.7457z M136.47031,83.17519v-2.52832l-1.7998,2.52832H136.47031z"/>
			</g>
			<g enable-background="new    ">
				<path d="M182.46347,79.91835v4.88184h-0.4834v-3.62109h-1.21875v-0.47656h0.8125c0.24512,0,0.40625-0.08398,0.40625-0.37109
					v-0.41309H182.46347z"/>
				<path d="M187.53183,84.34511v0.45508h-3.37598v-0.44824c1.1416-0.71484,2.66211-1.7373,2.66211-3.03223
					c0-0.61719-0.34375-1.00879-0.97461-1.00879c-0.74219,0-1.07812,0.53906-1.08496,1.26074l-0.47656-0.03516
					c0-0.95996,0.55371-1.68848,1.56152-1.68848c0.86914,0,1.46484,0.54004,1.46484,1.47852
					c0,1.24609-1.10742,2.24121-2.34668,3.01855H187.53183z"/>
			</g>
			<g enable-background="new    ">
				<path d="M227.23593,64.4203c0-0.61621,0.34375-1.08496,0.91016-1.27442c-0.38477-0.18945-0.63672-0.57422-0.63672-1.05762
					c0-0.77734,0.69336-1.22559,1.38672-1.22559c0.75,0,1.37305,0.49023,1.37305,1.25391c0,0.47559-0.2666,0.85449-0.6377,1.0293
					c0.56055,0.18945,0.89648,0.66504,0.89648,1.27442c0,0.95996-0.80566,1.43555-1.63867,1.43555
					S227.23593,65.38026,227.23593,64.4203z M230.05234,64.38515c0-0.63672-0.48438-1.04297-1.16309-1.04297
					c-0.68652,0-1.16992,0.40625-1.16992,1.04297c0,0.67285,0.5459,1.00879,1.16992,1.00879
					C229.50546,65.39394,230.05234,65.058,230.05234,64.38515z M229.79257,62.15077c0-0.48242-0.37109-0.82617-0.89648-0.82617
					c-0.4834,0-0.90332,0.30176-0.90332,0.80566c0,0.53906,0.37109,0.875,0.90332,0.875
					C229.42148,63.00526,229.79257,62.66932,229.79257,62.15077z"/>
			</g>
			<g enable-background="new    ">
				<path d="M88.35508,63.36268c0-1.16211,0.24512-2.51465,1.51318-2.51465c1.15527,0,1.55469,1.18457,1.55469,2.52148
					c0,1.33789-0.39209,2.50098-1.50586,2.50098C88.61436,65.8705,88.35508,64.52577,88.35508,63.36268z M90.9044,63.36268
					c0-1.12695-0.2168-2.05176-1.03613-2.05176c-0.85449,0-1.01562,1.00098-1.01562,2.05176
					c0,1.0293,0.16113,2.04493,1.05029,2.04493C90.69444,65.40761,90.9044,64.46913,90.9044,63.36268z"/>
			</g>
			<g enable-background="new    ">
				<path d="M137.54843,64.23183c0,0.88867-0.74219,1.62402-1.65918,1.62402c-0.91113,0-1.66016-0.72754-1.66016-1.61719
					c0-0.30176,0.09863-0.61621,0.25293-0.86914l1.4707-2.45117h0.5459l-1.12793,1.83496
					c0.25195-0.09082,0.56055-0.13965,0.86133-0.08398C136.96835,62.80214,137.54843,63.44667,137.54843,64.23183z
					 M137.0582,64.23183c0-0.6377-0.52539-1.15625-1.16895-1.15625c-0.64453,0-1.16992,0.51855-1.16992,1.15625
					c0,0.63672,0.51855,1.16211,1.16992,1.16211C136.53281,65.39394,137.0582,64.86855,137.0582,64.23183z"/>
			</g>
			<g enable-background="new    ">
				<path d="M181.35507,63.36268c0-1.16211,0.24512-2.51465,1.51367-2.51465c1.1543,0,1.55469,1.18457,1.55469,2.52148
					c0,1.33789-0.39258,2.50098-1.50586,2.50098C181.61484,65.8705,181.35507,64.52577,181.35507,63.36268z M183.9039,63.36268
					c0-1.12695-0.2168-2.05176-1.03516-2.05176c-0.85547,0-1.01562,1.00098-1.01562,2.05176
					c0,1.0293,0.16016,2.04493,1.0498,2.04493C183.69492,65.40761,183.9039,64.46913,183.9039,63.36268z"/>
			</g>
			<g enable-background="new    ">
				<path d="M227.35507,28.36268c0-1.16211,0.24512-2.51465,1.51367-2.51465c1.1543,0,1.55469,1.18457,1.55469,2.52148
					c0,1.33789-0.39258,2.50098-1.50586,2.50098C227.61484,30.87049,227.35507,29.52577,227.35507,28.36268z M229.9039,28.36268
					c0-1.12695-0.2168-2.05176-1.03516-2.05176c-0.85547,0-1.01562,1.00098-1.01562,2.05176
					c0,1.0293,0.16016,2.04492,1.0498,2.04492C229.69492,30.4076,229.9039,29.46913,229.9039,28.36268z"/>
			</g>
			<g enable-background="new    ">
				<path d="M91.56309,29.14686c0,0.9248-0.72168,1.70898-1.69482,1.70898c-0.88281,0-1.52002-0.62305-1.66016-1.40723
					l0.47607-0.07715c0.10547,0.58789,0.54639,1.02246,1.18408,1.02246c0.72119,0,1.18359-0.58105,1.18359-1.24707
					c0-0.64355-0.42041-1.16211-1.12793-1.16211c-0.46924,0-0.82617,0.23145-1.07129,0.58789l-0.49023-0.13281l0.44092-2.52148
					h2.52832v0.46289h-2.12891l-0.28027,1.58203c0.3291-0.30762,0.70068-0.42676,1.05762-0.42676
					C90.89756,27.53651,91.56309,28.25038,91.56309,29.14686z"/>
			</g>
			<g enable-background="new    ">
				<path d="M137.56308,30.3451v0.45508h-3.37598v-0.44824c1.1416-0.71484,2.66211-1.7373,2.66211-3.03223
					c0-0.61719-0.34375-1.00879-0.97461-1.00879c-0.74219,0-1.07812,0.53906-1.08496,1.26074l-0.47656-0.03516
					c0-0.95996,0.55371-1.68848,1.56152-1.68848c0.86914,0,1.46484,0.54004,1.46484,1.47852
					c0,1.24609-1.10742,2.24121-2.34668,3.01855H137.56308z"/>
			</g>
			<g enable-background="new    ">
				<path d="M181.13046,29.34315l0.47656-0.02734c0,0.69336,0.51172,1.0918,1.24707,1.0918
					c0.69336,0,1.21875-0.37109,1.21875-1.03613c0-0.82617-0.83301-0.93848-1.46387-0.93848v-0.40625
					c0.70703,0,1.20508-0.2666,1.20508-0.87598c0-0.57422-0.4209-0.83984-0.93945-0.83984
					c-0.60938,0-1.0293,0.33594-1.03613,0.93848l-0.46973-0.03516c0-0.84766,0.6377-1.36621,1.48535-1.36621
					c0.77051,0,1.44238,0.44824,1.44238,1.24707c0,0.58887-0.37109,0.98047-0.73438,1.09961
					c0.53125,0.09766,0.99414,0.50391,0.99414,1.21875c0,0.9248-0.75684,1.45703-1.70898,1.45703
					C181.87363,30.87049,181.13046,30.33046,181.13046,29.34315z"/>
			</g>
			<g enable-background="new    ">
				<path d="M227.35507,46.02235c0-1.16211,0.24512-2.51465,1.51367-2.51465c1.1543,0,1.55469,1.18457,1.55469,2.52148
					c0,1.33789-0.39258,2.50098-1.50586,2.50098C227.61484,48.53016,227.35507,47.18544,227.35507,46.02235z M229.9039,46.02235
					c0-1.12695-0.2168-2.05176-1.03516-2.05176c-0.85547,0-1.01562,1.00098-1.01562,2.05176
					c0,1.0293,0.16016,2.04492,1.0498,2.04492C229.69492,48.06727,229.9039,47.1288,229.9039,46.02235z"/>
			</g>
			<g enable-background="new    ">
				<path d="M91.56309,45.97352c0,0.9248-0.72168,1.70898-1.69482,1.70898c-0.88281,0-1.52002-0.62305-1.66016-1.40723
					l0.47607-0.07715c0.10547,0.58789,0.54639,1.02246,1.18408,1.02246c0.72119,0,1.18359-0.58105,1.18359-1.24707
					c0-0.64355-0.42041-1.16211-1.12793-1.16211c-0.46924,0-0.82617,0.23145-1.07129,0.58789l-0.49023-0.13281l0.44092-2.52148
					h2.52832v0.46289h-2.12891l-0.28027,1.58203c0.3291-0.30762,0.70068-0.42676,1.05762-0.42676
					C90.89756,44.36317,91.56309,45.07704,91.56309,45.97352z"/>
			</g>
			<g enable-background="new    ">
				<path d="M137.7457,46.00184v0.46191h-0.79199v1.16309h-0.4834v-1.16309h-2.44434V46.1493l2.47949-3.4043h0.44824v3.25684
					H137.7457z M136.47031,46.00184v-2.52832l-1.7998,2.52832H136.47031z"/>
			</g>
			<g enable-background="new    ">
				<path d="M181.35507,46.02235c0-1.16211,0.24512-2.51465,1.51367-2.51465c1.1543,0,1.55469,1.18457,1.55469,2.52148
					c0,1.33789-0.39258,2.50098-1.50586,2.50098C181.61484,48.53016,181.35507,47.18544,181.35507,46.02235z M183.9039,46.02235
					c0-1.12695-0.2168-2.05176-1.03516-2.05176c-0.85547,0-1.01562,1.00098-1.01562,2.05176
					c0,1.0293,0.16016,2.04492,1.0498,2.04492C183.69492,48.06727,183.9039,47.1288,183.9039,46.02235z"/>
			</g>
		</g>
		<g id="Rettangolo_19366">
			<rect y="0" fill="none" width="250" height="108"/>
			<rect x="0.25" y="0.25" fill="none" stroke="#000000" stroke-width="0.5" width="249.5" height="107.5"/>
		</g>
	</g>
</g>
</svg>
