<?xml version="1.0" encoding="utf-8"?>
<!-- Generator: Adobe Illustrator 25.1.0, SVG Export Plug-In . SVG Version: 6.00 Build 0)  -->
<svg version="1.1" id="Livello_1" xmlns="http://www.w3.org/2000/svg" xmlns:xlink="http://www.w3.org/1999/xlink" x="0px" y="0px"
	 viewBox="0 0 600 106" enable-background="new 0 0 600 106" xml:space="preserve">
<g>
	<g>
		<defs>
			<rect id="SVGID_1_" y="0" width="600" height="106"/>
		</defs>
		<clipPath id="SVGID_2_">
			<use xlink:href="#SVGID_1_"  overflow="visible"/>
		</clipPath>
		<g id="legenda_02" clip-path="url(#SVGID_2_)">
			<g id="Isolation_Mode" transform="translate(0.61 -12.99)">
				<g>
					<path fill="none" stroke="#ED6826" stroke-width="0.5" stroke-miterlimit="10" d="M242.59068,42.35231l8.36133,6.96771h5.40004
						l-11.20906-9.34088C244.0136,40.51741,243.11003,41.35011,242.59068,42.35231z"/>
					<path fill="none" stroke="#ED6826" stroke-width="0.5" stroke-miterlimit="10" d="M242.10197,44.32002c0,2.75,2.70001,5,6,5
						h2.85004l-8.36133-6.96771C242.27727,42.95716,242.10197,43.62214,242.10197,44.32002z"/>
					<path fill="none" stroke="#ED6826" stroke-width="0.5" stroke-miterlimit="10" d="M263.10199,44.32002c0-2.75-2.69995-5-6-5
						h-1.95003l7.69966,6.41638C263.01233,45.28657,263.10199,44.81184,263.10199,44.32002z"/>
					<path fill="none" stroke="#ED6826" stroke-width="0.5" stroke-miterlimit="10" d="M262.85162,45.7364l-7.69966-6.41638H249.752
						l10.85475,9.04559C261.66736,47.72462,262.46973,46.80549,262.85162,45.7364z"/>
					<path fill="none" stroke="#ED6826" stroke-width="0.5" stroke-miterlimit="10" d="M260.60675,48.36561L249.752,39.32002
						h-1.65002c-1.07507,0-2.08386,0.242-2.95898,0.65912l11.20906,9.34088h0.74994
						C258.40918,49.32002,259.61841,48.9629,260.60675,48.36561z"/>
				</g>
				<g>
					<path fill="none" stroke="#00FFB6" stroke-width="0.5" stroke-miterlimit="10" d="M242.10197,68.36201c0,2.75,2.70001,5,6,5
						h2.85004l-8.38098-6.98413C242.26945,66.97889,242.10197,67.6471,242.10197,68.36201z"/>
					<path fill="none" stroke="#00FFB6" stroke-width="0.5" stroke-miterlimit="10" d="M242.57103,66.37788l8.38098,6.98413h5.40004
						l-11.22932-9.35773C243.98924,64.53187,243.08409,65.35548,242.57103,66.37788z"/>
					<path fill="none" stroke="#00FFB6" stroke-width="0.5" stroke-miterlimit="10" d="M260.60675,72.4076L249.752,63.36201
						h-1.65002c-1.0835,0-2.09943,0.23279-2.97925,0.64227l11.22932,9.35773h0.74994
						C258.40918,73.36201,259.61841,73.00489,260.60675,72.4076z"/>
					<path fill="none" stroke="#00FFB6" stroke-width="0.5" stroke-miterlimit="10" d="M263.10199,68.36201c0-2.75-2.69995-5-6-5
						h-1.95003l7.69966,6.41638C263.01233,69.32856,263.10199,68.85383,263.10199,68.36201z"/>
					<path fill="none" stroke="#00FFB6" stroke-width="0.5" stroke-miterlimit="10" d="M262.85162,69.77839l-7.69966-6.41638
						H249.752l10.85475,9.04559C261.66736,71.76661,262.46973,70.84748,262.85162,69.77839z"/>
				</g>
				
					<circle id="Ellisse_33203" fill="none" stroke="#000000" stroke-width="0.25" stroke-miterlimit="10" cx="399.354" cy="47.411" r="2.89001"/>
				
					<circle id="Ellisse_33204" fill="none" stroke="#000000" stroke-width="0.25" stroke-miterlimit="10" cx="399.353" cy="43.943" r="6.357"/>
				<g enable-background="new    ">
					<path d="M271.74402,39.91304h0.73926l1.6792,5.90625l1.7793-5.53711h0.62939l1.7793,5.53711l1.66895-5.90625h0.74951
						l-2.01904,6.96582h-0.71924l-1.76904-5.4668l-1.7793,5.4668h-0.71973L271.74402,39.91304z"/>
					<path d="M285.47156,43.8105v3.06836h-0.62988l-0.04004-0.75977c-0.38965,0.5498-0.98926,0.83984-1.76904,0.83984
						c-1.06934,0-1.69873-0.55957-1.69873-1.50977c0-0.49902,0.19971-0.87891,0.55957-1.09863
						c0.37988-0.21973,0.90967-0.31055,1.87891-0.31055h1.00928V43.8105c0-0.85938-0.44971-1.3291-1.2793-1.3291
						c-0.61963,0-1.09912,0.26953-1.49902,0.81934l-0.49951-0.41992c0.5293-0.68945,1.16895-1.00879,2.00879-1.00879
						C284.75183,41.87202,285.47156,42.58101,285.47156,43.8105z M284.78162,44.66987v-0.06934h-0.94922
						c-0.90967,0-1.29932,0.05957-1.53906,0.24902c-0.18018,0.14062-0.27002,0.36035-0.27002,0.63965
						c0,0.5498,0.46973,0.90039,1.20947,0.90039C284.18201,46.3896,284.78162,45.71968,284.78162,44.66987z"/>
					<path d="M290.15173,42.08198l-0.33984,0.55957c-0.22949-0.10059-0.43945-0.15039-0.64941-0.15039
						c-0.75977,0-1.31934,0.56934-1.31934,1.63965v2.74805h-0.68945v-4.92773h0.68945v0.74023
						c0.35986-0.64941,0.95947-0.81934,1.45898-0.81934C289.60242,41.87202,289.8822,41.93159,290.15173,42.08198z"/>
				</g>
				<g enable-background="new    ">
					<path d="M272.46326,63.4062h0.70996v6.30664h3.17822v0.65918h-3.88818V63.4062z"/>
					<path d="M277.54382,63.4062h0.79932v1.01953h-0.79932V63.4062z M277.60388,65.44428h0.68945v4.92773h-0.68945V65.44428z"/>
					<path d="M283.95154,71.13178c0,0.92969-0.86963,1.35938-2.10889,1.35938c-1.36914,0-2.19873-0.54004-2.19873-1.51953
						c0-0.09961,0.00977-0.16016,0.02002-0.21973l0.79932-0.67969c-0.37988-0.16992-0.63965-0.4502-0.63965-0.93945
						c0-0.39941,0.18018-0.69922,0.52979-0.93945c-0.25977-0.2998-0.41992-0.67969-0.41992-1.11914
						c0-1,0.81982-1.70898,1.87891-1.70898c0.47998,0,0.90967,0.14941,1.22949,0.39941l0.67969-0.58984l0.35986,0.4502
						l-0.66992,0.55957c0.16992,0.26953,0.27002,0.5791,0.27002,0.92969c0,1.00879-0.81934,1.67871-1.85889,1.67871
						c-0.37988,0-0.72949-0.08984-1.01953-0.25c-0.19971,0.11035-0.31982,0.29004-0.31982,0.5c0,0.5,0.61963,0.61914,1.3291,0.72949
						C282.79187,69.92182,283.95154,70.06245,283.95154,71.13178z M283.2616,71.19135c0-0.59961-0.7793-0.68945-1.59912-0.81934
						c-0.21973-0.03027-0.44971-0.07031-0.65967-0.12012l-0.66943,0.64941c-0.01025,0.05078-0.01025,0.07031-0.01025,0.09082
						c0,0.69922,0.70996,0.91895,1.54932,0.91895C282.74207,71.91108,283.2616,71.67085,283.2616,71.19135z M280.61316,67.0937
						c0,0.63965,0.45996,1.12988,1.19922,1.12988c0.73975,0,1.17969-0.48047,1.17969-1.12988
						c0-0.67969-0.45996-1.14941-1.16943-1.14941C281.12292,65.94428,280.61316,66.41401,280.61316,67.0937z"/>
					<path d="M289.08142,65.44428v4.92773h-0.68945v-0.70996c-0.3501,0.53027-0.97949,0.79004-1.62939,0.79004
						c-1.11914,0-1.60889-0.76953-1.60889-1.98926v-3.01855h0.68945v2.84863c0,0.7998,0.14014,1.5498,1.07959,1.5498
						c0.97949,0,1.46924-0.84961,1.46924-2.12891v-2.26953H289.08142z"/>
					<path d="M293.90173,65.57514l-0.33984,0.55957c-0.22949-0.10059-0.43945-0.15039-0.64941-0.15039
						c-0.75977,0-1.31934,0.56934-1.31934,1.63965v2.74805h-0.68945v-4.92773h0.68945v0.74023
						c0.35986-0.64941,0.95947-0.81934,1.45898-0.81934C293.35242,65.36518,293.6322,65.42475,293.90173,65.57514z"/>
					<path d="M294.86316,63.4062h0.79932v1.01953h-0.79932V63.4062z M294.92322,65.44428h0.68945v4.92773h-0.68945V65.44428z"/>
					<path d="M301.10095,67.30366v3.06836h-0.62988l-0.04004-0.75977c-0.38965,0.5498-0.98926,0.83984-1.76855,0.83984
						c-1.06934,0-1.69873-0.55957-1.69873-1.50977c0-0.49902,0.19971-0.87891,0.55957-1.09863
						c0.37988-0.21973,0.90967-0.31055,1.87842-0.31055h1.00977v-0.22949c0-0.85938-0.4502-1.3291-1.2793-1.3291
						c-0.61963,0-1.09912,0.26953-1.49902,0.81934l-0.49951-0.41992c0.5293-0.68945,1.16895-1.00879,2.00879-1.00879
						C300.38123,65.36518,301.10095,66.07417,301.10095,67.30366z M300.4115,68.16303V68.0937h-0.94922
						c-0.90967,0-1.29932,0.05957-1.53906,0.24902c-0.18018,0.14062-0.27002,0.36035-0.27002,0.63965
						c0,0.5498,0.46973,0.90039,1.20947,0.90039C299.81189,69.88276,300.4115,69.21284,300.4115,68.16303z"/>
					<path d="M306.71033,67.35346v3.01855h-0.68945v-2.84863c0-1.05957-0.33984-1.54883-1.0791-1.54883
						c-0.92969,0-1.46973,0.7998-1.46973,2.18848v2.20898h-0.68945v-4.92773h0.68945v0.71973
						c0.32031-0.49902,0.91992-0.79883,1.62891-0.79883C306.16052,65.36518,306.71033,66.04487,306.71033,67.35346z"/>
					<path d="M315.07068,67.35346v3.01855h-0.68945v-2.84863c0-1.05957-0.33984-1.54883-1.08008-1.54883
						c-0.92969,0-1.46875,0.7998-1.46875,2.18848v2.20898h-0.68945v-4.92773h0.68945v0.71973
						c0.31934-0.49902,0.91895-0.79883,1.62891-0.79883C314.52087,65.36518,315.07068,66.04487,315.07068,67.35346z"/>
					<path d="M320.4408,67.30366v3.06836h-0.62988l-0.04004-0.75977c-0.38965,0.5498-0.98926,0.83984-1.76953,0.83984
						c-1.06934,0-1.69824-0.55957-1.69824-1.50977c0-0.49902,0.19922-0.87891,0.55957-1.09863
						c0.37988-0.21973,0.90918-0.31055,1.87891-0.31055h1.00879v-0.22949c0-0.85938-0.44922-1.3291-1.2793-1.3291
						c-0.61914,0-1.09863,0.26953-1.49902,0.81934l-0.49902-0.41992c0.5293-0.68945,1.16895-1.00879,2.00879-1.00879
						C319.72107,65.36518,320.4408,66.07417,320.4408,67.30366z M319.75037,68.16303V68.0937h-0.94922
						c-0.90918,0-1.29883,0.05957-1.53906,0.24902c-0.17969,0.14062-0.26953,0.36035-0.26953,0.63965
						c0,0.5498,0.46973,0.90039,1.20898,0.90039C319.15076,69.88276,319.75037,69.21284,319.75037,68.16303z"/>
					<path d="M324.17126,70.32221c-0.25977,0.08008-0.51953,0.12988-0.74902,0.12988c-0.66016,0-1.13965-0.37012-1.13965-1.23926
						v-3.18848h-0.81934v-0.58008h0.81934v-1.37891l0.68945-0.51953v1.89843h1.18945v0.58008h-1.18945v3.09863
						c0,0.47949,0.21973,0.69922,0.60938,0.69922c0.16992,0,0.36035-0.04004,0.58008-0.10938L324.17126,70.32221z"/>
					<path d="M329.29041,65.44428v4.92773h-0.68945v-0.70996c-0.35059,0.53027-0.97949,0.79004-1.62988,0.79004
						c-1.11914,0-1.6084-0.76953-1.6084-1.98926v-3.01855h0.68945v2.84863c0,0.7998,0.13965,1.5498,1.0791,1.5498
						c0.97949,0,1.46973-0.84961,1.46973-2.12891v-2.26953H329.29041z"/>
					<path d="M334.11072,65.57514l-0.33984,0.55957c-0.22949-0.10059-0.43945-0.15039-0.64941-0.15039
						c-0.75977,0-1.31934,0.56934-1.31934,1.63965v2.74805h-0.68945v-4.92773h0.68945v0.74023
						c0.35938-0.64941,0.95898-0.81934,1.45898-0.81934C333.56091,65.36518,333.84119,65.42475,334.11072,65.57514z"/>
					<path d="M338.57947,68.0937h-3.60742c0.01953,1.0791,0.61914,1.72852,1.58887,1.72852
						c0.54004,0,0.96973-0.13965,1.41895-0.61914l0.48047,0.41895c-0.58008,0.61035-1.14941,0.83008-1.90918,0.83008
						c-1.49902,0-2.26855-1.11914-2.26855-2.51855c0-1.38965,0.75977-2.56836,2.18848-2.56836
						c1.50879,0,2.13867,1.17871,2.13867,2.29785C338.60974,67.80366,338.59998,67.97358,338.57947,68.0937z M334.97205,67.51362
						h2.97852c0-0.02051-0.01074-0.07031-0.01074-0.16016c-0.0498-0.7998-0.55957-1.40918-1.46875-1.40918
						C335.58142,65.94428,335.03162,66.64448,334.97205,67.51362z"/>
				</g>
				<g enable-background="new    ">
					<path d="M243.18346,20.79292c0-2.6748,1.4873-4.30566,3.92188-4.30566c1.70312,0,2.93848,0.79102,3.52588,2.33789
						l-0.9834,0.38379c-0.41943-1.15137-1.2832-1.70312-2.54248-1.70312c-1.82275,0-2.85449,1.1875-2.85449,3.28711
						c0,2.11035,1.03174,3.32129,2.81836,3.32129c1.24756,0,2.14697-0.58691,2.57861-1.73828l1.00781,0.37109
						c-0.61182,1.55957-1.8833,2.38672-3.58643,2.38672C244.65855,25.13374,243.18346,23.49116,243.18346,20.79292z"/>
					<path d="M251.73961,20.81635c0-2.60254,1.55908-4.3291,3.87354-4.3291c2.32668,0,3.88625,1.72656,3.88625,4.3291
						c0,2.59082-1.55957,4.31738-3.88625,4.31738C253.29869,25.13374,251.73961,23.40718,251.73961,20.81635z M258.43201,20.81635
						c0-2.02637-1.10352-3.31055-2.81886-3.31055c-1.71484,0-2.80615,1.28418-2.80615,3.31055
						c0,2.01465,1.09131,3.29785,2.80615,3.29785C257.32849,24.11421,258.43201,22.831,258.43201,20.81635z"/>
					<path d="M267.58728,16.63081v8.35938h-1.15137l-3.90967-6.53613v6.53613h-1.06738v-8.35938h1.13916l3.92188,6.5127v-6.5127
						H267.58728z"/>
					<path d="M271.95837,17.61421h-2.80664v-0.9834h6.69238v0.9834h-2.80664v7.37598h-1.0791V17.61421z"/>
					<path d="M277.4071,16.63081h5.51709v0.9834h-4.44971v2.61426h4.04199v0.9834h-4.04199v2.79492h4.44971v0.9834h-5.51709
						V16.63081z"/>
					<path d="M286.8739,20.79292l-2.83008-4.16211h1.29492l2.27881,3.41797l2.29102-3.41797h1.271l-2.83057,4.16211l2.87891,4.19727
						h-1.28369l-2.33838-3.41797l-2.30273,3.41797h-1.29541L286.8739,20.79292z"/>
					<path d="M294.81775,17.61421h-2.80664v-0.9834h6.69238v0.9834h-2.80664v7.37598h-1.0791V17.61421z"/>
					<path d="M299.48669,22.7353l1.05566-0.26367c0.14453,1.05566,0.91211,1.69141,1.97949,1.69141
						c1.09082,0,1.67871-0.56445,1.67871-1.34375c0-0.79102-0.49219-1.22363-1.88281-1.7627
						c-1.71484-0.66016-2.31445-1.27148-2.31445-2.39844c0-1.2959,0.99512-2.1709,2.45801-2.1709
						c1.08008,0,1.91895,0.49121,2.43457,1.41504l-0.89941,0.55176c-0.33594-0.63574-0.89941-1.00781-1.57129-1.00781
						c-0.7793,0-1.35449,0.52734-1.35449,1.17578c0,0.69531,0.52734,1.06738,1.82227,1.57129
						c1.83496,0.69531,2.38672,1.35449,2.38672,2.53027c0,1.45117-1.04297,2.39844-2.77051,2.39844
						C300.92615,25.12202,299.71521,24.17475,299.48669,22.7353z"/>
				</g>
				<g enable-background="new    ">
					<path d="M419.66833,41.47163v6.27441h-0.70215l-3.08789-5.18555v5.18555h-0.63867v-6.27441h0.69336l3.09668,5.1582v-5.1582
						H419.66833z"/>
					<path d="M424.94275,43.30757v4.43848h-0.62207V47.1064c-0.31445,0.47754-0.88184,0.71191-1.4668,0.71191
						c-1.00879,0-1.44922-0.69336-1.44922-1.79199v-2.71875h0.62109V45.873c0,0.7207,0.12598,1.39551,0.97168,1.39551
						c0.88281,0,1.32324-0.76465,1.32324-1.91699v-2.04395H424.94275z"/>
					<path d="M432.66541,44.97358v2.77246h-0.62207v-2.60156c0-0.37793,0-1.35938-0.97168-1.35938
						c-0.90039,0-1.14355,0.82812-1.14355,1.82715v2.13379h-0.62109v-2.56543c0-0.73828-0.22559-1.39551-0.99902-1.39551
						c-0.86426,0-1.10742,0.81934-1.10742,1.82715v2.13379h-0.62109l-0.00977-4.43848h0.60352v0.54004
						c0.2793-0.44043,0.72949-0.6123,1.22461-0.6123c0.62109,0,1.08008,0.27051,1.30566,0.85547
						c0.28809-0.56738,0.7832-0.85547,1.45801-0.85547C432.224,43.2353,432.66541,43.93745,432.66541,44.97358z"/>
					<path d="M438.2533,45.52241c0,1.32324-0.67578,2.2959-1.97168,2.2959c-0.64844,0-1.14355-0.25195-1.46777-0.66602v0.59375
						h-0.62109v-6.27441h0.62109v2.43066c0.33301-0.43262,0.83789-0.67578,1.46777-0.67578
						C437.51501,43.22651,438.2533,44.13569,438.2533,45.52241z M437.6322,45.52241c0-1.05371-0.54004-1.74609-1.44043-1.74609
						c-0.8916,0-1.43164,0.69238-1.43164,1.74609c0,1.00781,0.49512,1.74609,1.43164,1.74609
						C437.13708,47.26851,437.6322,46.53022,437.6322,45.52241z"/>
					<path d="M443.05017,45.69331h-3.25c0.01758,0.97266,0.55859,1.55762,1.43164,1.55762
						c0.48633,0,0.87305-0.12598,1.27832-0.55859l0.43164,0.37891c-0.52148,0.54883-1.03516,0.74707-1.71875,0.74707
						c-1.35059,0-2.04395-1.00879-2.04395-2.26855c0-1.25195,0.68457-2.31445,1.97168-2.31445
						c1.35938,0,1.92676,1.0625,1.92676,2.07129C443.07751,45.43257,443.06775,45.58589,443.05017,45.69331z M439.80017,45.17085
						h2.68262c0-0.01758-0.00879-0.0625-0.00879-0.14355c-0.04492-0.7207-0.50391-1.26953-1.32324-1.26953
						C440.349,43.75776,439.85388,44.38765,439.80017,45.17085z"/>
					<path d="M447.02771,43.42476l-0.30664,0.50391c-0.20703-0.08984-0.39551-0.13477-0.58496-0.13477
						c-0.68359,0-1.18848,0.5127-1.18848,1.47656v2.47559h-0.62109v-4.43848h0.62109v0.66602
						c0.32422-0.58496,0.86426-0.73828,1.31445-0.73828C446.53259,43.2353,446.78455,43.28999,447.02771,43.42476z"/>
					<path d="M450.01501,45.52241c0-1.31445,0.85547-2.28711,2.12402-2.28711c1.26074,0,2.13379,0.97266,2.13379,2.28711
						c0,1.30566-0.86426,2.2959-2.13379,2.2959C450.87048,47.81831,450.01501,46.83686,450.01501,45.52241z M453.65173,45.52241
						c0-1.00879-0.56738-1.7373-1.5127-1.7373c-0.9541,0-1.50293,0.73828-1.50293,1.7373c0,1.00781,0.55762,1.74609,1.50293,1.74609
						C453.09412,47.26851,453.65173,46.51265,453.65173,45.52241z"/>
					<path d="M455.79236,43.83003h-0.93652v-0.52246h0.94531v-0.68359c0-0.94531,0.5498-1.22461,1.11719-1.22461
						c0.24219,0,0.5127,0.05371,0.79199,0.1709l-0.21582,0.49512c-0.18945-0.08984-0.36035-0.14453-0.51367-0.14453
						c-0.35059,0-0.56738,0.24316-0.56738,0.65723v0.72949h1.27832v0.52246h-1.27832v3.91602h-0.62109V43.83003z"/>
					<path d="M460.73376,45.52241c0-1.31445,0.85547-2.28711,2.12402-2.28711c1.26074,0,2.13379,0.97266,2.13379,2.28711
						c0,1.30566-0.86426,2.2959-2.13379,2.2959C461.58923,47.81831,460.73376,46.83686,460.73376,45.52241z M464.37048,45.52241
						c0-1.00879-0.56738-1.7373-1.5127-1.7373c-0.9541,0-1.50293,0.73828-1.50293,1.7373c0,1.00781,0.55762,1.74609,1.50293,1.74609
						C463.81287,47.26851,464.37048,46.51265,464.37048,45.52241z"/>
					<path d="M465.87244,45.53999c0-1.16992,0.65723-2.30469,1.99805-2.30469c0.79297,0,1.44922,0.39648,1.80078,1.22461
						l-0.59375,0.23438c-0.20703-0.56738-0.64844-0.90918-1.20703-0.90918c-0.94531,0-1.36816,0.8457-1.36816,1.75488
						s0.42285,1.72852,1.37695,1.72852c0.55859,0,1-0.33301,1.1709-0.89941l0.57617,0.21582
						c-0.29688,0.80957-0.94531,1.2334-1.74707,1.2334C466.59216,47.81831,465.87244,46.77339,465.87244,45.53999z"/>
					<path d="M470.39978,45.53999c0-1.16992,0.65723-2.30469,1.99805-2.30469c0.79297,0,1.44922,0.39648,1.80078,1.22461
						l-0.59375,0.23438c-0.20703-0.56738-0.64844-0.90918-1.20703-0.90918c-0.94531,0-1.36816,0.8457-1.36816,1.75488
						s0.42285,1.72852,1.37695,1.72852c0.55859,0,1-0.33301,1.1709-0.89941l0.57617,0.21582
						c-0.29688,0.80957-0.94531,1.2334-1.74707,1.2334C471.11951,47.81831,470.39978,46.77339,470.39978,45.53999z"/>
					<path d="M478.72595,43.30757v4.43848h-0.62207V47.1064c-0.31445,0.47754-0.88184,0.71191-1.4668,0.71191
						c-1.00879,0-1.44922-0.69336-1.44922-1.79199v-2.71875h0.62109V45.873c0,0.7207,0.12598,1.39551,0.97168,1.39551
						c0.88281,0,1.32324-0.76465,1.32324-1.91699v-2.04395H478.72595z"/>
					<path d="M483.06287,43.42476l-0.30566,0.50391c-0.20703-0.08984-0.39648-0.13477-0.58496-0.13477
						c-0.68457,0-1.18848,0.5127-1.18848,1.47656v2.47559h-0.62109v-4.43848h0.62109v0.66602
						c0.32422-0.58496,0.86426-0.73828,1.31445-0.73828C482.56775,43.2353,482.8197,43.28999,483.06287,43.42476z"/>
					<path d="M486.68103,43.42476l-0.30566,0.50391c-0.20703-0.08984-0.39648-0.13477-0.58496-0.13477
						c-0.68457,0-1.18848,0.5127-1.18848,1.47656v2.47559h-0.62109v-4.43848h0.62109v0.66602
						c0.32422-0.58496,0.86426-0.73828,1.31445-0.73828C486.18591,43.2353,486.43787,43.28999,486.68103,43.42476z"/>
					<path d="M490.70447,45.69331h-3.25c0.01758,0.97266,0.55859,1.55762,1.43164,1.55762
						c0.48633,0,0.87305-0.12598,1.27832-0.55859l0.43164,0.37891c-0.52148,0.54883-1.03516,0.74707-1.71875,0.74707
						c-1.35059,0-2.04395-1.00879-2.04395-2.26855c0-1.25195,0.68457-2.31445,1.97168-2.31445
						c1.35938,0,1.92676,1.0625,1.92676,2.07129C490.73181,45.43257,490.72205,45.58589,490.70447,45.69331z M487.45447,45.17085
						h2.68262c0-0.01758-0.00879-0.0625-0.00879-0.14355c-0.04492-0.7207-0.50391-1.26953-1.32324-1.26953
						C488.0033,43.75776,487.50818,44.38765,487.45447,45.17085z"/>
					<path d="M495.5199,45.02729v2.71875h-0.62109v-2.56543c0-0.95508-0.30664-1.39551-0.97266-1.39551
						c-0.83691,0-1.32324,0.71973-1.32324,1.97168v1.98926h-0.62109v-4.43848h0.62109v0.64844
						c0.28809-0.4502,0.82812-0.7207,1.4668-0.7207C495.02478,43.2353,495.5199,43.84761,495.5199,45.02729z"/>
					<path d="M496.67908,45.53999c0-1.16992,0.65723-2.30469,1.99902-2.30469c0.79199,0,1.44922,0.39648,1.80078,1.22461
						l-0.59473,0.23438c-0.20703-0.56738-0.64844-0.90918-1.20605-0.90918c-0.94531,0-1.36816,0.8457-1.36816,1.75488
						s0.42285,1.72852,1.37695,1.72852c0.55859,0,0.99902-0.33301,1.16992-0.89941l0.57617,0.21582
						c-0.29688,0.80957-0.94531,1.2334-1.74609,1.2334C497.39978,47.81831,496.67908,46.77339,496.67908,45.53999z"/>
					<path d="M505.0863,45.69331h-3.25c0.01758,0.97266,0.55859,1.55762,1.43164,1.55762c0.48633,0,0.87305-0.12598,1.27832-0.55859
						l0.43164,0.37891c-0.52148,0.54883-1.03516,0.74707-1.71875,0.74707c-1.35059,0-2.04395-1.00879-2.04395-2.26855
						c0-1.25195,0.68457-2.31445,1.97168-2.31445c1.35938,0,1.92676,1.0625,1.92676,2.07129
						C505.11365,45.43257,505.10388,45.58589,505.0863,45.69331z M501.8363,45.17085h2.68262
						c0-0.01758-0.00879-0.0625-0.00879-0.14355c-0.04492-0.7207-0.50391-1.26953-1.32324-1.26953
						C502.38513,43.75776,501.89001,44.38765,501.8363,45.17085z"/>
					<path d="M505.88611,46.65718l0.52246-0.23438c0.16211,0.45898,0.59375,0.8457,1.28711,0.8457
						c0.60352,0,0.99023-0.29688,0.99023-0.76465c0-1.17969-2.55664-0.44141-2.55664-2.0166
						c0-0.77441,0.62988-1.25195,1.52148-1.25195c0.71094,0,1.28711,0.29785,1.59375,0.92773l-0.49512,0.27051
						c-0.2168-0.39648-0.56738-0.64844-1.11621-0.64844c-0.5498,0-0.90039,0.22461-0.90039,0.6123
						c0,1.05273,2.56543,0.38672,2.56543,2.07031c0,0.90039-0.73828,1.35059-1.59375,1.35059
						C506.83142,47.81831,506.12048,47.36811,505.88611,46.65718z"/>
				</g>
				<g enable-background="new    ">
					<path d="M390.95544,22.7353l1.05566-0.26367c0.14453,1.05566,0.91211,1.69141,1.97949,1.69141
						c1.09082,0,1.67871-0.56445,1.67871-1.34375c0-0.79102-0.49219-1.22363-1.88281-1.7627
						c-1.71484-0.66016-2.31445-1.27148-2.31445-2.39844c0-1.2959,0.99512-2.1709,2.45801-2.1709
						c1.08008,0,1.91895,0.49121,2.43457,1.41504l-0.89941,0.55176c-0.33594-0.63574-0.89941-1.00781-1.57129-1.00781
						c-0.7793,0-1.35449,0.52734-1.35449,1.17578c0,0.69531,0.52734,1.06738,1.82227,1.57129
						c1.83496,0.69531,2.38672,1.35449,2.38672,2.53027c0,1.45117-1.04297,2.39844-2.77051,2.39844
						C392.3949,25.12202,391.18396,24.17475,390.95544,22.7353z"/>
					<path d="M398.56287,16.63081h1.06738v8.35938h-1.06738V16.63081z"/>
					<path d="M408.02771,17.44624l-5.20508,6.56055h5.18164v0.9834h-6.62109v-0.7793l5.24121-6.59668h-4.96484v-0.9834h6.36816
						V17.44624z"/>
					<path d="M409.84314,16.63081h5.5166v0.9834h-4.44922v2.61426h4.04199v0.9834h-4.04199v2.79492h4.44922v0.9834h-5.5166V16.63081
						z"/>
				</g>
			</g>
			<path id="Tracciato_157231" fill="#DBDBDB" d="M6.654,71.491c-3.069,0-5.654-2.286-5.654-5s2.585-5,5.654-5h9.692
				c3.069,0,5.654,2.286,5.654,5c0,2.714-2.585,5-5.654,5H6.654z"/>
			<g enable-background="new    ">
				<path d="M7.83984,3.64081v8.35938H6.68848L2.77881,5.46405v6.53613H1.71143V3.64081h1.13916l3.92188,6.5127v-6.5127H7.83984z"/>
				<path d="M14.729,9.92499h-3.40625l-0.74365,2.0752H9.40381l3.20215-8.35938h0.83984l3.20215,8.35938h-1.17529L14.729,9.92499z
					 M14.38086,8.97772l-1.35498-3.79004l-1.35547,3.79004H14.38086z"/>
				<path d="M22.87695,12.00018l-2.09912-3.62207h-0.53955h-0.95947v3.62207h-1.06738V3.64081h2.50684
					c1.85889,0,2.78223,0.83984,2.78223,2.35059c0,1.1875-0.57568,1.94336-1.65479,2.24316l2.2666,3.76562H22.87695z
					 M20.61035,7.383c1.19922,0,1.82275-0.43164,1.82275-1.37988c0-0.94727-0.62354-1.37891-1.82275-1.37891h-1.33154V7.383
					H20.61035z"/>
				<path d="M30.4248,12.00018l-2.09912-3.62207h-0.53955h-0.95947v3.62207h-1.06738V3.64081h2.50684
					c1.85889,0,2.78223,0.83984,2.78223,2.35059c0,1.1875-0.57568,1.94336-1.65479,2.24316l2.2666,3.76562H30.4248z M28.1582,7.383
					c1.19922,0,1.82275-0.43164,1.82275-1.37988c0-0.94727-0.62354-1.37891-1.82275-1.37891h-1.33154V7.383H28.1582z"/>
				<path d="M37.625,9.92499h-3.40625l-0.74365,2.0752H32.2998l3.20215-8.35938h0.83984l3.20215,8.35938h-1.17529L37.625,9.92499z
					 M37.27734,8.97772l-1.35547-3.79004l-1.35547,3.79004H37.27734z"/>
				<path d="M42.16211,4.62421h-2.80664v-0.9834h6.69238v0.9834h-2.80664v7.37598h-1.0791V4.62421z"/>
				<path d="M47.61084,3.64081h5.51709v0.9834h-4.44971v2.61426h4.04199v0.9834h-4.04199v2.79492h4.44971v0.9834h-5.51709V3.64081z"
					/>
				<path d="M55.11084,3.64081h2.32666c2.73438,0,4.29395,1.54688,4.29395,4.24609c0,2.66211-1.52344,4.11328-4.30566,4.11328
					h-2.31494V3.64081z M57.32959,11.01678c2.25488,0,3.32227-1.01953,3.32227-3.17871c0-2.14648-1.06738-3.21387-3.23828-3.21387
					h-1.23535v6.39258H57.32959z"/>
				<path d="M68.68164,4.62421H65.875v-0.9834h6.69238v0.9834h-2.80664v7.37598h-1.0791V4.62421z"/>
				<path d="M74.13037,3.64081h1.06738v8.35938h-1.06738V3.64081z"/>
				<path d="M85.91016,3.64081v8.35938h-1.07959v-6.9082l-2.48242,6.2002h-1.04346l-2.50684-6.22461v6.93262h-1.06738V3.64081
					h1.54736l2.54248,6.42871l2.54248-6.42871H85.91016z"/>
				<path d="M88.43457,3.64081h5.51709v0.9834h-4.44971v2.61426h4.04199v0.9834h-4.04199v2.79492h4.44971v0.9834h-5.51709V3.64081z"
					/>
			</g>
			<g enable-background="new    ">
				<path d="M31.13916,28.03436h0.70996V34.341h3.17822v0.65918h-3.88818V28.03436z"/>
				<path d="M35.7998,32.53143c0-1.45898,0.94922-2.53809,2.3584-2.53809c1.39941,0,2.36865,1.0791,2.36865,2.53809
					c0,1.44922-0.95947,2.54883-2.36865,2.54883S35.7998,33.99042,35.7998,32.53143z M39.8374,32.53143
					c0-1.11914-0.62988-1.92871-1.6792-1.92871c-1.05957,0-1.66895,0.81934-1.66895,1.92871
					c0,1.11914,0.61963,1.93945,1.66895,1.93945C39.21777,34.47089,39.8374,33.63104,39.8374,32.53143z"/>
				<path d="M41.50928,32.55194c0-1.2998,0.72998-2.55859,2.21924-2.55859c0.87939,0,1.60889,0.43945,1.99854,1.3584
					l-0.65967,0.26074c-0.22949-0.62988-0.71924-1.00977-1.33887-1.00977c-1.0498,0-1.51953,0.93945-1.51953,1.94922
					c0,1.00879,0.46973,1.91895,1.5293,1.91895c0.61963,0,1.10938-0.37012,1.29932-1l0.63965,0.24023
					c-0.33008,0.89941-1.04932,1.36914-1.93896,1.36914C42.30908,35.08026,41.50928,33.92108,41.50928,32.55194z"/>
				<path d="M50.61768,31.93182v3.06836h-0.62988l-0.04004-0.75977c-0.38965,0.5498-0.98926,0.83984-1.76904,0.83984
					c-1.06934,0-1.69873-0.55957-1.69873-1.50977c0-0.49902,0.19971-0.87891,0.55957-1.09863
					c0.37988-0.21973,0.90967-0.31055,1.87891-0.31055h1.00928v-0.22949c0-0.85938-0.44971-1.3291-1.2793-1.3291
					c-0.61963,0-1.09912,0.26953-1.49902,0.81934l-0.49951-0.41992c0.5293-0.68945,1.16895-1.00879,2.00879-1.00879
					C49.89795,29.99335,50.61768,30.70233,50.61768,31.93182z M49.92773,32.7912v-0.06934h-0.94922
					c-0.90967,0-1.29932,0.05957-1.53906,0.24902c-0.18018,0.14062-0.27002,0.36035-0.27002,0.63965
					c0,0.5498,0.46973,0.90039,1.20947,0.90039C49.32812,34.51093,49.92773,33.841,49.92773,32.7912z"/>
				<path d="M54.34814,34.95038c-0.25977,0.08008-0.52002,0.12988-0.74951,0.12988c-0.65967,0-1.13965-0.37012-1.13965-1.23926
					v-3.18848h-0.81934v-0.58008h0.81934v-1.37891l0.68945-0.51953v1.89844h1.18945v0.58008h-1.18945v3.09863
					c0,0.47949,0.22021,0.69922,0.60986,0.69922c0.16992,0,0.35986-0.04004,0.57959-0.10938L54.34814,34.95038z"/>
				<path d="M55.59961,28.03436h0.79932v1.01953h-0.79932V28.03436z M55.65967,30.07245h0.68945v4.92773h-0.68945V30.07245z"/>
				<path d="M57.73926,32.53143c0-1.45898,0.94971-2.53809,2.35889-2.53809c1.39941,0,2.36865,1.0791,2.36865,2.53809
					c0,1.44922-0.95947,2.54883-2.36865,2.54883S57.73926,33.99042,57.73926,32.53143z M61.77734,32.53143
					c0-1.11914-0.62988-1.92871-1.6792-1.92871c-1.05957,0-1.66895,0.81934-1.66895,1.92871
					c0,1.11914,0.61963,1.93945,1.66895,1.93945C61.15771,34.47089,61.77734,33.63104,61.77734,32.53143z"/>
				<path d="M67.78711,31.98163v3.01855h-0.68945v-2.84863c0-1.05957-0.33984-1.54883-1.07959-1.54883
					c-0.92969,0-1.46924,0.7998-1.46924,2.18848v2.20898h-0.68945v-4.92773h0.68945v0.71973
					c0.31982-0.49902,0.91943-0.79883,1.62891-0.79883C67.2373,29.99335,67.78711,30.67303,67.78711,31.98163z"/>
				<path d="M68.95947,33.7912l0.57959-0.25977c0.17969,0.50977,0.65967,0.93945,1.4292,0.93945
					c0.66943,0,1.09961-0.33008,1.09961-0.84961c0-1.30957-2.83887-0.49023-2.83887-2.23926
					c0-0.85938,0.69971-1.38867,1.68945-1.38867c0.78955,0,1.4292,0.3291,1.76904,1.0293l-0.5498,0.2998
					c-0.23975-0.44043-0.62988-0.71973-1.23926-0.71973c-0.60986,0-0.99951,0.25-0.99951,0.67969
					c0,1.16895,2.84814,0.42969,2.84814,2.29883c0,0.99902-0.81934,1.49902-1.76855,1.49902
					C70.00879,35.08026,69.21924,34.58026,68.95947,33.7912z"/>
				<path d="M76.44922,32.53143c0-1.45898,0.94922-2.53809,2.3584-2.53809c1.39941,0,2.36865,1.0791,2.36865,2.53809
					c0,1.44922-0.95947,2.54883-2.36865,2.54883S76.44922,33.99042,76.44922,32.53143z M80.48682,32.53143
					c0-1.11914-0.62988-1.92871-1.6792-1.92871c-1.05957,0-1.66895,0.81934-1.66895,1.92871
					c0,1.11914,0.61963,1.93945,1.66895,1.93945C79.86719,34.47089,80.48682,33.63104,80.48682,32.53143z"/>
				<path d="M82.86865,30.65253H81.8291v-0.58008h1.04932v-0.75879c0-1.0498,0.60986-1.35938,1.23926-1.35938
					c0.27002,0,0.56982,0.05957,0.87988,0.18945l-0.24023,0.5498c-0.20996-0.09961-0.39941-0.16016-0.56934-0.16016
					c-0.39014,0-0.62988,0.27051-0.62988,0.72949v0.80957h1.41943v0.58008h-1.41943v4.34766h-0.68945V30.65253z"/>
				<path d="M90.8374,34.95038c-0.25977,0.08008-0.52002,0.12988-0.74951,0.12988c-0.65967,0-1.13965-0.37012-1.13965-1.23926
					v-3.18848h-0.81934v-0.58008h0.81934v-1.37891l0.68945-0.51953v1.89844h1.18945v0.58008H89.6377v3.09863
					c0,0.47949,0.22021,0.69922,0.60986,0.69922c0.16992,0,0.35986-0.04004,0.57959-0.10938L90.8374,34.95038z"/>
				<path d="M95.99609,32.72186h-3.60791c0.02002,1.0791,0.61963,1.72852,1.58936,1.72852
					c0.53955,0,0.96924-0.13965,1.41895-0.61914l0.47998,0.41895c-0.57959,0.61035-1.14941,0.83008-1.90918,0.83008
					c-1.49902,0-2.26855-1.11914-2.26855-2.51855c0-1.38965,0.75977-2.56836,2.18896-2.56836
					c1.50879,0,2.13867,1.17871,2.13867,2.29785C96.02637,32.43182,96.01611,32.60175,95.99609,32.72186z M92.38818,32.14178
					h2.97852c0-0.02051-0.01025-0.07031-0.01025-0.16016c-0.0498-0.7998-0.55957-1.40918-1.46875-1.40918
					C92.99805,30.57245,92.44824,31.27264,92.38818,32.14178z"/>
				<path d="M98.56836,32.53143l-1.79932-2.45898h0.83984l1.41895,1.97949l1.40918-1.97949h0.83984l-1.79932,2.45898
					l1.80908,2.46875h-0.84961l-1.40918-1.99902l-1.40918,1.99902h-0.84961L98.56836,32.53143z"/>
				<path d="M104.54736,34.95038c-0.25977,0.08008-0.52002,0.12988-0.74951,0.12988c-0.65967,0-1.13965-0.37012-1.13965-1.23926
					v-3.18848h-0.81934v-0.58008h0.81934v-1.37891l0.68945-0.51953v1.89844h1.18945v0.58008h-1.18945v3.09863
					c0,0.47949,0.22021,0.69922,0.60986,0.69922c0.16992,0,0.35986-0.04004,0.57959-0.10938L104.54736,34.95038z"/>
				<path d="M105.37891,33.7912l0.57959-0.25977c0.17969,0.50977,0.65967,0.93945,1.4292,0.93945
					c0.66943,0,1.09961-0.33008,1.09961-0.84961c0-1.30957-2.83887-0.49023-2.83887-2.23926
					c0-0.85938,0.69971-1.38867,1.68945-1.38867c0.78955,0,1.4292,0.3291,1.76904,1.0293l-0.5498,0.2998
					c-0.23975-0.44043-0.62988-0.71973-1.23926-0.71973c-0.60986,0-0.99951,0.25-0.99951,0.67969
					c0,1.16895,2.84814,0.42969,2.84814,2.29883c0,0.99902-0.81934,1.49902-1.76904,1.49902
					C106.42822,35.08026,105.63867,34.58026,105.37891,33.7912z"/>
				<path d="M112.66846,30.07245h0.73975l1.05957,3.88867l1.29883-3.88867h0.62988l1.28906,3.88867l1.06982-3.88867h0.72949
					l-1.43945,4.92773H117.396l-1.30957-3.97754l-1.3291,3.97754h-0.63965L112.66846,30.07245z"/>
				<path d="M124.61621,31.98163v3.01855h-0.68945v-2.84863c0-1.06934-0.33984-1.54883-1.07959-1.54883
					c-0.93945,0-1.46924,0.76953-1.46924,2.12891v2.26855h-0.68945v-6.96582h0.68945v2.75781
					c0.31982-0.49902,0.91943-0.79883,1.62891-0.79883C124.06641,29.99335,124.61621,30.67303,124.61621,31.98163z"/>
				<path d="M130.21582,32.72186h-3.60791c0.02002,1.0791,0.61963,1.72852,1.58936,1.72852
					c0.53955,0,0.96924-0.13965,1.41895-0.61914l0.47998,0.41895c-0.57959,0.61035-1.14941,0.83008-1.90918,0.83008
					c-1.49902,0-2.26855-1.11914-2.26855-2.51855c0-1.38965,0.75977-2.56836,2.18896-2.56836
					c1.50879,0,2.13867,1.17871,2.13867,2.29785C130.24609,32.43182,130.23584,32.60175,130.21582,32.72186z M126.60791,32.14178
					h2.97852c0-0.02051-0.01025-0.07031-0.01025-0.16016c-0.0498-0.7998-0.55957-1.40918-1.46875-1.40918
					C127.21777,30.57245,126.66797,31.27264,126.60791,32.14178z"/>
				<path d="M134.63623,30.20331l-0.33984,0.55957c-0.22949-0.10059-0.43945-0.15039-0.64941-0.15039
					c-0.75977,0-1.31934,0.56934-1.31934,1.63965v2.74805h-0.68945v-4.92773h0.68945v0.74023
					c0.35986-0.64941,0.95947-0.81934,1.45898-0.81934C134.08691,29.99335,134.3667,30.05292,134.63623,30.20331z"/>
				<path d="M139.10547,32.72186h-3.60791c0.02002,1.0791,0.61963,1.72852,1.58936,1.72852
					c0.53955,0,0.96924-0.13965,1.41895-0.61914l0.47998,0.41895c-0.57959,0.61035-1.14941,0.83008-1.90918,0.83008
					c-1.49902,0-2.26855-1.11914-2.26855-2.51855c0-1.38965,0.75977-2.56836,2.18896-2.56836
					c1.50879,0,2.13867,1.17871,2.13867,2.29785C139.13574,32.43182,139.12549,32.60175,139.10547,32.72186z M135.49756,32.14178
					h2.97852c0-0.02051-0.01025-0.07031-0.01025-0.16016c-0.0498-0.7998-0.55957-1.40918-1.46875-1.40918
					C136.10742,30.57245,135.55762,31.27264,135.49756,32.14178z"/>
				<path d="M145.30664,34.95038c-0.25977,0.08008-0.52002,0.12988-0.74951,0.12988c-0.65967,0-1.13965-0.37012-1.13965-1.23926
					v-3.18848h-0.81934v-0.58008h0.81934v-1.37891l0.68994-0.51953v1.89844h1.18896v0.58008h-1.18896v3.09863
					c0,0.47949,0.21973,0.69922,0.60938,0.69922c0.16992,0,0.35986-0.04004,0.57959-0.10938L145.30664,34.95038z"/>
				<path d="M150.5459,31.98163v3.01855h-0.68945v-2.84863c0-1.06934-0.33984-1.54883-1.07959-1.54883
					c-0.93945,0-1.46924,0.76953-1.46924,2.12891v2.26855h-0.68945v-6.96582h0.68945v2.75781
					c0.31982-0.49902,0.91943-0.79883,1.62891-0.79883C149.99609,29.99335,150.5459,30.67303,150.5459,31.98163z"/>
				<path d="M156.14551,32.72186h-3.60791c0.02002,1.0791,0.61963,1.72852,1.58936,1.72852
					c0.53955,0,0.96924-0.13965,1.41895-0.61914l0.47998,0.41895c-0.57959,0.61035-1.14941,0.83008-1.90918,0.83008
					c-1.49902,0-2.26855-1.11914-2.26855-2.51855c0-1.38965,0.75977-2.56836,2.18896-2.56836
					c1.50879,0,2.13867,1.17871,2.13867,2.29785C156.17578,32.43182,156.16553,32.60175,156.14551,32.72186z M152.5376,32.14178
					h2.97852c0-0.02051-0.01025-0.07031-0.01025-0.16016c-0.0498-0.7998-0.55957-1.40918-1.46875-1.40918
					C153.14746,30.57245,152.59766,31.27264,152.5376,32.14178z"/>
				<path d="M164.22559,31.98163v3.01855h-0.68945v-2.84863c0-1.05957-0.33984-1.54883-1.07959-1.54883
					c-0.92969,0-1.46924,0.7998-1.46924,2.18848v2.20898h-0.68945v-4.92773h0.68945v0.71973
					c0.31982-0.49902,0.91943-0.79883,1.62891-0.79883C163.67578,29.99335,164.22559,30.67303,164.22559,31.98163z"/>
				<path d="M169.5957,31.93182v3.06836h-0.62988l-0.04004-0.75977c-0.38965,0.5498-0.98926,0.83984-1.76904,0.83984
					c-1.06934,0-1.69873-0.55957-1.69873-1.50977c0-0.49902,0.19971-0.87891,0.55957-1.09863
					c0.37988-0.21973,0.90967-0.31055,1.87891-0.31055h1.00928v-0.22949c0-0.85938-0.44971-1.3291-1.2793-1.3291
					c-0.61963,0-1.09912,0.26953-1.49902,0.81934l-0.49951-0.41992c0.5293-0.68945,1.16895-1.00879,2.00879-1.00879
					C168.87598,29.99335,169.5957,30.70233,169.5957,31.93182z M168.90576,32.7912v-0.06934h-0.94922
					c-0.90967,0-1.29932,0.05957-1.53906,0.24902c-0.18018,0.14062-0.27002,0.36035-0.27002,0.63965
					c0,0.5498,0.46973,0.90039,1.20947,0.90039C168.30615,34.51093,168.90576,33.841,168.90576,32.7912z"/>
				<path d="M174.27539,30.20331l-0.33984,0.55957c-0.22949-0.10059-0.43945-0.15039-0.64941-0.15039
					c-0.75977,0-1.31934,0.56934-1.31934,1.63965v2.74805h-0.68945v-4.92773h0.68945v0.74023
					c0.35986-0.64941,0.95947-0.81934,1.45898-0.81934C173.72559,29.99335,174.00586,30.05292,174.27539,30.20331z"/>
				<path d="M178.29541,30.20331l-0.33984,0.55957c-0.22949-0.10059-0.43945-0.15039-0.64941-0.15039
					c-0.75977,0-1.31934,0.56934-1.31934,1.63965v2.74805h-0.68945v-4.92773h0.68945v0.74023
					c0.35986-0.64941,0.95947-0.81934,1.45898-0.81934C177.74609,29.99335,178.02588,30.05292,178.29541,30.20331z"/>
				<path d="M182.98535,31.93182v3.06836h-0.62988l-0.04004-0.75977c-0.38965,0.5498-0.98926,0.83984-1.76904,0.83984
					c-1.06934,0-1.69873-0.55957-1.69873-1.50977c0-0.49902,0.19971-0.87891,0.55957-1.09863
					c0.37988-0.21973,0.90967-0.31055,1.87891-0.31055h1.00928v-0.22949c0-0.85938-0.44971-1.3291-1.2793-1.3291
					c-0.61963,0-1.09912,0.26953-1.49902,0.81934l-0.49951-0.41992c0.5293-0.68945,1.16895-1.00879,2.00879-1.00879
					C182.26562,29.99335,182.98535,30.70233,182.98535,31.93182z M182.29541,32.7912v-0.06934h-0.94922
					c-0.90967,0-1.29932,0.05957-1.53906,0.24902c-0.18018,0.14062-0.27002,0.36035-0.27002,0.63965
					c0,0.5498,0.46973,0.90039,1.20947,0.90039C181.6958,34.51093,182.29541,33.841,182.29541,32.7912z"/>
				<path d="M186.71631,34.95038c-0.25977,0.08008-0.52002,0.12988-0.74951,0.12988c-0.65967,0-1.13965-0.37012-1.13965-1.23926
					v-3.18848h-0.81934v-0.58008h0.81934v-1.37891l0.68945-0.51953v1.89844h1.18945v0.58008h-1.18945v3.09863
					c0,0.47949,0.22021,0.69922,0.60986,0.69922c0.16992,0,0.35986-0.04004,0.57959-0.10938L186.71631,34.95038z"/>
				<path d="M191.875,32.72186h-3.60791c0.02002,1.0791,0.61963,1.72852,1.58936,1.72852c0.53955,0,0.96924-0.13965,1.41895-0.61914
					l0.47998,0.41895c-0.57959,0.61035-1.14941,0.83008-1.90918,0.83008c-1.49902,0-2.26855-1.11914-2.26855-2.51855
					c0-1.38965,0.75977-2.56836,2.18896-2.56836c1.50879,0,2.13867,1.17871,2.13867,2.29785
					C191.90527,32.43182,191.89502,32.60175,191.875,32.72186z M188.26709,32.14178h2.97852
					c0-0.02051-0.01025-0.07031-0.01025-0.16016c-0.0498-0.7998-0.55957-1.40918-1.46875-1.40918
					C188.87695,30.57245,188.32715,31.27264,188.26709,32.14178z"/>
				<path d="M197.41504,28.03436v6.96582h-0.68994V34.341c-0.35938,0.45898-0.90918,0.73926-1.62891,0.73926
					c-1.43896,0-2.18896-1.0791-2.18896-2.54883c0-1.53906,0.81982-2.54883,2.18896-2.54883c0.69971,0,1.25928,0.27051,1.62891,0.75
					v-2.69824H197.41504z M196.78516,32.53143c0-1.16895-0.59961-1.93848-1.58887-1.93848
					c-0.99951,0-1.59912,0.76953-1.59912,1.93848c0,1.11914,0.54932,1.93945,1.59912,1.93945
					C196.23535,34.47089,196.78516,33.65057,196.78516,32.53143z"/>
				<path d="M204.01611,34.95038c-0.25977,0.08008-0.52002,0.12988-0.74951,0.12988c-0.65967,0-1.13965-0.37012-1.13965-1.23926
					v-3.18848h-0.81934v-0.58008h0.81934v-1.37891l0.68945-0.51953v1.89844h1.18945v0.58008h-1.18945v3.09863
					c0,0.47949,0.22021,0.69922,0.60986,0.69922c0.16992,0,0.35986-0.04004,0.57959-0.10938L204.01611,34.95038z"/>
				<path d="M205.26709,28.03436h0.79932v1.01953h-0.79932V28.03436z M205.32715,30.07245h0.68945v4.92773h-0.68945V30.07245z"/>
				<path d="M214.59375,31.92206v3.07812h-0.68994v-2.88867c0-0.41992,0-1.50879-1.0791-1.50879
					c-0.99951,0-1.26953,0.91895-1.26953,2.02832v2.36914h-0.68945v-2.84863c0-0.81934-0.25-1.54883-1.10938-1.54883
					c-0.95947,0-1.22949,0.90918-1.22949,2.02832v2.36914h-0.68945l-0.01025-4.92773h0.66992v0.60059
					c0.30957-0.49023,0.80957-0.67969,1.35889-0.67969c0.68994,0,1.19971,0.2998,1.44922,0.94922
					c0.31982-0.62988,0.86963-0.94922,1.61914-0.94922C214.104,29.99335,214.59375,30.77264,214.59375,31.92206z"/>
				<path d="M220.19434,32.72186h-3.60791c0.02002,1.0791,0.61963,1.72852,1.58936,1.72852
					c0.53955,0,0.96924-0.13965,1.41895-0.61914l0.47998,0.41895c-0.57959,0.61035-1.14941,0.83008-1.90918,0.83008
					c-1.49902,0-2.26855-1.11914-2.26855-2.51855c0-1.38965,0.75977-2.56836,2.18896-2.56836
					c1.50879,0,2.13867,1.17871,2.13867,2.29785C220.22461,32.43182,220.21436,32.60175,220.19434,32.72186z M216.58643,32.14178
					h2.97852c0-0.02051-0.01025-0.07031-0.01025-0.16016c-0.0498-0.7998-0.55957-1.40918-1.46875-1.40918
					C217.19629,30.57245,216.64648,31.27264,216.58643,32.14178z"/>
			</g>
			<g enable-background="new    ">
				<path d="M30.84961,41.03436h0.79932v1.01953h-0.79932V41.03436z M30.90967,43.07245h0.68945v4.92773h-0.68945V43.07245z"/>
				<path d="M32.88965,46.7912l0.57959-0.25977c0.17969,0.50977,0.65967,0.93945,1.4292,0.93945
					c0.66943,0,1.09961-0.33008,1.09961-0.84961c0-1.30957-2.83887-0.49023-2.83887-2.23926
					c0-0.85938,0.69971-1.38867,1.68945-1.38867c0.78955,0,1.4292,0.3291,1.76904,1.0293l-0.5498,0.2998
					c-0.23975-0.44043-0.62988-0.71973-1.23926-0.71973c-0.60986,0-0.99951,0.25-0.99951,0.67969
					c0,1.16895,2.84814,0.42969,2.84814,2.29883c0,0.99902-0.81934,1.49902-1.76904,1.49902
					C33.93896,48.08026,33.14941,47.58026,32.88965,46.7912z"/>
				<path d="M40.27979,46.7912l0.57959-0.25977c0.17969,0.50977,0.65967,0.93945,1.4292,0.93945
					c0.66943,0,1.09961-0.33008,1.09961-0.84961c0-1.30957-2.83887-0.49023-2.83887-2.23926
					c0-0.85938,0.69971-1.38867,1.68945-1.38867c0.78955,0,1.4292,0.3291,1.76904,1.0293l-0.5498,0.2998
					c-0.23975-0.44043-0.62988-0.71973-1.23926-0.71973c-0.60986,0-0.99951,0.25-0.99951,0.67969
					c0,1.16895,2.84814,0.42969,2.84814,2.29883c0,0.99902-0.81934,1.49902-1.76855,1.49902
					C41.3291,48.08026,40.53955,47.58026,40.27979,46.7912z"/>
				<path d="M49.31689,45.72186h-3.60791c0.02002,1.0791,0.61963,1.72852,1.58936,1.72852
					c0.53955,0,0.96924-0.13965,1.41895-0.61914l0.47998,0.41895c-0.57959,0.61035-1.14941,0.83008-1.90918,0.83008
					c-1.49902,0-2.26855-1.11914-2.26855-2.51855c0-1.38965,0.75977-2.56836,2.18896-2.56836
					c1.50879,0,2.13867,1.17871,2.13867,2.29785C49.34717,45.43182,49.33691,45.60175,49.31689,45.72186z M45.70898,45.14178
					h2.97852c0-0.02051-0.01025-0.07031-0.01025-0.16016c-0.0498-0.7998-0.55957-1.40918-1.46875-1.40918
					C46.31885,43.57245,45.76904,44.27264,45.70898,45.14178z"/>
				<path d="M52.78809,47.95038c-0.25977,0.08008-0.52002,0.12988-0.74951,0.12988c-0.65967,0-1.13965-0.37012-1.13965-1.23926
					v-3.18848h-0.81934v-0.58008h0.81934v-1.37891l0.68994-0.51953v1.89844h1.18896v0.58008h-1.18896v3.09863
					c0,0.47949,0.21973,0.69922,0.60938,0.69922c0.16992,0,0.35986-0.04004,0.57959-0.10938L52.78809,47.95038z"/>
				<path d="M56.76904,41.03436h0.79932v1.01953h-0.79932V41.03436z M56.8291,43.07245h0.68945v4.92773H56.8291V43.07245z"/>
				<path d="M63.26709,44.98163v3.01855h-0.68945v-2.84863c0-1.05957-0.33984-1.54883-1.07959-1.54883
					c-0.92969,0-1.46924,0.7998-1.46924,2.18848v2.20898h-0.68945v-4.92773h0.68945v0.71973
					c0.31982-0.49902,0.91943-0.79883,1.62891-0.79883C62.71729,42.99335,63.26709,43.67303,63.26709,44.98163z"/>
				<path d="M67.28906,45.55194c0-1.2998,0.72998-2.55859,2.21875-2.55859c0.87988,0,1.60938,0.43945,1.99902,1.3584
					l-0.65967,0.26074c-0.22949-0.62988-0.71924-1.00977-1.33936-1.00977c-1.04932,0-1.51904,0.93945-1.51904,1.94922
					c0,1.00879,0.46973,1.91895,1.5293,1.91895c0.61963,0,1.10938-0.37012,1.29932-1l0.63965,0.24023
					c-0.33008,0.89941-1.04932,1.36914-1.93896,1.36914C68.08887,48.08026,67.28906,46.92108,67.28906,45.55194z"/>
				<path d="M72.29883,45.53143c0-1.45898,0.94971-2.53809,2.35889-2.53809c1.39941,0,2.36865,1.0791,2.36865,2.53809
					c0,1.44922-0.95947,2.54883-2.36865,2.54883S72.29883,46.99042,72.29883,45.53143z M76.33691,45.53143
					c0-1.11914-0.62988-1.92871-1.6792-1.92871c-1.05957,0-1.66895,0.81934-1.66895,1.92871
					c0,1.11914,0.61963,1.93945,1.66895,1.93945C75.71729,47.47089,76.33691,46.63104,76.33691,45.53143z"/>
				<path d="M82.34668,44.98163v3.01855h-0.68945v-2.84863c0-1.05957-0.33984-1.54883-1.07959-1.54883
					c-0.92969,0-1.46924,0.7998-1.46924,2.18848v2.20898h-0.68945v-4.92773h0.68945v0.71973
					c0.31982-0.49902,0.91943-0.79883,1.62891-0.79883C81.79688,42.99335,82.34668,43.67303,82.34668,44.98163z"/>
				<path d="M86.09766,47.95038c-0.25977,0.08008-0.52002,0.12988-0.74951,0.12988c-0.65967,0-1.13965-0.37012-1.13965-1.23926
					v-3.18848h-0.81934v-0.58008h0.81934v-1.37891l0.68994-0.51953v1.89844h1.18896v0.58008h-1.18896v3.09863
					c0,0.47949,0.21973,0.69922,0.60938,0.69922c0.16992,0,0.35986-0.04004,0.57959-0.10938L86.09766,47.95038z"/>
				<path d="M91.25635,45.72186h-3.60791c0.02002,1.0791,0.61963,1.72852,1.58936,1.72852
					c0.53955,0,0.96924-0.13965,1.41895-0.61914l0.47998,0.41895c-0.57959,0.61035-1.14941,0.83008-1.90918,0.83008
					c-1.49902,0-2.26855-1.11914-2.26855-2.51855c0-1.38965,0.75977-2.56836,2.18896-2.56836
					c1.50879,0,2.13867,1.17871,2.13867,2.29785C91.28662,45.43182,91.27637,45.60175,91.25635,45.72186z M87.64844,45.14178
					h2.97852c0-0.02051-0.01025-0.07031-0.01025-0.16016c-0.0498-0.7998-0.55957-1.40918-1.46875-1.40918
					C88.2583,43.57245,87.7085,44.27264,87.64844,45.14178z"/>
				<path d="M99.43506,44.92206v3.07812h-0.68994v-2.88867c0-0.41992,0-1.50879-1.0791-1.50879
					c-0.99951,0-1.26953,0.91895-1.26953,2.02832v2.36914h-0.68945v-2.84863c0-0.81934-0.25-1.54883-1.10938-1.54883
					c-0.95947,0-1.22949,0.90918-1.22949,2.02832v2.36914h-0.68945l-0.01025-4.92773h0.66992v0.60059
					c0.30957-0.49023,0.80957-0.67969,1.35889-0.67969c0.68994,0,1.19971,0.2998,1.44922,0.94922
					c0.31982-0.62988,0.86963-0.94922,1.61914-0.94922C98.94531,42.99335,99.43506,43.77264,99.43506,44.92206z"/>
				<path d="M105.646,45.53143c0,1.46973-0.74951,2.54883-2.18896,2.54883c-0.71924,0-1.26904-0.28027-1.62891-0.73926v2.69824
					h-0.68945v-6.9668h0.68945v0.66016c0.36963-0.47949,0.92969-0.75,1.62891-0.75
					C104.82666,42.9826,105.646,43.99237,105.646,45.53143z M104.95654,45.53143c0-1.16895-0.59961-1.93848-1.59912-1.93848
					c-0.98975,0-1.58936,0.76953-1.58936,1.93848c0,1.11914,0.5498,1.93945,1.58936,1.93945
					C104.40674,47.47089,104.95654,46.65057,104.95654,45.53143z"/>
				<path d="M106.64844,45.53143c0-1.45898,0.94971-2.53809,2.35889-2.53809c1.39941,0,2.36865,1.0791,2.36865,2.53809
					c0,1.44922-0.95947,2.54883-2.36865,2.54883S106.64844,46.99042,106.64844,45.53143z M110.68652,45.53143
					c0-1.11914-0.62988-1.92871-1.6792-1.92871c-1.05957,0-1.66895,0.81934-1.66895,1.92871
					c0,1.11914,0.61963,1.93945,1.66895,1.93945C110.06689,47.47089,110.68652,46.63104,110.68652,45.53143z"/>
				<path d="M115.7666,43.20331l-0.33984,0.55957c-0.22949-0.10059-0.43945-0.15039-0.64941-0.15039
					c-0.75977,0-1.31934,0.56934-1.31934,1.63965v2.74805h-0.68945v-4.92773h0.68945v0.74023
					c0.35986-0.64941,0.95947-0.81934,1.45898-0.81934C115.2168,42.99335,115.49707,43.05292,115.7666,43.20331z"/>
				<path d="M120.45654,44.93182v3.06836h-0.62988l-0.04004-0.75977c-0.38965,0.5498-0.98926,0.83984-1.76904,0.83984
					c-1.06934,0-1.69873-0.55957-1.69873-1.50977c0-0.49902,0.19971-0.87891,0.55957-1.09863
					c0.37988-0.21973,0.90967-0.31055,1.87891-0.31055h1.00928v-0.22949c0-0.85938-0.44971-1.3291-1.2793-1.3291
					c-0.61963,0-1.09912,0.26953-1.49902,0.81934l-0.49951-0.41992c0.5293-0.68945,1.16895-1.00879,2.00879-1.00879
					C119.73682,42.99335,120.45654,43.70233,120.45654,44.93182z M119.7666,45.7912v-0.06934h-0.94922
					c-0.90967,0-1.29932,0.05957-1.53906,0.24902c-0.18018,0.14062-0.27002,0.36035-0.27002,0.63965
					c0,0.5498,0.46973,0.90039,1.20947,0.90039C119.16699,47.51093,119.7666,46.841,119.7666,45.7912z"/>
				<path d="M125.13672,43.20331l-0.33984,0.55957c-0.22949-0.10059-0.43945-0.15039-0.64941-0.15039
					c-0.75977,0-1.31934,0.56934-1.31934,1.63965v2.74805h-0.68945v-4.92773h0.68945v0.74023
					c0.35986-0.64941,0.95947-0.81934,1.45898-0.81934C124.58691,42.99335,124.86719,43.05292,125.13672,43.20331z"/>
				<path d="M127.66748,47.94061l-2.08887-4.86816h0.75977l1.69922,4.05859l1.48926-4.05859h0.75928l-2.69824,6.9668h-0.73975
					L127.66748,47.94061z"/>
				<path d="M136.18701,47.95038c-0.25977,0.08008-0.52002,0.12988-0.74951,0.12988c-0.65967,0-1.13965-0.37012-1.13965-1.23926
					v-3.18848h-0.81934v-0.58008h0.81934v-1.37891l0.68945-0.51953v1.89844h1.18945v0.58008h-1.18945v3.09863
					c0,0.47949,0.22021,0.69922,0.60986,0.69922c0.16992,0,0.35986-0.04004,0.57959-0.10938L136.18701,47.95038z"/>
				<path d="M137.43799,41.03436h0.79932v1.01953h-0.79932V41.03436z M137.49805,43.07245h0.68945v4.92773h-0.68945V43.07245z"/>
				<path d="M146.76465,44.92206v3.07812h-0.68994v-2.88867c0-0.41992,0-1.50879-1.0791-1.50879
					c-0.99951,0-1.26953,0.91895-1.26953,2.02832v2.36914h-0.68945v-2.84863c0-0.81934-0.25-1.54883-1.10938-1.54883
					c-0.95947,0-1.22949,0.90918-1.22949,2.02832v2.36914h-0.68945l-0.01025-4.92773h0.66992v0.60059
					c0.30957-0.49023,0.80957-0.67969,1.35889-0.67969c0.68994,0,1.19971,0.2998,1.44922,0.94922
					c0.31982-0.62988,0.86963-0.94922,1.61914-0.94922C146.2749,42.99335,146.76465,43.77264,146.76465,44.92206z"/>
				<path d="M152.36572,45.72186h-3.60791c0.02002,1.0791,0.61963,1.72852,1.58936,1.72852
					c0.53955,0,0.96924-0.13965,1.41895-0.61914l0.47998,0.41895c-0.57959,0.61035-1.14941,0.83008-1.90918,0.83008
					c-1.49902,0-2.26855-1.11914-2.26855-2.51855c0-1.38965,0.75977-2.56836,2.18896-2.56836
					c1.50879,0,2.13867,1.17871,2.13867,2.29785C152.396,45.43182,152.38574,45.60175,152.36572,45.72186z M148.75781,45.14178
					h2.97852c0-0.02051-0.01025-0.07031-0.01025-0.16016c-0.0498-0.7998-0.55957-1.40918-1.46875-1.40918
					C149.36768,43.57245,148.81787,44.27264,148.75781,45.14178z"/>
			</g>
			<g enable-background="new    ">
				<path d="M31.13916,64.03436h0.70996V70.341h3.17822v0.65918h-3.88818V64.03436z"/>
				<path d="M35.7998,68.53143c0-1.45898,0.94922-2.53809,2.3584-2.53809c1.39941,0,2.36865,1.0791,2.36865,2.53809
					c0,1.44922-0.95947,2.54883-2.36865,2.54883S35.7998,69.99042,35.7998,68.53143z M39.8374,68.53143
					c0-1.11914-0.62988-1.92871-1.6792-1.92871c-1.05957,0-1.66895,0.81934-1.66895,1.92871
					c0,1.11914,0.61963,1.93945,1.66895,1.93945C39.21777,70.47089,39.8374,69.63104,39.8374,68.53143z"/>
				<path d="M41.50928,68.55194c0-1.2998,0.72998-2.55859,2.21924-2.55859c0.87939,0,1.60889,0.43945,1.99854,1.3584
					l-0.65967,0.26074c-0.22949-0.62988-0.71924-1.00977-1.33887-1.00977c-1.0498,0-1.51953,0.93945-1.51953,1.94922
					c0,1.00879,0.46973,1.91895,1.5293,1.91895c0.61963,0,1.10938-0.37012,1.29932-1l0.63965,0.24023
					c-0.33008,0.89941-1.04932,1.36914-1.93896,1.36914C42.30908,71.08026,41.50928,69.92108,41.50928,68.55194z"/>
				<path d="M50.61768,67.93182v3.06836h-0.62988l-0.04004-0.75977c-0.38965,0.5498-0.98926,0.83984-1.76904,0.83984
					c-1.06934,0-1.69873-0.55957-1.69873-1.50977c0-0.49902,0.19971-0.87891,0.55957-1.09863
					c0.37988-0.21973,0.90967-0.31055,1.87891-0.31055h1.00928v-0.22949c0-0.85938-0.44971-1.3291-1.2793-1.3291
					c-0.61963,0-1.09912,0.26953-1.49902,0.81934l-0.49951-0.41992c0.5293-0.68945,1.16895-1.00879,2.00879-1.00879
					C49.89795,65.99335,50.61768,66.70233,50.61768,67.93182z M49.92773,68.7912v-0.06934h-0.94922
					c-0.90967,0-1.29932,0.05957-1.53906,0.24902c-0.18018,0.14062-0.27002,0.36035-0.27002,0.63965
					c0,0.5498,0.46973,0.90039,1.20947,0.90039C49.32812,70.51093,49.92773,69.841,49.92773,68.7912z"/>
				<path d="M54.34814,70.95038c-0.25977,0.08008-0.52002,0.12988-0.74951,0.12988c-0.65967,0-1.13965-0.37012-1.13965-1.23926
					v-3.18848h-0.81934v-0.58008h0.81934v-1.37891l0.68945-0.51953v1.89844h1.18945v0.58008h-1.18945v3.09863
					c0,0.47949,0.22021,0.69922,0.60986,0.69922c0.16992,0,0.35986-0.04004,0.57959-0.10938L54.34814,70.95038z"/>
				<path d="M55.59961,64.03436h0.79932v1.01953h-0.79932V64.03436z M55.65967,66.07245h0.68945v4.92773h-0.68945V66.07245z"/>
				<path d="M57.73926,68.53143c0-1.45898,0.94971-2.53809,2.35889-2.53809c1.39941,0,2.36865,1.0791,2.36865,2.53809
					c0,1.44922-0.95947,2.54883-2.36865,2.54883S57.73926,69.99042,57.73926,68.53143z M61.77734,68.53143
					c0-1.11914-0.62988-1.92871-1.6792-1.92871c-1.05957,0-1.66895,0.81934-1.66895,1.92871
					c0,1.11914,0.61963,1.93945,1.66895,1.93945C61.15771,70.47089,61.77734,69.63104,61.77734,68.53143z"/>
				<path d="M67.78711,67.98163v3.01855h-0.68945v-2.84863c0-1.05957-0.33984-1.54883-1.07959-1.54883
					c-0.92969,0-1.46924,0.7998-1.46924,2.18848v2.20898h-0.68945v-4.92773h0.68945v0.71973
					c0.31982-0.49902,0.91943-0.79883,1.62891-0.79883C67.2373,65.99335,67.78711,66.67303,67.78711,67.98163z"/>
				<path d="M68.95947,69.7912l0.57959-0.25977c0.17969,0.50977,0.65967,0.93945,1.4292,0.93945
					c0.66943,0,1.09961-0.33008,1.09961-0.84961c0-1.30957-2.83887-0.49023-2.83887-2.23926
					c0-0.85938,0.69971-1.38867,1.68945-1.38867c0.78955,0,1.4292,0.3291,1.76904,1.0293l-0.5498,0.2998
					c-0.23975-0.44043-0.62988-0.71973-1.23926-0.71973c-0.60986,0-0.99951,0.25-0.99951,0.67969
					c0,1.16895,2.84814,0.42969,2.84814,2.29883c0,0.99902-0.81934,1.49902-1.76855,1.49902
					C70.00879,71.08026,69.21924,70.58026,68.95947,69.7912z"/>
				<path d="M76.44922,68.53143c0-1.45898,0.94922-2.53809,2.3584-2.53809c1.39941,0,2.36865,1.0791,2.36865,2.53809
					c0,1.44922-0.95947,2.54883-2.36865,2.54883S76.44922,69.99042,76.44922,68.53143z M80.48682,68.53143
					c0-1.11914-0.62988-1.92871-1.6792-1.92871c-1.05957,0-1.66895,0.81934-1.66895,1.92871
					c0,1.11914,0.61963,1.93945,1.66895,1.93945C79.86719,70.47089,80.48682,69.63104,80.48682,68.53143z"/>
				<path d="M82.86865,66.65253H81.8291v-0.58008h1.04932v-0.75879c0-1.0498,0.60986-1.35938,1.23926-1.35938
					c0.27002,0,0.56982,0.05957,0.87988,0.18945l-0.24023,0.5498c-0.20996-0.09961-0.39941-0.16016-0.56934-0.16016
					c-0.39014,0-0.62988,0.27051-0.62988,0.72949v0.80957h1.41943v0.58008h-1.41943v4.34766h-0.68945V66.65253z"/>
				<path d="M90.8374,70.95038c-0.25977,0.08008-0.52002,0.12988-0.74951,0.12988c-0.65967,0-1.13965-0.37012-1.13965-1.23926
					v-3.18848h-0.81934v-0.58008h0.81934v-1.37891l0.68945-0.51953v1.89844h1.18945v0.58008H89.6377v3.09863
					c0,0.47949,0.22021,0.69922,0.60986,0.69922c0.16992,0,0.35986-0.04004,0.57959-0.10938L90.8374,70.95038z"/>
				<path d="M95.99609,68.72186h-3.60791c0.02002,1.0791,0.61963,1.72852,1.58936,1.72852
					c0.53955,0,0.96924-0.13965,1.41895-0.61914l0.47998,0.41895c-0.57959,0.61035-1.14941,0.83008-1.90918,0.83008
					c-1.49902,0-2.26855-1.11914-2.26855-2.51855c0-1.38965,0.75977-2.56836,2.18896-2.56836
					c1.50879,0,2.13867,1.17871,2.13867,2.29785C96.02637,68.43182,96.01611,68.60175,95.99609,68.72186z M92.38818,68.14178
					h2.97852c0-0.02051-0.01025-0.07031-0.01025-0.16016c-0.0498-0.7998-0.55957-1.40918-1.46875-1.40918
					C92.99805,66.57245,92.44824,67.27264,92.38818,68.14178z"/>
				<path d="M98.56836,68.53143l-1.79932-2.45898h0.83984l1.41895,1.97949l1.40918-1.97949h0.83984l-1.79932,2.45898
					l1.80908,2.46875h-0.84961l-1.40918-1.99902l-1.40918,1.99902h-0.84961L98.56836,68.53143z"/>
				<path d="M104.54736,70.95038c-0.25977,0.08008-0.52002,0.12988-0.74951,0.12988c-0.65967,0-1.13965-0.37012-1.13965-1.23926
					v-3.18848h-0.81934v-0.58008h0.81934v-1.37891l0.68945-0.51953v1.89844h1.18945v0.58008h-1.18945v3.09863
					c0,0.47949,0.22021,0.69922,0.60986,0.69922c0.16992,0,0.35986-0.04004,0.57959-0.10938L104.54736,70.95038z"/>
				<path d="M105.37891,69.7912l0.57959-0.25977c0.17969,0.50977,0.65967,0.93945,1.4292,0.93945
					c0.66943,0,1.09961-0.33008,1.09961-0.84961c0-1.30957-2.83887-0.49023-2.83887-2.23926
					c0-0.85938,0.69971-1.38867,1.68945-1.38867c0.78955,0,1.4292,0.3291,1.76904,1.0293l-0.5498,0.2998
					c-0.23975-0.44043-0.62988-0.71973-1.23926-0.71973c-0.60986,0-0.99951,0.25-0.99951,0.67969
					c0,1.16895,2.84814,0.42969,2.84814,2.29883c0,0.99902-0.81934,1.49902-1.76904,1.49902
					C106.42822,71.08026,105.63867,70.58026,105.37891,69.7912z"/>
				<path d="M112.66846,66.07245h0.73975l1.05957,3.88867l1.29883-3.88867h0.62988l1.28906,3.88867l1.06982-3.88867h0.72949
					l-1.43945,4.92773H117.396l-1.30957-3.97754l-1.3291,3.97754h-0.63965L112.66846,66.07245z"/>
				<path d="M124.61621,67.98163v3.01855h-0.68945v-2.84863c0-1.06934-0.33984-1.54883-1.07959-1.54883
					c-0.93945,0-1.46924,0.76953-1.46924,2.12891v2.26855h-0.68945v-6.96582h0.68945v2.75781
					c0.31982-0.49902,0.91943-0.79883,1.62891-0.79883C124.06641,65.99335,124.61621,66.67303,124.61621,67.98163z"/>
				<path d="M130.21582,68.72186h-3.60791c0.02002,1.0791,0.61963,1.72852,1.58936,1.72852
					c0.53955,0,0.96924-0.13965,1.41895-0.61914l0.47998,0.41895c-0.57959,0.61035-1.14941,0.83008-1.90918,0.83008
					c-1.49902,0-2.26855-1.11914-2.26855-2.51855c0-1.38965,0.75977-2.56836,2.18896-2.56836
					c1.50879,0,2.13867,1.17871,2.13867,2.29785C130.24609,68.43182,130.23584,68.60175,130.21582,68.72186z M126.60791,68.14178
					h2.97852c0-0.02051-0.01025-0.07031-0.01025-0.16016c-0.0498-0.7998-0.55957-1.40918-1.46875-1.40918
					C127.21777,66.57245,126.66797,67.27264,126.60791,68.14178z"/>
				<path d="M134.63623,66.20331l-0.33984,0.55957c-0.22949-0.10059-0.43945-0.15039-0.64941-0.15039
					c-0.75977,0-1.31934,0.56934-1.31934,1.63965v2.74805h-0.68945v-4.92773h0.68945v0.74023
					c0.35986-0.64941,0.95947-0.81934,1.45898-0.81934C134.08691,65.99335,134.3667,66.05292,134.63623,66.20331z"/>
				<path d="M139.10547,68.72186h-3.60791c0.02002,1.0791,0.61963,1.72852,1.58936,1.72852
					c0.53955,0,0.96924-0.13965,1.41895-0.61914l0.47998,0.41895c-0.57959,0.61035-1.14941,0.83008-1.90918,0.83008
					c-1.49902,0-2.26855-1.11914-2.26855-2.51855c0-1.38965,0.75977-2.56836,2.18896-2.56836
					c1.50879,0,2.13867,1.17871,2.13867,2.29785C139.13574,68.43182,139.12549,68.60175,139.10547,68.72186z M135.49756,68.14178
					h2.97852c0-0.02051-0.01025-0.07031-0.01025-0.16016c-0.0498-0.7998-0.55957-1.40918-1.46875-1.40918
					C136.10742,66.57245,135.55762,67.27264,135.49756,68.14178z"/>
				<path d="M145.30664,70.95038c-0.25977,0.08008-0.52002,0.12988-0.74951,0.12988c-0.65967,0-1.13965-0.37012-1.13965-1.23926
					v-3.18848h-0.81934v-0.58008h0.81934v-1.37891l0.68994-0.51953v1.89844h1.18896v0.58008h-1.18896v3.09863
					c0,0.47949,0.21973,0.69922,0.60938,0.69922c0.16992,0,0.35986-0.04004,0.57959-0.10938L145.30664,70.95038z"/>
				<path d="M150.5459,67.98163v3.01855h-0.68945v-2.84863c0-1.06934-0.33984-1.54883-1.07959-1.54883
					c-0.93945,0-1.46924,0.76953-1.46924,2.12891v2.26855h-0.68945v-6.96582h0.68945v2.75781
					c0.31982-0.49902,0.91943-0.79883,1.62891-0.79883C149.99609,65.99335,150.5459,66.67303,150.5459,67.98163z"/>
				<path d="M156.14551,68.72186h-3.60791c0.02002,1.0791,0.61963,1.72852,1.58936,1.72852
					c0.53955,0,0.96924-0.13965,1.41895-0.61914l0.47998,0.41895c-0.57959,0.61035-1.14941,0.83008-1.90918,0.83008
					c-1.49902,0-2.26855-1.11914-2.26855-2.51855c0-1.38965,0.75977-2.56836,2.18896-2.56836
					c1.50879,0,2.13867,1.17871,2.13867,2.29785C156.17578,68.43182,156.16553,68.60175,156.14551,68.72186z M152.5376,68.14178
					h2.97852c0-0.02051-0.01025-0.07031-0.01025-0.16016c-0.0498-0.7998-0.55957-1.40918-1.46875-1.40918
					C153.14746,66.57245,152.59766,67.27264,152.5376,68.14178z"/>
				<path d="M164.22559,67.98163v3.01855h-0.68945v-2.84863c0-1.05957-0.33984-1.54883-1.07959-1.54883
					c-0.92969,0-1.46924,0.7998-1.46924,2.18848v2.20898h-0.68945v-4.92773h0.68945v0.71973
					c0.31982-0.49902,0.91943-0.79883,1.62891-0.79883C163.67578,65.99335,164.22559,66.67303,164.22559,67.98163z"/>
				<path d="M169.5957,67.93182v3.06836h-0.62988l-0.04004-0.75977c-0.38965,0.5498-0.98926,0.83984-1.76904,0.83984
					c-1.06934,0-1.69873-0.55957-1.69873-1.50977c0-0.49902,0.19971-0.87891,0.55957-1.09863
					c0.37988-0.21973,0.90967-0.31055,1.87891-0.31055h1.00928v-0.22949c0-0.85938-0.44971-1.3291-1.2793-1.3291
					c-0.61963,0-1.09912,0.26953-1.49902,0.81934l-0.49951-0.41992c0.5293-0.68945,1.16895-1.00879,2.00879-1.00879
					C168.87598,65.99335,169.5957,66.70233,169.5957,67.93182z M168.90576,68.7912v-0.06934h-0.94922
					c-0.90967,0-1.29932,0.05957-1.53906,0.24902c-0.18018,0.14062-0.27002,0.36035-0.27002,0.63965
					c0,0.5498,0.46973,0.90039,1.20947,0.90039C168.30615,70.51093,168.90576,69.841,168.90576,68.7912z"/>
				<path d="M174.27539,66.20331l-0.33984,0.55957c-0.22949-0.10059-0.43945-0.15039-0.64941-0.15039
					c-0.75977,0-1.31934,0.56934-1.31934,1.63965v2.74805h-0.68945v-4.92773h0.68945v0.74023
					c0.35986-0.64941,0.95947-0.81934,1.45898-0.81934C173.72559,65.99335,174.00586,66.05292,174.27539,66.20331z"/>
				<path d="M178.29541,66.20331l-0.33984,0.55957c-0.22949-0.10059-0.43945-0.15039-0.64941-0.15039
					c-0.75977,0-1.31934,0.56934-1.31934,1.63965v2.74805h-0.68945v-4.92773h0.68945v0.74023
					c0.35986-0.64941,0.95947-0.81934,1.45898-0.81934C177.74609,65.99335,178.02588,66.05292,178.29541,66.20331z"/>
				<path d="M182.98535,67.93182v3.06836h-0.62988l-0.04004-0.75977c-0.38965,0.5498-0.98926,0.83984-1.76904,0.83984
					c-1.06934,0-1.69873-0.55957-1.69873-1.50977c0-0.49902,0.19971-0.87891,0.55957-1.09863
					c0.37988-0.21973,0.90967-0.31055,1.87891-0.31055h1.00928v-0.22949c0-0.85938-0.44971-1.3291-1.2793-1.3291
					c-0.61963,0-1.09912,0.26953-1.49902,0.81934l-0.49951-0.41992c0.5293-0.68945,1.16895-1.00879,2.00879-1.00879
					C182.26562,65.99335,182.98535,66.70233,182.98535,67.93182z M182.29541,68.7912v-0.06934h-0.94922
					c-0.90967,0-1.29932,0.05957-1.53906,0.24902c-0.18018,0.14062-0.27002,0.36035-0.27002,0.63965
					c0,0.5498,0.46973,0.90039,1.20947,0.90039C181.6958,70.51093,182.29541,69.841,182.29541,68.7912z"/>
				<path d="M186.71631,70.95038c-0.25977,0.08008-0.52002,0.12988-0.74951,0.12988c-0.65967,0-1.13965-0.37012-1.13965-1.23926
					v-3.18848h-0.81934v-0.58008h0.81934v-1.37891l0.68945-0.51953v1.89844h1.18945v0.58008h-1.18945v3.09863
					c0,0.47949,0.22021,0.69922,0.60986,0.69922c0.16992,0,0.35986-0.04004,0.57959-0.10938L186.71631,70.95038z"/>
				<path d="M191.875,68.72186h-3.60791c0.02002,1.0791,0.61963,1.72852,1.58936,1.72852c0.53955,0,0.96924-0.13965,1.41895-0.61914
					l0.47998,0.41895c-0.57959,0.61035-1.14941,0.83008-1.90918,0.83008c-1.49902,0-2.26855-1.11914-2.26855-2.51855
					c0-1.38965,0.75977-2.56836,2.18896-2.56836c1.50879,0,2.13867,1.17871,2.13867,2.29785
					C191.90527,68.43182,191.89502,68.60175,191.875,68.72186z M188.26709,68.14178h2.97852
					c0-0.02051-0.01025-0.07031-0.01025-0.16016c-0.0498-0.7998-0.55957-1.40918-1.46875-1.40918
					C188.87695,66.57245,188.32715,67.27264,188.26709,68.14178z"/>
				<path d="M197.41504,64.03436v6.96582h-0.68994V70.341c-0.35938,0.45898-0.90918,0.73926-1.62891,0.73926
					c-1.43896,0-2.18896-1.0791-2.18896-2.54883c0-1.53906,0.81982-2.54883,2.18896-2.54883c0.69971,0,1.25928,0.27051,1.62891,0.75
					v-2.69824H197.41504z M196.78516,68.53143c0-1.16895-0.59961-1.93848-1.58887-1.93848
					c-0.99951,0-1.59912,0.76953-1.59912,1.93848c0,1.11914,0.54932,1.93945,1.59912,1.93945
					C196.23535,70.47089,196.78516,69.65057,196.78516,68.53143z"/>
			</g>
			<g enable-background="new    ">
				<path d="M32.9585,83.95038c-0.25977,0.08008-0.52002,0.12988-0.74951,0.12988c-0.65967,0-1.13965-0.37012-1.13965-1.23926
					v-3.18848H30.25v-0.58008h0.81934v-1.37891l0.68945-0.51953v1.89844h1.18945v0.58008h-1.18945v3.09863
					c0,0.47949,0.22021,0.69922,0.60986,0.69922c0.16992,0,0.35986-0.04004,0.57959-0.10938L32.9585,83.95038z"/>
				<path d="M34.20947,77.03436h0.79932v1.01953h-0.79932V77.03436z M34.26953,79.07245h0.68945v4.92773h-0.68945V79.07245z"/>
				<path d="M43.53613,80.92206v3.07812h-0.68994v-2.88867c0-0.41992,0-1.50879-1.0791-1.50879
					c-0.99951,0-1.26953,0.91895-1.26953,2.02832v2.36914h-0.68945v-2.84863c0-0.81934-0.25-1.54883-1.10938-1.54883
					c-0.95947,0-1.22949,0.90918-1.22949,2.02832v2.36914h-0.68945l-0.01025-4.92773h0.66992v0.60059
					c0.30957-0.49023,0.80957-0.67969,1.35889-0.67969c0.68994,0,1.19971,0.2998,1.44922,0.94922
					c0.31982-0.62988,0.86963-0.94922,1.61914-0.94922C43.04639,78.99335,43.53613,79.77264,43.53613,80.92206z"/>
				<path d="M49.13721,81.72186H45.5293c0.02002,1.0791,0.61963,1.72852,1.58936,1.72852c0.53955,0,0.96924-0.13965,1.41895-0.61914
					l0.47998,0.41895c-0.57959,0.61035-1.14941,0.83008-1.90918,0.83008c-1.49902,0-2.26855-1.11914-2.26855-2.51855
					c0-1.38965,0.75977-2.56836,2.18896-2.56836c1.50879,0,2.13867,1.17871,2.13867,2.29785
					C49.16748,81.43182,49.15723,81.60175,49.13721,81.72186z M45.5293,81.14178h2.97852c0-0.02051-0.01025-0.07031-0.01025-0.16016
					c-0.0498-0.7998-0.55957-1.40918-1.46875-1.40918C46.13916,79.57245,45.58936,80.27264,45.5293,81.14178z"/>
				<path d="M53.22949,77.03436h0.79932v1.01953h-0.79932V77.03436z M53.28955,79.07245H53.979v4.92773h-0.68945V79.07245z"/>
				<path d="M55.26953,82.7912l0.57959-0.25977c0.17969,0.50977,0.65967,0.93945,1.4292,0.93945
					c0.66943,0,1.09961-0.33008,1.09961-0.84961c0-1.30957-2.83887-0.49023-2.83887-2.23926
					c0-0.85938,0.69971-1.38867,1.68945-1.38867c0.78955,0,1.4292,0.3291,1.76904,1.0293l-0.5498,0.2998
					c-0.23975-0.44043-0.62988-0.71973-1.23926-0.71973c-0.60986,0-0.99951,0.25-0.99951,0.67969
					c0,1.16895,2.84814,0.42969,2.84814,2.29883c0,0.99902-0.81934,1.49902-1.76904,1.49902
					C56.31885,84.08026,55.5293,83.58026,55.26953,82.7912z"/>
				<path d="M62.65918,82.7912l0.57959-0.25977c0.17969,0.50977,0.65967,0.93945,1.4292,0.93945
					c0.66943,0,1.09961-0.33008,1.09961-0.84961c0-1.30957-2.83887-0.49023-2.83887-2.23926
					c0-0.85938,0.69971-1.38867,1.68945-1.38867c0.78955,0,1.4292,0.3291,1.76904,1.0293l-0.5498,0.2998
					c-0.23975-0.44043-0.62988-0.71973-1.23926-0.71973c-0.60986,0-0.99951,0.25-0.99951,0.67969
					c0,1.16895,2.84814,0.42969,2.84814,2.29883c0,0.99902-0.81934,1.49902-1.76904,1.49902
					C63.7085,84.08026,62.91895,83.58026,62.65918,82.7912z"/>
				<path d="M71.69678,81.72186h-3.60791c0.02002,1.0791,0.61963,1.72852,1.58936,1.72852
					c0.53955,0,0.96924-0.13965,1.41895-0.61914l0.47998,0.41895c-0.57959,0.61035-1.14941,0.83008-1.90918,0.83008
					c-1.49902,0-2.26855-1.11914-2.26855-2.51855c0-1.38965,0.75977-2.56836,2.18896-2.56836
					c1.50879,0,2.13867,1.17871,2.13867,2.29785C71.72705,81.43182,71.7168,81.60175,71.69678,81.72186z M68.08887,81.14178h2.97852
					c0-0.02051-0.01025-0.07031-0.01025-0.16016c-0.0498-0.7998-0.55957-1.40918-1.46875-1.40918
					C68.69873,79.57245,68.14893,80.27264,68.08887,81.14178z"/>
				<path d="M75.16797,83.95038c-0.25977,0.08008-0.52002,0.12988-0.74951,0.12988c-0.65967,0-1.13965-0.37012-1.13965-1.23926
					v-3.18848h-0.81934v-0.58008h0.81934v-1.37891l0.68994-0.51953v1.89844h1.18896v0.58008h-1.18896v3.09863
					c0,0.47949,0.21973,0.69922,0.60938,0.69922c0.16992,0,0.35986-0.04004,0.57959-0.10938L75.16797,83.95038z"/>
				<path d="M79.14893,77.03436h0.79932v1.01953h-0.79932V77.03436z M79.20898,79.07245h0.68945v4.92773h-0.68945V79.07245z"/>
				<path d="M85.64697,80.98163v3.01855h-0.68945v-2.84863c0-1.05957-0.33984-1.54883-1.07959-1.54883
					c-0.92969,0-1.46924,0.7998-1.46924,2.18848v2.20898h-0.68945v-4.92773h0.68945v0.71973
					c0.31982-0.49902,0.91943-0.79883,1.62891-0.79883C85.09717,78.99335,85.64697,79.67303,85.64697,80.98163z"/>
				<path d="M92.12744,83.95038c-0.25977,0.08008-0.52002,0.12988-0.74951,0.12988c-0.65967,0-1.13965-0.37012-1.13965-1.23926
					v-3.18848h-0.81934v-0.58008h0.81934v-1.37891l0.68945-0.51953v1.89844h1.18945v0.58008h-1.18945v3.09863
					c0,0.47949,0.22021,0.69922,0.60986,0.69922c0.16992,0,0.35986-0.04004,0.57959-0.10938L92.12744,83.95038z"/>
				<path d="M97.3667,80.98163v3.01855h-0.68945v-2.84863c0-1.06934-0.33984-1.54883-1.07959-1.54883
					c-0.93945,0-1.46924,0.76953-1.46924,2.12891v2.26855h-0.68945v-6.96582h0.68945v2.75781
					c0.31982-0.49902,0.91943-0.79883,1.62891-0.79883C96.81689,78.99335,97.3667,79.67303,97.3667,80.98163z"/>
				<path d="M102.96631,81.72186H99.3584c0.02002,1.0791,0.61963,1.72852,1.58936,1.72852
					c0.53955,0,0.96924-0.13965,1.41895-0.61914l0.47998,0.41895c-0.57959,0.61035-1.14941,0.83008-1.90918,0.83008
					c-1.49902,0-2.26855-1.11914-2.26855-2.51855c0-1.38965,0.75977-2.56836,2.18896-2.56836
					c1.50879,0,2.13867,1.17871,2.13867,2.29785C102.99658,81.43182,102.98633,81.60175,102.96631,81.72186z M99.3584,81.14178
					h2.97852c0-0.02051-0.01025-0.07031-0.01025-0.16016c-0.0498-0.7998-0.55957-1.40918-1.46875-1.40918
					C99.96826,79.57245,99.41846,80.27264,99.3584,81.14178z"/>
			</g>
			<g enable-background="new    ">
				<path d="M111.62598,81.53143c0,1.51953-0.78955,2.55859-2.15869,2.55859c-0.65967,0-1.22949-0.26953-1.55908-0.70996v2.65918
					h-0.85986v-6.9668h0.85986v0.61035c0.35986-0.46973,0.91943-0.7002,1.55908-0.7002
					C110.82666,78.9826,111.62598,80.0119,111.62598,81.53143z M110.7666,81.53143c0-1.09961-0.52979-1.79883-1.45947-1.79883
					c-0.94922,0-1.46924,0.72949-1.46924,1.79883c0,1.0293,0.48975,1.79883,1.46924,1.79883
					C110.2666,83.33026,110.7666,82.60077,110.7666,81.53143z"/>
				<path d="M116.70654,80.92206v3.07812h-0.78955l-0.06006-0.73926c-0.34961,0.5293-0.93945,0.8291-1.6792,0.8291
					c-1.05908,0-1.729-0.59961-1.729-1.54883c0-0.51953,0.22021-0.91992,0.61963-1.13965
					c0.37012-0.2002,0.85986-0.28027,1.68945-0.28027h1.08936v-0.19922c0-0.75977-0.41992-1.17969-1.16943-1.17969
					c-0.57959,0-1.04932,0.26953-1.43945,0.79004l-0.61963-0.52051c0.5498-0.69922,1.21924-1.0293,2.0791-1.0293
					C115.95703,78.9826,116.70654,79.70233,116.70654,80.92206z M115.84717,81.841v-0.0498h-0.98975
					c-0.74951,0-1.08936,0.06055-1.29932,0.21973c-0.15967,0.12988-0.24951,0.32031-0.24951,0.57031
					c0,0.47949,0.40967,0.78906,1.06934,0.78906C115.24756,83.3703,115.84717,82.75116,115.84717,81.841z"/>
				<path d="M117.71875,82.77069l0.70947-0.31934c0.15967,0.45898,0.56982,0.89941,1.29932,0.89941
					c0.63965,0,0.99951-0.33008,0.99951-0.75977c0-1.14941-2.73877-0.41992-2.73877-2.19922
					c0-0.88867,0.75977-1.40918,1.729-1.40918c0.80957,0,1.45947,0.36035,1.80908,1.0498l-0.67969,0.37012
					c-0.21973-0.40039-0.56934-0.69043-1.14941-0.69043c-0.53955,0-0.87939,0.23047-0.87939,0.58984
					c0,1.0293,2.7583,0.38965,2.7583,2.23926c0,1.04883-0.87939,1.54883-1.81885,1.54883
					C118.76807,84.09003,117.97852,83.54022,117.71875,82.77069z"/>
				<path d="M123.87793,79.77264v2.9082c0,0.4502,0.22949,0.64941,0.61963,0.64941c0.16992,0,0.36963-0.04004,0.58936-0.10938
					v0.72949c-0.26953,0.08984-0.53955,0.13965-0.79932,0.13965c-0.70947,0-1.26953-0.38965-1.26953-1.31934v-2.99805h-0.80957
					v-0.7002h0.80957v-1.29883l0.85986-0.64941v1.94824h1.20898v0.7002H123.87793z"/>
			</g>
			<g enable-background="new    ">
				<path d="M128.67871,81.53143c0-1.45898,0.94922-2.53809,2.3584-2.53809c1.39941,0,2.36865,1.0791,2.36865,2.53809
					c0,1.44922-0.95947,2.54883-2.36865,2.54883S128.67871,82.99042,128.67871,81.53143z M132.71631,81.53143
					c0-1.11914-0.62988-1.92871-1.6792-1.92871c-1.05957,0-1.66895,0.81934-1.66895,1.92871
					c0,1.11914,0.61963,1.93945,1.66895,1.93945C132.09668,83.47089,132.71631,82.63104,132.71631,81.53143z"/>
				<path d="M137.79639,79.20331l-0.33984,0.55957c-0.22949-0.10059-0.43945-0.15039-0.64941-0.15039
					c-0.75977,0-1.31934,0.56934-1.31934,1.63965v2.74805h-0.68945v-4.92773h0.68945v0.74023
					c0.35986-0.64941,0.95947-0.81934,1.45898-0.81934C137.24707,78.99335,137.52686,79.05292,137.79639,79.20331z"/>
				<path d="M141.48828,77.03436h0.79932v1.01953h-0.79932V77.03436z M141.54834,79.07245h0.68945v4.92773h-0.68945V79.07245z"/>
				<path d="M147.98584,80.98163v3.01855h-0.68945v-2.84863c0-1.05957-0.33984-1.54883-1.07959-1.54883
					c-0.92969,0-1.46924,0.7998-1.46924,2.18848v2.20898h-0.68945v-4.92773h0.68945v0.71973
					c0.31982-0.49902,0.91943-0.79883,1.62891-0.79883C147.43604,78.99335,147.98584,79.67303,147.98584,80.98163z"/>
				<path d="M156.08594,80.93182v3.06836h-0.62988l-0.04004-0.75977c-0.38965,0.5498-0.98926,0.83984-1.76904,0.83984
					c-1.06934,0-1.69873-0.55957-1.69873-1.50977c0-0.49902,0.19971-0.87891,0.55957-1.09863
					c0.37988-0.21973,0.90967-0.31055,1.87891-0.31055h1.00928v-0.22949c0-0.85938-0.44971-1.3291-1.2793-1.3291
					c-0.61963,0-1.09912,0.26953-1.49902,0.81934l-0.49951-0.41992c0.5293-0.68945,1.16895-1.00879,2.00879-1.00879
					C155.36621,78.99335,156.08594,79.70233,156.08594,80.93182z M155.396,81.7912v-0.06934h-0.94922
					c-0.90967,0-1.29932,0.05957-1.53906,0.24902c-0.18018,0.14062-0.27002,0.36035-0.27002,0.63965
					c0,0.5498,0.46973,0.90039,1.20947,0.90039C154.79639,83.51093,155.396,82.841,155.396,81.7912z"/>
				<path d="M161.69531,80.98163v3.01855h-0.68945v-2.84863c0-1.05957-0.33984-1.54883-1.07959-1.54883
					c-0.92969,0-1.46924,0.7998-1.46924,2.18848v2.20898h-0.68945v-4.92773h0.68945v0.71973
					c0.31982-0.49902,0.91943-0.79883,1.62891-0.79883C161.14551,78.99335,161.69531,79.67303,161.69531,80.98163z"/>
			</g>
			<g enable-background="new    ">
				<path d="M30.78955,90.03436h0.95947v1.04883h-0.95947V90.03436z M30.83936,92.07245h0.85986v4.92773h-0.85986V92.07245z"/>
				<path d="M37.47754,93.93182v3.06836h-0.85986v-2.8584c0-0.81934-0.22998-1.39941-1.0293-1.39941
					c-0.98926,0-1.34912,0.90918-1.34912,2.12891v2.12891h-0.85986v-4.92773h0.85986v0.66992
					c0.32959-0.47949,0.90918-0.75977,1.5791-0.75977C36.89746,91.9826,37.47754,92.66229,37.47754,93.93182z"/>
				<path d="M43.22705,90.03436v6.96582h-0.85986v-0.60938c-0.34961,0.45898-0.90918,0.69922-1.55908,0.69922
					c-1.40918,0-2.15869-1.08887-2.15869-2.55859c0-1.55859,0.83936-2.54883,2.15869-2.54883
					c0.6499,0,1.21973,0.25977,1.55908,0.70996v-2.6582H43.22705z M42.4375,94.53143c0-1.04883-0.52002-1.7793-1.46924-1.7793
					c-0.92969,0-1.45947,0.7002-1.45947,1.7793c0,1.0498,0.48975,1.7793,1.45947,1.7793
					C41.94775,96.31073,42.4375,95.55096,42.4375,94.53143z"/>
				<path d="M48.89697,94.7912h-3.52783c0.02979,0.93945,0.55957,1.50977,1.46924,1.50977
					c0.49951,0,0.91943-0.14062,1.33936-0.58984l0.58936,0.5293c-0.55957,0.59961-1.15918,0.84961-1.93896,0.84961
					c-1.56885,0-2.31836-1.15918-2.31836-2.52832c0-1.35938,0.73926-2.5791,2.23877-2.5791
					c1.50879,0,2.17871,1.16992,2.17871,2.36914C48.92725,94.49139,48.91699,94.66132,48.89697,94.7912z M48.10742,94.09198
					c-0.00977-0.02051-0.00977-0.0498-0.00977-0.08984c-0.03027-0.75977-0.52979-1.2998-1.35938-1.2998
					c-0.83936,0-1.30908,0.64941-1.36914,1.38965H48.10742z"/>
				<path d="M51.21875,92.77264v2.9082c0,0.4502,0.22949,0.64941,0.61963,0.64941c0.16992,0,0.36963-0.04004,0.58936-0.10938
					v0.72949c-0.26953,0.08984-0.53955,0.13965-0.79932,0.13965c-0.70947,0-1.26953-0.38965-1.26953-1.31934v-2.99805h-0.80957
					v-0.7002h0.80957v-1.29883l0.85986-0.64941v1.94824h1.20898v0.7002H51.21875z"/>
				<path d="M57.59668,94.7912h-3.52783c0.02979,0.93945,0.55957,1.50977,1.46924,1.50977
					c0.49951,0,0.91943-0.14062,1.33936-0.58984l0.58936,0.5293c-0.55957,0.59961-1.15918,0.84961-1.93896,0.84961
					c-1.56885,0-2.31836-1.15918-2.31836-2.52832c0-1.35938,0.73926-2.5791,2.23877-2.5791
					c1.50879,0,2.17871,1.16992,2.17871,2.36914C57.62695,94.49139,57.6167,94.66132,57.59668,94.7912z M56.80713,94.09198
					c-0.00977-0.02051-0.00977-0.0498-0.00977-0.08984c-0.02979-0.75977-0.52979-1.2998-1.35938-1.2998
					c-0.83936,0-1.30908,0.64941-1.36914,1.38965H56.80713z"/>
				<path d="M62.04785,92.22284l-0.41992,0.71973c-0.20996-0.10059-0.41992-0.15039-0.63965-0.15039
					c-0.74951,0-1.23926,0.53027-1.23926,1.5498v2.6582h-0.85986v-4.92773h0.85986v0.76953
					c0.30957-0.62891,0.89941-0.85938,1.41895-0.85938C61.47803,91.9826,61.75781,92.05292,62.04785,92.22284z"/>
				<path d="M69.8457,93.90155v3.09863h-0.85986v-2.84863c0-0.40918-0.02002-1.40918-0.99902-1.40918
					c-1.00977,0-1.16943,0.97949-1.16943,2.04883v2.20898h-0.85986v-2.82812c0-0.66992-0.18994-1.42969-1.01904-1.42969
					c-0.97949,0-1.14941,0.97949-1.14941,2.04883v2.20898H62.9292l-0.00977-4.92773h0.83936v0.61035
					c0.31006-0.50977,0.80957-0.7002,1.33936-0.7002c0.63965,0,1.1792,0.27051,1.44922,0.95996
					c0.33984-0.66992,0.89941-0.95996,1.60938-0.95996C69.33594,91.9826,69.8457,92.80292,69.8457,93.90155z"/>
				<path d="M71.35938,90.03436h0.95947v1.04883h-0.95947V90.03436z M71.40918,92.07245h0.85986v4.92773h-0.85986V92.07245z"/>
				<path d="M78.04688,93.93182v3.06836h-0.85986v-2.8584c0-0.81934-0.22998-1.39941-1.0293-1.39941
					c-0.98926,0-1.34912,0.90918-1.34912,2.12891v2.12891h-0.85986v-4.92773h0.85986v0.66992
					c0.32959-0.47949,0.90918-0.75977,1.5791-0.75977C77.4668,91.9826,78.04688,92.66229,78.04688,93.93182z"/>
				<path d="M83.39697,93.92206v3.07812h-0.78955l-0.06006-0.73926c-0.34961,0.5293-0.93945,0.8291-1.6792,0.8291
					c-1.05908,0-1.729-0.59961-1.729-1.54883c0-0.51953,0.22021-0.91992,0.61963-1.13965
					c0.37012-0.2002,0.85986-0.28027,1.68945-0.28027h1.08936v-0.19922c0-0.75977-0.41992-1.17969-1.16943-1.17969
					c-0.57959,0-1.04932,0.26953-1.43945,0.79004l-0.61963-0.52051c0.5498-0.69922,1.21924-1.0293,2.0791-1.0293
					C82.64746,91.9826,83.39697,92.70233,83.39697,93.92206z M82.5376,94.841v-0.0498h-0.98975
					c-0.74951,0-1.08936,0.06055-1.29932,0.21973c-0.15967,0.12988-0.24951,0.32031-0.24951,0.57031
					c0,0.47949,0.40967,0.78906,1.06934,0.78906C81.93799,96.3703,82.5376,95.75116,82.5376,94.841z"/>
				<path d="M85.9585,92.77264v2.9082c0,0.4502,0.22949,0.64941,0.61963,0.64941c0.16992,0,0.36963-0.04004,0.58936-0.10938v0.72949
					c-0.26953,0.08984-0.53955,0.13965-0.79932,0.13965c-0.70947,0-1.26953-0.38965-1.26953-1.31934v-2.99805h-0.80957v-0.7002
					h0.80957v-1.29883l0.85986-0.64941v1.94824h1.20898v0.7002H85.9585z"/>
				<path d="M92.33643,94.7912h-3.52783c0.02979,0.93945,0.55957,1.50977,1.46924,1.50977
					c0.49951,0,0.91943-0.14062,1.33936-0.58984l0.58936,0.5293c-0.55957,0.59961-1.15918,0.84961-1.93896,0.84961
					c-1.56885,0-2.31836-1.15918-2.31836-2.52832c0-1.35938,0.73926-2.5791,2.23877-2.5791
					c1.50879,0,2.17871,1.16992,2.17871,2.36914C92.3667,94.49139,92.35645,94.66132,92.33643,94.7912z M91.54688,94.09198
					c-0.00977-0.02051-0.00977-0.0498-0.00977-0.08984c-0.03027-0.75977-0.52979-1.2998-1.35938-1.2998
					c-0.83936,0-1.30908,0.64941-1.36914,1.38965H91.54688z"/>
				<path d="M97.28857,92.77264v2.9082c0,0.4502,0.22949,0.64941,0.61963,0.64941c0.16992,0,0.36963-0.04004,0.58936-0.10938
					v0.72949c-0.26953,0.08984-0.53955,0.13965-0.79932,0.13965c-0.70947,0-1.26953-0.38965-1.26953-1.31934v-2.99805h-0.80957
					v-0.7002h0.80957v-1.29883l0.85986-0.64941v1.94824h1.20898v0.7002H97.28857z"/>
				<path d="M99.67871,90.03436h0.95947v1.04883h-0.95947V90.03436z M99.72852,92.07245h0.85986v4.92773h-0.85986V92.07245z"/>
				<path d="M109.18506,93.90155v3.09863h-0.85986v-2.84863c0-0.40918-0.01953-1.40918-0.99902-1.40918
					c-1.00977,0-1.16943,0.97949-1.16943,2.04883v2.20898h-0.85986v-2.82812c0-0.66992-0.18945-1.42969-1.01904-1.42969
					c-0.97949,0-1.14941,0.97949-1.14941,2.04883v2.20898h-0.85986l-0.00977-4.92773h0.83936v0.61035
					c0.31006-0.50977,0.80957-0.7002,1.33936-0.7002c0.63965,0,1.1792,0.27051,1.44922,0.95996
					c0.33984-0.66992,0.89941-0.95996,1.60938-0.95996C108.67529,91.9826,109.18506,92.80292,109.18506,93.90155z"/>
				<path d="M114.73633,94.7912h-3.52783c0.02979,0.93945,0.55957,1.50977,1.46924,1.50977
					c0.49951,0,0.91943-0.14062,1.33936-0.58984l0.58936,0.5293c-0.55957,0.59961-1.15918,0.84961-1.93896,0.84961
					c-1.56885,0-2.31836-1.15918-2.31836-2.52832c0-1.35938,0.73926-2.5791,2.23877-2.5791
					c1.50879,0,2.17871,1.16992,2.17871,2.36914C114.7666,94.49139,114.75635,94.66132,114.73633,94.7912z M113.94678,94.09198
					c-0.00977-0.02051-0.00977-0.0498-0.00977-0.08984c-0.02979-0.75977-0.52979-1.2998-1.35938-1.2998
					c-0.83936,0-1.30908,0.64941-1.36914,1.38965H113.94678z"/>
			</g>
			<g enable-background="new    ">
				<path d="M123.33594,94.53143c0,1.46973-0.74951,2.54883-2.18896,2.54883c-0.71924,0-1.26904-0.28027-1.62891-0.73926v2.69824
					h-0.68945v-6.9668h0.68945v0.66016c0.36963-0.47949,0.92969-0.75,1.62891-0.75
					C122.5166,91.9826,123.33594,92.99237,123.33594,94.53143z M122.64648,94.53143c0-1.16895-0.59961-1.93848-1.59912-1.93848
					c-0.98975,0-1.58936,0.76953-1.58936,1.93848c0,1.11914,0.5498,1.93945,1.58936,1.93945
					C122.09668,96.47089,122.64648,95.65057,122.64648,94.53143z"/>
				<path d="M128.66602,94.72186h-3.60791c0.02002,1.0791,0.61963,1.72852,1.58936,1.72852
					c0.53955,0,0.96924-0.13965,1.41895-0.61914l0.47998,0.41895c-0.57959,0.61035-1.14941,0.83008-1.90918,0.83008
					c-1.49902,0-2.26855-1.11914-2.26855-2.51855c0-1.38965,0.75977-2.56836,2.18896-2.56836
					c1.50879,0,2.13867,1.17871,2.13867,2.29785C128.69629,94.43182,128.68604,94.60175,128.66602,94.72186z M125.05811,94.14178
					h2.97852c0-0.02051-0.01025-0.07031-0.01025-0.16016c-0.0498-0.7998-0.55957-1.40918-1.46875-1.40918
					C125.66797,92.57245,125.11816,93.27264,125.05811,94.14178z"/>
				<path d="M133.08643,92.20331l-0.33984,0.55957c-0.22949-0.10059-0.43945-0.15039-0.64941-0.15039
					c-0.75977,0-1.31934,0.56934-1.31934,1.63965v2.74805h-0.68945v-4.92773h0.68945v0.74023
					c0.35986-0.64941,0.95947-0.81934,1.45898-0.81934C132.53662,91.99335,132.81689,92.05292,133.08643,92.20331z"/>
				<path d="M134.04834,90.03436h0.79932v1.01953h-0.79932V90.03436z M134.1084,92.07245h0.68945v4.92773h-0.68945V92.07245z"/>
				<path d="M136.18799,94.53143c0-1.45898,0.94971-2.53809,2.35889-2.53809c1.39941,0,2.36865,1.0791,2.36865,2.53809
					c0,1.44922-0.95947,2.54883-2.36865,2.54883S136.18799,95.99042,136.18799,94.53143z M140.22607,94.53143
					c0-1.11914-0.62988-1.92871-1.6792-1.92871c-1.05957,0-1.66895,0.81934-1.66895,1.92871
					c0,1.11914,0.61963,1.93945,1.66895,1.93945C139.60645,96.47089,140.22607,95.63104,140.22607,94.53143z"/>
				<path d="M146.42578,90.03436v6.96582h-0.68994V96.341c-0.35938,0.45898-0.90918,0.73926-1.62891,0.73926
					c-1.43896,0-2.18896-1.0791-2.18896-2.54883c0-1.53906,0.81982-2.54883,2.18896-2.54883c0.69971,0,1.25928,0.27051,1.62891,0.75
					v-2.69824H146.42578z M145.7959,94.53143c0-1.16895-0.59961-1.93848-1.58887-1.93848
					c-0.99951,0-1.59912,0.76953-1.59912,1.93848c0,1.11914,0.5498,1.93945,1.59912,1.93945
					C145.24609,96.47089,145.7959,95.65057,145.7959,94.53143z"/>
			</g>
			<g>
				<path fill="none" stroke="#0D1B3A" stroke-width="0.25" stroke-miterlimit="10" d="M21.703,31.32202c0-2.75-2.70001-5-6-5
					h-1.95001l7.69965,6.41638C21.61334,32.28857,21.703,31.81384,21.703,31.32202z"/>
				<path fill="none" stroke="#0D1B3A" stroke-width="0.25" stroke-miterlimit="10" d="M0.703,31.32202c0,2.75,2.70001,5,6,5
					h2.84998l-8.36127-6.96771C0.8783,29.95917,0.703,30.62415,0.703,31.32202z"/>
				<path fill="none" stroke="#0D1B3A" stroke-width="0.25" stroke-miterlimit="10" d="M19.20776,35.36761
					c1.06061-0.64099,1.86298-1.56012,2.24487-2.62921l-7.69965-6.41638H8.35303L19.20776,35.36761z"/>
				<path fill="none" stroke="#0D1B3A" stroke-width="0.25" stroke-miterlimit="10" d="M6.703,26.32202
					c-1.07507,0-2.08392,0.24207-2.95905,0.65918L14.953,36.32202h0.75c1.30719,0,2.51642-0.35712,3.50476-0.95441L8.35303,26.32202
					H6.703z"/>
				<path fill="none" stroke="#0D1B3A" stroke-width="0.25" stroke-miterlimit="10" d="M1.19171,29.35431l8.36127,6.96771H14.953
					L3.74396,26.9812C2.61456,27.51947,1.711,28.35211,1.19171,29.35431z"/>
			</g>
		</g>
	</g>
</g>
</svg>
