<?xml version="1.0" encoding="utf-8"?>
<!-- Generator: Adobe Illustrator 24.3.0, SVG Export Plug-In . SVG Version: 6.00 Build 0)  -->
<svg version="1.1" id="Layer_1" xmlns="http://www.w3.org/2000/svg" xmlns:xlink="http://www.w3.org/1999/xlink" x="0px" y="0px"
	 width="250px" height="108px" viewBox="0 0 250 108" style="enable-background:new 0 0 250 108;" xml:space="preserve">
<style type="text/css">
	.st0{clip-path:url(#SVGID_2_);}
	.st1{opacity:0.355;fill:#FFD337;enable-background:new    ;}
	.st2{fill:none;stroke:#000000;stroke-width:0.5;}
	.st3{fill:none;stroke:#000000;stroke-width:0.5;stroke-miterlimit:10;}
	.st4{enable-background:new    ;}
	.st5{fill:none;}
</style>
<g>
	<defs>
		<rect id="SVGID_1_" y="0" width="250" height="108"/>
	</defs>
	<clipPath id="SVGID_2_">
		<use xlink:href="#SVGID_1_"  style="overflow:visible;"/>
	</clipPath>
	<g id="trasformare_Table_en" class="st0">
		<g id="table" transform="translate(-1.9 -0.8)">
			<rect id="Rectangle_18845" x="2.1" y="1.4" class="st1" width="66.2" height="19.1"/>
			<path id="Path_157235" class="st2" d="M1.9,108.6"/>
			<line id="Line_5884" class="st3" x1="1.9" y1="20.1" x2="251.7" y2="20.1"/>
			<line id="Line_5885" class="st3" x1="1.9" y1="55.7" x2="251.7" y2="55.7"/>
			<line id="Line_5886" class="st3" x1="1.9" y1="38.1" x2="251.7" y2="38.1"/>
			<line id="Line_5888" class="st3" x1="1.9" y1="91.3" x2="251.7" y2="91.3"/>
			<line id="Line_5889" class="st3" x1="1.9" y1="73.4" x2="251.7" y2="73.4"/>
			<line id="Line_5890" class="st3" x1="68.1" y1="0.8" x2="68.1" y2="108.8"/>
			<line id="Line_5891" class="st3" x1="114" y1="0.8" x2="114" y2="108.8"/>
			<line id="Line_5892" class="st3" x1="159.9" y1="0.8" x2="159.9" y2="108.8"/>
			<line id="Line_5893" class="st3" x1="205.9" y1="0.8" x2="205.9" y2="108.8"/>
			<g class="st4">
				<path d="M6.3,4h1.5c0.9,0,1.6,0.5,1.6,1.4c0,0.6-0.4,1.1-1,1.3l1.3,2.2H8.9L7.7,6.7H7v2.1H6.3V4z M7.9,6.1
					c0.5,0,0.8-0.3,0.8-0.7c0-0.5-0.4-0.8-0.9-0.8H7v1.5H7.9z"/>
				<path d="M10.6,4h3.2v0.6h-2.5v1.5h2.2v0.6h-2.2v1.5h2.5v0.6h-3.2V4z"/>
				<path d="M14.5,6.4c0-1.3,0.7-2.5,2.3-2.5c0.9,0,1.7,0.4,2,1.3l-0.6,0.3c-0.2-0.7-0.8-0.9-1.4-0.9c-1.1,0-1.6,0.8-1.6,1.8
					c0,1,0.5,1.9,1.6,1.9c0.6,0,1.1-0.2,1.4-1l0.6,0.3c-0.4,0.9-1.1,1.3-2,1.3C15.2,8.9,14.5,7.8,14.5,6.4z"/>
				<path d="M19.5,7V4h0.7v2.9c0,0.8,0.2,1.4,1.1,1.4s1.1-0.5,1.1-1.4V4h0.7v3c0,1.1-0.5,1.9-1.8,1.9S19.5,8.1,19.5,7z"/>
				<path d="M24.3,4h1.5c0.9,0,1.6,0.5,1.6,1.4c0,0.6-0.4,1.1-1,1.3l1.3,2.2h-0.8l-1.2-2.1H25v2.1h-0.7V4z M25.9,6.1
					c0.5,0,0.8-0.3,0.8-0.7c0-0.5-0.4-0.8-0.9-0.8H25v1.5H25.9z"/>
				<path d="M28.5,4H30c0.9,0,1.6,0.5,1.6,1.4c0,0.6-0.4,1.1-1,1.3l1.3,2.2h-0.8l-1.2-2.1h-0.7v2.1h-0.7V4z M30.1,6.1
					c0.5,0,0.8-0.3,0.8-0.7c0-0.5-0.4-0.8-0.9-0.8h-0.8v1.5H30.1z"/>
				<path d="M32.8,4h0.7v4.8h-0.7V4z"/>
				<path d="M34.8,4h0.8l2.1,3.8V4h0.7v4.8h-0.8l-2-3.9v3.9h-0.7V4z"/>
				<path d="M39.4,6.4c0-1.3,0.7-2.5,2.2-2.5c0.9,0,1.7,0.5,2,1.3l-0.6,0.3c-0.3-0.6-0.8-1-1.4-1c-1.1,0-1.5,0.9-1.5,1.8
					c0,1,0.5,1.9,1.6,1.9c0.8,0,1.4-0.5,1.4-1.4H42V6.3h1.8v2.5h-0.6l0-0.8c-0.2,0.5-0.8,0.9-1.5,0.9C40.1,8.9,39.4,7.8,39.4,6.4z"
					/>
			</g>
			<g class="st4">
				<path d="M6.3,11.9H7v4.2h2.1v0.6H6.3V11.9z"/>
				<path d="M9.4,14.3c0-1.3,0.7-2.5,2.2-2.5c1.5,0,2.2,1.2,2.2,2.5c0,1.3-0.7,2.5-2.2,2.5C10.1,16.8,9.4,15.6,9.4,14.3z M13.2,14.3
					c0-1-0.4-1.9-1.5-1.9c-1.1,0-1.5,0.9-1.5,1.9c0,1,0.4,1.9,1.5,1.9C12.7,16.1,13.2,15.3,13.2,14.3z"/>
				<path d="M14.6,14.3c0-1.3,0.7-2.5,2.3-2.5c0.9,0,1.7,0.4,2,1.3l-0.6,0.3c-0.2-0.7-0.8-0.9-1.4-0.9c-1.1,0-1.6,0.8-1.6,1.8
					c0,1,0.5,1.9,1.6,1.9c0.6,0,1.1-0.2,1.4-1l0.6,0.3c-0.4,0.9-1.1,1.3-2,1.3C15.3,16.8,14.6,15.6,14.6,14.3z"/>
				<path d="M20.9,11.9h0.5l1.9,4.8h-0.7l-0.4-1h-2l-0.4,1h-0.8L20.9,11.9z M22,15l-0.8-2.1L20.4,15H22z"/>
				<path d="M24.7,12.5h-1.6v-0.6H27v0.6h-1.6v4.2h-0.7V12.5z"/>
				<path d="M27.8,11.9h0.7v4.8h-0.7V11.9z"/>
				<path d="M29.5,14.3c0-1.3,0.7-2.5,2.2-2.5c1.5,0,2.2,1.2,2.2,2.5c0,1.3-0.7,2.5-2.2,2.5C30.2,16.8,29.5,15.6,29.5,14.3z
					 M33.3,14.3c0-1-0.4-1.9-1.5-1.9c-1.1,0-1.5,0.9-1.5,1.9c0,1,0.4,1.9,1.5,1.9C32.9,16.1,33.3,15.3,33.3,14.3z"/>
				<path d="M35,11.9h0.8l2.1,3.8v-3.8h0.7v4.8h-0.8l-2-3.9v3.9H35V11.9z"/>
				<path d="M39.5,15.4l0.7-0.2c0.1,0.6,0.5,0.9,1.1,0.9c0.6,0,0.9-0.3,0.9-0.7c0-1.1-2.3-0.8-2.3-2.3c0-0.8,0.6-1.3,1.4-1.3
					c0.6,0,1.1,0.2,1.4,0.8l-0.6,0.4c-0.2-0.4-0.5-0.5-0.9-0.5c-0.4,0-0.7,0.2-0.7,0.6c0,1,2.3,0.7,2.3,2.3c0,0.9-0.7,1.4-1.6,1.4
					C40.4,16.8,39.6,16.3,39.5,15.4z"/>
			</g>
			<g class="st4">
				<path d="M7.6,98h0.8l2.1,3.8V98h0.7v4.8h-0.8l-2-3.9v3.9H7.6V98z"/>
				<path d="M12,101.2c0-0.9,0.5-1.8,1.6-1.8c1.2,0,1.5,0.9,1.5,1.7c0,0.1,0,0.2,0,0.3h-2.4c0,0.5,0.3,1,0.9,1
					c0.4,0,0.6-0.1,0.9-0.4l0.5,0.4c-0.4,0.4-0.8,0.6-1.4,0.6C12.6,102.9,12,102.1,12,101.2z M14.5,100.9c0-0.5-0.3-0.9-0.9-0.9
					c-0.6,0-0.8,0.4-0.9,0.9H14.5z"/>
				<path d="M15.4,99.4h0.7l0.6,2.5l0.7-2.5h0.6l0.7,2.5l0.6-2.5h0.7l-1,3.4h-0.6l-0.7-2.5l-0.7,2.5h-0.6L15.4,99.4z"/>
				<path d="M23.9,101L22.1,98H23l1.3,2.3l1.3-2.3h0.8l-1.8,2.9v1.9h-0.7V101z"/>
				<path d="M26.1,101.1c0-1,0.7-1.8,1.7-1.8c1,0,1.7,0.8,1.7,1.8c0,1-0.7,1.8-1.7,1.8C26.8,102.9,26.1,102.1,26.1,101.1z
					 M28.8,101.1c0-0.6-0.3-1.2-1-1.2c-0.7,0-1,0.6-1,1.2c0,0.6,0.3,1.2,1,1.2C28.5,102.4,28.8,101.8,28.8,101.1z"/>
				<path d="M30.2,99.4h0.6v0.6c0.2-0.4,0.6-0.7,1-0.7c0.2,0,0.4,0.1,0.6,0.2l-0.3,0.6c-0.1-0.1-0.2-0.1-0.4-0.1
					c-0.5,0-0.9,0.4-0.9,1.3v1.6h-0.6V99.4z"/>
				<path d="M33,98h0.7v3.1l1.4-1.6h0.8l-1.2,1.3l1.4,2.1h-0.8l-1-1.7l-0.6,0.7v1H33V98z"/>
			</g>
			<g class="st4">
				<path d="M7.6,80H9c1,0,1.6,0.5,1.6,1.4c0,0.9-0.7,1.4-1.6,1.4H8.3v2.1H7.6V80z M9,82.1c0.6,0,0.9-0.2,0.9-0.7
					c0-0.5-0.3-0.7-0.9-0.7H8.3v1.5H9z"/>
				<path d="M10.9,83.8c0-0.7,0.6-1,1.4-1h0.8c0-0.5-0.2-0.9-0.8-0.9c-0.4,0-0.7,0.3-0.9,0.5L11.1,82c0.3-0.4,0.7-0.7,1.4-0.7
					c0.9,0,1.4,0.6,1.4,1.4v2.1h-0.6l0-0.6c-0.3,0.5-0.7,0.6-1.1,0.6C11.4,84.9,10.9,84.5,10.9,83.8z M13.2,83.3h-0.8
					c-0.5,0-0.8,0.2-0.8,0.5c0,0.3,0.2,0.5,0.6,0.5C12.8,84.3,13.2,83.8,13.2,83.3z"/>
				<path d="M14.8,81.4h0.6V82c0.2-0.4,0.6-0.7,1-0.7c0.2,0,0.4,0.1,0.6,0.2l-0.3,0.6C16.6,82,16.5,82,16.3,82
					c-0.5,0-0.9,0.4-0.9,1.3v1.6h-0.6V81.4z"/>
				<path d="M17.5,80h0.7v0.7h-0.7V80z M17.6,81.4h0.7v3.4h-0.7V81.4z"/>
				<path d="M18.9,84l0.5-0.3c0.1,0.3,0.3,0.6,0.8,0.6c0.4,0,0.6-0.2,0.6-0.5c0-0.8-1.8-0.3-1.8-1.5c0-0.7,0.6-1,1.2-1
					c0.6,0,1,0.3,1.2,0.7L21,82.3c-0.1-0.3-0.4-0.5-0.7-0.5c-0.3,0-0.5,0.2-0.5,0.4c0,0.7,1.8,0.3,1.8,1.5c0,0.7-0.6,1.1-1.2,1.1
					C19.6,84.9,19.1,84.5,18.9,84z"/>
			</g>
			<g class="st4">
				<path d="M7.1,30.5l0.7-0.2c0.1,0.6,0.5,0.9,1.1,0.9c0.6,0,0.9-0.3,0.9-0.7c0-1.1-2.3-0.8-2.3-2.3c0-0.8,0.6-1.3,1.4-1.3
					c0.6,0,1.1,0.2,1.4,0.8L9.7,28c-0.2-0.4-0.5-0.5-0.9-0.5c-0.4,0-0.7,0.2-0.7,0.6c0,1,2.3,0.7,2.3,2.3c0,0.9-0.7,1.4-1.6,1.4
					C8.1,31.9,7.3,31.4,7.1,30.5z"/>
				<path d="M10.9,30.8c0-0.7,0.6-1,1.4-1h0.8c0-0.5-0.2-0.9-0.8-0.9c-0.4,0-0.7,0.3-0.9,0.5L11.1,29c0.3-0.4,0.7-0.7,1.4-0.7
					c0.9,0,1.4,0.6,1.4,1.4v2.1h-0.6l0-0.6c-0.3,0.5-0.7,0.6-1.1,0.6C11.4,31.9,10.9,31.5,10.9,30.8z M13.2,30.3h-0.8
					c-0.5,0-0.8,0.2-0.8,0.5c0,0.3,0.2,0.5,0.6,0.5C12.8,31.3,13.2,30.8,13.2,30.3z"/>
				<path d="M14.8,28.4h0.7v0.5c0.2-0.4,0.6-0.6,1.1-0.6c0.9,0,1.2,0.7,1.2,1.4v2.1h-0.7v-2c0-0.5-0.2-0.9-0.7-0.9
					c-0.5,0-0.9,0.3-0.9,1.1v1.8h-0.7V28.4z"/>
				<path d="M18.7,28.4h0.6V29c0.2-0.4,0.6-0.7,1-0.7c0.2,0,0.4,0.1,0.6,0.2l-0.3,0.6C20.5,29,20.4,29,20.2,29
					c-0.5,0-0.9,0.4-0.9,1.3v1.6h-0.6V28.4z"/>
				<path d="M21,30.1c0-0.9,0.5-1.8,1.6-1.8c1.2,0,1.5,0.9,1.5,1.7c0,0.1,0,0.2,0,0.3h-2.4c0,0.5,0.3,1,0.9,1c0.4,0,0.6-0.1,0.9-0.4
					l0.5,0.4c-0.4,0.4-0.8,0.6-1.4,0.6C21.5,31.9,21,31,21,30.1z M23.4,29.8c0-0.5-0.3-0.9-0.9-0.9c-0.6,0-0.8,0.4-0.9,0.9H23.4z"/>
				<path d="M24.8,28.4h0.7v0.4c0.2-0.3,0.5-0.5,0.9-0.5c0.5,0,0.8,0.2,1,0.7c0.2-0.4,0.6-0.7,1.1-0.7c0.9,0,1.2,0.7,1.2,1.4v2.1H29
					v-2c0-0.4-0.1-0.9-0.6-0.9c-0.5,0-0.8,0.5-0.8,1v1.9h-0.7v-2c0-0.4-0.1-0.9-0.6-0.9s-0.8,0.5-0.8,1.1v1.8h-0.7V28.4z"/>
				<path d="M30.4,30.1c0-1,0.7-1.8,1.7-1.8c1,0,1.7,0.8,1.7,1.8c0,1-0.7,1.8-1.7,1.8C31.1,31.9,30.4,31.1,30.4,30.1z M33.1,30.1
					c0-0.6-0.3-1.2-1-1.2c-0.7,0-1,0.6-1,1.2c0,0.6,0.3,1.2,1,1.2C32.8,31.3,33.1,30.7,33.1,30.1z"/>
			</g>
			<g class="st4">
				<path d="M7.6,62H9c0.9,0,1.6,0.5,1.6,1.4c0,0.6-0.4,1.1-1,1.3l1.3,2.2h-0.8L9,64.7H8.3v2.1H7.6V62z M9.1,64.1
					c0.5,0,0.8-0.3,0.8-0.7c0-0.5-0.4-0.8-0.9-0.8H8.3v1.5H9.1z"/>
				<path d="M11.3,65.1c0-1,0.7-1.8,1.7-1.8c1,0,1.7,0.8,1.7,1.8c0,1-0.7,1.8-1.7,1.8C11.9,66.9,11.3,66.1,11.3,65.1z M13.9,65.1
					c0-0.6-0.3-1.2-1-1.2c-0.7,0-1,0.6-1,1.2c0,0.6,0.3,1.2,1,1.2C13.6,66.3,13.9,65.7,13.9,65.1z"/>
				<path d="M15.4,63.4h0.7v0.4c0.2-0.3,0.5-0.5,0.9-0.5c0.5,0,0.8,0.2,1,0.7c0.2-0.4,0.6-0.7,1.1-0.7c0.9,0,1.2,0.7,1.2,1.4v2.1
					h-0.7v-2c0-0.4-0.1-0.9-0.6-0.9c-0.5,0-0.8,0.5-0.8,1v1.9h-0.7v-2c0-0.4-0.1-0.9-0.6-0.9s-0.8,0.5-0.8,1.1v1.8h-0.7V63.4z"/>
				<path d="M21,65.1c0-0.9,0.5-1.8,1.6-1.8c1.2,0,1.5,0.9,1.5,1.7c0,0.1,0,0.2,0,0.3h-2.4c0,0.5,0.3,1,0.9,1c0.4,0,0.6-0.1,0.9-0.4
					l0.5,0.4c-0.4,0.4-0.8,0.6-1.4,0.6C21.5,66.9,21,66,21,65.1z M23.4,64.8c0-0.5-0.3-0.9-0.9-0.9c-0.6,0-0.8,0.4-0.9,0.9H23.4z"/>
			</g>
			<g class="st4">
				<path d="M8.6,45.4H7v-0.6h3.8v0.6H9.3v4.2H8.6V45.4z"/>
				<path d="M10.9,48.1v-1.9h0.7v1.9c0,0.5,0.1,1,0.7,1c0.5,0,0.9-0.4,0.9-1.2v-1.7h0.7v3.4h-0.7v-0.5c-0.2,0.3-0.6,0.6-1,0.6
					C11.2,49.7,10.9,49.1,10.9,48.1z"/>
				<path d="M14.9,46.2h0.6v0.6c0.2-0.4,0.6-0.7,1-0.7c0.2,0,0.4,0.1,0.6,0.2l-0.3,0.6c-0.1-0.1-0.2-0.1-0.4-0.1
					c-0.5,0-0.9,0.4-0.9,1.3v1.6h-0.6V46.2z"/>
				<path d="M17.6,44.8h0.7v0.7h-0.7V44.8z M17.6,46.2h0.7v3.4h-0.7V46.2z"/>
				<path d="M19.4,46.2H20v0.5c0.2-0.4,0.6-0.6,1.1-0.6c0.9,0,1.2,0.7,1.2,1.4v2.1h-0.7v-2c0-0.5-0.2-0.9-0.7-0.9
					c-0.5,0-0.9,0.3-0.9,1.1v1.8h-0.7V46.2z"/>
			</g>
			<g class="st4">
				<path d="M73.8,8.4h-1.3V7.8h0.8c0.4,0,0.6-0.2,0.6-0.6V7.2h0.6V12h-0.7V8.4z"/>
				<path d="M78.2,10.3c-0.1,0-0.2,0-0.3,0c-0.9,0-1.7-0.7-1.7-1.6c0-0.9,0.7-1.7,1.7-1.7c0.9,0,1.7,0.7,1.7,1.6
					c0,0.3-0.1,0.6-0.2,0.8L77.9,12h-0.8L78.2,10.3z M78.9,8.7c0-0.6-0.4-1-1-1c-0.6,0-1,0.5-1,1s0.4,1,1,1
					C78.4,9.8,78.9,9.3,78.9,8.7z"/>
				<path d="M82.2,10.8H80v-0.4l2.3-3.2h0.6v3h0.8v0.6h-0.8V12h-0.7V10.8z M82.2,10.2V8.2l-1.4,1.9H82.2z"/>
				<path d="M84.2,10.7l0.6-0.2c0.1,0.5,0.4,1,1,1c0.6,0,1-0.5,1-1.1c0-0.5-0.3-1-1-1c-0.4,0-0.7,0.2-0.9,0.5l-0.6-0.2l0.4-2.5h2.5
					v0.6h-2L85.1,9c0.3-0.2,0.6-0.3,0.9-0.3c0.9,0,1.6,0.7,1.6,1.6c0,0.9-0.7,1.7-1.7,1.7C85,12.1,84.4,11.4,84.2,10.7z"/>
				<path d="M89.8,9.6h1.9v0.5h-1.9V9.6z"/>
				<path d="M95.6,8.4h-1.3V7.8h0.8c0.4,0,0.6-0.2,0.6-0.6V7.2h0.6V12h-0.7V8.4z"/>
				<path d="M99.9,10.3c-0.1,0-0.2,0-0.3,0c-0.9,0-1.7-0.7-1.7-1.6c0-0.9,0.7-1.7,1.7-1.7c0.9,0,1.7,0.7,1.7,1.6
					c0,0.3-0.1,0.6-0.2,0.8L99.6,12h-0.8L99.9,10.3z M100.6,8.7c0-0.6-0.4-1-1-1c-0.6,0-1,0.5-1,1s0.4,1,1,1
					C100.2,9.8,100.6,9.3,100.6,8.7z"/>
				<path d="M102,10.7l0.6-0.2c0.1,0.5,0.4,1,1,1c0.6,0,1-0.5,1-1.1c0-0.5-0.3-1-1-1c-0.4,0-0.7,0.2-0.9,0.5l-0.6-0.2l0.4-2.5h2.5
					v0.6h-2L102.9,9c0.3-0.2,0.6-0.3,0.9-0.3c0.9,0,1.6,0.7,1.6,1.6c0,0.9-0.7,1.7-1.7,1.7C102.8,12.1,102.1,11.4,102,10.7z"/>
				<path d="M106,10.7l0.6-0.2c0.1,0.5,0.4,1,1,1c0.6,0,1-0.5,1-1.1c0-0.5-0.3-1-1-1c-0.4,0-0.7,0.2-0.9,0.5l-0.6-0.2l0.4-2.5h2.5
					v0.6h-2L106.9,9c0.3-0.2,0.6-0.3,0.9-0.3c0.9,0,1.6,0.7,1.6,1.6c0,0.9-0.7,1.7-1.7,1.7C106.8,12.1,106.1,11.4,106,10.7z"/>
			</g>
			<g class="st4">
				<path d="M119.8,8.4h-1.3V7.8h0.8c0.4,0,0.6-0.2,0.6-0.6V7.2h0.6V12h-0.7V8.4z"/>
				<path d="M124.2,10.3c-0.1,0-0.2,0-0.3,0c-0.9,0-1.7-0.7-1.7-1.6c0-0.9,0.7-1.7,1.7-1.7c0.9,0,1.7,0.7,1.7,1.6
					c0,0.3-0.1,0.6-0.2,0.8l-1.4,2.4h-0.8L124.2,10.3z M124.9,8.7c0-0.6-0.4-1-1-1c-0.6,0-1,0.5-1,1s0.4,1,1,1
					C124.4,9.8,124.9,9.3,124.9,8.7z"/>
				<path d="M126.2,10.7l0.6-0.2c0.1,0.5,0.4,1,1,1c0.6,0,1-0.5,1-1.1c0-0.5-0.3-1-1-1c-0.4,0-0.7,0.2-0.9,0.5l-0.6-0.2l0.4-2.5h2.5
					v0.6h-2L127.1,9c0.3-0.2,0.6-0.3,0.9-0.3c0.9,0,1.6,0.7,1.6,1.6c0,0.9-0.7,1.7-1.7,1.7C127,12.1,126.4,11.4,126.2,10.7z"/>
				<path d="M130.2,10.4c0-0.3,0.1-0.6,0.2-0.8l1.4-2.4h0.8l-1.1,1.7c0.1,0,0.2,0,0.3,0c0.9,0,1.7,0.7,1.7,1.6
					c0,0.9-0.7,1.7-1.7,1.7C131,12.1,130.2,11.3,130.2,10.4z M132.9,10.4c0-0.6-0.5-1-1-1c-0.6,0-1,0.5-1,1c0,0.6,0.4,1,1,1
					C132.5,11.4,132.9,11,132.9,10.4z"/>
				<path d="M135.8,9.6h1.9v0.5h-1.9V9.6z"/>
				<path d="M141.6,8.4h-1.3V7.8h0.8c0.4,0,0.6-0.2,0.6-0.6V7.2h0.6V12h-0.7V8.4z"/>
				<path d="M145.9,10.3c-0.1,0-0.2,0-0.3,0c-0.9,0-1.7-0.7-1.7-1.6c0-0.9,0.7-1.7,1.7-1.7c0.9,0,1.7,0.7,1.7,1.6
					c0,0.3-0.1,0.6-0.2,0.8l-1.4,2.4h-0.8L145.9,10.3z M146.6,8.7c0-0.6-0.4-1-1-1c-0.6,0-1,0.5-1,1s0.4,1,1,1
					C146.2,9.8,146.6,9.3,146.6,8.7z"/>
				<path d="M148,10.4c0-0.3,0.1-0.6,0.2-0.8l1.4-2.4h0.8l-1.1,1.7c0.1,0,0.2,0,0.3,0c0.9,0,1.7,0.7,1.7,1.6c0,0.9-0.7,1.7-1.7,1.7
					C148.7,12.1,148,11.3,148,10.4z M150.6,10.4c0-0.6-0.5-1-1-1c-0.6,0-1,0.5-1,1c0,0.6,0.4,1,1,1C150.2,11.4,150.6,11,150.6,10.4z
					"/>
				<path d="M151.9,10.7l0.6-0.2c0.1,0.5,0.4,1,1,1c0.6,0,1-0.5,1-1.1c0-0.5-0.3-1-1-1c-0.4,0-0.7,0.2-0.9,0.5l-0.6-0.2l0.4-2.5h2.5
					v0.6h-2L152.9,9c0.3-0.2,0.6-0.3,0.9-0.3c0.9,0,1.6,0.7,1.6,1.6c0,0.9-0.7,1.7-1.7,1.7C152.7,12.1,152.1,11.4,151.9,10.7z"/>
			</g>
			<g class="st4">
				<path d="M165.8,8.4h-1.3V7.8h0.8c0.4,0,0.6-0.2,0.6-0.6V7.2h0.6V12h-0.7V8.4z"/>
				<path d="M170.2,10.3c-0.1,0-0.2,0-0.3,0c-0.9,0-1.7-0.7-1.7-1.6c0-0.9,0.7-1.7,1.7-1.7c0.9,0,1.7,0.7,1.7,1.6
					c0,0.3-0.1,0.6-0.2,0.8l-1.4,2.4h-0.8L170.2,10.3z M170.9,8.7c0-0.6-0.4-1-1-1c-0.5,0-1,0.5-1,1s0.4,1,1,1
					C170.4,9.8,170.9,9.3,170.9,8.7z"/>
				<path d="M172.2,10.4c0-0.3,0.1-0.6,0.2-0.8l1.4-2.4h0.8l-1.1,1.7c0.1,0,0.2,0,0.3,0c0.9,0,1.7,0.7,1.7,1.6
					c0,0.9-0.7,1.7-1.7,1.7C173,12.1,172.2,11.3,172.2,10.4z M174.9,10.4c0-0.6-0.5-1-1-1c-0.6,0-1,0.5-1,1c0,0.6,0.4,1,1,1
					C174.5,11.4,174.9,11,174.9,10.4z"/>
				<path d="M176.2,10.4c0-0.3,0.1-0.6,0.2-0.8l1.4-2.4h0.8l-1.1,1.7c0.1,0,0.2,0,0.3,0c0.9,0,1.7,0.7,1.7,1.6
					c0,0.9-0.7,1.7-1.7,1.7C177,12.1,176.2,11.3,176.2,10.4z M178.9,10.4c0-0.6-0.5-1-1-1c-0.6,0-1,0.5-1,1c0,0.6,0.4,1,1,1
					C178.5,11.4,178.9,11,178.9,10.4z"/>
				<path d="M181.8,9.6h1.9v0.5h-1.9V9.6z"/>
				<path d="M187.6,8.4h-1.3V7.8h0.8c0.4,0,0.6-0.2,0.6-0.6V7.2h0.6V12h-0.7V8.4z"/>
				<path d="M191.9,10.3c-0.1,0-0.2,0-0.3,0c-0.9,0-1.7-0.7-1.7-1.6c0-0.9,0.7-1.7,1.7-1.7c0.9,0,1.7,0.7,1.7,1.6
					c0,0.3-0.1,0.6-0.2,0.8l-1.4,2.4h-0.8L191.9,10.3z M192.6,8.7c0-0.6-0.4-1-1-1c-0.6,0-1,0.5-1,1s0.4,1,1,1
					C192.2,9.8,192.6,9.3,192.6,8.7z"/>
				<path d="M196.5,7.8H194V7.2h3.3v0.3l-2.1,4.5h-0.8L196.5,7.8z"/>
				<path d="M197.9,10.7l0.6-0.2c0.1,0.5,0.4,1,1,1c0.6,0,1-0.5,1-1.1c0-0.5-0.3-1-1-1c-0.4,0-0.7,0.2-0.9,0.5l-0.6-0.2l0.4-2.5h2.5
					v0.6h-2L198.8,9c0.3-0.2,0.6-0.3,0.9-0.3c0.9,0,1.6,0.7,1.6,1.6c0,0.9-0.7,1.7-1.7,1.7C198.7,12.1,198.1,11.4,197.9,10.7z"/>
			</g>
			<g class="st4">
				<path d="M211.8,8.4h-1.3V7.8h0.8c0.4,0,0.6-0.2,0.6-0.6V7.2h0.6V12h-0.7V8.4z"/>
				<path d="M216.2,10.3c-0.1,0-0.2,0-0.3,0c-0.9,0-1.7-0.7-1.7-1.6c0-0.9,0.7-1.7,1.7-1.7c0.9,0,1.7,0.7,1.7,1.6
					c0,0.3-0.1,0.6-0.2,0.8l-1.4,2.4h-0.8L216.2,10.3z M216.9,8.7c0-0.6-0.4-1-1-1c-0.5,0-1,0.5-1,1s0.4,1,1,1
					C216.4,9.8,216.9,9.3,216.9,8.7z"/>
				<path d="M220.8,7.8h-2.5V7.2h3.3v0.3l-2.1,4.5h-0.8L220.8,7.8z"/>
				<path d="M222.2,10.4c0-0.3,0.1-0.6,0.2-0.8l1.4-2.4h0.8l-1.1,1.7c0.1,0,0.2,0,0.3,0c0.9,0,1.7,0.7,1.7,1.6
					c0,0.9-0.7,1.7-1.7,1.7C223,12.1,222.2,11.3,222.2,10.4z M224.9,10.4c0-0.6-0.5-1-1-1c-0.6,0-1,0.5-1,1c0,0.6,0.4,1,1,1
					C224.5,11.4,224.9,11,224.9,10.4z"/>
				<path d="M227.8,9.6h1.9v0.5h-1.9V9.6z"/>
				<path d="M233.6,8.4h-1.3V7.8h0.8c0.4,0,0.6-0.2,0.6-0.6V7.2h0.6V12h-0.7V8.4z"/>
				<path d="M237.9,10.3c-0.1,0-0.2,0-0.3,0c-0.9,0-1.7-0.7-1.7-1.6c0-0.9,0.7-1.7,1.7-1.7c0.9,0,1.7,0.7,1.7,1.6
					c0,0.3-0.1,0.6-0.2,0.8l-1.4,2.4h-0.8L237.9,10.3z M238.6,8.7c0-0.6-0.4-1-1-1c-0.6,0-1,0.5-1,1s0.4,1,1,1
					C238.2,9.8,238.6,9.3,238.6,8.7z"/>
				<path d="M239.9,10.6c0-0.6,0.3-1,0.8-1.2c-0.3-0.2-0.5-0.6-0.5-1c0-0.8,0.7-1.3,1.5-1.3c0.8,0,1.5,0.5,1.5,1.3
					c0,0.4-0.2,0.8-0.5,1c0.5,0.2,0.8,0.7,0.8,1.2c0,1-0.8,1.4-1.7,1.4C240.7,12.1,239.9,11.6,239.9,10.6z M242.6,10.6
					c0-0.6-0.5-0.9-1-0.9c-0.6,0-1,0.3-1,0.9c0,0.6,0.5,0.9,1,0.9C242.2,11.5,242.6,11.2,242.6,10.6z M242.4,8.4
					c0-0.5-0.4-0.7-0.8-0.7c-0.4,0-0.8,0.2-0.8,0.7c0,0.5,0.3,0.8,0.8,0.8C242.1,9.2,242.4,8.9,242.4,8.4z"/>
				<path d="M246,10.8h-2.2v-0.4l2.3-3.2h0.6v3h0.8v0.6h-0.8V12H246V10.8z M246,10.2V8.2l-1.4,1.9H246z"/>
			</g>
			<g class="st4">
				<path d="M227.1,99.8c0-1.1,0.4-2.5,1.7-2.5c1.2,0,1.8,1.2,1.8,2.5c0,1.2-0.6,2.5-1.7,2.5C227.6,102.3,227.1,100.9,227.1,99.8z
					 M230.1,99.8c0-0.8-0.3-2-1.2-2c-0.9,0-1.2,1.1-1.2,2c0,0.8,0.3,2,1.2,2C229.8,101.8,230.1,100.6,230.1,99.8z"/>
			</g>
			<g class="st4">
				<path d="M88.1,98.8c0-1.1,0.4-2.5,1.7-2.5c1.2,0,1.8,1.2,1.8,2.5c0,1.2-0.6,2.5-1.7,2.5C88.6,101.3,88.1,99.9,88.1,98.8z
					 M91.1,98.8c0-0.8-0.3-2-1.2-2c-0.9,0-1.2,1.1-1.2,2c0,0.8,0.3,2,1.2,2C90.8,100.8,91.1,99.6,91.1,98.8z"/>
			</g>
			<g class="st4">
				<path d="M134.1,99.8c0-1.1,0.4-2.5,1.7-2.5c1.2,0,1.8,1.2,1.8,2.5c0,1.2-0.6,2.5-1.7,2.5C134.6,102.3,134.1,100.9,134.1,99.8z
					 M137.1,99.8c0-0.8-0.3-2-1.2-2c-0.9,0-1.2,1.1-1.2,2c0,0.8,0.3,2,1.2,2C136.8,101.8,137.1,100.6,137.1,99.8z"/>
			</g>
			<g class="st4">
				<path d="M184.3,100.4c-0.1,0-0.3,0-0.4,0c-0.9,0-1.6-0.7-1.6-1.5c0-0.9,0.7-1.6,1.6-1.6c0.9,0,1.6,0.7,1.6,1.6
					c0,0.3-0.1,0.6-0.2,0.8l-1.4,2.5h-0.6L184.3,100.4z M184.9,98.9c0-0.6-0.5-1.1-1.1-1.1s-1.1,0.5-1.1,1.1c0,0.6,0.5,1.1,1.1,1.1
					S184.9,99.6,184.9,98.9z"/>
			</g>
			<g class="st4">
				<path d="M225.2,84.3c0.8-0.5,1.2-0.9,1.6-1.3c0.5-0.6,0.9-1.1,0.9-1.7c0-0.6-0.3-0.9-0.8-0.9c-0.6,0-0.9,0.5-1,1.2l-0.5-0.1
					c0-1,0.6-1.6,1.5-1.6c0.9,0,1.4,0.6,1.4,1.4c0,0.7-0.4,1.4-1.1,2.1c-0.6,0.6-0.9,0.8-1.2,1h2.6v0.5h-3.3V84.3z"/>
				<path d="M229.1,82.4c0-1.1,0.4-2.5,1.7-2.5c1.2,0,1.8,1.2,1.8,2.5c0,1.2-0.6,2.5-1.7,2.5C229.5,84.9,229.1,83.5,229.1,82.4z
					 M232,82.4c0-0.8-0.3-2-1.2-2c-0.9,0-1.2,1.1-1.2,2c0,0.8,0.3,2,1.2,2C231.7,84.4,232,83.2,232,82.4z"/>
			</g>
			<g class="st4">
				<path d="M89.9,81.1h-1.3v-0.4h0.7c0.4,0,0.6-0.3,0.6-0.6V80h0.5v4.8h-0.5V81.1z"/>
			</g>
			<g class="st4">
				<path d="M136.3,83.5h-2.2v-0.3l2.3-3.2h0.5V83h0.8v0.5h-0.8v1.3h-0.5V83.5z M136.3,83v-2.2l-1.6,2.2H136.3z"/>
			</g>
			<g class="st4">
				<path d="M181.9,81.1h-1.3v-0.4h0.7c0.4,0,0.6-0.3,0.6-0.6V80h0.5v4.8h-0.5V81.1z"/>
				<path d="M184.1,84.3c0.8-0.5,1.2-0.9,1.6-1.3c0.5-0.6,0.9-1.1,0.9-1.7c0-0.6-0.3-0.9-0.8-0.9c-0.6,0-0.9,0.5-1,1.2l-0.5-0.1
					c0-1,0.6-1.6,1.5-1.6c0.9,0,1.4,0.6,1.4,1.4c0,0.7-0.4,1.4-1.1,2.1c-0.6,0.6-0.9,0.8-1.2,1h2.6v0.5h-3.3V84.3z"/>
			</g>
			<g class="st4">
				<path d="M227.3,64.5c0-0.6,0.3-1,0.9-1.3c-0.4-0.2-0.6-0.6-0.6-1.1c0-0.8,0.6-1.2,1.4-1.2c0.7,0,1.4,0.5,1.4,1.2
					c0,0.4-0.2,0.8-0.6,1.1c0.5,0.2,0.8,0.7,0.8,1.3c0,0.9-0.7,1.4-1.6,1.4C228,65.9,227.3,65.4,227.3,64.5z M230,64.4
					c0-0.6-0.5-1-1.1-1c-0.6,0-1.1,0.4-1.1,1c0,0.7,0.5,1,1.1,1S230,65.1,230,64.4z M229.8,62.2c0-0.5-0.4-0.8-0.9-0.8
					c-0.4,0-0.9,0.3-0.9,0.8c0,0.5,0.4,0.9,0.9,0.9C229.4,63,229.8,62.7,229.8,62.2z"/>
			</g>
			<g class="st4">
				<path d="M88.1,63.4c0-1.1,0.4-2.5,1.7-2.5c1.2,0,1.8,1.2,1.8,2.5c0,1.2-0.6,2.5-1.7,2.5C88.6,65.9,88.1,64.5,88.1,63.4z
					 M91.1,63.4c0-0.8-0.3-2-1.2-2c-0.9,0-1.2,1.1-1.2,2c0,0.8,0.3,2,1.2,2C90.8,65.4,91.1,64.2,91.1,63.4z"/>
			</g>
			<g class="st4">
				<path d="M134.3,64.3c0-0.3,0.1-0.6,0.2-0.8l1.4-2.5h0.6l-1.1,1.8c0.1,0,0.3,0,0.4,0c0.9,0,1.6,0.6,1.6,1.5
					c0,0.9-0.7,1.6-1.6,1.6C135,65.9,134.3,65.2,134.3,64.3z M137,64.3c0-0.6-0.5-1.1-1.1-1.1c-0.6,0-1.1,0.5-1.1,1.1
					c0,0.6,0.5,1.1,1.1,1.1C136.5,65.4,137,64.9,137,64.3z"/>
			</g>
			<g class="st4">
				<path d="M181.1,63.4c0-1.1,0.4-2.5,1.7-2.5c1.2,0,1.8,1.2,1.8,2.5c0,1.2-0.6,2.5-1.7,2.5C181.6,65.9,181.1,64.5,181.1,63.4z
					 M184.1,63.4c0-0.8-0.3-2-1.2-2c-0.9,0-1.2,1.1-1.2,2c0,0.8,0.3,2,1.2,2C183.8,65.4,184.1,64.2,184.1,63.4z"/>
			</g>
			<g class="st4">
				<path d="M227.1,28.4c0-1.1,0.4-2.5,1.7-2.5c1.2,0,1.8,1.2,1.8,2.5c0,1.2-0.6,2.5-1.7,2.5C227.6,30.9,227.1,29.5,227.1,28.4z
					 M230.1,28.4c0-0.8-0.3-2-1.2-2c-0.9,0-1.2,1.1-1.2,2c0,0.8,0.3,2,1.2,2C229.8,30.4,230.1,29.2,230.1,28.4z"/>
			</g>
			<g class="st4">
				<path d="M88.3,29.5l0.5-0.2c0.1,0.5,0.4,1,1.1,1c0.7,0,1.1-0.6,1.1-1.2s-0.3-1.1-1-1.1c-0.4,0-0.8,0.2-1,0.5l-0.5-0.2l0.4-2.4
					h2.4v0.5h-2L89,28c0.3-0.3,0.6-0.4,0.9-0.4c0.9,0,1.5,0.7,1.5,1.6c0,0.9-0.7,1.6-1.6,1.6C89,30.9,88.5,30.3,88.3,29.5z"/>
			</g>
			<g class="st4">
				<path d="M134.2,30.3c0.8-0.5,1.2-0.9,1.6-1.3c0.5-0.6,0.9-1.1,0.9-1.7c0-0.6-0.3-0.9-0.8-0.9c-0.6,0-0.9,0.5-1,1.2l-0.5-0.1
					c0-1,0.6-1.6,1.5-1.6c0.9,0,1.4,0.6,1.4,1.4c0,0.7-0.4,1.4-1.1,2.1c-0.6,0.6-0.9,0.8-1.2,1h2.6v0.5h-3.3V30.3z"/>
			</g>
			<g class="st4">
				<path d="M181.2,29.4l0.5,0c0,0.7,0.5,1,1.1,1c0.6,0,1.1-0.3,1.1-1c0-0.6-0.5-0.9-1.1-0.9h-0.3V28h0.3c0.5,0,0.8-0.3,0.8-0.8
					c0-0.5-0.4-0.8-0.9-0.8c-0.5,0-0.9,0.3-0.9,0.8l-0.5-0.1c0-0.8,0.6-1.3,1.4-1.3c0.7,0,1.4,0.5,1.4,1.3c0,0.4-0.2,0.8-0.6,1
					c0.6,0.2,0.8,0.7,0.8,1.2c0,1-0.7,1.4-1.6,1.4C181.9,30.9,181.2,30.4,181.2,29.4z"/>
			</g>
			<g class="st4">
				<path d="M227.1,46c0-1.1,0.4-2.5,1.7-2.5c1.2,0,1.8,1.2,1.8,2.5c0,1.2-0.6,2.5-1.7,2.5C227.6,48.5,227.1,47.1,227.1,46z
					 M230.1,46c0-0.8-0.3-2-1.2-2c-0.9,0-1.2,1.1-1.2,2c0,0.8,0.3,2,1.2,2C229.8,48,230.1,46.9,230.1,46z"/>
			</g>
			<g class="st4">
				<path d="M88.3,46.4l0.5-0.2c0.1,0.5,0.4,1,1.1,1c0.7,0,1.1-0.6,1.1-1.2s-0.3-1.1-1-1.1c-0.4,0-0.8,0.2-1,0.5l-0.5-0.2l0.4-2.4
					h2.4v0.5h-2L89,44.8c0.3-0.3,0.6-0.4,0.9-0.4c0.9,0,1.5,0.7,1.5,1.6c0,0.9-0.7,1.6-1.6,1.6C89,47.7,88.5,47.1,88.3,46.4z"/>
			</g>
			<g class="st4">
				<path d="M136.3,46.3h-2.2V46l2.3-3.2h0.5v3.1h0.8v0.5h-0.8v1.3h-0.5V46.3z M136.3,45.9v-2.2l-1.6,2.2H136.3z"/>
			</g>
			<g class="st4">
				<path d="M181.1,46c0-1.1,0.4-2.5,1.7-2.5c1.2,0,1.8,1.2,1.8,2.5c0,1.2-0.6,2.5-1.7,2.5C181.6,48.5,181.1,47.1,181.1,46z
					 M184.1,46c0-0.8-0.3-2-1.2-2c-0.9,0-1.2,1.1-1.2,2c0,0.8,0.3,2,1.2,2C183.8,48,184.1,46.9,184.1,46z"/>
			</g>
		</g>
		<g id="Rectangle_19366">
			<rect y="0" class="st5" width="250" height="108"/>
			<rect x="0.2" y="0.3" class="st2" width="249.5" height="107.5"/>
		</g>
	</g>
</g>
</svg>
