<svg xmlns="http://www.w3.org/2000/svg" xmlns:xlink="http://www.w3.org/1999/xlink" width="600" height="120" viewBox="0 0 600 120">
  <defs>
    <clipPath id="clip-trasformare_legenda_0_en">
      <rect width="600" height="120"/>
    </clipPath>
  </defs>
  <g id="trasformare_legenda_0_en" clip-path="url(#clip-trasformare_legenda_0_en)">
    <text id="NARRATED_TIME" data-name="NARRATED TIME" transform="translate(0.452 12)" font-size="12" font-family="HKGrotesk-Medium, HK Grotesk" font-weight="500"><tspan x="0" y="0">NARRATED TIME</tspan></text>
    <text id="WRITING_DECADES" data-name="WRITING DECADES" transform="translate(243.086 12)" font-size="12" font-family="HKGrotesk-Medium, HK Grotesk" font-weight="500"><tspan x="0" y="0">WRITING DECADES</tspan></text>
    <path id="Path_536" data-name="Path 536" d="M288.4,70.2h-9c-3.3,0-6-2.25-6-5h0c0-2.75,2.7-5,6-5h9c3.3,0,6,2.25,6,5h0C294.4,67.95,291.7,70.2,288.4,70.2Z" transform="translate(-30.4 -6.779)" fill="#ff916b"/>
    <path id="Path_537" data-name="Path 537" d="M288.2,99.1h-9c-3.3,0-6-2.25-6-5h0c0-2.75,2.7-5,6-5h9c3.3,0,6,2.25,6,5h0C294.2,96.85,291.5,99.1,288.2,99.1Z" transform="translate(-30.2 -1.779)" fill="#40e6fd"/>
    <path id="Path_538" data-name="Path 538" d="M467.1,41.2h-9c-3.3,0-6-2.25-6-5h0c0-2.75,2.7-5,6-5h9c3.3,0,6,2.25,6,5h0C473.1,38.95,470.4,41.2,467.1,41.2Z" transform="translate(-25.1 -8.2)" fill="#40d1b5"/>
    <path id="Path_539" data-name="Path 539" d="M467.1,70.5h-9c-3.3,0-6-2.25-6-5h0c0-2.75,2.7-5,6-5h9c3.3,0,6,2.25,6,5h0C473.1,68.25,470.4,70.5,467.1,70.5Z" transform="translate(-25.1 -7.779)" fill="#8383ff"/>
    <text id="Locations_of_texts_where_the_narrated_time_is_set_in_contemporary_time_or_where_past_and_present_blend_in_a_mixed_time" data-name="Locations of texts where the narrated time is set in contemporary time or where past and present blend in a mixed time" transform="translate(30 65)" font-size="10" font-family="HKGrotesk-Regular, HK Grotesk"><tspan x="0" y="9">Locations of texts where the narrated time </tspan><tspan x="0" y="21">is set in </tspan><tspan y="21" font-family="HKGrotesk-Medium, HK Grotesk" font-weight="500">contemporary</tspan><tspan y="21" xml:space="preserve"> time or where past </tspan><tspan x="0" y="33">and present blend in a </tspan><tspan y="33" font-family="HKGrotesk-Medium, HK Grotesk" font-weight="500">mixed time</tspan></text>
    <path id="Path_541" data-name="Path 541" d="M288.4,41.2h-9c-3.3,0-6-2.25-6-5h0c0-2.75,2.7-5,6-5h9c3.3,0,6,2.25,6,5h0C294.4,38.95,291.7,41.2,288.4,41.2Z" transform="translate(-30.4 -8.2)" fill="#ffda40"/>
    <text id="Locations_of_texts_where_the_narrated_time_is_set_in_the_past_or_in_an_indeterminate_time_period" data-name="Locations of texts where the narrated time is set in the past or in an indeterminate time period" transform="translate(30 20)" font-size="10" font-family="HKGrotesk-Regular, HK Grotesk"><tspan x="0" y="9">Locations of texts where the narrated time is </tspan><tspan x="0" y="21">set in the </tspan><tspan y="21" font-family="HKGrotesk-Medium, HK Grotesk" font-weight="500">past</tspan><tspan y="21" xml:space="preserve"> or in an </tspan><tspan y="21" font-family="HKGrotesk-Medium, HK Grotesk" font-weight="500">indeterminate time</tspan><tspan y="21"> </tspan><tspan x="0" y="33">period</tspan></text>
    <text id="Recurring_locations_that_cover_more_than_a_decade" data-name="Recurring locations that cover more than a decade" transform="translate(272 20)" font-size="10" font-family="HKGrotesk-Regular, HK Grotesk"><tspan x="0" y="9">Recurring locations that cover </tspan><tspan x="0" y="21">more than a decade</tspan></text>
    <text id="Locations_of_texts_written_between_1945_and_1955" data-name="Locations of texts written between 1945 and 1955" transform="translate(272 52)" font-size="10" font-family="HKGrotesk-Regular, HK Grotesk"><tspan x="0" y="9">Locations of texts written </tspan><tspan x="0" y="21">between 1945 and 1955</tspan></text>
    <text id="Locations_of_texts_written_between_1956_and_1965" data-name="Locations of texts written between 1956 and 1965" transform="translate(272 85)" font-size="10" font-family="HKGrotesk-Regular, HK Grotesk"><tspan x="0" y="9">Locations of texts written </tspan><tspan x="0" y="21">between 1956 and 1965</tspan></text>
    <text id="Locations_of_texts_written_between_1966_and_1975" data-name="Locations of texts written between 1966 and 1975" transform="translate(454 23)" font-size="10" font-family="HKGrotesk-Regular, HK Grotesk"><tspan x="0" y="9">Locations of texts written </tspan><tspan x="0" y="21">between 1966 and 1975</tspan></text>
    <text id="Locations_of_texts_written_between_1976_and_1984" data-name="Locations of texts written between 1976 and 1984" transform="translate(454 52)" font-size="10" font-family="HKGrotesk-Regular, HK Grotesk"><tspan x="0" y="9">Locations of texts written </tspan><tspan x="0" y="21">between 1976 and 1984</tspan></text>
    <path id="Path_534" data-name="Path 534" d="M13.168,41.3c-3.243,0-5.868-2.237-5.868-5s2.625-5,5.868-5h9.265c3.243,0,5.868,2.237,5.868,5s-2.625,5-5.868,5Z" transform="translate(-7.1 36.221)" fill="#fff" stroke="#000" stroke-width="0.5"/>
    <circle id="Ellipse_5" data-name="Ellipse 5" cx="0.7" cy="0.7" r="0.7" transform="translate(10.3 71.741)"/>
    <path id="Path_161561" data-name="Path 161561" d="M22.1,71.3h-9c-3.3,0-6-2.25-6-5h0c0-2.75,2.7-5,6-5h9c3.3,0,6,2.25,6,5h0C28.1,69.05,25.4,71.3,22.1,71.3Z" transform="translate(-7.1 -37.879)" fill="#b4b3b3"/>
  </g>
</svg>
