<svg xmlns="http://www.w3.org/2000/svg" xmlns:xlink="http://www.w3.org/1999/xlink" width="600" height="150" viewBox="0 0 600 150">
  <defs>
    <clipPath id="clip-path">
      <path id="Tracciato_148032" data-name="Tracciato 148032" d="M209,35.5h9c3.3,0,6,2.25,6,5h0c0,2.75-2.7,5-6,5h-9c-3.3,0-6-2.25-6-5h0C203,37.75,205.7,35.5,209,35.5Z" transform="translate(-203 -35.5)"/>
    </clipPath>
    <clipPath id="clip-path-2">
      <path id="Tracciato_148034" data-name="Tracciato 148034" d="M209,55.8h9c3.3,0,6,2.25,6,5h0c0,2.75-2.7,5-6,5h-9c-3.3,0-6-2.25-6-5h0C203,58.05,205.7,55.8,209,55.8Z" transform="translate(-203 -55.8)"/>
    </clipPath>
    <clipPath id="clip-path-3">
      <path id="Tracciato_148036" data-name="Tracciato 148036" d="M209,76.2h9c3.3,0,6,2.25,6,5h0c0,2.75-2.7,5-6,5h-9c-3.3,0-6-2.25-6-5h0C203,78.45,205.7,76.2,209,76.2Z" transform="translate(-203 -76.2)"/>
    </clipPath>
    <clipPath id="clip-path-4">
      <path id="Tracciato_148038" data-name="Tracciato 148038" d="M209,96.5h9c3.3,0,6,2.25,6,5h0c0,2.75-2.7,5-6,5h-9c-3.3,0-6-2.25-6-5h0C203,98.75,205.7,96.5,209,96.5Z" transform="translate(-203 -96.5)"/>
    </clipPath>
    <clipPath id="clip-path-5">
      <path id="Tracciato_157232" data-name="Tracciato 157232" d="M209.5,35.5h9c3.3,0,6,2.25,6,5h0c0,2.75-2.7,5-6,5h-9c-3.3,0-6-2.25-6-5h0C203.5,37.75,206.2,35.5,209.5,35.5Z" transform="translate(-203.5 -35.5)"/>
    </clipPath>
    <clipPath id="clip-legenda_03">
      <rect width="600" height="150"/>
    </clipPath>
  </defs>
  <g id="legenda_03" clip-path="url(#clip-legenda_03)">
    <text id="Metropolis" transform="translate(272.295 34.867)" font-size="8" font-family="HKGrotesk-Regular, HK Grotesk"><tspan x="0" y="0">Metropolis</tspan></text>
    <g id="Raggruppa_24045" data-name="Raggruppa 24045" transform="translate(243.086 28.299)" clip-path="url(#clip-path)">
      <line id="Linea_7689" data-name="Linea 7689" x2="107.1" y2="89.25" transform="translate(-66 1.625)" fill="none" stroke="#f36" stroke-miterlimit="10" stroke-width="0.5"/>
      <line id="Linea_7690" data-name="Linea 7690" x2="107.1" y2="89.25" transform="translate(-62.4 0.125)" fill="none" stroke="#f36" stroke-miterlimit="10" stroke-width="0.5"/>
      <line id="Linea_7691" data-name="Linea 7691" x2="107.1" y2="89.25" transform="translate(-58.8 -1.375)" fill="none" stroke="#f36" stroke-miterlimit="10" stroke-width="0.5"/>
      <line id="Linea_7692" data-name="Linea 7692" x2="107.1" y2="89.25" transform="translate(-55.2 -2.875)" fill="none" stroke="#f36" stroke-miterlimit="10" stroke-width="0.5"/>
      <line id="Linea_7693" data-name="Linea 7693" x2="107.1" y2="89.25" transform="translate(-51.6 -4.375)" fill="none" stroke="#f36" stroke-miterlimit="10" stroke-width="0.5"/>
      <line id="Linea_7694" data-name="Linea 7694" x2="107.1" y2="89.25" transform="translate(-48 -5.875)" fill="none" stroke="#f36" stroke-miterlimit="10" stroke-width="0.5"/>
      <line id="Linea_7695" data-name="Linea 7695" x2="107.1" y2="89.25" transform="translate(-44.4 -7.375)" fill="none" stroke="#f36" stroke-miterlimit="10" stroke-width="0.5"/>
      <line id="Linea_7696" data-name="Linea 7696" x2="107.1" y2="89.25" transform="translate(-40.8 -8.875)" fill="none" stroke="#f36" stroke-miterlimit="10" stroke-width="0.5"/>
      <line id="Linea_7697" data-name="Linea 7697" x2="107.1" y2="89.25" transform="translate(-37.2 -10.375)" fill="none" stroke="#f36" stroke-miterlimit="10" stroke-width="0.5"/>
      <line id="Linea_7698" data-name="Linea 7698" x2="107.1" y2="89.25" transform="translate(-33.6 -11.875)" fill="none" stroke="#f36" stroke-miterlimit="10" stroke-width="0.5"/>
      <line id="Linea_7699" data-name="Linea 7699" x2="107.1" y2="89.25" transform="translate(-30 -13.375)" fill="none" stroke="#f36" stroke-miterlimit="10" stroke-width="0.5"/>
      <line id="Linea_7700" data-name="Linea 7700" x2="107.1" y2="89.25" transform="translate(-26.4 -14.875)" fill="none" stroke="#f36" stroke-miterlimit="10" stroke-width="0.5"/>
      <line id="Linea_7701" data-name="Linea 7701" x2="107.1" y2="89.25" transform="translate(-22.8 -16.375)" fill="none" stroke="#f36" stroke-miterlimit="10" stroke-width="0.5"/>
      <line id="Linea_7702" data-name="Linea 7702" x2="107.1" y2="89.25" transform="translate(-19.2 -17.875)" fill="none" stroke="#f36" stroke-miterlimit="10" stroke-width="0.5"/>
      <line id="Linea_7703" data-name="Linea 7703" x2="107.1" y2="89.25" transform="translate(-15.6 -19.375)" fill="none" stroke="#f36" stroke-miterlimit="10" stroke-width="0.5"/>
      <line id="Linea_7704" data-name="Linea 7704" x2="107.1" y2="89.25" transform="translate(-12 -20.875)" fill="none" stroke="#f36" stroke-miterlimit="10" stroke-width="0.5"/>
      <line id="Linea_7705" data-name="Linea 7705" x2="107.1" y2="89.25" transform="translate(-8.4 -22.375)" fill="none" stroke="#f36" stroke-miterlimit="10" stroke-width="0.5"/>
      <line id="Linea_7706" data-name="Linea 7706" x2="107.1" y2="89.25" transform="translate(-4.8 -23.875)" fill="none" stroke="#f36" stroke-miterlimit="10" stroke-width="0.5"/>
      <line id="Linea_7707" data-name="Linea 7707" x2="107.1" y2="89.25" transform="translate(-1.2 -25.375)" fill="none" stroke="#f36" stroke-miterlimit="10" stroke-width="0.5"/>
      <line id="Linea_7708" data-name="Linea 7708" x2="107.1" y2="89.25" transform="translate(2.4 -26.875)" fill="none" stroke="#f36" stroke-miterlimit="10" stroke-width="0.5"/>
      <line id="Linea_7709" data-name="Linea 7709" x2="107.1" y2="89.25" transform="translate(6 -28.375)" fill="none" stroke="#f36" stroke-miterlimit="10" stroke-width="0.5"/>
    </g>
    <path id="Tracciato_148033" data-name="Tracciato 148033" d="M209,35.5h9c3.3,0,6,2.25,6,5h0c0,2.75-2.7,5-6,5h-9c-3.3,0-6-2.25-6-5h0C203,37.75,205.7,35.5,209,35.5Z" transform="translate(40.086 -7.201)" fill="none" stroke="#f36" stroke-miterlimit="10" stroke-width="0.5"/>
    <text id="Urban_landscape" data-name="Urban landscape" transform="translate(272.295 59.34)" font-size="9" font-family="HKGrotesk-Regular, HK Grotesk"><tspan x="0" y="0">Urban landscape</tspan></text>
    <g id="Raggruppa_24047" data-name="Raggruppa 24047" transform="translate(243.086 51.737)" clip-path="url(#clip-path-2)">
      <line id="Linea_7710" data-name="Linea 7710" x2="107.1" y2="89.25" transform="translate(-66 1.75)" fill="none" stroke="#8131f4" stroke-miterlimit="10" stroke-width="0.5"/>
      <line id="Linea_7711" data-name="Linea 7711" x2="107.1" y2="89.25" transform="translate(-62.4 0.25)" fill="none" stroke="#8131f4" stroke-miterlimit="10" stroke-width="0.5"/>
      <line id="Linea_7712" data-name="Linea 7712" x2="107.1" y2="89.25" transform="translate(-58.8 -1.25)" fill="none" stroke="#8131f4" stroke-miterlimit="10" stroke-width="0.5"/>
      <line id="Linea_7713" data-name="Linea 7713" x2="107.1" y2="89.25" transform="translate(-55.2 -2.75)" fill="none" stroke="#8131f4" stroke-miterlimit="10" stroke-width="0.5"/>
      <line id="Linea_7714" data-name="Linea 7714" x2="107.1" y2="89.25" transform="translate(-51.6 -4.25)" fill="none" stroke="#8131f4" stroke-miterlimit="10" stroke-width="0.5"/>
      <line id="Linea_7715" data-name="Linea 7715" x2="107.1" y2="89.25" transform="translate(-48 -5.75)" fill="none" stroke="#8131f4" stroke-miterlimit="10" stroke-width="0.5"/>
      <line id="Linea_7716" data-name="Linea 7716" x2="107.1" y2="89.25" transform="translate(-44.4 -7.25)" fill="none" stroke="#8131f4" stroke-miterlimit="10" stroke-width="0.5"/>
      <line id="Linea_7717" data-name="Linea 7717" x2="107.1" y2="89.25" transform="translate(-40.8 -8.75)" fill="none" stroke="#8131f4" stroke-miterlimit="10" stroke-width="0.5"/>
      <line id="Linea_7718" data-name="Linea 7718" x2="107.1" y2="89.25" transform="translate(-37.2 -10.25)" fill="none" stroke="#8131f4" stroke-miterlimit="10" stroke-width="0.5"/>
      <line id="Linea_7719" data-name="Linea 7719" x2="107.1" y2="89.25" transform="translate(-33.6 -11.75)" fill="none" stroke="#8131f4" stroke-miterlimit="10" stroke-width="0.5"/>
      <line id="Linea_7720" data-name="Linea 7720" x2="107.1" y2="89.25" transform="translate(-30 -13.25)" fill="none" stroke="#8131f4" stroke-miterlimit="10" stroke-width="0.5"/>
      <line id="Linea_7721" data-name="Linea 7721" x2="107.1" y2="89.25" transform="translate(-26.4 -14.75)" fill="none" stroke="#8131f4" stroke-miterlimit="10" stroke-width="0.5"/>
      <line id="Linea_7722" data-name="Linea 7722" x2="107.1" y2="89.25" transform="translate(-22.8 -16.25)" fill="none" stroke="#8131f4" stroke-miterlimit="10" stroke-width="0.5"/>
      <line id="Linea_7723" data-name="Linea 7723" x2="107.1" y2="89.25" transform="translate(-19.2 -17.75)" fill="none" stroke="#8131f4" stroke-miterlimit="10" stroke-width="0.5"/>
      <line id="Linea_7724" data-name="Linea 7724" x2="107.1" y2="89.25" transform="translate(-15.6 -19.25)" fill="none" stroke="#8131f4" stroke-miterlimit="10" stroke-width="0.5"/>
      <line id="Linea_7725" data-name="Linea 7725" x2="107.1" y2="89.25" transform="translate(-12 -20.75)" fill="none" stroke="#8131f4" stroke-miterlimit="10" stroke-width="0.5"/>
      <line id="Linea_7726" data-name="Linea 7726" x2="107.1" y2="89.25" transform="translate(-8.4 -22.25)" fill="none" stroke="#8131f4" stroke-miterlimit="10" stroke-width="0.5"/>
      <line id="Linea_7727" data-name="Linea 7727" x2="107.1" y2="89.25" transform="translate(-4.8 -23.75)" fill="none" stroke="#8131f4" stroke-miterlimit="10" stroke-width="0.5"/>
      <line id="Linea_7728" data-name="Linea 7728" x2="107.1" y2="89.25" transform="translate(-1.2 -25.25)" fill="none" stroke="#8131f4" stroke-miterlimit="10" stroke-width="0.5"/>
      <line id="Linea_7729" data-name="Linea 7729" x2="107.1" y2="89.25" transform="translate(2.4 -26.75)" fill="none" stroke="#8131f4" stroke-miterlimit="10" stroke-width="0.5"/>
      <line id="Linea_7730" data-name="Linea 7730" x2="107.1" y2="89.25" transform="translate(6 -28.25)" fill="none" stroke="#8131f4" stroke-miterlimit="10" stroke-width="0.5"/>
    </g>
    <path id="Tracciato_148035" data-name="Tracciato 148035" d="M209,55.8h9c3.3,0,6,2.25,6,5h0c0,2.75-2.7,5-6,5h-9c-3.3,0-6-2.25-6-5h0C203,58.05,205.7,55.8,209,55.8Z" transform="translate(40.086 -4.063)" fill="none" stroke="#8131f4" stroke-miterlimit="10" stroke-width="0.5"/>
    <text id="Cosmic_landscape" data-name="Cosmic landscape" transform="translate(272.295 82.824)" font-size="9" font-family="HKGrotesk-Regular, HK Grotesk"><tspan x="0" y="0">Cosmic landscape</tspan></text>
    <g id="Raggruppa_24049" data-name="Raggruppa 24049" transform="translate(243.086 75.291)" clip-path="url(#clip-path-3)">
      <line id="Linea_7731" data-name="Linea 7731" x2="107.1" y2="89.25" transform="translate(-66 1.625)" fill="none" stroke="#0505c4" stroke-miterlimit="10" stroke-width="0.5"/>
      <line id="Linea_7732" data-name="Linea 7732" x2="107.1" y2="89.25" transform="translate(-62.4 0.125)" fill="none" stroke="#0505c4" stroke-miterlimit="10" stroke-width="0.5"/>
      <line id="Linea_7733" data-name="Linea 7733" x2="107.1" y2="89.25" transform="translate(-58.8 -1.375)" fill="none" stroke="#0505c4" stroke-miterlimit="10" stroke-width="0.5"/>
      <line id="Linea_7734" data-name="Linea 7734" x2="107.1" y2="89.25" transform="translate(-55.2 -2.875)" fill="none" stroke="#0505c4" stroke-miterlimit="10" stroke-width="0.5"/>
      <line id="Linea_7735" data-name="Linea 7735" x2="107.1" y2="89.25" transform="translate(-51.6 -4.375)" fill="none" stroke="#0505c4" stroke-miterlimit="10" stroke-width="0.5"/>
      <line id="Linea_7736" data-name="Linea 7736" x2="107.1" y2="89.25" transform="translate(-48 -5.875)" fill="none" stroke="#0505c4" stroke-miterlimit="10" stroke-width="0.5"/>
      <line id="Linea_7737" data-name="Linea 7737" x2="107.1" y2="89.25" transform="translate(-44.4 -7.375)" fill="none" stroke="#0505c4" stroke-miterlimit="10" stroke-width="0.5"/>
      <line id="Linea_7738" data-name="Linea 7738" x2="107.1" y2="89.25" transform="translate(-40.8 -8.875)" fill="none" stroke="#0505c4" stroke-miterlimit="10" stroke-width="0.5"/>
      <line id="Linea_7739" data-name="Linea 7739" x2="107.1" y2="89.25" transform="translate(-37.2 -10.375)" fill="none" stroke="#0505c4" stroke-miterlimit="10" stroke-width="0.5"/>
      <line id="Linea_7740" data-name="Linea 7740" x2="107.1" y2="89.25" transform="translate(-33.6 -11.875)" fill="none" stroke="#0505c4" stroke-miterlimit="10" stroke-width="0.5"/>
      <line id="Linea_7741" data-name="Linea 7741" x2="107.1" y2="89.25" transform="translate(-30 -13.375)" fill="none" stroke="#0505c4" stroke-miterlimit="10" stroke-width="0.5"/>
      <line id="Linea_7742" data-name="Linea 7742" x2="107.1" y2="89.25" transform="translate(-26.4 -14.875)" fill="none" stroke="#0505c4" stroke-miterlimit="10" stroke-width="0.5"/>
      <line id="Linea_7743" data-name="Linea 7743" x2="107.1" y2="89.25" transform="translate(-22.8 -16.375)" fill="none" stroke="#0505c4" stroke-miterlimit="10" stroke-width="0.5"/>
      <line id="Linea_7744" data-name="Linea 7744" x2="107.1" y2="89.25" transform="translate(-19.2 -17.875)" fill="none" stroke="#0505c4" stroke-miterlimit="10" stroke-width="0.5"/>
      <line id="Linea_7745" data-name="Linea 7745" x2="107.1" y2="89.25" transform="translate(-15.6 -19.375)" fill="none" stroke="#0505c4" stroke-miterlimit="10" stroke-width="0.5"/>
      <line id="Linea_7746" data-name="Linea 7746" x2="107.1" y2="89.25" transform="translate(-12 -20.875)" fill="none" stroke="#0505c4" stroke-miterlimit="10" stroke-width="0.5"/>
      <line id="Linea_7747" data-name="Linea 7747" x2="107.1" y2="89.25" transform="translate(-8.4 -22.375)" fill="none" stroke="#0505c4" stroke-miterlimit="10" stroke-width="0.5"/>
      <line id="Linea_7748" data-name="Linea 7748" x2="107.1" y2="89.25" transform="translate(-4.8 -23.875)" fill="none" stroke="#0505c4" stroke-miterlimit="10" stroke-width="0.5"/>
      <line id="Linea_7749" data-name="Linea 7749" x2="107.1" y2="89.25" transform="translate(-1.2 -25.375)" fill="none" stroke="#0505c4" stroke-miterlimit="10" stroke-width="0.5"/>
      <line id="Linea_7750" data-name="Linea 7750" x2="107.1" y2="89.25" transform="translate(2.4 -26.875)" fill="none" stroke="#0505c4" stroke-miterlimit="10" stroke-width="0.5"/>
      <line id="Linea_7751" data-name="Linea 7751" x2="107.1" y2="89.25" transform="translate(6 -28.375)" fill="none" stroke="#0505c4" stroke-miterlimit="10" stroke-width="0.5"/>
    </g>
    <path id="Tracciato_148037" data-name="Tracciato 148037" d="M209,76.2h9c3.3,0,6,2.25,6,5h0c0,2.75-2.7,5-6,5h-9c-3.3,0-6-2.25-6-5h0C203,78.45,205.7,76.2,209,76.2Z" transform="translate(40.086 -0.909)" fill="none" stroke="#0505c4" stroke-miterlimit="10" stroke-width="0.5"/>
    <text id="No_context" data-name="No context" transform="translate(272.295 106.297)" font-size="9" font-family="HKGrotesk-Regular, HK Grotesk"><tspan x="0" y="0">No context</tspan></text>
    <g id="Raggruppa_24051" data-name="Raggruppa 24051" transform="translate(243.086 98.729)" clip-path="url(#clip-path-4)">
      <line id="Linea_7752" data-name="Linea 7752" x2="107.1" y2="89.25" transform="translate(-66 1.625)" fill="none" stroke="#869fd1" stroke-miterlimit="10" stroke-width="0.5"/>
      <line id="Linea_7753" data-name="Linea 7753" x2="107.1" y2="89.25" transform="translate(-62.4 0.125)" fill="none" stroke="#869fd1" stroke-miterlimit="10" stroke-width="0.5"/>
      <line id="Linea_7754" data-name="Linea 7754" x2="107.1" y2="89.25" transform="translate(-58.8 -1.375)" fill="none" stroke="#869fd1" stroke-miterlimit="10" stroke-width="0.5"/>
      <line id="Linea_7755" data-name="Linea 7755" x2="107.1" y2="89.25" transform="translate(-55.2 -2.875)" fill="none" stroke="#869fd1" stroke-miterlimit="10" stroke-width="0.5"/>
      <line id="Linea_7756" data-name="Linea 7756" x2="107.1" y2="89.25" transform="translate(-51.6 -4.375)" fill="none" stroke="#869fd1" stroke-miterlimit="10" stroke-width="0.5"/>
      <line id="Linea_7757" data-name="Linea 7757" x2="107.1" y2="89.25" transform="translate(-48 -5.875)" fill="none" stroke="#869fd1" stroke-miterlimit="10" stroke-width="0.5"/>
      <line id="Linea_7758" data-name="Linea 7758" x2="107.1" y2="89.25" transform="translate(-44.4 -7.375)" fill="none" stroke="#869fd1" stroke-miterlimit="10" stroke-width="0.5"/>
      <line id="Linea_7759" data-name="Linea 7759" x2="107.1" y2="89.25" transform="translate(-40.8 -8.875)" fill="none" stroke="#869fd1" stroke-miterlimit="10" stroke-width="0.5"/>
      <line id="Linea_7760" data-name="Linea 7760" x2="107.1" y2="89.25" transform="translate(-37.2 -10.375)" fill="none" stroke="#869fd1" stroke-miterlimit="10" stroke-width="0.5"/>
      <line id="Linea_7761" data-name="Linea 7761" x2="107.1" y2="89.25" transform="translate(-33.6 -11.875)" fill="none" stroke="#869fd1" stroke-miterlimit="10" stroke-width="0.5"/>
      <line id="Linea_7762" data-name="Linea 7762" x2="107.1" y2="89.25" transform="translate(-30 -13.375)" fill="none" stroke="#869fd1" stroke-miterlimit="10" stroke-width="0.5"/>
      <line id="Linea_7763" data-name="Linea 7763" x2="107.1" y2="89.25" transform="translate(-26.4 -14.875)" fill="none" stroke="#869fd1" stroke-miterlimit="10" stroke-width="0.5"/>
      <line id="Linea_7764" data-name="Linea 7764" x2="107.1" y2="89.25" transform="translate(-22.8 -16.375)" fill="none" stroke="#869fd1" stroke-miterlimit="10" stroke-width="0.5"/>
      <line id="Linea_7765" data-name="Linea 7765" x2="107.1" y2="89.25" transform="translate(-19.2 -17.875)" fill="none" stroke="#869fd1" stroke-miterlimit="10" stroke-width="0.5"/>
      <line id="Linea_7766" data-name="Linea 7766" x2="107.1" y2="89.25" transform="translate(-15.6 -19.375)" fill="none" stroke="#869fd1" stroke-miterlimit="10" stroke-width="0.5"/>
      <line id="Linea_7767" data-name="Linea 7767" x2="107.1" y2="89.25" transform="translate(-12 -20.875)" fill="none" stroke="#869fd1" stroke-miterlimit="10" stroke-width="0.5"/>
      <line id="Linea_7768" data-name="Linea 7768" x2="107.1" y2="89.25" transform="translate(-8.4 -22.375)" fill="none" stroke="#869fd1" stroke-miterlimit="10" stroke-width="0.5"/>
      <line id="Linea_7769" data-name="Linea 7769" x2="107.1" y2="89.25" transform="translate(-4.8 -23.875)" fill="none" stroke="#869fd1" stroke-miterlimit="10" stroke-width="0.5"/>
      <line id="Linea_7770" data-name="Linea 7770" x2="107.1" y2="89.25" transform="translate(-1.2 -25.375)" fill="none" stroke="#869fd1" stroke-miterlimit="10" stroke-width="0.5"/>
      <line id="Linea_7771" data-name="Linea 7771" x2="107.1" y2="89.25" transform="translate(2.4 -26.875)" fill="none" stroke="#869fd1" stroke-miterlimit="10" stroke-width="0.5"/>
      <line id="Linea_7772" data-name="Linea 7772" x2="107.1" y2="89.25" transform="translate(6 -28.375)" fill="none" stroke="#869fd1" stroke-miterlimit="10" stroke-width="0.5"/>
    </g>
    <path id="Tracciato_148039" data-name="Tracciato 148039" d="M209,96.5h9c3.3,0,6,2.25,6,5h0c0,2.75-2.7,5-6,5h-9c-3.3,0-6-2.25-6-5h0C203,98.75,205.7,96.5,209,96.5Z" transform="translate(40.086 2.229)" fill="none" stroke="#869fd1" stroke-miterlimit="10" stroke-width="0.5"/>
    <text id="CONTEXTS" transform="translate(243.086 12)" font-size="12" font-family="HKGrotesk-Medium, HK Grotesk" font-weight="500"><tspan x="0" y="0">CONTEXTS</tspan></text>
    <g id="Raggruppa_24681" data-name="Raggruppa 24681">
      <path id="Tracciato_148042" data-name="Tracciato 148042" d="M7.5,97.2h9c3.3,0,6,2.25,6,5h0c0,2.75-2.7,5-6,5h-9c-3.3,0-6-2.25-6-5h0C1.5,99.45,4.2,97.2,7.5,97.2Z" transform="translate(0 2.337)" fill="none" stroke="#000" stroke-miterlimit="10" stroke-width="0.25"/>
      <path id="Tracciato_148043" data-name="Tracciato 148043" d="M7.5,128h9c3.3,0,6,2.25,6,5h0c0,2.75-2.7,5-6,5h-9c-3.3,0-6-2.25-6-5h0C1.5,130.25,4.2,128,7.5,128Z" transform="translate(0 7.099)" fill="none" stroke="red" stroke-miterlimit="10" stroke-width="0.5" stroke-dasharray="2 2"/>
      <text id="Locations_disappeared_from_all_stories" data-name="Locations disappeared from all stories" transform="translate(29 143.667)" font-size="9" font-family="HKGrotesk-Regular, HK Grotesk"><tspan x="0" y="0">Locations disappeared from all stories</tspan></text>
      <text id="Locations_of_texts_where_past_and_present_blend_in_a_mixed_time" data-name="Locations of texts where past and present blend in a mixed time" transform="translate(29 98)" font-size="9" font-family="HKGrotesk-Regular, HK Grotesk"><tspan x="0" y="9">Locations of texts where past and present </tspan><tspan x="0" y="20">blend in a </tspan><tspan y="20" font-family="HKGrotesk-Medium, HK Grotesk" font-weight="500">mixed time</tspan></text>
      <path id="Tracciato_157234" data-name="Tracciato 157234" d="M7.654,76.8C4.585,76.8,2,74.514,2,71.8s2.585-5,5.654-5h9.692c3.069,0,5.654,2.286,5.654,5s-2.585,5-5.654,5Z" transform="translate(-1 -5.309)" fill="#dbdbdb"/>
      <g id="Raggruppa_24680" data-name="Raggruppa 24680">
        <g id="Raggruppa_24678" data-name="Raggruppa 24678" transform="translate(0.703 26.322)" clip-path="url(#clip-path-5)">
          <line id="Linea_7918" data-name="Linea 7918" x2="107.1" y2="89.25" transform="translate(-66 1.625)" fill="none" stroke="#0d1b3a" stroke-miterlimit="10" stroke-width="0.25"/>
          <line id="Linea_7919" data-name="Linea 7919" x2="107.1" y2="89.25" transform="translate(-62.4 0.125)" fill="none" stroke="#0d1b3a" stroke-miterlimit="10" stroke-width="0.25"/>
          <line id="Linea_7920" data-name="Linea 7920" x2="107.1" y2="89.25" transform="translate(-58.8 -1.375)" fill="none" stroke="#0d1b3a" stroke-miterlimit="10" stroke-width="0.25"/>
          <line id="Linea_7921" data-name="Linea 7921" x2="107.1" y2="89.25" transform="translate(-55.2 -2.875)" fill="none" stroke="#0d1b3a" stroke-miterlimit="10" stroke-width="0.25"/>
          <line id="Linea_7922" data-name="Linea 7922" x2="107.1" y2="89.25" transform="translate(-51.6 -4.375)" fill="none" stroke="#0d1b3a" stroke-miterlimit="10" stroke-width="0.25"/>
          <line id="Linea_7923" data-name="Linea 7923" x2="107.1" y2="89.25" transform="translate(-48 -5.875)" fill="none" stroke="#0d1b3a" stroke-miterlimit="10" stroke-width="0.25"/>
          <line id="Linea_7924" data-name="Linea 7924" x2="107.1" y2="89.25" transform="translate(-44.4 -7.375)" fill="none" stroke="#0d1b3a" stroke-miterlimit="10" stroke-width="0.25"/>
          <line id="Linea_7925" data-name="Linea 7925" x2="107.1" y2="89.25" transform="translate(-40.8 -8.875)" fill="none" stroke="#0d1b3a" stroke-miterlimit="10" stroke-width="0.25"/>
          <line id="Linea_7926" data-name="Linea 7926" x2="107.1" y2="89.25" transform="translate(-37.2 -10.375)" fill="none" stroke="#0d1b3a" stroke-miterlimit="10" stroke-width="0.25"/>
          <line id="Linea_7927" data-name="Linea 7927" x2="107.1" y2="89.25" transform="translate(-33.6 -11.875)" fill="none" stroke="#0d1b3a" stroke-miterlimit="10" stroke-width="0.25"/>
          <line id="Linea_7928" data-name="Linea 7928" x2="107.1" y2="89.25" transform="translate(-30 -13.375)" fill="none" stroke="#0d1b3a" stroke-miterlimit="10" stroke-width="0.25"/>
          <line id="Linea_7929" data-name="Linea 7929" x2="107.1" y2="89.25" transform="translate(-26.4 -14.875)" fill="none" stroke="#0d1b3a" stroke-miterlimit="10" stroke-width="0.25"/>
          <line id="Linea_7930" data-name="Linea 7930" x2="107.1" y2="89.25" transform="translate(-22.8 -16.375)" fill="none" stroke="#0d1b3a" stroke-miterlimit="10" stroke-width="0.25"/>
          <line id="Linea_7931" data-name="Linea 7931" x2="107.1" y2="89.25" transform="translate(-19.2 -17.875)" fill="none" stroke="#0d1b3a" stroke-miterlimit="10" stroke-width="0.25"/>
          <line id="Linea_7932" data-name="Linea 7932" x2="107.1" y2="89.25" transform="translate(-15.6 -19.375)" fill="none" stroke="#0d1b3a" stroke-miterlimit="10" stroke-width="0.25"/>
          <line id="Linea_7933" data-name="Linea 7933" x2="107.1" y2="89.25" transform="translate(-12 -20.875)" fill="none" stroke="#0d1b3a" stroke-miterlimit="10" stroke-width="0.25"/>
          <line id="Linea_7934" data-name="Linea 7934" x2="107.1" y2="89.25" transform="translate(-8.4 -22.375)" fill="none" stroke="#0d1b3a" stroke-miterlimit="10" stroke-width="0.25"/>
          <line id="Linea_7935" data-name="Linea 7935" x2="107.1" y2="89.25" transform="translate(-4.8 -23.875)" fill="none" stroke="#0d1b3a" stroke-miterlimit="10" stroke-width="0.25"/>
          <line id="Linea_7936" data-name="Linea 7936" x2="107.1" y2="89.25" transform="translate(-1.2 -25.375)" fill="none" stroke="#0d1b3a" stroke-miterlimit="10" stroke-width="0.25"/>
          <line id="Linea_7937" data-name="Linea 7937" x2="107.1" y2="89.25" transform="translate(2.4 -26.875)" fill="none" stroke="#0d1b3a" stroke-miterlimit="10" stroke-width="0.25"/>
          <line id="Linea_7938" data-name="Linea 7938" x2="107.1" y2="89.25" transform="translate(6 -28.375)" fill="none" stroke="#0d1b3a" stroke-miterlimit="10" stroke-width="0.25"/>
        </g>
        <path id="Tracciato_157233" data-name="Tracciato 157233" d="M209.5,35.5h9c3.3,0,6,2.25,6,5h0c0,2.75-2.7,5-6,5h-9c-3.3,0-6-2.25-6-5h0C203.5,37.75,206.2,35.5,209.5,35.5Z" transform="translate(-202.797 -9.178)" fill="none" stroke="#0d1b3a" stroke-miterlimit="10" stroke-width="0.25"/>
      </g>
      <text id="Locations_of_texts_where_the_narrated_time_is_set_in_an_indeterminate_time_period" data-name="Locations of texts where the narrated time is set in an indeterminate time period" transform="translate(30 25)" font-size="10" font-family="HKGrotesk-Regular, HK Grotesk"><tspan x="0" y="10">Locations of texts where the narrated time is </tspan><tspan x="0" y="23">set in an </tspan><tspan y="23" font-family="HKGrotesk-Medium, HK Grotesk" font-weight="500">indeterminate time period</tspan></text>
      <text id="Locations_of_texts_where_the_narrated_time_is_set_in_the_past" data-name="Locations of texts where the narrated time is set in the past" transform="translate(30 59)" font-size="10" font-family="HKGrotesk-Regular, HK Grotesk"><tspan x="0" y="10">Locations of texts where the narrated </tspan><tspan x="0" y="23">time is set in the past</tspan></text>
      <text id="NARRATED_TIME" data-name="NARRATED TIME" transform="translate(0.452 12)" font-size="12" font-family="HKGrotesk-Medium, HK Grotesk" font-weight="500"><tspan x="0" y="0">NARRATED TIME</tspan></text>
    </g>
    <circle id="Ellisse_33243" data-name="Ellisse 33243" cx="2.876" cy="2.876" r="2.876" transform="translate(396.769 33.502)" fill="none" stroke="#000" stroke-miterlimit="10" stroke-width="0.25"/>
    <circle id="Ellisse_33244" data-name="Ellisse 33244" cx="6.327" cy="6.327" r="6.327" transform="translate(393.325 26.578)" fill="none" stroke="#000" stroke-miterlimit="10" stroke-width="0.25"/>
    <text id="Number_of_occurrences" data-name="Number of occurrences" transform="translate(414.823 34.756)" font-size="9" font-family="HKGrotesk-Regular, HK Grotesk"><tspan x="0" y="0">Number of occurrences</tspan></text>
    <text id="SIZE" transform="translate(391.086 12)" font-size="12" font-family="HKGrotesk-Medium, HK Grotesk" font-weight="500"><tspan x="0" y="0">SIZE</tspan></text>
  </g>
</svg>
