<svg xmlns="http://www.w3.org/2000/svg" xmlns:xlink="http://www.w3.org/1999/xlink" width="900" height="497" viewBox="0 0 900 497">
  <defs>
    <clipPath id="clip-path">
      <path id="Tracciato_147801" data-name="Tracciato 147801" d="M900,0V496.223H0V0"/>
    </clipPath>
    <clipPath id="clip-path-2">
      <path id="Tracciato_147802" data-name="Tracciato 147802" d="M469.5,265.8h0a15.077,15.077,0,0,0-13,7.5h0a14.9,14.9,0,0,0,0,15h0a15.077,15.077,0,0,0,13,7.5h0a15.077,15.077,0,0,0,13-7.5h0a14.9,14.9,0,0,0,0-15h0A15.077,15.077,0,0,0,469.5,265.8Z" transform="translate(-454.475 -265.8)"/>
    </clipPath>
    <clipPath id="clip-path-3">
      <path id="Tracciato_147810" data-name="Tracciato 147810" d="M457.5,258.4h0a5.043,5.043,0,0,0-4.3,2.5h0a4.967,4.967,0,0,0,0,5h0a5.043,5.043,0,0,0,4.3,2.5h0a5.043,5.043,0,0,0,4.3-2.5h0a4.967,4.967,0,0,0,0-5h0A4.837,4.837,0,0,0,457.5,258.4Z" transform="translate(-452.525 -258.4)"/>
    </clipPath>
    <clipPath id="clip-path-4">
      <path id="Tracciato_147812" data-name="Tracciato 147812" d="M487.7,261.3h0a5.043,5.043,0,0,0-4.3,2.5h0a4.967,4.967,0,0,0,0,5h0a5.043,5.043,0,0,0,4.3,2.5h0a5.043,5.043,0,0,0,4.3-2.5h0a4.967,4.967,0,0,0,0-5h0A5.043,5.043,0,0,0,487.7,261.3Z" transform="translate(-482.725 -261.3)"/>
    </clipPath>
    <clipPath id="clip-path-5">
      <path id="Tracciato_147816" data-name="Tracciato 147816" d="M545.8,303.4h0a12.473,12.473,0,0,0-10.8,6.2h0a12.662,12.662,0,0,0,0,12.5h0a12.384,12.384,0,0,0,10.8,6.2h0a12.473,12.473,0,0,0,10.8-6.2h0a12.662,12.662,0,0,0,0-12.5h0A12.473,12.473,0,0,0,545.8,303.4Z" transform="translate(-533.35 -303.4)"/>
    </clipPath>
    <clipPath id="clip-path-6">
      <path id="Tracciato_147817" data-name="Tracciato 147817" d="M545.8,305.9h0a10.035,10.035,0,0,0-8.7,5h0a9.934,9.934,0,0,0,0,10h0a10.035,10.035,0,0,0,8.7,5h0a10.035,10.035,0,0,0,8.7-5h0a9.934,9.934,0,0,0,0-10h0A10.035,10.035,0,0,0,545.8,305.9Z" transform="translate(-535.75 -305.9)"/>
    </clipPath>
    <clipPath id="clip-path-7">
      <path id="Tracciato_147821" data-name="Tracciato 147821" d="M445.5,280.4h0a5.043,5.043,0,0,0-4.3,2.5h0a4.967,4.967,0,0,0,0,5h0a5.043,5.043,0,0,0,4.3,2.5h0a5.043,5.043,0,0,0,4.3-2.5h0a4.967,4.967,0,0,0,0-5h0A4.837,4.837,0,0,0,445.5,280.4Z" transform="translate(-440.525 -280.4)"/>
    </clipPath>
    <clipPath id="clip-path-8">
      <path id="Tracciato_147823" data-name="Tracciato 147823" d="M487.1,213.6h0a15.077,15.077,0,0,0-13,7.5h0a14.9,14.9,0,0,0,0,15h0a15.077,15.077,0,0,0,13,7.5h0a15.077,15.077,0,0,0,13-7.5h0a14.9,14.9,0,0,0,0-15h0A15.077,15.077,0,0,0,487.1,213.6Z" transform="translate(-472.075 -213.6)"/>
    </clipPath>
    <clipPath id="clip-slide-02">
      <rect width="900" height="497"/>
    </clipPath>
  </defs>
  <g id="slide-02" clip-path="url(#clip-slide-02)">
    <g id="slide_02">
      <g id="Livello_3">
        <g id="Raggruppa_23844" data-name="Raggruppa 23844">
          <g id="Raggruppa_23843" data-name="Raggruppa 23843">
            <g id="Raggruppa_23842" data-name="Raggruppa 23842" opacity="0.4" clip-path="url(#clip-path)">
              <path id="Tracciato_147776" data-name="Tracciato 147776" d="M592.172-2c-1.948,6.387-4.763,20.026-6.062,24.9a3.558,3.558,0,0,1-1.407,2.273c-1.191.758-2.706.217-3.464.108a23.45,23.45,0,0,0-10.933-.217c-3.464.974-5.629,3.464-7.145,5.2a6.811,6.811,0,0,0-1.84,2.815c-.325,1.407.217,2.165.758,5.846.325,2.273.325,3.139-.217,3.789a2.386,2.386,0,0,1-1.948.65c-5.521.325-6.82,1.84-12.665,1.083-2.815-.325-3.572-.866-3.789-1.407-.325-.541,0-1.624.541-3.789a10.48,10.48,0,0,0,.541-2.057c.108-1.516-.758-2.6-2.165-4.438-2.49-3.572-3.681-5.3-3.248-6.5a11.322,11.322,0,0,1,2.165-3.248.4.4,0,0,0,.216-.325c.108-.433-.325-.974-.649-1.516C540.32,20.3,539.779,19.542,540,19c.108-.433.541-.433,1.948-1.3.758-.433,1.083-.65,1.191-.866.758-1.191-1.083-3.572-1.407-4.005C538.48,8.5,535.016.923,533.5-1.784Z" transform="translate(44.02 -0.165)" fill="none" stroke="#444" stroke-width="0.43"/>
              <path id="Tracciato_147777" data-name="Tracciato 147777" d="M352.412-2.092c-.325.974-.65,4.005-1.083,4.98-2.382,4.763-3.789,10.067-8.227,13.64a2.39,2.39,0,0,0-.216,3.789c2.706,2.6,1.082,3.248-1.516,3.572a3.112,3.112,0,0,0-1.948.758c-1.407,1.407-4.222,2.6-3.356,4.438.974,2.057,3.681,1.083,5.737.108,2.6-1.191,8.335.974,10.392,3.681a13.416,13.416,0,0,0,2.382,3.031c3.031,2.6,5.088,5.629,5.2,9.851.108,5.3,3.681,9.851,3.9,15.155.108,1.624,1.407,1.624,2.382,1.949,6.82,2.165,10.176,8.552,14.939,12.99,2.273,2.165,1.407,6.928.541,10.176-.325,1.516-.541,2.273.541,2.923,2.057,1.407,2.815,3.464,3.681,5.629.974,2.382.974,4.33-1.3,6.062-1.3.974-2.382,2.382-.541,3.9a2.983,2.983,0,0,0,4.547-.216c3.572-3.681,8.011-1.407,11.583-.758,3.139.65,5.846,3.464,5.954,7.9.217,7.686-3.248,13.315-9.31,17.428-2.49,1.732-1.948,5.954-5.629,6.712-.325.108.433,1.3,1.083,1.516,2.057.758,3.9,2.382,6.5,1.949.974-.108,2.49-.866,2.815.866.325,1.407.325,3.248-1.191,3.789-3.681,1.3-5.954,4.763-9.743,5.954-3.248.974-6.17,2.057-9.851,1.516-5.521-.866-11.258,1.516-16.454-.541-1.407,2.273,2.382,2.6.433,4.114-1.191.974-2.382,0-3.464-.866-1.84-1.516-3.9-1.84-5.846-.325-3.356,2.6-6.82,2.273-10.392.541-5.521-2.706-10.5-.65-12.341,5.088-.866,2.6-1.732,5.413-5.954,3.139-4.871-2.706-12.665-.758-15.7,3.789-1.3,1.949-1.84,3.139-3.789,1.083-1.082-1.083-2.49.217-3.681-.433,0-.325-.108-.758,0-.758,6.387-2.057,8.227-8.768,13.1-12.449a6.686,6.686,0,0,0,1.516-3.031c.974-4.005,4.871-5.3,7.361-7.794,1.624-1.624,4.547-.974,6.928-.325,3.464.974,6.82,1.191,8.335-3.248.325-.866,1.3-1.516,1.949-2.273s2.6-.974,1.407-2.49c-.866-1.083-2.165-.325-3.139.216a24.5,24.5,0,0,0-2.165,1.407c-3.464,2.815-5.954,2.706-8.768-.65-1.3-1.624-2.273-2.815-4.547-1.84-.866.433-1.624.108-2.382-1.083-1.84-3.031-4.438-3.031-7.253-1.191-1.84,1.191-4.222,2.273-5.2-.758-.758-2.273-2.815-5.3,2.057-6.387,2.706-.541,5.088-2.273,7.578-3.789,4.763-2.923,6.6-10.176,4.114-15.155-.866-1.732-2.165-1.624-3.572-1.516-1.191.216-1.948,1.732-3.464,1.191-.758-1.191.108-1.84.758-2.165,3.464-1.949,4.763-4.005.758-6.82a1.722,1.722,0,0,1-.108-2.923c.758-.65,1.949-1.624,2.6-.65,2.815,4.114,6.82,2.165,10.176,1.732,2.165-.216,4.98,1.407,6.279-.541,1.84-2.923,2.273-6.5,2.165-10.067,0-1.624-.433-2.923,1.516-3.9,1.732-.866.758-2.815.65-4.33-.217-1.732-1.732-1.624-2.923-1.732-5.088-.758-8.335-7.578-5.737-12.016.325-.541.866-.974.866-1.407.325-1.84,2.165-4.005.866-5.413-1.949-2.273-3.248.758-4.98,1.516-2.706,1.083-5.088,4.33-8.552,1.516-.758-.65-1.3.433-1.84,1.191-.65.866-9.634-1.949-9.959-2.923a2.2,2.2,0,0,1,.541-1.949c2.923-3.464,3.139-8.227,6.279-11.691,1.191-1.3.217-2.706-.65-3.9a15.554,15.554,0,0,1-1.949-2.706c-.65-1.191-.325-4.005-1.624-3.356-2.165.974-5.737-1.083-6.6,3.139-.541,2.49-1.624,4.871-1.624,7.469,0,1.3-.108,2.923-1.84,2.815-1.84-.217-.758-1.84-.541-2.815,1.407-6.82,1.624-13.64,2.057-20.568.216-3.248,2.165-6.387,3.356-9.634a4.687,4.687,0,0,1,.108-.541,4.687,4.687,0,0,0-.541.108,6.094,6.094,0,0,0-4.114,4.005c-1.083,4.114-4.114,4.114-7.578,4.438,4.005-1.84-4.871-6.712,2.273-7.9a1.373,1.373,0,0,0,.65-.108c-.108-.108-.108-.217-.217-.325-.108-.974-2.6-1.624.325-3.031,3.356-1.624,2.165-8.335,3.9-11.583Z" transform="translate(24.302 -0.182)" fill="none" stroke="#444" stroke-width="0.43"/>
              <path id="Tracciato_147778" data-name="Tracciato 147778" d="M246.656,128.494c.325-.866.758-1.84,1.083-2.706-.866-1.191-1.84.217-2.706-.216-1.407-.65-3.356-.866-3.572-2.49-.108-1.3,1.516-1.84,2.706-2.273.974-.433,2.6-.758,2.273-2.165-.433-1.732-2.057-.974-3.248-.758-.974.108-2.273.758-2.49-.541s.974-1.949,2.165-2.165a10.433,10.433,0,0,1,2.6,0c.974.108,2.815.65,2.6-.216-.866-4.33,5.521-6.17,4.438-7.794-1.84-2.706,0-3.031.866-4.222,3.031-4.005,1.3-8.444-2.382-11.8-.108-.108-.216-.108-.325-.216-6.5-3.789-6.712-6.17-.974-10.933.866-.65,2.382-.758,1.949-2.273-.433-1.3-1.732-.649-2.6-.649-2.923-.216-2.923-.216-1.624-3.139a4.387,4.387,0,0,0,0-1.191c.108-1.624-2.165-3.681.866-4.871a9.672,9.672,0,0,1,8.119,0c2.923,1.407,6.17-.325,9.2.541.217-3.681,3.789-4.655,5.521-7.145.974-1.3.108-2.165-1.407-2.165A28.364,28.364,0,0,1,266.682,59c-.974-.108-2.273.108-2.49-1.083-.216-.974.974-1.3,1.516-1.84,1.191-.974,2.706-1.949,2.706-3.681,0-4.655,3.464-5.737,6.928-6.928,2.815-.974,5.846-.758,8.335-2.923,1.407-1.3,3.031-.108,4.005,1.191,1.3,1.624-.433,1.84-1.3,2.382-.866.65-1.84,1.3-.866,2.382a1.444,1.444,0,0,0,2.49-.325c1.949-2.706,5.3-2.273,7.9-3.464.866-.325,2.273.217,3.248.65,1.732.758,6.387,9.634,5.954,11.583-.325,1.516.541,1.624,1.407,2.165,3.681,2.165,3.9,7.036.108,8.768-2.057.974-3.248,1.949-3.9,4.005-.108.433-.758.866-1.191,1.3-1.3,1.407-4.547.758-4.547,2.49,0,2.706,1.84,5.3,2.057,8.119.433,6.279,3.139,12.341,1.083,19.052-1.3,4.114-3.9,7.794-4.005,12.232a1.409,1.409,0,0,1-1.84,1.3c-2.273-.758-4.222.758-6.17.758-8.444-.216-12.882,6.82-19.269,10.176a43.571,43.571,0,0,1-15.372,4.655c-3.464.433-3.572-1.407-1.624-3.789C250.012,127.2,248.5,128.819,246.656,128.494Z" transform="translate(19.859 3.464)" fill="none" stroke="#444" stroke-width="0.43"/>
              <path id="Tracciato_147779" data-name="Tracciato 147779" d="M484.116,354.178a19.657,19.657,0,0,0,1.516-9.2c-.541-4.547-.216-9.634-2.923-13.964-2.382-3.789-1.948-4.114,2.49-4.655a8.446,8.446,0,0,0,5.846-3.248c.974-1.3,2.382-1.949,3.572-2.923,2.706-2.273,4.005-.866,4.98,1.732,1.84,4.871,4.438,9.093,2.273,15.263-1.407,4.005-.325,9.526-1.083,14.289-.433,2.6.108,6.712-4.98,4.438a2.235,2.235,0,0,0-3.139,1.516c-.65,2.382-1.516,4.005-4.33,3.356C486.173,360.132,484.116,357.1,484.116,354.178Z" transform="translate(39.711 26.325)" fill="none" stroke="#444" stroke-width="0.43"/>
              <path id="Tracciato_147780" data-name="Tracciato 147780" d="M579.436,369.883c-1.3,2.273-2.706,4.655-4.005,6.928-1.948,3.464-3.248,6.928-.649,10.717,2.273,3.356-.433,6.279-2.382,7.794-2.057,1.624-5.521.216-7.253-1.732a14.135,14.135,0,0,0-8.444-4.98c-2.6-.433-5.2-2.273-7.361-4.114a14.793,14.793,0,0,0-8.768-3.9c-3.789-.325-3.9-3.356-3.356-6.17.541-2.49,2.165-3.681,4.763-1.949a1.48,1.48,0,0,0,1.949,0c2.815-3.139,5.2-1.083,7.9.433,4.222,2.382,9.2,1.083,12.774-.325,4.871-2.057,10.284.217,14.4-3.789A4.522,4.522,0,0,0,579.436,369.883Z" transform="translate(44.307 30.43)" fill="none" stroke="#444" stroke-width="0.43"/>
              <path id="Tracciato_147781" data-name="Tracciato 147781" d="M530.851,52.413c-2.382-3.139-4.114-6.82-8.877-6.928a2.046,2.046,0,0,1-1.948-2.382,9.228,9.228,0,0,0-1.407-7.686.9.9,0,0,1,.758-1.516c2.815,0,4.114-2.273,5.954-3.789,3.031-2.49,6.712-3.572,10.284-4.98,2.273-.974,3.9-.433,3.681,2.6-.108,1.083.541,2.273.541,3.356.108,2.382,2.273,5.629-3.031,5.846-1.84,0-4.438,2.49-1.191,4.871,2.057,1.516,1.948,2.6-.217,3.681-2.057.974-2.49,2.6-2.165,4.655.433,2.6,2.706,1.3,5.521,2.165-4.005,0-4.979,2.49-6.387,4.222a9,9,0,0,1-12.557,1.84c-1.624-1.191-1.624-2.6-.866-4.114.866-1.84,2.6-1.3,3.572-.325,3.248,3.464,5.2-1.083,7.9-.974a4.687,4.687,0,0,1,.541.108A1.374,1.374,0,0,0,530.851,52.413Z" transform="translate(42.772 2.037)" fill="none" stroke="#444" stroke-width="0.43"/>
              <path id="Tracciato_147782" data-name="Tracciato 147782" d="M497.721,290c.325,2.6.433,4.98,1.516,7.253a7.793,7.793,0,0,1,.108,5.846,31.246,31.246,0,0,0-2.382,9.851c0,1.516-.758,4.114-2.382,4.005-1.84-.108-4.222-1.083-4.763-3.464-.974-3.9-1.84-7.794-2.706-11.691-1.082-5.2,3.356-6.17,6.387-7.578C495.556,293.248,496.964,292.165,497.721,290Z" transform="translate(40.179 23.928)" fill="none" stroke="#444" stroke-width="0.43"/>
              <path id="Tracciato_147783" data-name="Tracciato 147783" d="M818.273,414.1c-.433,2.273-3.789,3.464-2.165,6.82.433.974-3.139,1.407-4.655,2.706a16.746,16.746,0,0,1-11.691,4.005,7.075,7.075,0,0,1-3.248-.974,4.92,4.92,0,0,1-2.815-4.005c-.108-2.057,2.165-2.273,3.356-2.706,2.165-.866,4.763-.65,5.954-3.356.217-.433,1.624-.758,2.382-.541,4.547.974,8.66-.541,12.882-1.949Z" transform="translate(65.489 34.168)" fill="none" stroke="#444" stroke-width="0.43"/>
              <path id="Tracciato_147784" data-name="Tracciato 147784" d="M702.567,422.63a9.588,9.588,0,0,1-7.036-2.165c-3.356-2.6-7.9-1.949-11.908-2.923-1.407-.325-3.031-.217-2.923-2.273.108-2.165,1.624-2.165,3.356-2.165,2.165.108,4.547-.758,5.846,1.948.216.541,1.624.866,2.273.758,4.438-.65,8.66.217,12.99.974,2.057.325,4.547-.758,5.737,2.273.541,1.407,2.273.217,3.464,0,1.083-.217,2.49-1.083,2.923.433s-1.083,2.057-2.49,2.165C710.794,422.089,706.681,422.413,702.567,422.63Z" transform="translate(56.165 34.082)" fill="none" stroke="#444" stroke-width="0.43"/>
              <path id="Tracciato_147785" data-name="Tracciato 147785" d="M614.264-2c-.974,1.407-1.948,4.98-2.706,6.82-.325-1.624-.649-5.3-.758-6.82Z" transform="translate(50.398 -0.165)" fill="none" stroke="#444" stroke-width="0.43"/>
              <path id="Tracciato_147786" data-name="Tracciato 147786" d="M406.1,348.089a16.052,16.052,0,0,1,7.578-6.17c2.706-1.191,4.114,2.273,6.062,3.464,1.732,1.082-1.083,3.572-2.057,5.3-1.191,2.165-2.815.866-4.33.108C410.971,349.713,409.889,346.249,406.1,348.089Z" transform="translate(33.508 28.192)" fill="none" stroke="#444" stroke-width="0.43"/>
              <path id="Tracciato_147787" data-name="Tracciato 147787" d="M595.592,0c-2.165,6.928-4.438,14.073-6.928,21.975C585.416,12.341,592.453,6.712,595.592,0Z" transform="translate(48.502)" fill="none" stroke="#444" stroke-width="0.43"/>
              <path id="Tracciato_147788" data-name="Tracciato 147788" d="M693,372.705c-.325.217-.541.541-.866.65-.758.217-1.624.108-1.84-.65-1.3-3.9-5.413-4.763-7.794-7.469-.433-.541-1.84-.541-1.083-1.624.541-.758,1.191-1.732,2.382-1.407,1.516.433,3.139.974,3.9,2.382,1.516,2.6,1.191,6.279,5.088,7.253C692.891,371.839,693,372.272,693,372.705Z" transform="translate(56.206 29.881)" fill="none" stroke="#444" stroke-width="0.43"/>
              <path id="Tracciato_147789" data-name="Tracciato 147789" d="M719.1,355.115c-.325,1.516-1.191,2.273-2.49,1.949-2.165-.65-4.763-1.624-5.3-3.572-.325-1.3,2.49-2.706,4.222-2.49C717.8,351.218,718.338,353.491,719.1,355.115Z" transform="translate(58.688 28.96)" fill="none" stroke="#444" stroke-width="0.43"/>
              <path id="Tracciato_147790" data-name="Tracciato 147790" d="M300.138,25.917c-.325,3.356-3.356,5.521-3.9,8.768-.108.541-.758,1.191-1.3.758a10.766,10.766,0,0,1-3.031-3.248c-.541-.866.541-2.165,1.407-2.273,2.815-.541,4.547-2.706,6.6-4.222Z" transform="translate(24.074 2.121)" fill="none" stroke="#444" stroke-width="0.43"/>
              <path id="Tracciato_147791" data-name="Tracciato 147791" d="M740.323,399.5c-.974,3.356-2.382,5.737-5.3,7.361C734.044,402.423,735.993,400.583,740.323,399.5Z" transform="translate(60.627 32.963)" fill="none" stroke="#444" stroke-width="0.43"/>
              <path id="Tracciato_147792" data-name="Tracciato 147792" d="M318.749,65.73a4.262,4.262,0,0,1-3.248,3.9,1.04,1.04,0,0,1-1.3-1.191c.541-1.732,1.3-3.572,3.139-4.222C318.533,63.565,318.641,64.755,318.749,65.73Z" transform="translate(25.922 5.283)" fill="none" stroke="#444" stroke-width="0.43"/>
              <path id="Tracciato_147793" data-name="Tracciato 147793" d="M571.108,47.09c-.108,1.3-.758,1.949-1.732,1.84-1.624-.108-3.139-.758-3.572-2.49-.217-.974.325-1.949,1.3-1.84C568.835,44.709,570.025,46.008,571.108,47.09Z" transform="translate(46.681 3.679)" fill="none" stroke="#444" stroke-width="0.43"/>
              <path id="Tracciato_147794" data-name="Tracciato 147794" d="M307.192,34.2c1.516.433,1.516,1.84,1.84,3.031.217.758.217,1.949-.866,2.057-1.732.108-1.948-1.407-2.057-2.6C305.893,35.716,305.785,34.633,307.192,34.2Z" transform="translate(25.247 2.822)" fill="none" stroke="#444" stroke-width="0.43"/>
              <path id="Tracciato_147795" data-name="Tracciato 147795" d="M642.408,366.5c.433,1.732.758,3.139,1.083,4.655-1.624.541-3.248.541-3.681-1.083C639.161,368.232,641,367.583,642.408,366.5Z" transform="translate(52.78 30.24)" fill="none" stroke="#444" stroke-width="0.43"/>
              <path id="Tracciato_147796" data-name="Tracciato 147796" d="M711.2,370.032a52.682,52.682,0,0,1,.541-5.521c.108-.325,1.083-.108,1.3.541C713.365,366.676,713.69,368.408,711.2,370.032Z" transform="translate(58.682 30.064)" fill="none" stroke="#444" stroke-width="0.43"/>
              <path id="Tracciato_147797" data-name="Tracciato 147797" d="M430.763,341.977c-2.057.217-3.356-.866-4.763-1.84C427.732,339.7,429.681,338.729,430.763,341.977Z" transform="translate(35.15 28.026)" fill="none" stroke="#444" stroke-width="0.43"/>
              <path id="Tracciato_147798" data-name="Tracciato 147798" d="M585.949,465.378c-2.382-1.083-4.114-2.382-6.387-3.031-4.222-1.082-5.846.108-15.047-.325-1.516-.108-2.273-.108-2.923-.216-7.469-.866-8.119-4.114-15.372-5.846-1.948-.433-4.222-.758-4.871-2.382a32.506,32.506,0,0,1-1.083-3.248c-.108-.433-.216-.974-.541-1.083-.541-.217-1.083.433-1.84.65-1.407.541-2.6-.974-5.629-2.6-3.247-1.732-4.222-1.407-5.3-2.923a7.264,7.264,0,0,1-1.083-3.464c-.217-1.3-.65-4.33.866-6.279.974-1.3,1.949-1.191,3.9-2.057a17.072,17.072,0,0,0,9.2-11.475,9.809,9.809,0,0,0,.217-3.572c-.433-1.949-1.624-2.815-4.871-6.387-2.057-2.273-3.139-3.464-3.247-4.222-.541-2.815,1.624-6.5,3.247-7.686a9.073,9.073,0,0,0,1.84-1.84,3.729,3.729,0,0,0,.541-1.191c1.083-2.706,2.923-3.139,2.815-4.547a2.542,2.542,0,0,0-.974-1.516,2.08,2.08,0,0,0-1.3-.541c-1.3-.108-1.732,1.624-4.005,3.356-.974.758-2.165,1.732-3.247,1.407-.974-.325-1.3-1.516-1.949-3.031-.325-.758-2.165-4.98-4.98-6.387-2.923-1.516-6.5.108-8.66.974-2.706,1.191-2.49,1.84-5.413,3.464-1.948,1.082-8.119,4.547-13.315,2.706a31.68,31.68,0,0,0-4.655-1.949c-3.139-.866-4.33-.65-4.763-.541-1.84.541-1.732,1.624-3.356,2.057-2.057.433-4.438-.758-6.387-1.732-.866-.433-1.949-1.083-3.031-.758a2.223,2.223,0,0,0-1.191.866c-1.732,1.949-7.794,5.954-13.1,5.629a14.325,14.325,0,0,1-3.572-.866,61.756,61.756,0,0,0-18.186-2.6c-6.387.108-5.521,1.732-17.32,3.9-9.634,1.732-9.634.541-15.48,2.165-6.928,1.949-5.846,3.248-17.1,7.686-4.655,1.84-8.011,2.815-13.1,5.521a36.616,36.616,0,0,0-7.578,5.088c-2.382,2.057-2.057,2.382-3.572,3.572-5.2,4.222-13.964,5.521-17.753,2.057-.974-.974-.974-1.624-2.165-2.273-2.382-1.3-5.088-.108-7.794.541a32.494,32.494,0,0,1-11.042.541c-5.521-.65-13.531-3.572-14.4-7.794-.217-.758-.325-2.706-1.624-3.464a3.461,3.461,0,0,0-1.624-.217,7.186,7.186,0,0,0-4.655,1.732,6.953,6.953,0,0,0-1.407,2.165c-2.273,5.846-5.521,14.939-8.011,19.81a32.154,32.154,0,0,1-8.444,10.825c-3.139,2.49-4.114,2.165-10.5,5.3-4.871,2.382-17.537,9.743-20.026,16.671Z" transform="translate(21.016 31.711)" fill="none" stroke="#444" stroke-width="0.43"/>
              <path id="Tracciato_147799" data-name="Tracciato 147799" d="M675.642,460.927c-1.191-2.057-8.335-7.686-17.97-6.82-6.17.541-10.933,4.763-14.073,6.712Z" transform="translate(53.104 37.462)" fill="none" stroke="#444" stroke-width="0.43"/>
              <path id="Tracciato_147800" data-name="Tracciato 147800" d="M1049.317,264.747c.866-1.732,1.948-4.005,3.248-4.005.974,0,1.407,1.191,3.139,1.516a11.657,11.657,0,0,0,2.382-.217V-1.767L724.239-1.983c-1.191,1.84-2.815,5.521-4.871,5.954-3.572.65-6.82-2.165-8.335-3.464a23.946,23.946,0,0,1-.541-2.706H685.16c-.217.866-.649,4.33-1.516,7.253-2.382,7.145-3.031,8.119-3.681,10.5-3.139,11.475,5.088,22.3,3.789,29.877-.325,1.732-1.083,3.464-.866,6.5.108,1.516.433,2.706-.217,3.464-.541.65-1.407.758-3.9.541-4.33-.433-7.145-1.407-10.176-1.083a3.6,3.6,0,0,0-2.49,1.191,3.189,3.189,0,0,0-.541,1.407A4.052,4.052,0,0,0,666,60.477a4.626,4.626,0,0,0,1.3.974c.758.217,1.3.108,1.516.541a1.283,1.283,0,0,1,.108.866c-.217,1.3-2.706,1.949-4.33,2.815-4.114,1.949-3.681,4.33-6.82,5.088-1.624.433-3.031,0-5.521-.758-2.382-.649-5.2-1.516-6.6-3.9a26.775,26.775,0,0,1-1.407-3.248,12.836,12.836,0,0,0-1.84-3.464c-.325-.325-1.516-1.3-5.2-.974-3.139.325-5.2,1.407-8.011,2.706-9.31,4.547-14.289,6.387-16.238,8.877a8.4,8.4,0,0,1-1.948,1.732,6.9,6.9,0,0,1-3.139,1.083c-4.438.758-16.021,5.2-18.186,6.062s-3.464,1.407-5.088.866a12.075,12.075,0,0,1-4.871-3.681,3.217,3.217,0,0,0-1.407-1.191c-.541-.216-.866-.108-1.948,0-1.84.216-2.706.325-3.247-.108a2.655,2.655,0,0,1-.974-1.407,2.868,2.868,0,0,1-.108-1.407c.216-.65.758-.758,2.6-1.949.974-.541.974-.65,1.083-.866.325-.758-.216-1.191-.216-2.815,0-.65.108-.974-.108-1.083-.325-.216-.758.217-1.732.108a1.565,1.565,0,0,1-.758-.217c-.758-.541-.433-1.84-.866-2.057-.325-.108-.974.65-1.407,1.191-.974,1.516-.541,2.706-1.407,3.356-.433.325-.866.325-2.057.325-4.655-.216-5.413-.758-6.279-.108-.866.758-.541,1.84-1.949,2.815a2.45,2.45,0,0,1-1.083.541,40.058,40.058,0,0,0-9.418,4.547c-2.273,1.624-2.706,2.815-4.438,2.923-1.191.108-1.191-.433-3.031-.541-1.516,0-3.031.216-3.789-.433a4.8,4.8,0,0,1-.541-.65,3.028,3.028,0,0,1-.217-1.191c.217-.974,1.407-.974,2.6-2.273.108-.108,1.516-1.732.974-3.031a1.691,1.691,0,0,0-.649-.866c-.758-.433-1.84,0-2.273.108-2.706.974-4.871-1.407-10.825-3.248a2.212,2.212,0,0,1-.974-.541c-.758-.866-.108-2.273-.541-4.33a3.213,3.213,0,0,0-.433-1.191,3.266,3.266,0,0,0-.866-.866c-1.191-.974-1.84-1.407-1.732-1.84,0-.325.433-.433,1.84-1.516,1.083-.866,1.191-1.083,1.191-1.3.108-.974-1.516-1.949-1.624-2.057-2.165-1.3-4.114-.217-4.547-1.083-.541-.974,1.84-2.273,1.624-4.763A16.491,16.491,0,0,1,519.861,45c0-1.407.216-1.84.541-2.165a.925.925,0,0,1,.65-.325c.866,0,1.516,1.191,1.732,1.624,0,0,2.706,4.547,9.31,8.985a2.249,2.249,0,0,0,2.057.541,1.731,1.731,0,0,0,.974-1.407c2.057-6.062-.649-9.743-.649-9.743-1.083-1.516-3.464-3.681-5.521-3.248a12.229,12.229,0,0,0-3.464,1.191,2.067,2.067,0,0,1-.866.325,2.6,2.6,0,0,1-2.382-1.516,3.346,3.346,0,0,1-.108-2.273c1.3-4.98,5.413-7.253,7.036-11.475.216-.433.65-1.624,1.624-1.949.541-.217.866,0,2.273,0h1.949c1.624-.541,2.382-3.031,2.49-4.547a2.386,2.386,0,0,0-.325-1.949c-.541-.65-1.407-.758-3.356-.974-1.732-.217-2.49-.108-3.139-.758a1.294,1.294,0,0,1-.433-.866c-2.057-8.119.216-13.423.216-13.423.108-.325.325-2.815.433-3.031H511.85c-.325,0-.649,2.273-.974,2.273a14.277,14.277,0,0,0-3.356.541c-3.031.974-6.279,4.005-6.17,7.361,0,.108.108,2.923,1.732,3.789a7.773,7.773,0,0,0,3.572.325c.325,0,.541-.108.866.108.866.541.433,2.49.433,2.923-.108.65-.217,1.191-.65,1.407-.325.108-.65.108-1.732-.325a18.747,18.747,0,0,1-2.6-1.407c-1.082-.541-2.273-1.083-2.815-.65-.65.541-.325,1.949-.216,2.815.108.541.216.65.325,1.083a7.721,7.721,0,0,1-.216,3.139c-.433,2.165-.65,3.356-.108,4.33a14.571,14.571,0,0,0,1.732,2.165c.758.866.974,1.083,1.083,1.516.216.974-.541,1.84-1.083,2.49-1.083,1.516-2.706,4.547-2.165,6.712.216.65,1.3,1.516,3.356,3.248,3.031,2.49,3.248,2.273,3.789,3.139.216.433.541,1.083.108,6.928-.216,3.248-.433,4.114,0,5.521.108.541.217.541,1.516,3.464,1.84,4.222,2.057,4.763,1.732,5.413a8.361,8.361,0,0,1-2.273,2.6c-.108.108-.65.433-.65.866a.828.828,0,0,0,.216.541c.758.866,6.062,9.634,4.438,11.475-.758.866-2.057-.758-4.222,0-2.923.974-5.521,5.737-5.846,7.794,0,.216-.216,1.516-.974,1.84a2.319,2.319,0,0,1-.65.108,1.306,1.306,0,0,1-.866-.325c-.433-.433-.325-1.191-.325-1.84a5.486,5.486,0,0,0-.974-3.248c-.541-.65-1.407-.866-3.572-.758-4.222.108-6.387.216-7.9,1.624-2.6,2.382-1.3,6.387-3.031,6.82-1.082.325-1.732-1.3-3.789-2.382-5.846-3.139-14.181,2.6-14.939,3.139-1.949,1.407-3.572,2.6-3.681,4.33s1.3,2.49,2.6,6.5a10.588,10.588,0,0,1,.65,2.815c-.108,1.732-1.516,3.248-4.438,6.387-1.083,1.191-2.057,2.057-2.923,1.84a1.417,1.417,0,0,1-.866-.65,4.581,4.581,0,0,1,.433-5.521c.758-.758,1.624-.866,1.732-1.624,0-.325-.216-.65-.65-1.191-1.624-1.949-1.3-2.815-2.382-3.248a2.762,2.762,0,0,0-1.84-.108,2.253,2.253,0,0,0-1.407.758,3.79,3.79,0,0,0-.758,2.923c.217,3.789-4.005,12.449-7.9,17.753-1.516,2.057-3.031,3.572-2.706,5.629.325,2.165,2.49,3.681,2.057,4.114-.217.325-1.191-.325-3.464-.758-1.191-.216-3.248-.541-3.9.433a1.281,1.281,0,0,0-.108,1.083c.217.65,1.191.541,2.706,1.516a2.216,2.216,0,0,1,.866.866,1.516,1.516,0,0,1,0,1.191c-.433.541-2.273-.65-4.005-.974-2.706-.541-4.222,1.407-9.851,4.438a66.87,66.87,0,0,1-7.686,3.681c-6.17,2.382-7.794,1.84-9.093,3.789-1.3,2.057.108,3.248-.541,8.877-.325,3.139-.65,5.521-2.273,7.794-1.624,2.165-3.789,3.031-6.6,4.114-3.031,1.191-4.98,1.407-8.335,3.248-1.083.65-2.273,1.3-2.706,2.706a15.9,15.9,0,0,0-.325,2.815,9.394,9.394,0,0,1-.65,3.248c-.216.325-.974,1.191-4.438,1.3-4.763.216-5.846-1.083-11.042-1.624a3.994,3.994,0,0,1-2.165-.65c-.541-.433-.866-.866-1.84-3.139-1.083-2.382-.974-2.49-1.3-2.706s-.65-.217-4.98.65c-.758.108-1.082.217-1.3.541-.758.974.217,2.923.758,3.9,0,0,3.572,7.145,3.9,14.181.108,1.624-.108,3.139-.974,3.681-.758.433-1.624.108-2.706-.217-2.165-.541-4.655-.325-9.634.217-2.706.325-3.356.541-4.438.108-1.407-.65-1.624-1.84-2.923-2.923-1.624-1.407-3.681-1.407-5.846-1.516-4.33-.108-4.438,1.191-12.882,3.248-2.165.541-4.763,1.083-5.629,3.031a3.017,3.017,0,0,0-.217,1.624c.108.974.866,1.624,3.139,3.356s2.6,1.949,2.6,2.382c-.108,1.3-3.572,1.3-3.789,2.923-.216,1.3,2.165,3.248,4.33,3.572q.812.162.974,0c.974,0,12.232-.325,20.351,5.629,3.681,2.706,4.98,5.521,8.552,8.552a2.929,2.929,0,0,1,.974,1.191c1.191,2.057,0,4.005,0,5.737.108,3.248,4.114,3.464,9.418,9.418,2.49,2.815,4.547,5.2,4.33,8.119-.108,2.057-1.3,3.031-.541,4.655a15.366,15.366,0,0,0,3.356,3.789l.433.433a5.764,5.764,0,0,1,.866,1.732l.325.974a1.185,1.185,0,0,0-.433-.216l-.433-.216c-1.191-.758-2.273-1.407-3.031-1.191-.541.216-.866.866-1.191,2.815a25.856,25.856,0,0,0-.541,5.521c.217,4.005.758,7.145.758,7.469,1.082,6.82-1.84,13.1-4.005,17.753-2.057,4.438-3.572,7.578-6.82,8.768-1.732.65-3.789.325-7.686-.433-8.011-1.516-11.042-4.005-16.887-2.815a7.321,7.321,0,0,0-1.624.433c-4.655,1.083-9.418,1.191-22.3-1.083-6.6-1.191-5.737-1.3-7.361-1.3-3.139-.108-6.6.325-14.073.866a8.86,8.86,0,0,1-4.655-.65,21.108,21.108,0,0,1-2.49-1.516c-3.356-1.948-9.31-.758-12.016,2.49-1.191,1.407-.974,2.273-2.49,3.248-1.624,1.083-2.815.541-4.871,1.083-2.815.65-6.279,3.031-6.6,5.846-.216,2.382,1.949,4.655,3.464,6.387,1.407,1.516,1.84,1.407,2.49,2.49,1.3,2.273.433,4.871,0,6.82-.758,3.464,0,4.114.325,11.475.65,15.372.866,23.166-1.949,30.635-3.356,8.985-8.335,11.475-6.82,17,.758,2.706,3.572,8.227,6.712,8.444.65,0,2.165,0,2.706.866a1.565,1.565,0,0,1,0,1.407c-1.191,4.005-5.737,19.918-2.49,22.624,1.732,1.407,4.438-1.624,9.851,0a9.081,9.081,0,0,0,3.248.65,11.666,11.666,0,0,0,5.521-1.516c4.438-2.057,11.258-.325,14.614,2.815,3.031,2.815,1.3,4.98,4.763,9.31.974,1.191,5.088,6.387,10.067,6.062,3.681-.325,7.253-3.572,12.124-8.227l.325-.325a13.147,13.147,0,0,1,7.253-2.815s16.346-1.84,22.516-1.516a6.211,6.211,0,0,1,1.3.108c2.273.325,2.923.974,3.681.866,1.3-.108,1.84-1.949,3.031-4.438,2.165-4.438,3.248-6.712,5.521-7.9,1.083-.541,4.438-1.949,6.928-1.84a2.736,2.736,0,0,0,2.165-.65,2.126,2.126,0,0,0,.433-.974c.217-1.191,1.624-8.119,4.655-11.583a31.05,31.05,0,0,1,7.578-5.737,2.2,2.2,0,0,0,1.407-1.516c.108-.974-.866-1.732-1.3-2.057a20.993,20.993,0,0,1-5.521-8.877c-.65-2.706.758-4.98,2.923-8.552,3.464-5.737,10.717-13.207,12.232-15.8a3.81,3.81,0,0,0,.433-1.082c.433-1.516,0-2.49.108-3.356.217-1.949,4.114-3.139,4.871-3.248a93.369,93.369,0,0,0,21.975-10.284c3.681-2.273,5.521-3.572,6.279-5.846.758-2.49.108-5.413-1.3-11.366-.758-3.356-.866-2.923-.866-3.681-.108-4.33,3.464-5.846,10.176-13.423.65-.758,2.165-2.49,4.114-2.382a4.4,4.4,0,0,1,1.082.216c8.444,3.572,16.454,6.928,23.274,7.794,3.356.433,8.119.974,11.908-1.732,2.273-1.624,1.3-2.273,4.005-4.871,4.33-4.005,11.042-6.5,13.423-7.253a6.726,6.726,0,0,0,4.438-3.464c.974-1.84,4.222-5.954,7.794-6.928,4.114-1.083,8.985,1.948,10.933,3.248a26.679,26.679,0,0,0,4.438,2.6c2.165.974,2.815.974,3.68,1.624,2.6,1.732,2.923,5.413,3.031,6.6.758,5.846,5.413,12.124,12.341,21.326a101.747,101.747,0,0,0,18.836,18.511c5.3,3.9,7.9,5.846,10.933,5.846,1.732,0,4.871-.433,6.712,1.516a12.92,12.92,0,0,1,1.407,1.949c1.84,2.706,1.949,3.464,3.031,4.005s1.3,0,2.49.65a5.851,5.851,0,0,1,2.49,2.165c.433.65.541,1.3,1.191,1.516a1.464,1.464,0,0,0,.974,0,8.086,8.086,0,0,1,3.464.216c1.3.541.758,2.382,1.948,4.98.217.541,1.949,4.438,5.3,5.521,2.057.65,2.815-.217,4.222.65,1.191.758,1.3,1.949,2.382,5.2.541,1.732,1.3,3.464,1.948,5.088,3.031,8.335,3.9,9.418,3.139,10.717-.866,1.516-3.139,1.84-3.572,3.9,0,.216-.216.758-.325,1.516-.216,1.516,0,1.624-.108,2.273-.217.758-.433.758-2.057,3.031-.974,1.407-1.191,1.84-1.191,2.273a2.588,2.588,0,0,0,.649,1.949c.974,1.082,3.031.866,4.222.541,3.681-1.191,6.387-6.6,7.145-11.042.216-1.516.433-3.681,1.948-4.763a11.185,11.185,0,0,1,2.273-.758c2.382-.758,3.572-1.082,3.9-1.516,1.083-1.3.325-3.464-.217-5.2a8.318,8.318,0,0,0-1.84-3.464,14.674,14.674,0,0,0-3.572-2.057c-1.732-.866-2.706-1.191-3.031-2.165a2.068,2.068,0,0,1,0-1.407c1.516-5.846,2.273-8.66,4.979-11.691,1.407-1.516,2.165-1.949,3.031-1.84a7.58,7.58,0,0,1,2.382,1.3c1.191.866,1.083,1.083,1.732,1.516.866.541,1.3.541,4.33,1.191,2.49.541,2.815.65,3.139.974.974.758.866,1.624,1.624,3.031.974,2.057,3.248,4.33,4.438,4.005,1.3-.325,1.948-3.789,1.3-6.5s-2.6-4.871-8.335-8.335c-12.016-7.253-23.923-12.99-23.923-12.99-.649-.325-2.49-1.191-2.706-2.6-.108-1.407,1.407-3.248,1.516-3.356.541-.65,1.191-1.083,1.191-1.948a2.327,2.327,0,0,0-.325-1.083c-.758-1.083-2.815-.758-3.139-.758-2.815.217-15.155-5.088-26.63-17-11.042-11.475-6.387-13.423-16.129-21.758-.216-.216-9.743-8.444-9.31-13.1a7.413,7.413,0,0,1,1.191-3.464c1.191-1.516,2.273-1.407,2.706-2.49.433-1.3-1.083-2.165-2.273-5.2-.649-1.624-1.516-3.9-.649-5.521.649-1.083,1.624-1.191,4.33-2.057,4.222-1.407,3.464-1.732,7.361-2.923a23.877,23.877,0,0,1,8.011-.866,1.715,1.715,0,0,1,1.3.541c.541.758.108,2.273-.649,3.248-.649.866-1.3.974-1.624,1.84a2.85,2.85,0,0,0-.108,1.3c.325,2.382,1.3,5.3,3.572,9.526.216.325.541.974,1.083.974.433,0,.758-.216,1.407-.974a11.378,11.378,0,0,0,2.706-4.222,15.413,15.413,0,0,1,.541-1.732c.433-1.3.758-2.057,1.516-2.382a2.273,2.273,0,0,1,1.732,0c.325.108,1.083.325,1.3.974.216.433.108.758-.217,2.49-.325,1.624-.325,1.732-.216,1.949.433,1.083,2.057,1.732,2.6,1.407a.821.821,0,0,0,.217-.433c.216-.866-.649-1.407-.433-2.165a.653.653,0,0,1,.433-.541c.541-.217,1.407.866,1.516,1.082a5.967,5.967,0,0,1,.866,3.572,57.953,57.953,0,0,0,.758,6.062c.649,6.82,7.361,12.665,8.444,13.64,2.273,2.057,3.789,2.49,5.2,4.871.649,1.083,1.083,2.273,2.273,2.815,1.083.433,1.407-.217,3.464-.217.649,0,3.247.108,4.547,1.624a1.091,1.091,0,0,1,.325.974c-.216.65-1.191.433-1.84,1.191a2.286,2.286,0,0,0-.108,2.6,1.515,1.515,0,0,0,.974.65c.217.108.866.325,1.191,0,.433-.325.108-.866.217-1.948.216-1.3,1.083-2.6,1.84-2.6a4.688,4.688,0,0,1,.541.108c4.438,2.815,6.928,4.33,7.686,7.036a4.579,4.579,0,0,0,.974,1.949,5.107,5.107,0,0,0,1.84,1.3c3.248,1.3,14.939,9.093,22.3,15.7,1.948,1.732,3.464,3.248,4.222,5.629.541,1.84.433,3.356-.217,7.578-1.3,9.2-1.516,8.335-1.407,9.634.216,5.2,2.6,9.2,4.438,12.124a48.89,48.89,0,0,0,4.438,5.846c3.356,4.005,9.959,12.016,13.207,13.315.325.108,1.732.65,1.84,1.516,0,.325-.216.541-.216.65-.433.541-1.191.433-1.84.433a7.1,7.1,0,0,0-3.139,1.3c-1.732,1.191-2.382,3.681-1.948,3.9.433.325,2.057-2.382,3.681-1.948.649.108,1.3,1.082,2.382,2.815,1.191,1.949.974,2.057,1.624,2.6,1.191,1.083,2.706,1.3,4.438,1.516a6.258,6.258,0,0,0,2.49,0,1.63,1.63,0,0,1,.866-.108.335.335,0,0,1,.216.108h.433a5.982,5.982,0,0,0,.974-.108c.758-.108.866.108,1.516-.108.541-.108.541-.325.974-.325a3.059,3.059,0,0,1,1.732.433c1.84,1.083,8.011,1.407,12.99,2.706.541.108,1.732.541,1.948,1.3a1.24,1.24,0,0,1,0,.65c-.216.541-.974.758-1.516.866-1.84.541-1.84,1.407-3.031,1.516-.65.108-1.083-.108-3.139-1.3-3.464-2.057-4.979-3.031-6.6-2.706-.217,0-.325.108-.541.108-1.407.217-1.84-.758-3.248-.758-.216,0,0,0-1.732.217a9.952,9.952,0,0,0-4.114,1.191c-.433.217-4.33,2.273-4.114,4.655.108.974.758,1.083,2.6,3.031,1.948,2.057,4.005,4.222,4.114,6.712,0,1.083-.325,1.083-.325,2.923a12.8,12.8,0,0,0,.649,4.114c.325,1.083.649,1.84,1.191,1.949.325,0,.541-.217,1.732-1.407,1.407-1.407,1.624-1.516,1.84-1.624,1.191-.325,2.49,1.191,2.815,1.516,2.6,2.923,2.382,7.036,2.815,7.036s.433-3.572,1.732-4.547a3.71,3.71,0,0,1,1.3-.541,2.444,2.444,0,0,1,.974,0c1.516.325,3.464,3.464,3.9,3.248.541-.216-.108-4.871-1.949-10.825-.866-2.706-1.624-4.547-.974-4.98.758-.541,3.247.433,4.763,1.624a2.093,2.093,0,0,0,.974.541,2.879,2.879,0,0,0,2.706-1.516,1.945,1.945,0,0,0,.433-.974c-.108-.65-1.083-.65-1.948-1.083a5.383,5.383,0,0,1-2.815-5.521,4.453,4.453,0,0,1,.325-.866c.974-1.3,3.572-.65,4.438-.433,4.98,1.191,6.5,4.763,7.9,4.222,1.624-.758,1.948-6.712-1.083-9.31-1.3-1.191-2.165-.541-4.763-1.84-3.572-1.624-6.928-4.871-6.279-6.928a1.933,1.933,0,0,1,1.083-1.191c1.407-.541,3.031,1.516,4.33.866a1.432,1.432,0,0,0,.649-.866c.325-1.3-1.732-3.139-3.572-3.248h-3.356c-1.191-.433-.974-1.732-2.6-3.356a1.294,1.294,0,0,1-.433-.866,1.907,1.907,0,0,1,.541-1.407,6.833,6.833,0,0,1,1.083-.758c1.732-.541,3.464.866,3.681.541.541-.541-7.9-5.737-8.552-12.557-.649-5.954,4.871-11.366,5.088-11.258.108,0-.974,1.516-.541,3.031.433,1.407,1.732,2.057,2.815,2.6.216.108,4.547,2.273,7.9.216a2.8,2.8,0,0,0,1.3-1.191c.758-1.407-.108-3.681-.649-5.2-.217-.65-.433-1.082-.217-1.516.433-.758,1.84-.758,2.49-.758.974,0,9.31-.216,12.449-2.273a12.725,12.725,0,0,1,1.407-.866,8.928,8.928,0,0,1,2.815-1.083c.974-.108,1.516.217,2.815.65,2.382.758,2.49.433,7.036,1.84a5.788,5.788,0,0,1,2.6,1.191c1.191.974.866,1.516,1.732,2.382,1.516,1.407,4.222.974,6.279.65a10.389,10.389,0,0,1,2.923-.325c1.732.217,2.057,1.191,3.139,1.3,1.3,0,2.057-1.083,4.655-3.789,2.057-2.165,3.139-3.356,3.464-3.572,2.382-1.624,6.17-1.3,13.64-.758.541,0,.866.108,1.3.108a1.191,1.191,0,0,1,1.083-.65h.108l.108-.108c.108-.108.108-.216.216-.325l.108-.108h0c.108-.108.108-.325.217-.433v-.108a3.385,3.385,0,0,1,.433-2.057c0-.217.108-.433.108-.65v-.433a29.935,29.935,0,0,1-8.552-4.655c-1.516-1.191-2.815-2.923-2.6-4.763.65-5.088-3.031-8.119-5.413-11.583-1.516-2.273-1.083-3.248.433-4.438,2.382-1.84,3.139-4.005,3.248-6.928,0-4.763,2.057-6.928,6.712-7.9,1.732-.325,2.6-1.191,2.6-2.923-.108-2.6,1.083-5.2.758-7.578-.974-6.82,4.005-12.341,3.9-18.944,0-1.949,1.516-1.191,2.706-.217,3.789,3.356,6.5,2.49,7.686-2.49.758-3.248,2.49-6.5,0-9.851-.758-1.082-.433-2.382,1.516-3.248a26.163,26.163,0,0,0,11.908-10.284c.541-.866,1.407-1.732,1.407-2.6,0-5.846,4.438-6.279,8.335-6.279,4.655,0,9.959-2.165,14.181,2.382-1.3,1.732-3.9,0-4.114,1.732-.325,2.273.866,4.222,3.247,5.413a10.607,10.607,0,0,0,7.361,1.3,16.82,16.82,0,0,1,10.067.433c1.082.433,2.49.108,2.6,1.949a3.43,3.43,0,0,1-2.6,3.9c-4.763,1.407-8.444,4.547-12.449,8.119,5.3-2.057,7.036,5.3,12.124,3.789,1.3-.325,1.407,1.3,1.624,2.165a13.24,13.24,0,0,1-.108,8.444c-1.732,4.005.974,4.438,3.572,4.871,3.681.65,6.279-1.84,8.335-4.33,2.273-2.706,4.98-4.222,8.552-4.005,2.6.216,3.681-2.057,4.98-3.572,1.191-1.3,2.273-2.165,4.005-1.624s3.248,2.165,5.2,1.191c1.516-.758,3.789.216,4.763-1.407.866-1.516.866-3.572,2.382-5.088-4.33-2.923-8.011-.433-11.583.974-5.088,2.057-8.119.974-9.31-4.33-.433-1.84-1.732-2.49-3.139-3.248-2.165-1.191-4.763-3.356-4.655-5.088a6.9,6.9,0,0,1,5.2-5.521,5.727,5.727,0,0,0,2.273-1.191c6.712-6.712,15.8-7.686,24.248-10.067,3.031-.866,5.737-2.923,8.66-4.222a14.852,14.852,0,0,1,5.954-1.624,53.667,53.667,0,0,0,16.021-3.464c1.732-.65,3.139-1.3,4.114,1.083.866,2.057.433,3.031-1.84,3.681-2.706.866-4.547,3.464-7.686,3.356a2.456,2.456,0,0,0-.433.108c.649,5.954-4.871,2.165-6.82,4.222-.758.758-2.6.217-2.6,1.732s1.083,2.382,2.49,3.139c2.706,1.407,6.5,2.057,6.5,6.712-4.438-1.083-6.928.866-8.552,4.871-1.083,2.706-3.464,4.655-4.114,7.794-.541,2.49-3.572,3.356-6.062,2.6-2.057-.65-3.789-2.6-4.438,1.3,0,.325-1.191.433-1.84.65.108,1.191.758,1.083,1.3,1.083,4.438-.974,6.6,1.191,7.253,5.413.433,2.165,1.732,3.9,3.9,4.005,3.031,0,5.2.974,6.712,3.572a2.766,2.766,0,0,0,1.624,1.3c10.933,2.273,16.238,11.475,23.382,18.511,3.031,3.031,6.387,6.279,11.15,7.253,2.815.541,4.655,3.248,6.82,4.438,7.036,3.9,5.2,11.583,8.444,16.887,1.191,1.949.108,4.114-.866,6.062-3.464,6.5-9.743,9.2-16.021,12.016-5.088,2.273-9.634,1.949-14.722,0-3.031-1.191-6.928-.541-9.959.974-3.356,1.624-6.712,2.165-9.959.65-5.3-2.6-12.124-1.191-16.346-6.387a2.924,2.924,0,0,0-3.9-.541c-4.005,3.031-6.062,0-7.036-2.815-1.083-3.031-2.057-4.005-5.413-3.248-4.222.974-7.578-.433-8.985-5.088-.649-2.273-2.057-3.031-4.114-1.191-1.3,1.191-2.815.866-4.438.758-5.521-.433-11.475-2.057-16.562-.65-6.387,1.84-13.315,3.248-18.836,7.794-2.815,2.273-6.5,3.139-8.444,6.928-1.516,2.923-5.629,2.382-8.335,1.624-6.82-1.948-13.856.108-20.784-1.516-.758-.217-1.407-.325-2.165-.541h0c-.108.108-.216.108-.325.217l-.216.108c-.108.108-.325.217-.433.325a4.71,4.71,0,0,0-.758.65h0c0,.108-.108.108-.108.217a.378.378,0,0,0-.108.216v.108h0c0,.108,0,.216-.108.216h0v.217a.4.4,0,0,0,.108.325h0c0,.108,0,.108.108.217s.108.325.217.433h0c0,.108.108.108.108.216.108.108.216.325.325.433.325.325.541.65.866.974.108.108.108.217.216.325,2.706,1.191,4.547,2.706,4.33,3.464,0,.217-.217.325-4.763,1.624-1.624.433-2.706.758-2.814,1.3,0,.217.325.433,1.84,1.84.541.433.758.65.758.974,0,.541-.974.974-1.191,1.083-3.247,1.407-15.48-4.438-17-2.382-.649.758.758,2.382-.108,3.356-.541.541-1.624.433-2.923.108-3.789-.758-7.578-.866-11.258-1.949a4.585,4.585,0,0,0-2.273-.217,5.251,5.251,0,0,0-2.815,1.191,7.5,7.5,0,0,0-1.84,1.624c-1.407,1.732-.541,3.572-.758,7.578-.216,4.114-1.407,5.521-.541,6.279,1.083.974,4.33-.217,5.954-.758.325-.108.433-.108.866-.217a4.917,4.917,0,0,1,2.382-.217,1.755,1.755,0,0,1,.649.65c.325.758-.325,1.732-.866,2.6-.649.974-.758.866-.974,1.407-.217.65-.108,1.407.758,2.923,1.516,3.139,2.706,3.789,2.49,5.3a5.632,5.632,0,0,1-.649,1.516c-.974,2.057-1.407,2.273-1.407,3.031,0,.433.216.217.974,2.165.325.866.541,1.516.325,1.949a.808.808,0,0,1-.325.325c-.433.216-.758.108-1.949-.217l-.974-.217c-1.949-.758-2.382-3.789-3.031-3.681-.216,0-.325.325-.433.65-.541,1.516.216,2.382-.108,3.789-.325,1.3-1.082,1.516-.866,2.165s1.624.758,2.49.758c1.083.108,7.036.541,9.093,3.681a5.181,5.181,0,0,1,.758,3.789c-.325,1.407-1.191,1.516-1.3,2.706-.108,1.624,1.516,3.031,2.6,4.005,1.624,1.516,3.031,1.949,3.139,3.139a2.585,2.585,0,0,1-.216.974c-.758,2.057-3.789,2.6-3.681,2.923.108.217,3.248-.433,6.6-.758.649-.108,6.387-.65,6.6.433.216.758-2.49,1.407-2.706,3.356-.108,1.082.541,2.382,1.3,2.49.65.108.866-.974,1.949-1.624.433-.216,1.407-.65,5.629.541,2.6.758,3.9,1.191,4.438,1.624,1.407,1.516,1.083,3.464,3.248,5.521a4.8,4.8,0,0,1,.649.541c3.031,2.273,11.15,3.681,14.939-.325a13.968,13.968,0,0,0,3.464-6.712,4.219,4.219,0,0,1,1.191-2.815,2.816,2.816,0,0,1,1.948-.325c6.5.758,19.918,9.31,19.918,9.31,4.98,3.248,7.469,4.763,8.444,4.871,4.655.541,10.067-2.706,20.784-9.2,3.139-1.949,4.871-3.139,7.361-3.031,4.222.108,6.279,3.464,9.31,2.273a24.68,24.68,0,0,0,4.547-2.923c1.191-.866,1.949-1.516,3.031-1.3a3.331,3.331,0,0,1,2.057,1.624,3.538,3.538,0,0,1,.649,2.273c-.108.758-.541,1.083-2.273,2.706-2.273,2.273-2.49,2.49-2.49,2.815-.108.433-.108.758.433,3.681.216,1.3.433,2.057.541,2.49.649,2.923-.108,8.335-.541,11.475-1.191,9.093-.974,11.691-2.923,17.97a6.926,6.926,0,0,0-.217.758c-2.273,6.928-4.114,11.042-5.954,15.372-1.84,4.655-3.356,10.933-4.222,13.748h182.836V325.151l-.325-.325c-2.923-3.681-5.737-7.361-6.495-12.882-.108-.974-1.3-8.985.216-12.557.108-.325.866-1.84.217-3.031-.325-.65-.758-.758-1.407-1.3-1.3-1.082-1.407-2.382-1.948-3.681-.65-1.407-1.732-2.382-3.789-4.438-3.572-3.356-5.2-3.356-5.413-4.871-.325-1.624,1.407-2.273,3.789-5.521C1044.987,273.516,1046.61,270.16,1049.317,264.747ZM589.466,84.509c0,.325-.433,1.3-1.949,1.083a9.524,9.524,0,0,1-1.624-.541c-1.732-.758-3.789-1.083-5.2-2.6-.433-.541.433-1.083.866-1.191,2.382-.433,4.655.108,7.036.541C589.358,81.911,589.574,82.777,589.466,84.509Z" transform="translate(20.854 -0.182)" fill="none" stroke="#444" stroke-width="0.43"/>
            </g>
          </g>
        </g>
      </g>
      <g id="Livello_4" transform="translate(358.646 7.542)">
        <g id="Sanremo_1_" transform="translate(57.598 223.927)">
          <g id="Raggruppa_23849" data-name="Raggruppa 23849" transform="translate(78.877 34.33)">
            <g id="Raggruppa_23845" data-name="Raggruppa 23845">
              <path id="SVGID_3_" d="M469.5,265.8h0a15.077,15.077,0,0,0-13,7.5h0a14.9,14.9,0,0,0,0,15h0a15.077,15.077,0,0,0,13,7.5h0a15.077,15.077,0,0,0,13-7.5h0a14.9,14.9,0,0,0,0-15h0A15.077,15.077,0,0,0,469.5,265.8Z" transform="translate(-454.475 -265.8)" fill="#ed6826"/>
            </g>
            <g id="Raggruppa_23847" data-name="Raggruppa 23847">
              <g id="Raggruppa_23846" data-name="Raggruppa 23846" clip-path="url(#clip-path-2)">
                <line id="Linea_7009" data-name="Linea 7009" x2="59.5" y2="59.5" transform="translate(-11.975 10.6)" fill="none" stroke="#00ffb6" stroke-miterlimit="10" stroke-width="1"/>
                <line id="Linea_7010" data-name="Linea 7010" x2="59.5" y2="59.5" transform="translate(-9.975 9.6)" fill="none" stroke="#00ffb6" stroke-miterlimit="10" stroke-width="1"/>
                <line id="Linea_7011" data-name="Linea 7011" x2="59.5" y2="59.5" transform="translate(-7.975 8.6)" fill="none" stroke="#00ffb6" stroke-miterlimit="10" stroke-width="1"/>
                <line id="Linea_7012" data-name="Linea 7012" x2="59.5" y2="59.5" transform="translate(-5.975 7.6)" fill="none" stroke="#00ffb6" stroke-miterlimit="10" stroke-width="1"/>
                <line id="Linea_7013" data-name="Linea 7013" x2="59.5" y2="59.5" transform="translate(-3.975 6.6)" fill="none" stroke="#00ffb6" stroke-miterlimit="10" stroke-width="1"/>
                <line id="Linea_7014" data-name="Linea 7014" x2="59.5" y2="59.5" transform="translate(-1.975 5.6)" fill="none" stroke="#00ffb6" stroke-miterlimit="10" stroke-width="1"/>
                <line id="Linea_7015" data-name="Linea 7015" x2="59.5" y2="59.5" transform="translate(0.025 4.6)" fill="none" stroke="#00ffb6" stroke-miterlimit="10" stroke-width="1"/>
                <line id="Linea_7016" data-name="Linea 7016" x2="59.5" y2="59.5" transform="translate(2.025 3.6)" fill="none" stroke="#00ffb6" stroke-miterlimit="10" stroke-width="1"/>
                <line id="Linea_7017" data-name="Linea 7017" x2="59.5" y2="59.5" transform="translate(4.025 2.6)" fill="none" stroke="#00ffb6" stroke-miterlimit="10" stroke-width="1"/>
                <line id="Linea_7018" data-name="Linea 7018" x2="59.5" y2="59.5" transform="translate(6.025 1.6)" fill="none" stroke="#00ffb6" stroke-miterlimit="10" stroke-width="1"/>
                <line id="Linea_7019" data-name="Linea 7019" x2="59.5" y2="59.5" transform="translate(8.025 0.6)" fill="none" stroke="#00ffb6" stroke-miterlimit="10" stroke-width="1"/>
                <line id="Linea_7020" data-name="Linea 7020" x2="59.5" y2="59.5" transform="translate(10.025 -0.4)" fill="none" stroke="#00ffb6" stroke-miterlimit="10" stroke-width="1"/>
                <line id="Linea_7021" data-name="Linea 7021" x2="59.5" y2="59.5" transform="translate(12.025 -1.4)" fill="none" stroke="#00ffb6" stroke-miterlimit="10" stroke-width="1"/>
                <line id="Linea_7022" data-name="Linea 7022" x2="59.5" y2="59.5" transform="translate(14.025 -2.4)" fill="none" stroke="#00ffb6" stroke-miterlimit="10" stroke-width="1"/>
                <line id="Linea_7023" data-name="Linea 7023" x2="59.5" y2="59.5" transform="translate(16.025 -3.4)" fill="none" stroke="#00ffb6" stroke-miterlimit="10" stroke-width="1"/>
                <line id="Linea_7024" data-name="Linea 7024" x2="59.5" y2="59.5" transform="translate(18.025 -4.4)" fill="none" stroke="#00ffb6" stroke-miterlimit="10" stroke-width="1"/>
                <line id="Linea_7025" data-name="Linea 7025" x2="59.5" y2="59.5" transform="translate(20.025 -5.4)" fill="none" stroke="#00ffb6" stroke-miterlimit="10" stroke-width="1"/>
                <line id="Linea_7026" data-name="Linea 7026" x2="59.5" y2="59.5" transform="translate(22.025 -6.4)" fill="none" stroke="#00ffb6" stroke-miterlimit="10" stroke-width="1"/>
                <line id="Linea_7027" data-name="Linea 7027" x2="59.5" y2="59.5" transform="translate(24.025 -7.4)" fill="none" stroke="#00ffb6" stroke-miterlimit="10" stroke-width="1"/>
                <line id="Linea_7028" data-name="Linea 7028" x2="59.5" y2="59.5" transform="translate(26.025 -8.4)" fill="none" stroke="#00ffb6" stroke-miterlimit="10" stroke-width="1"/>
                <line id="Linea_7029" data-name="Linea 7029" x2="59.5" y2="59.5" transform="translate(28.025 -9.4)" fill="none" stroke="#00ffb6" stroke-miterlimit="10" stroke-width="1"/>
                <line id="Linea_7030" data-name="Linea 7030" x2="59.5" y2="59.5" transform="translate(30.025 -10.4)" fill="none" stroke="#00ffb6" stroke-miterlimit="10" stroke-width="1"/>
                <line id="Linea_7031" data-name="Linea 7031" x2="59.5" y2="59.5" transform="translate(31.525 -11.9)" fill="none" stroke="#00ffb6" stroke-miterlimit="10" stroke-width="1"/>
                <line id="Linea_7032" data-name="Linea 7032" x2="59.5" y2="59.5" transform="translate(33.025 -13.4)" fill="none" stroke="#00ffb6" stroke-miterlimit="10" stroke-width="1"/>
                <line id="Linea_7033" data-name="Linea 7033" x2="59.5" y2="59.5" transform="translate(34.525 -14.9)" fill="none" stroke="#00ffb6" stroke-miterlimit="10" stroke-width="1"/>
              </g>
            </g>
            <g id="Raggruppa_23848" data-name="Raggruppa 23848">
              <path id="Tracciato_147803" data-name="Tracciato 147803" d="M469.5,265.8h0a15.077,15.077,0,0,0-13,7.5h0a14.9,14.9,0,0,0,0,15h0a15.077,15.077,0,0,0,13,7.5h0a15.077,15.077,0,0,0,13-7.5h0a14.9,14.9,0,0,0,0-15h0A15.077,15.077,0,0,0,469.5,265.8Z" transform="translate(-454.475 -265.8)" fill="none" stroke="#d34709" stroke-miterlimit="10" stroke-width="0.25"/>
            </g>
          </g>
          <circle id="Ellisse_33206" data-name="Ellisse 33206" cx="2" cy="2" r="2" transform="translate(91.302 59.63)" fill="#d34709"/>
          <g id="Raggruppa_23850" data-name="Raggruppa 23850" transform="translate(106.28 79.861)">
            <text id="Serenella" transform="translate(0 8)" font-size="8" font-family="HKGrotesk-LightItalic, HK Grotesk" font-weight="300" font-style="italic"><tspan x="0" y="0">Serenella</tspan></text>
          </g>
          <path id="Tracciato_147804" data-name="Tracciato 147804" d="M468.9,293.1V309a7.6,7.6,0,0,0,7.6,7.6h.8" transform="translate(-375.598 -231.47)" fill="none" stroke="#d34709" stroke-miterlimit="10" stroke-width="0.5"/>
          <circle id="Ellisse_33207" data-name="Ellisse 33207" cx="2" cy="2" r="2" transform="translate(92.202 39.73)" fill="#d34709"/>
          <g id="Raggruppa_23851" data-name="Raggruppa 23851" transform="translate(12.076 11.434)">
            <text id="Strada_di_San_Pietro" data-name="Strada di San Pietro" transform="translate(0 8)" font-size="8" font-family="HKGrotesk-LightItalic, HK Grotesk" font-weight="300" font-style="italic"><tspan x="0" y="0">Strada di San Pietro</tspan></text>
          </g>
          <path id="Tracciato_147805" data-name="Tracciato 147805" d="M469.8,273.2V257.3a7.6,7.6,0,0,0-7.6-7.6h-.8" transform="translate(-375.598 -231.47)" fill="none" stroke="#d34709" stroke-miterlimit="10" stroke-width="0.5"/>
          <circle id="Ellisse_33208" data-name="Ellisse 33208" cx="2" cy="2" r="2" transform="translate(97.702 51.13)" fill="#d34709"/>
          <g id="Raggruppa_23852" data-name="Raggruppa 23852" transform="translate(101.7 63.484)">
            <text id="Ponte_di_Baragallo" data-name="Ponte di Baragallo" transform="translate(0 8)" font-size="8" font-family="HKGrotesk-LightItalic, HK Grotesk" font-weight="300" font-style="italic"><tspan x="0" y="0">Ponte di Baragallo</tspan></text>
          </g>
          <path id="Tracciato_147806" data-name="Tracciato 147806" d="M475.3,284.6v15.9" transform="translate(-375.598 -231.47)" fill="none" stroke="#d34709" stroke-miterlimit="10" stroke-width="0.5"/>
          <circle id="Ellisse_33209" data-name="Ellisse 33209" cx="2" cy="2" r="2" transform="translate(97.702 43.53)" fill="#00c185"/>
          <g id="Raggruppa_23853" data-name="Raggruppa 23853" transform="translate(9.052)">
            <text id="Mulattiera_di_Tasciaire" data-name="Mulattiera di Tasciaire" transform="translate(0 8)" font-size="8" font-family="HKGrotesk-LightItalic, HK Grotesk" font-weight="300" font-style="italic"><tspan x="0" y="0">Mulattiera di Tasciaire</tspan></text>
          </g>
          <path id="Tracciato_147807" data-name="Tracciato 147807" d="M475.3,277V245.8a7.576,7.576,0,0,0-7.6-7.5h-.8" transform="translate(-375.598 -231.47)" fill="none" stroke="#00c185" stroke-miterlimit="10" stroke-width="0.5"/>
          <circle id="Ellisse_33210" data-name="Ellisse 33210" cx="2" cy="2" r="2" transform="translate(84.802 54.73)" fill="#d34709"/>
          <g id="Raggruppa_23854" data-name="Raggruppa 23854" transform="translate(30.944 68.92)">
            <text id="Caffè_Melina" data-name="Caffè Melina" transform="translate(0 8)" font-size="8" font-family="HKGrotesk-LightItalic, HK Grotesk" font-weight="300" font-style="italic"><tspan x="0" y="0">Caffè Melina</tspan></text>
          </g>
          <path id="Tracciato_147808" data-name="Tracciato 147808" d="M462.4,288.2V299a7.6,7.6,0,0,1-7.6,7.6H454" transform="translate(-375.598 -231.47)" fill="none" stroke="#d34709" stroke-miterlimit="10" stroke-width="0.5"/>
          <circle id="Ellisse_33211" data-name="Ellisse 33211" cx="2" cy="2" r="2" transform="translate(87.102 39.93)" fill="#00c185"/>
          <g id="Raggruppa_23855" data-name="Raggruppa 23855" transform="translate(-5 88.919)">
            <text id="Strada_di_San_Giovanni" data-name="Strada di San Giovanni" transform="translate(0 8)" font-size="8" font-family="HKGrotesk-LightItalic, HK Grotesk" font-weight="300" font-style="italic"><tspan x="0" y="0">Strada di San Giovanni</tspan></text>
          </g>
          <path id="Tracciato_147809" data-name="Tracciato 147809" d="M464.7,273.4v44.7a7.858,7.858,0,0,1-7.9,7.6H456" transform="translate(-375.598 -231.47)" fill="none" stroke="#00c185" stroke-miterlimit="10" stroke-width="0.5"/>
          <g id="Raggruppa_23856" data-name="Raggruppa 23856" transform="translate(112.909 41.751)">
            <text id="Sanremo" transform="translate(0 10)" font-size="10" font-family="HKGrotesk-Light, HK Grotesk" font-weight="300"><tspan x="0" y="0">Sanremo</tspan></text>
          </g>
        </g>
        <g id="S.Giovanni_2_" transform="translate(73.421 247.843)">
          <g id="Cannes_3_">
            <g id="Raggruppa_23857" data-name="Raggruppa 23857">
              <text id="San_Giovanni" data-name="San Giovanni" transform="translate(0 10)" font-size="10" font-family="HKGrotesk-Light, HK Grotesk" font-weight="300"><tspan x="0" y="0">San Giovanni</tspan></text>
            </g>
            <g id="Raggruppa_23862" data-name="Raggruppa 23862" transform="translate(61.104 3.014)">
              <g id="Raggruppa_23858" data-name="Raggruppa 23858">
                <path id="SVGID_5_" d="M457.5,258.4h0a5.043,5.043,0,0,0-4.3,2.5h0a4.967,4.967,0,0,0,0,5h0a5.043,5.043,0,0,0,4.3,2.5h0a5.043,5.043,0,0,0,4.3-2.5h0a4.967,4.967,0,0,0,0-5h0A4.837,4.837,0,0,0,457.5,258.4Z" transform="translate(-452.525 -258.4)" fill="#f7f8f9"/>
              </g>
              <g id="Raggruppa_23860" data-name="Raggruppa 23860">
                <g id="Raggruppa_23859" data-name="Raggruppa 23859" clip-path="url(#clip-path-3)">
                  <line id="Linea_7034" data-name="Linea 7034" x2="59.5" y2="59.5" transform="translate(-40.925 -7)" fill="none" stroke="#00ffb6" stroke-miterlimit="10" stroke-width="1"/>
                  <line id="Linea_7035" data-name="Linea 7035" x2="59.5" y2="59.5" transform="translate(-38.925 -8)" fill="none" stroke="#00ffb6" stroke-miterlimit="10" stroke-width="1"/>
                  <line id="Linea_7036" data-name="Linea 7036" x2="59.5" y2="59.5" transform="translate(-36.925 -9)" fill="none" stroke="#00ffb6" stroke-miterlimit="10" stroke-width="1"/>
                  <line id="Linea_7037" data-name="Linea 7037" x2="59.5" y2="59.5" transform="translate(-34.925 -10)" fill="none" stroke="#00ffb6" stroke-miterlimit="10" stroke-width="1"/>
                  <line id="Linea_7038" data-name="Linea 7038" x2="59.5" y2="59.5" transform="translate(-32.925 -11)" fill="none" stroke="#00ffb6" stroke-miterlimit="10" stroke-width="1"/>
                  <line id="Linea_7039" data-name="Linea 7039" x2="59.5" y2="59.5" transform="translate(-30.925 -12)" fill="none" stroke="#00ffb6" stroke-miterlimit="10" stroke-width="1"/>
                  <line id="Linea_7040" data-name="Linea 7040" x2="59.5" y2="59.5" transform="translate(-28.925 -13)" fill="none" stroke="#00ffb6" stroke-miterlimit="10" stroke-width="1"/>
                  <line id="Linea_7041" data-name="Linea 7041" x2="59.5" y2="59.5" transform="translate(-26.925 -14)" fill="none" stroke="#00ffb6" stroke-miterlimit="10" stroke-width="1"/>
                  <line id="Linea_7042" data-name="Linea 7042" x2="59.5" y2="59.5" transform="translate(-24.925 -15)" fill="none" stroke="#00ffb6" stroke-miterlimit="10" stroke-width="1"/>
                  <line id="Linea_7043" data-name="Linea 7043" x2="59.5" y2="59.5" transform="translate(-22.925 -16)" fill="none" stroke="#00ffb6" stroke-miterlimit="10" stroke-width="1"/>
                  <line id="Linea_7044" data-name="Linea 7044" x2="59.5" y2="59.5" transform="translate(-20.925 -17)" fill="none" stroke="#00ffb6" stroke-miterlimit="10" stroke-width="1"/>
                  <line id="Linea_7045" data-name="Linea 7045" x2="59.5" y2="59.5" transform="translate(-18.925 -18)" fill="none" stroke="#00ffb6" stroke-miterlimit="10" stroke-width="1"/>
                  <line id="Linea_7046" data-name="Linea 7046" x2="59.5" y2="59.5" transform="translate(-16.925 -19)" fill="none" stroke="#00ffb6" stroke-miterlimit="10" stroke-width="1"/>
                  <line id="Linea_7047" data-name="Linea 7047" x2="59.5" y2="59.5" transform="translate(-14.925 -20)" fill="none" stroke="#00ffb6" stroke-miterlimit="10" stroke-width="1"/>
                  <line id="Linea_7048" data-name="Linea 7048" x2="59.5" y2="59.5" transform="translate(-12.925 -21)" fill="none" stroke="#00ffb6" stroke-miterlimit="10" stroke-width="1"/>
                  <line id="Linea_7049" data-name="Linea 7049" x2="59.5" y2="59.5" transform="translate(-10.925 -22)" fill="none" stroke="#00ffb6" stroke-miterlimit="10" stroke-width="1"/>
                  <line id="Linea_7050" data-name="Linea 7050" x2="59.5" y2="59.5" transform="translate(-8.925 -23)" fill="none" stroke="#00ffb6" stroke-miterlimit="10" stroke-width="1"/>
                  <line id="Linea_7051" data-name="Linea 7051" x2="59.5" y2="59.5" transform="translate(-6.925 -24)" fill="none" stroke="#00ffb6" stroke-miterlimit="10" stroke-width="1"/>
                  <line id="Linea_7052" data-name="Linea 7052" x2="59.5" y2="59.5" transform="translate(-4.925 -25)" fill="none" stroke="#00ffb6" stroke-miterlimit="10" stroke-width="1"/>
                  <line id="Linea_7053" data-name="Linea 7053" x2="59.5" y2="59.5" transform="translate(-2.925 -26)" fill="none" stroke="#00ffb6" stroke-miterlimit="10" stroke-width="1"/>
                  <line id="Linea_7054" data-name="Linea 7054" x2="59.5" y2="59.5" transform="translate(-0.925 -27)" fill="none" stroke="#00ffb6" stroke-miterlimit="10" stroke-width="1"/>
                  <line id="Linea_7055" data-name="Linea 7055" x2="59.5" y2="59.5" transform="translate(1.075 -28)" fill="none" stroke="#00ffb6" stroke-miterlimit="10" stroke-width="1"/>
                  <line id="Linea_7056" data-name="Linea 7056" x2="59.5" y2="59.5" transform="translate(2.575 -29.5)" fill="none" stroke="#00ffb6" stroke-miterlimit="10" stroke-width="1"/>
                  <line id="Linea_7057" data-name="Linea 7057" x2="59.5" y2="59.5" transform="translate(4.075 -31)" fill="none" stroke="#00ffb6" stroke-miterlimit="10" stroke-width="1"/>
                  <line id="Linea_7058" data-name="Linea 7058" x2="59.5" y2="59.5" transform="translate(5.575 -32.5)" fill="none" stroke="#00ffb6" stroke-miterlimit="10" stroke-width="1"/>
                </g>
              </g>
              <g id="Raggruppa_23861" data-name="Raggruppa 23861">
                <path id="Tracciato_147811" data-name="Tracciato 147811" d="M457.5,258.4h0a5.043,5.043,0,0,0-4.3,2.5h0a4.967,4.967,0,0,0,0,5h0a5.043,5.043,0,0,0,4.3,2.5h0a5.043,5.043,0,0,0,4.3-2.5h0a4.967,4.967,0,0,0,0-5h0A4.837,4.837,0,0,0,457.5,258.4Z" transform="translate(-452.525 -258.4)" fill="none" stroke="#00c185" stroke-miterlimit="10" stroke-width="0.25"/>
              </g>
            </g>
          </g>
        </g>
        <g id="Genova_2_" transform="translate(164.725 233.098)">
          <g id="Raggruppa_23863" data-name="Raggruppa 23863" transform="translate(16.224 9.623)">
            <text id="Genova-Brignole" transform="translate(0 8)" font-size="8" font-family="HKGrotesk-LightItalic, HK Grotesk" font-weight="300" font-style="italic"><tspan x="0" y="0">Genova-Brignole</tspan></text>
          </g>
          <g id="Raggruppa_23864" data-name="Raggruppa 23864" transform="translate(16.224)">
            <text id="Stazione_Principe" data-name="Stazione Principe" transform="translate(0 8)" font-size="8" font-family="HKGrotesk-LightItalic, HK Grotesk" font-weight="300" font-style="italic"><tspan x="0" y="0">Stazione Principe</tspan></text>
          </g>
          <g id="Raggruppa_23865" data-name="Raggruppa 23865" transform="translate(15.223 21.114)">
            <text id="Genova" transform="translate(0 10)" font-size="10" font-family="HKGrotesk-Light, HK Grotesk" font-weight="300"><tspan x="0" y="0">Genova</tspan></text>
          </g>
          <g id="Raggruppa_23870" data-name="Raggruppa 23870" transform="translate(0 20.659)">
            <g id="Raggruppa_23866" data-name="Raggruppa 23866">
              <path id="SVGID_7_" d="M487.7,261.3h0a5.043,5.043,0,0,0-4.3,2.5h0a4.967,4.967,0,0,0,0,5h0a5.043,5.043,0,0,0,4.3,2.5h0a5.043,5.043,0,0,0,4.3-2.5h0a4.967,4.967,0,0,0,0-5h0A5.043,5.043,0,0,0,487.7,261.3Z" transform="translate(-482.725 -261.3)" fill="#f7f8f9"/>
            </g>
            <g id="Raggruppa_23868" data-name="Raggruppa 23868">
              <g id="Raggruppa_23867" data-name="Raggruppa 23867" clip-path="url(#clip-path-4)">
                <line id="Linea_7059" data-name="Linea 7059" x2="59.5" y2="59.5" transform="translate(-39.525 -11.9)" fill="none" stroke="#ed6826" stroke-miterlimit="10" stroke-width="1"/>
                <line id="Linea_7060" data-name="Linea 7060" x2="59.5" y2="59.5" transform="translate(-37.525 -12.9)" fill="none" stroke="#ed6826" stroke-miterlimit="10" stroke-width="1"/>
                <line id="Linea_7061" data-name="Linea 7061" x2="59.5" y2="59.5" transform="translate(-35.525 -13.9)" fill="none" stroke="#ed6826" stroke-miterlimit="10" stroke-width="1"/>
                <line id="Linea_7062" data-name="Linea 7062" x2="59.5" y2="59.5" transform="translate(-33.525 -14.9)" fill="none" stroke="#ed6826" stroke-miterlimit="10" stroke-width="1"/>
                <line id="Linea_7063" data-name="Linea 7063" x2="59.5" y2="59.5" transform="translate(-31.525 -15.9)" fill="none" stroke="#ed6826" stroke-miterlimit="10" stroke-width="1"/>
                <line id="Linea_7064" data-name="Linea 7064" x2="59.5" y2="59.5" transform="translate(-29.525 -16.9)" fill="none" stroke="#ed6826" stroke-miterlimit="10" stroke-width="1"/>
                <line id="Linea_7065" data-name="Linea 7065" x2="59.5" y2="59.5" transform="translate(-27.525 -17.9)" fill="none" stroke="#ed6826" stroke-miterlimit="10" stroke-width="1"/>
                <line id="Linea_7066" data-name="Linea 7066" x2="59.5" y2="59.5" transform="translate(-25.525 -18.9)" fill="none" stroke="#ed6826" stroke-miterlimit="10" stroke-width="1"/>
                <line id="Linea_7067" data-name="Linea 7067" x2="59.5" y2="59.5" transform="translate(-23.525 -19.9)" fill="none" stroke="#ed6826" stroke-miterlimit="10" stroke-width="1"/>
                <line id="Linea_7068" data-name="Linea 7068" x2="59.5" y2="59.5" transform="translate(-21.525 -20.9)" fill="none" stroke="#ed6826" stroke-miterlimit="10" stroke-width="1"/>
                <line id="Linea_7069" data-name="Linea 7069" x2="59.5" y2="59.5" transform="translate(-19.525 -21.9)" fill="none" stroke="#ed6826" stroke-miterlimit="10" stroke-width="1"/>
                <line id="Linea_7070" data-name="Linea 7070" x2="59.5" y2="59.5" transform="translate(-17.525 -22.9)" fill="none" stroke="#ed6826" stroke-miterlimit="10" stroke-width="1"/>
                <line id="Linea_7071" data-name="Linea 7071" x2="59.5" y2="59.5" transform="translate(-15.525 -23.9)" fill="none" stroke="#ed6826" stroke-miterlimit="10" stroke-width="1"/>
                <line id="Linea_7072" data-name="Linea 7072" x2="59.5" y2="59.5" transform="translate(-13.525 -24.9)" fill="none" stroke="#ed6826" stroke-miterlimit="10" stroke-width="1"/>
                <line id="Linea_7073" data-name="Linea 7073" x2="59.5" y2="59.5" transform="translate(-11.525 -25.9)" fill="none" stroke="#ed6826" stroke-miterlimit="10" stroke-width="1"/>
                <line id="Linea_7074" data-name="Linea 7074" x2="59.5" y2="59.5" transform="translate(-9.525 -26.9)" fill="none" stroke="#ed6826" stroke-miterlimit="10" stroke-width="1"/>
                <line id="Linea_7075" data-name="Linea 7075" x2="59.5" y2="59.5" transform="translate(-7.525 -27.9)" fill="none" stroke="#ed6826" stroke-miterlimit="10" stroke-width="1"/>
                <line id="Linea_7076" data-name="Linea 7076" x2="59.5" y2="59.5" transform="translate(-5.525 -28.9)" fill="none" stroke="#ed6826" stroke-miterlimit="10" stroke-width="1"/>
                <line id="Linea_7077" data-name="Linea 7077" x2="59.5" y2="59.5" transform="translate(-3.525 -29.9)" fill="none" stroke="#ed6826" stroke-miterlimit="10" stroke-width="1"/>
                <line id="Linea_7078" data-name="Linea 7078" x2="59.5" y2="59.5" transform="translate(-1.525 -30.9)" fill="none" stroke="#ed6826" stroke-miterlimit="10" stroke-width="1"/>
                <line id="Linea_7079" data-name="Linea 7079" x2="59.5" y2="59.5" transform="translate(0.475 -31.9)" fill="none" stroke="#ed6826" stroke-miterlimit="10" stroke-width="1"/>
                <line id="Linea_7080" data-name="Linea 7080" x2="59.5" y2="59.5" transform="translate(2.475 -32.9)" fill="none" stroke="#ed6826" stroke-miterlimit="10" stroke-width="1"/>
                <line id="Linea_7081" data-name="Linea 7081" x2="59.5" y2="59.5" transform="translate(3.975 -34.4)" fill="none" stroke="#ed6826" stroke-miterlimit="10" stroke-width="1"/>
                <line id="Linea_7082" data-name="Linea 7082" x2="59.5" y2="59.5" transform="translate(5.475 -35.9)" fill="none" stroke="#ed6826" stroke-miterlimit="10" stroke-width="1"/>
                <line id="Linea_7083" data-name="Linea 7083" x2="59.5" y2="59.5" transform="translate(6.975 -37.4)" fill="none" stroke="#ed6826" stroke-miterlimit="10" stroke-width="1"/>
              </g>
            </g>
            <g id="Raggruppa_23869" data-name="Raggruppa 23869">
              <path id="Tracciato_147813" data-name="Tracciato 147813" d="M487.7,261.3h0a5.043,5.043,0,0,0-4.3,2.5h0a4.967,4.967,0,0,0,0,5h0a5.043,5.043,0,0,0,4.3,2.5h0a5.043,5.043,0,0,0,4.3-2.5h0a4.967,4.967,0,0,0,0-5h0A5.043,5.043,0,0,0,487.7,261.3Z" transform="translate(-482.725 -261.3)" fill="none" stroke="#d34709" stroke-miterlimit="10" stroke-width="0.25"/>
            </g>
          </g>
          <g id="Via_Toledo_2_" transform="translate(4.675 25.259)">
            <circle id="Ellisse_33212" data-name="Ellisse 33212" cx="2" cy="2" r="2" fill="#d34709"/>
          </g>
          <g id="Via_Toledo_1_" transform="translate(0.575 23.559)">
            <circle id="Ellisse_33213" data-name="Ellisse 33213" cx="2" cy="2" r="2" fill="#d34709"/>
          </g>
          <path id="Tracciato_147814" data-name="Tracciato 147814" d="M489.4,268.6V266c0-4.2,3.4-9.6,7.6-9.6h0" transform="translate(-482.725 -240.641)" fill="none" stroke="#d34709" stroke-miterlimit="10" stroke-width="0.5"/>
          <path id="Tracciato_147815" data-name="Tracciato 147815" d="M485.2,267.2v-3.9c0-6.8,5.5-14.3,12.3-14.3h0" transform="translate(-482.725 -240.641)" fill="none" stroke="#d34709" stroke-miterlimit="10" stroke-width="0.5"/>
        </g>
        <g id="Roma_2_" transform="translate(215.35 286.772)">
          <g id="Raggruppa_23874" data-name="Raggruppa 23874" transform="translate(0 9.085)" opacity="0.75">
            <g id="Raggruppa_23871" data-name="Raggruppa 23871">
              <path id="SVGID_9_" d="M545.8,303.4h0a12.473,12.473,0,0,0-10.8,6.2h0a12.662,12.662,0,0,0,0,12.5h0a12.384,12.384,0,0,0,10.8,6.2h0a12.473,12.473,0,0,0,10.8-6.2h0a12.662,12.662,0,0,0,0-12.5h0A12.473,12.473,0,0,0,545.8,303.4Z" transform="translate(-533.35 -303.4)" fill="#91919b" opacity="0.75"/>
            </g>
            <g id="Raggruppa_23873" data-name="Raggruppa 23873">
              <g id="Raggruppa_23872" data-name="Raggruppa 23872" clip-path="url(#clip-path-5)">
                <line id="Linea_7084" data-name="Linea 7084" x2="34.1" y2="34.1" transform="translate(-7.45 9.1)" fill="none"/>
                <line id="Linea_7085" data-name="Linea 7085" x2="34.1" y2="34.1" transform="translate(-7.45 6.9)" fill="none"/>
                <line id="Linea_7086" data-name="Linea 7086" x2="34.1" y2="34.1" transform="translate(-7.45 4.7)" fill="none"/>
                <line id="Linea_7087" data-name="Linea 7087" x2="34.1" y2="34.1" transform="translate(-7.45 2.5)" fill="none"/>
                <line id="Linea_7088" data-name="Linea 7088" x2="34.1" y2="34.1" transform="translate(-7.45 0.3)" fill="none"/>
                <line id="Linea_7089" data-name="Linea 7089" x2="34.1" y2="34.1" transform="translate(-7.45 -1.9)" fill="none"/>
                <line id="Linea_7090" data-name="Linea 7090" x2="34.1" y2="34.1" transform="translate(-7.45 -4.1)" fill="none"/>
                <line id="Linea_7091" data-name="Linea 7091" x2="34.1" y2="34.1" transform="translate(-7.45 -6.3)" fill="none"/>
                <line id="Linea_7092" data-name="Linea 7092" x2="34.1" y2="34.2" transform="translate(-7.45 -8.6)" fill="none"/>
                <line id="Linea_7093" data-name="Linea 7093" x2="34.1" y2="34.2" transform="translate(-7.45 -10.8)" fill="none"/>
                <line id="Linea_7094" data-name="Linea 7094" x2="34.1" y2="34.2" transform="translate(-7.45 -13)" fill="none"/>
                <line id="Linea_7095" data-name="Linea 7095" x2="34.1" y2="34.2" transform="translate(-7.45 -15.2)" fill="none"/>
                <line id="Linea_7096" data-name="Linea 7096" x2="34.1" y2="34.2" transform="translate(-7.45 -17.4)" fill="none"/>
                <line id="Linea_7097" data-name="Linea 7097" x2="34.1" y2="34.2" transform="translate(-7.45 -19.6)" fill="none"/>
                <line id="Linea_7098" data-name="Linea 7098" x2="34.1" y2="34.2" transform="translate(-7.45 -21.8)" fill="none"/>
                <line id="Linea_7099" data-name="Linea 7099" x2="34.1" y2="34.2" transform="translate(-7.45 -24)" fill="none"/>
              </g>
            </g>
          </g>
          <g id="Raggruppa_23879" data-name="Raggruppa 23879" transform="translate(2.4 11.585)">
            <g id="Raggruppa_23875" data-name="Raggruppa 23875">
              <path id="SVGID_11_" d="M545.8,305.9h0a10.035,10.035,0,0,0-8.7,5h0a9.934,9.934,0,0,0,0,10h0a10.035,10.035,0,0,0,8.7,5h0a10.035,10.035,0,0,0,8.7-5h0a9.934,9.934,0,0,0,0-10h0A10.035,10.035,0,0,0,545.8,305.9Z" transform="translate(-535.75 -305.9)" fill="#f7f8f9"/>
            </g>
            <g id="Raggruppa_23877" data-name="Raggruppa 23877">
              <g id="Raggruppa_23876" data-name="Raggruppa 23876" clip-path="url(#clip-path-6)">
                <line id="Linea_7100" data-name="Linea 7100" x2="59.5" y2="59.5" transform="translate(-26.35 -6)" fill="none" stroke="#ed6826" stroke-miterlimit="10" stroke-width="1"/>
                <line id="Linea_7101" data-name="Linea 7101" x2="59.5" y2="59.5" transform="translate(-24.35 -7)" fill="none" stroke="#ed6826" stroke-miterlimit="10" stroke-width="1"/>
                <line id="Linea_7102" data-name="Linea 7102" x2="59.5" y2="59.5" transform="translate(-22.35 -8)" fill="none" stroke="#ed6826" stroke-miterlimit="10" stroke-width="1"/>
                <line id="Linea_7103" data-name="Linea 7103" x2="59.5" y2="59.5" transform="translate(-20.35 -9)" fill="none" stroke="#ed6826" stroke-miterlimit="10" stroke-width="1"/>
                <line id="Linea_7104" data-name="Linea 7104" x2="59.5" y2="59.5" transform="translate(-18.35 -10)" fill="none" stroke="#ed6826" stroke-miterlimit="10" stroke-width="1"/>
                <line id="Linea_7105" data-name="Linea 7105" x2="59.5" y2="59.5" transform="translate(-16.35 -11)" fill="none" stroke="#ed6826" stroke-miterlimit="10" stroke-width="1"/>
                <line id="Linea_7106" data-name="Linea 7106" x2="59.5" y2="59.5" transform="translate(-14.35 -12)" fill="none" stroke="#ed6826" stroke-miterlimit="10" stroke-width="1"/>
                <line id="Linea_7107" data-name="Linea 7107" x2="59.5" y2="59.5" transform="translate(-12.35 -13)" fill="none" stroke="#ed6826" stroke-miterlimit="10" stroke-width="1"/>
                <line id="Linea_7108" data-name="Linea 7108" x2="59.5" y2="59.5" transform="translate(-10.35 -14)" fill="none" stroke="#ed6826" stroke-miterlimit="10" stroke-width="1"/>
                <line id="Linea_7109" data-name="Linea 7109" x2="59.5" y2="59.5" transform="translate(-8.35 -15)" fill="none" stroke="#ed6826" stroke-miterlimit="10" stroke-width="1"/>
                <line id="Linea_7110" data-name="Linea 7110" x2="59.5" y2="59.5" transform="translate(-6.35 -16)" fill="none" stroke="#ed6826" stroke-miterlimit="10" stroke-width="1"/>
                <line id="Linea_7111" data-name="Linea 7111" x2="59.5" y2="59.5" transform="translate(-4.35 -17)" fill="none" stroke="#ed6826" stroke-miterlimit="10" stroke-width="1"/>
                <line id="Linea_7112" data-name="Linea 7112" x2="59.5" y2="59.5" transform="translate(-2.35 -18)" fill="none" stroke="#ed6826" stroke-miterlimit="10" stroke-width="1"/>
                <line id="Linea_7113" data-name="Linea 7113" x2="59.5" y2="59.5" transform="translate(-0.35 -19)" fill="none" stroke="#ed6826" stroke-miterlimit="10" stroke-width="1"/>
                <line id="Linea_7114" data-name="Linea 7114" x2="59.5" y2="59.5" transform="translate(1.65 -20)" fill="none" stroke="#ed6826" stroke-miterlimit="10" stroke-width="1"/>
                <line id="Linea_7115" data-name="Linea 7115" x2="59.5" y2="59.5" transform="translate(3.65 -21)" fill="none" stroke="#ed6826" stroke-miterlimit="10" stroke-width="1"/>
                <line id="Linea_7116" data-name="Linea 7116" x2="59.5" y2="59.5" transform="translate(5.65 -22)" fill="none" stroke="#ed6826" stroke-miterlimit="10" stroke-width="1"/>
                <line id="Linea_7117" data-name="Linea 7117" x2="59.5" y2="59.5" transform="translate(7.65 -23)" fill="none" stroke="#ed6826" stroke-miterlimit="10" stroke-width="1"/>
                <line id="Linea_7118" data-name="Linea 7118" x2="59.5" y2="59.5" transform="translate(9.65 -24)" fill="none" stroke="#ed6826" stroke-miterlimit="10" stroke-width="1"/>
                <line id="Linea_7119" data-name="Linea 7119" x2="59.5" y2="59.5" transform="translate(11.65 -25)" fill="none" stroke="#ed6826" stroke-miterlimit="10" stroke-width="1"/>
                <line id="Linea_7120" data-name="Linea 7120" x2="59.5" y2="59.5" transform="translate(13.65 -26)" fill="none" stroke="#ed6826" stroke-miterlimit="10" stroke-width="1"/>
                <line id="Linea_7121" data-name="Linea 7121" x2="59.5" y2="59.5" transform="translate(15.65 -27)" fill="none" stroke="#ed6826" stroke-miterlimit="10" stroke-width="1"/>
                <line id="Linea_7122" data-name="Linea 7122" x2="59.5" y2="59.5" transform="translate(17.15 -28.5)" fill="none" stroke="#ed6826" stroke-miterlimit="10" stroke-width="1"/>
                <line id="Linea_7123" data-name="Linea 7123" x2="59.5" y2="59.5" transform="translate(18.65 -30)" fill="none" stroke="#ed6826" stroke-miterlimit="10" stroke-width="1"/>
                <line id="Linea_7124" data-name="Linea 7124" x2="59.5" y2="59.5" transform="translate(20.15 -31.5)" fill="none" stroke="#ed6826" stroke-miterlimit="10" stroke-width="1"/>
              </g>
            </g>
            <g id="Raggruppa_23878" data-name="Raggruppa 23878">
              <path id="Tracciato_147818" data-name="Tracciato 147818" d="M545.8,305.9h0a10.035,10.035,0,0,0-8.7,5h0a9.934,9.934,0,0,0,0,10h0a10.035,10.035,0,0,0,8.7,5h0a10.035,10.035,0,0,0,8.7-5h0a9.934,9.934,0,0,0,0-10h0A10.035,10.035,0,0,0,545.8,305.9Z" transform="translate(-535.75 -305.9)" fill="none" stroke="#d34709" stroke-miterlimit="10" stroke-width="0.25"/>
            </g>
          </g>
          <circle id="Ellisse_33214" data-name="Ellisse 33214" cx="2" cy="2" r="2" transform="translate(11.65 20.185)" fill="#d34709"/>
          <circle id="Ellisse_33215" data-name="Ellisse 33215" cx="2" cy="2" r="2" transform="translate(7.35 17.585)" fill="#91919b" opacity="0.75"/>
          <g id="Raggruppa_23880" data-name="Raggruppa 23880" transform="translate(20.35 28.223)">
            <text id="Stazione_Termini" data-name="Stazione Termini" transform="translate(0 8)" font-size="8" font-family="HKGrotesk-LightItalic, HK Grotesk" font-weight="300" font-style="italic"><tspan x="0" y="0">Stazione Termini</tspan></text>
          </g>
          <g id="Raggruppa_23881" data-name="Raggruppa 23881" transform="translate(20.35)">
            <text id="Senato" transform="translate(0 8)" font-size="8" font-family="HKGrotesk-LightItalic, HK Grotesk" font-weight="300" font-style="italic"><tspan x="0" y="0">Senato</tspan></text>
          </g>
          <path id="Tracciato_147819" data-name="Tracciato 147819" d="M547,316.5v8.3a4.793,4.793,0,0,0,4.7,5.1h0" transform="translate(-533.35 -294.315)" fill="none" stroke="#d34709" stroke-miterlimit="10" stroke-width="0.5"/>
          <path id="Tracciato_147820" data-name="Tracciato 147820" d="M542.7,311.9v-4.4a6.957,6.957,0,0,1,7-7h2" transform="translate(-533.35 -294.315)" fill="none" stroke="#91919b" stroke-miterlimit="10" stroke-width="0.5" opacity="0.75"/>
          <g id="Raggruppa_23882" data-name="Raggruppa 23882" transform="translate(29.35 12.563)">
            <text id="Rome" transform="translate(0 10)" font-size="10" font-family="HKGrotesk-Light, HK Grotesk" font-weight="300"><tspan x="0" y="0">Rome</tspan></text>
          </g>
        </g>
        <g id="Parigi_2_" transform="translate(116 167)">
          <circle id="Ellisse_33216" data-name="Ellisse 33216" cx="5" cy="5" r="5" transform="translate(0 2.058)" fill="#f7f8f9"/>
          <circle id="Ellisse_33217" data-name="Ellisse 33217" cx="5" cy="5" r="5" transform="translate(0 2.058)" fill="#91919b" opacity="0.75"/>
          <g id="Raggruppa_23883" data-name="Raggruppa 23883" transform="translate(13.345)">
            <text id="Paris" transform="translate(0 10)" font-size="10" font-family="HKGrotesk-Light, HK Grotesk" font-weight="300"><tspan x="0" y="0">Paris</tspan></text>
          </g>
        </g>
        <g id="Inghilterra_3_" transform="translate(37 91)">
          <circle id="Ellisse_33218" data-name="Ellisse 33218" cx="5" cy="5" r="5" transform="translate(0 2.058)" fill="#f7f8f9"/>
          <circle id="Ellisse_33219" data-name="Ellisse 33219" cx="5" cy="5" r="5" transform="translate(0 2.058)" fill="#91919b" opacity="0.75"/>
          <g id="Raggruppa_23884" data-name="Raggruppa 23884" transform="translate(14.345)">
            <text id="England" transform="translate(0 10)" font-size="10" font-family="HKGrotesk-Light, HK Grotesk" font-weight="300"><tspan x="0" y="0">England</tspan></text>
          </g>
        </g>
        <g id="Scozia_3_">
          <circle id="Ellisse_33220" data-name="Ellisse 33220" cx="5" cy="5" r="5" transform="translate(0 2.058)" fill="#f7f8f9"/>
          <circle id="Ellisse_33221" data-name="Ellisse 33221" cx="5" cy="5" r="5" transform="translate(0 2.058)" fill="#91919b" opacity="0.75"/>
          <g id="Raggruppa_23885" data-name="Raggruppa 23885" transform="translate(14.345)">
            <text id="Scotland" transform="translate(0 10)" font-size="10" font-family="HKGrotesk-Light, HK Grotesk" font-weight="300"><tspan x="0" y="0">Scotland</tspan></text>
          </g>
        </g>
        <g id="Bretagna_3_" transform="translate(37 182)">
          <circle id="Ellisse_33222" data-name="Ellisse 33222" cx="5" cy="5" r="5" transform="translate(0 2.058)" fill="#f7f8f9"/>
          <circle id="Ellisse_33223" data-name="Ellisse 33223" cx="5" cy="5" r="5" transform="translate(0 2.058)" fill="#91919b" opacity="0.75"/>
          <g id="Raggruppa_23886" data-name="Raggruppa 23886" transform="translate(14.345)">
            <text id="Brittany" transform="translate(0 10)" font-size="10" font-family="HKGrotesk-Light, HK Grotesk" font-weight="300"><tspan x="0" y="0">Brittany</tspan></text>
          </g>
        </g>
        <g id="Cannes_2_" transform="translate(91.421 269.843)">
          <g id="Raggruppa_23887" data-name="Raggruppa 23887" transform="translate(-5)">
            <text id="Cannes" transform="translate(0 10)" font-size="10" font-family="HKGrotesk-Light, HK Grotesk" font-weight="300"><tspan x="0" y="0">Cannes</tspan></text>
          </g>
          <g id="Raggruppa_23892" data-name="Raggruppa 23892" transform="translate(31.104 3.014)">
            <g id="Raggruppa_23888" data-name="Raggruppa 23888">
              <path id="SVGID_13_" d="M445.5,280.4h0a5.043,5.043,0,0,0-4.3,2.5h0a4.967,4.967,0,0,0,0,5h0a5.043,5.043,0,0,0,4.3,2.5h0a5.043,5.043,0,0,0,4.3-2.5h0a4.967,4.967,0,0,0,0-5h0A4.837,4.837,0,0,0,445.5,280.4Z" transform="translate(-440.525 -280.4)" fill="#f7f8f9"/>
            </g>
            <g id="Raggruppa_23890" data-name="Raggruppa 23890">
              <g id="Raggruppa_23889" data-name="Raggruppa 23889" clip-path="url(#clip-path-7)">
                <line id="Linea_7125" data-name="Linea 7125" x2="59.5" y2="59.5" transform="translate(-27.625 -8.6)" fill="none" stroke="#ed6826" stroke-miterlimit="10" stroke-width="1"/>
                <line id="Linea_7126" data-name="Linea 7126" x2="59.5" y2="59.5" transform="translate(-25.625 -9.6)" fill="none" stroke="#ed6826" stroke-miterlimit="10" stroke-width="1"/>
                <line id="Linea_7127" data-name="Linea 7127" x2="59.5" y2="59.5" transform="translate(-23.625 -10.6)" fill="none" stroke="#ed6826" stroke-miterlimit="10" stroke-width="1"/>
                <line id="Linea_7128" data-name="Linea 7128" x2="59.5" y2="59.5" transform="translate(-21.625 -11.6)" fill="none" stroke="#ed6826" stroke-miterlimit="10" stroke-width="1"/>
                <line id="Linea_7129" data-name="Linea 7129" x2="59.5" y2="59.5" transform="translate(-19.625 -12.6)" fill="none" stroke="#ed6826" stroke-miterlimit="10" stroke-width="1"/>
                <line id="Linea_7130" data-name="Linea 7130" x2="59.5" y2="59.5" transform="translate(-17.625 -13.6)" fill="none" stroke="#ed6826" stroke-miterlimit="10" stroke-width="1"/>
                <line id="Linea_7131" data-name="Linea 7131" x2="59.5" y2="59.5" transform="translate(-15.625 -14.6)" fill="none" stroke="#ed6826" stroke-miterlimit="10" stroke-width="1"/>
                <line id="Linea_7132" data-name="Linea 7132" x2="59.5" y2="59.5" transform="translate(-13.625 -15.6)" fill="none" stroke="#ed6826" stroke-miterlimit="10" stroke-width="1"/>
                <line id="Linea_7133" data-name="Linea 7133" x2="59.5" y2="59.5" transform="translate(-11.625 -16.6)" fill="none" stroke="#ed6826" stroke-miterlimit="10" stroke-width="1"/>
                <line id="Linea_7134" data-name="Linea 7134" x2="59.5" y2="59.5" transform="translate(-9.625 -17.6)" fill="none" stroke="#ed6826" stroke-miterlimit="10" stroke-width="1"/>
                <line id="Linea_7135" data-name="Linea 7135" x2="59.5" y2="59.5" transform="translate(-7.625 -18.6)" fill="none" stroke="#ed6826" stroke-miterlimit="10" stroke-width="1"/>
                <line id="Linea_7136" data-name="Linea 7136" x2="59.5" y2="59.5" transform="translate(-5.625 -19.6)" fill="none" stroke="#ed6826" stroke-miterlimit="10" stroke-width="1"/>
                <line id="Linea_7137" data-name="Linea 7137" x2="59.5" y2="59.5" transform="translate(-3.625 -20.6)" fill="none" stroke="#ed6826" stroke-miterlimit="10" stroke-width="1"/>
                <line id="Linea_7138" data-name="Linea 7138" x2="59.5" y2="59.5" transform="translate(-1.625 -21.6)" fill="none" stroke="#ed6826" stroke-miterlimit="10" stroke-width="1"/>
                <line id="Linea_7139" data-name="Linea 7139" x2="59.5" y2="59.5" transform="translate(0.375 -22.6)" fill="none" stroke="#ed6826" stroke-miterlimit="10" stroke-width="1"/>
                <line id="Linea_7140" data-name="Linea 7140" x2="59.5" y2="59.5" transform="translate(2.375 -23.6)" fill="none" stroke="#ed6826" stroke-miterlimit="10" stroke-width="1"/>
                <line id="Linea_7141" data-name="Linea 7141" x2="59.5" y2="59.5" transform="translate(4.375 -24.6)" fill="none" stroke="#ed6826" stroke-miterlimit="10" stroke-width="1"/>
                <line id="Linea_7142" data-name="Linea 7142" x2="59.5" y2="59.5" transform="translate(6.375 -25.6)" fill="none" stroke="#ed6826" stroke-miterlimit="10" stroke-width="1"/>
                <line id="Linea_7143" data-name="Linea 7143" x2="59.5" y2="59.5" transform="translate(8.375 -26.6)" fill="none" stroke="#ed6826" stroke-miterlimit="10" stroke-width="1"/>
                <line id="Linea_7144" data-name="Linea 7144" x2="59.5" y2="59.5" transform="translate(10.375 -27.6)" fill="none" stroke="#ed6826" stroke-miterlimit="10" stroke-width="1"/>
                <line id="Linea_7145" data-name="Linea 7145" x2="59.5" y2="59.5" transform="translate(12.375 -28.6)" fill="none" stroke="#ed6826" stroke-miterlimit="10" stroke-width="1"/>
                <line id="Linea_7146" data-name="Linea 7146" x2="59.5" y2="59.5" transform="translate(14.375 -29.6)" fill="none" stroke="#ed6826" stroke-miterlimit="10" stroke-width="1"/>
                <line id="Linea_7147" data-name="Linea 7147" x2="59.5" y2="59.5" transform="translate(15.875 -31.1)" fill="none" stroke="#ed6826" stroke-miterlimit="10" stroke-width="1"/>
                <line id="Linea_7148" data-name="Linea 7148" x2="59.5" y2="59.5" transform="translate(17.375 -32.6)" fill="none" stroke="#ed6826" stroke-miterlimit="10" stroke-width="1"/>
                <line id="Linea_7149" data-name="Linea 7149" x2="59.5" y2="59.5" transform="translate(18.875 -34.1)" fill="none" stroke="#ed6826" stroke-miterlimit="10" stroke-width="1"/>
              </g>
            </g>
            <g id="Raggruppa_23891" data-name="Raggruppa 23891">
              <path id="Tracciato_147822" data-name="Tracciato 147822" d="M445.5,280.4h0a5.043,5.043,0,0,0-4.3,2.5h0a4.967,4.967,0,0,0,0,5h0a5.043,5.043,0,0,0,4.3,2.5h0a5.043,5.043,0,0,0,4.3-2.5h0a4.967,4.967,0,0,0,0-5h0A4.837,4.837,0,0,0,445.5,280.4Z" transform="translate(-440.525 -280.4)" fill="none" stroke="#d34709" stroke-miterlimit="10" stroke-width="0.25"/>
            </g>
          </g>
        </g>
        <g id="Torino_1_" transform="translate(154.075 194.789)">
          <g id="Raggruppa_23897" data-name="Raggruppa 23897" transform="translate(0 11.269)">
            <g id="Raggruppa_23893" data-name="Raggruppa 23893">
              <path id="SVGID_15_" d="M487.1,213.6h0a15.077,15.077,0,0,0-13,7.5h0a14.9,14.9,0,0,0,0,15h0a15.077,15.077,0,0,0,13,7.5h0a15.077,15.077,0,0,0,13-7.5h0a14.9,14.9,0,0,0,0-15h0A15.077,15.077,0,0,0,487.1,213.6Z" transform="translate(-472.075 -213.6)" fill="#f7f8f9"/>
            </g>
            <g id="Raggruppa_23895" data-name="Raggruppa 23895">
              <g id="Raggruppa_23894" data-name="Raggruppa 23894" clip-path="url(#clip-path-8)">
                <line id="Linea_7150" data-name="Linea 7150" x2="59.5" y2="59.5" transform="translate(-32.575 13.6)" fill="none" stroke="#ed6826" stroke-miterlimit="10" stroke-width="1"/>
                <line id="Linea_7151" data-name="Linea 7151" x2="59.5" y2="59.5" transform="translate(-30.575 12.6)" fill="none" stroke="#ed6826" stroke-miterlimit="10" stroke-width="1"/>
                <line id="Linea_7152" data-name="Linea 7152" x2="59.5" y2="59.5" transform="translate(-28.575 11.6)" fill="none" stroke="#ed6826" stroke-miterlimit="10" stroke-width="1"/>
                <line id="Linea_7153" data-name="Linea 7153" x2="59.5" y2="59.5" transform="translate(-26.575 10.6)" fill="none" stroke="#ed6826" stroke-miterlimit="10" stroke-width="1"/>
                <line id="Linea_7154" data-name="Linea 7154" x2="59.5" y2="59.5" transform="translate(-24.575 9.6)" fill="none" stroke="#ed6826" stroke-miterlimit="10" stroke-width="1"/>
                <line id="Linea_7155" data-name="Linea 7155" x2="59.5" y2="59.5" transform="translate(-22.575 8.6)" fill="none" stroke="#ed6826" stroke-miterlimit="10" stroke-width="1"/>
                <line id="Linea_7156" data-name="Linea 7156" x2="59.5" y2="59.5" transform="translate(-20.575 7.6)" fill="none" stroke="#ed6826" stroke-miterlimit="10" stroke-width="1"/>
                <line id="Linea_7157" data-name="Linea 7157" x2="59.5" y2="59.5" transform="translate(-18.575 6.6)" fill="none" stroke="#ed6826" stroke-miterlimit="10" stroke-width="1"/>
                <line id="Linea_7158" data-name="Linea 7158" x2="59.5" y2="59.5" transform="translate(-16.575 5.6)" fill="none" stroke="#ed6826" stroke-miterlimit="10" stroke-width="1"/>
                <line id="Linea_7159" data-name="Linea 7159" x2="59.5" y2="59.5" transform="translate(-14.575 4.6)" fill="none" stroke="#ed6826" stroke-miterlimit="10" stroke-width="1"/>
                <line id="Linea_7160" data-name="Linea 7160" x2="59.5" y2="59.5" transform="translate(-12.575 3.6)" fill="none" stroke="#ed6826" stroke-miterlimit="10" stroke-width="1"/>
                <line id="Linea_7161" data-name="Linea 7161" x2="59.5" y2="59.5" transform="translate(-10.575 2.6)" fill="none" stroke="#ed6826" stroke-miterlimit="10" stroke-width="1"/>
                <line id="Linea_7162" data-name="Linea 7162" x2="59.5" y2="59.5" transform="translate(-8.575 1.6)" fill="none" stroke="#ed6826" stroke-miterlimit="10" stroke-width="1"/>
                <line id="Linea_7163" data-name="Linea 7163" x2="59.5" y2="59.5" transform="translate(-6.575 0.6)" fill="none" stroke="#ed6826" stroke-miterlimit="10" stroke-width="1"/>
                <line id="Linea_7164" data-name="Linea 7164" x2="59.5" y2="59.5" transform="translate(-4.575 -0.4)" fill="none" stroke="#ed6826" stroke-miterlimit="10" stroke-width="1"/>
                <line id="Linea_7165" data-name="Linea 7165" x2="59.5" y2="59.5" transform="translate(-2.575 -1.4)" fill="none" stroke="#ed6826" stroke-miterlimit="10" stroke-width="1"/>
                <line id="Linea_7166" data-name="Linea 7166" x2="59.5" y2="59.5" transform="translate(-0.575 -2.4)" fill="none" stroke="#ed6826" stroke-miterlimit="10" stroke-width="1"/>
                <line id="Linea_7167" data-name="Linea 7167" x2="59.5" y2="59.5" transform="translate(1.425 -3.4)" fill="none" stroke="#ed6826" stroke-miterlimit="10" stroke-width="1"/>
                <line id="Linea_7168" data-name="Linea 7168" x2="59.5" y2="59.5" transform="translate(3.425 -4.4)" fill="none" stroke="#ed6826" stroke-miterlimit="10" stroke-width="1"/>
                <line id="Linea_7169" data-name="Linea 7169" x2="59.5" y2="59.5" transform="translate(5.425 -5.4)" fill="none" stroke="#ed6826" stroke-miterlimit="10" stroke-width="1"/>
                <line id="Linea_7170" data-name="Linea 7170" x2="59.5" y2="59.5" transform="translate(7.425 -6.4)" fill="none" stroke="#ed6826" stroke-miterlimit="10" stroke-width="1"/>
                <line id="Linea_7171" data-name="Linea 7171" x2="59.5" y2="59.5" transform="translate(9.425 -7.4)" fill="none" stroke="#ed6826" stroke-miterlimit="10" stroke-width="1"/>
                <line id="Linea_7172" data-name="Linea 7172" x2="59.5" y2="59.5" transform="translate(10.925 -8.9)" fill="none" stroke="#ed6826" stroke-miterlimit="10" stroke-width="1"/>
                <line id="Linea_7173" data-name="Linea 7173" x2="59.5" y2="59.5" transform="translate(12.425 -10.4)" fill="none" stroke="#ed6826" stroke-miterlimit="10" stroke-width="1"/>
                <line id="Linea_7174" data-name="Linea 7174" x2="59.5" y2="59.5" transform="translate(13.925 -11.9)" fill="none" stroke="#ed6826" stroke-miterlimit="10" stroke-width="1"/>
              </g>
            </g>
            <g id="Raggruppa_23896" data-name="Raggruppa 23896">
              <path id="Tracciato_147824" data-name="Tracciato 147824" d="M487.1,213.6h0a15.077,15.077,0,0,0-13,7.5h0a14.9,14.9,0,0,0,0,15h0a15.077,15.077,0,0,0,13,7.5h0a15.077,15.077,0,0,0,13-7.5h0a14.9,14.9,0,0,0,0-15h0A15.077,15.077,0,0,0,487.1,213.6Z" transform="translate(-472.075 -213.6)" fill="none" stroke="#d34709" stroke-miterlimit="10" stroke-width="0.25"/>
            </g>
          </g>
          <g id="Raggruppa_23898" data-name="Raggruppa 23898" transform="translate(34.979 18.68)">
            <text id="Turin" transform="translate(0 10)" font-size="10" font-family="HKGrotesk-Light, HK Grotesk" font-weight="300"><tspan x="0" y="0">Turin</tspan></text>
          </g>
          <circle id="Ellisse_33224" data-name="Ellisse 33224" cx="2" cy="2" r="2" transform="translate(15.225 24.269)" fill="#d34709"/>
          <path id="Tracciato_147825" data-name="Tracciato 147825" d="M489.3,228.6V218.2a7.6,7.6,0,0,1,7.6-7.6h6.5" transform="translate(-472.075 -202.331)" fill="none" stroke="#d34709" stroke-miterlimit="10" stroke-width="0.5"/>
          <g id="Raggruppa_23899" data-name="Raggruppa 23899" transform="translate(32.918)">
            <text id="Cottolengo" transform="translate(0 10)" font-size="10" font-family="HKGrotesk-LightItalic, HK Grotesk" font-weight="300" font-style="italic"><tspan x="0" y="0">Cottolengo</tspan></text>
          </g>
        </g>
        <g id="Raggruppa_23901" data-name="Raggruppa 23901" transform="translate(103.7 98.058)">
          <g id="Raggruppa_23900" data-name="Raggruppa 23900">
            <line id="Linea_7175" data-name="Linea 7175" x2="3" fill="none" stroke="#5151fc" stroke-miterlimit="10" stroke-width="0.5"/>
            <line id="Linea_7176" data-name="Linea 7176" x2="17.2" transform="translate(7.9)" fill="none" stroke="#5151fc" stroke-miterlimit="10" stroke-width="0.5" stroke-dasharray="4.9 4.9"/>
            <line id="Linea_7177" data-name="Linea 7177" x2="3" transform="translate(27.5)" fill="none" stroke="#5151fc" stroke-miterlimit="10" stroke-width="0.5"/>
          </g>
        </g>
      </g>
      <g id="lines" transform="translate(114.1 41.059)">
        <g id="Raggruppa_23903" data-name="Raggruppa 23903" transform="translate(180.537 222.341)">
          <g id="Raggruppa_23902" data-name="Raggruppa 23902">
            <line id="Linea_7178" data-name="Linea 7178" x2="2.9" fill="none" stroke="#5151fc" stroke-miterlimit="10" stroke-width="0.485"/>
            <line id="Linea_7179" data-name="Linea 7179" x2="94.1" transform="translate(9)" fill="none" stroke="#5151fc" stroke-miterlimit="10" stroke-width="0.485" stroke-dasharray="6.07 6.07"/>
            <line id="Linea_7180" data-name="Linea 7180" x2="2.9" transform="translate(106.1)" fill="none" stroke="#5151fc" stroke-miterlimit="10" stroke-width="0.485"/>
          </g>
        </g>
        <g id="Raggruppa_23905" data-name="Raggruppa 23905" transform="translate(480.552 187.541)">
          <g id="Raggruppa_23904" data-name="Raggruppa 23904">
            <line id="Linea_7181" data-name="Linea 7181" x1="3" transform="translate(113)" fill="none" stroke="#5151fc" stroke-miterlimit="10" stroke-width="0.5"/>
            <line id="Linea_7182" data-name="Linea 7182" x1="101.3" transform="translate(5.9)" fill="none" stroke="#5151fc" stroke-miterlimit="10" stroke-width="0.5" stroke-dasharray="5.79 5.79"/>
            <line id="Linea_7183" data-name="Linea 7183" x1="3" fill="none" stroke="#5151fc" stroke-miterlimit="10" stroke-width="0.5"/>
          </g>
        </g>
        <g id="Raggruppa_23907" data-name="Raggruppa 23907" transform="translate(457.675 187.641)">
          <g id="Raggruppa_23906" data-name="Raggruppa 23906">
            <line id="Linea_7184" data-name="Linea 7184" x2="3" transform="translate(0 52)" fill="none" stroke="#5151fc" stroke-miterlimit="10" stroke-width="0.5"/>
            <path id="Tracciato_147826" data-name="Tracciato 147826" d="M535.1,280.7h17.1a24.113,24.113,0,0,0,24.1-24.1v-3.9a23.931,23.931,0,0,1,18.2-23.3" transform="translate(-526.2 -228.7)" fill="none" stroke="#5151fc" stroke-miterlimit="10" stroke-width="0.5" stroke-dasharray="5.846 5.846"/>
            <path id="Tracciato_147827" data-name="Tracciato 147827" d="M597.3,228.9c1-.1,2-.2,3-.2" transform="translate(-526.2 -228.7)" fill="none" stroke="#5151fc" stroke-miterlimit="10" stroke-width="0.5"/>
          </g>
        </g>
      </g>
    </g>
    <g id="Raggruppa_23908" data-name="Raggruppa 23908" transform="translate(30.86 21.941)">
      <text id="Between_1956_and_1965_the_city_landscape_is_the_main_background_of_Calvino_s_writing._Turin_and_Sanremo_still_play_a_prominent_role_although_at_this_point_they_are_not_related_to_the_context_of_war_anymore._Locations_such_as_train_stations_cafes_and_vot" data-name="Between 1956 and 1965 the city landscape is the main background of Calvino’s writing. Turin and Sanremo still play a prominent role, although at this point they are not related to the context of war anymore. 
Locations such as train stations, cafes and vot" transform="translate(692.14 122.059)" fill="#5151fc" font-size="10" font-family="HKGrotesk-Regular, HK Grotesk"><tspan x="0" y="10">Between 1956 and 1965 the </tspan><tspan x="0" y="22">city landscape is the main </tspan><tspan x="0" y="34">background of Calvino’s </tspan><tspan x="0" y="46">writing. Turin and Sanremo </tspan><tspan x="0" y="58">still play a prominent role, </tspan><tspan x="0" y="70">although at this point they are </tspan><tspan x="0" y="82">not related to the context of </tspan><tspan x="0" y="94">war anymore. </tspan><tspan x="0" y="106">Locations such as train </tspan><tspan x="0" y="118">stations, cafes and voting </tspan><tspan x="0" y="130">precincts appear, </tspan><tspan x="0" y="142">accompanied by the city of </tspan><tspan x="0" y="154">Rome, where Calvino resides </tspan><tspan x="0" y="166">consistently from 1964.</tspan></text>
      <text id="The_context_of_Ligurian_nature_extremely_relevant_in_the_first_decade_is_only_reprised_in_one_autobiographical_short_story:_La_strada_di_San_Giovanni_1962_in_which_Calvino_describes_in_vivid_detail_the_road_he_used_to_travel_as_a_child_to_reach_the_" data-name="The context of Ligurian nature, extremely relevant in the first decade, is only reprised in one autobiographical short story: La strada di San Giovanni (1962), in which Calvino describes, in vivid detail, the road he used to travel as a child to reach the " transform="translate(116.14 178.059)" fill="#5151fc" font-size="10" font-family="HKGrotesk-Regular, HK Grotesk"><tspan x="0" y="10">The context of Ligurian nature, </tspan><tspan x="0" y="22">extremely relevant in the first </tspan><tspan x="0" y="34">decade, is only reprised in one </tspan><tspan x="0" y="46">autobiographical short story: </tspan><tspan x="0" y="58" font-family="HKGrotesk-Italic, HK Grotesk" font-style="italic">La strada di San Giovanni </tspan><tspan x="0" y="70">(1962), in which Calvino </tspan><tspan x="0" y="82">describes, in vivid detail, the </tspan><tspan x="0" y="94">road he used to travel as a </tspan><tspan x="0" y="106">child to reach the family’s </tspan><tspan x="0" y="118">lands with his father. </tspan><tspan x="0" y="130">It is the only trace left of a </tspan><tspan x="0" y="142">landscape otherwise vanished </tspan><tspan x="0" y="154">from his narrative.</tspan></text>
      <text id="It_is_interesting_to_note_the_contrast_between_the_high_level_of_detail_used_in_locations_from_realistic_stories_and_the_extremely_vague_nature_of_the_locations_in_which_texts_set_in_the_past_and_mostly_fictional_unfold_e.g._Il_cavaliere_inesistente_19" data-name="It is interesting to note the contrast between the high level of detail used in locations from realistic stories and the extremely vague nature of the locations in which texts set in the past and mostly fictional, unfold, e.g., Il cavaliere inesistente (19" transform="translate(470.14 10.059)" fill="#5151fc" font-size="10" font-family="HKGrotesk-Regular, HK Grotesk"><tspan x="0" y="10">It is interesting to note the </tspan><tspan x="0" y="22">contrast between the high </tspan><tspan x="0" y="34">level of detail used in </tspan><tspan x="0" y="46">locations from realistic stories </tspan><tspan x="0" y="58">and the extremely vague </tspan><tspan x="0" y="70">nature of the locations in </tspan><tspan x="0" y="82">which texts set in the past and </tspan><tspan x="0" y="94">mostly fictional, unfold, e.g., </tspan><tspan x="0" y="106" font-family="HKGrotesk-Italic, HK Grotesk" font-style="italic">Il cavaliere inesistente</tspan><tspan y="106" xml:space="preserve"> (1959).</tspan></text>
    </g>
  </g>
</svg>
