<svg xmlns="http://www.w3.org/2000/svg" xmlns:xlink="http://www.w3.org/1999/xlink" width="600" height="157" viewBox="0 0 600 157">
  <defs>
    <clipPath id="clip-path">
      <path id="Path_157308" data-name="Path 157308" d="M209,35.5h9c3.3,0,6,2.25,6,5h0c0,2.75-2.7,5-6,5h-9c-3.3,0-6-2.25-6-5h0C203,37.75,205.7,35.5,209,35.5Z" transform="translate(-203 -35.5)"/>
    </clipPath>
    <clipPath id="clip-path-2">
      <path id="Path_157310" data-name="Path 157310" d="M209,55.8h9c3.3,0,6,2.25,6,5h0c0,2.75-2.7,5-6,5h-9c-3.3,0-6-2.25-6-5h0C203,58.05,205.7,55.8,209,55.8Z" transform="translate(-203 -55.8)"/>
    </clipPath>
    <clipPath id="clip-path-3">
      <path id="Path_157312" data-name="Path 157312" d="M209,76.2h9c3.3,0,6,2.25,6,5h0c0,2.75-2.7,5-6,5h-9c-3.3,0-6-2.25-6-5h0C203,78.45,205.7,76.2,209,76.2Z" transform="translate(-203 -76.2)"/>
    </clipPath>
    <clipPath id="clip-path-4">
      <path id="Path_157232" data-name="Path 157232" d="M209.5,35.5h9c3.3,0,6,2.25,6,5h0c0,2.75-2.7,5-6,5h-9c-3.3,0-6-2.25-6-5h0C203.5,37.75,206.2,35.5,209.5,35.5Z" transform="translate(-203.5 -35.5)"/>
    </clipPath>
    <clipPath id="clip-trasformare_legenda_04_en">
      <rect width="600" height="157"/>
    </clipPath>
  </defs>
  <g id="trasformare_legenda_04_en" clip-path="url(#clip-trasformare_legenda_04_en)">
    <g id="legenda_04" transform="translate(0.61 -10.99)">
      <g id="Layer_1" transform="translate(0.667 10.99)">
        <g id="Isolation_Mode">
          <circle id="Ellipse_33243" data-name="Ellipse 33243" cx="2.876" cy="2.876" r="2.876" transform="translate(395.492 33.502)" fill="none" stroke="#000" stroke-miterlimit="10" stroke-width="0.25"/>
          <circle id="Ellipse_33244" data-name="Ellipse 33244" cx="6.327" cy="6.327" r="6.327" transform="translate(392.048 26.578)" fill="none" stroke="#000" stroke-miterlimit="10" stroke-width="0.25"/>
          <g id="Group_24941" data-name="Group 24941" transform="translate(241.809 28.299)" clip-path="url(#clip-path)">
            <line id="Line_7941" data-name="Line 7941" x2="107.1" y2="89.25" transform="translate(-66 1.625)" fill="none" stroke="#f36" stroke-miterlimit="10" stroke-width="0.5"/>
            <line id="Line_7942" data-name="Line 7942" x2="107.1" y2="89.25" transform="translate(-62.4 0.125)" fill="none" stroke="#f36" stroke-miterlimit="10" stroke-width="0.5"/>
            <line id="Line_7943" data-name="Line 7943" x2="107.1" y2="89.25" transform="translate(-58.8 -1.375)" fill="none" stroke="#f36" stroke-miterlimit="10" stroke-width="0.5"/>
            <line id="Line_7944" data-name="Line 7944" x2="107.1" y2="89.25" transform="translate(-55.2 -2.875)" fill="none" stroke="#f36" stroke-miterlimit="10" stroke-width="0.5"/>
            <line id="Line_7945" data-name="Line 7945" x2="107.1" y2="89.25" transform="translate(-51.6 -4.375)" fill="none" stroke="#f36" stroke-miterlimit="10" stroke-width="0.5"/>
            <line id="Line_7946" data-name="Line 7946" x2="107.1" y2="89.25" transform="translate(-48 -5.875)" fill="none" stroke="#f36" stroke-miterlimit="10" stroke-width="0.5"/>
            <line id="Line_7947" data-name="Line 7947" x2="107.1" y2="89.25" transform="translate(-44.4 -7.375)" fill="none" stroke="#f36" stroke-miterlimit="10" stroke-width="0.5"/>
            <line id="Line_7948" data-name="Line 7948" x2="107.1" y2="89.25" transform="translate(-40.8 -8.875)" fill="none" stroke="#f36" stroke-miterlimit="10" stroke-width="0.5"/>
            <line id="Line_7949" data-name="Line 7949" x2="107.1" y2="89.25" transform="translate(-37.2 -10.375)" fill="none" stroke="#f36" stroke-miterlimit="10" stroke-width="0.5"/>
            <line id="Line_7950" data-name="Line 7950" x2="107.1" y2="89.25" transform="translate(-33.6 -11.875)" fill="none" stroke="#f36" stroke-miterlimit="10" stroke-width="0.5"/>
            <line id="Line_7951" data-name="Line 7951" x2="107.1" y2="89.25" transform="translate(-30 -13.375)" fill="none" stroke="#f36" stroke-miterlimit="10" stroke-width="0.5"/>
            <line id="Line_7952" data-name="Line 7952" x2="107.1" y2="89.25" transform="translate(-26.4 -14.875)" fill="none" stroke="#f36" stroke-miterlimit="10" stroke-width="0.5"/>
            <line id="Line_7953" data-name="Line 7953" x2="107.1" y2="89.25" transform="translate(-22.8 -16.375)" fill="none" stroke="#f36" stroke-miterlimit="10" stroke-width="0.5"/>
            <line id="Line_7954" data-name="Line 7954" x2="107.1" y2="89.25" transform="translate(-19.2 -17.875)" fill="none" stroke="#f36" stroke-miterlimit="10" stroke-width="0.5"/>
            <line id="Line_7955" data-name="Line 7955" x2="107.1" y2="89.25" transform="translate(-15.6 -19.375)" fill="none" stroke="#f36" stroke-miterlimit="10" stroke-width="0.5"/>
            <line id="Line_7956" data-name="Line 7956" x2="107.1" y2="89.25" transform="translate(-12 -20.875)" fill="none" stroke="#f36" stroke-miterlimit="10" stroke-width="0.5"/>
            <line id="Line_7957" data-name="Line 7957" x2="107.1" y2="89.25" transform="translate(-8.4 -22.375)" fill="none" stroke="#f36" stroke-miterlimit="10" stroke-width="0.5"/>
            <line id="Line_7958" data-name="Line 7958" x2="107.1" y2="89.25" transform="translate(-4.8 -23.875)" fill="none" stroke="#f36" stroke-miterlimit="10" stroke-width="0.5"/>
            <line id="Line_7959" data-name="Line 7959" x2="107.1" y2="89.25" transform="translate(-1.2 -25.375)" fill="none" stroke="#f36" stroke-miterlimit="10" stroke-width="0.5"/>
            <line id="Line_7960" data-name="Line 7960" x2="107.1" y2="89.25" transform="translate(2.4 -26.875)" fill="none" stroke="#f36" stroke-miterlimit="10" stroke-width="0.5"/>
            <line id="Line_7961" data-name="Line 7961" x2="107.1" y2="89.25" transform="translate(6 -28.375)" fill="none" stroke="#f36" stroke-miterlimit="10" stroke-width="0.5"/>
          </g>
          <path id="Path_157309" data-name="Path 157309" d="M209,35.5h9c3.3,0,6,2.25,6,5h0c0,2.75-2.7,5-6,5h-9c-3.3,0-6-2.25-6-5h0C203,37.75,205.7,35.5,209,35.5Z" transform="translate(38.809 -7.201)" fill="none" stroke="#f36" stroke-miterlimit="10" stroke-width="0.5"/>
          <g id="Group_24942" data-name="Group 24942" transform="translate(241.809 51.737)" clip-path="url(#clip-path-2)">
            <line id="Line_7962" data-name="Line 7962" x2="107.1" y2="89.25" transform="translate(-66 1.75)" fill="none" stroke="#8131f4" stroke-miterlimit="10" stroke-width="0.5"/>
            <line id="Line_7963" data-name="Line 7963" x2="107.1" y2="89.25" transform="translate(-62.4 0.25)" fill="none" stroke="#8131f4" stroke-miterlimit="10" stroke-width="0.5"/>
            <line id="Line_7964" data-name="Line 7964" x2="107.1" y2="89.25" transform="translate(-58.8 -1.25)" fill="none" stroke="#8131f4" stroke-miterlimit="10" stroke-width="0.5"/>
            <line id="Line_7965" data-name="Line 7965" x2="107.1" y2="89.25" transform="translate(-55.2 -2.75)" fill="none" stroke="#8131f4" stroke-miterlimit="10" stroke-width="0.5"/>
            <line id="Line_7966" data-name="Line 7966" x2="107.1" y2="89.25" transform="translate(-51.6 -4.25)" fill="none" stroke="#8131f4" stroke-miterlimit="10" stroke-width="0.5"/>
            <line id="Line_7967" data-name="Line 7967" x2="107.1" y2="89.25" transform="translate(-48 -5.75)" fill="none" stroke="#8131f4" stroke-miterlimit="10" stroke-width="0.5"/>
            <line id="Line_7968" data-name="Line 7968" x2="107.1" y2="89.25" transform="translate(-44.4 -7.25)" fill="none" stroke="#8131f4" stroke-miterlimit="10" stroke-width="0.5"/>
            <line id="Line_7969" data-name="Line 7969" x2="107.1" y2="89.25" transform="translate(-40.8 -8.75)" fill="none" stroke="#8131f4" stroke-miterlimit="10" stroke-width="0.5"/>
            <line id="Line_7970" data-name="Line 7970" x2="107.1" y2="89.25" transform="translate(-37.2 -10.25)" fill="none" stroke="#8131f4" stroke-miterlimit="10" stroke-width="0.5"/>
            <line id="Line_7971" data-name="Line 7971" x2="107.1" y2="89.25" transform="translate(-33.6 -11.75)" fill="none" stroke="#8131f4" stroke-miterlimit="10" stroke-width="0.5"/>
            <line id="Line_7972" data-name="Line 7972" x2="107.1" y2="89.25" transform="translate(-30 -13.25)" fill="none" stroke="#8131f4" stroke-miterlimit="10" stroke-width="0.5"/>
            <line id="Line_7973" data-name="Line 7973" x2="107.1" y2="89.25" transform="translate(-26.4 -14.75)" fill="none" stroke="#8131f4" stroke-miterlimit="10" stroke-width="0.5"/>
            <line id="Line_7974" data-name="Line 7974" x2="107.1" y2="89.25" transform="translate(-22.8 -16.25)" fill="none" stroke="#8131f4" stroke-miterlimit="10" stroke-width="0.5"/>
            <line id="Line_7975" data-name="Line 7975" x2="107.1" y2="89.25" transform="translate(-19.2 -17.75)" fill="none" stroke="#8131f4" stroke-miterlimit="10" stroke-width="0.5"/>
            <line id="Line_7976" data-name="Line 7976" x2="107.1" y2="89.25" transform="translate(-15.6 -19.25)" fill="none" stroke="#8131f4" stroke-miterlimit="10" stroke-width="0.5"/>
            <line id="Line_7977" data-name="Line 7977" x2="107.1" y2="89.25" transform="translate(-12 -20.75)" fill="none" stroke="#8131f4" stroke-miterlimit="10" stroke-width="0.5"/>
            <line id="Line_7978" data-name="Line 7978" x2="107.1" y2="89.25" transform="translate(-8.4 -22.25)" fill="none" stroke="#8131f4" stroke-miterlimit="10" stroke-width="0.5"/>
            <line id="Line_7979" data-name="Line 7979" x2="107.1" y2="89.25" transform="translate(-4.8 -23.75)" fill="none" stroke="#8131f4" stroke-miterlimit="10" stroke-width="0.5"/>
            <line id="Line_7980" data-name="Line 7980" x2="107.1" y2="89.25" transform="translate(-1.2 -25.25)" fill="none" stroke="#8131f4" stroke-miterlimit="10" stroke-width="0.5"/>
            <line id="Line_7981" data-name="Line 7981" x2="107.1" y2="89.25" transform="translate(2.4 -26.75)" fill="none" stroke="#8131f4" stroke-miterlimit="10" stroke-width="0.5"/>
            <line id="Line_7982" data-name="Line 7982" x2="107.1" y2="89.25" transform="translate(6 -28.25)" fill="none" stroke="#8131f4" stroke-miterlimit="10" stroke-width="0.5"/>
          </g>
          <path id="Path_157311" data-name="Path 157311" d="M209,55.8h9c3.3,0,6,2.25,6,5h0c0,2.75-2.7,5-6,5h-9c-3.3,0-6-2.25-6-5h0C203,58.05,205.7,55.8,209,55.8Z" transform="translate(38.809 -4.063)" fill="none" stroke="#8131f4" stroke-miterlimit="10" stroke-width="0.5"/>
          <g id="Group_24943" data-name="Group 24943" transform="translate(241.809 75.291)" clip-path="url(#clip-path-3)">
            <line id="Line_7983" data-name="Line 7983" x2="107.1" y2="89.25" transform="translate(-66 1.625)" fill="none" stroke="#0505c4" stroke-miterlimit="10" stroke-width="0.5"/>
            <line id="Line_7984" data-name="Line 7984" x2="107.1" y2="89.25" transform="translate(-62.4 0.125)" fill="none" stroke="#0505c4" stroke-miterlimit="10" stroke-width="0.5"/>
            <line id="Line_7985" data-name="Line 7985" x2="107.1" y2="89.25" transform="translate(-58.8 -1.375)" fill="none" stroke="#0505c4" stroke-miterlimit="10" stroke-width="0.5"/>
            <line id="Line_7986" data-name="Line 7986" x2="107.1" y2="89.25" transform="translate(-55.2 -2.875)" fill="none" stroke="#0505c4" stroke-miterlimit="10" stroke-width="0.5"/>
            <line id="Line_7987" data-name="Line 7987" x2="107.1" y2="89.25" transform="translate(-51.6 -4.375)" fill="none" stroke="#0505c4" stroke-miterlimit="10" stroke-width="0.5"/>
            <line id="Line_7988" data-name="Line 7988" x2="107.1" y2="89.25" transform="translate(-48 -5.875)" fill="none" stroke="#0505c4" stroke-miterlimit="10" stroke-width="0.5"/>
            <line id="Line_7989" data-name="Line 7989" x2="107.1" y2="89.25" transform="translate(-44.4 -7.375)" fill="none" stroke="#0505c4" stroke-miterlimit="10" stroke-width="0.5"/>
            <line id="Line_7990" data-name="Line 7990" x2="107.1" y2="89.25" transform="translate(-40.8 -8.875)" fill="none" stroke="#0505c4" stroke-miterlimit="10" stroke-width="0.5"/>
            <line id="Line_7991" data-name="Line 7991" x2="107.1" y2="89.25" transform="translate(-37.2 -10.375)" fill="none" stroke="#0505c4" stroke-miterlimit="10" stroke-width="0.5"/>
            <line id="Line_7992" data-name="Line 7992" x2="107.1" y2="89.25" transform="translate(-33.6 -11.875)" fill="none" stroke="#0505c4" stroke-miterlimit="10" stroke-width="0.5"/>
            <line id="Line_7993" data-name="Line 7993" x2="107.1" y2="89.25" transform="translate(-30 -13.375)" fill="none" stroke="#0505c4" stroke-miterlimit="10" stroke-width="0.5"/>
            <line id="Line_7994" data-name="Line 7994" x2="107.1" y2="89.25" transform="translate(-26.4 -14.875)" fill="none" stroke="#0505c4" stroke-miterlimit="10" stroke-width="0.5"/>
            <line id="Line_7995" data-name="Line 7995" x2="107.1" y2="89.25" transform="translate(-22.8 -16.375)" fill="none" stroke="#0505c4" stroke-miterlimit="10" stroke-width="0.5"/>
            <line id="Line_7996" data-name="Line 7996" x2="107.1" y2="89.25" transform="translate(-19.2 -17.875)" fill="none" stroke="#0505c4" stroke-miterlimit="10" stroke-width="0.5"/>
            <line id="Line_7997" data-name="Line 7997" x2="107.1" y2="89.25" transform="translate(-15.6 -19.375)" fill="none" stroke="#0505c4" stroke-miterlimit="10" stroke-width="0.5"/>
            <line id="Line_7998" data-name="Line 7998" x2="107.1" y2="89.25" transform="translate(-12 -20.875)" fill="none" stroke="#0505c4" stroke-miterlimit="10" stroke-width="0.5"/>
            <line id="Line_7999" data-name="Line 7999" x2="107.1" y2="89.25" transform="translate(-8.4 -22.375)" fill="none" stroke="#0505c4" stroke-miterlimit="10" stroke-width="0.5"/>
            <line id="Line_8000" data-name="Line 8000" x2="107.1" y2="89.25" transform="translate(-4.8 -23.875)" fill="none" stroke="#0505c4" stroke-miterlimit="10" stroke-width="0.5"/>
            <line id="Line_8001" data-name="Line 8001" x2="107.1" y2="89.25" transform="translate(-1.2 -25.375)" fill="none" stroke="#0505c4" stroke-miterlimit="10" stroke-width="0.5"/>
            <line id="Line_8002" data-name="Line 8002" x2="107.1" y2="89.25" transform="translate(2.4 -26.875)" fill="none" stroke="#0505c4" stroke-miterlimit="10" stroke-width="0.5"/>
            <line id="Line_8003" data-name="Line 8003" x2="107.1" y2="89.25" transform="translate(6 -28.375)" fill="none" stroke="#0505c4" stroke-miterlimit="10" stroke-width="0.5"/>
          </g>
          <path id="Path_157313" data-name="Path 157313" d="M209,76.2h9c3.3,0,6,2.25,6,5h0c0,2.75-2.7,5-6,5h-9c-3.3,0-6-2.25-6-5h0C203,78.45,205.7,76.2,209,76.2Z" transform="translate(38.809 -0.909)" fill="none" stroke="#0505c4" stroke-miterlimit="10" stroke-width="0.5"/>
        </g>
      </g>
    </g>
    <path id="Path_161860" data-name="Path 161860" d="M1.035,0h.771V-6.23L3.877-.6h.85L6.8-6.23V0h.767V-6.9H6.309L4.287-1.357,2.295-6.9H1.035Zm10.2.068A2.392,2.392,0,0,0,13.1-.693l-.5-.4a1.7,1.7,0,0,1-1.372.522A1.444,1.444,0,0,1,9.8-2.192h3.4c.01-.088.024-.249.024-.376,0-1.123-.488-2.378-2.07-2.378-1.416,0-2.119,1.226-2.119,2.534A2.211,2.211,0,0,0,11.235.068ZM9.8-2.788c.039-.83.459-1.558,1.353-1.558,1,0,1.353.776,1.372,1.558ZM15.84.1a1.966,1.966,0,0,0,.654-.1V-.625a1.164,1.164,0,0,1-.488.122c-.356,0-.62-.249-.62-.786V-4.282h1.235v-.6H15.386V-6.66l-.723.684v1.1h-.786v.6h.781v2.988C14.658-.459,14.976.1,15.84.1ZM17.681,0H18.4V-2.437c0-1.177.5-1.846,1.333-1.846a.888.888,0,0,1,.6.186l.308-.63a1.268,1.268,0,0,0-.786-.254,1.572,1.572,0,0,0-1.44.967v-.864h-.728Zm5.381.1a2.4,2.4,0,0,0,2.324-2.549A2.383,2.383,0,0,0,23.062-4.98a2.361,2.361,0,0,0-2.3,2.529A2.376,2.376,0,0,0,23.062.1Zm0-.605c-1.074,0-1.572-.957-1.572-1.943s.5-1.924,1.582-1.924,1.572.947,1.572,1.924S24.16-.508,23.066-.508Zm3.569,2.646h.732v-2.8A1.75,1.75,0,0,0,28.862.1C30.171.1,30.85-1.06,30.85-2.441S30.166-4.98,28.857-4.98a1.743,1.743,0,0,0-1.489.767v-.664h-.732Zm2.07-2.656c-.991,0-1.406-.928-1.406-1.924s.415-1.924,1.406-1.924,1.411.938,1.411,1.924S29.683-.518,28.706-.518ZM34.038.1a2.4,2.4,0,0,0,2.324-2.549A2.383,2.383,0,0,0,34.038-4.98a2.361,2.361,0,0,0-2.3,2.529A2.376,2.376,0,0,0,34.038.1Zm0-.605c-1.074,0-1.572-.957-1.572-1.943s.5-1.924,1.582-1.924,1.572.947,1.572,1.924S35.137-.508,34.043-.508Zm4.521-.029c-.22,0-.239-.264-.239-.278V-6.9h-.737V-.986c0,.586.054,1.084.791,1.084a2.381,2.381,0,0,0,.659-.1V-.586A2.891,2.891,0,0,1,38.564-.537Zm1.523-5.425h.83V-6.9h-.83ZM40.142,0h.723V-4.878h-.723Zm3.726.1a1.521,1.521,0,0,0,1.675-1.489c0-1.792-2.632-1.2-2.632-2.324,0-.4.327-.674.854-.674a1.15,1.15,0,0,1,1.089.688l.537-.308a1.733,1.733,0,0,0-1.6-.972,1.392,1.392,0,0,0-1.548,1.353c0,1.655,2.593,1.011,2.593,2.324,0,.527-.405.806-.957.806a1.237,1.237,0,0,1-1.216-.928l-.615.317A1.893,1.893,0,0,0,43.867.1Z" transform="translate(272.295 34.867)"/>
    <path id="Path_161861" data-name="Path 161861" d="M3.3.1C5.01.1,5.713-1.143,5.713-2.578V-6.9H4.937v4.15c0,1.191-.386,2.114-1.641,2.114S1.675-1.558,1.675-2.749V-6.9H.9v4.37A2.328,2.328,0,0,0,3.3.1ZM7.373,0h.718V-2.437c0-1.177.5-1.846,1.333-1.846a.888.888,0,0,1,.6.186l.308-.63a1.268,1.268,0,0,0-.786-.254,1.572,1.572,0,0,0-1.44.967v-.864H7.373Zm6.147.1c1.27,0,1.963-1.147,1.963-2.539S14.79-4.98,13.516-4.98A1.747,1.747,0,0,0,12-4.214V-6.9h-.728V0H12V-.664A1.747,1.747,0,0,0,13.521.1Zm-.19-.615c-.977,0-1.392-.928-1.392-1.924s.415-1.924,1.392-1.924,1.426.938,1.426,1.924S14.312-.518,13.33-.518ZM17.91.1a1.821,1.821,0,0,0,1.714-1.04L19.639,0h.62V-2.993A1.8,1.8,0,0,0,18.35-4.98a2.164,2.164,0,0,0-1.841.957l.532.415a1.605,1.605,0,0,1,1.353-.737c.884,0,1.2.64,1.2,1.558H18.477c-1.387,0-2.148.454-2.148,1.431A1.43,1.43,0,0,0,17.91.1Zm.083-.615c-.508,0-.913-.239-.913-.82,0-.649.5-.9,1.465-.9H19.59A1.683,1.683,0,0,1,17.993-.518ZM21.777,0H22.5V-2.534c0-1.211.61-1.812,1.377-1.812.859,0,1.108.781,1.108,1.455V0h.723V-2.964c0-1.074-.474-2-1.636-2a1.752,1.752,0,0,0-1.572.938v-.85h-.728Zm9.067-.537c-.22,0-.239-.264-.239-.278V-6.9h-.737V-.986c0,.586.054,1.084.791,1.084a2.381,2.381,0,0,0,.659-.1V-.586A2.891,2.891,0,0,1,30.845-.537ZM33.54.1a1.821,1.821,0,0,0,1.714-1.04L35.269,0h.62V-2.993A1.8,1.8,0,0,0,33.979-4.98a2.164,2.164,0,0,0-1.841.957l.532.415a1.605,1.605,0,0,1,1.353-.737c.884,0,1.2.64,1.2,1.558H34.106c-1.387,0-2.148.454-2.148,1.431A1.43,1.43,0,0,0,33.54.1Zm.083-.615c-.508,0-.913-.239-.913-.82,0-.649.5-.9,1.465-.9H35.22A1.683,1.683,0,0,1,33.623-.518ZM37.407,0h.728V-2.534c0-1.211.61-1.812,1.377-1.812.859,0,1.108.781,1.108,1.455V0h.723V-2.964c0-1.074-.474-2-1.636-2a1.752,1.752,0,0,0-1.572.938v-.85h-.728ZM46-6.9v2.686a1.746,1.746,0,0,0-1.528-.767c-1.245,0-1.953,1.143-1.953,2.539S43.228.1,44.478.1a1.734,1.734,0,0,0,1.528-.776L46.021,0h.708V-6.9ZM44.663-.518c-.977,0-1.4-.928-1.4-1.924s.42-1.924,1.4-1.924c1,0,1.4.938,1.4,1.924S45.659-.518,44.663-.518ZM49.736.1a1.521,1.521,0,0,0,1.675-1.489c0-1.792-2.632-1.2-2.632-2.324,0-.4.327-.674.854-.674a1.15,1.15,0,0,1,1.089.688l.537-.308a1.733,1.733,0,0,0-1.6-.972A1.392,1.392,0,0,0,48.11-3.628C48.11-1.973,50.7-2.617,50.7-1.3c0,.527-.405.806-.957.806a1.237,1.237,0,0,1-1.216-.928l-.615.317A1.893,1.893,0,0,0,49.736.1Zm4.595,0A1.861,1.861,0,0,0,56.167-1.2l-.635-.273a1.224,1.224,0,0,1-1.211.952c-1.021,0-1.362-1.021-1.362-1.914s.352-1.934,1.362-1.934a1.234,1.234,0,0,1,1.211.977l.688-.293a2,2,0,0,0-1.9-1.3c-1.406,0-2.109,1.24-2.109,2.549S52.925.1,54.331.1Zm4.106,0a1.821,1.821,0,0,0,1.714-1.04L60.166,0h.62V-2.993A1.8,1.8,0,0,0,58.877-4.98a2.164,2.164,0,0,0-1.841.957l.532.415a1.605,1.605,0,0,1,1.353-.737c.884,0,1.2.64,1.2,1.558H59c-1.387,0-2.148.454-2.148,1.431A1.43,1.43,0,0,0,58.438.1Zm.083-.615c-.508,0-.913-.239-.913-.82,0-.649.5-.9,1.465-.9h1.045A1.683,1.683,0,0,1,58.521-.518Zm3.794,2.656h.732v-2.8A1.75,1.75,0,0,0,64.541.1c1.309,0,1.987-1.157,1.987-2.539S65.845-4.98,64.536-4.98a1.743,1.743,0,0,0-1.489.767v-.664h-.732Zm2.07-2.656c-.991,0-1.406-.928-1.406-1.924s.415-1.924,1.406-1.924S65.8-3.428,65.8-2.441,65.361-.518,64.385-.518Zm5.254.586A2.392,2.392,0,0,0,71.5-.693l-.5-.4a1.7,1.7,0,0,1-1.372.522,1.444,1.444,0,0,1-1.426-1.621h3.4c.01-.088.024-.249.024-.376,0-1.123-.488-2.378-2.07-2.378-1.416,0-2.119,1.226-2.119,2.534A2.211,2.211,0,0,0,69.639.068ZM68.208-2.788c.039-.83.459-1.558,1.353-1.558,1,0,1.353.776,1.372,1.558Z" transform="translate(272.295 59.34)"/>
    <path id="Path_161862" data-name="Path 161862" d="M3.682.1A2.923,2.923,0,0,0,6.514-1.748L5.8-2.056A2.028,2.028,0,0,1,3.73-.615c-1.685,0-2.358-1.338-2.358-2.861,0-1.489.654-2.817,2.339-2.817a1.968,1.968,0,0,1,2.08,1.426L6.5-5.176A2.726,2.726,0,0,0,3.745-7.012C1.548-7.012.61-5.371.61-3.467.61-1.519,1.592.1,3.682.1ZM9.463.1a2.4,2.4,0,0,0,2.324-2.549A2.383,2.383,0,0,0,9.463-4.98a2.361,2.361,0,0,0-2.3,2.529A2.376,2.376,0,0,0,9.463.1Zm0-.605C8.394-.508,7.9-1.465,7.9-2.451s.5-1.924,1.582-1.924,1.572.947,1.572,1.924S10.562-.508,9.468-.508ZM14.38.1a1.521,1.521,0,0,0,1.675-1.489c0-1.792-2.632-1.2-2.632-2.324,0-.4.327-.674.854-.674a1.15,1.15,0,0,1,1.089.688l.537-.308a1.733,1.733,0,0,0-1.6-.972,1.392,1.392,0,0,0-1.548,1.353c0,1.655,2.593,1.011,2.593,2.324,0,.527-.405.806-.957.806a1.237,1.237,0,0,1-1.216-.928l-.615.317A1.893,1.893,0,0,0,14.38.1ZM17.266,0H18V-2.544c0-.884.435-1.816,1.245-1.816.835,0,1.025.776,1.025,1.45V0h.742V-2.705c0-.8.435-1.655,1.235-1.655.845,0,1.045.806,1.045,1.47V0h.737V-2.964c0-1.084-.488-2.017-1.694-2.017A1.618,1.618,0,0,0,20.82-3.96,1.465,1.465,0,0,0,19.331-4.98,1.459,1.459,0,0,0,18-4.121v-.757h-.737Zm8.252-5.962h.83V-6.9h-.83ZM25.571,0h.723V-4.878h-.723Zm4.121.1A1.861,1.861,0,0,0,31.528-1.2l-.635-.273a1.224,1.224,0,0,1-1.211.952c-1.021,0-1.362-1.021-1.362-1.914s.352-1.934,1.362-1.934a1.234,1.234,0,0,1,1.211.977l.688-.293a2,2,0,0,0-1.9-1.3c-1.406,0-2.109,1.24-2.109,2.549S28.286.1,29.692.1ZM36.3-.537c-.22,0-.239-.264-.239-.278V-6.9h-.737V-.986c0,.586.054,1.084.791,1.084a2.381,2.381,0,0,0,.659-.1V-.586A2.891,2.891,0,0,1,36.3-.537ZM39,.1a1.821,1.821,0,0,0,1.714-1.04L40.728,0h.62V-2.993A1.8,1.8,0,0,0,39.438-4.98a2.164,2.164,0,0,0-1.841.957l.532.415a1.605,1.605,0,0,1,1.353-.737c.884,0,1.2.64,1.2,1.558H39.565c-1.387,0-2.148.454-2.148,1.431A1.43,1.43,0,0,0,39,.1Zm.083-.615c-.508,0-.913-.239-.913-.82,0-.649.5-.9,1.465-.9h1.045A1.683,1.683,0,0,1,39.082-.518ZM42.866,0h.728V-2.534c0-1.211.61-1.812,1.377-1.812.859,0,1.108.781,1.108,1.455V0H46.8V-2.964c0-1.074-.474-2-1.636-2a1.752,1.752,0,0,0-1.572.938v-.85h-.728ZM51.46-6.9v2.686a1.746,1.746,0,0,0-1.528-.767c-1.245,0-1.953,1.143-1.953,2.539S48.687.1,49.937.1a1.734,1.734,0,0,0,1.528-.776L51.479,0h.708V-6.9ZM50.122-.518c-.977,0-1.4-.928-1.4-1.924s.42-1.924,1.4-1.924c1,0,1.4.938,1.4,1.924S51.118-.518,50.122-.518ZM55.2.1A1.521,1.521,0,0,0,56.87-1.392c0-1.792-2.632-1.2-2.632-2.324,0-.4.327-.674.854-.674a1.15,1.15,0,0,1,1.089.688l.537-.308a1.733,1.733,0,0,0-1.6-.972,1.392,1.392,0,0,0-1.548,1.353c0,1.655,2.593,1.011,2.593,2.324,0,.527-.405.806-.957.806a1.237,1.237,0,0,1-1.216-.928l-.615.317A1.893,1.893,0,0,0,55.2.1ZM59.79.1A1.861,1.861,0,0,0,61.626-1.2l-.635-.273a1.224,1.224,0,0,1-1.211.952c-1.021,0-1.362-1.021-1.362-1.914s.352-1.934,1.362-1.934a1.234,1.234,0,0,1,1.211.977l.688-.293a2,2,0,0,0-1.9-1.3c-1.406,0-2.109,1.24-2.109,2.549S58.384.1,59.79.1ZM63.9.1A1.821,1.821,0,0,0,65.61-.942L65.625,0h.62V-2.993A1.8,1.8,0,0,0,64.336-4.98a2.164,2.164,0,0,0-1.841.957l.532.415a1.605,1.605,0,0,1,1.353-.737c.884,0,1.2.64,1.2,1.558H64.463c-1.387,0-2.148.454-2.148,1.431A1.43,1.43,0,0,0,63.9.1Zm.083-.615c-.508,0-.913-.239-.913-.82,0-.649.5-.9,1.465-.9h1.045A1.683,1.683,0,0,1,63.979-.518Zm3.794,2.656h.732v-2.8A1.75,1.75,0,0,0,70,.1c1.309,0,1.987-1.157,1.987-2.539S71.3-4.98,70-4.98a1.743,1.743,0,0,0-1.489.767v-.664h-.732Zm2.07-2.656c-.991,0-1.406-.928-1.406-1.924s.415-1.924,1.406-1.924,1.411.938,1.411,1.924S70.82-.518,69.844-.518ZM75.1.068a2.392,2.392,0,0,0,1.865-.762l-.5-.4a1.7,1.7,0,0,1-1.372.522,1.444,1.444,0,0,1-1.426-1.621h3.4c.01-.088.024-.249.024-.376,0-1.123-.488-2.378-2.07-2.378C73.6-4.946,72.9-3.721,72.9-2.412A2.211,2.211,0,0,0,75.1.068ZM73.667-2.788c.039-.83.459-1.558,1.353-1.558,1,0,1.353.776,1.372,1.558Z" transform="translate(272.295 82.824)"/>
    <path id="Path_161865" data-name="Path 161865" d="M4.453.117a3.622,3.622,0,0,0,3.5-2.291l-1.1-.463A2.318,2.318,0,0,1,4.482-1C2.572-1,1.793-2.443,1.793-4.184c0-1.67.773-3.105,2.666-3.105A2.226,2.226,0,0,1,6.838-5.672l1.1-.457A3.494,3.494,0,0,0,4.488-8.414C1.811-8.414.615-6.428.615-4.148.615-1.846,1.84.117,4.453.117Zm8.256,0c2.625,0,3.85-1.98,3.85-4.26S15.334-8.4,12.709-8.4,8.865-6.416,8.865-4.143,10.09.117,12.709.117Zm0-1.072c-1.893,0-2.625-1.512-2.625-3.187s.732-3.182,2.625-3.182,2.637,1.512,2.637,3.182S14.607-.955,12.709-.955ZM18.328,0h1.16V-6.6l3.5,6.6h1.424V-8.279h-1.16v6.592L19.734-8.279H18.328ZM28.518,0h1.2V-7.248h2.7V-8.279h-6.6v1.031h2.7Zm5.3,0h5.432V-1.107H35V-3.615h3.8V-4.67H35V-7.213h4.242V-8.279H33.814Zm6.434,0h1.418l2.086-3.264L45.867,0h1.406L44.531-4.143l2.73-4.137H45.855L43.764-4.963,41.678-8.279H40.26L43-4.143ZM50.6,0h1.2V-7.248h2.7V-8.279H47.9v1.031h2.7Zm7.523.094a2.482,2.482,0,0,0,2.719-2.437c0-2.707-4-2.232-4-3.949a1.105,1.105,0,0,1,1.2-1.061,1.634,1.634,0,0,1,1.482.92l.949-.6a2.64,2.64,0,0,0-2.4-1.365,2.219,2.219,0,0,0-2.4,2.186c0,2.6,4,2.033,4,3.973,0,.809-.592,1.277-1.535,1.277a1.711,1.711,0,0,1-1.863-1.564l-1.154.311A2.848,2.848,0,0,0,58.125.094Z" transform="translate(243.086 12)"/>
    <path id="Path_161863" data-name="Path 161863" d="M1.035,0h.771V-6.089L4.756,0H5.889V-6.9H5.122V-.82L2.153-6.9H1.035ZM9.3.107A1.736,1.736,0,0,0,10.83-.825V0h.723V-4.878H10.83v2.7A1.566,1.566,0,0,1,9.375-.508C8.54-.508,8.35-1.294,8.35-2V-4.878H7.622v2.832C7.622-.83,8.1.107,9.3.107ZM13.2,0h.737V-2.544c0-.884.435-1.816,1.245-1.816.835,0,1.025.776,1.025,1.45V0h.742V-2.705c0-.8.435-1.655,1.235-1.655.845,0,1.045.806,1.045,1.47V0h.737V-2.964c0-1.084-.488-2.017-1.694-2.017A1.618,1.618,0,0,0,16.753-3.96,1.465,1.465,0,0,0,15.264-4.98a1.459,1.459,0,0,0-1.328.859v-.757H13.2ZM23.75.1c1.27,0,1.963-1.147,1.963-2.539S25.02-4.98,23.745-4.98a1.747,1.747,0,0,0-1.514.767V-6.9H21.5V0h.728V-.664A1.747,1.747,0,0,0,23.75.1Zm-.19-.615c-.977,0-1.392-.928-1.392-1.924s.415-1.924,1.392-1.924,1.426.938,1.426,1.924S24.541-.518,23.56-.518Zm5.264.586a2.392,2.392,0,0,0,1.865-.762l-.5-.4a1.7,1.7,0,0,1-1.372.522,1.444,1.444,0,0,1-1.426-1.621h3.4c.01-.088.024-.249.024-.376,0-1.123-.488-2.378-2.07-2.378-1.416,0-2.119,1.226-2.119,2.534A2.211,2.211,0,0,0,28.823.068ZM27.393-2.788c.039-.83.459-1.558,1.353-1.558,1,0,1.353.776,1.372,1.558ZM32.07,0h.718V-2.437c0-1.177.5-1.846,1.333-1.846a.888.888,0,0,1,.6.186l.308-.63a1.268,1.268,0,0,0-.786-.254,1.572,1.572,0,0,0-1.44.967v-.864H32.07Zm8.423.1a2.4,2.4,0,0,0,2.324-2.549A2.383,2.383,0,0,0,40.493-4.98a2.361,2.361,0,0,0-2.3,2.529A2.376,2.376,0,0,0,40.493.1Zm0-.605c-1.074,0-1.572-.957-1.572-1.943s.5-1.924,1.582-1.924,1.572.947,1.572,1.924S41.592-.508,40.5-.508ZM44.282,0h.728V-4.282h1.4v-.6h-1.4v-.781c0-.5.273-.728.649-.728a1.387,1.387,0,0,1,.571.151l.176-.581a1.825,1.825,0,0,0-.8-.186,1.225,1.225,0,0,0-1.318,1.3v.82h-.894v.6h.889Zm7.627.1a2.4,2.4,0,0,0,2.324-2.549A2.383,2.383,0,0,0,51.909-4.98a2.361,2.361,0,0,0-2.3,2.529A2.376,2.376,0,0,0,51.909.1Zm0-.605c-1.074,0-1.572-.957-1.572-1.943s.5-1.924,1.582-1.924S53.5-3.428,53.5-2.451,53.008-.508,51.914-.508ZM57.222.1A1.861,1.861,0,0,0,59.058-1.2l-.635-.273a1.224,1.224,0,0,1-1.211.952c-1.021,0-1.362-1.021-1.362-1.914s.352-1.934,1.362-1.934a1.234,1.234,0,0,1,1.211.977l.688-.293a2,2,0,0,0-1.9-1.3c-1.406,0-2.109,1.24-2.109,2.549S55.815.1,57.222.1Zm4.707,0A1.861,1.861,0,0,0,63.765-1.2L63.13-1.47a1.224,1.224,0,0,1-1.211.952c-1.021,0-1.362-1.021-1.362-1.914s.352-1.934,1.362-1.934a1.234,1.234,0,0,1,1.211.977l.688-.293a2,2,0,0,0-1.9-1.3c-1.406,0-2.109,1.24-2.109,2.549S60.522.1,61.929.1Zm4.5.01a1.736,1.736,0,0,0,1.533-.933V0h.723V-4.878h-.723v2.7a1.566,1.566,0,0,1-1.455,1.67c-.835,0-1.025-.786-1.025-1.489V-4.878h-.728v2.832C64.756-.83,65.229.107,66.431.107ZM70.332,0h.718V-2.437c0-1.177.5-1.846,1.333-1.846a.888.888,0,0,1,.6.186l.308-.63A1.268,1.268,0,0,0,72.5-4.98a1.572,1.572,0,0,0-1.44.967v-.864h-.728Zm3.892,0h.718V-2.437c0-1.177.5-1.846,1.333-1.846a.888.888,0,0,1,.6.186l.308-.63a1.268,1.268,0,0,0-.786-.254,1.572,1.572,0,0,0-1.44.967v-.864h-.728Zm5.3.068a2.392,2.392,0,0,0,1.865-.762l-.5-.4a1.7,1.7,0,0,1-1.372.522A1.444,1.444,0,0,1,78.1-2.192h3.4c.01-.088.024-.249.024-.376,0-1.123-.488-2.378-2.07-2.378-1.416,0-2.119,1.226-2.119,2.534A2.211,2.211,0,0,0,79.526.068ZM78.1-2.788c.039-.83.459-1.558,1.353-1.558,1,0,1.353.776,1.372,1.558ZM82.773,0H83.5V-2.534c0-1.211.61-1.812,1.377-1.812.859,0,1.108.781,1.108,1.455V0h.723V-2.964c0-1.074-.474-2-1.636-2a1.752,1.752,0,0,0-1.572.938v-.85h-.728Zm7.212.1A1.861,1.861,0,0,0,91.821-1.2l-.635-.273a1.224,1.224,0,0,1-1.211.952c-1.021,0-1.362-1.021-1.362-1.914s.352-1.934,1.362-1.934a1.234,1.234,0,0,1,1.211.977l.688-.293a2,2,0,0,0-1.9-1.3c-1.406,0-2.109,1.24-2.109,2.549S88.579.1,89.985.1Zm4.78-.029a2.392,2.392,0,0,0,1.865-.762l-.5-.4a1.7,1.7,0,0,1-1.372.522,1.444,1.444,0,0,1-1.426-1.621h3.4c.01-.088.024-.249.024-.376,0-1.123-.488-2.378-2.07-2.378-1.416,0-2.119,1.226-2.119,2.534A2.211,2.211,0,0,0,94.766.068ZM93.335-2.788c.039-.83.459-1.558,1.353-1.558,1,0,1.353.776,1.372,1.558ZM99.365.1a1.521,1.521,0,0,0,1.675-1.489c0-1.792-2.632-1.2-2.632-2.324,0-.4.327-.674.854-.674a1.15,1.15,0,0,1,1.089.688l.537-.308a1.733,1.733,0,0,0-1.6-.972,1.392,1.392,0,0,0-1.548,1.353c0,1.655,2.593,1.011,2.593,2.324,0,.527-.405.806-.957.806a1.237,1.237,0,0,1-1.216-.928l-.615.317A1.893,1.893,0,0,0,99.365.1Z" transform="translate(414.823 34.756)"/>
    <path id="Path_161864" data-name="Path 161864" d="M3.387.094A2.482,2.482,0,0,0,6.105-2.344c0-2.707-4-2.232-4-3.949A1.105,1.105,0,0,1,3.3-7.354a1.634,1.634,0,0,1,1.482.92l.949-.6A2.64,2.64,0,0,0,3.334-8.4a2.219,2.219,0,0,0-2.4,2.186c0,2.6,4,2.033,4,3.973,0,.809-.592,1.277-1.535,1.277A1.711,1.711,0,0,1,1.535-2.531L.381-2.221A2.848,2.848,0,0,0,3.387.094ZM7.74,0H8.93V-8.279H7.74Zm2.783,0h6.516V-1.078H12.111l4.928-6.293v-.908H10.787v1.066h4.688L10.523-.867Zm8.186,0h5.432V-1.107H19.9V-3.615h3.8V-4.67H19.9V-7.213h4.242V-8.279H18.709Z" transform="translate(391.086 12)"/>
    <path id="Path_148042" data-name="Path 148042" d="M7.5,97.2h9c3.3,0,6,2.25,6,5h0c0,2.75-2.7,5-6,5h-9c-3.3,0-6-2.25-6-5h0C1.5,99.45,4.2,97.2,7.5,97.2Z" transform="translate(0 6.337)" fill="none" stroke="#000" stroke-miterlimit="10" stroke-width="0.25"/>
    <path id="Path_148043" data-name="Path 148043" d="M7.5,128h9c3.3,0,6,2.25,6,5h0c0,2.75-2.7,5-6,5h-9c-3.3,0-6-2.25-6-5h0C1.5,130.25,4.2,128,7.5,128Z" transform="translate(0 7.099)" fill="none" stroke="red" stroke-miterlimit="10" stroke-width="0.5" stroke-dasharray="2 2"/>
    <path id="Path_161870" data-name="Path 161870" d="M1.035,0H4.761V-.708H1.812V-6.9H1.035ZM7.744.1a2.4,2.4,0,0,0,2.324-2.549A2.383,2.383,0,0,0,7.744-4.98a2.361,2.361,0,0,0-2.3,2.529A2.376,2.376,0,0,0,7.744.1Zm0-.605c-1.074,0-1.572-.957-1.572-1.943s.5-1.924,1.582-1.924,1.572.947,1.572,1.924S8.843-.508,7.749-.508ZM13.057.1A1.861,1.861,0,0,0,14.893-1.2l-.635-.273a1.224,1.224,0,0,1-1.211.952c-1.021,0-1.362-1.021-1.362-1.914s.352-1.934,1.362-1.934a1.234,1.234,0,0,1,1.211.977l.688-.293a2,2,0,0,0-1.9-1.3c-1.406,0-2.109,1.24-2.109,2.549S11.65.1,13.057.1Zm4.106,0a1.821,1.821,0,0,0,1.714-1.04L18.892,0h.62V-2.993A1.8,1.8,0,0,0,17.6-4.98a2.164,2.164,0,0,0-1.841.957l.532.415a1.605,1.605,0,0,1,1.353-.737c.884,0,1.2.64,1.2,1.558H17.729c-1.387,0-2.148.454-2.148,1.431A1.43,1.43,0,0,0,17.163.1Zm.083-.615c-.508,0-.913-.239-.913-.82,0-.649.5-.9,1.465-.9h1.045A1.683,1.683,0,0,1,17.246-.518ZM22.378.1a1.966,1.966,0,0,0,.654-.1V-.625a1.164,1.164,0,0,1-.488.122c-.356,0-.62-.249-.62-.786V-4.282h1.235v-.6H21.924V-6.66l-.723.684v1.1h-.786v.6H21.2v2.988C21.2-.459,21.514.1,22.378.1Zm1.895-6.06h.83V-6.9h-.83ZM24.326,0h.723V-4.878h-.723ZM28.6.1a2.4,2.4,0,0,0,2.324-2.549A2.383,2.383,0,0,0,28.6-4.98a2.361,2.361,0,0,0-2.3,2.529A2.376,2.376,0,0,0,28.6.1Zm0-.605c-1.074,0-1.572-.957-1.572-1.943s.5-1.924,1.582-1.924,1.572.947,1.572,1.924S29.7-.508,28.6-.508ZM32.163,0h.728V-2.534c0-1.211.61-1.812,1.377-1.812.859,0,1.108.781,1.108,1.455V0H36.1V-2.964c0-1.074-.474-2-1.636-2a1.752,1.752,0,0,0-1.572.938v-.85h-.728Zm6.816.1a1.521,1.521,0,0,0,1.675-1.489c0-1.792-2.632-1.2-2.632-2.324,0-.4.327-.674.854-.674a1.15,1.15,0,0,1,1.089.688l.537-.308a1.733,1.733,0,0,0-1.6-.972,1.392,1.392,0,0,0-1.548,1.353c0,1.655,2.593,1.011,2.593,2.324,0,.527-.405.806-.957.806a1.237,1.237,0,0,1-1.216-.928l-.615.317A1.893,1.893,0,0,0,38.979.1Zm8.657-7v2.686a1.746,1.746,0,0,0-1.528-.767c-1.245,0-1.953,1.143-1.953,2.539S44.863.1,46.113.1a1.734,1.734,0,0,0,1.528-.776L47.656,0h.708V-6.9ZM46.3-.518c-.977,0-1.4-.928-1.4-1.924s.42-1.924,1.4-1.924c1,0,1.4.938,1.4,1.924S47.295-.518,46.3-.518Zm3.677-5.444h.83V-6.9h-.83ZM50.029,0h.723V-4.878h-.723Zm3.726.1A1.521,1.521,0,0,0,55.43-1.392c0-1.792-2.632-1.2-2.632-2.324,0-.4.327-.674.854-.674a1.15,1.15,0,0,1,1.089.688l.537-.308a1.733,1.733,0,0,0-1.6-.972,1.392,1.392,0,0,0-1.548,1.353c0,1.655,2.593,1.011,2.593,2.324,0,.527-.405.806-.957.806a1.237,1.237,0,0,1-1.216-.928l-.615.317A1.893,1.893,0,0,0,53.755.1ZM57.69.1A1.821,1.821,0,0,0,59.4-.942L59.419,0h.62V-2.993A1.8,1.8,0,0,0,58.13-4.98a2.164,2.164,0,0,0-1.841.957l.532.415a1.605,1.605,0,0,1,1.353-.737c.884,0,1.2.64,1.2,1.558H58.257c-1.387,0-2.148.454-2.148,1.431A1.43,1.43,0,0,0,57.69.1Zm.083-.615c-.508,0-.913-.239-.913-.82,0-.649.5-.9,1.465-.9H59.37A1.683,1.683,0,0,1,57.773-.518Zm3.794,2.656H62.3v-2.8A1.75,1.75,0,0,0,63.794.1C65.1.1,65.781-1.06,65.781-2.441S65.1-4.98,63.789-4.98a1.743,1.743,0,0,0-1.489.767v-.664h-.732Zm2.07-2.656c-.991,0-1.406-.928-1.406-1.924s.415-1.924,1.406-1.924,1.411.938,1.411,1.924S64.614-.518,63.638-.518ZM67.08,2.139h.732v-2.8A1.75,1.75,0,0,0,69.307.1c1.309,0,1.987-1.157,1.987-2.539S70.61-4.98,69.3-4.98a1.743,1.743,0,0,0-1.489.767v-.664H67.08ZM69.15-.518c-.991,0-1.406-.928-1.406-1.924s.415-1.924,1.406-1.924,1.411.938,1.411,1.924S70.127-.518,69.15-.518ZM74.4.068A2.392,2.392,0,0,0,76.27-.693l-.5-.4A1.7,1.7,0,0,1,74.4-.571a1.444,1.444,0,0,1-1.426-1.621h3.4c.01-.088.024-.249.024-.376,0-1.123-.488-2.378-2.07-2.378-1.416,0-2.119,1.226-2.119,2.534A2.211,2.211,0,0,0,74.4.068ZM72.974-2.788c.039-.83.459-1.558,1.353-1.558,1,0,1.353.776,1.372,1.558ZM78.789.1A1.821,1.821,0,0,0,80.5-.942L80.518,0h.62V-2.993A1.8,1.8,0,0,0,79.229-4.98a2.164,2.164,0,0,0-1.841.957l.532.415a1.605,1.605,0,0,1,1.353-.737c.884,0,1.2.64,1.2,1.558H79.355c-1.387,0-2.148.454-2.148,1.431A1.43,1.43,0,0,0,78.789.1Zm.083-.615c-.508,0-.913-.239-.913-.82,0-.649.5-.9,1.465-.9h1.045A1.683,1.683,0,0,1,78.872-.518ZM82.656,0h.718V-2.437c0-1.177.5-1.846,1.333-1.846a.888.888,0,0,1,.6.186l.308-.63a1.268,1.268,0,0,0-.786-.254,1.572,1.572,0,0,0-1.44.967v-.864h-.728Zm5.3.068a2.392,2.392,0,0,0,1.865-.762l-.5-.4a1.7,1.7,0,0,1-1.372.522,1.444,1.444,0,0,1-1.426-1.621h3.4c.01-.088.024-.249.024-.376,0-1.123-.488-2.378-2.07-2.378-1.416,0-2.119,1.226-2.119,2.534A2.211,2.211,0,0,0,87.959.068ZM86.528-2.788c.039-.83.459-1.558,1.353-1.558,1,0,1.353.776,1.372,1.558ZM94.336-6.9v2.686a1.746,1.746,0,0,0-1.528-.767c-1.245,0-1.953,1.143-1.953,2.539S91.563.1,92.813.1a1.734,1.734,0,0,0,1.528-.776L94.355,0h.708V-6.9ZM93-.518c-.977,0-1.4-.928-1.4-1.924s.42-1.924,1.4-1.924c1,0,1.4.938,1.4,1.924S93.994-.518,93-.518ZM99.585,0h.728V-4.282h1.4v-.6h-1.4v-.781c0-.5.273-.728.649-.728a1.387,1.387,0,0,1,.571.151l.176-.581a1.825,1.825,0,0,0-.8-.186A1.225,1.225,0,0,0,99.59-5.7v.82H98.7v.6h.889Zm3.086,0h.718V-2.437c0-1.177.5-1.846,1.333-1.846a.888.888,0,0,1,.6.186l.308-.63a1.268,1.268,0,0,0-.786-.254,1.572,1.572,0,0,0-1.44.967v-.864h-.728Zm5.381.1a2.4,2.4,0,0,0,2.324-2.549,2.383,2.383,0,0,0-2.324-2.529,2.361,2.361,0,0,0-2.3,2.529A2.376,2.376,0,0,0,108.052.1Zm0-.605c-1.074,0-1.572-.957-1.572-1.943s.5-1.924,1.582-1.924,1.572.947,1.572,1.924S109.15-.508,108.057-.508Zm3.56.508h.737V-2.544c0-.884.435-1.816,1.245-1.816.835,0,1.025.776,1.025,1.45V0h.742V-2.705c0-.8.435-1.655,1.235-1.655.845,0,1.045.806,1.045,1.47V0h.737V-2.964c0-1.084-.488-2.017-1.694-2.017a1.618,1.618,0,0,0-1.519,1.021,1.465,1.465,0,0,0-1.489-1.021,1.459,1.459,0,0,0-1.328.859v-.757h-.737Zm12.075.1a1.821,1.821,0,0,0,1.714-1.04L125.42,0h.62V-2.993a1.8,1.8,0,0,0-1.909-1.987,2.164,2.164,0,0,0-1.841.957l.532.415a1.605,1.605,0,0,1,1.353-.737c.884,0,1.2.64,1.2,1.558h-1.113c-1.387,0-2.148.454-2.148,1.431A1.43,1.43,0,0,0,123.691.1Zm.083-.615c-.508,0-.913-.239-.913-.82,0-.649.5-.9,1.465-.9h1.045A1.683,1.683,0,0,1,123.774-.518Zm4.746-.02c-.22,0-.239-.264-.239-.278V-6.9h-.737V-.986c0,.586.054,1.084.791,1.084a2.381,2.381,0,0,0,.659-.1V-.586A2.891,2.891,0,0,1,128.521-.537Zm2.529,0c-.22,0-.239-.264-.239-.278V-6.9h-.737V-.986c0,.586.054,1.084.791,1.084a2.381,2.381,0,0,0,.659-.1V-.586A2.891,2.891,0,0,1,131.05-.537ZM136.611.1a1.521,1.521,0,0,0,1.675-1.489c0-1.792-2.632-1.2-2.632-2.324,0-.4.327-.674.854-.674A1.15,1.15,0,0,1,137.6-3.7l.537-.308a1.733,1.733,0,0,0-1.6-.972,1.392,1.392,0,0,0-1.548,1.353c0,1.655,2.593,1.011,2.593,2.324,0,.527-.405.806-.957.806a1.237,1.237,0,0,1-1.216-.928l-.615.317A1.893,1.893,0,0,0,136.611.1Zm4.243,0a1.966,1.966,0,0,0,.654-.1V-.625a1.164,1.164,0,0,1-.488.122c-.356,0-.62-.249-.62-.786V-4.282h1.235v-.6H140.4V-6.66l-.723.684v1.1h-.786v.6h.781v2.988C139.673-.459,139.99.1,140.854.1Zm3.789,0a2.4,2.4,0,0,0,2.324-2.549,2.383,2.383,0,0,0-2.324-2.529,2.361,2.361,0,0,0-2.3,2.529A2.376,2.376,0,0,0,144.644.1Zm0-.605c-1.074,0-1.572-.957-1.572-1.943s.5-1.924,1.582-1.924,1.572.947,1.572,1.924S145.742-.508,144.648-.508Zm3.56.508h.718V-2.437c0-1.177.5-1.846,1.333-1.846a.888.888,0,0,1,.6.186l.308-.63a1.268,1.268,0,0,0-.786-.254,1.572,1.572,0,0,0-1.44.967v-.864h-.728Zm3.848-5.962h.83V-6.9h-.83ZM152.109,0h.723V-4.878h-.723ZM156.3.068a2.392,2.392,0,0,0,1.865-.762l-.5-.4a1.7,1.7,0,0,1-1.372.522,1.444,1.444,0,0,1-1.426-1.621h3.4c.01-.088.024-.249.024-.376,0-1.123-.488-2.378-2.07-2.378-1.416,0-2.119,1.226-2.119,2.534A2.211,2.211,0,0,0,156.3.068Zm-1.431-2.856c.039-.83.459-1.558,1.353-1.558,1,0,1.353.776,1.372,1.558ZM160.9.1a1.521,1.521,0,0,0,1.675-1.489c0-1.792-2.632-1.2-2.632-2.324,0-.4.327-.674.854-.674a1.15,1.15,0,0,1,1.089.688l.537-.308a1.733,1.733,0,0,0-1.6-.972,1.392,1.392,0,0,0-1.548,1.353c0,1.655,2.593,1.011,2.593,2.324,0,.527-.405.806-.957.806a1.237,1.237,0,0,1-1.216-.928l-.615.317A1.893,1.893,0,0,0,160.9.1Z" transform="translate(29 143.667)"/>
    <path id="Path_161869" data-name="Path 161869" d="M1.035,9H4.761V8.292H1.812V2.1H1.035Zm6.709.1a2.4,2.4,0,0,0,2.324-2.549A2.383,2.383,0,0,0,7.744,4.02a2.361,2.361,0,0,0-2.3,2.529A2.376,2.376,0,0,0,7.744,9.1Zm0-.605c-1.074,0-1.572-.957-1.572-1.943s.5-1.924,1.582-1.924,1.572.947,1.572,1.924S8.843,8.492,7.749,8.492Zm5.308.605A1.861,1.861,0,0,0,14.893,7.8l-.635-.273a1.224,1.224,0,0,1-1.211.952c-1.021,0-1.362-1.021-1.362-1.914s.352-1.934,1.362-1.934a1.234,1.234,0,0,1,1.211.977l.688-.293a2,2,0,0,0-1.9-1.3c-1.406,0-2.109,1.24-2.109,2.549S11.65,9.1,13.057,9.1Zm4.106,0a1.821,1.821,0,0,0,1.714-1.04L18.892,9h.62V6.007A1.8,1.8,0,0,0,17.6,4.02a2.164,2.164,0,0,0-1.841.957l.532.415a1.605,1.605,0,0,1,1.353-.737c.884,0,1.2.64,1.2,1.558H17.729c-1.387,0-2.148.454-2.148,1.431A1.43,1.43,0,0,0,17.163,9.1Zm.083-.615c-.508,0-.913-.239-.913-.82,0-.649.5-.9,1.465-.9h1.045A1.683,1.683,0,0,1,17.246,8.482Zm5.132.615a1.966,1.966,0,0,0,.654-.1V8.375a1.164,1.164,0,0,1-.488.122c-.356,0-.62-.249-.62-.786V4.718h1.235v-.6H21.924V2.34l-.723.684v1.1h-.786v.6H21.2V7.706C21.2,8.541,21.514,9.1,22.378,9.1Zm1.895-6.06h.83V2.1h-.83ZM24.326,9h.723V4.122h-.723Zm4.272.1a2.4,2.4,0,0,0,2.324-2.549,2.321,2.321,0,1,0-4.624,0A2.376,2.376,0,0,0,28.6,9.1Zm0-.605c-1.074,0-1.572-.957-1.572-1.943s.5-1.924,1.582-1.924,1.572.947,1.572,1.924S29.7,8.492,28.6,8.492ZM32.163,9h.728V6.466c0-1.211.61-1.812,1.377-1.812.859,0,1.108.781,1.108,1.455V9H36.1V6.036c0-1.074-.474-2-1.636-2a1.752,1.752,0,0,0-1.572.938v-.85h-.728Zm6.816.1a1.521,1.521,0,0,0,1.675-1.489c0-1.792-2.632-1.2-2.632-2.324,0-.4.327-.674.854-.674a1.15,1.15,0,0,1,1.089.688l.537-.308a1.733,1.733,0,0,0-1.6-.972,1.392,1.392,0,0,0-1.548,1.353c0,1.655,2.593,1.011,2.593,2.324,0,.527-.405.806-.957.806a1.237,1.237,0,0,1-1.216-.928l-.615.317A1.893,1.893,0,0,0,38.979,9.1Zm7.427,0A2.4,2.4,0,0,0,48.73,6.549a2.321,2.321,0,1,0-4.624,0A2.376,2.376,0,0,0,46.406,9.1Zm0-.605c-1.074,0-1.572-.957-1.572-1.943s.5-1.924,1.582-1.924,1.572.947,1.572,1.924S47.5,8.492,46.411,8.492ZM50.2,9h.728V4.718h1.4v-.6h-1.4V3.341c0-.5.273-.728.649-.728a1.387,1.387,0,0,1,.571.151l.176-.581a1.825,1.825,0,0,0-.8-.186A1.225,1.225,0,0,0,50.2,3.3v.82h-.894v.6H50.2Zm7.085.1a1.966,1.966,0,0,0,.654-.1V8.375a1.164,1.164,0,0,1-.488.122c-.356,0-.62-.249-.62-.786V4.718h1.235v-.6H56.826V2.34l-.723.684v1.1h-.786v.6H56.1V7.706C56.1,8.541,56.416,9.1,57.28,9.1Zm3.711-.029a2.392,2.392,0,0,0,1.865-.762l-.5-.4a1.7,1.7,0,0,1-1.372.522,1.444,1.444,0,0,1-1.426-1.621h3.4c.01-.088.024-.249.024-.376,0-1.123-.488-2.378-2.07-2.378-1.416,0-2.119,1.226-2.119,2.534A2.211,2.211,0,0,0,60.991,9.068ZM59.561,6.212c.039-.83.459-1.558,1.353-1.558,1,0,1.353.776,1.372,1.558ZM63.584,9h.894l1.138-1.846L66.758,9h.869L66,6.539l1.626-2.417h-.869L65.615,5.929,64.478,4.122h-.894l1.646,2.417Zm6.5.1a1.966,1.966,0,0,0,.654-.1V8.375a1.164,1.164,0,0,1-.488.122c-.356,0-.62-.249-.62-.786V4.718h1.235v-.6H69.634V2.34l-.723.684v1.1h-.786v.6h.781V7.706C68.906,8.541,69.224,9.1,70.088,9.1Zm3.35,0a1.521,1.521,0,0,0,1.675-1.489c0-1.792-2.632-1.2-2.632-2.324,0-.4.327-.674.854-.674a1.15,1.15,0,0,1,1.089.688l.537-.308a1.733,1.733,0,0,0-1.6-.972,1.392,1.392,0,0,0-1.548,1.353c0,1.655,2.593,1.011,2.593,2.324,0,.527-.405.806-.957.806a1.237,1.237,0,0,1-1.216-.928l-.615.317A1.893,1.893,0,0,0,73.438,9.1ZM79.751,9h.708L81.621,5.04,82.759,9h.708l1.367-4.878h-.776l-.991,3.906L81.948,4.122h-.669L80.156,8.038l-1-3.916h-.771ZM85.9,9h.723V6.368a1.537,1.537,0,0,1,1.455-1.65c.84,0,1.035.728,1.035,1.392V9h.737V5.992c0-1.04-.474-1.958-1.641-1.958a1.9,1.9,0,0,0-1.587.889V2.1H85.9Zm7.3.068a2.392,2.392,0,0,0,1.865-.762l-.5-.4a1.7,1.7,0,0,1-1.372.522,1.444,1.444,0,0,1-1.426-1.621h3.4c.01-.088.024-.249.024-.376,0-1.123-.488-2.378-2.07-2.378-1.416,0-2.119,1.226-2.119,2.534A2.211,2.211,0,0,0,93.2,9.068ZM91.772,6.212c.039-.83.459-1.558,1.353-1.558,1,0,1.353.776,1.372,1.558ZM96.45,9h.718V6.563c0-1.177.5-1.846,1.333-1.846a.888.888,0,0,1,.6.186l.308-.63a1.268,1.268,0,0,0-.786-.254,1.572,1.572,0,0,0-1.44.967V4.122H96.45Zm5.3.068a2.392,2.392,0,0,0,1.865-.762l-.5-.4a1.7,1.7,0,0,1-1.372.522,1.444,1.444,0,0,1-1.426-1.621h3.4c.01-.088.024-.249.024-.376,0-1.123-.488-2.378-2.07-2.378-1.416,0-2.119,1.226-2.119,2.534A2.211,2.211,0,0,0,101.753,9.068Zm-1.431-2.856c.039-.83.459-1.558,1.353-1.558,1,0,1.353.776,1.372,1.558Zm7.329,4.927h.732v-2.8a1.75,1.75,0,0,0,1.494.762c1.309,0,1.987-1.157,1.987-2.539s-.684-2.539-1.992-2.539a1.743,1.743,0,0,0-1.489.767V4.122h-.732Zm2.07-2.656c-.991,0-1.406-.928-1.406-1.924s.415-1.924,1.406-1.924,1.411.938,1.411,1.924S110.7,8.482,109.722,8.482Zm4.57.615a1.821,1.821,0,0,0,1.714-1.04l.015.942h.62V6.007a1.8,1.8,0,0,0-1.909-1.987,2.164,2.164,0,0,0-1.841.957l.532.415a1.605,1.605,0,0,1,1.353-.737c.884,0,1.2.64,1.2,1.558h-1.113c-1.387,0-2.148.454-2.148,1.431A1.43,1.43,0,0,0,114.292,9.1Zm.083-.615c-.508,0-.913-.239-.913-.82,0-.649.5-.9,1.465-.9h1.045A1.683,1.683,0,0,1,114.375,8.482Zm5.137.615a1.521,1.521,0,0,0,1.675-1.489c0-1.792-2.632-1.2-2.632-2.324,0-.4.327-.674.854-.674A1.15,1.15,0,0,1,120.5,5.3l.537-.308a1.733,1.733,0,0,0-1.6-.972,1.392,1.392,0,0,0-1.548,1.353c0,1.655,2.593,1.011,2.593,2.324,0,.527-.405.806-.957.806a1.237,1.237,0,0,1-1.216-.928l-.615.317A1.893,1.893,0,0,0,119.512,9.1Zm4.243,0a1.966,1.966,0,0,0,.654-.1V8.375a1.164,1.164,0,0,1-.488.122c-.356,0-.62-.249-.62-.786V4.718h1.235v-.6H123.3V2.34l-.723.684v1.1h-.786v.6h.781V7.706C122.573,8.541,122.891,9.1,123.755,9.1Zm5.708,0a1.821,1.821,0,0,0,1.714-1.04l.015.942h.62V6.007A1.8,1.8,0,0,0,129.9,4.02a2.164,2.164,0,0,0-1.841.957l.532.415a1.605,1.605,0,0,1,1.353-.737c.884,0,1.2.64,1.2,1.558h-1.113c-1.387,0-2.148.454-2.148,1.431A1.43,1.43,0,0,0,129.463,9.1Zm.083-.615c-.508,0-.913-.239-.913-.82,0-.649.5-.9,1.465-.9h1.045A1.683,1.683,0,0,1,129.546,8.482ZM133.33,9h.728V6.466c0-1.211.61-1.812,1.377-1.812.859,0,1.108.781,1.108,1.455V9h.723V6.036c0-1.074-.474-2-1.636-2a1.752,1.752,0,0,0-1.572.938v-.85h-.728Zm8.594-6.9V4.786A1.746,1.746,0,0,0,140.4,4.02c-1.245,0-1.953,1.143-1.953,2.539S139.15,9.1,140.4,9.1a1.734,1.734,0,0,0,1.528-.776l.015.679h.708V2.1Zm-1.338,6.382c-.977,0-1.4-.928-1.4-1.924s.42-1.924,1.4-1.924c1,0,1.4.938,1.4,1.924S141.582,8.482,140.586,8.482Zm6.372,2.656h.732v-2.8a1.75,1.75,0,0,0,1.494.762c1.309,0,1.987-1.157,1.987-2.539s-.684-2.539-1.992-2.539a1.743,1.743,0,0,0-1.489.767V4.122h-.732Zm2.07-2.656c-.991,0-1.406-.928-1.406-1.924s.415-1.924,1.406-1.924,1.411.938,1.411,1.924S150,8.482,149.028,8.482ZM152.461,9h.718V6.563c0-1.177.5-1.846,1.333-1.846a.888.888,0,0,1,.6.186l.308-.63a1.268,1.268,0,0,0-.786-.254,1.572,1.572,0,0,0-1.44.967V4.122h-.728Zm5.3.068a2.392,2.392,0,0,0,1.865-.762l-.5-.4a1.7,1.7,0,0,1-1.372.522,1.444,1.444,0,0,1-1.426-1.621h3.4c.01-.088.024-.249.024-.376,0-1.123-.488-2.378-2.07-2.378-1.416,0-2.119,1.226-2.119,2.534A2.211,2.211,0,0,0,157.764,9.068Zm-1.431-2.856c.039-.83.459-1.558,1.353-1.558,1,0,1.353.776,1.372,1.558Zm6.03,2.886a1.521,1.521,0,0,0,1.675-1.489c0-1.792-2.632-1.2-2.632-2.324,0-.4.327-.674.854-.674a1.15,1.15,0,0,1,1.089.688l.537-.308a1.733,1.733,0,0,0-1.6-.972,1.392,1.392,0,0,0-1.548,1.353c0,1.655,2.593,1.011,2.593,2.324,0,.527-.405.806-.957.806a1.237,1.237,0,0,1-1.216-.928l-.615.317A1.893,1.893,0,0,0,162.363,9.1Zm4.668-.029a2.392,2.392,0,0,0,1.865-.762l-.5-.4a1.7,1.7,0,0,1-1.372.522A1.444,1.444,0,0,1,165.6,6.808H169c.01-.088.024-.249.024-.376,0-1.123-.488-2.378-2.07-2.378-1.416,0-2.119,1.226-2.119,2.534A2.211,2.211,0,0,0,167.031,9.068ZM165.6,6.212c.039-.83.459-1.558,1.353-1.558,1,0,1.353.776,1.372,1.558ZM170.278,9h.728V6.466c0-1.211.61-1.812,1.377-1.812.859,0,1.108.781,1.108,1.455V9h.723V6.036c0-1.074-.474-2-1.636-2a1.752,1.752,0,0,0-1.572.938v-.85h-.728Zm6.821.1a1.966,1.966,0,0,0,.654-.1V8.375a1.164,1.164,0,0,1-.488.122c-.356,0-.62-.249-.62-.786V4.718h1.235v-.6h-1.235V2.34l-.723.684v1.1h-.786v.6h.781V7.706C175.918,8.541,176.235,9.1,177.1,9.1ZM3.076,21.1c1.27,0,1.963-1.147,1.963-2.539S4.346,16.02,3.071,16.02a1.747,1.747,0,0,0-1.514.767V14.1H.83V21h.728v-.664A1.747,1.747,0,0,0,3.076,21.1Zm-.19-.615c-.977,0-1.392-.928-1.392-1.924s.415-1.924,1.392-1.924,1.426.938,1.426,1.924S3.867,20.482,2.886,20.482Zm4.4-.02c-.22,0-.239-.264-.239-.278V14.1H6.313v5.913c0,.586.054,1.084.791,1.084a2.381,2.381,0,0,0,.659-.1v-.586A2.891,2.891,0,0,1,7.29,20.463Zm3.389.605a2.392,2.392,0,0,0,1.865-.762l-.5-.4a1.7,1.7,0,0,1-1.372.522,1.444,1.444,0,0,1-1.426-1.621h3.4c.01-.088.024-.249.024-.376,0-1.123-.488-2.378-2.07-2.378-1.416,0-2.119,1.226-2.119,2.534A2.211,2.211,0,0,0,10.679,21.068ZM9.248,18.212c.039-.83.459-1.558,1.353-1.558,1,0,1.353.776,1.372,1.558ZM13.926,21h.728V18.466c0-1.211.61-1.812,1.377-1.812.859,0,1.108.781,1.108,1.455V21h.723V18.036c0-1.074-.474-2-1.636-2a1.752,1.752,0,0,0-1.572.938v-.85h-.728Zm8.594-6.9v2.686a1.746,1.746,0,0,0-1.528-.767c-1.245,0-1.953,1.143-1.953,2.539S19.746,21.1,21,21.1a1.734,1.734,0,0,0,1.528-.776l.015.679h.708V14.1Zm-1.338,6.382c-.977,0-1.4-.928-1.4-1.924s.42-1.924,1.4-1.924c1,0,1.4.938,1.4,1.924S22.178,20.482,21.182,20.482ZM27.5,15.038h.83V14.1H27.5ZM27.554,21h.723V16.122h-.723Zm2.373,0h.728V18.466c0-1.211.61-1.812,1.377-1.812.859,0,1.108.781,1.108,1.455V21h.723V18.036c0-1.074-.474-2-1.636-2a1.752,1.752,0,0,0-1.572.938v-.85h-.728Zm9.243.1a1.821,1.821,0,0,0,1.714-1.04L40.9,21h.62V18.007a1.8,1.8,0,0,0-1.909-1.987,2.164,2.164,0,0,0-1.841.957l.532.415a1.605,1.605,0,0,1,1.353-.737c.884,0,1.2.64,1.2,1.558H39.736c-1.387,0-2.148.454-2.148,1.431A1.43,1.43,0,0,0,39.17,21.1Zm.083-.615c-.508,0-.913-.239-.913-.82,0-.649.5-.9,1.465-.9H40.85A1.683,1.683,0,0,1,39.253,20.482ZM45.63,21h.952V18.393c0-.771.41-1.523,1.143-1.523s.908.64.908,1.27V21h.957V18.31c0-.732.41-1.44,1.138-1.44s.923.659.923,1.289V21h.962V18.051c0-1.06-.518-2.031-1.748-2.031a1.714,1.714,0,0,0-1.562.947,1.525,1.525,0,0,0-2.72-.205v-.64H45.63Zm8.354-5.884H55V14.1H53.984ZM54.023,21h.942V16.122h-.942Zm1.855,0h1.152l1.079-1.753L59.194,21h1.143l-1.65-2.461,1.65-2.417H59.194L58.11,17.836l-1.079-1.714H55.879l1.66,2.417Zm7.144.083a2.474,2.474,0,0,0,1.929-.815l-.654-.552a1.585,1.585,0,0,1-1.274.522,1.287,1.287,0,0,1-1.328-1.367h3.374a2.764,2.764,0,0,0,.029-.415,2.145,2.145,0,0,0-2.158-2.417,2.3,2.3,0,0,0-2.246,2.544A2.28,2.28,0,0,0,63.022,21.083Zm-1.328-2.93c.068-.723.439-1.328,1.24-1.328.825,0,1.2.586,1.245,1.328ZM69.341,14.1v2.6a1.764,1.764,0,0,0-1.465-.684c-1.294,0-2.017,1.167-2.017,2.539s.723,2.539,2.026,2.539a1.741,1.741,0,0,0,1.479-.708l.029.61h.9V14.1Zm-1.216,6.167c-.908,0-1.3-.8-1.3-1.709s.4-1.7,1.3-1.7,1.294.8,1.294,1.7S69.038,20.268,68.125,20.268Zm7.778.83a2.273,2.273,0,0,0,.762-.122v-.84a1.382,1.382,0,0,1-.581.151c-.332,0-.586-.2-.586-.7V16.908h1.235v-.786H75.5V14.208l-.928.762v1.152h-.8v.786h.786v2.773A1.25,1.25,0,0,0,75.9,21.1Zm1.924-5.981h1.021V14.1H77.827ZM77.866,21h.942V16.122h-.942Zm2.485,0H81.3V18.393c0-.771.41-1.523,1.143-1.523s.908.64.908,1.27V21h.957V18.31c0-.732.41-1.44,1.138-1.44s.923.659.923,1.289V21h.962V18.051c0-1.06-.518-2.031-1.748-2.031a1.714,1.714,0,0,0-1.562.947,1.525,1.525,0,0,0-2.72-.205v-.64h-.952Zm10.313.083a2.474,2.474,0,0,0,1.929-.815l-.654-.552a1.585,1.585,0,0,1-1.274.522,1.287,1.287,0,0,1-1.328-1.367H92.71a2.764,2.764,0,0,0,.029-.415,2.145,2.145,0,0,0-2.158-2.417,2.3,2.3,0,0,0-2.246,2.544A2.28,2.28,0,0,0,90.664,21.083Zm-1.328-2.93c.068-.723.439-1.328,1.24-1.328.825,0,1.2.586,1.245,1.328Z" transform="translate(29 102)"/>
    <path id="Path_157234" data-name="Path 157234" d="M7.654,76.8C4.585,76.8,2,74.514,2,71.8s2.585-5,5.654-5h9.692c3.069,0,5.654,2.286,5.654,5s-2.585,5-5.654,5Z" transform="translate(-1 -6.309)" fill="#dbdbdb"/>
    <g id="Group_24680" data-name="Group 24680">
      <g id="Group_24678" data-name="Group 24678" transform="translate(0.703 26.322)" clip-path="url(#clip-path-4)">
        <line id="Line_7918" data-name="Line 7918" x2="107.1" y2="89.25" transform="translate(-66 1.625)" fill="none" stroke="#0d1b3a" stroke-miterlimit="10" stroke-width="0.25"/>
        <line id="Line_7919" data-name="Line 7919" x2="107.1" y2="89.25" transform="translate(-62.4 0.125)" fill="none" stroke="#0d1b3a" stroke-miterlimit="10" stroke-width="0.25"/>
        <line id="Line_7920" data-name="Line 7920" x2="107.1" y2="89.25" transform="translate(-58.8 -1.375)" fill="none" stroke="#0d1b3a" stroke-miterlimit="10" stroke-width="0.25"/>
        <line id="Line_7921" data-name="Line 7921" x2="107.1" y2="89.25" transform="translate(-55.2 -2.875)" fill="none" stroke="#0d1b3a" stroke-miterlimit="10" stroke-width="0.25"/>
        <line id="Line_7922" data-name="Line 7922" x2="107.1" y2="89.25" transform="translate(-51.6 -4.375)" fill="none" stroke="#0d1b3a" stroke-miterlimit="10" stroke-width="0.25"/>
        <line id="Line_7923" data-name="Line 7923" x2="107.1" y2="89.25" transform="translate(-48 -5.875)" fill="none" stroke="#0d1b3a" stroke-miterlimit="10" stroke-width="0.25"/>
        <line id="Line_7924" data-name="Line 7924" x2="107.1" y2="89.25" transform="translate(-44.4 -7.375)" fill="none" stroke="#0d1b3a" stroke-miterlimit="10" stroke-width="0.25"/>
        <line id="Line_7925" data-name="Line 7925" x2="107.1" y2="89.25" transform="translate(-40.8 -8.875)" fill="none" stroke="#0d1b3a" stroke-miterlimit="10" stroke-width="0.25"/>
        <line id="Line_7926" data-name="Line 7926" x2="107.1" y2="89.25" transform="translate(-37.2 -10.375)" fill="none" stroke="#0d1b3a" stroke-miterlimit="10" stroke-width="0.25"/>
        <line id="Line_7927" data-name="Line 7927" x2="107.1" y2="89.25" transform="translate(-33.6 -11.875)" fill="none" stroke="#0d1b3a" stroke-miterlimit="10" stroke-width="0.25"/>
        <line id="Line_7928" data-name="Line 7928" x2="107.1" y2="89.25" transform="translate(-30 -13.375)" fill="none" stroke="#0d1b3a" stroke-miterlimit="10" stroke-width="0.25"/>
        <line id="Line_7929" data-name="Line 7929" x2="107.1" y2="89.25" transform="translate(-26.4 -14.875)" fill="none" stroke="#0d1b3a" stroke-miterlimit="10" stroke-width="0.25"/>
        <line id="Line_7930" data-name="Line 7930" x2="107.1" y2="89.25" transform="translate(-22.8 -16.375)" fill="none" stroke="#0d1b3a" stroke-miterlimit="10" stroke-width="0.25"/>
        <line id="Line_7931" data-name="Line 7931" x2="107.1" y2="89.25" transform="translate(-19.2 -17.875)" fill="none" stroke="#0d1b3a" stroke-miterlimit="10" stroke-width="0.25"/>
        <line id="Line_7932" data-name="Line 7932" x2="107.1" y2="89.25" transform="translate(-15.6 -19.375)" fill="none" stroke="#0d1b3a" stroke-miterlimit="10" stroke-width="0.25"/>
        <line id="Line_7933" data-name="Line 7933" x2="107.1" y2="89.25" transform="translate(-12 -20.875)" fill="none" stroke="#0d1b3a" stroke-miterlimit="10" stroke-width="0.25"/>
        <line id="Line_7934" data-name="Line 7934" x2="107.1" y2="89.25" transform="translate(-8.4 -22.375)" fill="none" stroke="#0d1b3a" stroke-miterlimit="10" stroke-width="0.25"/>
        <line id="Line_7935" data-name="Line 7935" x2="107.1" y2="89.25" transform="translate(-4.8 -23.875)" fill="none" stroke="#0d1b3a" stroke-miterlimit="10" stroke-width="0.25"/>
        <line id="Line_7936" data-name="Line 7936" x2="107.1" y2="89.25" transform="translate(-1.2 -25.375)" fill="none" stroke="#0d1b3a" stroke-miterlimit="10" stroke-width="0.25"/>
        <line id="Line_7937" data-name="Line 7937" x2="107.1" y2="89.25" transform="translate(2.4 -26.875)" fill="none" stroke="#0d1b3a" stroke-miterlimit="10" stroke-width="0.25"/>
        <line id="Line_7938" data-name="Line 7938" x2="107.1" y2="89.25" transform="translate(6 -28.375)" fill="none" stroke="#0d1b3a" stroke-miterlimit="10" stroke-width="0.25"/>
      </g>
      <path id="Path_157233" data-name="Path 157233" d="M209.5,35.5h9c3.3,0,6,2.25,6,5h0c0,2.75-2.7,5-6,5h-9c-3.3,0-6-2.25-6-5h0C203.5,37.75,206.2,35.5,209.5,35.5Z" transform="translate(-202.797 -9.178)" fill="none" stroke="#0d1b3a" stroke-miterlimit="10" stroke-width="0.25"/>
    </g>
    <path id="Path_161866" data-name="Path 161866" d="M1.16,0H2.32V-6.6L5.824,0H7.248V-8.279H6.088v6.592L2.566-8.279H1.16ZM8.637,0h1.3l.639-1.8h3.439L14.648,0h1.283L12.744-8.279h-.9Zm2.338-2.848L12.3-6.527l1.313,3.68ZM17.32.012H18.51V-3.627H19.7L21.756.012h1.377L20.859-3.762a2.181,2.181,0,0,0,1.7-2.15,2.453,2.453,0,0,0-2.725-2.361H17.32Zm1.2-4.664V-7.213h1.324c.92,0,1.535.492,1.535,1.313,0,.768-.562,1.207-1.406,1.248ZM24.6.012h1.189V-3.627h1.189L29.033.012H30.41L28.137-3.762a2.181,2.181,0,0,0,1.7-2.15,2.453,2.453,0,0,0-2.725-2.361H24.6Zm1.2-4.664V-7.213h1.324c.92,0,1.535.492,1.535,1.313,0,.768-.562,1.207-1.406,1.248ZM30.908,0h1.3l.639-1.8h3.439L36.92,0H38.2L35.016-8.279h-.9Zm2.338-2.848,1.324-3.68,1.313,3.68ZM40.594,0h1.2V-7.248h2.7V-8.279h-6.6v1.031h2.7Zm5.3,0h5.432V-1.107H47.08V-3.615h3.8V-4.67h-3.8V-7.213h4.242V-8.279H45.891Zm7.277,0H55.4c2.725,0,4.248-1.482,4.248-4.078,0-2.707-1.482-4.2-4.236-4.2H53.168Zm1.189-1.09V-7.2h1.031c2.121,0,3.07,1,3.07,3.053,0,2.18-1.318,3.053-3.2,3.053ZM66.229,0h1.2V-7.248h2.7V-8.279h-6.6v1.031h2.7Zm5.3,0h1.189V-8.279H71.525Zm3.51,0H76.2V-6.873L78.48-.721h1.213l2.285-6.152V0h1.16V-8.279H81.393L79.078-1.986l-2.3-6.293H75.035ZM85.459,0h5.432V-1.107H86.648V-3.615h3.8V-4.67h-3.8V-7.213h4.242V-8.279H85.459Z" transform="translate(0.452 12)"/>
    <path id="Path_161868" data-name="Path 161868" d="M1.035,9H4.761V8.292H1.812V2.1H1.035Zm6.709.1a2.4,2.4,0,0,0,2.324-2.549A2.383,2.383,0,0,0,7.744,4.02a2.361,2.361,0,0,0-2.3,2.529A2.376,2.376,0,0,0,7.744,9.1Zm0-.605c-1.074,0-1.572-.957-1.572-1.943s.5-1.924,1.582-1.924,1.572.947,1.572,1.924S8.843,8.492,7.749,8.492Zm5.308.605A1.861,1.861,0,0,0,14.893,7.8l-.635-.273a1.224,1.224,0,0,1-1.211.952c-1.021,0-1.362-1.021-1.362-1.914s.352-1.934,1.362-1.934a1.234,1.234,0,0,1,1.211.977l.688-.293a2,2,0,0,0-1.9-1.3c-1.406,0-2.109,1.24-2.109,2.549S11.65,9.1,13.057,9.1Zm4.106,0a1.821,1.821,0,0,0,1.714-1.04L18.892,9h.62V6.007A1.8,1.8,0,0,0,17.6,4.02a2.164,2.164,0,0,0-1.841.957l.532.415a1.605,1.605,0,0,1,1.353-.737c.884,0,1.2.64,1.2,1.558H17.729c-1.387,0-2.148.454-2.148,1.431A1.43,1.43,0,0,0,17.163,9.1Zm.083-.615c-.508,0-.913-.239-.913-.82,0-.649.5-.9,1.465-.9h1.045A1.683,1.683,0,0,1,17.246,8.482Zm5.132.615a1.966,1.966,0,0,0,.654-.1V8.375a1.164,1.164,0,0,1-.488.122c-.356,0-.62-.249-.62-.786V4.718h1.235v-.6H21.924V2.34l-.723.684v1.1h-.786v.6H21.2V7.706C21.2,8.541,21.514,9.1,22.378,9.1Zm1.895-6.06h.83V2.1h-.83ZM24.326,9h.723V4.122h-.723Zm4.272.1a2.4,2.4,0,0,0,2.324-2.549,2.321,2.321,0,1,0-4.624,0A2.376,2.376,0,0,0,28.6,9.1Zm0-.605c-1.074,0-1.572-.957-1.572-1.943s.5-1.924,1.582-1.924,1.572.947,1.572,1.924S29.7,8.492,28.6,8.492ZM32.163,9h.728V6.466c0-1.211.61-1.812,1.377-1.812.859,0,1.108.781,1.108,1.455V9H36.1V6.036c0-1.074-.474-2-1.636-2a1.752,1.752,0,0,0-1.572.938v-.85h-.728Zm6.816.1a1.521,1.521,0,0,0,1.675-1.489c0-1.792-2.632-1.2-2.632-2.324,0-.4.327-.674.854-.674a1.15,1.15,0,0,1,1.089.688l.537-.308a1.733,1.733,0,0,0-1.6-.972,1.392,1.392,0,0,0-1.548,1.353c0,1.655,2.593,1.011,2.593,2.324,0,.527-.405.806-.957.806a1.237,1.237,0,0,1-1.216-.928l-.615.317A1.893,1.893,0,0,0,38.979,9.1Zm7.427,0A2.4,2.4,0,0,0,48.73,6.549a2.321,2.321,0,1,0-4.624,0A2.376,2.376,0,0,0,46.406,9.1Zm0-.605c-1.074,0-1.572-.957-1.572-1.943s.5-1.924,1.582-1.924,1.572.947,1.572,1.924S47.5,8.492,46.411,8.492ZM50.2,9h.728V4.718h1.4v-.6h-1.4V3.341c0-.5.273-.728.649-.728a1.387,1.387,0,0,1,.571.151l.176-.581a1.825,1.825,0,0,0-.8-.186A1.225,1.225,0,0,0,50.2,3.3v.82h-.894v.6H50.2Zm7.085.1a1.966,1.966,0,0,0,.654-.1V8.375a1.164,1.164,0,0,1-.488.122c-.356,0-.62-.249-.62-.786V4.718h1.235v-.6H56.826V2.34l-.723.684v1.1h-.786v.6H56.1V7.706C56.1,8.541,56.416,9.1,57.28,9.1Zm3.711-.029a2.392,2.392,0,0,0,1.865-.762l-.5-.4a1.7,1.7,0,0,1-1.372.522,1.444,1.444,0,0,1-1.426-1.621h3.4c.01-.088.024-.249.024-.376,0-1.123-.488-2.378-2.07-2.378-1.416,0-2.119,1.226-2.119,2.534A2.211,2.211,0,0,0,60.991,9.068ZM59.561,6.212c.039-.83.459-1.558,1.353-1.558,1,0,1.353.776,1.372,1.558ZM63.584,9h.894l1.138-1.846L66.758,9h.869L66,6.539l1.626-2.417h-.869L65.615,5.929,64.478,4.122h-.894l1.646,2.417Zm6.5.1a1.966,1.966,0,0,0,.654-.1V8.375a1.164,1.164,0,0,1-.488.122c-.356,0-.62-.249-.62-.786V4.718h1.235v-.6H69.634V2.34l-.723.684v1.1h-.786v.6h.781V7.706C68.906,8.541,69.224,9.1,70.088,9.1Zm3.35,0a1.521,1.521,0,0,0,1.675-1.489c0-1.792-2.632-1.2-2.632-2.324,0-.4.327-.674.854-.674a1.15,1.15,0,0,1,1.089.688l.537-.308a1.733,1.733,0,0,0-1.6-.972,1.392,1.392,0,0,0-1.548,1.353c0,1.655,2.593,1.011,2.593,2.324,0,.527-.405.806-.957.806a1.237,1.237,0,0,1-1.216-.928l-.615.317A1.893,1.893,0,0,0,73.438,9.1ZM79.751,9h.708L81.621,5.04,82.759,9h.708l1.367-4.878h-.776l-.991,3.906L81.948,4.122h-.669L80.156,8.038l-1-3.916h-.771ZM85.9,9h.723V6.368a1.537,1.537,0,0,1,1.455-1.65c.84,0,1.035.728,1.035,1.392V9h.737V5.992c0-1.04-.474-1.958-1.641-1.958a1.9,1.9,0,0,0-1.587.889V2.1H85.9Zm7.3.068a2.392,2.392,0,0,0,1.865-.762l-.5-.4a1.7,1.7,0,0,1-1.372.522,1.444,1.444,0,0,1-1.426-1.621h3.4c.01-.088.024-.249.024-.376,0-1.123-.488-2.378-2.07-2.378-1.416,0-2.119,1.226-2.119,2.534A2.211,2.211,0,0,0,93.2,9.068ZM91.772,6.212c.039-.83.459-1.558,1.353-1.558,1,0,1.353.776,1.372,1.558ZM96.45,9h.718V6.563c0-1.177.5-1.846,1.333-1.846a.888.888,0,0,1,.6.186l.308-.63a1.268,1.268,0,0,0-.786-.254,1.572,1.572,0,0,0-1.44.967V4.122H96.45Zm5.3.068a2.392,2.392,0,0,0,1.865-.762l-.5-.4a1.7,1.7,0,0,1-1.372.522,1.444,1.444,0,0,1-1.426-1.621h3.4c.01-.088.024-.249.024-.376,0-1.123-.488-2.378-2.07-2.378-1.416,0-2.119,1.226-2.119,2.534A2.211,2.211,0,0,0,101.753,9.068Zm-1.431-2.856c.039-.83.459-1.558,1.353-1.558,1,0,1.353.776,1.372,1.558ZM109,9.1a1.966,1.966,0,0,0,.654-.1V8.375a1.164,1.164,0,0,1-.488.122c-.356,0-.62-.249-.62-.786V4.718h1.235v-.6h-1.235V2.34l-.723.684v1.1h-.786v.6h.781V7.706C107.817,8.541,108.135,9.1,109,9.1Zm1.9-.1h.723V6.368a1.537,1.537,0,0,1,1.455-1.65c.84,0,1.035.728,1.035,1.392V9h.737V5.992c0-1.04-.474-1.958-1.641-1.958a1.9,1.9,0,0,0-1.587.889V2.1H110.9Zm7.3.068a2.392,2.392,0,0,0,1.865-.762l-.5-.4a1.7,1.7,0,0,1-1.372.522,1.444,1.444,0,0,1-1.426-1.621h3.4c.01-.088.024-.249.024-.376,0-1.123-.488-2.378-2.07-2.378C116.7,4.054,116,5.279,116,6.588A2.211,2.211,0,0,0,118.2,9.068Zm-1.431-2.856c.039-.83.459-1.558,1.353-1.558,1,0,1.353.776,1.372,1.558ZM124.087,9h.728V6.466c0-1.211.61-1.812,1.377-1.812.859,0,1.108.781,1.108,1.455V9h.723V6.036c0-1.074-.474-2-1.636-2a1.752,1.752,0,0,0-1.572.938v-.85h-.728Zm6.6.1a1.821,1.821,0,0,0,1.714-1.04l.015.942h.62V6.007a1.8,1.8,0,0,0-1.909-1.987,2.164,2.164,0,0,0-1.841.957l.532.415a1.605,1.605,0,0,1,1.353-.737c.884,0,1.2.64,1.2,1.558h-1.113c-1.387,0-2.148.454-2.148,1.431A1.43,1.43,0,0,0,130.688,9.1Zm.083-.615c-.508,0-.913-.239-.913-.82,0-.649.5-.9,1.465-.9h1.045A1.683,1.683,0,0,1,130.771,8.482ZM134.556,9h.718V6.563c0-1.177.5-1.846,1.333-1.846a.888.888,0,0,1,.6.186l.308-.63a1.268,1.268,0,0,0-.786-.254,1.572,1.572,0,0,0-1.44.967V4.122h-.728Zm3.892,0h.718V6.563c0-1.177.5-1.846,1.333-1.846a.888.888,0,0,1,.6.186l.308-.63a1.268,1.268,0,0,0-.786-.254,1.572,1.572,0,0,0-1.44.967V4.122h-.728Zm5.029.1a1.821,1.821,0,0,0,1.714-1.04l.015.942h.62V6.007a1.8,1.8,0,0,0-1.909-1.987,2.164,2.164,0,0,0-1.841.957l.532.415a1.605,1.605,0,0,1,1.353-.737c.884,0,1.2.64,1.2,1.558h-1.113c-1.387,0-2.148.454-2.148,1.431A1.43,1.43,0,0,0,143.477,9.1Zm.083-.615c-.508,0-.913-.239-.913-.82,0-.649.5-.9,1.465-.9h1.045A1.683,1.683,0,0,1,143.56,8.482Zm5.132.615a1.966,1.966,0,0,0,.654-.1V8.375a1.164,1.164,0,0,1-.488.122c-.356,0-.62-.249-.62-.786V4.718h1.235v-.6h-1.235V2.34l-.723.684v1.1h-.786v.6h.781V7.706C147.51,8.541,147.827,9.1,148.691,9.1Zm3.711-.029a2.392,2.392,0,0,0,1.865-.762l-.5-.4a1.7,1.7,0,0,1-1.372.522,1.444,1.444,0,0,1-1.426-1.621h3.4c.01-.088.024-.249.024-.376,0-1.123-.488-2.378-2.07-2.378-1.416,0-2.119,1.226-2.119,2.534A2.211,2.211,0,0,0,152.4,9.068Zm-1.431-2.856c.039-.83.459-1.558,1.353-1.558,1,0,1.353.776,1.372,1.558ZM158.779,2.1V4.786a1.746,1.746,0,0,0-1.528-.767c-1.245,0-1.953,1.143-1.953,2.539s.708,2.539,1.958,2.539a1.734,1.734,0,0,0,1.528-.776L158.8,9h.708V2.1Zm-1.338,6.382c-.977,0-1.4-.928-1.4-1.924s.42-1.924,1.4-1.924c1,0,1.4.938,1.4,1.924S158.438,8.482,157.441,8.482Zm7.72.615a1.966,1.966,0,0,0,.654-.1V8.375a1.164,1.164,0,0,1-.488.122c-.356,0-.62-.249-.62-.786V4.718h1.235v-.6h-1.235V2.34l-.723.684v1.1H163.2v.6h.781V7.706C163.979,8.541,164.3,9.1,165.161,9.1Zm1.895-6.06h.83V2.1h-.83ZM167.109,9h.723V4.122h-.723Zm2.373,0h.737V6.456c0-.884.435-1.816,1.245-1.816.835,0,1.025.776,1.025,1.45V9h.742V6.295c0-.8.435-1.655,1.235-1.655.845,0,1.045.806,1.045,1.47V9h.737V6.036c0-1.084-.488-2.017-1.694-2.017a1.618,1.618,0,0,0-1.519,1.021,1.529,1.529,0,0,0-2.817-.161V4.122h-.737Zm10.117.068a2.392,2.392,0,0,0,1.865-.762l-.5-.4a1.7,1.7,0,0,1-1.372.522,1.444,1.444,0,0,1-1.426-1.621h3.4c.01-.088.024-.249.024-.376,0-1.123-.488-2.378-2.07-2.378-1.416,0-2.119,1.226-2.119,2.534A2.211,2.211,0,0,0,179.6,9.068Zm-1.431-2.856c.039-.83.459-1.558,1.353-1.558,1,0,1.353.776,1.372,1.558ZM.776,15.038h.83V14.1H.776ZM.83,21h.723V16.122H.83Zm3.726.1A1.521,1.521,0,0,0,6.23,19.608c0-1.792-2.632-1.2-2.632-2.324,0-.4.327-.674.854-.674a1.15,1.15,0,0,1,1.089.688l.537-.308a1.733,1.733,0,0,0-1.6-.972A1.392,1.392,0,0,0,2.93,17.372c0,1.655,2.593,1.011,2.593,2.324,0,.527-.405.806-.957.806a1.237,1.237,0,0,1-1.216-.928l-.615.317A1.893,1.893,0,0,0,4.556,21.1Zm6.88,0a1.521,1.521,0,0,0,1.675-1.489c0-1.792-2.632-1.2-2.632-2.324,0-.4.327-.674.854-.674a1.15,1.15,0,0,1,1.089.688l.537-.308a1.733,1.733,0,0,0-1.6-.972A1.392,1.392,0,0,0,9.81,17.372c0,1.655,2.593,1.011,2.593,2.324,0,.527-.405.806-.957.806a1.237,1.237,0,0,1-1.216-.928l-.615.317A1.893,1.893,0,0,0,11.436,21.1Zm4.668-.029a2.392,2.392,0,0,0,1.865-.762l-.5-.4a1.7,1.7,0,0,1-1.372.522,1.444,1.444,0,0,1-1.426-1.621h3.4c.01-.088.024-.249.024-.376,0-1.123-.488-2.378-2.07-2.378-1.416,0-2.119,1.226-2.119,2.534A2.211,2.211,0,0,0,16.1,21.068Zm-1.431-2.856c.039-.83.459-1.558,1.353-1.558,1,0,1.353.776,1.372,1.558ZM20.708,21.1a1.966,1.966,0,0,0,.654-.1v-.625a1.164,1.164,0,0,1-.488.122c-.356,0-.62-.249-.62-.786V16.718h1.235v-.6H20.254V14.34l-.723.684v1.1h-.786v.6h.781v2.988C19.526,20.541,19.844,21.1,20.708,21.1Zm4.526-6.06h.83V14.1h-.83ZM25.288,21h.723V16.122h-.723Zm2.373,0h.728V18.466c0-1.211.61-1.812,1.377-1.812.859,0,1.108.781,1.108,1.455V21H31.6V18.036c0-1.074-.474-2-1.636-2a1.752,1.752,0,0,0-1.572.938v-.85h-.728Zm9.463.1a1.966,1.966,0,0,0,.654-.1v-.625a1.164,1.164,0,0,1-.488.122c-.356,0-.62-.249-.62-.786V16.718h1.235v-.6H36.67V14.34l-.723.684v1.1h-.786v.6h.781v2.988C35.942,20.541,36.26,21.1,37.124,21.1Zm1.9-.1h.723V18.368a1.537,1.537,0,0,1,1.455-1.65c.84,0,1.035.728,1.035,1.392V21h.737V17.992c0-1.04-.474-1.958-1.641-1.958a1.9,1.9,0,0,0-1.587.889V14.1h-.723Zm7.3.068a2.392,2.392,0,0,0,1.865-.762l-.5-.4a1.7,1.7,0,0,1-1.372.522,1.444,1.444,0,0,1-1.426-1.621h3.4c.01-.088.024-.249.024-.376,0-1.123-.488-2.378-2.07-2.378-1.416,0-2.119,1.226-2.119,2.534A2.211,2.211,0,0,0,46.323,21.068Zm-1.431-2.856c.039-.83.459-1.558,1.353-1.558,1,0,1.353.776,1.372,1.558Zm7.28,4.927h.952V20.414a1.751,1.751,0,0,0,1.445.684c1.328,0,2.036-1.172,2.036-2.539s-.713-2.539-2.046-2.539a1.734,1.734,0,0,0-1.436.684v-.581h-.952Zm2.168-2.886c-.908,0-1.3-.781-1.3-1.694s.4-1.709,1.3-1.709,1.309.8,1.309,1.709S55.249,20.253,54.341,20.253ZM59,21.1a1.761,1.761,0,0,0,1.621-.923l.049.825h.786V18.021a1.857,1.857,0,0,0-2-2,2.255,2.255,0,0,0-1.938,1.011l.708.527a1.468,1.468,0,0,1,1.255-.713c.767,0,1.089.532,1.089,1.309H59.38c-1.25,0-2.051.405-2.051,1.421A1.508,1.508,0,0,0,59,21.1Zm.122-.8c-.483,0-.82-.234-.82-.693,0-.488.381-.752,1.147-.752h1.118A1.48,1.48,0,0,1,59.121,20.3Zm5.146.8a1.6,1.6,0,0,0,1.777-1.558c0-1.787-2.559-1.265-2.559-2.212,0-.317.288-.557.747-.557a1.114,1.114,0,0,1,1.035.659l.718-.4a1.874,1.874,0,0,0-1.719-1.016A1.488,1.488,0,0,0,62.6,17.45c0,1.685,2.524,1.084,2.524,2.168,0,.4-.327.7-.879.7a1.153,1.153,0,0,1-1.133-.864l-.771.361A1.981,1.981,0,0,0,64.268,21.1Zm4.458,0a2.273,2.273,0,0,0,.762-.122v-.84a1.382,1.382,0,0,1-.581.151c-.332,0-.586-.2-.586-.7V16.908h1.235v-.786H68.32V14.208l-.928.762v1.152h-.8v.786h.786v2.773A1.25,1.25,0,0,0,68.726,21.1Zm6.533,0a2.4,2.4,0,0,0,2.324-2.549,2.321,2.321,0,1,0-4.624,0A2.376,2.376,0,0,0,75.259,21.1Zm0-.605c-1.074,0-1.572-.957-1.572-1.943s.5-1.924,1.582-1.924,1.572.947,1.572,1.924S76.357,20.492,75.264,20.492Zm3.56.508h.718V18.563c0-1.177.5-1.846,1.333-1.846a.888.888,0,0,1,.6.186l.308-.63a1.268,1.268,0,0,0-.786-.254,1.572,1.572,0,0,0-1.44.967v-.864h-.728ZM85.3,15.038h.83V14.1H85.3ZM85.356,21h.723V16.122h-.723Zm2.373,0h.728V18.466c0-1.211.61-1.812,1.377-1.812.859,0,1.108.781,1.108,1.455V21h.723V18.036c0-1.074-.474-2-1.636-2a1.752,1.752,0,0,0-1.572.938v-.85h-.728Zm9.243.1a1.821,1.821,0,0,0,1.714-1.04L98.7,21h.62V18.007a1.8,1.8,0,0,0-1.909-1.987,2.164,2.164,0,0,0-1.841.957l.532.415a1.605,1.605,0,0,1,1.353-.737c.884,0,1.2.64,1.2,1.558H97.539c-1.387,0-2.148.454-2.148,1.431A1.43,1.43,0,0,0,96.973,21.1Zm.083-.615c-.508,0-.913-.239-.913-.82,0-.649.5-.9,1.465-.9h1.045A1.683,1.683,0,0,1,97.056,20.482ZM100.84,21h.728V18.466c0-1.211.61-1.812,1.377-1.812.859,0,1.108.781,1.108,1.455V21h.723V18.036c0-1.074-.474-2-1.636-2a1.752,1.752,0,0,0-1.572.938v-.85h-.728Zm8.018-5.884h1.021V14.1h-1.021ZM108.9,21h.942V16.122H108.9Zm2.485,0h.938V18.4c0-1.04.527-1.528,1.245-1.528.742,0,1.025.63,1.025,1.284V21h.938V18.051c0-1.05-.483-2.021-1.7-2.021a1.794,1.794,0,0,0-1.509.811v-.718h-.937Zm8.667-6.9v2.6a1.764,1.764,0,0,0-1.465-.684c-1.294,0-2.017,1.167-2.017,2.539s.723,2.539,2.026,2.539a1.741,1.741,0,0,0,1.479-.708l.029.61h.9V14.1Zm-1.216,6.167c-.908,0-1.3-.8-1.3-1.709s.4-1.7,1.3-1.7,1.294.8,1.294,1.7S119.746,20.268,118.833,20.268Zm5.64.815a2.474,2.474,0,0,0,1.929-.815l-.654-.552a1.585,1.585,0,0,1-1.274.522,1.287,1.287,0,0,1-1.328-1.367h3.374a2.764,2.764,0,0,0,.029-.415,2.145,2.145,0,0,0-2.158-2.417,2.3,2.3,0,0,0-2.246,2.544A2.28,2.28,0,0,0,124.473,21.083Zm-1.328-2.93c.068-.723.439-1.328,1.24-1.328.825,0,1.2.586,1.245,1.328Zm6.069,2.944a2.273,2.273,0,0,0,.762-.122v-.84a1.382,1.382,0,0,1-.581.151c-.332,0-.586-.2-.586-.7V16.908h1.235v-.786h-1.235V14.208l-.928.762v1.152h-.8v.786h.786v2.773A1.25,1.25,0,0,0,129.214,21.1Zm3.833-.015a2.474,2.474,0,0,0,1.929-.815l-.654-.552a1.585,1.585,0,0,1-1.274.522,1.287,1.287,0,0,1-1.328-1.367h3.374a2.764,2.764,0,0,0,.029-.415,2.145,2.145,0,0,0-2.158-2.417,2.3,2.3,0,0,0-2.246,2.544A2.28,2.28,0,0,0,133.047,21.083Zm-1.328-2.93c.068-.723.439-1.328,1.24-1.328.825,0,1.2.586,1.245,1.328ZM136.26,21h.918V18.739c0-1.206.537-1.807,1.24-1.807a.913.913,0,0,1,.566.181l.415-.8a1.243,1.243,0,0,0-.835-.3,1.483,1.483,0,0,0-1.377.947v-.845h-.928Zm3.95,0h.952V18.393c0-.771.41-1.523,1.143-1.523s.908.64.908,1.27V21h.957V18.31c0-.732.41-1.44,1.138-1.44s.923.659.923,1.289V21h.962V18.051c0-1.06-.518-2.031-1.748-2.031a1.714,1.714,0,0,0-1.562.947,1.525,1.525,0,0,0-2.72-.205v-.64h-.952Zm8.354-5.884h1.021V14.1h-1.021ZM148.6,21h.942V16.122H148.6Zm2.485,0h.938V18.4c0-1.04.527-1.528,1.245-1.528.742,0,1.025.63,1.025,1.284V21h.938V18.051c0-1.05-.483-2.021-1.7-2.021a1.794,1.794,0,0,0-1.509.811v-.718h-.937Zm6.787.1a1.761,1.761,0,0,0,1.621-.923l.049.825h.786V18.021a1.857,1.857,0,0,0-2-2,2.255,2.255,0,0,0-1.938,1.011l.708.527a1.468,1.468,0,0,1,1.255-.713c.767,0,1.089.532,1.089,1.309h-1.187c-1.25,0-2.051.405-2.051,1.421A1.508,1.508,0,0,0,157.876,21.1Zm.122-.8c-.483,0-.82-.234-.82-.693,0-.488.381-.752,1.147-.752h1.118A1.48,1.48,0,0,1,158,20.3Zm5.249.8a2.273,2.273,0,0,0,.762-.122v-.84a1.382,1.382,0,0,1-.581.151c-.332,0-.586-.2-.586-.7V16.908h1.235v-.786h-1.235V14.208l-.928.762v1.152h-.8v.786h.786v2.773A1.25,1.25,0,0,0,163.247,21.1Zm3.833-.015a2.474,2.474,0,0,0,1.929-.815l-.654-.552a1.585,1.585,0,0,1-1.274.522,1.287,1.287,0,0,1-1.328-1.367h3.374a2.764,2.764,0,0,0,.029-.415A2.145,2.145,0,0,0,167,16.039a2.3,2.3,0,0,0-2.246,2.544A2.28,2.28,0,0,0,167.08,21.083Zm-1.328-2.93c.068-.723.439-1.328,1.24-1.328.825,0,1.2.586,1.245,1.328ZM2.3,33.1a2.273,2.273,0,0,0,.762-.122v-.84a1.382,1.382,0,0,1-.581.151c-.332,0-.586-.2-.586-.7V28.908H3.13v-.786H1.895V26.208l-.928.762v1.152h-.8v.786H.957v2.773A1.25,1.25,0,0,0,2.3,33.1Zm1.924-5.981H5.244V26.1H4.224ZM4.263,33h.942V28.122H4.263Zm2.485,0H7.7V30.393c0-.771.41-1.523,1.143-1.523s.908.64.908,1.27V33h.957V30.31c0-.732.41-1.44,1.138-1.44s.923.659.923,1.289V33h.962V30.051c0-1.06-.518-2.031-1.748-2.031a1.714,1.714,0,0,0-1.562.947,1.525,1.525,0,0,0-2.72-.205v-.64H6.748Zm10.313.083a2.474,2.474,0,0,0,1.929-.815l-.654-.552a1.585,1.585,0,0,1-1.274.522,1.287,1.287,0,0,1-1.328-1.367h3.374a2.764,2.764,0,0,0,.029-.415,2.145,2.145,0,0,0-2.158-2.417,2.3,2.3,0,0,0-2.246,2.544A2.28,2.28,0,0,0,17.061,33.083Zm-1.328-2.93c.068-.723.439-1.328,1.24-1.328.825,0,1.2.586,1.245,1.328Zm7.241,4.985h.732v-2.8A1.75,1.75,0,0,0,25.2,33.1c1.309,0,1.987-1.157,1.987-2.539S26.5,28.02,25.2,28.02a1.743,1.743,0,0,0-1.489.767v-.664h-.732Zm2.07-2.656c-.991,0-1.406-.928-1.406-1.924s.415-1.924,1.406-1.924,1.411.938,1.411,1.924S26.021,32.482,25.044,32.482Zm5.254.586a2.392,2.392,0,0,0,1.865-.762l-.5-.4a1.7,1.7,0,0,1-1.372.522,1.444,1.444,0,0,1-1.426-1.621h3.4c.01-.088.024-.249.024-.376,0-1.123-.488-2.378-2.07-2.378-1.416,0-2.119,1.226-2.119,2.534A2.211,2.211,0,0,0,30.3,33.068Zm-1.431-2.856c.039-.83.459-1.558,1.353-1.558,1,0,1.353.776,1.372,1.558ZM33.545,33h.718V30.563c0-1.177.5-1.846,1.333-1.846a.888.888,0,0,1,.6.186l.308-.63a1.268,1.268,0,0,0-.786-.254,1.572,1.572,0,0,0-1.44.967v-.864h-.728Zm3.848-5.962h.83V26.1h-.83ZM37.446,33h.723V28.122h-.723Zm4.272.1a2.549,2.549,0,0,0,0-5.078,2.361,2.361,0,0,0-2.3,2.529A2.376,2.376,0,0,0,41.719,33.1Zm0-.605c-1.074,0-1.572-.957-1.572-1.943s.5-1.924,1.582-1.924,1.572.947,1.572,1.924S42.817,32.492,41.724,32.492ZM48.413,26.1v2.686a1.746,1.746,0,0,0-1.528-.767c-1.245,0-1.953,1.143-1.953,2.539S45.64,33.1,46.89,33.1a1.734,1.734,0,0,0,1.528-.776l.015.679h.708V26.1Zm-1.338,6.382c-.977,0-1.4-.928-1.4-1.924s.42-1.924,1.4-1.924c1,0,1.4.938,1.4,1.924S48.071,32.482,47.075,32.482Z" transform="translate(30 58)"/>
    <path id="Path_161867" data-name="Path 161867" d="M1.035,9H4.761V8.292H1.812V2.1H1.035Zm6.709.1a2.4,2.4,0,0,0,2.324-2.549A2.383,2.383,0,0,0,7.744,4.02a2.361,2.361,0,0,0-2.3,2.529A2.376,2.376,0,0,0,7.744,9.1Zm0-.605c-1.074,0-1.572-.957-1.572-1.943s.5-1.924,1.582-1.924,1.572.947,1.572,1.924S8.843,8.492,7.749,8.492Zm5.308.605A1.861,1.861,0,0,0,14.893,7.8l-.635-.273a1.224,1.224,0,0,1-1.211.952c-1.021,0-1.362-1.021-1.362-1.914s.352-1.934,1.362-1.934a1.234,1.234,0,0,1,1.211.977l.688-.293a2,2,0,0,0-1.9-1.3c-1.406,0-2.109,1.24-2.109,2.549S11.65,9.1,13.057,9.1Zm4.106,0a1.821,1.821,0,0,0,1.714-1.04L18.892,9h.62V6.007A1.8,1.8,0,0,0,17.6,4.02a2.164,2.164,0,0,0-1.841.957l.532.415a1.605,1.605,0,0,1,1.353-.737c.884,0,1.2.64,1.2,1.558H17.729c-1.387,0-2.148.454-2.148,1.431A1.43,1.43,0,0,0,17.163,9.1Zm.083-.615c-.508,0-.913-.239-.913-.82,0-.649.5-.9,1.465-.9h1.045A1.683,1.683,0,0,1,17.246,8.482Zm5.132.615a1.966,1.966,0,0,0,.654-.1V8.375a1.164,1.164,0,0,1-.488.122c-.356,0-.62-.249-.62-.786V4.718h1.235v-.6H21.924V2.34l-.723.684v1.1h-.786v.6H21.2V7.706C21.2,8.541,21.514,9.1,22.378,9.1Zm1.895-6.06h.83V2.1h-.83ZM24.326,9h.723V4.122h-.723Zm4.272.1a2.4,2.4,0,0,0,2.324-2.549,2.321,2.321,0,1,0-4.624,0A2.376,2.376,0,0,0,28.6,9.1Zm0-.605c-1.074,0-1.572-.957-1.572-1.943s.5-1.924,1.582-1.924,1.572.947,1.572,1.924S29.7,8.492,28.6,8.492ZM32.163,9h.728V6.466c0-1.211.61-1.812,1.377-1.812.859,0,1.108.781,1.108,1.455V9H36.1V6.036c0-1.074-.474-2-1.636-2a1.752,1.752,0,0,0-1.572.938v-.85h-.728Zm6.816.1a1.521,1.521,0,0,0,1.675-1.489c0-1.792-2.632-1.2-2.632-2.324,0-.4.327-.674.854-.674a1.15,1.15,0,0,1,1.089.688l.537-.308a1.733,1.733,0,0,0-1.6-.972,1.392,1.392,0,0,0-1.548,1.353c0,1.655,2.593,1.011,2.593,2.324,0,.527-.405.806-.957.806a1.237,1.237,0,0,1-1.216-.928l-.615.317A1.893,1.893,0,0,0,38.979,9.1Zm7.427,0A2.4,2.4,0,0,0,48.73,6.549a2.321,2.321,0,1,0-4.624,0A2.376,2.376,0,0,0,46.406,9.1Zm0-.605c-1.074,0-1.572-.957-1.572-1.943s.5-1.924,1.582-1.924,1.572.947,1.572,1.924S47.5,8.492,46.411,8.492ZM50.2,9h.728V4.718h1.4v-.6h-1.4V3.341c0-.5.273-.728.649-.728a1.387,1.387,0,0,1,.571.151l.176-.581a1.825,1.825,0,0,0-.8-.186A1.225,1.225,0,0,0,50.2,3.3v.82h-.894v.6H50.2Zm7.085.1a1.966,1.966,0,0,0,.654-.1V8.375a1.164,1.164,0,0,1-.488.122c-.356,0-.62-.249-.62-.786V4.718h1.235v-.6H56.826V2.34l-.723.684v1.1h-.786v.6H56.1V7.706C56.1,8.541,56.416,9.1,57.28,9.1Zm3.711-.029a2.392,2.392,0,0,0,1.865-.762l-.5-.4a1.7,1.7,0,0,1-1.372.522,1.444,1.444,0,0,1-1.426-1.621h3.4c.01-.088.024-.249.024-.376,0-1.123-.488-2.378-2.07-2.378-1.416,0-2.119,1.226-2.119,2.534A2.211,2.211,0,0,0,60.991,9.068ZM59.561,6.212c.039-.83.459-1.558,1.353-1.558,1,0,1.353.776,1.372,1.558ZM63.584,9h.894l1.138-1.846L66.758,9h.869L66,6.539l1.626-2.417h-.869L65.615,5.929,64.478,4.122h-.894l1.646,2.417Zm6.5.1a1.966,1.966,0,0,0,.654-.1V8.375a1.164,1.164,0,0,1-.488.122c-.356,0-.62-.249-.62-.786V4.718h1.235v-.6H69.634V2.34l-.723.684v1.1h-.786v.6h.781V7.706C68.906,8.541,69.224,9.1,70.088,9.1Zm3.35,0a1.521,1.521,0,0,0,1.675-1.489c0-1.792-2.632-1.2-2.632-2.324,0-.4.327-.674.854-.674a1.15,1.15,0,0,1,1.089.688l.537-.308a1.733,1.733,0,0,0-1.6-.972,1.392,1.392,0,0,0-1.548,1.353c0,1.655,2.593,1.011,2.593,2.324,0,.527-.405.806-.957.806a1.237,1.237,0,0,1-1.216-.928l-.615.317A1.893,1.893,0,0,0,73.438,9.1ZM79.751,9h.708L81.621,5.04,82.759,9h.708l1.367-4.878h-.776l-.991,3.906L81.948,4.122h-.669L80.156,8.038l-1-3.916h-.771ZM85.9,9h.723V6.368a1.537,1.537,0,0,1,1.455-1.65c.84,0,1.035.728,1.035,1.392V9h.737V5.992c0-1.04-.474-1.958-1.641-1.958a1.9,1.9,0,0,0-1.587.889V2.1H85.9Zm7.3.068a2.392,2.392,0,0,0,1.865-.762l-.5-.4a1.7,1.7,0,0,1-1.372.522,1.444,1.444,0,0,1-1.426-1.621h3.4c.01-.088.024-.249.024-.376,0-1.123-.488-2.378-2.07-2.378-1.416,0-2.119,1.226-2.119,2.534A2.211,2.211,0,0,0,93.2,9.068ZM91.772,6.212c.039-.83.459-1.558,1.353-1.558,1,0,1.353.776,1.372,1.558ZM96.45,9h.718V6.563c0-1.177.5-1.846,1.333-1.846a.888.888,0,0,1,.6.186l.308-.63a1.268,1.268,0,0,0-.786-.254,1.572,1.572,0,0,0-1.44.967V4.122H96.45Zm5.3.068a2.392,2.392,0,0,0,1.865-.762l-.5-.4a1.7,1.7,0,0,1-1.372.522,1.444,1.444,0,0,1-1.426-1.621h3.4c.01-.088.024-.249.024-.376,0-1.123-.488-2.378-2.07-2.378-1.416,0-2.119,1.226-2.119,2.534A2.211,2.211,0,0,0,101.753,9.068Zm-1.431-2.856c.039-.83.459-1.558,1.353-1.558,1,0,1.353.776,1.372,1.558ZM109,9.1a1.966,1.966,0,0,0,.654-.1V8.375a1.164,1.164,0,0,1-.488.122c-.356,0-.62-.249-.62-.786V4.718h1.235v-.6h-1.235V2.34l-.723.684v1.1h-.786v.6h.781V7.706C107.817,8.541,108.135,9.1,109,9.1Zm1.9-.1h.723V6.368a1.537,1.537,0,0,1,1.455-1.65c.84,0,1.035.728,1.035,1.392V9h.737V5.992c0-1.04-.474-1.958-1.641-1.958a1.9,1.9,0,0,0-1.587.889V2.1H110.9Zm7.3.068a2.392,2.392,0,0,0,1.865-.762l-.5-.4a1.7,1.7,0,0,1-1.372.522,1.444,1.444,0,0,1-1.426-1.621h3.4c.01-.088.024-.249.024-.376,0-1.123-.488-2.378-2.07-2.378C116.7,4.054,116,5.279,116,6.588A2.211,2.211,0,0,0,118.2,9.068Zm-1.431-2.856c.039-.83.459-1.558,1.353-1.558,1,0,1.353.776,1.372,1.558ZM124.087,9h.728V6.466c0-1.211.61-1.812,1.377-1.812.859,0,1.108.781,1.108,1.455V9h.723V6.036c0-1.074-.474-2-1.636-2a1.752,1.752,0,0,0-1.572.938v-.85h-.728Zm6.6.1a1.821,1.821,0,0,0,1.714-1.04l.015.942h.62V6.007a1.8,1.8,0,0,0-1.909-1.987,2.164,2.164,0,0,0-1.841.957l.532.415a1.605,1.605,0,0,1,1.353-.737c.884,0,1.2.64,1.2,1.558h-1.113c-1.387,0-2.148.454-2.148,1.431A1.43,1.43,0,0,0,130.688,9.1Zm.083-.615c-.508,0-.913-.239-.913-.82,0-.649.5-.9,1.465-.9h1.045A1.683,1.683,0,0,1,130.771,8.482ZM134.556,9h.718V6.563c0-1.177.5-1.846,1.333-1.846a.888.888,0,0,1,.6.186l.308-.63a1.268,1.268,0,0,0-.786-.254,1.572,1.572,0,0,0-1.44.967V4.122h-.728Zm3.892,0h.718V6.563c0-1.177.5-1.846,1.333-1.846a.888.888,0,0,1,.6.186l.308-.63a1.268,1.268,0,0,0-.786-.254,1.572,1.572,0,0,0-1.44.967V4.122h-.728Zm5.029.1a1.821,1.821,0,0,0,1.714-1.04l.015.942h.62V6.007a1.8,1.8,0,0,0-1.909-1.987,2.164,2.164,0,0,0-1.841.957l.532.415a1.605,1.605,0,0,1,1.353-.737c.884,0,1.2.64,1.2,1.558h-1.113c-1.387,0-2.148.454-2.148,1.431A1.43,1.43,0,0,0,143.477,9.1Zm.083-.615c-.508,0-.913-.239-.913-.82,0-.649.5-.9,1.465-.9h1.045A1.683,1.683,0,0,1,143.56,8.482Zm5.132.615a1.966,1.966,0,0,0,.654-.1V8.375a1.164,1.164,0,0,1-.488.122c-.356,0-.62-.249-.62-.786V4.718h1.235v-.6h-1.235V2.34l-.723.684v1.1h-.786v.6h.781V7.706C147.51,8.541,147.827,9.1,148.691,9.1Zm3.711-.029a2.392,2.392,0,0,0,1.865-.762l-.5-.4a1.7,1.7,0,0,1-1.372.522,1.444,1.444,0,0,1-1.426-1.621h3.4c.01-.088.024-.249.024-.376,0-1.123-.488-2.378-2.07-2.378-1.416,0-2.119,1.226-2.119,2.534A2.211,2.211,0,0,0,152.4,9.068Zm-1.431-2.856c.039-.83.459-1.558,1.353-1.558,1,0,1.353.776,1.372,1.558ZM158.779,2.1V4.786a1.746,1.746,0,0,0-1.528-.767c-1.245,0-1.953,1.143-1.953,2.539s.708,2.539,1.958,2.539a1.734,1.734,0,0,0,1.528-.776L158.8,9h.708V2.1Zm-1.338,6.382c-.977,0-1.4-.928-1.4-1.924s.42-1.924,1.4-1.924c1,0,1.4.938,1.4,1.924S158.438,8.482,157.441,8.482Zm7.72.615a1.966,1.966,0,0,0,.654-.1V8.375a1.164,1.164,0,0,1-.488.122c-.356,0-.62-.249-.62-.786V4.718h1.235v-.6h-1.235V2.34l-.723.684v1.1H163.2v.6h.781V7.706C163.979,8.541,164.3,9.1,165.161,9.1Zm1.895-6.06h.83V2.1h-.83ZM167.109,9h.723V4.122h-.723Zm2.373,0h.737V6.456c0-.884.435-1.816,1.245-1.816.835,0,1.025.776,1.025,1.45V9h.742V6.295c0-.8.435-1.655,1.235-1.655.845,0,1.045.806,1.045,1.47V9h.737V6.036c0-1.084-.488-2.017-1.694-2.017a1.618,1.618,0,0,0-1.519,1.021,1.529,1.529,0,0,0-2.817-.161V4.122h-.737Zm10.117.068a2.392,2.392,0,0,0,1.865-.762l-.5-.4a1.7,1.7,0,0,1-1.372.522,1.444,1.444,0,0,1-1.426-1.621h3.4c.01-.088.024-.249.024-.376,0-1.123-.488-2.378-2.07-2.378-1.416,0-2.119,1.226-2.119,2.534A2.211,2.211,0,0,0,179.6,9.068Zm-1.431-2.856c.039-.83.459-1.558,1.353-1.558,1,0,1.353.776,1.372,1.558Zm7.275-3.174h.83V2.1h-.83ZM185.5,9h.723V4.122H185.5Zm3.726.1A1.521,1.521,0,0,0,190.9,7.608c0-1.792-2.632-1.2-2.632-2.324,0-.4.327-.674.854-.674a1.15,1.15,0,0,1,1.089.688l.537-.308a1.733,1.733,0,0,0-1.6-.972A1.392,1.392,0,0,0,187.6,5.372c0,1.655,2.593,1.011,2.593,2.324,0,.527-.405.806-.957.806a1.237,1.237,0,0,1-1.216-.928l-.615.317A1.893,1.893,0,0,0,189.224,9.1ZM2.173,21.1a1.521,1.521,0,0,0,1.675-1.489c0-1.792-2.632-1.2-2.632-2.324,0-.4.327-.674.854-.674a1.15,1.15,0,0,1,1.089.688l.537-.308a1.733,1.733,0,0,0-1.6-.972A1.392,1.392,0,0,0,.547,17.372c0,1.655,2.593,1.011,2.593,2.324,0,.527-.405.806-.957.806a1.237,1.237,0,0,1-1.216-.928l-.615.317A1.893,1.893,0,0,0,2.173,21.1Zm4.668-.029a2.392,2.392,0,0,0,1.865-.762l-.5-.4a1.7,1.7,0,0,1-1.372.522A1.444,1.444,0,0,1,5.41,18.808h3.4c.01-.088.024-.249.024-.376,0-1.123-.488-2.378-2.07-2.378-1.416,0-2.119,1.226-2.119,2.534A2.211,2.211,0,0,0,6.841,21.068ZM5.41,18.212c.039-.83.459-1.558,1.353-1.558,1,0,1.353.776,1.372,1.558ZM11.445,21.1A1.966,1.966,0,0,0,12.1,21v-.625a1.164,1.164,0,0,1-.488.122c-.356,0-.62-.249-.62-.786V16.718h1.235v-.6H10.991V14.34l-.723.684v1.1H9.482v.6h.781v2.988C10.264,20.541,10.581,21.1,11.445,21.1Zm4.526-6.06h.83V14.1h-.83ZM16.025,21h.723V16.122h-.723ZM18.4,21h.728V18.466c0-1.211.61-1.812,1.377-1.812.859,0,1.108.781,1.108,1.455V21h.723V18.036c0-1.074-.474-2-1.636-2a1.752,1.752,0,0,0-1.572.938v-.85H18.4Zm9.888.1A1.963,1.963,0,0,0,30.22,19.73l-.84-.337a1.131,1.131,0,0,1-1.1.874c-.933,0-1.26-.879-1.26-1.7s.337-1.714,1.26-1.714a1.129,1.129,0,0,1,1.1.894l.894-.366a2.06,2.06,0,0,0-2-1.362,2.3,2.3,0,0,0-2.222,2.549A2.282,2.282,0,0,0,28.286,21.1Zm4.907,0A2.427,2.427,0,0,0,35.6,18.549a2.406,2.406,0,1,0-4.8,0A2.416,2.416,0,0,0,33.193,21.1Zm0-.8c-1,0-1.426-.85-1.426-1.748s.43-1.724,1.426-1.724,1.426.83,1.426,1.724S34.2,20.3,33.2,20.3Zm3.516.7h.938V18.4c0-1.04.527-1.528,1.245-1.528.742,0,1.025.63,1.025,1.284V21h.938V18.051c0-1.05-.483-2.021-1.7-2.021a1.794,1.794,0,0,0-1.509.811v-.718h-.937Zm7.09.1a2.273,2.273,0,0,0,.762-.122v-.84a1.382,1.382,0,0,1-.581.151c-.332,0-.586-.2-.586-.7V16.908h1.235v-.786H43.4V14.208l-.928.762v1.152h-.8v.786h.786v2.773A1.25,1.25,0,0,0,43.8,21.1Zm3.833-.015a2.474,2.474,0,0,0,1.929-.815l-.654-.552a1.585,1.585,0,0,1-1.274.522,1.287,1.287,0,0,1-1.328-1.367h3.374a2.764,2.764,0,0,0,.029-.415,2.145,2.145,0,0,0-2.158-2.417,2.3,2.3,0,0,0-2.246,2.544A2.28,2.28,0,0,0,47.637,21.083Zm-1.328-2.93c.068-.723.439-1.328,1.24-1.328.825,0,1.2.586,1.245,1.328ZM50.85,21H51.8V18.393c0-.771.41-1.523,1.143-1.523s.908.64.908,1.27V21h.957V18.31c0-.732.41-1.44,1.138-1.44s.923.659.923,1.289V21h.962V18.051c0-1.06-.518-2.031-1.748-2.031a1.714,1.714,0,0,0-1.562.947,1.525,1.525,0,0,0-2.72-.205v-.64H50.85Zm8.4,2.139h.952V20.414a1.751,1.751,0,0,0,1.445.684c1.328,0,2.036-1.172,2.036-2.539s-.713-2.539-2.046-2.539a1.734,1.734,0,0,0-1.436.684v-.581h-.952Zm2.168-2.886c-.908,0-1.3-.781-1.3-1.694s.4-1.709,1.3-1.709,1.309.8,1.309,1.709S62.329,20.253,61.421,20.253Zm5.4.845a2.427,2.427,0,0,0,2.407-2.549,2.406,2.406,0,1,0-4.8,0A2.416,2.416,0,0,0,66.816,21.1Zm0-.8c-1,0-1.426-.85-1.426-1.748s.43-1.724,1.426-1.724,1.426.83,1.426,1.724S67.822,20.3,66.821,20.3Zm3.516.7h.918V18.739c0-1.206.537-1.807,1.24-1.807a.913.913,0,0,1,.566.181l.415-.8a1.243,1.243,0,0,0-.835-.3,1.483,1.483,0,0,0-1.377.947v-.845h-.928Zm5.186.1a1.761,1.761,0,0,0,1.621-.923l.049.825h.786V18.021a1.857,1.857,0,0,0-2-2,2.255,2.255,0,0,0-1.938,1.011l.708.527A1.468,1.468,0,0,1,76,16.845c.767,0,1.089.532,1.089,1.309H75.9c-1.25,0-2.051.405-2.051,1.421A1.508,1.508,0,0,0,75.522,21.1Zm.122-.8c-.483,0-.82-.234-.82-.693,0-.488.381-.752,1.147-.752H77.09A1.48,1.48,0,0,1,75.645,20.3Zm3.74.7H80.3V18.739c0-1.206.537-1.807,1.24-1.807a.913.913,0,0,1,.566.181l.415-.8a1.243,1.243,0,0,0-.835-.3,1.483,1.483,0,0,0-1.377.947v-.845h-.928Zm4.463,2.1h1.016l2.7-6.978H86.523L85.2,19.828l-1.338-3.706h-1.04l1.89,4.8Zm8.608-2a1.966,1.966,0,0,0,.654-.1v-.625a1.164,1.164,0,0,1-.488.122c-.356,0-.62-.249-.62-.786V16.718h1.235v-.6H92V14.34l-.723.684v1.1h-.786v.6h.781v2.988C91.274,20.541,91.592,21.1,92.456,21.1Zm1.895-6.06h.83V14.1h-.83ZM94.4,21h.723V16.122H94.4Zm2.373,0h.737V18.456c0-.884.435-1.816,1.245-1.816.835,0,1.025.776,1.025,1.45V21h.742V18.295c0-.8.435-1.655,1.235-1.655.845,0,1.045.806,1.045,1.47V21h.737V18.036c0-1.084-.488-2.017-1.694-2.017a1.618,1.618,0,0,0-1.519,1.021,1.529,1.529,0,0,0-2.817-.161v-.757h-.737Zm10.117.068a2.392,2.392,0,0,0,1.865-.762l-.5-.4a1.7,1.7,0,0,1-1.372.522,1.444,1.444,0,0,1-1.426-1.621h3.4c.01-.088.024-.249.024-.376,0-1.123-.488-2.378-2.07-2.378-1.416,0-2.119,1.226-2.119,2.534A2.211,2.211,0,0,0,106.895,21.068Zm-1.431-2.856c.039-.83.459-1.558,1.353-1.558,1,0,1.353.776,1.372,1.558Z" transform="translate(30 25)"/>
  </g>
</svg>
