<svg xmlns="http://www.w3.org/2000/svg" xmlns:xlink="http://www.w3.org/1999/xlink" width="288.855" height="90.918" viewBox="0 0 288.855 90.918">
  <defs>
    <linearGradient id="linear-gradient" x1="0.5" x2="0.5" y2="1" gradientUnits="objectBoundingBox">
      <stop offset="0" stop-color="#fff" stop-opacity="0"/>
      <stop offset="0" stop-color="#fff"/>
      <stop offset="0.764" stop-color="#fff" stop-opacity="0.965"/>
      <stop offset="1" stop-color="#fff" stop-opacity="0"/>
    </linearGradient>
  </defs>
  <g id="Raggruppa_22303" data-name="Raggruppa 22303" transform="translate(-19.707 -185.082)">
    <line id="Linea_666" data-name="Linea 666" x1="27.932" y2="0.279" transform="translate(54.5 192.221)" fill="none" stroke="#444" stroke-width="0.5" stroke-dasharray="2.114 2.114"/>
    <line id="Linea_645" data-name="Linea 645" x1="26.578" y2="63.128" transform="translate(70.585 198.267)" fill="none" stroke="#777" stroke-linecap="round" stroke-width="2"/>
    <line id="Linea_646" data-name="Linea 646" x1="44.785" y2="51.825" transform="translate(61.482 203.919)" fill="none" stroke="#777" stroke-linecap="round" stroke-width="2"/>
    <line id="Linea_647" data-name="Linea 647" x1="58.608" y2="35.449" transform="translate(54.57 212.107)" fill="none" stroke="#777" stroke-linecap="round" stroke-width="2"/>
    <line id="Linea_648" data-name="Linea 648" x1="66.694" y2="15.604" transform="translate(50.527 222.03)" fill="none" stroke="#777" stroke-linecap="round" stroke-width="2"/>
    <line id="Linea_649" data-name="Linea 649" x1="68.252" y1="5.77" transform="translate(49.748 226.947)" fill="none" stroke="#777" stroke-linecap="round" stroke-width="2"/>
    <line id="Linea_650" data-name="Linea 650" x1="63.128" y1="26.578" transform="translate(52.31 216.542)" fill="none" stroke="#777" stroke-linecap="round" stroke-width="2"/>
    <line id="Linea_651" data-name="Linea 651" x1="51.826" y1="44.785" transform="translate(57.961 207.439)" fill="none" stroke="#777" stroke-linecap="round" stroke-width="2"/>
    <line id="Linea_652" data-name="Linea 652" x1="35.45" y1="58.608" transform="translate(66.149 200.527)" fill="none" stroke="#777" stroke-linecap="round" stroke-width="2"/>
    <line id="Linea_653" data-name="Linea 653" x1="15.604" y1="66.694" transform="translate(76.072 196.484)" fill="none" stroke="#777" stroke-linecap="round" stroke-width="2"/>
    <line id="Linea_654" data-name="Linea 654" y1="34.126" x2="2.885" transform="translate(80.989 229.831)" fill="none" stroke="#777" stroke-linecap="round" stroke-width="2"/>
    <line id="Linea_655" data-name="Linea 655" x1="16.018" y2="66.596" transform="translate(75.729 196.533)" fill="none" stroke="#777" stroke-linecap="round" stroke-width="2"/>
    <line id="Linea_656" data-name="Linea 656" x1="35.814" y2="58.386" transform="translate(65.831 200.638)" fill="none" stroke="#777" stroke-linecap="round" stroke-width="2"/>
    <line id="Linea_657" data-name="Linea 657" x1="52.103" y2="44.462" transform="translate(57.686 207.6)" fill="none" stroke="#777" stroke-linecap="round" stroke-width="2"/>
    <line id="Linea_658" data-name="Linea 658" x1="63.293" y2="26.185" transform="translate(52.092 216.739)" fill="none" stroke="#777" stroke-linecap="round" stroke-width="2"/>
    <line id="Linea_659" data-name="Linea 659" x1="68.286" y2="5.345" transform="translate(49.595 227.159)" fill="none" stroke="#777" stroke-linecap="round" stroke-width="2"/>
    <line id="Linea_660" data-name="Linea 660" x1="66.596" y1="16.018" transform="translate(50.44 221.822)" fill="none" stroke="#777" stroke-linecap="round" stroke-width="2"/>
    <line id="Linea_661" data-name="Linea 661" x1="58.386" y1="35.814" transform="translate(54.545 211.924)" fill="none" stroke="#777" stroke-linecap="round" stroke-width="2"/>
    <line id="Linea_662" data-name="Linea 662" x1="44.462" y1="52.103" transform="translate(61.507 203.78)" fill="none" stroke="#777" stroke-linecap="round" stroke-width="2"/>
    <line id="Linea_663" data-name="Linea 663" x1="26.185" y1="63.292" transform="translate(70.646 198.185)" fill="none" stroke="#777" stroke-linecap="round" stroke-width="2"/>
    <line id="Linea_664" data-name="Linea 664" x1="2.672" y1="34.143" transform="translate(83.738 229.831)" fill="none" stroke="#777" stroke-linecap="round" stroke-width="2"/>
    <line id="Linea_665" data-name="Linea 665" y1="44.153" transform="translate(83.859 185.488)" fill="none" stroke="#444" stroke-width="3"/>
    <ellipse id="Ellisse_20399" data-name="Ellisse 20399" cx="20.515" cy="20.515" rx="20.515" ry="20.515" transform="translate(63.344 209.126)" fill="#fff"/>
    <line id="Linea_667" data-name="Linea 667" x1="11.806" transform="translate(70.625 208.751)" fill="none" stroke="#444" stroke-width="0.25" stroke-dasharray="2.114 2.114"/>
    <path id="Tracciato_109340" data-name="Tracciato 109340" d="M260.347,126.081c-20.919,0-37.938-16.652-37.938-37.12a37.1,37.1,0,0,1,37.422-37.085v15.5l.516,3.216a18.372,18.372,0,1,0,0,36.736Z" transform="translate(-177.31 141.932)" fill="url(#linear-gradient)"/>
    <path id="Tracciato_147338" data-name="Tracciato 147338" d="M41.676,23.639c-22,0-20.784,16.754-36.271,16.659" transform="translate(39.695 183.927)" fill="none" stroke="#000" stroke-width="0.5" stroke-dasharray="2 2"/>
    <path id="Tracciato_109125" data-name="Tracciato 109125" d="M587.606,85.6a34.521,34.521,0,0,1-10.366,1.555c-9.632,0-18.018-3.785-22.366-9.374" transform="translate(506.403 628.218) rotate(-141)" fill="none" stroke="#000" stroke-miterlimit="10" stroke-width="0.5"/>
    <path id="Tracciato_109126" data-name="Tracciato 109126" d="M615.82,91.011l-.32.615,3.029,1.575-1.792,2.907.59.363,2.182-3.541Z" transform="translate(404.108 -341.681) rotate(108)"/>
    <text id="fine_del_testo" data-name="fine del testo" transform="translate(19.707 185.082)" font-size="10" font-family="HKGrotesk-Regular, HK Grotesk"><tspan x="0" y="10">fine del </tspan><tspan x="0" y="23">testo</tspan></text>
    <text id="inizio_del_testo" data-name="inizio del testo" transform="translate(19.707 219.479)" font-size="10" font-family="HKGrotesk-Regular, HK Grotesk"><tspan x="0" y="10">inizio </tspan><tspan x="0" y="23">del </tspan><tspan x="0" y="36">testo</tspan></text>
    <text id="Testi_di_lunghezza_normalizzata_disposti_secondo_ordine_cronologico_di_prima_pubblicazione" data-name="Testi di lunghezza normalizzata disposti secondo ordine cronologico di prima pubblicazione" transform="translate(128.563 187)" font-size="10" font-family="HKGrotesk-Regular, HK Grotesk"><tspan x="0" y="10">Testi di lunghezza normalizzata disposti </tspan><tspan x="0" y="23">secondo ordine cronologico di prima </tspan><tspan x="0" y="36">pubblicazione</tspan></text>
    <text id="Singolo_racconto" data-name="Singolo racconto" transform="translate(121.258 249)" font-size="10" font-family="HKGrotesk-Regular, HK Grotesk"><tspan x="0" y="10">Singolo </tspan><tspan x="0" y="23">racconto</tspan></text>
    <text id="ambientazione" transform="translate(206.563 261)" font-size="10" font-family="HKGrotesk-Regular, HK Grotesk"><tspan x="0" y="10">ambientazione</tspan></text>
    <rect id="Rettangolo_16527" data-name="Rettangolo 16527" width="46" height="9" rx="3" transform="translate(168 240)" fill="#888"/>
    <rect id="Rettangolo_16528" data-name="Rettangolo 16528" width="62" height="9" rx="3" transform="translate(208 240)" fill="#c6cacf"/>
    <rect id="Rettangolo_16529" data-name="Rettangolo 16529" width="42" height="9" rx="3" transform="translate(264 240)" fill="#888"/>
    <line id="Linea_2516" data-name="Linea 2516" y2="15.924" transform="translate(238.986 246.576)" fill="none" stroke="#000" stroke-width="0.5"/>
    <path id="Tracciato_124417" data-name="Tracciato 124417" d="M205,244c0,11.456,35.985,8.261,35.92,14.3" transform="translate(-2 1)" fill="none" stroke="#000" stroke-width="0.5"/>
    <path id="Tracciato_147339" data-name="Tracciato 147339" d="M261,244c0,11.456-56.1,8.261-56,14.3" transform="translate(34 1)" fill="none" stroke="#000" stroke-width="0.5"/>
    <g id="Ellisse_20527" data-name="Ellisse 20527" transform="translate(237 243)" stroke="#fff" stroke-width="0.5">
      <circle cx="2" cy="2" r="2" stroke="none"/>
      <circle cx="2" cy="2" r="1.75" fill="none"/>
    </g>
    <g id="Ellisse_20528" data-name="Ellisse 20528" transform="translate(293 243)" stroke="#fff" stroke-width="0.5">
      <circle cx="2" cy="2" r="2" stroke="none"/>
      <circle cx="2" cy="2" r="1.75" fill="none"/>
    </g>
    <g id="Ellisse_20529" data-name="Ellisse 20529" transform="translate(201 243)" stroke="#fff" stroke-width="0.5">
      <circle cx="2" cy="2" r="2" stroke="none"/>
      <circle cx="2" cy="2" r="1.75" fill="none"/>
    </g>
    <path id="Tracciato_109125-2" data-name="Tracciato 109125" d="M600.433,77.819c-4.342.477-45.883,6.578-45.771,6.286" transform="translate(-417.596 73.092) rotate(9)" fill="none" stroke="#000" stroke-miterlimit="10" stroke-width="0.5" stroke-dasharray="2"/>
    <path id="Tracciato_109126-2" data-name="Tracciato 109126" d="M615.82,91.011l-.32.615,3.367,1.653-2.129,2.828.59.363,2.5-3.485Z" transform="matrix(0.956, 0.292, -0.292, 0.956, -401.007, -26.306)"/>
  </g>
</svg>
