<?xml version="1.0" encoding="utf-8"?>
<!-- Generator: Adobe Illustrator 25.0.0, SVG Export Plug-In . SVG Version: 6.00 Build 0)  -->
<svg version="1.1" id="Livello_1" xmlns="http://www.w3.org/2000/svg" xmlns:xlink="http://www.w3.org/1999/xlink" x="0px" y="0px"
	 viewBox="0 0 300 92.4" enable-background="new 0 0 300 92.4" xml:space="preserve">
<g enable-background="new    ">
	<path d="M18.43359,45.06396h-2.89844l-0.66992,1.86914h-0.7793l2.59863-6.96582h0.58936l2.60889,6.96582h-0.78955
		L18.43359,45.06396z M18.21338,44.45459l-1.229-3.47852l-1.23926,3.47852H18.21338z"/>
	<path d="M20.62598,45.72412l0.57959-0.25977c0.17969,0.50977,0.65967,0.93945,1.4292,0.93945
		c0.66943,0,1.09961-0.33008,1.09961-0.84961c0-1.30957-2.83887-0.49023-2.83887-2.23926c0-0.85938,0.69971-1.38867,1.68945-1.38867
		c0.78955,0,1.4292,0.3291,1.76904,1.0293l-0.5498,0.2998c-0.23975-0.44043-0.62988-0.71973-1.23926-0.71973
		c-0.60986,0-0.99951,0.25-0.99951,0.67969c0,1.16895,2.84814,0.42969,2.84814,2.29883c0,0.99902-0.81934,1.49951-1.76855,1.49951
		C21.67529,47.01367,20.88574,46.51318,20.62598,45.72412z"/>
	<path d="M25.28564,45.72412l0.57959-0.25977c0.17969,0.50977,0.65967,0.93945,1.4292,0.93945
		c0.66943,0,1.09961-0.33008,1.09961-0.84961c0-1.30957-2.83887-0.49023-2.83887-2.23926c0-0.85938,0.69971-1.38867,1.68945-1.38867
		c0.78955,0,1.4292,0.3291,1.76904,1.0293l-0.5498,0.2998c-0.23975-0.44043-0.62988-0.71973-1.23926-0.71973
		c-0.60986,0-0.99951,0.25-0.99951,0.67969c0,1.16895,2.84814,0.42969,2.84814,2.29883c0,0.99902-0.81934,1.49951-1.76904,1.49951
		C26.33496,47.01367,25.54541,46.51318,25.28564,45.72412z"/>
	<path d="M34.32324,44.65479h-3.60791c0.02002,1.0791,0.61963,1.72852,1.58936,1.72852c0.53955,0,0.96924-0.13965,1.41895-0.61914
		l0.47998,0.41895c-0.57959,0.61035-1.14941,0.83057-1.90918,0.83057c-1.49902,0-2.26855-1.11963-2.26855-2.51904
		c0-1.38965,0.75977-2.56836,2.18896-2.56836c1.50879,0,2.13867,1.17871,2.13867,2.29785
		C34.35352,44.36475,34.34326,44.53467,34.32324,44.65479z M30.71533,44.07471h2.97852c0-0.02051-0.01025-0.07031-0.01025-0.16016
		c-0.0498-0.7998-0.55957-1.40918-1.46875-1.40918C31.3252,42.50537,30.77539,43.20557,30.71533,44.07471z"/>
	<path d="M39.67334,43.91455v3.01855h-0.68945v-2.84863c0-1.05957-0.33984-1.54883-1.07959-1.54883
		c-0.92969,0-1.46924,0.7998-1.46924,2.18848v2.20898h-0.68945v-4.92773h0.68945v0.71973
		c0.31982-0.49902,0.91943-0.79883,1.62891-0.79883C39.12354,41.92627,39.67334,42.60596,39.67334,43.91455z"/>
	<path d="M44.93359,42.55518l-3.2085,3.78809h3.18848v0.58984h-4.09814v-0.5l3.27832-3.83789h-3.1084v-0.58984h3.94824V42.55518z"/>
	<path d="M49.91357,43.86475v3.06836h-0.62988l-0.04004-0.75977c-0.38965,0.5498-0.98926,0.84033-1.76904,0.84033
		c-1.06934,0-1.69873-0.56006-1.69873-1.51025c0-0.49902,0.19971-0.87891,0.55957-1.09863
		c0.37988-0.21973,0.90967-0.31055,1.87891-0.31055h1.00928v-0.22949c0-0.85938-0.44971-1.3291-1.2793-1.3291
		c-0.61963,0-1.09912,0.26953-1.49902,0.81934l-0.49951-0.41992c0.5293-0.68945,1.16895-1.00879,2.00879-1.00879
		C49.19385,41.92627,49.91357,42.63525,49.91357,43.86475z M49.22363,44.72412v-0.06934h-0.94922
		c-0.90967,0-1.29932,0.05957-1.53906,0.24902c-0.18018,0.14062-0.27002,0.36035-0.27002,0.63965
		c0,0.5498,0.46973,0.90039,1.20947,0.90039C48.62402,46.44385,49.22363,45.77393,49.22363,44.72412z"/>
	<path d="M58.44287,39.96729v6.96582h-0.68994v-0.65918c-0.35938,0.45898-0.90918,0.73975-1.62891,0.73975
		c-1.43896,0-2.18896-1.07959-2.18896-2.54932c0-1.53906,0.81982-2.54883,2.18896-2.54883c0.69971,0,1.25928,0.27051,1.62891,0.75
		v-2.69824H58.44287z M57.81299,44.46436c0-1.16895-0.59961-1.93848-1.58887-1.93848c-0.99951,0-1.59912,0.76953-1.59912,1.93848
		c0,1.11914,0.54932,1.93945,1.59912,1.93945C57.26318,46.40381,57.81299,45.5835,57.81299,44.46436z"/>
	<path d="M60.20508,39.96729h0.79932v1.01953h-0.79932V39.96729z M60.26514,42.00537h0.68945v4.92773h-0.68945V42.00537z"/>
</g>
<g enable-background="new    ">
	<path d="M21.39209,54.45508v3.07812h-0.68994v-2.88867c0-0.41992,0-1.50879-1.0791-1.50879
		c-0.99951,0-1.26953,0.91895-1.26953,2.02832v2.36914h-0.68945v-2.84863c0-0.81934-0.25-1.54883-1.10938-1.54883
		c-0.95947,0-1.22949,0.90918-1.22949,2.02832v2.36914h-0.68945l-0.01025-4.92773h0.66992v0.60059
		c0.30957-0.49023,0.80957-0.67969,1.35889-0.67969c0.68994,0,1.19971,0.2998,1.44922,0.94922
		c0.31982-0.62988,0.86963-0.94922,1.61914-0.94922C20.90234,52.52637,21.39209,53.30566,21.39209,54.45508z"/>
	<path d="M22.66553,55.06445c0-1.45898,0.94971-2.53809,2.35889-2.53809c1.39941,0,2.36865,1.0791,2.36865,2.53809
		c0,1.44922-0.95947,2.54883-2.36865,2.54883S22.66553,56.52344,22.66553,55.06445z M26.70361,55.06445
		c0-1.11914-0.62988-1.92871-1.6792-1.92871c-1.05957,0-1.66895,0.81934-1.66895,1.92871c0,1.11914,0.61963,1.93945,1.66895,1.93945
		C26.08398,57.00391,26.70361,56.16406,26.70361,55.06445z"/>
	<path d="M27.92578,52.60547h0.75l1.54883,4.04785l1.55908-4.04785h0.75977l-2.01904,4.92773h-0.58936L27.92578,52.60547z"/>
	<path d="M33.59521,50.56738h0.79932v1.01953h-0.79932V50.56738z M33.65527,52.60547h0.68945v4.92773h-0.68945V52.60547z"/>
	<path d="M42.92188,54.45508v3.07812h-0.68994v-2.88867c0-0.41992,0-1.50879-1.0791-1.50879
		c-0.99951,0-1.26953,0.91895-1.26953,2.02832v2.36914h-0.68945v-2.84863c0-0.81934-0.25-1.54883-1.10938-1.54883
		c-0.95947,0-1.22949,0.90918-1.22949,2.02832v2.36914h-0.68945l-0.01025-4.92773h0.66992v0.60059
		c0.30957-0.49023,0.80957-0.67969,1.35889-0.67969c0.68994,0,1.19971,0.2998,1.44922,0.94922
		c0.31982-0.62988,0.86963-0.94922,1.61914-0.94922C42.43213,52.52637,42.92188,53.30566,42.92188,54.45508z"/>
	<path d="M48.52295,55.25488h-3.60791c0.02002,1.0791,0.61963,1.72852,1.58936,1.72852c0.53955,0,0.96924-0.13965,1.41895-0.61914
		l0.47998,0.41895c-0.57959,0.61035-1.14941,0.83008-1.90918,0.83008c-1.49902,0-2.26855-1.11914-2.26855-2.51855
		c0-1.38965,0.75977-2.56836,2.18896-2.56836c1.50879,0,2.13867,1.17871,2.13867,2.29785
		C48.55322,54.96484,48.54297,55.13477,48.52295,55.25488z M44.91504,54.6748h2.97852c0-0.02051-0.01025-0.07031-0.01025-0.16016
		c-0.0498-0.7998-0.55957-1.40918-1.46875-1.40918C45.5249,53.10547,44.9751,53.80566,44.91504,54.6748z"/>
	<path d="M53.87305,54.51465v3.01855h-0.68945v-2.84863c0-1.05957-0.33984-1.54883-1.07959-1.54883
		c-0.92969,0-1.46924,0.7998-1.46924,2.18848v2.20898h-0.68945v-4.92773h0.68945v0.71973
		c0.31982-0.49902,0.91943-0.79883,1.62891-0.79883C53.32324,52.52637,53.87305,53.20605,53.87305,54.51465z"/>
	<path d="M57.62402,57.4834c-0.25977,0.08008-0.52002,0.12988-0.74951,0.12988c-0.65967,0-1.13965-0.37012-1.13965-1.23926v-3.18848
		h-0.81934v-0.58008h0.81934v-1.37891l0.68945-0.51953v1.89844h1.18945v0.58008h-1.18945v3.09863
		c0,0.47949,0.22021,0.69922,0.60986,0.69922c0.16992,0,0.35986-0.04004,0.57959-0.10938L57.62402,57.4834z"/>
	<path d="M58.45557,55.06445c0-1.45898,0.94922-2.53809,2.3584-2.53809c1.39941,0,2.36865,1.0791,2.36865,2.53809
		c0,1.44922-0.95947,2.54883-2.36865,2.54883S58.45557,56.52344,58.45557,55.06445z M62.49316,55.06445
		c0-1.11914-0.62988-1.92871-1.6792-1.92871c-1.05957,0-1.66895,0.81934-1.66895,1.92871c0,1.11914,0.61963,1.93945,1.66895,1.93945
		C61.87354,57.00391,62.49316,56.16406,62.49316,55.06445z"/>
</g>
<g enable-background="new    ">
	<path d="M103.73486,39.9668h1.98926c1.479,0,2.29883,0.69922,2.29883,1.94824c0,1.26953-0.82959,1.97949-2.29883,1.97949h-1.2793
		v3.03809h-0.70996V39.9668z M105.65381,43.23438c1.08984,0,1.64941-0.44922,1.64941-1.30859
		c0-0.86035-0.55957-1.2998-1.64941-1.2998h-1.20898v2.6084H105.65381z"/>
	<path d="M112.2832,42.13574l-0.33984,0.55957c-0.22949-0.10059-0.43945-0.15039-0.64941-0.15039
		c-0.75977,0-1.31934,0.56934-1.31934,1.63965v2.74805h-0.68945v-4.92773h0.68945v0.74023
		c0.35986-0.64941,0.95947-0.81934,1.45898-0.81934C111.7334,41.92578,112.01367,41.98535,112.2832,42.13574z"/>
	<path d="M116.75244,44.6543h-3.60791c0.02002,1.0791,0.61963,1.72852,1.58936,1.72852c0.53955,0,0.96924-0.13965,1.41895-0.61914
		l0.47998,0.41895c-0.57959,0.61035-1.14941,0.83008-1.90918,0.83008c-1.49902,0-2.26855-1.11914-2.26855-2.51855
		c0-1.38965,0.75977-2.56836,2.18896-2.56836c1.50879,0,2.13867,1.17871,2.13867,2.29785
		C116.78271,44.36426,116.77246,44.53418,116.75244,44.6543z M113.14453,44.07422h2.97852
		c0-0.02051-0.01025-0.07031-0.01025-0.16016c-0.0498-0.7998-0.55957-1.40918-1.46875-1.40918
		C113.75439,42.50488,113.20459,43.20508,113.14453,44.07422z"/>
	<path d="M117.64551,45.72363l0.57959-0.25977c0.17969,0.50977,0.65967,0.93945,1.4292,0.93945
		c0.66943,0,1.09961-0.33008,1.09961-0.84961c0-1.30957-2.83887-0.49023-2.83887-2.23926c0-0.85938,0.69971-1.38867,1.68945-1.38867
		c0.78955,0,1.4292,0.3291,1.76904,1.0293l-0.5498,0.2998c-0.23975-0.44043-0.62988-0.71973-1.23926-0.71973
		c-0.60986,0-0.99951,0.25-0.99951,0.67969c0,1.16895,2.84814,0.42969,2.84814,2.29883c0,0.99902-0.81934,1.49902-1.76904,1.49902
		C118.69482,47.0127,117.90527,46.5127,117.64551,45.72363z"/>
	<path d="M126.68262,44.6543h-3.60791c0.02002,1.0791,0.61963,1.72852,1.58936,1.72852c0.53955,0,0.96924-0.13965,1.41895-0.61914
		l0.47998,0.41895c-0.57959,0.61035-1.14941,0.83008-1.90918,0.83008c-1.49902,0-2.26855-1.11914-2.26855-2.51855
		c0-1.38965,0.75977-2.56836,2.18896-2.56836c1.50879,0,2.13867,1.17871,2.13867,2.29785
		C126.71289,44.36426,126.70264,44.53418,126.68262,44.6543z M123.07471,44.07422h2.97852
		c0-0.02051-0.01025-0.07031-0.01025-0.16016c-0.0498-0.7998-0.55957-1.40918-1.46875-1.40918
		C123.68457,42.50488,123.13477,43.20508,123.07471,44.07422z"/>
	<path d="M132.03271,43.91406v3.01855h-0.68945v-2.84863c0-1.05957-0.33984-1.54883-1.07959-1.54883
		c-0.92969,0-1.46924,0.7998-1.46924,2.18848v2.20898h-0.68945v-4.92773h0.68945v0.71973
		c0.31982-0.49902,0.91943-0.79883,1.62891-0.79883C131.48291,41.92578,132.03271,42.60547,132.03271,43.91406z"/>
	<path d="M137.29297,42.55469l-3.2085,3.78809h3.18848v0.58984h-4.09814v-0.5l3.27832-3.83789h-3.1084v-0.58984h3.94824V42.55469z"
		/>
	<path d="M142.27295,43.86426v3.06836h-0.62988l-0.04004-0.75977c-0.38965,0.5498-0.98926,0.83984-1.76904,0.83984
		c-1.06934,0-1.69873-0.55957-1.69873-1.50977c0-0.49902,0.19971-0.87891,0.55957-1.09863
		c0.37988-0.21973,0.90967-0.31055,1.87891-0.31055h1.00928v-0.22949c0-0.85938-0.44971-1.3291-1.2793-1.3291
		c-0.61963,0-1.09912,0.26953-1.49902,0.81934l-0.49951-0.41992c0.5293-0.68945,1.16895-1.00879,2.00879-1.00879
		C141.55322,41.92578,142.27295,42.63477,142.27295,43.86426z M141.58301,44.72363V44.6543h-0.94922
		c-0.90967,0-1.29932,0.05957-1.53906,0.24902c-0.18018,0.14062-0.27002,0.36035-0.27002,0.63965
		c0,0.5498,0.46973,0.90039,1.20947,0.90039C140.9834,46.44336,141.58301,45.77344,141.58301,44.72363z"/>
	<path d="M150.80273,39.9668v6.96582h-0.68994v-0.65918c-0.35938,0.45898-0.90918,0.73926-1.62891,0.73926
		c-1.43896,0-2.18896-1.0791-2.18896-2.54883c0-1.53906,0.81982-2.54883,2.18896-2.54883c0.69971,0,1.25928,0.27051,1.62891,0.75
		V39.9668H150.80273z M150.17285,44.46387c0-1.16895-0.59961-1.93848-1.58887-1.93848c-0.99951,0-1.59912,0.76953-1.59912,1.93848
		c0,1.11914,0.54932,1.93945,1.59912,1.93945C149.62305,46.40332,150.17285,45.58301,150.17285,44.46387z"/>
	<path d="M152.56445,39.9668h0.7998v1.01953h-0.7998V39.9668z M152.625,42.00488h0.68945v4.92773H152.625V42.00488z"/>
</g>
<g enable-background="new    ">
	<path d="M110.26172,54.45508v3.07812h-0.68994v-2.88867c0-0.41992,0-1.50879-1.0791-1.50879
		c-0.99951,0-1.26953,0.91895-1.26953,2.02832v2.36914h-0.68945v-2.84863c0-0.81934-0.25-1.54883-1.10938-1.54883
		c-0.95947,0-1.22949,0.90918-1.22949,2.02832v2.36914h-0.68945l-0.01025-4.92773h0.66992v0.60059
		c0.30957-0.49023,0.80957-0.67969,1.35889-0.67969c0.68994,0,1.19971,0.2998,1.44922,0.94922
		c0.31982-0.62988,0.86963-0.94922,1.61914-0.94922C109.77197,52.52637,110.26172,53.30566,110.26172,54.45508z"/>
	<path d="M111.53516,55.06445c0-1.45898,0.94971-2.53809,2.35889-2.53809c1.39941,0,2.36865,1.0791,2.36865,2.53809
		c0,1.44922-0.95947,2.54883-2.36865,2.54883S111.53516,56.52344,111.53516,55.06445z M115.57324,55.06445
		c0-1.11914-0.62988-1.92871-1.6792-1.92871c-1.05957,0-1.66895,0.81934-1.66895,1.92871c0,1.11914,0.61963,1.93945,1.66895,1.93945
		C114.95361,57.00391,115.57324,56.16406,115.57324,55.06445z"/>
	<path d="M116.79541,52.60547h0.75l1.54883,4.04785l1.55908-4.04785h0.75977l-2.01904,4.92773h-0.58936L116.79541,52.60547z"/>
	<path d="M122.46484,50.56738h0.79932v1.01953h-0.79932V50.56738z M122.5249,52.60547h0.68945v4.92773h-0.68945V52.60547z"/>
	<path d="M131.7915,54.45508v3.07812h-0.68994v-2.88867c0-0.41992,0-1.50879-1.0791-1.50879
		c-0.99951,0-1.26953,0.91895-1.26953,2.02832v2.36914h-0.68945v-2.84863c0-0.81934-0.25-1.54883-1.10938-1.54883
		c-0.95947,0-1.22949,0.90918-1.22949,2.02832v2.36914h-0.68945l-0.01025-4.92773h0.66992v0.60059
		c0.30957-0.49023,0.80957-0.67969,1.35889-0.67969c0.68994,0,1.19971,0.2998,1.44922,0.94922
		c0.31982-0.62988,0.86963-0.94922,1.61914-0.94922C131.30176,52.52637,131.7915,53.30566,131.7915,54.45508z"/>
	<path d="M137.39258,55.25488h-3.60791c0.02002,1.0791,0.61963,1.72852,1.58936,1.72852c0.53955,0,0.96924-0.13965,1.41895-0.61914
		l0.47998,0.41895c-0.57959,0.61035-1.14941,0.83008-1.90918,0.83008c-1.49902,0-2.26855-1.11914-2.26855-2.51855
		c0-1.38965,0.75977-2.56836,2.18896-2.56836c1.50879,0,2.13867,1.17871,2.13867,2.29785
		C137.42285,54.96484,137.4126,55.13477,137.39258,55.25488z M133.78467,54.6748h2.97852c0-0.02051-0.01025-0.07031-0.01025-0.16016
		c-0.0498-0.7998-0.55957-1.40918-1.46875-1.40918C134.39453,53.10547,133.84473,53.80566,133.78467,54.6748z"/>
	<path d="M142.74268,54.51465v3.01855h-0.68945v-2.84863c0-1.05957-0.33984-1.54883-1.07959-1.54883
		c-0.92969,0-1.46924,0.7998-1.46924,2.18848v2.20898h-0.68945v-4.92773h0.68945v0.71973
		c0.31982-0.49902,0.91943-0.79883,1.62891-0.79883C142.19287,52.52637,142.74268,53.20605,142.74268,54.51465z"/>
	<path d="M146.49365,57.4834c-0.25977,0.08008-0.52002,0.12988-0.74951,0.12988c-0.65967,0-1.13965-0.37012-1.13965-1.23926
		v-3.18848h-0.81934v-0.58008h0.81934v-1.37891l0.68945-0.51953v1.89844h1.18945v0.58008h-1.18945v3.09863
		c0,0.47949,0.22021,0.69922,0.60986,0.69922c0.16992,0,0.35986-0.04004,0.57959-0.10938L146.49365,57.4834z"/>
	<path d="M147.3252,55.06445c0-1.45898,0.94922-2.53809,2.3584-2.53809c1.39941,0,2.36816,1.0791,2.36816,2.53809
		c0,1.44922-0.95898,2.54883-2.36816,2.54883S147.3252,56.52344,147.3252,55.06445z M151.3623,55.06445
		c0-1.11914-0.62939-1.92871-1.67871-1.92871c-1.05957,0-1.66895,0.81934-1.66895,1.92871
		c0,1.11914,0.61963,1.93945,1.66895,1.93945C150.74316,57.00391,151.3623,56.16406,151.3623,55.06445z"/>
</g>
<line id="Linea_1459" fill="none" stroke="#000000" stroke-width="0.5973" x1="252.8" y1="47.2" x2="291.5" y2="47.2"/>
<g id="Raggruppa_4797" transform="translate(187.583 561.695) rotate(-169)">
	<path id="Tracciato_109126" d="M30.40002,515.70007l-0.3,0.59998l3.2,1.59998l-2,3.09998l0.6,0.40002l2.3-3.79999
		L30.40002,515.70007z"/>
</g>
<g enable-background="new    ">
	<path d="M262.42578,20.74512h-2.89844l-0.66992,1.86914h-0.7793l2.59766-6.96582h0.58984l2.60938,6.96582h-0.79004
		L262.42578,20.74512z M262.20508,20.13574l-1.22852-3.47852l-1.24023,3.47852H262.20508z"/>
	<path d="M264.13672,17.68652h0.75l1.54883,4.04785l1.55957-4.04785h0.75977l-2.01855,4.92773h-0.58984L264.13672,17.68652z"/>
	<path d="M273.48535,19.5459v3.06836h-0.62988l-0.04004-0.75977c-0.38965,0.5498-0.98926,0.83984-1.76855,0.83984
		c-1.07031,0-1.69922-0.55957-1.69922-1.50977c0-0.49902,0.19922-0.87891,0.55957-1.09863
		c0.37988-0.21973,0.90918-0.31055,1.87891-0.31055h1.00879V19.5459c0-0.85938-0.44922-1.3291-1.2793-1.3291
		c-0.61914,0-1.09863,0.26953-1.49805,0.81934l-0.5-0.41992c0.5293-0.68945,1.16895-1.00879,2.00879-1.00879
		C272.76562,17.60742,273.48535,18.31641,273.48535,19.5459z M272.79492,20.40527v-0.06934h-0.94922
		c-0.90918,0-1.29883,0.05957-1.53906,0.24902c-0.17969,0.14062-0.26953,0.36035-0.26953,0.63965
		c0,0.5498,0.46973,0.90039,1.20898,0.90039C272.19531,22.125,272.79492,21.45508,272.79492,20.40527z"/>
	<path d="M279.0957,19.5957v3.01855h-0.68945v-2.84863c0-1.05957-0.33984-1.54883-1.08008-1.54883
		c-0.92969,0-1.46875,0.7998-1.46875,2.18848v2.20898h-0.68945v-4.92773h0.68945v0.71973
		c0.31934-0.49902,0.91895-0.79883,1.62891-0.79883C278.54492,17.60742,279.0957,18.28711,279.0957,19.5957z"/>
	<path d="M282.8457,22.56445c-0.25977,0.08008-0.51953,0.12988-0.74902,0.12988c-0.65918,0-1.13965-0.37012-1.13965-1.23926V18.2666
		h-0.81934v-0.58008h0.81934v-1.37891l0.68945-0.51953v1.89844h1.18945v0.58008h-1.18945v3.09863
		c0,0.47949,0.2207,0.69922,0.60938,0.69922c0.16992,0,0.36035-0.04004,0.58008-0.10938L282.8457,22.56445z"/>
	<path d="M284.09766,15.64844h0.79883v1.01953h-0.79883V15.64844z M284.15723,17.68652h0.68945v4.92773h-0.68945V17.68652z"/>
</g>
<g enable-background="new    ">
	<path d="M257.7168,52.2373h0.70996v6.96582h-0.70996V52.2373z"/>
	<path d="M264.4043,56.18457v3.01855h-0.68945v-2.84863c0-1.05957-0.33984-1.54883-1.0791-1.54883
		c-0.92969,0-1.46973,0.7998-1.46973,2.18848v2.20898h-0.68945v-4.92773h0.68945v0.71973
		c0.32031-0.49902,0.91992-0.79883,1.62891-0.79883C263.85449,54.19629,264.4043,54.87598,264.4043,56.18457z"/>
	<path d="M270.22461,52.2373v6.96582h-0.69043v-0.65918c-0.35938,0.45898-0.90918,0.73926-1.62891,0.73926
		c-1.43848,0-2.18848-1.0791-2.18848-2.54883c0-1.53906,0.81934-2.54883,2.18848-2.54883c0.7002,0,1.25977,0.27051,1.62891,0.75
		V52.2373H270.22461z M269.59473,56.73438c0-1.16895-0.59961-1.93848-1.58887-1.93848c-1,0-1.59961,0.76953-1.59961,1.93848
		c0,1.11914,0.5498,1.93945,1.59961,1.93945C269.04492,58.67383,269.59473,57.85352,269.59473,56.73438z"/>
	<path d="M271.98633,52.2373h0.7998v1.01953h-0.7998V52.2373z M272.04688,54.27539h0.68945v4.92773h-0.68945V54.27539z"/>
	<path d="M278.4541,56.9248h-3.60742c0.01953,1.0791,0.61914,1.72852,1.58887,1.72852c0.54004,0,0.96973-0.13965,1.41895-0.61914
		l0.48047,0.41895c-0.58008,0.61035-1.14941,0.83008-1.90918,0.83008c-1.49902,0-2.26855-1.11914-2.26855-2.51855
		c0-1.38965,0.75977-2.56836,2.18848-2.56836c1.50879,0,2.13867,1.17871,2.13867,2.29785
		C278.48438,56.63477,278.47461,56.80469,278.4541,56.9248z M274.84668,56.34473h2.97852c0-0.02051-0.01074-0.07031-0.01074-0.16016
		c-0.0498-0.7998-0.55957-1.40918-1.46875-1.40918C275.45605,54.77539,274.90625,55.47559,274.84668,56.34473z"/>
	<path d="M281.92578,59.15332c-0.25977,0.08008-0.52051,0.12988-0.75,0.12988c-0.65918,0-1.13965-0.37012-1.13965-1.23926v-3.18848
		h-0.81934v-0.58008h0.81934v-1.37891l0.68945-0.51953v1.89844h1.18945v0.58008h-1.18945v3.09863
		c0,0.47949,0.2207,0.69922,0.61035,0.69922c0.16992,0,0.35938-0.04004,0.5791-0.10938L281.92578,59.15332z"/>
	<path d="M286.13477,54.40625l-0.33984,0.55957c-0.22949-0.10059-0.43945-0.15039-0.64941-0.15039
		c-0.75977,0-1.31934,0.56934-1.31934,1.63965v2.74805h-0.68945v-4.92773h0.68945v0.74023
		c0.36035-0.64941,0.95996-0.81934,1.45898-0.81934C285.58496,54.19629,285.86523,54.25586,286.13477,54.40625z"/>
	<path d="M286.27637,56.73438c0-1.45898,0.9502-2.53809,2.35938-2.53809c1.39941,0,2.36816,1.0791,2.36816,2.53809
		c0,1.44922-0.95898,2.54883-2.36816,2.54883S286.27637,58.19336,286.27637,56.73438z M290.31445,56.73438
		c0-1.11914-0.62988-1.92871-1.67871-1.92871c-1.05957,0-1.66895,0.81934-1.66895,1.92871
		c0,1.11914,0.61914,1.93945,1.66895,1.93945C289.69531,58.67383,290.31445,57.83398,290.31445,56.73438z"/>
</g>
<line id="Linea_1459-2" fill="none" stroke="#000000" stroke-width="0.5973" x1="293.29999" y1="10.1" x2="254.60001" y2="10.1"/>
<g id="Raggruppa_4797-2" transform="translate(187.583 561.695) rotate(-169)">
	<path id="Tracciato_109126-2" d="M5.20002,563.50006l0.4-0.59998l-3.2-1.59998l1.9-3.09998l-0.6-0.40002l-2.3,3.79999
		L5.20002,563.50006z"/>
</g>
<g id="Livello_1_1_" display="none">
	
		<image display="inline" overflow="visible" opacity="0.56" enable-background="new    " width="422" height="130" xlink:href="../materiale/4new.gif"  transform="matrix(1 0 0 1 -60.9999 -18.7915)">
	</image>
</g>
<g id="Group-4_2_" transform="translate(0.249 0)">
	<path id="Path-7_2_" fill="none" stroke="#CCCCCC" stroke-width="0.5" stroke-dasharray="2,2" d="M180.2,33.2V12.6"/>
</g>
<g id="Group-4_1_" transform="translate(0.249 0)">
	<path id="Path-7_1_" fill="none" stroke="#CCCCCC" stroke-width="0.5" stroke-dasharray="2,2" d="M0.6,33.4V12.8"/>
</g>
<g id="Group-4" transform="translate(0.249 0)">
	<path id="Path-7" fill="none" stroke="#CCCCCC" stroke-width="0.5" stroke-dasharray="2,2" d="M80.1,33.1V12.5"/>
</g>
<path id="Path" fill="none" stroke="#444444" stroke-width="0.5695" d="M80.3,33.2L0.6,33.3"/>
<polygon id="Rectangle" fill="#444444" points="79.7,31.5 81.1,31.5 81.1,34.8 79.7,34.8 "/>
<rect id="Rectangle-2" x="0.4" y="31.70015" transform="matrix(1 -0.00311 0.00311 1 -0.1036 0.00296)" fill="#444444" width="1" height="3.30002"/>
<path id="Path-2" fill="none" stroke="#444444" stroke-width="0.4602" d="M180.89999,33.1l-99.8,0.1"/>
<rect id="Rectangle-2_1_" x="179.90086" y="31.40016" transform="matrix(1 -0.00311 0.00311 1 -0.1018 0.56059)" fill="#444444" width="1" height="3.30002"/>
</svg>
