<?xml version="1.0" encoding="utf-8"?>
<!-- Generator: Adobe Illustrator 25.0.0, SVG Export Plug-In . SVG Version: 6.00 Build 0)  -->
<svg version="1.1" id="Livello_1" xmlns="http://www.w3.org/2000/svg" xmlns:xlink="http://www.w3.org/1999/xlink" x="0px" y="0px"
	 viewBox="0 0 288.89999 90.9" enable-background="new 0 0 288.89999 90.9" xml:space="preserve">
<line id="Linea_666" fill="none" stroke="#444444" stroke-width="0.5" stroke-dasharray="2.114,2.114" x1="62.693" y1="7.118" x2="38.35535" y2="7.34685"/>
<line id="Linea_645" fill="none" stroke="#777777" stroke-width="2" stroke-linecap="round" x1="77.493" y1="13.218" x2="50.893" y2="76.31799"/>
<line id="Linea_646" fill="none" stroke="#777777" stroke-width="2" stroke-linecap="round" x1="86.593" y1="18.81799" x2="41.793" y2="70.618"/>
<line id="Linea_647" fill="none" stroke="#777777" stroke-width="2" stroke-linecap="round" x1="93.493" y1="27.01801" x2="34.893" y2="62.51801"/>
<line id="Linea_648" fill="none" stroke="#777777" stroke-width="2" stroke-linecap="round" x1="97.493" y1="36.918" x2="30.793" y2="52.51801"/>
<line id="Linea_649" fill="none" stroke="#777777" stroke-width="2" stroke-linecap="round" x1="98.293" y1="47.618" x2="29.993" y2="41.81799"/>
<line id="Linea_650" fill="none" stroke="#777777" stroke-width="2" stroke-linecap="round" x1="95.693" y1="58.01801" x2="32.593" y2="31.418"/>
<line id="Linea_651" fill="none" stroke="#777777" stroke-width="2" stroke-linecap="round" x1="90.093" y1="67.118" x2="38.293" y2="22.31799"/>
<line id="Linea_652" fill="none" stroke="#777777" stroke-width="2" stroke-linecap="round" x1="81.893" y1="74.01801" x2="46.393" y2="15.418"/>
<line id="Linea_653" fill="none" stroke="#777777" stroke-width="2" stroke-linecap="round" x1="71.993" y1="78.11801" x2="56.393" y2="11.418"/>
<line id="Linea_654" fill="none" stroke="#777777" stroke-width="2" stroke-linecap="round" x1="61.293" y1="78.918" x2="64.193" y2="44.718"/>
<line id="Linea_655" fill="none" stroke="#777777" stroke-width="2" stroke-linecap="round" x1="71.993" y1="11.418" x2="55.993" y2="78.01801"/>
<line id="Linea_656" fill="none" stroke="#777777" stroke-width="2" stroke-linecap="round" x1="81.893" y1="15.51801" x2="46.093" y2="73.918"/>
<line id="Linea_657" fill="none" stroke="#777777" stroke-width="2" stroke-linecap="round" x1="90.093" y1="22.51801" x2="37.993" y2="67.01801"/>
<line id="Linea_658" fill="none" stroke="#777777" stroke-width="2" stroke-linecap="round" x1="95.693" y1="31.618" x2="32.393" y2="57.81799"/>
<line id="Linea_659" fill="none" stroke="#777777" stroke-width="2" stroke-linecap="round" x1="98.193" y1="42.118" x2="29.893" y2="47.418"/>
<line id="Linea_660" fill="none" stroke="#777777" stroke-width="2" stroke-linecap="round" x1="97.293" y1="52.718" x2="30.693" y2="36.718"/>
<line id="Linea_661" fill="none" stroke="#777777" stroke-width="2" stroke-linecap="round" x1="93.193" y1="62.618" x2="34.793" y2="26.81799"/>
<line id="Linea_662" fill="none" stroke="#777777" stroke-width="2" stroke-linecap="round" x1="86.293" y1="70.81799" x2="41.793" y2="18.718"/>
<line id="Linea_663" fill="none" stroke="#777777" stroke-width="2" stroke-linecap="round" x1="77.093" y1="76.418" x2="50.893" y2="13.118"/>
<line id="Linea_664" fill="none" stroke="#777777" stroke-width="2" stroke-linecap="round" x1="66.693" y1="78.918" x2="63.993" y2="44.718"/>
<line id="Linea_665" fill="none" stroke="#444444" stroke-width="3" x1="64.193" y1="44.51801" x2="64.193" y2="0.418"/>
<ellipse id="Ellisse_20399" fill="#FFFFFF" cx="64.193" cy="44.51801" rx="20.5" ry="20.5"/>
<line id="Linea_667" fill="none" stroke="#444444" stroke-width="0.25" stroke-dasharray="2.114,2.114" x1="62.693" y1="23.718" x2="50.893" y2="23.718"/>
<linearGradient id="Tracciato_109340_1_" gradientUnits="userSpaceOnUse" x1="-1566.82874" y1="-171.76796" x2="-1566.82874" y2="-170.76805" gradientTransform="matrix(37.938 0 0 74.2064 59486.69141 12755)">
	<stop  offset="0" style="stop-color:#FFFFFF;stop-opacity:0"/>
	<stop  offset="0" style="stop-color:#FFFFFF"/>
	<stop  offset="0.764" style="stop-color:#FFFFFF;stop-opacity:0.965"/>
	<stop  offset="1" style="stop-color:#FFFFFF;stop-opacity:0"/>
</linearGradient>
<path id="Tracciato_109340" fill="url(#Tracciato_109340_1_)" d="M63.293,82.918c-20.9,0-37.9-16.7-37.9-37.10001
	c0-20.5,16.6-37.10001,37.1-37.10001c0.1,0,0.2,0,0.3,0v15.5l0.5,3.2c-10.1-0.2-18.5,7.8-18.8,18s7.8,18.5,18,18.8
	c0.3,0,0.5,0,0.8,0V82.918z"/>
<path id="Tracciato_147338" fill="none" stroke="#000000" stroke-width="0.5" stroke-dasharray="2,2" d="M61.693,22.51801
	c-22,0-20.58668,19.39999-36.08668,19.29999"/>
<path id="Tracciato_109125" fill="none" stroke="#000000" stroke-width="0.5" stroke-miterlimit="10" d="M83.893,6.81799
	c3.3,1.3,6.3,3.10001,9,5.3c7.5,6.10001,11.6,14.3,11.5,21.39999"/>
<path id="Tracciato_109126" d="M107.07511,31.15485l-0.54607-0.44923l-2.15633,2.62112l-2.44143-2.37475l-0.45892,0.44653
	l2.99718,2.92351L107.07511,31.15485z"/>
<g enable-background="new    ">
	<path d="M1.98926,3.03418H6.7168v0.65918H2.69922v2.42871h3.51807v0.66016H2.69922V10H1.98926V3.03418z"/>
	<path d="M7.92969,3.03418H8.729v1.01953H7.92969V3.03418z M7.98975,5.07227H8.6792V10H7.98975V5.07227z"/>
	<path d="M14.42725,6.98145V10h-0.68945V7.15137c0-1.05957-0.33984-1.54883-1.07959-1.54883
		c-0.92969,0-1.46924,0.7998-1.46924,2.18848V10h-0.68945V5.07227h0.68945v0.71973c0.31982-0.49902,0.91943-0.79883,1.62891-0.79883
		C13.87744,4.99316,14.42725,5.67285,14.42725,6.98145z"/>
	<path d="M20.02686,7.72168h-3.60791c0.02002,1.0791,0.61963,1.72852,1.58936,1.72852c0.53955,0,0.96924-0.13965,1.41895-0.61914
		L19.90723,9.25c-0.57959,0.61035-1.14941,0.83008-1.90918,0.83008c-1.49902,0-2.26855-1.11914-2.26855-2.51855
		c0-1.38965,0.75977-2.56836,2.18896-2.56836c1.50879,0,2.13867,1.17871,2.13867,2.29785
		C20.05713,7.43164,20.04688,7.60156,20.02686,7.72168z M16.41895,7.1416h2.97852c0-0.02051-0.01025-0.07031-0.01025-0.16016
		c-0.0498-0.7998-0.55957-1.40918-1.46875-1.40918C17.02881,5.57227,16.479,6.27246,16.41895,7.1416z"/>
	<path d="M28.29736,3.03418V10h-0.68994V9.34082c-0.35938,0.45898-0.90918,0.73926-1.62891,0.73926
		c-1.43896,0-2.18896-1.0791-2.18896-2.54883c0-1.53906,0.81982-2.54883,2.18896-2.54883c0.69971,0,1.25928,0.27051,1.62891,0.75
		V3.03418H28.29736z M27.66748,7.53125c0-1.16895-0.59961-1.93848-1.58887-1.93848c-0.99951,0-1.59912,0.76953-1.59912,1.93848
		c0,1.11914,0.54932,1.93945,1.59912,1.93945C27.11768,9.4707,27.66748,8.65039,27.66748,7.53125z"/>
	<path d="M34.01709,7.72168h-3.60791c0.02002,1.0791,0.61963,1.72852,1.58936,1.72852c0.53955,0,0.96924-0.13965,1.41895-0.61914
		L33.89746,9.25c-0.57959,0.61035-1.14941,0.83008-1.90918,0.83008c-1.49902,0-2.26855-1.11914-2.26855-2.51855
		c0-1.38965,0.75977-2.56836,2.18896-2.56836c1.50879,0,2.13867,1.17871,2.13867,2.29785
		C34.04736,7.43164,34.03711,7.60156,34.01709,7.72168z M30.40918,7.1416h2.97852c0-0.02051-0.01025-0.07031-0.01025-0.16016
		c-0.0498-0.7998-0.55957-1.40918-1.46875-1.40918C31.01904,5.57227,30.46924,6.27246,30.40918,7.1416z"/>
	<path d="M35.39941,8.93066V3.03418h0.68945v5.85645c0,0.33984,0.12012,0.55957,0.44971,0.55957
		c0.1499,0,0.31982-0.04004,0.46973-0.08984l0.01025,0.58984c-0.20996,0.06934-0.45996,0.12988-0.67969,0.12988
		C35.76904,10.08008,35.39941,9.7002,35.39941,8.93066z"/>
</g>
<g enable-background="new    ">
	<path d="M4.58154,22.9502c-0.25977,0.08008-0.52002,0.12988-0.74951,0.12988c-0.65967,0-1.13965-0.37012-1.13965-1.23926v-3.18848
		H1.87305v-0.58008h0.81934v-1.37891l0.68945-0.51953v1.89844h1.18945v0.58008H3.38184v3.09863
		c0,0.47949,0.22021,0.69922,0.60986,0.69922c0.16992,0,0.35986-0.04004,0.57959-0.10938L4.58154,22.9502z"/>
	<path d="M9.74023,20.72168H6.13232c0.02002,1.0791,0.61963,1.72852,1.58936,1.72852c0.53955,0,0.96924-0.13965,1.41895-0.61914
		L9.62061,22.25c-0.57959,0.61035-1.14941,0.83008-1.90918,0.83008c-1.49902,0-2.26855-1.11914-2.26855-2.51855
		c0-1.38965,0.75977-2.56836,2.18896-2.56836c1.50879,0,2.13867,1.17871,2.13867,2.29785
		C9.77051,20.43164,9.76025,20.60156,9.74023,20.72168z M6.13232,20.1416h2.97852c0-0.02051-0.01025-0.07031-0.01025-0.16016
		c-0.0498-0.7998-0.55957-1.40918-1.46875-1.40918C6.74219,18.57227,6.19238,19.27246,6.13232,20.1416z"/>
	<path d="M10.63281,21.79102l0.57959-0.25977c0.17969,0.50977,0.65967,0.93945,1.4292,0.93945
		c0.66943,0,1.09961-0.33008,1.09961-0.84961c0-1.30957-2.83887-0.49023-2.83887-2.23926c0-0.85938,0.69971-1.38867,1.68945-1.38867
		c0.78955,0,1.4292,0.3291,1.76904,1.0293l-0.5498,0.2998c-0.23975-0.44043-0.62988-0.71973-1.23926-0.71973
		c-0.60986,0-0.99951,0.25-0.99951,0.67969c0,1.16895,2.84814,0.42969,2.84814,2.29883c0,0.99902-0.81934,1.49902-1.76904,1.49902
		C11.68213,23.08008,10.89258,22.58008,10.63281,21.79102z"/>
	<path d="M17.87158,22.9502c-0.25977,0.08008-0.52002,0.12988-0.74951,0.12988c-0.65967,0-1.13965-0.37012-1.13965-1.23926v-3.18848
		h-0.81934v-0.58008h0.81934v-1.37891l0.68945-0.51953v1.89844h1.18945v0.58008h-1.18945v3.09863
		c0,0.47949,0.22021,0.69922,0.60986,0.69922c0.16992,0,0.35986-0.04004,0.57959-0.10938L17.87158,22.9502z"/>
	<path d="M18.70312,20.53125c0-1.45898,0.94922-2.53809,2.3584-2.53809c1.39941,0,2.36865,1.0791,2.36865,2.53809
		c0,1.44922-0.95947,2.54883-2.36865,2.54883S18.70312,21.99023,18.70312,20.53125z M22.74072,20.53125
		c0-1.11914-0.62988-1.92871-1.6792-1.92871c-1.05957,0-1.66895,0.81934-1.66895,1.92871c0,1.11914,0.61963,1.93945,1.66895,1.93945
		C22.12109,22.4707,22.74072,21.63086,22.74072,20.53125z"/>
</g>
<g enable-background="new    ">
	<path d="M1.13916,37.43115h0.70996v6.96582H1.13916V37.43115z"/>
	<path d="M7.82715,41.37842v3.01855H7.1377v-2.84863c0-1.05957-0.33984-1.54883-1.07959-1.54883
		c-0.92969,0-1.46924,0.7998-1.46924,2.18848v2.20898H3.89941v-4.92773h0.68945v0.71973
		c0.31982-0.49902,0.91943-0.79883,1.62891-0.79883C7.27734,39.39014,7.82715,40.06982,7.82715,41.37842z"/>
	<path d="M9.46924,37.43115h0.79932v1.01953H9.46924V37.43115z M9.5293,39.46924h0.68945v4.92773H9.5293V39.46924z"/>
	<path d="M15.59766,40.01904l-3.2085,3.78809h3.18848v0.58984h-4.09814v-0.5l3.27832-3.83789h-3.1084v-0.58984h3.94824V40.01904z"/>
	<path d="M16.84961,37.43115h0.79932v1.01953h-0.79932V37.43115z M16.90967,39.46924h0.68945v4.92773h-0.68945V39.46924z"/>
	<path d="M18.98926,41.92822c0-1.45898,0.94971-2.53809,2.35889-2.53809c1.39941,0,2.36865,1.0791,2.36865,2.53809
		c0,1.44922-0.95947,2.54883-2.36865,2.54883S18.98926,43.38721,18.98926,41.92822z M23.02734,41.92822
		c0-1.11914-0.62988-1.92871-1.6792-1.92871c-1.05957,0-1.66895,0.81934-1.66895,1.92871c0,1.11914,0.61963,1.93945,1.66895,1.93945
		C22.40771,43.86768,23.02734,43.02783,23.02734,41.92822z"/>
</g>
<g enable-background="new    ">
	<path d="M5.02734,50.43164v6.96484H4.3374v-0.6582c-0.35938,0.45898-0.90918,0.73828-1.62891,0.73828
		c-1.43896,0-2.18896-1.07812-2.18896-2.54883c0-1.53906,0.81982-2.54883,2.18896-2.54883c0.69971,0,1.25928,0.27148,1.62891,0.75
		v-2.69727H5.02734z M4.39746,54.92773c0-1.16797-0.59961-1.9375-1.58887-1.9375c-0.99951,0-1.59912,0.76953-1.59912,1.9375
		c0,1.11914,0.54932,1.93945,1.59912,1.93945C3.84766,56.86719,4.39746,56.04688,4.39746,54.92773z"/>
	<path d="M10.74707,55.11914H7.13916c0.02002,1.07812,0.61963,1.72852,1.58936,1.72852c0.53955,0,0.96924-0.14062,1.41895-0.61914
		l0.47998,0.41797c-0.57959,0.61133-1.14941,0.83008-1.90918,0.83008c-1.49902,0-2.26855-1.11914-2.26855-2.51758
		c0-1.39062,0.75977-2.56836,2.18896-2.56836c1.50879,0,2.13867,1.17773,2.13867,2.29688
		C10.77734,54.82812,10.76709,54.99805,10.74707,55.11914z M7.13916,54.53906h2.97852c0-0.02148-0.01025-0.07031-0.01025-0.16016
		c-0.0498-0.80078-0.55957-1.41016-1.46875-1.41016C7.74902,52.96875,7.19922,53.66992,7.13916,54.53906z"/>
	<path d="M12.12939,56.32812v-5.89648h0.68945v5.85547c0,0.33984,0.12012,0.56055,0.44971,0.56055
		c0.1499,0,0.31982-0.04102,0.46973-0.08984l0.01025,0.58984c-0.20996,0.06836-0.45996,0.12891-0.67969,0.12891
		C12.49902,57.47656,12.12939,57.09766,12.12939,56.32812z"/>
</g>
<g enable-background="new    ">
	<path d="M2.9585,70.34766c-0.25977,0.08008-0.52002,0.12891-0.74951,0.12891c-0.65967,0-1.13965-0.36914-1.13965-1.23828v-3.18945
		H0.25v-0.58008h0.81934v-1.37891l0.68945-0.51953v1.89844h1.18945v0.58008H1.75879v3.09961
		c0,0.47852,0.22021,0.69922,0.60986,0.69922c0.16992,0,0.35986-0.04102,0.57959-0.10938L2.9585,70.34766z"/>
	<path d="M8.11719,68.11914H4.50928c0.02002,1.07812,0.61963,1.72852,1.58936,1.72852c0.53955,0,0.96924-0.14062,1.41895-0.61914
		l0.47998,0.41797c-0.57959,0.61133-1.14941,0.83008-1.90918,0.83008c-1.49902,0-2.26855-1.11914-2.26855-2.51758
		c0-1.39062,0.75977-2.56836,2.18896-2.56836c1.50879,0,2.13867,1.17773,2.13867,2.29688
		C8.14746,67.82812,8.13721,67.99805,8.11719,68.11914z M4.50928,67.53906h2.97852c0-0.02148-0.01025-0.07031-0.01025-0.16016
		c-0.0498-0.80078-0.55957-1.41016-1.46875-1.41016C5.11914,65.96875,4.56934,66.66992,4.50928,67.53906z"/>
	<path d="M9.00977,69.1875l0.57959-0.25977c0.17969,0.50977,0.65967,0.93945,1.4292,0.93945
		c0.66943,0,1.09961-0.33008,1.09961-0.84961c0-1.30859-2.83887-0.49023-2.83887-2.23828c0-0.85938,0.69971-1.38867,1.68945-1.38867
		c0.78955,0,1.4292,0.32812,1.76904,1.0293l-0.5498,0.29883C11.94824,66.2793,11.55811,66,10.94873,66
		c-0.60986,0-0.99951,0.25-0.99951,0.67969c0,1.16797,2.84814,0.42969,2.84814,2.29883c0,0.99805-0.81934,1.49805-1.76904,1.49805
		C10.05908,70.47656,9.26953,69.97656,9.00977,69.1875z"/>
	<path d="M16.24854,70.34766c-0.25977,0.08008-0.52002,0.12891-0.74951,0.12891c-0.65967,0-1.13965-0.36914-1.13965-1.23828
		v-3.18945h-0.81934v-0.58008h0.81934v-1.37891l0.68945-0.51953v1.89844h1.18945v0.58008h-1.18945v3.09961
		c0,0.47852,0.22021,0.69922,0.60986,0.69922c0.16992,0,0.35986-0.04102,0.57959-0.10938L16.24854,70.34766z"/>
	<path d="M17.08008,67.92773c0-1.45898,0.94922-2.53711,2.3584-2.53711c1.39941,0,2.36865,1.07812,2.36865,2.53711
		c0,1.44922-0.95947,2.54883-2.36865,2.54883S17.08008,69.38672,17.08008,67.92773z M21.11768,67.92773
		c0-1.11914-0.62988-1.92773-1.6792-1.92773c-1.05957,0-1.66895,0.81836-1.66895,1.92773c0,1.11914,0.61963,1.93945,1.66895,1.93945
		C20.49805,69.86719,21.11768,69.02734,21.11768,67.92773z"/>
</g>
<g enable-background="new    ">
	<path d="M102.04102,72.0791l0.70898-0.16992c0.12988,0.89941,0.80957,1.46875,1.74902,1.46875
		c1.00977,0,1.51953-0.5293,1.51953-1.21875c0-0.75-0.42969-1.13965-1.65918-1.60938
		c-1.40918-0.5293-1.89844-1.0293-1.89844-1.93848c0-1.05957,0.79883-1.75977,1.97852-1.75977
		c0.87988,0,1.56934,0.38965,1.98926,1.12988l-0.59961,0.36914c-0.2998-0.53906-0.80957-0.85938-1.40918-0.85938
		c-0.73047,0-1.25,0.5-1.25,1.08984c0,0.63965,0.47949,0.97949,1.5791,1.39941c1.5498,0.58887,1.98926,1.14941,1.98926,2.11816
		c0,1.16992-0.80957,1.91895-2.24902,1.91895C103.2002,74.01758,102.23047,73.24805,102.04102,72.0791z"/>
	<path d="M108.09082,66.95215h0.79883v1.01953h-0.79883V66.95215z M108.15039,68.99023h0.68945v4.92773h-0.68945V68.99023z"/>
	<path d="M114.58789,70.89941v3.01855h-0.68945v-2.84863c0-1.05957-0.33984-1.54883-1.0791-1.54883
		c-0.92969,0-1.46973,0.7998-1.46973,2.18848v2.20898h-0.68945v-4.92773h0.68945v0.71973
		c0.32031-0.49902,0.91992-0.79883,1.62891-0.79883C114.03809,68.91113,114.58789,69.59082,114.58789,70.89941z"/>
	<path d="M120.12793,74.67773c0,0.92969-0.86914,1.35938-2.1084,1.35938c-1.36914,0-2.19922-0.54004-2.19922-1.51953
		c0-0.09961,0.00977-0.16016,0.02051-0.21973l0.79883-0.67969C116.25977,73.44824,116,73.16797,116,72.67871
		c0-0.39941,0.17969-0.69922,0.53027-0.93945c-0.25977-0.2998-0.41992-0.67969-0.41992-1.11914c0-1,0.81934-1.70898,1.87891-1.70898
		c0.47949,0,0.90918,0.14941,1.22949,0.39941l0.67969-0.58984l0.35938,0.4502l-0.66992,0.55957
		c0.16992,0.26953,0.27051,0.5791,0.27051,0.92969c0,1.00879-0.81934,1.67871-1.85938,1.67871
		c-0.37988,0-0.72949-0.08984-1.01953-0.25c-0.19922,0.11035-0.31934,0.29004-0.31934,0.5c0,0.5,0.61914,0.61914,1.3291,0.72949
		C118.96875,73.46777,120.12793,73.6084,120.12793,74.67773z M119.43848,74.7373c0-0.59961-0.7793-0.68945-1.59961-0.81934
		c-0.21973-0.03027-0.44922-0.07031-0.65918-0.12012l-0.66992,0.64941C116.5,74.49805,116.5,74.51758,116.5,74.53809
		c0,0.69922,0.70996,0.91895,1.54883,0.91895C118.91895,75.45703,119.43848,75.2168,119.43848,74.7373z M116.79004,70.63965
		c0,0.63965,0.45996,1.12988,1.19922,1.12988s1.17969-0.48047,1.17969-1.12988c0-0.67969-0.45996-1.14941-1.16992-1.14941
		C117.2998,69.49023,116.79004,69.95996,116.79004,70.63965z"/>
	<path d="M120.87012,71.44922c0-1.45898,0.9502-2.53809,2.35938-2.53809c1.39941,0,2.36816,1.0791,2.36816,2.53809
		c0,1.44922-0.95898,2.54883-2.36816,2.54883S120.87012,72.9082,120.87012,71.44922z M124.9082,71.44922
		c0-1.11914-0.62988-1.92871-1.67871-1.92871c-1.05957,0-1.66895,0.81934-1.66895,1.92871
		c0,1.11914,0.61914,1.93945,1.66895,1.93945C124.28906,73.38867,124.9082,72.54883,124.9082,71.44922z"/>
	<path d="M126.9502,72.84863v-5.89648h0.68945v5.85645c0,0.33984,0.12012,0.55957,0.4502,0.55957
		c0.14941,0,0.31934-0.04004,0.46973-0.08984l0.00977,0.58984c-0.20996,0.06934-0.45996,0.12988-0.67969,0.12988
		C127.32031,73.99805,126.9502,73.61816,126.9502,72.84863z"/>
	<path d="M129.25977,71.44922c0-1.45898,0.9502-2.53809,2.35938-2.53809c1.39941,0,2.36816,1.0791,2.36816,2.53809
		c0,1.44922-0.95898,2.54883-2.36816,2.54883S129.25977,72.9082,129.25977,71.44922z M133.29785,71.44922
		c0-1.11914-0.62988-1.92871-1.67871-1.92871c-1.05957,0-1.66895,0.81934-1.66895,1.92871
		c0,1.11914,0.61914,1.93945,1.66895,1.93945C132.67871,73.38867,133.29785,72.54883,133.29785,71.44922z"/>
</g>
<g enable-background="new    ">
	<path d="M105.45898,82.12109l-0.33984,0.55957c-0.22949-0.10059-0.43945-0.15039-0.64941-0.15039
		c-0.75977,0-1.31934,0.56934-1.31934,1.63965v2.74805h-0.68945v-4.92773h0.68945v0.74023
		c0.35938-0.64941,0.95898-0.81934,1.45898-0.81934C104.90918,81.91113,105.18945,81.9707,105.45898,82.12109z"/>
	<path d="M110.14844,83.84961v3.06836h-0.62988l-0.04004-0.75977c-0.38965,0.5498-0.98926,0.83984-1.76855,0.83984
		c-1.06934,0-1.69922-0.55957-1.69922-1.50977c0-0.49902,0.2002-0.87891,0.55957-1.09863
		c0.37988-0.21973,0.91016-0.31055,1.87891-0.31055h1.00977v-0.22949c0-0.85938-0.4502-1.3291-1.2793-1.3291
		c-0.62012,0-1.09961,0.26953-1.49902,0.81934l-0.5-0.41992c0.5293-0.68945,1.16895-1.00879,2.00879-1.00879
		C109.42871,81.91113,110.14844,82.62012,110.14844,83.84961z M109.45898,84.70898v-0.06934h-0.94922
		c-0.91016,0-1.2998,0.05957-1.53906,0.24902c-0.18066,0.14062-0.27051,0.36035-0.27051,0.63965
		c0,0.5498,0.46973,0.90039,1.20996,0.90039C108.85938,86.42871,109.45898,85.75879,109.45898,84.70898z"/>
	<path d="M111.41992,84.46973c0-1.2998,0.73047-2.55859,2.21875-2.55859c0.87988,0,1.60938,0.43945,1.99902,1.3584l-0.65918,0.26074
		c-0.22949-0.62988-0.71973-1.00977-1.33984-1.00977c-1.04883,0-1.51855,0.93945-1.51855,1.94922
		c0,1.00879,0.46973,1.91895,1.5293,1.91895c0.61914,0,1.10938-0.37012,1.29883-1l0.63965,0.24023
		c-0.33008,0.89941-1.04883,1.36914-1.93848,1.36914C112.21973,86.99805,111.41992,85.83887,111.41992,84.46973z"/>
	<path d="M116.4502,84.46973c0-1.2998,0.73047-2.55859,2.21875-2.55859c0.87988,0,1.60938,0.43945,1.99902,1.3584l-0.65918,0.26074
		c-0.22949-0.62988-0.71973-1.00977-1.33984-1.00977c-1.04883,0-1.51855,0.93945-1.51855,1.94922
		c0,1.00879,0.46973,1.91895,1.5293,1.91895c0.61914,0,1.10938-0.37012,1.29883-1l0.63965,0.24023
		c-0.33008,0.89941-1.04883,1.36914-1.93848,1.36914C117.25,86.99805,116.4502,85.83887,116.4502,84.46973z"/>
	<path d="M121.45996,84.44922c0-1.45898,0.9502-2.53809,2.35938-2.53809c1.39941,0,2.36816,1.0791,2.36816,2.53809
		c0,1.44922-0.95898,2.54883-2.36816,2.54883S121.45996,85.9082,121.45996,84.44922z M125.49805,84.44922
		c0-1.11914-0.62988-1.92871-1.67871-1.92871c-1.05957,0-1.66895,0.81934-1.66895,1.92871
		c0,1.11914,0.61914,1.93945,1.66895,1.93945C124.87891,86.38867,125.49805,85.54883,125.49805,84.44922z"/>
	<path d="M131.50781,83.89941v3.01855h-0.68945v-2.84863c0-1.05957-0.33984-1.54883-1.0791-1.54883
		c-0.92969,0-1.46973,0.7998-1.46973,2.18848v2.20898h-0.68945v-4.92773h0.68945v0.71973
		c0.32031-0.49902,0.91992-0.79883,1.62891-0.79883C130.95801,81.91113,131.50781,82.59082,131.50781,83.89941z"/>
	<path d="M135.25879,86.86816c-0.25977,0.08008-0.51953,0.12988-0.74902,0.12988c-0.66016,0-1.13965-0.37012-1.13965-1.23926
		v-3.18848h-0.81934v-0.58008h0.81934v-1.37891l0.68945-0.51953v1.89844h1.18945v0.58008h-1.18945v3.09863
		c0,0.47949,0.21973,0.69922,0.60938,0.69922c0.16992,0,0.36035-0.04004,0.58008-0.10938L135.25879,86.86816z"/>
	<path d="M136.08984,84.44922c0-1.45898,0.9502-2.53809,2.35938-2.53809c1.39941,0,2.36816,1.0791,2.36816,2.53809
		c0,1.44922-0.95898,2.54883-2.36816,2.54883S136.08984,85.9082,136.08984,84.44922z M140.12793,84.44922
		c0-1.11914-0.62988-1.92871-1.67871-1.92871c-1.05957,0-1.66895,0.81934-1.66895,1.92871
		c0,1.11914,0.61914,1.93945,1.66895,1.93945C139.50879,86.38867,140.12793,85.54883,140.12793,84.44922z"/>
</g>
<g enable-background="new    ">
	<path d="M190.74414,84.04883h-2.89844l-0.66992,1.86914h-0.7793l2.59863-6.96582h0.58984l2.6084,6.96582h-0.78906
		L190.74414,84.04883z M190.52441,83.43945l-1.22949-3.47852l-1.23926,3.47852H190.52441z"/>
	<path d="M200.17285,82.83984v3.07812h-0.68945V83.0293c0-0.41992,0-1.50879-1.0791-1.50879c-1,0-1.26953,0.91895-1.26953,2.02832
		v2.36914h-0.68945v-2.84863c0-0.81934-0.25-1.54883-1.10938-1.54883c-0.95996,0-1.22949,0.90918-1.22949,2.02832v2.36914h-0.68945
		l-0.01074-4.92773h0.66992v0.60059c0.30957-0.49023,0.80957-0.67969,1.35938-0.67969c0.68945,0,1.19922,0.2998,1.44922,0.94922
		c0.31934-0.62988,0.86914-0.94922,1.61914-0.94922C199.68359,80.91113,200.17285,81.69043,200.17285,82.83984z"/>
	<path d="M206.38379,83.44922c0,1.46973-0.74902,2.54883-2.18848,2.54883c-0.71973,0-1.26953-0.28027-1.62891-0.73926v0.65918
		h-0.68945v-6.96582h0.68945v2.69824c0.36914-0.47949,0.92969-0.75,1.62891-0.75
		C205.56445,80.90039,206.38379,81.91016,206.38379,83.44922z M205.69434,83.44922c0-1.16895-0.59961-1.93848-1.59863-1.93848
		c-0.99023,0-1.58984,0.76953-1.58984,1.93848c0,1.11914,0.5498,1.93945,1.58984,1.93945
		C205.14453,85.38867,205.69434,84.56836,205.69434,83.44922z"/>
	<path d="M207.75684,78.95215h0.79883v1.01953h-0.79883V78.95215z M207.81641,80.99023h0.68945v4.92773h-0.68945V80.99023z"/>
	<path d="M214.22363,83.63965h-3.60742c0.01953,1.0791,0.61914,1.72852,1.58887,1.72852c0.54004,0,0.96973-0.13965,1.41895-0.61914
		l0.48047,0.41895c-0.58008,0.61035-1.14941,0.83008-1.90918,0.83008c-1.49902,0-2.26855-1.11914-2.26855-2.51855
		c0-1.38965,0.75977-2.56836,2.18848-2.56836c1.50879,0,2.13867,1.17871,2.13867,2.29785
		C214.25391,83.34961,214.24414,83.51953,214.22363,83.63965z M210.61621,83.05957h2.97852
		c0-0.02051-0.01074-0.07031-0.01074-0.16016c-0.0498-0.7998-0.55957-1.40918-1.46875-1.40918
		C211.22559,81.49023,210.67578,82.19043,210.61621,83.05957z"/>
	<path d="M219.57422,82.89941v3.01855h-0.68945v-2.84863c0-1.05957-0.33984-1.54883-1.08008-1.54883
		c-0.92969,0-1.46875,0.7998-1.46875,2.18848v2.20898h-0.68945v-4.92773h0.68945v0.71973
		c0.31934-0.49902,0.91895-0.79883,1.62891-0.79883C219.02441,80.91113,219.57422,81.59082,219.57422,82.89941z"/>
	<path d="M223.3252,85.86816c-0.25977,0.08008-0.52051,0.12988-0.75,0.12988c-0.65918,0-1.13965-0.37012-1.13965-1.23926v-3.18848
		h-0.81934v-0.58008h0.81934v-1.37891l0.69043-0.51953v1.89844h1.18848v0.58008h-1.18848v3.09863
		c0,0.47949,0.21973,0.69922,0.60938,0.69922c0.16992,0,0.35938-0.04004,0.5791-0.10938L223.3252,85.86816z"/>
	<path d="M228.30371,82.84961v3.06836h-0.62988l-0.04004-0.75977c-0.38965,0.5498-0.98926,0.83984-1.76855,0.83984
		c-1.06934,0-1.69922-0.55957-1.69922-1.50977c0-0.49902,0.2002-0.87891,0.55957-1.09863
		c0.37988-0.21973,0.91016-0.31055,1.87891-0.31055h1.00977v-0.22949c0-0.85938-0.4502-1.3291-1.2793-1.3291
		c-0.62012,0-1.09961,0.26953-1.49902,0.81934l-0.5-0.41992c0.5293-0.68945,1.16895-1.00879,2.00879-1.00879
		C227.58398,80.91113,228.30371,81.62012,228.30371,82.84961z M227.61426,83.70898v-0.06934h-0.94922
		c-0.91016,0-1.2998,0.05957-1.53906,0.24902c-0.18066,0.14062-0.27051,0.36035-0.27051,0.63965
		c0,0.5498,0.46973,0.90039,1.20996,0.90039C227.01465,85.42871,227.61426,84.75879,227.61426,83.70898z"/>
	<path d="M233.54395,81.54004l-3.20801,3.78809h3.18848v0.58984h-4.09863v-0.5l3.27832-3.83789h-3.1084v-0.58984h3.94824V81.54004z"
		/>
	<path d="M234.7959,78.95215h0.7998v1.01953h-0.7998V78.95215z M234.85645,80.99023h0.68945v4.92773h-0.68945V80.99023z"/>
	<path d="M236.93652,83.44922c0-1.45898,0.94922-2.53809,2.3584-2.53809c1.39941,0,2.36816,1.0791,2.36816,2.53809
		c0,1.44922-0.95898,2.54883-2.36816,2.54883S236.93652,84.9082,236.93652,83.44922z M240.97363,83.44922
		c0-1.11914-0.62988-1.92871-1.67871-1.92871c-1.05957,0-1.66895,0.81934-1.66895,1.92871
		c0,1.11914,0.61914,1.93945,1.66895,1.93945C240.35449,85.38867,240.97363,84.54883,240.97363,83.44922z"/>
	<path d="M246.9834,82.89941v3.01855h-0.68945v-2.84863c0-1.05957-0.33984-1.54883-1.0791-1.54883
		c-0.92969,0-1.46973,0.7998-1.46973,2.18848v2.20898h-0.68945v-4.92773h0.68945v0.71973
		c0.32031-0.49902,0.91992-0.79883,1.62891-0.79883C246.43359,80.91113,246.9834,81.59082,246.9834,82.89941z"/>
	<path d="M252.58301,83.63965h-3.60742c0.01953,1.0791,0.61914,1.72852,1.58887,1.72852c0.54004,0,0.96973-0.13965,1.41895-0.61914
		l0.48047,0.41895c-0.58008,0.61035-1.14941,0.83008-1.90918,0.83008c-1.49902,0-2.26855-1.11914-2.26855-2.51855
		c0-1.38965,0.75977-2.56836,2.18848-2.56836c1.50879,0,2.13867,1.17871,2.13867,2.29785
		C252.61328,83.34961,252.60352,83.51953,252.58301,83.63965z M248.97559,83.05957h2.97852
		c0-0.02051-0.01074-0.07031-0.01074-0.16016c-0.0498-0.7998-0.55957-1.40918-1.46875-1.40918
		C249.58496,81.49023,249.03516,82.19043,248.97559,83.05957z"/>
</g>
<path id="Rettangolo_16527" fill="#888888" d="M151.293,54.918h40c1.7,0,3,1.3,3,3v3c0,1.7-1.3,3-3,3h-40c-1.7,0-3-1.3-3-3v-3
	C148.293,56.218,149.593,54.918,151.293,54.918z"/>
<path id="Rettangolo_16528" fill="#C6CACF" d="M191.293,54.918h56c1.70001,0,3,1.3,3,3v3c0,1.7-1.29999,3-3,3h-56c-1.7,0-3-1.3-3-3
	v-3C188.293,56.218,189.593,54.918,191.293,54.918z"/>
<path id="Rettangolo_16529" fill="#888888" d="M247.293,54.918h36c1.70001,0,3,1.3,3,3v3c0,1.7-1.29999,3-3,3h-36
	c-1.70001,0-3-1.3-3-3v-3C244.293,56.218,245.59299,54.918,247.293,54.918z"/>
<line id="Linea_2516" fill="none" stroke="#000000" stroke-width="0.5" x1="219.293" y1="61.51801" x2="219.293" y2="77.418"/>
<path id="Tracciato_124417" fill="none" stroke="#000000" stroke-width="0.5" d="M183.293,59.918
	c0,15.13585,36.10001,8.3,36,14.29999"/>
<path id="Tracciato_147339_1_" fill="none" stroke="#000000" stroke-width="0.5" d="M275.293,59.918
	c0,19.03024-56,6.46333-56,14.29999"/>
<circle cx="219.293" cy="59.918" r="2"/>
<circle fill="none" stroke="#FFFFFF" stroke-width="0.5" cx="219.293" cy="59.918" r="1.8"/>
<circle cx="275.293" cy="59.918" r="2"/>
<circle fill="none" stroke="#FFFFFF" stroke-width="0.5" cx="275.293" cy="59.918" r="1.8"/>
<circle cx="183.293" cy="59.918" r="2"/>
<circle fill="none" stroke="#FFFFFF" stroke-width="0.5" cx="183.293" cy="59.918" r="1.8"/>
<path id="Tracciato_109125-2_1_" fill="none" stroke="#000000" stroke-width="0.5" stroke-miterlimit="10" stroke-dasharray="2" d="
	M143.57767,59.92538h-42.58299"/>
<path id="Tracciato_109126-2" d="M140.55203,57.07529l-0.46419,0.53341l2.8735,2.40686l-2.74767,2.29572l0.53342,0.46419
	l3.21185-2.82914L140.55203,57.07529z"/>
</svg>
