<?xml version="1.0" encoding="utf-8"?>
<!-- Generator: Adobe Illustrator 25.0.0, SVG Export Plug-In . SVG Version: 6.00 Build 0)  -->
<svg version="1.1" id="Livello_1" xmlns="http://www.w3.org/2000/svg" xmlns:xlink="http://www.w3.org/1999/xlink" x="0px" y="0px"
	 viewBox="0 0 291.5 121.2" enable-background="new 0 0 291.5 121.2" xml:space="preserve">
<line id="Linea_642" fill="none" stroke="#989494" stroke-width="0.5" stroke-miterlimit="10" stroke-dasharray="2,2" x1="93.1" y1="6.1" x2="251.7" y2="6.1"/>
<line id="Linea_643" fill="none" stroke="#989494" stroke-width="0.5" stroke-miterlimit="10" stroke-dasharray="2,2" x1="93.1" y1="22.4" x2="251.7" y2="22.4"/>
<line id="Linea_644" fill="none" stroke="#989494" stroke-width="0.5" stroke-miterlimit="10" stroke-dasharray="2,2" x1="93.1" y1="38.6" x2="251.7" y2="38.6"/>
<circle id="Ellisse_20322" fill="#989898" cx="124.2" cy="6.1" r="4.2"/>
<path id="Rettangolo_13437" fill="#888888" d="M116.5,2h34c1.7,0,3,1.3,3,3v3c0,1.7-1.3,3-3,3h-34c-1.7,0-3-1.3-3-3V5
	C113.5,3.3,114.8,2,116.5,2z"/>
<path id="Rettangolo_13438" fill="#C6CACF" d="M156.5,18h51c1.7,0,3,1.3,3,3v3c0,1.7-1.3,3-3,3h-51c-1.7,0-3-1.3-3-3v-3
	C153.5,19.3,154.8,18,156.5,18z"/>
<path id="Rettangolo_13439" fill="#888888" d="M212.5,34h36c1.7,0,3,1.3,3,3v3c0,1.7-1.3,3-3,3h-36c-1.7,0-3-1.3-3-3v-3
	C209.5,35.3,210.8,34,212.5,34z"/>
<path id="Path" fill="none" stroke="#444444" stroke-width="0.5" d="M251,83.3l-137.89999,0.2"/>
<rect id="Rectangle" x="250.80116" y="82.00031" transform="matrix(1 -0.003 0.003 1 -0.24923 0.75446)" fill="#444444" width="0.80001" height="2.80002"/>
<rect id="Rectangle-2" x="112.5" y="82.20029" transform="matrix(1 -0.00311 0.00311 1 -0.25917 0.35114)" fill="#444444" width="0.80001" height="2.80002"/>
<path id="Path-4" fill="none" stroke="#CCCCCC" stroke-width="0.5" stroke-dasharray="2,2" d="M251.20117,79.84921v-75.9"/>
<path id="Path-7" fill="none" stroke="#CCCCCC" stroke-width="0.5" stroke-dasharray="2,2" d="M112.9,81.4V6.1"/>
<line id="Linea_668" fill="none" stroke="#444444" stroke-width="0.5" x1="148.5" y1="6.6" x2="148.5" y2="20.6"/>
<line id="Linea_669" fill="none" stroke="#444444" stroke-width="0.5" x1="184.5" y1="22.8" x2="184.5" y2="37"/>
<line id="Linea_670" fill="none" stroke="#444444" stroke-width="0.5" x1="241" y1="38.7" x2="241" y2="49"/>
<circle cx="148.5" cy="6" r="2"/>
<circle fill="none" stroke="#FFFFFF" stroke-width="0.5" cx="148.5" cy="6" r="1.8"/>
<circle cx="184.5" cy="22" r="2"/>
<circle fill="none" stroke="#FFFFFF" stroke-width="0.5" cx="184.5" cy="22" r="1.8"/>
<circle cx="240.5" cy="38" r="2"/>
<circle fill="none" stroke="#FFFFFF" stroke-width="0.5" cx="240.5" cy="38" r="1.8"/>
<g>
	<path d="M2.25098,4.13135h0.70898v6.30664h3.17871v0.65967h-3.8877V4.13135z"/>
	<path d="M11.23926,8.81885h-3.6084c0.02051,1.07959,0.62012,1.729,1.58887,1.729c0.54004,0,0.96973-0.13965,1.41992-0.61963
		l0.47949,0.41992c-0.58008,0.60938-1.14941,0.82959-1.90918,0.82959c-1.49902,0-2.26855-1.11963-2.26855-2.51855
		c0-1.38965,0.75977-2.56885,2.18848-2.56885c1.50977,0,2.13867,1.1792,2.13867,2.29883
		C11.26855,8.5293,11.25879,8.69873,11.23926,8.81885z M7.63086,8.23926h2.97852c0-0.02002-0.00977-0.06982-0.00977-0.16016
		c-0.0498-0.79932-0.55957-1.40918-1.46973-1.40918C8.24023,6.66992,7.69141,7.36963,7.63086,8.23926z"/>
	<path d="M11.95117,6.17041h0.74902l1.5498,4.04785l1.55859-4.04785h0.75977l-2.01855,4.92725h-0.58984L11.95117,6.17041z"/>
	<path d="M21.42871,8.81885h-3.6084c0.02051,1.07959,0.62012,1.729,1.58887,1.729c0.54004,0,0.96973-0.13965,1.41992-0.61963
		l0.47949,0.41992c-0.58008,0.60938-1.14941,0.82959-1.90918,0.82959c-1.49902,0-2.26855-1.11963-2.26855-2.51855
		c0-1.38965,0.75977-2.56885,2.18848-2.56885c1.50977,0,2.13867,1.1792,2.13867,2.29883
		C21.45801,8.5293,21.44824,8.69873,21.42871,8.81885z M17.82031,8.23926h2.97852c0-0.02002-0.00977-0.06982-0.00977-0.16016
		c-0.0498-0.79932-0.55957-1.40918-1.46973-1.40918C18.42969,6.66992,17.88086,7.36963,17.82031,8.23926z"/>
	<path d="M22.81055,10.02832V4.13135h0.69043v5.85693c0,0.33984,0.11914,0.55957,0.44922,0.55957
		c0.15039,0,0.32031-0.04004,0.46973-0.08984l0.00977,0.58984c-0.20996,0.06982-0.45898,0.12988-0.67969,0.12988
		C23.18066,11.17773,22.81055,10.79785,22.81055,10.02832z"/>
	<path d="M25.02148,9.88818l0.58008-0.25977c0.17969,0.50977,0.65918,0.93945,1.42871,0.93945
		c0.66992,0,1.09961-0.32959,1.09961-0.84961c0-1.30908-2.83887-0.48975-2.83887-2.23877c0-0.85938,0.7002-1.38916,1.68945-1.38916
		c0.78906,0,1.42871,0.33008,1.76855,1.0293l-0.5498,0.2998c-0.23926-0.43945-0.62891-0.71924-1.23926-0.71924
		c-0.60938,0-0.99902,0.24951-0.99902,0.67969c0,1.16895,2.84863,0.42969,2.84863,2.29834
		c0,0.99951-0.81934,1.49951-1.76953,1.49951C26.07129,11.17773,25.28125,10.67773,25.02148,9.88818z"/>
	<path d="M30.57031,6.39014h0.88965v1.09961h-0.88965V6.39014z M30.57031,9.99805h0.88965v1.09961h-0.88965V9.99805z"/>
	<path d="M36.33008,10.02832V4.13135h0.69043v5.85693c0,0.33984,0.11914,0.55957,0.44922,0.55957
		c0.15039,0,0.32031-0.04004,0.46973-0.08984l0.00977,0.58984c-0.20996,0.06982-0.45898,0.12988-0.67969,0.12988
		C36.7002,11.17773,36.33008,10.79785,36.33008,10.02832z"/>
	<path d="M38.64062,8.62891c0-1.45898,0.9502-2.53857,2.35938-2.53857c1.39844,0,2.36816,1.07959,2.36816,2.53857
		c0,1.44922-0.95898,2.54883-2.36816,2.54883S38.64062,10.08838,38.64062,8.62891z M42.67871,8.62891
		c0-1.11914-0.62988-1.92871-1.67871-1.92871c-1.05957,0-1.66992,0.81934-1.66992,1.92871
		c0,1.11963,0.62012,1.93896,1.66992,1.93896C42.05859,10.56787,42.67871,9.72852,42.67871,8.62891z"/>
	<path d="M44.35059,8.64893c0-1.29932,0.72949-2.55859,2.21875-2.55859c0.87891,0,1.6084,0.43994,1.99902,1.35938L47.9082,7.70947
		c-0.22949-0.62939-0.71973-1.00928-1.33887-1.00928c-1.0498,0-1.51953,0.93945-1.51953,1.94873
		c0,1.00977,0.46973,1.91895,1.5293,1.91895c0.62012,0,1.10938-0.36963,1.29883-0.99951l0.63965,0.24023
		c-0.3291,0.89941-1.04883,1.36914-1.93848,1.36914C45.14941,11.17773,44.35059,10.01807,44.35059,8.64893z"/>
	<path d="M53.45801,8.0293v3.06836H52.8291l-0.04004-0.75977c-0.39062,0.5498-0.99023,0.83984-1.76953,0.83984
		c-1.06934,0-1.69922-0.56006-1.69922-1.50928c0-0.49951,0.2002-0.87939,0.55957-1.09961
		c0.37988-0.21973,0.91016-0.30957,1.87988-0.30957h1.00879V8.0293c0-0.85938-0.44922-1.3291-1.2793-1.3291
		c-0.61914,0-1.09961,0.26953-1.49902,0.81934l-0.5-0.41943c0.53027-0.68994,1.16992-1.00977,2.00879-1.00977
		C52.73828,6.09033,53.45801,6.7998,53.45801,8.0293z M52.76855,8.88867V8.81885h-0.94922c-0.90918,0-1.2998,0.06006-1.53906,0.25
		c-0.17969,0.13965-0.27051,0.35986-0.27051,0.63965c0,0.5498,0.4707,0.89941,1.20996,0.89941
		C52.16895,10.60791,52.76855,9.93848,52.76855,8.88867z"/>
	<path d="M57.18848,11.04785c-0.25977,0.07959-0.51953,0.12988-0.74902,0.12988c-0.66016,0-1.13965-0.37012-1.13965-1.23926V6.75
		h-0.81934V6.17041h0.81934V4.79102l0.68945-0.51953v1.89893h1.18945V6.75h-1.18945v3.09814
		c0,0.47998,0.21973,0.69971,0.61035,0.69971c0.16992,0,0.35938-0.04004,0.5791-0.10986L57.18848,11.04785z"/>
	<path d="M58.44043,4.13135h0.7998v1.01953h-0.7998V4.13135z M58.5,6.17041h0.68945v4.92725H58.5V6.17041z"/>
	<path d="M60.58008,8.62891c0-1.45898,0.9502-2.53857,2.35938-2.53857c1.39844,0,2.36816,1.07959,2.36816,2.53857
		c0,1.44922-0.95898,2.54883-2.36816,2.54883S60.58008,10.08838,60.58008,8.62891z M64.61816,8.62891
		c0-1.11914-0.62988-1.92871-1.67871-1.92871c-1.05957,0-1.66992,0.81934-1.66992,1.92871
		c0,1.11963,0.62012,1.93896,1.66992,1.93896C63.99805,10.56787,64.61816,9.72852,64.61816,8.62891z"/>
	<path d="M70.62695,8.0791v3.01855H69.9375V8.24902c0-1.05908-0.33984-1.54883-1.0791-1.54883
		c-0.92969,0-1.46973,0.79932-1.46973,2.18848v2.20898h-0.68945V6.17041h0.68945v0.71973c0.32031-0.5,0.91992-0.7998,1.62988-0.7998
		C70.07812,6.09033,70.62695,6.77002,70.62695,8.0791z"/>
	<path d="M71.7998,9.88818l0.5791-0.25977c0.18066,0.50977,0.66016,0.93945,1.42969,0.93945
		c0.66992,0,1.09961-0.32959,1.09961-0.84961c0-1.30908-2.83887-0.48975-2.83887-2.23877c0-0.85938,0.7002-1.38916,1.68945-1.38916
		c0.78906,0,1.42871,0.33008,1.76855,1.0293l-0.5498,0.2998c-0.23926-0.43945-0.62891-0.71924-1.23926-0.71924
		c-0.60938,0-0.99902,0.24951-0.99902,0.67969c0,1.16895,2.84863,0.42969,2.84863,2.29834
		c0,0.99951-0.81934,1.49951-1.76953,1.49951C72.84961,11.17773,72.05957,10.67773,71.7998,9.88818z"/>
	<path d="M1.96094,16.13135h0.7998v1.01953h-0.7998V16.13135z M2.02051,18.17041h0.69043v4.92725H2.02051V18.17041z"/>
	<path d="M8.45801,20.0791v3.01855H7.76855v-2.84863c0-1.05908-0.33984-1.54883-1.0791-1.54883
		c-0.92969,0-1.46875,0.79932-1.46875,2.18848v2.20898H4.53027v-4.92725H5.2207v0.71973c0.31934-0.5,0.91895-0.7998,1.62891-0.7998
		C7.90918,18.09033,8.45801,18.77002,8.45801,20.0791z"/>
	<path d="M9.63086,21.88818l0.58008-0.25977c0.17969,0.50977,0.65918,0.93945,1.42871,0.93945
		c0.66992,0,1.09961-0.32959,1.09961-0.84961c0-1.30908-2.83887-0.48975-2.83887-2.23877c0-0.85938,0.7002-1.38916,1.68945-1.38916
		c0.78906,0,1.42871,0.33008,1.76855,1.0293l-0.5498,0.2998c-0.23926-0.43945-0.62891-0.71924-1.23926-0.71924
		c-0.60938,0-0.99902,0.24951-0.99902,0.67969c0,1.16895,2.84863,0.42969,2.84863,2.29834
		c0,0.99951-0.81934,1.49951-1.76953,1.49951C10.68066,23.17773,9.89062,22.67773,9.63086,21.88818z"/>
	<path d="M14.76074,16.13135h0.7998v1.01953h-0.7998V16.13135z M14.82031,18.17041h0.68945v4.92725h-0.68945V18.17041z"/>
	<path d="M21.44824,16.13135v6.96631h-0.68945v-0.65967c-0.36035,0.45996-0.91016,0.73975-1.62891,0.73975
		c-1.43945,0-2.18945-1.07959-2.18945-2.54883c0-1.53906,0.81934-2.54834,2.18945-2.54834
		c0.69922,0,1.25879,0.26953,1.62891,0.74951v-2.69873H21.44824z M20.81836,20.62891c0-1.16943-0.59961-1.93896-1.58887-1.93896
		c-1,0-1.59961,0.76953-1.59961,1.93896c0,1.11963,0.5498,1.93896,1.59961,1.93896
		C20.26855,22.56787,20.81836,21.74854,20.81836,20.62891z"/>
	<path d="M27.16895,20.81885h-3.6084c0.02051,1.07959,0.62012,1.729,1.58887,1.729c0.54004,0,0.96973-0.13965,1.41992-0.61963
		l0.47949,0.41992c-0.58008,0.60938-1.14941,0.82959-1.90918,0.82959c-1.49902,0-2.26855-1.11963-2.26855-2.51855
		c0-1.38965,0.75977-2.56885,2.18848-2.56885c1.50977,0,2.13867,1.1792,2.13867,2.29883
		C27.19824,20.5293,27.18848,20.69873,27.16895,20.81885z M23.56055,20.23926h2.97852c0-0.02002-0.00977-0.06982-0.00977-0.16016
		c-0.0498-0.79932-0.55957-1.40918-1.46973-1.40918C24.16992,18.66992,23.62109,19.36963,23.56055,20.23926z"/>
	<path d="M30.89062,20.62891c0-1.45898,0.9502-2.53857,2.35938-2.53857c1.39844,0,2.36816,1.07959,2.36816,2.53857
		c0,1.44922-0.95898,2.54883-2.36816,2.54883S30.89062,22.08838,30.89062,20.62891z M34.92871,20.62891
		c0-1.11914-0.62988-1.92871-1.67871-1.92871c-1.05957,0-1.66992,0.81934-1.66992,1.92871
		c0,1.11963,0.62012,1.93896,1.66992,1.93896C34.30859,22.56787,34.92871,21.72852,34.92871,20.62891z"/>
	<path d="M39.00879,23.04785c-0.25977,0.07959-0.51953,0.12988-0.74902,0.12988c-0.66016,0-1.13965-0.37012-1.13965-1.23926V18.75
		h-0.81934v-0.57959h0.81934v-1.37939l0.68945-0.51953v1.89893h1.18945V18.75h-1.18945v3.09814
		c0,0.47998,0.21973,0.69971,0.61035,0.69971c0.16992,0,0.35938-0.04004,0.5791-0.10986L39.00879,23.04785z"/>
	<path d="M44.24805,20.0791v3.01855h-0.68945v-2.84863c0-1.06934-0.33984-1.54883-1.0791-1.54883
		c-0.93945,0-1.46973,0.76953-1.46973,2.12891v2.26855h-0.68945v-6.96631h0.68945v2.75879
		c0.32031-0.5,0.91992-0.7998,1.62988-0.7998C43.69922,18.09033,44.24805,18.77002,44.24805,20.0791z"/>
	<path d="M49.84863,20.81885h-3.6084c0.02051,1.07959,0.62012,1.729,1.58887,1.729c0.54004,0,0.96973-0.13965,1.41992-0.61963
		l0.47949,0.41992c-0.58008,0.60938-1.14941,0.82959-1.90918,0.82959c-1.49902,0-2.26855-1.11963-2.26855-2.51855
		c0-1.38965,0.75977-2.56885,2.18848-2.56885c1.50977,0,2.13867,1.1792,2.13867,2.29883
		C49.87793,20.5293,49.86816,20.69873,49.84863,20.81885z M46.24023,20.23926h2.97852c0-0.02002-0.00977-0.06982-0.00977-0.16016
		c-0.0498-0.79932-0.55957-1.40918-1.46973-1.40918C46.84961,18.66992,46.30078,19.36963,46.24023,20.23926z"/>
	<path d="M54.26855,18.30029l-0.33984,0.55957c-0.23047-0.09961-0.44043-0.1499-0.65039-0.1499
		c-0.75879,0-1.31934,0.56982-1.31934,1.63916v2.74854h-0.68945v-4.92725h0.68945v0.73975
		c0.36035-0.6499,0.95996-0.81982,1.45996-0.81982C53.71875,18.09033,53.99805,18.15039,54.26855,18.30029z"/>
	<path d="M1.98047,34.02832v-5.89697H2.6709v5.85693c0,0.33984,0.11914,0.55957,0.44922,0.55957
		c0.15039,0,0.32031-0.04004,0.46973-0.08984l0.00977,0.58984c-0.20996,0.06982-0.45898,0.12988-0.67969,0.12988
		C2.35059,35.17773,1.98047,34.79785,1.98047,34.02832z"/>
	<path d="M4.29102,32.62891c0-1.45898,0.9502-2.53857,2.35938-2.53857c1.39844,0,2.36816,1.07959,2.36816,2.53857
		c0,1.44922-0.95898,2.54883-2.36816,2.54883S4.29102,34.08838,4.29102,32.62891z M8.3291,32.62891
		c0-1.11914-0.62988-1.92871-1.67871-1.92871c-1.05957,0-1.66992,0.81934-1.66992,1.92871
		c0,1.11963,0.62012,1.93896,1.66992,1.93896C7.70898,34.56787,8.3291,33.72852,8.3291,32.62891z"/>
	<path d="M10.00098,32.64893c0-1.29932,0.72949-2.55859,2.21875-2.55859c0.87891,0,1.6084,0.43994,1.99902,1.35938l-0.66016,0.25977
		c-0.22949-0.62939-0.71973-1.00928-1.33887-1.00928c-1.0498,0-1.51953,0.93945-1.51953,1.94873
		c0,1.00977,0.46973,1.91895,1.5293,1.91895c0.62012,0,1.10938-0.36963,1.29883-0.99951l0.63965,0.24023
		c-0.3291,0.89941-1.04883,1.36914-1.93848,1.36914C10.7998,35.17773,10.00098,34.01807,10.00098,32.64893z"/>
	<path d="M19.1084,32.0293v3.06836h-0.62891l-0.04004-0.75977c-0.39062,0.5498-0.99023,0.83984-1.76953,0.83984
		c-1.06934,0-1.69922-0.56006-1.69922-1.50928c0-0.49951,0.2002-0.87939,0.55957-1.09961
		c0.37988-0.21973,0.91016-0.30957,1.87988-0.30957h1.00879V32.0293c0-0.85938-0.44922-1.3291-1.2793-1.3291
		c-0.61914,0-1.09961,0.26953-1.49902,0.81934l-0.5-0.41943c0.53027-0.68994,1.16992-1.00977,2.00879-1.00977
		C18.38867,30.09033,19.1084,30.7998,19.1084,32.0293z M18.41895,32.88867v-0.06982h-0.94922
		c-0.90918,0-1.2998,0.06006-1.53906,0.25c-0.17969,0.13965-0.27051,0.35986-0.27051,0.63965
		c0,0.5498,0.4707,0.89941,1.20996,0.89941C17.81934,34.60791,18.41895,33.93848,18.41895,32.88867z"/>
	<path d="M22.83887,35.04785c-0.25977,0.07959-0.51953,0.12988-0.74902,0.12988c-0.66016,0-1.13965-0.37012-1.13965-1.23926V30.75
		h-0.81934v-0.57959h0.81934v-1.37939l0.68945-0.51953v1.89893h1.18945V30.75h-1.18945v3.09814
		c0,0.47998,0.21973,0.69971,0.61035,0.69971c0.16992,0,0.35938-0.04004,0.5791-0.10986L22.83887,35.04785z"/>
	<path d="M24.09082,28.13135h0.7998v1.01953h-0.7998V28.13135z M24.15039,30.17041h0.68945v4.92725h-0.68945V30.17041z"/>
	<path d="M26.23047,32.62891c0-1.45898,0.9502-2.53857,2.35938-2.53857c1.39844,0,2.36816,1.07959,2.36816,2.53857
		c0,1.44922-0.95898,2.54883-2.36816,2.54883S26.23047,34.08838,26.23047,32.62891z M30.26855,32.62891
		c0-1.11914-0.62988-1.92871-1.67871-1.92871c-1.05957,0-1.66992,0.81934-1.66992,1.92871
		c0,1.11963,0.62012,1.93896,1.66992,1.93896C29.64844,34.56787,30.26855,33.72852,30.26855,32.62891z"/>
	<path d="M36.27734,32.0791v3.01855h-0.68945v-2.84863c0-1.05908-0.33984-1.54883-1.0791-1.54883
		c-0.92969,0-1.46973,0.79932-1.46973,2.18848v2.20898h-0.68945v-4.92725h0.68945v0.71973
		c0.32031-0.5,0.91992-0.7998,1.62988-0.7998C35.72852,30.09033,36.27734,30.77002,36.27734,32.0791z"/>
	<path d="M37.4502,33.88818l0.5791-0.25977c0.18066,0.50977,0.66016,0.93945,1.42969,0.93945
		c0.66992,0,1.09961-0.32959,1.09961-0.84961c0-1.30908-2.83887-0.48975-2.83887-2.23877c0-0.85938,0.7002-1.38916,1.68945-1.38916
		c0.78906,0,1.42871,0.33008,1.76855,1.0293l-0.5498,0.2998c-0.23926-0.43945-0.62891-0.71924-1.23926-0.71924
		c-0.60938,0-0.99902,0.24951-0.99902,0.67969c0,1.16895,2.84863,0.42969,2.84863,2.29834
		c0,0.99951-0.81934,1.49951-1.76953,1.49951C38.5,35.17773,37.70996,34.67773,37.4502,33.88818z"/>
</g>
<g>
	<path d="M65.73193,79.63086h2.13867c1.30957,0,2.0791,0.63965,2.0791,1.73926c0,0.71973-0.33008,1.26953-0.91992,1.51953
		c0.83008,0.20996,1.2793,0.8291,1.2793,1.75879c0,1.24902-0.7998,1.94922-2.22852,1.94922h-2.34863V79.63086z M68.01025,82.66992
		c0.76953,0,1.22949-0.4502,1.22949-1.17969c0-0.75977-0.5-1.19922-1.36914-1.19922h-1.42969v2.37891H68.01025z M68.03076,85.9375
		c0.99902,0,1.55859-0.47949,1.55859-1.34863c0-0.82031-0.5-1.2998-1.36914-1.2998h-1.7793v2.64844H68.03076z"/>
	<path d="M75.82959,84.31836h-3.6084c0.02051,1.08008,0.62012,1.72949,1.58887,1.72949c0.54004,0,0.96973-0.13965,1.41992-0.62012
		l0.47949,0.41992c-0.58008,0.60938-1.14941,0.83008-1.90918,0.83008c-1.49902,0-2.26855-1.12012-2.26855-2.51855
		c0-1.38965,0.75977-2.56934,2.18848-2.56934c1.50977,0,2.13867,1.17969,2.13867,2.29883
		C75.85889,84.0293,75.84912,84.19824,75.82959,84.31836z M72.22119,83.73926h2.97852c0-0.02051-0.00977-0.07031-0.00977-0.16016
		c-0.0498-0.7998-0.55957-1.40918-1.46973-1.40918C72.83057,82.16992,72.28174,82.86914,72.22119,83.73926z"/>
	<path d="M81.08936,87.35742c0,0.92871-0.86914,1.3584-2.1084,1.3584c-1.36914,0-2.19922-0.53906-2.19922-1.51855
		c0-0.10059,0.01074-0.16016,0.02051-0.21973l0.7998-0.67969c-0.37988-0.16992-0.63965-0.4502-0.63965-0.93945
		c0-0.40039,0.17969-0.7002,0.5293-0.93945c-0.25977-0.2998-0.41992-0.67969-0.41992-1.12012
		c0-0.99902,0.81934-1.70898,1.87891-1.70898c0.47949,0,0.90918,0.15039,1.22949,0.40039l0.67969-0.58984l0.35938,0.44922
		l-0.66895,0.56055c0.16992,0.26953,0.26953,0.5791,0.26953,0.92871c0,1.00977-0.81934,1.67969-1.85938,1.67969
		c-0.37988,0-0.72949-0.08984-1.01855-0.25c-0.2002,0.10938-0.32031,0.29004-0.32031,0.5c0,0.49902,0.62012,0.61914,1.3291,0.72949
		C79.93018,86.14746,81.08936,86.28711,81.08936,87.35742z M80.3999,87.41699c0-0.59961-0.7793-0.68945-1.59863-0.81934
		c-0.2207-0.03027-0.4502-0.07031-0.66016-0.12012l-0.66992,0.64941c-0.00977,0.0498-0.00977,0.07031-0.00977,0.08984
		c0,0.7002,0.70996,0.91992,1.5498,0.91992C79.88037,88.13672,80.3999,87.89648,80.3999,87.41699z M77.75146,83.31934
		c0,0.63965,0.45996,1.12891,1.19922,1.12891c0.74023,0,1.17969-0.47949,1.17969-1.12891c0-0.67969-0.45996-1.14941-1.16992-1.14941
		C78.26123,82.16992,77.75146,82.63965,77.75146,83.31934z"/>
	<path d="M82.40186,79.63086h0.7998v1.01953h-0.7998V79.63086z M82.46143,81.66992h0.68945v4.92773h-0.68945V81.66992z"/>
	<path d="M88.89893,83.5791v3.01855h-0.68945v-2.84863c0-1.05957-0.33984-1.54883-1.0791-1.54883
		c-0.92969,0-1.46973,0.79883-1.46973,2.18848v2.20898h-0.68945v-4.92773h0.68945v0.71973
		c0.32031-0.5,0.91992-0.7998,1.62988-0.7998C88.3501,81.58984,88.89893,82.26953,88.89893,83.5791z"/>
	<path d="M94.52881,83.5791v3.01855h-0.68945v-2.84863c0-1.05957-0.33984-1.54883-1.0791-1.54883
		c-0.92969,0-1.46875,0.79883-1.46875,2.18848v2.20898h-0.69043v-4.92773h0.69043v0.71973
		c0.31934-0.5,0.91895-0.7998,1.62891-0.7998C93.97998,81.58984,94.52881,82.26953,94.52881,83.5791z"/>
	<path d="M96.17139,79.63086h0.7998v1.01953h-0.7998V79.63086z M96.23096,81.66992h0.68945v4.92773h-0.68945V81.66992z"/>
	<path d="M102.66846,83.5791v3.01855H101.979v-2.84863c0-1.05957-0.33984-1.54883-1.0791-1.54883
		c-0.92969,0-1.46973,0.79883-1.46973,2.18848v2.20898h-0.68945v-4.92773h0.68945v0.71973
		c0.32031-0.5,0.91992-0.7998,1.62988-0.7998C102.11963,81.58984,102.66846,82.26953,102.66846,83.5791z"/>
	<path d="M108.2085,87.35742c0,0.92871-0.86914,1.3584-2.1084,1.3584c-1.36914,0-2.19922-0.53906-2.19922-1.51855
		c0-0.10059,0.01074-0.16016,0.02051-0.21973l0.7998-0.67969c-0.37988-0.16992-0.63965-0.4502-0.63965-0.93945
		c0-0.40039,0.17969-0.7002,0.5293-0.93945c-0.25977-0.2998-0.41992-0.67969-0.41992-1.12012
		c0-0.99902,0.81934-1.70898,1.87891-1.70898c0.47949,0,0.90918,0.15039,1.22949,0.40039l0.67969-0.58984l0.35938,0.44922
		l-0.66895,0.56055c0.16992,0.26953,0.26953,0.5791,0.26953,0.92871c0,1.00977-0.81934,1.67969-1.85938,1.67969
		c-0.37988,0-0.72949-0.08984-1.01855-0.25c-0.2002,0.10938-0.32031,0.29004-0.32031,0.5c0,0.49902,0.62012,0.61914,1.3291,0.72949
		C107.04932,86.14746,108.2085,86.28711,108.2085,87.35742z M107.51904,87.41699c0-0.59961-0.7793-0.68945-1.59863-0.81934
		c-0.2207-0.03027-0.4502-0.07031-0.66016-0.12012l-0.66992,0.64941c-0.00977,0.0498-0.00977,0.07031-0.00977,0.08984
		c0,0.7002,0.70996,0.91992,1.5498,0.91992C106.99951,88.13672,107.51904,87.89648,107.51904,87.41699z M104.87061,83.31934
		c0,0.63965,0.45996,1.12891,1.19922,1.12891c0.74023,0,1.17969-0.47949,1.17969-1.12891c0-0.67969-0.45996-1.14941-1.16992-1.14941
		C105.38037,82.16992,104.87061,82.63965,104.87061,83.31934z"/>
</g>
<g>
	<path d="M85.10498,5.44385c0-1.65918,0.34961-3.58789,2.15918-3.58789c1.64941,0,2.21875,1.68896,2.21875,3.59766
		c0,1.90918-0.55957,3.56836-2.14844,3.56836C85.4751,9.02197,85.10498,7.10303,85.10498,5.44385z M88.74365,5.44385
		c0-1.60938-0.31055-2.92822-1.47949-2.92822c-1.21973,0-1.44922,1.4292-1.44922,2.92822c0,1.46924,0.22949,2.91846,1.49902,2.91846
		C88.44385,8.3623,88.74365,7.02295,88.74365,5.44385z"/>
</g>
<g>
	<path d="M88.11377,18.47803v6.96631h-0.68945v-5.16699h-1.73926v-0.67969h1.15918c0.34961,0,0.58008-0.12012,0.58008-0.52979
		v-0.58984H88.11377z"/>
</g>
<g>
	<path d="M89.68311,41.0459v0.64941h-4.81738v-0.63965c1.62891-1.01953,3.79785-2.47852,3.79785-4.32764
		c0-0.87939-0.49023-1.43896-1.38965-1.43896c-1.05957,0-1.53906,0.76953-1.54883,1.79883l-0.67969-0.0498
		c0-1.36963,0.78906-2.40869,2.22852-2.40869c1.23926,0,2.08887,0.76953,2.08887,2.1084c0,1.7793-1.5791,3.19824-3.34766,4.30811
		H89.68311z"/>
</g>
<g>
	<path d="M137.45508,37.36182c-1.74414-1.74512-2.08398-4.2749-0.38086-5.97852c1.0957-1.09521,2.16992-1.0957,3.1377-0.43799
		l-0.33887,0.63574c-0.77734-0.5376-1.54883-0.48779-2.36133,0.3252c-1.41406,1.41357-1.02441,3.49805,0.40332,4.92578
		c0.81934,0.81982,1.81738,1.01025,2.80566,0.02148c0.82031-0.82031,1.01758-1.82373,0.75-2.89795l0.65625-0.2334
		c0.31055,1.30078,0.09863,2.5874-0.97461,3.66113C139.9082,38.62695,138.55859,38.46484,137.45508,37.36182z"/>
	<path d="M140.08008,28.49023l0.50879-0.50879l0.5791,0.8623l-0.50879,0.50879L140.08008,28.49023z M141.25391,30.20068
		l0.48633-0.4873l2.80664,4.16162l-0.48828,0.48779L141.25391,30.20068z"/>
	<path d="M145.67188,31.08252c0.05664,0.08496,0.12012,0.1626,0.16211,0.20508c0.21289,0.21191,0.41797,0.17676,0.63672-0.04199
		c0.11328-0.11328,0.24023-0.29688,0.35352-0.52344l0.35254,0.45264c-0.12793,0.23975-0.28223,0.46582-0.44531,0.62891
		c-0.40234,0.40234-0.87598,0.48047-1.2998,0.05664c-0.0918-0.09229-0.18359-0.2124-0.24023-0.29688l-1.83789-2.71387
		l-0.58008,0.57959l-0.2959-0.45264l0.57324-0.57275l-0.78516-1.16602l0.19141-0.92578l1.08008,1.60449l0.8418-0.84131
		l0.30273,0.4458l-0.83984,0.84033L145.67188,31.08252z"/>
	<path d="M148.13184,23.32227l2.07129,7.78076l-0.53711,0.53711l-0.62891-2.36816l-4.23438-2.62109l0.53125-0.53027l3.44141,2.18311
		l-1.1875-4.43701L148.13184,23.32227z"/>
</g>
<g>
	<path d="M155.33008,65.61914l1.46387-1.46289c0.81934-0.81934,1.66113-0.95312,2.29688-0.31738
		c0.56543,0.56543,0.7627,1.46973,0.43066,2.22559c0.60059-0.3457,1.14551-0.25391,1.63965,0.24023
		c1.03223,1.03223,0.91211,2.42383-0.19043,3.52734l-1.6748,1.67383L155.33008,65.61914z M158.71582,66.53125
		c0.61523-0.61523,0.50879-1.55469-0.01367-2.07812c-0.38867-0.38867-0.90527-0.36719-1.45605,0.18359l-1.03906,1.03906
		l1.35742,2.00781L158.71582,66.53125z M160.51855,69.35059c0.83301-0.83301,0.84082-1.83008,0.17676-2.49512
		c-0.41699-0.41602-0.98926-0.4375-1.52637,0.09961l-1.25098,1.25195l1.50488,2.23926L160.51855,69.35059z"/>
	<path d="M163.74219,60.09131l2.80664,4.1626l-0.48047,0.48047l-0.375-0.55859c0.03516,0.64258-0.24805,1.29297-0.7207,1.7666
		c-0.8623,0.8623-1.87988,0.76367-2.70703-0.06348c-1.10938-1.10938-1.39258-3.03125-0.27539-4.14844
		c0.50195-0.50195,1.1377-0.68555,1.68164-0.53711l-0.41602-0.61475L163.74219,60.09131z M162.4707,62.14062
		c-0.88281,0.88281-0.59375,2.38867,0.22656,3.20801c0.60742,0.6084,1.31445,0.65039,1.89355,0.07129
		c0.79199-0.79102,0.68457-2.09961-0.0498-3.01758C163.91992,61.62451,163.11426,61.49707,162.4707,62.14062z"/>
	<path d="M167.13086,56.90039l0.11328,0.70703c-0.13477,0.03516-0.3252,0.1416-0.50195,0.31836
		c-0.51562,0.51562-0.70703,1.41309,0.07812,2.56494l1.41309,2.07764l-0.4873,0.4873l-2.80664-4.16162l0.48828-0.48779
		l0.375,0.57178c-0.10645-0.72705,0.24707-1.30713,0.58594-1.646C166.59375,57.12695,166.83398,56.97168,167.13086,56.90039z"/>
	<path d="M169.91602,54.11475l0.11328,0.70703c-0.13477,0.03516-0.32422,0.1416-0.50195,0.31836
		c-0.51562,0.51562-0.70703,1.41309,0.07812,2.56494l1.41406,2.07764l-0.48828,0.48779l-2.80566-4.16211l0.4873-0.48779
		l0.375,0.57227c-0.10547-0.72754,0.24805-1.30762,0.58594-1.64648C169.37891,54.34131,169.61914,54.18604,169.91602,54.11475z"/>
	<path d="M173.29688,50.5376l2.80469,4.16211l-0.48047,0.48047l-0.37402-0.55811c0.03516,0.64355-0.24805,1.29395-0.7207,1.7666
		c-0.8623,0.86279-1.87988,0.76367-2.70703-0.06348c-1.10938-1.10938-1.3916-3.03174-0.27637-4.14795
		c0.50293-0.50244,1.13867-0.68555,1.68262-0.5376l-0.41699-0.61426L173.29688,50.5376z M172.02441,52.58691
		c-0.88379,0.8833-0.59375,2.38867,0.22559,3.2085c0.6084,0.60791,1.31445,0.65039,1.89453,0.0708
		c0.79102-0.7915,0.68555-2.09912-0.0498-3.01758C173.47266,52.0708,172.66797,51.94336,172.02441,52.58691z"/>
	<path d="M175.9834,52.18945c-1.15137-1.15186-1.40625-3.0459-0.29004-4.1626c0.65039-0.65039,1.44922-0.75635,2.21289-0.26172
		l-0.33203,0.64355c-0.50977-0.38184-1.06738-0.33252-1.48438,0.08447c-0.84766,0.84814-0.49414,2.33252,0.39551,3.22266
		c0.5166,0.51611,1.17383,0.67773,1.75977,0.0918c0.45996-0.45947,0.59473-1.14502,0.36816-1.80908l0.62109-0.21191
		c0.26953,0.94629,0.04297,1.85107-0.58594,2.48047C177.78516,53.12939,176.76074,52.9668,175.9834,52.18945z"/>
	<path d="M176.83398,44.11621l0.4873-0.4873l2.63574,3.93652l0.25488-3.94336l0.66504-0.66455l-0.21289,2.82764l3.21484,1.13721
		l-0.57227,0.57227l-2.7207-1.02441l-0.11914,1.81641l0.81836,1.22949l-0.48633,0.4873L176.83398,44.11621z"/>
	<path d="M183.47168,45.5918l0.30371-0.61426c0.43164,0.2749,0.99609,0.28955,1.56934-0.2832
		c0.4873-0.4873,0.6709-1.08105,0.21875-1.5332c-0.7002-0.69971-2.19824,1.25049-3.20117,0.24707
		c-0.61523-0.61523-0.46582-1.5835,0.25391-2.30371c0.6084-0.6084,1.31543-0.75,1.95801-0.48828l-0.23242,0.61475
		c-0.49609-0.18359-0.89062-0.08496-1.30859,0.33203c-0.43164,0.43164-0.59375,0.96143-0.24023,1.31494
		c0.66406,0.66455,2.15625-1.29346,3.20117-0.24756c0.72852,0.72803,0.53125,1.75977-0.21875,2.50879
		C185.0332,45.88184,184.11523,45.99463,183.47168,45.5918z"/>
</g>
<g>
	<path d="M226.77832,67.86328l3.1377,1.34277l-0.53711,0.53711l-3.01758-1.34961l-0.36719,0.36816l-0.69336,0.69141l1.75977,2.60742
		l-0.50098,0.50195l-3.96582-5.88672l1.39258-1.39258c0.92578-0.92578,1.81641-0.98242,2.49609-0.30273
		C227.33691,65.83496,227.40039,66.86035,226.77832,67.86328z M225.76758,68.05469c0.84766-0.84863,1.01758-1.75293,0.26855-2.50195
		c-0.4668-0.4668-1.05371-0.33203-1.70312,0.31738l-0.8623,0.8623l1.45508,2.16211L225.76758,68.05469z"/>
	<path d="M229.33203,67.08984c-1.15137-1.15137-1.31445-3.06641-0.16211-4.21875c0.8623-0.8623,1.96484-0.80469,2.78418,0.01465
		c1.15918,1.15918,1.30762,3.08887,0.16211,4.2334C231.25391,67.98047,230.15918,67.91699,229.33203,67.08984z M231.48047,63.35938
		c-0.58008-0.58008-1.30078-0.63672-1.91504-0.02148c-0.90527,0.9043-0.64941,2.375,0.25488,3.2793
		c0.5791,0.5791,1.2998,0.63574,1.90039,0.03516C232.63281,65.74023,232.37793,64.25684,231.48047,63.35938z"/>
	<path d="M233.27051,63.15137c-1.15137-1.15137-1.31348-3.06689-0.16211-4.21875c0.8623-0.8623,1.96484-0.80566,2.78418,0.01416
		c1.16016,1.15918,1.30664,3.08838,0.16211,4.23291C235.19336,64.04199,234.09766,63.97852,233.27051,63.15137z M235.41992,59.42041
		c-0.58008-0.57959-1.30078-0.63574-1.91602-0.02148c-0.9043,0.90479-0.64941,2.37451,0.25488,3.27881
		c0.5791,0.58008,1.2998,0.63672,1.90137,0.03516C236.57129,61.80176,236.31641,60.31787,235.41992,59.42041z"/>
	<path d="M241.25195,52.78271c0.19043,0.19092,0.26074,0.31787,0.39453,0.50879l1.68945,2.49463l-0.4873,0.4873l-1.60449-2.38135
		c-0.10547-0.1626-0.26758-0.38184-0.42383-0.53711c-0.33984-0.33984-0.77734-0.49463-1.23633-0.03564
		c-0.69336,0.69287-0.3457,1.70361,0.27539,2.63574l1.32812,1.979l-0.4873,0.48779l-1.63965-2.43066
		c-0.12012-0.17676-0.24805-0.34619-0.38184-0.48047c-0.38867-0.38867-0.8125-0.47363-1.23633-0.0498
		c-0.7002,0.69971-0.35352,1.69629,0.27539,2.63574l1.3291,1.979l-0.48828,0.4873l-2.8125-4.15479l0.47363-0.47363l0.33887,0.50879
		c-0.04297-0.60791,0.22656-1.18701,0.59375-1.55469c0.41699-0.41699,0.97461-0.57959,1.5332-0.19092
		c-0.15527-0.76318,0.12109-1.46289,0.58789-1.92969C239.97852,52.06201,240.67188,52.20312,241.25195,52.78271z"/>
</g>
<g>
	<path d="M255.93066,79.63086h4.56738v0.66016h-3.8584v2.42871h3.46875v0.65918h-3.46875v2.55859h3.8584v0.66016h-4.56738V79.63086z
		"/>
	<path d="M265.94824,83.5791v3.01855h-0.68945v-2.84863c0-1.05957-0.33984-1.54883-1.0791-1.54883
		c-0.92969,0-1.46875,0.79883-1.46875,2.18848v2.20898h-0.69043v-4.92773h0.69043v0.71973
		c0.31934-0.5,0.91895-0.7998,1.62891-0.7998C265.39941,81.58984,265.94824,82.26953,265.94824,83.5791z"/>
	<path d="M271.76855,79.63086v6.9668h-0.68945V85.9375c-0.36035,0.45996-0.91016,0.74023-1.62891,0.74023
		c-1.43945,0-2.18945-1.08008-2.18945-2.54883c0-1.53906,0.81934-2.54883,2.18945-2.54883c0.69922,0,1.25879,0.26953,1.62891,0.75
		v-2.69922H271.76855z M271.13867,84.12891c0-1.16992-0.59961-1.93945-1.58887-1.93945c-1,0-1.59961,0.76953-1.59961,1.93945
		c0,1.11914,0.5498,1.93848,1.59961,1.93848C270.58887,86.06738,271.13867,85.24805,271.13867,84.12891z"/>
</g>
<g>
	<path d="M138.79443,93.81055h-2.40869v-0.65918h5.54688v0.65918h-2.41846v6.30664h-0.71973V93.81055z"/>
	<path d="M146.12305,97.83887h-3.60791c0.02002,1.0791,0.61963,1.72852,1.58936,1.72852c0.53955,0,0.96924-0.13965,1.41895-0.61914
		l0.47998,0.41992c-0.57959,0.60938-1.14941,0.8291-1.90918,0.8291c-1.49902,0-2.26855-1.11914-2.26855-2.51855
		c0-1.38965,0.75977-2.56836,2.18896-2.56836c1.50879,0,2.13867,1.17871,2.13867,2.29883
		C146.15332,97.54883,146.14307,97.71875,146.12305,97.83887z M142.51514,97.25879h2.97852
		c0-0.01953-0.01025-0.06934-0.01025-0.16016c-0.0498-0.79883-0.55957-1.40918-1.46875-1.40918
		C143.125,95.68945,142.5752,96.38965,142.51514,97.25879z"/>
	<path d="M148.69434,97.64844l-1.79883-2.45801h0.83984l1.41895,1.97852l1.40918-1.97852h0.83984l-1.7998,2.45801l1.80957,2.46875
		h-0.84961l-1.40918-1.99902l-1.40918,1.99902h-0.84961L148.69434,97.64844z"/>
	<path d="M154.67383,100.06738c-0.25977,0.08008-0.51953,0.12988-0.74902,0.12988c-0.66016,0-1.13965-0.37012-1.13965-1.23926
		v-3.18848h-0.81934v-0.5791h0.81934v-1.37988l0.68945-0.51953v1.89941h1.18945v0.5791h-1.18945v3.09863
		c0,0.47949,0.21973,0.69922,0.60938,0.69922c0.16992,0,0.36035-0.04004,0.58008-0.10938L154.67383,100.06738z"/>
	<path d="M158.6748,99.04785v-5.89648h0.68945v5.85645c0,0.33984,0.12012,0.55957,0.4502,0.55957
		c0.14941,0,0.31934-0.04004,0.46973-0.08984l0.00977,0.58984c-0.20996,0.07031-0.45996,0.12988-0.67969,0.12988
		C159.04492,100.19727,158.6748,99.81738,158.6748,99.04785z"/>
	<path d="M165.3125,97.83887h-3.6084c0.02051,1.0791,0.62012,1.72852,1.58984,1.72852c0.53906,0,0.96875-0.13965,1.41895-0.61914
		l0.47949,0.41992c-0.5791,0.60938-1.14941,0.8291-1.90918,0.8291c-1.49902,0-2.26855-1.11914-2.26855-2.51855
		c0-1.38965,0.75977-2.56836,2.18945-2.56836c1.50879,0,2.13867,1.17871,2.13867,2.29883
		C165.34277,97.54883,165.33203,97.71875,165.3125,97.83887z M161.7041,97.25879h2.97852c0-0.01953-0.00977-0.06934-0.00977-0.16016
		c-0.0498-0.79883-0.55957-1.40918-1.46875-1.40918C162.31445,95.68945,161.76465,96.38965,161.7041,97.25879z"/>
	<path d="M170.66211,97.09863v3.01855h-0.68945v-2.84863c0-1.05859-0.33984-1.54883-1.0791-1.54883
		c-0.92969,0-1.46973,0.7998-1.46973,2.18848v2.20898h-0.68945v-4.92676h0.68945v0.71973c0.32031-0.5,0.91992-0.7998,1.62891-0.7998
		C170.1123,95.11035,170.66211,95.79004,170.66211,97.09863z"/>
	<path d="M176.20215,100.87695c0,0.92969-0.86914,1.35938-2.1084,1.35938c-1.36914,0-2.19922-0.54004-2.19922-1.51953
		c0-0.09961,0.00977-0.15918,0.02051-0.21973l0.79883-0.67969c-0.37988-0.16992-0.63965-0.44922-0.63965-0.93945
		c0-0.39941,0.17969-0.69922,0.53027-0.93945c-0.25977-0.2998-0.41992-0.67969-0.41992-1.11914c0-1,0.81934-1.70898,1.87891-1.70898
		c0.47949,0,0.90918,0.14941,1.22949,0.39941l0.67969-0.58984l0.35938,0.4502l-0.66992,0.55957
		c0.16992,0.26953,0.27051,0.58008,0.27051,0.92969c0,1.00977-0.81934,1.67871-1.85938,1.67871
		c-0.37988,0-0.72949-0.08984-1.01953-0.25c-0.19922,0.11035-0.31934,0.29004-0.31934,0.5c0,0.5,0.61914,0.62012,1.3291,0.72949
		C175.04297,99.66797,176.20215,99.80762,176.20215,100.87695z M175.5127,100.93652c0-0.59961-0.7793-0.68945-1.59961-0.81934
		c-0.21973-0.0293-0.44922-0.06934-0.65918-0.12012l-0.66992,0.65039c-0.00977,0.0498-0.00977,0.06934-0.00977,0.08984
		c0,0.69922,0.70996,0.91895,1.54883,0.91895C174.99316,101.65625,175.5127,101.41699,175.5127,100.93652z M172.86426,96.83887
		c0,0.63965,0.45996,1.12988,1.19922,1.12988s1.17969-0.47949,1.17969-1.12988c0-0.67969-0.45996-1.14941-1.16992-1.14941
		C173.37402,95.68945,172.86426,96.15918,172.86426,96.83887z"/>
	<path d="M179.62305,100.06738c-0.25977,0.08008-0.51953,0.12988-0.74902,0.12988c-0.66016,0-1.13965-0.37012-1.13965-1.23926
		v-3.18848h-0.81934v-0.5791h0.81934v-1.37988l0.68945-0.51953v1.89941h1.18945v0.5791h-1.18945v3.09863
		c0,0.47949,0.21973,0.69922,0.60938,0.69922c0.16992,0,0.36035-0.04004,0.58008-0.10938L179.62305,100.06738z"/>
	<path d="M184.8623,97.09863v3.01855h-0.68945v-2.84863c0-1.06934-0.33984-1.54883-1.0791-1.54883
		c-0.93945,0-1.46973,0.76953-1.46973,2.12891v2.26855h-0.68945v-6.96582h0.68945v2.75879
		c0.32031-0.5,0.91992-0.7998,1.62891-0.7998C184.3125,95.11035,184.8623,95.79004,184.8623,97.09863z"/>
	<path d="M189.23438,93.15137h0.7998v1.01953h-0.7998V93.15137z M189.29395,95.19043h0.69043v4.92676h-0.69043V95.19043z"/>
	<path d="M195.73145,97.09863v3.01855h-0.68945v-2.84863c0-1.05859-0.33984-1.54883-1.0791-1.54883
		c-0.92969,0-1.46875,0.7998-1.46875,2.18848v2.20898h-0.69043v-4.92676h0.69043v0.71973c0.31934-0.5,0.91895-0.7998,1.62891-0.7998
		C195.18262,95.11035,195.73145,95.79004,195.73145,97.09863z"/>
	<path d="M204.09082,97.09863v3.01855h-0.68945v-2.84863c0-1.05859-0.33984-1.54883-1.0791-1.54883
		c-0.92969,0-1.46875,0.7998-1.46875,2.18848v2.20898h-0.69043v-4.92676h0.69043v0.71973c0.31934-0.5,0.91895-0.7998,1.62891-0.7998
		C203.54199,95.11035,204.09082,95.79004,204.09082,97.09863z"/>
	<path d="M209.50195,95.19043v4.92676h-0.69043V99.4082c-0.34961,0.5293-0.97949,0.78906-1.62891,0.78906
		c-1.11914,0-1.6084-0.76953-1.6084-1.98926v-3.01758h0.68945v2.84863c0,0.79883,0.13965,1.54883,1.0791,1.54883
		c0.97949,0,1.46875-0.84961,1.46875-2.12891v-2.26855H209.50195z"/>
	<path d="M218.08008,97.03906v3.07812h-0.68945v-2.8877c0-0.41992,0-1.50977-1.08008-1.50977
		c-0.99902,0-1.26855,0.91992-1.26855,2.0293v2.36816h-0.69043v-2.84863c0-0.81934-0.25-1.54883-1.10938-1.54883
		c-0.95898,0-1.22852,0.90918-1.22852,2.0293v2.36816h-0.69043l-0.00977-4.92676h0.66992v0.59961
		c0.30957-0.49023,0.80957-0.67969,1.35938-0.67969c0.68945,0,1.19922,0.2998,1.44922,0.94922
		c0.31934-0.62988,0.86914-0.94922,1.61914-0.94922C217.58984,95.11035,218.08008,95.88965,218.08008,97.03906z"/>
	<path d="M224.29102,97.64844c0,1.46973-0.75,2.54883-2.18848,2.54883c-0.71973,0-1.26953-0.2793-1.62988-0.73926v0.65918h-0.68945
		v-6.96582h0.68945v2.69824c0.37012-0.47949,0.92969-0.74902,1.62988-0.74902
		C223.47168,95.10059,224.29102,96.10938,224.29102,97.64844z M223.60156,97.64844c0-1.16895-0.59961-1.93848-1.59961-1.93848
		c-0.98926,0-1.58887,0.76953-1.58887,1.93848c0,1.12012,0.5498,1.93945,1.58887,1.93945
		C223.05176,99.58789,223.60156,98.76855,223.60156,97.64844z"/>
	<path d="M229.62207,97.83887h-3.6084c0.02051,1.0791,0.62012,1.72852,1.58887,1.72852c0.54004,0,0.96973-0.13965,1.41992-0.61914
		l0.47949,0.41992c-0.58008,0.60938-1.14941,0.8291-1.90918,0.8291c-1.49902,0-2.26855-1.11914-2.26855-2.51855
		c0-1.38965,0.75977-2.56836,2.18848-2.56836c1.50977,0,2.13867,1.17871,2.13867,2.29883
		C229.65137,97.54883,229.6416,97.71875,229.62207,97.83887z M226.01367,97.25879h2.97852
		c0-0.01953-0.00977-0.06934-0.00977-0.16016c-0.0498-0.79883-0.55957-1.40918-1.46973-1.40918
		C226.62305,95.68945,226.07422,96.38965,226.01367,97.25879z"/>
	<path d="M234.04199,95.32031l-0.33984,0.55957c-0.23047-0.09961-0.44043-0.15039-0.65039-0.15039
		c-0.75879,0-1.31934,0.57031-1.31934,1.63965v2.74805h-0.68945v-4.92676h0.68945v0.73926
		c0.36035-0.64941,0.95996-0.81934,1.45996-0.81934C233.49219,95.11035,233.77148,95.16992,234.04199,95.32031z"/>
	<path d="M155.86523,109.64844c0-1.45898,0.94922-2.53809,2.3584-2.53809c1.39941,0,2.36914,1.0791,2.36914,2.53809
		c0,1.44922-0.95996,2.54883-2.36914,2.54883S155.86523,111.1084,155.86523,109.64844z M159.90332,109.64844
		c0-1.11914-0.62988-1.92871-1.67969-1.92871c-1.05957,0-1.66895,0.81934-1.66895,1.92871
		c0,1.12012,0.62012,1.93945,1.66895,1.93945C159.2832,111.58789,159.90332,110.74805,159.90332,109.64844z"/>
	<path d="M162.28516,107.76953h-1.04004v-0.5791h1.0498v-0.75977c0-1.0498,0.60938-1.35938,1.23926-1.35938
		c0.26953,0,0.56934,0.05957,0.87988,0.18945l-0.24023,0.5498c-0.20996-0.09961-0.39941-0.15918-0.56934-0.15918
		c-0.39062,0-0.62988,0.26953-0.62988,0.72949v0.80957h1.41895v0.5791h-1.41895v4.34766h-0.68945V107.76953z"/>
	<path d="M167.79492,109.66895c0-1.2998,0.72949-2.55859,2.21875-2.55859c0.87988,0,1.60938,0.43945,1.99902,1.35938
		l-0.66016,0.25977c-0.22949-0.62988-0.71875-1.00977-1.33887-1.00977c-1.0498,0-1.51953,0.93945-1.51953,1.94922
		s0.46973,1.91895,1.5293,1.91895c0.62012,0,1.10938-0.37012,1.2998-1l0.63965,0.24023
		c-0.33008,0.89941-1.0498,1.36914-1.93945,1.36914C168.59473,112.19727,167.79492,111.03809,167.79492,109.66895z"/>
	<path d="M177.21289,109.09863v3.01855h-0.68945v-2.84863c0-1.06934-0.33984-1.54883-1.08008-1.54883
		c-0.93945,0-1.46875,0.76953-1.46875,2.12891v2.26855h-0.68945v-6.96582h0.68945v2.75879
		c0.31934-0.5,0.91895-0.7998,1.62891-0.7998C176.66309,107.11035,177.21289,107.79004,177.21289,109.09863z"/>
	<path d="M182.58301,109.04883v3.06836h-0.62988l-0.04004-0.75977c-0.38965,0.5498-0.98926,0.83984-1.76953,0.83984
		c-1.06934,0-1.69824-0.55957-1.69824-1.50879c0-0.5,0.19922-0.87988,0.55957-1.09961
		c0.37988-0.21973,0.90918-0.30957,1.87891-0.30957h1.00879v-0.23047c0-0.85938-0.44922-1.3291-1.2793-1.3291
		c-0.61914,0-1.09863,0.26953-1.49902,0.81934l-0.49902-0.41895c0.5293-0.69043,1.16895-1.00977,2.00879-1.00977
		C181.86328,107.11035,182.58301,107.81934,182.58301,109.04883z M181.89258,109.9082v-0.06934h-0.94922
		c-0.90918,0-1.29883,0.05957-1.53906,0.25c-0.17969,0.13965-0.26953,0.35938-0.26953,0.63965
		c0,0.5498,0.46973,0.89941,1.20898,0.89941C181.29297,111.62793,181.89258,110.95801,181.89258,109.9082z"/>
	<path d="M187.2627,107.32031l-0.33984,0.55957c-0.22949-0.09961-0.43945-0.15039-0.64941-0.15039
		c-0.75977,0-1.31934,0.57031-1.31934,1.63965v2.74805h-0.68945v-4.92676h0.68945v0.73926
		c0.35938-0.64941,0.95996-0.81934,1.45898-0.81934C186.71289,107.11035,186.99316,107.16992,187.2627,107.32031z"/>
	<path d="M191.95215,109.04883v3.06836h-0.62891l-0.04004-0.75977c-0.39062,0.5498-0.99023,0.83984-1.76953,0.83984
		c-1.06934,0-1.69922-0.55957-1.69922-1.50879c0-0.5,0.2002-0.87988,0.55957-1.09961
		c0.37988-0.21973,0.91016-0.30957,1.87988-0.30957h1.00879v-0.23047c0-0.85938-0.44922-1.3291-1.2793-1.3291
		c-0.61914,0-1.09961,0.26953-1.49902,0.81934l-0.5-0.41895c0.53027-0.69043,1.16992-1.00977,2.00879-1.00977
		C191.23242,107.11035,191.95215,107.81934,191.95215,109.04883z M191.2627,109.9082v-0.06934h-0.94922
		c-0.90918,0-1.2998,0.05957-1.53906,0.25c-0.17969,0.13965-0.27051,0.35938-0.27051,0.63965
		c0,0.5498,0.4707,0.89941,1.20996,0.89941C190.66309,111.62793,191.2627,110.95801,191.2627,109.9082z"/>
	<path d="M193.22461,109.66895c0-1.2998,0.72949-2.55859,2.21875-2.55859c0.87891,0,1.6084,0.43945,1.99902,1.35938
		l-0.66016,0.25977c-0.22949-0.62988-0.71973-1.00977-1.33887-1.00977c-1.0498,0-1.51953,0.93945-1.51953,1.94922
		s0.46973,1.91895,1.5293,1.91895c0.62012,0,1.10938-0.37012,1.29883-1l0.63965,0.24023
		c-0.3291,0.89941-1.04883,1.36914-1.93848,1.36914C194.02344,112.19727,193.22461,111.03809,193.22461,109.66895z"/>
	<path d="M200.7627,112.06738c-0.25977,0.08008-0.51953,0.12988-0.74902,0.12988c-0.66016,0-1.13965-0.37012-1.13965-1.23926
		v-3.18848h-0.81934v-0.5791h0.81934v-1.37988l0.68945-0.51953v1.89941h1.18945v0.5791h-1.18945v3.09863
		c0,0.47949,0.21973,0.69922,0.61035,0.69922c0.16992,0,0.35938-0.04004,0.5791-0.10938L200.7627,112.06738z"/>
	<path d="M205.92188,109.83887h-3.6084c0.02051,1.0791,0.62012,1.72852,1.58887,1.72852c0.54004,0,0.96973-0.13965,1.41992-0.61914
		l0.47949,0.41992c-0.58008,0.60938-1.14941,0.8291-1.90918,0.8291c-1.49902,0-2.26855-1.11914-2.26855-2.51855
		c0-1.38965,0.75977-2.56836,2.18848-2.56836c1.50977,0,2.13867,1.17871,2.13867,2.29883
		C205.95117,109.54883,205.94141,109.71875,205.92188,109.83887z M202.31348,109.25879h2.97852
		c0-0.01953-0.00977-0.06934-0.00977-0.16016c-0.0498-0.79883-0.55957-1.40918-1.46973-1.40918
		C202.92285,107.68945,202.37402,108.38965,202.31348,109.25879z"/>
	<path d="M210.34277,107.32031l-0.33984,0.55957c-0.23047-0.09961-0.44043-0.15039-0.65039-0.15039
		c-0.75879,0-1.31934,0.57031-1.31934,1.63965v2.74805h-0.68945v-4.92676h0.68945v0.73926
		c0.36035-0.64941,0.95996-0.81934,1.45996-0.81934C209.79297,107.11035,210.07227,107.16992,210.34277,107.32031z"/>
	<path d="M210.53418,110.9082l0.5791-0.25977c0.18066,0.50977,0.66016,0.93945,1.42969,0.93945
		c0.66992,0,1.09961-0.33008,1.09961-0.84961c0-1.30957-2.83887-0.49023-2.83887-2.23926c0-0.85938,0.7002-1.38867,1.68945-1.38867
		c0.78906,0,1.42871,0.33008,1.76855,1.0293l-0.5498,0.2998c-0.23926-0.43945-0.62891-0.71973-1.23926-0.71973
		c-0.60938,0-0.99902,0.25-0.99902,0.67969c0,1.16895,2.84863,0.42969,2.84863,2.29883c0,0.99902-0.81934,1.49902-1.76953,1.49902
		C211.58398,112.19727,210.79395,111.69727,210.53418,110.9082z"/>
</g>
</svg>
