<svg xmlns="http://www.w3.org/2000/svg" width="291.458" height="121.176" viewBox="0 0 291.458 121.176">
  <g id="Raggruppa_7813" data-name="Raggruppa 7813" transform="translate(57.459 -250)">
    <g id="grid" transform="translate(-0.079)">
      <line id="Linea_642" data-name="Linea 642" x2="158.554" transform="translate(35.735 256.12)" fill="none" stroke="#989494" stroke-miterlimit="10" stroke-width="0.5" stroke-dasharray="2 2"/>
      <line id="Linea_643" data-name="Linea 643" x2="158.554" transform="translate(35.735 272.376)" fill="none" stroke="#989494" stroke-miterlimit="10" stroke-width="0.5" stroke-dasharray="2 2"/>
      <line id="Linea_644" data-name="Linea 644" x2="158.554" transform="translate(35.735 288.633)" fill="none" stroke="#989494" stroke-miterlimit="10" stroke-width="0.5" stroke-dasharray="2 2"/>
    </g>
    <g id="Raggruppa_1540" data-name="Raggruppa 1540" transform="translate(17)">
      <g id="Raggruppa_1522" data-name="Raggruppa 1522">
        <circle id="Ellisse_20322" data-name="Ellisse 20322" cx="4.162" cy="4.162" r="4.162" transform="translate(45.489 251.97)" fill="#989898"/>
        <rect id="Rettangolo_13437" data-name="Rettangolo 13437" width="40" height="9" rx="3" transform="translate(38.999 252)" fill="#888"/>
        <rect id="Rettangolo_13438" data-name="Rettangolo 13438" width="57" height="9" rx="3" transform="translate(78.999 268)" fill="#c6cacf"/>
        <rect id="Rettangolo_13439" data-name="Rettangolo 13439" width="42" height="9" rx="3" transform="translate(134.999 284)" fill="#888"/>
      </g>
    </g>
    <g id="Group" transform="translate(10.422 12)">
      <path id="Path" d="M183.116,321.327l-137.878.167" fill="none" stroke="#444" stroke-width="0.5"/>
      <rect id="Rectangle" width="0.835" height="2.757" transform="translate(182.945 319.993) rotate(-0.172)" fill="#444"/>
      <rect id="Rectangle-2" width="0.835" height="2.757" transform="translate(45.067 320.159) rotate(-0.178)" fill="#444"/>
    </g>
    <g id="Group-3" transform="translate(193.636 256.12)">
      <path id="Path-4" d="M193.636,331.99V256.12" transform="translate(-193.636 -256.12)" fill="none" stroke="#ccc" stroke-width="0.5" stroke-dasharray="2 2"/>
    </g>
    <g id="Group-4" transform="translate(55.489 256.132)">
      <path id="Path-7" d="M45.489,331.468V256.132" transform="translate(-45.489 -256.132)" fill="none" stroke="#ccc" stroke-width="0.5" stroke-dasharray="2 2"/>
    </g>
    <line id="Linea_668" data-name="Linea 668" y2="13.995" transform="translate(90.985 256.575)" fill="none" stroke="#444" stroke-width="0.5"/>
    <line id="Linea_669" data-name="Linea 669" y2="14.239" transform="translate(126.96 272.798)" fill="none" stroke="#444" stroke-width="0.5"/>
    <line id="Linea_670" data-name="Linea 670" y2="10.23" transform="translate(183.499 288.731)" fill="none" stroke="#444" stroke-width="0.5"/>
    <g id="Raggruppa_1542" data-name="Raggruppa 1542" transform="translate(17)">
      <text id="fine" transform="translate(184.674 326.396)" font-size="10" font-family="HKGrotesk-Regular, HK Grotesk"><tspan x="0" y="10">fine</tspan></text>
      <text id="inizio" transform="translate(1.976 326.396)" font-size="10" font-family="HKGrotesk-Regular, HK Grotesk"><tspan x="5.799" y="10">inizio</tspan></text>
      <text id="Livelli:_luoghi_contenuti_in_altri_luoghi" data-name="Livelli: luoghi contenuti in altri luoghi" transform="translate(-74.459 252)" font-size="10" font-family="HKGrotesk-Regular, HK Grotesk"><tspan x="0" y="10">Livelli: luoghi </tspan><tspan x="0" y="23">contenuti in altri </tspan><tspan x="0" y="36">luoghi</tspan></text>
      <text id="Città" transform="translate(53.682 284.165) rotate(-45)" font-size="10" font-family="HKGrotesk-Italic, HK Grotesk" font-style="italic"><tspan x="0" y="10">Città</tspan></text>
      <text id="Lunghezza_del_testo_in_numeri_di_caratteri" data-name="Lunghezza del testo in numeri di caratteri" transform="translate(37 343.177)" font-size="10" font-family="HKGrotesk-Regular, HK Grotesk"><tspan x="0" y="10">Lunghezza del testo in numeri di </tspan><tspan x="0" y="23">caratteri</tspan></text>
      <text id="_0" data-name="0" transform="translate(8.965 250)" font-size="10" font-family="HKGrotesk-Regular, HK Grotesk"><tspan x="1.027" y="10">0</tspan></text>
      <text id="_1" data-name="1" transform="translate(8.965 267.023)" font-size="10" font-family="HKGrotesk-Regular, HK Grotesk"><tspan x="1.027" y="10">1</tspan></text>
      <text id="_2" data-name="2" transform="translate(8.965 282.077)" font-size="10" font-family="HKGrotesk-Regular, HK Grotesk"><tspan x="1.027" y="10">2</tspan></text>
      <text id="Caserma" transform="translate(75.341 315.025) rotate(-45)" font-size="10" font-family="HKGrotesk-Italic, HK Grotesk" font-style="italic"><tspan x="0" y="10">Caserma</tspan></text>
      <text id="Stanza" transform="translate(140.943 319.364) rotate(-45)" font-size="10" font-family="HKGrotesk-Italic, HK Grotesk" font-style="italic"><tspan x="0" y="10">Stanza</tspan></text>
    </g>
    <g id="Ellisse_20450" data-name="Ellisse 20450" transform="translate(88.999 254)" stroke="#fff" stroke-width="0.5">
      <circle cx="2" cy="2" r="2" stroke="none"/>
      <circle cx="2" cy="2" r="1.75" fill="none"/>
    </g>
    <g id="Ellisse_20451" data-name="Ellisse 20451" transform="translate(124.999 270)" stroke="#fff" stroke-width="0.5">
      <circle cx="2" cy="2" r="2" stroke="none"/>
      <circle cx="2" cy="2" r="1.75" fill="none"/>
    </g>
    <g id="Ellisse_20452" data-name="Ellisse 20452" transform="translate(180.999 286)" stroke="#fff" stroke-width="0.5">
      <circle cx="2" cy="2" r="2" stroke="none"/>
      <circle cx="2" cy="2" r="1.75" fill="none"/>
    </g>
  </g>
</svg>
