<?xml version="1.0" encoding="utf-8"?>
<!-- Generator: Adobe Illustrator 25.0.0, SVG Export Plug-In . SVG Version: 6.00 Build 0)  -->
<svg version="1.1" id="Livello_1" xmlns="http://www.w3.org/2000/svg" xmlns:xlink="http://www.w3.org/1999/xlink" x="0px" y="0px"
	 viewBox="0 0 300 92.4" enable-background="new 0 0 300 92.4" xml:space="preserve">
<g id="Group-4_2_" transform="translate(0.249 0)">
	<path id="Path-7_2_" fill="none" stroke="#CCCCCC" stroke-width="0.5" stroke-dasharray="2,2" d="M180.2,33.2V12.6"/>
</g>
<g id="Group-4_1_" transform="translate(0.249 0)">
	<path id="Path-7_1_" fill="none" stroke="#CCCCCC" stroke-width="0.5" stroke-dasharray="2,2" d="M0.6,33.4V12.8"/>
</g>
<g id="Group-4" transform="translate(0.249 0)">
	<path id="Path-7" fill="none" stroke="#CCCCCC" stroke-width="0.5" stroke-dasharray="2,2" d="M80.1,33.1V12.5"/>
</g>
<path id="Path" fill="none" stroke="#444444" stroke-width="0.5695" d="M80.3,33.2L0.6,33.3"/>
<polygon id="Rectangle" fill="#444444" points="79.7,31.5 81.1,31.5 81.1,34.8 79.7,34.8 "/>
<rect id="Rectangle-2" x="0.4" y="31.7002" transform="matrix(1 -0.00311 0.00311 1 -0.1036 0.00296)" fill="#444444" width="1" height="3.30002"/>
<path id="Path-2" fill="none" stroke="#444444" stroke-width="0.4602" d="M180.89999,33.1l-99.8,0.1"/>
<g id="Raggruppa_4798" transform="translate(3298 -8.277)">
	<line id="Linea_1459" fill="none" stroke="#000000" stroke-width="0.5973" x1="-3042.5" y1="55.7" x2="-3003.80005" y2="55.7"/>
	<g id="Raggruppa_4797" transform="translate(187.583 561.695) rotate(-169)">
		<path id="Tracciato_109126" d="M3264.10059-121.70013l-0.30005,0.6l3.19995,1.6l-2,3.1l0.6001,0.40001l2.30005-3.80001
			L3264.10059-121.70013z"/>
	</g>
</g>
<g id="Raggruppa_4802" transform="translate(3698.98 1079.695) rotate(180)">
	
		<line id="Linea_1459-2" fill="none" stroke="#000000" stroke-width="0.5973" x1="3408.19995" y1="1068.59998" x2="3446.8999" y2="1068.59998"/>
	<g id="Raggruppa_4797-2" transform="translate(187.583 561.695) rotate(-169)">
		<path id="Tracciato_109126-2" d="M-3261.30054,114.80013l-0.3999,0.6l3.19995,1.6l-1.8999,3.10001l0.6001,0.4l2.30005-3.80001
			L-3261.30054,114.80013z"/>
	</g>
</g>
<rect id="Rectangle-2_1_" x="179.90086" y="31.40016" transform="matrix(1 -0.00311 0.00311 1 -0.1018 0.56059)" fill="#444444" width="1" height="3.30002"/>
<g id="Livello_1_1_" display="none">
	
		<image display="inline" overflow="visible" opacity="0.56" enable-background="new    " width="422" height="130" xlink:href="../materiale/4new.gif"  transform="matrix(1 0 0 1 -60.9999 -18.7915)">
	</image>
</g>
<rect x="8.8" y="39.5" fill="none" width="97.5" height="13.4"/>
<g enable-background="new    ">
	<path d="M14.85498,39.50586v6.96582h-0.7793l-3.42822-5.75684v5.75684H9.9375v-6.96582h0.77002l3.43799,5.72656v-5.72656H14.85498z
		"/>
	<path d="M16.47803,44.00293c0-1.45898,0.94922-2.53809,2.3584-2.53809c1.39941,0,2.36865,1.0791,2.36865,2.53809
		c0,1.44922-0.95947,2.54883-2.36865,2.54883S16.47803,45.46191,16.47803,44.00293z M20.51562,44.00293
		c0-1.11914-0.62988-1.92871-1.6792-1.92871c-1.05957,0-1.66895,0.81934-1.66895,1.92871c0,1.11914,0.61963,1.93945,1.66895,1.93945
		C19.896,45.94238,20.51562,45.10254,20.51562,44.00293z"/>
	<path d="M32.19385,39.50586v6.96582h-0.71973v-6.0166L29.2251,45.8916h-0.69922l-2.25879-5.45703v6.03711h-0.70996v-6.96582
		h1.03955l2.27881,5.55664l2.27881-5.55664H32.19385z"/>
	<path d="M33.81787,44.00293c0-1.45898,0.94922-2.53809,2.3584-2.53809c1.39941,0,2.36865,1.0791,2.36865,2.53809
		c0,1.44922-0.95947,2.54883-2.36865,2.54883S33.81787,45.46191,33.81787,44.00293z M37.85547,44.00293
		c0-1.11914-0.62988-1.92871-1.6792-1.92871c-1.05957,0-1.66895,0.81934-1.66895,1.92871c0,1.11914,0.61963,1.93945,1.66895,1.93945
		C37.23584,45.94238,37.85547,45.10254,37.85547,44.00293z"/>
	<path d="M39.07764,41.54395h0.75l1.54883,4.04785l1.55908-4.04785h0.75977l-2.01904,4.92773h-0.58936L39.07764,41.54395z"/>
	<path d="M48.55518,44.19336h-3.60791c0.02002,1.0791,0.61963,1.72852,1.58936,1.72852c0.53955,0,0.96924-0.13965,1.41895-0.61914
		l0.47998,0.41895c-0.57959,0.61035-1.14941,0.83008-1.90918,0.83008c-1.49902,0-2.26855-1.11914-2.26855-2.51855
		c0-1.38965,0.75977-2.56836,2.18896-2.56836c1.50879,0,2.13867,1.17871,2.13867,2.29785
		C48.58545,43.90332,48.5752,44.07324,48.55518,44.19336z M44.94727,43.61328h2.97852c0-0.02051-0.01025-0.07031-0.01025-0.16016
		c-0.0498-0.7998-0.55957-1.40918-1.46875-1.40918C45.55713,42.04395,45.00732,42.74414,44.94727,43.61328z"/>
	<path d="M56.73389,43.39355v3.07812h-0.68994v-2.88867c0-0.41992,0-1.50879-1.0791-1.50879
		c-0.99951,0-1.26953,0.91895-1.26953,2.02832v2.36914h-0.68945v-2.84863c0-0.81934-0.25-1.54883-1.10938-1.54883
		c-0.95947,0-1.22949,0.90918-1.22949,2.02832v2.36914h-0.68945l-0.01025-4.92773h0.66992v0.60059
		c0.30957-0.49023,0.80957-0.67969,1.35889-0.67969c0.68994,0,1.19971,0.2998,1.44922,0.94922
		c0.31982-0.62988,0.86963-0.94922,1.61914-0.94922C56.24414,41.46484,56.73389,42.24414,56.73389,43.39355z"/>
	<path d="M62.33496,44.19336h-3.60791c0.02002,1.0791,0.61963,1.72852,1.58936,1.72852c0.53955,0,0.96924-0.13965,1.41895-0.61914
		l0.47998,0.41895c-0.57959,0.61035-1.14941,0.83008-1.90918,0.83008c-1.49902,0-2.26855-1.11914-2.26855-2.51855
		c0-1.38965,0.75977-2.56836,2.18896-2.56836c1.50879,0,2.13867,1.17871,2.13867,2.29785
		C62.36523,43.90332,62.35498,44.07324,62.33496,44.19336z M58.72705,43.61328h2.97852c0-0.02051-0.01025-0.07031-0.01025-0.16016
		c-0.0498-0.7998-0.55957-1.40918-1.46875-1.40918C59.33691,42.04395,58.78711,42.74414,58.72705,43.61328z"/>
	<path d="M67.68506,43.45312v3.01855h-0.68945v-2.84863c0-1.05957-0.33984-1.54883-1.07959-1.54883
		c-0.92969,0-1.46924,0.7998-1.46924,2.18848v2.20898h-0.68945v-4.92773h0.68945v0.71973
		c0.31982-0.49902,0.91943-0.79883,1.62891-0.79883C67.13525,41.46484,67.68506,42.14453,67.68506,43.45312z"/>
	<path d="M71.43604,46.42188c-0.25977,0.08008-0.52002,0.12988-0.74951,0.12988c-0.65967,0-1.13965-0.37012-1.13965-1.23926
		v-3.18848h-0.81934v-0.58008h0.81934v-1.37891l0.68994-0.51953v1.89844h1.18896v0.58008h-1.18896v3.09863
		c0,0.47949,0.21973,0.69922,0.60938,0.69922c0.16992,0,0.35986-0.04004,0.57959-0.10938L71.43604,46.42188z"/>
</g>
<rect x="108.5" y="39.5" fill="none" width="97.5" height="13.4"/>
<g enable-background="new    ">
	<path d="M116.24707,39.50586v6.96582h-0.71973v-6.0166l-2.24902,5.43652h-0.69922l-2.25879-5.45703v6.03711h-0.70996v-6.96582
		h1.03955l2.27881,5.55664l2.27881-5.55664H116.24707z"/>
	<path d="M117.87061,44.00293c0-1.45898,0.94971-2.53809,2.35889-2.53809c1.39941,0,2.36865,1.0791,2.36865,2.53809
		c0,1.44922-0.95947,2.54883-2.36865,2.54883S117.87061,45.46191,117.87061,44.00293z M121.90869,44.00293
		c0-1.11914-0.62988-1.92871-1.6792-1.92871c-1.05957,0-1.66895,0.81934-1.66895,1.92871c0,1.11914,0.61963,1.93945,1.66895,1.93945
		C121.28906,45.94238,121.90869,45.10254,121.90869,44.00293z"/>
	<path d="M123.13086,41.54395h0.75l1.54883,4.04785l1.55908-4.04785h0.75977l-2.01904,4.92773h-0.58936L123.13086,41.54395z"/>
	<path d="M132.6084,44.19336h-3.60791c0.02002,1.0791,0.61963,1.72852,1.58936,1.72852c0.53955,0,0.96924-0.13965,1.41895-0.61914
		l0.47998,0.41895c-0.57959,0.61035-1.14941,0.83008-1.90918,0.83008c-1.49902,0-2.26855-1.11914-2.26855-2.51855
		c0-1.38965,0.75977-2.56836,2.18896-2.56836c1.50879,0,2.13867,1.17871,2.13867,2.29785
		C132.63867,43.90332,132.62842,44.07324,132.6084,44.19336z M129.00049,43.61328h2.97852
		c0-0.02051-0.01025-0.07031-0.01025-0.16016c-0.0498-0.7998-0.55957-1.40918-1.46875-1.40918
		C129.61035,42.04395,129.06055,42.74414,129.00049,43.61328z"/>
	<path d="M140.78711,43.39355v3.07812h-0.68994v-2.88867c0-0.41992,0-1.50879-1.0791-1.50879
		c-0.99951,0-1.26953,0.91895-1.26953,2.02832v2.36914h-0.68945v-2.84863c0-0.81934-0.25-1.54883-1.10938-1.54883
		c-0.95947,0-1.22949,0.90918-1.22949,2.02832v2.36914h-0.68945l-0.01025-4.92773h0.66992v0.60059
		C135,41.6543,135.5,41.46484,136.04932,41.46484c0.68994,0,1.19971,0.2998,1.44922,0.94922
		c0.31982-0.62988,0.86963-0.94922,1.61914-0.94922C140.29736,41.46484,140.78711,42.24414,140.78711,43.39355z"/>
	<path d="M146.38818,44.19336h-3.60791c0.02002,1.0791,0.61963,1.72852,1.58936,1.72852c0.53955,0,0.96924-0.13965,1.41895-0.61914
		l0.47998,0.41895c-0.57959,0.61035-1.14941,0.83008-1.90918,0.83008c-1.49902,0-2.26855-1.11914-2.26855-2.51855
		c0-1.38965,0.75977-2.56836,2.18896-2.56836c1.50879,0,2.13867,1.17871,2.13867,2.29785
		C146.41846,43.90332,146.4082,44.07324,146.38818,44.19336z M142.78027,43.61328h2.97852
		c0-0.02051-0.01025-0.07031-0.01025-0.16016c-0.0498-0.7998-0.55957-1.40918-1.46875-1.40918
		C143.39014,42.04395,142.84033,42.74414,142.78027,43.61328z"/>
	<path d="M151.73828,43.45312v3.01855h-0.68945v-2.84863c0-1.05957-0.33984-1.54883-1.07959-1.54883
		c-0.92969,0-1.46924,0.7998-1.46924,2.18848v2.20898h-0.68945v-4.92773H148.5v0.71973
		c0.31982-0.49902,0.91943-0.79883,1.62891-0.79883C151.18848,41.46484,151.73828,42.14453,151.73828,43.45312z"/>
	<path d="M155.48926,46.42188c-0.25977,0.08008-0.52051,0.12988-0.75,0.12988c-0.65918,0-1.13965-0.37012-1.13965-1.23926v-3.18848
		h-0.81934v-0.58008h0.81934v-1.37891l0.68945-0.51953v1.89844h1.18945v0.58008h-1.18945v3.09863
		c0,0.47949,0.2207,0.69922,0.61035,0.69922c0.16992,0,0.35938-0.04004,0.5791-0.10938L155.48926,46.42188z"/>
</g>
<g enable-background="new    ">
	<path d="M253.38184,53.87305h2.13965c1.30859,0,2.07812,0.63965,2.07812,1.73828c0,0.71973-0.3291,1.26953-0.91895,1.51953
		c0.8291,0.20996,1.2793,0.8291,1.2793,1.75879c0,1.25-0.7998,1.94922-2.22852,1.94922h-2.34961V53.87305z M255.66113,56.91113
		c0.76953,0,1.22949-0.4502,1.22949-1.17969c0-0.75977-0.5-1.19922-1.36914-1.19922h-1.42969v2.37891H255.66113z
		 M255.68066,60.17969c1,0,1.55957-0.48047,1.55957-1.34961c0-0.81934-0.5-1.2998-1.36914-1.2998h-1.7793v2.64941H255.68066z"/>
	<path d="M263.10059,57.77051v3.06836h-0.62988l-0.04004-0.75977c-0.38965,0.5498-0.98926,0.83984-1.76953,0.83984
		c-1.06934,0-1.69824-0.55957-1.69824-1.50977c0-0.49902,0.19922-0.87891,0.55957-1.09863
		C259.90234,58.09082,260.43164,58,261.40137,58h1.00879v-0.22949c0-0.85938-0.44922-1.3291-1.2793-1.3291
		c-0.61914,0-1.09863,0.26953-1.49902,0.81934l-0.49902-0.41992c0.5293-0.68945,1.16895-1.00879,2.00879-1.00879
		C262.38086,55.83203,263.10059,56.54102,263.10059,57.77051z M262.41016,58.62988v-0.06934h-0.94922
		c-0.90918,0-1.29883,0.05957-1.53906,0.24902c-0.17969,0.14062-0.26953,0.36035-0.26953,0.63965
		c0,0.5498,0.46973,0.90039,1.20898,0.90039C261.81055,60.34961,262.41016,59.67969,262.41016,58.62988z"/>
	<path d="M264.37207,58.39062c0-1.2998,0.73047-2.55859,2.21973-2.55859c0.87891,0,1.6084,0.43945,1.99805,1.3584l-0.65918,0.26074
		c-0.22949-0.62988-0.71973-1.00977-1.33887-1.00977c-1.0498,0-1.51953,0.93945-1.51953,1.94922
		c0,1.00879,0.46973,1.91895,1.5293,1.91895c0.61914,0,1.10938-0.37012,1.29883-1l0.63965,0.24023
		c-0.33008,0.89941-1.04883,1.36914-1.93848,1.36914C265.17188,60.91895,264.37207,59.75977,264.37207,58.39062z"/>
	<path d="M269.8623,53.87305h0.68945v4.64746l2.45898-2.60938h0.92969l-1.78906,1.84961l2.06836,3.07812h-0.81934l-1.71875-2.64844
		l-1.12988,1.19922v1.44922h-0.68945V53.87305z"/>
	<path d="M274.68262,55.91113h0.73926l1.05957,3.88867l1.29883-3.88867h0.62988l1.28906,3.88867l1.07031-3.88867h0.72949
		l-1.43945,4.92773h-0.64941l-1.30957-3.97754l-1.3291,3.97754h-0.63965L274.68262,55.91113z"/>
	<path d="M286.32031,57.77051v3.06836h-0.62988l-0.04004-0.75977c-0.38965,0.5498-0.98926,0.83984-1.76855,0.83984
		c-1.06934,0-1.69922-0.55957-1.69922-1.50977c0-0.49902,0.2002-0.87891,0.55957-1.09863
		C283.12207,58.09082,283.65234,58,284.62109,58h1.00977v-0.22949c0-0.85938-0.4502-1.3291-1.2793-1.3291
		c-0.62012,0-1.09961,0.26953-1.49902,0.81934l-0.5-0.41992c0.5293-0.68945,1.16895-1.00879,2.00879-1.00879
		C285.60059,55.83203,286.32031,56.54102,286.32031,57.77051z M285.63086,58.62988v-0.06934h-0.94922
		c-0.91016,0-1.2998,0.05957-1.53906,0.24902c-0.18066,0.14062-0.27051,0.36035-0.27051,0.63965
		c0,0.5498,0.46973,0.90039,1.20996,0.90039C285.03125,60.34961,285.63086,59.67969,285.63086,58.62988z"/>
	<path d="M291,56.04199l-0.33984,0.55957c-0.22949-0.10059-0.43945-0.15039-0.64941-0.15039
		c-0.75977,0-1.31934,0.56934-1.31934,1.63965v2.74805h-0.68945v-4.92773h0.68945v0.74023
		c0.36035-0.64941,0.95996-0.81934,1.45898-0.81934C290.45117,55.83203,290.73047,55.8916,291,56.04199z"/>
	<path d="M295.68945,53.87305v6.96582H295v-0.65918c-0.35938,0.45898-0.90918,0.73926-1.62891,0.73926
		c-1.43945,0-2.18945-1.0791-2.18945-2.54883c0-1.53906,0.82031-2.54883,2.18945-2.54883c0.69922,0,1.25879,0.27051,1.62891,0.75
		v-2.69824H295.68945z M295.05957,58.37012c0-1.16895-0.59961-1.93848-1.58887-1.93848c-0.99902,0-1.59863,0.76953-1.59863,1.93848
		c0,1.11914,0.5498,1.93945,1.59863,1.93945C294.50977,60.30957,295.05957,59.48926,295.05957,58.37012z"/>
</g>
<g enable-background="new    ">
	<path d="M253.38184,16.83398h4.72754v0.65918h-4.01758v2.42871h3.51855v0.66016h-3.51855v3.21777h-0.70996V16.83398z"/>
	<path d="M258.65332,21.33105c0-1.45898,0.94922-2.53809,2.3584-2.53809c1.39941,0,2.36816,1.0791,2.36816,2.53809
		c0,1.44922-0.95898,2.54883-2.36816,2.54883S258.65332,22.79004,258.65332,21.33105z M262.69043,21.33105
		c0-1.11914-0.62988-1.92871-1.67871-1.92871c-1.05957,0-1.66895,0.81934-1.66895,1.92871
		c0,1.11914,0.61914,1.93945,1.66895,1.93945C262.07129,23.27051,262.69043,22.43066,262.69043,21.33105z"/>
	<path d="M267.77051,19.00293l-0.33984,0.55957c-0.22949-0.10059-0.43945-0.15039-0.64941-0.15039
		c-0.75977,0-1.31934,0.56934-1.31934,1.63965v2.74805h-0.68945v-4.92773h0.68945v0.74023
		c0.36035-0.64941,0.95996-0.81934,1.45898-0.81934C267.22168,18.79297,267.50098,18.85254,267.77051,19.00293z"/>
	<path d="M268.2627,18.87207h0.73926l1.05957,3.88867l1.29883-3.88867h0.62988l1.28906,3.88867l1.07031-3.88867h0.72949
		l-1.43945,4.92773h-0.64941l-1.30957-3.97754l-1.3291,3.97754h-0.63965L268.2627,18.87207z"/>
	<path d="M279.90039,20.73145v3.06836h-0.62988l-0.04004-0.75977c-0.38965,0.5498-0.98926,0.83984-1.76855,0.83984
		c-1.06934,0-1.69922-0.55957-1.69922-1.50977c0-0.49902,0.2002-0.87891,0.55957-1.09863
		c0.37988-0.21973,0.91016-0.31055,1.87891-0.31055h1.00977v-0.22949c0-0.85938-0.4502-1.3291-1.2793-1.3291
		c-0.62012,0-1.09961,0.26953-1.49902,0.81934l-0.5-0.41992c0.5293-0.68945,1.16895-1.00879,2.00879-1.00879
		C279.18066,18.79297,279.90039,19.50195,279.90039,20.73145z M279.21094,21.59082v-0.06934h-0.94922
		c-0.91016,0-1.2998,0.05957-1.53906,0.24902c-0.18066,0.14062-0.27051,0.36035-0.27051,0.63965
		c0,0.5498,0.46973,0.90039,1.20996,0.90039C278.61133,23.31055,279.21094,22.64062,279.21094,21.59082z"/>
	<path d="M284.58008,19.00293l-0.33984,0.55957c-0.22949-0.10059-0.43945-0.15039-0.64941-0.15039
		c-0.75977,0-1.31934,0.56934-1.31934,1.63965v2.74805h-0.68945v-4.92773h0.68945v0.74023
		c0.36035-0.64941,0.95996-0.81934,1.45898-0.81934C284.03125,18.79297,284.31055,18.85254,284.58008,19.00293z"/>
	<path d="M289.26953,16.83398v6.96582h-0.68945v-0.65918c-0.35938,0.45898-0.90918,0.73926-1.62891,0.73926
		c-1.43945,0-2.18945-1.0791-2.18945-2.54883c0-1.53906,0.82031-2.54883,2.18945-2.54883c0.69922,0,1.25879,0.27051,1.62891,0.75
		v-2.69824H289.26953z M288.63965,21.33105c0-1.16895-0.59961-1.93848-1.58887-1.93848c-0.99902,0-1.59863,0.76953-1.59863,1.93848
		c0,1.11914,0.5498,1.93945,1.59863,1.93945C288.08984,23.27051,288.63965,22.4502,288.63965,21.33105z"/>
</g>
</svg>
