<?xml version="1.0" encoding="utf-8"?>
<!-- Generator: Adobe Illustrator 25.0.0, SVG Export Plug-In . SVG Version: 6.00 Build 0)  -->
<svg version="1.1" id="Livello_1" xmlns="http://www.w3.org/2000/svg" xmlns:xlink="http://www.w3.org/1999/xlink" x="0px" y="0px"
	 viewBox="0 0 300 90.9" enable-background="new 0 0 300 90.9" xml:space="preserve">
<line id="Linea_666" fill="none" stroke="#444444" stroke-width="0.5895" stroke-dasharray="2.4925,2.4925" x1="75.3" y1="7.1" x2="34.4" y2="7.4"/>
<line id="Linea_645" fill="none" stroke="#777777" stroke-width="2" stroke-linecap="round" x1="90.1" y1="13.2" x2="63.5" y2="76.3"/>
<line id="Linea_646" fill="none" stroke="#777777" stroke-width="2" stroke-linecap="round" x1="99.2" y1="18.8" x2="54.4" y2="70.6"/>
<line id="Linea_647" fill="none" stroke="#777777" stroke-width="2" stroke-linecap="round" x1="106.1" y1="27" x2="47.5" y2="62.5"/>
<line id="Linea_648" fill="none" stroke="#777777" stroke-width="2" stroke-linecap="round" x1="110.1" y1="36.9" x2="43.4" y2="52.5"/>
<line id="Linea_649" fill="none" stroke="#777777" stroke-width="2" stroke-linecap="round" x1="110.9" y1="47.6" x2="42.6" y2="41.8"/>
<line id="Linea_650" fill="none" stroke="#777777" stroke-width="2" stroke-linecap="round" x1="108.3" y1="58" x2="45.2" y2="31.4"/>
<line id="Linea_651" fill="none" stroke="#777777" stroke-width="2" stroke-linecap="round" x1="102.7" y1="67.1" x2="50.9" y2="22.3"/>
<line id="Linea_652" fill="none" stroke="#777777" stroke-width="2" stroke-linecap="round" x1="94.5" y1="74" x2="59" y2="15.4"/>
<line id="Linea_653" fill="none" stroke="#777777" stroke-width="2" stroke-linecap="round" x1="84.5" y1="78.1" x2="69" y2="11.4"/>
<line id="Linea_654" fill="none" stroke="#777777" stroke-width="2" stroke-linecap="round" x1="73.9" y1="78.9" x2="76.8" y2="44.7"/>
<line id="Linea_655" fill="none" stroke="#777777" stroke-width="2" stroke-linecap="round" x1="84.5" y1="11.4" x2="68.5" y2="78"/>
<line id="Linea_656" fill="none" stroke="#777777" stroke-width="2" stroke-linecap="round" x1="94.5" y1="15.5" x2="58.7" y2="73.9"/>
<line id="Linea_657" fill="none" stroke="#777777" stroke-width="2" stroke-linecap="round" x1="102.7" y1="22.5" x2="50.6" y2="67"/>
<line id="Linea_658" fill="none" stroke="#777777" stroke-width="2" stroke-linecap="round" x1="108.3" y1="31.6" x2="45" y2="57.8"/>
<line id="Linea_659" fill="none" stroke="#777777" stroke-width="2" stroke-linecap="round" x1="110.8" y1="42.1" x2="42.5" y2="47.4"/>
<line id="Linea_660" fill="none" stroke="#777777" stroke-width="2" stroke-linecap="round" x1="109.9" y1="52.7" x2="43.3" y2="36.7"/>
<line id="Linea_661" fill="none" stroke="#777777" stroke-width="2" stroke-linecap="round" x1="105.8" y1="62.6" x2="47.4" y2="26.8"/>
<line id="Linea_662" fill="none" stroke="#777777" stroke-width="2" stroke-linecap="round" x1="98.9" y1="70.8" x2="54.4" y2="18.7"/>
<line id="Linea_663" fill="none" stroke="#777777" stroke-width="2" stroke-linecap="round" x1="89.7" y1="76.4" x2="63.5" y2="13.1"/>
<line id="Linea_664" fill="none" stroke="#777777" stroke-width="2" stroke-linecap="round" x1="79.3" y1="78.9" x2="76.5" y2="44.7"/>
<line id="Linea_665" fill="none" stroke="#444444" stroke-width="3" x1="76.8" y1="44.5" x2="76.8" y2="0.4"/>
<ellipse id="Ellisse_20399" fill="#FFFFFF" cx="76.8" cy="44.5" rx="20.5" ry="20.5"/>
<line id="Linea_667" fill="none" stroke="#444444" stroke-width="0.25" stroke-dasharray="2.114,2.114" x1="75.3" y1="23.7" x2="63.5" y2="23.7"/>
<linearGradient id="Tracciato_109340_1_" gradientUnits="userSpaceOnUse" x1="-3116.7373" y1="26.62802" x2="-3116.7373" y2="27.62794" gradientTransform="matrix(37.938 0 0 74.2064 118299.72656 -1967.26953)">
	<stop  offset="0" style="stop-color:#FFFFFF;stop-opacity:0"/>
	<stop  offset="0" style="stop-color:#FFFFFF"/>
	<stop  offset="0.764" style="stop-color:#FFFFFF;stop-opacity:0.965"/>
	<stop  offset="1" style="stop-color:#FFFFFF;stop-opacity:0"/>
</linearGradient>
<path id="Tracciato_109340" fill="url(#Tracciato_109340_1_)" d="M75.9,82.9C55,82.9,38,66.2,38,45.8C38,25.3,54.6,8.7,75.1,8.7
	c0.1,0,0.2,0,0.3,0v15.5l0.5,3.2c-10.1-0.2-18.5,7.8-18.8,18s7.8,18.5,18,18.8c0.3,0,0.5,0,0.8,0C75.9,64.2,75.9,82.9,75.9,82.9z"/>
<path id="Tracciato_147338" fill="none" stroke="#000000" stroke-width="0.4991" stroke-dasharray="1.9965,1.9965" d="M74.3,22.5
	c-16.2,0-15.4,22.7-26.8,22.5"/>
<path id="Tracciato_109125" fill="none" stroke="#000000" stroke-width="0.5" stroke-miterlimit="10" d="M96.5,6.8
	c3.3,1.3,6.3,3.1,9,5.3c7.5,6.1,11.6,14.3,11.5,21.4"/>
<path id="Tracciato_109126" d="M119.8,31l-0.5-0.5l-2.4,2.4l-2.2-2.6l-0.5,0.4l2.7,3.2L119.8,31z"/>
<path id="Rettangolo_16527" fill="#888888" d="M156.89999,54.9h40c1.7,0,3,1.3,3,3v3c0,1.7-1.3,3-3,3h-40c-1.7,0-3-1.3-3-3v-3
	C153.89999,56.2,155.2,54.9,156.89999,54.9z"/>
<path id="Rettangolo_16528" fill="#C6CACF" d="M196.89999,54.9h56c1.7,0,3,1.3,3,3v3c0,1.7-1.3,3-3,3h-56c-1.7,0-3-1.3-3-3v-3
	C193.89999,56.2,195.2,54.9,196.89999,54.9z"/>
<path id="Rettangolo_16529" fill="#888888" d="M252.89999,54.9h36c1.70001,0,3,1.3,3,3v3c0,1.7-1.29999,3-3,3h-36c-1.7,0-3-1.3-3-3
	v-3C249.89999,56.2,251.2,54.9,252.89999,54.9z"/>
<line id="Linea_2516" fill="none" stroke="#000000" stroke-width="0.5" x1="224.89999" y1="61.5" x2="224.89999" y2="77.4"/>
<path id="Tracciato_124417" fill="none" stroke="#000000" stroke-width="0.5" d="M188.89999,59.9c0,11.5,36,8.3,35.89999,14.3"/>
<path id="Tracciato_147339" fill="none" stroke="#000000" stroke-width="0.5" d="M280.89999,59.9c0,11.5-56.10001,8.3-56,14.3"/>
<circle cx="224.89999" cy="59.9" r="2"/>
<circle fill="none" stroke="#FFFFFF" stroke-width="0.5" cx="224.89999" cy="59.9" r="1.8"/>
<circle cx="280.89999" cy="59.9" r="2"/>
<circle fill="none" stroke="#FFFFFF" stroke-width="0.5" cx="280.89999" cy="59.9" r="1.79999"/>
<circle cx="188.89999" cy="59.9" r="2"/>
<circle fill="none" stroke="#FFFFFF" stroke-width="0.5" cx="188.89999" cy="59.9" r="1.8"/>
<path id="Tracciato_109125-2" fill="none" stroke="#000000" stroke-width="0.5345" stroke-miterlimit="10" stroke-dasharray="2.138" d="
	M149.2,58.3c-3.5-0.1-36.8,0.8-36.8,0.4"/>
<path id="Tracciato_109126-2" d="M147.00946,55.21656l-0.5,0.5l2.7,2.6l-2.89999,2.1l0.5,0.5l3.39999-2.6L147.00946,55.21656z"/>
<g>
	<path d="M127.14844,7.89307h-2.4082V7.2334h5.54688v0.65967h-2.41895v6.30664h-0.71973V7.89307z"/>
	<path d="M134.47754,11.9209h-3.6084c0.02051,1.07959,0.62012,1.729,1.58887,1.729c0.54004,0,0.96973-0.13965,1.41992-0.61963
		l0.47949,0.41992c-0.58008,0.60938-1.14941,0.82959-1.90918,0.82959c-1.49902,0-2.26855-1.11963-2.26855-2.51855
		c0-1.38965,0.75977-2.56885,2.18848-2.56885c1.50977,0,2.13867,1.1792,2.13867,2.29883
		C134.50684,11.63135,134.49707,11.80078,134.47754,11.9209z M130.86914,11.34131h2.97852
		c0-0.02002-0.00977-0.06982-0.00977-0.16016c-0.0498-0.79932-0.55957-1.40918-1.46973-1.40918
		C131.47852,9.77197,130.92969,10.47168,130.86914,11.34131z"/>
	<path d="M137.04883,11.73096L135.25,9.27246h0.83984l1.41895,1.979l1.40918-1.979h0.83984l-1.79883,2.4585l1.80859,2.46875
		h-0.84961l-1.40918-1.99902l-1.40918,1.99902H135.25L137.04883,11.73096z"/>
	<path d="M143.02832,14.1499c-0.25977,0.07959-0.51953,0.12988-0.74902,0.12988c-0.66016,0-1.13965-0.37012-1.13965-1.23926V9.85205
		h-0.81934V9.27246h0.81934V7.89307l0.68945-0.51953v1.89893h1.18945v0.57959h-1.18945v3.09814
		c0,0.47998,0.21973,0.69971,0.61035,0.69971c0.16992,0,0.35938-0.04004,0.5791-0.10986L143.02832,14.1499z"/>
	<path d="M143.86035,12.99023l0.5791-0.25977c0.18066,0.50977,0.66016,0.93945,1.42969,0.93945
		c0.66992,0,1.09961-0.32959,1.09961-0.84961c0-1.30908-2.83887-0.48975-2.83887-2.23877c0-0.85938,0.7002-1.38916,1.68945-1.38916
		c0.78906,0,1.42871,0.33008,1.76855,1.0293l-0.5498,0.2998c-0.23926-0.43945-0.62891-0.71924-1.23926-0.71924
		c-0.60938,0-0.99902,0.24951-0.99902,0.67969c0,1.16895,2.84863,0.42969,2.84863,2.29834
		c0,0.99951-0.81934,1.49951-1.76953,1.49951C144.91016,14.27979,144.12012,13.77979,143.86035,12.99023z"/>
	<path d="M151.34961,11.73096c0-1.45898,0.9502-2.53857,2.35938-2.53857c1.39844,0,2.36816,1.07959,2.36816,2.53857
		c0,1.44922-0.95898,2.54883-2.36816,2.54883S151.34961,13.19043,151.34961,11.73096z M155.3877,11.73096
		c0-1.11914-0.62988-1.92871-1.67871-1.92871c-1.05957,0-1.66992,0.81934-1.66992,1.92871
		c0,1.11963,0.62012,1.93896,1.66992,1.93896C154.76758,13.66992,155.3877,12.83057,155.3877,11.73096z"/>
	<path d="M157.76855,9.85205h-1.03906V9.27246h1.0498V8.5127c0-1.04932,0.60938-1.35889,1.23926-1.35889
		c0.26953,0,0.56934,0.05957,0.87891,0.18945l-0.23926,0.5498c-0.20996-0.09961-0.40039-0.15967-0.57031-0.15967
		c-0.38965,0-0.62891,0.26953-0.62891,0.72949v0.80957h1.41895v0.57959h-1.41895v4.34766h-0.69043V9.85205z"/>
	<path d="M167.61621,11.18115v3.01855h-0.68945v-2.84863c0-1.05908-0.33984-1.54883-1.0791-1.54883
		c-0.92969,0-1.46875,0.79932-1.46875,2.18848v2.20898h-0.69043V9.27246h0.69043v0.71973c0.31934-0.5,0.91895-0.7998,1.62891-0.7998
		C167.06738,9.19238,167.61621,9.87207,167.61621,11.18115z"/>
	<path d="M168.88867,11.73096c0-1.45898,0.9502-2.53857,2.35938-2.53857c1.39844,0,2.36816,1.07959,2.36816,2.53857
		c0,1.44922-0.95898,2.54883-2.36816,2.54883S168.88867,13.19043,168.88867,11.73096z M172.92676,11.73096
		c0-1.11914-0.62988-1.92871-1.67871-1.92871c-1.05957,0-1.66992,0.81934-1.66992,1.92871
		c0,1.11963,0.62012,1.93896,1.66992,1.93896C172.30664,13.66992,172.92676,12.83057,172.92676,11.73096z"/>
	<path d="M178.00781,9.40234l-0.33984,0.55957c-0.23047-0.09961-0.44043-0.1499-0.65039-0.1499
		c-0.75879,0-1.31836,0.56982-1.31836,1.63916v2.74854h-0.69043V9.27246h0.69043v0.73975
		c0.35938-0.6499,0.95898-0.81982,1.45898-0.81982C177.45801,9.19238,177.7373,9.25244,178.00781,9.40234z"/>
	<path d="M185.78516,11.12158v3.07812h-0.68945v-2.88818c0-0.41992,0-1.50928-1.08008-1.50928
		c-0.99902,0-1.26855,0.91943-1.26855,2.02881v2.36865h-0.69043v-2.84863c0-0.81934-0.25-1.54883-1.10938-1.54883
		c-0.95898,0-1.22852,0.90918-1.22852,2.02881v2.36865h-0.69043l-0.00977-4.92725h0.66992v0.59961
		c0.30957-0.48975,0.80957-0.67969,1.35938-0.67969c0.68945,0,1.19922,0.2998,1.44922,0.94971
		c0.31934-0.62988,0.86914-0.94971,1.61914-0.94971C185.29492,9.19238,185.78516,9.97217,185.78516,11.12158z"/>
	<path d="M191.15625,11.13135v3.06836h-0.62891l-0.04004-0.75977c-0.38965,0.5498-0.99023,0.83984-1.76953,0.83984
		c-1.06934,0-1.69922-0.56006-1.69922-1.50928c0-0.49951,0.2002-0.87939,0.55957-1.09961
		c0.37988-0.21973,0.91016-0.30957,1.87891-0.30957h1.00977v-0.22998c0-0.85938-0.44922-1.3291-1.2793-1.3291
		c-0.61914,0-1.09961,0.26953-1.49902,0.81934l-0.5-0.41943c0.53027-0.68994,1.16992-1.00977,2.00879-1.00977
		C190.43652,9.19238,191.15625,9.90186,191.15625,11.13135z M190.4668,11.99072V11.9209h-0.94922
		c-0.90918,0-1.2998,0.06006-1.53906,0.25c-0.17969,0.13965-0.27051,0.35986-0.27051,0.63965
		c0,0.5498,0.46973,0.89941,1.20996,0.89941C189.86719,13.70996,190.4668,13.04053,190.4668,11.99072z"/>
	<path d="M192.79785,13.13037V7.2334h0.69043v5.85693c0,0.33984,0.11914,0.55957,0.44922,0.55957
		c0.15039,0,0.32031-0.04004,0.46973-0.08984l0.00977,0.58984c-0.20996,0.06982-0.45898,0.12988-0.67969,0.12988
		C193.16797,14.27979,192.79785,13.8999,192.79785,13.13037z"/>
	<path d="M195.47852,7.2334h0.7998v1.01953h-0.7998V7.2334z M195.53809,9.27246h0.69043v4.92725h-0.69043V9.27246z"/>
	<path d="M201.60645,9.82227l-3.20801,3.7876h3.1875v0.58984h-4.09766V13.7002l3.27832-3.83789h-3.1084V9.27246h3.94824V9.82227z"/>
	<path d="M206.81641,11.9209h-3.6084c0.02051,1.07959,0.62012,1.729,1.58887,1.729c0.54004,0,0.96973-0.13965,1.41992-0.61963
		l0.47949,0.41992c-0.58008,0.60938-1.14941,0.82959-1.90918,0.82959c-1.49902,0-2.26855-1.11963-2.26855-2.51855
		c0-1.38965,0.75977-2.56885,2.18848-2.56885c1.50977,0,2.13867,1.1792,2.13867,2.29883
		C206.8457,11.63135,206.83594,11.80078,206.81641,11.9209z M203.20801,11.34131h2.97852c0-0.02002-0.00977-0.06982-0.00977-0.16016
		c-0.0498-0.79932-0.55957-1.40918-1.46973-1.40918C203.81738,9.77197,203.26855,10.47168,203.20801,11.34131z"/>
	<path d="M212.35645,7.2334v6.96631h-0.68945v-0.65967c-0.36035,0.45996-0.91016,0.73975-1.62891,0.73975
		c-1.43945,0-2.18945-1.07959-2.18945-2.54883c0-1.53906,0.81934-2.54834,2.18945-2.54834
		c0.69922,0,1.25879,0.26953,1.62891,0.74951V7.2334H212.35645z M211.72656,11.73096c0-1.16943-0.59961-1.93896-1.58887-1.93896
		c-1,0-1.59961,0.76953-1.59961,1.93896c0,1.11963,0.5498,1.93896,1.59961,1.93896
		C211.17676,13.66992,211.72656,12.85059,211.72656,11.73096z"/>
	<path d="M216.86816,13.13037V7.2334h0.69043v5.85693c0,0.33984,0.11914,0.55957,0.44922,0.55957
		c0.15039,0,0.32031-0.04004,0.46973-0.08984l0.00977,0.58984c-0.20996,0.06982-0.45898,0.12988-0.67969,0.12988
		C217.23828,14.27979,216.86816,13.8999,216.86816,13.13037z"/>
	<path d="M223.50586,11.9209h-3.6084c0.02051,1.07959,0.62012,1.729,1.58887,1.729c0.54004,0,0.96973-0.13965,1.41992-0.61963
		l0.47949,0.41992c-0.58008,0.60938-1.14941,0.82959-1.90918,0.82959c-1.49902,0-2.26855-1.11963-2.26855-2.51855
		c0-1.38965,0.75977-2.56885,2.18848-2.56885c1.50977,0,2.13867,1.1792,2.13867,2.29883
		C223.53516,11.63135,223.52539,11.80078,223.50586,11.9209z M219.89746,11.34131h2.97852
		c0-0.02002-0.00977-0.06982-0.00977-0.16016c-0.0498-0.79932-0.55957-1.40918-1.46973-1.40918
		C220.50684,9.77197,219.95801,10.47168,219.89746,11.34131z"/>
	<path d="M228.85547,11.18115v3.01855h-0.68945v-2.84863c0-1.05908-0.33984-1.54883-1.0791-1.54883
		c-0.92969,0-1.46973,0.79932-1.46973,2.18848v2.20898h-0.68945V9.27246h0.68945v0.71973c0.32031-0.5,0.91992-0.7998,1.62988-0.7998
		C228.30664,9.19238,228.85547,9.87207,228.85547,11.18115z"/>
	<path d="M234.39551,14.95947c0,0.9292-0.86914,1.35889-2.1084,1.35889c-1.36914,0-2.19922-0.53906-2.19922-1.51904
		c0-0.1001,0.01074-0.15967,0.02051-0.21973l0.7998-0.67969c-0.37988-0.16992-0.63965-0.44971-0.63965-0.93945
		c0-0.3999,0.17969-0.69971,0.5293-0.93945c-0.25977-0.2998-0.41992-0.67969-0.41992-1.11963
		c0-0.99951,0.81934-1.70898,1.87891-1.70898c0.47949,0,0.90918,0.1499,1.22949,0.3999l0.67969-0.58984l0.35938,0.44971
		l-0.66895,0.56006c0.16992,0.26953,0.26953,0.57959,0.26953,0.9292c0,1.00977-0.81934,1.6792-1.85938,1.6792
		c-0.37988,0-0.72949-0.08984-1.01855-0.25c-0.2002,0.10986-0.32031,0.29004-0.32031,0.5c0,0.49951,0.62012,0.61963,1.3291,0.72949
		C233.23633,13.75,234.39551,13.88965,234.39551,14.95947z M233.70605,15.01904c0-0.59961-0.7793-0.68945-1.59863-0.81934
		c-0.2207-0.02979-0.4502-0.06982-0.66016-0.12012l-0.66992,0.6499c-0.00977,0.0498-0.00977,0.06982-0.00977,0.08984
		c0,0.69971,0.70996,0.91943,1.5498,0.91943C233.18652,15.73877,233.70605,15.49902,233.70605,15.01904z M231.05762,10.92139
		c0,0.63965,0.45996,1.12939,1.19922,1.12939c0.74023,0,1.17969-0.47949,1.17969-1.12939c0-0.67969-0.45996-1.14941-1.16992-1.14941
		C231.56738,9.77197,231.05762,10.2417,231.05762,10.92139z"/>
	<path d="M237.81641,14.1499c-0.25977,0.07959-0.51953,0.12988-0.74902,0.12988c-0.66016,0-1.13965-0.37012-1.13965-1.23926V9.85205
		h-0.81934V9.27246h0.81934V7.89307l0.68945-0.51953v1.89893h1.18945v0.57959h-1.18945v3.09814
		c0,0.47998,0.21973,0.69971,0.61035,0.69971c0.16992,0,0.35938-0.04004,0.5791-0.10986L237.81641,14.1499z"/>
	<path d="M243.05566,11.18115v3.01855h-0.68945v-2.84863c0-1.06934-0.33984-1.54883-1.0791-1.54883
		c-0.93945,0-1.46875,0.76953-1.46875,2.12891v2.26855h-0.69043V7.2334h0.69043v2.75879c0.31934-0.5,0.91895-0.7998,1.62891-0.7998
		C242.50684,9.19238,243.05566,9.87207,243.05566,11.18115z"/>
	<path d="M251.15527,11.13135v3.06836h-0.62891l-0.04004-0.75977c-0.39062,0.5498-0.99023,0.83984-1.76953,0.83984
		c-1.06934,0-1.69922-0.56006-1.69922-1.50928c0-0.49951,0.2002-0.87939,0.55957-1.09961
		c0.37988-0.21973,0.91016-0.30957,1.87988-0.30957h1.00879v-0.22998c0-0.85938-0.44922-1.3291-1.2793-1.3291
		c-0.61914,0-1.09961,0.26953-1.49902,0.81934l-0.5-0.41943c0.53027-0.68994,1.16992-1.00977,2.00879-1.00977
		C250.43555,9.19238,251.15527,9.90186,251.15527,11.13135z M250.46582,11.99072V11.9209h-0.94922
		c-0.90918,0-1.2998,0.06006-1.53906,0.25c-0.17969,0.13965-0.27051,0.35986-0.27051,0.63965
		c0,0.5498,0.4707,0.89941,1.20996,0.89941C249.86621,13.70996,250.46582,13.04053,250.46582,11.99072z"/>
	<path d="M255.83594,9.40234l-0.33984,0.55957c-0.23047-0.09961-0.44043-0.1499-0.65039-0.1499
		c-0.75879,0-1.31836,0.56982-1.31836,1.63916v2.74854h-0.69043V9.27246h0.69043v0.73975
		c0.35938-0.6499,0.95898-0.81982,1.45898-0.81982C255.28613,9.19238,255.56543,9.25244,255.83594,9.40234z"/>
	<path d="M259.85645,9.40234l-0.33984,0.55957c-0.23047-0.09961-0.44043-0.1499-0.65039-0.1499
		c-0.75879,0-1.31934,0.56982-1.31934,1.63916v2.74854h-0.68945V9.27246h0.68945v0.73975
		c0.36035-0.6499,0.95996-0.81982,1.45996-0.81982C259.30664,9.19238,259.58594,9.25244,259.85645,9.40234z"/>
	<path d="M264.54492,11.13135v3.06836h-0.62891l-0.04004-0.75977c-0.38965,0.5498-0.99023,0.83984-1.76953,0.83984
		c-1.06934,0-1.69922-0.56006-1.69922-1.50928c0-0.49951,0.2002-0.87939,0.55957-1.09961
		c0.37988-0.21973,0.91016-0.30957,1.87891-0.30957h1.00977v-0.22998c0-0.85938-0.44922-1.3291-1.2793-1.3291
		c-0.61914,0-1.09961,0.26953-1.49902,0.81934l-0.5-0.41943c0.53027-0.68994,1.16992-1.00977,2.00879-1.00977
		C263.8252,9.19238,264.54492,9.90186,264.54492,11.13135z M263.85547,11.99072V11.9209h-0.94922
		c-0.90918,0-1.2998,0.06006-1.53906,0.25c-0.17969,0.13965-0.27051,0.35986-0.27051,0.63965
		c0,0.5498,0.46973,0.89941,1.20996,0.89941C263.25586,13.70996,263.85547,13.04053,263.85547,11.99072z"/>
	<path d="M270.15527,11.18115v3.01855h-0.68945v-2.84863c0-1.05908-0.33984-1.54883-1.0791-1.54883
		c-0.92969,0-1.46875,0.79932-1.46875,2.18848v2.20898h-0.69043V9.27246h0.69043v0.71973c0.31934-0.5,0.91895-0.7998,1.62891-0.7998
		C269.60645,9.19238,270.15527,9.87207,270.15527,11.18115z"/>
	<path d="M275.69531,14.95947c0,0.9292-0.86914,1.35889-2.1084,1.35889c-1.36914,0-2.19922-0.53906-2.19922-1.51904
		c0-0.1001,0.01074-0.15967,0.02051-0.21973l0.7998-0.67969c-0.37988-0.16992-0.63965-0.44971-0.63965-0.93945
		c0-0.3999,0.17969-0.69971,0.5293-0.93945c-0.25977-0.2998-0.41992-0.67969-0.41992-1.11963
		c0-0.99951,0.81934-1.70898,1.87891-1.70898c0.47949,0,0.91016,0.1499,1.22949,0.3999l0.67969-0.58984l0.35938,0.44971
		l-0.66895,0.56006c0.16992,0.26953,0.26953,0.57959,0.26953,0.9292c0,1.00977-0.81934,1.6792-1.85938,1.6792
		c-0.37891,0-0.72949-0.08984-1.01953-0.25c-0.19922,0.10986-0.31934,0.29004-0.31934,0.5c0,0.49951,0.62012,0.61963,1.3291,0.72949
		C274.53613,13.75,275.69531,13.88965,275.69531,14.95947z M275.00586,15.01904c0-0.59961-0.7793-0.68945-1.59863-0.81934
		c-0.21973-0.02979-0.4502-0.06982-0.66016-0.12012l-0.66992,0.6499c-0.00977,0.0498-0.00977,0.06982-0.00977,0.08984
		c0,0.69971,0.70996,0.91943,1.5498,0.91943C274.48633,15.73877,275.00586,15.49902,275.00586,15.01904z M272.35742,10.92139
		c0,0.63965,0.45996,1.12939,1.19922,1.12939c0.74023,0,1.17969-0.47949,1.17969-1.12939c0-0.67969-0.45996-1.14941-1.16992-1.14941
		C272.86719,9.77197,272.35742,10.2417,272.35742,10.92139z"/>
	<path d="M280.76562,11.9209h-3.6084c0.02051,1.07959,0.62012,1.729,1.58887,1.729c0.54004,0,0.96973-0.13965,1.41992-0.61963
		l0.47949,0.41992c-0.58008,0.60938-1.14941,0.82959-1.90918,0.82959c-1.49902,0-2.26855-1.11963-2.26855-2.51855
		c0-1.38965,0.75977-2.56885,2.18848-2.56885c1.50977,0,2.13867,1.1792,2.13867,2.29883
		C280.79492,11.63135,280.78516,11.80078,280.76562,11.9209z M277.15723,11.34131h2.97852
		c0-0.02002-0.00977-0.06982-0.00977-0.16016c-0.0498-0.79932-0.55957-1.40918-1.46973-1.40918
		C277.7666,9.77197,277.21777,10.47168,277.15723,11.34131z"/>
	<path d="M286.30469,7.2334v6.96631h-0.68945v-0.65967c-0.36035,0.45996-0.91016,0.73975-1.62891,0.73975
		c-1.43945,0-2.18945-1.07959-2.18945-2.54883c0-1.53906,0.81934-2.54834,2.18945-2.54834
		c0.69922,0,1.25879,0.26953,1.62891,0.74951V7.2334H286.30469z M285.6748,11.73096c0-1.16943-0.59961-1.93896-1.58887-1.93896
		c-1,0-1.59961,0.76953-1.59961,1.93896c0,1.11963,0.5498,1.93896,1.59961,1.93896
		C285.125,13.66992,285.6748,12.85059,285.6748,11.73096z"/>
	<path d="M129.81738,23.73145c0,1.46973-0.75,2.54883-2.18848,2.54883c-0.71973,0-1.26953-0.28027-1.62891-0.73926v0.65918h-0.69043
		v-6.96582H126v2.69824c0.36914-0.47949,0.92871-0.75,1.62891-0.75C128.99805,21.18262,129.81738,22.19238,129.81738,23.73145z
		 M129.12793,23.73145c0-1.16895-0.59961-1.93848-1.59961-1.93848c-0.98926,0-1.58887,0.76953-1.58887,1.93848
		c0,1.11914,0.5498,1.93945,1.58887,1.93945C128.57812,25.6709,129.12793,24.85059,129.12793,23.73145z"/>
	<path d="M132.40918,26.14062l-2.08887-4.86816h0.75977l1.69922,4.05859l1.48926-4.05859h0.75977l-2.69922,6.9668h-0.73926
		L132.40918,26.14062z"/>
	<path d="M140.92871,26.15039c-0.25977,0.08008-0.51953,0.12988-0.74902,0.12988c-0.66016,0-1.13965-0.37012-1.13965-1.23926
		v-3.18848h-0.81934v-0.58008h0.81934v-1.37891l0.68945-0.51953v1.89844h1.18945v0.58008h-1.18945v3.09863
		c0,0.47949,0.21973,0.69922,0.61035,0.69922c0.16992,0,0.35938-0.04004,0.5791-0.10938L140.92871,26.15039z"/>
	<path d="M146.16699,23.18164v3.01855h-0.68945v-2.84863c0-1.06934-0.33984-1.54883-1.0791-1.54883
		c-0.93945,0-1.46875,0.76953-1.46875,2.12891v2.26855h-0.69043v-6.96582h0.69043v2.75781
		c0.31934-0.49902,0.91895-0.79883,1.62891-0.79883C145.61816,21.19336,146.16699,21.87305,146.16699,23.18164z"/>
	<path d="M151.76758,23.92188h-3.6084c0.02051,1.0791,0.62012,1.72852,1.58887,1.72852c0.54004,0,0.96973-0.13965,1.41992-0.61914
		l0.47949,0.41895c-0.58008,0.61035-1.14941,0.83008-1.90918,0.83008c-1.49902,0-2.26855-1.11914-2.26855-2.51855
		c0-1.38965,0.75977-2.56836,2.18848-2.56836c1.50977,0,2.13867,1.17871,2.13867,2.29785
		C151.79688,23.63184,151.78711,23.80176,151.76758,23.92188z M148.15918,23.3418h2.97852
		c0-0.02051-0.00977-0.07031-0.00977-0.16016c-0.0498-0.7998-0.55957-1.40918-1.46973-1.40918
		C148.76855,21.77246,148.21973,22.47266,148.15918,23.3418z"/>
	<path d="M153.12988,19.23438h0.7998v1.01953h-0.7998V19.23438z M153.18945,21.27246h0.68945v4.92773h-0.68945V21.27246z"/>
	<path d="M158.69824,21.40332l-0.33984,0.55957c-0.23047-0.10059-0.44043-0.15039-0.65039-0.15039
		c-0.75879,0-1.31934,0.56934-1.31934,1.63965v2.74805h-0.68945v-4.92773h0.68945v0.74023
		c0.36035-0.64941,0.95996-0.81934,1.45996-0.81934C158.14844,21.19336,158.42773,21.25293,158.69824,21.40332z"/>
	<path d="M165.84766,26.2002h-0.68945v-4.34766h-1.90918v4.34766h-0.68945v-4.34766h-0.84961v-0.58008h0.84961v-0.39941
		c0-1.16895,0.78906-1.71875,1.75879-1.71875c0.59961,0,1.0791,0.16016,1.5293,0.46973l-0.33008,0.47949
		c-0.3291-0.24023-0.68945-0.37988-1.16895-0.37988c-0.70996,0-1.09961,0.34961-1.09961,1.15918v0.38965h2.59863V26.2002z"/>
	<path d="M170.61816,21.40332l-0.33984,0.55957c-0.23047-0.10059-0.44043-0.15039-0.65039-0.15039
		c-0.75879,0-1.31934,0.56934-1.31934,1.63965v2.74805h-0.68945v-4.92773h0.68945v0.74023
		c0.36035-0.64941,0.95996-0.81934,1.45996-0.81934C170.06836,21.19336,170.34766,21.25293,170.61816,21.40332z"/>
	<path d="M170.80957,24.99121l0.5791-0.25977c0.18066,0.50977,0.66016,0.93945,1.42969,0.93945
		c0.66992,0,1.09961-0.33008,1.09961-0.84961c0-1.30957-2.83887-0.49023-2.83887-2.23926c0-0.85938,0.7002-1.38867,1.68945-1.38867
		c0.78906,0,1.42871,0.3291,1.76855,1.0293l-0.5498,0.2998c-0.23926-0.44043-0.62891-0.71973-1.23926-0.71973
		c-0.60938,0-0.99902,0.25-0.99902,0.67969c0,1.16895,2.84863,0.42969,2.84863,2.29883c0,0.99902-0.81934,1.49902-1.76953,1.49902
		C171.85938,26.28027,171.06934,25.78027,170.80957,24.99121z"/>
	<path d="M178.04785,26.15039c-0.25977,0.08008-0.51953,0.12988-0.74902,0.12988c-0.66016,0-1.13965-0.37012-1.13965-1.23926
		v-3.18848h-0.81934v-0.58008h0.81934v-1.37891l0.68945-0.51953v1.89844h1.18945v0.58008h-1.18945v3.09863
		c0,0.47949,0.21973,0.69922,0.61035,0.69922c0.16992,0,0.35938-0.04004,0.5791-0.10938L178.04785,26.15039z"/>
	<path d="M186.59668,23.73145c0,1.46973-0.75,2.54883-2.18848,2.54883c-0.71973,0-1.26953-0.28027-1.62891-0.73926v2.69824h-0.69043
		v-6.9668h0.69043v0.66016c0.36914-0.47949,0.92871-0.75,1.62891-0.75C185.77734,21.18262,186.59668,22.19238,186.59668,23.73145z
		 M185.90723,23.73145c0-1.16895-0.59961-1.93848-1.59961-1.93848c-0.98926,0-1.58887,0.76953-1.58887,1.93848
		c0,1.11914,0.5498,1.93945,1.58887,1.93945C185.35742,25.6709,185.90723,24.85059,185.90723,23.73145z"/>
	<path d="M191.78711,21.27246v4.92773h-0.69043v-0.70996c-0.34961,0.53027-0.97949,0.79004-1.62891,0.79004
		c-1.11914,0-1.6084-0.76953-1.6084-1.98926v-3.01855h0.68945v2.84863c0,0.7998,0.13965,1.5498,1.0791,1.5498
		c0.97949,0,1.46875-0.84961,1.46875-2.12891v-2.26953H191.78711z"/>
	<path d="M198.11621,23.73145c0,1.46973-0.75,2.54883-2.18848,2.54883c-0.71973,0-1.26953-0.28027-1.62891-0.73926v0.65918h-0.69043
		v-6.96582h0.69043v2.69824c0.36914-0.47949,0.92871-0.75,1.62891-0.75C197.29688,21.18262,198.11621,22.19238,198.11621,23.73145z
		 M197.42676,23.73145c0-1.16895-0.59961-1.93848-1.59961-1.93848c-0.98926,0-1.58887,0.76953-1.58887,1.93848
		c0,1.11914,0.5498,1.93945,1.58887,1.93945C196.87695,25.6709,197.42676,24.85059,197.42676,23.73145z"/>
	<path d="M199.50879,25.13086v-5.89648h0.69043v5.85645c0,0.33984,0.11914,0.55957,0.44922,0.55957
		c0.15039,0,0.32031-0.04004,0.46973-0.08984l0.00977,0.58984c-0.20996,0.06934-0.45898,0.12988-0.67969,0.12988
		C199.87891,26.28027,199.50879,25.90039,199.50879,25.13086z"/>
	<path d="M202.18945,19.23438h0.7998v1.01953h-0.7998V19.23438z M202.24902,21.27246h0.69043v4.92773h-0.69043V21.27246z"/>
	<path d="M204.34961,23.75195c0-1.2998,0.72949-2.55859,2.21875-2.55859c0.87891,0,1.6084,0.43945,1.99902,1.3584l-0.66016,0.26074
		c-0.22949-0.62988-0.71973-1.00977-1.33887-1.00977c-1.0498,0-1.51953,0.93945-1.51953,1.94922
		c0,1.00879,0.46973,1.91895,1.5293,1.91895c0.62012,0,1.10938-0.37012,1.29883-1l0.63965,0.24023
		c-0.3291,0.89941-1.04883,1.36914-1.93848,1.36914C205.14844,26.28027,204.34961,25.12109,204.34961,23.75195z"/>
	<path d="M213.45703,23.13184v3.06836h-0.62891l-0.04004-0.75977c-0.38965,0.5498-0.99023,0.83984-1.76953,0.83984
		c-1.06934,0-1.69922-0.55957-1.69922-1.50977c0-0.49902,0.2002-0.87891,0.55957-1.09863
		c0.37988-0.21973,0.91016-0.31055,1.87891-0.31055h1.00977v-0.22949c0-0.85938-0.44922-1.3291-1.2793-1.3291
		c-0.61914,0-1.09961,0.26953-1.49902,0.81934l-0.5-0.41992c0.53027-0.68945,1.16992-1.00879,2.00879-1.00879
		C212.7373,21.19336,213.45703,21.90234,213.45703,23.13184z M212.76758,23.99121v-0.06934h-0.94922
		c-0.90918,0-1.2998,0.05957-1.53906,0.24902c-0.17969,0.14062-0.27051,0.36035-0.27051,0.63965
		c0,0.5498,0.46973,0.90039,1.20996,0.90039C212.16797,25.71094,212.76758,25.04102,212.76758,23.99121z"/>
	<path d="M217.1875,26.15039c-0.25977,0.08008-0.51953,0.12988-0.74902,0.12988c-0.66016,0-1.13965-0.37012-1.13965-1.23926
		v-3.18848h-0.81934v-0.58008h0.81934v-1.37891l0.68945-0.51953v1.89844h1.18945v0.58008h-1.18945v3.09863
		c0,0.47949,0.21973,0.69922,0.61035,0.69922c0.16992,0,0.35938-0.04004,0.5791-0.10938L217.1875,26.15039z"/>
	<path d="M218.43848,19.23438h0.7998v1.01953h-0.7998V19.23438z M218.49805,21.27246h0.68945v4.92773h-0.68945V21.27246z"/>
	<path d="M220.5791,23.73145c0-1.45898,0.9502-2.53809,2.35938-2.53809c1.39844,0,2.36816,1.0791,2.36816,2.53809
		c0,1.44922-0.95898,2.54883-2.36816,2.54883S220.5791,25.19043,220.5791,23.73145z M224.61719,23.73145
		c0-1.11914-0.62988-1.92871-1.67871-1.92871c-1.05957,0-1.66992,0.81934-1.66992,1.92871
		c0,1.11914,0.62012,1.93945,1.66992,1.93945C223.99707,25.6709,224.61719,24.83105,224.61719,23.73145z"/>
	<path d="M230.62598,23.18164v3.01855h-0.68945v-2.84863c0-1.05957-0.33984-1.54883-1.0791-1.54883
		c-0.92969,0-1.46875,0.7998-1.46875,2.18848v2.20898h-0.69043v-4.92773h0.69043v0.71973
		c0.31934-0.49902,0.91895-0.79883,1.62891-0.79883C230.07715,21.19336,230.62598,21.87305,230.62598,23.18164z"/>
	<path d="M239.17578,19.23438v6.96582h-0.68945v-0.65918c-0.36035,0.45898-0.91016,0.73926-1.62891,0.73926
		c-1.43945,0-2.18945-1.0791-2.18945-2.54883c0-1.53906,0.81934-2.54883,2.18945-2.54883c0.69922,0,1.25879,0.27051,1.62891,0.75
		v-2.69824H239.17578z M238.5459,23.73145c0-1.16895-0.59961-1.93848-1.58887-1.93848c-1,0-1.59961,0.76953-1.59961,1.93848
		c0,1.11914,0.5498,1.93945,1.59961,1.93945C237.99609,25.6709,238.5459,24.85059,238.5459,23.73145z"/>
	<path d="M244.66602,23.13184v3.06836h-0.62891l-0.04004-0.75977c-0.38965,0.5498-0.99023,0.83984-1.76953,0.83984
		c-1.06934,0-1.69922-0.55957-1.69922-1.50977c0-0.49902,0.2002-0.87891,0.55957-1.09863
		c0.37988-0.21973,0.91016-0.31055,1.87891-0.31055h1.00977v-0.22949c0-0.85938-0.44922-1.3291-1.2793-1.3291
		c-0.61914,0-1.09961,0.26953-1.49902,0.81934l-0.5-0.41992c0.53027-0.68945,1.16992-1.00879,2.00879-1.00879
		C243.94629,21.19336,244.66602,21.90234,244.66602,23.13184z M243.97656,23.99121v-0.06934h-0.94922
		c-0.90918,0-1.2998,0.05957-1.53906,0.24902c-0.17969,0.14062-0.27051,0.36035-0.27051,0.63965
		c0,0.5498,0.46973,0.90039,1.20996,0.90039C243.37695,25.71094,243.97656,25.04102,243.97656,23.99121z"/>
	<path d="M248.39648,26.15039c-0.25977,0.08008-0.51953,0.12988-0.74902,0.12988c-0.66016,0-1.13965-0.37012-1.13965-1.23926
		v-3.18848h-0.81934v-0.58008h0.81934v-1.37891l0.68945-0.51953v1.89844h1.18945v0.58008h-1.18945v3.09863
		c0,0.47949,0.21973,0.69922,0.61035,0.69922c0.16992,0,0.35938-0.04004,0.5791-0.10938L248.39648,26.15039z"/>
	<path d="M253.55664,23.92188h-3.6084c0.02051,1.0791,0.62012,1.72852,1.58887,1.72852c0.54004,0,0.96973-0.13965,1.41992-0.61914
		l0.47949,0.41895c-0.58008,0.61035-1.14941,0.83008-1.90918,0.83008c-1.49902,0-2.26855-1.11914-2.26855-2.51855
		c0-1.38965,0.75977-2.56836,2.18848-2.56836c1.50977,0,2.13867,1.17871,2.13867,2.29785
		C253.58594,23.63184,253.57617,23.80176,253.55664,23.92188z M249.94824,23.3418h2.97852
		c0-0.02051-0.00977-0.07031-0.00977-0.16016c-0.0498-0.7998-0.55957-1.40918-1.46973-1.40918
		C250.55762,21.77246,250.00879,22.47266,249.94824,23.3418z"/>
</g>
<g>
	<path d="M117.45166,69.18945l0.70996-0.16992c0.12988,0.89941,0.80957,1.46875,1.74902,1.46875
		c1.00977,0,1.51953-0.5293,1.51953-1.21973c0-0.74902-0.42969-1.13867-1.65918-1.6084
		c-1.40918-0.53027-1.89941-1.0293-1.89941-1.93945c0-1.05957,0.7998-1.75879,1.97949-1.75879
		c0.87891,0,1.56934,0.38965,1.98828,1.12988l-0.59961,0.36914c-0.2998-0.53906-0.80957-0.85938-1.40918-0.85938
		c-0.72949,0-1.24902,0.5-1.24902,1.08984c0,0.63965,0.47949,0.97949,1.5791,1.39844
		c1.54883,0.58984,1.98926,1.14941,1.98926,2.11914c0,1.16992-0.80957,1.91895-2.24902,1.91895
		C118.61182,71.12793,117.64209,70.3584,117.45166,69.18945z"/>
	<path d="M123.50244,64.06152h0.7998v1.01953h-0.7998V64.06152z M123.56201,66.10059h0.68945v4.92773h-0.68945V66.10059z"/>
	<path d="M129.99951,68.00977v3.01855h-0.68945v-2.84863c0-1.05957-0.33984-1.54883-1.0791-1.54883
		c-0.92969,0-1.46973,0.79883-1.46973,2.18848v2.20898h-0.68945v-4.92773h0.68945v0.71973
		c0.32031-0.5,0.91992-0.7998,1.62988-0.7998C129.45068,66.02051,129.99951,66.7002,129.99951,68.00977z"/>
	<path d="M135.53955,71.78809c0,0.92871-0.86914,1.3584-2.1084,1.3584c-1.36914,0-2.19922-0.53906-2.19922-1.51855
		c0-0.10059,0.01074-0.16016,0.02051-0.21973l0.7998-0.67969c-0.37988-0.16992-0.63965-0.4502-0.63965-0.93945
		c0-0.40039,0.17969-0.7002,0.5293-0.93945c-0.25977-0.2998-0.41992-0.67969-0.41992-1.12012
		c0-0.99902,0.81934-1.70898,1.87891-1.70898c0.47949,0,0.90918,0.15039,1.22949,0.40039l0.67969-0.58984l0.35938,0.44922
		l-0.66895,0.56055c0.16992,0.26953,0.26953,0.5791,0.26953,0.92871c0,1.00977-0.81934,1.67969-1.85938,1.67969
		c-0.37988,0-0.72949-0.08984-1.01855-0.25c-0.2002,0.10938-0.32031,0.29004-0.32031,0.5c0,0.49902,0.62012,0.61914,1.3291,0.72949
		C134.38037,70.57812,135.53955,70.71777,135.53955,71.78809z M134.8501,71.84766c0-0.59961-0.7793-0.68945-1.59863-0.81934
		c-0.2207-0.03027-0.4502-0.07031-0.66016-0.12012l-0.66992,0.64941c-0.00977,0.0498-0.00977,0.07031-0.00977,0.08984
		c0,0.7002,0.70996,0.91992,1.5498,0.91992C134.33057,72.56738,134.8501,72.32715,134.8501,71.84766z M132.20166,67.75
		c0,0.63965,0.45996,1.12891,1.19922,1.12891c0.74023,0,1.17969-0.47949,1.17969-1.12891c0-0.67969-0.45996-1.14941-1.16992-1.14941
		C132.71143,66.60059,132.20166,67.07031,132.20166,67.75z"/>
	<path d="M136.87158,69.95898v-5.89746h0.69043v5.85742c0,0.33984,0.11914,0.55957,0.44922,0.55957
		c0.15039,0,0.32031-0.04004,0.46973-0.08984l0.00977,0.58984c-0.20996,0.06934-0.45898,0.12988-0.67969,0.12988
		C137.2417,71.1084,136.87158,70.72852,136.87158,69.95898z"/>
	<path d="M143.50928,68.74902h-3.6084c0.02051,1.08008,0.62012,1.72949,1.58887,1.72949c0.54004,0,0.96973-0.13965,1.41992-0.62012
		l0.47949,0.41992c-0.58008,0.60938-1.14941,0.83008-1.90918,0.83008c-1.49902,0-2.26855-1.12012-2.26855-2.51855
		c0-1.38965,0.75977-2.56934,2.18848-2.56934c1.50977,0,2.13867,1.17969,2.13867,2.29883
		C143.53857,68.45996,143.52881,68.62891,143.50928,68.74902z M139.90088,68.16992h2.97852
		c0-0.02051-0.00977-0.07031-0.00977-0.16016c-0.0498-0.7998-0.55957-1.40918-1.46973-1.40918
		C140.51025,66.60059,139.96143,67.2998,139.90088,68.16992z"/>
	<path d="M117.34229,81.81934l0.5791-0.25977c0.18066,0.50977,0.66016,0.93945,1.42969,0.93945
		c0.66992,0,1.09961-0.33008,1.09961-0.84961c0-1.30957-2.83887-0.49023-2.83887-2.23926c0-0.85938,0.7002-1.38867,1.68945-1.38867
		c0.78906,0,1.42871,0.3291,1.76855,1.0293l-0.5498,0.2998c-0.23926-0.44043-0.62891-0.71973-1.23926-0.71973
		c-0.60938,0-0.99902,0.25-0.99902,0.67969c0,1.16895,2.84863,0.42969,2.84863,2.29883c0,0.99902-0.81934,1.49902-1.76953,1.49902
		C118.39209,83.1084,117.60205,82.6084,117.34229,81.81934z"/>
	<path d="M124.58057,82.97852c-0.25977,0.08008-0.51953,0.12988-0.74902,0.12988c-0.66016,0-1.13965-0.37012-1.13965-1.23926
		v-3.18848h-0.81934v-0.58008h0.81934v-1.37891l0.68945-0.51953v1.89844h1.18945v0.58008h-1.18945v3.09863
		c0,0.47949,0.21973,0.69922,0.61035,0.69922c0.16992,0,0.35938-0.04004,0.5791-0.10938L124.58057,82.97852z"/>
	<path d="M125.41162,80.55957c0-1.45898,0.9502-2.53809,2.35938-2.53809c1.39844,0,2.36816,1.0791,2.36816,2.53809
		c0,1.44922-0.95898,2.54883-2.36816,2.54883S125.41162,82.01855,125.41162,80.55957z M129.44971,80.55957
		c0-1.11914-0.62988-1.92871-1.67871-1.92871c-1.05957,0-1.66992,0.81934-1.66992,1.92871
		c0,1.11914,0.62012,1.93945,1.66992,1.93945C128.82959,82.49902,129.44971,81.65918,129.44971,80.55957z"/>
	<path d="M134.53076,78.23145l-0.33984,0.55957c-0.23047-0.10059-0.44043-0.15039-0.65039-0.15039
		c-0.75879,0-1.31836,0.56934-1.31836,1.63965v2.74805h-0.69043v-4.92773h0.69043v0.74023
		c0.35938-0.64941,0.95898-0.81934,1.45898-0.81934C133.98096,78.02148,134.26025,78.08105,134.53076,78.23145z"/>
	<path d="M137.06104,82.96875l-2.08887-4.86816h0.75977l1.69922,4.05859l1.48926-4.05859h0.75977l-2.69922,6.9668h-0.73926
		L137.06104,82.96875z"/>
</g>
<g>
	<path d="M209.68945,84.16113l0.70996-0.16992c0.12988,0.89941,0.80957,1.46875,1.74902,1.46875
		c1.00977,0,1.51953-0.5293,1.51953-1.21973c0-0.74902-0.42969-1.13867-1.65918-1.6084
		c-1.40918-0.53027-1.89941-1.0293-1.89941-1.93945c0-1.05957,0.7998-1.75879,1.97949-1.75879
		c0.87891,0,1.56934,0.38965,1.98828,1.12988l-0.59961,0.36914c-0.2998-0.53906-0.80957-0.85938-1.40918-0.85938
		c-0.72949,0-1.24902,0.5-1.24902,1.08984c0,0.63965,0.47949,0.97949,1.5791,1.39844
		c1.54883,0.58984,1.98926,1.14941,1.98926,2.11914c0,1.16992-0.80957,1.91895-2.24902,1.91895
		C210.84961,86.09961,209.87988,85.33008,209.68945,84.16113z"/>
	<path d="M219.84766,83.7207h-3.6084c0.02051,1.08008,0.62012,1.72949,1.58887,1.72949c0.54004,0,0.96973-0.13965,1.41992-0.62012
		l0.47949,0.41992c-0.58008,0.60938-1.14941,0.83008-1.90918,0.83008c-1.49902,0-2.26855-1.12012-2.26855-2.51855
		c0-1.38965,0.75977-2.56934,2.18848-2.56934c1.50977,0,2.13867,1.17969,2.13867,2.29883
		C219.87695,83.43164,219.86719,83.60059,219.84766,83.7207z M216.23926,83.1416h2.97852c0-0.02051-0.00977-0.07031-0.00977-0.16016
		c-0.0498-0.7998-0.55957-1.40918-1.46973-1.40918C216.84863,81.57227,216.2998,82.27148,216.23926,83.1416z"/>
	<path d="M223.31836,85.9502c-0.25977,0.0791-0.51953,0.12988-0.74902,0.12988c-0.66016,0-1.13965-0.37012-1.13965-1.23926v-3.18848
		h-0.81934v-0.58008h0.81934v-1.37891l0.68945-0.51953v1.89844h1.18945v0.58008h-1.18945V84.75
		c0,0.48047,0.21973,0.7002,0.61035,0.7002c0.16992,0,0.35938-0.04004,0.5791-0.11035L223.31836,85.9502z"/>
	<path d="M226.67773,85.9502c-0.25977,0.0791-0.51953,0.12988-0.74902,0.12988c-0.66016,0-1.13965-0.37012-1.13965-1.23926v-3.18848
		h-0.81934v-0.58008h0.81934v-1.37891l0.68945-0.51953v1.89844h1.18945v0.58008h-1.18945V84.75
		c0,0.48047,0.21973,0.7002,0.61035,0.7002c0.16992,0,0.35938-0.04004,0.5791-0.11035L226.67773,85.9502z"/>
	<path d="M227.92969,79.0332h0.7998v1.01953h-0.7998V79.0332z M227.98926,81.07227h0.68945V86h-0.68945V81.07227z"/>
	<path d="M234.42676,82.98145V86h-0.68945v-2.84863c0-1.05957-0.33984-1.54883-1.0791-1.54883
		c-0.92969,0-1.46973,0.79883-1.46973,2.18848V86h-0.68945v-4.92773h0.68945v0.71973c0.32031-0.5,0.91992-0.7998,1.62988-0.7998
		C233.87793,80.99219,234.42676,81.67188,234.42676,82.98145z"/>
	<path d="M239.9668,86.75977c0,0.92871-0.86914,1.3584-2.1084,1.3584c-1.36914,0-2.19922-0.53906-2.19922-1.51855
		c0-0.10059,0.01074-0.16016,0.02051-0.21973l0.7998-0.67969c-0.37988-0.16992-0.63965-0.4502-0.63965-0.93945
		c0-0.40039,0.17969-0.7002,0.5293-0.93945c-0.25977-0.2998-0.41992-0.67969-0.41992-1.12012
		c0-0.99902,0.81934-1.70898,1.87891-1.70898c0.47949,0,0.90918,0.15039,1.22949,0.40039l0.67969-0.58984l0.35938,0.44922
		l-0.66895,0.56055c0.16992,0.26953,0.26953,0.5791,0.26953,0.92871c0,1.00977-0.81934,1.67969-1.85938,1.67969
		c-0.37988,0-0.72949-0.08984-1.01855-0.25c-0.2002,0.10938-0.32031,0.29004-0.32031,0.5c0,0.49902,0.62012,0.61914,1.3291,0.72949
		C238.80762,85.5498,239.9668,85.68945,239.9668,86.75977z M239.27734,86.81934c0-0.59961-0.7793-0.68945-1.59863-0.81934
		c-0.2207-0.03027-0.4502-0.07031-0.66016-0.12012l-0.66992,0.64941c-0.00977,0.0498-0.00977,0.07031-0.00977,0.08984
		c0,0.7002,0.70996,0.91992,1.5498,0.91992C238.75781,87.53906,239.27734,87.29883,239.27734,86.81934z M236.62891,82.72168
		c0,0.63965,0.45996,1.12891,1.19922,1.12891c0.74023,0,1.17969-0.47949,1.17969-1.12891c0-0.67969-0.45996-1.14941-1.16992-1.14941
		C237.13867,81.57227,236.62891,82.04199,236.62891,82.72168z"/>
	<path d="M240.80957,84.79004l0.58008-0.25977c0.17969,0.50977,0.65918,0.93945,1.42871,0.93945
		c0.66992,0,1.09961-0.3291,1.09961-0.84961c0-1.30859-2.83887-0.48926-2.83887-2.23828c0-0.85938,0.7002-1.38965,1.68945-1.38965
		c0.78906,0,1.42871,0.33008,1.76855,1.0293l-0.5498,0.2998c-0.23926-0.43945-0.62891-0.71875-1.23926-0.71875
		c-0.60938,0-0.99902,0.24902-0.99902,0.67969c0,1.16895,2.84863,0.42969,2.84863,2.29785c0,1-0.81934,1.5-1.76953,1.5
		C241.85938,86.08008,241.06934,85.58008,240.80957,84.79004z"/>
</g>
<g>
	<path d="M1.19189,3.00244h4.56738v0.65967h-3.8584v2.42871h3.46875v0.65967H1.90088v2.55859h3.8584v0.65967H1.19189V3.00244z"/>
	<path d="M11.20947,6.9502v3.01855h-0.68945V7.12012c0-1.05908-0.33984-1.54883-1.0791-1.54883
		c-0.92969,0-1.46875,0.79932-1.46875,2.18848v2.20898H7.28174V5.0415h0.69043v0.71973c0.31934-0.5,0.91895-0.7998,1.62891-0.7998
		C10.66064,4.96143,11.20947,5.64111,11.20947,6.9502z"/>
	<path d="M17.02979,3.00244v6.96631h-0.68945V9.30908c-0.36035,0.45996-0.91016,0.73975-1.62891,0.73975
		c-1.43945,0-2.18945-1.07959-2.18945-2.54883c0-1.53906,0.81934-2.54834,2.18945-2.54834
		c0.69922,0,1.25879,0.26953,1.62891,0.74951V3.00244H17.02979z M16.3999,7.5c0-1.16943-0.59961-1.93896-1.58887-1.93896
		c-1,0-1.59961,0.76953-1.59961,1.93896c0,1.11963,0.5498,1.93896,1.59961,1.93896C15.8501,9.43896,16.3999,8.61963,16.3999,7.5z"/>
	<path d="M21.15186,7.5c0-1.45898,0.9502-2.53857,2.35938-2.53857c1.39844,0,2.36816,1.07959,2.36816,2.53857
		c0,1.44922-0.95898,2.54883-2.36816,2.54883S21.15186,8.95947,21.15186,7.5z M25.18994,7.5
		c0-1.11914-0.62988-1.92871-1.67871-1.92871c-1.05957,0-1.66992,0.81934-1.66992,1.92871
		c0,1.11963,0.62012,1.93896,1.66992,1.93896C24.56982,9.43896,25.18994,8.59961,25.18994,7.5z"/>
	<path d="M27.5708,5.62109h-1.03906V5.0415h1.0498V4.28174c0-1.04932,0.60938-1.35889,1.23926-1.35889
		c0.26953,0,0.56934,0.05957,0.87891,0.18945l-0.23926,0.5498c-0.20996-0.09961-0.40039-0.15967-0.57031-0.15967
		c-0.38965,0-0.62891,0.26953-0.62891,0.72949V5.0415h1.41895v0.57959h-1.41895v4.34766H27.5708V5.62109z"/>
	<path d="M3.01025,21.91943c-0.25977,0.08008-0.51953,0.12988-0.74902,0.12988c-0.66016,0-1.13965-0.37012-1.13965-1.23926v-3.18848
		H0.30225V17.0415h0.81934V15.6626l0.68945-0.51953v1.89844h1.18945v0.58008H1.81104v3.09863
		c0,0.47949,0.21973,0.69922,0.61035,0.69922c0.16992,0,0.35938-0.04004,0.5791-0.10938L3.01025,21.91943z"/>
	<path d="M8.17041,19.69092h-3.6084c0.02051,1.0791,0.62012,1.72852,1.58887,1.72852c0.54004,0,0.96973-0.13965,1.41992-0.61914
		l0.47949,0.41895c-0.58008,0.61035-1.14941,0.83008-1.90918,0.83008c-1.49902,0-2.26855-1.11914-2.26855-2.51855
		c0-1.38965,0.75977-2.56836,2.18848-2.56836c1.50977,0,2.13867,1.17871,2.13867,2.29785
		C8.19971,19.40088,8.18994,19.5708,8.17041,19.69092z M4.56201,19.11084h2.97852c0-0.02051-0.00977-0.07031-0.00977-0.16016
		c-0.0498-0.7998-0.55957-1.40918-1.46973-1.40918C5.17139,17.5415,4.62256,18.2417,4.56201,19.11084z"/>
	<path d="M10.74072,19.50049L8.94189,17.0415h0.83984l1.41895,1.97949l1.40918-1.97949h0.83984l-1.79883,2.45898l1.80859,2.46875
		h-0.84961l-1.40918-1.99902L9.7915,21.96924H8.94189L10.74072,19.50049z"/>
	<path d="M16.72021,21.91943c-0.25977,0.08008-0.51953,0.12988-0.74902,0.12988c-0.66016,0-1.13965-0.37012-1.13965-1.23926
		v-3.18848h-0.81934V17.0415h0.81934V15.6626l0.68945-0.51953v1.89844h1.18945v0.58008H15.521v3.09863
		c0,0.47949,0.21973,0.69922,0.61035,0.69922c0.16992,0,0.35938-0.04004,0.5791-0.10938L16.72021,21.91943z"/>
</g>
<g>
	<path d="M1.19189,40.63379h2.13867c1.30957,0,2.0791,0.63965,2.0791,1.73926c0,0.71973-0.33008,1.26904-0.91992,1.51904
		c0.83008,0.20996,1.2793,0.82959,1.2793,1.75928c0,1.24902-0.7998,1.94922-2.22852,1.94922H1.19189V40.63379z M3.47021,43.67236
		c0.76953,0,1.22949-0.44971,1.22949-1.17969c0-0.75928-0.5-1.19922-1.36914-1.19922H1.90088v2.37891H3.47021z M3.49072,46.94043
		c0.99902,0,1.55859-0.47949,1.55859-1.34912c0-0.81982-0.5-1.29932-1.36914-1.29932h-1.7793v2.64844H3.49072z"/>
	<path d="M11.28955,45.32129h-3.6084c0.02051,1.08008,0.62012,1.72949,1.58887,1.72949c0.54004,0,0.96973-0.13965,1.41992-0.62012
		l0.47949,0.41992c-0.58008,0.60938-1.14941,0.83008-1.90918,0.83008c-1.49902,0-2.26855-1.12012-2.26855-2.51904
		c0-1.38965,0.75977-2.56885,2.18848-2.56885c1.50977,0,2.13867,1.1792,2.13867,2.29883
		C11.31885,45.03174,11.30908,45.20117,11.28955,45.32129z M7.68115,44.7417h2.97852c0-0.02002-0.00977-0.06982-0.00977-0.16016
		c-0.0498-0.79932-0.55957-1.40918-1.46973-1.40918C8.29053,43.17236,7.7417,43.87207,7.68115,44.7417z"/>
	<path d="M16.54932,48.36035c0,0.92871-0.86914,1.3584-2.1084,1.3584c-1.36914,0-2.19922-0.53906-2.19922-1.51855
		c0-0.10059,0.01074-0.16016,0.02051-0.21973l0.7998-0.67969c-0.37988-0.16992-0.63965-0.4502-0.63965-0.93945
		c0-0.40039,0.17969-0.7002,0.5293-0.93994c-0.25977-0.2998-0.41992-0.67969-0.41992-1.11963
		c0-0.99951,0.81934-1.70898,1.87891-1.70898c0.47949,0,0.90918,0.1499,1.22949,0.3999l0.67969-0.58984l0.35938,0.44971
		l-0.66895,0.56006c0.16992,0.26953,0.26953,0.57959,0.26953,0.9292c0,1.00977-0.81934,1.67969-1.85938,1.67969
		c-0.37988,0-0.72949-0.09033-1.01855-0.25049c-0.2002,0.10986-0.32031,0.29053-0.32031,0.50049
		c0,0.49902,0.62012,0.61914,1.3291,0.72949C15.39014,47.15039,16.54932,47.29004,16.54932,48.36035z M15.85986,48.41992
		c0-0.59961-0.7793-0.68945-1.59863-0.81934c-0.2207-0.03027-0.4502-0.07031-0.66016-0.12012l-0.66992,0.64941
		c-0.00977,0.0498-0.00977,0.07031-0.00977,0.08984c0,0.7002,0.70996,0.91992,1.5498,0.91992
		C15.34033,49.13965,15.85986,48.89941,15.85986,48.41992z M13.21143,44.32178c0,0.63965,0.45996,1.12939,1.19922,1.12939
		c0.74023,0,1.17969-0.47949,1.17969-1.12939c0-0.67969-0.45996-1.14941-1.16992-1.14941
		C13.72119,43.17236,13.21143,43.64209,13.21143,44.32178z"/>
	<path d="M17.86182,40.63379h0.7998v1.01953h-0.7998V40.63379z M17.92139,42.67285h0.68945v4.92773h-0.68945V42.67285z"/>
	<path d="M24.35889,44.58154v3.01904h-0.68945v-2.84912c0-1.05908-0.33984-1.54883-1.0791-1.54883
		c-0.92969,0-1.46973,0.79932-1.46973,2.18848v2.20947h-0.68945v-4.92773h0.68945v0.71973
		c0.32031-0.5,0.91992-0.7998,1.62988-0.7998C23.81006,42.59277,24.35889,43.27246,24.35889,44.58154z"/>
	<path d="M29.98877,44.58154v3.01904h-0.68945v-2.84912c0-1.05908-0.33984-1.54883-1.0791-1.54883
		c-0.92969,0-1.46875,0.79932-1.46875,2.18848v2.20947h-0.69043v-4.92773h0.69043v0.71973
		c0.31934-0.5,0.91895-0.7998,1.62891-0.7998C29.43994,42.59277,29.98877,43.27246,29.98877,44.58154z"/>
	<path d="M31.63135,40.63379h0.7998v1.01953h-0.7998V40.63379z M31.69092,42.67285h0.68945v4.92773h-0.68945V42.67285z"/>
	<path d="M38.12842,44.58154v3.01904h-0.68945v-2.84912c0-1.05908-0.33984-1.54883-1.0791-1.54883
		c-0.92969,0-1.46973,0.79932-1.46973,2.18848v2.20947h-0.68945v-4.92773h0.68945v0.71973
		c0.32031-0.5,0.91992-0.7998,1.62988-0.7998C37.57959,42.59277,38.12842,43.27246,38.12842,44.58154z"/>
	<path d="M43.66846,48.36035c0,0.92871-0.86914,1.3584-2.1084,1.3584c-1.36914,0-2.19922-0.53906-2.19922-1.51855
		c0-0.10059,0.01074-0.16016,0.02051-0.21973l0.7998-0.67969c-0.37988-0.16992-0.63965-0.4502-0.63965-0.93945
		c0-0.40039,0.17969-0.7002,0.5293-0.93994c-0.25977-0.2998-0.41992-0.67969-0.41992-1.11963
		c0-0.99951,0.81934-1.70898,1.87891-1.70898c0.47949,0,0.90918,0.1499,1.22949,0.3999l0.67969-0.58984l0.35938,0.44971
		l-0.66895,0.56006c0.16992,0.26953,0.26953,0.57959,0.26953,0.9292c0,1.00977-0.81934,1.67969-1.85938,1.67969
		c-0.37988,0-0.72949-0.09033-1.01855-0.25049c-0.2002,0.10986-0.32031,0.29053-0.32031,0.50049
		c0,0.49902,0.62012,0.61914,1.3291,0.72949C42.50928,47.15039,43.66846,47.29004,43.66846,48.36035z M42.979,48.41992
		c0-0.59961-0.7793-0.68945-1.59863-0.81934c-0.2207-0.03027-0.4502-0.07031-0.66016-0.12012l-0.66992,0.64941
		c-0.00977,0.0498-0.00977,0.07031-0.00977,0.08984c0,0.7002,0.70996,0.91992,1.5498,0.91992
		C42.45947,49.13965,42.979,48.89941,42.979,48.41992z M40.33057,44.32178c0,0.63965,0.45996,1.12939,1.19922,1.12939
		c0.74023,0,1.17969-0.47949,1.17969-1.12939c0-0.67969-0.45996-1.14941-1.16992-1.14941
		C40.84033,43.17236,40.33057,43.64209,40.33057,44.32178z"/>
	<path d="M0.53174,57.13184c0-1.45898,0.9502-2.53809,2.35938-2.53809c1.39844,0,2.36816,1.0791,2.36816,2.53809
		c0,1.44922-0.95898,2.54883-2.36816,2.54883S0.53174,58.59082,0.53174,57.13184z M4.56982,57.13184
		c0-1.11914-0.62988-1.92871-1.67871-1.92871c-1.05957,0-1.66992,0.81934-1.66992,1.92871
		c0,1.11914,0.62012,1.93945,1.66992,1.93945C3.94971,59.07129,4.56982,58.23145,4.56982,57.13184z"/>
	<path d="M6.95068,55.25293H5.91162v-0.58008h1.0498v-0.75879c0-1.0498,0.60938-1.35938,1.23926-1.35938
		c0.26953,0,0.56934,0.05957,0.87891,0.18945l-0.23926,0.5498c-0.20996-0.09961-0.40039-0.16016-0.57031-0.16016
		c-0.38965,0-0.62891,0.27051-0.62891,0.72949v0.80957h1.41895v0.58008H7.64111v4.34766H6.95068V55.25293z"/>
	<path d="M14.92041,59.55078c-0.25977,0.08008-0.51953,0.12988-0.74902,0.12988c-0.66016,0-1.13965-0.37012-1.13965-1.23926
		v-3.18848H12.2124v-0.58008h0.81934v-1.37891l0.68945-0.51953v1.89844h1.18945v0.58008h-1.18945v3.09863
		c0,0.47949,0.21973,0.69922,0.61035,0.69922c0.16992,0,0.35938-0.04004,0.5791-0.10938L14.92041,59.55078z"/>
	<path d="M20.07959,57.32227h-3.6084c0.02051,1.0791,0.62012,1.72852,1.58887,1.72852c0.54004,0,0.96973-0.13965,1.41992-0.61914
		l0.47949,0.41895c-0.58008,0.61035-1.14941,0.83008-1.90918,0.83008c-1.49902,0-2.26855-1.11914-2.26855-2.51855
		c0-1.38965,0.75977-2.56836,2.18848-2.56836c1.50977,0,2.13867,1.17871,2.13867,2.29785
		C20.10889,57.03223,20.09912,57.20215,20.07959,57.32227z M16.47119,56.74219h2.97852c0-0.02051-0.00977-0.07031-0.00977-0.16016
		c-0.0498-0.7998-0.55957-1.40918-1.46973-1.40918C17.08057,55.17285,16.53174,55.87305,16.47119,56.74219z"/>
	<path d="M22.65088,57.13184l-1.79883-2.45898h0.83984l1.41895,1.97949l1.40918-1.97949h0.83984l-1.79883,2.45898l1.80859,2.46875
		h-0.84961l-1.40918-1.99902l-1.40918,1.99902h-0.84961L22.65088,57.13184z"/>
	<path d="M28.63037,59.55078c-0.25977,0.08008-0.51953,0.12988-0.74902,0.12988c-0.66016,0-1.13965-0.37012-1.13965-1.23926
		v-3.18848h-0.81934v-0.58008h0.81934v-1.37891l0.68945-0.51953v1.89844h1.18945v0.58008h-1.18945v3.09863
		c0,0.47949,0.21973,0.69922,0.61035,0.69922c0.16992,0,0.35938-0.04004,0.5791-0.10938L28.63037,59.55078z"/>
</g>
</svg>
