<?xml version="1.0" encoding="utf-8"?>
<!-- Generator: Adobe Illustrator 24.0.3, SVG Export Plug-In . SVG Version: 6.00 Build 0)  -->
<svg version="1.1" id="Layer_1" xmlns="http://www.w3.org/2000/svg" xmlns:xlink="http://www.w3.org/1999/xlink" x="0px" y="0px"
	 viewBox="0 0 227.5 241.5" style="enable-background:new 0 0 227.5 241.5;" xml:space="preserve">
<style type="text/css">
	.st0{fill:none;}
	.st1{fill:none;stroke:black;stroke-dasharray:1,3;}
	.st2{fill:none;stroke:black;stroke-linecap:square;}
	.st3{fill:none;stroke:black;}
	.st4{fill:#FFFFFF;stroke:black;stroke-miterlimit:10;}
	.st5{fill:none;stroke:black;stroke-miterlimit:10;}
	.st6{fill:none;stroke:black;stroke-linecap:round;stroke-miterlimit:10;}
	.st7{fill:none;stroke:black;stroke-linecap:round;stroke-miterlimit:10;stroke-dasharray:0,1.4286;}
	.st8{fill:none;stroke:black;stroke-linecap:round;stroke-miterlimit:10;stroke-dasharray:0,1.6348;}
</style>
<g id="Layer_3">
	<g id="S153-pair-40_8_">
		<rect x="207.5" class="st0" width="20" height="3"/>
	</g>
</g>
<g id="Layer_1_1_">
	<line class="st1" x1="0" y1="137.7" x2="18.6" y2="137.7"/>
	<path class="st2" d="M28.4,137.7V54.9c0-0.4,0.6-1.3,1.2-1.3c0.7,0,1.2,0.9,1.2,1.3v82.8v82.8c0,0.4,0.6,1.3,1.3,1.3
		s1.2-0.9,1.2-1.3v-82.8V54.9c0-0.4,0.6-1.3,1.3-1.3s1.2,0.9,1.2,1.3v82.8v82.8c0,0.4,0.6,1.3,1.3,1.3s1.2-0.9,1.2-1.3v-82.8"/>
	<path class="st2" d="M170.9,137.7L170.9,137.7c0-7,5.7-12.6,12.7-12.6s12.6,5.7,12.6,12.6l0,0l0,0c0,7,5.7,12.6,12.6,12.6
		s12.6-5.7,12.6-12.6l0,0"/>
	<path class="st2" d="M54.7,137.7L54.7,137.7c0-0.9-0.7-1.7-1.7-1.7c-0.9,0-1.7,0.7-1.7,1.7l0,0l0,0c0,0.9-0.7,1.7-1.7,1.7
		s-1.7-0.7-1.7-1.7l0,0l0,0c0-0.9-0.7-1.7-1.7-1.7s-1.7,0.7-1.7,1.7"/>
	<line class="st2" x1="170.9" y1="137.7" x2="70.3" y2="137.7"/>
	<line class="st2" x1="61.1" y1="137.7" x2="54.7" y2="137.7"/>
	<line class="st2" x1="44.7" y1="137.7" x2="38.4" y2="137.7"/>
	<line class="st2" x1="28.4" y1="137.7" x2="18.6" y2="137.7"/>
	<polyline class="st3" points="227.5,137.7 227.5,137.7 221.5,137.7 	"/>
	<g id="S153-pair-40_9_">
		<rect x="170.9" y="105.1" class="st2" width="50.6" height="5"/>
	</g>
	<g id="S153-pair-40_28_">
		<rect x="60" y="116.1" class="st2" width="10" height="5"/>
	</g>
	<g id="S153-pair-40_35_">
		<rect x="44.7" y="116.1" class="st2" width="10" height="5"/>
	</g>
	<g id="S153-pair-40_12_">
		<rect x="28.4" y="33.6" class="st2" width="7.5" height="5"/>
	</g>
	<g>
		<path class="st4" d="M67.9,139.9c0-1.2,0.9-2.1,2.1-2.1"/>
		<path class="st5" d="M62.1,135.6c0,1.2-0.9,2.1-2.1,2.1"/>
		<path class="st5" d="M70,137.7c-1.2,0-2.1-0.9-2.1-2.1"/>
		<path class="st5" d="M60,137.7c1.2,0,2.1,0.9,2.1,2.1"/>
		<g>
			<g>
				<line class="st6" x1="60" y1="137.7" x2="60" y2="137.7"/>
				<line class="st7" x1="61.4" y1="137.7" x2="69.3" y2="137.7"/>
				<line class="st6" x1="70" y1="137.7" x2="70" y2="137.7"/>
			</g>
		</g>
		<g>
			<g>
				<line class="st6" x1="62.1" y1="135.6" x2="62.1" y2="135.6"/>
				<path class="st8" d="M62.7,134.2c0.4-0.4,0.9-0.6,1.5-0.6h1.5c0.9,0,1.6,0.5,2,1.3"/>
				<line class="st6" x1="67.9" y1="135.6" x2="67.9" y2="135.6"/>
			</g>
		</g>
		<g>
			<g>
				<line class="st6" x1="67.9" y1="139.9" x2="67.9" y2="139.9"/>
				<path class="st8" d="M67.3,141.3c-0.4,0.4-0.9,0.6-1.5,0.6h-1.5c-0.9,0-1.6-0.5-2-1.3"/>
				<line class="st6" x1="62.1" y1="139.9" x2="62.1" y2="139.9"/>
			</g>
		</g>
	</g>
</g>
</svg>
