<?xml version="1.0" encoding="utf-8"?>
<!-- Generator: Adobe Illustrator 24.3.0, SVG Export Plug-In . SVG Version: 6.00 Build 0)  -->
<svg version="1.1" id="Layer_1" xmlns="http://www.w3.org/2000/svg" xmlns:xlink="http://www.w3.org/1999/xlink" x="0px" y="0px"
	 width="127px" height="240px" viewBox="0 0 127 240" style="enable-background:new 0 0 127 240;" xml:space="preserve">
<style type="text/css">
	.st0{clip-path:url(#SVGID_1_);}
	.st1{fill:#8131F4;}
	.st2{fill:#0000FF;}
	.st3{fill:#5151FC;}
	.st4{fill:#00FFFF;}
	.st5{fill:#009959;}
	.st6{fill:#00C19C;}
	.st7{fill:#8AE297;}
	.st8{fill:#00FFB6;}
	.st9{fill:#FFA500;}
	.st10{fill:#6E94F4;}
</style>
<g>
	<defs>
		<rect id="SVGID_3_" y="0" width="127" height="240"/>
	</defs>
	<clipPath id="SVGID_1_">
		<use xlink:href="#SVGID_3_"  style="overflow:visible;"/>
	</clipPath>
	<g id="legend" class="st0">
		<g id="Group_24094">
			<path id="Path_161626" d="M30.9,35h3.4v-0.6h-2.7v-5.6h-0.7L30.9,35z M35.3,29.6H36v-0.8h-0.7V29.6z M35.3,35H36v-4.4h-0.7V35z
				 M37.4,35h0.7v-2.3c0-0.8,0.4-1.6,1.1-1.6c0.8,0,0.9,0.7,0.9,1.3V35h0.7v-2.4c0-0.7,0.4-1.5,1.1-1.5c0.8,0,0.9,0.7,0.9,1.3V35
				h0.7v-2.7c0-1-0.4-1.8-1.5-1.8c-0.6,0-1.1,0.4-1.4,0.9c-0.2-0.6-0.7-1-1.3-0.9c-0.5,0-1,0.3-1.2,0.8v-0.7h-0.7V35z M44.9,29.6
				h0.7v-0.8h-0.7V29.6z M44.9,35h0.6v-4.4h-0.6V35z M47.1,35h0.7v-2.3c0-1.1,0.5-1.6,1.2-1.6c0.8,0,1,0.7,1,1.3V35h0.7v-2.7
				c0-1-0.4-1.8-1.5-1.8c-0.6,0-1.1,0.3-1.4,0.8v-0.8h-0.7L47.1,35z M53,35.1c0.7,0,1.3-0.3,1.5-0.9l0,0.8h0.6v-2.7
				c0.1-0.9-0.5-1.7-1.4-1.8c-0.1,0-0.2,0-0.3,0c-0.7,0-1.3,0.3-1.7,0.9l0.5,0.4c0.3-0.4,0.7-0.7,1.2-0.7c0.8,0,1.1,0.6,1.1,1.4h-1
				c-1.2,0-1.9,0.4-1.9,1.3c0,0.7,0.5,1.3,1.3,1.3C52.9,35.1,52.9,35.1,53,35.1z M53.1,34.5c-0.5,0-0.8-0.2-0.8-0.7
				c0-0.6,0.4-0.8,1.3-0.8h0.9C54.5,33.8,53.9,34.5,53.1,34.5z M57.3,34.5c-0.2,0-0.2-0.2-0.2-0.2v-5.5h-0.7v5.3c0,0.5,0,1,0.7,1
				c0.2,0,0.4,0,0.6-0.1v-0.5C57.6,34.5,57.5,34.5,57.3,34.5L57.3,34.5z M62.8,35.1c0.6,0,1.2-0.2,1.7-0.7L64,34
				c-0.3,0.3-0.8,0.5-1.2,0.5c-0.7,0-1.3-0.6-1.3-1.3c0-0.1,0-0.1,0-0.2h3.1c0-0.1,0-0.2,0-0.3c0-1-0.4-2.1-1.9-2.1
				c-1.1,0.1-2,1-1.9,2.1c0,0.1,0,0.1,0,0.2c-0.1,1.1,0.6,2.1,1.7,2.2C62.6,35.1,62.7,35.1,62.8,35.1L62.8,35.1z M61.5,32.5
				c0-0.7,0.4-1.4,1.2-1.4c0.9,0,1.2,0.7,1.2,1.4H61.5z M66.7,35h0.6l1.6-4.4h-0.7l-1.2,3.5l-1.2-3.5H65L66.7,35z M71.3,35.1
				c0.6,0,1.2-0.2,1.7-0.7L72.5,34c-0.3,0.3-0.8,0.5-1.2,0.5c-0.7,0-1.3-0.6-1.3-1.3c0-0.1,0-0.1,0-0.2H73c0-0.1,0-0.2,0-0.3
				c0-1-0.4-2.1-1.9-2.1c-1.1,0.1-2,1-1.9,2.1c0,0.1,0,0.1,0,0.2c-0.1,1.1,0.6,2.1,1.7,2.2C71.1,35.1,71.2,35.1,71.3,35.1z M70,32.5
				c0-0.7,0.4-1.4,1.2-1.4c0.9,0,1.2,0.7,1.2,1.4H70z M74.2,35h0.7v-2.3c0-1.1,0.5-1.6,1.2-1.6c0.8,0,1,0.7,1,1.3V35h0.7v-2.7
				c0-1-0.4-1.8-1.5-1.8c-0.6,0-1.1,0.3-1.4,0.8v-0.8h-0.7V35z M80.3,35.1c0.2,0,0.4,0,0.6-0.1v-0.6c-0.1,0.1-0.3,0.1-0.4,0.1
				c-0.3,0-0.6-0.2-0.6-0.7v-2.7H81v-0.5h-1.1V29l-0.6,0.6v1h-0.7v0.5h0.7v2.7C79.3,34.6,79.6,35.1,80.3,35.1L80.3,35.1z M83.4,35.1
				c0.8,0.1,1.4-0.5,1.5-1.2c0,0,0-0.1,0-0.1c0-1.6-2.4-1.1-2.4-2.1c0-0.4,0.3-0.6,0.8-0.6c0.4,0,0.8,0.2,1,0.6l0.5-0.3
				c-0.3-0.5-0.8-0.9-1.4-0.9c-0.7-0.1-1.3,0.4-1.4,1.1c0,0,0,0.1,0,0.1c0,1.5,2.3,0.9,2.3,2.1c0,0.5-0.4,0.7-0.9,0.7
				c-0.5,0-1-0.3-1.1-0.8L81.7,34C82,34.7,82.6,35.1,83.4,35.1L83.4,35.1z"/>
			<path id="Path_47" class="st1" d="M5.3,27h9.4c2.8-0.1,5.2,2.2,5.3,5c-0.1,2.8-2.5,5.1-5.3,5H5.3c-2.8,0.1-5.2-2.2-5.3-5
				C0.1,29.2,2.5,26.9,5.3,27z"/>
			<path id="Path_161625" d="M30.4,54h0.7v-6.2h-0.7V54z M32.8,54h0.7v-2.3c0-1.1,0.5-1.6,1.2-1.6c0.8,0,1,0.7,1,1.3V54h0.7v-2.7
				c0-1-0.4-1.8-1.5-1.8c-0.6,0-1.1,0.3-1.4,0.8v-0.8h-0.7V54z M38.9,54.1c0.2,0,0.4,0,0.6-0.1v-0.6c-0.1,0.1-0.3,0.1-0.4,0.1
				c-0.3,0-0.6-0.2-0.6-0.7v-2.7h1.1v-0.5h-1.1V48l-0.6,0.6v1h-0.7v0.5h0.7v2.7C37.9,53.6,38.1,54.1,38.9,54.1z M42.3,54.1
				c0.6,0,1.2-0.2,1.7-0.7L43.5,53c-0.3,0.3-0.8,0.5-1.2,0.5c-0.7,0-1.3-0.6-1.3-1.3c0-0.1,0-0.1,0-0.2H44c0-0.1,0-0.2,0-0.3
				c0-1-0.4-2.1-1.9-2.1c-1.1,0.1-2,1-1.9,2.1c0,0.1,0,0.1,0,0.2c-0.1,1.1,0.6,2.1,1.7,2.2C42.1,54.1,42.2,54.1,42.3,54.1z M41,51.5
				c0-0.7,0.4-1.4,1.2-1.4c0.9,0,1.2,0.7,1.2,1.4H41z M45.2,54h0.6v-2.2c0-1.1,0.5-1.7,1.2-1.7c0.2,0,0.4,0,0.5,0.2l0.3-0.6
				c-0.2-0.2-0.5-0.2-0.7-0.2c-0.6,0-1.1,0.3-1.3,0.9v-0.8h-0.7V54z M49.7,54.1c0.7,0,1.3-0.3,1.5-0.9l0,0.8h0.6v-2.7
				c0.1-0.9-0.5-1.7-1.4-1.8c-0.1,0-0.2,0-0.3,0c-0.7,0-1.3,0.3-1.7,0.9l0.5,0.4c0.3-0.4,0.7-0.7,1.2-0.7c0.8,0,1.1,0.6,1.1,1.4h-1
				c-1.2,0-1.9,0.4-1.9,1.3c0,0.7,0.5,1.3,1.3,1.3C49.6,54.1,49.7,54.1,49.7,54.1L49.7,54.1z M49.8,53.5c-0.5,0-0.8-0.2-0.8-0.7
				c0-0.6,0.4-0.8,1.3-0.8h0.9C51.2,52.8,50.6,53.5,49.8,53.5z M54.8,54.1c0.7,0,1.4-0.5,1.7-1.2l-0.6-0.2c-0.1,0.5-0.6,0.9-1.1,0.9
				c-0.9,0-1.2-0.9-1.2-1.7s0.3-1.7,1.2-1.7c0.5,0,1,0.4,1.1,0.9l0.6-0.3c-0.3-0.7-0.9-1.2-1.7-1.2c-1.3,0-1.9,1.1-1.9,2.3
				c-0.1,1.1,0.6,2.1,1.7,2.3C54.6,54.1,54.7,54.1,54.8,54.1L54.8,54.1z M58.7,54.1c0.2,0,0.4,0,0.6-0.1v-0.6
				c-0.1,0.1-0.3,0.1-0.4,0.1c-0.3,0-0.6-0.2-0.6-0.7v-2.7h1.1v-0.5h-1.1V48l-0.6,0.6v1h-0.7v0.5h0.7v2.7
				C57.6,53.6,57.9,54.1,58.7,54.1L58.7,54.1z M60.4,48.6h0.7v-0.8h-0.7V48.6z M60.4,54h0.6v-4.4h-0.6V54z M64.3,54.1
				c1.2,0,2.1-1,2.1-2.2c0,0,0-0.1,0-0.1c0.1-1.2-0.8-2.2-2-2.3c0,0-0.1,0-0.1,0c-1.2,0-2.1,1-2.1,2.2c0,0,0,0.1,0,0.1
				C62.1,53,63,54,64.3,54.1C64.2,54.1,64.3,54.1,64.3,54.1z M64.3,53.5c-1,0-1.4-0.9-1.4-1.7s0.4-1.7,1.4-1.7s1.4,0.9,1.4,1.7
				C65.7,52.7,65.3,53.5,64.3,53.5L64.3,53.5z M67.5,54h0.7v-2.3c0-1.1,0.5-1.6,1.2-1.6c0.8,0,1,0.7,1,1.3V54H71v-2.7
				c0-1-0.4-1.8-1.5-1.8c-0.6,0-1.1,0.3-1.4,0.8v-0.8h-0.7L67.5,54z M73.6,54.1c0.8,0.1,1.4-0.5,1.5-1.2c0,0,0-0.1,0-0.1
				c0-1.6-2.4-1.1-2.4-2.1c0-0.4,0.3-0.6,0.8-0.6c0.4,0,0.8,0.2,1,0.6l0.5-0.3c-0.3-0.5-0.8-0.9-1.4-0.9c-0.7-0.1-1.3,0.4-1.4,1.1
				c0,0,0,0.1,0,0.1c0,1.5,2.3,0.9,2.3,2.1c0,0.5-0.4,0.7-0.9,0.7c-0.5,0-1-0.3-1.1-0.8L72,53C72.3,53.7,72.9,54.1,73.6,54.1
				L73.6,54.1z"/>
			<path id="Rectangle_181" class="st2" d="M5,46h10c2.8,0,5,2.2,5,5l0,0c0,2.8-2.2,5-5,5H5c-2.8,0-5-2.2-5-5l0,0
				C0,48.2,2.2,46,5,46z"/>
			<path id="Path_48" class="st3" d="M5.3,65h9.4c2.8-0.1,5.2,2.2,5.3,5c-0.1,2.8-2.5,5.1-5.3,5H5.3c-2.8,0.1-5.2-2.2-5.3-5
				C0.1,67.2,2.5,64.9,5.3,65z"/>
			<path id="Path_161624" d="M30.4,73h0.7v-5.6l1.9,5.1h0.8l1.9-5.1V73h0.7v-6.2h-1.1l-1.8,5l-1.8-5h-1.1V73z M39.7,73.1
				c1.2,0,2.1-1,2.1-2.2c0,0,0-0.1,0-0.1c0.1-1.2-0.8-2.2-2-2.3c0,0-0.1,0-0.1,0c-1.2,0-2.1,1-2.1,2.2c0,0,0,0.1,0,0.1
				C37.5,72,38.4,73,39.7,73.1C39.6,73.1,39.6,73.1,39.7,73.1z M39.7,72.5c-1,0-1.4-0.9-1.4-1.7s0.5-1.7,1.4-1.7s1.4,0.9,1.4,1.7
				C41.1,71.7,40.7,72.5,39.7,72.5L39.7,72.5z M43.8,73h0.6l1.6-4.4h-0.7l-1.2,3.5l-1.2-3.5h-0.7L43.8,73z M48.4,73.1
				c0.6,0,1.2-0.2,1.7-0.7L49.6,72c-0.3,0.3-0.8,0.5-1.2,0.5c-0.7,0-1.3-0.6-1.3-1.3c0-0.1,0-0.1,0-0.2h3.1c0-0.1,0-0.2,0-0.3
				c0-1-0.4-2.1-1.9-2.1c-1.1,0.1-2,1-1.9,2.1c0,0.1,0,0.1,0,0.2c-0.1,1.1,0.6,2.1,1.7,2.2C48.2,73.1,48.3,73.1,48.4,73.1z
				 M47.1,70.5c0-0.7,0.4-1.4,1.2-1.4c0.9,0,1.2,0.7,1.2,1.4H47.1z M51.3,73H52v-2.3c0-0.8,0.4-1.6,1.1-1.6c0.8,0,0.9,0.7,0.9,1.3
				V73h0.7v-2.4c0-0.7,0.4-1.5,1.1-1.5c0.8,0,0.9,0.7,0.9,1.3V73h0.7v-2.7c0-1-0.4-1.8-1.5-1.8c-0.6,0-1.1,0.4-1.4,0.9
				c-0.2-0.6-0.7-1-1.3-0.9c-0.5,0-1,0.3-1.2,0.8v-0.7h-0.7V73z M60.4,73.1c0.6,0,1.2-0.2,1.7-0.7L61.7,72c-0.3,0.3-0.8,0.5-1.2,0.5
				c-0.7,0-1.3-0.6-1.3-1.3c0-0.1,0-0.1,0-0.2h3.1c0-0.1,0-0.2,0-0.3c0-1-0.4-2.1-1.9-2.1c-1.1,0.1-2,1-1.9,2.1c0,0.1,0,0.1,0,0.2
				c-0.1,1.1,0.6,2.1,1.7,2.2C60.3,73.1,60.4,73.1,60.4,73.1z M59.2,70.5c0-0.7,0.4-1.4,1.2-1.4c0.9,0,1.2,0.7,1.2,1.4H59.2z
				 M63.4,73H64v-2.3c0-1.1,0.5-1.6,1.2-1.6c0.8,0,1,0.7,1,1.3V73h0.7v-2.7c0-1-0.4-1.8-1.5-1.8c-0.6,0-1.1,0.3-1.4,0.8v-0.8h-0.7
				L63.4,73z M69.5,73.1c0.2,0,0.4,0,0.6-0.1v-0.6c-0.1,0.1-0.3,0.1-0.4,0.1c-0.3,0-0.6-0.2-0.6-0.7v-2.7h1.1v-0.5h-1.1V67l-0.7,0.6
				v1h-0.7v0.5h0.7v2.7C68.4,72.6,68.7,73.1,69.5,73.1L69.5,73.1z"/>
			<path id="Path_48-2" class="st4" d="M5.3,104h9.4c2.8-0.1,5.2,2.2,5.3,5c-0.1,2.8-2.5,5.1-5.3,5H5.3c-2.8,0.1-5.2-2.2-5.3-5
				C0.1,106.2,2.5,103.9,5.3,104z"/>
			<path id="Path_161623" d="M31,112.1c1,0.1,1.8-0.6,1.9-1.6c0-0.1,0-0.1,0-0.2c0-2-3-1.7-3-3.1c0-0.5,0.4-0.9,1-0.9c0,0,0,0,0,0
				c0.5,0,1,0.3,1.2,0.7l0.5-0.4c-0.3-0.6-1-1-1.7-1c-0.9-0.1-1.6,0.6-1.7,1.5c0,0,0,0.1,0,0.1c0,1.9,3,1.5,3,3.1
				c0,0.8-0.5,1.1-1.3,1.1c-0.8,0.1-1.4-0.5-1.5-1.2l-0.6,0.2C29,111.4,30,112.1,31,112.1z M34,106.6h0.7v-0.8H34V106.6z M34.1,112
				h0.7v-4.4h-0.7V112z M37.4,112.1c0.2,0,0.4,0,0.6-0.1v-0.6c-0.1,0.1-0.3,0.1-0.4,0.1c-0.3,0-0.6-0.2-0.6-0.7v-2.7h1.1v-0.5H37
				V106l-0.7,0.6v1h-0.7v0.5h0.7v2.7C36.4,111.6,36.7,112.1,37.4,112.1z M40.6,112.1c0.6,0,1.1-0.3,1.4-0.8v0.7h0.6v-4.4H42v2.4
				c0.1,0.8-0.5,1.4-1.3,1.5c-0.8,0-0.9-0.7-0.9-1.3v-2.6h-0.7v2.5C39.1,111.3,39.5,112.1,40.6,112.1z M45.1,112.1
				c0.7,0,1.3-0.3,1.5-0.9l0,0.8h0.6v-2.7c0.1-0.9-0.5-1.7-1.4-1.8c-0.1,0-0.2,0-0.3,0c-0.7,0-1.3,0.3-1.7,0.9l0.5,0.4
				c0.3-0.4,0.7-0.7,1.2-0.7c0.8,0,1.1,0.6,1.1,1.4h-1c-1.2,0-1.9,0.4-1.9,1.3c0,0.7,0.5,1.3,1.3,1.3
				C45,112.1,45.1,112.1,45.1,112.1z M45.2,111.5c-0.5,0-0.8-0.2-0.8-0.7c0-0.6,0.4-0.8,1.3-0.8h0.9C46.6,110.8,46,111.5,45.2,111.5
				z M49.8,112.1c0.2,0,0.4,0,0.6-0.1v-0.6c-0.1,0.1-0.3,0.1-0.4,0.1c-0.3,0-0.6-0.2-0.6-0.7v-2.7h1.1v-0.5h-1.1V106l-0.6,0.6v1H48
				v0.5h0.7v2.7C48.7,111.6,49,112.1,49.8,112.1L49.8,112.1z M51.5,106.6h0.7v-0.8h-0.7V106.6z M51.6,112h0.6v-4.4h-0.6V112z
				 M55.4,112.1c1.2,0,2.1-1,2.1-2.2c0,0,0-0.1,0-0.1c0.1-1.2-0.8-2.2-2-2.3c0,0-0.1,0-0.1,0c-1.2,0-2.1,1-2.1,2.2c0,0,0,0.1,0,0.1
				C53.2,111,54.1,112,55.4,112.1C55.3,112.1,55.4,112.1,55.4,112.1L55.4,112.1z M55.4,111.5c-1,0-1.4-0.9-1.4-1.7s0.4-1.7,1.4-1.7
				c1,0,1.4,0.9,1.4,1.7C56.8,110.7,56.4,111.5,55.4,111.5L55.4,111.5z M58.6,112h0.7v-2.3c0-1.1,0.5-1.6,1.2-1.6c0.8,0,1,0.7,1,1.3
				v2.6h0.7v-2.7c0-1-0.4-1.8-1.5-1.8c-0.6,0-1.1,0.3-1.4,0.8v-0.8h-0.7L58.6,112z"/>
			<path id="Path_48-3" class="st5" d="M5.3,123h9.4c2.8-0.1,5.2,2.2,5.3,5c-0.1,2.8-2.5,5.1-5.3,5H5.3c-2.8,0.1-5.2-2.2-5.3-5
				C0.1,125.2,2.5,122.9,5.3,123z"/>
			<path id="Path_161622" d="M30.4,131h4v-0.6h-3.3v-2.2H34v-0.6h-2.9v-2.2h3.3v-0.6h-4V131z M36.9,131.1c0.6,0,1.1-0.3,1.4-0.8v0.7
				H39v-4.4h-0.6v2.4c0.1,0.8-0.5,1.4-1.3,1.5c-0.8,0-0.9-0.7-0.9-1.3v-2.6h-0.7v2.5C35.4,130.3,35.9,131.1,36.9,131.1z M40.5,132.9
				h0.7v-2.5c0.3,0.4,0.8,0.7,1.3,0.7c1.2,0,1.8-1,1.8-2.3c0-1.2-0.6-2.3-1.8-2.3c-0.5,0-1,0.2-1.3,0.7v-0.6h-0.7L40.5,132.9z
				 M42.3,130.5c-0.9,0-1.3-0.8-1.3-1.7c0-0.9,0.4-1.7,1.3-1.7s1.3,0.8,1.3,1.7C43.6,129.7,43.2,130.5,42.3,130.5z M45.4,131h0.7
				v-2.4c-0.1-0.8,0.5-1.4,1.3-1.5c0,0,0,0,0,0c0.8,0,0.9,0.7,0.9,1.3v2.6H49v-2.7c0-0.9-0.4-1.8-1.5-1.8c-0.6,0-1.1,0.3-1.4,0.8
				v-2.5h-0.7L45.4,131z M52.1,131.1c1.2,0,2.1-1,2.1-2.2c0,0,0-0.1,0-0.1c0.1-1.2-0.8-2.2-2-2.3c0,0-0.1,0-0.1,0
				c-1.2,0-2.1,1-2.1,2.2c0,0,0,0.1,0,0.1c-0.1,1.2,0.8,2.2,2,2.3C52,131.1,52,131.1,52.1,131.1L52.1,131.1z M52.1,130.5
				c-1,0-1.4-0.9-1.4-1.7c0-0.9,0.4-1.7,1.4-1.7c1,0,1.4,0.9,1.4,1.7C53.5,129.7,53,130.5,52.1,130.5L52.1,130.5z M55.3,131h0.6
				v-2.2c0-1.1,0.5-1.7,1.2-1.7c0.2,0,0.4,0,0.5,0.2l0.3-0.6c-0.2-0.2-0.5-0.2-0.7-0.2c-0.6,0-1.1,0.3-1.3,0.9v-0.8h-0.7L55.3,131z
				 M58.7,125.6h0.7v-0.8h-0.7V125.6z M58.8,131h0.7v-4.4h-0.7V131z M62.5,131.1c0.7,0,1.4-0.5,1.7-1.2l-0.6-0.2
				c-0.1,0.5-0.6,0.9-1.1,0.9c-0.9,0-1.2-0.9-1.2-1.7c0-0.8,0.3-1.7,1.2-1.7c0.5,0,1,0.4,1.1,0.9l0.6-0.3c-0.3-0.7-0.9-1.2-1.7-1.2
				c-1.3,0-1.9,1.1-1.9,2.3c-0.1,1.1,0.6,2.1,1.7,2.3C62.4,131.1,62.4,131.1,62.5,131.1z M68.8,131.1c0.8,0.1,1.4-0.5,1.5-1.2
				c0,0,0-0.1,0-0.1c0-1.6-2.4-1.1-2.4-2.1c0-0.4,0.3-0.6,0.8-0.6c0.4,0,0.8,0.2,1,0.6l0.5-0.3c-0.3-0.5-0.8-0.9-1.4-0.9
				c-0.7-0.1-1.3,0.4-1.4,1.1c0,0,0,0.1,0,0.1c0,1.5,2.3,0.9,2.3,2.1c0,0.5-0.4,0.7-0.9,0.7c-0.5,0-1-0.3-1.1-0.8l-0.5,0.3
				C67.4,130.7,68.1,131.1,68.8,131.1z M72.6,131.1c0.2,0,0.4,0,0.6-0.1v-0.6c-0.1,0.1-0.3,0.1-0.4,0.1c-0.3,0-0.6-0.2-0.6-0.7v-2.7
				h1.1v-0.5h-1.1V125l-0.7,0.6v1h-0.7v0.5h0.7v2.7C71.5,130.6,71.8,131.1,72.6,131.1L72.6,131.1z M75.4,131.1
				c0.7,0,1.3-0.3,1.5-0.9l0,0.8h0.6v-2.7c0.1-0.9-0.5-1.7-1.4-1.8c-0.1,0-0.2,0-0.3,0c-0.7,0-1.3,0.3-1.7,0.9l0.5,0.4
				c0.3-0.4,0.7-0.7,1.2-0.7c0.8,0,1.1,0.6,1.1,1.4h-1c-1.2,0-1.9,0.4-1.9,1.3c0,0.7,0.5,1.3,1.3,1.3
				C75.3,131.1,75.3,131.1,75.4,131.1L75.4,131.1z M75.4,130.5c-0.5,0-0.8-0.2-0.8-0.7c0-0.6,0.4-0.8,1.3-0.8h0.9
				C76.9,129.8,76.3,130.5,75.4,130.5L75.4,130.5z M80.1,131.1c0.2,0,0.4,0,0.6-0.1v-0.6c-0.1,0.1-0.3,0.1-0.4,0.1
				c-0.3,0-0.6-0.2-0.6-0.7v-2.7h1.1v-0.5h-1.1V125l-0.7,0.6v1h-0.7v0.5H79v2.7C79,130.6,79.3,131.1,80.1,131.1L80.1,131.1z
				 M83.4,131.1c0.6,0,1.2-0.2,1.7-0.7l-0.4-0.4c-0.3,0.3-0.8,0.5-1.2,0.5c-0.7,0-1.3-0.6-1.3-1.3c0-0.1,0-0.1,0-0.2h3.1
				c0-0.1,0-0.2,0-0.3c0-1-0.4-2.1-1.9-2.1c-1.1,0.1-2,1-1.9,2.1c0,0.1,0,0.1,0,0.2c-0.1,1.1,0.6,2.1,1.7,2.2
				C83.2,131.1,83.3,131.1,83.4,131.1L83.4,131.1z M82.1,128.5c0-0.7,0.4-1.4,1.2-1.4c0.9,0,1.2,0.7,1.2,1.4H82.1z"/>
			<path id="Path_48-4" class="st6" d="M5.3,142h9.4c2.8-0.1,5.2,2.2,5.3,5c-0.1,2.8-2.5,5.1-5.3,5H5.3c-2.8,0.1-5.2-2.2-5.3-5
				C0.1,144.2,2.5,141.9,5.3,142z"/>
			<path id="Path_161621" d="M30.4,150H32c1.5,0.2,2.9-0.9,3.1-2.4c0-0.2,0-0.4,0-0.6c0.2-1.6-0.9-3-2.5-3.1c-0.2,0-0.4,0-0.7,0
				h-1.6V150z M31.1,149.4v-4.9H32c1.2-0.1,2.3,0.7,2.5,1.9c0,0.2,0,0.4,0,0.6c0.1,1.3-0.8,2.4-2.1,2.5c-0.1,0-0.3,0-0.4,0H31.1z
				 M36.8,151.9h0.7l2.4-6.3h-0.7l-1.2,3.6l-1.3-3.6h-0.7l1.7,4.4L36.8,151.9z M41.8,150.1c0.8,0.1,1.4-0.5,1.5-1.2c0,0,0-0.1,0-0.1
				c0-1.6-2.4-1.1-2.4-2.1c0-0.4,0.3-0.6,0.8-0.6c0.4,0,0.8,0.2,1,0.6l0.5-0.3c-0.3-0.5-0.8-0.9-1.4-0.9c-0.7-0.1-1.3,0.4-1.4,1.1
				c0,0,0,0.1,0,0.1c0,1.5,2.3,0.9,2.3,2.1c0,0.5-0.4,0.7-0.9,0.7c-0.5,0-1-0.3-1.1-0.8l-0.6,0.3C40.4,149.7,41.1,150.1,41.8,150.1z
				 M44.4,151.9h0.7v-2.5c0.3,0.4,0.8,0.7,1.3,0.7c1.2,0,1.8-1,1.8-2.3c0-1.2-0.6-2.3-1.8-2.3c-0.5,0-1,0.2-1.3,0.7v-0.6h-0.7
				L44.4,151.9z M46.3,149.5c-0.9,0-1.3-0.8-1.3-1.7c0-0.9,0.4-1.7,1.3-1.7s1.3,0.8,1.3,1.7C47.6,148.7,47.2,149.5,46.3,149.5z
				 M49.4,150H50v-2.4c-0.1-0.8,0.5-1.4,1.3-1.5c0,0,0,0,0,0c0.8,0,0.9,0.7,0.9,1.3v2.6h0.7v-2.7c0-0.9-0.4-1.8-1.5-1.8
				c-0.6,0-1.1,0.3-1.4,0.8v-2.5h-0.7L49.4,150z M56,150.1c1.2,0,2.1-1,2.1-2.2c0,0,0-0.1,0-0.1c0.1-1.2-0.8-2.2-2-2.3
				c0,0-0.1,0-0.1,0c-1.2,0-2.1,1-2.1,2.2c0,0,0,0.1,0,0.1C53.9,149,54.8,150,56,150.1C56,150.1,56,150.1,56,150.1L56,150.1z
				 M56,149.5c-1,0-1.4-0.9-1.4-1.7s0.4-1.7,1.4-1.7c1,0,1.4,0.9,1.4,1.7C57.5,148.7,57,149.5,56,149.5L56,149.5z M59.2,150h0.7
				v-2.2c0-1.1,0.5-1.7,1.2-1.7c0.2,0,0.4,0,0.5,0.2l0.3-0.6c-0.2-0.2-0.5-0.2-0.7-0.2c-0.6,0-1.1,0.3-1.3,0.9v-0.8h-0.7L59.2,150z
				 M62.7,144.6h0.7v-0.8h-0.7V144.6z M62.8,150h0.7v-4.4h-0.7V150z M66.5,150.1c0.7,0,1.4-0.5,1.7-1.2l-0.6-0.2
				c-0.1,0.5-0.6,0.9-1.1,0.9c-0.9,0-1.2-0.9-1.2-1.7c0-0.8,0.3-1.7,1.2-1.7c0.5,0,1,0.4,1.1,0.9l0.6-0.3c-0.3-0.7-0.9-1.2-1.7-1.2
				c-1.3,0-1.9,1.1-1.9,2.3c-0.1,1.1,0.6,2.1,1.7,2.3C66.3,150.1,66.4,150.1,66.5,150.1z M72.8,150.1c0.8,0.1,1.4-0.5,1.5-1.2
				c0,0,0-0.1,0-0.1c0-1.6-2.4-1.1-2.4-2.1c0-0.4,0.3-0.6,0.8-0.6c0.4,0,0.8,0.2,1,0.6l0.5-0.3c-0.3-0.5-0.8-0.9-1.4-0.9
				c-0.7-0.1-1.3,0.4-1.4,1.1c0,0,0,0.1,0,0.1c0,1.5,2.3,0.9,2.3,2.1c0,0.5-0.4,0.7-0.9,0.7c-0.5,0-1-0.3-1.1-0.8l-0.6,0.3
				C71.4,149.7,72,150.1,72.8,150.1L72.8,150.1z M76.6,150.1c0.2,0,0.4,0,0.6-0.1v-0.6c-0.1,0.1-0.3,0.1-0.4,0.1
				c-0.3,0-0.6-0.2-0.6-0.7v-2.7h1.1v-0.5h-1.1V144l-0.7,0.6v1h-0.7v0.5h0.7v2.7C75.5,149.6,75.8,150.1,76.6,150.1L76.6,150.1z
				 M79.3,150.1c0.7,0,1.3-0.3,1.5-0.9l0,0.8h0.6v-2.7c0.1-0.9-0.5-1.7-1.4-1.8c-0.1,0-0.2,0-0.3,0c-0.7,0-1.3,0.3-1.7,0.9l0.5,0.4
				c0.3-0.4,0.7-0.7,1.2-0.7c0.8,0,1.1,0.6,1.1,1.4h-1c-1.2,0-1.9,0.4-1.9,1.3c0,0.7,0.5,1.3,1.3,1.3
				C79.2,150.1,79.3,150.1,79.3,150.1L79.3,150.1z M79.4,149.5c-0.5,0-0.8-0.2-0.8-0.7c0-0.6,0.4-0.8,1.3-0.8h0.9
				C80.9,148.8,80.2,149.5,79.4,149.5z M84,150.1c0.2,0,0.4,0,0.6-0.1v-0.6c-0.1,0.1-0.3,0.1-0.4,0.1c-0.3,0-0.6-0.2-0.6-0.7v-2.7
				h1.1v-0.5h-1.1V144l-0.7,0.6v1h-0.7v0.5H83v2.7C83,149.6,83.3,150.1,84,150.1z M87.4,150.1c0.6,0,1.2-0.2,1.7-0.7l-0.4-0.4
				c-0.3,0.3-0.8,0.5-1.2,0.5c-0.7,0-1.3-0.6-1.3-1.3c0-0.1,0-0.1,0-0.2h3.1c0-0.1,0-0.2,0-0.3c0-1-0.4-2.1-1.9-2.1
				c-1.1,0.1-2,1-1.9,2.1c0,0.1,0,0.1,0,0.2c-0.1,1.1,0.6,2.1,1.7,2.2C87.2,150.1,87.3,150.1,87.4,150.1z M86.1,147.5
				c0-0.7,0.4-1.4,1.2-1.4c0.9,0,1.2,0.7,1.2,1.4H86.1z"/>
			<path id="Path_48-5" class="st7" d="M5.3,162h9.4c2.8-0.1,5.2,2.2,5.3,5c-0.1,2.8-2.5,5.1-5.3,5H5.3c-2.8,0.1-5.2-2.2-5.3-5
				C0.1,164.2,2.5,161.9,5.3,162z"/>
			<path id="Path_161620" d="M29.4,170h0.7v-2.8h1l1.5,2.8h0.8l-1.7-2.9c0.8-0.1,1.3-0.8,1.3-1.6c0-1-0.8-1.7-1.8-1.7
				c-0.1,0-0.1,0-0.2,0h-1.8V170z M30.1,166.6v-2.2h1.1c0.6-0.1,1.2,0.3,1.2,1c0,0.1,0,0.1,0,0.2c0,0.7-0.5,1-1.2,1.1H30.1z
				 M36,170.1c0.6,0,1.2-0.2,1.7-0.7l-0.4-0.4c-0.3,0.3-0.8,0.5-1.2,0.5c-0.7,0-1.3-0.6-1.3-1.3c0-0.1,0-0.1,0-0.2h3.1
				c0-0.1,0-0.2,0-0.3c0-1-0.4-2.1-1.9-2.1c-1.1,0.1-2,1-1.9,2.1c0,0.1,0,0.1,0,0.2c-0.1,1.1,0.6,2.1,1.7,2.2
				C35.9,170.1,36,170.1,36,170.1z M34.8,167.5c0-0.7,0.4-1.4,1.2-1.4c0.9,0,1.2,0.7,1.2,1.4H34.8z M41.9,170.1c0.2,0,0.3,0,0.5-0.1
				v-0.6c-0.1,0-0.2,0-0.3,0c-0.2,0-0.2-0.1-0.2-0.3v-4.9c-0.4-0.4-0.8-0.6-1.4-0.6c-0.9,0-1.5,0.4-1.5,1.3v0.6h-0.7v0.5H39v3.9h0.6
				v-3.9h0.9v-0.5h-0.9v-0.6c0-0.6,0.3-0.8,0.9-0.8c0.3,0,0.5,0.1,0.7,0.3v4.6C41.3,169.6,41.4,170.1,41.9,170.1L41.9,170.1z
				 M45,170.1c0.6,0,1.2-0.2,1.7-0.7l-0.4-0.4c-0.3,0.3-0.8,0.5-1.2,0.5c-0.7,0-1.3-0.6-1.3-1.3c0-0.1,0-0.1,0-0.2h3.1
				c0-0.1,0-0.2,0-0.3c0-1-0.4-2.1-1.9-2.1c-1.1,0.1-2,1-1.9,2.1c0,0.1,0,0.1,0,0.2c-0.1,1.1,0.6,2.1,1.7,2.2
				C44.9,170.1,45,170.1,45,170.1z M43.8,167.5c0-0.7,0.4-1.4,1.2-1.4c0.9,0,1.2,0.7,1.2,1.4H43.8z M49.5,170.1
				c0.7,0,1.4-0.5,1.7-1.2l-0.6-0.2c-0.1,0.5-0.6,0.9-1.1,0.9c-0.9,0-1.2-0.9-1.2-1.7c0-0.8,0.3-1.7,1.2-1.7c0.5,0,1,0.4,1.1,0.9
				l0.6-0.3c-0.3-0.7-0.9-1.2-1.7-1.2c-1.3,0-1.9,1.1-1.9,2.3c-0.1,1.1,0.6,2.1,1.7,2.3C49.4,170.1,49.5,170.1,49.5,170.1
				L49.5,170.1z M53.5,170.1c0.2,0,0.4,0,0.6-0.1v-0.6c-0.1,0.1-0.3,0.1-0.4,0.1c-0.3,0-0.6-0.2-0.6-0.7v-2.7h1.1v-0.5h-1.1V164
				l-0.6,0.6v1h-0.7v0.5h0.7v2.7C52.4,169.6,52.7,170.1,53.5,170.1L53.5,170.1z M55.2,164.6h0.7v-0.8h-0.7V164.6z M55.2,170h0.7
				v-4.4h-0.7V170z M58.4,170H59l1.6-4.4h-0.7l-1.2,3.5l-1.2-3.5h-0.7L58.4,170z M63,170.1c0.6,0,1.2-0.2,1.7-0.7l-0.4-0.4
				c-0.3,0.3-0.8,0.5-1.2,0.5c-0.7,0-1.3-0.6-1.3-1.3c0-0.1,0-0.1,0-0.2h3.1c0-0.1,0-0.2,0-0.3c0-1-0.4-2.1-1.9-2.1
				c-1.1,0.1-2,1-1.9,2.1c0,0.1,0,0.1,0,0.2c-0.1,1.1,0.6,2.1,1.7,2.2C62.9,170.1,63,170.1,63,170.1z M61.7,167.5
				c0-0.7,0.4-1.4,1.2-1.4c0.9,0,1.2,0.7,1.2,1.4H61.7z M69.5,170.1c0.8,0.1,1.4-0.5,1.5-1.2c0,0,0-0.1,0-0.1c0-1.6-2.4-1.1-2.4-2.1
				c0-0.4,0.3-0.6,0.8-0.6c0.4,0,0.8,0.2,1,0.6l0.5-0.3c-0.3-0.5-0.8-0.9-1.4-0.9c-0.7-0.1-1.3,0.4-1.4,1.1c0,0,0,0.1,0,0.1
				c0,1.5,2.3,0.9,2.3,2.1c0,0.5-0.4,0.7-0.9,0.7c-0.5,0-1-0.3-1.1-0.8l-0.5,0.3C68.2,169.7,68.8,170.1,69.5,170.1L69.5,170.1z
				 M73.4,170.1c0.2,0,0.4,0,0.6-0.1v-0.6c-0.1,0.1-0.3,0.1-0.4,0.1c-0.3,0-0.6-0.2-0.6-0.7v-2.7h1.1v-0.5H73V164l-0.7,0.6v1h-0.7
				v0.5h0.7v2.7C72.3,169.6,72.6,170.1,73.4,170.1L73.4,170.1z M76.1,170.1c0.7,0,1.3-0.3,1.5-0.9l0,0.8h0.6v-2.7
				c0.1-0.9-0.5-1.7-1.4-1.8c-0.1,0-0.2,0-0.3,0c-0.7,0-1.3,0.3-1.7,0.9l0.5,0.4c0.3-0.4,0.7-0.7,1.2-0.7c0.8,0,1.1,0.6,1.1,1.4h-1
				c-1.2,0-1.9,0.4-1.9,1.3c0,0.7,0.5,1.3,1.3,1.3C76,170.1,76.1,170.1,76.1,170.1L76.1,170.1z M76.2,169.5c-0.5,0-0.8-0.2-0.8-0.7
				c0-0.6,0.4-0.8,1.3-0.8h0.9C77.7,168.8,77,169.5,76.2,169.5L76.2,169.5z M80.8,170.1c0.2,0,0.4,0,0.6-0.1v-0.6
				c-0.1,0.1-0.3,0.1-0.4,0.1c-0.3,0-0.6-0.2-0.6-0.7v-2.7h1.1v-0.5h-1.1V164l-0.7,0.6v1h-0.7v0.5h0.7v2.7
				C79.8,169.6,80.1,170.1,80.8,170.1L80.8,170.1z M84.2,170.1c0.6,0,1.2-0.2,1.7-0.7l-0.4-0.4c-0.3,0.3-0.8,0.5-1.2,0.5
				c-0.7,0-1.3-0.6-1.3-1.3c0-0.1,0-0.1,0-0.2h3.1c0-0.1,0-0.2,0-0.3c0-1-0.4-2.1-1.9-2.1c-1.1,0.1-2,1-1.9,2.1c0,0.1,0,0.1,0,0.2
				c-0.1,1.1,0.6,2.1,1.7,2.2C84,170.1,84.1,170.1,84.2,170.1L84.2,170.1z M82.9,167.5c0-0.7,0.4-1.4,1.2-1.4c0.9,0,1.2,0.7,1.2,1.4
				H82.9z"/>
			<path id="Path_48-6" class="st8" d="M5.3,181h9.4c2.8-0.1,5.2,2.2,5.3,5c-0.1,2.8-2.5,5.1-5.3,5H5.3c-2.8,0.1-5.2-2.2-5.3-5
				C0.1,183.2,2.5,180.9,5.3,181z"/>
			<path id="Path_161619" d="M31,189.1c1,0.1,1.8-0.6,1.9-1.6c0-0.1,0-0.1,0-0.2c0-2-3-1.7-3-3.1c0-0.5,0.4-0.9,1-0.9c0,0,0,0,0,0
				c0.5,0,1,0.3,1.2,0.7l0.5-0.4c-0.3-0.6-1-1-1.7-1c-0.9-0.1-1.6,0.6-1.7,1.5c0,0,0,0.1,0,0.1c0,1.9,3,1.5,3,3.1
				c0,0.8-0.5,1.1-1.3,1.1c-0.8,0.1-1.4-0.5-1.5-1.2l-0.6,0.2C29,188.4,30,189.1,31,189.1z M35.3,189.1c0.6,0,1.1-0.3,1.4-0.8v0.7
				h0.7v-4.4h-0.7v2.4c0.1,0.8-0.5,1.4-1.3,1.5c-0.8,0-0.9-0.7-0.9-1.3v-2.6h-0.7v2.5C33.8,188.3,34.2,189.1,35.3,189.1z M40,189.1
				c0.8,0.1,1.4-0.5,1.5-1.2c0,0,0-0.1,0-0.1c0-1.6-2.4-1.1-2.4-2.1c0-0.4,0.3-0.6,0.8-0.6c0.4,0,0.8,0.2,1,0.6l0.5-0.3
				c-0.3-0.5-0.8-0.9-1.4-0.9c-0.7-0.1-1.3,0.4-1.4,1.1c0,0,0,0.1,0,0.1c0,1.5,2.3,0.9,2.3,2.1c0,0.5-0.4,0.7-0.9,0.7
				c-0.5,0-1-0.3-1.1-0.8l-0.5,0.3C38.6,188.7,39.3,189.1,40,189.1z M42.6,190.9h0.7v-2.5c0.3,0.4,0.8,0.7,1.3,0.7
				c1.2,0,1.8-1,1.8-2.3c0-1.2-0.6-2.3-1.8-2.3c-0.5,0-1,0.2-1.3,0.7v-0.6h-0.7V190.9z M44.5,188.5c-0.9,0-1.3-0.8-1.3-1.7
				c0-0.9,0.4-1.7,1.3-1.7s1.3,0.8,1.3,1.7S45.4,188.5,44.5,188.5z M49.2,189.1c0.6,0,1.2-0.2,1.7-0.7l-0.4-0.4
				c-0.3,0.3-0.8,0.5-1.2,0.5c-0.7,0-1.3-0.6-1.3-1.3c0-0.1,0-0.1,0-0.2H51c0-0.1,0-0.2,0-0.3c0-1-0.4-2.1-1.9-2.1
				c-1.1,0.1-2,1-1.9,2.1c0,0.1,0,0.1,0,0.2c-0.1,1.1,0.6,2.1,1.7,2.2C49,189.1,49.1,189.1,49.2,189.1L49.2,189.1z M47.9,186.5
				c0-0.7,0.4-1.4,1.2-1.4c0.9,0,1.2,0.7,1.2,1.4H47.9z M52.1,189h0.7v-2.3c0-1.1,0.5-1.6,1.2-1.6c0.8,0,1,0.7,1,1.3v2.6h0.6v-2.7
				c0-1-0.4-1.8-1.5-1.8c-0.6,0-1.1,0.3-1.4,0.8v-0.8h-0.7L52.1,189z M59.9,182.8v2.4c-0.3-0.5-0.8-0.7-1.4-0.7
				c-1.1,0-1.8,1-1.8,2.3c0,1.3,0.6,2.3,1.8,2.3c0.5,0,1.1-0.2,1.4-0.7l0,0.6h0.6v-6.2H59.9z M58.7,188.5c-0.9,0-1.3-0.8-1.3-1.7
				s0.4-1.7,1.3-1.7c0.9,0,1.3,0.8,1.3,1.7S59.6,188.5,58.7,188.5L58.7,188.5z M63.7,189.1c0.6,0,1.2-0.2,1.7-0.7l-0.5-0.4
				c-0.3,0.3-0.8,0.5-1.2,0.5c-0.7,0-1.3-0.6-1.3-1.3c0-0.1,0-0.1,0-0.2h3.1c0-0.1,0-0.2,0-0.3c0-1-0.4-2.1-1.9-2.1
				c-1.1,0.1-2,1-1.9,2.1c0,0.1,0,0.1,0,0.2c-0.1,1.1,0.6,2.1,1.7,2.2C63.5,189.1,63.6,189.1,63.7,189.1L63.7,189.1z M62.4,186.5
				c0-0.7,0.4-1.4,1.2-1.4c0.9,0,1.2,0.7,1.2,1.4H62.4z M69.4,182.8v2.4c-0.3-0.5-0.8-0.7-1.4-0.7c-1.1,0-1.8,1-1.8,2.3
				c0,1.3,0.6,2.3,1.8,2.3c0.5,0,1.1-0.2,1.4-0.7l0,0.6h0.6v-6.2H69.4z M68.2,188.5c-0.9,0-1.3-0.8-1.3-1.7s0.4-1.7,1.3-1.7
				c0.9,0,1.3,0.8,1.3,1.7S69.1,188.5,68.2,188.5L68.2,188.5z M75.1,189.1c0.8,0.1,1.4-0.5,1.5-1.2c0,0,0-0.1,0-0.1
				c0-1.6-2.4-1.1-2.4-2.1c0-0.4,0.3-0.6,0.8-0.6c0.4,0,0.8,0.2,1,0.6l0.5-0.3c-0.3-0.5-0.8-0.9-1.4-0.9c-0.7-0.1-1.3,0.4-1.4,1.1
				c0,0,0,0.1,0,0.1c0,1.5,2.3,0.9,2.3,2.1c0,0.5-0.4,0.7-0.9,0.7c-0.5,0-1-0.3-1.1-0.8l-0.6,0.3C73.8,188.7,74.4,189.1,75.1,189.1
				L75.1,189.1z M79,189.1c0.2,0,0.4,0,0.6-0.1v-0.6c-0.1,0.1-0.3,0.1-0.4,0.1c-0.3,0-0.6-0.2-0.6-0.7v-2.7h1.1v-0.5h-1.1V183
				l-0.7,0.6v1h-0.7v0.5h0.7v2.7C77.9,188.6,78.2,189.1,79,189.1L79,189.1z M81.7,189.1c0.7,0,1.3-0.3,1.5-0.9l0,0.8h0.6v-2.7
				c0.1-0.9-0.5-1.7-1.4-1.8c-0.1,0-0.2,0-0.3,0c-0.7,0-1.3,0.3-1.7,0.9l0.5,0.4c0.3-0.4,0.7-0.7,1.2-0.7c0.8,0,1.1,0.6,1.1,1.4h-1
				c-1.2,0-1.9,0.4-1.9,1.3c0,0.7,0.5,1.3,1.3,1.3C81.6,189.1,81.7,189.1,81.7,189.1L81.7,189.1z M81.8,188.5
				c-0.5,0-0.8-0.2-0.8-0.7c0-0.6,0.4-0.8,1.3-0.8h0.9C83.3,187.8,82.6,188.5,81.8,188.5L81.8,188.5z M86.4,189.1
				c0.2,0,0.4,0,0.6-0.1v-0.6c-0.1,0.1-0.3,0.1-0.4,0.1c-0.3,0-0.6-0.2-0.6-0.7v-2.7h1.1v-0.5H86V183l-0.7,0.6v1h-0.7v0.5h0.7v2.7
				C85.4,188.6,85.6,189.1,86.4,189.1L86.4,189.1z M89.8,189.1c0.6,0,1.2-0.2,1.7-0.7L91,188c-0.3,0.3-0.8,0.5-1.2,0.5
				c-0.7,0-1.3-0.6-1.3-1.3c0-0.1,0-0.1,0-0.2h3.1c0-0.1,0-0.2,0-0.3c0-1-0.4-2.1-1.9-2.1c-1.1,0.1-2,1-1.9,2.1c0,0.1,0,0.1,0,0.2
				c-0.1,1.1,0.6,2.1,1.7,2.2C89.6,189.1,89.7,189.1,89.8,189.1L89.8,189.1z M88.5,186.5c0-0.7,0.4-1.4,1.2-1.4
				c0.9,0,1.2,0.7,1.2,1.4H88.5z"/>
			<path id="Path_48-7" class="st9" d="M5.3,200h9.4c2.8-0.1,5.2,2.2,5.3,5c-0.1,2.8-2.5,5.1-5.3,5H5.3c-2.8,0.1-5.2-2.2-5.3-5
				C0.1,202.2,2.5,199.9,5.3,200z"/>
			<path id="Path_161618" d="M29.4,208h0.7v-5.5l2.7,5.5h1v-6.2h-0.7v5.5l-2.7-5.5h-1V208z M36.4,208.1c0.7,0,1.3-0.3,1.5-0.9l0,0.8
				h0.6v-2.7c0.1-0.9-0.5-1.7-1.4-1.8c-0.1,0-0.2,0-0.3,0c-0.7,0-1.3,0.3-1.7,0.9l0.5,0.4c0.3-0.4,0.7-0.7,1.2-0.7
				c0.8,0,1.1,0.6,1.1,1.4h-1c-1.2,0-1.9,0.4-1.9,1.3c0,0.7,0.5,1.3,1.3,1.3C36.3,208.1,36.4,208.1,36.4,208.1z M36.5,207.5
				c-0.5,0-0.8-0.2-0.8-0.7c0-0.6,0.4-0.8,1.3-0.8H38C38,206.8,37.3,207.5,36.5,207.5z M39.9,208h0.6v-2.2c0-1.1,0.5-1.7,1.2-1.7
				c0.2,0,0.4,0,0.5,0.2l0.3-0.6c-0.2-0.2-0.5-0.2-0.7-0.2c-0.6,0-1.1,0.3-1.3,0.9v-0.8h-0.7L39.9,208z M43.4,208h0.6v-2.2
				c0-1.1,0.5-1.7,1.2-1.7c0.2,0,0.4,0,0.5,0.2l0.3-0.6c-0.2-0.2-0.5-0.2-0.7-0.2c-0.6,0-1.1,0.3-1.3,0.9v-0.8h-0.7L43.4,208z
				 M47.9,208.1c0.7,0,1.3-0.3,1.5-0.9l0,0.8h0.6v-2.7c0.1-0.9-0.5-1.7-1.4-1.8c-0.1,0-0.2,0-0.3,0c-0.7,0-1.3,0.3-1.7,0.9l0.5,0.4
				c0.3-0.4,0.7-0.7,1.2-0.7c0.8,0,1.1,0.6,1.1,1.4h-1c-1.2,0-1.9,0.4-1.9,1.3c0,0.7,0.5,1.3,1.3,1.3
				C47.8,208.1,47.9,208.1,47.9,208.1L47.9,208.1z M48,207.5c-0.5,0-0.8-0.2-0.8-0.7c0-0.6,0.4-0.8,1.3-0.8h0.9
				C49.5,206.8,48.8,207.5,48,207.5L48,207.5z M52.6,208.1c0.2,0,0.4,0,0.6-0.1v-0.6c-0.1,0.1-0.3,0.1-0.4,0.1
				c-0.3,0-0.6-0.2-0.6-0.7v-2.7h1.1v-0.5h-1.1V202l-0.7,0.6v1h-0.7v0.5h0.7v2.7C51.6,207.6,51.9,208.1,52.6,208.1L52.6,208.1z
				 M54.3,202.6h0.7v-0.8h-0.7V202.6z M54.4,208H55v-4.4h-0.6V208z M57.6,208h0.6l1.6-4.4h-0.7l-1.2,3.5l-1.2-3.5H56L57.6,208z
				 M62.2,208.1c0.6,0,1.2-0.2,1.7-0.7l-0.4-0.4c-0.3,0.3-0.8,0.5-1.2,0.5c-0.7,0-1.3-0.6-1.3-1.3c0-0.1,0-0.1,0-0.2H64
				c0-0.1,0-0.2,0-0.3c0-1-0.4-2.1-1.9-2.1c-1.1,0.1-2,1-1.9,2.1c0,0.1,0,0.1,0,0.2c-0.1,1.1,0.6,2.1,1.7,2.2
				C62,208.1,62.1,208.1,62.2,208.1z M60.9,205.5c0-0.7,0.4-1.4,1.2-1.4c0.9,0,1.2,0.7,1.2,1.4H60.9z M67.7,208h0.7v-3.9h1.3v-0.5
				h-1.3v-0.7c0-0.4,0.2-0.7,0.6-0.7c0.2,0,0.4,0.1,0.5,0.1l0.2-0.5c-0.2-0.1-0.5-0.2-0.7-0.2c-0.6,0-1.1,0.4-1.2,1
				c0,0.1,0,0.1,0,0.2v0.7h-0.8v0.5h0.8L67.7,208z M70.5,208h0.6v-2.2c0-1.1,0.5-1.7,1.2-1.7c0.2,0,0.4,0,0.5,0.2l0.3-0.6
				c-0.2-0.2-0.5-0.2-0.7-0.2c-0.6,0-1.1,0.3-1.3,0.9v-0.8h-0.7V208z M75,208.1c0.7,0,1.3-0.3,1.5-0.9l0,0.8h0.6v-2.7
				c0.1-0.9-0.5-1.7-1.4-1.8c-0.1,0-0.2,0-0.3,0c-0.7,0-1.3,0.3-1.7,0.9l0.5,0.4c0.3-0.4,0.7-0.7,1.2-0.7c0.8,0,1.1,0.6,1.1,1.4h-1
				c-1.2,0-1.9,0.4-1.9,1.3c0,0.7,0.5,1.3,1.3,1.3C74.9,208.1,75,208.1,75,208.1L75,208.1z M75.1,207.5c-0.5,0-0.8-0.2-0.8-0.7
				c0-0.6,0.4-0.8,1.3-0.8h0.9C76.5,206.8,75.9,207.5,75.1,207.5z M78.5,208h0.7v-2.3c0-0.8,0.4-1.6,1.1-1.6c0.8,0,0.9,0.7,0.9,1.3
				v2.6h0.7v-2.4c0-0.7,0.4-1.5,1.1-1.5c0.8,0,0.9,0.7,0.9,1.3v2.6h0.7v-2.7c0-1-0.4-1.8-1.5-1.8c-0.6,0-1.1,0.4-1.4,0.9
				c-0.2-0.6-0.7-1-1.3-0.9c-0.5,0-1,0.3-1.2,0.8v-0.7h-0.7V208z M87.6,208.1c0.6,0,1.2-0.2,1.7-0.7l-0.4-0.4
				c-0.3,0.3-0.8,0.5-1.2,0.5c-0.7,0-1.3-0.6-1.3-1.3c0-0.1,0-0.1,0-0.2h3.1c0-0.1,0-0.2,0-0.3c0-1-0.4-2.1-1.9-2.1
				c-1.1,0.1-2,1-1.9,2.1c0,0.1,0,0.1,0,0.2c-0.1,1.1,0.6,2.1,1.7,2.2C87.4,208.1,87.5,208.1,87.6,208.1z M86.3,205.5
				c0-0.7,0.4-1.4,1.2-1.4c0.9,0,1.2,0.7,1.2,1.4H86.3z"/>
			<path id="Path_161617" d="M29.9,93h0.7v-6.2h-0.7V93z M32.3,93H33v-2.3c0-1.1,0.5-1.6,1.2-1.6c0.8,0,1,0.7,1,1.3V93h0.7v-2.7
				c0-1-0.4-1.8-1.5-1.8c-0.6,0-1.1,0.3-1.4,0.8v-0.8h-0.7V93z M38.4,93.1c0.2,0,0.4,0,0.6-0.1v-0.6c-0.1,0.1-0.3,0.1-0.4,0.1
				c-0.3,0-0.6-0.2-0.6-0.7v-2.7h1.1v-0.5H38V87l-0.7,0.6v1h-0.7v0.5h0.7v2.7C37.4,92.6,37.7,93.1,38.4,93.1z M41.8,93.1
				c0.6,0,1.2-0.2,1.7-0.7L43,92c-0.3,0.3-0.8,0.5-1.2,0.5c-0.7,0-1.3-0.6-1.3-1.3c0-0.1,0-0.1,0-0.2h3.1c0-0.1,0-0.2,0-0.3
				c0-1-0.4-2.1-1.9-2.1c-1.1,0.1-2,1-1.9,2.1c0,0.1,0,0.1,0,0.2c-0.1,1.1,0.6,2.1,1.7,2.2C41.6,93.1,41.7,93.1,41.8,93.1z
				 M40.5,90.5c0-0.7,0.4-1.4,1.2-1.4c0.9,0,1.2,0.7,1.2,1.4H40.5z M44.7,93h0.7v-2.3c0-1.1,0.5-1.6,1.2-1.6c0.8,0,1,0.7,1,1.3V93
				h0.6v-2.7c0-1-0.4-1.8-1.5-1.8c-0.6,0-1.1,0.3-1.4,0.8v-0.8h-0.7V93z M50.8,93.1c0.2,0,0.4,0,0.6-0.1v-0.6
				c-0.1,0.1-0.3,0.1-0.4,0.1c-0.3,0-0.6-0.2-0.6-0.7v-2.7h1.1v-0.5h-1.1V87l-0.7,0.6v1h-0.7v0.5h0.7v2.7
				C49.8,92.6,50.1,93.1,50.8,93.1L50.8,93.1z M52.5,87.6h0.7v-0.8h-0.7V87.6z M52.6,93h0.6v-4.4h-0.6V93z M56.4,93.1
				c1.2,0,2.1-1,2.1-2.2c0,0,0-0.1,0-0.1c0.1-1.2-0.8-2.2-2-2.3c0,0-0.1,0-0.1,0c-1.2,0-2.1,1-2.1,2.2c0,0,0,0.1,0,0.1
				C54.3,92,55.2,93,56.4,93.1C56.4,93.1,56.4,93.1,56.4,93.1z M56.4,92.5c-1,0-1.4-0.9-1.4-1.7s0.4-1.7,1.4-1.7s1.4,0.9,1.4,1.7
				C57.9,91.7,57.4,92.5,56.4,92.5L56.4,92.5z M59.6,93h0.7v-2.3c0-1.1,0.5-1.6,1.2-1.6c0.8,0,1,0.7,1,1.3V93h0.7v-2.7
				c0-1-0.4-1.8-1.5-1.8c-0.6,0-1.1,0.3-1.4,0.8v-0.8h-0.7L59.6,93z"/>
			<path id="Path_46" class="st10" d="M5.3,85h9.4c2.8-0.1,5.2,2.2,5.3,5c-0.1,2.8-2.5,5.1-5.3,5H5.3c-2.8,0.1-5.2-2.2-5.3-5
				C0.1,87.2,2.5,84.9,5.3,85z"/>
		</g>
		<path id="Path_161627" d="M2.4,9.1c1.3,0.1,2.4-0.9,2.5-2.2c0,0,0,0,0,0c0-1.9-2.6-1.6-2.6-3c0.1-0.7,0.7-1.3,1.4-1.3
			c0.5,0,1,0.3,1.1,0.8l0.6-0.3C5.2,2.4,4.5,1.9,3.7,2C2.5,1.9,1.5,2.8,1.5,4c0,1.8,2.6,1.4,2.6,3c0,0.8-0.8,1.4-1.6,1.4
			c0,0-0.1,0-0.1,0C1.7,8.5,1.1,8,1,7.3c0-0.1,0-0.2,0-0.3L0.3,7.2c0,1,0.9,1.9,1.9,1.9C2.2,9.1,2.3,9.1,2.4,9.1z M7.5,9.1
			c0.7,0,1.4-0.2,2-0.7L9,7.9C8.6,8.3,8,8.4,7.5,8.4c-0.9,0-1.2-0.7-1-1.6h3.4c0-0.1,0-0.2,0-0.2c0.3-1.4,0.1-2.6-1.5-2.6
			C7.1,4.2,6,5.2,5.8,6.5C5.5,7.9,6,9.1,7.5,9.1z M6.6,6.2c0.2-0.9,0.9-1.5,1.8-1.5c0.9,0,1.2,0.6,1,1.5H6.6z M13.3,11.1H14l1.6-7
			h-0.7l-0.2,0.7C14.5,4.3,13.9,4,13.4,4c-1.3,0.2-2.3,1.2-2.5,2.5c-0.3,1.4,0.1,2.6,1.4,2.6c0.6,0,1.2-0.3,1.6-0.7L13.3,11.1z
			 M12.5,8.5c-0.9,0-1.1-0.9-0.9-1.8c0.2-1,0.9-2,1.9-2c1,0,1.1,0.9,0.9,1.8C14.2,7.5,13.5,8.5,12.5,8.5z M17.7,9.1
			c0.7,0,1.3-0.4,1.7-0.9L19.2,9H20l1.1-4.9h-0.7l-0.6,2.7c-0.2,0.9-1,1.6-1.9,1.7c-0.8,0-0.8-0.7-0.6-1.4l0.7-3h-0.7L16.5,7
			C16.2,8.1,16.5,9.1,17.7,9.1z M23.4,9.1c0.7,0,1.4-0.2,2-0.7L25,7.9c-0.4,0.4-1,0.6-1.5,0.5c-0.9,0-1.2-0.7-1-1.6h3.4
			c0-0.1,0-0.2,0-0.2c0.3-1.4,0.1-2.6-1.5-2.6C23,4.2,22,5.2,21.8,6.5C21.5,7.9,21.9,9.1,23.4,9.1z M22.6,6.2
			c0.2-0.9,0.9-1.5,1.8-1.5c0.9,0,1.2,0.6,1,1.5H22.6z M26.6,9h0.7L28,6.3c0.2-0.9,1-1.5,1.8-1.5c0.8,0,0.8,0.7,0.7,1.3L29.8,9h0.7
			l0.7-2.9c0.2-1.1,0-2-1.3-2c-0.7,0-1.3,0.3-1.7,0.8l0.2-0.7h-0.7L26.6,9z M33.9,9.1c0.9,0,1.7-0.5,2.1-1.3l-0.6-0.3
			c-0.3,0.6-0.8,1-1.5,1c-1,0-1.1-1-0.9-1.8c0.2-0.9,0.8-2,1.9-2c0.5,0,0.9,0.3,0.9,0.8c0,0,0,0.1,0,0.1l0.7-0.2
			C36.4,4.6,35.7,4,34.9,4c-1.3,0.1-2.4,1.1-2.6,2.5C32,7.9,32.4,9.1,33.9,9.1z M38.6,9.1c0.7,0,1.4-0.2,2-0.7l-0.4-0.4
			c-0.4,0.4-1,0.6-1.5,0.5c-0.9,0-1.2-0.7-1-1.6h3.4c0-0.1,0-0.2,0-0.2c0.3-1.4,0.1-2.6-1.5-2.6c-1.3,0.1-2.4,1.1-2.6,2.5
			C36.7,7.9,37.2,9.1,38.6,9.1z M37.8,6.2c0.2-0.9,0.9-1.5,1.8-1.5c0.9,0,1.2,0.6,1,1.5H37.8z M45.9,9.1c0.2,0,0.4,0,0.6-0.1
			l0.1-0.6c-0.2,0.1-0.4,0.1-0.6,0.1c-0.3,0-0.5-0.2-0.4-0.8l0.7-3h1.2l0.1-0.6h-1.2L47,2.3L46.1,3l-0.2,1.1H45l-0.1,0.6h0.8l-0.7,3
			C44.8,8.5,45,9.1,45.9,9.1z M47.8,11.1h0.8l4.2-7H52l-2.3,4l-0.5-4h-0.8L49.1,9L47.8,11.1z M52.2,11.1h0.7l0.7-2.8
			c0.2,0.5,0.8,0.9,1.4,0.8c1.3-0.2,2.3-1.2,2.5-2.5C57.7,5.2,57.3,4,56,4c-0.6,0-1.2,0.3-1.6,0.7l0.2-0.6h-0.7L52.2,11.1z
			 M54.8,8.5c-0.9,0-1.1-0.9-0.9-1.8c0.2-1,0.9-2,1.9-2c1,0,1.2,0.9,0.9,1.8C56.5,7.5,55.8,8.5,54.8,8.5z M60,9.1
			c0.7,0,1.4-0.2,2-0.7l-0.4-0.4c-0.4,0.4-1,0.6-1.5,0.5c-0.9,0-1.2-0.7-1-1.6h3.4c0-0.1,0-0.2,0-0.2c0.3-1.4,0.1-2.6-1.5-2.6
			c-1.3,0.1-2.4,1.1-2.6,2.5C58,7.9,58.5,9.1,60,9.1L60,9.1z M59.2,6.2c0.2-0.9,0.9-1.5,1.8-1.5c0.9,0,1.2,0.6,1,1.5H59.2z"/>
	</g>
</g>
</svg>
