<?xml version="1.0" encoding="utf-8"?>
<!-- Generator: Adobe Illustrator 25.1.0, SVG Export Plug-In . SVG Version: 6.00 Build 0)  -->
<svg version="1.1" id="Livello_1" xmlns="http://www.w3.org/2000/svg" xmlns:xlink="http://www.w3.org/1999/xlink" x="0px" y="0px"
	 viewBox="0 0 250 328" enable-background="new 0 0 250 328" xml:space="preserve">
<g>
	<defs>
		<rect id="SVGID_1_" y="0" width="250" height="328"/>
	</defs>
	<clipPath id="SVGID_2_">
		<use xlink:href="#SVGID_1_"  overflow="visible"/>
	</clipPath>
	<g id="zoom_04" clip-path="url(#SVGID_2_)">
		<g id="Raggruppa_24954" transform="translate(0 17)">
			<g id="Raggruppa_24952" transform="translate(-149 109.055)">
				<g id="Raggruppa_771" transform="translate(150 -87.908)">
					<g id="ambito" transform="translate(0 0)" opacity="0.099">
						<g id="Raggruppa_766" transform="translate(0 0)">
							<rect id="Rettangolo_1985" y="0" fill="#5151FC" stroke="#FFFFFF" stroke-width="0.22" width="107.439" height="2.213"/>
							<rect id="Rettangolo_1986" y="2.214" fill="#5151FC" stroke="#FFFFFF" stroke-width="0.22" width="107.439" height="3.467"/>
							<rect id="Rettangolo_1987" y="5.683" fill="#00C19C" stroke="#FFFFFF" stroke-width="0.22" width="107.439" height="1.729"/>
							<rect id="Rettangolo_1988" y="7.414" fill="#00C19C" stroke="#FFFFFF" stroke-width="0.22" width="107.439" height="2.95"/>
							
								<rect id="Rettangolo_1990" y="15.877" fill="#00FFB6" stroke="#FFFFFF" stroke-width="0.22" width="107.439" height="4.502"/>
							
								<rect id="Rettangolo_1991" y="20.381" fill="#00C19C" stroke="#FFFFFF" stroke-width="0.22" width="107.439" height="9.424"/>
							
								<rect id="Rettangolo_1994" y="37.743" fill="#5151FC" stroke="#FFFFFF" stroke-width="0.22" width="107.439" height="3.092"/>
							<rect id="Rettangolo_1995" y="40.836" fill="#5151FC" stroke="#FFFFFF" stroke-width="0.22" width="107.439" height="6.18"/>
							
								<rect id="Rettangolo_1996" y="47.018" fill="#5151FC" stroke="#FFFFFF" stroke-width="0.22" width="107.439" height="0.829"/>
							<rect id="Rettangolo_1997" y="47.848" fill="#5151FC" stroke="#FFFFFF" stroke-width="0.22" width="107.439" height="2.9"/>
							<rect id="Rettangolo_1998" y="50.75" fill="#00C19C" stroke="#FFFFFF" stroke-width="0.22" width="107.439" height="1.066"/>
							
								<rect id="Rettangolo_1999" y="51.817" fill="#5151FC" stroke="#FFFFFF" stroke-width="0.22" width="107.439" height="0.053"/>
							
								<rect id="Rettangolo_2000" y="51.872" fill="#5151FC" stroke="#FFFFFF" stroke-width="0.22" width="107.439" height="1.665"/>
							
								<rect id="Rettangolo_2002" y="60.848" fill="#00C19C" stroke="#FFFFFF" stroke-width="0.22" width="107.439" height="1.276"/>
							
								<rect id="Rettangolo_2003" y="62.126" fill="#00C19C" stroke="#FFFFFF" stroke-width="0.22" width="107.439" height="3.751"/>
							
								<rect id="Rettangolo_2004" y="65.878" fill="#5151FC" stroke="#FFFFFF" stroke-width="0.22" width="107.439" height="1.921"/>
							<rect id="Rettangolo_2005" y="67.8" fill="#00C19C" stroke="#FFFFFF" stroke-width="0.22" width="107.439" height="1.767"/>
							
								<rect id="Rettangolo_2006" y="69.571" fill="#5151FC" stroke="#FFFFFF" stroke-width="0.22" width="107.439" height="2.354"/>
							
								<rect id="Rettangolo_2007" y="71.926" fill="#00C19C" stroke="#FFFFFF" stroke-width="0.22" width="107.439" height="1.919"/>
							
								<rect id="Rettangolo_2008" y="73.847" fill="#5151FC" stroke="#FFFFFF" stroke-width="0.22" width="107.439" height="0.973"/>
							
								<rect id="Rettangolo_2009" y="74.822" fill="#5151FC" stroke="#FFFFFF" stroke-width="0.22" width="107.439" height="0.723"/>
							<rect id="Rettangolo_2010" y="75.547" fill="#5151FC" stroke="#FFFFFF" stroke-width="0.22" width="107.439" height="1.56"/>
							
								<rect id="Rettangolo_2011" y="77.108" fill="#5151FC" stroke="#FFFFFF" stroke-width="0.22" width="107.439" height="1.244"/>
							
								<rect id="Rettangolo_2012" y="78.356" fill="#00C19C" stroke="#FFFFFF" stroke-width="0.22" width="107.439" height="5.421"/>
							<rect id="Rettangolo_2013" y="83.78" fill="#5151FC" stroke="#FFFFFF" stroke-width="0.22" width="107.439" height="0.369"/>
							<rect id="Rettangolo_2014" y="84.15" fill="#5151FC" stroke="#FFFFFF" stroke-width="0.22" width="107.439" height="0.807"/>
							
								<rect id="Rettangolo_2015" y="84.958" fill="#00C19C" stroke="#FFFFFF" stroke-width="0.22" width="107.439" height="0.686"/>
							
								<rect id="Rettangolo_2016" y="85.646" fill="#5151FC" stroke="#FFFFFF" stroke-width="0.22" width="107.439" height="0.637"/>
							
								<rect id="Rettangolo_2017" y="86.284" fill="#00C19C" stroke="#FFFFFF" stroke-width="0.22" width="107.439" height="1.616"/>
							
								<rect id="Rettangolo_2018" y="87.902" fill="#009959" stroke="#FFFFFF" stroke-width="0.22" width="107.439" height="2.673"/>
							
								<rect id="Rettangolo_2019" y="90.576" fill="#8131F4" stroke="#FFFFFF" stroke-width="0.22" width="107.439" height="2.139"/>
							
								<rect id="Rettangolo_2020" y="92.719" fill="#00C19C" stroke="#FFFFFF" stroke-width="0.22" width="107.439" height="2.288"/>
							
								<rect id="Rettangolo_2021" y="95.008" fill="#009959" stroke="#FFFFFF" stroke-width="0.22" width="107.439" height="0.246"/>
							
								<rect id="Rettangolo_2022" y="95.256" fill="#00C19C" stroke="#FFFFFF" stroke-width="0.22" width="107.439" height="1.403"/>
							
								<rect id="Rettangolo_2023" y="96.661" fill="#5151FC" stroke="#FFFFFF" stroke-width="0.22" width="107.439" height="1.995"/>
							
								<rect id="Rettangolo_2024" y="98.659" fill="#5151FC" stroke="#FFFFFF" stroke-width="0.22" width="107.439" height="1.034"/>
							
								<rect id="Rettangolo_2025" y="99.694" fill="#5151FC" stroke="#FFFFFF" stroke-width="0.22" width="107.439" height="2.061"/>
							
								<rect id="Rettangolo_2027" y="105.73" fill="#5151FC" stroke="#FFFFFF" stroke-width="0.22" width="107.439" height="1.557"/>
							
								<rect id="Rettangolo_2028" y="107.288" fill="#8131F4" stroke="#FFFFFF" stroke-width="0.22" width="107.439" height="3.071"/>
							
								<rect id="Rettangolo_2029" y="110.361" fill="#00C19C" stroke="#FFFFFF" stroke-width="0.22" width="107.439" height="1.113"/>
							
								<rect id="Rettangolo_2030" y="111.475" fill="#00C19C" stroke="#FFFFFF" stroke-width="0.22" width="107.439" height="0.427"/>
							
								<rect id="Rettangolo_2034" y="139.98399" fill="#5151FC" stroke="#FFFFFF" stroke-width="0.22" width="107.439" height="2.889"/>
							
								<rect id="Rettangolo_2035" y="142.875" fill="#5151FC" stroke="#FFFFFF" stroke-width="0.22" width="107.439" height="0.893"/>
							
								<rect id="Rettangolo_2036" y="143.769" fill="#00C19C" stroke="#FFFFFF" stroke-width="0.22" width="107.439" height="3.867"/>
							
								<rect id="Rettangolo_2037" y="147.638" fill="#5151FC" stroke="#FFFFFF" stroke-width="0.22" width="107.439" height="1.133"/>
							
								<rect id="Rettangolo_2038" y="148.772" fill="#00C19C" stroke="#FFFFFF" stroke-width="0.22" width="107.439" height="0.75"/>
							
								<rect id="Rettangolo_2039" y="149.524" fill="#8131F4" stroke="#FFFFFF" stroke-width="0.22" width="107.439" height="2.454"/>
							
								<rect id="Rettangolo_2040" y="151.98" fill="#009959" stroke="#FFFFFF" stroke-width="0.22" width="107.439" height="2.123"/>
							
								<rect id="Rettangolo_2041" y="154.105" fill="#5151FC" stroke="#FFFFFF" stroke-width="0.22" width="107.439" height="0.986"/>
							
								<rect id="Rettangolo_2042" y="155.092" fill="#5151FC" stroke="#FFFFFF" stroke-width="0.22" width="107.439" height="1.626"/>
							<rect id="Rettangolo_2043" y="156.72" fill="#009959" stroke="#FFFFFF" stroke-width="0.22" width="107.439" height="2.34"/>
							
								<rect id="Rettangolo_2044" y="159.09599" fill="#009959" stroke="#FFFFFF" stroke-width="0.22" width="107.439" height="3.479"/>
							
								<rect id="Rettangolo_2045" y="162.576" fill="#00C19C" stroke="#FFFFFF" stroke-width="0.22" width="107.439" height="3.97"/>
							
								<rect id="Rettangolo_2046" y="166.548" fill="#009959" stroke="#FFFFFF" stroke-width="0.22" width="107.439" height="2.007"/>
							
								<rect id="Rettangolo_2047" y="168.55701" fill="#5151FC" stroke="#FFFFFF" stroke-width="0.22" width="107.439" height="2.451"/>
							
								<rect id="Rettangolo_2048" y="171.00999" fill="#5151FC" stroke="#FFFFFF" stroke-width="0.22" width="107.439" height="0.352"/>
							
								<rect id="Rettangolo_2049" y="171.36301" fill="#8131F4" stroke="#FFFFFF" stroke-width="0.22" width="107.439" height="2.524"/>
							
								<rect id="Rettangolo_2050" y="173.888" fill="#00C19C" stroke="#FFFFFF" stroke-width="0.22" width="107.439" height="7.55"/>
							
								<rect id="Rettangolo_2051" y="181.44" fill="#5151FC" stroke="#FFFFFF" stroke-width="0.22" width="107.439" height="0.849"/>
							
								<rect id="Rettangolo_2052" y="182.291" fill="#00C19C" stroke="#FFFFFF" stroke-width="0.22" width="107.439" height="0.53"/>
							
								<rect id="Rettangolo_2053" y="182.823" fill="#009959" stroke="#FFFFFF" stroke-width="0.22" width="107.439" height="1.229"/>
							
								<rect id="Rettangolo_2054" y="184.05299" fill="#00C19C" stroke="#FFFFFF" stroke-width="0.22" width="107.439" height="4.349"/>
							
								<rect id="Rettangolo_2056" y="195.41299" fill="#009959" stroke="#FFFFFF" stroke-width="0.22" width="107.439" height="3.159"/>
							
								<rect id="Rettangolo_2057" y="198.57401" fill="#00C19C" stroke="#FFFFFF" stroke-width="0.22" width="107.439" height="1.467"/>
							
								<rect id="Rettangolo_2059" y="214.233" fill="#009959" stroke="#FFFFFF" stroke-width="0.22" width="107.439" height="0.427"/>
							
								<rect id="Rettangolo_2060" y="214.661" fill="#5151FC" stroke="#FFFFFF" stroke-width="0.22" width="107.439" height="0.926"/>
							
								<rect id="Rettangolo_2061" y="215.589" fill="#00C19C" stroke="#FFFFFF" stroke-width="0.22" width="107.439" height="3.722"/>
							
								<rect id="Rettangolo_2062" y="219.313" fill="#00C19C" stroke="#FFFFFF" stroke-width="0.22" width="107.439" height="1.011"/>
							
								<rect id="Rettangolo_2063" y="220.325" fill="#00C19C" stroke="#FFFFFF" stroke-width="0.22" width="107.439" height="1.593"/>
							
								<rect id="Rettangolo_2064" y="221.92" fill="#8AE297" stroke="#FFFFFF" stroke-width="0.22" width="107.439" height="2.202"/>
							
								<rect id="Rettangolo_2065" y="224.123" fill="#00C19C" stroke="#FFFFFF" stroke-width="0.22" width="107.439" height="1.588"/>
							
								<rect id="Rettangolo_2069" y="234.716" fill="#00C19C" stroke="#FFFFFF" stroke-width="0.22" width="107.439" height="1.367"/>
							
								<rect id="Rettangolo_2071" y="243.005" fill="#5151FC" stroke="#FFFFFF" stroke-width="0.22" width="107.439" height="1.045"/>
							
								<rect id="Rettangolo_2072" y="244.052" fill="#5151FC" stroke="#FFFFFF" stroke-width="0.22" width="107.439" height="0.813"/>
							
								<rect id="Rettangolo_2073" y="244.867" fill="#00C19C" stroke="#FFFFFF" stroke-width="0.22" width="107.439" height="1.847"/>
							
								<rect id="Rettangolo_2075" y="254.02499" fill="#5151FC" stroke="#FFFFFF" stroke-width="0.22" width="107.439" height="0.46"/>
							
								<rect id="Rettangolo_2076" y="254.487" fill="#00C19C" stroke="#FFFFFF" stroke-width="0.22" width="107.439" height="3.503"/>
							
								<rect id="Rettangolo_2077" y="257.991" fill="#5151FC" stroke="#FFFFFF" stroke-width="0.22" width="107.439" height="0.745"/>
							
								<rect id="Rettangolo_2078" y="258.73801" fill="#5151FC" stroke="#FFFFFF" stroke-width="0.22" width="107.439" height="2.037"/>
							
								<rect id="Rettangolo_2079" y="260.77701" fill="#5151FC" stroke="#FFFFFF" stroke-width="0.22" width="107.439" height="2.015"/>
							
								<rect id="Rettangolo_2080" y="262.793" fill="#00C19C" stroke="#FFFFFF" stroke-width="0.22" width="107.439" height="1.489"/>
							
								<rect id="Rettangolo_2081" y="264.284" fill="#5151FC" stroke="#FFFFFF" stroke-width="0.22" width="107.439" height="1.734"/>
							
								<rect id="Rettangolo_2082" y="266.01999" fill="#00C19C" stroke="#FFFFFF" stroke-width="0.22" width="107.439" height="1.544"/>
							
								<rect id="Rettangolo_2083" y="267.56601" fill="#009959" stroke="#FFFFFF" stroke-width="0.22" width="107.439" height="4.258"/>
						</g>
					</g>
					<g id="cateogire_grey" transform="translate(107.571 10.321)">
						<g id="Raggruppa_556" transform="translate(0 0)">
							
								<rect id="Rettangolo_2084" x="0" y="0" fill="#00C19C" stroke="#FFFFFF" stroke-width="0.22" width="107.439" height="2.567"/>
							
								<rect id="Rettangolo_2085" x="0" y="2.569" fill="#8131F4" stroke="#FFFFFF" stroke-width="0.22" width="107.439" height="2.939"/>
							
								<rect id="Rettangolo_2086" x="0" y="19.441" fill="#00C19C" stroke="#FFFFFF" stroke-width="0.22" width="107.439" height="2.619"/>
							
								<rect id="Rettangolo_2087" x="0" y="22.062" fill="#8131F4" stroke="#FFFFFF" stroke-width="0.22" width="107.439" height="1.119"/>
							
								<rect id="Rettangolo_2088" x="0" y="23.922" fill="#5151FC" stroke="#FFFFFF" stroke-width="0.22" width="107.439" height="1.868"/>
							
								<rect id="Rettangolo_2089" x="0" y="25.791" fill="#5151FC" stroke="#FFFFFF" stroke-width="0.22" width="107.439" height="0.824"/>
							
								<rect id="Rettangolo_2090" x="0" y="26.616" fill="#8131F4" stroke="#FFFFFF" stroke-width="0.22" width="107.439" height="0.758"/>
							
								<rect id="Rettangolo_2091" x="0" y="43.174" fill="#00C19C" stroke="#FFFFFF" stroke-width="0.22" width="107.439" height="4.076"/>
							
								<rect id="Rettangolo_2092" x="0" y="47.251" fill="#009959" stroke="#FFFFFF" stroke-width="0.22" width="107.439" height="0.441"/>
							
								<rect id="Rettangolo_2093" x="0" y="47.694" fill="#5151FC" stroke="#FFFFFF" stroke-width="0.22" width="107.439" height="1.144"/>
							
								<rect id="Rettangolo_2094" x="0" y="48.84" fill="#5151FC" stroke="#FFFFFF" stroke-width="0.22" width="107.439" height="0.703"/>
							
								<rect id="Rettangolo_2095" x="0" y="49.544" fill="#00C19C" stroke="#FFFFFF" stroke-width="0.22" width="107.439" height="0.935"/>
							
								<rect id="Rettangolo_2096" x="0" y="91.391" fill="#8131F4" stroke="#FFFFFF" stroke-width="0.22" width="107.439" height="1.883"/>
							
								<rect id="Rettangolo_2097" x="0" y="93.276" fill="#8AE297" stroke="#FFFFFF" stroke-width="0.22" width="107.439" height="2.086"/>
							
								<rect id="Rettangolo_2098" x="0" y="101.54" fill="#8AE297" stroke="#FFFFFF" stroke-width="0.22" width="107.439" height="3.341"/>
							
								<rect id="Rettangolo_2099" x="0" y="104.883" fill="#00C19C" stroke="#FFFFFF" stroke-width="0.22" width="107.439" height="3.741"/>
							
								<rect id="Rettangolo_2100" x="0" y="108.625" fill="#8AE297" stroke="#FFFFFF" stroke-width="0.22" width="107.439" height="1.458"/>
							
								<rect id="Rettangolo_2101" x="0" y="110.085" fill="#5151FC" stroke="#FFFFFF" stroke-width="0.22" width="107.439" height="2.753"/>
							
								<rect id="Rettangolo_2102" x="0" y="112.841" fill="#5151FC" stroke="#FFFFFF" stroke-width="0.22" width="107.439" height="1.508"/>
							
								<rect id="Rettangolo_2103" x="0" y="114.35" fill="#00C19C" stroke="#FFFFFF" stroke-width="0.22" width="107.439" height="1.202"/>
							
								<rect id="Rettangolo_2104" x="0" y="115.554" fill="#5151FC" stroke="#FFFFFF" stroke-width="0.22" width="107.439" height="0.902"/>
							
								<rect id="Rettangolo_2105" x="0" y="116.458" fill="#00C19C" stroke="#FFFFFF" stroke-width="0.22" width="107.439" height="0.262"/>
							
								<rect id="Rettangolo_2106" x="0" y="116.723" fill="#00C19C" stroke="#FFFFFF" stroke-width="0.22" width="107.439" height="1.999"/>
							
								<rect id="Rettangolo_2107" x="0" y="118.724" fill="#5151FC" stroke="#FFFFFF" stroke-width="0.22" width="107.439" height="1.645"/>
							
								<rect id="Rettangolo_2108" x="0" y="120.37" fill="#5151FC" stroke="#FFFFFF" stroke-width="0.22" width="107.439" height="1.083"/>
							
								<rect id="Rettangolo_2109" x="0" y="121.455" fill="#00C19C" stroke="#FFFFFF" stroke-width="0.22" width="107.439" height="0.869"/>
							
								<rect id="Rettangolo_2110" x="0" y="122.327" fill="#8AE297" stroke="#FFFFFF" stroke-width="0.22" width="107.439" height="4.617"/>
							
								<rect id="Rettangolo_2111" x="0" y="126.946" fill="#5151FC" stroke="#FFFFFF" stroke-width="0.22" width="107.439" height="0.508"/>
							
								<rect id="Rettangolo_2112" x="0" y="127.456" fill="#00C19C" stroke="#FFFFFF" stroke-width="0.22" width="107.439" height="1.285"/>
							
								<rect id="Rettangolo_2113" x="0" y="128.743" fill="#00C19C" stroke="#FFFFFF" stroke-width="0.22" width="107.439" height="0.873"/>
							
								<rect id="Rettangolo_2114" x="0" y="178.03799" fill="#5151FC" stroke="#FFFFFF" stroke-width="0.22" width="107.439" height="0.771"/>
							
								<rect id="Rettangolo_2115" x="0" y="178.81" fill="#009959" stroke="#FFFFFF" stroke-width="0.22" width="107.439" height="2.461"/>
							
								<rect id="Rettangolo_2116" x="0" y="181.272" fill="#00C19C" stroke="#FFFFFF" stroke-width="0.22" width="107.439" height="3.774"/>
							
								<rect id="Rettangolo_2117" x="0" y="190.556" fill="#5151FC" stroke="#FFFFFF" stroke-width="0.22" width="107.439" height="1.64"/>
							
								<rect id="Rettangolo_2118" x="0" y="192.198" fill="#009959" stroke="#FFFFFF" stroke-width="0.22" width="107.439" height="7.955"/>
							
								<rect id="Rettangolo_2119" x="0" y="200.15401" fill="#00C19C" stroke="#FFFFFF" stroke-width="0.22" width="107.439" height="3.712"/>
							
								<rect id="Rettangolo_2120" x="0" y="216.537" fill="#00C19C" stroke="#FFFFFF" stroke-width="0.22" width="107.439" height="1.026"/>
							
								<rect id="Rettangolo_2121" x="0" y="218.739" fill="#00C19C" stroke="#FFFFFF" stroke-width="0.22" width="107.439" height="1.092"/>
							
								<rect id="Rettangolo_2122" x="0" y="222.22701" fill="#00C19C" stroke="#FFFFFF" stroke-width="0.22" width="107.439" height="1.668"/>
							
								<rect id="Rettangolo_2123" x="0" y="226.703" fill="#5151FC" stroke="#FFFFFF" stroke-width="0.22" width="107.439" height="2.647"/>
							
								<rect id="Rettangolo_2124" x="0" y="229.35201" fill="#00C19C" stroke="#FFFFFF" stroke-width="0.22" width="107.439" height="3.286"/>
							
								<rect id="Rettangolo_2125" x="0" y="239.168" fill="#5151FC" stroke="#FFFFFF" stroke-width="0.22" width="107.439" height="2.964"/>
							
								<rect id="Rettangolo_2126" x="0" y="242.134" fill="#8AE297" stroke="#FFFFFF" stroke-width="0.22" width="107.439" height="1.248"/>
						</g>
					</g>
				</g>
				
					<rect id="Rettangolo_2179" x="150" y="-77.543" fill="#5151FC" stroke="#FFFFFF" stroke-width="0.22" width="107.439" height="5.508"/>
				
					<rect id="Rettangolo_2180" x="150" y="-58.102" fill="#5151FC" stroke="#FFFFFF" stroke-width="0.22" width="107.439" height="3.74"/>
				
					<rect id="Rettangolo_2181" x="150" y="-54.359" fill="#5151FC" stroke="#FFFFFF" stroke-width="0.22" width="107.439" height="4.19"/>
				
					<rect id="Rettangolo_2182" x="150" y="-34.368" fill="#5151FC" stroke="#FFFFFF" stroke-width="0.22" width="107.439" height="7.305"/>
				
					<rect id="Rettangolo_2183" x="150" y="13.848" fill="#5151FC" stroke="#FFFFFF" stroke-width="0.22" width="107.439" height="3.97"/>
				
					<rect id="Rettangolo_2184" x="150" y="23.997" fill="#5151FC" stroke="#FFFFFF" stroke-width="0.22" width="107.439" height="11.298"/>
				
					<rect id="Rettangolo_2185" x="150" y="35.298" fill="#5151FC" stroke="#FFFFFF" stroke-width="0.22" width="107.439" height="9.484"/>
				
					<rect id="Rettangolo_2186" x="150" y="44.785" fill="#5151FC" stroke="#FFFFFF" stroke-width="0.22" width="107.439" height="7.288"/>
				
					<rect id="Rettangolo_2187" x="150" y="100.495" fill="#5151FC" stroke="#FFFFFF" stroke-width="0.22" width="107.439" height="7.009"/>
				
					<rect id="Rettangolo_2188" x="150" y="112.135" fill="#5151FC" stroke="#FFFFFF" stroke-width="0.22" width="107.439" height="14.188"/>
				
					<rect id="Rettangolo_2189" x="150" y="137.80499" fill="#5151FC" stroke="#FFFFFF" stroke-width="0.22" width="107.439" height="2.216"/>
				
					<rect id="Rettangolo_2190" x="150" y="140.022" fill="#5151FC" stroke="#FFFFFF" stroke-width="0.22" width="107.439" height="2.266"/>
				
					<rect id="Rettangolo_2191" x="150" y="142.28999" fill="#5151FC" stroke="#FFFFFF" stroke-width="0.22" width="107.439" height="4.517"/>
				
					<rect id="Rettangolo_2192" x="150" y="148.17599" fill="#5151FC" stroke="#FFFFFF" stroke-width="0.22" width="107.439" height="6.919"/>
				
					<rect id="Rettangolo_2193" x="150" y="158.80701" fill="#5151FC" stroke="#FFFFFF" stroke-width="0.22" width="107.439" height="7.308"/>
				<line id="Linea_233" fill="none" stroke="#000000" x1="257.48599" y1="-87.982" x2="257.48599" y2="183.995"/>
				<path id="Tracciato_131" fill="none" stroke="#5151FC" d="M369.90674,100.4939v25.72095"/>
				<path id="Tracciato_132" fill="none" stroke="#5151FC" d="M369.90674,138.49585v7.81006"/>
				<path id="Tracciato_133" fill="none" stroke="#5151FC" d="M369.90674,148.67993v17.3689"/>
				<g enable-background="new    ">
					<path d="M368.49023,94.10632l0.70898-0.16992c0.12988,0.89941,0.80957,1.46875,1.74902,1.46875
						c1.00977,0,1.51953-0.5293,1.51953-1.21875c0-0.75-0.43066-1.13965-1.65918-1.60938
						c-1.40918-0.5293-1.89844-1.0293-1.89844-1.93848c0-1.05957,0.79883-1.75977,1.97852-1.75977
						c0.87891,0,1.56836,0.38965,1.98828,1.12988l-0.59961,0.36914c-0.29883-0.53906-0.80859-0.85938-1.4082-0.85938
						c-0.73047,0-1.25,0.5-1.25,1.08984c0,0.63965,0.47949,0.97949,1.5791,1.39941c1.5498,0.58887,1.98926,1.14941,1.98926,2.11816
						c0,1.16992-0.81055,1.91895-2.24902,1.91895C369.64844,96.04479,368.67969,95.27526,368.49023,94.10632z"/>
					<path d="M378.64648,93.66686h-3.60742c0.01953,1.0791,0.61914,1.72852,1.58984,1.72852
						c0.53906,0,0.96875-0.13965,1.41797-0.61914l0.48047,0.41895c-0.58008,0.61035-1.14941,0.83008-1.90918,0.83008
						c-1.49902,0-2.26855-1.11914-2.26855-2.51855c0-1.38965,0.75977-2.56836,2.18945-2.56836
						c1.50781,0,2.13867,1.17871,2.13867,2.29785C378.67773,93.37682,378.66699,93.54675,378.64648,93.66686z M375.03906,93.08678
						h2.97852c0-0.02051-0.00977-0.07031-0.00977-0.16016c-0.05078-0.7998-0.56055-1.40918-1.46875-1.40918
						C375.64844,91.51745,375.09961,92.21764,375.03906,93.08678z"/>
					<path d="M383.06738,91.14831l-0.33984,0.55957c-0.22949-0.10059-0.43945-0.15039-0.64941-0.15039
						c-0.75977,0-1.31934,0.56934-1.31934,1.63965v2.74805h-0.68945v-4.92773h0.68945v0.74023
						c0.36035-0.64941,0.95996-0.81934,1.45898-0.81934C382.51758,90.93835,382.79785,90.99792,383.06738,91.14831z"/>
					<path d="M384.0293,88.97936h0.79883v1.01953h-0.79883V88.97936z M384.08984,91.01745h0.68945v4.92773h-0.68945V91.01745z"/>
					<path d="M390.49609,93.66686h-3.60742c0.01953,1.0791,0.61914,1.72852,1.58984,1.72852
						c0.53906,0,0.96875-0.13965,1.41797-0.61914l0.48047,0.41895c-0.58008,0.61035-1.14941,0.83008-1.90918,0.83008
						c-1.49902,0-2.26855-1.11914-2.26855-2.51855c0-1.38965,0.75977-2.56836,2.18945-2.56836
						c1.50781,0,2.13867,1.17871,2.13867,2.29785C390.52734,93.37682,390.5166,93.54675,390.49609,93.66686z M386.88867,93.08678
						h2.97852c0-0.02051-0.00977-0.07031-0.00977-0.16016c-0.05078-0.7998-0.56055-1.40918-1.46875-1.40918
						C387.49805,91.51745,386.94922,92.21764,386.88867,93.08678z"/>
					<path d="M391.38965,94.7362l0.5791-0.25977c0.17969,0.50977,0.66016,0.93945,1.42969,0.93945
						c0.66992,0,1.09961-0.33008,1.09961-0.84961c0-1.30957-2.83887-0.49023-2.83887-2.23926
						c0-0.85938,0.7002-1.38867,1.68945-1.38867c0.79004,0,1.42871,0.3291,1.76855,1.0293l-0.54883,0.2998
						c-0.24023-0.44043-0.63086-0.71973-1.24023-0.71973s-0.99902,0.25-0.99902,0.67969c0,1.16895,2.84863,0.42969,2.84863,2.29883
						c0,0.99902-0.82031,1.49902-1.76953,1.49902C392.43945,96.02526,391.64941,95.52526,391.38965,94.7362z"/>
				</g>
				<g id="Ellisse_33638" transform="translate(375 105.945)">
					<circle fill="#FFFFFF" cx="7" cy="7" r="7"/>
					<circle fill="none" stroke="#4500FF" cx="7" cy="7" r="6.5"/>
				</g>
				<g id="Ellisse_33639" transform="translate(375 134.945)">
					<circle fill="#FFFFFF" cx="7" cy="7" r="7"/>
					<circle fill="none" stroke="#4500FF" cx="7" cy="7" r="6.5"/>
				</g>
				<g id="Ellisse_33640" transform="translate(375 151.945)">
					<circle fill="#FFFFFF" cx="7" cy="7" r="7"/>
					<circle fill="none" stroke="#4500FF" cx="7" cy="7" r="6.5"/>
				</g>
			</g>
			<g enable-background="new    ">
				<path fill="#5151FC" d="M233.56348,219.11835v4.88184h-0.4834v-3.62109h-1.21875v-0.47656h0.8125
					c0.24512,0,0.40625-0.08398,0.40625-0.37109v-0.41309H233.56348z"/>
			</g>
			<g enable-background="new    ">
				<path fill="#5151FC" d="M234.66309,252.5451v0.45508h-3.37598v-0.44824c1.1416-0.71484,2.66211-1.7373,2.66211-3.03223
					c0-0.61719-0.34375-1.00879-0.97461-1.00879c-0.74219,0-1.07812,0.53906-1.08496,1.26074l-0.47656-0.03516
					c0-0.95996,0.55371-1.68848,1.56152-1.68848c0.86914,0,1.46484,0.54004,1.46484,1.47852
					c0,1.24609-1.10742,2.24121-2.34668,3.01855H234.66309z"/>
			</g>
			<g enable-background="new    ">
				<path fill="#5151FC" d="M231.23047,268.54315l0.47656-0.02734c0,0.69336,0.51172,1.0918,1.24707,1.0918
					c0.69336,0,1.21875-0.37109,1.21875-1.03613c0-0.82617-0.83301-0.93848-1.46387-0.93848v-0.40625
					c0.70703,0,1.20508-0.2666,1.20508-0.87598c0-0.57422-0.4209-0.83984-0.93945-0.83984
					c-0.60938,0-1.0293,0.33594-1.03613,0.93848l-0.46973-0.03516c0-0.84766,0.6377-1.36621,1.48535-1.36621
					c0.77051,0,1.44238,0.44824,1.44238,1.24707c0,0.58887-0.37109,0.98047-0.73438,1.09961
					c0.53125,0.09766,0.99414,0.50391,0.99414,1.21875c0,0.9248-0.75684,1.45703-1.70898,1.45703
					C231.97363,270.0705,231.23047,269.53046,231.23047,268.54315z"/>
			</g>
			<g enable-background="new    ">
				<path d="M36.27148,298.42694h0.56738v5.0459h2.54297v0.52734h-3.11035V298.42694z"/>
				<path d="M40.56738,298.42694h3.65381v0.52832h-3.08643v1.94238h2.7749v0.52832h-2.7749v2.04688h3.08643v0.52734h-3.65381
					V298.42694z"/>
				<path d="M49.86865,298.42694l-2.19873,5.57324h-0.46387l-2.20654-5.57324h0.63135l1.80713,4.68555l1.80713-4.68555H49.86865z"/>
				<path d="M51.07129,298.42694h3.65381v0.52832h-3.08643v1.94238h2.7749v0.52832h-2.7749v2.04688h3.08643v0.52734h-3.65381
					V298.42694z"/>
				<path d="M56.12695,298.42694h0.56738v5.0459h2.54297v0.52734h-3.11035V298.42694z"/>
				<path d="M63.89404,298.95526h-1.92676v-0.52832h4.4375v0.52832h-1.93506v5.04492h-0.57568V298.95526z"/>
				<path d="M67.17529,298.42694h0.5918l1.34277,4.72559l1.42334-4.42969h0.50391l1.42334,4.42969l1.33496-4.72559h0.59961
					l-1.61475,5.57324h-0.57568l-1.41553-4.37402l-1.42334,4.37402h-0.5752L67.17529,298.42694z"/>
				<path d="M75.11084,301.21796c0-1.72754,1.02344-2.87109,2.55078-2.87109c1.52686,0,2.55029,1.14355,2.55029,2.87109
					c0,1.71875-1.02344,2.8623-2.55029,2.8623C76.13428,304.08026,75.11084,302.93671,75.11084,301.21796z M79.64453,301.21796
					c0-1.42383-0.77588-2.32715-1.98291-2.32715c-1.20752,0-1.98291,0.90332-1.98291,2.32715
					c0,1.41504,0.77539,2.31836,1.98291,2.31836C78.86865,303.53632,79.64453,302.633,79.64453,301.21796z"/>
			</g>
			<g enable-background="new    ">
				<path d="M143.73145,299.42694h0.56738v5.0459h2.54297v0.52734h-3.11035V299.42694z"/>
				<path d="M148.02734,299.42694h3.6543v0.52832h-3.08691v1.94238h2.77539v0.52832h-2.77539v2.04688h3.08691v0.52734h-3.6543
					V299.42694z"/>
				<path d="M157.3291,299.42694l-2.19922,5.57324h-0.46387l-2.20605-5.57324h0.63086l1.80762,4.68555l1.80664-4.68555H157.3291z"/>
				<path d="M158.53125,299.42694h3.6543v0.52832h-3.08691v1.94238h2.77539v0.52832h-2.77539v2.04688h3.08691v0.52734h-3.6543
					V299.42694z"/>
				<path d="M163.58691,299.42694h0.56738v5.0459h2.54297v0.52734h-3.11035V299.42694z"/>
				<path d="M171.35449,299.95526h-1.92676v-0.52832h4.4375v0.52832h-1.93555v5.04492h-0.5752V299.95526z"/>
				<path d="M175.05078,299.42694h0.56738v2.46289h2.89453v-2.46289h0.57617v5.57324h-0.57617v-2.57422h-2.89453v2.57422h-0.56738
					V299.42694z"/>
				<path d="M184.05762,305.00018l-1.42383-2.4707h-0.375h-0.77637v2.4707h-0.56738v-5.57324h1.59082
					c1.2002,0,1.83984,0.53613,1.83984,1.54395c0,0.7832-0.39258,1.28711-1.14355,1.48633l1.51855,2.54297H184.05762z
					 M182.4502,302.00214c0.87988,0,1.31934-0.34375,1.31934-1.02344s-0.43945-1.02344-1.31934-1.02344h-0.96777v2.04688H182.4502z"
					/>
				<path d="M185.97852,299.42694h3.6543v0.52832h-3.08691v1.94238h2.77539v0.52832h-2.77539v2.04688h3.08691v0.52734h-3.6543
					V299.42694z"/>
				<path d="M191.03516,299.42694h3.65332v0.52832h-3.08594v1.94238h2.77441v0.52832h-2.77441v2.04688h3.08594v0.52734h-3.65332
					V299.42694z"/>
			</g>
		</g>
		<g enable-background="new    ">
			<path d="M1.25928,3.64081h1.06738v7.37598h3.74219v0.9834H1.25928V3.64081z"/>
			<path d="M11.94873,8.30585v3.69434h-0.94727l-0.07178-0.8877c-0.41992,0.63574-1.12744,0.99609-2.01514,0.99609
				c-1.271,0-2.07471-0.71973-2.07471-1.85938c0-0.62402,0.26367-1.10352,0.74365-1.36719
				c0.44385-0.24023,1.03125-0.33594,2.02686-0.33594h1.30713V8.30585c0-0.91113-0.50391-1.41504-1.40332-1.41504
				c-0.69531,0-1.25928,0.32422-1.72705,0.94727L7.04346,7.21503c0.65967-0.83984,1.46338-1.23535,2.49463-1.23535
				C11.04932,5.97968,11.94873,6.84296,11.94873,8.30585z M10.91748,9.40936V9.34979h-1.1875
				c-0.89941,0-1.30713,0.07227-1.55908,0.26367c-0.19189,0.15625-0.2998,0.38379-0.2998,0.68359
				c0,0.57617,0.4917,0.94727,1.2832,0.94727C10.19775,11.24432,10.91748,10.50116,10.91748,9.40936z"/>
			<path d="M21.87256,8.31854v3.68164h-1.03174V8.5705c0-0.98438-0.27539-1.67969-1.23486-1.67969
				c-1.1875,0-1.61914,1.0918-1.61914,2.55469v2.55469h-1.03174V6.0871h1.03174v0.80371
				c0.39551-0.5752,1.09131-0.91113,1.89502-0.91113C21.17676,5.97968,21.87256,6.7951,21.87256,8.31854z"/>
			<path d="M28.42432,6.0871v5.91309h-1.03125v-0.80371c-0.41992,0.62402-1.15137,0.91211-1.89502,0.91211
				c-1.39111,0-1.99121-0.98438-1.99121-2.375V6.0871h1.03174v3.39453c0,0.76758,0.10791,1.71484,1.22314,1.71484
				c1.23535,0,1.63135-1.1748,1.63135-2.54199V6.0871H28.42432z"/>
			<path d="M29.57959,6.0871h1.11523l1.71533,4.58203l1.73877-4.58203h1.12744l-2.42285,5.91309h-0.86328L29.57959,6.0871z"/>
			<path d="M35.72314,9.03827c0-1.72754,1.12744-3.05859,2.8667-3.05859c1.72656,0,2.89014,1.33105,2.89014,3.05859
				c0,1.71484-1.15137,3.07031-2.89014,3.07031C36.85059,12.10858,35.72314,10.76483,35.72314,9.03827z M40.44873,9.03827
				c0-1.22363-0.64795-2.14746-1.85889-2.14746c-1.21143,0-1.83545,0.93555-1.83545,2.14746
				c0,1.21094,0.63574,2.1582,1.83545,2.1582C39.80078,11.19647,40.44873,10.23749,40.44873,9.03827z"/>
			<path d="M42.92285,10.66913V3.64081h1.03125v6.96777c0,0.36035,0.14404,0.57617,0.4917,0.57617
				c0.16797,0,0.35986-0.04785,0.52783-0.0957l0.01221,0.85156c-0.27588,0.0957-0.58789,0.16797-0.85156,0.16797
				C43.41455,12.10858,42.92285,11.64081,42.92285,10.66913z"/>
			<path d="M50.77979,8.30585v3.69434h-0.94727l-0.07178-0.8877c-0.41992,0.63574-1.12744,0.99609-2.01514,0.99609
				c-1.271,0-2.07471-0.71973-2.07471-1.85938c0-0.62402,0.26367-1.10352,0.74365-1.36719
				c0.44385-0.24023,1.03125-0.33594,2.02686-0.33594h1.30713V8.30585c0-0.91113-0.50391-1.41504-1.40332-1.41504
				c-0.69531,0-1.25928,0.32422-1.72705,0.94727l-0.74365-0.62305c0.65967-0.83984,1.46338-1.23535,2.49463-1.23535
				C49.88037,5.97968,50.77979,6.84296,50.77979,8.30585z M49.74854,9.40936V9.34979h-1.1875
				c-0.89941,0-1.30713,0.07227-1.55908,0.26367c-0.19189,0.15625-0.2998,0.38379-0.2998,0.68359
				c0,0.57617,0.4917,0.94727,1.2832,0.94727C49.02881,11.24432,49.74854,10.50116,49.74854,9.40936z"/>
			<path d="M60.81152,3.64081v8.35938h-1.03125v-0.73145c-0.41992,0.55176-1.0918,0.83984-1.87109,0.83984
				c-1.69141,0-2.59082-1.30762-2.59082-3.07031c0-1.87109,1.00781-3.05859,2.59082-3.05859
				c0.7793,0,1.46289,0.31152,1.87109,0.85156V3.64081H60.81152z M59.86426,9.03827c0-1.25977-0.62402-2.13574-1.76318-2.13574
				c-1.11572,0-1.75098,0.83984-1.75098,2.13574c0,1.25879,0.5874,2.13477,1.75098,2.13477
				C59.27637,11.17303,59.86426,10.26093,59.86426,9.03827z"/>
			<path d="M62.77002,3.64081h1.15137v1.25977h-1.15137V3.64081z M62.83008,6.0871h1.03174v5.91309h-1.03174V6.0871z"/>
			<path d="M68.39795,10.5246l0.85156-0.38379c0.19189,0.55176,0.68359,1.08008,1.55908,1.08008
				c0.76758,0,1.19971-0.39648,1.19971-0.91211c0-1.37891-3.28613-0.50293-3.28613-2.63867
				c0-1.06738,0.91113-1.69043,2.07471-1.69043c0.97168,0,1.75098,0.43164,2.1709,1.25879L72.15234,7.6828
				c-0.26416-0.47949-0.68408-0.82812-1.37939-0.82812c-0.64795,0-1.05566,0.27637-1.05566,0.70801
				c0,1.23535,3.31055,0.46777,3.31055,2.68652c0,1.25879-1.05566,1.85938-2.18311,1.85938
				C69.65723,12.10858,68.70996,11.44843,68.39795,10.5246z"/>
			<path d="M82.85352,8.28241v3.71777h-1.03174V8.58221c0-0.49219-0.02393-1.69141-1.19922-1.69141
				c-1.21143,0-1.40332,1.17578-1.40332,2.45898v2.65039h-1.03125V8.60565c0-0.80273-0.22803-1.71484-1.22363-1.71484
				c-1.17529,0-1.37891,1.17578-1.37891,2.45898v2.65039h-1.03174L74.54199,6.0871h1.00732v0.73145
				c0.37158-0.61133,0.97119-0.83887,1.60693-0.83887c0.76758,0,1.41553,0.32324,1.73926,1.15137
				c0.40771-0.80371,1.0791-1.15137,1.93066-1.15137C82.2417,5.97968,82.85352,6.96307,82.85352,8.28241z"/>
			<path d="M84.21436,9.03827c0-1.72754,1.12744-3.05859,2.8667-3.05859c1.72656,0,2.89014,1.33105,2.89014,3.05859
				c0,1.71484-1.15137,3.07031-2.89014,3.07031C85.3418,12.10858,84.21436,10.76483,84.21436,9.03827z M88.93994,9.03827
				c0-1.22363-0.64795-2.14746-1.85889-2.14746c-1.21143,0-1.83545,0.93555-1.83545,2.14746
				c0,1.21094,0.63574,2.1582,1.83545,2.1582C88.29199,11.19647,88.93994,10.23749,88.93994,9.03827z"/>
			<path d="M96.19873,12.87616c0,1.15137-1.06738,1.67871-2.59033,1.67871c-1.6792,0-2.68652-0.64746-2.68652-1.84668
				c0-0.12012,0.01172-0.19238,0.02393-0.26465l0.93555-0.70703c-0.44385-0.21582-0.75537-0.56348-0.75537-1.16309
				c0-0.50391,0.21582-0.86426,0.61133-1.15137c-0.32373-0.36035-0.50342-0.82812-0.50342-1.34375
				c0-1.23535,1.03125-2.09863,2.31445-2.09863c0.56396,0,1.05566,0.16797,1.45117,0.44336l0.83984-0.71973l0.53955,0.66016
				l-0.81543,0.67188c0.19189,0.31152,0.2998,0.68359,0.2998,1.09082c0,1.24707-1.03174,2.06348-2.29102,2.06348
				c-0.44385,0-0.85156-0.09668-1.18701-0.27637c-0.21631,0.12012-0.32422,0.28809-0.32422,0.50391
				c0,0.55176,0.6958,0.68359,1.51123,0.80371C94.75977,11.38885,96.19873,11.54413,96.19873,12.87616z M95.16748,12.97186
				c0-0.63574-0.87549-0.71973-1.81104-0.86328c-0.22803-0.03613-0.46777-0.07227-0.69531-0.12012l-0.70801,0.68359
				c-0.01172,0.04785-0.01172,0.07129-0.01172,0.0957c0,0.73145,0.81543,0.95898,1.71484,0.95898
				S95.16748,13.48749,95.16748,12.97186z M92.26514,8.10272c0,0.69531,0.47949,1.24707,1.29541,1.24707
				c0.80322,0,1.271-0.54004,1.271-1.24707c0-0.74414-0.4917-1.25977-1.271-1.25977
				C92.80469,6.84296,92.26514,7.35858,92.26514,8.10272z"/>
			<path d="M105.39062,8.30585v3.69434h-0.94727l-0.07178-0.8877c-0.41992,0.63574-1.12744,0.99609-2.01514,0.99609
				c-1.27148,0-2.07471-0.71973-2.07471-1.85938c0-0.62402,0.26367-1.10352,0.74365-1.36719
				c0.44336-0.24023,1.03125-0.33594,2.02686-0.33594h1.30713V8.30585c0-0.91113-0.50391-1.41504-1.40332-1.41504
				c-0.69531,0-1.25928,0.32422-1.72705,0.94727l-0.74365-0.62305c0.65967-0.83984,1.46338-1.23535,2.49463-1.23535
				C104.49121,5.97968,105.39062,6.84296,105.39062,8.30585z M104.35938,9.40936V9.34979h-1.1875
				c-0.89941,0-1.30713,0.07227-1.55908,0.26367c-0.19189,0.15625-0.2998,0.38379-0.2998,0.68359
				c0,0.57617,0.4917,0.94727,1.2832,0.94727C103.63965,11.24432,104.35938,10.50116,104.35938,9.40936z"/>
			<path d="M112.15869,8.31854v3.68164h-1.03174V8.5705c0-0.98438-0.27539-1.67969-1.23486-1.67969
				c-1.1875,0-1.61914,1.0918-1.61914,2.55469v2.55469h-1.03174V6.0871h1.03174v0.80371
				c0.39551-0.5752,1.09131-0.91113,1.89502-0.91113C111.46289,5.97968,112.15869,6.7951,112.15869,8.31854z"/>
			<path d="M119.05859,3.64081v8.35938h-1.03125v-0.73145c-0.41992,0.55176-1.0918,0.83984-1.87109,0.83984
				c-1.69141,0-2.59082-1.30762-2.59082-3.07031c0-1.87109,1.00781-3.05859,2.59082-3.05859
				c0.7793,0,1.46289,0.31152,1.87109,0.85156V3.64081H119.05859z M118.11133,9.03827c0-1.25977-0.62402-2.13574-1.76318-2.13574
				c-1.11572,0-1.75098,0.83984-1.75098,2.13574c0,1.25879,0.5874,2.13477,1.75098,2.13477
				C117.52344,11.17303,118.11133,10.26093,118.11133,9.03827z"/>
			<path d="M124.48486,3.64081h1.06738v7.37598h3.74268v0.9834h-4.81006V3.64081z"/>
			<path d="M135.17383,8.30585v3.69434h-0.94727l-0.07129-0.8877c-0.41992,0.63574-1.12793,0.99609-2.01465,0.99609
				c-1.27148,0-2.0752-0.71973-2.0752-1.85938c0-0.62402,0.26367-1.10352,0.74316-1.36719
				c0.44434-0.24023,1.03125-0.33594,2.02734-0.33594h1.30664V8.30585c0-0.91113-0.50391-1.41504-1.40234-1.41504
				c-0.69531,0-1.25977,0.32422-1.72754,0.94727l-0.74316-0.62305c0.65918-0.83984,1.46289-1.23535,2.49414-1.23535
				C134.27539,5.97968,135.17383,6.84296,135.17383,8.30585z M134.14258,9.40936V9.34979h-1.1875
				c-0.89844,0-1.30664,0.07227-1.55859,0.26367c-0.19141,0.15625-0.2998,0.38379-0.2998,0.68359
				c0,0.57617,0.49121,0.94727,1.2832,0.94727C133.42383,11.24432,134.14258,10.50116,134.14258,9.40936z"/>
			<path d="M140.54102,6.92694h-1.21191V6.0871h1.22363V5.25995c0-1.34375,0.76758-1.72754,1.58301-1.72754
				c0.37207,0,0.71973,0.08398,1.0791,0.24023l-0.34766,0.80371c-0.21582-0.1084-0.41992-0.17969-0.62305-0.17969
				c-0.48047,0-0.67188,0.37109-0.67188,0.81543v0.875h1.59473v0.83984h-1.59473v5.07324h-1.03125V6.92694z"/>
			<path d="M143.57617,9.03827c0-1.72754,1.12793-3.05859,2.86719-3.05859c1.72656,0,2.89062,1.33105,2.89062,3.05859
				c0,1.71484-1.15234,3.07031-2.89062,3.07031C144.7041,12.10858,143.57617,10.76483,143.57617,9.03827z M148.30273,9.03827
				c0-1.22363-0.64844-2.14746-1.85938-2.14746s-1.83594,0.93555-1.83594,2.14746c0,1.21094,0.63672,2.1582,1.83594,2.1582
				C147.6543,11.19647,148.30273,10.23749,148.30273,9.03827z"/>
			<path d="M154.61426,6.26776l-0.50391,0.86328c-0.25098-0.12012-0.50293-0.17969-0.76758-0.17969
				c-0.89941,0-1.4873,0.63477-1.4873,1.8584v3.19043h-1.03125V6.0871h1.03125v0.92383
				c0.37207-0.75586,1.08008-1.03125,1.70312-1.03125C153.93066,5.97968,154.2666,6.06366,154.61426,6.26776z"/>
			<path d="M163.97168,8.28241v3.71777h-1.03125V8.58221c0-0.49219-0.02441-1.69141-1.19922-1.69141
				c-1.21191,0-1.40332,1.17578-1.40332,2.45898v2.65039h-1.03125V8.60565c0-0.80273-0.22852-1.71484-1.22363-1.71484
				c-1.1748,0-1.37891,1.17578-1.37891,2.45898v2.65039h-1.03223l-0.01172-5.91309h1.00781v0.73145
				c0.37109-0.61133,0.97168-0.83887,1.60742-0.83887c0.76758,0,1.41504,0.32324,1.73828,1.15137
				c0.4082-0.80371,1.08008-1.15137,1.93164-1.15137C163.36035,5.97968,163.97168,6.96307,163.97168,8.28241z"/>
			<path d="M165.78809,3.64081h1.15137v1.25977h-1.15137V3.64081z M165.84766,6.0871h1.03223v5.91309h-1.03223V6.0871z"/>
			<path d="M168.39258,9.06171c0-1.55859,0.89941-3.08203,2.73438-3.08203c1.0918,0,1.97852,0.53906,2.44727,1.66699
				l-0.98438,0.39551c-0.24023-0.71973-0.7793-1.15137-1.46289-1.15137c-1.17578,0-1.67969,1.05566-1.67969,2.1709
				s0.50391,2.13477,1.67969,2.13477c0.69531,0,1.23535-0.41992,1.43945-1.12695l0.94727,0.35938
				c-0.39648,1.0791-1.27148,1.67969-2.375,1.67969C169.35156,12.10858,168.39258,10.68085,168.39258,9.06171z"/>
			<path d="M179.42969,8.30585v3.69434h-0.94727l-0.07227-0.8877c-0.41992,0.63574-1.12695,0.99609-2.01562,0.99609
				c-1.27051,0-2.07422-0.71973-2.07422-1.85938c0-0.62402,0.26367-1.10352,0.74414-1.36719
				c0.44336-0.24023,1.03125-0.33594,2.02637-0.33594h1.30762V8.30585c0-0.91113-0.50391-1.41504-1.4043-1.41504
				c-0.69531,0-1.25879,0.32422-1.72656,0.94727l-0.74414-0.62305c0.66016-0.83984,1.46387-1.23535,2.49512-1.23535
				C178.5293,5.97968,179.42969,6.84296,179.42969,8.30585z M178.39844,9.40936V9.34979h-1.1875
				c-0.90039,0-1.30762,0.07227-1.55957,0.26367c-0.19238,0.15625-0.2998,0.38379-0.2998,0.68359
				c0,0.57617,0.49219,0.94727,1.2832,0.94727C177.67773,11.24432,178.39844,10.50116,178.39844,9.40936z"/>
			<path d="M188.98047,8.30585v3.69434h-0.94727l-0.07129-0.8877c-0.41992,0.63574-1.12793,0.99609-2.01465,0.99609
				c-1.27148,0-2.0752-0.71973-2.0752-1.85938c0-0.62402,0.26367-1.10352,0.74316-1.36719
				c0.44434-0.24023,1.03125-0.33594,2.02734-0.33594h1.30664V8.30585c0-0.91113-0.50391-1.41504-1.40234-1.41504
				c-0.69531,0-1.25977,0.32422-1.72754,0.94727l-0.74316-0.62305c0.65918-0.83984,1.46289-1.23535,2.49414-1.23535
				C188.08203,5.97968,188.98047,6.84296,188.98047,8.30585z M187.94922,9.40936V9.34979h-1.1875
				c-0.89844,0-1.30664,0.07227-1.55859,0.26367c-0.19141,0.15625-0.2998,0.38379-0.2998,0.68359
				c0,0.57617,0.49121,0.94727,1.2832,0.94727C187.23047,11.24432,187.94922,10.50116,187.94922,9.40936z"/>
			<path d="M194.62109,6.26776l-0.50391,0.86328c-0.25098-0.12012-0.50293-0.17969-0.76758-0.17969
				c-0.89844,0-1.48633,0.63477-1.48633,1.8584v3.19043h-1.03125V6.0871h1.03125v0.92383
				c0.37109-0.75586,1.0791-1.03125,1.70312-1.03125C193.9375,5.97968,194.27344,6.06366,194.62109,6.26776z"/>
			<path d="M199.96094,12.87616c0,1.15137-1.06738,1.67871-2.58984,1.67871c-1.67969,0-2.6875-0.64746-2.6875-1.84668
				c0-0.12012,0.0127-0.19238,0.02441-0.26465l0.93555-0.70703c-0.44434-0.21582-0.75586-0.56348-0.75586-1.16309
				c0-0.50391,0.21582-0.86426,0.6123-1.15137c-0.32422-0.36035-0.50391-0.82812-0.50391-1.34375
				c0-1.23535,1.03125-2.09863,2.31445-2.09863c0.56445,0,1.05566,0.16797,1.45117,0.44336l0.83984-0.71973l0.53906,0.66016
				l-0.81445,0.67188c0.19141,0.31152,0.29883,0.68359,0.29883,1.09082c0,1.24707-1.03125,2.06348-2.29102,2.06348
				c-0.44336,0-0.85156-0.09668-1.18652-0.27637c-0.21582,0.12012-0.32422,0.28809-0.32422,0.50391
				c0,0.55176,0.69629,0.68359,1.51074,0.80371C198.52148,11.38885,199.96094,11.54413,199.96094,12.87616z M198.92969,12.97186
				c0-0.63574-0.875-0.71973-1.81055-0.86328c-0.22852-0.03613-0.46875-0.07227-0.69629-0.12012l-0.70801,0.68359
				c-0.01172,0.04785-0.01172,0.07129-0.01172,0.0957c0,0.73145,0.81641,0.95898,1.71484,0.95898
				C198.31836,13.72675,198.92969,13.48749,198.92969,12.97186z M196.02734,8.10272c0,0.69531,0.47949,1.24707,1.29492,1.24707
				c0.80371,0,1.27148-0.54004,1.27148-1.24707c0-0.74414-0.49219-1.25977-1.27148-1.25977
				C196.56641,6.84296,196.02734,7.35858,196.02734,8.10272z"/>
			<path d="M205.96094,9.34979h-4.2334c0.03613,1.12695,0.67188,1.81055,1.7627,1.81055c0.59961,0,1.10352-0.16797,1.60742-0.70703
				l0.70703,0.63574c-0.6709,0.71973-1.39062,1.01953-2.32617,1.01953c-1.88281,0-2.78223-1.3916-2.78223-3.03516
				c0-1.63086,0.8877-3.09375,2.68652-3.09375c1.81055,0,2.61426,1.40332,2.61426,2.8418
				C205.99707,8.98944,205.98535,9.19354,205.96094,9.34979z M205.01367,8.50995c-0.01172-0.02344-0.01172-0.05957-0.01172-0.10742
				c-0.03613-0.91211-0.63574-1.55957-1.63086-1.55957c-1.00781,0-1.57129,0.7793-1.64355,1.66699H205.01367z"/>
			<path d="M212.42969,8.31854v3.68164h-1.03223V8.5705c0-0.98438-0.27539-1.67969-1.23535-1.67969
				c-1.1875,0-1.61914,1.0918-1.61914,2.55469v2.55469h-1.03125V6.0871h1.03125v0.80371
				c0.39648-0.5752,1.0918-0.91113,1.89551-0.91113C211.7334,5.97968,212.42969,6.7951,212.42969,8.31854z"/>
			<path d="M215.53906,6.92694v3.49023c0,0.54004,0.27539,0.7793,0.74414,0.7793c0.20312,0,0.44336-0.04785,0.70703-0.13184v0.87598
				c-0.32422,0.10742-0.64746,0.16797-0.95898,0.16797c-0.85156,0-1.52344-0.46777-1.52344-1.58398V6.92694h-0.97168V6.0871h0.97168
				V4.5285l1.03125-0.78027V6.0871h1.45117v0.83984H215.53906z"/>
			<path d="M218.40723,3.64081h1.15137v1.25977h-1.15137V3.64081z M218.4668,6.0871h1.03223v5.91309h-1.03223V6.0871z"/>
			<path d="M226.43262,8.31854v3.68164h-1.03125V8.5705c0-0.98438-0.27637-1.67969-1.23535-1.67969
				c-1.1875,0-1.61914,1.0918-1.61914,2.55469v2.55469h-1.03125V6.0871h1.03125v0.80371
				c0.39551-0.5752,1.0918-0.91113,1.89453-0.91113C225.73633,5.97968,226.43262,6.7951,226.43262,8.31854z"/>
			<path d="M232.85254,8.30585v3.69434h-0.94727l-0.07129-0.8877c-0.41992,0.63574-1.12793,0.99609-2.01562,0.99609
				c-1.27148,0-2.07422-0.71973-2.07422-1.85938c0-0.62402,0.26367-1.10352,0.74316-1.36719
				c0.44336-0.24023,1.03125-0.33594,2.02637-0.33594h1.30762V8.30585c0-0.91113-0.50391-1.41504-1.40332-1.41504
				c-0.69531,0-1.25977,0.32422-1.72656,0.94727l-0.74414-0.62305c0.66016-0.83984,1.46289-1.23535,2.49414-1.23535
				C231.95312,5.97968,232.85254,6.84296,232.85254,8.30585z M231.82129,9.40936V9.34979h-1.1875
				c-0.89941,0-1.30762,0.07227-1.55957,0.26367c-0.19141,0.15625-0.29883,0.38379-0.29883,0.68359
				c0,0.57617,0.49121,0.94727,1.2832,0.94727C231.10156,11.24432,231.82129,10.50116,231.82129,9.40936z"/>
		</g>
	</g>
</g>
</svg>
