<?xml version="1.0" encoding="utf-8"?>
<!-- Generator: Adobe Illustrator 25.1.0, SVG Export Plug-In . SVG Version: 6.00 Build 0)  -->
<svg version="1.1" id="Livello_1" xmlns="http://www.w3.org/2000/svg" xmlns:xlink="http://www.w3.org/1999/xlink" x="0px" y="0px"
	 width="127" height="240" viewBox="0 0 127 240">
<g>
	<defs>
		<rect id="SVGID_1_" y="0" width="127" height="240"/>
	</defs>
	<clipPath id="SVGID_2_">
		<use xlink:href="#SVGID_1_"  overflow="visible"/>
	</clipPath>
	<g id="legend" clip-path="url(#SVGID_2_)">
		<g id="Raggruppa_24094">
			<g enable-background="new    ">
				<path d="M31.02637,28.72577h0.63916v5.68066h2.86279v0.59375h-3.50195V28.72577z"/>
				<path d="M35.59814,28.72577h0.72021v0.91797h-0.72021V28.72577z M35.65234,30.56171h0.62109v4.43848h-0.62109V30.56171z"/>
				<path d="M43.99707,32.22772v2.77246h-0.62158v-2.60156c0-0.37793,0-1.35938-0.97217-1.35938
					c-0.90039,0-1.14307,0.82812-1.14307,1.82715v2.13379h-0.62158v-2.56543c0-0.73828-0.2251-1.39551-0.99902-1.39551
					c-0.86426,0-1.10742,0.81934-1.10742,1.82715v2.13379h-0.62109l-0.00928-4.43848h0.60352v0.54004
					c0.27881-0.44043,0.729-0.6123,1.22412-0.6123c0.62109,0,1.08057,0.27051,1.30566,0.85547
					c0.28809-0.56738,0.7832-0.85547,1.45801-0.85547C43.55566,30.48944,43.99707,31.19159,43.99707,32.22772z"/>
				<path d="M45.4707,28.72577h0.72021v0.91797H45.4707V28.72577z M45.5249,30.56171H46.146v4.43848H45.5249V30.56171z"/>
				<path d="M51.32227,32.28143v2.71875h-0.62109v-2.56543c0-0.95508-0.30615-1.39551-0.97266-1.39551
					c-0.83691,0-1.32324,0.71973-1.32324,1.97168v1.98926h-0.62109v-4.43848h0.62109v0.64844
					c0.28809-0.4502,0.82812-0.7207,1.46729-0.7207C50.82715,30.48944,51.32227,31.10175,51.32227,32.28143z"/>
				<path d="M56.15479,32.23651v2.76367h-0.56689l-0.03613-0.68457c-0.35107,0.49512-0.89111,0.75684-1.59326,0.75684
					c-0.96338,0-1.53076-0.50391-1.53076-1.35938c0-0.4502,0.18018-0.79297,0.50439-0.99023
					c0.3418-0.19824,0.81934-0.2793,1.69238-0.2793h0.90918v-0.20703c0-0.77441-0.40479-1.19727-1.15234-1.19727
					c-0.55811,0-0.99023,0.24316-1.3501,0.73828l-0.4502-0.37891c0.47705-0.62109,1.05322-0.90918,1.80957-0.90918
					C55.50684,30.48944,56.15479,31.12909,56.15479,32.23651z M55.53369,33.01093v-0.06348h-0.85498
					c-0.81934,0-1.17041,0.05371-1.38672,0.22559c-0.16211,0.12598-0.24316,0.32324-0.24316,0.57617
					c0,0.49512,0.42334,0.80957,1.08936,0.80957C54.99365,34.55878,55.53369,33.95624,55.53369,33.01093z"/>
				<path d="M57.62988,34.03729v-5.31152h0.62109v5.27539c0,0.30566,0.1084,0.50391,0.40527,0.50391
					c0.13477,0,0.28809-0.03613,0.42285-0.08105l0.00928,0.53125c-0.18896,0.0625-0.41406,0.11719-0.6123,0.11719
					C57.96289,35.07245,57.62988,34.72968,57.62988,34.03729z"/>
				<path d="M66.06348,32.94745h-3.25c0.01807,0.97266,0.55859,1.55762,1.43164,1.55762c0.48633,0,0.87305-0.12598,1.27832-0.55859
					l0.43164,0.37891c-0.52148,0.54883-1.03516,0.74707-1.71875,0.74707c-1.35059,0-2.04395-1.00879-2.04395-2.26855
					c0-1.25195,0.68457-2.31445,1.97168-2.31445c1.35938,0,1.92676,1.0625,1.92676,2.07129
					C66.09082,32.68671,66.08203,32.84003,66.06348,32.94745z M62.81348,32.42499h2.68262c0-0.01758-0.00879-0.0625-0.00879-0.14355
					c-0.04492-0.7207-0.50391-1.26953-1.32324-1.26953C63.36279,31.0119,62.86768,31.64178,62.81348,32.42499z"/>
				<path d="M66.70117,30.56171h0.67578l1.39453,3.64648l1.40527-3.64648h0.68457l-1.81934,4.43848h-0.53027L66.70117,30.56171z"/>
				<path d="M75.23438,32.94745h-3.25c0.01758,0.97266,0.55859,1.55762,1.43164,1.55762c0.48633,0,0.87305-0.12598,1.27832-0.55859
					l0.43262,0.37891c-0.52246,0.54883-1.03516,0.74707-1.71973,0.74707c-1.35059,0-2.04395-1.00879-2.04395-2.26855
					c0-1.25195,0.68457-2.31445,1.97168-2.31445c1.35938,0,1.92676,1.0625,1.92676,2.07129
					C75.26172,32.68671,75.25195,32.84003,75.23438,32.94745z M71.98438,32.42499h2.68359c0-0.01758-0.00977-0.0625-0.00977-0.14355
					c-0.04492-0.7207-0.50391-1.26953-1.32324-1.26953C72.5332,31.0119,72.03906,31.64178,71.98438,32.42499z"/>
				<path d="M80.0498,32.28143v2.71875h-0.62109v-2.56543c0-0.95508-0.30566-1.39551-0.97266-1.39551
					c-0.83691,0-1.32324,0.71973-1.32324,1.97168v1.98926h-0.62109v-4.43848h0.62109v0.64844
					c0.28809-0.4502,0.82812-0.7207,1.4668-0.7207C79.55469,30.48944,80.0498,31.10175,80.0498,32.28143z"/>
				<path d="M83.42383,34.95526c-0.23438,0.07227-0.46777,0.11719-0.6748,0.11719c-0.59473,0-1.02637-0.33301-1.02637-1.11621
					v-2.87207h-0.73828v-0.52246h0.73828v-1.24219l0.62109-0.46777v1.70996h1.07129v0.52246h-1.07129v2.79102
					c0,0.43164,0.19824,0.62988,0.54883,0.62988c0.15332,0,0.32422-0.03613,0.52246-0.09863L83.42383,34.95526z"/>
				<path d="M84.16992,33.91132l0.52246-0.23438c0.16211,0.45898,0.59473,0.8457,1.28809,0.8457
					c0.60254,0,0.99023-0.29688,0.99023-0.76465c0-1.17969-2.55762-0.44141-2.55762-2.0166
					c0-0.77441,0.62988-1.25195,1.52148-1.25195c0.71191,0,1.28809,0.29785,1.59375,0.92773l-0.49512,0.27051
					c-0.2168-0.39648-0.56738-0.64844-1.11621-0.64844c-0.5498,0-0.90039,0.22461-0.90039,0.6123
					c0,1.05273,2.56543,0.38672,2.56543,2.07031c0,0.90039-0.73828,1.35059-1.59375,1.35059
					C85.11523,35.07245,84.4043,34.62225,84.16992,33.91132z"/>
			</g>
			<path id="Tracciato_47" fill="#8131F4" d="M5.294,27h9.412c2.84178-0.07901,5.21069,2.15834,5.294,5
				c-0.08331,2.84166-2.45222,5.07901-5.294,5H5.294C2.45222,37.07901,0.08331,34.84166,0,32
				C0.08331,29.15834,2.45222,26.92099,5.294,27z"/>
			<g enable-background="new    ">
				<path d="M30.50928,47.72577h0.63916v6.27441h-0.63916V47.72577z"/>
				<path d="M36.53125,51.28143v2.71875h-0.62109v-2.56543c0-0.95508-0.30615-1.39551-0.97266-1.39551
					c-0.83691,0-1.32324,0.71973-1.32324,1.97168v1.98926h-0.62109v-4.43848h0.62109v0.64844
					c0.28809-0.4502,0.82812-0.7207,1.46729-0.7207C36.03613,49.48944,36.53125,50.10175,36.53125,51.28143z"/>
				<path d="M39.90576,53.95526c-0.23438,0.07227-0.46826,0.11719-0.67529,0.11719c-0.59424,0-1.02637-0.33301-1.02637-1.11621
					v-2.87207h-0.73828v-0.52246h0.73828v-1.24219l0.62109-0.46777v1.70996h1.07129v0.52246H38.8252v2.79102
					c0,0.43164,0.19824,0.62988,0.54932,0.62988c0.15283,0,0.32373-0.03613,0.52197-0.09863L39.90576,53.95526z"/>
				<path d="M44.5498,51.94745h-3.24951c0.01758,0.97266,0.55811,1.55762,1.43115,1.55762
					c0.48633,0,0.87354-0.12598,1.27832-0.55859l0.43213,0.37891c-0.52197,0.54883-1.03516,0.74707-1.71924,0.74707
					c-1.35059,0-2.04395-1.00879-2.04395-2.26855c0-1.25195,0.68457-2.31445,1.97168-2.31445
					c1.35938,0,1.92676,1.0625,1.92676,2.07129C44.57715,51.68671,44.56787,51.84003,44.5498,51.94745z M41.30029,51.42499h2.68262
					c0-0.01758-0.00928-0.0625-0.00928-0.14355c-0.04492-0.7207-0.50391-1.26953-1.32324-1.26953
					C41.84912,50.0119,41.354,50.64178,41.30029,51.42499z"/>
				<path d="M48.52783,49.67889l-0.30615,0.50391c-0.20703-0.08984-0.396-0.13477-0.58496-0.13477
					c-0.68408,0-1.18848,0.5127-1.18848,1.47656v2.47559h-0.62109v-4.43848h0.62109v0.66602
					c0.32422-0.58496,0.86426-0.73828,1.31445-0.73828C48.03271,49.48944,48.28467,49.54413,48.52783,49.67889z"/>
				<path d="M52.74902,51.23651v2.76367h-0.56689L52.146,53.31561c-0.35107,0.49512-0.89111,0.75684-1.59326,0.75684
					c-0.96338,0-1.53076-0.50391-1.53076-1.35938c0-0.4502,0.18018-0.79297,0.50439-0.99023
					c0.3418-0.19824,0.81934-0.2793,1.69238-0.2793h0.90918v-0.20703c0-0.77441-0.40479-1.19727-1.15234-1.19727
					c-0.55811,0-0.99023,0.24316-1.3501,0.73828l-0.4502-0.37891c0.47705-0.62109,1.05322-0.90918,1.80957-0.90918
					C52.10107,49.48944,52.74902,50.12909,52.74902,51.23651z M52.12793,52.01093v-0.06348h-0.85498
					c-0.81934,0-1.17041,0.05371-1.38672,0.22559c-0.16211,0.12598-0.24316,0.32324-0.24316,0.57617
					c0,0.49512,0.42334,0.80957,1.08936,0.80957C51.58789,53.55878,52.12793,52.95624,52.12793,52.01093z"/>
				<path d="M53.89062,51.79413c0-1.16992,0.65723-2.30469,1.99854-2.30469c0.79199,0,1.44922,0.39648,1.80078,1.22461
					l-0.59424,0.23438c-0.20703-0.56738-0.64844-0.90918-1.20654-0.90918c-0.94531,0-1.36816,0.8457-1.36816,1.75488
					s0.42285,1.72852,1.37695,1.72852c0.55859,0,0.99951-0.33301,1.17041-0.89941l0.57617,0.21582
					c-0.29688,0.80957-0.94531,1.2334-1.74658,1.2334C54.61084,54.07245,53.89062,53.02753,53.89062,51.79413z"/>
				<path d="M60.67725,53.95526c-0.23389,0.07227-0.46777,0.11719-0.6748,0.11719c-0.59424,0-1.02637-0.33301-1.02637-1.11621
					v-2.87207h-0.73828v-0.52246h0.73828v-1.24219l0.62109-0.46777v1.70996h1.07129v0.52246h-1.07129v2.79102
					c0,0.43164,0.19824,0.62988,0.54932,0.62988c0.15283,0,0.32373-0.03613,0.52197-0.09863L60.67725,53.95526z"/>
				<path d="M61.80176,47.72577h0.72021v0.91797h-0.72021V47.72577z M61.85596,49.56171h0.62109v4.43848h-0.62109V49.56171z"/>
				<path d="M63.72754,51.77655c0-1.31445,0.85547-2.28711,2.125-2.28711c1.26074,0,2.13379,0.97266,2.13379,2.28711
					c0,1.30566-0.86426,2.2959-2.13379,2.2959S63.72754,53.091,63.72754,51.77655z M67.36523,51.77655
					c0-1.00879-0.56738-1.7373-1.5127-1.7373c-0.9541,0-1.50391,0.73828-1.50391,1.7373c0,1.00781,0.55859,1.74609,1.50391,1.74609
					C66.80664,53.52264,67.36523,52.76678,67.36523,51.77655z"/>
				<path d="M72.77441,51.28143v2.71875h-0.62109v-2.56543c0-0.95508-0.30664-1.39551-0.97266-1.39551
					c-0.83691,0-1.32324,0.71973-1.32324,1.97168v1.98926h-0.62109v-4.43848h0.62109v0.64844
					c0.28809-0.4502,0.82812-0.7207,1.4668-0.7207C72.2793,49.48944,72.77441,50.10175,72.77441,51.28143z"/>
				<path d="M73.82617,52.91132l0.52148-0.23438c0.16211,0.45898,0.59473,0.8457,1.28809,0.8457
					c0.60254,0,0.99023-0.29688,0.99023-0.76465c0-1.17969-2.55762-0.44141-2.55762-2.0166
					c0-0.77441,0.63086-1.25195,1.52148-1.25195c0.71191,0,1.28809,0.29785,1.59375,0.92773l-0.49512,0.27051
					c-0.21582-0.39648-0.56738-0.64844-1.11621-0.64844s-0.90039,0.22461-0.90039,0.6123c0,1.05273,2.56543,0.38672,2.56543,2.07031
					c0,0.90039-0.7373,1.35059-1.59277,1.35059C74.77148,54.07245,74.05957,53.62225,73.82617,52.91132z"/>
			</g>
			<path id="Rettangolo_181" fill="#0000FF" d="M5,46h10c2.76142,0,5,2.23857,5,5l0,0c0,2.76143-2.23858,5-5,5H5
				c-2.76142,0-5-2.23857-5-5l0,0C0,48.23857,2.23858,46,5,46z"/>
			<path id="Tracciato_48" fill="#5151FC" d="M5.294,65h9.412c2.84178-0.07901,5.21069,2.15834,5.294,5
				c-0.08331,2.84166-2.45222,5.07901-5.294,5H5.294C2.45222,75.07901,0.08331,72.84166,0,70
				C0.08331,67.15834,2.45222,64.92099,5.294,65z"/>
			<g enable-background="new    ">
				<path d="M36.48682,66.72577v6.27441h-0.64795v-5.41992l-2.02588,4.89746h-0.62988l-2.03467-4.91504v5.4375h-0.63916v-6.27441
					h0.93604l2.05273,5.00488l2.05273-5.00488H36.48682z"/>
				<path d="M37.94287,70.77655c0-1.31445,0.85547-2.28711,2.12451-2.28711c1.26025,0,2.13379,0.97266,2.13379,2.28711
					c0,1.30566-0.86426,2.2959-2.13379,2.2959C38.79834,73.07245,37.94287,72.091,37.94287,70.77655z M41.58008,70.77655
					c0-1.00879-0.56738-1.7373-1.5127-1.7373c-0.9541,0-1.50342,0.73828-1.50342,1.7373c0,1.00781,0.55811,1.74609,1.50342,1.74609
					C41.02197,72.52264,41.58008,71.76678,41.58008,70.77655z"/>
				<path d="M42.67676,68.56171h0.67529l1.39502,3.64648l1.40479-3.64648h0.68408l-1.81885,4.43848h-0.53076L42.67676,68.56171z"/>
				<path d="M51.20996,70.94745h-3.24951c0.01758,0.97266,0.55811,1.55762,1.43115,1.55762
					c0.48633,0,0.87354-0.12598,1.27832-0.55859l0.43213,0.37891c-0.52197,0.54883-1.03516,0.74707-1.71924,0.74707
					c-1.35059,0-2.04395-1.00879-2.04395-2.26855c0-1.25195,0.68457-2.31445,1.97168-2.31445
					c1.35938,0,1.92676,1.0625,1.92676,2.07129C51.2373,70.68671,51.22803,70.84003,51.20996,70.94745z M47.96045,70.42499h2.68262
					c0-0.01758-0.00928-0.0625-0.00928-0.14355c-0.04492-0.7207-0.50391-1.26953-1.32324-1.26953
					C48.50928,69.0119,48.01416,69.64178,47.96045,70.42499z"/>
				<path d="M58.57324,70.22772v2.77246h-0.62158v-2.60156c0-0.37793,0-1.35938-0.97217-1.35938
					c-0.90039,0-1.14307,0.82812-1.14307,1.82715v2.13379h-0.62158v-2.56543c0-0.73828-0.2251-1.39551-0.99902-1.39551
					c-0.86426,0-1.10742,0.81934-1.10742,1.82715v2.13379H52.4873l-0.00928-4.43848h0.60352v0.54004
					c0.27881-0.44043,0.729-0.6123,1.22412-0.6123c0.62109,0,1.08057,0.27051,1.30566,0.85547
					c0.28809-0.56738,0.7832-0.85547,1.4585-0.85547C58.13184,68.48944,58.57324,69.19159,58.57324,70.22772z"/>
				<path d="M63.61182,70.94745h-3.25c0.01807,0.97266,0.55859,1.55762,1.43164,1.55762c0.48633,0,0.87305-0.12598,1.27832-0.55859
					l0.43213,0.37891c-0.52197,0.54883-1.03516,0.74707-1.71924,0.74707c-1.35059,0-2.04395-1.00879-2.04395-2.26855
					c0-1.25195,0.68457-2.31445,1.97168-2.31445c1.35938,0,1.92676,1.0625,1.92676,2.07129
					C63.63916,70.68671,63.62988,70.84003,63.61182,70.94745z M60.36182,70.42499h2.68311c0-0.01758-0.00928-0.0625-0.00928-0.14355
					c-0.04492-0.7207-0.50391-1.26953-1.32324-1.26953C60.91113,69.0119,60.41602,69.64178,60.36182,70.42499z"/>
				<path d="M68.42773,70.28143v2.71875h-0.62109v-2.56543c0-0.95508-0.30664-1.39551-0.97266-1.39551
					c-0.83691,0-1.32324,0.71973-1.32324,1.97168v1.98926h-0.62109v-4.43848h0.62109v0.64844
					c0.28809-0.4502,0.82812-0.7207,1.4668-0.7207C67.93262,68.48944,68.42773,69.10175,68.42773,70.28143z"/>
				<path d="M71.80176,72.95526c-0.23438,0.07227-0.46777,0.11719-0.6748,0.11719c-0.59473,0-1.02637-0.33301-1.02637-1.11621
					v-2.87207H69.3623v-0.52246h0.73828v-1.24219l0.62109-0.46777v1.70996h1.07129v0.52246h-1.07129v2.79102
					c0,0.43164,0.19824,0.62988,0.54883,0.62988c0.15332,0,0.32422-0.03613,0.52246-0.09863L71.80176,72.95526z"/>
			</g>
			<path id="Tracciato_48-2" fill="#00FFFF" d="M5.294,104h9.412c2.84178-0.07901,5.21069,2.15834,5.294,5
				c-0.08331,2.84166-2.45222,5.07901-5.294,5H5.294c-2.84178,0.07901-5.21069-2.15834-5.294-5
				C0.08331,106.15834,2.45222,103.92099,5.294,104z"/>
			<g enable-background="new    ">
				<path d="M28.92383,110.34393l0.63916-0.15332c0.11719,0.81055,0.72949,1.32324,1.57568,1.32324
					c0.90918,0,1.36865-0.47656,1.36865-1.09766c0-0.67578-0.38721-1.02637-1.49463-1.4502
					c-1.26953-0.47656-1.71045-0.92676-1.71045-1.74609c0-0.9541,0.72021-1.58496,1.78223-1.58496
					c0.79248,0,1.41357,0.35156,1.79199,1.01758l-0.54053,0.33301c-0.27002-0.48633-0.729-0.77441-1.26904-0.77441
					c-0.65723,0-1.12549,0.4502-1.12549,0.98145c0,0.57617,0.43213,0.88281,1.42236,1.26074
					c1.39551,0.53125,1.7915,1.03516,1.7915,1.9082c0,1.05371-0.729,1.72852-2.02539,1.72852
					C29.96826,112.09003,29.09521,111.39667,28.92383,110.34393z"/>
				<path d="M34.36914,105.72577h0.72021v0.91797h-0.72021V105.72577z M34.42334,107.56171h0.62109v4.43848h-0.62109V107.56171z"/>
				<path d="M38.52783,111.95526c-0.23438,0.07227-0.46826,0.11719-0.67529,0.11719c-0.59424,0-1.02637-0.33301-1.02637-1.11621
					v-2.87207h-0.73828v-0.52246h0.73828v-1.24219l0.62109-0.46777v1.70996h1.07129v0.52246h-1.07129v2.79102
					c0,0.43164,0.19824,0.62988,0.54932,0.62988c0.15283,0,0.32373-0.03613,0.52197-0.09863L38.52783,111.95526z"/>
				<path d="M43.13623,107.56171v4.43848h-0.62158v-0.63965c-0.31494,0.47754-0.88232,0.71191-1.46729,0.71191
					c-1.0083,0-1.44922-0.69336-1.44922-1.79199v-2.71875h0.62109v2.56543c0,0.7207,0.12598,1.39551,0.97217,1.39551
					c0.88232,0,1.32324-0.76465,1.32324-1.91699v-2.04395H43.13623z"/>
				<path d="M48.07666,109.23651v2.76367h-0.56689l-0.03613-0.68457c-0.35107,0.49512-0.89111,0.75684-1.59326,0.75684
					c-0.96338,0-1.53076-0.50391-1.53076-1.35938c0-0.4502,0.18018-0.79297,0.50439-0.99023
					c0.3418-0.19824,0.81934-0.2793,1.69238-0.2793h0.90918v-0.20703c0-0.77441-0.40527-1.19727-1.15234-1.19727
					c-0.55811,0-0.99023,0.24316-1.3501,0.73828l-0.4502-0.37891c0.47705-0.62109,1.05322-0.90918,1.80957-0.90918
					C47.42871,107.48944,48.07666,108.12909,48.07666,109.23651z M47.45557,110.01093v-0.06348h-0.85498
					c-0.81934,0-1.17041,0.05371-1.38672,0.22559c-0.16211,0.12598-0.24316,0.32324-0.24316,0.57617
					c0,0.49512,0.42334,0.80957,1.08936,0.80957C46.91553,111.55878,47.45557,110.95624,47.45557,110.01093z"/>
				<path d="M51.43311,111.95526c-0.23389,0.07227-0.46777,0.11719-0.6748,0.11719c-0.59424,0-1.02637-0.33301-1.02637-1.11621
					v-2.87207h-0.73828v-0.52246h0.73828v-1.24219l0.62109-0.46777v1.70996h1.07129v0.52246h-1.07129v2.79102
					c0,0.43164,0.19824,0.62988,0.54932,0.62988c0.15283,0,0.32373-0.03613,0.52197-0.09863L51.43311,111.95526z"/>
				<path d="M52.55762,105.72577h0.72021v0.91797h-0.72021V105.72577z M52.61182,107.56171h0.62109v4.43848h-0.62109V107.56171z"/>
				<path d="M54.48389,109.77655c0-1.31445,0.85547-2.28711,2.12451-2.28711c1.26025,0,2.13379,0.97266,2.13379,2.28711
					c0,1.30566-0.86426,2.2959-2.13379,2.2959C55.33936,112.07245,54.48389,111.091,54.48389,109.77655z M58.12109,109.77655
					c0-1.00879-0.56738-1.7373-1.5127-1.7373c-0.9541,0-1.50342,0.73828-1.50342,1.7373c0,1.00781,0.55811,1.74609,1.50342,1.74609
					C57.56299,111.52264,58.12109,110.76678,58.12109,109.77655z"/>
				<path d="M63.52979,109.28143v2.71875h-0.62109v-2.56543c0-0.95508-0.30615-1.39551-0.97266-1.39551
					c-0.83691,0-1.32324,0.71973-1.32324,1.97168v1.98926H59.9917v-4.43848h0.62109v0.64844
					c0.28809-0.4502,0.82812-0.7207,1.46729-0.7207C63.03467,107.48944,63.52979,108.10175,63.52979,109.28143z"/>
			</g>
			<path id="Tracciato_48-3" fill="#009959" d="M5.294,123h9.412c2.84178-0.07901,5.21069,2.15834,5.294,5
				c-0.08331,2.84166-2.45222,5.07901-5.294,5H5.294c-2.84178,0.07901-5.21069-2.15834-5.294-5
				C0.08331,125.15834,2.45222,122.92099,5.294,123z"/>
			<g enable-background="new    ">
				<path d="M30.50928,124.72577h4.11426v0.59375h-3.4751v2.1875h3.12402v0.59473h-3.12402v2.30469h3.4751v0.59375h-4.11426
					V124.72577z"/>
				<path d="M39.42041,126.56171v4.43848h-0.62158v-0.63965c-0.31494,0.47754-0.88232,0.71191-1.46729,0.71191
					c-1.0083,0-1.44922-0.69336-1.44922-1.79199v-2.71875h0.62109v2.56543c0,0.7207,0.12598,1.39551,0.97217,1.39551
					c0.88232,0,1.32324-0.76465,1.32324-1.91699v-2.04395H39.42041z"/>
				<path d="M45.11719,128.77655c0,1.32324-0.67529,2.2959-1.97168,2.2959c-0.64795,0-1.14307-0.25195-1.46729-0.66602v2.43066
					h-0.62109v-6.27539h0.62109v0.59473c0.33301-0.43262,0.8374-0.67578,1.46729-0.67578
					C44.37891,126.48065,45.11719,127.38983,45.11719,128.77655z M44.49609,128.77655c0-1.05371-0.54004-1.74609-1.44043-1.74609
					c-0.89111,0-1.43164,0.69238-1.43164,1.74609c0,1.00781,0.49512,1.74609,1.43164,1.74609
					C44.00098,130.52264,44.49609,129.78436,44.49609,128.77655z"/>
				<path d="M49.94092,128.28143v2.71875h-0.62109v-2.56543c0-0.96387-0.30615-1.39551-0.97266-1.39551
					c-0.84619,0-1.32324,0.69336-1.32324,1.91699v2.04395h-0.62109v-6.27441h0.62109v2.48438
					c0.28809-0.4502,0.82812-0.7207,1.46729-0.7207C49.4458,126.48944,49.94092,127.10175,49.94092,128.28143z"/>
				<path d="M51.08252,128.77655c0-1.31445,0.85547-2.28711,2.12451-2.28711c1.26025,0,2.13379,0.97266,2.13379,2.28711
					c0,1.30566-0.86426,2.2959-2.13379,2.2959C51.93799,131.07245,51.08252,130.091,51.08252,128.77655z M54.71973,128.77655
					c0-1.00879-0.56738-1.7373-1.5127-1.7373c-0.9541,0-1.50342,0.73828-1.50342,1.7373c0,1.00781,0.55811,1.74609,1.50342,1.74609
					C54.16162,130.52264,54.71973,129.76678,54.71973,128.77655z"/>
				<path d="M59.2915,126.67889l-0.30615,0.50391c-0.20703-0.08984-0.396-0.13477-0.58496-0.13477
					c-0.68408,0-1.18848,0.5127-1.18848,1.47656v2.47559h-0.62109v-4.43848h0.62109v0.66602
					c0.32422-0.58496,0.86426-0.73828,1.31445-0.73828C58.79639,126.48944,59.04834,126.54413,59.2915,126.67889z"/>
				<path d="M60.1543,124.72577h0.72021v0.91797H60.1543V124.72577z M60.2085,126.56171h0.62109v4.43848H60.2085V126.56171z"/>
				<path d="M62.09863,128.79413c0-1.16992,0.65723-2.30469,1.99902-2.30469c0.79199,0,1.44922,0.39648,1.80078,1.22461
					l-0.59473,0.23438c-0.20703-0.56738-0.64844-0.90918-1.20605-0.90918c-0.9458,0-1.36865,0.8457-1.36865,1.75488
					s0.42285,1.72852,1.37744,1.72852c0.55859,0,0.99902-0.33301,1.16992-0.89941l0.57617,0.21582
					c-0.29688,0.80957-0.94531,1.2334-1.74609,1.2334C62.81885,131.07245,62.09863,130.02753,62.09863,128.79413z"/>
				<path d="M69.01953,129.91132l0.52246-0.23438c0.16211,0.45898,0.59375,0.8457,1.28711,0.8457
					c0.60352,0,0.99023-0.29688,0.99023-0.76465c0-1.17969-2.55664-0.44141-2.55664-2.0166
					c0-0.77441,0.62988-1.25195,1.52148-1.25195c0.71094,0,1.28711,0.29785,1.59375,0.92773l-0.49512,0.27051
					c-0.2168-0.39648-0.56738-0.64844-1.11621-0.64844c-0.5498,0-0.90039,0.22461-0.90039,0.6123
					c0,1.05273,2.56543,0.38672,2.56543,2.07031c0,0.90039-0.73828,1.35059-1.59375,1.35059
					C69.96484,131.07245,69.25391,130.62225,69.01953,129.91132z"/>
				<path d="M75.53613,130.95526c-0.23438,0.07227-0.46777,0.11719-0.6748,0.11719c-0.59473,0-1.02637-0.33301-1.02637-1.11621
					v-2.87207h-0.73828v-0.52246h0.73828v-1.24219l0.62109-0.46777v1.70996h1.07129v0.52246h-1.07129v2.79102
					c0,0.43164,0.19824,0.62988,0.54883,0.62988c0.15332,0,0.32422-0.03613,0.52246-0.09863L75.53613,130.95526z"/>
				<path d="M80.01855,128.23651v2.76367h-0.56738l-0.03613-0.68457c-0.35059,0.49512-0.89062,0.75684-1.59277,0.75684
					c-0.96387,0-1.53125-0.50391-1.53125-1.35938c0-0.4502,0.18066-0.79297,0.50488-0.99023
					c0.3418-0.19824,0.81934-0.2793,1.69238-0.2793h0.90918v-0.20703c0-0.77441-0.40527-1.19727-1.15234-1.19727
					c-0.55859,0-0.99023,0.24316-1.35059,0.73828l-0.4502-0.37891c0.47754-0.62109,1.05371-0.90918,1.80957-0.90918
					C79.37012,126.48944,80.01855,127.12909,80.01855,128.23651z M79.39746,129.01093v-0.06348h-0.85547
					c-0.81934,0-1.16992,0.05371-1.38672,0.22559c-0.16211,0.12598-0.24316,0.32324-0.24316,0.57617
					c0,0.49512,0.42383,0.80957,1.08984,0.80957C78.85742,130.55878,79.39746,129.95624,79.39746,129.01093z"/>
				<path d="M83.375,130.95526c-0.23438,0.07227-0.46777,0.11719-0.6748,0.11719c-0.59473,0-1.02637-0.33301-1.02637-1.11621
					v-2.87207h-0.73828v-0.52246h0.73828v-1.24219l0.62109-0.46777v1.70996h1.07129v0.52246h-1.07129v2.79102
					c0,0.43164,0.19824,0.62988,0.54883,0.62988c0.15332,0,0.32422-0.03613,0.52246-0.09863L83.375,130.95526z"/>
				<path d="M88.01953,128.94745h-3.25c0.01758,0.97266,0.55859,1.55762,1.43164,1.55762c0.48633,0,0.87305-0.12598,1.27832-0.55859
					l0.43164,0.37891c-0.52148,0.54883-1.03516,0.74707-1.71875,0.74707c-1.35059,0-2.04395-1.00879-2.04395-2.26855
					c0-1.25195,0.68457-2.31445,1.97168-2.31445c1.35938,0,1.92676,1.0625,1.92676,2.07129
					C88.04688,128.68671,88.03711,128.84003,88.01953,128.94745z M84.76953,128.42499h2.68262
					c0-0.01758-0.00879-0.0625-0.00879-0.14355c-0.04492-0.7207-0.50391-1.26953-1.32324-1.26953
					C85.31836,127.0119,84.82324,127.64178,84.76953,128.42499z"/>
			</g>
			<path id="Tracciato_48-4" fill="#00C19C" d="M5.294,142h9.412c2.84178-0.07901,5.21069,2.15834,5.294,5
				c-0.08331,2.84166-2.45222,5.07901-5.294,5H5.294c-2.84178,0.07901-5.21069-2.15834-5.294-5
				C0.08331,144.15834,2.45222,141.92099,5.294,142z"/>
			<g enable-background="new    ">
				<path d="M30.50928,143.72577h1.70166c2.04346,0,3.20459,1.16113,3.20459,3.18652c0,1.99902-1.13428,3.08789-3.21387,3.08789
					h-1.69238V143.72577z M32.14795,149.40643c1.75537,0,2.61963-0.8291,2.61963-2.52148c0-1.70117-0.86426-2.56543-2.56592-2.56543
					h-1.05322v5.08691H32.14795z"/>
				<path d="M38.05127,149.94647l-1.88135-4.38477H36.854l1.53027,3.65527l1.3418-3.65527h0.68408l-2.43066,6.27539h-0.6665
					L38.05127,149.94647z"/>
				<path d="M40.8501,148.91132l0.52197-0.23438c0.16211,0.45898,0.59424,0.8457,1.2876,0.8457
					c0.60303,0,0.99023-0.29688,0.99023-0.76465c0-1.17969-2.55713-0.44141-2.55713-2.0166
					c0-0.77441,0.63037-1.25195,1.52148-1.25195c0.71143,0,1.2876,0.29785,1.59375,0.92773l-0.49512,0.27051
					c-0.21631-0.39648-0.56738-0.64844-1.1167-0.64844c-0.54883,0-0.8999,0.22461-0.8999,0.6123
					c0,1.05273,2.56543,0.38672,2.56543,2.07031c0,0.90039-0.73779,1.35059-1.59326,1.35059
					C41.79541,150.07245,41.08398,149.62225,40.8501,148.91132z"/>
				<path d="M49.58105,147.77655c0,1.32324-0.67529,2.2959-1.97168,2.2959c-0.64795,0-1.14307-0.25195-1.46729-0.66602v2.43066
					H45.521v-6.27539h0.62109v0.59473c0.33301-0.43262,0.8374-0.67578,1.46729-0.67578
					C48.84277,145.48065,49.58105,146.38983,49.58105,147.77655z M48.95996,147.77655c0-1.05371-0.54004-1.74609-1.44043-1.74609
					c-0.89111,0-1.43164,0.69238-1.43164,1.74609c0,1.00781,0.49512,1.74609,1.43164,1.74609
					C48.46484,149.52264,48.95996,148.78436,48.95996,147.77655z"/>
				<path d="M54.40527,147.28143v2.71875h-0.62109v-2.56543c0-0.96387-0.30615-1.39551-0.97266-1.39551
					c-0.84619,0-1.32324,0.69336-1.32324,1.91699v2.04395h-0.62109v-6.27441h0.62109v2.48438
					c0.28809-0.4502,0.82812-0.7207,1.46729-0.7207C53.91016,145.48944,54.40527,146.10175,54.40527,147.28143z"/>
				<path d="M55.54688,147.77655c0-1.31445,0.85547-2.28711,2.12451-2.28711c1.26074,0,2.13379,0.97266,2.13379,2.28711
					c0,1.30566-0.86426,2.2959-2.13379,2.2959C56.40234,150.07245,55.54688,149.091,55.54688,147.77655z M59.18408,147.77655
					c0-1.00879-0.56738-1.7373-1.5127-1.7373c-0.9541,0-1.50342,0.73828-1.50342,1.7373c0,1.00781,0.55811,1.74609,1.50342,1.74609
					C58.62598,149.52264,59.18408,148.76678,59.18408,147.77655z"/>
				<path d="M63.75537,145.67889l-0.30615,0.50391c-0.20703-0.08984-0.396-0.13477-0.58496-0.13477
					c-0.68408,0-1.18848,0.5127-1.18848,1.47656v2.47559h-0.62109v-4.43848h0.62109v0.66602
					c0.32422-0.58496,0.86426-0.73828,1.31445-0.73828C63.26025,145.48944,63.51221,145.54413,63.75537,145.67889z"/>
				<path d="M64.61914,143.72577h0.71973v0.91797h-0.71973V143.72577z M64.67285,145.56171h0.62109v4.43848h-0.62109V145.56171z"/>
				<path d="M66.5625,147.79413c0-1.16992,0.65723-2.30469,1.99902-2.30469c0.79199,0,1.44922,0.39648,1.80078,1.22461
					l-0.59473,0.23438c-0.20703-0.56738-0.64844-0.90918-1.20605-0.90918c-0.94531,0-1.36816,0.8457-1.36816,1.75488
					s0.42285,1.72852,1.37695,1.72852c0.55859,0,0.99902-0.33301,1.16992-0.89941l0.57617,0.21582
					c-0.29688,0.80957-0.94531,1.2334-1.74609,1.2334C67.2832,150.07245,66.5625,149.02753,66.5625,147.79413z"/>
				<path d="M73.4834,148.91132l0.52246-0.23438c0.16211,0.45898,0.59375,0.8457,1.28711,0.8457
					c0.60352,0,0.99023-0.29688,0.99023-0.76465c0-1.17969-2.55664-0.44141-2.55664-2.0166
					c0-0.77441,0.62988-1.25195,1.52148-1.25195c0.71094,0,1.28711,0.29785,1.59375,0.92773l-0.49512,0.27051
					c-0.2168-0.39648-0.56738-0.64844-1.11621-0.64844c-0.5498,0-0.90039,0.22461-0.90039,0.6123
					c0,1.05273,2.56543,0.38672,2.56543,2.07031c0,0.90039-0.73828,1.35059-1.59375,1.35059
					C74.42871,150.07245,73.71777,149.62225,73.4834,148.91132z"/>
				<path d="M80,149.95526c-0.23438,0.07227-0.46777,0.11719-0.6748,0.11719c-0.59473,0-1.02637-0.33301-1.02637-1.11621v-2.87207
					h-0.73828v-0.52246h0.73828v-1.24219l0.62109-0.46777v1.70996h1.07129v0.52246h-1.07129v2.79102
					c0,0.43164,0.19824,0.62988,0.54883,0.62988c0.15332,0,0.32422-0.03613,0.52246-0.09863L80,149.95526z"/>
				<path d="M84.48242,147.23651v2.76367h-0.56738l-0.03613-0.68457c-0.35059,0.49512-0.89062,0.75684-1.59277,0.75684
					c-0.96387,0-1.53125-0.50391-1.53125-1.35938c0-0.4502,0.18066-0.79297,0.50488-0.99023
					c0.3418-0.19824,0.81934-0.2793,1.69238-0.2793h0.90918v-0.20703c0-0.77441-0.40527-1.19727-1.15234-1.19727
					c-0.55859,0-0.99023,0.24316-1.35059,0.73828l-0.4502-0.37891c0.47754-0.62109,1.05371-0.90918,1.80957-0.90918
					C83.83398,145.48944,84.48242,146.12909,84.48242,147.23651z M83.86133,148.01093v-0.06348h-0.85547
					c-0.81934,0-1.16992,0.05371-1.38672,0.22559c-0.16211,0.12598-0.24316,0.32324-0.24316,0.57617
					c0,0.49512,0.42383,0.80957,1.08984,0.80957C83.32129,149.55878,83.86133,148.95624,83.86133,148.01093z"/>
				<path d="M87.83887,149.95526c-0.23438,0.07227-0.46777,0.11719-0.6748,0.11719c-0.59473,0-1.02637-0.33301-1.02637-1.11621
					v-2.87207h-0.73828v-0.52246h0.73828v-1.24219l0.62109-0.46777v1.70996h1.07129v0.52246h-1.07129v2.79102
					c0,0.43164,0.19824,0.62988,0.54883,0.62988c0.15332,0,0.32422-0.03613,0.52246-0.09863L87.83887,149.95526z"/>
				<path d="M92.4834,147.94745h-3.25c0.01758,0.97266,0.55859,1.55762,1.43164,1.55762c0.48633,0,0.87305-0.12598,1.27832-0.55859
					l0.43164,0.37891c-0.52148,0.54883-1.03516,0.74707-1.71875,0.74707c-1.35059,0-2.04395-1.00879-2.04395-2.26855
					c0-1.25195,0.68457-2.31445,1.97168-2.31445c1.35938,0,1.92676,1.0625,1.92676,2.07129
					C92.51074,147.68671,92.50098,147.84003,92.4834,147.94745z M89.2334,147.42499h2.68262
					c0-0.01758-0.00879-0.0625-0.00879-0.14355c-0.04492-0.7207-0.50391-1.26953-1.32324-1.26953
					C89.78223,146.0119,89.28711,146.64178,89.2334,147.42499z"/>
			</g>
			<path id="Tracciato_48-5" fill="#8AE297" d="M5.294,162h9.412c2.84178-0.07901,5.21069,2.15834,5.294,5
				c-0.08331,2.84166-2.45222,5.07901-5.294,5H5.294c-2.84178,0.07901-5.21069-2.15834-5.294-5
				C0.08331,164.15834,2.45222,161.92099,5.294,162z"/>
			<g enable-background="new    ">
				<path d="M33.04736,170.00018l-1.60254-2.78223h-0.42334h-0.87305v2.78223h-0.63916v-6.27441h1.7915
					c1.35059,0,2.0708,0.60254,2.0708,1.7373c0,0.88184-0.44141,1.44922-1.2876,1.67383l1.71045,2.86328H33.04736z
					 M31.23779,166.62421c0.99023,0,1.48535-0.38672,1.48535-1.15234s-0.49512-1.15234-1.48535-1.15234h-1.08936v2.30469H31.23779z"
					/>
				<path d="M38.33008,167.94745h-3.24951c0.01758,0.97266,0.55811,1.55762,1.43115,1.55762
					c0.48633,0,0.87354-0.12598,1.27832-0.55859l0.43213,0.37891c-0.52197,0.54883-1.03516,0.74707-1.71924,0.74707
					c-1.35059,0-2.04395-1.00879-2.04395-2.26855c0-1.25195,0.68457-2.31445,1.97168-2.31445
					c1.35938,0,1.92676,1.0625,1.92676,2.07129C38.35742,167.68671,38.34814,167.84003,38.33008,167.94745z M35.08057,167.42499
					h2.68262c0-0.01758-0.00928-0.0625-0.00928-0.14355c-0.04492-0.7207-0.50391-1.26953-1.32324-1.26953
					C35.62939,166.0119,35.13428,166.64178,35.08057,167.42499z"/>
				<path d="M42.05615,168.97382v-4.57324c-0.23438-0.15332-0.50439-0.23438-0.81934-0.23438
					c-0.60303,0-0.93652,0.31543-0.93652,1.04492v0.35059h0.98145l-0.00879,0.52246h-0.97266v3.91602H39.6792v-3.91602h-0.73828
					v-0.52246h0.73828v-0.36035c0-1.05273,0.68457-1.54785,1.53076-1.54785c0.55811,0,0.90918,0.10742,1.4585,0.43164v4.90723
					c0,0.43164,0.16162,0.5127,0.42285,0.5127c0.10791,0,0.26123-0.02734,0.42334-0.08105v0.53125
					c-0.21631,0.0625-0.42334,0.11719-0.6123,0.11719C42.40723,170.07245,42.05615,169.79315,42.05615,168.97382z"/>
				<path d="M48.03174,167.94745h-3.25c0.01807,0.97266,0.55859,1.55762,1.43164,1.55762c0.48633,0,0.87305-0.12598,1.27832-0.55859
					l0.43213,0.37891c-0.52197,0.54883-1.03516,0.74707-1.71924,0.74707c-1.35059,0-2.04395-1.00879-2.04395-2.26855
					c0-1.25195,0.68457-2.31445,1.97168-2.31445c1.35938,0,1.92676,1.0625,1.92676,2.07129
					C48.05908,167.68671,48.0498,167.84003,48.03174,167.94745z M44.78174,167.42499h2.68311
					c0-0.01758-0.00928-0.0625-0.00928-0.14355c-0.04492-0.7207-0.50391-1.26953-1.32324-1.26953
					C45.33105,166.0119,44.83594,166.64178,44.78174,167.42499z"/>
				<path d="M48.93994,167.79413c0-1.16992,0.65723-2.30469,1.99854-2.30469c0.79248,0,1.44922,0.39648,1.80029,1.22461
					l-0.59375,0.23438c-0.20703-0.56738-0.64844-0.90918-1.20654-0.90918c-0.94531,0-1.36865,0.8457-1.36865,1.75488
					s0.42334,1.72852,1.37744,1.72852c0.55859,0,0.99951-0.33301,1.17041-0.89941l0.57617,0.21582
					c-0.29688,0.80957-0.94531,1.2334-1.74658,1.2334C49.66016,170.07245,48.93994,169.02753,48.93994,167.79413z"/>
				<path d="M55.72705,169.95526c-0.23438,0.07227-0.46826,0.11719-0.67529,0.11719c-0.59424,0-1.02637-0.33301-1.02637-1.11621
					v-2.87207h-0.73828v-0.52246h0.73828v-1.24219l0.62109-0.46777v1.70996h1.07129v0.52246h-1.07129v2.79102
					c0,0.43164,0.19824,0.62988,0.54932,0.62988c0.15283,0,0.32373-0.03613,0.52197-0.09863L55.72705,169.95526z"/>
				<path d="M56.85107,163.72577h0.72021v0.91797h-0.72021V163.72577z M56.90527,165.56171h0.62109v4.43848h-0.62109V165.56171z"/>
				<path d="M58.5249,165.56171h0.67529l1.39502,3.64648L62,165.56171h0.68408l-1.81836,4.43848h-0.53125L58.5249,165.56171z"/>
				<path d="M67.05762,167.94745h-3.24951c0.01758,0.97266,0.55811,1.55762,1.43115,1.55762
					c0.48633,0,0.87402-0.12598,1.27832-0.55859l0.43262,0.37891c-0.52246,0.54883-1.03516,0.74707-1.71973,0.74707
					c-1.35059,0-2.04395-1.00879-2.04395-2.26855c0-1.25195,0.68457-2.31445,1.97168-2.31445
					c1.35938,0,1.92676,1.0625,1.92676,2.07129C67.08496,167.68671,67.07617,167.84003,67.05762,167.94745z M63.80811,167.42499
					h2.68311c0-0.01758-0.00977-0.0625-0.00977-0.14355c-0.04492-0.7207-0.50391-1.26953-1.32324-1.26953
					C64.35742,166.0119,63.86182,166.64178,63.80811,167.42499z"/>
				<path d="M70.31543,168.91132l0.52148-0.23438c0.16211,0.45898,0.59473,0.8457,1.28809,0.8457
					c0.60254,0,0.99023-0.29688,0.99023-0.76465c0-1.17969-2.55762-0.44141-2.55762-2.0166
					c0-0.77441,0.63086-1.25195,1.52148-1.25195c0.71191,0,1.28809,0.29785,1.59375,0.92773l-0.49512,0.27051
					c-0.21582-0.39648-0.56738-0.64844-1.11621-0.64844s-0.90039,0.22461-0.90039,0.6123c0,1.05273,2.56543,0.38672,2.56543,2.07031
					c0,0.90039-0.7373,1.35059-1.59277,1.35059C71.26074,170.07245,70.54883,169.62225,70.31543,168.91132z"/>
				<path d="M76.83203,169.95526c-0.23438,0.07227-0.46875,0.11719-0.67578,0.11719c-0.59375,0-1.02637-0.33301-1.02637-1.11621
					v-2.87207H74.3916v-0.52246h0.73828v-1.24219l0.62109-0.46777v1.70996h1.07129v0.52246h-1.07129v2.79102
					c0,0.43164,0.19824,0.62988,0.5498,0.62988c0.15234,0,0.32324-0.03613,0.52148-0.09863L76.83203,169.95526z"/>
				<path d="M81.31348,167.23651v2.76367h-0.56641l-0.03613-0.68457c-0.35156,0.49512-0.8916,0.75684-1.59375,0.75684
					c-0.96289,0-1.53027-0.50391-1.53027-1.35938c0-0.4502,0.17969-0.79297,0.50391-0.99023
					c0.3418-0.19824,0.81934-0.2793,1.69238-0.2793h0.90918v-0.20703c0-0.77441-0.4043-1.19727-1.15234-1.19727
					c-0.55762,0-0.99023,0.24316-1.34961,0.73828l-0.4502-0.37891c0.47656-0.62109,1.05273-0.90918,1.80957-0.90918
					C80.66602,165.48944,81.31348,166.12909,81.31348,167.23651z M80.69238,168.01093v-0.06348h-0.85449
					c-0.81934,0-1.1709,0.05371-1.38672,0.22559c-0.16211,0.12598-0.24316,0.32324-0.24316,0.57617
					c0,0.49512,0.42285,0.80957,1.08887,0.80957C80.15234,169.55878,80.69238,168.95624,80.69238,168.01093z"/>
				<path d="M84.6709,169.95526c-0.23438,0.07227-0.46875,0.11719-0.67578,0.11719c-0.59375,0-1.02637-0.33301-1.02637-1.11621
					v-2.87207h-0.73828v-0.52246h0.73828v-1.24219l0.62109-0.46777v1.70996h1.07129v0.52246h-1.07129v2.79102
					c0,0.43164,0.19824,0.62988,0.5498,0.62988c0.15234,0,0.32324-0.03613,0.52148-0.09863L84.6709,169.95526z"/>
				<path d="M89.31445,167.94745h-3.24902c0.01758,0.97266,0.55762,1.55762,1.43066,1.55762
					c0.48633,0,0.87402-0.12598,1.27832-0.55859l0.43262,0.37891c-0.52246,0.54883-1.03516,0.74707-1.71973,0.74707
					c-1.35059,0-2.04395-1.00879-2.04395-2.26855c0-1.25195,0.68457-2.31445,1.97168-2.31445
					c1.35938,0,1.92676,1.0625,1.92676,2.07129C89.3418,167.68671,89.33301,167.84003,89.31445,167.94745z M86.06543,167.42499
					h2.68262c0-0.01758-0.00977-0.0625-0.00977-0.14355c-0.04492-0.7207-0.50391-1.26953-1.32324-1.26953
					C86.61426,166.0119,86.11914,166.64178,86.06543,167.42499z"/>
			</g>
			<path id="Tracciato_48-6" fill="#00FFB6" d="M5.294,181h9.412c2.84178-0.07901,5.21069,2.15834,5.294,5
				c-0.08331,2.84166-2.45222,5.07901-5.294,5H5.294c-2.84178,0.07901-5.21069-2.15834-5.294-5
				C0.08331,183.15834,2.45222,180.92099,5.294,181z"/>
			<g enable-background="new    ">
				<path d="M28.92383,187.34393l0.63916-0.15332c0.11719,0.81055,0.72949,1.32324,1.57568,1.32324
					c0.90918,0,1.36865-0.47656,1.36865-1.09766c0-0.67578-0.38721-1.02637-1.49463-1.4502
					c-1.26953-0.47656-1.71045-0.92676-1.71045-1.74609c0-0.9541,0.72021-1.58496,1.78223-1.58496
					c0.79248,0,1.41357,0.35156,1.79199,1.01758l-0.54053,0.33301c-0.27002-0.48633-0.729-0.77441-1.26904-0.77441
					c-0.65723,0-1.12549,0.4502-1.12549,0.98145c0,0.57617,0.43213,0.88281,1.42236,1.26074
					c1.39551,0.53125,1.7915,1.03516,1.7915,1.9082c0,1.05371-0.729,1.72852-2.02539,1.72852
					C29.96826,189.09003,29.09521,188.39667,28.92383,187.34393z"/>
				<path d="M37.67334,184.56171v4.43848h-0.62158v-0.63965c-0.31494,0.47754-0.88232,0.71191-1.46729,0.71191
					c-1.0083,0-1.44922-0.69336-1.44922-1.79199v-2.71875h0.62109v2.56543c0,0.7207,0.12598,1.39551,0.97217,1.39551
					c0.88232,0,1.32324-0.76465,1.32324-1.91699v-2.04395H37.67334z"/>
				<path d="M38.83301,187.91132l0.52197-0.23438c0.16211,0.45898,0.59424,0.8457,1.2876,0.8457
					c0.60303,0,0.99023-0.29688,0.99023-0.76465c0-1.17969-2.55713-0.44141-2.55713-2.0166
					c0-0.77441,0.63037-1.25195,1.52148-1.25195c0.71143,0,1.2876,0.29785,1.59375,0.92773l-0.49512,0.27051
					c-0.21631-0.39648-0.56738-0.64844-1.11621-0.64844c-0.54932,0-0.90039,0.22461-0.90039,0.6123
					c0,1.05273,2.56543,0.38672,2.56543,2.07031c0,0.90039-0.73779,1.35059-1.59326,1.35059
					C39.77832,189.07245,39.06689,188.62225,38.83301,187.91132z"/>
				<path d="M47.56396,186.77655c0,1.32324-0.67529,2.2959-1.97168,2.2959c-0.64795,0-1.14307-0.25195-1.46729-0.66602v2.43066
					h-0.62109v-6.27539H44.125v0.59473c0.33301-0.43262,0.8374-0.67578,1.46729-0.67578
					C46.82568,184.48065,47.56396,185.38983,47.56396,186.77655z M46.94287,186.77655c0-1.05371-0.54004-1.74609-1.44043-1.74609
					c-0.89111,0-1.43164,0.69238-1.43164,1.74609c0,1.00781,0.49512,1.74609,1.43164,1.74609
					C46.44775,188.52264,46.94287,187.78436,46.94287,186.77655z"/>
				<path d="M52.36084,186.94745h-3.25c0.01807,0.97266,0.55859,1.55762,1.43164,1.55762c0.48633,0,0.87305-0.12598,1.27832-0.55859
					l0.43213,0.37891c-0.52197,0.54883-1.03516,0.74707-1.71924,0.74707c-1.35059,0-2.04395-1.00879-2.04395-2.26855
					c0-1.25195,0.68457-2.31445,1.97168-2.31445c1.35938,0,1.92676,1.0625,1.92676,2.07129
					C52.38818,186.68671,52.37891,186.84003,52.36084,186.94745z M49.11084,186.42499h2.68311
					c0-0.01758-0.00928-0.0625-0.00928-0.14355c-0.04492-0.7207-0.50391-1.26953-1.32324-1.26953
					C49.66016,185.0119,49.16504,185.64178,49.11084,186.42499z"/>
				<path d="M57.17578,186.28143v2.71875h-0.62109v-2.56543c0-0.95508-0.30615-1.39551-0.97266-1.39551
					c-0.83691,0-1.32324,0.71973-1.32324,1.97168v1.98926H53.6377v-4.43848h0.62109v0.64844
					c0.28809-0.4502,0.82812-0.7207,1.46729-0.7207C56.68066,184.48944,57.17578,185.10175,57.17578,186.28143z"/>
				<path d="M62.41357,182.72577v6.27441h-0.62109v-0.59375c-0.32422,0.41406-0.81934,0.66602-1.46729,0.66602
					c-1.29639,0-1.97168-0.97266-1.97168-2.2959c0-1.38672,0.73828-2.2959,1.97168-2.2959
					c0.62988,0,1.13428,0.24316,1.46729,0.67578v-2.43066H62.41357z M61.84619,186.77655c0-1.05371-0.54004-1.74609-1.43115-1.74609
					c-0.90039,0-1.44043,0.69238-1.44043,1.74609c0,1.00781,0.49512,1.74609,1.44043,1.74609
					C61.35107,188.52264,61.84619,187.78436,61.84619,186.77655z"/>
				<path d="M67.56152,186.94745H64.3125c0.01758,0.97266,0.55762,1.55762,1.43066,1.55762
					c0.48633,0,0.87402-0.12598,1.27832-0.55859l0.43262,0.37891c-0.52246,0.54883-1.03516,0.74707-1.71973,0.74707
					c-1.35059,0-2.04395-1.00879-2.04395-2.26855c0-1.25195,0.68457-2.31445,1.97168-2.31445
					c1.35938,0,1.92676,1.0625,1.92676,2.07129C67.58887,186.68671,67.58008,186.84003,67.56152,186.94745z M64.3125,186.42499
					h2.68262c0-0.01758-0.00977-0.0625-0.00977-0.14355c-0.04492-0.7207-0.50391-1.26953-1.32324-1.26953
					C64.86133,185.0119,64.36621,185.64178,64.3125,186.42499z"/>
				<path d="M72.54785,182.72577v6.27441h-0.62109v-0.59375c-0.32422,0.41406-0.81934,0.66602-1.4668,0.66602
					c-1.29688,0-1.97168-0.97266-1.97168-2.2959c0-1.38672,0.73828-2.2959,1.97168-2.2959c0.62988,0,1.13379,0.24316,1.4668,0.67578
					v-2.43066H72.54785z M71.98145,186.77655c0-1.05371-0.54102-1.74609-1.43164-1.74609
					c-0.90039,0-1.44043,0.69238-1.44043,1.74609c0,1.00781,0.49512,1.74609,1.44043,1.74609
					C71.48535,188.52264,71.98145,187.78436,71.98145,186.77655z"/>
				<path d="M76.16504,187.91132l0.52148-0.23438c0.16211,0.45898,0.59473,0.8457,1.28809,0.8457
					c0.60254,0,0.99023-0.29688,0.99023-0.76465c0-1.17969-2.55762-0.44141-2.55762-2.0166
					c0-0.77441,0.63086-1.25195,1.52148-1.25195c0.71191,0,1.28809,0.29785,1.59375,0.92773l-0.49512,0.27051
					c-0.21582-0.39648-0.56738-0.64844-1.11621-0.64844s-0.90039,0.22461-0.90039,0.6123c0,1.05273,2.56543,0.38672,2.56543,2.07031
					c0,0.90039-0.7373,1.35059-1.59277,1.35059C77.11035,189.07245,76.39844,188.62225,76.16504,187.91132z"/>
				<path d="M82.68164,188.95526c-0.23438,0.07227-0.46875,0.11719-0.67578,0.11719c-0.59375,0-1.02637-0.33301-1.02637-1.11621
					v-2.87207h-0.73828v-0.52246h0.73828v-1.24219l0.62109-0.46777v1.70996h1.07129v0.52246h-1.07129v2.79102
					c0,0.43164,0.19824,0.62988,0.5498,0.62988c0.15234,0,0.32324-0.03613,0.52148-0.09863L82.68164,188.95526z"/>
				<path d="M87.16309,186.23651v2.76367h-0.56641l-0.03613-0.68457c-0.35156,0.49512-0.8916,0.75684-1.59375,0.75684
					c-0.96289,0-1.53027-0.50391-1.53027-1.35938c0-0.4502,0.17969-0.79297,0.50391-0.99023
					c0.3418-0.19824,0.81934-0.2793,1.69238-0.2793h0.90918v-0.20703c0-0.77441-0.4043-1.19727-1.15234-1.19727
					c-0.55762,0-0.99023,0.24316-1.34961,0.73828l-0.4502-0.37891c0.47656-0.62109,1.05273-0.90918,1.80957-0.90918
					C86.51562,184.48944,87.16309,185.12909,87.16309,186.23651z M86.54199,187.01093v-0.06348H85.6875
					c-0.81934,0-1.1709,0.05371-1.38672,0.22559c-0.16211,0.12598-0.24316,0.32324-0.24316,0.57617
					c0,0.49512,0.42285,0.80957,1.08887,0.80957C86.00195,188.55878,86.54199,187.95624,86.54199,187.01093z"/>
				<path d="M90.52051,188.95526c-0.23438,0.07227-0.46875,0.11719-0.67578,0.11719c-0.59375,0-1.02637-0.33301-1.02637-1.11621
					v-2.87207h-0.73828v-0.52246h0.73828v-1.24219l0.62109-0.46777v1.70996h1.07129v0.52246h-1.07129v2.79102
					c0,0.43164,0.19824,0.62988,0.5498,0.62988c0.15234,0,0.32324-0.03613,0.52148-0.09863L90.52051,188.95526z"/>
				<path d="M95.16406,186.94745h-3.24902c0.01758,0.97266,0.55762,1.55762,1.43066,1.55762
					c0.48633,0,0.87402-0.12598,1.27832-0.55859l0.43262,0.37891c-0.52246,0.54883-1.03516,0.74707-1.71973,0.74707
					c-1.35059,0-2.04395-1.00879-2.04395-2.26855c0-1.25195,0.68457-2.31445,1.97168-2.31445
					c1.35938,0,1.92676,1.0625,1.92676,2.07129C95.19141,186.68671,95.18262,186.84003,95.16406,186.94745z M91.91504,186.42499
					h2.68262c0-0.01758-0.00977-0.0625-0.00977-0.14355c-0.04492-0.7207-0.50391-1.26953-1.32324-1.26953
					C92.46387,185.0119,91.96875,185.64178,91.91504,186.42499z"/>
			</g>
			<path id="Tracciato_48-7" fill="#FFA500" d="M5.294,200h9.412c2.84178-0.07901,5.21069,2.15834,5.294,5
				c-0.08331,2.84166-2.45222,5.07901-5.294,5H5.294c-2.84178,0.07901-5.21069-2.15834-5.294-5
				C0.08331,202.15834,2.45222,199.92099,5.294,200z"/>
			<g enable-background="new    ">
				<path d="M33.93848,201.72577v6.27441h-0.70215l-3.08789-5.18555v5.18555h-0.63916v-6.27441h0.69336l3.09668,5.1582v-5.1582
					H33.93848z"/>
				<path d="M39.04102,205.23651v2.76367h-0.56689l-0.03613-0.68457c-0.35107,0.49512-0.89111,0.75684-1.59326,0.75684
					c-0.96338,0-1.53076-0.50391-1.53076-1.35938c0-0.4502,0.18018-0.79297,0.50439-0.99023
					c0.3418-0.19824,0.81934-0.2793,1.69238-0.2793h0.90918v-0.20703c0-0.77441-0.40479-1.19727-1.15234-1.19727
					c-0.55811,0-0.99023,0.24316-1.3501,0.73828l-0.4502-0.37891c0.47705-0.62109,1.05322-0.90918,1.80957-0.90918
					C38.39307,203.48944,39.04102,204.12909,39.04102,205.23651z M38.41992,206.01093v-0.06348h-0.85498
					c-0.81934,0-1.17041,0.05371-1.38672,0.22559c-0.16211,0.12598-0.24316,0.32324-0.24316,0.57617
					c0,0.49512,0.42334,0.80957,1.08936,0.80957C37.87988,207.55878,38.41992,206.95624,38.41992,206.01093z"/>
				<path d="M43.25293,203.67889l-0.30615,0.50391c-0.20703-0.08984-0.396-0.13477-0.58496-0.13477
					c-0.68457,0-1.18848,0.5127-1.18848,1.47656v2.47559h-0.62109v-4.43848h0.62109v0.66602
					c0.32422-0.58496,0.86426-0.73828,1.31445-0.73828C42.75781,203.48944,43.00977,203.54413,43.25293,203.67889z"/>
				<path d="M46.87061,203.67889l-0.30615,0.50391c-0.20703-0.08984-0.396-0.13477-0.58496-0.13477
					c-0.68408,0-1.18848,0.5127-1.18848,1.47656v2.47559h-0.62109v-4.43848h0.62109v0.66602
					c0.32422-0.58496,0.86426-0.73828,1.31445-0.73828C46.37549,203.48944,46.62744,203.54413,46.87061,203.67889z"/>
				<path d="M51.0918,205.23651v2.76367H50.5249l-0.03613-0.68457c-0.35107,0.49512-0.89111,0.75684-1.59326,0.75684
					c-0.96338,0-1.53076-0.50391-1.53076-1.35938c0-0.4502,0.18018-0.79297,0.50439-0.99023
					c0.3418-0.19824,0.81934-0.2793,1.69238-0.2793h0.90918v-0.20703c0-0.77441-0.40479-1.19727-1.15234-1.19727
					c-0.55811,0-0.99023,0.24316-1.3501,0.73828l-0.4502-0.37891c0.47705-0.62109,1.05322-0.90918,1.80957-0.90918
					C50.44385,203.48944,51.0918,204.12909,51.0918,205.23651z M50.4707,206.01093v-0.06348h-0.85498
					c-0.81934,0-1.17041,0.05371-1.38672,0.22559c-0.16211,0.12598-0.24316,0.32324-0.24316,0.57617
					c0,0.49512,0.42334,0.80957,1.08936,0.80957C49.93066,207.55878,50.4707,206.95624,50.4707,206.01093z"/>
				<path d="M54.44873,207.95526c-0.23438,0.07227-0.46826,0.11719-0.67529,0.11719c-0.59424,0-1.02637-0.33301-1.02637-1.11621
					v-2.87207h-0.73828v-0.52246h0.73828v-1.24219l0.62109-0.46777v1.70996h1.07129v0.52246h-1.07129v2.79102
					c0,0.43164,0.19824,0.62988,0.54932,0.62988c0.15283,0,0.32373-0.03613,0.52197-0.09863L54.44873,207.95526z"/>
				<path d="M55.57275,201.72577h0.72021v0.91797h-0.72021V201.72577z M55.62695,203.56171h0.62109v4.43848h-0.62109V203.56171z"/>
				<path d="M57.24658,203.56171h0.67529l1.39502,3.64648l1.40479-3.64648h0.68408l-1.81836,4.43848h-0.53125L57.24658,203.56171z"
					/>
				<path d="M65.7793,205.94745h-3.24951c0.01758,0.97266,0.55811,1.55762,1.43115,1.55762
					c0.48633,0,0.87402-0.12598,1.27832-0.55859l0.43262,0.37891c-0.52246,0.54883-1.03516,0.74707-1.71973,0.74707
					c-1.35059,0-2.04395-1.00879-2.04395-2.26855c0-1.25195,0.68457-2.31445,1.97168-2.31445
					c1.35938,0,1.92676,1.0625,1.92676,2.07129C65.80664,205.68671,65.79785,205.84003,65.7793,205.94745z M62.52979,205.42499
					h2.68311c0-0.01758-0.00977-0.0625-0.00977-0.14355c-0.04492-0.7207-0.50391-1.26953-1.32324-1.26953
					C63.07861,204.0119,62.5835,204.64178,62.52979,205.42499z"/>
				<path d="M69.78418,204.08417h-0.93652v-0.52246h0.94531v-0.68359c0-0.94531,0.54883-1.22461,1.11621-1.22461
					c0.24316,0,0.51367,0.05371,0.79199,0.1709l-0.21582,0.49512c-0.18945-0.08984-0.36035-0.14453-0.5127-0.14453
					c-0.35156,0-0.56738,0.24316-0.56738,0.65723v0.72949h1.27832v0.52246h-1.27832v3.91602h-0.62109V204.08417z"/>
				<path d="M75.35547,203.67889l-0.30566,0.50391c-0.20703-0.08984-0.39648-0.13477-0.58496-0.13477
					c-0.68457,0-1.18848,0.5127-1.18848,1.47656v2.47559h-0.62109v-4.43848h0.62109v0.66602
					c0.32422-0.58496,0.86426-0.73828,1.31445-0.73828C74.86035,203.48944,75.1123,203.54413,75.35547,203.67889z"/>
				<path d="M79.57617,205.23651v2.76367h-0.56641l-0.03613-0.68457c-0.35156,0.49512-0.8916,0.75684-1.59375,0.75684
					c-0.96289,0-1.53027-0.50391-1.53027-1.35938c0-0.4502,0.17969-0.79297,0.50391-0.99023
					c0.3418-0.19824,0.81934-0.2793,1.69238-0.2793h0.90918v-0.20703c0-0.77441-0.4043-1.19727-1.15234-1.19727
					c-0.55762,0-0.99023,0.24316-1.34961,0.73828l-0.4502-0.37891c0.47656-0.62109,1.05273-0.90918,1.80957-0.90918
					C78.92871,203.48944,79.57617,204.12909,79.57617,205.23651z M78.95508,206.01093v-0.06348h-0.85449
					c-0.81934,0-1.1709,0.05371-1.38672,0.22559c-0.16211,0.12598-0.24316,0.32324-0.24316,0.57617
					c0,0.49512,0.42285,0.80957,1.08887,0.80957C78.41504,207.55878,78.95508,206.95624,78.95508,206.01093z"/>
				<path d="M87.17383,205.22772v2.77246h-0.62207v-2.60156c0-0.37793,0-1.35938-0.97168-1.35938
					c-0.90039,0-1.14355,0.82812-1.14355,1.82715v2.13379h-0.62109v-2.56543c0-0.73828-0.22559-1.39551-0.99902-1.39551
					c-0.86426,0-1.10742,0.81934-1.10742,1.82715v2.13379h-0.62109l-0.00977-4.43848h0.60352v0.54004
					c0.2793-0.44043,0.72949-0.6123,1.22461-0.6123c0.62109,0,1.08008,0.27051,1.30566,0.85547
					c0.28809-0.56738,0.7832-0.85547,1.45801-0.85547C86.73242,203.48944,87.17383,204.19159,87.17383,205.22772z"/>
				<path d="M92.21289,205.94745h-3.25c0.01758,0.97266,0.55859,1.55762,1.43164,1.55762c0.48633,0,0.87305-0.12598,1.27832-0.55859
					l0.43164,0.37891c-0.52148,0.54883-1.03516,0.74707-1.71875,0.74707c-1.35059,0-2.04395-1.00879-2.04395-2.26855
					c0-1.25195,0.68457-2.31445,1.97168-2.31445c1.35938,0,1.92676,1.0625,1.92676,2.07129
					C92.24023,205.68671,92.23047,205.84003,92.21289,205.94745z M88.96289,205.42499h2.68262
					c0-0.01758-0.00879-0.0625-0.00879-0.14355c-0.04492-0.7207-0.50391-1.26953-1.32324-1.26953
					C89.51172,204.0119,89.0166,204.64178,88.96289,205.42499z"/>
			</g>
			<g enable-background="new    ">
				<path d="M30.02637,86.72577h0.63916v6.27441h-0.63916V86.72577z"/>
				<path d="M36.04834,90.28143v2.71875h-0.62109v-2.56543c0-0.95508-0.30615-1.39551-0.97266-1.39551
					c-0.83691,0-1.32324,0.71973-1.32324,1.97168v1.98926h-0.62109v-4.43848h0.62109v0.64844
					c0.28809-0.4502,0.82812-0.7207,1.46729-0.7207C35.55322,88.48944,36.04834,89.10175,36.04834,90.28143z"/>
				<path d="M39.42285,92.95526c-0.23438,0.07227-0.46826,0.11719-0.67529,0.11719c-0.59424,0-1.02637-0.33301-1.02637-1.11621
					v-2.87207h-0.73828v-0.52246h0.73828v-1.24219l0.62109-0.46777v1.70996h1.07129v0.52246h-1.07129v2.79102
					c0,0.43164,0.19824,0.62988,0.54932,0.62988c0.15283,0,0.32373-0.03613,0.52197-0.09863L39.42285,92.95526z"/>
				<path d="M44.06689,90.94745h-3.24951c0.01758,0.97266,0.55811,1.55762,1.43115,1.55762
					c0.48633,0,0.87354-0.12598,1.27832-0.55859l0.43213,0.37891c-0.52197,0.54883-1.03516,0.74707-1.71924,0.74707
					c-1.35059,0-2.04395-1.00879-2.04395-2.26855c0-1.25195,0.68457-2.31445,1.97168-2.31445
					c1.35938,0,1.92676,1.0625,1.92676,2.07129C44.09424,90.68671,44.08496,90.84003,44.06689,90.94745z M40.81738,90.42499H43.5
					c0-0.01758-0.00928-0.0625-0.00928-0.14355c-0.04492-0.7207-0.50391-1.26953-1.32324-1.26953
					C41.36621,89.0119,40.87109,89.64178,40.81738,90.42499z"/>
				<path d="M48.88232,90.28143v2.71875h-0.62109v-2.56543c0-0.95508-0.30615-1.39551-0.97266-1.39551
					c-0.83691,0-1.32324,0.71973-1.32324,1.97168v1.98926h-0.62109v-4.43848h0.62109v0.64844
					c0.28809-0.4502,0.82812-0.7207,1.46729-0.7207C48.38721,88.48944,48.88232,89.10175,48.88232,90.28143z"/>
				<path d="M52.25684,92.95526c-0.23438,0.07227-0.46826,0.11719-0.67529,0.11719c-0.59424,0-1.02637-0.33301-1.02637-1.11621
					v-2.87207h-0.73828v-0.52246h0.73828v-1.24219l0.62109-0.46777v1.70996h1.07129v0.52246h-1.07129v2.79102
					c0,0.43164,0.19824,0.62988,0.54932,0.62988c0.15283,0,0.32373-0.03613,0.52197-0.09863L52.25684,92.95526z"/>
				<path d="M53.38086,86.72577h0.72021v0.91797h-0.72021V86.72577z M53.43506,88.56171h0.62109v4.43848h-0.62109V88.56171z"/>
				<path d="M55.30664,90.77655c0-1.31445,0.85547-2.28711,2.12451-2.28711c1.26025,0,2.13379,0.97266,2.13379,2.28711
					c0,1.30566-0.86426,2.2959-2.13379,2.2959C56.16211,93.07245,55.30664,92.091,55.30664,90.77655z M58.94385,90.77655
					c0-1.00879-0.56738-1.7373-1.5127-1.7373c-0.9541,0-1.50342,0.73828-1.50342,1.7373c0,1.00781,0.55811,1.74609,1.50342,1.74609
					C58.38574,92.52264,58.94385,91.76678,58.94385,90.77655z"/>
				<path d="M64.35352,90.28143v2.71875h-0.62158v-2.56543c0-0.95508-0.30615-1.39551-0.97266-1.39551
					c-0.83691,0-1.32324,0.71973-1.32324,1.97168v1.98926h-0.62109v-4.43848h0.62109v0.64844
					c0.28809-0.4502,0.82812-0.7207,1.46729-0.7207C63.85791,88.48944,64.35352,89.10175,64.35352,90.28143z"/>
			</g>
			<path id="Tracciato_46" fill="#6E94F4" d="M5.294,85h9.412c2.84178-0.07901,5.21069,2.15834,5.294,5
				c-0.08331,2.84166-2.45222,5.07901-5.294,5H5.294C2.45222,95.07901,0.08331,92.84166,0,90
				C0.08331,87.15834,2.45222,84.92099,5.294,85z"/>
		</g>
		<g enable-background="new    ">
			<path d="M0.31982,7.12128l0.71973-0.12988C0.98926,7.95038,1.68896,8.43085,2.56836,8.43085
				c0.99951,0,1.75928-0.61035,1.75928-1.42969c0-0.7998-0.71973-1.08887-1.38916-1.38867
				C2.10889,5.24237,1.36914,4.87225,1.36914,3.89276c0-1.10938,0.95947-1.93848,2.229-1.93848
				c0.80957,0,1.56885,0.33984,1.87891,1.14941l-0.6499,0.3291C4.6377,2.87323,4.11768,2.59393,3.52783,2.59393
				c-0.84912,0-1.44873,0.55957-1.44873,1.22949c0,0.66895,0.61963,0.93945,1.31885,1.25879
				C4.27783,5.4826,5.04736,5.84198,5.04736,6.89178c0,1.24902-1.11963,2.17871-2.52881,2.17871
				C1.2793,9.0705,0.29004,8.36053,0.31982,7.12128z"/>
			<path d="M6.66943,6.75116c-0.02979,0.16016-0.0498,0.29004-0.0498,0.4502c0,0.78906,0.44971,1.24902,1.26904,1.24902
				c0.59961,0,1.0498-0.17969,1.56934-0.64941l0.41992,0.46973c-0.66992,0.5791-1.2793,0.80957-2.03906,0.80957
				c-1.2793,0-1.87891-0.7998-1.87891-1.89941c0-1.64844,1.11914-3.1875,2.7085-3.1875c1.2793,0,1.77881,0.83887,1.77881,1.77832
				c0,0.2998-0.06982,0.7002-0.15967,0.97949H6.66943z M6.7793,6.19159h2.96826c0.05029-0.17969,0.07031-0.34961,0.07031-0.5
				c0-0.5791-0.3501-1.0791-1.18945-1.0791C7.69873,4.61249,7.03906,5.31268,6.7793,6.19159z"/>
			<path d="M16.29688,4.07245l-1.35938,6.9668h-0.75977l0.52002-2.59863c-0.42969,0.40918-1.04932,0.63965-1.66943,0.63965
				c-1.21924,0-1.86865-0.79004-1.86865-1.95898c0-1.56934,1.15918-3.12793,2.73828-3.12793
				c0.66992,0,1.21924,0.2793,1.51904,0.72949l0.12012-0.65039H16.29688z M13.94824,4.62225
				c-1.24951,0-2.10889,1.26953-2.10889,2.42871c0,0.85938,0.46973,1.38965,1.28906,1.38965c1.11963,0,1.96924-1,2.09912-2.16895
				C15.3374,5.28241,14.85742,4.62225,13.94824,4.62225z"/>
			<path d="M21.79688,4.07245L20.8374,9.00018h-0.68945l0.12012-0.56934c-0.45996,0.46973-1.07959,0.64941-1.61914,0.64941
				c-0.93945,0-1.4292-0.54004-1.4292-1.37891c0-0.27051,0.0498-0.54004,0.06982-0.63965l0.57959-2.98926h0.68994l-0.56982,2.92871
				c-0.03027,0.16016-0.06982,0.36035-0.06982,0.56934c0,0.5498,0.25977,0.90039,0.9292,0.90039
				c1.07959,0,1.59912-0.9502,1.8291-2.14941l0.42969-2.24902H21.79688z"/>
			<path d="M23.229,6.75116c-0.02979,0.16016-0.0498,0.29004-0.0498,0.4502c0,0.78906,0.44971,1.24902,1.26904,1.24902
				c0.59961,0,1.0498-0.17969,1.56934-0.64941l0.41992,0.46973c-0.66992,0.5791-1.2793,0.80957-2.03906,0.80957
				c-1.2793,0-1.87891-0.7998-1.87891-1.89941c0-1.64844,1.11914-3.1875,2.7085-3.1875c1.2793,0,1.77881,0.83887,1.77881,1.77832
				c0,0.2998-0.06982,0.7002-0.15967,0.97949H23.229z M23.33887,6.19159h2.96826c0.05029-0.17969,0.07031-0.34961,0.07031-0.5
				c0-0.5791-0.3501-1.0791-1.18945-1.0791C24.2583,4.61249,23.59863,5.31268,23.33887,6.19159z"/>
			<path d="M32.28711,5.37225c0,0.26953-0.0498,0.54004-0.06982,0.63965L31.6377,9.00018h-0.68994l0.56982-2.92871
				c0.02979-0.15918,0.06982-0.35938,0.06982-0.56934c0-0.5498-0.25977-0.89941-0.9292-0.89941
				c-1.07959,0-1.59912,0.94922-1.8291,2.14844l-0.42969,2.24902h-0.68994l0.95947-4.92773h0.68994l-0.12012,0.57031
				c0.45996-0.46973,1.07959-0.64941,1.61914-0.64941C31.79736,3.99335,32.28711,4.53241,32.28711,5.37225z"/>
			<path d="M33.229,7.14081c0-1.62891,1.15967-3.14746,2.73877-3.14746c0.91943,0,1.55908,0.48926,1.74902,1.37891l-0.68994,0.21973
				c-0.08984-0.62988-0.51953-0.98926-1.10938-0.98926c-1.19922,0-1.99854,1.29883-1.99854,2.55859
				c0,0.72949,0.34961,1.30957,1.1792,1.30957c0.64941,0,1.22949-0.39062,1.53906-1.01953l0.58984,0.28906
				c-0.47998,0.86035-1.2793,1.33984-2.16895,1.33984C33.83887,9.08026,33.229,8.24042,33.229,7.14081z"/>
			<path d="M38.84912,6.75116c-0.02979,0.16016-0.0498,0.29004-0.0498,0.4502c0,0.78906,0.44971,1.24902,1.26904,1.24902
				c0.59961,0,1.0498-0.17969,1.56934-0.64941l0.41992,0.46973c-0.66992,0.5791-1.2793,0.80957-2.03906,0.80957
				c-1.2793,0-1.87891-0.7998-1.87891-1.89941c0-1.64844,1.11914-3.1875,2.7085-3.1875c1.2793,0,1.77881,0.83887,1.77881,1.77832
				c0,0.2998-0.06982,0.7002-0.15967,0.97949H38.84912z M38.95898,6.19159h2.96826c0.05029-0.17969,0.07031-0.34961,0.07031-0.5
				c0-0.5791-0.3501-1.0791-1.18945-1.0791C39.87842,4.61249,39.21875,5.31268,38.95898,6.19159z"/>
			<path d="M49.10742,2.69354h-2.40869l0.12988-0.65918h5.54736l-0.12988,0.65918h-2.41895l-1.22949,6.30664h-0.70947
				L49.10742,2.69354z"/>
			<path d="M56.47656,4.07245l-4.0376,6.9668H51.6792l1.22949-2.11914l-1.13965-4.84766h0.74951l0.88965,3.97852l2.29883-3.97852
				H56.47656z"/>
			<path d="M61.65625,5.95233c0,1.56836-1.15918,3.12793-2.73828,3.12793c-0.66992,0-1.22949-0.28027-1.51904-0.72949
				l-0.52979,2.68848h-0.75977l1.36914-6.9668h0.75l-0.11035,0.57031c0.42969-0.41992,1.0498-0.64941,1.66943-0.64941
				C61.00684,3.99335,61.65625,4.78241,61.65625,5.95233z M60.97656,6.02167c0-0.85938-0.46973-1.38867-1.28906-1.38867
				c-1.11963,0-1.96875,0.99902-2.09863,2.16797c-0.11035,0.99023,0.36963,1.64941,1.2793,1.64941
				C60.11719,8.45038,60.97656,7.18085,60.97656,6.02167z"/>
			<path d="M63.12842,6.75116c-0.02979,0.16016-0.0498,0.29004-0.0498,0.4502c0,0.78906,0.44971,1.24902,1.26904,1.24902
				c0.59961,0,1.0498-0.17969,1.56934-0.64941l0.41992,0.46973c-0.66992,0.5791-1.2793,0.80957-2.03906,0.80957
				c-1.2793,0-1.87891-0.7998-1.87891-1.89941c0-1.64844,1.11914-3.1875,2.70801-3.1875c1.2793,0,1.7793,0.83887,1.7793,1.77832
				c0,0.2998-0.07031,0.7002-0.16016,0.97949H63.12842z M63.23828,6.19159h2.96875c0.0498-0.17969,0.07031-0.34961,0.07031-0.5
				c0-0.5791-0.35059-1.0791-1.18945-1.0791C64.1582,4.61249,63.49805,5.31268,63.23828,6.19159z"/>
		</g>
	</g>
</g>
</svg>
