<svg xmlns="http://www.w3.org/2000/svg" xmlns:xlink="http://www.w3.org/1999/xlink" width="127" height="162" viewBox="0 0 127 162"><defs><clipPath id="b"><rect width="127" height="162"/></clipPath></defs><g id="a" clip-path="url(#b)"><path d="M.474,0H4.2L4.36-.708H1.406L2.842-6.9H2.065ZM9.585-4.878l-.176.688A1.382,1.382,0,0,0,8.027-4.98,2.831,2.831,0,0,0,5.557-2.51C5.229-1.084,5.693.1,6.973.1A2.156,2.156,0,0,0,8.6-.615L8.481,0h.713l1.118-4.878ZM9.1-2.51C8.862-1.475,8.228-.566,7.2-.566c-.947,0-1.147-.845-.918-1.8.229-1.025.884-1.938,1.895-1.938C9.141-4.307,9.316-3.462,9.1-2.51ZM10.615,2.1H11.4l4.224-6.978h-.811L12.5-.889,12-4.878h-.8l.752,4.854ZM17.144.059a2.925,2.925,0,0,0,2-.728L18.7-1.118a2.12,2.12,0,0,1-1.528.532c-.913,0-1.206-.708-1-1.572h3.4c.02-.054.049-.151.049-.151.322-1.353.1-2.632-1.523-2.632A2.883,2.883,0,0,0,15.483-2.48C15.166-1.074,15.659.059,17.144.059Zm-.835-2.812a1.9,1.9,0,0,1,1.753-1.538c.913,0,1.2.586.986,1.538ZM20.347,0h.732l.527-2.275c.234-1.016.933-1.982,1.792-1.982A1.143,1.143,0,0,1,24-4.082l.356-.62a1.365,1.365,0,0,0-.82-.249,1.852,1.852,0,0,0-1.528.913l.19-.84h-.737ZM28.3.1A2.194,2.194,0,0,0,28.95.01l.093-.649a1.414,1.414,0,0,1-.552.137c-.327,0-.527-.215-.4-.752l.7-3.027h1.245l.137-.6h-1.25l.41-1.782-.889.684-.249,1.1h-.767l-.137.6h.767l-.684,2.954C27.188-.493,27.407.1,28.3.1Zm1.846,2h.786l4.224-6.978h-.811L32.026-.889l-.493-3.989h-.8l.752,4.854Zm4.39.039h.732L35.938-.7a1.39,1.39,0,0,0,1.382.8,2.822,2.822,0,0,0,2.476-2.466c.327-1.431-.122-2.612-1.426-2.612a2.167,2.167,0,0,0-1.641.732l.151-.63h-.723ZM37.153-.542c-.933,0-1.138-.869-.908-1.826.234-1.025.9-1.968,1.9-1.968.972,0,1.167.874.947,1.826C38.857-1.479,38.188-.542,37.153-.542Zm5.244.6a2.925,2.925,0,0,0,2-.728l-.449-.449a2.12,2.12,0,0,1-1.528.532c-.913,0-1.206-.708-1-1.572h3.4c.02-.054.049-.151.049-.151.322-1.353.1-2.632-1.523-2.632A2.883,2.883,0,0,0,40.737-2.48C40.42-1.074,40.913.059,42.4.059Zm-.835-2.812a1.9,1.9,0,0,1,1.753-1.538c.913,0,1.2.586.986,1.538Z" transform="translate(0 9)"/><path d="M1.9.1C3.4.1,4.189-.884,4.536-2.417L5.576-6.9H2.2l-.156.669h2.6L3.76-2.4C3.53-1.421,3.1-.586,1.948-.586,1.079-.586.884-1.279,1-2l-.757.034A1.612,1.612,0,0,0,1.9.1ZM7.295.112A2.239,2.239,0,0,0,8.989-.8L8.8,0h.718l1.118-4.878H9.912l-.62,2.71a2.149,2.149,0,0,1-1.9,1.65c-.8,0-.791-.742-.635-1.406l.674-2.954H6.7L6.045-2.021C5.786-.889,6.055.112,7.295.112ZM11.162,0h.732l.635-2.749a1.918,1.918,0,0,1,1.665-1.6c.815,0,.806.728.649,1.4L14.17,0h.737l.63-2.749a1.923,1.923,0,0,1,1.66-1.6c.82,0,.815.757.664,1.421L17.188,0h.737L18.6-2.93c.249-1.084-.049-2.031-1.289-2.031a2.044,2.044,0,0,0-1.709.981,1.146,1.146,0,0,0-1.3-.991,1.781,1.781,0,0,0-1.484.9l.2-.806H12.28Zm7.793,2.139h.732L20.356-.7a1.39,1.39,0,0,0,1.382.8,2.822,2.822,0,0,0,2.476-2.466c.327-1.431-.122-2.612-1.426-2.612a2.167,2.167,0,0,0-1.641.732l.151-.63h-.723ZM21.572-.542c-.933,0-1.138-.869-.908-1.826.234-1.025.9-1.968,1.9-1.968.972,0,1.167.874.947,1.826C23.276-1.479,22.607-.542,21.572-.542ZM26.46.1a1.8,1.8,0,0,0,1.9-1.621c0-1.582-2.212-.962-2.212-2.017,0-.542.43-.8.972-.8a.952.952,0,0,1,1,.625l.61-.264a1.574,1.574,0,0,0-1.577-.977A1.508,1.508,0,0,0,25.464-3.5c0,1.563,2.173.908,2.173,2a1.028,1.028,0,0,1-1.118.947,1,1,0,0,1-1.079-.84l-.664.249A1.6,1.6,0,0,0,26.46.1ZM34.2.1a2.827,2.827,0,0,0,2.48-2.466c.327-1.431-.122-2.622-1.426-2.622a2.193,2.193,0,0,0-1.646.752l.63-2.661h-.723L31.924,0h.728l.171-.7A1.387,1.387,0,0,0,34.2.1Zm-.156-.64c-.947,0-1.133-.869-.908-1.826.234-1.025.894-1.978,1.9-1.978.952,0,1.162.884.942,1.836C35.742-1.479,35.059-.542,34.043-.542Zm5.234.6a2.925,2.925,0,0,0,2-.728l-.449-.449A2.12,2.12,0,0,1,39.3-.586c-.913,0-1.206-.708-1-1.572h3.4c.02-.054.049-.151.049-.151.322-1.353.1-2.632-1.523-2.632A2.883,2.883,0,0,0,37.617-2.48C37.3-1.074,37.793.059,39.277.059Zm-.835-2.812A1.9,1.9,0,0,1,40.2-4.292c.913,0,1.2.586.986,1.538ZM43.857.1A2.194,2.194,0,0,0,44.507.01L44.6-.64a1.414,1.414,0,0,1-.552.137c-.327,0-.527-.215-.4-.752l.7-3.027H45.6l.137-.6h-1.25l.41-1.782L44-5.977l-.249,1.1h-.767l-.137.6h.767l-.684,2.954C42.744-.493,42.964.1,43.857.1ZM46.621,0h.708L49.414-3.96,49.624,0h.713l2.5-4.878h-.786l-1.9,3.906-.205-3.906h-.674L47.236-.962l-.088-3.916h-.762Zm7.9.054a2.925,2.925,0,0,0,2-.728l-.449-.449a2.12,2.12,0,0,1-1.528.532c-.913,0-1.206-.708-1-1.572h3.4c.02-.054.049-.151.049-.151.322-1.353.1-2.632-1.523-2.632A2.883,2.883,0,0,0,52.856-2.48C52.539-1.074,53.032.059,54.517.059Zm-.835-2.812a1.9,1.9,0,0,1,1.753-1.538c.913,0,1.2.586.986,1.538ZM59.575.059a2.925,2.925,0,0,0,2-.728l-.449-.449A2.12,2.12,0,0,1,59.6-.586c-.913,0-1.206-.708-1-1.572h3.4c.02-.054.049-.151.049-.151.322-1.353.1-2.632-1.523-2.632A2.883,2.883,0,0,0,57.915-2.48C57.6-1.074,58.091.059,59.575.059ZM58.74-2.754a1.9,1.9,0,0,1,1.753-1.538c.913,0,1.2.586.986,1.538ZM62.778,0h.728l.635-2.739a2.066,2.066,0,0,1,1.846-1.528c.815,0,.82.679.674,1.343L65.986,0h.732l.674-2.93c.249-1.084-.029-2.031-1.27-2.031a2.255,2.255,0,0,0-1.675.82l.181-.737H63.9Zm8.97.1a2.562,2.562,0,0,0,.64-.088L72.471-.6a1.979,1.979,0,0,1-.42.083c-.186,0-.259-.093-.21-.312L73.247-6.9H72.51L71.152-1.021C71.016-.43,70.977.1,71.748.1Zm5.957-4.976-.176.688a1.382,1.382,0,0,0-1.382-.791A2.831,2.831,0,0,0,73.677-2.51C73.35-1.084,73.813.1,75.093.1a2.156,2.156,0,0,0,1.631-.713L76.6,0h.713l1.118-4.878ZM77.217-2.51c-.234,1.035-.869,1.943-1.9,1.943-.947,0-1.147-.845-.918-1.8.229-1.025.884-1.938,1.895-1.938C77.261-4.307,77.437-3.462,77.217-2.51ZM78.735,2.1h.786l4.224-6.978h-.811L80.615-.889l-.493-3.989h-.8l.752,4.854ZM85.264.059a2.925,2.925,0,0,0,2-.728l-.449-.449a2.12,2.12,0,0,1-1.528.532c-.913,0-1.206-.708-1-1.572h3.4c.02-.054.049-.151.049-.151.322-1.353.1-2.632-1.523-2.632A2.883,2.883,0,0,0,83.6-2.48C83.286-1.074,83.779.059,85.264.059Zm-.835-2.812a1.9,1.9,0,0,1,1.753-1.538c.913,0,1.2.586.986,1.538ZM88.467,0H89.2l.527-2.275c.234-1.016.933-1.982,1.792-1.982a1.143,1.143,0,0,1,.605.176l.356-.62a1.365,1.365,0,0,0-.82-.249,1.852,1.852,0,0,0-1.528.913l.19-.84h-.737Zm5.107.1a1.8,1.8,0,0,0,1.9-1.621c0-1.582-2.212-.962-2.212-2.017,0-.542.43-.8.972-.8a.952.952,0,0,1,1,.625l.61-.264a1.574,1.574,0,0,0-1.577-.977A1.508,1.508,0,0,0,92.578-3.5c0,1.563,2.173.908,2.173,2a1.028,1.028,0,0,1-1.118.947,1,1,0,0,1-1.079-.84l-.664.249A1.6,1.6,0,0,0,93.574.1Z" transform="translate(0 106)"/><path d="M.932,0H4.953V-.637H1.63v-2.18H4.518V-3.4H1.63V-5.607H4.953v-.6H.932ZM5.647,0h.8L7.475-1.661,8.5,0h.782L7.822-2.215,9.286-4.39H8.5L7.475-2.764,6.451-4.39h-.8L7.128-2.215ZM11.5.088A1.77,1.77,0,0,0,12.089,0V-.562a1.047,1.047,0,0,1-.439.11c-.321,0-.558-.224-.558-.708V-3.854H12.2V-4.39H11.092v-1.6l-.65.615v.989H9.734v.536h.7v2.689C10.437-.413,10.723.088,11.5.088ZM14.84.062a2.153,2.153,0,0,0,1.679-.686l-.448-.36a1.534,1.534,0,0,1-1.235.47,1.3,1.3,0,0,1-1.283-1.459h3.059c.009-.079.022-.224.022-.338,0-1.011-.439-2.14-1.863-2.14a2.024,2.024,0,0,0-1.907,2.281A1.99,1.99,0,0,0,14.84.062ZM13.553-2.509c.035-.747.413-1.4,1.217-1.4.9,0,1.217.7,1.235,1.4ZM17.763,0h.646V-2.193c0-1.059.453-1.661,1.2-1.661a.8.8,0,0,1,.536.167l.277-.567a1.141,1.141,0,0,0-.708-.229,1.414,1.414,0,0,0-1.3.87V-4.39h-.655Zm3.5,0h.655V-2.281c0-1.09.549-1.63,1.239-1.63.773,0,1,.7,1,1.31V0h.65V-2.667c0-.967-.426-1.8-1.472-1.8a1.576,1.576,0,0,0-1.415.844V-4.39h-.655Zm5.941.088a1.639,1.639,0,0,0,1.542-.936L28.762,0h.558V-2.694A1.617,1.617,0,0,0,27.6-4.482a1.948,1.948,0,0,0-1.657.861l.479.374a1.445,1.445,0,0,1,1.217-.664c.8,0,1.077.576,1.077,1.4h-1c-1.248,0-1.934.409-1.934,1.288A1.287,1.287,0,0,0,27.207.088Zm.075-.554c-.457,0-.822-.215-.822-.738,0-.584.448-.809,1.318-.809h.94A1.515,1.515,0,0,1,27.281-.466Zm4.271-.018c-.2,0-.215-.237-.215-.25V-6.209h-.664V-.888c0,.527.048.976.712.976A2.143,2.143,0,0,0,31.979,0V-.527A2.6,2.6,0,0,1,31.553-.483Z" transform="translate(30 35)"/><path d="M5.559,0h9.882A5.3,5.3,0,0,1,21,5a5.3,5.3,0,0,1-5.559,5H5.559A5.3,5.3,0,0,1,0,5,5.3,5.3,0,0,1,5.559,0Z" transform="translate(0 27)" fill="#5151fc"/><path d="M.932,0h.7V-6.209h-.7ZM3.3,0h.655V-2.281c0-1.09.549-1.63,1.239-1.63.773,0,1,.7,1,1.31V0h.65V-2.667c0-.967-.426-1.8-1.472-1.8a1.576,1.576,0,0,0-1.415.844V-4.39H3.3ZM9.435.088A1.77,1.77,0,0,0,10.024,0V-.562a1.047,1.047,0,0,1-.439.11c-.321,0-.558-.224-.558-.708V-3.854h1.112V-4.39H9.026v-1.6l-.65.615v.989H7.668v.536h.7v2.689C8.372-.413,8.657.088,9.435.088Zm3.34-.026a2.153,2.153,0,0,0,1.679-.686l-.448-.36a1.534,1.534,0,0,1-1.235.47,1.3,1.3,0,0,1-1.283-1.459h3.059c.009-.079.022-.224.022-.338,0-1.011-.439-2.14-1.863-2.14A2.024,2.024,0,0,0,10.8-2.171,1.99,1.99,0,0,0,12.775.062ZM11.487-2.509c.035-.747.413-1.4,1.217-1.4.9,0,1.217.7,1.235,1.4ZM15.7,0h.646V-2.193c0-1.059.453-1.661,1.2-1.661a.8.8,0,0,1,.536.167l.277-.567a1.141,1.141,0,0,0-.708-.229,1.414,1.414,0,0,0-1.3.87V-4.39H15.7Zm3.5,0h.655V-2.281c0-1.09.549-1.63,1.239-1.63.773,0,1,.7,1,1.31V0h.65V-2.667c0-.967-.426-1.8-1.472-1.8a1.576,1.576,0,0,0-1.415.844V-4.39H19.2Zm5.941.088a1.639,1.639,0,0,0,1.542-.936L26.7,0h.558V-2.694a1.617,1.617,0,0,0-1.718-1.789,1.948,1.948,0,0,0-1.657.861l.479.374a1.445,1.445,0,0,1,1.217-.664c.8,0,1.077.576,1.077,1.4h-1c-1.248,0-1.934.409-1.934,1.288A1.287,1.287,0,0,0,25.141.088Zm.075-.554c-.457,0-.822-.215-.822-.738,0-.584.448-.809,1.318-.809h.94A1.515,1.515,0,0,1,25.216-.466Zm4.271-.018c-.2,0-.215-.237-.215-.25V-6.209h-.664V-.888c0,.527.048.976.712.976A2.143,2.143,0,0,0,29.914,0V-.527A2.6,2.6,0,0,1,29.487-.483Z" transform="translate(30 51)"/><path d="M5.559,0h9.882A5.3,5.3,0,0,1,21,5a5.3,5.3,0,0,1-5.559,5H5.559A5.3,5.3,0,0,1,0,5,5.3,5.3,0,0,1,5.559,0Z" transform="translate(0 44)" fill="#0affb7"/><path d="M.932,0h.7V-2.817h2.9V-3.4H1.63V-5.607H4.913v-.6H.932ZM7.4.088A2.158,2.158,0,0,0,9.488-2.206,2.145,2.145,0,0,0,7.4-4.482a2.125,2.125,0,0,0-2.07,2.276A2.138,2.138,0,0,0,7.4.088Zm0-.545c-.967,0-1.415-.861-1.415-1.749s.448-1.731,1.424-1.731,1.415.853,1.415,1.731S8.385-.457,7.4-.457ZM10.6,0h.646V-2.193c0-1.059.453-1.661,1.2-1.661a.8.8,0,0,1,.536.167l.277-.567a1.141,1.141,0,0,0-.708-.229,1.414,1.414,0,0,0-1.3.87V-4.39H10.6Zm3.5,0h.664V-2.29c0-.8.391-1.635,1.121-1.635.751,0,.923.7.923,1.305V0h.668V-2.435c0-.721.391-1.49,1.112-1.49.76,0,.94.725.94,1.323V0H20.2V-2.667c0-.976-.439-1.815-1.525-1.815a1.456,1.456,0,0,0-1.367.918,1.318,1.318,0,0,0-1.34-.918,1.313,1.313,0,0,0-1.2.773V-4.39h-.664ZM22.6.088a1.639,1.639,0,0,0,1.542-.936L24.152,0h.558V-2.694a1.617,1.617,0,0,0-1.718-1.789,1.948,1.948,0,0,0-1.657.861l.479.374a1.445,1.445,0,0,1,1.217-.664c.8,0,1.077.576,1.077,1.4h-1c-1.248,0-1.934.409-1.934,1.288A1.287,1.287,0,0,0,22.6.088Zm.075-.554c-.457,0-.822-.215-.822-.738,0-.584.448-.809,1.318-.809h.94A1.515,1.515,0,0,1,22.671-.466Zm4.271-.018c-.2,0-.215-.237-.215-.25V-6.209h-.664V-.888c0,.527.048.976.712.976A2.143,2.143,0,0,0,27.369,0V-.527A2.6,2.6,0,0,1,26.943-.483Z" transform="translate(29.483 68)"/><rect width="21" height="10" rx="5" transform="translate(0 60)" fill="#ffa501"/><g transform="translate(0 9)"><text transform="translate(48.483 123)" font-size="9" font-family="HKGrotesk-Regular, HK Grotesk" style="isolation:isolate"><tspan x="0" y="0">From the internal </tspan><tspan x="0" y="10.8">layer to the </tspan><tspan x="0" y="21.6">external layer</tspan><tspan font-family="HKGrotesk-Regular"><tspan x="0" y="32.4"></tspan></tspan></text><g transform="translate(0.095 116.68)"><rect width="19.223" height="1.353" fill="#00ffb6"/><rect width="19.223" height="5.051" transform="translate(0 1.354)" fill="#00ffb6"/><rect width="19.223" height="4.449" transform="translate(0 6.406)" fill="#00ffb6"/><rect width="19.223" height="2.736" transform="translate(0 10.857)" fill="#00ffb6"/><rect width="19.223" height="0.76" transform="translate(0 13.594)" fill="#00ffb6"/><rect width="19.223" height="1.749" transform="translate(0 14.355)" fill="#00ffb6"/><rect width="19.223" height="0.518" transform="translate(0 16.105)" fill="#00ffb6"/><rect width="19.223" height="2.483" transform="translate(0 16.624)" fill="#00ffb6"/></g><g transform="translate(19.891 135.788)"><rect width="19.223" height="4.158" fill="#5151fc"/></g><path d="M6205.737,884.324c0-14.219-12.946-17.644-18.588-17.644" transform="translate(-6167 -750)" fill="none" stroke="#000" stroke-width="0.5" stroke-dasharray="2"/></g><path d="M5.559,0h9.882A5.3,5.3,0,0,1,21,5a5.3,5.3,0,0,1-5.559,5H5.559A5.3,5.3,0,0,1,0,5,5.3,5.3,0,0,1,5.559,0Z" transform="translate(0 27)" fill="#5151fc"/></g></svg>