<svg xmlns="http://www.w3.org/2000/svg" xmlns:xlink="http://www.w3.org/1999/xlink" width="750" height="367" viewBox="0 0 750 367"><defs><filter id="a" x="-5.646" y="115.197" width="264.955" height="30.981" filterUnits="userSpaceOnUse"><feOffset dy="3" input="SourceAlpha"/><feGaussianBlur stdDeviation="3" result="b"/><feFlood flood-color="#fff"/><feComposite operator="in" in2="b"/><feComposite in="SourceGraphic"/></filter><clipPath id="d"><rect width="750" height="367"/></clipPath></defs><g id="c" clip-path="url(#d)"><rect width="11.128" height="0.148" transform="translate(0 39)" fill="orange"/><rect width="11.128" height="2.01" transform="translate(22.872 47.245)" fill="#00ffb6"/><g transform="translate(34.332 49.255)"><rect width="11.128" height="1.703" fill="#5151fc"/><rect width="11.128" height="0.384" transform="translate(0 1.704)" fill="#5151fc"/><rect width="11.128" height="2.331" transform="translate(0 2.088)" fill="#5151fc"/></g><rect width="11.128" height="1.776" transform="translate(45.792 53.675)" fill="#00ffb6"/><rect width="11.128" height="2.903" transform="translate(57.252 55.452)" fill="#5151fc"/><g transform="translate(80.172 58.612)"><rect width="11.128" height="1.448" fill="#5151fc"/><rect width="11.128" height="3.075" transform="translate(0 1.448)" fill="#5151fc"/><rect width="11.128" height="2.64" transform="translate(0 4.524)" fill="#5151fc"/><rect width="11.128" height="1.814" transform="translate(0 7.165)" fill="#5151fc"/><rect width="11.128" height="1.097" transform="translate(0 8.979)" fill="#5151fc"/><rect width="11.128" height="1.332" transform="translate(0 10.078)" fill="#5151fc"/></g><rect width="11.128" height="0.255" transform="translate(91.632 70.022)" fill="#00ffb6"/><rect width="11.128" height="0.708" transform="translate(103.092 70.277)" fill="#5151fc"/><rect width="11.128" height="2.004" transform="translate(126.011 71.077)" fill="#5151fc"/><g transform="translate(137.472 73.082)"><rect width="11.128" height="0.685" fill="#00ffb6"/><rect width="11.128" height="2.705" transform="translate(0 0.685)" fill="#00ffb6"/></g><g transform="translate(148.829 76.472)"><rect width="11.128" height="0.473" fill="#5151fc"/><rect width="11.128" height="0.729" transform="translate(0 0.474)" fill="#5151fc"/><rect width="11.128" height="0.773" transform="translate(0 1.203)" fill="#5151fc"/></g><rect width="11.128" height="1.65" transform="translate(150.123 78.448)" fill="#00ffb6"/><rect width="11.128" height="0.416" transform="translate(160.849 80.097)" fill="#5151fc"/><rect width="11.128" height="0.537" transform="translate(171.575 80.514)" fill="#00ffb6"/><rect width="11.128" height="0.633" transform="translate(182.301 81.05)" fill="#5151fc"/><rect width="11.128" height="1.766" transform="translate(193.028 81.684)" fill="#00ffb6"/><rect width="11.128" height="1.932" transform="translate(214.48 83.7)" fill="#5151fc"/><g transform="translate(225.207 85.632)"><rect width="11.128" height="1.661" fill="#00ffb6"/><rect width="11.128" height="0.851" transform="translate(0 1.661)" fill="#00ffb6"/></g><rect width="11.128" height="1.462" transform="translate(235.932 88.144)" fill="#5151fc"/><g transform="translate(257.385 89.917)"><rect width="11.128" height="1.471" fill="#5151fc"/><rect width="11.128" height="0.706" transform="translate(0 1.471)" fill="#5151fc"/><rect width="11.128" height="1.746" transform="translate(0 2.177)" fill="#5151fc"/><rect width="11.128" height="1.04" transform="translate(0 3.923)" fill="#5151fc"/><rect width="11.128" height="0.663" transform="translate(0 4.964)" fill="#5151fc"/><rect width="11.128" height="0.759" transform="translate(0 5.626)" fill="#5151fc"/><rect width="11.128" height="0.401" transform="translate(0 6.385)" fill="#5151fc"/><rect width="11.128" height="1.823" transform="translate(0 6.787)" fill="#5151fc"/><rect width="11.128" height="0.385" transform="translate(0 8.61)" fill="#5151fc"/><rect width="11.128" height="0.997" transform="translate(0 8.996)" fill="#5151fc"/><rect width="11.128" height="0.909" transform="translate(0 9.993)" fill="#5151fc"/><rect width="11.128" height="1.078" transform="translate(0 10.901)" fill="#5151fc"/></g><g transform="translate(278.837 102.228)"><rect width="11.128" height="1.328" fill="#5151fc"/><rect width="11.128" height="0.551" transform="translate(0 1.328)" fill="#5151fc"/><rect width="11.128" height="0.781" transform="translate(0 1.88)" fill="#5151fc"/><rect width="11.128" height="1.139" transform="translate(0 2.661)" fill="#5151fc"/><rect width="11.128" height="1.117" transform="translate(0 3.801)" fill="#5151fc"/><rect width="11.128" height="2.335" transform="translate(0 4.918)" fill="#5151fc"/></g><g transform="translate(300.29 109.631)"><rect width="11.128" height="1.249" fill="#5151fc"/><rect width="11.128" height="2.905" transform="translate(0 1.248)" fill="#5151fc"/><rect width="11.128" height="1.239" transform="translate(0 4.152)" fill="#5151fc"/><rect width="11.128" height="2.449" transform="translate(0 5.392)" fill="#5151fc"/></g><rect width="11.128" height="0.781" transform="translate(311.016 117.472)" fill="#00ffb6"/><g transform="translate(321.743 118.253)"><rect width="11.128" height="2.501" fill="#5151fc"/><rect width="11.128" height="0.065" transform="translate(0 2.501)" fill="#5151fc"/><rect width="11.128" height="0.255" transform="translate(0 2.567)" fill="#5151fc"/></g><rect width="11.128" height="0.984" transform="translate(332.468 121.074)" fill="#00ffb6"/><rect width="11.128" height="1.301" transform="translate(343.195 122.059)" fill="#5151fc"/><g transform="translate(364.647 123.746)"><rect width="11.128" height="1.653" fill="#5151fc"/><rect width="11.128" height="0.146" transform="translate(0 1.654)" fill="#5151fc"/><rect width="11.128" height="1.477" transform="translate(0 1.8)" fill="#5151fc"/><rect width="11.128" height="0.146" transform="translate(0 3.277)" fill="#5151fc"/><rect width="11.128" height="0.78" transform="translate(0 3.424)" fill="#5151fc"/><rect width="11.128" height="0.166" transform="translate(0 4.204)" fill="#5151fc"/><rect width="11.128" height="0.796" transform="translate(0 4.37)" fill="#5151fc"/></g><g transform="translate(375.374 128.912)"><rect width="11.128" height="3.741" fill="#00ffb6"/><rect width="11.128" height="0.705" transform="translate(0 3.741)" fill="#00ffb6"/><rect width="11.128" height="1.005" transform="translate(0 4.445)" fill="#00ffb6"/></g><g transform="translate(396.826 134.619)"><rect width="11.128" height="0.985" fill="#5151fc"/><rect width="11.128" height="0.125" transform="translate(0 0.986)" fill="#5151fc"/><rect width="11.128" height="0.656" transform="translate(0 1.11)" fill="#5151fc"/><rect width="11.128" height="0.698" transform="translate(0 1.767)" fill="#5151fc"/></g><rect width="11.128" height="0.333" transform="translate(407.552 137.084)" fill="#00ffb6"/><rect width="11.128" height="0.496" transform="translate(418.279 137.418)" fill="#5151fc"/><g transform="translate(429.004 137.914)"><rect width="11.128" height="1.841" fill="#00ffb6"/><rect width="11.128" height="0.717" transform="translate(0 1.841)" fill="#5151fc"/><rect width="11.128" height="1.376" transform="translate(0 2.558)" fill="#5151fc"/><rect width="11.128" height="0.967" transform="translate(0 3.935)" fill="#5151fc"/><rect width="11.128" height="0.716" transform="translate(0 4.902)" fill="#5151fc"/></g><rect width="11.128" height="0.709" transform="translate(439.731 143.532)" fill="#00ffb6"/><g transform="translate(450.458 144.242)"><rect width="11.128" height="0.82" fill="#5151fc"/><rect width="11.128" height="0.928" transform="translate(0 0.82)" fill="#5151fc"/></g><rect width="11.128" height="1.223" transform="translate(461.183 145.99)" fill="#00ffb6"/><g transform="translate(471.91 147.214)"><rect width="11.128" height="0.683" fill="#5151fc"/><rect width="11.128" height="0.408" transform="translate(0 0.683)" fill="#5151fc"/><rect width="11.128" height="0.671" transform="translate(0 1.092)" fill="#5151fc"/><rect width="11.128" height="0.702" transform="translate(0 1.763)" fill="#5151fc"/></g><rect width="11.128" height="1.372" transform="translate(482.636 149.679)" fill="#00ffb6"/><g transform="translate(493.362 151.052)"><rect width="11.128" height="0.527" fill="#5151fc"/><rect width="11.128" height="0.568" transform="translate(0 0.528)" fill="#5151fc"/><rect width="11.128" height="0.572" transform="translate(0 1.096)" fill="#5151fc"/><rect width="11.128" height="0.64" transform="translate(0 1.668)" fill="#5151fc"/><rect width="11.128" height="0.207" transform="translate(0 2.309)" fill="#5151fc"/><rect width="11.128" height="0.358" transform="translate(0 2.517)" fill="#5151fc"/><rect width="11.128" height="0.838" transform="translate(0 2.875)" fill="#5151fc"/><rect width="11.128" height="0.705" transform="translate(0 3.713)" fill="#5151fc"/></g><rect width="11.128" height="0.773" transform="translate(514.815 155.598)" fill="#5151fc"/><rect width="11.128" height="0.423" transform="translate(514.815 156.371)" fill="#5151fc"/><rect width="11.128" height="0.688" transform="translate(514.815 156.795)" fill="#5151fc"/><g transform="translate(525.54 157.484)"><rect width="11.128" height="1.209" fill="#00ffb6"/><rect width="11.128" height="0.853" transform="translate(0 1.209)" fill="#00ffb6"/><rect width="11.128" height="0.427" transform="translate(0 2.063)" fill="#00ffb6"/></g><rect width="11.128" height="0.951" transform="translate(536.267 159.974)" fill="#5151fc"/><g transform="translate(546.994 160.925)"><rect width="11.128" height="2.614" fill="#00ffb6"/></g><g transform="translate(557.719 163.538)"><rect width="11.128" height="2.893" fill="#5151fc"/><rect width="11.128" height="1.029" transform="translate(0 2.893)" fill="#5151fc"/></g><rect width="11.128" height="1.247" transform="translate(568.446 167.46)" fill="#00ffb6"/><rect width="11.128" height="0.291" transform="translate(589.898 168.922)" fill="#5151fc"/><rect width="11.128" height="1.744" transform="translate(591.174 169.213)" fill="#00ffb6"/><rect width="11.128" height="0.738" transform="translate(602.634 170.957)" fill="#5151fc"/><g transform="translate(614.095 171.68)"><rect width="11.128" height="0.783" fill="#00ffb6"/><rect width="11.128" height="2.924" transform="translate(0 0.784)" fill="#00ffb6"/><rect width="11.128" height="2.576" transform="translate(0 3.708)" fill="#00ffb6"/><rect width="11.128" height="1.584" transform="translate(0 6.285)" fill="#00ffb6"/><rect width="11.128" height="0.44" transform="translate(0 7.869)" fill="#00ffb6"/><rect width="11.128" height="1.012" transform="translate(0 8.31)" fill="#00ffb6"/><rect width="11.128" height="0.3" transform="translate(0 9.323)" fill="#00ffb6"/><rect width="11.128" height="1.437" transform="translate(0 9.623)" fill="#00ffb6"/></g><g transform="translate(625.555 182.742)"><rect width="11.128" height="2.407" fill="#5151fc"/></g><g transform="translate(637.015 185.149)"><rect width="11.128" height="0.495" fill="#00ffb6"/><rect width="11.128" height="0.347" transform="translate(0 0.496)" fill="#00ffb6"/></g><g transform="translate(660.112 186.288)"><rect width="11.128" height="2.988" fill="#5151fc"/><rect width="11.128" height="0.327" transform="translate(0 2.989)" fill="#5151fc"/><rect width="11.128" height="0.924" transform="translate(0 3.316)" fill="#5151fc"/></g><g transform="translate(671.573 190.529)"><rect width="11.128" height="1.207" fill="#00ffb6"/><rect width="11.128" height="1.122" transform="translate(0 1.207)" fill="#00ffb6"/></g><rect width="11.128" height="2.723" transform="translate(683.032 192.86)" fill="#5151fc"/><rect width="11.128" height="3.143" transform="translate(694.492 195.587)" fill="#00ffb6"/><rect width="11.128" height="0.242" transform="translate(68.76 58.293)" fill="orange"/><rect width="11.128" height="0.089" transform="translate(114.6 70.926)" fill="orange"/><rect width="11.128" height="0.235" transform="translate(203.799 83.407)" fill="orange"/><rect width="11.128" height="0.299" transform="translate(246.704 89.564)" fill="orange"/><rect width="11.128" height="0.316" transform="translate(268.156 101.862)" fill="orange"/><rect width="11.128" height="0.137" transform="translate(289.608 109.45)" fill="orange"/><rect width="11.128" height="0.37" transform="translate(353.966 123.337)" fill="orange"/><rect width="11.128" height="0.246" transform="translate(386.144 134.34)" fill="orange"/><rect width="11.128" height="0.113" transform="translate(504.132 155.463)" fill="orange"/><rect width="11.128" height="0.203" transform="translate(579.217 168.701)" fill="orange"/><rect width="11.128" height="0.286" transform="translate(648.522 186)" fill="orange"/><g transform="translate(11.412 39.129)"><rect width="11.128" height="4.983" fill="#5151fc"/><rect width="11.128" height="1.237" transform="translate(0 4.983)" fill="#5151fc"/><rect width="11.128" height="0.414" transform="translate(0 6.221)" fill="#5151fc"/><rect width="11.128" height="1.609" transform="translate(0 6.636)" fill="#5151fc"/></g><rect width="11.128" height="1.587" transform="translate(705.952 198.734)" fill="#5151fc"/><rect width="11.128" height="1.171" transform="translate(717.412 200.321)" fill="#00ffb6"/><g transform="translate(728.872 201.492)"><rect width="11.128" height="1.015" fill="#5151fc"/><rect width="11.128" height="1.496" transform="translate(0 1.016)" fill="#5151fc"/></g><g transform="translate(2 151.921)"><g transform="translate(0)"><rect width="11.128" height="1.344" fill="#5151fc"/><rect width="11.128" height="2.106" transform="translate(0 1.345)" fill="#5151fc"/><g transform="translate(11.46 3.452)"><rect width="11.128" height="1.05" fill="#00ffb6"/><rect width="11.128" height="1.792" transform="translate(0 1.052)" fill="#00ffb6"/></g><g transform="translate(22.92 6.296)"><rect width="11.128" height="3.346" fill="#5151fc"/></g><g transform="translate(34.379 9.644)"><rect width="11.128" height="2.735" fill="#00ffb6"/><rect width="11.128" height="5.724" transform="translate(0 2.736)" fill="#00ffb6"/></g><g transform="translate(45.84 18.105)"><rect width="11.128" height="2.272" fill="#5151fc"/><rect width="11.128" height="2.545" transform="translate(0 2.274)" fill="#5151fc"/><rect width="11.128" height="1.878" transform="translate(0 4.821)" fill="#5151fc"/><rect width="11.128" height="3.754" transform="translate(0 6.699)" fill="#5151fc"/><rect width="11.128" height="0.503" transform="translate(0 10.454)" fill="#5151fc"/><rect width="11.128" height="1.762" transform="translate(0 10.959)" fill="#5151fc"/></g><rect width="11.128" height="0.647" transform="translate(57.3 30.826)" fill="#00ffb6"/><g transform="translate(68.76 31.474)"><rect width="11.128" height="0.032" fill="#5151fc"/><rect width="11.128" height="1.011" transform="translate(0 0.033)" fill="#5151fc"/><rect width="11.128" height="4.437" transform="translate(0 1.047)" fill="#5151fc"/></g><g transform="translate(80.22 36.96)"><rect width="11.128" height="0.775" fill="#00ffb6"/><rect width="11.128" height="2.278" transform="translate(0 0.776)" fill="#00ffb6"/></g><rect width="11.128" height="1.167" transform="translate(91.68 40.016)" fill="#5151fc"/><rect width="11.128" height="1.073" transform="translate(103.881 41.183)" fill="#00ffb6"/><rect width="11.128" height="1.43" transform="translate(114.381 42.259)" fill="#5151fc"/><rect width="11.128" height="1.166" transform="translate(125.82 43.69)" fill="#00ffb6"/><g transform="translate(137.258 44.856)"><rect width="11.128" height="0.591" fill="#5151fc"/><rect width="11.128" height="0.439" transform="translate(0 0.592)" fill="#5151fc"/><rect width="11.128" height="0.948" transform="translate(0 1.032)" fill="#5151fc"/><rect width="11.128" height="0.756" transform="translate(0 1.981)" fill="#5151fc"/></g><rect width="11.128" height="3.292" transform="translate(148.696 47.595)" fill="#00ffb6"/><rect width="11.128" height="0.224" transform="translate(160.134 50.889)" fill="#5151fc"/><rect width="11.128" height="0.49" transform="translate(160.134 51.114)" fill="#5151fc"/><rect width="11.128" height="0.416" transform="translate(171.573 51.605)" fill="#00ffb6"/><rect width="11.128" height="0.387" transform="translate(183.011 52.023)" fill="#5151fc"/><rect width="11.128" height="0.982" transform="translate(194.449 52.411)" fill="#00ffb6"/><rect width="11.128" height="1.623" transform="translate(194.449 53.393)" fill="#00ffb6"/><g transform="translate(205.887 55.018)"><rect width="11.128" height="1.299" fill="#5151fc"/></g><g transform="translate(217.326 56.319)"><rect width="11.128" height="1.39" fill="#00ffb6"/><rect width="11.128" height="0.15" transform="translate(0 1.391)" fill="#00ffb6"/><rect width="11.128" height="0.852" transform="translate(0 1.541)" fill="#00ffb6"/></g><g transform="translate(228.764 58.714)"><rect width="11.128" height="1.212" fill="#5151fc"/><rect width="11.128" height="0.628" transform="translate(0 1.213)" fill="#5151fc"/><rect width="11.128" height="1.251" transform="translate(0 1.843)" fill="#5151fc"/><rect width="11.128" height="2.412" transform="translate(0 3.095)" fill="#5151fc"/><rect width="11.128" height="0.946" transform="translate(0 5.509)" fill="#5151fc"/><rect width="11.128" height="1.866" transform="translate(0 6.456)" fill="#5151fc"/></g><g transform="translate(240.202 67.036)"><rect width="11.128" height="0.676" fill="#00ffb6"/><rect width="11.128" height="0.259" transform="translate(0 0.677)" fill="#00ffb6"/></g><g transform="translate(251.64 67.974)"><rect width="11.128" height="6.862" fill="#5151fc"/><rect width="11.128" height="5.761" transform="translate(0 6.864)" fill="#5151fc"/><rect width="11.128" height="4.427" transform="translate(0 12.627)" fill="#5151fc"/><rect width="11.128" height="1.755" transform="translate(0 17.055)" fill="#5151fc"/><rect width="11.128" height="0.542" transform="translate(0 18.811)" fill="#5151fc"/></g><rect width="11.128" height="2.349" transform="translate(263.079 87.329)" fill="#00ffb6"/><rect width="11.128" height="0.688" transform="translate(274.516 89.678)" fill="#5151fc"/><rect width="11.128" height="0.456" transform="translate(285.954 90.367)" fill="#00ffb6"/><rect width="11.128" height="1.491" transform="translate(297.392 90.824)" fill="#5151fc"/><rect width="11.128" height="1.29" transform="translate(308.83 92.316)" fill="#00ffb6"/><rect width="11.128" height="0.599" transform="translate(320.269 93.607)" fill="#5151fc"/><rect width="11.128" height="0.987" transform="translate(320.269 94.206)" fill="#5151fc"/><g transform="translate(331.707 95.195)"><rect width="11.128" height="1.421" fill="#00ffb6"/><rect width="11.128" height="2.113" transform="translate(0 1.443)" fill="#00ffb6"/><rect width="11.128" height="2.412" transform="translate(0 3.557)" fill="#00ffb6"/><rect width="11.128" height="1.219" transform="translate(0 5.97)" fill="#00ffb6"/></g><g transform="translate(343.145 102.385)"><rect width="11.128" height="1.489" fill="#5151fc"/><rect width="11.128" height="0.213" transform="translate(0 1.49)" fill="#5151fc"/><rect width="11.128" height="1.533" transform="translate(0 1.704)" fill="#5151fc"/></g><rect width="11.128" height="4.586" transform="translate(354.583 105.623)" fill="#00ffb6"/><rect width="11.128" height="0.516" transform="translate(366.022 110.21)" fill="#5151fc"/><rect width="11.128" height="0.322" transform="translate(377.46 110.727)" fill="#00ffb6"/><rect width="11.128" height="0.746" transform="translate(377.46 111.05)" fill="#00ffb6"/><rect width="11.128" height="2.642" transform="translate(377.46 111.797)" fill="#00ffb6"/><g transform="translate(388.898 114.44)"><rect width="11.128" height="4.257" fill="#5151fc"/></g><g transform="translate(400.336 118.698)"><rect width="11.128" height="1.919" fill="#00ffb6"/><rect width="11.128" height="0.891" transform="translate(0 1.92)" fill="#00ffb6"/></g><rect width="11.128" height="8.618" transform="translate(411.775 121.51)" fill="#5151fc"/><rect width="11.128" height="0.259" transform="translate(423.213 130.13)" fill="#00ffb6"/><rect width="11.128" height="0.562" transform="translate(434.651 130.39)" fill="#5151fc"/><g transform="translate(446.088 130.953)"><rect width="11.128" height="2.261" fill="#00ffb6"/><rect width="11.128" height="0.614" transform="translate(0 2.262)" fill="#00ffb6"/><rect width="11.128" height="0.968" transform="translate(0 2.877)" fill="#00ffb6"/><rect width="11.128" height="1.337" transform="translate(0 3.845)" fill="#00ffb6"/><rect width="11.128" height="0.964" transform="translate(0 5.184)" fill="#00ffb6"/></g><g transform="translate(456.59 137.103)"><rect width="11.128" height="1.346" fill="#5151fc"/><rect width="11.128" height="1.377" transform="translate(0 1.347)" fill="#5151fc"/><rect width="11.128" height="2.743" transform="translate(0 2.724)" fill="#5151fc"/></g><rect width="11.128" height="0.83" transform="translate(468.791 142.571)" fill="#00ffb6"/><g transform="translate(480.251 143.403)"><rect width="11.128" height="4.203" fill="#5151fc"/><rect width="11.128" height="0.635" transform="translate(0 4.204)" fill="#5151fc"/><rect width="11.128" height="0.494" transform="translate(0 4.84)" fill="#5151fc"/></g><rect width="11.128" height="1.122" transform="translate(491.711 148.737)" fill="#00ffb6"/><g transform="translate(503.171 149.86)"><rect width="11.128" height="4.439" fill="#5151fc"/><rect width="11.128" height="0.279" transform="translate(0 4.44)" fill="#5151fc"/></g><rect width="11.128" height="2.128" transform="translate(514.63 154.581)" fill="#00ffb6"/><g transform="translate(526.09 156.709)"><rect width="11.128" height="0.453" fill="#5151fc"/><rect width="11.128" height="1.237" transform="translate(0 0.454)" fill="#5151fc"/><rect width="11.128" height="1.224" transform="translate(0 1.692)" fill="#5151fc"/></g><rect width="11.128" height="0.904" transform="translate(537.551 159.626)" fill="#00ffb6"/><rect width="11.128" height="1.054" transform="translate(549.011 160.532)" fill="#5151fc"/><g transform="translate(560.471 161.586)"><rect width="11.128" height="0.938" fill="#00ffb6"/><rect width="11.128" height="2.586" transform="translate(0 0.939)" fill="#00ffb6"/></g></g></g><path d="M2.642.068A2.392,2.392,0,0,0,4.507-.693l-.5-.4a1.7,1.7,0,0,1-1.372.522A1.444,1.444,0,0,1,1.211-2.192h3.4c.01-.088.024-.249.024-.376,0-1.123-.488-2.378-2.07-2.378C1.147-4.946.444-3.721.444-2.412A2.211,2.211,0,0,0,2.642.068ZM1.211-2.788c.039-.83.459-1.558,1.353-1.558,1,0,1.353.776,1.372,1.558ZM5.889,0h.728V-2.534c0-1.211.61-1.812,1.377-1.812.859,0,1.108.781,1.108,1.455V0h.723V-2.964c0-1.074-.474-2-1.636-2a1.752,1.752,0,0,0-1.572.938v-.85H5.889Zm8.594-6.9v2.686a1.746,1.746,0,0,0-1.528-.767C11.709-4.98,11-3.838,11-2.441S11.709.1,12.959.1a1.734,1.734,0,0,0,1.528-.776L14.5,0h.708V-6.9ZM13.145-.518c-.977,0-1.4-.928-1.4-1.924s.42-1.924,1.4-1.924c1,0,1.4.938,1.4,1.924S14.141-.518,13.145-.518Z" transform="translate(723 220)"/><path d="M2.642.068A2.392,2.392,0,0,0,4.507-.693l-.5-.4a1.7,1.7,0,0,1-1.372.522A1.444,1.444,0,0,1,1.211-2.192h3.4c.01-.088.024-.249.024-.376,0-1.123-.488-2.378-2.07-2.378C1.147-4.946.444-3.721.444-2.412A2.211,2.211,0,0,0,2.642.068ZM1.211-2.788c.039-.83.459-1.558,1.353-1.558,1,0,1.353.776,1.372,1.558ZM5.889,0h.728V-2.534c0-1.211.61-1.812,1.377-1.812.859,0,1.108.781,1.108,1.455V0h.723V-2.964c0-1.074-.474-2-1.636-2a1.752,1.752,0,0,0-1.572.938v-.85H5.889Zm8.594-6.9v2.686a1.746,1.746,0,0,0-1.528-.767C11.709-4.98,11-3.838,11-2.441S11.709.1,12.959.1a1.734,1.734,0,0,0,1.528-.776L14.5,0h.708V-6.9ZM13.145-.518c-.977,0-1.4-.928-1.4-1.924s.42-1.924,1.4-1.924c1,0,1.4.938,1.4,1.924S14.141-.518,13.145-.518Z" transform="translate(559 329)"/><g transform="translate(0 17)"><path d="M4202.022,2217.257c0,1.981-.022,8.27-.022,8.27" transform="translate(-4198.5 -1895)" fill="none" stroke="#000" stroke-width="0.5"/><path d="M4202,2217.6v7.925" transform="translate(-4085.5 -1895)" fill="none" stroke="#000" stroke-width="0.5"/><path d="M4202,2217.6v7.925" transform="translate(-3985.906 -1895)" fill="none" stroke="#000" stroke-width="0.5"/><path d="M4202,2217.6v7.925" transform="translate(-3879.969 -1895)" fill="none" stroke="#000" stroke-width="0.5"/><path d="M4202,2217.6v7.925" transform="translate(-3774.031 -1895)" fill="none" stroke="#000" stroke-width="0.5"/><path d="M4202,2217.6v7.925" transform="translate(-3663.406 -1895)" fill="none" stroke="#000" stroke-width="0.5"/><path d="M4202,2217.6v7.925" transform="translate(-3568.5 -1895)" fill="none" stroke="#000" stroke-width="0.5"/><path d="M2.8.1a2.308,2.308,0,0,0,2.31-2.354A2.161,2.161,0,0,0,2.954-4.507,1.852,1.852,0,0,0,1.611-4l.371-2.227H4.8V-6.9H1.392L.786-3.423l.664.313a1.636,1.636,0,0,1,1.4-.762A1.478,1.478,0,0,1,4.316-2.256a1.565,1.565,0,0,1-1.528,1.7A1.6,1.6,0,0,1,1.24-2.046l-.688.229A2.3,2.3,0,0,0,2.8.1ZM8.511.1C10.161.1,11-1.65,11-3.433c0-1.8-.85-3.579-2.559-3.579-1.865,0-2.5,2-2.5,3.56S6.587.1,8.511.1Zm-.029-.7C7.119-.605,6.7-2.246,6.7-3.452s.42-2.832,1.738-2.832,1.743,1.611,1.743,2.822C10.181-2.29,9.771-.605,8.481-.605Z" transform="translate(532 346)"/><path d="M2.871.1c1.65,0,2.485-1.748,2.485-3.53,0-1.8-.85-3.579-2.559-3.579-1.865,0-2.5,2-2.5,3.56S.947.1,2.871.1Zm-.029-.7C1.479-.605,1.06-2.246,1.06-3.452S1.479-6.284,2.8-6.284,4.541-4.673,4.541-3.462C4.541-2.29,4.131-.605,2.842-.605Z" transform="translate(0 346)"/><path d="M0,0H737" transform="translate(3.5 322.5)" fill="none" stroke="#000" stroke-width="0.5"/><path d="M2.432.1C3.96.1,4.546-.918,4.546-2.451V-6.9H1.172v.669h2.6v3.862c0,.981-.22,1.782-1.338,1.782-.9,0-1.274-.728-1.323-1.45l-.757.1A2.032,2.032,0,0,0,2.432.1Zm5.4.01A1.736,1.736,0,0,0,9.36-.825V0h.723V-4.878H9.36v2.7A1.566,1.566,0,0,1,7.905-.508C7.07-.508,6.88-1.294,6.88-2V-4.878H6.152v2.832C6.152-.83,6.626.107,7.827.107ZM11.729,0h.737V-2.544c0-.884.435-1.816,1.245-1.816.835,0,1.025.776,1.025,1.45V0h.742V-2.705c0-.8.435-1.655,1.235-1.655.845,0,1.045.806,1.045,1.47V0H18.5V-2.964c0-1.084-.488-2.017-1.694-2.017A1.618,1.618,0,0,0,15.283-3.96,1.465,1.465,0,0,0,13.794-4.98a1.459,1.459,0,0,0-1.328.859v-.757h-.737Zm8.306,2.139h.732v-2.8A1.75,1.75,0,0,0,22.261.1c1.309,0,1.987-1.157,1.987-2.539S23.564-4.98,22.256-4.98a1.743,1.743,0,0,0-1.489.767v-.664h-.732ZM22.1-.518c-.991,0-1.406-.928-1.406-1.924s.415-1.924,1.406-1.924,1.411.938,1.411,1.924S23.081-.518,22.1-.518ZM26.89.1a1.521,1.521,0,0,0,1.675-1.489c0-1.792-2.632-1.2-2.632-2.324,0-.4.327-.674.854-.674a1.15,1.15,0,0,1,1.089.688l.537-.308a1.733,1.733,0,0,0-1.6-.972,1.392,1.392,0,0,0-1.548,1.353c0,1.655,2.593,1.011,2.593,2.324,0,.527-.405.806-.957.806a1.237,1.237,0,0,1-1.216-.928l-.615.317A1.893,1.893,0,0,0,26.89.1Zm7.783,0c1.27,0,1.963-1.147,1.963-2.539S35.942-4.98,34.668-4.98a1.747,1.747,0,0,0-1.514.767V-6.9h-.728V0h.728V-.664A1.747,1.747,0,0,0,34.673.1Zm-.19-.615c-.977,0-1.392-.928-1.392-1.924s.415-1.924,1.392-1.924,1.426.938,1.426,1.924S35.464-.518,34.482-.518Zm5.264.586a2.392,2.392,0,0,0,1.865-.762l-.5-.4a1.7,1.7,0,0,1-1.372.522,1.444,1.444,0,0,1-1.426-1.621h3.4c.01-.088.024-.249.024-.376,0-1.123-.488-2.378-2.07-2.378-1.416,0-2.119,1.226-2.119,2.534A2.211,2.211,0,0,0,39.746.068ZM38.315-2.788c.039-.83.459-1.558,1.353-1.558,1,0,1.353.776,1.372,1.558ZM44.351.1A1.966,1.966,0,0,0,45,0V-.625a1.164,1.164,0,0,1-.488.122c-.356,0-.62-.249-.62-.786V-4.282h1.235v-.6H43.9V-6.66l-.723.684v1.1h-.786v.6h.781v2.988C43.169-.459,43.486.1,44.351.1ZM47.153,0h.708L49.023-3.96,50.161,0h.708l1.367-4.878H51.46L50.469-.972,49.351-4.878h-.669L47.559-.962l-1-3.916h-.771ZM55,.068A2.392,2.392,0,0,0,56.87-.693l-.5-.4A1.7,1.7,0,0,1,55-.571a1.444,1.444,0,0,1-1.426-1.621h3.4c.01-.088.024-.249.024-.376,0-1.123-.488-2.378-2.07-2.378-1.416,0-2.119,1.226-2.119,2.534A2.211,2.211,0,0,0,55,.068ZM53.574-2.788c.039-.83.459-1.558,1.353-1.558,1,0,1.353.776,1.372,1.558Zm6.5,2.856a2.392,2.392,0,0,0,1.865-.762l-.5-.4a1.7,1.7,0,0,1-1.372.522,1.444,1.444,0,0,1-1.426-1.621h3.4c.01-.088.024-.249.024-.376,0-1.123-.488-2.378-2.07-2.378-1.416,0-2.119,1.226-2.119,2.534A2.211,2.211,0,0,0,60.073.068ZM58.643-2.788c.039-.83.459-1.558,1.353-1.558,1,0,1.353.776,1.372,1.558ZM63.32,0h.728V-2.534c0-1.211.61-1.812,1.377-1.812.859,0,1.108.781,1.108,1.455V0h.723V-2.964c0-1.074-.474-2-1.636-2a1.752,1.752,0,0,0-1.572.938v-.85H63.32Zm9.067-.537c-.22,0-.239-.264-.239-.278V-6.9h-.737V-.986C71.411-.4,71.465.1,72.2.1a2.381,2.381,0,0,0,.659-.1V-.586A2.891,2.891,0,0,1,72.388-.537Zm2.7.635A1.821,1.821,0,0,0,76.8-.942L76.812,0h.62V-2.993A1.8,1.8,0,0,0,75.522-4.98a2.164,2.164,0,0,0-1.841.957l.532.415a1.605,1.605,0,0,1,1.353-.737c.884,0,1.2.64,1.2,1.558H75.649c-1.387,0-2.148.454-2.148,1.431A1.43,1.43,0,0,0,75.083.1Zm.083-.615c-.508,0-.913-.239-.913-.82,0-.649.5-.9,1.465-.9h1.045A1.683,1.683,0,0,1,75.166-.518ZM79.229,2.1H80l2.612-6.978h-.8L80.425-.889,78.994-4.878h-.806L80.063-.024ZM85.21.068a2.392,2.392,0,0,0,1.865-.762l-.5-.4a1.7,1.7,0,0,1-1.372.522,1.444,1.444,0,0,1-1.426-1.621h3.4c.01-.088.024-.249.024-.376,0-1.123-.488-2.378-2.07-2.378-1.416,0-2.119,1.226-2.119,2.534A2.211,2.211,0,0,0,85.21.068ZM83.779-2.788c.039-.83.459-1.558,1.353-1.558,1,0,1.353.776,1.372,1.558ZM88.457,0h.718V-2.437c0-1.177.5-1.846,1.333-1.846a.888.888,0,0,1,.6.186l.308-.63a1.268,1.268,0,0,0-.786-.254,1.572,1.572,0,0,0-1.44.967v-.864h-.728Zm4.966.1A1.521,1.521,0,0,0,95.1-1.392c0-1.792-2.632-1.2-2.632-2.324,0-.4.327-.674.854-.674a1.15,1.15,0,0,1,1.089.688l.537-.308a1.733,1.733,0,0,0-1.6-.972A1.392,1.392,0,0,0,91.8-3.628c0,1.655,2.593,1.011,2.593,2.324,0,.527-.405.806-.957.806a1.237,1.237,0,0,1-1.216-.928l-.615.317A1.893,1.893,0,0,0,93.423.1Z" transform="translate(12 346)"/><path d="M2.432.1C3.96.1,4.546-.918,4.546-2.451V-6.9H1.172v.669h2.6v3.862c0,.981-.22,1.782-1.338,1.782-.9,0-1.274-.728-1.323-1.45l-.757.1A2.032,2.032,0,0,0,2.432.1Zm5.4.01A1.736,1.736,0,0,0,9.36-.825V0h.723V-4.878H9.36v2.7A1.566,1.566,0,0,1,7.905-.508C7.07-.508,6.88-1.294,6.88-2V-4.878H6.152v2.832C6.152-.83,6.626.107,7.827.107ZM11.729,0h.737V-2.544c0-.884.435-1.816,1.245-1.816.835,0,1.025.776,1.025,1.45V0h.742V-2.705c0-.8.435-1.655,1.235-1.655.845,0,1.045.806,1.045,1.47V0H18.5V-2.964c0-1.084-.488-2.017-1.694-2.017A1.618,1.618,0,0,0,15.283-3.96,1.465,1.465,0,0,0,13.794-4.98a1.459,1.459,0,0,0-1.328.859v-.757h-.737Zm8.306,2.139h.732v-2.8A1.75,1.75,0,0,0,22.261.1c1.309,0,1.987-1.157,1.987-2.539S23.564-4.98,22.256-4.98a1.743,1.743,0,0,0-1.489.767v-.664h-.732ZM22.1-.518c-.991,0-1.406-.928-1.406-1.924s.415-1.924,1.406-1.924,1.411.938,1.411,1.924S23.081-.518,22.1-.518ZM26.89.1a1.521,1.521,0,0,0,1.675-1.489c0-1.792-2.632-1.2-2.632-2.324,0-.4.327-.674.854-.674a1.15,1.15,0,0,1,1.089.688l.537-.308a1.733,1.733,0,0,0-1.6-.972,1.392,1.392,0,0,0-1.548,1.353c0,1.655,2.593,1.011,2.593,2.324,0,.527-.405.806-.957.806a1.237,1.237,0,0,1-1.216-.928l-.615.317A1.893,1.893,0,0,0,26.89.1Zm7.783,0c1.27,0,1.963-1.147,1.963-2.539S35.942-4.98,34.668-4.98a1.747,1.747,0,0,0-1.514.767V-6.9h-.728V0h.728V-.664A1.747,1.747,0,0,0,34.673.1Zm-.19-.615c-.977,0-1.392-.928-1.392-1.924s.415-1.924,1.392-1.924,1.426.938,1.426,1.924S35.464-.518,34.482-.518Zm5.264.586a2.392,2.392,0,0,0,1.865-.762l-.5-.4a1.7,1.7,0,0,1-1.372.522,1.444,1.444,0,0,1-1.426-1.621h3.4c.01-.088.024-.249.024-.376,0-1.123-.488-2.378-2.07-2.378-1.416,0-2.119,1.226-2.119,2.534A2.211,2.211,0,0,0,39.746.068ZM38.315-2.788c.039-.83.459-1.558,1.353-1.558,1,0,1.353.776,1.372,1.558ZM44.351.1A1.966,1.966,0,0,0,45,0V-.625a1.164,1.164,0,0,1-.488.122c-.356,0-.62-.249-.62-.786V-4.282h1.235v-.6H43.9V-6.66l-.723.684v1.1h-.786v.6h.781v2.988C43.169-.459,43.486.1,44.351.1ZM47.153,0h.708L49.023-3.96,50.161,0h.708l1.367-4.878H51.46L50.469-.972,49.351-4.878h-.669L47.559-.962l-1-3.916h-.771ZM55,.068A2.392,2.392,0,0,0,56.87-.693l-.5-.4A1.7,1.7,0,0,1,55-.571a1.444,1.444,0,0,1-1.426-1.621h3.4c.01-.088.024-.249.024-.376,0-1.123-.488-2.378-2.07-2.378-1.416,0-2.119,1.226-2.119,2.534A2.211,2.211,0,0,0,55,.068ZM53.574-2.788c.039-.83.459-1.558,1.353-1.558,1,0,1.353.776,1.372,1.558Zm6.5,2.856a2.392,2.392,0,0,0,1.865-.762l-.5-.4a1.7,1.7,0,0,1-1.372.522,1.444,1.444,0,0,1-1.426-1.621h3.4c.01-.088.024-.249.024-.376,0-1.123-.488-2.378-2.07-2.378-1.416,0-2.119,1.226-2.119,2.534A2.211,2.211,0,0,0,60.073.068ZM58.643-2.788c.039-.83.459-1.558,1.353-1.558,1,0,1.353.776,1.372,1.558ZM63.32,0h.728V-2.534c0-1.211.61-1.812,1.377-1.812.859,0,1.108.781,1.108,1.455V0h.723V-2.964c0-1.074-.474-2-1.636-2a1.752,1.752,0,0,0-1.572.938v-.85H63.32Zm9.067-.537c-.22,0-.239-.264-.239-.278V-6.9h-.737V-.986C71.411-.4,71.465.1,72.2.1a2.381,2.381,0,0,0,.659-.1V-.586A2.891,2.891,0,0,1,72.388-.537Zm2.7.635A1.821,1.821,0,0,0,76.8-.942L76.812,0h.62V-2.993A1.8,1.8,0,0,0,75.522-4.98a2.164,2.164,0,0,0-1.841.957l.532.415a1.605,1.605,0,0,1,1.353-.737c.884,0,1.2.64,1.2,1.558H75.649c-1.387,0-2.148.454-2.148,1.431A1.43,1.43,0,0,0,75.083.1Zm.083-.615c-.508,0-.913-.239-.913-.82,0-.649.5-.9,1.465-.9h1.045A1.683,1.683,0,0,1,75.166-.518ZM79.229,2.1H80l2.612-6.978h-.8L80.425-.889,78.994-4.878h-.806L80.063-.024ZM85.21.068a2.392,2.392,0,0,0,1.865-.762l-.5-.4a1.7,1.7,0,0,1-1.372.522,1.444,1.444,0,0,1-1.426-1.621h3.4c.01-.088.024-.249.024-.376,0-1.123-.488-2.378-2.07-2.378-1.416,0-2.119,1.226-2.119,2.534A2.211,2.211,0,0,0,85.21.068ZM83.779-2.788c.039-.83.459-1.558,1.353-1.558,1,0,1.353.776,1.372,1.558ZM88.457,0h.718V-2.437c0-1.177.5-1.846,1.333-1.846a.888.888,0,0,1,.6.186l.308-.63a1.268,1.268,0,0,0-.786-.254,1.572,1.572,0,0,0-1.44.967v-.864h-.728Zm4.966.1A1.521,1.521,0,0,0,95.1-1.392c0-1.792-2.632-1.2-2.632-2.324,0-.4.327-.674.854-.674a1.15,1.15,0,0,1,1.089.688l.537-.308a1.733,1.733,0,0,0-1.6-.972A1.392,1.392,0,0,0,91.8-3.628c0,1.655,2.593,1.011,2.593,2.324,0,.527-.405.806-.957.806a1.237,1.237,0,0,1-1.216-.928l-.615.317A1.893,1.893,0,0,0,93.423.1Z" transform="translate(548 346)"/><path d="M4202,2217.6v7.925" transform="translate(-3461.5 -1895)" fill="none" stroke="#000" stroke-width="0.5"/><path d="M1.279,0h.85L5.1-6.519V-6.9H.513v.674h3.7ZM8.511.1C10.161.1,11-1.65,11-3.433c0-1.8-.85-3.579-2.559-3.579-1.865,0-2.5,2-2.5,3.56S6.587.1,8.511.1Zm-.029-.7C7.119-.605,6.7-2.246,6.7-3.452s.42-2.832,1.738-2.832,1.743,1.611,1.743,2.822C10.181-2.29,9.771-.605,8.481-.605Z" transform="translate(734 346)"/></g><g transform="translate(0 34.831)"><path d="M5732.01,1229v304.425" transform="translate(-5193.51 -1229)" fill="none" stroke="#000" stroke-width="0.5" stroke-dasharray="2"/><path d="M5732.01,1229v304.425" transform="translate(-5303.51 -1229)" fill="none" stroke="#6e6e6e" stroke-width="0.5" stroke-dasharray="2"/><path d="M5732.01,1229v304.425" transform="translate(-5098.51 -1229)" fill="none" stroke="#6e6e6e" stroke-width="0.5" stroke-dasharray="2"/><path d="M5732.01,1229v304.425" transform="translate(-5410.51 -1229)" fill="none" stroke="#6e6e6e" stroke-width="0.5" stroke-dasharray="2"/><path d="M5732.01,1229v304.425" transform="translate(-5515.51 -1229)" fill="none" stroke="#6e6e6e" stroke-width="0.5" stroke-dasharray="2"/><path d="M5732.01,1229v304.425" transform="translate(-5615.51 -1229)" fill="none" stroke="#6e6e6e" stroke-width="0.5" stroke-dasharray="2"/><path d="M5732.01,1229v311.235" transform="translate(-4991.51 -1229)" fill="none" stroke="#000" stroke-width="0.5" stroke-dasharray="2"/><rect width="260" height="35" transform="translate(0 80.169)" fill="#fff"/></g><g transform="matrix(1, 0, 0, 1, 0, 0)" filter="url(#a)"><path d="M1.354,13H6.877V11.708H2.741V3.341H1.354Zm8.654.137a2.466,2.466,0,0,0,2.27-1.292L12.346,13h1.1V8.83a2.6,2.6,0,0,0-2.8-2.8A3.158,3.158,0,0,0,7.93,7.442l.991.738a2.055,2.055,0,0,1,1.757-1c1.073,0,1.524.745,1.524,1.832H10.541c-1.75,0-2.871.567-2.871,1.989A2.111,2.111,0,0,0,10.008,13.137Zm.171-1.121c-.677,0-1.148-.328-1.148-.971,0-.684.533-1.053,1.606-1.053H12.2A2.072,2.072,0,0,1,10.179,12.016ZM18.956,13h1.313V9.363c0-1.456.738-2.14,1.743-2.14,1.039,0,1.436.882,1.436,1.8V13H24.76V8.871c0-1.47-.677-2.83-2.379-2.83a2.512,2.512,0,0,0-2.112,1.135v-1H18.956Zm9.912.144a2.449,2.449,0,0,0,2.085-1.135V13h1.333V6.171H30.953V9.623c0,1.634-.875,2.358-1.825,2.358-1.094,0-1.34-.909-1.34-1.955V6.171h-1.34V9.965C26.448,11.831,27.166,13.144,28.868,13.144ZM36.128,13h1.121L39.9,6.171H38.479l-1.791,5.113L34.911,6.171H33.462Zm7.492.137a3.4,3.4,0,0,0,3.37-3.568,3.368,3.368,0,1,0-6.727,0A3.383,3.383,0,0,0,43.62,13.137Zm.007-1.121c-1.395,0-2-1.189-2-2.447s.6-2.413,2-2.413,2,1.162,2,2.413S45.028,12.016,43.627,12.016Zm6.146,1.121A4.936,4.936,0,0,0,50.846,13V11.906a3.13,3.13,0,0,1-.567.055.433.433,0,0,1-.437-.417v-8.2H48.515v8.292C48.515,12.631,48.856,13.137,49.772,13.137Zm4.184,0a2.466,2.466,0,0,0,2.27-1.292L56.294,13h1.1V8.83a2.6,2.6,0,0,0-2.8-2.8,3.158,3.158,0,0,0-2.714,1.415l.991.738a2.055,2.055,0,0,1,1.757-1c1.073,0,1.524.745,1.524,1.832H54.489c-1.75,0-2.871.567-2.871,1.989A2.111,2.111,0,0,0,53.956,13.137Zm.171-1.121c-.677,0-1.148-.328-1.148-.971,0-.684.533-1.053,1.606-1.053H56.15A2.072,2.072,0,0,1,54.127,12.016ZM67.252,3.341V6.984A2.469,2.469,0,0,0,65.2,6.027c-1.812,0-2.823,1.634-2.823,3.555s1.012,3.555,2.837,3.555a2.437,2.437,0,0,0,2.071-.991l.041.854h1.258V3.341Zm-1.7,8.634c-1.271,0-1.825-1.114-1.825-2.393S64.278,7.2,65.55,7.2s1.812,1.114,1.812,2.386C67.361,10.874,66.828,11.975,65.55,11.975ZM70.7,4.763h1.429V3.341H70.7ZM70.759,13h1.319V6.171H70.759Zm8.989.137a2.247,2.247,0,0,0,2.488-2.181c0-2.5-3.582-1.771-3.582-3.1,0-.444.4-.779,1.046-.779A1.56,1.56,0,0,1,81.149,8l1-.554a2.623,2.623,0,0,0-2.406-1.422,2.083,2.083,0,0,0-2.338,2c0,2.358,3.534,1.518,3.534,3.035,0,.561-.458.978-1.23.978a1.614,1.614,0,0,1-1.586-1.21l-1.08.506A2.774,2.774,0,0,0,79.748,13.137ZM83.85,13h1.333V9.35c0-1.08.574-2.133,1.6-2.133s1.271.9,1.271,1.777V13h1.34V9.233c0-1.025.574-2.017,1.593-2.017s1.292.923,1.292,1.8V13h1.347V8.871c0-1.483-.725-2.844-2.447-2.844A2.4,2.4,0,0,0,88.99,7.354a2.134,2.134,0,0,0-3.808-.287v-.9H83.85Zm14.5.137a3.4,3.4,0,0,0,3.37-3.568,3.368,3.368,0,1,0-6.727,0A3.383,3.383,0,0,0,98.349,13.137Zm.007-1.121c-1.395,0-2-1.189-2-2.447s.6-2.413,2-2.413,2,1.162,2,2.413S99.757,12.016,98.355,12.016Zm7.684.014c-1.087-.144-1.935-.253-1.935-.9a.51.51,0,0,1,.253-.444,3.057,3.057,0,0,0,1.292.273A2.445,2.445,0,0,0,108.015,7.4l1.053-.834-.718-.889-1.025.909a2.82,2.82,0,0,0-1.7-.533,2.5,2.5,0,0,0-2.673,2.44,2.362,2.362,0,0,0,.574,1.572,1.56,1.56,0,0,0-.567,1.258,1.485,1.485,0,0,0,.779,1.374l-.861.827a1.568,1.568,0,0,0-.021.28c0,1.347,1.169,2.372,3.063,2.372,1.552,0,2.864-.7,2.864-2.174C108.78,12.446,107.379,12.214,106.039,12.029Zm-.4-4.942A1.3,1.3,0,0,1,106.969,8.5a1.331,1.331,0,1,1-2.659,0A1.308,1.308,0,0,1,105.643,7.087Zm.321,8c-1.162,0-1.907-.533-1.955-1.251l.581-.8c.342.082.69.137,1.019.185,1.121.164,1.948.219,1.948.916C107.557,14.764,106.846,15.085,105.964,15.085Zm10.623-1.969a3.464,3.464,0,0,0,2.7-1.142l-.916-.772a2.22,2.22,0,0,1-1.784.731,1.8,1.8,0,0,1-1.859-1.914h4.724a3.869,3.869,0,0,0,.041-.581c0-1.552-.718-3.384-3.021-3.384-2.133,0-3.145,1.757-3.145,3.562A3.192,3.192,0,0,0,116.587,13.116Zm-1.859-4.1c.1-1.012.615-1.859,1.736-1.859,1.155,0,1.682.82,1.743,1.859ZM124.9,13h5.523V11.708h-4.136V3.341H124.9Zm8.654.137a2.466,2.466,0,0,0,2.27-1.292L135.892,13h1.1V8.83a2.6,2.6,0,0,0-2.8-2.8,3.158,3.158,0,0,0-2.714,1.415l.991.738a2.055,2.055,0,0,1,1.757-1c1.073,0,1.524.745,1.524,1.832h-1.661c-1.75,0-2.871.567-2.871,1.989A2.111,2.111,0,0,0,133.554,13.137Zm.171-1.121c-.677,0-1.148-.328-1.148-.971,0-.684.533-1.053,1.606-1.053h1.565A2.072,2.072,0,0,1,133.725,12.016Zm9.126.984H144.2V7.271h1.791v-1.1H144.2v-.93c0-.622.342-.889.779-.889a1.518,1.518,0,0,1,.677.191l.383-1.073A2.731,2.731,0,0,0,144.86,3.2a1.867,1.867,0,0,0-2,1.935V6.171h-1.251v1.1h1.244Zm6.856.137a3.4,3.4,0,0,0,3.37-3.568,3.368,3.368,0,1,0-6.727,0A3.383,3.383,0,0,0,149.707,13.137Zm.007-1.121c-1.395,0-2-1.189-2-2.447s.6-2.413,2-2.413,2,1.162,2,2.413S151.115,12.016,149.714,12.016Zm4.922.984h1.285V9.835c0-1.688.752-2.529,1.736-2.529a1.278,1.278,0,0,1,.793.253l.581-1.114a1.74,1.74,0,0,0-1.169-.417,2.076,2.076,0,0,0-1.928,1.326V6.171h-1.3Zm5.53,0H161.5V9.35c0-1.08.574-2.133,1.6-2.133s1.271.9,1.271,1.777V13h1.34V9.233c0-1.025.574-2.017,1.593-2.017s1.292.923,1.292,1.8V13h1.347V8.871c0-1.483-.725-2.844-2.447-2.844a2.4,2.4,0,0,0-2.187,1.326,2.134,2.134,0,0,0-3.808-.287v-.9h-1.333Zm11.7-8.237h1.429V3.341h-1.429ZM171.917,13h1.319V6.171h-1.319Zm6.043.137a2.748,2.748,0,0,0,2.707-1.914l-1.176-.472a1.584,1.584,0,0,1-1.545,1.224c-1.306,0-1.764-1.23-1.764-2.379s.472-2.4,1.764-2.4a1.581,1.581,0,0,1,1.545,1.251l1.251-.513a2.883,2.883,0,0,0-2.8-1.907c-2.092,0-3.11,1.757-3.11,3.568C174.836,11.428,175.868,13.137,177.96,13.137Zm5.865,0a2.466,2.466,0,0,0,2.27-1.292L186.163,13h1.1V8.83a2.6,2.6,0,0,0-2.8-2.8,3.158,3.158,0,0,0-2.714,1.415l.991.738a2.055,2.055,0,0,1,1.757-1c1.073,0,1.524.745,1.524,1.832h-1.661c-1.75,0-2.871.567-2.871,1.989A2.111,2.111,0,0,0,183.825,13.137ZM184,12.016c-.677,0-1.148-.328-1.148-.971,0-.684.533-1.053,1.606-1.053h1.565A2.072,2.072,0,0,1,184,12.016Zm10.493,1.121a2.466,2.466,0,0,0,2.27-1.292L196.827,13h1.1V8.83a2.6,2.6,0,0,0-2.8-2.8,3.158,3.158,0,0,0-2.714,1.415l.991.738a2.055,2.055,0,0,1,1.757-1c1.073,0,1.524.745,1.524,1.832h-1.661c-1.75,0-2.871.567-2.871,1.989A2.111,2.111,0,0,0,194.489,13.137Zm.171-1.121c-.677,0-1.148-.328-1.148-.971,0-.684.533-1.053,1.606-1.053h1.565A2.072,2.072,0,0,1,194.66,12.016ZM199.9,13h1.285V9.835c0-1.688.752-2.529,1.736-2.529a1.278,1.278,0,0,1,.793.253l.581-1.114a1.74,1.74,0,0,0-1.169-.417A2.076,2.076,0,0,0,201.2,7.354V6.171h-1.3Zm7.813-.971c-1.087-.144-1.935-.253-1.935-.9a.51.51,0,0,1,.253-.444,3.057,3.057,0,0,0,1.292.273A2.445,2.445,0,0,0,209.686,7.4l1.053-.834-.718-.889L209,6.588a2.82,2.82,0,0,0-1.7-.533A2.5,2.5,0,0,0,204.62,8.5a2.362,2.362,0,0,0,.574,1.572,1.56,1.56,0,0,0-.567,1.258,1.485,1.485,0,0,0,.779,1.374l-.861.827a1.568,1.568,0,0,0-.021.28c0,1.347,1.169,2.372,3.063,2.372,1.552,0,2.864-.7,2.864-2.174C210.451,12.446,209.05,12.214,207.71,12.029Zm-.4-4.942A1.3,1.3,0,0,1,208.64,8.5a1.331,1.331,0,1,1-2.659,0A1.308,1.308,0,0,1,207.313,7.087Zm.321,8c-1.162,0-1.907-.533-1.955-1.251l.581-.8c.342.082.69.137,1.019.185,1.121.164,1.948.219,1.948.916C209.228,14.764,208.517,15.085,207.635,15.085Zm7.082-1.969a3.464,3.464,0,0,0,2.7-1.142L216.5,11.2a2.22,2.22,0,0,1-1.784.731,1.8,1.8,0,0,1-1.859-1.914h4.724a3.869,3.869,0,0,0,.041-.581c0-1.552-.718-3.384-3.021-3.384-2.133,0-3.145,1.757-3.145,3.562A3.192,3.192,0,0,0,214.717,13.116Zm-1.859-4.1c.1-1.012.615-1.859,1.736-1.859,1.155,0,1.682.82,1.743,1.859ZM219.215,13h1.313V9.363c0-1.456.738-2.14,1.743-2.14,1.039,0,1.436.882,1.436,1.8V13h1.313V8.871c0-1.47-.677-2.83-2.379-2.83a2.512,2.512,0,0,0-2.112,1.135v-1h-1.312Zm9.926.137a3.183,3.183,0,0,0,1.066-.171V11.79a1.935,1.935,0,0,1-.813.212c-.465,0-.82-.28-.82-.984V7.271H230.3v-1.1h-1.729V3.491l-1.3,1.066V6.171H226.16v1.1h1.1v3.883A1.75,1.75,0,0,0,229.141,13.137Zm2.693-8.374h1.429V3.341h-1.429ZM231.889,13h1.319V6.171h-1.319Zm3.479,0h1.313V9.363c0-1.456.738-2.14,1.743-2.14,1.039,0,1.436.882,1.436,1.8V13h1.313V8.871c0-1.47-.677-2.83-2.379-2.83a2.512,2.512,0,0,0-2.112,1.135v-1h-1.312Zm9.5.137a2.466,2.466,0,0,0,2.27-1.292L247.208,13h1.1V8.83a2.6,2.6,0,0,0-2.8-2.8,3.158,3.158,0,0,0-2.714,1.415l.991.738a2.055,2.055,0,0,1,1.757-1c1.073,0,1.524.745,1.524,1.832H245.4c-1.75,0-2.871.567-2.871,1.989A2.111,2.111,0,0,0,244.87,13.137Zm.171-1.121c-.677,0-1.148-.328-1.148-.971,0-.684.533-1.053,1.606-1.053h1.565A2.072,2.072,0,0,1,245.041,12.016Z" transform="translate(2 118)"/></g><path d="M3.076.1C4.346.1,5.039-1.05,5.039-2.441S4.346-4.98,3.071-4.98a1.747,1.747,0,0,0-1.514.767V-6.9H.83V0h.728V-.664A1.747,1.747,0,0,0,3.076.1Zm-.19-.615c-.977,0-1.392-.928-1.392-1.924s.415-1.924,1.392-1.924,1.426.938,1.426,1.924S3.867-.518,2.886-.518ZM8.149.068a2.392,2.392,0,0,0,1.865-.762l-.5-.4a1.7,1.7,0,0,1-1.372.522A1.444,1.444,0,0,1,6.719-2.192h3.4c.01-.088.024-.249.024-.376,0-1.123-.488-2.378-2.07-2.378-1.416,0-2.119,1.226-2.119,2.534A2.211,2.211,0,0,0,8.149.068ZM6.719-2.788c.039-.83.459-1.558,1.353-1.558,1,0,1.353.776,1.372,1.558ZM13.149-.63c-.693-.1-1.3-.244-1.3-.747a.462.462,0,0,1,.21-.376,2.079,2.079,0,0,0,.918.205,1.661,1.661,0,0,0,1.8-1.68,1.761,1.761,0,0,0-.181-.791l.786-.62-.415-.518-.732.664a1.855,1.855,0,0,0-1.26-.454,1.7,1.7,0,0,0-1.826,1.709,1.625,1.625,0,0,0,.41,1.113,1,1,0,0,0-.356.806,1.082,1.082,0,0,0,.62,1l-.7.708A1.287,1.287,0,0,0,11.1.576c0,.928.835,1.66,2.1,1.66,1.025,0,1.953-.479,1.953-1.484C15.161-.352,14.141-.5,13.149-.63Zm-.186-3.74a1.059,1.059,0,0,1,1.079,1.118,1.023,1.023,0,0,1-1.079,1.1,1.019,1.019,0,0,1-1.074-1.1A1.066,1.066,0,0,1,12.964-4.37Zm.3,5.962c-.947,0-1.484-.5-1.489-1l.576-.7a4.948,4.948,0,0,0,.581.127c.835.142,1.577.166,1.577.791C14.512,1.338,13.911,1.592,13.267,1.592Zm3.086-7.554h.83V-6.9h-.83ZM16.406,0h.723V-4.878h-.723Zm2.373,0h.728V-2.534c0-1.211.61-1.812,1.377-1.812.859,0,1.108.781,1.108,1.455V0h.723V-2.964c0-1.074-.474-2-1.636-2a1.752,1.752,0,0,0-1.572.938v-.85h-.728Zm5.464,0h.728V-2.534c0-1.211.61-1.812,1.377-1.812.859,0,1.108.781,1.108,1.455V0h.723V-2.964c0-1.074-.474-2-1.636-2a1.752,1.752,0,0,0-1.572.938v-.85h-.728Zm5.42-5.962h.83V-6.9h-.83ZM29.717,0h.723V-4.878h-.723ZM32.09,0h.728V-2.534c0-1.211.61-1.812,1.377-1.812.859,0,1.108.781,1.108,1.455V0h.723V-2.964c0-1.074-.474-2-1.636-2a1.752,1.752,0,0,0-1.572.938v-.85H32.09Zm7.217-.63c-.693-.1-1.3-.244-1.3-.747a.462.462,0,0,1,.21-.376,2.079,2.079,0,0,0,.918.205,1.661,1.661,0,0,0,1.8-1.68,1.761,1.761,0,0,0-.181-.791l.786-.62-.415-.518-.732.664a1.855,1.855,0,0,0-1.26-.454A1.7,1.7,0,0,0,37.3-3.237a1.625,1.625,0,0,0,.41,1.113,1,1,0,0,0-.356.806,1.082,1.082,0,0,0,.62,1l-.7.708a1.287,1.287,0,0,0-.015.186c0,.928.835,1.66,2.1,1.66,1.025,0,1.953-.479,1.953-1.484C41.318-.352,40.3-.5,39.307-.63Zm-.186-3.74A1.059,1.059,0,0,1,40.2-3.252a1.023,1.023,0,0,1-1.079,1.1,1.019,1.019,0,0,1-1.074-1.1A1.066,1.066,0,0,1,39.121-4.37Zm.3,5.962c-.947,0-1.484-.5-1.489-1l.576-.7a4.948,4.948,0,0,0,.581.127c.835.142,1.577.166,1.577.791C40.669,1.338,40.068,1.592,39.424,1.592Z" transform="translate(2 147)"/><path d="M1.354,13H6.877V11.708H2.741V3.341H1.354Zm9.557.116a3.464,3.464,0,0,0,2.7-1.142l-.916-.772a2.22,2.22,0,0,1-1.784.731A1.8,1.8,0,0,1,9.051,10.02h4.724a3.869,3.869,0,0,0,.041-.581c0-1.552-.718-3.384-3.021-3.384-2.133,0-3.145,1.757-3.145,3.562A3.192,3.192,0,0,0,10.91,13.116Zm-1.859-4.1c.1-1.012.615-1.859,1.736-1.859,1.155,0,1.682.82,1.743,1.859Zm14.014,4.122a4.226,4.226,0,0,0,4.081-2.673l-1.278-.54A2.7,2.7,0,0,1,23.1,11.831c-2.229,0-3.138-1.682-3.138-3.712,0-1.948.9-3.623,3.11-3.623a2.6,2.6,0,0,1,2.775,1.887l1.285-.533a4.076,4.076,0,0,0-4.026-2.666c-3.124,0-4.519,2.317-4.519,4.977C18.587,10.847,20.016,13.137,23.064,13.137Zm8.121,0a3.4,3.4,0,0,0,3.37-3.568,3.368,3.368,0,1,0-6.727,0A3.383,3.383,0,0,0,31.186,13.137Zm.007-1.121c-1.395,0-2-1.189-2-2.447s.6-2.413,2-2.413,2,1.162,2,2.413S32.594,12.016,31.192,12.016Zm6.891,1.121a2.247,2.247,0,0,0,2.488-2.181c0-2.5-3.582-1.771-3.582-3.1,0-.444.4-.779,1.046-.779A1.56,1.56,0,0,1,39.484,8l1-.554a2.623,2.623,0,0,0-2.406-1.422,2.083,2.083,0,0,0-2.338,2c0,2.358,3.534,1.518,3.534,3.035,0,.561-.458.978-1.23.978a1.614,1.614,0,0,1-1.586-1.21l-1.08.506A2.774,2.774,0,0,0,38.083,13.137Zm4.1-.137h1.333V9.35c0-1.08.574-2.133,1.6-2.133s1.271.9,1.271,1.777V13h1.34V9.233c0-1.025.574-2.017,1.593-2.017s1.292.923,1.292,1.8V13H51.96V8.871c0-1.483-.725-2.844-2.447-2.844a2.4,2.4,0,0,0-2.187,1.326,2.134,2.134,0,0,0-3.808-.287v-.9H42.185Zm11.7-8.237H55.31V3.341H53.881ZM53.936,13h1.319V6.171H53.936Zm6.043.137a2.748,2.748,0,0,0,2.707-1.914l-1.176-.472a1.584,1.584,0,0,1-1.545,1.224c-1.306,0-1.764-1.23-1.764-2.379s.472-2.4,1.764-2.4A1.581,1.581,0,0,1,61.51,8.447l1.251-.513a2.883,2.883,0,0,0-2.8-1.907c-2.092,0-3.11,1.757-3.11,3.568C56.854,11.428,57.887,13.137,59.979,13.137Zm6.87,0a3.4,3.4,0,0,0,3.37-3.568,3.368,3.368,0,1,0-6.727,0A3.383,3.383,0,0,0,66.849,13.137Zm.007-1.121c-1.395,0-2-1.189-2-2.447s.6-2.413,2-2.413,2,1.162,2,2.413S68.257,12.016,66.855,12.016ZM71.777,13H73.11V9.35c0-1.08.574-2.133,1.6-2.133s1.271.9,1.271,1.777V13h1.34V9.233c0-1.025.574-2.017,1.593-2.017s1.292.923,1.292,1.8V13h1.347V8.871c0-1.483-.725-2.844-2.447-2.844a2.4,2.4,0,0,0-2.187,1.326,2.134,2.134,0,0,0-3.808-.287v-.9H71.777Zm11.7-8.237H84.9V3.341H83.474ZM83.528,13h1.319V6.171H83.528Zm6.043.137a2.748,2.748,0,0,0,2.707-1.914L91.1,10.751a1.584,1.584,0,0,1-1.545,1.224c-1.306,0-1.764-1.23-1.764-2.379s.472-2.4,1.764-2.4A1.581,1.581,0,0,1,91.1,8.447l1.251-.513a2.883,2.883,0,0,0-2.8-1.907c-2.092,0-3.11,1.757-3.11,3.568C86.447,11.428,87.479,13.137,89.571,13.137Zm4.2-.137H95.1V9.425A1.929,1.929,0,0,1,96.92,7.258c1.1,0,1.347.882,1.347,1.764V13h1.347V8.837c0-1.436-.7-2.8-2.406-2.8a2.589,2.589,0,0,0-2.105,1.1v-3.8H93.775Zm10.5.116a3.464,3.464,0,0,0,2.7-1.142l-.916-.772a2.22,2.22,0,0,1-1.784.731,1.8,1.8,0,0,1-1.859-1.914h4.724a3.869,3.869,0,0,0,.041-.581c0-1.552-.718-3.384-3.021-3.384-2.133,0-3.145,1.757-3.145,3.562A3.192,3.192,0,0,0,104.275,13.116Zm-1.859-4.1c.1-1.012.615-1.859,1.736-1.859,1.155,0,1.682.82,1.743,1.859Z" transform="translate(0 -2)"/><path d="M3.076.1C4.346.1,5.039-1.05,5.039-2.441S4.346-4.98,3.071-4.98a1.747,1.747,0,0,0-1.514.767V-6.9H.83V0h.728V-.664A1.747,1.747,0,0,0,3.076.1Zm-.19-.615c-.977,0-1.392-.928-1.392-1.924s.415-1.924,1.392-1.924,1.426.938,1.426,1.924S3.867-.518,2.886-.518ZM8.149.068a2.392,2.392,0,0,0,1.865-.762l-.5-.4a1.7,1.7,0,0,1-1.372.522A1.444,1.444,0,0,1,6.719-2.192h3.4c.01-.088.024-.249.024-.376,0-1.123-.488-2.378-2.07-2.378-1.416,0-2.119,1.226-2.119,2.534A2.211,2.211,0,0,0,8.149.068ZM6.719-2.788c.039-.83.459-1.558,1.353-1.558,1,0,1.353.776,1.372,1.558ZM13.149-.63c-.693-.1-1.3-.244-1.3-.747a.462.462,0,0,1,.21-.376,2.079,2.079,0,0,0,.918.205,1.661,1.661,0,0,0,1.8-1.68,1.761,1.761,0,0,0-.181-.791l.786-.62-.415-.518-.732.664a1.855,1.855,0,0,0-1.26-.454,1.7,1.7,0,0,0-1.826,1.709,1.625,1.625,0,0,0,.41,1.113,1,1,0,0,0-.356.806,1.082,1.082,0,0,0,.62,1l-.7.708A1.287,1.287,0,0,0,11.1.576c0,.928.835,1.66,2.1,1.66,1.025,0,1.953-.479,1.953-1.484C15.161-.352,14.141-.5,13.149-.63Zm-.186-3.74a1.059,1.059,0,0,1,1.079,1.118,1.023,1.023,0,0,1-1.079,1.1,1.019,1.019,0,0,1-1.074-1.1A1.066,1.066,0,0,1,12.964-4.37Zm.3,5.962c-.947,0-1.484-.5-1.489-1l.576-.7a4.948,4.948,0,0,0,.581.127c.835.142,1.577.166,1.577.791C14.512,1.338,13.911,1.592,13.267,1.592Zm3.086-7.554h.83V-6.9h-.83ZM16.406,0h.723V-4.878h-.723Zm2.373,0h.728V-2.534c0-1.211.61-1.812,1.377-1.812.859,0,1.108.781,1.108,1.455V0h.723V-2.964c0-1.074-.474-2-1.636-2a1.752,1.752,0,0,0-1.572.938v-.85h-.728Zm5.464,0h.728V-2.534c0-1.211.61-1.812,1.377-1.812.859,0,1.108.781,1.108,1.455V0h.723V-2.964c0-1.074-.474-2-1.636-2a1.752,1.752,0,0,0-1.572.938v-.85h-.728Zm5.42-5.962h.83V-6.9h-.83ZM29.717,0h.723V-4.878h-.723ZM32.09,0h.728V-2.534c0-1.211.61-1.812,1.377-1.812.859,0,1.108.781,1.108,1.455V0h.723V-2.964c0-1.074-.474-2-1.636-2a1.752,1.752,0,0,0-1.572.938v-.85H32.09Zm7.217-.63c-.693-.1-1.3-.244-1.3-.747a.462.462,0,0,1,.21-.376,2.079,2.079,0,0,0,.918.205,1.661,1.661,0,0,0,1.8-1.68,1.761,1.761,0,0,0-.181-.791l.786-.62-.415-.518-.732.664a1.855,1.855,0,0,0-1.26-.454A1.7,1.7,0,0,0,37.3-3.237a1.625,1.625,0,0,0,.41,1.113,1,1,0,0,0-.356.806,1.082,1.082,0,0,0,.62,1l-.7.708a1.287,1.287,0,0,0-.015.186c0,.928.835,1.66,2.1,1.66,1.025,0,1.953-.479,1.953-1.484C41.318-.352,40.3-.5,39.307-.63Zm-.186-3.74A1.059,1.059,0,0,1,40.2-3.252a1.023,1.023,0,0,1-1.079,1.1,1.019,1.019,0,0,1-1.074-1.1A1.066,1.066,0,0,1,39.121-4.37Zm.3,5.962c-.947,0-1.484-.5-1.489-1l.576-.7a4.948,4.948,0,0,0,.581.127c.835.142,1.577.166,1.577.791C40.669,1.338,40.068,1.592,39.424,1.592Z" transform="translate(0 30)"/></g></svg>