<svg xmlns="http://www.w3.org/2000/svg" xmlns:xlink="http://www.w3.org/1999/xlink" width="250" height="328" viewBox="0 0 250 328"><defs><clipPath id="b"><rect width="250" height="328"/></clipPath></defs><g id="a" clip-path="url(#b)"><g transform="translate(0 17)"><g transform="translate(-149 109.055)"><g transform="translate(150 -87.908)"><g transform="translate(0 0)" opacity="0.099"><g transform="translate(0 0)"><rect width="107.439" height="2.213" fill="#5151fc" stroke="#fff" stroke-width="0.22"/><rect width="107.439" height="3.467" transform="translate(0 2.214)" fill="#5151fc" stroke="#fff" stroke-width="0.22"/><rect width="107.439" height="1.729" transform="translate(0 5.683)" fill="#00c19c" stroke="#fff" stroke-width="0.22"/><rect width="107.439" height="2.95" transform="translate(0 7.414)" fill="#00c19c" stroke="#fff" stroke-width="0.22"/><rect width="107.439" height="4.502" transform="translate(0 15.877)" fill="#00ffb6" stroke="#fff" stroke-width="0.22"/><rect width="107.439" height="9.424" transform="translate(0 20.381)" fill="#00c19c" stroke="#fff" stroke-width="0.22"/><rect width="107.439" height="3.092" transform="translate(0 37.743)" fill="#5151fc" stroke="#fff" stroke-width="0.22"/><rect width="107.439" height="6.18" transform="translate(0 40.836)" fill="#5151fc" stroke="#fff" stroke-width="0.22"/><rect width="107.439" height="0.829" transform="translate(0 47.018)" fill="#5151fc" stroke="#fff" stroke-width="0.22"/><rect width="107.439" height="2.9" transform="translate(0 47.848)" fill="#5151fc" stroke="#fff" stroke-width="0.22"/><rect width="107.439" height="1.066" transform="translate(0 50.75)" fill="#00c19c" stroke="#fff" stroke-width="0.22"/><rect width="107.439" height="0.053" transform="translate(0 51.817)" fill="#5151fc" stroke="#fff" stroke-width="0.22"/><rect width="107.439" height="1.665" transform="translate(0 51.872)" fill="#5151fc" stroke="#fff" stroke-width="0.22"/><rect width="107.439" height="1.276" transform="translate(0 60.848)" fill="#00c19c" stroke="#fff" stroke-width="0.22"/><rect width="107.439" height="3.751" transform="translate(0 62.126)" fill="#00c19c" stroke="#fff" stroke-width="0.22"/><rect width="107.439" height="1.921" transform="translate(0 65.878)" fill="#5151fc" stroke="#fff" stroke-width="0.22"/><rect width="107.439" height="1.767" transform="translate(0 67.8)" fill="#00c19c" stroke="#fff" stroke-width="0.22"/><rect width="107.439" height="2.354" transform="translate(0 69.571)" fill="#5151fc" stroke="#fff" stroke-width="0.22"/><rect width="107.439" height="1.919" transform="translate(0 71.926)" fill="#00c19c" stroke="#fff" stroke-width="0.22"/><rect width="107.439" height="0.973" transform="translate(0 73.847)" fill="#5151fc" stroke="#fff" stroke-width="0.22"/><rect width="107.439" height="0.723" transform="translate(0 74.822)" fill="#5151fc" stroke="#fff" stroke-width="0.22"/><rect width="107.439" height="1.56" transform="translate(0 75.547)" fill="#5151fc" stroke="#fff" stroke-width="0.22"/><rect width="107.439" height="1.244" transform="translate(0 77.108)" fill="#5151fc" stroke="#fff" stroke-width="0.22"/><rect width="107.439" height="5.421" transform="translate(0 78.356)" fill="#00c19c" stroke="#fff" stroke-width="0.22"/><rect width="107.439" height="0.369" transform="translate(0 83.78)" fill="#5151fc" stroke="#fff" stroke-width="0.22"/><rect width="107.439" height="0.807" transform="translate(0 84.15)" fill="#5151fc" stroke="#fff" stroke-width="0.22"/><rect width="107.439" height="0.686" transform="translate(0 84.958)" fill="#00c19c" stroke="#fff" stroke-width="0.22"/><rect width="107.439" height="0.637" transform="translate(0 85.646)" fill="#5151fc" stroke="#fff" stroke-width="0.22"/><rect width="107.439" height="1.616" transform="translate(0 86.284)" fill="#00c19c" stroke="#fff" stroke-width="0.22"/><rect width="107.439" height="2.673" transform="translate(0 87.902)" fill="#009959" stroke="#fff" stroke-width="0.22"/><rect width="107.439" height="2.139" transform="translate(0 90.576)" fill="#8131f4" stroke="#fff" stroke-width="0.22"/><rect width="107.439" height="2.288" transform="translate(0 92.719)" fill="#00c19c" stroke="#fff" stroke-width="0.22"/><rect width="107.439" height="0.246" transform="translate(0 95.008)" fill="#009959" stroke="#fff" stroke-width="0.22"/><rect width="107.439" height="1.403" transform="translate(0 95.256)" fill="#00c19c" stroke="#fff" stroke-width="0.22"/><rect width="107.439" height="1.995" transform="translate(0 96.661)" fill="#5151fc" stroke="#fff" stroke-width="0.22"/><rect width="107.439" height="1.034" transform="translate(0 98.659)" fill="#5151fc" stroke="#fff" stroke-width="0.22"/><rect width="107.439" height="2.061" transform="translate(0 99.694)" fill="#5151fc" stroke="#fff" stroke-width="0.22"/><rect width="107.439" height="1.557" transform="translate(0 105.73)" fill="#5151fc" stroke="#fff" stroke-width="0.22"/><rect width="107.439" height="3.071" transform="translate(0 107.288)" fill="#8131f4" stroke="#fff" stroke-width="0.22"/><rect width="107.439" height="1.113" transform="translate(0 110.361)" fill="#00c19c" stroke="#fff" stroke-width="0.22"/><rect width="107.439" height="0.427" transform="translate(0 111.475)" fill="#00c19c" stroke="#fff" stroke-width="0.22"/><rect width="107.439" height="2.889" transform="translate(0 139.984)" fill="#5151fc" stroke="#fff" stroke-width="0.22"/><rect width="107.439" height="0.893" transform="translate(0 142.875)" fill="#5151fc" stroke="#fff" stroke-width="0.22"/><rect width="107.439" height="3.867" transform="translate(0 143.769)" fill="#00c19c" stroke="#fff" stroke-width="0.22"/><rect width="107.439" height="1.133" transform="translate(0 147.638)" fill="#5151fc" stroke="#fff" stroke-width="0.22"/><rect width="107.439" height="0.75" transform="translate(0 148.772)" fill="#00c19c" stroke="#fff" stroke-width="0.22"/><rect width="107.439" height="2.454" transform="translate(0 149.524)" fill="#8131f4" stroke="#fff" stroke-width="0.22"/><rect width="107.439" height="2.123" transform="translate(0 151.98)" fill="#009959" stroke="#fff" stroke-width="0.22"/><rect width="107.439" height="0.986" transform="translate(0 154.105)" fill="#5151fc" stroke="#fff" stroke-width="0.22"/><rect width="107.439" height="1.626" transform="translate(0 155.092)" fill="#5151fc" stroke="#fff" stroke-width="0.22"/><rect width="107.439" height="2.34" transform="translate(0 156.72)" fill="#009959" stroke="#fff" stroke-width="0.22"/><rect width="107.439" height="3.479" transform="translate(0 159.096)" fill="#009959" stroke="#fff" stroke-width="0.22"/><rect width="107.439" height="3.97" transform="translate(0 162.576)" fill="#00c19c" stroke="#fff" stroke-width="0.22"/><rect width="107.439" height="2.007" transform="translate(0 166.548)" fill="#009959" stroke="#fff" stroke-width="0.22"/><rect width="107.439" height="2.451" transform="translate(0 168.557)" fill="#5151fc" stroke="#fff" stroke-width="0.22"/><rect width="107.439" height="0.352" transform="translate(0 171.01)" fill="#5151fc" stroke="#fff" stroke-width="0.22"/><rect width="107.439" height="2.524" transform="translate(0 171.363)" fill="#8131f4" stroke="#fff" stroke-width="0.22"/><rect width="107.439" height="7.55" transform="translate(0 173.888)" fill="#00c19c" stroke="#fff" stroke-width="0.22"/><rect width="107.439" height="0.849" transform="translate(0 181.44)" fill="#5151fc" stroke="#fff" stroke-width="0.22"/><rect width="107.439" height="0.53" transform="translate(0 182.291)" fill="#00c19c" stroke="#fff" stroke-width="0.22"/><rect width="107.439" height="1.229" transform="translate(0 182.823)" fill="#009959" stroke="#fff" stroke-width="0.22"/><rect width="107.439" height="4.349" transform="translate(0 184.053)" fill="#00c19c" stroke="#fff" stroke-width="0.22"/><rect width="107.439" height="3.159" transform="translate(0 195.413)" fill="#009959" stroke="#fff" stroke-width="0.22"/><rect width="107.439" height="1.467" transform="translate(0 198.574)" fill="#00c19c" stroke="#fff" stroke-width="0.22"/><rect width="107.439" height="0.427" transform="translate(0 214.233)" fill="#009959" stroke="#fff" stroke-width="0.22"/><rect width="107.439" height="0.926" transform="translate(0 214.661)" fill="#5151fc" stroke="#fff" stroke-width="0.22"/><rect width="107.439" height="3.722" transform="translate(0 215.589)" fill="#00c19c" stroke="#fff" stroke-width="0.22"/><rect width="107.439" height="1.011" transform="translate(0 219.313)" fill="#00c19c" stroke="#fff" stroke-width="0.22"/><rect width="107.439" height="1.593" transform="translate(0 220.325)" fill="#00c19c" stroke="#fff" stroke-width="0.22"/><rect width="107.439" height="2.202" transform="translate(0 221.92)" fill="#8ae297" stroke="#fff" stroke-width="0.22"/><rect width="107.439" height="1.588" transform="translate(0 224.123)" fill="#00c19c" stroke="#fff" stroke-width="0.22"/><rect width="107.439" height="1.367" transform="translate(0 234.716)" fill="#00c19c" stroke="#fff" stroke-width="0.22"/><rect width="107.439" height="1.045" transform="translate(0 243.005)" fill="#5151fc" stroke="#fff" stroke-width="0.22"/><rect width="107.439" height="0.813" transform="translate(0 244.052)" fill="#5151fc" stroke="#fff" stroke-width="0.22"/><rect width="107.439" height="1.847" transform="translate(0 244.867)" fill="#00c19c" stroke="#fff" stroke-width="0.22"/><rect width="107.439" height="0.46" transform="translate(0 254.025)" fill="#5151fc" stroke="#fff" stroke-width="0.22"/><rect width="107.439" height="3.503" transform="translate(0 254.487)" fill="#00c19c" stroke="#fff" stroke-width="0.22"/><rect width="107.439" height="0.745" transform="translate(0 257.991)" fill="#5151fc" stroke="#fff" stroke-width="0.22"/><rect width="107.439" height="2.037" transform="translate(0 258.738)" fill="#5151fc" stroke="#fff" stroke-width="0.22"/><rect width="107.439" height="2.015" transform="translate(0 260.777)" fill="#5151fc" stroke="#fff" stroke-width="0.22"/><rect width="107.439" height="1.489" transform="translate(0 262.793)" fill="#00c19c" stroke="#fff" stroke-width="0.22"/><rect width="107.439" height="1.734" transform="translate(0 264.284)" fill="#5151fc" stroke="#fff" stroke-width="0.22"/><rect width="107.439" height="1.544" transform="translate(0 266.02)" fill="#00c19c" stroke="#fff" stroke-width="0.22"/><rect width="107.439" height="4.258" transform="translate(0 267.566)" fill="#009959" stroke="#fff" stroke-width="0.22"/></g></g><g transform="translate(107.571 10.321)"><g transform="translate(0 0)"><rect width="107.439" height="2.567" fill="#00c19c" stroke="#fff" stroke-width="0.22"/><rect width="107.439" height="2.939" transform="translate(0 2.569)" fill="#8131f4" stroke="#fff" stroke-width="0.22"/><rect width="107.439" height="2.619" transform="translate(0 19.441)" fill="#00c19c" stroke="#fff" stroke-width="0.22"/><rect width="107.439" height="1.119" transform="translate(0 22.062)" fill="#8131f4" stroke="#fff" stroke-width="0.22"/><rect width="107.439" height="1.868" transform="translate(0 23.922)" fill="#5151fc" stroke="#fff" stroke-width="0.22"/><rect width="107.439" height="0.824" transform="translate(0 25.791)" fill="#5151fc" stroke="#fff" stroke-width="0.22"/><rect width="107.439" height="0.758" transform="translate(0 26.616)" fill="#8131f4" stroke="#fff" stroke-width="0.22"/><rect width="107.439" height="4.076" transform="translate(0 43.174)" fill="#00c19c" stroke="#fff" stroke-width="0.22"/><rect width="107.439" height="0.441" transform="translate(0 47.251)" fill="#009959" stroke="#fff" stroke-width="0.22"/><rect width="107.439" height="1.144" transform="translate(0 47.694)" fill="#5151fc" stroke="#fff" stroke-width="0.22"/><rect width="107.439" height="0.703" transform="translate(0 48.84)" fill="#5151fc" stroke="#fff" stroke-width="0.22"/><rect width="107.439" height="0.935" transform="translate(0 49.544)" fill="#00c19c" stroke="#fff" stroke-width="0.22"/><rect width="107.439" height="1.883" transform="translate(0 91.391)" fill="#8131f4" stroke="#fff" stroke-width="0.22"/><rect width="107.439" height="2.086" transform="translate(0 93.276)" fill="#8ae297" stroke="#fff" stroke-width="0.22"/><rect width="107.439" height="3.341" transform="translate(0 101.54)" fill="#8ae297" stroke="#fff" stroke-width="0.22"/><rect width="107.439" height="3.741" transform="translate(0 104.883)" fill="#00c19c" stroke="#fff" stroke-width="0.22"/><rect width="107.439" height="1.458" transform="translate(0 108.625)" fill="#8ae297" stroke="#fff" stroke-width="0.22"/><rect width="107.439" height="2.753" transform="translate(0 110.085)" fill="#5151fc" stroke="#fff" stroke-width="0.22"/><rect width="107.439" height="1.508" transform="translate(0 112.841)" fill="#5151fc" stroke="#fff" stroke-width="0.22"/><rect width="107.439" height="1.202" transform="translate(0 114.35)" fill="#00c19c" stroke="#fff" stroke-width="0.22"/><rect width="107.439" height="0.902" transform="translate(0 115.554)" fill="#5151fc" stroke="#fff" stroke-width="0.22"/><rect width="107.439" height="0.262" transform="translate(0 116.458)" fill="#00c19c" stroke="#fff" stroke-width="0.22"/><rect width="107.439" height="1.999" transform="translate(0 116.723)" fill="#00c19c" stroke="#fff" stroke-width="0.22"/><rect width="107.439" height="1.645" transform="translate(0 118.724)" fill="#5151fc" stroke="#fff" stroke-width="0.22"/><rect width="107.439" height="1.083" transform="translate(0 120.37)" fill="#5151fc" stroke="#fff" stroke-width="0.22"/><rect width="107.439" height="0.869" transform="translate(0 121.455)" fill="#00c19c" stroke="#fff" stroke-width="0.22"/><rect width="107.439" height="4.617" transform="translate(0 122.327)" fill="#8ae297" stroke="#fff" stroke-width="0.22"/><rect width="107.439" height="0.508" transform="translate(0 126.946)" fill="#5151fc" stroke="#fff" stroke-width="0.22"/><rect width="107.439" height="1.285" transform="translate(0 127.456)" fill="#00c19c" stroke="#fff" stroke-width="0.22"/><rect width="107.439" height="0.873" transform="translate(0 128.743)" fill="#00c19c" stroke="#fff" stroke-width="0.22"/><rect width="107.439" height="0.771" transform="translate(0 178.038)" fill="#5151fc" stroke="#fff" stroke-width="0.22"/><rect width="107.439" height="2.461" transform="translate(0 178.81)" fill="#009959" stroke="#fff" stroke-width="0.22"/><rect width="107.439" height="3.774" transform="translate(0 181.272)" fill="#00c19c" stroke="#fff" stroke-width="0.22"/><rect width="107.439" height="1.64" transform="translate(0 190.556)" fill="#5151fc" stroke="#fff" stroke-width="0.22"/><rect width="107.439" height="7.955" transform="translate(0 192.198)" fill="#009959" stroke="#fff" stroke-width="0.22"/><rect width="107.439" height="3.712" transform="translate(0 200.154)" fill="#00c19c" stroke="#fff" stroke-width="0.22"/><rect width="107.439" height="1.026" transform="translate(0 216.537)" fill="#00c19c" stroke="#fff" stroke-width="0.22"/><rect width="107.439" height="1.092" transform="translate(0 218.739)" fill="#00c19c" stroke="#fff" stroke-width="0.22"/><rect width="107.439" height="1.668" transform="translate(0 222.227)" fill="#00c19c" stroke="#fff" stroke-width="0.22"/><rect width="107.439" height="2.647" transform="translate(0 226.703)" fill="#5151fc" stroke="#fff" stroke-width="0.22"/><rect width="107.439" height="3.286" transform="translate(0 229.352)" fill="#00c19c" stroke="#fff" stroke-width="0.22"/><rect width="107.439" height="2.964" transform="translate(0 239.168)" fill="#5151fc" stroke="#fff" stroke-width="0.22"/><rect width="107.439" height="1.248" transform="translate(0 242.134)" fill="#8ae297" stroke="#fff" stroke-width="0.22"/></g></g></g><rect width="107.439" height="5.508" transform="translate(150 -77.543)" fill="#5151fc" stroke="#fff" stroke-width="0.22"/><rect width="107.439" height="3.74" transform="translate(150 -58.102)" fill="#5151fc" stroke="#fff" stroke-width="0.22"/><rect width="107.439" height="4.19" transform="translate(150 -54.359)" fill="#5151fc" stroke="#fff" stroke-width="0.22"/><rect width="107.439" height="7.305" transform="translate(150 -34.368)" fill="#5151fc" stroke="#fff" stroke-width="0.22"/><rect width="107.439" height="3.97" transform="translate(150 13.848)" fill="#5151fc" stroke="#fff" stroke-width="0.22"/><rect width="107.439" height="11.298" transform="translate(150 23.997)" fill="#5151fc" stroke="#fff" stroke-width="0.22"/><rect width="107.439" height="9.484" transform="translate(150 35.298)" fill="#5151fc" stroke="#fff" stroke-width="0.22"/><rect width="107.439" height="7.288" transform="translate(150 44.785)" fill="#5151fc" stroke="#fff" stroke-width="0.22"/><rect width="107.439" height="7.009" transform="translate(150 100.495)" fill="#5151fc" stroke="#fff" stroke-width="0.22"/><rect width="107.439" height="14.188" transform="translate(150 112.135)" fill="#5151fc" stroke="#fff" stroke-width="0.22"/><rect width="107.439" height="2.216" transform="translate(150 137.805)" fill="#5151fc" stroke="#fff" stroke-width="0.22"/><rect width="107.439" height="2.266" transform="translate(150 140.022)" fill="#5151fc" stroke="#fff" stroke-width="0.22"/><rect width="107.439" height="4.517" transform="translate(150 142.29)" fill="#5151fc" stroke="#fff" stroke-width="0.22"/><rect width="107.439" height="6.919" transform="translate(150 148.176)" fill="#5151fc" stroke="#fff" stroke-width="0.22"/><rect width="107.439" height="7.308" transform="translate(150 158.807)" fill="#5151fc" stroke="#fff" stroke-width="0.22"/><line y2="271.977" transform="translate(257.486 -87.982)" fill="none" stroke="#000" stroke-width="1"/><path d="M5978.8,2813.971v25.721" transform="translate(-5608.893 -2713.477)" fill="none" stroke="#5151fc" stroke-width="1"/><path d="M5978.8,2813.971v7.81" transform="translate(-5608.893 -2675.475)" fill="none" stroke="#5151fc" stroke-width="1"/><path d="M5978.8,2813.971v17.369" transform="translate(-5608.893 -2665.291)" fill="none" stroke="#5151fc" stroke-width="1"/><path d="M2.788.078A1.981,1.981,0,0,0,4.941-1.9c0-2.227-3.325-1.87-3.325-3.418A1.039,1.039,0,0,1,2.725-6.333a1.454,1.454,0,0,1,1.343.8l.581-.391A2.1,2.1,0,0,0,2.734-7,1.758,1.758,0,0,0,.864-5.254c0,2.1,3.325,1.626,3.325,3.408,0,.835-.571,1.235-1.4,1.235A1.537,1.537,0,0,1,1.128-1.982l-.723.215A2.25,2.25,0,0,0,2.788.078ZM7.974.068A2.392,2.392,0,0,0,9.839-.693l-.5-.4a1.7,1.7,0,0,1-1.372.522A1.444,1.444,0,0,1,6.543-2.192h3.4c.01-.088.024-.249.024-.376,0-1.123-.488-2.378-2.07-2.378-1.416,0-2.119,1.226-2.119,2.534A2.211,2.211,0,0,0,7.974.068ZM6.543-2.788C6.582-3.618,7-4.346,7.9-4.346c1,0,1.353.776,1.372,1.558ZM11.221,0h.718V-2.437c0-1.177.5-1.846,1.333-1.846a.888.888,0,0,1,.6.186l.308-.63a1.268,1.268,0,0,0-.786-.254,1.572,1.572,0,0,0-1.44.967v-.864h-.728Zm3.848-5.962h.83V-6.9h-.83ZM15.122,0h.723V-4.878h-.723Zm4.194.068a2.392,2.392,0,0,0,1.865-.762l-.5-.4a1.7,1.7,0,0,1-1.372.522,1.444,1.444,0,0,1-1.426-1.621h3.4c.01-.088.024-.249.024-.376,0-1.123-.488-2.378-2.07-2.378-1.416,0-2.119,1.226-2.119,2.534A2.211,2.211,0,0,0,19.316.068ZM17.886-2.788c.039-.83.459-1.558,1.353-1.558,1,0,1.353.776,1.372,1.558ZM23.916.1a1.521,1.521,0,0,0,1.675-1.489c0-1.792-2.632-1.2-2.632-2.324,0-.4.327-.674.854-.674A1.15,1.15,0,0,1,24.9-3.7l.537-.308a1.733,1.733,0,0,0-1.6-.972A1.392,1.392,0,0,0,22.29-3.628c0,1.655,2.593,1.011,2.593,2.324,0,.527-.405.806-.957.806a1.237,1.237,0,0,1-1.216-.928l-.615.317A1.893,1.893,0,0,0,23.916.1Z" transform="translate(368 95.945)"/><g transform="translate(375 105.945)" fill="#fff" stroke="#4500ff" stroke-width="1"><circle cx="7" cy="7" r="7" stroke="none"/><circle cx="7" cy="7" r="6.5" fill="none"/></g><g transform="translate(375 134.945)" fill="#fff" stroke="#4500ff" stroke-width="1"><circle cx="7" cy="7" r="7" stroke="none"/><circle cx="7" cy="7" r="6.5" fill="none"/></g><g transform="translate(375 151.945)" fill="#fff" stroke="#4500ff" stroke-width="1"><circle cx="7" cy="7" r="7" stroke="none"/><circle cx="7" cy="7" r="6.5" fill="none"/></g></g><text transform="translate(231 224)" fill="#5151fc" font-size="7" font-family="HKGrotesk-Regular, HK Grotesk"><tspan x="0" y="0">1</tspan></text><text transform="translate(231 253)" fill="#5151fc" font-size="7" font-family="HKGrotesk-Regular, HK Grotesk"><tspan x="0" y="0">2</tspan></text><text transform="translate(231 270)" fill="#5151fc" font-size="7" font-family="HKGrotesk-Regular, HK Grotesk"><tspan x="0" y="0">3</tspan></text><path d="M-20.928,0h2.98V-.566h-2.359V-5.52h-.621Zm4.051,0H-13.3V-.566h-2.953V-2.5h2.566v-.52h-2.566V-4.984H-13.3V-5.52h-3.574Zm6.348,0H-10l2.066-5.52h-.633l-1.7,4.7-1.7-4.7h-.648Zm3.672,0h3.574V-.566H-6.236V-2.5H-3.67v-.52H-6.236V-4.984h2.953V-5.52H-6.857Zm4.84,0H.963V-.566H-1.4V-5.52h-.621ZM5.416,0h.625V-5.008H7.9V-5.52H3.553v.512H5.416Zm4.723,0h.68l1.348-4.2L13.486,0h.68l1.555-5.52h-.637l-1.3,4.762L12.4-5.2h-.5L10.533-.758,9.221-5.52H8.588Zm8.652.078c1.688,0,2.484-1.309,2.484-2.84s-.8-2.84-2.484-2.84-2.473,1.313-2.473,2.84S17.111.078,18.791.078Zm0-.57c-1.324,0-1.867-1.086-1.867-2.27s.543-2.266,1.867-2.266c1.344,0,1.883,1.086,1.883,2.266S20.135-.492,18.791-.492Z" transform="translate(58.056 304)"/><path d="M-24.184,0h2.98V-.566h-2.359V-5.52h-.621Zm4.051,0h3.574V-.566h-2.953V-2.5h2.566v-.52h-2.566V-4.984h2.953V-5.52h-3.574Zm6.348,0h.531l2.066-5.52h-.633l-1.7,4.7-1.7-4.7h-.648Zm3.672,0h3.574V-.566H-9.492V-2.5h2.566v-.52H-9.492V-4.984h2.953V-5.52h-3.574Zm4.84,0h2.98V-.566H-4.652V-5.52h-.621ZM2.16,0h.625V-5.008H4.648V-5.52H.3v.512H2.16ZM5.711,0h.621V-2.5H9.117V0h.621V-5.52H9.117v2.5H6.332v-2.5H5.711Zm5.684.008h.621V-2.469h.906L14.3.008h.727l-1.5-2.559a1.41,1.41,0,0,0,1.176-1.43,1.567,1.567,0,0,0-1.734-1.531H11.395Zm.629-3.047V-4.965h.957A.987.987,0,0,1,14.1-3.98c0,.594-.434.91-1.023.941ZM16.16,0h3.574V-.566H16.781V-2.5h2.566v-.52H16.781V-4.984h2.953V-5.52H16.16ZM21,0h3.574V-.566H21.621V-2.5h2.566v-.52H21.621V-4.984h2.953V-5.52H21Z" transform="translate(169 305)"/></g><path d="M1.16,11H5.895V9.893H2.35V2.721H1.16Zm7.418.117a2.114,2.114,0,0,0,1.945-1.107l.059.99h.943V7.426a2.228,2.228,0,0,0-2.4-2.4A2.706,2.706,0,0,0,6.8,6.236l.85.633a1.761,1.761,0,0,1,1.506-.855c.92,0,1.307.639,1.307,1.57H9.035c-1.5,0-2.461.486-2.461,1.705A1.809,1.809,0,0,0,8.578,11.117Zm.146-.961c-.58,0-.984-.281-.984-.832,0-.586.457-.9,1.377-.9h1.342A1.776,1.776,0,0,1,8.725,10.156ZM16.248,11h1.125V7.883c0-1.248.633-1.834,1.494-1.834.891,0,1.23.756,1.23,1.541V11h1.125V7.461c0-1.26-.58-2.426-2.039-2.426a2.153,2.153,0,0,0-1.811.973V5.146H16.248Zm8.5.123a2.1,2.1,0,0,0,1.787-.973V11h1.143V5.146H26.531V8.105c0,1.4-.75,2.021-1.564,2.021-.937,0-1.148-.779-1.148-1.676v-3.3H22.67V8.4C22.67,10,23.285,11.123,24.744,11.123ZM30.967,11h.961L34.2,5.146H32.982L31.447,9.529,29.924,5.146H28.682Zm6.422.117a2.912,2.912,0,0,0,2.889-3.059,2.887,2.887,0,1,0-5.766,0A2.9,2.9,0,0,0,37.389,11.117Zm.006-.961c-1.2,0-1.711-1.02-1.711-2.1S36.2,5.99,37.395,5.99s1.711,1,1.711,2.068S38.6,10.156,37.395,10.156Zm5.268.961a4.231,4.231,0,0,0,.92-.117v-.937a2.683,2.683,0,0,1-.486.047.371.371,0,0,1-.375-.357V2.721H41.584V9.828C41.584,10.684,41.877,11.117,42.662,11.117Zm3.586,0a2.114,2.114,0,0,0,1.945-1.107l.059.99H49.2V7.426a2.228,2.228,0,0,0-2.4-2.4,2.706,2.706,0,0,0-2.326,1.213l.85.633a1.761,1.761,0,0,1,1.506-.855c.92,0,1.307.639,1.307,1.57H46.705c-1.5,0-2.461.486-2.461,1.705A1.809,1.809,0,0,0,46.248,11.117Zm.146-.961c-.58,0-.984-.281-.984-.832,0-.586.457-.9,1.377-.9h1.342A1.776,1.776,0,0,1,46.395,10.156Zm11.25-7.436V5.844a2.117,2.117,0,0,0-1.758-.82c-1.553,0-2.42,1.4-2.42,3.047s.867,3.047,2.432,3.047a2.089,2.089,0,0,0,1.775-.85l.035.732h1.078V2.721Zm-1.459,7.4c-1.09,0-1.564-.955-1.564-2.051s.475-2.045,1.564-2.045,1.553.955,1.553,2.045C57.738,9.178,57.281,10.121,56.186,10.121ZM60.6,3.939h1.225V2.721H60.6ZM60.65,11h1.131V5.146H60.65Zm7.705.117a1.926,1.926,0,0,0,2.133-1.869c0-2.145-3.07-1.518-3.07-2.654,0-.381.346-.668.9-.668a1.337,1.337,0,0,1,1.242.791l.861-.475a2.249,2.249,0,0,0-2.062-1.219,1.785,1.785,0,0,0-2,1.717c0,2.021,3.029,1.3,3.029,2.6,0,.48-.393.838-1.055.838a1.383,1.383,0,0,1-1.359-1.037l-.926.434A2.377,2.377,0,0,0,68.355,11.117ZM71.871,11h1.143V7.871c0-.926.492-1.828,1.371-1.828s1.09.768,1.09,1.523V11h1.148V7.771c0-.879.492-1.729,1.365-1.729S79.1,6.834,79.1,7.59V11H80.25V7.461c0-1.271-.621-2.437-2.1-2.437A2.057,2.057,0,0,0,76.277,6.16a1.829,1.829,0,0,0-3.264-.246V5.146H71.871Zm12.428.117a2.912,2.912,0,0,0,2.889-3.059,2.887,2.887,0,1,0-5.766,0A2.9,2.9,0,0,0,84.3,11.117Zm.006-.961c-1.2,0-1.711-1.02-1.711-2.1S83.109,5.99,84.3,5.99s1.711,1,1.711,2.068S85.506,10.156,84.3,10.156Zm6.586.012c-.932-.123-1.658-.217-1.658-.768a.437.437,0,0,1,.217-.381,2.62,2.62,0,0,0,1.107.234A2.1,2.1,0,0,0,92.584,6.2l.9-.715-.615-.762-.879.779a2.417,2.417,0,0,0-1.459-.457,2.139,2.139,0,0,0-2.291,2.092,2.025,2.025,0,0,0,.492,1.348,1.337,1.337,0,0,0-.486,1.078,1.273,1.273,0,0,0,.668,1.178l-.738.709a1.344,1.344,0,0,0-.018.24c0,1.154,1,2.033,2.625,2.033,1.33,0,2.455-.6,2.455-1.863C93.24,10.525,92.039,10.326,90.891,10.168Zm-.34-4.236a1.114,1.114,0,0,1,1.137,1.207,1.14,1.14,0,1,1-2.279,0A1.121,1.121,0,0,1,90.551,5.932Zm.275,6.855c-1,0-1.635-.457-1.676-1.072l.5-.686c.293.07.592.117.873.158.961.141,1.67.188,1.67.785C92.191,12.512,91.582,12.787,90.826,12.787ZM99.932,11.1a2.969,2.969,0,0,0,2.314-.979l-.785-.662a1.9,1.9,0,0,1-1.529.627,1.544,1.544,0,0,1-1.594-1.641h4.049a3.316,3.316,0,0,0,.035-.5c0-1.33-.615-2.9-2.59-2.9a2.758,2.758,0,0,0-2.7,3.053A2.736,2.736,0,0,0,99.932,11.1ZM98.338,7.584c.082-.867.527-1.594,1.488-1.594.99,0,1.441.7,1.494,1.594ZM107.057,11h4.734V9.893h-3.545V2.721h-1.189Zm7.418.117a2.114,2.114,0,0,0,1.945-1.107l.059.99h.943V7.426a2.228,2.228,0,0,0-2.4-2.4,2.706,2.706,0,0,0-2.326,1.213l.85.633a1.761,1.761,0,0,1,1.506-.855c.92,0,1.307.639,1.307,1.57h-1.424c-1.5,0-2.461.486-2.461,1.705A1.809,1.809,0,0,0,114.475,11.117Zm.146-.961c-.58,0-.984-.281-.984-.832,0-.586.457-.9,1.377-.9h1.342A1.776,1.776,0,0,1,114.621,10.156Zm7.822.844H123.6V6.09h1.535V5.146H123.6v-.8c0-.533.293-.762.668-.762a1.3,1.3,0,0,1,.58.164l.328-.92a2.341,2.341,0,0,0-1.008-.234,1.6,1.6,0,0,0-1.717,1.658v.891h-1.072V6.09h1.066Zm5.877.117a2.912,2.912,0,0,0,2.889-3.059,2.887,2.887,0,1,0-5.766,0A2.9,2.9,0,0,0,128.32,11.117Zm.006-.961c-1.2,0-1.711-1.02-1.711-2.1s.516-2.068,1.711-2.068,1.711,1,1.711,2.068S129.527,10.156,128.326,10.156Zm4.219.844h1.1V8.287c0-1.447.645-2.168,1.488-2.168a1.1,1.1,0,0,1,.68.217l.5-.955a1.492,1.492,0,0,0-1-.357,1.78,1.78,0,0,0-1.652,1.137V5.146h-1.113Zm4.74,0h1.143V7.871c0-.926.492-1.828,1.371-1.828s1.09.768,1.09,1.523V11h1.148V7.771c0-.879.492-1.729,1.365-1.729s1.107.791,1.107,1.547V11h1.154V7.461c0-1.271-.621-2.437-2.1-2.437a2.057,2.057,0,0,0-1.875,1.137,1.829,1.829,0,0,0-3.264-.246V5.146h-1.143Zm10.025-7.061h1.225V2.721h-1.225ZM147.357,11h1.131V5.146h-1.131Zm5.18.117a2.355,2.355,0,0,0,2.32-1.641l-1.008-.4a1.357,1.357,0,0,1-1.324,1.049c-1.119,0-1.512-1.055-1.512-2.039s.4-2.057,1.512-2.057A1.355,1.355,0,0,1,153.85,7.1l1.072-.439a2.472,2.472,0,0,0-2.4-1.635c-1.793,0-2.666,1.506-2.666,3.059A2.738,2.738,0,0,0,152.537,11.117Zm5.027,0a2.114,2.114,0,0,0,1.945-1.107l.059.99h.943V7.426a2.228,2.228,0,0,0-2.4-2.4,2.706,2.706,0,0,0-2.326,1.213l.85.633a1.761,1.761,0,0,1,1.506-.855c.92,0,1.307.639,1.307,1.57h-1.424c-1.5,0-2.461.486-2.461,1.705A1.809,1.809,0,0,0,157.564,11.117Zm.146-.961c-.58,0-.984-.281-.984-.832,0-.586.457-.9,1.377-.9h1.342A1.776,1.776,0,0,1,157.711,10.156Zm8.994.961a2.114,2.114,0,0,0,1.945-1.107l.059.99h.943V7.426a2.228,2.228,0,0,0-2.4-2.4,2.706,2.706,0,0,0-2.326,1.213l.85.633a1.761,1.761,0,0,1,1.506-.855c.92,0,1.307.639,1.307,1.57h-1.424c-1.5,0-2.461.486-2.461,1.705A1.809,1.809,0,0,0,166.705,11.117Zm.146-.961c-.58,0-.984-.281-.984-.832,0-.586.457-.9,1.377-.9h1.342A1.776,1.776,0,0,1,166.852,10.156ZM171.34,11h1.1V8.287c0-1.447.645-2.168,1.488-2.168a1.1,1.1,0,0,1,.68.217l.5-.955a1.492,1.492,0,0,0-1-.357,1.78,1.78,0,0,0-1.652,1.137V5.146H171.34Zm6.7-.832c-.932-.123-1.658-.217-1.658-.768a.437.437,0,0,1,.217-.381,2.62,2.62,0,0,0,1.107.234A2.1,2.1,0,0,0,179.73,6.2l.9-.715-.615-.762-.879.779a2.417,2.417,0,0,0-1.459-.457,2.139,2.139,0,0,0-2.291,2.092,2.025,2.025,0,0,0,.492,1.348,1.337,1.337,0,0,0-.486,1.078,1.273,1.273,0,0,0,.668,1.178l-.738.709a1.344,1.344,0,0,0-.018.24c0,1.154,1,2.033,2.625,2.033,1.33,0,2.455-.6,2.455-1.863C180.387,10.525,179.186,10.326,178.037,10.168Zm-.34-4.236a1.114,1.114,0,0,1,1.137,1.207,1.14,1.14,0,1,1-2.279,0A1.121,1.121,0,0,1,177.7,5.932Zm.275,6.855c-1,0-1.635-.457-1.676-1.072l.5-.686c.293.07.592.117.873.158.961.141,1.67.188,1.67.785C179.338,12.512,178.729,12.787,177.973,12.787Zm6.07-1.687a2.969,2.969,0,0,0,2.314-.979l-.785-.662a1.9,1.9,0,0,1-1.529.627,1.544,1.544,0,0,1-1.594-1.641H186.5a3.316,3.316,0,0,0,.035-.5c0-1.33-.615-2.9-2.59-2.9a2.758,2.758,0,0,0-2.7,3.053A2.736,2.736,0,0,0,184.043,11.1Zm-1.594-3.516c.082-.867.527-1.594,1.488-1.594.99,0,1.441.7,1.494,1.594ZM187.9,11h1.125V7.883c0-1.248.633-1.834,1.494-1.834.891,0,1.23.756,1.23,1.541V11h1.125V7.461c0-1.26-.58-2.426-2.039-2.426a2.153,2.153,0,0,0-1.811.973V5.146H187.9Zm8.508.117a2.728,2.728,0,0,0,.914-.146V9.963a1.658,1.658,0,0,1-.7.182c-.4,0-.7-.24-.7-.844V6.09H197.4V5.146H195.92V2.85l-1.113.914V5.146h-.955V6.09h.943V9.418A1.5,1.5,0,0,0,196.406,11.117Zm2.309-7.178h1.225V2.721h-1.225ZM198.762,11h1.131V5.146h-1.131Zm2.982,0h1.125V7.883c0-1.248.633-1.834,1.494-1.834.891,0,1.23.756,1.23,1.541V11h1.125V7.461c0-1.26-.58-2.426-2.039-2.426a2.153,2.153,0,0,0-1.811.973V5.146h-1.125Zm8.145.117a2.114,2.114,0,0,0,1.945-1.107l.059.99h.943V7.426a2.228,2.228,0,0,0-2.4-2.4,2.706,2.706,0,0,0-2.326,1.213l.85.633a1.761,1.761,0,0,1,1.506-.855c.92,0,1.307.639,1.307,1.57h-1.424c-1.5,0-2.461.486-2.461,1.705A1.809,1.809,0,0,0,209.889,11.117Zm.146-.961c-.58,0-.984-.281-.984-.832,0-.586.457-.9,1.377-.9h1.342A1.776,1.776,0,0,1,210.035,10.156Z"/></g></svg>