<svg xmlns="http://www.w3.org/2000/svg" xmlns:xlink="http://www.w3.org/1999/xlink" width="127" height="240" viewBox="0 0 127 240">
  <defs>
    <style>
      .cls-1 {
        clip-path: url(#clip-legenda_04);
      }

      .cls-2 {
        font-size: 9px;
        font-family: HKGrotesk-Regular, HK Grotesk;
        isolation: isolate;
      }

      .cls-3 {
        fill: #8131f4;
      }

      .cls-4 {
        fill: blue;
      }

      .cls-5 {
        fill: #5151fc;
      }

      .cls-6 {
        fill: aqua;
      }

      .cls-7 {
        fill: #009959;
      }

      .cls-8 {
        fill: #00c19c;
      }

      .cls-9 {
        fill: #8ae297;
      }

      .cls-10 {
        fill: #00ffb6;
      }

      .cls-11 {
        fill: #6e94f4;
      }

      .cls-12 {
        font-size: 12px;
        font-family: HKGrotesk-SemiBold, HK Grotesk;
        font-weight: 600;
      }

      .cls-13 {
        font-size: 10px;
        font-family: HKGrotesk-Italic, HK Grotesk;
        font-style: italic;
      }
    </style>
    <clipPath id="clip-legenda_04">
      <rect width="127" height="240"/>
    </clipPath>
  </defs>
  <g id="legenda_04" class="cls-1">
    <g id="Group_793" data-name="Group 793" transform="translate(-842 -2619)">
      <g id="Group_785" data-name="Group 785" transform="translate(53 1364)">
        <g id="Group_312" data-name="Group 312" transform="translate(792 1305)">
          <text id="Eventi_liminali" data-name="Eventi liminali" class="cls-2" transform="translate(20 9)"><tspan x="0" y="0">Eventi liminali</tspan></text>
          <path id="Path_47" data-name="Path 47" class="cls-3" d="M4.5,0h8a4.5,4.5,0,0,1,0,9h-8a4.5,4.5,0,0,1,0-9Z" transform="translate(0 1)"/>
        </g>
      </g>
      <g id="Group_784" data-name="Group 784" transform="translate(53 1343)">
        <text id="Interazione" class="cls-2" transform="translate(812.483 1354)"><tspan x="0" y="0">Interazione</tspan></text>
        <rect id="Rectangle_181" data-name="Rectangle 181" class="cls-4" width="17" height="9" rx="4.5" transform="translate(792 1347)"/>
      </g>
      <g id="Group_782" data-name="Group 782" transform="translate(53 1342)">
        <path id="Path_48" data-name="Path 48" class="cls-5" d="M4.5,0h8a4.5,4.5,0,0,1,0,9h-8a4.5,4.5,0,0,1,0-9Z" transform="translate(792 1367)"/>
        <text id="Spostamento" class="cls-2" transform="translate(812.483 1374)"><tspan x="0" y="0">Spostamento</tspan></text>
      </g>
      <g id="Group_780" data-name="Group 780" transform="translate(53 1381)">
        <path id="Path_48-2" data-name="Path 48" class="cls-6" d="M4.5,0h8a4.5,4.5,0,0,1,0,9h-8a4.5,4.5,0,0,1,0-9Z" transform="translate(792 1367)"/>
        <text id="Situazione" class="cls-2" transform="translate(812.483 1374)"><tspan x="0" y="0">Situazione</tspan></text>
      </g>
      <g id="Group_776" data-name="Group 776" transform="translate(53 1400)">
        <path id="Path_48-3" data-name="Path 48" class="cls-7" d="M4.5,0h8a4.5,4.5,0,0,1,0,9h-8a4.5,4.5,0,0,1,0-9Z" transform="translate(792 1367)"/>
        <text id="Stato_euforico" data-name="Stato euforico" class="cls-2" transform="translate(812.483 1374)"><tspan x="0" y="0">Stato euforico</tspan></text>
      </g>
      <g id="Group_777" data-name="Group 777" transform="translate(53 1419)">
        <path id="Path_48-4" data-name="Path 48" class="cls-8" d="M4.5,0h8a4.5,4.5,0,0,1,0,9h-8a4.5,4.5,0,0,1,0-9Z" transform="translate(792 1367)"/>
        <text id="Stato_disforico" data-name="Stato disforico" class="cls-2" transform="translate(812.483 1374)"><tspan x="0" y="0">Stato disforico</tspan></text>
      </g>
      <g id="Group_778" data-name="Group 778" transform="translate(53 1438)">
        <path id="Path_48-5" data-name="Path 48" class="cls-9" d="M4.5,0h8a4.5,4.5,0,0,1,0,9h-8a4.5,4.5,0,0,1,0-9Z" transform="translate(792 1367)"/>
        <text id="Stato_riflessivo" data-name="Stato riflessivo" class="cls-2" transform="translate(812.483 1374)"><tspan x="0" y="0">Stato riflessivo</tspan></text>
      </g>
      <g id="Group_779" data-name="Group 779" transform="translate(53 1457)">
        <path id="Path_48-6" data-name="Path 48" class="cls-10" d="M4.5,0h8a4.5,4.5,0,0,1,0,9h-8a4.5,4.5,0,0,1,0-9Z" transform="translate(792 1367)"/>
        <text id="Stato_sospeso" data-name="Stato sospeso" class="cls-2" transform="translate(812.483 1374)"><tspan x="0" y="0">Stato sospeso</tspan></text>
      </g>
      <g id="Group_781" data-name="Group 781" transform="translate(53 1402)">
        <text id="Intenzione" class="cls-2" transform="translate(812 1334)"><tspan x="0" y="0">Intenzione</tspan></text>
        <path id="Path_46" data-name="Path 46" class="cls-11" d="M4.5,0h8a4.5,4.5,0,0,1,0,9h-8a4.5,4.5,0,0,1,0-9Z" transform="translate(792 1327)"/>
      </g>
      <text id="LEGENDA" class="cls-12" transform="translate(845 2630)"><tspan x="0" y="0">LEGENDA</tspan></text>
      <text id="Tipologia" class="cls-13" transform="translate(845 2661)"><tspan x="0" y="0">Tipologia</tspan></text>
    </g>
  </g>
</svg>
