<svg xmlns="http://www.w3.org/2000/svg" xmlns:xlink="http://www.w3.org/1999/xlink" width="127" height="97" viewBox="0 0 127 97">
  <defs>
    <style>
      .cls-1 {
        clip-path: url(#clip-legenda_03);
      }

      .cls-2 {
        font-size: 12px;
        font-family: HKGrotesk-SemiBold, HK Grotesk;
        font-weight: 600;
      }

      .cls-3 {
        font-size: 10px;
        font-family: HKGrotesk-Italic, HK Grotesk;
        font-style: italic;
      }

      .cls-4 {
        font-size: 9px;
        font-family: HKGrotesk-Regular, HK Grotesk;
        isolation: isolate;
      }

      .cls-5 {
        fill: #5151fc;
      }

      .cls-6 {
        fill: #0affb7;
      }

      .cls-7 {
        fill: #ffa501;
      }
    </style>
    <clipPath id="clip-legenda_03">
      <rect width="127" height="97"/>
    </clipPath>
  </defs>
  <g id="legenda_03" class="cls-1">
    <g id="Group_791" data-name="Group 791" transform="translate(-789 -1992)">
      <text id="LEGENDA" class="cls-2" transform="translate(792 2003)"><tspan x="0" y="0">LEGENDA</tspan></text>
      <text id="Ambito" class="cls-3" transform="translate(792 2035)"><tspan x="0" y="0">Ambito</tspan></text>
      <g id="Group_306" data-name="Group 306" transform="translate(792 2044)">
        <g id="Group_312" data-name="Group 312" transform="translate(0 -1)">
          <text id="Esteriore" class="cls-4" transform="translate(20 9)"><tspan x="0" y="0">Esteriore</tspan></text>
          <path id="Path_47" data-name="Path 47" class="cls-5" d="M4.5,0h8a4.5,4.5,0,0,1,0,9h-8a4.5,4.5,0,0,1,0-9Z" transform="translate(0 1)"/>
        </g>
      </g>
      <g id="Group_307" data-name="Group 307" transform="translate(792 2060)">
        <text id="Interiore" class="cls-4" transform="translate(20 8)"><tspan x="0" y="0">Interiore</tspan></text>
        <path id="Path_46" data-name="Path 46" class="cls-6" d="M4.5,0h8a4.5,4.5,0,0,1,0,9h-8a4.5,4.5,0,0,1,0-9Z" transform="translate(0 1)"/>
      </g>
      <g id="Group_543" data-name="Group 543" transform="translate(792 2076)">
        <text id="Formale" class="cls-4" transform="translate(20.483 8)"><tspan x="0" y="0">Formale</tspan></text>
        <rect id="Rectangle_181" data-name="Rectangle 181" class="cls-7" width="17" height="9" rx="4.5" transform="translate(0 1)"/>
      </g>
    </g>
  </g>
</svg>
