<?xml version="1.0" encoding="utf-8"?>
<!-- Generator: Adobe Illustrator 24.3.0, SVG Export Plug-In . SVG Version: 6.00 Build 0)  -->
<svg version="1.1" id="Layer_1" xmlns="http://www.w3.org/2000/svg" xmlns:xlink="http://www.w3.org/1999/xlink" x="0px" y="0px"
	 width="127px" height="240px" viewBox="0 0 127 240" style="enable-background:new 0 0 127 240;" xml:space="preserve">
<style type="text/css">
	.st0{clip-path:url(#SVGID_2_);}
	.st1{enable-background:new    ;}
	.st2{fill:#8131F4;}
	.st3{fill:#0000FF;}
	.st4{fill:#5151FC;}
	.st5{fill:#00FFFF;}
	.st6{fill:#009959;}
	.st7{fill:#00C19C;}
	.st8{fill:#8AE297;}
	.st9{fill:#00FFB6;}
	.st10{fill:#FFA500;}
	.st11{fill:#6E94F4;}
</style>
<g>
	<defs>
		<rect id="SVGID_1_" y="0" width="127" height="240"/>
	</defs>
	<clipPath id="SVGID_2_">
		<use xlink:href="#SVGID_1_"  style="overflow:visible;"/>
	</clipPath>
	<g id="legend" class="st0">
		<g id="Group_24094">
			<g class="st1">
				<path d="M30.9,28.8h4v0.6h-3.3v2.2h2.9v0.6h-2.9v2.2H35V35h-4V28.8z"/>
				<path d="M35.5,30.6h0.7l1.2,3.5l1.2-3.5h0.7L37.7,35h-0.6L35.5,30.6z"/>
				<path d="M39.8,32.8c0-1.2,0.6-2.3,1.9-2.3c1.4,0,1.9,1.1,1.9,2.1c0,0.1,0,0.3,0,0.3h-3.1c0,0.8,0.4,1.5,1.3,1.5
					c0.5,0,0.9-0.1,1.2-0.5l0.4,0.4c-0.5,0.5-1,0.7-1.7,0.7C40.4,35.1,39.8,34,39.8,32.8z M42.9,32.5c0-0.7-0.3-1.4-1.2-1.4
					c-0.8,0-1.2,0.7-1.2,1.4H42.9z"/>
				<path d="M44.7,30.6h0.7v0.8c0.3-0.5,0.8-0.8,1.4-0.8c1,0,1.5,0.8,1.5,1.8V35h-0.7v-2.6c0-0.6-0.2-1.3-1-1.3
					c-0.7,0-1.2,0.5-1.2,1.6V35h-0.7V30.6z"/>
				<path d="M49.7,33.8v-2.7H49v-0.5h0.7v-1l0.7-0.6v1.6h1.1v0.5h-1.1v2.7c0,0.5,0.2,0.7,0.6,0.7c0.1,0,0.3,0,0.4-0.1V35
					c-0.1,0-0.3,0.1-0.6,0.1C50,35.1,49.7,34.6,49.7,33.8z"/>
				<path d="M52.5,28.8h0.7v0.8h-0.7V28.8z M52.5,30.6h0.7V35h-0.7V30.6z"/>
				<path d="M58.3,34.5V35c-0.1,0-0.4,0.1-0.6,0.1c-0.7,0-0.7-0.4-0.7-1v-5.3h0.7v5.5c0,0,0,0.3,0.2,0.3
					C58.1,34.5,58.3,34.5,58.3,34.5z"/>
				<path d="M59.3,28.8H60v0.8h-0.7V28.8z M59.3,30.6H60V35h-0.7V30.6z"/>
				<path d="M61.5,30.6h0.7v0.7c0.2-0.4,0.6-0.8,1.2-0.8c0.6,0,1.1,0.3,1.3,0.9c0.3-0.6,0.7-0.9,1.4-0.9c1.1,0,1.5,0.8,1.5,1.8V35
					h-0.7v-2.6c0-0.6-0.2-1.3-0.9-1.3c-0.7,0-1.1,0.8-1.1,1.5V35h-0.7v-2.6c0-0.6-0.2-1.3-0.9-1.3c-0.7,0-1.1,0.8-1.1,1.6V35h-0.7
					V30.6z"/>
				<path d="M68.9,28.8h0.7v0.8h-0.7V28.8z M69,30.6h0.7V35H69V30.6z"/>
				<path d="M71.1,30.6h0.7v0.8c0.3-0.5,0.8-0.8,1.4-0.8c1,0,1.5,0.8,1.5,1.8V35H74v-2.6c0-0.6-0.2-1.3-1-1.3
					c-0.7,0-1.2,0.5-1.2,1.6V35h-0.7V30.6z"/>
				<path d="M75.6,33.8c0-0.9,0.7-1.3,1.9-1.3h1c0-0.8-0.3-1.4-1.1-1.4c-0.6,0-1,0.4-1.2,0.7l-0.5-0.4c0.4-0.5,0.9-0.9,1.7-0.9
					c1.1,0,1.7,0.7,1.7,1.8V35h-0.6l0-0.8c-0.3,0.7-0.9,0.9-1.5,0.9C76.2,35.1,75.6,34.6,75.6,33.8z M78.5,33h-0.9
					c-0.9,0-1.3,0.2-1.3,0.8c0,0.5,0.4,0.7,0.8,0.7C78,34.5,78.5,33.7,78.5,33z"/>
				<path d="M81.8,34.5V35c-0.1,0-0.4,0.1-0.6,0.1c-0.7,0-0.7-0.4-0.7-1v-5.3h0.7v5.5c0,0,0,0.3,0.2,0.3
					C81.5,34.5,81.7,34.5,81.8,34.5z"/>
				<path d="M82.7,28.8h0.7v0.8h-0.7V28.8z M82.8,30.6h0.7V35h-0.7V30.6z"/>
			</g>
			<path id="Path_47" class="st2" d="M5.3,27h9.4c2.8-0.1,5.2,2.2,5.3,5c-0.1,2.8-2.5,5.1-5.3,5H5.3c-2.8,0.1-5.2-2.2-5.3-5
				C0.1,29.2,2.5,26.9,5.3,27z"/>
			<g class="st1">
				<path d="M30.4,47.8h0.7V54h-0.7V47.8z"/>
				<path d="M32.8,49.6h0.7v0.8c0.3-0.5,0.8-0.8,1.4-0.8c1,0,1.5,0.8,1.5,1.8V54h-0.7v-2.6c0-0.6-0.2-1.3-1-1.3
					c-0.7,0-1.2,0.5-1.2,1.6V54h-0.7V49.6z"/>
				<path d="M37.9,52.8v-2.7h-0.7v-0.5h0.7v-1l0.7-0.6v1.6h1.1v0.5h-1.1v2.7c0,0.5,0.2,0.7,0.6,0.7c0.1,0,0.3,0,0.4-0.1V54
					c-0.1,0-0.3,0.1-0.6,0.1C38.1,54.1,37.9,53.6,37.9,52.8z"/>
				<path d="M40.3,51.8c0-1.2,0.6-2.3,1.9-2.3c1.4,0,1.9,1.1,1.9,2.1c0,0.1,0,0.3,0,0.3H41c0,0.8,0.4,1.5,1.3,1.5
					c0.5,0,0.9-0.1,1.2-0.5l0.4,0.4c-0.5,0.5-1,0.7-1.7,0.7C40.9,54.1,40.3,53,40.3,51.8z M43.4,51.5c0-0.7-0.3-1.4-1.2-1.4
					c-0.8,0-1.2,0.7-1.2,1.4H43.4z"/>
				<path d="M45.2,49.6h0.7v0.8c0.2-0.5,0.7-0.9,1.3-0.9c0.3,0,0.5,0.1,0.7,0.2l-0.3,0.6c-0.1-0.1-0.3-0.2-0.5-0.2
					c-0.7,0-1.2,0.6-1.2,1.7V54h-0.6V49.6z"/>
				<path d="M48.3,52.8c0-0.9,0.7-1.3,1.9-1.3h1c0-0.8-0.3-1.4-1.1-1.4c-0.6,0-1,0.4-1.2,0.7l-0.5-0.4c0.4-0.5,0.9-0.9,1.7-0.9
					c1.1,0,1.7,0.7,1.7,1.8V54h-0.6l0-0.8c-0.3,0.7-0.9,0.9-1.5,0.9C48.9,54.1,48.3,53.6,48.3,52.8z M51.2,52h-0.9
					c-0.9,0-1.3,0.2-1.3,0.8c0,0.5,0.4,0.7,0.8,0.7C50.7,53.5,51.2,52.7,51.2,52z"/>
				<path d="M56.2,50.2l-2.6,3.3h2.6V54h-3.5v-0.5l2.7-3.4h-2.6v-0.5h3.3V50.2z"/>
				<path d="M57.2,47.8H58v0.8h-0.7V47.8z M57.3,49.6h0.7V54h-0.7V49.6z"/>
				<path d="M59.1,51.8c0-1.2,0.8-2.3,2.1-2.3c1.2,0,2.1,1,2.1,2.3c0,1.3-0.9,2.3-2.1,2.3C59.9,54.1,59.1,53,59.1,51.8z M62.6,51.8
					c0-0.9-0.4-1.7-1.4-1.7s-1.4,0.9-1.4,1.7c0,0.9,0.4,1.7,1.4,1.7C62.1,53.5,62.6,52.7,62.6,51.8z"/>
				<path d="M64.3,49.6H65v0.8c0.3-0.5,0.8-0.8,1.4-0.8c1,0,1.5,0.8,1.5,1.8V54h-0.7v-2.6c0-0.6-0.2-1.3-1-1.3
					c-0.7,0-1.2,0.5-1.2,1.6V54h-0.7V49.6z"/>
				<path d="M68.9,51.8c0-1.2,0.6-2.3,1.9-2.3c1.4,0,1.9,1.1,1.9,2.1c0,0.1,0,0.3,0,0.3h-3.1c0,0.8,0.4,1.5,1.3,1.5
					c0.5,0,0.9-0.1,1.2-0.5l0.4,0.4c-0.5,0.5-1,0.7-1.7,0.7C69.6,54.1,68.9,53,68.9,51.8z M72.1,51.5c0-0.7-0.3-1.4-1.2-1.4
					c-0.8,0-1.2,0.7-1.2,1.4H72.1z"/>
			</g>
			<path id="Rectangle_181" class="st3" d="M5,46h10c2.8,0,5,2.2,5,5l0,0c0,2.8-2.2,5-5,5H5c-2.8,0-5-2.2-5-5l0,0
				C0,48.2,2.2,46,5,46z"/>
			<path id="Path_48" class="st4" d="M5.3,65h9.4c2.8-0.1,5.2,2.2,5.3,5c-0.1,2.8-2.5,5.1-5.3,5H5.3c-2.8,0.1-5.2-2.2-5.3-5
				C0.1,67.2,2.5,64.9,5.3,65z"/>
			<g class="st1">
				<path d="M29.8,71.4l0.7-0.2c0.1,0.8,0.8,1.2,1.5,1.2c0.7,0,1.3-0.4,1.3-1.1c0-1.6-3-1.2-3-3.1c0-1,0.8-1.6,1.7-1.6
					c0.7,0,1.3,0.3,1.7,1L33.1,68c-0.3-0.5-0.7-0.7-1.2-0.7c-0.5,0-1,0.3-1,0.9c0,1.4,3,1.1,3,3.1c0,1.1-0.8,1.8-1.9,1.8
					C31,73.1,30,72.5,29.8,71.4z"/>
				<path d="M34.9,68.6h0.7v0.6c0.3-0.4,0.8-0.7,1.3-0.7c1.2,0,1.8,1,1.8,2.3c0,1.2-0.6,2.3-1.8,2.3c-0.6,0-1-0.2-1.3-0.7v2.5h-0.7
					V68.6z M38,70.8c0-0.9-0.4-1.7-1.3-1.7c-0.9,0-1.3,0.8-1.3,1.7c0,0.9,0.4,1.7,1.3,1.7C37.6,72.5,38,71.7,38,70.8z"/>
				<path d="M39.5,70.8c0-1.2,0.8-2.3,2.1-2.3c1.2,0,2.1,1,2.1,2.3c0,1.3-0.9,2.3-2.1,2.3C40.3,73.1,39.5,72,39.5,70.8z M43,70.8
					c0-0.9-0.4-1.7-1.4-1.7s-1.4,0.9-1.4,1.7c0,0.9,0.4,1.7,1.4,1.7C42.5,72.5,43,71.7,43,70.8z"/>
				<path d="M44.3,72l0.6-0.3c0.2,0.5,0.5,0.8,1.1,0.8c0.5,0,0.9-0.3,0.9-0.7c0-1.2-2.3-0.6-2.3-2.1c0-0.8,0.6-1.2,1.4-1.2
					c0.7,0,1.2,0.4,1.4,0.9l-0.5,0.3c-0.2-0.4-0.5-0.6-1-0.6c-0.5,0-0.8,0.2-0.8,0.6c0,1,2.4,0.5,2.4,2.1c0,0.9-0.7,1.3-1.5,1.3
					C45.1,73.1,44.5,72.6,44.3,72z"/>
				<path d="M48.7,71.8v-2.7H48v-0.5h0.7v-1l0.7-0.6v1.6h1.1v0.5h-1.1v2.7c0,0.5,0.2,0.7,0.6,0.7c0.1,0,0.3,0,0.4-0.1V73
					c-0.1,0-0.3,0.1-0.6,0.1C49,73.1,48.7,72.6,48.7,71.8z"/>
				<path d="M51.1,71.8c0-0.9,0.7-1.3,1.9-1.3h1c0-0.8-0.3-1.4-1.1-1.4c-0.6,0-1,0.4-1.2,0.7l-0.5-0.4c0.4-0.5,0.9-0.9,1.7-0.9
					c1.1,0,1.7,0.7,1.7,1.8V73h-0.6l0-0.8c-0.3,0.7-0.9,0.9-1.5,0.9C51.7,73.1,51.1,72.6,51.1,71.8z M54.1,71h-0.9
					c-0.9,0-1.3,0.2-1.3,0.8c0,0.5,0.4,0.7,0.8,0.7C53.5,72.5,54.1,71.7,54.1,71z"/>
				<path d="M56,68.6h0.7v0.7c0.2-0.4,0.6-0.8,1.2-0.8c0.6,0,1.1,0.3,1.3,0.9c0.3-0.6,0.7-0.9,1.4-0.9c1.1,0,1.5,0.8,1.5,1.8V73
					h-0.7v-2.6c0-0.6-0.2-1.3-0.9-1.3c-0.7,0-1.1,0.8-1.1,1.5V73h-0.7v-2.6c0-0.6-0.2-1.3-0.9-1.3c-0.7,0-1.1,0.8-1.1,1.6V73H56
					V68.6z"/>
				<path d="M63.1,70.8c0-1.2,0.6-2.3,1.9-2.3c1.4,0,1.9,1.1,1.9,2.1c0,0.1,0,0.3,0,0.3h-3.1c0,0.8,0.4,1.5,1.3,1.5
					c0.5,0,0.9-0.1,1.2-0.5l0.4,0.4c-0.5,0.5-1,0.7-1.7,0.7C63.8,73.1,63.1,72,63.1,70.8z M66.3,70.5c0-0.7-0.3-1.4-1.2-1.4
					c-0.8,0-1.2,0.7-1.2,1.4H66.3z"/>
				<path d="M68,68.6h0.7v0.8c0.3-0.5,0.8-0.8,1.4-0.8c1,0,1.5,0.8,1.5,1.8V73h-0.7v-2.6c0-0.6-0.2-1.3-1-1.3
					c-0.7,0-1.2,0.5-1.2,1.6V73H68V68.6z"/>
				<path d="M73.1,71.8v-2.7h-0.7v-0.5h0.7v-1l0.7-0.6v1.6h1.1v0.5h-1.1v2.7c0,0.5,0.2,0.7,0.6,0.7c0.1,0,0.3,0,0.4-0.1V73
					c-0.1,0-0.3,0.1-0.6,0.1C73.4,73.1,73.1,72.6,73.1,71.8z"/>
				<path d="M75.5,70.8c0-1.2,0.8-2.3,2.1-2.3c1.2,0,2.1,1,2.1,2.3c0,1.3-0.9,2.3-2.1,2.3C76.4,73.1,75.5,72,75.5,70.8z M79,70.8
					c0-0.9-0.4-1.7-1.4-1.7s-1.4,0.9-1.4,1.7c0,0.9,0.4,1.7,1.4,1.7C78.6,72.5,79,71.7,79,70.8z"/>
			</g>
			<path id="Path_48-2" class="st5" d="M5.3,104h9.4c2.8-0.1,5.2,2.2,5.3,5c-0.1,2.8-2.5,5.1-5.3,5H5.3c-2.8,0.1-5.2-2.2-5.3-5
				C0.1,106.2,2.5,103.9,5.3,104z"/>
			<g class="st1">
				<path d="M28.8,110.4l0.7-0.2c0.1,0.8,0.8,1.2,1.5,1.2c0.7,0,1.3-0.4,1.3-1.1c0-1.6-3-1.2-3-3.1c0-1,0.8-1.6,1.7-1.6
					c0.7,0,1.3,0.3,1.7,1l-0.5,0.4c-0.3-0.5-0.7-0.7-1.2-0.7c-0.5,0-1,0.3-1,0.9c0,1.4,3,1.1,3,3.1c0,1.1-0.8,1.8-1.9,1.8
					C30,112.1,29,111.5,28.8,110.4z"/>
				<path d="M34,105.8h0.7v0.8H34V105.8z M34.1,107.6h0.7v4.4h-0.7V107.6z"/>
				<path d="M36.4,110.8v-2.7h-0.7v-0.5h0.7v-1L37,106v1.6h1.1v0.5H37v2.7c0,0.5,0.2,0.7,0.6,0.7c0.1,0,0.3,0,0.4-0.1v0.6
					c-0.1,0-0.3,0.1-0.6,0.1C36.7,112.1,36.4,111.6,36.4,110.8z"/>
				<path d="M39.1,110.2v-2.5h0.7v2.6c0,0.6,0.2,1.3,0.9,1.3c0.7,0,1.3-0.6,1.3-1.5v-2.4h0.7v4.4H42v-0.7c-0.2,0.4-0.7,0.8-1.4,0.8
					C39.5,112.1,39.1,111.3,39.1,110.2z"/>
				<path d="M43.7,110.8c0-0.9,0.7-1.3,1.9-1.3h1c0-0.8-0.3-1.4-1.1-1.4c-0.6,0-1,0.4-1.2,0.7l-0.5-0.4c0.4-0.5,0.9-0.9,1.7-0.9
					c1.1,0,1.7,0.7,1.7,1.8v2.7h-0.6l0-0.8c-0.3,0.7-0.9,0.9-1.5,0.9C44.3,112.1,43.7,111.6,43.7,110.8z M46.6,110h-0.9
					c-0.9,0-1.3,0.2-1.3,0.8c0,0.5,0.4,0.7,0.8,0.7C46.1,111.5,46.6,110.7,46.6,110z"/>
				<path d="M51.6,108.2l-2.6,3.3h2.6v0.6h-3.5v-0.5l2.7-3.4h-2.6v-0.5h3.3V108.2z"/>
				<path d="M52.6,105.8h0.7v0.8h-0.7V105.8z M52.7,107.6h0.7v4.4h-0.7V107.6z"/>
				<path d="M54.5,109.8c0-1.2,0.8-2.3,2.1-2.3c1.2,0,2.1,1,2.1,2.3c0,1.3-0.9,2.3-2.1,2.3C55.3,112.1,54.5,111,54.5,109.8z
					 M58,109.8c0-0.9-0.4-1.7-1.4-1.7s-1.4,0.9-1.4,1.7c0,0.9,0.4,1.7,1.4,1.7C57.5,111.5,58,110.7,58,109.8z"/>
				<path d="M59.7,107.6h0.7v0.8c0.3-0.5,0.8-0.8,1.4-0.8c1,0,1.5,0.8,1.5,1.8v2.7h-0.7v-2.6c0-0.6-0.2-1.3-1-1.3
					c-0.7,0-1.2,0.5-1.2,1.6v2.3h-0.7V107.6z"/>
				<path d="M64.3,109.8c0-1.2,0.6-2.3,1.9-2.3c1.4,0,1.9,1.1,1.9,2.1c0,0.1,0,0.3,0,0.3H65c0,0.8,0.4,1.5,1.3,1.5
					c0.5,0,0.9-0.1,1.2-0.5l0.4,0.4c-0.5,0.5-1,0.7-1.7,0.7C65,112.1,64.3,111,64.3,109.8z M67.5,109.5c0-0.7-0.3-1.4-1.2-1.4
					c-0.8,0-1.2,0.7-1.2,1.4H67.5z"/>
			</g>
			<path id="Path_48-3" class="st6" d="M5.3,123h9.4c2.8-0.1,5.2,2.2,5.3,5c-0.1,2.8-2.5,5.1-5.3,5H5.3c-2.8,0.1-5.2-2.2-5.3-5
				C0.1,125.2,2.5,122.9,5.3,123z"/>
			<g class="st1">
				<path d="M29.8,129.4l0.7-0.2c0.1,0.8,0.8,1.2,1.5,1.2c0.7,0,1.3-0.4,1.3-1.1c0-1.6-3-1.2-3-3.1c0-1,0.8-1.6,1.7-1.6
					c0.7,0,1.3,0.3,1.7,1l-0.5,0.4c-0.3-0.5-0.7-0.7-1.2-0.7c-0.5,0-1,0.3-1,0.9c0,1.4,3,1.1,3,3.1c0,1.1-0.8,1.8-1.9,1.8
					C31,131.1,30,130.5,29.8,129.4z"/>
				<path d="M35.2,129.8v-2.7h-0.7v-0.5h0.7v-1l0.7-0.6v1.6H37v0.5h-1.1v2.7c0,0.5,0.2,0.7,0.6,0.7c0.1,0,0.3,0,0.4-0.1v0.6
					c-0.1,0-0.3,0.1-0.6,0.1C35.5,131.1,35.2,130.6,35.2,129.8z"/>
				<path d="M37.6,129.8c0-0.9,0.7-1.3,1.9-1.3h1c0-0.8-0.3-1.4-1.1-1.4c-0.6,0-1,0.4-1.2,0.7l-0.5-0.4c0.4-0.5,0.9-0.9,1.7-0.9
					c1.1,0,1.7,0.7,1.7,1.8v2.7h-0.6l0-0.8c-0.3,0.7-0.9,0.9-1.5,0.9C38.2,131.1,37.6,130.6,37.6,129.8z M40.5,129h-0.9
					c-0.9,0-1.3,0.2-1.3,0.8c0,0.5,0.4,0.7,0.8,0.7C40,130.5,40.5,129.7,40.5,129z"/>
				<path d="M42.7,129.8v-2.7H42v-0.5h0.7v-1l0.7-0.6v1.6h1.1v0.5h-1.1v2.7c0,0.5,0.2,0.7,0.6,0.7c0.1,0,0.3,0,0.4-0.1v0.6
					c-0.1,0-0.3,0.1-0.6,0.1C42.9,131.1,42.7,130.6,42.7,129.8z"/>
				<path d="M45.1,128.8c0-1.2,0.8-2.3,2.1-2.3c1.2,0,2.1,1,2.1,2.3c0,1.3-0.9,2.3-2.1,2.3C45.9,131.1,45.1,130,45.1,128.8z
					 M48.6,128.8c0-0.9-0.4-1.7-1.4-1.7s-1.4,0.9-1.4,1.7c0,0.9,0.4,1.7,1.4,1.7C48.1,130.5,48.6,129.7,48.6,128.8z"/>
				<path d="M52.4,128.8c0-1.2,0.6-2.3,1.9-2.3c1.4,0,1.9,1.1,1.9,2.1c0,0.1,0,0.3,0,0.3h-3.1c0,0.8,0.4,1.5,1.3,1.5
					c0.5,0,0.9-0.1,1.2-0.5l0.4,0.4c-0.5,0.5-1,0.7-1.7,0.7C53,131.1,52.4,130,52.4,128.8z M55.5,128.5c0-0.7-0.3-1.4-1.2-1.4
					c-0.8,0-1.2,0.7-1.2,1.4H55.5z"/>
				<path d="M57,129.2v-2.5h0.7v2.6c0,0.6,0.2,1.3,0.9,1.3c0.7,0,1.3-0.6,1.3-1.5v-2.4h0.7v4.4h-0.7v-0.7c-0.2,0.4-0.7,0.8-1.4,0.8
					C57.5,131.1,57,130.3,57,129.2z"/>
				<path d="M62.3,127.1h-0.8v-0.5h0.8v-0.7c0-0.8,0.5-1.2,1.2-1.2c0.3,0,0.5,0.1,0.7,0.2l-0.2,0.5c-0.2-0.1-0.4-0.1-0.5-0.1
					c-0.3,0-0.6,0.2-0.6,0.7v0.7h1.3v0.5h-1.3v3.9h-0.7V127.1z"/>
				<path d="M64.5,128.8c0-1.2,0.8-2.3,2.1-2.3c1.2,0,2.1,1,2.1,2.3c0,1.3-0.9,2.3-2.1,2.3C65.4,131.1,64.5,130,64.5,128.8z
					 M68,128.8c0-0.9-0.4-1.7-1.4-1.7s-1.4,0.9-1.4,1.7c0,0.9,0.4,1.7,1.4,1.7C67.6,130.5,68,129.7,68,128.8z"/>
				<path d="M69.8,126.6h0.7v0.8c0.2-0.5,0.7-0.9,1.3-0.9c0.3,0,0.5,0.1,0.7,0.2l-0.3,0.6c-0.1-0.1-0.3-0.2-0.5-0.2
					c-0.7,0-1.2,0.6-1.2,1.7v2.2h-0.6V126.6z"/>
				<path d="M73.3,124.8H74v0.8h-0.7V124.8z M73.3,126.6H74v4.4h-0.7V126.6z"/>
				<path d="M75.1,128.8c0-1.2,0.6-2.3,1.9-2.3c0.8,0,1.4,0.4,1.7,1.2l-0.6,0.3c-0.1-0.5-0.6-0.9-1.1-0.9c-0.9,0-1.2,0.9-1.2,1.7
					c0,0.8,0.3,1.7,1.2,1.7c0.5,0,1-0.3,1.1-0.9l0.6,0.2c-0.3,0.7-0.9,1.2-1.7,1.2C75.8,131.1,75.1,130,75.1,128.8z"/>
				<path d="M79.3,128.8c0-1.2,0.8-2.3,2.1-2.3c1.2,0,2.1,1,2.1,2.3c0,1.3-0.9,2.3-2.1,2.3C80.2,131.1,79.3,130,79.3,128.8z
					 M82.8,128.8c0-0.9-0.4-1.7-1.4-1.7s-1.4,0.9-1.4,1.7c0,0.9,0.4,1.7,1.4,1.7C82.4,130.5,82.8,129.7,82.8,128.8z"/>
			</g>
			<path id="Path_48-4" class="st7" d="M5.3,142h9.4c2.8-0.1,5.2,2.2,5.3,5c-0.1,2.8-2.5,5.1-5.3,5H5.3c-2.8,0.1-5.2-2.2-5.3-5
				C0.1,144.2,2.5,141.9,5.3,142z"/>
			<g class="st1">
				<path d="M29.8,148.4l0.7-0.2c0.1,0.8,0.8,1.2,1.5,1.2c0.7,0,1.3-0.4,1.3-1.1c0-1.6-3-1.2-3-3.1c0-1,0.8-1.6,1.7-1.6
					c0.7,0,1.3,0.3,1.7,1l-0.5,0.4c-0.3-0.5-0.7-0.7-1.2-0.7c-0.5,0-1,0.3-1,0.9c0,1.4,3,1.1,3,3.1c0,1.1-0.8,1.8-1.9,1.8
					C31,150.1,30,149.5,29.8,148.4z"/>
				<path d="M35.2,148.8v-2.7h-0.7v-0.5h0.7v-1l0.7-0.6v1.6H37v0.5h-1.1v2.7c0,0.5,0.2,0.7,0.6,0.7c0.1,0,0.3,0,0.4-0.1v0.6
					c-0.1,0-0.3,0.1-0.6,0.1C35.5,150.1,35.2,149.6,35.2,148.8z"/>
				<path d="M37.6,148.8c0-0.9,0.7-1.3,1.9-1.3h1c0-0.8-0.3-1.4-1.1-1.4c-0.6,0-1,0.4-1.2,0.7l-0.5-0.4c0.4-0.5,0.9-0.9,1.7-0.9
					c1.1,0,1.7,0.7,1.7,1.8v2.7h-0.6l0-0.8c-0.3,0.7-0.9,0.9-1.5,0.9C38.2,150.1,37.6,149.6,37.6,148.8z M40.5,148h-0.9
					c-0.9,0-1.3,0.2-1.3,0.8c0,0.5,0.4,0.7,0.8,0.7C40,149.5,40.5,148.7,40.5,148z"/>
				<path d="M42.7,148.8v-2.7H42v-0.5h0.7v-1l0.7-0.6v1.6h1.1v0.5h-1.1v2.7c0,0.5,0.2,0.7,0.6,0.7c0.1,0,0.3,0,0.4-0.1v0.6
					c-0.1,0-0.3,0.1-0.6,0.1C42.9,150.1,42.7,149.6,42.7,148.8z"/>
				<path d="M45.1,147.8c0-1.2,0.8-2.3,2.1-2.3c1.2,0,2.1,1,2.1,2.3c0,1.3-0.9,2.3-2.1,2.3C45.9,150.1,45.1,149,45.1,147.8z
					 M48.6,147.8c0-0.9-0.4-1.7-1.4-1.7s-1.4,0.9-1.4,1.7c0,0.9,0.4,1.7,1.4,1.7C48.1,149.5,48.6,148.7,48.6,147.8z"/>
				<path d="M56.2,143.8v6.2h-0.6l0-0.6c-0.3,0.4-0.7,0.7-1.4,0.7c-1.1,0-1.8-1-1.8-2.3c0-1.3,0.6-2.3,1.8-2.3
					c0.6,0,1.1,0.3,1.4,0.7v-2.4H56.2z M55.6,147.8c0-0.9-0.4-1.7-1.3-1.7c-0.9,0-1.3,0.8-1.3,1.7c0,0.9,0.4,1.7,1.3,1.7
					C55.2,149.5,55.6,148.7,55.6,147.8z"/>
				<path d="M57.6,143.8h0.7v0.8h-0.7V143.8z M57.7,145.6h0.7v4.4h-0.7V145.6z"/>
				<path d="M59.4,149l0.6-0.3c0.2,0.5,0.5,0.8,1.1,0.8c0.5,0,0.9-0.3,0.9-0.7c0-1.2-2.3-0.6-2.3-2.1c0-0.8,0.6-1.2,1.4-1.2
					c0.7,0,1.2,0.4,1.4,0.9l-0.5,0.3c-0.2-0.4-0.5-0.6-1-0.6c-0.5,0-0.8,0.2-0.8,0.6c0,1,2.4,0.5,2.4,2.1c0,0.9-0.7,1.3-1.5,1.3
					C60.2,150.1,59.6,149.6,59.4,149z"/>
				<path d="M63.8,146.1H63v-0.5h0.8v-0.7c0-0.8,0.5-1.2,1.2-1.2c0.3,0,0.5,0.1,0.7,0.2l-0.2,0.5c-0.2-0.1-0.4-0.1-0.5-0.1
					c-0.3,0-0.6,0.2-0.6,0.7v0.7h1.3v0.5h-1.3v3.9h-0.7V146.1z"/>
				<path d="M66.1,147.8c0-1.2,0.8-2.3,2.1-2.3c1.2,0,2.1,1,2.1,2.3c0,1.3-0.9,2.3-2.1,2.3C66.9,150.1,66.1,149,66.1,147.8z
					 M69.6,147.8c0-0.9-0.4-1.7-1.4-1.7s-1.4,0.9-1.4,1.7c0,0.9,0.4,1.7,1.4,1.7C69.2,149.5,69.6,148.7,69.6,147.8z"/>
				<path d="M71.4,145.6H72v0.8c0.2-0.5,0.7-0.9,1.3-0.9c0.3,0,0.5,0.1,0.7,0.2l-0.3,0.6c-0.1-0.1-0.3-0.2-0.5-0.2
					c-0.7,0-1.2,0.6-1.2,1.7v2.2h-0.6V145.6z"/>
				<path d="M74.8,143.8h0.7v0.8h-0.7V143.8z M74.9,145.6h0.7v4.4h-0.7V145.6z"/>
				<path d="M76.7,147.8c0-1.2,0.6-2.3,1.9-2.3c0.8,0,1.4,0.4,1.7,1.2l-0.6,0.3c-0.1-0.5-0.6-0.9-1.1-0.9c-0.9,0-1.2,0.9-1.2,1.7
					c0,0.8,0.3,1.7,1.2,1.7c0.5,0,1-0.3,1.1-0.9l0.6,0.2c-0.3,0.7-0.9,1.2-1.7,1.2C77.3,150.1,76.7,149,76.7,147.8z"/>
				<path d="M80.9,147.8c0-1.2,0.8-2.3,2.1-2.3c1.2,0,2.1,1,2.1,2.3c0,1.3-0.9,2.3-2.1,2.3C81.7,150.1,80.9,149,80.9,147.8z
					 M84.4,147.8c0-0.9-0.4-1.7-1.4-1.7s-1.4,0.9-1.4,1.7c0,0.9,0.4,1.7,1.4,1.7C84,149.5,84.4,148.7,84.4,147.8z"/>
			</g>
			<path id="Path_48-5" class="st8" d="M5.3,162h9.4c2.8-0.1,5.2,2.2,5.3,5c-0.1,2.8-2.5,5.1-5.3,5H5.3c-2.8,0.1-5.2-2.2-5.3-5
				C0.1,164.2,2.5,161.9,5.3,162z"/>
			<g class="st1">
				<path d="M28.8,168.4l0.7-0.2c0.1,0.8,0.8,1.2,1.5,1.2c0.7,0,1.3-0.4,1.3-1.1c0-1.6-3-1.2-3-3.1c0-1,0.8-1.6,1.7-1.6
					c0.7,0,1.3,0.3,1.7,1l-0.5,0.4c-0.3-0.5-0.7-0.7-1.2-0.7c-0.5,0-1,0.3-1,0.9c0,1.4,3,1.1,3,3.1c0,1.1-0.8,1.8-1.9,1.8
					C30,170.1,29,169.5,28.8,168.4z"/>
				<path d="M34.2,168.8v-2.7h-0.7v-0.5h0.7v-1l0.7-0.6v1.6H36v0.5h-1.1v2.7c0,0.5,0.2,0.7,0.6,0.7c0.1,0,0.3,0,0.4-0.1v0.6
					c-0.1,0-0.3,0.1-0.6,0.1C34.5,170.1,34.2,169.6,34.2,168.8z"/>
				<path d="M36.6,168.8c0-0.9,0.7-1.3,1.9-1.3h1c0-0.8-0.3-1.4-1.1-1.4c-0.6,0-1,0.4-1.2,0.7l-0.5-0.4c0.4-0.5,0.9-0.9,1.7-0.9
					c1.1,0,1.7,0.7,1.7,1.8v2.7h-0.6l0-0.8c-0.3,0.7-0.9,0.9-1.5,0.9C37.2,170.1,36.6,169.6,36.6,168.8z M39.5,168h-0.9
					c-0.9,0-1.3,0.2-1.3,0.8c0,0.5,0.4,0.7,0.8,0.7C39,169.5,39.5,168.7,39.5,168z"/>
				<path d="M41.7,168.8v-2.7H41v-0.5h0.7v-1l0.7-0.6v1.6h1.1v0.5h-1.1v2.7c0,0.5,0.2,0.7,0.6,0.7c0.1,0,0.3,0,0.4-0.1v0.6
					c-0.1,0-0.3,0.1-0.6,0.1C41.9,170.1,41.7,169.6,41.7,168.8z"/>
				<path d="M44.1,167.8c0-1.2,0.8-2.3,2.1-2.3c1.2,0,2.1,1,2.1,2.3c0,1.3-0.9,2.3-2.1,2.3C44.9,170.1,44.1,169,44.1,167.8z
					 M47.6,167.8c0-0.9-0.4-1.7-1.4-1.7s-1.4,0.9-1.4,1.7c0,0.9,0.4,1.7,1.4,1.7C47.1,169.5,47.6,168.7,47.6,167.8z"/>
				<path d="M51.7,165.6h0.7v0.8c0.2-0.5,0.7-0.9,1.3-0.9c0.3,0,0.5,0.1,0.7,0.2l-0.3,0.6c-0.1-0.1-0.3-0.2-0.5-0.2
					c-0.7,0-1.2,0.6-1.2,1.7v2.2h-0.6V165.6z"/>
				<path d="M55.2,163.8h0.7v0.8h-0.7V163.8z M55.2,165.6h0.7v4.4h-0.7V165.6z"/>
				<path d="M59.7,169.1v-4.6c-0.1-0.1-0.3-0.3-0.7-0.3c-0.6,0-0.9,0.2-0.9,0.8v0.6H59v0.5H58v3.9h-0.6v-3.9h-0.6v-0.5h0.7V165
					c0-0.9,0.6-1.3,1.5-1.3c0.3,0,0.8,0.1,1.3,0.6v4.9c0,0.2,0,0.3,0.2,0.3c0.1,0,0.2,0,0.3,0v0.6c0,0-0.2,0.1-0.5,0.1
					C59.8,170.1,59.7,169.6,59.7,169.1z"/>
				<path d="M61.5,167.8c0-1.2,0.6-2.3,1.9-2.3c1.4,0,1.9,1.1,1.9,2.1c0,0.1,0,0.3,0,0.3h-3.1c0,0.8,0.4,1.5,1.3,1.5
					c0.5,0,0.9-0.1,1.2-0.5l0.4,0.4c-0.5,0.5-1,0.7-1.7,0.7C62.1,170.1,61.5,169,61.5,167.8z M64.6,167.5c0-0.7-0.3-1.4-1.2-1.4
					c-0.8,0-1.2,0.7-1.2,1.4H64.6z"/>
				<path d="M65.9,169l0.6-0.3c0.2,0.5,0.5,0.8,1.1,0.8c0.5,0,0.9-0.3,0.9-0.7c0-1.2-2.3-0.6-2.3-2.1c0-0.8,0.6-1.2,1.4-1.2
					c0.7,0,1.2,0.4,1.4,0.9l-0.5,0.3c-0.2-0.4-0.5-0.6-1-0.6c-0.5,0-0.8,0.2-0.8,0.6c0,1,2.4,0.5,2.4,2.1c0,0.9-0.7,1.3-1.5,1.3
					C66.8,170.1,66.1,169.6,65.9,169z"/>
				<path d="M69.8,169l0.6-0.3c0.2,0.5,0.5,0.8,1.1,0.8c0.5,0,0.9-0.3,0.9-0.7c0-1.2-2.3-0.6-2.3-2.1c0-0.8,0.6-1.2,1.4-1.2
					c0.7,0,1.2,0.4,1.4,0.9l-0.5,0.3c-0.2-0.4-0.5-0.6-1-0.6c-0.5,0-0.8,0.2-0.8,0.6c0,1,2.4,0.5,2.4,2.1c0,0.9-0.7,1.3-1.5,1.3
					C70.6,170.1,70,169.6,69.8,169z"/>
				<path d="M73.9,163.8h0.7v0.8h-0.7V163.8z M74,165.6h0.7v4.4H74V165.6z"/>
				<path d="M75.6,165.6h0.7l1.2,3.5l1.2-3.5h0.7l-1.6,4.4h-0.6L75.6,165.6z"/>
				<path d="M79.8,167.8c0-1.2,0.8-2.3,2.1-2.3c1.2,0,2.1,1,2.1,2.3c0,1.3-0.9,2.3-2.1,2.3C80.6,170.1,79.8,169,79.8,167.8z
					 M83.3,167.8c0-0.9-0.4-1.7-1.4-1.7s-1.4,0.9-1.4,1.7c0,0.9,0.4,1.7,1.4,1.7C82.9,169.5,83.3,168.7,83.3,167.8z"/>
			</g>
			<path id="Path_48-6" class="st9" d="M5.3,181h9.4c2.8-0.1,5.2,2.2,5.3,5c-0.1,2.8-2.5,5.1-5.3,5H5.3c-2.8,0.1-5.2-2.2-5.3-5
				C0.1,183.2,2.5,180.9,5.3,181z"/>
			<g class="st1">
				<path d="M28.8,187.4l0.7-0.2c0.1,0.8,0.8,1.2,1.5,1.2c0.7,0,1.3-0.4,1.3-1.1c0-1.6-3-1.2-3-3.1c0-1,0.8-1.6,1.7-1.6
					c0.7,0,1.3,0.3,1.7,1l-0.5,0.4c-0.3-0.5-0.7-0.7-1.2-0.7c-0.5,0-1,0.3-1,0.9c0,1.4,3,1.1,3,3.1c0,1.1-0.8,1.8-1.9,1.8
					C30,189.1,29,188.5,28.8,187.4z"/>
				<path d="M34.2,187.8v-2.7h-0.7v-0.5h0.7v-1l0.7-0.6v1.6H36v0.5h-1.1v2.7c0,0.5,0.2,0.7,0.6,0.7c0.1,0,0.3,0,0.4-0.1v0.6
					c-0.1,0-0.3,0.1-0.6,0.1C34.5,189.1,34.2,188.6,34.2,187.8z"/>
				<path d="M36.6,187.8c0-0.9,0.7-1.3,1.9-1.3h1c0-0.8-0.3-1.4-1.1-1.4c-0.6,0-1,0.4-1.2,0.7l-0.5-0.4c0.4-0.5,0.9-0.9,1.7-0.9
					c1.1,0,1.7,0.7,1.7,1.8v2.7h-0.6l0-0.8c-0.3,0.7-0.9,0.9-1.5,0.9C37.2,189.1,36.6,188.6,36.6,187.8z M39.5,187h-0.9
					c-0.9,0-1.3,0.2-1.3,0.8c0,0.5,0.4,0.7,0.8,0.7C39,188.5,39.5,187.7,39.5,187z"/>
				<path d="M41.7,187.8v-2.7H41v-0.5h0.7v-1l0.7-0.6v1.6h1.1v0.5h-1.1v2.7c0,0.5,0.2,0.7,0.6,0.7c0.1,0,0.3,0,0.4-0.1v0.6
					c-0.1,0-0.3,0.1-0.6,0.1C41.9,189.1,41.7,188.6,41.7,187.8z"/>
				<path d="M44.1,186.8c0-1.2,0.8-2.3,2.1-2.3c1.2,0,2.1,1,2.1,2.3c0,1.3-0.9,2.3-2.1,2.3C44.9,189.1,44.1,188,44.1,186.8z
					 M47.6,186.8c0-0.9-0.4-1.7-1.4-1.7s-1.4,0.9-1.4,1.7c0,0.9,0.4,1.7,1.4,1.7C47.1,188.5,47.6,187.7,47.6,186.8z"/>
				<path d="M51.3,188l0.6-0.3c0.2,0.5,0.5,0.8,1.1,0.8c0.5,0,0.9-0.3,0.9-0.7c0-1.2-2.3-0.6-2.3-2.1c0-0.8,0.6-1.2,1.4-1.2
					c0.7,0,1.2,0.4,1.4,0.9l-0.5,0.3c-0.2-0.4-0.5-0.6-1-0.6c-0.5,0-0.8,0.2-0.8,0.6c0,1,2.4,0.5,2.4,2.1c0,0.9-0.7,1.3-1.5,1.3
					C52.1,189.1,51.5,188.6,51.3,188z"/>
				<path d="M55.1,186.8c0-1.2,0.8-2.3,2.1-2.3c1.2,0,2.1,1,2.1,2.3c0,1.3-0.9,2.3-2.1,2.3C56,189.1,55.1,188,55.1,186.8z
					 M58.6,186.8c0-0.9-0.4-1.7-1.4-1.7s-1.4,0.9-1.4,1.7c0,0.9,0.4,1.7,1.4,1.7C58.2,188.5,58.6,187.7,58.6,186.8z"/>
				<path d="M60,188l0.6-0.3c0.2,0.5,0.5,0.8,1.1,0.8c0.5,0,0.9-0.3,0.9-0.7c0-1.2-2.3-0.6-2.3-2.1c0-0.8,0.6-1.2,1.4-1.2
					c0.7,0,1.2,0.4,1.4,0.9l-0.5,0.3c-0.2-0.4-0.5-0.6-1-0.6c-0.5,0-0.8,0.2-0.8,0.6c0,1,2.4,0.5,2.4,2.1c0,0.9-0.7,1.3-1.5,1.3
					C60.8,189.1,60.2,188.6,60,188z"/>
				<path d="M64.2,184.6h0.7v0.6c0.3-0.4,0.8-0.7,1.3-0.7c1.2,0,1.8,1,1.8,2.3c0,1.2-0.6,2.3-1.8,2.3c-0.6,0-1-0.2-1.3-0.7v2.5h-0.7
					V184.6z M67.4,186.8c0-0.9-0.4-1.7-1.3-1.7c-0.9,0-1.3,0.8-1.3,1.7c0,0.9,0.4,1.7,1.3,1.7C67,188.5,67.4,187.7,67.4,186.8z"/>
				<path d="M68.9,186.8c0-1.2,0.6-2.3,1.9-2.3c1.4,0,1.9,1.1,1.9,2.1c0,0.1,0,0.3,0,0.3h-3.1c0,0.8,0.4,1.5,1.3,1.5
					c0.5,0,0.9-0.1,1.2-0.5l0.4,0.4c-0.5,0.5-1,0.7-1.7,0.7C69.5,189.1,68.9,188,68.9,186.8z M72,186.5c0-0.7-0.3-1.4-1.2-1.4
					c-0.8,0-1.2,0.7-1.2,1.4H72z"/>
				<path d="M73.3,188l0.6-0.3c0.2,0.5,0.5,0.8,1.1,0.8c0.5,0,0.9-0.3,0.9-0.7c0-1.2-2.3-0.6-2.3-2.1c0-0.8,0.6-1.2,1.4-1.2
					c0.7,0,1.2,0.4,1.4,0.9l-0.5,0.3c-0.2-0.4-0.5-0.6-1-0.6c-0.5,0-0.8,0.2-0.8,0.6c0,1,2.4,0.5,2.4,2.1c0,0.9-0.7,1.3-1.5,1.3
					C74.1,189.1,73.5,188.6,73.3,188z"/>
				<path d="M77.2,186.8c0-1.2,0.8-2.3,2.1-2.3c1.2,0,2.1,1,2.1,2.3c0,1.3-0.9,2.3-2.1,2.3C78,189.1,77.2,188,77.2,186.8z
					 M80.7,186.8c0-0.9-0.4-1.7-1.4-1.7s-1.4,0.9-1.4,1.7c0,0.9,0.4,1.7,1.4,1.7C80.2,188.5,80.7,187.7,80.7,186.8z"/>
			</g>
			<path id="Path_48-7" class="st10" d="M5.3,200h9.4c2.8-0.1,5.2,2.2,5.3,5c-0.1,2.8-2.5,5.1-5.3,5H5.3c-2.8,0.1-5.2-2.2-5.3-5
				C0.1,202.2,2.5,199.9,5.3,200z"/>
			<g class="st1">
				<path d="M29,204.9c0-1.7,0.8-3.2,2.8-3.2c1.1,0,2,0.5,2.5,1.7l-0.6,0.3c-0.3-1-1.1-1.3-1.9-1.3c-1.5,0-2.1,1.2-2.1,2.5
					c0,1.4,0.6,2.6,2.1,2.6c0.8,0,1.5-0.3,1.9-1.3l0.6,0.3c-0.5,1.1-1.3,1.7-2.5,1.7C29.9,208.1,29,206.6,29,204.9z"/>
				<path d="M34.9,205.8c0-1.2,0.8-2.3,2.1-2.3c1.2,0,2.1,1,2.1,2.3c0,1.3-0.9,2.3-2.1,2.3C35.8,208.1,34.9,207,34.9,205.8z
					 M38.4,205.8c0-0.9-0.4-1.7-1.4-1.7s-1.4,0.9-1.4,1.7c0,0.9,0.4,1.7,1.4,1.7C38,207.5,38.4,206.7,38.4,205.8z"/>
				<path d="M40.2,203.6h0.7v0.8c0.2-0.5,0.7-0.9,1.3-0.9c0.3,0,0.5,0.1,0.7,0.2l-0.3,0.6c-0.1-0.1-0.3-0.2-0.5-0.2
					c-0.7,0-1.2,0.6-1.2,1.7v2.2h-0.6V203.6z"/>
				<path d="M43.7,203.6h0.7v0.8c0.3-0.5,0.8-0.8,1.4-0.8c1,0,1.5,0.8,1.5,1.8v2.7h-0.7v-2.6c0-0.6-0.2-1.3-1-1.3
					c-0.7,0-1.2,0.5-1.2,1.6v2.3h-0.7V203.6z"/>
				<path d="M48.6,201.8h0.7v0.8h-0.7V201.8z M48.6,203.6h0.7v4.4h-0.7V203.6z"/>
				<path d="M50.4,205.8c0-1.2,0.6-2.3,1.9-2.3c0.8,0,1.4,0.4,1.7,1.2l-0.6,0.3c-0.1-0.5-0.6-0.9-1.1-0.9c-0.9,0-1.2,0.9-1.2,1.7
					c0,0.8,0.3,1.7,1.2,1.7c0.5,0,1-0.3,1.1-0.9l0.6,0.2c-0.3,0.7-0.9,1.2-1.7,1.2C51.1,208.1,50.4,207,50.4,205.8z"/>
				<path d="M54.7,205.8c0-1.2,0.6-2.3,1.9-2.3c1.4,0,1.9,1.1,1.9,2.1c0,0.1,0,0.3,0,0.3h-3.1c0,0.8,0.4,1.5,1.3,1.5
					c0.5,0,0.9-0.1,1.2-0.5l0.4,0.4c-0.5,0.5-1,0.7-1.7,0.7C55.3,208.1,54.7,207,54.7,205.8z M57.8,205.5c0-0.7-0.3-1.4-1.2-1.4
					c-0.8,0-1.2,0.7-1.2,1.4H57.8z"/>
			</g>
			<g class="st1">
				<path d="M29.9,86.8h0.7V93h-0.7V86.8z"/>
				<path d="M32.3,88.6H33v0.8c0.3-0.5,0.8-0.8,1.4-0.8c1,0,1.5,0.8,1.5,1.8V93h-0.7v-2.6c0-0.6-0.2-1.3-1-1.3
					c-0.7,0-1.2,0.5-1.2,1.6V93h-0.7V88.6z"/>
				<path d="M37.4,91.8v-2.7h-0.7v-0.5h0.7v-1L38,87v1.6h1.1v0.5H38v2.7c0,0.5,0.2,0.7,0.6,0.7c0.1,0,0.3,0,0.4-0.1V93
					c-0.1,0-0.3,0.1-0.6,0.1C37.7,93.1,37.4,92.6,37.4,91.8z"/>
				<path d="M39.8,90.8c0-1.2,0.6-2.3,1.9-2.3c1.4,0,1.9,1.1,1.9,2.1c0,0.1,0,0.3,0,0.3h-3.1c0,0.8,0.4,1.5,1.3,1.5
					c0.5,0,0.9-0.1,1.2-0.5l0.4,0.4c-0.5,0.5-1,0.7-1.7,0.7C40.4,93.1,39.8,92,39.8,90.8z M42.9,90.5c0-0.7-0.3-1.4-1.2-1.4
					c-0.8,0-1.2,0.7-1.2,1.4H42.9z"/>
				<path d="M44.7,88.6h0.7v0.8c0.3-0.5,0.8-0.8,1.4-0.8c1,0,1.5,0.8,1.5,1.8V93h-0.7v-2.6c0-0.6-0.2-1.3-1-1.3
					c-0.7,0-1.2,0.5-1.2,1.6V93h-0.7V88.6z"/>
				<path d="M52.6,89.2L50,92.4h2.6V93h-3.5v-0.5l2.7-3.4h-2.6v-0.5h3.3V89.2z"/>
				<path d="M53.7,86.8h0.7v0.8h-0.7V86.8z M53.7,88.6h0.7V93h-0.7V88.6z"/>
				<path d="M55.5,90.8c0-1.2,0.8-2.3,2.1-2.3c1.2,0,2.1,1,2.1,2.3c0,1.3-0.9,2.3-2.1,2.3C56.3,93.1,55.5,92,55.5,90.8z M59,90.8
					c0-0.9-0.4-1.7-1.4-1.7s-1.4,0.9-1.4,1.7c0,0.9,0.4,1.7,1.4,1.7C58.5,92.5,59,91.7,59,90.8z"/>
				<path d="M60.8,88.6h0.7v0.8c0.3-0.5,0.8-0.8,1.4-0.8c1,0,1.5,0.8,1.5,1.8V93h-0.7v-2.6c0-0.6-0.2-1.3-1-1.3
					c-0.7,0-1.2,0.5-1.2,1.6V93h-0.7V88.6z"/>
				<path d="M65.3,90.8c0-1.2,0.6-2.3,1.9-2.3c1.4,0,1.9,1.1,1.9,2.1c0,0.1,0,0.3,0,0.3H66c0,0.8,0.4,1.5,1.3,1.5
					c0.5,0,0.9-0.1,1.2-0.5l0.4,0.4c-0.5,0.5-1,0.7-1.7,0.7C66,93.1,65.3,92,65.3,90.8z M68.5,90.5c0-0.7-0.3-1.4-1.2-1.4
					c-0.8,0-1.2,0.7-1.2,1.4H68.5z"/>
			</g>
			<path id="Path_46" class="st11" d="M5.3,85h9.4c2.8-0.1,5.2,2.2,5.3,5c-0.1,2.8-2.5,5.1-5.3,5H5.3c-2.8,0.1-5.2-2.2-5.3-5
				C0.1,87.2,2.5,84.9,5.3,85z"/>
		</g>
		<g class="st1">
			<path d="M3.5,2.7H1.2l0.2-0.6h5.4L6.6,2.7H4.3L2.8,9H2.1L3.5,2.7z"/>
			<path d="M7.2,4.1H8L6.8,9H6.1L7.2,4.1z M7.7,2.1h0.8L8.3,3H7.4L7.7,2.1z"/>
			<path d="M9.6,4.1h0.7l-0.2,0.6c0.4-0.4,1-0.7,1.6-0.7c1.3,0,1.8,1.2,1.4,2.6C12.9,8,12,9.1,10.8,9.1c-0.7,0-1.2-0.3-1.4-0.8
				l-0.7,2.8H8L9.6,4.1z M12.6,6.5c0.2-1,0-1.8-0.9-1.8c-1,0-1.7,0.9-1.9,2c-0.2,1,0,1.8,0.9,1.8C11.7,8.5,12.3,7.5,12.6,6.5z"/>
			<path d="M14.2,6.5c0.3-1.4,1.5-2.5,2.8-2.5c1.4,0,2.1,1.2,1.8,2.6c-0.3,1.4-1.5,2.4-2.8,2.4C14.5,9.1,13.8,7.9,14.2,6.5z M18,6.5
				c0.2-0.9,0-1.8-1-1.8c-1.1,0-1.8,0.9-2,1.9c-0.2,0.9,0,1.8,1,1.8C17.1,8.5,17.7,7.5,18,6.5z"/>
			<path d="M27.6,2.1L26,9h-0.7l0.1-0.6c-0.4,0.4-0.9,0.7-1.6,0.7c-1.3,0-1.7-1.2-1.4-2.6C22.7,5.1,23.6,4,24.9,4
				c0.7,0,1.2,0.3,1.4,0.8l0.6-2.7H27.6z M25,4.7c-1,0-1.7,0.9-1.9,1.9c-0.2,1,0,1.8,0.9,1.8c1,0,1.7-0.9,1.9-1.9
				C26.1,5.5,26,4.7,25,4.7z"/>
			<path d="M28.8,4.1h0.7L28.4,9h-0.7L28.8,4.1z M29.2,2.1h0.8L29.8,3H29L29.2,2.1z"/>
			<path d="M32.6,7.9l0.7-0.2c0,0.5,0.5,0.8,1.1,0.8c0.7,0,1.1-0.5,1.1-0.9c0-1.1-2.2-0.4-2.2-2C33.3,4.6,34,4,35,4
				c0.9,0,1.4,0.5,1.6,1l-0.6,0.3c-0.1-0.4-0.5-0.6-1-0.6c-0.5,0-1,0.3-1,0.8c0,1.1,2.2,0.4,2.2,2c0,0.8-0.8,1.6-1.9,1.6
				C33.3,9.1,32.7,8.5,32.6,7.9z"/>
			<path d="M37.2,6.5c0.3-1.3,1.2-2.5,2.6-2.5c1.6,0,1.8,1.3,1.5,2.6c0,0,0,0.1,0,0.2h-3.4c-0.2,0.9,0.1,1.6,1,1.6
				c0.6,0,1.1-0.1,1.5-0.5l0.4,0.4c-0.7,0.5-1.3,0.7-2,0.7C37.4,9.1,36.9,7.9,37.2,6.5z M40.7,6.2c0.2-1-0.1-1.5-1-1.5
				c-0.9,0-1.5,0.7-1.8,1.5H40.7z"/>
			<path d="M45.3,8.4c-0.4,0.4-0.9,0.7-1.7,0.7c-1.3,0-1.7-1.2-1.4-2.6C42.6,5.1,43.5,4,44.7,4c0.7,0,1.2,0.3,1.4,0.8l0.2-0.7H47
				l-1.6,7h-0.7L45.3,8.4z M45.8,6.5c0.2-1,0.1-1.8-0.9-1.8c-1,0-1.7,0.9-1.9,2c-0.2,1,0,1.8,0.9,1.8C44.9,8.5,45.6,7.5,45.8,6.5z"
				/>
			<path d="M47.9,7l0.7-2.9h0.7l-0.7,3c-0.2,0.7-0.2,1.4,0.6,1.4c0.8,0,1.7-0.7,1.9-1.7l0.6-2.7h0.7L51.3,9h-0.7l0.2-0.8
				c-0.3,0.4-1,0.9-1.7,0.9C47.9,9.1,47.6,8.1,47.9,7z"/>
			<path d="M53.1,6.5c0.3-1.3,1.2-2.5,2.6-2.5c1.6,0,1.8,1.3,1.5,2.6c0,0,0,0.1,0,0.2h-3.4c-0.2,0.9,0.1,1.6,1,1.6
				c0.6,0,1.1-0.1,1.5-0.5l0.4,0.4c-0.7,0.5-1.3,0.7-2,0.7C53.3,9.1,52.8,7.9,53.1,6.5z M56.7,6.2c0.2-1-0.1-1.5-1-1.5
				c-0.9,0-1.5,0.7-1.8,1.5H56.7z"/>
			<path d="M59.1,4.1h0.7l-0.2,0.7C60.1,4.3,60.8,4,61.4,4c1.2,0,1.5,0.9,1.3,2L62,9h-0.7l0.7-2.9C62,5.4,62,4.7,61.2,4.7
				s-1.7,0.7-1.8,1.5L58.7,9H58L59.1,4.1z"/>
			<path d="M67.8,4.7L64,8.4H67L66.8,9H63l0.1-0.6l3.8-3.7h-2.8l0.1-0.6h3.7L67.8,4.7z"/>
			<path d="M73,4.1L71.9,9h-0.7l0.1-0.6c-0.4,0.4-0.9,0.7-1.6,0.7c-1.3,0-1.7-1.2-1.4-2.6C68.6,5.1,69.5,4,70.7,4
				c0.7,0,1.2,0.3,1.4,0.8l0.2-0.7H73z M70.9,4.7c-1,0-1.7,0.9-1.9,1.9c-0.2,1,0,1.8,0.9,1.8c1,0,1.7-0.9,1.9-1.9
				C72,5.5,71.8,4.7,70.9,4.7z"/>
		</g>
	</g>
</g>
</svg>
