<svg xmlns="http://www.w3.org/2000/svg" xmlns:xlink="http://www.w3.org/1999/xlink" width="750" height="395" viewBox="0 0 750 395"><defs><clipPath id="b"><rect width="750" height="395"/></clipPath></defs><g id="a" clip-path="url(#b)"><g transform="translate(0 2)"><text transform="translate(0 -2)" font-size="14" font-family="HKGrotesk-Medium, HK Grotesk" font-weight="500"><tspan x="0" y="13">Le Cosmicomiche</tspan></text><text transform="translate(464)" font-size="14" font-family="HKGrotesk-Medium, HK Grotesk" font-weight="500"><tspan x="0" y="13">La nuvola di smog e La formica argentina</tspan></text><g transform="translate(0 35.861)"><g transform="translate(284.314 280.108)"><rect width="95.2" height="8.906" fill="aqua" stroke="#fff" stroke-width="0.2"/><rect width="95.2" height="0.975" transform="translate(0 8.908)" fill="#8131f4" stroke="#fff" stroke-width="0.2"/><rect width="95.2" height="2.754" transform="translate(0 9.885)" fill="blue" stroke="#fff" stroke-width="0.2"/><rect width="95.2" height="3.597" transform="translate(0 12.641)" fill="#009959" stroke="#fff" stroke-width="0.2"/><rect width="95.2" height="3.346" transform="translate(0 16.24)" fill="#00c19c" stroke="#fff" stroke-width="0.2"/><rect width="95.2" height="8.117" transform="translate(0 19.588)" fill="aqua" stroke="#fff" stroke-width="0.2"/><rect width="95.2" height="9.368" transform="translate(0 27.717)" fill="#00ffb6" stroke="#fff" stroke-width="0.2"/><rect width="95.2" height="4.729" transform="translate(0 37.095)" fill="#6e94f4" stroke="#fff" stroke-width="0.2"/><rect width="95.2" height="3.489" transform="translate(0 41.826)" fill="#009959" stroke="#fff" stroke-width="0.2"/><rect width="95.2" height="3.025" transform="translate(0 45.316)" fill="blue" stroke="#fff" stroke-width="0.2"/><rect width="95.2" height="4.458" transform="translate(0 48.343)" fill="aqua" stroke="#fff" stroke-width="0.2"/></g><g transform="translate(189.449 0.219)"><rect width="95.2" height="10.506" fill="aqua" stroke="#fff" stroke-width="0.2"/><rect width="95.2" height="3.671" transform="translate(0 10.508)" fill="blue" stroke="#fff" stroke-width="0.2"/><rect width="95.2" height="3.686" transform="translate(0 14.18)" fill="blue" stroke="#fff" stroke-width="0.2"/><rect width="95.2" height="1.234" transform="translate(0 17.869)" fill="blue" stroke="#fff" stroke-width="0.2"/><rect width="95.2" height="4.794" transform="translate(0 19.104)" fill="#5151fc" stroke="#fff" stroke-width="0.2"/><rect width="95.2" height="5.99" transform="translate(0 23.901)" fill="#00c19c" stroke="#fff" stroke-width="0.2"/><rect width="95.2" height="5.077" transform="translate(0 29.892)" fill="#5151fc" stroke="#fff" stroke-width="0.2"/><rect width="95.2" height="1.143" transform="translate(0 34.971)" fill="#8131f4" stroke="#fff" stroke-width="0.2"/><rect width="95.2" height="6.947" transform="translate(0 36.116)" fill="#5151fc" stroke="#fff" stroke-width="0.2"/><rect width="95.2" height="5.293" transform="translate(0 43.065)" fill="#00ffb6" stroke="#fff" stroke-width="0.2"/><rect width="95.2" height="8.653" transform="translate(0 47.59)" fill="#5151fc" stroke="#fff" stroke-width="0.2"/><rect width="95.2" height="4.315" transform="translate(0 56.873)" fill="aqua" stroke="#fff" stroke-width="0.2"/><rect width="95.2" height="9.165" transform="translate(0 51.994)" fill="#8131f4" stroke="#fff" stroke-width="0.2"/><rect width="95.2" height="7.87" transform="translate(0 59.716)" fill="#5151fc" stroke="#fff" stroke-width="0.2"/><rect width="95.2" height="5.406" transform="translate(0 66.409)" fill="#5151fc" stroke="#fff" stroke-width="0.2"/><rect width="95.2" height="3.27" transform="translate(0 53.673)" fill="aqua" stroke="#fff" stroke-width="0.2"/><rect width="95.2" height="3.971" transform="translate(0 55.698)" fill="#5151fc" stroke="#fff" stroke-width="0.2"/><rect width="95.2" height="0.758" transform="translate(0 58.465)" fill="#8ae297" stroke="#fff" stroke-width="0.2"/><rect width="95.2" height="2.112" transform="translate(0 58.845)" fill="aqua" stroke="#fff" stroke-width="0.2"/><rect width="95.2" height="5.974" transform="translate(0 60.08)" fill="aqua" stroke="#fff" stroke-width="0.2"/><rect width="95.2" height="2.042" transform="translate(0 64.195)" fill="#00ffb6" stroke="#fff" stroke-width="0.2"/><rect width="95.2" height="8.063" transform="translate(0 64.969)" fill="#00c19c" stroke="#fff" stroke-width="0.2"/><rect width="95.2" height="1.41" transform="translate(0 70.682)" fill="#8131f4" stroke="#fff" stroke-width="0.2"/><rect width="95.2" height="2.172" transform="translate(0 71.509)" fill="blue" stroke="#fff" stroke-width="0.2"/><rect width="95.2" height="2.303" transform="translate(0 72.878)" fill="blue" stroke="#fff" stroke-width="0.2"/><rect width="95.2" height="4.916" transform="translate(0 74.086)" fill="#00c19c" stroke="#fff" stroke-width="0.2"/><rect width="95.2" height="1.24" transform="translate(0 77.578)" fill="#6e94f4" stroke="#fff" stroke-width="0.2"/><rect width="95.2" height="1.599" transform="translate(0 78.332)" fill="#009959" stroke="#fff" stroke-width="0.2"/><rect width="95.2" height="1.888" transform="translate(0 79.321)" fill="aqua" stroke="#fff" stroke-width="0.2"/><rect width="95.2" height="5.264" transform="translate(0 80.162)" fill="#00c19c" stroke="#fff" stroke-width="0.2"/><rect width="95.2" height="5.76" transform="translate(0 83.913)" fill="aqua" stroke="#fff" stroke-width="0.2"/><rect width="95.2" height="4.951" transform="translate(0 87.653)" fill="#009959" stroke="#fff" stroke-width="0.2"/><rect width="95.2" height="2.536" transform="translate(0 91.082)" fill="#009959" stroke="#fff" stroke-width="0.2"/><rect width="95.2" height="4.359" transform="translate(0 92.471)" fill="aqua" stroke="#fff" stroke-width="0.2"/><rect width="95.2" height="4.384" transform="translate(0 95.819)" fill="aqua" stroke="#fff" stroke-width="0.2"/><rect width="95.2" height="2.104" transform="translate(0 98.897)" fill="#5151fc" stroke="#fff" stroke-width="0.2"/><rect width="95.2" height="5.203" transform="translate(0 99.825)" fill="blue" stroke="#fff" stroke-width="0.2"/><rect width="95.2" height="3.1" transform="translate(0 103.41)" fill="aqua" stroke="#fff" stroke-width="0.2"/><rect width="95.2" height="1.975" transform="translate(0 105.536)" fill="#5151fc" stroke="#fff" stroke-width="0.2"/><rect width="95.2" height="2.261" transform="translate(0 106.753)" fill="#5151fc" stroke="#fff" stroke-width="0.2"/><rect width="95.2" height="1.195" transform="translate(0 108.343)" fill="blue" stroke="#fff" stroke-width="0.2"/><rect width="95.2" height="5.435" transform="translate(0 108.494)" fill="aqua" stroke="#fff" stroke-width="0.2"/><rect width="95.2" height="1.149" transform="translate(0 112.573)" fill="#5151fc" stroke="#fff" stroke-width="0.2"/><rect width="95.2" height="2.971" transform="translate(0 113.034)" fill="#5151fc" stroke="#fff" stroke-width="0.2"/><rect width="95.2" height="2.708" transform="translate(0 114.962)" fill="blue" stroke="#fff" stroke-width="0.2"/><rect width="95.2" height="3.214" transform="translate(0 116.606)" fill="#5151fc" stroke="#fff" stroke-width="0.2"/><rect width="95.2" height="3.959" transform="translate(0 119.156)" fill="aqua" stroke="#fff" stroke-width="0.2"/><rect width="95.2" height="1.642" transform="translate(0 122.041)" fill="aqua" stroke="#fff" stroke-width="0.2"/><rect width="95.2" height="2.329" transform="translate(0 122.976)" fill="#8131f4" stroke="#fff" stroke-width="0.2"/><rect width="95.2" height="3.396" transform="translate(0 124.282)" fill="#6e94f4" stroke="#fff" stroke-width="0.2"/><rect width="95.2" height="3.33" transform="translate(0 126.45)" fill="aqua" stroke="#fff" stroke-width="0.2"/><rect width="95.2" height="6.961" transform="translate(0 127.942)" fill="#5151fc" stroke="#fff" stroke-width="0.2"/><rect width="95.2" height="3.721" transform="translate(0 133.201)" fill="aqua" stroke="#fff" stroke-width="0.2"/><rect width="95.2" height="8.657" transform="translate(0 134.665)" fill="blue" stroke="#fff" stroke-width="0.2"/><rect width="95.2" height="3.694" transform="translate(0 141.062)" fill="blue" stroke="#fff" stroke-width="0.2"/><rect width="95.2" height="7.299" transform="translate(0 142.715)" fill="blue" stroke="#fff" stroke-width="0.2"/><rect width="95.2" height="2.327" transform="translate(0 148.308)" fill="#00c19c" stroke="#fff" stroke-width="0.2"/><rect width="95.2" height="7.454" transform="translate(0 148.765)" fill="blue" stroke="#fff" stroke-width="0.2"/><rect width="95.2" height="0.193" transform="translate(0 154.959)" fill="#5151fc" stroke="#fff" stroke-width="0.2"/><rect width="95.2" height="0.76" transform="translate(0 154.969)" fill="#5151fc" stroke="#fff" stroke-width="0.2"/><rect width="95.2" height="2.934" transform="translate(0 155.011)" fill="#00c19c" stroke="#fff" stroke-width="0.2"/><rect width="95.2" height="3.878" transform="translate(0 156.68)" fill="#5151fc" stroke="#fff" stroke-width="0.2"/><rect width="95.2" height="4.928" transform="translate(0 159.647)" fill="aqua" stroke="#fff" stroke-width="0.2"/><rect width="95.2" height="0.435" transform="translate(0 163.738)" fill="aqua" stroke="#fff" stroke-width="0.2"/><rect width="95.2" height="4.402" transform="translate(0 163.162)" fill="blue" stroke="#fff" stroke-width="0.2"/><rect width="95.2" height="0.435" transform="translate(0 166.823)" fill="aqua" stroke="#fff" stroke-width="0.2"/><rect width="95.2" height="2.325" transform="translate(0 166.688)" fill="blue" stroke="#fff" stroke-width="0.2"/><rect width="95.2" height="0.495" transform="translate(0 168.571)" fill="aqua" stroke="#fff" stroke-width="0.2"/><rect width="95.2" height="2.373" transform="translate(0 168.473)" fill="blue" stroke="#fff" stroke-width="0.2"/><rect width="95.2" height="11.15" transform="translate(0 167.977)" fill="#00c19c" stroke="#fff" stroke-width="0.2"/><rect width="95.2" height="2.1" transform="translate(0 177.134)" fill="#8ae297" stroke="#fff" stroke-width="0.2"/><rect width="95.2" height="2.996" transform="translate(0 178.26)" fill="#00c19c" stroke="#fff" stroke-width="0.2"/><rect width="95.2" height="2.936" transform="translate(0 180.663)" fill="aqua" stroke="#fff" stroke-width="0.2"/><rect width="95.2" height="0.371" transform="translate(0 183.144)" fill="aqua" stroke="#fff" stroke-width="0.2"/><rect width="95.2" height="1.955" transform="translate(0 183.003)" fill="blue" stroke="#fff" stroke-width="0.2"/><rect width="95.2" height="2.079" transform="translate(0 184.217)" fill="blue" stroke="#fff" stroke-width="0.2"/><rect width="95.2" height="0.994" transform="translate(0 185.805)" fill="#00c19c" stroke="#fff" stroke-width="0.2"/><rect width="95.2" height="1.478" transform="translate(0 186.321)" fill="blue" stroke="#fff" stroke-width="0.2"/><rect width="95.2" height="5.487" transform="translate(0 186.27)" fill="#00c19c" stroke="#fff" stroke-width="0.2"/><rect width="95.2" height="2.137" transform="translate(0 190.59)" fill="blue" stroke="#fff" stroke-width="0.2"/><rect width="95.2" height="4.102" transform="translate(0 191.452)" fill="blue" stroke="#fff" stroke-width="0.2"/><rect width="95.2" height="2.882" transform="translate(0 194.369)" fill="blue" stroke="#fff" stroke-width="0.2"/><rect width="95.2" height="2.133" transform="translate(0 196.394)" fill="aqua" stroke="#fff" stroke-width="0.2"/><rect width="95.2" height="2.114" transform="translate(0 197.757)" fill="#00c19c" stroke="#fff" stroke-width="0.2"/><rect width="95.2" height="2.443" transform="translate(0 199.016)" fill="blue" stroke="#fff" stroke-width="0.2"/><rect width="95.2" height="2.768" transform="translate(0 200.484)" fill="#8131f4" stroke="#fff" stroke-width="0.2"/><rect width="95.2" height="3.646" transform="translate(0 202.008)" fill="#00c19c" stroke="#fff" stroke-width="0.2"/><rect width="95.2" height="2.035" transform="translate(0 204.758)" fill="#8131f4" stroke="#fff" stroke-width="0.2"/><rect width="95.2" height="1.217" transform="translate(0 206.274)" fill="aqua" stroke="#fff" stroke-width="0.2"/><rect width="95.2" height="2" transform="translate(0 206.837)" fill="blue" stroke="#fff" stroke-width="0.2"/><rect width="95.2" height="2.093" transform="translate(0 208.085)" fill="#8131f4" stroke="#fff" stroke-width="0.2"/><rect width="95.2" height="4.09" transform="translate(0 208.864)" fill="#00c19c" stroke="#fff" stroke-width="0.2"/><rect width="95.2" height="1.57" transform="translate(0 212.164)" fill="aqua" stroke="#fff" stroke-width="0.2"/><rect width="95.2" height="1.694" transform="translate(0 213.13)" fill="blue" stroke="#fff" stroke-width="0.2"/><rect width="95.2" height="1.704" transform="translate(0 214.206)" fill="blue" stroke="#fff" stroke-width="0.2"/><rect width="95.2" height="1.909" transform="translate(0 215.234)" fill="blue" stroke="#fff" stroke-width="0.2"/><rect width="95.2" height="0.617" transform="translate(0 216.815)" fill="aqua" stroke="#fff" stroke-width="0.2"/><rect width="95.2" height="1.066" transform="translate(0 217.082)" fill="blue" stroke="#fff" stroke-width="0.2"/><rect width="95.2" height="2.497" transform="translate(0 217.353)" fill="#5151fc" stroke="#fff" stroke-width="0.2"/><rect width="95.2" height="2.1" transform="translate(0 219.056)" fill="blue" stroke="#fff" stroke-width="0.2"/><rect width="95.2" height="2.303" transform="translate(0 220.578)" fill="aqua" stroke="#fff" stroke-width="0.2"/><rect width="95.2" height="1.261" transform="translate(0 222.348)" fill="blue" stroke="#fff" stroke-width="0.2"/><rect width="95.2" height="2.052" transform="translate(0 205.493)" fill="blue" stroke="#fff" stroke-width="0.2"/><rect width="95.2" height="3.603" transform="translate(0 207.034)" fill="#009959" stroke="#fff" stroke-width="0.2"/><rect width="95.2" height="2.543" transform="translate(0 210.192)" fill="#00c19c" stroke="#fff" stroke-width="0.2"/><rect width="95.2" height="1.273" transform="translate(0 212.486)" fill="#00ffb6" stroke="#fff" stroke-width="0.2"/><rect width="95.2" height="2.835" transform="translate(0 213.367)" fill="blue" stroke="#fff" stroke-width="0.2"/><rect width="95.2" height="7.792" transform="translate(0 215.124)" fill="#00c19c" stroke="#fff" stroke-width="0.2"/><rect width="95.2" height="8.622" transform="translate(0 221.545)" fill="#8131f4" stroke="#fff" stroke-width="0.2"/><rect width="95.2" height="3.067" transform="translate(0 221.556)" fill="blue" stroke="#fff" stroke-width="0.2"/><rect width="95.2" height="3.715" transform="translate(0 223.762)" fill="#8ae297" stroke="#fff" stroke-width="0.2"/><rect width="95.2" height="0.866" transform="translate(0 228.119)" fill="#8131f4" stroke="#fff" stroke-width="0.2"/><rect width="95.2" height="5.197" transform="translate(0 228.987)" fill="#00c19c" stroke="#fff" stroke-width="0.2"/><rect width="95.2" height="2.199" transform="translate(0 234.186)" fill="#6e94f4" stroke="#fff" stroke-width="0.2"/><rect width="95.2" height="2.334" transform="translate(0 236.387)" fill="#009959" stroke="#fff" stroke-width="0.2"/><rect width="95.2" height="8.715" transform="translate(0 238.723)" fill="#00c19c" stroke="#fff" stroke-width="0.2"/><rect width="95.2" height="7.676" transform="translate(0 247.44)" fill="#009959" stroke="#fff" stroke-width="0.2"/><rect width="95.2" height="4.721" transform="translate(0 255.118)" fill="#00c19c" stroke="#fff" stroke-width="0.2"/><rect width="95.2" height="1.311" transform="translate(0 259.841)" fill="#009959" stroke="#fff" stroke-width="0.2"/><rect width="95.2" height="3.017" transform="translate(0 261.154)" fill="#00c19c" stroke="#fff" stroke-width="0.2"/><rect width="95.2" height="0.894" transform="translate(0 264.173)" fill="#009959" stroke="#fff" stroke-width="0.2"/><rect width="95.2" height="4.284" transform="translate(0 265.069)" fill="#00c19c" stroke="#fff" stroke-width="0.2"/><rect width="95.2" height="7.173" transform="translate(0 269.355)" fill="#6e94f4" stroke="#fff" stroke-width="0.2"/><rect width="95.2" height="1.476" transform="translate(0 276.53)" fill="#00c19c" stroke="#fff" stroke-width="0.2"/><rect width="95.2" height="1.035" transform="translate(0 278.008)" fill="#009959" stroke="#fff" stroke-width="0.2"/></g><g transform="translate(94.248 0.219)"><rect width="95.161" height="332.249" transform="translate(0.039)" fill="#fffdd1"/><rect width="94.814" height="0.487" transform="translate(0 38.839)" fill="orange" stroke="#fff" stroke-width="0.2"/><rect width="94.814" height="0.179" transform="translate(0 64.274)" fill="orange" stroke="#fff" stroke-width="0.2"/><rect width="94.814" height="0.474" transform="translate(0 89.404)" fill="orange" stroke="#fff" stroke-width="0.2"/><rect width="94.814" height="0.602" transform="translate(0 101.798)" fill="orange" stroke="#fff" stroke-width="0.2"/><rect width="94.814" height="0.638" transform="translate(0 126.56)" fill="orange" stroke="#fff" stroke-width="0.2"/><rect width="94.814" height="0.276" transform="translate(0 141.835)" fill="orange" stroke="#fff" stroke-width="0.2"/><rect width="94.814" height="0.746" transform="translate(0 169.795)" fill="orange" stroke="#fff" stroke-width="0.2"/><rect width="94.814" height="0.495" transform="translate(0 191.948)" fill="orange" stroke="#fff" stroke-width="0.2"/><rect width="94.814" height="0.227" transform="translate(0 234.475)" fill="orange" stroke="#fff" stroke-width="0.2"/><rect width="94.814" height="0.409" transform="translate(0 261.128)" fill="orange" stroke="#fff" stroke-width="0.2"/><rect width="94.814" height="0.575" transform="translate(0 295.957)" fill="orange" stroke="#fff" stroke-width="0.2"/></g><rect width="95" height="332" transform="translate(0 0.139)" fill="#ffa501" opacity="0.419"/><line y2="332.423" transform="translate(94.781)" fill="none" stroke="#000" stroke-width="1"/><line y2="332.423" transform="translate(189.029)" fill="none" stroke="#000" stroke-width="1"/><line y2="332.423" transform="translate(285.182)" fill="none" stroke="#000" stroke-width="1"/></g><g transform="translate(464 36)"><g transform="translate(95.202 0.08)"><rect width="95.2" height="4.441" fill="#5151fc" stroke="#fff" stroke-width="0.2"/><rect width="95.2" height="6.958" transform="translate(0 4.444)" fill="blue" stroke="#fff" stroke-width="0.2"/><rect width="95.2" height="3.471" transform="translate(0 11.406)" fill="#00c19c" stroke="#fff" stroke-width="0.2"/><rect width="95.2" height="5.922" transform="translate(0 14.88)" fill="#00c19c" stroke="#fff" stroke-width="0.2"/><rect width="95.2" height="9.037" transform="translate(0 31.867)" fill="#00ffb6" stroke="#fff" stroke-width="0.2"/><rect width="95.2" height="18.915" transform="translate(0 40.907)" fill="#00c19c" stroke="#fff" stroke-width="0.2"/><rect width="95.2" height="12.404" transform="translate(0 81.371)" fill="#5151fc" stroke="#fff" stroke-width="0.2"/><rect width="95.2" height="1.663" transform="translate(0 93.711)" fill="blue" stroke="#fff" stroke-width="0.2"/><rect width="95.2" height="5.821" transform="translate(0 95.357)" fill="#5151fc" stroke="#fff" stroke-width="0.2"/><rect width="95.2" height="2.139" transform="translate(0 101.148)" fill="#00c19c" stroke="#fff" stroke-width="0.2"/><rect width="95.2" height="0.107" transform="translate(0 103.279)" fill="blue" stroke="#fff" stroke-width="0.2"/><rect width="95.2" height="3.342" transform="translate(0 103.382)" fill="#6e94f4" stroke="#fff" stroke-width="0.2"/><rect width="95.2" height="5.743" transform="translate(0 78.442)" fill="blue" stroke="#fff" stroke-width="0.2"/><rect width="95.2" height="3.547" transform="translate(0 82.705)" fill="#00c19c" stroke="#fff" stroke-width="0.2"/><rect width="95.2" height="4.725" transform="translate(0 84.745)" fill="blue" stroke="#fff" stroke-width="0.2"/><rect width="95.2" height="3.852" transform="translate(0 87.705)" fill="#00c19c" stroke="#fff" stroke-width="0.2"/><rect width="95.2" height="1.953" transform="translate(0 90.251)" fill="#6e94f4" stroke="#fff" stroke-width="0.2"/><rect width="95.2" height="1.452" transform="translate(0 91.496)" fill="#5151fc" stroke="#fff" stroke-width="0.2"/><rect width="95.2" height="3.131" transform="translate(0 92.199)" fill="#6e94f4" stroke="#fff" stroke-width="0.2"/><rect width="95.2" height="2.498" transform="translate(0 94.176)" fill="blue" stroke="#fff" stroke-width="0.2"/><rect width="95.2" height="10.88" transform="translate(0 94.734)" fill="#00c19c" stroke="#fff" stroke-width="0.2"/><rect width="95.2" height="0.74" transform="translate(0 102.536)" fill="blue" stroke="#fff" stroke-width="0.2"/><rect width="95.2" height="1.619" transform="translate(0 102.883)" fill="blue" stroke="#fff" stroke-width="0.2"/><rect width="95.2" height="1.376" transform="translate(0 103.901)" fill="#00c19c" stroke="#fff" stroke-width="0.2"/><rect width="95.2" height="1.279" transform="translate(0 104.753)" fill="#6e94f4" stroke="#fff" stroke-width="0.2"/><rect width="95.2" height="1.76" transform="translate(0 115.791)" fill="#00c19c" stroke="#fff" stroke-width="0.2"/><rect width="95.2" height="0.495" transform="translate(0 116.312)" fill="#009959" stroke="#fff" stroke-width="0.2"/><rect width="95.2" height="2.816" transform="translate(0 116.297)" fill="#00c19c" stroke="#fff" stroke-width="0.2"/><rect width="95.2" height="4.003" transform="translate(0 117.845)" fill="blue" stroke="#fff" stroke-width="0.2"/><rect width="95.2" height="2.076" transform="translate(0 120.556)" fill="blue" stroke="#fff" stroke-width="0.2"/><rect width="95.2" height="4.136" transform="translate(0 121.524)" fill="#5151fc" stroke="#fff" stroke-width="0.2"/><rect width="95.2" height="7.969" transform="translate(0 123.466)" fill="blue" stroke="#fff" stroke-width="0.2"/><rect width="95.2" height="3.125" transform="translate(0 129.037)" fill="#5151fc" stroke="#fff" stroke-width="0.2"/><rect width="95.2" height="4.276" transform="translate(0 130.463)" fill="#8131f4" stroke="#fff" stroke-width="0.2"/><rect width="95.2" height="2.233" transform="translate(0 134.831)" fill="#00c19c" stroke="#fff" stroke-width="0.2" opacity="0.001"/><rect width="95.2" height="0.857" transform="translate(0 136.414)" fill="#00c19c" stroke="#fff" stroke-width="0.2" opacity="0.001"/><rect width="95.2" height="18.9" transform="translate(0 137.058)" fill="blue" stroke="#fff" stroke-width="0.2" opacity="0"/><rect width="95.2" height="19.978" transform="translate(0 147.437)" fill="blue" stroke="#fff" stroke-width="0.2" opacity="0"/><path d="M95.2,15.5h0Z" transform="translate(0 158.814)" fill="blue" stroke="#fff" stroke-width="0.2"/><rect width="95.2" height="8.631" transform="translate(0 167.464)" fill="blue" stroke="#fff" stroke-width="0.2"/><rect width="95.2" height="1.792" transform="translate(0 174.645)" fill="#6e94f4" stroke="#fff" stroke-width="0.2"/><rect width="95.2" height="7.761" transform="translate(0 174.486)" fill="#00c19c" stroke="#fff" stroke-width="0.2"/><rect width="95.2" height="2.274" transform="translate(0 180.364)" fill="#5151fc" stroke="#fff" stroke-width="0.2"/><rect width="95.2" height="1.506" transform="translate(0 181.916)" fill="#00c19c" stroke="#fff" stroke-width="0.2"/><rect width="95.2" height="4.926" transform="translate(0 182.093)" fill="#8131f4" stroke="#fff" stroke-width="0.2"/><rect width="95.2" height="4.262" transform="translate(0 185.231)" fill="#009959" stroke="#fff" stroke-width="0.2"/><rect width="95.2" height="1.978" transform="translate(0 188.331)" fill="#5151fc" stroke="#fff" stroke-width="0.2"/><rect width="95.2" height="3.263" transform="translate(0 189.249)" fill="#5151fc" stroke="#fff" stroke-width="0.2"/><rect width="95.2" height="4.696" transform="translate(0 190.908)" fill="#009959" stroke="#fff" stroke-width="0.2"/><rect width="95.2" height="6.983" transform="translate(0 193.269)" fill="#009959" stroke="#fff" stroke-width="0.2"/><rect width="95.2" height="7.969" transform="translate(0 197.262)" fill="#00c19c" stroke="#fff" stroke-width="0.2"/><rect width="95.2" height="4.029" transform="translate(0 203.043)" fill="#009959" stroke="#fff" stroke-width="0.2"/><rect width="95.2" height="4.92" transform="translate(0 205.273)" fill="blue" stroke="#fff" stroke-width="0.2"/><rect width="95.2" height="0.706" transform="translate(0 209.304)" fill="#5151fc" stroke="#fff" stroke-width="0.2"/><rect width="95.2" height="2.233" transform="translate(0 208.654)" fill="#8131f4" stroke="#fff" stroke-width="0.2"/><rect width="95.2" height="3.608" transform="translate(0 218.001)" fill="#6e94f4" stroke="#fff" stroke-width="0.2"/><rect width="95.2" height="3.016" transform="translate(0 230.73)" fill="#00c19c" stroke="#fff" stroke-width="0.2"/><rect width="95.2" height="0.857" transform="translate(0 262.159)" fill="#009959" stroke="#fff" stroke-width="0.2"/><rect width="95.2" height="1.858" transform="translate(0 262.374)" fill="#5151fc" stroke="#fff" stroke-width="0.2"/><rect width="95.2" height="12.841" transform="translate(0 249.953)" fill="blue" stroke="#fff" stroke-width="0.2"/><rect width="95.2" height="2.743" transform="translate(0 258.992)" fill="#00c19c" stroke="#fff" stroke-width="0.2"/><rect width="95.2" height="2.098" transform="translate(0 275.127)" fill="#5151fc" stroke="#fff" stroke-width="0.2"/><rect width="95.2" height="1.632" transform="translate(0 277.228)" fill="#6e94f4" stroke="#fff" stroke-width="0.2"/><rect width="95.2" height="3.707" transform="translate(0 278.863)" fill="#00c19c" stroke="#fff" stroke-width="0.2"/><rect width="95.2" height="6.173" transform="translate(0 282.574)" fill="blue" stroke="#fff" stroke-width="0.2"/><rect width="95.2" height="0.923" transform="translate(0 297.245)" fill="#5151fc" stroke="#fff" stroke-width="0.2"/><rect width="95.2" height="7.03" transform="translate(0 298.171)" fill="#00c19c" stroke="#fff" stroke-width="0.2"/><rect width="95.2" height="1.496" transform="translate(0 305.205)" fill="#6e94f4" stroke="#fff" stroke-width="0.2"/><rect width="95.2" height="4.088" transform="translate(0 306.704)" fill="#5151fc" stroke="#fff" stroke-width="0.2"/><rect width="95.2" height="4.044" transform="translate(0 310.796)" fill="blue" stroke="#fff" stroke-width="0.2"/><rect width="95.2" height="2.989" transform="translate(0 314.844)" fill="#00c19c" stroke="#fff" stroke-width="0.2"/><rect width="95.2" height="3.481" transform="translate(0 317.836)" fill="#5151fc" stroke="#fff" stroke-width="0.2"/><rect width="95.2" height="3.099" transform="translate(0 321.32)" fill="#00c19c" stroke="#fff" stroke-width="0.2"/><rect width="95.2" height="8.546" transform="translate(0 324.422)" fill="#009959" stroke="#fff" stroke-width="0.2"/></g><g transform="translate(190.402 20.637)"><rect width="95.2" height="5.153" fill="#00c19c" stroke="#fff" stroke-width="0.2"/><rect width="95.2" height="5.9" transform="translate(0 5.156)" fill="#8131f4" stroke="#fff" stroke-width="0.2"/><rect width="95.2" height="5.257" transform="translate(0 39.02)" fill="#00c19c" stroke="#fff" stroke-width="0.2"/><rect width="95.2" height="2.246" transform="translate(0 44.28)" fill="#8131f4" stroke="#fff" stroke-width="0.2"/><rect width="95.2" height="3.748" transform="translate(0 48.013)" fill="#5151fc" stroke="#fff" stroke-width="0.2"/><rect width="95.2" height="1.654" transform="translate(0 51.764)" fill="blue" stroke="#fff" stroke-width="0.2"/><rect width="95.2" height="1.521" transform="translate(0 53.421)" fill="#8131f4" stroke="#fff" stroke-width="0.2"/><rect width="95.2" height="8.18" transform="translate(0 85.908)" fill="#00c19c" stroke="#fff" stroke-width="0.2"/><rect width="95.2" height="0.885" transform="translate(0 94.043)" fill="#009959" stroke="#fff" stroke-width="0.2"/><rect width="95.2" height="2.296" transform="translate(0 53.866)" fill="#6e94f4" stroke="#fff" stroke-width="0.2"/><rect width="95.2" height="1.411" transform="translate(0 55.238)" fill="blue" stroke="#fff" stroke-width="0.2"/><rect width="95.2" height="1.877" transform="translate(0 55.993)" fill="#00c19c" stroke="#fff" stroke-width="0.2"/><rect width="95.2" height="3.78" transform="translate(0 102.973)" fill="#8131f4" stroke="#fff" stroke-width="0.2"/><rect width="95.2" height="4.186" transform="translate(0 105.027)" fill="#8ae297" stroke="#fff" stroke-width="0.2"/><rect width="95.2" height="6.706" transform="translate(0 113.865)" fill="#8ae297" stroke="#fff" stroke-width="0.2"/><rect width="95.2" height="7.509" transform="translate(0 117.458)" fill="#00c19c" stroke="#fff" stroke-width="0.2"/><rect width="95.2" height="2.926" transform="translate(0 122.559)" fill="#8ae297" stroke="#fff" stroke-width="0.2"/><rect width="95.2" height="5.525" transform="translate(0 123.686)" fill="blue" stroke="#fff" stroke-width="0.2"/><rect width="95.2" height="3.027" transform="translate(0 127.295)" fill="blue" stroke="#fff" stroke-width="0.2"/><rect width="95.2" height="2.413" transform="translate(0 129.125)" fill="#00c19c" stroke="#fff" stroke-width="0.2"/><rect width="95.2" height="1.811" transform="translate(0 130.61)" fill="blue" stroke="#fff" stroke-width="0.2"/><rect width="95.2" height="0.526" transform="translate(0 131.9)" fill="#00c19c" stroke="#fff" stroke-width="0.2"/><rect width="95.2" height="4.013" transform="translate(0 131.466)" fill="#00c19c" stroke="#fff" stroke-width="0.2"/><rect width="95.2" height="3.301" transform="translate(0 133.873)" fill="blue" stroke="#fff" stroke-width="0.2"/><rect width="95.2" height="2.173" transform="translate(0 135.975)" fill="blue" stroke="#fff" stroke-width="0.2"/><rect width="95.2" height="1.745" transform="translate(0 137.294)" fill="#00c19c" stroke="#fff" stroke-width="0.2"/><rect width="95.2" height="9.267" transform="translate(0 136.597)" fill="#8ae297" stroke="#fff" stroke-width="0.2"/><rect width="95.2" height="1.021" transform="translate(0 143.666)" fill="blue" stroke="#fff" stroke-width="0.2"/><rect width="95.2" height="2.58" transform="translate(0 143.885)" fill="#00c19c" stroke="#fff" stroke-width="0.2"/><rect width="95.2" height="1.751" transform="translate(0 145.531)" fill="#00c19c" stroke="#fff" stroke-width="0.2"/><rect width="95.2" height="1.547" transform="translate(0 201.319)" fill="#6e94f4" stroke="#fff" stroke-width="0.2"/><rect width="95.2" height="4.939" transform="translate(0 201.093)" fill="#009959" stroke="#fff" stroke-width="0.2"/><rect width="95.2" height="7.575" transform="translate(0 202.985)" fill="#00c19c" stroke="#fff" stroke-width="0.2"/><rect width="95.2" height="3.292" transform="translate(0 214.874)" fill="#6e94f4" stroke="#fff" stroke-width="0.2"/><rect width="95.2" height="15.967" transform="translate(0 212.191)" fill="#009959" stroke="#fff" stroke-width="0.2"/><rect width="95.2" height="7.449" transform="translate(0 189.803)" fill="#00c19c" stroke="#fff" stroke-width="0.2"/><rect width="95.2" height="2.06" transform="translate(0 222.002)" fill="#00c19c" stroke="#fff" stroke-width="0.2"/><rect width="95.2" height="2.192" transform="translate(0 226.421)" fill="#00c19c" stroke="#fff" stroke-width="0.2"/><rect width="95.2" height="3.348" transform="translate(0 233.424)" fill="#00c19c" stroke="#fff" stroke-width="0.2"/><rect width="95.2" height="5.314" transform="translate(0 242.407)" fill="#6e94f4" stroke="#fff" stroke-width="0.2"/><rect width="95.2" height="6.596" transform="translate(0 247.724)" fill="#00c19c" stroke="#fff" stroke-width="0.2"/><rect width="95.2" height="5.95" transform="translate(0 267.426)" fill="#6e94f4" stroke="#fff" stroke-width="0.2"/><rect width="95.2" height="2.504" transform="translate(0 273.379)" fill="#8ae297" stroke="#fff" stroke-width="0.2"/></g><rect width="95" height="332" fill="#ffa501" opacity="0.423"/><line y2="332.423" transform="translate(95.08 0.556)" fill="none" stroke="#000" stroke-width="1"/><line y2="332.423" transform="translate(190.28 0.813)" fill="none" stroke="#000" stroke-width="1"/></g><text transform="translate(134 387)" font-size="8" font-family="HKGrotesk-Regular, HK Grotesk"><tspan x="-23.908" y="0">LIVELLO DUE</tspan></text><text transform="translate(605.056 387)" font-size="8" font-family="HKGrotesk-Regular, HK Grotesk"><tspan x="-23.908" y="0">LIVELLO DUE</tspan></text><text transform="translate(43 387)" font-size="8" font-family="HKGrotesk-Regular, HK Grotesk"><tspan x="-24.471" y="0">LIVELLO UNO</tspan></text><text transform="translate(516.566 387)" font-size="8" font-family="HKGrotesk-Regular, HK Grotesk"><tspan x="-24.471" y="0">LIVELLO UNO</tspan></text><text transform="translate(234.571 388)" font-size="8" font-family="HKGrotesk-Regular, HK Grotesk"><tspan x="-23.314" y="0">LIVELLO TRE</tspan></text><text transform="translate(697 388)" font-size="8" font-family="HKGrotesk-Regular, HK Grotesk"><tspan x="-23.314" y="0">LIVELLO TRE</tspan></text><text transform="translate(334.783 388)" font-size="8" font-family="HKGrotesk-Regular, HK Grotesk"><tspan x="-34.158" y="0">LIVELLO QUATTRO</tspan></text></g></g></svg>