<svg xmlns="http://www.w3.org/2000/svg" xmlns:xlink="http://www.w3.org/1999/xlink" width="900" height="497" viewBox="0 0 900 497">
  <defs>
    <clipPath id="clip-path">
      <path id="Path_147881" data-name="Path 147881" d="M900,0V496.223H0V0"/>
    </clipPath>
    <clipPath id="clip-path-2">
      <path id="Path_147885" data-name="Path 147885" d="M340.8,136.6h0a15.077,15.077,0,0,0-13,7.5h0a14.9,14.9,0,0,0,0,15h0a15.077,15.077,0,0,0,13,7.5h0a15.077,15.077,0,0,0,13-7.5h0a14.9,14.9,0,0,0,0-15h0A14.751,14.751,0,0,0,340.8,136.6Z" transform="translate(-325.775 -136.6)"/>
    </clipPath>
    <clipPath id="clip-path-3">
      <path id="Path_147913" data-name="Path 147913" d="M366.4,190.9h0a5.043,5.043,0,0,0-4.3,2.5h0a4.967,4.967,0,0,0,0,5h0a5.043,5.043,0,0,0,4.3,2.5h0a5.043,5.043,0,0,0,4.3-2.5h0a4.967,4.967,0,0,0,0-5h0A4.726,4.726,0,0,0,366.4,190.9Z" transform="translate(-361.425 -190.9)"/>
    </clipPath>
    <clipPath id="clip-slide-03">
      <rect width="900" height="497"/>
    </clipPath>
  </defs>
  <g id="slide-03" clip-path="url(#clip-slide-03)">
    <g id="slide_03">
      <g id="Livello_3">
        <g id="Group_23923" data-name="Group 23923" opacity="0.5">
          <g id="Group_23922" data-name="Group 23922">
            <g id="Group_23921" data-name="Group 23921" opacity="0.4" clip-path="url(#clip-path)">
              <path id="Path_147838" data-name="Path 147838" d="M397.655,226.2a15.3,15.3,0,0,1-2.382.65,13.635,13.635,0,0,1-6.6-.108c-1.191-.325-2.706-.433-3.356.974-.758,1.732.974,2.057,1.949,2.6a40.6,40.6,0,0,1,4.763,2.6c2.057,1.407,3.248.866,3.356-1.516C395.6,229.772,397.763,226.417,397.655,226.2Z" transform="translate(31.777 18.664)" fill="none" stroke="#444" stroke-width="0.43"/>
              <path id="Path_147839" data-name="Path 147839" d="M379.99,125.17c1.191,1.3,1.082,2.382-.758,4.005,3.9-.866,3.9-3.789,4.763-6.062a7.876,7.876,0,0,1-.65-2.273,10.663,10.663,0,0,0-.217-1.84,11.627,11.627,0,0,1-1.624.758C378.8,120.949,377.825,122.681,379.99,125.17Z" transform="translate(31.256 9.819)" fill="none" stroke="#444" stroke-width="0.43"/>
              <path id="Path_147840" data-name="Path 147840" d="M892.271-28.1l-187.708.65c0,1.949-1.732,3.464-1.083,5.629.433,1.3,1.191,3.248-.758,3.9-1.3.433-2.815-.541-3.464-1.732-.866-1.516-.974-3.248.541-4.547,1.083-.866,2.165-1.732,2.273-3.248H673.6c1.3,2.165,3.572,3.139,5.737,3.9,1.732.65,2.923,1.407,2.273,3.9a20.065,20.065,0,0,0-9.851-2.923c-2.815,0-3.464-2.382-3.139-4.871h-9.2c-.216,3.139,1.624,5.521,2.923,8.119,1.516,3.139,1.948,6.279.216,9.526C660.4-5.8,661.7-1.578,662.237,2.427c.433,2.923,3.356,1.949,5.088,1.3,6.6-2.165,13.531,3.031,12.882,9.959-.217,1.84-1.732,2.706-2.923,4.114-1.083-2.923-.217-5.629-1.949-8.335-2.382-3.572-4.871-2.273-7.578-1.407-3.139,1.083-3.139,4.005-2.49,6.279,1.083,3.681-.325,6.387-1.191,9.743-1.3,5.629-6.279,7.469-8.877,11.583-1.3,1.949-8.552,1.732-9.634-.217-.758-1.3.325-1.949,1.3-1.84,3.356.325,4.33-1.624,5.521-4.33s2.49-5.629,4.763-7.794c2.165-2.057.217-5.3,1.84-7.469,2.165-2.923-.325-4.547-1.84-6.5a6.62,6.62,0,0,1-1.407-4.655c.216-5.413-.433-10.825.649-16.238.649-3.248.433-6.712-1.949-9.526a6.14,6.14,0,0,1-1.191-4.763h-18.4c.325,2.273-1.407,3.464-2.706,4.871-1.407,1.516-2.273,3.356-.649,4.763,4.114,3.789,3.248,7.794.758,11.908-.649,1.191-1.083,3.031,0,3.356,4.114,1.191,3.789,5.629,6.279,7.686,2.706,2.382,1.732,4.547.866,7.036-.758,2.273-1.732,2.165-3.139.65-1.624-1.732-2.6-4.005-4.871-5.088-4.222-2.165-8.335-4.33-11.8-7.794a9.324,9.324,0,0,0-5.954-2.815c-6.387.108-11.475-1.407-14.83-7.253a1.829,1.829,0,0,0-2.49-.974c-1.191.758-.866,2.057-.541,3.031.758,2.057,2.815,2.923,4.547,4.222,3.031,2.165,4.114,5.521,5.088,8.877.866,2.923-2.057,3.464-3.572,4.98a4.959,4.959,0,0,0-.758,1.516c-.433.866-.758,2.057-1.948,1.84s-1.083-1.407-1.191-2.382c-.108-1.516-.433-4.222-1.732-3.572-4.979,2.6-10.392,3.464-15.588,5.2-.108,0-.216.217-.216.325-.974,2.165-2.49,2.6-4.763,2.057-2.923-.758-.866-2.6-1.083-3.9-.217-1.083.325-2.382-.974-2.923a1.875,1.875,0,0,0-2.6.65c-1.732,2.706-4.114,3.572-7.145,3.789-.866,0-1.732.866-2.382,1.516a35.047,35.047,0,0,1-7.686,5.629c-2.057,1.3-4.871,2.273-4.98,5.629-.108,3.572-1.732,5.629-5.737,5.3-1.624-.108-7.145-3.464-7.361-5.2-.217-2.923,1.407-4.655,4.222-5.413,3.139-.758,2.706-2.815,1.516-4.763-1.949-3.248-5.2-4.005-8.66-4.114-.65,0-1.732.217-1.3,1.083,2.815,5.521-2.815,11.908,1.949,17.32.758.866.433,3.031.216,4.438-.541,2.49-1.3,4.763-4.655,2.6-1.624-.974-4.114-2.165-5.413-.541-2.273,2.6-5.088,4.222-7.794,6.17A4.939,4.939,0,0,0,514.15,48c.758,2.165.541,4.547-1.407,5.629-1.732.974-4.114.217-5.954-.758a9.307,9.307,0,0,1-2.165-1.949c-.974-.866-1.948-1.949-3.247-.974a3.5,3.5,0,0,0-1.083,4.114,4.052,4.052,0,0,0,3.031,2.706c2.165.433,2.273,1.949,1.84,3.464-.541,2.057-2.273,1.732-3.789,1.516-2.6-.325-3.681-3.031-5.629-4.005-5.629-2.382-5.2-7.794-5.088-11.908s-.216-6.712-3.572-9.2c-2.382-1.732-4.98-3.789-5.2-7.578,2.273.325,3.139,2.165,4.98,2.706,5.737,1.84,11.475,4.114,17.1,6.17,4.763,1.732,11.258-.974,13.964-5.846,2.6-4.547,1.407-9.418-2.49-13.423-3.248-3.248-7.686-4.438-10.717-7.9a27.111,27.111,0,0,0-18.619-9.418,3.115,3.115,0,0,1-3.248-3.572c.108-2.49-1.3-3.681-3.356-2.382-3.139,1.84-5.629.325-8.335-.433-1.083-.325-2.273-.541-2.382-1.949-.108-1.624,1.407-1.407,2.382-1.84,1.624-.758,3.789-1.191,2.706-3.789-1.3-3.248-7.794-5.3-10.717-3.572-.866-1.3,1.624-3.789-.974-4.222-4.547-.866-3.248,4.33-5.737,6.279-.325-1.407-.65-2.6-.974-4.114-2.923,2.273-3.031,5.954-5.629,8.227-1.84-4.33,2.273-7.145,2.382-11.8-1.949,2.49-5.2,1.84-5.737,4.871-2.49-.758-3.9,5.629-6.928.974-.108-.217-1.083,0-1.516.217s-.325.65,0,.974c2.923,3.031,0,3.139-1.84,3.9a6.592,6.592,0,0,0-2.382,2.165c-1.732,1.732-4.547,2.6-6.928,3.681-.541.217-.758-.541-.758-1.191,0-.758.974-2.273-.866-1.949-1.083.108-2.815-.108-3.139,1.516-.65,3.031-3.356,4.005-5.3,5.629s-3.248,3.031-1.516,5.521c.866,1.3.108,2.382-.758,3.356-1.083,1.191-1.84.325-2.815-.325a14.538,14.538,0,0,0-2.923-1.407c-2.6-.974-5.088.974-4.438,3.572.433,1.624-1.191,2.382-.758,3.789,2.165-.217,4.222-.433,6.279-.758q.812-.487.325.325c-.325,2.815-4.438,3.248-4.33,5.629.108,3.572-1.84,5.737-4.005,7.9-3.572,3.572-6.387,8.119-7.036,12.341-1.191,7.361-6.6,11.691-9.418,17.753-1.083,2.273-2.057,6.062-3.572,6.387-4.438.758-6.062,4.438-9.093,6.5-8.335,5.521-14.4,13.207-10.5,24.248a40.617,40.617,0,0,1,2.6,12.016c.108,3.9,1.516,5.737,4.222,7.145,3.031,1.516,5.954.758,8.227-1.949,1.624-2.057,3.139-4.222,5.737-5.3,4.222-1.949,5.629-1.624,6.062,2.923.541,5.2,2.923,9.526,4.98,14.073,1.083,2.382,1.624,3.9,1.407,4.98v.216a7.68,7.68,0,0,0,.108,3.139,7.538,7.538,0,0,0,1.191,2.49,5.95,5.95,0,0,0,.758.974c1.84,1.3,2.815.433,4.871-3.248.974-1.732,2.49-1.949,4.222-2.165,3.789-.541,5.3-3.356,5.629-7.036.433-5.846-1.407-12.341,6.062-16.238,5.3-2.706,4.763-9.743-.325-13.1-3.572-2.382-4.222-5.413-3.572-8.985,1.732-8.768,5.629-16.129,13.531-21,2.706-1.732,6.062-4.438,4.763-7.578-2.815-6.928,1.84-9.634,5.846-12.882,4.005-3.356,10.933-.325,11.8,4.655.541,2.923-2.165,3.572-2.923,5.521-2.706,6.279-8.227,10.067-12.557,14.83a6.831,6.831,0,0,0-2.057,4.763c-.217,6.5,1.732,12.774,1.082,19.485-.433,4.33,6.062,7.794,10.284,6.17,2.49-.974,4.98-1.84,7.361-2.923,6.062-2.49,11.908-3.356,17.428,1.191.433.325,1.083.433,1.083,1.191,0,.866-.65,1.191-1.407,1.3-2.165.216-4.33.433-5.521,2.382-1.191,1.84-2.706,1.949-4.655,1.407a18.288,18.288,0,0,0-14.073,1.732c-2.815,1.624-3.356,5.954-.433,7.036,3.789,1.407,3.139,4.005,3.031,6.712,0,2.057-.758,3.9-2.815,4.655-2.382.866-3.031-.974-4.114-2.49-2.057-2.923-4.655-2.6-6.387.758a13.376,13.376,0,0,0-1.624,7.686c.325,2.49.65,4.98.758,7.469,0,1.516-.217,3.464-2.382,3.139-2.057-.325-2.815.758-3.464,2.273-1.407,2.815-3.9,2.706-5.521,1.083-3.031-3.031-5.737-1.84-8.66-.325a50.125,50.125,0,0,0-6.279,3.356c-3.139,2.382-5.737,1.407-7.578-1.191-1.3-1.732-2.49-1.84-3.789-.866-3.9,3.139-7.253,1.3-10.609-.866a4.152,4.152,0,0,1-1.949-3.9c.108-1.624,1.3-1.3,2.49-1.407,2.6-.216,1.407-1.732.433-2.273a3.014,3.014,0,0,1-.974-4.655c1.516-2.057,1.191-3.464.758-5.737-.758-3.681.65-7.469-5.413-3.031-2.815,2.057-3.9,3.464-4.005,6.5-.217,5.413,1.949,10.284,2.6,15.48.217,2.273.108,5.2-2.165,4.98-3.464-.433-5.954,1.949-8.985,2.057-2.382.108-3.681.758-3.248,3.464.216,1.624.866,4.655-2.49,1.84-.866-.758-1.3.108-1.516.758a16.867,16.867,0,0,1-11.475,11.258c-.217.108-.541.325-.541.541-.216,4.763-4.438,6.17-7.145,8.985-1.84,1.84-3.681,2.165-5.521,1.083-2.815-1.624-2.706-.433-2.382,1.84.433,3.356-1.191,4.005-4.005,2.815a10.42,10.42,0,0,0-5.737-.65c-1.624.216-3.681.541-3.681,2.6-.108,1.949,1.516,2.706,3.248,3.356,1.624.65,3.681,0,5.088,1.624,4.763,5.737,8.877,11.691,7.253,19.81-1.083,5.521-2.273,6.928-7.794,6.82a38.894,38.894,0,0,1-4.98-.541c-5.088-.433-10.284-.974-15.372-1.083-4.763-.108-6.387,2.273-5.521,6.82a35.615,35.615,0,0,1,.433,8.335c-.325,6.17-3.356,12.016-.433,18.4.974,2.057,1.3,3.464,3.681,3.139,2.815-.325,5.521.108,6.928,2.706,1.84,3.248,3.572,4.005,6.387,1.083,1.516-1.516,3.9-1.516,5.954-1.191,6.17.974,9.093-3.572,12.341-7.361.974-1.083,2.706-1.949,2.382-4.114-.758-6.279,2.382-11.258,8.119-13.64,3.356-1.407,6.387-3.031,6.062-7.794-.325-4.871,2.49-7.253,7.145-5.3,6.5,2.706,10.717-1.083,15.155-3.9,4.114-2.6,8.011-2.165,9.093,2.49,1.407,6.062,6.17,9.743,10.609,12.341a83.751,83.751,0,0,1,12.665,9.093c2.057,1.732,2.382,4.438,1.949,6.928a8.875,8.875,0,0,1-1.083,2.273l.541.541.217.108h.108a.651.651,0,0,0,.433-.108c.108,0,.108-.108.216-.108a.106.106,0,0,0,.108-.108c1.948-2.057,3.464-5.737,2.49-6.712a2.827,2.827,0,0,1-.216-4.114c1.191-1.624,2.923-.974,4.547-.433.866.325.974,1.84,2.6.974-1.407-2.706-3.9-4.114-6.279-5.629-4.763-3.031-9.526-6.17-12.774-10.825a27.478,27.478,0,0,0-5.737-6.5c-2.49-1.84-2.815-7.253-.541-9.418,1.624-1.516,3.572-2.815,4.547.758.216.974.65,2.165,1.732,2.165,3.572,0,4.222,2.6,5.2,5.088.541,1.407,1.407,3.031,2.923,3.356,4.763,1.083,7.578,5.088,11.583,7.145,3.464,1.732,5.088,4.222,4.547,8.011a11.35,11.35,0,0,0,3.139,9.526,24.757,24.757,0,0,1,1.949,3.139c2.057,2.815,2.49,6.387,4.438,9.2.866,1.407,1.624,2.6,3.464,2.49,2.057-.108,1.732-1.84,2.382-3.031.541-.974.108-2.165,1.3-2.923,4.222-2.382,4.222-2.49.325-5.629-2.273-1.84-2.923-4.547-3.139-7.036-.217-2.6,2.382-.65,3.464-1.191.65-.325.974-1.3,1.624-1.84,3.031-2.49,6.062-1.949,9.31-.433s1.191,3.789.758,5.3c-.866,2.6.974,2.923,2.273,4.005,1.949,1.624-2.273,2.815-.541,4.547a2.264,2.264,0,0,0,.65.433,3.649,3.649,0,0,1,2.273,3.248c.541,2.273,1.732,3.681,4.222,3.9a6.456,6.456,0,0,1,3.681,1.732,3.584,3.584,0,0,0,5.521.108c2.165-2.165,4.547-1.732,6.387-.325,3.789,2.923,7.036,3.248,10.717-.217,1.84-1.732,4.438-.866,6.387-.325s.108,2.6.433,4.005c1.624,7.036-2.382,12.882-4.33,19.16-1.948,6.17-5.846,7.9-12.016,5.629-2.6-.974-5.3-2.273-7.9-.325-3.572,2.706-7.145,2.6-10.933.65a14.532,14.532,0,0,0-4.871-1.083,42.2,42.2,0,0,1-15.8-5.413c-6.279-3.572-11.908-1.84-12.774,5.2-.541,4.114-4.871,6.712-7.794,4.33-2.6-2.057-5.521-2.382-8.552-3.139-1.407-.325-2.815-.433-3.464-1.84-2.273-5.2-6.712-6.387-11.908-6.82-4.114-.325-7.253-2.6-9.959-5.629-2.273-2.6.65-4.222,1.191-6.279a3.874,3.874,0,0,0-.541-3.248,4.505,4.505,0,0,1-.65-3.139c.217-2.923-3.139-5.521-6.062-4.547-6.279,2.057-13.1,2.057-19.377,1.732-9.743-.433-18.078,2.706-25.98,7.145-6.17,3.356-11.8,2.165-17.32.108-2.923-1.083-3.789-.758-4.33,1.624-1.3,5.413-5.629,8.227-9.634,11.042-4.438,3.139-6.6,7.253-6.17,12.341.325,4.114-1.083,6.5-4.005,8.877-2.706,2.165-5.3,4.438-8.768,5.521a4.049,4.049,0,0,0-2.815,2.923,5.841,5.841,0,0,1-2.49,3.681,6.419,6.419,0,0,0-3.248,5.088c-.217,1.191-.433,2.815-1.3,3.464-4.33,3.139-4.655,8.768-7.794,12.557-1.407,1.624-.974,3.9,0,5.954,3.031,7.036,4.871,14.073,0,21-1.949,2.815-3.572,5.629-1.083,8.768,2.382,2.923.108,6.712,2.057,9.526a6.426,6.426,0,0,0,1.949,1.407,35.918,35.918,0,0,1,11.583,12.665c2.273,4.438,4.547,8.011,8.877,10.392a46.764,46.764,0,0,1,8.66,5.846c4.763,4.005,9.526,4.438,15.047,1.949a20.115,20.115,0,0,1,15.047-.541c2.273.866,4.005.217,5.954-.758,6.387-3.139,12.774-6.062,20.351-5.413,3.248.216,5.413.866,7.036,4.005a8.646,8.646,0,0,0,9.31,4.871c8.227-1.191,12.232,2.49,10.825,10.825a24.44,24.44,0,0,1-1.083,4.871c-3.248,7.578-1.732,13.748,4.98,18.511.65.433,1.191,1.191,1.84,1.732,5.846,5.088,6.062,12.99,9.31,19.269a2.7,2.7,0,0,1,0,2.057c-.866,2.382.217,4.222.974,6.387,1.516,4.222,1.407,8.768-1.3,12.449-3.572,4.98-4.655,10.392-5.629,16.238-1.082,6.279,2.382,10.933,4.871,15.8,3.789,7.253,7.469,14.289,7.469,23.057v.65h85.951c.108,0,.108,0,.217-.108,3.031-1.3,4.547-3.248,4.547-6.712,0-4.33-1.082-8.227-2.273-12.232-.541-2.057-.758-3.789.866-5.413,3.572-3.789,7.145-7.469,11.908-9.743a35.955,35.955,0,0,0,8.011-5.088c2.49-2.165,5.088-4.871,4.114-8.552-1.082-4.114-.866-8.335-.866-12.449a11.386,11.386,0,0,0-2.382-7.686,11.106,11.106,0,0,1-2.49-8.985,8.048,8.048,0,0,0-1.732-7.253c-1.407-1.732-1.3-3.9.108-5.846,4.222-5.846,6.279-13.423,13.531-16.887.65-.325,1.083-1.3,1.516-1.949,2.6-4.114,6.6-6.6,10.392-9.526a66.222,66.222,0,0,0,17.212-19.16c2.273-4.005,3.9-8.335,6.712-12.016s2.706-8.011,3.356-12.232c.325-2.057-.866-2.706-2.49-1.84-5.846,3.464-12.882,1.84-18.944,4.438-2.382.974-4.98.65-7.469.541a5.335,5.335,0,0,1-5.088-6.062,4,4,0,0,0-1.624-4.005c-4.547-3.464-7.253-9.2-13.315-11.042-1.732-.541-2.057-2.382-2.49-4.114-1.191-4.114-2.273-8.444-6.6-10.717a3.379,3.379,0,0,1-1.516-2.815c-.541-3.139-1.191-6.279-1.624-9.418-.433-2.706-1.191-5.088-3.789-6.6a6.081,6.081,0,0,1-2.815-4.871,24.677,24.677,0,0,0-4.222-10.825,15.866,15.866,0,0,1-2.6-6.062c-.325-1.624-1.3-3.248,1.191-4.114,2.057-.758,4.005-1.3,5.629.974a18.436,18.436,0,0,0,1.624,2.382c4.763,5.2,5.521,13.1,11.8,17.32a4.417,4.417,0,0,1,1.407,3.789c-1.191,6.17,2.815,9.743,6.6,13.207a10.353,10.353,0,0,1,2.49,2.815c4.33,8.011,8.877,16.129,9.743,25.439.108.866.541,1.624.649,2.382.541,2.165,1.624,2.815,3.9,2.382a67.888,67.888,0,0,0,19.16-6.5c6.279-3.356,14.289-3.464,18.836-9.959a2.941,2.941,0,0,1,2.165-1.191c6.387-.216,9.959-5.521,14.83-8.335,4.871-2.923,6.5-8.444,9.959-12.557,3.681-4.33,3.139-6.928-.974-10.825-1.3-1.191-3.031-1.407-4.547-1.949-3.139-1.082-5.846-2.6-6.387-6.279-.108-.758.217-1.84-.649-2.273-1.191-.541-1.84.541-2.382,1.191-3.789,4.763-8.444,6.712-14.614,6.062-2.706-.325-3.9-1.516-3.681-3.9.217-2.6.974-5.088-3.247-3.572-.325.108-1.083-.541-1.191-.866-1.191-5.846-7.145-8.335-9.418-13.64-1.3-2.923-1.732-4.763,1.191-6.6,3.139-1.948,6.6-1.732,7.9,1.3a26.716,26.716,0,0,0,9.743,11.366c4.655,3.248,8.66,5.413,14.073,2.49,3.248-1.732,5.3-.65,6.279,2.706.541,1.949,1.84,3.356,3.789,3.356,6.712-.108,13.1,3.356,20.026,1.948,3.464-.758,7.145-.541,10.825-.974a9.09,9.09,0,0,1,8.227,2.923c1.516,1.624,3.031,3.681,5.846,3.248a1.158,1.158,0,0,1,1.191,1.407c-.541,3.9,1.948,5.088,5.2,5.846-3.139,2.49-3.139,2.706-1.624,5.088,3.464,4.98,6.387,5.413,12.341,1.732a5.085,5.085,0,0,1,.649.974c3.139,10.609,2.706,22.191,9.093,31.718a.651.651,0,0,1,.108.433c1.516,7.9,6.6,14.289,8.768,21.975,1.191,4.33,3.9,4.33,6.82.758.541-.65,1.3-.974,1.949-1.624,1.948-2.057,4.33-4.33,4.763-7.036.866-5.954,3.248-11.8,1.948-17.97-.541-2.6.974-4.005,3.248-5.088,1.948-.974,4.33-1.407,5.737-3.356,4.005-5.413,10.5-8.227,14.073-14.073a1.85,1.85,0,0,1,1.407-.758c3.031,0,4.114-2.165,4.763-4.438.649-2.382,2.057-3.031,4.438-3.464,5.2-.758,10.609,0,15.372-3.248,1.516-.974,4.114-1.083,3.247,2.49-.866,3.356,1.516,5.2,3.464,7.469,3.572,3.9,7.578,7.794,6.387,14.073-.758,4.33,1.407,5.846,5.737,4.438a15.429,15.429,0,0,0,3.031-1.407c3.031-1.516,4.979-.758,5.088,2.706.108,3.681,1.624,6.712,3.572,9.634a14.139,14.139,0,0,1,1.84,6.387,43.043,43.043,0,0,1-1.191,12.882c-.758,2.923.108,4.547,2.165,6.5,2.815,2.706,6.17,5.629,6.387,9.526.541,8.985,4.98,14.83,12.665,18.727,1.191.541,2.382,2.382,3.572,1.3,1.191-1.191,0-3.139-.866-4.114-2.382-2.6-2.815-5.629-2.706-8.985a9.318,9.318,0,0,0-3.681-7.469c-4.438-3.681-11.15-5.737-11.366-13.207a2.01,2.01,0,0,0-1.3-1.516c-2.6-1.407-2.165-3.464-1.407-5.737,1.191-3.139,2.815-6.062,3.247-9.418.108-1.191.108-2.706,1.732-3.031,1.732-.433,2.49.65,3.031,2.057.433,1.083,1.516,1.083,2.49,1.3,6.387,2.057,8.335,9.526,14.289,11.908.217.108.325.758.325,1.191.108,4.763,2.706,3.139,4.33,1.3a34.39,34.39,0,0,1,11.583-8.444,4.83,4.83,0,0,0,2.49-4.114,25,25,0,0,0-1.732-12.232c-1.949-4.222-5.2-7.145-8.227-10.392-6.5-7.253-6.5-10.176-.108-16.454,6.062-5.954,9.959-5.521,14.073,1.949.758-2.49,1.948-4.763,4.438-5.2,6.387-.974,11.475-5.737,17.861-6.062A13.764,13.764,0,0,0,852,320.469c3.572-3.248,8.119-6.062,9.959-10.5a35.245,35.245,0,0,1,7.578-11.583c2.057-2.057,2.273-4.655,3.031-7.145.866-2.382-1.624-2.165-2.49-3.248s-.649-1.732.217-2.815c2.057-2.6,1.732-5.2-.541-7.469a14.964,14.964,0,0,1-3.356-6.17c-.866-2.49-1.624-4.98-4.33-6.279-2.057-.974-1.407-2.706,0-4.114,3.139-3.031,5.737-6.82,10.5-8.011.866-.216,3.247-1.516,1.191-2.273-2.923-1.083-6.387-3.681-9.526,0-1.3,1.516-3.464,1.949-3.9-.325-.541-2.706-2.057-3.681-4.33-4.33-1.84-.541-1.948-2.165-1.948-3.681.108-1.949,1.3-1.624,2.6-1.516.866,0,2.382-.325,2.6-.866,1.624-4.005,6.387-4.438,8.444-7.794,1.3-2.057,3.248-1.732,4.763-.65,1.624,1.191.974,3.031-.217,4.438-1.3,1.516-2.923,2.706-1.732,5.3,2.165-1.083,4.222-2.057,6.279-3.248a10.267,10.267,0,0,1,6.928-.974c2.923.541,4.655,1.84,2.923,5.2-1.3,2.6-1.191,4.547,2.49,4.763a3.3,3.3,0,0,1,3.139,3.789c-.541,4.222,1.407,8.444-.216,12.665-.541,1.407-.108,2.273.758,2.6ZM396.264,110.786c-1.191.108-2.49-.216-2.057-1.407a7.692,7.692,0,0,1,4.547-4.98c1.083-.433,1.732.541,1.84,1.732C400.594,109.054,398.537,110.028,396.264,110.786ZM474.2,465.525c-4.763-5.521-9.093-11.258-6.82-20.135,4.438,6.387,5.629,13.1,7.253,19.81C474.746,465.633,474.746,465.85,474.2,465.525Zm17.645,15.047c.325,2.6.216,5.2.325,7.9,0,.65.325,1.407-.65,1.732-.866.217-1.191-.433-1.407-1.191-.866-2.815-2.382-5.521-1.84-8.768.433-2.815.108-5.737.108-8.66C491.525,474.077,491.417,477.433,491.85,480.572Zm-2.815-50.553c.325,2.923-4.222,8.444-6.712,8.66-3.572.325-4.33-1.624-3.9-4.222,0-5.2,2.6-8.335,6.712-8.119A3.906,3.906,0,0,1,489.035,430.019Zm17-321.289c1.624.541,2.815,1.407,3.031,2.815a1.791,1.791,0,0,1-1.948,2.165c-1.3-.108-2.49-.758-2.49-2.273A2.776,2.776,0,0,1,506.031,108.729Zm-15.588-28.9a2.537,2.537,0,0,1,2.706-1.624c1.624,0,2.815.65,2.923,2.273.217,2.165,2.706,3.248,2.49,5.413,0,1.732-.541,3.031-2.057,3.464-1.407.325-1.732-1.191-2.057-2.165a6.374,6.374,0,0,0-2.923-3.356C490.009,82.857,489.9,81.342,490.442,79.826ZM474.313,83.4c1.732-.758,2.6.65,3.572,1.949,1.3,1.624,3.572,2.382,4.547,4.655,1.3,2.815.65,5.2-1.948,6.279-2.382.974-5.629,3.572-7.145-1.407-.758-2.273-2.057-4.33-2.49-6.82C471.39,86.213,472.364,84.265,474.313,83.4ZM462.189,234.95c-1.083-.325-3.248.65-3.139-1.407a2.926,2.926,0,0,1,3.572-2.6c1.516.325,4.114-.108,4.114,1.732C466.735,235.383,464.029,234.842,462.189,234.95Zm59.322-8.119a6.141,6.141,0,0,1-5.521,4.547c-6.6.433-13.1.866-19.269-3.139-6.387-4.222-13.207-3.139-19.485,1.191-4.98,3.356-14.4.974-16.346-3.9a6.418,6.418,0,0,1,0-5.629c4.005-6.6,6.062-14.289,11.691-20.135,1.732-1.732,2.706-2.382,5.088-1.624,2.273.758,4.005,2.815,6.82,2.6,1.407-.108,1.3,1.191.433,2.057-3.572,3.572,2.057,4.222,2.382,6.82.217,1.949,2.49-.108,3.572-.758,2.165-1.3,4.114-2.815,6.712-3.464a13.3,13.3,0,0,1-3.572.108c-1.516-.217-2.165-1.624-2.706-2.923A2.958,2.958,0,0,1,492.5,198.9c4.98-2.49,9.851-5.3,15.588-5.413.433,0,.974.433,1.732.866-1.948,1.84-4.871,2.815-3.68,6.387.433,1.3-1.3,3.464-2.815,4.33-3.356,1.949-1.191,3.248.541,3.9,6.712,2.165,9.851,8.877,15.8,11.908C522.052,221.96,521.943,224.991,521.51,226.831Zm56.94-20.459c-.758,1.732-2.923.974-4.438.108-2.706-1.624-5.737-.65-8.552-.758-1.083,0-2.165.65-1.948,1.732.649,2.6-1.407,2.923-2.706,3.572,1.84,4.222,3.9,8.011,8.227,9.959,1.624.758.541,3.139.974,5.088,1.948-2.273,3.139-.65,4.547.65a5.739,5.739,0,0,1,1.84,5.629c-.325,1.624-2.165.758-3.248.974-1.3.216-3.247.866-2.165,2.057,1.84,1.949,1.191,4.763,2.923,6.6a5.233,5.233,0,0,1,1.624,4.547c-.433,2.815,1.84,6.712-1.84,8.335-4.438,1.949-9.2,2.165-13.423-1.083a14.922,14.922,0,0,0-2.706-1.84c-4.655-2.165-5.954-5.413-4.005-10.176.866-2.057,1.732-4.114,2.6-6.062.325-.758.866-1.516,0-2.165-2.165-1.732-2.6-4.547-4.222-6.6-2.706-3.248-5.954-6.387-4.98-11.366.108-.541-.541-1.3-.866-1.84-3.139-4.547-1.407-8.985,4.114-10.392,3.789-.974,6.6-3.681,8.877-6.6,3.248-4.114,7.253-1.732,10.825-1.516,2.706.108,3.031,3.031,2.814,5.629-.216,1.84,1.624,1.407,2.706,1.84C577.152,203.124,579.425,204.1,578.451,206.372Zm87.142-5.737a8.374,8.374,0,0,0-2.057,3.031c-.216.65-.541,1.3-1.407,1.191a2.218,2.218,0,0,1-1.624-1.732c-.541-1.949,4.763-7.253,6.712-6.712.65.108.974.433.974,1.407C667.433,198.686,666.459,199.66,665.593,200.635Zm14.181,21.542c-.433,1.732-1.732,1.949-3.572,1.84-.433-.108-1.948.433-1.732-1.191.433-1.949,2.49-1.3,3.789-1.84C679.124,220.661,680.1,220.986,679.774,222.177Zm140.077-86.709c-1.3,9.743-3.789,18.727-14.073,22.841a5.323,5.323,0,0,0-2.814,2.923c-1.191,2.49-3.248,3.248-5.846,3.248-1.083-.217-2.815.65-3.031-1.191-.108-1.3,1.624-1.191,2.6-1.624,5.088-2.273,8.768-6.387,11.908-10.609a51.86,51.86,0,0,0,8.552-16.454c.217-.758.649-1.84,1.624-1.624C819.959,133.411,820.067,134.385,819.851,135.467Z" transform="translate(21.802 -2.319)" fill="none" stroke="#444" stroke-width="0.43"/>
              <path id="Path_147841" data-name="Path 147841" d="M-13.357,12.794c2.273-.758,3.681-.974,4.763-1.624C-6.862,9.98-4.8,9.005-7.186,6.083-9.243,3.7-8.7,2.51-5.671-.088-8.7-.521-11.625-.629-13.79-2.794V154.928c.541,1.624.974,3.356,1.516,4.98a2.034,2.034,0,0,1-.217,1.949c-.541.65-.974.325-1.407-.108V302.366a9.169,9.169,0,0,1,5.846-5.629,6.6,6.6,0,0,0,3.681-2.6,6.3,6.3,0,0,1,6.6-2.815c3.572.65,7.361-.108,10.933,1.624,2.273,1.082,5.629,1.3,6.82-2.49a2.927,2.927,0,0,1,2.923-2.057c5.3.65,11.15-2.273,15.913,2.273.866.758,1.84.108,2.815,0,4.547-.65,9.2,2.6,8.877,7.036-.325,4.98,1.732,8.877,4.547,12.665.974,1.3,1.84,3.139,3.9,2.6s2.382-2.6,2.382-4.438a13.022,13.022,0,0,0-.541-4.114c-1.407-4.33-2.706-8.768-4.547-12.99-2.057-4.763-1.083-9.31,2.382-12.232,4.871-4.222,9.31-9.093,14.83-12.449,5.2-3.248,6.5-6.279,5.3-12.232-.433-1.949-.866-3.789-1.191-5.737-.216-.974,0-2.49,1.3-1.84,4.655,2.273,2.815-1.191,4.005-3.248,2.057-3.572,3.572-7.686,6.17-10.5,2.706-2.923,6.712-5.737,11.583-5.737,1.624,0,2.057-1.083,1.516-2.923-1.407-5.088.108-7.361,4.33-10.5,3.356-2.49,8.227-2.057,10.609-5.3,2.273-3.031,5.629-3.356,8.552-4.871a2.009,2.009,0,0,1,2.923.65c.541,1.083-.65,1.732-1.3,2.382l-3.248,3.248c-1.191,1.191-1.84,2.49-.325,4.005,1.407,1.407,3.031,1.191,3.9-.325,2.165-3.572,5.629-4.655,9.31-5.3,3.789-.65,5.846-4.114,9.093-5.521,2.706-1.191,4.438-2.057,1.3-4.763-.541-.433-.65-1.407-.974-2.273-1.732,1.083-1.949,2.923-2.706,4.33-.541.974-.974,1.949-2.165,2.382-5.2,1.732-12.99-3.031-13.748-8.444-.216-1.3.433-3.139-1.191-3.789-5.846-2.273-1.191-2.6.541-3.464,1.84-.974,3.572-2.165,2.706-4.547-.758-2.273-2.706-2.49-4.871-2.165-3.681.65-7.253,1.516-10.5,3.789-1.84,1.3-3.789,3.248-6.928,3.139.758-1.516,1.083-2.923,1.84-3.789,3.572-3.681,8.552-5.737,11.583-10.176.758-1.083,2.6-.758,4.005-.758,6.6,0,13.1-.216,19.7,0a8.933,8.933,0,0,0,7.686-3.248,14.838,14.838,0,0,1,9.634-5.3c2.815-.325,5.737-2.382,5.629-5.2-.108-3.356.974-7.794-2.706-9.959-2.706-1.516-5.954-2.057-5.088-6.279a1.417,1.417,0,0,0-1.3-1.407c-3.356-.108-5.846-2.6-7.794-4.438-3.248-2.923-7.686-5.521-7.578-11.366.108-3.248-1.624-6.712-3.356-9.743-2.923-5.3-5.846-10.717-8.66-16.021-.758-1.407-.433-4.222-2.165-4.114-2.057.108-2.165,2.923-3.031,4.547a2.141,2.141,0,0,0-.216,1.191c.325,5.413-4.33,7.361-7.361,10.392a2.079,2.079,0,0,1-1.949.108c-2.49-2.6-6.062-3.789-8.119-6.928-2.382-3.572-1.949-7.578-1.407-11.366.541-3.572-.974-4.33-3.789-4.871-1.84-.325-4.547-.541-4.763-2.815-.433-4.547-4.655-5.629-6.82-8.444a2.4,2.4,0,0,0-3.031-.866c-4.114,1.84-7.9.325-11.8-.65-1.624-.433-3.356-1.949-4.98-.108-1.624,1.732-1.3,4.005-.65,5.954.65,1.732,1.191,3.356.433,5.2a7.637,7.637,0,0,0,.433,5.954c1.407,3.356,1.732,6.82-.758,10.284-3.789,5.3-3.572,5.521,1.083,10.284a16.554,16.554,0,0,1,1.516,21.109c-1.84,2.49-4.763,3.464-7.253,4.871-1.732,1.083-2.49,2.165-1.624,4.005,2.057,4.114,1.949,8.66,3.031,12.99a7.542,7.542,0,0,1-1.3,6.387c-2.273,3.248-5.521,3.789-7.686,1.083a33.363,33.363,0,0,1-5.3-8.227c1.083-1.3,3.681.108,3.572-1.732-.108-2.057-2.057-.974-3.356-.866s-1.624-.758-1.732-1.84a59.931,59.931,0,0,1-.758-8.768c.108-3.9-1.624-4.871-5.2-5.2-7.578-.541-13.856-3.9-19.16-9.418-4.114-4.222-8.877-7.145-15.263-5.737-2.706.541-4.871.433-5.088-3.356-.108-2.382-1.516-4.763-2.057-7.253a2.979,2.979,0,0,0-3.139-2.6c-3.9-.108-4.763-2.815-4.547-6.062.541-6.712,1.3-13.423,4.763-19.269C4.5,78.5,6.67,72.874,12.948,71.142c1.516-.433,1.949-1.516,1.732-3.248-.325-2.382,3.9-7.469,6.062-7.794,4.763-.758,10.284-6.279,9.851-10.933-.325-3.248.974-4.871,2.6-6.928,1.3-1.732,2.923-3.464.65-5.846-1.516-1.516-.217-2.057,1.3-2.273a4.548,4.548,0,0,1,4.33,1.84c1.407,1.624,3.248,2.273,4.98.217a3.757,3.757,0,0,1,2.49-1.3c3.789-1.191,6.17-4.222,8.119-7.361,1.732-2.923,0-5.521-1.84-8.227-1.516-2.165-2.923-5.2-.325-8.011,1.083-1.191,4.33-.974,2.382-4.114-.974-1.624,0-3.789-2.382-5.2-2.165-1.3-4.005-4.98-.974-6.6,2.923-1.516,6.279-5.413,10.392-1.84a3.243,3.243,0,0,0,3.9,0c1.3-.758.866-2.165.541-3.356-.216-.758-1.191-1.3.108-2.49,1.3,2.165,4.33,1.949,5.413,4.547A15.891,15.891,0,0,0,77.9-.412c2.815,2.057,4.33,3.789.433,6.17a1.554,1.554,0,0,0-.65,2.165c1.083.541,1.732-.541,2.6-.866,1.191-.65,2.382-1.84,3.789-.65,1.624,1.516.216,2.382-.866,3.356a1.059,1.059,0,0,0-.216,1.516c.325.541.866.433,1.516.217,4.33-1.516,6.712,2.273,8.444,4.438,4.114,5.2,3.031,12.341-2.057,17-3.031,2.815-4.438,5.521-2.165,9.31,1.191,1.949.433,2.706-1.516,3.789-3.464,1.949-7.036,1.624-10.5.65-4.005-1.191-4.114,2.382-5.629,4.114-1.191,1.407-1.191,3.248.541,4.871,2.057,1.949,4.33,2.706,6.82,1.191,3.9-2.382,7.469-2.49,11.366,0,3.464,2.165,5.954,5.629,8.335,8.66,2.49,3.248,2.706,8.444,8.768,7.469a2.063,2.063,0,0,1,1.083.541c2.6,3.9,7.036,4.222,10.825,5.954,1.191.541,2.49,1.3,3.464,0,1.083-1.407-.108-2.6-1.083-3.681a57.209,57.209,0,0,1-7.253-8.119c-.866-1.191-3.248-2.273-2.273-3.572,1.407-1.84,2.706.866,4.222,1.407a3.182,3.182,0,0,1,1.3,1.083c2.273,3.248,6.387,3.356,9.093,5.629.433.325,1.3.541,1.3-.108,0-3.356,3.681-6.6,2.273-9.093-2.273-3.9-2.815-8.985-7.578-11.475-3.681-1.949-5.846-8.227-5.2-12.232.216-1.3-.866-2.706,1.191-3.356,1.949-.541,3.139.433,4.438,1.624a17.428,17.428,0,0,1,5.088,7.578,5.138,5.138,0,0,0,4.547,3.789c2.165.216,1.083-2.382,1.84-3.464.325-.433.433-1.407.65-1.407,5.3-.758,4.114-6.82,7.578-9.31,2.057-1.516.325-4.655-2.6-5.521-1.3-.325-2.49-.217-3.681-1.407-2.273-2.273-4.763-4.438-6.6-7.145-2.165-3.248-6.82-2.057-8.768-5.737a9.239,9.239,0,0,0-5.737-4.222c-4.547-1.407.108-4.438-.758-6.6-.65-1.516.541-1.84,1.84-1.949.866-.108,2.273.433,2.49-.758.325-1.407-1.083-1.732-2.057-2.273-1.949-1.191-2.49-2.382-.108-3.572,1.84-.974.974-2.273.65-3.572-.433-1.624-1.407-2.273-3.139-1.624-1.191.325-2.382.65-3.572-.325,2.923-4.871,2.057-6.279-3.9-7.145-.541-.108-1.083-.108-1.624-.217-2.49-.758-2.923-3.681-5.2-4.655,1.3-2.273-.866-3.9-1.083-5.846H19.011c.108,3.572,2.815,3.681,5.3,4.114,1.3.217,2.815-.217,4.005.866.65.65,1.407,1.516.866,2.6-.433.866-1.3.866-2.165.866-1.624,0-3.9-2.165-4.763.974C21.717-16,25.614-10.8,28.1-11.238c3.356-.433,5.3,1.083,7.686,2.815,2.165,1.624,5.2.433,7.794.758,2.057.217,5.088-.974,5.954,1.624,1.083,3.356-1.84,2.49-3.681,2.49-.758,0-1.516-.65-2.382-.758C39.47-5.067,37.3-3.444,38.82.129c2.49,6.062-1.732,10.717-2.49,16.021-.433,3.031-2.057.108-3.356-.325a4.5,4.5,0,0,0,.217,4.655c1.624,2.273.217,3.681-1.516,4.871-2.057,1.407-2.6-.758-3.356-1.84-2.165-3.031-3.572-5.846-1.516-9.959,1.84-3.681-.758-6.928-3.248-9.743-1.191-1.3-2.273-.758-2.923.65A12.543,12.543,0,0,0,19.011,9.98C18.9,11.17,19.119,12.9,17.5,12.9c-1.516,0-.974-1.732-1.3-2.706a12,12,0,0,1-.433-7.036c.974-3.464-.108-4.98-3.356-4.547C10.783-.954,9.16-.3,7.969-2.144S8.185-5.5,9.051-6.691c1.949-2.6,1.84-4.871-.433-6.82C4.288-17.3,6.345-23.037,3.964-27.367H-6.1c-.108.758-.108,2.273-.325,2.273C-10-24.336-9.243-21.521-9.46-19.14c-.325,3.572.65,7.036.433,10.609a5.7,5.7,0,0,0,5.2,6.062C-.042-1.928.824.129.175,3.7-.042,4.892-3.181,8.248,2.123,7.6c1.407-.108,1.191,3.139.108,4.655a14.469,14.469,0,0,1-4.438,4.438c-2.923,1.516-3.572,3.572-2.6,6.5.433,1.191.65,2.706-1.191,2.923a2.706,2.706,0,0,1-3.139-2.6v-.433c.974-4.222,1.3-8.011-4.222-10.284m-.433,344.563c-.65,0,1.191.433,1.84.65a4.7,4.7,0,0,0,4.005-.65c5.521-3.031,9.959-1.407,13.748,2.923,5.737,6.6,13.748,7.686,21.542,9.2.433.108,1.083-.108,1.191.108,2.382,4.222,7.361,6.5,8.985,11.258.217.758.108,2.165.541,2.382,3.9,1.84,6.82,4.98,10.392,7.036,2.923,1.732,6.387,3.031,9.634,4.655,2.057.974,3.031.65,2.706-1.624-.325-3.139,2.165-3.789,4.005-4.438s3.681.866,4.438,2.382c2.815,5.846,6.6,11.475,5.3,18.619C74,412.89,73.353,415.6,70.322,416.9c-1.3.541-1.732,1.732-2.273,2.815-.433.866-.65,2.273-1.3,2.49-5.629,2.057-4.33,7.794-6.279,11.691-.974,1.949-1.84,4.655,1.191,6.6,1.624,1.082.433,2.273-.866,3.248-4.438,3.681-4.005,9.743.65,13.423a15.234,15.234,0,0,1,6.279,9.959c.866,5.846,5.088,9.743,7.794,14.506,1.624,2.923,3.572,5.521,4.222,8.985.758,3.572,3.9,5.521,7.036,7.361,5.088,2.923,10.609,5.088,14.939,9.634a11.9,11.9,0,0,1,3.572,8.877c-.108,5.521.433,10.933-1.191,16.562a24.373,24.373,0,0,0-.541,7.469h99.266c3.139-3.572,7.686-3.789,11.15-6.17,3.572-2.49,7.145-4.005,11.583-3.681,3.572.325,5.737-2.382,6.82-5.2,2.057-5.629,5.2-10.825,6.928-16.671,1.516-5.413,3.139-10.609,2.057-16.238-.325-1.948-.974-4.222.65-5.629,5.413-4.655,7.794-11.8,13.423-16.346,3.681-3.031,4.763-7.686,3.681-12.232-.65-2.6-.541-6.6-4.655-7.036a13.486,13.486,0,0,1-8.227-4.438c-2.382-2.49-5.413-5.088-8.335-5.088-5.737-.108-11.042-2.706-16.887-2.273-1.516.108-3.139.217-4.005-1.516-2.273-4.98-7.578-6.17-11.475-6.17s-6.387-1.84-9.418-2.923c-2.165-.866-4.547-2.49-3.031-5.846.325-.758.325-1.948-.325-2.382-3.139-1.949-3.464-5.2-4.114-8.335a6.64,6.64,0,0,0-2.49-3.681c-4.98-4.222-10.5-6.5-17.212-6.062-5.954.433-10.825-1.84-13.964-7.253-.541-.974-1.3-2.273-2.165-2.382-6.062-.974-7.9-7.578-13.531-9.634-3.248-1.191-5.521-1.732-8.768-.433-5.3,2.165-10.284-1.624-15.588-1.3-.216,0-.541-.541-.758-.974-1.732-2.815-5.413-1.949-7.469-4.33-.541-.65-.866.108-.974.65-.65,2.6-3.031,2.057-4.763,2.815a1.824,1.824,0,0,1-2.273-.433,2.13,2.13,0,0,1,.108-2.706c.433-.65,1.516-.866,1.083-1.949a1.48,1.48,0,0,0-1.949.108,29.162,29.162,0,0,1-8.877,4.222c-1.949.541-5.413.974-5.954,3.789-.65,3.248-3.248,4.655-4.98,6.928-1.516,2.057-3.031,1.84-4.438.325-4.005-4.114-8.335-4.005-12.882-1.407a6.691,6.691,0,0,1-6.82,0c-5.954-2.923-8.444-7.9-7.686-14.4.325-2.382.541-4.655.866-7.036.866-6.5-1.083-8.877-7.686-8.985-4.005-.108-8.119,0-12.124-.108-1.191,0-2.815.108-2.273-1.948,1.84-6.712,3.356-13.64,6.279-19.918.65-1.407,1.191-3.248-.974-3.789-3.789-.866-7.469-.108-11.042,1.083-2.923.974-2.382,3.9-2.923,6.062-1.083,4.114-3.248,6.17-7.686,6.062a33.336,33.336,0,0,0-5.737.866c-4.005.866-10.5-1.948-12.232-5.629-1.3-2.706-2.706-5.2-4.005-7.9C-13.681,333-13.248,357.249-13.79,357.358ZM126.5,146.268c.866-1.516,2.706-1.732,4.114-2.273.65-.325,1.84.433,2.057,2.057-1.624.541-3.356,1.083-5.088,1.516A.97.97,0,0,1,126.5,146.268Zm-86.06,57.157c-.433,1.191-.758,2.706-1.624,3.248-4.98,3.031-4.871,7.361-4.005,12.341.541,3.139.325,6.6-3.464,8.011-1.732.65-4.005-4.114-4.005-8.877.65-3.681,2.273-7.9,2.165-12.557,0-2.273,6.82-5.521,9.31-4.98A2.025,2.025,0,0,1,40.444,203.424Zm29.661,10.392a16.115,16.115,0,0,0,4.547-.325c1.407-.325,3.139-2.49,3.681.541.433,2.273-.974,3.789-3.248,4.005-3.572.217-7.145.108-11.258.108C65.342,214.9,67.291,213.708,70.105,213.817ZM66.1,221.069c-4.114,3.464-8.335,5.413-12.341,7.578-1.732.974-3.572.325-5.088-.866-1.191-.866-1.3-2.273,0-2.6C54.084,223.559,58.955,219.662,66.1,221.069ZM52.027,202.234c.65.541,1.191.325,1.84.108,3.9-1.191,7.253.65,8.335,4.655.541,1.949-.433,3.464-2.273,2.6-4.871-2.273-4.005,2.057-4.871,4.005-.541,1.3,0,3.139-1.191,4.33-1.191,1.083-2.706,1.732-3.031-.433-.65-3.572-2.706-3.139-5.737-2.49,4.655-5.737,1.949-9.418-3.139-12.449C46.939,198.661,47.589,198.553,52.027,202.234Zm-28.9-26.63c.108-1.083.541-1.949,1.732-1.732,1.516.108,2.057,1.191,1.84,2.6-.217.866-.217,2.057-1.624,1.949A2.6,2.6,0,0,1,23.124,175.6Zm-5.2,13.856c1.3-.325,1.949-1.407,2.815-2.382,4.222-5.413,10.609-5.629,14.939-.433a3.244,3.244,0,0,0,2.057,1.3c4.763.974,3.9,5.088,4.655,8.335.325,1.191-.866,1.516-1.949,1.191a15.919,15.919,0,0,0-7.469.433A4.927,4.927,0,0,1,28,196.388c-2.49-2.6-4.871-2.273-7.253-.325-3.356,2.706-6.6-.866-9.959-.108C12.624,193.141,14.247,190.218,17.928,189.46ZM101.5,30.331c2.165.758,4.871,2.165,5.3,5.088.433,3.139-2.49,2.165-4.222,3.031-2.49-.433-2.6-2.815-2.815-4.547C99.549,32.6,100.091,29.9,101.5,30.331ZM98.142,52.522c.325-1.3-.325-3.031,1.407-3.9,1.624.758,3.464,1.407,3.681,3.139.325,1.84-1.516,2.49-3.031,2.6C99.225,54.471,97.817,53.93,98.142,52.522ZM19.985,41.914a7.665,7.665,0,0,1,6.17,5.521c-4.114.433-5.413-2.273-6.6-5.088-.108-.108-.108-.216-.217-.325ZM99.441,387.884c-1.407.108-2.165-1.083-2.382-2.273a2.567,2.567,0,0,1,1.191-2.6c1.624.325,2.49.974,2.706,2.382C101.065,386.585,100.848,387.776,99.441,387.884Z" transform="translate(-1.149 -2.294)" fill="none" stroke="#444" stroke-width="0.43"/>
              <path id="Path_147842" data-name="Path 147842" d="M299.4-27.5c2.382,2.49,3.139,5.737,3.248,8.985,0,1.949,1.3,4.655-2.382,5.2-4.763.65-7.578-.65-8.227-4.222-.325-1.84-.541-3.572-1.624-5.088-.758-.866-1.624-1.624-2.923-1.3-1.407.325-1.407,1.516-1.407,2.706,0,3.356.325,6.712-3.572,8.552-1.083.433-.758,3.139.866,2.6,5.737-1.949,10.176,3.681,16.454,1.732a74.26,74.26,0,0,1-17.97,16.779c-6.17,4.33-13.748,8.119-22.083,7.686a3.749,3.749,0,0,0-3.139,1.3c-4.547,3.789-5.3,9.634-8.227,14.073C244.3,37.559,239,42.971,230.876,44.054c-3.248.433-7.686-.325-8.335,4.871-4.763.65-2.273,3.464-2.6,6.17-.65,4.547,1.516,9.959-2.815,13.64-6.712,5.737-4.005,14.506-7.036,21.542a24.991,24.991,0,0,0-2.165,7.145c-.108,1.732-1.84,2.057-3.248,1.516-1.949-.758-3.681-1.516-4.871-3.572-2.057-3.464-4.114-7.9-9.634-4.763a1.7,1.7,0,0,1-2.273-.433c-1.732-3.572-5.846-5.521-6.387-10.067-.433-3.248-3.139-5.737-4.655-8.66-2.165-4.005-2.923-8.66-5.954-12.232-.108-.108-.216-.217-.216-.325-.217-7.253-3.248-13.531-6.928-19.593-.433-.758.108-2.165.325-3.248.433-2.6,1.407-5.088-1.083-7.361-.974-.866-.433-2.382-.325-3.572.216-4.222,3.031-7.578,3.681-11.8.217-1.624,1.624-3.139,4.114-2.273,3.248,1.083,4.871-.65,4.547-3.9-.325-2.6.758-5.088.325-7.794-.974-6.5-6.928-7.361-10.933-10.5-.974-.758-2.49-1.083-3.139-2.382-.433-.866-1.407-1.516-.65-2.6.65-.974,1.624-.758,2.6-.541,2.6.541,5.2.866,7.253,2.923.866.866,2.165,2.273,3.572.758a2.772,2.772,0,0,0-.216-4.114c-2.382-1.516-2.923-4.655-6.062-5.413-2.815-.65-.65-3.031-1.083-4.547H299.4Z" transform="translate(13.23 -2.269)" fill="none" stroke="#444" stroke-width="0.43"/>
              <path id="Path_147843" data-name="Path 147843" d="M774.119,393.171c-.649-4.222.433-6.17,4.98-4.871,2.165.65,4.222,0,4.871-2.6.217-.866.541-1.84,1.407-1.949,7.145-.433,9.2-8.66,15.8-10.176,2.057-.433,3.139-3.356,4.438-5.3,1.732-2.6,3.789-3.356,5.846-.217.433.541.758,1.407,1.3,1.516,4.871,1.516,3.572,3.572,1.083,6.6-3.789,4.655-3.681,7.578,0,12.449,1.191,1.516,1.84,2.49-.649,3.248-.649.217-1.624.758-1.624,1.191.325,6.279-8.335,9.31-6.17,16.238a2.023,2.023,0,0,1-1.516,2.6c-1.84.65-3.9,1.516-5.521,0-2.49-2.382-4.871-2.6-8.119-1.84-5.3,1.083-9.959-2.273-12.449-7.361C776.284,399.558,772.928,397.176,774.119,393.171Z" transform="translate(63.853 30.199)" fill="none" stroke="#444" stroke-width="0.43"/>
              <path id="Path_147844" data-name="Path 147844" d="M308.367,138.844c-2.273-1.949-4.98-2.6-8.335-3.681,4.222-2.165,5.3-5.088,3.681-8.985-.541-1.407.866-1.949,2.057-1.84,3.572.217,4.222-2.815,3.681-4.655-.758-2.49.325-7.794-5.629-5.954-1.624.541-5.737-6.5-6.387-8.877-.974-3.572.108-7.578-2.6-10.717-.758-.866-.65-2.057.65-2.273,2.706-.433,3.464-2.706,4.114-4.763.758-2.382,2.49-3.248,4.547-3.681,1.191-.216,2.706-.65,3.572.541.974,1.407-.433,2.273-1.191,3.139s-1.624,1.624-1.191,2.923c.541,1.407,1.84,1.516,3.139,1.624,5.521.541,5.521.541,3.681,5.846-.108.216-.108.541-.325.758-2.706,3.464-.541,6.062,1.191,9.2,3.031,5.521,8.444,9.743,9.526,16.346a5.754,5.754,0,0,0,4.438,4.98c1.84.541,3.139,2.057,2.382,3.789-1.083,2.49-4.005,4.33-1.732,7.578.325.433-1.083,1.407-2.057,1.624-3.356.758-6.712,1.732-10.284,1.732-3.139,0-6.279-.433-9.093,2.057-1.191.974-3.681,1.191-4.655-.108-1.407-1.84.866-2.923,2.057-3.9A20.235,20.235,0,0,1,308.367,138.844Z" transform="translate(24.288 6.862)" fill="none" stroke="#444" stroke-width="0.43"/>
              <path id="Path_147845" data-name="Path 147845" d="M289.223,57.155c3.789-4.114,2.382-8.444-2.815-10.176,0-.866.758-.974,1.3-1.191a2.955,2.955,0,0,0,2.165-3.9c-.541-1.949-2.49-1.949-4.114-1.949-1.191,0-3.031,2.165-3.356-.108-.325-1.84,1.082-4.98,2.706-5.2,2.923-.325,2.815-1.84,2.382-4.438,3.248,1.949,5.846,3.464,6.062,6.82.217,2.165.758,4.114,3.248,3.9,1.949-.217,1.732-2.382,1.949-4.005a3.652,3.652,0,0,1,.433-1.3c1.516.541,2.815,2.382,4.33-.433,1.083-2.165,3.789-.325,5.846-.541,2.706-.325,5.3-.108,6.387-3.356.216-.541,1.082-1.083,1.191-.758.974,2.6,5.2,1.083,5.521,4.547a6.177,6.177,0,0,0,2.815,4.005c3.356,2.6,3.248,5.413.866,8.66-3.464,4.871-8.985,7.036-13.64,10.392-5.954,4.222-11.15,4.222-16.887-.325C294.095,56.83,291.713,57.371,289.223,57.155Z" transform="translate(23.298 2.492)" fill="none" stroke="#444" stroke-width="0.43"/>
              <path id="Path_147846" data-name="Path 147846" d="M718.8,371.8h.866c9.2.541,14.4,7.361,20.676,12.774,3.139,2.815,7.9,3.572,11.475,6.279,2.165,1.732,3.572,3.464,2.815,6.279-.325,1.3-.217,2.273,1.191,2.49,1.84.325,2.382,1.732,3.247,3.031.974,1.516,1.732,5.413,3.572.433.433-1.191,1.84-.433,2.49.217,1.191,1.191,2.706,3.356,1.3,4.222-3.031,2.165-2.165,4.871-2.165,7.469-.108,4.438-2.706,6.6-6.17,4.114-6.17-4.222-12.449-8.552-15.7-15.7a35.082,35.082,0,0,0-4.871-8.227c-3.139-3.572-4.222-8.335-8.335-11.475-2.273-1.732-3.789-4.763-6.6-5.954C719.883,376.671,719.666,374.29,718.8,371.8Z" transform="translate(59.309 30.678)" fill="none" stroke="#444" stroke-width="0.43"/>
              <path id="Path_147847" data-name="Path 147847" d="M283.6,134.693c-3.9,0-4.871-1.516-3.139-4.655a9.091,9.091,0,0,0,.65-8.335c-1.624-4.005-1.082-5.2,3.031-6.062a3.445,3.445,0,0,0,2.923-2.923c.758-3.356,4.871-5.2,8.768-3.572a4.833,4.833,0,0,1,2.815,6.712,6.234,6.234,0,0,0-.217,2.815c.974,6.062-1.3,9.959-7.036,12.341C288.473,131.987,286.741,135.126,283.6,134.693Z" transform="translate(23.073 8.956)" fill="none" stroke="#444" stroke-width="0.43"/>
              <path id="Path_147848" data-name="Path 147848" d="M161.637,176.24l.325-.325,1.3-.65.108-.108c.108-.108.216-.108.325-.216h0c.541-2.273,2.49-4.33.217-7.469-1.3-1.949-1.732-3.789-4.222-3.464-3.031.433-4.114-1.624-5.737-3.464-1.407-1.516-1.84-1.191.108-5.3.216-.433.325-.758.541-1.191a2.195,2.195,0,0,0-.758-2.923c-1.3-.866-2.057.108-2.706,1.083-1.624,2.382-3.356,4.763-4.222,7.686a51.558,51.558,0,0,1-6.062,13.1c-1.624,2.49-.108,2.706,1.624,2.6,3.681-.108,7.145.758,10.825.866,2.706,0,4.005.65,2.273,4.33C158.065,179.054,159.689,177.106,161.637,176.24Z" transform="translate(11.565 12.442)" fill="none" stroke="#444" stroke-width="0.43"/>
              <path id="Path_147849" data-name="Path 147849" d="M27.5,58.589c6.5-5.3,2.923-12.232,4.763-17.97.541-1.84.65-3.464,2.923-4.005,1.949-.433,3.248-.217,2.165,2.165-.974,1.949-.108,1.732,1.3,2.815,4.33,3.356,10.176,5.3,12.449,11.042a3.917,3.917,0,0,0,2.923,2.706c1.624.325,2.6,1.3,1.949,2.923a2.831,2.831,0,0,1-3.789,1.624,8.79,8.79,0,0,1-4.655-3.356c-1.407-1.84-3.139-3.248-4.98.108a26.863,26.863,0,0,1-4.438,5.521c-.974,1.083-2.923,1.949-3.356,0C34,58.48,31.4,58.372,27.5,58.589Z" transform="translate(2.269 3.006)" fill="none" stroke="#444" stroke-width="0.43"/>
              <path id="Path_147850" data-name="Path 147850" d="M818.367,395.133c1.624,3.572,3.9,4.763,7.794,2.706a7.633,7.633,0,0,1,8.119.433c-1.083,1.624-2.273.866-3.572.65-3.789-.65-5.3,1.191-4.005,4.763.974,2.706,1.624,5.629,3.9,7.686,1.191,1.083,1.191,2.49.974,3.9-.108.758-.325,1.407-1.3,1.3-2.273-.325-6.928-6.387-6.928-8.985,0-.758.758-1.732-.433-2.057-1.083-.325-1.84.541-2.273,1.407-1.191,2.273-.541,4.655-.649,7.036-.108,1.732-.433,3.248-2.382,3.139-2.273-.108-1.407-1.84-1.083-3.139a4.986,4.986,0,0,0-1.732-5.521c-1.84-1.624-1.624-2.057.541-2.815.974-.325.541-1.191.541-1.732a15.878,15.878,0,0,1,1.84-8.877c.108-.108.108-.325.217-.325C818.042,394.808,818.151,395.025,818.367,395.133Z" transform="translate(67.127 32.567)" fill="none" stroke="#444" stroke-width="0.43"/>
              <path id="Path_147851" data-name="Path 147851" d="M801.939,427.982c-5.3,1.083-10.392-.433-15.588-.65-5.521-.217-10.717-2.706-16.346-2.382a9.3,9.3,0,0,1-7.686-3.572c-.541-.65-2.057-.65-1.407-2.057a2.5,2.5,0,0,1,2.273-1.516,13.19,13.19,0,0,1,8.768,1.949c3.356,2.057,6.82,3.139,10.5,1.083,2.165-1.191,4.005.433,5.954.974,1.624.325,4.547-1.083,3.789,2.706a1.713,1.713,0,0,0,.974.65C796.635,424.627,798.8,427.549,801.939,427.982Z" transform="translate(62.771 34.466)" fill="none" stroke="#444" stroke-width="0.43"/>
              <path id="Path_147852" data-name="Path 147852" d="M43.6,297.5c7.794.108,15.588-.108,22.624,4.114,4.114,2.49,8.011,5.413,12.557,7.145.866.325,2.057.541,1.949,1.84-.216,1.191-1.407,1.191-2.382,1.191a46.3,46.3,0,0,1-6.712,0c-2.706-.433-3.789-3.139-5.629-4.763-2.165-1.949-3.9-3.681-7.036-3.464C53.018,303.887,48.9,299.232,43.6,297.5Z" transform="translate(3.597 24.547)" fill="none" stroke="#444" stroke-width="0.43"/>
              <path id="Path_147853" data-name="Path 147853" d="M828.4,324.014c.108,1.624-1.516,2.815-2.273,4.33-.758,1.3-2.49,2.706-1.732,4.005,1.84,3.356,0,6.387-.216,9.526-.108.866-.108,2.273-1.407,2.165s-2.49-1.407-1.84-2.706c1.516-3.464.65-6.062-2.057-8.444-.758-.65-1.3-2.923-.866-3.464,2.273-2.49,1.407-5.521,2.057-8.227.433-1.732.649-4.222,3.464-3.9,2.6.325,5.088.974,4.655,4.547A3.974,3.974,0,0,0,828.4,324.014Z" transform="translate(67.483 26.179)" fill="none" stroke="#444" stroke-width="0.43"/>
              <path id="Path_147854" data-name="Path 147854" d="M827.6,362.318c1.191-1.949,2.815-3.356,4.222-2.815,3.681,1.3,5.629-.974,8.011-2.815,2.706-2.057,4.114-1.407,4.763,1.948.325,1.516.216,3.031.541,4.547s0,2.49-1.624,2.6c-1.3.108-2.49.541-2.706,2.057-.108.974,1.083,2.923-1.3,2.6-1.732-.217-3.572-.758-4.438-2.706-.758-1.732-4.547-4.547-6.279-4.871C828.574,362.751,828.141,362.535,827.6,362.318Z" transform="translate(68.286 29.334)" fill="none" stroke="#444" stroke-width="0.43"/>
              <path id="Path_147855" data-name="Path 147855" d="M85.4,311.926c5.954-.866,11.366-.217,16.238,3.139.974.65,2.706.866,2.382,2.49-.325,1.407-1.949.758-2.923.758-3.139.108-6.5,1.624-8.985,1.624-3.789-.108-8.011-.108-11.908-1.948,1.949-.108,4.438.325,5.846-.65C88.1,315.824,85.4,313.875,85.4,311.926Z" transform="translate(6.617 25.709)" fill="none" stroke="#444" stroke-width="0.43"/>
              <path id="Path_147856" data-name="Path 147856" d="M655.8,361.176c.541-1.732.974-3.464,1.516-5.2.325-1.191,1.191-1.3,1.84-.65,2.382,2.273,5.088,4.547,5.521,8.119a5.8,5.8,0,0,1-2.057,5.2c-2.923,2.382-5.3,1.624-6.062-1.949C656.233,364.856,656.666,362.908,655.8,361.176Z" transform="translate(54.111 29.286)" fill="none" stroke="#444" stroke-width="0.43"/>
              <path id="Path_147857" data-name="Path 147857" d="M76.685,16.071c0,2.273.325,4.33-1.84,5.413-1.949.974-4.655,2.49-6.17.65-1.949-2.382-.541-5.629.433-8.227.758-2.273,3.139-3.139,5.629-2.49C77.335,12.174,76.469,14.555,76.685,16.071Z" transform="translate(5.586 0.925)" fill="none" stroke="#444" stroke-width="0.43"/>
              <path id="Path_147858" data-name="Path 147858" d="M818.9,296.8c.866-2.6,1.516-5.737,4.438-7.578.541-.325,1.407-.65,1.84.217,1.083,2.706-.217,5.088-.974,7.578a3.876,3.876,0,0,1-.433,1.191c-.758,1.191-1.082,3.356-2.923,2.923C819.225,300.7,819.008,298.752,818.9,296.8Z" transform="translate(67.569 23.836)" fill="none" stroke="#444" stroke-width="0.43"/>
              <path id="Path_147859" data-name="Path 147859" d="M367.808,216.814c.325-1.949-.974-5.737,2.815-5.413,3.681.325,2.706,3.681,2.165,6.279-.108.541-.108,1.083-.217,1.624-.325,1.84-1.191,3.248-3.248,3.031-2.057-.108-1.516-1.949-1.624-3.248A13.841,13.841,0,0,0,367.808,216.814Z" transform="translate(30.339 17.441)" fill="none" stroke="#444" stroke-width="0.43"/>
              <path id="Path_147860" data-name="Path 147860" d="M779.3,310.9c.649,0,1.84,0,1.948,1.624.108,1.732-3.572,5.846-5.3,5.737s-3.464-.325-3.247-2.815C772.81,313.173,776.057,310.9,779.3,310.9Z" transform="translate(63.755 25.653)" fill="none" stroke="#444" stroke-width="0.43"/>
              <path id="Path_147861" data-name="Path 147861" d="M528.7,3.063c.325-2.273.541-4.763,3.572-4.763a3.444,3.444,0,0,1,3.572,3.464,4.67,4.67,0,0,1-4.438,4.763C528.917,6.852,528.917,4.8,528.7,3.063Z" transform="translate(43.624 -0.14)" fill="none" stroke="#444" stroke-width="0.43"/>
              <path id="Path_147862" data-name="Path 147862" d="M839.109,388.2c-.866,2.815-2.815,3.356-5.3,3.356-5.088.108-10.284-.65-15.8.758,2.057-2.49,3.464-4.005,6.928-3.572C829.475,389.5,834.454,391.881,839.109,388.2Z" transform="translate(67.494 32.031)" fill="none" stroke="#444" stroke-width="0.43"/>
              <path id="Path_147863" data-name="Path 147863" d="M835.385,353.474a10.705,10.705,0,0,0-2.6.974c-1.083.758-1.732,2.6-3.356,1.516-1.407-.866-.216-2.273-.108-3.464,0-.217.217-.65.108-.758-1.082-1.516-3.031-3.356-.433-4.438.866-.433,3.247,2.057,4.655,3.356C834.411,351.309,834.736,352.5,835.385,353.474Z" transform="translate(68.295 28.652)" fill="none" stroke="#444" stroke-width="0.43"/>
              <path id="Path_147864" data-name="Path 147864" d="M47.787,65.831a4.643,4.643,0,0,1-4.222,4.33c-1.407.216-2.057-.65-2.165-1.84-.108-2.815,1.84-3.681,4.114-4.114C46.813,63.883,47.679,64.316,47.787,65.831Z" transform="translate(3.416 5.29)" fill="none" stroke="#444" stroke-width="0.43"/>
              <path id="Path_147865" data-name="Path 147865" d="M813.825,428.5c-3.681.974-7.253,1.3-10.825-.217C806.681,429.043,810.361,425.254,813.825,428.5Z" transform="translate(66.257 35.246)" fill="none" stroke="#444" stroke-width="0.43"/>
              <path id="Path_147866" data-name="Path 147866" d="M164.552,173.8l-.541.541a15.173,15.173,0,0,1-2.6,1.624c-.433,1.516-.108,2.6,1.624,3.139,1.191.325,1.84.108,2.273-.974.541-1.407.866-2.6-.325-3.789A.762.762,0,0,0,164.552,173.8Z" transform="translate(13.304 14.34)" fill="none" stroke="#444" stroke-width="0.43"/>
              <path id="Path_147867" data-name="Path 147867" d="M834.535,341.787c-2.382-1.191-3.464-3.572-5.954-3.789a1.094,1.094,0,0,1-.974-1.516,1.406,1.406,0,0,1,2.057-.866C831.721,337.132,834.535,338,834.535,341.787Z" transform="translate(68.279 27.674)" fill="none" stroke="#444" stroke-width="0.43"/>
              <path id="Path_147868" data-name="Path 147868" d="M129.918,164.689c-4.005-.217-6.712-.974-9.418-3.789C124.181,161.225,127.1,161.333,129.918,164.689Z" transform="translate(9.943 13.276)" fill="none" stroke="#444" stroke-width="0.43"/>
              <path id="Path_147869" data-name="Path 147869" d="M370.123,208.992c-1.191-2.273-2.382-4.005-.974-5.954a1.178,1.178,0,0,1,2.057.216C372.18,205.2,371.963,206.936,370.123,208.992Z" transform="translate(30.406 16.711)" fill="none" stroke="#444" stroke-width="0.43"/>
              <path id="Path_147870" data-name="Path 147870" d="M814.8,432.443c3.031-1.083,4.763-.541,6.17,1.082.108.217,0,.974-.216.974C818.481,435.257,817.182,433.742,814.8,432.443Z" transform="translate(67.23 35.635)" fill="none" stroke="#444" stroke-width="0.43"/>
              <path id="Path_147871" data-name="Path 147871" d="M464.8,242.983c1.948-2.057,3.464-3.139,6.062-1.84C469.13,242.767,467.723,243.958,464.8,242.983Z" transform="translate(38.351 19.851)" fill="none" stroke="#444" stroke-width="0.43"/>
              <path id="Path_147872" data-name="Path 147872" d="M80.325,13.8c1.083.108,1.84.65,1.84,1.732s-.974,1.191-1.732,1.191c-1.083,0-1.84-.433-1.732-1.732C78.7,14.017,79.35,13.8,80.325,13.8Z" transform="translate(6.493 1.139)" fill="none" stroke="#444" stroke-width="0.43"/>
              <path id="Path_147873" data-name="Path 147873" d="M56.869,73.719C55.678,73.178,56,72.1,56,71.229c0-1.083.433-1.949,1.732-1.624,1.191.325.65,1.3.541,2.057C58.276,72.636,58.168,73.5,56.869,73.719Z" transform="translate(4.618 5.738)" fill="none" stroke="#444" stroke-width="0.43"/>
              <path id="Path_147874" data-name="Path 147874" d="M819.2,428.037c2.165-.974,4.114-.325,6.712.65C823.1,429.985,821.149,428.361,819.2,428.037Z" transform="translate(67.593 35.278)" fill="none" stroke="#444" stroke-width="0.43"/>
              <path id="Path_147875" data-name="Path 147875" d="M64.2,318.222c2.165-.325,3.789-.65,6.062.65C67.772,319.629,66.257,320.387,64.2,318.222Z" transform="translate(5.297 26.233)" fill="none" stroke="#444" stroke-width="0.43"/>
              <path id="Path_147876" data-name="Path 147876" d="M409.027,106.1c.758,1.516.866,2.706-.217,3.789a1.258,1.258,0,0,1-1.083,0C406.97,108.373,407.4,107.291,409.027,106.1Z" transform="translate(33.612 8.754)" fill="none" stroke="#444" stroke-width="0.43"/>
              <path id="Path_147877" data-name="Path 147877" d="M430.4,240.418c2.057-.758,3.572.541,5.846.974C433.648,242.691,432.024,241.5,430.4,240.418Z" transform="translate(35.513 19.818)" fill="none" stroke="#444" stroke-width="0.43"/>
              <path id="Path_147878" data-name="Path 147878" d="M829.549,344.434c-1.191-.216-2.057-.541-1.949-1.624.108-.974.65-1.624,1.624-1.407a1.766,1.766,0,0,1,1.3,1.84C830.415,344.218,830.091,344.651,829.549,344.434Z" transform="translate(68.286 28.166)" fill="none" stroke="#444" stroke-width="0.43"/>
              <path id="Path_147879" data-name="Path 147879" d="M423,102.295c.758-1.949,1.732-2.815,3.356-2.49.217,0,.541.65.433.866C426.139,102.187,424.732,102.295,423,102.295Z" transform="translate(34.902 8.23)" fill="none" stroke="#444" stroke-width="0.43"/>
              <path id="Path_147880" data-name="Path 147880" d="M39.4,301.773c0-1.3.433-2.057,1.516-2.273.217,0,.866.433.758.65C41.673,301.34,40.7,301.665,39.4,301.773Z" transform="translate(3.251 24.712)" fill="none" stroke="#444" stroke-width="0.43"/>
            </g>
          </g>
        </g>
        <path id="Path_147882" data-name="Path 147882" d="M393.7,161.2h62.1a32.926,32.926,0,0,1,32.9,32.9v74.6a12.5,12.5,0,0,0,12.5,12.5h0" transform="translate(37.309 18.017)" fill="none" stroke="#5151fc" stroke-miterlimit="10" stroke-width="0.5" stroke-dasharray="6 6"/>
      </g>
      <g id="Livello_4" transform="translate(7.065 13.019)">
        <g id="Le_citt_invisibili_1_" transform="translate(801.2 202.335)">
          <circle id="Ellipse_33229" data-name="Ellipse 33229" cx="5" cy="5" r="5" transform="translate(67.235 0.013)" fill="#f7f8f9"/>
          <path id="Path_147883" data-name="Path 147883" d="M810.2,203.2v9a2.946,2.946,0,0,1-3,3h0" transform="translate(-739.665 -197.787)" fill="none" stroke="#91919b" stroke-miterlimit="10" stroke-width="0.5" opacity="0.75"/>
          <circle id="Ellipse_33230" data-name="Ellipse 33230" cx="2" cy="2" r="2" transform="translate(68.835 3.413)" fill="#f7f8f9"/>
          <g id="Group_23924" data-name="Group 23924" transform="translate(15.62 11.37)">
            <text id="Reggia_di_Kemenf" data-name="Reggia di Kemenf" transform="translate(0 8)" font-size="8" font-family="HKGrotesk-LightItalic, HK Grotesk" font-weight="300" font-style="italic"><tspan x="0" y="0">Reggia di Kemenf</tspan></text>
          </g>
          <circle id="Ellipse_33231" data-name="Ellipse 33231" cx="5" cy="5" r="5" transform="translate(66.235 0.013)" fill="#91919b" opacity="0.75"/>
          <circle id="Ellipse_33232" data-name="Ellipse 33232" cx="2" cy="2" r="2" transform="translate(68.835 3.413)" fill="#91919b" opacity="0.75"/>
          <g id="Group_23925" data-name="Group 23925">
            <text id="Impero_Mongolo" data-name="Impero Mongolo" transform="translate(0 8)" font-size="8" font-family="HKGrotesk-Light, HK Grotesk" font-weight="300"><tspan x="0" y="0">Impero Mongolo</tspan></text>
          </g>
        </g>
        <g id="Castello_d_x27_If_2_" transform="translate(328.86 195.151)">
          <circle id="Ellipse_33233" data-name="Ellipse 33233" cx="5" cy="5" r="5" transform="translate(45.235 1.186)" fill="#f7f8f9"/>
          <circle id="Ellipse_33234" data-name="Ellipse 33234" cx="5" cy="5" r="5" transform="translate(45.235 1.186)" fill="#91919b" opacity="0.75"/>
          <g id="Group_23926" data-name="Group 23926">
            <text id="Castello_d_If" data-name="Castello dIf" transform="translate(0 8)" font-size="8" font-family="HKGrotesk-LightItalic, HK Grotesk" font-weight="300" font-style="italic"><tspan x="0" y="0">Castello dIf</tspan></text>
          </g>
        </g>
        <path id="Path_147884" data-name="Path 147884" d="M340.8,131.6h0a20.03,20.03,0,0,0-17.3,10h0a19.868,19.868,0,0,0,0,20h0a20.03,20.03,0,0,0,17.3,10h0a20.03,20.03,0,0,0,17.3-10h0a19.868,19.868,0,0,0,0-20h0A19.789,19.789,0,0,0,340.8,131.6Z" transform="translate(20.734 -1.191)" fill="#f7f8f9" stroke="#c6093f" stroke-miterlimit="10" stroke-width="0.75"/>
        <g id="Group_23931" data-name="Group 23931" transform="translate(346.591 135.591)">
          <g id="Group_23927" data-name="Group 23927">
            <path id="SVGID_3_" d="M340.8,136.6h0a15.077,15.077,0,0,0-13,7.5h0a14.9,14.9,0,0,0,0,15h0a15.077,15.077,0,0,0,13,7.5h0a15.077,15.077,0,0,0,13-7.5h0a14.9,14.9,0,0,0,0-15h0A14.751,14.751,0,0,0,340.8,136.6Z" transform="translate(-325.775 -136.6)" fill="#f7f8f9"/>
          </g>
          <g id="Group_23929" data-name="Group 23929">
            <g id="Group_23928" data-name="Group 23928" clip-path="url(#clip-path-2)">
              <line id="Line_7248" data-name="Line 7248" x2="59.5" y2="59.5" transform="translate(-34.375 13.8)" fill="none" stroke="#f36" stroke-miterlimit="10" stroke-width="1"/>
              <line id="Line_7249" data-name="Line 7249" x2="59.5" y2="59.5" transform="translate(-32.375 12.8)" fill="none" stroke="#f36" stroke-miterlimit="10" stroke-width="1"/>
              <line id="Line_7250" data-name="Line 7250" x2="59.5" y2="59.5" transform="translate(-30.375 11.8)" fill="none" stroke="#f36" stroke-miterlimit="10" stroke-width="1"/>
              <line id="Line_7251" data-name="Line 7251" x2="59.5" y2="59.5" transform="translate(-28.375 10.8)" fill="none" stroke="#f36" stroke-miterlimit="10" stroke-width="1"/>
              <line id="Line_7252" data-name="Line 7252" x2="59.5" y2="59.5" transform="translate(-26.375 9.8)" fill="none" stroke="#f36" stroke-miterlimit="10" stroke-width="1"/>
              <line id="Line_7253" data-name="Line 7253" x2="59.5" y2="59.5" transform="translate(-24.375 8.8)" fill="none" stroke="#f36" stroke-miterlimit="10" stroke-width="1"/>
              <line id="Line_7254" data-name="Line 7254" x2="59.5" y2="59.5" transform="translate(-22.375 7.8)" fill="none" stroke="#f36" stroke-miterlimit="10" stroke-width="1"/>
              <line id="Line_7255" data-name="Line 7255" x2="59.5" y2="59.5" transform="translate(-20.375 6.8)" fill="none" stroke="#f36" stroke-miterlimit="10" stroke-width="1"/>
              <line id="Line_7256" data-name="Line 7256" x2="59.5" y2="59.5" transform="translate(-18.375 5.8)" fill="none" stroke="#f36" stroke-miterlimit="10" stroke-width="1"/>
              <line id="Line_7257" data-name="Line 7257" x2="59.5" y2="59.5" transform="translate(-16.375 4.8)" fill="none" stroke="#f36" stroke-miterlimit="10" stroke-width="1"/>
              <line id="Line_7258" data-name="Line 7258" x2="59.5" y2="59.5" transform="translate(-14.375 3.8)" fill="none" stroke="#f36" stroke-miterlimit="10" stroke-width="1"/>
              <line id="Line_7259" data-name="Line 7259" x2="59.5" y2="59.5" transform="translate(-12.375 2.8)" fill="none" stroke="#f36" stroke-miterlimit="10" stroke-width="1"/>
              <line id="Line_7260" data-name="Line 7260" x2="59.5" y2="59.5" transform="translate(-10.375 1.8)" fill="none" stroke="#f36" stroke-miterlimit="10" stroke-width="1"/>
              <line id="Line_7261" data-name="Line 7261" x2="59.5" y2="59.5" transform="translate(-8.375 0.8)" fill="none" stroke="#f36" stroke-miterlimit="10" stroke-width="1"/>
              <line id="Line_7262" data-name="Line 7262" x2="59.5" y2="59.5" transform="translate(-6.375 -0.2)" fill="none" stroke="#f36" stroke-miterlimit="10" stroke-width="1"/>
              <line id="Line_7263" data-name="Line 7263" x2="59.5" y2="59.5" transform="translate(-4.375 -1.2)" fill="none" stroke="#f36" stroke-miterlimit="10" stroke-width="1"/>
              <line id="Line_7264" data-name="Line 7264" x2="59.5" y2="59.5" transform="translate(-2.375 -2.2)" fill="none" stroke="#f36" stroke-miterlimit="10" stroke-width="1"/>
              <line id="Line_7265" data-name="Line 7265" x2="59.5" y2="59.5" transform="translate(-0.375 -3.2)" fill="none" stroke="#f36" stroke-miterlimit="10" stroke-width="1"/>
              <line id="Line_7266" data-name="Line 7266" x2="59.5" y2="59.5" transform="translate(1.625 -4.2)" fill="none" stroke="#f36" stroke-miterlimit="10" stroke-width="1"/>
              <line id="Line_7267" data-name="Line 7267" x2="59.5" y2="59.5" transform="translate(3.625 -5.2)" fill="none" stroke="#f36" stroke-miterlimit="10" stroke-width="1"/>
              <line id="Line_7268" data-name="Line 7268" x2="59.5" y2="59.5" transform="translate(5.625 -6.2)" fill="none" stroke="#f36" stroke-miterlimit="10" stroke-width="1"/>
              <line id="Line_7269" data-name="Line 7269" x2="59.5" y2="59.5" transform="translate(7.625 -7.2)" fill="none" stroke="#f36" stroke-miterlimit="10" stroke-width="1"/>
              <line id="Line_7270" data-name="Line 7270" x2="59.5" y2="59.5" transform="translate(9.125 -8.7)" fill="none" stroke="#f36" stroke-miterlimit="10" stroke-width="1"/>
              <line id="Line_7271" data-name="Line 7271" x2="59.5" y2="59.5" transform="translate(10.625 -10.2)" fill="none" stroke="#f36" stroke-miterlimit="10" stroke-width="1"/>
              <line id="Line_7272" data-name="Line 7272" x2="59.5" y2="59.5" transform="translate(12.125 -11.7)" fill="none" stroke="#f36" stroke-miterlimit="10" stroke-width="1"/>
            </g>
          </g>
          <g id="Group_23930" data-name="Group 23930">
            <path id="Path_147886" data-name="Path 147886" d="M340.8,136.6h0a15.077,15.077,0,0,0-13,7.5h0a14.9,14.9,0,0,0,0,15h0a15.077,15.077,0,0,0,13,7.5h0a15.077,15.077,0,0,0,13-7.5h0a14.9,14.9,0,0,0,0-15h0A14.751,14.751,0,0,0,340.8,136.6Z" transform="translate(-325.775 -136.6)" fill="none" stroke="#c6093f" stroke-miterlimit="10" stroke-width="0.25"/>
          </g>
        </g>
        <circle id="Ellipse_33235" data-name="Ellipse 33235" cx="2" cy="2" r="2" transform="translate(367.524 153.06)" fill="#c6093f"/>
        <circle id="Ellipse_33236" data-name="Ellipse 33236" cx="2" cy="2" r="2" transform="translate(358.63 145.859)" fill="#c6093f"/>
        <g id="Group_23932" data-name="Group 23932" transform="translate(370.16 116.095)">
          <text id="Faubourg_Saint-Honor" data-name="Faubourg Saint-Honor" transform="translate(0 8)" font-size="8" font-family="HKGrotesk-LightItalic, HK Grotesk" font-weight="300" font-style="italic"><tspan x="0" y="0">Faubourg Saint-Honor</tspan></text>
        </g>
        <path id="Path_147887" data-name="Path 147887" d="M339.7,148.8v19.5a6.487,6.487,0,0,1-6.5,6.5h-.7" transform="translate(20.598 0.043)" fill="none" stroke="#c6093f" stroke-miterlimit="10" stroke-width="0.5"/>
        <g id="Group_23933" data-name="Group 23933" transform="translate(382.592 166.93)">
          <text id="Zoo_di_Vincennes" data-name="Zoo di Vincennes" transform="translate(0 8)" font-size="8" font-family="HKGrotesk-LightItalic, HK Grotesk" font-weight="300" font-style="italic"><tspan x="0" y="0">Zoo di Vincennes</tspan></text>
        </g>
        <g id="Group_23934" data-name="Group 23934" transform="translate(288.696 169.115)">
          <text id="Quartiere_Latino" data-name="Quartiere Latino" transform="translate(0 8)" font-size="8" font-family="HKGrotesk-LightItalic, HK Grotesk" font-weight="300" font-style="italic"><tspan x="0" y="0">Quartiere Latino</tspan></text>
        </g>
        <circle id="Ellipse_33237" data-name="Ellipse 33237" cx="2" cy="2" r="2" transform="translate(364.053 130.802)" fill="#c6093f"/>
        <g id="Group_23935" data-name="Group 23935" transform="translate(275.259 142.752)">
          <text id="Bois_de_Boulogne" data-name="Bois de Boulogne" transform="translate(0 8)" font-size="8" font-family="HKGrotesk-LightItalic, HK Grotesk" font-weight="300" font-style="italic"><tspan x="0" y="0">Bois de Boulogne</tspan></text>
        </g>
        <circle id="Ellipse_33238" data-name="Ellipse 33238" cx="2" cy="2" r="2" transform="translate(344.312 159.28)" fill="#c6093f"/>
        <circle id="Ellipse_33239" data-name="Ellipse 33239" cx="2" cy="2" r="2" transform="translate(341.6 147.278)" fill="#c6093f"/>
        <g id="Group_23936" data-name="Group 23936" transform="translate(281.394 156.735)">
          <text id="Champs_Elyses" data-name="Champs Elyses" transform="translate(0 8)" font-size="8" font-family="HKGrotesk-LightItalic, HK Grotesk" font-weight="300" font-style="italic"><tspan x="0" y="0">Champs Elyses</tspan></text>
        </g>
        <path id="Path_147888" data-name="Path 147888" d="M354.2,174h0a6.38,6.38,0,0,1-6.4-6.4v-12" transform="translate(21.87 0.437)" fill="none" stroke="#c6093f" stroke-miterlimit="10" stroke-width="0.5"/>
        <text id="Parigi" transform="translate(388.852 161.919)" font-size="10" font-family="HKGrotesk-Light, HK Grotesk" font-weight="300"><tspan x="0" y="0">Parigi</tspan></text>
        <g id="New_York_2_" transform="translate(0 158.404)">
          <g id="Group_23937" data-name="Group 23937" transform="translate(115.318 51.415)">
            <text id="New_York" data-name="New York" transform="translate(0 10)" font-size="10" font-family="HKGrotesk-Regular, HK Grotesk"><tspan x="0" y="0">New York</tspan></text>
          </g>
          <g id="Group_23938" data-name="Group 23938" transform="translate(62.61 31.252)">
            <path id="Path_147889" data-name="Path 147889" d="M94.4,234.8a24.081,24.081,0,0,1-20.9-12.2l-.3-.6a24.053,24.053,0,0,1,0-23.8l.3-.6a24,24,0,0,1,41.8,0l.3.6a24.053,24.053,0,0,1,0,23.8l-.3.6A24,24,0,0,1,94.4,234.8Z" transform="translate(-69.675 -185.2)" fill="#f7f8f9"/>
            <path id="Path_147890" data-name="Path 147890" d="M94.4,186A23.741,23.741,0,0,1,115,198l.3.6a23.8,23.8,0,0,1,0,23.4l-.3.6a23.682,23.682,0,0,1-41.2,0l-.3-.6a23.8,23.8,0,0,1,0-23.4l.3-.6a23.741,23.741,0,0,1,20.6-12m0-.8a24.217,24.217,0,0,0-21.2,12.4l-.3.6a24.312,24.312,0,0,0,0,24.2l.3.6a24.323,24.323,0,0,0,42.4,0l.3-.6a24.312,24.312,0,0,0,0-24.2l-.3-.6a24.336,24.336,0,0,0-21.2-12.4Z" transform="translate(-69.675 -185.2)" fill="#0505c4"/>
          </g>
          <path id="Path_147891" data-name="Path 147891" d="M94.4,185.1h0a24.95,24.95,0,0,0-21.6,12.5l-.2.4a24.759,24.759,0,0,0,0,24.7l.2.4a24.95,24.95,0,0,0,21.6,12.5h0A24.95,24.95,0,0,0,116,223.1l.2-.4a24.759,24.759,0,0,0,0-24.7l-.2-.4A25.072,25.072,0,0,0,94.4,185.1Z" transform="translate(-7.065 -153.948)" fill="none" stroke="#c6093f" stroke-miterlimit="10" stroke-width="0.75"/>
          <g id="Staten_Island_2_" transform="translate(21.922 69.152)">
            <g id="Group_23939" data-name="Group 23939" transform="translate(0 20.772)">
              <text id="Staten_Island" data-name="Staten Island" transform="translate(0 8)" font-size="8" font-family="HKGrotesk-LightItalic, HK Grotesk" font-weight="300" font-style="italic"><tspan x="0" y="0">Staten Island</tspan></text>
            </g>
            <circle id="Staten_Island_3_" cx="2" cy="2" r="2" transform="translate(51.714)" fill="#c6093f" stroke="#0505c4" stroke-miterlimit="10" stroke-width="0.25"/>
            <path id="Path_147892" data-name="Path 147892" d="M82.7,225.1v19a6.231,6.231,0,0,1-6.2,6.2h0" transform="translate(-28.986 -223.1)" fill="none" stroke="#c6093f" stroke-miterlimit="10" stroke-width="0.5"/>
          </g>
          <g id="Battery_2_" transform="translate(80.835 65.352)">
            <circle id="Battery_3_" cx="2" cy="2" r="2" fill="#c6093f" stroke="#0505c4" stroke-miterlimit="10" stroke-width="0.25"/>
            <g id="Group_23940" data-name="Group 23940" transform="translate(10.62 38.799)">
              <text id="Battery" transform="translate(0 8)" font-size="8" font-family="HKGrotesk-LightItalic, HK Grotesk" font-weight="300" font-style="italic"><tspan x="0" y="0">Battery</tspan></text>
            </g>
            <path id="Path_147893" data-name="Path 147893" d="M89.9,221.3v35.9c0,3.5,2.9,7.1,6.4,7.1h0" transform="translate(-87.9 -219.3)" fill="none" stroke="#c6093f" stroke-miterlimit="10" stroke-width="0.5"/>
          </g>
          <g id="Downtown_2_" transform="translate(84.935 61.052)">
            <circle id="Downtown_3_" cx="2" cy="2" r="2" fill="#c6093f" stroke="#0505c4" stroke-miterlimit="10" stroke-width="0.25"/>
            <g id="Group_23941" data-name="Group 23941" transform="translate(9.591 30.753)">
              <text id="Downtown" transform="translate(0 8)" font-size="8" font-family="HKGrotesk-LightItalic, HK Grotesk" font-weight="300" font-style="italic"><tspan x="0" y="0">Downtown</tspan></text>
            </g>
            <path id="Path_147894" data-name="Path 147894" d="M94,217v28.6a6.445,6.445,0,0,0,6.4,6.4h0" transform="translate(-92 -215)" fill="none" stroke="#c6093f" stroke-miterlimit="10" stroke-width="0.5"/>
          </g>
          <g id="Second_Avenue_2_" transform="translate(94.035 55.352)">
            <circle id="Second_Avenue_3_" cx="2" cy="2" r="2" fill="#c6093f" stroke="#0505c4" stroke-miterlimit="10" stroke-width="0.25"/>
            <g id="Group_23942" data-name="Group 23942" transform="translate(9.604 28.575)">
              <text id="Second_Avenue" data-name="Second Avenue" transform="translate(0 8)" font-size="8" font-family="HKGrotesk-LightItalic, HK Grotesk" font-weight="300" font-style="italic"><tspan x="0" y="0">Second Avenue</tspan></text>
            </g>
            <path id="Path_147895" data-name="Path 147895" d="M103.1,211.3v26.4a6.445,6.445,0,0,0,6.4,6.4h0" transform="translate(-101.1 -209.3)" fill="none" stroke="#c6093f" stroke-miterlimit="10" stroke-width="0.5"/>
          </g>
          <g id="Manhattan_2_" transform="translate(0 51.559)">
            <g id="Group_23943" data-name="Group 23943">
              <text id="Manhatthan" transform="matrix(1, 0.011, -0.011, 1, 0.022, 7.999)" font-size="8" font-family="HKGrotesk-LightItalic, HK Grotesk" font-weight="300" font-style="italic"><tspan x="0" y="0">Manhatthan</tspan></text>
            </g>
            <circle id="Manhattan_3_" cx="2" cy="2" r="2" transform="translate(89.135 5.093)" fill="#c6093f" stroke="#0505c4" stroke-miterlimit="10" stroke-width="0.25"/>
            <line id="Line_7273" data-name="Line 7273" x1="48.5" transform="translate(42.635 7.093)" fill="none" stroke="#c6093f" stroke-miterlimit="10" stroke-width="0.5"/>
          </g>
          <g id="Brooklyn_2_" transform="translate(99.135 62.752)">
            <circle id="Brooklyn_3_" cx="2" cy="2" r="2" fill="#c6093f" stroke="#0505c4" stroke-miterlimit="10" stroke-width="0.25"/>
            <g id="Group_23944" data-name="Group 23944" transform="translate(14.117 2.793)">
              <text id="Brooklyn" transform="translate(0 8)" font-size="8" font-family="HKGrotesk-LightItalic, HK Grotesk" font-weight="300" font-style="italic"><tspan x="0" y="0">Brooklyn</tspan></text>
            </g>
            <path id="Path_147896" data-name="Path 147896" d="M108.2,218.7v.4a6.487,6.487,0,0,0,6.5,6.5h4.5" transform="translate(-106.2 -216.7)" fill="none" stroke="#c6093f" stroke-miterlimit="10" stroke-width="0.5"/>
          </g>
          <g id="Uptown_2_" transform="translate(94.335 22.896)">
            <circle id="Uptown_3_" cx="2" cy="2" r="2" transform="translate(0 11.757)" fill="#c6093f" stroke="#0505c4" stroke-miterlimit="10" stroke-width="0.25"/>
            <g id="Group_23945" data-name="Group 23945" transform="translate(14.817)">
              <text id="Uptown" transform="translate(0 8)" font-size="8" font-family="HKGrotesk-LightItalic, HK Grotesk" font-weight="300" font-style="italic"><tspan x="0" y="0">Uptown</tspan></text>
            </g>
            <path id="Path_147897" data-name="Path 147897" d="M103.4,190.7v-.4a6.487,6.487,0,0,1,6.5-6.5h4.5" transform="translate(-101.4 -176.843)" fill="none" stroke="#c6093f" stroke-miterlimit="10" stroke-width="0.5"/>
          </g>
          <g id="Broadway_2_" transform="translate(90.735 11.945)">
            <circle id="Broadway_3_" cx="2" cy="2" r="2" transform="translate(0 25.607)" fill="#c6093f" stroke="#0505c4" stroke-miterlimit="10" stroke-width="0.25"/>
            <g id="Group_23946" data-name="Group 23946" transform="translate(12.907)">
              <text id="Broadway" transform="translate(0 8)" font-size="8" font-family="HKGrotesk-LightItalic, HK Grotesk" font-weight="300" font-style="italic"><tspan x="0" y="0">Broadway</tspan></text>
            </g>
            <path id="Path_147898" data-name="Path 147898" d="M99.8,193.5v-15a6.487,6.487,0,0,1,6.5-6.5h2.3" transform="translate(-97.8 -165.893)" fill="none" stroke="#c6093f" stroke-miterlimit="10" stroke-width="0.5"/>
          </g>
          <g id="Fifth_Avenue_2_" transform="translate(96.935 30.785)">
            <circle id="Fifth_Avenue_3_" cx="2" cy="2" r="2" transform="translate(0 10.867)" fill="#c6093f" stroke="#0505c4" stroke-miterlimit="10" stroke-width="0.25"/>
            <g id="Group_23947" data-name="Group 23947" transform="translate(29.477)">
              <text id="Fifth_Avenue" data-name="Fifth Avenue" transform="translate(0 8)" font-size="8" font-family="HKGrotesk-LightItalic, HK Grotesk" font-weight="300" font-style="italic"><tspan x="0" y="0">Fifth Avenue</tspan></text>
            </g>
            <path id="Path_147899" data-name="Path 147899" d="M106,197.7v-.4a6.487,6.487,0,0,1,6.5-6.5h19.1" transform="translate(-104 -184.733)" fill="none" stroke="#c6093f" stroke-miterlimit="10" stroke-width="0.5"/>
          </g>
          <g id="Madison_Square_2_" transform="translate(4.633 33.893)">
            <g id="Group_23948" data-name="Group 23948">
              <text id="Madison_Square" data-name="Madison Square" transform="translate(0 8)" font-size="8" font-family="HKGrotesk-LightItalic, HK Grotesk" font-weight="300" font-style="italic"><tspan x="0" y="0">Madison Square</tspan></text>
            </g>
            <circle id="Madison_Square_3_" cx="2" cy="2" r="2" transform="translate(86.502 18.66)" fill="#c6093f" stroke="#0505c4" stroke-miterlimit="10" stroke-width="0.25"/>
            <path id="Path_147900" data-name="Path 147900" d="M100.2,208.5H69.5A6.487,6.487,0,0,1,63,202v-4.1" transform="translate(-11.698 -187.84)" fill="none" stroke="#c6093f" stroke-miterlimit="10" stroke-width="0.5"/>
          </g>
          <g id="Penn_Station_2_" transform="translate(27.922 19.208)">
            <g id="Group_23949" data-name="Group 23949">
              <text id="Penn_Station" data-name="Penn Station" transform="translate(0 8)" font-size="8" font-family="HKGrotesk-LightItalic, HK Grotesk" font-weight="300" font-style="italic"><tspan x="0" y="0">Penn Station</tspan></text>
            </g>
            <circle id="Penn_Station_3_" cx="2" cy="2" r="2" transform="translate(52.814 30.044)" fill="#c6093f" stroke="#0505c4" stroke-miterlimit="10" stroke-width="0.25"/>
            <path id="Path_147901" data-name="Path 147901" d="M89.8,205.2V186.5a6.487,6.487,0,0,0-6.5-6.5H82.1" transform="translate(-34.986 -173.156)" fill="none" stroke="#c6093f" stroke-miterlimit="10" stroke-width="0.5"/>
          </g>
          <g id="Times_Square_2_" transform="translate(31.135 10.202)">
            <circle id="Times_Square_3_" cx="2" cy="2" r="2" transform="translate(54 36.05)" fill="#c6093f" stroke="#0505c4" stroke-miterlimit="10" stroke-width="0.25"/>
            <g id="Group_23950" data-name="Group 23950">
              <text id="Times_Square" data-name="Times Square" transform="translate(0 8)" font-size="8" font-family="HKGrotesk-LightItalic, HK Grotesk" font-weight="300" font-style="italic"><tspan x="0" y="0">Times Square</tspan></text>
            </g>
            <path id="Path_147902" data-name="Path 147902" d="M94.2,202.1V177.6a6.487,6.487,0,0,0-6.5-6.5H86.5" transform="translate(-38.2 -164.15)" fill="none" stroke="#c6093f" stroke-miterlimit="10" stroke-width="0.5"/>
          </g>
          <g id="Madison_Avenue_2_" transform="translate(22.038)">
            <circle id="Madison_Avenue_3_" cx="2" cy="2" r="2" transform="translate(66.097 41.752)" fill="#c6093f" stroke="#0505c4" stroke-miterlimit="10" stroke-width="0.25"/>
            <g id="Group_23951" data-name="Group 23951">
              <text id="Madison_Avenue" data-name="Madison Avenue" transform="translate(0 8)" font-size="8" font-family="HKGrotesk-LightItalic, HK Grotesk" font-weight="300" font-style="italic"><tspan x="0" y="0">Madison Avenue</tspan></text>
            </g>
            <path id="Path_147903" data-name="Path 147903" d="M97.2,197.7V167.4a6.487,6.487,0,0,0-6.5-6.5H89.5" transform="translate(-29.103 -153.948)" fill="none" stroke="#c6093f" stroke-miterlimit="10" stroke-width="0.5"/>
          </g>
          <g id="Central_Park_2_" transform="translate(95.635 43.02)">
            <circle id="Central_Park_3_" cx="2" cy="2" r="2" transform="translate(0 4.633)" fill="#c6093f" stroke="#0505c4" stroke-miterlimit="10" stroke-width="0.25"/>
            <g id="Group_23952" data-name="Group 23952" transform="translate(32.777)">
              <text id="Central_Park" data-name="Central Park" transform="translate(0 8)" font-size="8" font-family="HKGrotesk-LightItalic, HK Grotesk" font-weight="300" font-style="italic"><tspan x="0" y="0">Central Park</tspan></text>
            </g>
            <line id="Line_7274" data-name="Line 7274" x2="29" transform="translate(2 6.633)" fill="none" stroke="#c6093f" stroke-miterlimit="10" stroke-width="0.5"/>
          </g>
        </g>
        <g id="New_Jersey_1_" transform="translate(9.49 228.308)">
          <path id="Path_147904" data-name="Path 147904" d="M75.2,222.8h0a4.667,4.667,0,0,0-3.9,2.2h0a4.519,4.519,0,0,0,0,4.5h0a4.447,4.447,0,0,0,3.9,2.2h0a4.667,4.667,0,0,0,3.9-2.2h0a4.519,4.519,0,0,0,0-4.5h0A4.447,4.447,0,0,0,75.2,222.8Z" transform="translate(-16.555 -221.878)" fill="#f7f8f9" stroke="#0505c4" stroke-miterlimit="10" stroke-width="0.75"/>
          <path id="Path_147905" data-name="Path 147905" d="M75.2,222.2h0a5.043,5.043,0,0,0-4.3,2.5h0a4.967,4.967,0,0,0,0,5h0a5.043,5.043,0,0,0,4.3,2.5h0a5.043,5.043,0,0,0,4.3-2.5h0a4.967,4.967,0,0,0,0-5h0A4.919,4.919,0,0,0,75.2,222.2Z" transform="translate(-16.555 -221.878)" fill="none" stroke="#c6093f" stroke-miterlimit="10" stroke-width="0.75"/>
          <text id="New_Jersey" data-name="New Jersey" transform="translate(0 10)" font-size="10" font-family="HKGrotesk-Light, HK Grotesk" font-weight="300"><tspan x="0" y="0">New Jersey</tspan></text>
        </g>
        <g id="Londra_2_" transform="translate(285.949 119.211)">
          <path id="Path_147906" data-name="Path 147906" d="M321.7,124.7h0a5.043,5.043,0,0,0-4.3,2.5h0a4.967,4.967,0,0,0,0,5h0a5.043,5.043,0,0,0,4.3,2.5h0a5.043,5.043,0,0,0,4.3-2.5h0a4.967,4.967,0,0,0,0-5h0A5.043,5.043,0,0,0,321.7,124.7Z" transform="translate(-269.248 -121.878)" fill="#f7f8f9" stroke="#c6093f" stroke-miterlimit="10" stroke-width="0.75"/>
          <text id="Londra" transform="translate(14.307 10)" font-size="10" font-family="HKGrotesk-Light, HK Grotesk" font-weight="300"><tspan x="0" y="0">Londra</tspan></text>
          <circle id="Ellipse_33240" data-name="Ellipse 33240" cx="2" cy="2" r="2" transform="translate(50.452 5.822)" fill="#c6093f"/>
          <g id="Group_23953" data-name="Group 23953" transform="translate(0 11.446)">
            <text id="Embankment" transform="translate(0 8)" font-size="8" font-family="HKGrotesk-LightItalic, HK Grotesk" font-weight="300" font-style="italic"><tspan x="0" y="0">Embankment</tspan></text>
          </g>
        </g>
        <g id="Ercolano_2_" transform="translate(373.484 210.947)">
          <path id="Path_147907" data-name="Path 147907" d="M393.7,206.7h0a5.043,5.043,0,0,0-4.3,2.5h0a4.967,4.967,0,0,0,0,5h0a5.043,5.043,0,0,0,4.3,2.5h0a5.043,5.043,0,0,0,4.3-2.5h0a4.967,4.967,0,0,0,0-5h0A4.726,4.726,0,0,0,393.7,206.7Z" transform="translate(-349.827 -206.092)" fill="#f7f8f9" stroke="#0505c4" stroke-miterlimit="10" stroke-width="0.75"/>
          <text id="Ercolano" transform="translate(0 8)" font-size="8" font-family="HKGrotesk-Light, HK Grotesk" font-weight="300"><tspan x="0" y="0">Ercolano</tspan></text>
        </g>
        <g id="Vesuvio_1_" transform="translate(413.313 206.899)">
          <path id="Path_147908" data-name="Path 147908" d="M391.7,203h0a5.043,5.043,0,0,0-4.3,2.5h0a4.967,4.967,0,0,0,0,5h0a5.043,5.043,0,0,0,4.3,2.5h0a5.043,5.043,0,0,0,4.3-2.5h0a4.967,4.967,0,0,0,0-5h0A4.837,4.837,0,0,0,391.7,203Z" transform="translate(-386.725 -202.388)" fill="#f7f8f9" stroke="#0505c4" stroke-miterlimit="10" stroke-width="0.75"/>
          <text id="Vesuvio" transform="translate(13.3 8)" font-size="8" font-family="HKGrotesk-LightItalic, HK Grotesk" font-weight="300" font-style="italic"><tspan x="0" y="0">Vesuvio</tspan></text>
        </g>
        <g id="Lancashire_2_" transform="translate(323.335 102.012)">
          <path id="Path_147909" data-name="Path 147909" d="M308.7,107h0a5.043,5.043,0,0,0-4.3,2.5h0a4.967,4.967,0,0,0,0,5h0a5.043,5.043,0,0,0,4.3,2.5h0a5.043,5.043,0,0,0,4.3-2.5h0a4.967,4.967,0,0,0,0-5h0A4.837,4.837,0,0,0,308.7,107Z" transform="translate(-303.725 -106.388)" fill="#f7f8f9" stroke="#0505c4" stroke-miterlimit="10" stroke-width="0.75"/>
          <text id="Lancashire" transform="translate(13.3 8)" font-size="8" font-family="HKGrotesk-Light, HK Grotesk" font-weight="300"><tspan x="0" y="0">Lancashire</tspan></text>
        </g>
        <g id="Torino_1_" transform="translate(382.849 179.685)">
          <path id="Path_147910" data-name="Path 147910" d="M364.8,177.5h0a5.043,5.043,0,0,0-4.3,2.5h0a4.967,4.967,0,0,0,0,5h0a5.043,5.043,0,0,0,4.3,2.5h0a5.043,5.043,0,0,0,4.3-2.5h0a4.967,4.967,0,0,0,0-5h0A4.837,4.837,0,0,0,364.8,177.5Z" transform="translate(-359.825 -177.5)" fill="#fff" stroke="red" stroke-miterlimit="10" stroke-width="0.5" stroke-dasharray="2 2"/>
        </g>
        <g id="Russia_3_" transform="translate(739.935 64.768)">
          <g id="Group_23954" data-name="Group 23954" transform="translate(12.765)">
            <text id="Russia" transform="translate(0 8)" font-size="8" font-family="HKGrotesk-Light, HK Grotesk" font-weight="300"><tspan x="0" y="0">Russia</tspan></text>
          </g>
          <circle id="Ellipse_33241" data-name="Ellipse 33241" cx="5" cy="5" r="5" transform="translate(0 0.013)" fill="#f7f8f9"/>
          <circle id="Ellipse_33242" data-name="Ellipse 33242" cx="5" cy="5" r="5" transform="translate(0 0.013)" fill="#f7f8f9" stroke="#a0baf9" stroke-miterlimit="10" stroke-width="0.75"/>
        </g>
        <g id="Codogno_1_" transform="translate(391.706 183.955)">
          <path id="Path_147911" data-name="Path 147911" d="M371.7,182h0a5.043,5.043,0,0,0-4.3,2.5h0a4.967,4.967,0,0,0,0,5h0a5.043,5.043,0,0,0,4.3,2.5h0a5.043,5.043,0,0,0,4.3-2.5h0a4.967,4.967,0,0,0,0-5h0A4.837,4.837,0,0,0,371.7,182Z" transform="translate(-366.725 -181.388)" fill="#f7f8f9" stroke="#d34709" stroke-miterlimit="10" stroke-width="0.75"/>
          <text id="Codogno" transform="translate(11.3 8)" font-size="8" font-family="HKGrotesk-Light, HK Grotesk" font-weight="300"><tspan x="0" y="0">Codogno</tspan></text>
        </g>
        <g id="Impero_atzeco_2_" transform="translate(4.16 319.608)">
          <path id="Path_147912" data-name="Path 147912" d="M16.2,306.1h0a5.043,5.043,0,0,0-4.3,2.5h0a4.967,4.967,0,0,0,0,5h0a5.043,5.043,0,0,0,4.3,2.5h0a5.043,5.043,0,0,0,4.3-2.5h0a4.967,4.967,0,0,0,0-5h0A4.919,4.919,0,0,0,16.2,306.1Z" transform="translate(-11.225 -305.55)" fill="#f7f8f9" stroke="#a0baf9" stroke-miterlimit="10" stroke-width="0.75"/>
          <text id="Impero_atzeco" data-name="Impero atzeco" transform="translate(13.317 8)" font-size="8" font-family="HKGrotesk-Light, HK Grotesk" font-weight="300"><tspan x="0" y="0">Impero atzeco</tspan></text>
        </g>
        <g id="Sanremo_3_" transform="translate(385.973 193.696)">
          <g id="Group_23955" data-name="Group 23955" transform="translate(13.255)">
            <text id="Sanremo" transform="translate(0 8)" font-size="8" font-family="HKGrotesk-Light, HK Grotesk" font-weight="300"><tspan x="0" y="0">Sanremo</tspan></text>
          </g>
          <g id="Group_23960" data-name="Group 23960" transform="translate(0 0.597)">
            <g id="Group_23956" data-name="Group 23956">
              <path id="SVGID_5_" d="M366.4,190.9h0a5.043,5.043,0,0,0-4.3,2.5h0a4.967,4.967,0,0,0,0,5h0a5.043,5.043,0,0,0,4.3,2.5h0a5.043,5.043,0,0,0,4.3-2.5h0a4.967,4.967,0,0,0,0-5h0A4.726,4.726,0,0,0,366.4,190.9Z" transform="translate(-361.425 -190.9)" fill="#f7f8f9"/>
            </g>
            <g id="Group_23958" data-name="Group 23958">
              <g id="Group_23957" data-name="Group 23957" clip-path="url(#clip-path-3)">
                <line id="Line_7275" data-name="Line 7275" x2="59.5" y2="59.5" transform="translate(-50.525 -9.5)" fill="none" stroke="#ed6826" stroke-miterlimit="10" stroke-width="1"/>
                <line id="Line_7276" data-name="Line 7276" x2="59.5" y2="59.5" transform="translate(-48.525 -10.5)" fill="none" stroke="#ed6826" stroke-miterlimit="10" stroke-width="1"/>
                <line id="Line_7277" data-name="Line 7277" x2="59.5" y2="59.5" transform="translate(-46.525 -11.5)" fill="none" stroke="#ed6826" stroke-miterlimit="10" stroke-width="1"/>
                <line id="Line_7278" data-name="Line 7278" x2="59.5" y2="59.5" transform="translate(-44.525 -12.5)" fill="none" stroke="#ed6826" stroke-miterlimit="10" stroke-width="1"/>
                <line id="Line_7279" data-name="Line 7279" x2="59.5" y2="59.5" transform="translate(-42.525 -13.5)" fill="none" stroke="#ed6826" stroke-miterlimit="10" stroke-width="1"/>
                <line id="Line_7280" data-name="Line 7280" x2="59.5" y2="59.5" transform="translate(-40.525 -14.5)" fill="none" stroke="#ed6826" stroke-miterlimit="10" stroke-width="1"/>
                <line id="Line_7281" data-name="Line 7281" x2="59.5" y2="59.5" transform="translate(-38.525 -15.5)" fill="none" stroke="#ed6826" stroke-miterlimit="10" stroke-width="1"/>
                <line id="Line_7282" data-name="Line 7282" x2="59.5" y2="59.5" transform="translate(-36.525 -16.5)" fill="none" stroke="#ed6826" stroke-miterlimit="10" stroke-width="1"/>
                <line id="Line_7283" data-name="Line 7283" x2="59.5" y2="59.5" transform="translate(-34.525 -17.5)" fill="none" stroke="#ed6826" stroke-miterlimit="10" stroke-width="1"/>
                <line id="Line_7284" data-name="Line 7284" x2="59.5" y2="59.5" transform="translate(-32.525 -18.5)" fill="none" stroke="#ed6826" stroke-miterlimit="10" stroke-width="1"/>
                <line id="Line_7285" data-name="Line 7285" x2="59.5" y2="59.5" transform="translate(-30.525 -19.5)" fill="none" stroke="#ed6826" stroke-miterlimit="10" stroke-width="1"/>
                <line id="Line_7286" data-name="Line 7286" x2="59.5" y2="59.5" transform="translate(-28.525 -20.5)" fill="none" stroke="#ed6826" stroke-miterlimit="10" stroke-width="1"/>
                <line id="Line_7287" data-name="Line 7287" x2="59.5" y2="59.5" transform="translate(-26.525 -21.5)" fill="none" stroke="#ed6826" stroke-miterlimit="10" stroke-width="1"/>
                <line id="Line_7288" data-name="Line 7288" x2="59.5" y2="59.5" transform="translate(-24.525 -22.5)" fill="none" stroke="#ed6826" stroke-miterlimit="10" stroke-width="1"/>
                <line id="Line_7289" data-name="Line 7289" x2="59.5" y2="59.5" transform="translate(-22.525 -23.5)" fill="none" stroke="#ed6826" stroke-miterlimit="10" stroke-width="1"/>
                <line id="Line_7290" data-name="Line 7290" x2="59.5" y2="59.5" transform="translate(-20.525 -24.5)" fill="none" stroke="#ed6826" stroke-miterlimit="10" stroke-width="1"/>
                <line id="Line_7291" data-name="Line 7291" x2="59.5" y2="59.5" transform="translate(-18.525 -25.5)" fill="none" stroke="#ed6826" stroke-miterlimit="10" stroke-width="1"/>
                <line id="Line_7292" data-name="Line 7292" x2="59.5" y2="59.5" transform="translate(-16.525 -26.5)" fill="none" stroke="#ed6826" stroke-miterlimit="10" stroke-width="1"/>
                <line id="Line_7293" data-name="Line 7293" x2="59.5" y2="59.5" transform="translate(-14.525 -27.5)" fill="none" stroke="#ed6826" stroke-miterlimit="10" stroke-width="1"/>
                <line id="Line_7294" data-name="Line 7294" x2="59.5" y2="59.5" transform="translate(-12.525 -28.5)" fill="none" stroke="#ed6826" stroke-miterlimit="10" stroke-width="1"/>
                <line id="Line_7295" data-name="Line 7295" x2="59.5" y2="59.5" transform="translate(-10.525 -29.5)" fill="none" stroke="#ed6826" stroke-miterlimit="10" stroke-width="1"/>
                <line id="Line_7296" data-name="Line 7296" x2="59.5" y2="59.5" transform="translate(-8.525 -30.5)" fill="none" stroke="#ed6826" stroke-miterlimit="10" stroke-width="1"/>
                <line id="Line_7297" data-name="Line 7297" x2="59.5" y2="59.5" transform="translate(-7.025 -32)" fill="none" stroke="#ed6826" stroke-miterlimit="10" stroke-width="1"/>
                <line id="Line_7298" data-name="Line 7298" x2="59.5" y2="59.5" transform="translate(-5.525 -33.5)" fill="none" stroke="#ed6826" stroke-miterlimit="10" stroke-width="1"/>
                <line id="Line_7299" data-name="Line 7299" x2="59.5" y2="59.5" transform="translate(-4.025 -35)" fill="none" stroke="#ed6826" stroke-miterlimit="10" stroke-width="1"/>
              </g>
            </g>
            <g id="Group_23959" data-name="Group 23959">
              <path id="Path_147914" data-name="Path 147914" d="M366.4,190.9h0a5.043,5.043,0,0,0-4.3,2.5h0a4.967,4.967,0,0,0,0,5h0a5.043,5.043,0,0,0,4.3,2.5h0a5.043,5.043,0,0,0,4.3-2.5h0a4.967,4.967,0,0,0,0-5h0A4.726,4.726,0,0,0,366.4,190.9Z" transform="translate(-361.425 -190.9)" fill="none" stroke="#d34709" stroke-miterlimit="10" stroke-width="0.25"/>
            </g>
          </g>
        </g>
        <path id="Path_147915" data-name="Path 147915" d="M316.7,139.2h1.5a3.478,3.478,0,0,0,3.5-3.5v-5.5" transform="translate(19.184 -2.214)" fill="none" stroke="#c6093f" stroke-miterlimit="10" stroke-width="0.5"/>
        <rect id="Rectangle_19191" data-name="Rectangle 19191" width="185.8" height="142.2" transform="translate(12.835 2.981)" fill="none"/>
        <line id="Line_7300" data-name="Line 7300" x2="89" transform="translate(444.005 144.108)" fill="none" stroke="#5151fc" stroke-miterlimit="10" stroke-width="0.5" stroke-dasharray="6 6"/>
        <g id="Neander_2_" transform="translate(386.53 135.95)">
          <path id="Path_147916" data-name="Path 147916" d="M367.2,138h0a4.727,4.727,0,0,0-4.5,2.1h0a5.265,5.265,0,0,0-.5,5h0a5.06,5.06,0,0,0,4.1,2.9h0a4.727,4.727,0,0,0,4.5-2.1h0a5.265,5.265,0,0,0,.5-5h0A5.367,5.367,0,0,0,367.2,138Z" transform="translate(-361.786 -137.388)" fill="#f7f8f9" stroke="#a0baf9" stroke-miterlimit="10" stroke-width="0.75"/>
          <text id="Neander" transform="translate(11.24 10)" font-size="10" font-family="HKGrotesk-Light, HK Grotesk" font-weight="300"><tspan x="0" y="0">Neander</tspan></text>
        </g>
        <path id="Path_147917" data-name="Path 147917" d="M382.7,202.2v53.5c0,13.8-10.5,25-23.5,25h-8" transform="translate(23.096 7.984)" fill="none" stroke="#5151fc" stroke-miterlimit="10" stroke-width="0.5" stroke-dasharray="6 6"/>
        <g id="Group_23964" data-name="Group 23964" transform="translate(-3.96 -15.038)">
          <text id="New_York_citt_senza_passato_che_Calvino_diceva_di_possedere_mentalmente_si_presta_alle_trasfigurazioni_scientifico-fantastiche_di_alcuni_racconti_cosmicomici._Si_tratta_di_testi_in_cui_realt_presente_e_passato_primordiale_coesistono_e_si_compenetrano_" data-name="New York, citt senza passato che Calvino diceva di possedere mentalmente si presta alle trasfigurazioni scientifico-fantastiche di alcuni racconti cosmicomici. Si tratta di testi in cui realt presente e passato primordiale coesistono e si compenetrano " transform="translate(6.895 20.019)" fill="#5151fc" font-size="10" font-family="HKGrotesk-Regular, HK Grotesk"><tspan x="0" y="10">New York, citt senza passato che </tspan><tspan x="0" y="22">Calvino diceva di possedere </tspan><tspan x="0" y="34">mentalmente si presta alle </tspan><tspan x="0" y="46">trasfigurazioni scientifico-fantastiche di </tspan><tspan x="0" y="58">alcuni racconti cosmicomici. Si tratta di </tspan><tspan x="0" y="70">testi in cui realt presente e passato </tspan><tspan x="0" y="82">primordiale coesistono e si </tspan><tspan x="0" y="94">compenetrano luna nellaltro. Qualche </tspan><tspan x="0" y="106">anno prima Calvino aveva vissuto sei </tspan><tspan x="0" y="118">mesi a Manhattan, tenendo un diario in </tspan><tspan x="0" y="130">cui appuntava impressioni e incontri.</tspan></text>
          <text id="Nel_terzo_decennio_l_Italia_non__pi_al_centro_del_mondo_narrativo_di_Calvino._Una_citt_come_Torino_scompare_completamente_e_anche_Sanremo_ritorna_soltanto_in_un_racconto_autobiografico_Autobiografia_di_uno_spettatore_1974_._L_orizzonte_geografico_cul" data-name="Nel terzo decennio lItalia non  pi al centro del mondo narrativo di Calvino. Una citt come Torino scompare completamente e anche Sanremo ritorna soltanto in un racconto autobiografico (Autobiografia di uno spettatore, 1974). Lorizzonte geografico, cul" transform="translate(217.895 298.02)" fill="#5151fc" font-size="10" font-family="HKGrotesk-Regular, HK Grotesk"><tspan x="0" y="10">Nel terzo decennio lItalia non  </tspan><tspan x="0" y="22">pi al centro del mondo narrativo </tspan><tspan x="0" y="34">di Calvino. Una citt come Torino </tspan><tspan x="0" y="46">scompare completamente e anche </tspan><tspan x="0" y="58">Sanremo ritorna soltanto in un </tspan><tspan x="0" y="70">racconto autobiografico </tspan><tspan x="0" y="82">(</tspan><tspan y="82" font-family="HKGrotesk-Italic, HK Grotesk" font-style="italic">Autobiografia di uno spettatore</tspan><tspan y="82">, </tspan><tspan x="0" y="94">1974). Lorizzonte geografico, </tspan><tspan x="0" y="106">culturale e letterario di Calvino  </tspan><tspan x="0" y="118">cambiato: la citt lascia il posto </tspan><tspan x="0" y="130">alla metropoli, la realt sociale </tspan><tspan x="0" y="142">alla sperimentazione.</tspan></text>
          <text id="Alcuni_luoghi_come_Neander_o_l_Impero_atzeco_che_fanno_da_sfondo_ai_racconti-intervista_L_uomo_di_Neanderthal_1975_e_Montezuma_1975_o_un_racconto_come_la_Decapitazione_dei_capi_1969_in_parte_ambientato_in_Russia_testimoniano_nuovi_progetti_sperim" data-name="Alcuni luoghi come Neander o lImpero atzeco, che fanno da sfondo ai racconti-intervista Luomo di Neanderthal (1975) e Montezuma (1975), o un racconto come la Decapitazione dei capi (1969), in parte ambientato in Russia, testimoniano nuovi progetti sperim" transform="translate(552.395 90.519)" fill="#5151fc" font-size="10" font-family="HKGrotesk-Regular, HK Grotesk"><tspan x="0" y="10">Alcuni luoghi come Neander o </tspan><tspan x="0" y="22">lImpero atzeco, che fanno da </tspan><tspan x="0" y="34">sfondo ai racconti-intervista </tspan><tspan x="0" y="46" font-family="HKGrotesk-Italic, HK Grotesk" font-style="italic">Luomo di Neanderthal</tspan><tspan y="46" xml:space="preserve"> (1975) e </tspan><tspan x="0" y="58" font-family="HKGrotesk-Italic, HK Grotesk" font-style="italic">Montezuma</tspan><tspan y="58" xml:space="preserve"> (1975), o un </tspan><tspan x="0" y="70">racconto come la </tspan><tspan x="0" y="82" font-family="HKGrotesk-Italic, HK Grotesk" font-style="italic">Decapitazione dei capi </tspan><tspan y="82">(1969), </tspan><tspan x="0" y="94">in parte ambientato in Russia, </tspan><tspan x="0" y="106">testimoniano nuovi progetti </tspan><tspan x="0" y="118">sperimentali a cui Calvino </tspan><tspan x="0" y="130">lavora nei primi anni Settanta, </tspan><tspan x="0" y="142">che rimarranno tuttavia </tspan><tspan x="0" y="154">incompiuti.</tspan></text>
          <text id="Nel_terzo_decennio_entra_in_scena_Parigi_metropoli_in_cui_Calvino_si_trasferisce_dal_1967_lasciando_alle_spalle_il_contesto_politico_e_sociale_italiano.__un_momento_di_svolta_per_la_sua_narrativa:_gli_influssi_strutturalisti_e_dell_cole_du_regard_sono_" data-name="Nel terzo decennio entra in scena Parigi, metropoli in cui Calvino si trasferisce dal 1967, lasciando alle spalle il contesto politico e sociale italiano.  un momento di svolta per la sua narrativa: gli influssi strutturalisti e dellcole du regard sono " transform="translate(551.895 298.02)" fill="#5151fc" font-size="10" font-family="HKGrotesk-Regular, HK Grotesk"><tspan x="0" y="10">Nel terzo decennio entra in </tspan><tspan x="0" y="22">scena Parigi, metropoli in cui </tspan><tspan x="0" y="34">Calvino si trasferisce dal 1967, </tspan><tspan x="0" y="46">lasciando alle spalle il contesto </tspan><tspan x="0" y="58">politico e sociale italiano.  un </tspan><tspan x="0" y="70">momento di svolta per la sua </tspan><tspan x="0" y="82">narrativa: gli influssi strutturalisti </tspan><tspan x="0" y="94">e dellcole du regard sono </tspan><tspan x="0" y="106">decisivi per dare il via libera a </tspan><tspan x="0" y="118">una nuova letteratura che fonde </tspan><tspan x="0" y="130">astrazione e descrizione, </tspan><tspan x="0" y="142">stilizzazione e scienza.</tspan></text>
        </g>
      </g>
    </g>
  </g>
</svg>
