<svg xmlns="http://www.w3.org/2000/svg" xmlns:xlink="http://www.w3.org/1999/xlink" width="750" height="240" viewBox="0 0 750 240"><defs><clipPath id="b"><rect width="750" height="240"/></clipPath></defs><g id="a" clip-path="url(#b)"><text transform="translate(1)" font-size="14" font-family="HKGrotesk-Medium, HK Grotesk" font-weight="500"><tspan x="0" y="13">Le cosmicomiche</tspan></text><path d="M0,0H759.952" transform="translate(0.338 44.633)" fill="none" stroke="#000" stroke-width="0.5" stroke-dasharray="2"/><path d="M0,0H759.952" transform="translate(0.338 178.971)" fill="none" stroke="#000" stroke-width="0.5" stroke-dasharray="2"/><path d="M5732.01,1229v137.353" transform="translate(-5701 -1184.367)" fill="none" stroke="#000" stroke-width="0.5" opacity="0.205"/><path d="M5732.01,1229v137.353" transform="translate(-5664 -1184.367)" fill="none" stroke="#000" stroke-width="0.5" opacity="0.205"/><path d="M5732.01,1229v137.353" transform="translate(-5627 -1184.367)" fill="none" stroke="#000" stroke-width="0.5" opacity="0.205"/><path d="M5732.01,1229v137.353" transform="translate(-5590 -1184.367)" fill="none" stroke="#000" stroke-width="0.5" opacity="0.205"/><path d="M5732.01,1229v137.353" transform="translate(-5572 -1184.367)" fill="none" stroke="#000" stroke-width="0.5" opacity="0.205"/><path d="M5732.01,1229v137.353" transform="translate(-5554 -1184.367)" fill="none" stroke="#000" stroke-width="0.5" opacity="0.205"/><path d="M5732.01,1229v137.353" transform="translate(-5389 -1184.367)" fill="none" stroke="#000" stroke-width="0.5" opacity="0.205"/><path d="M5732.01,1229v137.353" transform="translate(-5371 -1184.367)" fill="none" stroke="#000" stroke-width="0.5" opacity="0.205"/><path d="M5732.01,1229v137.353" transform="translate(-5333 -1184.367)" fill="none" stroke="#000" stroke-width="0.5" opacity="0.205"/><path d="M5732.01,1229v137.353" transform="translate(-5279 -1184.367)" fill="none" stroke="#000" stroke-width="0.5" opacity="0.205"/><path d="M5732.01,1229v137.353" transform="translate(-5242 -1184.367)" fill="none" stroke="#000" stroke-width="0.5" opacity="0.205"/><path d="M5732.01,1229v137.353" transform="translate(-5133 -1184.367)" fill="none" stroke="#000" stroke-width="0.5" opacity="0.205"/><path d="M5732.01,1229h0" transform="translate(-5242 -1097.657)" fill="none" stroke="#000" stroke-width="0.5" opacity="0.205"/><path d="M0,0H260V35H0Z" transform="translate(0 126)" fill="#fff"/><g transform="translate(-6 23)"><g transform="translate(0)"><g transform="translate(33.6)"><ellipse cx="1.598" cy="1.598" rx="1.598" ry="1.598" transform="translate(38.897 19.859)" fill="blue"/><ellipse cx="1.598" cy="1.598" rx="1.598" ry="1.598" transform="translate(38.897 24.652)" fill="blue"/><ellipse cx="1.598" cy="1.598" rx="1.598" ry="1.598" transform="translate(38.897 15.065)" fill="blue"/><ellipse cx="1.598" cy="1.598" rx="1.598" ry="1.598" transform="translate(456.26 21.552)" fill="#00c19c"/><ellipse cx="1.598" cy="1.598" rx="1.598" ry="1.598" transform="translate(456.099 11.973)" fill="#00c19c"/><ellipse cx="1.598" cy="1.598" rx="1.598" ry="1.598" transform="translate(456.76 36.161)" fill="#00c19c"/><ellipse cx="1.598" cy="1.598" rx="1.598" ry="1.598" transform="translate(464.565 21.393)" fill="#00c19c"/><ellipse cx="1.598" cy="1.598" rx="1.598" ry="1.598" transform="translate(464.346 7.061)" fill="#00c19c"/><ellipse cx="1.598" cy="1.598" rx="1.598" ry="1.598" transform="translate(464.664 26.152)" fill="#00c19c"/><ellipse cx="1.598" cy="1.598" rx="1.598" ry="1.598" transform="translate(460.16 4.738)" fill="#00c19c"/><ellipse cx="1.598" cy="1.598" rx="1.598" ry="1.598" transform="translate(464.484 16.635)" fill="#00c19c"/><ellipse cx="1.598" cy="1.598" rx="1.598" ry="1.598" transform="translate(456.465 31.136)" fill="#00c19c"/><ellipse cx="1.598" cy="1.598" rx="1.598" ry="1.598" transform="translate(460.282 14.301)" fill="#00c19c"/><ellipse cx="1.598" cy="1.598" rx="1.598" ry="1.598" transform="translate(464.783 30.94)" fill="#00c19c"/><ellipse cx="1.598" cy="1.598" rx="1.598" ry="1.598" transform="translate(464.397 11.842)" fill="#00c19c"/><ellipse cx="1.598" cy="1.598" rx="1.598" ry="1.598" transform="translate(456.029 7.183)" fill="#00c19c"/><ellipse cx="1.598" cy="1.598" rx="1.598" ry="1.598" transform="translate(460.57 28.647)" fill="#00c19c"/><ellipse cx="1.598" cy="1.598" rx="1.598" ry="1.598" transform="translate(460.457 23.864)" fill="#00c19c"/><ellipse cx="1.598" cy="1.598" rx="1.598" ry="1.598" transform="translate(456.168 16.765)" fill="#00c19c"/><ellipse cx="1.598" cy="1.598" rx="1.598" ry="1.598" transform="translate(461.114 38.195)" fill="#00c19c"/><ellipse cx="1.598" cy="1.598" rx="1.598" ry="1.598" transform="translate(460.217 9.517)" fill="#00c19c"/><ellipse cx="1.598" cy="1.598" rx="1.598" ry="1.598" transform="translate(460.367 19.081)" fill="#00c19c"/><ellipse cx="1.598" cy="1.598" rx="1.598" ry="1.598" transform="translate(456.358 26.342)" fill="#00c19c"/><ellipse cx="1.598" cy="1.598" rx="1.598" ry="1.598" transform="translate(459.484)" fill="#00c19c"/><ellipse cx="1.598" cy="1.598" rx="1.598" ry="1.598" transform="translate(460.676 33.42)" fill="#00c19c"/><ellipse cx="1.598" cy="1.598" rx="1.598" ry="1.598" transform="translate(588.441 19.861)" fill="#00ffb6"/><ellipse cx="1.598" cy="1.598" rx="1.598" ry="1.598" transform="translate(588.441 15.068)" fill="#00ffb6"/><ellipse cx="1.598" cy="1.598" rx="1.598" ry="1.598" transform="translate(588.441 24.654)" fill="#00ffb6"/><ellipse cx="1.598" cy="1.598" rx="1.598" ry="1.598" transform="translate(608.111 10.789)" fill="aqua"/><ellipse cx="1.598" cy="1.598" rx="1.598" ry="1.598" transform="translate(608.48 32.709)" fill="aqua"/><ellipse cx="1.598" cy="1.598" rx="1.598" ry="1.598" transform="translate(610.129 23.29)" fill="aqua"/><ellipse cx="1.598" cy="1.598" rx="1.598" ry="1.598" transform="translate(610.955 18.588)" fill="aqua"/><ellipse cx="1.598" cy="1.598" rx="1.598" ry="1.598" transform="translate(607.281 15.495)" fill="aqua"/><ellipse cx="1.598" cy="1.598" rx="1.598" ry="1.598" transform="translate(603.603 12.419)" fill="aqua"/><ellipse cx="1.598" cy="1.598" rx="1.598" ry="1.598" transform="translate(602.773 17.134)" fill="aqua"/><ellipse cx="1.598" cy="1.598" rx="1.598" ry="1.598" transform="translate(609.295 28.003)" fill="aqua"/><ellipse cx="1.598" cy="1.598" rx="1.598" ry="1.598" transform="translate(611.769 13.86)" fill="aqua"/><ellipse cx="1.598" cy="1.598" rx="1.598" ry="1.598" transform="translate(603.971 34.355)" fill="aqua"/><ellipse cx="1.598" cy="1.598" rx="1.598" ry="1.598" transform="translate(606.458 20.208)" fill="aqua"/><ellipse cx="1.598" cy="1.598" rx="1.598" ry="1.598" transform="translate(604.469 7.685)" fill="aqua"/><ellipse cx="1.598" cy="1.598" rx="1.598" ry="1.598" transform="translate(605.623 24.929)" fill="aqua"/><ellipse cx="1.598" cy="1.598" rx="1.598" ry="1.598" transform="translate(605.366 2.97)" fill="aqua"/><ellipse cx="1.598" cy="1.598" rx="1.598" ry="1.598" transform="translate(601.946 21.86)" fill="aqua"/><ellipse cx="1.598" cy="1.598" rx="1.598" ry="1.598" transform="translate(604.783 29.644)" fill="aqua"/><ellipse cx="1.598" cy="1.598" rx="1.598" ry="1.598" transform="translate(609 6.098)" fill="aqua"/><ellipse cx="1.598" cy="1.598" rx="1.598" ry="1.598" transform="translate(607.648 37.426)" fill="aqua"/><ellipse cx="1.598" cy="1.598" rx="1.598" ry="1.598" transform="translate(75.533 17.458)" fill="blue"/><ellipse cx="1.598" cy="1.598" rx="1.598" ry="1.598" transform="translate(75.533 22.253)" fill="blue"/><ellipse cx="1.598" cy="1.598" rx="1.598" ry="1.598" transform="translate(700.851 30.536)" fill="orange"/><ellipse cx="1.598" cy="1.598" rx="1.598" ry="1.598" transform="translate(700.107 11.406)" fill="orange"/><ellipse cx="1.598" cy="1.598" rx="1.598" ry="1.598" transform="translate(695.848 9.184)" fill="orange"/><ellipse cx="1.598" cy="1.598" rx="1.598" ry="1.598" transform="translate(700.479 20.974)" fill="orange"/><ellipse cx="1.598" cy="1.598" rx="1.598" ry="1.598" transform="translate(696.407 23.524)" fill="orange"/><ellipse cx="1.598" cy="1.598" rx="1.598" ry="1.598" transform="translate(696.8 33.1)" fill="orange"/><ellipse cx="1.598" cy="1.598" rx="1.598" ry="1.598" transform="translate(700.292 16.191)" fill="orange"/><ellipse cx="1.598" cy="1.598" rx="1.598" ry="1.598" transform="translate(696.041 13.959)" fill="orange"/><ellipse cx="1.598" cy="1.598" rx="1.598" ry="1.598" transform="translate(696.594 28.312)" fill="orange"/><ellipse cx="1.598" cy="1.598" rx="1.598" ry="1.598" transform="translate(699.894 6.617)" fill="orange"/><ellipse cx="1.598" cy="1.598" rx="1.598" ry="1.598" transform="translate(700.652 25.757)" fill="orange"/><ellipse cx="1.598" cy="1.598" rx="1.598" ry="1.598" transform="translate(696.229 18.751)" fill="orange"/><ellipse cx="1.598" cy="1.598" rx="1.598" ry="1.598" transform="translate(425.574 17.466)" fill="#009959"/><ellipse cx="1.598" cy="1.598" rx="1.598" ry="1.598" transform="translate(425.59 22.252)" fill="#009959"/><ellipse cx="1.598" cy="1.598" rx="1.598" ry="1.598" transform="translate(422.83 8.727)" fill="#009959"/><ellipse cx="1.598" cy="1.598" rx="1.598" ry="1.598" transform="translate(425.605 27.045)" fill="#009959"/><ellipse cx="1.598" cy="1.598" rx="1.598" ry="1.598" transform="translate(421.439 24.671)" fill="#009959"/><ellipse cx="1.598" cy="1.598" rx="1.598" ry="1.598" transform="translate(421.403 15.086)" fill="#009959"/><ellipse cx="1.598" cy="1.598" rx="1.598" ry="1.598" transform="translate(422.786 30.925)" fill="#009959"/><ellipse cx="1.598" cy="1.598" rx="1.598" ry="1.598" transform="translate(425.548 12.678)" fill="#009959"/><ellipse cx="1.598" cy="1.598" rx="1.598" ry="1.598" transform="translate(421.424 19.879)" fill="#009959"/><ellipse cx="1.598" cy="1.598" rx="1.598" ry="1.598" transform="translate(112.17 27.019)" fill="blue"/><ellipse cx="1.598" cy="1.598" rx="1.598" ry="1.598" transform="translate(112.17 13.912)" fill="blue"/><ellipse cx="1.598" cy="1.598" rx="1.598" ry="1.598" transform="translate(112.17 22.227)" fill="blue"/><ellipse cx="1.598" cy="1.598" rx="1.598" ry="1.598" transform="translate(114.567 18.069)" fill="blue"/><ellipse cx="1.598" cy="1.598" rx="1.598" ry="1.598" transform="translate(109.772 18.069)" fill="blue"/><ellipse cx="1.598" cy="1.598" rx="1.598" ry="1.598" transform="translate(133.706 25.372)" fill="blue"/><ellipse cx="1.598" cy="1.598" rx="1.598" ry="1.598" transform="translate(135.057 20.782)" fill="blue"/><ellipse cx="1.598" cy="1.598" rx="1.598" ry="1.598" transform="translate(129.543 13.064)" fill="blue"/><ellipse cx="1.598" cy="1.598" rx="1.598" ry="1.598" transform="translate(130.994 34.564)" fill="blue"/><ellipse cx="1.598" cy="1.598" rx="1.598" ry="1.598" transform="translate(132.176 9.048)" fill="blue"/><ellipse cx="1.598" cy="1.598" rx="1.598" ry="1.598" transform="translate(129.044 26.491)" fill="blue"/><ellipse cx="1.598" cy="1.598" rx="1.598" ry="1.598" transform="translate(125.739 23.016)" fill="blue"/><ellipse cx="1.598" cy="1.598" rx="1.598" ry="1.598" transform="translate(131.762 17.313)" fill="blue"/><ellipse cx="1.598" cy="1.598" rx="1.598" ry="1.598" transform="translate(130.399 21.902)" fill="blue"/><ellipse cx="1.598" cy="1.598" rx="1.598" ry="1.598" transform="translate(130.017 4.774)" fill="blue"/><ellipse cx="1.598" cy="1.598" rx="1.598" ry="1.598" transform="translate(127.689 31.087)" fill="blue"/><ellipse cx="1.598" cy="1.598" rx="1.598" ry="1.598" transform="translate(134.349 13.301)" fill="blue"/><ellipse cx="1.598" cy="1.598" rx="1.598" ry="1.598" transform="translate(127.39 8.786)" fill="blue"/><ellipse cx="1.598" cy="1.598" rx="1.598" ry="1.598" transform="translate(132.35 29.96)" fill="blue"/><ellipse cx="1.598" cy="1.598" rx="1.598" ry="1.598" transform="translate(127.103 18.419)" fill="blue"/><ellipse cx="1.598" cy="1.598" rx="1.598" ry="1.598" transform="translate(148.73 24.011)" fill="blue"/><ellipse cx="1.598" cy="1.598" rx="1.598" ry="1.598" transform="translate(151.204 19.903)" fill="blue"/><ellipse cx="1.598" cy="1.598" rx="1.598" ry="1.598" transform="translate(148.79 10.916)" fill="blue"/><ellipse cx="1.598" cy="1.598" rx="1.598" ry="1.598" transform="translate(148.826 28.8)" fill="blue"/><ellipse cx="1.598" cy="1.598" rx="1.598" ry="1.598" transform="translate(148.879 15.708)" fill="blue"/><ellipse cx="1.598" cy="1.598" rx="1.598" ry="1.598" transform="translate(146.407 19.817)" fill="blue"/><ellipse cx="1.598" cy="1.598" rx="1.598" ry="1.598" transform="translate(368.623 25.805)" fill="#6e94f4"/><ellipse cx="1.598" cy="1.598" rx="1.598" ry="1.598" transform="translate(368.623 17.492)" fill="#6e94f4"/><ellipse cx="1.598" cy="1.598" rx="1.598" ry="1.598" transform="translate(371.021 21.648)" fill="#6e94f4"/><ellipse cx="1.598" cy="1.598" rx="1.598" ry="1.598" transform="translate(366.226 21.648)" fill="#6e94f4"/><ellipse cx="1.598" cy="1.598" rx="1.598" ry="1.598" transform="translate(368.623 12.701)" fill="#6e94f4"/><ellipse cx="1.598" cy="1.598" rx="1.598" ry="1.598" transform="translate(441.896 22.258)" fill="#009959"/><ellipse cx="1.598" cy="1.598" rx="1.598" ry="1.598" transform="translate(441.896 17.463)" fill="#009959"/><ellipse cx="1.598" cy="1.598" rx="1.598" ry="1.598" transform="translate(315.68 18.553)" fill="#5151fc"/><ellipse cx="1.598" cy="1.598" rx="1.598" ry="1.598" transform="translate(311.912 25.956)" fill="#5151fc"/><ellipse cx="1.598" cy="1.598" rx="1.598" ry="1.598" transform="translate(313.148 9.543)" fill="#5151fc"/><ellipse cx="1.598" cy="1.598" rx="1.598" ry="1.598" transform="translate(311.658 21.17)" fill="#5151fc"/><ellipse cx="1.598" cy="1.598" rx="1.598" ry="1.598" transform="translate(315.933 23.338)" fill="#5151fc"/><ellipse cx="1.598" cy="1.598" rx="1.598" ry="1.598" transform="translate(311.393 16.388)" fill="#5151fc"/><ellipse cx="1.598" cy="1.598" rx="1.598" ry="1.598" transform="translate(314.216 30.158)" fill="#5151fc"/><ellipse cx="1.598" cy="1.598" rx="1.598" ry="1.598" transform="translate(315.411 13.77)" fill="#5151fc"/><ellipse cx="1.598" cy="1.598" rx="1.598" ry="1.598" transform="translate(533.486 19.858)" fill="#8ae297"/><ellipse cx="1.598" cy="1.598" rx="1.598" ry="1.598" transform="translate(533.486 24.651)" fill="#8ae297"/><ellipse cx="1.598" cy="1.598" rx="1.598" ry="1.598" transform="translate(533.486 15.065)" fill="#8ae297"/><ellipse cx="1.598" cy="1.598" rx="1.598" ry="1.598" transform="translate(329.987 21.192)" fill="#5151fc"/><ellipse cx="1.598" cy="1.598" rx="1.598" ry="1.598" transform="translate(329.47 11.628)" fill="#5151fc"/><ellipse cx="1.598" cy="1.598" rx="1.598" ry="1.598" transform="translate(334.27 23.353)" fill="#5151fc"/><ellipse cx="1.598" cy="1.598" rx="1.598" ry="1.598" transform="translate(330.253 25.976)" fill="#5151fc"/><ellipse cx="1.598" cy="1.598" rx="1.598" ry="1.598" transform="translate(333.309 8.756)" fill="#5151fc"/><ellipse cx="1.598" cy="1.598" rx="1.598" ry="1.598" transform="translate(334.539 28.135)" fill="#5151fc"/><ellipse cx="1.598" cy="1.598" rx="1.598" ry="1.598" transform="translate(329.737 16.412)" fill="#5151fc"/><ellipse cx="1.598" cy="1.598" rx="1.598" ry="1.598" transform="translate(333.757 13.79)" fill="#5151fc"/><ellipse cx="1.598" cy="1.598" rx="1.598" ry="1.598" transform="translate(330.532 30.768)" fill="#5151fc"/><ellipse cx="1.598" cy="1.598" rx="1.598" ry="1.598" transform="translate(334.019 18.578)" fill="#5151fc"/><ellipse cx="1.598" cy="1.598" rx="1.598" ry="1.598" transform="translate(570.123 19.853)" fill="#00ffb6"/><ellipse cx="1.598" cy="1.598" rx="1.598" ry="1.598" transform="translate(0 28.219)" fill="#8131f4"/><ellipse cx="1.598" cy="1.598" rx="1.598" ry="1.598" transform="translate(1.338 7.904)" fill="#8131f4"/><ellipse cx="1.598" cy="1.598" rx="1.598" ry="1.598" transform="translate(0.096 23.435)" fill="#8131f4"/><ellipse cx="1.598" cy="1.598" rx="1.598" ry="1.598" transform="translate(4.393 16.324)" fill="#8131f4"/><ellipse cx="1.598" cy="1.598" rx="1.598" ry="1.598" transform="translate(0.191 18.645)" fill="#8131f4"/><ellipse cx="1.598" cy="1.598" rx="1.598" ry="1.598" transform="translate(3.346 31.65)" fill="#8131f4"/><ellipse cx="1.598" cy="1.598" rx="1.598" ry="1.598" transform="translate(4.468 11.533)" fill="#8131f4"/><ellipse cx="1.598" cy="1.598" rx="1.598" ry="1.598" transform="translate(4.207 25.907)" fill="#8131f4"/><ellipse cx="1.598" cy="1.598" rx="1.598" ry="1.598" transform="translate(4.298 21.113)" fill="#8131f4"/><ellipse cx="1.598" cy="1.598" rx="1.598" ry="1.598" transform="translate(0.273 13.855)" fill="#8131f4"/><ellipse cx="1.598" cy="1.598" rx="1.598" ry="1.598" transform="translate(240.396 24.654)" fill="blue"/><ellipse cx="1.598" cy="1.598" rx="1.598" ry="1.598" transform="translate(240.396 15.065)" fill="blue"/><ellipse cx="1.598" cy="1.598" rx="1.598" ry="1.598" transform="translate(240.396 19.86)" fill="blue"/><ellipse cx="1.598" cy="1.598" rx="1.598" ry="1.598" transform="translate(641.052 29.479)" fill="aqua"/><ellipse cx="1.598" cy="1.598" rx="1.598" ry="1.598" transform="translate(641.289 10.344)" fill="aqua"/><ellipse cx="1.598" cy="1.598" rx="1.598" ry="1.598" transform="translate(641.257 15.125)" fill="aqua"/><ellipse cx="1.598" cy="1.598" rx="1.598" ry="1.598" transform="translate(641.212 19.906)" fill="aqua"/><ellipse cx="1.598" cy="1.598" rx="1.598" ry="1.598" transform="translate(645.432 12.776)" fill="aqua"/><ellipse cx="1.598" cy="1.598" rx="1.598" ry="1.598" transform="translate(645.156 31.953)" fill="aqua"/><ellipse cx="1.598" cy="1.598" rx="1.598" ry="1.598" transform="translate(645.396 17.57)" fill="aqua"/><ellipse cx="1.598" cy="1.598" rx="1.598" ry="1.598" transform="translate(645.343 22.363)" fill="aqua"/><ellipse cx="1.598" cy="1.598" rx="1.598" ry="1.598" transform="translate(645.265 27.163)" fill="aqua"/><ellipse cx="1.598" cy="1.598" rx="1.598" ry="1.598" transform="translate(644.795 7.08)" fill="aqua"/><ellipse cx="1.598" cy="1.598" rx="1.598" ry="1.598" transform="translate(641.151 24.699)" fill="aqua"/></g><text transform="translate(12.656 67.902) rotate(-45)" font-size="8" font-family="HKGrotesk-Regular, HK Grotesk"><tspan x="0" y="0">rivelazione</tspan></text><text transform="translate(24.578 83.383) rotate(-45)" font-size="8" font-family="HKGrotesk-Regular, HK Grotesk"><tspan x="0" y="0">aggressione/scontro</tspan></text><text transform="translate(65.031 75.536) rotate(-45)" font-size="8" font-family="HKGrotesk-Regular, HK Grotesk"><tspan x="0" y="0">compito/missione</tspan></text><text transform="translate(99.874 81.337) rotate(-45)" font-size="8" font-family="HKGrotesk-Regular, HK Grotesk"><tspan x="0" y="0">incontro di gruppo</tspan></text><text transform="translate(116.386 87.16) rotate(-45)" font-size="8" font-family="HKGrotesk-Regular, HK Grotesk"><tspan x="0" y="0">incontro femminile</tspan></text><text transform="translate(140.704 81.804) rotate(-45)" font-size="8" font-family="HKGrotesk-Regular, HK Grotesk"><tspan x="0" y="0">incontro maschile</tspan></text><text transform="translate(244.888 64.713) rotate(-45)" font-size="8" font-family="HKGrotesk-Regular, HK Grotesk"><tspan x="0" y="0">scommessa</tspan></text><text transform="translate(321.789 85.817) rotate(-45)" font-size="8" font-family="HKGrotesk-Regular, HK Grotesk"><tspan x="0" y="0">partenza/sparizione</tspan></text><text transform="translate(294.706 87.23) rotate(-45)" font-size="8" font-family="HKGrotesk-Regular, HK Grotesk"><tspan x="0" y="0">inseguimento/ricerca</tspan></text><text transform="translate(373.53 68.064) rotate(-45)" font-size="8" font-family="HKGrotesk-Regular, HK Grotesk"><tspan x="0" y="0">iniziativa/piano</tspan></text><text transform="translate(409.342 76.871) rotate(-45)" font-size="8" font-family="HKGrotesk-Regular, HK Grotesk"><tspan x="0" y="0">illusione/speranza</tspan></text><text transform="translate(439.643 69.008) rotate(-45)" font-size="8" font-family="HKGrotesk-Regular, HK Grotesk"><tspan x="0" y="0">innamoramento</tspan></text><text transform="translate(443.805 93.241) rotate(-45)" font-size="8" font-family="HKGrotesk-Regular, HK Grotesk"><tspan x="0" y="0">angoscia/delusione</tspan></text><text transform="translate(609.123 48.918) rotate(-45)" font-size="8" font-family="HKGrotesk-Regular, HK Grotesk"><tspan x="0" y="0">attesa</tspan></text><text transform="translate(720.262 57.381) rotate(-45)" font-size="8" font-family="HKGrotesk-Regular, HK Grotesk"><tspan x="0" y="0">cornice</tspan></text><text transform="translate(559.209 75.34) rotate(-45)" font-size="8" font-family="HKGrotesk-Regular, HK Grotesk"><tspan x="0" y="0">pausa/sospensione</tspan></text><text transform="translate(528.494 74.626) rotate(-45)" font-size="8" font-family="HKGrotesk-Regular, HK Grotesk"><tspan x="0" y="0">mistero/assurdità</tspan></text><text transform="translate(605.683 76.951) rotate(-45)" font-size="8" font-family="HKGrotesk-Regular, HK Grotesk"><tspan x="0" y="0">cambiamento</tspan></text><text transform="translate(652.947 62.558) rotate(-45)" font-size="8" font-family="HKGrotesk-Regular, HK Grotesk"><tspan x="0" y="0">situazione</tspan></text></g></g><g transform="translate(27.623 153.492)"><g transform="translate(0 0)"><ellipse cx="1.598" cy="1.598" rx="1.598" ry="1.598" transform="translate(38.649 24.264)" fill="blue"/><ellipse cx="1.598" cy="1.598" rx="1.598" ry="1.598" transform="translate(41.213 28.313)" fill="blue"/><ellipse cx="1.598" cy="1.598" rx="1.598" ry="1.598" transform="translate(38.972 15.959)" fill="blue"/><ellipse cx="1.598" cy="1.598" rx="1.598" ry="1.598" transform="translate(36.42 28.505)" fill="blue"/><ellipse cx="1.598" cy="1.598" rx="1.598" ry="1.598" transform="translate(36.416 20.02)" fill="blue"/><ellipse cx="1.598" cy="1.598" rx="1.598" ry="1.598" transform="translate(41.207 20.206)" fill="blue"/><ellipse cx="1.598" cy="1.598" rx="1.598" ry="1.598" transform="translate(38.978 32.561)" fill="blue"/><ellipse cx="1.598" cy="1.598" rx="1.598" ry="1.598" transform="translate(456.464 8.997)" fill="#00c19c"/><ellipse cx="1.598" cy="1.598" rx="1.598" ry="1.598" transform="translate(462.868 46.097)" fill="#00c19c"/><ellipse cx="1.598" cy="1.598" rx="1.598" ry="1.598" transform="translate(462.724 16.382)" fill="#00c19c"/><ellipse cx="1.598" cy="1.598" rx="1.598" ry="1.598" transform="translate(453.285 17.938)" fill="#00c19c"/><ellipse cx="1.598" cy="1.598" rx="1.598" ry="1.598" transform="translate(459.67 12.689)" fill="#00c19c"/><ellipse cx="1.598" cy="1.598" rx="1.598" ry="1.598" transform="translate(455.163 34.054)" fill="#00c19c"/><ellipse cx="1.598" cy="1.598" rx="1.598" ry="1.598" transform="translate(461.076 20.865)" fill="#00c19c"/><ellipse cx="1.598" cy="1.598" rx="1.598" ry="1.598" transform="translate(457.363 29.828)" fill="#00c19c"/><ellipse cx="1.598" cy="1.598" rx="1.598" ry="1.598" transform="translate(467.415 15.583)" fill="#00c19c"/><ellipse cx="1.598" cy="1.598" rx="1.598" ry="1.598" transform="translate(451.528 22.341)" fill="#00c19c"/><ellipse cx="1.598" cy="1.598" rx="1.598" ry="1.598" transform="translate(465.896 7.329)" fill="#00c19c"/><ellipse cx="1.598" cy="1.598" rx="1.598" ry="1.598" transform="translate(461.17 8.18)" fill="#00c19c"/><ellipse cx="1.598" cy="1.598" rx="1.598" ry="1.598" transform="translate(454.958 13.487)" fill="#00c19c"/><ellipse cx="1.598" cy="1.598" rx="1.598" ry="1.598" transform="translate(467.304 37.28)" fill="#00c19c"/><ellipse cx="1.598" cy="1.598" rx="1.598" ry="1.598" transform="translate(464.08 24.602)" fill="#00c19c"/><ellipse cx="1.598" cy="1.598" rx="1.598" ry="1.598" transform="translate(462.086 29.24)" fill="#00c19c"/><ellipse cx="1.598" cy="1.598" rx="1.598" ry="1.598" transform="translate(452.388 30.208)" fill="#00c19c"/><ellipse cx="1.598" cy="1.598" rx="1.598" ry="1.598" transform="translate(456.362 21.581)" fill="#00c19c"/><ellipse cx="1.598" cy="1.598" rx="1.598" ry="1.598" transform="translate(454.609 26.02)" fill="#00c19c"/><ellipse cx="1.598" cy="1.598" rx="1.598" ry="1.598" transform="translate(462.567 37.801)" fill="#00c19c"/><ellipse cx="1.598" cy="1.598" rx="1.598" ry="1.598" transform="translate(465.086 41.846)" fill="#00c19c"/><ellipse cx="1.598" cy="1.598" rx="1.598" ry="1.598" transform="translate(458.071 4.515)" fill="#00c19c"/><ellipse cx="1.598" cy="1.598" rx="1.598" ry="1.598" transform="translate(457.763 37.988)" fill="#00c19c"/><ellipse cx="1.598" cy="1.598" rx="1.598" ry="1.598" transform="translate(458.074 46.3)" fill="#00c19c"/><ellipse cx="1.598" cy="1.598" rx="1.598" ry="1.598" transform="translate(462.797 3.665)" fill="#00c19c"/><ellipse cx="1.598" cy="1.598" rx="1.598" ry="1.598" transform="translate(458.036 17.143)" fill="#00c19c"/><ellipse cx="1.598" cy="1.598" rx="1.598" ry="1.598" transform="translate(465.777 20.088)" fill="#00c19c"/><ellipse cx="1.598" cy="1.598" rx="1.598" ry="1.598" transform="translate(464.725 33.248)" fill="#00c19c"/><ellipse cx="1.598" cy="1.598" rx="1.598" ry="1.598" transform="translate(459.958 33.768)" fill="#00c19c"/><ellipse cx="1.598" cy="1.598" rx="1.598" ry="1.598" transform="translate(459.704)" fill="#00c19c"/><ellipse cx="1.598" cy="1.598" rx="1.598" ry="1.598" transform="translate(455.524 42.233)" fill="#00c19c"/><ellipse cx="1.598" cy="1.598" rx="1.598" ry="1.598" transform="translate(459.356 25.344)" fill="#00c19c"/><ellipse cx="1.598" cy="1.598" rx="1.598" ry="1.598" transform="translate(464.37 11.883)" fill="#00c19c"/><ellipse cx="1.598" cy="1.598" rx="1.598" ry="1.598" transform="translate(460.315 42.054)" fill="#00c19c"/><ellipse cx="1.598" cy="1.598" rx="1.598" ry="1.598" transform="translate(466.828 28.539)" fill="#00c19c"/><ellipse cx="1.598" cy="1.598" rx="1.598" ry="1.598" transform="translate(274.891 26.976)" fill="#5151fc"/><ellipse cx="1.598" cy="1.598" rx="1.598" ry="1.598" transform="translate(278.856 24.266)" fill="#5151fc"/><ellipse cx="1.598" cy="1.598" rx="1.598" ry="1.598" transform="translate(276.589 15.083)" fill="#5151fc"/><ellipse cx="1.598" cy="1.598" rx="1.598" ry="1.598" transform="translate(276.233 32.786)" fill="#5151fc"/><ellipse cx="1.598" cy="1.598" rx="1.598" ry="1.598" transform="translate(278.483 19.487)" fill="#5151fc"/><ellipse cx="1.598" cy="1.598" rx="1.598" ry="1.598" transform="translate(274.527 22.197)" fill="#5151fc"/><ellipse cx="1.598" cy="1.598" rx="1.598" ry="1.598" transform="translate(279.224 29.038)" fill="#5151fc"/><ellipse cx="1.598" cy="1.598" rx="1.598" ry="1.598" transform="translate(75.473 17.07)" fill="blue"/><ellipse cx="1.598" cy="1.598" rx="1.598" ry="1.598" transform="translate(75.473 31.447)" fill="blue"/><ellipse cx="1.598" cy="1.598" rx="1.598" ry="1.598" transform="translate(75.473 26.656)" fill="blue"/><ellipse cx="1.598" cy="1.598" rx="1.598" ry="1.598" transform="translate(75.473 21.861)" fill="blue"/><ellipse cx="1.598" cy="1.598" rx="1.598" ry="1.598" transform="translate(295.29 24.27)" fill="#5151fc"/><ellipse cx="1.598" cy="1.598" rx="1.598" ry="1.598" transform="translate(426.779 20.825)" fill="#009959"/><ellipse cx="1.598" cy="1.598" rx="1.598" ry="1.598" transform="translate(428.132 25.422)" fill="#009959"/><ellipse cx="1.598" cy="1.598" rx="1.598" ry="1.598" transform="translate(420.155 27.77)" fill="#009959"/><ellipse cx="1.598" cy="1.598" rx="1.598" ry="1.598" transform="translate(424.311 11.563)" fill="#009959"/><ellipse cx="1.598" cy="1.598" rx="1.598" ry="1.598" transform="translate(423.483 24.3)" fill="#009959"/><ellipse cx="1.598" cy="1.598" rx="1.598" ry="1.598" transform="translate(424.823 28.886)" fill="#009959"/><ellipse cx="1.598" cy="1.598" rx="1.598" ry="1.598" transform="translate(418.849 23.064)" fill="#009959"/><ellipse cx="1.598" cy="1.598" rx="1.598" ry="1.598" transform="translate(421.519 32.368)" fill="#009959"/><ellipse cx="1.598" cy="1.598" rx="1.598" ry="1.598" transform="translate(420.91 14.948)" fill="#009959"/><ellipse cx="1.598" cy="1.598" rx="1.598" ry="1.598" transform="translate(426.185 33.486)" fill="#009959"/><ellipse cx="1.598" cy="1.598" rx="1.598" ry="1.598" transform="translate(422.145 19.587)" fill="#009959"/><ellipse cx="1.598" cy="1.598" rx="1.598" ry="1.598" transform="translate(425.541 16.202)" fill="#009959"/><ellipse cx="1.598" cy="1.598" rx="1.598" ry="1.598" transform="translate(422.888 36.969)" fill="#009959"/><ellipse cx="1.598" cy="1.598" rx="1.598" ry="1.598" transform="translate(112.109 21.862)" fill="blue"/><ellipse cx="1.598" cy="1.598" rx="1.598" ry="1.598" transform="translate(112.109 26.651)" fill="blue"/><ellipse cx="1.598" cy="1.598" rx="1.598" ry="1.598" transform="translate(112.109 31.446)" fill="blue"/><ellipse cx="1.598" cy="1.598" rx="1.598" ry="1.598" transform="translate(112.109 17.071)" fill="blue"/><ellipse cx="1.598" cy="1.598" rx="1.598" ry="1.598" transform="translate(130.427 29.055)" fill="blue"/><ellipse cx="1.598" cy="1.598" rx="1.598" ry="1.598" transform="translate(130.427 24.262)" fill="blue"/><ellipse cx="1.598" cy="1.598" rx="1.598" ry="1.598" transform="translate(130.427 19.467)" fill="blue"/><ellipse cx="1.598" cy="1.598" rx="1.598" ry="1.598" transform="translate(148.745 26.659)" fill="blue"/><ellipse cx="1.598" cy="1.598" rx="1.598" ry="1.598" transform="translate(148.745 21.864)" fill="blue"/><ellipse cx="1.598" cy="1.598" rx="1.598" ry="1.598" transform="translate(370.576 22.946)" fill="#6e94f4"/><ellipse cx="1.598" cy="1.598" rx="1.598" ry="1.598" transform="translate(371.126 32.508)" fill="#6e94f4"/><ellipse cx="1.598" cy="1.598" rx="1.598" ry="1.598" transform="translate(370.297 18.163)" fill="#6e94f4"/><ellipse cx="1.598" cy="1.598" rx="1.598" ry="1.598" transform="translate(366.831 30.362)" fill="#6e94f4"/><ellipse cx="1.598" cy="1.598" rx="1.598" ry="1.598" transform="translate(366.288 20.797)" fill="#6e94f4"/><ellipse cx="1.598" cy="1.598" rx="1.598" ry="1.598" transform="translate(365.998 16.02)" fill="#6e94f4"/><ellipse cx="1.598" cy="1.598" rx="1.598" ry="1.598" transform="translate(367.119 35.143)" fill="#6e94f4"/><ellipse cx="1.598" cy="1.598" rx="1.598" ry="1.598" transform="translate(369.996 13.373)" fill="#6e94f4"/><ellipse cx="1.598" cy="1.598" rx="1.598" ry="1.598" transform="translate(366.555 25.576)" fill="#6e94f4"/><ellipse cx="1.598" cy="1.598" rx="1.598" ry="1.598" transform="translate(370.841 27.725)" fill="#6e94f4"/><ellipse cx="1.598" cy="1.598" rx="1.598" ry="1.598" transform="translate(313.608 21.864)" fill="#5151fc"/><ellipse cx="1.598" cy="1.598" rx="1.598" ry="1.598" transform="translate(313.608 26.659)" fill="#5151fc"/><ellipse cx="1.598" cy="1.598" rx="1.598" ry="1.598" transform="translate(386.881 24.25)" fill="#6e94f4"/><ellipse cx="1.598" cy="1.598" rx="1.598" ry="1.598" transform="translate(331.926 21.866)" fill="#5151fc"/><ellipse cx="1.598" cy="1.598" rx="1.598" ry="1.598" transform="translate(331.926 26.655)" fill="#5151fc"/><ellipse cx="1.598" cy="1.598" rx="1.598" ry="1.598" transform="translate(331.926 17.075)" fill="#5151fc"/><ellipse cx="1.598" cy="1.598" rx="1.598" ry="1.598" transform="translate(331.926 31.45)" fill="#5151fc"/><ellipse cx="1.598" cy="1.598" rx="1.598" ry="1.598" transform="translate(570.062 24.259)" fill="#00ffb6"/><ellipse cx="1.598" cy="1.598" rx="1.598" ry="1.598" transform="translate(515.108 21.865)" fill="#8ae297"/><ellipse cx="1.598" cy="1.598" rx="1.598" ry="1.598" transform="translate(515.108 31.449)" fill="#8ae297"/><ellipse cx="1.598" cy="1.598" rx="1.598" ry="1.598" transform="translate(515.108 17.074)" fill="#8ae297"/><ellipse cx="1.598" cy="1.598" rx="1.598" ry="1.598" transform="translate(515.108 26.654)" fill="#8ae297"/><ellipse cx="1.598" cy="1.598" rx="1.598" ry="1.598" transform="translate(4.243 22.989)" fill="#8131f4"/><ellipse cx="1.598" cy="1.598" rx="1.598" ry="1.598" transform="translate(0 20.739)" fill="#8131f4"/><ellipse cx="1.598" cy="1.598" rx="1.598" ry="1.598" transform="translate(2.789 34.439)" fill="#8131f4"/><ellipse cx="1.598" cy="1.598" rx="1.598" ry="1.598" transform="translate(4.067 18.202)" fill="#8131f4"/><ellipse cx="1.598" cy="1.598" rx="1.598" ry="1.598" transform="translate(0.168 25.523)" fill="#8131f4"/><ellipse cx="1.598" cy="1.598" rx="1.598" ry="1.598" transform="translate(4.405 27.778)" fill="#8131f4"/><ellipse cx="1.598" cy="1.598" rx="1.598" ry="1.598" transform="translate(1.591 14.096)" fill="#8131f4"/><ellipse cx="1.598" cy="1.598" rx="1.598" ry="1.598" transform="translate(0.339 30.32)" fill="#8131f4"/><ellipse cx="1.598" cy="1.598" rx="1.598" ry="1.598" transform="translate(222.018 24.262)" fill="blue"/><ellipse cx="1.598" cy="1.598" rx="1.598" ry="1.598" transform="translate(480.763 12.319)" fill="#00c19c"/><ellipse cx="1.598" cy="1.598" rx="1.598" ry="1.598" transform="translate(476.639 38.651)" fill="#00c19c"/><ellipse cx="1.598" cy="1.598" rx="1.598" ry="1.598" transform="translate(480.658 26.647)" fill="#00c19c"/><ellipse cx="1.598" cy="1.598" rx="1.598" ry="1.598" transform="translate(480.76 36.208)" fill="#00c19c"/><ellipse cx="1.598" cy="1.598" rx="1.598" ry="1.598" transform="translate(476.489 24.265)" fill="#00c19c"/><ellipse cx="1.598" cy="1.598" rx="1.598" ry="1.598" transform="translate(476.643 9.875)" fill="#00c19c"/><ellipse cx="1.598" cy="1.598" rx="1.598" ry="1.598" transform="translate(476.51 29.057)" fill="#00c19c"/><ellipse cx="1.598" cy="1.598" rx="1.598" ry="1.598" transform="translate(480.694 31.41)" fill="#00c19c"/><ellipse cx="1.598" cy="1.598" rx="1.598" ry="1.598" transform="translate(476.563 14.664)" fill="#00c19c"/><ellipse cx="1.598" cy="1.598" rx="1.598" ry="1.598" transform="translate(476.57 33.857)" fill="#00c19c"/><ellipse cx="1.598" cy="1.598" rx="1.598" ry="1.598" transform="translate(476.503 19.461)" fill="#00c19c"/><ellipse cx="1.598" cy="1.598" rx="1.598" ry="1.598" transform="translate(480.649 21.89)" fill="#00c19c"/><ellipse cx="1.598" cy="1.598" rx="1.598" ry="1.598" transform="translate(480.688 17.095)" fill="#00c19c"/><ellipse cx="1.598" cy="1.598" rx="1.598" ry="1.598" transform="translate(405.199 21.864)" fill="#6e94f4"/><ellipse cx="1.598" cy="1.598" rx="1.598" ry="1.598" transform="translate(405.199 26.659)" fill="#6e94f4"/><ellipse cx="1.598" cy="1.598" rx="1.598" ry="1.598" transform="translate(258.654 24.252)" fill="blue"/><ellipse cx="1.598" cy="1.598" rx="1.598" ry="1.598" transform="translate(350.245 21.869)" fill="#5151fc"/><ellipse cx="1.598" cy="1.598" rx="1.598" ry="1.598" transform="translate(350.245 26.664)" fill="#5151fc"/><ellipse cx="1.598" cy="1.598" rx="1.598" ry="1.598" transform="translate(496.789 21.861)" fill="#8ae297"/><ellipse cx="1.598" cy="1.598" rx="1.598" ry="1.598" transform="translate(496.789 26.656)" fill="#8ae297"/></g><text transform="translate(190.476 66.44) rotate(-45)" font-size="8" font-family="HKGrotesk-Regular, HK Grotesk"><tspan x="0" y="0">scena erotica</tspan></text><text transform="translate(235.372 59.794) rotate(-45)" font-size="8" font-family="HKGrotesk-Regular, HK Grotesk"><tspan x="0" y="0">telefonata</tspan></text><text transform="translate(267.999 69.155) rotate(-45)" font-size="8" font-family="HKGrotesk-Regular, HK Grotesk"><tspan x="0" y="0">arrivo/ritorno</tspan></text><text transform="translate(268.131 51.014) rotate(-45)" font-size="8" font-family="HKGrotesk-Regular, HK Grotesk"><tspan x="0" y="0">fuga</tspan></text><text transform="translate(337.308 51.216) rotate(-45)" font-size="8" font-family="HKGrotesk-Regular, HK Grotesk"><tspan x="0" y="0">viaggio</tspan></text><text transform="translate(368.53 54.419) rotate(-45)" font-size="8" font-family="HKGrotesk-Regular, HK Grotesk"><tspan x="0" y="0">ostacolo</tspan></text><text transform="translate(389.085 57.863) rotate(-45)" font-size="8" font-family="HKGrotesk-Regular, HK Grotesk"><tspan x="0" y="0">successo</tspan></text><text transform="translate(469.176 73.537) rotate(-45)" font-size="8" font-family="HKGrotesk-Regular, HK Grotesk"><tspan x="0" y="0">innamoramento</tspan></text><text transform="translate(478.502 82.917) rotate(-45)" font-size="8" font-family="HKGrotesk-Regular, HK Grotesk"><tspan x="0" y="0">angoscia/delusione</tspan></text><text transform="translate(454.667 73.075) rotate(-45)" font-size="8" font-family="HKGrotesk-Regular, HK Grotesk"><tspan x="0" y="0">riflessione</tspan></text><path d="M770.343,0" transform="translate(-56.575 26.054)" fill="none" stroke="#000" stroke-width="0.5" stroke-dasharray="2"/></g><text transform="translate(1 139)" font-size="14" font-family="HKGrotesk-Medium, HK Grotesk" font-weight="500"><tspan x="0" y="13">La nuvola di smog e La formica argentina</tspan></text><text transform="translate(685 13.392)" font-size="10" font-family="HKGrotesk-Medium, HK Grotesk" font-weight="500"><tspan x="0" y="0">148 sequenze</tspan></text><text transform="translate(685 154.392)" font-size="10" font-family="HKGrotesk-Medium, HK Grotesk" font-weight="500"><tspan x="0" y="0">142 sequenze</tspan></text></g></svg>