<svg xmlns="http://www.w3.org/2000/svg" xmlns:xlink="http://www.w3.org/1999/xlink" width="750" height="367" viewBox="0 0 750 367"><defs><filter id="a" x="-7" y="112" width="417" height="35" filterUnits="userSpaceOnUse"><feOffset dy="3" input="SourceAlpha"/><feGaussianBlur stdDeviation="3" result="b"/><feFlood flood-color="#fff"/><feComposite operator="in" in2="b"/><feComposite in="SourceGraphic"/></filter><clipPath id="d"><rect width="750" height="367"/></clipPath></defs><g id="c" clip-path="url(#d)"><rect width="11.128" height="0.148" transform="translate(0 39)" fill="orange"/><rect width="11.128" height="2.01" transform="translate(22.872 47.245)" fill="#00ffb6"/><g transform="translate(34.332 49.255)"><rect width="11.128" height="1.703" fill="#5151fc"/><rect width="11.128" height="0.384" transform="translate(0 1.704)" fill="#5151fc"/><rect width="11.128" height="2.331" transform="translate(0 2.088)" fill="#5151fc"/></g><rect width="11.128" height="1.776" transform="translate(45.792 53.675)" fill="#00ffb6"/><rect width="11.128" height="2.903" transform="translate(57.252 55.452)" fill="#5151fc"/><g transform="translate(80.172 58.612)"><rect width="11.128" height="1.448" fill="#5151fc"/><rect width="11.128" height="3.075" transform="translate(0 1.448)" fill="#5151fc"/><rect width="11.128" height="2.64" transform="translate(0 4.524)" fill="#5151fc"/><rect width="11.128" height="1.814" transform="translate(0 7.165)" fill="#5151fc"/><rect width="11.128" height="1.097" transform="translate(0 8.979)" fill="#5151fc"/><rect width="11.128" height="1.332" transform="translate(0 10.078)" fill="#5151fc"/></g><rect width="11.128" height="0.255" transform="translate(91.632 70.022)" fill="#00ffb6"/><rect width="11.128" height="0.708" transform="translate(103.092 70.277)" fill="#5151fc"/><rect width="11.128" height="2.004" transform="translate(126.011 71.077)" fill="#5151fc"/><g transform="translate(137.472 73.082)"><rect width="11.128" height="0.685" fill="#00ffb6"/><rect width="11.128" height="2.705" transform="translate(0 0.685)" fill="#00ffb6"/></g><g transform="translate(148.829 76.472)"><rect width="11.128" height="0.473" fill="#5151fc"/><rect width="11.128" height="0.729" transform="translate(0 0.474)" fill="#5151fc"/><rect width="11.128" height="0.773" transform="translate(0 1.203)" fill="#5151fc"/></g><rect width="11.128" height="1.65" transform="translate(150.123 78.448)" fill="#00ffb6"/><rect width="11.128" height="0.416" transform="translate(160.849 80.097)" fill="#5151fc"/><rect width="11.128" height="0.537" transform="translate(171.575 80.514)" fill="#00ffb6"/><rect width="11.128" height="0.633" transform="translate(182.301 81.05)" fill="#5151fc"/><rect width="11.128" height="1.766" transform="translate(193.028 81.684)" fill="#00ffb6"/><rect width="11.128" height="1.932" transform="translate(214.48 83.7)" fill="#5151fc"/><g transform="translate(225.207 85.632)"><rect width="11.128" height="1.661" fill="#00ffb6"/><rect width="11.128" height="0.851" transform="translate(0 1.661)" fill="#00ffb6"/></g><rect width="11.128" height="1.462" transform="translate(235.932 88.144)" fill="#5151fc"/><g transform="translate(257.385 89.917)"><rect width="11.128" height="1.471" fill="#5151fc"/><rect width="11.128" height="0.706" transform="translate(0 1.471)" fill="#5151fc"/><rect width="11.128" height="1.746" transform="translate(0 2.177)" fill="#5151fc"/><rect width="11.128" height="1.04" transform="translate(0 3.923)" fill="#5151fc"/><rect width="11.128" height="0.663" transform="translate(0 4.964)" fill="#5151fc"/><rect width="11.128" height="0.759" transform="translate(0 5.626)" fill="#5151fc"/><rect width="11.128" height="0.401" transform="translate(0 6.385)" fill="#5151fc"/><rect width="11.128" height="1.823" transform="translate(0 6.787)" fill="#5151fc"/><rect width="11.128" height="0.385" transform="translate(0 8.61)" fill="#5151fc"/><rect width="11.128" height="0.997" transform="translate(0 8.996)" fill="#5151fc"/><rect width="11.128" height="0.909" transform="translate(0 9.993)" fill="#5151fc"/><rect width="11.128" height="1.078" transform="translate(0 10.901)" fill="#5151fc"/></g><g transform="translate(278.837 102.228)"><rect width="11.128" height="1.328" fill="#5151fc"/><rect width="11.128" height="0.551" transform="translate(0 1.328)" fill="#5151fc"/><rect width="11.128" height="0.781" transform="translate(0 1.88)" fill="#5151fc"/><rect width="11.128" height="1.139" transform="translate(0 2.661)" fill="#5151fc"/><rect width="11.128" height="1.117" transform="translate(0 3.801)" fill="#5151fc"/><rect width="11.128" height="2.335" transform="translate(0 4.918)" fill="#5151fc"/></g><g transform="translate(300.29 109.631)"><rect width="11.128" height="1.249" fill="#5151fc"/><rect width="11.128" height="2.905" transform="translate(0 1.248)" fill="#5151fc"/><rect width="11.128" height="1.239" transform="translate(0 4.152)" fill="#5151fc"/><rect width="11.128" height="2.449" transform="translate(0 5.392)" fill="#5151fc"/></g><rect width="11.128" height="0.781" transform="translate(311.016 117.472)" fill="#00ffb6"/><g transform="translate(321.743 118.253)"><rect width="11.128" height="2.501" fill="#5151fc"/><rect width="11.128" height="0.065" transform="translate(0 2.501)" fill="#5151fc"/><rect width="11.128" height="0.255" transform="translate(0 2.567)" fill="#5151fc"/></g><rect width="11.128" height="0.984" transform="translate(332.468 121.074)" fill="#00ffb6"/><rect width="11.128" height="1.301" transform="translate(343.195 122.059)" fill="#5151fc"/><g transform="translate(364.647 123.746)"><rect width="11.128" height="1.653" fill="#5151fc"/><rect width="11.128" height="0.146" transform="translate(0 1.654)" fill="#5151fc"/><rect width="11.128" height="1.477" transform="translate(0 1.8)" fill="#5151fc"/><rect width="11.128" height="0.146" transform="translate(0 3.277)" fill="#5151fc"/><rect width="11.128" height="0.78" transform="translate(0 3.424)" fill="#5151fc"/><rect width="11.128" height="0.166" transform="translate(0 4.204)" fill="#5151fc"/><rect width="11.128" height="0.796" transform="translate(0 4.37)" fill="#5151fc"/></g><g transform="translate(375.374 128.912)"><rect width="11.128" height="3.741" fill="#00ffb6"/><rect width="11.128" height="0.705" transform="translate(0 3.741)" fill="#00ffb6"/><rect width="11.128" height="1.005" transform="translate(0 4.445)" fill="#00ffb6"/></g><g transform="translate(396.826 134.619)"><rect width="11.128" height="0.985" fill="#5151fc"/><rect width="11.128" height="0.125" transform="translate(0 0.986)" fill="#5151fc"/><rect width="11.128" height="0.656" transform="translate(0 1.11)" fill="#5151fc"/><rect width="11.128" height="0.698" transform="translate(0 1.767)" fill="#5151fc"/></g><rect width="11.128" height="0.333" transform="translate(407.552 137.084)" fill="#00ffb6"/><rect width="11.128" height="0.496" transform="translate(418.279 137.418)" fill="#5151fc"/><g transform="translate(429.004 137.914)"><rect width="11.128" height="1.841" fill="#00ffb6"/><rect width="11.128" height="0.717" transform="translate(0 1.841)" fill="#5151fc"/><rect width="11.128" height="1.376" transform="translate(0 2.558)" fill="#5151fc"/><rect width="11.128" height="0.967" transform="translate(0 3.935)" fill="#5151fc"/><rect width="11.128" height="0.716" transform="translate(0 4.902)" fill="#5151fc"/></g><rect width="11.128" height="0.709" transform="translate(439.731 143.532)" fill="#00ffb6"/><g transform="translate(450.458 144.242)"><rect width="11.128" height="0.82" fill="#5151fc"/><rect width="11.128" height="0.928" transform="translate(0 0.82)" fill="#5151fc"/></g><rect width="11.128" height="1.223" transform="translate(461.183 145.99)" fill="#00ffb6"/><g transform="translate(471.91 147.214)"><rect width="11.128" height="0.683" fill="#5151fc"/><rect width="11.128" height="0.408" transform="translate(0 0.683)" fill="#5151fc"/><rect width="11.128" height="0.671" transform="translate(0 1.092)" fill="#5151fc"/><rect width="11.128" height="0.702" transform="translate(0 1.763)" fill="#5151fc"/></g><rect width="11.128" height="1.372" transform="translate(482.636 149.679)" fill="#00ffb6"/><g transform="translate(493.362 151.052)"><rect width="11.128" height="0.527" fill="#5151fc"/><rect width="11.128" height="0.568" transform="translate(0 0.528)" fill="#5151fc"/><rect width="11.128" height="0.572" transform="translate(0 1.096)" fill="#5151fc"/><rect width="11.128" height="0.64" transform="translate(0 1.668)" fill="#5151fc"/><rect width="11.128" height="0.207" transform="translate(0 2.309)" fill="#5151fc"/><rect width="11.128" height="0.358" transform="translate(0 2.517)" fill="#5151fc"/><rect width="11.128" height="0.838" transform="translate(0 2.875)" fill="#5151fc"/><rect width="11.128" height="0.705" transform="translate(0 3.713)" fill="#5151fc"/></g><rect width="11.128" height="0.773" transform="translate(514.815 155.598)" fill="#5151fc"/><rect width="11.128" height="0.423" transform="translate(514.815 156.371)" fill="#5151fc"/><rect width="11.128" height="0.688" transform="translate(514.815 156.795)" fill="#5151fc"/><g transform="translate(525.54 157.484)"><rect width="11.128" height="1.209" fill="#00ffb6"/><rect width="11.128" height="0.853" transform="translate(0 1.209)" fill="#00ffb6"/><rect width="11.128" height="0.427" transform="translate(0 2.063)" fill="#00ffb6"/></g><rect width="11.128" height="0.951" transform="translate(536.267 159.974)" fill="#5151fc"/><g transform="translate(546.994 160.925)"><rect width="11.128" height="2.614" fill="#00ffb6"/></g><g transform="translate(557.719 163.538)"><rect width="11.128" height="2.893" fill="#5151fc"/><rect width="11.128" height="1.029" transform="translate(0 2.893)" fill="#5151fc"/></g><rect width="11.128" height="1.247" transform="translate(568.446 167.46)" fill="#00ffb6"/><rect width="11.128" height="0.291" transform="translate(589.898 168.922)" fill="#5151fc"/><rect width="11.128" height="1.744" transform="translate(591.174 169.213)" fill="#00ffb6"/><rect width="11.128" height="0.738" transform="translate(602.634 170.957)" fill="#5151fc"/><g transform="translate(614.095 171.68)"><rect width="11.128" height="0.783" fill="#00ffb6"/><rect width="11.128" height="2.924" transform="translate(0 0.784)" fill="#00ffb6"/><rect width="11.128" height="2.576" transform="translate(0 3.708)" fill="#00ffb6"/><rect width="11.128" height="1.584" transform="translate(0 6.285)" fill="#00ffb6"/><rect width="11.128" height="0.44" transform="translate(0 7.869)" fill="#00ffb6"/><rect width="11.128" height="1.012" transform="translate(0 8.31)" fill="#00ffb6"/><rect width="11.128" height="0.3" transform="translate(0 9.323)" fill="#00ffb6"/><rect width="11.128" height="1.437" transform="translate(0 9.623)" fill="#00ffb6"/></g><g transform="translate(625.555 182.742)"><rect width="11.128" height="2.407" fill="#5151fc"/></g><g transform="translate(637.015 185.149)"><rect width="11.128" height="0.495" fill="#00ffb6"/><rect width="11.128" height="0.347" transform="translate(0 0.496)" fill="#00ffb6"/></g><g transform="translate(660.112 186.288)"><rect width="11.128" height="2.988" fill="#5151fc"/><rect width="11.128" height="0.327" transform="translate(0 2.989)" fill="#5151fc"/><rect width="11.128" height="0.924" transform="translate(0 3.316)" fill="#5151fc"/></g><g transform="translate(671.573 190.529)"><rect width="11.128" height="1.207" fill="#00ffb6"/><rect width="11.128" height="1.122" transform="translate(0 1.207)" fill="#00ffb6"/></g><rect width="11.128" height="2.723" transform="translate(683.032 192.86)" fill="#5151fc"/><rect width="11.128" height="3.143" transform="translate(694.492 195.587)" fill="#00ffb6"/><rect width="11.128" height="0.242" transform="translate(68.76 58.293)" fill="orange"/><rect width="11.128" height="0.089" transform="translate(114.6 70.926)" fill="orange"/><rect width="11.128" height="0.235" transform="translate(203.799 83.407)" fill="orange"/><rect width="11.128" height="0.299" transform="translate(246.704 89.564)" fill="orange"/><rect width="11.128" height="0.316" transform="translate(268.156 101.862)" fill="orange"/><rect width="11.128" height="0.137" transform="translate(289.608 109.45)" fill="orange"/><rect width="11.128" height="0.37" transform="translate(353.966 123.337)" fill="orange"/><rect width="11.128" height="0.246" transform="translate(386.144 134.34)" fill="orange"/><rect width="11.128" height="0.113" transform="translate(504.132 155.463)" fill="orange"/><rect width="11.128" height="0.203" transform="translate(579.217 168.701)" fill="orange"/><rect width="11.128" height="0.286" transform="translate(648.522 186)" fill="orange"/><g transform="translate(11.412 39.129)"><rect width="11.128" height="4.983" fill="#5151fc"/><rect width="11.128" height="1.237" transform="translate(0 4.983)" fill="#5151fc"/><rect width="11.128" height="0.414" transform="translate(0 6.221)" fill="#5151fc"/><rect width="11.128" height="1.609" transform="translate(0 6.636)" fill="#5151fc"/></g><rect width="11.128" height="1.587" transform="translate(705.952 198.734)" fill="#5151fc"/><rect width="11.128" height="1.171" transform="translate(717.412 200.321)" fill="#00ffb6"/><g transform="translate(728.872 201.492)"><rect width="11.128" height="1.015" fill="#5151fc"/><rect width="11.128" height="1.496" transform="translate(0 1.016)" fill="#5151fc"/></g><g transform="translate(2 151.921)"><g transform="translate(0)"><rect width="11.128" height="1.344" fill="#5151fc"/><rect width="11.128" height="2.106" transform="translate(0 1.345)" fill="#5151fc"/><g transform="translate(11.46 3.452)"><rect width="11.128" height="1.05" fill="#00ffb6"/><rect width="11.128" height="1.792" transform="translate(0 1.052)" fill="#00ffb6"/></g><g transform="translate(22.92 6.296)"><rect width="11.128" height="3.346" fill="#5151fc"/></g><g transform="translate(34.379 9.644)"><rect width="11.128" height="2.735" fill="#00ffb6"/><rect width="11.128" height="5.724" transform="translate(0 2.736)" fill="#00ffb6"/></g><g transform="translate(45.84 18.105)"><rect width="11.128" height="2.272" fill="#5151fc"/><rect width="11.128" height="2.545" transform="translate(0 2.274)" fill="#5151fc"/><rect width="11.128" height="1.878" transform="translate(0 4.821)" fill="#5151fc"/><rect width="11.128" height="3.754" transform="translate(0 6.699)" fill="#5151fc"/><rect width="11.128" height="0.503" transform="translate(0 10.454)" fill="#5151fc"/><rect width="11.128" height="1.762" transform="translate(0 10.959)" fill="#5151fc"/></g><rect width="11.128" height="0.647" transform="translate(57.3 30.826)" fill="#00ffb6"/><g transform="translate(68.76 31.474)"><rect width="11.128" height="0.032" fill="#5151fc"/><rect width="11.128" height="1.011" transform="translate(0 0.033)" fill="#5151fc"/><rect width="11.128" height="4.437" transform="translate(0 1.047)" fill="#5151fc"/></g><g transform="translate(80.22 36.96)"><rect width="11.128" height="0.775" fill="#00ffb6"/><rect width="11.128" height="2.278" transform="translate(0 0.776)" fill="#00ffb6"/></g><rect width="11.128" height="1.167" transform="translate(91.68 40.016)" fill="#5151fc"/><rect width="11.128" height="1.073" transform="translate(103.881 41.183)" fill="#00ffb6"/><rect width="11.128" height="1.43" transform="translate(114.381 42.259)" fill="#5151fc"/><rect width="11.128" height="1.166" transform="translate(125.82 43.69)" fill="#00ffb6"/><g transform="translate(137.258 44.856)"><rect width="11.128" height="0.591" fill="#5151fc"/><rect width="11.128" height="0.439" transform="translate(0 0.592)" fill="#5151fc"/><rect width="11.128" height="0.948" transform="translate(0 1.032)" fill="#5151fc"/><rect width="11.128" height="0.756" transform="translate(0 1.981)" fill="#5151fc"/></g><rect width="11.128" height="3.292" transform="translate(148.696 47.595)" fill="#00ffb6"/><rect width="11.128" height="0.224" transform="translate(160.134 50.889)" fill="#5151fc"/><rect width="11.128" height="0.49" transform="translate(160.134 51.114)" fill="#5151fc"/><rect width="11.128" height="0.416" transform="translate(171.573 51.605)" fill="#00ffb6"/><rect width="11.128" height="0.387" transform="translate(183.011 52.023)" fill="#5151fc"/><rect width="11.128" height="0.982" transform="translate(194.449 52.411)" fill="#00ffb6"/><rect width="11.128" height="1.623" transform="translate(194.449 53.393)" fill="#00ffb6"/><g transform="translate(205.887 55.018)"><rect width="11.128" height="1.299" fill="#5151fc"/></g><g transform="translate(217.326 56.319)"><rect width="11.128" height="1.39" fill="#00ffb6"/><rect width="11.128" height="0.15" transform="translate(0 1.391)" fill="#00ffb6"/><rect width="11.128" height="0.852" transform="translate(0 1.541)" fill="#00ffb6"/></g><g transform="translate(228.764 58.714)"><rect width="11.128" height="1.212" fill="#5151fc"/><rect width="11.128" height="0.628" transform="translate(0 1.213)" fill="#5151fc"/><rect width="11.128" height="1.251" transform="translate(0 1.843)" fill="#5151fc"/><rect width="11.128" height="2.412" transform="translate(0 3.095)" fill="#5151fc"/><rect width="11.128" height="0.946" transform="translate(0 5.509)" fill="#5151fc"/><rect width="11.128" height="1.866" transform="translate(0 6.456)" fill="#5151fc"/></g><g transform="translate(240.202 67.036)"><rect width="11.128" height="0.676" fill="#00ffb6"/><rect width="11.128" height="0.259" transform="translate(0 0.677)" fill="#00ffb6"/></g><g transform="translate(251.64 67.974)"><rect width="11.128" height="6.862" fill="#5151fc"/><rect width="11.128" height="5.761" transform="translate(0 6.864)" fill="#5151fc"/><rect width="11.128" height="4.427" transform="translate(0 12.627)" fill="#5151fc"/><rect width="11.128" height="1.755" transform="translate(0 17.055)" fill="#5151fc"/><rect width="11.128" height="0.542" transform="translate(0 18.811)" fill="#5151fc"/></g><rect width="11.128" height="2.349" transform="translate(263.079 87.329)" fill="#00ffb6"/><rect width="11.128" height="0.688" transform="translate(274.516 89.678)" fill="#5151fc"/><rect width="11.128" height="0.456" transform="translate(285.954 90.367)" fill="#00ffb6"/><rect width="11.128" height="1.491" transform="translate(297.392 90.824)" fill="#5151fc"/><rect width="11.128" height="1.29" transform="translate(308.83 92.316)" fill="#00ffb6"/><rect width="11.128" height="0.599" transform="translate(320.269 93.607)" fill="#5151fc"/><rect width="11.128" height="0.987" transform="translate(320.269 94.206)" fill="#5151fc"/><g transform="translate(331.707 95.195)"><rect width="11.128" height="1.421" fill="#00ffb6"/><rect width="11.128" height="2.113" transform="translate(0 1.443)" fill="#00ffb6"/><rect width="11.128" height="2.412" transform="translate(0 3.557)" fill="#00ffb6"/><rect width="11.128" height="1.219" transform="translate(0 5.97)" fill="#00ffb6"/></g><g transform="translate(343.145 102.385)"><rect width="11.128" height="1.489" fill="#5151fc"/><rect width="11.128" height="0.213" transform="translate(0 1.49)" fill="#5151fc"/><rect width="11.128" height="1.533" transform="translate(0 1.704)" fill="#5151fc"/></g><rect width="11.128" height="4.586" transform="translate(354.583 105.623)" fill="#00ffb6"/><rect width="11.128" height="0.516" transform="translate(366.022 110.21)" fill="#5151fc"/><rect width="11.128" height="0.322" transform="translate(377.46 110.727)" fill="#00ffb6"/><rect width="11.128" height="0.746" transform="translate(377.46 111.05)" fill="#00ffb6"/><rect width="11.128" height="2.642" transform="translate(377.46 111.797)" fill="#00ffb6"/><g transform="translate(388.898 114.44)"><rect width="11.128" height="4.257" fill="#5151fc"/></g><g transform="translate(400.336 118.698)"><rect width="11.128" height="1.919" fill="#00ffb6"/><rect width="11.128" height="0.891" transform="translate(0 1.92)" fill="#00ffb6"/></g><rect width="11.128" height="8.618" transform="translate(411.775 121.51)" fill="#5151fc"/><rect width="11.128" height="0.259" transform="translate(423.213 130.13)" fill="#00ffb6"/><rect width="11.128" height="0.562" transform="translate(434.651 130.39)" fill="#5151fc"/><g transform="translate(446.088 130.953)"><rect width="11.128" height="2.261" fill="#00ffb6"/><rect width="11.128" height="0.614" transform="translate(0 2.262)" fill="#00ffb6"/><rect width="11.128" height="0.968" transform="translate(0 2.877)" fill="#00ffb6"/><rect width="11.128" height="1.337" transform="translate(0 3.845)" fill="#00ffb6"/><rect width="11.128" height="0.964" transform="translate(0 5.184)" fill="#00ffb6"/></g><g transform="translate(456.59 137.103)"><rect width="11.128" height="1.346" fill="#5151fc"/><rect width="11.128" height="1.377" transform="translate(0 1.347)" fill="#5151fc"/><rect width="11.128" height="2.743" transform="translate(0 2.724)" fill="#5151fc"/></g><rect width="11.128" height="0.83" transform="translate(468.791 142.571)" fill="#00ffb6"/><g transform="translate(480.251 143.403)"><rect width="11.128" height="4.203" fill="#5151fc"/><rect width="11.128" height="0.635" transform="translate(0 4.204)" fill="#5151fc"/><rect width="11.128" height="0.494" transform="translate(0 4.84)" fill="#5151fc"/></g><rect width="11.128" height="1.122" transform="translate(491.711 148.737)" fill="#00ffb6"/><g transform="translate(503.171 149.86)"><rect width="11.128" height="4.439" fill="#5151fc"/><rect width="11.128" height="0.279" transform="translate(0 4.44)" fill="#5151fc"/></g><rect width="11.128" height="2.128" transform="translate(514.63 154.581)" fill="#00ffb6"/><g transform="translate(526.09 156.709)"><rect width="11.128" height="0.453" fill="#5151fc"/><rect width="11.128" height="1.237" transform="translate(0 0.454)" fill="#5151fc"/><rect width="11.128" height="1.224" transform="translate(0 1.692)" fill="#5151fc"/></g><rect width="11.128" height="0.904" transform="translate(537.551 159.626)" fill="#00ffb6"/><rect width="11.128" height="1.054" transform="translate(549.011 160.532)" fill="#5151fc"/><g transform="translate(560.471 161.586)"><rect width="11.128" height="0.938" fill="#00ffb6"/><rect width="11.128" height="2.586" transform="translate(0 0.939)" fill="#00ffb6"/></g></g></g><text transform="translate(723 220)" font-size="10" font-family="HKGrotesk-Regular, HK Grotesk"><tspan x="0" y="0">fine</tspan></text><text transform="translate(520 327)" font-size="10" font-family="HKGrotesk-Regular, HK Grotesk"><tspan x="0" y="0">fine</tspan></text><g transform="translate(0 17)"><path d="M4202.022,2217.257c0,1.981-.022,8.27-.022,8.27" transform="translate(-4198.5 -1895)" fill="none" stroke="#000" stroke-width="0.5"/><path d="M4202,2217.6v7.925" transform="translate(-4085.5 -1895)" fill="none" stroke="#000" stroke-width="0.5"/><path d="M4202,2217.6v7.925" transform="translate(-3985.906 -1895)" fill="none" stroke="#000" stroke-width="0.5"/><path d="M4202,2217.6v7.925" transform="translate(-3879.969 -1895)" fill="none" stroke="#000" stroke-width="0.5"/><path d="M4202,2217.6v7.925" transform="translate(-3774.031 -1895)" fill="none" stroke="#000" stroke-width="0.5"/><path d="M4202,2217.6v7.925" transform="translate(-3663.406 -1895)" fill="none" stroke="#000" stroke-width="0.5"/><path d="M4202,2217.6v7.925" transform="translate(-3568.5 -1895)" fill="none" stroke="#000" stroke-width="0.5"/><text transform="translate(532 346)" font-size="10" font-family="HKGrotesk-Regular, HK Grotesk"><tspan x="0" y="0">50</tspan></text><text transform="translate(0 346)" font-size="10" font-family="HKGrotesk-Regular, HK Grotesk"><tspan x="0" y="0">0</tspan></text><path d="M0,0H737" transform="translate(3.5 322.5)" fill="none" stroke="#000" stroke-width="0.5"/><text transform="translate(15 346)" font-size="10" font-family="HKGrotesk-Regular, HK Grotesk"><tspan x="0" y="0">salti di ambito</tspan></text><text transform="translate(548 346)" font-size="10" font-family="HKGrotesk-Regular, HK Grotesk"><tspan x="0" y="0">salti di ambito</tspan></text><path d="M4202,2217.6v7.925" transform="translate(-3461.5 -1895)" fill="none" stroke="#000" stroke-width="0.5"/><text transform="translate(734 346)" font-size="10" font-family="HKGrotesk-Regular, HK Grotesk"><tspan x="0" y="0">70</tspan></text></g><g transform="translate(0 34.831)"><path d="M5732.01,1229v304.425" transform="translate(-5193.51 -1229)" fill="none" stroke="#000" stroke-width="0.5" stroke-dasharray="2"/><path d="M5732.01,1229v304.425" transform="translate(-5303.51 -1229)" fill="none" stroke="#6e6e6e" stroke-width="0.5" stroke-dasharray="2"/><path d="M5732.01,1229v304.425" transform="translate(-5098.51 -1229)" fill="none" stroke="#6e6e6e" stroke-width="0.5" stroke-dasharray="2"/><path d="M5732.01,1229v304.425" transform="translate(-5410.51 -1229)" fill="none" stroke="#6e6e6e" stroke-width="0.5" stroke-dasharray="2"/><path d="M5732.01,1229v304.425" transform="translate(-5515.51 -1229)" fill="none" stroke="#6e6e6e" stroke-width="0.5" stroke-dasharray="2"/><path d="M5732.01,1229v304.425" transform="translate(-5615.51 -1229)" fill="none" stroke="#6e6e6e" stroke-width="0.5" stroke-dasharray="2"/><path d="M5732.01,1229v311.235" transform="translate(-4991.51 -1229)" fill="none" stroke="#000" stroke-width="0.5" stroke-dasharray="2"/><rect width="260" height="35" transform="translate(0 80.169)" fill="#fff"/></g><g transform="matrix(1, 0, 0, 1, 0, 0)" filter="url(#a)"><text transform="translate(2 118)" font-size="14" font-family="HKGrotesk-Medium, HK Grotesk" font-weight="500"><tspan x="0" y="13">La nuvola di smog e La formica argentina</tspan></text></g><text transform="translate(2 147)" font-size="10" font-family="HKGrotesk-Regular, HK Grotesk"><tspan x="0" y="0">inizio</tspan></text><text transform="translate(0 -2)" font-size="14" font-family="HKGrotesk-Medium, HK Grotesk" font-weight="500"><tspan x="0" y="13">Le Cosmicomiche</tspan></text><text transform="translate(0 30)" font-size="10" font-family="HKGrotesk-Regular, HK Grotesk"><tspan x="0" y="0">inizio del testo</tspan></text></g></svg>