<svg xmlns="http://www.w3.org/2000/svg" xmlns:xlink="http://www.w3.org/1999/xlink" width="250" height="328" viewBox="0 0 250 328"><defs><clipPath id="b"><rect width="250" height="328"/></clipPath></defs><g id="a" clip-path="url(#b)"><rect width="250" height="328" fill="#fff"/><g transform="translate(0 17)"><g transform="translate(-149 109.055)"><g transform="translate(150 -87.908)"><g transform="translate(0 0)" opacity="0.099"><g transform="translate(0 0)"><rect width="107.439" height="2.213" fill="#5151fc" stroke="#fff" stroke-width="0.22"/><rect width="107.439" height="3.467" transform="translate(0 2.214)" fill="#5151fc" stroke="#fff" stroke-width="0.22"/><rect width="107.439" height="1.729" transform="translate(0 5.683)" fill="#00c19c" stroke="#fff" stroke-width="0.22"/><rect width="107.439" height="2.95" transform="translate(0 7.414)" fill="#00c19c" stroke="#fff" stroke-width="0.22"/><rect width="107.439" height="4.502" transform="translate(0 15.877)" fill="#00ffb6" stroke="#fff" stroke-width="0.22"/><rect width="107.439" height="9.424" transform="translate(0 20.381)" fill="#00c19c" stroke="#fff" stroke-width="0.22"/><rect width="107.439" height="3.092" transform="translate(0 37.743)" fill="#5151fc" stroke="#fff" stroke-width="0.22"/><rect width="107.439" height="6.18" transform="translate(0 40.836)" fill="#5151fc" stroke="#fff" stroke-width="0.22"/><rect width="107.439" height="0.829" transform="translate(0 47.018)" fill="#5151fc" stroke="#fff" stroke-width="0.22"/><rect width="107.439" height="2.9" transform="translate(0 47.848)" fill="#5151fc" stroke="#fff" stroke-width="0.22"/><rect width="107.439" height="1.066" transform="translate(0 50.75)" fill="#00c19c" stroke="#fff" stroke-width="0.22"/><rect width="107.439" height="0.053" transform="translate(0 51.817)" fill="#5151fc" stroke="#fff" stroke-width="0.22"/><rect width="107.439" height="1.665" transform="translate(0 51.872)" fill="#5151fc" stroke="#fff" stroke-width="0.22"/><rect width="107.439" height="1.276" transform="translate(0 60.848)" fill="#00c19c" stroke="#fff" stroke-width="0.22"/><rect width="107.439" height="3.751" transform="translate(0 62.126)" fill="#00c19c" stroke="#fff" stroke-width="0.22"/><rect width="107.439" height="1.921" transform="translate(0 65.878)" fill="#5151fc" stroke="#fff" stroke-width="0.22"/><rect width="107.439" height="1.767" transform="translate(0 67.8)" fill="#00c19c" stroke="#fff" stroke-width="0.22"/><rect width="107.439" height="2.354" transform="translate(0 69.571)" fill="#5151fc" stroke="#fff" stroke-width="0.22"/><rect width="107.439" height="1.919" transform="translate(0 71.926)" fill="#00c19c" stroke="#fff" stroke-width="0.22"/><rect width="107.439" height="0.973" transform="translate(0 73.847)" fill="#5151fc" stroke="#fff" stroke-width="0.22"/><rect width="107.439" height="0.723" transform="translate(0 74.822)" fill="#5151fc" stroke="#fff" stroke-width="0.22"/><rect width="107.439" height="1.56" transform="translate(0 75.547)" fill="#5151fc" stroke="#fff" stroke-width="0.22"/><rect width="107.439" height="1.244" transform="translate(0 77.108)" fill="#5151fc" stroke="#fff" stroke-width="0.22"/><rect width="107.439" height="5.421" transform="translate(0 78.356)" fill="#00c19c" stroke="#fff" stroke-width="0.22"/><rect width="107.439" height="0.369" transform="translate(0 83.78)" fill="#5151fc" stroke="#fff" stroke-width="0.22"/><rect width="107.439" height="0.807" transform="translate(0 84.15)" fill="#5151fc" stroke="#fff" stroke-width="0.22"/><rect width="107.439" height="0.686" transform="translate(0 84.958)" fill="#00c19c" stroke="#fff" stroke-width="0.22"/><rect width="107.439" height="0.637" transform="translate(0 85.646)" fill="#5151fc" stroke="#fff" stroke-width="0.22"/><rect width="107.439" height="1.616" transform="translate(0 86.284)" fill="#00c19c" stroke="#fff" stroke-width="0.22"/><rect width="107.439" height="2.673" transform="translate(0 87.902)" fill="#009959" stroke="#fff" stroke-width="0.22"/><rect width="107.439" height="2.139" transform="translate(0 90.576)" fill="#8131f4" stroke="#fff" stroke-width="0.22"/><rect width="107.439" height="2.288" transform="translate(0 92.719)" fill="#00c19c" stroke="#fff" stroke-width="0.22"/><rect width="107.439" height="0.246" transform="translate(0 95.008)" fill="#009959" stroke="#fff" stroke-width="0.22"/><rect width="107.439" height="1.403" transform="translate(0 95.256)" fill="#00c19c" stroke="#fff" stroke-width="0.22"/><rect width="107.439" height="1.995" transform="translate(0 96.661)" fill="#5151fc" stroke="#fff" stroke-width="0.22"/><rect width="107.439" height="1.034" transform="translate(0 98.659)" fill="#5151fc" stroke="#fff" stroke-width="0.22"/><rect width="107.439" height="2.061" transform="translate(0 99.694)" fill="#5151fc" stroke="#fff" stroke-width="0.22"/><rect width="107.439" height="1.557" transform="translate(0 105.73)" fill="#5151fc" stroke="#fff" stroke-width="0.22"/><rect width="107.439" height="3.071" transform="translate(0 107.288)" fill="#8131f4" stroke="#fff" stroke-width="0.22"/><rect width="107.439" height="1.113" transform="translate(0 110.361)" fill="#00c19c" stroke="#fff" stroke-width="0.22"/><rect width="107.439" height="0.427" transform="translate(0 111.475)" fill="#00c19c" stroke="#fff" stroke-width="0.22"/><rect width="107.439" height="2.889" transform="translate(0 139.984)" fill="#5151fc" stroke="#fff" stroke-width="0.22"/><rect width="107.439" height="0.893" transform="translate(0 142.875)" fill="#5151fc" stroke="#fff" stroke-width="0.22"/><rect width="107.439" height="3.867" transform="translate(0 143.769)" fill="#00c19c" stroke="#fff" stroke-width="0.22"/><rect width="107.439" height="1.133" transform="translate(0 147.638)" fill="#5151fc" stroke="#fff" stroke-width="0.22"/><rect width="107.439" height="0.75" transform="translate(0 148.772)" fill="#00c19c" stroke="#fff" stroke-width="0.22"/><rect width="107.439" height="2.454" transform="translate(0 149.524)" fill="#8131f4" stroke="#fff" stroke-width="0.22"/><rect width="107.439" height="2.123" transform="translate(0 151.98)" fill="#009959" stroke="#fff" stroke-width="0.22"/><rect width="107.439" height="0.986" transform="translate(0 154.105)" fill="#5151fc" stroke="#fff" stroke-width="0.22"/><rect width="107.439" height="1.626" transform="translate(0 155.092)" fill="#5151fc" stroke="#fff" stroke-width="0.22"/><rect width="107.439" height="2.34" transform="translate(0 156.72)" fill="#009959" stroke="#fff" stroke-width="0.22"/><rect width="107.439" height="3.479" transform="translate(0 159.096)" fill="#009959" stroke="#fff" stroke-width="0.22"/><rect width="107.439" height="3.97" transform="translate(0 162.576)" fill="#00c19c" stroke="#fff" stroke-width="0.22"/><rect width="107.439" height="2.007" transform="translate(0 166.548)" fill="#009959" stroke="#fff" stroke-width="0.22"/><rect width="107.439" height="2.451" transform="translate(0 168.557)" fill="#5151fc" stroke="#fff" stroke-width="0.22"/><rect width="107.439" height="0.352" transform="translate(0 171.01)" fill="#5151fc" stroke="#fff" stroke-width="0.22"/><rect width="107.439" height="2.524" transform="translate(0 171.363)" fill="#8131f4" stroke="#fff" stroke-width="0.22"/><rect width="107.439" height="7.55" transform="translate(0 173.888)" fill="#00c19c" stroke="#fff" stroke-width="0.22"/><rect width="107.439" height="0.849" transform="translate(0 181.44)" fill="#5151fc" stroke="#fff" stroke-width="0.22"/><rect width="107.439" height="0.53" transform="translate(0 182.291)" fill="#00c19c" stroke="#fff" stroke-width="0.22"/><rect width="107.439" height="1.229" transform="translate(0 182.823)" fill="#009959" stroke="#fff" stroke-width="0.22"/><rect width="107.439" height="4.349" transform="translate(0 184.053)" fill="#00c19c" stroke="#fff" stroke-width="0.22"/><rect width="107.439" height="3.159" transform="translate(0 195.413)" fill="#009959" stroke="#fff" stroke-width="0.22"/><rect width="107.439" height="1.467" transform="translate(0 198.574)" fill="#00c19c" stroke="#fff" stroke-width="0.22"/><rect width="107.439" height="0.427" transform="translate(0 214.233)" fill="#009959" stroke="#fff" stroke-width="0.22"/><rect width="107.439" height="0.926" transform="translate(0 214.661)" fill="#5151fc" stroke="#fff" stroke-width="0.22"/><rect width="107.439" height="3.722" transform="translate(0 215.589)" fill="#00c19c" stroke="#fff" stroke-width="0.22"/><rect width="107.439" height="1.011" transform="translate(0 219.313)" fill="#00c19c" stroke="#fff" stroke-width="0.22"/><rect width="107.439" height="1.593" transform="translate(0 220.325)" fill="#00c19c" stroke="#fff" stroke-width="0.22"/><rect width="107.439" height="2.202" transform="translate(0 221.92)" fill="#8ae297" stroke="#fff" stroke-width="0.22"/><rect width="107.439" height="1.588" transform="translate(0 224.123)" fill="#00c19c" stroke="#fff" stroke-width="0.22"/><rect width="107.439" height="1.367" transform="translate(0 234.716)" fill="#00c19c" stroke="#fff" stroke-width="0.22"/><rect width="107.439" height="1.045" transform="translate(0 243.005)" fill="#5151fc" stroke="#fff" stroke-width="0.22"/><rect width="107.439" height="0.813" transform="translate(0 244.052)" fill="#5151fc" stroke="#fff" stroke-width="0.22"/><rect width="107.439" height="1.847" transform="translate(0 244.867)" fill="#00c19c" stroke="#fff" stroke-width="0.22"/><rect width="107.439" height="0.46" transform="translate(0 254.025)" fill="#5151fc" stroke="#fff" stroke-width="0.22"/><rect width="107.439" height="3.503" transform="translate(0 254.487)" fill="#00c19c" stroke="#fff" stroke-width="0.22"/><rect width="107.439" height="0.745" transform="translate(0 257.991)" fill="#5151fc" stroke="#fff" stroke-width="0.22"/><rect width="107.439" height="2.037" transform="translate(0 258.738)" fill="#5151fc" stroke="#fff" stroke-width="0.22"/><rect width="107.439" height="2.015" transform="translate(0 260.777)" fill="#5151fc" stroke="#fff" stroke-width="0.22"/><rect width="107.439" height="1.489" transform="translate(0 262.793)" fill="#00c19c" stroke="#fff" stroke-width="0.22"/><rect width="107.439" height="1.734" transform="translate(0 264.284)" fill="#5151fc" stroke="#fff" stroke-width="0.22"/><rect width="107.439" height="1.544" transform="translate(0 266.02)" fill="#00c19c" stroke="#fff" stroke-width="0.22"/><rect width="107.439" height="4.258" transform="translate(0 267.566)" fill="#009959" stroke="#fff" stroke-width="0.22"/></g></g><g transform="translate(107.571 10.321)"><g transform="translate(0 0)"><rect width="107.439" height="2.567" fill="#00c19c" stroke="#fff" stroke-width="0.22"/><rect width="107.439" height="2.939" transform="translate(0 2.569)" fill="#8131f4" stroke="#fff" stroke-width="0.22"/><rect width="107.439" height="2.619" transform="translate(0 19.441)" fill="#00c19c" stroke="#fff" stroke-width="0.22"/><rect width="107.439" height="1.119" transform="translate(0 22.062)" fill="#8131f4" stroke="#fff" stroke-width="0.22"/><rect width="107.439" height="1.868" transform="translate(0 23.922)" fill="#5151fc" stroke="#fff" stroke-width="0.22"/><rect width="107.439" height="0.824" transform="translate(0 25.791)" fill="#5151fc" stroke="#fff" stroke-width="0.22"/><rect width="107.439" height="0.758" transform="translate(0 26.616)" fill="#8131f4" stroke="#fff" stroke-width="0.22"/><rect width="107.439" height="4.076" transform="translate(0 43.174)" fill="#00c19c" stroke="#fff" stroke-width="0.22"/><rect width="107.439" height="0.441" transform="translate(0 47.251)" fill="#009959" stroke="#fff" stroke-width="0.22"/><rect width="107.439" height="1.144" transform="translate(0 47.694)" fill="#5151fc" stroke="#fff" stroke-width="0.22"/><rect width="107.439" height="0.703" transform="translate(0 48.84)" fill="#5151fc" stroke="#fff" stroke-width="0.22"/><rect width="107.439" height="0.935" transform="translate(0 49.544)" fill="#00c19c" stroke="#fff" stroke-width="0.22"/><rect width="107.439" height="1.883" transform="translate(0 91.391)" fill="#8131f4" stroke="#fff" stroke-width="0.22"/><rect width="107.439" height="2.086" transform="translate(0 93.276)" fill="#8ae297" stroke="#fff" stroke-width="0.22"/><rect width="107.439" height="3.341" transform="translate(0 101.54)" fill="#8ae297" stroke="#fff" stroke-width="0.22"/><rect width="107.439" height="3.741" transform="translate(0 104.883)" fill="#00c19c" stroke="#fff" stroke-width="0.22"/><rect width="107.439" height="1.458" transform="translate(0 108.625)" fill="#8ae297" stroke="#fff" stroke-width="0.22"/><rect width="107.439" height="2.753" transform="translate(0 110.085)" fill="#5151fc" stroke="#fff" stroke-width="0.22"/><rect width="107.439" height="1.508" transform="translate(0 112.841)" fill="#5151fc" stroke="#fff" stroke-width="0.22"/><rect width="107.439" height="1.202" transform="translate(0 114.35)" fill="#00c19c" stroke="#fff" stroke-width="0.22"/><rect width="107.439" height="0.902" transform="translate(0 115.554)" fill="#5151fc" stroke="#fff" stroke-width="0.22"/><rect width="107.439" height="0.262" transform="translate(0 116.458)" fill="#00c19c" stroke="#fff" stroke-width="0.22"/><rect width="107.439" height="1.999" transform="translate(0 116.723)" fill="#00c19c" stroke="#fff" stroke-width="0.22"/><rect width="107.439" height="1.645" transform="translate(0 118.724)" fill="#5151fc" stroke="#fff" stroke-width="0.22"/><rect width="107.439" height="1.083" transform="translate(0 120.37)" fill="#5151fc" stroke="#fff" stroke-width="0.22"/><rect width="107.439" height="0.869" transform="translate(0 121.455)" fill="#00c19c" stroke="#fff" stroke-width="0.22"/><rect width="107.439" height="4.617" transform="translate(0 122.327)" fill="#8ae297" stroke="#fff" stroke-width="0.22"/><rect width="107.439" height="0.508" transform="translate(0 126.946)" fill="#5151fc" stroke="#fff" stroke-width="0.22"/><rect width="107.439" height="1.285" transform="translate(0 127.456)" fill="#00c19c" stroke="#fff" stroke-width="0.22"/><rect width="107.439" height="0.873" transform="translate(0 128.743)" fill="#00c19c" stroke="#fff" stroke-width="0.22"/><rect width="107.439" height="0.771" transform="translate(0 178.038)" fill="#5151fc" stroke="#fff" stroke-width="0.22"/><rect width="107.439" height="2.461" transform="translate(0 178.81)" fill="#009959" stroke="#fff" stroke-width="0.22"/><rect width="107.439" height="3.774" transform="translate(0 181.272)" fill="#00c19c" stroke="#fff" stroke-width="0.22"/><rect width="107.439" height="1.64" transform="translate(0 190.556)" fill="#5151fc" stroke="#fff" stroke-width="0.22"/><rect width="107.439" height="7.955" transform="translate(0 192.198)" fill="#009959" stroke="#fff" stroke-width="0.22"/><rect width="107.439" height="3.712" transform="translate(0 200.154)" fill="#00c19c" stroke="#fff" stroke-width="0.22"/><rect width="107.439" height="1.026" transform="translate(0 216.537)" fill="#00c19c" stroke="#fff" stroke-width="0.22"/><rect width="107.439" height="1.092" transform="translate(0 218.739)" fill="#00c19c" stroke="#fff" stroke-width="0.22"/><rect width="107.439" height="1.668" transform="translate(0 222.227)" fill="#00c19c" stroke="#fff" stroke-width="0.22"/><rect width="107.439" height="2.647" transform="translate(0 226.703)" fill="#5151fc" stroke="#fff" stroke-width="0.22"/><rect width="107.439" height="3.286" transform="translate(0 229.352)" fill="#00c19c" stroke="#fff" stroke-width="0.22"/><rect width="107.439" height="2.964" transform="translate(0 239.168)" fill="#5151fc" stroke="#fff" stroke-width="0.22"/><rect width="107.439" height="1.248" transform="translate(0 242.134)" fill="#8ae297" stroke="#fff" stroke-width="0.22"/></g></g></g><rect width="107.439" height="5.508" transform="translate(150 -77.543)" fill="#5151fc" stroke="#fff" stroke-width="0.22"/><rect width="107.439" height="3.74" transform="translate(150 -58.102)" fill="#5151fc" stroke="#fff" stroke-width="0.22"/><rect width="107.439" height="4.19" transform="translate(150 -54.359)" fill="#5151fc" stroke="#fff" stroke-width="0.22"/><rect width="107.439" height="7.305" transform="translate(150 -34.368)" fill="#5151fc" stroke="#fff" stroke-width="0.22"/><rect width="107.439" height="3.97" transform="translate(150 13.848)" fill="#5151fc" stroke="#fff" stroke-width="0.22"/><rect width="107.439" height="11.298" transform="translate(150 23.997)" fill="#5151fc" stroke="#fff" stroke-width="0.22"/><rect width="107.439" height="9.484" transform="translate(150 35.298)" fill="#5151fc" stroke="#fff" stroke-width="0.22"/><rect width="107.439" height="7.288" transform="translate(150 44.785)" fill="#5151fc" stroke="#fff" stroke-width="0.22"/><rect width="107.439" height="7.009" transform="translate(150 100.495)" fill="#5151fc" stroke="#fff" stroke-width="0.22"/><rect width="107.439" height="14.188" transform="translate(150 112.135)" fill="#5151fc" stroke="#fff" stroke-width="0.22"/><rect width="107.439" height="2.216" transform="translate(150 137.805)" fill="#5151fc" stroke="#fff" stroke-width="0.22"/><rect width="107.439" height="2.266" transform="translate(150 140.022)" fill="#5151fc" stroke="#fff" stroke-width="0.22"/><rect width="107.439" height="4.517" transform="translate(150 142.29)" fill="#5151fc" stroke="#fff" stroke-width="0.22"/><rect width="107.439" height="6.919" transform="translate(150 148.176)" fill="#5151fc" stroke="#fff" stroke-width="0.22"/><rect width="107.439" height="7.308" transform="translate(150 158.807)" fill="#5151fc" stroke="#fff" stroke-width="0.22"/><line y2="271.977" transform="translate(257.486 -87.982)" fill="none" stroke="#000" stroke-width="1"/><path d="M5978.8,2813.971v25.721" transform="translate(-5608.893 -2713.477)" fill="none" stroke="#5151fc" stroke-width="1"/><path d="M5978.8,2813.971v7.81" transform="translate(-5608.893 -2675.475)" fill="none" stroke="#5151fc" stroke-width="1"/><path d="M5978.8,2813.971v17.369" transform="translate(-5608.893 -2665.291)" fill="none" stroke="#5151fc" stroke-width="1"/><text transform="translate(369 95.945)" font-size="10" font-family="HKGrotesk-Regular, HK Grotesk"><tspan x="0" y="0">serie</tspan></text><g transform="translate(375 105.945)" fill="#fff" stroke="#4500ff" stroke-width="1"><circle cx="7" cy="7" r="7" stroke="none"/><circle cx="7" cy="7" r="6.5" fill="none"/></g><g transform="translate(375 133.945)" fill="#fff" stroke="#4500ff" stroke-width="1"><circle cx="7" cy="7" r="7" stroke="none"/><circle cx="7" cy="7" r="6.5" fill="none"/></g><g transform="translate(375 149.945)" fill="#fff" stroke="#4500ff" stroke-width="1"><circle cx="7" cy="7" r="7" stroke="none"/><circle cx="7" cy="7" r="6.5" fill="none"/></g></g><text transform="translate(231 224)" fill="#5151fc" font-size="7" font-family="HKGrotesk-Regular, HK Grotesk"><tspan x="0" y="0">1</tspan></text><text transform="translate(231 252)" fill="#5151fc" font-size="7" font-family="HKGrotesk-Regular, HK Grotesk"><tspan x="0" y="0">2</tspan></text><text transform="translate(231 268)" fill="#5151fc" font-size="7" font-family="HKGrotesk-Regular, HK Grotesk"><tspan x="0" y="0">3</tspan></text><text transform="translate(58.056 304)" font-size="8" font-family="HKGrotesk-Regular, HK Grotesk"><tspan x="-23.908" y="0">LIVELLO DUE</tspan></text><text transform="translate(166 305)" font-size="8" font-family="HKGrotesk-Regular, HK Grotesk"><tspan x="-23.314" y="0">LIVELLO TRE</tspan></text></g><text font-size="12" font-family="HKGrotesk-Medium, HK Grotesk" font-weight="500"><tspan x="0" y="11">La nuvola di smog e La formica argentina</tspan></text></g></svg>