<svg xmlns="http://www.w3.org/2000/svg" width="36" height="36" viewBox="0 0 36 36"><g transform="translate(-870.5 -687.5)"><g transform="translate(906.5 687.5) rotate(90)" fill="#fff"><path d="M 35.49999618530273 35.49999618530273 L 0.4999961853027344 35.49999618530273 L 0.4999961853027344 6.260866165161133 C 0.4999961853027344 3.084316253662109 3.084316253662109 0.4999961853027344 6.260866165161133 0.4999961853027344 L 29.73912620544434 0.4999961853027344 C 32.91567611694336 0.4999961853027344 35.49999618530273 3.084316253662109 35.49999618530273 6.260866165161133 L 35.49999618530273 19.6029052734375 L 35.49999618530273 35.49999618530273 Z" stroke="none"/><path d="M 6.260866165161133 0.9999961853027344 C 3.360015869140625 0.9999961853027344 0.9999961853027344 3.360015869140625 0.9999961853027344 6.260866165161133 L 0.9999961853027344 34.99999618530273 L 34.99999618530273 34.99999618530273 L 34.99999618530273 19.6029052734375 L 34.99999618530273 6.260866165161133 C 34.99999618530273 3.360015869140625 32.63997650146484 0.9999961853027344 29.73912620544434 0.9999961853027344 L 6.260866165161133 0.9999961853027344 M 6.260866165161133 -3.814697265625e-06 L 29.73912620544434 -3.814697265625e-06 C 33.19691467285156 -3.814697265625e-06 35.99999618530273 2.803085327148438 35.99999618530273 6.260866165161133 L 35.99999618530273 19.6029052734375 L 35.99999618530273 35.99999618530273 L -3.814697265625e-06 35.99999618530273 L -3.814697265625e-06 6.260866165161133 C -3.814697265625e-06 2.803085327148438 2.803085327148438 -3.814697265625e-06 6.260866165161133 -3.814697265625e-06 Z" stroke="none" fill="#9f9d9d"/></g><path d="M4.268,38.305l.5-.5a.535.535,0,0,1,.76,0l4.356,4.353a.536.536,0,0,1,0,.76L5.525,47.276a.535.535,0,0,1-.76,0l-.5-.5a.538.538,0,0,1,.009-.768l2.7-2.572H.538A.536.536,0,0,1,0,42.9v-.717a.536.536,0,0,1,.538-.538H6.977l-2.7-2.572A.534.534,0,0,1,4.268,38.305Z" transform="translate(883.364 663.908)" fill="rgba(0,0,0,0.72)"/></g></svg>