<svg xmlns="http://www.w3.org/2000/svg" xmlns:xlink="http://www.w3.org/1999/xlink" width="217" height="121.977" viewBox="0 0 217 121.977"><defs><linearGradient id="a" y1="0.5" x2="1" y2="0.5" gradientUnits="objectBoundingBox"><stop offset="0" stop-color="#d1d1f8"/><stop offset="1" stop-color="#fff"/></linearGradient><linearGradient id="b" y1="0.5" x2="0.958" y2="0.5" gradientUnits="objectBoundingBox"><stop offset="0" stop-color="#ffe37d"/><stop offset="1" stop-color="#fff"/></linearGradient></defs><g transform="translate(-512 -579.023)"><rect width="75" height="121" transform="translate(512 580)" fill="#f3f3f3"/><text transform="translate(534 675)" fill="#666" font-size="9" font-family="HKGrotesk-MediumItalic, HK Grotesk" font-weight="500" font-style="italic"><tspan x="0" y="0" fill="#666">Td X ha un </tspan><tspan y="0" font-family="HKGrotesk-BoldItalic, HK Grotesk" font-weight="700" fill="#000">annidamento</tspan><tspan y="0" xml:space="preserve" fill="#666"> di livello 1 perché il suo</tspan><tspan fill="#ffd337" font-family="HKGrotesk-BoldItalic, HK Grotesk" font-weight="700"><tspan x="0" y="11">testo soggetto</tspan><tspan y="11" xml:space="preserve" fill="#666" font-family="HKGrotesk-MediumItalic, HK Grotesk" font-weight="500"> contiene almeno un’occorrenza</tspan></tspan><tspan x="0" y="22">di </tspan><tspan y="22" fill="#5151fc" font-family="HKGrotesk-BoldItalic, HK Grotesk" font-weight="700">testo dubitativo</tspan><tspan y="22" xml:space="preserve"> di livello 0, ovvero Td Y</tspan></text><line x2="14.503" transform="translate(580.5 634)" stroke-dasharray="0 4" stroke="#666" stroke-linecap="round" stroke-width="1" fill="none"/><line x2="14.503" transform="translate(580.5 603)" stroke-dasharray="0 4" stroke="#666" stroke-linecap="round" stroke-width="1" fill="none"/><text transform="translate(612.291 630.549) rotate(-30)" font-size="12" font-family="HKGrotesk-Regular, HK Grotesk"><tspan x="0" y="0">Td Y</tspan></text><text transform="translate(642.291 600.549) rotate(-30)" font-size="12" font-family="HKGrotesk-Regular, HK Grotesk"><tspan x="0" y="0">Td X</tspan></text><path d="M1688.055,3984.631s-1.158-8.744-9.831-8.744-10.5,8.744-10.5,8.744" transform="matrix(-0.999, 0.035, -0.035, -0.999, 2442.008, 4574.644)" fill="none" stroke="#707070" stroke-width="1"/><path d="M0,0,1.231,2.569l.608,1.268,4-1.549" transform="matrix(-0.978, 0.208, -0.208, -0.978, 638.589, 653.648)" fill="none" stroke="#707070" stroke-width="1"/><text transform="translate(527 638)" font-size="12" font-family="HKGrotesk-Regular, HK Grotesk"><tspan x="0" y="0">Livello 0</tspan></text><text transform="translate(527 607)" font-size="12" font-family="HKGrotesk-Regular, HK Grotesk"><tspan x="0" y="0">Livello 1</tspan></text><rect width="44" height="14" transform="translate(651 603) rotate(90)" fill="url(#a)"/><rect width="44" height="42" transform="translate(637 603) rotate(90)" fill="url(#b)"/><line x2="42" transform="translate(595 603)" fill="none" stroke="#ffc806" stroke-width="1"/><line x2="14" transform="translate(637 603)" fill="none" stroke="#bbf" stroke-width="1"/><rect width="13" height="14" transform="translate(623 634) rotate(90)" fill="url(#a)"/><rect width="13" height="14" transform="translate(609 634) rotate(90)" fill="url(#b)"/><line x2="14" transform="translate(595 634)" fill="none" stroke="#ffc806" stroke-width="1"/><line x2="14" transform="translate(609 634)" fill="none" stroke="#bbf" stroke-width="1"/><path d="M24.56,0h81.373" transform="translate(556.608 646.5)" fill="none" stroke="#707070" stroke-width="1"/></g></svg>