<svg xmlns="http://www.w3.org/2000/svg" xmlns:xlink="http://www.w3.org/1999/xlink" width="225" height="101" viewBox="0 0 225 101"><defs><linearGradient id="a" y1="0.5" x2="1" y2="0.5" gradientUnits="objectBoundingBox"><stop offset="0" stop-color="#d1d1f8"/><stop offset="1" stop-color="#fff"/></linearGradient><linearGradient id="b" y1="0.5" x2="0.958" y2="0.5" gradientUnits="objectBoundingBox"><stop offset="0" stop-color="#ffe37d"/><stop offset="1" stop-color="#fff"/></linearGradient><linearGradient id="d" y1="0.5" x2="1" y2="0.5" gradientUnits="objectBoundingBox"><stop offset="0" stop-color="#6cd3bf"/><stop offset="1" stop-color="#fff"/></linearGradient></defs><g transform="translate(-748 -601)"><rect width="75" height="100" transform="translate(748 601)" fill="#f3f3f3"/><text transform="translate(770 654)" fill="#666" font-size="10" font-family="HKGrotesk-MediumItalic, HK Grotesk" font-weight="500" font-style="italic"><tspan x="0" y="9">L’area verde indica la presenza di testo </tspan><tspan y="9" fill="#00c19c" font-family="HKGrotesk-BoldItalic, HK Grotesk" font-weight="700">misto</tspan><tspan y="9">,</tspan><tspan x="0" y="21">ovvero un’occorrenza di testo </tspan><tspan y="21" fill="#5151fc" font-family="HKGrotesk-BoldItalic, HK Grotesk" font-weight="700">dubitativo</tspan><tspan x="0" y="33">che successivamente diventa </tspan><tspan y="33" fill="#ffc806" font-family="HKGrotesk-BoldItalic, HK Grotesk" font-weight="700">soggetto</tspan><tspan y="33">.</tspan></text><g transform="translate(237 -4116)"><rect width="44" height="14" transform="translate(651 4719) rotate(90)" fill="url(#a)"/><rect width="44" height="42" transform="translate(637 4719) rotate(90)" fill="url(#b)"/><line x2="42" transform="translate(595 4719)" fill="none" stroke="#ffc806" stroke-width="1"/><line x2="14" transform="translate(637 4719)" fill="none" stroke="#bbf" stroke-width="1"/><rect width="13" height="14" transform="translate(629 4750) rotate(90)" fill="url(#a)"/><rect width="31" height="14" transform="translate(629 4719) rotate(90)" fill="url(#d)"/><rect width="13" height="14" transform="translate(615 4750) rotate(90)" fill="url(#b)"/><line x2="14" transform="translate(601 4750)" fill="none" stroke="#ffc806" stroke-width="1"/><line x2="14" transform="translate(615 4750)" fill="none" stroke="#bbf" stroke-width="1"/><line x2="14" transform="translate(615 4719)" fill="none" stroke="#00c19c" stroke-width="1"/><path d="M24.56,0h81.373" transform="translate(556.608 4762.5)" fill="none" stroke="#707070" stroke-width="1"/></g></g></svg>