<svg xmlns="http://www.w3.org/2000/svg" xmlns:xlink="http://www.w3.org/1999/xlink" width="235" height="121.977" viewBox="0 0 235 121.977"><defs><linearGradient id="a" y1="0.5" x2="1" y2="0.5" gradientUnits="objectBoundingBox"><stop offset="0" stop-color="#d1d1f8"/><stop offset="1" stop-color="#f5f5fd"/></linearGradient><linearGradient id="b" y1="0.5" x2="0.958" y2="0.5" gradientUnits="objectBoundingBox"><stop offset="0" stop-color="#ffe37d"/><stop offset="1" stop-color="#fffcf0"/></linearGradient></defs><g transform="translate(-513 -579.023)"><rect width="235" height="121" transform="translate(513 580)" fill="#f3f3f3"/><text transform="translate(534 653)" fill="#666" font-size="10" font-family="HKGrotesk-MediumItalic, HK Grotesk" font-weight="500" font-style="italic"><tspan x="0" y="9" fill="#666">Td X ha un </tspan><tspan y="9" font-family="HKGrotesk-BoldItalic, HK Grotesk" font-weight="700" fill="#000">annidamento</tspan><tspan y="9" xml:space="preserve" fill="#666"> di livello 1 perché</tspan><tspan x="0" y="21">il suo </tspan><tspan y="21" fill="#e3b40c" font-family="HKGrotesk-BoldItalic, HK Grotesk" font-weight="700">testo soggetto</tspan><tspan y="21" xml:space="preserve"> contiene almeno </tspan><tspan x="0" y="33">un’occorrenza di </tspan><tspan y="33" fill="#5151fc" font-family="HKGrotesk-BoldItalic, HK Grotesk" font-weight="700">testo dubitativo</tspan><tspan y="33" xml:space="preserve"> di livello 0, </tspan><tspan x="0" y="45">ovvero Td Y.</tspan></text><line x2="14.503" transform="translate(580.5 637)" stroke-dasharray="0 4" stroke="#666" stroke-linecap="round" stroke-width="1" fill="none"/><line x2="14.503" transform="translate(580.5 603)" stroke-dasharray="0 4" stroke="#666" stroke-linecap="round" stroke-width="1" fill="none"/><text transform="translate(534 641)" font-size="12" font-family="HKGrotesk-Regular, HK Grotesk"><tspan x="0" y="0">Livello 0</tspan></text><text transform="translate(534 607)" font-size="12" font-family="HKGrotesk-Regular, HK Grotesk"><tspan x="0" y="0">Livello 1</tspan></text><rect width="44" height="14" transform="translate(651 603) rotate(90)" fill="url(#a)"/><rect width="44" height="42" transform="translate(637 603) rotate(90)" fill="url(#b)"/><line x2="42" transform="translate(595 603)" fill="none" stroke="#ffc806" stroke-width="1"/><line x2="14" transform="translate(637 603)" fill="none" stroke="#bbf" stroke-width="1"/><rect width="10" height="14" transform="translate(629 637) rotate(90)" fill="#d1d1f8"/><rect width="10" height="14" transform="translate(615 637) rotate(90)" fill="#ffe37d"/><line x2="14" transform="translate(601 637)" fill="none" stroke="#ffc806" stroke-width="1"/><line x2="14" transform="translate(615 637)" fill="none" stroke="#bbf" stroke-width="1"/><path d="M24.56,0h81.373" transform="translate(556.608 646.5)" fill="none" stroke="#707070" stroke-width="1"/><text transform="translate(642.291 600.549) rotate(-30)" font-size="12" font-family="HKGrotesk-Regular, HK Grotesk"><tspan x="0" y="0">Td X</tspan></text><text transform="translate(618.291 630.549) rotate(-30)" font-size="12" font-family="HKGrotesk-Regular, HK Grotesk"><tspan x="0" y="0">Td Y</tspan></text></g></svg>