<?xml version="1.0" encoding="utf-8"?>
<!-- Generator: Adobe Illustrator 23.1.1, SVG Export Plug-In . SVG Version: 6.00 Build 0)  -->
<svg version="1.1" id="Layer_1" xmlns="http://www.w3.org/2000/svg" xmlns:xlink="http://www.w3.org/1999/xlink" x="0px" y="0px"
	 viewBox="0 0 227.5 241.5" style="enable-background:new 0 0 227.5 241.5;" xml:space="preserve">
<style type="text/css">
	.st0{fill:none;}
	.st1{fill:none;stroke:#5151FC;stroke-width:1.4034;stroke-miterlimit:10;}
</style>
<polyline class="st0" points="0.6,241.8 -0.5,0 227,0 "/>
<g id="Group_250" transform="translate(0.425 -3.846)">
	<g id="Group_249" transform="translate(4.242 84.655)">
		<g>
			<polyline id="Rectangle_673_2_" class="st1" points="192.7,-80.8 192.7,63.4 130.8,63.4 130.8,-80.8 			"/>
		</g>
		<g>
			<polyline id="Rectangle_663_1_" class="st1" points="-4.7,-8 40.6,-8 40.6,90.2 -4.7,90.2 			"/>
		</g>
		<g>
			<polyline id="Rectangle_672_1_" class="st1" points="40.6,160.7 40.6,98.5 130.8,98.5 130.8,160.7 			"/>
			<polyline id="Rectangle_671_1_" class="st1" points="130.8,-80.8 130.8,98.5 40.6,98.5 40.6,-80.8 			"/>
		</g>
		<g>
			<polyline id="Rectangle_676_3_" class="st1" points="192.7,160.7 192.7,140.8 222.8,140.8 			"/>
			<polyline id="Rectangle_675_2_" class="st1" points="192.7,140.8 192.7,53.2 222.8,53.2 			"/>
		</g>
	</g>
</g>
<line class="st1" x1="45.3" y1="26.8" x2="135.5" y2="26.8"/>
</svg>
