<?xml version="1.0" encoding="utf-8"?>
<!-- Generator: Adobe Illustrator 23.1.1, SVG Export Plug-In . SVG Version: 6.00 Build 0)  -->
<svg version="1.1" xmlns="http://www.w3.org/2000/svg" xmlns:xlink="http://www.w3.org/1999/xlink" x="0px" y="0px"
	 viewBox="0 0 227.5 241.5" style="enable-background:new 0 0 227.5 241.5;" xml:space="preserve">
<style type="text/css">
	.st0{opacity:0.3;}
	.st1{clip-path:url(#SVGID_1_);}
	.st2{fill:#C2BFE1;}
	.st3{fill:#FBFBFC;}
	.st4{fill:#ECEBF7;}
	.st5{fill:#9092C8;}
	.st6{fill:#4856A2;}
	.st7{fill:#666DB1;}
</style>
<g id="Layer_1">
	<g class="st0">
		<defs>
			<rect id="SVGID_25_" class="st0" width="227.5" height="241.5"/>
		</defs>
		<clipPath id="SVGID_1_">
			<use xlink:href="#SVGID_25_"  style="overflow:visible;"/>
		</clipPath>
		<g id="Group_250" transform="translate(0.425 -3.846)" class="st1">
			<g id="Group_249" transform="translate(4.242 84.655)">
				<g>
					<rect id="Rectangle_666" x="18.5" y="29.4" class="st2" width="38.1" height="131.5"/>
					<rect id="Rectangle_666_1_" x="18.5" y="-81.1" class="st3" width="38.1" height="109.1"/>
				</g>
				<rect id="Rectangle_670" x="72.5" y="-80.8" class="st4" width="11" height="241.7"/>
				<g>
					<rect id="Rectangle_673" x="132.3" y="64.2" class="st5" width="66.1" height="96.8"/>
					<rect id="Rectangle_673_1_" x="132.3" y="-79.6" class="st4" width="66.1" height="143"/>
				</g>
				<g>
					<rect id="Rectangle_663" x="-8.2" y="-8" class="st5" width="25.1" height="97.8"/>
					<rect id="Rectangle_664" x="-8.2" y="90.2" class="st6" width="25.1" height="70.7"/>
					<rect id="Rectangle_662" x="-8.2" y="-80.8" class="st2" width="25.1" height="72.4"/>
				</g>
				<g>
					<rect id="Rectangle_667" x="58.1" y="-80.8" class="st2" width="12.9" height="26"/>
					<rect id="Rectangle_668" x="58.1" y="-54.4" class="st5" width="12.9" height="215.4"/>
				</g>
				<g>
					<rect id="Rectangle_672" x="85" y="98.5" class="st7" width="45.8" height="62"/>
					<rect id="Rectangle_671" x="85" y="-80.8" class="st2" width="45.8" height="179.3"/>
				</g>
				<g>
					<rect id="Rectangle_674" x="199.9" y="-80.8" class="st7" width="30.1" height="133.6"/>
					<rect id="Rectangle_676" x="199.9" y="141.3" class="st6" width="30.1" height="19.6"/>
					<rect id="Rectangle_675" x="199.9" y="53.2" class="st5" width="30.1" height="87.6"/>
				</g>
			</g>
		</g>
	</g>
</g>
<g id="Tappa_1">
</g>
<g id="transformare">
</g>
<g id="Luoghi">
</g>
<g id="Isolation_Mode">
</g>
<g id="elenchi">
</g>
</svg>
