<?xml version="1.0" encoding="utf-8"?>
<!-- Generator: Adobe Illustrator 24.0.3, SVG Export Plug-In . SVG Version: 6.00 Build 0)  -->
<svg version="1.1" id="Layer_1" xmlns="http://www.w3.org/2000/svg" xmlns:xlink="http://www.w3.org/1999/xlink" x="0px" y="0px"
	 viewBox="0 0 227.5 241.5" style="enable-background:new 0 0 227.5 241.5;" xml:space="preserve">
<style type="text/css">
	.st0{clip-path:url(#SVGID_2_);}
	.st1{fill:none;stroke:#5151FC;stroke-width:4.5645;stroke-miterlimit:10;}
	.st2{fill:none;stroke:#5151FC;stroke-width:1.7117;stroke-miterlimit:10;}
	.st3{fill:none;stroke:#5151FC;stroke-width:2.2822;}
	.st4{fill:#5151FC;stroke:#FFFFFF;stroke-width:1.4575;}
	.st5{fill:#5151FC;}
	.st6{font-family:'HKGrotesk-Regular';}
	.st7{font-size:6px;}
</style>
<g>
	<g>
		<defs>
			<rect id="SVGID_1_" width="227.5" height="241.5"/>
		</defs>
		<clipPath id="SVGID_2_">
			<use xlink:href="#SVGID_1_"  style="overflow:visible;"/>
		</clipPath>
		<g class="st0">
			<g>
				<circle class="st1" cx="136.2" cy="153.9" r="47.1"/>
				<g transform="translate(-512.628173828125,-6080.2041015625)">
					<path class="st2" d="M544,6235c-0.1-48.8,33.5-91.1,81-102.1l0.1,0.6c-47.2,10.9-80.6,53-80.5,101.5H544z"/>
					<line class="st3" x1="712.4" y1="6285.3" x2="720.3" y2="6291.6"/>
					<line class="st3" x1="586.4" y1="6185.4" x2="567.1" y2="6170.1"/>
					<circle class="st4" cx="685.2" cy="6263.8" r="2.3"/>
					<path class="st4" d="M718.6,6289.9c2.5-1.9,5.2,0.9,3.4,3.4C719.5,6295.1,716.7,6292.3,718.6,6289.9z"/>
					<circle class="st4" cx="611.7" cy="6205.4" r="2.3"/>
					<circle class="st4" cx="544.6" cy="6234.9" r="2.3"/>
					<circle class="st4" cx="548.3" cy="6207.3" r="2.3"/>
					<circle class="st4" cx="559.2" cy="6181.6" r="2.3"/>
					<circle class="st4" cx="576.5" cy="6159.8" r="2.3"/>
					<circle class="st4" cx="599" cy="6143.3" r="2.3"/>
					<circle class="st4" cx="625.1" cy="6133.4" r="2.3"/>
					<text transform="matrix(0.7835 0.6213 -0.6213 0.7835 723.82 6296.4575)" class="st5 st6 st7">un luogo</text>
					<text transform="matrix(0.7835 0.6213 -0.6213 0.7835 587.3679 6188.2285)" class="st5 st6 st7">un luogo</text>
					<text transform="matrix(1 -2.749990e-03 2.749990e-03 1 510.2832 6235.5596)" class="st5 st6 st7">un luogo</text>
					<text transform="matrix(0.9647 0.2634 -0.2634 0.9647 512.6277 6199.6348)" class="st5 st6 st7">un luogo</text>
					<text transform="matrix(0.8599 0.5105 -0.5105 0.8599 526.4316 6163.6758)" class="st5 st6 st7">un luogo</text>
					<text transform="matrix(0.693 0.7209 -0.7209 0.693 549.6042 6134.1938)" class="st5 st6 st7">un luogo</text>
					<text transform="matrix(0.4763 0.8793 -0.8793 0.4763 581.3671 6111.0854)" class="st5 st6 st7">un luogo</text>
					<text transform="matrix(0.2252 0.9743 -0.9743 0.2252 617.6476 6098.2876)" class="st5 st6 st7">un luogo</text>
				</g>
			</g>
		</g>
	</g>
</g>
<text transform="matrix(0.7835 0.6213 -0.6213 0.7835 177.403 190.0387)" class="st5 st6 st7">un luogo</text>
</svg>
