<?xml version="1.0" standalone="no"?>
<!DOCTYPE svg PUBLIC "-//W3C//DTD SVG 20010904//EN"
 "http://www.w3.org/TR/2001/REC-SVG-20010904/DTD/svg10.dtd">
<svg version="1.0" xmlns="http://www.w3.org/2000/svg"
 width="512.000000pt" height="512.000000pt" viewBox="0 0 512.000000 512.000000"
 preserveAspectRatio="xMidYMid meet">
<metadata>
Created by potrace 1.11, written by Peter Selinger 2001-2013
</metadata>
<g transform="translate(0.000000,512.000000) scale(0.100000,-0.100000)"
fill="#000000" stroke="none">
<path d="M2365 5114 c-381 -39 -667 -121 -975 -281 -682 -352 -1168 -990
-1329 -1746 -68 -316 -68 -738 0 -1054 140 -658 524 -1226 1079 -1598 334
-224 687 -357 1105 -417 119 -17 521 -17 645 1 476 66 924 257 1285 548 128
103 339 321 432 444 250 333 410 702 485 1116 21 116 23 158 23 433 0 275 -2
317 -23 433 -79 438 -257 831 -530 1172 -102 128 -319 339 -447 436 -348 261
-756 431 -1187 495 -98 14 -479 27 -563 18z m515 -1119 c362 -70 629 -242 816
-526 76 -115 143 -255 128 -268 -7 -6 -330 -134 -446 -176 -13 -5 -25 11 -56
77 -99 211 -263 344 -490 400 -112 28 -348 31 -459 6 -152 -35 -270 -98 -372
-199 -109 -110 -183 -256 -222 -439 -30 -139 -33 -447 -6 -581 67 -332 234
-546 502 -642 109 -39 206 -51 368 -44 162 6 227 21 342 77 154 75 250 176
332 348 40 83 47 92 66 86 12 -4 119 -44 237 -90 190 -73 215 -85 213 -104 -5
-37 -95 -210 -150 -289 -63 -87 -173 -203 -253 -265 -334 -260 -874 -335
-1324 -185 -376 125 -657 415 -786 810 -118 359 -115 813 7 1163 173 496 548
791 1093 860 77 9 378 -3 460 -19z"/>
</g>
</svg>
