<?xml version="1.0" encoding="utf-8"?>
<!-- Generator: Adobe Illustrator 23.1.1, SVG Export Plug-In . SVG Version: 6.00 Build 0)  -->
<svg version="1.1" xmlns="http://www.w3.org/2000/svg" xmlns:xlink="http://www.w3.org/1999/xlink" x="0px" y="0px"
	 viewBox="0 0 125.7 65.3" style="enable-background:new 0 0 125.7 65.3;" xml:space="preserve">
<style type="text/css">
	.st0{fill:none;stroke:#000000;stroke-width:3.0208;stroke-miterlimit:10;}
	.st1{fill:none;stroke:#444444;stroke-width:0.25;stroke-dasharray:1.9,1.9;}
	.st2{fill:none;stroke:#000000;stroke-width:3.021;stroke-miterlimit:10;}
	.st3{fill:none;stroke:#FFA500;stroke-width:3.025;stroke-miterlimit:10;}
	.st4{font-family:'HKGrotesk-Regular';}
	.st5{font-size:8px;}
	.st6{fill:none;stroke:#FFCC33;stroke-width:3.025;stroke-miterlimit:10;}
	.st7{fill:none;stroke:#CCCCCC;stroke-width:3;stroke-miterlimit:10;}
	.st8{fill:none;stroke:#FF9900;stroke-width:3;stroke-miterlimit:10;}
	.st9{fill:none;stroke:#00CCCC;stroke-width:3;stroke-miterlimit:10;}
	.st10{fill:none;}
</style>
<g id="Layer_1">
	<path class="st0" d="M144.4,110.5"/>
	<g id="Group_278" transform="translate(-0.152 -5.072)">
		<g id="Group-3">
			<path id="Path-6" class="st1" d="M34.8,15.1l-6,6.8"/>
		</g>
		<g id="Group-3-2" transform="translate(-3)">
			<path id="Path-6-2" class="st1" d="M88,13.3l-12.4,8.6"/>
		</g>
		<path id="Path_120" class="st2" d="M80.2,50"/>
		<path id="Path_121" class="st2" d="M9,37.1"/>
		<path id="Path_122" class="st3" d="M64.1,54.6"/>
		<path id="Path_123" class="st3" d="M9.6,30.3"/>
		<g id="Group_273">
			<g id="Group_272">
				<text transform="matrix(1 0 0 1 28.7831 13.5048)" class="st4 st5">Elenchi</text>
			</g>
		</g>
		<g id="Group_277">
			<g id="Group_276">
				<text transform="matrix(1 0 0 1 19.3871 69.259)" class="st4 st5">Senza elenchi</text>
			</g>
		</g>
		<path id="Path_124" class="st6" d="M56.4,30.3"/>
		<path id="Path_125" class="st7" d="M18.7,20.2C9.4,20.2,1.8,27.7,1.8,37s7.5,16.8,16.8,16.8c5.2,0,10.1-2.4,13.3-6.6"/>
		<path id="Path_126" class="st7" d="M32,47.3c2.3-2.9,3.5-6.6,3.5-10.3"/>
		<path id="Path_127" class="st8" d="M35.5,37c0-9.3-7.5-16.8-16.8-16.8"/>
		<path id="Path_128" class="st7" d="M48.5,37c0,9.3,7.5,16.8,16.8,16.8c9.3,0,16.8-7.5,16.8-16.8c0-5.2-2.4-10.1-6.6-13.3"/>
		<path id="Path_129" class="st9" d="M75.7,23.7c-2.9-2.3-6.6-3.5-10.3-3.5"/>
		<path id="Path_130" class="st7" d="M65.4,20.2c-9.3,0-16.8,7.5-16.8,16.8"/>
		<line id="Line_132" class="st1" x1="25.2" y1="53.8" x2="25.2" y2="63.3"/>
		<line id="Line_133" class="st1" x1="59.2" y1="53.8" x2="59.2" y2="63.3"/>
	</g>
	<rect x="85.6" y="1.9" class="st10" width="40.4" height="46.6"/>
	<text transform="matrix(1 0 0 1 85.6308 7.4169)"><tspan x="0" y="0" class="st4 st5">Elenchi con </tspan><tspan x="0" y="9.6" class="st4 st5">presenza </tspan><tspan x="0" y="19.2" class="st4 st5">menore al </tspan><tspan x="0" y="28.8" class="st4 st5">5% del </tspan><tspan x="0" y="38.4" class="st4 st5">testo.</tspan></text>
</g>
<g id="Isolation_Mode">
</g>
</svg>
