<?xml version="1.0" encoding="utf-8"?>
<!-- Generator: Adobe Illustrator 23.1.1, SVG Export Plug-In . SVG Version: 6.00 Build 0)  -->
<svg version="1.1" xmlns="http://www.w3.org/2000/svg" xmlns:xlink="http://www.w3.org/1999/xlink" x="0px" y="0px"
	 viewBox="0 0 219.4 65.3" style="enable-background:new 0 0 219.4 65.3;" xml:space="preserve">
<style type="text/css">
	.st0{fill:none;stroke:#444444;stroke-width:0.25;stroke-dasharray:1.9,1.9;}
	.st1{fill:none;stroke:#000000;stroke-width:3.0208;stroke-miterlimit:10;}
	.st2{fill:none;stroke:#FFCC33;stroke-width:3.025;stroke-miterlimit:10;}
	.st3{fill:none;stroke:#FFA500;stroke-width:3.025;stroke-miterlimit:10;}
	.st4{fill:none;stroke:#5151FC;stroke-width:3;stroke-miterlimit:10;}
	.st5{fill:none;stroke:#00C19C;stroke-width:3;stroke-miterlimit:10;}
	.st6{fill:none;stroke:#FF3366;stroke-width:3;stroke-miterlimit:10;}
	.st7{font-family:'HKGrotesk-Regular';}
	.st8{font-size:8px;}
	.st9{fill:none;}
	.st10{font-size:9px;}
</style>
<g id="Layer_1">
	<g id="Group-3" transform="translate(-32.86 47.62) rotate(-90)">
		<path id="Path-6" class="st0" d="M30.2,68.7V58.5"/>
	</g>
	<g id="Group-3_2_" transform="translate(-32.86 47.62) rotate(-90)">
		<path id="Path-6_2_" class="st0" d="M30.8,125.4v-10.7"/>
	</g>
	<g id="Group-3_1_" transform="translate(-32.86 47.62) rotate(-90)">
		<path id="Path-6_1_" class="st0" d="M4.3,74.6V61"/>
	</g>
	<g id="Group-3_3_" transform="translate(-32.86 47.62) rotate(-90)">
		<path id="Path-6_3_" class="st0" d="M4.3,125.8v-13.6"/>
	</g>
	<path class="st1" d="M60.1,3.2"/>
	<path class="st1" d="M83.2,20"/>
	<path class="st1" d="M74.4,47.1"/>
	<path class="st1" d="M45.9,47.1"/>
	<path class="st1" d="M37,20"/>
	<path class="st2" d="M84.3,27.5c0-13.4-10.9-24.2-24.2-24.2"/>
	<path class="st3" d="M60.1,51.7"/>
	<path class="st4" d="M60.1,51.7c13.4,0,24.2-10.9,24.2-24.2"/>
	<path class="st3" d="M35.8,27.5"/>
	<path class="st5" d="M35.8,27.5c0,13.4,10.9,24.2,24.2,24.2"/>
	<path class="st6" d="M60.1,3.2c-13.4,0-24.2,10.9-24.2,24.2"/>
	<g>
		<text transform="matrix(1 0 0 1 93.7126 18.645)" class="st7 st8">Sintgami</text>
	</g>
	<g>
		<text transform="matrix(1 0 0 1 93.7124 44.6959)" class="st7 st8">Frasi</text>
	</g>
	<g>
		<text transform="matrix(1 0 0 1 5.4217 18.645)" class="st7 st8">Misto</text>
	</g>
	<g>
		<text transform="matrix(1 0 0 1 5.4218 44.6963)" class="st7 st8">Parole</text>
	</g>
	<rect x="133.9" y="3.2" class="st9" width="64.4" height="55.6"/>
	<text transform="matrix(1 0 0 1 133.9126 9.4103)"><tspan x="0" y="0" class="st7 st10">Proporzione dei </tspan><tspan x="0" y="10.8" class="st7 st10">tipi di elenchi in </tspan><tspan x="0" y="21.6" class="st7 st10">base ai numeri </tspan><tspan x="0" y="32.4" class="st7 st10">di caratteri di </tspan><tspan x="0" y="43.2" class="st7 st10">ciascun testo.</tspan></text>
</g>
<g id="Isolation_Mode">
</g>
</svg>
