<?xml version="1.0" encoding="utf-8"?>
<!-- Generator: Adobe Illustrator 23.1.1, SVG Export Plug-In . SVG Version: 6.00 Build 0)  -->
<svg version="1.1" id="Layer_1" xmlns="http://www.w3.org/2000/svg" xmlns:xlink="http://www.w3.org/1999/xlink" x="0px" y="0px"
	 viewBox="0 0 244 65.3" style="enable-background:new 0 0 244 65.3;" xml:space="preserve">
<style type="text/css">
	.st0{font-family:'HKGrotesk-Regular';}
	.st1{font-size:9px;}
	.st2{font-size:8px;}
	.st3{fill:none;stroke:#444444;stroke-width:0.25;stroke-dasharray:1.9,1.9;}
	.st4{fill:none;stroke:#5151FC;stroke-width:2.918;stroke-linejoin:round;}
	.st5{fill:none;stroke:#FF3366;stroke-width:3;stroke-miterlimit:10;}
</style>
<g id="Group_242" transform="translate(47.735 -12.03)">
	<text transform="matrix(1 0 0 1 62.6907 22.9939)" class="st0 st1">Proporzioni della presenza di </text>
	<text transform="matrix(1 0 0 1 62.6907 33.7939)" class="st0 st1">nebbia e cancellazione secondo </text>
	<text transform="matrix(1 0 0 1 62.6907 44.5939)" class="st0 st1">il numero di occorrenze all’interno </text>
	<text transform="matrix(1 0 0 1 62.6907 55.3939)" class="st0 st1">del testo.</text>
	<text transform="matrix(1 0 0 1 -44.9313 40.6319)" class="st0 st2">nebbia</text>
	<text transform="matrix(1 0 0 1 8.0497 76.2119)" class="st0 st2">cancellazione</text>
	<g id="Group-3" transform="translate(-32.86 47.62) rotate(-90)">
		<path id="Path-6" class="st3" d="M8.1,22.2V11.7"/>
	</g>
	<g id="Group-3-2" transform="translate(-17 -3)">
		<path id="Path-6-2" class="st3" d="M48.1,70.7V56.2"/>
	</g>
	<g id="Ellipse_22" transform="translate(-18)">
		<path id="Path_89" class="st4" d="M30.4,63.8C17,63.8,6.1,52.9,6.1,39.5c0-13.4,10.9-24.3,24.3-24.3c0,0,0,0,0,0"/>
		<path id="Path_90" class="st5" d="M30.4,15.2c13.4,0,24.3,10.9,24.3,24.3c0,13.4-10.9,24.3-24.3,24.3"/>
	</g>
</g>
</svg>
