<?xml version="1.0" encoding="utf-8"?>
<!-- Generator: Adobe Illustrator 23.1.1, SVG Export Plug-In . SVG Version: 6.00 Build 0)  -->
<svg version="1.1" xmlns="http://www.w3.org/2000/svg" xmlns:xlink="http://www.w3.org/1999/xlink" x="0px" y="0px"
	 viewBox="0 0 75.8 132" style="enable-background:new 0 0 75.8 132;" xml:space="preserve">
<style type="text/css">
	.st0{fill:none;}
	.st1{fill-rule:evenodd;clip-rule:evenodd;fill:#FFFFFF;stroke:#444444;stroke-width:0.5327;}
	.st2{fill-rule:evenodd;clip-rule:evenodd;fill:#FFFFFF;stroke:#444444;stroke-width:0.3551;}
	.st3{fill:none;stroke:#444444;stroke-width:0.3551;}
	.st4{fill:#444444;}
	.st5{enable-background:new    ;}
	.st6{font-family:'HKGrotesk-Regular';}
	.st7{font-size:10px;}
	.st8{fill:none;stroke:#444444;stroke-width:0.1776;}
	.st9{fill:none;stroke:#444444;stroke-width:0.1776;stroke-dasharray:1.3491,1.3491;}
	.st10{fill:none;stroke:#444444;stroke-width:0.1776;stroke-dasharray:1.5013,1.5013;}
</style>
<g id="Layer_1">
	<title>dimensione</title>
	<desc>Created with Sketch.</desc>
</g>
<g id="volumi">
	<rect class="st0" width="75.8" height="132"/>
	<g id="dimensione_1_">
		<g id="dimensione-X_1_">
			<g id="Group-7_1_" transform="translate(0.000000, 0.526800)">
				<g id="Group_2_" transform="translate(0.000000, 1.000000)">
					<ellipse id="Oval_3_" class="st1" cx="21.9" cy="40.2" rx="21.8" ry="12.6"/>
					<ellipse class="st2" cx="21.9" cy="37.3" rx="19" ry="10.9"/>
					<ellipse class="st2" cx="21.9" cy="34.5" rx="16.8" ry="9.7"/>
					<ellipse class="st2" cx="21.9" cy="31.5" rx="15.2" ry="8.8"/>
					<ellipse class="st2" cx="21.9" cy="28.6" rx="13.8" ry="8"/>
					<ellipse class="st2" cx="21.9" cy="25.7" rx="11.9" ry="6.9"/>
					<ellipse class="st2" cx="21.9" cy="22.8" rx="9.2" ry="5.3"/>
					<ellipse class="st2" cx="21.9" cy="19.9" rx="5.3" ry="3.1"/>
				</g>
				<g transform="translate(0.000000, 58.000000)">
					<path id="Path_2_" class="st3" d="M43.6,7.5L0.2,7.6"/>
					
						<rect id="Rectangle_1_" x="43.5" y="6.3" transform="matrix(1 -3.173790e-03 3.173790e-03 1 -2.359158e-02 0.1392)" class="st4" width="0.7" height="2.3"/>
					
						<rect x="0" y="6.5" transform="matrix(1 -3.112725e-03 3.112725e-03 1 -2.379452e-02 1.194275e-03)" class="st4" width="0.7" height="2.3"/>
				</g>
				<g transform="translate(68.000000, 1.000000)">
					<path class="st3" d="M-16.5,52.6V16.6"/>
					<rect x="-17.7" y="52.4" class="st4" width="2.3" height="0.7"/>
					<rect x="-17.7" y="16.4" class="st4" width="2.3" height="0.7"/>
				</g>
				<text transform="matrix(1 0 0 1 -3.051758e-05 75.0324)" class="st5"><tspan x="0" y="0" class="st6 st7">lunghezza </tspan><tspan x="0" y="12" class="st6 st7">opera</tspan></text>
				<text transform="matrix(6.123234e-17 1 -1 6.123234e-17 68.7374 17.3933)" class="st5"><tspan x="0" y="0" class="st6 st7">lunghezza</tspan><tspan x="0" y="12" class="st6 st7">opera</tspan></text>
				<g transform="translate(61.000000, 32.000000)">
					<path class="st8" d="M-17.3,32.8V32"/>
					<path class="st9" d="M-17.3,32.3V9.1"/>
					<path class="st8" d="M-17.3,8.5V7.8"/>
				</g>
				<g transform="translate(0.000000, 32.000000)">
					<path class="st8" d="M0.2,32.8V32"/>
					<path class="st9" d="M0.2,32.3V9.2"/>
					<path class="st8" d="M0.2,8.5V7.8"/>
				</g>
				<g transform="translate(31.000000, 0.000000)">
					<path class="st8" d="M-9,17.7h0.7"/>
					<path class="st10" d="M-6.8,17.7l26.1-0.1"/>
				</g>
				<g transform="translate(31.000000, 51.000000)">
					<path class="st8" d="M-9,2.7h0.7"/>
					<path class="st10" d="M-6.8,2.7l26.1-0.1"/>
				</g>
			</g>
		</g>
	</g>
</g>
</svg>
