<?xml version="1.0" encoding="utf-8"?>
<!-- Generator: Adobe Illustrator 23.1.1, SVG Export Plug-In . SVG Version: 6.00 Build 0)  -->
<svg version="1.1" id="Layer_1" xmlns="http://www.w3.org/2000/svg" xmlns:xlink="http://www.w3.org/1999/xlink" x="0px" y="0px"
	 viewBox="0 0 86 77" style="enable-background:new 0 0 86 77;" xml:space="preserve">
<style type="text/css">
	.st0{fill-rule:evenodd;clip-rule:evenodd;fill:#FBFBFC;stroke:#444444;stroke-width:0.75;}
	.st1{fill-rule:evenodd;clip-rule:evenodd;fill:#FBFBFC;stroke:#444444;stroke-width:0.5;}
	.st2{fill:none;stroke:#444444;stroke-width:0.5;}
	.st3{fill:#444444;}
	.st4{font-family:'HKGrotesk-Regular';}
	.st5{font-size:9px;}
	.st6{fill:none;stroke:#444444;stroke-width:0.25;}
	.st7{fill:none;stroke:#444444;stroke-width:0.25;stroke-dasharray:1.8996,1.8996;}
	.st8{fill:none;stroke:#444444;stroke-width:0.25;stroke-dasharray:2.1138,2.1138;}
</style>
<title>dimensione</title>
<desc>Created with Sketch.</desc>
<g id="dimensione">
	<g id="dimensione-X">
		<g id="Group-7" transform="translate(0.000000, 0.526800)">
			<g id="Group" transform="translate(0.000000, 1.000000)">
				<ellipse id="Oval" class="st0" cx="31.1" cy="33.3" rx="30.7" ry="17.7"/>
				<ellipse class="st1" cx="31.1" cy="29.2" rx="26.7" ry="15.4"/>
				<ellipse class="st1" cx="31.1" cy="25.2" rx="23.6" ry="13.6"/>
				<ellipse class="st1" cx="31.1" cy="21.1" rx="21.4" ry="12.4"/>
				<ellipse class="st1" cx="31.1" cy="17" rx="19.4" ry="11.2"/>
				<ellipse class="st1" cx="31.1" cy="12.9" rx="16.8" ry="9.7"/>
				<ellipse class="st1" cx="31.1" cy="8.8" rx="13" ry="7.5"/>
				<ellipse class="st1" cx="31.1" cy="4.7" rx="7.5" ry="4.3"/>
			</g>
			<g transform="translate(0.000000, 58.000000)">
				<path id="Path" class="st2" d="M61.7,2L0.5,2.2"/>
				
					<rect id="Rectangle" x="61.5" y="0.4" transform="matrix(1 -3.173806e-03 3.173806e-03 1 -6.194772e-03 0.1968)" class="st3" width="1" height="3.3"/>
				
					<rect x="0.3" y="0.6" transform="matrix(1 -3.112740e-03 3.112740e-03 1 -7.000238e-03 2.501474e-03)" class="st3" width="1" height="3.3"/>
			</g>
			<g transform="translate(68.000000, 1.000000)">
				<path class="st2" d="M1.9,50.9V0.3"/>
				<rect x="0.2" y="50.6" class="st3" width="3.2" height="1"/>
				<rect x="0.2" y="0" class="st3" width="3.2" height="1"/>
			</g>
			<text transform="matrix(1 0 0 1 0.2771 73.4685)" class="st4 st5">lunghezza opera</text>
			<text transform="matrix(6.123234e-17 1 -1 6.123234e-17 76.7227 0.7942)" class="st4 st5">lunghezza opera</text>
			<g transform="translate(61.000000, 32.000000)">
				<path class="st6" d="M0.8,27v-1"/>
				<path class="st7" d="M0.8,24.1V2.2"/>
				<path class="st6" d="M0.8,1.3v-1"/>
			</g>
			<g transform="translate(0.000000, 32.000000)">
				<path class="st6" d="M0.5,27v-1"/>
				<path class="st7" d="M0.5,24.1V2.3"/>
				<path class="st6" d="M0.5,1.3v-1"/>
			</g>
			<g transform="translate(31.000000, 0.000000)">
				<path class="st6" d="M0.2,1.2h1"/>
				<path class="st8" d="M3.3,1.2H36"/>
				<path class="st6" d="M37.1,1.2h1"/>
			</g>
			<g transform="translate(31.000000, 51.000000)">
				<path class="st6" d="M0.2,0.9h1"/>
				<path class="st8" d="M3.3,0.9H36"/>
				<path class="st6" d="M37.1,0.9h1"/>
			</g>
		</g>
	</g>
</g>
</svg>
