<?xml version="1.0" encoding="utf-8"?>
<!-- Generator: Adobe Illustrator 23.1.1, SVG Export Plug-In . SVG Version: 6.00 Build 0)  -->
<svg version="1.1" id="Layer_1" xmlns="http://www.w3.org/2000/svg" xmlns:xlink="http://www.w3.org/1999/xlink" x="0px" y="0px"
	 viewBox="0 0 168 132" style="enable-background:new 0 0 168 132;" xml:space="preserve">
<style type="text/css">
	.st0{fill:none;stroke:#FFA500;stroke-width:3.731;stroke-miterlimit:10;}
	.st1{fill:none;stroke:#5151FC;stroke-width:3.731;stroke-miterlimit:10;}
	.st2{fill:none;stroke:#00C19C;stroke-width:3.731;stroke-miterlimit:10;}
	.st3{fill:none;stroke:#FF3366;stroke-width:3.731;stroke-miterlimit:10;}
	.st4{fill:none;}
	.st5{font-family:'HKGrotesk-Regular';}
	.st6{font-size:10px;}
</style>
<g id="Isolation_Mode">
</g>
<g id="spazio_livello_2_1_">
	<g>
		<g id="Group_296_1_" transform="translate(-1.99 5.01)">
			<path id="Path_114_1_" class="st0" d="M52,21.1C52,8,41.3-2.7,28.2-2.7"/>
			<path id="Path_116_1_" class="st1" d="M28.1,45c13.1,0,23.8-10.7,23.8-23.8"/>
			<path id="Path_118_1_" class="st2" d="M4.3,21.1c0,13.1,10.7,23.8,23.8,23.8l0,0"/>
			<path id="Path_119_1_" class="st3" d="M28.1-2.7C14.9-2.7,4.3,8,4.3,21.1l0,0"/>
		</g>
		<rect class="st4" width="168" height="132"/>
	</g>
</g>
<rect x="61.2" y="2.8" class="st4" width="110.2" height="54.6"/>
<text transform="matrix(1 0 0 1 61.1609 9.737)"><tspan x="0" y="0" class="st5 st6">Proporzione dei tipi di </tspan><tspan x="0" y="12" class="st5 st6">elenchi elenchi in base ai </tspan><tspan x="0" y="24" class="st5 st6">numeri di caratteri di  </tspan><tspan x="0" y="36" class="st5 st6">ciascun testo.</tspan></text>
</svg>
