<?xml version="1.0" encoding="utf-8"?>
<!-- Generator: Adobe Illustrator 23.1.1, SVG Export Plug-In . SVG Version: 6.00 Build 0)  -->
<svg version="1.1" xmlns="http://www.w3.org/2000/svg" xmlns:xlink="http://www.w3.org/1999/xlink" x="0px" y="0px"
	 viewBox="0 0 157.7 132" style="enable-background:new 0 0 157.7 132;" xml:space="preserve">
<style type="text/css">
	.st0{fill:none;}
	.st1{fill:none;stroke:#999999;stroke-width:0.19;stroke-linecap:round;}
	.st2{fill:none;stroke:#999999;stroke-width:0.19;stroke-linecap:round;stroke-dasharray:1.506,1.506;}
	.st3{fill:none;stroke:#FF3366;stroke-width:0.5;}
	.st4{font-family:'HKGrotesk-Regular';}
	.st5{font-size:10px;}
	.st6{fill:#0094C1;stroke:#FFFFFF;stroke-width:0.25;}
	.st7{fill:#518CFC;stroke:#FFFFFF;stroke-width:0.25;}
	.st8{fill:#5151FC;stroke:#FFFFFF;stroke-width:0.25;}
	.st9{fill:#00C1C1;stroke:#FFFFFF;stroke-width:0.25;}
	.st10{fill:#00C19C;stroke:#FFFFFF;stroke-width:0.25;}
	.st11{fill:#00BAC1;stroke:#FFFFFF;stroke-width:0.25;}
</style>
<g id="Layer_1">
	<title>positioning</title>
	<desc>Created with Sketch.</desc>
</g>
<g id="volumi">
	<rect class="st0" width="157.7" height="132"/>
	<g id="positioning_1_" transform="translate(-2.582 -2.18)">
		<path id="Stroke-1_1_" class="st1" d="M73.2,2.2l0.6,0.4"/>
		<path id="Stroke-2_1_" class="st2" d="M75,2.9l74,43"/>
		<path id="Stroke-3_1_" class="st1" d="M149.2,46.2l0.7,0.4"/>
		<path id="Stroke-4_1_" class="st1" d="M59.2,11.2l0.7,0.4"/>
		<path id="Stroke-5_1_" class="st2" d="M60,11.9l74,43"/>
		<path id="Stroke-6_1_" class="st1" d="M135.2,54.2l0.7,0.4"/>
		<path id="Stroke-7_1_" class="st1" d="M45.2,19.2l0.7,0.4"/>
		<path id="Stroke-8_1_" class="st2" d="M46,19.9l74,43"/>
		<path id="Stroke-9_1_" class="st1" d="M120.2,62.2l0.7,0.4"/>
		<path id="Stroke-10_1_" class="st1" d="M31.2,27.2l0.7,0.4"/>
		<path id="Stroke-11_1_" class="st2" d="M32,27.9l74,43"/>
		<path id="Stroke-12_1_" class="st1" d="M106.2,71.2l0.7,0.4"/>
		<path id="Stroke-13_1_" class="st1" d="M16.2,35.2l0.7,0.4"/>
		<path id="Stroke-14_1_" class="st2" d="M18,35.9l74,43"/>
		<path id="Stroke-15_1_" class="st1" d="M92.2,79.2l0.7,0.4"/>
		<g id="Group-18_1_" transform="translate(2.164 43)">
			<path id="Stroke-16_1_" class="st1" d="M0.4,0.5l0.3,0.2"/>
		</g>
		<path id="Stroke-19_1_" class="st2" d="M4,43.9l74,43"/>
		<g id="Group-26_1_" transform="translate(2.164 46)">
			<g id="Group-22_1_" transform="translate(76.569 40.576)">
				<path id="Stroke-20_1_" class="st1" d="M0.1,0.3l0.5,0.3"/>
			</g>
			<g id="Group-25_1_">
				<path id="Stroke-23_1_" class="st1" d="M0.6,0.5l0.5-0.3"/>
			</g>
		</g>
		<path id="Stroke-27_1_" class="st2" d="M4,45.9l74-43"/>
		<path id="Stroke-28_1_" class="st1" d="M78.2,2.6l0.7-0.4"/>
		<path id="Stroke-29_1_" class="st1" d="M16.2,54.6l0.7-0.4"/>
		<path id="Stroke-30_1_" class="st2" d="M18,53.9l74-43"/>
		<path id="Stroke-31_1_" class="st1" d="M92.2,11.6l0.7-0.4"/>
		<path id="Stroke-32_1_" class="st1" d="M31.2,62.6l0.7-0.4"/>
		<path id="Stroke-33_1_" class="st2" d="M32,61.9l74-43"/>
		<path id="Stroke-34_1_" class="st1" d="M106.2,19.6l0.7-0.4"/>
		<path id="Stroke-35_1_" class="st1" d="M45.2,71.6l0.7-0.4"/>
		<path id="Stroke-36_1_" class="st2" d="M46,70.9l74-43"/>
		<path id="Stroke-37_1_" class="st1" d="M120.2,27.6l0.7-0.4"/>
		<path id="Stroke-38_1_" class="st1" d="M59.2,79.6l0.7-0.4"/>
		<path id="Stroke-39_1_" class="st2" d="M60,78.9l74-43"/>
		<path id="Stroke-40_1_" class="st1" d="M135.2,35.6l0.7-0.4"/>
		<g id="Group-43_1_" transform="translate(73.164 87)">
			<path id="Stroke-41_1_" class="st1" d="M0.3,0.4l0.4-0.2"/>
		</g>
		<path id="Stroke-44_1_" class="st2" d="M75,86.9l74-43"/>
		<path id="Stroke-45_1_" class="st1" d="M149.2,43.6l0.7-0.4"/>
		<path id="Stroke-46_1_" class="st3" d="M66,65.4c-2.2-1.3-2.8-3.2-1.6-4.8c0-0.1,0.1-0.1,0.1-0.2c0.9-1,0.4-1.3,0.2-1.5
			c-0.3-0.2-0.7-0.3-1-0.4c-0.1,0-0.1,0-0.2-0.1C63,58.2,62.4,58,62,57.8c-2.5-1.4-2.5-3.8,0-5.2c2.6-1.3,5.6-1.4,8.3-0.4
			c0.1,0,0.2,0.1,0.2,0.1c0.5,0.3,1.1,0.4,1.7,0.4c0.8-0.1,1.5-0.5,2.1-1c0.1,0,0.1-0.1,0.2-0.1c0.2-0.1,0.3-0.2,0.5-0.3
			c4-2,8.7-2,12.7,0c3.1,1.8,3.5,4.6,1,6.6c0,0.1-0.1,0.1-0.2,0.2c-1.6,1.2-1,1.6-0.5,1.9l0,0c0.2,0.1,0.3,0.2,0.5,0.2
			c0,0,0.1,0,0.1,0.1l0,0c0.2,0.1,0.3,0.1,0.5,0.2c2.5,1.4,2.5,3.8,0,5.2c-2.9,1.4-6.2,1.4-9.1,0c-0.1,0-0.1-0.1-0.2-0.1l-0.1-0.1
			c-0.1-0.1-0.2-0.1-0.3-0.2c-0.7-0.4-1.4-0.6-3,0.2c-0.1,0-0.2,0.1-0.3,0.1C72.8,67.1,69.2,67,66,65.4z"/>
		<path id="Path-3_2_" d="M116.6,37.5l-2.9-5.2l0.4-0.2l3.6,6.4l-7.3-0.3v-0.5l5.9,0.2l-4.3-2.6c-11.6-6.2-28-9.2-43.6-7.8
			c-17,1.5-31.5,7.9-40.3,18.6l-0.4-0.3c9-10.9,23.6-17.3,40.7-18.8c15.7-1.4,32.2,1.6,43.9,7.9L116.6,37.5z"/>
		<text transform="matrix(1 0 0 1 85.5823 79.6458)" class="st4 st5">1. presenti nella</text>
		<text transform="matrix(1 0 0 1 97.0181 92.4769)" class="st4 st5">stessa raccolta</text>
		<text transform="matrix(1 0 0 1 51.8563 20.8785)" class="st4 st5">2. cronologia</text>
		<g id="Group-77_2_" transform="translate(65.164 58)">
			<ellipse id="Ellipse_12_1_" class="st6" cx="7.5" cy="3.2" rx="7" ry="4"/>
			<ellipse id="Ellipse_18_1_" class="st7" cx="16.5" cy="-3.3" rx="7" ry="3.5"/>
			<ellipse id="Ellipse_19_1_" class="st8" cx="19" cy="-19.3" rx="5.5" ry="2.5"/>
			<ellipse id="Ellipse_20_1_" class="st8" cx="24.5" cy="-14.3" rx="5" ry="2.5"/>
			<ellipse id="Ellipse_21_1_" class="st8" cx="32.5" cy="-20.3" rx="7" ry="3.5"/>
			<ellipse id="Ellipse_16_1_" class="st9" cx="1" cy="-3.3" rx="4.5" ry="2.5"/>
			<ellipse id="Ellipse_17_1_" class="st6" cx="19.5" cy="5.2" rx="5" ry="3"/>
			<ellipse id="Ellipse_13_1_" class="st10" cx="-17.5" cy="-6.8" rx="5" ry="3"/>
			<ellipse id="Ellipse_14_1_" class="st10" cx="-17" cy="-12.8" rx="3.5" ry="2"/>
			<ellipse id="Ellipse_15_1_" class="st11" cx="-7.5" cy="-11.8" rx="5" ry="3"/>
		</g>
	</g>
</g>
</svg>
