<?xml version="1.0" encoding="utf-8"?>
<!-- Generator: Adobe Illustrator 23.1.1, SVG Export Plug-In . SVG Version: 6.00 Build 0)  -->
<svg version="1.1" id="Layer_1" xmlns="http://www.w3.org/2000/svg" xmlns:xlink="http://www.w3.org/1999/xlink" x="0px" y="0px"
	 viewBox="0 0 164 90" style="enable-background:new 0 0 164 90;" xml:space="preserve">
<style type="text/css">
	.st0{fill:none;stroke:#999999;stroke-width:0.19;stroke-linecap:round;}
	.st1{fill:none;stroke:#999999;stroke-width:0.19;stroke-linecap:round;stroke-dasharray:1.506,1.506;}
	.st2{fill:none;stroke:#FF3366;stroke-width:0.5;}
	.st3{fill:#0094C1;}
	.st4{fill:#518CFC;}
	.st5{fill:#5151FC;}
	.st6{fill:#00C1C1;}
	.st7{fill:#00C19C;}
	.st8{fill:#00BAC1;}
	.st9{font-family:'HKGrotesk-Regular';}
	.st10{font-size:9px;}
</style>
<title>positioning</title>
<desc>Created with Sketch.</desc>
<g id="positioning_1_" transform="translate(-2.582 -2.18)">
	<path id="Stroke-1_1_" class="st0" d="M76.5,4.6L77.1,5"/>
	<path id="Stroke-2_1_" class="st1" d="M78.3,5.3l74,43"/>
	<path id="Stroke-3_1_" class="st0" d="M152.5,48.6l0.7,0.4"/>
	<path id="Stroke-4_1_" class="st0" d="M62.5,13.6l0.7,0.4"/>
	<path id="Stroke-5_1_" class="st1" d="M63.3,14.3l74,43"/>
	<path id="Stroke-6_1_" class="st0" d="M138.5,56.6l0.7,0.4"/>
	<path id="Stroke-7_1_" class="st0" d="M48.5,21.6l0.7,0.4"/>
	<path id="Stroke-8_1_" class="st1" d="M49.3,22.3l74,43"/>
	<path id="Stroke-9_1_" class="st0" d="M123.5,64.6l0.7,0.4"/>
	<path id="Stroke-10_1_" class="st0" d="M34.5,29.6l0.7,0.4"/>
	<path id="Stroke-11_1_" class="st1" d="M35.3,30.3l74,43"/>
	<path id="Stroke-12_1_" class="st0" d="M109.5,73.6l0.7,0.4"/>
	<path id="Stroke-13_1_" class="st0" d="M19.5,37.6l0.7,0.4"/>
	<path id="Stroke-14_1_" class="st1" d="M21.3,38.3l74,43"/>
	<path id="Stroke-15_1_" class="st0" d="M95.5,81.6l0.7,0.4"/>
	<g id="Group-18_1_" transform="translate(2.164 43)">
		<path id="Stroke-16_1_" class="st0" d="M3.7,2.9L4,3.1"/>
	</g>
	<path id="Stroke-19_1_" class="st1" d="M7.3,46.3l74,43"/>
	<g id="Group-26_1_" transform="translate(2.164 46)">
		<g id="Group-22_1_" transform="translate(76.569 40.576)">
			<path id="Stroke-20_1_" class="st0" d="M3.4,2.7l0.5,0.3"/>
		</g>
		<g id="Group-25_1_">
			<path id="Stroke-23_1_" class="st0" d="M3.9,2.9l0.5-0.3"/>
		</g>
	</g>
	<path id="Stroke-27_1_" class="st1" d="M7.3,48.3l74-43"/>
	<path id="Stroke-28_1_" class="st0" d="M81.5,5l0.7-0.4"/>
	<path id="Stroke-29_1_" class="st0" d="M19.5,57l0.7-0.4"/>
	<path id="Stroke-30_1_" class="st1" d="M21.3,56.3l74-43"/>
	<path id="Stroke-31_1_" class="st0" d="M95.5,14l0.7-0.4"/>
	<path id="Stroke-32_1_" class="st0" d="M34.5,65l0.7-0.4"/>
	<path id="Stroke-33_1_" class="st1" d="M35.3,64.3l74-43"/>
	<path id="Stroke-34_1_" class="st0" d="M109.5,22l0.7-0.4"/>
	<path id="Stroke-35_1_" class="st0" d="M48.5,74l0.7-0.4"/>
	<path id="Stroke-36_1_" class="st1" d="M49.3,73.3l74-43"/>
	<path id="Stroke-37_1_" class="st0" d="M123.5,30l0.7-0.4"/>
	<path id="Stroke-38_1_" class="st0" d="M62.5,82l0.7-0.4"/>
	<path id="Stroke-39_1_" class="st1" d="M63.3,81.3l74-43"/>
	<path id="Stroke-40_1_" class="st0" d="M138.5,38l0.7-0.4"/>
	<g id="Group-43_1_" transform="translate(73.164 87)">
		<path id="Stroke-41_1_" class="st0" d="M3.6,2.8L4,2.6"/>
	</g>
	<path id="Stroke-44_1_" class="st1" d="M78.3,89.3l74-43"/>
	<path id="Stroke-45_1_" class="st0" d="M152.5,46l0.7-0.4"/>
	<path id="Stroke-46_1_" class="st2" d="M69.3,67.8c-2.2-1.3-2.8-3.2-1.6-4.8c0-0.1,0.1-0.1,0.1-0.2c0.9-1,0.4-1.3,0.2-1.5
		c-0.3-0.2-0.7-0.3-1-0.4c-0.1,0-0.1,0-0.2-0.1c-0.5-0.2-1.1-0.4-1.5-0.6c-2.5-1.4-2.5-3.8,0-5.2c2.6-1.3,5.6-1.4,8.3-0.4
		c0.1,0,0.2,0.1,0.2,0.1c0.5,0.3,1.1,0.4,1.7,0.4c0.8-0.1,1.5-0.5,2.1-1c0.1,0,0.1-0.1,0.2-0.1c0.2-0.1,0.3-0.2,0.5-0.3
		c4-2,8.7-2,12.7,0c3.1,1.8,3.5,4.6,1,6.6c0,0.1-0.1,0.1-0.2,0.2c-1.6,1.2-1,1.6-0.5,1.9h0c0.2,0.1,0.3,0.2,0.5,0.2
		c0,0,0.1,0,0.1,0.1c0,0,0,0,0,0c0.2,0.1,0.3,0.1,0.5,0.2c2.5,1.4,2.5,3.8,0,5.2c-2.9,1.4-6.2,1.4-9.1,0c-0.1,0-0.1-0.1-0.2-0.1
		c0,0-0.1-0.1-0.1-0.1c-0.1-0.1-0.2-0.1-0.3-0.2c-0.7-0.4-1.4-0.6-3,0.2c-0.1,0-0.2,0.1-0.3,0.1C76.1,69.5,72.5,69.4,69.3,67.8z"/>
	<g id="Group-77_1_" transform="translate(65.164 58)">
		<ellipse id="Ellipse_12" class="st3" cx="10.7" cy="5.6" rx="7" ry="4"/>
		<ellipse id="Ellipse_18" class="st4" cx="19.7" cy="-0.9" rx="7" ry="3.5"/>
		<ellipse id="Ellipse_19" class="st5" cx="22.2" cy="-16.9" rx="5.5" ry="2.5"/>
		<ellipse id="Ellipse_20" class="st5" cx="27.7" cy="-11.9" rx="5" ry="2.5"/>
		<ellipse id="Ellipse_21" class="st5" cx="35.7" cy="-17.9" rx="7" ry="3.5"/>
		<ellipse id="Ellipse_16" class="st6" cx="4.2" cy="-0.9" rx="4.5" ry="2.5"/>
		<ellipse id="Ellipse_17" class="st3" cx="22.7" cy="7.6" rx="5" ry="3"/>
		<ellipse id="Ellipse_13" class="st7" cx="-14.3" cy="-4.4" rx="5" ry="3"/>
		<ellipse id="Ellipse_14" class="st7" cx="-13.8" cy="-10.4" rx="3.5" ry="2"/>
		<ellipse id="Ellipse_15" class="st8" cx="-4.3" cy="-9.4" rx="5" ry="3"/>
	</g>
	<path id="Path-3_1_" d="M119.9,39.9l-2.9-5.2l0.4-0.2l3.6,6.4l-7.3-0.3l0-0.5l5.9,0.2l-4.3-2.6c-11.6-6.2-28-9.2-43.6-7.8
		c-17,1.5-31.5,7.9-40.3,18.6l-0.4-0.3C40,37.3,54.6,30.9,71.7,29.4c15.7-1.4,32.2,1.6,43.9,7.9L119.9,39.9z"/>
	<text transform="matrix(1 0 0 1 98.1382 57.2985)" class="st9 st10">1. presenti nella</text>
	<text transform="matrix(1 0 0 1 108.1382 69.2985)" class="st9 st10">stessa raccolta</text>
	<text transform="matrix(1 0 0 1 55.1382 23.2985)" class="st9 st10">2. cronologia</text>
</g>
</svg>
