<?xml version="1.0" encoding="utf-8"?>
<!-- Generator: Adobe Illustrator 23.1.1, SVG Export Plug-In . SVG Version: 6.00 Build 0)  -->
<svg version="1.1" xmlns="http://www.w3.org/2000/svg" xmlns:xlink="http://www.w3.org/1999/xlink" x="0px" y="0px"
	 viewBox="0 0 109.5 59" style="enable-background:new 0 0 109.5 59;" xml:space="preserve">
<style type="text/css">
	.st0{fill:#FFFFFF;stroke:#C6CACF;stroke-width:0.25;stroke-miterlimit:10;}
	.st1{fill:#939699;}
	.st2{fill:#C6CACF;}
	.st3{fill:none;stroke:#FF9900;stroke-miterlimit:10;}
	.st4{fill:#AFB1B2;}
	.st5{fill:none;stroke:#000000;stroke-width:0.5;stroke-miterlimit:10;}
	.st6{font-family:'HKGrotesk-Regular';}
	.st7{font-size:8px;}
</style>
<g id="Layer_1">
	<g>
		<circle class="st0" cx="24.6" cy="9.2" r="2.7"/>
		<circle class="st1" cx="49.5" cy="21.9" r="4.4"/>
		<circle class="st2" cx="29.9" cy="16" r="4.4"/>
		<ellipse class="st1" cx="20.4" cy="16" rx="3.2" ry="3"/>
		<circle class="st2" cx="44.7" cy="29" r="2.7"/>
		<circle class="st0" cx="52.7" cy="30.7" r="4.1"/>
		<g>
			<path class="st3" d="M33.4,41.2c0-3.4-2.8-6.2-6.2-6.2c-0.3,0-0.5,0-0.7,0l0,0c-2.2,0.3-2.7,0-3.8-1.4l0,0
				c-0.9-1.2-2.3-1.9-3.9-1.9c-1.2,0-2.3,0.5-3.2,1.2l0,0c-1.4,1.2-2,1.4-4.5,0.4l0,0c-0.9-0.4-1.8-0.6-2.8-0.6
				c-4.2,0-7.6,3.4-7.6,7.6c0,4.2,3.4,7.6,7.6,7.6c0.1,0,0.2,0,0.3,0l0,0c2.8-0.1,3.4,0.3,4.6,2.4l0,0c1.1,2,3.2,3.3,5.6,3.3
				c2.6,0,4.8-1.5,5.8-3.7l0,0c1-2.1,1.4-2.4,3.6-2.7l0,0C31.2,46.8,33.4,44.2,33.4,41.2z"/>
			<circle class="st0" cx="18.8" cy="36.8" r="3.2"/>
			<circle class="st2" cx="18.8" cy="47.2" r="4.2"/>
			<circle class="st4" cx="8.3" cy="40.4" r="5.8"/>
			<circle class="st2" cx="27.3" cy="41.2" r="4.4"/>
		</g>
	</g>
	<g>
		<path class="st5" d="M0.6,20.6C5.5,8.9,17.1,0.8,30.5,1C35.8,1,40.8,2.4,45.2,4.8c4.2,2.3,7.9,5.5,10.7,9.3"/>
		<g>
			<path d="M51.9,12.9c0-0.1,0.2-0.2,0.3-0.2l3.6,1.2l-0.4-3.8c0-0.1,0.1-0.3,0.2-0.3c0.1,0,0.3,0.1,0.3,0.2l0.4,4.2
				c0,0.1,0,0.2-0.1,0.2c-0.1,0.1-0.2,0.1-0.2,0l-4-1.4c0,0-0.1,0-0.1-0.1C51.9,13.1,51.9,13,51.9,12.9z"/>
		</g>
	</g>
</g>
<g id="Isolation_Mode">
	<text transform="matrix(1 0 0 1 36.2426 48.0488)" class="st6 st7">1. presenti nella</text>
	<text transform="matrix(1 0 0 1 45.579 57.3852)" class="st6 st7">stessa raccolta</text>
	<text transform="matrix(1 0 0 1 61.576 15.9628)" class="st6 st7">2. cronologia</text>
</g>
</svg>
