<?xml version="1.0" encoding="utf-8"?>
<!-- Generator: Adobe Illustrator 23.1.1, SVG Export Plug-In . SVG Version: 6.00 Build 0)  -->
<svg version="1.1" id="Layer_1" xmlns="http://www.w3.org/2000/svg" xmlns:xlink="http://www.w3.org/1999/xlink" x="0px" y="0px"
	 viewBox="0 0 148.3 50.1" style="enable-background:new 0 0 148.3 50.1;" xml:space="preserve">
<style type="text/css">
	.st0{fill:none;stroke:#5151FC;stroke-width:3;stroke-miterlimit:10;}
	.st1{fill:none;stroke:#00C19C;stroke-width:3;stroke-miterlimit:10;}
	.st2{fill:none;stroke:#FF6C39;stroke-width:3;stroke-miterlimit:10;}
	.st3{fill:none;stroke:#BBBBFF;stroke-width:3;stroke-miterlimit:10;}
	.st4{fill:none;stroke:#FFA500;stroke-width:3;stroke-miterlimit:10;}
	.st5{font-family:'HKGrotesk-Regular';}
	.st6{font-size:9px;}
</style>
<g id="Group_285" transform="translate(-764.475 -614.489)">
	<g id="Group_256" transform="translate(761.515 609.443)">
		<path id="Path_97" class="st0" d="M35.8,42.9c6.7-4.9,9.6-13.6,7-21.5"/>
		<path id="Path_100" class="st1" d="M6.2,21.4c-2.6,7.9,0.3,16.6,7,21.5"/>
		<path id="Path_101" class="st2" d="M13.1,42.9c6.7,4.9,15.9,4.9,22.6,0"/>
		<path id="Path_102" class="st3" d="M42.8,21.4c-2.6-7.9-10-13.3-18.3-13.3"/>
		<path id="Path_103" class="st4" d="M24.5,8.1c-8.3,0-15.7,5.4-18.3,13.3"/>
	</g>
	<text transform="matrix(1 0 0 1 815.2546 629.5684)" class="st5 st6">Proporzione dei tipi di </text>
	<text transform="matrix(1 0 0 1 815.2546 640.3683)" class="st5 st6">luoghi che sono </text>
	<text transform="matrix(1 0 0 1 815.2546 651.1683)" class="st5 st6">contenitori di altri luoghi </text>
	<text transform="matrix(1 0 0 1 815.2546 661.9684)" class="st5 st6">in primo livello.</text>
</g>
</svg>
