<?xml version="1.0" encoding="utf-8"?>
<!-- Generator: Adobe Illustrator 23.1.1, SVG Export Plug-In . SVG Version: 6.00 Build 0)  -->
<svg version="1.1" id="Layer_1" xmlns="http://www.w3.org/2000/svg" xmlns:xlink="http://www.w3.org/1999/xlink" x="0px" y="0px"
	 viewBox="0 0 152.8 74.4" style="enable-background:new 0 0 152.8 74.4;" xml:space="preserve">
<style type="text/css">
	.st0{fill:none;stroke:#444444;stroke-width:0.25;stroke-dasharray:1.9,1.9;}
	.st1{fill:none;stroke:#000000;stroke-width:3.021;stroke-miterlimit:10;}
	.st2{fill:none;stroke:#FFA500;stroke-width:3.025;stroke-miterlimit:10;}
	.st3{font-family:'HKGrotesk-Regular';}
	.st4{font-size:8px;}
	.st5{fill:none;stroke:#FFCC33;stroke-width:3.025;stroke-miterlimit:10;}
	.st6{fill:none;stroke:#CCCCCC;stroke-width:3;stroke-miterlimit:10;}
	.st7{fill:none;stroke:#FF9900;stroke-width:3;stroke-miterlimit:10;}
	.st8{fill:none;stroke:#000000;stroke-width:3;stroke-miterlimit:10;}
</style>
<g id="Group_299" transform="translate(1.5)">
	<g id="Group-3" transform="translate(22.644 9.551)">
		<path id="Path-6" class="st0" d="M8.2,1.1l-7.9,9.6"/>
	</g>
	<g id="Group-3-2" transform="translate(72.644 1.24)">
		<path id="Path-6-2" class="st0" d="M15,1.1l-14.7,18"/>
	</g>
	<path id="Path_120" class="st1" d="M78.6,43.2"/>
	<path id="Path_121" class="st1" d="M7.5,30.2"/>
	<path id="Path_122" class="st2" d="M62.6,47.8"/>
	<path id="Path_123" class="st2" d="M8.1,23.5"/>
	<g id="Group_273" transform="translate(26.954 1.24)">
		<g id="Group_272">
			<text transform="matrix(1 0 0 1 0.2969 6.8925)" class="st3 st4">Elenchi</text>
		</g>
	</g>
	<g id="Group_277" transform="translate(17.558 65.531)">
		<g id="Group_276">
			<text transform="matrix(1 0 0 1 0.2969 8.1323)" class="st3 st4">Senza elenchi</text>
		</g>
	</g>
	<path id="Path_124" class="st5" d="M54.9,23.5"/>
	<path class="st6" d="M16.9,20.4c-9.3,0-16.8,7.5-16.8,16.8S7.7,54,16.9,54s16.8-7.5,16.8-16.8"/>
	<path class="st7" d="M33.7,37.2c0-9.3-7.5-16.8-16.8-16.8"/>
	<text transform="matrix(1 0 0 1 91.2509 8.1322)" class="st3 st4">Elenchi con </text>
	<text transform="matrix(1 0 0 1 91.2509 17.7322)" class="st3 st4">presenza menore </text>
	<text transform="matrix(1 0 0 1 91.2509 27.3323)" class="st3 st4">al 5% del testo.</text>
	<line id="Line_132" class="st0" x1="23.7" y1="54" x2="23.7" y2="66.7"/>
	<line id="Line_133" class="st0" x1="57.7" y1="54" x2="57.7" y2="66.7"/>
	<path class="st6" d="M63.5,20.4c-9.3,0-16.8,7.5-16.8,16.8S54.2,54,63.5,54s16.8-7.5,16.8-16.8"/>
	<path class="st8" d="M75.5,25.5c-3-3.1-7.3-5.1-12-5.1"/>
	<path class="st7" d="M80.3,37.2"/>
	<path class="st6" d="M80.3,37.2c0-4.6-1.8-8.7-4.8-11.7"/>
</g>
</svg>
