<?xml version="1.0" encoding="utf-8"?>
<!-- Generator: Adobe Illustrator 23.1.1, SVG Export Plug-In . SVG Version: 6.00 Build 0)  -->
<svg version="1.1" id="spazio_livello_3" xmlns="http://www.w3.org/2000/svg" xmlns:xlink="http://www.w3.org/1999/xlink" x="0px"
	 y="0px" viewBox="0 0 205.7 132" style="enable-background:new 0 0 205.7 132;" xml:space="preserve">
<style type="text/css">
	.st0{fill:none;stroke:#444444;stroke-width:0.3929;stroke-dasharray:2.9859,2.9859;}
	.st1{fill:none;stroke:#666666;stroke-width:3.731;}
	.st2{font-family:'HKGrotesk-Regular';}
	.st3{font-size:10px;}
	.st4{fill:none;stroke:#CCCCCC;stroke-width:3.731;}
	.st5{fill:none;stroke:#666666;stroke-width:3.9288;}
	.st6{fill:#CCCCCC;stroke:#FFFFFF;stroke-width:1.2;}
	.st7{fill:#666666;stroke:#FFFFFF;stroke-width:1.2;}
	.st8{fill:none;}
</style>
<g id="Group_291_1_" transform="translate(-0.617 0.848)">
	<line id="Line_131_1_" class="st0" x1="24.9" y1="99" x2="24.9" y2="74.2"/>
	<line id="Line_104_1_" class="st1" x1="65.4" y1="58" x2="92.4" y2="58.2"/>
	<text transform="matrix(1 0 0 1 1.3942 8.9949)" class="st2 st3">livello 1</text>
	<text transform="matrix(1 0 0 1 58.0635 8.9949)" class="st2 st3">2</text>
	<text transform="matrix(1 0 0 1 87.8142 8.9949)" class="st2 st3">3</text>
	<text transform="matrix(1 0 0 1 12.5986 107.081)" class="st2 st3">luoghi</text>
	<path id="Path_74_1_" class="st4" d="M36.5,69.7c-6,6-15.6,6-21.5,0c-6-6-6-15.6,0-21.5s15.6-6,21.5,0l0,0"/>
	<path id="Path_76_1_" class="st1" d="M61.5,43c4.4,9.8,4.4,21-0.1,30.7"/>
	<path id="Path_77_1_" class="st5" d="M58.8,39.3"/>
	<path id="Path_78_1_" class="st1" d="M90.7,46.6c1.7,7.7,1.7,15.9,0,23.6"/>
	<path id="Path_79_1_" class="st1" d="M36.5,48.1c6,6,6,15.6,0,21.5l0,0"/>
	<ellipse id="Ellipse_2_1_" class="st6" cx="25.4" cy="43.6" rx="2.6" ry="2.6"/>
	<ellipse id="Ellipse_4_1_" class="st6" cx="25.4" cy="74.2" rx="2.6" ry="2.6"/>
	<ellipse id="Ellipse_4-2_1_" class="st6" cx="10.4" cy="57.6" rx="2.6" ry="2.6"/>
	<line id="Line_112_1_" class="st1" x1="41.7" y1="57.8" x2="65.4" y2="58"/>
	<ellipse id="Ellipse_6_1_" class="st7" cx="40.9" cy="57.6" rx="2.6" ry="2.6"/>
	<ellipse id="Ellipse_7_1_" class="st7" cx="64.8" cy="58.1" rx="2.6" ry="2.6"/>
	<ellipse id="Ellipse_8_1_" class="st6" cx="61.5" cy="74.2" rx="2.6" ry="2.6"/>
	<ellipse id="Ellipse_9_1_" class="st7" cx="61.5" cy="43.6" rx="2.6" ry="2.6"/>
	<ellipse id="Ellipse_10_1_" class="st6" cx="91.2" cy="45.6" rx="2.6" ry="2.6"/>
	<ellipse id="Ellipse_11_1_" class="st7" cx="90.7" cy="68.4" rx="2.6" ry="2.6"/>
	<line id="Line_115_1_" class="st0" x1="32.2" y1="40.3" x2="32.2" y2="11"/>
	<line id="Line_116_1_" class="st0" x1="60.7" y1="39.3" x2="60.7" y2="11"/>
	<line id="Line_117_1_" class="st0" x1="90.5" y1="41.1" x2="90.5" y2="11"/>
</g>
<rect x="108.4" y="2.6" class="st8" width="100.1" height="26.6"/>
<text transform="matrix(1 0 0 1 108.3879 9.517)"><tspan x="0" y="0" class="st2 st3">Relazione gerarchica </tspan><tspan x="0" y="12" class="st2 st3">dei luoghi contengono</tspan></text>
<rect class="st8" width="205.7" height="132"/>
</svg>
