<?xml version="1.0" encoding="utf-8"?>
<!-- Generator: Adobe Illustrator 23.1.1, SVG Export Plug-In . SVG Version: 6.00 Build 0)  -->
<svg version="1.1" id="Layer_1" xmlns="http://www.w3.org/2000/svg" xmlns:xlink="http://www.w3.org/1999/xlink" x="0px" y="0px"
	 viewBox="0 0 206 51.7" style="enable-background:new 0 0 206 51.7;" xml:space="preserve">
<style type="text/css">
	.st0{fill:none;stroke:#000000;stroke-width:3.021;stroke-miterlimit:10;}
	.st1{fill:none;stroke:#FFA500;stroke-width:3.025;stroke-miterlimit:10;}
	.st2{fill:none;stroke:#444444;stroke-width:0.25;stroke-dasharray:1.9,1.9;}
	.st3{fill:none;stroke:#5151FC;stroke-width:3;stroke-miterlimit:10;}
	.st4{fill:none;stroke:#00C19C;stroke-width:3;stroke-miterlimit:10;}
	.st5{fill:none;stroke:#FF3366;stroke-width:3;stroke-miterlimit:10;}
	.st6{font-family:'HKGrotesk-Regular';}
	.st7{font-size:8px;}
	.st8{font-size:9px;}
</style>
<g id="Isolation_Mode">
</g>
<g id="Group_294" transform="translate(0 -1.79)">
	<path id="Path_110" class="st0" d="M80.8,12.6"/>
	<path id="Path_111" class="st0" d="M72,39.7"/>
	<path id="Path_112" class="st0" d="M43.5,39.7"/>
	<path id="Path_113" class="st0" d="M34.6,12.6"/>
	<path id="Path_115" class="st1" d="M57.7,44.3"/>
	<path id="Path_117" class="st1" d="M33.4,20"/>
	<g id="Group_295" transform="translate(0 11)">
		<g id="Group-3_4_" transform="translate(20.198 15.997)">
			<path id="Path-6_4_" class="st2" d="M13.2-6H3"/>
		</g>
		<g id="Group-3-2" transform="translate(61.461 15.375)">
			<path id="Path-6-2" class="st2" d="M13.7-6H3"/>
		</g>
		<g id="Group-3-3" transform="translate(22.686 41.91)">
			<path id="Path-6-3" class="st2" d="M16.6-6H3"/>
		</g>
		<g id="Group-3-4" transform="translate(58.918 41.91)">
			<path id="Path-6-4" class="st2" d="M16.6-6H3"/>
		</g>
		<g id="Group_296" transform="translate(-1.99 5.01)">
			<path id="Path_114" class="st1" d="M71.9,15c0-10.6-8.6-19.2-19.2-19.2"/>
			<path id="Path_116" class="st3" d="M52.6,34.3c10.6,0,19.2-8.6,19.2-19.2"/>
			<path id="Path_118" class="st4" d="M33.4,15c0,10.6,8.6,19.2,19.2,19.2l0,0"/>
			<path id="Path_119" class="st5" d="M52.6-4.2C42-4.2,33.4,4.4,33.4,15l0,0"/>
		</g>
		<g id="Group_264" transform="translate(73.291 10.235)">
			<g id="Group_263">
				<text transform="matrix(1 0 0 1 2.9744 1)" class="st6 st7">Sintgami</text>
			</g>
		</g>
		<g id="Group_266" transform="translate(73.291 36.286)">
			<g id="Group_265">
				<text transform="matrix(1 0 0 1 2.9744 1)" class="st6 st7">Frasi</text>
			</g>
		</g>
		<g id="Group_268" transform="translate(0 10.235)">
			<g id="Group_267">
				<text transform="matrix(1 0 0 1 2.9744 1)" class="st6 st7">Misto</text>
			</g>
		</g>
		<g id="Group_270" transform="translate(0 36.286)">
			<g id="Group_269">
				<text transform="matrix(1 0 0 1 2.9744 1)" class="st6 st7">Parole</text>
			</g>
		</g>
	</g>
	<text transform="matrix(1 0 0 1 118.4654 11)" class="st6 st8">Proporzione dei tipi di </text>
	<text transform="matrix(1 0 0 1 118.4654 21.8)" class="st6 st8">elenchi in base ai </text>
	<text transform="matrix(1 0 0 1 118.4654 32.6)" class="st6 st8">numeri di caratteri di </text>
	<text transform="matrix(1 0 0 1 118.4654 43.4)" class="st6 st8">ciascun testo.</text>
</g>
</svg>
