<?xml version="1.0" encoding="utf-8"?>
<!-- Generator: Adobe Illustrator 23.1.1, SVG Export Plug-In . SVG Version: 6.00 Build 0)  -->
<svg version="1.1" id="Layer_1" xmlns="http://www.w3.org/2000/svg" xmlns:xlink="http://www.w3.org/1999/xlink" x="0px" y="0px"
	 viewBox="0 0 356.1 87" style="enable-background:new 0 0 356.1 87;" xml:space="preserve">
<style type="text/css">
	.st0{font-family:'HKGrotesk-Regular';}
	.st1{font-size:8px;}
	.st2{fill:#D6DBDF;stroke:#444444;stroke-width:0.25;}
	.st3{fill:none;stroke:#444444;stroke-width:0.25;}
	.st4{fill:#FFD93B;stroke:#444444;stroke-width:0.25;stroke-linejoin:round;}
	.st5{fill:#FF3366;stroke:#444444;stroke-width:0.25;}
	.st6{fill:#FFA500;stroke:#444444;stroke-width:0.25;stroke-linejoin:round;}
	.st7{fill:#00BFD3;stroke:#444444;stroke-width:0.25;stroke-linejoin:round;}
</style>
<title>modalita-raccolta</title>
<desc>Created with Sketch.</desc>
<g id="modalita-raccolta_1_" transform="translate(-31.275 -1)">
	<g id="Group_227">
		<g id="Group_1_" transform="translate(31)">
			<text transform="matrix(1 0 0 1 6.2848 73.363)" class="st0 st1">Volume</text>
			<text transform="matrix(1 0 0 1 6.2848 84.363)" class="st0 st1">opera singola</text>
		</g>
		<g id="Group-2_1_" transform="translate(31 3.881)">
			<ellipse id="Oval_1_" class="st2" cx="31.9" cy="33.6" rx="30.6" ry="17.7"/>
			<ellipse id="Oval-2" class="st2" cx="31.9" cy="29.5" rx="26.6" ry="15.4"/>
			<ellipse id="Oval-3" class="st2" cx="31.9" cy="25.4" rx="23.6" ry="13.6"/>
			<ellipse id="Oval-4" class="st2" cx="31.9" cy="21.4" rx="21.4" ry="12.4"/>
			<ellipse id="Oval-5" class="st2" cx="31.9" cy="17.3" rx="19.4" ry="11.2"/>
			<ellipse id="Oval-6" class="st2" cx="31.9" cy="13.2" rx="16.8" ry="9.7"/>
			<ellipse id="Oval-7" class="st2" cx="31.9" cy="9.1" rx="13" ry="7.5"/>
			<ellipse id="Oval-8" class="st2" cx="31.9" cy="5.1" rx="7.5" ry="4.3"/>
		</g>
		<g id="Group-3" transform="translate(7)">
			<text transform="matrix(1 0 0 1 103.2848 73.363)" class="st0 st1">Racconto</text>
			<text transform="matrix(1 0 0 1 103.2848 84.363)" class="st0 st1">opera singola</text>
		</g>
		<g id="Group-4" transform="translate(104 3.881)">
			<ellipse id="Oval-9" class="st3" cx="31.9" cy="33.6" rx="30.6" ry="17.7"/>
			<ellipse id="Oval-10" class="st3" cx="31.9" cy="29.5" rx="26.6" ry="15.4"/>
			<ellipse id="Oval-11" class="st3" cx="31.9" cy="25.4" rx="23.6" ry="13.6"/>
			<ellipse id="Oval-12" class="st3" cx="31.9" cy="21.4" rx="21.4" ry="12.4"/>
			<ellipse id="Oval-13" class="st3" cx="31.9" cy="17.3" rx="19.4" ry="11.2"/>
			<ellipse id="Oval-14" class="st3" cx="31.9" cy="13.2" rx="16.8" ry="9.7"/>
			<ellipse id="Oval-15" class="st3" cx="31.9" cy="9.1" rx="13" ry="7.5"/>
			<ellipse id="Oval-16" class="st3" cx="31.9" cy="5.1" rx="7.5" ry="4.3"/>
		</g>
		<g id="Group-5" transform="translate(-16)">
			<text transform="matrix(1 0 0 1 191.2848 73.363)" class="st0 st1">Racconto contenuto</text>
			<text transform="matrix(1 0 0 1 191.2848 84.363)" class="st0 st1">in una raccolta</text>
		</g>
		<g id="Group-6" transform="translate(178 3.881)">
			<ellipse id="Oval-17" class="st4" cx="32.1" cy="33.6" rx="30.6" ry="17.7"/>
			<ellipse id="Oval-18" class="st4" cx="32.1" cy="29.5" rx="26.6" ry="15.4"/>
			<ellipse id="Oval-19" class="st4" cx="32.1" cy="25.4" rx="23.6" ry="13.6"/>
			<ellipse id="Oval-20" class="st4" cx="32.1" cy="21.4" rx="21.4" ry="12.4"/>
			<ellipse id="Oval-21" class="st4" cx="32.1" cy="17.3" rx="19.4" ry="11.2"/>
			<ellipse id="Oval-22" class="st4" cx="32.1" cy="13.2" rx="16.8" ry="9.7"/>
			<ellipse id="Oval-23" class="st4" cx="32.1" cy="9.1" rx="13" ry="7.5"/>
			<ellipse id="Oval-24" class="st4" cx="32.1" cy="5.1" rx="7.5" ry="4.3"/>
		</g>
		<text transform="matrix(1 0 0 1 334.2849 44.945)" class="st0 st1">prima </text>
		<text transform="matrix(1 0 0 1 334.2849 55.945)" class="st0 st1">pubblicazione</text>
		<text transform="matrix(1 0 0 1 334.2849 8.756)" class="st0 st1">ultima </text>
		<text transform="matrix(1 0 0 1 334.2849 19.756)" class="st0 st1">ripubblicazione</text>
		<path id="Path_1_" class="st3" d="M288.1,56.1h42"/>
		<g id="Group-2-2" transform="translate(255 3.881)">
			<ellipse id="Oval-25" class="st5" cx="31.5" cy="33.6" rx="30.6" ry="17.7"/>
			<ellipse id="Oval-26" class="st5" cx="31.5" cy="29.5" rx="26.6" ry="15.4"/>
			<ellipse id="Oval-27" class="st6" cx="31.5" cy="25.4" rx="23.6" ry="13.6"/>
			<ellipse id="Oval-28" class="st6" cx="31.5" cy="21.4" rx="21.4" ry="12.4"/>
			<ellipse id="Oval-29" class="st4" cx="31.5" cy="17.3" rx="19.4" ry="11.2"/>
			<ellipse id="Oval-30" class="st4" cx="31.5" cy="13.2" rx="16.8" ry="9.7"/>
			<ellipse id="Oval-31" class="st7" cx="31.5" cy="9.1" rx="13" ry="7.5"/>
			<ellipse id="Oval-32" class="st7" cx="31.5" cy="5.1" rx="7.5" ry="4.3"/>
		</g>
		<path id="Path-2" class="st3" d="M286.1,7.7h44"/>
		<g id="Group-7" transform="translate(-25)">
			<text transform="matrix(1 0 0 1 284.2848 73.363)" class="st0 st1">Racconto contenuto</text>
			<text transform="matrix(1 0 0 1 284.2848 84.363)" class="st0 st1">in più raccolte</text>
		</g>
	</g>
</g>
</svg>
