<?xml version="1.0" encoding="utf-8"?>
<!-- Generator: Adobe Illustrator 23.1.1, SVG Export Plug-In . SVG Version: 6.00 Build 0)  -->
<svg version="1.1" id="_x3C_Layer_x3E_" xmlns="http://www.w3.org/2000/svg" xmlns:xlink="http://www.w3.org/1999/xlink" x="0px"
	 y="0px" viewBox="0 0 262.1 132.1" style="enable-background:new 0 0 262.1 132.1;" xml:space="preserve">
<style type="text/css">
	.st0{font-family:'HKGrotesk-Regular';}
	.st1{font-size:10px;}
	.st2{fill:none;stroke:#444444;stroke-width:0.25;stroke-dasharray:1.9,1.9;}
	.st3{fill:none;stroke:#5151FC;stroke-width:2.6845;stroke-linejoin:round;}
	.st4{fill:none;stroke:#FF3366;stroke-width:2.7599;stroke-miterlimit:10;}
	.st5{fill:none;}
</style>
<g>
	<text transform="matrix(1 0 0 1 6.103516e-05 28.3164)" class="st0 st1">nebbia</text>
	<text transform="matrix(1 0 0 1 33.951 75.6865)" class="st0 st1">cancellazione</text>
	<g id="Group-3_3_" transform="translate(-32.86 47.62) rotate(-90)">
		<path id="Path-6_1_" class="st2" d="M21.2,73.6V63.1"/>
	</g>
	<g id="Group-3-2_1_" transform="translate(-17 -3)">
		<path id="Path-6-2_1_" class="st2" d="M79.7,70.3V49"/>
	</g>
	<g id="Ellipse_22_1_" transform="translate(-18)">
		<path id="Path_89_1_" class="st3" d="M65,39.7c-8.7-8.7-8.7-22.9,0-31.6s22.9-8.7,31.6,0l0,0"/>
		<path id="Path_90_1_" class="st4" d="M96.6,8.1c8.7,8.7,8.7,22.9,0,31.6s-22.9,8.7-31.6,0"/>
	</g>
	<rect x="0" y="0.1" class="st5" width="250.4" height="132"/>
	<rect x="94.1" y="3.5" class="st5" width="168" height="51.8"/>
	<text transform="matrix(1 0 0 1 94.0514 10.3707)"><tspan x="0" y="0" class="st0 st1">Proporzioni della presenza di nebbia </tspan><tspan x="0" y="12" class="st0 st1">numero di occorrenze all’interno del </tspan><tspan x="0" y="24" class="st0 st1">testo e cancellazione secondo il </tspan></text>
</g>
</svg>
