<?xml version="1.0" encoding="utf-8"?>
<!-- Generator: Adobe Illustrator 23.1.1, SVG Export Plug-In . SVG Version: 6.00 Build 0)  -->
<svg version="1.1" id="Layer_1" xmlns="http://www.w3.org/2000/svg" xmlns:xlink="http://www.w3.org/1999/xlink" x="0px" y="0px"
	 viewBox="0 0 158.7 77.1" style="enable-background:new 0 0 158.7 77.1;" xml:space="preserve">
<style type="text/css">
	.st0{fill:none;stroke:#444444;stroke-width:0.25;stroke-dasharray:1.9,1.9;}
	.st1{fill:none;stroke:#666666;stroke-width:2;}
	.st2{font-family:'HKGrotesk-Regular';}
	.st3{font-size:8px;}
	.st4{fill:none;stroke:#CCCCCC;stroke-width:2.5;}
	.st5{fill:none;stroke:#666666;stroke-width:2.5;}
	.st6{fill:#CCCCCC;stroke:#FFFFFF;stroke-width:0.5;}
	.st7{fill:#666666;stroke:#FFFFFF;stroke-width:0.5;}
	.st8{fill:none;stroke:#000000;stroke-width:0.25;}
	.st9{font-size:9px;}
</style>
<g id="Group_291" transform="translate(-0.617 0.848)">
	<line id="Line_131" class="st0" x1="22.3" y1="63.8" x2="22.3" y2="48"/>
	<line id="Line_104" class="st1" x1="48.1" y1="37.4" x2="65.3" y2="37.5"/>
	<text transform="matrix(1 0 0 1 2.4168 6.0378)" class="st2 st3">livello 1</text>
	<text transform="matrix(1 0 0 1 42.8008 6.0378)" class="st2 st3">2</text>
	<text transform="matrix(1 0 0 1 61.8787 6.0378)" class="st2 st3">3</text>
	<text transform="matrix(1 0 0 1 14.5228 70.6613)" class="st2 st3">luoghi</text>
	<path id="Path_74" class="st4" d="M29.7,45.1c-3.8,3.8-9.9,3.8-13.7,0c-3.8-3.8-3.8-9.9,0-13.7c3.8-3.8,9.9-3.8,13.7,0l0,0"/>
	<path id="Path_76" class="st1" d="M44.2,25.9c4.7,7.6,4.7,17.2,0,24.8"/>
	<path id="Path_77" class="st5" d="M43.9,25.8"/>
	<path id="Path_78" class="st1" d="M64.2,29.4c1.1,4.9,1.1,10.1,0,15"/>
	<path id="Path_79" class="st5" d="M29.7,31.4c3.8,3.8,3.8,9.9,0,13.7c0,0,0,0,0,0"/>
	<circle id="Ellipse_2" class="st6" cx="22.3" cy="28.5" r="1.4"/>
	<circle id="Ellipse_4" class="st6" cx="22.3" cy="48" r="1.4"/>
	<circle id="Ellipse_4-2" class="st6" cx="13.1" cy="38.9" r="1.4"/>
	<line id="Line_112" class="st1" x1="33" y1="37.3" x2="48.1" y2="37.4"/>
	<circle id="Ellipse_6" class="st7" cx="32.5" cy="37.5" r="1.4"/>
	<circle id="Ellipse_7" class="st7" cx="47.7" cy="37.4" r="1.4"/>
	<circle id="Ellipse_8" class="st6" cx="44.3" cy="50.7" r="1.4"/>
	<circle id="Ellipse_9" class="st7" cx="44.4" cy="25.9" r="1.4"/>
	<circle id="Ellipse_10" class="st6" cx="64.5" cy="29.8" r="1.4"/>
	<circle id="Ellipse_11" class="st7" cx="64.2" cy="44.3" r="1.4"/>
	<line id="Line_115" class="st8" x1="27" y1="26.4" x2="27" y2="7.8"/>
	<line id="Line_116" class="st8" x1="45.1" y1="22.9" x2="45.1" y2="7.8"/>
	<line id="Line_117" class="st8" x1="64.1" y1="26.9" x2="64.1" y2="7.8"/>
	<text transform="matrix(1 0 0 1 81.5458 9.0378)" class="st2 st9">Relazione </text>
	<text transform="matrix(1 0 0 1 81.5458 19.8377)" class="st2 st9">gerarchica dei </text>
	<text transform="matrix(1 0 0 1 81.5458 30.6377)" class="st2 st9">luoghi contengono.    </text>
</g>
</svg>
