<?xml version="1.0" encoding="utf-8"?>
<!-- Generator: Adobe Illustrator 23.1.1, SVG Export Plug-In . SVG Version: 6.00 Build 0)  -->
<svg version="1.1" id="Layer_1" xmlns="http://www.w3.org/2000/svg" xmlns:xlink="http://www.w3.org/1999/xlink" x="0px" y="0px"
	 viewBox="0 0 110 65.3" style="enable-background:new 0 0 110 65.3;" xml:space="preserve">
<style type="text/css">
	.st0{font-family:'HKGrotesk-Regular';}
	.st1{font-size:9px;}
	.st2{fill:#5151FC;stroke:#FFFFFF;stroke-width:0.25;stroke-linejoin:round;}
	.st3{fill:#FF3366;stroke:#FFFFFF;stroke-width:0.25;}
	.st4{fill:#00C19C;stroke:#FFFFFF;stroke-width:0.25;stroke-linejoin:round;}
	.st5{fill:#FFFFFF;stroke:#C6CACF;stroke-width:0.5;}
</style>
<g id="Group_241" transform="translate(-539.25 -609.25)">
	<text transform="matrix(1 0 0 1 558.6526 636.2)" class="st0 st1">Nebbia</text>
	<circle id="Oval" class="st2" cx="545.9" cy="632.9" r="6.2"/>
	<text transform="matrix(1 0 0 1 558.6516 653.2)" class="st0 st1">Cancellazione</text>
	<circle id="Oval-2" class="st3" cx="545.9" cy="650.9" r="6.2"/>
	<text transform="matrix(1 0 0 1 558.6516 670.2)" class="st0 st1">Nebbia + cancellazione</text>
	<text transform="matrix(1 0 0 1 558.6516 618.2)" class="st0 st1">senza occorrenze</text>
	<circle id="Oval-3" class="st4" cx="545.9" cy="667.9" r="6.2"/>
	<path id="Oval-4" class="st5" d="M545.9,609.7c3.4,0,6.2,2.8,6.2,6.2c0,3.4-2.8,6.2-6.2,6.2c-3.4,0-6.2-2.8-6.2-6.2c0,0,0,0,0,0
		C539.7,612.5,542.5,609.7,545.9,609.7z"/>
</g>
</svg>
