<?xml version="1.0" encoding="utf-8"?>
<!-- Generator: Adobe Illustrator 24.0.1, SVG Export Plug-In . SVG Version: 6.00 Build 0)  -->
<svg version="1.1" id="Livello_1" xmlns="http://www.w3.org/2000/svg" xmlns:xlink="http://www.w3.org/1999/xlink" x="0px" y="0px"
	 viewBox="0 0 70.4 78.1" style="enable-background:new 0 0 70.4 78.1;" xml:space="preserve">
<style type="text/css">
	.st0_svw7s9{fill:none;stroke:#444444;stroke-width:0.5;}
	.st1_svw7s9{fill:#444444;}
	.st2_svw7s9{font-family:'HKGrotesk-Regular';}
	.st3_svw7s9{font-size:10px;}
	.st4_svw7s9{fill:none;stroke:#444444;stroke-width:0.25;}
	.st5_svw7s9{fill:none;stroke:#444444;stroke-width:0.25;stroke-dasharray:1.9,1.9;}
	.st6_svw7s9{fill:#FFFFFF;}
	.st7_svw7s9{fill:none;stroke:#1A1A1A;stroke-width:0.5;}
</style>
<g id="Raggruppa_3999" transform="translate(-234.932 -40.643)">
	<g id="Raggruppa_3998" transform="translate(-17)">
		<g id="dimensione">
			<g id="dimensione-X">
				<g id="Group-7">
					<g id="Group">
						<path id="Path" class="st0_svw7s9" d="M303,99.9l-50.8,0.2"/>
						
							<rect id="Rectangle" x="302.7" y="98.3" transform="matrix(1 -3.001948e-03 3.001948e-03 1 -0.2987 0.9107)" class="st1_svw7s9" width="1" height="3.3"/>
						
							<rect id="Rectangle-2" x="252" y="98.5" transform="matrix(1 -3.106666e-03 3.106666e-03 1 -0.3099 0.7849)" class="st1_svw7s9" width="1" height="3.3"/>
					</g>
					<text transform="matrix(1 0 0 1 251.98 116.11)" class="st2_svw7s9 st3_svw7s9">lunghezza testo</text>
					<g id="Group-2">
						<path id="Path-2" class="st4_svw7s9" d="M303.5,98.9v-1"/>
						<path id="Path-3" class="st5_svw7s9" d="M303.5,96V74.1"/>
						<path id="Path-4" class="st4_svw7s9" d="M303.5,73.2v-1"/>
					</g>
					<g id="Group-3">
						<path id="Path-5" class="st4_svw7s9" d="M252.2,98.9v-1"/>
						<path id="Path-6" class="st5_svw7s9" d="M252.2,96V74.2"/>
						<path id="Path-7" class="st4_svw7s9" d="M252.2,73.2v-1"/>
					</g>
				</g>
			</g>
		</g>
		<g id="Ellipse_22">
			<circle id="Ellisse_32" class="st6_svw7s9" cx="278" cy="66.7" r="26"/>
			<circle id="Ellisse_33" class="st7_svw7s9" cx="278" cy="66.7" r="25.8"/>
		</g>
		<g id="Ellipse_23">
			<circle id="Ellisse_34" class="st6_svw7s9" cx="278.5" cy="73.2" r="19.5"/>
			<circle id="Ellisse_35" class="st7_svw7s9" cx="278.5" cy="73.2" r="19.2"/>
		</g>
		<g id="Ellipse_24">
			<circle id="Ellisse_36" class="st6_svw7s9" cx="278" cy="81.7" r="11"/>
			<circle id="Ellisse_37" class="st7_svw7s9" cx="278" cy="81.7" r="10.8"/>
		</g>
	</g>
</g>
</svg>
