<?xml version="1.0" encoding="utf-8"?>
<!-- Generator: Adobe Illustrator 25.0.0, SVG Export Plug-In . SVG Version: 6.00 Build 0)  -->
<svg version="1.1" id="Livello_1" xmlns="http://www.w3.org/2000/svg" xmlns:xlink="http://www.w3.org/1999/xlink" x="0px" y="0px"
	 viewBox="0 0 119 96.4" enable-background="new 0 0 119 96.4" xml:space="preserve">
<g id="Raggruppa_4036" transform="translate(163.199 400.058)">
	<g id="Group_285">
		<g id="Group_256" transform="translate(12 -32)">
			<path id="Path_97" fill="none" stroke="#5151FC" stroke-width="3.44" stroke-miterlimit="10" d="M-138.59999-277.60001
				c7.7-5.79999,10.8-15.79999,7.89999-25"/>
			<path id="Path_100" fill="none" stroke="#00C19C" stroke-width="3.44" stroke-miterlimit="10" d="M-172.10001-302.60001
				c-2.89999,9.20001,0.3,19.20001,7.90001,25"/>
			<path id="Path_101" fill="none" stroke="#FF6C39" stroke-width="3.44" stroke-miterlimit="10" d="M-164.3-277.60001
				c7.60001,5.70001,18,5.70001,25.60001,0"/>
			<path id="Path_102" fill="none" stroke="#BBBBFF" stroke-width="3.44" stroke-miterlimit="10" d="M-130.7-302.60001
				c-2.8-9.10001-11.2-15.29999-20.7-15.5"/>
			<path id="Path_103" fill="none" stroke="#FFA500" stroke-width="3.44" stroke-miterlimit="10" d="M-151.39999-318.10001
				c-9.5,0.20001-17.90001,6.39999-20.70001,15.5"/>
		</g>
	</g>
</g>
<rect x="1.3" y="3.10001" fill="none" width="106.90001" height="61.79999"/>
<g>
	<path d="M2.43945,3.11084h1.98828c1.47949,0,2.29883,0.69971,2.29883,1.94922c0,1.26904-0.8291,1.97852-2.29883,1.97852h-1.2793
		v3.03857H2.43945V3.11084z M4.3584,6.37939c1.08887,0,1.64844-0.4502,1.64844-1.30957S5.44727,3.77051,4.3584,3.77051H3.14844
		v2.60889H4.3584z"/>
	<path d="M10.98828,5.27979l-0.33984,0.55957c-0.23047-0.09961-0.44043-0.1499-0.65039-0.1499
		c-0.75879,0-1.31934,0.56982-1.31934,1.63916v2.74854H7.98926V5.1499h0.68945v0.73975
		c0.36035-0.6499,0.95996-0.81982,1.45996-0.81982C10.43848,5.06982,10.71777,5.12988,10.98828,5.27979z"/>
	<path d="M11.12891,7.6084c0-1.45898,0.9502-2.53857,2.35938-2.53857c1.39844,0,2.36816,1.07959,2.36816,2.53857
		c0,1.44922-0.95898,2.54883-2.36816,2.54883S11.12891,9.06787,11.12891,7.6084z M15.16699,7.6084
		c0-1.11914-0.62988-1.92871-1.67871-1.92871c-1.05957,0-1.66992,0.81934-1.66992,1.92871
		c0,1.11963,0.62012,1.93896,1.66992,1.93896C14.54688,9.54736,15.16699,8.70801,15.16699,7.6084z"/>
	<path d="M21.75684,7.6084c0,1.46924-0.75,2.54883-2.18848,2.54883c-0.71973,0-1.26953-0.27979-1.62988-0.73975v2.69873h-0.68945
		V5.1499h0.68945v0.65967c0.37012-0.47998,0.92969-0.74951,1.62988-0.74951C20.9375,5.06006,21.75684,6.06934,21.75684,7.6084z
		 M21.06738,7.6084c0-1.16943-0.59961-1.93896-1.59961-1.93896c-0.98926,0-1.58887,0.76953-1.58887,1.93896
		c0,1.11963,0.5498,1.93896,1.58887,1.93896C20.51758,9.54736,21.06738,8.72803,21.06738,7.6084z"/>
	<path d="M22.75879,7.6084c0-1.45898,0.9502-2.53857,2.35938-2.53857c1.39844,0,2.36816,1.07959,2.36816,2.53857
		c0,1.44922-0.95898,2.54883-2.36816,2.54883S22.75879,9.06787,22.75879,7.6084z M26.79688,7.6084
		c0-1.11914-0.62988-1.92871-1.67871-1.92871c-1.05957,0-1.66992,0.81934-1.66992,1.92871
		c0,1.11963,0.62012,1.93896,1.66992,1.93896C26.17676,9.54736,26.79688,8.70801,26.79688,7.6084z"/>
	<path d="M31.87793,5.27979l-0.33984,0.55957c-0.23047-0.09961-0.44043-0.1499-0.65039-0.1499
		c-0.75879,0-1.31836,0.56982-1.31836,1.63916v2.74854h-0.69043V5.1499h0.69043v0.73975
		c0.35938-0.6499,0.95898-0.81982,1.45898-0.81982C31.32812,5.06982,31.60742,5.12988,31.87793,5.27979z"/>
	<path d="M35.19727,10.02734c-0.25977,0.07959-0.51953,0.12988-0.74902,0.12988c-0.66016,0-1.13965-0.37012-1.13965-1.23926V5.72949
		h-0.81934V5.1499h0.81934V3.77051l0.68945-0.51953V5.1499h1.18945v0.57959h-1.18945v3.09814
		c0,0.47998,0.21973,0.69971,0.61035,0.69971c0.16992,0,0.35938-0.04004,0.5791-0.10986L35.19727,10.02734z"/>
	<path d="M36.44824,3.11084h0.7998v1.01953h-0.7998V3.11084z M36.50781,5.1499h0.69043v4.92725h-0.69043V5.1499z"/>
	<path d="M38.58887,7.6084c0-1.45898,0.9502-2.53857,2.35938-2.53857c1.39844,0,2.36816,1.07959,2.36816,2.53857
		c0,1.44922-0.95898,2.54883-2.36816,2.54883S38.58887,9.06787,38.58887,7.6084z M42.62695,7.6084
		c0-1.11914-0.62988-1.92871-1.67871-1.92871c-1.05957,0-1.66992,0.81934-1.66992,1.92871
		c0,1.11963,0.62012,1.93896,1.66992,1.93896C42.00684,9.54736,42.62695,8.70801,42.62695,7.6084z"/>
	<path d="M48.63574,7.05859v3.01855h-0.68945V7.22852c0-1.05908-0.33984-1.54883-1.0791-1.54883
		c-0.92969,0-1.46973,0.79932-1.46973,2.18848v2.20898h-0.68945V5.1499h0.68945v0.71973c0.32031-0.5,0.91992-0.7998,1.62988-0.7998
		C48.08691,5.06982,48.63574,5.74951,48.63574,7.05859z"/>
	<path d="M57.57617,7.6084c0,1.46924-0.75,2.54883-2.18848,2.54883c-0.71973,0-1.26953-0.27979-1.62891-0.73975v0.65967h-0.69043
		V3.11084h0.69043v2.69873c0.36914-0.47998,0.92871-0.74951,1.62891-0.74951C56.75684,5.06006,57.57617,6.06934,57.57617,7.6084z
		 M56.88672,7.6084c0-1.16943-0.59961-1.93896-1.59961-1.93896c-0.98926,0-1.58887,0.76953-1.58887,1.93896
		c0,1.11963,0.5498,1.93896,1.58887,1.93896C56.33691,9.54736,56.88672,8.72803,56.88672,7.6084z"/>
	<path d="M62.90625,7.79834h-3.6084c0.02051,1.07959,0.62012,1.729,1.58887,1.729c0.54004,0,0.96973-0.13965,1.41992-0.61963
		l0.47949,0.41992c-0.58008,0.60938-1.14941,0.82959-1.90918,0.82959c-1.49902,0-2.26855-1.11963-2.26855-2.51855
		c0-1.38965,0.75977-2.56885,2.18848-2.56885c1.50977,0,2.13867,1.1792,2.13867,2.29883
		C62.93555,7.50879,62.92578,7.67822,62.90625,7.79834z M59.29785,7.21875h2.97852c0-0.02002-0.00977-0.06982-0.00977-0.16016
		c-0.0498-0.79932-0.55957-1.40918-1.46973-1.40918C59.90723,5.64941,59.3584,6.34912,59.29785,7.21875z"/>
	<path d="M66.37695,10.02734c-0.25977,0.07959-0.51953,0.12988-0.74902,0.12988c-0.66016,0-1.13965-0.37012-1.13965-1.23926V5.72949
		h-0.81934V5.1499h0.81934V3.77051l0.68945-0.51953V5.1499h1.18945v0.57959h-1.18945v3.09814
		c0,0.47998,0.21973,0.69971,0.61035,0.69971c0.16992,0,0.35938-0.04004,0.5791-0.10986L66.37695,10.02734z"/>
	<path d="M67.15918,5.1499h0.73926l1.05957,3.8877l1.29883-3.8877h0.62988l1.28906,3.8877l1.06934-3.8877h0.72949l-1.43848,4.92725
		h-0.65039l-1.30859-3.97803l-1.3291,3.97803H68.6084L67.15918,5.1499z"/>
	<path d="M78.97656,7.79834h-3.6084c0.02051,1.07959,0.62012,1.729,1.58887,1.729c0.54004,0,0.96973-0.13965,1.41992-0.61963
		l0.47949,0.41992c-0.58008,0.60938-1.14941,0.82959-1.90918,0.82959c-1.49902,0-2.26855-1.11963-2.26855-2.51855
		c0-1.38965,0.75977-2.56885,2.18848-2.56885c1.50977,0,2.13867,1.1792,2.13867,2.29883
		C79.00586,7.50879,78.99609,7.67822,78.97656,7.79834z M75.36816,7.21875h2.97852c0-0.02002-0.00977-0.06982-0.00977-0.16016
		c-0.0498-0.79932-0.55957-1.40918-1.46973-1.40918C75.97754,5.64941,75.42871,6.34912,75.36816,7.21875z"/>
	<path d="M84.2959,7.79834h-3.6084c0.02051,1.07959,0.62012,1.729,1.58887,1.729c0.54004,0,0.96973-0.13965,1.41992-0.61963
		l0.47949,0.41992c-0.58008,0.60938-1.14941,0.82959-1.90918,0.82959c-1.49902,0-2.26855-1.11963-2.26855-2.51855
		c0-1.38965,0.75977-2.56885,2.18848-2.56885c1.50977,0,2.13867,1.1792,2.13867,2.29883
		C84.3252,7.50879,84.31543,7.67822,84.2959,7.79834z M80.6875,7.21875h2.97852c0-0.02002-0.00977-0.06982-0.00977-0.16016
		c-0.0498-0.79932-0.55957-1.40918-1.46973-1.40918C81.29688,5.64941,80.74805,6.34912,80.6875,7.21875z"/>
	<path d="M89.64551,7.05859v3.01855h-0.68945V7.22852c0-1.05908-0.33984-1.54883-1.0791-1.54883
		c-0.92969,0-1.46973,0.79932-1.46973,2.18848v2.20898h-0.68945V5.1499h0.68945v0.71973c0.32031-0.5,0.91992-0.7998,1.62988-0.7998
		C89.09668,5.06982,89.64551,5.74951,89.64551,7.05859z"/>
	<path d="M96.12598,10.02734c-0.25977,0.07959-0.51953,0.12988-0.74902,0.12988c-0.66016,0-1.13965-0.37012-1.13965-1.23926V5.72949
		h-0.81934V5.1499h0.81934V3.77051l0.68945-0.51953V5.1499h1.18945v0.57959h-1.18945v3.09814
		c0,0.47998,0.21973,0.69971,0.61035,0.69971c0.16992,0,0.35938-0.04004,0.5791-0.10986L96.12598,10.02734z"/>
	<path d="M101.36523,7.05859v3.01855h-0.68945V7.22852c0-1.06934-0.33984-1.54883-1.0791-1.54883
		c-0.93945,0-1.46875,0.76953-1.46875,2.12891v2.26855H97.4375V3.11084h0.69043v2.75879c0.31934-0.5,0.91895-0.7998,1.62891-0.7998
		C100.81641,5.06982,101.36523,5.74951,101.36523,7.05859z"/>
	<path d="M106.96582,7.79834h-3.6084c0.02051,1.07959,0.62012,1.729,1.58887,1.729c0.54004,0,0.96973-0.13965,1.41992-0.61963
		l0.47949,0.41992c-0.58008,0.60938-1.14941,0.82959-1.90918,0.82959c-1.49902,0-2.26855-1.11963-2.26855-2.51855
		c0-1.38965,0.75977-2.56885,2.18848-2.56885c1.50977,0,2.13867,1.1792,2.13867,2.29883
		C106.99512,7.50879,106.98535,7.67822,106.96582,7.79834z M103.35742,7.21875h2.97852c0-0.02002-0.00977-0.06982-0.00977-0.16016
		c-0.0498-0.79932-0.55957-1.40918-1.46973-1.40918C103.9668,5.64941,103.41797,6.34912,103.35742,7.21875z"/>
	<path d="M4.25781,22.02734c-0.25977,0.07959-0.51953,0.12988-0.74902,0.12988c-0.66016,0-1.13965-0.37012-1.13965-1.23926v-3.18848
		H1.5498V17.1499h0.81934v-1.37939l0.68945-0.51953v1.89893h1.18945v0.57959H3.05859v3.09814
		c0,0.47998,0.21973,0.69971,0.61035,0.69971c0.16992,0,0.35938-0.04004,0.5791-0.10986L4.25781,22.02734z"/>
	<path d="M6.97852,22.01709L4.88965,17.1499h0.75977l1.69922,4.05762l1.48926-4.05762h0.75977l-2.69922,6.96631H6.15918
		L6.97852,22.01709z"/>
	<path d="M15.22656,19.6084c0,1.46924-0.75,2.54883-2.18848,2.54883c-0.71973,0-1.26953-0.27979-1.62891-0.73975v2.69873h-0.69043
		V17.1499h0.69043v0.65967c0.36914-0.47998,0.92871-0.74951,1.62891-0.74951C14.40723,17.06006,15.22656,18.06934,15.22656,19.6084z
		 M14.53711,19.6084c0-1.16943-0.59961-1.93896-1.59961-1.93896c-0.98926,0-1.58887,0.76953-1.58887,1.93896
		c0,1.11963,0.5498,1.93896,1.58887,1.93896C13.9873,21.54736,14.53711,20.72803,14.53711,19.6084z"/>
	<path d="M20.55762,19.79834h-3.6084c0.02051,1.07959,0.62012,1.729,1.58887,1.729c0.54004,0,0.96973-0.13965,1.41992-0.61963
		l0.47949,0.41992c-0.58008,0.60938-1.14941,0.82959-1.90918,0.82959c-1.49902,0-2.26855-1.11963-2.26855-2.51855
		c0-1.38965,0.75977-2.56885,2.18848-2.56885c1.50977,0,2.13867,1.1792,2.13867,2.29883
		C20.58691,19.50879,20.57715,19.67822,20.55762,19.79834z M16.94922,19.21875h2.97852c0-0.02002-0.00977-0.06982-0.00977-0.16016
		c-0.0498-0.79932-0.55957-1.40918-1.46973-1.40918C17.55859,17.64941,17.00977,18.34912,16.94922,19.21875z"/>
	<path d="M21.44922,20.86768l0.5791-0.25977c0.18066,0.50977,0.66016,0.93945,1.42969,0.93945
		c0.66992,0,1.09961-0.32959,1.09961-0.84961c0-1.30908-2.83887-0.48975-2.83887-2.23877c0-0.85938,0.7002-1.38916,1.68945-1.38916
		c0.78906,0,1.42871,0.33008,1.76855,1.0293l-0.5498,0.2998c-0.23926-0.43945-0.62891-0.71924-1.23926-0.71924
		c-0.60938,0-0.99902,0.24951-0.99902,0.67969c0,1.16895,2.84863,0.42969,2.84863,2.29834
		c0,0.99951-0.81934,1.49951-1.76953,1.49951C22.49902,22.15723,21.70898,21.65723,21.44922,20.86768z"/>
	<path d="M28.93848,19.6084c0-1.45898,0.9502-2.53857,2.35938-2.53857c1.39844,0,2.36816,1.07959,2.36816,2.53857
		c0,1.44922-0.95898,2.54883-2.36816,2.54883S28.93848,21.06787,28.93848,19.6084z M32.97656,19.6084
		c0-1.11914-0.62988-1.92871-1.67871-1.92871c-1.05957,0-1.66992,0.81934-1.66992,1.92871
		c0,1.11963,0.62012,1.93896,1.66992,1.93896C32.35645,21.54736,32.97656,20.70801,32.97656,19.6084z"/>
	<path d="M35.3584,17.72949h-1.03906V17.1499h1.0498v-0.75977c0-1.04932,0.60938-1.35889,1.23926-1.35889
		c0.26953,0,0.56934,0.05957,0.87891,0.18945l-0.23926,0.5498c-0.20996-0.09961-0.40039-0.15967-0.57031-0.15967
		c-0.38965,0-0.62891,0.26953-0.62891,0.72949v0.80957h1.41895v0.57959h-1.41895v4.34766H35.3584V17.72949z"/>
	<path d="M41.23828,21.00781v-5.89697h0.69043v5.85693c0,0.33984,0.11914,0.55957,0.44922,0.55957
		c0.15039,0,0.32031-0.04004,0.46973-0.08984l0.00977,0.58984c-0.20996,0.06982-0.45898,0.12988-0.67969,0.12988
		C41.6084,22.15723,41.23828,21.77734,41.23828,21.00781z"/>
	<path d="M43.54883,19.6084c0-1.45898,0.9502-2.53857,2.35938-2.53857c1.39844,0,2.36816,1.07959,2.36816,2.53857
		c0,1.44922-0.95898,2.54883-2.36816,2.54883S43.54883,21.06787,43.54883,19.6084z M47.58691,19.6084
		c0-1.11914-0.62988-1.92871-1.67871-1.92871c-1.05957,0-1.66992,0.81934-1.66992,1.92871
		c0,1.11963,0.62012,1.93896,1.66992,1.93896C46.9668,21.54736,47.58691,20.70801,47.58691,19.6084z"/>
	<path d="M49.25879,19.62842c0-1.29932,0.72949-2.55859,2.21875-2.55859c0.87891,0,1.6084,0.43994,1.99902,1.35938l-0.66016,0.25977
		c-0.22949-0.62939-0.71973-1.00928-1.33887-1.00928c-1.0498,0-1.51953,0.93945-1.51953,1.94873
		c0,1.00977,0.46973,1.91895,1.5293,1.91895c0.62012,0,1.10938-0.36963,1.29883-0.99951l0.63965,0.24023
		c-0.3291,0.89941-1.04883,1.36914-1.93848,1.36914C50.05762,22.15723,49.25879,20.99756,49.25879,19.62842z"/>
	<path d="M58.36621,19.00879v3.06836H57.7373l-0.04004-0.75977c-0.38965,0.5498-0.99023,0.83984-1.76953,0.83984
		c-1.06934,0-1.69922-0.56006-1.69922-1.50928c0-0.49951,0.2002-0.87939,0.55957-1.09961
		c0.37988-0.21973,0.91016-0.30957,1.87891-0.30957h1.00977v-0.22998c0-0.85938-0.44922-1.3291-1.2793-1.3291
		c-0.61914,0-1.09961,0.26953-1.49902,0.81934l-0.5-0.41943c0.53027-0.68994,1.16992-1.00977,2.00879-1.00977
		C57.64648,17.06982,58.36621,17.7793,58.36621,19.00879z M57.67676,19.86816v-0.06982h-0.94922
		c-0.90918,0-1.2998,0.06006-1.53906,0.25c-0.17969,0.13965-0.27051,0.35986-0.27051,0.63965
		c0,0.5498,0.46973,0.89941,1.20996,0.89941C57.07715,21.5874,57.67676,20.91797,57.67676,19.86816z"/>
	<path d="M62.09668,22.02734c-0.25977,0.07959-0.51953,0.12988-0.74902,0.12988c-0.66016,0-1.13965-0.37012-1.13965-1.23926
		v-3.18848h-0.81934V17.1499h0.81934v-1.37939l0.68945-0.51953v1.89893h1.18945v0.57959h-1.18945v3.09814
		c0,0.47998,0.21973,0.69971,0.61035,0.69971c0.16992,0,0.35938-0.04004,0.5791-0.10986L62.09668,22.02734z"/>
	<path d="M63.34863,15.11084h0.7998v1.01953h-0.7998V15.11084z M63.4082,17.1499h0.69043v4.92725H63.4082V17.1499z"/>
	<path d="M65.48828,19.6084c0-1.45898,0.9502-2.53857,2.35938-2.53857c1.39844,0,2.36816,1.07959,2.36816,2.53857
		c0,1.44922-0.95898,2.54883-2.36816,2.54883S65.48828,21.06787,65.48828,19.6084z M69.52637,19.6084
		c0-1.11914-0.62988-1.92871-1.67871-1.92871c-1.05957,0-1.66992,0.81934-1.66992,1.92871
		c0,1.11963,0.62012,1.93896,1.66992,1.93896C68.90625,21.54736,69.52637,20.70801,69.52637,19.6084z"/>
	<path d="M75.53516,19.05859v3.01855H74.8457v-2.84863c0-1.05908-0.33984-1.54883-1.0791-1.54883
		c-0.92969,0-1.46875,0.79932-1.46875,2.18848v2.20898h-0.69043V17.1499h0.69043v0.71973c0.31934-0.5,0.91895-0.7998,1.62891-0.7998
		C74.98633,17.06982,75.53516,17.74951,75.53516,19.05859z"/>
	<path d="M79.9082,15.11084h0.7998v1.01953h-0.7998V15.11084z M79.96777,17.1499h0.68945v4.92725h-0.68945V17.1499z"/>
	<path d="M86.40527,19.05859v3.01855h-0.68945v-2.84863c0-1.05908-0.33984-1.54883-1.0791-1.54883
		c-0.92969,0-1.46973,0.79932-1.46973,2.18848v2.20898h-0.68945V17.1499h0.68945v0.71973c0.32031-0.5,0.91992-0.7998,1.62988-0.7998
		C85.85645,17.06982,86.40527,17.74951,86.40527,19.05859z"/>
	<path d="M92.88574,22.02734c-0.25977,0.07959-0.51953,0.12988-0.74902,0.12988c-0.66016,0-1.13965-0.37012-1.13965-1.23926
		v-3.18848h-0.81934V17.1499h0.81934v-1.37939l0.68945-0.51953v1.89893h1.18945v0.57959h-1.18945v3.09814
		c0,0.47998,0.21973,0.69971,0.61035,0.69971c0.16992,0,0.35938-0.04004,0.5791-0.10986L92.88574,22.02734z"/>
	<path d="M98.125,19.05859v3.01855h-0.68945v-2.84863c0-1.06934-0.33984-1.54883-1.0791-1.54883
		c-0.93945,0-1.46875,0.76953-1.46875,2.12891v2.26855h-0.69043v-6.96631h0.69043v2.75879
		c0.31934-0.5,0.91895-0.7998,1.62891-0.7998C97.57617,17.06982,98.125,17.74951,98.125,19.05859z"/>
	<path d="M103.72559,19.79834h-3.6084c0.02051,1.07959,0.62012,1.729,1.58887,1.729c0.54004,0,0.96973-0.13965,1.41992-0.61963
		l0.47949,0.41992c-0.58008,0.60938-1.14941,0.82959-1.90918,0.82959c-1.49902,0-2.26855-1.11963-2.26855-2.51855
		c0-1.38965,0.75977-2.56885,2.18848-2.56885c1.50977,0,2.13867,1.1792,2.13867,2.29883
		C103.75488,19.50879,103.74512,19.67822,103.72559,19.79834z M100.11719,19.21875h2.97852
		c0-0.02002-0.00977-0.06982-0.00977-0.16016c-0.0498-0.79932-0.55957-1.40918-1.46973-1.40918
		C100.72656,17.64941,100.17773,18.34912,100.11719,19.21875z"/>
	<path d="M5.60742,34.07715H4.91797v-4.34766H3.00879v4.34766H2.31934v-4.34766H1.46973V29.1499h0.84961V28.75
		c0-1.16943,0.78906-1.71875,1.75879-1.71875c0.59961,0,1.0791,0.15967,1.5293,0.46973l-0.33008,0.47949
		c-0.3291-0.23975-0.68945-0.37988-1.16895-0.37988c-0.70996,0-1.09961,0.3501-1.09961,1.15967v0.38965h2.59863V34.07715z"/>
	<path d="M10.37793,29.27979l-0.33984,0.55957c-0.23047-0.09961-0.44043-0.1499-0.65039-0.1499
		c-0.75879,0-1.31836,0.56982-1.31836,1.63916v2.74854H7.37891V29.1499h0.69043v0.73975
		c0.35938-0.6499,0.95898-0.81982,1.45898-0.81982C9.82812,29.06982,10.10742,29.12988,10.37793,29.27979z"/>
	<path d="M10.56934,32.86768l0.58008-0.25977c0.17969,0.50977,0.65918,0.93945,1.42871,0.93945
		c0.66992,0,1.09961-0.32959,1.09961-0.84961c0-1.30908-2.83887-0.48975-2.83887-2.23877c0-0.85938,0.7002-1.38916,1.68945-1.38916
		c0.78906,0,1.42871,0.33008,1.76855,1.0293l-0.5498,0.2998c-0.23926-0.43945-0.62891-0.71924-1.23926-0.71924
		c-0.60938,0-0.99902,0.24951-0.99902,0.67969c0,1.16895,2.84863,0.42969,2.84863,2.29834
		c0,0.99951-0.81934,1.49951-1.76953,1.49951C11.61914,34.15723,10.8291,33.65723,10.56934,32.86768z"/>
	<path d="M17.80762,34.02734c-0.25977,0.07959-0.51953,0.12988-0.74902,0.12988c-0.66016,0-1.13965-0.37012-1.13965-1.23926
		v-3.18848h-0.81934V29.1499h0.81934v-1.37939l0.68945-0.51953v1.89893h1.18945v0.57959H16.6084v3.09814
		c0,0.47998,0.21973,0.69971,0.61035,0.69971c0.16992,0,0.35938-0.04004,0.5791-0.10986L17.80762,34.02734z"/>
	<path d="M21.31934,32.86768l0.58008-0.25977c0.17969,0.50977,0.65918,0.93945,1.42871,0.93945
		c0.66992,0,1.09961-0.32959,1.09961-0.84961c0-1.30908-2.83887-0.48975-2.83887-2.23877c0-0.85938,0.7002-1.38916,1.68945-1.38916
		c0.78906,0,1.42871,0.33008,1.76855,1.0293l-0.5498,0.2998c-0.23926-0.43945-0.62891-0.71924-1.23926-0.71924
		c-0.60938,0-0.99902,0.24951-0.99902,0.67969c0,1.16895,2.84863,0.42969,2.84863,2.29834
		c0,0.99951-0.81934,1.49951-1.76953,1.49951C22.36914,34.15723,21.5791,33.65723,21.31934,32.86768z"/>
	<path d="M31.0166,31.6084c0,1.46924-0.75,2.54883-2.18848,2.54883c-0.71973,0-1.26953-0.27979-1.62988-0.73975v2.69873h-0.68945
		V29.1499h0.68945v0.65967c0.37012-0.47998,0.92969-0.74951,1.62988-0.74951C30.19727,29.06006,31.0166,30.06934,31.0166,31.6084z
		 M30.32715,31.6084c0-1.16943-0.59961-1.93896-1.59961-1.93896c-0.98926,0-1.58887,0.76953-1.58887,1.93896
		c0,1.11963,0.5498,1.93896,1.58887,1.93896C29.77734,33.54736,30.32715,32.72803,30.32715,31.6084z"/>
	<path d="M36.11621,31.00879v3.06836H35.4873l-0.04004-0.75977c-0.38965,0.5498-0.99023,0.83984-1.76953,0.83984
		c-1.06934,0-1.69922-0.56006-1.69922-1.50928c0-0.49951,0.2002-0.87939,0.55957-1.09961
		c0.37988-0.21973,0.91016-0.30957,1.87891-0.30957h1.00977v-0.22998c0-0.85938-0.44922-1.3291-1.2793-1.3291
		c-0.61914,0-1.09961,0.26953-1.49902,0.81934l-0.5-0.41943c0.53027-0.68994,1.16992-1.00977,2.00879-1.00977
		C35.39648,29.06982,36.11621,29.7793,36.11621,31.00879z M35.42676,31.86816v-0.06982h-0.94922
		c-0.90918,0-1.2998,0.06006-1.53906,0.25c-0.17969,0.13965-0.27051,0.35986-0.27051,0.63965
		c0,0.5498,0.46973,0.89941,1.20996,0.89941C34.82715,33.5874,35.42676,32.91797,35.42676,31.86816z"/>
	<path d="M39.84766,34.02734c-0.25977,0.07959-0.51953,0.12988-0.74902,0.12988c-0.66016,0-1.13965-0.37012-1.13965-1.23926
		v-3.18848h-0.81934V29.1499h0.81934v-1.37939l0.68945-0.51953v1.89893h1.18945v0.57959h-1.18945v3.09814
		c0,0.47998,0.21973,0.69971,0.61035,0.69971c0.16992,0,0.35938-0.04004,0.5791-0.10986L39.84766,34.02734z"/>
	<path d="M41.09863,27.11084h0.7998v1.01953h-0.7998V27.11084z M41.1582,29.1499h0.69043v4.92725H41.1582V29.1499z"/>
	<path d="M47.33594,31.00879v3.06836h-0.62891l-0.04004-0.75977c-0.39062,0.5498-0.99023,0.83984-1.76953,0.83984
		c-1.06934,0-1.69922-0.56006-1.69922-1.50928c0-0.49951,0.2002-0.87939,0.55957-1.09961
		c0.37988-0.21973,0.91016-0.30957,1.87988-0.30957h1.00879v-0.22998c0-0.85938-0.44922-1.3291-1.2793-1.3291
		c-0.61914,0-1.09961,0.26953-1.49902,0.81934l-0.5-0.41943c0.53027-0.68994,1.16992-1.00977,2.00879-1.00977
		C46.61621,29.06982,47.33594,29.7793,47.33594,31.00879z M46.64648,31.86816v-0.06982h-0.94922
		c-0.90918,0-1.2998,0.06006-1.53906,0.25c-0.17969,0.13965-0.27051,0.35986-0.27051,0.63965
		c0,0.5498,0.4707,0.89941,1.20996,0.89941C46.04688,33.5874,46.64648,32.91797,46.64648,31.86816z"/>
	<path d="M48.97852,33.00781v-5.89697h0.69043v5.85693c0,0.33984,0.11914,0.55957,0.44922,0.55957
		c0.15039,0,0.32031-0.04004,0.46973-0.08984l0.00977,0.58984c-0.20996,0.06982-0.45898,0.12988-0.67969,0.12988
		C49.34863,34.15723,48.97852,33.77734,48.97852,33.00781z"/>
	<path d="M54.4082,33.00781v-5.89697h0.69043v5.85693c0,0.33984,0.11914,0.55957,0.44922,0.55957
		c0.15039,0,0.32031-0.04004,0.46973-0.08984l0.00977,0.58984c-0.20996,0.06982-0.45898,0.12988-0.67969,0.12988
		C54.77832,34.15723,54.4082,33.77734,54.4082,33.00781z"/>
	<path d="M61.04688,31.79834h-3.6084c0.02051,1.07959,0.62012,1.729,1.58887,1.729c0.54004,0,0.96973-0.13965,1.41992-0.61963
		l0.47949,0.41992c-0.58008,0.60938-1.14941,0.82959-1.90918,0.82959c-1.49902,0-2.26855-1.11963-2.26855-2.51855
		c0-1.38965,0.75977-2.56885,2.18848-2.56885c1.50977,0,2.13867,1.1792,2.13867,2.29883
		C61.07617,31.50879,61.06641,31.67822,61.04688,31.79834z M57.43848,31.21875h2.97852c0-0.02002-0.00977-0.06982-0.00977-0.16016
		c-0.0498-0.79932-0.55957-1.40918-1.46973-1.40918C58.04785,29.64941,57.49902,30.34912,57.43848,31.21875z"/>
	<path d="M61.75879,29.1499h0.74902l1.5498,4.04785l1.55859-4.04785h0.75977l-2.01855,4.92725h-0.58984L61.75879,29.1499z"/>
	<path d="M71.23633,31.79834h-3.6084c0.02051,1.07959,0.62012,1.729,1.58887,1.729c0.54004,0,0.96973-0.13965,1.41992-0.61963
		l0.47949,0.41992c-0.58008,0.60938-1.14941,0.82959-1.90918,0.82959c-1.49902,0-2.26855-1.11963-2.26855-2.51855
		c0-1.38965,0.75977-2.56885,2.18848-2.56885c1.50977,0,2.13867,1.1792,2.13867,2.29883
		C71.26562,31.50879,71.25586,31.67822,71.23633,31.79834z M67.62793,31.21875h2.97852c0-0.02002-0.00977-0.06982-0.00977-0.16016
		c-0.0498-0.79932-0.55957-1.40918-1.46973-1.40918C68.2373,29.64941,67.68848,30.34912,67.62793,31.21875z"/>
	<path d="M72.61816,33.00781v-5.89697h0.69043v5.85693c0,0.33984,0.11914,0.55957,0.44922,0.55957
		c0.15039,0,0.32031-0.04004,0.46973-0.08984l0.00977,0.58984c-0.20996,0.06982-0.45898,0.12988-0.67969,0.12988
		C72.98828,34.15723,72.61816,33.77734,72.61816,33.00781z"/>
</g>
</svg>
