<?xml version="1.0" encoding="utf-8"?>
<!-- Generator: Adobe Illustrator 25.1.0, SVG Export Plug-In . SVG Version: 6.00 Build 0)  -->
<svg version="1.1" id="Livello_1" xmlns="http://www.w3.org/2000/svg" xmlns:xlink="http://www.w3.org/1999/xlink" x="0px" y="0px"
	 viewBox="0 0 145 115.8" style="enable-background:new 0 0 145 115.8;" xml:space="preserve">
<style type="text/css">
	.st0{fill:none;stroke:#444444;stroke-width:0.393;stroke-dasharray:2.986,2.986;}
	.st1{fill:none;stroke:#666666;stroke-width:3.44;}
	.st2{fill:none;stroke:#CCCCCC;stroke-width:3.44;}
	.st3{fill:none;stroke:#666666;stroke-width:3.929;}
	.st4{fill:#CCCCCC;stroke:#FFFFFF;stroke-width:1.2;}
	.st5{fill:#666666;stroke:#FFFFFF;stroke-width:1.2;}
	.st6{fill:none;stroke:#000000;stroke-width:0.393;}
</style>
<line id="Line_131" class="st0" x1="28.1" y1="105.6" x2="28.1" y2="87.9"/>
<line id="Line_104" class="st1" x1="68" y1="71.7" x2="95.1" y2="71.8"/>
<path id="Path_74" class="st2" d="M39.1,83.3c-5.9,5.9-15.6,5.9-21.5,0s-5.9-15.6,0-21.5s15.6-5.9,21.5,0l0,0"/>
<path id="Path_76" class="st1" d="M64.1,56.7c4.4,9.8,4.4,21-0.1,30.7"/>
<path id="Path_77" class="st3" d="M61.4,53"/>
<path id="Path_78" class="st1" d="M93.3,60.2C95,68,95,76,93.3,83.8"/>
<path id="Path_79" class="st1" d="M39.1,61.8c5.9,5.9,6,15.5,0.1,21.5c0,0,0,0-0.1,0.1l0,0"/>
<ellipse id="Ellipse_2" class="st4" cx="28.1" cy="57.3" rx="2.6" ry="2.6"/>
<ellipse id="Ellipse_4" class="st4" cx="28.1" cy="87.9" rx="2.6" ry="2.6"/>
<ellipse id="Ellipse_4-2" class="st4" cx="13" cy="71.3" rx="2.6" ry="2.6"/>
<line id="Line_112" class="st1" x1="44.3" y1="71.5" x2="68" y2="71.7"/>
<ellipse id="Ellipse_6" class="st5" cx="43.5" cy="71.3" rx="2.6" ry="2.6"/>
<ellipse id="Ellipse_7" class="st5" cx="67.4" cy="71.8" rx="2.6" ry="2.6"/>
<ellipse id="Ellipse_8" transform="matrix(0.9985 -5.530030e-02 5.530030e-02 0.9985 -4.7653 3.6781)" class="st4" cx="64.1" cy="87.9" rx="2.6" ry="2.6"/>
<ellipse id="Ellipse_9" transform="matrix(0.9985 -5.530030e-02 5.530030e-02 0.9985 -3.0731 3.6313)" class="st5" cx="64.1" cy="57.3" rx="2.6" ry="2.6"/>
<ellipse id="Ellipse_10" class="st4" cx="93.8" cy="59.3" rx="2.6" ry="2.6"/>
<ellipse id="Ellipse_11" class="st5" cx="93.3" cy="82.1" rx="2.6" ry="2.6"/>
<path id="Line_115" class="st6" d="M20.3,54.7V36.8"/>
<line id="Line_116" class="st6" x1="64.2" y1="53" x2="64.2" y2="36.6"/>
<line id="Line_117" class="st6" x1="93.8" y1="54.7" x2="93.8" y2="36.6"/>
<g>
	<path d="M1.1,3.2h0.7v6.3H5v0.7H1.1L1.1,3.2L1.1,3.2z"/>
	<path d="M5.8,7.7c0-1.5,1-2.5,2.4-2.5c1.4,0,2.4,1.1,2.4,2.5c0,1.4-1,2.5-2.4,2.5S5.8,9.1,5.8,7.7z M9.8,7.7c0-1.1-0.6-1.9-1.7-1.9
		c-1.1,0-1.7,0.8-1.7,1.9c0,1.1,0.6,1.9,1.7,1.9C9.2,9.6,9.8,8.8,9.8,7.7z"/>
	<path d="M11.5,7.7c0-1.3,0.7-2.6,2.2-2.6c0.9,0,1.6,0.4,2,1.4l-0.7,0.3c-0.2-0.6-0.7-1-1.3-1c-1,0-1.5,0.9-1.5,1.9
		c0,1,0.5,1.9,1.5,1.9c0.6,0,1.1-0.4,1.3-1l0.6,0.2c-0.3,0.9-1,1.4-1.9,1.4C12.3,10.2,11.5,9.1,11.5,7.7z"/>
	<path d="M20.6,7.1v3.1H20l0-0.8c-0.4,0.5-1,0.8-1.8,0.8c-1.1,0-1.7-0.6-1.7-1.5c0-0.5,0.2-0.9,0.6-1.1c0.4-0.2,0.9-0.3,1.9-0.3h1
		V7.1c0-0.9-0.4-1.3-1.3-1.3c-0.6,0-1.1,0.3-1.5,0.8l-0.5-0.4c0.5-0.7,1.2-1,2-1C19.9,5.1,20.6,5.8,20.6,7.1z M19.9,7.9L19.9,7.9
		L19,7.9c-0.9,0-1.3,0.1-1.5,0.2c-0.2,0.1-0.3,0.4-0.3,0.6c0,0.5,0.5,0.9,1.2,0.9C19.3,9.7,19.9,9,19.9,7.9z"/>
	<path d="M24.3,10.1c-0.3,0.1-0.5,0.1-0.7,0.1c-0.7,0-1.1-0.4-1.1-1.2V5.8h-0.8V5.2h0.8V3.8l0.7-0.5v1.9h1.2v0.6h-1.2v3.1
		c0,0.5,0.2,0.7,0.6,0.7c0.2,0,0.4,0,0.6-0.1L24.3,10.1z"/>
	<path d="M25.6,3.2h0.8v1h-0.8V3.2z M25.7,5.2h0.7v4.9h-0.7V5.2z"/>
	<path d="M27.7,7.7c0-1.5,1-2.5,2.4-2.5c1.4,0,2.4,1.1,2.4,2.5c0,1.4-1,2.5-2.4,2.5S27.7,9.1,27.7,7.7z M31.8,7.7
		c0-1.1-0.6-1.9-1.7-1.9c-1.1,0-1.7,0.8-1.7,1.9c0,1.1,0.6,1.9,1.7,1.9C31.2,9.6,31.8,8.8,31.8,7.7z"/>
	<path d="M37.8,7.1v3h-0.7V7.3c0-1.1-0.3-1.5-1.1-1.5c-0.9,0-1.5,0.8-1.5,2.2v2.2h-0.7V5.2h0.7v0.7c0.3-0.5,0.9-0.8,1.6-0.8
		C37.2,5.1,37.8,5.8,37.8,7.1z"/>
	<path d="M39,8.9l0.6-0.3c0.2,0.5,0.7,0.9,1.4,0.9c0.7,0,1.1-0.3,1.1-0.8c0-1.3-2.8-0.5-2.8-2.2c0-0.9,0.7-1.4,1.7-1.4
		c0.8,0,1.4,0.3,1.8,1l-0.5,0.3c-0.2-0.4-0.6-0.7-1.2-0.7c-0.6,0-1,0.2-1,0.7c0,1.2,2.8,0.4,2.8,2.3c0,1-0.8,1.5-1.8,1.5
		C40,10.2,39.2,9.7,39,8.9z"/>
	<path d="M46.8,3.2h0.8v1h-0.8V3.2z M46.9,5.2h0.7v4.9h-0.7V5.2z"/>
	<path d="M53.3,7.1v3h-0.7V7.3c0-1.1-0.3-1.5-1.1-1.5c-0.9,0-1.5,0.8-1.5,2.2v2.2h-0.7V5.2h0.7v0.7c0.3-0.5,0.9-0.8,1.6-0.8
		C52.8,5.1,53.3,5.8,53.3,7.1z"/>
	<path d="M54.5,8.9l0.6-0.3c0.2,0.5,0.7,0.9,1.4,0.9c0.7,0,1.1-0.3,1.1-0.8c0-1.3-2.8-0.5-2.8-2.2c0-0.9,0.7-1.4,1.7-1.4
		c0.8,0,1.4,0.3,1.8,1l-0.5,0.3C57.4,6,57,5.7,56.4,5.7c-0.6,0-1,0.2-1,0.7c0,1.2,2.8,0.4,2.8,2.3c0,1-0.8,1.5-1.8,1.5
		C55.5,10.2,54.7,9.7,54.5,8.9z"/>
	<path d="M59.6,3.2h0.8v1h-0.8V3.2z M59.7,5.2h0.7v4.9h-0.7V5.2z"/>
	<path d="M66.3,3.2v7h-0.7V9.5c-0.4,0.5-0.9,0.7-1.6,0.7c-1.4,0-2.2-1.1-2.2-2.5c0-1.5,0.8-2.5,2.2-2.5c0.7,0,1.3,0.3,1.6,0.7V3.2
		H66.3z M65.7,7.7c0-1.2-0.6-1.9-1.6-1.9c-1,0-1.6,0.8-1.6,1.9c0,1.1,0.5,1.9,1.6,1.9C65.1,9.6,65.7,8.8,65.7,7.7z"/>
	<path d="M72,7.9h-3.6c0,1.1,0.6,1.7,1.6,1.7c0.5,0,1-0.1,1.4-0.6l0.5,0.4c-0.6,0.6-1.1,0.8-1.9,0.8c-1.5,0-2.3-1.1-2.3-2.5
		c0-1.4,0.8-2.6,2.2-2.6c1.5,0,2.1,1.2,2.1,2.3C72.1,7.6,72,7.7,72,7.9z M68.4,7.3h3c0,0,0-0.1,0-0.2c0-0.8-0.6-1.4-1.5-1.4
		C69,5.7,68.5,6.4,68.4,7.3z"/>
	<path d="M75.7,7.7c0-1.5,1-2.5,2.4-2.5c1.4,0,2.4,1.1,2.4,2.5c0,1.4-1,2.5-2.4,2.5S75.7,9.1,75.7,7.7z M79.8,7.7
		c0-1.1-0.6-1.9-1.7-1.9c-1.1,0-1.7,0.8-1.7,1.9c0,1.1,0.6,1.9,1.7,1.9C79.2,9.6,79.8,8.8,79.8,7.7z"/>
	<path d="M83.9,10.1c-0.3,0.1-0.5,0.1-0.7,0.1C82.5,10.2,82,9.9,82,9V5.8h-0.8V5.2H82V3.8l0.7-0.5v1.9h1.2v0.6h-1.2v3.1
		c0,0.5,0.2,0.7,0.6,0.7c0.2,0,0.4,0,0.6-0.1L83.9,10.1z"/>
	<path d="M89.1,7.1v3h-0.7V7.3c0-1.1-0.3-1.5-1.1-1.5c-0.9,0-1.5,0.8-1.5,2.1v2.3h-0.7v-7h0.7v2.8c0.3-0.5,0.9-0.8,1.6-0.8
		C88.6,5.1,89.1,5.8,89.1,7.1z"/>
	<path d="M94.7,7.9h-3.6c0,1.1,0.6,1.7,1.6,1.7c0.5,0,1-0.1,1.4-0.6l0.5,0.4c-0.6,0.6-1.1,0.8-1.9,0.8c-1.5,0-2.3-1.1-2.3-2.5
		c0-1.4,0.8-2.6,2.2-2.6c1.5,0,2.1,1.2,2.1,2.3C94.7,7.6,94.7,7.7,94.7,7.9z M91.1,7.3h3c0,0,0-0.1,0-0.2c0-0.8-0.6-1.4-1.5-1.4
		C91.7,5.7,91.2,6.4,91.1,7.3z"/>
	<path d="M99.1,5.3l-0.3,0.6c-0.2-0.1-0.4-0.1-0.7-0.1c-0.8,0-1.3,0.6-1.3,1.6v2.7h-0.7V5.2h0.7V6c0.4-0.6,1-0.8,1.5-0.8
		C98.6,5.1,98.9,5.2,99.1,5.3z"/>
	<path d="M102.8,9.1V3.2h0.7V9c0,0.3,0.1,0.6,0.4,0.6c0.2,0,0.3,0,0.5-0.1l0,0.6c-0.2,0.1-0.5,0.1-0.7,0.1
		C103.2,10.2,102.8,9.8,102.8,9.1z"/>
	<path d="M105.1,7.7c0-1.5,1-2.5,2.4-2.5c1.4,0,2.4,1.1,2.4,2.5c0,1.4-1,2.5-2.4,2.5S105.1,9.1,105.1,7.7z M109.2,7.7
		c0-1.1-0.6-1.9-1.7-1.9c-1.1,0-1.7,0.8-1.7,1.9c0,1.1,0.6,1.9,1.7,1.9C108.6,9.6,109.2,8.8,109.2,7.7z"/>
	<path d="M110.9,7.7c0-1.3,0.7-2.6,2.2-2.6c0.9,0,1.6,0.4,2,1.4l-0.7,0.3c-0.2-0.6-0.7-1-1.3-1c-1,0-1.5,0.9-1.5,1.9
		c0,1,0.5,1.9,1.5,1.9c0.6,0,1.1-0.4,1.3-1l0.6,0.2c-0.3,0.9-1,1.4-1.9,1.4C111.7,10.2,110.9,9.1,110.9,7.7z"/>
	<path d="M120,7.1v3.1h-0.6l0-0.8c-0.4,0.5-1,0.8-1.8,0.8c-1.1,0-1.7-0.6-1.7-1.5c0-0.5,0.2-0.9,0.6-1.1c0.4-0.2,0.9-0.3,1.9-0.3h1
		V7.1c0-0.9-0.4-1.3-1.3-1.3c-0.6,0-1.1,0.3-1.5,0.8L116,6.1c0.5-0.7,1.2-1,2-1C119.2,5.1,120,5.8,120,7.1z M119.3,7.9L119.3,7.9
		l-0.9-0.1c-0.9,0-1.3,0.1-1.5,0.2c-0.2,0.1-0.3,0.4-0.3,0.6c0,0.5,0.5,0.9,1.2,0.9C118.7,9.7,119.3,9,119.3,7.9z"/>
	<path d="M123.7,10.1c-0.3,0.1-0.5,0.1-0.7,0.1c-0.7,0-1.1-0.4-1.1-1.2V5.8H121V5.2h0.8V3.8l0.7-0.5v1.9h1.2v0.6h-1.2v3.1
		c0,0.5,0.2,0.7,0.6,0.7c0.2,0,0.4,0,0.6-0.1L123.7,10.1z"/>
	<path d="M124.9,3.2h0.8v1h-0.8V3.2z M125,5.2h0.7v4.9H125V5.2z"/>
	<path d="M127.1,7.7c0-1.5,1-2.5,2.4-2.5c1.4,0,2.4,1.1,2.4,2.5c0,1.4-1,2.5-2.4,2.5S127.1,9.1,127.1,7.7z M131.1,7.7
		c0-1.1-0.6-1.9-1.7-1.9c-1.1,0-1.7,0.8-1.7,1.9c0,1.1,0.6,1.9,1.7,1.9C130.5,9.6,131.1,8.8,131.1,7.7z"/>
	<path d="M137.1,7.1v3h-0.7V7.3c0-1.1-0.3-1.5-1.1-1.5c-0.9,0-1.5,0.8-1.5,2.2v2.2h-0.7V5.2h0.7v0.7c0.3-0.5,0.9-0.8,1.6-0.8
		C136.6,5.1,137.1,5.8,137.1,7.1z"/>
	<path d="M138.3,8.9l0.6-0.3c0.2,0.5,0.7,0.9,1.4,0.9c0.7,0,1.1-0.3,1.1-0.8c0-1.3-2.8-0.5-2.8-2.2c0-0.9,0.7-1.4,1.7-1.4
		c0.8,0,1.4,0.3,1.8,1l-0.5,0.3c-0.2-0.4-0.6-0.7-1.2-0.7c-0.6,0-1,0.2-1,0.7c0,1.2,2.8,0.4,2.8,2.3c0,1-0.8,1.5-1.8,1.5
		C139.4,10.2,138.6,9.7,138.3,8.9z"/>
</g>
<g>
	<path d="M6.8,26.5h0.7v6.3h3.2v0.7H6.8C6.8,33.4,6.8,26.5,6.8,26.5z"/>
	<path d="M15.8,31.2h-3.6c0,1.1,0.6,1.7,1.6,1.7c0.5,0,1-0.1,1.4-0.6l0.5,0.4c-0.6,0.6-1.1,0.8-1.9,0.8c-1.5,0-2.3-1.1-2.3-2.5
		c0-1.4,0.8-2.6,2.2-2.6c1.5,0,2.1,1.2,2.1,2.3C15.8,30.9,15.8,31,15.8,31.2z M12.2,30.6h3c0,0,0-0.1,0-0.2c0-0.8-0.6-1.4-1.5-1.4
		C12.8,29,12.3,29.7,12.2,30.6z"/>
	<path d="M16.5,28.5h0.7l1.5,4l1.6-4h0.8l-2,4.9h-0.6L16.5,28.5z"/>
	<path d="M26,31.2h-3.6c0,1.1,0.6,1.7,1.6,1.7c0.5,0,1-0.1,1.4-0.6l0.5,0.4c-0.6,0.6-1.1,0.8-1.9,0.8c-1.5,0-2.3-1.1-2.3-2.5
		c0-1.4,0.8-2.6,2.2-2.6c1.5,0,2.1,1.2,2.1,2.3C26,30.9,26,31,26,31.2z M22.4,30.6h3c0,0,0-0.1,0-0.2c0-0.8-0.6-1.4-1.5-1.4
		C23,29,22.4,29.7,22.4,30.6z"/>
	<path d="M27.4,32.4v-5.9h0.7v5.9c0,0.3,0.1,0.6,0.4,0.6c0.2,0,0.3,0,0.5-0.1l0,0.6c-0.2,0.1-0.5,0.1-0.7,0.1
		C27.7,33.5,27.4,33.1,27.4,32.4z"/>
	<path d="M32.9,26.5v7h-0.7v-5.2h-1.7v-0.7h1.2c0.3,0,0.6-0.1,0.6-0.5v-0.6H32.9z"/>
</g>
<g>
	<path d="M66.6,32.8v0.6h-4.8v-0.6c1.6-1,3.8-2.5,3.8-4.3c0-0.9-0.5-1.4-1.4-1.4c-1.1,0-1.5,0.8-1.5,1.8l-0.7,0
		c0-1.4,0.8-2.4,2.2-2.4c1.2,0,2.1,0.8,2.1,2.1c0,1.8-1.6,3.2-3.3,4.3L66.6,32.8L66.6,32.8z"/>
</g>
<g>
	<path d="M91.5,31.4l0.7,0c0,1,0.7,1.6,1.8,1.6c1,0,1.7-0.5,1.7-1.5c0-1.2-1.2-1.3-2.1-1.3v-0.6c1,0,1.7-0.4,1.7-1.2
		c0-0.8-0.6-1.2-1.3-1.2c-0.9,0-1.5,0.5-1.5,1.3l-0.7,0c0-1.2,0.9-1.9,2.1-1.9c1.1,0,2.1,0.6,2.1,1.8c0,0.8-0.5,1.4-1,1.6
		c0.8,0.1,1.4,0.7,1.4,1.7c0,1.3-1.1,2.1-2.4,2.1C92.6,33.5,91.5,32.8,91.5,31.4z"/>
</g>
<g>
	<path d="M14.3,107.4v7h-0.9l-3.3-5.5v5.5H9.2v-7h0.9l3.3,5.5v-5.5H14.3z"/>
	<path d="M19.8,111.3v3.1H19l-0.1-0.7c-0.4,0.5-1,0.8-1.7,0.8c-1.1,0-1.7-0.6-1.7-1.5c0-0.5,0.2-0.9,0.6-1.1
		c0.4-0.2,0.9-0.3,1.8-0.3h1.1v-0.2c0-0.8-0.4-1.2-1.2-1.2c-0.6,0-1,0.2-1.4,0.8l-0.6-0.5c0.5-0.7,1.2-1,2.1-1
		C19,109.4,19.8,110.1,19.8,111.3z M18.9,112.2L18.9,112.2l-1,0c-0.8,0-1.1,0-1.4,0.2c-0.2,0.1-0.2,0.4-0.2,0.6
		c0,0.5,0.4,0.8,1.1,0.8C18.4,113.8,18.9,113.2,18.9,112.2z"/>
	<path d="M28,111.3v3.1h-0.8v-2.9c0-0.4,0-1.4-1-1.4c-1,0-1.2,1.1-1.2,2v2.2h-0.8v-2.8c0-0.7-0.2-1.5-1-1.5c-1.1,0-1.2,1.2-1.2,2
		v2.2h-0.8l0-4.9h0.8v0.6c0.3-0.5,0.8-0.7,1.3-0.7c0.6,0,1.2,0.3,1.4,1c0.3-0.7,0.9-1,1.6-1C27.5,109.4,28,110.2,28,111.3z"/>
	<path d="M33.5,112.1h-3.6c0,1,0.6,1.6,1.5,1.6c0.5,0,0.9-0.1,1.4-0.6l0.6,0.5c-0.6,0.6-1.2,0.8-1.9,0.8c-1.5,0-2.3-1.1-2.3-2.5
		c0-1.4,0.7-2.6,2.2-2.6c1.5,0,2.2,1.2,2.2,2.3C33.5,111.8,33.5,112,33.5,112.1z M29.9,111.5h2.8c0,0,0,0,0-0.1
		c0-0.8-0.6-1.3-1.4-1.3C30.5,110,30,110.7,29.9,111.5z"/>
	<path d="M37.1,111.9c0-1.4,0.9-2.5,2.4-2.5c1.4,0,2.4,1.1,2.4,2.5c0,1.4-1,2.5-2.4,2.5C38.1,114.4,37.1,113.3,37.1,111.9z
		 M41.1,111.9c0-1-0.6-1.8-1.6-1.8c-1,0-1.6,0.8-1.6,1.8s0.6,1.8,1.6,1.8S41.1,112.9,41.1,111.9z"/>
	<path d="M43.5,110.1h-1v-0.7h1v-0.7c0-1.1,0.6-1.4,1.3-1.4c0.3,0,0.6,0.1,0.9,0.2l-0.3,0.6c-0.2-0.1-0.4-0.1-0.5-0.1
		c-0.4,0-0.6,0.3-0.6,0.7v0.7h1.3v0.7h-1.3v4.3h-0.8V110.1z"/>
	<path d="M49.3,113.3v-5.9h0.8v5.8c0,0.3,0.1,0.5,0.4,0.5c0.1,0,0.3,0,0.5-0.1l0,0.7c-0.2,0.1-0.5,0.1-0.7,0.1
		C49.7,114.4,49.3,114.1,49.3,113.3z"/>
	<path d="M51.6,111.9c0-1.4,0.9-2.5,2.4-2.5c1.4,0,2.4,1.1,2.4,2.5c0,1.4-1,2.5-2.4,2.5C52.6,114.4,51.6,113.3,51.6,111.9z
		 M55.6,111.9c0-1-0.6-1.8-1.6-1.8c-1,0-1.6,0.8-1.6,1.8s0.6,1.8,1.6,1.8S55.6,112.9,55.6,111.9z"/>
	<path d="M57.4,111.9c0-1.3,0.7-2.6,2.3-2.6c0.9,0,1.6,0.4,2,1.4l-0.8,0.3c-0.2-0.6-0.7-1-1.3-1c-1,0-1.4,0.9-1.4,1.8
		c0,0.9,0.4,1.8,1.4,1.8c0.6,0,1-0.4,1.2-1l0.8,0.3c-0.3,0.9-1.1,1.4-2,1.4C58.2,114.4,57.4,113.3,57.4,111.9z"/>
	<path d="M66.7,111.3v3.1H66l0-0.7c-0.4,0.5-1,0.8-1.7,0.8c-1.1,0-1.7-0.6-1.7-1.5c0-0.5,0.2-0.9,0.6-1.1c0.4-0.2,1-0.3,1.8-0.3h1.1
		v-0.2c0-0.8-0.4-1.2-1.2-1.2c-0.6,0-1,0.2-1.4,0.8l-0.6-0.5c0.5-0.7,1.2-1,2.1-1C66,109.4,66.7,110.1,66.7,111.3z M65.9,112.2
		L65.9,112.2l-1,0c-0.8,0-1.1,0-1.4,0.2c-0.2,0.1-0.2,0.4-0.2,0.6c0,0.5,0.4,0.8,1.1,0.8C65.3,113.8,65.9,113.2,65.9,112.2z"/>
	<path d="M69.3,110.1v2.9c0,0.4,0.2,0.7,0.6,0.7c0.2,0,0.3,0,0.6-0.1v0.7c-0.2,0.1-0.5,0.1-0.8,0.1c-0.7,0-1.2-0.4-1.2-1.3v-3h-0.8
		v-0.7h0.8v-1.2l0.8-0.6v1.8h1.2v0.7H69.3z"/>
	<path d="M71.5,107.4h0.9v1.1h-0.9V107.4z M71.5,109.4h0.8v4.9h-0.8V109.4z"/>
	<path d="M73.5,111.9c0-1.4,0.9-2.5,2.4-2.5c1.4,0,2.4,1.1,2.4,2.5c0,1.4-1,2.5-2.4,2.5C74.5,114.4,73.5,113.3,73.5,111.9z
		 M77.5,111.9c0-1-0.6-1.8-1.6-1.8c-1,0-1.6,0.8-1.6,1.8s0.6,1.8,1.6,1.8S77.5,112.9,77.5,111.9z"/>
	<path d="M83.5,111.3v3.1h-0.8v-2.8c0-0.9-0.2-1.5-1-1.5c-0.9,0-1.4,0.8-1.4,2.1v2.2h-0.8v-4.9h0.8v0.7c0.3-0.5,0.9-0.8,1.6-0.8
		C83,109.4,83.5,110,83.5,111.3z"/>
</g>
</svg>
