<svg xmlns="http://www.w3.org/2000/svg" width="119" height="96.409" viewBox="0 0 119 96.409">
  <g id="Raggruppa_22302" data-name="Raggruppa 22302" transform="translate(-175 -320)">
    <text id="Proporzione_tra_i_tipi_di_luoghi_del_primo_livello_spaziale" data-name="Proporzione tra i tipi di luoghi del primo livello spaziale" transform="translate(175 320)" font-size="10" font-family="HKGrotesk-Regular, HK Grotesk"><tspan x="0" y="10">Proporzione tra i tipi di </tspan><tspan x="0" y="23">luoghi del primo livello </tspan><tspan x="0" y="36">spaziale</tspan></text>
    <g id="Raggruppa_4036" data-name="Raggruppa 4036" transform="translate(163.199 400.058)">
      <g id="Group_285" data-name="Group 285">
        <g id="Group_256" data-name="Group 256" transform="translate(12 -32)">
          <path id="Path_97" data-name="Path 97" d="M36.372,42.363A22.718,22.718,0,0,0,44.295,17.39" fill="none" stroke="#5151fc" stroke-miterlimit="10" stroke-width="3.44"/>
          <path id="Path_100" data-name="Path 100" d="M2.871,17.39a22.718,22.718,0,0,0,7.923,24.973" fill="none" stroke="#00c19c" stroke-miterlimit="10" stroke-width="3.44"/>
          <path id="Path_101" data-name="Path 101" d="M10.681,42.363a21.291,21.291,0,0,0,25.578,0" fill="none" stroke="#ff6c39" stroke-miterlimit="10" stroke-width="3.44"/>
          <path id="Path_102" data-name="Path 102" d="M44.295,17.39A21.949,21.949,0,0,0,23.583,1.942" fill="none" stroke="#bbf" stroke-miterlimit="10" stroke-width="3.44"/>
          <path id="Path_103" data-name="Path 103" d="M23.583,1.942A21.949,21.949,0,0,0,2.871,17.39" fill="none" stroke="orange" stroke-miterlimit="10" stroke-width="3.44"/>
        </g>
      </g>
    </g>
  </g>
</svg>
