<?xml version="1.0" encoding="utf-8"?>
<!-- Generator: Adobe Illustrator 25.0.0, SVG Export Plug-In . SVG Version: 6.00 Build 0)  -->
<svg version="1.1" id="Livello_1" xmlns="http://www.w3.org/2000/svg" xmlns:xlink="http://www.w3.org/1999/xlink" x="0px" y="0px"
	 viewBox="0 0 75 160" enable-background="new 0 0 75 160" xml:space="preserve">
<g id="Group" transform="translate(170.667 356.881)">
	<g id="Oval">
		<ellipse fill="#FFD93B" cx="-139" cy="-293.20001" rx="30.6" ry="17.70001"/>
		<path fill="#444444" d="M-139-275.39999c-16.89999,0-30.7-8-30.7-17.80002C-169.7-303-155.89999-311-139-311s30.7,8,30.7,17.79999
			C-108.3-283.39999-122.1-275.39999-139-275.39999z M-139-310.79999c-16.8,0-30.5,7.89999-30.5,17.59998
			c0,9.70001,13.7,17.60001,30.5,17.60001s30.5-7.89999,30.5-17.60001C-108.5-302.89999-122.2-310.79999-139-310.79999z"/>
	</g>
	<g id="Oval-2">
		<ellipse fill="#FFD93B" cx="-139" cy="-297.29999" rx="26.6" ry="15.39999"/>
		<path fill="#444444" d="M-139-281.79999c-14.7,0-26.7-7-26.7-15.5s12-15.5,26.7-15.5s26.7,7,26.7,15.5
			S-124.3-281.79999-139-281.79999z M-139-312.60001c-14.60001,0-26.5,6.89999-26.5,15.30002
			C-165.5-288.89999-153.60001-282-139-282s26.5-6.89999,26.5-15.29999C-112.5-305.70001-124.4-312.60001-139-312.60001z"/>
	</g>
	<g id="Oval-3">
		<ellipse fill="#FFD93B" cx="-139" cy="-301.39999" rx="23.6" ry="13.60001"/>
		<path fill="#444444" d="M-139-287.70001c-13.10001,0-23.7-6.19998-23.7-13.69998s10.59999-13.70001,23.7-13.70001
			s23.7,6.10001,23.7,13.70001S-125.9-287.70001-139-287.70001z M-139-314.89999c-12.89999,0-23.5,6-23.5,13.5
			s10.60001,13.5,23.5,13.5s23.5-6,23.5-13.5S-126.1-314.89999-139-314.89999z"/>
	</g>
	<g id="Oval-4">
		<ellipse fill="#FFD93B" cx="-139" cy="-305.39999" rx="21.4" ry="12.39999"/>
		<path fill="#444444" d="M-139-292.89999c-11.89999,0-21.5-5.60001-21.5-12.5s9.60001-12.5,21.5-12.5s21.5,5.60001,21.5,12.5
			S-127.1-292.89999-139-292.89999z M-139-317.70001c-11.7,0-21.3,5.5-21.3,12.30002c0,6.79999,9.60001,12.29999,21.3,12.29999
			s21.3-5.5,21.3-12.29999C-117.7-312.20001-127.3-317.70001-139-317.70001z"/>
	</g>
	<g id="Oval-5">
		<ellipse fill="#FFD93B" cx="-139" cy="-309.5" rx="19.4" ry="11.20001"/>
		<path fill="#444444" d="M-139-298.20001c-10.8,0-19.5-5.09998-19.5-11.29999s8.7-11.29999,19.5-11.29999
			s19.5,5.09998,19.5,11.29999S-128.2-298.20001-139-298.20001z M-139-320.60001c-10.60001,0-19.3,5-19.3,11.10001
			s8.60001,11.10001,19.3,11.10001c10.60001,0,19.3-5,19.3-11.10001S-128.39999-320.60001-139-320.60001z"/>
	</g>
	<g id="Oval-6">
		<ellipse fill="#FFD93B" cx="-139.10001" cy="-313.60001" rx="16.8" ry="9.70001"/>
		<path fill="#444444" d="M-139.10001-303.79999c-9.29999,0-16.89999-4.40002-16.89999-9.80002s7.60001-9.79999,16.89999-9.79999
			c9.3,0,16.90001,4.39999,16.90001,9.79999S-129.8-303.79999-139.10001-303.79999z M-139.10001-323.20001
			c-9.2,0-16.7,4.30002-16.7,9.60001c0,5.30002,7.5,9.60001,16.7,9.60001c9.20001,0,16.7-4.29999,16.7-9.60001
			C-122.4-318.89999-129.89999-323.20001-139.10001-323.20001z"/>
	</g>
	<g id="Oval-7">
		<ellipse fill="#FFD93B" cx="-139" cy="-317.70001" rx="13" ry="7.5"/>
		<path fill="#444444" d="M-139-310.10001c-7.2,0-13.10001-3.39999-13.10001-7.60001c0-4.19998,5.90001-7.59998,13.10001-7.59998
			s13.1,3.39999,13.1,7.59998C-125.9-313.5-131.8-310.10001-139-310.10001z M-139-325.10001
			c-7.10001,0-12.89999,3.30002-12.89999,7.39999c0,4.10001,5.8,7.40002,12.89999,7.40002c7.10001,0,12.9-3.30002,12.9-7.40002
			C-126.1-321.79999-131.89999-325.10001-139-325.10001z"/>
	</g>
	<g id="Oval-8">
		<ellipse fill="#FFD93B" cx="-139" cy="-321.70001" rx="7.5" ry="4.29999"/>
		<path fill="#444444" d="M-139-317.29999c-4.2,0-7.60001-2-7.60001-4.40002c0-2.39999,3.40001-4.39999,7.60001-4.39999
			s7.60001,2,7.60001,4.39999C-131.39999-319.29999-134.8-317.29999-139-317.29999z M-139-325.89999
			c-4.10001,0-7.39999,1.89999-7.39999,4.19998c0,2.30002,3.29999,4.20001,7.39999,4.20001s7.40001-1.89999,7.40001-4.20001
			C-131.59999-324-134.89999-325.89999-139-325.89999z"/>
	</g>
</g>
<g>
	<path d="M2.44775,115.79395h-2.4082v-0.66016h5.54688v0.66016H3.16748v6.30664H2.44775V115.79395z"/>
	<path d="M9.77686,119.82129h-3.6084c0.02051,1.08008,0.62012,1.72949,1.58887,1.72949c0.54004,0,0.96973-0.13965,1.41992-0.62012
		l0.47949,0.41992c-0.58008,0.60938-1.14941,0.83008-1.90918,0.83008c-1.49902,0-2.26855-1.12012-2.26855-2.51855
		c0-1.38965,0.75977-2.56934,2.18848-2.56934c1.50977,0,2.13867,1.17969,2.13867,2.29883
		C9.80615,119.53223,9.79639,119.70117,9.77686,119.82129z M6.16846,119.24219h2.97852c0-0.02051-0.00977-0.07031-0.00977-0.16016
		c-0.0498-0.7998-0.55957-1.40918-1.46973-1.40918C6.77783,117.67285,6.229,118.37207,6.16846,119.24219z"/>
	<path d="M12.34814,119.63184l-1.79883-2.45898h0.83984l1.41895,1.97949l1.40918-1.97949h0.83984l-1.79883,2.45898l1.80859,2.46875
		h-0.84961l-1.40918-1.99902l-1.40918,1.99902H10.5493L12.34814,119.63184z"/>
	<path d="M18.32764,122.05078c-0.25977,0.0791-0.51953,0.12988-0.74902,0.12988c-0.66016,0-1.13965-0.37012-1.13965-1.23926
		v-3.18848h-0.81934v-0.58008h0.81934v-1.37891l0.68945-0.51953v1.89844h1.18945v0.58008h-1.18945v3.09766
		c0,0.48047,0.21973,0.7002,0.61035,0.7002c0.16992,0,0.35938-0.04004,0.5791-0.11035L18.32764,122.05078z"/>
	<path d="M26.87646,119.63184c0,1.46875-0.75,2.54883-2.18848,2.54883c-0.71973,0-1.26953-0.28027-1.62891-0.74023v2.69922h-0.69043
		v-6.9668h0.69043v0.66016c0.36914-0.48047,0.92871-0.75,1.62891-0.75C26.05713,117.08301,26.87646,118.09277,26.87646,119.63184z
		 M26.18701,119.63184c0-1.16992-0.59961-1.93945-1.59961-1.93945c-0.98926,0-1.58887,0.76953-1.58887,1.93945
		c0,1.11914,0.5498,1.93848,1.58887,1.93848C25.63721,121.57031,26.18701,120.75098,26.18701,119.63184z"/>
	<path d="M32.06689,117.17285v4.92773h-0.69043v-0.70996c-0.34961,0.53027-0.97949,0.79004-1.62891,0.79004
		c-1.11914,0-1.6084-0.76953-1.6084-1.98926v-3.01855h0.68945v2.84863c0,0.7998,0.13965,1.54883,1.0791,1.54883
		c0.97949,0,1.46875-0.84961,1.46875-2.12891v-2.26855C31.37645,117.17286,32.06689,117.17286,32.06689,117.17285z"/>
	<path d="M38.39648,119.63184c0,1.46875-0.75049,2.54883-2.18896,2.54883c-0.71973,0-1.26953-0.28027-1.62891-0.74023v0.66016
		h-0.69043v-6.9668h0.69043v2.69922c0.36914-0.48047,0.92871-0.75,1.62891-0.75
		C37.57666,117.08301,38.39648,118.09277,38.39648,119.63184z M37.70654,119.63184c0-1.16992-0.59961-1.93945-1.59961-1.93945
		c-0.98926,0-1.58887,0.76953-1.58887,1.93945c0,1.11914,0.5498,1.93848,1.58887,1.93848
		C37.15674,121.57031,37.70654,120.75098,37.70654,119.63184z"/>
	<path d="M39.78906,121.03125v-5.89746h0.69043v5.85742c0,0.33984,0.11914,0.55957,0.44922,0.55957
		c0.15039,0,0.32031-0.04004,0.46973-0.08984l0.00977,0.58984c-0.20996,0.06934-0.45898,0.12988-0.67969,0.12988
		C40.15918,122.18066,39.78906,121.80078,39.78906,121.03125z"/>
	<path d="M42.46875,115.13379h0.7998v1.01953h-0.7998V115.13379z M42.52832,117.17285h0.68945v4.92773h-0.68945V117.17285z"/>
	<path d="M44.50977,120.89062l0.5791-0.25977c0.18066,0.50977,0.66016,0.93945,1.42969,0.93945
		c0.66992,0,1.09961-0.3291,1.09961-0.84961c0-1.30859-2.83887-0.48926-2.83887-2.23828c0-0.85938,0.7002-1.38965,1.68945-1.38965
		c0.78906,0,1.42871,0.33008,1.76855,1.0293l-0.5498,0.2998c-0.23926-0.43945-0.62891-0.71875-1.23926-0.71875
		c-0.60938,0-0.99902,0.24902-0.99902,0.67969c0,1.16895,2.84863,0.42969,2.84863,2.29785c0,1-0.81934,1.5-1.76953,1.5
		C45.55957,122.18066,44.76953,121.68066,44.50977,120.89062z"/>
	<path d="M53.62598,119.08203v3.01855h-0.68945v-2.84863c0-1.06934-0.33984-1.54883-1.0791-1.54883
		c-0.93945,0-1.46973,0.76953-1.46973,2.12891v2.26855h-0.68945v-6.9668h0.68945v2.75879c0.32031-0.5,0.91992-0.7998,1.62988-0.7998
		C53.07715,117.09277,53.62598,117.77246,53.62598,119.08203z"/>
	<path d="M59.22656,119.82129h-3.6084c0.02051,1.08008,0.62012,1.72949,1.58887,1.72949c0.54004,0,0.96973-0.13965,1.41992-0.62012
		l0.47949,0.41992c-0.58008,0.60938-1.14941,0.83008-1.90918,0.83008c-1.49902,0-2.26855-1.12012-2.26855-2.51855
		c0-1.38965,0.75977-2.56934,2.18848-2.56934c1.50977,0,2.13867,1.17969,2.13867,2.29883
		C59.25586,119.53223,59.24609,119.70117,59.22656,119.82129z M55.61816,119.24219h2.97852
		c0-0.02051-0.00977-0.07031-0.00977-0.16016c-0.0498-0.7998-0.55957-1.40918-1.46973-1.40918
		C56.22754,117.67285,55.67871,118.37207,55.61816,119.24219z"/>
	<path d="M64.7666,115.13379v6.9668h-0.68945v-0.66016c-0.36035,0.45996-0.91016,0.74023-1.62891,0.74023
		c-1.43945,0-2.18945-1.08008-2.18945-2.54883c0-1.53906,0.81934-2.54883,2.18945-2.54883c0.69922,0,1.25879,0.26953,1.62891,0.75
		v-2.69922C64.07715,115.13378,64.7666,115.13378,64.7666,115.13379z M64.13672,119.63184
		c0-1.16992-0.59961-1.93945-1.58887-1.93945c-1,0-1.59961,0.76953-1.59961,1.93945c0,1.11914,0.5498,1.93848,1.59961,1.93848
		C63.58691,121.57031,64.13672,120.75098,64.13672,119.63184z"/>
	<path d="M0.54932,127.13379h0.7998v1.01953h-0.7998C0.54932,128.15332,0.54932,127.13379,0.54932,127.13379z M0.60889,129.17285
		h0.69043v4.92773H0.60889V129.17285z"/>
	<path d="M7.04639,131.08203v3.01855H6.35693v-2.84863c0-1.05957-0.33984-1.54883-1.0791-1.54883
		c-0.92969,0-1.46875,0.79883-1.46875,2.18848v2.20898H3.11865v-4.92773h0.69043v0.71973c0.31934-0.5,0.91895-0.7998,1.62891-0.7998
		C6.49756,129.09277,7.04639,129.77246,7.04639,131.08203z"/>
	<path d="M15.14697,131.03223v3.06836h-0.62891l-0.04004-0.75977c-0.38965,0.5498-0.99023,0.83984-1.76953,0.83984
		c-1.06934,0-1.69922-0.56055-1.69922-1.50977c0-0.49902,0.2002-0.87891,0.55957-1.09961
		c0.37988-0.21973,0.91016-0.30957,1.87891-0.30957h1.00977v-0.22949c0-0.85938-0.44922-1.3291-1.2793-1.3291
		c-0.61914,0-1.09961,0.26953-1.49902,0.81934l-0.5-0.41992c0.53027-0.68945,1.16992-1.00977,2.00879-1.00977
		C14.42725,129.09277,15.14697,129.80273,15.14697,131.03223z M14.45752,131.8916v-0.07031H13.5083
		c-0.90918,0-1.2998,0.06055-1.53906,0.25c-0.17969,0.13965-0.27051,0.36035-0.27051,0.63965
		c0,0.5498,0.46973,0.89941,1.20996,0.89941C13.85791,133.61035,14.45752,132.94141,14.45752,131.8916z"/>
	<path d="M19.14893,131.65137c0-1.29883,0.72949-2.55859,2.21875-2.55859c0.87891,0,1.6084,0.44043,1.99902,1.35938
		l-0.66016,0.25977c-0.22949-0.62891-0.71973-1.00879-1.33887-1.00879c-1.0498,0-1.51953,0.93945-1.51953,1.94824
		c0,1.00977,0.46973,1.91895,1.5293,1.91895c0.62012,0,1.10938-0.36914,1.29883-0.99902l0.63965,0.24023
		c-0.3291,0.89941-1.04883,1.36914-1.93848,1.36914C19.94775,134.18066,19.14893,133.02051,19.14893,131.65137z"/>
	<path d="M24.15869,131.63184c0-1.45898,0.9502-2.53906,2.35938-2.53906c1.39844,0,2.36816,1.08008,2.36816,2.53906
		c0,1.44922-0.95898,2.54883-2.36816,2.54883S24.15869,133.09082,24.15869,131.63184z M28.19678,131.63184
		c0-1.11914-0.62988-1.92871-1.67871-1.92871c-1.05957,0-1.66992,0.81934-1.66992,1.92871
		c0,1.11914,0.62012,1.93848,1.66992,1.93848C27.57666,133.57031,28.19678,132.73145,28.19678,131.63184z"/>
	<path d="M30.23877,133.03125v-5.89746h0.69043v5.85742c0,0.33984,0.11914,0.55957,0.44922,0.55957
		c0.15039,0,0.32031-0.04004,0.46973-0.08984l0.00977,0.58984c-0.20996,0.06934-0.45898,0.12988-0.67969,0.12988
		C30.60889,134.18066,30.23877,133.80078,30.23877,133.03125z"/>
	<path d="M32.93799,133.03125v-5.89746h0.69043v5.85742c0,0.33984,0.11914,0.55957,0.44922,0.55957
		c0.15039,0,0.32031-0.04004,0.46973-0.08984l0.00977,0.58984c-0.20996,0.06934-0.45898,0.12988-0.67969,0.12988
		C33.30811,134.18066,32.93799,133.80078,32.93799,133.03125z"/>
	<path d="M39.57715,131.82129h-3.60889c0.02051,1.08008,0.62012,1.72949,1.58887,1.72949c0.54053,0,0.97021-0.13965,1.42041-0.62012
		l0.47949,0.41992c-0.58008,0.60938-1.14941,0.83008-1.90967,0.83008c-1.49902,0-2.26855-1.12012-2.26855-2.51855
		c0-1.38965,0.75977-2.56934,2.18848-2.56934c1.51025,0,2.13916,1.17969,2.13916,2.29883
		C39.60645,131.53223,39.59668,131.70117,39.57715,131.82129z M35.96826,131.24219h2.979c0-0.02051-0.00977-0.07031-0.00977-0.16016
		c-0.0498-0.7998-0.55957-1.40918-1.47021-1.40918C36.57764,129.67285,36.02881,130.37207,35.96826,131.24219z"/>
	<path d="M40.58984,131.65137c0-1.29883,0.72949-2.55859,2.21875-2.55859c0.87891,0,1.6084,0.44043,1.99902,1.35938
		l-0.66016,0.25977c-0.22949-0.62891-0.71973-1.00879-1.33887-1.00879c-1.0498,0-1.51953,0.93945-1.51953,1.94824
		c0,1.00977,0.46973,1.91895,1.5293,1.91895c0.62012,0,1.10938-0.36914,1.29883-0.99902l0.63965,0.24023
		c-0.3291,0.89941-1.04883,1.36914-1.93848,1.36914C41.38867,134.18066,40.58984,133.02051,40.58984,131.65137z"/>
	<path d="M48.12695,134.05078c-0.25977,0.0791-0.51953,0.12988-0.74902,0.12988c-0.66016,0-1.13965-0.37012-1.13965-1.23926
		v-3.18848h-0.81934v-0.58008h0.81934v-1.37891l0.68945-0.51953v1.89844h1.18945v0.58008h-1.18945v3.09766
		c0,0.48047,0.21973,0.7002,0.61035,0.7002c0.16992,0,0.35938-0.04004,0.5791-0.11035L48.12695,134.05078z"/>
	<path d="M49.37891,127.13379h0.7998v1.01953h-0.7998V127.13379z M49.43848,129.17285h0.68945v4.92773h-0.68945V129.17285z"/>
	<path d="M51.51855,131.63184c0-1.45898,0.9502-2.53906,2.35938-2.53906c1.39844,0,2.36816,1.08008,2.36816,2.53906
		c0,1.44922-0.95898,2.54883-2.36816,2.54883S51.51855,133.09082,51.51855,131.63184z M55.55664,131.63184
		c0-1.11914-0.62988-1.92871-1.67871-1.92871c-1.05957,0-1.66992,0.81934-1.66992,1.92871
		c0,1.11914,0.62012,1.93848,1.66992,1.93848C54.93652,133.57031,55.55664,132.73145,55.55664,131.63184z"/>
	<path d="M61.56641,131.08203v3.01855h-0.68945v-2.84863c0-1.05957-0.33984-1.54883-1.0791-1.54883
		c-0.92969,0-1.46875,0.79883-1.46875,2.18848v2.20898h-0.69043v-4.92773h0.69043v0.71973
		c0.31934-0.5,0.91895-0.7998,1.62891-0.7998C61.01758,129.09277,61.56641,129.77246,61.56641,131.08203z"/>
</g>
</svg>
