<?xml version="1.0" encoding="utf-8"?>
<!-- Generator: Adobe Illustrator 25.0.0, SVG Export Plug-In . SVG Version: 6.00 Build 0)  -->
<svg version="1.1" id="Livello_1" xmlns="http://www.w3.org/2000/svg" xmlns:xlink="http://www.w3.org/1999/xlink" x="0px" y="0px"
	 viewBox="0 0 75 161" enable-background="new 0 0 75 161" xml:space="preserve">
<g enable-background="new    ">
	<path d="M49.13965,82.03418h1.98926c1.47852,0,2.29883,0.69922,2.29883,1.94824c0,1.26953-0.83008,1.97949-2.29883,1.97949h-1.2793
		V89h-0.70996V82.03418z M51.05859,85.30176c1.08984,0,1.64941-0.44922,1.64941-1.30859c0-0.86035-0.55957-1.2998-1.64941-1.2998
		h-1.20898v2.6084H51.05859z"/>
	<path d="M57.6875,84.20312l-0.33984,0.55957c-0.22852-0.10059-0.43945-0.15039-0.64844-0.15039
		c-0.75977,0-1.32031,0.56934-1.32031,1.63965V89h-0.68945v-4.92773h0.68945v0.74023
		c0.36035-0.64941,0.95996-0.81934,1.45898-0.81934C57.13867,83.99316,57.41797,84.05273,57.6875,84.20312z"/>
	<path d="M58.65039,82.03418h0.79883v1.01953h-0.79883V82.03418z M58.70996,84.07227h0.68945V89h-0.68945V84.07227z"/>
	<path d="M67.97656,85.92188V89h-0.69043v-2.88867c0-0.41992,0-1.50879-1.0791-1.50879c-1,0-1.26953,0.91895-1.26953,2.02832V89
		h-0.68945v-2.84863c0-0.81934-0.25-1.54883-1.10938-1.54883c-0.95898,0-1.22949,0.90918-1.22949,2.02832V89h-0.68945
		l-0.01074-4.92773h0.66992v0.60059c0.31055-0.49023,0.81055-0.67969,1.35938-0.67969c0.68945,0,1.19922,0.2998,1.44922,0.94922
		c0.32031-0.62988,0.86914-0.94922,1.61914-0.94922C67.48633,83.99316,67.97656,84.77246,67.97656,85.92188z"/>
	<path d="M73.34766,85.93164V89h-0.62988l-0.04004-0.75977c-0.38965,0.5498-0.98926,0.83984-1.76953,0.83984
		c-1.06836,0-1.69824-0.55957-1.69824-1.50977c0-0.49902,0.2002-0.87891,0.55957-1.09863
		c0.37988-0.21973,0.91016-0.31055,1.87891-0.31055h1.00977v-0.22949c0-0.85938-0.4502-1.3291-1.2793-1.3291
		c-0.62012,0-1.09961,0.26953-1.5,0.81934l-0.49902-0.41992c0.5293-0.68945,1.16895-1.00879,2.00879-1.00879
		C72.62793,83.99316,73.34766,84.70215,73.34766,85.93164z M72.6582,86.79102v-0.06934h-0.94922
		c-0.91016,0-1.2998,0.05957-1.53906,0.24902c-0.18066,0.14062-0.27051,0.36035-0.27051,0.63965
		c0,0.5498,0.46973,0.90039,1.20996,0.90039C72.05859,88.51074,72.6582,87.84082,72.6582,86.79102z"/>
</g>
<g enable-background="new    ">
	<path d="M16.52783,99.53125c0,1.46973-0.74951,2.54883-2.18896,2.54883c-0.71924,0-1.26904-0.28027-1.62891-0.73926v2.69824
		h-0.68945v-6.9668h0.68945v0.66016c0.36963-0.47949,0.92969-0.75,1.62891-0.75
		C15.7085,96.98242,16.52783,97.99219,16.52783,99.53125z M15.83838,99.53125c0-1.16895-0.59961-1.93848-1.59912-1.93848
		c-0.98975,0-1.58936,0.76953-1.58936,1.93848c0,1.11914,0.5498,1.93945,1.58936,1.93945
		C15.28857,101.4707,15.83838,100.65039,15.83838,99.53125z"/>
	<path d="M21.71826,97.07227V102h-0.68945v-0.70996c-0.34961,0.53027-0.97949,0.79004-1.62891,0.79004
		c-1.11963,0-1.60938-0.76953-1.60938-1.98926v-3.01855h0.68945v2.84863c0,0.7998,0.14014,1.5498,1.07959,1.5498
		c0.97949,0,1.46924-0.84961,1.46924-2.12891v-2.26953H21.71826z"/>
	<path d="M28.04785,99.53125c0,1.46973-0.74951,2.54883-2.18896,2.54883c-0.71924,0-1.26904-0.28027-1.62891-0.73926V102h-0.68945
		v-6.96582h0.68945v2.69824c0.36963-0.47949,0.92969-0.75,1.62891-0.75C27.22852,96.98242,28.04785,97.99219,28.04785,99.53125z
		 M27.3584,99.53125c0-1.16895-0.59961-1.93848-1.59912-1.93848c-0.98975,0-1.58936,0.76953-1.58936,1.93848
		c0,1.11914,0.5498,1.93945,1.58936,1.93945C26.80859,101.4707,27.3584,100.65039,27.3584,99.53125z"/>
	<path d="M33.98779,99.53125c0,1.46973-0.74951,2.54883-2.18896,2.54883c-0.71924,0-1.26904-0.28027-1.62891-0.73926V102h-0.68945
		v-6.96582h0.68945v2.69824c0.36963-0.47949,0.92969-0.75,1.62891-0.75C33.16846,96.98242,33.98779,97.99219,33.98779,99.53125z
		 M33.29834,99.53125c0-1.16895-0.59961-1.93848-1.59912-1.93848c-0.98975,0-1.58936,0.76953-1.58936,1.93848
		c0,1.11914,0.5498,1.93945,1.58936,1.93945C32.74854,101.4707,33.29834,100.65039,33.29834,99.53125z"/>
	<path d="M35.38037,100.93066v-5.89648h0.68945v5.85645c0,0.33984,0.12012,0.55957,0.44971,0.55957
		c0.1499,0,0.31982-0.04004,0.46973-0.08984l0.01025,0.58984c-0.20996,0.06934-0.45996,0.12988-0.67969,0.12988
		C35.75,102.08008,35.38037,101.7002,35.38037,100.93066z"/>
	<path d="M38.06055,95.03418h0.79883v1.01953h-0.79883V95.03418z M38.12012,97.07227h0.68945V102h-0.68945V97.07227z"/>
	<path d="M40.21973,99.55176c0-1.2998,0.72949-2.55859,2.21973-2.55859c0.87891,0,1.6084,0.43945,1.99805,1.3584l-0.66016,0.26074
		c-0.22852-0.62988-0.71875-1.00977-1.33789-1.00977c-1.05078,0-1.51953,0.93945-1.51953,1.94922
		c0,1.00879,0.46875,1.91895,1.5293,1.91895c0.61914,0,1.10938-0.37012,1.29883-1l0.63965,0.24023
		c-0.33008,0.89941-1.0498,1.36914-1.93848,1.36914C41.01953,102.08008,40.21973,100.9209,40.21973,99.55176z"/>
	<path d="M49.32812,98.93164V102h-0.62988l-0.04004-0.75977c-0.38965,0.5498-0.98926,0.83984-1.76953,0.83984
		c-1.06836,0-1.69824-0.55957-1.69824-1.50977c0-0.49902,0.2002-0.87891,0.55957-1.09863
		c0.37988-0.21973,0.91016-0.31055,1.87891-0.31055h1.00977v-0.22949c0-0.85938-0.4502-1.3291-1.2793-1.3291
		c-0.62012,0-1.09961,0.26953-1.5,0.81934l-0.49902-0.41992c0.5293-0.68945,1.16895-1.00879,2.00879-1.00879
		C48.6084,96.99316,49.32812,97.70215,49.32812,98.93164z M48.63867,99.79102v-0.06934h-0.94922
		c-0.91016,0-1.2998,0.05957-1.53906,0.24902c-0.18066,0.14062-0.27051,0.36035-0.27051,0.63965
		c0,0.5498,0.46973,0.90039,1.20996,0.90039C48.03906,101.51074,48.63867,100.84082,48.63867,99.79102z"/>
	<path d="M54.56836,97.62207l-3.20898,3.78809h3.18945V102H50.4502v-0.5l3.27832-3.83789h-3.1084v-0.58984h3.94824V97.62207z"/>
	<path d="M55.82031,95.03418h0.79883v1.01953h-0.79883V95.03418z M55.87988,97.07227h0.68945V102h-0.68945V97.07227z"/>
	<path d="M57.96094,99.53125c0-1.45898,0.94922-2.53809,2.35742-2.53809c1.40039,0,2.36914,1.0791,2.36914,2.53809
		c0,1.44922-0.95898,2.54883-2.36914,2.54883C58.91016,102.08008,57.96094,100.99023,57.96094,99.53125z M61.99805,99.53125
		c0-1.11914-0.62988-1.92871-1.67969-1.92871c-1.05859,0-1.66797,0.81934-1.66797,1.92871
		c0,1.11914,0.61914,1.93945,1.66797,1.93945C61.37891,101.4707,61.99805,100.63086,61.99805,99.53125z"/>
	<path d="M68.00781,98.98145V102h-0.68945v-2.84863c0-1.05957-0.33984-1.54883-1.08008-1.54883
		c-0.92969,0-1.46875,0.7998-1.46875,2.18848V102h-0.68945v-4.92773h0.68945v0.71973
		c0.32031-0.49902,0.91992-0.79883,1.62891-0.79883C67.45801,96.99316,68.00781,97.67285,68.00781,98.98145z"/>
	<path d="M73.60742,99.72168H70c0.01953,1.0791,0.61914,1.72852,1.58887,1.72852c0.54004,0,0.96973-0.13965,1.41895-0.61914
		l0.48047,0.41895c-0.58008,0.61035-1.15039,0.83008-1.91016,0.83008c-1.49805,0-2.26758-1.11914-2.26758-2.51855
		c0-1.38965,0.75977-2.56836,2.18848-2.56836c1.50879,0,2.13867,1.17871,2.13867,2.29785
		C73.6377,99.43164,73.62695,99.60156,73.60742,99.72168z M70,99.1416h2.97852c0-0.02051-0.01074-0.07031-0.01074-0.16016
		c-0.0498-0.7998-0.55957-1.40918-1.46875-1.40918C70.60938,97.57227,70.05957,98.27246,70,99.1416z"/>
</g>
<g enable-background="new    ">
	<path d="M46.36816,6.10059V1.65332h0.70996v4.37695c0,1.34961,0.58008,1.98926,1.78906,1.98926
		c1.21973,0,1.79883-0.64941,1.79883-2.01855V1.65332h0.70996v4.39746c0,1.74902-0.87988,2.66797-2.50879,2.66797
		C47.24805,8.71875,46.36816,7.80957,46.36816,6.10059z"/>
	<path d="M53.23828,7.5498V1.65332h0.68945v5.85645c0,0.33984,0.12012,0.55957,0.4502,0.55957
		c0.14941,0,0.31934-0.04004,0.46973-0.08984l0.00977,0.58984c-0.20996,0.06934-0.45996,0.12988-0.67969,0.12988
		C53.6084,8.69922,53.23828,8.31934,53.23828,7.5498z"/>
	<path d="M58.02734,8.56934c-0.25977,0.08008-0.51953,0.12988-0.74902,0.12988c-0.66016,0-1.13965-0.37012-1.13965-1.23926V4.27148
		h-0.81934V3.69141h0.81934V2.3125l0.68945-0.51953v1.89844h1.18945v0.58008h-1.18945v3.09863
		c0,0.47949,0.21973,0.69922,0.60938,0.69922c0.16992,0,0.36035-0.04004,0.58008-0.10938L58.02734,8.56934z"/>
	<path d="M59.27832,1.65332h0.7998v1.01953h-0.7998V1.65332z M59.33887,3.69141h0.68945v4.92773h-0.68945V3.69141z"/>
	<path d="M68.60449,5.54102v3.07812h-0.68945V5.73047c0-0.41992,0-1.50879-1.0791-1.50879c-1,0-1.26953,0.91895-1.26953,2.02832
		v2.36914h-0.68945V5.77051c0-0.81934-0.25-1.54883-1.10938-1.54883c-0.95996,0-1.22949,0.90918-1.22949,2.02832v2.36914h-0.68945
		l-0.01074-4.92773h0.66992v0.60059c0.30957-0.49023,0.80957-0.67969,1.35938-0.67969c0.68945,0,1.19922,0.2998,1.44922,0.94922
		c0.31934-0.62988,0.86914-0.94922,1.61914-0.94922C68.11523,3.6123,68.60449,4.3916,68.60449,5.54102z"/>
	<path d="M73.97656,5.55078v3.06836h-0.62988l-0.04004-0.75977c-0.38965,0.5498-0.98926,0.83984-1.76953,0.83984
		c-1.06934,0-1.69824-0.55957-1.69824-1.50977c0-0.49902,0.19922-0.87891,0.55957-1.09863
		c0.37988-0.21973,0.90918-0.31055,1.87891-0.31055h1.00879V5.55078c0-0.85938-0.44922-1.3291-1.2793-1.3291
		c-0.61914,0-1.09863,0.26953-1.49902,0.81934l-0.49902-0.41992c0.5293-0.68945,1.16895-1.00879,2.00879-1.00879
		C73.25684,3.6123,73.97656,4.32129,73.97656,5.55078z M73.28613,6.41016V6.34082h-0.94922
		c-0.90918,0-1.29883,0.05957-1.53906,0.24902c-0.17969,0.14062-0.26953,0.36035-0.26953,0.63965
		c0,0.5498,0.46973,0.90039,1.20898,0.90039C72.68652,8.12988,73.28613,7.45996,73.28613,6.41016z"/>
</g>
<g enable-background="new    ">
	<path d="M9.11768,16.82227l-0.33984,0.55957c-0.22949-0.10059-0.43945-0.15039-0.64941-0.15039
		c-0.75977,0-1.31934,0.56934-1.31934,1.63965v2.74805H6.11963v-4.92773h0.68945v0.74023
		c0.35986-0.64941,0.95947-0.81934,1.45898-0.81934C8.56836,16.6123,8.84814,16.67188,9.11768,16.82227z"/>
	<path d="M10.07959,14.65332h0.79932v1.01953h-0.79932V14.65332z M10.13965,16.69141h0.68945v4.92773h-0.68945V16.69141z"/>
	<path d="M17.15674,19.15039c0,1.46973-0.74951,2.54883-2.18896,2.54883c-0.71924,0-1.26904-0.28027-1.62891-0.73926v2.69824
		h-0.68945v-6.9668h0.68945v0.66016c0.36963-0.47949,0.92969-0.75,1.62891-0.75
		C16.3374,16.60156,17.15674,17.61133,17.15674,19.15039z M16.46729,19.15039c0-1.16895-0.59961-1.93848-1.59912-1.93848
		c-0.98975,0-1.58936,0.76953-1.58936,1.93848c0,1.11914,0.5498,1.93945,1.58936,1.93945
		C15.91748,21.08984,16.46729,20.26953,16.46729,19.15039z"/>
	<path d="M22.34717,16.69141v4.92773h-0.68945v-0.70996c-0.3501,0.53027-0.97949,0.79004-1.62939,0.79004
		c-1.11914,0-1.60889-0.76953-1.60889-1.98926v-3.01855h0.68945v2.84863c0,0.7998,0.14014,1.5498,1.07959,1.5498
		c0.97949,0,1.46924-0.84961,1.46924-2.12891v-2.26953H22.34717z"/>
	<path d="M28.67676,19.15039c0,1.46973-0.74951,2.54883-2.18896,2.54883c-0.71924,0-1.26904-0.28027-1.62891-0.73926v0.65918
		h-0.68945v-6.96582h0.68945v2.69824c0.36963-0.47949,0.92969-0.75,1.62891-0.75
		C27.85742,16.60156,28.67676,17.61133,28.67676,19.15039z M27.9873,19.15039c0-1.16895-0.59961-1.93848-1.59912-1.93848
		c-0.98975,0-1.58936,0.76953-1.58936,1.93848c0,1.11914,0.5498,1.93945,1.58936,1.93945
		C27.4375,21.08984,27.9873,20.26953,27.9873,19.15039z"/>
	<path d="M34.6167,19.15039c0,1.46973-0.74951,2.54883-2.18896,2.54883c-0.71924,0-1.26904-0.28027-1.62891-0.73926v0.65918
		h-0.68945v-6.96582h0.68945v2.69824c0.36963-0.47949,0.92969-0.75,1.62891-0.75
		C33.79736,16.60156,34.6167,17.61133,34.6167,19.15039z M33.92725,19.15039c0-1.16895-0.59961-1.93848-1.59912-1.93848
		c-0.98975,0-1.58936,0.76953-1.58936,1.93848c0,1.11914,0.5498,1.93945,1.58936,1.93945
		C33.37744,21.08984,33.92725,20.26953,33.92725,19.15039z"/>
	<path d="M36.00928,20.5498v-5.89648h0.68945v5.85645c0,0.33984,0.12012,0.55957,0.44971,0.55957
		c0.1499,0,0.31982-0.04004,0.46973-0.08984l0.01025,0.58984c-0.20996,0.06934-0.45996,0.12988-0.67969,0.12988
		C36.37891,21.69922,36.00928,21.31934,36.00928,20.5498z"/>
	<path d="M38.68945,14.65332h0.79883v1.01953h-0.79883V14.65332z M38.74902,16.69141h0.68945v4.92773h-0.68945V16.69141z"/>
	<path d="M40.84961,19.1709c0-1.2998,0.72949-2.55859,2.21875-2.55859c0.87988,0,1.60938,0.43945,1.99902,1.3584l-0.66016,0.26074
		c-0.22949-0.62988-0.71875-1.00977-1.33887-1.00977c-1.0498,0-1.51953,0.93945-1.51953,1.94922
		c0,1.00879,0.46973,1.91895,1.5293,1.91895c0.62012,0,1.10938-0.37012,1.2998-1l0.63965,0.24023
		c-0.33008,0.89941-1.0498,1.36914-1.93945,1.36914C41.64941,21.69922,40.84961,20.54004,40.84961,19.1709z"/>
	<path d="M49.95703,18.55078v3.06836h-0.62988l-0.04004-0.75977c-0.38965,0.5498-0.98926,0.83984-1.76855,0.83984
		c-1.06934,0-1.69922-0.55957-1.69922-1.50977c0-0.49902,0.2002-0.87891,0.55957-1.09863
		c0.37988-0.21973,0.91016-0.31055,1.87891-0.31055h1.00977v-0.22949c0-0.85938-0.4502-1.3291-1.2793-1.3291
		c-0.62012,0-1.09961,0.26953-1.49902,0.81934l-0.5-0.41992c0.5293-0.68945,1.16895-1.00879,2.00879-1.00879
		C49.2373,16.6123,49.95703,17.32129,49.95703,18.55078z M49.26758,19.41016v-0.06934h-0.94922
		c-0.91016,0-1.2998,0.05957-1.53906,0.24902c-0.18066,0.14062-0.27051,0.36035-0.27051,0.63965
		c0,0.5498,0.46973,0.90039,1.20996,0.90039C48.66797,21.12988,49.26758,20.45996,49.26758,19.41016z"/>
	<path d="M55.19727,17.24121l-3.20801,3.78809h3.18848v0.58984H51.0791v-0.5l3.27832-3.83789h-3.1084v-0.58984h3.94824V17.24121z"/>
	<path d="M56.44922,14.65332h0.7998v1.01953h-0.7998V14.65332z M56.50977,16.69141h0.68945v4.92773h-0.68945V16.69141z"/>
	<path d="M58.58887,19.15039c0-1.45898,0.9502-2.53809,2.35938-2.53809c1.39941,0,2.36816,1.0791,2.36816,2.53809
		c0,1.44922-0.95898,2.54883-2.36816,2.54883S58.58887,20.60938,58.58887,19.15039z M62.62695,19.15039
		c0-1.11914-0.62988-1.92871-1.67871-1.92871c-1.05957,0-1.66895,0.81934-1.66895,1.92871
		c0,1.11914,0.61914,1.93945,1.66895,1.93945C62.00781,21.08984,62.62695,20.25,62.62695,19.15039z"/>
	<path d="M68.63672,18.60059v3.01855h-0.68945v-2.84863c0-1.05957-0.33984-1.54883-1.0791-1.54883
		c-0.92969,0-1.46973,0.7998-1.46973,2.18848v2.20898h-0.68945v-4.92773h0.68945v0.71973
		c0.32031-0.49902,0.91992-0.79883,1.62891-0.79883C68.08691,16.6123,68.63672,17.29199,68.63672,18.60059z"/>
	<path d="M74.23633,19.34082h-3.60742c0.01953,1.0791,0.61914,1.72852,1.58887,1.72852c0.54004,0,0.96973-0.13965,1.41895-0.61914
		l0.48047,0.41895c-0.58008,0.61035-1.14941,0.83008-1.90918,0.83008c-1.49902,0-2.26855-1.11914-2.26855-2.51855
		c0-1.38965,0.75977-2.56836,2.18848-2.56836c1.50879,0,2.13867,1.17871,2.13867,2.29785
		C74.2666,19.05078,74.25684,19.2207,74.23633,19.34082z M70.62891,18.76074h2.97852c0-0.02051-0.01074-0.07031-0.01074-0.16016
		c-0.0498-0.7998-0.55957-1.40918-1.46875-1.40918C71.23828,17.19141,70.68848,17.8916,70.62891,18.76074z"/>
</g>
<ellipse id="Oval" fill="#FF3366" stroke="#444444" stroke-width="0.25" cx="33.06701" cy="64.68102" rx="30.6" ry="17.7"/>
<ellipse id="Oval-2" fill="#FF3366" stroke="#444444" stroke-width="0.25" cx="33.06701" cy="60.58101" rx="26.6" ry="15.4"/>
<ellipse id="Oval-3" fill="#FFA500" stroke="#444444" stroke-width="0.25" stroke-linejoin="round" cx="33.06701" cy="56.48101" rx="23.6" ry="13.6"/>
<ellipse id="Oval-4" fill="#FFA500" stroke="#444444" stroke-width="0.25" stroke-linejoin="round" cx="33.06701" cy="52.48101" rx="21.4" ry="12.4"/>
<ellipse id="Oval-5" fill="#FFD93B" stroke="#444444" stroke-width="0.25" stroke-linejoin="round" cx="33.06701" cy="48.38101" rx="19.4" ry="11.2"/>
<ellipse id="Oval-6" fill="#FFD93B" stroke="#444444" stroke-width="0.25" stroke-linejoin="round" cx="33.06701" cy="44.28101" rx="16.8" ry="9.7"/>
<ellipse id="Oval-7" fill="#00BFD3" stroke="#444444" stroke-width="0.25" stroke-linejoin="round" cx="33.06701" cy="40.18101" rx="13" ry="7.5"/>
<ellipse id="Oval-8" fill="#00BFD3" stroke="#444444" stroke-width="0.25" stroke-linejoin="round" cx="33.06701" cy="36.18101" rx="7.5" ry="4.3"/>
<path id="Tracciato_116466" fill="none" stroke="#707070" stroke-width="0.25" d="M32.10001,35
	C43.60001,35,41.5,23.79999,41.5,23.79999"/>
<path id="Tracciato_116467" fill="none" stroke="#707070" stroke-width="0.25" d="M35.20001,77.60001
	c0,11.5,11.20001,9.39999,11.20001,9.39999"/>
<g enable-background="new    ">
	<path d="M2.49854,115.69336H0.08984v-0.65918h5.54688v0.65918H3.21826V122H2.49854V115.69336z"/>
	<path d="M9.82715,119.72168H6.21924c0.02002,1.0791,0.61963,1.72852,1.58936,1.72852c0.53955,0,0.96924-0.13965,1.41895-0.61914
		L9.70752,121.25c-0.57959,0.61035-1.14941,0.83008-1.90918,0.83008c-1.49902,0-2.26855-1.11914-2.26855-2.51855
		c0-1.38965,0.75977-2.56836,2.18896-2.56836c1.50879,0,2.13867,1.17871,2.13867,2.29785
		C9.85742,119.43164,9.84717,119.60156,9.82715,119.72168z M6.21924,119.1416h2.97852c0-0.02051-0.01025-0.07031-0.01025-0.16016
		c-0.0498-0.7998-0.55957-1.40918-1.46875-1.40918C6.8291,117.57227,6.2793,118.27246,6.21924,119.1416z"/>
	<path d="M10.71973,120.79102l0.57959-0.25977c0.17969,0.50977,0.65967,0.93945,1.4292,0.93945
		c0.66943,0,1.09961-0.33008,1.09961-0.84961c0-1.30957-2.83887-0.49023-2.83887-2.23926c0-0.85938,0.69971-1.38867,1.68945-1.38867
		c0.78955,0,1.4292,0.3291,1.76904,1.0293l-0.5498,0.2998c-0.23975-0.44043-0.62988-0.71973-1.23926-0.71973
		c-0.60986,0-0.99951,0.25-0.99951,0.67969c0,1.16895,2.84814,0.42969,2.84814,2.29883c0,0.99902-0.81934,1.49902-1.76904,1.49902
		C11.76904,122.08008,10.97949,121.58008,10.71973,120.79102z"/>
	<path d="M17.9585,121.9502c-0.25977,0.08008-0.52002,0.12988-0.74951,0.12988c-0.65967,0-1.13965-0.37012-1.13965-1.23926v-3.18848
		H15.25v-0.58008h0.81934v-1.37891l0.68945-0.51953v1.89844h1.18945v0.58008h-1.18945v3.09863
		c0,0.47949,0.22021,0.69922,0.60986,0.69922c0.16992,0,0.35986-0.04004,0.57959-0.10938L17.9585,121.9502z"/>
	<path d="M18.79004,119.53125c0-1.45898,0.94922-2.53809,2.3584-2.53809c1.39941,0,2.36865,1.0791,2.36865,2.53809
		c0,1.44922-0.95947,2.54883-2.36865,2.54883S18.79004,120.99023,18.79004,119.53125z M22.82764,119.53125
		c0-1.11914-0.62988-1.92871-1.6792-1.92871c-1.05957,0-1.66895,0.81934-1.66895,1.92871c0,1.11914,0.61963,1.93945,1.66895,1.93945
		C22.20801,121.4707,22.82764,120.63086,22.82764,119.53125z"/>
</g>
<g enable-background="new    ">
	<path d="M0.24951,132.55176c0-1.2998,0.72998-2.55859,2.21924-2.55859c0.87939,0,1.60889,0.43945,1.99854,1.3584l-0.65967,0.26074
		c-0.22949-0.62988-0.71924-1.00977-1.33887-1.00977c-1.0498,0-1.51953,0.93945-1.51953,1.94922
		c0,1.00879,0.46973,1.91895,1.5293,1.91895c0.61963,0,1.10938-0.37012,1.29932-1l0.63965,0.24023
		c-0.33008,0.89941-1.04932,1.36914-1.93896,1.36914C1.04932,135.08008,0.24951,133.9209,0.24951,132.55176z"/>
	<path d="M5.25977,132.53125c0-1.45898,0.94971-2.53809,2.35889-2.53809c1.39941,0,2.36865,1.0791,2.36865,2.53809
		c0,1.44922-0.95947,2.54883-2.36865,2.54883S5.25977,133.99023,5.25977,132.53125z M9.29785,132.53125
		c0-1.11914-0.62988-1.92871-1.6792-1.92871c-1.05957,0-1.66895,0.81934-1.66895,1.92871c0,1.11914,0.61963,1.93945,1.66895,1.93945
		C8.67822,134.4707,9.29785,133.63086,9.29785,132.53125z"/>
	<path d="M15.30713,131.98145V135h-0.68945v-2.84863c0-1.05957-0.33984-1.54883-1.07959-1.54883
		c-0.92969,0-1.46924,0.7998-1.46924,2.18848V135h-0.68945v-4.92773h0.68945v0.71973
		c0.31982-0.49902,0.91943-0.79883,1.62891-0.79883C14.75732,129.99316,15.30713,130.67285,15.30713,131.98145z"/>
	<path d="M19.05811,134.9502c-0.25977,0.08008-0.52002,0.12988-0.74951,0.12988c-0.65967,0-1.13965-0.37012-1.13965-1.23926
		v-3.18848h-0.81934v-0.58008h0.81934v-1.37891l0.68945-0.51953v1.89844h1.18945v0.58008H17.8584v3.09863
		c0,0.47949,0.22021,0.69922,0.60986,0.69922c0.16992,0,0.35986-0.04004,0.57959-0.10938L19.05811,134.9502z"/>
	<path d="M24.2168,132.72168h-3.60791c0.02002,1.0791,0.61963,1.72852,1.58936,1.72852c0.53955,0,0.96924-0.13965,1.41895-0.61914
		l0.47998,0.41895c-0.57959,0.61035-1.14941,0.83008-1.90918,0.83008c-1.49902,0-2.26855-1.11914-2.26855-2.51855
		c0-1.38965,0.75977-2.56836,2.18896-2.56836c1.50879,0,2.13867,1.17871,2.13867,2.29785
		C24.24707,132.43164,24.23682,132.60156,24.2168,132.72168z M20.60889,132.1416h2.97852c0-0.02051-0.01025-0.07031-0.01025-0.16016
		c-0.0498-0.7998-0.55957-1.40918-1.46875-1.40918C21.21875,130.57227,20.66895,131.27246,20.60889,132.1416z"/>
	<path d="M29.56738,131.98145V135h-0.68945v-2.84863c0-1.05957-0.33984-1.54883-1.07959-1.54883
		c-0.92969,0-1.46924,0.7998-1.46924,2.18848V135h-0.68945v-4.92773h0.68945v0.71973
		c0.31982-0.49902,0.91943-0.79883,1.62891-0.79883C29.01758,129.99316,29.56738,130.67285,29.56738,131.98145z"/>
	<path d="M34.97705,130.07227V135H34.2876v-0.70996c-0.3501,0.53027-0.97949,0.79004-1.62939,0.79004
		c-1.11914,0-1.60889-0.76953-1.60889-1.98926v-3.01855h0.68945v2.84863c0,0.7998,0.14014,1.5498,1.07959,1.5498
		c0.97949,0,1.46924-0.84961,1.46924-2.12891v-2.26953H34.97705z"/>
	<path d="M38.84766,134.9502c-0.25977,0.08008-0.51953,0.12988-0.74902,0.12988c-0.65967,0-1.13965-0.37012-1.13965-1.23926
		v-3.18848h-0.81934v-0.58008h0.81934v-1.37891l0.68945-0.51953v1.89844h1.18945v0.58008h-1.18945v3.09863
		c0,0.47949,0.22021,0.69922,0.60938,0.69922c0.16992,0,0.36035-0.04004,0.58008-0.10938L38.84766,134.9502z"/>
	<path d="M39.67969,132.53125c0-1.45898,0.94922-2.53809,2.3584-2.53809c1.39941,0,2.36816,1.0791,2.36816,2.53809
		c0,1.44922-0.95898,2.54883-2.36816,2.54883S39.67969,133.99023,39.67969,132.53125z M43.7168,132.53125
		c0-1.11914-0.62891-1.92871-1.67871-1.92871c-1.05957,0-1.66895,0.81934-1.66895,1.92871
		c0,1.11914,0.61914,1.93945,1.66895,1.93945C43.09766,134.4707,43.7168,133.63086,43.7168,132.53125z"/>
	<path d="M48.46875,128.03418h0.7998v1.01953h-0.7998V128.03418z M48.5293,130.07227h0.68945V135H48.5293V130.07227z"/>
	<path d="M54.9668,131.98145V135h-0.68945v-2.84863c0-1.05957-0.33984-1.54883-1.08008-1.54883
		c-0.92969,0-1.46875,0.7998-1.46875,2.18848V135h-0.68945v-4.92773h0.68945v0.71973
		c0.32031-0.49902,0.91992-0.79883,1.62891-0.79883C54.41699,129.99316,54.9668,130.67285,54.9668,131.98145z"/>
</g>
<g enable-background="new    ">
	<path d="M5.16699,145.53125c0,1.46973-0.74951,2.54883-2.18896,2.54883c-0.71924,0-1.26904-0.28027-1.62891-0.73926v2.69824
		H0.65967v-6.9668h0.68945v0.66016c0.36963-0.47949,0.92969-0.75,1.62891-0.75
		C4.34766,142.98242,5.16699,143.99219,5.16699,145.53125z M4.47754,145.53125c0-1.16895-0.59961-1.93848-1.59912-1.93848
		c-0.98975,0-1.58936,0.76953-1.58936,1.93848c0,1.11914,0.5498,1.93945,1.58936,1.93945
		C3.92773,147.4707,4.47754,146.65039,4.47754,145.53125z"/>
	<path d="M6.53955,141.03418h0.79932v1.01953H6.53955V141.03418z M6.59961,143.07227h0.68945V148H6.59961V143.07227z"/>
	<path d="M12.91699,143.07227V148h-0.68945v-0.70996c-0.34961,0.53027-0.97949,0.79004-1.62891,0.79004
		c-1.11963,0-1.60938-0.76953-1.60938-1.98926v-3.01855h0.68945v2.84863c0,0.7998,0.14014,1.5498,1.07959,1.5498
		c0.97949,0,1.46924-0.84961,1.46924-2.12891v-2.26953H12.91699z M10.67822,142.44336l-1.23926-1.40918h0.73975l1.03955,1.40918
		H10.67822z"/>
	<path d="M20.46729,143.20312l-0.33984,0.55957c-0.22949-0.10059-0.43945-0.15039-0.64941-0.15039
		c-0.75977,0-1.31934,0.56934-1.31934,1.63965V148h-0.68945v-4.92773h0.68945v0.74023
		c0.35986-0.64941,0.95947-0.81934,1.45898-0.81934C19.91797,142.99316,20.19775,143.05273,20.46729,143.20312z"/>
	<path d="M25.15723,144.93164V148h-0.62988l-0.04004-0.75977c-0.38965,0.5498-0.98926,0.83984-1.76904,0.83984
		c-1.06934,0-1.69873-0.55957-1.69873-1.50977c0-0.49902,0.19971-0.87891,0.55957-1.09863
		c0.37988-0.21973,0.90967-0.31055,1.87891-0.31055h1.00928v-0.22949c0-0.85938-0.44971-1.3291-1.2793-1.3291
		c-0.61963,0-1.09912,0.26953-1.49902,0.81934l-0.49951-0.41992c0.5293-0.68945,1.16895-1.00879,2.00879-1.00879
		C24.4375,142.99316,25.15723,143.70215,25.15723,144.93164z M24.46729,145.79102v-0.06934h-0.94922
		c-0.90967,0-1.29932,0.05957-1.53906,0.24902c-0.18018,0.14062-0.27002,0.36035-0.27002,0.63965
		c0,0.5498,0.46973,0.90039,1.20947,0.90039C23.86768,147.51074,24.46729,146.84082,24.46729,145.79102z"/>
	<path d="M26.4292,145.55176c0-1.2998,0.72998-2.55859,2.21924-2.55859c0.87939,0,1.60889,0.43945,1.99854,1.3584l-0.65967,0.26074
		c-0.22949-0.62988-0.71924-1.00977-1.33887-1.00977c-1.0498,0-1.51953,0.93945-1.51953,1.94922
		c0,1.00879,0.46973,1.91895,1.5293,1.91895c0.61963,0,1.10938-0.37012,1.29932-1l0.63965,0.24023
		c-0.33008,0.89941-1.04932,1.36914-1.93896,1.36914C27.229,148.08008,26.4292,146.9209,26.4292,145.55176z"/>
	<path d="M31.45898,145.55176c0-1.2998,0.72998-2.55859,2.21875-2.55859c0.87988,0,1.60938,0.43945,1.99902,1.3584l-0.65967,0.26074
		c-0.22949-0.62988-0.71924-1.00977-1.33936-1.00977c-1.04932,0-1.51904,0.93945-1.51904,1.94922
		c0,1.00879,0.46973,1.91895,1.5293,1.91895c0.61963,0,1.10938-0.37012,1.29932-1l0.63965,0.24023
		c-0.33008,0.89941-1.04932,1.36914-1.93896,1.36914C32.25879,148.08008,31.45898,146.9209,31.45898,145.55176z"/>
	<path d="M36.46973,145.53125c0-1.45898,0.94922-2.53809,2.3584-2.53809c1.39941,0,2.36914,1.0791,2.36914,2.53809
		c0,1.44922-0.95996,2.54883-2.36914,2.54883S36.46973,146.99023,36.46973,145.53125z M40.50781,145.53125
		c0-1.11914-0.63086-1.92871-1.67969-1.92871c-1.05957,0-1.66895,0.81934-1.66895,1.92871
		c0,1.11914,0.61963,1.93945,1.66895,1.93945C39.8877,147.4707,40.50781,146.63086,40.50781,145.53125z"/>
	<path d="M42.54883,146.93066v-5.89648h0.68945v5.85645c0,0.33984,0.12109,0.55957,0.4502,0.55957
		c0.14941,0,0.31934-0.04004,0.46973-0.08984l0.00977,0.58984c-0.20898,0.06934-0.45898,0.12988-0.67969,0.12988
		C42.91895,148.08008,42.54883,147.7002,42.54883,146.93066z"/>
	<path d="M47.33789,147.9502c-0.25977,0.08008-0.51953,0.12988-0.75,0.12988c-0.65918,0-1.13867-0.37012-1.13867-1.23926v-3.18848
		h-0.82031v-0.58008h0.82031v-1.37891l0.68945-0.51953v1.89844h1.18945v0.58008h-1.18945v3.09863
		c0,0.47949,0.21973,0.69922,0.60938,0.69922c0.16992,0,0.35938-0.04004,0.58008-0.10938L47.33789,147.9502z"/>
	<path d="M52.49609,145.72168h-3.60742c0.01953,1.0791,0.61914,1.72852,1.58984,1.72852c0.53906,0,0.96875-0.13965,1.41797-0.61914
		l0.48047,0.41895c-0.58008,0.61035-1.14941,0.83008-1.90918,0.83008c-1.49902,0-2.26855-1.11914-2.26855-2.51855
		c0-1.38965,0.75977-2.56836,2.18945-2.56836c1.50781,0,2.13867,1.17871,2.13867,2.29785
		C52.52734,145.43164,52.5166,145.60156,52.49609,145.72168z M48.88867,145.1416h2.97852c0-0.02051-0.00977-0.07031-0.00977-0.16016
		c-0.05078-0.7998-0.56055-1.40918-1.46875-1.40918C49.49805,143.57227,48.94922,144.27246,48.88867,145.1416z"/>
</g>
</svg>
