<?xml version="1.0" encoding="utf-8"?>
<!-- Generator: Adobe Illustrator 25.0.0, SVG Export Plug-In . SVG Version: 6.00 Build 0)  -->
<svg version="1.1" id="Livello_1" xmlns="http://www.w3.org/2000/svg" xmlns:xlink="http://www.w3.org/1999/xlink" x="0px" y="0px"
	 viewBox="0 0 145 96" enable-background="new 0 0 145 96" xml:space="preserve">
<path id="Stroke-2" fill="none" stroke="#999999" stroke-width="0.19" stroke-linecap="round" stroke-dasharray="1.506,1.506" d="
	M70.218,0.819l74,43"/>
<path id="Stroke-5" fill="none" stroke="#999999" stroke-width="0.19" stroke-linecap="round" stroke-dasharray="1.506,1.506" d="
	M55.218,9.819l74,43"/>
<path id="Stroke-8" fill="none" stroke="#999999" stroke-width="0.19" stroke-linecap="round" stroke-dasharray="1.506,1.506" d="
	M42.118,17.819l74,43"/>
<path id="Stroke-11" fill="none" stroke="#999999" stroke-width="0.19" stroke-linecap="round" stroke-dasharray="1.506,1.506" d="
	M28.418,25.819l74,43"/>
<path id="Stroke-14" fill="none" stroke="#999999" stroke-width="0.19" stroke-linecap="round" stroke-dasharray="1.506,1.506" d="
	M15.418,33.819l74,43"/>
<path id="Stroke-19" fill="none" stroke="#999999" stroke-width="0.19" stroke-linecap="round" stroke-dasharray="1.506,1.506" d="
	M1.418,41.819l74,43"/>
<path id="Stroke-27" fill="none" stroke="#999999" stroke-width="0.19" stroke-linecap="round" stroke-dasharray="1.506,1.506" d="
	M1.418,43.819l74-43"/>
<path id="Stroke-30" fill="none" stroke="#999999" stroke-width="0.19" stroke-linecap="round" stroke-dasharray="1.506,1.506" d="
	M15.418,51.819l74-43"/>
<path id="Stroke-31" fill="none" stroke="#999999" stroke-width="0.19" stroke-linecap="round" d="M88.218,9.519l0.7-0.4"/>
<path id="Stroke-33" fill="none" stroke="#999999" stroke-width="0.19" stroke-linecap="round" stroke-dasharray="1.506,1.506" d="
	M28.418,59.819l74-43"/>
<path id="Stroke-36" fill="none" stroke="#999999" stroke-width="0.19" stroke-linecap="round" stroke-dasharray="1.506,1.506" d="
	M42.118,68.819l74-43"/>
<path id="Stroke-39" fill="none" stroke="#999999" stroke-width="0.19" stroke-linecap="round" stroke-dasharray="1.506,1.506" d="
	M55.218,76.819l74-43"/>
<path id="Stroke-44" fill="none" stroke="#999999" stroke-width="0.19" stroke-linecap="round" stroke-dasharray="1.506,1.506" d="
	M70.218,84.819l74-43"/>
<path id="Stroke-46" fill="none" stroke="#000000" stroke-width="0.5" d="M62.218,63.319c-2.2-1.3-2.8-3.2-1.6-4.8
	c0-0.1,0.1-0.1,0.1-0.2c0.9-1,0.4-1.3,0.2-1.5c-0.3-0.2-0.7-0.3-1-0.4c-0.1,0-0.1,0-0.2-0.1c-0.6,0-1.1-0.3-1.6-0.5
	c-2.5-1.4-2.5-3.8,0-5.2c2.6-1.3,5.6-1.4,8.3-0.4c0.1,0,0.2,0.1,0.2,0.1c0.5,0.3,1.1,0.4,1.7,0.4c0.8-0.1,1.5-0.5,2.1-1
	c0.1,0,0.1-0.1,0.2-0.1c0.2-0.1,0.3-0.2,0.5-0.3c4-2,8.7-2,12.7,0c3.1,1.8,3.5,4.6,1,6.6c0,0.1-0.1,0.1-0.2,0.2
	c-1.6,1.2-1,1.6-0.5,1.9l0,0c0.2,0.1,0.3,0.2,0.5,0.2c0,0,0.1,0,0.1,0.1l0,0c0.2,0.1,0.3,0.1,0.5,0.2c2.5,1.4,2.5,3.8,0,5.2
	c-2.9,1.4-6.2,1.4-9.1,0c-0.1,0-0.1-0.1-0.2-0.1l-0.1-0.1c-0.1-0.1-0.2-0.1-0.3-0.2c-0.7-0.4-1.4-0.6-3,0.2c-0.1,0-0.2,0.1-0.3,0.1
	C69.218,65.019,65.518,64.919,62.218,63.319z"/>
<path id="Path-3" d="M113.118,35.419l-2.9-5.2l0.4-0.2l3.6,6.4l-7.3-0.3v-0.5l5.9,0.2l-4.3-2.6c-11.6-6.2-28-9.2-43.6-7.8
	c-17,1.5-31.5,7.9-40.3,18.6l-0.4-0.3C33.118,32.819,47.618,26.419,64.818,24.919c15.7-1.4,32.2,1.6,43.9,7.9L113.118,35.419z"/>
<g id="Group-77" transform="translate(64.164 58)">
	<ellipse id="Ellisse_12" fill="#0094C1" cx="4.718" cy="1.119" rx="7" ry="4"/>
	<ellipse id="Ellisse_18" fill="#518CFC" cx="13.618" cy="-5.381" rx="7" ry="3.5"/>
	<ellipse id="Ellisse_19" fill="#5151FC" cx="16.218" cy="-21.381" rx="5.5" ry="2.5"/>
	<ellipse id="Ellisse_20" fill="#5151FC" cx="21.618" cy="-16.381" rx="5" ry="2.5"/>
	<ellipse id="Ellisse_21" fill="#5151FC" cx="29.618" cy="-22.381" rx="7" ry="3.5"/>
	<ellipse id="Ellisse_16" fill="#00C1C1" cx="-1.782" cy="-5.381" rx="4.5" ry="2.5"/>
	<ellipse id="Ellisse_17" fill="#0094C1" cx="16.618" cy="3.119" rx="5" ry="3"/>
	<ellipse id="Ellisse_13" fill="#00C19C" cx="-20.382" cy="-8.881" rx="5" ry="3"/>
	<ellipse id="Ellisse_14" fill="#00C19C" cx="-19.782" cy="-14.881" rx="3.5" ry="2"/>
	<ellipse id="Ellisse_15" fill="#00BAC1" cx="-10.282" cy="-13.881" rx="5" ry="3"/>
</g>
<g>
	<path d="M48.09814,15.23193c0-2.23877,1.20898-3.56787,3.21777-3.56787c1.39941,0,2.37891,0.63965,2.86914,1.90869l-0.66016,0.25
		c-0.36914-0.99951-1.10938-1.47949-2.20898-1.47949c-1.59863,0-2.50781,1.03955-2.50781,2.88867
		c0,1.85889,0.89941,2.91846,2.45801,2.91846c1.08984,0,1.86914-0.50977,2.25879-1.50928l0.67969,0.25
		c-0.51953,1.26904-1.54883,1.93896-2.93848,1.93896C49.2876,18.83008,48.09814,17.48047,48.09814,15.23193z"/>
	<path d="M59.44482,15.71143v3.01855h-0.68945v-2.84863c0-1.06934-0.33984-1.54883-1.0791-1.54883
		c-0.93945,0-1.46875,0.76953-1.46875,2.12891v2.26855h-0.69043v-6.96631h0.69043v2.75879
		c0.31934-0.5,0.91895-0.7998,1.62891-0.7998C58.896,13.72266,59.44482,14.40234,59.44482,15.71143z"/>
	<path d="M64.14697,13.93262l-0.33984,0.55957c-0.23047-0.09961-0.44043-0.1499-0.65039-0.1499
		c-0.75879,0-1.31836,0.56982-1.31836,1.63916v2.74854h-0.69043v-4.92725h0.69043v0.73975
		c0.35938-0.6499,0.95898-0.81982,1.45898-0.81982C63.59717,13.72266,63.87646,13.78271,64.14697,13.93262z"/>
	<path d="M64.2876,16.26123c0-1.45898,0.9502-2.53857,2.35938-2.53857c1.39844,0,2.36816,1.07959,2.36816,2.53857
		c0,1.44922-0.95898,2.54883-2.36816,2.54883S64.2876,17.7207,64.2876,16.26123z M68.32568,16.26123
		c0-1.11914-0.62988-1.92871-1.67871-1.92871c-1.05957,0-1.66992,0.81934-1.66992,1.92871
		c0,1.11963,0.62012,1.93896,1.66992,1.93896C67.70557,18.2002,68.32568,17.36084,68.32568,16.26123z"/>
	<path d="M74.33496,15.71143v3.01855h-0.68945v-2.84863c0-1.05908-0.33984-1.54883-1.07861-1.54883
		c-0.92969,0-1.46875,0.79932-1.46875,2.18848v2.20898h-0.69043v-4.92725h0.69043v0.71973
		c0.31934-0.5,0.91895-0.7998,1.62891-0.7998C73.78613,13.72266,74.33496,14.40234,74.33496,15.71143z"/>
	<path d="M75.60742,16.26123c0-1.45898,0.9502-2.53857,2.35938-2.53857c1.39844,0,2.36816,1.07959,2.36816,2.53857
		c0,1.44922-0.95898,2.54883-2.36816,2.54883S75.60742,17.7207,75.60742,16.26123z M79.64551,16.26123
		c0-1.11914-0.62988-1.92871-1.67871-1.92871c-1.05957,0-1.66992,0.81934-1.66992,1.92871
		c0,1.11963,0.62012,1.93896,1.66992,1.93896C79.02539,18.2002,79.64551,17.36084,79.64551,16.26123z"/>
	<path d="M81.68652,17.66064v-5.89697h0.69043v5.85693c0,0.33984,0.11914,0.55957,0.44922,0.55957
		c0.15039,0,0.32031-0.04004,0.46973-0.08984l0.00977,0.58984c-0.20996,0.06982-0.45898,0.12988-0.67969,0.12988
		C82.05664,18.81006,81.68652,18.43018,81.68652,17.66064z"/>
	<path d="M83.99707,16.26123c0-1.45898,0.9502-2.53857,2.35938-2.53857c1.39844,0,2.36816,1.07959,2.36816,2.53857
		c0,1.44922-0.95898,2.54883-2.36816,2.54883S83.99707,17.7207,83.99707,16.26123z M88.03516,16.26123
		c0-1.11914-0.62988-1.92871-1.67871-1.92871c-1.05957,0-1.66992,0.81934-1.66992,1.92871
		c0,1.11963,0.62012,1.93896,1.66992,1.93896C87.41504,18.2002,88.03516,17.36084,88.03516,16.26123z"/>
	<path d="M93.9541,19.48975c0,0.9292-0.86914,1.35889-2.1084,1.35889c-1.36914,0-2.19922-0.53955-2.19922-1.51904
		c0-0.1001,0.01074-0.15967,0.02051-0.21973l0.7998-0.67969c-0.37988-0.16992-0.63965-0.44971-0.63965-0.93945
		c0-0.3999,0.17969-0.69971,0.5293-0.93945c-0.25977-0.2998-0.41992-0.67969-0.41992-1.11963
		c0-0.99951,0.81934-1.70898,1.87891-1.70898c0.47949,0,0.90918,0.1499,1.22949,0.3999l0.67969-0.58984l0.35938,0.44971
		l-0.66895,0.56006c0.16992,0.26953,0.26953,0.57959,0.26953,0.9292c0,1.00977-0.81934,1.6792-1.85938,1.6792
		c-0.37988,0-0.72949-0.08984-1.01855-0.25c-0.2002,0.10986-0.32031,0.29004-0.32031,0.5c0,0.49951,0.62012,0.61963,1.3291,0.72949
		C92.79492,18.28027,93.9541,18.41992,93.9541,19.48975z M93.26465,19.54932c0-0.59961-0.7793-0.68945-1.59863-0.81934
		c-0.2207-0.02979-0.4502-0.06982-0.66016-0.12012l-0.66992,0.6499c-0.00977,0.0498-0.00977,0.06982-0.00977,0.08984
		c0,0.69971,0.70996,0.91943,1.5498,0.91943C92.74512,20.26904,93.26465,20.0293,93.26465,19.54932z M90.61621,15.45166
		c0,0.63965,0.45996,1.12939,1.19922,1.12939c0.74023,0,1.17969-0.47949,1.17969-1.12939c0-0.67969-0.45996-1.14941-1.16992-1.14941
		C91.12598,14.30225,90.61621,14.77197,90.61621,15.45166z"/>
	<path d="M96.63574,18.66992l-2.08887-4.86719h0.75977l1.69922,4.05762l1.48926-4.05762h0.75977l-2.69922,6.96631h-0.73926
		L96.63574,18.66992z"/>
</g>
<g>
	<path d="M40.06836,72.69238h-2.40869v-0.66016h5.54688v0.66016h-2.41846v6.30664h-0.71973V72.69238z"/>
	<path d="M47.39697,76.71973h-3.60791c0.02002,1.08008,0.61963,1.72949,1.58936,1.72949c0.53955,0,0.96924-0.13965,1.41895-0.62012
		l0.47998,0.41992c-0.57959,0.60938-1.14941,0.83008-1.90918,0.83008c-1.49902,0-2.26855-1.12012-2.26855-2.51855
		c0-1.38965,0.75977-2.56934,2.18896-2.56934c1.50879,0,2.13867,1.17969,2.13867,2.29883
		C47.42725,76.43066,47.41699,76.59961,47.39697,76.71973z M43.78906,76.14062h2.97852c0-0.02051-0.01025-0.07031-0.01025-0.16016
		c-0.0498-0.7998-0.55957-1.40918-1.46875-1.40918C44.39893,74.57129,43.84912,75.27051,43.78906,76.14062z"/>
	<path d="M49.96875,76.53027l-1.79932-2.45898h0.83984l1.41895,1.97949l1.40918-1.97949h0.83984l-1.79932,2.45898l1.80908,2.46875
		H51.8374L50.42822,77l-1.40918,1.99902h-0.84961L49.96875,76.53027z"/>
	<path d="M55.94824,78.94922c-0.25977,0.0791-0.52002,0.12988-0.74951,0.12988c-0.65967,0-1.13965-0.37012-1.13965-1.23926v-3.18848
		h-0.81934v-0.58008h0.81934v-1.37891l0.68945-0.51953v1.89844h1.18945v0.58008h-1.18945v3.09766
		c0,0.48047,0.22021,0.7002,0.60986,0.7002c0.16992,0,0.35986-0.04004,0.57959-0.11035L55.94824,78.94922z"/>
	<path d="M56.7793,77.78906l0.57959-0.25977c0.17969,0.50977,0.65967,0.93945,1.4292,0.93945
		c0.66943,0,1.09961-0.3291,1.09961-0.84961c0-1.30859-2.83887-0.48926-2.83887-2.23828c0-0.85938,0.69971-1.38965,1.68945-1.38965
		c0.78955,0,1.4292,0.33008,1.76904,1.0293l-0.5498,0.2998c-0.23975-0.43945-0.62988-0.71875-1.23926-0.71875
		c-0.60986,0-0.99951,0.24902-0.99951,0.67969c0,1.16895,2.84814,0.42969,2.84814,2.29785c0,1-0.81934,1.5-1.76855,1.5
		C57.82861,79.0791,57.03906,78.5791,56.7793,77.78906z"/>
	<path d="M69.20605,76.53027c0,1.46875-0.74951,2.54883-2.18896,2.54883c-0.71924,0-1.26904-0.28027-1.62891-0.74023v0.66016
		h-0.68945v-6.9668h0.68945v2.69922c0.36963-0.48047,0.92969-0.75,1.62891-0.75
		C68.38672,73.98145,69.20605,74.99121,69.20605,76.53027z M68.5166,76.53027c0-1.16992-0.59961-1.93945-1.59912-1.93945
		c-0.98975,0-1.58936,0.76953-1.58936,1.93945c0,1.11914,0.5498,1.93848,1.58936,1.93848
		C67.9668,78.46875,68.5166,77.64941,68.5166,76.53027z"/>
	<path d="M74.53613,76.71973h-3.60791c0.02002,1.08008,0.61963,1.72949,1.58887,1.72949c0.53955,0,0.96924-0.13965,1.41943-0.62012
		l0.47949,0.41992c-0.58008,0.60938-1.14941,0.83008-1.90869,0.83008c-1.49902,0-2.26855-1.12012-2.26855-2.51855
		c0-1.38965,0.75977-2.56934,2.18848-2.56934c1.50928,0,2.13818,1.17969,2.13818,2.29883
		C74.56543,76.43066,74.55566,76.59961,74.53613,76.71973z M70.92822,76.14062h2.97803c0-0.02051-0.00977-0.07031-0.00977-0.16016
		c-0.0498-0.7998-0.55957-1.40918-1.46924-1.40918C71.53809,74.57129,70.98828,75.27051,70.92822,76.14062z"/>
	<path d="M75.91797,77.92969v-5.89746h0.69043v5.85742c0,0.33984,0.11914,0.55957,0.44922,0.55957
		c0.15039,0,0.32031-0.04004,0.46973-0.08984l0.00977,0.58984c-0.20996,0.06934-0.45898,0.12988-0.67969,0.12988
		C76.28809,79.0791,75.91797,78.69922,75.91797,77.92969z"/>
	<path d="M78.22852,76.53027c0-1.45898,0.9502-2.53906,2.35938-2.53906c1.39844,0,2.36816,1.08008,2.36816,2.53906
		c0,1.44922-0.95898,2.54883-2.36816,2.54883S78.22852,77.98926,78.22852,76.53027z M82.2666,76.53027
		c0-1.11914-0.62988-1.92871-1.67871-1.92871c-1.05957,0-1.66992,0.81934-1.66992,1.92871
		c0,1.11914,0.62012,1.93848,1.66992,1.93848C81.64648,78.46875,82.2666,77.62988,82.2666,76.53027z"/>
	<path d="M88.27539,75.98047v3.01855h-0.68945v-2.84863c0-1.05957-0.33984-1.54883-1.0791-1.54883
		c-0.92969,0-1.46875,0.79883-1.46875,2.18848v2.20898h-0.69043v-4.92773h0.69043v0.71973
		c0.31934-0.5,0.91895-0.7998,1.62891-0.7998C87.72656,73.99121,88.27539,74.6709,88.27539,75.98047z"/>
	<path d="M93.81543,79.75879c0,0.92871-0.86914,1.3584-2.1084,1.3584c-1.36914,0-2.19922-0.53906-2.19922-1.51855
		c0-0.10059,0.01074-0.16016,0.02051-0.21973l0.7998-0.67969c-0.37988-0.16992-0.63965-0.4502-0.63965-0.93945
		c0-0.40039,0.17969-0.7002,0.5293-0.93945c-0.25977-0.2998-0.41992-0.67969-0.41992-1.12012
		c0-0.99902,0.81934-1.70898,1.87891-1.70898c0.47949,0,0.91016,0.15039,1.22949,0.40039l0.67969-0.58984l0.35938,0.44922
		l-0.66895,0.56055c0.16992,0.26953,0.26953,0.5791,0.26953,0.92871c0,1.00977-0.81934,1.67969-1.85938,1.67969
		c-0.37891,0-0.72949-0.08984-1.01953-0.25c-0.19922,0.10938-0.31934,0.29004-0.31934,0.5c0,0.49902,0.62012,0.61914,1.3291,0.72949
		C92.65625,78.54883,93.81543,78.68848,93.81543,79.75879z M93.12598,79.81836c0-0.59961-0.7793-0.68945-1.59863-0.81934
		c-0.21973-0.03027-0.4502-0.07031-0.66016-0.12012l-0.66992,0.64941c-0.00977,0.0498-0.00977,0.07031-0.00977,0.08984
		c0,0.7002,0.70996,0.91992,1.5498,0.91992C92.60645,80.53809,93.12598,80.29785,93.12598,79.81836z M90.47754,75.7207
		c0,0.63965,0.45996,1.12891,1.19922,1.12891c0.74023,0,1.17969-0.47949,1.17969-1.12891c0-0.67969-0.45996-1.14941-1.16992-1.14941
		C90.9873,74.57129,90.47754,75.04102,90.47754,75.7207z"/>
	<path d="M95.12793,72.03223h0.7998v1.01953h-0.7998V72.03223z M95.1875,74.07129h0.69043v4.92773H95.1875V74.07129z"/>
	<path d="M101.625,75.98047v3.01855h-0.68945v-2.84863c0-1.05957-0.33984-1.54883-1.0791-1.54883
		c-0.92969,0-1.46875,0.79883-1.46875,2.18848v2.20898h-0.69043v-4.92773h0.69043v0.71973
		c0.31934-0.5,0.91895-0.7998,1.62891-0.7998C101.07617,73.99121,101.625,74.6709,101.625,75.98047z"/>
	<path d="M107.16504,79.75879c0,0.92871-0.86914,1.3584-2.1084,1.3584c-1.36914,0-2.19922-0.53906-2.19922-1.51855
		c0-0.10059,0.01074-0.16016,0.02051-0.21973l0.7998-0.67969c-0.37988-0.16992-0.63965-0.4502-0.63965-0.93945
		c0-0.40039,0.17969-0.7002,0.5293-0.93945c-0.25977-0.2998-0.41992-0.67969-0.41992-1.12012
		c0-0.99902,0.81934-1.70898,1.87891-1.70898c0.47949,0,0.91016,0.15039,1.22949,0.40039l0.67969-0.58984l0.35938,0.44922
		l-0.66895,0.56055c0.16992,0.26953,0.26953,0.5791,0.26953,0.92871c0,1.00977-0.81934,1.67969-1.85938,1.67969
		c-0.37891,0-0.72949-0.08984-1.01953-0.25c-0.19922,0.10938-0.31934,0.29004-0.31934,0.5c0,0.49902,0.62012,0.61914,1.3291,0.72949
		C106.00586,78.54883,107.16504,78.68848,107.16504,79.75879z M106.47559,79.81836c0-0.59961-0.7793-0.68945-1.59863-0.81934
		c-0.21973-0.03027-0.4502-0.07031-0.66016-0.12012l-0.66992,0.64941c-0.00977,0.0498-0.00977,0.07031-0.00977,0.08984
		c0,0.7002,0.70996,0.91992,1.5498,0.91992C105.95605,80.53809,106.47559,80.29785,106.47559,79.81836z M103.82715,75.7207
		c0,0.63965,0.45996,1.12891,1.19922,1.12891c0.74023,0,1.17969-0.47949,1.17969-1.12891c0-0.67969-0.45996-1.14941-1.16992-1.14941
		C104.33691,74.57129,103.82715,75.04102,103.82715,75.7207z"/>
	<path d="M31.52832,90.94922c-0.25977,0.0791-0.52002,0.12988-0.74951,0.12988c-0.65967,0-1.13965-0.37012-1.13965-1.23926v-3.18848
		h-0.81934v-0.58008h0.81934v-1.37891l0.68945-0.51953v1.89844h1.18945v0.58008h-1.18945v3.09766
		c0,0.48047,0.22021,0.7002,0.60986,0.7002c0.16992,0,0.35986-0.04004,0.57959-0.11035L31.52832,90.94922z"/>
	<path d="M32.35986,88.53027c0-1.45898,0.94922-2.53906,2.3584-2.53906c1.39941,0,2.36865,1.08008,2.36865,2.53906
		c0,1.44922-0.95947,2.54883-2.36865,2.54883S32.35986,89.98926,32.35986,88.53027z M36.39746,88.53027
		c0-1.11914-0.62988-1.92871-1.6792-1.92871c-1.05957,0-1.66895,0.81934-1.66895,1.92871c0,1.11914,0.61963,1.93848,1.66895,1.93848
		C35.77783,90.46875,36.39746,89.62988,36.39746,88.53027z"/>
	<path d="M43.2583,90.94922c-0.25977,0.0791-0.52002,0.12988-0.74951,0.12988c-0.65967,0-1.13965-0.37012-1.13965-1.23926v-3.18848
		H40.5498v-0.58008h0.81934v-1.37891l0.68994-0.51953v1.89844h1.18896v0.58008h-1.18896v3.09766
		c0,0.48047,0.21973,0.7002,0.60938,0.7002c0.16992,0,0.35986-0.04004,0.57959-0.11035L43.2583,90.94922z"/>
	<path d="M48.49707,87.98047v3.01855h-0.68945v-2.84863c0-1.06934-0.33984-1.54883-1.07959-1.54883
		c-0.93945,0-1.46924,0.76953-1.46924,2.12891v2.26855h-0.68945v-6.9668h0.68945v2.75879c0.31982-0.5,0.91943-0.7998,1.62891-0.7998
		C47.94727,85.99121,48.49707,86.6709,48.49707,87.98047z"/>
	<path d="M54.09668,88.71973h-3.60791c0.02002,1.08008,0.61963,1.72949,1.58936,1.72949c0.53955,0,0.96924-0.13965,1.41895-0.62012
		l0.47998,0.41992c-0.57959,0.60938-1.14941,0.83008-1.90918,0.83008c-1.49902,0-2.26855-1.12012-2.26855-2.51855
		c0-1.38965,0.75977-2.56934,2.18896-2.56934c1.50879,0,2.13867,1.17969,2.13867,2.29883
		C54.12695,88.43066,54.1167,88.59961,54.09668,88.71973z M50.48877,88.14062h2.97852c0-0.02051-0.01025-0.07031-0.01025-0.16016
		c-0.0498-0.7998-0.55957-1.40918-1.46875-1.40918C51.09863,86.57129,50.54883,87.27051,50.48877,88.14062z"/>
	<path d="M57.71924,89.78906l0.57959-0.25977c0.17969,0.50977,0.65967,0.93945,1.4292,0.93945
		c0.66943,0,1.09961-0.3291,1.09961-0.84961c0-1.30859-2.83887-0.48926-2.83887-2.23828c0-0.85938,0.69971-1.38965,1.68945-1.38965
		c0.78955,0,1.4292,0.33008,1.76904,1.0293l-0.5498,0.2998c-0.23975-0.43945-0.62988-0.71875-1.23926-0.71875
		c-0.60986,0-0.99951,0.24902-0.99951,0.67969c0,1.16895,2.84814,0.42969,2.84814,2.29785c0,1-0.81934,1.5-1.76904,1.5
		C58.76855,91.0791,57.979,90.5791,57.71924,89.78906z"/>
	<path d="M66.47705,87.93066v3.06836h-0.62988l-0.04004-0.75977c-0.38965,0.5498-0.98926,0.83984-1.76904,0.83984
		c-1.06934,0-1.69873-0.56055-1.69873-1.50977c0-0.49902,0.19971-0.87891,0.55957-1.09961
		c0.37988-0.21973,0.90967-0.30957,1.87891-0.30957h1.00928v-0.22949c0-0.85938-0.44971-1.3291-1.2793-1.3291
		c-0.61963,0-1.09912,0.26953-1.49902,0.81934l-0.49951-0.41992c0.5293-0.68945,1.16895-1.00977,2.00879-1.00977
		C65.75732,85.99121,66.47705,86.70117,66.47705,87.93066z M65.78711,88.79004v-0.07031h-0.94922
		c-0.90967,0-1.29932,0.06055-1.53906,0.25c-0.18018,0.13965-0.27002,0.36035-0.27002,0.63965
		c0,0.5498,0.46973,0.89941,1.20947,0.89941C65.1875,90.50879,65.78711,89.83984,65.78711,88.79004z"/>
	<path d="M74.91504,87.9209v3.07812h-0.68945v-2.88867c0-0.41992,0-1.50879-1.08008-1.50879
		c-0.99854,0-1.26855,0.91895-1.26855,2.02832v2.36914H71.1875v-2.84863c0-0.81934-0.25-1.54883-1.10938-1.54883
		c-0.95947,0-1.22949,0.90918-1.22949,2.02832v2.36914h-0.68945l-0.01025-4.92773h0.66992v0.59961
		c0.30957-0.48926,0.80957-0.67969,1.35889-0.67969c0.68994,0,1.19971,0.2998,1.44922,0.9502
		c0.31982-0.62988,0.86963-0.9502,1.61914-0.9502C74.4248,85.99121,74.91504,86.77148,74.91504,87.9209z"/>
	<path d="M80.5166,88.71973h-3.6084c0.02051,1.08008,0.62012,1.72949,1.58887,1.72949c0.54004,0,0.96973-0.13965,1.41992-0.62012
		l0.47949,0.41992c-0.58008,0.60938-1.14941,0.83008-1.90918,0.83008c-1.49902,0-2.26855-1.12012-2.26855-2.51855
		c0-1.38965,0.75977-2.56934,2.18848-2.56934c1.50977,0,2.13867,1.17969,2.13867,2.29883
		C80.5459,88.43066,80.53613,88.59961,80.5166,88.71973z M76.9082,88.14062h2.97852c0-0.02051-0.00977-0.07031-0.00977-0.16016
		c-0.0498-0.7998-0.55957-1.40918-1.46973-1.40918C77.51758,86.57129,76.96875,87.27051,76.9082,88.14062z"/>
	<path d="M83.95898,86.07129h0.74902l1.5498,4.04785l1.55859-4.04785h0.75977l-2.01855,4.92773h-0.58984L83.95898,86.07129z"/>
	<path d="M89.1084,88.53027c0-1.45898,0.9502-2.53906,2.35938-2.53906c1.39844,0,2.36816,1.08008,2.36816,2.53906
		c0,1.44922-0.95898,2.54883-2.36816,2.54883S89.1084,89.98926,89.1084,88.53027z M93.14648,88.53027
		c0-1.11914-0.62988-1.92871-1.67871-1.92871c-1.05957,0-1.66992,0.81934-1.66992,1.92871
		c0,1.11914,0.62012,1.93848,1.66992,1.93848C92.52637,90.46875,93.14648,89.62988,93.14648,88.53027z"/>
	<path d="M95.1875,89.92969v-5.89746h0.69043v5.85742c0,0.33984,0.11914,0.55957,0.44922,0.55957
		c0.15039,0,0.32031-0.04004,0.46973-0.08984l0.00977,0.58984c-0.20996,0.06934-0.45898,0.12988-0.67969,0.12988
		C95.55762,91.0791,95.1875,90.69922,95.1875,89.92969z"/>
	<path d="M101.68652,86.07129v4.92773h-0.69043v-0.70996c-0.34961,0.53027-0.97949,0.79004-1.62891,0.79004
		c-1.11914,0-1.6084-0.76953-1.6084-1.98926v-3.01855h0.68945v2.84863c0,0.7998,0.13965,1.54883,1.0791,1.54883
		c0.97949,0,1.46875-0.84961,1.46875-2.12891v-2.26855H101.68652z"/>
	<path d="M110.26465,87.9209v3.07812h-0.68945v-2.88867c0-0.41992,0-1.50879-1.08008-1.50879
		c-0.99902,0-1.26855,0.91895-1.26855,2.02832v2.36914h-0.69043v-2.84863c0-0.81934-0.25-1.54883-1.10938-1.54883
		c-0.95898,0-1.22852,0.90918-1.22852,2.02832v2.36914h-0.69043l-0.00977-4.92773h0.66992v0.59961
		c0.30957-0.48926,0.80957-0.67969,1.35938-0.67969c0.68945,0,1.19922,0.2998,1.44922,0.9502
		c0.31934-0.62988,0.86914-0.9502,1.61914-0.9502C109.77441,85.99121,110.26465,86.77148,110.26465,87.9209z"/>
	<path d="M115.86621,88.71973h-3.6084c0.02051,1.08008,0.62012,1.72949,1.58887,1.72949c0.54004,0,0.96973-0.13965,1.41992-0.62012
		l0.47949,0.41992c-0.58008,0.60938-1.14941,0.83008-1.90918,0.83008c-1.49902,0-2.26855-1.12012-2.26855-2.51855
		c0-1.38965,0.75977-2.56934,2.18848-2.56934c1.50977,0,2.13867,1.17969,2.13867,2.29883
		C115.89551,88.43066,115.88574,88.59961,115.86621,88.71973z M112.25781,88.14062h2.97852
		c0-0.02051-0.00977-0.07031-0.00977-0.16016c-0.0498-0.7998-0.55957-1.40918-1.46973-1.40918
		C112.86719,86.57129,112.31836,87.27051,112.25781,88.14062z"/>
</g>
</svg>
