<?xml version="1.0" encoding="utf-8"?>
<!-- Generator: Adobe Illustrator 24.0.1, SVG Export Plug-In . SVG Version: 6.00 Build 0)  -->
<svg version="1.1" id="Livello_1" xmlns="http://www.w3.org/2000/svg" xmlns:xlink="http://www.w3.org/1999/xlink" x="0px" y="0px"
	 viewBox="0 0 220.4 74.6" style="enable-background:new 0 0 220.4 74.6;" xml:space="preserve">
<style type="text/css">
	.st0_54eu0o{font-family:'HKGrotesk-Regular';}
	.st1_54eu0o{font-size:10px;}
	.st2_54eu0o{fill:#00C19C;stroke:#444444;stroke-width:0.25;}
	.st3_54eu0o{fill:#00BAC1;stroke:#444444;stroke-width:0.25;}
	.st4_54eu0o{fill:#5151FC;stroke:#444444;stroke-width:0.25;}
	.st5_54eu0o{fill:#566973;}
</style>
<g id="modalita-cronologia" transform="translate(-0.375 -0.574)">
	<text transform="matrix(1 0 0 1 18.434 73.867)" class="st0_54eu0o st1_54eu0o">1943</text>
	<text transform="matrix(1 0 0 1 177.5 73.867)" class="st0_54eu0o st1_54eu0o">1985</text>
	<g id="Group" transform="translate(0 0.399)">
		<ellipse id="Oval" class="st2_54eu0o" cx="31.1" cy="33.1" rx="30.6" ry="17.7"/>
		<ellipse id="Oval-2" class="st2_54eu0o" cx="31.1" cy="29" rx="26.6" ry="15.4"/>
		<ellipse id="Oval-3" class="st2_54eu0o" cx="31.1" cy="24.9" rx="23.6" ry="13.6"/>
		<ellipse id="Oval-4" class="st2_54eu0o" cx="31.1" cy="20.9" rx="21.4" ry="12.4"/>
		<ellipse id="Oval-5" class="st2_54eu0o" cx="31.1" cy="16.8" rx="19.4" ry="11.2"/>
		<ellipse id="Oval-6" class="st2_54eu0o" cx="31.1" cy="12.7" rx="16.8" ry="9.7"/>
		<ellipse id="Oval-7" class="st2_54eu0o" cx="31.1" cy="8.6" rx="13" ry="7.5"/>
		<ellipse id="Oval-8" class="st2_54eu0o" cx="31.1" cy="4.6" rx="7.5" ry="4.3"/>
	</g>
	<g id="Group-2" transform="translate(79.3 0.399)">
		<ellipse id="Oval-9" class="st3_54eu0o" cx="31.2" cy="33.1" rx="30.6" ry="17.7"/>
		<ellipse id="Oval-10" class="st3_54eu0o" cx="31.2" cy="29" rx="26.6" ry="15.4"/>
		<ellipse id="Oval-11" class="st3_54eu0o" cx="31.2" cy="24.9" rx="23.6" ry="13.6"/>
		<ellipse id="Oval-12" class="st3_54eu0o" cx="31.2" cy="20.9" rx="21.4" ry="12.4"/>
		<ellipse id="Oval-13" class="st3_54eu0o" cx="31.2" cy="16.8" rx="19.4" ry="11.2"/>
		<ellipse id="Oval-14" class="st3_54eu0o" cx="31.2" cy="12.7" rx="16.8" ry="9.7"/>
		<ellipse id="Oval-15" class="st3_54eu0o" cx="31.2" cy="8.6" rx="13" ry="7.5"/>
		<ellipse id="Oval-16" class="st3_54eu0o" cx="31.2" cy="4.6" rx="7.5" ry="4.3"/>
	</g>
	<g id="Group-2-2" transform="translate(159.5 0.699)">
		<ellipse id="Oval-17" class="st4_54eu0o" cx="30.6" cy="32.8" rx="30.6" ry="17.7"/>
		<ellipse id="Oval-18" class="st4_54eu0o" cx="30.6" cy="28.7" rx="26.6" ry="15.4"/>
		<ellipse id="Oval-19" class="st4_54eu0o" cx="30.6" cy="24.6" rx="23.6" ry="13.6"/>
		<ellipse id="Oval-20" class="st4_54eu0o" cx="30.6" cy="20.6" rx="21.4" ry="12.4"/>
		<ellipse id="Oval-21" class="st4_54eu0o" cx="30.6" cy="16.5" rx="19.4" ry="11.2"/>
		<ellipse id="Oval-22" class="st4_54eu0o" cx="30.6" cy="12.4" rx="16.8" ry="9.7"/>
		<ellipse id="Oval-23" class="st4_54eu0o" cx="30.6" cy="8.3" rx="13" ry="7.5"/>
		<ellipse id="Oval-24" class="st4_54eu0o" cx="30.6" cy="4.3" rx="7.5" ry="4.3"/>
	</g>
	<g id="Group-3" transform="translate(26 60.399)">
		<rect id="Rectangle" x="-5" y="0.8" class="st5_54eu0o" width="176.1" height="1"/>
	</g>
</g>
</svg>
