<?xml version="1.0" encoding="utf-8"?>
<!-- Generator: Adobe Illustrator 25.0.0, SVG Export Plug-In . SVG Version: 6.00 Build 0)  -->
<svg version="1.1" id="Livello_1" xmlns="http://www.w3.org/2000/svg" xmlns:xlink="http://www.w3.org/1999/xlink" x="0px" y="0px"
	 viewBox="0 0 84.5 75" enable-background="new 0 0 84.5 75" xml:space="preserve">
<g id="Group" transform="translate(0 1)">
	<ellipse id="Oval" fill="#FFFFFF" stroke="#444444" stroke-width="0.75" cx="31.1" cy="32.5" rx="30.7" ry="17.7"/>
	<ellipse id="Oval-2" fill="#FFFFFF" stroke="#444444" stroke-width="0.5" cx="31.1" cy="28.4" rx="26.7" ry="15.4"/>
	<ellipse id="Oval-3" fill="#FFFFFF" stroke="#444444" stroke-width="0.5" cx="31.1" cy="24.4" rx="23.6" ry="13.6"/>
	<ellipse id="Oval-4" fill="#FFFFFF" stroke="#444444" stroke-width="0.5" cx="31.1" cy="20.3" rx="21.4" ry="12.4"/>
	<ellipse id="Oval-5" fill="#FFFFFF" stroke="#444444" stroke-width="0.5" cx="31.1" cy="16.2" rx="19.4" ry="11.2"/>
	<ellipse id="Oval-6" fill="#FFFFFF" stroke="#444444" stroke-width="0.5" cx="31.1" cy="12.1" rx="16.8" ry="9.7"/>
	<ellipse id="Oval-7" fill="#FFFFFF" stroke="#444444" stroke-width="0.5" cx="31.1" cy="8" rx="13" ry="7.5"/>
	<ellipse id="Oval-8" fill="#FFFFFF" stroke="#444444" stroke-width="0.5" cx="31.1" cy="3.9" rx="7.5" ry="4.3"/>
</g>
<g id="Group-2" transform="translate(0 58)">
	<path id="Path" fill="none" stroke="#444444" stroke-width="0.5" d="M61.7,1.2L0.5,1.4"/>
	
		<rect id="Rectangle" x="61.50026" y="-0.4001" transform="matrix(1 -0.003 0.003 1 -0.00347 0.186)" fill="#444444" width="1" height="3.30001"/>
	
		<rect id="Rectangle-2" x="0.29998" y="-0.20008" transform="matrix(1 -0.00311 0.00311 1 -0.0045 0.00249)" fill="#444444" width="1" height="3.30002"/>
</g>
<g id="Group-3" transform="translate(68 1)">
	<path id="Path-2" fill="none" stroke="#444444" stroke-width="0.5" d="M1.9,50.1V-0.5"/>
	<rect id="Rectangle-3" x="0.2" y="49.8" fill="#444444" width="3.2" height="1"/>
	<rect id="Rectangle-4" x="0.2" y="-0.8" fill="#444444" width="3.2" height="1"/>
</g>
<g id="Group-4" transform="translate(61 32)">
	<path id="Path-3" fill="none" stroke="#444444" stroke-width="0.25" d="M0.8,26.2v-1"/>
	<path id="Path-4" fill="none" stroke="#444444" stroke-width="0.25" stroke-dasharray="1.9,1.9" d="M0.8,23.3V1.4"/>
	<path id="Path-5" fill="none" stroke="#444444" stroke-width="0.25" d="M0.8,0.5v-1"/>
</g>
<g id="Group-5" transform="translate(0 32)">
	<path id="Path-6" fill="none" stroke="#444444" stroke-width="0.25" d="M0.5,26.2v-1"/>
	<path id="Path-7" fill="none" stroke="#444444" stroke-width="0.25" stroke-dasharray="1.9,1.9" d="M0.5,23.3V1.5"/>
	<path id="Path-8" fill="none" stroke="#444444" stroke-width="0.25" d="M0.5,0.5v-1"/>
</g>
<g id="Group-6" transform="translate(31)">
	<path id="Path-9" fill="none" stroke="#444444" stroke-width="0.25" d="M0.2,0.4h1"/>
	<path id="Path-10" fill="none" stroke="#444444" stroke-width="0.25" stroke-dasharray="2.114,2.114" d="M3.3,0.4H36"/>
	<path id="Path-11" fill="none" stroke="#444444" stroke-width="0.25" d="M37.1,0.4h1"/>
</g>
<g id="Group-7-2" transform="translate(31 51)">
	<path id="Path-12" fill="none" stroke="#444444" stroke-width="0.25" d="M0.2,0.1h1"/>
	<path id="Path-13" fill="none" stroke="#444444" stroke-width="0.25" stroke-dasharray="2.114,2.114" d="M3.3,0.1H36"/>
	<path id="Path-14" fill="none" stroke="#444444" stroke-width="0.25" d="M37.1,0.1h1"/>
</g>
<g>
	<rect x="0.29486" y="65.91862" fill="none" width="59.99988" height="15.16276"/>
	<path d="M3.04346,66.58203H0.63477v-0.65918h5.54688v0.65918H3.76318v6.30664H3.04346V66.58203z"/>
	<path d="M10.37207,70.61035H6.76416c0.02002,1.0791,0.61963,1.72852,1.58936,1.72852c0.53955,0,0.96924-0.13965,1.41895-0.61914
		l0.47998,0.41895c-0.57959,0.61035-1.14941,0.83008-1.90918,0.83008c-1.49902,0-2.26855-1.11914-2.26855-2.51855
		c0-1.38965,0.75977-2.56836,2.18896-2.56836c1.50879,0,2.13867,1.17871,2.13867,2.29785
		C10.40234,70.32031,10.39209,70.49023,10.37207,70.61035z M6.76416,70.03027h2.97852c0-0.02051-0.01025-0.07031-0.01025-0.16016
		c-0.0498-0.7998-0.55957-1.40918-1.46875-1.40918C7.37402,68.46094,6.82422,69.16113,6.76416,70.03027z"/>
	<path d="M12.94385,70.41992l-1.79932-2.45898h0.83984l1.41895,1.97949l1.40918-1.97949h0.83984l-1.79932,2.45898l1.80908,2.46875
		H14.8125l-1.40918-1.99902l-1.40918,1.99902h-0.84961L12.94385,70.41992z"/>
	<path d="M18.92285,72.83887c-0.25977,0.08008-0.52002,0.12988-0.74951,0.12988c-0.65967,0-1.13965-0.37012-1.13965-1.23926
		v-3.18848h-0.81934v-0.58008h0.81934v-1.37891l0.68994-0.51953v1.89844h1.18896v0.58008h-1.18896v3.09863
		c0,0.47949,0.21973,0.69922,0.60938,0.69922c0.16992,0,0.35986-0.04004,0.57959-0.10938L18.92285,72.83887z"/>
	<path d="M22.92383,71.81934v-5.89648h0.68945v5.85645c0,0.33984,0.12012,0.55957,0.44971,0.55957
		c0.1499,0,0.31982-0.04004,0.46973-0.08984l0.01025,0.58984c-0.20996,0.06934-0.45996,0.12988-0.67969,0.12988
		C23.29346,72.96875,22.92383,72.58887,22.92383,71.81934z"/>
	<path d="M29.56104,70.61035h-3.60791c0.02002,1.0791,0.61963,1.72852,1.58936,1.72852c0.53955,0,0.96924-0.13965,1.41895-0.61914
		l0.47998,0.41895c-0.57959,0.61035-1.14941,0.83008-1.90918,0.83008c-1.49902,0-2.26855-1.11914-2.26855-2.51855
		c0-1.38965,0.75977-2.56836,2.18896-2.56836c1.50879,0,2.13867,1.17871,2.13867,2.29785
		C29.59131,70.32031,29.58105,70.49023,29.56104,70.61035z M25.95312,70.03027h2.97852c0-0.02051-0.01025-0.07031-0.01025-0.16016
		c-0.0498-0.7998-0.55957-1.40918-1.46875-1.40918C26.56299,68.46094,26.01318,69.16113,25.95312,70.03027z"/>
	<path d="M34.91113,69.87012v3.01855h-0.68945v-2.84863c0-1.05957-0.33984-1.54883-1.07959-1.54883
		c-0.92969,0-1.46924,0.7998-1.46924,2.18848v2.20898H30.9834v-4.92773h0.68945v0.71973
		c0.31982-0.49902,0.91943-0.79883,1.62891-0.79883C34.36133,67.88184,34.91113,68.56152,34.91113,69.87012z"/>
	<path d="M40.45117,73.64844c0,0.92969-0.86963,1.35938-2.10889,1.35938c-1.36914,0-2.19873-0.54004-2.19873-1.51953
		c0-0.09961,0.00977-0.16016,0.02002-0.21973l0.79932-0.67969c-0.37988-0.16992-0.63965-0.4502-0.63965-0.93945
		c0-0.39941,0.17969-0.69922,0.52979-0.93945c-0.25977-0.2998-0.41992-0.67969-0.41992-1.11914c0-1,0.81982-1.70898,1.87891-1.70898
		c0.47998,0,0.90967,0.14941,1.22949,0.39941l0.67969-0.58984l0.35986,0.4502l-0.66992,0.55957
		c0.16992,0.26953,0.27002,0.5791,0.27002,0.92969c0,1.00879-0.81934,1.67871-1.85889,1.67871
		c-0.37988,0-0.72949-0.08984-1.01953-0.25c-0.19971,0.11035-0.31982,0.29004-0.31982,0.5c0,0.5,0.61963,0.61914,1.3291,0.72949
		C39.2915,72.43848,40.45117,72.5791,40.45117,73.64844z M39.76123,73.70801c0-0.59961-0.7793-0.68945-1.59912-0.81934
		c-0.21973-0.03027-0.44971-0.07031-0.65967-0.12012l-0.66943,0.64941c-0.00977,0.05078-0.00977,0.07031-0.00977,0.09082
		c0,0.69922,0.70947,0.91895,1.54883,0.91895C39.2417,74.42773,39.76123,74.1875,39.76123,73.70801z M37.11279,69.61035
		c0,0.63965,0.45996,1.12988,1.19922,1.12988c0.73975,0,1.17969-0.48047,1.17969-1.12988c0-0.67969-0.45996-1.14941-1.16943-1.14941
		C37.62256,68.46094,37.11279,68.93066,37.11279,69.61035z"/>
	<path d="M43.87207,72.83887c-0.25977,0.08008-0.51953,0.12988-0.74902,0.12988c-0.66016,0-1.14014-0.37012-1.14014-1.23926
		v-3.18848h-0.81934v-0.58008h0.81934v-1.37891l0.68994-0.51953v1.89844h1.18945v0.58008h-1.18945v3.09863
		c0,0.47949,0.21973,0.69922,0.60938,0.69922c0.16992,0,0.36035-0.04004,0.58008-0.10938L43.87207,72.83887z"/>
	<path d="M49.11035,69.87012v3.01855H48.4209v-2.84863c0-1.06934-0.33984-1.54883-1.0791-1.54883
		c-0.93945,0-1.46973,0.76953-1.46973,2.12891v2.26855h-0.68945v-6.96582h0.68945v2.75781
		c0.32031-0.49902,0.91992-0.79883,1.62988-0.79883C48.56152,67.88184,49.11035,68.56152,49.11035,69.87012z"/>
</g>
<g>
	<path d="M83.00586,2.74854V0.33984h0.65918v5.54688h-0.65918V3.46826h-6.30664V2.74854H83.00586z"/>
	<path d="M78.97754,10.07715V6.46924c-1.0791,0.02002-1.72852,0.61963-1.72852,1.58936c0,0.53955,0.13965,0.96924,0.61914,1.41895
		l-0.41895,0.47998c-0.61035-0.57959-0.83008-1.14941-0.83008-1.90918c0-1.49902,1.11914-2.26855,2.51855-2.26855
		c1.38965,0,2.56836,0.75977,2.56836,2.18896c0,1.50879-1.17871,2.13867-2.29785,2.13867
		C79.26758,10.10742,79.09766,10.09717,78.97754,10.07715z M79.55762,6.46924v2.97852c0.02051,0,0.07031-0.01025,0.16016-0.01025
		c0.7998-0.0498,1.40918-0.55957,1.40918-1.46875C81.12695,7.0791,80.42676,6.5293,79.55762,6.46924z"/>
	<path d="M79.16797,12.64893l2.45898-1.79932v0.83984l-1.97949,1.41895l1.97949,1.40918v0.83984l-2.45898-1.79932l-2.46875,1.80908
		v-0.84961l1.99902-1.40918l-1.99902-1.40918v-0.84961L79.16797,12.64893z"/>
	<path d="M76.74902,18.62842c-0.08008-0.25977-0.12988-0.52002-0.12988-0.74951c0-0.65967,0.37012-1.13965,1.23926-1.13965h3.18848
		v-0.81934h0.58008v0.81934h1.37891l0.51953,0.68945h-1.89844v1.18945h-0.58008v-1.18945h-3.09863
		c-0.47949,0-0.69922,0.22021-0.69922,0.60986c0,0.16992,0.04004,0.35986,0.10938,0.57959L76.74902,18.62842z"/>
	<path d="M77.76855,22.62939h5.89648v0.68945h-5.85645c-0.33984,0-0.55957,0.12012-0.55957,0.44971
		c0,0.1499,0.04004,0.31982,0.08984,0.46973l-0.58984,0.01025c-0.06934-0.20996-0.12988-0.45996-0.12988-0.67969
		C76.61914,22.99902,76.99902,22.62939,77.76855,22.62939z"/>
	<path d="M78.97754,29.2666v-3.60791c-1.0791,0.02002-1.72852,0.61963-1.72852,1.58936c0,0.53955,0.13965,0.96924,0.61914,1.41895
		l-0.41895,0.47998c-0.61035-0.57959-0.83008-1.14941-0.83008-1.90918c0-1.49902,1.11914-2.26855,2.51855-2.26855
		c1.38965,0,2.56836,0.75977,2.56836,2.18896c0,1.50879-1.17871,2.13867-2.29785,2.13867
		C79.26758,29.29688,79.09766,29.28662,78.97754,29.2666z M79.55762,25.65869v2.97852c0.02051,0,0.07031-0.01025,0.16016-0.01025
		c0.7998-0.0498,1.40918-0.55957,1.40918-1.46875C81.12695,26.26855,80.42676,25.71875,79.55762,25.65869z"/>
	<path d="M79.71777,34.6167h-3.01855v-0.68945h2.84863c1.05957,0,1.54883-0.33984,1.54883-1.07959
		c0-0.92969-0.7998-1.46924-2.18848-1.46924h-2.20898v-0.68945h4.92773v0.68945h-0.71973
		c0.49902,0.31982,0.79883,0.91943,0.79883,1.62891C81.70605,34.06689,81.02637,34.6167,79.71777,34.6167z"/>
	<path d="M75.93945,40.15625c-0.92969,0-1.35938-0.86914-1.35938-2.1084c0-1.36914,0.54004-2.19873,1.51953-2.19873
		c0.09961,0,0.16016,0.00977,0.21973,0.02002l0.67969,0.79932c0.16992-0.37988,0.4502-0.63965,0.93945-0.63965
		c0.39941,0,0.69922,0.18018,0.93945,0.52979c0.2998-0.25977,0.67969-0.41992,1.11914-0.41992c1,0,1.70898,0.81982,1.70898,1.87891
		c0,0.47949-0.14941,0.90918-0.39941,1.22949l0.58984,0.67969l-0.4502,0.35938l-0.55957-0.66992
		c-0.26953,0.16992-0.5791,0.27051-0.92969,0.27051c-1.00879,0-1.67871-0.81934-1.67871-1.85938
		c0-0.37939,0.08984-0.729,0.25-1.01904c-0.11035-0.19971-0.29004-0.31982-0.5-0.31982c-0.5,0-0.61914,0.61963-0.72949,1.3291
		C77.14941,38.99707,77.00879,40.15625,75.93945,40.15625z M75.87988,39.4668c0.59961,0,0.68945-0.7793,0.81934-1.59912
		c0.03027-0.21973,0.07031-0.44971,0.12012-0.65967l-0.64941-0.66943c-0.05078-0.01025-0.07031-0.01025-0.09082-0.01025
		c-0.69922,0-0.91895,0.70996-0.91895,1.54883C75.16016,38.94727,75.40039,39.4668,75.87988,39.4668z M79.97754,36.81836
		c-0.63965,0-1.12988,0.45996-1.12988,1.19922s0.48047,1.17969,1.12988,1.17969c0.67969,0,1.14941-0.45996,1.14941-1.16992
		C81.12695,37.32812,80.65723,36.81836,79.97754,36.81836z"/>
	<path d="M76.74902,43.57715c-0.08008-0.25977-0.12988-0.51953-0.12988-0.74902c0-0.66016,0.37012-1.13965,1.23926-1.13965h3.18848
		v-0.81934h0.58008v0.81934h1.37891l0.51953,0.68945h-1.89844v1.18945h-0.58008v-1.18945h-3.09863
		c-0.47949,0-0.69922,0.21973-0.69922,0.60938c0,0.16992,0.04004,0.36035,0.10938,0.58008L76.74902,43.57715z"/>
	<path d="M79.71777,48.81641h-3.01855v-0.68945h2.84863c1.06934,0,1.54883-0.33984,1.54883-1.0791
		c0-0.93945-0.76953-1.46875-2.12891-1.46875h-2.26855v-0.69043h6.96582v0.69043h-2.75781
		c0.49902,0.31934,0.79883,0.91895,0.79883,1.62891C81.70605,48.26758,81.02637,48.81641,79.71777,48.81641z"/>
</g>
</svg>
