<?xml version="1.0" encoding="utf-8"?>
<!-- Generator: Adobe Illustrator 25.0.0, SVG Export Plug-In . SVG Version: 6.00 Build 0)  -->
<svg version="1.1" id="Livello_1" xmlns="http://www.w3.org/2000/svg" xmlns:xlink="http://www.w3.org/1999/xlink" x="0px" y="0px"
	 viewBox="0 0 84.5 75" enable-background="new 0 0 84.5 75" xml:space="preserve">
<ellipse id="Oval" fill="#FFFFFF" stroke="#444444" stroke-width="0.75" cx="31.075" cy="33.506" rx="30.7" ry="17.7"/>
<ellipse id="Oval-2" fill="#FFFFFF" stroke="#444444" stroke-width="0.5" cx="31.075" cy="29.406" rx="26.7" ry="15.4"/>
<ellipse id="Oval-3" fill="#FFFFFF" stroke="#444444" stroke-width="0.5" cx="31.075" cy="25.406" rx="23.6" ry="13.6"/>
<ellipse id="Oval-4" fill="#FFFFFF" stroke="#444444" stroke-width="0.5" cx="31.075" cy="21.306" rx="21.4" ry="12.4"/>
<ellipse id="Oval-5" fill="#FFFFFF" stroke="#444444" stroke-width="0.5" cx="31.075" cy="17.206" rx="19.4" ry="11.2"/>
<ellipse id="Oval-6" fill="#FFFFFF" stroke="#444444" stroke-width="0.5" cx="31.075" cy="13.106" rx="16.8" ry="9.7"/>
<ellipse id="Oval-7" fill="#FFFFFF" stroke="#444444" stroke-width="0.5" cx="31.075" cy="9.006" rx="13" ry="7.5"/>
<ellipse id="Oval-8" fill="#FFFFFF" stroke="#444444" stroke-width="0.5" cx="31.075" cy="4.906" rx="7.5" ry="4.3"/>
<path id="Path" fill="none" stroke="#444444" stroke-width="0.5" d="M61.675,59.206l-61.2,0.2"/>
<rect id="Rectangle" x="61.47527" y="57.606" transform="matrix(1 -0.003 0.003 1 -0.17749 0.18619)" fill="#444444" width="1" height="3.30001"/>
<rect id="Rectangle-2" x="-0.025" y="57.806" transform="matrix(1 -0.00311 0.00311 1 -0.18471 0.00176)" fill="#444444" width="1" height="3.30002"/>
<path id="Path-2" fill="none" stroke="#444444" stroke-width="0.5" d="M69.875,51.106v-50.6"/>
<rect id="Rectangle-3" x="68.175" y="50.806" fill="#444444" width="3.2" height="1"/>
<rect id="Rectangle-4" x="68.175" y="0.206" fill="#444444" width="3.2" height="1"/>
<g enable-background="new    ">
	<path d="M1.39111,65.70801h0.70996v6.30664H5.2793v0.65918H1.39111V65.70801z"/>
	<path d="M10.13916,67.74609v4.92773H9.44971v-0.70996c-0.3501,0.53027-0.97949,0.79004-1.62939,0.79004
		c-1.11914,0-1.60889-0.76953-1.60889-1.98926v-3.01855h0.68945v2.84863c0,0.7998,0.14014,1.5498,1.07959,1.5498
		c0.97949,0,1.46924-0.84961,1.46924-2.12891v-2.26953H10.13916z"/>
	<path d="M15.88916,69.65527v3.01855h-0.68945V69.8252c0-1.05957-0.33984-1.54883-1.07959-1.54883
		c-0.92969,0-1.46924,0.7998-1.46924,2.18848v2.20898h-0.68945v-4.92773h0.68945v0.71973
		c0.31982-0.49902,0.91943-0.79883,1.62891-0.79883C15.33936,67.66699,15.88916,68.34668,15.88916,69.65527z"/>
	<path d="M21.4292,73.43359c0,0.92969-0.86963,1.35938-2.10889,1.35938c-1.36914,0-2.19873-0.54004-2.19873-1.51953
		c0-0.09961,0.00977-0.16016,0.02002-0.21973l0.79932-0.67969c-0.37988-0.16992-0.63965-0.4502-0.63965-0.93945
		c0-0.39941,0.18018-0.69922,0.52979-0.93945c-0.25977-0.2998-0.41992-0.67969-0.41992-1.11914c0-1,0.81982-1.70898,1.87891-1.70898
		c0.47998,0,0.90967,0.14941,1.22949,0.39941l0.67969-0.58984l0.35986,0.4502l-0.66992,0.55957
		c0.16992,0.26953,0.27002,0.5791,0.27002,0.92969c0,1.00879-0.81934,1.67871-1.85889,1.67871
		c-0.37988,0-0.72949-0.08984-1.01953-0.25c-0.19971,0.11035-0.31982,0.29004-0.31982,0.5c0,0.5,0.61963,0.61914,1.3291,0.72949
		C20.26953,72.22363,21.4292,72.36426,21.4292,73.43359z M20.73926,73.49316c0-0.59961-0.7793-0.68945-1.59912-0.81934
		c-0.21973-0.03027-0.44971-0.07031-0.65967-0.12012l-0.66943,0.64941c-0.01025,0.05078-0.01025,0.07031-0.01025,0.09082
		c0,0.69922,0.70996,0.91895,1.54932,0.91895C20.21973,74.21289,20.73926,73.97266,20.73926,73.49316z M18.09082,69.39551
		c0,0.63965,0.45996,1.12988,1.19922,1.12988c0.73975,0,1.17969-0.48047,1.17969-1.12988c0-0.67969-0.45996-1.14941-1.16943-1.14941
		C18.60059,68.24609,18.09082,68.71582,18.09082,69.39551z"/>
	<path d="M26.729,69.65527v3.01855h-0.68945V69.8252c0-1.06934-0.33984-1.54883-1.07959-1.54883
		c-0.93945,0-1.46924,0.76953-1.46924,2.12891v2.26855h-0.68945v-6.96582h0.68945v2.75781
		c0.31982-0.49902,0.91943-0.79883,1.62891-0.79883C26.1792,67.66699,26.729,68.34668,26.729,69.65527z"/>
	<path d="M32.32861,70.39551H28.7207c0.02002,1.0791,0.61963,1.72852,1.58936,1.72852c0.53955,0,0.96924-0.13965,1.41895-0.61914
		l0.47998,0.41895c-0.57959,0.61035-1.14941,0.83008-1.90918,0.83008c-1.49902,0-2.26855-1.11914-2.26855-2.51855
		c0-1.38965,0.75977-2.56836,2.18896-2.56836c1.50879,0,2.13867,1.17871,2.13867,2.29785
		C32.35889,70.10547,32.34863,70.27539,32.32861,70.39551z M28.7207,69.81543h2.97852c0-0.02051-0.01025-0.07031-0.01025-0.16016
		c-0.0498-0.7998-0.55957-1.40918-1.46875-1.40918C29.33057,68.24609,28.78076,68.94629,28.7207,69.81543z"/>
	<path d="M37.30908,68.2959l-3.2085,3.78809h3.18848v0.58984h-4.09814v-0.5l3.27832-3.83789h-3.1084v-0.58984h3.94824V68.2959z"/>
	<path d="M42.1792,68.2959l-3.2085,3.78809h3.18848v0.58984h-4.09814v-0.5l3.27832-3.83789h-3.1084v-0.58984h3.94824V68.2959z"/>
	<path d="M47.15918,69.60547v3.06836H46.5293l-0.04004-0.75977c-0.38965,0.5498-0.98926,0.83984-1.76855,0.83984
		c-1.06934,0-1.69922-0.55957-1.69922-1.50977c0-0.49902,0.2002-0.87891,0.55957-1.09863
		c0.37988-0.21973,0.91016-0.31055,1.87891-0.31055h1.00977v-0.22949c0-0.85938-0.4502-1.3291-1.2793-1.3291
		c-0.62012,0-1.09961,0.26953-1.49902,0.81934l-0.5-0.41992c0.5293-0.68945,1.16895-1.00879,2.00879-1.00879
		C46.43945,67.66699,47.15918,68.37598,47.15918,69.60547z M46.46973,70.46484v-0.06934h-0.94922
		c-0.91016,0-1.2998,0.05957-1.53906,0.24902c-0.18066,0.14062-0.27051,0.36035-0.27051,0.63965
		c0,0.5498,0.46973,0.90039,1.20996,0.90039C45.87012,72.18457,46.46973,71.51465,46.46973,70.46484z"/>
	<path d="M53.62012,72.62402c-0.25977,0.08008-0.52051,0.12988-0.75,0.12988c-0.65918,0-1.13965-0.37012-1.13965-1.23926v-3.18848
		h-0.81934v-0.58008h0.81934v-1.37891l0.68945-0.51953v1.89844h1.18945v0.58008h-1.18945v3.09863
		c0,0.47949,0.2207,0.69922,0.61035,0.69922c0.16992,0,0.35938-0.04004,0.5791-0.10938L53.62012,72.62402z"/>
	<path d="M58.7793,70.39551h-3.6084c0.02051,1.0791,0.62012,1.72852,1.58984,1.72852c0.53906,0,0.96875-0.13965,1.41895-0.61914
		l0.47949,0.41895c-0.5791,0.61035-1.14941,0.83008-1.90918,0.83008c-1.49902,0-2.26855-1.11914-2.26855-2.51855
		c0-1.38965,0.75977-2.56836,2.18945-2.56836c1.50879,0,2.13867,1.17871,2.13867,2.29785
		C58.80957,70.10547,58.79883,70.27539,58.7793,70.39551z M55.1709,69.81543h2.97852c0-0.02051-0.00977-0.07031-0.00977-0.16016
		c-0.0498-0.7998-0.55957-1.40918-1.46875-1.40918C55.78125,68.24609,55.23145,68.94629,55.1709,69.81543z"/>
	<path d="M59.67188,71.46484l0.5791-0.25977c0.17969,0.50977,0.66016,0.93945,1.42969,0.93945
		c0.66895,0,1.09961-0.33008,1.09961-0.84961c0-1.30957-2.83887-0.49023-2.83887-2.23926c0-0.85938,0.69922-1.38867,1.68945-1.38867
		c0.78906,0,1.42871,0.3291,1.76855,1.0293l-0.5498,0.2998c-0.23926-0.44043-0.62988-0.71973-1.23926-0.71973
		s-0.99902,0.25-0.99902,0.67969c0,1.16895,2.84766,0.42969,2.84766,2.29883c0,0.99902-0.81934,1.49902-1.76855,1.49902
		C60.7207,72.75391,59.93164,72.25391,59.67188,71.46484z"/>
	<path d="M66.91016,72.62402c-0.25977,0.08008-0.52051,0.12988-0.75,0.12988c-0.65918,0-1.13965-0.37012-1.13965-1.23926v-3.18848
		h-0.81934v-0.58008h0.81934v-1.37891l0.68945-0.51953v1.89844h1.18945v0.58008h-1.18945v3.09863
		c0,0.47949,0.2207,0.69922,0.61035,0.69922c0.16992,0,0.35938-0.04004,0.5791-0.10938L66.91016,72.62402z"/>
	<path d="M67.74121,70.20508c0-1.45898,0.94922-2.53809,2.3584-2.53809c1.39941,0,2.36914,1.0791,2.36914,2.53809
		c0,1.44922-0.95996,2.54883-2.36914,2.54883S67.74121,71.66406,67.74121,70.20508z M71.7793,70.20508
		c0-1.11914-0.62988-1.92871-1.67969-1.92871c-1.05957,0-1.66895,0.81934-1.66895,1.92871
		c0,1.11914,0.62012,1.93945,1.66895,1.93945C71.15918,72.14453,71.7793,71.30469,71.7793,70.20508z"/>
</g>
<g enable-background="new    ">
	<path d="M83.66309,1.13916v0.70996h-6.30664v3.17822h-0.65918V1.13916H83.66309z"/>
	<path d="M81.625,9.88721h-4.92773V9.19775h0.70996c-0.53027-0.3501-0.79004-0.97949-0.79004-1.62939
		c0-1.11914,0.76953-1.60889,1.98926-1.60889H81.625v0.68945h-2.84863c-0.7998,0-1.5498,0.14014-1.5498,1.07959
		c0,0.97949,0.84961,1.46924,2.12891,1.46924H81.625V9.88721z"/>
	<path d="M79.71582,15.63721h-3.01855v-0.68945h2.84863c1.05957,0,1.54883-0.33984,1.54883-1.07959
		c0-0.92969-0.7998-1.46924-2.18848-1.46924h-2.20898v-0.68945H81.625v0.68945h-0.71973
		c0.49902,0.31982,0.79883,0.91943,0.79883,1.62891C81.7041,15.0874,81.02441,15.63721,79.71582,15.63721z"/>
	<path d="M75.9375,21.17725c-0.92969,0-1.35938-0.86963-1.35938-2.10889c0-1.36914,0.54004-2.19873,1.51953-2.19873
		c0.09961,0,0.16016,0.00977,0.21973,0.02002l0.67969,0.79932c0.16992-0.37988,0.4502-0.63965,0.93945-0.63965
		c0.39941,0,0.69922,0.18018,0.93945,0.52979c0.2998-0.25977,0.67969-0.41992,1.11914-0.41992c1,0,1.70898,0.81982,1.70898,1.87891
		c0,0.47998-0.14941,0.90967-0.39941,1.22949l0.58984,0.67969l-0.4502,0.35986l-0.55957-0.66992
		c-0.26953,0.16992-0.5791,0.27002-0.92969,0.27002c-1.00879,0-1.67871-0.81934-1.67871-1.85889
		c0-0.37988,0.08984-0.72949,0.25-1.01953c-0.11035-0.19971-0.29004-0.31982-0.5-0.31982c-0.5,0-0.61914,0.61963-0.72949,1.3291
		C77.14746,20.01758,77.00684,21.17725,75.9375,21.17725z M75.87793,20.4873c0.59961,0,0.68945-0.7793,0.81934-1.59912
		c0.03027-0.21973,0.07031-0.44971,0.12012-0.65967l-0.64941-0.66943c-0.05078-0.01025-0.07031-0.01025-0.09082-0.01025
		c-0.69922,0-0.91895,0.70996-0.91895,1.54932C75.1582,19.96777,75.39844,20.4873,75.87793,20.4873z M79.97559,17.83887
		c-0.63965,0-1.12988,0.45996-1.12988,1.19922c0,0.73975,0.48047,1.17969,1.12988,1.17969
		c0.67969,0,1.14941-0.45996,1.14941-1.16943C81.125,18.34863,80.65527,17.83887,79.97559,17.83887z"/>
	<path d="M79.71582,26.47705h-3.01855V25.7876h2.84863c1.06934,0,1.54883-0.33984,1.54883-1.07959
		c0-0.93945-0.76953-1.46924-2.12891-1.46924h-2.26855v-0.68945h6.96582v0.68945h-2.75781
		c0.49902,0.31982,0.79883,0.91943,0.79883,1.62891C81.7041,25.92725,81.02441,26.47705,79.71582,26.47705z"/>
	<path d="M78.97559,32.07666v-3.60791c-1.0791,0.02002-1.72852,0.61963-1.72852,1.58936c0,0.53955,0.13965,0.96924,0.61914,1.41895
		l-0.41895,0.47998c-0.61035-0.57959-0.83008-1.14941-0.83008-1.90918c0-1.49902,1.11914-2.26855,2.51855-2.26855
		c1.38965,0,2.56836,0.75977,2.56836,2.18896c0,1.50879-1.17871,2.13867-2.29785,2.13867
		C79.26562,32.10693,79.0957,32.09668,78.97559,32.07666z M79.55566,28.46875v2.97852c0.02051,0,0.07031-0.01025,0.16016-0.01025
		c0.7998-0.0498,1.40918-0.55957,1.40918-1.46875C81.125,29.07861,80.4248,28.52881,79.55566,28.46875z"/>
	<path d="M81.0752,37.05713l-3.78809-3.2085v3.18848h-0.58984v-4.09814h0.5l3.83789,3.27832v-3.1084H81.625v3.94824H81.0752z"/>
	<path d="M81.0752,41.92773l-3.78809-3.20898v3.18848h-0.58984v-4.09814h0.5l3.83789,3.27881V37.979H81.625v3.94873H81.0752z"/>
	<path d="M79.76562,46.90723h-3.06836v-0.62988l0.75977-0.04004c-0.5498-0.38965-0.83984-0.98926-0.83984-1.76855
		c0-1.07031,0.55957-1.69922,1.50977-1.69922c0.49902,0,0.87891,0.19922,1.09863,0.55957
		c0.21973,0.37988,0.31055,0.90918,0.31055,1.87891v1.00879h0.22949c0.85938,0,1.3291-0.44922,1.3291-1.2793
		c0-0.61914-0.26953-1.09863-0.81934-1.49805l0.41992-0.5c0.68945,0.5293,1.00879,1.16895,1.00879,2.00879
		C81.7041,46.1875,80.99512,46.90723,79.76562,46.90723z M78.90625,46.2168h0.06934v-0.94922
		c0-0.90918-0.05957-1.29883-0.24902-1.53906c-0.14062-0.17969-0.36035-0.26953-0.63965-0.26953
		c-0.5498,0-0.90039,0.46973-0.90039,1.20898C77.18652,45.61719,77.85645,46.2168,78.90625,46.2168z"/>
	<path d="M76.74707,53.36719c-0.08008-0.25977-0.12988-0.51953-0.12988-0.74902c0-0.65918,0.37012-1.13965,1.23926-1.13965h3.18848
		v-0.81934H81.625v0.81934h1.37891l0.51953,0.68945H81.625v1.18945h-0.58008v-1.18945h-3.09863
		c-0.47949,0-0.69922,0.2207-0.69922,0.60938c0,0.16992,0.04004,0.36035,0.10938,0.58008L76.74707,53.36719z"/>
	<path d="M78.97559,58.52734v-3.6084c-1.0791,0.02051-1.72852,0.62012-1.72852,1.58887c0,0.54004,0.13965,0.96973,0.61914,1.41992
		l-0.41895,0.47949c-0.61035-0.5791-0.83008-1.14941-0.83008-1.90918c0-1.49902,1.11914-2.26855,2.51855-2.26855
		c1.38965,0,2.56836,0.75977,2.56836,2.18848c0,1.50977-1.17871,2.13867-2.29785,2.13867
		C79.26562,58.55664,79.0957,58.54688,78.97559,58.52734z M79.55566,54.91895v2.97852c0.02051,0,0.07031-0.01074,0.16016-0.01074
		c0.7998-0.04883,1.40918-0.55859,1.40918-1.46875C81.125,55.5293,80.4248,54.97852,79.55566,54.91895z"/>
	<path d="M77.90625,59.41992l0.25977,0.5791c-0.50977,0.17969-0.93945,0.65918-0.93945,1.42871
		c0,0.66992,0.33008,1.09961,0.84961,1.09961c1.30957,0,0.49023-2.83789,2.23926-2.83789c0.85938,0,1.38867,0.69922,1.38867,1.68945
		c0,0.78906-0.3291,1.42871-1.0293,1.76855l-0.2998-0.5498c0.44043-0.24023,0.71973-0.62988,0.71973-1.23926
		c0-0.61035-0.25-0.99902-0.67969-0.99902c-1.16895,0-0.42969,2.84766-2.29883,2.84766c-0.99902,0-1.49902-0.81934-1.49902-1.76855
		C76.61719,60.46875,77.11719,59.67969,77.90625,59.41992z"/>
	<path d="M76.74707,66.6582c-0.08008-0.25977-0.12988-0.52051-0.12988-0.75c0-0.66016,0.37012-1.13965,1.23926-1.13965h3.18848
		v-0.81934H81.625v0.81934h1.37891l0.51953,0.68945H81.625v1.18945h-0.58008v-1.18945h-3.09863
		c-0.47949,0-0.69922,0.21973-0.69922,0.61035c0,0.16992,0.04004,0.35938,0.10938,0.5791L76.74707,66.6582z"/>
	<path d="M79.16602,67.48926c1.45898,0,2.53809,0.94922,2.53809,2.3584c0,1.39941-1.0791,2.36914-2.53809,2.36914
		c-1.44922,0-2.54883-0.95996-2.54883-2.36914S77.70703,67.48926,79.16602,67.48926z M79.16602,71.52734
		c1.11914,0,1.92871-0.63086,1.92871-1.67969c0-1.05957-0.81934-1.66895-1.92871-1.66895
		c-1.11914,0-1.93945,0.62012-1.93945,1.66895C77.22656,70.90723,78.06641,71.52734,79.16602,71.52734z"/>
</g>
<path id="Path-5" fill="none" stroke="#444444" stroke-width="0.25" d="M61.775,32.506v-1"/>
<path id="Path-6" fill="none" stroke="#444444" stroke-width="0.25" d="M0.475,58.206v-1"/>
<path id="Path-7" fill="none" stroke="#444444" stroke-width="0.25" stroke-dasharray="1.9,1.9" d="M0.475,55.306v-21.8"/>
<path id="Path-8" fill="none" stroke="#444444" stroke-width="0.25" d="M0.475,32.506v-1"/>
<path id="Path-10" fill="none" stroke="#444444" stroke-width="0.25" stroke-dasharray="2.114,2.114" d="M34.275,0.63419h32.7"/>
<path id="Path-11" fill="none" stroke="#444444" stroke-width="0.25" d="M68.075,0.63419h1"/>
<path id="Path-12" fill="none" stroke="#444444" stroke-width="0.25" d="M31.175,51.106h1"/>
<path id="Path-13" fill="none" stroke="#444444" stroke-width="0.25" stroke-dasharray="2.114,2.114" d="M34.275,51.306h32.7"/>
<path id="Path-3" fill="none" stroke="#444444" stroke-width="0.25" d="M61.97528,57.6045v-1"/>
<path id="Path-4" fill="none" stroke="#444444" stroke-width="0.25" stroke-dasharray="1.9,1.9" d="M61.97528,54.7045v-21.9"/>
<path id="Path-14" fill="none" stroke="#444444" stroke-width="0.25" d="M67.175,51.306h1"/>
</svg>
