<?xml version="1.0" encoding="utf-8"?>
<!-- Generator: Adobe Illustrator 25.0.0, SVG Export Plug-In . SVG Version: 6.00 Build 0)  -->
<svg version="1.1" id="Livello_1" xmlns="http://www.w3.org/2000/svg" xmlns:xlink="http://www.w3.org/1999/xlink" x="0px" y="0px"
	 viewBox="0 0 145 96.3" enable-background="new 0 0 145 96.3" xml:space="preserve">
<path id="Stroke-2" fill="none" stroke="#999999" stroke-width="0.19" stroke-linecap="round" stroke-dasharray="1.506,1.506" d="
	M70.218,0.819l74,43"/>
<path id="Stroke-5" fill="none" stroke="#999999" stroke-width="0.19" stroke-linecap="round" stroke-dasharray="1.506,1.506" d="
	M55.218,9.819l74,43"/>
<path id="Stroke-8" fill="none" stroke="#999999" stroke-width="0.19" stroke-linecap="round" stroke-dasharray="1.506,1.506" d="
	M42.118,17.819l74,43"/>
<path id="Stroke-11" fill="none" stroke="#999999" stroke-width="0.19" stroke-linecap="round" stroke-dasharray="1.506,1.506" d="
	M28.418,25.819l74,43"/>
<path id="Stroke-14" fill="none" stroke="#999999" stroke-width="0.19" stroke-linecap="round" stroke-dasharray="1.506,1.506" d="
	M15.418,33.819l74,43"/>
<path id="Stroke-19" fill="none" stroke="#999999" stroke-width="0.19" stroke-linecap="round" stroke-dasharray="1.506,1.506" d="
	M1.418,41.819l74,43"/>
<path id="Stroke-27" fill="none" stroke="#999999" stroke-width="0.19" stroke-linecap="round" stroke-dasharray="1.506,1.506" d="
	M1.418,43.819l74-43"/>
<path id="Stroke-30" fill="none" stroke="#999999" stroke-width="0.19" stroke-linecap="round" stroke-dasharray="1.506,1.506" d="
	M15.418,51.819l74-43"/>
<path id="Stroke-31" fill="none" stroke="#999999" stroke-width="0.19" stroke-linecap="round" d="M88.218,9.519l0.7-0.4"/>
<path id="Stroke-33" fill="none" stroke="#999999" stroke-width="0.19" stroke-linecap="round" stroke-dasharray="1.506,1.506" d="
	M28.418,59.819l74-43"/>
<path id="Stroke-36" fill="none" stroke="#999999" stroke-width="0.19" stroke-linecap="round" stroke-dasharray="1.506,1.506" d="
	M42.118,68.819l74-43"/>
<path id="Stroke-39" fill="none" stroke="#999999" stroke-width="0.19" stroke-linecap="round" stroke-dasharray="1.506,1.506" d="
	M55.218,76.819l74-43"/>
<path id="Stroke-44" fill="none" stroke="#999999" stroke-width="0.19" stroke-linecap="round" stroke-dasharray="1.506,1.506" d="
	M70.218,84.819l74-43"/>
<path id="Stroke-46" fill="none" stroke="#000000" stroke-width="0.5" d="M62.218,63.319c-2.2-1.3-2.8-3.2-1.6-4.8
	c0-0.1,0.1-0.1,0.1-0.2c0.9-1,0.4-1.3,0.2-1.5c-0.3-0.2-0.7-0.3-1-0.4c-0.1,0-0.1,0-0.2-0.1c-0.6,0-1.1-0.3-1.6-0.5
	c-2.5-1.4-2.5-3.8,0-5.2c2.6-1.3,5.6-1.4,8.3-0.4c0.1,0,0.2,0.1,0.2,0.1c0.5,0.3,1.1,0.4,1.7,0.4c0.8-0.1,1.5-0.5,2.1-1
	c0.1,0,0.1-0.1,0.2-0.1c0.2-0.1,0.3-0.2,0.5-0.3c4-2,8.7-2,12.7,0c3.1,1.8,3.5,4.6,1,6.6c0,0.1-0.1,0.1-0.2,0.2
	c-1.6,1.2-1,1.6-0.5,1.9l0,0c0.2,0.1,0.3,0.2,0.5,0.2c0,0,0.1,0,0.1,0.1l0,0c0.2,0.1,0.3,0.1,0.5,0.2c2.5,1.4,2.5,3.8,0,5.2
	c-2.9,1.4-6.2,1.4-9.1,0c-0.1,0-0.1-0.1-0.2-0.1l-0.1-0.1c-0.1-0.1-0.2-0.1-0.3-0.2c-0.7-0.4-1.4-0.6-3,0.2c-0.1,0-0.2,0.1-0.3,0.1
	C69.218,65.019,65.518,64.919,62.218,63.319z"/>
<ellipse id="Ellisse_12" fill="#97DADD" cx="68.951" cy="59.129" rx="7" ry="4"/>
<ellipse id="Ellisse_18" fill="#97DADD" cx="77.951" cy="52.629" rx="7" ry="3.5"/>
<ellipse id="Ellisse_19" fill="#C6CACF" cx="80.35101" cy="36.629" rx="5.5" ry="2.5"/>
<ellipse fill="#FFFFFF" cx="85.951" cy="41.629" rx="5" ry="2.5"/>
<ellipse fill="none" stroke="#1A1A1A" stroke-width="0.5" cx="85.951" cy="41.629" rx="4.8" ry="2.2"/>
<path id="Tracciato_83" fill="#C6CACF" d="M93.951,32.129c3.9,0,7,1.6,7,3.5s-3.1,3.5-7,3.5s-7-1.6-7-3.5
	S89.951,32.129,93.951,32.129z"/>
<ellipse id="Ellisse_16" fill="#97DADD" cx="62.351" cy="52.629" rx="4.5" ry="2.5"/>
<ellipse id="Ellisse_17" fill="#97DADD" cx="80.951" cy="61.129" rx="5" ry="3"/>
<ellipse fill="#FFFFFF" cx="43.951" cy="49.129" rx="5" ry="3"/>
<ellipse fill="none" stroke="#1A1A1A" stroke-width="0.5" cx="43.951" cy="49.129" rx="4.8" ry="2.8"/>
<ellipse id="Ellisse_14" fill="#C6CACF" cx="44.351" cy="43.129" rx="3.5" ry="2"/>
<ellipse id="Ellisse_15" fill="#C6CACF" cx="53.951" cy="44.129" rx="5" ry="3"/>
<path id="Path-3" d="M113.118,35.419l-2.9-5.2l0.4-0.2l3.6,6.4l-7.3-0.3v-0.5l5.9,0.2l-4.3-2.6c-11.6-6.2-28-9.2-43.6-7.8
	c-17,1.5-31.5,7.9-40.3,18.6l-0.4-0.3C33.118,32.819,47.618,26.419,64.818,24.919c15.7-1.4,32.2,1.6,43.9,7.9L113.118,35.419z"/>
<g>
	<g enable-background="new    ">
		<path d="M40.1123,75.18066h-2.89844l-0.66992,1.86914h-0.7793l2.59863-6.96582h0.58936l2.60889,6.96582h-0.78955L40.1123,75.18066
			z M39.89209,74.57129l-1.229-3.47852l-1.23926,3.47852H39.89209z"/>
		<path d="M47.29199,74.58105c0,1.46973-0.74951,2.54883-2.18896,2.54883c-0.71924,0-1.26904-0.28027-1.62891-0.73926v2.69824
			h-0.68945v-6.9668h0.68945v0.66016c0.36963-0.47949,0.92969-0.75,1.62891-0.75
			C46.47266,72.03223,47.29199,73.04199,47.29199,74.58105z M46.60254,74.58105c0-1.16895-0.59961-1.93848-1.59912-1.93848
			c-0.98975,0-1.58936,0.76953-1.58936,1.93848c0,1.11914,0.5498,1.93945,1.58936,1.93945
			C46.05273,76.52051,46.60254,75.7002,46.60254,74.58105z"/>
		<path d="M53.23193,74.58105c0,1.46973-0.74951,2.54883-2.18896,2.54883c-0.71924,0-1.26904-0.28027-1.62891-0.73926v2.69824
			h-0.68945v-6.9668h0.68945v0.66016c0.36963-0.47949,0.92969-0.75,1.62891-0.75
			C52.4126,72.03223,53.23193,73.04199,53.23193,74.58105z M52.54248,74.58105c0-1.16895-0.59961-1.93848-1.59912-1.93848
			c-0.98975,0-1.58936,0.76953-1.58936,1.93848c0,1.11914,0.5498,1.93945,1.58936,1.93945
			C51.99268,76.52051,52.54248,75.7002,52.54248,74.58105z"/>
		<path d="M58.33252,73.98145v3.06836h-0.62988l-0.04004-0.75977c-0.38965,0.5498-0.98926,0.83984-1.76904,0.83984
			c-1.06934,0-1.69873-0.55957-1.69873-1.50977c0-0.49902,0.19971-0.87891,0.55957-1.09863
			c0.37988-0.21973,0.90967-0.31055,1.87891-0.31055h1.00928v-0.22949c0-0.85938-0.44971-1.3291-1.2793-1.3291
			c-0.61963,0-1.09912,0.26953-1.49902,0.81934l-0.49951-0.41992c0.5293-0.68945,1.16895-1.00879,2.00879-1.00879
			C57.61279,72.04297,58.33252,72.75195,58.33252,73.98145z M57.64258,74.84082v-0.06934h-0.94922
			c-0.90967,0-1.29932,0.05957-1.53906,0.24902c-0.18018,0.14062-0.27002,0.36035-0.27002,0.63965
			c0,0.5498,0.46973,0.90039,1.20947,0.90039C57.04297,76.56055,57.64258,75.89062,57.64258,74.84082z"/>
		<path d="M63.01221,72.25293l-0.33984,0.55957c-0.22949-0.10059-0.43945-0.15039-0.64941-0.15039
			c-0.75977,0-1.31934,0.56934-1.31934,1.63965v2.74805h-0.68945v-4.92773h0.68945v0.74023
			c0.35986-0.64941,0.95947-0.81934,1.45898-0.81934C62.4624,72.04297,62.74268,72.10254,63.01221,72.25293z"/>
		<path d="M66.33301,77c-0.25977,0.08008-0.52002,0.12988-0.74951,0.12988c-0.65967,0-1.13965-0.37012-1.13965-1.23926v-3.18848
			h-0.81934v-0.58008h0.81934v-1.37891l0.68945-0.51953v1.89844h1.18945v0.58008H65.1333v3.09863
			c0,0.47949,0.22021,0.69922,0.60986,0.69922c0.16992,0,0.35986-0.04004,0.57959-0.10938L66.33301,77z"/>
		<path d="M71.4917,74.77148h-3.60791C67.90381,75.85059,68.50342,76.5,69.47314,76.5c0.53955,0,0.96924-0.13965,1.41895-0.61914
			l0.47998,0.41895c-0.57959,0.61035-1.14941,0.83008-1.90918,0.83008c-1.49902,0-2.26855-1.11914-2.26855-2.51855
			c0-1.38965,0.75977-2.56836,2.18896-2.56836c1.50879,0,2.13867,1.17871,2.13867,2.29785
			C71.52197,74.48145,71.51172,74.65137,71.4917,74.77148z M67.88379,74.19141h2.97852c0-0.02051-0.01025-0.07031-0.01025-0.16016
			c-0.0498-0.7998-0.55957-1.40918-1.46875-1.40918C68.49365,72.62207,67.94385,73.32227,67.88379,74.19141z"/>
		<path d="M76.8418,74.03125v3.01855h-0.68945v-2.84863c0-1.05957-0.33984-1.54883-1.08008-1.54883
			c-0.92969,0-1.46875,0.7998-1.46875,2.18848v2.20898h-0.68945v-4.92773h0.68945v0.71973
			c0.31934-0.49902,0.91895-0.79883,1.62891-0.79883C76.29199,72.04297,76.8418,72.72266,76.8418,74.03125z"/>
		<path d="M82.44141,74.77148h-3.6084C78.85352,75.85059,79.45312,76.5,80.42285,76.5c0.53906,0,0.96875-0.13965,1.41895-0.61914
			l0.47949,0.41895c-0.5791,0.61035-1.14941,0.83008-1.90918,0.83008c-1.49902,0-2.26855-1.11914-2.26855-2.51855
			c0-1.38965,0.75977-2.56836,2.18945-2.56836c1.50879,0,2.13867,1.17871,2.13867,2.29785
			C82.47168,74.48145,82.46094,74.65137,82.44141,74.77148z M78.83301,74.19141h2.97852c0-0.02051-0.00977-0.07031-0.00977-0.16016
			c-0.0498-0.7998-0.55957-1.40918-1.46875-1.40918C79.44336,72.62207,78.89355,73.32227,78.83301,74.19141z"/>
		<path d="M87.79199,74.03125v3.01855h-0.68945v-2.84863c0-1.05957-0.33984-1.54883-1.08008-1.54883
			c-0.92969,0-1.46875,0.7998-1.46875,2.18848v2.20898h-0.68945v-4.92773h0.68945v0.71973
			c0.31934-0.49902,0.91895-0.79883,1.62891-0.79883C87.24219,72.04297,87.79199,72.72266,87.79199,74.03125z"/>
		<path d="M93.05176,72.67188l-3.20801,3.78809h3.18848v0.58984h-4.09863v-0.5l3.27832-3.83789h-3.1084v-0.58984h3.94824V72.67188z"
			/>
		<path d="M98.03125,73.98145v3.06836h-0.62988l-0.04004-0.75977c-0.38965,0.5498-0.98926,0.83984-1.76855,0.83984
			c-1.06934,0-1.69922-0.55957-1.69922-1.50977c0-0.49902,0.2002-0.87891,0.55957-1.09863
			c0.37988-0.21973,0.91016-0.31055,1.87891-0.31055h1.00977v-0.22949c0-0.85938-0.4502-1.3291-1.2793-1.3291
			c-0.62012,0-1.09961,0.26953-1.49902,0.81934l-0.5-0.41992c0.5293-0.68945,1.16895-1.00879,2.00879-1.00879
			C97.31152,72.04297,98.03125,72.75195,98.03125,73.98145z M97.3418,74.84082v-0.06934h-0.94922
			c-0.91016,0-1.2998,0.05957-1.53906,0.24902c-0.18066,0.14062-0.27051,0.36035-0.27051,0.63965
			c0,0.5498,0.46973,0.90039,1.20996,0.90039C96.74219,76.56055,97.3418,75.89062,97.3418,74.84082z"/>
		<path d="M106.11133,73.98145v3.06836h-0.62988l-0.04004-0.75977c-0.38965,0.5498-0.98926,0.83984-1.76855,0.83984
			c-1.06934,0-1.69922-0.55957-1.69922-1.50977c0-0.49902,0.2002-0.87891,0.55957-1.09863
			c0.37988-0.21973,0.91016-0.31055,1.87891-0.31055h1.00977v-0.22949c0-0.85938-0.4502-1.3291-1.2793-1.3291
			c-0.62012,0-1.09961,0.26953-1.49902,0.81934l-0.5-0.41992c0.5293-0.68945,1.16895-1.00879,2.00879-1.00879
			C105.3916,72.04297,106.11133,72.75195,106.11133,73.98145z M105.42188,74.84082v-0.06934h-0.94922
			c-0.91016,0-1.2998,0.05957-1.53906,0.24902c-0.18066,0.14062-0.27051,0.36035-0.27051,0.63965
			c0,0.5498,0.46973,0.90039,1.20996,0.90039C104.82227,76.56055,105.42188,75.89062,105.42188,74.84082z"/>
	</g>
	<g enable-background="new    ">
		<path d="M35.58691,85.12207v4.92773h-0.68945v-0.70996c-0.3501,0.53027-0.97949,0.79004-1.62939,0.79004
			c-1.11914,0-1.60889-0.76953-1.60889-1.98926v-3.01855h0.68945v2.84863c0,0.7998,0.14014,1.5498,1.07959,1.5498
			c0.97949,0,1.46924-0.84961,1.46924-2.12891v-2.26953H35.58691z"/>
		<path d="M41.33691,87.03125v3.01855h-0.68945v-2.84863c0-1.05957-0.33984-1.54883-1.07959-1.54883
			c-0.92969,0-1.46924,0.7998-1.46924,2.18848v2.20898h-0.68945v-4.92773h0.68945v0.71973
			c0.31982-0.49902,0.91943-0.79883,1.62891-0.79883C40.78711,85.04297,41.33691,85.72266,41.33691,87.03125z"/>
		<path d="M42.60889,87.58105c0-1.45898,0.94971-2.53809,2.35889-2.53809c1.39941,0,2.36865,1.0791,2.36865,2.53809
			c0,1.44922-0.95947,2.54883-2.36865,2.54883S42.60889,89.04004,42.60889,87.58105z M46.64697,87.58105
			c0-1.11914-0.62988-1.92871-1.6792-1.92871c-1.05957,0-1.66895,0.81934-1.66895,1.92871
			c0,1.11914,0.61963,1.93945,1.66895,1.93945C46.02734,89.52051,46.64697,88.68066,46.64697,87.58105z"/>
		<path d="M50.9292,88.84082l0.57959-0.25977c0.17969,0.50977,0.65967,0.93945,1.4292,0.93945
			c0.66943,0,1.09961-0.33008,1.09961-0.84961c0-1.30957-2.83887-0.49023-2.83887-2.23926
			c0-0.85938,0.69971-1.38867,1.68945-1.38867c0.78955,0,1.4292,0.3291,1.76904,1.0293l-0.5498,0.2998
			c-0.23975-0.44043-0.62988-0.71973-1.23926-0.71973c-0.60986,0-0.99951,0.25-0.99951,0.67969
			c0,1.16895,2.84814,0.42969,2.84814,2.29883c0,0.99902-0.81934,1.49902-1.76904,1.49902
			C51.97852,90.12988,51.18896,89.62988,50.9292,88.84082z"/>
		<path d="M58.16748,90c-0.25977,0.08008-0.52002,0.12988-0.74951,0.12988c-0.65967,0-1.13965-0.37012-1.13965-1.23926v-3.18848
			h-0.81934v-0.58008h0.81934v-1.37891l0.68994-0.51953v1.89844h1.18896v0.58008h-1.18896v3.09863
			c0,0.47949,0.21973,0.69922,0.60938,0.69922c0.16992,0,0.35986-0.04004,0.57959-0.10938L58.16748,90z"/>
		<path d="M63.32617,87.77148h-3.60791C59.73828,88.85059,60.33789,89.5,61.30762,89.5c0.53955,0,0.96924-0.13965,1.41895-0.61914
			l0.47998,0.41895c-0.57959,0.61035-1.14941,0.83008-1.90918,0.83008c-1.49902,0-2.26855-1.11914-2.26855-2.51855
			c0-1.38965,0.75977-2.56836,2.18896-2.56836c1.50879,0,2.13867,1.17871,2.13867,2.29785
			C63.35645,87.48145,63.34619,87.65137,63.32617,87.77148z M59.71826,87.19141h2.97852c0-0.02051-0.01025-0.07031-0.01025-0.16016
			c-0.0498-0.7998-0.55957-1.40918-1.46875-1.40918C60.32812,85.62207,59.77832,86.32227,59.71826,87.19141z"/>
		<path d="M64.21924,88.84082l0.57959-0.25977c0.17969,0.50977,0.65967,0.93945,1.4292,0.93945
			c0.66943,0,1.09961-0.33008,1.09961-0.84961c0-1.30957-2.83887-0.49023-2.83887-2.23926
			c0-0.85938,0.69971-1.38867,1.68945-1.38867c0.78955,0,1.4292,0.3291,1.76904,1.0293l-0.5498,0.2998
			c-0.23975-0.44043-0.62988-0.71973-1.23926-0.71973c-0.60986,0-0.99951,0.25-0.99951,0.67969
			c0,1.16895,2.84814,0.42969,2.84814,2.29883c0,0.99902-0.81934,1.49902-1.76904,1.49902
			C65.26855,90.12988,64.479,89.62988,64.21924,88.84082z"/>
		<path d="M68.87891,88.84082l0.57959-0.25977c0.17969,0.50977,0.65967,0.93945,1.4292,0.93945
			c0.66943,0,1.09961-0.33008,1.09961-0.84961c0-1.30957-2.83887-0.49023-2.83887-2.23926
			c0-0.85938,0.69971-1.38867,1.68945-1.38867c0.78955,0,1.4292,0.3291,1.76904,1.0293l-0.5498,0.2998
			c-0.23975-0.44043-0.62988-0.71973-1.23926-0.71973c-0.60986,0-0.99951,0.25-0.99951,0.67969
			c0,1.16895,2.84814,0.42969,2.84814,2.29883c0,0.99902-0.81934,1.49902-1.76855,1.49902
			C69.92822,90.12988,69.13867,89.62988,68.87891,88.84082z"/>
		<path d="M73.58789,87.58105c0-1.45898,0.9502-2.53809,2.35938-2.53809c1.39941,0,2.36816,1.0791,2.36816,2.53809
			c0,1.44922-0.95898,2.54883-2.36816,2.54883S73.58789,89.04004,73.58789,87.58105z M77.62598,87.58105
			c0-1.11914-0.62988-1.92871-1.67871-1.92871c-1.05957,0-1.66895,0.81934-1.66895,1.92871
			c0,1.11914,0.61914,1.93945,1.66895,1.93945C77.00684,89.52051,77.62598,88.68066,77.62598,87.58105z"/>
		<path d="M81.72852,85.12207h0.75l1.54883,4.04785l1.55859-4.04785h0.75977l-2.01855,4.92773H83.7373L81.72852,85.12207z"/>
		<path d="M86.87793,87.58105c0-1.45898,0.9502-2.53809,2.35938-2.53809c1.39941,0,2.36816,1.0791,2.36816,2.53809
			c0,1.44922-0.95898,2.54883-2.36816,2.54883S86.87793,89.04004,86.87793,87.58105z M90.91602,87.58105
			c0-1.11914-0.62988-1.92871-1.67871-1.92871c-1.05957,0-1.66895,0.81934-1.66895,1.92871
			c0,1.11914,0.61914,1.93945,1.66895,1.93945C90.29688,89.52051,90.91602,88.68066,90.91602,87.58105z"/>
		<path d="M92.95801,88.98047v-5.89648h0.68945v5.85645c0,0.33984,0.12012,0.55957,0.4502,0.55957
			c0.14941,0,0.31934-0.04004,0.46973-0.08984L94.57715,90c-0.20996,0.06934-0.45996,0.12988-0.67969,0.12988
			C93.32812,90.12988,92.95801,89.75,92.95801,88.98047z"/>
		<path d="M99.45605,85.12207v4.92773H98.7666v-0.70996c-0.35059,0.53027-0.97949,0.79004-1.62988,0.79004
			c-1.11914,0-1.6084-0.76953-1.6084-1.98926v-3.01855h0.68945v2.84863c0,0.7998,0.13965,1.5498,1.0791,1.5498
			c0.97949,0,1.46973-0.84961,1.46973-2.12891v-2.26953H99.45605z"/>
		<path d="M108.03418,86.97168v3.07812h-0.68945v-2.88867c0-0.41992,0-1.50879-1.0791-1.50879c-1,0-1.26953,0.91895-1.26953,2.02832
			v2.36914h-0.68945v-2.84863c0-0.81934-0.25-1.54883-1.10938-1.54883c-0.95996,0-1.22949,0.90918-1.22949,2.02832v2.36914h-0.68945
			l-0.01074-4.92773h0.66992v0.60059c0.30957-0.49023,0.80957-0.67969,1.35938-0.67969c0.68945,0,1.19922,0.2998,1.44922,0.94922
			c0.31934-0.62988,0.86914-0.94922,1.61914-0.94922C107.54492,85.04297,108.03418,85.82227,108.03418,86.97168z"/>
		<path d="M113.63574,87.77148h-3.6084c0.02051,1.0791,0.62012,1.72852,1.58984,1.72852c0.53906,0,0.96875-0.13965,1.41895-0.61914
			l0.47949,0.41895c-0.5791,0.61035-1.14941,0.83008-1.90918,0.83008c-1.49902,0-2.26855-1.11914-2.26855-2.51855
			c0-1.38965,0.75977-2.56836,2.18945-2.56836c1.50879,0,2.13867,1.17871,2.13867,2.29785
			C113.66602,87.48145,113.65527,87.65137,113.63574,87.77148z M110.02734,87.19141h2.97852
			c0-0.02051-0.00977-0.07031-0.00977-0.16016c-0.0498-0.7998-0.55957-1.40918-1.46875-1.40918
			C110.6377,85.62207,110.08789,86.32227,110.02734,87.19141z"/>
	</g>
</g>
<g enable-background="new    ">
	<path d="M47.70166,15.32129c0-2.23926,1.20947-3.56836,3.21826-3.56836c1.39893,0,2.37842,0.63965,2.86816,1.90918l-0.65967,0.25
		c-0.36963-1-1.10938-1.47949-2.2085-1.47949c-1.59912,0-2.50879,1.04004-2.50879,2.88867c0,1.85938,0.89941,2.91797,2.4585,2.91797
		c1.08984,0,1.86914-0.50977,2.25879-1.50879l0.67969,0.25c-0.51953,1.26953-1.54883,1.93848-2.93848,1.93848
		C48.89111,18.91895,47.70166,17.57031,47.70166,15.32129z"/>
	<path d="M58.06934,14.02246l-0.33984,0.55957c-0.22949-0.10059-0.43945-0.15039-0.64941-0.15039
		c-0.75977,0-1.31934,0.56934-1.31934,1.63965v2.74805h-0.68945V13.8916h0.68945v0.74023
		c0.35986-0.64941,0.95947-0.81934,1.45898-0.81934C57.52002,13.8125,57.7998,13.87207,58.06934,14.02246z"/>
	<path d="M58.21143,16.35059c0-1.45898,0.94971-2.53809,2.35889-2.53809c1.39941,0,2.36865,1.0791,2.36865,2.53809
		c0,1.44922-0.95947,2.54883-2.36865,2.54883S58.21143,17.80957,58.21143,16.35059z M62.24951,16.35059
		c0-1.11914-0.62988-1.92871-1.6792-1.92871c-1.05957,0-1.66895,0.81934-1.66895,1.92871c0,1.11914,0.61963,1.93945,1.66895,1.93945
		C61.62988,18.29004,62.24951,17.4502,62.24951,16.35059z"/>
	<path d="M68.25928,15.80078v3.01855h-0.68945V15.9707c0-1.05957-0.33984-1.54883-1.07959-1.54883
		c-0.92969,0-1.46924,0.7998-1.46924,2.18848v2.20898h-0.68945V13.8916H65.021v0.71973
		c0.31982-0.49902,0.91943-0.79883,1.62891-0.79883C67.70947,13.8125,68.25928,14.49219,68.25928,15.80078z"/>
	<path d="M69.53174,16.35059c0-1.45898,0.94922-2.53809,2.3584-2.53809c1.39893,0,2.36865,1.0791,2.36865,2.53809
		c0,1.44922-0.95996,2.54883-2.36865,2.54883C70.48096,18.89941,69.53174,17.80957,69.53174,16.35059z M73.56934,16.35059
		c0-1.11914-0.62988-1.92871-1.6792-1.92871c-1.05957,0-1.66895,0.81934-1.66895,1.92871c0,1.11914,0.61963,1.93945,1.66895,1.93945
		C72.94971,18.29004,73.56934,17.4502,73.56934,16.35059z"/>
	<path d="M75.61035,17.75v-5.89648h0.68945v5.85645c0,0.33984,0.12012,0.55957,0.4502,0.55957
		c0.14941,0,0.31934-0.04004,0.46973-0.08984l0.00977,0.58984c-0.20996,0.06934-0.45996,0.12988-0.67969,0.12988
		C75.98047,18.89941,75.61035,18.51953,75.61035,17.75z"/>
	<path d="M77.9209,16.35059c0-1.45898,0.94922-2.53809,2.3584-2.53809c1.39941,0,2.36914,1.0791,2.36914,2.53809
		c0,1.44922-0.95996,2.54883-2.36914,2.54883S77.9209,17.80957,77.9209,16.35059z M81.95898,16.35059
		c0-1.11914-0.62988-1.92871-1.67969-1.92871c-1.05957,0-1.66895,0.81934-1.66895,1.92871
		c0,1.11914,0.62012,1.93945,1.66895,1.93945C81.33887,18.29004,81.95898,17.4502,81.95898,16.35059z"/>
	<path d="M87.87891,19.5791c0,0.92969-0.87012,1.35938-2.10938,1.35938c-1.36914,0-2.19824-0.54004-2.19824-1.51953
		c0-0.09961,0.00977-0.16016,0.01953-0.21973l0.7998-0.67969c-0.37988-0.16992-0.63965-0.4502-0.63965-0.93945
		c0-0.39941,0.17969-0.69922,0.5293-0.93945c-0.25977-0.2998-0.41992-0.67969-0.41992-1.11914c0-1,0.82031-1.70898,1.87891-1.70898
		c0.48047,0,0.91016,0.14941,1.22949,0.39941l0.67969-0.58984l0.36035,0.4502l-0.66992,0.55957
		c0.16992,0.26953,0.26953,0.5791,0.26953,0.92969c0,1.00879-0.81934,1.67871-1.8584,1.67871
		c-0.37988,0-0.72949-0.08984-1.01953-0.25c-0.2002,0.11035-0.32031,0.29004-0.32031,0.5c0,0.5,0.62012,0.61914,1.3291,0.72949
		C86.71875,18.36914,87.87891,18.50977,87.87891,19.5791z M87.18848,19.63867c0-0.59961-0.7793-0.68945-1.59863-0.81934
		c-0.21973-0.03027-0.4502-0.07031-0.66016-0.12012l-0.66895,0.64941C84.25,19.39941,84.25,19.41895,84.25,19.43945
		c0,0.69922,0.70996,0.91895,1.5498,0.91895C86.66895,20.3584,87.18848,20.11816,87.18848,19.63867z M84.54004,15.54102
		c0,0.63965,0.45996,1.12988,1.19922,1.12988c0.74023,0,1.17969-0.48047,1.17969-1.12988c0-0.67969-0.45996-1.14941-1.16895-1.14941
		C85.0498,14.3916,84.54004,14.86133,84.54004,15.54102z"/>
	<path d="M89.19043,11.85352h0.7998v1.01953h-0.7998V11.85352z M89.25098,13.8916h0.68945v4.92773h-0.68945V13.8916z"/>
	<path d="M95.42871,15.75098v3.06836h-0.62988l-0.04004-0.75977c-0.38965,0.5498-0.98926,0.83984-1.76953,0.83984
		c-1.06934,0-1.69824-0.55957-1.69824-1.50977c0-0.49902,0.19922-0.87891,0.55957-1.09863
		c0.37988-0.21973,0.90918-0.31055,1.87891-0.31055h1.00879v-0.22949c0-0.85938-0.44922-1.3291-1.2793-1.3291
		c-0.61914,0-1.09863,0.26953-1.49902,0.81934l-0.49902-0.41992c0.5293-0.68945,1.16895-1.00879,2.00879-1.00879
		C94.70898,13.8125,95.42871,14.52148,95.42871,15.75098z M94.73828,16.61035v-0.06934h-0.94922
		c-0.90918,0-1.29883,0.05957-1.53906,0.24902c-0.17969,0.14062-0.26953,0.36035-0.26953,0.63965
		c0,0.5498,0.46973,0.90039,1.20898,0.90039C94.13867,18.33008,94.73828,17.66016,94.73828,16.61035z"/>
</g>
</svg>
