<?xml version="1.0" encoding="utf-8"?>
<!-- Generator: Adobe Illustrator 25.0.0, SVG Export Plug-In . SVG Version: 6.00 Build 0)  -->
<svg version="1.1" id="Livello_1" xmlns="http://www.w3.org/2000/svg" xmlns:xlink="http://www.w3.org/1999/xlink" x="0px" y="0px"
	 viewBox="0 0 145 96.3" enable-background="new 0 0 145 96.3" xml:space="preserve">
<path id="Stroke-2" fill="none" stroke="#999999" stroke-width="0.19" stroke-linecap="round" stroke-dasharray="1.506,1.506" d="
	M70.2,0.8l74,43"/>
<path id="Stroke-5" fill="none" stroke="#999999" stroke-width="0.19" stroke-linecap="round" stroke-dasharray="1.506,1.506" d="
	M55.2,9.8l74,43"/>
<path id="Stroke-8" fill="none" stroke="#999999" stroke-width="0.19" stroke-linecap="round" stroke-dasharray="1.506,1.506" d="
	M42.1,17.8l74,43"/>
<path id="Stroke-11" fill="none" stroke="#999999" stroke-width="0.19" stroke-linecap="round" stroke-dasharray="1.506,1.506" d="
	M28.4,25.8l74,43"/>
<path id="Stroke-14" fill="none" stroke="#999999" stroke-width="0.19" stroke-linecap="round" stroke-dasharray="1.506,1.506" d="
	M15.4,33.8l74,43"/>
<path id="Stroke-19" fill="none" stroke="#999999" stroke-width="0.19" stroke-linecap="round" stroke-dasharray="1.506,1.506" d="
	M1.4,41.8l74,43"/>
<path id="Stroke-27" fill="none" stroke="#999999" stroke-width="0.19" stroke-linecap="round" stroke-dasharray="1.506,1.506" d="
	M1.4,43.8l74-43"/>
<path id="Stroke-30" fill="none" stroke="#999999" stroke-width="0.19" stroke-linecap="round" stroke-dasharray="1.506,1.506" d="
	M15.4,51.8l74-43"/>
<path id="Stroke-31" fill="none" stroke="#999999" stroke-width="0.19" stroke-linecap="round" d="M88.2,9.5l0.7-0.4"/>
<path id="Stroke-33" fill="none" stroke="#999999" stroke-width="0.19" stroke-linecap="round" stroke-dasharray="1.506,1.506" d="
	M28.4,59.8l74-43"/>
<path id="Stroke-36" fill="none" stroke="#999999" stroke-width="0.19" stroke-linecap="round" stroke-dasharray="1.506,1.506" d="
	M42.1,68.8l74-43"/>
<path id="Stroke-39" fill="none" stroke="#999999" stroke-width="0.19" stroke-linecap="round" stroke-dasharray="1.506,1.506" d="
	M55.2,76.8l74-43"/>
<path id="Stroke-44" fill="none" stroke="#999999" stroke-width="0.19" stroke-linecap="round" stroke-dasharray="1.506,1.506" d="
	M70.2,84.8l74-43"/>
<path id="Stroke-46" fill="none" stroke="#000000" stroke-width="0.5" d="M62.2,63.3c-2.2-1.3-2.8-3.2-1.6-4.8
	c0-0.1,0.1-0.1,0.1-0.2c0.9-1,0.4-1.3,0.2-1.5c-0.3-0.2-0.7-0.3-1-0.4c-0.1,0-0.1,0-0.2-0.1c-0.6,0-1.1-0.3-1.6-0.5
	c-2.5-1.4-2.5-3.8,0-5.2c2.6-1.3,5.6-1.4,8.3-0.4c0.1,0,0.2,0.1,0.2,0.1c0.5,0.3,1.1,0.4,1.7,0.4c0.8-0.1,1.5-0.5,2.1-1
	c0.1,0,0.1-0.1,0.2-0.1c0.2-0.1,0.3-0.2,0.5-0.3c4-2,8.7-2,12.7,0c3.1,1.8,3.5,4.6,1,6.6c0,0.1-0.1,0.1-0.2,0.2
	c-1.6,1.2-1,1.6-0.5,1.9l0,0c0.2,0.1,0.3,0.2,0.5,0.2c0,0,0.1,0,0.1,0.1l0,0c0.2,0.1,0.3,0.1,0.5,0.2c2.5,1.4,2.5,3.8,0,5.2
	c-2.9,1.4-6.2,1.4-9.1,0c-0.1,0-0.1-0.1-0.2-0.1l-0.1-0.1c-0.1-0.1-0.2-0.1-0.3-0.2c-0.7-0.4-1.4-0.6-3,0.2c-0.1,0-0.2,0.1-0.3,0.1
	C69.2,65,65.5,64.9,62.2,63.3z"/>
<g id="Group-77" transform="translate(41.733 34.31)">
	<ellipse id="Ellisse_12" fill="#97DADD" cx="27.2" cy="24.8" rx="7" ry="4"/>
	<ellipse id="Ellisse_18" fill="#97DADD" cx="36.2" cy="18.3" rx="7" ry="3.5"/>
	<ellipse id="Ellisse_19" fill="#C6CACF" cx="38.6" cy="2.3" rx="5.5" ry="2.5"/>
	<g id="Ellisse_20" transform="translate(42 7)">
		<ellipse fill="#FFFFFF" cx="2.2" cy="0.3" rx="5" ry="2.5"/>
		<ellipse fill="none" stroke="#1A1A1A" stroke-width="0.5" cx="2.2" cy="0.3" rx="4.8" ry="2.2"/>
	</g>
	<path id="Tracciato_83" fill="#C6CACF" d="M52.2-2.2c3.9,0,7,1.6,7,3.5s-3.1,3.5-7,3.5s-7-1.6-7-3.5S48.2-2.2,52.2-2.2z"/>
	<ellipse id="Ellisse_16" fill="#97DADD" cx="20.6" cy="18.3" rx="4.5" ry="2.5"/>
	<ellipse id="Ellisse_17" fill="#97DADD" cx="39.2" cy="26.8" rx="5" ry="3"/>
	<g id="Ellisse_13" transform="translate(0 14)">
		<ellipse fill="#FFFFFF" cx="2.2" cy="0.8" rx="5" ry="3"/>
		<ellipse fill="none" stroke="#1A1A1A" stroke-width="0.5" cx="2.2" cy="0.8" rx="4.8" ry="2.8"/>
	</g>
	<ellipse id="Ellisse_14" fill="#C6CACF" cx="2.6" cy="8.8" rx="3.5" ry="2"/>
	<ellipse id="Ellisse_15" fill="#C6CACF" cx="12.2" cy="9.8" rx="5" ry="3"/>
</g>
<path id="Path-3" d="M113.1,35.4l-2.9-5.2l0.4-0.2l3.6,6.4l-7.3-0.3v-0.5l5.9,0.2l-4.3-2.6c-11.6-6.2-28-9.2-43.6-7.8
	c-17,1.5-31.5,7.9-40.3,18.6l-0.4-0.3c8.9-10.9,23.4-17.3,40.6-18.8c15.7-1.4,32.2,1.6,43.9,7.9L113.1,35.4z"/>
<g enable-background="new    ">
	<path d="M46.00537,14.30176c0-2.23926,1.20947-3.56836,3.21826-3.56836c1.39893,0,2.37842,0.63965,2.86816,1.90918l-0.65967,0.25
		c-0.36963-1-1.10938-1.47949-2.2085-1.47949c-1.59912,0-2.50879,1.04004-2.50879,2.88867c0,1.85938,0.89941,2.91797,2.4585,2.91797
		c1.08984,0,1.86914-0.50977,2.25879-1.50879l0.67969,0.25c-0.51953,1.26953-1.54883,1.93848-2.93848,1.93848
		C47.19482,17.89941,46.00537,16.55078,46.00537,14.30176z"/>
	<path d="M57.35303,14.78125v3.01855h-0.68945v-2.84863c0-1.06934-0.33984-1.54883-1.07959-1.54883
		c-0.93945,0-1.46924,0.76953-1.46924,2.12891v2.26855h-0.68945v-6.96582h0.68945v2.75781
		c0.31982-0.49902,0.91943-0.79883,1.62891-0.79883C56.80322,12.79297,57.35303,13.47266,57.35303,14.78125z"/>
	<path d="M62.05322,13.00293l-0.33984,0.55957c-0.22949-0.10059-0.43945-0.15039-0.64941-0.15039
		c-0.75977,0-1.31934,0.56934-1.31934,1.63965v2.74805h-0.68945v-4.92773h0.68945v0.74023
		c0.35986-0.64941,0.95947-0.81934,1.45898-0.81934C61.50342,12.79297,61.78369,12.85254,62.05322,13.00293z"/>
	<path d="M62.19482,15.33105c0-1.45898,0.94971-2.53809,2.35889-2.53809c1.39941,0,2.36865,1.0791,2.36865,2.53809
		c0,1.44922-0.95947,2.54883-2.36865,2.54883S62.19482,16.79004,62.19482,15.33105z M66.23291,15.33105
		c0-1.11914-0.62988-1.92871-1.6792-1.92871c-1.05957,0-1.66895,0.81934-1.66895,1.92871c0,1.11914,0.61963,1.93945,1.66895,1.93945
		C65.61328,17.27051,66.23291,16.43066,66.23291,15.33105z"/>
	<path d="M72.24268,14.78125v3.01855h-0.68945v-2.84863c0-1.05957-0.33984-1.54883-1.07959-1.54883
		c-0.92969,0-1.46924,0.7998-1.46924,2.18848v2.20898h-0.68945v-4.92773h0.68945v0.71973
		c0.31982-0.49902,0.91943-0.79883,1.62891-0.79883C71.69287,12.79297,72.24268,13.47266,72.24268,14.78125z"/>
	<path d="M73.51562,15.33105c0-1.45898,0.94922-2.53809,2.35742-2.53809c1.40039,0,2.36914,1.0791,2.36914,2.53809
		c0,1.44922-0.95898,2.54883-2.36914,2.54883C74.46484,17.87988,73.51562,16.79004,73.51562,15.33105z M77.55273,15.33105
		c0-1.11914-0.62988-1.92871-1.67969-1.92871c-1.05859,0-1.66797,0.81934-1.66797,1.92871
		c0,1.11914,0.61914,1.93945,1.66797,1.93945C76.93359,17.27051,77.55273,16.43066,77.55273,15.33105z"/>
	<path d="M79.59473,16.73047v-5.89648h0.68945v5.85645c0,0.33984,0.12012,0.55957,0.4502,0.55957
		c0.14941,0,0.31934-0.04004,0.46875-0.08984L81.21387,17.75c-0.20996,0.06934-0.45996,0.12988-0.67969,0.12988
		C79.96484,17.87988,79.59473,17.5,79.59473,16.73047z"/>
	<path d="M81.9043,15.33105c0-1.45898,0.94922-2.53809,2.35938-2.53809c1.39844,0,2.36816,1.0791,2.36816,2.53809
		c0,1.44922-0.95996,2.54883-2.36816,2.54883C82.85352,17.87988,81.9043,16.79004,81.9043,15.33105z M85.94238,15.33105
		c0-1.11914-0.62988-1.92871-1.67871-1.92871c-1.06055,0-1.66992,0.81934-1.66992,1.92871
		c0,1.11914,0.62012,1.93945,1.66992,1.93945C85.32227,17.27051,85.94238,16.43066,85.94238,15.33105z"/>
	<path d="M91.8623,18.55957c0,0.92969-0.87012,1.35938-2.1084,1.35938c-1.36914,0-2.19922-0.54004-2.19922-1.51953
		c0-0.09961,0.00977-0.16016,0.01953-0.21973L88.37402,17.5c-0.37988-0.16992-0.63965-0.4502-0.63965-0.93945
		c0-0.39941,0.17969-0.69922,0.5293-0.93945c-0.25977-0.2998-0.41992-0.67969-0.41992-1.11914c0-1,0.82031-1.70898,1.87891-1.70898
		c0.48047,0,0.91016,0.14941,1.23047,0.39941l0.67969-0.58984l0.35938,0.4502l-0.66992,0.55957
		c0.16992,0.26953,0.26953,0.5791,0.26953,0.92969c0,1.00879-0.81836,1.67871-1.8584,1.67871
		c-0.37988,0-0.72949-0.08984-1.01953-0.25c-0.2002,0.11035-0.31934,0.29004-0.31934,0.5c0,0.5,0.61914,0.61914,1.32812,0.72949
		C90.70312,17.34961,91.8623,17.49023,91.8623,18.55957z M91.17188,18.61914c0-0.59961-0.7793-0.68945-1.59863-0.81934
		c-0.21973-0.03027-0.4502-0.07031-0.65918-0.12012l-0.66992,0.64941c-0.00977,0.05078-0.00977,0.07031-0.00977,0.09082
		c0,0.69922,0.70898,0.91895,1.54883,0.91895C90.65234,19.33887,91.17188,19.09863,91.17188,18.61914z M88.52344,14.52148
		c0,0.63965,0.46094,1.12988,1.19922,1.12988c0.74023,0,1.17969-0.48047,1.17969-1.12988c0-0.67969-0.45898-1.14941-1.16895-1.14941
		C89.0332,13.37207,88.52344,13.8418,88.52344,14.52148z"/>
	<path d="M94.54297,17.74023l-2.08789-4.86816h0.75977l1.69922,4.05859l1.48828-4.05859h0.75977l-2.69824,6.9668h-0.73926
		L94.54297,17.74023z"/>
</g>
<g enable-background="new    ">
	<path d="M41.17871,72.35254h-2.4082v-0.65918h5.54688v0.65918h-2.41895v6.30664h-0.71973V72.35254z"/>
	<path d="M48.50781,76.38086h-3.6084c0.02051,1.0791,0.62012,1.72852,1.58984,1.72852c0.53906,0,0.96875-0.13965,1.41895-0.61914
		l0.47949,0.41895c-0.5791,0.61035-1.14941,0.83008-1.90918,0.83008c-1.49902,0-2.26855-1.11914-2.26855-2.51855
		c0-1.38965,0.75977-2.56836,2.18945-2.56836c1.50879,0,2.13867,1.17871,2.13867,2.29785
		C48.53809,76.09082,48.52734,76.26074,48.50781,76.38086z M44.89941,75.80078h2.97852c0-0.02051-0.00977-0.07031-0.00977-0.16016
		c-0.0498-0.7998-0.55957-1.40918-1.46875-1.40918C45.50977,74.23145,44.95996,74.93164,44.89941,75.80078z"/>
	<path d="M51.0791,76.19043l-1.79883-2.45898h0.83984l1.41895,1.97949l1.40918-1.97949h0.83984l-1.7998,2.45898l1.80957,2.46875
		h-0.84961l-1.40918-1.99902l-1.40918,1.99902h-0.84961L51.0791,76.19043z"/>
	<path d="M57.05859,78.60938c-0.25977,0.08008-0.51953,0.12988-0.74902,0.12988c-0.66016,0-1.13965-0.37012-1.13965-1.23926
		v-3.18848h-0.81934v-0.58008h0.81934v-1.37891l0.68945-0.51953v1.89844h1.18945v0.58008h-1.18945v3.09863
		c0,0.47949,0.21973,0.69922,0.60938,0.69922c0.16992,0,0.36035-0.04004,0.58008-0.10938L57.05859,78.60938z"/>
	<path d="M57.88965,77.4502l0.58008-0.25977c0.17969,0.50977,0.65918,0.93945,1.42871,0.93945
		c0.66992,0,1.09961-0.33008,1.09961-0.84961c0-1.30957-2.83887-0.49023-2.83887-2.23926c0-0.85938,0.7002-1.38867,1.68945-1.38867
		c0.79004,0,1.42969,0.3291,1.76953,1.0293l-0.5498,0.2998c-0.24023-0.44043-0.62988-0.71973-1.23926-0.71973
		c-0.61035,0-1,0.25-1,0.67969c0,1.16895,2.84863,0.42969,2.84863,2.29883c0,0.99902-0.81934,1.49902-1.76855,1.49902
		C58.93945,78.73926,58.14941,78.23926,57.88965,77.4502z"/>
	<path d="M70.31641,76.19043c0,1.46973-0.74902,2.54883-2.18848,2.54883c-0.71973,0-1.26953-0.28027-1.62891-0.73926v0.65918
		h-0.68945v-6.96582h0.68945v2.69824c0.36914-0.47949,0.92969-0.75,1.62891-0.75
		C69.49707,73.6416,70.31641,74.65137,70.31641,76.19043z M69.62695,76.19043c0-1.16895-0.59961-1.93848-1.59863-1.93848
		c-0.99023,0-1.58984,0.76953-1.58984,1.93848c0,1.11914,0.5498,1.93945,1.58984,1.93945
		C69.07715,78.12988,69.62695,77.30957,69.62695,76.19043z"/>
	<path d="M75.64648,76.38086h-3.60742c0.01953,1.0791,0.61914,1.72852,1.58887,1.72852c0.54004,0,0.96973-0.13965,1.41895-0.61914
		l0.48047,0.41895c-0.58008,0.61035-1.14941,0.83008-1.90918,0.83008c-1.49902,0-2.26855-1.11914-2.26855-2.51855
		c0-1.38965,0.75977-2.56836,2.18848-2.56836c1.50879,0,2.13867,1.17871,2.13867,2.29785
		C75.67676,76.09082,75.66699,76.26074,75.64648,76.38086z M72.03906,75.80078h2.97852c0-0.02051-0.01074-0.07031-0.01074-0.16016
		c-0.0498-0.7998-0.55957-1.40918-1.46875-1.40918C72.64844,74.23145,72.09863,74.93164,72.03906,75.80078z"/>
	<path d="M77.0293,77.58984v-5.89648h0.68945v5.85645c0,0.33984,0.12012,0.55957,0.4502,0.55957
		c0.14941,0,0.31934-0.04004,0.46973-0.08984l0.00977,0.58984c-0.20996,0.06934-0.45996,0.12988-0.67969,0.12988
		C77.39941,78.73926,77.0293,78.35938,77.0293,77.58984z"/>
	<path d="M79.33984,76.19043c0-1.45898,0.94922-2.53809,2.3584-2.53809c1.39941,0,2.36816,1.0791,2.36816,2.53809
		c0,1.44922-0.95898,2.54883-2.36816,2.54883S79.33984,77.64941,79.33984,76.19043z M83.37695,76.19043
		c0-1.11914-0.62988-1.92871-1.67871-1.92871c-1.05957,0-1.66895,0.81934-1.66895,1.92871
		c0,1.11914,0.61914,1.93945,1.66895,1.93945C82.75781,78.12988,83.37695,77.29004,83.37695,76.19043z"/>
	<path d="M89.38672,75.64062v3.01855h-0.68945v-2.84863c0-1.05957-0.33984-1.54883-1.0791-1.54883
		c-0.92969,0-1.46973,0.7998-1.46973,2.18848v2.20898h-0.68945v-4.92773h0.68945v0.71973
		c0.32031-0.49902,0.91992-0.79883,1.62891-0.79883C88.83691,73.65234,89.38672,74.33203,89.38672,75.64062z"/>
	<path d="M94.92676,79.41895c0,0.92969-0.86914,1.35938-2.1084,1.35938c-1.36914,0-2.19922-0.54004-2.19922-1.51953
		c0-0.09961,0.00977-0.16016,0.02051-0.21973l0.79883-0.67969c-0.37988-0.16992-0.63965-0.4502-0.63965-0.93945
		c0-0.39941,0.18066-0.69922,0.53027-0.93945c-0.25977-0.2998-0.41992-0.67969-0.41992-1.11914c0-1,0.81934-1.70898,1.87891-1.70898
		c0.47949,0,0.90918,0.14941,1.22949,0.39941l0.67969-0.58984l0.35938,0.4502l-0.66992,0.55957
		c0.16992,0.26953,0.27051,0.5791,0.27051,0.92969c0,1.00879-0.81934,1.67871-1.85938,1.67871
		c-0.37988,0-0.72949-0.08984-1.01953-0.25c-0.19922,0.11035-0.31934,0.29004-0.31934,0.5c0,0.5,0.61914,0.61914,1.3291,0.72949
		C93.76758,78.20898,94.92676,78.34961,94.92676,79.41895z M94.2373,79.47852c0-0.59961-0.7793-0.68945-1.59961-0.81934
		c-0.21973-0.03027-0.44922-0.07031-0.65918-0.12012l-0.66992,0.64941c-0.00977,0.05078-0.00977,0.07031-0.00977,0.09082
		c0,0.69922,0.70996,0.91895,1.54883,0.91895C93.71777,80.19824,94.2373,79.95801,94.2373,79.47852z M91.58887,75.38086
		c0,0.63965,0.45996,1.12988,1.19922,1.12988s1.17969-0.48047,1.17969-1.12988c0-0.67969-0.45996-1.14941-1.16992-1.14941
		C92.09863,74.23145,91.58887,74.70117,91.58887,75.38086z"/>
	<path d="M96.23926,71.69336h0.79883v1.01953h-0.79883V71.69336z M96.29883,73.73145h0.68945v4.92773h-0.68945V73.73145z"/>
	<path d="M102.73633,75.64062v3.01855h-0.68945v-2.84863c0-1.05957-0.33984-1.54883-1.0791-1.54883
		c-0.92969,0-1.46973,0.7998-1.46973,2.18848v2.20898h-0.68945v-4.92773h0.68945v0.71973
		c0.32031-0.49902,0.91992-0.79883,1.62891-0.79883C102.18652,73.65234,102.73633,74.33203,102.73633,75.64062z"/>
	<path d="M108.27637,79.41895c0,0.92969-0.86914,1.35938-2.1084,1.35938c-1.36914,0-2.19922-0.54004-2.19922-1.51953
		c0-0.09961,0.00977-0.16016,0.02051-0.21973l0.79883-0.67969c-0.37988-0.16992-0.63965-0.4502-0.63965-0.93945
		c0-0.39941,0.18066-0.69922,0.53027-0.93945c-0.25977-0.2998-0.41992-0.67969-0.41992-1.11914c0-1,0.81934-1.70898,1.87891-1.70898
		c0.47949,0,0.90918,0.14941,1.22949,0.39941l0.67969-0.58984l0.35938,0.4502l-0.66992,0.55957
		c0.16992,0.26953,0.27051,0.5791,0.27051,0.92969c0,1.00879-0.81934,1.67871-1.85938,1.67871
		c-0.37988,0-0.72949-0.08984-1.01953-0.25c-0.19922,0.11035-0.31934,0.29004-0.31934,0.5c0,0.5,0.61914,0.61914,1.3291,0.72949
		C107.11719,78.20898,108.27637,78.34961,108.27637,79.41895z M107.58691,79.47852c0-0.59961-0.7793-0.68945-1.59961-0.81934
		c-0.21973-0.03027-0.44922-0.07031-0.65918-0.12012l-0.66992,0.64941c-0.00977,0.05078-0.00977,0.07031-0.00977,0.09082
		c0,0.69922,0.70996,0.91895,1.54883,0.91895C107.06738,80.19824,107.58691,79.95801,107.58691,79.47852z M104.93848,75.38086
		c0,0.63965,0.45996,1.12988,1.19922,1.12988s1.17969-0.48047,1.17969-1.12988c0-0.67969-0.45996-1.14941-1.16992-1.14941
		C105.44824,74.23145,104.93848,74.70117,104.93848,75.38086z"/>
</g>
<g enable-background="new    ">
	<path d="M32.88867,90.60938c-0.25977,0.08008-0.51953,0.12988-0.74902,0.12988C31.47949,90.73926,31,90.36914,31,89.5v-3.18848
		h-0.81934v-0.58008H31v-1.37891l0.68945-0.51953v1.89844h1.18945v0.58008h-1.18945v3.09863
		c0,0.47949,0.21973,0.69922,0.60938,0.69922c0.16992,0,0.36035-0.04004,0.58008-0.10938L32.88867,90.60938z"/>
	<path d="M33.7207,88.19043c0-1.45898,0.94922-2.53809,2.3584-2.53809c1.39941,0,2.36816,1.0791,2.36816,2.53809
		c0,1.44922-0.95898,2.54883-2.36816,2.54883S33.7207,89.64941,33.7207,88.19043z M37.75781,88.19043
		c0-1.11914-0.62988-1.92871-1.67871-1.92871c-1.05957,0-1.66895,0.81934-1.66895,1.92871
		c0,1.11914,0.61914,1.93945,1.66895,1.93945C37.13867,90.12988,37.75781,89.29004,37.75781,88.19043z"/>
	<path d="M44.61914,90.60938c-0.25977,0.08008-0.52051,0.12988-0.75,0.12988c-0.65918,0-1.13965-0.37012-1.13965-1.23926v-3.18848
		h-0.81934v-0.58008h0.81934v-1.37891l0.69043-0.51953v1.89844h1.18848v0.58008h-1.18848v3.09863
		c0,0.47949,0.21973,0.69922,0.60938,0.69922c0.16992,0,0.35938-0.04004,0.5791-0.10938L44.61914,90.60938z"/>
	<path d="M49.85742,87.64062v3.01855h-0.68945v-2.84863c0-1.06934-0.33984-1.54883-1.0791-1.54883
		c-0.93945,0-1.46973,0.76953-1.46973,2.12891v2.26855h-0.68945v-6.96582h0.68945v2.75781
		c0.32031-0.49902,0.91992-0.79883,1.62891-0.79883C49.30762,85.65234,49.85742,86.33203,49.85742,87.64062z"/>
	<path d="M55.45703,88.38086h-3.60742c0.01953,1.0791,0.61914,1.72852,1.58887,1.72852c0.54004,0,0.96973-0.13965,1.41895-0.61914
		l0.48047,0.41895c-0.58008,0.61035-1.14941,0.83008-1.90918,0.83008c-1.49902,0-2.26855-1.11914-2.26855-2.51855
		c0-1.38965,0.75977-2.56836,2.18848-2.56836c1.50879,0,2.13867,1.17871,2.13867,2.29785
		C55.4873,88.09082,55.47754,88.26074,55.45703,88.38086z M51.84961,87.80078h2.97852c0-0.02051-0.01074-0.07031-0.01074-0.16016
		c-0.0498-0.7998-0.55957-1.40918-1.46875-1.40918C52.45898,86.23145,51.90918,86.93164,51.84961,87.80078z"/>
	<path d="M59.08008,89.4502l0.5791-0.25977c0.17969,0.50977,0.66016,0.93945,1.42969,0.93945
		c0.66895,0,1.09961-0.33008,1.09961-0.84961c0-1.30957-2.83887-0.49023-2.83887-2.23926c0-0.85938,0.69922-1.38867,1.68945-1.38867
		c0.78906,0,1.42871,0.3291,1.76855,1.0293l-0.5498,0.2998c-0.23926-0.44043-0.62988-0.71973-1.23926-0.71973
		s-0.99902,0.25-0.99902,0.67969c0,1.16895,2.84766,0.42969,2.84766,2.29883c0,0.99902-0.81934,1.49902-1.76855,1.49902
		C60.12891,90.73926,59.33984,90.23926,59.08008,89.4502z"/>
	<path d="M67.83789,87.59082v3.06836h-0.62988l-0.04004-0.75977c-0.38965,0.5498-0.98926,0.83984-1.76953,0.83984
		c-1.06934,0-1.69824-0.55957-1.69824-1.50977c0-0.49902,0.19922-0.87891,0.55957-1.09863
		c0.37988-0.21973,0.90918-0.31055,1.87891-0.31055h1.00879v-0.22949c0-0.85938-0.44922-1.3291-1.2793-1.3291
		c-0.61914,0-1.09863,0.26953-1.49902,0.81934l-0.49902-0.41992c0.5293-0.68945,1.16895-1.00879,2.00879-1.00879
		C67.11816,85.65234,67.83789,86.36133,67.83789,87.59082z M67.14746,88.4502v-0.06934h-0.94922
		c-0.90918,0-1.29883,0.05957-1.53906,0.24902c-0.17969,0.14062-0.26953,0.36035-0.26953,0.63965
		c0,0.5498,0.46973,0.90039,1.20898,0.90039C66.54785,90.16992,67.14746,89.5,67.14746,88.4502z"/>
	<path d="M76.27637,87.58105v3.07812h-0.69043v-2.88867c0-0.41992,0-1.50879-1.0791-1.50879
		c-0.99902,0-1.26953,0.91895-1.26953,2.02832v2.36914h-0.68945v-2.84863c0-0.81934-0.25-1.54883-1.10938-1.54883
		c-0.95898,0-1.22949,0.90918-1.22949,2.02832v2.36914h-0.68945l-0.00977-4.92773h0.66992v0.60059
		c0.30957-0.49023,0.80957-0.67969,1.3584-0.67969c0.69043,0,1.2002,0.2998,1.44922,0.94922
		c0.32031-0.62988,0.87012-0.94922,1.61914-0.94922C75.78613,85.65234,76.27637,86.43164,76.27637,87.58105z"/>
	<path d="M81.87695,88.38086h-3.60742c0.01953,1.0791,0.61914,1.72852,1.58887,1.72852c0.54004,0,0.96973-0.13965,1.41895-0.61914
		l0.48047,0.41895c-0.58008,0.61035-1.14941,0.83008-1.90918,0.83008c-1.49902,0-2.26855-1.11914-2.26855-2.51855
		c0-1.38965,0.75977-2.56836,2.18848-2.56836c1.50879,0,2.13867,1.17871,2.13867,2.29785
		C81.90723,88.09082,81.89746,88.26074,81.87695,88.38086z M78.26953,87.80078h2.97852c0-0.02051-0.01074-0.07031-0.01074-0.16016
		c-0.0498-0.7998-0.55957-1.40918-1.46875-1.40918C78.87891,86.23145,78.3291,86.93164,78.26953,87.80078z"/>
	<path d="M85.31934,85.73145h0.75l1.54883,4.04785l1.55957-4.04785h0.75977l-2.01953,4.92773H87.3291L85.31934,85.73145z"/>
	<path d="M90.46973,88.19043c0-1.45898,0.94922-2.53809,2.3584-2.53809c1.39941,0,2.36914,1.0791,2.36914,2.53809
		c0,1.44922-0.95996,2.54883-2.36914,2.54883S90.46973,89.64941,90.46973,88.19043z M94.50781,88.19043
		c0-1.11914-0.62988-1.92871-1.67969-1.92871c-1.05957,0-1.66895,0.81934-1.66895,1.92871
		c0,1.11914,0.62012,1.93945,1.66895,1.93945C93.8877,90.12988,94.50781,89.29004,94.50781,88.19043z"/>
	<path d="M96.54883,89.58984v-5.89648h0.68945v5.85645c0,0.33984,0.12012,0.55957,0.4502,0.55957
		c0.14941,0,0.31934-0.04004,0.46973-0.08984l0.00977,0.58984c-0.20996,0.06934-0.45996,0.12988-0.67969,0.12988
		C96.91895,90.73926,96.54883,90.35938,96.54883,89.58984z"/>
	<path d="M103.04688,85.73145v4.92773h-0.68945v-0.70996c-0.34961,0.53027-0.97949,0.79004-1.62891,0.79004
		c-1.11914,0-1.60938-0.76953-1.60938-1.98926v-3.01855h0.68945v2.84863c0,0.7998,0.14062,1.5498,1.08008,1.5498
		c0.97949,0,1.46875-0.84961,1.46875-2.12891v-2.26953H103.04688z"/>
	<path d="M111.62598,87.58105v3.07812h-0.69043v-2.88867c0-0.41992,0-1.50879-1.0791-1.50879
		c-0.99902,0-1.26953,0.91895-1.26953,2.02832v2.36914h-0.68945v-2.84863c0-0.81934-0.25-1.54883-1.10938-1.54883
		c-0.95898,0-1.22949,0.90918-1.22949,2.02832v2.36914h-0.68945l-0.00977-4.92773h0.66992v0.60059
		c0.30957-0.49023,0.80957-0.67969,1.3584-0.67969c0.69043,0,1.2002,0.2998,1.44922,0.94922
		c0.32031-0.62988,0.87012-0.94922,1.61914-0.94922C111.13574,85.65234,111.62598,86.43164,111.62598,87.58105z"/>
	<path d="M117.22656,88.38086h-3.60742c0.01953,1.0791,0.61914,1.72852,1.58887,1.72852c0.54004,0,0.96973-0.13965,1.41895-0.61914
		l0.48047,0.41895c-0.58008,0.61035-1.14941,0.83008-1.90918,0.83008c-1.49902,0-2.26855-1.11914-2.26855-2.51855
		c0-1.38965,0.75977-2.56836,2.18848-2.56836c1.50879,0,2.13867,1.17871,2.13867,2.29785
		C117.25684,88.09082,117.24707,88.26074,117.22656,88.38086z M113.61914,87.80078h2.97852
		c0-0.02051-0.01074-0.07031-0.01074-0.16016c-0.0498-0.7998-0.55957-1.40918-1.46875-1.40918
		C114.22852,86.23145,113.67871,86.93164,113.61914,87.80078z"/>
</g>
</svg>
