<?xml version="1.0" encoding="utf-8"?>
<!-- Generator: Adobe Illustrator 25.0.0, SVG Export Plug-In . SVG Version: 6.00 Build 0)  -->
<svg version="1.1" id="Livello_1" xmlns="http://www.w3.org/2000/svg" xmlns:xlink="http://www.w3.org/1999/xlink" x="0px" y="0px"
	 viewBox="0 0 75 161" enable-background="new 0 0 75 161" xml:space="preserve">
<g id="Group-2" transform="translate(247.667 356.881)">
	
		<ellipse id="Oval" fill="#FF3366" stroke="#444444" stroke-width="0.25" cx="-214.60001" cy="-292.20001" rx="30.60001" ry="17.70001"/>
	
		<ellipse id="Oval-2" fill="#FF3366" stroke="#444444" stroke-width="0.25" cx="-214.60001" cy="-296.29999" rx="26.60001" ry="15.39999"/>
	
		<ellipse id="Oval-3" fill="#FFA500" stroke="#444444" stroke-width="0.25" stroke-linejoin="round" cx="-214.60001" cy="-300.39999" rx="23.60001" ry="13.60001"/>
	
		<ellipse id="Oval-4" fill="#FFA500" stroke="#444444" stroke-width="0.25" stroke-linejoin="round" cx="-214.60001" cy="-304.39999" rx="21.39999" ry="12.39999"/>
	
		<ellipse id="Oval-5" fill="#FFD93B" stroke="#444444" stroke-width="0.25" stroke-linejoin="round" cx="-214.60001" cy="-308.5" rx="19.39999" ry="11.20001"/>
	
		<ellipse id="Oval-6" fill="#FFD93B" stroke="#444444" stroke-width="0.25" stroke-linejoin="round" cx="-214.60001" cy="-312.60001" rx="16.8" ry="9.70001"/>
	
		<ellipse id="Oval-7" fill="#00BFD3" stroke="#444444" stroke-width="0.25" stroke-linejoin="round" cx="-214.60001" cy="-316.70001" rx="13" ry="7.5"/>
	
		<ellipse id="Oval-8" fill="#00BFD3" stroke="#444444" stroke-width="0.25" stroke-linejoin="round" cx="-214.60001" cy="-320.70001" rx="7.5" ry="4.29999"/>
</g>
<path id="Tracciato_116466" fill="none" stroke="#707070" stroke-width="0.25" d="M32.10001,35
	C43.60001,35,41.5,23.79999,41.5,23.79999"/>
<path id="Tracciato_116467" fill="none" stroke="#707070" stroke-width="0.25" d="M35.20001,77.60001
	c0,11.5,11.20001,9.39999,11.20001,9.39999"/>
<g>
	<path d="M2.44775,115.79395h-2.4082v-0.66016h5.54688v0.66016H3.16748v6.30664H2.44775V115.79395z"/>
	<path d="M9.77686,119.82129h-3.6084c0.02051,1.08008,0.62012,1.72949,1.58887,1.72949c0.54004,0,0.96973-0.13965,1.41992-0.62012
		l0.47949,0.41992c-0.58008,0.60938-1.14941,0.83008-1.90918,0.83008c-1.49902,0-2.26855-1.12012-2.26855-2.51855
		c0-1.38965,0.75977-2.56934,2.18848-2.56934c1.50977,0,2.13867,1.17969,2.13867,2.29883
		C9.80615,119.53223,9.79639,119.70117,9.77686,119.82129z M6.16846,119.24219h2.97852c0-0.02051-0.00977-0.07031-0.00977-0.16016
		c-0.0498-0.7998-0.55957-1.40918-1.46973-1.40918C6.77783,117.67285,6.229,118.37207,6.16846,119.24219z"/>
	<path d="M12.34814,119.63184l-1.79883-2.45898h0.83984l1.41895,1.97949l1.40918-1.97949h0.83984l-1.79883,2.45898l1.80859,2.46875
		h-0.84961l-1.40918-1.99902l-1.40918,1.99902H10.5493L12.34814,119.63184z"/>
	<path d="M18.32764,122.05078c-0.25977,0.0791-0.51953,0.12988-0.74902,0.12988c-0.66016,0-1.13965-0.37012-1.13965-1.23926
		v-3.18848h-0.81934v-0.58008h0.81934v-1.37891l0.68945-0.51953v1.89844h1.18945v0.58008h-1.18945v3.09766
		c0,0.48047,0.21973,0.7002,0.61035,0.7002c0.16992,0,0.35938-0.04004,0.5791-0.11035L18.32764,122.05078z"/>
	<path d="M26.87646,119.63184c0,1.46875-0.75,2.54883-2.18848,2.54883c-0.71973,0-1.26953-0.28027-1.62891-0.74023v2.69922h-0.69043
		v-6.9668h0.69043v0.66016c0.36914-0.48047,0.92871-0.75,1.62891-0.75C26.05713,117.08301,26.87646,118.09277,26.87646,119.63184z
		 M26.18701,119.63184c0-1.16992-0.59961-1.93945-1.59961-1.93945c-0.98926,0-1.58887,0.76953-1.58887,1.93945
		c0,1.11914,0.5498,1.93848,1.58887,1.93848C25.63721,121.57031,26.18701,120.75098,26.18701,119.63184z"/>
	<path d="M32.06689,117.17285v4.92773h-0.69043v-0.70996c-0.34961,0.53027-0.97949,0.79004-1.62891,0.79004
		c-1.11914,0-1.6084-0.76953-1.6084-1.98926v-3.01855h0.68945v2.84863c0,0.7998,0.13965,1.54883,1.0791,1.54883
		c0.97949,0,1.46875-0.84961,1.46875-2.12891v-2.26855C31.37645,117.17286,32.06689,117.17286,32.06689,117.17285z"/>
	<path d="M38.39648,119.63184c0,1.46875-0.75049,2.54883-2.18896,2.54883c-0.71973,0-1.26953-0.28027-1.62891-0.74023v0.66016
		h-0.69043v-6.9668h0.69043v2.69922c0.36914-0.48047,0.92871-0.75,1.62891-0.75
		C37.57666,117.08301,38.39648,118.09277,38.39648,119.63184z M37.70654,119.63184c0-1.16992-0.59961-1.93945-1.59961-1.93945
		c-0.98926,0-1.58887,0.76953-1.58887,1.93945c0,1.11914,0.5498,1.93848,1.58887,1.93848
		C37.15674,121.57031,37.70654,120.75098,37.70654,119.63184z"/>
	<path d="M39.78906,121.03125v-5.89746h0.69043v5.85742c0,0.33984,0.11914,0.55957,0.44922,0.55957
		c0.15039,0,0.32031-0.04004,0.46973-0.08984l0.00977,0.58984c-0.20996,0.06934-0.45898,0.12988-0.67969,0.12988
		C40.15918,122.18066,39.78906,121.80078,39.78906,121.03125z"/>
	<path d="M42.46875,115.13379h0.7998v1.01953h-0.7998V115.13379z M42.52832,117.17285h0.68945v4.92773h-0.68945V117.17285z"/>
	<path d="M44.50977,120.89062l0.5791-0.25977c0.18066,0.50977,0.66016,0.93945,1.42969,0.93945
		c0.66992,0,1.09961-0.3291,1.09961-0.84961c0-1.30859-2.83887-0.48926-2.83887-2.23828c0-0.85938,0.7002-1.38965,1.68945-1.38965
		c0.78906,0,1.42871,0.33008,1.76855,1.0293l-0.5498,0.2998c-0.23926-0.43945-0.62891-0.71875-1.23926-0.71875
		c-0.60938,0-0.99902,0.24902-0.99902,0.67969c0,1.16895,2.84863,0.42969,2.84863,2.29785c0,1-0.81934,1.5-1.76953,1.5
		C45.55957,122.18066,44.76953,121.68066,44.50977,120.89062z"/>
	<path d="M53.62598,119.08203v3.01855h-0.68945v-2.84863c0-1.06934-0.33984-1.54883-1.0791-1.54883
		c-0.93945,0-1.46973,0.76953-1.46973,2.12891v2.26855h-0.68945v-6.9668h0.68945v2.75879c0.32031-0.5,0.91992-0.7998,1.62988-0.7998
		C53.07715,117.09277,53.62598,117.77246,53.62598,119.08203z"/>
	<path d="M59.22656,119.82129h-3.6084c0.02051,1.08008,0.62012,1.72949,1.58887,1.72949c0.54004,0,0.96973-0.13965,1.41992-0.62012
		l0.47949,0.41992c-0.58008,0.60938-1.14941,0.83008-1.90918,0.83008c-1.49902,0-2.26855-1.12012-2.26855-2.51855
		c0-1.38965,0.75977-2.56934,2.18848-2.56934c1.50977,0,2.13867,1.17969,2.13867,2.29883
		C59.25586,119.53223,59.24609,119.70117,59.22656,119.82129z M55.61816,119.24219h2.97852
		c0-0.02051-0.00977-0.07031-0.00977-0.16016c-0.0498-0.7998-0.55957-1.40918-1.46973-1.40918
		C56.22754,117.67285,55.67871,118.37207,55.61816,119.24219z"/>
	<path d="M64.7666,115.13379v6.9668h-0.68945v-0.66016c-0.36035,0.45996-0.91016,0.74023-1.62891,0.74023
		c-1.43945,0-2.18945-1.08008-2.18945-2.54883c0-1.53906,0.81934-2.54883,2.18945-2.54883c0.69922,0,1.25879,0.26953,1.62891,0.75
		v-2.69922C64.07715,115.13378,64.7666,115.13378,64.7666,115.13379z M64.13672,119.63184
		c0-1.16992-0.59961-1.93945-1.58887-1.93945c-1,0-1.59961,0.76953-1.59961,1.93945c0,1.11914,0.5498,1.93848,1.59961,1.93848
		C63.58691,121.57031,64.13672,120.75098,64.13672,119.63184z"/>
	<path d="M0.54932,127.13379h0.7998v1.01953h-0.7998C0.54932,128.15332,0.54932,127.13379,0.54932,127.13379z M0.60889,129.17285
		h0.69043v4.92773H0.60889V129.17285z"/>
	<path d="M7.04639,131.08203v3.01855H6.35693v-2.84863c0-1.05957-0.33984-1.54883-1.0791-1.54883
		c-0.92969,0-1.46875,0.79883-1.46875,2.18848v2.20898H3.11865v-4.92773h0.69043v0.71973c0.31934-0.5,0.91895-0.7998,1.62891-0.7998
		C6.49756,129.09277,7.04639,129.77246,7.04639,131.08203z"/>
	<path d="M18.23584,131.02246v3.07812h-0.68945v-2.88867c0-0.41992,0-1.50879-1.08008-1.50879
		c-0.99902,0-1.26855,0.91895-1.26855,2.02832v2.36914h-0.69043v-2.84863c0-0.81934-0.25-1.54883-1.10938-1.54883
		c-0.95898,0-1.22949,0.90918-1.22949,2.02832v2.36914H11.479l-0.00977-4.92773h0.66992v0.59961
		c0.30957-0.48926,0.80957-0.67969,1.35938-0.67969c0.68945,0,1.19922,0.2998,1.44922,0.9502
		c0.31934-0.62988,0.86914-0.9502,1.61914-0.9502C17.74561,129.09277,18.23584,129.87305,18.23584,131.02246z"/>
	<path d="M19.50928,131.63184c0-1.45898,0.9502-2.53906,2.35938-2.53906c1.39844,0,2.36816,1.08008,2.36816,2.53906
		c0,1.44922-0.95898,2.54883-2.36816,2.54883S19.50928,133.09082,19.50928,131.63184z M23.54736,131.63184
		c0-1.11914-0.62988-1.92871-1.67871-1.92871c-1.05957,0-1.66992,0.81934-1.66992,1.92871
		c0,1.11914,0.62012,1.93848,1.66992,1.93848C22.92725,133.57031,23.54736,132.73145,23.54736,131.63184z"/>
	<path d="M28.62744,129.30273l-0.33984,0.55957c-0.23047-0.09961-0.44043-0.14941-0.65039-0.14941
		c-0.75879,0-1.31836,0.56934-1.31836,1.63867v2.74902h-0.69043v-4.92773h0.69043v0.74023
		c0.35938-0.65039,0.95898-0.82031,1.45898-0.82031C28.07764,129.09277,28.35693,129.15332,28.62744,129.30273z"/>
	<path d="M33.09717,131.82129h-3.6084c0.02051,1.08008,0.62012,1.72949,1.58887,1.72949c0.54004,0,0.96973-0.13965,1.41992-0.62012
		l0.47949,0.41992c-0.58008,0.60938-1.14941,0.83008-1.90918,0.83008c-1.49902,0-2.26855-1.12012-2.26855-2.51855
		c0-1.38965,0.75977-2.56934,2.18848-2.56934c1.50977,0,2.13867,1.17969,2.13867,2.29883
		C33.12646,131.53223,33.1167,131.70117,33.09717,131.82129z M29.48877,131.24219h2.97852
		c0-0.02051-0.00977-0.07031-0.00977-0.16016c-0.0498-0.7998-0.55957-1.40918-1.46973-1.40918
		C30.09814,129.67285,29.54932,130.37207,29.48877,131.24219z"/>
	<path d="M39.29785,134.05078c-0.25977,0.0791-0.51953,0.12988-0.74902,0.12988c-0.66064,0-1.14014-0.37012-1.14014-1.23926
		v-3.18848h-0.81934v-0.58008h0.81934v-1.37891l0.68994-0.51953v1.89844h1.18945v0.58008h-1.18945v3.09766
		c0,0.48047,0.21973,0.7002,0.61035,0.7002c0.16992,0,0.35938-0.04004,0.5791-0.11035L39.29785,134.05078z"/>
	<path d="M44.53613,131.08203v3.01855h-0.68945v-2.84863c0-1.06934-0.33984-1.54883-1.0791-1.54883
		c-0.93945,0-1.46973,0.76953-1.46973,2.12891v2.26855H40.6084v-6.9668h0.68945v2.75879c0.32031-0.5,0.91992-0.7998,1.62988-0.7998
		C43.9873,129.09277,44.53613,129.77246,44.53613,131.08203z"/>
	<path d="M49.90625,131.03223v3.06836h-0.62891l-0.04004-0.75977c-0.39062,0.5498-0.99023,0.83984-1.76953,0.83984
		c-1.06934,0-1.69922-0.56055-1.69922-1.50977c0-0.49902,0.2002-0.87891,0.55957-1.09961
		c0.37988-0.21973,0.91016-0.30957,1.87988-0.30957h1.00879v-0.22949c0-0.85938-0.44922-1.3291-1.2793-1.3291
		c-0.61914,0-1.09961,0.26953-1.49902,0.81934l-0.5-0.41992c0.53027-0.68945,1.16992-1.00977,2.00879-1.00977
		C49.18652,129.09277,49.90625,129.80273,49.90625,131.03223z M49.2168,131.8916v-0.07031h-0.94922
		c-0.90918,0-1.2998,0.06055-1.53906,0.25c-0.17969,0.13965-0.27051,0.36035-0.27051,0.63965
		c0,0.5498,0.4707,0.89941,1.20996,0.89941C48.61719,133.61035,49.2168,132.94141,49.2168,131.8916z"/>
	<path d="M55.5166,131.08203v3.01855h-0.68945v-2.84863c0-1.05957-0.33984-1.54883-1.0791-1.54883
		c-0.92969,0-1.46973,0.79883-1.46973,2.18848v2.20898h-0.68945v-4.92773h0.68945v0.71973
		c0.32031-0.5,0.91992-0.7998,1.62988-0.7998C54.96777,129.09277,55.5166,129.77246,55.5166,131.08203z"/>
	<path d="M0.1792,143.63184c0-1.45898,0.9502-2.53906,2.35938-2.53906c1.39844,0,2.36816,1.08008,2.36816,2.53906
		c0,1.44922-0.95898,2.54883-2.36816,2.54883S0.1792,145.09082,0.1792,143.63184z M4.21729,143.63184
		c0-1.11914-0.62988-1.92871-1.67871-1.92871c-1.05957,0-1.66992,0.81934-1.66992,1.92871
		c0,1.11914,0.62012,1.93848,1.66992,1.93848C3.59717,145.57031,4.21729,144.73145,4.21729,143.63184z"/>
	<path d="M10.22607,143.08203v3.01855H9.53662v-2.84863c0-1.05957-0.33984-1.54883-1.0791-1.54883
		c-0.92969,0-1.46875,0.79883-1.46875,2.18848v2.20898H6.29834v-4.92773h0.69043v0.71973c0.31934-0.5,0.91895-0.7998,1.62891-0.7998
		C9.67725,141.09277,10.22607,141.77246,10.22607,143.08203z"/>
	<path d="M15.82666,143.82129h-3.6084c0.02051,1.08008,0.62012,1.72949,1.58887,1.72949c0.54004,0,0.96973-0.13965,1.41992-0.62012
		l0.47949,0.41992c-0.58008,0.60938-1.14941,0.83008-1.90918,0.83008c-1.49902,0-2.26855-1.12012-2.26855-2.51855
		c0-1.38965,0.75977-2.56934,2.18848-2.56934c1.50977,0,2.13867,1.17969,2.13867,2.29883
		C15.85596,143.53223,15.84619,143.70117,15.82666,143.82129z M12.21826,143.24219h2.97852
		c0-0.02051-0.00977-0.07031-0.00977-0.16016c-0.0498-0.7998-0.55957-1.40918-1.46973-1.40918
		C12.82764,141.67285,12.27881,142.37207,12.21826,143.24219z"/>
	<path d="M19.56982,143.65137c0-1.29883,0.72949-2.55859,2.21875-2.55859c0.87891,0,1.6084,0.44043,1.99902,1.35938
		l-0.66016,0.25977c-0.22949-0.62891-0.71973-1.00879-1.33887-1.00879c-1.0498,0-1.51953,0.93945-1.51953,1.94824
		c0,1.00977,0.46973,1.91895,1.5293,1.91895c0.62012,0,1.10938-0.36914,1.29883-0.99902l0.63965,0.24023
		c-0.3291,0.89941-1.04883,1.36914-1.93848,1.36914C20.36865,146.18066,19.56982,145.02051,19.56982,143.65137z"/>
	<path d="M24.57861,143.63184c0-1.45898,0.9502-2.53906,2.35938-2.53906c1.39844,0,2.36816,1.08008,2.36816,2.53906
		c0,1.44922-0.95898,2.54883-2.36816,2.54883S24.57861,145.09082,24.57861,143.63184z M28.6167,143.63184
		c0-1.11914-0.62988-1.92871-1.67871-1.92871c-1.05957,0-1.66992,0.81934-1.66992,1.92871
		c0,1.11914,0.62012,1.93848,1.66992,1.93848C27.99658,145.57031,28.6167,144.73145,28.6167,143.63184z"/>
	<path d="M30.65869,145.03125v-5.89746h0.69043v5.85742c0,0.33984,0.11914,0.55957,0.44922,0.55957
		c0.15039,0,0.32031-0.04004,0.46973-0.08984l0.00977,0.58984c-0.20996,0.06934-0.45898,0.12988-0.67969,0.12988
		C31.02881,146.18066,30.65869,145.80078,30.65869,145.03125z"/>
	<path d="M33.35791,145.03125v-5.89746h0.69043v5.85742c0,0.33984,0.11914,0.55957,0.44922,0.55957
		c0.15039,0,0.32031-0.04004,0.46973-0.08984l0.00977,0.58984c-0.20996,0.06934-0.45898,0.12988-0.67969,0.12988
		C33.72803,146.18066,33.35791,145.80078,33.35791,145.03125z"/>
	<path d="M39.99707,143.82129h-3.60889c0.02051,1.08008,0.62012,1.72949,1.58887,1.72949c0.54053,0,0.97021-0.13965,1.42041-0.62012
		l0.47949,0.41992c-0.58008,0.60938-1.14941,0.83008-1.90967,0.83008c-1.49902,0-2.26855-1.12012-2.26855-2.51855
		c0-1.38965,0.75977-2.56934,2.18848-2.56934c1.51025,0,2.13916,1.17969,2.13916,2.29883
		C40.02637,143.53223,40.0166,143.70117,39.99707,143.82129z M36.38818,143.24219h2.979c0-0.02051-0.00977-0.07031-0.00977-0.16016
		c-0.0498-0.7998-0.55957-1.40918-1.47021-1.40918C36.99756,141.67285,36.44873,142.37207,36.38818,143.24219z"/>
	<path d="M41.00977,143.65137c0-1.29883,0.72949-2.55859,2.21875-2.55859c0.87891,0,1.6084,0.44043,1.99902,1.35938
		l-0.66016,0.25977c-0.22949-0.62891-0.71973-1.00879-1.33887-1.00879c-1.0498,0-1.51953,0.93945-1.51953,1.94824
		c0,1.00977,0.46973,1.91895,1.5293,1.91895c0.62012,0,1.10938-0.36914,1.29883-0.99902l0.63965,0.24023
		c-0.3291,0.89941-1.04883,1.36914-1.93848,1.36914C41.80859,146.18066,41.00977,145.02051,41.00977,143.65137z"/>
	<path d="M48.54785,146.05078c-0.25977,0.0791-0.51953,0.12988-0.74902,0.12988c-0.66016,0-1.13965-0.37012-1.13965-1.23926
		v-3.18848h-0.81934v-0.58008h0.81934v-1.37891l0.68945-0.51953v1.89844h1.18945v0.58008h-1.18945v3.09766
		c0,0.48047,0.21973,0.7002,0.61035,0.7002c0.16992,0,0.35938-0.04004,0.5791-0.11035L48.54785,146.05078z"/>
	<path d="M49.79883,139.13379h0.7998v1.01953h-0.7998V139.13379z M49.8584,141.17285h0.68945v4.92773H49.8584V141.17285z"/>
	<path d="M51.93848,143.63184c0-1.45898,0.9502-2.53906,2.35938-2.53906c1.39844,0,2.36816,1.08008,2.36816,2.53906
		c0,1.44922-0.95898,2.54883-2.36816,2.54883S51.93848,145.09082,51.93848,143.63184z M55.97656,143.63184
		c0-1.11914-0.62988-1.92871-1.67871-1.92871c-1.05957,0-1.66992,0.81934-1.66992,1.92871
		c0,1.11914,0.62012,1.93848,1.66992,1.93848C55.35645,145.57031,55.97656,144.73145,55.97656,143.63184z"/>
	<path d="M61.98633,143.08203v3.01855h-0.68945v-2.84863c0-1.05957-0.33984-1.54883-1.0791-1.54883
		c-0.92969,0-1.46875,0.79883-1.46875,2.18848v2.20898H58.0586v-4.92773h0.69043v0.71973c0.31934-0.5,0.91895-0.7998,1.62891-0.7998
		C61.4375,141.09277,61.98633,141.77246,61.98633,143.08203z"/>
</g>
<g>
	<path d="M49.94141,83.56152h4.72754v0.65918h-4.01758v2.42871h3.51758v0.66016h-3.51758v3.21777h-0.70996
		C49.94141,90.52734,49.94141,83.56152,49.94141,83.56152z"/>
	<path d="M55.88184,83.56152h0.79883v1.01953h-0.79883V83.56152z M55.94141,85.60059h0.68945v4.92676h-0.68945V85.60059z"/>
	<path d="M61.44922,85.73047l-0.33984,0.55957c-0.22949-0.09961-0.43945-0.15039-0.64941-0.15039
		c-0.75977,0-1.31934,0.57031-1.31934,1.63965v2.74805h-0.68945v-4.92676h0.68945v0.73926
		c0.36035-0.64941,0.95996-0.81934,1.45898-0.81934C60.89941,85.52051,61.17969,85.58008,61.44922,85.73047z"/>
	<path d="M61.6416,89.31836l0.58008-0.25977c0.17969,0.50977,0.65918,0.93945,1.42871,0.93945
		c0.66992,0,1.09961-0.33008,1.09961-0.84961c0-1.30957-2.83887-0.49023-2.83887-2.23926c0-0.85938,0.7002-1.38867,1.68945-1.38867
		c0.79004,0,1.42969,0.33008,1.76953,1.0293l-0.5498,0.2998c-0.24023-0.43945-0.62988-0.71973-1.23926-0.71973
		c-0.61035,0-1,0.25-1,0.67969c0,1.16895,2.84863,0.42969,2.84863,2.29883c0,0.99902-0.81934,1.49902-1.76953,1.49902
		C62.69141,90.60742,61.90137,90.10742,61.6416,89.31836z"/>
	<path d="M68.87988,90.47754c-0.25977,0.08008-0.51953,0.12988-0.74902,0.12988c-0.66016,0-1.13965-0.37012-1.13965-1.23926
		v-3.18848h-0.81934v-0.5791h0.81934V84.2207l0.68945-0.51953v1.89941h1.18945v0.5791h-1.18945v3.09863
		c0,0.47949,0.21973,0.69922,0.60938,0.69922c0.16992,0,0.36035-0.04004,0.58008-0.10938L68.87988,90.47754z"/>
	<path d="M24.45898,100.05859c0,1.46973-0.74951,2.54883-2.18896,2.54883c-0.71924,0-1.26904-0.2793-1.62891-0.73926v2.69824
		h-0.68945v-6.96582h0.68945v0.65918c0.36963-0.47949,0.92969-0.74902,1.62891-0.74902
		C23.63965,97.51074,24.45898,98.51953,24.45898,100.05859z M23.76953,100.05859c0-1.16895-0.59961-1.93848-1.59912-1.93848
		c-0.98975,0-1.58936,0.76953-1.58936,1.93848c0,1.12012,0.5498,1.93945,1.58936,1.93945
		C23.21973,101.99805,23.76953,101.17871,23.76953,100.05859z"/>
	<path d="M29.64941,97.60059v4.92676h-0.68945v-0.70898c-0.34961,0.5293-0.97949,0.78906-1.62891,0.78906
		c-1.11963,0-1.60938-0.76953-1.60938-1.98926V97.6006h0.68945v2.84863c0,0.79883,0.14014,1.54883,1.07959,1.54883
		c0.97949,0,1.46924-0.84961,1.46924-2.12891v-2.26855h0.68946V97.60059z"/>
	<path d="M35.979,100.05859c0,1.46973-0.74951,2.54883-2.18896,2.54883c-0.71924,0-1.26904-0.2793-1.62891-0.73926v0.65918h-0.68945
		v-6.96582h0.68945v2.69824c0.36963-0.47949,0.92969-0.74902,1.62891-0.74902C35.15967,97.51074,35.979,98.51953,35.979,100.05859z
		 M35.28955,100.05859c0-1.16895-0.59961-1.93848-1.59912-1.93848c-0.98975,0-1.58936,0.76953-1.58936,1.93848
		c0,1.12012,0.5498,1.93945,1.58936,1.93945C34.73975,101.99805,35.28955,101.17871,35.28955,100.05859z"/>
	<path d="M37.37158,101.45801v-5.89648h0.68994v5.85645c0,0.33984,0.12012,0.55957,0.44922,0.55957
		c0.15039,0,0.32031-0.04004,0.46973-0.08984l0.01074,0.58984c-0.20996,0.07031-0.45996,0.12988-0.67969,0.12988
		C37.74121,102.60742,37.37158,102.22754,37.37158,101.45801z"/>
	<path d="M40.05176,95.56152h0.79883v1.01953h-0.79883V95.56152z M40.11133,97.60059h0.68945v4.92676h-0.68945V97.60059z"/>
	<path d="M42.21191,100.0791c0-1.2998,0.72949-2.55859,2.21875-2.55859c0.87988,0,1.60938,0.43945,1.99902,1.35938l-0.66016,0.25977
		c-0.22949-0.62988-0.71875-1.00977-1.33887-1.00977c-1.0498,0-1.51953,0.93945-1.51953,1.94922s0.46973,1.91895,1.5293,1.91895
		c0.62012,0,1.10938-0.37012,1.2998-1l0.63965,0.24023c-0.33008,0.89941-1.0498,1.36914-1.93945,1.36914
		C43.01172,102.60742,42.21191,101.44824,42.21191,100.0791z"/>
	<path d="M51.31934,99.45898v3.06836h-0.62988l-0.04004-0.75977c-0.38965,0.5498-0.98926,0.83984-1.76855,0.83984
		c-1.06934,0-1.69922-0.55957-1.69922-1.50879c0-0.5,0.2002-0.87988,0.55957-1.09961
		c0.37988-0.21973,0.91016-0.30957,1.87891-0.30957h1.00977v-0.23047c0-0.85938-0.4502-1.3291-1.2793-1.3291
		c-0.62012,0-1.09961,0.26953-1.49902,0.81934l-0.5-0.41895c0.5293-0.69043,1.16895-1.00977,2.00879-1.00977
		C50.59961,97.52051,51.31934,98.22949,51.31934,99.45898z M50.62988,100.31836v-0.06934h-0.94922
		c-0.91016,0-1.2998,0.05957-1.53906,0.25c-0.18066,0.13965-0.27051,0.35938-0.27051,0.63965
		c0,0.5498,0.46973,0.89941,1.20996,0.89941C50.03027,102.03809,50.62988,101.36816,50.62988,100.31836z"/>
	<path d="M55.05078,102.47754c-0.25977,0.08008-0.52051,0.12988-0.75,0.12988c-0.65918,0-1.13965-0.37012-1.13965-1.23926v-3.18848
		H52.3418v-0.5791h0.81934V96.2207l0.68945-0.51953v1.89941h1.18945v0.5791h-1.18945v3.09863
		c0,0.47949,0.2207,0.69922,0.61035,0.69922c0.16992,0,0.35938-0.04004,0.5791-0.10938L55.05078,102.47754z"/>
	<path d="M56.30176,95.56152h0.79883v1.01953h-0.79883V95.56152z M56.36133,97.60059h0.68945v4.92676h-0.68945V97.60059z"/>
	<path d="M58.44141,100.05859c0-1.45898,0.94922-2.53809,2.3584-2.53809c1.39941,0,2.36914,1.0791,2.36914,2.53809
		c0,1.44922-0.95996,2.54883-2.36914,2.54883S58.44141,101.51855,58.44141,100.05859z M62.47949,100.05859
		c0-1.11914-0.62988-1.92871-1.67969-1.92871c-1.05957,0-1.66895,0.81934-1.66895,1.92871
		c0,1.12012,0.62012,1.93945,1.66895,1.93945C61.85938,101.99805,62.47949,101.1582,62.47949,100.05859z"/>
	<path d="M68.48926,99.50879v3.01855H67.7998V99.6787c0-1.05859-0.33984-1.54883-1.08008-1.54883
		c-0.92969,0-1.46875,0.7998-1.46875,2.18848v2.20898h-0.68945v-4.92676h0.68945v0.71973c0.31934-0.5,0.91895-0.7998,1.62891-0.7998
		C67.93945,97.52051,68.48926,98.2002,68.48926,99.50879z"/>
</g>
<g>
	<path d="M48.79492,2.3252h0.70996v6.30664h3.17773V9.2915h-3.8877C48.79491,9.2915,48.79491,2.3252,48.79492,2.3252z"/>
	<path d="M57.60254,6.22314V9.2915h-0.62988l-0.04004-0.75977c-0.38965,0.5498-0.98926,0.83984-1.76855,0.83984
		c-1.06934,0-1.69922-0.56006-1.69922-1.50928c0-0.49951,0.2002-0.87939,0.55957-1.09961
		c0.37988-0.21973,0.91016-0.30957,1.87891-0.30957h1.00977V6.22314c0-0.85938-0.4502-1.3291-1.2793-1.3291
		c-0.62012,0-1.09961,0.26953-1.49902,0.81934l-0.5-0.41943c0.5293-0.68994,1.16895-1.00977,2.00879-1.00977
		C56.88281,4.28418,57.60254,4.99365,57.60254,6.22314z M56.91309,7.08252V7.0127h-0.94922c-0.91016,0-1.2998,0.06006-1.53906,0.25
		c-0.18066,0.13965-0.27051,0.35986-0.27051,0.63965c0,0.5498,0.46973,0.89941,1.20996,0.89941
		C56.31348,8.80176,56.91309,8.13232,56.91309,7.08252z"/>
	<path d="M58.75488,8.08203l0.58008-0.25977c0.17969,0.50977,0.65918,0.93945,1.42871,0.93945
		c0.66992,0,1.09961-0.32959,1.09961-0.84961c0-1.30908-2.83887-0.48975-2.83887-2.23877c0-0.85938,0.7002-1.38916,1.68945-1.38916
		c0.79004,0,1.42969,0.33008,1.76953,1.0293l-0.5498,0.2998c-0.24023-0.43945-0.62988-0.71924-1.23926-0.71924
		c-0.61035,0-1,0.24951-1,0.67969c0,1.16895,2.84863,0.42969,2.84863,2.29834c0,0.99951-0.81934,1.49951-1.76855,1.49951
		C59.80469,9.37158,59.01465,8.87158,58.75488,8.08203z"/>
	<path d="M65.99316,9.2417c-0.25977,0.07959-0.51953,0.12988-0.74902,0.12988c-0.66016,0-1.13965-0.37012-1.13965-1.23926V4.94385
		h-0.81934V4.36426h0.81934v-1.3794l0.68945-0.51953v1.89893h1.18945v0.57959h-1.18945v3.09814
		c0,0.47998,0.21973,0.69971,0.60938,0.69971c0.16992,0,0.36035-0.04004,0.58008-0.10986L65.99316,9.2417z"/>
	<path d="M21.57275,18.82275c0,1.46924-0.74951,2.54883-2.18896,2.54883c-0.71924,0-1.26904-0.27979-1.62891-0.73975v2.69873
		h-0.68945v-6.96631h0.68945v0.65967c0.36963-0.47998,0.92969-0.74951,1.62891-0.74951
		C20.75342,16.27441,21.57275,17.28369,21.57275,18.82275z M20.8833,18.82275c0-1.16943-0.59961-1.93896-1.59912-1.93896
		c-0.98975,0-1.58936,0.76953-1.58936,1.93896c0,1.11963,0.5498,1.93896,1.58936,1.93896
		C20.3335,20.76172,20.8833,19.94238,20.8833,18.82275z"/>
	<path d="M26.76318,16.36426v4.92725h-0.68945v-0.70947c-0.34961,0.52979-0.97949,0.78955-1.62891,0.78955
		c-1.11963,0-1.60938-0.76953-1.60938-1.98926v-3.01807h0.68945v2.84863c0,0.79932,0.14014,1.54883,1.07959,1.54883
		c0.97949,0,1.46924-0.84961,1.46924-2.12891v-2.26855C26.07372,16.36426,26.76318,16.36426,26.76318,16.36426z"/>
	<path d="M33.09277,18.82275c0,1.46924-0.74951,2.54883-2.18896,2.54883c-0.71924,0-1.26904-0.27979-1.62891-0.73975v0.65967
		h-0.68945v-6.9663h0.68945v2.69873c0.36963-0.47998,0.92969-0.74951,1.62891-0.74951
		C32.27344,16.27441,33.09277,17.28369,33.09277,18.82275z M32.40332,18.82275c0-1.16943-0.59961-1.93896-1.59912-1.93896
		c-0.98975,0-1.58936,0.76953-1.58936,1.93896c0,1.11963,0.5498,1.93896,1.58936,1.93896
		C31.85352,20.76172,32.40332,19.94238,32.40332,18.82275z"/>
	<path d="M34.48535,20.22217V14.3252h0.68945v5.85693c0,0.33984,0.12012,0.55957,0.44971,0.55957
		c0.1499,0,0.31982-0.04004,0.46973-0.08984l0.01025,0.58984c-0.20996,0.06982-0.45996,0.12988-0.67969,0.12988
		C34.85498,21.37158,34.48535,20.9917,34.48535,20.22217z"/>
	<path d="M37.16504,14.3252h0.79932v1.01953h-0.79932V14.3252z M37.2251,16.36426h0.68945v4.92725H37.2251V16.36426z"/>
	<path d="M39.3252,18.84277c0-1.29932,0.73047-2.55859,2.21973-2.55859c0.87891,0,1.6084,0.43994,1.99805,1.35938l-0.65918,0.25977
		c-0.22949-0.62939-0.71973-1.00928-1.33887-1.00928c-1.0498,0-1.51953,0.93945-1.51953,1.94873
		c0,1.00977,0.46973,1.91895,1.5293,1.91895c0.61914,0,1.10938-0.36963,1.29883-0.99951l0.63965,0.24023
		c-0.33008,0.89941-1.04883,1.36914-1.93848,1.36914C40.125,21.37158,39.3252,20.21191,39.3252,18.84277z"/>
	<path d="M48.43359,18.22314v3.06836h-0.62988l-0.04004-0.75977c-0.38965,0.5498-0.98926,0.83984-1.76953,0.83984
		c-1.06934,0-1.69824-0.56006-1.69824-1.50928c0-0.49951,0.19922-0.87939,0.55957-1.09961
		c0.37988-0.21973,0.90918-0.30957,1.87891-0.30957h1.00879v-0.22998c0-0.85938-0.44922-1.3291-1.2793-1.3291
		c-0.61914,0-1.09863,0.26953-1.49902,0.81934l-0.49902-0.41943c0.5293-0.68994,1.16895-1.00977,2.00879-1.00977
		C47.71387,16.28418,48.43359,16.99365,48.43359,18.22314z M47.74316,19.08252V19.0127h-0.94922
		c-0.90918,0-1.29883,0.06006-1.53906,0.25c-0.17969,0.13965-0.26953,0.35986-0.26953,0.63965
		c0,0.5498,0.46973,0.89941,1.20898,0.89941C47.14355,20.80176,47.74316,20.13232,47.74316,19.08252z"/>
	<path d="M52.16406,21.2417c-0.25977,0.07959-0.51953,0.12988-0.74902,0.12988c-0.66016,0-1.13965-0.37012-1.13965-1.23926v-3.18848
		h-0.81934v-0.57959h0.81934v-1.37939l0.68945-0.51953v1.89893h1.18945v0.57959h-1.18945v3.09814
		c0,0.47998,0.21973,0.69971,0.60938,0.69971c0.16992,0,0.36035-0.04004,0.58008-0.10986L52.16406,21.2417z"/>
	<path d="M53.41504,14.3252h0.7998v1.01953h-0.7998V14.3252z M53.47559,16.36426h0.68945v4.92725h-0.68945V16.36426z"/>
	<path d="M55.55566,18.82275c0-1.45898,0.94922-2.53857,2.3584-2.53857c1.39941,0,2.36816,1.07959,2.36816,2.53857
		c0,1.44922-0.95898,2.54883-2.36816,2.54883S55.55566,20.28223,55.55566,18.82275z M59.59277,18.82275
		c0-1.11914-0.62988-1.92871-1.67871-1.92871c-1.05957,0-1.66895,0.81934-1.66895,1.92871
		c0,1.11963,0.61914,1.93896,1.66895,1.93896C58.97363,20.76172,59.59277,19.92236,59.59277,18.82275z"/>
	<path d="M65.60254,18.27295v3.01855h-0.68945v-2.84863c0-1.05908-0.33984-1.54883-1.0791-1.54883
		c-0.92969,0-1.46973,0.79932-1.46973,2.18848v2.20898H61.6748v-4.92725h0.68945v0.71973c0.32031-0.5,0.91992-0.7998,1.62891-0.7998
		C65.05273,16.28418,65.60254,16.96387,65.60254,18.27295z"/>
</g>
</svg>
