<svg xmlns="http://www.w3.org/2000/svg" width="75.5" height="160" viewBox="0 0 75.5 160"><g transform="translate(-245 -326)"><g transform="translate(245 326)" fill="none" stroke="#fffffa" stroke-width="1"><rect width="75.5" height="160" stroke="none"/><rect x="0.5" y="0.5" width="74.5" height="159" fill="none"/></g><text transform="translate(320 414)" font-size="10" font-family="HKGrotesk-Regular, HK Grotesk"><tspan x="-27.729" y="0">prima </tspan><tspan x="-59.497" y="12">pubblicazione</tspan></text><text transform="translate(320 335)" font-size="10" font-family="HKGrotesk-Regular, HK Grotesk"><tspan x="-29.604" y="0">ultima </tspan><tspan x="-65.771" y="12">ripubblicazione</tspan></text><g transform="translate(247.667 356.881)"><ellipse cx="30.6" cy="17.7" rx="30.6" ry="17.7" transform="translate(0 15.1)" fill="#f36" stroke="#444" stroke-width="0.25"/><ellipse cx="26.6" cy="15.4" rx="26.6" ry="15.4" transform="translate(4 13.3)" fill="#f36" stroke="#444" stroke-width="0.25"/><ellipse cx="23.6" cy="13.6" rx="23.6" ry="13.6" transform="translate(7 11)" fill="orange" stroke="#444" stroke-linejoin="round" stroke-width="0.25"/><ellipse cx="21.4" cy="12.4" rx="21.4" ry="12.4" transform="translate(9.2 8.2)" fill="orange" stroke="#444" stroke-linejoin="round" stroke-width="0.25"/><ellipse cx="19.4" cy="11.2" rx="19.4" ry="11.2" transform="translate(11.2 5.3)" fill="#ffd93b" stroke="#444" stroke-linejoin="round" stroke-width="0.25"/><ellipse cx="16.8" cy="9.7" rx="16.8" ry="9.7" transform="translate(13.8 2.7)" fill="#ffd93b" stroke="#444" stroke-linejoin="round" stroke-width="0.25"/><ellipse cx="13" cy="7.5" rx="13" ry="7.5" transform="translate(17.6 0.8)" fill="#00bfd3" stroke="#444" stroke-linejoin="round" stroke-width="0.25"/><ellipse cx="7.5" cy="4.3" rx="7.5" ry="4.3" transform="translate(23.1 0)" fill="#00bfd3" stroke="#444" stroke-linejoin="round" stroke-width="0.25"/></g><path d="M284.674,2.04c11.545,0,9.384-11.244,9.384-11.244" transform="translate(-7.333 358)" fill="none" stroke="#707070" stroke-width="0.25"/><path d="M284.674,2.04c11.545,0,9.384-11.244,9.384-11.244" transform="translate(282.531 117.972) rotate(90)" fill="none" stroke="#707070" stroke-width="0.25"/><text transform="translate(245 437)" font-size="10" font-family="HKGrotesk-Regular, HK Grotesk"><tspan x="0" y="9">Testo </tspan><tspan x="0" y="21">contenuto in </tspan><tspan x="0" y="33">più raccolte</tspan></text></g></svg>