<?xml version="1.0" encoding="utf-8"?>
<!-- Generator: Adobe Illustrator 24.0.1, SVG Export Plug-In . SVG Version: 6.00 Build 0)  -->
<svg version="1.1" id="Livello_1" xmlns="http://www.w3.org/2000/svg" xmlns:xlink="http://www.w3.org/1999/xlink" x="0px" y="0px"
	 viewBox="0 0 145.5 96" style="enable-background:new 0 0 145.5 96;" xml:space="preserve">
<style type="text/css">
	.st0_2xynyh{fill:none;stroke:#999999;stroke-width:0.19;stroke-linecap:round;}
	.st1_2xynyh{fill:none;stroke:#999999;stroke-width:0.19;stroke-linecap:round;stroke-dasharray:1.506,1.506;}
	.st2_2xynyh{fill:none;stroke:#000000;stroke-width:0.5;}
	.st3_2xynyh{fill:#0094C1;}
	.st4_2xynyh{fill:#518CFC;}
	.st5_2xynyh{fill:#5151FC;}
	.st6_2xynyh{fill:#00C1C1;}
	.st7_2xynyh{fill:#00C19C;}
	.st8_2xynyh{fill:#00BAC1;}
	.st9_2xynyh{font-family:'HKGrotesk-Regular';}
	.st1_2xynyh0{font-size:10px;}
</style>
<g id="Raggruppa_3933" transform="translate(-13.582 -500.87)">
	<g id="positioning" transform="translate(11 498.689)">
		<path id="Stroke-1" class="st0_2xynyh" d="M72.3,2.3L73,2.7"/>
		<path id="Stroke-2" class="st1_2xynyh" d="M73.1,3l74,43"/>
		<path id="Stroke-3" class="st0_2xynyh" d="M147.2,46.3l0.7,0.4"/>
		<path id="Stroke-4" class="st0_2xynyh" d="M58.5,11.3l0.7,0.4"/>
		<path id="Stroke-5" class="st1_2xynyh" d="M58.1,12l74,43"/>
		<path id="Stroke-6" class="st0_2xynyh" d="M133.2,54.3l0.7,0.4"/>
		<path id="Stroke-7" class="st0_2xynyh" d="M44.7,19.3l0.7,0.4"/>
		<path id="Stroke-8" class="st1_2xynyh" d="M44.9,20l74,43"/>
		<path id="Stroke-9" class="st0_2xynyh" d="M118.7,62.3l0.7,0.4"/>
		<path id="Stroke-10" class="st0_2xynyh" d="M31.5,27.3l0.7,0.4"/>
		<path id="Stroke-11" class="st1_2xynyh" d="M31.3,28l74,43"/>
		<path id="Stroke-12" class="st0_2xynyh" d="M104.9,71.3l0.7,0.4"/>
		<path id="Stroke-13" class="st0_2xynyh" d="M16.3,35.3l0.7,0.4"/>
		<path id="Stroke-14" class="st1_2xynyh" d="M18.2,36l74,43"/>
		<path id="Stroke-15" class="st0_2xynyh" d="M91.1,79.3l0.7,0.4"/>
		<g id="Group-18" transform="translate(2.712 43.571)">
			<path id="Stroke-16" class="st0_2xynyh" d="M0,0l0.3,0.2"/>
		</g>
		<path id="Stroke-19" class="st1_2xynyh" d="M4.2,44l74,43"/>
		<g id="Group-26" transform="translate(2.948 46.302)">
			<g id="Group-22" transform="translate(76.088 40.648)">
				<path id="Stroke-20" class="st0_2xynyh" d="M0,0l0.5,0.3"/>
			</g>
			<g id="Group-25">
				<path id="Stroke-23" class="st0_2xynyh" d="M0,0.3L0.5,0"/>
			</g>
		</g>
		<path id="Stroke-27" class="st1_2xynyh" d="M4.2,46l74-43"/>
		<path id="Stroke-28" class="st0_2xynyh" d="M77.3,2.7l0.7-0.4"/>
		<path id="Stroke-29" class="st0_2xynyh" d="M16.3,54.7l0.7-0.4"/>
		<path id="Stroke-30" class="st1_2xynyh" d="M18.2,54l74-43"/>
		<path id="Stroke-31" class="st0_2xynyh" d="M91.1,11.7l0.7-0.4"/>
		<path id="Stroke-32" class="st0_2xynyh" d="M31.5,62.7l0.7-0.4"/>
		<path id="Stroke-33" class="st1_2xynyh" d="M31.3,62l74-43"/>
		<path id="Stroke-34" class="st0_2xynyh" d="M104.9,19.7l0.7-0.4"/>
		<path id="Stroke-35" class="st0_2xynyh" d="M44.7,71.7l0.7-0.4"/>
		<path id="Stroke-36" class="st1_2xynyh" d="M44.9,71l74-43"/>
		<path id="Stroke-37" class="st0_2xynyh" d="M118.7,27.7l0.7-0.4"/>
		<path id="Stroke-38" class="st0_2xynyh" d="M58.5,79.7l0.7-0.4"/>
		<path id="Stroke-39" class="st1_2xynyh" d="M58.1,79l74-43"/>
		<path id="Stroke-40" class="st0_2xynyh" d="M133.2,35.7l0.7-0.4"/>
		<g id="Group-43" transform="translate(72.658 87.263)">
			<path id="Stroke-41" class="st0_2xynyh" d="M0,0.2L0.3,0"/>
		</g>
		<path id="Stroke-44" class="st1_2xynyh" d="M73.1,87l74-43"/>
		<path id="Stroke-45" class="st0_2xynyh" d="M147.2,43.7l0.7-0.4"/>
		<path id="Stroke-46" class="st2_2xynyh" d="M65.1,65.5c-2.2-1.3-2.8-3.2-1.6-4.8c0-0.1,0.1-0.1,0.1-0.2c0.9-1,0.4-1.3,0.2-1.5
			c-0.3-0.2-0.7-0.3-1-0.4c-0.1,0-0.1,0-0.2-0.1C62,58.5,61.5,58.2,61,58c-2.5-1.4-2.5-3.8,0-5.2c2.6-1.3,5.6-1.4,8.3-0.4
			c0.1,0,0.2,0.1,0.2,0.1c0.5,0.3,1.1,0.4,1.7,0.4c0.8-0.1,1.5-0.5,2.1-1c0.1,0,0.1-0.1,0.2-0.1c0.2-0.1,0.3-0.2,0.5-0.3
			c4-2,8.7-2,12.7,0c3.1,1.8,3.5,4.6,1,6.6c0,0.1-0.1,0.1-0.2,0.2c-1.6,1.2-1,1.6-0.5,1.9h0c0.2,0.1,0.3,0.2,0.5,0.2
			c0,0,0.1,0,0.1,0.1c0,0,0,0,0,0c0.2,0.1,0.3,0.1,0.5,0.2c2.5,1.4,2.5,3.8,0,5.2c-2.9,1.4-6.2,1.4-9.1,0c-0.1,0-0.1-0.1-0.2-0.1
			c0,0-0.1-0.1-0.1-0.1c-0.1-0.1-0.2-0.1-0.3-0.2c-0.7-0.4-1.4-0.6-3,0.2c-0.1,0-0.2,0.1-0.3,0.1C72,67.2,68.3,67.1,65.1,65.5z"/>
		<path id="Path-3" d="M115.9,37.6l-2.9-5.2l0.4-0.2l3.6,6.4l-7.3-0.3l0-0.5l5.9,0.2l-4.3-2.6c-11.6-6.2-28-9.2-43.6-7.8
			c-17,1.5-31.5,7.9-40.3,18.6l-0.4-0.3C35.9,35,50.5,28.6,67.7,27.1c15.7-1.4,32.2,1.6,43.9,7.9L115.9,37.6z"/>
		<g id="Group-77" transform="translate(64.164 58)">
			<ellipse id="Ellisse_12" class="st3_2xynyh" cx="7.5" cy="3.3" rx="7" ry="4"/>
			<ellipse id="Ellisse_18" class="st4_2xynyh" cx="16.5" cy="-3.2" rx="7" ry="3.5"/>
			<ellipse id="Ellisse_19" class="st5_2xynyh" cx="19" cy="-19.2" rx="5.5" ry="2.5"/>
			<ellipse id="Ellisse_20" class="st5_2xynyh" cx="24.5" cy="-14.2" rx="5" ry="2.5"/>
			<ellipse id="Ellisse_21" class="st5_2xynyh" cx="32.5" cy="-20.2" rx="7" ry="3.5"/>
			<ellipse id="Ellisse_16" class="st6_2xynyh" cx="1" cy="-3.2" rx="4.5" ry="2.5"/>
			<ellipse id="Ellisse_17" class="st3_2xynyh" cx="19.5" cy="5.3" rx="5" ry="3"/>
			<ellipse id="Ellisse_13" class="st7_2xynyh" cx="-17.5" cy="-6.7" rx="5" ry="3"/>
			<ellipse id="Ellisse_14" class="st7_2xynyh" cx="-17" cy="-12.7" rx="3.5" ry="2"/>
			<ellipse id="Ellisse_15" class="st8_2xynyh" cx="-7.5" cy="-11.7" rx="5" ry="3"/>
		</g>
	</g>
	<text transform="matrix(1 0 0 1 63 582.689)" class="st9_2xynyh st1_2xynyh0">appartenenza a </text>
	<text transform="matrix(1 0 0 1 63 595.689)" class="st9_2xynyh st1_2xynyh0">uno stesso volume</text>
	<text transform="matrix(1 0 0 1 63 519.6891)" class="st9_2xynyh st1_2xynyh0">cronologia</text>
</g>
</svg>
