<?xml version="1.0" encoding="utf-8"?>
<!-- Generator: Adobe Illustrator 25.0.0, SVG Export Plug-In . SVG Version: 6.00 Build 0)  -->
<svg version="1.1" id="Livello_1" xmlns="http://www.w3.org/2000/svg" xmlns:xlink="http://www.w3.org/1999/xlink" x="0px" y="0px"
	 viewBox="0 0 75 160" enable-background="new 0 0 75 160" xml:space="preserve">
<g id="Group" transform="translate(94.667 356.881)">
	<ellipse id="Oval" fill="none" stroke="#444444" stroke-width="0.25" cx="-63.7" cy="-293.20001" rx="30.6" ry="17.70001"/>
	<ellipse id="Oval-2" fill="none" stroke="#444444" stroke-width="0.25" cx="-63.7" cy="-297.29999" rx="26.6" ry="15.39999"/>
	<ellipse id="Oval-3" fill="none" stroke="#444444" stroke-width="0.25" cx="-63.7" cy="-301.39999" rx="23.6" ry="13.60001"/>
	<ellipse id="Oval-4" fill="none" stroke="#444444" stroke-width="0.25" cx="-63.7" cy="-305.39999" rx="21.4" ry="12.39999"/>
	<ellipse id="Oval-5" fill="none" stroke="#444444" stroke-width="0.25" cx="-63.7" cy="-309.5" rx="19.4" ry="11.20001"/>
	<ellipse id="Oval-6" fill="none" stroke="#444444" stroke-width="0.25" cx="-63.8" cy="-313.60001" rx="16.8" ry="9.70001"/>
	<ellipse id="Oval-7" fill="none" stroke="#444444" stroke-width="0.25" cx="-63.7" cy="-317.70001" rx="13" ry="7.5"/>
	<ellipse id="Oval-8" fill="none" stroke="#444444" stroke-width="0.25" cx="-63.7" cy="-321.70001" rx="7.5" ry="4.29999"/>
</g>
<g>
	<path d="M2.96924,115.71191h-2.4082v-0.65918h5.54688v0.65918H3.68896v6.30664H2.96924V115.71191z"/>
	<path d="M10.29834,119.74023h-3.6084c0.02051,1.0791,0.62012,1.72852,1.58887,1.72852c0.54004,0,0.96973-0.13965,1.41992-0.61914
		l0.47949,0.41992c-0.58008,0.60938-1.14941,0.8291-1.90918,0.8291c-1.49902,0-2.26855-1.11914-2.26855-2.51855
		c0-1.38965,0.75977-2.56836,2.18848-2.56836c1.50977,0,2.13867,1.17871,2.13867,2.29883
		C10.32764,119.4502,10.31787,119.62012,10.29834,119.74023z M6.68994,119.16016h2.97852c0-0.01953-0.00977-0.06934-0.00977-0.16016
		c-0.0498-0.79883-0.55957-1.40918-1.46973-1.40918C7.29932,117.59082,6.75049,118.29102,6.68994,119.16016z"/>
	<path d="M12.86963,119.5498l-1.79883-2.45801h0.83984l1.41895,1.97852l1.40918-1.97852h0.83984l-1.79883,2.45801l1.80859,2.46875
		h-0.84961l-1.40918-1.99902l-1.40918,1.99902h-0.8496L12.86963,119.5498z"/>
	<path d="M18.84912,121.96875c-0.25977,0.08008-0.51953,0.12988-0.74902,0.12988c-0.66016,0-1.13965-0.37012-1.13965-1.23926
		v-3.18848h-0.81934v-0.5791h0.81934v-1.37988l0.68945-0.51953v1.89941h1.18945v0.5791H17.6499v3.09863
		c0,0.47949,0.21973,0.69922,0.61035,0.69922c0.16992,0,0.35938-0.04004,0.5791-0.10938L18.84912,121.96875z"/>
	<path d="M27.39795,119.5498c0,1.46973-0.75,2.54883-2.18848,2.54883c-0.71973,0-1.26953-0.2793-1.62891-0.73926v2.69824h-0.69043
		v-6.96582h0.69043v0.65918c0.36914-0.47949,0.92871-0.74902,1.62891-0.74902
		C26.57861,117.00195,27.39795,118.01074,27.39795,119.5498z M26.7085,119.5498c0-1.16895-0.59961-1.93848-1.59961-1.93848
		c-0.98926,0-1.58887,0.76953-1.58887,1.93848c0,1.12012,0.5498,1.93945,1.58887,1.93945
		C26.15869,121.48926,26.7085,120.66992,26.7085,119.5498z"/>
	<path d="M32.58838,117.0918v4.92676h-0.69043v-0.70898c-0.34961,0.5293-0.97949,0.78906-1.62891,0.78906
		c-1.11914,0-1.6084-0.76953-1.6084-1.98926v-3.01758h0.68945v2.84863c0,0.79883,0.13965,1.54883,1.0791,1.54883
		c0.97949,0,1.46875-0.84961,1.46875-2.12891v-2.26855C31.89794,117.0918,32.58838,117.0918,32.58838,117.0918z"/>
	<path d="M38.91797,119.5498c0,1.46973-0.75,2.54883-2.18896,2.54883c-0.71973,0-1.26953-0.2793-1.62891-0.73926v0.65918h-0.69043
		v-6.96582h0.69043v2.69824c0.36914-0.47949,0.92871-0.74902,1.62891-0.74902
		C38.09863,117.00195,38.91797,118.01074,38.91797,119.5498z M38.22852,119.5498c0-1.16895-0.6001-1.93848-1.6001-1.93848
		c-0.98926,0-1.58887,0.76953-1.58887,1.93848c0,1.12012,0.5498,1.93945,1.58887,1.93945
		C37.67822,121.48926,38.22852,120.66992,38.22852,119.5498z"/>
	<path d="M40.31055,120.94922v-5.89648h0.69043v5.85645c0,0.33984,0.11914,0.55957,0.44922,0.55957
		c0.15039,0,0.32031-0.04004,0.46973-0.08984l0.00977,0.58984c-0.20996,0.07031-0.45898,0.12988-0.67969,0.12988
		C40.68066,122.09863,40.31055,121.71875,40.31055,120.94922z"/>
	<path d="M42.99023,115.05273h0.7998v1.01953h-0.7998V115.05273z M43.0498,117.0918h0.68945v4.92676H43.0498V117.0918z"/>
	<path d="M45.03125,120.80957l0.5791-0.25977c0.18066,0.50977,0.66016,0.93945,1.42969,0.93945
		c0.66992,0,1.09961-0.33008,1.09961-0.84961c0-1.30957-2.83887-0.49023-2.83887-2.23926c0-0.85938,0.7002-1.38867,1.68945-1.38867
		c0.78906,0,1.42871,0.33008,1.76855,1.0293l-0.5498,0.2998c-0.23926-0.43945-0.62891-0.71973-1.23926-0.71973
		c-0.60938,0-0.99902,0.25-0.99902,0.67969c0,1.16895,2.84863,0.42969,2.84863,2.29883c0,0.99902-0.81934,1.49902-1.76953,1.49902
		C46.08105,122.09863,45.29102,121.59863,45.03125,120.80957z"/>
	<path d="M54.14746,119v3.01855h-0.68945v-2.84863c0-1.06934-0.33984-1.54883-1.0791-1.54883
		c-0.93945,0-1.46973,0.76953-1.46973,2.12891v2.26855h-0.68945v-6.96582h0.68945v2.75879
		c0.32031-0.5,0.91992-0.7998,1.62988-0.7998C53.59863,117.01172,54.14746,117.69141,54.14746,119z"/>
	<path d="M59.74805,119.74023h-3.6084c0.02051,1.0791,0.62012,1.72852,1.58887,1.72852c0.54004,0,0.96973-0.13965,1.41992-0.61914
		l0.47949,0.41992c-0.58008,0.60938-1.14941,0.8291-1.90918,0.8291c-1.49902,0-2.26855-1.11914-2.26855-2.51855
		c0-1.38965,0.75977-2.56836,2.18848-2.56836c1.50977,0,2.13867,1.17871,2.13867,2.29883
		C59.77734,119.4502,59.76758,119.62012,59.74805,119.74023z M56.13965,119.16016h2.97852
		c0-0.01953-0.00977-0.06934-0.00977-0.16016c-0.0498-0.79883-0.55957-1.40918-1.46973-1.40918
		C56.74902,117.59082,56.2002,118.29102,56.13965,119.16016z"/>
	<path d="M65.28809,115.05273v6.96582h-0.68945v-0.65918c-0.36035,0.45996-0.91016,0.73926-1.62891,0.73926
		c-1.43945,0-2.18945-1.0791-2.18945-2.54883c0-1.53906,0.81934-2.54785,2.18945-2.54785c0.69922,0,1.25879,0.26953,1.62891,0.74902
		v-2.69824H65.28809z M64.6582,119.5498c0-1.16895-0.59961-1.93848-1.58887-1.93848c-1,0-1.59961,0.76953-1.59961,1.93848
		c0,1.12012,0.5498,1.93945,1.59961,1.93945C64.1084,121.48926,64.6582,120.66992,64.6582,119.5498z"/>
	<path d="M0.70068,131.5498c0-1.45898,0.9502-2.53809,2.35938-2.53809c1.39844,0,2.36816,1.0791,2.36816,2.53809
		c0,1.44922-0.95898,2.54883-2.36816,2.54883S0.70068,133.00977,0.70068,131.5498z M4.73877,131.5498
		c0-1.11914-0.62988-1.92871-1.67871-1.92871c-1.05957,0-1.66992,0.81934-1.66992,1.92871
		c0,1.12012,0.62012,1.93945,1.66992,1.93945C4.11865,133.48926,4.73877,132.64941,4.73877,131.5498z"/>
	<path d="M10.74756,131v3.01855h-0.68945v-2.84863c0-1.05859-0.33984-1.54883-1.0791-1.54883
		c-0.92969,0-1.46875,0.7998-1.46875,2.18848v2.20898H6.81982v-4.92676h0.69043v0.71973c0.31934-0.5,0.91895-0.7998,1.62891-0.7998
		C10.19873,129.01172,10.74756,129.69141,10.74756,131z"/>
	<path d="M12.40967,132.94922v-5.89648h0.69043v5.85645c0,0.33984,0.11914,0.55957,0.44922,0.55957
		c0.15039,0,0.32031-0.04004,0.46973-0.08984l0.00977,0.58984c-0.20996,0.07031-0.45898,0.12988-0.67969,0.12988
		C12.77979,134.09863,12.40967,133.71875,12.40967,132.94922z"/>
	<path d="M16.50928,133.95898l-2.08887-4.86719h0.75977l1.69922,4.05762l1.48926-4.05762h0.75977l-2.69922,6.96582h-0.73926
		L16.50928,133.95898z"/>
	<path d="M22.92041,127.05273h0.7998v1.01952h-0.7998V127.05273z M22.97998,129.0918h0.69043v4.92676h-0.69043V129.0918z"/>
	<path d="M29.41748,131v3.01855h-0.68945v-2.84863c0-1.05859-0.33984-1.54883-1.0791-1.54883
		c-0.92969,0-1.46875,0.7998-1.46875,2.18848v2.20898h-0.69043v-4.92676h0.69043v0.71973c0.31934-0.5,0.91895-0.7998,1.62891-0.7998
		C28.86865,129.01172,29.41748,129.69141,29.41748,131z"/>
	<path d="M37.51807,130.9502v3.06836h-0.62891l-0.04004-0.75977c-0.38965,0.5498-0.99023,0.83984-1.76953,0.83984
		c-1.06934,0-1.69922-0.55957-1.69922-1.50879c0-0.5,0.2002-0.87988,0.55957-1.09961
		c0.37988-0.21973,0.91016-0.30957,1.87891-0.30957h1.00977v-0.23047c0-0.85938-0.44922-1.3291-1.2793-1.3291
		c-0.61914,0-1.09961,0.26953-1.49902,0.81934l-0.5-0.41895c0.53027-0.69043,1.16992-1.00977,2.00879-1.00977
		C36.79834,129.01172,37.51807,129.7207,37.51807,130.9502z M36.82861,131.80957v-0.06934h-0.94922
		c-0.90918,0-1.2998,0.05957-1.53906,0.25c-0.17969,0.13965-0.27051,0.35938-0.27051,0.63965
		c0,0.5498,0.46973,0.89941,1.20996,0.89941C36.229,133.5293,36.82861,132.85938,36.82861,131.80957z"/>
	<path d="M7.88721,142.94043v3.07812H7.19775v-2.8877c0-0.41992,0-1.50977-1.08008-1.50977
		c-0.99902,0-1.26855,0.91992-1.26855,2.0293v2.36816H4.15869v-2.84863c0-0.81934-0.25-1.54883-1.10938-1.54883
		c-0.95898,0-1.22852,0.90918-1.22852,2.0293v2.36816H1.13037L1.1206,141.0918h0.66992v0.59961
		c0.30957-0.49023,0.80957-0.67969,1.35938-0.67969c0.68945,0,1.19922,0.2998,1.44922,0.94922
		c0.31934-0.62988,0.86914-0.94922,1.61914-0.94922C7.39697,141.01172,7.88721,141.79102,7.88721,142.94043z"/>
	<path d="M13.2583,142.9502v3.06836h-0.62891l-0.04004-0.75977c-0.38965,0.5498-0.99023,0.83984-1.76953,0.83984
		c-1.06934,0-1.69922-0.55957-1.69922-1.50879c0-0.5,0.2002-0.87988,0.55957-1.09961
		c0.37988-0.21973,0.91016-0.30957,1.87891-0.30957h1.00977v-0.23047c0-0.85938-0.44922-1.3291-1.2793-1.3291
		c-0.61914,0-1.09961,0.26953-1.49902,0.81934l-0.5-0.41895c0.53027-0.69043,1.16992-1.00977,2.00879-1.00977
		C12.53857,141.01172,13.2583,141.7207,13.2583,142.9502z M12.56885,143.80957v-0.06934h-0.94922
		c-0.90918,0-1.2998,0.05957-1.53906,0.25c-0.17969,0.13965-0.27051,0.35938-0.27051,0.63965
		c0,0.5498,0.46973,0.89941,1.20996,0.89941C11.96924,145.5293,12.56885,144.85938,12.56885,143.80957z"/>
	<path d="M18.77783,146.77832c0,0.92969-0.86914,1.35938-2.1084,1.35938c-1.36914,0-2.19922-0.54004-2.19922-1.51953
		c0-0.09961,0.01074-0.15918,0.02051-0.21973l0.7998-0.67969c-0.37988-0.16992-0.63965-0.44922-0.63965-0.93945
		c0-0.39941,0.17969-0.69922,0.5293-0.93945c-0.25977-0.2998-0.41992-0.67969-0.41992-1.11914c0-1,0.81934-1.70898,1.87891-1.70898
		c0.47949,0,0.91016,0.14941,1.22949,0.39941l0.67969-0.58984l0.35938,0.4502l-0.66895,0.55957
		c0.16992,0.26953,0.26953,0.58008,0.26953,0.92969c0,1.00977-0.81934,1.67871-1.85938,1.67871
		c-0.37891,0-0.72949-0.08984-1.01953-0.25c-0.19922,0.11035-0.31934,0.29004-0.31934,0.5c0,0.5,0.62012,0.62012,1.3291,0.72949
		C17.61865,145.56934,18.77783,145.70898,18.77783,146.77832z M18.08838,146.83789c0-0.59961-0.7793-0.68945-1.59863-0.81934
		c-0.21973-0.0293-0.4502-0.06934-0.66016-0.12012l-0.66992,0.65039c-0.00977,0.0498-0.00977,0.06934-0.00977,0.08984
		c0,0.69922,0.70996,0.91895,1.5498,0.91895C17.56885,147.55762,18.08838,147.31836,18.08838,146.83789z M15.43994,142.74023
		c0,0.63965,0.45996,1.12988,1.19922,1.12988c0.74023,0,1.17969-0.47949,1.17969-1.12988c0-0.67969-0.45996-1.14941-1.16992-1.14941
		C15.94971,141.59082,15.43994,142.06055,15.43994,142.74023z"/>
	<path d="M23.76807,142.9502v3.06836h-0.62891l-0.04004-0.75977c-0.38965,0.5498-0.99023,0.83984-1.76953,0.83984
		c-1.06934,0-1.69922-0.55957-1.69922-1.50879c0-0.5,0.2002-0.87988,0.55957-1.09961
		c0.37988-0.21973,0.91016-0.30957,1.87891-0.30957h1.00977v-0.23047c0-0.85938-0.44922-1.3291-1.2793-1.3291
		c-0.61914,0-1.09961,0.26953-1.49902,0.81934l-0.5-0.41895c0.53027-0.69043,1.16992-1.00977,2.00879-1.00977
		C23.04834,141.01172,23.76807,141.7207,23.76807,142.9502z M23.07861,143.80957v-0.06934h-0.94922
		c-0.90918,0-1.2998,0.05957-1.53906,0.25c-0.17969,0.13965-0.27051,0.35938-0.27051,0.63965
		c0,0.5498,0.46973,0.89941,1.20996,0.89941C22.479,145.5293,23.07861,144.85938,23.07861,143.80957z"/>
	<path d="M29.0083,141.6416l-3.20801,3.78711h3.1875v0.58984h-4.09766v-0.49902l3.27832-3.83789h-3.1084v-0.58984h3.94824
		C29.00829,141.0918,29.00829,141.6416,29.0083,141.6416z"/>
	<path d="M30.26025,139.05273h0.7998v1.01953h-0.7998V139.05273z M30.31982,141.0918h0.69043v4.92676h-0.69043V141.0918z"/>
	<path d="M36.75732,143v3.01855h-0.68945v-2.84863c0-1.05859-0.33984-1.54883-1.0791-1.54883
		c-0.92969,0-1.46875,0.7998-1.46875,2.18848v2.20898h-0.69043v-4.92676h0.69043v0.71973c0.31934-0.5,0.91895-0.7998,1.62891-0.7998
		C36.2085,141.01172,36.75732,141.69141,36.75732,143z"/>
	<path d="M42.3584,143.74023H38.75c0.02051,1.0791,0.62012,1.72852,1.58887,1.72852c0.54004,0,0.96973-0.13965,1.41992-0.61914
		l0.47949,0.41992c-0.58008,0.60938-1.14941,0.8291-1.90918,0.8291c-1.49902,0-2.26855-1.11914-2.26855-2.51855
		c0-1.38965,0.75977-2.56836,2.18848-2.56836c1.50977,0,2.13867,1.17871,2.13867,2.29883
		C42.3877,143.4502,42.37793,143.62012,42.3584,143.74023z M38.75,143.16016h2.97852c0-0.01953-0.00977-0.06934-0.00977-0.16016
		c-0.0498-0.79883-0.55957-1.40918-1.46973-1.40918C39.35938,141.59082,38.81055,142.29102,38.75,143.16016z"/>
	<path d="M46.08105,143.5498c0-1.45898,0.9502-2.53809,2.35938-2.53809c1.39844,0,2.36816,1.0791,2.36816,2.53809
		c0,1.44922-0.95898,2.54883-2.36816,2.54883S46.08105,145.00977,46.08105,143.5498z M50.11914,143.5498
		c0-1.11914-0.62988-1.92871-1.67871-1.92871c-1.05957,0-1.66992,0.81934-1.66992,1.92871
		c0,1.12012,0.62012,1.93945,1.66992,1.93945C49.49902,145.48926,50.11914,144.64941,50.11914,143.5498z"/>
	<path d="M55.19922,141.22168l-0.33984,0.55957c-0.23047-0.09961-0.44043-0.15039-0.65039-0.15039
		c-0.75879,0-1.31934,0.57031-1.31934,1.63965v2.74805H52.2002v-4.92676h0.68945v0.73926
		c0.36035-0.64941,0.95996-0.81934,1.45996-0.81934C54.64941,141.01172,54.92871,141.07129,55.19922,141.22168z"/>
	<path d="M5.05811,155v3.01855H4.36865v-2.84863c0-1.05859-0.33984-1.54883-1.0791-1.54883
		c-0.92969,0-1.46875,0.7998-1.46875,2.18848v2.20898H1.13037v-4.92676H1.8208v0.71973c0.31934-0.5,0.91895-0.7998,1.62891-0.7998
		C4.50928,153.01172,5.05811,153.69141,5.05811,155z"/>
	<path d="M10.65869,155.74023h-3.6084c0.02051,1.0791,0.62012,1.72852,1.58887,1.72852c0.54004,0,0.96973-0.13965,1.41992-0.61914
		l0.47949,0.41992c-0.58008,0.60938-1.14941,0.8291-1.90918,0.8291c-1.49902,0-2.26855-1.11914-2.26855-2.51855
		c0-1.38965,0.75977-2.56836,2.18848-2.56836c1.50977,0,2.13867,1.17871,2.13867,2.29883
		C10.68799,155.4502,10.67822,155.62012,10.65869,155.74023z M7.05029,155.16016h2.97852c0-0.01953-0.00977-0.06934-0.00977-0.16016
		c-0.0498-0.79883-0.55957-1.40918-1.46973-1.40918C7.65967,153.59082,7.11084,154.29102,7.05029,155.16016z"/>
	<path d="M11.45166,153.0918h0.73926l1.05957,3.8877l1.29883-3.8877h0.62988l1.28906,3.8877l1.06934-3.8877h0.72949
		l-1.43848,4.92676h-0.65039l-1.30859-3.97754l-1.3291,3.97754h-0.63965L11.45166,153.0918z"/>
	<path d="M18.94092,156.80957l0.5791-0.25977c0.18066,0.50977,0.66016,0.93945,1.42969,0.93945
		c0.66992,0,1.09961-0.33008,1.09961-0.84961c0-1.30957-2.83887-0.49023-2.83887-2.23926c0-0.85938,0.7002-1.38867,1.68945-1.38867
		c0.78906,0,1.42871,0.33008,1.76855,1.0293l-0.5498,0.2998c-0.23926-0.43945-0.62891-0.71973-1.23926-0.71973
		c-0.60938,0-0.99902,0.25-0.99902,0.67969c0,1.16895,2.84863,0.42969,2.84863,2.29883c0,0.99902-0.81934,1.49902-1.76953,1.49902
		C19.99072,158.09863,19.20068,157.59863,18.94092,156.80957z"/>
	<path d="M28.63818,155.5498c0,1.46973-0.75,2.54883-2.18848,2.54883c-0.71973,0-1.26953-0.2793-1.62891-0.73926v2.69824h-0.69043
		v-6.96582h0.69043v0.65918c0.36914-0.47949,0.92871-0.74902,1.62891-0.74902
		C27.81885,153.00195,28.63818,154.01074,28.63818,155.5498z M27.94873,155.5498c0-1.16895-0.59961-1.93848-1.59961-1.93848
		c-0.98926,0-1.58887,0.76953-1.58887,1.93848c0,1.12012,0.5498,1.93945,1.58887,1.93945
		C27.39893,157.48926,27.94873,156.66992,27.94873,155.5498z"/>
	<path d="M33.73779,154.9502v3.06836h-0.62891l-0.04004-0.75977c-0.39062,0.5498-0.99023,0.83984-1.76953,0.83984
		c-1.06934,0-1.69922-0.55957-1.69922-1.50879c0-0.5,0.2002-0.87988,0.55957-1.09961
		c0.37988-0.21973,0.91016-0.30957,1.87988-0.30957h1.00879v-0.23047c0-0.85938-0.44922-1.3291-1.2793-1.3291
		c-0.61914,0-1.09961,0.26953-1.49902,0.81934l-0.5-0.41895c0.53027-0.69043,1.16992-1.00977,2.00879-1.00977
		C33.01807,153.01172,33.73779,153.7207,33.73779,154.9502z M33.04834,155.80957v-0.06934h-0.94922
		c-0.90918,0-1.2998,0.05957-1.53906,0.25c-0.17969,0.13965-0.27051,0.35938-0.27051,0.63965
		c0,0.5498,0.4707,0.89941,1.20996,0.89941C32.44873,157.5293,33.04834,156.85938,33.04834,155.80957z"/>
	<path d="M39.92773,155.5498c0,1.46973-0.75,2.54883-2.18896,2.54883c-0.71973,0-1.26953-0.2793-1.62891-0.73926v2.69824h-0.69043
		v-6.96582h0.69043v0.65918c0.36914-0.47949,0.92871-0.74902,1.62891-0.74902
		C39.1084,153.00195,39.92773,154.01074,39.92773,155.5498z M39.23828,155.5498c0-1.16895-0.59961-1.93848-1.6001-1.93848
		c-0.98926,0-1.58887,0.76953-1.58887,1.93848c0,1.12012,0.5498,1.93945,1.58887,1.93945
		C38.68848,157.48926,39.23828,156.66992,39.23828,155.5498z"/>
	<path d="M45.25879,155.74023h-3.6084c0.02051,1.0791,0.62012,1.72852,1.58887,1.72852c0.54004,0,0.96973-0.13965,1.41992-0.61914
		l0.47949,0.41992c-0.58008,0.60938-1.14941,0.8291-1.90918,0.8291c-1.49902,0-2.26855-1.11914-2.26855-2.51855
		c0-1.38965,0.75977-2.56836,2.18848-2.56836c1.50977,0,2.13867,1.17871,2.13867,2.29883
		C45.28809,155.4502,45.27832,155.62012,45.25879,155.74023z M41.65039,155.16016h2.97852
		c0-0.01953-0.00977-0.06934-0.00977-0.16016c-0.0498-0.79883-0.55957-1.40918-1.46973-1.40918
		C42.25977,153.59082,41.71094,154.29102,41.65039,155.16016z"/>
	<path d="M49.67969,153.22168l-0.33984,0.55957c-0.23047-0.09961-0.44043-0.15039-0.65039-0.15039
		c-0.75879,0-1.31934,0.57031-1.31934,1.63965v2.74805h-0.68945v-4.92676h0.68945v0.73926
		c0.36035-0.64941,0.95996-0.81934,1.45996-0.81934C49.12988,153.01172,49.40918,153.07129,49.67969,153.22168z"/>
</g>
</svg>
