<?xml version="1.0" encoding="utf-8"?>
<!-- Generator: Adobe Illustrator 25.0.0, SVG Export Plug-In . SVG Version: 6.00 Build 0)  -->
<svg version="1.1" id="prova" xmlns="http://www.w3.org/2000/svg" xmlns:xlink="http://www.w3.org/1999/xlink" x="0px" y="0px"
	 viewBox="0 0 75 160" enable-background="new 0 0 75 160" xml:space="preserve">
<g id="Group" transform="translate(0.667 30.881)">
	<ellipse id="Oval" fill="#D6DBDF" stroke="#444444" stroke-width="0.25" cx="30.8" cy="32.8" rx="30.6" ry="17.7"/>
	<ellipse id="Oval-2" fill="#D6DBDF" stroke="#444444" stroke-width="0.25" cx="30.8" cy="28.7" rx="26.6" ry="15.4"/>
	<ellipse id="Oval-3" fill="#D6DBDF" stroke="#444444" stroke-width="0.25" cx="30.8" cy="24.6" rx="23.6" ry="13.6"/>
	<ellipse id="Oval-4" fill="#D6DBDF" stroke="#444444" stroke-width="0.25" cx="30.8" cy="20.6" rx="21.4" ry="12.4"/>
	<ellipse id="Oval-5" fill="#D6DBDF" stroke="#444444" stroke-width="0.25" cx="30.8" cy="16.5" rx="19.4" ry="11.2"/>
	<ellipse id="Oval-6" fill="#D6DBDF" stroke="#444444" stroke-width="0.25" cx="30.7" cy="12.4" rx="16.8" ry="9.7"/>
	<ellipse id="Oval-7" fill="#D6DBDF" stroke="#444444" stroke-width="0.25" cx="30.8" cy="8.3" rx="13" ry="7.5"/>
	<ellipse id="Oval-8" fill="#D6DBDF" stroke="#444444" stroke-width="0.25" cx="30.8" cy="4.3" rx="7.5" ry="4.3"/>
</g>
<rect x="0.8" y="112.5" fill="none" width="71.1" height="47"/>
<g>
	<path d="M2.44775,115.79395h-2.4082v-0.66016h5.54688v0.66016H3.16748v6.30664H2.44775V115.79395z"/>
	<path d="M9.77686,119.82129h-3.6084c0.02051,1.08008,0.62012,1.72949,1.58887,1.72949c0.54004,0,0.96973-0.13965,1.41992-0.62012
		l0.47949,0.41992c-0.58008,0.60938-1.14941,0.83008-1.90918,0.83008c-1.49902,0-2.26855-1.12012-2.26855-2.51855
		c0-1.38965,0.75977-2.56934,2.18848-2.56934c1.50977,0,2.13867,1.17969,2.13867,2.29883
		C9.80615,119.53223,9.79639,119.70117,9.77686,119.82129z M6.16846,119.24219h2.97852c0-0.02051-0.00977-0.07031-0.00977-0.16016
		c-0.0498-0.7998-0.55957-1.40918-1.46973-1.40918C6.77783,117.67285,6.229,118.37207,6.16846,119.24219z"/>
	<path d="M12.34814,119.63184l-1.79883-2.45898h0.83984l1.41895,1.97949l1.40918-1.97949h0.83984l-1.79883,2.45898l1.80859,2.46875
		h-0.84961l-1.40918-1.99902l-1.40918,1.99902H10.5493L12.34814,119.63184z"/>
	<path d="M18.32764,122.05078c-0.25977,0.0791-0.51953,0.12988-0.74902,0.12988c-0.66016,0-1.13965-0.37012-1.13965-1.23926
		v-3.18848h-0.81934v-0.58008h0.81934v-1.37891l0.68945-0.51953v1.89844h1.18945v0.58008h-1.18945v3.09766
		c0,0.48047,0.21973,0.7002,0.61035,0.7002c0.16992,0,0.35938-0.04004,0.5791-0.11035L18.32764,122.05078z"/>
	<path d="M26.87646,119.63184c0,1.46875-0.75,2.54883-2.18848,2.54883c-0.71973,0-1.26953-0.28027-1.62891-0.74023v2.69922h-0.69043
		v-6.9668h0.69043v0.66016c0.36914-0.48047,0.92871-0.75,1.62891-0.75C26.05713,117.08301,26.87646,118.09277,26.87646,119.63184z
		 M26.18701,119.63184c0-1.16992-0.59961-1.93945-1.59961-1.93945c-0.98926,0-1.58887,0.76953-1.58887,1.93945
		c0,1.11914,0.5498,1.93848,1.58887,1.93848C25.63721,121.57031,26.18701,120.75098,26.18701,119.63184z"/>
	<path d="M32.06689,117.17285v4.92773h-0.69043v-0.70996c-0.34961,0.53027-0.97949,0.79004-1.62891,0.79004
		c-1.11914,0-1.6084-0.76953-1.6084-1.98926v-3.01855h0.68945v2.84863c0,0.7998,0.13965,1.54883,1.0791,1.54883
		c0.97949,0,1.46875-0.84961,1.46875-2.12891v-2.26855C31.37645,117.17286,32.06689,117.17286,32.06689,117.17285z"/>
	<path d="M38.39648,119.63184c0,1.46875-0.75049,2.54883-2.18896,2.54883c-0.71973,0-1.26953-0.28027-1.62891-0.74023v0.66016
		h-0.69043v-6.9668h0.69043v2.69922c0.36914-0.48047,0.92871-0.75,1.62891-0.75
		C37.57666,117.08301,38.39648,118.09277,38.39648,119.63184z M37.70654,119.63184c0-1.16992-0.59961-1.93945-1.59961-1.93945
		c-0.98926,0-1.58887,0.76953-1.58887,1.93945c0,1.11914,0.5498,1.93848,1.58887,1.93848
		C37.15674,121.57031,37.70654,120.75098,37.70654,119.63184z"/>
	<path d="M39.78906,121.03125v-5.89746h0.69043v5.85742c0,0.33984,0.11914,0.55957,0.44922,0.55957
		c0.15039,0,0.32031-0.04004,0.46973-0.08984l0.00977,0.58984c-0.20996,0.06934-0.45898,0.12988-0.67969,0.12988
		C40.15918,122.18066,39.78906,121.80078,39.78906,121.03125z"/>
	<path d="M42.46875,115.13379h0.7998v1.01953h-0.7998V115.13379z M42.52832,117.17285h0.68945v4.92773h-0.68945V117.17285z"/>
	<path d="M44.50977,120.89062l0.5791-0.25977c0.18066,0.50977,0.66016,0.93945,1.42969,0.93945
		c0.66992,0,1.09961-0.3291,1.09961-0.84961c0-1.30859-2.83887-0.48926-2.83887-2.23828c0-0.85938,0.7002-1.38965,1.68945-1.38965
		c0.78906,0,1.42871,0.33008,1.76855,1.0293l-0.5498,0.2998c-0.23926-0.43945-0.62891-0.71875-1.23926-0.71875
		c-0.60938,0-0.99902,0.24902-0.99902,0.67969c0,1.16895,2.84863,0.42969,2.84863,2.29785c0,1-0.81934,1.5-1.76953,1.5
		C45.55957,122.18066,44.76953,121.68066,44.50977,120.89062z"/>
	<path d="M53.62598,119.08203v3.01855h-0.68945v-2.84863c0-1.06934-0.33984-1.54883-1.0791-1.54883
		c-0.93945,0-1.46973,0.76953-1.46973,2.12891v2.26855h-0.68945v-6.9668h0.68945v2.75879c0.32031-0.5,0.91992-0.7998,1.62988-0.7998
		C53.07715,117.09277,53.62598,117.77246,53.62598,119.08203z"/>
	<path d="M59.22656,119.82129h-3.6084c0.02051,1.08008,0.62012,1.72949,1.58887,1.72949c0.54004,0,0.96973-0.13965,1.41992-0.62012
		l0.47949,0.41992c-0.58008,0.60938-1.14941,0.83008-1.90918,0.83008c-1.49902,0-2.26855-1.12012-2.26855-2.51855
		c0-1.38965,0.75977-2.56934,2.18848-2.56934c1.50977,0,2.13867,1.17969,2.13867,2.29883
		C59.25586,119.53223,59.24609,119.70117,59.22656,119.82129z M55.61816,119.24219h2.97852
		c0-0.02051-0.00977-0.07031-0.00977-0.16016c-0.0498-0.7998-0.55957-1.40918-1.46973-1.40918
		C56.22754,117.67285,55.67871,118.37207,55.61816,119.24219z"/>
	<path d="M64.7666,115.13379v6.9668h-0.68945v-0.66016c-0.36035,0.45996-0.91016,0.74023-1.62891,0.74023
		c-1.43945,0-2.18945-1.08008-2.18945-2.54883c0-1.53906,0.81934-2.54883,2.18945-2.54883c0.69922,0,1.25879,0.26953,1.62891,0.75
		v-2.69922C64.07715,115.13378,64.7666,115.13378,64.7666,115.13379z M64.13672,119.63184
		c0-1.16992-0.59961-1.93945-1.58887-1.93945c-1,0-1.59961,0.76953-1.59961,1.93945c0,1.11914,0.5498,1.93848,1.59961,1.93848
		C63.58691,121.57031,64.13672,120.75098,64.13672,119.63184z"/>
	<path d="M0.54932,127.13379h0.7998v1.01953h-0.7998C0.54932,128.15332,0.54932,127.13379,0.54932,127.13379z M0.60889,129.17285
		h0.69043v4.92773H0.60889V129.17285z"/>
	<path d="M7.04639,131.08203v3.01855H6.35693v-2.84863c0-1.05957-0.33984-1.54883-1.0791-1.54883
		c-0.92969,0-1.46875,0.79883-1.46875,2.18848v2.20898H3.11865v-4.92773h0.69043v0.71973c0.31934-0.5,0.91895-0.7998,1.62891-0.7998
		C6.49756,129.09277,7.04639,129.77246,7.04639,131.08203z"/>
	<path d="M15.14697,131.03223v3.06836h-0.62891l-0.04004-0.75977c-0.38965,0.5498-0.99023,0.83984-1.76953,0.83984
		c-1.06934,0-1.69922-0.56055-1.69922-1.50977c0-0.49902,0.2002-0.87891,0.55957-1.09961
		c0.37988-0.21973,0.91016-0.30957,1.87891-0.30957h1.00977v-0.22949c0-0.85938-0.44922-1.3291-1.2793-1.3291
		c-0.61914,0-1.09961,0.26953-1.49902,0.81934l-0.5-0.41992c0.53027-0.68945,1.16992-1.00977,2.00879-1.00977
		C14.42725,129.09277,15.14697,129.80273,15.14697,131.03223z M14.45752,131.8916v-0.07031H13.5083
		c-0.90918,0-1.2998,0.06055-1.53906,0.25c-0.17969,0.13965-0.27051,0.36035-0.27051,0.63965
		c0,0.5498,0.46973,0.89941,1.20996,0.89941C13.85791,133.61035,14.45752,132.94141,14.45752,131.8916z"/>
	<path d="M19.49854,127.13379h0.7998v1.01953h-0.7998V127.13379z M19.55811,129.17285h0.69043v4.92773h-0.69043V129.17285z"/>
	<path d="M25.99658,131.08203v3.01855h-0.68945v-2.84863c0-1.05957-0.33984-1.54883-1.0791-1.54883
		c-0.92969,0-1.46973,0.79883-1.46973,2.18848v2.20898h-0.68945v-4.92773h0.68945v0.71973
		c0.32031-0.5,0.91992-0.7998,1.62988-0.7998C25.44775,129.09277,25.99658,129.77246,25.99658,131.08203z"/>
	<path d="M31.81689,127.13379v6.9668h-0.68945v-0.66016c-0.36035,0.45996-0.91016,0.74023-1.62891,0.74023
		c-1.43945,0-2.18945-1.08008-2.18945-2.54883c0-1.53906,0.81934-2.54883,2.18945-2.54883c0.69922,0,1.25879,0.26953,1.62891,0.75
		v-2.69922H31.81689z M31.18701,131.63184c0-1.16992-0.59961-1.93945-1.58887-1.93945c-1,0-1.59961,0.76953-1.59961,1.93945
		c0,1.11914,0.5498,1.93848,1.59961,1.93848C30.63721,133.57031,31.18701,132.75098,31.18701,131.63184z"/>
	<path d="M37.53662,131.82129h-3.6084c0.02051,1.08008,0.62012,1.72949,1.58887,1.72949c0.54004,0,0.96973-0.13965,1.41992-0.62012
		l0.47949,0.41992c-0.58008,0.60938-1.14941,0.83008-1.90918,0.83008c-1.49902,0-2.26855-1.12012-2.26855-2.51855
		c0-1.38965,0.75977-2.56934,2.18848-2.56934c1.50977,0,2.13867,1.17969,2.13867,2.29883
		C37.56592,131.53223,37.55615,131.70117,37.53662,131.82129z M33.92822,131.24219h2.97852
		c0-0.02051-0.00977-0.07031-0.00977-0.16016c-0.0498-0.7998-0.55957-1.40918-1.46973-1.40918
		C34.5376,129.67285,33.98877,130.37207,33.92822,131.24219z"/>
	<path d="M43.4668,131.63184c0,1.46875-0.75,2.54883-2.18848,2.54883c-0.71973,0-1.26953-0.28027-1.62891-0.74023v2.69922h-0.69043
		v-6.9668h0.69043v0.66016c0.36914-0.48047,0.92871-0.75,1.62891-0.75C42.64746,129.08301,43.4668,130.09277,43.4668,131.63184z
		 M42.77734,131.63184c0-1.16992-0.59961-1.93945-1.59961-1.93945c-0.98926,0-1.58887,0.76953-1.58887,1.93945
		c0,1.11914,0.5498,1.93848,1.58887,1.93848C42.22754,133.57031,42.77734,132.75098,42.77734,131.63184z"/>
	<path d="M48.79688,131.82129h-3.6084c0.02051,1.08008,0.62012,1.72949,1.58887,1.72949c0.54004,0,0.96973-0.13965,1.41992-0.62012
		l0.47949,0.41992c-0.58008,0.60938-1.14941,0.83008-1.90918,0.83008c-1.49902,0-2.26855-1.12012-2.26855-2.51855
		c0-1.38965,0.75977-2.56934,2.18848-2.56934c1.50977,0,2.13867,1.17969,2.13867,2.29883
		C48.82617,131.53223,48.81641,131.70117,48.79688,131.82129z M45.18848,131.24219H48.167
		c0-0.02051-0.00977-0.07031-0.00977-0.16016c-0.0498-0.7998-0.55957-1.40918-1.46973-1.40918
		C45.79785,129.67285,45.24902,130.37207,45.18848,131.24219z"/>
	<path d="M54.14648,131.08203v3.01855h-0.68945v-2.84863c0-1.05957-0.33984-1.54883-1.0791-1.54883
		c-0.92969,0-1.46875,0.79883-1.46875,2.18848v2.20898h-0.69043v-4.92773h0.69043v0.71973
		c0.31934-0.5,0.91895-0.7998,1.62891-0.7998C53.59766,129.09277,54.14648,129.77246,54.14648,131.08203z"/>
	<path d="M59.9668,127.13379v6.9668h-0.68945v-0.66016c-0.36035,0.45996-0.91016,0.74023-1.62891,0.74023
		c-1.43945,0-2.18945-1.08008-2.18945-2.54883c0-1.53906,0.81934-2.54883,2.18945-2.54883c0.69922,0,1.25879,0.26953,1.62891,0.75
		v-2.69922H59.9668z M59.33691,131.63184c0-1.16992-0.59961-1.93945-1.58887-1.93945c-1,0-1.59961,0.76953-1.59961,1.93945
		c0,1.11914,0.5498,1.93848,1.59961,1.93848C58.78711,133.57031,59.33691,132.75098,59.33691,131.63184z"/>
	<path d="M65.68652,131.82129h-3.6084c0.02051,1.08008,0.62012,1.72949,1.58887,1.72949c0.54004,0,0.96973-0.13965,1.41992-0.62012
		l0.47949,0.41992c-0.58008,0.60938-1.14941,0.83008-1.90918,0.83008c-1.49902,0-2.26855-1.12012-2.26855-2.51855
		c0-1.38965,0.75977-2.56934,2.18848-2.56934c1.50977,0,2.13867,1.17969,2.13867,2.29883
		C65.71582,131.53223,65.70605,131.70117,65.68652,131.82129z M62.07812,131.24219h2.97852
		c0-0.02051-0.00977-0.07031-0.00977-0.16016c-0.0498-0.7998-0.55957-1.40918-1.46973-1.40918
		C62.6875,129.67285,62.13867,130.37207,62.07812,131.24219z"/>
	<path d="M71.03613,131.08203v3.01855h-0.68945v-2.84863c0-1.05957-0.33984-1.54883-1.0791-1.54883
		c-0.92969,0-1.46973,0.79883-1.46973,2.18848v2.20898H67.1084v-4.92773h0.68945v0.71973c0.32031-0.5,0.91992-0.7998,1.62988-0.7998
		C70.4873,129.09277,71.03613,129.77246,71.03613,131.08203z"/>
	<path d="M74.78711,134.05078c-0.25977,0.0791-0.51953,0.12988-0.74902,0.12988c-0.66016,0-1.13965-0.37012-1.13965-1.23926
		v-3.18848H72.0791v-0.58008h0.81934v-1.37891l0.68945-0.51953v1.89844h1.18945v0.58008H73.5879v3.09766
		c0,0.48047,0.21973,0.7002,0.61035,0.7002c0.16992,0,0.35938-0.04004,0.5791-0.11035L74.78711,134.05078z"/>
	<path d="M-0.1001,141.17285h0.74902l1.5498,4.04785l1.55859-4.04785h0.75977l-2.01855,4.92773H1.90869L-0.1001,141.17285z"/>
	<path d="M5.04932,143.63184c0-1.45898,0.9502-2.53906,2.35938-2.53906c1.39844,0,2.36816,1.08008,2.36816,2.53906
		c0,1.44922-0.95898,2.54883-2.36816,2.54883S5.04932,145.09082,5.04932,143.63184z M9.0874,143.63184
		c0-1.11914-0.62988-1.92871-1.67871-1.92871c-1.05957,0-1.66992,0.81934-1.66992,1.92871
		c0,1.11914,0.62012,1.93848,1.66992,1.93848C8.46729,145.57031,9.0874,144.73145,9.0874,143.63184z"/>
	<path d="M11.12842,145.03125v-5.89746h0.69043v5.85742c0,0.33984,0.11914,0.55957,0.44922,0.55957
		c0.15039,0,0.32031-0.04004,0.46973-0.08984l0.00977,0.58984c-0.20996,0.06934-0.45898,0.12988-0.67969,0.12988
		C11.49854,146.18066,11.12842,145.80078,11.12842,145.03125z"/>
	<path d="M17.62744,141.17285v4.92773h-0.69043v-0.70996c-0.34961,0.53027-0.97949,0.79004-1.62891,0.79004
		c-1.11914,0-1.6084-0.76953-1.6084-1.98926v-3.01855h0.68945v2.84863c0,0.7998,0.13965,1.54883,1.0791,1.54883
		c0.97949,0,1.46875-0.84961,1.46875-2.12891v-2.26855H17.62744z"/>
	<path d="M26.20557,143.02246v3.07812h-0.68945v-2.88867c0-0.41992,0-1.50879-1.08008-1.50879
		c-0.99902,0-1.26855,0.91895-1.26855,2.02832v2.36914h-0.69043v-2.84863c0-0.81934-0.25-1.54883-1.10938-1.54883
		c-0.95898,0-1.22852,0.90918-1.22852,2.02832v2.36914h-0.69043l-0.00977-4.92773h0.66992v0.59961
		c0.30957-0.48926,0.80957-0.67969,1.35938-0.67969c0.68945,0,1.19922,0.2998,1.44922,0.9502
		c0.31934-0.62988,0.86914-0.9502,1.61914-0.9502C25.71533,141.09277,26.20557,141.87305,26.20557,143.02246z"/>
	<path d="M31.80713,143.82129h-3.6084c0.02051,1.08008,0.62012,1.72949,1.58887,1.72949c0.54004,0,0.96973-0.13965,1.41992-0.62012
		l0.47949,0.41992c-0.58008,0.60938-1.14941,0.83008-1.90918,0.83008c-1.49902,0-2.26855-1.12012-2.26855-2.51855
		c0-1.38965,0.75977-2.56934,2.18848-2.56934c1.50977,0,2.13867,1.17969,2.13867,2.29883
		C31.83643,143.53223,31.82666,143.70117,31.80713,143.82129z M28.19873,143.24219h2.97852
		c0-0.02051-0.00977-0.07031-0.00977-0.16016c-0.0498-0.7998-0.55957-1.40918-1.46973-1.40918
		C28.80811,141.67285,28.25928,142.37207,28.19873,143.24219z"/>
</g>
</svg>
