<svg xmlns="http://www.w3.org/2000/svg" width="75.5" height="160" viewBox="0 0 75.5 160"><g transform="translate(-94.5 -326)"><g transform="translate(94.5 326)" fill="none" stroke="#fffffa" stroke-width="1"><rect width="75.5" height="160" stroke="none"/><rect x="0.5" y="0.5" width="74.5" height="159" fill="none"/></g><g transform="translate(94.667 356.881)"><ellipse cx="30.6" cy="17.7" rx="30.6" ry="17.7" transform="translate(0.4 15.1)" fill="none" stroke="#444" stroke-width="0.25"/><ellipse cx="26.6" cy="15.4" rx="26.6" ry="15.4" transform="translate(4.4 13.3)" fill="none" stroke="#444" stroke-width="0.25"/><ellipse cx="23.6" cy="13.6" rx="23.6" ry="13.6" transform="translate(7.4 11)" fill="none" stroke="#444" stroke-width="0.25"/><ellipse cx="21.4" cy="12.4" rx="21.4" ry="12.4" transform="translate(9.6 8.2)" fill="none" stroke="#444" stroke-width="0.25"/><ellipse cx="19.4" cy="11.2" rx="19.4" ry="11.2" transform="translate(11.6 5.3)" fill="none" stroke="#444" stroke-width="0.25"/><ellipse cx="16.8" cy="9.7" rx="16.8" ry="9.7" transform="translate(14.2 2.7)" fill="none" stroke="#444" stroke-width="0.25"/><ellipse cx="13" cy="7.5" rx="13" ry="7.5" transform="translate(18 0.8)" fill="none" stroke="#444" stroke-width="0.25"/><ellipse cx="7.5" cy="4.3" rx="7.5" ry="4.3" transform="translate(23.5 0)" fill="none" stroke="#444" stroke-width="0.25"/></g><text transform="translate(95 437)" font-size="10" font-family="HKGrotesk-Regular, HK Grotesk"><tspan x="0" y="9">Testo </tspan><tspan x="0" y="21">pubblicato </tspan><tspan x="0" y="33">solo in rivista </tspan><tspan x="0" y="45">o quotidiano</tspan></text></g></svg>