<svg xmlns="http://www.w3.org/2000/svg" xmlns:xlink="http://www.w3.org/1999/xlink" width="65" height="165" viewBox="0 0 65 165">
  <defs>
    <clipPath id="clip-territorio_b_situazione_editoriale_4_en">
      <rect width="65" height="165"/>
    </clipPath>
  </defs>
  <g id="territorio_b_situazione_editoriale_4_en" clip-path="url(#clip-territorio_b_situazione_editoriale_4_en)">
    <text id="prima-pubblicazione" transform="translate(55 90)" font-size="9" font-family="HKGrotesk-Regular, HK Grotesk"><tspan x="-15.471" y="0">first</tspan><tspan x="-44.136" y="10">publication</tspan></text>
    <text id="ultima-ripubblicazio" transform="translate(59 10)" font-size="9" font-family="HKGrotesk-Regular, HK Grotesk"><tspan x="-14.535" y="0">last</tspan><tspan x="-44.136" y="10">publication</tspan></text>
    <g id="Group-2" transform="translate(2.668 30.881)">
      <ellipse id="Oval" cx="30.6" cy="17.7" rx="30.6" ry="17.7" transform="translate(0 15.1)" fill="#f36" stroke="#444" stroke-width="0.25"/>
      <ellipse id="Oval-2" data-name="Oval" cx="26.6" cy="15.4" rx="26.6" ry="15.4" transform="translate(4 13.3)" fill="#f36" stroke="#444" stroke-width="0.25"/>
      <ellipse id="Oval-3" data-name="Oval" cx="23.6" cy="13.6" rx="23.6" ry="13.6" transform="translate(7 11)" fill="orange" stroke="#444" stroke-linejoin="round" stroke-width="0.25"/>
      <ellipse id="Oval-4" data-name="Oval" cx="21.4" cy="12.4" rx="21.4" ry="12.4" transform="translate(9.2 8.2)" fill="orange" stroke="#444" stroke-linejoin="round" stroke-width="0.25"/>
      <ellipse id="Oval-5" data-name="Oval" cx="19.4" cy="11.2" rx="19.4" ry="11.2" transform="translate(11.2 5.3)" fill="#ffd93b" stroke="#444" stroke-linejoin="round" stroke-width="0.25"/>
      <ellipse id="Oval-6" data-name="Oval" cx="16.8" cy="9.7" rx="16.8" ry="9.7" transform="translate(13.8 2.7)" fill="#ffd93b" stroke="#444" stroke-linejoin="round" stroke-width="0.25"/>
      <ellipse id="Oval-7" data-name="Oval" cx="13" cy="7.5" rx="13" ry="7.5" transform="translate(17.6 0.8)" fill="#00bfd3" stroke="#444" stroke-linejoin="round" stroke-width="0.25"/>
      <ellipse id="Oval-8" data-name="Oval" cx="7.5" cy="4.3" rx="7.5" ry="4.3" transform="translate(23.1 0)" fill="#00bfd3" stroke="#444" stroke-linejoin="round" stroke-width="0.25"/>
    </g>
    <path id="Path_149475" data-name="Path 149475" d="M284.674,2.04c11.545,0,9.384-11.244,9.384-11.244" transform="translate(-252.332 32)" fill="none" stroke="#707070" stroke-width="0.25"/>
    <path id="Path_149474" data-name="Path 149474" d="M284.674,2.04c11.545,0,9.384-11.244,9.384-11.244" transform="translate(27.911 -206.028) rotate(90)" fill="none" stroke="#707070" stroke-width="0.25"/>
    <text id="Text_published_in_more_than_one_collection" data-name="Text published in more than one collection" transform="translate(0 111)" font-size="10" font-family="HKGrotesk-Regular, HK Grotesk"><tspan x="0" y="10">Text </tspan><tspan x="0" y="23">published in </tspan><tspan x="0" y="36">more than </tspan><tspan x="0" y="49">one collection</tspan></text>
  </g>
</svg>
