<svg xmlns="http://www.w3.org/2000/svg" xmlns:xlink="http://www.w3.org/1999/xlink" width="800" height="36" viewBox="0 0 800 36">
  <defs>
    <clipPath id="clip-legend_01">
      <rect width="800" height="36"/>
    </clipPath>
  </defs>
  <g id="legend_01" clip-path="url(#clip-legend_01)">
    <g id="Group_795" data-name="Group 795" transform="translate(0 25)">
      <g id="Group_306" data-name="Group 306">
        <g id="Group_312" data-name="Group 312" transform="translate(0 -1)">
          <text id="Incipit" transform="translate(20 9)" font-size="9" font-family="HKGrotesk-Regular, HK Grotesk" style="isolation: isolate"><tspan x="0" y="0">Incipit</tspan></text>
          <path id="Path_47" data-name="Path 47" d="M4.5,0h8a4.5,4.5,0,0,1,0,9h-8a4.5,4.5,0,0,1,0-9Z" transform="translate(0 1)" fill="#dcdcdc"/>
        </g>
      </g>
      <g id="Group_307" data-name="Group 307" transform="translate(74)">
        <text id="Storia_del_lettore" data-name="Storia del lettore" transform="translate(20 8)" font-size="9" font-family="HKGrotesk-Regular, HK Grotesk" style="isolation: isolate"><tspan x="0" y="0">Storia del lettore</tspan></text>
        <g id="Path_46" data-name="Path 46" transform="translate(0 1)" fill="#fffffa">
          <path d="M 12.5 8.75 L 4.5 8.75 C 2.156539916992188 8.75 0.25 6.843460083007812 0.25 4.5 C 0.25 2.156539916992188 2.156539916992188 0.25 4.5 0.25 L 12.5 0.25 C 14.84346008300781 0.25 16.75 2.156539916992188 16.75 4.5 C 16.75 6.843460083007812 14.84346008300781 8.75 12.5 8.75 Z" stroke="none"/>
          <path d="M 4.5 0.5 C 2.294389724731445 0.5 0.5 2.294390201568604 0.5 4.5 C 0.5 6.705610275268555 2.294389724731445 8.5 4.5 8.5 L 12.5 8.5 C 14.70561027526855 8.5 16.5 6.705610275268555 16.5 4.5 C 16.5 2.294390201568604 14.70561027526855 0.5 12.5 0.5 L 4.5 0.5 M 4.5 0 L 12.5 0 C 14.98528003692627 0 17 2.01471996307373 17 4.5 C 17 6.98528003692627 14.98528003692627 9 12.5 9 L 4.5 9 C 2.01471996307373 9 0 6.98528003692627 0 4.5 C 0 2.01471996307373 2.01471996307373 0 4.5 0 Z" stroke="none"/>
        </g>
      </g>
      <g id="Group_543" data-name="Group 543" transform="translate(181 0)">
        <text id="Parentesi_con_cambio_di_punto_di_vista" data-name="Parentesi con cambio di punto di vista" transform="translate(20.483 8)" font-size="9" font-family="HKGrotesk-Regular, HK Grotesk" style="isolation: isolate"><tspan x="0" y="0">Parentesi con cambio di punto di vista</tspan></text>
        <rect id="Rectangle_181" data-name="Rectangle 181" width="17" height="9" rx="4.5" transform="translate(0 1)" fill="#dbdbea"/>
      </g>
    </g>
    <text id="Sequenze" transform="translate(0 9)" font-size="10" font-family="HKGrotesk-Italic, HK Grotesk" font-style="italic"><tspan x="0" y="0">Sequenze</tspan></text>
  </g>
</svg>
