<?xml version="1.0" encoding="utf-8"?>
<!-- Generator: Adobe Illustrator 25.1.0, SVG Export Plug-In . SVG Version: 6.00 Build 0)  -->
<svg version="1.1" id="Livello_1" xmlns="http://www.w3.org/2000/svg" xmlns:xlink="http://www.w3.org/1999/xlink" x="0px" y="0px"
	 viewBox="0 0 800 12" enable-background="new 0 0 800 12" xml:space="preserve">
<g>
	<defs>
		<rect id="SVGID_1_" y="0" width="800" height="12"/>
	</defs>
	<clipPath id="SVGID_2_">
		<use xlink:href="#SVGID_1_"  overflow="visible"/>
	</clipPath>
	<g id="legend" clip-path="url(#SVGID_2_)">
		<g id="Raggruppa_312">
			<g enable-background="new    ">
				<path d="M27.13916,2.03436h0.70996v6.96582h-0.70996V2.03436z"/>
				<path d="M33.82715,5.98163v3.01855H33.1377V6.15155c0-1.05957-0.33984-1.54883-1.07959-1.54883
					c-0.92969,0-1.46924,0.7998-1.46924,2.18848v2.20898h-0.68945V4.07245h0.68945v0.71973
					c0.31982-0.49902,0.91943-0.79883,1.62891-0.79883C33.27734,3.99335,33.82715,4.67303,33.82715,5.98163z"/>
				<path d="M35.11914,6.55194c0-1.2998,0.72998-2.55859,2.21875-2.55859c0.87988,0,1.60938,0.43945,1.99902,1.3584
					l-0.65967,0.26074c-0.22949-0.62988-0.71924-1.00977-1.33936-1.00977c-1.04932,0-1.51904,0.93945-1.51904,1.94922
					c0,1.00879,0.46973,1.91895,1.5293,1.91895c0.61963,0,1.10938-0.37012,1.29932-1l0.63965,0.24023
					c-0.33008,0.89941-1.04932,1.36914-1.93896,1.36914C35.91895,9.08026,35.11914,7.92108,35.11914,6.55194z"/>
				<path d="M40.54932,2.03436h0.79932v1.01953h-0.79932V2.03436z M40.60938,4.07245h0.68945v4.92773h-0.68945V4.07245z"/>
				<path d="M47.62695,6.53143c0,1.46973-0.74951,2.54883-2.18896,2.54883c-0.71924,0-1.26904-0.28027-1.62891-0.73926v2.69824
					h-0.68945v-6.9668h0.68945V4.7326c0.36963-0.47949,0.92969-0.75,1.62891-0.75
					C46.80762,3.9826,47.62695,4.99237,47.62695,6.53143z M46.9375,6.53143c0-1.16895-0.59961-1.93848-1.59912-1.93848
					c-0.98975,0-1.58936,0.76953-1.58936,1.93848c0,1.11914,0.5498,1.93945,1.58936,1.93945
					C46.3877,8.47089,46.9375,7.65057,46.9375,6.53143z"/>
				<path d="M48.99902,2.03436h0.79932v1.01953h-0.79932V2.03436z M49.05908,4.07245h0.68945v4.92773h-0.68945V4.07245z"/>
				<path d="M53.61816,8.95038c-0.25977,0.08008-0.52002,0.12988-0.74951,0.12988c-0.65967,0-1.13965-0.37012-1.13965-1.23926
					V4.65253h-0.81934V4.07245H51.729V2.69354l0.68994-0.51953v1.89844h1.18896v0.58008h-1.18896v3.09863
					c0,0.47949,0.21973,0.69922,0.60938,0.69922c0.16992,0,0.35986-0.04004,0.57959-0.10938L53.61816,8.95038z"/>
			</g>
			<path id="Tracciato_47" fill="#DCDCDC" d="M5.559,1h9.882C18.35418,0.85299,20.8386,3.08758,21,6
				c-0.1614,2.91242-2.64582,5.14701-5.559,5H5.559C2.64582,11.14701,0.1614,8.91242,0,6C0.1614,3.08758,2.64582,0.85299,5.559,1z"
				/>
		</g>
		<g enable-background="new    ">
			<path d="M111.06738,9.00018l-1.7793-3.08789h-0.46973h-0.96924v3.08789h-0.70996V2.03436h1.98926
				c1.49902,0,2.29883,0.66895,2.29883,1.92871c0,0.97949-0.48975,1.60938-1.4292,1.8584l1.89893,3.17871H111.06738z
				 M109.05811,5.25214c1.09961,0,1.64941-0.42969,1.64941-1.2793s-0.5498-1.2793-1.64941-1.2793h-1.20898v2.55859H109.05811z"/>
			<path d="M116.93701,6.72186h-3.60791c0.02002,1.0791,0.61963,1.72852,1.58936,1.72852c0.53955,0,0.96924-0.13965,1.41895-0.61914
				l0.47998,0.41895c-0.57959,0.61035-1.14941,0.83008-1.90918,0.83008c-1.49902,0-2.26855-1.11914-2.26855-2.51855
				c0-1.38965,0.75977-2.56836,2.18896-2.56836c1.50879,0,2.13867,1.17871,2.13867,2.29785
				C116.96729,6.43182,116.95703,6.60175,116.93701,6.72186z M113.3291,6.14178h2.97852c0-0.02051-0.01025-0.07031-0.01025-0.16016
				c-0.0498-0.7998-0.55957-1.40918-1.46875-1.40918C113.93896,4.57245,113.38916,5.27264,113.3291,6.14178z"/>
			<path d="M122.02783,5.93182v3.06836h-0.62988l-0.04004-0.75977c-0.38965,0.5498-0.98926,0.83984-1.76904,0.83984
				c-1.06934,0-1.69873-0.55957-1.69873-1.50977c0-0.49902,0.19971-0.87891,0.55957-1.09863
				c0.37988-0.21973,0.90967-0.31055,1.87891-0.31055h1.00928V5.93182c0-0.85938-0.44971-1.3291-1.2793-1.3291
				c-0.61963,0-1.09912,0.26953-1.49902,0.81934l-0.49951-0.41992c0.5293-0.68945,1.16895-1.00879,2.00879-1.00879
				C121.30811,3.99335,122.02783,4.70233,122.02783,5.93182z M121.33789,6.7912V6.72186h-0.94922
				c-0.90967,0-1.29932,0.05957-1.53906,0.24902c-0.18018,0.14062-0.27002,0.36035-0.27002,0.63965
				c0,0.5498,0.46973,0.90039,1.20947,0.90039C120.73828,8.51093,121.33789,7.841,121.33789,6.7912z"/>
			<path d="M127.82715,2.03436v6.96582h-0.68994V8.341c-0.35938,0.45898-0.90918,0.73926-1.62891,0.73926
				c-1.43896,0-2.18896-1.0791-2.18896-2.54883c0-1.53906,0.81982-2.54883,2.18896-2.54883c0.69971,0,1.25928,0.27051,1.62891,0.75
				V2.03436H127.82715z M127.19727,6.53143c0-1.16895-0.59961-1.93848-1.58887-1.93848c-0.99951,0-1.59912,0.76953-1.59912,1.93848
				c0,1.11914,0.54932,1.93945,1.59912,1.93945C126.64746,8.47089,127.19727,7.65057,127.19727,6.53143z"/>
			<path d="M133.54688,6.72186h-3.60791c0.02002,1.0791,0.61963,1.72852,1.58936,1.72852c0.53955,0,0.96924-0.13965,1.41895-0.61914
				l0.47998,0.41895c-0.57959,0.61035-1.14941,0.83008-1.90918,0.83008c-1.49902,0-2.26855-1.11914-2.26855-2.51855
				c0-1.38965,0.75977-2.56836,2.18896-2.56836c1.50879,0,2.13867,1.17871,2.13867,2.29785
				C133.57715,6.43182,133.56689,6.60175,133.54688,6.72186z M129.93896,6.14178h2.97852c0-0.02051-0.01025-0.07031-0.01025-0.16016
				c-0.0498-0.7998-0.55957-1.40918-1.46875-1.40918C130.54883,4.57245,129.99902,5.27264,129.93896,6.14178z"/>
			<path d="M137.96777,4.20331l-0.33984,0.55957c-0.22949-0.10059-0.43945-0.15039-0.64941-0.15039
				c-0.75977,0-1.31934,0.56934-1.31934,1.63965v2.74805h-0.68945V4.07245h0.68945v0.74023
				c0.35986-0.64941,0.95947-0.81934,1.45898-0.81934C137.41797,3.99335,137.69824,4.05292,137.96777,4.20331z"/>
			<path d="M139.67871,2.03436h0.78955l-1.31934,2.83789h-0.46973L139.67871,2.03436z"/>
			<path d="M141.35938,7.7912l0.57959-0.25977c0.17969,0.50977,0.65967,0.93945,1.4292,0.93945
				c0.66943,0,1.09961-0.33008,1.09961-0.84961c0-1.30957-2.83887-0.49023-2.83887-2.23926
				c0-0.85938,0.69971-1.38867,1.68945-1.38867c0.78955,0,1.4292,0.3291,1.76904,1.0293l-0.5498,0.2998
				c-0.23975-0.44043-0.62988-0.71973-1.23926-0.71973c-0.60986,0-0.99951,0.25-0.99951,0.67969
				c0,1.16895,2.84814,0.42969,2.84814,2.29883c0,0.99902-0.81934,1.49902-1.76904,1.49902
				C142.40869,9.08026,141.61914,8.58026,141.35938,7.7912z"/>
			<path d="M153.78662,6.53143c0,1.46973-0.74951,2.54883-2.18896,2.54883c-0.71924,0-1.26904-0.28027-1.62891-0.73926v2.69824
				h-0.68945v-6.9668h0.68945V4.7326c0.36963-0.47949,0.92969-0.75,1.62891-0.75
				C152.96729,3.9826,153.78662,4.99237,153.78662,6.53143z M153.09717,6.53143c0-1.16895-0.59961-1.93848-1.59912-1.93848
				c-0.98975,0-1.58936,0.76953-1.58936,1.93848c0,1.11914,0.5498,1.93945,1.58936,1.93945
				C152.54736,8.47089,153.09717,7.65057,153.09717,6.53143z"/>
			<path d="M155.1792,7.93085V2.03436h0.68945v5.85645c0,0.33984,0.12012,0.55957,0.44971,0.55957
				c0.1499,0,0.31982-0.04004,0.46973-0.08984l0.01025,0.58984c-0.20996,0.06934-0.45996,0.12988-0.67969,0.12988
				C155.54883,9.08026,155.1792,8.70038,155.1792,7.93085z"/>
			<path d="M157.48926,6.53143c0-1.45898,0.94922-2.53809,2.3584-2.53809c1.39941,0,2.36865,1.0791,2.36865,2.53809
				c0,1.44922-0.95947,2.54883-2.36865,2.54883S157.48926,7.99042,157.48926,6.53143z M161.52686,6.53143
				c0-1.11914-0.62988-1.92871-1.6792-1.92871c-1.05957,0-1.66895,0.81934-1.66895,1.92871
				c0,1.11914,0.61963,1.93945,1.66895,1.93945C160.90723,8.47089,161.52686,7.63104,161.52686,6.53143z"/>
			<path d="M165.60791,8.95038c-0.25977,0.08008-0.52002,0.12988-0.74951,0.12988c-0.65967,0-1.13965-0.37012-1.13965-1.23926
				V4.65253h-0.81934V4.07245h0.81934V2.69354l0.68945-0.51953v1.89844h1.18945v0.58008h-1.18945v3.09863
				c0,0.47949,0.22021,0.69922,0.60986,0.69922c0.16992,0,0.35986-0.04004,0.57959-0.10938L165.60791,8.95038z"/>
		</g>
		<g id="Tracciato_46" transform="translate(80 1)">
			<path fill="#FFFFFF" d="M5.559,0h9.882C18.35418-0.14701,20.8386,2.08758,21,5c-0.1614,2.91242-2.64582,5.14701-5.559,5H5.559
				C2.64582,10.14701,0.1614,7.91242,0,5C0.1614,2.08758,2.64582-0.14701,5.559,0z"/>
			<path fill="#5151FC" d="M5.55882,0h2v0.5h-2V0L5.55882,0z M9.55882,0h2v0.5h-2V0z M13.55882,0h1.88236l0,0
				c0.0022,0,0.00439,0,0.00659,0c0.00037,0,0.00096,0,0.00133,0c0.00216,0,0.00433,0.00001,0.00649,0.00001
				c0.00019,0,0.0007,0,0.00088,0c0.00467,0.00001,0.00934,0.00003,0.014,0.00005c0.00019,0,0.00014,0,0.00032,0
				c0.02941,0.00014,0.05877,0.00048,0.08807,0.00103l-0.00934,0.49991C15.5135,0.50034,15.47738,0.5,15.44118,0.5h-1.88236V0z
				 M17.51721,0.36035c0.01359,0.00493,0.02729,0.00995,0.04083,0.01497c0.00004,0.00001,0.00001,0,0.00004,0.00002
				c0.00261,0.00097,0.00517,0.00192,0.00778,0.00289l0.00005,0.00002c0.00261,0.00097,0.00495,0.00184,0.00755,0.00282
				c0.00016,0.00006,0.00031,0.00012,0.00047,0.00017c0.00261,0.00097,0.00482,0.00181,0.00743,0.00278
				c0.00008,0.00003,0.0002,0.00008,0.00028,0.0001c0.00244,0.00092,0.00487,0.00183,0.00731,0.00275
				c0.00019,0.00007,0.00038,0.00014,0.00057,0.00022c0.00244,0.00092,0.00463,0.00175,0.00707,0.00267
				c0.00027,0.0001,0.00046,0.00018,0.00074,0.00028c0.00227,0.00086,0.00451,0.00171,0.00679,0.00258
				c0.00031,0.00012,0.00067,0.00026,0.00099,0.00037c0.00909,0.00346,0.01788,0.00683,0.02694,0.01033
				c0.00027,0.0001,0.00049,0.00019,0.00076,0.00029c0.00243,0.00094,0.00451,0.00175,0.00694,0.00269
				c0.00027,0.00011,0.00054,0.00021,0.00081,0.00031c0.00227,0.00088,0.00443,0.00172,0.00669,0.0026
				c0.00043,0.00017,0.00093,0.00036,0.00135,0.00053c0.0021,0.00082,0.00416,0.00162,0.00626,0.00244
				c0.0005,0.0002,0.00094,0.00037,0.00144,0.00056c0.00194,0.00076,0.00424,0.00166,0.00617,0.00242
				c0.00047,0.00018,0.001,0.00039,0.00146,0.00057c0.00194,0.00076,0.0041,0.00161,0.00604,0.00238
				c0.00058,0.00023,0.00112,0.00044,0.0017,0.00067c0.00194,0.00076,0.00408,0.00161,0.00601,0.00237
				c0.0005,0.0002,0.00099,0.00039,0.00149,0.00059c0.0021,0.00083,0.00402,0.00159,0.00612,0.00243
				c0.0005,0.0002,0.001,0.0004,0.0015,0.0006c0.00193,0.00077,0.00414,0.00165,0.00607,0.00242
				c0.0005,0.0002,0.00103,0.00041,0.00153,0.00061c0.00193,0.00077,0.00398,0.00159,0.00591,0.00236
				c0.00058,0.00023,0.00114,0.00046,0.00172,0.00069c0.00209,0.00084,0.00425,0.00171,0.00634,0.00255
				c0.00039,0.00015,0.00082,0.00033,0.00121,0.00049c0.00128,0.00052,0.00237,0.00096,0.00366,0.00147
				c0.00093,0.00037,0.00182,0.00073,0.00274,0.00111c0.00161,0.00065,0.00322,0.0013,0.00482,0.00195
				c0.00069,0.00028,0.00132,0.00054,0.00201,0.00082c0.00192,0.00078,0.00357,0.00145,0.00549,0.00223
				c0.00073,0.0003,0.00148,0.0006,0.00221,0.0009c0.00176,0.00072,0.00362,0.00147,0.00538,0.00219
				c0.00065,0.00027,0.00126,0.00051,0.00191,0.00078c0.00192,0.00078,0.00377,0.00154,0.00569,0.00233
				c0.00061,0.00025,0.00116,0.00048,0.00178,0.00073c0.00192,0.00079,0.00392,0.00161,0.00584,0.0024
				c0.00057,0.00024,0.00106,0.00044,0.00163,0.00067c0.00192,0.00079,0.00375,0.00155,0.00567,0.00234
				c0.00069,0.00029,0.00141,0.00058,0.0021,0.00087c0.00176,0.00073,0.00358,0.00148,0.00534,0.00221
				c0.00069,0.00029,0.00146,0.00061,0.00215,0.00089c0.0016,0.00066,0.00356,0.00148,0.00515,0.00214
				c0.0008,0.00033,0.00162,0.00067,0.00242,0.00101c0.00175,0.00073,0.00332,0.00138,0.00507,0.00212
				c0.00076,0.00032,0.00161,0.00067,0.00237,0.00099c0.00144,0.0006,0.00296,0.00124,0.0044,0.00184
				c0.00107,0.00045,0.00216,0.00091,0.00323,0.00136c0.00111,0.00047,0.00214,0.0009,0.00326,0.00137
				c0.00141,0.0006,0.00275,0.00116,0.00416,0.00175c0.00111,0.00047,0.00222,0.00094,0.00333,0.00141
				c0.00137,0.00058,0.00278,0.00117,0.00415,0.00175c0.00111,0.00047,0.00222,0.00094,0.00334,0.00141
				c0.00095,0.0004,0.00192,0.00082,0.00288,0.00122c0.00159,0.00068,0.003,0.00128,0.00459,0.00195
				c0.00103,0.00044,0.00197,0.00084,0.003,0.00128C17.8208,0.48,17.82232,0.48065,17.82375,0.48126
				c0.00088,0.00037,0.00179,0.00076,0.00266,0.00114c0.00159,0.00068,0.00316,0.00135,0.00475,0.00203
				c0.00091,0.00039,0.00187,0.0008,0.00278,0.00119c0.00143,0.00061,0.00308,0.00132,0.0045,0.00194
				c0.00095,0.00041,0.00196,0.00084,0.00291,0.00126c0.00159,0.00068,0.00281,0.00121,0.0044,0.0019
				c0.00103,0.00044,0.00209,0.0009,0.00311,0.00135c0.00142,0.00062,0.00264,0.00114,0.00407,0.00176
				c0.00106,0.00046,0.00215,0.00093,0.00321,0.00139c0.00142,0.00062,0.00276,0.0012,0.00418,0.00182
				c0.00106,0.00046,0.00213,0.00093,0.00319,0.00139c0.00126,0.00055,0.00266,0.00116,0.00393,0.00171
				c0.0011,0.00048,0.00223,0.00097,0.00333,0.00146c0.00126,0.00055,0.00252,0.0011,0.00378,0.00166
				c0.00125,0.00055,0.00248,0.00109,0.00373,0.00164c0.0011,0.00049,0.0019,0.00083,0.003,0.00132
				c0.00144,0.00063,0.00294,0.0013,0.00438,0.00193c0.00095,0.00042,0.00213,0.00094,0.00308,0.00136
				c0.00144,0.00063,0.00286,0.00126,0.0043,0.0019c0.0011,0.00049,0.00195,0.00086,0.00305,0.00135
				c0.00143,0.00064,0.00288,0.00128,0.00431,0.00191c0.0011,0.00049,0.002,0.00089,0.0031,0.00138
				c0.00125,0.00055,0.00255,0.00114,0.0038,0.00169c0.0011,0.00049,0.00234,0.00104,0.00344,0.00153
				c0.00113,0.0005,0.00237,0.00106,0.0035,0.00156c0.00141,0.00063,0.00251,0.00112,0.00392,0.00176
				c0.00109,0.00049,0.00213,0.00095,0.00322,0.00144c0.00141,0.00064,0.00263,0.00118,0.00404,0.00182
				c0.00105,0.00047,0.002,0.0009,0.00306,0.00138c0.00141,0.00064,0.00301,0.00136,0.00442,0.00199
				c0.00094,0.00042,0.00192,0.00087,0.00286,0.00129c0.00141,0.00064,0.00281,0.00127,0.00422,0.00191
				c0.00101,0.00046,0.00213,0.00097,0.00315,0.00143c0.00125,0.00057,0.00283,0.00129,0.00408,0.00186
				c0.00109,0.00049,0.00217,0.00099,0.00326,0.00148c0.00125,0.00057,0.00239,0.00109,0.00364,0.00166
				c0.00124,0.00057,0.00243,0.00111,0.00367,0.00168c0.00094,0.00043,0.0021,0.00096,0.00303,0.00139
				c0.00142,0.00065,0.00286,0.00131,0.00429,0.00197c0.00094,0.00043,0.00192,0.00088,0.00286,0.00131
				c0.0015,0.00069,0.00299,0.00137,0.00448,0.00206c0.00094,0.00043,0.00194,0.0009,0.00288,0.00133
				c0.00146,0.00067,0.0029,0.00134,0.00436,0.00201c0.00094,0.00043,0.00204,0.00094,0.00298,0.00138
				c0.00142,0.00066,0.00287,0.00133,0.00429,0.00199C17.988,0.55447,17.98891,0.55489,17.99,0.5554
				c0.00119,0.00056,0.00241,0.00112,0.0036,0.00168c0.00109,0.00051,0.00253,0.00118,0.00362,0.00169
				c0.00119,0.00056,0.00237,0.00111,0.00356,0.00166c0.00124,0.00058,0.00239,0.00112,0.00363,0.0017
				c0.00108,0.00051,0.00217,0.00102,0.00325,0.00152c0.00124,0.00058,0.00279,0.00131,0.00404,0.0019
				c0.00101,0.00047,0.00206,0.00097,0.00307,0.00144c0.0014,0.00066,0.00272,0.00128,0.00412,0.00194
				c0.00104,0.00049,0.0021,0.00099,0.00315,0.00148c0.00124,0.00059,0.00263,0.00124,0.00387,0.00183
				c0.00115,0.00055,0.00228,0.00108,0.00343,0.00163c0.00124,0.00059,0.00226,0.00107,0.0035,0.00166
				c0.00123,0.00058,0.00245,0.00117,0.00368,0.00175c0.00109,0.00052,0.00237,0.00113,0.00346,0.00165
				c0.00123,0.00058,0.00243,0.00116,0.00365,0.00174c0.00108,0.00052,0.00207,0.00099,0.00315,0.00151
				c0.00137,0.00066,0.00272,0.0013,0.0041,0.00196c0.00093,0.00044,0.00188,0.0009,0.00281,0.00135
				c0.00152,0.00073,0.00296,0.00142,0.00448,0.00215c0.00093,0.00045,0.00176,0.00085,0.00269,0.00129
				c0.00152,0.00073,0.0031,0.00149,0.00461,0.00222c0.00093,0.00045,0.00164,0.00079,0.00257,0.00124
				c0.00152,0.00073,0.00307,0.00148,0.00459,0.00222c0.00077,0.00037,0.00187,0.00091,0.00264,0.00128
				c0.00155,0.00075,0.00312,0.00151,0.00467,0.00227c0.00092,0.00045,0.00153,0.00074,0.00245,0.00119
				c0.00155,0.00075,0.00313,0.00152,0.00468,0.00228c0.00077,0.00038,0.00169,0.00082,0.00246,0.0012
				c0.0014,0.00068,0.00279,0.00136,0.00419,0.00205c0.00108,0.00053,0.00201,0.00098,0.00308,0.00151
				c0.00118,0.00058,0.00231,0.00113,0.00349,0.00171c0.00138,0.00068,0.00237,0.00117,0.00376,0.00185
				c0.00114,0.00056,0.0023,0.00113,0.00344,0.0017c0.00123,0.0006,0.00227,0.00112,0.0035,0.00172
				c0.00121,0.0006,0.00243,0.0012,0.00365,0.0018c0.00107,0.00053,0.00224,0.0011,0.00331,0.00164
				c0.00125,0.00062,0.00259,0.00128,0.00384,0.0019c0.00107,0.00053,0.00206,0.00102,0.00313,0.00155
				c0.00129,0.00064,0.00259,0.00129,0.00388,0.00193c0.00107,0.00053,0.0019,0.00094,0.00297,0.00148
				c0.00143,0.00071,0.00284,0.00142,0.00427,0.00213c0.00092,0.00046,0.00158,0.00079,0.0025,0.00125
				c0.00154,0.00077,0.00305,0.00152,0.00459,0.0023c0.00076,0.00038,0.00187,0.00094,0.00264,0.00132
				c0.0015,0.00075,0.00301,0.00151,0.00451,0.00227c0.00092,0.00046,0.00177,0.00089,0.00269,0.00135
				c0.00143,0.00072,0.00291,0.00146,0.00433,0.00218c0.00092,0.00046,0.00197,0.00099,0.00288,0.00146
				c0.00146,0.00074,0.00284,0.00144,0.00431,0.00218c0.00091,0.00046,0.00185,0.00094,0.00277,0.0014
				c0.00132,0.00067,0.00264,0.00134,0.00395,0.00201c0.00107,0.00054,0.00213,0.00108,0.00319,0.00162
				c0.0012,0.00061,0.00245,0.00125,0.00366,0.00186c0.00107,0.00054,0.00231,0.00118,0.00337,0.00172
				c0.00109,0.00056,0.00213,0.00109,0.00322,0.00165c0.00137,0.0007,0.00257,0.00131,0.00393,0.00202
				c0.00106,0.00054,0.00215,0.0011,0.0032,0.00164c0.00121,0.00062,0.00247,0.00127,0.00369,0.00189
				c0.00109,0.00056,0.00217,0.00112,0.00327,0.00168c0.00137,0.0007,0.00242,0.00125,0.00379,0.00195
				c0.00113,0.00058,0.0022,0.00113,0.00333,0.00172c0.00106,0.00055,0.0023,0.00119,0.00336,0.00174
				c0.0012,0.00062,0.00238,0.00123,0.00358,0.00185c0.00121,0.00063,0.00241,0.00125,0.00362,0.00188
				c0.00113,0.00058,0.00232,0.0012,0.00344,0.00179c0.00091,0.00047,0.00186,0.00097,0.00276,0.00144
				c0.00145,0.00076,0.00289,0.00151,0.00434,0.00226c0.00091,0.00047,0.00183,0.00095,0.00274,0.00143
				c0.00149,0.00078,0.00297,0.00155,0.00445,0.00233c0.00091,0.00047,0.00162,0.00085,0.00253,0.00133
				c0.00149,0.00078,0.00294,0.00154,0.00443,0.00232c0.00091,0.00048,0.00188,0.00099,0.00279,0.00147
				c0.00141,0.00074,0.00288,0.00152,0.00429,0.00226c0.0009,0.00048,0.00178,0.00094,0.00268,0.00142
				c0.00134,0.00071,0.00271,0.00143,0.00405,0.00214c0.00105,0.00056,0.00197,0.00104,0.00302,0.0016
				c0.00126,0.00067,0.00257,0.00136,0.00383,0.00203c0.00105,0.00056,0.00205,0.00109,0.0031,0.00165
				c0.00116,0.00061,0.00231,0.00123,0.00346,0.00184c0.0012,0.00064,0.00244,0.0013,0.00364,0.00194
				c0.00112,0.0006,0.00224,0.0012,0.00336,0.00179c0.0012,0.00064,0.00224,0.00119,0.00344,0.00184
				c0.00112,0.0006,0.00231,0.00124,0.00342,0.00183c0.0012,0.00064,0.00248,0.00133,0.00368,0.00197
				c0.00111,0.0006,0.00213,0.00114,0.00325,0.00174c0.0012,0.00064,0.0023,0.00124,0.0035,0.00188
				c0.00115,0.00062,0.00231,0.00125,0.00346,0.00187c0.00105,0.00057,0.00248,0.00134,0.00353,0.0019
				c0.00115,0.00062,0.00232,0.00125,0.00346,0.00187c0.0009,0.00049,0.00183,0.00099,0.00273,0.00148
				c0.00143,0.00078,0.00287,0.00156,0.00431,0.00234c0.0009,0.00049,0.00171,0.00093,0.00261,0.00142
				c0.00143,0.00078,0.00294,0.0016,0.00438,0.00238c0.0009,0.00049,0.00168,0.00092,0.00258,0.0014
				c0.00147,0.0008,0.00295,0.00161,0.00441,0.00241c0.00089,0.00049,0.00174,0.00095,0.00263,0.00144
				c0.00143,0.00078,0.00286,0.00157,0.00429,0.00235c0.00104,0.00057,0.00166,0.00091,0.0027,0.00148
				c0.00143,0.00078,0.00288,0.00158,0.00431,0.00237c0.00089,0.00049,0.00173,0.00095,0.00263,0.00145
				c0.00128,0.00071,0.00259,0.00143,0.00388,0.00214c0.00089,0.00049,0.00212,0.00117,0.00302,0.00167
				c0.00121,0.00067,0.00238,0.00132,0.0036,0.00199c0.00104,0.00058,0.00239,0.00133,0.00343,0.0019
				c0.00103,0.00057,0.00204,0.00113,0.00307,0.00171c0.00134,0.00074,0.00252,0.0014,0.00386,0.00215
				c0.001,0.00056,0.00204,0.00113,0.00303,0.00169c0.00119,0.00066,0.00265,0.00148,0.00384,0.00214
				c0.001,0.00056,0.00197,0.0011,0.00297,0.00166c0.00119,0.00066,0.00261,0.00146,0.00379,0.00212
				c0.00103,0.00058,0.00215,0.0012,0.00318,0.00178c0.00118,0.00066,0.00234,0.00131,0.00352,0.00198
				c0.00114,0.00064,0.00221,0.00124,0.00334,0.00188c0.00104,0.00058,0.00201,0.00113,0.00305,0.00171
				c0.00131,0.00074,0.00261,0.00147,0.00392,0.00221c0.00089,0.0005,0.00179,0.00101,0.00268,0.00151
				c0.00142,0.0008,0.00282,0.0016,0.00424,0.0024c0.00089,0.0005,0.00182,0.00103,0.0027,0.00153
				c0.00138,0.00078,0.00274,0.00155,0.00411,0.00234c0.00089,0.0005,0.00192,0.00109,0.0028,0.00159
				c0.00138,0.00078,0.00278,0.00158,0.00416,0.00237c0.00103,0.00059,0.00171,0.00097,0.00274,0.00156
				c0.00138,0.00079,0.00276,0.00158,0.00414,0.00236c0.00088,0.0005,0.00191,0.00109,0.00279,0.0016
				c0.00117,0.00067,0.00231,0.00132,0.00347,0.00199c0.00118,0.00068,0.00226,0.0013,0.00344,0.00198
				c0.00095,0.00055,0.00193,0.00111,0.00288,0.00165c0.00132,0.00076,0.00263,0.00152,0.00395,0.00228
				c0.00102,0.00059,0.00198,0.00114,0.003,0.00173c0.00132,0.00076,0.0025,0.00144,0.00382,0.00221
				c0.00095,0.00055,0.00191,0.0011,0.00285,0.00165c0.00117,0.00068,0.00274,0.00159,0.00391,0.00227
				c0.00102,0.00059,0.002,0.00116,0.00302,0.00175c0.00132,0.00077,0.00245,0.00142,0.00376,0.00219
				c0.00098,0.00057,0.00194,0.00113,0.00293,0.0017c0.00132,0.00077,0.00247,0.00144,0.00379,0.00221
				c0.00105,0.00061,0.00211,0.00123,0.00316,0.00185c0.00117,0.00068,0.0021,0.00123,0.00327,0.00191
				c0.00116,0.00068,0.0023,0.00135,0.00345,0.00202c0.00102,0.0006,0.00205,0.0012,0.00307,0.0018
				c0.0013,0.00076,0.0025,0.00147,0.00379,0.00223c0.00102,0.0006,0.00177,0.00104,0.00279,0.00164
				c0.00133,0.00078,0.00263,0.00155,0.00396,0.00233c0.00087,0.00052,0.00201,0.00119,0.00288,0.0017
				c0.00136,0.00081,0.0027,0.00159,0.00406,0.0024c0.00087,0.00052,0.00183,0.00109,0.00271,0.00161
				c0.00136,0.00081,0.00267,0.00159,0.00403,0.00239c0.00102,0.00061,0.00182,0.00108,0.00283,0.00169
				c0.00126,0.00075,0.00258,0.00154,0.00384,0.00228c0.00102,0.00061,0.00187,0.00112,0.00289,0.00172
				c0.00105,0.00062,0.00213,0.00127,0.00318,0.0019c0.00131,0.00078,0.00227,0.00136,0.00358,0.00214
				c0.00108,0.00065,0.00219,0.00131,0.00326,0.00196c0.00116,0.0007,0.00231,0.00138,0.00347,0.00208
				c0.00097,0.00058,0.00194,0.00117,0.00291,0.00175c0.0013,0.00078,0.00261,0.00157,0.00392,0.00236
				c0.00094,0.00056,0.00188,0.00113,0.00282,0.0017c0.0013,0.00079,0.00259,0.00156,0.00389,0.00235
				c0.00094,0.00057,0.00182,0.0011,0.00276,0.00167c0.00116,0.0007,0.0026,0.00157,0.00376,0.00227
				c0.00107,0.00065,0.00212,0.00129,0.0032,0.00194c0.00087,0.00053,0.0019,0.00115,0.00277,0.00168
				c0.00132,0.0008,0.00262,0.00159,0.00393,0.00239c0.00087,0.00053,0.00172,0.00105,0.00259,0.00158
				c0.00135,0.00082,0.00274,0.00167,0.00409,0.00249c0.00101,0.00062,0.00165,0.00101,0.00266,0.00162
				c0.00138,0.00085,0.00271,0.00166,0.00409,0.00251c0.00086,0.00053,0.0018,0.00111,0.00267,0.00164
				c0.00138,0.00085,0.00271,0.00166,0.00409,0.00251c0.00086,0.00053,0.00175,0.00108,0.00262,0.00161
				c0.00134,0.00083,0.00274,0.00168,0.00408,0.00251c0.00101,0.00062,0.00172,0.00106,0.00273,0.00168
				c0.0011,0.00068,0.00226,0.00139,0.00336,0.00208c0.00115,0.00071,0.00228,0.00141,0.00343,0.00212
				c0.00089,0.00055,0.00188,0.00116,0.00277,0.00172c0.00129,0.0008,0.00267,0.00166,0.00396,0.00246
				c0.00089,0.00056,0.00184,0.00114,0.00273,0.0017c0.00129,0.0008,0.00253,0.00157,0.00382,0.00238
				c0.00096,0.0006,0.00192,0.0012,0.00288,0.0018c0.00129,0.0008,0.00263,0.00164,0.00392,0.00245
				c0.00086,0.00054,0.00166,0.00104,0.00252,0.00157c0.00143,0.0009,0.00277,0.00174,0.0042,0.00263
				c0.00079,0.00049,0.00164,0.00103,0.00242,0.00152c0.00157,0.00099,0.00277,0.00174,0.00434,0.00273
				c0.00075,0.00047,0.00154,0.00097,0.0023,0.00145c0.00143,0.0009,0.00273,0.00172,0.00415,0.00262
				c0.00089,0.00056,0.00169,0.00107,0.00258,0.00163c0.00128,0.00081,0.00291,0.00184,0.00419,0.00265
				c0.00082,0.00052,0.00162,0.00102,0.00244,0.00154c0.00128,0.00081,0.00242,0.00153,0.0037,0.00235
				c0.00099,0.00063,0.00196,0.00125,0.00295,0.00188c0.001,0.00063,0.0021,0.00134,0.0031,0.00197
				c0.00116,0.00074,0.0024,0.00153,0.00356,0.00227c0.00099,0.00063,0.00203,0.00129,0.00302,0.00193
				c0.00126,0.0008,0.0025,0.0016,0.00376,0.0024c0.00099,0.00064,0.00191,0.00122,0.0029,0.00186
				c0.00099,0.00063,0.00198,0.00127,0.00296,0.0019c0.00128,0.00082,0.00244,0.00157,0.00372,0.00239
				c0.00075,0.00048,0.00158,0.00101,0.00232,0.00149c0.00156,0.001,0.00283,0.00182,0.00439,0.00282
				c0.00071,0.00046,0.00141,0.00091,0.00212,0.00137c0.00141,0.00091,0.00297,0.00192,0.00438,0.00283
				c0.00081,0.00053,0.00158,0.00102,0.00239,0.00154c0.00127,0.00082,0.00293,0.0019,0.0042,0.00272
				c0.00075,0.00048,0.00151,0.00098,0.00226,0.00146c0.00155,0.00101,0.003,0.00195,0.00455,0.00296
				c0.00064,0.00042,0.00125,0.00081,0.00189,0.00123c0.00155,0.00101,0.00307,0.002,0.00463,0.00302
				c0.00068,0.00044,0.00144,0.00094,0.00211,0.00138c0.00141,0.00092,0.00267,0.00174,0.00407,0.00266
				c0.00084,0.00055,0.00177,0.00116,0.00261,0.00171c0.00113,0.00074,0.00256,0.00168,0.00368,0.00241
				c0.00094,0.00062,0.00191,0.00125,0.00285,0.00187c0.00126,0.00083,0.0025,0.00164,0.00376,0.00247
				c0.00091,0.0006,0.00183,0.00121,0.00274,0.00181c0.00098,0.00065,0.00208,0.00137,0.00306,0.00202
				c0.00114,0.00076,0.00237,0.00156,0.00351,0.00232c0.00112,0.00074,0.00194,0.00129,0.00307,0.00203
				c0.00118,0.00078,0.00237,0.00157,0.00354,0.00235c0.00098,0.00065,0.00204,0.00135,0.00302,0.002
				c0.00084,0.00056,0.00169,0.00112,0.00253,0.00168c0.0014,0.00093,0.00271,0.0018,0.0041,0.00273
				c0.0006,0.0004,0.00128,0.00086,0.00189,0.00126c0.00168,0.00112,0.00307,0.00205,0.00475,0.00317
				c0.0006,0.0004,0.00121,0.00081,0.00181,0.00121c0.00154,0.00103,0.00313,0.00209,0.00466,0.00312
				c0.00067,0.00045,0.00136,0.00091,0.00203,0.00136c0.00153,0.00103,0.00288,0.00193,0.00441,0.00296
				c0.00073,0.00049,0.00143,0.00096,0.00216,0.00146c0.00153,0.00103,0.00303,0.00204,0.00456,0.00308
				c0.00057,0.00038,0.00116,0.00078,0.00172,0.00116c0.00153,0.00103,0.00324,0.00219,0.00477,0.00322
				c0.00063,0.00043,0.00125,0.00085,0.00189,0.00128c0.00153,0.00103,0.00314,0.00213,0.00467,0.00317
				c0.0006,0.00041,0.00115,0.00078,0.00175,0.00119c0.00167,0.00113,0.00308,0.0021,0.00475,0.00323
				c0.00063,0.00043,0.00121,0.00082,0.00184,0.00125c0.00166,0.00113,0.0034,0.00232,0.00506,0.00345
				c0.00043,0.00029,0.00089,0.0006,0.00132,0.0009c0.0018,0.00123,0.00359,0.00245,0.00539,0.00368
				c0.0004,0.00027,0.0008,0.00054,0.00119,0.00082c0.00332,0.00228,0.00638,0.00438,0.0097,0.00666
				c0.0007,0.00048,0.00141,0.00097,0.0021,0.00145c0.00138,0.00095,0.00304,0.00209,0.00442,0.00305
				c0.0004,0.00027,0.00084,0.00058,0.00123,0.00085c0.00179,0.00124,0.00363,0.00251,0.00542,0.00375
				c0.0003,0.00021,0.00061,0.00042,0.00091,0.00063c0.00179,0.00124,0.00376,0.0026,0.00554,0.00385
				c0.00036,0.00025,0.00072,0.0005,0.00109,0.00076c0.00179,0.00124,0.00362,0.00252,0.00541,0.00376
				c0.00039,0.00028,0.00076,0.00053,0.00116,0.00081c0.00179,0.00125,0.00372,0.0026,0.00551,0.00385
				c0.00026,0.00018,0.0005,0.00035,0.00076,0.00053c0.00192,0.00134,0.00384,0.00269,0.00576,0.00404
				c0.00026,0.00018,0.00057,0.0004,0.00083,0.00058c0.00178,0.00125,0.00376,0.00264,0.00554,0.00389
				c0.00033,0.00023,0.00067,0.00047,0.001,0.0007c0.00178,0.00125,0.00361,0.00254,0.00539,0.0038
				c0.00039,0.00028,0.00078,0.00055,0.00118,0.00083c0.00178,0.00126,0.00348,0.00246,0.00525,0.00371
				c0.00036,0.00026,0.00078,0.00055,0.00114,0.0008c0.00219,0.00155,0.0042,0.00298,0.00638,0.00453
				c0.00003,0.00002-0.00001-0.00001,0.00002,0.00001c0.00327,0.00233,0.00654,0.00465,0.00981,0.00698
				c0.00003,0.00002,0.0001,0.00007,0.00014,0.0001c0.00218,0.00156,0.00405,0.00289,0.00623,0.00445
				c0.00033,0.00023,0.00073,0.00052,0.00105,0.00075c0.00177,0.00127,0.00363,0.0026,0.0054,0.00387
				c0.00039,0.00028,0.00071,0.00051,0.0011,0.00079c0.00177,0.00127,0.00347,0.00249,0.00524,0.00377
				c0.00046,0.00033,0.00092,0.00066,0.00137,0.00099c0.00176,0.00127,0.00332,0.0024,0.00509,0.00367
				c0.00042,0.00031,0.00083,0.0006,0.00125,0.00091c0.00163,0.00118,0.00344,0.00248,0.00506,0.00366
				c0.00049,0.00035,0.00094,0.00068,0.00143,0.00104c0.00162,0.00118,0.00344,0.0025,0.00506,0.00367
				c0.00039,0.00028,0.00082,0.0006,0.00121,0.00088c0.00176,0.00128,0.00339,0.00246,0.00514,0.00374
				c0.00042,0.00031,0.00085,0.00062,0.00127,0.00093c0.00175,0.00128,0.00362,0.00264,0.00537,0.00392
				c0.00029,0.00021,0.0006,0.00044,0.0009,0.00065c0.00175,0.00128,0.00385,0.00282,0.0056,0.0041
				c0.00026,0.00019,0.00052,0.00038,0.00078,0.00057c0.00202,0.00148,0.00401,0.00294,0.00603,0.00443
				c0.0001,0.00007,0.00022,0.00016,0.00032,0.00023c0.00538,0.00396,0.01059,0.0078,0.01595,0.01178
				c0.00039,0.00029,0.0007,0.00052,0.00109,0.00081c0.00174,0.00129,0.00352,0.00261,0.00526,0.00391
				c0.00035,0.00026,0.00067,0.0005,0.00102,0.00076c0.00174,0.0013,0.00356,0.00265,0.0053,0.00395
				c0.00035,0.00026,0.00075,0.00056,0.0011,0.00082c0.00174,0.0013,0.00355,0.00265,0.00529,0.00395
				c0.00032,0.00024,0.0006,0.00045,0.00093,0.00069c0.00187,0.0014,0.00347,0.00259,0.00533,0.004
				c0.00038,0.00029,0.0007,0.00053,0.00109,0.00081c0.00187,0.0014,0.00348,0.00261,0.00535,0.00402
				c0.00029,0.00022,0.00058,0.00044,0.00087,0.00065c0.00187,0.0014,0.00369,0.00278,0.00556,0.00419
				c0.00026,0.00019,0.00045,0.00034,0.0007,0.00053c0.00186,0.00141,0.00368,0.00278,0.00554,0.00419
				c0.00026,0.00019,0.00057,0.00043,0.00083,0.00063c0.00186,0.00141,0.00398,0.00302,0.00584,0.00443
				c0.00013,0.0001,0.00023,0.00018,0.00036,0.00027c0.00199,0.00151,0.00406,0.00308,0.00604,0.0046
				c0.0001,0.00007,0.0002,0.00015,0.00029,0.00022c0.00955,0.00727,0.01901,0.01453,0.0285,0.02186
				c0.00003,0.00002,0.00005,0.00004,0.00008,0.00006c0.00211,0.00163,0.004,0.00309,0.00611,0.00472
				c0.00016,0.00012,0.00031,0.00024,0.00046,0.00036c0.00184,0.00143,0.00395,0.00306,0.00579,0.00449
				c0.00019,0.00015,0.00033,0.00026,0.00052,0.0004c0.00184,0.00143,0.00374,0.0029,0.00558,0.00434
				c0.00028,0.00022,0.00058,0.00045,0.00086,0.00067c0.00184,0.00143,0.00372,0.0029,0.00556,0.00434
				c0.00016,0.00012,0.00037,0.00029,0.00053,0.00041c0.00183,0.00144,0.00389,0.00304,0.00572,0.00448
				c0.00019,0.00015,0.00034,0.00027,0.00053,0.00041c0.01362,0.01068,0.02701,0.02128,0.04052,0.03207
				c0.00003,0.00002-0.00002-0.00002,0.00001,0c0.00208,0.00166,0.00414,0.00331,0.00621,0.00497
				c0.00003,0.00002,0.00001,0.00001,0.00004,0.00003c0.00208,0.00166,0.00407,0.00327,0.00615,0.00493
				c0.00006,0.00005,0.00005,0.00004,0.00011,0.00009c0.00414,0.00333,0.00812,0.00654,0.01225,0.00988
				c0.00006,0.00005,0.00011,0.00009,0.00017,0.00014c0.00194,0.00157,0.00397,0.00322,0.00591,0.00479
				c0.00009,0.00008,0.00024,0.00019,0.00033,0.00027c0.00413,0.00335,0.0081,0.00658,0.01222,0.00994
				c0.00003,0.00002,0.00001,0.00001,0.00004,0.00003c0.00926,0.00756,0.01846,0.01512,0.02766,0.02273
				c0.00006,0.00005,0.00005,0.00004,0.00011,0.00009c0.00409,0.00338,0.00802,0.00665,0.0121,0.01004
				c0.00006,0.00005,0.0001,0.00008,0.00016,0.00013c0.00204,0.0017,0.00395,0.00329,0.00598,0.00499
				c0.00003,0.00002,0.00005,0.00004,0.00008,0.00007c0.00204,0.0017,0.00385,0.00322,0.00589,0.00492
				c0.00009,0.00008,0.00023,0.00019,0.00032,0.00027c0.00204,0.0017,0.00391,0.00327,0.00594,0.00498L19.234,1.34464
				c0.00279,0.00235,0.00558,0.00469,0.00836,0.00704l-0.32233,0.38223c-0.46005-0.38794-0.98933-0.69192-1.57316-0.90347
				C17.34687,0.83044,17.51721,0.36035,17.51721,0.36035z M20.48753,2.90023c0.30218,0.58657,0.48168,1.23469,0.50885,1.91772
				l-0.4996,0.01988c-0.02369-0.59532-0.17635-1.17018-0.45373-1.70862L20.48753,2.90023z M20.18078,6.57608l0.46084,0.19398
				c-0.04018,0.09545-0.08351,0.18951-0.12988,0.28207l-0.00001,0.00002c-0.0023,0.00459-0.00462,0.0092-0.00693,0.01378
				c-0.00007,0.00014-0.00002,0.00005-0.0001,0.00019c-0.00056,0.00112-0.00112,0.00221-0.00168,0.00333l-0.00002,0.00003
				c-0.00056,0.00112-0.00112,0.00221-0.00169,0.00333c-0.00007,0.00014-0.00008,0.00017-0.00016,0.00031
				c-0.00051,0.00101-0.00104,0.00204-0.00155,0.00305c-0.00007,0.00014-0.0002,0.00039-0.00027,0.00054
				c-0.00048,0.00094-0.00094,0.00185-0.00142,0.00278c-0.00014,0.00029-0.00029,0.00057-0.00044,0.00086
				c-0.00048,0.00094-0.00095,0.00186-0.00143,0.0028c-0.00007,0.00014-0.00011,0.00021-0.00018,0.00036
				c-0.00051,0.00101-0.00103,0.00201-0.00154,0.00302c-0.00007,0.00014-0.00024,0.00048-0.00032,0.00062
				c-0.00048,0.00094-0.00096,0.00187-0.00144,0.00281c-0.00007,0.00014-0.00026,0.00051-0.00033,0.00065
				c-0.00044,0.00086-0.00091,0.00178-0.00136,0.00264c-0.00022,0.00043-0.00031,0.00061-0.00053,0.00104
				c-0.00043,0.00083-0.00085,0.00166-0.00128,0.00248c-0.00007,0.00014-0.00035,0.00067-0.00042,0.00082
				c-0.00044,0.00086-0.00089,0.00174-0.00134,0.0026c-0.00015,0.00029-0.00037,0.00071-0.00052,0.001
				c-0.00039,0.00075-0.00081,0.00158-0.0012,0.00233c-0.00022,0.00043-0.00041,0.0008-0.00064,0.00123
				c-0.00035,0.00068-0.00073,0.00141-0.00108,0.00209c-0.00022,0.00043-0.00055,0.00106-0.00077,0.00149
				c-0.00035,0.00068-0.00071,0.00138-0.00107,0.00206c-0.00022,0.00043-0.00038,0.00073-0.0006,0.00116
				c-0.00039,0.00075-0.00081,0.00155-0.0012,0.00231c-0.00022,0.00043-0.00044,0.00085-0.00067,0.00128
				c-0.00035,0.00068-0.0007,0.00135-0.00106,0.00203c-0.00023,0.00043-0.00053,0.00102-0.00075,0.00145
				c-0.00035,0.00068-0.00066,0.00128-0.00102,0.00196c-0.0003,0.00057-0.00051,0.00099-0.00081,0.00156
				c-0.00034,0.00065-0.00069,0.00132-0.00103,0.00197c-0.00022,0.00043-0.00045,0.00086-0.00067,0.00129
				c-0.00038,0.00072-0.00074,0.00141-0.00111,0.00213c-0.0003,0.00057-0.00048,0.00091-0.00078,0.00148
				c-0.00032,0.00061-0.00065,0.00124-0.00097,0.00185c-0.0003,0.00057-0.00055,0.00105-0.00085,0.00162
				C20.4702,7.1331,20.46992,7.13362,20.4696,7.13423C20.4693,7.1348,20.46897,7.13542,20.46867,7.136
				c-0.0003,0.00057-0.00063,0.0012-0.00093,0.00177c-0.0003,0.00057-0.00049,0.00093-0.00079,0.0015
				c-0.00034,0.00064-0.00067,0.00127-0.00101,0.00191c-0.0003,0.00057-0.00056,0.00105-0.00086,0.00162
				c-0.00032,0.00061-0.00065,0.00123-0.00097,0.00184c-0.0003,0.00057-0.00052,0.00098-0.00082,0.00155
				c-0.0003,0.00057-0.00062,0.00118-0.00093,0.00175c-0.0003,0.00057-0.0007,0.00132-0.001,0.00189
				c-0.00027,0.0005-0.00053,0.001-0.00079,0.0015c-0.0003,0.00057-0.00069,0.00131-0.001,0.00188
				c-0.00027,0.0005-0.00052,0.00098-0.00078,0.00148c-0.00038,0.00071-0.00077,0.00145-0.00115,0.00216
				c-0.00021,0.00039-0.00042,0.00079-0.00063,0.00118c-0.00038,0.00071-0.00077,0.00145-0.00115,0.00216
				c-0.00023,0.00043-0.00044,0.00083-0.00067,0.00126c-0.00038,0.00071-0.00079,0.00148-0.00117,0.00219
				c-0.00023,0.00043-0.00049,0.00092-0.00072,0.00135c-0.00031,0.00057-0.0007,0.00131-0.00101,0.00188
				c-0.00027,0.0005-0.00056,0.00104-0.00083,0.00154c-0.00031,0.00057-0.0008,0.0015-0.00111,0.00207
				c-0.00021,0.00039-0.00046,0.00086-0.00067,0.00125c-0.00046,0.00085-0.00072,0.00134-0.00118,0.00219
				c-0.00019,0.00036-0.00042,0.00079-0.00062,0.00115c-0.00046,0.00085-0.00086,0.00159-0.00132,0.00244
				c-0.00017,0.00032-0.00031,0.00057-0.00048,0.00089c-0.00046,0.00085-0.00084,0.00157-0.0013,0.00242
				c-0.00019,0.00036-0.00038,0.0007-0.00057,0.00105c-0.00046,0.00085-0.00088,0.00162-0.00134,0.00247
				c-0.00015,0.00028-0.0003,0.00056-0.00046,0.00085c-0.00046,0.00085-0.00095,0.00175-0.00141,0.0026
				c-0.00013,0.00025-0.00027,0.00049-0.0004,0.00074c-0.00046,0.00085-0.00104,0.00192-0.0015,0.00277
				c-0.0001,0.00018-0.00022,0.00041-0.00032,0.00059c-0.00046,0.00085-0.001,0.00184-0.00146,0.0027
				c-0.00015,0.00028-0.00027,0.0005-0.00043,0.00078c-0.00046,0.00085-0.00106,0.00194-0.00152,0.00279
				c-0.00008,0.00014-0.00018,0.00033-0.00026,0.00047c-0.00054,0.00099-0.00108,0.00199-0.00163,0.00298
				c-0.00008,0.00014-0.00011,0.00021-0.00019,0.00035c-0.00062,0.00113-0.00113,0.00207-0.00175,0.0032l-0.00004,0.00007
				c-0.00062,0.00113-0.00112,0.00205-0.00174,0.00318c-0.00008,0.00014-0.00012,0.00021-0.00019,0.00036
				c-0.00062,0.00113-0.00113,0.00206-0.00175,0.00319L20.4278,7.21202c-0.00062,0.00113-0.00122,0.00222-0.00184,0.00335
				l-0.00001,0.00002c-0.00125,0.00226-0.00243,0.00441-0.00368,0.00667c-0.00004,0.00007-0.00008,0.00014-0.00012,0.00021
				c-0.00063,0.00113-0.00119,0.00215-0.00182,0.00328l0,0c-0.00188,0.00339-0.00374,0.00674-0.00562,0.01013
				c-0.00002,0.00004-0.00002,0.00004-0.00004,0.00007c-0.00251,0.00452-0.00501,0.00898-0.00754,0.01349l-0.00001,0.00002
				c-0.18204,0.32454-0.40218,0.62871-0.65525,0.90791c-0.00003,0.00003-0.00006,0.00007-0.00009,0.0001
				c-0.00176,0.00194-0.00347,0.00382-0.00523,0.00576c-0.00003,0.00003-0.00001,0.00001-0.00004,0.00004
				c-0.00165,0.00182-0.00331,0.00363-0.00496,0.00545c-0.00014,0.00015-0.00028,0.00031-0.00042,0.00046
				c-0.00077,0.00085-0.00151,0.00166-0.00229,0.00251c-0.00011,0.00012-0.00021,0.00023-0.00032,0.00035
				c-0.00077,0.00084-0.00144,0.00157-0.00221,0.00242C19.73615,8.17444,19.736,8.1746,19.73584,8.17479
				c-0.00077,0.00084-0.00147,0.00161-0.00225,0.00246c-0.00011,0.00012-0.00027,0.00029-0.00038,0.00041
				c-0.00066,0.00072-0.00119,0.0013-0.00186,0.00202c-0.00031,0.00033-0.00066,0.00072-0.00097,0.00105
				c-0.00055,0.0006-0.00114,0.00124-0.00169,0.00184c-0.00031,0.00033-0.00059,0.00064-0.00089,0.00097
				c-0.00044,0.00048-0.00121,0.00131-0.00165,0.00179c-0.00036,0.00039-0.00074,0.00081-0.0011,0.0012
				c-0.00056,0.0006-0.0011,0.00119-0.00166,0.0018c-0.00031,0.00033-0.0006,0.00066-0.00091,0.00099
				c-0.00056,0.0006-0.00114,0.00124-0.0017,0.00184c-0.00036,0.00039-0.00069,0.00075-0.00105,0.00114
				c-0.00056,0.0006-0.00116,0.00126-0.00171,0.00186c-0.00031,0.00033-0.00056,0.00061-0.00087,0.00094
				c-0.00056,0.0006-0.00133,0.00144-0.00189,0.00204c-0.00028,0.0003-0.00052,0.00056-0.0008,0.00086
				c-0.00056,0.0006-0.00133,0.00144-0.00189,0.00204c-0.00025,0.00027-0.00051,0.00056-0.00076,0.00083
				c-0.00056,0.0006-0.00115,0.00124-0.00171,0.00184c-0.00036,0.00039-0.00072,0.00077-0.00108,0.00116
				c-0.00056,0.0006-0.00107,0.00115-0.00163,0.00175c-0.00034,0.00036-0.00064,0.00068-0.00097,0.00105
				c-0.00056,0.0006-0.00114,0.00122-0.0017,0.00182c-0.00034,0.00036-0.00068,0.00073-0.00102,0.00109
				c-0.00056,0.0006-0.00129,0.00139-0.00185,0.00199c-0.00025,0.00027-0.0005,0.00053-0.00075,0.0008
				c-0.00067,0.00072-0.00102,0.0011-0.00169,0.00181c-0.00039,0.00042-0.00076,0.00081-0.00115,0.00123
				c-0.00045,0.00048-0.00102,0.00109-0.00146,0.00156c-0.00036,0.00039-0.00078,0.00084-0.00115,0.00123
				c-0.00056,0.0006-0.00107,0.00114-0.00163,0.00174c-0.00036,0.00039-0.00073,0.00078-0.00109,0.00117
				c-0.00056,0.0006-0.00118,0.00126-0.00174,0.00186c-0.00028,0.0003-0.00057,0.00061-0.00085,0.00091
				c-0.00045,0.00048-0.00121,0.00129-0.00166,0.00176c-0.00039,0.00042-0.00082,0.00087-0.00121,0.00129
				c-0.00045,0.00048-0.00083,0.00088-0.00128,0.00136c-0.00048,0.00051-0.00092,0.00098-0.0014,0.00148
				c-0.00045,0.00048-0.00094,0.00099-0.00138,0.00147c-0.00045,0.00048-0.00085,0.0009-0.0013,0.00138
				c-0.00045,0.00048-0.00096,0.00102-0.00141,0.00149s-0.00085,0.0009-0.0013,0.00138
				c-0.00045,0.00048-0.00079,0.00083-0.00124,0.00131c-0.00054,0.00057-0.00106,0.00112-0.0016,0.00169
				c-0.00034,0.00036-0.0006,0.00063-0.00093,0.00099c-0.00059,0.00063-0.00114,0.00121-0.00173,0.00183
				c-0.00034,0.00036-0.00067,0.0007-0.00101,0.00106c-0.00056,0.0006-0.00118,0.00124-0.00174,0.00184
				c-0.00034,0.00036-0.00063,0.00066-0.00097,0.00102c-0.00057,0.0006-0.00113,0.00119-0.00169,0.00178
				c-0.00034,0.00036-0.00066,0.00069-0.001,0.00105c-0.00062,0.00066-0.00121,0.00128-0.00184,0.00193
				c-0.00023,0.00024-0.00049,0.00051-0.00072,0.00075c-0.00065,0.00068-0.00127,0.00134-0.00193,0.00202
				c-0.00034,0.00036-0.00057,0.0006-0.00091,0.00095c-0.00062,0.00065-0.00124,0.0013-0.00186,0.00195
				c-0.00023,0.00024-0.00051,0.00053-0.00073,0.00077c-0.00068,0.00071-0.00135,0.00141-0.00203,0.00212
				c-0.00011,0.00012-0.00046,0.00048-0.00057,0.0006c-0.00074,0.00077-0.00153,0.0016-0.00227,0.00237
				c-0.00011,0.00012-0.0001,0.00011-0.00022,0.00023c-0.00082,0.00086-0.00165,0.00172-0.00247,0.00258
				c-0.00011,0.00012-0.00025,0.00026-0.00036,0.00038c-0.0008,0.00083-0.00159,0.00165-0.00238,0.00248
				c-0.00011,0.00012-0.00021,0.00022-0.00032,0.00034c-0.0008,0.00083-0.00158,0.00165-0.00238,0.00247
				c-0.00011,0.00012-0.00025,0.00026-0.00036,0.00037c-0.00171,0.00178-0.00347,0.0036-0.00518,0.00537
				c-0.00011,0.00012-0.00007,0.00007-0.00018,0.00019c-0.04198,0.0435-0.08474,0.08631-0.12834,0.12847l-0.34759-0.35941
				C19.60986,7.61463,19.95166,7.12043,20.18078,6.57608z M17.65622,9.04649l0.1992,0.45861
				c-0.59334,0.25772-1.24517,0.42338-1.93295,0.47642L15.88402,9.483C16.50306,9.43525,17.09932,9.28838,17.65622,9.04649z
				 M11.92285,9.5h2V10h-2V9.5z M7.92285,9.5h2V10h-2V9.5z M4.07354,9.30283C4.55272,9.43366,5.05244,9.5,5.55882,9.5h0.36403V10
				H5.55882c-0.00196,0-0.00389,0-0.00585,0c-0.00056,0-0.00099,0-0.00155,0c-0.00175,0-0.00351,0-0.00526-0.00001
				c-0.00019,0-0.00047,0-0.00065,0c-0.00196,0-0.00386-0.00001-0.00582-0.00002c-0.00056,0-0.00096,0-0.00152,0
				c-0.00158,0-0.00324-0.00001-0.00482-0.00002c-0.00037,0-0.00081,0-0.00118,0C5.53025,9.99994,5.52836,9.99993,5.52644,9.99992
				c-0.00037,0-0.00104-0.00001-0.00141-0.00001C5.52341,9.9999,5.52185,9.99989,5.52024,9.99988
				c-0.00037,0-0.00099-0.00001-0.00136-0.00001C5.517,9.99986,5.51508,9.99985,5.5132,9.99984
				c-0.00056,0-0.00085-0.00001-0.00141-0.00001C5.51021,9.99981,5.50869,9.9998,5.50711,9.99979
				c-0.00056,0-0.0009-0.00001-0.00146-0.00001C5.50377,9.99976,5.50186,9.99974,5.49997,9.99973
				c-0.00037,0-0.00097-0.00001-0.00134-0.00001C5.49706,9.9997,5.49554,9.99968,5.49397,9.99967
				c-0.00037,0-0.00122-0.00001-0.0016-0.00002C5.49042,9.99963,5.48849,9.99961,5.48654,9.99959
				c-0.00019,0-0.00031,0-0.00049-0.00001C5.4843,9.99956,5.4825,9.99954,5.48075,9.99952
				C5.48019,9.99951,5.47972,9.9995,5.47916,9.9995C5.47724,9.99947,5.47529,9.99945,5.47338,9.99942
				c-0.00019,0-0.00025,0-0.00044-0.00001c-0.00181-0.00002-0.00359-0.00005-0.0054-0.00008
				C5.46698,9.99933,5.46649,9.99932,5.46593,9.99932C5.46411,9.99929,5.46226,9.99926,5.46045,9.99923
				c-0.00019,0-0.00016,0-0.00035,0C5.45822,9.9992,5.45631,9.99917,5.45443,9.99914
				C5.45387,9.99913,5.45328,9.99912,5.45272,9.99911C5.45097,9.99908,5.4492,9.99905,5.44745,9.99902
				c-0.00019,0-0.00034-0.00001-0.00053-0.00001C5.44498,9.99897,5.44306,9.99894,5.44112,9.9989
				C5.44056,9.99889,5.44015,9.99888,5.43959,9.99887C5.43792,9.99884,5.4362,9.99881,5.43453,9.99877
				c-0.00019,0-0.00063-0.00001-0.00082-0.00002c-0.00195-0.00004-0.00385-0.00008-0.0058-0.00012
				C5.42754,9.99863,5.42686,9.99862,5.42649,9.99861C5.42481,9.99858,5.42311,9.99854,5.42144,9.9985
				c-0.00037-0.00001-0.00052-0.00001-0.0009-0.00002C5.41856,9.99844,5.41656,9.99839,5.41458,9.99835
				C5.41421,9.99834,5.41393,9.99833,5.41356,9.99833C5.41186,9.99829,5.41012,9.99825,5.40842,9.99821
				C5.40805,9.9982,5.4077,9.99819,5.40733,9.99818C5.40535,9.99813,5.4034,9.99808,5.40142,9.99803
				c-0.00019,0-0.00068-0.00002-0.00086-0.00002C5.39878,9.99797,5.39697,9.99792,5.3952,9.99788
				C5.39483,9.99787,5.39459,9.99786,5.39422,9.99785C5.39217,9.9978,5.39017,9.99774,5.38813,9.99769L5.3879,9.99768
				C5.386,9.99763,5.38404,9.99757,5.38213,9.99752C5.38176,9.99751,5.38143,9.9975,5.38106,9.99749
				C5.37707,9.99738,5.37302,9.99726,5.36904,9.99714C5.36867,9.99713,5.36824,9.99712,5.36787,9.9971
				C5.36392,9.99698,5.3599,9.99686,5.35595,9.99673C5.3554,9.99671,5.35528,9.99671,5.35472,9.99669
				C5.35285,9.99663,5.35101,9.99657,5.34914,9.99651L5.34877,9.9965c-0.00204-0.00007-0.0041-0.00014-0.00614-0.00021
				C5.34226,9.99627,5.34225,9.99627,5.34187,9.99626C5.33987,9.99619,5.33794,9.99613,5.33593,9.99605
				c-0.00019-0.00001,0,0-0.00019-0.00001C5.33364,9.99597,5.33158,9.9959,5.32947,9.99582
				C5.32929,9.99581,5.3291,9.99581,5.32891,9.9958C5.32694,9.99573,5.32502,9.99566,5.32305,9.99558L5.32259,9.99557
				C5.32049,9.99549,5.31843,9.99541,5.31633,9.99533L5.31598,9.99531c-0.002-0.00008-0.00397-0.00015-0.00597-0.00023
				C5.30982,9.99507,5.30972,9.99507,5.30953,9.99506C5.30539,9.9949,5.30123,9.99473,5.29708,9.99455
				C5.29671,9.99454,5.29673,9.99454,5.29636,9.99452C5.29222,9.99435,5.28809,9.99417,5.28395,9.99399
				C5.28376,9.99399,5.28356,9.99398,5.28337,9.99397C5.27917,9.99378,5.27492,9.99359,5.27072,9.9934L5.2705,9.99339
				C5.26623,9.99319,5.26201,9.993,5.25775,9.99279C5.25756,9.99278,5.25761,9.99278,5.25743,9.99277
				c-0.0042-0.0002-0.00846-0.00041-0.01266-0.00062C5.24458,9.99214,5.24454,9.99214,5.24435,9.99213
				c-0.45061-0.0226-0.88684-0.09347-1.30252-0.20696L4.07354,9.30283z M1.17361,7.24409
				c0.32309,0.49806,0.74466,0.93175,1.253,1.28902L2.1391,8.94218C1.58294,8.5513,1.11162,8.06728,0.75414,7.5162L1.17361,7.24409z
				 M0.19492,3.6828l0.47854,0.14491C0.55836,4.2078,0.5,4.60221,0.5,5c0,0.19693,0.01443,0.39501,0.04289,0.58873L0.04821,5.66141
				C0.02685,5.51605,0.01243,5.3687,0.00527,5.21968c-0.00001-0.00017,0-0.00007-0.00001-0.00024
				C0.00501,5.21431,0.00477,5.20917,0.00455,5.20403L0.00454,5.20386c-0.00007-0.00164-0.00015-0.0033-0.00022-0.00494
				L0.00431,5.19866C0.00416,5.19523,0.00401,5.19183,0.00387,5.1884L0.00387,5.18823
				C0.0038,5.18663,0.00373,5.18501,0.00367,5.18341C0.00366,5.18325,0.00366,5.18305,0.00365,5.18288
				c-0.0002-0.00499-0.00039-0.00997-0.00057-0.01496C0.00307,5.16775,0.00305,5.16715,0.00304,5.16698
				c-0.00005-0.00147-0.00011-0.00293-0.00016-0.0044C0.00288,5.16242,0.00287,5.16232,0.00287,5.16216
				C0.00275,5.15883,0.00264,5.15551,0.00253,5.15218C0.00252,5.15185,0.00251,5.15159,0.00249,5.15126
				C0.00245,5.14994,0.00241,5.14863,0.00237,5.14731C0.00236,5.14698,0.00234,5.14653,0.00233,5.1462
				c-0.0001-0.00328-0.00021-0.00655-0.0003-0.00983C0.00202,5.13604,0.00202,5.13609,0.00201,5.13576
				C0.00197,5.13433,0.00193,5.13289,0.00188,5.13146C0.00187,5.13113,0.00187,5.13088,0.00186,5.13055
				C0.00182,5.12911,0.00178,5.12763,0.00174,5.12619c0-0.00017-0.00001-0.00043-0.00002-0.00059
				C0.00167,5.12392,0.00163,5.12226,0.00159,5.12059l-0.00001-0.0003C0.00154,5.11879,0.0015,5.11731,0.00146,5.11581
				C0.00145,5.11531,0.00145,5.1152,0.00143,5.1147C0.0014,5.11334,0.00137,5.11197,0.00133,5.1106
				c0-0.00017-0.00002-0.00063-0.00002-0.0008C0.00124,5.10654,0.00116,5.10325,0.00109,5.09998
				C0.00108,5.09965,0.00108,5.0993,0.00107,5.09896c-0.00003-0.00127-0.00006-0.00253-0.00008-0.0038
				c-0.00001-0.0005-0.00002-0.00087-0.00003-0.00138c-0.00003-0.00134-0.00006-0.00266-0.00008-0.004
				C0.00087,5.08945,0.00087,5.08935,0.00086,5.08902C0.00083,5.08746,0.0008,5.08593,0.00078,5.08437
				c-0.00001-0.0005-0.00002-0.00102-0.00003-0.00152C0.00073,5.08171,0.00071,5.08059,0.00069,5.07944
				c-0.00001-0.0005-0.00002-0.001-0.00003-0.0015C0.00064,5.07677,0.00062,5.0756,0.0006,5.07442
				C0.0006,5.07409,0.00059,5.07344,0.00058,5.07311C0.00056,5.07152,0.00053,5.06995,0.00051,5.06837
				c0-0.00017-0.00001-0.00061-0.00001-0.00078C0.00048,5.06626,0.00046,5.06494,0.00044,5.06361
				c-0.00001-0.0005-0.00001-0.00103-0.00002-0.00153C0.0004,5.06095,0.00039,5.05982,0.00038,5.05868
				c-0.00001-0.0005-0.00001-0.00093-0.00002-0.00143C0.00034,5.05573,0.00032,5.05421,0.0003,5.05269
				c0-0.00017-0.00001-0.00041-0.00001-0.00058c-0.00002-0.00146-0.00003-0.0029-0.00005-0.00436
				C0.00024,5.04708,0.00024,5.04688,0.00023,5.04621C0.00022,5.04516,0.00021,5.04412,0.0002,5.04307
				c0-0.0005-0.00001-0.00131-0.00002-0.00181C0.00018,5.04008,0.00017,5.03891,0.00016,5.03773
				c-0.00001-0.0005-0.00001-0.0007-0.00001-0.0012C0.00013,5.03496,0.00012,5.03342,0.00011,5.03185
				c0-0.0005-0.00001-0.00081-0.00001-0.00131C0.0001,5.0294,0.00009,5.02824,0.00008,5.0271
				c0-0.00067-0.00001-0.00098-0.00001-0.00165C0.00006,5.02432,0.00006,5.02318,0.00005,5.02204
				c0-0.0005,0-0.00091-0.00001-0.00142C0.00004,5.01905,0.00003,5.01748,0.00003,5.0159c0-0.00017,0-0.00061,0-0.00078
				c0-0.00133-0.00001-0.00263-0.00001-0.00396c0-0.0005,0-0.00103,0-0.00153c0-0.00115-0.00001-0.0023-0.00001-0.00345
				c0-0.00051,0-0.00095,0-0.00145C0,5.00317,0,5.00157,0,5l0,0c0-0.00159,0-0.00319,0-0.00477c0-0.00051,0-0.00104,0-0.00154
				c0-0.00111,0-0.00227,0.00001-0.00338c0-0.00051,0-0.00115,0-0.00165c0-0.00139,0.00001-0.0028,0.00001-0.00419
				c0-0.00017,0-0.00039,0-0.00056c0.00001-0.00158,0.00001-0.00314,0.00002-0.00472c0-0.0005,0.00001-0.00104,0.00001-0.00154
				c0.00001-0.00117,0.00001-0.00229,0.00002-0.00346c0-0.0005,0.00001-0.00103,0.00001-0.00153
				C0.00009,4.97131,0.0001,4.96999,0.00011,4.96866c0-0.00034,0-0.00049,0.00001-0.00083
				c0.00001-0.00156,0.00002-0.00316,0.00004-0.00471c0-0.0005,0.00001-0.00107,0.00001-0.00158
				C0.00017,4.96046,0.00018,4.9594,0.00019,4.95832c0.00001-0.0005,0.00001-0.00137,0.00002-0.00187
				c0.00001-0.00122,0.00002-0.00239,0.00004-0.00361c0-0.00034,0.00001-0.00072,0.00001-0.00106
				c0.00002-0.00158,0.00003-0.00315,0.00005-0.00474c0.00001-0.0005,0.00001-0.00091,0.00002-0.00142
				c0.00001-0.00117,0.00003-0.00229,0.00004-0.00346c0.00001-0.0005,0.00002-0.00114,0.00002-0.00164
				c0.00002-0.00119,0.00003-0.00241,0.00005-0.0036c0.00001-0.00034,0.00001-0.00087,0.00002-0.00121
				C0.00047,4.93413,0.0005,4.93254,0.00052,4.93096c0.00001-0.00034,0.00001-0.00088,0.00002-0.00122
				c0.00002-0.00119,0.00004-0.00241,0.00006-0.0036C0.0006,4.92547,0.00061,4.92515,0.00062,4.92448
				c0.00002-0.00116,0.00004-0.0023,0.00006-0.00347c0.00001-0.0005,0.00001-0.00085,0.00002-0.00136
				c0.00003-0.00152,0.00005-0.00305,0.00008-0.00457C0.0008,4.91442,0.0008,4.91404,0.00082,4.91337
				c0.00002-0.00105,0.00004-0.00208,0.00006-0.00313c0.00001-0.00067,0.00002-0.0012,0.00004-0.00187
				C0.00094,4.9073,0.00096,4.90623,0.00098,4.90518C0.00099,4.90468,0.001,4.90413,0.00101,4.90363
				c0.00003-0.00158,0.00006-0.00312,0.0001-0.0047c0.00001-0.00034,0.00002-0.0007,0.00002-0.00103
				c0.00003-0.00125,0.00006-0.00247,0.00008-0.00372c0.00001-0.0005,0.00003-0.00124,0.00004-0.00174
				c0.00003-0.00108,0.00005-0.00221,0.00008-0.00329c0.00001-0.0005,0.00002-0.00103,0.00004-0.00153
				C0.00141,4.88617,0.00145,4.88474,0.00148,4.8833C0.0015,4.88263,0.00151,4.88221,0.00153,4.88154
				c0.00003-0.00111,0.00006-0.00222,0.00009-0.00332c0.00001-0.0005,0.00003-0.0013,0.00005-0.00181
				C0.00169,4.87539,0.00172,4.87432,0.00175,4.8733C0.00177,4.87263,0.00178,4.87224,0.0018,4.87157
				c0.00004-0.00141,0.00008-0.00284,0.00012-0.00425c0.00002-0.0005,0.00002-0.00076,0.00004-0.00127
				c0.00004-0.00124,0.00007-0.00256,0.00011-0.0038c0.00002-0.00067,0.00004-0.00127,0.00006-0.00194
				c0.00003-0.00097,0.00006-0.00193,0.00009-0.00289c0.00002-0.00067,0.00004-0.0012,0.00006-0.00187
				c0.00004-0.00116,0.00007-0.00227,0.00011-0.00343c0.00003-0.00084,0.00005-0.00141,0.00007-0.00225
				C0.0025,4.84869,0.00254,4.84746,0.00258,4.84627C0.0026,4.8456,0.00262,4.84513,0.00264,4.84446
				c0.00003-0.00102,0.00007-0.00201,0.0001-0.00303c0.00002-0.0005,0.00005-0.00135,0.00006-0.00185
				c0.00004-0.00113,0.00008-0.00223,0.00012-0.00336c0.00002-0.00067,0.00004-0.001,0.00006-0.00167
				c0.00005-0.00138,0.0001-0.00277,0.00015-0.00415C0.00316,4.82972,0.00319,4.829,0.00322,4.82833
				c0.00003-0.00091,0.00007-0.00187,0.0001-0.00278C0.00335,4.82488,0.00337,4.82426,0.0034,4.82359
				c0.00004-0.00108,0.00008-0.0021,0.00012-0.00318c0.00002-0.0005,0.00004-0.0011,0.00006-0.0016
				c0.00006-0.00149,0.00012-0.003,0.00018-0.00448C0.00378,4.81382,0.00381,4.8131,0.00383,4.8126
				C0.00387,4.8116,0.00391,4.81062,0.00396,4.80963c0.00003-0.00067,0.00006-0.00137,0.00008-0.00204
				C0.00408,4.8066,0.00412,4.80561,0.00417,4.80462c0.00003-0.00067,0.00005-0.0011,0.00007-0.00177
				C0.0043,4.80138,0.00437,4.79992,0.00443,4.79846c0.00002-0.0005,0.00006-0.00144,0.00009-0.00194
				C0.00456,4.79558,0.0046,4.79467,0.00464,4.79373c0.00003-0.00067,0.00006-0.00144,0.0001-0.00211
				c0.00004-0.00088,0.00008-0.00183,0.00013-0.00271c0.00003-0.00067,0.00006-0.0014,0.0001-0.00207
				c0.00007-0.00143,0.00013-0.00286,0.0002-0.0043c0.00003-0.00067,0.00006-0.00131,0.0001-0.00198
				C0.0053,4.77966,0.00534,4.77876,0.00539,4.77785C0.00542,4.77718,0.00546,4.77636,0.0055,4.77569
				c0.00004-0.00091,0.00009-0.00182,0.00013-0.00273c0.00004-0.00083,0.00006-0.00121,0.0001-0.00204
				c0.00007-0.0014,0.00014-0.00275,0.00021-0.00416c0.00004-0.00083,0.00008-0.00152,0.00012-0.00236
				c0.00004-0.0008,0.00008-0.00157,0.00012-0.00237c0.00004-0.00083,0.00008-0.00157,0.00013-0.00241
				c0.00004-0.00077,0.00008-0.00155,0.00012-0.00232c0.00004-0.00083,0.00008-0.00156,0.00013-0.0024
				c0.00005-0.00102,0.00011-0.00206,0.00017-0.00307c0.00005-0.001,0.00012-0.00221,0.00018-0.00321
				C0.00695,4.74779,0.007,4.74695,0.00704,4.7461c0.00005-0.00083,0.00008-0.00148,0.00013-0.00231
				c0.00005-0.00082,0.00009-0.00165,0.00014-0.00247c0.00004-0.00067,0.00009-0.0016,0.00013-0.00227
				c0.00005-0.00085,0.0001-0.00178,0.00015-0.00263c0.00007-0.00116,0.00016-0.00268,0.00023-0.00385
				c0.00004-0.00077,0.00009-0.00155,0.00014-0.00232C0.008,4.72943,0.00805,4.72861,0.0081,4.72778
				c0.00004-0.00071,0.00008-0.00141,0.00013-0.00212c0.00005-0.00083,0.00011-0.0018,0.00016-0.00264
				C0.00842,4.7224,0.00846,4.7218,0.0085,4.72117C0.0086,4.71951,0.00868,4.71817,0.00879,4.7165
				c0.00005-0.00071,0.00009-0.00138,0.00013-0.00209c0.00005-0.00083,0.00011-0.00173,0.00016-0.00256
				C0.00912,4.71117,0.00916,4.71049,0.00921,4.7098c0.00005-0.00083,0.00012-0.00184,0.00017-0.00267
				c0.00004-0.00058,0.00007-0.00116,0.00011-0.00174c0.00011-0.00166,0.00022-0.0034,0.00033-0.00506
				C0.00986,4.69976,0.0099,4.69917,0.00993,4.69859C0.01,4.6976,0.01004,4.69694,0.01011,4.69595
				C0.01015,4.69526,0.0102,4.69462,0.01024,4.69394C0.0103,4.69311,0.01037,4.69211,0.01042,4.69128
				c0.00004-0.00063,0.00009-0.0013,0.00013-0.00193c0.0001-0.00149,0.00021-0.00312,0.00032-0.00462
				c0.00005-0.00066,0.00009-0.00135,0.00014-0.00201c0.00007-0.001,0.00011-0.0016,0.00018-0.0026
				c0.00005-0.00068,0.0001-0.00139,0.00015-0.00208C0.0114,4.67722,0.01147,4.67624,0.01153,4.67541
				c0.00004-0.0006,0.00008-0.00118,0.00013-0.00178c0.00015-0.00216,0.00031-0.00432,0.00047-0.00648
				c0-0.00005,0.00001-0.00016,0.00002-0.00021c0.00007-0.00099,0.00015-0.002,0.00022-0.003
				c0.00004-0.00049,0.00007-0.001,0.00011-0.00149C0.01254,4.66146,0.01262,4.66033,0.0127,4.65933
				c0.00003-0.00038,0.00006-0.00074,0.00009-0.00113C0.01303,4.65489,0.0133,4.65144,0.01355,4.64813
				c0.00004-0.00055,0.00008-0.00105,0.00012-0.00159C0.01375,4.64554,0.01383,4.6446,0.0139,4.64361
				c0.00004-0.00049,0.00007-0.00091,0.00011-0.0014c0.00026-0.00331,0.00053-0.0067,0.0008-0.01001
				c0.00004-0.00046,0.00008-0.00099,0.00012-0.00145c0.00008-0.00099,0.00016-0.00197,0.00024-0.00296
				c0.00004-0.00049,0.00008-0.001,0.00012-0.00149C0.01538,4.6253,0.01546,4.62425,0.01554,4.62326
				C0.01555,4.62317,0.01556,4.6231,0.01556,4.62301C0.01575,4.6207,0.01592,4.61869,0.01612,4.61638
				C0.01616,4.61589,0.0162,4.61539,0.01624,4.61489C0.01633,4.6139,0.01641,4.61296,0.01649,4.61197
				C0.01653,4.61148,0.01658,4.61099,0.01662,4.6105C0.0167,4.60951,0.0168,4.60842,0.01688,4.60743
				C0.0169,4.60721,0.01692,4.60702,0.01694,4.6068C0.01712,4.60465,0.0173,4.6026,0.01749,4.60045
				c0.00004-0.00044,0.00007-0.00086,0.00011-0.0013c0.00009-0.00099,0.00018-0.00207,0.00027-0.00306
				c0.00004-0.00044,0.00008-0.0009,0.00012-0.00134C0.0181,4.5936,0.01817,4.59277,0.01828,4.59161
				C0.0183,4.59137,0.01831,4.59119,0.01834,4.59095c0.00019-0.00215,0.0004-0.00446,0.0006-0.0066
				c0.00003-0.00033,0.00006-0.00061,0.00009-0.00094c0.00011-0.00115,0.00019-0.00206,0.0003-0.00322
				c0.00003-0.00035,0.00007-0.00073,0.0001-0.00108C0.01952,4.57795,0.01962,4.5769,0.01973,4.57574
				C0.01974,4.5756,0.01976,4.57544,0.01977,4.5753c0.00022-0.00231,0.00045-0.00484,0.00067-0.00714
				C0.02046,4.568,0.02048,4.56784,0.02049,4.56768C0.0206,4.56652,0.02069,4.56557,0.0208,4.56442
				c0.00004-0.00041,0.00007-0.00077,0.00011-0.00118c0.00011-0.00115,0.00019-0.00203,0.00031-0.00319
				C0.02125,4.55975,0.02129,4.5594,0.02131,4.5591C0.02154,4.5568,0.02175,4.55464,0.02198,4.55233
				c0.00002-0.00016,0.00003-0.00029,0.00004-0.00046c0.00011-0.00115,0.0002-0.00203,0.00032-0.00319
				c0.00004-0.00041,0.00008-0.0008,0.00012-0.00121c0.00012-0.00115,0.00021-0.00206,0.00032-0.00322
				c0.00003-0.0003,0.00006-0.0006,0.00009-0.0009c0.00036-0.00362,0.00071-0.00699,0.00108-0.01061
				c0.00003-0.00033,0.00006-0.00062,0.0001-0.00094C0.02417,4.53065,0.02428,4.5296,0.0244,4.52845
				c0.00003-0.00027,0.00005-0.0005,0.00008-0.00078c0.00038-0.00362,0.00075-0.00714,0.00113-0.01076
				C0.02564,4.51665,0.02567,4.51638,0.0257,4.51611c0.00012-0.00115,0.00024-0.00228,0.00037-0.00343
				c0.00003-0.00024,0.00006-0.00052,0.00008-0.00076C0.02654,4.5083,0.02693,4.5047,0.02733,4.50108
				C0.02736,4.50084,0.02738,4.50064,0.0274,4.50039c0.00013-0.00115,0.00025-0.00223,0.00037-0.00338
				c0.00004-0.00033,0.00007-0.0006,0.0001-0.00093c0.0004-0.00361,0.0008-0.00713,0.00121-0.01074
				c0.00002-0.00022,0.00005-0.00045,0.00008-0.00067c0.00013-0.00115,0.00026-0.00225,0.00039-0.0034
				c0.00003-0.0003,0.00007-0.00062,0.0001-0.00092C0.03007,4.47675,0.0305,4.47303,0.03093,4.46942
				c0.00002-0.00014,0.00003-0.0003,0.00005-0.00043c0.00013-0.00115,0.00026-0.00224,0.0004-0.00339
				c0.00004-0.00032,0.00008-0.00065,0.00012-0.00098C0.03208,4.4597,0.03267,4.45471,0.03327,4.4498
				c0.00003-0.00024,0.00007-0.00055,0.0001-0.00079C0.03397,4.4441,0.03459,4.43908,0.0352,4.43417
				c0.00004-0.0003,0.00007-0.00055,0.00011-0.00085C0.03592,4.42841,0.03657,4.42333,0.0372,4.41843
				c0.00003-0.00024,0.00006-0.00049,0.0001-0.00073c0.00015-0.00114,0.00032-0.00245,0.00046-0.0036l0-0.00001
				c0.00049-0.00376,0.00097-0.00741,0.00146-0.01117c0.00005-0.00035,0.00008-0.00064,0.00013-0.00099
				c0.00015-0.00114,0.00029-0.0022,0.00044-0.00335c0.00003-0.00022,0.00006-0.00041,0.00008-0.00063
				C0.04037,4.39436,0.04086,4.39069,0.04135,4.3871c0.00003-0.00024,0.00006-0.00045,0.0001-0.0007
				C0.0416,4.38527,0.04177,4.38402,0.04192,4.38287c0.00002-0.00016,0.00003-0.00025,0.00006-0.00042
				c0.00049-0.00359,0.00105-0.00762,0.00155-0.0112c0.00002-0.00013,0.00003-0.00023,0.00005-0.00037
				c0.00018-0.0013,0.00033-0.00236,0.00051-0.00366c0.00002-0.00013,0.00004-0.00027,0.00006-0.0004
				c0.0005-0.00359,0.00105-0.00743,0.00156-0.01101C0.04574,4.35562,0.04577,4.35537,0.0458,4.35518
				C0.04599,4.35388,0.04611,4.353,0.0463,4.3517c0.00003-0.00019,0.00006-0.00042,0.00009-0.00061
				C0.0469,4.3475,0.04746,4.34365,0.04799,4.34007c0.00002-0.00013,0.00005-0.00031,0.00006-0.00045
				c0.00019-0.0013,0.00033-0.00225,0.00052-0.00355C0.0486,4.33589,0.04863,4.33571,0.04866,4.33552
				c0.00055-0.00374,0.00113-0.00761,0.00169-0.01134c0-0.00003,0-0.00003,0.00001-0.00005
				C0.05053,4.32298,0.05073,4.32163,0.0509,4.3205C0.05093,4.32031,0.05096,4.3201,0.05099,4.31992
				c0.00056-0.00374,0.00115-0.00758,0.00172-0.01131c0-0.00003,0.00001-0.00006,0.00001-0.00009
				C0.0529,4.30738,0.0531,4.30611,0.05327,4.30497c0.00003-0.00021,0.00007-0.00046,0.0001-0.00067
				c0.00018-0.00114,0.00036-0.00232,0.00054-0.00345c0.00003-0.00019,0.00005-0.00032,0.00008-0.00051
				C0.05455,4.29677,0.05514,4.293,0.05571,4.28943C0.05574,4.28919,0.05577,4.289,0.05581,4.28876
				c0.00018-0.00113,0.00037-0.00234,0.00055-0.00348c0.00002-0.00016,0.00006-0.00035,0.00008-0.00051
				C0.05701,4.2812,0.05758,4.27764,0.05816,4.27408c0.00005-0.00032,0.00011-0.00069,0.00016-0.00101
				C0.05848,4.2721,0.05868,4.27086,0.05884,4.26989C0.05889,4.26956,0.05895,4.2692,0.059,4.26888
				c0.00056-0.0034,0.00113-0.00691,0.00169-0.01031C0.06075,4.25823,0.0608,4.25791,0.06086,4.25756
				c0.00016-0.00097,0.00035-0.00213,0.00051-0.0031C0.06145,4.254,0.06152,4.25359,0.0616,4.25314
				C0.06214,4.2499,0.06271,4.2465,0.06325,4.24326c0.00007-0.00043,0.00015-0.00088,0.00022-0.0013
				c0.00016-0.00097,0.00032-0.00188,0.00048-0.00285c0.0001-0.00056,0.00019-0.00113,0.00029-0.00169
				C0.06479,4.23419,0.0653,4.23123,0.06586,4.228c0.00009-0.00051,0.00018-0.00105,0.00027-0.00156
				C0.06629,4.22547,0.06644,4.22464,0.0666,4.22367C0.0667,4.22311,0.0668,4.22254,0.0669,4.22198
				c0.00056-0.00323,0.00111-0.00639,0.00168-0.00961c0.00008-0.00045,0.00015-0.00085,0.00023-0.0013
				c0.00017-0.00097,0.00033-0.00185,0.0005-0.00282c0.0001-0.00056,0.0002-0.00111,0.0003-0.00167
				C0.06977,4.2056,0.06993,4.20469,0.07011,4.20372C0.07014,4.20351,0.07018,4.2033,0.07022,4.20308
				c0.00037-0.0021,0.00069-0.00385,0.00106-0.00594c0.00009-0.00051,0.00019-0.00106,0.00028-0.00156
				c0.00014-0.00081,0.00035-0.00194,0.00049-0.00274c0.0001-0.00059,0.00021-0.00118,0.00032-0.00176
				c0.00017-0.00097,0.00031-0.0017,0.00048-0.00266c0.0001-0.00056,0.0002-0.00108,0.0003-0.00164
				c0.00029-0.00161,0.00057-0.00314,0.00087-0.00475c0.00012-0.00066,0.00024-0.00131,0.00036-0.00198
				c0.00015-0.0008,0.00029-0.00157,0.00044-0.00238c0.00013-0.00072,0.00026-0.00141,0.00039-0.00213
				c0.00015-0.0008,0.00032-0.00172,0.00047-0.00253c0.0001-0.00056,0.0002-0.0011,0.00031-0.00166
				c0.0003-0.00161,0.00059-0.00318,0.00089-0.00479c0.00011-0.00061,0.00023-0.00121,0.00034-0.00182
				c0.00015-0.0008,0.00032-0.00172,0.00047-0.00252c0.00013-0.00069,0.00026-0.00139,0.00039-0.00208
				c0.00015-0.0008,0.0003-0.00157,0.00045-0.00238c0.00015-0.0008,0.00031-0.00163,0.00046-0.00242
				c0.00018-0.00096,0.0004-0.00211,0.00058-0.00307c0.00019-0.00101,0.00039-0.00207,0.00059-0.00308
				C0.08028,4.14854,0.08042,4.1478,0.08054,4.14716C0.0807,4.14631,0.08086,4.14547,0.08103,4.14463
				c0.00015-0.0008,0.00025-0.00131,0.00041-0.00211c0.00018-0.00093,0.00035-0.00184,0.00053-0.00277
				C0.08209,4.1391,0.08219,4.13859,0.08231,4.13795C0.08257,4.1366,0.08284,4.1352,0.08311,4.13385
				C0.08323,4.1332,0.08335,4.1326,0.08347,4.13196c0.00018-0.00093,0.00036-0.00187,0.00055-0.0028
				c0.00013-0.00064,0.00025-0.00126,0.00037-0.0019C0.08458,4.1263,0.08476,4.12535,0.08495,4.1244
				c0.00013-0.00064,0.0002-0.00102,0.00033-0.00166c0.00029-0.00148,0.00058-0.00294,0.00087-0.00443
				c0.00006-0.00032,0.00016-0.00082,0.00023-0.00114C0.08661,4.11597,0.08685,4.1148,0.08708,4.11361
				c0.0001-0.00048,0.00018-0.0009,0.00027-0.00138C0.0876,4.11101,0.08784,4.1098,0.08809,4.10858
				c0.00006-0.00032,0.00014-0.00069,0.0002-0.00101c0.0003-0.00151,0.0006-0.00299,0.0009-0.0045
				c0.00006-0.00032,0.00019-0.00093,0.00025-0.00125c0.00024-0.00119,0.00048-0.00237,0.00072-0.00356
				c0.00006-0.00032,0.00019-0.00091,0.00025-0.00123c0.00025-0.00122,0.00049-0.00243,0.00074-0.00365
				c0.00006-0.00032,0.00016-0.00077,0.00022-0.00109C0.09169,4.09076,0.092,4.08922,0.09232,4.08769
				C0.09235,4.08753,0.09244,4.0871,0.09247,4.08694c0.00027-0.00132,0.00053-0.0026,0.0008-0.00392
				c0.0001-0.00048,0.00016-0.00076,0.00026-0.00124C0.0938,4.08048,0.09407,4.07919,0.09434,4.0779
				C0.0944,4.07758,0.09442,4.07748,0.09449,4.07716C0.09482,4.07555,0.09516,4.07393,0.0955,4.07232l0.00002-0.00008
				c0.00033-0.00158,0.00066-0.00317,0.001-0.00475C0.09654,4.06733,0.0966,4.06706,0.09663,4.0669
				C0.09694,4.06543,0.09724,4.064,0.09755,4.06252c0.00003-0.00016,0.00007-0.00035,0.00011-0.00051
				c0.00069-0.00327,0.00139-0.00655,0.00208-0.00982l0.00007-0.00034c0.00034-0.00158,0.00069-0.00321,0.00103-0.0048
				c0.00003-0.00016-0.00002,0.00007,0.00002-0.00009C0.10158,4.04359,0.1023,4.04027,0.10303,4.03691l0.00001-0.00006
				C0.12899,3.91724,0.15967,3.79919,0.19492,3.6828z M2.71128,0.70495l0.23673,0.4404
				c-0.54749,0.2943-1.0224,0.67325-1.41154,1.12634l-0.3793-0.32578C1.237,1.85297,1.3204,1.7626,1.40716,1.67502
				C1.40727,1.6749,1.40726,1.67491,1.40738,1.6748C1.4091,1.67306,1.41082,1.67132,1.41255,1.66959l0.00029-0.0003
				c0.00173-0.00174,0.00341-0.00343,0.00514-0.00516C1.4181,1.66401,1.41817,1.66393,1.41829,1.66382
				c0.00173-0.00174,0.00344-0.00345,0.00518-0.00519c0.00012-0.00012,0.00015-0.00015,0.00027-0.00027
				c0.00167-0.00168,0.00335-0.00335,0.00503-0.00502C1.429,1.6531,1.42909,1.65301,1.42932,1.65278
				c0.00165-0.00165,0.00332-0.00331,0.00497-0.00495c0.00012-0.00012,0.00035-0.00035,0.00046-0.00046
				c0.00168-0.00167,0.00331-0.00329,0.005-0.00496c0.00012-0.00012,0.00039-0.00039,0.00051-0.0005
				c0.00166-0.00164,0.00335-0.00332,0.00501-0.00496C1.4455,1.63671,1.44551,1.6367,1.44575,1.63647
				C1.44737,1.63486,1.449,1.63325,1.45063,1.63164c0.00023-0.00023,0.00053-0.00052,0.00076-0.00075
				C1.453,1.62931,1.45462,1.62771,1.45623,1.62613C1.45635,1.62602,1.4567,1.62567,1.45682,1.62556
				c0.00163-0.00161,0.00325-0.0032,0.00489-0.0048c0.00023-0.00023,0.00045-0.00044,0.00068-0.00067
				c0.00164-0.0016,0.00326-0.0032,0.0049-0.0048c0.00023-0.00023,0.00034-0.00033,0.00057-0.00056
				c0.00161-0.00157,0.00326-0.00319,0.00488-0.00476c0.00035-0.00034,0.00044-0.00043,0.0008-0.00078
				c0.00159-0.00154,0.00323-0.00314,0.00481-0.00468C1.47859,1.60428,1.47876,1.60411,1.479,1.60388
				c0.00162-0.00157,0.00328-0.00318,0.0049-0.00475C1.48413,1.5989,1.48434,1.59869,1.48458,1.59846
				c0.00165-0.0016,0.00325-0.00315,0.0049-0.00474c0.00024-0.00023,0.0004-0.00039,0.00064-0.00062
				c0.00162-0.00156,0.00324-0.00313,0.00487-0.00469c0.00035-0.00034,0.0005-0.00048,0.00085-0.00082
				c0.00159-0.00154,0.0032-0.00309,0.0048-0.00462c0.00024-0.00023,0.00038-0.00037,0.00062-0.0006
				c0.00157-0.00151,0.00314-0.00301,0.00471-0.00452C1.50633,1.57751,1.50655,1.57731,1.5069,1.57697
				C1.50845,1.57549,1.51003,1.57398,1.51157,1.5725c0.00024-0.00023,0.00048-0.00045,0.00072-0.00068
				c0.00154-0.00147,0.00312-0.00298,0.00466-0.00445c0.00036-0.00034,0.00064-0.00061,0.001-0.00095
				C1.51949,1.56495,1.52106,1.56347,1.5226,1.562C1.52284,1.56177,1.52316,1.56147,1.5234,1.56125
				c0.00158-0.0015,0.00316-0.003,0.00474-0.00449C1.5285,1.55641,1.52874,1.55618,1.5291,1.55585
				c0.00155-0.00147,0.00313-0.00296,0.00468-0.00442C1.53401,1.5512,1.53448,1.55075,1.53472,1.55053
				c0.00149-0.00141,0.00305-0.00288,0.00455-0.00429c0.00036-0.00034,0.00084-0.00079,0.0012-0.00113
				c0.00147-0.00138,0.00297-0.0028,0.00444-0.00417c0.00036-0.00034,0.00086-0.00081,0.00122-0.00114
				c0.00147-0.00138,0.0029-0.00272,0.00438-0.0041c0.00048-0.00045,0.0009-0.00084,0.00138-0.00129
				c0.00147-0.00138,0.00287-0.00268,0.00434-0.00406c0.00048-0.00045,0.0008-0.00074,0.00128-0.00119
				C1.55896,1.5278,1.56039,1.52647,1.56184,1.52513c0.0006-0.00056,0.00089-0.00083,0.00149-0.00139
				c0.00139-0.00129,0.00281-0.00261,0.0042-0.0039c0.00048-0.00045,0.001-0.00093,0.00148-0.00137
				c0.00139-0.00129,0.00281-0.0026,0.0042-0.00389c0.00048-0.00045,0.00107-0.00099,0.00155-0.00143
				C1.57615,1.51186,1.5776,1.51052,1.57899,1.50923c0.00049-0.00045,0.00094-0.00087,0.00143-0.00132
				c0.00142-0.00131,0.0028-0.00258,0.00422-0.00389c0.00061-0.00056,0.00102-0.00094,0.00163-0.0015
				C1.58766,1.50125,1.58903,1.5,1.59043,1.49872c0.00049-0.00045,0.00103-0.00094,0.00152-0.00139
				c0.00137-0.00125,0.00282-0.00259,0.0042-0.00384C1.59662,1.49304,1.59728,1.49244,1.59777,1.492
				c0.00137-0.00125,0.00279-0.00254,0.00416-0.0038c0.00049-0.00044,0.00102-0.00093,0.00151-0.00137
				c0.0014-0.00128,0.00282-0.00257,0.00422-0.00384c0.00061-0.00056,0.00101-0.00092,0.00162-0.00147
				c0.00141-0.00128,0.00278-0.00252,0.00418-0.00379c0.00049-0.00044,0.00104-0.00094,0.00153-0.00138
				C1.61637,1.47509,1.61774,1.47385,1.61912,1.4726c0.00061-0.00055,0.00105-0.00095,0.00167-0.0015
				c0.00135-0.00122,0.00266-0.0024,0.00401-0.00361c0.00049-0.00044,0.00117-0.00106,0.00167-0.0015
				c0.00132-0.00119,0.0026-0.00234,0.00392-0.00353c0.00062-0.00055,0.00137-0.00123,0.00199-0.00178
				c0.00123-0.00111,0.00247-0.00222,0.0037-0.00332c0.00074-0.00066,0.00126-0.00113,0.002-0.00179
				c0.00123-0.0011,0.00247-0.00221,0.00371-0.00331c0.00074-0.00066,0.00138-0.00124,0.00212-0.00189
				C1.6451,1.44928,1.64631,1.4482,1.64751,1.44713c0.00074-0.00066,0.00138-0.00122,0.00212-0.00188
				C1.65084,1.44417,1.65204,1.4431,1.65325,1.44202c0.00074-0.00066,0.00155-0.00138,0.0023-0.00204
				C1.6567,1.43897,1.65785,1.43795,1.659,1.43693c0.00087-0.00077,0.00143-0.00127,0.0023-0.00203
				c0.00115-0.00102,0.00233-0.00206,0.00348-0.00308c0.00087-0.00077,0.00157-0.00139,0.00244-0.00215
				C1.66834,1.42867,1.66946,1.42768,1.67059,1.4267C1.67133,1.42604,1.6721,1.42536,1.67285,1.4247
				c0.00118-0.00104,0.00237-0.00208,0.00356-0.00313c0.00087-0.00076,0.00156-0.00137,0.00243-0.00214
				C1.67997,1.41846,1.68107,1.41749,1.6822,1.4165c0.00075-0.00065,0.00157-0.00138,0.00232-0.00203
				c0.00119-0.00104,0.00242-0.00212,0.00361-0.00316c0.00075-0.00065,0.00151-0.00132,0.00226-0.00197
				c0.00122-0.00106,0.00241-0.0021,0.00363-0.00316c0.00075-0.00065,0.00154-0.00134,0.00229-0.00199
				C1.6975,1.40315,1.69878,1.40205,1.69997,1.40101C1.70072,1.40036,1.70148,1.3997,1.70224,1.39905
				c0.00122-0.00106,0.00242-0.00209,0.00364-0.00315c0.00075-0.00065,0.00151-0.00131,0.00227-0.00196
				c0.00122-0.00106,0.00243-0.0021,0.00366-0.00316c0.00075-0.00065,0.00158-0.00136,0.00233-0.00201
				c0.0012-0.00103,0.00241-0.00208,0.00361-0.00311C1.7185,1.38501,1.71928,1.38434,1.72003,1.38369
				c0.0012-0.00103,0.00246-0.00211,0.00366-0.00314C1.72457,1.3798,1.72515,1.3793,1.72603,1.37854
				c0.0012-0.00103,0.0024-0.00205,0.0036-0.00308c0.00076-0.00065,0.00159-0.00136,0.00235-0.00201
				C1.73312,1.37249,1.73427,1.3715,1.73541,1.37053c0.00088-0.00075,0.00163-0.00139,0.00252-0.00214
				C1.73898,1.36749,1.7401,1.36654,1.74115,1.36565C1.74203,1.3649,1.74301,1.36407,1.74389,1.36332
				C1.74485,1.3625,1.7458,1.3617,1.74676,1.36088C1.7479,1.35992,1.74883,1.35913,1.74997,1.35816
				C1.7508,1.35746,1.75168,1.35672,1.75251,1.35601c0.00114-0.00096,0.00232-0.00196,0.00346-0.00292
				c0.00081-0.00068,0.0016-0.00135,0.00241-0.00203c0.00114-0.00096,0.00247-0.00208,0.00361-0.00304
				c0.00078-0.00065,0.00158-0.00132,0.00235-0.00198c0.00114-0.00096,0.0025-0.0021,0.00365-0.00306
				C1.76877,1.34233,1.7695,1.34171,1.77028,1.34106C1.77155,1.34,1.77282,1.33893,1.77409,1.33787
				c0.00068-0.00057,0.00141-0.00118,0.0021-0.00175C1.77746,1.33505,1.77884,1.3339,1.78011,1.33284
				c0.00072-0.0006,0.00139-0.00116,0.00211-0.00176C1.78349,1.33002,1.78472,1.32899,1.786,1.32793
				c0.00078-0.00065,0.00156-0.0013,0.00234-0.00194c0.00128-0.00106,0.00242-0.00201,0.0037-0.00307
				c0.00075-0.00062,0.00155-0.00129,0.0023-0.00191C1.79562,1.31995,1.79677,1.319,1.79805,1.31794
				C1.79883,1.31729,1.7996,1.31666,1.80038,1.31602c0.00115-0.00095,0.00251-0.00207,0.00366-0.00302
				c0.00078-0.00064,0.0016-0.00132,0.00238-0.00196c0.00115-0.00095,0.00245-0.00202,0.0036-0.00296
				c0.00084-0.0007,0.00163-0.00134,0.00247-0.00203c0.00115-0.00095,0.0022-0.00181,0.00336-0.00276
				c0.00091-0.00075,0.0018-0.00147,0.00271-0.00222C1.8196,1.30022,1.8206,1.2994,1.82163,1.29856
				C1.82263,1.29774,1.82366,1.2969,1.82466,1.29608C1.82582,1.29513,1.82714,1.29406,1.8283,1.29311
				c0.00079-0.00064,0.00158-0.00129,0.00237-0.00193c0.0009-0.00073,0.00194-0.00158,0.00284-0.00231
				c0.00113-0.00092,0.00222-0.00181,0.00336-0.00273c0.0009-0.00073,0.00187-0.00152,0.00278-0.00225
				C1.84075,1.283,1.8418,1.28215,1.84291,1.28125c0.00103-0.00084,0.00186-0.0015,0.00289-0.00234
				c0.00092-0.00074,0.00181-0.00146,0.00273-0.0022c0.00116-0.00094,0.00232-0.00187,0.00348-0.00281
				C1.85264,1.2734,1.8533,1.27287,1.85393,1.27236c0.0013-0.00104,0.00291-0.00234,0.00421-0.00338
				c0.0006-0.00048,0.00123-0.00099,0.00183-0.00147C1.8614,1.26636,1.8629,1.26516,1.86433,1.26402
				c0.00051-0.00041,0.001-0.0008,0.00151-0.00121C1.86739,1.26156,1.8689,1.26036,1.87046,1.25911
				c0.00057-0.00046,0.00121-0.00097,0.00179-0.00143C1.87368,1.25655,1.87519,1.25534,1.87662,1.2542
				C1.8772,1.25374,1.87774,1.25331,1.87832,1.25285C1.87988,1.25161,1.88122,1.25054,1.88279,1.2493
				c0.0006-0.00048,0.00121-0.00096,0.00181-0.00144C1.88616,1.24662,1.88743,1.24562,1.889,1.24438
				C1.88954,1.24395,1.89012,1.2435,1.89066,1.24307C1.8921,1.24193,1.8937,1.24067,1.89514,1.23953
				c0.00061-0.00048,0.00128-0.00101,0.00189-0.00149c0.00144-0.00113,0.00291-0.00229,0.00435-0.00342
				c0.00058-0.00045,0.00113-0.00089,0.00171-0.00134c0.00157-0.00123,0.00286-0.00225,0.00443-0.00348
				c0.00064-0.0005,0.00128-0.00101,0.00192-0.00151c0.00144-0.00113,0.00289-0.00226,0.00434-0.00339
				C1.91435,1.22444,1.91492,1.224,1.9155,1.22354c0.00144-0.00113,0.003-0.00235,0.00445-0.00347
				c0.00064-0.0005,0.00127-0.00099,0.00191-0.00149c0.00144-0.00113,0.00291-0.00227,0.00436-0.00339
				C1.9268,1.21474,1.92741,1.21426,1.92799,1.21381c0.00145-0.00112,0.003-0.00233,0.00445-0.00345
				c0.00061-0.00047,0.00123-0.00095,0.00184-0.00143C1.93573,1.20781,1.93731,1.2066,1.93876,1.20548
				C1.9393,1.20505,1.9399,1.2046,1.94045,1.20417c0.00145-0.00112,0.00296-0.00229,0.00442-0.0034
				c0.00068-0.00052,0.00131-0.00101,0.00199-0.00153c0.00145-0.00112,0.00271-0.00209,0.00417-0.0032
				C1.9517,1.19551,1.95239,1.19498,1.95307,1.19446C1.95452,1.19334,1.95584,1.19233,1.9573,1.19122
				C1.95798,1.1907,1.95867,1.19016,1.95935,1.18964c0.00146-0.00111,0.00301-0.0023,0.00447-0.00341
				C1.9644,1.18578,1.96498,1.18534,1.96556,1.1849c0.00119-0.00091,0.00269-0.00205,0.00388-0.00296
				c0.00084-0.00064,0.0017-0.00129,0.00254-0.00193C1.97305,1.1792,1.97414,1.17837,1.9752,1.17757
				c0.00104-0.00079,0.00201-0.00153,0.00305-0.00232c0.00093-0.00071,0.00197-0.00149,0.0029-0.0022
				c0.00117-0.00089,0.0023-0.00174,0.00347-0.00263c0.00106-0.0008,0.00178-0.00134,0.00284-0.00215
				C1.9886,1.16742,1.98974,1.16657,1.99088,1.16571C1.99181,1.165,1.99285,1.16422,1.99379,1.16352
				c0.00117-0.00088,0.00235-0.00177,0.00352-0.00265C1.99824,1.16016,1.99906,1.15955,2,1.15885
				c0.00105-0.00078,0.00203-0.00152,0.00307-0.0023c0.00107-0.0008,0.00227-0.0017,0.00334-0.0025
				c0.00105-0.00078,0.00214-0.0016,0.00319-0.00238c0.00107-0.0008,0.00198-0.00148,0.00305-0.00228
				c0.00092-0.00068,0.0018-0.00134,0.00271-0.00202c0.00121-0.0009,0.00244-0.00181,0.00364-0.00271
				c0.00105-0.00078,0.00205-0.00152,0.0031-0.0023c0.00107-0.0008,0.00204-0.00151,0.00311-0.00231
				C2.0262,1.13931,2.02711,1.13863,2.0281,1.1379C2.0293,1.13701,2.03043,1.13617,2.03164,1.13528
				c0.00089-0.00066,0.00182-0.00135,0.00271-0.002c0.00134-0.00099,0.00235-0.00173,0.0037-0.00273
				C2.03887,1.12994,2.0397,1.12933,2.04053,1.12873c0.00121-0.00089,0.00265-0.00195,0.00386-0.00284
				c0.00085-0.00063,0.00174-0.00128,0.0026-0.00191C2.0482,1.12309,2.04951,1.12213,2.05072,1.12124
				C2.05154,1.12064,2.0524,1.12001,2.05322,1.1194C2.05457,1.11842,2.0558,1.11752,2.05715,1.11654
				c0.00083-0.0006,0.00163-0.00119,0.00246-0.0018c0.00135-0.00099,0.00256-0.00187,0.00391-0.00285
				C2.06431,1.11131,2.06511,1.11073,2.0659,1.11016C2.06726,1.10917,2.06848,1.10828,2.06983,1.1073
				C2.07072,1.10665,2.07162,1.106,2.07252,1.10535C2.0736,1.10457,2.07481,1.10369,2.07589,1.10291
				c0.00099-0.00072,0.00199-0.00144,0.00298-0.00216c0.00122-0.00088,0.00227-0.00164,0.00349-0.00252
				c0.001-0.00072,0.00196-0.00141,0.00295-0.00213C2.0864,1.09531,2.08738,1.09461,2.08847,1.09383
				C2.08956,1.09304,2.0906,1.09229,2.0917,1.09151c0.00095-0.00068,0.00201-0.00144,0.00296-0.00213
				c0.0012-0.00086,0.00239-0.00172,0.00359-0.00257c0.00082-0.00058,0.00157-0.00112,0.00238-0.0017
				c0.00136-0.00098,0.00267-0.00191,0.00403-0.00288c0.00082-0.00058,0.00165-0.00118,0.00247-0.00176
				C2.10846,1.0795,2.10978,1.07857,2.11111,1.07762C2.1118,1.07713,2.11285,1.07638,2.11353,1.0759
				C2.11489,1.07492,2.1162,1.074,2.11757,1.07303c0.00082-0.00058,0.00163-0.00115,0.00244-0.00173
				c0.00137-0.00097,0.00276-0.00196,0.00413-0.00292c0.00082-0.00058,0.0014-0.00099,0.00223-0.00157
				c0.0014-0.00099,0.0028-0.00198,0.00421-0.00297c0.00082-0.00058,0.00154-0.00109,0.00237-0.00167
				C2.13431,1.06119,2.1357,1.06021,2.13707,1.05924c0.00068-0.00048,0.00161-0.00113,0.00229-0.00161
				c0.00137-0.00097,0.0028-0.00196,0.00417-0.00293C2.14422,1.05422,2.14521,1.05353,2.1459,1.05305
				c0.00138-0.00096,0.00281-0.00197,0.00419-0.00293C2.15091,1.04954,2.15144,1.04917,2.15226,1.0486
				c0.00144-0.00101,0.0029-0.00203,0.00435-0.00304C2.15743,1.04499,2.15798,1.04461,2.1588,1.04403
				c0.00145-0.00101,0.00287-0.002,0.00432-0.00301c0.00069-0.00048,0.00146-0.00102,0.00215-0.0015
				C2.16663,1.0386,2.16794,1.03769,2.16928,1.03675c0.00083-0.00057,0.00173-0.0012,0.00256-0.00177
				c0.00135-0.00093,0.00275-0.0019,0.0041-0.00283c0.00069-0.00048,0.0015-0.00103,0.00219-0.00151
				c0.00145-0.001,0.00288-0.00199,0.00433-0.00299c0.00069-0.00047,0.00146-0.00101,0.00216-0.00148
				c0.00142-0.00098,0.00283-0.00195,0.00425-0.00292c0.00083-0.00057,0.00135-0.00093,0.00218-0.00149
				C2.19243,1.0208,2.19386,1.01982,2.19525,1.01887c0.00069-0.00047,0.00161-0.0011,0.0023-0.00157
				c0.00146-0.001,0.00291-0.00199,0.00437-0.00299c0.00056-0.00038,0.00127-0.00087,0.00183-0.00125
				c0.00156-0.00106,0.00314-0.00214,0.0047-0.0032c0.00069-0.00047,0.00108-0.00074,0.00178-0.00121
				c0.00159-0.00109,0.00314-0.00213,0.00473-0.00321c0.00056-0.00038,0.00101-0.00069,0.00157-0.00106
				c0.00163-0.00111,0.00329-0.00223,0.00493-0.00333C2.22186,1.00076,2.22258,1.00028,2.22299,1
				c0.00167-0.00113,0.00341-0.00231,0.00508-0.00343c0.00056-0.00038,0.00076-0.00051,0.00132-0.00089
				c0.0018-0.00122,0.00358-0.00241,0.00538-0.00362c0.00028-0.00019,0.00086-0.00058,0.00114-0.00077
				c0.00181-0.00121,0.00364-0.00244,0.00545-0.00365c0.00042-0.00028,0.0007-0.00047,0.00112-0.00075
				c0.00181-0.00121,0.00356-0.00239,0.00537-0.0036c0.00042-0.00028,0.00085-0.00057,0.00127-0.00085
				c0.00181-0.00121,0.00361-0.00241,0.00542-0.00361C2.25483,0.97864,2.25536,0.97829,2.25564,0.9781
				c0.00181-0.00121,0.0037-0.00246,0.00551-0.00366c0.00042-0.00028,0.00068-0.00045,0.0011-0.00073
				c0.00182-0.0012,0.00368-0.00244,0.00549-0.00364c0.00042-0.00028,0.0007-0.00047,0.00112-0.00074
				c0.00182-0.0012,0.00362-0.00239,0.00544-0.0036c0.00042-0.00028,0.00078-0.00051,0.0012-0.00079
				C2.27736,0.96372,2.27919,0.96251,2.28104,0.9613C2.28132,0.96111,2.2817,0.96086,2.28198,0.96068
				c0.00192-0.00126,0.00384-0.00252,0.00577-0.00379C2.28789,0.9568,2.28838,0.95648,2.28852,0.95638
				C2.29048,0.9551,2.29243,0.95382,2.29439,0.95254c0.00028-0.00018,0.00046-0.0003,0.00074-0.00048
				C2.29709,0.95078,2.29906,0.9495,2.30102,0.94822c0.00028-0.00018,0.00046-0.0003,0.00074-0.00048
				c0.002-0.0013,0.00398-0.00259,0.00598-0.00389c0.00014-0.00009,0.00036-0.00023,0.0005-0.00033
				C2.31032,0.94217,2.31243,0.9408,2.3145,0.93946l0.0002-0.00013c0.00218-0.00141,0.00431-0.00279,0.00649-0.0042L2.32125,0.9351
				C2.44742,0.85365,2.57751,0.77685,2.71128,0.70495z M5.55882,0v0.5c-0.29625,0-0.59307,0.02295-0.88222,0.0682L4.59929,0.07421
				c0.13013-0.02036,0.26206-0.03668,0.39513-0.04876c0.00025-0.00002,0.00051-0.00005,0.00077-0.00007
				C5.00212,0.02476,5.00943,0.02411,5.01637,0.0235C5.01668,0.02348,5.01699,0.02345,5.0173,0.02342
				c0.00238-0.00021,0.00496-0.00043,0.00733-0.00063c0.00041-0.00004,0.00084-0.00007,0.00125-0.00011
				c0.00402-0.00034,0.00839-0.00071,0.01242-0.00105c0.00043-0.00004,0.00083-0.00007,0.00126-0.0001
				c0.0022-0.00018,0.00487-0.0004,0.00707-0.00058C5.0471,0.0209,5.04756,0.02087,5.04803,0.02083
				C5.05059,0.02062,5.0531,0.02041,5.05567,0.02021c0.00021-0.00002,0.00046-0.00004,0.00067-0.00005
				c0.00128-0.0001,0.00265-0.00021,0.00394-0.00032c0.00066-0.00005,0.00136-0.00011,0.00202-0.00016
				c0.00202-0.00016,0.0042-0.00033,0.00621-0.00049c0.00062-0.00005,0.00125-0.0001,0.00187-0.00015
				c0.00202-0.00016,0.00444-0.00035,0.00645-0.0005c0.00063-0.00005,0.00124-0.0001,0.00186-0.00014
				c0.00128-0.0001,0.00258-0.0002,0.00387-0.0003C5.083,0.01806,5.08347,0.01803,5.08392,0.01799
				C5.0863,0.01781,5.08826,0.01766,5.09064,0.01748c0.00076-0.00006,0.00155-0.00012,0.00231-0.00017
				C5.09479,0.01717,5.09667,0.01703,5.0985,0.0169c0.00086-0.00006,0.00172-0.00013,0.00258-0.00019
				c0.00128-0.00009,0.00228-0.00017,0.00356-0.00026c0.00155-0.00011,0.0031-0.00023,0.00464-0.00034
				c0.0011-0.00008,0.00226-0.00016,0.00336-0.00024C5.11366,0.0158,5.11471,0.01573,5.11573,0.01565
				C5.11738,0.01554,5.11895,0.01542,5.1206,0.01531c0.00106-0.00007,0.00207-0.00015,0.00313-0.00022
				C5.12502,0.015,5.12643,0.0149,5.12772,0.01481c0.00135-0.00009,0.00266-0.00018,0.00401-0.00028
				c0.0011-0.00008,0.00219-0.00015,0.00329-0.00022c0.00139-0.00009,0.00281-0.00019,0.0042-0.00028
				C5.14033,0.01396,5.1418,0.01386,5.1429,0.01379C5.144,0.01371,5.1451,0.01364,5.1462,0.01357
				c0.00147-0.0001,0.00289-0.00019,0.00436-0.00029c0.0012-0.00008,0.00237-0.00015,0.00356-0.00023
				c0.00092-0.00006,0.00216-0.00014,0.00308-0.0002c0.00165-0.00011,0.00331-0.00021,0.00496-0.00032
				c0.0011-0.00007,0.002-0.00013,0.0031-0.0002C5.16649,0.01226,5.16768,0.01219,5.1689,0.01211
				c0.00147-0.00009,0.00275-0.00017,0.00422-0.00026c0.00116-0.00007,0.00231-0.00014,0.00347-0.00021
				C5.1777,0.01157,5.17855,0.01152,5.17966,0.01145c0.00169-0.0001,0.00336-0.0002,0.00505-0.0003
				c0.00092-0.00005,0.00203-0.00012,0.00295-0.00018C5.18909,0.01088,5.19054,0.0108,5.19197,0.01071
				c0.00129-0.00008,0.00228-0.00013,0.00357-0.00021c0.00128-0.00007,0.00254-0.00015,0.00382-0.00022
				C5.2001,0.01024,5.20128,0.01018,5.20202,0.01013c0.00171-0.0001,0.00346-0.0002,0.00517-0.00029
				C5.20811,0.00979,5.2091,0.00974,5.21003,0.00968c0.00175-0.0001,0.00349-0.00019,0.00524-0.00029
				c0.00092-0.00005,0.00176-0.0001,0.00269-0.00015C5.21929,0.00917,5.22066,0.0091,5.222,0.00903
				c0.00129-0.00007,0.00226-0.00012,0.00356-0.00019C5.22697,0.00876,5.2284,0.00869,5.22981,0.00861
				c0.00074-0.00004,0.00183-0.0001,0.00257-0.00013c0.00185-0.0001,0.00366-0.00019,0.00552-0.00028
				c0.00092-0.00005,0.00152-0.00008,0.00245-0.00012C5.242,0.00799,5.24368,0.0079,5.24534,0.00782
				c0.00092-0.00005,0.00183-0.00009,0.00275-0.00014c0.00146-0.00007,0.00289-0.00014,0.00435-0.00021
				c0.00092-0.00004,0.00147-0.00007,0.0024-0.00012C5.2567,0.00726,5.25857,0.00717,5.26044,0.00708
				C5.26118,0.00705,5.26204,0.007,5.26278,0.00697C5.26471,0.00688,5.26663,0.00679,5.26856,0.0067
				C5.2693,0.00667,5.26974,0.00665,5.27048,0.00661c0.00168-0.00008,0.00338-0.00015,0.00505-0.00023
				C5.27608,0.00636,5.27685,0.00632,5.27741,0.0063C5.27928,0.00621,5.2812,0.00613,5.28308,0.00604
				c0.00074-0.00003,0.00154-0.00007,0.00228-0.0001C5.28729,0.00586,5.2892,0.00578,5.29114,0.0057
				c0.00074-0.00003,0.00133-0.00006,0.00207-0.00009c0.00178-0.00007,0.0036-0.00015,0.00538-0.00023
				C5.29932,0.00535,5.29981,0.00533,5.30055,0.0053c0.00176-0.00007,0.00353-0.00014,0.00529-0.00022
				C5.3064,0.00506,5.30725,0.00503,5.30781,0.00501c0.00196-0.00008,0.0039-0.00015,0.00585-0.00023
				c0.00074-0.00003,0.00146-0.00006,0.0022-0.00009C5.31783,0.00461,5.3198,0.00454,5.32178,0.00446
				C5.32233,0.00444,5.32291,0.00442,5.32347,0.0044c0.00174-0.00007,0.00344-0.00013,0.00518-0.00019
				C5.32921,0.00419,5.32984,0.00416,5.3304,0.00414C5.33242,0.00407,5.33446,0.004,5.33648,0.00393
				c0.00056-0.00002,0.00131-0.00005,0.00187-0.00007C5.3404,0.00379,5.34244,0.00372,5.34449,0.00365
				c0.00056-0.00002,0.00107-0.00004,0.00162-0.00006c0.0019-0.00006,0.00383-0.00013,0.00573-0.00019
				c0.00037-0.00001,0.00081-0.00003,0.00118-0.00004c0.00206-0.00007,0.0041-0.00013,0.00616-0.0002
				c0.00074-0.00002,0.00101-0.00003,0.00176-0.00006c0.00204-0.00006,0.0041-0.00013,0.00614-0.00019
				C5.36765,0.0029,5.36836,0.00288,5.36892,0.00286C5.37096,0.0028,5.37303,0.00274,5.37507,0.00268
				c0.00037-0.00001,0.00099-0.00003,0.00136-0.00004C5.37831,0.00259,5.3802,0.00253,5.38208,0.00248
				C5.38264,0.00246,5.38305,0.00245,5.3836,0.00244c0.00206-0.00006,0.00416-0.00011,0.00622-0.00017
				c0.00056-0.00002,0.00123-0.00003,0.00179-0.00005c0.00212-0.00006,0.00422-0.00011,0.00634-0.00017
				c0.00037-0.00001,0.00079-0.00002,0.00117-0.00003c0.00196-0.00005,0.00396-0.0001,0.00592-0.00015
				c0.00037-0.00001,0.00085-0.00002,0.00122-0.00003c0.00214-0.00005,0.00428-0.0001,0.00643-0.00015
				c0.00056-0.00001,0.00094-0.00002,0.0015-0.00004c0.00212-0.00005,0.00428-0.0001,0.00641-0.00014
				C5.42116,0.0015,5.42154,0.0015,5.4221,0.00148C5.42416,0.00144,5.42624,0.00139,5.4283,0.00135
				c0.00037-0.00001,0.00071-0.00001,0.00108-0.00002c0.00201-0.00004,0.004-0.00008,0.006-0.00012
				C5.43595,0.0012,5.43651,0.00119,5.43706,0.00118C5.43913,0.00114,5.44124,0.0011,5.44331,0.00106
				c0.00056-0.00001,0.00108-0.00002,0.00164-0.00003c0.00215-0.00004,0.00432-0.00008,0.00647-0.00011
				c0.00019,0,0.00085-0.00001,0.00104-0.00002c0.00199-0.00003,0.00398-0.00007,0.00597-0.0001
				c0.00037-0.00001,0.00093-0.00002,0.0013-0.00002c0.00213-0.00003,0.00426-0.00007,0.00639-0.0001
				c0.00056-0.00001,0.00106-0.00002,0.00162-0.00002C5.46986,0.00063,5.47201,0.0006,5.47414,0.00057
				c0.00037,0,0.00096-0.00001,0.00133-0.00002c0.00211-0.00003,0.0042-0.00005,0.00631-0.00008
				c0.00019,0,0.00044-0.00001,0.00062-0.00001C5.48467,0.00044,5.4869,0.00041,5.48917,0.00039
				c0.00037,0,0.00089-0.00001,0.00126-0.00001C5.49258,0.00035,5.49475,0.00033,5.4969,0.0003
				C5.49746,0.0003,5.49792,0.00029,5.49848,0.00029c0.00219-0.00002,0.00438-0.00004,0.00657-0.00006
				c0.00019,0,0.00038,0,0.00057,0C5.50778,0.00021,5.5099,0.00019,5.51206,0.00017c0.00037,0,0.00083-0.00001,0.0012-0.00001
				C5.51543,0.00015,5.51762,0.00013,5.5198,0.00012c0.00037,0,0.00107-0.00001,0.00144-0.00001
				C5.52343,0.0001,5.5256,0.00009,5.52779,0.00008c0.00037,0,0.00082,0,0.0012-0.00001
				C5.53102,0.00006,5.53306,0.00005,5.5351,0.00004c0.00037,0,0.00063,0,0.00101,0c0.0022-0.00001,0.00441-0.00001,0.0066-0.00002
				c0.00056,0,0.00085,0,0.00141,0c0.00218,0,0.0044-0.00001,0.00658-0.00001c0.00037,0,0.00083,0,0.0012,0
				C5.55422,0,5.5565,0,5.55882,0L5.55882,0z"/>
		</g>
		<g enable-background="new    ">
			<path d="M232.62207,2.03436h1.98926c1.479,0,2.29883,0.69922,2.29883,1.94824c0,1.26953-0.82959,1.97949-2.29883,1.97949h-1.2793
				v3.03809h-0.70996V2.03436z M234.54102,5.30194c1.08984,0,1.64941-0.44922,1.64941-1.30859
				c0-0.86035-0.55957-1.2998-1.64941-1.2998h-1.20898v2.6084H234.54102z"/>
			<path d="M241.69043,5.93182v3.06836h-0.62988l-0.04004-0.75977c-0.38965,0.5498-0.98926,0.83984-1.76904,0.83984
				c-1.06934,0-1.69873-0.55957-1.69873-1.50977c0-0.49902,0.19971-0.87891,0.55957-1.09863
				c0.37988-0.21973,0.90967-0.31055,1.87891-0.31055h1.00928V5.93182c0-0.85938-0.44971-1.3291-1.2793-1.3291
				c-0.61963,0-1.09912,0.26953-1.49902,0.81934l-0.49951-0.41992c0.5293-0.68945,1.16895-1.00879,2.00879-1.00879
				C240.9707,3.99335,241.69043,4.70233,241.69043,5.93182z M241.00049,6.7912V6.72186h-0.94922
				c-0.90967,0-1.29932,0.05957-1.53906,0.24902c-0.18018,0.14062-0.27002,0.36035-0.27002,0.63965
				c0,0.5498,0.46973,0.90039,1.20947,0.90039C240.40088,8.51093,241.00049,7.841,241.00049,6.7912z"/>
			<path d="M246.37061,4.20331l-0.33984,0.55957c-0.22949-0.10059-0.43945-0.15039-0.64941-0.15039
				c-0.75977,0-1.31934,0.56934-1.31934,1.63965v2.74805h-0.68945V4.07245h0.68945v0.74023
				c0.35986-0.64941,0.95947-0.81934,1.45898-0.81934C245.8208,3.99335,246.10107,4.05292,246.37061,4.20331z"/>
			<path d="M250.83984,6.72186h-3.60791c0.02002,1.0791,0.61963,1.72852,1.58936,1.72852c0.53955,0,0.96924-0.13965,1.41895-0.61914
				l0.47998,0.41895c-0.57959,0.61035-1.14941,0.83008-1.90918,0.83008c-1.49902,0-2.26855-1.11914-2.26855-2.51855
				c0-1.38965,0.75977-2.56836,2.18896-2.56836c1.50879,0,2.13867,1.17871,2.13867,2.29785
				C250.87012,6.43182,250.85986,6.60175,250.83984,6.72186z M247.23193,6.14178h2.97852c0-0.02051-0.01025-0.07031-0.01025-0.16016
				c-0.0498-0.7998-0.55957-1.40918-1.46875-1.40918C247.8418,4.57245,247.29199,5.27264,247.23193,6.14178z"/>
			<path d="M256.18994,5.98163v3.01855h-0.68945V6.15155c0-1.05957-0.33984-1.54883-1.07959-1.54883
				c-0.92969,0-1.46924,0.7998-1.46924,2.18848v2.20898h-0.68945V4.07245h0.68945v0.71973
				c0.31982-0.49902,0.91943-0.79883,1.62891-0.79883C255.64014,3.99335,256.18994,4.67303,256.18994,5.98163z"/>
			<path d="M259.94092,8.95038c-0.25977,0.08008-0.52002,0.12988-0.74951,0.12988c-0.65967,0-1.13965-0.37012-1.13965-1.23926
				V4.65253h-0.81934V4.07245h0.81934V2.69354l0.68994-0.51953v1.89844h1.18896v0.58008h-1.18896v3.09863
				c0,0.47949,0.21973,0.69922,0.60938,0.69922c0.16992,0,0.35986-0.04004,0.57959-0.10938L259.94092,8.95038z"/>
			<path d="M265.17969,5.98163v3.01855h-0.68945V6.15155c0-1.06934-0.33984-1.54883-1.07959-1.54883
				c-0.93945,0-1.46924,0.76953-1.46924,2.12891v2.26855h-0.68945V2.03436h0.68945v2.75781
				c0.31982-0.49902,0.91943-0.79883,1.62891-0.79883C264.62988,3.99335,265.17969,4.67303,265.17969,5.98163z"/>
			<path d="M270.7793,6.72186h-3.60791c0.02002,1.0791,0.61963,1.72852,1.58936,1.72852c0.53955,0,0.96924-0.13965,1.41895-0.61914
				l0.47998,0.41895c-0.57959,0.61035-1.14941,0.83008-1.90918,0.83008c-1.49902,0-2.26855-1.11914-2.26855-2.51855
				c0-1.38965,0.75977-2.56836,2.18896-2.56836c1.50879,0,2.13867,1.17871,2.13867,2.29785
				C270.80957,6.43182,270.79932,6.60175,270.7793,6.72186z M267.17139,6.14178h2.97852c0-0.02051-0.01025-0.07031-0.01025-0.16016
				c-0.0498-0.7998-0.55957-1.40918-1.46875-1.40918C267.78125,4.57245,267.23145,5.27264,267.17139,6.14178z"/>
			<path d="M271.67236,7.7912l0.57959-0.25977c0.17969,0.50977,0.65967,0.93945,1.4292,0.93945
				c0.66943,0,1.09961-0.33008,1.09961-0.84961c0-1.30957-2.83887-0.49023-2.83887-2.23926
				c0-0.85938,0.69971-1.38867,1.68945-1.38867c0.78955,0,1.4292,0.3291,1.76904,1.0293l-0.5498,0.2998
				c-0.23975-0.44043-0.62988-0.71973-1.23926-0.71973c-0.60986,0-0.99951,0.25-0.99951,0.67969
				c0,1.16895,2.84814,0.42969,2.84814,2.29883c0,0.99902-0.81934,1.49902-1.76904,1.49902
				C272.72168,9.08026,271.93213,8.58026,271.67236,7.7912z"/>
			<path d="M276.80176,2.03436h0.79932v1.01953h-0.79932V2.03436z M276.86182,4.07245h0.68945v4.92773h-0.68945V4.07245z"/>
			<path d="M278.8418,7.7912l0.57959-0.25977c0.17969,0.50977,0.65967,0.93945,1.4292,0.93945
				c0.66943,0,1.09961-0.33008,1.09961-0.84961c0-1.30957-2.83887-0.49023-2.83887-2.23926
				c0-0.85938,0.69971-1.38867,1.68945-1.38867c0.78955,0,1.4292,0.3291,1.76904,1.0293l-0.5498,0.2998
				c-0.23975-0.44043-0.62988-0.71973-1.23926-0.71973c-0.60986,0-0.99951,0.25-0.99951,0.67969
				c0,1.16895,2.84814,0.42969,2.84814,2.29883c0,0.99902-0.81934,1.49902-1.76855,1.49902
				C279.89111,9.08026,279.10156,8.58026,278.8418,7.7912z"/>
			<path d="M286.13184,4.07245h0.73975l1.05957,3.88867l1.29883-3.88867h0.62988l1.28906,3.88867l1.06982-3.88867h0.72949
				l-1.43945,4.92773h-0.64941l-1.30957-3.97754l-1.3291,3.97754h-0.63965L286.13184,4.07245z"/>
			<path d="M294.09131,2.03436h0.79932v1.01953h-0.79932V2.03436z M294.15137,4.07245h0.68945v4.92773h-0.68945V4.07245z"/>
			<path d="M298.71045,8.95038c-0.25977,0.08008-0.52002,0.12988-0.74951,0.12988c-0.65967,0-1.13965-0.37012-1.13965-1.23926
				V4.65253h-0.81934V4.07245h0.81934V2.69354l0.68994-0.51953v1.89844h1.18896v0.58008h-1.18896v3.09863
				c0,0.47949,0.21973,0.69922,0.60938,0.69922c0.16992,0,0.35986-0.04004,0.57959-0.10938L298.71045,8.95038z"/>
			<path d="M303.94922,5.98163v3.01855h-0.68945V6.15155c0-1.06934-0.33984-1.54883-1.07959-1.54883
				c-0.93945,0-1.46924,0.76953-1.46924,2.12891v2.26855h-0.68945V2.03436h0.68945v2.75781
				c0.31982-0.49902,0.91943-0.79883,1.62891-0.79883C303.39941,3.99335,303.94922,4.67303,303.94922,5.98163z"/>
			<path d="M312.04932,5.93182v3.06836h-0.62988l-0.04004-0.75977c-0.38965,0.5498-0.98926,0.83984-1.76904,0.83984
				c-1.06934,0-1.69873-0.55957-1.69873-1.50977c0-0.49902,0.19971-0.87891,0.55957-1.09863
				c0.37988-0.21973,0.90967-0.31055,1.87891-0.31055h1.00928V5.93182c0-0.85938-0.44971-1.3291-1.2793-1.3291
				c-0.61963,0-1.09912,0.26953-1.49902,0.81934l-0.49951-0.41992c0.5293-0.68945,1.16895-1.00879,2.00879-1.00879
				C311.32959,3.99335,312.04932,4.70233,312.04932,5.93182z M311.35938,6.7912V6.72186h-0.94922
				c-0.90967,0-1.29932,0.05957-1.53906,0.24902c-0.18018,0.14062-0.27002,0.36035-0.27002,0.63965
				c0,0.5498,0.46973,0.90039,1.20947,0.90039C310.75977,8.51093,311.35938,7.841,311.35938,6.7912z"/>
			<path d="M320.57861,2.03436v6.96582h-0.68994V8.341c-0.35938,0.45898-0.90918,0.73926-1.62891,0.73926
				c-1.43896,0-2.18896-1.0791-2.18896-2.54883c0-1.53906,0.81982-2.54883,2.18896-2.54883c0.69971,0,1.25928,0.27051,1.62891,0.75
				V2.03436H320.57861z M319.94873,6.53143c0-1.16895-0.59961-1.93848-1.58887-1.93848c-0.99951,0-1.59912,0.76953-1.59912,1.93848
				c0,1.11914,0.54932,1.93945,1.59912,1.93945C319.39893,8.47089,319.94873,7.65057,319.94873,6.53143z"/>
			<path d="M322.34131,2.03436h0.79932v1.01953h-0.79932V2.03436z M322.40137,4.07245h0.68945v4.92773h-0.68945V4.07245z"/>
			<path d="M325.021,4.65253h-0.84961V4.07245h0.84961V3.62323c0-1.01953,0.83936-1.66895,1.87891-1.66895
				c0.40967,0,0.83936,0.09961,1.19922,0.31934c0.25977-0.20996,0.62988-0.31934,1.0293-0.31934
				c0.27002,0,0.52002,0.06934,0.75977,0.18945l-0.22998,0.55957c-0.15967-0.08008-0.31982-0.12988-0.47949-0.12988
				c-0.53955,0-0.83984,0.25-0.83984,0.80957v0.68945h1.53955v0.58008h-1.53955v4.34766h-0.6792V4.65253h-1.94922v4.34766H325.021
				V4.65253z M327.65967,4.07245V3.31366c0-0.23047,0.0498-0.41992,0.1499-0.58008c-0.25-0.13965-0.56982-0.20996-0.87988-0.20996
				c-0.7793,0-1.21924,0.4502-1.21924,1.10938v0.43945H327.65967z"/>
			<path d="M334.84863,6.72186h-3.60791c0.02002,1.0791,0.61963,1.72852,1.58936,1.72852c0.53955,0,0.96924-0.13965,1.41895-0.61914
				l0.47998,0.41895c-0.57959,0.61035-1.14941,0.83008-1.90918,0.83008c-1.49902,0-2.26855-1.11914-2.26855-2.51855
				c0-1.38965,0.75977-2.56836,2.18896-2.56836c1.50879,0,2.13867,1.17871,2.13867,2.29785
				C334.87891,6.43182,334.86865,6.60175,334.84863,6.72186z M331.24072,6.14178h2.97852c0-0.02051-0.01025-0.07031-0.01025-0.16016
				c-0.0498-0.7998-0.55957-1.40918-1.46875-1.40918C331.85059,4.57245,331.30078,5.27264,331.24072,6.14178z"/>
			<path d="M339.26904,4.20331l-0.33984,0.55957c-0.22949-0.10059-0.43945-0.15039-0.64941-0.15039
				c-0.75977,0-1.31934,0.56934-1.31934,1.63965v2.74805H336.271V4.07245h0.68945v0.74023
				c0.35986-0.64941,0.95947-0.81934,1.45898-0.81934C338.71924,3.99335,338.99951,4.05292,339.26904,4.20331z"/>
			<path d="M343.73828,6.72186h-3.60791c0.02002,1.0791,0.61963,1.72852,1.58936,1.72852c0.53955,0,0.96924-0.13965,1.41895-0.61914
				l0.47998,0.41895c-0.57959,0.61035-1.14941,0.83008-1.90918,0.83008c-1.49902,0-2.26855-1.11914-2.26855-2.51855
				c0-1.38965,0.75977-2.56836,2.18896-2.56836c1.50879,0,2.13867,1.17871,2.13867,2.29785
				C343.76855,6.43182,343.7583,6.60175,343.73828,6.72186z M340.13037,6.14178h2.97852c0-0.02051-0.01025-0.07031-0.01025-0.16016
				c-0.0498-0.7998-0.55957-1.40918-1.46875-1.40918C340.74023,4.57245,340.19043,5.27264,340.13037,6.14178z"/>
			<path d="M349.08838,5.98163v3.01855h-0.68945V6.15155c0-1.05957-0.33984-1.54883-1.07959-1.54883
				c-0.92969,0-1.46924,0.7998-1.46924,2.18848v2.20898h-0.68945V4.07245h0.68945v0.71973
				c0.31982-0.49902,0.91943-0.79883,1.62891-0.79883C348.53857,3.99335,349.08838,4.67303,349.08838,5.98163z"/>
			<path d="M352.83936,8.95038c-0.25977,0.08008-0.52002,0.12988-0.74951,0.12988c-0.65967,0-1.13965-0.37012-1.13965-1.23926
				V4.65253h-0.81934V4.07245h0.81934V2.69354l0.68994-0.51953v1.89844h1.18896v0.58008h-1.18896v3.09863
				c0,0.47949,0.21973,0.69922,0.60938,0.69922c0.16992,0,0.35986-0.04004,0.57959-0.10938L352.83936,8.95038z"/>
			<path d="M361.38818,6.53143c0,1.46973-0.74951,2.54883-2.18896,2.54883c-0.71924,0-1.26904-0.28027-1.62891-0.73926v2.69824
				h-0.68945v-6.9668h0.68945V4.7326c0.36963-0.47949,0.92969-0.75,1.62891-0.75
				C360.56885,3.9826,361.38818,4.99237,361.38818,6.53143z M360.69873,6.53143c0-1.16895-0.59961-1.93848-1.59912-1.93848
				c-0.98975,0-1.58936,0.76953-1.58936,1.93848c0,1.11914,0.5498,1.93945,1.58936,1.93945
				C360.14893,8.47089,360.69873,7.65057,360.69873,6.53143z"/>
			<path d="M362.39111,6.53143c0-1.45898,0.94922-2.53809,2.3584-2.53809c1.39941,0,2.36865,1.0791,2.36865,2.53809
				c0,1.44922-0.95947,2.54883-2.36865,2.54883S362.39111,7.99042,362.39111,6.53143z M366.42871,6.53143
				c0-1.11914-0.62988-1.92871-1.6792-1.92871c-1.05957,0-1.66895,0.81934-1.66895,1.92871
				c0,1.11914,0.61963,1.93945,1.66895,1.93945C365.80908,8.47089,366.42871,7.63104,366.42871,6.53143z"/>
			<path d="M368.4502,2.03436h0.79932v1.01953h-0.79932V2.03436z M368.51025,4.07245h0.68945v4.92773h-0.68945V4.07245z"/>
			<path d="M374.94824,5.98163v3.01855h-0.68945V6.15155c0-1.05957-0.33984-1.54883-1.07959-1.54883
				c-0.92969,0-1.46924,0.7998-1.46924,2.18848v2.20898h-0.68945V4.07245h0.68945v0.71973
				c0.31982-0.49902,0.91943-0.79883,1.62891-0.79883C374.39844,3.99335,374.94824,4.67303,374.94824,5.98163z"/>
			<path d="M378.69922,8.95038c-0.25977,0.08008-0.52002,0.12988-0.74951,0.12988c-0.65967,0-1.13965-0.37012-1.13965-1.23926
				V4.65253h-0.81934V4.07245h0.81934V2.69354l0.68945-0.51953v1.89844h1.18945v0.58008h-1.18945v3.09863
				c0,0.47949,0.22021,0.69922,0.60986,0.69922c0.16992,0,0.35986-0.04004,0.57959-0.10938L378.69922,8.95038z"/>
			<path d="M382.31006,6.53143c0-1.45898,0.94971-2.53809,2.35889-2.53809c1.39941,0,2.36865,1.0791,2.36865,2.53809
				c0,1.44922-0.95947,2.54883-2.36865,2.54883S382.31006,7.99042,382.31006,6.53143z M386.34814,6.53143
				c0-1.11914-0.62988-1.92871-1.6792-1.92871C383.60938,4.60272,383,5.42206,383,6.53143
				c0,1.11914,0.61963,1.93945,1.66895,1.93945C385.72852,8.47089,386.34814,7.63104,386.34814,6.53143z"/>
			<path d="M388.72998,4.65253h-1.03955V4.07245h1.04932V3.31366c0-1.0498,0.60986-1.35938,1.23926-1.35938
				c0.27002,0,0.56982,0.05957,0.87988,0.18945l-0.24023,0.5498c-0.20996-0.09961-0.39941-0.16016-0.56934-0.16016
				c-0.39014,0-0.62988,0.27051-0.62988,0.72949v0.80957h1.41943v0.58008h-1.41943v4.34766h-0.68945V4.65253z"/>
			<path d="M393.93994,4.07245h0.75l1.54883,4.04785l1.55908-4.04785h0.75977l-2.01904,4.92773h-0.58936L393.93994,4.07245z"/>
			<path d="M399.60986,2.03436h0.79932v1.01953h-0.79932V2.03436z M399.66992,4.07245h0.68945v4.92773h-0.68945V4.07245z"/>
			<path d="M406.07715,6.72186h-3.60742c0.01953,1.0791,0.61914,1.72852,1.58887,1.72852c0.54004,0,0.96973-0.13965,1.41895-0.61914
				l0.48047,0.41895c-0.58008,0.61035-1.14941,0.83008-1.90918,0.83008c-1.49902,0-2.26855-1.11914-2.26855-2.51855
				c0-1.38965,0.75977-2.56836,2.18848-2.56836c1.50879,0,2.13867,1.17871,2.13867,2.29785
				C406.10742,6.43182,406.09766,6.60175,406.07715,6.72186z M402.46973,6.14178h2.97852c0-0.02051-0.01074-0.07031-0.01074-0.16016
				c-0.0498-0.7998-0.55957-1.40918-1.46875-1.40918C403.0791,4.57245,402.5293,5.27264,402.46973,6.14178z"/>
			<path d="M406.87012,4.07245h0.74023l1.05957,3.88867l1.29883-3.88867h0.62988l1.28906,3.88867l1.06934-3.88867h0.72949
				l-1.43945,4.92773h-0.64941l-1.30957-3.97754l-1.3291,3.97754h-0.63965L406.87012,4.07245z"/>
		</g>
		<path id="Rettangolo_181" fill="#DBDBF2" d="M210,1h11c2.76143,0,5,2.23858,5,5l0,0c0,2.76142-2.23857,5-5,5h-11
			c-2.76143,0-5-2.23858-5-5l0,0C205,3.23858,207.23857,1,210,1z"/>
	</g>
</g>
</svg>
