<svg xmlns="http://www.w3.org/2000/svg" xmlns:xlink="http://www.w3.org/1999/xlink" width="600" height="472" viewBox="0 0 600 472">
  <defs>
    <clipPath id="clip-zoom_03">
      <rect width="600" height="472"/>
    </clipPath>
  </defs>
  <g id="zoom_03" clip-path="url(#clip-zoom_03)">
    <g id="Raggruppa_4800" data-name="Raggruppa 4800" transform="translate(-49 -2139)">
      <g id="stripes" transform="translate(51.984 2214.814)">
        <line id="Linea_215" data-name="Linea 215" x2="0.101" y2="379.974" transform="translate(71.931 0.211)" fill="none" stroke="#5151fc" stroke-miterlimit="10" stroke-width="0.147" stroke-dasharray="2.149"/>
        <line id="Linea_216" data-name="Linea 216" x2="0.101" y2="379.974" transform="translate(0 0.211)" fill="none" stroke="#5151fc" stroke-miterlimit="10" stroke-width="0.147" stroke-dasharray="2.149"/>
        <rect id="Rettangolo_191" data-name="Rettangolo 191" width="71.854" height="367.767" transform="translate(0.123)" fill="#ccc" opacity="0.2"/>
        <line id="Linea_217" data-name="Linea 217" x2="0.08" y2="379.974" transform="translate(243.339 0.211)" fill="none" stroke="#5151fc" stroke-miterlimit="10" stroke-width="0.132" stroke-dasharray="1.922"/>
        <line id="Linea_218" data-name="Linea 218" x2="0.08" y2="379.974" transform="translate(185.801 0.211)" fill="none" stroke="#5151fc" stroke-miterlimit="10" stroke-width="0.132" stroke-dasharray="1.922"/>
        <rect id="Rettangolo_192" data-name="Rettangolo 192" width="57.477" height="367.767" transform="translate(185.9)" fill="#ccc" opacity="0.2"/>
      </g>
      <g id="separate" transform="translate(52.562 2219.965)">
        <g id="r14" transform="translate(0 9.25)">
          <path id="Tracciato_1331" data-name="Tracciato 1331" d="M4.24-509.074c2.09,0,4.181-112.235,6.271-112.235" transform="translate(-4.24 836.426)" fill="none" stroke="#7f7f7f" stroke-width="0.707" opacity="0.4"/>
          <path id="Tracciato_1332" data-name="Tracciato 1332" d="M10.474-621.309c1.41,0,2.821,18.706,4.231,18.706" transform="translate(-4.203 836.426)" fill="none" stroke="#7f7f7f" stroke-width="0.707" opacity="0.4"/>
          <path id="Tracciato_1333" data-name="Tracciato 1333" d="M14.68-602.6q4.551,0,9.1-18.706" transform="translate(-4.178 836.426)" fill="none" stroke="#7f7f7f" stroke-width="0.707" opacity="0.4"/>
          <path id="Tracciato_1334" data-name="Tracciato 1334" d="M23.73-620.42c2.95-12.12,5.9-116.272,8.849-149.647" transform="translate(-4.123 835.537)" fill="none" stroke="#7f7f7f" stroke-width="0.707" opacity="0.4"/>
          <path id="Tracciato_1335" data-name="Tracciato 1335" d="M32.526-769.845c1.46-16.51,2.918-37.411,4.377-37.411" transform="translate(-4.071 835.315)" fill="none" stroke="#7f7f7f" stroke-width="0.707" opacity="0.4"/>
          <path id="Tracciato_1336" data-name="Tracciato 1336" d="M36.877-807.256c1.954,0,3.906,205.765,5.859,205.765" transform="translate(-4.045 835.315)" fill="none" stroke="#7f7f7f" stroke-width="0.707" opacity="0.4"/>
          <path id="Tracciato_1337" data-name="Tracciato 1337" d="M42.7-602.325c1.867,0,3.734-65.471,5.6-65.471" transform="translate(-4.01 836.148)" fill="none" stroke="#7f7f7f" stroke-width="0.707" opacity="0.4"/>
          <path id="Tracciato_1338" data-name="Tracciato 1338" d="M48.269-667.8c.8,0,1.6,93.53,2.4,93.53" transform="translate(-3.977 836.148)" fill="none" stroke="#7f7f7f" stroke-width="0.707" opacity="0.4"/>
          <path id="Tracciato_1339" data-name="Tracciato 1339" d="M50.653-574.377c.89,0,1.781-43.774,2.672-74.824" transform="translate(-3.963 836.26)" fill="none" stroke="#7f7f7f" stroke-width="0.707" opacity="0.4"/>
          <path id="Tracciato_1340" data-name="Tracciato 1340" d="M53.309-648.534C54.2-679.766,55.1-754.974,56-760.769" transform="translate(-3.947 835.593)" fill="none" stroke="#7f7f7f" stroke-width="0.707" opacity="0.4"/>
          <path id="Tracciato_1341" data-name="Tracciato 1341" d="M55.98-760.713c.964-6.236,1.927-4.008,2.891-9.354" transform="translate(-3.931 835.537)" fill="none" stroke="#7f7f7f" stroke-width="0.707" opacity="0.4"/>
          <path id="Tracciato_1342" data-name="Tracciato 1342" d="M58.854-769.789c1.643-9.113,3.286-46.764,4.929-46.764" transform="translate(-3.914 835.259)" fill="none" stroke="#7f7f7f" stroke-width="0.707" opacity="0.4"/>
          <path id="Tracciato_1343" data-name="Tracciato 1343" d="M63.754-816.553c3.447,0,6.9,93.529,10.343,93.529" transform="translate(-3.884 835.259)" fill="none" stroke="#7f7f7f" stroke-width="0.707" opacity="0.4"/>
          <path id="Tracciato_1344" data-name="Tracciato 1344" d="M74.036-722.913c2.633,0,5.265-112.235,7.9-112.235" transform="translate(-3.823 835.148)" fill="none" stroke="#7f7f7f" stroke-width="0.707" opacity="0.4"/>
        </g>
        <g id="ri5" transform="translate(184.804)" opacity="0.5">
          <path id="Tracciato_1345" data-name="Tracciato 1345" d="M187.946-844.343c1.18,0,2.36,173.885,3.54,196.412" transform="translate(-187.946 844.343)" fill="none" stroke="#7f7f7f" stroke-width="0.5"/>
          <path id="Tracciato_1346" data-name="Tracciato 1346" d="M191.465-649.1c.327,6.235.654,4.772.98,9.353" transform="translate(-187.925 845.51)" fill="none" stroke="#7f7f7f" stroke-width="0.5"/>
          <path id="Tracciato_1347" data-name="Tracciato 1347" d="M192.439-639.8c.85,11.919,1.7,65.47,2.55,65.47" transform="translate(-187.919 845.566)" fill="none" stroke="#7f7f7f" stroke-width="0.5"/>
          <path id="Tracciato_1348" data-name="Tracciato 1348" d="M194.974-574.275c1.133,0,2.266-74.823,3.4-74.823" transform="translate(-187.904 845.51)" fill="none" stroke="#7f7f7f" stroke-width="0.5"/>
          <path id="Tracciato_1349" data-name="Tracciato 1349" d="M198.353-649.1c1.46,0,2.919,46.764,4.379,46.764" transform="translate(-187.884 845.51)" fill="none" stroke="#7f7f7f" stroke-width="0.5"/>
          <path id="Tracciato_1350" data-name="Tracciato 1350" d="M202.706-602.39c1.223,0,2.447-28.512,3.669-37.411" transform="translate(-187.858 845.566)" fill="none" stroke="#7f7f7f" stroke-width="0.5"/>
          <path id="Tracciato_1351" data-name="Tracciato 1351" d="M206.353-639.745c.516-3.753,1.032-9.353,1.547-9.353" transform="translate(-187.836 845.51)" fill="none" stroke="#7f7f7f" stroke-width="0.5"/>
          <path id="Tracciato_1352" data-name="Tracciato 1352" d="M207.891-649.1c1.6,0,3.2,46.764,4.806,46.764" transform="translate(-187.827 845.51)" fill="none" stroke="#7f7f7f" stroke-width="0.5"/>
          <path id="Tracciato_1353" data-name="Tracciato 1353" d="M212.668-601.612c1.561,0,3.123-168.352,4.684-168.352" transform="translate(-187.798 844.788)" fill="none" stroke="#7f7f7f" stroke-width="0.5"/>
          <path id="Tracciato_1354" data-name="Tracciato 1354" d="M217.324-769.964c.452,0,.9,46.765,1.356,46.765" transform="translate(-187.77 844.788)" fill="none" stroke="#7f7f7f" stroke-width="0.5"/>
          <path id="Tracciato_1355" data-name="Tracciato 1355" d="M218.672-722.754c.366,0,.733-121.589,1.1-121.589" transform="translate(-187.762 844.343)" fill="none" stroke="#7f7f7f" stroke-width="0.5"/>
          <path id="Tracciato_1356" data-name="Tracciato 1356" d="M219.765-844.343c.872,0,1.743,271.235,2.615,271.235" transform="translate(-187.756 844.343)" fill="none" stroke="#7f7f7f" stroke-width="0.5"/>
          <path id="Tracciato_1357" data-name="Tracciato 1357" d="M222.364-574.553c.872,0,1.745-28.059,2.618-28.059" transform="translate(-187.74 845.788)" fill="none" stroke="#7f7f7f" stroke-width="0.5"/>
          <path id="Tracciato_1358" data-name="Tracciato 1358" d="M224.966-602.612c1.246,0,2.493,121.589,3.739,121.589" transform="translate(-187.725 845.788)" fill="none" stroke="#7f7f7f" stroke-width="0.5"/>
          <path id="Tracciato_1359" data-name="Tracciato 1359" d="M228.683-481.023c1.522,0,3.045-121.589,4.568-121.589" transform="translate(-187.702 845.788)" fill="none" stroke="#7f7f7f" stroke-width="0.5"/>
          <path id="Tracciato_1360" data-name="Tracciato 1360" d="M233.224-602.612c1.009,0,2.017,28.059,3.025,28.059" transform="translate(-187.675 845.788)" fill="none" stroke="#7f7f7f" stroke-width="0.5"/>
          <path id="Tracciato_1361" data-name="Tracciato 1361" d="M236.231-573.831c1.569,0,3.139-149.646,4.708-149.646" transform="translate(-187.657 845.066)" fill="none" stroke="#7f7f7f" stroke-width="0.5"/>
          <path id="Tracciato_1362" data-name="Tracciato 1362" d="M240.911-723.477c1.555,0,3.11,149.646,4.665,149.646" transform="translate(-187.629 845.066)" fill="none" stroke="#7f7f7f" stroke-width="0.5"/>
        </g>
        <g id="t6" transform="translate(351.107 10.279)">
          <path id="Tracciato_1363" data-name="Tracciato 1363" d="M358.846-694.665c1.385,9.088,2.769,215.117,4.155,215.117" transform="translate(-353.227 834.959)" fill="none" stroke="#7f7f7f" stroke-width="0.705" opacity="0.4"/>
          <path id="Tracciato_1364" data-name="Tracciato 1364" d="M362.976-479.1c6.242,0,12.484-289.941,18.726-289.941" transform="translate(-353.202 834.514)" fill="none" stroke="#7f7f7f" stroke-width="0.705" opacity="0.4"/>
          <path id="Tracciato_1365" data-name="Tracciato 1365" d="M381.591-769.044q8.55,0,17.1,168.354" transform="translate(-353.091 834.514)" fill="none" stroke="#7f7f7f" stroke-width="0.705" opacity="0.4"/>
          <line id="Linea_219" data-name="Linea 219" x2="6.147" y2="74.758" transform="translate(0 65.755)" fill="none" stroke="#7f7f7f" stroke-width="0.705" opacity="0.4"/>
          <path id="Tracciato_1366" data-name="Tracciato 1366" d="M398.59-601.691c.438,8.615.875,121.588,1.313,121.588" transform="translate(-352.989 835.515)" fill="none" stroke="#7f7f7f" stroke-width="0.705" opacity="0.4"/>
          <path id="Tracciato_1367" data-name="Tracciato 1367" d="M399.895-479.992c.87,0,1.74-102.627,2.61-140.294" transform="translate(-352.981 835.403)" fill="none" stroke="#7f7f7f" stroke-width="0.705" opacity="0.4"/>
          <path id="Tracciato_1368" data-name="Tracciato 1368" d="M402.489-619.452q3.241-140.295,6.48-140.294" transform="translate(-352.966 834.57)" fill="none" stroke="#7f7f7f" stroke-width="0.705" opacity="0.4"/>
          <path id="Tracciato_1369" data-name="Tracciato 1369" d="M408.931-759.746c2.587,0,5.175,159,7.762,159" transform="translate(-352.927 834.57)" fill="none" stroke="#7f7f7f" stroke-width="0.705" opacity="0.4"/>
          <path id="Tracciato_1370" data-name="Tracciato 1370" d="M416.647-600.3c1.773,0,3.547-233.824,5.32-233.824" transform="translate(-352.881 834.125)" fill="none" stroke="#7f7f7f" stroke-width="0.705" opacity="0.4"/>
          <path id="Tracciato_1371" data-name="Tracciato 1371" d="M421.935-834.125c1.225,0,2.451,233.824,3.675,233.824" transform="translate(-352.849 834.125)" fill="none" stroke="#7f7f7f" stroke-width="0.705" opacity="0.4"/>
          <path id="Tracciato_1372" data-name="Tracciato 1372" d="M425.588-600.3c1.486,0,2.973-233.824,4.458-233.824" transform="translate(-352.828 834.125)" fill="none" stroke="#7f7f7f" stroke-width="0.705" opacity="0.4"/>
          <path id="Tracciato_1373" data-name="Tracciato 1373" d="M434.144-769.044c.865,27.289,1.729,289.941,2.594,289.941" transform="translate(-352.776 834.514)" fill="none" stroke="#7f7f7f" stroke-width="0.705" opacity="0.4"/>
          <path id="Tracciato_1374" data-name="Tracciato 1374" d="M436.723-479.381c3.673,0,7.345-243.176,11.017-243.176" transform="translate(-352.761 834.792)" fill="none" stroke="#7f7f7f" stroke-width="0.705" opacity="0.4"/>
          <path id="Tracciato_1375" data-name="Tracciato 1375" d="M447.675-722.557c3.66,0,7.318,140.294,10.978,140.294" transform="translate(-352.696 834.792)" fill="none" stroke="#7f7f7f" stroke-width="0.705" opacity="0.4"/>
          <path id="Tracciato_1376" data-name="Tracciato 1376" d="M458.588-582.708c1.1,0,2.193-51.45,3.291-65.47" transform="translate(-352.63 835.237)" fill="none" stroke="#7f7f7f" stroke-width="0.705" opacity="0.4"/>
          <path id="Tracciato_1377" data-name="Tracciato 1377" d="M461.859-648.067c.886-11.334,1.773-18.706,2.66-18.706" transform="translate(-352.611 835.125)" fill="none" stroke="#7f7f7f" stroke-width="0.705" opacity="0.4"/>
          <path id="Tracciato_1378" data-name="Tracciato 1378" d="M464.5-666.773c2.072,0,4.145,18.706,6.217,18.706" transform="translate(-352.595 835.125)" fill="none" stroke="#7f7f7f" stroke-width="0.705" opacity="0.4"/>
          <path id="Tracciato_1379" data-name="Tracciato 1379" d="M470.683-647.9c2.189,0,4.378-46.765,6.567-46.765" transform="translate(-352.558 834.959)" fill="none" stroke="#7f7f7f" stroke-width="0.705" opacity="0.4"/>
          <path id="Tracciato_1380" data-name="Tracciato 1380" d="M477.211-694.665c.632,0,1.265,33.059,1.9,46.765" transform="translate(-352.519 834.959)" fill="none" stroke="#7f7f7f" stroke-width="0.705" opacity="0.4"/>
          <path id="Tracciato_1381" data-name="Tracciato 1381" d="M479.1-648.178c2.295,49.753,4.589,50.1,6.884,74.824" transform="translate(-352.508 835.237)" fill="none" stroke="#7f7f7f" stroke-width="0.705" opacity="0.4"/>
        </g>
      </g>
      <g id="etichhette" transform="translate(51.921 2199.189)">
        <g id="Raggruppa_447" data-name="Raggruppa 447" transform="translate(3.021 0)">
          <g id="Raggruppa_446" data-name="Raggruppa 446">
            <g id="Raggruppa_443" data-name="Raggruppa 443" transform="translate(67.185 104.298)">
              <text id="erotic_scene" data-name="erotic scene" transform="translate(3.907 28.982) rotate(-51.389)" font-size="7" font-family="HKGrotesk-Regular, HK Grotesk"><tspan x="0" y="0">erotic scene</tspan></text>
            </g>
          </g>
        </g>
        <g id="Raggruppa_24970" data-name="Raggruppa 24970" transform="translate(149.021 0)">
          <g id="Raggruppa_446-2" data-name="Raggruppa 446">
            <g id="Raggruppa_443-2" data-name="Raggruppa 443" transform="translate(67.185 104.298)">
              <text id="erotic_scene-2" data-name="erotic scene" transform="translate(3.907 28.982) rotate(-51.389)" font-size="7" font-family="HKGrotesk-Regular, HK Grotesk"><tspan x="0" y="0">erotic scene</tspan></text>
            </g>
          </g>
        </g>
        <g id="Raggruppa_24971" data-name="Raggruppa 24971" transform="translate(177.021 0)">
          <g id="Raggruppa_446-3" data-name="Raggruppa 446">
            <g id="Raggruppa_443-3" data-name="Raggruppa 443" transform="translate(67.185 104.298)">
              <text id="erotic_scene-3" data-name="erotic scene" transform="translate(3.907 28.982) rotate(-51.389)" font-size="7" font-family="HKGrotesk-Regular, HK Grotesk"><tspan x="0" y="0">erotic scene</tspan></text>
            </g>
          </g>
        </g>
        <g id="Raggruppa_24972" data-name="Raggruppa 24972" transform="translate(379.021 0)">
          <g id="Raggruppa_446-4" data-name="Raggruppa 446">
            <g id="Raggruppa_443-4" data-name="Raggruppa 443" transform="translate(67.185 104.298)">
              <text id="erotic_scene-4" data-name="erotic scene" transform="translate(3.907 28.982) rotate(-51.389)" font-size="7" font-family="HKGrotesk-Regular, HK Grotesk"><tspan x="0" y="0">erotic scene</tspan></text>
            </g>
          </g>
        </g>
        <g id="Raggruppa_4802" data-name="Raggruppa 4802" transform="translate(303.681 -109.676)">
          <text id="revelation" transform="translate(118.159 131.122) rotate(-51.389)" font-size="7" font-family="HKGrotesk-Regular, HK Grotesk"><tspan x="0" y="0">revelation</tspan></text>
        </g>
        <path id="Tracciato_1382" data-name="Tracciato 1382" d="M105.047-728.684C91.7-728.693,80.27-728.7,73-728.7" transform="translate(-3.188 865.811)" fill="none" stroke="#5151fc" stroke-miterlimit="10" stroke-width="0.5"/>
        <path id="Tracciato_1383" data-name="Tracciato 1383" d="M212.651-728.6c-23.19-.021-75.979-.061-107.794-.083" transform="translate(-2.998 865.811)" fill="none" stroke="#5151fc" stroke-miterlimit="10" stroke-width="0.5"/>
        <path id="Tracciato_1384" data-name="Tracciato 1384" d="M290.884-720.6c-28.595,1.568-49.517,2.738-49.517,2.738-7.243,0-15.173-10.726-22.773-10.726l-16.607-.015" transform="translate(-2.417 865.812)" fill="none" stroke="#5151fc" stroke-miterlimit="10" stroke-width="0.5"/>
        <path id="Tracciato_1385" data-name="Tracciato 1385" d="M386.546-725.7c-27.718,1.454-71.369,3.725-96.19,5.085" transform="translate(-1.889 865.829)" fill="none" stroke="#5151fc" stroke-miterlimit="10" stroke-width="0.5"/>
        <path id="Tracciato_1386" data-name="Tracciato 1386" d="M408.658-726.912c-10.706.533-22.874,1.159-35.657,1.83" transform="translate(-1.395 865.822)" fill="none" stroke="#5151fc" stroke-miterlimit="10" stroke-width="0.5"/>
        <path id="Tracciato_1387" data-name="Tracciato 1387" d="M421.884-727.564c-4.134.2-8.638.418-13.438.656" transform="translate(-1.183 865.818)" fill="none" stroke="#5151fc" stroke-miterlimit="10" stroke-width="0.5"/>
        <path id="Tracciato_1388" data-name="Tracciato 1388" d="M431.686-728.018c-2.982.133-6.291.286-9.882.457" transform="translate(-1.103 865.815)" fill="none" stroke="#5151fc" stroke-miterlimit="10" stroke-width="0.5"/>
        <path id="Tracciato_1389" data-name="Tracciato 1389" d="M439.032-728.331c-2.158.086-4.64.191-7.4.315" transform="translate(-1.044 865.813)" fill="none" stroke="#5151fc" stroke-miterlimit="10" stroke-width="0.5"/>
        <path id="Tracciato_1390" data-name="Tracciato 1390" d="M447.582-728.586c-1.466,0-4.426.091-8.594.257" transform="translate(-1 865.812)" fill="none" stroke="#5151fc" stroke-miterlimit="10" stroke-width="0.5"/>
        <path id="Tracciato_1391" data-name="Tracciato 1391" d="M447.43-728.586" transform="translate(-0.95 865.812)" fill="none" stroke="#5151fc" stroke-miterlimit="10" stroke-width="1"/>
        <path id="Tracciato_1392" data-name="Tracciato 1392" d="M99.6-847.872" transform="translate(-3.029 865.099)" fill="#5151fc"/>
      </g>
      <g id="pallini" transform="translate(50 2217.274)">
        <circle id="Ellisse_73" data-name="Ellisse 73" cx="1.085" cy="1.085" r="1.085" transform="translate(227.332 366.323)"/>
        <circle id="Ellisse_74" data-name="Ellisse 74" cx="1.085" cy="1.085" r="1.085" transform="translate(362.449 366.995)"/>
        <circle id="Ellisse_75" data-name="Ellisse 75" cx="1.085" cy="1.085" r="1.085" transform="translate(399.354 366.323)"/>
        <circle id="Ellisse_76" data-name="Ellisse 76" cx="1.085" cy="1.085" r="1.085" transform="translate(436.555 366.323)"/>
        <circle id="Ellisse_77" data-name="Ellisse 77" cx="1.085" cy="1.085" r="1.085" transform="translate(193.4 272.817)"/>
        <circle id="Ellisse_78" data-name="Ellisse 78" cx="1.085" cy="1.085" r="1.085" transform="translate(47.997 272.817)"/>
        <circle id="Ellisse_79" data-name="Ellisse 79" cx="1.085" cy="1.085" r="1.085" transform="translate(1.581 337.937)"/>
        <circle id="Ellisse_80" data-name="Ellisse 80" cx="1.085" cy="1.085" r="1.085" transform="translate(40.2 244.6)"/>
        <circle id="Ellisse_81" data-name="Ellisse 81" cx="1.085" cy="1.085" r="1.085" transform="translate(45.798 179.352)"/>
        <circle id="Ellisse_82" data-name="Ellisse 82" cx="1.085" cy="1.085" r="1.085" transform="translate(71.519 122.86)"/>
        <circle id="Ellisse_83" data-name="Ellisse 83" cx="1.085" cy="1.085" r="1.085" transform="translate(12.01 244.6)"/>
        <circle id="Ellisse_84" data-name="Ellisse 84" cx="1.085" cy="1.085" r="1.085" transform="translate(21.122 225.944)"/>
        <circle id="Ellisse_85" data-name="Ellisse 85" cx="1.085" cy="1.085" r="1.085" transform="translate(7.973 225.92)"/>
        <circle id="Ellisse_86" data-name="Ellisse 86" cx="1.085" cy="1.085" r="1.085" transform="translate(190.438 204.725)"/>
        <circle id="Ellisse_87" data-name="Ellisse 87" cx="1.085" cy="1.085" r="1.085" transform="translate(189.951 198.153)"/>
        <circle id="Ellisse_88" data-name="Ellisse 88" cx="1.085" cy="1.085" r="1.085" transform="translate(186.41 1.607)"/>
        <circle id="Ellisse_89" data-name="Ellisse 89" cx="1.085" cy="1.085" r="1.085" transform="translate(218.42 1.607)"/>
        <circle id="Ellisse_90" data-name="Ellisse 90" cx="1.085" cy="1.085" r="1.085" transform="translate(421.538 10.784)"/>
        <circle id="Ellisse_91" data-name="Ellisse 91" cx="1.085" cy="1.085" r="1.085" transform="translate(429.737 10.784)"/>
        <circle id="Ellisse_92" data-name="Ellisse 92" cx="1.085" cy="1.085" r="1.085" transform="translate(215.736 76.575)"/>
        <circle id="Ellisse_93" data-name="Ellisse 93" cx="1.085" cy="1.085" r="1.085" transform="translate(217.16 122.815)"/>
        <circle id="Ellisse_94" data-name="Ellisse 94" cx="1.085" cy="1.085" r="1.085" transform="translate(239.553 122.815)"/>
        <circle id="Ellisse_95" data-name="Ellisse 95" cx="1.085" cy="1.085" r="1.085" transform="translate(447.615 122.815)"/>
        <circle id="Ellisse_96" data-name="Ellisse 96" cx="1.085" cy="1.085" r="1.085" transform="translate(352.16 76.527)"/>
        <circle id="Ellisse_97" data-name="Ellisse 97" cx="1.085" cy="1.085" r="1.085" transform="translate(358.09 151.212)"/>
        <circle id="Ellisse_98" data-name="Ellisse 98" cx="1.085" cy="1.085" r="1.085" transform="translate(477.316 151.212)"/>
        <circle id="Ellisse_99" data-name="Ellisse 99" cx="1.085" cy="1.085" r="1.085" transform="translate(464.519 180.241)"/>
        <circle id="Ellisse_100" data-name="Ellisse 100" cx="1.085" cy="1.085" r="1.085" transform="translate(470.607 198.504)"/>
        <circle id="Ellisse_101" data-name="Ellisse 101" cx="1.085" cy="1.085" r="1.085" transform="translate(416.05 244.1)"/>
        <circle id="Ellisse_102" data-name="Ellisse 102" cx="1.085" cy="1.085" r="1.085" transform="translate(425.257 244.1)"/>
        <circle id="Ellisse_103" data-name="Ellisse 103" cx="1.085" cy="1.085" r="1.085" transform="translate(397.903 244.1)"/>
        <circle id="Ellisse_104" data-name="Ellisse 104" cx="1.085" cy="1.085" r="1.085" transform="translate(401.884 226.139)"/>
        <circle id="Ellisse_105" data-name="Ellisse 105" cx="1.085" cy="1.085" r="1.085" transform="translate(380.817 76.527)"/>
        <circle id="Ellisse_106" data-name="Ellisse 106" cx="1.085" cy="1.085" r="1.085" transform="translate(433.809 76.527)"/>
        <circle id="Ellisse_107" data-name="Ellisse 107" cx="1.085" cy="1.085" r="1.085" transform="translate(408.512 85.898)"/>
        <circle id="Ellisse_108" data-name="Ellisse 108" cx="1.085" cy="1.085" r="1.085" transform="translate(196.808 198.153)"/>
        <circle id="Ellisse_109" data-name="Ellisse 109" cx="1.085" cy="1.085" r="1.085" transform="translate(206.22 198.153)"/>
        <circle id="Ellisse_110" data-name="Ellisse 110" cx="1.085" cy="1.085" r="1.085" transform="translate(204.996 205.409)"/>
        <circle id="Ellisse_111" data-name="Ellisse 111" cx="1.085" cy="1.085" r="1.085" transform="translate(221.073 272.817)"/>
        <circle id="Ellisse_112" data-name="Ellisse 112" cx="1.085" cy="1.085" r="1.085" transform="translate(235.016 272.817)"/>
        <circle id="Ellisse_113" data-name="Ellisse 113" cx="1.085" cy="1.085" r="1.085" transform="translate(486.088 272.817)"/>
        <circle id="Ellisse_114" data-name="Ellisse 114" cx="1.085" cy="1.085" r="1.085" transform="translate(458.5 262.931)"/>
        <circle id="Ellisse_115" data-name="Ellisse 115" cx="1.085" cy="1.085" r="1.085" transform="translate(231.906 244.822)"/>
        <circle id="Ellisse_116" data-name="Ellisse 116" cx="1.085" cy="1.085" r="1.085" transform="translate(223.54 244.822)"/>
        <circle id="Ellisse_117" data-name="Ellisse 117" cx="1.085" cy="1.085" r="1.085" transform="translate(210.883 244.822)"/>
        <circle id="Ellisse_118" data-name="Ellisse 118" cx="1.085" cy="1.085" r="1.085" transform="translate(200.908 244.822)"/>
        <circle id="Ellisse_119" data-name="Ellisse 119" cx="1.085" cy="1.085" r="1.085" transform="translate(244.241 272.817)"/>
        <circle id="Ellisse_120" data-name="Ellisse 120" cx="1.085" cy="1.085" r="1.085" transform="translate(53.742 85.381)"/>
        <circle id="Ellisse_121" data-name="Ellisse 121" cx="1.085" cy="1.085" r="1.085" transform="translate(56.593 76.099)"/>
        <circle id="Ellisse_122" data-name="Ellisse 122" cx="1.085" cy="1.085" r="1.085" transform="translate(34.167 38.96)"/>
        <circle id="Ellisse_123" data-name="Ellisse 123" cx="1.085" cy="1.085" r="1.085" transform="translate(61.337 29.688)"/>
        <circle id="Ellisse_124" data-name="Ellisse 124" cx="1.085" cy="1.085" r="1.085" transform="translate(79.357 10.734)"/>
        <circle id="Ellisse_125" data-name="Ellisse 125" cx="1.085" cy="1.085" r="1.085" transform="translate(30.138 76.099)"/>
        <circle id="Ellisse_334" data-name="Ellisse 334" cx="1.668" cy="1.668" r="1.668" transform="translate(1.237 337.683)" stroke="#7f7f7f" stroke-miterlimit="10" stroke-width="1"/>
        <circle id="Ellisse_335" data-name="Ellisse 335" cx="1.668" cy="1.668" r="1.668" transform="translate(186.237 0.683)" stroke="#7f7f7f" stroke-miterlimit="10" stroke-width="1"/>
        <circle id="Ellisse_336" data-name="Ellisse 336" cx="1.668" cy="1.668" r="1.668" transform="translate(243.237 272.683)" stroke="#7f7f7f" stroke-miterlimit="10" stroke-width="1"/>
      </g>
      <g id="notes" transform="translate(52.641 2161)">
        <rect id="Rettangolo_193" data-name="Rettangolo 193" width="44.246" height="10.988" rx="3" transform="translate(455.336 175.426)" fill="#fff" stroke="#5151fc" stroke-miterlimit="10" stroke-width="0.223"/>
        <g id="Raggruppa_456" data-name="Raggruppa 456" transform="translate(63.891 175.414)">
          <circle id="Ellisse_132" data-name="Ellisse 132" cx="5.363" cy="5.363" r="5.363" fill="#fff" stroke="#5151fc" stroke-miterlimit="10" stroke-width="0.5"/>
          <circle id="Ellisse_133" data-name="Ellisse 133" cx="2.162" cy="2.162" r="2.162" transform="translate(3.253 3.099)" fill="#5151fc"/>
        </g>
        <g id="Raggruppa_457" data-name="Raggruppa 457" transform="translate(210.094 175.414)">
          <circle id="Ellisse_134" data-name="Ellisse 134" cx="5.363" cy="5.363" r="5.363" fill="#fff" stroke="#5151fc" stroke-miterlimit="10" stroke-width="0.5"/>
          <circle id="Ellisse_135" data-name="Ellisse 135" cx="2.162" cy="2.162" r="2.162" transform="translate(3.253 3.099)" fill="#5151fc"/>
        </g>
        <g id="Raggruppa_463" data-name="Raggruppa 463" transform="translate(232.868 175.414)">
          <circle id="Ellisse_146" data-name="Ellisse 146" cx="5.363" cy="5.363" r="5.363" fill="#fff" stroke="#5151fc" stroke-miterlimit="10" stroke-width="0.5"/>
          <circle id="Ellisse_147" data-name="Ellisse 147" cx="2.162" cy="2.162" r="2.162" transform="translate(3.253 3.099)" fill="#5151fc"/>
        </g>
        <g id="Raggruppa_464" data-name="Raggruppa 464" transform="translate(440.397 175.414)">
          <circle id="Ellisse_148" data-name="Ellisse 148" cx="5.363" cy="5.363" r="5.363" fill="#fff" stroke="#5151fc" stroke-miterlimit="10" stroke-width="0.5"/>
          <circle id="Ellisse_149" data-name="Ellisse 149" cx="2.162" cy="2.162" r="2.162" transform="translate(3.253 3.099)" fill="#5151fc"/>
        </g>
        <text id="LUDMILLA" transform="translate(457.629 184.102)" fill="#5151fc" font-size="8.5" font-family="HKGrotesk-SemiBold, HK Grotesk" font-weight="600"><tspan x="0" y="0">LUDMILLA</tspan></text>
      </g>
      <text id="i4" transform="translate(52.641 2206.903)" font-size="10" font-family="HKGrotesk-Regular, HK Grotesk"><tspan x="0" y="0">i4</tspan></text>
      <text id="i5" transform="translate(237.278 2206.903)" font-size="10" font-family="HKGrotesk-Regular, HK Grotesk"><tspan x="0" y="0">i5</tspan></text>
      <text id="t6-2" data-name="t6" transform="translate(398.38 2207.903)" font-size="10" font-family="HKGrotesk-Regular, HK Grotesk"><tspan x="0" y="0">t6</tspan></text>
    </g>
    <g id="tensione_erotica" data-name="tensione erotica" transform="translate(-51 -2144)">
      <text id="Erotic_tension:_building_from_literature_" data-name="Erotic tension: building from literature… " transform="translate(53.086 2604)" fill="#5151fc" font-size="10" font-family="HKGrotesk-Regular, HK Grotesk"><tspan x="0" y="10">Erotic tension: building from literature… </tspan></text>
      <text id="_into_reality_" data-name="…into reality
" transform="translate(399.086 2604)" fill="#5151fc" font-size="10" font-family="HKGrotesk-Regular, HK Grotesk"><tspan x="0" y="10">…into reality</tspan></text>
    </g>
    <g id="Raggruppa_4803" data-name="Raggruppa 4803" transform="translate(415.038 84.414)">
      <circle id="Ellisse_148-2" data-name="Ellisse 148" cx="5.363" cy="5.363" r="5.363" fill="#fff" stroke="#5151fc" stroke-miterlimit="10" stroke-width="0.5"/>
      <circle id="Ellisse_149-2" data-name="Ellisse 149" cx="2.162" cy="2.162" r="2.162" transform="translate(3.253 3.099)" fill="#5151fc"/>
    </g>
    <g id="tensione_erotica-2" data-name="tensione erotica" transform="translate(383 -2077)">
      <text id="Earlier_relationship_between_Ludmilla_and_Ermes_Marana" data-name="Earlier relationship between Ludmilla and Ermes Marana" transform="translate(53.086 2161)" fill="#5151fc" font-size="10" font-family="HKGrotesk-Italic, HK Grotesk" font-style="italic"><tspan x="0" y="10">Earlier relationship </tspan><tspan x="0" y="22">between Ludmilla and </tspan><tspan x="0" y="34">Ermes Marana</tspan></text>
    </g>
    <text id="Both_scenes_involve_a_woman_and_two_men:_the_protagonist_and_his_rival_with_whom_he_has_a_violent_conflict" data-name="Both scenes involve a woman and two men: 
the protagonist and his rival, with whom he has a violent conflict" transform="translate(0.086 -1)" font-size="10" font-family="HKGrotesk-Regular, HK Grotesk"><tspan x="0" y="10">Both scenes involve a woman and two men: </tspan><tspan x="0" y="22">the protagonist and his rival, with whom he has a violent conflict</tspan></text>
  </g>
</svg>
