<?xml version="1.0" encoding="utf-8"?>
<!-- Generator: Adobe Illustrator 25.1.0, SVG Export Plug-In . SVG Version: 6.00 Build 0)  -->
<svg version="1.1" id="Livello_1" xmlns="http://www.w3.org/2000/svg" xmlns:xlink="http://www.w3.org/1999/xlink" x="0px" y="0px"
	 viewBox="0 0 250 209" enable-background="new 0 0 250 209" xml:space="preserve">
<g>
	<defs>
		<rect id="SVGID_1_" y="0" width="250" height="209"/>
	</defs>
	<clipPath id="SVGID_2_">
		<use xlink:href="#SVGID_1_"  overflow="visible"/>
	</clipPath>
	<g id="info_01" clip-path="url(#SVGID_2_)">
		<g id="Raggruppa_4797">
			<g id="Raggruppa_4796" transform="translate(9 -91)">
				
					<rect id="Rettangolo_309" x="16.065" y="190.91901" opacity="0.999" fill="#E2E2E2" enable-background="new    " width="22.408" height="40.72"/>
				
					<rect id="Rettangolo_310" x="59.059" y="190.91901" opacity="0.999" fill="#E2E2E2" enable-background="new    " width="35.03" height="40.72"/>
				
					<rect id="Rettangolo_312" x="113.775" y="190.91901" opacity="0.999" fill="#E2E2E2" enable-background="new    " width="54.728" height="40.72"/>
				
					<rect id="Rettangolo_313" x="205.56599" y="190.91901" opacity="0.999" fill="#E2E2E2" enable-background="new    " width="36.288" height="40.72"/>
				<rect id="Rettangolo_317" x="168.13" y="117.101" fill="#E2E2E2" width="37.436" height="40.72"/>
				<rect id="Rettangolo_314" x="-5.196" y="117.101" fill="#E2E2E2" width="21.261" height="40.72"/>
				<rect id="Rettangolo_315" x="38.405" y="117.101" fill="#E2E2E2" width="21.261" height="40.72"/>
				<rect id="Rettangolo_316" x="95.576" y="117.101" fill="#E2E2E2" width="18.005" height="40.72"/>
				<path id="Tracciato_1942" fill="none" stroke="#000000" stroke-width="0.5" stroke-miterlimit="10" d="M-5.119,122.707
					c4.57,0,4.57,27.539,9.142,27.539s4.57-27.539,9.141-27.539s4.567,27.539,9.136,27.539s4.569-27.539,9.139-27.539
					s4.57,27.539,9.142,27.539s4.568-27.539,9.137-27.539s4.572,27.539,9.142,27.539s4.57-27.539,9.14-27.539
					s4.571,27.539,9.141,27.539s4.57-27.539,9.141-27.539s4.572,27.539,9.143,27.539s4.572-27.539,9.142-27.539
					s4.572,27.539,9.144,27.539c4.57201,0,4.573-27.539,9.144-27.539s4.573,27.539,9.14399,27.539
					c4.571,0,4.573-27.539,9.144-27.539s4.573,27.539,9.145,27.539s4.573-27.539,9.147-27.539s4.573,27.539,9.144,27.539
					s4.573-27.539,9.144-27.539s4.57201,27.539,9.144,27.539s4.57201-27.539,9.14301-27.539s4.57401,27.539,9.147,27.539
					s4.575-27.539,9.14999-27.539s4.573,27.539,9.147,27.539s4.576-27.539,9.15201-27.539s4.577,27.539,9.153,27.539"/>
				<path id="Tracciato_1943" fill="none" stroke="#000000" stroke-width="0.5" stroke-miterlimit="10" d="M-5.119,198.978
					c4.57,0,4.57,27.539,9.142,27.539s4.57-27.539,9.141-27.539s4.568,27.539,9.136,27.539s4.569-27.539,9.139-27.539
					s4.57,27.539,9.142,27.539s4.568-27.539,9.137-27.539s4.572,27.539,9.142,27.539s4.57-27.539,9.14-27.539
					s4.572,27.539,9.142,27.539s4.57-27.539,9.141-27.539s4.572,27.539,9.143,27.539s4.572-27.539,9.142-27.539
					s4.572,27.539,9.144,27.539s4.57301-27.539,9.144-27.539s4.573,27.539,9.14399,27.539c4.571,0,4.573-27.539,9.144-27.539
					s4.573,27.539,9.145,27.539s4.573-27.539,9.147-27.539s4.573,27.539,9.144,27.539s4.573-27.539,9.144-27.539
					s4.57201,27.539,9.144,27.539s4.57201-27.539,9.14301-27.539s4.57401,27.539,9.147,27.539s4.575-27.539,9.14999-27.539
					s4.573,27.539,9.147,27.539s4.576-27.539,9.15201-27.539s4.577,27.539,9.153,27.539"/>
				<path id="Tracciato_1944" fill="none" stroke="#000000" stroke-width="0.5" stroke-miterlimit="10" d="M-6.106,269.04599
					c11.2,0,11.2,27.539,22.408,27.539s11.202-27.539,22.41-27.539c2.375,0,4.247,1.23801,6.01,3.41702
					c5.7,7.022,7.569,24.12198,16.4,24.12198c11.2,0,11.2-27.539,22.409-27.539s11.205,27.539,22.41,27.539
					s11.206-27.539,22.41299-27.539c11.207,0,11.20599,27.539,22.41299,27.539s11.20599-27.539,22.41299-27.539
					s11.207,27.539,22.414,27.539s11.21002-27.539,22.41002-27.539s11.209,27.539,22.41701,27.539"/>
				
					<path id="Tracciato_1945" fill="none" stroke="#5151FC" stroke-width="0.5" stroke-miterlimit="10" stroke-dasharray="0.349" d="
					M15.992,190.75301V234.853c0,11.5,22.566,13.873,22.566,25.45502V297.776"/>
				
					<line id="Linea_298" fill="none" stroke="#5151FC" stroke-width="0.5" stroke-miterlimit="10" stroke-dasharray="0.349" x1="-5.196" y1="190.91901" x2="-5.196" y2="296.56302"/>
				
					<path id="Tracciato_1946" fill="none" stroke="#5151FC" stroke-width="0.5" stroke-miterlimit="10" stroke-dasharray="0.349" d="
					M94.619,190.91901v44.78c0,12.10001,11.542,12.44901,11.542,22.01599"/>
				
					<line id="Linea_299" fill="none" stroke="#5151FC" stroke-width="0.5" stroke-miterlimit="10" stroke-dasharray="0.349" x1="113.775" y1="190.91901" x2="113.775" y2="231.63901"/>
				
					<path id="Tracciato_1947" fill="none" stroke="#5151FC" stroke-width="0.5" stroke-miterlimit="10" stroke-dasharray="0.349" d="
					M150.80901,252.11501"/>
				
					<path id="Tracciato_1948" fill="none" stroke="#5151FC" stroke-width="0.5" stroke-miterlimit="10" stroke-dasharray="0.349" d="
					M150.869,296.05301v-41.17599c0-10.62201,17.308-10.392,17.308-23.239"/>
				
					<path id="Tracciato_1949" fill="none" stroke="#5151FC" stroke-width="0.5" stroke-miterlimit="10" stroke-dasharray="0.349" d="
					M240.33,296.05301v-39.13202c0-9.70598-34.763-9.87599-34.763-22.08499v-43.91699"/>
				
					<path id="Tracciato_1950" fill="none" stroke="#5151FC" stroke-width="0.5" stroke-miterlimit="10" stroke-dasharray="0.349" d="
					M168.05101,231.638v-40.71899"/>
				
					<path id="Tracciato_1951" fill="none" stroke="#5151FC" stroke-width="0.5" stroke-miterlimit="10" stroke-dasharray="0.349" d="
					M113.775,231.638c0,13.35701,37.09301,13.10001,37.09301,24.505"/>
				
					<line id="Linea_300" fill="none" stroke="#5151FC" stroke-width="0.5" stroke-miterlimit="10" stroke-dasharray="0.349" x1="-4.987" y1="113.281" x2="-4.987" y2="160.53799"/>
				
					<line id="Linea_301" fill="none" stroke="#5151FC" stroke-width="0.5" stroke-miterlimit="10" stroke-dasharray="0.349" x1="15.992" y1="113.281" x2="15.992" y2="160.53799"/>
				
					<line id="Linea_302" fill="none" stroke="#5151FC" stroke-width="0.5" stroke-miterlimit="10" stroke-dasharray="0.349" x1="38.688" y1="113.281" x2="38.688" y2="160.53799"/>
				
					<line id="Linea_303" fill="none" stroke="#5151FC" stroke-width="0.5" stroke-miterlimit="10" stroke-dasharray="0.349" x1="95.624" y1="113.281" x2="95.624" y2="160.53799"/>
				
					<line id="Linea_304" fill="none" stroke="#5151FC" stroke-width="0.5" stroke-miterlimit="10" stroke-dasharray="0.349" x1="113.617" y1="113.281" x2="113.617" y2="160.53799"/>
				
					<line id="Linea_305" fill="none" stroke="#5151FC" stroke-width="0.5" stroke-miterlimit="10" stroke-dasharray="0.349" x1="168.17599" y1="113.281" x2="168.17599" y2="160.53799"/>
				
					<line id="Linea_306" fill="none" stroke="#5151FC" stroke-width="0.5" stroke-miterlimit="10" stroke-dasharray="0.349" x1="205.748" y1="113.281" x2="205.748" y2="160.53799"/>
				
					<line id="Linea_307" fill="none" stroke="#5151FC" stroke-width="0.5" stroke-miterlimit="10" stroke-dasharray="0.349" x1="59.667" y1="113.281" x2="59.667" y2="160.53799"/>
				
					<path id="Tracciato_1952" fill="none" stroke="#5151FC" stroke-width="0.5" stroke-miterlimit="10" stroke-dasharray="0.349" d="
					M38.405,190.91901V234.819c0,11.86401,0.159,25.79401,0.159,25.79401l-0.008,37.19998"/>
				
					<path id="Tracciato_1953" fill="none" stroke="#5151FC" stroke-width="0.5" stroke-miterlimit="10" stroke-dasharray="0.349" d="
					M59.579,190.91901V234.819h0.086c0,12.033,46.5,12.20001,46.5,23.616v38.15002"/>
				<g enable-background="new    ">
					<path d="M-6.86084,94.03436h4.56787v0.65918h-3.85791v2.42871h3.46777v0.66016h-3.46777v2.55859h3.85791v0.65918h-4.56787
						V94.03436z"/>
					<path d="M3.15723,97.98163v3.01855H2.46777v-2.84863c0-1.05957-0.33984-1.54883-1.07959-1.54883
						c-0.92969,0-1.46924,0.7998-1.46924,2.18848v2.20898h-0.68945v-4.92773h0.68945v0.71973
						c0.31982-0.49902,0.91943-0.79883,1.62891-0.79883C2.60742,95.99335,3.15723,96.67303,3.15723,97.98163z"/>
					<path d="M6.9082,100.95038c-0.25977,0.08008-0.52002,0.12988-0.74951,0.12988c-0.65967,0-1.13965-0.37012-1.13965-1.23926
						v-3.18848H4.19971v-0.58008h0.81934v-1.37891l0.68994-0.51953v1.89844h1.18896v0.58008H5.70898v3.09863
						c0,0.47949,0.21973,0.69922,0.60938,0.69922c0.16992,0,0.35986-0.04004,0.57959-0.10938L6.9082,100.95038z"/>
					<path d="M8.15918,94.03436H8.9585v1.01953H8.15918V94.03436z M8.21924,96.07245h0.68945v4.92773H8.21924V96.07245z"/>
					<path d="M13.72754,96.20331l-0.33984,0.55957c-0.22949-0.10059-0.43945-0.15039-0.64941-0.15039
						c-0.75977,0-1.31934,0.56934-1.31934,1.63965v2.74805h-0.68945v-4.92773h0.68945v0.74023
						c0.35986-0.64941,0.95947-0.81934,1.45898-0.81934C13.17773,95.99335,13.45801,96.05292,13.72754,96.20331z"/>
					<path d="M18.19678,98.72186h-3.60791c0.02002,1.0791,0.61963,1.72852,1.58936,1.72852
						c0.53955,0,0.96924-0.13965,1.41895-0.61914l0.47998,0.41895c-0.57959,0.61035-1.14941,0.83008-1.90918,0.83008
						c-1.49902,0-2.26855-1.11914-2.26855-2.51855c0-1.38965,0.75977-2.56836,2.18896-2.56836
						c1.50879,0,2.13867,1.17871,2.13867,2.29785C18.22705,98.43182,18.2168,98.60175,18.19678,98.72186z M14.58887,98.14178
						h2.97852c0-0.02051-0.01025-0.07031-0.01025-0.16016c-0.0498-0.7998-0.55957-1.40918-1.46875-1.40918
						C15.19873,96.57245,14.64893,97.27264,14.58887,98.14178z"/>
					<path d="M26.85645,98.53143c0,1.46973-0.74951,2.54883-2.18896,2.54883c-0.71924,0-1.26904-0.28027-1.62891-0.73926v2.69824
						h-0.68945v-6.9668h0.68945v0.66016c0.36963-0.47949,0.92969-0.75,1.62891-0.75
						C26.03711,95.9826,26.85645,96.99237,26.85645,98.53143z M26.16699,98.53143c0-1.16895-0.59961-1.93848-1.59912-1.93848
						c-0.98975,0-1.58936,0.76953-1.58936,1.93848c0,1.11914,0.5498,1.93945,1.58936,1.93945
						C25.61719,100.47089,26.16699,99.65057,26.16699,98.53143z"/>
					<path d="M28.24902,99.93085v-5.89648h0.68945v5.85645c0,0.33984,0.12012,0.55957,0.44971,0.55957
						c0.1499,0,0.31982-0.04004,0.46973-0.08984l0.01025,0.58984c-0.20996,0.06934-0.45996,0.12988-0.67969,0.12988
						C28.61865,101.08026,28.24902,100.70038,28.24902,99.93085z"/>
					<path d="M30.55957,98.53143c0-1.45898,0.94922-2.53809,2.3584-2.53809c1.39941,0,2.36865,1.0791,2.36865,2.53809
						c0,1.44922-0.95947,2.54883-2.36865,2.54883S30.55957,99.99042,30.55957,98.53143z M34.59717,98.53143
						c0-1.11914-0.62988-1.92871-1.6792-1.92871c-1.05957,0-1.66895,0.81934-1.66895,1.92871
						c0,1.11914,0.61963,1.93945,1.66895,1.93945C33.97754,100.47089,34.59717,99.63104,34.59717,98.53143z"/>
					<path d="M38.67773,100.95038c-0.25977,0.08008-0.52002,0.12988-0.74951,0.12988c-0.65967,0-1.13965-0.37012-1.13965-1.23926
						v-3.18848h-0.81934v-0.58008h0.81934v-1.37891l0.68994-0.51953v1.89844h1.18896v0.58008h-1.18896v3.09863
						c0,0.47949,0.21973,0.69922,0.60938,0.69922c0.16992,0,0.35986-0.04004,0.57959-0.10938L38.67773,100.95038z"/>
				</g>
				<g enable-background="new    ">
					<path d="M-6.86084,168.94208h4.56787v0.65918h-3.85791v2.42871h3.46777v0.66016h-3.46777v2.55859h3.85791v0.65918h-4.56787
						V168.94208z"/>
					<path d="M0.37891,173.43915l-1.79932-2.45898h0.83984l1.41895,1.97949l1.40918-1.97949H3.0874l-1.79932,2.45898
						l1.80908,2.46875H2.24756l-1.40918-1.99902l-1.40918,1.99902h-0.84961L0.37891,173.43915z"/>
					<path d="M6.3584,175.85809c-0.25977,0.08008-0.52002,0.12988-0.74951,0.12988c-0.65967,0-1.13965-0.37012-1.13965-1.23926
						v-3.18848H3.6499v-0.58008h0.81934v-1.37891l0.68994-0.51953v1.89844h1.18896v0.58008H5.15918v3.09863
						c0,0.47949,0.21973,0.69922,0.60938,0.69922c0.16992,0,0.35986-0.04004,0.57959-0.10938L6.3584,175.85809z"/>
					<path d="M10.56738,171.11102l-0.33984,0.55957c-0.22949-0.10059-0.43945-0.15039-0.64941-0.15039
						c-0.75977,0-1.31934,0.56934-1.31934,1.63965v2.74805H7.56934v-4.92773h0.68945v0.74023
						c0.35986-0.64941,0.95947-0.81934,1.45898-0.81934C10.01758,170.90106,10.29785,170.96063,10.56738,171.11102z"/>
					<path d="M15.25732,172.83954v3.06836h-0.62988l-0.04004-0.75977c-0.38965,0.5498-0.98926,0.83984-1.76904,0.83984
						c-1.06934,0-1.69873-0.55957-1.69873-1.50977c0-0.49902,0.19971-0.87891,0.55957-1.09863
						c0.37988-0.21973,0.90967-0.31055,1.87891-0.31055h1.00928v-0.22949c0-0.85938-0.44971-1.3291-1.2793-1.3291
						c-0.61963,0-1.09912,0.26953-1.49902,0.81934l-0.49951-0.41992c0.5293-0.68945,1.16895-1.00879,2.00879-1.00879
						C14.5376,170.90106,15.25732,171.61005,15.25732,172.83954z M14.56738,173.69891v-0.06934h-0.94922
						c-0.90967,0-1.29932,0.05957-1.53906,0.24902c-0.18018,0.14062-0.27002,0.36035-0.27002,0.63965
						c0,0.5498,0.46973,0.90039,1.20947,0.90039C13.96777,175.41864,14.56738,174.74872,14.56738,173.69891z"/>
					<path d="M21.44629,173.43915c0,1.46973-0.74951,2.54883-2.18896,2.54883c-0.71924,0-1.26904-0.28027-1.62891-0.73926v2.69824
						h-0.68945v-6.9668h0.68945v0.66016c0.36963-0.47949,0.92969-0.75,1.62891-0.75
						C20.62695,170.89032,21.44629,171.90009,21.44629,173.43915z M20.75684,173.43915c0-1.16895-0.59961-1.93848-1.59912-1.93848
						c-0.98975,0-1.58936,0.76953-1.58936,1.93848c0,1.11914,0.5498,1.93945,1.58936,1.93945
						C20.20703,175.3786,20.75684,174.55829,20.75684,173.43915z"/>
					<path d="M22.44922,173.43915c0-1.45898,0.94971-2.53809,2.35889-2.53809c1.39941,0,2.36865,1.0791,2.36865,2.53809
						c0,1.44922-0.95947,2.54883-2.36865,2.54883S22.44922,174.89813,22.44922,173.43915z M26.4873,173.43915
						c0-1.11914-0.62988-1.92871-1.6792-1.92871c-1.05957,0-1.66895,0.81934-1.66895,1.92871
						c0,1.11914,0.61963,1.93945,1.66895,1.93945C25.86768,175.3786,26.4873,174.53876,26.4873,173.43915z"/>
					<path d="M28.52881,174.83856v-5.89648h0.68945v5.85645c0,0.33984,0.12012,0.55957,0.44971,0.55957
						c0.1499,0,0.31982-0.04004,0.46973-0.08984l0.01025,0.58984c-0.20996,0.06934-0.45996,0.12988-0.67969,0.12988
						C28.89844,175.98798,28.52881,175.60809,28.52881,174.83856z"/>
					<path d="M34.93701,172.83954v3.06836h-0.62988l-0.04004-0.75977c-0.38965,0.5498-0.98926,0.83984-1.76904,0.83984
						c-1.06934,0-1.69873-0.55957-1.69873-1.50977c0-0.49902,0.19971-0.87891,0.55957-1.09863
						c0.37988-0.21973,0.90967-0.31055,1.87891-0.31055h1.00928v-0.22949c0-0.85938-0.44971-1.3291-1.2793-1.3291
						c-0.61963,0-1.09912,0.26953-1.49902,0.81934l-0.49951-0.41992c0.5293-0.68945,1.16895-1.00879,2.00879-1.00879
						C34.21729,170.90106,34.93701,171.61005,34.93701,172.83954z M34.24707,173.69891v-0.06934h-0.94922
						c-0.90967,0-1.29932,0.05957-1.53906,0.24902c-0.18018,0.14062-0.27002,0.36035-0.27002,0.63965
						c0,0.5498,0.46973,0.90039,1.20947,0.90039C33.64746,175.41864,34.24707,174.74872,34.24707,173.69891z"/>
					<path d="M38.66748,175.85809c-0.25977,0.08008-0.52002,0.12988-0.74951,0.12988c-0.65967,0-1.13965-0.37012-1.13965-1.23926
						v-3.18848h-0.81934v-0.58008h0.81934v-1.37891l0.68945-0.51953v1.89844h1.18945v0.58008h-1.18945v3.09863
						c0,0.47949,0.22021,0.69922,0.60986,0.69922c0.16992,0,0.35986-0.04004,0.57959-0.10938L38.66748,175.85809z"/>
					<path d="M39.91895,168.94208h0.79932v1.01953h-0.79932V168.94208z M39.979,170.98016h0.68945v4.92773H39.979V170.98016z"/>
					<path d="M42.05859,173.43915c0-1.45898,0.94971-2.53809,2.35889-2.53809c1.39941,0,2.36865,1.0791,2.36865,2.53809
						c0,1.44922-0.95947,2.54883-2.36865,2.54883S42.05859,174.89813,42.05859,173.43915z M46.09668,173.43915
						c0-1.11914-0.62988-1.92871-1.6792-1.92871c-1.05957,0-1.66895,0.81934-1.66895,1.92871
						c0,1.11914,0.61963,1.93945,1.66895,1.93945C45.47705,175.3786,46.09668,174.53876,46.09668,173.43915z"/>
					<path d="M52.10645,172.88934v3.01855h-0.68945v-2.84863c0-1.05957-0.33984-1.54883-1.07959-1.54883
						c-0.92969,0-1.46924,0.7998-1.46924,2.18848v2.20898h-0.68945v-4.92773h0.68945v0.71973
						c0.31982-0.49902,0.91943-0.79883,1.62891-0.79883C51.55664,170.90106,52.10645,171.58075,52.10645,172.88934z"/>
					<path d="M56.1084,173.43915c0-1.45898,0.94971-2.53809,2.35889-2.53809c1.39941,0,2.36865,1.0791,2.36865,2.53809
						c0,1.44922-0.95947,2.54883-2.36865,2.54883S56.1084,174.89813,56.1084,173.43915z M60.14648,173.43915
						c0-1.11914-0.62988-1.92871-1.6792-1.92871c-1.05957,0-1.66895,0.81934-1.66895,1.92871
						c0,1.11914,0.61963,1.93945,1.66895,1.93945C59.52686,175.3786,60.14648,174.53876,60.14648,173.43915z"/>
					<path d="M62.52783,171.56024h-1.03955v-0.58008h1.04932v-0.75879c0-1.0498,0.60986-1.35938,1.23926-1.35938
						c0.27002,0,0.56982,0.05957,0.87988,0.18945l-0.24023,0.5498c-0.20996-0.09961-0.39941-0.16016-0.56934-0.16016
						c-0.39014,0-0.62988,0.27051-0.62988,0.72949v0.80957h1.41943v0.58008h-1.41943v4.34766h-0.68945V171.56024z"/>
					<path d="M70.49707,175.85809c-0.25977,0.08008-0.52002,0.12988-0.74951,0.12988c-0.65967,0-1.13965-0.37012-1.13965-1.23926
						v-3.18848h-0.81934v-0.58008h0.81934v-1.37891l0.68994-0.51953v1.89844h1.18896v0.58008h-1.18896v3.09863
						c0,0.47949,0.21973,0.69922,0.60938,0.69922c0.16992,0,0.35986-0.04004,0.57959-0.10938L70.49707,175.85809z"/>
					<path d="M75.73584,172.88934v3.01855h-0.68945v-2.84863c0-1.06934-0.33984-1.54883-1.07959-1.54883
						c-0.93945,0-1.46924,0.76953-1.46924,2.12891v2.26855h-0.68945v-6.96582h0.68945v2.75781
						c0.31982-0.49902,0.91943-0.79883,1.62891-0.79883C75.18604,170.90106,75.73584,171.58075,75.73584,172.88934z"/>
					<path d="M81.33545,173.62958h-3.60791c0.02002,1.0791,0.61963,1.72852,1.58936,1.72852
						c0.53955,0,0.96924-0.13965,1.41895-0.61914l0.47998,0.41895c-0.57959,0.61035-1.14941,0.83008-1.90918,0.83008
						c-1.49902,0-2.26855-1.11914-2.26855-2.51855c0-1.38965,0.75977-2.56836,2.18896-2.56836
						c1.50879,0,2.13867,1.17871,2.13867,2.29785C81.36572,173.33954,81.35547,173.50946,81.33545,173.62958z M77.72754,173.0495
						h2.97852c0-0.02051-0.01025-0.07031-0.01025-0.16016c-0.0498-0.7998-0.55957-1.40918-1.46875-1.40918
						C78.3374,171.48016,77.7876,172.18036,77.72754,173.0495z"/>
					<path d="M89.99512,173.43915c0,1.46973-0.74951,2.54883-2.18896,2.54883c-0.71924,0-1.26904-0.28027-1.62891-0.73926v2.69824
						h-0.68945v-6.9668h0.68945v0.66016c0.36963-0.47949,0.92969-0.75,1.62891-0.75
						C89.17578,170.89032,89.99512,171.90009,89.99512,173.43915z M89.30566,173.43915c0-1.16895-0.59961-1.93848-1.59912-1.93848
						c-0.98975,0-1.58936,0.76953-1.58936,1.93848c0,1.11914,0.5498,1.93945,1.58936,1.93945
						C88.75586,175.3786,89.30566,174.55829,89.30566,173.43915z"/>
					<path d="M91.3877,174.83856v-5.89648h0.68945v5.85645c0,0.33984,0.12012,0.55957,0.44971,0.55957
						c0.1499,0,0.31982-0.04004,0.46973-0.08984l0.01025,0.58984c-0.20996,0.06934-0.45996,0.12988-0.67969,0.12988
						C91.75732,175.98798,91.3877,175.60809,91.3877,174.83856z"/>
					<path d="M93.69824,173.43915c0-1.45898,0.94922-2.53809,2.3584-2.53809c1.39941,0,2.36865,1.0791,2.36865,2.53809
						c0,1.44922-0.95947,2.54883-2.36865,2.54883S93.69824,174.89813,93.69824,173.43915z M97.73584,173.43915
						c0-1.11914-0.62988-1.92871-1.6792-1.92871c-1.05957,0-1.66895,0.81934-1.66895,1.92871
						c0,1.11914,0.61963,1.93945,1.66895,1.93945C97.11621,175.3786,97.73584,174.53876,97.73584,173.43915z"/>
					<path d="M101.81641,175.85809c-0.25977,0.08008-0.52002,0.12988-0.74951,0.12988c-0.65967,0-1.13965-0.37012-1.13965-1.23926
						v-3.18848h-0.81934v-0.58008h0.81934v-1.37891l0.68994-0.51953v1.89844h1.18896v0.58008h-1.18896v3.09863
						c0,0.47949,0.21973,0.69922,0.60938,0.69922c0.16992,0,0.35986-0.04004,0.57959-0.10938L101.81641,175.85809z"/>
					<path d="M107.90674,175.85809c-0.25977,0.08008-0.52002,0.12988-0.74951,0.12988c-0.65967,0-1.13965-0.37012-1.13965-1.23926
						v-3.18848h-0.81934v-0.58008h0.81934v-1.37891l0.68945-0.51953v1.89844h1.18945v0.58008h-1.18945v3.09863
						c0,0.47949,0.22021,0.69922,0.60986,0.69922c0.16992,0,0.35986-0.04004,0.57959-0.10938L107.90674,175.85809z"/>
					<path d="M113.14551,172.88934v3.01855h-0.68945v-2.84863c0-1.06934-0.33984-1.54883-1.07959-1.54883
						c-0.93945,0-1.46924,0.76953-1.46924,2.12891v2.26855h-0.68945v-6.96582h0.68945v2.75781
						c0.31982-0.49902,0.91943-0.79883,1.62891-0.79883C112.5957,170.90106,113.14551,171.58075,113.14551,172.88934z"/>
					<path d="M118.51562,172.83954v3.06836h-0.62988l-0.04004-0.75977c-0.38965,0.5498-0.98926,0.83984-1.76904,0.83984
						c-1.06934,0-1.69873-0.55957-1.69873-1.50977c0-0.49902,0.19971-0.87891,0.55957-1.09863
						c0.37988-0.21973,0.90967-0.31055,1.87891-0.31055h1.00977v-0.22949c0-0.85938-0.4502-1.3291-1.27979-1.3291
						c-0.61963,0-1.09912,0.26953-1.49902,0.81934l-0.49951-0.41992c0.5293-0.68945,1.16895-1.00879,2.00879-1.00879
						C117.7959,170.90106,118.51562,171.61005,118.51562,172.83954z M117.82617,173.69891v-0.06934h-0.94971
						c-0.90967,0-1.29932,0.05957-1.53906,0.24902c-0.18018,0.14062-0.27002,0.36035-0.27002,0.63965
						c0,0.5498,0.46973,0.90039,1.20947,0.90039C117.22656,175.41864,117.82617,174.74872,117.82617,173.69891z"/>
					<path d="M122.24609,175.85809c-0.25977,0.08008-0.51953,0.12988-0.75,0.12988c-0.65918,0-1.13867-0.37012-1.13867-1.23926
						v-3.18848h-0.82031v-0.58008h0.82031v-1.37891l0.68945-0.51953v1.89844h1.18945v0.58008h-1.18945v3.09863
						c0,0.47949,0.21973,0.69922,0.60938,0.69922c0.16992,0,0.35938-0.04004,0.58008-0.10938L122.24609,175.85809z"/>
					<path d="M129.28516,171.11102l-0.33984,0.55957c-0.22852-0.10059-0.43945-0.15039-0.64844-0.15039
						c-0.75977,0-1.32031,0.56934-1.32031,1.63965v2.74805h-0.68945v-4.92773h0.68945v0.74023
						c0.36035-0.64941,0.95996-0.81934,1.45898-0.81934C128.73633,170.90106,129.01562,170.96063,129.28516,171.11102z"/>
					<path d="M133.75488,173.62958h-3.6084c0.02051,1.0791,0.62012,1.72852,1.58984,1.72852
						c0.53906,0,0.96875-0.13965,1.41895-0.61914l0.47949,0.41895c-0.5791,0.61035-1.14844,0.83008-1.9082,0.83008
						c-1.5,0-2.26953-1.11914-2.26953-2.51855c0-1.38965,0.75977-2.56836,2.18945-2.56836
						c1.50879,0,2.13867,1.17871,2.13867,2.29785C133.78516,173.33954,133.77539,173.50946,133.75488,173.62958z
						 M130.14648,173.0495h2.97852c0-0.02051-0.00977-0.07031-0.00977-0.16016c-0.0498-0.7998-0.55957-1.40918-1.46875-1.40918
						C130.75684,171.48016,130.20703,172.18036,130.14648,173.0495z"/>
					<path d="M134.4668,170.98016h0.75l1.54883,4.04785l1.55957-4.04785h0.75977l-2.01855,4.92773h-0.58984L134.4668,170.98016z"/>
					<path d="M139.61719,173.43915c0-1.45898,0.94922-2.53809,2.35938-2.53809c1.39844,0,2.36816,1.0791,2.36816,2.53809
						c0,1.44922-0.95996,2.54883-2.36816,2.54883C140.56641,175.98798,139.61719,174.89813,139.61719,173.43915z
						 M143.65527,173.43915c0-1.11914-0.62988-1.92871-1.67871-1.92871c-1.06055,0-1.66992,0.81934-1.66992,1.92871
						c0,1.11914,0.62012,1.93945,1.66992,1.93945C143.03516,175.3786,143.65527,174.53876,143.65527,173.43915z"/>
					<path d="M145.69727,174.83856v-5.89648h0.68945v5.85645c0,0.33984,0.12012,0.55957,0.44922,0.55957
						c0.15039,0,0.32031-0.04004,0.4707-0.08984l0.00977,0.58984c-0.20996,0.06934-0.45996,0.12988-0.67969,0.12988
						C146.06641,175.98798,145.69727,175.60809,145.69727,174.83856z"/>
					<path d="M147.72656,170.98016h0.75l1.54883,4.04785l1.55957-4.04785h0.75977l-2.01855,4.92773h-0.58984L147.72656,170.98016z"
						/>
					<path d="M157.20508,173.62958h-3.6084c0.02051,1.0791,0.62012,1.72852,1.58887,1.72852
						c0.54004,0,0.96973-0.13965,1.41992-0.61914l0.47949,0.41895c-0.5791,0.61035-1.14941,0.83008-1.90918,0.83008
						c-1.49902,0-2.26855-1.11914-2.26855-2.51855c0-1.38965,0.75977-2.56836,2.18848-2.56836
						c1.50977,0,2.13867,1.17871,2.13867,2.29785C157.23438,173.33954,157.22461,173.50946,157.20508,173.62958z
						 M153.59668,173.0495h2.97852c0-0.02051-0.01074-0.07031-0.01074-0.16016c-0.04883-0.7998-0.55859-1.40918-1.46875-1.40918
						C154.20703,171.48016,153.65625,172.18036,153.59668,173.0495z"/>
					<path d="M158.09766,174.69891l0.5791-0.25977c0.17969,0.50977,0.65918,0.93945,1.42871,0.93945
						c0.66992,0,1.09961-0.33008,1.09961-0.84961c0-1.30957-2.83789-0.49023-2.83789-2.23926
						c0-0.85938,0.69922-1.38867,1.68945-1.38867c0.78906,0,1.42871,0.3291,1.76855,1.0293l-0.5498,0.2998
						c-0.24023-0.44043-0.62988-0.71973-1.23926-0.71973c-0.61035,0-0.99902,0.25-0.99902,0.67969
						c0,1.16895,2.84766,0.42969,2.84766,2.29883c0,0.99902-0.81934,1.49902-1.76855,1.49902
						C159.14648,175.98798,158.35742,175.48798,158.09766,174.69891z"/>
				</g>
				<g enable-background="new    ">
					<path d="M-3.42236,184.83954v3.06836h-0.62988l-0.04004-0.75977c-0.38965,0.5498-0.98926,0.83984-1.76904,0.83984
						c-1.06934,0-1.69873-0.55957-1.69873-1.50977c0-0.49902,0.19971-0.87891,0.55957-1.09863
						c0.37988-0.21973,0.90967-0.31055,1.87891-0.31055h1.00928v-0.22949c0-0.85938-0.44971-1.3291-1.2793-1.3291
						c-0.61963,0-1.09912,0.26953-1.49902,0.81934l-0.49951-0.41992c0.5293-0.68945,1.16895-1.00879,2.00879-1.00879
						C-4.14209,182.90106-3.42236,183.61005-3.42236,184.83954z M-4.1123,185.69891v-0.06934h-0.94922
						c-0.90967,0-1.29932,0.05957-1.53906,0.24902c-0.18018,0.14062-0.27002,0.36035-0.27002,0.63965
						c0,0.5498,0.46973,0.90039,1.20947,0.90039C-4.71191,187.41864-4.1123,186.74872-4.1123,185.69891z"/>
					<path d="M1.25781,183.11102l-0.33984,0.55957c-0.22949-0.10059-0.43945-0.15039-0.64941-0.15039
						c-0.75977,0-1.31934,0.56934-1.31934,1.63965v2.74805h-0.68945v-4.92773h0.68945v0.74023
						c0.35986-0.64941,0.95947-0.81934,1.45898-0.81934C0.70801,182.90106,0.98828,182.96063,1.25781,183.11102z"/>
					<path d="M1.39941,185.43915c0-1.45898,0.94971-2.53809,2.35889-2.53809c1.39941,0,2.36865,1.0791,2.36865,2.53809
						c0,1.44922-0.95947,2.54883-2.36865,2.54883S1.39941,186.89813,1.39941,185.43915z M5.4375,185.43915
						c0-1.11914-0.62988-1.92871-1.6792-1.92871c-1.05957,0-1.66895,0.81934-1.66895,1.92871
						c0,1.11914,0.61963,1.93945,1.66895,1.93945C4.81787,187.3786,5.4375,186.53876,5.4375,185.43915z"/>
					<path d="M11.27686,182.98016v4.92773H10.5874v-0.70996c-0.3501,0.53027-0.97949,0.79004-1.62939,0.79004
						c-1.11914,0-1.60889-0.76953-1.60889-1.98926v-3.01855h0.68945v2.84863c0,0.7998,0.14014,1.5498,1.07959,1.5498
						c0.97949,0,1.46924-0.84961,1.46924-2.12891v-2.26953H11.27686z"/>
					<path d="M17.02686,184.88934v3.01855H16.3374v-2.84863c0-1.05957-0.33984-1.54883-1.07959-1.54883
						c-0.92969,0-1.46924,0.7998-1.46924,2.18848v2.20898h-0.68945v-4.92773h0.68945v0.71973
						c0.31982-0.49902,0.91943-0.79883,1.62891-0.79883C16.47705,182.90106,17.02686,183.58075,17.02686,184.88934z"/>
					<path d="M22.84668,180.94208v6.96582h-0.68994v-0.65918c-0.35938,0.45898-0.90918,0.73926-1.62891,0.73926
						c-1.43896,0-2.18896-1.0791-2.18896-2.54883c0-1.53906,0.81982-2.54883,2.18896-2.54883
						c0.69971,0,1.25928,0.27051,1.62891,0.75v-2.69824H22.84668z M22.2168,185.43915c0-1.16895-0.59961-1.93848-1.58887-1.93848
						c-0.99951,0-1.59912,0.76953-1.59912,1.93848c0,1.11914,0.54932,1.93945,1.59912,1.93945
						C21.66699,187.3786,22.2168,186.55829,22.2168,185.43915z"/>
					<path d="M29.44775,187.85809c-0.25977,0.08008-0.52002,0.12988-0.74951,0.12988c-0.65967,0-1.13965-0.37012-1.13965-1.23926
						v-3.18848h-0.81934v-0.58008h0.81934v-1.37891l0.68945-0.51953v1.89844h1.18945v0.58008h-1.18945v3.09863
						c0,0.47949,0.22021,0.69922,0.60986,0.69922c0.16992,0,0.35986-0.04004,0.57959-0.10938L29.44775,187.85809z"/>
					<path d="M34.68701,184.88934v3.01855h-0.68945v-2.84863c0-1.06934-0.33984-1.54883-1.07959-1.54883
						c-0.93945,0-1.46924,0.76953-1.46924,2.12891v2.26855h-0.68945v-6.96582h0.68945v2.75781
						c0.31982-0.49902,0.91943-0.79883,1.62891-0.79883C34.13721,182.90106,34.68701,183.58075,34.68701,184.88934z"/>
					<path d="M40.28662,185.62958h-3.60791c0.02002,1.0791,0.61963,1.72852,1.58936,1.72852
						c0.53955,0,0.96924-0.13965,1.41895-0.61914l0.47998,0.41895c-0.57959,0.61035-1.14941,0.83008-1.90918,0.83008
						c-1.49902,0-2.26855-1.11914-2.26855-2.51855c0-1.38965,0.75977-2.56836,2.18896-2.56836
						c1.50879,0,2.13867,1.17871,2.13867,2.29785C40.31689,185.33954,40.30664,185.50946,40.28662,185.62958z M36.67871,185.0495
						h2.97852c0-0.02051-0.01025-0.07031-0.01025-0.16016c-0.0498-0.7998-0.55957-1.40918-1.46875-1.40918
						C37.28857,183.48016,36.73877,184.18036,36.67871,185.0495z"/>
					<path d="M48.59668,187.9079l-1.7793-3.08789h-0.46973h-0.96924v3.08789h-0.70996v-6.96582h1.98926
						c1.49902,0,2.29883,0.66895,2.29883,1.92871c0,0.97949-0.48975,1.60938-1.4292,1.8584l1.89893,3.17871H48.59668z
						 M46.5874,184.15985c1.09961,0,1.64941-0.42969,1.64941-1.2793s-0.5498-1.2793-1.64941-1.2793h-1.20898v2.55859H46.5874z"/>
					<path d="M54.46631,185.62958H50.8584c0.02002,1.0791,0.61963,1.72852,1.58936,1.72852
						c0.53955,0,0.96924-0.13965,1.41895-0.61914l0.47998,0.41895c-0.57959,0.61035-1.14941,0.83008-1.90918,0.83008
						c-1.49902,0-2.26855-1.11914-2.26855-2.51855c0-1.38965,0.75977-2.56836,2.18896-2.56836
						c1.50879,0,2.13867,1.17871,2.13867,2.29785C54.49658,185.33954,54.48633,185.50946,54.46631,185.62958z M50.8584,185.0495
						h2.97852c0-0.02051-0.01025-0.07031-0.01025-0.16016c-0.0498-0.7998-0.55957-1.40918-1.46875-1.40918
						C51.46826,183.48016,50.91846,184.18036,50.8584,185.0495z"/>
					<path d="M59.55713,184.83954v3.06836h-0.62988l-0.04004-0.75977c-0.38965,0.5498-0.98926,0.83984-1.76904,0.83984
						c-1.06934,0-1.69873-0.55957-1.69873-1.50977c0-0.49902,0.19971-0.87891,0.55957-1.09863
						c0.37988-0.21973,0.90967-0.31055,1.87891-0.31055h1.00928v-0.22949c0-0.85938-0.44971-1.3291-1.2793-1.3291
						c-0.61963,0-1.09912,0.26953-1.49902,0.81934l-0.49951-0.41992c0.5293-0.68945,1.16895-1.00879,2.00879-1.00879
						C58.8374,182.90106,59.55713,183.61005,59.55713,184.83954z M58.86719,185.69891v-0.06934h-0.94922
						c-0.90967,0-1.29932,0.05957-1.53906,0.24902c-0.18018,0.14062-0.27002,0.36035-0.27002,0.63965
						c0,0.5498,0.46973,0.90039,1.20947,0.90039C58.26758,187.41864,58.86719,186.74872,58.86719,185.69891z"/>
					<path d="M65.35645,180.94208v6.96582H64.6665v-0.65918c-0.35938,0.45898-0.90918,0.73926-1.62891,0.73926
						c-1.43896,0-2.18896-1.0791-2.18896-2.54883c0-1.53906,0.81982-2.54883,2.18896-2.54883
						c0.69971,0,1.25928,0.27051,1.62891,0.75v-2.69824H65.35645z M64.72656,185.43915c0-1.16895-0.59961-1.93848-1.58887-1.93848
						c-0.99951,0-1.59912,0.76953-1.59912,1.93848c0,1.11914,0.54932,1.93945,1.59912,1.93945
						C64.17676,187.3786,64.72656,186.55829,64.72656,185.43915z"/>
					<path d="M71.07617,185.62958h-3.60791c0.02002,1.0791,0.61963,1.72852,1.58936,1.72852
						c0.53955,0,0.96924-0.13965,1.41895-0.61914l0.47998,0.41895c-0.57959,0.61035-1.14941,0.83008-1.90918,0.83008
						c-1.49902,0-2.26855-1.11914-2.26855-2.51855c0-1.38965,0.75977-2.56836,2.18896-2.56836
						c1.50879,0,2.13867,1.17871,2.13867,2.29785C71.10645,185.33954,71.09619,185.50946,71.07617,185.62958z M67.46826,185.0495
						h2.97852c0-0.02051-0.01025-0.07031-0.01025-0.16016c-0.0498-0.7998-0.55957-1.40918-1.46875-1.40918
						C68.07812,183.48016,67.52832,184.18036,67.46826,185.0495z"/>
					<path d="M75.49658,183.11102l-0.33984,0.55957c-0.22949-0.10059-0.43945-0.15039-0.64941-0.15039
						c-0.75977,0-1.31934,0.56934-1.31934,1.63965v2.74805h-0.68945v-4.92773h0.68945v0.74023
						c0.35986-0.64941,0.95947-0.81934,1.45898-0.81934C74.94727,182.90106,75.22705,182.96063,75.49658,183.11102z"/>
				</g>
				<g enable-background="new    ">
					<path d="M-2.93262,259.69257l-1.7793-3.08789h-0.46973h-0.96924v3.08789h-0.70996v-6.96582h1.98926
						c1.49902,0,2.29883,0.66895,2.29883,1.92871c0,0.97949-0.48975,1.60938-1.4292,1.8584l1.89893,3.17871H-2.93262z
						 M-4.94189,255.94452c1.09961,0,1.64941-0.42969,1.64941-1.2793s-0.5498-1.2793-1.64941-1.2793h-1.20898v2.55859H-4.94189z"/>
					<path d="M2.93701,257.41425H-0.6709c0.02002,1.0791,0.61963,1.72852,1.58936,1.72852
						c0.53955,0,0.96924-0.13965,1.41895-0.61914l0.47998,0.41895c-0.57959,0.61035-1.14941,0.83008-1.90918,0.83008
						c-1.49902,0-2.26855-1.11914-2.26855-2.51855c0-1.38965,0.75977-2.56836,2.18896-2.56836
						c1.50879,0,2.13867,1.17871,2.13867,2.29785C2.96729,257.12421,2.95703,257.29413,2.93701,257.41425z M-0.6709,256.83417
						h2.97852c0-0.02051-0.01025-0.07031-0.01025-0.16016c-0.0498-0.7998-0.55957-1.40918-1.46875-1.40918
						C-0.06104,255.26483-0.61084,255.96503-0.6709,256.83417z"/>
					<path d="M8.02783,256.62421v3.06836H7.39795l-0.04004-0.75977c-0.38965,0.5498-0.98926,0.83984-1.76904,0.83984
						c-1.06934,0-1.69873-0.55957-1.69873-1.50977c0-0.49902,0.19971-0.87891,0.55957-1.09863
						c0.37988-0.21973,0.90967-0.31055,1.87891-0.31055h1.00928v-0.22949c0-0.85938-0.44971-1.3291-1.2793-1.3291
						c-0.61963,0-1.09912,0.26953-1.49902,0.81934l-0.49951-0.41992c0.5293-0.68945,1.16895-1.00879,2.00879-1.00879
						C7.30811,254.68573,8.02783,255.39471,8.02783,256.62421z M7.33789,257.48358v-0.06934H6.38867
						c-0.90967,0-1.29932,0.05957-1.53906,0.24902c-0.18018,0.14062-0.27002,0.36035-0.27002,0.63965
						c0,0.5498,0.46973,0.90039,1.20947,0.90039C6.73828,259.20331,7.33789,258.53339,7.33789,257.48358z"/>
					<path d="M13.82715,252.72675v6.96582h-0.68994v-0.65918c-0.35938,0.45898-0.90918,0.73926-1.62891,0.73926
						c-1.43896,0-2.18896-1.0791-2.18896-2.54883c0-1.53906,0.81982-2.54883,2.18896-2.54883
						c0.69971,0,1.25928,0.27051,1.62891,0.75v-2.69824H13.82715z M13.19727,257.22382c0-1.16895-0.59961-1.93848-1.58887-1.93848
						c-0.99951,0-1.59912,0.76953-1.59912,1.93848c0,1.11914,0.54932,1.93945,1.59912,1.93945
						C12.64746,259.16327,13.19727,258.34296,13.19727,257.22382z"/>
					<path d="M19.54688,257.41425h-3.60791c0.02002,1.0791,0.61963,1.72852,1.58936,1.72852
						c0.53955,0,0.96924-0.13965,1.41895-0.61914l0.47998,0.41895c-0.57959,0.61035-1.14941,0.83008-1.90918,0.83008
						c-1.49902,0-2.26855-1.11914-2.26855-2.51855c0-1.38965,0.75977-2.56836,2.18896-2.56836
						c1.50879,0,2.13867,1.17871,2.13867,2.29785C19.57715,257.12421,19.56689,257.29413,19.54688,257.41425z M15.93896,256.83417
						h2.97852c0-0.02051-0.01025-0.07031-0.01025-0.16016c-0.0498-0.7998-0.55957-1.40918-1.46875-1.40918
						C16.54883,255.26483,15.99902,255.96503,15.93896,256.83417z"/>
					<path d="M23.96777,254.89569l-0.33984,0.55957c-0.22949-0.10059-0.43945-0.15039-0.64941-0.15039
						c-0.75977,0-1.31934,0.56934-1.31934,1.63965v2.74805h-0.68945v-4.92773h0.68945v0.74023
						c0.35986-0.64941,0.95947-0.81934,1.45898-0.81934C23.41797,254.68573,23.69824,254.7453,23.96777,254.89569z"/>
					<path d="M25.67871,252.72675h0.78955l-1.31934,2.83789H24.6792L25.67871,252.72675z"/>
					<path d="M27.35938,258.48358l0.57959-0.25977c0.17969,0.50977,0.65967,0.93945,1.4292,0.93945
						c0.66943,0,1.09961-0.33008,1.09961-0.84961c0-1.30957-2.83887-0.49023-2.83887-2.23926
						c0-0.85938,0.69971-1.38867,1.68945-1.38867c0.78955,0,1.4292,0.3291,1.76904,1.0293l-0.5498,0.2998
						c-0.23975-0.44043-0.62988-0.71973-1.23926-0.71973c-0.60986,0-0.99951,0.25-0.99951,0.67969
						c0,1.16895,2.84814,0.42969,2.84814,2.29883c0,0.99902-0.81934,1.49902-1.76904,1.49902
						C28.40869,259.77264,27.61914,259.27264,27.35938,258.48358z"/>
					<path d="M39.78662,257.22382c0,1.46973-0.74951,2.54883-2.18896,2.54883c-0.71924,0-1.26904-0.28027-1.62891-0.73926v2.69824
						H35.2793v-6.9668h0.68945v0.66016c0.36963-0.47949,0.92969-0.75,1.62891-0.75
						C38.96729,254.67499,39.78662,255.68475,39.78662,257.22382z M39.09717,257.22382c0-1.16895-0.59961-1.93848-1.59912-1.93848
						c-0.98975,0-1.58936,0.76953-1.58936,1.93848c0,1.11914,0.5498,1.93945,1.58936,1.93945
						C38.54736,259.16327,39.09717,258.34296,39.09717,257.22382z"/>
					<path d="M41.1792,258.62323v-5.89648h0.68945v5.85645c0,0.33984,0.12012,0.55957,0.44971,0.55957
						c0.1499,0,0.31982-0.04004,0.46973-0.08984l0.01025,0.58984c-0.20996,0.06934-0.45996,0.12988-0.67969,0.12988
						C41.54883,259.77264,41.1792,259.39276,41.1792,258.62323z"/>
					<path d="M43.48926,257.22382c0-1.45898,0.94922-2.53809,2.3584-2.53809c1.39941,0,2.36865,1.0791,2.36865,2.53809
						c0,1.44922-0.95947,2.54883-2.36865,2.54883S43.48926,258.6828,43.48926,257.22382z M47.52686,257.22382
						c0-1.11914-0.62988-1.92871-1.6792-1.92871c-1.05957,0-1.66895,0.81934-1.66895,1.92871
						c0,1.11914,0.61963,1.93945,1.66895,1.93945C46.90723,259.16327,47.52686,258.32343,47.52686,257.22382z"/>
					<path d="M51.60791,259.64276c-0.25977,0.08008-0.52002,0.12988-0.74951,0.12988c-0.65967,0-1.13965-0.37012-1.13965-1.23926
						v-3.18848h-0.81934v-0.58008h0.81934v-1.37891l0.68945-0.51953v1.89844h1.18945v0.58008H50.4082v3.09863
						c0,0.47949,0.22021,0.69922,0.60986,0.69922c0.16992,0,0.35986-0.04004,0.57959-0.10938L51.60791,259.64276z"/>
				</g>
			</g>
		</g>
	</g>
</g>
</svg>
