<svg xmlns="http://www.w3.org/2000/svg" xmlns:xlink="http://www.w3.org/1999/xlink" width="250" height="209" viewBox="0 0 250 209">
  <defs>
    <clipPath id="clip-info_01">
      <rect width="250" height="209"/>
    </clipPath>
  </defs>
  <g id="info_01" clip-path="url(#clip-info_01)">
    <g id="Raggruppa_4797" data-name="Raggruppa 4797">
      <g id="Raggruppa_4796" data-name="Raggruppa 4796" transform="translate(9 -91)">
        <rect id="Rettangolo_309" data-name="Rettangolo 309" width="22.408" height="40.72" transform="translate(16.065 190.919)" fill="#e2e2e2" opacity="0.999"/>
        <rect id="Rettangolo_310" data-name="Rettangolo 310" width="35.03" height="40.72" transform="translate(59.059 190.919)" fill="#e2e2e2" opacity="0.999"/>
        <rect id="Rettangolo_312" data-name="Rettangolo 312" width="54.728" height="40.72" transform="translate(113.775 190.919)" fill="#e2e2e2" opacity="0.999"/>
        <rect id="Rettangolo_313" data-name="Rettangolo 313" width="36.288" height="40.72" transform="translate(205.566 190.919)" fill="#e2e2e2" opacity="0.999"/>
        <rect id="Rettangolo_317" data-name="Rettangolo 317" width="37.436" height="40.72" transform="translate(168.13 117.101)" fill="#e2e2e2"/>
        <rect id="Rettangolo_314" data-name="Rettangolo 314" width="21.261" height="40.72" transform="translate(-5.196 117.101)" fill="#e2e2e2"/>
        <rect id="Rettangolo_315" data-name="Rettangolo 315" width="21.261" height="40.72" transform="translate(38.405 117.101)" fill="#e2e2e2"/>
        <rect id="Rettangolo_316" data-name="Rettangolo 316" width="18.005" height="40.72" transform="translate(95.576 117.101)" fill="#e2e2e2"/>
        <path id="Tracciato_1942" data-name="Tracciato 1942" d="M5.05,21.809c4.57,0,4.57,27.539,9.142,27.539s4.57-27.539,9.141-27.539S27.9,49.348,32.469,49.348s4.569-27.539,9.139-27.539,4.57,27.539,9.142,27.539,4.568-27.539,9.137-27.539,4.572,27.539,9.142,27.539,4.57-27.539,9.14-27.539S82.74,49.348,87.31,49.348s4.57-27.539,9.141-27.539,4.572,27.539,9.143,27.539,4.572-27.539,9.142-27.539,4.572,27.539,9.144,27.539,4.573-27.539,9.144-27.539,4.573,27.539,9.144,27.539,4.573-27.539,9.144-27.539,4.573,27.539,9.145,27.539,4.573-27.539,9.147-27.539,4.573,27.539,9.144,27.539,4.573-27.539,9.144-27.539,4.572,27.539,9.144,27.539,4.572-27.539,9.143-27.539,4.574,27.539,9.147,27.539,4.575-27.539,9.15-27.539,4.573,27.539,9.147,27.539,4.576-27.539,9.152-27.539,4.577,27.539,9.153,27.539" transform="translate(-10.169 100.898)" fill="none" stroke="#000" stroke-miterlimit="10" stroke-width="0.5"/>
        <path id="Tracciato_1943" data-name="Tracciato 1943" d="M5.05,79.277c4.57,0,4.57,27.539,9.142,27.539s4.57-27.539,9.141-27.539,4.568,27.539,9.136,27.539,4.569-27.539,9.139-27.539,4.57,27.539,9.142,27.539,4.568-27.539,9.137-27.539,4.572,27.539,9.142,27.539,4.57-27.539,9.14-27.539,4.572,27.539,9.142,27.539,4.57-27.539,9.141-27.539,4.572,27.539,9.143,27.539,4.572-27.539,9.142-27.539,4.572,27.539,9.144,27.539,4.573-27.539,9.144-27.539,4.573,27.539,9.144,27.539,4.573-27.539,9.144-27.539,4.573,27.539,9.145,27.539,4.573-27.539,9.147-27.539,4.573,27.539,9.144,27.539,4.573-27.539,9.144-27.539,4.572,27.539,9.144,27.539,4.572-27.539,9.143-27.539,4.574,27.539,9.147,27.539,4.575-27.539,9.15-27.539,4.573,27.539,9.147,27.539,4.576-27.539,9.152-27.539,4.577,27.539,9.153,27.539" transform="translate(-10.169 119.701)" fill="none" stroke="#000" stroke-miterlimit="10" stroke-width="0.5"/>
        <path id="Tracciato_1944" data-name="Tracciato 1944" d="M4.19,132.34c11.2,0,11.2,27.539,22.408,27.539S37.8,132.34,49.008,132.34c2.375,0,4.247,1.238,6.01,3.417,5.7,7.022,7.569,24.122,16.4,24.122,11.2,0,11.2-27.539,22.409-27.539s11.205,27.539,22.41,27.539,11.206-27.539,22.413-27.539,11.206,27.539,22.413,27.539,11.206-27.539,22.413-27.539,11.207,27.539,22.414,27.539S217.1,132.34,228.3,132.34s11.209,27.539,22.417,27.539" transform="translate(-10.296 136.706)" fill="none" stroke="#000" stroke-miterlimit="10" stroke-width="0.5"/>
        <path id="Tracciato_1945" data-name="Tracciato 1945" d="M23.448,72.109v44.1c0,11.5,22.566,13.873,22.566,25.455v37.468" transform="translate(-7.456 118.644)" fill="none" stroke="#5151fc" stroke-miterlimit="10" stroke-width="0.5" stroke-dasharray="0.349"/>
        <line id="Linea_298" data-name="Linea 298" y2="105.644" transform="translate(-5.196 190.919)" fill="none" stroke="#5151fc" stroke-miterlimit="10" stroke-width="0.5" stroke-dasharray="0.349"/>
        <path id="Tracciato_1946" data-name="Tracciato 1946" d="M91.97,72.254v44.78c0,12.1,11.542,12.449,11.542,22.016" transform="translate(2.649 118.665)" fill="none" stroke="#5151fc" stroke-miterlimit="10" stroke-width="0.5" stroke-dasharray="0.349"/>
        <line id="Linea_299" data-name="Linea 299" y2="40.72" transform="translate(113.775 190.919)" fill="none" stroke="#5151fc" stroke-miterlimit="10" stroke-width="0.5" stroke-dasharray="0.349"/>
        <path id="Tracciato_1947" data-name="Tracciato 1947" d="M140.938,125.585" transform="translate(9.871 126.53)" fill="none" stroke="#5151fc" stroke-miterlimit="10" stroke-width="0.5" stroke-dasharray="0.349"/>
        <path id="Tracciato_1948" data-name="Tracciato 1948" d="M140.99,172.155V130.979c0-10.622,17.308-10.392,17.308-23.239" transform="translate(9.879 123.898)" fill="none" stroke="#5151fc" stroke-miterlimit="10" stroke-width="0.5" stroke-dasharray="0.349"/>
        <path id="Tracciato_1949" data-name="Tracciato 1949" d="M223.421,177.388V138.256c0-9.706-34.763-9.876-34.763-22.085V72.254" transform="translate(16.909 118.665)" fill="none" stroke="#5151fc" stroke-miterlimit="10" stroke-width="0.5" stroke-dasharray="0.349"/>
        <path id="Tracciato_1950" data-name="Tracciato 1950" d="M155.964,112.973V72.254" transform="translate(12.087 118.665)" fill="none" stroke="#5151fc" stroke-miterlimit="10" stroke-width="0.5" stroke-dasharray="0.349"/>
        <path id="Tracciato_1951" data-name="Tracciato 1951" d="M108.664,107.74c0,13.357,37.093,13.1,37.093,24.505" transform="translate(5.111 123.898)" fill="none" stroke="#5151fc" stroke-miterlimit="10" stroke-width="0.5" stroke-dasharray="0.349"/>
        <line id="Linea_300" data-name="Linea 300" y2="47.257" transform="translate(-4.987 113.281)" fill="none" stroke="#5151fc" stroke-miterlimit="10" stroke-width="0.5" stroke-dasharray="0.349"/>
        <line id="Linea_301" data-name="Linea 301" y2="47.257" transform="translate(15.992 113.281)" fill="none" stroke="#5151fc" stroke-miterlimit="10" stroke-width="0.5" stroke-dasharray="0.349"/>
        <line id="Linea_302" data-name="Linea 302" y2="47.257" transform="translate(38.688 113.281)" fill="none" stroke="#5151fc" stroke-miterlimit="10" stroke-width="0.5" stroke-dasharray="0.349"/>
        <line id="Linea_303" data-name="Linea 303" y2="47.257" transform="translate(95.624 113.281)" fill="none" stroke="#5151fc" stroke-miterlimit="10" stroke-width="0.5" stroke-dasharray="0.349"/>
        <line id="Linea_304" data-name="Linea 304" y2="47.257" transform="translate(113.617 113.281)" fill="none" stroke="#5151fc" stroke-miterlimit="10" stroke-width="0.5" stroke-dasharray="0.349"/>
        <line id="Linea_305" data-name="Linea 305" y2="47.257" transform="translate(168.176 113.281)" fill="none" stroke="#5151fc" stroke-miterlimit="10" stroke-width="0.5" stroke-dasharray="0.349"/>
        <line id="Linea_306" data-name="Linea 306" y2="47.257" transform="translate(205.748 113.281)" fill="none" stroke="#5151fc" stroke-miterlimit="10" stroke-width="0.5" stroke-dasharray="0.349"/>
        <line id="Linea_307" data-name="Linea 307" y2="47.257" transform="translate(59.667 113.281)" fill="none" stroke="#5151fc" stroke-miterlimit="10" stroke-width="0.5" stroke-dasharray="0.349"/>
        <path id="Tracciato_1952" data-name="Tracciato 1952" d="M42.98,72.254v43.9c0,11.864.159,25.794.159,25.794l-.008,37.2" transform="translate(-4.575 118.665)" fill="none" stroke="#5151fc" stroke-miterlimit="10" stroke-width="0.5" stroke-dasharray="0.349"/>
        <path id="Tracciato_1953" data-name="Tracciato 1953" d="M61.433,72.254v43.9h.086c0,12.033,46.5,12.2,46.5,23.616v38.15" transform="translate(-1.854 118.665)" fill="none" stroke="#5151fc" stroke-miterlimit="10" stroke-width="0.5" stroke-dasharray="0.349"/>
        <text id="Entire_plot" data-name="Entire plot" transform="translate(-8 101)" font-size="10" font-family="HKGrotesk-Regular, HK Grotesk"><tspan x="0" y="0">Entire plot</tspan></text>
        <text id="Extrapolation_of_the_plot_that_revolves_around_the_Reader" data-name="Extrapolation of the plot that revolves 
around the Reader" transform="translate(-8 175.908)" font-size="10" font-family="HKGrotesk-Regular, HK Grotesk"><tspan x="0" y="0">Extrapolation of the plot that revolves </tspan><tspan x="0" y="12">around the Reader</tspan></text>
        <text id="Reader_s_plot" data-name="Reader’s plot" transform="translate(-8 259.693)" font-size="10" font-family="HKGrotesk-Regular, HK Grotesk"><tspan x="0" y="0">Reader’s plot</tspan></text>
      </g>
    </g>
  </g>
</svg>
