<?xml version="1.0" encoding="utf-8"?>
<!-- Generator: Adobe Illustrator 25.1.0, SVG Export Plug-In . SVG Version: 6.00 Build 0)  -->
<svg version="1.1" id="Livello_1" xmlns="http://www.w3.org/2000/svg" xmlns:xlink="http://www.w3.org/1999/xlink" x="0px" y="0px"
	 viewBox="0 0 900 209" enable-background="new 0 0 900 209" xml:space="preserve">
<g>
	<defs>
		<rect id="SVGID_1_" y="0" width="900" height="209"/>
	</defs>
	<clipPath id="SVGID_2_">
		<use xlink:href="#SVGID_1_"  overflow="visible"/>
	</clipPath>
	<g id="incastonati" clip-path="url(#SVGID_2_)">
		<g id="Intro" transform="translate(-62 -207)">
			<g id="Raggruppa_579" transform="translate(66.3 229.616)">
				<g id="stripes" transform="translate(15.908 0)">
					
						<rect id="Rettangolo_218" x="150.061" y="0" opacity="0.2" fill="#CCCCCC" enable-background="new    " width="49.663" height="164.937"/>
					
						<rect id="Rettangolo_219" x="0" y="0" opacity="0.2" fill="#CCCCCC" enable-background="new    " width="48.956" height="164.937"/>
					
						<rect id="Rettangolo_220" x="79.804" y="0" opacity="0.2" fill="#CCCCCC" enable-background="new    " width="26.161" height="164.937"/>
					
						<rect id="Rettangolo_221" x="235.192" y="0" opacity="0.2" fill="#CCCCCC" enable-background="new    " width="45.414" height="164.937"/>
					
						<rect id="Rettangolo_222" x="326.47" y="0" opacity="0.2" fill="#CCCCCC" enable-background="new    " width="44.302" height="164.937"/>
					
						<rect id="Rettangolo_223" x="377.29099" y="0" opacity="0.6" fill="#D6D6FC" enable-background="new    " width="54.391" height="164.937"/>
					
						<rect id="Rettangolo_224" x="439.112" y="0" opacity="0.2" fill="#CCCCCC" enable-background="new    " width="25.471" height="164.937"/>
					
						<rect id="Rettangolo_225" x="543.60999" y="0" opacity="0.2" fill="#CCCCCC" enable-background="new    " width="25.276" height="164.937"/>
					
						<rect id="Rettangolo_226" x="568.73401" y="0" opacity="0.6" fill="#D6D6FC" enable-background="new    " width="108.919" height="164.937"/>
					
						<rect id="Rettangolo_227" x="681.87" y="0" opacity="0.2" fill="#CCCCCC" enable-background="new    " width="39.28" height="164.937"/>
					
						<rect id="Rettangolo_228" x="762.896" y="0" opacity="0.2" fill="#CCCCCC" enable-background="new    " width="43.422" height="164.937"/>
					
						<rect id="Rettangolo_229" x="846.41901" y="0" opacity="0.2" fill="#CCCCCC" enable-background="new    " width="28.459" height="164.937"/>
					<g id="lines" transform="translate(0.043 0.09)">
						
							<line id="Linea_244" fill="none" stroke="#5151FC" stroke-width="0.239" stroke-miterlimit="10" stroke-dasharray="1.154" x1="48.953" y1="0.087" x2="48.953" y2="164.698"/>
						
							<line id="Linea_245" fill="none" stroke="#5151FC" stroke-width="0.239" stroke-miterlimit="10" stroke-dasharray="1.154" x1="0" y1="0.087" x2="0" y2="164.698"/>
						
							<line id="Linea_246" fill="none" stroke="#5151FC" stroke-width="0.239" stroke-miterlimit="10" stroke-dasharray="1.154" x1="79.999" y1="164.698" x2="79.999" y2="0.087"/>
						
							<line id="Linea_247" fill="none" stroke="#5151FC" stroke-width="0.239" stroke-miterlimit="10" stroke-dasharray="1.154" x1="105.968" y1="0.087" x2="105.968" y2="164.698"/>
						
							<line id="Linea_248" fill="none" stroke="#5151FC" stroke-width="0.239" stroke-miterlimit="10" stroke-dasharray="1.154" x1="149.936" y1="0.087" x2="149.936" y2="164.698"/>
						
							<line id="Linea_249" fill="none" stroke="#5151FC" stroke-width="0.239" stroke-miterlimit="10" stroke-dasharray="1.154" x1="199.73599" y1="0.087" x2="199.73599" y2="164.698"/>
						
							<line id="Linea_250" fill="none" stroke="#5151FC" stroke-width="0.239" stroke-miterlimit="10" stroke-dasharray="1.154" x1="235.19901" y1="0.087" x2="235.19901" y2="164.698"/>
						
							<line id="Linea_251" fill="none" stroke="#5151FC" stroke-width="0.239" stroke-miterlimit="10" stroke-dasharray="1.154" x1="280.78" y1="0.087" x2="280.78" y2="164.698"/>
						
							<line id="Linea_252" fill="none" stroke="#5151FC" stroke-width="0.239" stroke-miterlimit="10" stroke-dasharray="1.154" x1="370.87" y1="0.087" x2="370.87" y2="164.698"/>
						
							<line id="Linea_253" fill="none" stroke="#5151FC" stroke-width="0.239" stroke-miterlimit="10" stroke-dasharray="1.154" x1="326.25699" y1="0.087" x2="326.25699" y2="164.698"/>
						
							<line id="Linea_254" fill="none" stroke="#5151FC" stroke-width="0.239" stroke-miterlimit="10" stroke-dasharray="1.154" x1="377.30499" y1="0.087" x2="377.30499" y2="164.698"/>
						
							<line id="Linea_255" fill="none" stroke="#5151FC" stroke-width="0.239" stroke-miterlimit="10" stroke-dasharray="1.154" x1="439.05801" y1="0.087" x2="439.05801" y2="164.698"/>
						
							<line id="Linea_256" fill="none" stroke="#5151FC" stroke-width="0.239" stroke-miterlimit="10" stroke-dasharray="1.154" x1="431.845" y1="0.087" x2="431.845" y2="164.698"/>
						
							<line id="Linea_257" fill="none" stroke="#5151FC" stroke-width="0.239" stroke-miterlimit="10" stroke-dasharray="1.154" x1="464.71301" y1="0.087" x2="464.71301" y2="164.698"/>
						
							<line id="Linea_258" fill="none" stroke="#5151FC" stroke-width="0.239" stroke-miterlimit="10" stroke-dasharray="1.154" x1="543.63202" y1="0.087" x2="543.63202" y2="164.698"/>
						
							<line id="Linea_259" fill="none" stroke="#5151FC" stroke-width="0.239" stroke-miterlimit="10" stroke-dasharray="1.154" x1="568.58002" y1="0.087" x2="568.58002" y2="164.698"/>
						
							<line id="Linea_260" fill="none" stroke="#5151FC" stroke-width="0.239" stroke-miterlimit="10" stroke-dasharray="1.154" x1="677.58002" y1="0" x2="677.58002" y2="164.61099"/>
						
							<line id="Linea_261" fill="none" stroke="#5151FC" stroke-width="0.239" stroke-miterlimit="10" stroke-dasharray="1.154" x1="721.33197" y1="0.087" x2="721.33197" y2="164.698"/>
						
							<line id="Linea_262" fill="none" stroke="#5151FC" stroke-width="0.239" stroke-miterlimit="10" stroke-dasharray="1.154" x1="763.05603" y1="0.087" x2="763.05603" y2="164.698"/>
						
							<line id="Linea_263" fill="none" stroke="#5151FC" stroke-width="0.239" stroke-miterlimit="10" stroke-dasharray="1.154" x1="681.88202" y1="0.087" x2="681.88202" y2="164.698"/>
						
							<line id="Linea_264" fill="none" stroke="#5151FC" stroke-width="0.239" stroke-miterlimit="10" stroke-dasharray="1.154" x1="806.16699" y1="0.087" x2="806.16699" y2="164.698"/>
						
							<line id="Linea_265" fill="none" stroke="#5151FC" stroke-width="0.239" stroke-miterlimit="10" stroke-dasharray="1.154" x1="846.41498" y1="0.087" x2="846.41498" y2="164.698"/>
						
							<line id="Linea_266" fill="none" stroke="#5151FC" stroke-width="0.239" stroke-miterlimit="10" stroke-dasharray="1.154" x1="874.94397" y1="0.087" x2="874.94397" y2="164.698"/>
					</g>
				</g>
				<g id="all" transform="translate(0 0.79)">
					<g id="lines-2" transform="translate(0 0)" opacity="0.41">
						<path id="Tracciato_1475" fill="none" stroke="#000000" stroke-width="0.5" d="M0,163.09401
							c5.31702-6.272,10.63397-12.545,15.95099-12.545"/>
						<path id="Tracciato_1476" fill="none" stroke="#000000" stroke-width="0.5" d="M15.95099,150.54802
							c1.46997,0,2.94,12.545,4.40997,12.545"/>
						<path id="Tracciato_1477" fill="none" stroke="#000000" stroke-width="0.5" d="M20.36096,163.09401
							c0.59998,0,1.19202-12.545,1.789-12.545"/>
						<path id="Tracciato_1478" fill="none" stroke="#000000" stroke-width="0.5" d="M22.14996,150.54802
							c0.54797,0,1.09998,12.545,1.64398,12.545"/>
						<path id="Tracciato_1479" fill="none" stroke="#000000" stroke-width="0.5" d="M23.79297,163.09299
							c0.64203,0,1.28302-71.09201,1.92499-71.09201"/>
						<path id="Tracciato_1480" fill="none" stroke="#000000" stroke-width="0.5" d="M25.71796,92.00098
							c0.91199,0,1.82501,11.01501,2.737,20.91"/>
						<path id="Tracciato_1481" fill="none" stroke="#000000" stroke-width="0.5" d="M28.45502,112.91101
							c1.13,12.24701,2.25897,50.18201,3.388,50.18201"/>
						<path id="Tracciato_1482" fill="none" stroke="#000000" stroke-width="0.5" d="M31.841,163.09302
							c1.284,0,2.56799-59.19,3.85199-75.27402"/>
						<path id="Tracciato_1483" fill="none" stroke="#000000" stroke-width="0.5" d="M35.69495,87.819
							c0.95099-11.909,1.90002-20.909,2.85199-20.909"/>
						<path id="Tracciato_1484" fill="none" stroke="#000000" stroke-width="0.5" d="M38.547,66.91
							c0.66199,0,1.323,41.819,1.98401,41.819"/>
						<path id="Tracciato_1485" fill="none" stroke="#000000" stroke-width="0.5" d="M40.53101,108.729
							c0.758,0,1.51501-79.45599,2.27301-79.45599"/>
						<path id="Tracciato_1486" fill="none" stroke="#000000" stroke-width="0.5" d="M42.80402,29.27298
							c0.60999,0,1.21899,133.821,1.82898,133.821"/>
						<path id="Tracciato_1487" fill="none" stroke="#000000" stroke-width="0.5" d="M44.63202,163.09401
							c0.59998,0,1.20001-15.7,1.79999-33.455"/>
						<path id="Tracciato_1488" fill="none" stroke="#000000" stroke-width="0.5" d="M46.43604,129.638
							c0.58801-17.375,1.17603-54.935,1.76398-71.09201"/>
						<path id="Tracciato_1489" fill="none" stroke="#000000" stroke-width="0.5" d="M48.20001,58.547
							c0.51501-14.12701,1.02899-25.09201,1.54303-25.09201"/>
						<path id="Tracciato_1490" fill="none" stroke="#000000" stroke-width="0.5" d="M49.742,33.45499
							c0.56097,0,1.12097,129.63901,1.68201,129.63901"/>
						<path id="Tracciato_1491" fill="none" stroke="#000000" stroke-width="0.5" d="M51.42401,163.091
							c0.85797,0,1.71399-125.457,2.57202-125.457"/>
						<path id="Tracciato_1492" fill="none" stroke="#000000" stroke-width="0.5" d="M53.99603,37.63702
							c1.00598,0,2.01099,62.728,3.01801,62.728"/>
						<path id="Tracciato_1493" fill="none" stroke="#000000" stroke-width="0.5" d="M57.01398,100.36499
							c0.72998,0,1.46002-96.18301,2.19-96.18301"/>
						<path id="Tracciato_1494" fill="none" stroke="#000000" stroke-width="0.5" d="M59.20398,4.18201
							c0.547,0,1.09399,75.27301,1.64099,75.27301"/>
						<path id="Tracciato_1495" fill="none" stroke="#000000" stroke-width="0.5" d="M60.84497,79.45602
							c0.34497,0,0.68903-27.20898,1.03302-41.819"/>
						<path id="Tracciato_1496" fill="none" stroke="#000000" stroke-width="0.5" d="M61.87799,37.63699
							c0.25403-10.78699,0.508-33.45502,0.76202-33.45502"/>
						<path id="Tracciato_1497" fill="none" stroke="#000000" stroke-width="0.5" d="M62.63898,4.18201
							c0.29999,0,0.59198,45.27399,0.88702,66.91"/>
						<path id="Tracciato_1498" fill="none" stroke="#000000" stroke-width="0.5" d="M63.526,71.09201
							c0.44,32.13998,0.87903,92,1.31799,92"/>
						<path id="Tracciato_1499" fill="none" stroke="#000000" stroke-width="0.5" d="M64.84399,163.095
							c0.70001,0,1.40002-72.03,2.09998-96.18298"/>
						<path id="Tracciato_1500" fill="none" stroke="#000000" stroke-width="0.5" d="M66.94202,66.91
							c0.92603-32.01199,1.85199-54.36499,2.77899-54.36499"/>
						<path id="Tracciato_1501" fill="none" stroke="#000000" stroke-width="0.5" d="M69.72003,12.54498
							c1.06299,0,2.12701,75.27399,3.19,75.27399"/>
						<path id="Tracciato_1502" fill="none" stroke="#000000" stroke-width="0.5" d="M72.90601,87.819
							c1.05402,0,2.10699-83.63699,3.15997-83.63699"/>
						<path id="Tracciato_1503" fill="none" stroke="#000000" stroke-width="0.5" d="M76.07001,4.18201
							c0.68103,0,1.362,83.63699,2.04199,83.63699"/>
						<path id="Tracciato_1504" fill="none" stroke="#000000" stroke-width="0.5" d="M78.11298,87.819
							c1.87598,0,3.75201-54.36398,5.62799-54.36398"/>
						<path id="Tracciato_1505" fill="none" stroke="#000000" stroke-width="0.5" d="M83.73999,33.45499
							c1.914,0,3.82794,22.30334,5.742,66.91"/>
						<path id="Tracciato_1506" fill="none" stroke="#000000" stroke-width="0.5" d="M89.48199,100.36502
							c0.56097,13.056,1.12097,62.728,1.68103,62.728"/>
						<path id="Tracciato_1507" fill="none" stroke="#000000" stroke-width="0.5" d="M91.16296,163.095
							c0.47998,0,0.961-96.18298,1.44098-96.18298"/>
						<path id="Tracciato_1508" fill="none" stroke="#000000" stroke-width="0.5" d="M92.60602,66.91
							c0.45099,0,0.90002,76.763,1.35199,83.638"/>
						<path id="Tracciato_1509" fill="none" stroke="#000000" stroke-width="0.5" d="M93.95496,150.54802
							c0.54803,8.36267,1.09637,12.54434,1.64502,12.545"/>
						<path id="Tracciato_1510" fill="none" stroke="#000000" stroke-width="0.5" d="M95.60004,163.09399
							c0.37201,0,0.74597-126.20999,1.11798-129.63901"/>
						<path id="Tracciato_1511" fill="none" stroke="#000000" stroke-width="0.5" d="M96.72198,33.45499
							c0.30402-2.78799,0.60773-4.18201,0.91101-4.18201"/>
						<path id="Tracciato_1512" fill="none" stroke="#000000" stroke-width="0.5" d="M97.62903,29.27298
							c0.57397,0,1.14801,133.821,1.72198,133.821"/>
						<path id="Tracciato_1513" fill="none" stroke="#000000" stroke-width="0.5" d="M99.35095,163.093
							c0.83197,0,1.66302-54.364,2.5-54.364"/>
						<path id="Tracciato_1514" fill="none" stroke="#000000" stroke-width="0.5" d="M101.84601,108.729
							c0.79999,0,1.60699,54.364,2.40997,54.364"/>
						<path id="Tracciato_1515" fill="none" stroke="#000000" stroke-width="0.5" d="M104.25598,163.091
							c0.74103,0,1.48199-125.457,2.22302-125.457"/>
						<path id="Tracciato_1516" fill="none" stroke="#000000" stroke-width="0.5" d="M106.479,37.63702
							c0.53003,0,1.06097,71.09201,1.591,71.09201"/>
						<path id="Tracciato_1517" fill="none" stroke="#000000" stroke-width="0.5" d="M108.06897,108.729
							c0.73602,0,1.47101-96.18399,2.20599-96.18399"/>
						<path id="Tracciato_1518" fill="none" stroke="#000000" stroke-width="0.5" d="M110.27502,12.54498
							c0.67798,0,1.35602,150.548,2.034,150.548"/>
						<path id="Tracciato_1519" fill="none" stroke="#000000" stroke-width="0.5" d="M112.30499,163.093
							c0.51703,0,1.034-54.364,1.55103-54.364"/>
						<path id="Tracciato_1520" fill="none" stroke="#000000" stroke-width="0.5" d="M113.86096,108.729
							c1.09998,0,2.20001,4.18201,3.29999,4.18201"/>
						<path id="Tracciato_1521" fill="none" stroke="#000000" stroke-width="0.5" d="M117.15796,112.91101
							c0.80902,0,1.61902-33.45599,2.42902-33.45599"/>
						<path id="Tracciato_1522" fill="none" stroke="#000000" stroke-width="0.5" d="M119.586,79.45499
							c0.61499,0,1.23199,83.638,1.84802,83.638"/>
						<path id="Tracciato_1523" fill="none" stroke="#000000" stroke-width="0.5" d="M121.435,163.093
							c0.72498,0,1.45099-158.911,2.177-158.911"/>
						<path id="Tracciato_1524" fill="none" stroke="#000000" stroke-width="0.5" d="M123.61102,4.18201
							c0.45801,0,0.91602,108.729,1.37402,108.729"/>
						<path id="Tracciato_1525" fill="none" stroke="#000000" stroke-width="0.5" d="M124.98499,112.91098
							c0.55603,0,1.10999-34.944,1.66602-37.63699"/>
						<path id="Tracciato_1526" fill="none" stroke="#000000" stroke-width="0.5" d="M126.651,75.27399
							c1.72461-8.36398,3.44965-12.54599,5.17499-12.54599"/>
						<path id="Tracciato_1527" fill="none" stroke="#000000" stroke-width="0.5" d="M131.82605,62.728
							c1.55603,0,3.11298,25.091,4.66998,25.091"/>
						<path id="Tracciato_1528" fill="none" stroke="#000000" stroke-width="0.5" d="M136.49597,87.819
							c0.61298,0,1.22498-20.909,1.83801-20.909"/>
						<path id="Tracciato_1529" fill="none" stroke="#000000" stroke-width="0.5" d="M138.33398,66.91
							c0.54999,0,1.09998,96.183,1.651,96.183"/>
						<path id="Tracciato_1530" fill="none" stroke="#000000" stroke-width="0.5" d="M139.98401,163.093
							c0.164,0,0.32599-40.61299,0.48901-50.18199"/>
						<path id="Tracciato_1531" fill="none" stroke="#000000" stroke-width="0.5" d="M140.47302,112.91101
							c0.85535-50.18268,1.71033-75.27405,2.565-75.27402"/>
						<path id="Tracciato_1532" fill="none" stroke="#000000" stroke-width="0.5" d="M143.03796,37.63702
							c0.96802,0,1.93701,75.27402,2.90002,75.27402"/>
						<path id="Tracciato_1533" fill="none" stroke="#000000" stroke-width="0.5" d="M145.94299,112.91101
							c2.01703,0,4.034-75.27402,6.05103-75.27402"/>
						<path id="Tracciato_1534" fill="none" stroke="#000000" stroke-width="0.5" d="M151.99799,37.63702
							c2.17401,0,4.34802,37.638,6.521,37.638"/>
						<path id="Tracciato_1535" fill="none" stroke="#000000" stroke-width="0.5" d="M158.51501,75.27399
							c0.48798,0,0.97601-8.36401,1.46503-8.36401"/>
						<path id="Tracciato_1536" fill="none" stroke="#000000" stroke-width="0.5" d="M159.98102,66.91
							c0.71002,0,1.422,54.36401,2.133,54.36401"/>
						<path id="Tracciato_1537" fill="none" stroke="#000000" stroke-width="0.5" d="M162.11298,121.27502
							c1.07703,0,2.15399-2.27701,3.23102-4.18201"/>
						<path id="Tracciato_1538" fill="none" stroke="#000000" stroke-width="0.5" d="M165.34497,117.09302
							c0.67401-1.194,1.349-1.39401,2.02301-4.18201"/>
						<path id="Tracciato_1539" fill="none" stroke="#000000" stroke-width="0.5" d="M167.367,112.91101
							c0.53998-2.23499,1.08099-79.45599,1.62097-79.45599"/>
						<path id="Tracciato_1540" fill="none" stroke="#000000" stroke-width="0.5" d="M168.98798,33.45499
							c0.97998,0,1.96002,58.54599,2.93903,58.54599"/>
						<path id="Tracciato_1541" fill="none" stroke="#000000" stroke-width="0.5" d="M171.92804,92.00101
							c1.26099,0,2.52301-42.39499,3.784-54.36401"/>
						<path id="Tracciato_1542" fill="none" stroke="#000000" stroke-width="0.5" d="M175.716,37.63699
							c0.974-9.25,1.94897-16.728,2.92401-16.728"/>
						<path id="Tracciato_1543" fill="none" stroke="#000000" stroke-width="0.5" d="M178.63501,20.909
							c1.02502,0,2.04999,9.72601,3.07501,12.54599"/>
						<path id="Tracciato_1544" fill="none" stroke="#000000" stroke-width="0.5" d="M181.70996,33.45499
							c0.83801,2.29999,1.67499,1.39401,2.51202,4.18201"/>
						<path id="Tracciato_1545" fill="none" stroke="#000000" stroke-width="0.5" d="M184.22205,37.63702
							c0.31897,1.06299,0.63898,26.828,0.95801,37.638"/>
						<path id="Tracciato_1546" fill="none" stroke="#000000" stroke-width="0.5" d="M185.17999,75.27399
							c0.41803,14.11099,0.83398,28.63699,1.25201,33.45502"/>
						<path id="Tracciato_1547" fill="none" stroke="#000000" stroke-width="0.5" d="M186.43195,108.729
							c0.72339,8.36398,1.44702,12.54599,2.17102,12.54599"/>
						<path id="Tracciato_1548" fill="none" stroke="#000000" stroke-width="0.5" d="M188.60303,121.276
							c0.90002,0,1.80499-87.82001,2.70801-87.82001"/>
						<path id="Tracciato_1549" fill="none" stroke="#000000" stroke-width="0.5" d="M191.31,33.45499
							c0.80603,0,1.612,79.45599,2.41803,79.45599"/>
						<path id="Tracciato_1550" fill="none" stroke="#000000" stroke-width="0.5" d="M193.72797,112.91101
							c0.70001,0,1.40002-92,2.09998-92"/>
						<path id="Tracciato_1551" fill="none" stroke="#000000" stroke-width="0.5" d="M195.83197,20.909
							c0.73938,0.00003,1.47894,2.78802,2.21899,8.36401"/>
						<path id="Tracciato_1552" fill="none" stroke="#000000" stroke-width="0.5" d="M198.04999,29.27298
							c0.79999,6.04401,1.59998,29.146,2.40503,46"/>
						<path id="Tracciato_1553" fill="none" stroke="#000000" stroke-width="0.5" d="M200.45502,75.27399
							c0.5,10.55399,1,33.45502,1.50598,33.45502"/>
						<path id="Tracciato_1554" fill="none" stroke="#000000" stroke-width="0.5" d="M201.96198,108.729
							c0.95099,0,1.90002-71.09201,2.85303-71.09201"/>
						<path id="Tracciato_1555" fill="none" stroke="#000000" stroke-width="0.5" d="M204.815,37.63702
							c0.90002,0,1.79999,52.819,2.69397,71.09201"/>
						<path id="Tracciato_1556" fill="none" stroke="#000000" stroke-width="0.5" d="M207.50903,108.729
							c0.49103,9.983,0.98102,25.09201,1.47198,25.09201"/>
						<path id="Tracciato_1557" fill="none" stroke="#000000" stroke-width="0.5" d="M208.98102,133.82101
							c0.57501,0,1.15198-129.63901,1.72699-129.63901"/>
						<path id="Tracciato_1558" fill="none" stroke="#000000" stroke-width="0.5" d="M210.70404,4.18201
							c1.177,0,2.354,117.09299,3.53003,117.09299"/>
						<path id="Tracciato_1559" fill="none" stroke="#000000" stroke-width="0.5" d="M214.23798,121.276
							c1.33502,0,2.66998-63.686,4-87.82001"/>
						<path id="Tracciato_1560" fill="none" stroke="#000000" stroke-width="0.5" d="M218.24298,33.45502
							c0.59998-10.784,1.19299-29.27301,1.78998-29.27301"/>
						<path id="Tracciato_1561" fill="none" stroke="#000000" stroke-width="0.5" d="M220.03204,4.18201
							c0.97803,0,1.95697,104.547,2.935,104.547"/>
						<path id="Tracciato_1562" fill="none" stroke="#000000" stroke-width="0.5" d="M222.96802,108.729
							c1.51538,0,3.03003-2.78799,4.54401-8.36401"/>
						<path id="Tracciato_1563" fill="none" stroke="#000000" stroke-width="0.5" d="M227.51196,100.36499
							c1-3.70001,2.00897-41.59299,3.01501-66.91"/>
						<path id="Tracciato_1564" fill="none" stroke="#000000" stroke-width="0.5" d="M230.52698,33.45502
							c0.37-9.34702,0.742-29.27301,1.112-29.27301"/>
						<path id="Tracciato_1565" fill="none" stroke="#000000" stroke-width="0.5" d="M231.63898,4.18201
							c0.52502,0,1.05103,19.509,1.57599,33.45499"/>
						<path id="Tracciato_1566" fill="none" stroke="#000000" stroke-width="0.5" d="M233.21503,37.63702
							c0.52399,13.93799,1.04901,36.29501,1.57397,50.18201"/>
						<path id="Tracciato_1567" fill="none" stroke="#000000" stroke-width="0.5" d="M234.789,87.819
							c1.12701,29.82001,2.25299,50.18298,3.38,50.18298"/>
						<path id="Tracciato_1568" fill="none" stroke="#000000" stroke-width="0.5" d="M238.16998,138.00201
							c1.09198,0,2.18402-71.09201,3.27502-71.09201"/>
						<path id="Tracciato_1569" fill="none" stroke="#000000" stroke-width="0.5" d="M241.44501,66.91
							c1.18701,0,2.375,83.638,3.56299,83.638"/>
						<path id="Tracciato_1570" fill="none" stroke="#000000" stroke-width="0.5" d="M245.00702,150.548
							c1.18402,0,2.36798-50.18298,3.552-50.18298"/>
						<path id="Tracciato_1571" fill="none" stroke="#000000" stroke-width="0.5" d="M248.55902,100.36502
							c0.79999,0,1.59998,8.36401,2.40002,8.36401"/>
						<path id="Tracciato_1572" fill="none" stroke="#000000" stroke-width="0.5" d="M250.95599,108.729
							c1.7193,0,3.43829-2.78799,5.15698-8.36401"/>
						<path id="Tracciato_1573" fill="none" stroke="#000000" stroke-width="0.5" d="M256.11298,100.36499
							c1.67102-5.41901,3.341-51.98801,5.01202-66.91"/>
						<path id="Tracciato_1574" fill="none" stroke="#000000" stroke-width="0.5" d="M261.125,33.45499
							c0.82599-7.38199,1.65302-16.728,2.479-16.728"/>
						<path id="Tracciato_1575" fill="none" stroke="#000000" stroke-width="0.5" d="M263.604,16.72699
							c1.10602,0,2.21198,92,3.31897,92"/>
						<path id="Tracciato_1576" fill="none" stroke="#000000" stroke-width="0.5" d="M266.92303,108.729
							c1.05701,0,2.11499-29.27399,3.172-29.27399"/>
						<path id="Tracciato_1577" fill="none" stroke="#000000" stroke-width="0.5" d="M270.09601,79.45499
							c0.453,0,0.90601,41.82001,1.35797,41.82001"/>
						<path id="Tracciato_1578" fill="none" stroke="#000000" stroke-width="0.5" d="M271.45398,121.27002
							c0.5,0,1.008-19.57199,1.513-33.45599"/>
						<path id="Tracciato_1579" fill="none" stroke="#000000" stroke-width="0.5" d="M272.96704,87.819
							c0.50702-13.96399,1.01398-47.591,1.52197-50.18201"/>
						<path id="Tracciato_1580" fill="none" stroke="#000000" stroke-width="0.5" d="M274.48901,37.63699
							c0.54602-2.78799,1.09198-1.79199,1.63702-4.18201"/>
						<path id="Tracciato_1581" fill="none" stroke="#000000" stroke-width="0.5" d="M276.12598,33.45499
							c0.93103-4.07401,1.862-20.91,2.79199-20.91"/>
						<path id="Tracciato_1582" fill="none" stroke="#000000" stroke-width="0.5" d="M278.91699,12.54498
							c1.953,0,3.90601,41.82001,5.85901,41.82001"/>
						<path id="Tracciato_1583" fill="none" stroke="#000000" stroke-width="0.5" d="M284.77698,54.36401
							c1.492,0,2.98199-50.18301,4.474-50.18301"/>
						<path id="Tracciato_1584" fill="none" stroke="#000000" stroke-width="0.5" d="M289.25098,4.18201
							c0.47998,0,0.96198,87.819,1.44202,87.819"/>
						<path id="Tracciato_1585" fill="none" stroke="#000000" stroke-width="0.5" d="M290.69202,92.00101
							c0.349,0,0.70001-17.78601,1.047-25.091"/>
						<path id="Tracciato_1586" fill="none" stroke="#000000" stroke-width="0.5" d="M291.73901,66.91101
							c0.79498-16.66101,1.59003-33.45599,2.38501-33.45599"/>
						<path id="Tracciato_1587" fill="none" stroke="#000000" stroke-width="0.5" d="M294.125,33.45499
							c1.27899,0,2.55798,54.36398,3.83801,54.36398"/>
						<path id="Tracciato_1588" fill="none" stroke="#000000" stroke-width="0.5" d="M297.96301,87.819
							c1.84998,0,3.70001-50.18201,5.552-50.18201"/>
						<path id="Tracciato_1589" fill="none" stroke="#000000" stroke-width="0.5" d="M303.51697,37.63702
							c1.953,0,3.90802,112.912,5.862,112.912"/>
						<path id="Tracciato_1590" fill="none" stroke="#000000" stroke-width="0.5" d="M309.37695,150.548
							c1.21698,0,2.435-50.18298,3.65198-50.18298"/>
						<path id="Tracciato_1591" fill="none" stroke="#000000" stroke-width="0.5" d="M313.02301,100.36502
							c0.88898,0,1.77899,8.36401,2.66803,8.36401"/>
						<path id="Tracciato_1592" fill="none" stroke="#000000" stroke-width="0.5" d="M315.69598,108.72498
							c1.84802,0,3.70001-27.311,5.54303-33.45502"/>
						<path id="Tracciato_1593" fill="none" stroke="#000000" stroke-width="0.5" d="M321.23901,75.27399
							c1.67596-5.57666,3.35266-8.36465,5.03003-8.36401"/>
						<path id="Tracciato_1594" fill="none" stroke="#000000" stroke-width="0.5" d="M326.26898,66.91c0.724,0,1.448,46,2.17401,46"
							/>
						<path id="Tracciato_1595" fill="none" stroke="#000000" stroke-width="0.5" d="M328.44299,112.91101
							c0.76398,0,1.52899-15.53299,2.29303-33.45599"/>
						<path id="Tracciato_1596" fill="none" stroke="#000000" stroke-width="0.5" d="M330.73596,79.45599
							c0.80798-18.931,1.61603-79.45502,2.42401-79.45502"/>
						<path id="Tracciato_1597" fill="none" stroke="#000000" stroke-width="0.5" d="M333.16003,0
							c0.66803,0,1.33698,77.74701,2.005,87.819"/>
						<path id="Tracciato_1598" fill="none" stroke="#000000" stroke-width="0.5" d="M335.16504,87.819
							c0.18402,2.78799,0.36902,2.13501,0.55499,4.18201"/>
						<path id="Tracciato_1599" fill="none" stroke="#000000" stroke-width="0.5" d="M335.72003,92.00098
							c0.48102,5.32999,0.96198,29.27399,1.44501,29.27399"/>
						<path id="Tracciato_1600" fill="none" stroke="#000000" stroke-width="0.5" d="M337.164,121.27002
							c0.64099,0,1.28302-33.45599,1.92499-33.45599"/>
						<path id="Tracciato_1601" fill="none" stroke="#000000" stroke-width="0.5" d="M339.09302,87.819
							c0.82703,0,1.65302,20.91,2.48102,20.91"/>
						<path id="Tracciato_1602" fill="none" stroke="#000000" stroke-width="0.5" d="M341.57001,108.729
							c0.69299,0,1.38501-12.74899,2.078-16.728"/>
						<path id="Tracciato_1603" fill="none" stroke="#000000" stroke-width="0.5" d="M343.64801,92.00101
							c0.29199-1.67801,0.58398-4.18201,0.87598-4.18201"/>
						<path id="Tracciato_1604" fill="none" stroke="#000000" stroke-width="0.5" d="M344.52399,87.819
							c0.90802,0,1.815,20.91,2.72302,20.91"/>
						<path id="Tracciato_1605" fill="none" stroke="#000000" stroke-width="0.5" d="M347.24597,108.729
							c0.88397,0,1.76801-75.27399,2.65198-75.27399"/>
						<path id="Tracciato_1606" fill="none" stroke="#000000" stroke-width="0.5" d="M349.89899,33.45499
							c0.25702,0,0.513,20.91,0.76801,20.91"/>
						<path id="Tracciato_1607" fill="none" stroke="#000000" stroke-width="0.5" d="M350.66699,54.36398
							C350.875,54.36398,351.08301,0,351.28998,0"/>
						<path id="Tracciato_1608" fill="none" stroke="#000000" stroke-width="0.5" d="M351.28998,0
							c0.49298,0,0.987,121.27499,1.48102,121.27499"/>
						<path id="Tracciato_1609" fill="none" stroke="#000000" stroke-width="0.5" d="M352.771,121.27499
							c0.49402,0,0.98798-12.54599,1.48199-12.54599"/>
						<path id="Tracciato_1610" fill="none" stroke="#000000" stroke-width="0.5" d="M354.25299,108.729
							c0.70697,0,1.41199,54.364,2.11798,54.364"/>
						<path id="Tracciato_1611" fill="none" stroke="#000000" stroke-width="0.5" d="M356.37097,163.093
							c0.862,0,1.72498-54.364,2.58801-54.364"/>
						<path id="Tracciato_1612" fill="none" stroke="#000000" stroke-width="0.5" d="M358.95898,108.729
							c0.57001,0,1.14203,12.54599,1.71301,12.54599"/>
						<path id="Tracciato_1613" fill="none" stroke="#000000" stroke-width="0.5" d="M360.67206,121.27402
							c0.88898,0,1.77802-66.91,2.66699-66.91"/>
						<path id="Tracciato_1614" fill="none" stroke="#000000" stroke-width="0.5" d="M363.33899,54.36401
							c0.88,0,1.76099,66.91,2.64099,66.91"/>
						<path id="Tracciato_1615" fill="none" stroke="#000000" stroke-width="0.5" d="M365.97998,121.27002
							c0.711,0,1.42102-17.561,2.13098-33.45599"/>
						<path id="Tracciato_1616" fill="none" stroke="#000000" stroke-width="0.5" d="M368.11102,87.819
							c0.59998-13.371,1.19501-37.172,1.79303-50.18201"/>
						<path id="Tracciato_1617" fill="none" stroke="#000000" stroke-width="0.5" d="M369.90399,37.63699
							c0.90002-19.508,1.79199-33.45502,2.68701-33.45502"/>
						<path id="Tracciato_1618" fill="none" stroke="#000000" stroke-width="0.5" d="M372.591,4.18201
							c0.87799,0,1.75702,92,2.63599,92"/>
						<path id="Tracciato_1619" fill="none" stroke="#000000" stroke-width="0.5" d="M375.22699,96.18301
							c0.315,0,0.63-37.66699,0.94598-58.54599"/>
						<path id="Tracciato_1620" fill="none" stroke="#000000" stroke-width="0.5" d="M376.17303,37.63699
							c0.164-10.78799,0.32599-33.45502,0.48901-33.45502"/>
						<path id="Tracciato_1621" fill="none" stroke="#000000" stroke-width="0.5" d="M376.66199,4.18201
							c0.25598,0,0.51202,108.729,0.76703,108.729"/>
						<path id="Tracciato_1622" fill="none" stroke="#000000" stroke-width="0.5" d="M377.42999,112.91101
							c0.55701,0,1.11298-25.09201,1.66998-25.09201"/>
						<path id="Tracciato_1623" fill="none" stroke="#000000" stroke-width="0.5" d="M379.09998,87.819
							c0.98602,0,1.97302,18.93701,2.95898,25.09201"/>
						<path id="Tracciato_1624" fill="none" stroke="#000000" stroke-width="0.5" d="M382.05798,112.91101
							c1.15802,7.22501,2.31598,12.54599,3.474,12.54599"/>
						<path id="Tracciato_1625" fill="none" stroke="#000000" stroke-width="0.5" d="M385.53302,125.457
							c0.79999,0,1.59998-34.98801,2.40601-37.638"/>
						<path id="Tracciato_1626" fill="none" stroke="#000000" stroke-width="0.5" d="M387.93903,87.819
							c0.84497-2.78699,1.68903-1.39401,2.53198-4.18201"/>
						<path id="Tracciato_1627" fill="none" stroke="#000000" stroke-width="0.5" d="M390.47101,83.63699
							c1.047-3.45599,2.09302-79.45502,3.14001-79.45502"/>
						<path id="Tracciato_1628" fill="none" stroke="#000000" stroke-width="0.5" d="M393.61096,4.18201
							c0.87299,0,1.745,83.63699,2.61902,83.63699"/>
						<path id="Tracciato_1629" fill="none" stroke="#000000" stroke-width="0.5" d="M396.23102,87.819
							c1.12402,0,2.24799-83.63699,3.37201-83.63699"/>
						<path id="Tracciato_1630" fill="none" stroke="#000000" stroke-width="0.5" d="M399.60303,4.18201
							c1.14801,0,2.29999,14.20001,3.44299,33.45499"/>
						<path id="Tracciato_1631" fill="none" stroke="#000000" stroke-width="0.5" d="M403.04602,37.63702
							c0.776,13.021,1.552,50.18201,2.32898,50.18201"/>
						<path id="Tracciato_1632" fill="none" stroke="#000000" stroke-width="0.5" d="M405.37396,87.819
							c1.48999,0,2.97803-54.36398,4.46802-54.36398"/>
						<path id="Tracciato_1633" fill="none" stroke="#000000" stroke-width="0.5" d="M409.84204,33.45499
							c1.34198,0,2.68298,104.548,4.02502,104.548"/>
						<path id="Tracciato_1634" fill="none" stroke="#000000" stroke-width="0.5" d="M413.87299,138.00201
							c0.435,0,0.87-50.18301,1.30499-50.18301"/>
						<path id="Tracciato_1635" fill="none" stroke="#000000" stroke-width="0.5" d="M415.17297,87.819
							c0.71503,0,1.43103,25.09201,2.14697,25.09201"/>
						<path id="Tracciato_1636" fill="none" stroke="#000000" stroke-width="0.5" d="M417.32001,112.91101
							c0.78699,0,1.57397-79.45599,2.362-79.45599"/>
						<path id="Tracciato_1637" fill="none" stroke="#000000" stroke-width="0.5" d="M419.68201,33.45499
							c0.77301,0,1.54797,4.18201,2.32202,4.18201"/>
						<path id="Tracciato_1638" fill="none" stroke="#000000" stroke-width="0.5" d="M422.00702,37.63699
							c0.79999,0,1.60797-4.18201,2.41302-4.18201"/>
						<path id="Tracciato_1639" fill="none" stroke="#000000" stroke-width="0.5" d="M424.41699,33.45499h2.034"/>
						<path id="Tracciato_1640" fill="none" stroke="#000000" stroke-width="0.5" d="M426.45099,33.45499
							c1.216,0,2.43201,79.45599,3.64801,79.45599"/>
						<path id="Tracciato_1641" fill="none" stroke="#000000" stroke-width="0.5" d="M430.09796,112.91098
							c1.89099,0,3.784-100.366,5.677-100.366"/>
						<path id="Tracciato_1642" fill="none" stroke="#000000" stroke-width="0.5" d="M435.77499,12.54498
							c1.379,0,2.759,48.181,4.138,75.27399"/>
						<path id="Tracciato_1643" fill="none" stroke="#000000" stroke-width="0.5" d="M439.91299,87.819
							c1.20001,23.577,2.39999,75.274,3.60001,75.274"/>
						<path id="Tracciato_1644" fill="none" stroke="#000000" stroke-width="0.5" d="M443.51501,163.093
							c1.479,0,2.957-38.985,4.436-54.364"/>
						<path id="Tracciato_1645" fill="none" stroke="#000000" stroke-width="0.5" d="M447.95001,108.729
							c0.89999-9.38501,1.80499-25.09201,2.707-25.09201"/>
						<path id="Tracciato_1646" fill="none" stroke="#000000" stroke-width="0.5" d="M450.65701,83.63699
							c0.88,0,1.759,25.09201,2.638,25.09201"/>
						<path id="Tracciato_1647" fill="none" stroke="#000000" stroke-width="0.5" d="M453.29596,108.729
							c0.67499,0,1.35101-14.60001,2.02499-20.91"/>
						<path id="Tracciato_1648" fill="none" stroke="#000000" stroke-width="0.5" d="M455.32101,87.819
							c0.66501-6.20999,1.328-12.64401,1.992-16.72699"/>
						<path id="Tracciato_1649" fill="none" stroke="#000000" stroke-width="0.5" d="M457.31201,71.09198
							c0.871-5.35901,1.74301-8.36401,2.61401-8.36401"/>
						<path id="Tracciato_1650" fill="none" stroke="#000000" stroke-width="0.5" d="M459.92603,62.728
							c0.608,0,1.215,50.18201,1.82401,50.18201"/>
						<path id="Tracciato_1651" fill="none" stroke="#000000" stroke-width="0.5" d="M461.74997,112.91101
							c0.561,0,1.12201-79.45599,1.68399-79.45599"/>
						<path id="Tracciato_1652" fill="none" stroke="#000000" stroke-width="0.5" d="M463.43399,33.45499
							c0.595,0,1.19101,79.45599,1.78601,79.45599"/>
						<path id="Tracciato_1653" fill="none" stroke="#000000" stroke-width="0.5" d="M465.21899,112.91098
							c0.55466,0,1.10898-12.54565,1.66299-37.63699"/>
						<path id="Tracciato_1654" fill="none" stroke="#000000" stroke-width="0.5" d="M466.88199,75.276
							c0.24399-11.022,0.487-41.82001,0.73099-41.82001"/>
						<path id="Tracciato_1655" fill="none" stroke="#000000" stroke-width="0.5" d="M467.61401,33.45499
							c0.23801,0,0.47601,104.548,0.71399,104.548"/>
						<path id="Tracciato_1656" fill="none" stroke="#000000" stroke-width="0.5" d="M468.328,138.00198
							c0.362,0,0.724-75.27402,1.086-75.27402"/>
						<path id="Tracciato_1657" fill="none" stroke="#000000" stroke-width="0.5" d="M469.41403,62.728
							c0.54135,0,1.08234,1.39401,1.62299,4.18201"/>
						<path id="Tracciato_1658" fill="none" stroke="#000000" stroke-width="0.5" d="M471.03702,66.91
							c0.78799,4.06299,1.577,96.183,2.36499,96.183"/>
						<path id="Tracciato_1659" fill="none" stroke="#000000" stroke-width="0.5" d="M473.40198,163.09399
							c3.55399,0,7.10699-129.63901,10.66-129.63901"/>
						<path id="Tracciato_1660" fill="none" stroke="#000000" stroke-width="0.5" d="M484.06198,33.45499
							c3.24536,0,6.49036,25.09137,9.73499,75.27402"/>
						<path id="Tracciato_1661" fill="none" stroke="#000000" stroke-width="0.5" d="M493.797,108.729
							c0.24899,3.85199,0.5,54.364,0.74701,54.364"/>
						<path id="Tracciato_1662" fill="none" stroke="#000000" stroke-width="0.5" d="M494.54398,163.093
							c0.5,0,0.991-45.88701,1.48599-62.72801"/>
						<path id="Tracciato_1663" fill="none" stroke="#000000" stroke-width="0.5" d="M496.03003,100.36502
							c1.23001-41.81866,2.45966-62.728,3.689-62.728"/>
						<path id="Tracciato_1664" fill="none" stroke="#000000" stroke-width="0.5" d="M499.71899,37.63702
							c1.47299,0,2.94601,71.09201,4.418,71.09201"/>
						<path id="Tracciato_1665" fill="none" stroke="#000000" stroke-width="0.5" d="M504.13696,108.729
							c1.009,0,2.01901-104.547,3.02899-104.547"/>
						<path id="Tracciato_1666" fill="none" stroke="#000000" stroke-width="0.5" d="M507.16602,4.18201
							c0.70001,0,1.39401,104.547,2.091,104.547"/>
						<path id="Tracciato_1667" fill="none" stroke="#000000" stroke-width="0.5" d="M509.25797,108.729
							c0.84601,0,1.69199-104.547,2.53699-104.547"/>
						<path id="Tracciato_1668" fill="none" stroke="#000000" stroke-width="0.5" d="M511.79504,4.18201
							c0.78668,0,1.57397,9.75769,2.362,29.27301"/>
						<path id="Tracciato_1669" fill="none" stroke="#000000" stroke-width="0.5" d="M514.15698,33.45499
							c0.492,12.20001,0.98499,129.63901,1.47699,129.63901"/>
						<path id="Tracciato_1670" fill="none" stroke="#000000" stroke-width="0.5" d="M515.63403,163.093
							c2.09003,0,4.18103-108.72899,6.271-108.72899"/>
						<path id="Tracciato_1671" fill="none" stroke="#000000" stroke-width="0.5" d="M521.90497,54.36401
							c2.08405,0,4.16602,62.728,6.25,62.728"/>
						<path id="Tracciato_1672" fill="none" stroke="#000000" stroke-width="0.5" d="M528.15503,117.09302
							c0.62402,0,1.24902-23,1.87299-29.27399"/>
						<path id="Tracciato_1673" fill="none" stroke="#000000" stroke-width="0.5" d="M530.02802,87.819
							c0.5-5.06799,1.00897-8.36401,1.51398-8.36401"/>
						<path id="Tracciato_1674" fill="none" stroke="#000000" stroke-width="0.5" d="M531.54303,79.45499
							c1.17999,0,2.35901,8.36401,3.539,8.36401"/>
						<path id="Tracciato_1675" fill="none" stroke="#000000" stroke-width="0.5" d="M535.08099,87.819
							c1.24597,0,2.492-20.909,3.73798-20.909"/>
						<path id="Tracciato_1676" fill="none" stroke="#000000" stroke-width="0.5" d="M538.81897,66.91
							c0.35999,0,0.72003,14.78101,1.08002,20.909"/>
						<path id="Tracciato_1677" fill="none" stroke="#000000" stroke-width="0.5" d="M539.89905,87.819
							c1.30597,22.246,2.612,22.39999,3.91797,33.45599"/>
						<path id="Tracciato_1678" fill="none" stroke="#000000" stroke-width="0.5" d="M543.81805,121.27499
							c1.66498,14.10001,3.33099,41.819,5,41.819"/>
						<path id="Tracciato_1679" fill="none" stroke="#000000" stroke-width="0.5" d="M548.81396,163.09302
							c1.26599,0,2.53302-75.27402,3.79999-75.27402"/>
						<path id="Tracciato_1680" fill="none" stroke="#000000" stroke-width="0.5" d="M552.61304,87.819
							c1.02802,0,2.05597,75.274,3.08496,75.274"/>
						<path id="Tracciato_1681" fill="none" stroke="#000000" stroke-width="0.5" d="M555.69806,163.09302
							c0.53497,0,1.07001-75.27402,1.60498-75.27402"/>
						<path id="Tracciato_1682" fill="none" stroke="#000000" stroke-width="0.5" d="M557.30402,87.819
							c0.789,0,1.57898,75.274,2.36896,75.274"/>
						<path id="Tracciato_1683" fill="none" stroke="#000000" stroke-width="0.5" d="M559.672,163.09302
							c0.62,0,1.24097-75.27402,1.86096-75.27402"/>
						<path id="Tracciato_1684" fill="none" stroke="#000000" stroke-width="0.5" d="M561.534,87.819
							c0.242,0,0.48303,4.18201,0.72504,4.18201"/>
						<path id="Tracciato_1685" fill="none" stroke="#000000" stroke-width="0.5" d="M562.25507,92.00101
							c0.47064,0,0.94098-1.39401,1.41101-4.18201"/>
						<path id="Tracciato_1686" fill="none" stroke="#000000" stroke-width="0.5" d="M563.66998,87.819
							c0.53204-3.15601,1.06403-20.909,1.60004-20.909"/>
						<path id="Tracciato_1687" fill="none" stroke="#000000" stroke-width="0.5" d="M565.26703,66.91c0.38,0,0.76001,46,1.14001,46
							"/>
						<path id="Tracciato_1688" fill="none" stroke="#000000" stroke-width="0.5" d="M566.40698,112.91101
							c0.29999,0,0.60004-79.45599,0.90802-79.45599"/>
						<path id="Tracciato_1689" fill="none" stroke="#000000" stroke-width="0.5" d="M567.31403,33.45499h0.68701"/>
						<path id="Tracciato_1690" fill="none" stroke="#000000" stroke-width="0.5" d="M568.00104,33.45499
							c0.34399,0,0.68701,79.45599,1.03101,79.45599"/>
						<path id="Tracciato_1691" fill="none" stroke="#000000" stroke-width="0.5" d="M569.03204,112.91101
							c0.46704,0,0.93604-79.45599,1.40002-79.45599"/>
						<path id="Tracciato_1692" fill="none" stroke="#000000" stroke-width="0.5" d="M570.43701,33.45499
							c0.57001,0,1.14099,63.87,1.711,66.91"/>
						<path id="Tracciato_1693" fill="none" stroke="#000000" stroke-width="0.5" d="M572.14801,100.36502
							c1.04669,5.57535,2.09302,8.36334,3.13898,8.36401"/>
						<path id="Tracciato_1694" fill="none" stroke="#000000" stroke-width="0.5" d="M575.29004,108.729
							c1.073,0,2.14496-8.36401,3.21899-8.36401"/>
						<path id="Tracciato_1695" fill="none" stroke="#000000" stroke-width="0.5" d="M578.50604,100.36502
							c0.67499,0,1.34998,20.91,2.02496,20.91"/>
						<path id="Tracciato_1696" fill="none" stroke="#000000" stroke-width="0.5" d="M580.53003,121.27002
							c0.70001,0,1.40002-33.45599,2.09302-33.45599"/>
						<path id="Tracciato_1697" fill="none" stroke="#000000" stroke-width="0.5" d="M582.62402,87.819
							c1.23199,0,2.46399,62.729,3.70001,62.729"/>
						<path id="Tracciato_1698" fill="none" stroke="#000000" stroke-width="0.5" d="M586.32001,150.549
							c1.01599,0,2.03302-117.09401,3.04901-117.09401"/>
						<path id="Tracciato_1699" fill="none" stroke="#000000" stroke-width="0.5" d="M589.36902,33.45499
							c0.37,0,0.742,54.36398,1.112,54.36398"/>
						<path id="Tracciato_1700" fill="none" stroke="#000000" stroke-width="0.5" d="M590.48102,87.819
							c0.25598,0,0.51196-83.63699,0.76697-83.63699"/>
						<path id="Tracciato_1701" fill="none" stroke="#000000" stroke-width="0.5" d="M591.24805,4.18201h0.50598"/>
						<path id="Tracciato_1702" fill="none" stroke="#000000" stroke-width="0.5" d="M591.755,4.18201h0.578"/>
						<path id="Tracciato_1703" fill="none" stroke="#000000" stroke-width="0.5" d="M592.33203,4.18201h0.76001"/>
						<path id="Tracciato_1704" fill="none" stroke="#000000" stroke-width="0.5" d="M593.09204,4.18201h0.565"/>
						<path id="Tracciato_1705" fill="none" stroke="#000000" stroke-width="0.5" d="M593.65601,4.18201h0.54199"/>
						<path id="Tracciato_1706" fill="none" stroke="#000000" stroke-width="0.5" d="M594.198,4.18201h0.48901"/>
						<path id="Tracciato_1707" fill="none" stroke="#000000" stroke-width="0.5" d="M594.68701,4.18201
							c0.09998,0,0.20001,117.09299,0.29999,117.09299"/>
						<path id="Tracciato_1708" fill="none" stroke="#000000" stroke-width="0.5" d="M594.98901,121.27499
							c0.73901,0,1.47803-12.54599,2.21704-12.54599"/>
						<path id="Tracciato_1709" fill="none" stroke="#000000" stroke-width="0.5" d="M597.20496,108.729
							c0.95599,0,1.91101,4.18201,2.867,4.18201"/>
						<path id="Tracciato_1710" fill="none" stroke="#000000" stroke-width="0.5" d="M600.07202,112.91101
							c0.758,0,1.51599-25.09201,2.27399-25.09201"/>
						<path id="Tracciato_1711" fill="none" stroke="#000000" stroke-width="0.5" d="M602.34607,87.819
							c0.617,0,1.23401,12.54599,1.84998,12.54599"/>
						<path id="Tracciato_1712" fill="none" stroke="#000000" stroke-width="0.5" d="M604.19604,100.36502
							c0.33197,0,0.664-50.64999,1-62.728"/>
						<path id="Tracciato_1713" fill="none" stroke="#000000" stroke-width="0.5" d="M605.19202,37.63699
							c0.61267-22.30334,1.22565-33.45505,1.83899-33.45502"/>
						<path id="Tracciato_1714" fill="none" stroke="#000000" stroke-width="0.5" d="M607.03003,4.18201
							c1.086,0,2.172,117.09299,3.25903,117.09299"/>
						<path id="Tracciato_1715" fill="none" stroke="#000000" stroke-width="0.5" d="M610.289,121.27499
							c0.729,0,1.45898-20.91,2.18896-20.91"/>
						<path id="Tracciato_1716" fill="none" stroke="#000000" stroke-width="0.5" d="M612.479,100.36502
							c0.28497,0,0.57098,29.27399,0.85797,29.27399"/>
						<path id="Tracciato_1717" fill="none" stroke="#000000" stroke-width="0.5" d="M613.33606,129.63901
							c0.77802,0,1.55597-16.728,2.33496-16.728"/>
						<path id="Tracciato_1718" fill="none" stroke="#000000" stroke-width="0.5" d="M615.66901,112.91101
							c1.33398,0,2.66797,8.36401,4,8.36401"/>
						<path id="Tracciato_1719" fill="none" stroke="#000000" stroke-width="0.5" d="M619.67303,121.27499
							c1.45996,0,2.92096-92,4.38098-92"/>
						<path id="Tracciato_1720" fill="none" stroke="#000000" stroke-width="0.5" d="M624.05402,29.27298
							c1,0,2,83.638,3.00702,83.638"/>
						<path id="Tracciato_1721" fill="none" stroke="#000000" stroke-width="0.5" d="M627.06097,112.91101
							c0.90802,0,1.815-79.45599,2.724-79.45599"/>
						<path id="Tracciato_1722" fill="none" stroke="#000000" stroke-width="0.5" d="M629.78198,33.45499
							c0.84503,0,1.69,75.27402,2.53503,75.27402"/>
						<path id="Tracciato_1723" fill="none" stroke="#000000" stroke-width="0.5" d="M632.31897,108.729
							c1.651,0,3.29999-75.27399,4.95502-75.27399"/>
						<path id="Tracciato_1724" fill="none" stroke="#000000" stroke-width="0.5" d="M637.27405,33.45499
							c1.71301,0,3.42596,75.27402,5.13898,75.27402"/>
						<path id="Tracciato_1725" fill="none" stroke="#000000" stroke-width="0.5" d="M642.41302,108.729
							c0.63104,0,1.26202-57.36301,1.89404-75.27399"/>
						<path id="Tracciato_1726" fill="none" stroke="#000000" stroke-width="0.5" d="M644.30603,33.45502
							c0.508-14.39999,1.01501-29.27301,1.52301-29.27301"/>
						<path id="Tracciato_1727" fill="none" stroke="#000000" stroke-width="0.5" d="M645.82904,4.18201
							c0.88898,0,1.77802,104.547,2.66699,104.547"/>
						<path id="Tracciato_1728" fill="none" stroke="#000000" stroke-width="0.5" d="M648.49603,108.72498
							c0.94,0,1.87897-33.45502,2.81799-33.45502"/>
						<path id="Tracciato_1729" fill="none" stroke="#000000" stroke-width="0.5" d="M651.31403,75.27399
							c0.729,0,1.45801,37.63699,2.18799,37.63699"/>
						<path id="Tracciato_1730" fill="none" stroke="#000000" stroke-width="0.5" d="M653.49902,112.91101
							c0.79504,0,1.59003-58.043,2.38501-79.45599"/>
						<path id="Tracciato_1731" fill="none" stroke="#000000" stroke-width="0.5" d="M655.88696,33.45502
							c0.41302-11.12701,0.82501-29.27301,1.23901-29.27301"/>
						<path id="Tracciato_1732" fill="none" stroke="#000000" stroke-width="0.5" d="M657.12604,4.18201
							c0.35901,0,0.71698,125.457,1.07599,125.457"/>
						<path id="Tracciato_1733" fill="none" stroke="#000000" stroke-width="0.5" d="M658.20398,129.63901
							c0.55304,0,1.10602-33.73599,1.65704-41.82001"/>
						<path id="Tracciato_1734" fill="none" stroke="#000000" stroke-width="0.5" d="M659.85901,87.819
							c0.37097-5.43799,0.74396-2.78699,1.11499-8.36401"/>
						<path id="Tracciato_1735" fill="none" stroke="#000000" stroke-width="0.5" d="M660.974,79.45499
							c0.35498-5.32401,0.70996-50.18201,1.06396-50.18201"/>
						<path id="Tracciato_1736" fill="none" stroke="#000000" stroke-width="0.5" d="M662.039,29.27298
							c0.97534,0,1.95068,2.78799,2.92596,8.36401"/>
						<path id="Tracciato_1737" fill="none" stroke="#000000" stroke-width="0.5" d="M664.966,37.63702
							c0.88098,5.039,1.76196,29.27399,2.64197,29.27399"/>
						<path id="Tracciato_1738" fill="none" stroke="#000000" stroke-width="0.5" d="M667.60699,66.91
							c0.53003,0,1.05902-54.36499,1.58899-54.36499"/>
						<path id="Tracciato_1739" fill="none" stroke="#000000" stroke-width="0.5" d="M669.19501,12.54498
							c0.362,0,0.72296,75.27399,1.08496,75.27399"/>
						<path id="Tracciato_1740" fill="none" stroke="#000000" stroke-width="0.5" d="M670.28003,87.819
							c0.16699,0,0.33197-8.36401,0.5-8.36401"/>
						<path id="Tracciato_1741" fill="none" stroke="#000000" stroke-width="0.5" d="M670.77802,79.45499
							c0.39301,0,0.78497,33.65701,1.177,46"/>
						<path id="Tracciato_1742" fill="none" stroke="#000000" stroke-width="0.5" d="M671.95502,125.457
							c0.71002,22.3,1.41803,37.63699,2.12701,37.63699"/>
						<path id="Tracciato_1743" fill="none" stroke="#000000" stroke-width="0.5" d="M674.08099,163.093
							c0.49103,0,0.98303-61.826,1.474-83.63802"/>
						<path id="Tracciato_1744" fill="none" stroke="#000000" stroke-width="0.5" d="M675.55603,79.45502
							c0.82397-36.60599,1.64801-58.54599,2.474-58.54599"/>
						<path id="Tracciato_1745" fill="none" stroke="#000000" stroke-width="0.5" d="M678.03003,20.909
							c1.10535,0.00003,2.21136,4.18198,3.31799,12.54599"/>
						<path id="Tracciato_1746" fill="none" stroke="#000000" stroke-width="0.5" d="M681.34698,33.45499
							c0.729,5.51099,1.45801,117.09399,2.18604,117.09399"/>
						<path id="Tracciato_1747" fill="none" stroke="#000000" stroke-width="0.5" d="M683.53406,150.54898
							c0.79999,0.00002,1.59998-5.57599,2.39996-16.728"/>
						<path id="Tracciato_1748" fill="none" stroke="#000000" stroke-width="0.5" d="M685.92902,133.82101
							c0.53198-7.43799,1.06403-112.91202,1.60004-112.91202"/>
						<path id="Tracciato_1749" fill="none" stroke="#000000" stroke-width="0.5" d="M687.52502,20.909
							c0.38495,0,0.76898,89.93201,1.15497,92"/>
						<path id="Tracciato_1750" fill="none" stroke="#000000" stroke-width="0.5" d="M688.68402,112.91101
							c1.03662,5.57532,2.0733,8.36334,3.10999,8.36401"/>
						<path id="Tracciato_1751" fill="none" stroke="#000000" stroke-width="0.5" d="M691.78998,121.27499
							c1.25867,0,2.51703-4.18201,3.77502-12.54599"/>
						<path id="Tracciato_1752" fill="none" stroke="#000000" stroke-width="0.5" d="M695.565,108.72498
							c0.63196-4.20001,1.26398-33.45502,1.89996-33.45502"/>
						<path id="Tracciato_1753" fill="none" stroke="#000000" stroke-width="0.5" d="M697.46002,75.27399
							c0.33099,0,0.66199,62.728,0.992,62.728"/>
						<path id="Tracciato_1754" fill="none" stroke="#000000" stroke-width="0.5" d="M698.45203,138.00299
							c0.45898,0,0.91797-104.548,1.37701-104.548"/>
						<path id="Tracciato_1755" fill="none" stroke="#000000" stroke-width="0.5" d="M699.82898,33.45499
							c0.49402,0,0.987,41.82001,1.48102,41.82001"/>
						<path id="Tracciato_1756" fill="none" stroke="#000000" stroke-width="0.5" d="M701.31006,75.276
							c0.383,0,0.76599-41.82001,1.14899-41.82001"/>
						<path id="Tracciato_1757" fill="none" stroke="#000000" stroke-width="0.5" d="M702.45905,33.45499
							c1.59998,0,3.20599,20.91,4.80798,20.91"/>
						<path id="Tracciato_1758" fill="none" stroke="#000000" stroke-width="0.5" d="M707.26703,54.36401
							c1.84998,0,3.69995-50.18301,5.552-50.18301"/>
						<path id="Tracciato_1759" fill="none" stroke="#000000" stroke-width="0.5" d="M712.81903,4.18201
							c0.633,0,1.26501,104.547,1.89996,104.547"/>
						<path id="Tracciato_1760" fill="none" stroke="#000000" stroke-width="0.5" d="M714.71698,108.728
							c0.69104,0,1.38104-54.36401,2.07104-54.36401"/>
						<path id="Tracciato_1761" fill="none" stroke="#000000" stroke-width="0.5" d="M716.78705,54.36401
							c0.86298,0,1.72595,12.54599,2.58899,12.54599"/>
						<path id="Tracciato_1762" fill="none" stroke="#000000" stroke-width="0.5" d="M719.37701,66.91
							c0.75702,0,1.513-54.36499,2.27002-54.36499"/>
						<path id="Tracciato_1763" fill="none" stroke="#000000" stroke-width="0.5" d="M721.64703,12.54498
							c0.659,0,1.31696,9.78,1.97699,20.91"/>
						<path id="Tracciato_1764" fill="none" stroke="#000000" stroke-width="0.5" d="M723.62299,33.45499
							c0.51202,8.64301,1.02301,25.37299,1.53503,33.45599"/>
						<path id="Tracciato_1765" fill="none" stroke="#000000" stroke-width="0.5" d="M725.15796,66.91
							c1.94202,30.66699,3.88202,31.00699,5.82404,46"/>
						<path id="Tracciato_1766" fill="none" stroke="#000000" stroke-width="0.5" d="M730.98199,112.91101
							c2.22504,17.17499,4.44904,50.18201,6.672,50.18201"/>
						<path id="Tracciato_1767" fill="none" stroke="#000000" stroke-width="0.5" d="M737.65399,163.091
							c0.83801,0,1.67603-113.11899,2.513-125.457"/>
						<path id="Tracciato_1768" fill="none" stroke="#000000" stroke-width="0.5" d="M740.16699,37.63699
							c0.75732-11.15131,1.51465-16.72733,2.27203-16.728"/>
						<path id="Tracciato_1769" fill="none" stroke="#000000" stroke-width="0.5" d="M742.43903,20.909
							c0.75397,0.00003,1.50732,4.18198,2.26001,12.54599"/>
						<path id="Tracciato_1770" fill="none" stroke="#000000" stroke-width="0.5" d="M744.69904,33.45499
							c0.55298,6.13101,1.09998,129.63901,1.65698,129.63901"/>
						<path id="Tracciato_1771" fill="none" stroke="#000000" stroke-width="0.5" d="M746.35602,163.09299
							c0.53802,0,1.07599-150.548,1.61401-150.548"/>
						<path id="Tracciato_1772" fill="none" stroke="#000000" stroke-width="0.5" d="M747.96997,12.54498
							c0.60004,0,1.19403,20.26099,1.79102,41.82001"/>
						<path id="Tracciato_1773" fill="none" stroke="#000000" stroke-width="0.5" d="M749.76099,54.36401
							c0.70801,25.54501,1.41498,108.729,2.12299,108.729"/>
						<path id="Tracciato_1774" fill="none" stroke="#000000" stroke-width="0.5" d="M751.88403,163.093
							c0.68799,0,1.37598-45.75002,2.06299-62.72801"/>
						<path id="Tracciato_1775" fill="none" stroke="#000000" stroke-width="0.5" d="M753.94702,100.36499
							c0.55603-13.71701,1.11102-33.45499,1.66699-33.45499"/>
						<path id="Tracciato_1776" fill="none" stroke="#000000" stroke-width="0.5" d="M755.61401,66.91
							c0.47205,0,0.94501,41.819,1.41705,41.819"/>
						<path id="Tracciato_1777" fill="none" stroke="#000000" stroke-width="0.5" d="M757.03101,108.73102
							c0.93298,0,1.867-72.547,2.79999-87.82001"/>
						<path id="Tracciato_1778" fill="none" stroke="#000000" stroke-width="0.5" d="M759.83105,20.909
							C760.68372,6.96967,761.53601,0.00003,762.38806,0"/>
						<path id="Tracciato_1779" fill="none" stroke="#000000" stroke-width="0.5" d="M762.38501,0
							c0.41101,0,0.82202,37.63699,1.23303,37.63699"/>
						<path id="Tracciato_1780" fill="none" stroke="#000000" stroke-width="0.5" d="M763.62103,37.63699
							c0.71198,0,1.42499-25.09201,2.138-25.09201"/>
						<path id="Tracciato_1781" fill="none" stroke="#000000" stroke-width="0.5" d="M765.758,12.54498
							c1.37103,0,2.74298,54.36499,4.11401,54.36499"/>
						<path id="Tracciato_1782" fill="none" stroke="#000000" stroke-width="0.5" d="M769.87299,66.91101
							c1.36902,0,2.73804-33.45599,4.10699-33.45599"/>
						<path id="Tracciato_1783" fill="none" stroke="#000000" stroke-width="0.5" d="M773.97998,33.45499
							c0.96704,0,1.93604,92,2.90002,92"/>
						<path id="Tracciato_1784" fill="none" stroke="#000000" stroke-width="0.5" d="M776.883,125.457
							c0.82599,0,1.65302-92,2.47998-92"/>
						<path id="Tracciato_1785" fill="none" stroke="#000000" stroke-width="0.5" d="M779.36298,33.45499
							c0.30005,0,0.60803,20.91,0.91003,20.91"/>
						<path id="Tracciato_1786" fill="none" stroke="#000000" stroke-width="0.5" d="M780.27301,54.36499
							c0.83801,0,1.67603-41.82001,2.51404-41.82001"/>
						<path id="Tracciato_1787" fill="none" stroke="#000000" stroke-width="0.5" d="M782.78699,12.54498
							c1.31067,0,2.62036,6.97,3.92902,20.91"/>
						<path id="Tracciato_1788" fill="none" stroke="#000000" stroke-width="0.5" d="M786.71606,33.45499
							c0.87396,9.29999,1.74799,92,2.62299,92"/>
						<path id="Tracciato_1789" fill="none" stroke="#000000" stroke-width="0.5" d="M789.33698,125.457
							c0.448,0,0.90002-92,1.34705-92"/>
						<path id="Tracciato_1790" fill="none" stroke="#000000" stroke-width="0.5" d="M790.68604,33.45499
							c0.22797,0,0.45697,20.91,0.685,20.91"/>
						<path id="Tracciato_1791" fill="none" stroke="#000000" stroke-width="0.5" d="M791.37097,54.36499
							c0.29102,0,0.58203-33.73199,0.87299-41.82001"/>
						<path id="Tracciato_1792" fill="none" stroke="#000000" stroke-width="0.5" d="M792.24402,12.54501
							c0.19104-5.32199,0.383-8.36301,0.57404-8.36301"/>
						<path id="Tracciato_1793" fill="none" stroke="#000000" stroke-width="0.5" d="M792.81799,4.18201
							c0.88403,0,1.76904,121.27499,2.65302,121.27499"/>
						<path id="Tracciato_1794" fill="none" stroke="#000000" stroke-width="0.5" d="M795.47101,125.457
							c1.09998,0,2.20001-44.39999,3.29297-87.82001"/>
						<path id="Tracciato_1795" fill="none" stroke="#000000" stroke-width="0.5" d="M798.76398,37.63699
							c0.26202-10.349,0.52203-33.45502,0.784-33.45502"/>
						<path id="Tracciato_1796" fill="none" stroke="#000000" stroke-width="0.5" d="M799.54797,4.18201
							c0.047,0,0.09399,5.768,0.14099,8.36301"/>
						<path id="Tracciato_1797" fill="none" stroke="#000000" stroke-width="0.5" d="M799.68903,12.54498
							c0.25098,13.866,0.5,25.09201,0.75397,25.09201"/>
						<path id="Tracciato_1798" fill="none" stroke="#000000" stroke-width="0.5" d="M800.44299,37.63699
							c0.52002,0,1.04199-16.728,1.56299-16.728"/>
						<path id="Tracciato_1799" fill="none" stroke="#000000" stroke-width="0.5" d="M802.00598,20.909
							c0.51105,0,1.02203,48.59,1.53302,66.91"/>
						<path id="Tracciato_1800" fill="none" stroke="#000000" stroke-width="0.5" d="M803.539,87.819
							c1.07397,38.491,2.14697,62.729,3.21997,62.729"/>
						<path id="Tracciato_1801" fill="none" stroke="#000000" stroke-width="0.5" d="M806.76001,150.549
							c1.72699,0,3.45398-17.90001,5.18097-29.274"/>
						<path id="Tracciato_1802" fill="none" stroke="#000000" stroke-width="0.5" d="M811.94,121.27499
							c0.979-6.45001,1.95905-10.00601,2.93805-20.91"/>
						<path id="Tracciato_1803" fill="none" stroke="#000000" stroke-width="0.5" d="M814.87903,100.36499
							c1.75-19.491,3.5-96.18301,5.25098-96.18301"/>
						<path id="Tracciato_1804" fill="none" stroke="#000000" stroke-width="0.5" d="M820.13,4.18201
							c2.26135,0,4.52234,13.93964,6.78302,41.819"/>
						<path id="Tracciato_1805" fill="none" stroke="#000000" stroke-width="0.5" d="M826.91302,46.00101
							c0.74298,9.16599,1.48596,30.40799,2.22998,41.819"/>
						<path id="Tracciato_1806" fill="none" stroke="#000000" stroke-width="0.5" d="M829.14301,87.819
							c0.85205,13.08099,1.70001,29.27399,2.55603,29.27399"/>
						<path id="Tracciato_1807" fill="none" stroke="#000000" stroke-width="0.5" d="M831.69904,117.091
							c1.00702,0,2.01202-79.45599,3.01898-79.45599"/>
						<path id="Tracciato_1808" fill="none" stroke="#000000" stroke-width="0.5" d="M834.71399,37.63702
							c0.34503,0,0.69,22.095,1.034,29.27399"/>
						<path id="Tracciato_1809" fill="none" stroke="#000000" stroke-width="0.5" d="M835.75104,66.91
							c0.66901,13.94,1.33899,16.58398,2.008,20.909"/>
						<path id="Tracciato_1810" fill="none" stroke="#000000" stroke-width="0.5" d="M837.75903,87.819
							c1.29462,8.36398,2.58899,12.54599,3.883,12.54599"/>
						<path id="Tracciato_1811" fill="none" stroke="#000000" stroke-width="0.5" d="M841.64203,100.36499
							c1.79498,0,3.58801-4.18201,5.383-4.18201"/>
						<path id="Tracciato_1812" fill="none" stroke="#000000" stroke-width="0.5" d="M847.02502,96.18301
							c1.43903,0,2.87799,16.728,4.31799,16.728"/>
						<path id="Tracciato_1813" fill="none" stroke="#000000" stroke-width="0.5" d="M851.34302,112.91101
							c0.5,0,1-79.45599,1.505-79.45599"/>
						<path id="Tracciato_1814" fill="none" stroke="#000000" stroke-width="0.5" d="M852.84497,33.45499
							c0.237,0,0.474,58.54599,0.71204,58.54599"/>
						<path id="Tracciato_1815" fill="none" stroke="#000000" stroke-width="0.5" d="M853.56,92.00101
							c0.51703,0,1.03601-62.728,1.55402-62.728"/>
						<path id="Tracciato_1816" fill="none" stroke="#000000" stroke-width="0.5" d="M855.11395,29.27298
							c0.51605,0,1.03204,43.30701,1.54803,58.54599"/>
						<path id="Tracciato_1817" fill="none" stroke="#000000" stroke-width="0.5" d="M856.66205,87.819
							c0.27802,8.21201,0.55597,13.46201,0.83398,20.91"/>
						<path id="Tracciato_1818" fill="none" stroke="#000000" stroke-width="0.5" d="M857.49603,108.729
							c0.38196,10.24799,0.76495,33.45599,1.14795,33.45599"/>
						<path id="Tracciato_1819" fill="none" stroke="#000000" stroke-width="0.5" d="M858.64398,142.185
							c0.41199,0,0.823-28.79999,1.23499-33.45599"/>
						<path id="Tracciato_1820" fill="none" stroke="#000000" stroke-width="0.5" d="M859.87799,108.729
							c0.49298-5.57599,0.98602-2.78799,1.479-8.36401"/>
						<path id="Tracciato_1821" fill="none" stroke="#000000" stroke-width="0.5" d="M861.35706,100.36502
							c0.44397-5.026,0.88898-79.45599,1.33295-79.45599"/>
						<path id="Tracciato_1822" fill="none" stroke="#000000" stroke-width="0.5" d="M862.69,20.909
							c0.60596,0,1.20996,50.18298,1.81598,50.18298"/>
						<path id="Tracciato_1823" fill="none" stroke="#000000" stroke-width="0.5" d="M864.508,71.09299
							c0.54102,0,1.08203-37.638,1.62402-37.638"/>
						<path id="Tracciato_1824" fill="none" stroke="#000000" stroke-width="0.5" d="M866.13,33.45499
							c0.34198,0,0.68396,66.91,1.02698,66.91"/>
						<path id="Tracciato_1825" fill="none" stroke="#000000" stroke-width="0.5" d="M867.15399,100.36499
							c0.39996,0,0.79999-28.883,1.20001-33.45499"/>
						<path id="Tracciato_1826" fill="none" stroke="#000000" stroke-width="0.5" d="M868.35699,66.91098
							c2.19464-25.09198,4.38898-37.638,6.58301-37.638"/>
						<path id="Tracciato_1827" fill="none" stroke="#000000" stroke-width="0.5" d="M874.94,29.27298
							c2.20001,0,4.39838,12.54602,6.59503,37.638"/>
						<path id="Tracciato_1828" fill="none" stroke="#000000" stroke-width="0.5" d="M881.53497,66.91
							c0.81604,9.31699,1.633,92,2.44904,92"/>
						<path id="Tracciato_1829" fill="none" stroke="#000000" stroke-width="0.5" d="M883.98401,158.912
							c1.3573,0,2.71497-15.33333,4.073-45.99998"/>
						<path id="Tracciato_1830" fill="none" stroke="#000000" stroke-width="0.5" d="M888.05701,112.91098
							c0.755-17.034,1.508-71.09201,2.263-71.09201"/>
						<path id="Tracciato_1831" fill="none" stroke="#000000" stroke-width="0.5" d="M890.31995,41.819
							c0.14905,0,0.30005,60.638,0.44806,121.27499"/>
					</g>
				</g>
			</g>
			<g enable-background="new    ">
				<path d="M62.91162,406.42694h1.71094c1.04736,0,1.66309,0.51172,1.66309,1.3916c0,0.5752-0.26367,1.01562-0.73584,1.21484
					c0.66406,0.16797,1.02344,0.66406,1.02344,1.40723c0,1-0.63965,1.55957-1.78271,1.55957h-1.87891V406.42694z M64.73438,408.8576
					c0.61572,0,0.9834-0.35938,0.9834-0.94336c0-0.60742-0.39941-0.95898-1.09521-0.95898H63.479v1.90234H64.73438z
					 M64.75049,411.47284c0.79932,0,1.24756-0.38379,1.24756-1.08008c0-0.65527-0.3999-1.03906-1.0957-1.03906H63.479v2.11914
					H64.75049z"/>
				<path d="M70.98926,410.17694h-2.88623c0.01611,0.86426,0.49561,1.38379,1.27148,1.38379
					c0.43164,0,0.77539-0.1123,1.13525-0.49609l0.38379,0.33594c-0.46387,0.4873-0.91943,0.66406-1.52734,0.66406
					c-1.19922,0-1.81494-0.89648-1.81494-2.01562c0-1.11133,0.60791-2.05469,1.75098-2.05469
					c1.20752,0,1.71143,0.94336,1.71143,1.83887C71.01367,409.9455,71.00537,410.08124,70.98926,410.17694z M68.10303,409.71307
					h2.38281c0-0.01562-0.0083-0.05566-0.0083-0.12793c-0.04004-0.63965-0.44775-1.12695-1.17529-1.12695
					C68.59082,408.45819,68.15088,409.01776,68.10303,409.71307z"/>
				<path d="M75.19775,412.6076c0,0.74414-0.6958,1.08789-1.68701,1.08789c-1.09521,0-1.75879-0.43164-1.75879-1.21582
					c0-0.08008,0.00781-0.12793,0.01562-0.17578l0.63965-0.54395c-0.30371-0.13574-0.51172-0.35938-0.51172-0.75098
					c0-0.32031,0.14404-0.55957,0.42383-0.75195c-0.20801-0.23926-0.33594-0.54395-0.33594-0.89551
					c0-0.7998,0.65576-1.36719,1.50342-1.36719c0.38379,0,0.72754,0.12012,0.9834,0.32031l0.54346-0.47266l0.28809,0.36035
					l-0.53564,0.44727c0.13574,0.21582,0.21582,0.46387,0.21582,0.74414c0,0.80762-0.65576,1.34277-1.4873,1.34277
					c-0.30371,0-0.5835-0.07129-0.81543-0.19922c-0.15967,0.08789-0.25586,0.23145-0.25586,0.39941
					c0,0.39941,0.49561,0.49609,1.06348,0.58398C74.27051,411.64081,75.19775,411.75214,75.19775,412.6076z M74.646,412.65546
					c0-0.47949-0.62354-0.55176-1.2793-0.65527c-0.17578-0.02441-0.35986-0.05566-0.52783-0.0957l-0.53564,0.51953
					c-0.00781,0.04004-0.00781,0.05566-0.00781,0.07227c0,0.55957,0.56787,0.73535,1.23926,0.73535
					C74.23047,413.23163,74.646,413.03925,74.646,412.65546z M72.52734,409.37714c0,0.51172,0.36768,0.9043,0.95947,0.9043
					s0.94336-0.38379,0.94336-0.9043c0-0.54297-0.36768-0.91895-0.93555-0.91895
					C72.93506,408.45819,72.52734,408.83417,72.52734,409.37714z"/>
				<path d="M76.24756,406.42694h0.63965v0.81543h-0.63965V406.42694z M76.29541,408.05878h0.55176v3.94141h-0.55176V408.05878z"/>
				<path d="M81.44531,409.58514v2.41504h-0.55127v-2.27832c0-0.84766-0.27197-1.23926-0.86377-1.23926
					c-0.74365,0-1.17529,0.63867-1.17529,1.75098v1.7666h-0.55176v-3.94141h0.55176v0.5752
					c0.25586-0.39941,0.73584-0.63965,1.30322-0.63965C81.00586,407.99432,81.44531,408.53827,81.44531,409.58514z"/>
				<path d="M85.94922,409.58514v2.41504h-0.55127v-2.27832c0-0.84766-0.27197-1.23926-0.86377-1.23926
					c-0.74365,0-1.17529,0.63867-1.17529,1.75098v1.7666h-0.55176v-3.94141h0.55176v0.5752
					c0.25586-0.39941,0.73584-0.63965,1.30322-0.63965C85.50977,407.99432,85.94922,408.53827,85.94922,409.58514z"/>
				<path d="M87.26318,406.42694h0.63965v0.81543h-0.63965V406.42694z M87.31104,408.05878h0.55176v3.94141h-0.55176V408.05878z"/>
				<path d="M92.46094,409.58514v2.41504h-0.55127v-2.27832c0-0.84766-0.27197-1.23926-0.86377-1.23926
					c-0.74365,0-1.17529,0.63867-1.17529,1.75098v1.7666h-0.55176v-3.94141h0.55176v0.5752
					c0.25586-0.39941,0.73584-0.63965,1.30322-0.63965C92.02148,407.99432,92.46094,408.53827,92.46094,409.58514z"/>
				<path d="M96.89307,412.6076c0,0.74414-0.6958,1.08789-1.68701,1.08789c-1.09521,0-1.75879-0.43164-1.75879-1.21582
					c0-0.08008,0.00781-0.12793,0.01562-0.17578l0.63965-0.54395c-0.30371-0.13574-0.51172-0.35938-0.51172-0.75098
					c0-0.32031,0.14404-0.55957,0.42383-0.75195c-0.20801-0.23926-0.33594-0.54395-0.33594-0.89551
					c0-0.7998,0.65576-1.36719,1.50342-1.36719c0.38379,0,0.72754,0.12012,0.9834,0.32031l0.54346-0.47266l0.28809,0.36035
					l-0.53564,0.44727c0.13574,0.21582,0.21582,0.46387,0.21582,0.74414c0,0.80762-0.65576,1.34277-1.4873,1.34277
					c-0.30371,0-0.5835-0.07129-0.81543-0.19922c-0.15967,0.08789-0.25586,0.23145-0.25586,0.39941
					c0,0.39941,0.49561,0.49609,1.06348,0.58398C95.96582,411.64081,96.89307,411.75214,96.89307,412.6076z M96.34131,412.65546
					c0-0.47949-0.62354-0.55176-1.2793-0.65527c-0.17578-0.02441-0.35986-0.05566-0.52783-0.0957l-0.53564,0.51953
					c-0.00781,0.04004-0.00781,0.05566-0.00781,0.07227c0,0.55957,0.56787,0.73535,1.23926,0.73535
					C95.92578,413.23163,96.34131,413.03925,96.34131,412.65546z M94.22266,409.37714c0,0.51172,0.36768,0.9043,0.95947,0.9043
					s0.94336-0.38379,0.94336-0.9043c0-0.54297-0.36768-0.91895-0.93555-0.91895
					C94.63037,408.45819,94.22266,408.83417,94.22266,409.37714z"/>
			</g>
			<g enable-background="new    ">
				<path d="M946.59961,406.42694h3.6543v0.52832h-3.08691v1.94238h2.77441v0.52832h-2.77441v2.04688h3.08691v0.52734h-3.6543
					V406.42694z"/>
				<path d="M954.61328,409.58514v2.41504h-0.55078v-2.27832c0-0.84766-0.27246-1.23926-0.86426-1.23926
					c-0.74316,0-1.1748,0.63867-1.1748,1.75098v1.7666h-0.55273v-3.94141h0.55273v0.5752
					c0.25586-0.39941,0.73438-0.63965,1.30273-0.63965C954.17383,407.99432,954.61328,408.53827,954.61328,409.58514z"/>
				<path d="M959.26953,406.42694v5.57324h-0.55176v-0.52734c-0.28809,0.36719-0.72754,0.5918-1.30371,0.5918
					c-1.15039,0-1.75-0.86426-1.75-2.03906c0-1.23145,0.6543-2.03906,1.75-2.03906c0.56055,0,1.00781,0.21582,1.30371,0.59961
					v-2.15918H959.26953z M958.76562,410.02557c0-0.93555-0.48047-1.55176-1.27148-1.55176
					c-0.79883,0-1.2793,0.61621-1.2793,1.55176c0,0.89551,0.43945,1.55078,1.2793,1.55078
					C958.32617,411.57635,958.76562,410.92108,958.76562,410.02557z"/>
			</g>
			<g id="Tracciato_157360" transform="translate(952.527 391.896) rotate(-45)">
				<path fill="#FFFFFF" d="M5.87201,5.87201H0.11945V0.11945h5.75256V5.87201z"/>
				<path fill="#FFFFFF" d="M0.2389,0.2389v5.51366h5.51366V0.2389H0.2389 M0,0h5.99146v5.99146H0L0,0z"/>
			</g>
			<g id="Rettangolo_338" transform="translate(63.885 394.493) rotate(-90)">
				
					<rect x="0" y="0" transform="matrix(-2.535182e-06 -1 1 -2.535182e-06 6.797972e-06 5.99101)" fill="#FFFFFF" width="5.991" height="5.991"/>
				
					<rect x="0.119" y="0.119" transform="matrix(-2.535182e-06 -1 1 -2.535182e-06 6.797971e-06 5.99101)" fill="none" stroke="#000000" stroke-width="0.239" stroke-miterlimit="10" width="5.753" height="5.753"/>
			</g>
			<g enable-background="new    ">
				<path fill="#5151FC" d="M460.89453,209.42694h3.65381v0.52832h-3.08643v1.94238h2.7749v0.52832h-2.7749v2.04688h3.08643v0.52734
					h-3.65381V209.42694z"/>
				<path fill="#5151FC" d="M466.03809,214.1203h0.71973v0.87988h-0.71973V214.1203z"/>
				<path fill="#5151FC" d="M476.16357,209.42694v5.57324h-0.57568v-4.81348l-1.79932,4.34961H473.229l-1.80713-4.36523v4.8291
					h-0.56738v-5.57324h0.83154l1.82275,4.44629l1.82324-4.44629H476.16357z"/>
				<path fill="#5151FC" d="M480.70068,212.5451v2.45508h-0.50391l-0.03174-0.60742
					c-0.31201,0.43945-0.7915,0.67188-1.41553,0.67188c-0.85547,0-1.35938-0.44824-1.35938-1.20801
					c0-0.39941,0.16016-0.70312,0.44824-0.87891c0.30371-0.17676,0.72754-0.24805,1.50293-0.24805h0.80762v-0.18457
					c0-0.6875-0.35986-1.0625-1.02344-1.0625c-0.49561,0-0.87939,0.21582-1.19922,0.65527l-0.3999-0.33594
					c0.42383-0.55176,0.93555-0.80762,1.60693-0.80762C480.125,210.99432,480.70068,211.56171,480.70068,212.5451z
					 M480.14893,213.23358v-0.05664h-0.75977c-0.72754,0-1.03906,0.04785-1.23145,0.2002
					c-0.14355,0.1123-0.21582,0.28809-0.21582,0.51172c0,0.43945,0.37598,0.71973,0.96777,0.71973
					C479.66895,214.60858,480.14893,214.07245,480.14893,213.23358z"/>
				<path fill="#5151FC" d="M484.44531,211.16229l-0.27197,0.44727c-0.18408-0.0791-0.35205-0.11914-0.51953-0.11914
					c-0.60791,0-1.05566,0.45508-1.05566,1.31055v2.19922h-0.55176v-3.94141h0.55176v0.59082
					c0.28809-0.51953,0.76758-0.65527,1.16748-0.65527C484.00537,210.99432,484.229,211.04218,484.44531,211.16229z"/>
				<path fill="#5151FC" d="M488.19678,212.5451v2.45508h-0.50391l-0.03174-0.60742
					c-0.31201,0.43945-0.7915,0.67188-1.41553,0.67188c-0.85547,0-1.35938-0.44824-1.35938-1.20801
					c0-0.39941,0.16016-0.70312,0.44824-0.87891c0.30371-0.17676,0.72754-0.24805,1.50293-0.24805h0.80762v-0.18457
					c0-0.6875-0.35986-1.0625-1.02344-1.0625c-0.49561,0-0.87939,0.21582-1.19922,0.65527l-0.3999-0.33594
					c0.42383-0.55176,0.93555-0.80762,1.60693-0.80762C487.62109,210.99432,488.19678,211.56171,488.19678,212.5451z
					 M487.64502,213.23358v-0.05664h-0.75977c-0.72754,0-1.03906,0.04785-1.23145,0.2002
					c-0.14355,0.1123-0.21582,0.28809-0.21582,0.51172c0,0.43945,0.37598,0.71973,0.96777,0.71973
					C487.16504,214.60858,487.64502,214.07245,487.64502,213.23358z"/>
				<path fill="#5151FC" d="M492.68408,212.58514v2.41504h-0.55127v-2.27832c0-0.84766-0.27197-1.23926-0.86377-1.23926
					c-0.74365,0-1.17529,0.63867-1.17529,1.75098v1.7666h-0.55176v-3.94141h0.55176v0.5752
					c0.25586-0.39941,0.73584-0.63965,1.30322-0.63965C492.24463,210.99432,492.68408,211.53827,492.68408,212.58514z"/>
				<path fill="#5151FC" d="M496.98047,212.5451v2.45508h-0.50391l-0.03174-0.60742
					c-0.31201,0.43945-0.79199,0.67188-1.41553,0.67188c-0.85547,0-1.35889-0.44824-1.35889-1.20801
					c0-0.39941,0.15967-0.70312,0.44727-0.87891c0.3042-0.17676,0.72803-0.24805,1.50342-0.24805h0.80762v-0.18457
					c0-0.6875-0.35986-1.0625-1.02344-1.0625c-0.49561,0-0.87939,0.21582-1.19922,0.65527l-0.3999-0.33594
					c0.42383-0.55176,0.93555-0.80762,1.60693-0.80762C496.40479,210.99432,496.98047,211.56171,496.98047,212.5451z
					 M496.42871,213.23358v-0.05664h-0.75977c-0.72754,0-1.03955,0.04785-1.23096,0.2002
					c-0.14404,0.1123-0.21631,0.28809-0.21631,0.51172c0,0.43945,0.37598,0.71973,0.96777,0.71973
					C495.94873,214.60858,496.42871,214.07245,496.42871,213.23358z"/>
				<path fill="#5151FC" d="M498.87744,209.42694h0.63184l-1.05566,2.27148h-0.37598L498.87744,209.42694z"/>
				<path fill="#5151FC" d="M500.22217,214.03241l0.46387-0.20801c0.14404,0.4082,0.52783,0.75195,1.14355,0.75195
					c0.53564,0,0.87939-0.26367,0.87939-0.67969c0-1.04688-2.271-0.3916-2.271-1.79102c0-0.6875,0.56006-1.11133,1.35156-1.11133
					c0.63135,0,1.14307,0.26367,1.41504,0.82324l-0.43945,0.24023c-0.19238-0.35156-0.50391-0.5752-0.9917-0.5752
					s-0.79932,0.19922-0.79932,0.54297c0,0.93555,2.27832,0.34375,2.27832,1.83887c0,0.7998-0.65527,1.2002-1.41504,1.2002
					C501.06201,215.06464,500.43018,214.66425,500.22217,214.03241z"/>
			</g>
			<g enable-background="new    ">
				<path fill="#5151FC" d="M460.67871,222.14471v-4.71777h0.55127v4.68555c0,0.27246,0.09619,0.44824,0.35986,0.44824
					c0.12012,0,0.25586-0.03223,0.37598-0.07227l0.00781,0.47168c-0.16748,0.05566-0.36768,0.10449-0.54346,0.10449
					C460.97412,223.06464,460.67871,222.75995,460.67871,222.14471z"/>
				<path fill="#5151FC" d="M465.98877,221.17694h-2.88623c0.01611,0.86426,0.49561,1.38379,1.27148,1.38379
					c0.43164,0,0.77539-0.1123,1.13525-0.49609l0.38379,0.33594c-0.46387,0.4873-0.91943,0.66406-1.52734,0.66406
					c-1.19922,0-1.81494-0.89648-1.81494-2.01562c0-1.11133,0.60791-2.05469,1.75098-2.05469
					c1.20752,0,1.71143,0.94336,1.71143,1.83887C466.01318,220.9455,466.00488,221.08124,465.98877,221.17694z M463.10254,220.71307
					h2.38281c0-0.01562-0.0083-0.05566-0.0083-0.12793c-0.04004-0.63965-0.44775-1.12695-1.17529-1.12695
					C463.59033,219.45819,463.15039,220.01776,463.10254,220.71307z"/>
				<path fill="#5151FC" d="M468.76562,222.96014c-0.20801,0.06445-0.41553,0.10449-0.59961,0.10449
					c-0.52783,0-0.91162-0.2959-0.91162-0.99219v-2.55078h-0.65576v-0.46289h0.65576v-1.10352l0.55176-0.41602v1.51953h0.95166
					v0.46289h-0.95166v2.47949c0,0.38379,0.17578,0.55957,0.48779,0.55957c0.13574,0,0.2876-0.03223,0.46387-0.08789
					L468.76562,222.96014z"/>
				<path fill="#5151FC" d="M471.45361,222.96014c-0.20801,0.06445-0.41602,0.10449-0.59961,0.10449
					c-0.52783,0-0.91162-0.2959-0.91162-0.99219v-2.55078h-0.65576v-0.46289h0.65576v-1.10352l0.55176-0.41602v1.51953h0.95166
					v0.46289h-0.95166v2.47949c0,0.38379,0.17578,0.55957,0.48779,0.55957c0.13574,0,0.2876-0.03223,0.46387-0.08789
					L471.45361,222.96014z"/>
				<path fill="#5151FC" d="M475.58057,221.17694h-2.88623c0.01611,0.86426,0.49561,1.38379,1.27148,1.38379
					c0.43164,0,0.77539-0.1123,1.13525-0.49609l0.38379,0.33594c-0.46387,0.4873-0.91943,0.66406-1.52734,0.66406
					c-1.19922,0-1.81494-0.89648-1.81494-2.01562c0-1.11133,0.60791-2.05469,1.75098-2.05469
					c1.20752,0,1.71143,0.94336,1.71143,1.83887C475.60498,220.9455,475.59668,221.08124,475.58057,221.17694z M472.69434,220.71307
					h2.38281c0-0.01562-0.0083-0.05566-0.0083-0.12793c-0.04004-0.63965-0.44775-1.12695-1.17529-1.12695
					C473.18213,219.45819,472.74219,220.01776,472.69434,220.71307z"/>
				<path fill="#5151FC" d="M479.11719,219.16229l-0.27197,0.44727c-0.18408-0.0791-0.35205-0.11914-0.51953-0.11914
					c-0.60791,0-1.05566,0.45508-1.05566,1.31055v2.19922h-0.55176v-3.94141h0.55176v0.59082
					c0.28809-0.51953,0.76758-0.65527,1.16748-0.65527C478.67725,218.99432,478.90088,219.04218,479.11719,219.16229z"/>
				<path fill="#5151FC" d="M479.27051,222.03241l0.46387-0.20801c0.14404,0.4082,0.52783,0.75195,1.14355,0.75195
					c0.53564,0,0.87939-0.26367,0.87939-0.67969c0-1.04688-2.271-0.3916-2.271-1.79102c0-0.6875,0.56006-1.11133,1.35156-1.11133
					c0.63135,0,1.14307,0.26367,1.41504,0.82324l-0.43994,0.24023c-0.19141-0.35156-0.50342-0.5752-0.99121-0.5752
					s-0.7998,0.19922-0.7998,0.54297c0,0.93555,2.27881,0.34375,2.27881,1.83887c0,0.7998-0.65527,1.2002-1.41504,1.2002
					C480.11035,223.06464,479.47852,222.66425,479.27051,222.03241z"/>
			</g>
			<g enable-background="new    ">
				<path fill="#5151FC" d="M651.7002,213.52948l0.56836-0.13672c0.10352,0.71973,0.64746,1.17578,1.39941,1.17578
					c0.80664,0,1.21484-0.42383,1.21484-0.97559c0-0.59961-0.34375-0.91113-1.32715-1.28711
					c-1.12793-0.42383-1.51953-0.82324-1.51953-1.55176c0-0.84668,0.63965-1.40723,1.58301-1.40723
					c0.7041,0,1.25586,0.3125,1.5918,0.9043l-0.48047,0.2959c-0.23926-0.43262-0.64746-0.68848-1.12695-0.68848
					c-0.58398,0-0.99902,0.40039-0.99902,0.87207c0,0.51172,0.38379,0.7832,1.2627,1.11914
					c1.23926,0.47168,1.5918,0.91992,1.5918,1.69531c0,0.93555-0.64844,1.53516-1.7998,1.53516
					C652.62793,215.08026,651.85254,214.46405,651.7002,213.52948z"/>
				<path fill="#5151FC" d="M656.54004,209.42694h0.63965v0.81543h-0.63965V209.42694z M656.58789,211.05878h0.55176v3.94141
					h-0.55176V211.05878z"/>
				<path fill="#5151FC" d="M658.56445,214.14471v-4.71777h0.55176v4.68555c0,0.27246,0.0957,0.44824,0.35938,0.44824
					c0.12012,0,0.25586-0.03223,0.37598-0.07227l0.00781,0.47168c-0.16797,0.05566-0.36719,0.10449-0.54297,0.10449
					C658.86035,215.06464,658.56445,214.75995,658.56445,214.14471z"/>
				<path fill="#5151FC" d="M663.69043,212.5451v2.45508h-0.50391l-0.03125-0.60742
					c-0.3125,0.43945-0.79199,0.67188-1.41602,0.67188c-0.85547,0-1.35938-0.44824-1.35938-1.20801
					c0-0.39941,0.16016-0.70312,0.44824-0.87891c0.30371-0.17676,0.72754-0.24805,1.50293-0.24805h0.80762v-0.18457
					c0-0.6875-0.35938-1.0625-1.02344-1.0625c-0.49512,0-0.87891,0.21582-1.19922,0.65527l-0.39941-0.33594
					c0.42383-0.55176,0.93555-0.80762,1.60645-0.80762C663.11523,210.99432,663.69043,211.56171,663.69043,212.5451z
					 M663.13867,213.23358v-0.05664h-0.75977c-0.72754,0-1.03906,0.04785-1.23145,0.2002
					c-0.14355,0.1123-0.21582,0.28809-0.21582,0.51172c0,0.43945,0.37598,0.71973,0.96777,0.71973
					C662.65918,214.60858,663.13867,214.07245,663.13867,213.23358z"/>
				<path fill="#5151FC" d="M664.6123,214.03241l0.46387-0.20801c0.14453,0.4082,0.52832,0.75195,1.14355,0.75195
					c0.53613,0,0.87988-0.26367,0.87988-0.67969c0-1.04688-2.27148-0.3916-2.27148-1.79102
					c0-0.6875,0.56055-1.11133,1.35156-1.11133c0.63184,0,1.14355,0.26367,1.41504,0.82324l-0.43945,0.24023
					c-0.19238-0.35156-0.50391-0.5752-0.99121-0.5752c-0.48828,0-0.7998,0.19922-0.7998,0.54297
					c0,0.93555,2.27832,0.34375,2.27832,1.83887c0,0.7998-0.65527,1.2002-1.41504,1.2002
					C665.45215,215.06464,664.82031,214.66425,664.6123,214.03241z"/>
				<path fill="#5151FC" d="M671.13184,209.42694h3.78223v0.52832h-3.21484v1.94238h2.81445v0.52832h-2.81445v2.57422h-0.56738
					V209.42694z"/>
				<path fill="#5151FC" d="M675.98047,214.14471v-4.71777h0.55078v4.68555c0,0.27246,0.09668,0.44824,0.36035,0.44824
					c0.12012,0,0.25586-0.03223,0.37598-0.07227l0.00781,0.47168c-0.16797,0.05566-0.36816,0.10449-0.54395,0.10449
					C676.27539,215.06464,675.98047,214.75995,675.98047,214.14471z"/>
				<path fill="#5151FC" d="M681.10645,212.5451v2.45508h-0.50391l-0.03223-0.60742
					c-0.31152,0.43945-0.79199,0.67188-1.41504,0.67188c-0.85547,0-1.35938-0.44824-1.35938-1.20801
					c0-0.39941,0.16016-0.70312,0.44727-0.87891c0.30469-0.17676,0.72852-0.24805,1.50391-0.24805h0.80762v-0.18457
					c0-0.6875-0.36035-1.0625-1.02344-1.0625c-0.49609,0-0.87988,0.21582-1.19922,0.65527l-0.40039-0.33594
					c0.42383-0.55176,0.93555-0.80762,1.60742-0.80762C680.53027,210.99432,681.10645,211.56171,681.10645,212.5451z
					 M680.55469,213.23358v-0.05664h-0.75977c-0.72754,0-1.04004,0.04785-1.23145,0.2002
					c-0.14355,0.1123-0.21582,0.28809-0.21582,0.51172c0,0.43945,0.37598,0.71973,0.96777,0.71973
					C680.07422,214.60858,680.55469,214.07245,680.55469,213.23358z"/>
				<path fill="#5151FC" d="M685.59375,212.58514v2.41504h-0.55176v-2.27832c0-0.84766-0.27148-1.23926-0.86328-1.23926
					c-0.74414,0-1.17578,0.63867-1.17578,1.75098v1.7666h-0.55176v-3.94141h0.55176v0.5752
					c0.25586-0.39941,0.73535-0.63965,1.30371-0.63965C685.1543,210.99432,685.59375,211.53827,685.59375,212.58514z"/>
				<path fill="#5151FC" d="M690.09766,212.58514v2.41504h-0.55176v-2.27832c0-0.84766-0.27148-1.23926-0.86328-1.23926
					c-0.74414,0-1.17578,0.63867-1.17578,1.75098v1.7666h-0.55176v-3.94141h0.55176v0.5752
					c0.25586-0.39941,0.73535-0.63965,1.30371-0.63965C689.6582,210.99432,690.09766,211.53827,690.09766,212.58514z"/>
				<path fill="#5151FC" d="M694.57715,213.17694h-2.88574c0.01562,0.86426,0.49512,1.38379,1.27148,1.38379
					c0.43164,0,0.77539-0.1123,1.13477-0.49609l0.38379,0.33594c-0.46387,0.4873-0.91895,0.66406-1.52734,0.66406
					c-1.19922,0-1.81445-0.89648-1.81445-2.01562c0-1.11133,0.60742-2.05469,1.75098-2.05469
					c1.20703,0,1.71094,0.94336,1.71094,1.83887C694.60156,212.9455,694.59375,213.08124,694.57715,213.17694z M691.69141,212.71307
					h2.38281c0-0.01562-0.00879-0.05566-0.00879-0.12793c-0.04004-0.63965-0.44727-1.12695-1.1748-1.12695
					C692.17871,211.45819,691.73926,212.01776,691.69141,212.71307z"/>
				<path fill="#5151FC" d="M698.11426,211.16229l-0.27148,0.44727c-0.18457-0.0791-0.35254-0.11914-0.52051-0.11914
					c-0.60742,0-1.05469,0.45508-1.05469,1.31055v2.19922h-0.55176v-3.94141h0.55176v0.59082
					c0.28711-0.51953,0.76758-0.65527,1.16699-0.65527C697.6748,210.99432,697.89844,211.04218,698.11426,211.16229z"/>
				<path fill="#5151FC" d="M700.13867,214.95233l-1.6709-3.89355h0.60742l1.35938,3.24609l1.19141-3.24609h0.60742l-2.1582,5.57227
					h-0.5918L700.13867,214.95233z"/>
				<path fill="#5151FC" d="M703.68262,209.42694h0.63184l-1.05566,2.27148h-0.37598L703.68262,209.42694z"/>
				<path fill="#5151FC" d="M705.02734,214.03241l0.46387-0.20801c0.14453,0.4082,0.52832,0.75195,1.14355,0.75195
					c0.53613,0,0.87988-0.26367,0.87988-0.67969c0-1.04688-2.27148-0.3916-2.27148-1.79102
					c0-0.6875,0.56055-1.11133,1.35156-1.11133c0.63184,0,1.14355,0.26367,1.41504,0.82324l-0.43945,0.24023
					c-0.19238-0.35156-0.50391-0.5752-0.99121-0.5752c-0.48828,0-0.7998,0.19922-0.7998,0.54297
					c0,0.93555,2.27832,0.34375,2.27832,1.83887c0,0.7998-0.65527,1.2002-1.41504,1.2002
					C705.86719,215.06464,705.23535,214.66425,705.02734,214.03241z"/>
			</g>
			<g enable-background="new    ">
				<path fill="#5151FC" d="M655.33105,217.42694v5.57324h-0.55176v-0.52734c-0.28809,0.36719-0.72754,0.5918-1.30371,0.5918
					c-1.15137,0-1.75098-0.86426-1.75098-2.03906c0-1.23145,0.65527-2.03906,1.75098-2.03906
					c0.55957,0,1.00781,0.21582,1.30371,0.59961v-2.15918H655.33105z M654.82715,221.02557
					c0-0.93555-0.48047-1.55176-1.27148-1.55176c-0.7998,0-1.2793,0.61621-1.2793,1.55176c0,0.89551,0.43945,1.55078,1.2793,1.55078
					C654.38672,222.57635,654.82715,221.92108,654.82715,221.02557z"/>
				<path fill="#5151FC" d="M656.74023,217.42694h0.63965v0.81543h-0.63965V217.42694z M656.78809,219.05878h0.55176v3.94141
					h-0.55176V219.05878z"/>
				<path fill="#5151FC" d="M661.73047,220.5451v2.45508h-0.50391l-0.03125-0.60742
					c-0.3125,0.43945-0.79199,0.67188-1.41602,0.67188c-0.85547,0-1.35938-0.44824-1.35938-1.20801
					c0-0.39941,0.16016-0.70312,0.44824-0.87891c0.30371-0.17676,0.72754-0.24805,1.50293-0.24805h0.80762v-0.18457
					c0-0.6875-0.35938-1.0625-1.02344-1.0625c-0.49512,0-0.87891,0.21582-1.19922,0.65527l-0.39941-0.33594
					c0.42383-0.55176,0.93555-0.80762,1.60645-0.80762C661.15527,218.99432,661.73047,219.56171,661.73047,220.5451z
					 M661.17871,221.23358v-0.05664h-0.75977c-0.72754,0-1.03906,0.04785-1.23145,0.2002
					c-0.14355,0.1123-0.21582,0.28809-0.21582,0.51172c0,0.43945,0.37598,0.71973,0.96777,0.71973
					C660.69922,222.60858,661.17871,222.07245,661.17871,221.23358z"/>
				<path fill="#5151FC" d="M665.47559,219.16229l-0.27246,0.44727c-0.18359-0.0791-0.35156-0.11914-0.51953-0.11914
					c-0.60742,0-1.05566,0.45508-1.05566,1.31055v2.19922h-0.55176v-3.94141h0.55176v0.59082
					c0.28809-0.51953,0.76758-0.65527,1.16797-0.65527C665.03516,218.99432,665.25879,219.04218,665.47559,219.16229z"/>
				<path fill="#5151FC" d="M667.5,222.95233l-1.6709-3.89355h0.60742l1.35938,3.24609l1.19141-3.24609h0.60742l-2.15918,5.57227
					h-0.5918L667.5,222.95233z"/>
			</g>
			<g enable-background="new    ">
				<path d="M82.86523,217.65741h0.56055v0.71484h-0.56055V217.65741z M82.90723,219.08612h0.4834v3.45312h-0.4834V219.08612z"/>
				<path d="M86.59033,217.65741v4.88184h-0.4834v-3.62109h-1.21875v-0.47656h0.8125c0.24512,0,0.40625-0.08398,0.40625-0.37109
					v-0.41309H86.59033z"/>
			</g>
			<g enable-background="new    ">
				<path d="M133.93457,223.49921c-0.20801,0.06445-0.41553,0.10449-0.59961,0.10449c-0.52783,0-0.91162-0.2959-0.91162-0.99219
					v-2.55078h-0.65576v-0.46289h0.65576v-1.10352l0.55176-0.41602v1.51953h0.95166v0.46289h-0.95166v2.47949
					c0,0.38379,0.17578,0.55957,0.48779,0.55957c0.13574,0,0.2876-0.03223,0.46387-0.08789L133.93457,223.49921z"/>
				<path d="M137.18213,217.966v5.57324h-0.55176v-4.13379h-1.39111v-0.54395h0.92773c0.27979,0,0.46338-0.0957,0.46338-0.42383
					V217.966H137.18213z"/>
			</g>
			<g enable-background="new    ">
				<path d="M191.08984,223.49921c-0.20801,0.06445-0.41553,0.10449-0.59961,0.10449c-0.52783,0-0.91162-0.2959-0.91162-0.99219
					v-2.55078h-0.65576v-0.46289h0.65576v-1.10352l0.55176-0.41602v1.51953h0.95166v0.46289h-0.95166v2.47949
					c0,0.38379,0.17578,0.55957,0.48779,0.55957c0.13574,0,0.2876-0.03223,0.46387-0.08789L191.08984,223.49921z"/>
				<path d="M195.59277,223.01971v0.51953h-3.854v-0.51172c1.30371-0.81543,3.03857-1.98242,3.03857-3.46191
					c0-0.7041-0.39209-1.15137-1.11133-1.15137c-0.84766,0-1.23145,0.61523-1.23926,1.43945l-0.54395-0.04004
					c0-1.0957,0.63184-1.92773,1.7832-1.92773c0.99121,0,1.6709,0.61621,1.6709,1.6875c0,1.42285-1.26318,2.55859-2.67822,3.44629
					H195.59277z"/>
			</g>
			<g enable-background="new    ">
				<path d="M285.06982,223.49921c-0.20801,0.06445-0.41553,0.10449-0.59961,0.10449c-0.52783,0-0.91162-0.2959-0.91162-0.99219
					v-2.55078h-0.65576v-0.46289h0.65576v-1.10352l0.55176-0.41602v1.51953h0.95166v0.46289h-0.95166v2.47949
					c0,0.38379,0.17578,0.55957,0.48779,0.55957c0.13574,0,0.2876-0.03223,0.46387-0.08789L285.06982,223.49921z"/>
				<path d="M285.65479,221.87616l0.54395-0.03223c0,0.79199,0.5835,1.24805,1.42334,1.24805
					c0.7915,0,1.39111-0.42383,1.39111-1.18359c0-0.94336-0.95166-1.07129-1.67139-1.07129v-0.46387
					c0.80762,0,1.37549-0.30371,1.37549-1c0-0.65527-0.47998-0.95898-1.07129-0.95898c-0.6958,0-1.17529,0.38379-1.18359,1.07129
					l-0.53564-0.04004c0-0.96777,0.72754-1.55957,1.69531-1.55957c0.87939,0,1.64697,0.51172,1.64697,1.42383
					c0,0.67188-0.42383,1.11914-0.83936,1.25488c0.60742,0.1123,1.13525,0.57617,1.13525,1.3916
					c0,1.05566-0.86377,1.66309-1.95117,1.66309C286.50244,223.61932,285.65479,223.00311,285.65479,221.87616z"/>
			</g>
			<g enable-background="new    ">
				<path d="M162.97021,217.65741h0.56055v0.71484h-0.56055V217.65741z M163.01221,219.08612h0.4834v3.45312h-0.4834V219.08612z"/>
				<path d="M167.79492,222.08417v0.45508h-3.37598V222.091c1.1416-0.71484,2.66162-1.7373,2.66162-3.03223
					c0-0.61719-0.34326-1.00879-0.97363-1.00879c-0.74268,0-1.07861,0.53906-1.08545,1.26074l-0.47656-0.03516
					c0-0.95996,0.55322-1.68848,1.56201-1.68848c0.86865,0,1.46387,0.54004,1.46387,1.47852
					c0,1.24609-1.10693,2.24121-2.34619,3.01855H167.79492z"/>
			</g>
			<g enable-background="new    ">
				<path d="M233.25928,217.65741h0.56055v0.71484h-0.56055V217.65741z M233.30127,219.08612h0.4834v3.45312h-0.4834V219.08612z"/>
				<path d="M234.65186,221.08221l0.47656-0.02734c0,0.69336,0.51123,1.0918,1.24658,1.0918
					c0.69336,0,1.21875-0.37109,1.21875-1.03613c0-0.82617-0.8335-0.93848-1.46387-0.93848v-0.40625
					c0.70752,0,1.20459-0.2666,1.20459-0.87598c0-0.57422-0.42041-0.83984-0.93848-0.83984
					c-0.60938,0-1.02979,0.33594-1.03662,0.93848l-0.46924-0.03516c0-0.84766,0.63721-1.36621,1.48486-1.36621
					c0.77051,0,1.44287,0.44824,1.44287,1.24707c0,0.58887-0.37158,0.98047-0.73535,1.09961
					c0.53223,0.09766,0.99414,0.50391,0.99414,1.21875c0,0.9248-0.75635,1.45703-1.7085,1.45703
					C235.39453,222.60956,234.65186,222.06952,234.65186,221.08221z"/>
			</g>
			<g enable-background="new    ">
				<path d="M318.41602,217.65741h0.56055v0.71484h-0.56055V217.65741z M318.45801,219.08612h0.4834v3.45312h-0.4834V219.08612z"/>
				<path d="M323.42285,220.91425v0.46191h-0.7915v1.16309h-0.4834v-1.16309h-2.44434v-0.31445l2.47949-3.4043h0.44824v3.25684
					H323.42285z M322.14795,220.91425v-2.52832l-1.7998,2.52832H322.14795z"/>
			</g>
			<g enable-background="new    ">
				<path d="M521.45996,217.65741h0.56055v0.71484h-0.56055V217.65741z M521.50195,219.08612h0.4834v3.45312h-0.4834V219.08612z"/>
				<path d="M526.27051,220.97089c0,0.88867-0.74219,1.62402-1.65918,1.62402c-0.91113,0-1.66016-0.72754-1.66016-1.61719
					c0-0.30176,0.09766-0.61621,0.25195-0.86914l1.4707-2.45117h0.54688l-1.12793,1.83496
					c0.25195-0.09082,0.56055-0.13965,0.86133-0.08398C525.68945,219.5412,526.27051,220.18573,526.27051,220.97089z
					 M525.78027,220.97089c0-0.6377-0.52539-1.15625-1.16895-1.15625c-0.64453,0-1.16992,0.51855-1.16992,1.15625
					c0,0.63672,0.51855,1.16211,1.16992,1.16211C525.25488,222.133,525.78027,221.6076,525.78027,220.97089z"/>
			</g>
			<g enable-background="new    ">
				<path d="M626.08496,217.65741h0.56055v0.71484h-0.56055V217.65741z M626.12695,219.08612h0.4834v3.45312h-0.4834V219.08612z"/>
				<path d="M630.96582,217.65741v0.30176l-2.38086,4.58008h-0.54688l2.33203-4.41895h-2.89941v-0.46289H630.96582z"/>
			</g>
			<g enable-background="new    ">
				<path d="M552.37012,223.49921c-0.20801,0.06445-0.41602,0.10449-0.59961,0.10449c-0.52832,0-0.91211-0.2959-0.91211-0.99219
					v-2.55078h-0.65527v-0.46289h0.65527v-1.10352l0.55176-0.41602v1.51953h0.95215v0.46289h-0.95215v2.47949
					c0,0.38379,0.17578,0.55957,0.48828,0.55957c0.13574,0,0.28711-0.03223,0.46387-0.08789L552.37012,223.49921z"/>
				<path d="M556.85645,221.74823c0,1.01562-0.84668,1.85547-1.89453,1.85547c-1.03906,0-1.89453-0.83203-1.89453-1.84766
					c0-0.34375,0.11133-0.70312,0.28711-0.99121l1.67969-2.79883h0.62305l-1.28711,2.09473
					c0.28809-0.10352,0.63965-0.15918,0.9834-0.0957C556.19336,220.11737,556.85645,220.85272,556.85645,221.74823z
					 M556.29688,221.74823c0-0.72754-0.59961-1.31934-1.33496-1.31934s-1.33496,0.5918-1.33496,1.31934
					s0.5918,1.32715,1.33496,1.32715C555.69727,223.07538,556.29688,222.47577,556.29688,221.74823z"/>
			</g>
			<g enable-background="new    ">
				<path d="M366.60986,223.49921c-0.20801,0.06445-0.41553,0.10449-0.59961,0.10449c-0.52783,0-0.91162-0.2959-0.91162-0.99219
					v-2.55078h-0.65576v-0.46289h0.65576v-1.10352l0.55176-0.41602v1.51953h0.95166v0.46289h-0.95166v2.47949
					c0,0.38379,0.17578,0.55957,0.48779,0.55957c0.13574,0,0.2876-0.03223,0.46387-0.08789L366.60986,223.49921z"/>
				<path d="M371.3208,221.68378v0.52832h-0.90381v1.32715h-0.55127v-1.32715h-2.79053v-0.36035l2.83008-3.88574h0.51172v3.71777
					H371.3208z M369.86572,221.68378v-2.88574l-2.05518,2.88574H369.86572z"/>
			</g>
			<g enable-background="new    ">
				<path d="M409.84521,217.65741h0.56055v0.71484h-0.56055V217.65741z M409.88721,219.08612h0.4834v3.45312h-0.4834V219.08612z"/>
				<path d="M414.66992,220.88593c0,0.9248-0.72168,1.70898-1.69482,1.70898c-0.88281,0-1.52002-0.62305-1.66016-1.40723
					l0.47607-0.07715c0.10547,0.58789,0.54639,1.02246,1.18408,1.02246c0.72119,0,1.18359-0.58105,1.18359-1.24707
					c0-0.64355-0.42041-1.16211-1.12793-1.16211c-0.46924,0-0.82617,0.23145-1.07129,0.58789l-0.49023-0.13281l0.44092-2.52148
					h2.52832v0.46289h-2.12891l-0.28027,1.58203c0.3291-0.30762,0.70068-0.42676,1.05762-0.42676
					C414.00439,219.27557,414.66992,219.98944,414.66992,220.88593z"/>
			</g>
			<g enable-background="new    ">
				<path d="M807.12891,223.49921c-0.20801,0.06445-0.41602,0.10449-0.59961,0.10449c-0.52832,0-0.91211-0.2959-0.91211-0.99219
					v-2.55078h-0.65527v-0.46289h0.65527v-1.10352l0.55176-0.41602v1.51953h0.95215v0.46289h-0.95215v2.47949
					c0,0.38379,0.17578,0.55957,0.48828,0.55957c0.13574,0,0.28711-0.03223,0.46387-0.08789L807.12891,223.49921z"/>
				<path d="M807.83398,221.96405c0-0.70312,0.3916-1.23926,1.03906-1.45508c-0.43945-0.21582-0.72754-0.65527-0.72754-1.20703
					c0-0.8877,0.79199-1.39941,1.58301-1.39941c0.85547,0,1.56738,0.55957,1.56738,1.43066
					c0,0.54395-0.30371,0.97559-0.72754,1.17578c0.63965,0.21582,1.02344,0.75977,1.02344,1.45508
					c0,1.0957-0.91992,1.63965-1.87109,1.63965S807.83398,223.05975,807.83398,221.96405z M811.04785,221.92401
					c0-0.72754-0.55176-1.19141-1.32715-1.19141c-0.7832,0-1.33496,0.46387-1.33496,1.19141
					c0,0.76758,0.62305,1.15137,1.33496,1.15137C810.42383,223.07538,811.04785,222.69159,811.04785,221.92401z
					 M810.75195,219.37323c0-0.55176-0.42383-0.94336-1.02344-0.94336c-0.55176,0-1.03125,0.34375-1.03125,0.91992
					c0,0.61523,0.42383,0.99902,1.03125,0.99902C810.32812,220.34882,810.75195,219.96503,810.75195,219.37323z"/>
			</g>
			<g enable-background="new    ">
				<path d="M845.52832,217.65741h0.56055v0.71484h-0.56055V217.65741z M845.57031,219.08612h0.4834v3.45312h-0.4834V219.08612z"/>
				<path d="M850.33203,219.21991c0,0.30078-0.09863,0.61621-0.25293,0.86816l-1.4707,2.45117h-0.5459l1.12793-1.83496
					c-0.25293,0.09082-0.56055,0.13965-0.8623,0.08398c-0.73535-0.13281-1.31641-0.77734-1.31641-1.56152
					c0-0.88965,0.74219-1.625,1.66016-1.625C849.58203,217.60175,850.33203,218.33026,850.33203,219.21991z M849.8418,219.22675
					c0-0.6377-0.51855-1.16309-1.16992-1.16309c-0.64453,0-1.16992,0.52539-1.16992,1.16309
					c0,0.63672,0.52539,1.15527,1.16992,1.15527S849.8418,219.86346,849.8418,219.22675z"/>
			</g>
			<g enable-background="new    ">
				<path d="M891.88574,223.49921c-0.20801,0.06445-0.41602,0.10449-0.59961,0.10449c-0.52832,0-0.91211-0.2959-0.91211-0.99219
					v-2.55078h-0.65527v-0.46289h0.65527v-1.10352l0.55176-0.41602v1.51953h0.95215v0.46289h-0.95215v2.47949
					c0,0.38379,0.17578,0.55957,0.48828,0.55957c0.13574,0,0.28711-0.03223,0.46387-0.08789L891.88574,223.49921z"/>
				<path d="M896.36426,219.74921c0,0.34375-0.11133,0.7041-0.28809,0.99121l-1.67871,2.79883h-0.62402l1.28809-2.09473
					c-0.28809,0.10352-0.63965,0.16016-0.9834,0.0957c-0.83984-0.15137-1.50391-0.8877-1.50391-1.7832
					c0-1.01465,0.84766-1.85449,1.89551-1.85449C895.50879,217.90253,896.36426,218.73358,896.36426,219.74921z
					 M895.80469,219.75702c0-0.72754-0.5918-1.32715-1.33496-1.32715c-0.73535,0-1.33594,0.59961-1.33594,1.32715
					s0.60059,1.31934,1.33594,1.31934S895.80469,220.48456,895.80469,219.75702z"/>
			</g>
			<g enable-background="new    ">
				<path d="M928.69141,217.966h0.63965v0.81543h-0.63965V217.966z M928.73926,219.59784h0.55176v3.94141h-0.55176V219.59784z"/>
				<path d="M932.94629,217.966v5.57324h-0.55176v-4.13379h-1.3916v-0.54395h0.92773c0.28027,0,0.46387-0.0957,0.46387-0.42383
					V217.966H932.94629z"/>
				<path d="M935.11523,220.75702c0-1.32715,0.28027-2.87109,1.72754-2.87109c1.31934,0,1.77539,1.35156,1.77539,2.87891
					s-0.44824,2.85449-1.71973,2.85449C935.41113,223.61932,935.11523,222.08417,935.11523,220.75702z M938.02637,220.75702
					c0-1.28711-0.24805-2.34277-1.18359-2.34277c-0.97559,0-1.15918,1.14355-1.15918,2.34277
					c0,1.1748,0.18359,2.33496,1.19922,2.33496C937.78613,223.09198,938.02637,222.01971,938.02637,220.75702z"/>
			</g>
			<g enable-background="new    ">
				<path d="M764.78125,217.65741h0.56055v0.71484h-0.56055V217.65741z M764.82324,219.08612h0.4834v3.45312h-0.4834V219.08612z"/>
				<path d="M766.27832,221.15936c0-0.61621,0.34375-1.08496,0.91113-1.27441c-0.38574-0.18945-0.6377-0.57422-0.6377-1.05762
					c0-0.77734,0.69336-1.22559,1.38672-1.22559c0.75,0,1.37305,0.49023,1.37305,1.25391c0,0.47559-0.2666,0.85449-0.6377,1.0293
					c0.56055,0.18945,0.89648,0.66504,0.89648,1.27441c0,0.95996-0.80469,1.43555-1.63867,1.43555
					C767.09863,222.59491,766.27832,222.11932,766.27832,221.15936z M769.09473,221.12421c0-0.63672-0.4834-1.04297-1.16309-1.04297
					c-0.68652,0-1.16992,0.40625-1.16992,1.04297c0,0.67285,0.54688,1.00879,1.16992,1.00879
					C768.54785,222.133,769.09473,221.79706,769.09473,221.12421z M768.83496,218.88983c0-0.48242-0.37109-0.82617-0.89648-0.82617
					c-0.4834,0-0.90332,0.30176-0.90332,0.80566c0,0.53906,0.37109,0.875,0.90332,0.875
					C768.46387,219.74432,768.83496,219.40839,768.83496,218.88983z"/>
			</g>
		</g>
	</g>
</g>
</svg>
