<svg xmlns="http://www.w3.org/2000/svg" xmlns:xlink="http://www.w3.org/1999/xlink" width="600" height="652" viewBox="0 0 600 652">
  <defs>
    <style>
      .cls-1 {
        clip-path: url(#clip-zoom_04);
      }

      .cls-2, .cls-23, .cls-24 {
        font-size: 10px;
      }

      .cls-14, .cls-15, .cls-16, .cls-2, .cls-23 {
        font-family: HKGrotesk-Regular, HK Grotesk;
      }

      .cls-3 {
        fill: #ccc;
        opacity: 0.2;
      }

      .cls-10, .cls-11, .cls-12, .cls-13, .cls-20, .cls-4, .cls-5, .cls-7, .cls-9 {
        fill: none;
      }

      .cls-19, .cls-20, .cls-21, .cls-4, .cls-5 {
        stroke: #5151fc;
      }

      .cls-18, .cls-19, .cls-20, .cls-21, .cls-4, .cls-5 {
        stroke-miterlimit: 10;
      }

      .cls-4 {
        stroke-width: 0.133px;
        stroke-dasharray: 1.944;
      }

      .cls-5 {
        stroke-width: 0.132px;
        stroke-dasharray: 1.922;
      }

      .cls-6 {
        opacity: 0.41;
      }

      .cls-10, .cls-11, .cls-12, .cls-13, .cls-18, .cls-7, .cls-9 {
        stroke: #7f7f7f;
      }

      .cls-20, .cls-7 {
        stroke-width: 0.5px;
      }

      .cls-10, .cls-8 {
        opacity: 0.4;
      }

      .cls-9 {
        stroke-width: 0.662px;
      }

      .cls-10, .cls-13 {
        stroke-width: 0.7px;
      }

      .cls-11, .cls-12 {
        stroke-width: 0.681px;
      }

      .cls-11 {
        stroke-dasharray: 2;
      }

      .cls-14 {
        font-size: 7px;
      }

      .cls-15, .cls-16 {
        font-size: 6px;
      }

      .cls-16, .cls-17, .cls-22, .cls-23, .cls-24 {
        fill: #5151fc;
      }

      .cls-19, .cls-21 {
        fill: #fff;
      }

      .cls-19 {
        stroke-width: 0.204px;
      }

      .cls-21 {
        stroke-width: 0.223px;
      }

      .cls-22 {
        font-size: 8.5px;
        font-family: HKGrotesk-SemiBold, HK Grotesk;
        font-weight: 600;
      }

      .cls-24 {
        font-family: HKGrotesk-Italic, HK Grotesk;
        font-style: italic;
      }
    </style>
    <clipPath id="clip-zoom_04">
      <rect width="600" height="652"/>
    </clipPath>
  </defs>
  <g id="zoom_04" class="cls-1">
    <text id="Accenni_criptici_a_un_possibile_tradimento." data-name="Accenni criptici
a un possibile
tradimento." class="cls-2" transform="translate(1.581 11)"><tspan x="0" y="0">Accenni criptici</tspan><tspan x="0" y="12">a un possibile</tspan><tspan x="0" y="24">tradimento.</tspan></text>
    <text id="Rappresentazione_esplicita_del_tradimento:_due_donne_in_scena._" data-name="Rappresentazione
esplicita del 
tradimento:due donne 
in scena." class="cls-2" transform="translate(208.719 15)"><tspan x="0" y="0">Rappresentazione</tspan><tspan x="0" y="12">esplicita del </tspan><tspan x="0" y="24">tradimento:</tspan><tspan x="0" y="36">due donne </tspan><tspan x="0" y="48">in scena.</tspan><tspan x="0" y="60"></tspan></text>
    <text id="Tradimento_con_Lotaria:_sorella_doppio_di_Ludmilla_moltiplicazione_delle_identità_femminili_infinite_donne_in_scena." data-name="Tradimento 
con Lotaria:sorella/doppio 
di Ludmilla,moltiplicazione delleidentità femminili,“infinite” donne 
in scena." class="cls-2" transform="translate(325.719 15)"><tspan x="0" y="0">Tradimento </tspan><tspan x="0" y="12">con Lotaria:</tspan><tspan x="0" y="24">sorella/doppio </tspan><tspan x="0" y="36">di Ludmilla,</tspan><tspan x="0" y="48">moltiplicazione delle</tspan><tspan x="0" y="60">identità femminili,</tspan><tspan x="0" y="72">“infinite” donne </tspan><tspan x="0" y="84">in scena.</tspan></text>
    <text id="Doppio_fallimento_erotico:_due_donne_in_scena_sdoppiamento_e_perdita_dell_identità." data-name="Doppio fallimento 
erotico:due donne in scena,sdoppiamento 
e perditadell’identità." class="cls-2" transform="translate(474.801 15)"><tspan x="0" y="0">Doppio fallimento </tspan><tspan x="0" y="12">erotico:</tspan><tspan x="0" y="24">due donne in scena,</tspan><tspan x="0" y="36">sdoppiamento </tspan><tspan x="0" y="48">e perdita</tspan><tspan x="0" y="60">dell’identità.</tspan></text>
    <text id="Rivelazione_del_tradimento." data-name="Rivelazione del tradimento." class="cls-2" transform="translate(104 2)"><tspan x="0" y="9">Rivelazione del </tspan><tspan x="0" y="21">tradimento.</tspan></text>
    <g id="Group_4810" data-name="Group 4810" transform="translate(0 -39)">
      <g id="tradimento" transform="translate(-51 -2997)">
        <g id="Group_565" data-name="Group 565" transform="translate(0 81)">
          <g id="stripes" transform="translate(39.281 2145.258)">
            <rect id="Rectangle_204" data-name="Rectangle 204" class="cls-3" width="60.104" height="436.515" transform="translate(14.849 948.089)"/>
            <rect id="Rectangle_205" data-name="Rectangle 205" class="cls-3" width="44.54" height="436.515" transform="translate(119.786 948.089)"/>
            <rect id="Rectangle_206" data-name="Rectangle 206" class="cls-3" width="79.725" height="436.515" transform="translate(226.116 948.089)"/>
            <rect id="Rectangle_207" data-name="Rectangle 207" class="cls-3" width="90.711" height="436.322" transform="translate(486.834 948.287)"/>
            <line id="Line_221" data-name="Line 221" class="cls-4" y2="436.515" transform="translate(14.596 948.089)"/>
            <line id="Line_222" data-name="Line 222" class="cls-4" y2="436.515" transform="translate(74.995 948.338)"/>
            <line id="Line_223" data-name="Line 223" class="cls-4" y2="436.515" transform="translate(119.951 948.338)"/>
            <line id="Line_224" data-name="Line 224" class="cls-4" y2="436.515" transform="translate(164.263 948.338)"/>
            <line id="Line_225" data-name="Line 225" class="cls-4" y2="436.515" transform="translate(226.227 948.338)"/>
            <line id="Line_226" data-name="Line 226" class="cls-4" y2="436.515" transform="translate(305.908 948.338)"/>
            <line id="Line_227" data-name="Line 227" class="cls-5" y2="426.87" transform="translate(487.329 957.982)"/>
            <line id="Line_228" data-name="Line 228" class="cls-5" y2="426.87" transform="translate(577.509 957.982)"/>
          </g>
          <g id="separate" transform="translate(38.281 2144.258)">
            <g id="Group_473" data-name="Group 473" class="cls-6">
              <path id="Path_1393" data-name="Path 1393" class="cls-7" d="M14.159,1383.827c3.251,0,6.5-108.587,9.754-151.423"/>
              <path id="Path_1394" data-name="Path 1394" class="cls-7" d="M23.913,1232.4c1.984-26.14,3.968-69.888,5.952-69.888"/>
              <path id="Path_1395" data-name="Path 1395" class="cls-7" d="M29.865,1162.516c1.934,0,3.867,69.888,5.8,69.888"/>
              <path id="Path_1396" data-name="Path 1396" class="cls-7" d="M35.665,1232.4c1.485,0,2.969-40.653,4.453-58.24"/>
              <path id="Path_1397" data-name="Path 1397" class="cls-7" d="M40.118,1174.164c1.459-17.3,2.919-35.219,4.378-46.592"/>
              <path id="Path_1398" data-name="Path 1398" class="cls-7" d="M44.5,1127.572c1.916-14.926,3.831-23.3,5.746-23.3"/>
              <path id="Path_1399" data-name="Path 1399" class="cls-7" d="M50.242,1104.276c1.337,0,2.674,139.776,4.01,139.776"/>
              <path id="Path_1400" data-name="Path 1400" class="cls-7" d="M54.252,1244.052c1.235,0,2.469-221.312,3.7-221.312"/>
              <path id="Path_1401" data-name="Path 1401" class="cls-7" d="M57.955,1022.74c1.309,0,2.618,221.312,3.927,221.312"/>
              <path id="Path_1402" data-name="Path 1402" class="cls-7" d="M61.882,1244.052q1.829,0,3.657-104.832"/>
              <path id="Path_1403" data-name="Path 1403" class="cls-7" d="M65.539,1139.22c.535-30.7,1.071-116.48,1.606-116.48"/>
            </g>
            <g id="Group_474" data-name="Group 474" class="cls-8">
              <path id="Path_1404" data-name="Path 1404" class="cls-9" d="M164.192,1024.9c1.239,0-1.979,219.029-.74,219.029"/>
              <path id="Path_1405" data-name="Path 1405" class="cls-9" d="M119.908,1266.891c3.2,39.261,6.409,116.479,9.614,116.479"/>
              <path id="Path_1406" data-name="Path 1406" class="cls-9" d="M129.522,1383.37c2.436,0,4.873-209.663,7.309-209.663"/>
              <path id="Path_1407" data-name="Path 1407" class="cls-9" d="M136.831,1173.707c1.979,0,3.958,209.663,5.937,209.663"/>
              <path id="Path_1408" data-name="Path 1408" class="cls-9" d="M142.768,1383.37c1.03,0,2.059-209.663,3.089-209.663"/>
              <path id="Path_1409" data-name="Path 1409" class="cls-9" d="M145.857,1173.707c1.519,0,3.039,209.663,4.558,209.663"/>
              <path id="Path_1410" data-name="Path 1410" class="cls-9" d="M150.415,1383.37c1.194,0,2.388-209.663,3.582-209.663"/>
              <path id="Path_1411" data-name="Path 1411" class="cls-9" d="M154,1173.707c.465,0,.931,11.648,1.4,11.648"/>
              <path id="Path_1412" data-name="Path 1412" class="cls-9" d="M155.393,1185.355q1.357,0,2.715-11.648"/>
              <path id="Path_1413" data-name="Path 1413" class="cls-9" d="M158.108,1173.707c1.024-8.791,2.048-58.24,3.073-58.24"/>
              <path id="Path_1414" data-name="Path 1414" class="cls-9" d="M161.181,1115.467c.731,0,1.462,128.128,2.193,128.128"/>
            </g>
            <g id="Group_475" data-name="Group 475">
              <path id="Path_1415" data-name="Path 1415" class="cls-10" d="M486.886,1236.969c2.053,0,2.973-188.171,5.026-230.711"/>
              <path id="Path_1416" data-name="Path 1416" class="cls-10" d="M491.912,1006.258q2.81-58.239,5.62-58.239"/>
              <path id="Path_1417" data-name="Path 1417" class="cls-10" d="M497.532,948.019c.9,0,2.419,90.741,3.323,90.741"/>
              <path id="Path_1418" data-name="Path 1418" class="cls-10" d="M500.855,1038.908c1.566,0,2.522-55.945,4.088-55.945"/>
              <path id="Path_1419" data-name="Path 1419" class="cls-10" d="M504.943,982.963c3.016,0,6.1,132.378,9.119,132.378"/>
              <path id="Path_1420" data-name="Path 1420" class="cls-10" d="M514.062,1115.341c3.01,0,5.949-92.134,8.959-92.134"/>
              <path id="Path_1421" data-name="Path 1421" class="cls-10" d="M523.021,1023.207c2.127,0,4.255,274.251,6.383,274.251"/>
              <path id="Path_1422" data-name="Path 1422" class="cls-10" d="M529.4,1297.458c1.817,0,3.634-274.251,5.452-274.251"/>
              <path id="Path_1423" data-name="Path 1423" class="cls-10" d="M534.856,1023.207c.667,0,1.433,46.912,2.1,46.912"/>
              <path id="Path_1424" data-name="Path 1424" class="cls-10" d="M536.957,1070.119c1.842,0,3.586-87.156,5.429-87.156"/>
              <path id="Path_1425" data-name="Path 1425" class="cls-10" d="M542.386,982.963q4.319,0,8.638,58.239"/>
              <path id="Path_1426" data-name="Path 1426" class="cls-10" d="M551.024,1041.2c1.922,25.917,3.843,256.256,5.765,256.256"/>
              <path id="Path_1427" data-name="Path 1427" class="cls-10" d="M556.789,1297.458c.987,0,1.974-274.251,2.961-274.251"/>
              <path id="Path_1428" data-name="Path 1428" class="cls-10" d="M559.75,1023.207c.5,0,1.1,46.912,1.6,46.912"/>
              <path id="Path_1429" data-name="Path 1429" class="cls-10" d="M561.355,1070.119c.64,0,1.182-64.63,1.822-87.156"/>
              <path id="Path_1430" data-name="Path 1430" class="cls-10" d="M563.177,982.963c.421-14.823.843-23.3,1.264-23.3"/>
              <path id="Path_1431" data-name="Path 1431" class="cls-10" d="M564.441,959.667c1.944,0,3.889,337.791,5.833,337.791"/>
              <path id="Path_1432" data-name="Path 1432" class="cls-10" d="M570.274,1297.458c2.413,0,4.7-153.344,7.109-274.285"/>
            </g>
            <g id="Group_477" data-name="Group 477" class="cls-8">
              <g id="Group_476" data-name="Group 476">
                <path id="Path_1433" data-name="Path 1433" class="cls-11" d="M306.352,1070.049c1.911,0,28.492,45.009,30.4,45.009"/>
                <path id="Path_1434" data-name="Path 1434" class="cls-12" d="M336.755,1115.058c1.674,0,3.5-132.85,5.173-132.85"/>
                <path id="Path_1435" data-name="Path 1435" class="cls-12" d="M341.928,982.208c1.458,0,2.916,25.951,4.374,55.485"/>
                <path id="Path_1436" data-name="Path 1436" class="cls-12" d="M346.3,1037.693c1.132,22.935,2.265,67.33,3.4,88.776"/>
                <path id="Path_1437" data-name="Path 1437" class="cls-12" d="M349.7,1126.469c4.3,81.378,8.594,82.283,12.891,122.068"/>
                <path id="Path_1438" data-name="Path 1438" class="cls-12" d="M362.59,1248.537c4.922,45.575,9.844,133.164,14.766,133.164"/>
                <path id="Path_1439" data-name="Path 1439" class="cls-12" d="M377.356,1381.7c1.854,0,3.708-300.172,5.562-332.911"/>
                <path id="Path_1440" data-name="Path 1440" class="cls-12" d="M382.918,1048.79q2.512-44.388,5.026-44.388"/>
                <path id="Path_1441" data-name="Path 1441" class="cls-12" d="M387.944,1004.4q2.5,0,5,33.291"/>
                <path id="Path_1442" data-name="Path 1442" class="cls-12" d="M392.947,1037.693c1.223,16.27,2.445,344.008,3.668,344.008"/>
                <path id="Path_1443" data-name="Path 1443" class="cls-12" d="M396.615,1381.7c1.191,0,2.381-399.493,3.572-399.493"/>
                <path id="Path_1444" data-name="Path 1444" class="cls-12" d="M400.187,982.208c1.321,0,2.643,53.762,3.964,110.97"/>
                <path id="Path_1445" data-name="Path 1445" class="cls-12" d="M404.151,1093.178c1.566,67.787,3.132,288.523,4.7,288.523"/>
                <path id="Path_1446" data-name="Path 1446" class="cls-12" d="M408.849,1381.7c1.522,0,3.044-121.4,4.566-166.456"/>
                <path id="Path_1447" data-name="Path 1447" class="cls-12" d="M413.415,1215.245c1.23-36.4,2.565-99.954,3.795-99.954"/>
                <path id="Path_1448" data-name="Path 1448" class="cls-11" d="M417.21,1115.291c1.045,0,69.307,121.163,70.352,121.163"/>
              </g>
            </g>
            <g id="Group_479" data-name="Group 479">
              <path id="Path_1449" data-name="Path 1449" class="cls-10" d="M270.786,1023.6c1.014,0,1.987,122.78,3,122.78"/>
              <g id="Group_478" data-name="Group 478" class="cls-8">
                <path id="Path_1450" data-name="Path 1450" class="cls-13" d="M225.994,996.665c2.273,0,4.545,2.515,6.818,26.932"/>
                <path id="Path_1451" data-name="Path 1451" class="cls-13" d="M232.812,1023.6c1.5,16.091,3,341.852,4.493,341.852"/>
                <path id="Path_1452" data-name="Path 1452" class="cls-13" d="M237.3,1365.449q2.46,0,4.92-48.836"/>
                <path id="Path_1453" data-name="Path 1453" class="cls-13" d="M242.225,1316.613c1.094-21.714,2.188-319.948,3.281-319.948"/>
                <path id="Path_1454" data-name="Path 1454" class="cls-13" d="M245.506,996.665c.791,0,2.084,241.767,2.874,247.811"/>
                <path id="Path_1455" data-name="Path 1455" class="cls-13" d="M248.1,1244.476c2.129,16.279,4.042,35.51,6.172,35.51"/>
                <path id="Path_1456" data-name="Path 1456" class="cls-13" d="M254.267,1279.986q3.879,0,7.758-36.627"/>
                <path id="Path_1457" data-name="Path 1457" class="cls-13" d="M262.025,1243.359c1.3-12.26,2.6-97.672,3.9-97.672"/>
                <path id="Path_1458" data-name="Path 1458" class="cls-13" d="M265.92,1145.687c.68,0,1.359,183.135,2.038,183.135"/>
                <path id="Path_1459" data-name="Path 1459" class="cls-13" d="M267.958,1328.822c.942,0,1.885-305.225,2.828-305.225"/>
                <path id="Path_1460" data-name="Path 1460" class="cls-13" d="M273.787,1146.377c.787,0,1.616-122.78,2.4-122.78"/>
                <path id="Path_1461" data-name="Path 1461" class="cls-13" d="M276.19,1023.6c3.293,0,6.63,47.168,9.923,47.168"/>
                <path id="Path_1462" data-name="Path 1462" class="cls-13" d="M286.113,1070.765c3.8,0,7.561-111.04,11.364-111.04"/>
                <path id="Path_1463" data-name="Path 1463" class="cls-13" d="M297.477,959.725c1.3,0,2.841,277.291,4.141,277.291"/>
                <path id="Path_1464" data-name="Path 1464" class="cls-13" d="M301.665,1236.969c1.418,0,2.469-165.373,3.887-165.373"/>
              </g>
            </g>
          </g>
          <g id="etichhette" transform="translate(38.281 2144.258)">
            <g id="Group_487" data-name="Group 487">
              <text id="telefonata" class="cls-14" transform="translate(54.515 1098.316) rotate(-51.389)"><tspan x="0" y="0">telefonata</tspan></text>
            </g>
            <g id="Group_488" data-name="Group 488">
              <text id="incontro_femminile" data-name="incontro femminile" class="cls-14" transform="translate(164.15 1014.633) rotate(-51.389)"><tspan x="0" y="0">incontro femminile</tspan></text>
            </g>
            <g id="Group_489" data-name="Group 489">
              <text id="scena_erotica" data-name="scena erotica" class="cls-14" transform="translate(285.816 1062.338) rotate(-51.389)"><tspan x="0" y="0">scena erotica</tspan></text>
              <text id="scena_erotica-2" data-name="scena erotica" class="cls-14" transform="translate(306.816 1062.338) rotate(-51.389)"><tspan x="0" y="0">scena erotica</tspan></text>
              <text id="scena_erotica-3" data-name="scena erotica" class="cls-14" transform="translate(405.816 1062.338) rotate(-51.389)"><tspan x="0" y="0">scena erotica</tspan></text>
              <text id="situazione" class="cls-15" transform="translate(239.587 1362.815) rotate(-51.389)"><tspan x="0" y="0">situazione</tspan></text>
              <text id="attesa" class="cls-15" transform="translate(239.192 1341.503) rotate(-51.389)"><tspan x="0" y="0">attesa</tspan></text>
            </g>
            <g id="Group_491" data-name="Group 491">
              <g id="Group_490" data-name="Group 490">
                <text id="angoscia_delusione" data-name="angoscia/delusione" class="cls-15" transform="translate(487.948 1233.721) rotate(-51.389)"><tspan x="0" y="0">angoscia/delusione</tspan></text>
                <text id="mistero_assurdità" data-name="mistero/assurdità" class="cls-15" transform="translate(529.609 1293.731) rotate(-51.389)"><tspan x="0" y="0">mistero/assurdità</tspan></text>
                <text id="rivelazione" class="cls-16" transform="translate(570.406 955.247) rotate(-51.389)"><tspan x="0" y="0">rivelazione</tspan></text>
                <text id="scena_erotica-4" data-name="scena erotica" class="cls-14" transform="translate(561.325 1062.259) rotate(-51.389)"><tspan x="0" y="0">scena erotica</tspan></text>
                <text id="scena_erotica-5" data-name="scena erotica" class="cls-14" transform="translate(536.925 1062.259) rotate(-51.389)"><tspan x="0" y="0">scena erotica</tspan></text>
              </g>
            </g>
            <line id="Line_230" data-name="Line 230" class="cls-17" y2="457.528" transform="translate(210.793 926.775)"/>
            <line id="Line_231" data-name="Line 231" class="cls-17" y2="453.801" transform="translate(467.6 929.571)"/>
          </g>
          <g id="pallini" transform="translate(38.281 2144.258)">
            <circle id="Ellipse_164" data-name="Ellipse 164" cx="1.078" cy="1.078" r="1.078" transform="translate(56.831 1021.957)"/>
            <circle id="Ellipse_165" data-name="Ellipse 165" cx="1.078" cy="1.078" r="1.078" transform="translate(48.854 1103.143)"/>
            <circle id="Ellipse_166" data-name="Ellipse 166" cx="1.078" cy="1.078" r="1.078" transform="translate(64.875 1103.047)"/>
            <circle id="Ellipse_167" data-name="Ellipse 167" cx="1.078" cy="1.078" r="1.078" transform="translate(43.683 1125.662)"/>
            <circle id="Ellipse_168" data-name="Ellipse 168" cx="1.078" cy="1.078" r="1.078" transform="translate(34.299 1231.015)"/>
            <circle id="Ellipse_169" data-name="Ellipse 169" cx="1.078" cy="1.078" r="1.078" transform="translate(22.849 1231.015)"/>
            <circle id="Ellipse_170" data-name="Ellipse 170" cx="1.078" cy="1.078" r="1.078" transform="translate(13.236 1382.248)"/>
            <circle id="Ellipse_171" data-name="Ellipse 171" cx="1.078" cy="1.078" r="1.078" transform="translate(53.214 1242.092)"/>
            <circle id="Ellipse_172" data-name="Ellipse 172" cx="1.078" cy="1.078" r="1.078" transform="translate(60.824 1242.092)"/>
            <circle id="Ellipse_173" data-name="Ellipse 173" cx="1.078" cy="1.078" r="1.078" transform="translate(28.657 1161.716)"/>
            <circle id="Ellipse_174" data-name="Ellipse 174" cx="1.078" cy="1.078" r="1.078" transform="translate(38.977 1173.363)"/>
            <circle id="Ellipse_175" data-name="Ellipse 175" cx="1.078" cy="1.078" r="1.078" transform="translate(64.498 1132.694)"/>
            <circle id="Ellipse_176" data-name="Ellipse 176" cx="1.078" cy="1.078" r="1.078" transform="translate(66.071 1021.957)"/>
            <circle id="Ellipse_177" data-name="Ellipse 177" cx="1.078" cy="1.078" r="1.078" transform="translate(231.73 1022.413)"/>
            <circle id="Ellipse_178" data-name="Ellipse 178" cx="1.078" cy="1.078" r="1.078" transform="translate(224.834 995.75)"/>
            <circle id="Ellipse_179" data-name="Ellipse 179" cx="1.078" cy="1.078" r="1.078" transform="translate(244.161 995.75)"/>
            <circle id="Ellipse_180" data-name="Ellipse 180" cx="1.078" cy="1.078" r="1.078" transform="translate(269.769 1022.164)"/>
            <circle id="Ellipse_181" data-name="Ellipse 181" cx="1.078" cy="1.078" r="1.078" transform="translate(275.416 1021.93)"/>
            <circle id="Ellipse_182" data-name="Ellipse 182" cx="1.078" cy="1.078" r="1.078" transform="translate(118.944 1266.124)"/>
            <circle id="Ellipse_183" data-name="Ellipse 183" cx="1.078" cy="1.078" r="1.078" transform="translate(236.541 1363.34)"/>
            <circle id="Ellipse_184" data-name="Ellipse 184" cx="1.078" cy="1.078" r="1.078" transform="translate(247.201 1243.177)"/>
            <circle id="Ellipse_185" data-name="Ellipse 185" cx="1.078" cy="1.078" r="1.078" transform="translate(253.261 1278.592)"/>
            <circle id="Ellipse_186" data-name="Ellipse 186" cx="1.078" cy="1.078" r="1.078" transform="translate(162.444 1242.46)"/>
            <circle id="Ellipse_187" data-name="Ellipse 187" cx="1.078" cy="1.078" r="1.078" transform="translate(300.522 1235.687)"/>
            <circle id="Ellipse_188" data-name="Ellipse 188" cx="1.078" cy="1.078" r="1.078" transform="translate(261.647 1235.554)"/>
            <circle id="Ellipse_189" data-name="Ellipse 189" cx="1.078" cy="1.078" r="1.078" transform="translate(128.415 1381.824)"/>
            <circle id="Ellipse_190" data-name="Ellipse 190" cx="1.078" cy="1.078" r="1.078" transform="translate(141.575 1382.155)"/>
            <circle id="Ellipse_191" data-name="Ellipse 191" cx="1.078" cy="1.078" r="1.078" transform="translate(149.424 1382.155)"/>
            <circle id="Ellipse_192" data-name="Ellipse 192" cx="1.078" cy="1.078" r="1.078" transform="translate(152.698 1173.048)"/>
            <circle id="Ellipse_193" data-name="Ellipse 193" cx="1.078" cy="1.078" r="1.078" transform="translate(156.853 1173.053)"/>
            <circle id="Ellipse_194" data-name="Ellipse 194" cx="1.078" cy="1.078" r="1.078" transform="translate(160.191 1114.474)"/>
            <circle id="Ellipse_195" data-name="Ellipse 195" cx="1.078" cy="1.078" r="1.078" transform="translate(264.644 1144.738)"/>
            <circle id="Ellipse_196" data-name="Ellipse 196" cx="1.078" cy="1.078" r="1.078" transform="translate(272.852 1145.058)"/>
            <circle id="Ellipse_197" data-name="Ellipse 197" cx="1.078" cy="1.078" r="1.078" transform="translate(285.091 1069.328)"/>
            <circle id="Ellipse_198" data-name="Ellipse 198" cx="1.078" cy="1.078" r="1.078" transform="translate(304.469 1070.443)"/>
            <circle id="Ellipse_200" data-name="Ellipse 200" cx="1.078" cy="1.078" r="1.078" transform="translate(154.404 1183.916)"/>
            <circle id="Ellipse_201" data-name="Ellipse 201" cx="1.078" cy="1.078" r="1.078" transform="translate(144.737 1173.048)"/>
            <circle id="Ellipse_202" data-name="Ellipse 202" cx="1.078" cy="1.078" r="1.078" transform="translate(135.864 1173.048)"/>
            <circle id="Ellipse_203" data-name="Ellipse 203" cx="1.078" cy="1.078" r="1.078" transform="translate(296.262 958.844)"/>
            <circle id="Ellipse_204" data-name="Ellipse 204" cx="1.078" cy="1.078" r="1.078" transform="translate(239.489 1342.78)"/>
            <circle id="Ellipse_205" data-name="Ellipse 205" cx="1.078" cy="1.078" r="1.078" transform="translate(267.019 1329.155)"/>
            <circle id="Ellipse_206" data-name="Ellipse 206" cx="1.078" cy="1.078" r="1.078" transform="translate(235.406 1323.456)"/>
            <circle id="Ellipse_207" data-name="Ellipse 207" cx="1.078" cy="1.078" r="1.078" transform="translate(485.96 1235.307)"/>
            <circle id="Ellipse_208" data-name="Ellipse 208" cx="1.078" cy="1.078" r="1.078" transform="translate(528.414 1295.887)"/>
            <circle id="Ellipse_209" data-name="Ellipse 209" cx="1.078" cy="1.078" r="1.078" transform="translate(555.823 1295.887)"/>
            <circle id="Ellipse_210" data-name="Ellipse 210" cx="1.078" cy="1.078" r="1.078" transform="translate(569.31 1295.887)"/>
            <circle id="Ellipse_211" data-name="Ellipse 211" cx="1.078" cy="1.078" r="1.078" transform="translate(490.745 1006.691)"/>
            <circle id="Ellipse_212" data-name="Ellipse 212" cx="1.078" cy="1.078" r="1.078" transform="translate(522.116 1022.059)"/>
            <circle id="Ellipse_213" data-name="Ellipse 213" cx="1.078" cy="1.078" r="1.078" transform="translate(499.752 1037.573)"/>
            <circle id="Ellipse_214" data-name="Ellipse 214" cx="1.078" cy="1.078" r="1.078" transform="translate(576.485 1021.677)"/>
            <circle id="Ellipse_215" data-name="Ellipse 215" cx="1.078" cy="1.078" r="1.078" transform="translate(533.763 1022.059)"/>
            <circle id="Ellipse_216" data-name="Ellipse 216" cx="1.078" cy="1.078" r="1.078" transform="translate(535.891 1068.622)"/>
            <circle id="Ellipse_217" data-name="Ellipse 217" cx="1.078" cy="1.078" r="1.078" transform="translate(512.982 1114.459)"/>
            <circle id="Ellipse_218" data-name="Ellipse 218" cx="1.078" cy="1.078" r="1.078" transform="translate(560.318 1068.622)"/>
            <circle id="Ellipse_219" data-name="Ellipse 219" cx="1.078" cy="1.078" r="1.078" transform="translate(558.894 1022.059)"/>
            <circle id="Ellipse_220" data-name="Ellipse 220" cx="1.078" cy="1.078" r="1.078" transform="translate(496.371 947.309)"/>
            <circle id="Ellipse_221" data-name="Ellipse 221" cx="1.078" cy="1.078" r="1.078" transform="translate(503.88 982.095)"/>
            <circle id="Ellipse_222" data-name="Ellipse 222" cx="1.078" cy="1.078" r="1.078" transform="translate(541.319 982.095)"/>
            <circle id="Ellipse_223" data-name="Ellipse 223" cx="1.078" cy="1.078" r="1.078" transform="translate(563.425 958.598)"/>
            <circle id="Ellipse_224" data-name="Ellipse 224" cx="1.078" cy="1.078" r="1.078" transform="translate(562.196 981.609)"/>
            <circle id="Ellipse_225" data-name="Ellipse 225" cx="1.078" cy="1.078" r="1.078" transform="translate(341.067 981.63)"/>
            <circle id="Ellipse_226" data-name="Ellipse 226" cx="1.078" cy="1.078" r="1.078" transform="translate(398.959 981.907)"/>
            <circle id="Ellipse_227" data-name="Ellipse 227" cx="1.078" cy="1.078" r="1.078" transform="translate(335.754 1114.361)"/>
            <circle id="Ellipse_229" data-name="Ellipse 229" cx="1.078" cy="1.078" r="1.078" transform="translate(344.537 1022.222)"/>
            <circle id="Ellipse_230" data-name="Ellipse 230" cx="1.078" cy="1.078" r="1.078" transform="translate(390.532 1022.066)"/>
            <circle id="Ellipse_231" data-name="Ellipse 231" cx="1.078" cy="1.078" r="1.078" transform="translate(386.924 1003.661)"/>
            <circle id="Ellipse_232" data-name="Ellipse 232" cx="1.078" cy="1.078" r="1.078" transform="translate(382.003 1037.378)"/>
            <circle id="Ellipse_233" data-name="Ellipse 233" cx="1.078" cy="1.078" r="1.078" transform="translate(402.203 1065.493)"/>
            <circle id="Ellipse_234" data-name="Ellipse 234" cx="1.078" cy="1.078" r="1.078" transform="translate(348.52 1114.007)"/>
            <circle id="Ellipse_235" data-name="Ellipse 235" cx="1.078" cy="1.078" r="1.078" transform="translate(416.009 1114.459)"/>
            <circle id="Ellipse_237" data-name="Ellipse 237" cx="1.078" cy="1.078" r="1.078" transform="translate(360.919 1243.48)"/>
            <circle id="Ellipse_238" data-name="Ellipse 238" cx="1.078" cy="1.078" r="1.078" transform="translate(376.097 1380.142)"/>
            <circle id="Ellipse_239" data-name="Ellipse 239" cx="1.078" cy="1.078" r="1.078" transform="translate(395.534 1380.142)"/>
            <circle id="Ellipse_240" data-name="Ellipse 240" cx="1.078" cy="1.078" r="1.078" transform="translate(407.687 1380.142)"/>
            <circle id="Ellipse_241" data-name="Ellipse 241" cx="1.078" cy="1.078" r="1.078" transform="translate(412.384 1213.111)"/>
            <circle id="Ellipse_333" data-name="Ellipse 333" class="cls-18" cx="1.668" cy="1.668" r="1.668" transform="translate(12.956 1381.699)"/>
          </g>
          <circle id="Ellipse_286" data-name="Ellipse 286" class="cls-19" cx="5.331" cy="5.331" r="5.331" transform="translate(82.96 3242.917)"/>
          <circle id="Ellipse_287" data-name="Ellipse 287" class="cls-17" cx="2.149" cy="2.149" r="2.149" transform="translate(86.142 3246.099)"/>
          <g id="Group_568" data-name="Group 568" transform="translate(0 54)">
            <path id="Path_1847" data-name="Path 1847" class="cls-20" d="M12.563,1390v4.763h62.52v-4.639" transform="translate(38.281 2095.258)"/>
            <path id="Path_1848" data-name="Path 1848" class="cls-20" d="M119.749,1390v4.763h44.424v-4.738" transform="translate(38.281 2095.258)"/>
            <path id="Path_1849" data-name="Path 1849" class="cls-20" d="M226.826,1390v4.763H305.9v-4.738" transform="translate(38.281 2095.258)"/>
            <path id="Path_1850" data-name="Path 1850" class="cls-20" d="M487.426,1390v4.763l90.007.074-.242-4.812" transform="translate(38.281 2095.258)"/>
            <path id="Path_1851" data-name="Path 1851" class="cls-20" d="M39.468,1394.555c0,28.745,102.5,29.83,102.5,0" transform="translate(38.281 2095.258)"/>
            <path id="Path_1852" data-name="Path 1852" class="cls-20" d="M142.336,1394.555c0,28.745,126.974,29.83,126.974,0" transform="translate(38.281 2095.258)"/>
            <path id="Path_1853" data-name="Path 1853" class="cls-20" d="M268.682,1394.555c0,28.745,113.383,29.83,113.383,0" transform="translate(38.281 2095.258)"/>
            <path id="Path_1854" data-name="Path 1854" class="cls-20" d="M382.065,1394.565c0,28.745,152.9,29.82,152.9-.01" transform="translate(38.281 2095.258)"/>
          </g>
          <circle id="Ellipse_288" data-name="Ellipse 288" class="cls-19" cx="5.331" cy="5.331" r="5.331" transform="translate(319.142 3209.267)"/>
          <circle id="Ellipse_289" data-name="Ellipse 289" class="cls-17" cx="2.149" cy="2.149" r="2.149" transform="translate(322.325 3212.449)"/>
          <circle id="Ellipse_290" data-name="Ellipse 290" class="cls-19" cx="5.331" cy="5.331" r="5.331" transform="translate(338.63 3209.267)"/>
          <circle id="Ellipse_291" data-name="Ellipse 291" class="cls-17" cx="2.149" cy="2.149" r="2.149" transform="translate(341.813 3212.449)"/>
          <circle id="Ellipse_292" data-name="Ellipse 292" class="cls-19" cx="5.331" cy="5.331" r="5.331" transform="translate(436.064 3209.267)"/>
          <circle id="Ellipse_293" data-name="Ellipse 293" class="cls-17" cx="2.149" cy="2.149" r="2.149" transform="translate(439.247 3212.449)"/>
          <circle id="Ellipse_294" data-name="Ellipse 294" class="cls-19" cx="5.331" cy="5.331" r="5.331" transform="translate(569.892 3209.267)"/>
          <circle id="Ellipse_295" data-name="Ellipse 295" class="cls-17" cx="2.149" cy="2.149" r="2.149" transform="translate(573.074 3212.449)"/>
          <circle id="Ellipse_296" data-name="Ellipse 296" class="cls-19" cx="5.331" cy="5.331" r="5.331" transform="translate(594.256 3209.267)"/>
          <circle id="Ellipse_297" data-name="Ellipse 297" class="cls-17" cx="2.149" cy="2.149" r="2.149" transform="translate(597.439 3212.449)"/>
          <circle id="Ellipse_300" data-name="Ellipse 300" class="cls-19" cx="5.331" cy="5.331" r="5.331" transform="translate(597.45 3098.688)"/>
          <circle id="Ellipse_301" data-name="Ellipse 301" class="cls-17" cx="2.149" cy="2.149" r="2.149" transform="translate(600.633 3101.87)"/>
          <g id="Group_4805" data-name="Group 4805">
            <circle id="Ellipse_318" data-name="Ellipse 318" class="cls-19" cx="5.331" cy="5.331" r="5.331" transform="translate(88.96 3242.917)"/>
            <circle id="Ellipse_319" data-name="Ellipse 319" class="cls-17" cx="2.149" cy="2.149" r="2.149" transform="translate(92.142 3246.099)"/>
          </g>
          <circle id="Ellipse_331" data-name="Ellipse 331" class="cls-18" cx="1.668" cy="1.668" r="1.668" transform="translate(156.237 3409.958)"/>
          <circle id="Ellipse_332" data-name="Ellipse 332" class="cls-18" cx="1.668" cy="1.668" r="1.668" transform="translate(201.237 3167.958)"/>
          <g id="Group_4806" data-name="Group 4806" transform="translate(2 -81)">
            <circle id="Ellipse_318-2" data-name="Ellipse 318" class="cls-19" cx="5.331" cy="5.331" r="5.331" transform="translate(88.96 3242.917)"/>
            <circle id="Ellipse_319-2" data-name="Ellipse 319" class="cls-17" cx="2.149" cy="2.149" r="2.149" transform="translate(92.142 3246.099)"/>
          </g>
          <g id="Group_4807" data-name="Group 4807" transform="translate(11 -81)">
            <circle id="Ellipse_318-3" data-name="Ellipse 318" class="cls-19" cx="5.331" cy="5.331" r="5.331" transform="translate(88.96 3242.917)"/>
            <circle id="Ellipse_319-3" data-name="Ellipse 319" class="cls-17" cx="2.149" cy="2.149" r="2.149" transform="translate(92.142 3246.099)"/>
          </g>
        </g>
        <g id="Group_4804" data-name="Group 4804" transform="translate(0 31)">
          <text id="i6" class="cls-2" transform="translate(53.266 3135.504)"><tspan x="0" y="0">i6</tspan></text>
          <text id="i7" class="cls-2" transform="translate(157.853 3135.503)"><tspan x="0" y="0">i7</tspan></text>
          <text id="i8" class="cls-2" transform="translate(264.4 3135.503)"><tspan x="0" y="0">i8</tspan></text>
          <text id="i9" class="cls-2" transform="translate(524.832 3135.503)"><tspan x="0" y="0">i9</tspan></text>
          <text id="t8" class="cls-2" transform="translate(376.543 3135.503)"><tspan x="0" y="0">t8</tspan></text>
        </g>
      </g>
      <text id="incontro_femminile-2" data-name="incontro femminile" class="cls-14" transform="translate(49.432 242.891) rotate(-51.389)"><tspan x="0" y="0">incontro femminile</tspan></text>
      <g id="Group_4808" data-name="Group 4808" transform="translate(57 -2997)">
        <circle id="Ellipse_318-4" data-name="Ellipse 318" class="cls-19" cx="5.331" cy="5.331" r="5.331" transform="translate(88.96 3242.917)"/>
        <circle id="Ellipse_319-4" data-name="Ellipse 319" class="cls-17" cx="2.149" cy="2.149" r="2.149" transform="translate(92.142 3246.099)"/>
      </g>
      <rect id="Rectangle_13541" data-name="Rectangle 13541" class="cls-21" width="37.246" height="10.988" rx="3" transform="translate(398.977 293.426)"/>
      <g id="Group_4809" data-name="Group 4809" transform="translate(398.977 293.426)">
        <text id="LOTARIA" class="cls-22" transform="translate(1.293 8.676)"><tspan x="0" y="0">LOTARIA</tspan></text>
      </g>
      <g id="tensione_erotica" data-name="tensione erotica" transform="translate(-52 -1921)">
        <text id="Costruzione_del_tradimento" data-name="Costruzione del tradimento" class="cls-23" transform="translate(53.086 2598)"><tspan x="0" y="9">Costruzione del tradimento</tspan></text>
      </g>
      <g id="tensione_erotica-2" data-name="tensione erotica" transform="translate(346 -1854)">
        <text id="Tradimento_con_un_altra_donna" data-name="Tradimento con 
un’altra donna" class="cls-24" transform="translate(53.086 2161)"><tspan x="0" y="9">Tradimento con </tspan><tspan x="0" y="21">un’altra donna</tspan></text>
      </g>
    </g>
  </g>
</svg>
