<svg xmlns="http://www.w3.org/2000/svg" xmlns:xlink="http://www.w3.org/1999/xlink" width="600" height="462" viewBox="0 0 600 462">
  <defs>
    <style>
      .cls-1 {
        clip-path: url(#clip-zoom_02);
      }

      .cls-14, .cls-2, .cls-22, .cls-8 {
        font-size: 10px;
      }

      .cls-2, .cls-8 {
        font-family: HKGrotesk-Regular, HK Grotesk;
      }

      .cls-10, .cls-15, .cls-16, .cls-18, .cls-20, .cls-23, .cls-3, .cls-5, .cls-6, .cls-9 {
        fill: none;
      }

      .cls-10, .cls-11, .cls-12, .cls-15, .cls-19, .cls-20, .cls-21, .cls-3 {
        stroke: #5151fc;
      }

      .cls-10, .cls-11, .cls-12, .cls-15, .cls-19, .cls-20, .cls-23, .cls-3, .cls-7, .cls-9 {
        stroke-miterlimit: 10;
      }

      .cls-3 {
        stroke-width: 0.137px;
        stroke-dasharray: 2;
      }

      .cls-17, .cls-4 {
        fill: #ccc;
        opacity: 0.2;
      }

      .cls-16, .cls-18, .cls-5, .cls-6, .cls-7 {
        stroke: #7f7f7f;
      }

      .cls-11, .cls-16, .cls-18, .cls-5, .cls-6, .cls-9 {
        stroke-width: 0.25px;
      }

      .cls-16, .cls-5 {
        opacity: 0.41;
      }

      .cls-6 {
        opacity: 0.5;
      }

      .cls-16, .cls-17, .cls-22, .cls-8 {
        isolation: isolate;
      }

      .cls-9 {
        stroke: #000;
        stroke-dasharray: 1;
      }

      .cls-10, .cls-23 {
        stroke-width: 0.5px;
      }

      .cls-11, .cls-12, .cls-19, .cls-21 {
        fill: #fff;
      }

      .cls-12 {
        stroke-width: 0.19px;
      }

      .cls-13, .cls-14, .cls-22 {
        fill: #5151fc;
      }

      .cls-14, .cls-22 {
        font-family: HKGrotesk-SemiBold, HK Grotesk;
        font-weight: 600;
      }

      .cls-15 {
        stroke-width: 0.188px;
        stroke-dasharray: 2.743;
      }

      .cls-19 {
        stroke-width: 0.19px;
      }

      .cls-20 {
        stroke-width: 0.232px;
      }

      .cls-21 {
        stroke-width: 0.215px;
      }

      .cls-23 {
        stroke: #f36;
      }

      .cls-24 {
        fill: #f36;
      }
    </style>
    <clipPath id="clip-zoom_02">
      <rect width="600" height="462"/>
    </clipPath>
  </defs>
  <g id="zoom_02" class="cls-1">
    <g id="Group_4811" data-name="Group 4811">
      <text id="i1" class="cls-2" transform="translate(3.619 72.679)"><tspan x="0" y="0">i1</tspan></text>
      <text id="t2" class="cls-2" transform="translate(166.539 72.679)"><tspan x="0" y="0">t2</tspan></text>
      <text id="i2" class="cls-2" transform="translate(359.789 72.679)"><tspan x="0" y="0">i2</tspan></text>
      <text id="t2-2" data-name="t2" class="cls-2" transform="translate(488.223 72.679)"><tspan x="0" y="0">t2</tspan></text>
      <line id="Line_187" data-name="Line 187" class="cls-3" y2="385.317" transform="translate(79.606 74.728)"/>
      <line id="Line_188" data-name="Line 188" class="cls-3" y2="385.317" transform="translate(3.222 74.728)"/>
      <rect id="Rectangle_157" data-name="Rectangle 157" class="cls-4" width="76.455" height="371.914" transform="translate(3.094 74.917)"/>
      <path id="Path_904" data-name="Path 904" class="cls-5" d="M158.76,219.05c.71,65.753,1.419,188.216,2.129,188.216" transform="translate(7.313 39.031)"/>
      <path id="Path_905" data-name="Path 905" class="cls-5" d="M160.611,408.383c1.128,0,2.257-147.359,3.386-196.771" transform="translate(7.591 37.913)"/>
      <path id="Path_906" data-name="Path 906" class="cls-5" d="M163.555,226.138c1.5-65.49,2.992-111.219,4.488-111.219" transform="translate(8.033 23.387)"/>
      <path id="Path_907" data-name="Path 907" class="cls-5" d="M167.457,114.919c1.717,0,3.435,154,5.152,154" transform="translate(8.62 23.387)"/>
      <path id="Path_908" data-name="Path 908" class="cls-5" d="M171.936,271.149c1.7,0,3.4-171.105,5.1-171.105" transform="translate(9.292 21.152)"/>
      <path id="Path_909" data-name="Path 909" class="cls-5" d="M179.671,271.149c-1.1,0-2.2-171.105-3.3-171.105" transform="translate(9.959 21.152)"/>
      <path id="Path_910" data-name="Path 910" class="cls-5" d="M179.24,263.327c3.029,0,6.058-111.218,9.087-111.218" transform="translate(10.39 28.974)"/>
      <path id="Path_911" data-name="Path 911" class="cls-5" d="M187.14,152.109q4.638,0,9.274,136.885" transform="translate(11.577 28.974)"/>
      <path id="Path_912" data-name="Path 912" class="cls-5" d="M197.563,408.383c.775,0,1.55-196.771,2.326-196.771" transform="translate(13.143 37.913)"/>
      <path id="Path_913" data-name="Path 913" class="cls-5" d="M199.585,211.612c.727,0,1.455,157.041,2.182,171.105" transform="translate(13.446 37.913)"/>
      <path id="Path_914" data-name="Path 914" class="cls-5" d="M195.2,271.115c.9,26.711,1.809,128.329,2.715,128.329" transform="translate(12.788 46.852)"/>
      <path id="Path_915" data-name="Path 915" class="cls-6" d="M16.868,360.473c2.375,0,4.749,25.665,7.123,25.665" transform="translate(-14.003 60.277)"/>
      <path id="Path_916" data-name="Path 916" class="cls-6" d="M23.061,386.138c.963,0,1.925-25.665,2.888-25.665" transform="translate(-13.073 60.277)"/>
      <path id="Path_917" data-name="Path 917" class="cls-6" d="M25.572,360.473c.885,0,1.77,25.665,2.655,25.665" transform="translate(-12.696 60.277)"/>
      <path id="Path_918" data-name="Path 918" class="cls-6" d="M27.88,401.782c1.036,0,2.073-145.44,3.108-145.44" transform="translate(-12.35 44.633)"/>
      <path id="Path_919" data-name="Path 919" class="cls-6" d="M30.582,256.342c1.473,0,2.948,22.533,4.421,42.777" transform="translate(-11.943 44.633)"/>
      <path id="Path_920" data-name="Path 920" class="cls-6" d="M34.426,293.532c1.824,25.054,3.647,102.663,5.472,102.663" transform="translate(-11.366 50.22)"/>
      <path id="Path_921" data-name="Path 921" class="cls-6" d="M39.183,402.9c2.074,0,4.147-121.092,6.22-154" transform="translate(-10.651 43.516)"/>
      <path id="Path_922" data-name="Path 922" class="cls-6" d="M44.591,254.491c1.536-24.363,3.07-42.776,4.606-42.776" transform="translate(-9.838 37.929)"/>
      <path id="Path_923" data-name="Path 923" class="cls-6" d="M48.6,211.715c1.067,0,2.136,85.553,3.2,85.553" transform="translate(-9.237 37.929)"/>
      <path id="Path_924" data-name="Path 924" class="cls-6" d="M51.38,307.325c1.224,0,2.447-162.551,3.669-162.551" transform="translate(-8.819 27.872)"/>
      <path id="Path_925" data-name="Path 925" class="cls-6" d="M54.57,144.774c.985,0,1.969,273.769,2.954,273.769" transform="translate(-8.339 27.872)"/>
      <path id="Path_926" data-name="Path 926" class="cls-6" d="M57.138,391.725c.971,0,1.942-32.123,2.912-68.442" transform="translate(-7.954 54.69)"/>
      <path id="Path_927" data-name="Path 927" class="cls-6" d="M59.67,342.279c.949-35.544,1.9-112.383,2.849-145.44" transform="translate(-7.573 35.694)"/>
      <path id="Path_928" data-name="Path 928" class="cls-6" d="M62.147,203.543c.83-28.9,1.661-51.331,2.491-51.331" transform="translate(-7.202 28.99)"/>
      <path id="Path_929" data-name="Path 929" class="cls-6" d="M64.313,152.212c.905,0,1.81,265.214,2.717,265.214" transform="translate(-6.876 28.99)"/>
      <path id="Path_930" data-name="Path 930" class="cls-6" d="M66.675,416.308c1.384,0,2.767-256.658,4.151-256.658" transform="translate(-6.521 30.107)"/>
      <path id="Path_931" data-name="Path 931" class="cls-6" d="M70.284,159.65c1.625,0,3.249,128.329,4.874,128.329" transform="translate(-5.979 30.107)"/>
      <path id="Path_932" data-name="Path 932" class="cls-6" d="M74.521,296.918c1.179,0,2.359-196.771,3.538-196.771" transform="translate(-5.342 21.168)"/>
      <path id="Path_933" data-name="Path 933" class="cls-6" d="M77.6,100.147c.883,0,1.767,154,2.65,154" transform="translate(-4.88 21.168)"/>
      <path id="Path_934" data-name="Path 934" class="cls-6" d="M79.9,245.2c.556,0,1.111-55.664,1.667-85.553" transform="translate(-4.534 30.107)"/>
      <path id="Path_935" data-name="Path 935" class="cls-6" d="M81.35,168.589c.411-22.067.821-68.442,1.231-68.442" transform="translate(-4.316 21.168)"/>
      <path id="Path_936" data-name="Path 936" class="cls-6" d="M82.42,100.147c.479,0,.956,92.622,1.433,136.885" transform="translate(-4.156 21.168)"/>
      <circle id="Ellipse_2" data-name="Ellipse 2" class="cls-7" cx="1.661" cy="1.661" r="1.661" transform="translate(1.226 419.167)"/>
      <path id="Path_1955" data-name="Path 1955" d="M.977,0A.977.977,0,1,1,0,.977.977.977,0,0,1,.977,0Z" transform="translate(78.709 256.246)"/>
      <circle id="Ellipse_5" data-name="Ellipse 5" cx="1.155" cy="1.155" r="1.155" transform="translate(170.159 248.37)"/>
      <circle id="Ellipse_7" data-name="Ellipse 7" cx="1.154" cy="1.154" r="1.154" transform="translate(174.654 137.126)"/>
      <circle id="Ellipse_8" data-name="Ellipse 8" cx="1.154" cy="1.154" r="1.154" transform="translate(179.923 291.058)"/>
      <circle id="Ellipse_9" data-name="Ellipse 9" cx="1.154" cy="1.154" r="1.154" transform="translate(185.055 120.023)"/>
      <circle id="Ellipse_10" data-name="Ellipse 10" cx="1.154" cy="1.154" r="1.154" transform="translate(77.047 120.023)"/>
      <circle id="Ellipse_11" data-name="Ellipse 11" cx="1.154" cy="1.154" r="1.154" transform="translate(71.686 120.023)"/>
      <circle id="Ellipse_12" data-name="Ellipse 12" cx="1.154" cy="1.154" r="1.154" transform="translate(63.117 188.726)"/>
      <circle id="Ellipse_13" data-name="Ellipse 13" cx="1.154" cy="1.154" r="1.154" transform="translate(53.714 231.648)"/>
      <circle id="Ellipse_14" data-name="Ellipse 14" cx="1.154" cy="1.154" r="1.154" transform="translate(41.384 333.572)"/>
      <circle id="Ellipse_15" data-name="Ellipse 15" cx="1.154" cy="1.154" r="1.154" transform="translate(21.993 346.328)"/>
      <circle id="Ellipse_16" data-name="Ellipse 16" cx="1.154" cy="1.154" r="1.154" transform="translate(74.275 273.933)"/>
      <circle id="Ellipse_17" data-name="Ellipse 17" cx="1.154" cy="1.154" r="1.154" transform="translate(38.115 248.906)"/>
      <circle id="Ellipse_18" data-name="Ellipse 18" cx="1.154" cy="1.154" r="1.154" transform="translate(17.558 300.149)"/>
      <circle id="Ellipse_20" data-name="Ellipse 20" cx="1.154" cy="1.154" r="1.154" transform="translate(11.722 419.772)"/>
      <circle id="Ellipse_25" data-name="Ellipse 25" cx="1.154" cy="1.154" r="1.154" transform="translate(45.196 171.469)"/>
      <circle id="Ellipse_26" data-name="Ellipse 26" cx="1.154" cy="1.154" r="1.154" transform="translate(188.526 291.058)"/>
      <circle id="Ellipse_28" data-name="Ellipse 28" cx="1.154" cy="1.154" r="1.154" transform="translate(214.117 418.966)"/>
      <circle id="Ellipse_29" data-name="Ellipse 29" cx="1.154" cy="1.154" r="1.154" transform="translate(211.836 248.3)"/>
      <g id="labels" transform="translate(0 13)">
        <text id="incontro_femminile" data-name="incontro femminile" class="cls-2" transform="translate(58.533 158.893) rotate(-51.389)"><tspan x="0" y="0">incontro femminile</tspan></text>
        <text id="incontro_femminile-2" data-name="incontro femminile" class="cls-2" transform="translate(198.533 158.893) rotate(-51.389)"><tspan x="0" y="0">incontro femminile</tspan></text>
        <text id="illusione_speranza" data-name="illusione/speranza" class="cls-2" transform="translate(211.541 291.62) rotate(-51.389)"><tspan x="0" y="0">illusione/speranza</tspan></text>
        <text id="illusione_speranza-2" data-name="illusione/speranza" class="cls-2" transform="translate(67.541 291.62) rotate(-51.389)"><tspan x="0" y="0">illusione/speranza</tspan></text>
        <text id="incontro_maschile" data-name="incontro maschile" class="cls-8" transform="matrix(0.624, -0.781, 0.781, 0.624, 328.225, 245.316)"><tspan x="0" y="0">incontro maschile</tspan></text>
        <text id="incontro_maschile-2" data-name="incontro maschile" class="cls-8" transform="matrix(0.624, -0.781, 0.781, 0.624, 477.225, 245.316)"><tspan x="0" y="0">incontro maschile</tspan></text>
        <text id="aggressione_scontro" data-name="aggressione/scontro" class="cls-8" transform="matrix(0.624, -0.781, 0.781, 0.624, 338.906, 166.519)"><tspan x="0" y="0">aggressione/scontro</tspan></text>
        <text id="angoscia_delusione" data-name="angoscia/delusione" class="cls-8" transform="matrix(0.624, -0.781, 0.781, 0.624, 332.918, 392.799)"><tspan x="0" y="0">angoscia/delusione</tspan></text>
        <text id="smarrimento_dubbio" data-name="smarrimento/dubbio" class="cls-8" transform="matrix(0.624, -0.781, 0.781, 0.624, 484.061, 410.474)"><tspan x="0" y="0">smarrimento/dubbio</tspan></text>
      </g>
      <path id="Path_954" data-name="Path 954" class="cls-9" d="M64.266,151.728" transform="translate(-6.883 28.917)"/>
      <path id="Path_955" data-name="Path 955" class="cls-9" d="M65.433,118.4" transform="translate(-6.708 23.909)"/>
      <path id="Path_957" data-name="Path 957" class="cls-10" d="M74.465,275.614c17.633-20.031,42.853-32.571,70.858-32.571,26.657,0,50.79,11.362,68.258,29.732" transform="translate(-5.351 38.71)"/>
      <rect id="Rectangle_159" data-name="Rectangle 159" class="cls-11" width="53.237" height="13.002" rx="3" transform="translate(206.054 174.751)"/>
      <path id="Path_958" data-name="Path 958" class="cls-10" d="M63.608,156.292a98.376,98.376,0,0,1,141.773-2.751" transform="translate(-9.969 24.86)"/>
      <circle id="Ellipse_59" data-name="Ellipse 59" class="cls-12" cx="5.706" cy="5.706" r="5.706" transform="translate(192.986 175.618)"/>
      <circle id="Ellipse_60" data-name="Ellipse 60" class="cls-13" cx="2.3" cy="2.3" r="2.3" transform="translate(196.393 179.024)"/>
      <circle id="Ellipse_61" data-name="Ellipse 61" class="cls-12" cx="5.706" cy="5.706" r="5.706" transform="translate(50.92 175.485)"/>
      <circle id="Ellipse_62" data-name="Ellipse 62" class="cls-13" cx="2.3" cy="2.3" r="2.3" transform="translate(54.382 178.782)"/>
      <circle id="Ellipse_327" data-name="Ellipse 327" class="cls-7" cx="1.661" cy="1.661" r="1.661" transform="translate(77.888 255.887)"/>
      <text id="LUDMILLA" class="cls-14" transform="translate(208.495 184.837)"><tspan x="0" y="0">LUDMILLA</tspan></text>
      <circle id="Ellipse_326" data-name="Ellipse 326" class="cls-12" cx="5.706" cy="5.706" r="5.706" transform="translate(201.605 306.727)"/>
      <circle id="Ellipse_55" data-name="Ellipse 55" class="cls-13" cx="2.3" cy="2.3" r="2.3" transform="translate(205.09 310.212)"/>
      <circle id="Ellipse_326-2" data-name="Ellipse 326" class="cls-12" cx="5.706" cy="5.706" r="5.706" transform="translate(63.216 309.727)"/>
      <circle id="Ellipse_55-2" data-name="Ellipse 55" class="cls-13" cx="2.3" cy="2.3" r="2.3" transform="translate(66.701 313.212)"/>
      <text id="Incontro_maschile_gelosia" data-name="Incontro maschile, gelosia" class="cls-2" transform="translate(356.966 11)"><tspan x="0" y="0">Incontro maschile, gelosia</tspan></text>
      <text id="SQUILIBRIO_Il_lettore_è_più_timido_del_personaggio" data-name="SQUILIBRIO
Il lettore è più timido del personaggio" class="cls-2" transform="translate(356.604 36)"><tspan x="0" y="0">SQUILIBRIO</tspan><tspan x="0" y="12">Il lettore è più timido del personaggio</tspan></text>
      <text id="Incontro_con_una_donna_interesse_sentimentale" data-name="Incontro con una donna, interesse sentimentale" class="cls-2" transform="translate(0.344 11)"><tspan x="0" y="0">Incontro con una donna, interesse sentimentale</tspan></text>
      <text id="EQUILIBRIO" class="cls-2" transform="translate(-0.019 36)"><tspan x="0" y="0">EQUILIBRIO</tspan></text>
      <line id="Line_1436" data-name="Line 1436" class="cls-15" y2="386.449" transform="translate(359.75 74.728)"/>
      <line id="Line_1437" data-name="Line 1437" class="cls-15" y2="386.449" transform="translate(400.872 74.728)"/>
      <path id="Path_116491" data-name="Path 116491" class="cls-16" d="M480.5,451.686q1.329,25.666,2.656,25.666" transform="translate(-120.919 -30.455)"/>
      <path id="Path_116492" data-name="Path 116492" class="cls-16" d="M483.166,476.3c.6,0,1.2-258.2,1.807-265.214" transform="translate(-120.93 -29.399)"/>
      <path id="Path_116493" data-name="Path 116493" class="cls-16" d="M484.981,211.043q.735-8.556,1.47-8.555" transform="translate(-120.938 -29.362)"/>
      <path id="Path_116494" data-name="Path 116494" class="cls-16" d="M486.458,202.489c.927,0,1.854,273.769,2.782,273.769" transform="translate(-120.945 -29.362)"/>
      <path id="Path_116495" data-name="Path 116495" class="cls-16" d="M489.251,476.975c1.342,0,2.688-111.218,4.029-111.218" transform="translate(-120.957 -30.078)"/>
      <path id="Path_116496" data-name="Path 116496" class="cls-16" d="M493.3,365.756c1.294,0,2.595,111.218,3.893,111.218" transform="translate(-120.975 -30.078)"/>
      <path id="Path_116497" data-name="Path 116497" class="cls-16" d="M497.208,476.334c1.195,0,2.389-256.659,3.584-256.659" transform="translate(-120.992 -29.437)"/>
      <path id="Path_116498" data-name="Path 116498" class="cls-16" d="M500.813,219.675c.856,0,1.712,145.44,2.57,145.44" transform="translate(-121.008 -29.437)"/>
      <path id="Path_116499" data-name="Path 116499" class="cls-16" d="M503.393,364.894c1.187,0,2.376-196.773,3.562-196.773" transform="translate(-121.019 -29.211)"/>
      <path id="Path_116500" data-name="Path 116500" class="cls-16" d="M506.971,168.117c1.1,0,2.19,307.99,3.286,307.99" transform="translate(-121.035 -29.211)"/>
      <path id="Path_116501" data-name="Path 116501" class="cls-16" d="M510.271,476.975c.835,0,1.669-111.218,2.5-111.218" transform="translate(-121.049 -30.078)"/>
      <path id="Path_116502" data-name="Path 116502" class="cls-16" d="M512.786,365.756c1.775,0,3.55,8.554,5.326,8.554" transform="translate(-121.061 -30.078)"/>
      <path id="Path_116503" data-name="Path 116503" class="cls-16" d="M518.135,374.046c1.306,0,2.615-68.442,3.921-68.442" transform="translate(-121.084 -29.814)"/>
      <rect id="Rectangle_13540" data-name="Rectangle 13540" class="cls-17" width="41.349" height="370.916" transform="translate(359.637 75.4)"/>
      <path id="Path_116504" data-name="Path 116504" class="cls-18" d="M612.892,306.19c1,0,1.991,171.1,2.987,171.1" transform="translate(-121.5 -29.817)"/>
      <path id="Path_116505" data-name="Path 116505" class="cls-18" d="M615.891,476.617c1.171,0,2.343-325.1,3.516-325.1" transform="translate(-121.513 -29.138)"/>
      <path id="Path_116506" data-name="Path 116506" class="cls-18" d="M619.421,151.516c.74,0,1.479,222.437,2.219,222.437" transform="translate(-121.528 -29.138)"/>
      <path id="Path_116507" data-name="Path 116507" class="cls-18" d="M621.65,374.595c.9,0,1.792-71.485,2.688-77" transform="translate(-121.538 -29.779)"/>
      <path id="Path_116508" data-name="Path 116508" class="cls-18" d="M624.352,297.488q4.181-25.666,8.357-25.666" transform="translate(-121.55 -29.666)"/>
      <path id="Path_116509" data-name="Path 116509" class="cls-18" d="M632.747,271.818c2.513,0,5.028,51.332,7.541,51.332" transform="translate(-121.587 -29.666)"/>
      <path id="Path_116510" data-name="Path 116510" class="cls-18" d="M640.321,323.187c.99,0,1.978-42.776,2.968-42.776" transform="translate(-121.62 -29.704)"/>
      <path id="Path_116511" data-name="Path 116511" class="cls-18" d="M643.3,280.411c.889,0,1.778,196.772,2.667,196.772" transform="translate(-121.633 -29.704)"/>
      <path id="Path_116512" data-name="Path 116512" class="cls-18" d="M645.981,477.6c.262,0,.526-83.086.789-102.662" transform="translate(-121.645 -30.119)"/>
      <path id="Path_116513" data-name="Path 116513" class="cls-18" d="M646.773,374.255q2.071-154,4.141-154" transform="translate(-121.648 -29.44)"/>
      <path id="Path_116514" data-name="Path 116514" class="cls-18" d="M650.933,220.26c1.564,0,3.128,154,4.691,154" transform="translate(-121.667 -29.44)"/>
      <path id="Path_116515" data-name="Path 116515" class="cls-18" d="M655.645,374.255c3.258,0,6.515-154,9.772-154" transform="translate(-121.688 -29.44)"/>
      <path id="Path_116516" data-name="Path 116516" class="cls-18" d="M665.46,220.26c3.51,0,7.021,77,10.532,77" transform="translate(-121.73 -29.44)"/>
      <path id="Path_116517" data-name="Path 116517" class="cls-18" d="M676.038,297.522c.789,0,1.577-17.111,2.366-17.111" transform="translate(-121.777 -29.704)"/>
      <path id="Path_116518" data-name="Path 116518" class="cls-18" d="M678.415,280.411c1.148,0,2.3,111.218,3.445,111.218" transform="translate(-121.787 -29.704)"/>
      <circle id="Ellipse_327-2" data-name="Ellipse 327" cx="1.154" cy="1.154" r="1.154" transform="translate(361.084 445.254)"/>
      <circle id="Ellipse_328" data-name="Ellipse 328" cx="1.154" cy="1.154" r="1.154" transform="translate(366.98 445.254)"/>
      <circle id="Ellipse_329" data-name="Ellipse 329" cx="1.154" cy="1.154" r="1.154" transform="translate(375.087 445.254)"/>
      <circle id="Ellipse_330" data-name="Ellipse 330" cx="1.154" cy="1.154" r="1.154" transform="translate(388.078 445.254)"/>
      <circle id="Ellipse_331" data-name="Ellipse 331" cx="1.154" cy="1.154" r="1.154" transform="translate(493.291 445.254)"/>
      <circle id="Ellipse_332" data-name="Ellipse 332" cx="1.154" cy="1.154" r="1.154" transform="translate(523.294 445.254)"/>
      <circle id="Ellipse_333" data-name="Ellipse 333" cx="1.154" cy="1.154" r="1.154" transform="translate(395.74 342.801)"/>
      <circle id="Ellipse_334" data-name="Ellipse 334" cx="1.154" cy="1.154" r="1.154" transform="translate(499.245 342.801)"/>
      <circle id="Ellipse_335" data-name="Ellipse 335" cx="1.154" cy="1.154" r="1.154" transform="translate(532.898 342.801)"/>
      <circle id="Ellipse_336" data-name="Ellipse 336" cx="1.154" cy="1.154" r="1.154" transform="translate(558.976 359.378)"/>
      <circle id="Ellipse_337" data-name="Ellipse 337" cx="1.154" cy="1.154" r="1.154" transform="translate(555.45 249.712)"/>
      <circle id="Ellipse_338" data-name="Ellipse 338" cx="1.154" cy="1.154" r="1.154" transform="translate(520.299 249.388)"/>
      <circle id="Ellipse_339" data-name="Ellipse 339" cx="1.154" cy="1.154" r="1.154" transform="translate(510.038 240.081)"/>
      <circle id="Ellipse_340" data-name="Ellipse 340" cx="1.154" cy="1.154" r="1.154" transform="translate(501.686 266.57)"/>
      <circle id="Ellipse_341" data-name="Ellipse 341" cx="1.154" cy="1.154" r="1.154" transform="translate(553 266.317)"/>
      <circle id="Ellipse_342" data-name="Ellipse 342" cx="1.154" cy="1.154" r="1.154" transform="translate(399.584 274.565)"/>
      <circle id="Ellipse_343" data-name="Ellipse 343" cx="1.154" cy="1.154" r="1.154" transform="translate(517.484 290.792)"/>
      <circle id="Ellipse_344" data-name="Ellipse 344" cx="1.154" cy="1.154" r="1.154" transform="translate(390.888 334.628)"/>
      <circle id="Ellipse_345" data-name="Ellipse 345" cx="1.154" cy="1.154" r="1.154" transform="translate(371.093 334.628)"/>
      <circle id="Ellipse_346" data-name="Ellipse 346" cx="1.154" cy="1.154" r="1.154" transform="translate(362.678 180.616)"/>
      <circle id="Ellipse_347" data-name="Ellipse 347" cx="1.154" cy="1.154" r="1.154" transform="translate(364.38 171.996)"/>
      <circle id="Ellipse_348" data-name="Ellipse 348" cx="1.154" cy="1.154" r="1.154" transform="translate(496.798 120.922)"/>
      <circle id="Ellipse_349" data-name="Ellipse 349" cx="1.154" cy="1.154" r="1.154" transform="translate(378.679 189.081)"/>
      <circle id="Ellipse_350" data-name="Ellipse 350" cx="1.154" cy="1.154" r="1.154" transform="translate(381.128 334.628)"/>
      <circle id="Ellipse_351" data-name="Ellipse 351" class="cls-19" cx="5.707" cy="5.707" r="5.707" transform="translate(373.688 184.375)"/>
      <circle id="Ellipse_352" data-name="Ellipse 352" class="cls-13" cx="2.3" cy="2.3" r="2.3" transform="translate(377.093 187.78)"/>
      <path id="Path_116519" data-name="Path 116519" class="cls-10" d="M500.32,219.721a106.729,106.729,0,0,1,149.769-2.8" transform="translate(-121.006 -29.297)"/>
      <path id="Path_116520" data-name="Path 116520" class="cls-10" d="M506.749,167.3c152.137,0,25.017,206.447,149.808,206.447" transform="translate(-121.034 -29.207)"/>
      <circle id="Ellipse_353" data-name="Ellipse 353" class="cls-19" cx="5.707" cy="5.707" r="5.707" transform="translate(380.302 132.558)"/>
      <circle id="Ellipse_354" data-name="Ellipse 354" class="cls-13" cx="2.3" cy="2.3" r="2.3" transform="translate(383.709 135.964)"/>
      <circle id="Ellipse_324" data-name="Ellipse 324" class="cls-19" cx="5.707" cy="5.707" r="5.707" transform="translate(529.486 338.675)"/>
      <circle id="Ellipse_325" data-name="Ellipse 325" class="cls-13" cx="2.3" cy="2.3" r="2.3" transform="translate(532.971 342.16)"/>
      <circle id="Ellipse_355" data-name="Ellipse 355" cx="1.154" cy="1.154" r="1.154" transform="translate(542.507 189.975)"/>
      <path id="Path_952" data-name="Path 952" class="cls-20" d="M673.481,189.73h0a22.2,22.2,0,0,0-22.2,22.2v1.748" transform="translate(-121.668 -29.306)"/>
      <circle id="Ellipse_65" data-name="Ellipse 65" class="cls-19" cx="5.707" cy="5.707" r="5.707" transform="translate(524.031 184.375)"/>
      <circle id="Ellipse_66" data-name="Ellipse 66" class="cls-13" cx="2.3" cy="2.3" r="2.3" transform="translate(527.437 187.781)"/>
      <path id="Rectangle_160" data-name="Rectangle 160" class="cls-21" d="M2,0H45.959a2,2,0,0,1,2,2v9a2,2,0,0,1-2,2H2a2,2,0,0,1-2-2V2A2,2,0,0,1,2,0Z" transform="translate(551.042 153.072)"/>
      <text id="IRNERIO" class="cls-22" transform="translate(555.287 163.159)"><tspan x="0" y="0">IRNERIO</tspan></text>
      <line id="Line_1438" data-name="Line 1438" class="cls-23" x2="0.02" y2="0.995" transform="translate(379.59 190.235)"/>
      <path id="Path_116524" data-name="Path 116524" class="cls-24" d="M503.288,363.148l-.041-1.978.5-.01.041,1.979Zm-.062-2.968-.041-1.978.5-.01.041,1.978Zm-.061-2.968-.04-1.979.5-.009.04,1.978Zm-.061-2.968-.041-1.978.5-.01.041,1.978Zm-.061-2.968L503,349.3l.5-.009.04,1.978Zm-.061-2.969-.041-1.978.5-.01.041,1.978Zm-.061-2.967-.04-1.98.5-.009.04,1.979Zm-.061-2.969-.041-1.978.5-.01.041,1.979ZM502.8,339.4l-.041-1.978.5-.01.041,1.978Zm-.061-2.968-.041-1.979.5-.01.041,1.98Zm-.062-2.968-.041-1.978.5-.01.041,1.978Zm-.06-2.969-.041-1.978.5-.01.041,1.979Zm-.062-2.968-.041-1.978.5-.01.041,1.978Zm-.061-2.967-.04-1.979.5-.009.04,1.978Zm-.061-2.969-.041-1.978.5-.01.041,1.978Zm-.061-2.968-.04-1.979.5-.009.04,1.978Zm-.061-2.968-.041-1.979.5-.01.041,1.979Zm-.061-2.968-.04-1.979.5-.009.04,1.978Zm-.061-2.969-.041-1.978.5-.01.041,1.979Zm-.061-2.968-.041-1.978.5-.01.041,1.978Zm-.061-2.968-.041-1.978.5-.01.041,1.979Zm-.061-2.968-.041-1.978.5-.01.041,1.978Zm-.062-2.968-.04-1.979.5-.01.04,1.979Zm-.06-2.968-.042-1.978.5-.011.042,1.978Zm-.062-2.968-.04-1.979.5-.009.04,1.978Zm-.061-2.968-.041-1.979.5-.01.041,1.978Zm-.061-2.969-.04-1.978.5-.01.04,1.978Zm-.061-2.967-.041-1.979.5-.011.041,1.979Zm-.061-2.969-.041-1.978.5-.011.041,1.979Zm-.061-2.968-.041-1.978.5-.011.041,1.979Zm-.061-2.968-.041-1.978.5-.011.041,1.978Zm-.061-2.968-.041-1.978.5-.011.041,1.978Zm-.061-2.968-.041-1.979.5-.011.041,1.979Zm-.062-2.969-.04-1.978.5-.01.04,1.978Zm-.06-2.967-.041-1.979.5-.011.041,1.979Zm-.062-2.969-.04-1.979.5-.009.04,1.978Zm-.06-2.968-.041-1.978.5-.011.041,1.978Zm-.062-2.969-.04-1.978.5-.01.04,1.978Zm-.061-2.967-.041-1.979.5-.01.041,1.978Zm-.061-2.968-.041-1.979.5-.011.041,1.979Zm-.061-2.969-.041-1.978.5-.011.041,1.979Zm-.061-2.968-.041-1.978.5-.011.041,1.979Zm-.062-2.969-.04-1.978.5-.01.04,1.979Zm-.06-2.967-.041-1.978.5-.011.041,1.978Zm-.062-2.968-.04-1.979.5-.01.04,1.979Zm-.06-2.968-.041-1.979.5-.01.041,1.978Zm-.062-2.969-.04-1.979.5-.009.04,1.978Zm-.06-2.968-.041-1.978.5-.011.041,1.978Z" transform="translate(-121.006 -29.446)"/>
      <path id="Path_116525" data-name="Path 116525" class="cls-23" d="M503.571,364.761l.02,1,.018-1" transform="translate(-121.02 -30.074)"/>
      <path id="Path_116526" data-name="Path 116526" class="cls-24" d="M503.876,362.923l-.5-.01.036-1.982.5.009Zm.054-2.974-.5-.01.036-1.981.5.01Zm.054-2.973-.5-.01.036-1.981.5.01Zm.054-2.973-.5-.01.036-1.981.5.009Zm.054-2.973-.5-.01.036-1.982.5.01Zm.054-2.973-.5-.01.037-1.982.5.01Zm.054-2.973-.5-.01.036-1.982.5.009Zm.055-2.974-.5-.01.035-1.982.5.01Zm.054-2.973-.5-.01.036-1.982.5.01Zm.053-2.973-.5-.01.036-1.981.5.009Zm.055-2.974-.5-.01.035-1.981.5.01Zm.054-2.973-.5-.01.036-1.981.5.01Zm.053-2.972-.5-.01.036-1.982.5.009Zm.055-2.974-.5-.01.036-1.982.5.01Zm.054-2.973-.5-.01.036-1.982.5.01Zm.053-2.973-.5-.01.037-1.982.5.009Zm.055-2.974-.5-.01.036-1.981.5.01Zm.054-2.973-.5-.01.036-1.981.5.01Zm.054-2.973-.5-.01.036-1.981.5.009Zm.054-2.973-.5-.01.036-1.982.5.01Zm.054-2.973-.5-.01.036-1.982.5.01Zm.055-2.973-.5-.01.035-1.982.5.009Zm.053-2.974-.5-.009.037-1.982.5.009Zm.054-2.974-.5-.008.036-1.982.5.009Zm.055-2.973-.5-.009.035-1.981.5.008Zm.053-2.973-.5-.009.037-1.981.5.009Zm.054-2.973-.5-.009.036-1.982.5.009Zm.055-2.973-.5-.009.036-1.982.5.009Zm.054-2.973-.5-.009.036-1.982.5.009Zm.053-2.974-.5-.008.036-1.982.5.009Zm.055-2.973-.5-.009.036-1.981.5.008Zm.054-2.973-.5-.009.036-1.982.5.009Zm.053-2.973-.5-.009.037-1.982.5.009Zm.055-2.973-.5-.009.036-1.982.5.009Zm.054-2.974-.5-.009.036-1.981.5.009Zm.055-2.973-.5-.008.035-1.983.5.009Zm.053-2.973-.5-.009.036-1.981.5.008Zm.054-2.973-.5-.009.036-1.982.5.009Zm.055-2.974-.5-.008.035-1.982.5.009Zm.053-2.972-.5-.009.036-1.982.5.009Zm.054-2.974-.5-.009.036-1.981.5.009Zm.055-2.973-.5-.009.036-1.982.5.009Zm.053-2.973-.5-.009.037-1.982.5.009Zm.054-2.973-.5-.009.036-1.982.5.009Zm.055-2.974-.5-.008.036-1.982.5.009Zm.054-2.973-.5-.009.036-1.981.5.008Zm.053-2.973-.5-.009.036-1.981.5.009Zm.055-2.973-.5-.009.036-1.982.5.009Zm.054-2.973-.5-.009.036-1.982.5.009Zm.054-2.973-.5-.009.035-1.982.5.009Zm.054-2.974-.5-.008.036-1.982.5.009Zm.054-2.973-.5-.009.036-1.981.5.008Zm.054-2.973-.5-.009.036-1.982.5.009Zm.054-2.973-.5-.009.036-1.982.5.009Zm.054-2.973-.5-.009.036-1.982.5.009Zm.055-2.974-.5-.008.036-1.982.5.009Zm.053-2.973-.5-.008.036-1.983.5.009Zm.054-2.973-.5-.009.036-1.981.5.008Zm.055-2.973-.5-.009.036-1.982.5.009Zm.053-2.974-.5-.008.037-1.982.5.009Zm.054-2.972-.5-.009.036-1.982.5.009Zm.055-2.974-.5-.008.036-1.982.5.009Zm.053-2.973-.5-.009.037-1.982.5.009Zm.055-2.973-.5-.009.035-1.982.5.009Zm.054-2.973-.5-.009.036-1.982.5.009Z" transform="translate(-121.019 -29.222)"/>
      <line id="Line_1439" data-name="Line 1439" class="cls-23" y1="0.995" x2="0.018" transform="translate(386.105 139.45)"/>
      <path id="Path_116527" data-name="Path 116527" class="cls-24" d="M509.156,170.347l-.371.333-1.638-1.828-1.7,1.767-.358-.346,2.075-2.152Z" transform="translate(-121.027 -29.211)"/>
      <line id="Line_1440" data-name="Line 1440" class="cls-23" x2="0.039" y2="0.995" transform="translate(530.198 190.82)"/>
      <path id="Path_116528" data-name="Path 116528" class="cls-24" d="M657.46,370.882l-.077-2,.5-.019.077,2Zm-.115-2.993-.078-1.994.5-.019.078,1.994Zm-.116-2.992-.077-2,.5-.019.077,2Zm-.116-2.992-.078-1.994.5-.02.078,1.994ZM657,358.914l-.079-2,.5-.02.079,2Zm-.118-2.993-.077-1.994.5-.02.077,1.994Zm-.115-2.992-.078-2,.5-.02.078,2Zm-.115-2.993-.078-1.994.5-.019.078,1.993Zm-.117-2.992-.077-2,.5-.019.077,2Zm-.115-2.993-.079-1.994.5-.019.079,1.994Zm-.116-2.992-.078-2,.5-.019.078,2Zm-.117-2.992-.077-1.994.5-.02.077,1.994Zm-.115-2.992-.078-2,.5-.02.078,2Zm-.117-2.993-.077-1.994.5-.02.077,1.994Zm-.115-2.992-.078-2,.5-.02.078,2ZM655.719,326,655.642,324l.5-.019.078,1.994Zm-.117-2.992-.077-2,.5-.019.077,2Zm-.115-2.993-.078-1.994.5-.019.078,1.994Zm-.116-2.992-.078-1.994.5-.02.078,2Zm-.117-2.992-.078-1.994.5-.02.078,1.994Zm-.116-2.992-.078-2,.5-.02.078,2Zm-.115-2.993-.078-1.994.5-.02.078,1.994Zm-.117-2.992-.077-2,.5-.019.077,1.994Zm-.115-2.993-.078-1.994.5-.019.078,1.994Zm-.117-2.992-.078-2,.5-.019.078,2Zm-.116-2.992-.077-2,.5-.02.077,2Zm-.115-2.993-.078-1.994.5-.02.078,2Zm-.117-2.992-.077-1.994.5-.02.077,2Zm-.115-2.992-.077-2,.5-.019.077,1.994Zm-.117-2.993-.078-1.994.5-.02.078,2Zm-.116-2.992-.077-1.994.5-.02.077,1.994Zm-.115-2.992-.078-2,.5-.019.078,1.994Zm-.116-2.993-.078-1.994.5-.02.078,2Zm-.116-2.992-.077-2,.5-.019.077,1.994Zm-.117-2.993-.078-1.994.5-.019.078,1.994Zm-.115-2.992-.078-1.994.5-.02.078,2Zm-.116-2.992-.077-2,.5-.019.077,1.994Zm-.116-2.993-.078-1.994.5-.02.078,2Zm-.115-2.992-.078-1.994.5-.02.078,1.994Zm-.117-2.992-.077-2,.5-.019.077,1.994Zm-.116-2.993-.078-1.994.5-.02.078,2ZM652.7,248.2l-.077-2,.5-.019.077,1.994Zm-.115-2.992-.077-2,.5-.019.077,1.994Zm-.116-2.993-.078-1.994.5-.02.078,2Zm-.117-2.992-.077-2,.5-.019.077,1.994Zm-.116-2.993-.078-1.994.5-.02.078,2Zm-.115-2.992-.078-1.994.5-.02.078,2Zm-.117-2.992-.077-2,.5-.019.077,1.994Zm-.116-2.993-.079-1.994.5-.02.079,2Zm-.116-2.992-.078-1.994.5-.02.078,1.994Z" transform="translate(-121.67 -29.448)"/>
      <line id="Line_1441" data-name="Line 1441" class="cls-23" x2="0.039" y2="0.995" transform="translate(536.078 342.421)"/>
      <path id="Path_116529" data-name="Path 116529" class="cls-24" d="M655.706,371.95l.351-.353,1.739,1.732,1.6-1.861.378.325-1.95,2.267Z" transform="translate(-121.688 -30.103)"/>
      <circle id="Ellipse_328-2" data-name="Ellipse 328" class="cls-7" cx="1.661" cy="1.661" r="1.661" transform="translate(357.655 419.167)"/>
      <circle id="Ellipse_329-2" data-name="Ellipse 329" class="cls-7" cx="1.661" cy="1.661" r="1.661" transform="translate(399.47 273.808)"/>
      <circle id="Ellipse_337-2" data-name="Ellipse 337" class="cls-7" cx="1.661" cy="1.661" r="1.661" transform="translate(164.888 255.887)"/>
      <circle id="Ellipse_338-2" data-name="Ellipse 338" class="cls-7" cx="1.661" cy="1.661" r="1.661" transform="translate(213.888 417.887)"/>
    </g>
  </g>
</svg>
