<svg xmlns="http://www.w3.org/2000/svg" xmlns:xlink="http://www.w3.org/1999/xlink" width="600" height="472" viewBox="0 0 600 472"><defs><clipPath id="b"><rect width="600" height="472"/></clipPath></defs><g id="a" clip-path="url(#b)"><g transform="translate(-49 -2139)"><g transform="translate(51.984 2214.814)"><line x2="0.101" y2="379.974" transform="translate(71.931 0.211)" fill="none" stroke="#5151fc" stroke-miterlimit="10" stroke-width="0.147" stroke-dasharray="2.149"/><line x2="0.101" y2="379.974" transform="translate(0 0.211)" fill="none" stroke="#5151fc" stroke-miterlimit="10" stroke-width="0.147" stroke-dasharray="2.149"/><rect width="71.854" height="367.767" transform="translate(0.123)" fill="#ccc" opacity="0.2"/><line x2="0.08" y2="379.974" transform="translate(243.339 0.211)" fill="none" stroke="#5151fc" stroke-miterlimit="10" stroke-width="0.132" stroke-dasharray="1.922"/><line x2="0.08" y2="379.974" transform="translate(185.801 0.211)" fill="none" stroke="#5151fc" stroke-miterlimit="10" stroke-width="0.132" stroke-dasharray="1.922"/><rect width="57.477" height="367.767" transform="translate(185.9)" fill="#ccc" opacity="0.2"/></g><g transform="translate(52.562 2219.965)"><g transform="translate(0 9.25)"><path d="M4.24-509.074c2.09,0,4.181-112.235,6.271-112.235" transform="translate(-4.24 836.426)" fill="none" stroke="#7f7f7f" stroke-width="0.707" opacity="0.4"/><path d="M10.474-621.309c1.41,0,2.821,18.706,4.231,18.706" transform="translate(-4.203 836.426)" fill="none" stroke="#7f7f7f" stroke-width="0.707" opacity="0.4"/><path d="M14.68-602.6q4.551,0,9.1-18.706" transform="translate(-4.178 836.426)" fill="none" stroke="#7f7f7f" stroke-width="0.707" opacity="0.4"/><path d="M23.73-620.42c2.95-12.12,5.9-116.272,8.849-149.647" transform="translate(-4.123 835.537)" fill="none" stroke="#7f7f7f" stroke-width="0.707" opacity="0.4"/><path d="M32.526-769.845c1.46-16.51,2.918-37.411,4.377-37.411" transform="translate(-4.071 835.315)" fill="none" stroke="#7f7f7f" stroke-width="0.707" opacity="0.4"/><path d="M36.877-807.256c1.954,0,3.906,205.765,5.859,205.765" transform="translate(-4.045 835.315)" fill="none" stroke="#7f7f7f" stroke-width="0.707" opacity="0.4"/><path d="M42.7-602.325c1.867,0,3.734-65.471,5.6-65.471" transform="translate(-4.01 836.148)" fill="none" stroke="#7f7f7f" stroke-width="0.707" opacity="0.4"/><path d="M48.269-667.8c.8,0,1.6,93.53,2.4,93.53" transform="translate(-3.977 836.148)" fill="none" stroke="#7f7f7f" stroke-width="0.707" opacity="0.4"/><path d="M50.653-574.377c.89,0,1.781-43.774,2.672-74.824" transform="translate(-3.963 836.26)" fill="none" stroke="#7f7f7f" stroke-width="0.707" opacity="0.4"/><path d="M53.309-648.534C54.2-679.766,55.1-754.974,56-760.769" transform="translate(-3.947 835.593)" fill="none" stroke="#7f7f7f" stroke-width="0.707" opacity="0.4"/><path d="M55.98-760.713c.964-6.236,1.927-4.008,2.891-9.354" transform="translate(-3.931 835.537)" fill="none" stroke="#7f7f7f" stroke-width="0.707" opacity="0.4"/><path d="M58.854-769.789c1.643-9.113,3.286-46.764,4.929-46.764" transform="translate(-3.914 835.259)" fill="none" stroke="#7f7f7f" stroke-width="0.707" opacity="0.4"/><path d="M63.754-816.553c3.447,0,6.9,93.529,10.343,93.529" transform="translate(-3.884 835.259)" fill="none" stroke="#7f7f7f" stroke-width="0.707" opacity="0.4"/><path d="M74.036-722.913c2.633,0,5.265-112.235,7.9-112.235" transform="translate(-3.823 835.148)" fill="none" stroke="#7f7f7f" stroke-width="0.707" opacity="0.4"/></g><g transform="translate(184.804)" opacity="0.5"><path d="M187.946-844.343c1.18,0,2.36,173.885,3.54,196.412" transform="translate(-187.946 844.343)" fill="none" stroke="#7f7f7f" stroke-width="0.5"/><path d="M191.465-649.1c.327,6.235.654,4.772.98,9.353" transform="translate(-187.925 845.51)" fill="none" stroke="#7f7f7f" stroke-width="0.5"/><path d="M192.439-639.8c.85,11.919,1.7,65.47,2.55,65.47" transform="translate(-187.919 845.566)" fill="none" stroke="#7f7f7f" stroke-width="0.5"/><path d="M194.974-574.275c1.133,0,2.266-74.823,3.4-74.823" transform="translate(-187.904 845.51)" fill="none" stroke="#7f7f7f" stroke-width="0.5"/><path d="M198.353-649.1c1.46,0,2.919,46.764,4.379,46.764" transform="translate(-187.884 845.51)" fill="none" stroke="#7f7f7f" stroke-width="0.5"/><path d="M202.706-602.39c1.223,0,2.447-28.512,3.669-37.411" transform="translate(-187.858 845.566)" fill="none" stroke="#7f7f7f" stroke-width="0.5"/><path d="M206.353-639.745c.516-3.753,1.032-9.353,1.547-9.353" transform="translate(-187.836 845.51)" fill="none" stroke="#7f7f7f" stroke-width="0.5"/><path d="M207.891-649.1c1.6,0,3.2,46.764,4.806,46.764" transform="translate(-187.827 845.51)" fill="none" stroke="#7f7f7f" stroke-width="0.5"/><path d="M212.668-601.612c1.561,0,3.123-168.352,4.684-168.352" transform="translate(-187.798 844.788)" fill="none" stroke="#7f7f7f" stroke-width="0.5"/><path d="M217.324-769.964c.452,0,.9,46.765,1.356,46.765" transform="translate(-187.77 844.788)" fill="none" stroke="#7f7f7f" stroke-width="0.5"/><path d="M218.672-722.754c.366,0,.733-121.589,1.1-121.589" transform="translate(-187.762 844.343)" fill="none" stroke="#7f7f7f" stroke-width="0.5"/><path d="M219.765-844.343c.872,0,1.743,271.235,2.615,271.235" transform="translate(-187.756 844.343)" fill="none" stroke="#7f7f7f" stroke-width="0.5"/><path d="M222.364-574.553c.872,0,1.745-28.059,2.618-28.059" transform="translate(-187.74 845.788)" fill="none" stroke="#7f7f7f" stroke-width="0.5"/><path d="M224.966-602.612c1.246,0,2.493,121.589,3.739,121.589" transform="translate(-187.725 845.788)" fill="none" stroke="#7f7f7f" stroke-width="0.5"/><path d="M228.683-481.023c1.522,0,3.045-121.589,4.568-121.589" transform="translate(-187.702 845.788)" fill="none" stroke="#7f7f7f" stroke-width="0.5"/><path d="M233.224-602.612c1.009,0,2.017,28.059,3.025,28.059" transform="translate(-187.675 845.788)" fill="none" stroke="#7f7f7f" stroke-width="0.5"/><path d="M236.231-573.831c1.569,0,3.139-149.646,4.708-149.646" transform="translate(-187.657 845.066)" fill="none" stroke="#7f7f7f" stroke-width="0.5"/><path d="M240.911-723.477c1.555,0,3.11,149.646,4.665,149.646" transform="translate(-187.629 845.066)" fill="none" stroke="#7f7f7f" stroke-width="0.5"/></g><g transform="translate(351.107 10.279)"><path d="M358.846-694.665c1.385,9.088,2.769,215.117,4.155,215.117" transform="translate(-353.227 834.959)" fill="none" stroke="#7f7f7f" stroke-width="0.705" opacity="0.4"/><path d="M362.976-479.1c6.242,0,12.484-289.941,18.726-289.941" transform="translate(-353.202 834.514)" fill="none" stroke="#7f7f7f" stroke-width="0.705" opacity="0.4"/><path d="M381.591-769.044q8.55,0,17.1,168.354" transform="translate(-353.091 834.514)" fill="none" stroke="#7f7f7f" stroke-width="0.705" opacity="0.4"/><line x2="6.147" y2="74.758" transform="translate(0 65.755)" fill="none" stroke="#7f7f7f" stroke-width="0.705" opacity="0.4"/><path d="M398.59-601.691c.438,8.615.875,121.588,1.313,121.588" transform="translate(-352.989 835.515)" fill="none" stroke="#7f7f7f" stroke-width="0.705" opacity="0.4"/><path d="M399.895-479.992c.87,0,1.74-102.627,2.61-140.294" transform="translate(-352.981 835.403)" fill="none" stroke="#7f7f7f" stroke-width="0.705" opacity="0.4"/><path d="M402.489-619.452q3.241-140.295,6.48-140.294" transform="translate(-352.966 834.57)" fill="none" stroke="#7f7f7f" stroke-width="0.705" opacity="0.4"/><path d="M408.931-759.746c2.587,0,5.175,159,7.762,159" transform="translate(-352.927 834.57)" fill="none" stroke="#7f7f7f" stroke-width="0.705" opacity="0.4"/><path d="M416.647-600.3c1.773,0,3.547-233.824,5.32-233.824" transform="translate(-352.881 834.125)" fill="none" stroke="#7f7f7f" stroke-width="0.705" opacity="0.4"/><path d="M421.935-834.125c1.225,0,2.451,233.824,3.675,233.824" transform="translate(-352.849 834.125)" fill="none" stroke="#7f7f7f" stroke-width="0.705" opacity="0.4"/><path d="M425.588-600.3c1.486,0,2.973-233.824,4.458-233.824" transform="translate(-352.828 834.125)" fill="none" stroke="#7f7f7f" stroke-width="0.705" opacity="0.4"/><path d="M434.144-769.044c.865,27.289,1.729,289.941,2.594,289.941" transform="translate(-352.776 834.514)" fill="none" stroke="#7f7f7f" stroke-width="0.705" opacity="0.4"/><path d="M436.723-479.381c3.673,0,7.345-243.176,11.017-243.176" transform="translate(-352.761 834.792)" fill="none" stroke="#7f7f7f" stroke-width="0.705" opacity="0.4"/><path d="M447.675-722.557c3.66,0,7.318,140.294,10.978,140.294" transform="translate(-352.696 834.792)" fill="none" stroke="#7f7f7f" stroke-width="0.705" opacity="0.4"/><path d="M458.588-582.708c1.1,0,2.193-51.45,3.291-65.47" transform="translate(-352.63 835.237)" fill="none" stroke="#7f7f7f" stroke-width="0.705" opacity="0.4"/><path d="M461.859-648.067c.886-11.334,1.773-18.706,2.66-18.706" transform="translate(-352.611 835.125)" fill="none" stroke="#7f7f7f" stroke-width="0.705" opacity="0.4"/><path d="M464.5-666.773c2.072,0,4.145,18.706,6.217,18.706" transform="translate(-352.595 835.125)" fill="none" stroke="#7f7f7f" stroke-width="0.705" opacity="0.4"/><path d="M470.683-647.9c2.189,0,4.378-46.765,6.567-46.765" transform="translate(-352.558 834.959)" fill="none" stroke="#7f7f7f" stroke-width="0.705" opacity="0.4"/><path d="M477.211-694.665c.632,0,1.265,33.059,1.9,46.765" transform="translate(-352.519 834.959)" fill="none" stroke="#7f7f7f" stroke-width="0.705" opacity="0.4"/><path d="M479.1-648.178c2.295,49.753,4.589,50.1,6.884,74.824" transform="translate(-352.508 835.237)" fill="none" stroke="#7f7f7f" stroke-width="0.705" opacity="0.4"/></g></g><g transform="translate(51.921 2199.189)"><g transform="translate(3.021 0)"><g transform="translate(67.185 104.298)"><text transform="translate(3.907 29.982) rotate(-51.389)" font-size="7" font-family="HKGrotesk-Regular, HK Grotesk"><tspan x="0" y="0">scena erotica</tspan></text></g></g><text transform="translate(215.292 133.188) rotate(-51.389)" font-size="7" font-family="HKGrotesk-Regular, HK Grotesk"><tspan x="0" y="0">scena erotica</tspan></text><text transform="translate(239.624 134.188) rotate(-51.389)" font-size="7" font-family="HKGrotesk-Regular, HK Grotesk"><tspan x="0" y="0">scena erotica</tspan></text><g transform="translate(327.681 2.324)"><text transform="translate(118.159 131.122) rotate(-51.389)" font-size="7" font-family="HKGrotesk-Regular, HK Grotesk"><tspan x="0" y="0">scena erotica</tspan></text></g><g transform="translate(303.681 -109.676)"><text transform="translate(118.159 131.122) rotate(-51.389)" font-size="7" font-family="HKGrotesk-Regular, HK Grotesk"><tspan x="0" y="0">rivelazione</tspan></text></g><path d="M105.047-728.684C91.7-728.693,80.27-728.7,73-728.7" transform="translate(-3.188 865.811)" fill="none" stroke="#5151fc" stroke-miterlimit="10" stroke-width="0.5"/><path d="M212.651-728.6c-23.19-.021-75.979-.061-107.794-.083" transform="translate(-2.998 865.811)" fill="none" stroke="#5151fc" stroke-miterlimit="10" stroke-width="0.5"/><path d="M290.884-720.6c-28.595,1.568-49.517,2.738-49.517,2.738-7.243,0-15.173-10.726-22.773-10.726l-16.607-.015" transform="translate(-2.417 865.812)" fill="none" stroke="#5151fc" stroke-miterlimit="10" stroke-width="0.5"/><path d="M386.546-725.7c-27.718,1.454-71.369,3.725-96.19,5.085" transform="translate(-1.889 865.829)" fill="none" stroke="#5151fc" stroke-miterlimit="10" stroke-width="0.5"/><path d="M408.658-726.912c-10.706.533-22.874,1.159-35.657,1.83" transform="translate(-1.395 865.822)" fill="none" stroke="#5151fc" stroke-miterlimit="10" stroke-width="0.5"/><path d="M421.884-727.564c-4.134.2-8.638.418-13.438.656" transform="translate(-1.183 865.818)" fill="none" stroke="#5151fc" stroke-miterlimit="10" stroke-width="0.5"/><path d="M431.686-728.018c-2.982.133-6.291.286-9.882.457" transform="translate(-1.103 865.815)" fill="none" stroke="#5151fc" stroke-miterlimit="10" stroke-width="0.5"/><path d="M439.032-728.331c-2.158.086-4.64.191-7.4.315" transform="translate(-1.044 865.813)" fill="none" stroke="#5151fc" stroke-miterlimit="10" stroke-width="0.5"/><path d="M447.582-728.586c-1.466,0-4.426.091-8.594.257" transform="translate(-1 865.812)" fill="none" stroke="#5151fc" stroke-miterlimit="10" stroke-width="0.5"/><path d="M447.43-728.586" transform="translate(-0.95 865.812)" fill="none" stroke="#5151fc" stroke-miterlimit="10" stroke-width="1"/><path d="M99.6-847.872" transform="translate(-3.029 865.099)" fill="#5151fc"/></g><g transform="translate(50 2217.274)"><circle cx="1.085" cy="1.085" r="1.085" transform="translate(227.332 366.323)"/><circle cx="1.085" cy="1.085" r="1.085" transform="translate(362.449 366.995)"/><circle cx="1.085" cy="1.085" r="1.085" transform="translate(399.354 366.323)"/><circle cx="1.085" cy="1.085" r="1.085" transform="translate(436.555 366.323)"/><circle cx="1.085" cy="1.085" r="1.085" transform="translate(193.4 272.817)"/><circle cx="1.085" cy="1.085" r="1.085" transform="translate(47.997 272.817)"/><circle cx="1.085" cy="1.085" r="1.085" transform="translate(1.581 337.937)"/><circle cx="1.085" cy="1.085" r="1.085" transform="translate(40.2 244.6)"/><circle cx="1.085" cy="1.085" r="1.085" transform="translate(45.798 179.352)"/><circle cx="1.085" cy="1.085" r="1.085" transform="translate(71.519 122.86)"/><circle cx="1.085" cy="1.085" r="1.085" transform="translate(12.01 244.6)"/><circle cx="1.085" cy="1.085" r="1.085" transform="translate(21.122 225.944)"/><circle cx="1.085" cy="1.085" r="1.085" transform="translate(7.973 225.92)"/><circle cx="1.085" cy="1.085" r="1.085" transform="translate(190.438 204.725)"/><circle cx="1.085" cy="1.085" r="1.085" transform="translate(189.951 198.153)"/><circle cx="1.085" cy="1.085" r="1.085" transform="translate(186.41 1.607)"/><circle cx="1.085" cy="1.085" r="1.085" transform="translate(218.42 1.607)"/><circle cx="1.085" cy="1.085" r="1.085" transform="translate(421.538 10.784)"/><circle cx="1.085" cy="1.085" r="1.085" transform="translate(429.737 10.784)"/><circle cx="1.085" cy="1.085" r="1.085" transform="translate(215.736 76.575)"/><circle cx="1.085" cy="1.085" r="1.085" transform="translate(217.16 122.815)"/><circle cx="1.085" cy="1.085" r="1.085" transform="translate(239.553 122.815)"/><circle cx="1.085" cy="1.085" r="1.085" transform="translate(447.615 122.815)"/><circle cx="1.085" cy="1.085" r="1.085" transform="translate(352.16 76.527)"/><circle cx="1.085" cy="1.085" r="1.085" transform="translate(358.09 151.212)"/><circle cx="1.085" cy="1.085" r="1.085" transform="translate(477.316 151.212)"/><circle cx="1.085" cy="1.085" r="1.085" transform="translate(464.519 180.241)"/><circle cx="1.085" cy="1.085" r="1.085" transform="translate(470.607 198.504)"/><circle cx="1.085" cy="1.085" r="1.085" transform="translate(416.05 244.1)"/><circle cx="1.085" cy="1.085" r="1.085" transform="translate(425.257 244.1)"/><circle cx="1.085" cy="1.085" r="1.085" transform="translate(397.903 244.1)"/><circle cx="1.085" cy="1.085" r="1.085" transform="translate(401.884 226.139)"/><circle cx="1.085" cy="1.085" r="1.085" transform="translate(380.817 76.527)"/><circle cx="1.085" cy="1.085" r="1.085" transform="translate(433.809 76.527)"/><circle cx="1.085" cy="1.085" r="1.085" transform="translate(408.512 85.898)"/><circle cx="1.085" cy="1.085" r="1.085" transform="translate(196.808 198.153)"/><circle cx="1.085" cy="1.085" r="1.085" transform="translate(206.22 198.153)"/><circle cx="1.085" cy="1.085" r="1.085" transform="translate(204.996 205.409)"/><circle cx="1.085" cy="1.085" r="1.085" transform="translate(221.073 272.817)"/><circle cx="1.085" cy="1.085" r="1.085" transform="translate(235.016 272.817)"/><circle cx="1.085" cy="1.085" r="1.085" transform="translate(486.088 272.817)"/><circle cx="1.085" cy="1.085" r="1.085" transform="translate(458.5 262.931)"/><circle cx="1.085" cy="1.085" r="1.085" transform="translate(231.906 244.822)"/><circle cx="1.085" cy="1.085" r="1.085" transform="translate(223.54 244.822)"/><circle cx="1.085" cy="1.085" r="1.085" transform="translate(210.883 244.822)"/><circle cx="1.085" cy="1.085" r="1.085" transform="translate(200.908 244.822)"/><circle cx="1.085" cy="1.085" r="1.085" transform="translate(244.241 272.817)"/><circle cx="1.085" cy="1.085" r="1.085" transform="translate(53.742 85.381)"/><circle cx="1.085" cy="1.085" r="1.085" transform="translate(56.593 76.099)"/><circle cx="1.085" cy="1.085" r="1.085" transform="translate(34.167 38.96)"/><circle cx="1.085" cy="1.085" r="1.085" transform="translate(61.337 29.688)"/><circle cx="1.085" cy="1.085" r="1.085" transform="translate(79.357 10.734)"/><circle cx="1.085" cy="1.085" r="1.085" transform="translate(30.138 76.099)"/><circle cx="1.668" cy="1.668" r="1.668" transform="translate(1.237 337.683)" stroke="#7f7f7f" stroke-miterlimit="10" stroke-width="1"/><circle cx="1.668" cy="1.668" r="1.668" transform="translate(186.237 0.683)" stroke="#7f7f7f" stroke-miterlimit="10" stroke-width="1"/><circle cx="1.668" cy="1.668" r="1.668" transform="translate(243.237 272.683)" stroke="#7f7f7f" stroke-miterlimit="10" stroke-width="1"/></g><g transform="translate(52.641 2161)"><rect width="44.246" height="10.988" rx="3" transform="translate(455.336 175.426)" fill="#fff" stroke="#5151fc" stroke-miterlimit="10" stroke-width="0.223"/><g transform="translate(63.891 175.414)"><circle cx="5.363" cy="5.363" r="5.363" fill="#fff" stroke="#5151fc" stroke-miterlimit="10" stroke-width="0.5"/><circle cx="2.162" cy="2.162" r="2.162" transform="translate(3.253 3.099)" fill="#5151fc"/></g><g transform="translate(210.094 175.414)"><circle cx="5.363" cy="5.363" r="5.363" fill="#fff" stroke="#5151fc" stroke-miterlimit="10" stroke-width="0.5"/><circle cx="2.162" cy="2.162" r="2.162" transform="translate(3.253 3.099)" fill="#5151fc"/></g><g transform="translate(232.868 175.414)"><circle cx="5.363" cy="5.363" r="5.363" fill="#fff" stroke="#5151fc" stroke-miterlimit="10" stroke-width="0.5"/><circle cx="2.162" cy="2.162" r="2.162" transform="translate(3.253 3.099)" fill="#5151fc"/></g><g transform="translate(440.397 175.414)"><circle cx="5.363" cy="5.363" r="5.363" fill="#fff" stroke="#5151fc" stroke-miterlimit="10" stroke-width="0.5"/><circle cx="2.162" cy="2.162" r="2.162" transform="translate(3.253 3.099)" fill="#5151fc"/></g><text transform="translate(457.629 184.102)" fill="#5151fc" font-size="8.5" font-family="HKGrotesk-SemiBold, HK Grotesk" font-weight="600"><tspan x="0" y="0">LUDMILLA</tspan></text></g><text transform="translate(52.641 2206.903)" font-size="10" font-family="HKGrotesk-Regular, HK Grotesk"><tspan x="0" y="0">i4</tspan></text><text transform="translate(237.278 2206.903)" font-size="10" font-family="HKGrotesk-Regular, HK Grotesk"><tspan x="0" y="0">i5</tspan></text><text transform="translate(398.38 2207.903)" font-size="10" font-family="HKGrotesk-Regular, HK Grotesk"><tspan x="0" y="0">t6</tspan></text></g><g transform="translate(-51 -2144)"><text transform="translate(53.086 2604)" fill="#5151fc" font-size="10" font-family="HKGrotesk-Regular, HK Grotesk"><tspan x="0" y="9">Costruzione della tensione erotica: dalla letteratura…</tspan></text><text transform="translate(399.086 2604)" fill="#5151fc" font-size="10" font-family="HKGrotesk-Regular, HK Grotesk"><tspan x="0" y="9">...alla realtà</tspan></text></g><g transform="translate(415.038 84.414)"><circle cx="5.363" cy="5.363" r="5.363" fill="#fff" stroke="#5151fc" stroke-miterlimit="10" stroke-width="0.5"/><circle cx="2.162" cy="2.162" r="2.162" transform="translate(3.253 3.099)" fill="#5151fc"/></g><g transform="translate(383 -2077)"><text transform="translate(53.086 2161)" fill="#5151fc" font-size="10" font-family="HKGrotesk-Italic, HK Grotesk" font-style="italic"><tspan x="0" y="9">Precedente relazione </tspan><tspan x="0" y="21">di Ludmilla con </tspan><tspan x="0" y="33">Ermes Marana</tspan></text></g><text transform="translate(0.086 -1)" font-size="10" font-family="HKGrotesk-Regular, HK Grotesk"><tspan x="0" y="9">Entrambe le scene coinvolgono una donna e due uomini:</tspan><tspan x="0" y="21">il protagonista e un rivale con cui è in violento conflitto</tspan></text></g></svg>