<svg xmlns="http://www.w3.org/2000/svg" xmlns:xlink="http://www.w3.org/1999/xlink" width="938" height="104.36" viewBox="0 0 938 104.36">
  <defs>
    <clipPath id="clip-legend_scheda3">
      <rect width="938" height="104.36"/>
    </clipPath>
  </defs>
  <g id="legend_scheda3" clip-path="url(#clip-legend_scheda3)">
    <path id="Rectangle_13361" data-name="Rectangle 13361" d="M4.549-41.988h11a5,5,0,0,1,5,5h0a5,5,0,0,1-5,5h-11a5,5,0,0,1-5-5h0A5,5,0,0,1,4.549-41.988Z" transform="translate(0.451 120.352)" fill="#f36" opacity="0.4" style="isolation: isolate"/>
    <rect id="legend-bg-transparent" width="938" height="110" transform="translate(0.488 0.352)" fill="none"/>
    <g id="Testo_non_dubitativo" data-name="Testo non dubitativo" transform="translate(0.451 120.352)">
      <g id="Group_24914" data-name="Group 24914">
        <text id="TYPE_OF_TEXT" data-name="TYPE OF TEXT" transform="translate(474.037 -97)" fill="#5151fc" font-size="10" font-family="HKGrotesk-Bold, HK Grotesk" font-weight="700" style="isolation: isolate"><tspan x="0" y="0">TYPE OF TEXT</tspan></text>
      </g>
    </g>
    <g id="Group_24915" data-name="Group 24915" transform="translate(0.451 120.352)">
      <rect id="Rectangle_19" data-name="Rectangle 19" width="20" height="10" transform="translate(474.037 -85.988)" fill="#f7f8f8"/>
      <line id="Line_63" data-name="Line 63" x2="20" transform="translate(474.037 -80.988)" fill="none" stroke="#333" stroke-linecap="square" stroke-miterlimit="10" stroke-width="1" stroke-dasharray="0 4"/>
    </g>
    <g id="Testo_neutro" data-name="Testo neutro" transform="translate(0.451 120.352)">
      <g id="Group_24916" data-name="Group 24916">
        <path id="Path_161953" data-name="Path 161953" d="M1.035,0h.771V-6.089L4.756,0H5.889V-6.9H5.122V-.82L2.153-6.9H1.035Zm8.6.1a2.4,2.4,0,0,0,2.324-2.549A2.383,2.383,0,0,0,9.634-4.98a2.361,2.361,0,0,0-2.3,2.529A2.376,2.376,0,0,0,9.634.1Zm0-.605c-1.074,0-1.572-.957-1.572-1.943s.5-1.924,1.582-1.924,1.572.947,1.572,1.924S10.732-.508,9.639-.508ZM13.2,0h.728V-2.534c0-1.211.61-1.812,1.377-1.812.859,0,1.108.781,1.108,1.455V0h.723V-2.964c0-1.074-.474-2-1.636-2a1.752,1.752,0,0,0-1.572.938v-.85H13.2Zm5.43-2.822h2.5v-.557h-2.5ZM25.869-6.9v2.686a1.746,1.746,0,0,0-1.528-.767c-1.245,0-1.953,1.143-1.953,2.539S23.1.1,24.346.1a1.734,1.734,0,0,0,1.528-.776L25.889,0H26.6V-6.9ZM24.531-.518c-.977,0-1.4-.928-1.4-1.924s.42-1.924,1.4-1.924c1,0,1.4.938,1.4,1.924S25.527-.518,24.531-.518Zm5.234.625A1.736,1.736,0,0,0,31.3-.825V0h.723V-4.878H31.3v2.7a1.566,1.566,0,0,1-1.455,1.67c-.835,0-1.025-.786-1.025-1.489V-4.878h-.728v2.832C28.091-.83,28.564.107,29.766.107ZM35.923.1c1.27,0,1.963-1.147,1.963-2.539S37.192-4.98,35.918-4.98a1.747,1.747,0,0,0-1.514.767V-6.9h-.728V0H34.4V-.664A1.747,1.747,0,0,0,35.923.1Zm-.19-.615c-.977,0-1.392-.928-1.392-1.924s.415-1.924,1.392-1.924,1.426.938,1.426,1.924S36.714-.518,35.732-.518Zm3.4-5.444h.83V-6.9h-.83ZM39.185,0h.723V-4.878h-.723Zm3.73.1a1.966,1.966,0,0,0,.654-.1V-.625a1.164,1.164,0,0,1-.488.122c-.356,0-.62-.249-.62-.786V-4.282H43.7v-.6H42.461V-6.66l-.723.684v1.1h-.786v.6h.781v2.988C41.733-.459,42.051.1,42.915.1Zm3.076,0a1.821,1.821,0,0,0,1.714-1.04L47.72,0h.62V-2.993A1.8,1.8,0,0,0,46.431-4.98a2.164,2.164,0,0,0-1.841.957l.532.415a1.605,1.605,0,0,1,1.353-.737c.884,0,1.2.64,1.2,1.558H46.558c-1.387,0-2.148.454-2.148,1.431A1.43,1.43,0,0,0,45.991.1Zm.083-.615c-.508,0-.913-.239-.913-.82,0-.649.5-.9,1.465-.9h1.045A1.683,1.683,0,0,1,46.074-.518ZM51.206.1A1.966,1.966,0,0,0,51.86,0V-.625a1.164,1.164,0,0,1-.488.122c-.356,0-.62-.249-.62-.786V-4.282h1.235v-.6H50.752V-6.66l-.723.684v1.1h-.786v.6h.781v2.988C50.024-.459,50.342.1,51.206.1ZM53.1-5.962h.83V-6.9H53.1ZM53.154,0h.723V-4.878h-.723ZM56.7,0h.645l1.816-4.878h-.781L57.026-.947,55.679-4.878h-.8Zm5.127.068A2.392,2.392,0,0,0,63.7-.693l-.5-.4a1.7,1.7,0,0,1-1.372.522A1.444,1.444,0,0,1,60.4-2.192h3.4c.01-.088.024-.249.024-.376,0-1.123-.488-2.378-2.07-2.378-1.416,0-2.119,1.226-2.119,2.534A2.211,2.211,0,0,0,61.831.068ZM60.4-2.788c.039-.83.459-1.558,1.353-1.558,1,0,1.353.776,1.372,1.558ZM69.077.1a1.966,1.966,0,0,0,.654-.1V-.625a1.164,1.164,0,0,1-.488.122c-.356,0-.62-.249-.62-.786V-4.282h1.235v-.6H68.623V-6.66l-.723.684v1.1h-.786v.6H67.9v2.988C67.9-.459,68.213.1,69.077.1ZM72.788.068a2.392,2.392,0,0,0,1.865-.762l-.5-.4a1.7,1.7,0,0,1-1.372.522,1.444,1.444,0,0,1-1.426-1.621h3.4c.01-.088.024-.249.024-.376,0-1.123-.488-2.378-2.07-2.378-1.416,0-2.119,1.226-2.119,2.534A2.211,2.211,0,0,0,72.788.068ZM71.357-2.788c.039-.83.459-1.558,1.353-1.558,1,0,1.353.776,1.372,1.558ZM75.381,0h.894l1.138-1.846L78.555,0h.869L77.8-2.461l1.626-2.417h-.869L77.412-3.071,76.274-4.878h-.894l1.646,2.417Zm6.5.1a1.966,1.966,0,0,0,.654-.1V-.625a1.164,1.164,0,0,1-.488.122c-.356,0-.62-.249-.62-.786V-4.282h1.235v-.6H81.431V-6.66l-.723.684v1.1h-.786v.6H80.7v2.988C80.7-.459,81.021.1,81.885.1Z" transform="translate(504.037 -77.988)"/>
      </g>
    </g>
    <g id="Group_24917" data-name="Group 24917" transform="translate(0.451 120.352)">
      <rect id="Rectangle_20" data-name="Rectangle 20" width="20" height="10" transform="translate(474.037 -63.988)" fill="#f7f8f8"/>
      <line id="Line_64" data-name="Line 64" x2="20" transform="translate(474.037 -58.988)" fill="none" stroke="#333" stroke-miterlimit="10" stroke-width="0.5"/>
    </g>
    <g id="Testo_soggetto" data-name="Testo soggetto" transform="translate(0.451 120.352)">
      <g id="Group_24918" data-name="Group 24918">
        <path id="Path_161954" data-name="Path 161954" d="M2.622,0H3.4V-6.26H5.732V-6.9H.293v.64H2.622ZM7.715.068A2.392,2.392,0,0,0,9.58-.693l-.5-.4A1.7,1.7,0,0,1,7.71-.571,1.444,1.444,0,0,1,6.284-2.192h3.4c.01-.088.024-.249.024-.376,0-1.123-.488-2.378-2.07-2.378-1.416,0-2.119,1.226-2.119,2.534A2.211,2.211,0,0,0,7.715.068ZM6.284-2.788c.039-.83.459-1.558,1.353-1.558,1,0,1.353.776,1.372,1.558ZM10.308,0H11.2l1.138-1.846L13.481,0h.869L12.725-2.461l1.626-2.417h-.869L12.339-3.071,11.2-4.878h-.894l1.646,2.417Zm6.5.1a1.966,1.966,0,0,0,.654-.1V-.625a1.164,1.164,0,0,1-.488.122c-.356,0-.62-.249-.62-.786V-4.282h1.235v-.6H16.357V-6.66l-.723.684v1.1h-.786v.6h.781v2.988C15.63-.459,15.947.1,16.812.1Zm6.47,0a2.4,2.4,0,0,0,2.324-2.549A2.383,2.383,0,0,0,23.281-4.98a2.361,2.361,0,0,0-2.3,2.529A2.376,2.376,0,0,0,23.281.1Zm0-.605c-1.074,0-1.572-.957-1.572-1.943s.5-1.924,1.582-1.924,1.572.947,1.572,1.924S24.38-.508,23.286-.508ZM29.1.1c1.27,0,1.963-1.147,1.963-2.539S30.371-4.98,29.1-4.98a1.747,1.747,0,0,0-1.514.767V-6.9h-.728V0h.728V-.664A1.747,1.747,0,0,0,29.1.1Zm-.19-.615c-.977,0-1.392-.928-1.392-1.924s.415-1.924,1.392-1.924,1.426.938,1.426,1.924S29.893-.518,28.911-.518Zm3.408-5.474h.84V-6.9h-.84Zm-.459,8.13c.884,0,1.25-.581,1.25-1.382V-4.878h-.742V.864c0,.327-.117.659-.527.659a2.256,2.256,0,0,1-.562-.083l-.156.547A2.283,2.283,0,0,0,31.86,2.139ZM36.582.068a2.392,2.392,0,0,0,1.865-.762l-.5-.4a1.7,1.7,0,0,1-1.372.522,1.444,1.444,0,0,1-1.426-1.621h3.4c.01-.088.024-.249.024-.376,0-1.123-.488-2.378-2.07-2.378-1.416,0-2.119,1.226-2.119,2.534A2.211,2.211,0,0,0,36.582.068ZM35.151-2.788c.039-.83.459-1.558,1.353-1.558,1,0,1.353.776,1.372,1.558ZM41.577.1A1.861,1.861,0,0,0,43.413-1.2l-.635-.273a1.224,1.224,0,0,1-1.211.952c-1.021,0-1.362-1.021-1.362-1.914s.352-1.934,1.362-1.934a1.234,1.234,0,0,1,1.211.977l.688-.293a2,2,0,0,0-1.9-1.3c-1.406,0-2.109,1.24-2.109,2.549S40.171.1,41.577.1Zm4.365,0A1.966,1.966,0,0,0,46.6,0V-.625a1.164,1.164,0,0,1-.488.122c-.356,0-.62-.249-.62-.786V-4.282h1.235v-.6H45.488V-6.66l-.723.684v1.1h-.786v.6h.781v2.988C44.761-.459,45.078.1,45.942.1Zm6.47,0a2.4,2.4,0,0,0,2.324-2.549A2.383,2.383,0,0,0,52.412-4.98a2.361,2.361,0,0,0-2.3,2.529A2.376,2.376,0,0,0,52.412.1Zm0-.605c-1.074,0-1.572-.957-1.572-1.943s.5-1.924,1.582-1.924S54-3.428,54-2.451,53.511-.508,52.417-.508ZM56.2,0h.728V-4.282h1.4v-.6h-1.4v-.781c0-.5.273-.728.649-.728a1.387,1.387,0,0,1,.571.151l.176-.581a1.825,1.825,0,0,0-.8-.186,1.225,1.225,0,0,0-1.318,1.3v.82h-.894v.6H56.2Zm8.857-6.9v2.686A1.746,1.746,0,0,0,63.53-4.98c-1.245,0-1.953,1.143-1.953,2.539S62.285.1,63.535.1a1.734,1.734,0,0,0,1.528-.776L65.078,0h.708V-6.9ZM63.721-.518c-.977,0-1.4-.928-1.4-1.924s.42-1.924,1.4-1.924c1,0,1.4.938,1.4,1.924S64.717-.518,63.721-.518ZM69.341.1a2.4,2.4,0,0,0,2.324-2.549A2.383,2.383,0,0,0,69.341-4.98a2.361,2.361,0,0,0-2.3,2.529A2.376,2.376,0,0,0,69.341.1Zm0-.605c-1.074,0-1.572-.957-1.572-1.943s.5-1.924,1.582-1.924,1.572.947,1.572,1.924S70.439-.508,69.346-.508Zm5.073.615a1.736,1.736,0,0,0,1.533-.933V0h.723V-4.878h-.723v2.7A1.566,1.566,0,0,1,74.5-.508c-.835,0-1.025-.786-1.025-1.489V-4.878h-.728v2.832C72.744-.83,73.218.107,74.419.107ZM80.576.1c1.27,0,1.963-1.147,1.963-2.539S81.846-4.98,80.571-4.98a1.747,1.747,0,0,0-1.514.767V-6.9H78.33V0h.728V-.664A1.747,1.747,0,0,0,80.576.1Zm-.19-.615c-.977,0-1.392-.928-1.392-1.924s.415-1.924,1.392-1.924,1.426.938,1.426,1.924S81.367-.518,80.386-.518ZM85.146.1A1.966,1.966,0,0,0,85.8,0V-.625a1.164,1.164,0,0,1-.488.122c-.356,0-.62-.249-.62-.786V-4.282h1.235v-.6H84.692V-6.66l-.723.684v1.1h-.786v.6h.781v2.988C83.965-.459,84.282.1,85.146.1Z" transform="translate(504.037 -55.988)"/>
      </g>
    </g>
    <g id="Stili" transform="translate(0.451 120.352)">
      <g id="Group_24919" data-name="Group 24919">
        <path id="Path_161958" data-name="Path 161958" d="M2.861.078a2.169,2.169,0,0,0,2.4-2.09c0-2.29-3.34-1.851-3.34-3.149A.786.786,0,0,1,2.788-5.9,1.249,1.249,0,0,1,3.9-5.161l1.03-.63A2.309,2.309,0,0,0,2.832-7,1.951,1.951,0,0,0,.679-5.1c0,2.246,3.34,1.768,3.34,3.2,0,.488-.4.879-1.138.879A1.315,1.315,0,0,1,1.45-2.261L.22-1.948A2.507,2.507,0,0,0,2.861.078ZM7.793,0h1.24V-5.791h2.158V-6.9H5.63v1.108H7.793Zm6.279,0h1.294V-2.69L17.944-6.9H16.436L14.7-3.882,12.983-6.9h-1.5L14.072-2.69Zm4.751,0h4.189V-1.172H20.063V-6.9h-1.24Zm5.19,0H28.6V-1.172h-3.35V-2.881h3.12V-4.019h-3.12V-5.762H28.6V-6.9h-4.59Zm8.052.078a2.169,2.169,0,0,0,2.4-2.09c0-2.29-3.34-1.851-3.34-3.149a.786.786,0,0,1,.869-.737,1.249,1.249,0,0,1,1.113.737l1.03-.63A2.309,2.309,0,0,0,32.036-7a1.951,1.951,0,0,0-2.153,1.9c0,2.246,3.34,1.768,3.34,3.2,0,.488-.4.879-1.138.879a1.315,1.315,0,0,1-1.431-1.24l-1.23.313A2.507,2.507,0,0,0,32.065.078Z" transform="translate(237.037 -97)" fill="#5151fc"/>
      </g>
    </g>
    <g id="Group_24920" data-name="Group 24920" transform="translate(0.451 120.352)">
      <rect id="Rectangle_16" data-name="Rectangle 16" width="20" height="10" transform="translate(237.037 -85.988)" fill="#f7f8f8"/>
      <line id="Line_57" data-name="Line 57" x1="2.113" y2="4.532" transform="translate(238.981 -83.254)" fill="none" stroke="#333" stroke-miterlimit="10" stroke-width="0.5"/>
      <line id="Line_58" data-name="Line 58" x1="2.113" y2="4.532" transform="translate(245.981 -83.254)" fill="none" stroke="#333" stroke-miterlimit="10" stroke-width="0.5"/>
      <line id="Line_59" data-name="Line 59" x1="2.113" y2="4.532" transform="translate(252.981 -83.254)" fill="none" stroke="#333" stroke-miterlimit="10" stroke-width="0.5"/>
      <line id="Line_60" data-name="Line 60" x2="6" transform="translate(237.037 -80.988)" fill="none" stroke="#333" stroke-miterlimit="10" stroke-width="0.5"/>
      <line id="Line_61" data-name="Line 61" x2="6" transform="translate(244.037 -80.988)" fill="none" stroke="#333" stroke-miterlimit="10" stroke-width="0.5"/>
      <line id="Line_62" data-name="Line 62" x2="6" transform="translate(251.037 -80.988)" fill="none" stroke="#333" stroke-miterlimit="10" stroke-width="0.5"/>
    </g>
    <g id="Negazione" transform="translate(0.451 120.352)">
      <g id="Group_24921" data-name="Group 24921">
        <path id="Path_161955" data-name="Path 161955" d="M1.035,0h.771V-6.089L4.756,0H5.889V-6.9H5.122V-.82L2.153-6.9H1.035ZM9.556.068a2.392,2.392,0,0,0,1.865-.762l-.5-.4a1.7,1.7,0,0,1-1.372.522A1.444,1.444,0,0,1,8.125-2.192h3.4c.01-.088.024-.249.024-.376,0-1.123-.488-2.378-2.07-2.378-1.416,0-2.119,1.226-2.119,2.534A2.211,2.211,0,0,0,9.556.068ZM8.125-2.788c.039-.83.459-1.558,1.353-1.558,1,0,1.353.776,1.372,1.558ZM14.556-.63c-.693-.1-1.3-.244-1.3-.747a.462.462,0,0,1,.21-.376,2.079,2.079,0,0,0,.918.205,1.661,1.661,0,0,0,1.8-1.68A1.761,1.761,0,0,0,16-4.019l.786-.62-.415-.518-.732.664a1.855,1.855,0,0,0-1.26-.454,1.7,1.7,0,0,0-1.826,1.709,1.625,1.625,0,0,0,.41,1.113,1,1,0,0,0-.356.806,1.082,1.082,0,0,0,.62,1l-.7.708a1.287,1.287,0,0,0-.015.186c0,.928.835,1.66,2.1,1.66,1.025,0,1.953-.479,1.953-1.484C16.567-.352,15.547-.5,14.556-.63ZM14.37-4.37a1.059,1.059,0,0,1,1.079,1.118,1.023,1.023,0,0,1-1.079,1.1,1.019,1.019,0,0,1-1.074-1.1A1.066,1.066,0,0,1,14.37-4.37Zm.3,5.962c-.947,0-1.484-.5-1.489-1l.576-.7a4.948,4.948,0,0,0,.581.127c.835.142,1.577.166,1.577.791C15.918,1.338,15.317,1.592,14.673,1.592ZM18.892.1a1.821,1.821,0,0,0,1.714-1.04L20.62,0h.62V-2.993A1.8,1.8,0,0,0,19.331-4.98a2.164,2.164,0,0,0-1.841.957l.532.415a1.605,1.605,0,0,1,1.353-.737c.884,0,1.2.64,1.2,1.558H19.458c-1.387,0-2.148.454-2.148,1.431A1.43,1.43,0,0,0,18.892.1Zm.083-.615c-.508,0-.913-.239-.913-.82,0-.649.5-.9,1.465-.9h1.045A1.683,1.683,0,0,1,18.975-.518ZM24.106.1a1.966,1.966,0,0,0,.654-.1V-.625a1.164,1.164,0,0,1-.488.122c-.356,0-.62-.249-.62-.786V-4.282h1.235v-.6H23.652V-6.66l-.723.684v1.1h-.786v.6h.781v2.988C22.925-.459,23.242.1,24.106.1ZM26-5.962h.83V-6.9H26ZM26.055,0h.723V-4.878h-.723Zm4.272.1a2.4,2.4,0,0,0,2.324-2.549A2.383,2.383,0,0,0,30.327-4.98a2.361,2.361,0,0,0-2.3,2.529A2.376,2.376,0,0,0,30.327.1Zm0-.605c-1.074,0-1.572-.957-1.572-1.943s.5-1.924,1.582-1.924,1.572.947,1.572,1.924S31.426-.508,30.332-.508ZM33.892,0h.728V-2.534c0-1.211.61-1.812,1.377-1.812.859,0,1.108.781,1.108,1.455V0h.723V-2.964c0-1.074-.474-2-1.636-2a1.752,1.752,0,0,0-1.572.938v-.85h-.728Z" transform="translate(267.037 -77.988)"/>
      </g>
    </g>
    <g id="Group_24922" data-name="Group 24922" transform="translate(0.451 120.352)">
      <rect id="Rectangle_17" data-name="Rectangle 17" width="20" height="10" transform="translate(237.037 -63.988)" fill="#f7f8f8"/>
      <path id="Path_2" data-name="Path 2" d="M242.037-58.988s-1.12-1.878-2.5-1.878-2.5,1.878-2.5,1.878" fill="none" stroke="#333" stroke-miterlimit="10" stroke-width="0.5"/>
      <path id="Path_3" data-name="Path 3" d="M252.037-58.988s-1.12-1.878-2.5-1.878-2.5,1.878-2.5,1.878-1.12,1.877-2.5,1.877-2.5-1.877-2.5-1.877" fill="none" stroke="#333" stroke-miterlimit="10" stroke-width="0.5"/>
      <path id="Path_4" data-name="Path 4" d="M257.037-58.988s-1.12,1.877-2.5,1.877-2.5-1.877-2.5-1.877" fill="none" stroke="#333" stroke-miterlimit="10" stroke-width="0.5"/>
    </g>
    <g id="Esitazione" transform="translate(0.451 120.352)">
      <g id="Group_24923" data-name="Group 24923">
        <path id="Path_161956" data-name="Path 161956" d="M1.035,0h.776V-3.13H5.293V0h.776V-6.9H5.293v3.12H1.812V-6.9H1.035Zm8.7.068A2.392,2.392,0,0,0,11.6-.693l-.5-.4a1.7,1.7,0,0,1-1.372.522A1.444,1.444,0,0,1,8.306-2.192h3.4c.01-.088.024-.249.024-.376,0-1.123-.488-2.378-2.07-2.378-1.416,0-2.119,1.226-2.119,2.534A2.211,2.211,0,0,0,9.736.068ZM8.306-2.788c.039-.83.459-1.558,1.353-1.558,1,0,1.353.776,1.372,1.558ZM14.336.1a1.521,1.521,0,0,0,1.675-1.489c0-1.792-2.632-1.2-2.632-2.324,0-.4.327-.674.854-.674a1.15,1.15,0,0,1,1.089.688l.537-.308a1.733,1.733,0,0,0-1.6-.972A1.392,1.392,0,0,0,12.71-3.628C12.71-1.973,15.3-2.617,15.3-1.3c0,.527-.405.806-.957.806a1.237,1.237,0,0,1-1.216-.928l-.615.317A1.893,1.893,0,0,0,14.336.1Zm2.842-6.06h.83V-6.9h-.83ZM17.231,0h.723V-4.878h-.723Zm3.73.1a1.966,1.966,0,0,0,.654-.1V-.625a1.164,1.164,0,0,1-.488.122c-.356,0-.62-.249-.62-.786V-4.282h1.235v-.6H20.508V-6.66l-.723.684v1.1H19v.6h.781v2.988C19.78-.459,20.1.1,20.962.1Zm3.076,0a1.821,1.821,0,0,0,1.714-1.04L25.767,0h.62V-2.993A1.8,1.8,0,0,0,24.478-4.98a2.164,2.164,0,0,0-1.841.957l.532.415a1.605,1.605,0,0,1,1.353-.737c.884,0,1.2.64,1.2,1.558H24.6c-1.387,0-2.148.454-2.148,1.431A1.43,1.43,0,0,0,24.038.1Zm.083-.615c-.508,0-.913-.239-.913-.82,0-.649.5-.9,1.465-.9h1.045A1.683,1.683,0,0,1,24.121-.518ZM29.253.1a1.966,1.966,0,0,0,.654-.1V-.625a1.164,1.164,0,0,1-.488.122c-.356,0-.62-.249-.62-.786V-4.282h1.235v-.6H28.8V-6.66l-.723.684v1.1H27.29v.6h.781v2.988C28.071-.459,28.389.1,29.253.1Zm1.895-6.06h.83V-6.9h-.83ZM31.2,0h.723V-4.878H31.2Zm4.272.1A2.4,2.4,0,0,0,37.8-2.451,2.383,2.383,0,0,0,35.474-4.98a2.361,2.361,0,0,0-2.3,2.529A2.376,2.376,0,0,0,35.474.1Zm0-.605c-1.074,0-1.572-.957-1.572-1.943s.5-1.924,1.582-1.924,1.572.947,1.572,1.924S36.572-.508,35.479-.508ZM39.038,0h.728V-2.534c0-1.211.61-1.812,1.377-1.812.859,0,1.108.781,1.108,1.455V0h.723V-2.964c0-1.074-.474-2-1.636-2a1.752,1.752,0,0,0-1.572.938v-.85h-.728Z" transform="translate(267.036 -55.988)"/>
      </g>
    </g>
    <g id="Group_24924" data-name="Group 24924" transform="translate(0.451 120.352)">
      <rect id="Rectangle_18" data-name="Rectangle 18" width="20" height="10" transform="translate(237.037 -41.988)" fill="#f7f8f8"/>
      <path id="Path_5" data-name="Path 5" d="M250.37-40.005c2.9,0,5.556,1.465,5.556,3.811a2.224,2.224,0,0,1-2.269,2.176,2.224,2.224,0,0,1-2.176-2.176c0-2.346,2.659-3.811,5.556-3.811" fill="none" stroke="#333" stroke-miterlimit="10" stroke-width="0.5"/>
      <path id="Path_6" data-name="Path 6" d="M243.7-40.005c2.9,0,5.555,1.465,5.555,3.811a2.221,2.221,0,0,1-2.214,2.23,2.222,2.222,0,0,1-2.23-2.214v-.016c0-2.346,2.658-3.811,5.555-3.811" fill="none" stroke="#333" stroke-miterlimit="10" stroke-width="0.5"/>
      <path id="Path_7" data-name="Path 7" d="M237.037-40.005c2.9,0,5.556,1.465,5.556,3.811a2.224,2.224,0,0,1-2.269,2.176,2.224,2.224,0,0,1-2.176-2.176c0-2.346,2.659-3.811,5.556-3.811" fill="none" stroke="#333" stroke-miterlimit="10" stroke-width="0.5"/>
    </g>
    <g id="Riformulazione" transform="translate(0.451 120.352)">
      <g id="Group_24925" data-name="Group 24925">
        <path id="Path_161957" data-name="Path 161957" d="M1.035.01h.776v-3.1H2.944L4.668.01h.908l-1.87-3.2a1.763,1.763,0,0,0,1.47-1.787A1.959,1.959,0,0,0,3.008-6.89H1.035ZM1.821-3.8V-6.206h1.2a1.234,1.234,0,0,1,1.4,1.23c0,.742-.542,1.138-1.279,1.177ZM8.408.068a2.392,2.392,0,0,0,1.865-.762l-.5-.4A1.7,1.7,0,0,1,8.4-.571,1.444,1.444,0,0,1,6.978-2.192h3.4c.01-.088.024-.249.024-.376,0-1.123-.488-2.378-2.07-2.378-1.416,0-2.119,1.226-2.119,2.534A2.211,2.211,0,0,0,8.408.068ZM6.978-2.788c.039-.83.459-1.558,1.353-1.558,1,0,1.353.776,1.372,1.558ZM11.88,0h.728V-4.282h1.4v-.6h-1.4v-.781c0-.5.273-.728.649-.728a1.387,1.387,0,0,1,.571.151L14-6.816A1.825,1.825,0,0,0,13.2-7a1.225,1.225,0,0,0-1.318,1.3v.82h-.894v.6h.889Zm4.8.1a2.4,2.4,0,0,0,2.324-2.549A2.383,2.383,0,0,0,16.685-4.98a2.361,2.361,0,0,0-2.3,2.529A2.376,2.376,0,0,0,16.685.1Zm0-.605c-1.074,0-1.572-.957-1.572-1.943s.5-1.924,1.582-1.924,1.572.947,1.572,1.924S17.783-.508,16.689-.508ZM20.249,0h.718V-2.437c0-1.177.5-1.846,1.333-1.846a.888.888,0,0,1,.6.186l.308-.63a1.268,1.268,0,0,0-.786-.254,1.572,1.572,0,0,0-1.44.967v-.864h-.728Zm3.892,0h.737V-2.544c0-.884.435-1.816,1.245-1.816.835,0,1.025.776,1.025,1.45V0h.742V-2.705c0-.8.435-1.655,1.235-1.655.845,0,1.045.806,1.045,1.47V0h.737V-2.964c0-1.084-.488-2.017-1.694-2.017A1.618,1.618,0,0,0,27.7-3.96,1.465,1.465,0,0,0,26.206-4.98a1.459,1.459,0,0,0-1.328.859v-.757h-.737ZM33.9.107a1.736,1.736,0,0,0,1.533-.933V0h.723V-4.878h-.723v2.7a1.566,1.566,0,0,1-1.455,1.67c-.835,0-1.025-.786-1.025-1.489V-4.878h-.728v2.832C32.227-.83,32.7.107,33.9.107Zm4.863-.645c-.22,0-.239-.264-.239-.278V-6.9h-.737V-.986c0,.586.054,1.084.791,1.084a2.381,2.381,0,0,0,.659-.1V-.586A2.891,2.891,0,0,1,38.765-.537ZM41.46.1a1.821,1.821,0,0,0,1.714-1.04L43.188,0h.62V-2.993A1.8,1.8,0,0,0,41.9-4.98a2.164,2.164,0,0,0-1.841.957l.532.415a1.605,1.605,0,0,1,1.353-.737c.884,0,1.2.64,1.2,1.558H42.026c-1.387,0-2.148.454-2.148,1.431A1.43,1.43,0,0,0,41.46.1Zm.083-.615c-.508,0-.913-.239-.913-.82,0-.649.5-.9,1.465-.9H43.14A1.683,1.683,0,0,1,41.543-.518ZM46.675.1a1.966,1.966,0,0,0,.654-.1V-.625a1.164,1.164,0,0,1-.488.122c-.356,0-.62-.249-.62-.786V-4.282h1.235v-.6H46.221V-6.66l-.723.684v1.1h-.786v.6h.781v2.988C45.493-.459,45.811.1,46.675.1Zm1.895-6.06h.83V-6.9h-.83ZM48.623,0h.723V-4.878h-.723ZM52.9.1A2.4,2.4,0,0,0,55.22-2.451,2.383,2.383,0,0,0,52.9-4.98a2.361,2.361,0,0,0-2.3,2.529A2.376,2.376,0,0,0,52.9.1Zm0-.605c-1.074,0-1.572-.957-1.572-1.943s.5-1.924,1.582-1.924,1.572.947,1.572,1.924S53.994-.508,52.9-.508ZM56.46,0h.728V-2.534c0-1.211.61-1.812,1.377-1.812.859,0,1.108.781,1.108,1.455V0H60.4V-2.964c0-1.074-.474-2-1.636-2a1.752,1.752,0,0,0-1.572.938v-.85H56.46Z" transform="translate(267.037 -33.988)"/>
      </g>
    </g>
    <g id="Categorie" transform="translate(0.451 120.352)" style="isolation: isolate">
      <path id="Path_161959" data-name="Path 161959" d="M3.74.1A3.13,3.13,0,0,0,6.758-1.89L5.61-2.358A1.815,1.815,0,0,1,3.74-1.079c-1.479,0-2.109-1.05-2.109-2.422A2.046,2.046,0,0,1,3.721-5.83a1.734,1.734,0,0,1,1.87,1.26l1.157-.459A3.14,3.14,0,0,0,3.73-7.012,3.237,3.237,0,0,0,.4-3.452,3.235,3.235,0,0,0,3.74.1ZM6.763,0H8.115l.537-1.5h2.681L11.865,0H13.2L10.454-6.9H9.526Zm2.31-2.559L10-5.078l.918,2.52ZM14.873,0h1.24V-5.791h2.158V-6.9H12.71v1.108h2.163Zm4.39,0h4.59V-1.172H20.5V-2.881h3.12V-4.019H20.5V-5.762h3.35V-6.9h-4.59Zm8.911.1A2.284,2.284,0,0,0,30.215-.972L30.322,0H31.3V-3.73H28.535v1H30.1a1.9,1.9,0,0,1-1.929,1.719c-1.479,0-2.109-1.118-2.109-2.49,0-1.279.63-2.427,2.09-2.427A1.894,1.894,0,0,1,30.073-4.57l1.1-.459a3.136,3.136,0,0,0-3.008-1.982c-2.28,0-3.33,1.67-3.33,3.56A3.235,3.235,0,0,0,28.174.1Zm7.48,0a3.229,3.229,0,0,0,3.33-3.55A3.229,3.229,0,0,0,35.654-7a3.229,3.229,0,0,0-3.33,3.55A3.229,3.229,0,0,0,35.654.1Zm0-1.1c-1.479,0-2.021-1.147-2.021-2.451S34.175-5.9,35.654-5.9s2.021,1.147,2.021,2.446S37.134-1,35.654-1ZM40.273.01h1.24V-2.949h.83L44.043.01h1.421L43.545-3.071a1.891,1.891,0,0,0,1.348-1.8A2.139,2.139,0,0,0,42.5-6.9H40.273Zm1.25-3.97V-5.791h.991c.708,0,1.152.371,1.152.942,0,.518-.391.859-1.05.889ZM46.465,0h1.24V-6.9h-1.24Zm3.018,0h4.59V-1.172h-3.35V-2.881h3.12V-4.019h-3.12V-5.762h3.35V-6.9h-4.59Zm8.052.078a2.169,2.169,0,0,0,2.4-2.09c0-2.29-3.34-1.851-3.34-3.149a.786.786,0,0,1,.869-.737,1.249,1.249,0,0,1,1.113.737l1.03-.63A2.309,2.309,0,0,0,57.5-7a1.951,1.951,0,0,0-2.153,1.9c0,2.246,3.34,1.768,3.34,3.2,0,.488-.4.879-1.138.879a1.315,1.315,0,0,1-1.431-1.24l-1.23.313A2.507,2.507,0,0,0,57.534.078Z" transform="translate(0.037 -97)" fill="#5151fc"/>
    </g>
    <g id="Numero_di_paragrafo" data-name="Numero di paragrafo" transform="translate(0.451 120.352)">
      <g id="Group_24926" data-name="Group 24926">
        <text id="Paragraph_number" data-name="Paragraph number" transform="translate(789.037 -55.988)" font-size="10" font-family="HKGrotesk-Regular, HK Grotesk" style="isolation: isolate"><tspan x="0" y="0">Paragraph number</tspan></text>
      </g>
    </g>
    <g id="Numerazioni" transform="translate(0.451 120.352)" style="isolation: isolate">
      <text id="NUMBERS" transform="translate(710.037 -97)" fill="#5151fc" font-size="10" font-family="HKGrotesk-Bold, HK Grotesk" font-weight="700" style="isolation: isolate"><tspan x="0" y="0">NUMBERS</tspan></text>
    </g>
    <g id="Occorrenze_testo_dubitativo" data-name="Occorrenze testo dubitativo" transform="translate(0.451 120.352)">
      <g id="Group_24927" data-name="Group 24927">
        <text id="Occurrences_of_dubitative_text" data-name="Occurrences of dubitative text" transform="translate(789.037 -77.988)" font-size="10" font-family="HKGrotesk-Regular, HK Grotesk" style="isolation: isolate"><tspan x="0" y="0">Occurrences of dubitative text</tspan></text>
      </g>
    </g>
    <g id="Ellipse_4" data-name="Ellipse 4" transform="translate(0.451 120.352)">
      <circle id="Ellipse_33612" data-name="Ellipse 33612" cx="5.793" cy="5.793" r="5.793" transform="translate(737.244 -87.201)" fill="#fff"/>
      <circle id="Ellipse_33613" data-name="Ellipse 33613" cx="6" cy="6" r="6" transform="translate(737.037 -87.408)" fill="none" stroke="#5151fc" stroke-width="0.414"/>
    </g>
    <g id="Ellipse_7" data-name="Ellipse 7" transform="translate(0.451 120.352)">
      <circle id="Ellipse_33614" data-name="Ellipse 33614" cx="5.793" cy="5.793" r="5.793" transform="translate(761.244 -87.201)" fill="#fff"/>
      <circle id="Ellipse_33615" data-name="Ellipse 33615" cx="6" cy="6" r="6" transform="translate(761.037 -87.408)" fill="none" stroke="#5151fc" stroke-width="0.414"/>
    </g>
    <g id="Ellipse_6" data-name="Ellipse 6" transform="translate(0.451 120.352)">
      <circle id="Ellipse_33616" data-name="Ellipse 33616" cx="5.793" cy="5.793" r="5.793" transform="translate(711.244 -87.201)" fill="#fff"/>
      <circle id="Ellipse_33617" data-name="Ellipse 33617" cx="6" cy="6" r="6" transform="translate(711.037 -87.408)" fill="none" stroke="#5151fc" stroke-width="0.414"/>
    </g>
    <g id="_12" data-name=" 12" transform="translate(0.451 120.352)" style="isolation: isolate">
      <text id="_12-2" data-name="12" transform="translate(738.301 -78.791)" fill="#5151fc" font-size="7" font-family="HKGrotesk-SemiBold, HK Grotesk" font-weight="600" style="isolation: isolate"><tspan x="0" y="0">12</tspan></text>
    </g>
    <g id="_41" data-name=" 41" transform="translate(0.451 120.352)" style="isolation: isolate">
      <text id="_41-2" data-name="41" transform="translate(763.312 -78.791)" fill="#5151fc" font-size="7" font-family="HKGrotesk-SemiBold, HK Grotesk" font-weight="600" style="isolation: isolate"><tspan x="0" y="0">41</tspan></text>
    </g>
    <g id="_1" data-name=" 1" transform="translate(0.451 120.352)" style="isolation: isolate">
      <text id="_1-2" data-name="1" transform="translate(714.669 -78.791)" fill="#5151fc" font-size="7" font-family="HKGrotesk-SemiBold, HK Grotesk" font-weight="600" style="isolation: isolate"><tspan x="0" y="0">1</tspan></text>
    </g>
    <g id="Group_24928" data-name="Group 24928" transform="translate(0.451 120.352)">
      <rect id="Rectangle_19-2" data-name="Rectangle 19-2" width="20" height="10" transform="translate(723.037 -63.988)" fill="#f7f8f8"/>
      <rect id="Rectangle_24" data-name="Rectangle 24" width="28" height="10" transform="translate(747.037 -63.988)" fill="#f7f8f8"/>
      <line id="Line_63-2" data-name="Line 63-2" x2="18.492" transform="translate(724.037 -58.988)" fill="none" stroke="#333" stroke-linecap="square" stroke-miterlimit="10" stroke-width="1" stroke-dasharray="0 4"/>
      <line id="Line_67" data-name="Line 67" y1="0.07" x2="18.5" transform="translate(748.537 -58.988)" fill="none" stroke="#333" stroke-linecap="square" stroke-miterlimit="10" stroke-width="1" stroke-dasharray="0 4"/>
      <line id="Line_68" data-name="Line 68" x2="15" transform="translate(760.537 -58.918)" fill="none" stroke="#333" stroke-linecap="square" stroke-miterlimit="10" stroke-width="1" stroke-dasharray="0 4"/>
      <g id="_18" data-name=" 18" style="isolation: isolate">
        <text id="_18-2" data-name="18" transform="translate(710.301 -56.418)" fill="#5151fc" font-size="8" font-family="HKGrotesk-SemiBold, HK Grotesk" font-weight="600" style="isolation: isolate"><tspan x="0" y="0">18</tspan></text>
      </g>
    </g>
    <line id="Line_7940" data-name="Line 7940" x2="938" transform="translate(0.488 0.352)" fill="none" stroke="#5151fc" stroke-miterlimit="10" stroke-width="0.5"/>
    <path id="Rectangle_13359" data-name="Rectangle 13359" d="M4.549-85.988h11a5,5,0,0,1,5,5h0a5,5,0,0,1-5,5h-11a5,5,0,0,1-5-5h0A5,5,0,0,1,4.549-85.988Z" transform="translate(0.451 120.352)" fill="#ffd93b" opacity="0.4" style="isolation: isolate"/>
    <path id="Rectangle_13360" data-name="Rectangle 13360" d="M4.549-63.988h11a5,5,0,0,1,5,5h0a5,5,0,0,1-5,5h-11a5,5,0,0,1-5-5h0A5,5,0,0,1,4.549-63.988Z" transform="translate(0.451 120.352)" fill="#10bed2" opacity="0.4" style="isolation: isolate"/>
    <line id="Line_7939" data-name="Line 7939" x2="938" transform="translate(0.488 103.962)" fill="none" stroke="#5151fc" stroke-miterlimit="10" stroke-width="0.5"/>
    <path id="Path_161950" data-name="Path 161950" d="M1.035,0h.771V-6.23L3.877-.6h.85L6.8-6.23V0h.767V-6.9H6.309L4.287-1.357,2.295-6.9H1.035Zm10.2.068A2.392,2.392,0,0,0,13.1-.693l-.5-.4a1.7,1.7,0,0,1-1.372.522A1.444,1.444,0,0,1,9.8-2.192h3.4c.01-.088.024-.249.024-.376,0-1.123-.488-2.378-2.07-2.378-1.416,0-2.119,1.226-2.119,2.534A2.211,2.211,0,0,0,11.235.068ZM9.8-2.788c.039-.83.459-1.558,1.353-1.558,1,0,1.353.776,1.372,1.558ZM15.62.1a1.821,1.821,0,0,0,1.714-1.04L17.349,0h.62V-2.993A1.8,1.8,0,0,0,16.06-4.98a2.164,2.164,0,0,0-1.841.957l.532.415A1.605,1.605,0,0,1,16.1-4.346c.884,0,1.2.64,1.2,1.558H16.187c-1.387,0-2.148.454-2.148,1.431A1.43,1.43,0,0,0,15.62.1ZM15.7-.518c-.508,0-.913-.239-.913-.82,0-.649.5-.9,1.465-.9H17.3A1.683,1.683,0,0,1,15.7-.518ZM19.487,0h.728V-2.534c0-1.211.61-1.812,1.377-1.812.859,0,1.108.781,1.108,1.455V0h.723V-2.964c0-1.074-.474-2-1.636-2a1.752,1.752,0,0,0-1.572.938v-.85h-.728Zm5.42-5.962h.83V-6.9h-.83ZM24.961,0h.723V-4.878h-.723Zm2.373,0h.728V-2.534c0-1.211.61-1.812,1.377-1.812.859,0,1.108.781,1.108,1.455V0h.723V-2.964c0-1.074-.474-2-1.636-2a1.752,1.752,0,0,0-1.572.938v-.85h-.728Zm7.217-.63c-.693-.1-1.3-.244-1.3-.747a.462.462,0,0,1,.21-.376,2.079,2.079,0,0,0,.918.205,1.661,1.661,0,0,0,1.8-1.68A1.761,1.761,0,0,0,36-4.019l.786-.62-.415-.518-.732.664a1.855,1.855,0,0,0-1.26-.454,1.7,1.7,0,0,0-1.826,1.709,1.625,1.625,0,0,0,.41,1.113,1,1,0,0,0-.356.806,1.082,1.082,0,0,0,.62,1l-.7.708A1.287,1.287,0,0,0,32.5.576c0,.928.835,1.66,2.1,1.66,1.025,0,1.953-.479,1.953-1.484C36.563-.352,35.542-.5,34.551-.63Zm-.186-3.74a1.059,1.059,0,0,1,1.079,1.118,1.023,1.023,0,0,1-1.079,1.1,1.019,1.019,0,0,1-1.074-1.1A1.066,1.066,0,0,1,34.365-4.37Zm.3,5.962c-.947,0-1.484-.5-1.489-1l.576-.7a4.948,4.948,0,0,0,.581.127c.835.142,1.577.166,1.577.791C35.913,1.338,35.313,1.592,34.668,1.592Z" transform="translate(31.479 86.364)"/>
    <path id="Path_161951" data-name="Path 161951" d="M3.682.1A2.923,2.923,0,0,0,6.514-1.748L5.8-2.056A2.028,2.028,0,0,1,3.73-.615c-1.685,0-2.358-1.338-2.358-2.861,0-1.489.654-2.817,2.339-2.817a1.968,1.968,0,0,1,2.08,1.426L6.5-5.176A2.726,2.726,0,0,0,3.745-7.012C1.548-7.012.61-5.371.61-3.467.61-1.519,1.592.1,3.682.1ZM9.463.1a2.4,2.4,0,0,0,2.324-2.549A2.383,2.383,0,0,0,9.463-4.98a2.361,2.361,0,0,0-2.3,2.529A2.376,2.376,0,0,0,9.463.1Zm0-.605C8.394-.508,7.9-1.465,7.9-2.451s.5-1.924,1.582-1.924,1.572.947,1.572,1.924S10.562-.508,9.468-.508ZM13.027,0h.728V-2.534c0-1.211.61-1.812,1.377-1.812.859,0,1.108.781,1.108,1.455V0h.723V-2.964c0-1.074-.474-2-1.636-2a1.752,1.752,0,0,0-1.572.938v-.85h-.728Zm6.821.1A1.966,1.966,0,0,0,20.5,0V-.625a1.164,1.164,0,0,1-.488.122c-.356,0-.62-.249-.62-.786V-4.282H20.63v-.6H19.395V-6.66l-.723.684v1.1h-.786v.6h.781v2.988C18.667-.459,18.984.1,19.849.1ZM23.56.068a2.392,2.392,0,0,0,1.865-.762l-.5-.4a1.7,1.7,0,0,1-1.372.522,1.444,1.444,0,0,1-1.426-1.621h3.4c.01-.088.024-.249.024-.376,0-1.123-.488-2.378-2.07-2.378-1.416,0-2.119,1.226-2.119,2.534A2.211,2.211,0,0,0,23.56.068ZM22.129-2.788c.039-.83.459-1.558,1.353-1.558,1,0,1.353.776,1.372,1.558ZM26.807,0h.728V-2.534c0-1.211.61-1.812,1.377-1.812.859,0,1.108.781,1.108,1.455V0h.723V-2.964c0-1.074-.474-2-1.636-2a1.752,1.752,0,0,0-1.572.938v-.85h-.728Zm6.821.1a1.966,1.966,0,0,0,.654-.1V-.625a1.164,1.164,0,0,1-.488.122c-.356,0-.62-.249-.62-.786V-4.282h1.235v-.6H33.174V-6.66l-.723.684v1.1h-.786v.6h.781v2.988C32.446-.459,32.764.1,33.628.1Z" transform="translate(31.48 42.364)"/>
    <path id="Path_161952" data-name="Path 161952" d="M1.035,0h.776V-3.13H5.029v-.649H1.812V-6.23H5.459V-6.9H1.035ZM8.218.1a2.4,2.4,0,0,0,2.324-2.549A2.383,2.383,0,0,0,8.218-4.98a2.361,2.361,0,0,0-2.3,2.529A2.376,2.376,0,0,0,8.218.1Zm0-.605c-1.074,0-1.572-.957-1.572-1.943s.5-1.924,1.582-1.924S9.8-3.428,9.8-2.451,9.316-.508,8.223-.508ZM11.782,0H12.5V-2.437c0-1.177.5-1.846,1.333-1.846a.888.888,0,0,1,.6.186l.308-.63a1.268,1.268,0,0,0-.786-.254,1.572,1.572,0,0,0-1.44.967v-.864h-.728Zm3.892,0h.737V-2.544c0-.884.435-1.816,1.245-1.816.835,0,1.025.776,1.025,1.45V0h.742V-2.705c0-.8.435-1.655,1.235-1.655.845,0,1.045.806,1.045,1.47V0h.737V-2.964c0-1.084-.488-2.017-1.694-2.017A1.618,1.618,0,0,0,19.229-3.96,1.465,1.465,0,0,0,17.739-4.98a1.459,1.459,0,0,0-1.328.859v-.757h-.737Z" transform="translate(31.479 64.364)"/>
  </g>
</svg>
