<?xml version="1.0" encoding="utf-8"?>
<!-- Generator: Adobe Illustrator 25.1.0, SVG Export Plug-In . SVG Version: 6.00 Build 0)  -->
<svg version="1.1" id="Layer_1" xmlns="http://www.w3.org/2000/svg" xmlns:xlink="http://www.w3.org/1999/xlink" x="0px" y="0px"
	 viewBox="0 0 385 118" style="enable-background:new 0 0 385 118;" xml:space="preserve">
<style type="text/css">
	.st0{enable-background:new    ;}
	.st1{fill:none;stroke:#000000;stroke-width:0.5;}
</style>
<g class="st0">
	<path d="M41.3,95.6l-1.6,8.4h-0.9l1.4-7.1l-3.8,6.4h-0.8l-1.3-6.6l-1.4,7.3H32l1.6-8.4h1.2l1.3,6.6l3.9-6.6H41.3z"/>
	<path d="M42.9,101.3c0,0.2-0.1,0.4-0.1,0.6c0,0.9,0.5,1.5,1.4,1.5c0.7,0,1.2-0.2,1.8-0.8l0.5,0.6c-0.8,0.7-1.5,1-2.4,1
		c-1.5,0-2.2-0.9-2.2-2.3c0-2,1.3-3.8,3.2-3.8c1.5,0,2,1,2,2.1c0,0.3-0.1,0.9-0.2,1.2H42.9z M43.1,100.6h3.4
		c0.1-0.2,0.1-0.4,0.1-0.6c0-0.7-0.4-1.3-1.3-1.3C44.1,98.7,43.4,99.6,43.1,100.6z"/>
	<path d="M54.3,98.1l-1.2,5.9h-0.8l0.2-0.8c-0.5,0.6-1.3,0.9-2,0.9c-1.4,0-2.1-0.9-2.1-2.3c0-1.9,1.4-3.8,3.2-3.8
		c0.8,0,1.5,0.4,1.8,1l0.2-0.9H54.3z M51.6,98.7c-1.4,0-2.4,1.5-2.4,2.9c0,1,0.5,1.6,1.5,1.6c1.3,0,2.3-1.2,2.4-2.6
		C53.2,99.6,52.7,98.7,51.6,98.7z"/>
	<path d="M60.5,99.6c0,0.3-0.1,0.7-0.1,0.8l-0.7,3.6h-0.8l0.7-3.5c0-0.2,0.1-0.4,0.1-0.7c0-0.6-0.3-1.1-1-1.1
		c-1.2,0-1.8,1.1-2.1,2.6L56,104h-0.8l1.2-5.9h0.8L57,98.8c0.5-0.6,1.2-0.8,1.9-0.8C60,98,60.5,98.6,60.5,99.6z"/>
	<path d="M62.8,98.1h0.8l-1.2,5.9h-0.8L62.8,98.1z M63.2,95.6h0.9l-0.2,1.2H63L63.2,95.6z"/>
	<path d="M69.8,99.6c0,0.3-0.1,0.7-0.1,0.8L69,104h-0.8l0.7-3.5c0-0.2,0.1-0.4,0.1-0.7c0-0.6-0.3-1.1-1-1.1c-1.2,0-1.8,1.1-2.1,2.6
		l-0.5,2.7h-0.8l1.2-5.9h0.8l-0.1,0.7c0.5-0.6,1.2-0.8,1.9-0.8C69.3,98,69.8,98.6,69.8,99.6z"/>
	<path d="M71.7,102.5c0,1.3,3.5,0.2,3.5,2.2c0,1.2-1.3,1.8-2.8,1.8c-1.4,0-2.2-0.5-2.2-1.5c0-0.2,0-0.4,0.1-0.6l1.2-0.8
		c-0.4-0.2-0.6-0.5-0.6-1c0-0.6,0.4-1,0.9-1.3c-0.2-0.3-0.3-0.6-0.3-1c0-1.3,1.2-2.4,2.6-2.4c0.6,0,1,0.2,1.4,0.5l0.9-0.7l0.3,0.5
		L75.8,99c0.1,0.2,0.1,0.5,0.1,0.7c0,1.4-1.2,2.4-2.5,2.4c-0.4,0-0.8-0.1-1.1-0.3C72,102,71.7,102.2,71.7,102.5z M72.1,103.8l-1,0.8
		c0,0.1,0,0.3,0,0.3c0,0.6,0.6,0.8,1.5,0.8c1,0,1.9-0.3,1.9-1C74.4,104,73.1,104.1,72.1,103.8z M72.3,100.4c0,0.6,0.4,1,1.1,1
		c1,0,1.7-0.8,1.7-1.7c0-0.7-0.4-1.1-1.1-1.1C73.1,98.7,72.3,99.5,72.3,100.4z"/>
</g>
<g class="st0">
	<path d="M11.8,106c-3,0-5.3-2-5.3-4.8c0-1.9,1-2.9,2.4-3.2l0.4,1.5c-0.9,0.1-1.5,0.7-1.5,1.9c0,1.9,1.8,3.1,3.8,3.1
		c1.1,0,2-0.6,2-1.9c0-1.2-0.7-2.1-1.6-2.6l0.6-1.3c1.4,0.8,2.4,2.1,2.4,4C15.1,105,13.7,106,11.8,106z"/>
	<path d="M9.1,92.1l5.9,1.2v1.4l-0.7-0.1c0.6,0.5,0.8,1.1,0.8,1.7c0,1.3-0.9,1.9-2.2,1.9c-2,0-3.9-1.2-3.9-3c0-0.7,0.3-1.2,0.8-1.5
		l-0.6-0.1V92.1z M11.4,93.8c-0.7,0-1.2,0.3-1.2,1.1c0,1.2,1.2,1.8,2.5,1.8c0.7,0,1.1-0.3,1.1-1C13.8,94.5,12.6,93.8,11.4,93.8z"/>
	<path d="M13.3,89.8c0.1,0,0.1,0,0.2,0c0.3,0,0.4-0.2,0.4-0.6c0-0.2-0.1-0.5-0.1-0.8l1.2,0.2c0.1,0.4,0.2,0.7,0.2,1
		c0,0.9-0.4,1.6-1.4,1.6c-0.2,0-0.3,0-0.5,0l-3.1-0.6v0.9l-1.1-0.2v-0.9l-1.2-0.2l-1.1-1.7l2.2,0.4v-1.4l1.1,0.2v1.4L13.3,89.8z"/>
	<path d="M12.6,86.3c0.1,0,0.1,0,0.2,0c0.6,0,1-0.3,1-1.1c0-0.6-0.2-1-0.7-1.5l1-0.9c0.7,0.8,1,1.6,1,2.5c0,1.7-1.1,2.3-2.4,2.3
		c-2.1,0-3.8-1.4-3.8-3.3c0-1.5,1-2.2,2.3-2.2c0.5,0,1,0.1,1.3,0.2V86.3z M11.5,86.1v-2.5c-0.2-0.1-0.3-0.1-0.5-0.1
		c-0.5,0-0.9,0.4-0.9,1C10.2,85.5,10.9,86,11.5,86.1z"/>
	<path d="M13.6,80.8c1,0,0-3.4,2.1-3.4c1.3,0,1.9,1.4,1.9,2.9c0,1.5-0.6,2.4-1.6,2.4c-0.2,0-0.4,0-0.6-0.1l-0.6-1
		c-0.2,0.3-0.5,0.4-0.9,0.4c-0.6,0-1.1-0.4-1.4-0.8c-0.3,0.2-0.6,0.3-1,0.3c-1.4,0-2.5-1.3-2.5-2.7c0-0.5,0.1-0.9,0.4-1.3l-0.8-1
		l0.9-0.6l0.7,1c0.2-0.1,0.4-0.1,0.7-0.1c1.4,0,2.5,1.3,2.5,2.7c0,0.4-0.1,0.7-0.2,1C13.3,80.6,13.4,80.8,13.6,80.8z M11.5,80.1
		c0.4,0,0.7-0.2,0.7-0.7c0-0.7-0.7-1.2-1.3-1.2c-0.5,0-0.7,0.3-0.7,0.7C10.2,79.5,10.8,80.1,11.5,80.1z M15.2,80.6l0.6,0.7
		c0,0,0.1,0,0.2,0c0.4,0,0.6-0.4,0.6-1.1c0-0.9-0.3-1.4-0.7-1.4C15.3,78.8,15.3,79.7,15.2,80.6z"/>
	<path d="M12.7,76.1c-2,0-3.7-1.5-3.7-3.4c0-1.5,1.1-2.4,2.4-2.4c2,0,3.7,1.5,3.7,3.4C15.1,75.2,14,76.1,12.7,76.1z M11.4,71.7
		c-0.7,0-1.2,0.3-1.2,1.1c0,1.2,1.2,1.9,2.4,1.9c0.7,0,1.2-0.3,1.2-1.1C13.9,72.4,12.6,71.7,11.4,71.7z"/>
	<path d="M9.3,64.9l1.2,0.9c-0.1,0.2-0.2,0.4-0.2,0.6c0,0.9,0.6,1.4,1.7,1.6l2.9,0.6V70l-5.9-1.2v-1.5l0.9,0.2c-0.7-0.4-1-1.1-1-1.7
		C9,65.5,9.1,65.2,9.3,64.9z"/>
	<path d="M6.6,63.7v-1.5L8,62.4V64L6.6,63.7z M9.1,64.1v-1.4l5.9,1.2v1.4L9.1,64.1z"/>
	<path d="M12.6,61.1c0.1,0,0.1,0,0.2,0c0.6,0,1-0.3,1-1.1c0-0.6-0.2-1-0.7-1.5l1-0.9c0.7,0.8,1,1.6,1,2.5c0,1.7-1.1,2.3-2.4,2.3
		c-2.1,0-3.8-1.4-3.8-3.3c0-1.5,1-2.2,2.3-2.2c0.5,0,1,0.1,1.3,0.2V61.1z M11.5,60.8v-2.5c-0.2-0.1-0.3-0.1-0.5-0.1
		c-0.5,0-0.9,0.4-0.9,1C10.2,60.2,10.9,60.7,11.5,60.8z"/>
	<path d="M13.4,56.9L13,55.7c0.4-0.1,0.9-0.4,0.9-1.1c0-0.6-0.3-1-0.7-1c-0.9,0-0.7,2.4-2.4,2.4c-1.1,0-1.8-1-1.8-2.3
		c0-1,0.5-1.7,1.3-2.1l0.5,1.2c-0.4,0.1-0.7,0.4-0.7,1c0,0.4,0.2,0.8,0.5,0.8c0.8,0,0.6-2.4,2.4-2.4c1.2,0,2.1,1.1,2.1,2.4
		C15.1,55.9,14.3,56.8,13.4,56.9z"/>
</g>
<g class="st0">
	<path d="M225.8,14.9l1.5-0.3c-0.1,1,0.6,1.4,1.4,1.4c0.9,0,1.5-0.5,1.5-1.2c0-0.7-0.6-1-1.3-1.3c-0.9-0.4-1.9-0.9-1.9-2.2
		c0-1.5,1.2-2.5,2.8-2.5c1.1,0,2,0.5,2.4,1.5l-1.4,0.7c-0.1-0.6-0.7-0.9-1.2-0.9c-0.6,0-1.1,0.4-1.1,1c0,0.6,0.7,0.9,1.3,1.2
		c1,0.5,1.9,1,1.9,2.2c0,1.6-1.4,2.8-3.1,2.8C227.2,17.4,225.8,16.5,225.8,14.9z"/>
	<path d="M234.2,15.6c0,0.1,0,0.1,0,0.2c0,0.3,0.2,0.4,0.6,0.4c0.2,0,0.5-0.1,0.8-0.1l-0.2,1.2c-0.4,0.1-0.7,0.2-1,0.2
		c-0.9,0-1.6-0.4-1.6-1.4c0-0.2,0-0.3,0-0.5l0.6-3.1h-0.9l0.2-1.1h0.9l0.2-1.2l1.7-1.1l-0.4,2.2h1.4l-0.2,1.1h-1.4L234.2,15.6z"/>
	<path d="M242.8,11.4l-4.9,8.4h-1.6l1.5-2.6l-1.1-5.7h1.6l0.6,3.9l2.2-3.9H242.8z"/>
	<path d="M242.5,15.8l1.3-6.9h1.4l-1.3,6.9c0,0.3,0.1,0.3,0.3,0.3c0.2,0,0.3,0,0.5-0.1l-0.2,1.2c-0.3,0.1-0.7,0.2-0.9,0.2
		C242.8,17.4,242.3,16.9,242.5,15.8z"/>
	<path d="M246.7,14.9c0,0.1,0,0.1,0,0.2c0,0.6,0.3,1,1.1,1c0.6,0,1-0.2,1.5-0.7l0.9,1c-0.8,0.7-1.6,1-2.5,1c-1.7,0-2.3-1.1-2.3-2.4
		c0-2.1,1.4-3.8,3.3-3.8c1.5,0,2.2,1,2.2,2.3c0,0.5-0.1,1-0.2,1.3H246.7z M246.9,13.8h2.5c0.1-0.2,0.1-0.3,0.1-0.5
		c0-0.5-0.4-0.9-1-0.9C247.6,12.5,247.1,13.2,246.9,13.8z"/>
	<path d="M250.8,15.7l1.2-0.4c0.1,0.4,0.4,0.9,1.1,0.9c0.6,0,1-0.3,1-0.7c0-0.9-2.4-0.7-2.4-2.4c0-1.1,1-1.8,2.3-1.8
		c1,0,1.7,0.5,2.1,1.3l-1.2,0.5c-0.1-0.4-0.4-0.7-1-0.7c-0.4,0-0.8,0.2-0.8,0.5c0,0.8,2.4,0.6,2.4,2.4c0,1.2-1.1,2.1-2.4,2.1
		C251.8,17.4,250.9,16.6,250.8,15.7z"/>
</g>
<g class="st0">
	<path d="M33.6,75.6h5.5l-0.2,0.8h-4.6l-0.6,2.9h4l-0.2,0.8h-4L32.8,84H32L33.6,75.6z"/>
	<path d="M38.9,81.7c0-2,1.5-3.7,3.3-3.7c1.4,0,2.3,1,2.3,2.4c0,2-1.5,3.8-3.4,3.8C39.8,84.1,38.9,83.1,38.9,81.7z M43.7,80.3
		c0-1-0.5-1.6-1.5-1.6c-1.5,0-2.5,1.5-2.5,3c0,1,0.5,1.6,1.5,1.6C42.7,83.4,43.7,81.9,43.7,80.3z"/>
	<path d="M50.1,78.2l-0.5,0.7c-0.1-0.1-0.4-0.2-0.7-0.2c-0.8,0-1.7,0.6-2,2.2l-0.6,3h-0.8l1.2-5.9h0.8l-0.2,0.8
		c0.5-0.7,1.3-0.9,1.8-0.9C49.5,78,49.8,78.1,50.1,78.2z"/>
	<path d="M59,79.7c0,0.3-0.1,0.5-0.1,0.8L58.2,84h-0.8l0.7-3.4c0-0.2,0.1-0.6,0.1-0.8c0-0.6-0.2-1.1-1-1.1c-1.1,0-1.7,1.2-1.9,2.5
		L54.7,84h-0.8l0.7-3.5c0.1-0.3,0.1-0.5,0.1-0.8c0-0.6-0.3-1.1-0.9-1.1c-1.1,0-1.7,1.1-1.9,2.5L51.2,84h-0.8l1.1-5.9h0.8l-0.1,0.7
		c0.5-0.6,1.2-0.8,1.8-0.8c0.7,0,1.3,0.3,1.4,1.1c0.5-0.8,1.3-1.1,2.1-1.1C58.6,78,59,78.7,59,79.7z"/>
</g>
<g class="st0">
	<path d="M300.8,40.2l1.4,3.8h-0.9l-1.3-3.7h-0.6h-1.1l-0.7,3.7h-0.9l1.6-8.4h2.3c1.5,0,2.3,0.7,2.3,1.8
		C302.9,38.9,302.2,39.8,300.8,40.2z M299.8,39.5c1.4,0,2.2-0.7,2.2-1.9c0-0.8-0.6-1.2-1.6-1.2H299l-0.6,3.1H299.8z"/>
	<path d="M304.6,41.3c0,0.2-0.1,0.4-0.1,0.6c0,0.9,0.5,1.5,1.4,1.5c0.7,0,1.2-0.2,1.8-0.8l0.5,0.6c-0.8,0.7-1.5,1-2.4,1
		c-1.5,0-2.2-0.9-2.2-2.3c0-2,1.3-3.8,3.2-3.8c1.5,0,2,1,2,2.1c0,0.3-0.1,0.9-0.2,1.2H304.6z M304.8,40.6h3.4
		c0.1-0.2,0.1-0.4,0.1-0.6c0-0.7-0.4-1.3-1.3-1.3C305.8,38.7,305.1,39.6,304.8,40.6z"/>
	<path d="M311.5,38.7h-1.2l0.1-0.6h1.2l0.2-0.9c0.2-1.2,0.9-1.7,1.9-1.7c0.4,0,0.6,0.1,0.9,0.2l-0.4,0.6c-0.2-0.1-0.3-0.2-0.5-0.2
		c-0.7,0-1,0.5-1.1,1l-0.2,0.8h1.6l-0.1,0.6h-1.6l-1,5.3h-0.8L311.5,38.7z"/>
	<path d="M314.3,41.7c0-2,1.5-3.7,3.3-3.7c1.4,0,2.3,1,2.3,2.4c0,2-1.5,3.8-3.4,3.8C315.1,44.1,314.3,43.1,314.3,41.7z M319,40.3
		c0-1-0.5-1.6-1.5-1.6c-1.5,0-2.5,1.5-2.5,3c0,1,0.5,1.6,1.5,1.6C318,43.4,319,41.9,319,40.3z"/>
	<path d="M325.4,38.2l-0.5,0.7c-0.1-0.1-0.4-0.2-0.7-0.2c-0.8,0-1.7,0.6-2,2.2l-0.6,3h-0.8l1.2-5.9h0.8l-0.2,0.8
		c0.5-0.7,1.3-0.9,1.8-0.9C324.8,38,325.2,38.1,325.4,38.2z"/>
	<path d="M334.4,39.7c0,0.3-0.1,0.5-0.1,0.8l-0.7,3.5h-0.8l0.7-3.4c0-0.2,0.1-0.6,0.1-0.8c0-0.6-0.2-1.1-1-1.1
		c-1.1,0-1.7,1.2-1.9,2.5l-0.5,2.8h-0.8l0.7-3.5c0.1-0.3,0.1-0.5,0.1-0.8c0-0.6-0.3-1.1-0.9-1.1c-1.1,0-1.7,1.1-1.9,2.5l-0.6,2.8
		h-0.8l1.1-5.9h0.8l-0.1,0.7c0.5-0.6,1.2-0.8,1.8-0.8c0.7,0,1.3,0.3,1.4,1.1c0.5-0.8,1.3-1.1,2.1-1.1
		C333.9,38,334.4,38.7,334.4,39.7z"/>
	<path d="M341.1,38.1l-1.2,5.9h-0.8l0.1-0.7c-0.5,0.6-1.2,0.8-1.9,0.8c-1.1,0-1.6-0.6-1.6-1.6c0-0.3,0.1-0.7,0.1-0.8l0.7-3.6h0.8
		l-0.7,3.5c0,0.2-0.1,0.4-0.1,0.7c0,0.6,0.3,1.1,1,1.1c1.2,0,1.8-1.1,2.1-2.6l0.5-2.7H341.1z"/>
	<path d="M342.1,42.7l1.4-7.1h0.8l-1.4,7.1c-0.1,0.5,0,0.6,0.4,0.6c0.2,0,0.3,0,0.6-0.1l-0.1,0.7c-0.3,0.1-0.6,0.1-0.8,0.1
		C342.3,44.1,341.9,43.6,342.1,42.7z"/>
	<path d="M351.3,38.1l-1.2,5.9h-0.8l0.2-0.8c-0.5,0.6-1.3,0.9-2,0.9c-1.4,0-2.1-0.9-2.1-2.3c0-1.9,1.4-3.8,3.2-3.8
		c0.8,0,1.5,0.4,1.8,1l0.2-0.9H351.3z M348.6,38.7c-1.4,0-2.4,1.5-2.4,2.9c0,1,0.5,1.6,1.5,1.6c1.3,0,2.3-1.2,2.4-2.6
		C350.2,39.6,349.7,38.7,348.6,38.7z"/>
	<path d="M353.7,42.6c0,0.1,0,0.3,0,0.3c0,0.3,0.2,0.5,0.6,0.5c0.2,0,0.4,0,0.7-0.1l-0.1,0.7c-0.3,0.1-0.6,0.2-0.9,0.2
		c-0.7,0-1.1-0.3-1.1-1c0-0.1,0-0.3,0-0.5l0.7-3.9h-0.9l0.1-0.6h0.9l0.3-1.6l0.9-0.6l-0.4,2.2h1.4l-0.1,0.6h-1.4L353.7,42.6z"/>
	<path d="M357.6,38.1h0.8l-1.2,5.9h-0.8L357.6,38.1z M358,35.6h0.9l-0.2,1.2h-0.9L358,35.6z"/>
	<path d="M359.4,41.7c0-2,1.5-3.7,3.3-3.7c1.4,0,2.3,1,2.3,2.4c0,2-1.5,3.8-3.4,3.8C360.2,44.1,359.4,43.1,359.4,41.7z M364.2,40.3
		c0-1-0.5-1.6-1.5-1.6c-1.5,0-2.5,1.5-2.5,3c0,1,0.5,1.6,1.5,1.6C363.2,43.4,364.2,41.9,364.2,40.3z"/>
	<path d="M371.3,39.6c0,0.3-0.1,0.7-0.1,0.8l-0.7,3.6h-0.8l0.7-3.5c0-0.2,0.1-0.4,0.1-0.7c0-0.6-0.3-1.1-1-1.1
		c-1.2,0-1.8,1.1-2.1,2.6l-0.5,2.7H366l1.2-5.9h0.8l-0.1,0.7c0.5-0.6,1.2-0.8,1.9-0.8C370.8,38,371.3,38.6,371.3,39.6z"/>
</g>
<g class="st0">
	<path d="M302.6,95.6v0.7l-3.8,7.6h-1.5l3.6-7.1h-4.4v-1.2H302.6z"/>
</g>
<g class="st0">
	<path d="M300.9,75.6V84h-1.3v-5.9h-2v-1.1h1.2c0.5,0,0.8-0.2,0.8-0.8v-0.6H300.9z"/>
</g>
<g class="st0">
	<path d="M120,35.6l-1.6,8.4h-0.9l-2.6-6.9l-1.3,6.9h-0.9l1.6-8.4h0.9l2.6,6.9l1.3-6.9H120z"/>
	<path d="M121.6,41.3c0,0.2-0.1,0.4-0.1,0.6c0,0.9,0.5,1.5,1.4,1.5c0.7,0,1.2-0.2,1.8-0.8l0.5,0.6c-0.8,0.7-1.5,1-2.4,1
		c-1.5,0-2.2-0.9-2.2-2.3c0-2,1.3-3.8,3.2-3.8c1.5,0,2,1,2,2.1c0,0.3-0.1,0.9-0.2,1.2H121.6z M121.7,40.6h3.4
		c0.1-0.2,0.1-0.4,0.1-0.6c0-0.7-0.4-1.3-1.3-1.3C122.8,38.7,122,39.6,121.7,40.6z"/>
	<path d="M127.7,42.5c0,1.3,3.5,0.2,3.5,2.2c0,1.2-1.3,1.8-2.8,1.8c-1.4,0-2.2-0.5-2.2-1.5c0-0.2,0-0.4,0.1-0.6l1.2-0.8
		c-0.4-0.2-0.6-0.5-0.6-1c0-0.6,0.4-1,0.9-1.3c-0.2-0.3-0.3-0.6-0.3-1c0-1.3,1.2-2.4,2.6-2.4c0.6,0,1,0.2,1.4,0.5l0.9-0.7l0.3,0.5
		l-0.9,0.7c0.1,0.2,0.1,0.5,0.1,0.7c0,1.4-1.2,2.4-2.5,2.4c-0.4,0-0.8-0.1-1.1-0.3C127.9,42,127.7,42.2,127.7,42.5z M128,43.8
		l-1,0.8c0,0.1,0,0.3,0,0.3c0,0.6,0.6,0.8,1.5,0.8c1,0,1.9-0.3,1.9-1C130.4,44,129.1,44.1,128,43.8z M128.3,40.4c0,0.6,0.4,1,1.1,1
		c1,0,1.7-0.8,1.7-1.7c0-0.7-0.4-1.1-1.1-1.1C129,38.7,128.3,39.5,128.3,40.4z"/>
	<path d="M139,38.1l-1.2,5.9H137l0.2-0.8c-0.5,0.6-1.3,0.9-2,0.9c-1.4,0-2.1-0.9-2.1-2.3c0-1.9,1.4-3.8,3.2-3.8c0.8,0,1.5,0.4,1.8,1
		l0.2-0.9H139z M136.3,38.7c-1.4,0-2.4,1.5-2.4,2.9c0,1,0.5,1.6,1.5,1.6c1.3,0,2.3-1.2,2.4-2.6C137.8,39.6,137.3,38.7,136.3,38.7z"
		/>
	<path d="M141.3,42.6c0,0.1,0,0.3,0,0.3c0,0.3,0.2,0.5,0.6,0.5c0.2,0,0.4,0,0.7-0.1l-0.1,0.7c-0.3,0.1-0.6,0.2-0.9,0.2
		c-0.7,0-1.1-0.3-1.1-1c0-0.1,0-0.3,0-0.5l0.7-3.9h-0.9l0.1-0.6h0.9l0.3-1.6l0.9-0.6l-0.4,2.2h1.4l-0.1,0.6h-1.4L141.3,42.6z"/>
	<path d="M145.2,38.1h0.8l-1.2,5.9h-0.8L145.2,38.1z M145.7,35.6h0.9l-0.2,1.2h-0.9L145.7,35.6z"/>
	<path d="M147,41.7c0-2,1.5-3.7,3.3-3.7c1.4,0,2.3,1,2.3,2.4c0,2-1.5,3.8-3.4,3.8C147.9,44.1,147,43.1,147,41.7z M151.8,40.3
		c0-1-0.5-1.6-1.5-1.6c-1.5,0-2.5,1.5-2.5,3c0,1,0.5,1.6,1.5,1.6C150.8,43.4,151.8,41.9,151.8,40.3z"/>
	<path d="M159,39.6c0,0.3-0.1,0.7-0.1,0.8l-0.7,3.6h-0.8l0.7-3.5c0-0.2,0.1-0.4,0.1-0.7c0-0.6-0.3-1.1-1-1.1c-1.2,0-1.8,1.1-2.1,2.6
		l-0.5,2.7h-0.8l1.2-5.9h0.8l-0.1,0.7c0.5-0.6,1.2-0.8,1.9-0.8C158.4,38,159,38.6,159,39.6z"/>
</g>
<g class="st0">
	<path d="M112.4,101.4l1.3-0.1c0,1,0.8,1.6,1.8,1.6c0.9,0,1.7-0.5,1.7-1.5c0-1.2-1.2-1.3-2.1-1.3v-1.1c1.2,0,1.7-0.4,1.7-1.2
		c0-0.8-0.6-1.2-1.3-1.2c-0.8,0-1.4,0.5-1.4,1.3l-1.3-0.1c0-1.5,1.2-2.4,2.7-2.4c1.4,0,2.6,0.8,2.6,2.2c0,0.9-0.5,1.5-1,1.7
		c0.9,0.3,1.5,1,1.5,2c0,1.7-1.4,2.6-3.1,2.6C113.8,104.1,112.4,103.2,112.4,101.4z"/>
</g>
<g class="st0">
	<path d="M116.8,75.6V84h-1.3v-5.9h-2v-1.1h1.2c0.5,0,0.8-0.2,0.8-0.8v-0.6H116.8z"/>
</g>
<g class="st0">
	<path d="M207.1,35.6h0.9l-0.7,3.7h4.1l0.7-3.7h0.9l-1.6,8.4h-0.9l0.7-3.9h-4.1l-0.8,3.9h-0.9L207.1,35.6z"/>
	<path d="M214.6,41.3c0,0.2-0.1,0.4-0.1,0.6c0,0.9,0.5,1.5,1.4,1.5c0.7,0,1.2-0.2,1.8-0.8l0.5,0.6c-0.8,0.7-1.5,1-2.4,1
		c-1.5,0-2.2-0.9-2.2-2.3c0-2,1.3-3.8,3.2-3.8c1.5,0,2,1,2,2.1c0,0.3-0.1,0.9-0.2,1.2H214.6z M214.7,40.6h3.4
		c0.1-0.2,0.1-0.4,0.1-0.6c0-0.7-0.4-1.3-1.3-1.3C215.8,38.7,215,39.6,214.7,40.6z"/>
	<path d="M219.6,42.5l0.8-0.3c0.1,0.6,0.6,1.1,1.5,1.1c0.8,0,1.4-0.4,1.4-1.1c0-1.2-2.8-0.8-2.8-2.5c0-1,0.9-1.8,2.1-1.8
		c1,0,1.7,0.5,2,1.2l-0.7,0.3c-0.2-0.6-0.6-0.8-1.3-0.8c-0.7,0-1.2,0.3-1.2,0.9c0,1.1,2.8,0.7,2.8,2.5c0,1.2-1,2-2.3,2
		C220.7,44.1,219.8,43.4,219.6,42.5z"/>
	<path d="M226.5,38.1h0.8l-1.2,5.9h-0.8L226.5,38.1z M227,35.6h0.9l-0.2,1.2h-0.9L227,35.6z"/>
	<path d="M229.7,42.6c0,0.1,0,0.3,0,0.3c0,0.3,0.2,0.5,0.6,0.5c0.2,0,0.4,0,0.7-0.1l-0.1,0.7c-0.3,0.1-0.6,0.2-0.9,0.2
		c-0.7,0-1.1-0.3-1.1-1c0-0.1,0-0.3,0-0.5l0.7-3.9h-0.9l0.1-0.6h0.9l0.3-1.6l0.9-0.6l-0.4,2.2h1.4l-0.1,0.6h-1.4L229.7,42.6z"/>
	<path d="M238.5,38.1l-1.2,5.9h-0.8l0.2-0.8c-0.5,0.6-1.3,0.9-2,0.9c-1.4,0-2.1-0.9-2.1-2.3c0-1.9,1.4-3.8,3.2-3.8
		c0.8,0,1.5,0.4,1.8,1l0.2-0.9H238.5z M235.8,38.7c-1.4,0-2.4,1.5-2.4,2.9c0,1,0.5,1.6,1.5,1.6c1.3,0,2.3-1.2,2.4-2.6
		C237.4,39.6,236.9,38.7,235.8,38.7z"/>
	<path d="M240.9,42.6c0,0.1,0,0.3,0,0.3c0,0.3,0.2,0.5,0.6,0.5c0.2,0,0.4,0,0.7-0.1l-0.1,0.7c-0.3,0.1-0.6,0.2-0.9,0.2
		c-0.7,0-1.1-0.3-1.1-1c0-0.1,0-0.3,0-0.5l0.7-3.9h-0.9l0.1-0.6h0.9l0.3-1.6l0.9-0.6l-0.4,2.2h1.4l-0.1,0.6h-1.4L240.9,42.6z"/>
	<path d="M244.8,38.1h0.8l-1.2,5.9h-0.8L244.8,38.1z M245.2,35.6h0.9l-0.2,1.2H245L245.2,35.6z"/>
	<path d="M246.6,41.7c0-2,1.5-3.7,3.3-3.7c1.4,0,2.3,1,2.3,2.4c0,2-1.5,3.8-3.4,3.8C247.5,44.1,246.6,43.1,246.6,41.7z M251.4,40.3
		c0-1-0.5-1.6-1.5-1.6c-1.5,0-2.5,1.5-2.5,3c0,1,0.5,1.6,1.5,1.6C250.4,43.4,251.4,41.9,251.4,40.3z"/>
	<path d="M258.5,39.6c0,0.3-0.1,0.7-0.1,0.8l-0.7,3.6h-0.8l0.7-3.5c0-0.2,0.1-0.4,0.1-0.7c0-0.6-0.3-1.1-1-1.1
		c-1.2,0-1.8,1.1-2.1,2.6L254,44h-0.8l1.2-5.9h0.8l-0.1,0.7c0.5-0.6,1.2-0.8,1.9-0.8C258,38,258.5,38.6,258.5,39.6z"/>
</g>
<g class="st0">
	<path d="M211.3,101.1c0,1.6-1.3,3-3,3c-1.6,0-2.8-1.1-3-2.5l1.3-0.2c0.1,0.7,0.7,1.5,1.7,1.5c1.1,0,1.6-0.9,1.6-1.8
		c0-0.8-0.5-1.6-1.6-1.6c-0.7,0-1.2,0.4-1.5,0.8l-1.2-0.3l0.8-4.4h4.6v1.2h-3.5l-0.3,1.8c0.5-0.3,1-0.4,1.4-0.4
		C210.1,98.3,211.3,99.6,211.3,101.1z"/>
</g>
<g class="st0">
	<path d="M205.6,79.9h3.4v1h-3.4V79.9z"/>
</g>
<line class="st1" x1="104.1" y1="26" x2="104.1" y2="118"/>
<line class="st1" x1="196.3" y1="26" x2="196.3" y2="118"/>
<line class="st1" x1="288.5" y1="26" x2="288.5" y2="118"/>
<g class="st0">
	<path d="M32.3,61c0-3,1.8-5.4,4.6-5.4c1.8,0,2.7,0.9,2.9,2.3L39,58.1c-0.2-1.1-0.9-1.7-2.2-1.7c-2.3,0-3.7,2.1-3.7,4.6
		c0,1.4,0.6,2.4,2.2,2.4c1.3,0,2.3-0.7,3-1.8l0.8,0.4c-0.8,1.4-2.1,2.3-3.8,2.3C33.3,64.1,32.3,62.8,32.3,61z"/>
	<path d="M40.6,61.7c0-2,1.5-3.7,3.3-3.7c1.4,0,2.3,1,2.3,2.4c0,2-1.5,3.8-3.4,3.8C41.4,64.1,40.6,63.1,40.6,61.7z M45.4,60.3
		c0-1-0.5-1.6-1.5-1.6c-1.5,0-2.5,1.5-2.5,3c0,1,0.5,1.6,1.5,1.6C44.3,63.4,45.4,61.9,45.4,60.3z"/>
	<path d="M52.5,59.6c0,0.3-0.1,0.7-0.1,0.8L51.7,64h-0.8l0.7-3.5c0-0.2,0.1-0.4,0.1-0.7c0-0.6-0.3-1.1-1-1.1c-1.2,0-1.8,1.1-2.1,2.6
		L48,64h-0.8l1.2-5.9h0.8L49,58.8c0.5-0.6,1.2-0.8,1.9-0.8C52,58,52.5,58.6,52.5,59.6z"/>
	<path d="M55.1,62.6c0,0.1,0,0.3,0,0.3c0,0.3,0.2,0.5,0.6,0.5c0.2,0,0.4,0,0.7-0.1l-0.1,0.7c-0.3,0.1-0.6,0.2-0.9,0.2
		c-0.7,0-1.1-0.3-1.1-1c0-0.1,0-0.3,0-0.5l0.7-3.9h-0.9l0.1-0.6h0.9l0.3-1.6l0.9-0.6L56,58.1h1.4l-0.1,0.6h-1.4L55.1,62.6z"/>
	<path d="M58.7,61.3c0,0.2-0.1,0.4-0.1,0.6c0,0.9,0.5,1.5,1.4,1.5c0.7,0,1.2-0.2,1.8-0.8l0.5,0.6c-0.8,0.7-1.5,1-2.4,1
		c-1.5,0-2.2-0.9-2.2-2.3c0-2,1.3-3.8,3.2-3.8c1.5,0,2,1,2,2.1c0,0.3-0.1,0.9-0.2,1.2H58.7z M58.8,60.6h3.4c0.1-0.2,0.1-0.4,0.1-0.6
		c0-0.7-0.4-1.3-1.3-1.3C59.9,58.7,59.1,59.6,58.8,60.6z"/>
	<path d="M69.3,59.6c0,0.3-0.1,0.7-0.1,0.8L68.5,64h-0.8l0.7-3.5c0-0.2,0.1-0.4,0.1-0.7c0-0.6-0.3-1.1-1-1.1c-1.2,0-1.8,1.1-2.1,2.6
		L64.8,64H64l1.2-5.9h0.8l-0.1,0.7c0.5-0.6,1.2-0.8,1.9-0.8C68.7,58,69.3,58.6,69.3,59.6z"/>
	<path d="M71.9,62.6c0,0.1,0,0.3,0,0.3c0,0.3,0.2,0.5,0.6,0.5c0.2,0,0.4,0,0.7-0.1l-0.1,0.7c-0.3,0.1-0.6,0.2-0.9,0.2
		c-0.7,0-1.1-0.3-1.1-1c0-0.1,0-0.3,0-0.5l0.7-3.9h-0.9l0.1-0.6H72l0.3-1.6l0.9-0.6l-0.4,2.2h1.4L74,58.7h-1.4L71.9,62.6z"/>
</g>
<g class="st0">
	<path d="M302.5,62.8V64h-5.8v-1.1c1.6-1,4.2-2.7,4.2-4.7c0-0.8-0.4-1.4-1.3-1.4c-1.1,0-1.5,0.9-1.5,1.8l-1.3-0.1c0-1.6,1-3,2.8-3
		c1.5,0,2.6,1,2.6,2.6c0,1.8-1.5,3.5-3.4,4.6H302.5z"/>
</g>
<g class="st0">
	<path d="M116.8,55.6V64h-1.3v-5.9h-2v-1.1h1.2c0.5,0,0.8-0.2,0.8-0.8v-0.6H116.8z"/>
	<path d="M125.9,60.8V62h-1.3v2h-1.3v-2h-4v-0.8l4.1-5.6h1.2v5.1H125.9z M123.2,60.8v-3.2l-2.3,3.2H123.2z"/>
</g>
<g class="st0">
	<path d="M211.3,62.8V64h-5.8v-1.1c1.6-1,4.2-2.7,4.2-4.7c0-0.8-0.4-1.4-1.3-1.4c-1.1,0-1.5,0.9-1.5,1.8l-1.3-0.1c0-1.6,1-3,2.8-3
		c1.5,0,2.6,1,2.6,2.6c0,1.8-1.5,3.5-3.4,4.6H211.3z"/>
	<path d="M218.7,60.8V62h-1.3v2h-1.3v-2h-4v-0.8l4.1-5.6h1.2v5.1H218.7z M216.1,60.8v-3.2l-2.3,3.2H216.1z"/>
</g>
</svg>
