<svg xmlns="http://www.w3.org/2000/svg" xmlns:xlink="http://www.w3.org/1999/xlink" width="938" height="104.36" viewBox="0 0 938 104.36"><defs><clipPath id="b"><rect width="938" height="104.36"/></clipPath></defs><g id="a" clip-path="url(#b)"><text transform="translate(31.479 86.364)" font-size="10" font-family="HKGrotesk-Regular, HK Grotesk" style="isolation:isolate"><tspan x="0" y="0">Significato</tspan></text><path d="M4.549-41.988h11a5,5,0,0,1,5,5h0a5,5,0,0,1-5,5h-11a5,5,0,0,1-5-5h0A5,5,0,0,1,4.549-41.988Z" transform="translate(0.451 120.352)" fill="#f36" opacity="0.4" style="isolation:isolate"/><rect width="938" height="110" transform="translate(0.488 0.352)" fill="none"/><g transform="translate(0.451 120.352)"><text transform="translate(474.037 -97)" fill="#5151fc" font-size="10" font-family="HKGrotesk-Bold, HK Grotesk" font-weight="700" style="isolation:isolate"><tspan x="0" y="0">TIPO DI TESTO</tspan></text></g><g transform="translate(0.451 120.352)"><rect width="20" height="10" transform="translate(474.037 -85.988)" fill="#f7f8f8"/><line x2="20" transform="translate(474.037 -80.988)" fill="none" stroke="#333" stroke-linecap="square" stroke-miterlimit="10" stroke-width="1" stroke-dasharray="0 4"/></g><g transform="translate(0.451 120.352)"><text transform="translate(504.037 -77.988)" font-size="10" font-family="HKGrotesk-Regular, HK Grotesk" style="isolation:isolate"><tspan x="0" y="0">Testo non dubitativo</tspan></text></g><g transform="translate(0.451 120.352)"><rect width="20" height="10" transform="translate(474.037 -63.988)" fill="#f7f8f8"/><line x2="20" transform="translate(474.037 -58.988)" fill="none" stroke="#333" stroke-miterlimit="10" stroke-width="0.5"/></g><g transform="translate(0.451 120.352)"><text transform="translate(504.037 -55.988)" font-size="10" font-family="HKGrotesk-Regular, HK Grotesk" style="isolation:isolate"><tspan x="0" y="0">Testo oggetto di dubbio</tspan></text></g><g transform="translate(0.451 120.352)"><text transform="translate(237.037 -97)" fill="#5151fc" font-size="10" font-family="HKGrotesk-Bold, HK Grotesk" font-weight="700" style="isolation:isolate"><tspan x="0" y="0">STILI</tspan></text></g><g transform="translate(0.451 120.352)"><rect width="20" height="10" transform="translate(237.037 -85.988)" fill="#f7f8f8"/><line x1="2.113" y2="4.532" transform="translate(238.981 -83.254)" fill="none" stroke="#333" stroke-miterlimit="10" stroke-width="0.5"/><line x1="2.113" y2="4.532" transform="translate(245.981 -83.254)" fill="none" stroke="#333" stroke-miterlimit="10" stroke-width="0.5"/><line x1="2.113" y2="4.532" transform="translate(252.981 -83.254)" fill="none" stroke="#333" stroke-miterlimit="10" stroke-width="0.5"/><line x2="6" transform="translate(237.037 -80.988)" fill="none" stroke="#333" stroke-miterlimit="10" stroke-width="0.5"/><line x2="6" transform="translate(244.037 -80.988)" fill="none" stroke="#333" stroke-miterlimit="10" stroke-width="0.5"/><line x2="6" transform="translate(251.037 -80.988)" fill="none" stroke="#333" stroke-miterlimit="10" stroke-width="0.5"/></g><g transform="translate(0.451 120.352)"><text transform="translate(267.037 -77.988)" font-size="10" font-family="HKGrotesk-Regular, HK Grotesk" style="isolation:isolate"><tspan x="0" y="0">Negazione</tspan></text></g><g transform="translate(0.451 120.352)"><rect width="20" height="10" transform="translate(237.037 -63.988)" fill="#f7f8f8"/><path d="M242.037-58.988s-1.12-1.878-2.5-1.878-2.5,1.878-2.5,1.878" fill="none" stroke="#333" stroke-miterlimit="10" stroke-width="0.5"/><path d="M252.037-58.988s-1.12-1.878-2.5-1.878-2.5,1.878-2.5,1.878-1.12,1.877-2.5,1.877-2.5-1.877-2.5-1.877" fill="none" stroke="#333" stroke-miterlimit="10" stroke-width="0.5"/><path d="M257.037-58.988s-1.12,1.877-2.5,1.877-2.5-1.877-2.5-1.877" fill="none" stroke="#333" stroke-miterlimit="10" stroke-width="0.5"/></g><g transform="translate(0.451 120.352)"><text transform="translate(267.036 -55.988)" font-size="10" font-family="HKGrotesk-Regular, HK Grotesk" style="isolation:isolate"><tspan x="0" y="0">Esitazione</tspan></text></g><g transform="translate(0.451 120.352)"><rect width="20" height="10" transform="translate(237.037 -41.988)" fill="#f7f8f8"/><path d="M250.37-40.005c2.9,0,5.556,1.465,5.556,3.811a2.224,2.224,0,0,1-2.269,2.176,2.224,2.224,0,0,1-2.176-2.176c0-2.346,2.659-3.811,5.556-3.811" fill="none" stroke="#333" stroke-miterlimit="10" stroke-width="0.5"/><path d="M243.7-40.005c2.9,0,5.555,1.465,5.555,3.811a2.221,2.221,0,0,1-2.214,2.23,2.222,2.222,0,0,1-2.23-2.214v-.016c0-2.346,2.658-3.811,5.555-3.811" fill="none" stroke="#333" stroke-miterlimit="10" stroke-width="0.5"/><path d="M237.037-40.005c2.9,0,5.556,1.465,5.556,3.811a2.224,2.224,0,0,1-2.269,2.176,2.224,2.224,0,0,1-2.176-2.176c0-2.346,2.659-3.811,5.556-3.811" fill="none" stroke="#333" stroke-miterlimit="10" stroke-width="0.5"/></g><g transform="translate(0.451 120.352)"><text transform="translate(267.037 -33.988)" font-size="10" font-family="HKGrotesk-Regular, HK Grotesk" style="isolation:isolate"><tspan x="0" y="0">Riformulazione</tspan></text></g><g transform="translate(0.451 120.352)" style="isolation:isolate"><text transform="translate(0.037 -97)" fill="#5151fc" font-size="10" font-family="HKGrotesk-Bold, HK Grotesk" font-weight="700" style="isolation:isolate"><tspan x="0" y="0">CATEGORIE</tspan></text></g><g transform="translate(0.451 120.352)"><text transform="translate(789.037 -55.988)" font-size="10" font-family="HKGrotesk-Regular, HK Grotesk" style="isolation:isolate"><tspan x="0" y="0">Numero di paragrafo</tspan></text></g><g transform="translate(0.451 120.352)" style="isolation:isolate"><text transform="translate(710.037 -97)" fill="#5151fc" font-size="10" font-family="HKGrotesk-Bold, HK Grotesk" font-weight="700" style="isolation:isolate"><tspan x="0" y="0">NUMERAZIONI</tspan></text></g><g transform="translate(0.451 120.352)"><text transform="translate(789.037 -77.988)" font-size="10" font-family="HKGrotesk-Regular, HK Grotesk" style="isolation:isolate"><tspan x="0" y="0">Occorrenze testo dubitativo</tspan></text></g><g transform="translate(0.451 120.352)"><circle cx="5.793" cy="5.793" r="5.793" transform="translate(737.244 -87.201)" fill="#fff"/><circle cx="6" cy="6" r="6" transform="translate(737.037 -87.408)" fill="none" stroke="#5151fc" stroke-width="0.414"/></g><g transform="translate(0.451 120.352)"><circle cx="5.793" cy="5.793" r="5.793" transform="translate(761.244 -87.201)" fill="#fff"/><circle cx="6" cy="6" r="6" transform="translate(761.037 -87.408)" fill="none" stroke="#5151fc" stroke-width="0.414"/></g><g transform="translate(0.451 120.352)"><circle cx="5.793" cy="5.793" r="5.793" transform="translate(711.244 -87.201)" fill="#fff"/><circle cx="6" cy="6" r="6" transform="translate(711.037 -87.408)" fill="none" stroke="#5151fc" stroke-width="0.414"/></g><g transform="translate(0.451 120.352)" style="isolation:isolate"><text transform="translate(738.301 -78.791)" fill="#5151fc" font-size="7" font-family="HKGrotesk-SemiBold, HK Grotesk" font-weight="600" style="isolation:isolate"><tspan x="0" y="0">12</tspan></text></g><g transform="translate(0.451 120.352)" style="isolation:isolate"><text transform="translate(763.312 -78.791)" fill="#5151fc" font-size="7" font-family="HKGrotesk-SemiBold, HK Grotesk" font-weight="600" style="isolation:isolate"><tspan x="0" y="0">41</tspan></text></g><g transform="translate(0.451 120.352)" style="isolation:isolate"><text transform="translate(714.669 -78.791)" fill="#5151fc" font-size="7" font-family="HKGrotesk-SemiBold, HK Grotesk" font-weight="600" style="isolation:isolate"><tspan x="0" y="0">1</tspan></text></g><g transform="translate(0.451 120.352)"><rect width="20" height="10" transform="translate(723.037 -63.988)" fill="#f7f8f8"/><rect width="28" height="10" transform="translate(747.037 -63.988)" fill="#f7f8f8"/><line x2="18.492" transform="translate(724.037 -58.988)" fill="none" stroke="#333" stroke-linecap="square" stroke-miterlimit="10" stroke-width="1" stroke-dasharray="0 4"/><line y1="0.07" x2="18.5" transform="translate(748.537 -58.988)" fill="none" stroke="#333" stroke-linecap="square" stroke-miterlimit="10" stroke-width="1" stroke-dasharray="0 4"/><line x2="15" transform="translate(760.537 -58.918)" fill="none" stroke="#333" stroke-linecap="square" stroke-miterlimit="10" stroke-width="1" stroke-dasharray="0 4"/><g style="isolation:isolate"><text transform="translate(710.301 -56.418)" fill="#5151fc" font-size="8" font-family="HKGrotesk-SemiBold, HK Grotesk" font-weight="600" style="isolation:isolate"><tspan x="0" y="0">18</tspan></text></g></g><line x2="938" transform="translate(0.488 0.352)" fill="none" stroke="#5151fc" stroke-miterlimit="10" stroke-width="0.5"/><text transform="translate(31.48 42.364)" font-size="10" font-family="HKGrotesk-Regular, HK Grotesk" style="isolation:isolate"><tspan x="0" y="0">Contenuto</tspan></text><text transform="translate(31.479 64.364)" font-size="10" font-family="HKGrotesk-Regular, HK Grotesk" style="isolation:isolate"><tspan x="0" y="0">Forma</tspan></text><path d="M4.549-85.988h11a5,5,0,0,1,5,5h0a5,5,0,0,1-5,5h-11a5,5,0,0,1-5-5h0A5,5,0,0,1,4.549-85.988Z" transform="translate(0.451 120.352)" fill="#ffd93b" opacity="0.4" style="isolation:isolate"/><path d="M4.549-63.988h11a5,5,0,0,1,5,5h0a5,5,0,0,1-5,5h-11a5,5,0,0,1-5-5h0A5,5,0,0,1,4.549-63.988Z" transform="translate(0.451 120.352)" fill="#10bed2" opacity="0.4" style="isolation:isolate"/><line x2="938" transform="translate(0.488 103.962)" fill="none" stroke="#5151fc" stroke-miterlimit="10" stroke-width="0.5"/></g></svg>