<svg xmlns="http://www.w3.org/2000/svg" viewBox="0 0 364.14 54.65"><defs><style>.cls-1,.cls-2{fill:#fff;}.cls-1,.cls-2,.cls-3,.cls-8,.cls-9{stroke:#000;stroke-miterlimit:10;}.cls-1,.cls-8,.cls-9{stroke-width:0.25px;}.cls-2,.cls-3{stroke-width:0.5px;}.cls-3,.cls-8,.cls-9{fill:none;}.cls-4,.cls-6{font-size:8px;font-family:HKGrotesk-Regular, HK Grotesk;}.cls-4,.cls-7{letter-spacing:-0.01em;}.cls-5{letter-spacing:0em;}.cls-9{stroke-dasharray:2.03 2.03;}.cls-10{fill:#b6f5e7;}.cls-11{fill:#aff3e4;}.cls-12{fill:#a9f1e1;}.cls-13{fill:#a2efdf;}.cls-14{fill:#9beddc;}.cls-15{fill:#94ebd9;}.cls-16{fill:#8ee9d6;}.cls-17{fill:#87e8d4;}.cls-18{fill:#80e6d1;}.cls-19{fill:#79e4ce;}.cls-20{fill:#73e2cb;}.cls-21{fill:#6ce0c8;}.cls-22{fill:#65dec6;}.cls-23{fill:#5edcc3;}.cls-24{fill:#58dac0;}.cls-25{fill:#51d8bd;}.cls-26{fill:#4ad6bb;}.cls-27{fill:#43d4b8;}.cls-28{fill:#3dd2b5;}.cls-29{fill:#36d0b2;}.cls-30{fill:#2fceaf;}.cls-31{fill:#28cdad;}.cls-32{fill:#22cbaa;}.cls-33{fill:#1bc9a7;}.cls-34{fill:#14c7a4;}.cls-35{fill:#0dc5a2;}.cls-36{fill:#07c39f;}.cls-37{fill:#00c19c;}.cls-38{letter-spacing:-0.04em;}.cls-39{letter-spacing:0em;}.cls-40{letter-spacing:-0.05em;}.cls-41{letter-spacing:0em;}.cls-42{letter-spacing:-0.02em;}.cls-43{letter-spacing:-0.01em;}.cls-44{letter-spacing:-0.02em;}.cls-45{font-size:12px;font-family:HKGrotesk-Medium, HK Grotesk;font-weight:500;}.cls-46{letter-spacing:-0.01em;}.cls-47{letter-spacing:0em;}.cls-48{letter-spacing:-0.03em;}</style></defs><title>infosheet-spazio-legenda</title><g id="Layer_1" data-name="Layer 1"><g id="legend"><circle id="S004" class="cls-1" cx="12.89" cy="47.19" r="3.13"/><circle id="S004-2" data-name="S004" class="cls-2" cx="12.89" cy="47.19" r="3.13"/><circle id="S004-3" data-name="S004" class="cls-3" cx="12.89" cy="39" r="11.32"/><text class="cls-4" transform="translate(51.52 28.94)">98<tspan class="cls-5" x="8.99" y="0">6</tspan></text><text class="cls-6" transform="translate(69.77 28.94)"><tspan class="cls-7">c</tspan><tspan x="4.02" y="0">arat</tspan><tspan class="cls-7" x="18.49" y="0">t</tspan><tspan x="21.14" y="0">eri</tspan></text><text class="cls-6" transform="translate(85.73 45.11)"><tspan class="cls-7">c</tspan><tspan x="4.02" y="0">arat</tspan><tspan class="cls-7" x="18.49" y="0">t</tspan><tspan x="21.14" y="0">eri</tspan></text><text class="cls-6" transform="translate(51.52 45.11)">458335</text><line class="cls-8" x1="12.89" y1="27.68" x2="13.89" y2="27.68"/><line class="cls-9" x1="15.91" y1="27.68" x2="43.26" y2="27.68"/><line class="cls-8" x1="44.27" y1="27.68" x2="45.27" y2="27.68"/><line class="cls-8" x1="12.89" y1="43.98" x2="13.89" y2="43.98"/><line class="cls-9" x1="15.91" y1="43.98" x2="43.26" y2="43.98"/><line class="cls-8" x1="44.27" y1="43.98" x2="45.27" y2="43.98"/><rect class="cls-10" x="166.79" y="25.86" width="7.94" height="4.5"/><rect class="cls-11" x="167.71" y="25.86" width="7.94" height="4.5"/><rect class="cls-12" x="168.63" y="25.86" width="7.94" height="4.5"/><rect class="cls-13" x="169.55" y="25.86" width="7.94" height="4.5"/><rect class="cls-14" x="170.47" y="25.86" width="7.94" height="4.5"/><rect class="cls-15" x="171.39" y="25.86" width="7.94" height="4.5"/><rect class="cls-16" x="172.31" y="25.86" width="7.94" height="4.5"/><rect class="cls-17" x="173.24" y="25.86" width="7.94" height="4.5"/><rect class="cls-18" x="174.16" y="25.86" width="7.94" height="4.5"/><rect class="cls-19" x="175.08" y="25.86" width="7.94" height="4.5"/><rect class="cls-20" x="176" y="25.86" width="7.94" height="4.5"/><rect class="cls-21" x="176.92" y="25.86" width="7.94" height="4.5"/><rect class="cls-22" x="177.84" y="25.86" width="7.94" height="4.5"/><rect class="cls-23" x="178.76" y="25.86" width="7.94" height="4.5"/><rect class="cls-24" x="179.68" y="25.86" width="7.94" height="4.5"/><rect class="cls-25" x="180.61" y="25.86" width="7.94" height="4.5"/><rect class="cls-26" x="181.53" y="25.86" width="7.94" height="4.5"/><rect class="cls-27" x="182.45" y="25.86" width="7.94" height="4.5"/><rect class="cls-28" x="183.37" y="25.86" width="7.94" height="4.5"/><rect class="cls-29" x="184.29" y="25.86" width="7.94" height="4.5"/><rect class="cls-30" x="185.21" y="25.86" width="7.94" height="4.5"/><rect class="cls-31" x="186.13" y="25.86" width="7.94" height="4.5"/><rect class="cls-32" x="187.05" y="25.86" width="7.94" height="4.5"/><rect class="cls-33" x="187.98" y="25.86" width="7.94" height="4.5"/><rect class="cls-34" x="188.9" y="25.86" width="7.94" height="4.5"/><rect class="cls-35" x="189.82" y="25.86" width="7.94" height="4.5"/><rect class="cls-36" x="190.74" y="25.86" width="7.94" height="4.5"/><rect class="cls-37" x="191.66" y="25.86" width="7.94" height="4.5"/><text class="cls-6" transform="translate(208.55 30.83)"><tspan class="cls-38">P</tspan><tspan class="cls-39" x="4.42" y="0">e</tspan><tspan class="cls-40" x="8.68" y="0">r</tspan><tspan class="cls-41" x="11.54" y="0">c</tspan><tspan x="15.56" y="0">entuale di </tspan><tspan class="cls-7" x="53.34" y="0">lu</tspan><tspan x="59.92" y="0">oghi in</tspan><tspan class="cls-42" x="83.85" y="0">v</tspan><tspan x="87.74" y="0">entati </tspan><tspan x="0" y="9.6">nel </tspan><tspan class="cls-7" x="13.1" y="9.6">t</tspan><tspan x="15.75" y="9.6">es</tspan><tspan class="cls-7" x="23.74" y="9.6">t</tspan><tspan x="26.38" y="9.6">o rispet</tspan><tspan class="cls-41" x="53.77" y="9.6">t</tspan><tspan x="56.42" y="9.6">o al </tspan><tspan class="cls-43" x="71.77" y="9.6">n</tspan><tspan x="76.2" y="9.6">ume</tspan><tspan class="cls-40" x="91.73" y="9.6">r</tspan><tspan class="cls-39" x="94.58" y="9.6">o</tspan><tspan x="0" y="19.2">massimo della </tspan><tspan class="cls-7" x="53.81" y="19.2">c</tspan><tspan x="57.83" y="19.2">a</tspan><tspan class="cls-41" x="62.11" y="19.2">t</tspan><tspan x="64.76" y="19.2">e</tspan><tspan class="cls-44" x="69.02" y="19.2">g</tspan><tspan x="73.02" y="19.2">oria</tspan></text><text class="cls-45" transform="translate(0.88 10.65)">DIMENSIONE</text><text class="cls-45" transform="translate(166.02 10.65)"><tspan class="cls-46">C</tspan><tspan class="cls-47" x="8.57" y="0">O</tspan><tspan class="cls-48" x="17.72" y="0">L</tspan><tspan x="23.72" y="0">ORE</tspan></text></g></g></svg>