<?xml version="1.0" encoding="utf-8"?>
<!-- Generator: Adobe Illustrator 23.1.1, SVG Export Plug-In . SVG Version: 6.00 Build 0)  -->
<svg version="1.1" id="Layer_1" xmlns="http://www.w3.org/2000/svg" xmlns:xlink="http://www.w3.org/1999/xlink" x="0px" y="0px"
	 viewBox="0 0 800 456.3" style="enable-background:new 0 0 800 456.3;" xml:space="preserve">
<style type="text/css">
	.st0{fill:#FFFFFF;stroke:#000000;stroke-miterlimit:10;}
	.st1{opacity:0.8;}
	.st2{fill:none;stroke:#000000;stroke-width:0.5;stroke-miterlimit:10;}
	.st3{fill:none;stroke:#000000;stroke-width:0.5;stroke-miterlimit:10;stroke-dasharray:2.63,2.63;}
	.st4{font-family:'HKGrotesk-Medium';}
	.st5{font-size:9.6px;}
	.st6{font-family:'HKGrotesk-Regular';}
	.st7{fill:#FFFFFF;stroke:#000000;stroke-width:0.25;stroke-miterlimit:10;}
	.st8{fill:#C2FAEF;stroke:#000000;stroke-width:0.5;stroke-miterlimit:10;}
	.st9{fill:#C0F9ED;stroke:#000000;stroke-width:0.5;stroke-miterlimit:10;}
	.st10{fill:#B6F5E7;stroke:#000000;stroke-width:0.5;stroke-miterlimit:10;}
	.st11{fill:#BDF8EC;stroke:#000000;stroke-width:0.5;stroke-miterlimit:10;}
	.st12{fill:#B9F6E9;stroke:#000000;stroke-width:0.5;stroke-miterlimit:10;}
	.st13{fill:#B4F4E6;stroke:#000000;stroke-width:0.5;stroke-miterlimit:10;}
	.st14{fill:#00C19C;stroke:#000000;stroke-width:0.5;stroke-miterlimit:10;}
	.st15{fill:#9EEBD8;stroke:#000000;stroke-width:0.5;stroke-miterlimit:10;}
</style>
<rect class="st0" width="800" height="456.3"/>
<title>infosheet-spazio</title>
<g id="Layer_3">
	<g class="st1">
		<line class="st2" x1="1.6" y1="109.2" x2="2.9" y2="109.2"/>
		<line class="st3" x1="5.5" y1="109.2" x2="825.2" y2="109.2"/>
	</g>
	<g class="st1">
		<line class="st2" x1="1.6" y1="251.9" x2="2.9" y2="251.9"/>
		<line class="st3" x1="5.5" y1="251.9" x2="825.2" y2="251.9"/>
	</g>
	<g class="st1">
		<line class="st2" x1="1.6" y1="363.2" x2="2.9" y2="363.2"/>
		<line class="st3" x1="5.5" y1="363.2" x2="825.2" y2="363.2"/>
	</g>
</g>
<g id="Layer_5">
	<line class="st2" x1="737.8" y1="105.5" x2="737.8" y2="80.5"/>
	<path class="st2" d="M410.4,91.1V37.7c0-2,1.7-3.7,3.7-3.7l0,0"/>
	<path class="st2" d="M480.1,94.3v-9.8c0-3,2.4-5.5,5.4-5.5c0,0,0,0,0,0l0,0"/>
	<line class="st2" x1="497.1" y1="121.6" x2="506.1" y2="121.6"/>
	<line class="st2" x1="478.4" y1="112.4" x2="478.4" y2="148.5"/>
	<path class="st2" d="M402.9,85.4v-62c0-4.6,3.7-8.2,8.2-8.2l0,0"/>
	<path class="st2" d="M473.3,86.3V57.9c0-2.5,2-4.4,4.4-4.4l0,0h2.3"/>
	<line class="st2" x1="324.3" y1="94.8" x2="324.3" y2="50.9"/>
	<line class="st2" x1="159.6" y1="124.6" x2="159.6" y2="152.4"/>
	<path class="st2" d="M147.3,120.2v20c0,3.2-2.6,5.7-5.7,5.7l0,0h-2.8"/>
	<path class="st2" d="M150.5,112.4V75.3c0-3.7,3-6.6,6.6-6.6c0,0,0,0,0,0l0,0"/>
	<line class="st2" x1="146" y1="112.4" x2="146" y2="52.5"/>
	<path class="st2" d="M319.4,103.2V33.6c0-3.7-3-6.7-6.7-6.7c0,0,0,0,0,0H308"/>
	<line class="st2" x1="702.8" y1="243.1" x2="702.8" y2="227.2"/>
	<line class="st2" x1="143" y1="243.1" x2="143" y2="227.2"/>
	<path class="st2" d="M245.4,243.1v-38.5c0-2.8,2.2-5,5-5h3.3"/>
	<line class="st2" x1="720.3" y1="249.2" x2="720.3" y2="278.5"/>
	<path class="st2" d="M246.7,231.9v-10.5c0-2.8,2.2-5,5-5h3.4"/>
	<path class="st2" d="M251.2,267.3v15.3c0,2.9,2.3,5.2,5.2,5.2h3.1"/>
	<path class="st2" d="M219.6,287.6h4.5c2.8,0,5-2.2,5-5v-28"/>
	<line class="st2" x1="232.5" y1="262.9" x2="232.5" y2="293.7"/>
	<path class="st2" d="M230.4,236v-22.9c0-2.8-2.2-5-5-5h-4"/>
	<line class="st2" x1="422.9" y1="125.1" x2="423.1" y2="164.2"/>
</g>
<g id="Layer_4">
	<g>
		<text transform="matrix(1 0 0 1 8.91 101.87)" class="st4 st5">r</text>
		<text transform="matrix(1 0 0 1 12.8 101.87)" class="st4 st5">a</text>
		<text transform="matrix(1 0 0 1 17.91 101.87)" class="st4 st5">cc</text>
		<text transform="matrix(1 0 0 1 27.47 101.87)" class="st4 st5">ol</text>
		<text transform="matrix(1 0 0 1 35.47 101.87)" class="st4 st5">t</text>
		<text transform="matrix(1 0 0 1 38.81 101.87)" class="st4 st5">a</text>
		<text transform="matrix(1 0 0 1 80.57 145.53)" class="st6 st5">I figli pol</text>
		<text transform="matrix(1 0 0 1 117.4 145.53)" class="st6 st5">t</text>
		<text transform="matrix(1 0 0 1 120.53 145.53)" class="st6 st5">r</text>
		<text transform="matrix(1 0 0 1 123.96 145.53)" class="st6 st5">oni</text>
		<text transform="matrix(1 0 0 1 81.98 47.81)" class="st6 st5">C</text>
		<text transform="matrix(1 0 0 1 88.88 47.81)" class="st6 st5">hi ha mes</text>
		<text transform="matrix(1 0 0 1 130.18 47.81)" class="st6 st5">s</text>
		<text transform="matrix(1 0 0 1 134.61 47.81)" class="st6 st5">o la mina nel ma</text>
		<text transform="matrix(1 0 0 1 205.71 47.81)" class="st6 st5">r</text>
		<text transform="matrix(1 0 0 1 209.14 47.81)" class="st6 st5">e?</text>
		<text transform="matrix(1 0 0 1 159.52 68.23)" class="st6 st5">Dollari e </text>
		<text transform="matrix(1 0 0 1 198.88 68.23)" class="st6 st5">v</text>
		<text transform="matrix(1 0 0 1 203.55 68.23)" class="st6 st5">e</text>
		<text transform="matrix(1 0 0 1 208.66 68.23)" class="st6 st5">c</text>
		<text transform="matrix(1 0 0 1 213.49 68.23)" class="st6 st5">chie mondane</text>
		<text transform="matrix(1 0 0 1 103.99 159.56)" class="st6 st5">U</text>
		<text transform="matrix(1 0 0 1 110.65 159.56)" class="st6 st5">no dei </text>
		<text transform="matrix(1 0 0 1 139.98 159.56)" class="st6 st5">t</text>
		<text transform="matrix(1 0 0 1 143.11 159.56)" class="st6 st5">r</text>
		<text transform="matrix(1 0 0 1 146.54 159.56)" class="st6 st5">e è an</text>
		<text transform="matrix(1 0 0 1 172.53 159.56)" class="st6 st5">c</text>
		<text transform="matrix(1 0 0 1 177.36 159.56)" class="st6 st5">ora vi</text>
		<text transform="matrix(1 0 0 1 201.67 159.56)" class="st6 st5">v</text>
		<text transform="matrix(1 0 0 1 206.34 159.56)" class="st6 st5">o</text>
		<text transform="matrix(1 0 0 1 283.47 46.4)" class="st6 st5">La n</text>
		<text transform="matrix(1 0 0 1 301.79 46.4)" class="st6 st5">o</text>
		<text transform="matrix(1 0 0 1 307.2 46.4)" class="st6 st5">t</text>
		<text transform="matrix(1 0 0 1 310.43 46.4)" class="st6 st5">t</text>
		<text transform="matrix(1 0 0 1 313.6 46.4)" class="st6 st5">e dei </text>
		<text transform="matrix(1 0 0 1 337.17 46.4)" class="st6 st5">n</text>
		<text transform="matrix(1 0 0 1 342.48 46.4)" class="st6 st5">umeri</text>
		<text transform="matrix(1 0 0 1 221.12 27.32)" class="st6 st5">La signora </text>
		<text transform="matrix(1 0 0 1 268.4 27.32)" class="st6 st5">P</text>
		<text transform="matrix(1 0 0 1 273.8 27.32)" class="st6 st5">a</text>
		<text transform="matrix(1 0 0 1 278.84 27.32)" class="st6 st5">ulatim</text>
		<text transform="matrix(1 0 0 1 414.52 14.92)" class="st6 st5">F</text>
		<text transform="matrix(1 0 0 1 420.12 14.92)" class="st6 st5">umo, </text>
		<text transform="matrix(1 0 0 1 444.89 14.92)" class="st6 st5">v</text>
		<text transform="matrix(1 0 0 1 449.57 14.92)" class="st6 st5">en</text>
		<text transform="matrix(1 0 0 1 460.08 14.92)" class="st6 st5">t</text>
		<text transform="matrix(1 0 0 1 463.26 14.92)" class="st6 st5">o e bolle di </text>
		<text transform="matrix(1 0 0 1 513.88 14.92)" class="st6 st5">s</text>
		<text transform="matrix(1 0 0 1 518.26 14.92)" class="st6 st5">apone</text>
		<text transform="matrix(1 0 0 1 415.83 34.37)" class="st6 st5">Il gia</text>
		<text transform="matrix(1 0 0 1 436.46 34.37)" class="st6 st5">r</text>
		<text transform="matrix(1 0 0 1 439.89 34.37)" class="st6 st5">dino dei </text>
		<text transform="matrix(1 0 0 1 477.33 34.37)" class="st6 st5">g</text>
		<text transform="matrix(1 0 0 1 482.28 34.37)" class="st6 st5">atti ostinati</text>
		<text transform="matrix(1 0 0 1 303.75 164.8)" class="st6 st5">I figli di </text>
		<text transform="matrix(1 0 0 1 337.56 164.8)" class="st6 st5">B</text>
		<text transform="matrix(1 0 0 1 343.59 164.8)" class="st6 st5">abbo </text>
		<text transform="matrix(1 0 0 1 368.21 164.8)" class="st6 st5">N</text>
		<text transform="matrix(1 0 0 1 375.08 164.8)" class="st6 st5">atale</text>
		<text transform="matrix(1 0 0 1 373.91 176.11)" class="st6 st5">La distanza della </text>
		<text transform="matrix(1 0 0 1 449.36 176.11)" class="st6 st5">L</text>
		<text transform="matrix(1 0 0 1 454.32 176.11)" class="st6 st5">una</text>
		<text transform="matrix(1 0 0 1 481.7 53.22)" class="st6 st5">L</text>
		<text transform="matrix(1 0 0 1 486.08 53.22)" class="st6 st5">&apos;</text>
		<text transform="matrix(1 0 0 1 488.53 53.22)" class="st6 st5">origine degli </text>
		<text transform="matrix(1 0 0 1 544.23 53.22)" class="st6 st5">ucc</text>
		<text transform="matrix(1 0 0 1 559.25 53.22)" class="st6 st5">elli</text>
		<text transform="matrix(1 0 0 1 487.2 78.65)" class="st6 st5">Il </text>
		<text transform="matrix(1 0 0 1 495.28 78.65)" class="st6 st5">g</text>
		<text transform="matrix(1 0 0 1 500.24 78.65)" class="st6 st5">uida</text>
		<text transform="matrix(1 0 0 1 518.89 78.65)" class="st6 st5">t</text>
		<text transform="matrix(1 0 0 1 522.07 78.65)" class="st6 st5">o</text>
		<text transform="matrix(1 0 0 1 527.53 78.65)" class="st6 st5">r</text>
		<text transform="matrix(1 0 0 1 530.96 78.65)" class="st6 st5">e n</text>
		<text transform="matrix(1 0 0 1 544.09 78.65)" class="st6 st5">o</text>
		<text transform="matrix(1 0 0 1 549.5 78.65)" class="st6 st5">tturno</text>
		<text transform="matrix(1 0 0 1 448.98 158.03)" class="st6 st5">La molle </text>
		<text transform="matrix(1 0 0 1 488.39 158.03)" class="st6 st5">L</text>
		<text transform="matrix(1 0 0 1 493.35 158.03)" class="st6 st5">una</text>
		<text transform="matrix(1 0 0 1 506.11 122.43)" class="st6 st5">T</text>
		<text transform="matrix(1 0 0 1 511.17 122.43)" class="st6 st5">empesta </text>
		<text transform="matrix(1 0 0 1 550.66 122.43)" class="st6 st5">s</text>
		<text transform="matrix(1 0 0 1 555.09 122.43)" class="st6 st5">ola</text>
		<text transform="matrix(1 0 0 1 568.28 122.43)" class="st6 st5">r</text>
		<text transform="matrix(1 0 0 1 571.71 122.43)" class="st6 st5">e</text>
		<text transform="matrix(1 0 0 1 697.77 78.66)" class="st6 st5">La pancia del </text>
		<text transform="matrix(1 0 0 1 757.99 78.66)" class="st6 st5">g</text>
		<text transform="matrix(1 0 0 1 762.8 78.66)" class="st6 st5">e</text>
		<text transform="matrix(1 0 0 1 767.91 78.66)" class="st6 st5">c</text>
		<text transform="matrix(1 0 0 1 772.74 78.66)" class="st6 st5">o</text>
		<text transform="matrix(1 0 0 1 7.24 354.52)" class="st4 st5">r</text>
		<text transform="matrix(1 0 0 1 10.75 354.52)" class="st4 st5">oman</text>
		<text transform="matrix(1 0 0 1 34.83 354.52)" class="st4 st5">z</text>
		<text transform="matrix(1 0 0 1 39.4 354.52)" class="st4 st5">o</text>
		<text transform="matrix(1 0 0 1 431.49 446.37)" class="st6 st5">1</text>
		<text transform="matrix(1 0 0 1 436.93 446.37)" class="st6 st5">9</text>
		<text transform="matrix(1 0 0 1 442.34 446.37)" class="st6 st5">65</text>
		<text transform="matrix(1 0 0 1 519.37 446.37)" class="st6 st5">1970</text>
		<text transform="matrix(1 0 0 1 607.24 446.37)" class="st6 st5">1975</text>
		<text transform="matrix(1 0 0 1 695.1 446.37)" class="st6 st5">1</text>
		<text transform="matrix(1 0 0 1 700.54 446.37)" class="st6 st5">98</text>
		<text transform="matrix(1 0 0 1 711.33 446.37)" class="st6 st5">0</text>
		<text transform="matrix(1 0 0 1 763.42 446.37)" class="st6 st5">1</text>
		<text transform="matrix(1 0 0 1 768.86 446.37)" class="st6 st5">9</text>
		<text transform="matrix(1 0 0 1 774.26 446.37)" class="st6 st5">84</text>
		<text transform="matrix(1 0 0 1 80.09 446.37)" class="st6 st5">1945</text>
		<text transform="matrix(1 0 0 1 167.95 446.37)" class="st6 st5">1</text>
		<text transform="matrix(1 0 0 1 173.39 446.37)" class="st6 st5">9</text>
		<text transform="matrix(1 0 0 1 178.79 446.37)" class="st6 st5">50</text>
		<text transform="matrix(1 0 0 1 255.75 446.37)" class="st6 st5">1</text>
		<text transform="matrix(1 0 0 1 261.19 446.37)" class="st6 st5">9</text>
		<text transform="matrix(1 0 0 1 266.59 446.37)" class="st6 st5">55</text>
		<text transform="matrix(1 0 0 1 343.62 446.37)" class="st6 st5">1</text>
		<text transform="matrix(1 0 0 1 349.06 446.37)" class="st6 st5">9</text>
		<text transform="matrix(1 0 0 1 354.47 446.37)" class="st6 st5">60</text>
		<path class="st2" d="M408.1,123.3l0.2,35.9c0,2.8-2.2,5-5,5h-4.7"/>
	</g>
	<g>
		<circle id="circle" class="st7" cx="90.7" cy="108.4" r="4.1"/>
		<circle id="circle-2" class="st7" cx="108.3" cy="108.7" r="3.6"/>
		<circle id="circle-3" class="st7" cx="108.2" cy="94.8" r="3.4"/>
		<circle id="circle-4" class="st7" cx="108.1" cy="116.9" r="3.7"/>
		<circle id="circle-5" class="st7" cx="112.2" cy="101.6" r="3.5"/>
		<circle id="circle-6" class="st7" cx="104.2" cy="101.7" r="3.5"/>
		<circle id="circle-7" class="st7" cx="108.2" cy="125.1" r="3.5"/>
		<circle id="circle-8" class="st7" cx="122.9" cy="99.7" r="3.8"/>
		<circle id="circle-9" class="st7" cx="122.4" cy="117" r="3.6"/>
		<circle id="circle-10" class="st7" cx="129.4" cy="113" r="3.4"/>
		<circle id="circle-11" class="st7" cx="126.2" cy="92.1" r="3.5"/>
		<circle id="circle-12" class="st7" cx="126.4" cy="124.1" r="3.6"/>
		<circle id="circle-13" class="st7" cx="129.8" cy="104.8" r="3.8"/>
		<circle id="circle-14" class="st7" cx="122.6" cy="108.8" r="3.5"/>
		<circle id="I_figli_poltroni" class="st8" cx="147" cy="121" r="3.5"/>
		<circle id="circle-15" class="st7" cx="141.8" cy="88.4" r="3.4"/>
		<circle id="circle-16" class="st7" cx="139.6" cy="117" r="3.9"/>
		<circle id="circle-17" class="st7" cx="139.3" cy="108.2" r="3.9"/>
		<circle id="circle-18" class="st7" cx="139.1" cy="99.7" r="3.7"/>
		<circle id="circle-19" class="st7" cx="141.3" cy="127" r="3.7"/>
		<circle id="circle-20" class="st7" cx="146.3" cy="95.3" r="3.8"/>
		<circle id="Chi_ha_messo_la_mina_nel_mare_" class="st9" cx="146.4" cy="103.6" r="3.6"/>
		<circle id="Dollari_e_vecchie_mondane" class="st10" cx="147.4" cy="112.3" r="4.2"/>
		<circle id="circle-21" class="st7" cx="163.1" cy="100.7" r="3.9"/>
		<circle id="circle-22" class="st7" cx="165.3" cy="117.3" r="3.4"/>
		<circle id="circle-23" class="st7" cx="164.1" cy="109.3" r="3.7"/>
		<circle id="circle-24" class="st7" cx="156.1" cy="106.1" r="3.9"/>
		<circle id="Uno_dei_tre_è_ancora_vivo" class="st8" cx="159.4" cy="123" r="3.8"/>
		<circle id="circle-25" class="st7" cx="160.1" cy="92.2" r="4.1"/>
		<circle id="circle-26" class="st7" cx="157.6" cy="114.6" r="3.8"/>
		<circle id="circle-27" class="st7" cx="178.1" cy="112.7" r="3.9"/>
		<circle id="circle-28" class="st7" cx="178.1" cy="103.9" r="3.8"/>
		<circle id="circle-29" class="st7" cx="195.6" cy="108.4" r="4.2"/>
		<circle id="circle-30" class="st7" cx="217.1" cy="100.8" r="3.6"/>
		<circle id="circle-31" class="st7" cx="209.1" cy="101.1" r="3.3"/>
		<circle id="circle-32" class="st7" cx="213.1" cy="111.9" r="7.2"/>
		<circle id="circle-33" class="st7" cx="212.6" cy="94.4" r="3.2"/>
		<circle id="circle-34" class="st7" cx="213.1" cy="123.4" r="3.4"/>
		<circle id="circle-35" class="st7" cx="235.7" cy="108.2" r="3.3"/>
		<circle id="circle-36" class="st7" cx="228.3" cy="110.4" r="3.4"/>
		<circle id="circle-37" class="st7" cx="229.7" cy="125.2" r="4"/>
		<circle id="circle-38" class="st7" cx="229.5" cy="100.1" r="6"/>
		<circle id="circle-39" class="st7" cx="225.6" cy="117.7" r="3.4"/>
		<circle id="circle-40" class="st7" cx="234.5" cy="116.9" r="4.6"/>
		<circle id="circle-41" class="st7" cx="230.8" cy="89.2" r="3.9"/>
		<circle id="circle-42" class="st7" cx="248.1" cy="112.2" r="5.3"/>
		<circle id="circle-43" class="st7" cx="248.1" cy="102" r="3.9"/>
		<circle id="circle-44" class="st7" cx="265.6" cy="108.4" r="4.5"/>
		<circle id="circle-45" class="st7" cx="283.1" cy="108.4" r="3.5"/>
		<circle id="circle-46" class="st7" cx="300.6" cy="108.4" r="3.6"/>
		<circle id="circle-47" class="st7" cx="308.4" cy="115.2" r="4"/>
		<circle id="La_notte_dei_numeri" class="st8" cx="324.5" cy="96.2" r="4.2"/>
		<circle id="circle-48" class="st7" cx="314.6" cy="95.9" r="4.7"/>
		<circle id="La_nuvola_di_smog" class="st11" cx="317.8" cy="125.5" r="8.9"/>
		<circle id="La_signora_Paulatim" class="st9" cx="319.8" cy="103.9" r="3.8"/>
		<circle id="circle-49" class="st7" cx="325.8" cy="113.2" r="4.7"/>
		<circle id="circle-50" class="st7" cx="316.4" cy="111.8" r="3.8"/>
		<circle id="circle-51" class="st7" cx="318.1" cy="79.6" r="4.6"/>
		<circle id="circle-52" class="st7" cx="328.1" cy="104.2" r="3.6"/>
		<circle id="circle-53" class="st7" cx="310.9" cy="105" r="4.1"/>
		
			<ellipse id="circle-54" transform="matrix(0.1602 -0.9871 0.9871 0.1602 176.468 380.9025)" class="st7" cx="312.1" cy="86.7" rx="3.8" ry="3.8"/>
		<circle id="circle-55" class="st7" cx="318.1" cy="138.8" r="3.4"/>
		<circle id="circle-56" class="st7" cx="320.1" cy="88.5" r="3.6"/>
		<circle id="circle-57" class="st7" cx="335.5" cy="108.4" r="3.8"/>
		<circle id="circle-58" class="st7" cx="402.6" cy="99.1" r="3.6"/>
		<circle id="circle-59" class="st7" cx="409.7" cy="103.4" r="3.7"/>
		<circle id="circle-60" class="st7" cx="406.5" cy="127.9" r="3.7"/>
		<circle id="Fumo_vento_e_bolle_di_sapone" class="st8" cx="409.8" cy="95" r="3.7"/>
		<circle id="circle-61" class="st7" cx="408.9" cy="111.4" r="3.4"/>
		<circle id="circle-62" class="st7" cx="400.7" cy="122.4" r="3.3"/>
		<circle id="Il_giardino_dei_gatti_ostinati" class="st8" cx="402.9" cy="89.6" r="4.2"/>
		<circle id="I_figli_di_Babbo_Natale" class="st8" cx="408.4" cy="119.6" r="3.8"/>
		<circle id="circle-63" class="st7" cx="402.6" cy="107" r="3.3"/>
		<circle id="circle-64" class="st7" cx="401.8" cy="114.7" r="3.5"/>
		<circle id="La_distanza_della_Luna" class="st8" cx="423" cy="121.2" r="4.7"/>
		<circle id="circle-65" class="st7" cx="423" cy="94.2" r="4.1"/>
		<circle id="circle-66" class="st7" cx="423" cy="103.4" r="4.1"/>
		<circle id="circle-67" class="st7" cx="423" cy="112" r="3.5"/>
		<circle id="circle-68" class="st7" cx="436.2" cy="89.7" r="4.1"/>
		<circle id="circle-69" class="st7" cx="443.6" cy="123.2" r="3.8"/>
		<circle id="circle-70" class="st7" cx="436" cy="118.3" r="4.2"/>
		<circle id="circle-71" class="st7" cx="437.3" cy="109.3" r="3.9"/>
		<circle id="circle-72" class="st7" cx="436" cy="127.1" r="3.6"/>
		<circle id="circle-73" class="st7" cx="443.9" cy="84.9" r="4"/>
		<circle id="circle-74" class="st7" cx="444.3" cy="114.6" r="3.9"/>
		<circle id="circle-75" class="st7" cx="444.5" cy="103.9" r="3.9"/>
		<circle id="circle-76" class="st7" cx="435.6" cy="99.6" r="4.9"/>
		<circle id="circle-77" class="st7" cx="443.4" cy="132.6" r="4.5"/>
		<circle id="circle-78" class="st7" cx="444.7" cy="94.4" r="4.6"/>
		<circle id="circle-79" class="st7" cx="458" cy="108.4" r="4.6"/>
		<circle id="circle-80" class="st7" cx="470.6" cy="117.7" r="4.6"/>
		<circle id="circle-81" class="st7" cx="476.6" cy="81.4" r="4.5"/>
		<circle id="circle-82" class="st7" cx="471.3" cy="127.1" r="3.9"/>
		<circle id="L_origine_degli_uccelli" class="st9" cx="473.3" cy="90.6" r="4.2"/>
		<circle id="circle-83" class="st7" cx="472.3" cy="99.4" r="3.8"/>
		<circle id="circle-84" class="st7" cx="479" cy="131.9" r="4.2"/>
		<circle id="Il_guidatore_notturno" class="st9" cx="480.2" cy="96.3" r="3.8"/>
		<circle id="La_molle_Luna" class="st8" cx="478.8" cy="112.9" r="3.9"/>
		<circle id="circle-85" class="st7" cx="471.1" cy="108.2" r="4.1"/>
		<circle id="circle-86" class="st7" cx="478.8" cy="104.5" r="3.5"/>
		<circle id="circle-87" class="st7" cx="479.2" cy="122.5" r="4.3"/>
		<circle id="circle-88" class="st7" cx="492.9" cy="103.2" r="4.3"/>
		<circle id="circle-89" class="st7" cx="492.9" cy="112.3" r="3.8"/>
		<circle id="Tempesta_solare" class="st8" cx="492.9" cy="121.1" r="4"/>
		<circle id="circle-90" class="st7" cx="492.9" cy="94.5" r="3.4"/>
		<circle id="circle-91" class="st7" cx="615.5" cy="115.6" r="3.1"/>
		<circle id="circle-92" class="st7" cx="611.7" cy="109.4" r="3.1"/>
		<circle id="circle-93" class="st7" cx="615.2" cy="102.6" r="3.5"/>
		<circle id="circle-94" class="st7" cx="615.3" cy="122.8" r="3.1"/>
		<circle id="circle-95" class="st7" cx="615.4" cy="94.6" r="3.4"/>
		<circle id="circle-96" class="st7" cx="619" cy="109.2" r="3.1"/>
		<circle id="circle-97" class="st7" cx="632.8" cy="112.2" r="3.2"/>
		<circle id="circle-98" class="st7" cx="632.8" cy="104.7" r="3.3"/>
		<circle id="circle-99" class="st7" cx="650.3" cy="112.1" r="3.2"/>
		<circle id="circle-100" class="st7" cx="650.3" cy="104.7" r="3.2"/>
		<circle id="circle-101" class="st7" cx="702.8" cy="108.4" r="3.2"/>
		<circle id="circle-102" class="st7" cx="720.3" cy="108.4" r="3.5"/>
		<circle id="circle-103" class="st7" cx="737.8" cy="101.1" r="3.4"/>
		<circle id="circle-104" class="st7" cx="737.8" cy="116.3" r="3.2"/>
		<circle id="La_pancia_del_geco" class="st8" cx="737.8" cy="108.8" r="3.3"/>
		<circle id="circle-105" class="st7" cx="751.4" cy="99.2" r="3.5"/>
		<circle id="circle-106" class="st7" cx="759.2" cy="125.7" r="3.5"/>
		<circle id="circle-107" class="st7" cx="758.5" cy="110.5" r="3.2"/>
		<circle id="circle-108" class="st7" cx="758" cy="95.1" r="3.3"/>
		<circle id="circle-109" class="st7" cx="752.5" cy="121.9" r="3.2"/>
		<circle id="circle-110" class="st7" cx="757.8" cy="87.3" r="3.4"/>
		<circle id="circle-111" class="st7" cx="759" cy="118" r="3.3"/>
		<circle id="circle-112" class="st7" cx="752.3" cy="114.5" r="3.2"/>
		<circle id="circle-113" class="st7" cx="751.9" cy="107" r="3.3"/>
		<circle id="circle-114" class="st7" cx="752.4" cy="129.5" r="3.3"/>
		<circle id="circle-115" class="st7" cx="751.2" cy="91.4" r="3.4"/>
		<circle id="circle-116" class="st7" cx="758.5" cy="102.9" r="3.5"/>
		<circle id="circle-117" class="st7" cx="772.7" cy="112.2" r="3.9"/>
		<circle id="circle-118" class="st7" cx="772.7" cy="103.8" r="3.5"/>
		<circle id="circle-119" class="st7" cx="300.6" cy="394.6" r="12.9"/>
		<circle id="circle-120" class="st7" cx="581.6" cy="357.8" r="8.8"/>
		<circle id="circle-121" class="st7" cx="125.7" cy="363.5" r="17.7"/>
		<circle id="Il_visconte_dimezzato" class="st12" cx="213.1" cy="363.5" r="11.1"/>
		<circle id="Il_barone_rampante" class="st13" cx="300" cy="353.2" r="27.5"/>
		<circle id="Il_cavaliere_inesistente" class="st8" cx="337.5" cy="374.5" r="14.6"/>
		<circle id="circle-122" class="st7" cx="405.5" cy="363.5" r="10.1"/>
		<circle id="circle-123" class="st7" cx="510.4" cy="363.4" r="6.6"/>
		<circle id="Le_città_invisibili" class="st14" cx="562.2" cy="366.8" r="11.6"/>
		<circle id="circle-124" class="st7" cx="597.9" cy="363.5" r="3.9"/>
		<circle id="Se_una_notte_d_inverno_un_viaggiatore" class="st15" cx="685.3" cy="363.4" r="30"/>
		<path class="st2" d="M55.7,433.2v-4h719.9v4"/>
		<line class="st2" x1="90.8" y1="428.9" x2="90.8" y2="433.2"/>
		<line class="st2" x1="178.7" y1="428.9" x2="178.7" y2="433.2"/>
		<line class="st2" x1="266.5" y1="428.9" x2="266.5" y2="433.2"/>
		<line class="st2" x1="354.4" y1="428.9" x2="354.4" y2="433.2"/>
		<line class="st2" x1="442.3" y1="428.9" x2="442.3" y2="433.2"/>
		<line class="st2" x1="530.2" y1="428.9" x2="530.2" y2="433.2"/>
		<line class="st2" x1="618" y1="428.9" x2="618" y2="433.2"/>
		<line class="st2" x1="705.9" y1="428.9" x2="705.9" y2="433.2"/>
		<text transform="matrix(1 0 0 1 280.44 128.54)" class="st6 st5">La </text>
		<text transform="matrix(1 0 0 1 293.35 128.54)" class="st6 st5">n</text>
		<text transform="matrix(1 0 0 1 298.66 128.54)" class="st6 st5">u</text>
		<text transform="matrix(1 0 0 1 304.07 128.54)" class="st6 st5">v</text>
		<text transform="matrix(1 0 0 1 308.74 128.54)" class="st6 st5">ola di smog</text>
		<text transform="matrix(1 0 0 1 11.74 244.8)" class="st4 st5">al</text>
		<text transform="matrix(1 0 0 1 19.48 244.8)" class="st4 st5">t</text>
		<text transform="matrix(1 0 0 1 22.72 244.8)" class="st4 st5">r</text>
		<text transform="matrix(1 0 0 1 26.24 244.8)" class="st4 st5">o</text>
		<circle id="circle-125" class="st7" cx="55.7" cy="251.4" r="3.1"/>
		<circle id="circle-126" class="st7" cx="55.7" cy="258.7" r="3.2"/>
		<circle id="circle-127" class="st7" cx="55.7" cy="244.4" r="3"/>
		<circle id="circle-128" class="st7" cx="108.2" cy="259.3" r="3.7"/>
		<circle id="circle-129" class="st7" cx="108.2" cy="251.2" r="3.4"/>
		<circle id="circle-130" class="st7" cx="108.2" cy="243.4" r="3.4"/>
		<circle id="circle-131" class="st7" cx="125.7" cy="255.9" r="3.5"/>
		<circle id="circle-132" class="st7" cx="125.7" cy="247.8" r="3.6"/>
		<circle id="circle-133" class="st7" cx="143.2" cy="252.1" r="3.1"/>
		<circle id="circle-134" class="st7" cx="143.2" cy="259.6" r="3.3"/>
		<circle id="Isabella_e_Fioravanti" class="st8" cx="143.2" cy="244.5" r="3.5"/>
		<circle id="circle-135" class="st7" cx="160.7" cy="255.7" r="3.4"/>
		<circle id="circle-136" class="st7" cx="160.7" cy="247.8" r="3.5"/>
		<circle id="circle-137" class="st7" cx="178.1" cy="251.8" r="3.4"/>
		<circle id="circle-138" class="st7" cx="178.1" cy="259.8" r="3.6"/>
		<circle id="circle-139" class="st7" cx="178.1" cy="243.7" r="3.7"/>
		<circle id="circle-140" class="st7" cx="195.6" cy="251.7" r="3.5"/>
		<circle id="circle-141" class="st7" cx="213.1" cy="255.6" r="3.4"/>
		<circle id="circle-142" class="st7" cx="213.1" cy="247.8" r="3.4"/>
		<circle id="circle-143" class="st7" cx="213.1" cy="263.4" r="3.4"/>
		<circle id="circle-144" class="st7" cx="213.1" cy="240" r="3.4"/>
		<circle id="circle-145" class="st7" cx="230.6" cy="247.1" r="3.3"/>
		<circle id="La_storia_di_Kim-Ghi-U" class="st11" cx="230.6" cy="255" r="3.6"/>
		<circle id="Un_paese_disgraziato" class="st8" cx="230.6" cy="239.5" r="3.3"/>
		<circle id="Il_generale_in_biblioteca" class="st8" cx="230.6" cy="263.1" r="3.6"/>
		<circle id="circle-146" class="st7" cx="244.4" cy="248" r="3.6"/>
		<circle id="circle-147" class="st7" cx="252.2" cy="236.8" r="3.4"/>
		<circle id="Libertà_Libertà_" class="st11" cx="251.7" cy="266.7" r="3.2"/>
		<circle id="I_mozzatori_di_nasi" class="st8" cx="245.8" cy="232.6" r="3.2"/>
		<circle id="circle-148" class="st7" cx="245.2" cy="263.1" r="3.2"/>
		<circle id="circle-149" class="st7" cx="245" cy="255.7" r="3.2"/>
		<circle id="Lo_jus_primae_noctis" class="st8" cx="245.1" cy="240.1" r="3.4"/>
		<circle id="circle-150" class="st7" cx="246.1" cy="271.8" r="3.3"/>
		<circle id="circle-151" class="st7" cx="251.3" cy="244.4" r="3.2"/>
		<circle id="circle-152" class="st7" cx="251.2" cy="251.7" r="3.2"/>
		<circle id="circle-153" class="st7" cx="251.6" cy="259.2" r="3.3"/>
		<circle id="circle-154" class="st7" cx="300.6" cy="251.7" r="3.5"/>
		<circle id="circle-155" class="st7" cx="318" cy="259.3" r="3.4"/>
		<circle id="circle-156" class="st7" cx="318" cy="251.5" r="3.4"/>
		<circle id="circle-157" class="st7" cx="318" cy="243.8" r="3.3"/>
		<circle id="circle-158" class="st7" cx="388" cy="251.7" r="5.3"/>
		<circle id="circle-159" class="st7" cx="405.5" cy="251.7" r="3.6"/>
		
			<ellipse id="circle-160" transform="matrix(0.1891 -0.982 0.982 0.1891 166.7175 705.3279)" class="st7" cx="510.4" cy="251.7" rx="4.5" ry="4.4"/>
		<circle id="circle-161" class="st7" cx="545.4" cy="251.7" r="4.2"/>
		
			<ellipse id="circle-162" transform="matrix(0.1666 -0.986 0.986 0.1666 220.9304 764.7866)" class="st7" cx="562.9" cy="251.7" rx="4.4" ry="4.4"/>
		<circle id="circle-163" class="st7" cx="597.9" cy="263.1" r="3.9"/>
		<circle id="circle-164" class="st7" cx="597.9" cy="244.4" r="5.5"/>
		<circle id="circle-165" class="st7" cx="597.9" cy="254.6" r="3.7"/>
		<circle id="circle-166" class="st7" cx="615.3" cy="265.4" r="3.3"/>
		<circle id="circle-167" class="st7" cx="615.3" cy="239.1" r="3.8"/>
		<circle id="circle-168" class="st7" cx="615.3" cy="256.9" r="4.2"/>
		<circle id="circle-169" class="st7" cx="615.3" cy="247.9" r="3.9"/>
		<circle id="circle-170" class="st7" cx="632.8" cy="247.7" r="3.3"/>
		<circle id="circle-171" class="st7" cx="632.8" cy="255.5" r="3.5"/>
		<circle id="circle-172" class="st7" cx="650.3" cy="248.7" r="5.4"/>
		<circle id="circle-173" class="st7" cx="650.3" cy="258.5" r="3.4"/>
		<circle id="circle-174" class="st7" cx="667.8" cy="256.2" r="3.2"/>
		<circle id="circle-175" class="st7" cx="667.8" cy="248.3" r="3.7"/>
		<circle id="circle-176" class="st7" cx="702.8" cy="260.4" r="3.4"/>
		<circle id="circle-177" class="st7" cx="702.8" cy="252.6" r="3.4"/>
		<circle id="L_altra_euridice" class="st8" cx="702.8" cy="244.3" r="3.9"/>
		<circle id="circle-178" class="st7" cx="720.3" cy="256.7" r="3.2"/>
		<circle id="Le_memorie_di_Casanova" class="st8" cx="720.3" cy="248.4" r="4"/>
		<circle id="circle-179" class="st7" cx="737.8" cy="258.4" r="3.7"/>
		<circle id="circle-180" class="st7" cx="737.8" cy="248.4" r="5.4"/>
		<circle id="circle-181" class="st7" cx="755.2" cy="247.2" r="3.8"/>
		<circle id="circle-182" class="st7" cx="755.2" cy="256" r="4"/>
		<circle id="circle-183" class="st7" cx="772.7" cy="240" r="3.7"/>
		<circle id="circle-184" class="st7" cx="772.7" cy="248.3" r="3.6"/>
		<circle id="circle-185" class="st7" cx="772.7" cy="258.6" r="5.7"/>
		<text transform="matrix(1 0 0 1 95.62 222.5)" class="st6 st5">I</text>
		<text transform="matrix(1 0 0 1 98.49 222.5)" class="st6 st5">s</text>
		<text transform="matrix(1 0 0 1 102.87 222.5)" class="st6 st5">abella e </text>
		<text transform="matrix(1 0 0 1 139.48 222.5)" class="st6 st5">F</text>
		<text transform="matrix(1 0 0 1 145.46 222.5)" class="st6 st5">iora</text>
		<text transform="matrix(1 0 0 1 162.33 222.5)" class="st6 st5">v</text>
		<text transform="matrix(1 0 0 1 167.1 222.5)" class="st6 st5">anti</text>
		<text transform="matrix(1 0 0 1 180.62 303.99)" class="st6 st5">La s</text>
		<text transform="matrix(1 0 0 1 198.01 303.99)" class="st6 st5">t</text>
		<text transform="matrix(1 0 0 1 201.18 303.99)" class="st6 st5">oria di Kim-Ghi</text>
		<text transform="matrix(1 0 0 1 268.14 303.99)" class="st6 st5">-</text>
		<text transform="matrix(1 0 0 1 272.31 303.99)" class="st6 st5">U</text>
		<text transform="matrix(1 0 0 1 130.16 208.98)" class="st6 st5">U</text>
		<text transform="matrix(1 0 0 1 136.82 208.98)" class="st6 st5">n pae</text>
		<text transform="matrix(1 0 0 1 160.79 208.98)" class="st6 st5">s</text>
		<text transform="matrix(1 0 0 1 165.22 208.98)" class="st6 st5">e di</text>
		<text transform="matrix(1 0 0 1 181.06 208.98)" class="st6 st5">s</text>
		<text transform="matrix(1 0 0 1 185.48 208.98)" class="st6 st5">grazia</text>
		<text transform="matrix(1 0 0 1 211.7 208.98)" class="st6 st5">t</text>
		<text transform="matrix(1 0 0 1 214.88 208.98)" class="st6 st5">o</text>
		<text transform="matrix(1 0 0 1 114.84 287.94)" class="st6 st5">Il </text>
		<text transform="matrix(1 0 0 1 122.92 287.94)" class="st6 st5">g</text>
		<text transform="matrix(1 0 0 1 127.73 287.94)" class="st6 st5">enerale in bibli</text>
		<text transform="matrix(1 0 0 1 191.92 287.94)" class="st6 st5">ot</text>
		<text transform="matrix(1 0 0 1 200.51 287.94)" class="st6 st5">e</text>
		<text transform="matrix(1 0 0 1 205.62 287.94)" class="st6 st5">c</text>
		<text transform="matrix(1 0 0 1 210.44 287.94)" class="st6 st5">a</text>
		<text transform="matrix(1 0 0 1 262.47 288.43)" class="st6 st5">Libe</text>
		<text transform="matrix(1 0 0 1 280.84 288.43)" class="st6 st5">r</text>
		<text transform="matrix(1 0 0 1 284.94 288.43)" class="st6 st5">tà! Libe</text>
		<text transform="matrix(1 0 0 1 317.4 288.43)" class="st6 st5">r</text>
		<text transform="matrix(1 0 0 1 321.5 288.43)" class="st6 st5">tà!</text>
		<text transform="matrix(1 0 0 1 257.12 216.82)" class="st6 st5">I m</text>
		<text transform="matrix(1 0 0 1 270.73 216.82)" class="st6 st5">o</text>
		<text transform="matrix(1 0 0 1 276.15 216.82)" class="st6 st5">zza</text>
		<text transform="matrix(1 0 0 1 290.63 216.82)" class="st6 st5">t</text>
		<text transform="matrix(1 0 0 1 293.81 216.82)" class="st6 st5">ori di nasi</text>
		<text transform="matrix(1 0 0 1 669.46 225.27)" class="st6 st5">L</text>
		<text transform="matrix(1 0 0 1 673.84 225.27)" class="st6 st5">&apos;</text>
		<text transform="matrix(1 0 0 1 676.38 225.27)" class="st6 st5">al</text>
		<text transform="matrix(1 0 0 1 684.11 225.27)" class="st6 st5">t</text>
		<text transform="matrix(1 0 0 1 687.2401 225.27)" class="st6 st5">ra euridi</text>
		<text transform="matrix(1 0 0 1 723.75 225.27)" class="st6 st5">c</text>
		<text transform="matrix(1 0 0 1 728.58 225.27)" class="st6 st5">e</text>
		<text transform="matrix(1 0 0 1 664.36 287.06)" class="st6 st5">L</text>
		<text transform="matrix(1 0 0 1 669.47 287.06)" class="st6 st5">e memorie di </text>
		<text transform="matrix(1 0 0 1 728.74 287.06)" class="st6 st5">C</text>
		<text transform="matrix(1 0 0 1 735.54 287.06)" class="st6 st5">a</text>
		<text transform="matrix(1 0 0 1 740.68 287.06)" class="st6 st5">s</text>
		<text transform="matrix(1 0 0 1 745.06 287.06)" class="st6 st5">an</text>
		<text transform="matrix(1 0 0 1 755.6 287.06)" class="st6 st5">o</text>
		<text transform="matrix(1 0 0 1 760.92 287.06)" class="st6 st5">v</text>
		<text transform="matrix(1 0 0 1 765.69 287.06)" class="st6 st5">a</text>
		<text transform="matrix(1 0 0 1 257.33 200.31)" class="st6 st5">L</text>
		<text transform="matrix(1 0 0 1 262.44 200.31)" class="st6 st5">o jus primae noctis</text>
		<text transform="matrix(1 0 0 1 166.26 365.62)" class="st6 st5">Il vi</text>
		<text transform="matrix(1 0 0 1 181.57 365.62)" class="st6 st5">sc</text>
		<text transform="matrix(1 0 0 1 190.83 365.62)" class="st6 st5">on</text>
		<text transform="matrix(1 0 0 1 201.69 365.62)" class="st6 st5">t</text>
		<text transform="matrix(1 0 0 1 204.87 365.62)" class="st6 st5">e dimezza</text>
		<text transform="matrix(1 0 0 1 248.43 365.62)" class="st6 st5">t</text>
		<text transform="matrix(1 0 0 1 251.6 365.62)" class="st6 st5">o</text>
		<text transform="matrix(1 0 0 1 257.43 355.33)" class="st6 st5">Il ba</text>
		<text transform="matrix(1 0 0 1 276.35 355.33)" class="st6 st5">r</text>
		<text transform="matrix(1 0 0 1 279.78 355.33)" class="st6 st5">one rampan</text>
		<text transform="matrix(1 0 0 1 331.73 355.33)" class="st6 st5">t</text>
		<text transform="matrix(1 0 0 1 334.91 355.33)" class="st6 st5">e</text>
		<text transform="matrix(1 0 0 1 287.86 376.67)" class="st6 st5">Il </text>
		<text transform="matrix(1 0 0 1 295.94 376.67)" class="st6 st5">c</text>
		<text transform="matrix(1 0 0 1 300.77 376.67)" class="st6 st5">a</text>
		<text transform="matrix(1 0 0 1 305.91 376.67)" class="st6 st5">v</text>
		<text transform="matrix(1 0 0 1 310.68 376.67)" class="st6 st5">alie</text>
		<text transform="matrix(1 0 0 1 325.92 376.67)" class="st6 st5">r</text>
		<text transform="matrix(1 0 0 1 329.35 376.67)" class="st6 st5">e inesis</text>
		<text transform="matrix(1 0 0 1 361.36 376.67)" class="st6 st5">t</text>
		<text transform="matrix(1 0 0 1 364.53 376.67)" class="st6 st5">en</text>
		<text transform="matrix(1 0 0 1 375.05 376.67)" class="st6 st5">t</text>
		<text transform="matrix(1 0 0 1 378.22 376.67)" class="st6 st5">e</text>
		<text transform="matrix(1 0 0 1 526.63 388.92)" class="st6 st5">L</text>
		<text transform="matrix(1 0 0 1 531.74 388.92)" class="st6 st5">e città invisibili</text>
		<text transform="matrix(1 0 0 1 611.55 357.84)" class="st6 st5">S</text>
		<text transform="matrix(1 0 0 1 617.16 357.84)" class="st6 st5">e una n</text>
		<text transform="matrix(1 0 0 1 648.85 357.84)" class="st6 st5">o</text>
		<text transform="matrix(1 0 0 1 654.27 357.84)" class="st6 st5">t</text>
		<text transform="matrix(1 0 0 1 657.49 357.84)" class="st6 st5">t</text>
		<text transform="matrix(1 0 0 1 660.67 357.84)" class="st6 st5">e d&apos;in</text>
		<text transform="matrix(1 0 0 1 684.56 357.84)" class="st6 st5">v</text>
		<text transform="matrix(1 0 0 1 689.23 357.84)" class="st6 st5">erno un via</text>
		<text transform="matrix(1 0 0 1 737.48 357.84)" class="st6 st5">g</text>
		<text transform="matrix(1 0 0 1 742.29 357.84)" class="st6 st5">gia</text>
		<text transform="matrix(1 0 0 1 754.84 357.84)" class="st6 st5">t</text>
		<text transform="matrix(1 0 0 1 758.01 357.84)" class="st6 st5">o</text>
		<text transform="matrix(1 0 0 1 763.48 357.84)" class="st6 st5">r</text>
		<text transform="matrix(1 0 0 1 766.9 357.84)" class="st6 st5">e</text>
	</g>
</g>
</svg>
