<svg xmlns="http://www.w3.org/2000/svg" viewBox="0 0 800 456.29"><defs><style>.cls-1{opacity:0.8;}.cls-2,.cls-3{fill:none;}.cls-2,.cls-3,.cls-36,.cls-37,.cls-38,.cls-39,.cls-4,.cls-40,.cls-41,.cls-42,.cls-43,.cls-44{stroke:#000;stroke-miterlimit:10;}.cls-2,.cls-3,.cls-37,.cls-38,.cls-39,.cls-4,.cls-40,.cls-41,.cls-42,.cls-43,.cls-44{stroke-width:0.5px;}.cls-3{stroke-dasharray:2.63 2.63;}.cls-36,.cls-4{fill:#fff;}.cls-10,.cls-18,.cls-30,.cls-31,.cls-5{font-size:9.6px;}.cls-30,.cls-5{font-family:HKGrotesk-Medium, HK Grotesk;font-weight:500;}.cls-6{letter-spacing:0em;}.cls-7{letter-spacing:0em;}.cls-18,.cls-8{letter-spacing:0em;}.cls-9{letter-spacing:0em;}.cls-10,.cls-18,.cls-31{font-family:HKGrotesk-Regular, HK Grotesk;}.cls-11{letter-spacing:-0.01em;}.cls-12{letter-spacing:-0.05em;}.cls-13{letter-spacing:-0.01em;}.cls-14{letter-spacing:0em;}.cls-15{letter-spacing:-0.02em;}.cls-16{letter-spacing:0em;}.cls-17{letter-spacing:-0.01em;}.cls-19{letter-spacing:-0.02em;}.cls-20{letter-spacing:-0.03em;}.cls-21{letter-spacing:-0.04em;}.cls-22{letter-spacing:-0.01em;}.cls-23{letter-spacing:0em;}.cls-24{letter-spacing:-0.05em;}.cls-25{letter-spacing:0em;}.cls-26{letter-spacing:-0.02em;}.cls-27{letter-spacing:-0.08em;}.cls-28{letter-spacing:0em;}.cls-29{letter-spacing:-0.1em;}.cls-30,.cls-46{letter-spacing:-0.04em;}.cls-31{isolation:isolate;}.cls-32{letter-spacing:0em;}.cls-33{letter-spacing:-0.01em;}.cls-34{letter-spacing:0em;}.cls-35{letter-spacing:0em;}.cls-36{stroke-width:0.25px;}.cls-37{fill:#c2faef;}.cls-38{fill:#c0f9ed;}.cls-39{fill:#b6f5e7;}.cls-40{fill:#bdf8ec;}.cls-41{fill:#b9f6e9;}.cls-42{fill:#b4f4e6;}.cls-43{fill:#00c19c;}.cls-44{fill:#9eebd8;}.cls-45{letter-spacing:-0.01em;}.cls-47{letter-spacing:-0.02em;}.cls-48{letter-spacing:0.02em;}.cls-49{letter-spacing:-0.02em;}.cls-50{letter-spacing:-0.01em;}.cls-51{letter-spacing:0.01em;}</style></defs><title>infosheet-spazio</title><g id="Layer_3" data-name="Layer 3"><g class="cls-1"><line class="cls-2" x1="1.57" y1="109.15" x2="2.88" y2="109.15"/><line class="cls-3" x1="5.51" y1="109.15" x2="825.21" y2="109.15"/></g><g class="cls-1"><line class="cls-2" x1="1.57" y1="251.92" x2="2.88" y2="251.92"/><line class="cls-3" x1="5.51" y1="251.92" x2="825.21" y2="251.92"/></g><g class="cls-1"><line class="cls-2" x1="1.57" y1="363.17" x2="2.88" y2="363.17"/><line class="cls-3" x1="5.51" y1="363.17" x2="825.21" y2="363.17"/></g></g><g id="Layer_5" data-name="Layer 5"><line class="cls-2" x1="737.76" y1="105.47" x2="737.76" y2="80.47"/><path class="cls-2" d="M410.39,91.12V37.7A3.74,3.74,0,0,1,414.12,34h0"/><path class="cls-2" d="M480.15,94.26V84.49A5.47,5.47,0,0,1,485.62,79h0"/><line class="cls-2" x1="497.08" y1="121.59" x2="506.14" y2="121.59"/><line class="cls-2" x1="478.39" y1="112.4" x2="478.39" y2="148.54"/><path class="cls-2" d="M402.86,85.37v-62a8.24,8.24,0,0,1,8.24-8.24h0"/><path class="cls-2" d="M473.28,86.35V57.93a4.44,4.44,0,0,1,4.44-4.44h2.34"/><line class="cls-2" x1="324.3" y1="94.8" x2="324.3" y2="50.88"/><line class="cls-2" x1="159.56" y1="124.58" x2="159.56" y2="152.38"/><path class="cls-2" d="M147.27,120.19v20a5.72,5.72,0,0,1-5.72,5.72h-2.77"/><path class="cls-2" d="M150.47,112.36V75.27a6.64,6.64,0,0,1,6.65-6.64h0"/><line class="cls-2" x1="145.99" y1="112.36" x2="145.99" y2="52.55"/><path class="cls-2" d="M319.41,103.25V33.56a6.7,6.7,0,0,0-6.71-6.71H308"/><line class="cls-2" x1="702.82" y1="243.1" x2="702.82" y2="227.25"/><line class="cls-4" x1="143.02" y1="243.1" x2="143.02" y2="227.25"/><path class="cls-2" d="M245.37,243.1V204.63a5,5,0,0,1,5-5h3.34"/><line class="cls-2" x1="720.3" y1="249.2" x2="720.3" y2="278.47"/><path class="cls-2" d="M246.7,231.94V221.4a5,5,0,0,1,5-5h3.36"/><path class="cls-2" d="M251.18,267.27v15.27a5.18,5.18,0,0,0,5.18,5.18h3.11"/><path class="cls-2" d="M219.59,287.6h4.52a5,5,0,0,0,5-5v-28"/><line class="cls-4" x1="232.47" y1="262.94" x2="232.47" y2="293.72"/><path class="cls-2" d="M230.37,236V213.11a5,5,0,0,0-5-5h-4"/><line class="cls-2" x1="422.88" y1="125.11" x2="423.09" y2="164.25"/></g><g id="Layer_4" data-name="Layer 4"><g id="Layer_2" data-name="Layer 2"><text class="cls-5" transform="translate(8.91 101.87)"><tspan class="cls-6">r</tspan><tspan class="cls-7" x="3.89" y="0">a</tspan><tspan class="cls-8" x="9" y="0">cc</tspan><tspan x="18.56" y="0">ol</tspan><tspan class="cls-9" x="26.56" y="0">t</tspan><tspan x="29.9" y="0">a</tspan></text><text class="cls-10" transform="translate(80.57 145.53)">I figli pol<tspan class="cls-11" x="36.83" y="0">t</tspan><tspan class="cls-12" x="39.96" y="0">r</tspan><tspan x="43.39" y="0">oni</tspan></text><text class="cls-10" transform="translate(81.98 47.81)"><tspan class="cls-13">C</tspan><tspan x="6.9" y="0">hi ha mes</tspan><tspan class="cls-8" x="48.2" y="0">s</tspan><tspan class="cls-14" x="52.63" y="0">o la mina nel ma</tspan><tspan class="cls-12" x="123.73" y="0">r</tspan><tspan x="127.16" y="0">e?</tspan></text><text class="cls-10" transform="translate(159.52 68.23)">Dollari e <tspan class="cls-15" x="39.36" y="0">v</tspan><tspan class="cls-16" x="44.03" y="0">e</tspan><tspan class="cls-17" x="49.14" y="0">c</tspan><tspan x="53.97" y="0">chie mondane</tspan></text><text class="cls-18" transform="translate(103.99 159.56)">U<tspan class="cls-14" x="6.66" y="0">no dei </tspan><tspan class="cls-13" x="35.99" y="0">t</tspan><tspan class="cls-12" x="39.12" y="0">r</tspan><tspan class="cls-14" x="42.55" y="0">e è an</tspan><tspan x="68.54" y="0">c</tspan><tspan class="cls-14" x="73.37" y="0">ora vi</tspan><tspan class="cls-19" x="97.68" y="0">v</tspan><tspan class="cls-14" x="102.35" y="0">o</tspan></text><text class="cls-10" transform="translate(283.47 46.4)">La n<tspan class="cls-8" x="18.32" y="0">o</tspan><tspan x="23.73" y="0">t</tspan><tspan class="cls-17" x="26.96" y="0">t</tspan><tspan class="cls-16" x="30.13" y="0">e dei </tspan><tspan class="cls-11" x="53.7" y="0">n</tspan><tspan x="59.01" y="0">umeri</tspan></text><text class="cls-10" transform="translate(221.12 27.32)">La signora <tspan class="cls-20" x="47.28" y="0">P</tspan><tspan class="cls-13" x="52.68" y="0">a</tspan><tspan x="57.72" y="0">ulatim</tspan></text><text class="cls-10" transform="translate(414.52 14.92)"><tspan class="cls-21">F</tspan><tspan x="5.6" y="0">umo, </tspan><tspan class="cls-22" x="30.37" y="0">v</tspan><tspan class="cls-23" x="35.05" y="0">en</tspan><tspan class="cls-8" x="45.56" y="0">t</tspan><tspan x="48.74" y="0">o e bolle di </tspan><tspan class="cls-13" x="99.36" y="0">s</tspan><tspan x="103.74" y="0">apone</tspan></text><text class="cls-10" transform="translate(415.83 34.37)">Il gia<tspan class="cls-24" x="20.63" y="0">r</tspan><tspan class="cls-25" x="24.06" y="0">dino dei </tspan><tspan class="cls-8" x="61.5" y="0">g</tspan><tspan x="66.45" y="0">atti ostinati</tspan></text><text class="cls-10" transform="translate(303.75 164.8)">I figli di <tspan class="cls-13" x="33.81" y="0">B</tspan><tspan x="39.84" y="0">abbo </tspan><tspan class="cls-17" x="64.46" y="0">N</tspan><tspan class="cls-16" x="71.33" y="0">atale</tspan></text><text class="cls-10" transform="translate(373.91 176.11)">La distanza della <tspan class="cls-26" x="75.45" y="0">L</tspan><tspan x="80.41" y="0">una</tspan></text><text class="cls-10" transform="translate(481.7 53.22)"><tspan class="cls-27">L</tspan><tspan class="cls-26" x="4.38" y="0">&apos;</tspan><tspan class="cls-25" x="6.83" y="0">origine degli </tspan><tspan class="cls-28" x="62.53" y="0">ucc</tspan><tspan x="77.55" y="0">elli</tspan></text><text class="cls-10" transform="translate(487.2 78.65)">Il <tspan class="cls-8" x="8.08" y="0">g</tspan><tspan x="13.04" y="0">uida</tspan><tspan class="cls-8" x="31.69" y="0">t</tspan><tspan x="34.87" y="0">o</tspan><tspan class="cls-24" x="40.33" y="0">r</tspan><tspan x="43.76" y="0">e n</tspan><tspan class="cls-8" x="56.89" y="0">o</tspan><tspan x="62.3" y="0">tturno</tspan></text><text class="cls-10" transform="translate(448.98 158.03)">La molle <tspan class="cls-26" x="39.41" y="0">L</tspan><tspan class="cls-25" x="44.37" y="0">una</tspan></text><text class="cls-10" transform="translate(506.11 122.43)"><tspan class="cls-29">T</tspan><tspan class="cls-23" x="5.06" y="0">empesta </tspan><tspan class="cls-8" x="44.55" y="0">s</tspan><tspan x="48.98" y="0">ola</tspan><tspan class="cls-24" x="62.17" y="0">r</tspan><tspan x="65.6" y="0">e</tspan></text><text class="cls-10" transform="translate(697.77 78.66)">La pancia del <tspan class="cls-26" x="60.22" y="0">g</tspan><tspan x="65.03" y="0">e</tspan><tspan class="cls-8" x="70.14" y="0">c</tspan><tspan x="74.97" y="0">o</tspan></text><text class="cls-30" transform="translate(7.24 354.52)">r<tspan class="cls-16" x="3.51" y="0">oman</tspan><tspan class="cls-7" x="27.59" y="0">z</tspan><tspan class="cls-16" x="32.16" y="0">o</tspan></text><text class="cls-31" transform="translate(431.49 446.37)">1<tspan class="cls-32" x="5.44" y="0">9</tspan><tspan x="10.85" y="0">65</tspan></text><text class="cls-31" transform="translate(519.37 446.37)">1970</text><text class="cls-31" transform="translate(607.24 446.37)">1975</text><text class="cls-31" transform="translate(695.1 446.37)">1<tspan class="cls-33" x="5.44" y="0">98</tspan><tspan x="16.23" y="0">0</tspan></text><text class="cls-31" transform="translate(763.42 446.37)">1<tspan class="cls-33" x="5.44" y="0">9</tspan><tspan x="10.84" y="0">84</tspan></text><text class="cls-31" transform="translate(80.09 446.37)">1945</text><text class="cls-31" transform="translate(167.95 446.37)">1<tspan class="cls-34" x="5.44" y="0">9</tspan><tspan x="10.84" y="0">50</tspan></text><text class="cls-31" transform="translate(255.75 446.37)">1<tspan class="cls-34" x="5.44" y="0">9</tspan><tspan x="10.84" y="0">55</tspan></text><text class="cls-31" transform="translate(343.62 446.37)">1<tspan class="cls-35" x="5.44" y="0">9</tspan><tspan class="cls-16" x="10.85" y="0">60</tspan></text><path class="cls-2" d="M408.08,123.29l.19,35.94a5,5,0,0,1-5,5h-4.68"/></g><g id="Layer_1" data-name="Layer 1"><circle id="circle" class="cls-36" cx="90.71" cy="108.38" r="4.09"/><circle id="circle-2" data-name="circle" class="cls-36" cx="108.33" cy="108.67" r="3.56"/><circle id="circle-3" data-name="circle" class="cls-36" cx="108.17" cy="94.82" r="3.43"/><circle id="circle-4" data-name="circle" class="cls-36" cx="108.12" cy="116.93" r="3.72"/><circle id="circle-5" data-name="circle" class="cls-36" cx="112.21" cy="101.63" r="3.48"/><circle id="circle-6" data-name="circle" class="cls-36" cx="104.22" cy="101.72" r="3.51"/><circle id="circle-7" data-name="circle" class="cls-36" cx="108.22" cy="125.13" r="3.49"/><circle id="circle-8" data-name="circle" class="cls-36" cx="122.92" cy="99.71" r="3.76"/><circle id="circle-9" data-name="circle" class="cls-36" cx="122.41" cy="116.96" r="3.58"/><circle id="circle-10" data-name="circle" class="cls-36" cx="129.4" cy="113" r="3.45"/><circle id="circle-11" data-name="circle" class="cls-36" cx="126.24" cy="92.11" r="3.54"/><circle id="circle-12" data-name="circle" class="cls-36" cx="126.44" cy="124.09" r="3.61"/><circle id="circle-13" data-name="circle" class="cls-36" cx="129.8" cy="104.77" r="3.77"/><circle id="circle-14" data-name="circle" class="cls-36" cx="122.57" cy="108.85" r="3.53"/><circle id="I_figli_poltroni" data-name="I figli poltroni" class="cls-37" cx="147" cy="121.03" r="3.52"/><circle id="circle-15" data-name="circle" class="cls-36" cx="141.84" cy="88.37" r="3.44"/><circle id="circle-16" data-name="circle" class="cls-36" cx="139.62" cy="116.98" r="3.88"/><circle id="circle-17" data-name="circle" class="cls-36" cx="139.32" cy="108.24" r="3.86"/><circle id="circle-18" data-name="circle" class="cls-36" cx="139.07" cy="99.69" r="3.7"/><circle id="circle-19" data-name="circle" class="cls-36" cx="141.32" cy="126.98" r="3.71"/><circle id="circle-20" data-name="circle" class="cls-36" cx="146.32" cy="95.26" r="3.79"/><circle id="Chi_ha_messo_la_mina_nel_mare_" data-name="Chi ha messo la mina nel mare?" class="cls-38" cx="146.35" cy="103.6" r="3.56"/><circle id="Dollari_e_vecchie_mondane" data-name="Dollari e vecchie mondane" class="cls-39" cx="147.44" cy="112.31" r="4.22"/><circle id="circle-21" data-name="circle" class="cls-36" cx="163.05" cy="100.7" r="3.92"/><circle id="circle-22" data-name="circle" class="cls-36" cx="165.28" cy="117.26" r="3.38"/><circle id="circle-23" data-name="circle" class="cls-36" cx="164.11" cy="109.26" r="3.71"/><circle id="circle-24" data-name="circle" class="cls-36" cx="156.13" cy="106.13" r="3.86"/><circle id="Uno_dei_tre_è_ancora_vivo" data-name="Uno dei tre è ancora vivo" class="cls-37" cx="159.44" cy="123.03" r="3.82"/><circle id="circle-25" data-name="circle" class="cls-36" cx="160.1" cy="92.17" r="4.11"/><circle id="circle-26" data-name="circle" class="cls-36" cx="157.55" cy="114.64" r="3.77"/><circle id="circle-27" data-name="circle" class="cls-36" cx="178.15" cy="112.65" r="3.94"/><circle id="circle-28" data-name="circle" class="cls-36" cx="178.15" cy="103.88" r="3.83"/><circle id="circle-29" data-name="circle" class="cls-36" cx="195.64" cy="108.41" r="4.2"/><circle id="circle-30" data-name="circle" class="cls-36" cx="217.12" cy="100.75" r="3.65"/><circle id="circle-31" data-name="circle" class="cls-36" cx="209.14" cy="101.06" r="3.33"/><circle id="circle-32" data-name="circle" class="cls-36" cx="213.08" cy="111.87" r="7.18"/><circle id="circle-33" data-name="circle" class="cls-36" cx="212.56" cy="94.36" r="3.19"/><circle id="circle-34" data-name="circle" class="cls-36" cx="213.13" cy="123.41" r="3.36"/><circle id="circle-35" data-name="circle" class="cls-36" cx="235.72" cy="108.21" r="3.26"/><circle id="circle-36" data-name="circle" class="cls-36" cx="228.34" cy="110.39" r="3.42"/><circle id="circle-37" data-name="circle" class="cls-36" cx="229.66" cy="125.15" r="3.99"/><circle id="circle-38" data-name="circle" class="cls-36" cx="229.53" cy="100.08" r="5.96"/><circle id="circle-39" data-name="circle" class="cls-36" cx="225.58" cy="117.7" r="3.39"/><circle id="circle-40" data-name="circle" class="cls-36" cx="234.48" cy="116.92" r="4.55"/><circle id="circle-41" data-name="circle" class="cls-36" cx="230.84" cy="89.25" r="3.95"/><circle id="circle-42" data-name="circle" class="cls-36" cx="248.1" cy="112.18" r="5.27"/><circle id="circle-43" data-name="circle" class="cls-36" cx="248.1" cy="101.97" r="3.94"/><circle id="circle-44" data-name="circle" class="cls-36" cx="265.59" cy="108.37" r="4.49"/><circle id="circle-45" data-name="circle" class="cls-36" cx="283.07" cy="108.4" r="3.46"/><circle id="circle-46" data-name="circle" class="cls-36" cx="300.56" cy="108.36" r="3.56"/><circle id="circle-47" data-name="circle" class="cls-36" cx="308.42" cy="115.22" r="3.95"/><circle id="La_notte_dei_numeri" data-name="La notte dei numeri" class="cls-37" cx="324.5" cy="96.23" r="4.2"/><circle id="circle-48" data-name="circle" class="cls-36" cx="314.59" cy="95.89" r="4.7"/><circle id="La_nuvola_di_smog" data-name="La nuvola di smog" class="cls-40" cx="317.8" cy="125.46" r="8.93"/><circle id="La_signora_Paulatim" data-name="La signora Paulatim" class="cls-38" cx="319.75" cy="103.9" r="3.84"/><circle id="circle-49" data-name="circle" class="cls-36" cx="325.81" cy="113.18" r="4.73"/><circle id="circle-50" data-name="circle" class="cls-36" cx="316.42" cy="111.85" r="3.77"/><circle id="circle-51" data-name="circle" class="cls-36" cx="318.1" cy="79.56" r="4.56"/><circle id="circle-52" data-name="circle" class="cls-36" cx="328.12" cy="104.18" r="3.57"/><circle id="circle-53" data-name="circle" class="cls-36" cx="310.92" cy="104.94" r="4.06" transform="translate(166.46 399.59) rotate(-82.53)"/><circle id="circle-54" data-name="circle" class="cls-36" cx="312.08" cy="86.74" r="3.8" transform="translate(176.47 380.89) rotate(-80.78)"/><circle id="circle-55" data-name="circle" class="cls-36" cx="318.13" cy="138.78" r="3.4"/><circle id="circle-56" data-name="circle" class="cls-36" cx="320.11" cy="88.5" r="3.64"/><circle id="circle-57" data-name="circle" class="cls-36" cx="335.54" cy="108.4" r="3.76"/><circle id="circle-58" data-name="circle" class="cls-36" cx="402.62" cy="99.12" r="3.57"/><circle id="circle-59" data-name="circle" class="cls-36" cx="409.7" cy="103.36" r="3.68"/><circle id="circle-60" data-name="circle" class="cls-36" cx="406.5" cy="127.95" r="3.71"/><circle id="Fumo_vento_e_bolle_di_sapone" data-name="Fumo, vento e bolle di sapone" class="cls-37" cx="409.8" cy="95.04" r="3.67"/><circle id="circle-61" data-name="circle" class="cls-36" cx="408.9" cy="111.38" r="3.4"/><circle id="circle-62" data-name="circle" class="cls-36" cx="400.74" cy="122.36" r="3.3"/><circle id="Il_giardino_dei_gatti_ostinati" data-name="Il giardino dei gatti ostinati" class="cls-37" cx="402.86" cy="89.55" r="4.18"/><circle id="I_figli_di_Babbo_Natale" data-name="I figli di Babbo Natale" class="cls-37" cx="408.41" cy="119.61" r="3.84"/><circle id="circle-63" data-name="circle" class="cls-36" cx="402.6" cy="106.97" r="3.28"/><circle id="circle-64" data-name="circle" class="cls-36" cx="401.75" cy="114.67" r="3.46"/><circle id="La_distanza_della_Luna" data-name="La distanza della Luna" class="cls-37" cx="422.98" cy="121.17" r="4.7"/><circle id="circle-65" data-name="circle" class="cls-36" cx="422.98" cy="94.24" r="4.09"/><circle id="circle-66" data-name="circle" class="cls-36" cx="422.98" cy="103.4" r="4.08"/><circle id="circle-67" data-name="circle" class="cls-36" cx="422.98" cy="111.98" r="3.5"/><circle id="circle-68" data-name="circle" class="cls-36" cx="436.24" cy="89.74" r="4.06"/><circle id="circle-69" data-name="circle" class="cls-36" cx="443.58" cy="123.24" r="3.81"/><circle id="circle-70" data-name="circle" class="cls-36" cx="436.04" cy="118.29" r="4.2"/><circle id="circle-71" data-name="circle" class="cls-36" cx="437.33" cy="109.28" r="3.94"/><circle id="circle-72" data-name="circle" class="cls-36" cx="436.04" cy="127.09" r="3.63"/><circle id="circle-73" data-name="circle" class="cls-36" cx="443.88" cy="84.89" r="3.99"/><circle id="circle-74" data-name="circle" class="cls-36" cx="444.34" cy="114.59" r="3.87"/><circle id="circle-75" data-name="circle" class="cls-36" cx="444.46" cy="103.95" r="3.94"/><circle id="circle-76" data-name="circle" class="cls-36" cx="435.65" cy="99.63" r="4.86"/><circle id="circle-77" data-name="circle" class="cls-36" cx="443.37" cy="132.56" r="4.52"/><circle id="circle-78" data-name="circle" class="cls-36" cx="444.7" cy="94.42" r="4.58"/><circle id="circle-79" data-name="circle" class="cls-36" cx="457.95" cy="108.4" r="4.58"/><circle id="circle-80" data-name="circle" class="cls-36" cx="470.57" cy="117.73" r="4.56"/><circle id="circle-81" data-name="circle" class="cls-36" cx="476.62" cy="81.45" r="4.51"/><circle id="circle-82" data-name="circle" class="cls-36" cx="471.3" cy="127.11" r="3.87"/><circle id="L_origine_degli_uccelli" data-name="L&apos;origine degli uccelli" class="cls-38" cx="473.28" cy="90.55" r="4.2"/><circle id="circle-83" data-name="circle" class="cls-36" cx="472.27" cy="99.43" r="3.75"/><circle id="circle-84" data-name="circle" class="cls-36" cx="478.99" cy="131.91" r="4.18"/><circle id="Il_guidatore_notturno" data-name="Il guidatore notturno" class="cls-38" cx="480.22" cy="96.31" r="3.8"/><circle id="La_molle_Luna" data-name="La molle Luna" class="cls-37" cx="478.75" cy="112.9" r="3.92"/><circle id="circle-85" data-name="circle" class="cls-36" cx="471.11" cy="108.16" r="4.06"/><circle id="circle-86" data-name="circle" class="cls-36" cx="478.83" cy="104.47" r="3.49"/><circle id="circle-87" data-name="circle" class="cls-36" cx="479.18" cy="122.46" r="4.26"/><circle id="circle-88" data-name="circle" class="cls-36" cx="492.93" cy="103.19" r="4.33"/><circle id="circle-89" data-name="circle" class="cls-36" cx="492.93" cy="112.27" r="3.76"/><circle id="Tempesta_solare" data-name="Tempesta solare" class="cls-37" cx="492.93" cy="121.07" r="4.04"/><circle id="circle-90" data-name="circle" class="cls-36" cx="492.93" cy="94.47" r="3.4"/><circle id="circle-91" data-name="circle" class="cls-36" cx="615.49" cy="115.56" r="3.11"/><circle id="circle-92" data-name="circle" class="cls-36" cx="611.73" cy="109.39" r="3.13"/><circle id="circle-93" data-name="circle" class="cls-36" cx="615.23" cy="102.59" r="3.52"/><circle id="circle-94" data-name="circle" class="cls-36" cx="615.3" cy="122.78" r="3.12"/><circle id="circle-95" data-name="circle" class="cls-36" cx="615.37" cy="94.63" r="3.44"/><circle id="circle-96" data-name="circle" class="cls-36" cx="618.98" cy="109.23" r="3.12"/><circle id="circle-97" data-name="circle" class="cls-36" cx="632.83" cy="112.18" r="3.23"/><circle id="circle-98" data-name="circle" class="cls-36" cx="632.83" cy="104.66" r="3.28"/><circle id="circle-99" data-name="circle" class="cls-36" cx="650.32" cy="112.14" r="3.24"/><circle id="circle-100" data-name="circle" class="cls-36" cx="650.32" cy="104.65" r="3.25"/><circle id="circle-101" data-name="circle" class="cls-36" cx="702.78" cy="108.37" r="3.22"/><circle id="circle-102" data-name="circle" class="cls-36" cx="720.27" cy="108.41" r="3.48"/><circle id="circle-103" data-name="circle" class="cls-36" cx="737.76" cy="101.05" r="3.42"/><circle id="circle-104" data-name="circle" class="cls-36" cx="737.76" cy="116.28" r="3.17"/><circle id="La_pancia_del_geco" data-name="La pancia del geco" class="cls-37" cx="737.76" cy="108.79" r="3.32"/><circle id="circle-105" data-name="circle" class="cls-36" cx="751.39" cy="99.24" r="3.49"/><circle id="circle-106" data-name="circle" class="cls-36" cx="759.19" cy="125.73" r="3.45"/><circle id="circle-107" data-name="circle" class="cls-36" cx="758.51" cy="110.53" r="3.18"/><circle id="circle-108" data-name="circle" class="cls-36" cx="758.03" cy="95.06" r="3.35"/><circle id="circle-109" data-name="circle" class="cls-36" cx="752.52" cy="121.92" r="3.21"/><circle id="circle-110" data-name="circle" class="cls-36" cx="757.8" cy="87.31" r="3.39"/><circle id="circle-111" data-name="circle" class="cls-36" cx="758.95" cy="117.99" r="3.31"/><circle id="circle-112" data-name="circle" class="cls-36" cx="752.31" cy="114.53" r="3.19"/><circle id="circle-113" data-name="circle" class="cls-36" cx="751.86" cy="107.03" r="3.33"/><circle id="circle-114" data-name="circle" class="cls-36" cx="752.36" cy="129.47" r="3.35"/><circle id="circle-115" data-name="circle" class="cls-36" cx="751.23" cy="91.42" r="3.36"/><circle id="circle-116" data-name="circle" class="cls-36" cx="758.49" cy="102.88" r="3.49"/><circle id="circle-117" data-name="circle" class="cls-36" cx="772.73" cy="112.18" r="3.88"/><circle id="circle-118" data-name="circle" class="cls-36" cx="772.73" cy="103.8" r="3.49"/><circle id="circle-119" data-name="circle" class="cls-36" cx="300.61" cy="394.59" r="12.89"/><circle id="circle-120" data-name="circle" class="cls-36" cx="581.59" cy="357.83" r="8.77"/><circle id="circle-121" data-name="circle" class="cls-36" cx="125.68" cy="363.45" r="17.69"/><circle id="Il_visconte_dimezzato" data-name="Il visconte dimezzato" class="cls-41" cx="213.12" cy="363.45" r="11.09"/><circle id="Il_barone_rampante" data-name="Il barone rampante" class="cls-42" cx="299.99" cy="353.16" r="27.55"/><circle id="Il_cavaliere_inesistente" data-name="Il cavaliere inesistente" class="cls-37" cx="337.48" cy="374.5" r="14.59"/><circle id="circle-122" data-name="circle" class="cls-36" cx="405.49" cy="363.46" r="10.1"/><circle id="circle-123" data-name="circle" class="cls-36" cx="510.42" cy="363.44" r="6.65"/><circle id="Le_città_invisibili" data-name="Le città invisibili" class="cls-43" cx="562.16" cy="366.75" r="11.6"/><circle id="circle-124" data-name="circle" class="cls-36" cx="597.86" cy="363.46" r="3.9"/><circle id="Se_una_notte_d_inverno_un_viaggiatore" data-name="Se una notte d&apos;inverno un viaggiatore" class="cls-44" cx="685.29" cy="363.44" r="30"/><path class="cls-2" d="M55.65,433.25v-4H775.57v4"/><line class="cls-2" x1="90.79" y1="428.92" x2="90.79" y2="433.25"/><line class="cls-2" x1="178.67" y1="428.92" x2="178.67" y2="433.25"/><line class="cls-2" x1="266.54" y1="428.92" x2="266.54" y2="433.25"/><line class="cls-2" x1="354.41" y1="428.92" x2="354.41" y2="433.25"/><line class="cls-2" x1="442.28" y1="428.92" x2="442.28" y2="433.25"/><line class="cls-2" x1="530.15" y1="428.92" x2="530.15" y2="433.25"/><line class="cls-2" x1="618.02" y1="428.92" x2="618.02" y2="433.25"/><line class="cls-2" x1="705.89" y1="428.92" x2="705.89" y2="433.25"/><text class="cls-10" transform="translate(280.44 128.54)">La <tspan class="cls-11" x="12.91" y="0">n</tspan><tspan x="18.22" y="0">u</tspan><tspan class="cls-19" x="23.63" y="0">v</tspan><tspan x="28.3" y="0">ola di smog</tspan></text><text class="cls-5" transform="translate(11.74 244.8)">al<tspan class="cls-45" x="7.74" y="0">t</tspan><tspan class="cls-46" x="10.98" y="0">r</tspan><tspan x="14.5" y="0">o</tspan></text><circle id="circle-125" data-name="circle" class="cls-36" cx="55.73" cy="251.41" r="3.07"/><circle id="circle-126" data-name="circle" class="cls-36" cx="55.73" cy="258.66" r="3.18"/><circle id="circle-127" data-name="circle" class="cls-36" cx="55.73" cy="244.35" r="3"/><circle id="circle-128" data-name="circle" class="cls-36" cx="108.2" cy="259.26" r="3.68"/><circle id="circle-129" data-name="circle" class="cls-36" cx="108.2" cy="251.2" r="3.38"/><circle id="circle-130" data-name="circle" class="cls-36" cx="108.2" cy="243.44" r="3.37"/><circle id="circle-131" data-name="circle" class="cls-36" cx="125.68" cy="255.9" r="3.47"/><circle id="circle-132" data-name="circle" class="cls-36" cx="125.68" cy="247.81" r="3.61"/><circle id="circle-133" data-name="circle" class="cls-36" cx="143.17" cy="252.15" r="3.15"/><circle id="circle-134" data-name="circle" class="cls-36" cx="143.17" cy="259.56" r="3.26"/><circle id="Isabella_e_Fioravanti" data-name="Isabella e Fioravanti" class="cls-37" cx="143.17" cy="244.49" r="3.52"/><circle id="circle-135" data-name="circle" class="cls-36" cx="160.66" cy="255.73" r="3.41"/><circle id="circle-136" data-name="circle" class="cls-36" cx="160.66" cy="247.84" r="3.48"/><circle id="circle-137" data-name="circle" class="cls-36" cx="178.15" cy="251.8" r="3.39"/><circle id="circle-138" data-name="circle" class="cls-36" cx="178.15" cy="259.81" r="3.63"/><circle id="circle-139" data-name="circle" class="cls-36" cx="178.15" cy="243.73" r="3.67"/><circle id="circle-140" data-name="circle" class="cls-36" cx="195.64" cy="251.72" r="3.54"/><circle id="circle-141" data-name="circle" class="cls-36" cx="213.12" cy="255.57" r="3.43"/><circle id="circle-142" data-name="circle" class="cls-36" cx="213.12" cy="247.79" r="3.36"/><circle id="circle-143" data-name="circle" class="cls-36" cx="213.12" cy="263.39" r="3.4"/><circle id="circle-144" data-name="circle" class="cls-36" cx="213.12" cy="240.03" r="3.41"/><circle id="circle-145" data-name="circle" class="cls-36" cx="230.61" cy="247.07" r="3.34"/><circle id="La_storia_di_Kim-Ghi-U" data-name="La storia di Kim-Ghi-U" class="cls-40" cx="230.61" cy="255" r="3.59"/><circle id="Un_paese_disgraziato" data-name="Un paese disgraziato" class="cls-37" cx="230.61" cy="239.47" r="3.27"/><circle id="Il_generale_in_biblioteca" data-name="Il generale in biblioteca" class="cls-37" cx="230.61" cy="263.14" r="3.56"/><circle id="circle-146" data-name="circle" class="cls-36" cx="244.39" cy="247.99" r="3.57"/><circle id="circle-147" data-name="circle" class="cls-36" cx="252.17" cy="236.84" r="3.44"/><circle id="Libertà_Libertà_" data-name="Libertà! Libertà!" class="cls-40" cx="251.69" cy="266.74" r="3.21"/><circle id="I_mozzatori_di_nasi" data-name="I mozzatori di nasi" class="cls-37" cx="245.83" cy="232.61" r="3.18"/><circle id="circle-148" data-name="circle" class="cls-36" cx="245.17" cy="263.13" r="3.23"/><circle id="circle-149" data-name="circle" class="cls-36" cx="244.98" cy="255.72" r="3.18"/><circle id="Lo_jus_primae_noctis" data-name="Lo jus primae noctis" class="cls-37" cx="245.07" cy="240.1" r="3.36"/><circle id="circle-150" data-name="circle" class="cls-36" cx="246.14" cy="271.81" r="3.31"/><circle id="circle-151" data-name="circle" class="cls-36" cx="251.26" cy="244.39" r="3.18"/><circle id="circle-152" data-name="circle" class="cls-36" cx="251.18" cy="251.74" r="3.18"/><circle id="circle-153" data-name="circle" class="cls-36" cx="251.63" cy="259.23" r="3.32"/><circle id="circle-154" data-name="circle" class="cls-36" cx="300.56" cy="251.7" r="3.47"/><circle id="circle-155" data-name="circle" class="cls-36" cx="318.05" cy="259.34" r="3.43"/><circle id="circle-156" data-name="circle" class="cls-36" cx="318.05" cy="251.53" r="3.38"/><circle id="circle-157" data-name="circle" class="cls-36" cx="318.05" cy="243.83" r="3.32"/><circle id="circle-158" data-name="circle" class="cls-36" cx="388" cy="251.74" r="5.26"/><circle id="circle-159" data-name="circle" class="cls-36" cx="405.49" cy="251.7" r="3.58"/><circle id="circle-160" data-name="circle" class="cls-36" cx="510.42" cy="251.72" r="4.45"/><circle id="circle-161" data-name="circle" class="cls-36" cx="545.39" cy="251.73" r="4.25"/><circle id="circle-162" data-name="circle" class="cls-36" cx="562.88" cy="251.7" r="4.42" transform="translate(220.93 764.78) rotate(-80.41)"/><circle id="circle-163" data-name="circle" class="cls-36" cx="597.86" cy="263.13" r="3.87"/><circle id="circle-164" data-name="circle" class="cls-36" cx="597.86" cy="244.39" r="5.54"/><circle id="circle-165" data-name="circle" class="cls-36" cx="597.86" cy="254.6" r="3.67"/><circle id="circle-166" data-name="circle" class="cls-36" cx="615.34" cy="265.38" r="3.31"/><circle id="circle-167" data-name="circle" class="cls-36" cx="615.34" cy="239.14" r="3.84"/><circle id="circle-168" data-name="circle" class="cls-36" cx="615.34" cy="256.91" r="4.16"/><circle id="circle-169" data-name="circle" class="cls-36" cx="615.34" cy="247.86" r="3.89"/><circle id="circle-170" data-name="circle" class="cls-36" cx="632.83" cy="247.7" r="3.34"/><circle id="circle-171" data-name="circle" class="cls-36" cx="632.83" cy="255.5" r="3.46"/><circle id="circle-172" data-name="circle" class="cls-36" cx="650.32" cy="248.66" r="5.37"/><circle id="circle-173" data-name="circle" class="cls-36" cx="650.32" cy="258.47" r="3.44"/><circle id="circle-174" data-name="circle" class="cls-36" cx="667.81" cy="256.18" r="3.17"/><circle id="circle-175" data-name="circle" class="cls-36" cx="667.81" cy="248.31" r="3.7"/><circle id="circle-176" data-name="circle" class="cls-36" cx="702.78" cy="260.42" r="3.39"/><circle id="circle-177" data-name="circle" class="cls-36" cx="702.78" cy="252.65" r="3.38"/><circle id="L_altra_euridice" data-name="L&apos;altra euridice" class="cls-37" cx="702.78" cy="244.33" r="3.94"/><circle id="circle-178" data-name="circle" class="cls-36" cx="720.27" cy="256.69" r="3.19"/><circle id="Le_memorie_di_Casanova" data-name="Le memorie di Casanova" class="cls-37" cx="720.27" cy="248.45" r="4.05"/><circle id="circle-179" data-name="circle" class="cls-36" cx="737.76" cy="258.4" r="3.67"/><circle id="circle-180" data-name="circle" class="cls-36" cx="737.76" cy="248.36" r="5.38"/><circle id="circle-181" data-name="circle" class="cls-36" cx="755.25" cy="247.16" r="3.82"/><circle id="circle-182" data-name="circle" class="cls-36" cx="755.25" cy="255.96" r="3.98"/><circle id="circle-183" data-name="circle" class="cls-36" cx="772.73" cy="240" r="3.7"/><circle id="circle-184" data-name="circle" class="cls-36" cx="772.73" cy="248.32" r="3.63"/><circle id="circle-185" data-name="circle" class="cls-36" cx="772.73" cy="258.63" r="5.69"/><text class="cls-10" transform="translate(95.62 222.5)">I<tspan class="cls-13" x="2.87" y="0">s</tspan><tspan x="7.25" y="0">abella e </tspan><tspan class="cls-17" x="43.86" y="0">F</tspan><tspan x="49.84" y="0">iora</tspan><tspan class="cls-8" x="66.71" y="0">v</tspan><tspan x="71.48" y="0">anti</tspan></text><text class="cls-10" transform="translate(180.62 303.99)">La s<tspan class="cls-8" x="17.39" y="0">t</tspan><tspan class="cls-14" x="20.56" y="0">oria di Kim-Ghi</tspan><tspan class="cls-8" x="87.52" y="0">-</tspan><tspan x="91.69" y="0">U</tspan></text><text class="cls-10" transform="translate(130.16 208.98)"><tspan class="cls-8">U</tspan><tspan class="cls-14" x="6.66" y="0">n pae</tspan><tspan class="cls-17" x="30.63" y="0">s</tspan><tspan x="35.06" y="0">e di</tspan><tspan class="cls-8" x="50.9" y="0">s</tspan><tspan x="55.32" y="0">grazia</tspan><tspan class="cls-8" x="81.54" y="0">t</tspan><tspan class="cls-14" x="84.72" y="0">o</tspan></text><text class="cls-10" transform="translate(114.84 287.94)">Il <tspan class="cls-47" x="8.08" y="0">g</tspan><tspan x="12.89" y="0">enerale in bibli</tspan><tspan class="cls-17" x="77.08" y="0">ot</tspan><tspan class="cls-16" x="85.67" y="0">e</tspan><tspan class="cls-17" x="90.78" y="0">c</tspan><tspan class="cls-16" x="95.6" y="0">a</tspan></text><text class="cls-10" transform="translate(262.47 288.43)">Libe<tspan class="cls-48" x="18.37" y="0">r</tspan><tspan x="22.47" y="0">tà! Libe</tspan><tspan class="cls-48" x="54.93" y="0">r</tspan><tspan x="59.03" y="0">tà!</tspan></text><text class="cls-10" transform="translate(257.12 216.82)">I m<tspan class="cls-17" x="13.61" y="0">o</tspan><tspan x="19.03" y="0">zza</tspan><tspan class="cls-8" x="33.51" y="0">t</tspan><tspan x="36.69" y="0">ori di nasi</tspan></text><text class="cls-10" transform="translate(669.46 225.27)"><tspan class="cls-27">L</tspan><tspan class="cls-13" x="4.38" y="0">&apos;</tspan><tspan x="6.92" y="0">al</tspan><tspan class="cls-13" x="14.65" y="0">t</tspan><tspan class="cls-23" x="17.78" y="0">ra euridi</tspan><tspan class="cls-8" x="54.29" y="0">c</tspan><tspan class="cls-23" x="59.12" y="0">e</tspan></text><text class="cls-10" transform="translate(664.36 287.06)"><tspan class="cls-8">L</tspan><tspan class="cls-23" x="5.11" y="0">e memorie di </tspan><tspan class="cls-49" x="64.38" y="0">C</tspan><tspan x="71.18" y="0">a</tspan><tspan class="cls-50" x="76.32" y="0">s</tspan><tspan x="80.7" y="0">an</tspan><tspan class="cls-22" x="91.24" y="0">o</tspan><tspan class="cls-8" x="96.56" y="0">v</tspan><tspan x="101.33" y="0">a</tspan></text><text class="cls-10" transform="translate(257.33 200.31)"><tspan class="cls-17">L</tspan><tspan x="5.11" y="0">o jus primae noctis</tspan></text><text class="cls-10" transform="translate(166.26 365.62)">Il vi<tspan class="cls-8" x="15.31" y="0">sc</tspan><tspan x="24.57" y="0">on</tspan><tspan class="cls-8" x="35.43" y="0">t</tspan><tspan class="cls-14" x="38.61" y="0">e dimezza</tspan><tspan class="cls-8" x="82.17" y="0">t</tspan><tspan x="85.34" y="0">o</tspan></text><text class="cls-10" transform="translate(257.43 355.33)">Il ba<tspan class="cls-12" x="18.92" y="0">r</tspan><tspan x="22.35" y="0">one rampan</tspan><tspan class="cls-8" x="74.3" y="0">t</tspan><tspan class="cls-14" x="77.48" y="0">e</tspan></text><text class="cls-10" transform="translate(287.86 376.67)">Il <tspan class="cls-17" x="8.08" y="0">c</tspan><tspan class="cls-16" x="12.91" y="0">a</tspan><tspan class="cls-17" x="18.05" y="0">v</tspan><tspan class="cls-16" x="22.82" y="0">alie</tspan><tspan class="cls-12" x="38.06" y="0">r</tspan><tspan class="cls-14" x="41.49" y="0">e inesis</tspan><tspan class="cls-8" x="73.5" y="0">t</tspan><tspan x="76.67" y="0">en</tspan><tspan class="cls-8" x="87.19" y="0">t</tspan><tspan x="90.36" y="0">e</tspan></text><text class="cls-10" transform="translate(526.63 388.92)"><tspan class="cls-8">L</tspan><tspan x="5.11" y="0">e città invisibili</tspan></text><text class="cls-10" transform="translate(611.55 357.84)"><tspan class="cls-51">S</tspan><tspan x="5.61" y="0">e una n</tspan><tspan class="cls-8" x="37.3" y="0">o</tspan><tspan x="42.72" y="0">t</tspan><tspan class="cls-8" x="45.94" y="0">t</tspan><tspan x="49.12" y="0">e d&apos;in</tspan><tspan class="cls-15" x="73.01" y="0">v</tspan><tspan x="77.68" y="0">erno un via</tspan><tspan class="cls-26" x="125.93" y="0">g</tspan><tspan x="130.74" y="0">gia</tspan><tspan class="cls-8" x="143.29" y="0">t</tspan><tspan class="cls-25" x="146.46" y="0">o</tspan><tspan class="cls-24" x="151.93" y="0">r</tspan><tspan x="155.35" y="0">e</tspan></text></g></g></svg>