<?xml version="1.0" encoding="utf-8"?>
<!-- Generator: Adobe Illustrator 25.1.0, SVG Export Plug-In . SVG Version: 6.00 Build 0)  -->
<svg version="1.1" id="Livello_1" xmlns="http://www.w3.org/2000/svg" xmlns:xlink="http://www.w3.org/1999/xlink" x="0px" y="0px"
	 viewBox="0 0 904 56" enable-background="new 0 0 904 56" xml:space="preserve">
<g>
	<defs>
		<rect id="SVGID_1_" y="0" width="904" height="56"/>
	</defs>
	<clipPath id="SVGID_2_">
		<use xlink:href="#SVGID_1_"  overflow="visible"/>
	</clipPath>
	<g id="legend" clip-path="url(#SVGID_2_)">
		<g id="Layer_1" transform="translate(-0.88 1.35)">
			<g id="legend-2">
				
					<circle id="S004" fill="#FFFFFF" stroke="#000000" stroke-width="0.25" stroke-miterlimit="10" cx="12.89" cy="47.19" r="3.13"/>
				
					<circle id="S004-2" fill="#FFFFFF" stroke="#000000" stroke-width="0.5" stroke-miterlimit="10" cx="12.89" cy="47.19" r="3.13"/>
				<circle id="S004-3" fill="none" stroke="#000000" stroke-width="0.5" stroke-miterlimit="10" cx="12.89" cy="39" r="11.32"/>
				<g enable-background="new    ">
					<path d="M57.00695,26.62186v0.65918h-1.12939v1.65918h-0.68945v-1.65918h-3.48828v-0.44922l3.53809-4.85742h0.63965v4.64746
						H57.00695z M55.18811,26.62186v-3.6084l-2.56836,3.6084H55.18811z"/>
					<path d="M62.32727,26.58182c0,1.31934-1.0293,2.43848-2.41846,2.43848c-1.25928,0-2.16895-0.88965-2.36865-2.00879
						l0.6792-0.11035c0.15039,0.83984,0.77979,1.45898,1.68945,1.45898c1.0293,0,1.68896-0.8291,1.68896-1.77832
						c0-0.91992-0.59961-1.65918-1.60938-1.65918c-0.66943,0-1.1792,0.33008-1.52881,0.83887l-0.69971-0.18945l0.62939-3.59766
						h3.6084v0.65918H58.9591l-0.3999,2.25879c0.46973-0.43945,0.99951-0.60938,1.50928-0.60938
						C61.37805,24.283,62.32727,25.30253,62.32727,26.58182z"/>
					<path d="M63.15979,26.97147c0-0.87988,0.48926-1.54883,1.29882-1.81934c-0.54931-0.26953-0.90918-0.81934-0.90918-1.50879
						c0-1.10938,0.98925-1.74902,1.979-1.74902c1.06934,0,1.9585,0.69922,1.9585,1.78906c0,0.67969-0.37939,1.21875-0.90918,1.46875
						c0.79932,0.27051,1.2793,0.94922,1.2793,1.81934c0,1.36914-1.14941,2.04883-2.33887,2.04883
						S63.15979,28.34061,63.15979,26.97147z M67.17736,26.92167c0-0.91016-0.68945-1.48926-1.65918-1.48926
						c-0.97949,0-1.66894,0.5791-1.66894,1.48926c0,0.95898,0.77929,1.43848,1.66894,1.43848
						C66.39758,28.36014,67.17736,27.88065,67.17736,26.92167z M66.80773,23.73319c0-0.68945-0.52979-1.17969-1.2793-1.17969
						c-0.68994,0-1.28955,0.42969-1.28955,1.14941c0,0.76953,0.52979,1.24902,1.28955,1.24902
						C66.27795,24.95194,66.80773,24.47245,66.80773,23.73319z"/>
					<path d="M68.58947,26.86112l0.67969-0.04004c0,0.99023,0.72998,1.55957,1.7793,1.55957
						c0.98926,0,1.73877-0.53027,1.73877-1.47949c0-1.17871-1.18896-1.33887-2.08887-1.33887v-0.58008
						c1.00977,0,1.71924-0.37988,1.71924-1.24902c0-0.81934-0.59961-1.19922-1.33936-1.19922
						c-0.86963,0-1.46924,0.47949-1.479,1.33887l-0.66992-0.0498c0-1.20898,0.90967-1.94922,2.11914-1.94922
						c1.09912,0,2.05859,0.63965,2.05859,1.7793c0,0.83984-0.5293,1.39941-1.04932,1.56934
						c0.75977,0.13965,1.41943,0.71973,1.41943,1.73926c0,1.31934-1.07959,2.07812-2.43896,2.07812
						C69.64904,29.03983,68.58947,28.2703,68.58947,26.86112z"/>
					<path d="M74.16906,26.86112l0.67969-0.04004c0,0.99023,0.72998,1.55957,1.7793,1.55957
						c0.98926,0,1.73877-0.53027,1.73877-1.47949c0-1.17871-1.18896-1.33887-2.08887-1.33887v-0.58008
						c1.00977,0,1.71924-0.37988,1.71924-1.24902c0-0.81934-0.59961-1.19922-1.33936-1.19922
						c-0.86963,0-1.46924,0.47949-1.479,1.33887l-0.66992-0.0498c0-1.20898,0.90967-1.94922,2.11914-1.94922
						c1.09912,0,2.05859,0.63965,2.05859,1.7793c0,0.83984-0.52979,1.39941-1.04932,1.56934
						c0.75977,0.13965,1.41943,0.71973,1.41943,1.73926c0,1.31934-1.07959,2.07812-2.43896,2.07812
						C75.22863,29.03983,74.16906,28.2703,74.16906,26.86112z"/>
					<path d="M84.6466,26.58182c0,1.31934-1.0293,2.43848-2.41846,2.43848c-1.25928,0-2.16895-0.88965-2.36865-2.00879
						l0.6792-0.11035c0.15039,0.83984,0.77979,1.45898,1.68945,1.45898c1.0293,0,1.68896-0.8291,1.68896-1.77832
						c0-0.91992-0.59961-1.65918-1.60938-1.65918c-0.66943,0-1.1792,0.33008-1.52881,0.83887l-0.69971-0.18945l0.62939-3.59766
						h3.6084v0.65918h-3.03857l-0.3999,2.25879c0.46973-0.43945,0.99951-0.60938,1.50928-0.60938
						C83.69738,24.283,84.6466,25.30253,84.6466,26.58182z"/>
				</g>
				<g enable-background="new    ">
					<path d="M88.34875,25.44217c0-2.23926,1.20947-3.56836,3.21826-3.56836c1.39893,0,2.37842,0.63965,2.86816,1.90918
						l-0.65967,0.25c-0.36963-1-1.10938-1.47949-2.2085-1.47949c-1.59912,0-2.50879,1.04004-2.50879,2.88867
						c0,1.85938,0.89941,2.91797,2.4585,2.91797c1.08984,0,1.86914-0.50977,2.25879-1.50879l0.67969,0.25
						c-0.51953,1.26953-1.54883,1.93848-2.93848,1.93848C89.5382,29.03983,88.34875,27.6912,88.34875,25.44217z"/>
					<path d="M99.6964,25.92167v3.01855h-0.68945v-2.84863c0-1.06934-0.33984-1.54883-1.07959-1.54883
						c-0.93945,0-1.46924,0.76953-1.46924,2.12891v2.26855h-0.68945V21.9744h0.68945v2.75781
						c0.31982-0.49902,0.91943-0.79883,1.62891-0.79883C99.1466,23.93339,99.6964,24.61307,99.6964,25.92167z"/>
					<path d="M105.06652,25.87186v3.06836h-0.62988l-0.04004-0.75977c-0.38965,0.5498-0.98926,0.83984-1.76904,0.83984
						c-1.06934,0-1.69873-0.55957-1.69873-1.50977c0-0.49902,0.19971-0.87891,0.55957-1.09863
						c0.37988-0.21973,0.90967-0.31055,1.87891-0.31055h1.00928v-0.22949c0-0.85938-0.44971-1.3291-1.2793-1.3291
						c-0.61963,0-1.09912,0.26953-1.49902,0.81934l-0.49951-0.41992c0.5293-0.68945,1.16895-1.00879,2.00879-1.00879
						C104.34679,23.93339,105.06652,24.64237,105.06652,25.87186z M104.37658,26.73124V26.6619h-0.94922
						c-0.90967,0-1.29932,0.05957-1.53906,0.24902c-0.18018,0.14062-0.27002,0.36035-0.27002,0.63965
						c0,0.5498,0.46973,0.90039,1.20947,0.90039C103.77697,28.45096,104.37658,27.78104,104.37658,26.73124z"/>
					<path d="M109.74621,24.14335l-0.33984,0.55957c-0.22949-0.10059-0.43945-0.15039-0.64941-0.15039
						c-0.75977,0-1.31934,0.56934-1.31934,1.63965v2.74805h-0.68945v-4.92773h0.68945v0.74023
						c0.35986-0.64941,0.95947-0.81934,1.45898-0.81934C109.19689,23.93339,109.47668,23.99296,109.74621,24.14335z"/>
					<path d="M114.43615,25.87186v3.06836h-0.62988l-0.04004-0.75977c-0.38965,0.5498-0.98926,0.83984-1.76904,0.83984
						c-1.06934,0-1.69873-0.55957-1.69873-1.50977c0-0.49902,0.19971-0.87891,0.55957-1.09863
						c0.37988-0.21973,0.90967-0.31055,1.87891-0.31055h1.00928v-0.22949c0-0.85938-0.44971-1.3291-1.2793-1.3291
						c-0.61963,0-1.09912,0.26953-1.49902,0.81934l-0.49951-0.41992c0.5293-0.68945,1.16895-1.00879,2.00879-1.00879
						C113.71642,23.93339,114.43615,24.64237,114.43615,25.87186z M113.74621,26.73124V26.6619h-0.94922
						c-0.90967,0-1.29932,0.05957-1.53906,0.24902c-0.18018,0.14062-0.27002,0.36035-0.27002,0.63965
						c0,0.5498,0.46973,0.90039,1.20947,0.90039C113.1466,28.45096,113.74621,27.78104,113.74621,26.73124z"/>
					<path d="M115.70812,26.49198c0-1.2998,0.72998-2.55859,2.21924-2.55859c0.87939,0,1.60889,0.43945,1.99854,1.3584
						l-0.65967,0.26074c-0.22949-0.62988-0.71924-1.00977-1.33887-1.00977c-1.0498,0-1.51953,0.93945-1.51953,1.94922
						c0,1.00879,0.46973,1.91895,1.5293,1.91895c0.61963,0,1.10938-0.37012,1.29932-1l0.63965,0.24023
						c-0.33008,0.89941-1.04932,1.36914-1.93896,1.36914C116.50793,29.0203,115.70812,27.86112,115.70812,26.49198z"/>
					<path d="M123.24718,28.89042c-0.25977,0.08008-0.52002,0.12988-0.74951,0.12988c-0.65967,0-1.13965-0.37012-1.13965-1.23926
						v-3.18848h-0.81934v-0.58008h0.81934v-1.37891l0.68945-0.51953v1.89844h1.18945v0.58008h-1.18945v3.09863
						c0,0.47949,0.22021,0.69922,0.60986,0.69922c0.16992,0,0.35986-0.04004,0.57959-0.10938L123.24718,28.89042z"/>
					<path d="M128.40588,26.6619h-3.60792c0.02002,1.0791,0.61963,1.72852,1.58936,1.72852
						c0.53955,0,0.96924-0.13965,1.41895-0.61914l0.47999,0.41895c-0.5796,0.61035-1.14942,0.83008-1.90919,0.83008
						c-1.49902,0-2.26855-1.11914-2.26855-2.51855c0-1.38965,0.75977-2.56836,2.18896-2.56836
						c1.50879,0,2.13868,1.17871,2.13868,2.29785C128.43616,26.37186,128.4259,26.54178,128.40588,26.6619z M124.79797,26.08182
						h2.97852c0-0.02051-0.01025-0.07031-0.01025-0.16016c-0.0498-0.7998-0.55957-1.40918-1.46875-1.40918
						C125.40783,24.51249,124.85802,25.21268,124.79797,26.08182z"/>
					<path d="M132.82629,24.14335l-0.33984,0.55957c-0.22949-0.10059-0.43945-0.15039-0.64941-0.15039
						c-0.75977,0-1.31934,0.56934-1.31934,1.63965v2.74805h-0.68945v-4.92773h0.68945v0.74023
						c0.35986-0.64941,0.95947-0.81934,1.45898-0.81934C132.27698,23.93339,132.55676,23.99296,132.82629,24.14335z"/>
					<path d="M133.01819,27.73124l0.57959-0.25977c0.17969,0.50977,0.65967,0.93945,1.4292,0.93945
						c0.66943,0,1.09961-0.33008,1.09961-0.84961c0-1.30957-2.83887-0.49023-2.83887-2.23926
						c0-0.85938,0.69971-1.38867,1.68945-1.38867c0.78955,0,1.4292,0.3291,1.76904,1.0293l-0.5498,0.2998
						c-0.23975-0.44043-0.62988-0.71973-1.23926-0.71973c-0.60986,0-0.99951,0.25-0.99951,0.67969
						c0,1.16895,2.84814,0.42969,2.84814,2.29883c0,0.99902-0.81934,1.49902-1.76904,1.49902
						C134.0675,29.0203,133.27795,28.5203,133.01819,27.73124z"/>
				</g>
				<g enable-background="new    ">
					<path d="M56.7174,40.37284c0,0.42969-0.14014,0.87988-0.35986,1.23926l-2.09912,3.49805h-0.7793l1.60889-2.61816
						c-0.35986,0.12988-0.79932,0.19922-1.229,0.11914c-1.0498-0.18945-1.87891-1.10938-1.87891-2.22852
						c0-1.26953,1.05908-2.31836,2.36865-2.31836C55.64807,38.06425,56.7174,39.10331,56.7174,40.37284z M56.0177,40.38261
						c0-0.90918-0.73975-1.65918-1.66895-1.65918c-0.91943,0-1.66943,0.75-1.66943,1.65918s0.75,1.64941,1.66943,1.64941
						S56.0177,41.29179,56.0177,40.38261z"/>
					<path d="M57.61975,43.1414c0-0.87988,0.48975-1.54883,1.29932-1.81934c-0.54932-0.26953-0.90918-0.81934-0.90918-1.50879
						c0-1.10938,0.98926-1.74902,1.979-1.74902c1.06934,0,1.9585,0.69922,1.9585,1.78906c0,0.67969-0.37939,1.21875-0.90918,1.46875
						c0.79932,0.27051,1.2793,0.94922,1.2793,1.81934c0,1.36914-1.14941,2.04883-2.33887,2.04883
						S57.61975,44.51054,57.61975,43.1414z M61.63781,43.09159c0-0.91016-0.68945-1.48926-1.65918-1.48926
						c-0.97949,0-1.66895,0.5791-1.66895,1.48926c0,0.95898,0.7793,1.43848,1.66895,1.43848
						C60.85803,44.53007,61.63781,44.05058,61.63781,43.09159z M61.26818,39.90311c0-0.68945-0.52979-1.17969-1.2793-1.17969
						c-0.68994,0-1.28955,0.42969-1.28955,1.14941c0,0.76953,0.52979,1.24902,1.28955,1.24902
						C60.7384,41.12186,61.26818,40.64237,61.26818,39.90311z"/>
					<path d="M67.96691,42.87186c0,1.26855-1.05908,2.31836-2.36865,2.31836c-1.29932,0-2.36865-1.03906-2.36865-2.30859
						c0-0.42969,0.14014-0.87988,0.35986-1.23926l2.09863-3.49805h0.77979l-1.60938,2.61816
						c0.35986-0.12988,0.7998-0.2002,1.22949-0.12012C67.13732,40.8328,67.96691,41.75175,67.96691,42.87186z M67.2672,42.87186
						c0-0.91016-0.74951-1.64941-1.66895-1.64941s-1.66894,0.73926-1.66894,1.64941c0,0.90918,0.73974,1.6582,1.66894,1.6582
						C66.51769,44.53007,67.2672,43.78104,67.2672,42.87186z"/>
					<path d="M71.83947,41.6121c0-2.23926,1.20947-3.56836,3.21826-3.56836c1.39893,0,2.37842,0.63965,2.86816,1.90918
						l-0.65967,0.25c-0.36963-1-1.10938-1.47949-2.2085-1.47949c-1.59912,0-2.50879,1.04004-2.50879,2.88867
						c0,1.85938,0.89941,2.91797,2.4585,2.91797c1.08984,0,1.86914-0.50977,2.25879-1.50879l0.67969,0.25
						c-0.51953,1.26953-1.54883,1.93848-2.93848,1.93848C73.02892,45.20975,71.83947,43.86112,71.83947,41.6121z"/>
					<path d="M83.18713,42.09159v3.01855h-0.68945v-2.84863c0-1.06934-0.33984-1.54883-1.07959-1.54883
						c-0.93945,0-1.46924,0.76953-1.46924,2.12891v2.26855h-0.68945v-6.96582h0.68945v2.75781
						c0.31982-0.49902,0.91943-0.79883,1.62891-0.79883C82.63732,40.10331,83.18713,40.783,83.18713,42.09159z"/>
					<path d="M88.55724,42.04179v3.06836h-0.62988l-0.04004-0.75977c-0.38965,0.5498-0.98926,0.83984-1.76904,0.83984
						c-1.06934,0-1.69873-0.55957-1.69873-1.50977c0-0.49902,0.19971-0.87891,0.55957-1.09863
						c0.37988-0.21973,0.90967-0.31055,1.87891-0.31055h1.00928v-0.22949c0-0.85938-0.44971-1.3291-1.2793-1.3291
						c-0.61963,0-1.09912,0.26953-1.49902,0.81934l-0.49951-0.41992c0.5293-0.68945,1.16895-1.00879,2.00879-1.00879
						C87.83752,40.10331,88.55724,40.81229,88.55724,42.04179z M87.8673,42.90116v-0.06934h-0.94922
						c-0.90967,0-1.29932,0.05957-1.53906,0.24902C85.19884,43.22147,85.109,43.4412,85.109,43.7205
						c0,0.5498,0.46973,0.90039,1.20947,0.90039C87.26769,44.62089,87.8673,43.95097,87.8673,42.90116z"/>
					<path d="M93.23742,40.31327l-0.33984,0.55957c-0.22949-0.10059-0.43945-0.15039-0.64941-0.15039
						c-0.75977,0-1.31934,0.56934-1.31934,1.63965v2.74805h-0.68945v-4.92773h0.68945v0.74023
						c0.35986-0.64941,0.95947-0.81934,1.45898-0.81934C92.6881,40.10331,92.96789,40.16288,93.23742,40.31327z"/>
					<path d="M97.92736,42.04179v3.06836h-0.62988l-0.04004-0.75977c-0.38965,0.5498-0.98926,0.83984-1.76904,0.83984
						c-1.06934,0-1.69873-0.55957-1.69873-1.50977c0-0.49902,0.19971-0.87891,0.55957-1.09863
						c0.37988-0.21973,0.90967-0.31055,1.87891-0.31055h1.00928v-0.22949c0-0.85938-0.44971-1.3291-1.2793-1.3291
						c-0.61963,0-1.09912,0.26953-1.49902,0.81934l-0.49951-0.41992c0.5293-0.68945,1.16895-1.00879,2.00879-1.00879
						C97.20763,40.10331,97.92736,40.81229,97.92736,42.04179z M97.23742,42.90116v-0.06934H96.2882
						c-0.90967,0-1.29932,0.05957-1.53906,0.24902c-0.18018,0.14062-0.27002,0.36035-0.27002,0.63965
						c0,0.5498,0.46973,0.90039,1.20947,0.90039C96.63781,44.62089,97.23742,43.95097,97.23742,42.90116z"/>
					<path d="M99.19884,42.6619c0-1.2998,0.72998-2.55859,2.21875-2.55859c0.87988,0,1.60938,0.43945,1.99902,1.3584
						l-0.65967,0.26074c-0.22949-0.62988-0.71924-1.00977-1.33936-1.00977c-1.04932,0-1.51904,0.93945-1.51904,1.94922
						c0,1.00879,0.46973,1.91895,1.5293,1.91895c0.61963,0,1.10938-0.37012,1.29932-1l0.63965,0.24023
						c-0.33008,0.89941-1.04932,1.36914-1.93896,1.36914C99.99865,45.19022,99.19884,44.03104,99.19884,42.6619z"/>
					<path d="M106.73791,45.06034c-0.25977,0.08008-0.52002,0.12988-0.74951,0.12988c-0.65967,0-1.13965-0.37012-1.13965-1.23926
						v-3.18848h-0.81934v-0.58008h0.81934V38.8035l0.68994-0.51953v1.89844h1.18896v0.58008h-1.18896v3.09863
						c0,0.47949,0.21973,0.69922,0.60938,0.69922c0.16992,0,0.35986-0.04004,0.57959-0.10938L106.73791,45.06034z"/>
					<path d="M111.8966,42.83183h-3.60791c0.02002,1.0791,0.61963,1.72852,1.58936,1.72852
						c0.53955,0,0.96924-0.13965,1.41895-0.61914l0.47998,0.41895c-0.57959,0.61035-1.14941,0.83008-1.90918,0.83008
						c-1.49902,0-2.26855-1.11914-2.26855-2.51855c0-1.38965,0.75977-2.56836,2.18896-2.56836
						c1.50879,0,2.13867,1.17871,2.13867,2.29785C111.92687,42.54179,111.91662,42.71171,111.8966,42.83183z M108.28869,42.25175
						h2.97852c0-0.02051-0.01025-0.07031-0.01025-0.16016c-0.0498-0.7998-0.55957-1.40918-1.46875-1.40918
						C108.89855,40.68241,108.34875,41.38261,108.28869,42.25175z"/>
					<path d="M116.31701,40.31327l-0.33984,0.55957c-0.22949-0.10059-0.43945-0.15039-0.64941-0.15039
						c-0.75977,0-1.31934,0.56934-1.31934,1.63965v2.74805h-0.68945v-4.92773h0.68945v0.74023
						c0.35986-0.64941,0.95947-0.81934,1.45898-0.81934C115.7672,40.10331,116.04748,40.16288,116.31701,40.31327z"/>
					<path d="M116.50939,43.90116l0.57959-0.25977c0.17969,0.50977,0.65967,0.93945,1.4292,0.93945
						c0.66943,0,1.09961-0.33008,1.09961-0.84961c0-1.30957-2.83887-0.49023-2.83887-2.23926
						c0-0.85938,0.69971-1.38867,1.68945-1.38867c0.78955,0,1.4292,0.3291,1.76904,1.0293l-0.5498,0.2998
						c-0.23975-0.44043-0.62988-0.71973-1.23926-0.71973c-0.60986,0-0.99951,0.25-0.99951,0.67969
						c0,1.16895,2.84814,0.42969,2.84814,2.29883c0,0.99902-0.81934,1.49902-1.76904,1.49902
						C117.55871,45.19022,116.76916,44.69022,116.50939,43.90116z"/>
				</g>
				
					<line id="Linea_7807" fill="none" stroke="#000000" stroke-width="0.25" stroke-miterlimit="10" x1="12.89" y1="27.68" x2="13.89" y2="27.68"/>
				
					<line id="Linea_7808" fill="none" stroke="#000000" stroke-width="0.25" stroke-miterlimit="10" stroke-dasharray="2.03,2.03" x1="15.91" y1="27.68" x2="43.26" y2="27.68"/>
				
					<line id="Linea_7809" fill="none" stroke="#000000" stroke-width="0.25" stroke-miterlimit="10" x1="44.27" y1="27.68" x2="45.27" y2="27.68"/>
				
					<line id="Linea_7810" fill="none" stroke="#000000" stroke-width="0.25" stroke-miterlimit="10" x1="12.89" y1="43.98" x2="13.89" y2="43.98"/>
				
					<line id="Linea_7811" fill="none" stroke="#000000" stroke-width="0.25" stroke-miterlimit="10" stroke-dasharray="2.03,2.03" x1="15.91" y1="43.98" x2="43.26" y2="43.98"/>
				
					<line id="Linea_7812" fill="none" stroke="#000000" stroke-width="0.25" stroke-miterlimit="10" x1="44.27" y1="43.98" x2="45.27" y2="43.98"/>
				<rect id="Rettangolo_19195" x="166.78999" y="25.86" fill="#B6F5E7" width="7.94" height="4.5"/>
				<rect id="Rettangolo_19196" x="167.71001" y="25.86" fill="#AFF3E4" width="7.94" height="4.5"/>
				<rect id="Rettangolo_19197" x="168.63" y="25.86" fill="#A9F1E1" width="7.94" height="4.5"/>
				<rect id="Rettangolo_19198" x="169.55" y="25.86" fill="#A2EFDF" width="7.94" height="4.5"/>
				<rect id="Rettangolo_19199" x="170.47" y="25.86" fill="#9BEDDC" width="7.94" height="4.5"/>
				<rect id="Rettangolo_19200" x="171.39" y="25.86" fill="#94EBD9" width="7.94" height="4.5"/>
				<rect id="Rettangolo_19201" x="172.31" y="25.86" fill="#8EE9D6" width="7.94" height="4.5"/>
				<rect id="Rettangolo_19202" x="173.24001" y="25.86" fill="#87E8D4" width="7.94" height="4.5"/>
				<rect id="Rettangolo_19203" x="174.16" y="25.86" fill="#80E6D1" width="7.94" height="4.5"/>
				<rect id="Rettangolo_19204" x="175.08" y="25.86" fill="#79E4CE" width="7.94" height="4.5"/>
				<rect id="Rettangolo_19205" x="176" y="25.86" fill="#73E2CB" width="7.94" height="4.5"/>
				<rect id="Rettangolo_19206" x="176.92" y="25.86" fill="#6CE0C8" width="7.94" height="4.5"/>
				<rect id="Rettangolo_19207" x="177.84" y="25.86" fill="#65DEC6" width="7.94" height="4.5"/>
				<rect id="Rettangolo_19208" x="178.75999" y="25.86" fill="#5EDCC3" width="7.94" height="4.5"/>
				<rect id="Rettangolo_19209" x="179.67999" y="25.86" fill="#58DAC0" width="7.94" height="4.5"/>
				<rect id="Rettangolo_19210" x="180.61" y="25.86" fill="#51D8BD" width="7.94" height="4.5"/>
				<rect id="Rettangolo_19211" x="181.53" y="25.86" fill="#4AD6BB" width="7.94" height="4.5"/>
				<rect id="Rettangolo_19212" x="182.45" y="25.86" fill="#43D4B8" width="7.94" height="4.5"/>
				<rect id="Rettangolo_19213" x="183.37" y="25.86" fill="#3DD2B5" width="7.94" height="4.5"/>
				<rect id="Rettangolo_19214" x="184.28999" y="25.86" fill="#36D0B2" width="7.94" height="4.5"/>
				<rect id="Rettangolo_19215" x="185.21001" y="25.86" fill="#2FCEAF" width="7.94" height="4.5"/>
				<rect id="Rettangolo_19216" x="186.13" y="25.86" fill="#28CDAD" width="7.94" height="4.5"/>
				<rect id="Rettangolo_19217" x="187.05" y="25.86" fill="#22CBAA" width="7.94" height="4.5"/>
				<rect id="Rettangolo_19218" x="187.98" y="25.86" fill="#1BC9A7" width="7.94" height="4.5"/>
				<rect id="Rettangolo_19219" x="188.89999" y="25.86" fill="#14C7A4" width="7.94" height="4.5"/>
				<rect id="Rettangolo_19220" x="189.82001" y="25.86" fill="#0DC5A2" width="7.94" height="4.5"/>
				<rect id="Rettangolo_19221" x="190.74001" y="25.86" fill="#07C39F" width="7.94" height="4.5"/>
				<rect id="Rettangolo_19222" x="191.66" y="25.86" fill="#00C19C" width="7.94" height="4.5"/>
				<g enable-background="new    ">
					<path d="M209.68909,23.86405h1.98926c1.479,0,2.29883,0.69922,2.29883,1.94824c0,1.26953-0.82959,1.97949-2.29883,1.97949
						h-1.2793v3.03809h-0.70996V23.86405z M211.60803,27.13163c1.08984,0,1.64941-0.44922,1.64941-1.30859
						c0-0.86035-0.55957-1.2998-1.64941-1.2998h-1.20898v2.6084H211.60803z"/>
					<path d="M218.49719,28.55155h-3.60791c0.02002,1.0791,0.61963,1.72852,1.58936,1.72852
						c0.53955,0,0.96924-0.13965,1.41895-0.61914l0.47998,0.41895c-0.57959,0.61035-1.14941,0.83008-1.90918,0.83008
						c-1.49902,0-2.26855-1.11914-2.26855-2.51855c0-1.38965,0.75977-2.56836,2.18896-2.56836
						c1.50879,0,2.13867,1.17871,2.13867,2.29785C218.52747,28.26151,218.51721,28.43143,218.49719,28.55155z M214.88928,27.97147
						h2.97852c0-0.02051-0.01025-0.07031-0.01025-0.16016c-0.0498-0.7998-0.55957-1.40918-1.46875-1.40918
						C215.49915,26.40214,214.94934,27.10233,214.88928,27.97147z"/>
					<path d="M222.52747,26.033l-0.33984,0.55957c-0.22949-0.10059-0.43945-0.15039-0.64941-0.15039
						c-0.75977,0-1.31934,0.56934-1.31934,1.63965v2.74805h-0.68945v-4.92773h0.68945v0.74023
						c0.35986-0.64941,0.95947-0.81934,1.45898-0.81934C221.97766,25.82303,222.25793,25.8826,222.52747,26.033z"/>
					<path d="M222.29944,28.38163c0-1.2998,0.72998-2.55859,2.21924-2.55859c0.87939,0,1.60889,0.43945,1.99854,1.3584
						l-0.65967,0.26074c-0.22949-0.62988-0.71924-1.00977-1.33887-1.00977c-1.0498,0-1.51953,0.93945-1.51953,1.94922
						c0,1.00879,0.46973,1.91895,1.5293,1.91895c0.61963,0,1.10938-0.37012,1.29932-1l0.63965,0.24023
						c-0.33008,0.89941-1.04932,1.36914-1.93896,1.36914C223.09924,30.90995,222.29944,29.75077,222.29944,28.38163z"/>
					<path d="M231.24719,28.55155h-3.60791c0.02002,1.0791,0.61963,1.72852,1.58936,1.72852
						c0.53955,0,0.96924-0.13965,1.41895-0.61914l0.47998,0.41895c-0.57959,0.61035-1.14941,0.83008-1.90918,0.83008
						c-1.49902,0-2.26855-1.11914-2.26855-2.51855c0-1.38965,0.75977-2.56836,2.18896-2.56836
						c1.50879,0,2.13867,1.17871,2.13867,2.29785C231.27747,28.26151,231.26721,28.43143,231.24719,28.55155z M227.63928,27.97147
						h2.97852c0-0.02051-0.01025-0.07031-0.01025-0.16016c-0.0498-0.7998-0.55957-1.40918-1.46875-1.40918
						C228.24915,26.40214,227.69934,27.10233,227.63928,27.97147z"/>
					<path d="M236.20715,27.81132v3.01855h-0.68945v-2.84863c0-1.05957-0.33984-1.54883-1.07959-1.54883
						c-0.92969,0-1.46924,0.7998-1.46924,2.18848v2.20898h-0.68945v-4.92773h0.68945v0.71973
						c0.31982-0.49902,0.91943-0.79883,1.62891-0.79883C235.65735,25.82303,236.20715,26.50272,236.20715,27.81132z"/>
					<path d="M239.56799,30.78007c-0.25977,0.08008-0.52002,0.12988-0.74951,0.12988c-0.65967,0-1.13965-0.37012-1.13965-1.23926
						v-3.18848h-0.81934v-0.58008h0.81934v-1.37891l0.68945-0.51953v1.89844h1.18945v0.58008h-1.18945v3.09863
						c0,0.47949,0.22021,0.69922,0.60986,0.69922c0.16992,0,0.35986-0.04004,0.57959-0.10938L239.56799,30.78007z"/>
					<path d="M244.15735,27.76151v3.06836h-0.62988l-0.04004-0.75977c-0.38965,0.5498-0.98926,0.83984-1.76904,0.83984
						c-1.06934,0-1.69873-0.55957-1.69873-1.50977c0-0.49902,0.19971-0.87891,0.55957-1.09863
						c0.37988-0.21973,0.90967-0.31055,1.87891-0.31055h1.00928v-0.22949c0-0.85938-0.44971-1.3291-1.2793-1.3291
						c-0.61963,0-1.09912,0.26953-1.49902,0.81934l-0.49951-0.41992c0.5293-0.68945,1.16895-1.00879,2.00879-1.00879
						C243.43762,25.82303,244.15735,26.53202,244.15735,27.76151z M243.46741,28.62089v-0.06934h-0.94922
						c-0.90967,0-1.29932,0.05957-1.53906,0.24902c-0.18018,0.14062-0.27002,0.36035-0.27002,0.63965
						c0,0.5498,0.46973,0.90039,1.20947,0.90039C242.8678,30.34061,243.46741,29.67069,243.46741,28.62089z"/>
					<path d="M249.28723,31.58964c0,0.92969-0.86963,1.35938-2.10889,1.35938c-1.36914,0-2.19873-0.54004-2.19873-1.51953
						c0-0.09961,0.00977-0.16016,0.02002-0.21973l0.79932-0.67969c-0.37988-0.16992-0.63965-0.4502-0.63965-0.93945
						c0-0.39941,0.17969-0.69922,0.52979-0.93945c-0.25977-0.2998-0.41992-0.67969-0.41992-1.11914
						c0-1,0.81982-1.70898,1.87891-1.70898c0.47998,0,0.90967,0.14941,1.22949,0.39941l0.67969-0.58984l0.35986,0.4502
						l-0.66992,0.55957c0.16992,0.26953,0.27002,0.5791,0.27002,0.92969c0,1.00879-0.81934,1.67871-1.85889,1.67871
						c-0.37988,0-0.72949-0.08984-1.01953-0.25c-0.19971,0.11035-0.31982,0.29004-0.31982,0.5c0,0.5,0.61963,0.61914,1.3291,0.72949
						C248.12756,30.37967,249.28723,30.5203,249.28723,31.58964z M248.59729,31.64921c0-0.59961-0.7793-0.68945-1.59912-0.81934
						c-0.21973-0.03027-0.44971-0.07031-0.65967-0.12012l-0.66943,0.64941c-0.00977,0.05078-0.00977,0.07031-0.00977,0.09082
						c0,0.69922,0.70947,0.91895,1.54883,0.91895C248.07776,32.36893,248.59729,32.1287,248.59729,31.64921z M245.94885,27.55155
						c0,0.63965,0.45996,1.12988,1.19922,1.12988c0.73975,0,1.17969-0.48047,1.17969-1.12988
						c0-0.67969-0.45996-1.14941-1.16943-1.14941C246.45862,26.40214,245.94885,26.87186,245.94885,27.55155z"/>
					<path d="M253.96692,28.55155h-3.60791c0.02002,1.0791,0.61963,1.72852,1.58936,1.72852
						c0.53955,0,0.96924-0.13965,1.41895-0.61914l0.47998,0.41895c-0.57959,0.61035-1.14941,0.83008-1.90918,0.83008
						c-1.49902,0-2.26855-1.11914-2.26855-2.51855c0-1.38965,0.75977-2.56836,2.18896-2.56836
						c1.50879,0,2.13867,1.17871,2.13867,2.29785C253.99719,28.26151,253.98694,28.43143,253.96692,28.55155z M250.35901,27.97147
						h2.97852c0-0.02051-0.01025-0.07031-0.01025-0.16016c-0.0498-0.7998-0.55957-1.40918-1.46875-1.40918
						C250.96887,26.40214,250.41907,27.10233,250.35901,27.97147z"/>
					<path d="M256.9093,28.36112c0-1.45898,0.94971-2.53809,2.35889-2.53809c1.39941,0,2.36865,1.0791,2.36865,2.53809
						c0,1.44922-0.95947,2.54883-2.36865,2.54883S256.9093,29.8201,256.9093,28.36112z M260.94739,28.36112
						c0-1.11914-0.62988-1.92871-1.6792-1.92871c-1.05957,0-1.66895,0.81934-1.66895,1.92871
						c0,1.11914,0.61963,1.93945,1.66895,1.93945C260.32776,30.30057,260.94739,29.46073,260.94739,28.36112z"/>
					<path d="M262.93909,26.48221h-1.03955v-0.58008h1.04932v-0.75879c0-1.0498,0.60986-1.35938,1.23926-1.35938
						c0.27002,0,0.56982,0.05957,0.87988,0.18945l-0.24023,0.5498c-0.20996-0.09961-0.39941-0.16016-0.56934-0.16016
						c-0.39014,0-0.62988,0.27051-0.62988,0.72949v0.80957h1.41943v0.58008h-1.41943v4.34766h-0.68945V26.48221z"/>
					<path d="M268.01917,23.86405h0.79932v1.01953h-0.79932V23.86405z M268.07922,25.90214h0.68945v4.92773h-0.68945V25.90214z"/>
					<path d="M274.12659,27.81132v3.01855h-0.68945v-2.84863c0-1.05957-0.33984-1.54883-1.07959-1.54883
						c-0.92969,0-1.46924,0.7998-1.46924,2.18848v2.20898h-0.68945v-4.92773h0.68945v0.71973
						c0.31982-0.49902,0.91943-0.79883,1.62891-0.79883C273.57678,25.82303,274.12659,26.50272,274.12659,27.81132z"/>
					<path d="M274.72864,25.90214h0.75l1.54883,4.04785l1.55908-4.04785h0.75977l-2.01904,4.92773h-0.58936L274.72864,25.90214z"/>
					<path d="M283.81653,28.55155h-3.60791c0.02002,1.0791,0.61963,1.72852,1.58936,1.72852
						c0.53955,0,0.96924-0.13965,1.41895-0.61914l0.47998,0.41895c-0.57959,0.61035-1.14941,0.83008-1.90918,0.83008
						c-1.49902,0-2.26855-1.11914-2.26855-2.51855c0-1.38965,0.75977-2.56836,2.18896-2.56836
						c1.50879,0,2.13867,1.17871,2.13867,2.29785C283.8468,28.26151,283.83655,28.43143,283.81653,28.55155z M280.20862,27.97147
						h2.97852c0-0.02051-0.01025-0.07031-0.01025-0.16016c-0.0498-0.7998-0.55957-1.40918-1.46875-1.40918
						C280.81848,26.40214,280.26868,27.10233,280.20862,27.97147z"/>
					<path d="M288.77649,27.81132v3.01855h-0.68945v-2.84863c0-1.05957-0.33984-1.54883-1.07959-1.54883
						c-0.92969,0-1.46924,0.7998-1.46924,2.18848v2.20898h-0.68945v-4.92773h0.68945v0.71973
						c0.31982-0.49902,0.91943-0.79883,1.62891-0.79883C288.22668,25.82303,288.77649,26.50272,288.77649,27.81132z"/>
					<path d="M292.13733,30.78007c-0.25977,0.08008-0.52002,0.12988-0.74951,0.12988c-0.65967,0-1.13965-0.37012-1.13965-1.23926
						v-3.18848h-0.81934v-0.58008h0.81934v-1.37891l0.68945-0.51953v1.89844h1.18945v0.58008h-1.18945v3.09863
						c0,0.47949,0.22021,0.69922,0.60986,0.69922c0.16992,0,0.35986-0.04004,0.57959-0.10938L292.13733,30.78007z"/>
					<path d="M296.90637,28.55155h-3.60791c0.02002,1.0791,0.61963,1.72852,1.58936,1.72852
						c0.53955,0,0.96924-0.13965,1.41895-0.61914l0.47998,0.41895c-0.57959,0.61035-1.14941,0.83008-1.90918,0.83008
						c-1.49902,0-2.26855-1.11914-2.26855-2.51855c0-1.38965,0.75977-2.56836,2.18896-2.56836
						c1.50879,0,2.13867,1.17871,2.13867,2.29785C296.93665,28.26151,296.92639,28.43143,296.90637,28.55155z M293.29846,27.97147
						h2.97852c0-0.02051-0.01025-0.07031-0.01025-0.16016c-0.0498-0.7998-0.55957-1.40918-1.46875-1.40918
						C293.90833,26.40214,293.35852,27.10233,293.29846,27.97147z"/>
					<path d="M302.05627,23.86405v6.96582h-0.68994v-0.65918c-0.35938,0.45898-0.90918,0.73926-1.62891,0.73926
						c-1.43896,0-2.18896-1.0791-2.18896-2.54883c0-1.53906,0.81982-2.54883,2.18896-2.54883
						c0.69971,0,1.25928,0.27051,1.62891,0.75v-2.69824H302.05627z M301.42639,28.36112c0-1.16895-0.59961-1.93848-1.58887-1.93848
						c-0.99951,0-1.59912,0.76953-1.59912,1.93848c0,1.11914,0.5498,1.93945,1.59912,1.93945
						C300.87659,30.30057,301.42639,29.48026,301.42639,28.36112z"/>
					<path d="M305.7887,29.76053v-5.89648h0.68945v5.85645c0,0.33984,0.12012,0.55957,0.44971,0.55957
						c0.1499,0,0.31982-0.04004,0.46973-0.08984l0.01025,0.58984c-0.20996,0.06934-0.45996,0.12988-0.67969,0.12988
						C306.15833,30.90995,305.7887,30.53007,305.7887,29.76053z"/>
					<path d="M307.70813,28.36112c0-1.45898,0.94971-2.53809,2.35889-2.53809c1.39941,0,2.36865,1.0791,2.36865,2.53809
						c0,1.44922-0.95947,2.54883-2.36865,2.54883S307.70813,29.8201,307.70813,28.36112z M311.74622,28.36112
						c0-1.11914-0.62988-1.92871-1.6792-1.92871c-1.05957,0-1.66895,0.81934-1.66895,1.92871
						c0,1.11914,0.61963,1.93945,1.66895,1.93945C311.12659,30.30057,311.74622,29.46073,311.74622,28.36112z"/>
					<path d="M313.02844,28.38163c0-1.2998,0.72998-2.55859,2.21875-2.55859c0.87988,0,1.60938,0.43945,1.99902,1.3584
						l-0.65967,0.26074c-0.22949-0.62988-0.71924-1.00977-1.33936-1.00977c-1.04932,0-1.51904,0.93945-1.51904,1.94922
						c0,1.00879,0.46973,1.91895,1.5293,1.91895c0.61963,0,1.10938-0.37012,1.29932-1l0.63965,0.24023
						c-0.33008,0.89941-1.04932,1.36914-1.93896,1.36914C313.82825,30.90995,313.02844,29.75077,313.02844,28.38163z"/>
					<path d="M321.74622,27.76151v3.06836h-0.62988l-0.04004-0.75977c-0.38965,0.5498-0.98926,0.83984-1.76904,0.83984
						c-1.06934,0-1.69873-0.55957-1.69873-1.50977c0-0.49902,0.19971-0.87891,0.55957-1.09863
						c0.37988-0.21973,0.90967-0.31055,1.87891-0.31055h1.00928v-0.22949c0-0.85938-0.44971-1.3291-1.2793-1.3291
						c-0.61963,0-1.09912,0.26953-1.49902,0.81934l-0.49951-0.41992c0.5293-0.68945,1.16895-1.00879,2.00879-1.00879
						C321.02649,25.82303,321.74622,26.53202,321.74622,27.76151z M321.05627,28.62089v-0.06934h-0.94922
						c-0.90967,0-1.29932,0.05957-1.53906,0.24902c-0.18018,0.14062-0.27002,0.36035-0.27002,0.63965
						c0,0.5498,0.46973,0.90039,1.20947,0.90039C320.45667,30.34061,321.05627,29.67069,321.05627,28.62089z"/>
					<path d="M325.08704,30.78007c-0.25977,0.08008-0.52002,0.12988-0.74951,0.12988c-0.65967,0-1.13965-0.37012-1.13965-1.23926
						v-3.18848h-0.81934v-0.58008h0.81934v-1.37891l0.68994-0.51953v1.89844h1.18896v0.58008h-1.18896v3.09863
						c0,0.47949,0.21973,0.69922,0.60938,0.69922c0.16992,0,0.35986-0.04004,0.57959-0.10938L325.08704,30.78007z"/>
					<path d="M325.94836,23.86405h0.79932v1.01953h-0.79932V23.86405z M326.00842,25.90214h0.68945v4.92773h-0.68945V25.90214z"/>
					<path d="M327.69836,28.36112c0-1.45898,0.94922-2.53809,2.3584-2.53809c1.39941,0,2.36865,1.0791,2.36865,2.53809
						c0,1.44922-0.95947,2.54883-2.36865,2.54883S327.69836,29.8201,327.69836,28.36112z M331.73596,28.36112
						c0-1.11914-0.62988-1.92871-1.6792-1.92871c-1.05957,0-1.66895,0.81934-1.66895,1.92871
						c0,1.11914,0.61963,1.93945,1.66895,1.93945C331.11633,30.30057,331.73596,29.46073,331.73596,28.36112z"/>
					<path d="M337.35559,27.81132v3.01855h-0.68945v-2.84863c0-1.05957-0.33984-1.54883-1.07959-1.54883
						c-0.92969,0-1.46924,0.7998-1.46924,2.18848v2.20898h-0.68945v-4.92773h0.68945v0.71973
						c0.31982-0.49902,0.91943-0.79883,1.62891-0.79883C336.80579,25.82303,337.35559,26.50272,337.35559,27.81132z"/>
					<path d="M338.13831,29.62089l0.57959-0.25977c0.17969,0.50977,0.65967,0.93945,1.4292,0.93945
						c0.66943,0,1.09961-0.33008,1.09961-0.84961c0-1.30957-2.83887-0.49023-2.83887-2.23926
						c0-0.85938,0.69971-1.38867,1.68945-1.38867c0.78955,0,1.4292,0.3291,1.76904,1.0293l-0.5498,0.2998
						c-0.23975-0.44043-0.62988-0.71973-1.23926-0.71973c-0.60986,0-0.99951,0.25-0.99951,0.67969
						c0,1.16895,2.84814,0.42969,2.84814,2.29883c0,0.99902-0.81934,1.49902-1.76855,1.49902
						C339.18762,30.90995,338.39807,30.40995,338.13831,29.62089z"/>
					<path d="M345.2179,23.86405h0.79932v1.01953h-0.79932V23.86405z M345.27795,25.90214h0.68945v4.92773h-0.68945V25.90214z"/>
					<path d="M351.32532,27.81132v3.01855h-0.68945v-2.84863c0-1.05957-0.33984-1.54883-1.07959-1.54883
						c-0.92969,0-1.46924,0.7998-1.46924,2.18848v2.20898h-0.68945v-4.92773h0.68945v0.71973
						c0.31982-0.49902,0.91943-0.79883,1.62891-0.79883C350.77551,25.82303,351.32532,26.50272,351.32532,27.81132z"/>
					<path d="M358.64563,27.76151v3.06836h-0.62988l-0.04004-0.75977c-0.38965,0.5498-0.98926,0.83984-1.76904,0.83984
						c-1.06934,0-1.69873-0.55957-1.69873-1.50977c0-0.49902,0.19971-0.87891,0.55957-1.09863
						c0.37988-0.21973,0.90967-0.31055,1.87891-0.31055h1.00928v-0.22949c0-0.85938-0.44971-1.3291-1.2793-1.3291
						c-0.61963,0-1.09912,0.26953-1.49902,0.81934l-0.49951-0.41992c0.5293-0.68945,1.16895-1.00879,2.00879-1.00879
						C357.9259,25.82303,358.64563,26.53202,358.64563,27.76151z M357.95569,28.62089v-0.06934h-0.94922
						c-0.90967,0-1.29932,0.05957-1.53906,0.24902c-0.18018,0.14062-0.27002,0.36035-0.27002,0.63965
						c0,0.5498,0.46973,0.90039,1.20947,0.90039C357.35608,30.34061,357.95569,29.67069,357.95569,28.62089z"/>
					<path d="M364.32629,30.78007c-0.25977,0.08008-0.52002,0.12988-0.74951,0.12988c-0.65967,0-1.13965-0.37012-1.13965-1.23926
						v-3.18848h-0.81934v-0.58008h0.81934v-1.37891l0.68994-0.51953v1.89844h1.18896v0.58008h-1.18896v3.09863
						c0,0.47949,0.21973,0.69922,0.60938,0.69922c0.16992,0,0.35986-0.04004,0.57959-0.10938L364.32629,30.78007z"/>
					<path d="M369.09485,28.55155h-3.60791c0.02002,1.0791,0.61963,1.72852,1.58936,1.72852
						c0.53955,0,0.96924-0.13965,1.41895-0.61914l0.47998,0.41895c-0.57959,0.61035-1.14941,0.83008-1.90918,0.83008
						c-1.49902,0-2.26855-1.11914-2.26855-2.51855c0-1.38965,0.75977-2.56836,2.18896-2.56836
						c1.50879,0,2.13867,1.17871,2.13867,2.29785C369.12512,28.26151,369.11487,28.43143,369.09485,28.55155z M365.48694,27.97147
						h2.97852c0-0.02051-0.01025-0.07031-0.01025-0.16016c-0.0498-0.7998-0.55957-1.40918-1.46875-1.40918
						C366.0968,26.40214,365.547,27.10233,365.48694,27.97147z"/>
					<path d="M371.27698,28.36112l-1.79932-2.45898h0.83984l1.41895,1.97949l1.40918-1.97949h0.83984l-1.79932,2.45898
						l1.80908,2.46875h-0.84961l-1.40918-1.99902l-1.40918,1.99902h-0.84961L371.27698,28.36112z"/>
					<path d="M376.86584,30.78007c-0.25977,0.08008-0.52002,0.12988-0.74951,0.12988c-0.65967,0-1.13965-0.37012-1.13965-1.23926
						v-3.18848h-0.81934v-0.58008h0.81934v-1.37891l0.68945-0.51953v1.89844h1.18945v0.58008h-1.18945v3.09863
						c0,0.47949,0.22021,0.69922,0.60986,0.69922c0.16992,0,0.35986-0.04004,0.57959-0.10938L376.86584,30.78007z"/>
				</g>
				<g enable-background="new    ">
					<path d="M212.45764,38.033l-0.33984,0.55957c-0.22949-0.10059-0.43945-0.15039-0.64941-0.15039
						c-0.75977,0-1.31934,0.56934-1.31934,1.63965v2.74805h-0.68945v-4.92773h0.68945v0.74023
						c0.35986-0.64941,0.95947-0.81934,1.45898-0.81934C211.90833,37.82304,212.18811,37.88261,212.45764,38.033z"/>
					<path d="M216.53723,40.55155h-3.60791c0.02002,1.0791,0.61963,1.72852,1.58936,1.72852
						c0.53955,0,0.96924-0.13965,1.41895-0.61914l0.47998,0.41895c-0.57959,0.61035-1.14941,0.83008-1.90918,0.83008
						c-1.49902,0-2.26855-1.11914-2.26855-2.51855c0-1.38965,0.75977-2.56836,2.18896-2.56836
						c1.50879,0,2.13867,1.17871,2.13867,2.29785C216.5675,40.26151,216.55725,40.43143,216.53723,40.55155z M212.92932,39.97147
						h2.97852c0-0.02051-0.01025-0.07031-0.01025-0.16016c-0.0498-0.7998-0.55957-1.40918-1.46875-1.40918
						C213.53918,38.40214,212.98938,39.10233,212.92932,39.97147z"/>
					<path d="M217.52942,41.76054v-5.89648h0.68945v5.85645c0,0.33984,0.12012,0.55957,0.44971,0.55957
						c0.1499,0,0.31982-0.04004,0.46973-0.08984l0.01025,0.58984c-0.20996,0.06934-0.45996,0.12988-0.67969,0.12988
						C217.89905,42.90995,217.52942,42.53007,217.52942,41.76054z"/>
					<path d="M223.54749,39.76151v3.06836h-0.62988l-0.04004-0.75977c-0.38965,0.5498-0.98926,0.83984-1.76904,0.83984
						c-1.06934,0-1.69873-0.55957-1.69873-1.50977c0-0.49902,0.19971-0.87891,0.55957-1.09863
						c0.37988-0.21973,0.90967-0.31055,1.87891-0.31055h1.00928v-0.22949c0-0.85938-0.44971-1.3291-1.2793-1.3291
						c-0.61963,0-1.09912,0.26953-1.49902,0.81934l-0.49951-0.41992c0.5293-0.68945,1.16895-1.00879,2.00879-1.00879
						C222.82776,37.82304,223.54749,38.53202,223.54749,39.76151z M222.85754,40.62089v-0.06934h-0.94922
						c-0.90967,0-1.29932,0.05957-1.53906,0.24902c-0.18018,0.14062-0.27002,0.36035-0.27002,0.63965
						c0,0.5498,0.46973,0.90039,1.20947,0.90039C222.25793,42.34061,222.85754,41.67069,222.85754,40.62089z"/>
					<path d="M226.88831,42.78007c-0.25977,0.08008-0.52002,0.12988-0.74951,0.12988c-0.65967,0-1.13965-0.37012-1.13965-1.23926
						v-3.18848h-0.81934v-0.58008h0.81934v-1.37891l0.68945-0.51953v1.89844h1.18945v0.58008h-1.18945v3.09863
						c0,0.47949,0.22021,0.69922,0.60986,0.69922c0.16992,0,0.35986-0.04004,0.57959-0.10938L226.88831,42.78007z"/>
					<path d="M227.74915,35.86405h0.79932v1.01953h-0.79932V35.86405z M227.8092,37.90214h0.68945v4.92773h-0.68945V37.90214z"/>
					<path d="M229.21936,37.90214h0.75l1.54883,4.04785l1.55908-4.04785h0.75977l-2.01904,4.92773h-0.58936L229.21936,37.90214z"/>
					<path d="M238.30676,40.55155h-3.60791c0.02002,1.0791,0.61963,1.72852,1.58936,1.72852
						c0.53955,0,0.96924-0.13965,1.41895-0.61914l0.47998,0.41895c-0.57959,0.61035-1.14941,0.83008-1.90918,0.83008
						c-1.49902,0-2.26855-1.11914-2.26855-2.51855c0-1.38965,0.75977-2.56836,2.18896-2.56836
						c1.50879,0,2.13867,1.17871,2.13867,2.29785C238.33704,40.26151,238.32678,40.43143,238.30676,40.55155z M234.69885,39.97147
						h2.97852c0-0.02051-0.01025-0.07031-0.01025-0.16016c-0.0498-0.7998-0.55957-1.40918-1.46875-1.40918
						C235.30872,38.40214,234.75891,39.10233,234.69885,39.97147z"/>
					<path d="M243.72815,42.78007c-0.25977,0.08008-0.52002,0.12988-0.74951,0.12988c-0.65967,0-1.13965-0.37012-1.13965-1.23926
						v-3.18848h-0.81934v-0.58008h0.81934v-1.37891l0.68945-0.51953v1.89844h1.18945v0.58008h-1.18945v3.09863
						c0,0.47949,0.22021,0.69922,0.60986,0.69922c0.16992,0,0.35986-0.04004,0.57959-0.10938L243.72815,42.78007z"/>
					<path d="M244.16907,40.36112c0-1.45898,0.94971-2.53809,2.35889-2.53809c1.39941,0,2.36865,1.0791,2.36865,2.53809
						c0,1.44922-0.95947,2.54883-2.36865,2.54883S244.16907,41.82011,244.16907,40.36112z M248.20715,40.36112
						c0-1.11914-0.62988-1.92871-1.6792-1.92871c-1.05957,0-1.66895,0.81934-1.66895,1.92871
						c0,1.11914,0.61963,1.93945,1.66895,1.93945C247.58752,42.30058,248.20715,41.46073,248.20715,40.36112z"/>
					<path d="M254.28772,42.78007c-0.25977,0.08008-0.52002,0.12988-0.74951,0.12988c-0.65967,0-1.13965-0.37012-1.13965-1.23926
						v-3.18848h-0.81934v-0.58008h0.81934v-1.37891l0.68945-0.51953v1.89844h1.18945v0.58008h-1.18945v3.09863
						c0,0.47949,0.22021,0.69922,0.60986,0.69922c0.16992,0,0.35986-0.04004,0.57959-0.10938L254.28772,42.78007z"/>
					<path d="M259.13684,39.81132v3.01855h-0.68945v-2.84863c0-1.06934-0.33984-1.54883-1.07959-1.54883
						c-0.93945,0-1.46924,0.76953-1.46924,2.12891v2.26855h-0.68945v-6.96582h0.68945v2.75781
						c0.31982-0.49902,0.91943-0.79883,1.62891-0.79883C258.58704,37.82304,259.13684,38.50272,259.13684,39.81132z"/>
					<path d="M264.34631,40.55155h-3.60791c0.02002,1.0791,0.61963,1.72852,1.58936,1.72852
						c0.53955,0,0.96924-0.13965,1.41895-0.61914l0.47998,0.41895c-0.57959,0.61035-1.14941,0.83008-1.90918,0.83008
						c-1.49902,0-2.26855-1.11914-2.26855-2.51855c0-1.38965,0.75977-2.56836,2.18896-2.56836
						c1.50879,0,2.13867,1.17871,2.13867,2.29785C264.37659,40.26151,264.36633,40.43143,264.34631,40.55155z M260.7384,39.97147
						h2.97852c0-0.02051-0.01025-0.07031-0.01025-0.16016c-0.0498-0.7998-0.55957-1.40918-1.46875-1.40918
						C261.34827,38.40214,260.79846,39.10233,260.7384,39.97147z"/>
					<path d="M267.30872,40.38163c0-1.2998,0.72998-2.55859,2.21875-2.55859c0.87988,0,1.60938,0.43945,1.99902,1.3584
						l-0.65967,0.26074c-0.22949-0.62988-0.71924-1.00977-1.33936-1.00977c-1.04932,0-1.51904,0.93945-1.51904,1.94922
						c0,1.00879,0.46973,1.91895,1.5293,1.91895c0.61963,0,1.10938-0.37012,1.29932-1l0.63965,0.24023
						c-0.33008,0.89941-1.04932,1.36914-1.93896,1.36914C268.10852,42.90995,267.30872,41.75077,267.30872,40.38163z"/>
					<path d="M276.02698,39.76151v3.06836h-0.62988l-0.04004-0.75977c-0.38965,0.5498-0.98926,0.83984-1.76904,0.83984
						c-1.06934,0-1.69873-0.55957-1.69873-1.50977c0-0.49902,0.19971-0.87891,0.55957-1.09863
						c0.37988-0.21973,0.90967-0.31055,1.87891-0.31055h1.00928v-0.22949c0-0.85938-0.44971-1.3291-1.2793-1.3291
						c-0.61963,0-1.09912,0.26953-1.49902,0.81934l-0.49951-0.41992c0.5293-0.68945,1.16895-1.00879,2.00879-1.00879
						C275.30725,37.82304,276.02698,38.53202,276.02698,39.76151z M275.33704,40.62089v-0.06934h-0.94922
						c-0.90967,0-1.29932,0.05957-1.53906,0.24902c-0.18018,0.14062-0.27002,0.36035-0.27002,0.63965
						c0,0.5498,0.46973,0.90039,1.20947,0.90039C274.73743,42.34061,275.33704,41.67069,275.33704,40.62089z"/>
					<path d="M279.3678,42.78007c-0.25977,0.08008-0.52002,0.12988-0.74951,0.12988c-0.65967,0-1.13965-0.37012-1.13965-1.23926
						v-3.18848h-0.81934v-0.58008h0.81934v-1.37891l0.68945-0.51953v1.89844h1.18945v0.58008h-1.18945v3.09863
						c0,0.47949,0.22021,0.69922,0.60986,0.69922c0.16992,0,0.35986-0.04004,0.57959-0.10938L279.3678,42.78007z"/>
					<path d="M284.13635,40.55155h-3.60791c0.02002,1.0791,0.61963,1.72852,1.58936,1.72852
						c0.53955,0,0.96924-0.13965,1.41895-0.61914l0.47998,0.41895c-0.57959,0.61035-1.14941,0.83008-1.90918,0.83008
						c-1.49902,0-2.26855-1.11914-2.26855-2.51855c0-1.38965,0.75977-2.56836,2.18896-2.56836
						c1.50879,0,2.13867,1.17871,2.13867,2.29785C284.16663,40.26151,284.15637,40.43143,284.13635,40.55155z M280.52844,39.97147
						h2.97852c0-0.02051-0.01025-0.07031-0.01025-0.16016c-0.0498-0.7998-0.55957-1.40918-1.46875-1.40918
						C281.13831,38.40214,280.5885,39.10233,280.52844,39.97147z"/>
					<path d="M289.00647,43.58964c0,0.92969-0.86963,1.35938-2.10889,1.35938c-1.36914,0-2.19873-0.54004-2.19873-1.51953
						c0-0.09961,0.00977-0.16016,0.02002-0.21973l0.79932-0.67969c-0.37988-0.16992-0.63965-0.4502-0.63965-0.93945
						c0-0.39941,0.18018-0.69922,0.52979-0.93945c-0.25977-0.2998-0.41992-0.67969-0.41992-1.11914
						c0-1,0.81982-1.70898,1.87891-1.70898c0.47998,0,0.90967,0.14941,1.22949,0.39941l0.67969-0.58984l0.35986,0.4502
						l-0.66992,0.55957c0.16992,0.26953,0.27002,0.5791,0.27002,0.92969c0,1.00879-0.81934,1.67871-1.85889,1.67871
						c-0.37988,0-0.72949-0.08984-1.01953-0.25c-0.19971,0.11035-0.31982,0.29004-0.31982,0.5c0,0.5,0.61963,0.61914,1.3291,0.72949
						C287.8468,42.37968,289.00647,42.5203,289.00647,43.58964z M288.31653,43.64921c0-0.59961-0.7793-0.68945-1.59912-0.81934
						c-0.21973-0.03027-0.44971-0.07031-0.65967-0.12012l-0.66943,0.64941c-0.01025,0.05078-0.01025,0.07031-0.01025,0.09082
						c0,0.69922,0.70996,0.91895,1.54932,0.91895C287.797,44.36893,288.31653,44.1287,288.31653,43.64921z M285.66809,39.55155
						c0,0.63965,0.45996,1.12988,1.19922,1.12988c0.73975,0,1.17969-0.48047,1.17969-1.12988
						c0-0.67969-0.45996-1.14941-1.16943-1.14941C286.17786,38.40214,285.66809,38.87186,285.66809,39.55155z"/>
					<path d="M289.35852,40.36112c0-1.45898,0.94971-2.53809,2.35889-2.53809c1.39941,0,2.36865,1.0791,2.36865,2.53809
						c0,1.44922-0.95947,2.54883-2.36865,2.54883S289.35852,41.82011,289.35852,40.36112z M293.39661,40.36112
						c0-1.11914-0.62988-1.92871-1.6792-1.92871c-1.05957,0-1.66895,0.81934-1.66895,1.92871
						c0,1.11914,0.61963,1.93945,1.66895,1.93945C292.77698,42.30058,293.39661,41.46073,293.39661,40.36112z"/>
					<path d="M298.08655,38.033l-0.33984,0.55957c-0.22949-0.10059-0.43945-0.15039-0.64941-0.15039
						c-0.75977,0-1.31934,0.56934-1.31934,1.63965v2.74805h-0.68945v-4.92773h0.68945v0.74023
						c0.35986-0.64941,0.95947-0.81934,1.45898-0.81934C297.53723,37.82304,297.81702,37.88261,298.08655,38.033z"/>
					<path d="M300.22766,42.7703l-2.08887-4.86816h0.75977l1.69922,4.05859l1.48926-4.05859h0.75928l-2.69824,6.9668h-0.73975
						L300.22766,42.7703z"/>
					<path d="M304.26819,35.86405h0.78955l-1.31934,2.83789h-0.46973L304.26819,35.86405z"/>
					<path d="M305.55872,41.62089l0.57959-0.25977c0.17969,0.50977,0.65967,0.93945,1.4292,0.93945
						c0.66943,0,1.09961-0.33008,1.09961-0.84961c0-1.30957-2.83887-0.49023-2.83887-2.23926
						c0-0.85938,0.69971-1.38867,1.68945-1.38867c0.78955,0,1.4292,0.3291,1.76904,1.0293l-0.5498,0.2998
						c-0.23975-0.44043-0.62988-0.71973-1.23926-0.71973c-0.60986,0-0.99951,0.25-0.99951,0.67969
						c0,1.16895,2.84814,0.42969,2.84814,2.29883c0,0.99902-0.81934,1.49902-1.76904,1.49902
						C306.60803,42.90995,305.81848,42.40995,305.55872,41.62089z"/>
					<path d="M319.45471,39.75175v3.07812h-0.68994V39.9412c0-0.41992,0-1.50879-1.0791-1.50879
						c-0.99951,0-1.26953,0.91895-1.26953,2.02832v2.36914h-0.68945v-2.84863c0-0.81934-0.25-1.54883-1.10938-1.54883
						c-0.95947,0-1.22949,0.90918-1.22949,2.02832v2.36914h-0.68945l-0.01025-4.92773h0.66992v0.60059
						c0.30957-0.49023,0.80957-0.67969,1.35889-0.67969c0.68994,0,1.19971,0.2998,1.44922,0.94922
						c0.31982-0.62988,0.86963-0.94922,1.61914-0.94922C318.96497,37.82304,319.45471,38.60233,319.45471,39.75175z"/>
					<path d="M324.43616,39.76151v3.06836h-0.62988l-0.04004-0.75977c-0.38965,0.5498-0.98926,0.83984-1.76904,0.83984
						c-1.06934,0-1.69873-0.55957-1.69873-1.50977c0-0.49902,0.19971-0.87891,0.55957-1.09863
						c0.37988-0.21973,0.90967-0.31055,1.87891-0.31055h1.00928v-0.22949c0-0.85938-0.44971-1.3291-1.2793-1.3291
						c-0.61963,0-1.09912,0.26953-1.49902,0.81934l-0.49951-0.41992c0.5293-0.68945,1.16895-1.00879,2.00879-1.00879
						C323.71643,37.82304,324.43616,38.53202,324.43616,39.76151z M323.74622,40.62089v-0.06934H322.797
						c-0.90967,0-1.29932,0.05957-1.53906,0.24902c-0.18018,0.14062-0.27002,0.36035-0.27002,0.63965
						c0,0.5498,0.46973,0.90039,1.20947,0.90039C323.14661,42.34061,323.74622,41.67069,323.74622,40.62089z"/>
					<path d="M326.87756,40.36112l-1.79932-2.45898h0.83984l1.41895,1.97949l1.40918-1.97949h0.83984l-1.79932,2.45898
						l1.80908,2.46875h-0.84961l-1.40918-1.99902l-1.40918,1.99902h-0.84961L326.87756,40.36112z"/>
					<path d="M330.30823,35.86405h0.79932v1.01953h-0.79932V35.86405z M330.36829,37.90214h0.68945v4.92773h-0.68945V37.90214z"/>
					<path d="M339.24426,39.75175v3.07812h-0.68994V39.9412c0-0.41992,0-1.50879-1.0791-1.50879
						c-0.99951,0-1.26953,0.91895-1.26953,2.02832v2.36914h-0.68945v-2.84863c0-0.81934-0.25-1.54883-1.10938-1.54883
						c-0.95947,0-1.22949,0.90918-1.22949,2.02832v2.36914h-0.68945l-0.01025-4.92773h0.66992v0.60059
						c0.30957-0.49023,0.80957-0.67969,1.35889-0.67969c0.68994,0,1.19971,0.2998,1.44922,0.94922
						c0.31982-0.62988,0.86963-0.94922,1.61914-0.94922C338.75452,37.82304,339.24426,38.60233,339.24426,39.75175z"/>
					<path d="M344.26575,37.90214v4.92773h-0.68945v-0.70996c-0.34961,0.53027-0.97949,0.79004-1.62891,0.79004
						c-1.11963,0-1.60938-0.76953-1.60938-1.98926v-3.01855h0.68945v2.84863c0,0.7998,0.14014,1.5498,1.07959,1.5498
						c0.97949,0,1.46924-0.84961,1.46924-2.12891v-2.26953H344.26575z"/>
					<path d="M352.45422,39.75175v3.07812h-0.68994V39.9412c0-0.41992,0-1.50879-1.0791-1.50879
						c-0.99951,0-1.26953,0.91895-1.26953,2.02832v2.36914h-0.68945v-2.84863c0-0.81934-0.25-1.54883-1.10938-1.54883
						c-0.95947,0-1.22949,0.90918-1.22949,2.02832v2.36914h-0.68945l-0.01025-4.92773h0.66992v0.60059
						c0.30957-0.49023,0.80957-0.67969,1.35889-0.67969c0.68994,0,1.19971,0.2998,1.44922,0.94922
						c0.31982-0.62988,0.86963-0.94922,1.61914-0.94922C351.96448,37.82304,352.45422,38.60233,352.45422,39.75175z"/>
					<path d="M360.03528,39.81132v3.01855h-0.68945v-2.84863c0-1.05957-0.33984-1.54883-1.07959-1.54883
						c-0.92969,0-1.46924,0.7998-1.46924,2.18848v2.20898h-0.68945v-4.92773h0.68945v0.71973
						c0.31982-0.49902,0.91943-0.79883,1.62891-0.79883C359.48547,37.82304,360.03528,38.50272,360.03528,39.81132z"/>
					<path d="M365.0553,37.90214v4.92773h-0.68945v-0.70996c-0.3501,0.53027-0.97949,0.79004-1.62939,0.79004
						c-1.11914,0-1.60889-0.76953-1.60889-1.98926v-3.01855h0.68945v2.84863c0,0.7998,0.14014,1.5498,1.07959,1.5498
						c0.97949,0,1.46924-0.84961,1.46924-2.12891v-2.26953H365.0553z"/>
					<path d="M373.24377,39.75175v3.07812h-0.68994V39.9412c0-0.41992,0-1.50879-1.0791-1.50879
						c-0.99951,0-1.26953,0.91895-1.26953,2.02832v2.36914h-0.68945v-2.84863c0-0.81934-0.25-1.54883-1.10938-1.54883
						c-0.95947,0-1.22949,0.90918-1.22949,2.02832v2.36914h-0.68945l-0.01025-4.92773h0.66992v0.60059
						c0.30957-0.49023,0.80957-0.67969,1.35889-0.67969c0.68994,0,1.19971,0.2998,1.44922,0.94922
						c0.31982-0.62988,0.86963-0.94922,1.61914-0.94922C372.75403,37.82304,373.24377,38.60233,373.24377,39.75175z"/>
					<path d="M379.06506,40.36112c0,1.46973-0.74951,2.54883-2.18896,2.54883c-0.71924,0-1.26904-0.28027-1.62891-0.73926v0.65918
						h-0.68945v-6.96582h0.68945v2.69824c0.36963-0.47949,0.92969-0.75,1.62891-0.75
						C378.24573,37.81229,379.06506,38.82206,379.06506,40.36112z M378.37561,40.36112c0-1.16895-0.59961-1.93848-1.59912-1.93848
						c-0.98975,0-1.58936,0.76953-1.58936,1.93848c0,1.11914,0.5498,1.93945,1.58936,1.93945
						C377.82581,42.30058,378.37561,41.48026,378.37561,40.36112z"/>
					<path d="M384.005,40.55155h-3.60791c0.02002,1.0791,0.61963,1.72852,1.58936,1.72852
						c0.53955,0,0.96924-0.13965,1.41895-0.61914l0.47998,0.41895c-0.57959,0.61035-1.14941,0.83008-1.90918,0.83008
						c-1.49902,0-2.26855-1.11914-2.26855-2.51855c0-1.38965,0.75977-2.56836,2.18896-2.56836
						c1.50879,0,2.13867,1.17871,2.13867,2.29785C384.03528,40.26151,384.02502,40.43143,384.005,40.55155z M380.39709,39.97147
						h2.97852c0-0.02051-0.01025-0.07031-0.01025-0.16016c-0.0498-0.7998-0.55957-1.40918-1.46875-1.40918
						C381.00696,38.40214,380.45715,39.10233,380.39709,39.97147z"/>
					<path d="M388.03528,38.033l-0.33984,0.55957c-0.22949-0.10059-0.43945-0.15039-0.64941-0.15039
						c-0.75977,0-1.31934,0.56934-1.31934,1.63965v2.74805h-0.68945v-4.92773h0.68945v0.74023
						c0.35986-0.64941,0.95947-0.81934,1.45898-0.81934C387.48547,37.82304,387.76575,37.88261,388.03528,38.033z"/>
				</g>
				<g enable-background="new    ">
					<path d="M1.35949,8.3953l1.05566-0.26367c0.14404,1.05566,0.91162,1.69141,1.979,1.69141
						c1.09131,0,1.6792-0.56445,1.6792-1.34375c0-0.79102-0.49219-1.22363-1.8833-1.76269
						C2.47521,6.05643,1.87561,5.44511,1.87561,4.31815c0-1.2959,0.99512-2.1709,2.4585-2.1709
						c1.07959,0,1.91895,0.49121,2.43457,1.41504L5.86926,4.11405C5.53332,3.47831,4.96984,3.10624,4.29797,3.10624
						c-0.7793,0-1.35498,0.52734-1.35498,1.17578c0,0.69531,0.52783,1.06738,1.82275,1.57129
						C6.6007,6.54862,7.15246,7.2078,7.15246,8.38358c0,1.45117-1.04346,2.39844-2.77051,2.39844
						C2.79895,10.78202,1.58752,9.83475,1.35949,8.3953z"/>
					<path d="M8.96691,2.29081h1.06738v8.35938H8.96691V2.29081z"/>
					<path d="M18.43176,3.10624l-5.20508,6.56055h5.18115v0.9834h-6.6206v-0.7793l5.24121-6.59668h-4.96533v-0.9834h6.36865V3.10624
						z"/>
					<path d="M20.2467,2.29081h5.51709v0.9834h-4.44971v2.61426h4.04199v0.9834h-4.04199v2.79492h4.44971v0.9834H20.2467V2.29081z"
						/>
				</g>
				<g enable-background="new    ">
					<path d="M166.72766,6.45292c0-2.6748,1.4873-4.30566,3.92188-4.30566c1.70312,0,2.93848,0.79102,3.52588,2.33789
						l-0.9834,0.38379c-0.41943-1.15137-1.2832-1.70312-2.54248-1.70312c-1.82275,0-2.85449,1.1875-2.85449,3.28711
						c0,2.11035,1.03174,3.32129,2.81836,3.32129c1.24756,0,2.14697-0.58691,2.57861-1.73828l1.00781,0.37109
						c-0.61182,1.55957-1.8833,2.38672-3.58643,2.38672C168.20276,10.79374,166.72766,9.15116,166.72766,6.45292z"/>
					<path d="M175.16418,6.47636c0-2.60254,1.55908-4.3291,3.87354-4.3291c2.32666,0,3.88623,1.72656,3.88623,4.3291
						c0,2.59082-1.55957,4.31738-3.88623,4.31738C176.72327,10.79374,175.16418,9.06717,175.16418,6.47636z M181.85608,6.47636
						c0-2.02637-1.10303-3.31055-2.81836-3.31055c-1.71484,0-2.80615,1.28418-2.80615,3.31055
						c0,2.01465,1.09131,3.29785,2.80615,3.29785C180.75305,9.77421,181.85608,8.491,181.85608,6.47636z"/>
					<path d="M184.76331,2.29081h1.06738v7.37598h3.74219v0.9834h-4.80957V2.29081z"/>
					<path d="M190.07971,6.47636c0-2.60254,1.55908-4.3291,3.87354-4.3291c2.32666,0,3.88623,1.72656,3.88623,4.3291
						c0,2.59082-1.55957,4.31738-3.88623,4.31738C191.63879,10.79374,190.07971,9.06717,190.07971,6.47636z M196.77209,6.47636
						c0-2.02637-1.10352-3.31055-2.81885-3.31055c-1.71484,0-2.80615,1.28418-2.80615,3.31055
						c0,2.01465,1.09131,3.29785,2.80615,3.29785C195.66858,9.77421,196.77209,8.491,196.77209,6.47636z"/>
					<path d="M199.51135,7.62772V2.29081h1.06738V7.5203c0,1.54687,0.61182,2.23047,1.99121,2.23047
						c1.39111,0,2.00293-0.69531,2.00293-2.25488V2.29081h1.06738v5.27734c0,2.12305-1.06738,3.22559-3.07031,3.22559
						C200.57874,10.79374,199.51135,9.70292,199.51135,7.62772z"/>
					<path d="M212.54065,10.65018l-2.09912-3.62207h-0.53955h-0.95947v3.62207h-1.06738V2.29081h2.50684
						c1.85889,0,2.78223,0.83984,2.78223,2.35059c0,1.1875-0.57568,1.94336-1.65479,2.24316l2.2666,3.76562H212.54065z
						 M210.27405,6.033c1.19922,0,1.82275-0.43164,1.82275-1.37988c0-0.94727-0.62354-1.37891-1.82275-1.37891h-1.33154V6.033
						H210.27405z"/>
				</g>
			</g>
		</g>
	</g>
</g>
</svg>
