<svg xmlns="http://www.w3.org/2000/svg" xmlns:xlink="http://www.w3.org/1999/xlink" width="250" height="389" viewBox="0 0 250 389">
  <defs>
    <clipPath id="clip-zoom-02">
      <rect width="250" height="389"/>
    </clipPath>
  </defs>
  <g id="zoom-02" clip-path="url(#clip-zoom-02)">
    <g id="Isolation_Mode" data-name="Isolation Mode" transform="translate(-0.135 0.228)">
      <path id="Tracciato_148066" data-name="Tracciato 148066" d="M126.775,283.7a48.58,48.58,0,1,1-48.58,48.58,48.58,48.58,0,0,1,48.58-48.58m0-.2a48.775,48.775,0,1,0,48.775,48.775A48.775,48.775,0,0,0,126.775,283.5Z" transform="translate(-21.554 -66.041)"/>
      <path id="Tracciato_148067" data-name="Tracciato 148067" d="M123.434,32.463A40.971,40.971,0,1,1,82.463,73.434a40.971,40.971,0,0,1,40.971-40.971m0-5.463a46.434,46.434,0,1,0,46.434,46.434A46.434,46.434,0,0,0,123.434,27Z" transform="translate(-20.865 -9.228)" fill="orange"/>
      <path id="Tracciato_148068" data-name="Tracciato 148068" d="M202.5,324.5a87.608,87.608,0,1,1,0-9.482h-.258a87.35,87.35,0,1,0,0,9.458Z" transform="translate(-10.445 -54.766)" fill="orange"/>
      <line id="Linea_7818" data-name="Linea 7818" x1="8.787" transform="translate(17.223 264.993)" fill="none" stroke="orange" stroke-miterlimit="10" stroke-width="0.43"/>
      <line id="Linea_7819" data-name="Linea 7819" y1="0.695" x2="12.744" transform="translate(220.784 257.181)" fill="none" stroke="orange" stroke-miterlimit="10" stroke-width="0.5"/>
      <ellipse id="Ellisse_33328" data-name="Ellisse 33328" cx="0.656" cy="0.656" rx="0.656" ry="0.656" transform="translate(55.885 263.557)" fill="orange" stroke="#fff" stroke-miterlimit="10" stroke-width="0.33"/>
      <ellipse id="Ellisse_33329" data-name="Ellisse 33329" cx="0.656" cy="0.656" rx="0.656" ry="0.656" transform="translate(191.144 269.067)" fill="#00c19c" stroke="#fff" stroke-miterlimit="10" stroke-width="0.33"/>
      <ellipse id="Ellisse_33330" data-name="Ellisse 33330" cx="0.656" cy="0.656" rx="0.656" ry="0.656" transform="translate(190.121 278.471)" fill="#00c19c" stroke="#fff" stroke-miterlimit="10" stroke-width="0.33"/>
      <ellipse id="Ellisse_33331" data-name="Ellisse 33331" cx="0.656" cy="0.656" rx="0.656" ry="0.656" transform="translate(188.085 287.711)" fill="#00c19c" stroke="#fff" stroke-miterlimit="10" stroke-width="0.33"/>
      <ellipse id="Ellisse_33332" data-name="Ellisse 33332" cx="0.656" cy="0.656" rx="0.656" ry="0.656" transform="translate(185.064 296.67)" fill="#00c19c" stroke="#fff" stroke-miterlimit="10" stroke-width="0.33"/>
      <ellipse id="Ellisse_33333" data-name="Ellisse 33333" cx="0.656" cy="0.656" rx="0.656" ry="0.656" transform="translate(181.092 305.254)" fill="#00c19c" stroke="#fff" stroke-miterlimit="10" stroke-width="0.33"/>
      <ellipse id="Ellisse_33334" data-name="Ellisse 33334" cx="0.656" cy="0.656" rx="0.656" ry="0.656" transform="translate(176.215 313.362)" fill="#00c19c" stroke="#fff" stroke-miterlimit="10" stroke-width="0.33"/>
      <ellipse id="Ellisse_33335" data-name="Ellisse 33335" cx="0.656" cy="0.656" rx="0.656" ry="0.656" transform="translate(170.494 320.885)" fill="#00c19c" stroke="#fff" stroke-miterlimit="10" stroke-width="0.33"/>
      <ellipse id="Ellisse_33336" data-name="Ellisse 33336" cx="0.656" cy="0.656" rx="0.656" ry="0.656" transform="translate(163.986 327.753)" fill="#00c19c" stroke="#fff" stroke-miterlimit="10" stroke-width="0.33"/>
      <ellipse id="Ellisse_33337" data-name="Ellisse 33337" cx="0.656" cy="0.656" rx="0.656" ry="0.656" transform="translate(156.783 333.879)" fill="#00c19c" stroke="#fff" stroke-miterlimit="10" stroke-width="0.33"/>
      <ellipse id="Ellisse_33338" data-name="Ellisse 33338" cx="0.656" cy="0.656" rx="0.656" ry="0.656" transform="translate(148.955 339.186)" fill="#00c19c" stroke="#fff" stroke-miterlimit="10" stroke-width="0.33"/>
      <ellipse id="Ellisse_33339" data-name="Ellisse 33339" cx="0.656" cy="0.656" rx="0.656" ry="0.656" transform="translate(140.597 343.618)" fill="#00c19c" stroke="#fff" stroke-miterlimit="10" stroke-width="0.33"/>
      <ellipse id="Ellisse_33340" data-name="Ellisse 33340" cx="0.656" cy="0.656" rx="0.656" ry="0.656" transform="translate(131.81 347.115)" fill="#00c19c" stroke="#fff" stroke-miterlimit="10" stroke-width="0.33"/>
      <ellipse id="Ellisse_33341" data-name="Ellisse 33341" cx="0.656" cy="0.656" rx="0.656" ry="0.656" transform="translate(122.695 349.643)" fill="#00c19c" stroke="#fff" stroke-miterlimit="10" stroke-width="0.33"/>
      <ellipse id="Ellisse_33342" data-name="Ellisse 33342" cx="0.656" cy="0.656" rx="0.656" ry="0.656" transform="translate(113.361 351.181)" fill="#00c19c" stroke="#fff" stroke-miterlimit="10" stroke-width="0.33"/>
      <ellipse id="Ellisse_33343" data-name="Ellisse 33343" cx="0.656" cy="0.656" rx="0.656" ry="0.656" transform="translate(103.918 351.688)" fill="#00c19c" stroke="#fff" stroke-miterlimit="10" stroke-width="0.33"/>
      <ellipse id="Ellisse_33344" data-name="Ellisse 33344" cx="0.656" cy="0.656" rx="0.656" ry="0.656" transform="translate(94.475 351.181)" fill="#00c19c" stroke="#fff" stroke-miterlimit="10" stroke-width="0.33"/>
      <ellipse id="Ellisse_33345" data-name="Ellisse 33345" cx="0.656" cy="0.656" rx="0.656" ry="0.656" transform="translate(85.142 349.643)" fill="#00c19c" stroke="#fff" stroke-miterlimit="10" stroke-width="0.33"/>
      <ellipse id="Ellisse_33346" data-name="Ellisse 33346" cx="0.656" cy="0.656" rx="0.656" ry="0.656" transform="translate(76.027 347.115)" fill="#00c19c" stroke="#fff" stroke-miterlimit="10" stroke-width="0.33"/>
      <ellipse id="Ellisse_33347" data-name="Ellisse 33347" cx="0.656" cy="0.656" rx="0.656" ry="0.656" transform="translate(67.247 343.618)" fill="#00c19c" stroke="#fff" stroke-miterlimit="10" stroke-width="0.33"/>
      <ellipse id="Ellisse_33348" data-name="Ellisse 33348" cx="0.656" cy="0.656" rx="0.656" ry="0.656" transform="translate(58.889 339.186)" fill="#00c19c" stroke="#fff" stroke-miterlimit="10" stroke-width="0.33"/>
      <ellipse id="Ellisse_33349" data-name="Ellisse 33349" cx="0.656" cy="0.656" rx="0.656" ry="0.656" transform="translate(51.062 333.879)" fill="#00c19c" stroke="#fff" stroke-miterlimit="10" stroke-width="0.33"/>
      <ellipse id="Ellisse_33350" data-name="Ellisse 33350" cx="0.656" cy="0.656" rx="0.656" ry="0.656" transform="translate(43.851 327.753)" fill="#00c19c" stroke="#fff" stroke-miterlimit="10" stroke-width="0.33"/>
      <ellipse id="Ellisse_33351" data-name="Ellisse 33351" cx="0.656" cy="0.656" rx="0.656" ry="0.656" transform="translate(37.35 320.885)" fill="#00c19c" stroke="#fff" stroke-miterlimit="10" stroke-width="0.33"/>
      <ellipse id="Ellisse_33352" data-name="Ellisse 33352" cx="0.656" cy="0.656" rx="0.656" ry="0.656" transform="translate(31.622 313.362)" fill="#00c19c" stroke="#fff" stroke-miterlimit="10" stroke-width="0.33"/>
      <ellipse id="Ellisse_33353" data-name="Ellisse 33353" cx="0.656" cy="0.656" rx="0.656" ry="0.656" transform="translate(26.744 305.254)" fill="#00c19c" stroke="#fff" stroke-miterlimit="10" stroke-width="0.33"/>
      <ellipse id="Ellisse_33354" data-name="Ellisse 33354" cx="0.656" cy="0.656" rx="0.656" ry="0.656" transform="translate(22.772 296.67)" fill="#00c19c" stroke="#fff" stroke-miterlimit="10" stroke-width="0.33"/>
      <ellipse id="Ellisse_33355" data-name="Ellisse 33355" cx="0.656" cy="0.656" rx="0.656" ry="0.656" transform="translate(19.752 287.711)" fill="#00c19c" stroke="#fff" stroke-miterlimit="10" stroke-width="0.33"/>
      <ellipse id="Ellisse_33356" data-name="Ellisse 33356" cx="0.656" cy="0.656" rx="0.656" ry="0.656" transform="translate(17.723 278.471)" fill="#00c19c" stroke="#fff" stroke-miterlimit="10" stroke-width="0.33"/>
      <ellipse id="Ellisse_33357" data-name="Ellisse 33357" cx="0.656" cy="0.656" rx="0.656" ry="0.656" transform="translate(16.701 269.067)" fill="#00c19c" stroke="#fff" stroke-miterlimit="10" stroke-width="0.33"/>
      <ellipse id="Ellisse_33358" data-name="Ellisse 33358" cx="0.656" cy="0.656" rx="0.656" ry="0.656" transform="translate(16.701 259.608)" fill="#00c19c" stroke="#fff" stroke-miterlimit="10" stroke-width="0.33"/>
      <ellipse id="Ellisse_33359" data-name="Ellisse 33359" cx="0.656" cy="0.656" rx="0.656" ry="0.656" transform="translate(17.723 250.212)" fill="#00c19c" stroke="#fff" stroke-miterlimit="10" stroke-width="0.33"/>
      <ellipse id="Ellisse_33360" data-name="Ellisse 33360" cx="0.656" cy="0.656" rx="0.656" ry="0.656" transform="translate(19.752 240.972)" fill="#00c19c" stroke="#fff" stroke-miterlimit="10" stroke-width="0.33"/>
      <ellipse id="Ellisse_33361" data-name="Ellisse 33361" cx="0.656" cy="0.656" rx="0.656" ry="0.656" transform="translate(22.772 232.013)" fill="#00c19c" stroke="#fff" stroke-miterlimit="10" stroke-width="0.33"/>
      <ellipse id="Ellisse_33362" data-name="Ellisse 33362" cx="0.656" cy="0.656" rx="0.656" ry="0.656" transform="translate(26.744 223.429)" fill="#00c19c" stroke="#fff" stroke-miterlimit="10" stroke-width="0.33"/>
      <ellipse id="Ellisse_33363" data-name="Ellisse 33363" cx="0.656" cy="0.656" rx="0.656" ry="0.656" transform="translate(31.622 215.321)" fill="#00c19c" stroke="#fff" stroke-miterlimit="10" stroke-width="0.33"/>
      <ellipse id="Ellisse_33364" data-name="Ellisse 33364" cx="0.656" cy="0.656" rx="0.656" ry="0.656" transform="translate(37.35 207.79)" fill="#00c19c" stroke="#fff" stroke-miterlimit="10" stroke-width="0.33"/>
      <ellipse id="Ellisse_33365" data-name="Ellisse 33365" cx="0.656" cy="0.656" rx="0.656" ry="0.656" transform="translate(43.851 200.93)" fill="#00c19c" stroke="#fff" stroke-miterlimit="10" stroke-width="0.33"/>
      <ellipse id="Ellisse_33366" data-name="Ellisse 33366" cx="0.656" cy="0.656" rx="0.656" ry="0.656" transform="translate(51.062 194.804)" fill="#00c19c" stroke="#fff" stroke-miterlimit="10" stroke-width="0.33"/>
      <ellipse id="Ellisse_33367" data-name="Ellisse 33367" cx="0.656" cy="0.656" rx="0.656" ry="0.656" transform="translate(58.889 189.497)" fill="#00c19c" stroke="#fff" stroke-miterlimit="10" stroke-width="0.33"/>
      <ellipse id="Ellisse_33368" data-name="Ellisse 33368" cx="0.656" cy="0.656" rx="0.656" ry="0.656" transform="translate(67.247 185.064)" fill="#00c19c" stroke="#fff" stroke-miterlimit="10" stroke-width="0.33"/>
      <ellipse id="Ellisse_33369" data-name="Ellisse 33369" cx="0.656" cy="0.656" rx="0.656" ry="0.656" transform="translate(76.027 181.568)" fill="#00c19c" stroke="#fff" stroke-miterlimit="10" stroke-width="0.33"/>
      <ellipse id="Ellisse_33370" data-name="Ellisse 33370" cx="0.656" cy="0.656" rx="0.656" ry="0.656" transform="translate(85.142 179.032)" fill="#00c19c" stroke="#fff" stroke-miterlimit="10" stroke-width="0.33"/>
      <ellipse id="Ellisse_33371" data-name="Ellisse 33371" cx="0.656" cy="0.656" rx="0.656" ry="0.656" transform="translate(94.475 177.502)" fill="#00c19c" stroke="#fff" stroke-miterlimit="10" stroke-width="0.33"/>
      <ellipse id="Ellisse_33372" data-name="Ellisse 33372" cx="0.656" cy="0.656" rx="0.656" ry="0.656" transform="translate(103.918 176.995)" fill="#00c19c" stroke="#fff" stroke-miterlimit="10" stroke-width="0.33"/>
      <ellipse id="Ellisse_33373" data-name="Ellisse 33373" cx="0.656" cy="0.656" rx="0.656" ry="0.656" transform="translate(113.361 177.502)" fill="#00c19c" stroke="#fff" stroke-miterlimit="10" stroke-width="0.33"/>
      <ellipse id="Ellisse_33374" data-name="Ellisse 33374" cx="0.656" cy="0.656" rx="0.656" ry="0.656" transform="translate(122.695 179.032)" fill="#00c19c" stroke="#fff" stroke-miterlimit="10" stroke-width="0.33"/>
      <ellipse id="Ellisse_33375" data-name="Ellisse 33375" cx="0.656" cy="0.656" rx="0.656" ry="0.656" transform="translate(131.81 181.568)" fill="#00c19c" stroke="#fff" stroke-miterlimit="10" stroke-width="0.33"/>
      <ellipse id="Ellisse_33376" data-name="Ellisse 33376" cx="0.656" cy="0.656" rx="0.656" ry="0.656" transform="translate(140.597 185.064)" fill="#00c19c" stroke="#fff" stroke-miterlimit="10" stroke-width="0.33"/>
      <ellipse id="Ellisse_33377" data-name="Ellisse 33377" cx="0.656" cy="0.656" rx="0.656" ry="0.656" transform="translate(148.955 189.497)" fill="#00c19c" stroke="#fff" stroke-miterlimit="10" stroke-width="0.33"/>
      <ellipse id="Ellisse_33378" data-name="Ellisse 33378" cx="0.656" cy="0.656" rx="0.656" ry="0.656" transform="translate(156.783 194.804)" fill="#00c19c" stroke="#fff" stroke-miterlimit="10" stroke-width="0.33"/>
      <ellipse id="Ellisse_33379" data-name="Ellisse 33379" cx="0.656" cy="0.656" rx="0.656" ry="0.656" transform="translate(163.986 200.93)" fill="#00c19c" stroke="#fff" stroke-miterlimit="10" stroke-width="0.33"/>
      <ellipse id="Ellisse_33380" data-name="Ellisse 33380" cx="0.656" cy="0.656" rx="0.656" ry="0.656" transform="translate(170.494 207.79)" fill="#00c19c" stroke="#fff" stroke-miterlimit="10" stroke-width="0.33"/>
      <ellipse id="Ellisse_33381" data-name="Ellisse 33381" cx="0.656" cy="0.656" rx="0.656" ry="0.656" transform="translate(176.215 215.321)" fill="#00c19c" stroke="#fff" stroke-miterlimit="10" stroke-width="0.33"/>
      <ellipse id="Ellisse_33382" data-name="Ellisse 33382" cx="0.656" cy="0.656" rx="0.656" ry="0.656" transform="translate(181.092 223.429)" fill="#00c19c" stroke="#fff" stroke-miterlimit="10" stroke-width="0.33"/>
      <ellipse id="Ellisse_33383" data-name="Ellisse 33383" cx="0.656" cy="0.656" rx="0.656" ry="0.656" transform="translate(185.064 232.013)" fill="#00c19c" stroke="#fff" stroke-miterlimit="10" stroke-width="0.33"/>
      <ellipse id="Ellisse_33384" data-name="Ellisse 33384" cx="0.656" cy="0.656" rx="0.656" ry="0.656" transform="translate(188.085 240.972)" fill="#00c19c" stroke="#fff" stroke-miterlimit="10" stroke-width="0.33"/>
      <ellipse id="Ellisse_33385" data-name="Ellisse 33385" cx="0.656" cy="0.656" rx="0.656" ry="0.656" transform="translate(190.121 250.212)" fill="#00c19c" stroke="#fff" stroke-miterlimit="10" stroke-width="0.33"/>
      <ellipse id="Ellisse_33386" data-name="Ellisse 33386" cx="0.656" cy="0.656" rx="0.656" ry="0.656" transform="translate(191.144 259.608)" fill="orange" stroke="#fff" stroke-miterlimit="10" stroke-width="0.33"/>
      <ellipse id="Ellisse_33387" data-name="Ellisse 33387" cx="0.656" cy="0.656" rx="0.656" ry="0.656" transform="translate(233.652 256.526)" fill="#ff6c39" stroke="#fff" stroke-miterlimit="10" stroke-width="0.33"/>
      <g id="V018_Impero_mongolo" data-name="V018@Impero_mongolo" transform="translate(26.822 261.099)" style="isolation: isolate">
        <text id="Impero_mongolo" data-name="Impero mongolo" transform="translate(0 3)" fill="orange" font-size="3" font-family="ArialMT, Arial" style="isolation: isolate"><tspan x="0" y="0">Impero mongolo</tspan></text>
      </g>
      <g id="V018_Impero_mongolo_Adelma" data-name="V018@Impero_mongolo@Adelma" transform="translate(194.332 265.966)" style="isolation: isolate">
        <text id="Adelma" transform="translate(0.091 2.996) rotate(3.1)" fill="#00c19c" font-size="3" font-family="ArialMT, Arial" style="isolation: isolate"><tspan x="0" y="0">Adelma</tspan></text>
      </g>
      <g id="V018_Impero_mongolo_Aglaura" data-name="V018@Impero_mongolo@Aglaura" transform="translate(193.195 275.697)" style="isolation: isolate">
        <text id="Aglaura" transform="translate(0.272 2.96) rotate(9.31)" fill="#00c19c" font-size="3" font-family="ArialMT, Arial" style="isolation: isolate"><tspan x="0" y="0">Aglaura</tspan></text>
      </g>
      <g id="V018_Impero_mongolo_Anastasia" data-name="V018@Impero_mongolo@Anastasia" transform="translate(191.013 285.293)" style="isolation: isolate">
        <text id="Anastasia" transform="translate(0.45 2.891) rotate(15.52)" fill="#00c19c" font-size="3" font-family="ArialMT, Arial" style="isolation: isolate"><tspan x="0" y="0">Anastasia</tspan></text>
      </g>
      <g id="V018_Impero_mongolo_Andria" data-name="V018@Impero_mongolo@Andria" transform="translate(187.827 294.66)" style="isolation: isolate">
        <text id="Andria" transform="matrix(0.929, 0.37, -0.37, 0.929, 0.623, 2.787)" fill="#00c19c" font-size="3" font-family="ArialMT, Arial" style="isolation: isolate"><tspan x="0" y="0">Andria</tspan></text>
      </g>
      <g id="V018_Impero_mongolo_Argia" data-name="V018@Impero_mongolo@Argia" transform="translate(183.661 303.672)" style="isolation: isolate">
        <text id="Argia" transform="translate(0.788 2.651) rotate(27.93)" fill="#00c19c" font-size="3" font-family="ArialMT, Arial" style="isolation: isolate"><tspan x="0" y="0">Argia</tspan></text>
      </g>
      <g id="V018_Impero_mongolo_Armilla" data-name="V018@Impero_mongolo@Armilla" transform="translate(178.57 312.232)" style="isolation: isolate">
        <text id="Armilla" transform="translate(0.944 2.483) rotate(34.14)" fill="#00c19c" font-size="3" font-family="ArialMT, Arial" style="isolation: isolate"><tspan x="0" y="0">Armilla</tspan></text>
      </g>
      <g id="V018_Impero_mongolo_Bauci" data-name="V018@Impero_mongolo@Bauci" transform="translate(172.609 320.245)" style="isolation: isolate">
        <text id="Bauci" transform="translate(1.094 2.28) rotate(40.539)" fill="#00c19c" font-size="3" font-family="ArialMT, Arial" style="isolation: isolate"><tspan x="0" y="0">Bauci</tspan></text>
      </g>
      <g id="V018_Impero_mongolo_Berenice" data-name="V018@Impero_mongolo@Berenice" transform="translate(165.854 327.606)" style="isolation: isolate">
        <text id="Berenice" transform="matrix(0.688, 0.726, -0.726, 0.688, 1.221, 2.063)" fill="#00c19c" font-size="3" font-family="ArialMT, Arial" style="isolation: isolate"><tspan x="0" y="0">Berenice</tspan></text>
      </g>
      <g id="V018_Impero_mongolo_Bersabea" data-name="V018@Impero_mongolo@Bersabea" transform="translate(158.378 334.226)" style="isolation: isolate">
        <text id="Bersabea" transform="matrix(0.605, 0.796, -0.796, 0.605, 1.339, 1.815)" fill="#00c19c" font-size="3" font-family="ArialMT, Arial" style="isolation: isolate"><tspan x="0" y="0">Bersabea</tspan></text>
      </g>
      <g id="V018_Impero_mongolo_Cecilia" data-name="V018@Impero_mongolo@Cecilia" transform="translate(150.27 340.031)" style="isolation: isolate">
        <text id="Cecilia" transform="matrix(0.517, 0.856, -0.856, 0.517, 1.44, 1.552)" fill="#00c19c" font-size="3" font-family="ArialMT, Arial" style="isolation: isolate"><tspan x="0" y="0">Cecilia</tspan></text>
      </g>
      <g id="V018_Impero_mongolo_Clarice" data-name="V018@Impero_mongolo@Clarice" transform="translate(141.629 344.977)" style="isolation: isolate">
        <text id="Clarice" transform="translate(1.527 1.26) rotate(65.17)" fill="#00c19c" font-size="3" font-family="ArialMT, Arial" style="isolation: isolate"><tspan x="0" y="0">Clarice</tspan></text>
      </g>
      <g id="V018_Impero_mongolo_Cloe" data-name="V018@Impero_mongolo@Cloe" transform="translate(132.553 348.975)" style="isolation: isolate">
        <text id="Cloe" transform="matrix(0.319, 0.948, -0.948, 0.319, 1.594, 0.958)" fill="#00c19c" font-size="3" font-family="ArialMT, Arial" style="isolation: isolate"><tspan x="0" y="0">Cloe</tspan></text>
      </g>
      <g id="V018_Impero_mongolo_Despina" data-name="V018@Impero_mongolo@Despina" transform="translate(123.15 351.989)" style="isolation: isolate">
        <text id="Despina" transform="translate(1.643 0.645) rotate(77.59)" fill="#00c19c" font-size="3" font-family="ArialMT, Arial" style="isolation: isolate"><tspan x="0" y="0">Despina</tspan></text>
      </g>
      <g id="V018_Impero_mongolo_Diomira" data-name="V018@Impero_mongolo@Diomira" transform="translate(113.522 353.974)" style="isolation: isolate">
        <text id="Diomira" transform="translate(1.673 0.325) rotate(83.79)" fill="#00c19c" font-size="3" font-family="ArialMT, Arial" style="isolation: isolate"><tspan x="0" y="0">Diomira</tspan></text>
      </g>
      <g id="V018_Impero_mongolo_Dorotea" data-name="V018@Impero_mongolo@Dorotea" transform="translate(103.793 354.926)" style="isolation: isolate">
        <text id="Dorotea" transform="translate(1.682) rotate(90)" fill="#00c19c" font-size="3" font-family="ArialMT, Arial" style="isolation: isolate"><tspan x="0" y="0">Dorotea</tspan></text>
      </g>
      <g id="V018_Impero_mongolo_Ersilia" data-name="V018@Impero_mongolo@Ersilia" transform="translate(89.886 353.109)" style="isolation: isolate">
        <text id="Ersilia" transform="translate(2.982 11.186) rotate(-83.79)" fill="#00c19c" font-size="3" font-family="ArialMT, Arial" style="isolation: isolate"><tspan x="0" y="0">Ersilia</tspan></text>
      </g>
      <g id="V018_Impero_mongolo_Eudossia" data-name="V018@Impero_mongolo@Eudossia" transform="translate(78.494 349.299)" style="isolation: isolate">
        <text id="Eudossia" transform="translate(2.933 16.653) rotate(-77.905)" fill="#00c19c" font-size="3" font-family="ArialMT, Arial" style="isolation: isolate"><tspan x="0" y="0">Eudossia</tspan></text>
      </g>
      <g id="V018_Impero_mongolo_Eufemia" data-name="V018@Impero_mongolo@Eufemia" transform="translate(68.177 347.501)" style="isolation: isolate">
        <text id="Eufemia" transform="matrix(0.319, -0.948, 0.948, 0.319, 2.843, 14.27)" fill="#00c19c" font-size="3" font-family="ArialMT, Arial" style="isolation: isolate"><tspan x="0" y="0">Eufemia</tspan></text>
      </g>
      <g id="V018_Impero_mongolo_Eusapia" data-name="V018@Impero_mongolo@Eusapia" transform="translate(58.087 343.434)" style="isolation: isolate">
        <text id="Eusapia" transform="translate(2.723 14.008) rotate(-65.17)" fill="#00c19c" font-size="3" font-family="ArialMT, Arial" style="isolation: isolate"><tspan x="0" y="0">Eusapia</tspan></text>
      </g>
      <g id="V018_Impero_mongolo_Eutropia" data-name="V018@Impero_mongolo@Eutropia" transform="translate(48.363 338.174)" style="isolation: isolate">
        <text id="Eutropia" transform="matrix(0.517, -0.856, 0.856, 0.517, 2.567, 14.241)" fill="#00c19c" font-size="3" font-family="ArialMT, Arial" style="isolation: isolate"><tspan x="0" y="0">Eutropia</tspan></text>
      </g>
      <g id="V018_Impero_mongolo_Fedora" data-name="V018@Impero_mongolo@Fedora" transform="translate(40.268 333.205)" style="isolation: isolate">
        <text id="Fedora" transform="matrix(0.605, -0.796, 0.796, 0.605, 2.388, 11.756)" fill="#00c19c" font-size="3" font-family="ArialMT, Arial" style="isolation: isolate"><tspan x="0" y="0">Fedora</tspan></text>
      </g>
      <g id="V018_Impero_mongolo_Fillide" data-name="V018@Impero_mongolo@Fillide" transform="translate(33.18 327.322)" style="isolation: isolate">
        <text id="Fillide" transform="translate(2.18 9.434) rotate(-46.614)" fill="#00c19c" font-size="3" font-family="ArialMT, Arial" style="isolation: isolate"><tspan x="0" y="0">Fillide</tspan></text>
      </g>
      <g id="V018_Impero_mongolo_Ipazia" data-name="V018@Impero_mongolo@Ipazia" transform="translate(25.948 320.074)" style="isolation: isolate">
        <text id="Ipazia" transform="translate(1.95 8.874) rotate(-40.539)" fill="#00c19c" font-size="3" font-family="ArialMT, Arial" style="isolation: isolate"><tspan x="0" y="0">Ipazia</tspan></text>
      </g>
      <g id="V018_Impero_mongolo_Irene" data-name="V018@Impero_mongolo@Irene" transform="translate(20.582 312.417)" style="isolation: isolate">
        <text id="Irene" transform="translate(1.684 7.301) rotate(-34.14)" fill="#00c19c" font-size="3" font-family="ArialMT, Arial" style="isolation: isolate"><tspan x="0" y="0">Irene</tspan></text>
      </g>
      <g id="V018_Impero_mongolo_Isaura" data-name="V018@Impero_mongolo@Isaura" transform="translate(14.277 303.306)" style="isolation: isolate">
        <text id="Isaura" transform="translate(1.413 7.793) rotate(-28.106)" fill="#00c19c" font-size="3" font-family="ArialMT, Arial" style="isolation: isolate"><tspan x="0" y="0">Isaura</tspan></text>
      </g>
      <g id="V018_Impero_mongolo_Isidora" data-name="V018@Impero_mongolo@Isidora" transform="translate(9.583 294.316)" style="isolation: isolate">
        <text id="Isidora" transform="matrix(0.929, -0.37, 0.37, 0.929, 1.11, 7.119)" fill="#00c19c" font-size="3" font-family="ArialMT, Arial" style="isolation: isolate"><tspan x="0" y="0">Isidora</tspan></text>
      </g>
      <g id="V018_Impero_mongolo_Lalage" data-name="V018@Impero_mongolo@Lalage" transform="translate(6.482 285.007)" style="isolation: isolate">
        <text id="Lalage" transform="translate(0.812 6.057) rotate(-15.709)" fill="#00c19c" font-size="3" font-family="ArialMT, Arial" style="isolation: isolate"><tspan x="0" y="0">Lalage</tspan></text>
      </g>
      <g id="V018_Impero_mongolo_Laudomia" data-name="V018@Impero_mongolo@Laudomia" transform="translate(1.031 275.237)" style="isolation: isolate">
        <text id="Laudomia" transform="translate(0.485 5.738) rotate(-9.31)" fill="#00c19c" font-size="3" font-family="ArialMT, Arial" style="isolation: isolate"><tspan x="0" y="0">Laudomia</tspan></text>
      </g>
      <g id="V018_Impero_mongolo_Leandra" data-name="V018@Impero_mongolo@Leandra" transform="translate(2.091 265.886)" style="isolation: isolate">
        <text id="Leandra" transform="translate(0.162 3.755) rotate(-3.1)" fill="#00c19c" font-size="3" font-family="ArialMT, Arial" style="isolation: isolate"><tspan x="0" y="0">Leandra</tspan></text>
      </g>
      <g id="V018_Impero_mongolo_Leonia" data-name="V018@Impero_mongolo@Leonia" transform="translate(3.985 255.65)" style="isolation: isolate">
        <text id="Leonia" transform="translate(0.091 2.996) rotate(3.1)" fill="#00c19c" font-size="3" font-family="ArialMT, Arial" style="isolation: isolate"><tspan x="0" y="0">Leonia</tspan></text>
      </g>
      <g id="V018_Impero_mongolo_Marozia" data-name="V018@Impero_mongolo@Marozia" transform="translate(3.666 244.621)" style="isolation: isolate">
        <text id="Marozia" transform="translate(0.272 2.96) rotate(9.31)" fill="#00c19c" font-size="3" font-family="ArialMT, Arial" style="isolation: isolate"><tspan x="0" y="0">Marozia</tspan></text>
      </g>
      <g id="V018_Impero_mongolo_Maurilia" data-name="V018@Impero_mongolo@Maurilia" transform="translate(6.094 233.954)" style="isolation: isolate">
        <text id="Maurilia" transform="translate(0.456 2.888) rotate(15.709)" fill="#00c19c" font-size="3" font-family="ArialMT, Arial" style="isolation: isolate"><tspan x="0" y="0">Maurilia</tspan></text>
      </g>
      <g id="V018_Impero_mongolo_Melania" data-name="V018@Impero_mongolo@Melania" transform="translate(9.536 223.62)" style="isolation: isolate">
        <text id="Melania" transform="matrix(0.929, 0.37, -0.37, 0.929, 0.623, 2.787)" fill="#00c19c" font-size="3" font-family="ArialMT, Arial" style="isolation: isolate"><tspan x="0" y="0">Melania</tspan></text>
      </g>
      <g id="V018_Impero_mongolo_Moriana" data-name="V018@Impero_mongolo@Moriana" transform="translate(13.843 213.65)" style="isolation: isolate">
        <text id="Moriana" transform="translate(0.793 2.646) rotate(28.106)" fill="#00c19c" font-size="3" font-family="ArialMT, Arial" style="isolation: isolate"><tspan x="0" y="0">Moriana</tspan></text>
      </g>
      <g id="V018_Impero_mongolo_Olinda" data-name="V018@Impero_mongolo@Olinda" transform="translate(21.031 205.419)" style="isolation: isolate">
        <text id="Olinda" transform="translate(0.944 2.483) rotate(34.14)" fill="#00c19c" font-size="3" font-family="ArialMT, Arial" style="isolation: isolate"><tspan x="0" y="0">Olinda</tspan></text>
      </g>
      <g id="V018_Impero_mongolo_Olivia" data-name="V018@Impero_mongolo@Olivia" transform="translate(28.305 197.676)" style="isolation: isolate">
        <text id="Olivia" transform="translate(1.094 2.28) rotate(40.539)" fill="#00c19c" font-size="3" font-family="ArialMT, Arial" style="isolation: isolate"><tspan x="0" y="0">Olivia</tspan></text>
      </g>
      <g id="V018_Impero_mongolo_Ottavia" data-name="V018@Impero_mongolo@Ottavia" transform="translate(34.465 188.9)" style="isolation: isolate">
        <text id="Ottavia" transform="translate(1.223 2.061) rotate(46.614)" fill="#00c19c" font-size="3" font-family="ArialMT, Arial" style="isolation: isolate"><tspan x="0" y="0">Ottavia</tspan></text>
      </g>
      <g id="V018_Impero_mongolo_Pentesilea" data-name="V018@Impero_mongolo@Pentesilea" transform="translate(40.404 179.035)" style="isolation: isolate">
        <text id="Pentesilea" transform="matrix(0.605, 0.796, -0.796, 0.605, 1.339, 1.815)" fill="#00c19c" font-size="3" font-family="ArialMT, Arial" style="isolation: isolate"><tspan x="0" y="0">Pentesilea</tspan></text>
      </g>
      <g id="V018_Impero_mongolo_Perinzia" data-name="V018@Impero_mongolo@Perinzia" transform="translate(51.182 175.343)" style="isolation: isolate">
        <text id="Perinzia" transform="matrix(0.517, 0.856, -0.856, 0.517, 1.44, 1.552)" fill="#00c19c" font-size="3" font-family="ArialMT, Arial" style="isolation: isolate"><tspan x="0" y="0">Perinzia</tspan></text>
      </g>
      <g id="V018_Impero_mongolo_Pirra" data-name="V018@Impero_mongolo@Pirra" transform="translate(62.551 174.053)" style="isolation: isolate">
        <text id="Pirra" transform="translate(1.527 1.26) rotate(65.17)" fill="#00c19c" font-size="3" font-family="ArialMT, Arial" style="isolation: isolate"><tspan x="0" y="0">Pirra</tspan></text>
      </g>
      <g id="V018_Impero_mongolo_Procopia" data-name="V018@Impero_mongolo@Procopia" transform="translate(70.901 166.01)" style="isolation: isolate">
        <text id="Procopia" transform="matrix(0.319, 0.948, -0.948, 0.319, 1.594, 0.958)" fill="#00c19c" font-size="3" font-family="ArialMT, Arial" style="isolation: isolate"><tspan x="0" y="0">Procopia</tspan></text>
      </g>
      <g id="V018_Impero_mongolo_Quinsai" data-name="V018@Impero_mongolo@Quinsai" transform="translate(81.952 164.854)" style="isolation: isolate">
        <text id="Quinsai" transform="translate(1.645 0.629) rotate(77.905)" fill="#00c19c" font-size="3" font-family="ArialMT, Arial" style="isolation: isolate"><tspan x="0" y="0">Quinsai</tspan></text>
      </g>
      <g id="V018_Impero_mongolo_Raissa" data-name="V018@Impero_mongolo@Raissa" transform="translate(92.896 164.328)" style="isolation: isolate">
        <text id="Raissa" transform="translate(1.673 0.325) rotate(83.79)" fill="#00c19c" font-size="3" font-family="ArialMT, Arial" style="isolation: isolate"><tspan x="0" y="0">Raissa</tspan></text>
      </g>
      <g id="V018_Impero_mongolo_Smeraldina" data-name="V018@Impero_mongolo@Smeraldina" transform="translate(100.672 155.557)" style="isolation: isolate">
        <text id="Smeraldina" transform="translate(3 19.51) rotate(-90)" fill="#00c19c" font-size="3" font-family="ArialMT, Arial" style="isolation: isolate"><tspan x="0" y="0">Smeraldina</tspan></text>
      </g>
      <g id="V018_Impero_mongolo_Sofronia" data-name="V018@Impero_mongolo@Sofronia" transform="translate(110.418 160.428)" style="isolation: isolate">
        <text id="Sofronia" transform="translate(2.982 15.065) rotate(-83.79)" fill="#00c19c" font-size="3" font-family="ArialMT, Arial" style="isolation: isolate"><tspan x="0" y="0">Sofronia</tspan></text>
      </g>
      <g id="V018_Impero_mongolo_Tamara" data-name="V018@Impero_mongolo@Tamara" transform="translate(120.089 164.14)" style="isolation: isolate">
        <text id="Tamara" transform="translate(2.933 12.838) rotate(-77.905)" fill="#00c19c" font-size="3" font-family="ArialMT, Arial" style="isolation: isolate"><tspan x="0" y="0" letter-spacing="-0.11em">T</tspan><tspan y="0">amara</tspan></text>
      </g>
      <g id="V018_Impero_mongolo_Tecla" data-name="V018@Impero_mongolo@Tecla" transform="translate(129.595 170.392)" style="isolation: isolate">
        <text id="Tecla" transform="matrix(0.319, -0.948, 0.948, 0.319, 2.843, 9.093)" fill="#00c19c" font-size="3" font-family="ArialMT, Arial" style="isolation: isolate"><tspan x="0" y="0" letter-spacing="-0.11em">T</tspan><tspan y="0">ecla</tspan></text>
      </g>
      <g id="V018_Impero_mongolo_Teodora" data-name="V018@Impero_mongolo@Teodora" transform="translate(138.796 168.991)" style="isolation: isolate">
        <text id="Teodora" transform="translate(2.723 14.008) rotate(-65.17)" fill="#00c19c" font-size="3" font-family="ArialMT, Arial" style="isolation: isolate"><tspan x="0" y="0" letter-spacing="-0.11em">T</tspan><tspan y="0">eodora</tspan></text>
      </g>
      <g id="V018_Impero_mongolo_Trude" data-name="V018@Impero_mongolo@Trude" transform="translate(147.598 177.236)" style="isolation: isolate">
        <text id="Trude" transform="matrix(0.517, -0.856, 0.856, 0.517, 2.567, 10.234)" fill="#00c19c" font-size="3" font-family="ArialMT, Arial" style="isolation: isolate"><tspan x="0" y="0" letter-spacing="-0.04em">T</tspan><tspan y="0">rude</tspan></text>
      </g>
      <g id="V018_Impero_mongolo_Valdrada" data-name="V018@Impero_mongolo@Valdrada" transform="translate(155.893 179.241)" style="isolation: isolate">
        <text id="Valdrada" transform="matrix(0.605, -0.796, 0.796, 0.605, 2.388, 13.62)" fill="#00c19c" font-size="3" font-family="ArialMT, Arial" style="isolation: isolate"><tspan x="0" y="0" letter-spacing="-0.07em">V</tspan><tspan y="0">aldrada</tspan></text>
      </g>
      <g id="V018_Impero_mongolo_Zaira" data-name="V018@Impero_mongolo@Zaira" transform="translate(163.585 190.786)" style="isolation: isolate">
        <text id="Zaira" transform="translate(2.18 8.299) rotate(-46.614)" fill="#00c19c" font-size="3" font-family="ArialMT, Arial" style="isolation: isolate"><tspan x="0" y="0">Zaira</tspan></text>
      </g>
      <g id="V018_Impero_mongolo_Zemrude" data-name="V018@Impero_mongolo@Zemrude" transform="translate(170.58 193.664)" style="isolation: isolate">
        <text id="Zemrude" transform="translate(1.95 12.425) rotate(-40.539)" fill="#00c19c" font-size="3" font-family="ArialMT, Arial" style="isolation: isolate"><tspan x="0" y="0">Zemrude</tspan></text>
      </g>
      <g id="V018_Impero_mongolo_Zenobia" data-name="V018@Impero_mongolo@Zenobia" transform="translate(176.826 203.419)" style="isolation: isolate">
        <text id="Zenobia" transform="translate(1.684 10.367) rotate(-34.14)" fill="#00c19c" font-size="3" font-family="ArialMT, Arial" style="isolation: isolate"><tspan x="0" y="0">Zenobia</tspan></text>
      </g>
      <g id="V018_Impero_mongolo_Zirma" data-name="V018@Impero_mongolo@Zirma" transform="translate(182.196 214.653)" style="isolation: isolate">
        <text id="Zirma" transform="translate(1.413 7.426) rotate(-28.106)" fill="#00c19c" font-size="3" font-family="ArialMT, Arial" style="isolation: isolate"><tspan x="0" y="0">Zirma</tspan></text>
      </g>
      <g id="V018_Impero_mongolo_Zobeide" data-name="V018@Impero_mongolo@Zobeide" transform="translate(186.672 222.885)" style="isolation: isolate">
        <text id="Zobeide" transform="matrix(0.929, -0.37, 0.37, 0.929, 1.11, 7.985)" fill="#00c19c" font-size="3" font-family="ArialMT, Arial" style="isolation: isolate"><tspan x="0" y="0">Zobeide</tspan></text>
      </g>
      <g id="V018_Impero_mongolo_Zoe" data-name="V018@Impero_mongolo@Zoe" transform="translate(190.173 235.275)" style="isolation: isolate">
        <text id="Zoe" transform="translate(0.812 4.79) rotate(-15.709)" fill="#00c19c" font-size="3" font-family="ArialMT, Arial" style="isolation: isolate"><tspan x="0" y="0">Zoe</tspan></text>
      </g>
      <g id="V018_Impero_mongolo_Zora" data-name="V018@Impero_mongolo@Zora" transform="translate(192.69 245.333)" style="isolation: isolate">
        <text id="Zora" transform="translate(0.485 4.223) rotate(-9.31)" fill="#00c19c" font-size="3" font-family="ArialMT, Arial" style="isolation: isolate"><tspan x="0" y="0">Zora</tspan></text>
      </g>
      <g id="V018_Impero_mongolo_reggia_di_Kemenfù" data-name="V018@Impero_mongolo@reggia_di_Kemenfù" transform="translate(194.164 254.504)" style="isolation: isolate">
        <text id="reggia_di_Kemenfù" data-name="reggia di Kemenfù" transform="translate(0.162 4.726) rotate(-3.1)" fill="orange" font-size="3" font-family="ArialMT, Arial" style="isolation: isolate"><tspan x="0" y="0">reggia di Kemenfù</tspan></text>
      </g>
      <g id="V018_Impero_mongolo_reggia_di_Kemenfù_giardino" data-name="V018@Impero_mongolo@reggia_di_Kemenfù@giardino" transform="translate(236.68 253.173)" style="isolation: isolate">
        <text id="giardino" transform="translate(0.162 3.755) rotate(-3.1)" fill="#ff6c39" font-size="3" font-family="ArialMT, Arial" style="isolation: isolate"><tspan x="0" y="0">giardino</tspan></text>
      </g>
      <text id="Le_città_invisibili" data-name="Le città invisibili" transform="translate(102.135 66.772)" fill="#1d1d1b" font-size="9" font-family="HKGrotesk-Regular, HK Grotesk"><tspan x="-32.517" y="0">Le città invisibili</tspan></text>
      <text id="Le_città_invisibili-2" data-name="Le città invisibili" transform="translate(105.135 267.748)" fill="#1d1d1b" font-size="9" font-family="HKGrotesk-Regular, HK Grotesk"><tspan x="-32.517" y="0">Le città invisibili</tspan></text>
    </g>
    <g id="Raggruppa_24059" data-name="Raggruppa 24059">
      <text id="Hierarchy_of_the_locations_LE_MEDUSE" data-name="Hierarchy of the locations
LE MEDUSE" transform="translate(1.967 138.059)" fill="#1d1d1b" font-size="10" font-family="HKGrotesk-MediumItalic, HK Grotesk" font-weight="500" font-style="italic"><tspan letter-spacing="-0.01em"><tspan x="0" y="0">Hierarchy of the locations</tspan></tspan><tspan x="0" y="11">LE MEDUSE</tspan></text>
      <text id="First_level" data-name="First level" transform="translate(1.967 10)" fill="#1d1d1b" font-size="10" font-family="HKGrotesk-MediumItalic, HK Grotesk" font-weight="500" font-style="italic" letter-spacing="-0.01em"><tspan x="0" y="0">First level</tspan></text>
    </g>
  </g>
</svg>
