<?xml version="1.0" encoding="utf-8"?>
<!-- Generator: Adobe Illustrator 25.1.0, SVG Export Plug-In . SVG Version: 6.00 Build 0)  -->
<svg version="1.1" id="Livello_1" xmlns="http://www.w3.org/2000/svg" xmlns:xlink="http://www.w3.org/1999/xlink" x="0px" y="0px"
	 viewBox="0 0 600 168" enable-background="new 0 0 600 168" xml:space="preserve">
<g>
	<defs>
		<rect id="SVGID_1_" y="0" width="600" height="168"/>
	</defs>
	<clipPath id="SVGID_2_">
		<use xlink:href="#SVGID_1_"  overflow="visible"/>
	</clipPath>
	<g id="zoom-04" clip-path="url(#SVGID_2_)">
		<g id="zoom_04" transform="translate(18.7 -13.79)">
			<g id="Layer_1">
				<path id="Tracciato_148051" fill="none" stroke="#000000" stroke-width="0.5" stroke-miterlimit="10" d="M325.716,77.064V34.993
					c-0.02942-2.98827,2.3692-5.43459,5.35745-5.464c0.03552-0.00035,0.07104-0.00035,0.10654,0h3.60602"/>
				<path id="Tracciato_148079" fill="none" stroke="#000000" stroke-width="0.38" stroke-miterlimit="10" d="M323.64999,82.59h9.69
					c4.16196-0.0055,7.53448-3.37805,7.54001-7.54V62.78"/>
			</g>
			<g id="Layer_5">
				
					<line id="Linea_7827" fill="none" stroke="#000000" stroke-width="0.38" stroke-miterlimit="10" x1="103.83" y1="87.86" x2="103.83" y2="62.59"/>
				<path id="Tracciato_148075" fill="none" stroke="#000000" stroke-width="0.38" stroke-miterlimit="10" d="M286.53,108.15
					v28.74999c0,4.16423,3.37579,7.53999,7.54001,7.53999l0,0h2.56"/>
				<path id="Tracciato_148076" fill="none" stroke="#000000" stroke-width="0.38" stroke-miterlimit="10" d="M320.34,112.8V61.51
					c0-2.70067-2.18933-4.89-4.88998-4.89001c-0.00333,0-0.00668,0-0.01001,0.00001l0,0"/>
				<path id="Tracciato_148077" fill="none" stroke="#000000" stroke-width="0.38" stroke-miterlimit="10" d="M283.57001,85.44H274
					c-4.16422,0.01104-7.53104,3.39574-7.51999,7.55996c0,0.00002,0,0.00002,0,0.00004v51.49001"/>
				<path id="Tracciato_148078" fill="none" stroke="#000000" stroke-width="0.38" stroke-miterlimit="10" d="M283.07001,102.91
					L283.07001,102.91c-2.97128-0.00001-5.38,2.40869-5.38,5.37999c0,0.00333,0,0.00668,0,0.01001v47.61"/>
			</g>
			<g id="Layer_3">
				<g id="Raggruppa_24058" opacity="0.8">
					
						<line id="Linea_7828" fill="none" stroke="#000000" stroke-width="0.38" stroke-miterlimit="10" stroke-dasharray="4.56,4.56" x1="-183.7" y1="99" x2="1464.16003" y2="99"/>
				</g>
			</g>
			<g id="new-circles">
				
					<circle id="circle" fill="#FFFFFF" stroke="#000000" stroke-width="0.38" stroke-miterlimit="10" cx="30.07" cy="107.88" r="4.08"/>
				
					<circle id="circle-2" fill="#FFFFFF" stroke="#000000" stroke-width="0.38" stroke-miterlimit="10" cx="30.07" cy="98.68" r="3.62"/>
				
					<circle id="circle-3" fill="#FFFFFF" stroke="#000000" stroke-width="0.38" stroke-miterlimit="10" cx="30.07" cy="89.95" r="3.6"/>
				
					<circle id="circle-4" fill="#FFFFFF" stroke="#000000" stroke-width="0.38" stroke-miterlimit="10" cx="66.78" cy="104.32" r="3.76"/>
				
					<circle id="circle-5" fill="#FFFFFF" stroke="#000000" stroke-width="0.38" stroke-miterlimit="10" cx="66.78" cy="95.08" r="3.97"/>
				
					<circle id="circle-6" fill="#FFFFFF" stroke="#000000" stroke-width="0.38" stroke-miterlimit="10" cx="103.48" cy="100.18" r="3.25"/>
				
					<circle id="circle-7" fill="#FFFFFF" stroke="#000000" stroke-width="0.38" stroke-miterlimit="10" cx="103.48" cy="108.35" r="3.42"/>
				
					<circle id="Isabella_e_Fioravanti" fill="#C2FAEF" stroke="#000000" stroke-width="0.38" stroke-miterlimit="10" cx="103.48" cy="91.6" r="3.82"/>
				
					<circle id="circle-8" fill="#FFFFFF" stroke="#000000" stroke-width="0.38" stroke-miterlimit="10" cx="140.19" cy="104.06001" r="3.66"/>
				
					<circle id="circle-9" fill="#FFFFFF" stroke="#000000" stroke-width="0.38" stroke-miterlimit="10" cx="140.18999" cy="95.12" r="3.76"/>
				
					<circle id="circle-10" fill="#FFFFFF" stroke="#000000" stroke-width="0.38" stroke-miterlimit="10" cx="176.89" cy="99.61" r="3.63"/>
				
					<circle id="circle-11" fill="#FFFFFF" stroke="#000000" stroke-width="0.38" stroke-miterlimit="10" cx="176.89" cy="108.74" r="4"/>
				
					<circle id="circle-12" fill="#FFFFFF" stroke="#000000" stroke-width="0.38" stroke-miterlimit="10" cx="176.89001" cy="90.41" r="4.07"/>
				
					<circle id="circle-13" fill="#FFFFFF" stroke="#000000" stroke-width="0.38" stroke-miterlimit="10" cx="213.59999" cy="99.5" r="3.87"/>
				
					<circle id="circle-14" fill="#FFFFFF" stroke="#000000" stroke-width="0.38" stroke-miterlimit="10" cx="250.3" cy="103.82" r="3.69"/>
				
					<circle id="circle-15" fill="#FFFFFF" stroke="#000000" stroke-width="0.38" stroke-miterlimit="10" cx="250.3" cy="95.06001" r="3.58"/>
				
					<circle id="circle-16" fill="#FFFFFF" stroke="#000000" stroke-width="0.38" stroke-miterlimit="10" cx="250.3" cy="112.64" r="3.64"/>
				
					<circle id="circle-17" fill="#FFFFFF" stroke="#000000" stroke-width="0.38" stroke-miterlimit="10" cx="250.3" cy="86.32001" r="3.66"/>
				
					<circle id="circle-18" fill="#FFFFFF" stroke="#000000" stroke-width="0.38" stroke-miterlimit="10" cx="287.00998" cy="93.93" r="3.55"/>
				
					<circle id="La_storia_di_Kim-Ghi-U" fill="#BDF8EC" stroke="#000000" stroke-width="0.38" stroke-miterlimit="10" cx="287.01001" cy="102.91" r="3.94"/>
				
					<circle id="Un_paese_disgraziato" fill="#C2FAEF" stroke="#000000" stroke-width="0.38" stroke-miterlimit="10" cx="287.01001" cy="85.44" r="3.44"/>
				
					<circle id="Il_generale_in_biblioteca" fill="#C2FAEF" stroke="#000000" stroke-width="0.38" stroke-miterlimit="10" cx="287.01001" cy="112.25" r="3.89"/>
				
					<circle id="circle-19" fill="#FFFFFF" stroke="#000000" stroke-width="0.38" stroke-miterlimit="10" cx="327.94998" cy="95.66" r="3.9"/>
				
					<circle id="circle-20" fill="#FFFFFF" stroke="#000000" stroke-width="0.38" stroke-miterlimit="10" cx="319.90002" cy="91.35" r="3.7"/>
				
					<circle id="Libertà_Libertà_" fill="#BDF8EC" stroke="#000000" stroke-width="0.38" stroke-miterlimit="10" cx="319.5" cy="116.46" r="3.34"/>
				
					<circle id="I_mozzatori_di_nasi" fill="#C2FAEF" stroke="#000000" stroke-width="0.38" stroke-miterlimit="10" cx="326.09" cy="76.77" r="3.29"/>
				
					<circle id="circle-21" fill="#FFFFFF" stroke="#000000" stroke-width="0.38" stroke-miterlimit="10" cx="326.73999" cy="112.51" r="3.37"/>
				
					<circle id="circle-22" fill="#FFFFFF" stroke="#000000" stroke-width="0.38" stroke-miterlimit="10" cx="327.03" cy="104.33" r="3.3"/>
				
					<circle id="Lo_jus_primae_noctis" fill="#C2FAEF" stroke="#000000" stroke-width="0.38" stroke-miterlimit="10" cx="320.07001" cy="82.59" r="3.57"/>
				
					<circle id="circle-23" fill="#FFFFFF" stroke="#000000" stroke-width="0.38" stroke-miterlimit="10" cx="326.58002" cy="120.89" r="3.51"/>
				
					<circle id="circle-24" fill="#FFFFFF" stroke="#000000" stroke-width="0.38" stroke-miterlimit="10" cx="327.20999" cy="86.99001" r="3.3"/>
				
					<circle id="circle-25" fill="#FFFFFF" stroke="#000000" stroke-width="0.38" stroke-miterlimit="10" cx="320.28" cy="99.81001" r="3.3"/>
				
					<circle id="circle-26" fill="#FFFFFF" stroke="#000000" stroke-width="0.38" stroke-miterlimit="10" cx="319.59" cy="108.10999" r="3.52"/>
				
					<circle id="circle-27" fill="#FFFFFF" stroke="#000000" stroke-width="0.38" stroke-miterlimit="10" cx="442.04999" cy="109.08" r="3.75"/>
				
					<circle id="circle-28" fill="#FFFFFF" stroke="#000000" stroke-width="0.38" stroke-miterlimit="10" cx="470.54001" cy="108" r="3.69"/>
				
					<circle id="circle-29" fill="#FFFFFF" stroke="#000000" stroke-width="0.38" stroke-miterlimit="10" cx="470.53998" cy="99.2" r="3.61"/>
				
					<circle id="circle-30" fill="#FFFFFF" stroke="#000000" stroke-width="0.38" stroke-miterlimit="10" cx="470.54001" cy="90.57" r="3.51"/>
				<g id="swarm-raccolta_romanzo">
					<g id="circles">
						
							<circle id="circle-31" fill="#FFFFFF" stroke="#000000" stroke-width="0.38" stroke-miterlimit="10" cx="167.89" cy="99.69" r="4.48"/>
						
							<circle id="circle-32" fill="#FFFFFF" stroke="#000000" stroke-width="0.38" stroke-miterlimit="10" cx="236.73999" cy="100.18999" r="9.56"/>
						
							<circle id="circle-33" fill="#FFFFFF" stroke="#000000" stroke-width="0.38" stroke-miterlimit="10" cx="423.76001" cy="94.02" r="18.47"/>
					</g>
				</g>
			</g>
		</g>
		<g enable-background="new    ">
			<path d="M77.92725,35.43134h0.70996v6.96582h-0.70996V35.43134z"/>
			<path d="M80.15771,41.18817l0.57959-0.25977c0.17969,0.50977,0.65967,0.93945,1.4292,0.93945
				c0.66943,0,1.09961-0.33008,1.09961-0.84961c0-1.30957-2.83887-0.49023-2.83887-2.23926
				c0-0.85938,0.69971-1.38867,1.68945-1.38867c0.78955,0,1.4292,0.3291,1.76904,1.0293l-0.5498,0.2998
				c-0.23975-0.44043-0.62988-0.71973-1.23926-0.71973c-0.60986,0-0.99951,0.25-0.99951,0.67969
				c0,1.16895,2.84814,0.42969,2.84814,2.29883c0,0.99902-0.81934,1.49902-1.76855,1.49902
				C81.20703,42.47723,80.41748,41.97723,80.15771,41.18817z"/>
			<path d="M88.91553,39.3288v3.06836h-0.62988l-0.04004-0.75977c-0.38965,0.5498-0.98926,0.83984-1.76904,0.83984
				c-1.06934,0-1.69873-0.55957-1.69873-1.50977c0-0.49902,0.19971-0.87891,0.55957-1.09863
				c0.37988-0.21973,0.90967-0.31055,1.87891-0.31055h1.00928V39.3288c0-0.85938-0.44971-1.3291-1.2793-1.3291
				c-0.61963,0-1.09912,0.26953-1.49902,0.81934l-0.49951-0.41992c0.5293-0.68945,1.16895-1.00879,2.00879-1.00879
				C88.1958,37.39032,88.91553,38.0993,88.91553,39.3288z M88.22559,40.18817v-0.06934h-0.94922
				c-0.90967,0-1.29932,0.05957-1.53906,0.24902c-0.18018,0.14062-0.27002,0.36035-0.27002,0.63965
				c0,0.5498,0.46973,0.90039,1.20947,0.90039C87.62598,41.9079,88.22559,41.23798,88.22559,40.18817z"/>
			<path d="M95.10498,39.92841c0,1.46973-0.74951,2.54883-2.18896,2.54883c-0.71924,0-1.26904-0.28027-1.62891-0.73926v0.65918
				h-0.68945v-6.96582h0.68945v2.69824c0.36963-0.47949,0.92969-0.75,1.62891-0.75
				C94.28564,37.37958,95.10498,38.38934,95.10498,39.92841z M94.41553,39.92841c0-1.16895-0.59961-1.93848-1.59912-1.93848
				c-0.98975,0-1.58936,0.76953-1.58936,1.93848c0,1.11914,0.5498,1.93945,1.58936,1.93945
				C93.86572,41.86786,94.41553,41.04755,94.41553,39.92841z"/>
			<path d="M100.43506,40.11884h-3.60791c0.02002,1.0791,0.61963,1.72852,1.58936,1.72852
				c0.53955,0,0.96924-0.13965,1.41895-0.61914l0.47998,0.41895c-0.57959,0.61035-1.14941,0.83008-1.90918,0.83008
				c-1.49902,0-2.26855-1.11914-2.26855-2.51855c0-1.38965,0.75977-2.56836,2.18896-2.56836
				c1.50879,0,2.13867,1.17871,2.13867,2.29785C100.46533,39.8288,100.45508,39.99872,100.43506,40.11884z M96.82715,39.53876
				h2.97852c0-0.02051-0.01025-0.07031-0.01025-0.16016c-0.0498-0.7998-0.55957-1.40918-1.46875-1.40918
				C97.43701,37.96942,96.88721,38.66962,96.82715,39.53876z"/>
			<path d="M101.81738,41.32782v-5.89648h0.68945v5.85645c0,0.33984,0.12012,0.55957,0.44971,0.55957
				c0.1499,0,0.31982-0.04004,0.46973-0.08984l0.01025,0.58984c-0.20996,0.06934-0.45996,0.12988-0.67969,0.12988
				C102.18701,42.47723,101.81738,42.09735,101.81738,41.32782z"/>
			<path d="M104.51709,41.32782v-5.89648h0.68945v5.85645c0,0.33984,0.12012,0.55957,0.44971,0.55957
				c0.1499,0,0.31982-0.04004,0.46973-0.08984l0.01025,0.58984c-0.20996,0.06934-0.45996,0.12988-0.67969,0.12988
				C104.88672,42.47723,104.51709,42.09735,104.51709,41.32782z"/>
			<path d="M110.92529,39.3288v3.06836h-0.62988l-0.04004-0.75977c-0.38965,0.5498-0.98926,0.83984-1.76904,0.83984
				c-1.06934,0-1.69873-0.55957-1.69873-1.50977c0-0.49902,0.19971-0.87891,0.55957-1.09863
				c0.37988-0.21973,0.90967-0.31055,1.87891-0.31055h1.00928V39.3288c0-0.85938-0.44971-1.3291-1.2793-1.3291
				c-0.61963,0-1.09912,0.26953-1.49902,0.81934l-0.49951-0.41992c0.5293-0.68945,1.16895-1.00879,2.00879-1.00879
				C110.20557,37.39032,110.92529,38.0993,110.92529,39.3288z M110.23535,40.18817v-0.06934h-0.94922
				c-0.90967,0-1.29932,0.05957-1.53906,0.24902c-0.18018,0.14062-0.27002,0.36035-0.27002,0.63965
				c0,0.5498,0.46973,0.90039,1.20947,0.90039C109.63574,41.9079,110.23535,41.23798,110.23535,40.18817z"/>
			<path d="M119.23438,40.11884h-3.60791c0.02002,1.0791,0.61963,1.72852,1.58936,1.72852
				c0.53955,0,0.96924-0.13965,1.41895-0.61914l0.47998,0.41895c-0.57959,0.61035-1.14941,0.83008-1.90918,0.83008
				c-1.49902,0-2.26855-1.11914-2.26855-2.51855c0-1.38965,0.75977-2.56836,2.18896-2.56836
				c1.50879,0,2.13867,1.17871,2.13867,2.29785C119.26465,39.8288,119.25439,39.99872,119.23438,40.11884z M115.62646,39.53876
				h2.97852c0-0.02051-0.01025-0.07031-0.01025-0.16016c-0.0498-0.7998-0.55957-1.40918-1.46875-1.40918
				C116.23633,37.96942,115.68652,38.66962,115.62646,39.53876z"/>
			<path d="M123.6167,35.43134h4.72754v0.65918h-4.01758v2.42871h3.51807v0.66016h-3.51807v3.21777h-0.70996V35.43134z"/>
			<path d="M129.55713,35.43134h0.79932v1.01953h-0.79932V35.43134z M129.61719,37.46942h0.68945v4.92773h-0.68945V37.46942z"/>
			<path d="M131.69727,39.92841c0-1.45898,0.94922-2.53809,2.3584-2.53809c1.39941,0,2.36865,1.0791,2.36865,2.53809
				c0,1.44922-0.95947,2.54883-2.36865,2.54883S131.69727,41.38739,131.69727,39.92841z M135.73486,39.92841
				c0-1.11914-0.62988-1.92871-1.6792-1.92871c-1.05957,0-1.66895,0.81934-1.66895,1.92871
				c0,1.11914,0.61963,1.93945,1.66895,1.93945C135.11523,41.86786,135.73486,41.02802,135.73486,39.92841z"/>
			<path d="M140.81494,37.60028l-0.33984,0.55957c-0.22949-0.10059-0.43945-0.15039-0.64941-0.15039
				c-0.75977,0-1.31934,0.56934-1.31934,1.63965v2.74805h-0.68945v-4.92773h0.68945v0.74023
				c0.35986-0.64941,0.95947-0.81934,1.45898-0.81934C140.26562,37.39032,140.54541,37.44989,140.81494,37.60028z"/>
			<path d="M145.50488,39.3288v3.06836H144.875l-0.04004-0.75977c-0.38965,0.5498-0.98926,0.83984-1.76904,0.83984
				c-1.06934,0-1.69873-0.55957-1.69873-1.50977c0-0.49902,0.19971-0.87891,0.55957-1.09863
				c0.37988-0.21973,0.90967-0.31055,1.87891-0.31055h1.00928V39.3288c0-0.85938-0.44971-1.3291-1.2793-1.3291
				c-0.61963,0-1.09912,0.26953-1.49902,0.81934l-0.49951-0.41992c0.5293-0.68945,1.16895-1.00879,2.00879-1.00879
				C144.78516,37.39032,145.50488,38.0993,145.50488,39.3288z M144.81494,40.18817v-0.06934h-0.94922
				c-0.90967,0-1.29932,0.05957-1.53906,0.24902c-0.18018,0.14062-0.27002,0.36035-0.27002,0.63965
				c0,0.5498,0.46973,0.90039,1.20947,0.90039C144.21533,41.9079,144.81494,41.23798,144.81494,40.18817z"/>
			<path d="M146.47656,37.46942h0.75l1.54883,4.04785l1.55908-4.04785h0.75977l-2.01904,4.92773h-0.58936L146.47656,37.46942z"/>
			<path d="M155.82471,39.3288v3.06836h-0.62988l-0.04004-0.75977c-0.38965,0.5498-0.98926,0.83984-1.76904,0.83984
				c-1.06934,0-1.69873-0.55957-1.69873-1.50977c0-0.49902,0.19971-0.87891,0.55957-1.09863
				c0.37988-0.21973,0.90967-0.31055,1.87891-0.31055h1.00928V39.3288c0-0.85938-0.44971-1.3291-1.2793-1.3291
				c-0.61963,0-1.09912,0.26953-1.49902,0.81934l-0.49951-0.41992c0.5293-0.68945,1.16895-1.00879,2.00879-1.00879
				C155.10498,37.39032,155.82471,38.0993,155.82471,39.3288z M155.13477,40.18817v-0.06934h-0.94922
				c-0.90967,0-1.29932,0.05957-1.53906,0.24902c-0.18018,0.14062-0.27002,0.36035-0.27002,0.63965
				c0,0.5498,0.46973,0.90039,1.20947,0.90039C154.53516,41.9079,155.13477,41.23798,155.13477,40.18817z"/>
			<path d="M161.43408,39.3786v3.01855h-0.68945v-2.84863c0-1.05957-0.33984-1.54883-1.07959-1.54883
				c-0.92969,0-1.46924,0.7998-1.46924,2.18848v2.20898h-0.68945v-4.92773h0.68945v0.71973
				c0.31982-0.49902,0.91943-0.79883,1.62891-0.79883C160.88428,37.39032,161.43408,38.07001,161.43408,39.3786z"/>
			<path d="M165.18506,42.34735c-0.25977,0.08008-0.52002,0.12988-0.74951,0.12988c-0.65967,0-1.13965-0.37012-1.13965-1.23926
				V38.0495h-0.81934v-0.58008h0.81934v-1.37891l0.68945-0.51953v1.89844h1.18945v0.58008h-1.18945v3.09863
				c0,0.47949,0.22021,0.69922,0.60986,0.69922c0.16992,0,0.35986-0.04004,0.57959-0.10938L165.18506,42.34735z"/>
			<path d="M166.43652,35.43134h0.79932v1.01953h-0.79932V35.43134z M166.49658,37.46942h0.68945v4.92773h-0.68945V37.46942z"/>
		</g>
		<g enable-background="new    ">
			<path d="M181.27539,123.00507h0.70996v6.30664h3.17822v0.65918h-3.88818V123.00507z"/>
			<path d="M190.08398,126.90253v3.06836h-0.62988l-0.04004-0.75977c-0.38965,0.5498-0.98926,0.83984-1.76904,0.83984
				c-1.06934,0-1.69873-0.55957-1.69873-1.50977c0-0.49902,0.19971-0.87891,0.55957-1.09863
				c0.37988-0.21973,0.90967-0.31055,1.87891-0.31055h1.00928v-0.22949c0-0.85938-0.44971-1.3291-1.2793-1.3291
				c-0.61963,0-1.09912,0.26953-1.49902,0.81934l-0.49951-0.41992c0.5293-0.68945,1.16895-1.00879,2.00879-1.00879
				C189.36426,124.96405,190.08398,125.67303,190.08398,126.90253z M189.39404,127.7619v-0.06934h-0.94922
				c-0.90967,0-1.29932,0.05957-1.53906,0.24902c-0.18018,0.14062-0.27002,0.36035-0.27002,0.63965
				c0,0.5498,0.46973,0.90039,1.20947,0.90039C188.79443,129.48163,189.39404,128.81171,189.39404,127.7619z"/>
			<path d="M193.96582,128.7619l0.57959-0.25977c0.17969,0.50977,0.65967,0.93945,1.4292,0.93945
				c0.66943,0,1.09961-0.33008,1.09961-0.84961c0-1.30957-2.83887-0.49023-2.83887-2.23926
				c0-0.85938,0.69971-1.38867,1.68945-1.38867c0.78955,0,1.4292,0.3291,1.76904,1.0293l-0.5498,0.2998
				c-0.23975-0.44043-0.62988-0.71973-1.23926-0.71973c-0.60986,0-0.99951,0.25-0.99951,0.67969
				c0,1.16895,2.84814,0.42969,2.84814,2.29883c0,0.99902-0.81934,1.49902-1.76855,1.49902
				C195.01514,130.05096,194.22559,129.55096,193.96582,128.7619z"/>
			<path d="M201.2041,129.92108c-0.25977,0.08008-0.52002,0.12988-0.74951,0.12988c-0.65967,0-1.13965-0.37012-1.13965-1.23926
				v-3.18848h-0.81934v-0.58008h0.81934v-1.37891l0.68945-0.51953v1.89844h1.18945v0.58008h-1.18945v3.09863
				c0,0.47949,0.22021,0.69922,0.60986,0.69922c0.16992,0,0.35986-0.04004,0.57959-0.10938L201.2041,129.92108z"/>
			<path d="M202.03564,127.50214c0-1.45898,0.94971-2.53809,2.35889-2.53809c1.39941,0,2.36865,1.0791,2.36865,2.53809
				c0,1.44922-0.95947,2.54883-2.36865,2.54883S202.03564,128.96112,202.03564,127.50214z M206.07373,127.50214
				c0-1.11914-0.62988-1.92871-1.6792-1.92871c-1.05957,0-1.66895,0.81934-1.66895,1.92871
				c0,1.11914,0.61963,1.93945,1.66895,1.93945C205.4541,129.44159,206.07373,128.60175,206.07373,127.50214z"/>
			<path d="M211.15332,125.17401l-0.33984,0.55957c-0.22949-0.10059-0.43945-0.15039-0.64941-0.15039
				c-0.75977,0-1.31934,0.56934-1.31934,1.63965v2.74805h-0.68945v-4.92773h0.68945v0.74023
				c0.35986-0.64941,0.95947-0.81934,1.45898-0.81934C210.604,124.96405,210.88379,125.02362,211.15332,125.17401z"/>
			<path d="M212.11523,123.00507h0.79932v1.01953h-0.79932V123.00507z M212.17529,125.04315h0.68945v4.92773h-0.68945V125.04315z"/>
			<path d="M218.35303,126.90253v3.06836h-0.62988l-0.04004-0.75977c-0.38965,0.5498-0.98926,0.83984-1.76904,0.83984
				c-1.06934,0-1.69873-0.55957-1.69873-1.50977c0-0.49902,0.19971-0.87891,0.55957-1.09863
				c0.37988-0.21973,0.90967-0.31055,1.87891-0.31055h1.00928v-0.22949c0-0.85938-0.44971-1.3291-1.2793-1.3291
				c-0.61963,0-1.09912,0.26953-1.49902,0.81934l-0.49951-0.41992c0.5293-0.68945,1.16895-1.00879,2.00879-1.00879
				C217.6333,124.96405,218.35303,125.67303,218.35303,126.90253z M217.66309,127.7619v-0.06934h-0.94922
				c-0.90967,0-1.29932,0.05957-1.53906,0.24902c-0.18018,0.14062-0.27002,0.36035-0.27002,0.63965
				c0,0.5498,0.46973,0.90039,1.20947,0.90039C217.06348,129.48163,217.66309,128.81171,217.66309,127.7619z"/>
			<path d="M226.88281,123.00507v6.96582h-0.68994v-0.65918c-0.35938,0.45898-0.90918,0.73926-1.62891,0.73926
				c-1.43896,0-2.18896-1.0791-2.18896-2.54883c0-1.53906,0.81982-2.54883,2.18896-2.54883c0.69971,0,1.25928,0.27051,1.62891,0.75
				v-2.69824H226.88281z M226.25293,127.50214c0-1.16895-0.59961-1.93848-1.58887-1.93848
				c-0.99951,0-1.59912,0.76953-1.59912,1.93848c0,1.11914,0.5498,1.93945,1.59912,1.93945
				C225.70312,129.44159,226.25293,128.62128,226.25293,127.50214z"/>
			<path d="M228.64502,123.00507h0.79932v1.01953h-0.79932V123.00507z M228.70508,125.04315h0.68945v4.92773h-0.68945V125.04315z"/>
			<path d="M238.95166,129.97089l-2.29834-3.92773l-1.76904,1.81934v2.1084h-0.70996v-6.96582h0.70996v3.95703l3.80762-3.95703
				h0.93945l-2.48828,2.53809l2.62842,4.42773H238.95166z"/>
			<path d="M240.99463,123.00507h0.79932v1.01953h-0.79932V123.00507z M241.05469,125.04315h0.68945v4.92773h-0.68945V125.04315z"/>
			<path d="M250.32129,126.89276v3.07812h-0.68994v-2.88867c0-0.41992,0-1.50879-1.0791-1.50879
				c-0.99951,0-1.26953,0.91895-1.26953,2.02832v2.36914h-0.68945v-2.84863c0-0.81934-0.25-1.54883-1.10938-1.54883
				c-0.95947,0-1.22949,0.90918-1.22949,2.02832v2.36914h-0.68945l-0.01025-4.92773h0.66992v0.60059
				c0.30957-0.49023,0.80957-0.67969,1.35889-0.67969c0.68994,0,1.19971,0.2998,1.44922,0.94922
				c0.31982-0.62988,0.86963-0.94922,1.61914-0.94922C249.83154,124.96405,250.32129,125.74335,250.32129,126.89276z"/>
			<path d="M251.97461,126.64276h2.66846v0.5293h-2.66846V126.64276z"/>
			<path d="M259.92236,126.37323h2.34863v3.59766h-0.56934l-0.1001-1.08984c-0.37988,0.76953-1.22949,1.18945-2.29883,1.18945
				c-2.02881,0-3.11816-1.51855-3.11816-3.59766c0-2.06934,1.07959-3.56836,3.21826-3.56836
				c1.46924,0,2.40869,0.70996,2.86816,1.90918l-0.65967,0.25c-0.34961-0.94922-1.04932-1.47949-2.2085-1.47949
				c-1.6792,0-2.50879,1.13965-2.50879,2.8584c0,1.65918,0.72949,2.94824,2.4585,2.94824c1.19971,0,2.24902-0.62891,2.24902-2.21875
				v-0.21973h-1.6792V126.37323z"/>
			<path d="M268.00244,126.95233v3.01855h-0.68945v-2.84863c0-1.06934-0.33984-1.54883-1.07959-1.54883
				c-0.93945,0-1.46924,0.76953-1.46924,2.12891v2.26855h-0.68945v-6.96582h0.68945v2.75781
				c0.31982-0.49902,0.91943-0.79883,1.62891-0.79883C267.45264,124.96405,268.00244,125.64374,268.00244,126.95233z"/>
			<path d="M269.64453,123.00507h0.79932v1.01953h-0.79932V123.00507z M269.70459,125.04315h0.68945v4.92773h-0.68945V125.04315z"/>
			<path d="M272.16406,126.64276h2.66846v0.5293h-2.66846V126.64276z"/>
			<path d="M276.63428,127.45233v-4.44727h0.70996v4.37695c0,1.34961,0.57959,1.98926,1.78906,1.98926
				c1.21924,0,1.79883-0.64941,1.79883-2.01855v-4.34766h0.70947v4.39746c0,1.74902-0.87939,2.66797-2.5083,2.66797
				C277.51416,130.0705,276.63428,129.16132,276.63428,127.45233z"/>
		</g>
		<g enable-background="new    ">
			<path d="M320.16211,128.92108v-4.44727h0.70996v4.37695c0,1.34961,0.58008,1.98926,1.78906,1.98926
				c1.21973,0,1.79883-0.64941,1.79883-2.01855v-4.34766h0.70996v4.39746c0,1.74902-0.87988,2.66797-2.50879,2.66797
				C321.04199,131.53925,320.16211,130.63007,320.16211,128.92108z"/>
			<path d="M330.9502,128.42108v3.01855h-0.68945V128.591c0-1.05957-0.33984-1.54883-1.0791-1.54883
				c-0.92969,0-1.46973,0.7998-1.46973,2.18848v2.20898h-0.68945v-4.92773h0.68945v0.71973
				c0.32031-0.49902,0.91992-0.79883,1.62891-0.79883C330.40039,126.4328,330.9502,127.11249,330.9502,128.42108z"/>
			<path d="M339.88965,128.97089c0,1.46973-0.74902,2.54883-2.18848,2.54883c-0.71973,0-1.26953-0.28027-1.62891-0.73926v2.69824
				h-0.68945v-6.9668h0.68945v0.66016c0.36914-0.47949,0.92969-0.75,1.62891-0.75
				C339.07031,126.42206,339.88965,127.43182,339.88965,128.97089z M339.2002,128.97089c0-1.16895-0.59961-1.93848-1.59863-1.93848
				c-0.99023,0-1.58984,0.76953-1.58984,1.93848c0,1.11914,0.5498,1.93945,1.58984,1.93945
				C338.65039,130.91034,339.2002,130.09003,339.2002,128.97089z"/>
			<path d="M344.99023,128.37128v3.06836h-0.62988l-0.04004-0.75977c-0.38965,0.5498-0.98926,0.83984-1.76855,0.83984
				c-1.06934,0-1.69922-0.55957-1.69922-1.50977c0-0.49902,0.2002-0.87891,0.55957-1.09863
				c0.37988-0.21973,0.91016-0.31055,1.87891-0.31055h1.00977v-0.22949c0-0.85938-0.4502-1.3291-1.2793-1.3291
				c-0.62012,0-1.09961,0.26953-1.49902,0.81934l-0.5-0.41992c0.5293-0.68945,1.16895-1.00879,2.00879-1.00879
				C344.27051,126.4328,344.99023,127.14178,344.99023,128.37128z M344.30078,129.23065v-0.06934h-0.94922
				c-0.91016,0-1.2998,0.05957-1.53906,0.24902c-0.18066,0.14062-0.27051,0.36035-0.27051,0.63965
				c0,0.5498,0.46973,0.90039,1.20996,0.90039C343.70117,130.95038,344.30078,130.28046,344.30078,129.23065z"/>
			<path d="M350.57031,129.16132h-3.6084c0.02051,1.0791,0.62012,1.72852,1.58984,1.72852
				c0.53906,0,0.96875-0.13965,1.41895-0.61914l0.47949,0.41895c-0.5791,0.61035-1.14941,0.83008-1.90918,0.83008
				c-1.49902,0-2.26855-1.11914-2.26855-2.51855c0-1.38965,0.75977-2.56836,2.18945-2.56836
				c1.50879,0,2.13867,1.17871,2.13867,2.29785C350.60059,128.87128,350.58984,129.0412,350.57031,129.16132z M346.96191,128.58124
				h2.97852c0-0.02051-0.00977-0.07031-0.00977-0.16016c-0.0498-0.7998-0.55957-1.40918-1.46875-1.40918
				C347.57227,127.0119,347.02246,127.7121,346.96191,128.58124z"/>
			<path d="M351.46289,130.23065l0.5791-0.25977c0.17969,0.50977,0.66016,0.93945,1.42969,0.93945
				c0.66895,0,1.09961-0.33008,1.09961-0.84961c0-1.30957-2.83887-0.49023-2.83887-2.23926
				c0-0.85938,0.69922-1.38867,1.68945-1.38867c0.78906,0,1.42871,0.3291,1.76855,1.0293l-0.5498,0.2998
				c-0.23926-0.44043-0.62988-0.71973-1.23926-0.71973s-0.99902,0.25-0.99902,0.67969c0,1.16895,2.84766,0.42969,2.84766,2.29883
				c0,0.99902-0.81934,1.49902-1.76855,1.49902C352.51172,131.51971,351.72266,131.01971,351.46289,130.23065z"/>
			<path d="M360.5,129.16132h-3.6084c0.02051,1.0791,0.62012,1.72852,1.58984,1.72852c0.53906,0,0.96875-0.13965,1.41895-0.61914
				l0.47949,0.41895c-0.5791,0.61035-1.14941,0.83008-1.90918,0.83008c-1.49902,0-2.26855-1.11914-2.26855-2.51855
				c0-1.38965,0.75977-2.56836,2.18945-2.56836c1.50879,0,2.13867,1.17871,2.13867,2.29785
				C360.53027,128.87128,360.51953,129.0412,360.5,129.16132z M356.8916,128.58124h2.97852
				c0-0.02051-0.00977-0.07031-0.00977-0.16016c-0.0498-0.7998-0.55957-1.40918-1.46875-1.40918
				C357.50195,127.0119,356.95215,127.7121,356.8916,128.58124z"/>
			<path d="M368.76953,124.47382v6.96582h-0.68945v-0.65918c-0.35938,0.45898-0.90918,0.73926-1.62891,0.73926
				c-1.43945,0-2.18945-1.0791-2.18945-2.54883c0-1.53906,0.82031-2.54883,2.18945-2.54883c0.69922,0,1.25879,0.27051,1.62891,0.75
				v-2.69824H368.76953z M368.13965,128.97089c0-1.16895-0.59961-1.93848-1.58887-1.93848
				c-0.99902,0-1.59863,0.76953-1.59863,1.93848c0,1.11914,0.54883,1.93945,1.59863,1.93945
				C367.58984,130.91034,368.13965,130.09003,368.13965,128.97089z"/>
			<path d="M370.53223,124.47382h0.79883v1.01953h-0.79883V124.47382z M370.5918,126.5119h0.68945v4.92773h-0.68945V126.5119z"/>
			<path d="M372.57227,130.23065l0.58008-0.25977c0.17969,0.50977,0.65918,0.93945,1.42871,0.93945
				c0.66992,0,1.09961-0.33008,1.09961-0.84961c0-1.30957-2.83887-0.49023-2.83887-2.23926
				c0-0.85938,0.7002-1.38867,1.68945-1.38867c0.79004,0,1.42969,0.3291,1.76953,1.0293l-0.5498,0.2998
				c-0.24023-0.44043-0.62988-0.71973-1.23926-0.71973c-0.61035,0-1,0.25-1,0.67969c0,1.16895,2.84863,0.42969,2.84863,2.29883
				c0,0.99902-0.81934,1.49902-1.76953,1.49902C373.62207,131.51971,372.83203,131.01971,372.57227,130.23065z"/>
			<path d="M381.5498,132.1994c0,0.92969-0.86914,1.35938-2.1084,1.35938c-1.36914,0-2.19922-0.54004-2.19922-1.51953
				c0-0.09961,0.00977-0.16016,0.02051-0.21973l0.79883-0.67969c-0.37988-0.16992-0.63965-0.4502-0.63965-0.93945
				c0-0.39941,0.17969-0.69922,0.53027-0.93945c-0.25977-0.2998-0.41992-0.67969-0.41992-1.11914
				c0-1,0.81934-1.70898,1.87891-1.70898c0.47949,0,0.90918,0.14941,1.22949,0.39941l0.67969-0.58984l0.35938,0.4502
				l-0.66992,0.55957c0.16992,0.26953,0.27051,0.5791,0.27051,0.92969c0,1.00879-0.81934,1.67871-1.85938,1.67871
				c-0.37988,0-0.72949-0.08984-1.01953-0.25c-0.19922,0.11035-0.31934,0.29004-0.31934,0.5c0,0.5,0.61914,0.61914,1.3291,0.72949
				C380.39062,130.98944,381.5498,131.13007,381.5498,132.1994z M380.86035,132.25897c0-0.59961-0.7793-0.68945-1.59961-0.81934
				c-0.21973-0.03027-0.44922-0.07031-0.65918-0.12012l-0.66992,0.64941c-0.00977,0.05078-0.00977,0.07031-0.00977,0.09082
				c0,0.69922,0.70996,0.91895,1.54883,0.91895C380.34082,132.9787,380.86035,132.73846,380.86035,132.25897z M378.21191,128.16132
				c0,0.63965,0.45996,1.12988,1.19922,1.12988s1.17969-0.48047,1.17969-1.12988c0-0.67969-0.45996-1.14941-1.16992-1.14941
				C378.72168,127.0119,378.21191,127.48163,378.21191,128.16132z"/>
			<path d="M385.91992,126.64276l-0.33984,0.55957c-0.22949-0.10059-0.43945-0.15039-0.64941-0.15039
				c-0.75977,0-1.31934,0.56934-1.31934,1.63965v2.74805h-0.68945v-4.92773h0.68945v0.74023
				c0.36035-0.64941,0.95996-0.81934,1.45898-0.81934C385.37012,126.4328,385.65039,126.49237,385.91992,126.64276z"/>
			<path d="M390.61035,128.37128v3.06836h-0.62988l-0.04004-0.75977c-0.38965,0.5498-0.98926,0.83984-1.76953,0.83984
				c-1.06934,0-1.69824-0.55957-1.69824-1.50977c0-0.49902,0.19922-0.87891,0.55957-1.09863
				c0.37988-0.21973,0.90918-0.31055,1.87891-0.31055h1.00879v-0.22949c0-0.85938-0.44922-1.3291-1.2793-1.3291
				c-0.61914,0-1.09863,0.26953-1.49902,0.81934l-0.49902-0.41992c0.5293-0.68945,1.16895-1.00879,2.00879-1.00879
				C389.89062,126.4328,390.61035,127.14178,390.61035,128.37128z M389.91992,129.23065v-0.06934h-0.94922
				c-0.90918,0-1.29883,0.05957-1.53906,0.24902c-0.17969,0.14062-0.26953,0.36035-0.26953,0.63965
				c0,0.5498,0.46973,0.90039,1.20898,0.90039C389.32031,130.95038,389.91992,130.28046,389.91992,129.23065z"/>
			<path d="M395.84961,127.06171l-3.20801,3.78809h3.18848v0.58984h-4.09863v-0.5l3.27832-3.83789h-3.1084v-0.58984h3.94824
				V127.06171z"/>
			<path d="M397.10156,124.47382h0.7998v1.01953h-0.7998V124.47382z M397.16211,126.5119h0.68945v4.92773h-0.68945V126.5119z"/>
			<path d="M403.33984,128.37128v3.06836h-0.62988l-0.04004-0.75977c-0.38965,0.5498-0.98926,0.83984-1.76953,0.83984
				c-1.06934,0-1.69824-0.55957-1.69824-1.50977c0-0.49902,0.19922-0.87891,0.55957-1.09863
				c0.37988-0.21973,0.90918-0.31055,1.87891-0.31055h1.00879v-0.22949c0-0.85938-0.44922-1.3291-1.2793-1.3291
				c-0.61914,0-1.09863,0.26953-1.49902,0.81934l-0.49902-0.41992c0.5293-0.68945,1.16895-1.00879,2.00879-1.00879
				C402.62012,126.4328,403.33984,127.14178,403.33984,128.37128z M402.64941,129.23065v-0.06934h-0.94922
				c-0.90918,0-1.29883,0.05957-1.53906,0.24902c-0.17969,0.14062-0.26953,0.36035-0.26953,0.63965
				c0,0.5498,0.46973,0.90039,1.20898,0.90039C402.0498,130.95038,402.64941,130.28046,402.64941,129.23065z"/>
			<path d="M407.07031,131.38983c-0.25977,0.08008-0.51953,0.12988-0.74902,0.12988c-0.66016,0-1.13965-0.37012-1.13965-1.23926
				v-3.18848h-0.81934v-0.58008h0.81934V125.133l0.68945-0.51953v1.89844h1.18945v0.58008h-1.18945v3.09863
				c0,0.47949,0.21973,0.69922,0.60938,0.69922c0.16992,0,0.36035-0.04004,0.58008-0.10938L407.07031,131.38983z"/>
			<path d="M407.90137,128.97089c0-1.45898,0.9502-2.53809,2.35938-2.53809c1.39941,0,2.36816,1.0791,2.36816,2.53809
				c0,1.44922-0.95898,2.54883-2.36816,2.54883S407.90137,130.42987,407.90137,128.97089z M411.93945,128.97089
				c0-1.11914-0.62988-1.92871-1.67871-1.92871c-1.05957,0-1.66895,0.81934-1.66895,1.92871
				c0,1.11914,0.61914,1.93945,1.66895,1.93945C411.32031,130.91034,411.93945,130.0705,411.93945,128.97089z"/>
		</g>
		<g enable-background="new    ">
			<path d="M248.27002,145.56561h0.70996v6.96582h-0.70996V145.56561z"/>
			<path d="M250.99023,151.4621v-5.89648h0.68945v5.85645c0,0.33984,0.12012,0.55957,0.44971,0.55957
				c0.1499,0,0.31982-0.04004,0.46973-0.08984l0.01025,0.58984c-0.20996,0.06934-0.45996,0.12988-0.67969,0.12988
				C251.35986,152.61151,250.99023,152.23163,250.99023,151.4621z"/>
			<path d="M260.29834,153.2912c0,0.92969-0.86963,1.35938-2.10889,1.35938c-1.36914,0-2.19873-0.54004-2.19873-1.51953
				c0-0.09961,0.00977-0.16016,0.02002-0.21973l0.79932-0.67969c-0.37988-0.16992-0.63965-0.4502-0.63965-0.93945
				c0-0.39941,0.18018-0.69922,0.52979-0.93945c-0.25977-0.2998-0.41992-0.67969-0.41992-1.11914
				c0-1,0.81982-1.70898,1.87891-1.70898c0.47998,0,0.90967,0.14941,1.22949,0.39941l0.67969-0.58984l0.35986,0.4502
				l-0.66992,0.55957c0.16992,0.26953,0.27002,0.5791,0.27002,0.92969c0,1.00879-0.81934,1.67871-1.85889,1.67871
				c-0.37988,0-0.72949-0.08984-1.01953-0.25c-0.19971,0.11035-0.31982,0.29004-0.31982,0.5c0,0.5,0.61963,0.61914,1.3291,0.72949
				C259.13867,152.08124,260.29834,152.22186,260.29834,153.2912z M259.6084,153.35077c0-0.59961-0.7793-0.68945-1.59912-0.81934
				c-0.21973-0.03027-0.44971-0.07031-0.65967-0.12012l-0.66943,0.64941c-0.01025,0.05078-0.01025,0.07031-0.01025,0.09082
				c0,0.69922,0.70996,0.91895,1.54932,0.91895C259.08887,154.0705,259.6084,153.83026,259.6084,153.35077z M256.95996,149.25311
				c0,0.63965,0.45996,1.12988,1.19922,1.12988c0.73975,0,1.17969-0.48047,1.17969-1.12988
				c0-0.67969-0.45996-1.14941-1.16943-1.14941C257.46973,148.1037,256.95996,148.57343,256.95996,149.25311z"/>
			<path d="M265.36768,150.25311h-3.60791c0.02002,1.0791,0.61963,1.72852,1.58936,1.72852
				c0.53955,0,0.96924-0.13965,1.41895-0.61914l0.47998,0.41895c-0.57959,0.61035-1.14941,0.83008-1.90918,0.83008
				c-1.49902,0-2.26855-1.11914-2.26855-2.51855c0-1.38965,0.75977-2.56836,2.18896-2.56836
				c1.50879,0,2.13867,1.17871,2.13867,2.29785C265.39795,149.96307,265.3877,150.133,265.36768,150.25311z M261.75977,149.67303
				h2.97852c0-0.02051-0.01025-0.07031-0.01025-0.16016c-0.0498-0.7998-0.55957-1.40918-1.46875-1.40918
				C262.36963,148.1037,261.81982,148.80389,261.75977,149.67303z"/>
			<path d="M270.71826,149.51288v3.01855h-0.68945v-2.84863c0-1.05957-0.33984-1.54883-1.07959-1.54883
				c-0.92969,0-1.46924,0.7998-1.46924,2.18848v2.20898h-0.68945v-4.92773h0.68945v0.71973
				c0.31982-0.49902,0.91943-0.79883,1.62891-0.79883C270.16846,147.5246,270.71826,148.20428,270.71826,149.51288z"/>
			<path d="M276.31787,150.25311h-3.60791c0.02002,1.0791,0.61963,1.72852,1.58936,1.72852
				c0.53955,0,0.96924-0.13965,1.41895-0.61914l0.47998,0.41895c-0.57959,0.61035-1.14941,0.83008-1.90918,0.83008
				c-1.49902,0-2.26855-1.11914-2.26855-2.51855c0-1.38965,0.75977-2.56836,2.18896-2.56836
				c1.50879,0,2.13867,1.17871,2.13867,2.29785C276.34814,149.96307,276.33789,150.133,276.31787,150.25311z M272.70996,149.67303
				h2.97852c0-0.02051-0.01025-0.07031-0.01025-0.16016c-0.0498-0.7998-0.55957-1.40918-1.46875-1.40918
				C273.31982,148.1037,272.77002,148.80389,272.70996,149.67303z"/>
			<path d="M280.73828,147.73456l-0.33984,0.55957c-0.22949-0.10059-0.43945-0.15039-0.64941-0.15039
				c-0.75977,0-1.31934,0.56934-1.31934,1.63965v2.74805h-0.68945v-4.92773h0.68945v0.74023
				c0.35986-0.64941,0.95947-0.81934,1.45898-0.81934C280.18848,147.5246,280.46875,147.58417,280.73828,147.73456z"/>
			<path d="M285.42822,149.46307v3.06836h-0.62988l-0.04004-0.75977c-0.38965,0.5498-0.98926,0.83984-1.76904,0.83984
				c-1.06934,0-1.69873-0.55957-1.69873-1.50977c0-0.49902,0.19971-0.87891,0.55957-1.09863
				c0.37988-0.21973,0.90967-0.31055,1.87891-0.31055h1.00928v-0.22949c0-0.85938-0.44971-1.3291-1.2793-1.3291
				c-0.61963,0-1.09912,0.26953-1.49902,0.81934l-0.49951-0.41992c0.5293-0.68945,1.16895-1.00879,2.00879-1.00879
				C284.7085,147.5246,285.42822,148.23358,285.42822,149.46307z M284.73828,150.32245v-0.06934h-0.94922
				c-0.90967,0-1.29932,0.05957-1.53906,0.24902c-0.18018,0.14062-0.27002,0.36035-0.27002,0.63965
				c0,0.5498,0.46973,0.90039,1.20947,0.90039C284.13867,152.04218,284.73828,151.37225,284.73828,150.32245z"/>
			<path d="M287.06982,151.4621v-5.89648h0.68945v5.85645c0,0.33984,0.12012,0.55957,0.44971,0.55957
				c0.1499,0,0.31982-0.04004,0.46973-0.08984l0.01025,0.58984c-0.20996,0.06934-0.45996,0.12988-0.67969,0.12988
				C287.43945,152.61151,287.06982,152.23163,287.06982,151.4621z"/>
			<path d="M293.70752,150.25311h-3.60791c0.02002,1.0791,0.61963,1.72852,1.58936,1.72852
				c0.53955,0,0.96924-0.13965,1.41895-0.61914l0.47998,0.41895c-0.57959,0.61035-1.14941,0.83008-1.90918,0.83008
				c-1.49902,0-2.26855-1.11914-2.26855-2.51855c0-1.38965,0.75977-2.56836,2.18896-2.56836
				c1.50879,0,2.13867,1.17871,2.13867,2.29785C293.73779,149.96307,293.72754,150.133,293.70752,150.25311z M290.09961,149.67303
				h2.97852c0-0.02051-0.01025-0.07031-0.01025-0.16016c-0.0498-0.7998-0.55957-1.40918-1.46875-1.40918
				C290.70947,148.1037,290.15967,148.80389,290.09961,149.67303z"/>
			<path d="M297.7998,145.56561h0.79932v1.01953h-0.79932V145.56561z M297.85986,147.6037h0.68945v4.92773h-0.68945V147.6037z"/>
			<path d="M304.29785,149.51288v3.01855h-0.68945v-2.84863c0-1.05957-0.33984-1.54883-1.08008-1.54883
				c-0.92969,0-1.46875,0.7998-1.46875,2.18848v2.20898h-0.68945v-4.92773h0.68945v0.71973
				c0.31934-0.49902,0.91895-0.79883,1.62891-0.79883C303.74805,147.5246,304.29785,148.20428,304.29785,149.51288z"/>
			<path d="M313.2373,150.06268c0,1.46973-0.75,2.54883-2.18945,2.54883c-0.71875,0-1.26855-0.28027-1.62891-0.73926v0.65918
				h-0.68945v-6.96582h0.68945v2.69824c0.37012-0.47949,0.92969-0.75,1.62891-0.75
				C312.41797,147.51385,313.2373,148.52362,313.2373,150.06268z M312.54785,150.06268c0-1.16895-0.59961-1.93848-1.59961-1.93848
				c-0.98926,0-1.58887,0.76953-1.58887,1.93848c0,1.11914,0.5498,1.93945,1.58887,1.93945
				C311.99805,152.00214,312.54785,151.18182,312.54785,150.06268z"/>
			<path d="M314.60938,145.56561h0.7998v1.01953h-0.7998V145.56561z M314.66992,147.6037h0.68945v4.92773h-0.68945V147.6037z"/>
			<path d="M321.6875,150.06268c0,1.46973-0.75,2.54883-2.18945,2.54883c-0.71875,0-1.26855-0.28027-1.62891-0.73926v0.65918
				h-0.68945v-6.96582h0.68945v2.69824c0.37012-0.47949,0.92969-0.75,1.62891-0.75
				C320.86816,147.51385,321.6875,148.52362,321.6875,150.06268z M320.99805,150.06268c0-1.16895-0.59961-1.93848-1.59961-1.93848
				c-0.98926,0-1.58887,0.76953-1.58887,1.93848c0,1.11914,0.5498,1.93945,1.58887,1.93945
				C320.44824,152.00214,320.99805,151.18182,320.99805,150.06268z"/>
			<path d="M323.08008,151.4621v-5.89648h0.68945v5.85645c0,0.33984,0.12012,0.55957,0.44922,0.55957
				c0.15039,0,0.32031-0.04004,0.46973-0.08984l0.01074,0.58984c-0.20996,0.06934-0.45996,0.12988-0.67969,0.12988
				C323.44922,152.61151,323.08008,152.23163,323.08008,151.4621z"/>
			<path d="M325.75977,145.56561h0.79883v1.01953h-0.79883V145.56561z M325.81934,147.6037h0.68945v4.92773h-0.68945V147.6037z"/>
			<path d="M327.89941,150.06268c0-1.45898,0.94922-2.53809,2.3584-2.53809c1.39941,0,2.36914,1.0791,2.36914,2.53809
				c0,1.44922-0.95996,2.54883-2.36914,2.54883S327.89941,151.52167,327.89941,150.06268z M331.9375,150.06268
				c0-1.11914-0.62988-1.92871-1.67969-1.92871c-1.05957,0-1.66895,0.81934-1.66895,1.92871
				c0,1.11914,0.62012,1.93945,1.66895,1.93945C331.31738,152.00214,331.9375,151.16229,331.9375,150.06268z"/>
			<path d="M336.01855,152.48163c-0.25977,0.08008-0.52051,0.12988-0.75,0.12988c-0.65918,0-1.13965-0.37012-1.13965-1.23926
				v-3.18848h-0.81934v-0.58008h0.81934v-1.37891l0.68945-0.51953v1.89844h1.18945v0.58008h-1.18945v3.09863
				c0,0.47949,0.2207,0.69922,0.61035,0.69922c0.16992,0,0.35938-0.04004,0.5791-0.10938L336.01855,152.48163z"/>
			<path d="M341.17676,150.25311h-3.60742c0.01953,1.0791,0.61914,1.72852,1.58887,1.72852
				c0.54004,0,0.96973-0.13965,1.41895-0.61914l0.48047,0.41895c-0.58008,0.61035-1.14941,0.83008-1.90918,0.83008
				c-1.49902,0-2.26855-1.11914-2.26855-2.51855c0-1.38965,0.75977-2.56836,2.18848-2.56836
				c1.50879,0,2.13867,1.17871,2.13867,2.29785C341.20703,149.96307,341.19727,150.133,341.17676,150.25311z M337.56934,149.67303
				h2.97852c0-0.02051-0.01074-0.07031-0.01074-0.16016c-0.0498-0.7998-0.55957-1.40918-1.46875-1.40918
				C338.17871,148.1037,337.62891,148.80389,337.56934,149.67303z"/>
			<path d="M342.18945,150.08319c0-1.2998,0.72949-2.55859,2.21875-2.55859c0.87988,0,1.60938,0.43945,1.99902,1.3584
				l-0.66016,0.26074c-0.22949-0.62988-0.71875-1.00977-1.33887-1.00977c-1.0498,0-1.51953,0.93945-1.51953,1.94922
				c0,1.00879,0.46973,1.91895,1.5293,1.91895c0.62012,0,1.10938-0.37012,1.2998-1l0.63965,0.24023
				c-0.33008,0.89941-1.0498,1.36914-1.93945,1.36914C342.98926,152.61151,342.18945,151.45233,342.18945,150.08319z"/>
			<path d="M351.29785,149.46307v3.06836h-0.62988l-0.04004-0.75977c-0.38965,0.5498-0.98926,0.83984-1.76953,0.83984
				c-1.06934,0-1.69824-0.55957-1.69824-1.50977c0-0.49902,0.19922-0.87891,0.55957-1.09863
				c0.37988-0.21973,0.90918-0.31055,1.87891-0.31055h1.00879v-0.22949c0-0.85938-0.44922-1.3291-1.2793-1.3291
				c-0.61914,0-1.09863,0.26953-1.49902,0.81934l-0.49902-0.41992c0.5293-0.68945,1.16895-1.00879,2.00879-1.00879
				C350.57812,147.5246,351.29785,148.23358,351.29785,149.46307z M350.60742,150.32245v-0.06934h-0.94922
				c-0.90918,0-1.29883,0.05957-1.53906,0.24902c-0.17969,0.14062-0.26953,0.36035-0.26953,0.63965
				c0,0.5498,0.46973,0.90039,1.20898,0.90039C350.00781,152.04218,350.60742,151.37225,350.60742,150.32245z"/>
		</g>
		<g enable-background="new    ">
			<path d="M259.55322,35.18622h0.70996v6.30664h3.17822v0.65918h-3.88818V35.18622z"/>
			<path d="M264.63379,35.18622h0.79932v1.01953h-0.79932V35.18622z M264.69385,37.2243h0.68945v4.92773h-0.68945V37.2243z"/>
			<path d="M271.71094,39.68329c0,1.46973-0.74951,2.54883-2.18896,2.54883c-0.71924,0-1.26904-0.28027-1.62891-0.73926v0.65918
				h-0.68945v-6.96582h0.68945v2.69824c0.36963-0.47949,0.92969-0.75,1.62891-0.75
				C270.8916,37.13446,271.71094,38.14423,271.71094,39.68329z M271.02148,39.68329c0-1.16895-0.59961-1.93848-1.59912-1.93848
				c-0.98975,0-1.58936,0.76953-1.58936,1.93848c0,1.11914,0.5498,1.93945,1.58936,1.93945
				C270.47168,41.62274,271.02148,40.80243,271.02148,39.68329z"/>
			<path d="M277.04102,39.87372h-3.60791c0.02002,1.0791,0.61963,1.72852,1.58936,1.72852
				c0.53955,0,0.96924-0.13965,1.41895-0.61914l0.47998,0.41895c-0.57959,0.61035-1.14941,0.83008-1.90918,0.83008
				c-1.49902,0-2.26855-1.11914-2.26855-2.51855c0-1.38965,0.75977-2.56836,2.18896-2.56836
				c1.50879,0,2.13867,1.17871,2.13867,2.29785C277.07129,39.58368,277.06104,39.7536,277.04102,39.87372z M273.43311,39.29364
				h2.97852c0-0.02051-0.01025-0.07031-0.01025-0.16016c-0.0498-0.7998-0.55957-1.40918-1.46875-1.40918
				C274.04297,37.7243,273.49316,38.4245,273.43311,39.29364z"/>
			<path d="M281.46143,37.35516l-0.33984,0.55957c-0.22949-0.10059-0.43945-0.15039-0.64941-0.15039
				c-0.75977,0-1.31934,0.56934-1.31934,1.63965v2.74805h-0.68945V37.2243h0.68945v0.74023
				c0.35986-0.64941,0.95947-0.81934,1.45898-0.81934C280.91211,37.1452,281.19189,37.20477,281.46143,37.35516z"/>
			<path d="M284.78223,42.10223c-0.25977,0.08008-0.52002,0.12988-0.74951,0.12988c-0.65967,0-1.13965-0.37012-1.13965-1.23926
				v-3.18848h-0.81934V37.2243h0.81934V35.8454l0.68994-0.51953v1.89844h1.18896v0.58008h-1.18896v3.09863
				c0,0.47949,0.21973,0.69922,0.60938,0.69922c0.16992,0,0.35986-0.04004,0.57959-0.10938L284.78223,42.10223z"/>
			<path d="M289.76123,39.08368v3.06836h-0.62988l-0.04004-0.75977c-0.38965,0.5498-0.98926,0.83984-1.76904,0.83984
				c-1.06934,0-1.69873-0.55957-1.69873-1.50977c0-0.49902,0.19971-0.87891,0.55957-1.09863
				c0.37988-0.21973,0.90967-0.31055,1.87891-0.31055h1.00928v-0.22949c0-0.85938-0.44971-1.3291-1.2793-1.3291
				c-0.61963,0-1.09912,0.26953-1.49902,0.81934l-0.49951-0.41992c0.5293-0.68945,1.16895-1.00879,2.00879-1.00879
				C289.0415,37.1452,289.76123,37.85419,289.76123,39.08368z M287.55225,36.5954l-1.23926-1.40918h0.73975l1.03906,1.40918
				H287.55225z M289.07129,39.94305v-0.06934h-0.94922c-0.90967,0-1.29932,0.05957-1.53906,0.24902
				c-0.18018,0.14062-0.27002,0.36035-0.27002,0.63965c0,0.5498,0.46973,0.90039,1.20947,0.90039
				C288.47168,41.66278,289.07129,40.99286,289.07129,39.94305z"/>
			<path d="M291.70312,41.05243h0.88965v1.09961h-0.88965V41.05243z M291.80322,35.18622h0.68945l-0.08008,4.99707h-0.52979
				L291.80322,35.18622z"/>
			<path d="M297.63281,35.18622h0.70996v6.30664h3.17773v0.65918h-3.8877V35.18622z"/>
			<path d="M302.71289,35.18622h0.79883v1.01953h-0.79883V35.18622z M302.77246,37.2243h0.68945v4.92773h-0.68945V37.2243z"/>
			<path d="M309.79004,39.68329c0,1.46973-0.75,2.54883-2.18945,2.54883c-0.71875,0-1.26855-0.28027-1.62891-0.73926v0.65918
				h-0.68945v-6.96582h0.68945v2.69824c0.37012-0.47949,0.92969-0.75,1.62891-0.75
				C308.9707,37.13446,309.79004,38.14423,309.79004,39.68329z M309.10059,39.68329c0-1.16895-0.59961-1.93848-1.59961-1.93848
				c-0.98926,0-1.58887,0.76953-1.58887,1.93848c0,1.11914,0.5498,1.93945,1.58887,1.93945
				C308.55078,41.62274,309.10059,40.80243,309.10059,39.68329z"/>
			<path d="M315.12012,39.87372h-3.6084c0.02051,1.0791,0.62012,1.72852,1.58984,1.72852c0.53906,0,0.96875-0.13965,1.41895-0.61914
				L315,41.40204c-0.5791,0.61035-1.14941,0.83008-1.90918,0.83008c-1.49902,0-2.26855-1.11914-2.26855-2.51855
				c0-1.38965,0.75977-2.56836,2.18945-2.56836c1.50879,0,2.13867,1.17871,2.13867,2.29785
				C315.15039,39.58368,315.13965,39.7536,315.12012,39.87372z M311.51172,39.29364h2.97852
				c0-0.02051-0.00977-0.07031-0.00977-0.16016c-0.0498-0.7998-0.55957-1.40918-1.46875-1.40918
				C312.12207,37.7243,311.57227,38.4245,311.51172,39.29364z"/>
			<path d="M319.54102,37.35516l-0.33984,0.55957c-0.22949-0.10059-0.43945-0.15039-0.64941-0.15039
				c-0.75977,0-1.31934,0.56934-1.31934,1.63965v2.74805h-0.68945V37.2243h0.68945v0.74023
				c0.35938-0.64941,0.95898-0.81934,1.45898-0.81934C318.99121,37.1452,319.27148,37.20477,319.54102,37.35516z"/>
			<path d="M322.86133,42.10223c-0.25977,0.08008-0.52051,0.12988-0.75,0.12988c-0.65918,0-1.13965-0.37012-1.13965-1.23926
				v-3.18848h-0.81934V37.2243h0.81934V35.8454l0.69043-0.51953v1.89844h1.18848v0.58008h-1.18848v3.09863
				c0,0.47949,0.21973,0.69922,0.60938,0.69922c0.16992,0,0.35938-0.04004,0.5791-0.10938L322.86133,42.10223z"/>
			<path d="M327.84082,39.08368v3.06836h-0.62988l-0.04004-0.75977c-0.38965,0.5498-0.98926,0.83984-1.76953,0.83984
				c-1.06934,0-1.69824-0.55957-1.69824-1.50977c0-0.49902,0.19922-0.87891,0.55957-1.09863
				c0.37988-0.21973,0.90918-0.31055,1.87891-0.31055h1.00879v-0.22949c0-0.85938-0.44922-1.3291-1.2793-1.3291
				c-0.61914,0-1.09863,0.26953-1.49902,0.81934l-0.49902-0.41992c0.5293-0.68945,1.16895-1.00879,2.00879-1.00879
				C327.12109,37.1452,327.84082,37.85419,327.84082,39.08368z M325.63184,36.5954l-1.23926-1.40918h0.73926l1.03906,1.40918
				H325.63184z M327.15039,39.94305v-0.06934h-0.94922c-0.90918,0-1.29883,0.05957-1.53906,0.24902
				c-0.17969,0.14062-0.26953,0.36035-0.26953,0.63965c0,0.5498,0.46973,0.90039,1.20898,0.90039
				C326.55078,41.66278,327.15039,40.99286,327.15039,39.94305z"/>
			<path d="M329.78223,41.05243h0.88965v1.09961h-0.88965V41.05243z M329.88184,35.18622h0.68945l-0.08008,4.99707h-0.5293
				L329.88184,35.18622z"/>
		</g>
		<g enable-background="new    ">
			<path d="M359.75293,39.04413h0.70996v6.96582h-0.70996V39.04413z"/>
			<path d="M372,42.93182v3.07812h-0.69043v-2.88867c0-0.41992,0-1.50879-1.0791-1.50879
				c-0.99902,0-1.26953,0.91895-1.26953,2.02832v2.36914h-0.68945v-2.84863c0-0.81934-0.25-1.54883-1.10938-1.54883
				c-0.95898,0-1.22949,0.90918-1.22949,2.02832v2.36914h-0.68945l-0.00977-4.92773h0.66992v0.60059
				c0.30957-0.49023,0.80957-0.67969,1.3584-0.67969c0.69043,0,1.2002,0.2998,1.44922,0.94922
				c0.32031-0.62988,0.87012-0.94922,1.61914-0.94922C371.50977,41.00311,372,41.78241,372,42.93182z"/>
			<path d="M373.27344,43.5412c0-1.45898,0.94922-2.53809,2.3584-2.53809c1.39941,0,2.36914,1.0791,2.36914,2.53809
				c0,1.44922-0.95996,2.54883-2.36914,2.54883S373.27344,45.00018,373.27344,43.5412z M377.31152,43.5412
				c0-1.11914-0.62988-1.92871-1.67969-1.92871c-1.05957,0-1.66895,0.81934-1.66895,1.92871
				c0,1.11914,0.62012,1.93945,1.66895,1.93945C376.69141,45.48065,377.31152,44.64081,377.31152,43.5412z"/>
			<path d="M382.90137,41.63202l-3.20801,3.78809h3.18848v0.58984h-4.09863v-0.5l3.27832-3.83789h-3.1084v-0.58984h3.94824V41.63202
				z"/>
			<path d="M387.77148,41.63202l-3.20801,3.78809h3.18848v0.58984h-4.09863v-0.5l3.27832-3.83789h-3.1084v-0.58984h3.94824V41.63202
				z"/>
			<path d="M392.75098,42.94159v3.06836h-0.62988l-0.04004-0.75977c-0.38965,0.5498-0.98926,0.83984-1.76855,0.83984
				c-1.06934,0-1.69922-0.55957-1.69922-1.50977c0-0.49902,0.2002-0.87891,0.55957-1.09863
				c0.37988-0.21973,0.91016-0.31055,1.87891-0.31055h1.00977v-0.22949c0-0.85938-0.4502-1.3291-1.2793-1.3291
				c-0.62012,0-1.09961,0.26953-1.49902,0.81934l-0.5-0.41992c0.5293-0.68945,1.16895-1.00879,2.00879-1.00879
				C392.03125,41.00311,392.75098,41.7121,392.75098,42.94159z M392.06152,43.80096v-0.06934h-0.94922
				c-0.91016,0-1.2998,0.05957-1.53906,0.24902c-0.18066,0.14062-0.27051,0.36035-0.27051,0.63965
				c0,0.5498,0.46973,0.90039,1.20996,0.90039C391.46191,45.52069,392.06152,44.85077,392.06152,43.80096z"/>
			<path d="M396.48242,45.96014c-0.25977,0.08008-0.52051,0.12988-0.75,0.12988c-0.65918,0-1.13965-0.37012-1.13965-1.23926
				v-3.18848h-0.81934v-0.58008h0.81934v-1.37891l0.69043-0.51953v1.89844h1.18848v0.58008h-1.18848v3.09863
				c0,0.47949,0.21973,0.69922,0.60938,0.69922c0.16992,0,0.35938-0.04004,0.5791-0.10938L396.48242,45.96014z"/>
			<path d="M397.31348,43.5412c0-1.45898,0.94922-2.53809,2.3584-2.53809c1.39941,0,2.36914,1.0791,2.36914,2.53809
				c0,1.44922-0.95996,2.54883-2.36914,2.54883S397.31348,45.00018,397.31348,43.5412z M401.35156,43.5412
				c0-1.11914-0.62988-1.92871-1.67969-1.92871c-1.05957,0-1.66895,0.81934-1.66895,1.92871
				c0,1.11914,0.62012,1.93945,1.66895,1.93945C400.73145,45.48065,401.35156,44.64081,401.35156,43.5412z"/>
			<path d="M406.43164,41.21307l-0.33984,0.55957c-0.22949-0.10059-0.43945-0.15039-0.64941-0.15039
				c-0.75977,0-1.31934,0.56934-1.31934,1.63965v2.74805h-0.68945v-4.92773h0.68945v0.74023
				c0.35938-0.64941,0.95898-0.81934,1.45898-0.81934C405.88184,41.00311,406.16211,41.06268,406.43164,41.21307z"/>
			<path d="M407.39355,39.04413h0.79883v1.01953h-0.79883V39.04413z M407.45312,41.08221h0.68945v4.92773h-0.68945V41.08221z"/>
			<path d="M416.81055,39.04413v6.96582h-0.68945v-0.65918c-0.35938,0.45898-0.90918,0.73926-1.62891,0.73926
				c-1.43945,0-2.18945-1.0791-2.18945-2.54883c0-1.53906,0.82031-2.54883,2.18945-2.54883c0.69922,0,1.25879,0.27051,1.62891,0.75
				v-2.69824H416.81055z M416.18066,43.5412c0-1.16895-0.59961-1.93848-1.58887-1.93848c-0.99902,0-1.59863,0.76953-1.59863,1.93848
				c0,1.11914,0.5498,1.93945,1.59863,1.93945C415.63086,45.48065,416.18066,44.66034,416.18066,43.5412z"/>
			<path d="M418.57324,39.04413h0.79883v1.01953h-0.79883V39.04413z M418.63281,41.08221h0.68945v4.92773h-0.68945V41.08221z"/>
			<path d="M427.80078,42.99139v3.01855h-0.68945v-2.84863c0-1.05957-0.33984-1.54883-1.08008-1.54883
				c-0.92969,0-1.46875,0.7998-1.46875,2.18848v2.20898h-0.68945v-4.92773h0.68945v0.71973
				c0.31934-0.49902,0.91895-0.79883,1.62891-0.79883C427.25098,41.00311,427.80078,41.6828,427.80078,42.99139z"/>
			<path d="M433.1709,42.94159v3.06836h-0.62988l-0.04004-0.75977c-0.38965,0.5498-0.98926,0.83984-1.76953,0.83984
				c-1.06934,0-1.69824-0.55957-1.69824-1.50977c0-0.49902,0.19922-0.87891,0.55957-1.09863
				c0.37988-0.21973,0.90918-0.31055,1.87891-0.31055h1.00879v-0.22949c0-0.85938-0.44922-1.3291-1.2793-1.3291
				c-0.61914,0-1.09863,0.26953-1.49902,0.81934l-0.49902-0.41992c0.5293-0.68945,1.16895-1.00879,2.00879-1.00879
				C432.45117,41.00311,433.1709,41.7121,433.1709,42.94159z M432.48047,43.80096v-0.06934h-0.94922
				c-0.90918,0-1.29883,0.05957-1.53906,0.24902c-0.17969,0.14062-0.26953,0.36035-0.26953,0.63965
				c0,0.5498,0.46973,0.90039,1.20898,0.90039C431.88086,45.52069,432.48047,44.85077,432.48047,43.80096z"/>
			<path d="M434.32324,44.80096l0.5791-0.25977c0.17969,0.50977,0.66016,0.93945,1.42969,0.93945
				c0.66895,0,1.09961-0.33008,1.09961-0.84961c0-1.30957-2.83887-0.49023-2.83887-2.23926
				c0-0.85938,0.69922-1.38867,1.68945-1.38867c0.78906,0,1.42871,0.3291,1.76855,1.0293l-0.5498,0.2998
				c-0.23926-0.44043-0.62988-0.71973-1.23926-0.71973s-0.99902,0.25-0.99902,0.67969c0,1.16895,2.84766,0.42969,2.84766,2.29883
				c0,0.99902-0.81934,1.49902-1.76855,1.49902C435.37207,46.09003,434.58301,45.59003,434.32324,44.80096z"/>
			<path d="M439.45215,39.04413h0.7998v1.01953h-0.7998V39.04413z M439.5127,41.08221h0.68945v4.92773h-0.68945V41.08221z"/>
		</g>
		<g enable-background="new    ">
			<path d="M359.82324,12.15204h0.70996v6.30664h3.17773v0.65918h-3.8877V12.15204z"/>
			<path d="M364.4834,16.64911c0-1.45898,0.94922-2.53809,2.3584-2.53809c1.39941,0,2.36914,1.0791,2.36914,2.53809
				c0,1.44922-0.95996,2.54883-2.36914,2.54883S364.4834,18.10809,364.4834,16.64911z M368.52148,16.64911
				c0-1.11914-0.62988-1.92871-1.67969-1.92871c-1.05957,0-1.66895,0.81934-1.66895,1.92871
				c0,1.11914,0.62012,1.93945,1.66895,1.93945C367.90137,18.58856,368.52148,17.74872,368.52148,16.64911z"/>
			<path d="M372.39355,21.10712l0.00977-0.55957c0.16992,0.05957,0.33008,0.0791,0.45996,0.0791
				c0.2998,0,0.46973-0.16992,0.46973-0.55957v-5.87695h0.67969v5.91699c0,0.7793-0.37012,1.12988-0.93945,1.12988
				C372.87305,21.237,372.64355,21.18719,372.39355,21.10712z M373.27344,12.15204h0.79883v1.01953h-0.79883V12.15204z"/>
			<path d="M379.64062,14.19012v4.92773h-0.68945V18.4079c-0.34961,0.53027-0.97949,0.79004-1.62891,0.79004
				c-1.11914,0-1.60938-0.76953-1.60938-1.98926v-3.01855h0.68945v2.84863c0,0.7998,0.14062,1.5498,1.08008,1.5498
				c0.97949,0,1.46875-0.84961,1.46875-2.12891v-2.26953H379.64062z"/>
			<path d="M380.93359,17.90887l0.5791-0.25977c0.17969,0.50977,0.66016,0.93945,1.42969,0.93945
				c0.66895,0,1.09961-0.33008,1.09961-0.84961c0-1.30957-2.83887-0.49023-2.83887-2.23926
				c0-0.85938,0.69922-1.38867,1.68945-1.38867c0.78906,0,1.42871,0.3291,1.76855,1.0293l-0.5498,0.2998
				c-0.23926-0.44043-0.62988-0.71973-1.23926-0.71973s-0.99902,0.25-0.99902,0.67969c0,1.16895,2.84766,0.42969,2.84766,2.29883
				c0,0.99902-0.81934,1.49902-1.76855,1.49902C381.98242,19.19794,381.19336,18.69794,380.93359,17.90887z"/>
			<path d="M393.36035,16.64911c0,1.46973-0.75,2.54883-2.18945,2.54883c-0.71875,0-1.26855-0.28027-1.62891-0.73926v2.69824
				h-0.68945v-6.9668h0.68945v0.66016c0.37012-0.47949,0.92969-0.75,1.62891-0.75
				C392.54102,14.10028,393.36035,15.11005,393.36035,16.64911z M392.6709,16.64911c0-1.16895-0.59961-1.93848-1.59961-1.93848
				c-0.98926,0-1.58887,0.76953-1.58887,1.93848c0,1.11914,0.5498,1.93945,1.58887,1.93945
				C392.12109,18.58856,392.6709,17.76825,392.6709,16.64911z"/>
			<path d="M397.79102,14.32098l-0.33984,0.55957c-0.22949-0.10059-0.43945-0.15039-0.64941-0.15039
				c-0.75977,0-1.31934,0.56934-1.31934,1.63965v2.74805h-0.68945v-4.92773h0.68945v0.74023
				c0.35938-0.64941,0.95898-0.81934,1.45898-0.81934C397.24121,14.11102,397.52148,14.17059,397.79102,14.32098z"/>
			<path d="M398.75293,12.15204h0.79883v1.01953h-0.79883V12.15204z M398.8125,14.19012h0.68945v4.92773h-0.68945V14.19012z"/>
			<path d="M408.0791,16.03973v3.07812h-0.68945v-2.88867c0-0.41992,0-1.50879-1.0791-1.50879c-1,0-1.26953,0.91895-1.26953,2.02832
				v2.36914h-0.68945v-2.84863c0-0.81934-0.25-1.54883-1.10938-1.54883c-0.95996,0-1.22949,0.90918-1.22949,2.02832v2.36914
				h-0.68945l-0.01074-4.92773h0.66992v0.60059c0.30957-0.49023,0.80957-0.67969,1.35938-0.67969
				c0.68945,0,1.19922,0.2998,1.44922,0.94922c0.31934-0.62988,0.86914-0.94922,1.61914-0.94922
				C407.58984,14.11102,408.0791,14.89032,408.0791,16.03973z"/>
			<path d="M413.45117,16.0495v3.06836h-0.62988l-0.04004-0.75977c-0.38965,0.5498-0.98926,0.83984-1.76953,0.83984
				c-1.06934,0-1.69824-0.55957-1.69824-1.50977c0-0.49902,0.19922-0.87891,0.55957-1.09863
				c0.37988-0.21973,0.90918-0.31055,1.87891-0.31055h1.00879V16.0495c0-0.85938-0.44922-1.3291-1.2793-1.3291
				c-0.61914,0-1.09863,0.26953-1.49902,0.81934l-0.49902-0.41992c0.5293-0.68945,1.16895-1.00879,2.00879-1.00879
				C412.73145,14.11102,413.45117,14.82001,413.45117,16.0495z M412.76074,16.90887v-0.06934h-0.94922
				c-0.90918,0-1.29883,0.05957-1.53906,0.24902c-0.17969,0.14062-0.26953,0.36035-0.26953,0.63965
				c0,0.5498,0.46973,0.90039,1.20898,0.90039C412.16113,18.6286,412.76074,17.95868,412.76074,16.90887z"/>
			<path d="M419.03027,16.83954h-3.6084c0.02051,1.0791,0.62012,1.72852,1.58984,1.72852c0.53906,0,0.96875-0.13965,1.41895-0.61914
				l0.47949,0.41895c-0.5791,0.61035-1.14941,0.83008-1.90918,0.83008c-1.49902,0-2.26855-1.11914-2.26855-2.51855
				c0-1.38965,0.75977-2.56836,2.18945-2.56836c1.50879,0,2.13867,1.17871,2.13867,2.29785
				C419.06055,16.5495,419.0498,16.71942,419.03027,16.83954z M415.42188,16.25946h2.97852
				c0-0.02051-0.00977-0.07031-0.00977-0.16016c-0.0498-0.7998-0.55957-1.40918-1.46875-1.40918
				C416.03223,14.69012,415.48242,15.39032,415.42188,16.25946z"/>
			<path d="M427.11035,16.0993v3.01855h-0.68945v-2.84863c0-1.05957-0.33984-1.54883-1.08008-1.54883
				c-0.92969,0-1.46875,0.7998-1.46875,2.18848v2.20898h-0.68945v-4.92773h0.68945v0.71973
				c0.31934-0.49902,0.91895-0.79883,1.62891-0.79883C426.56055,14.11102,427.11035,14.79071,427.11035,16.0993z"/>
			<path d="M428.38184,16.64911c0-1.45898,0.9502-2.53809,2.35938-2.53809c1.39941,0,2.36816,1.0791,2.36816,2.53809
				c0,1.44922-0.95898,2.54883-2.36816,2.54883S428.38184,18.10809,428.38184,16.64911z M432.41992,16.64911
				c0-1.11914-0.62988-1.92871-1.67871-1.92871c-1.05957,0-1.66895,0.81934-1.66895,1.92871
				c0,1.11914,0.61914,1.93945,1.66895,1.93945C431.80078,18.58856,432.41992,17.74872,432.41992,16.64911z"/>
			<path d="M434.0918,16.66962c0-1.2998,0.73047-2.55859,2.21875-2.55859c0.87988,0,1.60938,0.43945,1.99902,1.3584
				l-0.65918,0.26074c-0.22949-0.62988-0.71973-1.00977-1.33984-1.00977c-1.04883,0-1.51855,0.93945-1.51855,1.94922
				c0,1.00879,0.46973,1.91895,1.5293,1.91895c0.61914,0,1.10938-0.37012,1.29883-1l0.63965,0.24023
				c-0.33008,0.89941-1.04883,1.36914-1.93848,1.36914C434.8916,19.19794,434.0918,18.03876,434.0918,16.66962z"/>
			<path d="M441.63086,19.06805c-0.25977,0.08008-0.51953,0.12988-0.74902,0.12988c-0.66016,0-1.13965-0.37012-1.13965-1.23926
				V14.7702h-0.81934v-0.58008h0.81934v-1.37891l0.68945-0.51953v1.89844h1.18945v0.58008h-1.18945v3.09863
				c0,0.47949,0.21973,0.69922,0.60938,0.69922c0.16992,0,0.36035-0.04004,0.58008-0.10938L441.63086,19.06805z"/>
			<path d="M442.88184,12.15204h0.7998v1.01953h-0.7998V12.15204z M442.94238,14.19012h0.68945v4.92773h-0.68945V14.19012z"/>
			<path d="M444.92188,17.90887l0.58008-0.25977c0.17969,0.50977,0.65918,0.93945,1.42871,0.93945
				c0.66992,0,1.09961-0.33008,1.09961-0.84961c0-1.30957-2.83887-0.49023-2.83887-2.23926
				c0-0.85938,0.7002-1.38867,1.68945-1.38867c0.79004,0,1.42969,0.3291,1.76953,1.0293l-0.5498,0.2998
				c-0.24023-0.44043-0.62988-0.71973-1.23926-0.71973c-0.61035,0-1,0.25-1,0.67969c0,1.16895,2.84863,0.42969,2.84863,2.29883
				c0,0.99902-0.81934,1.49902-1.76953,1.49902C445.97168,19.19794,445.18164,18.69794,444.92188,17.90887z"/>
		</g>
	</g>
</g>
</svg>
