<svg xmlns="http://www.w3.org/2000/svg" viewBox="0 0 400 650"><defs><style>.cls-1,.cls-10,.cls-6{fill:#00c19c;}.cls-12,.cls-13,.cls-14,.cls-2,.cls-3{fill:none;}.cls-13,.cls-2{stroke:#ff6c39;}.cls-12,.cls-13,.cls-14,.cls-2,.cls-3,.cls-4,.cls-5,.cls-6{stroke-miterlimit:10;}.cls-2,.cls-3{stroke-width:0.33px;}.cls-12,.cls-3{stroke:#00c19c;}.cls-4,.cls-8{fill:orange;}.cls-4,.cls-5,.cls-6{stroke:#fff;stroke-width:0.22px;}.cls-5,.cls-9{fill:#ff6c39;}.cls-10,.cls-7,.cls-8,.cls-9{isolation:isolate;}.cls-10,.cls-8,.cls-9{font-size:5px;font-family:ArialMT, Arial;}.cls-11{letter-spacing:-0.07em;}.cls-12,.cls-13,.cls-14{stroke-width:7px;}.cls-14{stroke:orange;}.cls-15,.cls-25{font-size:10px;fill:#1d1d1b;}.cls-15{font-family:HKGrotesk-MediumItalic, HK Grotesk;font-weight:500;font-style:italic;}.cls-16{letter-spacing:-0.01em;}.cls-17{letter-spacing:-0.02em;}.cls-18{letter-spacing:0em;}.cls-19{letter-spacing:-0.01em;}.cls-20{letter-spacing:0em;}.cls-21{letter-spacing:0em;}.cls-22{letter-spacing:-0.01em;}.cls-23{letter-spacing:0em;}.cls-24{letter-spacing:-0.01em;}.cls-25{font-family:HKGrotesk-Regular, HK Grotesk;}.cls-26{letter-spacing:-0.04em;}.cls-27{letter-spacing:0em;}</style></defs><title>zoom_01</title><g id="Layer_1" data-name="Layer 1"><path class="cls-1" d="M284,534.05q-2.44,5.3-5.35,10.38l-.19-.12q2.9-5.05,5.34-10.36Z"/><path class="cls-1" d="M263.25,566.1a136.33,136.33,0,1,1,33.15-95.77h-.22A136.1,136.1,0,1,0,263.09,566Z"/><line class="cls-2" x1="276" y1="493" x2="294.95" y2="496.19"/><line class="cls-3" x1="270.43" y1="533.64" x2="281.2" y2="539.19"/><line class="cls-3" x1="41" y1="436" x2="31.58" y2="432.3"/><line class="cls-3" x1="303" y1="375" x2="327.99" y2="357.35"/><line class="cls-3" x1="334" y1="452" x2="364.08" y2="447.51"/><circle class="cls-4" cx="261.5" cy="481.64" r="0.56"/><circle class="cls-5" cx="260.58" cy="491.25" r="0.56"/><circle class="cls-5" cx="294.95" cy="496.19" r="0.56"/><circle class="cls-5" cx="258.75" cy="500.72" r="0.56"/><circle class="cls-6" cx="250.34" cy="523.28" r="0.56"/><circle class="cls-5" cx="283.76" cy="533.95" r="0.56"/><circle class="cls-5" cx="282.08" cy="537.46" r="0.56"/><circle class="cls-5" cx="280.3" cy="540.91" r="0.56"/><circle class="cls-5" cx="278.42" cy="544.31" r="0.56"/><circle class="cls-6" cx="64.39" cy="443.65" r="0.56"/><circle class="cls-5" cx="263.09" cy="565.96" r="0.56"/><circle class="cls-5" cx="254.15" cy="575.33" r="0.56"/><circle class="cls-5" cx="244.36" cy="583.81" r="0.56"/><circle class="cls-5" cx="233.81" cy="591.33" r="0.56"/><circle class="cls-5" cx="222.59" cy="597.8" r="0.56"/><circle class="cls-5" cx="210.8" cy="603.19" r="0.56"/><circle class="cls-5" cx="198.56" cy="607.42" r="0.56"/><circle class="cls-5" cx="185.97" cy="610.48" r="0.56"/><circle class="cls-5" cx="173.15" cy="612.32" r="0.56"/><circle class="cls-5" cx="160.21" cy="612.94" r="0.56"/><circle class="cls-5" cx="147.28" cy="612.32" r="0.56"/><circle class="cls-5" cx="134.45" cy="610.48" r="0.56"/><circle class="cls-5" cx="121.86" cy="607.42" r="0.56"/><circle class="cls-5" cx="109.62" cy="603.19" r="0.56"/><circle class="cls-5" cx="97.84" cy="597.8" r="0.56"/><circle class="cls-5" cx="86.62" cy="591.33" r="0.56"/><circle class="cls-5" cx="76.07" cy="583.81" r="0.56"/><circle class="cls-5" cx="66.28" cy="575.33" r="0.56"/><circle class="cls-5" cx="57.34" cy="565.96" r="0.56"/><circle class="cls-5" cx="49.33" cy="555.77" r="0.56"/><circle class="cls-5" cx="42.33" cy="544.88" r="0.56"/><circle class="cls-5" cx="36.4" cy="533.36" r="0.56"/><circle class="cls-5" cx="31.58" cy="521.34" r="0.56"/><circle class="cls-5" cx="27.93" cy="508.91" r="0.56"/><circle class="cls-5" cx="25.48" cy="496.19" r="0.56"/><circle class="cls-5" cx="24.25" cy="483.29" r="0.56"/><circle class="cls-5" cx="24.25" cy="470.34" r="0.56"/><circle class="cls-5" cx="25.48" cy="457.45" r="0.56"/><circle class="cls-5" cx="27.93" cy="444.73" r="0.56"/><circle class="cls-5" cx="31.58" cy="432.3" r="0.56"/><circle class="cls-5" cx="36.4" cy="420.27" r="0.56"/><circle class="cls-5" cx="42.33" cy="408.76" r="0.56"/><circle class="cls-5" cx="49.33" cy="397.86" r="0.56"/><circle class="cls-5" cx="57.34" cy="387.68" r="0.56"/><circle class="cls-5" cx="66.28" cy="378.3" r="0.56"/><circle class="cls-5" cx="76.07" cy="369.82" r="0.56"/><circle class="cls-5" cx="86.62" cy="362.31" r="0.56"/><circle class="cls-5" cx="97.84" cy="355.83" r="0.56"/><circle class="cls-5" cx="109.62" cy="350.45" r="0.56"/><circle class="cls-5" cx="121.86" cy="346.21" r="0.56"/><circle class="cls-5" cx="134.45" cy="343.16" r="0.56"/><circle class="cls-5" cx="147.28" cy="341.31" r="0.56"/><circle class="cls-5" cx="160.21" cy="340.7" r="0.56"/><circle class="cls-5" cx="173.15" cy="341.31" r="0.56"/><circle class="cls-5" cx="185.97" cy="343.16" r="0.56"/><circle class="cls-5" cx="198.56" cy="346.21" r="0.56"/><circle class="cls-5" cx="210.8" cy="350.45" r="0.56"/><circle class="cls-5" cx="222.59" cy="355.83" r="0.56"/><circle class="cls-5" cx="233.81" cy="362.31" r="0.56"/><circle class="cls-5" cx="244.36" cy="369.82" r="0.56"/><circle class="cls-5" cx="254.15" cy="378.3" r="0.56"/><circle class="cls-5" cx="263.09" cy="387.68" r="0.56"/><circle class="cls-6" cx="271.09" cy="397.86" r="0.56"/><circle class="cls-5" cx="327.99" cy="357.35" r="0.56"/><circle class="cls-6" cx="278.1" cy="408.76" r="0.56"/><circle class="cls-6" cx="284.03" cy="420.27" r="0.56"/><circle class="cls-6" cx="292.5" cy="444.73" r="0.56"/><circle class="cls-6" cx="294.95" cy="457.45" r="0.56"/><circle class="cls-5" cx="364.08" cy="447.51" r="0.56"/><circle class="cls-4" cx="296.18" cy="470.34" r="0.56"/><g id="V005_Parigi" data-name="V005@Parigi" class="cls-7"><text class="cls-8" transform="translate(264.68 481.79) rotate(2.73)">Parigi</text></g><g id="V005_mare" data-name="V005@mare" class="cls-7"><text class="cls-9" transform="translate(263.73 491.7) rotate(8.18)">mare</text></g><g id="V005_mare_barca" data-name="V005@mare@barca" class="cls-7"><text class="cls-9" transform="translate(298.1 496.64) rotate(8.18)">barca</text></g><g id="V005_mongolfiera" data-name="V005@mongolfiera" class="cls-7"><text class="cls-9" transform="translate(261.85 501.47) rotate(13.64)">mongolfiera</text></g><g id="V005_Olivabassa" data-name="V005@Olivabassa" class="cls-7"><text class="cls-10" transform="translate(253.17 524.74) rotate(27.27)">Olivabassa</text></g><g id="V005_Olivabassa_ciliegio" data-name="V005@Olivabassa@ciliegio" class="cls-7"><text class="cls-9" transform="translate(286.65 535.29) rotate(24.82)">ciliegio</text></g><g id="V005_Olivabassa_mandorlo" data-name="V005@Olivabassa@mandorlo" class="cls-7"><text class="cls-9" transform="translate(284.93 538.88) rotate(26.45)">mandorlo</text></g><g id="V005_Olivabassa_platano" data-name="V005@Olivabassa@platano" class="cls-7"><text class="cls-9" transform="translate(283.11 542.41) rotate(28.09)">platano</text></g><g id="V005_Olivabassa_quercia" data-name="V005@Olivabassa@quercia" class="cls-7"><text class="cls-9" transform="matrix(0.87, 0.5, -0.5, 0.87, 281.18, 545.89)">quercia</text></g><g id="V005_Ombrosa" data-name="V005@Ombrosa" class="cls-7"><text class="cls-10" transform="translate(41.65 437.17) rotate(19.09)">Ombrosa</text></g><g id="V005_Ombrosa_olivo" data-name="V005@Ombrosa@olivo" class="cls-7"><text class="cls-9" transform="matrix(0.76, 0.65, -0.65, 0.76, 265.49, 568.04)">olivo</text></g><g id="V005_Ombrosa_vigne" data-name="V005@Ombrosa@vigne" class="cls-7"><text class="cls-9" transform="translate(256.35 577.64) rotate(46.36)">vigne</text></g><g id="V005_Ombrosa_valle" data-name="V005@Ombrosa@valle" class="cls-7"><text class="cls-9" transform="matrix(0.62, 0.79, -0.79, 0.62, 246.33, 586.32)">valle</text></g><g id="V005_Ombrosa_vallata" data-name="V005@Ombrosa@vallata" class="cls-7"><text class="cls-9" transform="translate(235.53 594.01) rotate(57.27)">vallata</text></g><g id="V005_Ombrosa_bandita" data-name="V005@Ombrosa@bandita" class="cls-7"><text class="cls-9" transform="translate(224.05 600.63) rotate(62.73)">bandita</text></g><g id="V005_Ombrosa_bosco" data-name="V005@Ombrosa@bosco" class="cls-7"><text class="cls-9" transform="translate(211.99 606.14) rotate(68.18)">bosco</text></g><g id="V005_Ombrosa_bottega" data-name="V005@Ombrosa@bottega" class="cls-7"><text class="cls-9" transform="matrix(0.28, 0.96, -0.96, 0.28, 199.46, 610.48)">bottega</text></g><g id="V005_Ombrosa_campo" data-name="V005@Ombrosa@campo" class="cls-7"><text class="cls-9" transform="matrix(0.19, 0.98, -0.98, 0.19, 186.58, 613.6)">campo</text></g><g id="V005_Ombrosa_carrozza" data-name="V005@Ombrosa@carrozza" class="cls-7"><text class="cls-9" transform="translate(173.46 615.49) rotate(84.55)">carrozza</text></g><g id="V005_Ombrosa_carrubo" data-name="V005@Ombrosa@carrubo" class="cls-7"><text class="cls-9" transform="translate(160.21 616.12) rotate(90)">carrubo</text></g><g id="V005_Ombrosa_casa_del_gabelliere" data-name="V005@Ombrosa@casa_del_gabelliere" class="cls-7"><text class="cls-9" transform="translate(144.11 645.46) rotate(-84.55)">casa del gabelliere</text></g><g id="V005_Ombrosa_castagneto" data-name="V005@Ombrosa@castagneto" class="cls-7"><text class="cls-9" transform="matrix(0.19, -0.98, 0.98, 0.19, 130.23, 632.39)">castagneto</text></g><g id="V005_Ombrosa_castagno" data-name="V005@Ombrosa@castagno" class="cls-7"><text class="cls-9" transform="translate(116.33 626.29) rotate(-73.64)">castagno</text></g><g id="V005_Ombrosa_cattedrale" data-name="V005@Ombrosa@cattedrale" class="cls-7"><text class="cls-9" transform="translate(101.92 622.42) rotate(-68.18)">cattedrale</text></g><g id="V005_Ombrosa_ciliegio" data-name="V005@Ombrosa@ciliegio" class="cls-7"><text class="cls-9" transform="translate(90.29 612.45) rotate(-62.73)">ciliegio</text></g><g id="V005_Ombrosa_cimitero" data-name="V005@Ombrosa@cimitero" class="cls-7"><text class="cls-9" transform="matrix(0.54, -0.84, 0.84, 0.54, 76.95, 606.37)">cimitero</text></g><g id="V005_Ombrosa_colline" data-name="V005@Ombrosa@colline" class="cls-7"><text class="cls-9" transform="translate(66.33 596.21) rotate(-51.82)">colline</text></g><g id="V005_Ombrosa_elce" data-name="V005@Ombrosa@elce" class="cls-7"><text class="cls-9" transform="matrix(0.69, -0.72, 0.72, 0.69, 57.6, 584.44)">elce</text></g><g id="V005_Ombrosa_faggio" data-name="V005@Ombrosa@faggio" class="cls-7"><text class="cls-9" transform="matrix(0.76, -0.65, 0.65, 0.76, 45.69, 576.05)">faggio</text></g><g id="V005_Ombrosa_fico" data-name="V005@Ombrosa@fico" class="cls-7"><text class="cls-9" transform="translate(39.81 562.56) rotate(-35.45)">fico</text></g><g id="V005_Ombrosa_frassino" data-name="V005@Ombrosa@frassino" class="cls-7"><text class="cls-9" transform="translate(26.84 553.82) rotate(-30)">frassino</text></g><g id="V005_Ombrosa_frutteto" data-name="V005@Ombrosa@frutteto" class="cls-7"><text class="cls-9" transform="translate(21.25 540.28) rotate(-24.55)">frutteto</text></g><g id="V005_Ombrosa_gelso" data-name="V005@Ombrosa@gelso" class="cls-7"><text class="cls-9" transform="translate(18.02 526.03) rotate(-19.09)">gelso</text></g><g id="V005_Ombrosa_glicine" data-name="V005@Ombrosa@glicine" class="cls-7"><text class="cls-9" transform="matrix(0.97, -0.24, 0.24, 0.97, 12.61, 512.63)">glicine</text></g><g id="V005_Ombrosa_grotta" data-name="V005@Ombrosa@grotta" class="cls-7"><text class="cls-9" transform="matrix(0.99, -0.14, 0.14, 0.99, 10.75, 498.31)">grotta</text></g><g id="V005_Ombrosa_magnolia" data-name="V005@Ombrosa@magnolia" class="cls-7"><text class="cls-9" transform="translate(4.61 484.23) rotate(-2.73)">magnolia</text></g><g id="V005_Ombrosa_melograno" data-name="V005@Ombrosa@melograno" class="cls-7"><text class="cls-9" transform="translate(2.49 469.3) rotate(2.73)">melograno</text></g><g id="V005_Ombrosa_muro" data-name="V005@Ombrosa@muro" class="cls-7"><text class="cls-9" transform="matrix(0.99, 0.14, -0.14, 0.99, 11.63, 455.45)">muro</text></g><g id="V005_Ombrosa_noce" data-name="V005@Ombrosa@noce" class="cls-7"><text class="cls-9" transform="matrix(0.97, 0.24, -0.24, 0.97, 14.67, 441.51)">noce</text></g><g id="V005_Ombrosa_tana" data-name="V005@Ombrosa@tana" class="cls-7"><text class="cls-9" transform="translate(19.36 428.07) rotate(19.09)">tana</text></g><g id="V005_Ombrosa_olmo" data-name="V005@Ombrosa@olmo" class="cls-7"><text class="cls-9" transform="translate(23.99 414.6) rotate(24.55)">olmo</text></g><g id="V005_Ombrosa_orti" data-name="V005@Ombrosa@orti" class="cls-7"><text class="cls-9" transform="translate(32.66 403.18) rotate(30)">orti</text></g><g id="V005_Ombrosa_osteria" data-name="V005@Ombrosa@osteria" class="cls-7"><text class="cls-9" transform="translate(36.06 388.41) rotate(35.45)">osteria</text></g><g id="V005_Ombrosa_padiglione" data-name="V005@Ombrosa@padiglione" class="cls-7"><text class="cls-9" transform="matrix(0.76, 0.65, -0.65, 0.76, 41.28, 373.76)">padiglione</text></g><g id="V005_Ombrosa_palazzo" data-name="V005@Ombrosa@palazzo" class="cls-7"><text class="cls-9" transform="matrix(0.69, 0.72, -0.72, 0.69, 54.06, 365.48)">palazzo</text></g><g id="V005_Ombrosa_parchi" data-name="V005@Ombrosa@parchi" class="cls-7"><text class="cls-9" transform="translate(66.54 357.71) rotate(51.82)">parchi</text></g><g id="V005_Ombrosa_parco" data-name="V005@Ombrosa@parco" class="cls-7"><text class="cls-9" transform="matrix(0.54, 0.84, -0.84, 0.54, 78.67, 349.93)">parco</text></g><g id="V005_Ombrosa_pesco" data-name="V005@Ombrosa@pesco" class="cls-7"><text class="cls-9" transform="translate(90.86 342.29) rotate(62.73)">pesco</text></g><g id="V005_Ombrosa_piazza" data-name="V005@Ombrosa@piazza" class="cls-7"><text class="cls-9" transform="translate(103.7 335.65) rotate(68.18)">piazza</text></g><g id="V005_Ombrosa_pino" data-name="V005@Ombrosa@pino" class="cls-7"><text class="cls-9" transform="translate(118.27 333.97) rotate(73.64)">pino</text></g><g id="V005_Ombrosa_platano" data-name="V005@Ombrosa@platano" class="cls-7"><text class="cls-9" transform="matrix(0.19, 0.98, -0.98, 0.19, 131.2, 326.28)">platano</text></g><g id="V005_Ombrosa_porto" data-name="V005@Ombrosa@porto" class="cls-7"><text class="cls-9" transform="translate(145.95 327.38) rotate(84.55)">porto</text></g><g id="V005_Ombrosa_prato" data-name="V005@Ombrosa@prato" class="cls-7"><text class="cls-9" transform="translate(160.22 337.51) rotate(-90)">prato</text></g><g id="V005_Ombrosa_prigione" data-name="V005@Ombrosa@prigione" class="cls-7"><text class="cls-9" transform="translate(173.46 338.15) rotate(-84.55)">prigione</text></g><g id="V005_Ombrosa_riva" data-name="V005@Ombrosa@riva" class="cls-7"><text class="cls-9" transform="matrix(0.19, -0.98, 0.98, 0.19, 186.58, 340.03)">riva</text></g><g id="V005_Ombrosa_rovere" data-name="V005@Ombrosa@rovere" class="cls-7"><text class="cls-9" transform="translate(199.46 343.16) rotate(-73.64)">rovere</text></g><g id="V005_Ombrosa_sagrato" data-name="V005@Ombrosa@sagrato" class="cls-7"><text class="cls-9" transform="translate(211.99 347.49) rotate(-68.18)">sagrato</text></g><g id="V005_Ombrosa_salice" data-name="V005@Ombrosa@salice" class="cls-7"><text class="cls-9" transform="translate(224.05 353) rotate(-62.73)">salice</text></g><g id="V005_Ombrosa_spiaggia" data-name="V005@Ombrosa@spiaggia" class="cls-7"><text class="cls-9" transform="matrix(0.54, -0.84, 0.84, 0.54, 235.53, 359.63)">spiaggia</text></g><g id="V005_Ombrosa_stanzetta" data-name="V005@Ombrosa@stanzetta" class="cls-7"><text class="cls-9" transform="translate(246.33 367.32) rotate(-51.82)">stanzetta</text></g><g id="V005_Ombrosa_strada" data-name="V005@Ombrosa@strada" class="cls-7"><text class="cls-9" transform="matrix(0.69, -0.72, 0.72, 0.69, 256.35, 376)">strada</text></g><g id="V005_Ombrosa_susino" data-name="V005@Ombrosa@susino" class="cls-7"><text class="cls-9" transform="matrix(0.76, -0.65, 0.65, 0.76, 265.49, 385.59)">susino</text></g><g id="V005_Ombrosa_villa_d_Ondariva" data-name="V005@Ombrosa@villa_d&apos;Ondariva" class="cls-7"><text class="cls-10" transform="translate(273.69 396.01) rotate(-35.45)">villa d&apos;Ondariva</text></g><g id="V005_Ombrosa_villa_d_Ondariva_giardino__D_Ondariva_" data-name="V005@Ombrosa@villa_d&apos;Ondariva@giardino_(D&apos;Ondariva)" class="cls-7"><text class="cls-9" transform="translate(330.58 355.5) rotate(-35.45)">giardino (D&apos;Ondariva)</text></g><g id="V005_Ombrosa_Vasca_Grande" data-name="V005@Ombrosa@Vasca_Grande" class="cls-7"><text class="cls-10" transform="translate(280.86 407.16) rotate(-30)"><tspan class="cls-11">V</tspan><tspan x="2.96" y="0">asca Grande</tspan></text></g><g id="V005_Ombrosa_Quercia_delle_Cinque_Passere" data-name="V005@Ombrosa@Quercia_delle_Cinque_Passere" class="cls-7"><text class="cls-10" transform="translate(286.93 418.95) rotate(-24.55)">Quercia delle Cinque</text></g><g id="V005_Ombrosa_Quercia_delle_Cinque_Passere_1" data-name="V005@Ombrosa@Quercia_delle_Cinque_Passere_1" class="cls-7"><text class="cls-10" transform="translate(288.87 423.41) rotate(-22.55)">Passere</text></g><g id="V005_Ombrosa_Porta_Capperi" data-name="V005@Ombrosa@Porta_Capperi" class="cls-7"><text class="cls-10" transform="matrix(0.97, -0.24, 0.24, 0.97, 295.59, 443.97)">Porta Capperi</text></g><g id="V005_Ombrosa_villa_d_Ombrosa" data-name="V005@Ombrosa@villa_d&apos;Ombrosa" class="cls-7"><text class="cls-10" transform="matrix(0.99, -0.14, 0.14, 0.99, 298.1, 456.99)">villa d&apos;Ombrosa</text></g><g id="V005_Ombrosa_villa_d_Ombrosa_giardino__villa_" data-name="V005@Ombrosa@villa_d&apos;Ombrosa@giardino_(villa)" class="cls-7"><text class="cls-9" transform="matrix(0.99, -0.14, 0.14, 0.99, 367.23, 447.05)">giardino (villa)</text></g><g id="V005_Ombrosa_Cammino_dell_Artiglieria" data-name="V005@Ombrosa@Cammino_dell&apos;Artiglieria" class="cls-7"><text class="cls-8" transform="translate(299.36 470.19) rotate(-2.73)">Cammino dell&apos;Artiglieria</text></g></g><g id="Isolation_Mode" data-name="Isolation Mode"><path d="M159.5,377.41A101.09,101.09,0,1,1,58.41,478.5,101.21,101.21,0,0,1,159.5,377.41m0-.41A101.5,101.5,0,1,0,261,478.5,101.5,101.5,0,0,0,159.5,377Z"/><path class="cls-12" d="M246.94,170.22A102,102,0,1,1,257,126"/><path class="cls-13" d="M256.56,135.49a101.07,101.07,0,0,1-9.62,34.73"/><path class="cls-14" d="M257,126q0,4.8-.44,9.49"/><text class="cls-15" transform="translate(5.67 291.61)"><tspan class="cls-16">R</tspan><tspan x="6.06" y="0">elazione ge</tspan><tspan class="cls-17" x="56.2" y="0">r</tspan><tspan class="cls-18" x="59.94" y="0">a</tspan><tspan class="cls-17" x="65.77" y="0">r</tspan><tspan x="69.51" y="0">chi</tspan><tspan class="cls-19" x="82.49" y="0">c</tspan><tspan x="87.4" y="0">a dei </tspan><tspan class="cls-20" x="111.97" y="0">lu</tspan><tspan class="cls-21" x="120.12" y="0">oghi</tspan><tspan x="0" y="12">LE MEDUSE</tspan></text><text class="cls-15" transform="translate(5.67 14.85)"><tspan class="cls-22">P</tspan><tspan class="cls-23" x="5.66" y="0">r</tspan><tspan x="9.65" y="0">imo li</tspan><tspan class="cls-24" x="33.75" y="0">v</tspan><tspan x="38.5" y="0">ello</tspan></text><text class="cls-25" transform="translate(114.35 125.43)">Il ba<tspan class="cls-26" x="19.71" y="0">r</tspan><tspan class="cls-18" x="23.28" y="0">one rampan</tspan><tspan class="cls-27" x="77.4" y="0">t</tspan><tspan x="80.71" y="0">e</tspan></text><text class="cls-25" transform="translate(114.35 478.43)">Il ba<tspan class="cls-26" x="19.71" y="0">r</tspan><tspan class="cls-18" x="23.28" y="0">one rampan</tspan><tspan class="cls-27" x="77.4" y="0">t</tspan><tspan x="80.71" y="0">e</tspan></text></g></svg>