<svg xmlns="http://www.w3.org/2000/svg" xmlns:xlink="http://www.w3.org/1999/xlink" width="600" height="168" viewBox="0 0 600 168">
  <defs>
    <clipPath id="clip-zoom-04">
      <rect width="600" height="168"/>
    </clipPath>
  </defs>
  <g id="zoom-04" clip-path="url(#clip-zoom-04)">
    <g id="zoom_04" transform="translate(18.7 -13.79)">
      <g id="Layer_3" data-name="Layer 3">
        <g id="Group_24058" data-name="Group 24058" opacity="0.8">
          <line id="Line_7828" data-name="Line 7828" x2="1647.86" transform="translate(-183.7 99)" fill="none" stroke="#000" stroke-miterlimit="10" stroke-width="0.38" stroke-dasharray="4.56 4.56"/>
        </g>
      </g>
    </g>
    <g id="infosheet-spazio" transform="translate(-34.6 -189.92)">
      <g id="lines" transform="translate(151.527 16.154)">
        <line id="Line_7786" data-name="Line 7786" y1="17.375" transform="translate(4.59 231.666)" fill="none" stroke="#000" stroke-miterlimit="10" stroke-width="0.5"/>
        <path id="Path_148051" data-name="Path 148051" d="M245.4,199.6v37a4.8,4.8,0,0,0,4.9,4.806h3.231" transform="translate(-136.911 4.441)" fill="none" stroke="#000" stroke-miterlimit="10" stroke-width="0.5"/>
        <path id="Path_148052" data-name="Path 148052" d="M246.7,233.338V221.864a5.411,5.411,0,0,1,5.464-5.464h3.715" transform="translate(-128.791 3.464)" fill="none" stroke="#000" stroke-miterlimit="10" stroke-width="0.5"/>
        <path id="Path_148053" data-name="Path 148053" d="M251.2,267.3v16.719a5.644,5.644,0,0,0,5.682,5.682h3.388" transform="translate(-128.373 8.186)" fill="none" stroke="#000" stroke-miterlimit="10" stroke-width="0.5"/>
        <path id="Path_148054" data-name="Path 148054" d="M219.6,290.661h4.917a5.411,5.411,0,0,0,5.464-5.464v-21.78" transform="translate(320.277 552.269) rotate(180)" fill="none" stroke="#000" stroke-miterlimit="10" stroke-width="0.5"/>
        <line id="Line_7788" data-name="Line 7788" y2="33.657" transform="translate(100.392 270.677)" fill="none" stroke="#000" stroke-miterlimit="10" stroke-width="0.5"/>
        <path id="Path_148055" data-name="Path 148055" d="M231.235,238.588V213.564a5.411,5.411,0,0,0-5.464-5.464H221.4" transform="translate(-131.138 2.694)" fill="none" stroke="#000" stroke-miterlimit="10" stroke-width="0.5"/>
      </g>
      <g id="viz" transform="translate(7.763 4.92)">
        <g id="pallozzi" transform="translate(4.917 76.581)">
          <circle id="circle-125" cx="3.388" cy="3.388" r="3.388" transform="translate(44.65 189.376)" fill="#fff" stroke="#000" stroke-miterlimit="10" stroke-width="0.25"/>
          <circle id="circle-126" cx="3.497" cy="3.497" r="3.497" transform="translate(44.541 197.244)" fill="#fff" stroke="#000" stroke-miterlimit="10" stroke-width="0.25"/>
          <circle id="circle-127" cx="3.278" cy="3.278" r="3.278" transform="translate(44.76 181.836)" fill="#fff" stroke="#000" stroke-miterlimit="10" stroke-width="0.25"/>
          <circle id="circle-128" cx="4.043" cy="4.043" r="4.043" transform="translate(101.365 197.353)" fill="#fff" stroke="#000" stroke-miterlimit="10" stroke-width="0.25"/>
          <circle id="circle-129" cx="3.715" cy="3.715" r="3.715" transform="translate(101.693 188.83)" fill="#fff" stroke="#000" stroke-miterlimit="10" stroke-width="0.25"/>
          <circle id="circle-130" cx="3.715" cy="3.715" r="3.715" transform="translate(101.693 180.306)" fill="#fff" stroke="#000" stroke-miterlimit="10" stroke-width="0.25"/>
          <circle id="circle-131" cx="3.825" cy="3.825" r="3.825" transform="translate(120.707 193.856)" fill="#fff" stroke="#000" stroke-miterlimit="10" stroke-width="0.25"/>
          <circle id="circle-132" cx="3.934" cy="3.934" r="3.934" transform="translate(120.597 184.896)" fill="#fff" stroke="#000" stroke-miterlimit="10" stroke-width="0.25"/>
          <circle id="circle-133" cx="3.388" cy="3.388" r="3.388" transform="translate(140.267 190.141)" fill="#fff" stroke="#000" stroke-miterlimit="10" stroke-width="0.25"/>
          <circle id="circle-134" cx="3.606" cy="3.606" r="3.606" transform="translate(140.049 198.118)" fill="#fff" stroke="#000" stroke-miterlimit="10" stroke-width="0.25"/>
          <circle id="Isabella_e_Fioravanti" cx="3.825" cy="3.825" r="3.825" transform="translate(139.83 181.399)" fill="#c2faef" stroke="#000" stroke-miterlimit="10" stroke-width="0.5"/>
          <circle id="circle-135" cx="3.715" cy="3.715" r="3.715" transform="translate(159.063 193.747)" fill="#fff" stroke="#000" stroke-miterlimit="10" stroke-width="0.25"/>
          <circle id="circle-136" cx="3.825" cy="3.825" r="3.825" transform="translate(158.953 185.005)" fill="#fff" stroke="#000" stroke-miterlimit="10" stroke-width="0.25"/>
          <circle id="circle-137" cx="3.715" cy="3.715" r="3.715" transform="translate(178.077 189.485)" fill="#fff" stroke="#000" stroke-miterlimit="10" stroke-width="0.25"/>
          <circle id="circle-138" cx="3.934" cy="3.934" r="3.934" transform="translate(177.858 198.009)" fill="#fff" stroke="#000" stroke-miterlimit="10" stroke-width="0.25"/>
          <circle id="circle-139" cx="4.043" cy="4.043" r="4.043" transform="translate(177.749 180.306)" fill="#fff" stroke="#000" stroke-miterlimit="10" stroke-width="0.25"/>
          <circle id="circle-140" cx="3.825" cy="3.825" r="3.825" transform="translate(197.091 189.267)" fill="#fff" stroke="#000" stroke-miterlimit="10" stroke-width="0.25"/>
          <circle id="circle-141" cx="3.715" cy="3.715" r="3.715" transform="translate(216.323 193.638)" fill="#fff" stroke="#000" stroke-miterlimit="10" stroke-width="0.25"/>
          <circle id="circle-142" cx="3.715" cy="3.715" r="3.715" transform="translate(216.323 185.114)" fill="#fff" stroke="#000" stroke-miterlimit="10" stroke-width="0.25"/>
          <circle id="circle-143" cx="3.715" cy="3.715" r="3.715" transform="translate(216.323 202.161)" fill="#fff" stroke="#000" stroke-miterlimit="10" stroke-width="0.25"/>
          <circle id="circle-144" cx="3.715" cy="3.715" r="3.715" transform="translate(216.323 176.591)" fill="#fff" stroke="#000" stroke-miterlimit="10" stroke-width="0.25"/>
          <circle id="circle-145" cx="3.606" cy="3.606" r="3.606" transform="translate(235.556 184.458)" fill="#fff" stroke="#000" stroke-miterlimit="10" stroke-width="0.25"/>
          <circle id="La_storia_di_Kim-Ghi-U" cx="3.934" cy="3.934" r="3.934" transform="translate(235.228 192.763)" fill="#bdf8ec" stroke="#000" stroke-miterlimit="10" stroke-width="0.5"/>
          <circle id="Un_paese_disgraziato" cx="3.606" cy="3.606" r="3.606" transform="translate(235.556 176.153)" fill="#c2faef" stroke="#000" stroke-miterlimit="10" stroke-width="0.5"/>
          <circle id="Il_generale_in_biblioteca" cx="3.934" cy="3.934" r="3.934" transform="translate(235.228 201.615)" fill="#c2faef" stroke="#000" stroke-miterlimit="10" stroke-width="0.5"/>
          <circle id="circle-146" cx="3.934" cy="3.934" r="3.934" transform="translate(250.308 185.114)" fill="#fff" stroke="#000" stroke-miterlimit="10" stroke-width="0.25"/>
          <circle id="circle-147" cx="3.715" cy="3.715" r="3.715" transform="translate(259.051 173.094)" fill="#fff" stroke="#000" stroke-miterlimit="10" stroke-width="0.25"/>
          <circle id="Libertà_Libertà_" cx="3.497" cy="3.497" r="3.497" transform="translate(258.723 205.986)" fill="#bdf8ec" stroke="#000" stroke-miterlimit="10" stroke-width="0.5"/>
          <circle id="I_mozzatori_di_nasi" cx="3.497" cy="3.497" r="3.497" transform="translate(252.275 168.723)" fill="#c2faef" stroke="#000" stroke-miterlimit="10" stroke-width="0.5"/>
          <circle id="circle-148" cx="3.497" cy="3.497" r="3.497" transform="translate(251.62 202.052)" fill="#fff" stroke="#000" stroke-miterlimit="10" stroke-width="0.25"/>
          <circle id="circle-149" cx="3.497" cy="3.497" r="3.497" transform="translate(251.401 193.965)" fill="#fff" stroke="#000" stroke-miterlimit="10" stroke-width="0.25"/>
          <circle id="Lo_jus_primae_noctis" cx="3.715" cy="3.715" r="3.715" transform="translate(251.292 176.7)" fill="#c2faef" stroke="#000" stroke-miterlimit="10" stroke-width="0.5"/>
          <circle id="circle-150" cx="3.606" cy="3.606" r="3.606" transform="translate(252.494 211.45)" fill="#fff" stroke="#000" stroke-miterlimit="10" stroke-width="0.25"/>
          <circle id="circle-151" cx="3.497" cy="3.497" r="3.497" transform="translate(258.286 181.617)" fill="#fff" stroke="#000" stroke-miterlimit="10" stroke-width="0.25"/>
          <circle id="circle-152" cx="3.497" cy="3.497" r="3.497" transform="translate(258.176 189.594)" fill="#fff" stroke="#000" stroke-miterlimit="10" stroke-width="0.25"/>
          <circle id="circle-153" cx="3.606" cy="3.606" r="3.606" transform="translate(258.504 197.681)" fill="#fff" stroke="#000" stroke-miterlimit="10" stroke-width="0.25"/>
          <circle id="circle-154" cx="3.825" cy="3.825" r="3.825" transform="translate(311.831 189.267)" fill="#fff" stroke="#000" stroke-miterlimit="10" stroke-width="0.25"/>
          <circle id="circle-155" cx="3.715" cy="3.715" r="3.715" transform="translate(330.954 197.681)" fill="#fff" stroke="#000" stroke-miterlimit="10" stroke-width="0.25"/>
          <circle id="circle-156" cx="3.715" cy="3.715" r="3.715" transform="translate(330.954 189.157)" fill="#fff" stroke="#000" stroke-miterlimit="10" stroke-width="0.25"/>
          <circle id="circle-157" cx="3.606" cy="3.606" r="3.606" transform="translate(331.064 180.852)" fill="#fff" stroke="#000" stroke-miterlimit="10" stroke-width="0.25"/>
        </g>
      </g>
    </g>
    <g id="Group_24985" data-name="Group 24985" transform="translate(-33 -185)">
      <path id="Path_157381" data-name="Path 157381" d="M1.035,0h.776V-6.9H1.035ZM5.015.1A1.521,1.521,0,0,0,6.689-1.392c0-1.792-2.632-1.2-2.632-2.324,0-.4.327-.674.854-.674A1.15,1.15,0,0,1,6-3.7l.537-.308a1.733,1.733,0,0,0-1.6-.972A1.392,1.392,0,0,0,3.389-3.628c0,1.655,2.593,1.011,2.593,2.324,0,.527-.405.806-.957.806a1.237,1.237,0,0,1-1.216-.928l-.615.317A1.893,1.893,0,0,0,5.015.1ZM8.95.1a1.821,1.821,0,0,0,1.714-1.04L10.679,0h.62V-2.993A1.8,1.8,0,0,0,9.39-4.98a2.164,2.164,0,0,0-1.841.957l.532.415a1.605,1.605,0,0,1,1.353-.737c.884,0,1.2.64,1.2,1.558H9.517c-1.387,0-2.148.454-2.148,1.431A1.43,1.43,0,0,0,8.95.1Zm.083-.615c-.508,0-.913-.239-.913-.82,0-.649.5-.9,1.465-.9H10.63A1.683,1.683,0,0,1,9.033-.518ZM15.073.1c1.27,0,1.963-1.147,1.963-2.539S16.343-4.98,15.068-4.98a1.747,1.747,0,0,0-1.514.767V-6.9h-.728V0h.728V-.664A1.747,1.747,0,0,0,15.073.1Zm-.19-.615c-.977,0-1.392-.928-1.392-1.924s.415-1.924,1.392-1.924,1.426.938,1.426,1.924S15.864-.518,14.883-.518Zm5.264.586a2.392,2.392,0,0,0,1.865-.762l-.5-.4a1.7,1.7,0,0,1-1.372.522,1.444,1.444,0,0,1-1.426-1.621h3.4c.01-.088.024-.249.024-.376,0-1.123-.488-2.378-2.07-2.378-1.416,0-2.119,1.226-2.119,2.534A2.211,2.211,0,0,0,20.146.068ZM18.716-2.788c.039-.83.459-1.558,1.353-1.558,1,0,1.353.776,1.372,1.558Zm5.64,2.251c-.22,0-.239-.264-.239-.278V-6.9h-.737V-.986C23.379-.4,23.433.1,24.17.1a2.381,2.381,0,0,0,.659-.1V-.586A2.891,2.891,0,0,1,24.355-.537Zm2.529,0c-.22,0-.239-.264-.239-.278V-6.9h-.737V-.986C25.908-.4,25.962.1,26.7.1a2.381,2.381,0,0,0,.659-.1V-.586A2.891,2.891,0,0,1,26.885-.537ZM29.58.1a1.821,1.821,0,0,0,1.714-1.04L31.309,0h.62V-2.993A1.8,1.8,0,0,0,30.02-4.98a2.164,2.164,0,0,0-1.841.957l.532.415a1.605,1.605,0,0,1,1.353-.737c.884,0,1.2.64,1.2,1.558H30.146C28.76-2.788,28-2.334,28-1.357A1.43,1.43,0,0,0,29.58.1Zm.083-.615c-.508,0-.913-.239-.913-.82,0-.649.5-.9,1.465-.9H31.26A1.683,1.683,0,0,1,29.663-.518ZM37.91.068a2.392,2.392,0,0,0,1.865-.762l-.5-.4a1.7,1.7,0,0,1-1.372.522,1.444,1.444,0,0,1-1.426-1.621h3.4c.01-.088.024-.249.024-.376,0-1.123-.488-2.378-2.07-2.378-1.416,0-2.119,1.226-2.119,2.534A2.211,2.211,0,0,0,37.91.068ZM36.479-2.788c.039-.83.459-1.558,1.353-1.558,1,0,1.353.776,1.372,1.558ZM44.014,0h.776V-3.13h3.218v-.649H44.79V-6.23h3.647V-6.9H44.014Zm5.542-5.962h.83V-6.9h-.83ZM49.609,0h.723V-4.878h-.723Zm4.272.1a2.4,2.4,0,0,0,2.324-2.549A2.383,2.383,0,0,0,53.882-4.98a2.361,2.361,0,0,0-2.3,2.529A2.376,2.376,0,0,0,53.882.1Zm0-.605c-1.074,0-1.572-.957-1.572-1.943s.5-1.924,1.582-1.924,1.572.947,1.572,1.924S54.98-.508,53.887-.508ZM57.446,0h.718V-2.437c0-1.177.5-1.846,1.333-1.846a.888.888,0,0,1,.6.186l.308-.63a1.268,1.268,0,0,0-.786-.254,1.572,1.572,0,0,0-1.44.967v-.864h-.728Zm5.029.1a1.821,1.821,0,0,0,1.714-1.04L64.2,0h.62V-2.993A1.8,1.8,0,0,0,62.915-4.98a2.164,2.164,0,0,0-1.841.957l.532.415a1.605,1.605,0,0,1,1.353-.737c.884,0,1.2.64,1.2,1.558H63.042c-1.387,0-2.148.454-2.148,1.431A1.43,1.43,0,0,0,62.476.1Zm.083-.615c-.508,0-.913-.239-.913-.82,0-.649.5-.9,1.465-.9h1.045A1.683,1.683,0,0,1,62.559-.518ZM67.5,0h.645l1.816-4.878H69.18L67.822-.947,66.475-4.878h-.8Zm4.556.1A1.821,1.821,0,0,0,73.77-.942L73.784,0h.62V-2.993A1.8,1.8,0,0,0,72.5-4.98a2.164,2.164,0,0,0-1.841.957l.532.415a1.605,1.605,0,0,1,1.353-.737c.884,0,1.2.64,1.2,1.558H72.622c-1.387,0-2.148.454-2.148,1.431A1.43,1.43,0,0,0,72.056.1Zm.083-.615c-.508,0-.913-.239-.913-.82,0-.649.5-.9,1.465-.9h1.045A1.683,1.683,0,0,1,72.139-.518ZM75.923,0h.728V-2.534c0-1.211.61-1.812,1.377-1.812.859,0,1.108.781,1.108,1.455V0h.723V-2.964c0-1.074-.474-2-1.636-2a1.752,1.752,0,0,0-1.572.938v-.85h-.728Zm6.821.1A1.966,1.966,0,0,0,83.4,0V-.625A1.164,1.164,0,0,1,82.91-.5c-.356,0-.62-.249-.62-.786V-4.282h1.235v-.6H82.29V-6.66l-.723.684v1.1h-.786v.6h.781v2.988C81.563-.459,81.88.1,82.744.1Zm1.895-6.06h.83V-6.9h-.83ZM84.692,0h.723V-4.878h-.723Z" transform="translate(107.788 238.397)"/>
      <path id="Path_157382" data-name="Path 157382" d="M1.035,0H4.761V-.708H1.812V-6.9H1.035Zm6,.1A1.821,1.821,0,0,0,8.745-.942L8.76,0h.62V-2.993A1.8,1.8,0,0,0,7.471-4.98a2.164,2.164,0,0,0-1.841.957l.532.415a1.605,1.605,0,0,1,1.353-.737c.884,0,1.2.64,1.2,1.558H7.6c-1.387,0-2.148.454-2.148,1.431A1.43,1.43,0,0,0,7.031.1Zm.083-.615c-.508,0-.913-.239-.913-.82,0-.649.5-.9,1.465-.9H8.711A1.683,1.683,0,0,1,7.114-.518ZM14.893.1a1.521,1.521,0,0,0,1.675-1.489c0-1.792-2.632-1.2-2.632-2.324,0-.4.327-.674.854-.674a1.15,1.15,0,0,1,1.089.688l.537-.308a1.733,1.733,0,0,0-1.6-.972,1.392,1.392,0,0,0-1.548,1.353c0,1.655,2.593,1.011,2.593,2.324,0,.527-.405.806-.957.806a1.237,1.237,0,0,1-1.216-.928l-.615.317A1.893,1.893,0,0,0,14.893.1Zm4.243,0A1.966,1.966,0,0,0,19.79,0V-.625A1.164,1.164,0,0,1,19.3-.5c-.356,0-.62-.249-.62-.786V-4.282h1.235v-.6H18.682V-6.66l-.723.684v1.1h-.786v.6h.781v2.988C17.954-.459,18.271.1,19.136.1Zm3.789,0a2.4,2.4,0,0,0,2.324-2.549A2.383,2.383,0,0,0,22.925-4.98a2.361,2.361,0,0,0-2.3,2.529A2.376,2.376,0,0,0,22.925.1Zm0-.605c-1.074,0-1.572-.957-1.572-1.943s.5-1.924,1.582-1.924,1.572.947,1.572,1.924S24.023-.508,22.93-.508ZM26.489,0h.718V-2.437c0-1.177.5-1.846,1.333-1.846a.888.888,0,0,1,.6.186l.308-.63a1.268,1.268,0,0,0-.786-.254,1.572,1.572,0,0,0-1.44.967v-.864h-.728Zm3.848-5.962h.83V-6.9h-.83ZM30.391,0h.723V-4.878h-.723ZM33.9.1a1.821,1.821,0,0,0,1.714-1.04L35.63,0h.62V-2.993A1.8,1.8,0,0,0,34.341-4.98a2.164,2.164,0,0,0-1.841.957l.532.415a1.605,1.605,0,0,1,1.353-.737c.884,0,1.2.64,1.2,1.558H34.468c-1.387,0-2.148.454-2.148,1.431A1.43,1.43,0,0,0,33.9.1Zm.083-.615c-.508,0-.913-.239-.913-.82,0-.649.5-.9,1.465-.9h1.045A1.683,1.683,0,0,1,33.984-.518ZM43.54-6.9v2.686a1.746,1.746,0,0,0-1.528-.767c-1.245,0-1.953,1.143-1.953,2.539S40.767.1,42.017.1a1.734,1.734,0,0,0,1.528-.776L43.56,0h.708V-6.9ZM42.2-.518c-.977,0-1.4-.928-1.4-1.924s.42-1.924,1.4-1.924c1,0,1.4.938,1.4,1.924S43.2-.518,42.2-.518Zm3.677-5.444h.83V-6.9h-.83ZM45.933,0h.723V-4.878h-.723Zm5.229,0h.776V-1.9l1.685-1.743L55.977,0h.933L54.141-4.18,56.748-6.9h-1L51.938-2.852V-6.9h-.776Zm6.831-5.962h.83V-6.9h-.83ZM58.047,0h.723V-4.878h-.723ZM60.42,0h.737V-2.544c0-.884.435-1.816,1.245-1.816.835,0,1.025.776,1.025,1.45V0h.742V-2.705c0-.8.435-1.655,1.235-1.655.845,0,1.045.806,1.045,1.47V0h.737V-2.964c0-1.084-.488-2.017-1.694-2.017A1.618,1.618,0,0,0,63.975-3.96,1.465,1.465,0,0,0,62.485-4.98a1.459,1.459,0,0,0-1.328.859v-.757H60.42Zm8.262-2.822h2.5v-.557h-2.5Zm7,2.92A2.341,2.341,0,0,0,77.935-1.26L77.944,0h.645V-3.491h-2.31v.61h1.577A2.122,2.122,0,0,1,75.679-.625c-1.655,0-2.334-1.328-2.334-2.876,0-1.47.679-2.783,2.314-2.783a2.208,2.208,0,0,1,2.1,1.416l.708-.308a2.9,2.9,0,0,0-2.8-1.836c-2.095,0-3.086,1.641-3.086,3.56S73.555.1,75.679.1ZM80.171,0h.723V-2.632a1.537,1.537,0,0,1,1.455-1.65c.84,0,1.035.728,1.035,1.392V0h.737V-3.008c0-1.04-.474-1.958-1.641-1.958a1.9,1.9,0,0,0-1.587.889V-6.9h-.723Zm5.435-5.962h.83V-6.9h-.83ZM85.659,0h.723V-4.878h-.723ZM88-2.822h2.5v-.557H88ZM94.546.1c1.714,0,2.417-1.24,2.417-2.676V-6.9h-.776v4.15c0,1.191-.386,2.114-1.641,2.114s-1.621-.923-1.621-2.114V-6.9h-.776v4.37A2.328,2.328,0,0,0,94.546.1Z" transform="translate(147.136 309.971)"/>
      <path id="Path_157383" data-name="Path 157383" d="M3.3.1C5.01.1,5.713-1.143,5.713-2.578V-6.9H4.937v4.15c0,1.191-.386,2.114-1.641,2.114S1.675-1.558,1.675-2.749V-6.9H.9v4.37A2.328,2.328,0,0,0,3.3.1ZM7.373,0H8.1V-2.534c0-1.211.61-1.812,1.377-1.812.859,0,1.108.781,1.108,1.455V0h.723V-2.964c0-1.074-.474-2-1.636-2A1.752,1.752,0,0,0,8.1-4.028v-.85H7.373Zm8.115,2.139h.732v-2.8A1.75,1.75,0,0,0,17.715.1C19.023.1,19.7-1.06,19.7-2.441S19.019-4.98,17.71-4.98a1.743,1.743,0,0,0-1.489.767v-.664h-.732Zm2.07-2.656c-.991,0-1.406-.928-1.406-1.924s.415-1.924,1.406-1.924,1.411.938,1.411,1.924S18.535-.518,17.559-.518ZM22.129.1a1.821,1.821,0,0,0,1.714-1.04L23.857,0h.62V-2.993A1.8,1.8,0,0,0,22.568-4.98a2.164,2.164,0,0,0-1.841.957l.532.415a1.605,1.605,0,0,1,1.353-.737c.884,0,1.2.64,1.2,1.558H22.7c-1.387,0-2.148.454-2.148,1.431A1.43,1.43,0,0,0,22.129.1Zm.083-.615c-.508,0-.913-.239-.913-.82,0-.649.5-.9,1.465-.9h1.045A1.683,1.683,0,0,1,22.212-.518Zm5.605.586a2.392,2.392,0,0,0,1.865-.762l-.5-.4a1.7,1.7,0,0,1-1.372.522,1.444,1.444,0,0,1-1.426-1.621h3.4c.01-.088.024-.249.024-.376,0-1.123-.488-2.378-2.07-2.378-1.416,0-2.119,1.226-2.119,2.534A2.211,2.211,0,0,0,27.817.068ZM26.387-2.788c.039-.83.459-1.558,1.353-1.558,1,0,1.353.776,1.372,1.558ZM32.417.1a1.521,1.521,0,0,0,1.675-1.489c0-1.792-2.632-1.2-2.632-2.324,0-.4.327-.674.854-.674A1.15,1.15,0,0,1,33.4-3.7l.537-.308a1.733,1.733,0,0,0-1.6-.972,1.392,1.392,0,0,0-1.548,1.353c0,1.655,2.593,1.011,2.593,2.324,0,.527-.405.806-.957.806a1.237,1.237,0,0,1-1.216-.928l-.615.317A1.893,1.893,0,0,0,32.417.1ZM37.085.068A2.392,2.392,0,0,0,38.95-.693l-.5-.4a1.7,1.7,0,0,1-1.372.522,1.444,1.444,0,0,1-1.426-1.621h3.4c.01-.088.024-.249.024-.376,0-1.123-.488-2.378-2.07-2.378-1.416,0-2.119,1.226-2.119,2.534A2.211,2.211,0,0,0,37.085.068ZM35.654-2.788c.039-.83.459-1.558,1.353-1.558,1,0,1.353.776,1.372,1.558ZM46.1-6.9v2.686a1.746,1.746,0,0,0-1.528-.767c-1.245,0-1.953,1.143-1.953,2.539S43.33.1,44.58.1a1.734,1.734,0,0,0,1.528-.776L46.123,0h.708V-6.9ZM44.766-.518c-.977,0-1.4-.928-1.4-1.924s.42-1.924,1.4-1.924c1,0,1.4.938,1.4,1.924S45.762-.518,44.766-.518Zm3.677-5.444h.83V-6.9h-.83ZM48.5,0h.723V-4.878H48.5Zm3.726.1A1.521,1.521,0,0,0,53.9-1.392c0-1.792-2.632-1.2-2.632-2.324,0-.4.327-.674.854-.674a1.15,1.15,0,0,1,1.089.688l.537-.308a1.733,1.733,0,0,0-1.6-.972A1.392,1.392,0,0,0,50.6-3.628c0,1.655,2.593,1.011,2.593,2.324,0,.527-.405.806-.957.806a1.237,1.237,0,0,1-1.216-.928l-.615.317A1.893,1.893,0,0,0,52.222.1Zm4.6-.728c-.693-.1-1.3-.244-1.3-.747a.462.462,0,0,1,.21-.376,2.079,2.079,0,0,0,.918.205,1.661,1.661,0,0,0,1.8-1.68,1.761,1.761,0,0,0-.181-.791l.786-.62-.415-.518-.732.664a1.855,1.855,0,0,0-1.26-.454,1.7,1.7,0,0,0-1.826,1.709,1.625,1.625,0,0,0,.41,1.113,1,1,0,0,0-.356.806,1.082,1.082,0,0,0,.62,1l-.7.708a1.287,1.287,0,0,0-.015.186c0,.928.835,1.66,2.1,1.66,1.025,0,1.953-.479,1.953-1.484C58.833-.352,57.813-.5,56.821-.63Zm-.186-3.74a1.059,1.059,0,0,1,1.079,1.118,1.023,1.023,0,0,1-1.079,1.1,1.019,1.019,0,0,1-1.074-1.1A1.066,1.066,0,0,1,56.636-4.37Zm.3,5.962c-.947,0-1.484-.5-1.489-1l.576-.7a4.948,4.948,0,0,0,.581.127c.835.142,1.577.166,1.577.791C58.184,1.338,57.583,1.592,56.938,1.592ZM60.068,0h.718V-2.437c0-1.177.5-1.846,1.333-1.846a.888.888,0,0,1,.6.186l.308-.63a1.268,1.268,0,0,0-.786-.254,1.572,1.572,0,0,0-1.44.967v-.864h-.728ZM65.1.1a1.821,1.821,0,0,0,1.714-1.04L66.826,0h.62V-2.993A1.8,1.8,0,0,0,65.537-4.98a2.164,2.164,0,0,0-1.841.957l.532.415a1.605,1.605,0,0,1,1.353-.737c.884,0,1.2.64,1.2,1.558H65.664c-1.387,0-2.148.454-2.148,1.431A1.43,1.43,0,0,0,65.1.1Zm.083-.615c-.508,0-.913-.239-.913-.82,0-.649.5-.9,1.465-.9h1.045A1.683,1.683,0,0,1,65.181-.518ZM72.3-4.878h-3.7v.6H71.45L68.467-.552V0H72.3V-.625h-2.93L72.3-4.277Zm1.157-1.084h.83V-6.9h-.83ZM73.516,0h.723V-4.878h-.723Zm3.511.1A1.821,1.821,0,0,0,78.74-.942L78.755,0h.62V-2.993A1.8,1.8,0,0,0,77.466-4.98a2.164,2.164,0,0,0-1.841.957l.532.415a1.605,1.605,0,0,1,1.353-.737c.884,0,1.2.64,1.2,1.558H77.593c-1.387,0-2.148.454-2.148,1.431A1.43,1.43,0,0,0,77.026.1Zm.083-.615c-.508,0-.913-.239-.913-.82,0-.649.5-.9,1.465-.9h1.045A1.683,1.683,0,0,1,77.109-.518ZM82.241.1A1.966,1.966,0,0,0,82.9,0V-.625a1.164,1.164,0,0,1-.488.122c-.356,0-.62-.249-.62-.786V-4.282h1.235v-.6H81.787V-6.66l-.723.684v1.1h-.786v.6h.781v2.988C81.06-.459,81.377.1,82.241.1ZM86.03.1a2.4,2.4,0,0,0,2.324-2.549A2.383,2.383,0,0,0,86.03-4.98a2.361,2.361,0,0,0-2.3,2.529A2.376,2.376,0,0,0,86.03.1Zm0-.605c-1.074,0-1.572-.957-1.572-1.943s.5-1.924,1.582-1.924,1.572.947,1.572,1.924S87.129-.508,86.035-.508Z" transform="translate(284.173 311.44)"/>
      <path id="Path_157384" data-name="Path 157384" d="M1.035,0h.776V-6.9H1.035ZM4.624-.537c-.22,0-.239-.264-.239-.278V-6.9H3.647V-.986C3.647-.4,3.7.1,4.438.1A2.381,2.381,0,0,0,5.1,0V-.586A2.891,2.891,0,0,1,4.624-.537ZM10.586-.63c-.693-.1-1.3-.244-1.3-.747a.462.462,0,0,1,.21-.376,2.079,2.079,0,0,0,.918.205,1.661,1.661,0,0,0,1.8-1.68,1.761,1.761,0,0,0-.181-.791l.786-.62L12.4-5.156l-.732.664a1.855,1.855,0,0,0-1.26-.454A1.7,1.7,0,0,0,8.584-3.237a1.625,1.625,0,0,0,.41,1.113,1,1,0,0,0-.356.806,1.082,1.082,0,0,0,.62,1l-.7.708A1.287,1.287,0,0,0,8.54.576c0,.928.835,1.66,2.1,1.66,1.025,0,1.953-.479,1.953-1.484C12.6-.352,11.577-.5,10.586-.63ZM10.4-4.37a1.059,1.059,0,0,1,1.079,1.118,1.023,1.023,0,0,1-1.079,1.1,1.019,1.019,0,0,1-1.074-1.1A1.066,1.066,0,0,1,10.4-4.37Zm.3,5.962c-.947,0-1.484-.5-1.489-1l.576-.7a4.948,4.948,0,0,0,.581.127c.835.142,1.577.166,1.577.791C11.948,1.338,11.348,1.592,10.7,1.592ZM15.654.068A2.392,2.392,0,0,0,17.52-.693l-.5-.4a1.7,1.7,0,0,1-1.372.522,1.444,1.444,0,0,1-1.426-1.621h3.4c.01-.088.024-.249.024-.376,0-1.123-.488-2.378-2.07-2.378-1.416,0-2.119,1.226-2.119,2.534A2.211,2.211,0,0,0,15.654.068ZM14.224-2.788c.039-.83.459-1.558,1.353-1.558,1,0,1.353.776,1.372,1.558ZM18.9,0h.728V-2.534c0-1.211.61-1.812,1.377-1.812.859,0,1.108.781,1.108,1.455V0h.723V-2.964c0-1.074-.474-2-1.636-2a1.752,1.752,0,0,0-1.572.938v-.85H18.9Zm7.285.068a2.392,2.392,0,0,0,1.865-.762l-.5-.4a1.7,1.7,0,0,1-1.372.522,1.444,1.444,0,0,1-1.426-1.621h3.4c.01-.088.024-.249.024-.376,0-1.123-.488-2.378-2.07-2.378-1.416,0-2.119,1.226-2.119,2.534A2.211,2.211,0,0,0,26.187.068ZM24.756-2.788c.039-.83.459-1.558,1.353-1.558,1,0,1.353.776,1.372,1.558ZM29.434,0h.718V-2.437c0-1.177.5-1.846,1.333-1.846a.888.888,0,0,1,.6.186l.308-.63A1.268,1.268,0,0,0,31.6-4.98a1.572,1.572,0,0,0-1.44.967v-.864h-.728Zm5.029.1a1.821,1.821,0,0,0,1.714-1.04L36.191,0h.62V-2.993A1.8,1.8,0,0,0,34.9-4.98a2.164,2.164,0,0,0-1.841.957l.532.415a1.605,1.605,0,0,1,1.353-.737c.884,0,1.2.64,1.2,1.558H35.029c-1.387,0-2.148.454-2.148,1.431A1.43,1.43,0,0,0,34.463.1Zm.083-.615c-.508,0-.913-.239-.913-.82,0-.649.5-.9,1.465-.9h1.045A1.683,1.683,0,0,1,34.546-.518Zm4.746-.02c-.22,0-.239-.264-.239-.278V-6.9h-.737V-.986c0,.586.054,1.084.791,1.084a2.381,2.381,0,0,0,.659-.1V-.586A2.891,2.891,0,0,1,39.292-.537Zm3.389.605a2.392,2.392,0,0,0,1.865-.762l-.5-.4a1.7,1.7,0,0,1-1.372.522A1.444,1.444,0,0,1,41.25-2.192h3.4c.01-.088.024-.249.024-.376,0-1.123-.488-2.378-2.07-2.378-1.416,0-2.119,1.226-2.119,2.534A2.211,2.211,0,0,0,42.681.068ZM41.25-2.788c.039-.83.459-1.558,1.353-1.558,1,0,1.353.776,1.372,1.558Zm7.275-3.174h.83V-6.9h-.83ZM48.579,0H49.3V-4.878h-.723Zm2.373,0h.728V-2.534c0-1.211.61-1.812,1.377-1.812.859,0,1.108.781,1.108,1.455V0h.723V-2.964c0-1.074-.474-2-1.636-2a1.752,1.752,0,0,0-1.572.938v-.85h-.728ZM61.313.1c1.27,0,1.963-1.147,1.963-2.539S62.583-4.98,61.309-4.98a1.747,1.747,0,0,0-1.514.767V-6.9h-.728V0h.728V-.664A1.747,1.747,0,0,0,61.313.1Zm-.19-.615c-.977,0-1.392-.928-1.392-1.924s.415-1.924,1.392-1.924,1.426.938,1.426,1.924S62.1-.518,61.123-.518Zm3.4-5.444h.83V-6.9h-.83ZM64.575,0H65.3V-4.878h-.723ZM69.2.1c1.27,0,1.963-1.147,1.963-2.539S70.474-4.98,69.2-4.98a1.747,1.747,0,0,0-1.514.767V-6.9h-.728V0h.728V-.664A1.747,1.747,0,0,0,69.2.1Zm-.19-.615c-.977,0-1.392-.928-1.392-1.924s.415-1.924,1.392-1.924,1.426.938,1.426,1.924S70-.518,69.014-.518Zm4.4-.02c-.22,0-.239-.264-.239-.278V-6.9h-.737V-.986C72.441-.4,72.5.1,73.232.1a2.381,2.381,0,0,0,.659-.1V-.586A2.891,2.891,0,0,1,73.418-.537Zm1.523-5.425h.83V-6.9h-.83ZM75,0h.723V-4.878H75Zm4.272.1a2.4,2.4,0,0,0,2.324-2.549A2.383,2.383,0,0,0,79.268-4.98a2.361,2.361,0,0,0-2.3,2.529A2.376,2.376,0,0,0,79.268.1Zm0-.605C78.2-.508,77.7-1.465,77.7-2.451s.5-1.924,1.582-1.924,1.572.947,1.572,1.924S80.366-.508,79.272-.508ZM84.15.1A1.966,1.966,0,0,0,84.8,0V-.625a1.164,1.164,0,0,1-.488.122c-.356,0-.62-.249-.62-.786V-4.282h1.235v-.6H83.7V-6.66l-.723.684v1.1h-.786v.6h.781v2.988C82.969-.459,83.286.1,84.15.1ZM87.861.068a2.392,2.392,0,0,0,1.865-.762l-.5-.4a1.7,1.7,0,0,1-1.372.522,1.444,1.444,0,0,1-1.426-1.621h3.4c.01-.088.024-.249.024-.376,0-1.123-.488-2.378-2.07-2.378-1.416,0-2.119,1.226-2.119,2.534A2.211,2.211,0,0,0,87.861.068ZM86.431-2.788c.039-.83.459-1.558,1.353-1.558,1,0,1.353.776,1.372,1.558ZM92.856.1A1.861,1.861,0,0,0,94.692-1.2l-.635-.273a1.224,1.224,0,0,1-1.211.952c-1.021,0-1.362-1.021-1.362-1.914s.352-1.934,1.362-1.934a1.234,1.234,0,0,1,1.211.977l.688-.293a2,2,0,0,0-1.9-1.3c-1.406,0-2.109,1.24-2.109,2.549S91.45.1,92.856.1Zm4.106,0a1.821,1.821,0,0,0,1.714-1.04L98.691,0h.62V-2.993A1.8,1.8,0,0,0,97.4-4.98a2.164,2.164,0,0,0-1.841.957l.532.415a1.605,1.605,0,0,1,1.353-.737c.884,0,1.2.64,1.2,1.558H97.529c-1.387,0-2.148.454-2.148,1.431A1.43,1.43,0,0,0,96.963.1Zm.083-.615c-.508,0-.913-.239-.913-.82,0-.649.5-.9,1.465-.9h1.045A1.683,1.683,0,0,1,97.046-.518Z" transform="translate(201.131 324.531)"/>
      <path id="Path_157385" data-name="Path 157385" d="M1.035,0H4.761V-.708H1.812V-6.9H1.035Zm4.8-5.962h.83V-6.9H5.84ZM5.894,0h.723V-4.878H5.894Zm4.629.1c1.27,0,1.963-1.147,1.963-2.539S11.792-4.98,10.518-4.98A1.747,1.747,0,0,0,9-4.214V-6.9H8.276V0H9V-.664A1.747,1.747,0,0,0,10.522.1Zm-.19-.615c-.977,0-1.392-.928-1.392-1.924s.415-1.924,1.392-1.924,1.426.938,1.426,1.924S11.313-.518,10.332-.518ZM15.6.068a2.392,2.392,0,0,0,1.865-.762l-.5-.4a1.7,1.7,0,0,1-1.372.522,1.444,1.444,0,0,1-1.426-1.621h3.4c.01-.088.024-.249.024-.376,0-1.123-.488-2.378-2.07-2.378C14.1-4.946,13.4-3.721,13.4-2.412A2.211,2.211,0,0,0,15.6.068ZM14.165-2.788c.039-.83.459-1.558,1.353-1.558,1,0,1.353.776,1.372,1.558ZM18.843,0h.718V-2.437c0-1.177.5-1.846,1.333-1.846a.888.888,0,0,1,.6.186l.308-.63a1.268,1.268,0,0,0-.786-.254,1.572,1.572,0,0,0-1.44.967v-.864h-.728Zm5.479.1a1.966,1.966,0,0,0,.654-.1V-.625a1.164,1.164,0,0,1-.488.122c-.356,0-.62-.249-.62-.786V-4.282H25.1v-.6H23.867V-6.66l-.723.684v1.1h-.786v.6h.781v2.988C23.14-.459,23.457.1,24.321.1Zm3.218-5.576h.742L27.217-6.9h-.937ZM27.4.1a1.821,1.821,0,0,0,1.714-1.04L29.126,0h.62V-2.993A1.8,1.8,0,0,0,27.837-4.98,2.164,2.164,0,0,0,26-4.023l.532.415a1.605,1.605,0,0,1,1.353-.737c.884,0,1.2.64,1.2,1.558H27.964c-1.387,0-2.148.454-2.148,1.431A1.43,1.43,0,0,0,27.4.1Zm.083-.615c-.508,0-.913-.239-.913-.82,0-.649.5-.9,1.465-.9h1.045A1.683,1.683,0,0,1,27.48-.518Zm4.2-1.343h.557l.142-5.146h-.84ZM31.484,0h.957V-.947h-.957Zm5.693,0H40.9V-.708H37.954V-6.9h-.776Zm4.8-5.962h.83V-6.9h-.83ZM42.036,0h.723V-4.878h-.723Zm4.629.1c1.27,0,1.963-1.147,1.963-2.539S47.935-4.98,46.66-4.98a1.747,1.747,0,0,0-1.514.767V-6.9h-.728V0h.728V-.664A1.747,1.747,0,0,0,46.665.1Zm-.19-.615c-.977,0-1.392-.928-1.392-1.924s.415-1.924,1.392-1.924S47.9-3.428,47.9-2.441,47.456-.518,46.475-.518Zm5.264.586A2.392,2.392,0,0,0,53.6-.693l-.5-.4a1.7,1.7,0,0,1-1.372.522,1.444,1.444,0,0,1-1.426-1.621h3.4c.01-.088.024-.249.024-.376,0-1.123-.488-2.378-2.07-2.378-1.416,0-2.119,1.226-2.119,2.534A2.211,2.211,0,0,0,51.738.068ZM50.308-2.788c.039-.83.459-1.558,1.353-1.558,1,0,1.353.776,1.372,1.558ZM54.985,0H55.7V-2.437c0-1.177.5-1.846,1.333-1.846a.888.888,0,0,1,.6.186l.308-.63a1.268,1.268,0,0,0-.786-.254,1.572,1.572,0,0,0-1.44.967v-.864h-.728Zm5.479.1a1.966,1.966,0,0,0,.654-.1V-.625A1.164,1.164,0,0,1,60.63-.5c-.356,0-.62-.249-.62-.786V-4.282h1.235v-.6H60.01V-6.66l-.723.684v1.1H58.5v.6h.781v2.988C59.282-.459,59.6.1,60.464.1Zm3.218-5.576h.742L63.359-6.9h-.937ZM63.54.1a1.821,1.821,0,0,0,1.714-1.04L65.269,0h.62V-2.993A1.8,1.8,0,0,0,63.979-4.98a2.164,2.164,0,0,0-1.841.957l.532.415a1.605,1.605,0,0,1,1.353-.737c.884,0,1.2.64,1.2,1.558H64.106c-1.387,0-2.148.454-2.148,1.431A1.43,1.43,0,0,0,63.54.1Zm.083-.615c-.508,0-.913-.239-.913-.82,0-.649.5-.9,1.465-.9H65.22A1.683,1.683,0,0,1,63.623-.518Zm4.2-1.343h.557l.142-5.146h-.84ZM67.627,0h.957V-.947h-.957Z" transform="translate(164.414 223.152)"/>
      <path id="Path_157386" data-name="Path 157386" d="M1.035,0h.776V-6.9H1.035ZM6.3,0h.737V-2.544c0-.884.435-1.816,1.245-1.816.835,0,1.025.776,1.025,1.45V0h.742V-2.705c0-.8.435-1.655,1.235-1.655.845,0,1.045.806,1.045,1.47V0h.737V-2.964c0-1.084-.488-2.017-1.694-2.017A1.618,1.618,0,0,0,9.858-3.96,1.465,1.465,0,0,0,8.369-4.98a1.459,1.459,0,0,0-1.328.859v-.757H6.3ZM16.5.1a2.4,2.4,0,0,0,2.324-2.549A2.383,2.383,0,0,0,16.5-4.98a2.361,2.361,0,0,0-2.3,2.529A2.376,2.376,0,0,0,16.5.1Zm0-.605c-1.074,0-1.572-.957-1.572-1.943s.5-1.924,1.582-1.924,1.572.947,1.572,1.924S17.6-.508,16.5-.508Zm6.86-4.37h-3.7v.6H22.51L19.526-.552V0h3.838V-.625h-2.93l2.93-3.652Zm4.551,0h-3.7v.6h2.842L24.077-.552V0h3.838V-.625h-2.93l2.93-3.652ZM30.264.1a1.821,1.821,0,0,0,1.714-1.04L31.992,0h.62V-2.993A1.8,1.8,0,0,0,30.7-4.98a2.164,2.164,0,0,0-1.841.957l.532.415a1.605,1.605,0,0,1,1.353-.737c.884,0,1.2.64,1.2,1.558H30.83c-1.387,0-2.148.454-2.148,1.431A1.43,1.43,0,0,0,30.264.1Zm.083-.615c-.508,0-.913-.239-.913-.82,0-.649.5-.9,1.465-.9h1.045A1.683,1.683,0,0,1,30.347-.518ZM35.479.1a1.966,1.966,0,0,0,.654-.1V-.625a1.164,1.164,0,0,1-.488.122c-.356,0-.62-.249-.62-.786V-4.282H36.26v-.6H35.024V-6.66l-.723.684v1.1h-.786v.6H34.3v2.988C34.3-.459,34.614.1,35.479.1Zm3.789,0a2.4,2.4,0,0,0,2.324-2.549A2.383,2.383,0,0,0,39.268-4.98a2.361,2.361,0,0,0-2.3,2.529A2.376,2.376,0,0,0,39.268.1Zm0-.605C38.2-.508,37.7-1.465,37.7-2.451s.5-1.924,1.582-1.924,1.572.947,1.572,1.924S40.366-.508,39.272-.508ZM42.832,0h.718V-2.437c0-1.177.5-1.846,1.333-1.846a.888.888,0,0,1,.6.186l.308-.63A1.268,1.268,0,0,0,45-4.98a1.572,1.572,0,0,0-1.44.967v-.864h-.728ZM46.68-5.962h.83V-6.9h-.83ZM46.733,0h.723V-4.878h-.723Zm8.145-6.9v2.686A1.746,1.746,0,0,0,53.35-4.98C52.1-4.98,51.4-3.838,51.4-2.441S52.1.1,53.354.1a1.734,1.734,0,0,0,1.528-.776L54.9,0h.708V-6.9ZM53.54-.518c-.977,0-1.4-.928-1.4-1.924s.42-1.924,1.4-1.924c1,0,1.4.938,1.4,1.924S54.536-.518,53.54-.518Zm3.677-5.444h.83V-6.9h-.83ZM57.271,0h.723V-4.878h-.723Zm5.015,0h.728V-2.534c0-1.211.61-1.812,1.377-1.812.859,0,1.108.781,1.108,1.455V0h.723V-2.964c0-1.074-.474-2-1.636-2a1.752,1.752,0,0,0-1.572.938v-.85h-.728Zm6.6.1A1.821,1.821,0,0,0,70.6-.942L70.615,0h.62V-2.993A1.8,1.8,0,0,0,69.326-4.98a2.164,2.164,0,0,0-1.841.957l.532.415a1.605,1.605,0,0,1,1.353-.737c.884,0,1.2.64,1.2,1.558H69.453c-1.387,0-2.148.454-2.148,1.431A1.43,1.43,0,0,0,68.887.1Zm.083-.615c-.508,0-.913-.239-.913-.82,0-.649.5-.9,1.465-.9h1.045A1.683,1.683,0,0,1,68.97-.518ZM74.106.1a1.521,1.521,0,0,0,1.675-1.489c0-1.792-2.632-1.2-2.632-2.324,0-.4.327-.674.854-.674a1.15,1.15,0,0,1,1.089.688l.537-.308a1.733,1.733,0,0,0-1.6-.972A1.392,1.392,0,0,0,72.48-3.628c0,1.655,2.593,1.011,2.593,2.324,0,.527-.405.806-.957.806A1.237,1.237,0,0,1,72.9-1.426l-.615.317A1.893,1.893,0,0,0,74.106.1Zm2.842-6.06h.83V-6.9h-.83ZM77,0h.723V-4.878H77Z" transform="translate(278.614 234.01)"/>
      <path id="Path_157387" data-name="Path 157387" d="M1.035,0H4.761V-.708H1.812V-6.9H1.035ZM7.744.1a2.4,2.4,0,0,0,2.324-2.549A2.383,2.383,0,0,0,7.744-4.98a2.361,2.361,0,0,0-2.3,2.529A2.376,2.376,0,0,0,7.744.1Zm0-.605c-1.074,0-1.572-.957-1.572-1.943s.5-1.924,1.582-1.924,1.572.947,1.572,1.924S8.843-.508,7.749-.508Zm6.167-5.483h.84V-6.9h-.84Zm-.459,8.13c.884,0,1.25-.581,1.25-1.382V-4.878h-.742V.864c0,.327-.117.659-.527.659a2.256,2.256,0,0,1-.562-.083l-.156.547A2.283,2.283,0,0,0,13.457,2.139ZM17.91.107a1.736,1.736,0,0,0,1.533-.933V0h.723V-4.878h-.723v2.7a1.566,1.566,0,0,1-1.455,1.67c-.835,0-1.025-.786-1.025-1.489V-4.878h-.728v2.832C16.235-.83,16.709.107,17.91.107ZM23.164.1a1.521,1.521,0,0,0,1.675-1.489c0-1.792-2.632-1.2-2.632-2.324,0-.4.327-.674.854-.674A1.15,1.15,0,0,1,24.15-3.7l.537-.308a1.733,1.733,0,0,0-1.6-.972,1.392,1.392,0,0,0-1.548,1.353c0,1.655,2.593,1.011,2.593,2.324,0,.527-.405.806-.957.806a1.237,1.237,0,0,1-1.216-.928l-.615.317A1.893,1.893,0,0,0,23.164.1ZM28.7,2.139h.732v-2.8A1.75,1.75,0,0,0,30.928.1c1.309,0,1.987-1.157,1.987-2.539S32.231-4.98,30.923-4.98a1.743,1.743,0,0,0-1.489.767v-.664H28.7Zm2.07-2.656c-.991,0-1.406-.928-1.406-1.924s.415-1.924,1.406-1.924,1.411.938,1.411,1.924S31.748-.518,30.771-.518ZM34.2,0h.718V-2.437c0-1.177.5-1.846,1.333-1.846a.888.888,0,0,1,.6.186l.308-.63a1.268,1.268,0,0,0-.786-.254,1.572,1.572,0,0,0-1.44.967v-.864H34.2Zm3.848-5.962h.83V-6.9h-.83ZM38.105,0h.723V-4.878h-.723Zm2.373,0h.737V-2.544c0-.884.435-1.816,1.245-1.816.835,0,1.025.776,1.025,1.45V0h.742V-2.705c0-.8.435-1.655,1.235-1.655.845,0,1.045.806,1.045,1.47V0h.737V-2.964c0-1.084-.488-2.017-1.694-2.017A1.618,1.618,0,0,0,44.033-3.96,1.465,1.465,0,0,0,42.544-4.98a1.459,1.459,0,0,0-1.328.859v-.757h-.737Zm9.434.1a1.821,1.821,0,0,0,1.714-1.04L51.641,0h.62V-2.993A1.8,1.8,0,0,0,50.352-4.98a2.164,2.164,0,0,0-1.841.957l.532.415A1.605,1.605,0,0,1,50.4-4.346c.884,0,1.2.64,1.2,1.558H50.479c-1.387,0-2.148.454-2.148,1.431A1.43,1.43,0,0,0,49.912.1ZM50-.518c-.508,0-.913-.239-.913-.82,0-.649.5-.9,1.465-.9h1.045A1.683,1.683,0,0,1,50-.518ZM55.6.068a2.392,2.392,0,0,0,1.865-.762l-.5-.4A1.7,1.7,0,0,1,55.6-.571,1.444,1.444,0,0,1,54.17-2.192h3.4c.01-.088.024-.249.024-.376,0-1.123-.488-2.378-2.07-2.378-1.416,0-2.119,1.226-2.119,2.534A2.211,2.211,0,0,0,55.6.068ZM54.17-2.788c.039-.83.459-1.558,1.353-1.558,1,0,1.353.776,1.372,1.558ZM61.489,0h.728V-2.534c0-1.211.61-1.812,1.377-1.812.859,0,1.108.781,1.108,1.455V0h.723V-2.964c0-1.074-.474-2-1.636-2a1.752,1.752,0,0,0-1.572.938v-.85h-.728Zm7.363.1a2.4,2.4,0,0,0,2.324-2.549A2.383,2.383,0,0,0,68.853-4.98a2.361,2.361,0,0,0-2.3,2.529A2.376,2.376,0,0,0,68.853.1Zm0-.605c-1.074,0-1.572-.957-1.572-1.943s.5-1.924,1.582-1.924,1.572.947,1.572,1.924S69.951-.508,68.857-.508ZM74.165.1A1.861,1.861,0,0,0,76-1.2l-.635-.273a1.224,1.224,0,0,1-1.211.952c-1.021,0-1.362-1.021-1.362-1.914s.352-1.934,1.362-1.934a1.234,1.234,0,0,1,1.211.977l.688-.293a2,2,0,0,0-1.9-1.3c-1.406,0-2.109,1.24-2.109,2.549S72.759.1,74.165.1ZM78.53.1a1.966,1.966,0,0,0,.654-.1V-.625A1.164,1.164,0,0,1,78.7-.5c-.356,0-.62-.249-.62-.786V-4.282h1.235v-.6H78.076V-6.66l-.723.684v1.1h-.786v.6h.781v2.988C77.349-.459,77.666.1,78.53.1Zm1.895-6.06h.83V-6.9h-.83ZM80.479,0H81.2V-4.878h-.723ZM84.2.1a1.521,1.521,0,0,0,1.675-1.489c0-1.792-2.632-1.2-2.632-2.324,0-.4.327-.674.854-.674A1.15,1.15,0,0,1,85.19-3.7l.537-.308a1.733,1.733,0,0,0-1.6-.972,1.392,1.392,0,0,0-1.548,1.353c0,1.655,2.593,1.011,2.593,2.324,0,.527-.405.806-.957.806A1.237,1.237,0,0,1,83-1.426l-.615.317A1.893,1.893,0,0,0,84.2.1Z" transform="translate(255.684 213.118)"/>
    </g>
    <circle id="circle-158" cx="5.792" cy="5.792" r="5.792" transform="translate(383.452 77.88)" fill="#fff" stroke="#000" stroke-miterlimit="10" stroke-width="0.25"/>
    <circle id="circle-159" cx="3.934" cy="3.934" r="3.934" transform="translate(404.433 79.738)" fill="#fff" stroke="#000" stroke-miterlimit="10" stroke-width="0.25"/>
    <ellipse id="circle-160" cx="4.917" cy="4.808" rx="4.917" ry="4.808" transform="translate(517.334 87.571) rotate(-79.1)" fill="#fff" stroke="#000" stroke-miterlimit="10" stroke-width="0.25"/>
    <circle id="circle-161" cx="4.59" cy="4.59" r="4.59" transform="translate(556.655 79.083)" fill="#fff" stroke="#000" stroke-miterlimit="10" stroke-width="0.25"/>
    <circle id="circle-162" cx="4.808" cy="4.808" r="4.808" transform="translate(574.804 87.61) rotate(-80.41)" fill="#fff" stroke="#000" stroke-miterlimit="10" stroke-width="0.25"/>
  </g>
</svg>
