<svg xmlns="http://www.w3.org/2000/svg" xmlns:xlink="http://www.w3.org/1999/xlink" width="250" height="497" viewBox="0 0 250 497"><defs><clipPath id="b"><rect width="250" height="497"/></clipPath></defs><g id="a" clip-path="url(#b)"><path d="M171.909,31v5.463h0a47.246,47.246,0,1,1-28.016,9.24,47.246,47.246,0,0,1,28.016-9.24V31m0,0a52.716,52.716,0,1,0,14.89,2.154A52.716,52.716,0,0,0,171.909,31Z" transform="translate(-63.166 26.635)" fill="orange"/><g transform="translate(-34.228 37)"><path d="M170.911,328.09v.211h0a52.49,52.49,0,1,1-31.138,10.262A52.49,52.49,0,0,1,170.911,328.3v-.211m0,0a52.716,52.716,0,1,0,14.9,2.154,52.716,52.716,0,0,0-14.9-2.154Z" transform="translate(256.258 -86.465) rotate(40)"/><path d="M284.914,388.68a76.929,76.929,0,0,1,.4,14.313h-.3a75.122,75.122,0,0,0-.4-14.266Z" transform="translate(236.813 -120.151) rotate(40)" fill="orange"/><path d="M222.094,440.744A76.089,76.089,0,0,1,104.027,345.48l.25.172a75.785,75.785,0,0,0,117.6,94.889Z" transform="translate(263.331 -85.516) rotate(40)" fill="orange"/><path d="M308.06,505.591q-3.9,4.5-8.147,8.584l-.2-.211q4.261-4.1,8.116-8.584Z" transform="translate(250.746 -141.914) rotate(40)" fill="orange"/><path d="M24.84,360.885A125.762,125.762,0,0,1,100.984,249.67l.125.273a125.465,125.465,0,0,0-75.964,110.95Z" transform="translate(260.89 -60.098) rotate(40)" fill="orange"/><line y1="20.361" x2="37.334" transform="translate(166.333 306.08) rotate(40)" fill="none"/><line y1="0.179" x2="6.36" transform="translate(195.938 362.279) rotate(40)" fill="none" stroke="orange" stroke-miterlimit="10" stroke-width="0.58"/><line x1="10.668" y2="0.304" transform="translate(82.209 271.983) rotate(40)" fill="none" stroke="orange" stroke-miterlimit="10" stroke-width="0.58"/><line x2="19.128" y2="18.09" transform="translate(152.812 417.779) rotate(40)" fill="none" stroke="orange" stroke-miterlimit="10" stroke-width="0.58"/><line x2="9.607" y2="26.971" transform="translate(106.562 410.154) rotate(40)" fill="none" stroke="orange" stroke-miterlimit="10" stroke-width="0.58"/><line x2="0.952" y2="34.252" transform="translate(82.565 390.965) rotate(40)" fill="none" stroke="orange" stroke-miterlimit="10" stroke-width="0.58"/><line x1="27.4" y1="18.761" transform="translate(107.674 195.634) rotate(40)" fill="none" stroke="orange" stroke-miterlimit="10" stroke-width="0.58"/><ellipse cx="0.757" cy="0.757" rx="0.757" ry="0.757" transform="translate(181.299 349.313) rotate(40)" fill="orange" stroke="#fff" stroke-miterlimit="10" stroke-width="0.39"/><ellipse cx="0.757" cy="0.757" rx="0.757" ry="0.757" transform="translate(204.885 359.497) rotate(40)" fill="#ff6c39" stroke="#fff" stroke-miterlimit="10" stroke-width="0.39"/><ellipse cx="0.757" cy="0.757" rx="0.757" ry="0.757" transform="translate(200.718 365.301) rotate(40)" fill="#ff6c39" stroke="#fff" stroke-miterlimit="10" stroke-width="0.39"/><ellipse cx="0.757" cy="0.757" rx="0.757" ry="0.757" transform="translate(196.02 370.681) rotate(40)" fill="#ff6c39" stroke="#fff" stroke-miterlimit="10" stroke-width="0.39"/><ellipse cx="0.757" cy="0.757" rx="0.757" ry="0.757" transform="translate(98.532 284.315) rotate(40)" fill="orange" stroke="#fff" stroke-miterlimit="10" stroke-width="0.39"/><ellipse cx="0.757" cy="0.757" rx="0.757" ry="0.757" transform="translate(150.03 393.51) rotate(40)" fill="#00c19c" stroke="#fff" stroke-miterlimit="10" stroke-width="0.39"/><ellipse cx="0.757" cy="0.757" rx="0.757" ry="0.757" transform="translate(161.599 442.042) rotate(40)" fill="#ff6c39" stroke="#fff" stroke-miterlimit="10" stroke-width="0.39"/><ellipse cx="0.757" cy="0.757" rx="0.757" ry="0.757" transform="translate(149.858 443.407) rotate(40)" fill="#ff6c39" stroke="#fff" stroke-miterlimit="10" stroke-width="0.39"/><ellipse cx="0.757" cy="0.757" rx="0.757" ry="0.757" transform="translate(114.904 389.26) rotate(40)" fill="#00c19c" stroke="#fff" stroke-miterlimit="10" stroke-width="0.39"/><ellipse cx="0.757" cy="0.757" rx="0.757" ry="0.757" transform="translate(96.491 435.923) rotate(40)" fill="#ff6c39" stroke="#fff" stroke-miterlimit="10" stroke-width="0.39"/><ellipse cx="0.757" cy="0.757" rx="0.757" ry="0.757" transform="translate(94.243 377.618) rotate(40)" fill="#00c19c" stroke="#fff" stroke-miterlimit="10" stroke-width="0.39"/><ellipse cx="0.757" cy="0.757" rx="0.757" ry="0.757" transform="translate(59.383 419.557) rotate(40)" fill="#ff6c39" stroke="#fff" stroke-miterlimit="10" stroke-width="0.39"/><ellipse cx="0.757" cy="0.757" rx="0.757" ry="0.757" transform="translate(120.938 245.23) rotate(40)" fill="#00c19c" stroke="#fff" stroke-miterlimit="10" stroke-width="0.39"/><ellipse cx="0.757" cy="0.757" rx="0.757" ry="0.757" transform="translate(48.081 231.458) rotate(40)" fill="#ff6c39" stroke="#fff" stroke-miterlimit="10" stroke-width="0.39"/><ellipse cx="0.757" cy="0.757" rx="0.757" ry="0.757" transform="translate(56.397 223.052) rotate(40)" fill="#ff6c39" stroke="#fff" stroke-miterlimit="10" stroke-width="0.39"/><ellipse cx="0.757" cy="0.757" rx="0.757" ry="0.757" transform="translate(65.461 215.468) rotate(40)" fill="#ff6c39" stroke="#fff" stroke-miterlimit="10" stroke-width="0.39"/><ellipse cx="0.757" cy="0.757" rx="0.757" ry="0.757" transform="translate(75.206 208.772) rotate(40)" fill="#ff6c39" stroke="#fff" stroke-miterlimit="10" stroke-width="0.39"/><ellipse cx="0.757" cy="0.757" rx="0.757" ry="0.757" transform="translate(85.538 203.026) rotate(40)" fill="#ff6c39" stroke="#fff" stroke-miterlimit="10" stroke-width="0.39"/><ellipse cx="0.757" cy="0.757" rx="0.757" ry="0.757" transform="translate(96.362 198.274) rotate(40)" fill="#ff6c39" stroke="#fff" stroke-miterlimit="10" stroke-width="0.39"/><ellipse cx="0.757" cy="0.757" rx="0.757" ry="0.757" transform="translate(107.581 194.567) rotate(40)" fill="#ff6c39" stroke="#fff" stroke-miterlimit="10" stroke-width="0.39"/><ellipse cx="0.757" cy="0.757" rx="0.757" ry="0.757" transform="translate(119.099 191.925) rotate(40)" fill="#ff6c39" stroke="#fff" stroke-miterlimit="10" stroke-width="0.39"/><ellipse cx="0.757" cy="0.757" rx="0.757" ry="0.757" transform="translate(130.824 190.384) rotate(40)" fill="#ff6c39" stroke="#fff" stroke-miterlimit="10" stroke-width="0.39"/><ellipse cx="0.757" cy="0.757" rx="0.757" ry="0.757" transform="translate(142.634 189.944) rotate(40)" fill="#ff6c39" stroke="#fff" stroke-miterlimit="10" stroke-width="0.39"/><ellipse cx="0.757" cy="0.757" rx="0.757" ry="0.757" transform="translate(154.438 190.628) rotate(40)" fill="#ff6c39" stroke="#fff" stroke-miterlimit="10" stroke-width="0.39"/><ellipse cx="0.757" cy="0.757" rx="0.757" ry="0.757" transform="translate(166.121 192.415) rotate(40)" fill="#00c19c" stroke="#fff" stroke-miterlimit="10" stroke-width="0.39"/><ellipse cx="0.757" cy="0.757" rx="0.757" ry="0.757" transform="translate(177.59 195.294) rotate(40)" fill="#00c19c" stroke="#fff" stroke-miterlimit="10" stroke-width="0.39"/><text transform="matrix(0.788, 0.616, -0.616, 0.788, 184.374, 352.21)" fill="orange" font-size="3" font-family="ArialMT, Arial" style="isolation:isolate"><tspan x="0" y="0">Boemia</tspan></text><text transform="matrix(0.839, 0.545, -0.545, 0.839, 207.936, 361.408)" fill="#ff6c39" font-size="3" font-family="ArialMT, Arial" style="isolation:isolate"><tspan x="0" y="0">accampamento</tspan></text><text transform="matrix(0.788, 0.616, -0.616, 0.788, 204.122, 366.977)" fill="#ff6c39" font-size="3" font-family="ArialMT, Arial" style="isolation:isolate"><tspan x="0" y="0">campo di battaglia</tspan></text><text transform="translate(198.629 373.367) rotate(44)" fill="#ff6c39" font-size="3" font-family="ArialMT, Arial" style="isolation:isolate"><tspan x="0" y="0">ospedale</tspan></text><text transform="matrix(0.788, 0.616, -0.616, 0.788, 91.516, 279.291)" fill="orange" font-size="3" font-family="ArialMT, Arial" style="isolation:isolate"><tspan x="0" y="0">Italia</tspan></text><text transform="matrix(0.122, 0.993, -0.993, 0.122, 152.011, 397.252)" fill="#00c19c" font-size="3" font-family="ArialMT, Arial" style="isolation:isolate"><tspan x="0" y="0">Col Gerbido</tspan></text><text transform="translate(161.915 446.118) rotate(81)" fill="#ff6c39" font-size="3" font-family="ArialMT, Arial" style="isolation:isolate"><tspan x="0" y="0">casolare</tspan></text><text transform="matrix(0.07, 0.998, -0.998, 0.07, 151.6, 447.266)" fill="#ff6c39" font-size="3" font-family="ArialMT, Arial" style="isolation:isolate"><tspan x="0" y="0">tana</tspan></text><text transform="translate(113.915 391.617) rotate(110)" fill="#00c19c" font-size="3" font-family="ArialMT, Arial" style="isolation:isolate"><tspan x="0" y="0">Pratofungo</tspan></text><text transform="translate(94.667 439.25) rotate(110)" fill="#ff6c39" font-size="3" font-family="ArialMT, Arial" style="isolation:isolate"><tspan x="0" y="0">capannuccia</tspan></text><text transform="matrix(-0.616, 0.788, -0.788, -0.616, 92.002, 380.686)" fill="#00c19c" font-size="3" font-family="ArialMT, Arial" style="isolation:isolate"><tspan x="0" y="0" letter-spacing="-0.11em">T</tspan><tspan y="0">erraba</tspan></text><text transform="matrix(-0.616, 0.788, -0.788, -0.616, 57.176, 423.066)" fill="#ff6c39" font-size="3" font-family="ArialMT, Arial" style="isolation:isolate"><tspan x="0" y="0">campagna</tspan></text><text transform="translate(116.807 229.762) rotate(74)" fill="#00c19c" font-size="3" font-family="ArialMT, Arial" style="isolation:isolate"><tspan x="0" y="0" letter-spacing="-0.11em">T</tspan><tspan y="0">erralba</tspan></text><text transform="matrix(0.743, 0.669, -0.669, 0.743, 36.374, 220.691)" fill="#ff6c39" font-size="3" font-family="ArialMT, Arial" style="isolation:isolate"><tspan x="0" y="0">cimitero</tspan></text><text transform="translate(47.658 214.457) rotate(47)" fill="#ff6c39" font-size="3" font-family="ArialMT, Arial" style="isolation:isolate"><tspan x="0" y="0">prato</tspan></text><text transform="matrix(0.602, 0.799, -0.799, 0.602, 58.271, 204.21)" fill="#ff6c39" font-size="3" font-family="ArialMT, Arial" style="isolation:isolate"><tspan x="0" y="0">bosco</tspan></text><text transform="translate(67.15 195.819) rotate(58)" fill="#ff6c39" font-size="3" font-family="ArialMT, Arial" style="isolation:isolate"><tspan x="0" y="0">bottega</tspan></text><text transform="matrix(0.454, 0.891, -0.891, 0.454, 77.64, 188.475)" fill="#ff6c39" font-size="3" font-family="ArialMT, Arial" style="isolation:isolate"><tspan x="0" y="0">casolare</tspan></text><text transform="translate(91.43 183.743) rotate(69)" fill="#ff6c39" font-size="3" font-family="ArialMT, Arial" style="isolation:isolate"><tspan x="0" y="0">castello</tspan></text><text transform="translate(104.718 184.849) rotate(74)" fill="#ff6c39" font-size="3" font-family="ArialMT, Arial" style="isolation:isolate"><tspan x="0" y="0">riva</tspan></text><text transform="translate(117.345 175.065) rotate(80)" fill="#ff6c39" font-size="3" font-family="ArialMT, Arial" style="isolation:isolate"><tspan x="0" y="0">collinetta</tspan></text><text transform="translate(129.741 177.357) rotate(85)" fill="#ff6c39" font-size="3" font-family="ArialMT, Arial" style="isolation:isolate"><tspan x="0" y="0">fienile</tspan></text><text transform="matrix(-0.017, 1, -1, -0.017, 144.416, 177.182)" fill="#ff6c39" font-size="3" font-family="ArialMT, Arial" style="isolation:isolate"><tspan x="0" y="0">grotta</tspan></text><text transform="matrix(-0.105, 0.995, -0.995, -0.105, 157.036, 176.493)" fill="#ff6c39" font-size="3" font-family="ArialMT, Arial" style="isolation:isolate"><tspan x="0" y="0">marina</tspan></text><text transform="translate(172.515 159.257) rotate(101)" fill="#00c19c" font-size="3" font-family="ArialMT, Arial" style="isolation:isolate"><tspan x="0" y="0">Salto della Ghigna</tspan></text><text transform="matrix(-0.292, 0.956, -0.956, -0.292, 188.798, 160.362)" fill="#00c19c" font-size="3" font-family="ArialMT, Arial" style="isolation:isolate"><tspan x="0" y="0">Prato delle Monache</tspan></text></g><text transform="translate(143 355)" fill="#1d1d1b" font-size="9" font-family="HKGrotesk-Regular, HK Grotesk"><tspan x="-40.449" y="0">Il visconte dimezzato</tspan></text><g transform="translate(0 37)"><text transform="translate(1.967 153.059)" fill="#1d1d1b" font-size="10" font-family="HKGrotesk-MediumItalic, HK Grotesk" font-weight="500" font-style="italic" letter-spacing="-0.01em"><tspan x="0" y="0">Livelli spaziali: luoghi contenuti in altri luoghi</tspan></text></g><text transform="translate(109 114)" fill="#1d1d1b" font-size="9" font-family="HKGrotesk-Regular, HK Grotesk"><tspan x="-40.449" y="0">Il visconte dimezzato</tspan></text><g transform="translate(-19 -297)"><text transform="translate(20.067 297)" fill="#404040" font-size="10" font-family="HKGrotesk-Bold, HK Grotesk" font-weight="700"><tspan x="0" y="9">TIPO DI LUOGO</tspan></text><text transform="translate(50 327)" font-size="10" font-family="HKGrotesk-Regular, HK Grotesk" style="isolation:isolate"><tspan x="0" y="0">Terrestri </tspan><tspan x="0" y="12">generici</tspan></text><rect width="21" height="10" rx="5" transform="translate(19 319)" fill="#ff6c39"/><rect width="21" height="10" rx="5" transform="translate(104 318)" fill="orange"/><text transform="translate(135 326)" font-size="10" font-family="HKGrotesk-Regular, HK Grotesk" style="isolation:isolate"><tspan x="0" y="0">Terrestri </tspan><tspan x="0" y="12">localizzabili</tspan></text><rect width="21" height="10" rx="5" transform="translate(199 318)" fill="#00c19c"/><text transform="translate(230 326.078)" font-size="10" font-family="HKGrotesk-Regular, HK Grotesk" style="isolation:isolate"><tspan x="0" y="0">Terrestri </tspan><tspan x="0" y="12">inventati</tspan></text></g></g></svg>