<svg xmlns="http://www.w3.org/2000/svg" viewBox="0 0 400 486"><defs><style>.cls-1,.cls-4,.cls-8{fill:orange;}.cls-2,.cls-3{fill:none;stroke:orange;}.cls-2,.cls-3,.cls-4,.cls-5,.cls-6{stroke-miterlimit:10;}.cls-2{stroke-width:0.43px;}.cls-3{stroke-width:0.5px;}.cls-4,.cls-5,.cls-6{stroke:#fff;stroke-width:0.33px;}.cls-5,.cls-9{fill:#00c19c;}.cls-13,.cls-6{fill:#ff6c39;}.cls-13,.cls-7,.cls-8,.cls-9{isolation:isolate;}.cls-13,.cls-8,.cls-9{font-size:5px;font-family:ArialMT, Arial;}.cls-10{letter-spacing:-0.11em;}.cls-11{letter-spacing:-0.04em;}.cls-12{letter-spacing:-0.07em;}.cls-14,.cls-16{font-size:10px;fill:#1d1d1b;}.cls-14{font-family:HKGrotesk-Regular, HK Grotesk;letter-spacing:0em;}.cls-15{letter-spacing:0em;}.cls-16{font-family:HKGrotesk-MediumItalic, HK Grotesk;font-weight:500;font-style:italic;}.cls-17{letter-spacing:-0.01em;}.cls-18{letter-spacing:-0.02em;}.cls-19{letter-spacing:0em;}.cls-20{letter-spacing:-0.01em;}.cls-21{letter-spacing:0em;}.cls-22{letter-spacing:-0.01em;}.cls-23{letter-spacing:0em;}.cls-24{letter-spacing:-0.01em;}</style></defs><title>zoom_02</title><g id="Isolation_Mode" data-name="Isolation Mode"><path d="M140.5,283.75A62.25,62.25,0,1,1,78.25,346a62.33,62.33,0,0,1,62.25-62.25m0-.25A62.5,62.5,0,1,0,203,346a62.5,62.5,0,0,0-62.5-62.5Z"/><path class="cls-1" d="M136.5,34A52.5,52.5,0,1,1,84,86.5,52.56,52.56,0,0,1,136.5,34m0-7A59.5,59.5,0,1,0,196,86.5,59.5,59.5,0,0,0,136.5,27Z"/><path class="cls-1" d="M251.77,350.49a112.26,112.26,0,1,1,0-12.15h-.33a111.93,111.93,0,1,0,0,12.12Z"/><line class="cls-2" x1="39" y1="344.41" x2="27.74" y2="344.41"/><line class="cls-3" x1="297.55" y1="335.29" x2="313.88" y2="334.4"/><circle class="cls-4" cx="78.12" cy="343.41" r="0.84"/><circle class="cls-5" cx="251.44" cy="350.47" r="0.84"/><circle class="cls-5" cx="250.13" cy="362.52" r="0.84"/><circle class="cls-5" cx="247.52" cy="374.36" r="0.84"/><circle class="cls-5" cx="243.65" cy="385.84" r="0.84"/><circle class="cls-5" cx="238.56" cy="396.84" r="0.84"/><circle class="cls-5" cx="232.31" cy="407.23" r="0.84"/><circle class="cls-5" cx="224.98" cy="416.87" r="0.84"/><circle class="cls-5" cx="216.64" cy="425.67" r="0.84"/><circle class="cls-5" cx="207.41" cy="433.52" r="0.84"/><circle class="cls-5" cx="197.38" cy="440.32" r="0.84"/><circle class="cls-5" cx="186.67" cy="446" r="0.84"/><circle class="cls-5" cx="175.41" cy="450.48" r="0.84"/><circle class="cls-5" cx="163.73" cy="453.72" r="0.84"/><circle class="cls-5" cx="151.77" cy="455.69" r="0.84"/><circle class="cls-5" cx="139.67" cy="456.34" r="0.84"/><circle class="cls-5" cx="127.57" cy="455.69" r="0.84"/><circle class="cls-5" cx="115.61" cy="453.72" r="0.84"/><circle class="cls-5" cx="103.93" cy="450.48" r="0.84"/><circle class="cls-5" cx="92.68" cy="446" r="0.84"/><circle class="cls-5" cx="81.97" cy="440.32" r="0.84"/><circle class="cls-5" cx="71.94" cy="433.52" r="0.84"/><circle class="cls-5" cx="62.7" cy="425.67" r="0.84"/><circle class="cls-5" cx="54.37" cy="416.87" r="0.84"/><circle class="cls-5" cx="47.03" cy="407.23" r="0.84"/><circle class="cls-5" cx="40.78" cy="396.84" r="0.84"/><circle class="cls-5" cx="35.69" cy="385.84" r="0.84"/><circle class="cls-5" cx="31.82" cy="374.36" r="0.84"/><circle class="cls-5" cx="29.22" cy="362.52" r="0.84"/><circle class="cls-5" cx="27.91" cy="350.47" r="0.84"/><circle class="cls-5" cx="27.91" cy="338.35" r="0.84"/><circle class="cls-5" cx="29.22" cy="326.31" r="0.84"/><circle class="cls-5" cx="31.82" cy="314.47" r="0.84"/><circle class="cls-5" cx="35.69" cy="302.99" r="0.84"/><circle class="cls-5" cx="40.78" cy="291.99" r="0.84"/><circle class="cls-5" cx="47.03" cy="281.6" r="0.84"/><circle class="cls-5" cx="54.37" cy="271.95" r="0.84"/><circle class="cls-5" cx="62.7" cy="263.16" r="0.84"/><circle class="cls-5" cx="71.94" cy="255.31" r="0.84"/><circle class="cls-5" cx="81.97" cy="248.51" r="0.84"/><circle class="cls-5" cx="92.68" cy="242.83" r="0.84"/><circle class="cls-5" cx="103.93" cy="238.35" r="0.84"/><circle class="cls-5" cx="115.61" cy="235.1" r="0.84"/><circle class="cls-5" cx="127.57" cy="233.14" r="0.84"/><circle class="cls-5" cx="139.67" cy="232.49" r="0.84"/><circle class="cls-5" cx="151.77" cy="233.14" r="0.84"/><circle class="cls-5" cx="163.73" cy="235.1" r="0.84"/><circle class="cls-5" cx="175.41" cy="238.35" r="0.84"/><circle class="cls-5" cx="186.67" cy="242.83" r="0.84"/><circle class="cls-5" cx="197.38" cy="248.51" r="0.84"/><circle class="cls-5" cx="207.41" cy="255.31" r="0.84"/><circle class="cls-5" cx="216.64" cy="263.16" r="0.84"/><circle class="cls-5" cx="224.98" cy="271.95" r="0.84"/><circle class="cls-5" cx="232.31" cy="281.6" r="0.84"/><circle class="cls-5" cx="238.56" cy="291.99" r="0.84"/><circle class="cls-5" cx="243.65" cy="302.99" r="0.84"/><circle class="cls-5" cx="247.52" cy="314.47" r="0.84"/><circle class="cls-5" cx="250.13" cy="326.31" r="0.84"/><circle class="cls-4" cx="251.44" cy="338.35" r="0.84"/><circle class="cls-6" cx="314.88" cy="334.4" r="0.84"/><g id="V018_Impero_mongolo" data-name="V018@Impero_mongolo" class="cls-7"><text class="cls-8" transform="translate(40.04 344.42)">Impero mongolo</text></g><g id="V018_Impero_mongolo_Adelma" data-name="V018@Impero_mongolo@Adelma" class="cls-7"><text class="cls-9" transform="translate(254.74 350.65) rotate(3.1)">Adelma</text></g><g id="V018_Impero_mongolo_Aglaura" data-name="V018@Impero_mongolo@Aglaura" class="cls-7"><text class="cls-9" transform="translate(253.39 363.06) rotate(9.31)">Aglaura</text></g><g id="V018_Impero_mongolo_Anastasia" data-name="V018@Impero_mongolo@Anastasia" class="cls-7"><text class="cls-9" transform="translate(250.7 375.24) rotate(15.52)">Anastasia</text></g><g id="V018_Impero_mongolo_Andria" data-name="V018@Impero_mongolo@Andria" class="cls-7"><text class="cls-9" transform="translate(246.72 387.07) rotate(21.72)">Andria</text></g><g id="V018_Impero_mongolo_Argia" data-name="V018@Impero_mongolo@Argia" class="cls-7"><text class="cls-9" transform="translate(241.48 398.39) rotate(27.93)">Argia</text></g><g id="V018_Impero_mongolo_Armilla" data-name="V018@Impero_mongolo@Armilla" class="cls-7"><text class="cls-9" transform="translate(235.05 409.08) rotate(34.14)">Armilla</text></g><g id="V018_Impero_mongolo_Bauci" data-name="V018@Impero_mongolo@Bauci" class="cls-7"><text class="cls-9" transform="matrix(0.76, 0.65, -0.65, 0.76, 227.5, 419.01)">Bauci</text></g><g id="V018_Impero_mongolo_Berenice" data-name="V018@Impero_mongolo@Berenice" class="cls-7"><text class="cls-9" transform="translate(218.92 428.08) rotate(46.55)">Berenice</text></g><g id="V018_Impero_mongolo_Bersabea" data-name="V018@Impero_mongolo@Bersabea" class="cls-7"><text class="cls-9" transform="translate(209.41 436.15) rotate(52.76)">Bersabea</text></g><g id="V018_Impero_mongolo_Cecilia" data-name="V018@Impero_mongolo@Cecilia" class="cls-7"><text class="cls-9" transform="matrix(0.52, 0.86, -0.86, 0.52, 199.08, 443.15)">Cecilia</text></g><g id="V018_Impero_mongolo_Clarice" data-name="V018@Impero_mongolo@Clarice" class="cls-7"><text class="cls-9" transform="translate(188.06 449) rotate(65.17)">Clarice</text></g><g id="V018_Impero_mongolo_Cloe" data-name="V018@Impero_mongolo@Cloe" class="cls-7"><text class="cls-9" transform="translate(176.47 453.62) rotate(71.38)">Cloe</text></g><g id="V018_Impero_mongolo_Despina" data-name="V018@Impero_mongolo@Despina" class="cls-7"><text class="cls-9" transform="translate(164.45 456.96) rotate(77.59)">Despina</text></g><g id="V018_Impero_mongolo_Diomira" data-name="V018@Impero_mongolo@Diomira" class="cls-7"><text class="cls-9" transform="translate(152.13 458.97) rotate(83.79)">Diomira</text></g><g id="V018_Impero_mongolo_Dorotea" data-name="V018@Impero_mongolo@Dorotea" class="cls-7"><text class="cls-9" transform="translate(139.67 459.65) rotate(90)">Dorotea</text></g><g id="V018_Impero_mongolo_Ersilia" data-name="V018@Impero_mongolo@Ersilia" class="cls-7"><text class="cls-9" transform="translate(125.82 471.78) rotate(-83.79)">Ersilia</text></g><g id="V018_Impero_mongolo_Eudossia" data-name="V018@Impero_mongolo@Eudossia" class="cls-7"><text class="cls-9" transform="matrix(0.21, -0.98, 0.98, 0.21, 111.14, 474.02)">Eudossia</text></g><g id="V018_Impero_mongolo_Eufemia" data-name="V018@Impero_mongolo@Eufemia" class="cls-7"><text class="cls-9" transform="matrix(0.32, -0.95, 0.95, 0.32, 97.77, 468.79)">Eufemia</text></g><g id="V018_Impero_mongolo_Eusapia" data-name="V018@Impero_mongolo@Eusapia" class="cls-7"><text class="cls-9" transform="translate(84.64 463.36) rotate(-65.17)">Eusapia</text></g><g id="V018_Impero_mongolo_Eutropia" data-name="V018@Impero_mongolo@Eutropia" class="cls-7"><text class="cls-9" transform="matrix(0.52, -0.86, 0.86, 0.52, 71.92, 457.03)">Eutropia</text></g><g id="V018_Impero_mongolo_Fedora" data-name="V018@Impero_mongolo@Fedora" class="cls-7"><text class="cls-9" transform="translate(61.25 447.58) rotate(-52.76)">Fedora</text></g><g id="V018_Impero_mongolo_Fillide" data-name="V018@Impero_mongolo@Fillide" class="cls-7"><text class="cls-9" transform="matrix(0.69, -0.73, 0.73, 0.69, 51.82, 437.16)">Fillide</text></g><g id="V018_Impero_mongolo_Ipazia" data-name="V018@Impero_mongolo@Ipazia" class="cls-7"><text class="cls-9" transform="matrix(0.76, -0.65, 0.65, 0.76, 42.17, 427.24)">Ipazia</text></g><g id="V018_Impero_mongolo_Irene" data-name="V018@Impero_mongolo@Irene" class="cls-7"><text class="cls-9" transform="translate(34.85 415.49) rotate(-34.14)">Irene</text></g><g id="V018_Impero_mongolo_Isaura" data-name="V018@Impero_mongolo@Isaura" class="cls-7"><text class="cls-9" transform="matrix(0.88, -0.47, 0.47, 0.88, 26.32, 404.51)">Isaura</text></g><g id="V018_Impero_mongolo_Isidora" data-name="V018@Impero_mongolo@Isidora" class="cls-7"><text class="cls-9" transform="translate(19.8 392.18) rotate(-21.72)">Isidora</text></g><g id="V018_Impero_mongolo_Lalage" data-name="V018@Impero_mongolo@Lalage" class="cls-7"><text class="cls-9" transform="matrix(0.96, -0.27, 0.27, 0.96, 15.33, 378.93)">Lalage</text></g><g id="V018_Impero_mongolo_Laudomia" data-name="V018@Impero_mongolo@Laudomia" class="cls-7"><text class="cls-9" transform="translate(7.8 366.03) rotate(-9.31)">Laudomia</text></g><g id="V018_Impero_mongolo_Leandra" data-name="V018@Impero_mongolo@Leandra" class="cls-7"><text class="cls-9" transform="translate(8.62 351.52) rotate(-3.1)">Leandra</text></g><g id="V018_Impero_mongolo_Leonia" data-name="V018@Impero_mongolo@Leonia" class="cls-7"><text class="cls-9" transform="translate(10.83 337.43) rotate(3.1)">Leonia</text></g><g id="V018_Impero_mongolo_Marozia" data-name="V018@Impero_mongolo@Marozia" class="cls-7"><text class="cls-9" transform="translate(10.53 323.24) rotate(9.31)">Marozia</text></g><g id="V018_Impero_mongolo_Maurilia" data-name="V018@Impero_mongolo@Maurilia" class="cls-7"><text class="cls-9" transform="matrix(0.96, 0.27, -0.27, 0.96, 13.75, 309.45)">Maurilia</text></g><g id="V018_Impero_mongolo_Melania" data-name="V018@Impero_mongolo@Melania" class="cls-7"><text class="cls-9" transform="translate(18.26 296.04) rotate(21.72)">Melania</text></g><g id="V018_Impero_mongolo_Moriana" data-name="V018@Impero_mongolo@Moriana" class="cls-7"><text class="cls-9" transform="matrix(0.88, 0.47, -0.47, 0.88, 23.88, 283.03)">Moriana</text></g><g id="V018_Impero_mongolo_Olinda" data-name="V018@Impero_mongolo@Olinda" class="cls-7"><text class="cls-9" transform="translate(33.18 272.21) rotate(34.14)">Olinda</text></g><g id="V018_Impero_mongolo_Olivia" data-name="V018@Impero_mongolo@Olivia" class="cls-7"><text class="cls-9" transform="matrix(0.76, 0.65, -0.65, 0.76, 42.59, 261.95)">Olivia</text></g><g id="V018_Impero_mongolo_Ottavia" data-name="V018@Impero_mongolo@Ottavia" class="cls-7"><text class="cls-9" transform="matrix(0.69, 0.73, -0.73, 0.69, 50.56, 250.34)">Ottavia</text></g><g id="V018_Impero_mongolo_Pentesilea" data-name="V018@Impero_mongolo@Pentesilea" class="cls-7"><text class="cls-9" transform="translate(58.24 237.29) rotate(52.76)">Pentesilea</text></g><g id="V018_Impero_mongolo_Perinzia" data-name="V018@Impero_mongolo@Perinzia" class="cls-7"><text class="cls-9" transform="matrix(0.52, 0.86, -0.86, 0.52, 72.11, 232.12)">Perinzia</text></g><g id="V018_Impero_mongolo_Pirra" data-name="V018@Impero_mongolo@Pirra" class="cls-7"><text class="cls-9" transform="translate(86.73 229.98) rotate(65.17)">Pirra</text></g><g id="V018_Impero_mongolo_Procopia" data-name="V018@Impero_mongolo@Procopia" class="cls-7"><text class="cls-9" transform="matrix(0.32, 0.95, -0.95, 0.32, 97.47, 219.17)">Procopia</text></g><g id="V018_Impero_mongolo_Quinsai" data-name="V018@Impero_mongolo@Quinsai" class="cls-7"><text class="cls-9" transform="matrix(0.21, 0.98, -0.98, 0.21, 111.66, 217.14)">Quinsai</text></g><g id="V018_Impero_mongolo_Raissa" data-name="V018@Impero_mongolo@Raissa" class="cls-7"><text class="cls-9" transform="translate(125.7 215.96) rotate(83.79)">Raissa</text></g><g id="V018_Impero_mongolo_Smeraldina" data-name="V018@Impero_mongolo@Smeraldina" class="cls-7"><text class="cls-9" transform="translate(139.67 229.18) rotate(-90)">Smeraldina</text></g><g id="V018_Impero_mongolo_Sofronia" data-name="V018@Impero_mongolo@Sofronia" class="cls-7"><text class="cls-9" transform="translate(152.13 229.85) rotate(-83.79)">Sofronia</text></g><g id="V018_Impero_mongolo_Tamara" data-name="V018@Impero_mongolo@Tamara" class="cls-7"><text class="cls-9" transform="matrix(0.21, -0.98, 0.98, 0.21, 164.44, 231.87)"><tspan class="cls-10">T</tspan><tspan x="2.5" y="0">amara</tspan></text></g><g id="V018_Impero_mongolo_Tecla" data-name="V018@Impero_mongolo@Tecla" class="cls-7"><text class="cls-9" transform="matrix(0.32, -0.95, 0.95, 0.32, 176.47, 235.21)"><tspan class="cls-10">T</tspan><tspan x="2.5" y="0">ecla</tspan></text></g><g id="V018_Impero_mongolo_Teodora" data-name="V018@Impero_mongolo@Teodora" class="cls-7"><text class="cls-9" transform="translate(188.06 239.83) rotate(-65.17)"><tspan class="cls-10">T</tspan><tspan x="2.5" y="0">eodora</tspan></text></g><g id="V018_Impero_mongolo_Trude" data-name="V018@Impero_mongolo@Trude" class="cls-7"><text class="cls-9" transform="matrix(0.52, -0.86, 0.86, 0.52, 199.08, 245.67)"><tspan class="cls-11">T</tspan><tspan x="2.87" y="0">rude</tspan></text></g><g id="V018_Impero_mongolo_Valdrada" data-name="V018@Impero_mongolo@Valdrada" class="cls-7"><text class="cls-9" transform="translate(209.41 252.68) rotate(-52.76)"><tspan class="cls-12">V</tspan><tspan x="2.96" y="0">aldrada</tspan></text></g><g id="V018_Impero_mongolo_Zaira" data-name="V018@Impero_mongolo@Zaira" class="cls-7"><text class="cls-9" transform="matrix(0.69, -0.73, 0.73, 0.69, 218.92, 260.75)">Zaira</text></g><g id="V018_Impero_mongolo_Zemrude" data-name="V018@Impero_mongolo@Zemrude" class="cls-7"><text class="cls-9" transform="matrix(0.76, -0.65, 0.65, 0.76, 227.5, 269.81)">Zemrude</text></g><g id="V018_Impero_mongolo_Zenobia" data-name="V018@Impero_mongolo@Zenobia" class="cls-7"><text class="cls-9" transform="translate(235.06 279.75) rotate(-34.14)">Zenobia</text></g><g id="V018_Impero_mongolo_Zirma" data-name="V018@Impero_mongolo@Zirma" class="cls-7"><text class="cls-9" transform="matrix(0.88, -0.47, 0.47, 0.88, 241.49, 290.44)">Zirma</text></g><g id="V018_Impero_mongolo_Zobeide" data-name="V018@Impero_mongolo@Zobeide" class="cls-7"><text class="cls-9" transform="translate(246.72 301.76) rotate(-21.72)">Zobeide</text></g><g id="V018_Impero_mongolo_Zoe" data-name="V018@Impero_mongolo@Zoe" class="cls-7"><text class="cls-9" transform="matrix(0.96, -0.27, 0.27, 0.96, 250.71, 313.58)">Zoe</text></g><g id="V018_Impero_mongolo_Zora" data-name="V018@Impero_mongolo@Zora" class="cls-7"><text class="cls-9" transform="translate(253.39 325.77) rotate(-9.31)">Zora</text></g><g id="V018_Impero_mongolo_reggia_di_Kemenfù" data-name="V018@Impero_mongolo@reggia_di_Kemenfù" class="cls-7"><text class="cls-8" transform="translate(254.74 338.18) rotate(-3.1)">reggia di Kemenfù</text></g><g id="V018_Impero_mongolo_reggia_di_Kemenfù_giardino" data-name="V018@Impero_mongolo@reggia_di_Kemenfù@giardino" class="cls-7"><text class="cls-13" transform="translate(318.19 335.23) rotate(-3.1)">giardino</text></g><text class="cls-14" transform="translate(100.37 89.47)">L<tspan class="cls-15" x="5.32" y="0">e città invisibili</tspan></text><text class="cls-14" transform="translate(104.37 348.97)">L<tspan class="cls-15" x="5.32" y="0">e città invisibili</tspan></text><text class="cls-16" transform="translate(5.67 179.61)"><tspan class="cls-17">R</tspan><tspan x="6.06" y="0">elazione ge</tspan><tspan class="cls-18" x="56.2" y="0">r</tspan><tspan class="cls-19" x="59.94" y="0">a</tspan><tspan class="cls-18" x="65.77" y="0">r</tspan><tspan x="69.51" y="0">chi</tspan><tspan class="cls-20" x="82.49" y="0">c</tspan><tspan x="87.4" y="0">a dei </tspan><tspan class="cls-21" x="111.97" y="0">lu</tspan><tspan class="cls-15" x="120.12" y="0">oghi</tspan><tspan x="0" y="12">LE MEDUSE</tspan></text><text class="cls-16" transform="translate(5.67 14.85)"><tspan class="cls-22">P</tspan><tspan class="cls-23" x="5.66" y="0">r</tspan><tspan x="9.65" y="0">imo li</tspan><tspan class="cls-24" x="33.75" y="0">v</tspan><tspan x="38.5" y="0">ello</tspan></text></g></svg>