<svg xmlns="http://www.w3.org/2000/svg" xmlns:xlink="http://www.w3.org/1999/xlink" width="250" height="389" viewBox="0 0 250 389">
  <defs>
    <clipPath id="clip-zoom-01">
      <rect width="250" height="389"/>
    </clipPath>
  </defs>
  <g id="zoom-01" clip-path="url(#clip-zoom-01)">
    <g id="zoom_01" transform="translate(0 0)">
      <g id="Layer_1" data-name="Layer 1" transform="translate(0.037 194.606)">
        <path id="Path_148060" data-name="Path 148060" d="M281.824,534.011q-1.482,3.218-3.249,6.3l-.115-.073q1.761-3.066,3.243-6.291Z" transform="translate(-110.882 -407.267)" fill="#00c19c"/>
        <path id="Path_148061" data-name="Path 148061" d="M169.233,477.483a82.785,82.785,0,1,1,20.13-58.155h-.134a82.645,82.645,0,1,0-20.093,58.094Z" transform="translate(-10.891 -331.278)" fill="#00c19c"/>
        <line id="Line_7813" data-name="Line 7813" x2="11.507" y2="1.937" transform="translate(166.084 101.816)" fill="none" stroke="#ff6c39" stroke-miterlimit="10" stroke-width="0.33"/>
        <line id="Line_7814" data-name="Line 7814" x2="6.54" y2="3.37" transform="translate(162.702 126.494)" fill="none" stroke="#00c19c" stroke-miterlimit="10" stroke-width="0.33"/>
        <line id="Line_7815" data-name="Line 7815" x1="5.72" y1="2.247" transform="translate(17.664 64.957)" fill="none" stroke="#00c19c" stroke-miterlimit="10" stroke-width="0.33"/>
        <line id="Line_7816" data-name="Line 7816" y1="10.718" x2="15.175" transform="translate(182.48 19.445)" fill="none" stroke="#00c19c" stroke-miterlimit="10" stroke-width="0.33"/>
        <line id="Line_7817" data-name="Line 7817" y1="2.726" x2="18.266" transform="translate(201.304 74.193)" fill="none" stroke="#00c19c" stroke-miterlimit="10" stroke-width="0.33"/>
        <ellipse id="Ellipse_33258" data-name="Ellipse 33258" cx="0.34" cy="0.34" rx="0.34" ry="0.34" transform="translate(156.939 94.578)" fill="orange" stroke="#fff" stroke-miterlimit="10" stroke-width="0.22"/>
        <ellipse id="Ellipse_33259" data-name="Ellipse 33259" cx="0.34" cy="0.34" rx="0.34" ry="0.34" transform="translate(156.381 100.414)" fill="#ff6c39" stroke="#fff" stroke-miterlimit="10" stroke-width="0.22"/>
        <ellipse id="Ellipse_33260" data-name="Ellipse 33260" cx="0.34" cy="0.34" rx="0.34" ry="0.34" transform="translate(177.251 103.413)" fill="#ff6c39" stroke="#fff" stroke-miterlimit="10" stroke-width="0.22"/>
        <ellipse id="Ellipse_33261" data-name="Ellipse 33261" cx="0.34" cy="0.34" rx="0.34" ry="0.34" transform="translate(155.269 106.164)" fill="#ff6c39" stroke="#fff" stroke-miterlimit="10" stroke-width="0.22"/>
        <ellipse id="Ellipse_33262" data-name="Ellipse 33262" cx="0.34" cy="0.34" rx="0.34" ry="0.34" transform="translate(150.163 119.863)" fill="#00c19c" stroke="#fff" stroke-miterlimit="10" stroke-width="0.22"/>
        <ellipse id="Ellipse_33263" data-name="Ellipse 33263" cx="0.34" cy="0.34" rx="0.34" ry="0.34" transform="translate(170.456 126.343)" fill="#ff6c39" stroke="#fff" stroke-miterlimit="10" stroke-width="0.22"/>
        <ellipse id="Ellipse_33264" data-name="Ellipse 33264" cx="0.34" cy="0.34" rx="0.34" ry="0.34" transform="translate(169.436 128.474)" fill="#ff6c39" stroke="#fff" stroke-miterlimit="10" stroke-width="0.22"/>
        <ellipse id="Ellipse_33265" data-name="Ellipse 33265" cx="0.34" cy="0.34" rx="0.34" ry="0.34" transform="translate(168.355 130.569)" fill="#ff6c39" stroke="#fff" stroke-miterlimit="10" stroke-width="0.22"/>
        <ellipse id="Ellipse_33266" data-name="Ellipse 33266" cx="0.34" cy="0.34" rx="0.34" ry="0.34" transform="translate(167.214 132.634)" fill="#ff6c39" stroke="#fff" stroke-miterlimit="10" stroke-width="0.22"/>
        <ellipse id="Ellipse_33267" data-name="Ellipse 33267" cx="0.34" cy="0.34" rx="0.34" ry="0.34" transform="translate(37.247 71.509)" fill="#00c19c" stroke="#fff" stroke-miterlimit="10" stroke-width="0.22"/>
        <ellipse id="Ellipse_33268" data-name="Ellipse 33268" cx="0.34" cy="0.34" rx="0.34" ry="0.34" transform="translate(157.905 145.78)" fill="#ff6c39" stroke="#fff" stroke-miterlimit="10" stroke-width="0.22"/>
        <ellipse id="Ellipse_33269" data-name="Ellipse 33269" cx="0.34" cy="0.34" rx="0.34" ry="0.34" transform="translate(152.476 151.47)" fill="#ff6c39" stroke="#fff" stroke-miterlimit="10" stroke-width="0.22"/>
        <ellipse id="Ellipse_33270" data-name="Ellipse 33270" cx="0.34" cy="0.34" rx="0.34" ry="0.34" transform="translate(146.531 156.619)" fill="#ff6c39" stroke="#fff" stroke-miterlimit="10" stroke-width="0.22"/>
        <ellipse id="Ellipse_33271" data-name="Ellipse 33271" cx="0.34" cy="0.34" rx="0.34" ry="0.34" transform="translate(140.125 161.186)" fill="#ff6c39" stroke="#fff" stroke-miterlimit="10" stroke-width="0.22"/>
        <ellipse id="Ellipse_33272" data-name="Ellipse 33272" cx="0.34" cy="0.34" rx="0.34" ry="0.34" transform="translate(133.312 165.115)" fill="#ff6c39" stroke="#fff" stroke-miterlimit="10" stroke-width="0.22"/>
        <ellipse id="Ellipse_33273" data-name="Ellipse 33273" cx="0.34" cy="0.34" rx="0.34" ry="0.34" transform="translate(126.152 168.388)" fill="#ff6c39" stroke="#fff" stroke-miterlimit="10" stroke-width="0.22"/>
        <ellipse id="Ellipse_33274" data-name="Ellipse 33274" cx="0.34" cy="0.34" rx="0.34" ry="0.34" transform="translate(118.72 170.956)" fill="#ff6c39" stroke="#fff" stroke-miterlimit="10" stroke-width="0.22"/>
        <ellipse id="Ellipse_33275" data-name="Ellipse 33275" cx="0.34" cy="0.34" rx="0.34" ry="0.34" transform="translate(111.075 172.814)" fill="#ff6c39" stroke="#fff" stroke-miterlimit="10" stroke-width="0.22"/>
        <ellipse id="Ellipse_33276" data-name="Ellipse 33276" cx="0.34" cy="0.34" rx="0.34" ry="0.34" transform="translate(103.29 173.932)" fill="#ff6c39" stroke="#fff" stroke-miterlimit="10" stroke-width="0.22"/>
        <ellipse id="Ellipse_33277" data-name="Ellipse 33277" cx="0.34" cy="0.34" rx="0.34" ry="0.34" transform="translate(95.432 174.308)" fill="#ff6c39" stroke="#fff" stroke-miterlimit="10" stroke-width="0.22"/>
        <ellipse id="Ellipse_33278" data-name="Ellipse 33278" cx="0.34" cy="0.34" rx="0.34" ry="0.34" transform="translate(87.581 173.932)" fill="#ff6c39" stroke="#fff" stroke-miterlimit="10" stroke-width="0.22"/>
        <ellipse id="Ellipse_33279" data-name="Ellipse 33279" cx="0.34" cy="0.34" rx="0.34" ry="0.34" transform="translate(79.79 172.814)" fill="#ff6c39" stroke="#fff" stroke-miterlimit="10" stroke-width="0.22"/>
        <ellipse id="Ellipse_33280" data-name="Ellipse 33280" cx="0.34" cy="0.34" rx="0.34" ry="0.34" transform="translate(72.145 170.956)" fill="#ff6c39" stroke="#fff" stroke-miterlimit="10" stroke-width="0.22"/>
        <ellipse id="Ellipse_33281" data-name="Ellipse 33281" cx="0.34" cy="0.34" rx="0.34" ry="0.34" transform="translate(64.712 168.388)" fill="#ff6c39" stroke="#fff" stroke-miterlimit="10" stroke-width="0.22"/>
        <ellipse id="Ellipse_33282" data-name="Ellipse 33282" cx="0.34" cy="0.34" rx="0.34" ry="0.34" transform="translate(57.559 165.115)" fill="#ff6c39" stroke="#fff" stroke-miterlimit="10" stroke-width="0.22"/>
        <ellipse id="Ellipse_33283" data-name="Ellipse 33283" cx="0.34" cy="0.34" rx="0.34" ry="0.34" transform="translate(50.746 161.186)" fill="#ff6c39" stroke="#fff" stroke-miterlimit="10" stroke-width="0.22"/>
        <ellipse id="Ellipse_33284" data-name="Ellipse 33284" cx="0.34" cy="0.34" rx="0.34" ry="0.34" transform="translate(44.34 156.619)" fill="#ff6c39" stroke="#fff" stroke-miterlimit="10" stroke-width="0.22"/>
        <ellipse id="Ellipse_33285" data-name="Ellipse 33285" cx="0.34" cy="0.34" rx="0.34" ry="0.34" transform="translate(38.395 151.47)" fill="#ff6c39" stroke="#fff" stroke-miterlimit="10" stroke-width="0.22"/>
        <ellipse id="Ellipse_33286" data-name="Ellipse 33286" cx="0.34" cy="0.34" rx="0.34" ry="0.34" transform="translate(32.966 145.78)" fill="#ff6c39" stroke="#fff" stroke-miterlimit="10" stroke-width="0.22"/>
        <ellipse id="Ellipse_33287" data-name="Ellipse 33287" cx="0.34" cy="0.34" rx="0.34" ry="0.34" transform="translate(28.102 139.593)" fill="#ff6c39" stroke="#fff" stroke-miterlimit="10" stroke-width="0.22"/>
        <ellipse id="Ellipse_33288" data-name="Ellipse 33288" cx="0.34" cy="0.34" rx="0.34" ry="0.34" transform="translate(23.851 132.98)" fill="#ff6c39" stroke="#fff" stroke-miterlimit="10" stroke-width="0.22"/>
        <ellipse id="Ellipse_33289" data-name="Ellipse 33289" cx="0.34" cy="0.34" rx="0.34" ry="0.34" transform="translate(20.25 125.984)" fill="#ff6c39" stroke="#fff" stroke-miterlimit="10" stroke-width="0.22"/>
        <ellipse id="Ellipse_33290" data-name="Ellipse 33290" cx="0.34" cy="0.34" rx="0.34" ry="0.34" transform="translate(17.324 118.685)" fill="#ff6c39" stroke="#fff" stroke-miterlimit="10" stroke-width="0.22"/>
        <ellipse id="Ellipse_33291" data-name="Ellipse 33291" cx="0.34" cy="0.34" rx="0.34" ry="0.34" transform="translate(15.107 111.137)" fill="#ff6c39" stroke="#fff" stroke-miterlimit="10" stroke-width="0.22"/>
        <ellipse id="Ellipse_33292" data-name="Ellipse 33292" cx="0.34" cy="0.34" rx="0.34" ry="0.34" transform="translate(13.619 103.413)" fill="#ff6c39" stroke="#fff" stroke-miterlimit="10" stroke-width="0.22"/>
        <ellipse id="Ellipse_33293" data-name="Ellipse 33293" cx="0.34" cy="0.34" rx="0.34" ry="0.34" transform="translate(12.872 95.58)" fill="#ff6c39" stroke="#fff" stroke-miterlimit="10" stroke-width="0.22"/>
        <ellipse id="Ellipse_33294" data-name="Ellipse 33294" cx="0.34" cy="0.34" rx="0.34" ry="0.34" transform="translate(12.872 87.716)" fill="#ff6c39" stroke="#fff" stroke-miterlimit="10" stroke-width="0.22"/>
        <ellipse id="Ellipse_33295" data-name="Ellipse 33295" cx="0.34" cy="0.34" rx="0.34" ry="0.34" transform="translate(13.619 79.889)" fill="#ff6c39" stroke="#fff" stroke-miterlimit="10" stroke-width="0.22"/>
        <ellipse id="Ellipse_33296" data-name="Ellipse 33296" cx="0.34" cy="0.34" rx="0.34" ry="0.34" transform="translate(15.107 72.165)" fill="#ff6c39" stroke="#fff" stroke-miterlimit="10" stroke-width="0.22"/>
        <ellipse id="Ellipse_33297" data-name="Ellipse 33297" cx="0.34" cy="0.34" rx="0.34" ry="0.34" transform="translate(17.324 64.617)" fill="#ff6c39" stroke="#fff" stroke-miterlimit="10" stroke-width="0.22"/>
        <ellipse id="Ellipse_33298" data-name="Ellipse 33298" cx="0.34" cy="0.34" rx="0.34" ry="0.34" transform="translate(20.25 57.312)" fill="#ff6c39" stroke="#fff" stroke-miterlimit="10" stroke-width="0.22"/>
        <ellipse id="Ellipse_33299" data-name="Ellipse 33299" cx="0.34" cy="0.34" rx="0.34" ry="0.34" transform="translate(23.851 50.323)" fill="#ff6c39" stroke="#fff" stroke-miterlimit="10" stroke-width="0.22"/>
        <ellipse id="Ellipse_33300" data-name="Ellipse 33300" cx="0.34" cy="0.34" rx="0.34" ry="0.34" transform="translate(28.102 43.704)" fill="#ff6c39" stroke="#fff" stroke-miterlimit="10" stroke-width="0.22"/>
        <ellipse id="Ellipse_33301" data-name="Ellipse 33301" cx="0.34" cy="0.34" rx="0.34" ry="0.34" transform="translate(32.966 37.522)" fill="#ff6c39" stroke="#fff" stroke-miterlimit="10" stroke-width="0.22"/>
        <ellipse id="Ellipse_33302" data-name="Ellipse 33302" cx="0.34" cy="0.34" rx="0.34" ry="0.34" transform="translate(38.395 31.826)" fill="#ff6c39" stroke="#fff" stroke-miterlimit="10" stroke-width="0.22"/>
        <ellipse id="Ellipse_33303" data-name="Ellipse 33303" cx="0.34" cy="0.34" rx="0.34" ry="0.34" transform="translate(44.34 26.677)" fill="#ff6c39" stroke="#fff" stroke-miterlimit="10" stroke-width="0.22"/>
        <ellipse id="Ellipse_33304" data-name="Ellipse 33304" cx="0.34" cy="0.34" rx="0.34" ry="0.34" transform="translate(50.746 22.117)" fill="#ff6c39" stroke="#fff" stroke-miterlimit="10" stroke-width="0.22"/>
        <ellipse id="Ellipse_33305" data-name="Ellipse 33305" cx="0.34" cy="0.34" rx="0.34" ry="0.34" transform="translate(57.559 18.182)" fill="#ff6c39" stroke="#fff" stroke-miterlimit="10" stroke-width="0.22"/>
        <ellipse id="Ellipse_33306" data-name="Ellipse 33306" cx="0.34" cy="0.34" rx="0.34" ry="0.34" transform="translate(64.712 14.915)" fill="#ff6c39" stroke="#fff" stroke-miterlimit="10" stroke-width="0.22"/>
        <ellipse id="Ellipse_33307" data-name="Ellipse 33307" cx="0.34" cy="0.34" rx="0.34" ry="0.34" transform="translate(72.145 12.34)" fill="#ff6c39" stroke="#fff" stroke-miterlimit="10" stroke-width="0.22"/>
        <ellipse id="Ellipse_33308" data-name="Ellipse 33308" cx="0.34" cy="0.34" rx="0.34" ry="0.34" transform="translate(79.79 10.488)" fill="#ff6c39" stroke="#fff" stroke-miterlimit="10" stroke-width="0.22"/>
        <ellipse id="Ellipse_33309" data-name="Ellipse 33309" cx="0.34" cy="0.34" rx="0.34" ry="0.34" transform="translate(87.581 9.365)" fill="#ff6c39" stroke="#fff" stroke-miterlimit="10" stroke-width="0.22"/>
        <ellipse id="Ellipse_33310" data-name="Ellipse 33310" cx="0.34" cy="0.34" rx="0.34" ry="0.34" transform="translate(95.432 8.994)" fill="#ff6c39" stroke="#fff" stroke-miterlimit="10" stroke-width="0.22"/>
        <ellipse id="Ellipse_33311" data-name="Ellipse 33311" cx="0.34" cy="0.34" rx="0.34" ry="0.34" transform="translate(103.29 9.365)" fill="#ff6c39" stroke="#fff" stroke-miterlimit="10" stroke-width="0.22"/>
        <ellipse id="Ellipse_33312" data-name="Ellipse 33312" cx="0.34" cy="0.34" rx="0.34" ry="0.34" transform="translate(111.075 10.488)" fill="#ff6c39" stroke="#fff" stroke-miterlimit="10" stroke-width="0.22"/>
        <ellipse id="Ellipse_33313" data-name="Ellipse 33313" cx="0.34" cy="0.34" rx="0.34" ry="0.34" transform="translate(118.72 12.34)" fill="#ff6c39" stroke="#fff" stroke-miterlimit="10" stroke-width="0.22"/>
        <ellipse id="Ellipse_33314" data-name="Ellipse 33314" cx="0.34" cy="0.34" rx="0.34" ry="0.34" transform="translate(126.152 14.915)" fill="#ff6c39" stroke="#fff" stroke-miterlimit="10" stroke-width="0.22"/>
        <ellipse id="Ellipse_33315" data-name="Ellipse 33315" cx="0.34" cy="0.34" rx="0.34" ry="0.34" transform="translate(133.312 18.182)" fill="#ff6c39" stroke="#fff" stroke-miterlimit="10" stroke-width="0.22"/>
        <ellipse id="Ellipse_33316" data-name="Ellipse 33316" cx="0.34" cy="0.34" rx="0.34" ry="0.34" transform="translate(140.125 22.117)" fill="#ff6c39" stroke="#fff" stroke-miterlimit="10" stroke-width="0.22"/>
        <ellipse id="Ellipse_33317" data-name="Ellipse 33317" cx="0.34" cy="0.34" rx="0.34" ry="0.34" transform="translate(146.531 26.677)" fill="#ff6c39" stroke="#fff" stroke-miterlimit="10" stroke-width="0.22"/>
        <ellipse id="Ellipse_33318" data-name="Ellipse 33318" cx="0.34" cy="0.34" rx="0.34" ry="0.34" transform="translate(152.476 31.826)" fill="#ff6c39" stroke="#fff" stroke-miterlimit="10" stroke-width="0.22"/>
        <ellipse id="Ellipse_33319" data-name="Ellipse 33319" cx="0.34" cy="0.34" rx="0.34" ry="0.34" transform="translate(157.905 37.522)" fill="#ff6c39" stroke="#fff" stroke-miterlimit="10" stroke-width="0.22"/>
        <ellipse id="Ellipse_33320" data-name="Ellipse 33320" cx="0.34" cy="0.34" rx="0.34" ry="0.34" transform="translate(162.763 43.704)" fill="#00c19c" stroke="#fff" stroke-miterlimit="10" stroke-width="0.22"/>
        <ellipse id="Ellipse_33321" data-name="Ellipse 33321" cx="0.34" cy="0.34" rx="0.34" ry="0.34" transform="translate(197.315 19.105)" fill="#ff6c39" stroke="#fff" stroke-miterlimit="10" stroke-width="0.22"/>
        <ellipse id="Ellipse_33322" data-name="Ellipse 33322" cx="0.34" cy="0.34" rx="0.34" ry="0.34" transform="translate(167.02 50.323)" fill="#00c19c" stroke="#fff" stroke-miterlimit="10" stroke-width="0.22"/>
        <ellipse id="Ellipse_33323" data-name="Ellipse 33323" cx="0.34" cy="0.34" rx="0.34" ry="0.34" transform="translate(170.62 57.312)" fill="#00c19c" stroke="#fff" stroke-miterlimit="10" stroke-width="0.22"/>
        <ellipse id="Ellipse_33324" data-name="Ellipse 33324" cx="0.34" cy="0.34" rx="0.34" ry="0.34" transform="translate(175.764 72.165)" fill="#00c19c" stroke="#fff" stroke-miterlimit="10" stroke-width="0.22"/>
        <ellipse id="Ellipse_33325" data-name="Ellipse 33325" cx="0.34" cy="0.34" rx="0.34" ry="0.34" transform="translate(177.251 79.889)" fill="#00c19c" stroke="#fff" stroke-miterlimit="10" stroke-width="0.22"/>
        <ellipse id="Ellipse_33326" data-name="Ellipse 33326" cx="0.34" cy="0.34" rx="0.34" ry="0.34" transform="translate(219.23 73.853)" fill="#ff6c39" stroke="#fff" stroke-miterlimit="10" stroke-width="0.22"/>
        <ellipse id="Ellipse_33327" data-name="Ellipse 33327" cx="0.34" cy="0.34" rx="0.34" ry="0.34" transform="translate(177.998 87.716)" fill="orange" stroke="#fff" stroke-miterlimit="10" stroke-width="0.22"/>
        <g id="V005_Parigi" data-name="V005@Parigi" transform="translate(159.211 91.976)" style="isolation: isolate">
          <text id="Parigi" transform="translate(0.048 1.998) rotate(2.73)" fill="orange" font-size="2" font-family="ArialMT, Arial" style="isolation: isolate"><tspan x="0" y="0">Parigi</tspan></text>
        </g>
        <g id="V005_mare" data-name="V005@mare" transform="translate(158.636 98.022)" style="isolation: isolate">
          <text id="mare" transform="translate(0.145 1.98) rotate(8.18)" fill="#ff6c39" font-size="2" font-family="ArialMT, Arial" style="isolation: isolate"><tspan x="0" y="0">mare</tspan></text>
        </g>
        <g id="V005_mare_barca" data-name="V005@mare@barca" transform="translate(179.507 101.021)" style="isolation: isolate">
          <text id="barca" transform="translate(0.145 1.98) rotate(8.18)" fill="#ff6c39" font-size="2" font-family="ArialMT, Arial" style="isolation: isolate"><tspan x="0" y="0">barca</tspan></text>
        </g>
        <g id="V005_mongolfiera" data-name="V005@mongolfiera" transform="translate(157.497 104.009)" style="isolation: isolate">
          <text id="mongolfiera" transform="matrix(0.972, 0.236, -0.236, 0.972, 0.24, 1.944)" fill="#ff6c39" font-size="2" font-family="ArialMT, Arial" style="isolation: isolate"><tspan x="0" y="0">mongolfiera</tspan></text>
        </g>
        <g id="V005_Olivabassa" data-name="V005@Olivabassa" transform="translate(152.23 118.391)" style="isolation: isolate">
          <text id="Olivabassa" transform="translate(0.466 1.778) rotate(27.27)" fill="#00c19c" font-size="2" font-family="ArialMT, Arial" style="isolation: isolate"><tspan x="0" y="0">Olivabassa</tspan></text>
        </g>
        <g id="V005_Olivabassa_ciliegio" data-name="V005@Olivabassa@ciliegio" transform="translate(172.56 124.741)" style="isolation: isolate">
          <text id="ciliegio" transform="translate(0.427 1.815) rotate(24.82)" fill="#ff6c39" font-size="2" font-family="ArialMT, Arial" style="isolation: isolate"><tspan x="0" y="0">ciliegio</tspan></text>
        </g>
        <g id="V005_Olivabassa_mandorlo" data-name="V005@Olivabassa@mandorlo" transform="translate(171.516 126.958)" style="isolation: isolate">
          <text id="mandorlo" transform="matrix(0.895, 0.445, -0.445, 0.895, 0.453, 1.791)" fill="#ff6c39" font-size="2" font-family="ArialMT, Arial" style="isolation: isolate"><tspan x="0" y="0">mandorlo</tspan></text>
        </g>
        <g id="V005_Olivabassa_platano" data-name="V005@Olivabassa@platano" transform="translate(170.411 129.141)" style="isolation: isolate">
          <text id="platano" transform="translate(0.479 1.764) rotate(28.09)" fill="#ff6c39" font-size="2" font-family="ArialMT, Arial" style="isolation: isolate"><tspan x="0" y="0">platano</tspan></text>
        </g>
        <g id="V005_Olivabassa_quercia" data-name="V005@Olivabassa@quercia" transform="translate(169.239 131.301)" style="isolation: isolate">
          <text id="quercia" transform="translate(0.507 1.734) rotate(29.887)" fill="#ff6c39" font-size="2" font-family="ArialMT, Arial" style="isolation: isolate"><tspan x="0" y="0">quercia</tspan></text>
        </g>
        <g id="V005_Ombrosa" data-name="V005@Ombrosa" transform="translate(23.785 65.045)" style="isolation: isolate">
          <text id="Ombrosa" transform="translate(0.333 1.89) rotate(19.09)" fill="#00c19c" font-size="2" font-family="ArialMT, Arial" style="isolation: isolate"><tspan x="0" y="0">Ombrosa</tspan></text>
        </g>
        <g id="V005_Ombrosa_olivo" data-name="V005@Ombrosa@olivo" transform="translate(159.715 145.076)" style="isolation: isolate">
          <text id="olivo" transform="translate(0.661 1.52) rotate(40.539)" fill="#ff6c39" font-size="2" font-family="ArialMT, Arial" style="isolation: isolate"><tspan x="0" y="0">olivo</tspan></text>
        </g>
        <g id="V005_Ombrosa_vigne" data-name="V005@Ombrosa@vigne" transform="translate(154.166 151.118)" style="isolation: isolate">
          <text id="vigne" transform="translate(0.736 1.38) rotate(46.36)" fill="#ff6c39" font-size="2" font-family="ArialMT, Arial" style="isolation: isolate"><tspan x="0" y="0">vigne</tspan></text>
        </g>
        <g id="V005_Ombrosa_valle" data-name="V005@Ombrosa@valle" transform="translate(148.083 156.609)" style="isolation: isolate">
          <text id="valle" transform="translate(0.8 1.235) rotate(51.875)" fill="#ff6c39" font-size="2" font-family="ArialMT, Arial" style="isolation: isolate"><tspan x="0" y="0">valle</tspan></text>
        </g>
        <g id="V005_Ombrosa_vallata" data-name="V005@Ombrosa@vallata" transform="translate(141.526 161.512)" style="isolation: isolate">
          <text id="vallata" transform="matrix(0.541, 0.841, -0.841, 0.541, 0.855, 1.081)" fill="#ff6c39" font-size="2" font-family="ArialMT, Arial" style="isolation: isolate"><tspan x="0" y="0">vallata</tspan></text>
        </g>
        <g id="V005_Ombrosa_bandita" data-name="V005@Ombrosa@bandita" transform="translate(134.556 165.782)" style="isolation: isolate">
          <text id="bandita" transform="translate(0.904 0.916) rotate(62.73)" fill="#ff6c39" font-size="2" font-family="ArialMT, Arial" style="isolation: isolate"><tspan x="0" y="0">bandita</tspan></text>
        </g>
        <g id="V005_Ombrosa_bosco" data-name="V005@Ombrosa@bosco" transform="translate(127.233 169.391)" style="isolation: isolate">
          <text id="bosco" transform="translate(0.944 0.743) rotate(68.18)" fill="#ff6c39" font-size="2" font-family="ArialMT, Arial" style="isolation: isolate"><tspan x="0" y="0">bosco</tspan></text>
        </g>
        <g id="V005_Ombrosa_bottega" data-name="V005@Ombrosa@bottega" transform="translate(119.625 172.304)" style="isolation: isolate">
          <text id="bottega" transform="translate(0.976 0.56) rotate(73.74)" fill="#ff6c39" font-size="2" font-family="ArialMT, Arial" style="isolation: isolate"><tspan x="0" y="0">bottega</tspan></text>
        </g>
        <g id="V005_Ombrosa_campo" data-name="V005@Ombrosa@campo" transform="translate(111.804 174.471)" style="isolation: isolate">
          <text id="campo" transform="matrix(0.19, 0.982, -0.982, 0.19, 0.998, 0.381)" fill="#ff6c39" font-size="2" font-family="ArialMT, Arial" style="isolation: isolate"><tspan x="0" y="0">campo</tspan></text>
        </g>
        <g id="V005_Ombrosa_carrozza" data-name="V005@Ombrosa@carrozza" transform="translate(103.838 175.908)" style="isolation: isolate">
          <text id="carrozza" transform="translate(1.012 0.19) rotate(84.55)" fill="#ff6c39" font-size="2" font-family="ArialMT, Arial" style="isolation: isolate"><tspan x="0" y="0">carrozza</tspan></text>
        </g>
        <g id="V005_Ombrosa_carrubo" data-name="V005@Ombrosa@carrubo" transform="translate(95.792 176.579)" style="isolation: isolate">
          <text id="carrubo" transform="translate(1.017) rotate(90)" fill="#ff6c39" font-size="2" font-family="ArialMT, Arial" style="isolation: isolate"><tspan x="0" y="0">carrubo</tspan></text>
        </g>
        <g id="V005_Ombrosa_casa_del_gabelliere" data-name="V005@Ombrosa@casa_del_gabelliere" transform="translate(82.973 177.089)" style="isolation: isolate">
          <text id="casa_del_gabelliere" data-name="casa del gabelliere" transform="translate(1.991 17.208) rotate(-84.55)" fill="#ff6c39" font-size="2" font-family="ArialMT, Arial" style="isolation: isolate"><tspan x="0" y="0">casa del gabelliere</tspan></text>
        </g>
        <g id="V005_Ombrosa_castagneto" data-name="V005@Ombrosa@castagneto" transform="translate(74.587 176.009)" style="isolation: isolate">
          <text id="castagneto" transform="matrix(0.19, -0.982, 0.982, 0.19, 1.963, 10.253)" fill="#ff6c39" font-size="2" font-family="ArialMT, Arial" style="isolation: isolate"><tspan x="0" y="0">castagneto</tspan></text>
        </g>
        <g id="V005_Ombrosa_castagno" data-name="V005@Ombrosa@castagno" transform="translate(66.214 174.181)" style="isolation: isolate">
          <text id="castagno" transform="translate(1.919 8.283) rotate(-73.64)" fill="#ff6c39" font-size="2" font-family="ArialMT, Arial" style="isolation: isolate"><tspan x="0" y="0">castagno</tspan></text>
        </g>
        <g id="V005_Ombrosa_cattedrale" data-name="V005@Ombrosa@cattedrale" transform="translate(57.558 170.874)" style="isolation: isolate">
          <text id="cattedrale" transform="translate(1.857 9.146) rotate(-68.18)" fill="#ff6c39" font-size="2" font-family="ArialMT, Arial" style="isolation: isolate"><tspan x="0" y="0">cattedrale</tspan></text>
        </g>
        <g id="V005_Ombrosa_ciliegio" data-name="V005@Ombrosa@ciliegio" transform="translate(50.616 167.597)" style="isolation: isolate">
          <text id="ciliegio-2" data-name="ciliegio" transform="translate(1.778 6.279) rotate(-62.73)" fill="#ff6c39" font-size="2" font-family="ArialMT, Arial" style="isolation: isolate"><tspan x="0" y="0">ciliegio</tspan></text>
        </g>
        <g id="V005_Ombrosa_cimitero" data-name="V005@Ombrosa@cimitero" transform="translate(42.66 163.096)" style="isolation: isolate">
          <text id="cimitero" transform="matrix(0.541, -0.841, 0.841, 0.541, 1.682, 7.003)" fill="#ff6c39" font-size="2" font-family="ArialMT, Arial" style="isolation: isolate"><tspan x="0" y="0">cimitero</tspan></text>
        </g>
        <g id="V005_Ombrosa_colline" data-name="V005@Ombrosa@colline" transform="translate(36.378 157.87)" style="isolation: isolate">
          <text id="colline" transform="translate(1.572 5.979) rotate(-51.82)" fill="#ff6c39" font-size="2" font-family="ArialMT, Arial" style="isolation: isolate"><tspan x="0" y="0">colline</tspan></text>
        </g>
        <g id="V005_Ombrosa_elce" data-name="V005@Ombrosa@elce" transform="translate(31.272 152.337)" style="isolation: isolate">
          <text id="elce" transform="matrix(0.692, -0.722, 0.722, 0.692, 1.444, 4.288)" fill="#ff6c39" font-size="2" font-family="ArialMT, Arial" style="isolation: isolate"><tspan x="0" y="0">elce</tspan></text>
        </g>
        <g id="V005_Ombrosa_faggio" data-name="V005@Ombrosa@faggio" transform="translate(24.258 146.672)" style="isolation: isolate">
          <text id="faggio" transform="translate(1.3 4.788) rotate(-40.539)" fill="#ff6c39" font-size="2" font-family="ArialMT, Arial" style="isolation: isolate"><tspan x="0" y="0">faggio</tspan></text>
        </g>
        <g id="V005_Ombrosa_fico" data-name="V005@Ombrosa@fico" transform="translate(20.9 139.833)" style="isolation: isolate">
          <text id="fico" transform="translate(1.16 3.379) rotate(-35.45)" fill="#ff6c39" font-size="2" font-family="ArialMT, Arial" style="isolation: isolate"><tspan x="0" y="0">fico</tspan></text>
        </g>
        <g id="V005_Ombrosa_frassino" data-name="V005@Ombrosa@frassino" transform="translate(13.267 132.599)" style="isolation: isolate">
          <text id="frassino" transform="translate(1 5.252) rotate(-30)" fill="#ff6c39" font-size="2" font-family="ArialMT, Arial" style="isolation: isolate"><tspan x="0" y="0">frassino</tspan></text>
        </g>
        <g id="V005_Ombrosa_frutteto" data-name="V005@Ombrosa@frutteto" transform="translate(10.129 125.258)" style="isolation: isolate">
          <text id="frutteto" transform="matrix(0.91, -0.415, 0.415, 0.91, 0.831, 4.326)" fill="#ff6c39" font-size="2" font-family="ArialMT, Arial" style="isolation: isolate"><tspan x="0" y="0">frutteto</tspan></text>
        </g>
        <g id="V005_Ombrosa_gelso" data-name="V005@Ombrosa@gelso" transform="translate(8.436 117.36)" style="isolation: isolate">
          <text id="gelso" transform="translate(0.654 3.534) rotate(-19.09)" fill="#ff6c39" font-size="2" font-family="ArialMT, Arial" style="isolation: isolate"><tspan x="0" y="0">gelso</tspan></text>
        </g>
        <g id="V005_Ombrosa_glicine" data-name="V005@Ombrosa@glicine" transform="translate(5.416 109.343)" style="isolation: isolate">
          <text id="glicine" transform="matrix(0.97, -0.24, 0.24, 0.97, 0.48, 3.388)" fill="#ff6c39" font-size="2" font-family="ArialMT, Arial" style="isolation: isolate"><tspan x="0" y="0">glicine</tspan></text>
        </g>
        <g id="V005_Ombrosa_grotta" data-name="V005@Ombrosa@grotta" transform="translate(4.59 101.331)" style="isolation: isolate">
          <text id="grotta" transform="translate(0.28 2.684) rotate(-8.049)" fill="#ff6c39" font-size="2" font-family="ArialMT, Arial" style="isolation: isolate"><tspan x="0" y="0">grotta</tspan></text>
        </g>
        <g id="V005_Ombrosa_magnolia" data-name="V005@Ombrosa@magnolia" transform="translate(1.142 93.075)" style="isolation: isolate">
          <text id="magnolia" transform="translate(0.095 2.381) rotate(-2.73)" fill="#ff6c39" font-size="2" font-family="ArialMT, Arial" style="isolation: isolate"><tspan x="0" y="0">magnolia</tspan></text>
        </g>
        <g id="V005_Ombrosa_melograno" data-name="V005@Ombrosa@melograno" transform="translate(0 84.392)" style="isolation: isolate">
          <text id="melograno" transform="translate(0.048 1.998) rotate(2.73)" fill="#ff6c39" font-size="2" font-family="ArialMT, Arial" style="isolation: isolate"><tspan x="0" y="0">melograno</tspan></text>
        </g>
        <g id="V005_Ombrosa_muro" data-name="V005@Ombrosa@muro" transform="translate(5.552 76.009)" style="isolation: isolate">
          <text id="muro" transform="translate(0.142 1.98) rotate(8.049)" fill="#ff6c39" font-size="2" font-family="ArialMT, Arial" style="isolation: isolate"><tspan x="0" y="0">muro</tspan></text>
        </g>
        <g id="V005_Ombrosa_noce" data-name="V005@Ombrosa@noce" transform="translate(7.4 67.605)" style="isolation: isolate">
          <text id="noce" transform="matrix(0.97, 0.24, -0.24, 0.97, 0.244, 1.94)" fill="#ff6c39" font-size="2" font-family="ArialMT, Arial" style="isolation: isolate"><tspan x="0" y="0">noce</tspan></text>
        </g>
        <g id="V005_Ombrosa_tana" data-name="V005@Ombrosa@tana" transform="translate(10.249 59.519)" style="isolation: isolate">
          <text id="tana" transform="translate(0.333 1.89) rotate(19.09)" fill="#ff6c39" font-size="2" font-family="ArialMT, Arial" style="isolation: isolate"><tspan x="0" y="0">tana</tspan></text>
        </g>
        <g id="V005_Ombrosa_olmo" data-name="V005@Ombrosa@olmo" transform="translate(13.063 51.447)" style="isolation: isolate">
          <text id="olmo" transform="matrix(0.91, 0.415, -0.415, 0.91, 0.422, 1.819)" fill="#ff6c39" font-size="2" font-family="ArialMT, Arial" style="isolation: isolate"><tspan x="0" y="0">olmo</tspan></text>
        </g>
        <g id="V005_Ombrosa_orti" data-name="V005@Ombrosa@orti" transform="translate(18.329 44.645)" style="isolation: isolate">
          <text id="orti" transform="translate(0.508 1.732) rotate(30)" fill="#ff6c39" font-size="2" font-family="ArialMT, Arial" style="isolation: isolate"><tspan x="0" y="0">orti</tspan></text>
        </g>
        <g id="V005_Ombrosa_osteria" data-name="V005@Ombrosa@osteria" transform="translate(20.395 35.832)" style="isolation: isolate">
          <text id="osteria" transform="translate(0.59 1.629) rotate(35.45)" fill="#ff6c39" font-size="2" font-family="ArialMT, Arial" style="isolation: isolate"><tspan x="0" y="0">osteria</tspan></text>
        </g>
        <g id="V005_Ombrosa_padiglione" data-name="V005@Ombrosa@padiglione" transform="translate(23.566 27.102)" style="isolation: isolate">
          <text id="padiglione" transform="translate(0.661 1.52) rotate(40.539)" fill="#ff6c39" font-size="2" font-family="ArialMT, Arial" style="isolation: isolate"><tspan x="0" y="0">padiglione</tspan></text>
        </g>
        <g id="V005_Ombrosa_palazzo" data-name="V005@Ombrosa@palazzo" transform="translate(31.328 22.281)" style="isolation: isolate">
          <text id="palazzo" transform="matrix(0.692, 0.722, -0.722, 0.692, 0.734, 1.384)" fill="#ff6c39" font-size="2" font-family="ArialMT, Arial" style="isolation: isolate"><tspan x="0" y="0">palazzo</tspan></text>
        </g>
        <g id="V005_Ombrosa_parchi" data-name="V005@Ombrosa@parchi" transform="translate(38.908 17.787)" style="isolation: isolate">
          <text id="parchi" transform="translate(0.799 1.236) rotate(51.82)" fill="#ff6c39" font-size="2" font-family="ArialMT, Arial" style="isolation: isolate"><tspan x="0" y="0">parchi</tspan></text>
        </g>
        <g id="V005_Ombrosa_parco" data-name="V005@Ombrosa@parco" transform="translate(46.275 13.297)" style="isolation: isolate">
          <text id="parco" transform="matrix(0.541, 0.841, -0.841, 0.541, 0.855, 1.082)" fill="#ff6c39" font-size="2" font-family="ArialMT, Arial" style="isolation: isolate"><tspan x="0" y="0">parco</tspan></text>
        </g>
        <g id="V005_Ombrosa_pesco" data-name="V005@Ombrosa@pesco" transform="translate(53.678 8.909)" style="isolation: isolate">
          <text id="pesco" transform="translate(0.904 0.916) rotate(62.73)" fill="#ff6c39" font-size="2" font-family="ArialMT, Arial" style="isolation: isolate"><tspan x="0" y="0">pesco</tspan></text>
        </g>
        <g id="V005_Ombrosa_piazza" data-name="V005@Ombrosa@piazza" transform="translate(61.475 5.139)" style="isolation: isolate">
          <text id="piazza" transform="translate(0.944 0.743) rotate(68.18)" fill="#ff6c39" font-size="2" font-family="ArialMT, Arial" style="isolation: isolate"><tspan x="0" y="0">piazza</tspan></text>
        </g>
        <g id="V005_Ombrosa_pino" data-name="V005@Ombrosa@pino" transform="translate(70.323 4.392)" style="isolation: isolate">
          <text id="pino" transform="translate(0.976 0.563) rotate(73.64)" fill="#ff6c39" font-size="2" font-family="ArialMT, Arial" style="isolation: isolate"><tspan x="0" y="0">pino</tspan></text>
        </g>
        <g id="V005_Ombrosa_platano" data-name="V005@Ombrosa@platano" transform="translate(78.175 0)" style="isolation: isolate">
          <text id="platano-2" data-name="platano" transform="matrix(0.19, 0.982, -0.982, 0.19, 0.998, 0.381)" fill="#ff6c39" font-size="2" font-family="ArialMT, Arial" style="isolation: isolate"><tspan x="0" y="0">platano</tspan></text>
        </g>
        <g id="V005_Ombrosa_porto" data-name="V005@Ombrosa@porto" transform="translate(87.132 0.957)" style="isolation: isolate">
          <text id="porto" transform="translate(1.012 0.19) rotate(84.55)" fill="#ff6c39" font-size="2" font-family="ArialMT, Arial" style="isolation: isolate"><tspan x="0" y="0">porto</tspan></text>
        </g>
        <g id="V005_Ombrosa_prato" data-name="V005@Ombrosa@prato" transform="translate(92.742 2.369)" style="isolation: isolate">
          <text id="prato" transform="translate(2 5.028) rotate(-90)" fill="#ff6c39" font-size="2" font-family="ArialMT, Arial" style="isolation: isolate"><tspan x="0" y="0">prato</tspan></text>
        </g>
        <g id="V005_Ombrosa_prigione" data-name="V005@Ombrosa@prigione" transform="translate(100.796 0.49)" style="isolation: isolate">
          <text id="prigione" transform="translate(1.991 7.197) rotate(-84.55)" fill="#ff6c39" font-size="2" font-family="ArialMT, Arial" style="isolation: isolate"><tspan x="0" y="0">prigione</tspan></text>
        </g>
        <g id="V005_Ombrosa_riva" data-name="V005@Ombrosa@riva" transform="translate(108.805 5.388)" style="isolation: isolate">
          <text id="riva" transform="matrix(0.19, -0.982, 0.982, 0.19, 1.963, 3.342)" fill="#ff6c39" font-size="2" font-family="ArialMT, Arial" style="isolation: isolate"><tspan x="0" y="0">riva</tspan></text>
        </g>
        <g id="V005_Ombrosa_rovere" data-name="V005@Ombrosa@rovere" transform="translate(116.693 4.183)" style="isolation: isolate">
          <text id="rovere" transform="translate(1.919 6.353) rotate(-73.64)" fill="#ff6c39" font-size="2" font-family="ArialMT, Arial" style="isolation: isolate"><tspan x="0" y="0">rovere</tspan></text>
        </g>
        <g id="V005_Ombrosa_sagrato" data-name="V005@Ombrosa@sagrato" transform="translate(124.396 5.794)" style="isolation: isolate">
          <text id="sagrato" transform="translate(1.857 7.278) rotate(-68.18)" fill="#ff6c39" font-size="2" font-family="ArialMT, Arial" style="isolation: isolate"><tspan x="0" y="0">sagrato</tspan></text>
        </g>
        <g id="V005_Ombrosa_salice" data-name="V005@Ombrosa@salice" transform="translate(131.84 10.943)" style="isolation: isolate">
          <text id="salice" transform="translate(1.778 5.386) rotate(-62.73)" fill="#ff6c39" font-size="2" font-family="ArialMT, Arial" style="isolation: isolate"><tspan x="0" y="0">salice</tspan></text>
        </g>
        <g id="V005_Ombrosa_spiaggia" data-name="V005@Ombrosa@spiaggia" transform="translate(138.956 13.266)" style="isolation: isolate">
          <text id="spiaggia" transform="matrix(0.541, -0.841, 0.841, 0.541, 1.682, 7.003)" fill="#ff6c39" font-size="2" font-family="ArialMT, Arial" style="isolation: isolate"><tspan x="0" y="0">spiaggia</tspan></text>
        </g>
        <g id="V005_Ombrosa_stanzetta" data-name="V005@Ombrosa@stanzetta" transform="translate(145.681 17.298)" style="isolation: isolate">
          <text id="stanzetta" transform="translate(1.572 7.56) rotate(-51.82)" fill="#ff6c39" font-size="2" font-family="ArialMT, Arial" style="isolation: isolate"><tspan x="0" y="0">stanzetta</tspan></text>
        </g>
        <g id="V005_Ombrosa_strada" data-name="V005@Ombrosa@strada" transform="translate(151.96 24.313)" style="isolation: isolate">
          <text id="strada" transform="matrix(0.692, -0.722, 0.722, 0.692, 1.444, 5.74)" fill="#ff6c39" font-size="2" font-family="ArialMT, Arial" style="isolation: isolate"><tspan x="0" y="0">strada</tspan></text>
        </g>
        <g id="V005_Ombrosa_susino" data-name="V005@Ombrosa@susino" transform="translate(157.729 30.364)" style="isolation: isolate">
          <text id="susino" transform="translate(1.3 5.442) rotate(-40.539)" fill="#ff6c39" font-size="2" font-family="ArialMT, Arial" style="isolation: isolate"><tspan x="0" y="0">susino</tspan></text>
        </g>
        <g id="V005_Ombrosa_villa_d_Ondariva" data-name="V005@Ombrosa@villa_d&apos;Ondariva" transform="translate(162.921 32.282)" style="isolation: isolate">
          <text id="villa_d_Ondariva" data-name="villa d&apos;Ondariva" transform="translate(1.16 9.795) rotate(-35.45)" fill="#00c19c" font-size="2" font-family="ArialMT, Arial" style="isolation: isolate"><tspan x="0" y="0">villa d&apos;Ondariva</tspan></text>
        </g>
        <g id="V005_Ombrosa_villa_d_Ondariva_giardino__D_Ondariva_" data-name="V005@Ombrosa@villa_d&apos;Ondariva@giardino_(D&apos;Ondariva)" transform="translate(197.466 4.766)" style="isolation: isolate">
          <text id="giardino_D_Ondariva_" data-name="giardino (D&apos;Ondariva)" transform="translate(1.16 12.711) rotate(-35.45)" fill="#ff6c39" font-size="2" font-family="ArialMT, Arial" style="isolation: isolate"><tspan x="0" y="0">giardino (D&apos;Ondariva)</tspan></text>
        </g>
        <g id="V005_Ombrosa_Vasca_Grande" data-name="V005@Ombrosa@Vasca_Grande" transform="translate(167.517 41.028)" style="isolation: isolate">
          <text id="Vasca_Grande" data-name="Vasca Grande" transform="translate(1 7.766) rotate(-30)" fill="#00c19c" font-size="2" font-family="ArialMT, Arial" style="isolation: isolate"><tspan x="0" y="0" letter-spacing="-0.07em">V</tspan><tspan y="0">asca Grande</tspan></text>
        </g>
        <g id="V005_Ombrosa_Quercia_delle_Cinque_Passere" data-name="V005@Ombrosa@Quercia_delle_Cinque_Passere" transform="translate(171.46 46.15)" style="isolation: isolate">
          <text id="Quercia_delle_Cinque" data-name="Quercia delle Cinque" transform="matrix(0.91, -0.415, 0.415, 0.91, 0.831, 9.758)" fill="#00c19c" font-size="2" font-family="ArialMT, Arial" style="isolation: isolate"><tspan x="0" y="0">Quercia delle Cinque</tspan></text>
        </g>
        <g id="V005_Ombrosa_Quercia_delle_Cinque_Passere_1" data-name="V005@Ombrosa@Quercia_delle_Cinque_Passere_1" transform="translate(172.735 54.055)" style="isolation: isolate">
          <text id="Passere" transform="matrix(0.924, -0.383, 0.383, 0.924, 0.767, 4.547)" fill="#00c19c" font-size="2" font-family="ArialMT, Arial" style="isolation: isolate"><tspan x="0" y="0">Passere</tspan></text>
        </g>
        <g id="V005_Ombrosa_Porta_Capperi" data-name="V005@Ombrosa@Porta_Capperi" transform="translate(177.251 66.202)" style="isolation: isolate">
          <text id="Porta_Capperi" data-name="Porta Capperi" transform="matrix(0.97, -0.24, 0.24, 0.97, 0.48, 4.836)" fill="#00c19c" font-size="2" font-family="ArialMT, Arial" style="isolation: isolate"><tspan x="0" y="0">Porta Capperi</tspan></text>
        </g>
        <g id="V005_Ombrosa_villa_d_Ombrosa" data-name="V005@Ombrosa@villa_d&apos;Ombrosa" transform="translate(179.079 74.973)" style="isolation: isolate">
          <text id="villa_d_Ombrosa" data-name="villa d&apos;Ombrosa" transform="translate(0.28 3.951) rotate(-8.049)" fill="#00c19c" font-size="2" font-family="ArialMT, Arial" style="isolation: isolate"><tspan x="0" y="0">villa d&apos;Ombrosa</tspan></text>
        </g>
        <g id="V005_Ombrosa_villa_d_Ombrosa_giardino__villa_" data-name="V005@Ombrosa@villa_d&apos;Ombrosa@giardino_(villa)" transform="translate(221.058 69.219)" style="isolation: isolate">
          <text id="giardino_villa_" data-name="giardino (villa)" transform="translate(0.28 3.669) rotate(-8.049)" fill="#ff6c39" font-size="2" font-family="ArialMT, Arial" style="isolation: isolate"><tspan x="0" y="0">giardino (villa)</tspan></text>
        </g>
        <g id="V005_Ombrosa_Cammino_dell_Artiglieria" data-name="V005@Ombrosa@Cammino_dell&apos;Artiglieria" transform="translate(180.125 83.927)" style="isolation: isolate">
          <text id="Cammino_dell_Artiglieria" data-name="Cammino dell&apos;Artiglieria" transform="translate(0.095 3.004) rotate(-2.73)" fill="orange" font-size="2" font-family="ArialMT, Arial" style="isolation: isolate"><tspan x="0" y="0">Cammino dell&apos;Artiglieria</tspan></text>
        </g>
      </g>
      <g id="Isolation_Mode" data-name="Isolation Mode" transform="translate(1.967 0)">
        <path id="Path_148062" data-name="Path 148062" d="M119.635,377.249a61.386,61.386,0,1,1-61.386,61.386,61.386,61.386,0,0,1,61.386-61.386m0-.249a61.635,61.635,0,1,0,61.635,61.635A61.635,61.635,0,0,0,119.635,377Z" transform="translate(-26.223 -151.017)"/>
        <path id="Path_148063" data-name="Path 148063" d="M170.761,112.807a61.938,61.938,0,1,1,6.109-26.852" transform="translate(-24.253 -12.388)" fill="none" stroke="#00c19c" stroke-miterlimit="10" stroke-width="7"/>
        <path id="Path_148064" data-name="Path 148064" d="M252.782,135.49a61.374,61.374,0,0,1-5.842,21.089" transform="translate(-100.432 -56.161)" fill="none" stroke="#ff6c39" stroke-miterlimit="10" stroke-width="7"/>
        <path id="Path_148065" data-name="Path 148065" d="M256.827,126q0,2.915-.267,5.763" transform="translate(-104.21 -52.433)" fill="none" stroke="orange" stroke-miterlimit="10" stroke-width="7"/>
        <text id="Il_barone_rampante" data-name="Il barone rampante" transform="translate(92.994 75.148)" fill="#1d1d1b" font-size="9" font-family="HKGrotesk-Regular, HK Grotesk"><tspan x="-36.78" y="0">Il ba</tspan><tspan y="0" letter-spacing="-0.04em">r</tspan><tspan y="0">one rampante</tspan></text>
        <text id="Il_barone_rampante-2" data-name="Il barone rampante" transform="translate(92.994 289.503)" fill="#1d1d1b" font-size="9" font-family="HKGrotesk-Regular, HK Grotesk"><tspan x="-36.78" y="0">Il ba</tspan><tspan y="0" letter-spacing="-0.04em">r</tspan><tspan y="0">one rampante</tspan></text>
      </g>
    </g>
    <g id="Group_24059" data-name="Group 24059">
      <text id="Relazione_gerarchica_dei_luoghi_LE_MEDUSE" data-name="Relazione gerarchica dei luoghi
LE MEDUSE" transform="translate(1.967 173.059)" fill="#1d1d1b" font-size="10" font-family="HKGrotesk-MediumItalic, HK Grotesk" font-weight="500" font-style="italic"><tspan x="0" y="0" letter-spacing="-0.01em">R</tspan><tspan y="0">elazione ge</tspan><tspan y="0" letter-spacing="-0.02em">r</tspan><tspan y="0">a</tspan><tspan y="0" letter-spacing="-0.02em">r</tspan><tspan y="0">chi</tspan><tspan y="0" letter-spacing="-0.01em">c</tspan><tspan y="0">a dei luoghi</tspan><tspan x="0" y="11">LE MEDUSE</tspan></text>
      <text id="Primo_livello" data-name="Primo livello" transform="translate(1.967 10)" fill="#1d1d1b" font-size="10" font-family="HKGrotesk-MediumItalic, HK Grotesk" font-weight="500" font-style="italic"><tspan x="0" y="0" letter-spacing="-0.01em">P</tspan><tspan y="0">rimo li</tspan><tspan y="0" letter-spacing="-0.01em">v</tspan><tspan y="0">ello</tspan></text>
    </g>
  </g>
</svg>
