<svg xmlns="http://www.w3.org/2000/svg" viewBox="0 0 400 595"><defs><style>.cls-1,.cls-4,.cls-8{fill:orange;}.cls-2,.cls-3{fill:none;}.cls-3{stroke:orange;stroke-width:0.58px;}.cls-3,.cls-4,.cls-5,.cls-6{stroke-miterlimit:10;}.cls-4,.cls-5,.cls-6{stroke:#fff;stroke-width:0.39px;}.cls-5,.cls-9{fill:#ff6c39;}.cls-10,.cls-12,.cls-6{fill:#00c19c;}.cls-10,.cls-12,.cls-7,.cls-8,.cls-9{isolation:isolate;}.cls-10,.cls-12,.cls-8,.cls-9{font-size:5px;font-family:ArialMT, Arial;}.cls-11{letter-spacing:-0.11em;}.cls-12{letter-spacing:-0.11em;}.cls-13{letter-spacing:0em;}.cls-14,.cls-17{font-size:10px;fill:#1d1d1b;}.cls-14{font-family:HKGrotesk-Regular, HK Grotesk;}.cls-15{letter-spacing:0em;}.cls-16{letter-spacing:0em;}.cls-17{font-family:HKGrotesk-MediumItalic, HK Grotesk;font-weight:500;font-style:italic;}.cls-18{letter-spacing:-0.01em;}.cls-19{letter-spacing:-0.02em;}.cls-20{letter-spacing:-0.01em;}.cls-21{letter-spacing:0em;}.cls-22{letter-spacing:0em;}.cls-23{letter-spacing:-0.01em;}.cls-24{letter-spacing:0em;}.cls-25{letter-spacing:-0.01em;}</style></defs><title>zoom_03</title><g id="Isolation_Mode" data-name="Isolation Mode"><path d="M185.75,328.09v.27h0a67.26,67.26,0,1,1-39.9,13.15,67.12,67.12,0,0,1,39.9-13.15v-.27m0,0a67.55,67.55,0,1,0,19.09,2.76,67.51,67.51,0,0,0-19.09-2.76Z"/><path class="cls-1" d="M186.75,31v7h0a60.54,60.54,0,1,1-35.9,11.84A60.43,60.43,0,0,1,186.75,38V31m0,0a67.55,67.55,0,1,0,19.08,2.76A67.54,67.54,0,0,0,186.75,31Z"/><path class="cls-1" d="M285,388.68a98.58,98.58,0,0,1,.51,18.34l-.39,0a96.26,96.26,0,0,0-.51-18.28Z"/><path class="cls-1" d="M259.06,467.55A97.5,97.5,0,0,1,107.77,345.48l.32.22A97.11,97.11,0,0,0,258.78,467.29Z"/><path class="cls-1" d="M310.41,505.65q-5,5.76-10.44,11l-.26-.27q5.46-5.26,10.4-11Z"/><path class="cls-1" d="M24.84,392.18a161.15,161.15,0,0,1,97.57-142.51l.16.35A160.77,160.77,0,0,0,25.23,392.19Z"/><line class="cls-2" x1="201.8" y1="393.16" x2="249.64" y2="367.07"/><line class="cls-3" x1="277.15" y1="398.08" x2="285.3" y2="397.85"/><line class="cls-3" x1="104.81" y1="402.89" x2="91.14" y2="403.28"/><line class="cls-3" x1="280.53" y1="487.85" x2="305.04" y2="511.03"/><line class="cls-3" x1="228.85" y1="518.46" x2="241.16" y2="553.02"/><line class="cls-3" x1="189.49" y1="519.39" x2="190.71" y2="563.28"/><line class="cls-3" x1="88.36" y1="331.01" x2="53.25" y2="306.97"/><circle class="cls-4" cx="253.07" cy="398.15" r="0.97"/><circle class="cls-5" cx="284.61" cy="388.72" r="0.97"/><circle class="cls-5" cx="285.3" cy="397.85" r="0.97"/><circle class="cls-5" cx="285.12" cy="407" r="0.97"/><circle class="cls-4" cx="118.29" cy="402.52" r="0.97"/><circle class="cls-6" cx="258.78" cy="467.29" r="0.97"/><circle class="cls-5" cx="310.11" cy="505.4" r="0.97"/><circle class="cls-5" cx="299.71" cy="516.41" r="0.97"/><circle class="cls-6" cx="220.8" cy="492.05" r="0.97"/><circle class="cls-5" cx="241.16" cy="553.02" r="0.97"/><circle class="cls-6" cx="190.93" cy="497.64" r="0.97"/><circle class="cls-5" cx="192.71" cy="561.28" r="0.97"/><circle class="cls-6" cx="108.09" cy="345.7" r="0.97"/><circle class="cls-5" cx="25.23" cy="392.19" r="0.97"/><circle class="cls-5" cx="26.47" cy="377.09" r="0.97"/><circle class="cls-5" cx="29.12" cy="362.18" r="0.97"/><circle class="cls-5" cx="33.17" cy="347.58" r="0.97"/><circle class="cls-5" cx="38.58" cy="333.43" r="0.97"/><circle class="cls-5" cx="45.29" cy="319.85" r="0.97"/><circle class="cls-5" cx="53.25" cy="306.97" r="0.97"/><circle class="cls-5" cx="62.38" cy="294.89" r="0.97"/><circle class="cls-5" cx="72.62" cy="283.72" r="0.97"/><circle class="cls-5" cx="83.85" cy="273.56" r="0.97"/><circle class="cls-5" cx="96" cy="264.51" r="0.97"/><circle class="cls-6" cx="108.94" cy="256.64" r="0.97"/><circle class="cls-6" cx="122.57" cy="250.02" r="0.97"/><g id="V003_Boemia" data-name="V003@Boemia" class="cls-7"><text class="cls-8" transform="translate(257.51 399.29) rotate(-1.6)">Boemia</text></g><g id="V003_Boemia_accampamento" data-name="V003@Boemia@accampamento" class="cls-7"><text class="cls-9" transform="translate(288.35 388.26) rotate(-7)">accampamento</text></g><g id="V003_Boemia_campo_di_battaglia" data-name="V003@Boemia@campo_di_battaglia" class="cls-7"><text class="cls-9" transform="translate(289.07 397.74) rotate(-1.6)">campo di battaglia</text></g><g id="V003_Boemia_ospedale" data-name="V003@Boemia@ospedale" class="cls-7"><text class="cls-9" transform="translate(288.89 407.24) rotate(3.8)">ospedale</text></g><g id="V003_Italia" data-name="V003@Italia" class="cls-7"><text class="cls-8" transform="translate(106.27 403.14) rotate(-1.6)">Italia</text></g><g id="V003_Italia_Col_Gerbido" data-name="V003@Italia@Col_Gerbido" class="cls-7"><text class="cls-10" transform="translate(261.52 469.88) rotate(43.4)">Col Gerbido</text></g><g id="V003_Italia_Col_Gerbido_casolare" data-name="V003@Italia@Col_Gerbido@casolare" class="cls-7"><text class="cls-9" transform="matrix(0.76, 0.65, -0.65, 0.76, 312.97, 507.86)">casolare</text></g><g id="V003_Italia_Col_Gerbido_tana" data-name="V003@Italia@Col_Gerbido@tana" class="cls-7"><text class="cls-9" transform="matrix(0.69, 0.72, -0.72, 0.69, 302.32, 519.12)">tana</text></g><g id="V003_Italia_Pratofungo" data-name="V003@Italia@Pratofungo" class="cls-7"><text class="cls-10" transform="translate(219.01 494.98) rotate(70.4)">Pratofungo</text></g><g id="V003_Italia_Pratofungo_capannuccia" data-name="V003@Italia@Pratofungo@capannuccia" class="cls-7"><text class="cls-9" transform="translate(240.07 555.11) rotate(70.4)">capannuccia</text></g><g id="V003_Italia_Terraba" data-name="V003@Italia@Terraba" class="cls-7"><text class="cls-10" transform="translate(188.38 501.73) rotate(88.4)"><tspan class="cls-11">T</tspan><tspan x="2.5" y="0">erraba</tspan></text></g><g id="V003_Italia_Terraba_campagna" data-name="V003@Italia@Terraba@campagna" class="cls-7"><text class="cls-9" transform="translate(190.11 565.79) rotate(88.4)">campagna</text></g><g id="V003_Italia_Terralba" data-name="V003@Italia@Terralba" class="cls-7"><text class="cls-12" transform="translate(90.1 333.38) rotate(34.4)">T<tspan class="cls-13" x="2.5" y="0">erralba</tspan></text></g><g id="V003_Italia_Terralba_cimitero" data-name="V003@Italia@Terralba@cimitero" class="cls-7"><text class="cls-9" transform="translate(3.86 391.45) rotate(2)">cimitero</text></g><g id="V003_Italia_Terralba_prato" data-name="V003@Italia@Terralba@prato" class="cls-7"><text class="cls-9" transform="translate(9.83 374.94) rotate(7.4)">prato</text></g><g id="V003_Italia_Terralba_bosco" data-name="V003@Italia@Terralba@bosco" class="cls-7"><text class="cls-9" transform="matrix(0.98, 0.22, -0.22, 0.98, 11.34, 358.14)">bosco</text></g><g id="V003_Italia_Terralba_bottega" data-name="V003@Italia@Terralba@bottega" class="cls-7"><text class="cls-9" transform="translate(13.45 341.1) rotate(18.2)">bottega</text></g><g id="V003_Italia_Terralba_casolare" data-name="V003@Italia@Terralba@casolare" class="cls-7"><text class="cls-9" transform="matrix(0.92, 0.4, -0.4, 0.92, 18.02, 324.46)">casolare</text></g><g id="V003_Italia_Terralba_castello" data-name="V003@Italia@Terralba@castello" class="cls-7"><text class="cls-9" transform="translate(26.95 309.69) rotate(29)">castello</text></g><g id="V003_Italia_Terralba_riva" data-name="V003@Italia@Terralba@riva" class="cls-7"><text class="cls-9" transform="translate(41.48 298.91) rotate(34.4)">riva</text></g><g id="V003_Italia_Terralba_collinetta" data-name="V003@Italia@Terralba@collinetta" class="cls-7"><text class="cls-9" transform="translate(44.66 280.12) rotate(39.8)">collinetta</text></g><g id="V003_Italia_Terralba_fienile" data-name="V003@Italia@Terralba@fienile" class="cls-7"><text class="cls-9" transform="matrix(0.7, 0.71, -0.71, 0.7, 59.91, 270.92)">fienile</text></g><g id="V003_Italia_Terralba_grotta" data-name="V003@Italia@Terralba@grotta" class="cls-7"><text class="cls-9" transform="matrix(0.63, 0.77, -0.77, 0.63, 72.54, 259.79)">grotta</text></g><g id="V003_Italia_Terralba_marina" data-name="V003@Italia@Terralba@marina" class="cls-7"><text class="cls-9" transform="translate(84.98 248.17) rotate(56)">marina</text></g><g id="V003_Italia_Terralba_Salto_della_Ghigna" data-name="V003@Italia@Terralba@Salto_della_Ghigna" class="cls-7"><text class="cls-10" transform="matrix(0.48, 0.88, -0.88, 0.48, 87.12, 217.88)">Salto della Ghigna</text></g><g id="V003_Italia_Terralba_Prato_delle_Monache" data-name="V003@Italia@Terralba@Prato_delle_Monache" class="cls-7"><text class="cls-10" transform="translate(102.11 206.2) rotate(66.8)">Prato delle Monache</text></g><text class="cls-14" transform="translate(139.48 101.49)">Il vi<tspan class="cls-15" x="15.95" y="0">sc</tspan><tspan x="25.59" y="0">on</tspan><tspan class="cls-15" x="36.91" y="0">t</tspan><tspan x="40.22" y="0">e dimezza</tspan><tspan class="cls-15" x="85.59" y="0">t</tspan><tspan class="cls-16" x="88.9" y="0">o</tspan></text><text class="cls-17" transform="translate(5.67 191.61)"><tspan class="cls-18">R</tspan><tspan x="6.06" y="0">elazione ge</tspan><tspan class="cls-19" x="56.2" y="0">r</tspan><tspan class="cls-16" x="59.94" y="0">a</tspan><tspan class="cls-19" x="65.77" y="0">r</tspan><tspan x="69.51" y="0">chi</tspan><tspan class="cls-20" x="82.49" y="0">c</tspan><tspan x="87.4" y="0">a dei </tspan><tspan class="cls-21" x="111.97" y="0">lu</tspan><tspan class="cls-22" x="120.12" y="0">oghi</tspan><tspan x="0" y="12">LE MEDUSE</tspan></text><text class="cls-17" transform="translate(5.67 14.85)"><tspan class="cls-23">P</tspan><tspan class="cls-24" x="5.66" y="0">r</tspan><tspan x="9.65" y="0">imo li</tspan><tspan class="cls-25" x="33.75" y="0">v</tspan><tspan x="38.5" y="0">ello</tspan></text><text class="cls-14" transform="translate(138.49 398.57)">Il vi<tspan class="cls-15" x="15.95" y="0">sc</tspan><tspan x="25.59" y="0">on</tspan><tspan class="cls-15" x="36.91" y="0">t</tspan><tspan x="40.22" y="0">e dimezza</tspan><tspan class="cls-15" x="85.59" y="0">t</tspan><tspan class="cls-16" x="88.9" y="0">o</tspan></text></g></svg>