<svg xmlns="http://www.w3.org/2000/svg" xmlns:xlink="http://www.w3.org/1999/xlink" width="250" height="420" viewBox="0 0 250 420"><defs><clipPath id="b"><rect width="250" height="420"/></clipPath></defs><g id="a" clip-path="url(#b)"><g transform="translate(-0.135 54.228)"><path d="M126.775,283.7a48.58,48.58,0,1,1-48.58,48.58,48.58,48.58,0,0,1,48.58-48.58m0-.2a48.775,48.775,0,1,0,48.775,48.775A48.775,48.775,0,0,0,126.775,283.5Z" transform="translate(-21.554 -66.041)"/><path d="M123.434,32.463A40.971,40.971,0,1,1,82.463,73.434a40.971,40.971,0,0,1,40.971-40.971m0-5.463a46.434,46.434,0,1,0,46.434,46.434A46.434,46.434,0,0,0,123.434,27Z" transform="translate(-20.865 -9.228)" fill="orange"/><path d="M202.5,324.5a87.608,87.608,0,1,1,0-9.482h-.258a87.35,87.35,0,1,0,0,9.458Z" transform="translate(-10.445 -54.766)" fill="orange"/><line x1="8.787" transform="translate(17.223 264.993)" fill="none" stroke="orange" stroke-miterlimit="10" stroke-width="0.43"/><line y1="0.695" x2="12.744" transform="translate(220.784 257.181)" fill="none" stroke="orange" stroke-miterlimit="10" stroke-width="0.5"/><ellipse cx="0.656" cy="0.656" rx="0.656" ry="0.656" transform="translate(55.885 263.557)" fill="orange" stroke="#fff" stroke-miterlimit="10" stroke-width="0.33"/><ellipse cx="0.656" cy="0.656" rx="0.656" ry="0.656" transform="translate(191.144 269.067)" fill="#00c19c" stroke="#fff" stroke-miterlimit="10" stroke-width="0.33"/><ellipse cx="0.656" cy="0.656" rx="0.656" ry="0.656" transform="translate(190.121 278.471)" fill="#00c19c" stroke="#fff" stroke-miterlimit="10" stroke-width="0.33"/><ellipse cx="0.656" cy="0.656" rx="0.656" ry="0.656" transform="translate(188.085 287.711)" fill="#00c19c" stroke="#fff" stroke-miterlimit="10" stroke-width="0.33"/><ellipse cx="0.656" cy="0.656" rx="0.656" ry="0.656" transform="translate(185.064 296.67)" fill="#00c19c" stroke="#fff" stroke-miterlimit="10" stroke-width="0.33"/><ellipse cx="0.656" cy="0.656" rx="0.656" ry="0.656" transform="translate(181.092 305.254)" fill="#00c19c" stroke="#fff" stroke-miterlimit="10" stroke-width="0.33"/><ellipse cx="0.656" cy="0.656" rx="0.656" ry="0.656" transform="translate(176.215 313.362)" fill="#00c19c" stroke="#fff" stroke-miterlimit="10" stroke-width="0.33"/><ellipse cx="0.656" cy="0.656" rx="0.656" ry="0.656" transform="translate(170.494 320.885)" fill="#00c19c" stroke="#fff" stroke-miterlimit="10" stroke-width="0.33"/><ellipse cx="0.656" cy="0.656" rx="0.656" ry="0.656" transform="translate(163.986 327.753)" fill="#00c19c" stroke="#fff" stroke-miterlimit="10" stroke-width="0.33"/><ellipse cx="0.656" cy="0.656" rx="0.656" ry="0.656" transform="translate(156.783 333.879)" fill="#00c19c" stroke="#fff" stroke-miterlimit="10" stroke-width="0.33"/><ellipse cx="0.656" cy="0.656" rx="0.656" ry="0.656" transform="translate(148.955 339.186)" fill="#00c19c" stroke="#fff" stroke-miterlimit="10" stroke-width="0.33"/><ellipse cx="0.656" cy="0.656" rx="0.656" ry="0.656" transform="translate(140.597 343.618)" fill="#00c19c" stroke="#fff" stroke-miterlimit="10" stroke-width="0.33"/><ellipse cx="0.656" cy="0.656" rx="0.656" ry="0.656" transform="translate(131.81 347.115)" fill="#00c19c" stroke="#fff" stroke-miterlimit="10" stroke-width="0.33"/><ellipse cx="0.656" cy="0.656" rx="0.656" ry="0.656" transform="translate(122.695 349.643)" fill="#00c19c" stroke="#fff" stroke-miterlimit="10" stroke-width="0.33"/><ellipse cx="0.656" cy="0.656" rx="0.656" ry="0.656" transform="translate(113.361 351.181)" fill="#00c19c" stroke="#fff" stroke-miterlimit="10" stroke-width="0.33"/><ellipse cx="0.656" cy="0.656" rx="0.656" ry="0.656" transform="translate(103.918 351.688)" fill="#00c19c" stroke="#fff" stroke-miterlimit="10" stroke-width="0.33"/><ellipse cx="0.656" cy="0.656" rx="0.656" ry="0.656" transform="translate(94.475 351.181)" fill="#00c19c" stroke="#fff" stroke-miterlimit="10" stroke-width="0.33"/><ellipse cx="0.656" cy="0.656" rx="0.656" ry="0.656" transform="translate(85.142 349.643)" fill="#00c19c" stroke="#fff" stroke-miterlimit="10" stroke-width="0.33"/><ellipse cx="0.656" cy="0.656" rx="0.656" ry="0.656" transform="translate(76.027 347.115)" fill="#00c19c" stroke="#fff" stroke-miterlimit="10" stroke-width="0.33"/><ellipse cx="0.656" cy="0.656" rx="0.656" ry="0.656" transform="translate(67.247 343.618)" fill="#00c19c" stroke="#fff" stroke-miterlimit="10" stroke-width="0.33"/><ellipse cx="0.656" cy="0.656" rx="0.656" ry="0.656" transform="translate(58.889 339.186)" fill="#00c19c" stroke="#fff" stroke-miterlimit="10" stroke-width="0.33"/><ellipse cx="0.656" cy="0.656" rx="0.656" ry="0.656" transform="translate(51.062 333.879)" fill="#00c19c" stroke="#fff" stroke-miterlimit="10" stroke-width="0.33"/><ellipse cx="0.656" cy="0.656" rx="0.656" ry="0.656" transform="translate(43.851 327.753)" fill="#00c19c" stroke="#fff" stroke-miterlimit="10" stroke-width="0.33"/><ellipse cx="0.656" cy="0.656" rx="0.656" ry="0.656" transform="translate(37.35 320.885)" fill="#00c19c" stroke="#fff" stroke-miterlimit="10" stroke-width="0.33"/><ellipse cx="0.656" cy="0.656" rx="0.656" ry="0.656" transform="translate(31.622 313.362)" fill="#00c19c" stroke="#fff" stroke-miterlimit="10" stroke-width="0.33"/><ellipse cx="0.656" cy="0.656" rx="0.656" ry="0.656" transform="translate(26.744 305.254)" fill="#00c19c" stroke="#fff" stroke-miterlimit="10" stroke-width="0.33"/><ellipse cx="0.656" cy="0.656" rx="0.656" ry="0.656" transform="translate(22.772 296.67)" fill="#00c19c" stroke="#fff" stroke-miterlimit="10" stroke-width="0.33"/><ellipse cx="0.656" cy="0.656" rx="0.656" ry="0.656" transform="translate(19.752 287.711)" fill="#00c19c" stroke="#fff" stroke-miterlimit="10" stroke-width="0.33"/><ellipse cx="0.656" cy="0.656" rx="0.656" ry="0.656" transform="translate(17.723 278.471)" fill="#00c19c" stroke="#fff" stroke-miterlimit="10" stroke-width="0.33"/><ellipse cx="0.656" cy="0.656" rx="0.656" ry="0.656" transform="translate(16.701 269.067)" fill="#00c19c" stroke="#fff" stroke-miterlimit="10" stroke-width="0.33"/><ellipse cx="0.656" cy="0.656" rx="0.656" ry="0.656" transform="translate(16.701 259.608)" fill="#00c19c" stroke="#fff" stroke-miterlimit="10" stroke-width="0.33"/><ellipse cx="0.656" cy="0.656" rx="0.656" ry="0.656" transform="translate(17.723 250.212)" fill="#00c19c" stroke="#fff" stroke-miterlimit="10" stroke-width="0.33"/><ellipse cx="0.656" cy="0.656" rx="0.656" ry="0.656" transform="translate(19.752 240.972)" fill="#00c19c" stroke="#fff" stroke-miterlimit="10" stroke-width="0.33"/><ellipse cx="0.656" cy="0.656" rx="0.656" ry="0.656" transform="translate(22.772 232.013)" fill="#00c19c" stroke="#fff" stroke-miterlimit="10" stroke-width="0.33"/><ellipse cx="0.656" cy="0.656" rx="0.656" ry="0.656" transform="translate(26.744 223.429)" fill="#00c19c" stroke="#fff" stroke-miterlimit="10" stroke-width="0.33"/><ellipse cx="0.656" cy="0.656" rx="0.656" ry="0.656" transform="translate(31.622 215.321)" fill="#00c19c" stroke="#fff" stroke-miterlimit="10" stroke-width="0.33"/><ellipse cx="0.656" cy="0.656" rx="0.656" ry="0.656" transform="translate(37.35 207.79)" fill="#00c19c" stroke="#fff" stroke-miterlimit="10" stroke-width="0.33"/><ellipse cx="0.656" cy="0.656" rx="0.656" ry="0.656" transform="translate(43.851 200.93)" fill="#00c19c" stroke="#fff" stroke-miterlimit="10" stroke-width="0.33"/><ellipse cx="0.656" cy="0.656" rx="0.656" ry="0.656" transform="translate(51.062 194.804)" fill="#00c19c" stroke="#fff" stroke-miterlimit="10" stroke-width="0.33"/><ellipse cx="0.656" cy="0.656" rx="0.656" ry="0.656" transform="translate(58.889 189.497)" fill="#00c19c" stroke="#fff" stroke-miterlimit="10" stroke-width="0.33"/><ellipse cx="0.656" cy="0.656" rx="0.656" ry="0.656" transform="translate(67.247 185.064)" fill="#00c19c" stroke="#fff" stroke-miterlimit="10" stroke-width="0.33"/><ellipse cx="0.656" cy="0.656" rx="0.656" ry="0.656" transform="translate(76.027 181.568)" fill="#00c19c" stroke="#fff" stroke-miterlimit="10" stroke-width="0.33"/><ellipse cx="0.656" cy="0.656" rx="0.656" ry="0.656" transform="translate(85.142 179.032)" fill="#00c19c" stroke="#fff" stroke-miterlimit="10" stroke-width="0.33"/><ellipse cx="0.656" cy="0.656" rx="0.656" ry="0.656" transform="translate(94.475 177.502)" fill="#00c19c" stroke="#fff" stroke-miterlimit="10" stroke-width="0.33"/><ellipse cx="0.656" cy="0.656" rx="0.656" ry="0.656" transform="translate(103.918 176.995)" fill="#00c19c" stroke="#fff" stroke-miterlimit="10" stroke-width="0.33"/><ellipse cx="0.656" cy="0.656" rx="0.656" ry="0.656" transform="translate(113.361 177.502)" fill="#00c19c" stroke="#fff" stroke-miterlimit="10" stroke-width="0.33"/><ellipse cx="0.656" cy="0.656" rx="0.656" ry="0.656" transform="translate(122.695 179.032)" fill="#00c19c" stroke="#fff" stroke-miterlimit="10" stroke-width="0.33"/><ellipse cx="0.656" cy="0.656" rx="0.656" ry="0.656" transform="translate(131.81 181.568)" fill="#00c19c" stroke="#fff" stroke-miterlimit="10" stroke-width="0.33"/><ellipse cx="0.656" cy="0.656" rx="0.656" ry="0.656" transform="translate(140.597 185.064)" fill="#00c19c" stroke="#fff" stroke-miterlimit="10" stroke-width="0.33"/><ellipse cx="0.656" cy="0.656" rx="0.656" ry="0.656" transform="translate(148.955 189.497)" fill="#00c19c" stroke="#fff" stroke-miterlimit="10" stroke-width="0.33"/><ellipse cx="0.656" cy="0.656" rx="0.656" ry="0.656" transform="translate(156.783 194.804)" fill="#00c19c" stroke="#fff" stroke-miterlimit="10" stroke-width="0.33"/><ellipse cx="0.656" cy="0.656" rx="0.656" ry="0.656" transform="translate(163.986 200.93)" fill="#00c19c" stroke="#fff" stroke-miterlimit="10" stroke-width="0.33"/><ellipse cx="0.656" cy="0.656" rx="0.656" ry="0.656" transform="translate(170.494 207.79)" fill="#00c19c" stroke="#fff" stroke-miterlimit="10" stroke-width="0.33"/><ellipse cx="0.656" cy="0.656" rx="0.656" ry="0.656" transform="translate(176.215 215.321)" fill="#00c19c" stroke="#fff" stroke-miterlimit="10" stroke-width="0.33"/><ellipse cx="0.656" cy="0.656" rx="0.656" ry="0.656" transform="translate(181.092 223.429)" fill="#00c19c" stroke="#fff" stroke-miterlimit="10" stroke-width="0.33"/><ellipse cx="0.656" cy="0.656" rx="0.656" ry="0.656" transform="translate(185.064 232.013)" fill="#00c19c" stroke="#fff" stroke-miterlimit="10" stroke-width="0.33"/><ellipse cx="0.656" cy="0.656" rx="0.656" ry="0.656" transform="translate(188.085 240.972)" fill="#00c19c" stroke="#fff" stroke-miterlimit="10" stroke-width="0.33"/><ellipse cx="0.656" cy="0.656" rx="0.656" ry="0.656" transform="translate(190.121 250.212)" fill="#00c19c" stroke="#fff" stroke-miterlimit="10" stroke-width="0.33"/><ellipse cx="0.656" cy="0.656" rx="0.656" ry="0.656" transform="translate(191.144 259.608)" fill="orange" stroke="#fff" stroke-miterlimit="10" stroke-width="0.33"/><ellipse cx="0.656" cy="0.656" rx="0.656" ry="0.656" transform="translate(233.652 256.526)" fill="#ff6c39" stroke="#fff" stroke-miterlimit="10" stroke-width="0.33"/><g transform="translate(26.822 261.099)" style="isolation:isolate"><text transform="translate(0 3)" fill="orange" font-size="3" font-family="ArialMT, Arial" style="isolation:isolate"><tspan x="0" y="0">Impero mongolo</tspan></text></g><g transform="translate(194.332 265.966)" style="isolation:isolate"><text transform="translate(0.091 2.996) rotate(3.1)" fill="#00c19c" font-size="3" font-family="ArialMT, Arial" style="isolation:isolate"><tspan x="0" y="0">Adelma</tspan></text></g><g transform="translate(193.195 275.697)" style="isolation:isolate"><text transform="translate(0.272 2.96) rotate(9.31)" fill="#00c19c" font-size="3" font-family="ArialMT, Arial" style="isolation:isolate"><tspan x="0" y="0">Aglaura</tspan></text></g><g transform="translate(191.013 285.293)" style="isolation:isolate"><text transform="translate(0.45 2.891) rotate(15.52)" fill="#00c19c" font-size="3" font-family="ArialMT, Arial" style="isolation:isolate"><tspan x="0" y="0">Anastasia</tspan></text></g><g transform="translate(187.827 294.66)" style="isolation:isolate"><text transform="matrix(0.929, 0.37, -0.37, 0.929, 0.623, 2.787)" fill="#00c19c" font-size="3" font-family="ArialMT, Arial" style="isolation:isolate"><tspan x="0" y="0">Andria</tspan></text></g><g transform="translate(183.661 303.672)" style="isolation:isolate"><text transform="translate(0.788 2.651) rotate(27.93)" fill="#00c19c" font-size="3" font-family="ArialMT, Arial" style="isolation:isolate"><tspan x="0" y="0">Argia</tspan></text></g><g transform="translate(178.57 312.232)" style="isolation:isolate"><text transform="translate(0.944 2.483) rotate(34.14)" fill="#00c19c" font-size="3" font-family="ArialMT, Arial" style="isolation:isolate"><tspan x="0" y="0">Armilla</tspan></text></g><g transform="translate(172.609 320.245)" style="isolation:isolate"><text transform="translate(1.094 2.28) rotate(40.539)" fill="#00c19c" font-size="3" font-family="ArialMT, Arial" style="isolation:isolate"><tspan x="0" y="0">Bauci</tspan></text></g><g transform="translate(165.854 327.606)" style="isolation:isolate"><text transform="matrix(0.688, 0.726, -0.726, 0.688, 1.221, 2.063)" fill="#00c19c" font-size="3" font-family="ArialMT, Arial" style="isolation:isolate"><tspan x="0" y="0">Berenice</tspan></text></g><g transform="translate(158.378 334.226)" style="isolation:isolate"><text transform="matrix(0.605, 0.796, -0.796, 0.605, 1.339, 1.815)" fill="#00c19c" font-size="3" font-family="ArialMT, Arial" style="isolation:isolate"><tspan x="0" y="0">Bersabea</tspan></text></g><g transform="translate(150.27 340.031)" style="isolation:isolate"><text transform="matrix(0.517, 0.856, -0.856, 0.517, 1.44, 1.552)" fill="#00c19c" font-size="3" font-family="ArialMT, Arial" style="isolation:isolate"><tspan x="0" y="0">Cecilia</tspan></text></g><g transform="translate(141.629 344.977)" style="isolation:isolate"><text transform="translate(1.527 1.26) rotate(65.17)" fill="#00c19c" font-size="3" font-family="ArialMT, Arial" style="isolation:isolate"><tspan x="0" y="0">Clarice</tspan></text></g><g transform="translate(132.553 348.975)" style="isolation:isolate"><text transform="matrix(0.319, 0.948, -0.948, 0.319, 1.594, 0.958)" fill="#00c19c" font-size="3" font-family="ArialMT, Arial" style="isolation:isolate"><tspan x="0" y="0">Cloe</tspan></text></g><g transform="translate(123.15 351.989)" style="isolation:isolate"><text transform="translate(1.643 0.645) rotate(77.59)" fill="#00c19c" font-size="3" font-family="ArialMT, Arial" style="isolation:isolate"><tspan x="0" y="0">Despina</tspan></text></g><g transform="translate(113.522 353.974)" style="isolation:isolate"><text transform="translate(1.673 0.325) rotate(83.79)" fill="#00c19c" font-size="3" font-family="ArialMT, Arial" style="isolation:isolate"><tspan x="0" y="0">Diomira</tspan></text></g><g transform="translate(103.793 354.926)" style="isolation:isolate"><text transform="translate(1.682) rotate(90)" fill="#00c19c" font-size="3" font-family="ArialMT, Arial" style="isolation:isolate"><tspan x="0" y="0">Dorotea</tspan></text></g><g transform="translate(89.886 353.109)" style="isolation:isolate"><text transform="translate(2.982 11.186) rotate(-83.79)" fill="#00c19c" font-size="3" font-family="ArialMT, Arial" style="isolation:isolate"><tspan x="0" y="0">Ersilia</tspan></text></g><g transform="translate(78.494 349.299)" style="isolation:isolate"><text transform="translate(2.933 16.653) rotate(-77.905)" fill="#00c19c" font-size="3" font-family="ArialMT, Arial" style="isolation:isolate"><tspan x="0" y="0">Eudossia</tspan></text></g><g transform="translate(68.177 347.501)" style="isolation:isolate"><text transform="matrix(0.319, -0.948, 0.948, 0.319, 2.843, 14.27)" fill="#00c19c" font-size="3" font-family="ArialMT, Arial" style="isolation:isolate"><tspan x="0" y="0">Eufemia</tspan></text></g><g transform="translate(58.087 343.434)" style="isolation:isolate"><text transform="translate(2.723 14.008) rotate(-65.17)" fill="#00c19c" font-size="3" font-family="ArialMT, Arial" style="isolation:isolate"><tspan x="0" y="0">Eusapia</tspan></text></g><g transform="translate(48.363 338.174)" style="isolation:isolate"><text transform="matrix(0.517, -0.856, 0.856, 0.517, 2.567, 14.241)" fill="#00c19c" font-size="3" font-family="ArialMT, Arial" style="isolation:isolate"><tspan x="0" y="0">Eutropia</tspan></text></g><g transform="translate(40.268 333.205)" style="isolation:isolate"><text transform="matrix(0.605, -0.796, 0.796, 0.605, 2.388, 11.756)" fill="#00c19c" font-size="3" font-family="ArialMT, Arial" style="isolation:isolate"><tspan x="0" y="0">Fedora</tspan></text></g><g transform="translate(33.18 327.322)" style="isolation:isolate"><text transform="translate(2.18 9.434) rotate(-46.614)" fill="#00c19c" font-size="3" font-family="ArialMT, Arial" style="isolation:isolate"><tspan x="0" y="0">Fillide</tspan></text></g><g transform="translate(25.948 320.074)" style="isolation:isolate"><text transform="translate(1.95 8.874) rotate(-40.539)" fill="#00c19c" font-size="3" font-family="ArialMT, Arial" style="isolation:isolate"><tspan x="0" y="0">Ipazia</tspan></text></g><g transform="translate(20.582 312.417)" style="isolation:isolate"><text transform="translate(1.684 7.301) rotate(-34.14)" fill="#00c19c" font-size="3" font-family="ArialMT, Arial" style="isolation:isolate"><tspan x="0" y="0">Irene</tspan></text></g><g transform="translate(14.277 303.306)" style="isolation:isolate"><text transform="translate(1.413 7.793) rotate(-28.106)" fill="#00c19c" font-size="3" font-family="ArialMT, Arial" style="isolation:isolate"><tspan x="0" y="0">Isaura</tspan></text></g><g transform="translate(9.583 294.316)" style="isolation:isolate"><text transform="matrix(0.929, -0.37, 0.37, 0.929, 1.11, 7.119)" fill="#00c19c" font-size="3" font-family="ArialMT, Arial" style="isolation:isolate"><tspan x="0" y="0">Isidora</tspan></text></g><g transform="translate(6.482 285.007)" style="isolation:isolate"><text transform="translate(0.812 6.057) rotate(-15.709)" fill="#00c19c" font-size="3" font-family="ArialMT, Arial" style="isolation:isolate"><tspan x="0" y="0">Lalage</tspan></text></g><g transform="translate(1.031 275.237)" style="isolation:isolate"><text transform="translate(0.485 5.738) rotate(-9.31)" fill="#00c19c" font-size="3" font-family="ArialMT, Arial" style="isolation:isolate"><tspan x="0" y="0">Laudomia</tspan></text></g><g transform="translate(2.091 265.886)" style="isolation:isolate"><text transform="translate(0.162 3.755) rotate(-3.1)" fill="#00c19c" font-size="3" font-family="ArialMT, Arial" style="isolation:isolate"><tspan x="0" y="0">Leandra</tspan></text></g><g transform="translate(3.985 255.65)" style="isolation:isolate"><text transform="translate(0.091 2.996) rotate(3.1)" fill="#00c19c" font-size="3" font-family="ArialMT, Arial" style="isolation:isolate"><tspan x="0" y="0">Leonia</tspan></text></g><g transform="translate(3.666 244.621)" style="isolation:isolate"><text transform="translate(0.272 2.96) rotate(9.31)" fill="#00c19c" font-size="3" font-family="ArialMT, Arial" style="isolation:isolate"><tspan x="0" y="0">Marozia</tspan></text></g><g transform="translate(6.094 233.954)" style="isolation:isolate"><text transform="translate(0.456 2.888) rotate(15.709)" fill="#00c19c" font-size="3" font-family="ArialMT, Arial" style="isolation:isolate"><tspan x="0" y="0">Maurilia</tspan></text></g><g transform="translate(9.536 223.62)" style="isolation:isolate"><text transform="matrix(0.929, 0.37, -0.37, 0.929, 0.623, 2.787)" fill="#00c19c" font-size="3" font-family="ArialMT, Arial" style="isolation:isolate"><tspan x="0" y="0">Melania</tspan></text></g><g transform="translate(13.843 213.65)" style="isolation:isolate"><text transform="translate(0.793 2.646) rotate(28.106)" fill="#00c19c" font-size="3" font-family="ArialMT, Arial" style="isolation:isolate"><tspan x="0" y="0">Moriana</tspan></text></g><g transform="translate(21.031 205.419)" style="isolation:isolate"><text transform="translate(0.944 2.483) rotate(34.14)" fill="#00c19c" font-size="3" font-family="ArialMT, Arial" style="isolation:isolate"><tspan x="0" y="0">Olinda</tspan></text></g><g transform="translate(28.305 197.676)" style="isolation:isolate"><text transform="translate(1.094 2.28) rotate(40.539)" fill="#00c19c" font-size="3" font-family="ArialMT, Arial" style="isolation:isolate"><tspan x="0" y="0">Olivia</tspan></text></g><g transform="translate(34.465 188.9)" style="isolation:isolate"><text transform="translate(1.223 2.061) rotate(46.614)" fill="#00c19c" font-size="3" font-family="ArialMT, Arial" style="isolation:isolate"><tspan x="0" y="0">Ottavia</tspan></text></g><g transform="translate(40.404 179.035)" style="isolation:isolate"><text transform="matrix(0.605, 0.796, -0.796, 0.605, 1.339, 1.815)" fill="#00c19c" font-size="3" font-family="ArialMT, Arial" style="isolation:isolate"><tspan x="0" y="0">Pentesilea</tspan></text></g><g transform="translate(51.182 175.343)" style="isolation:isolate"><text transform="matrix(0.517, 0.856, -0.856, 0.517, 1.44, 1.552)" fill="#00c19c" font-size="3" font-family="ArialMT, Arial" style="isolation:isolate"><tspan x="0" y="0">Perinzia</tspan></text></g><g transform="translate(62.551 174.053)" style="isolation:isolate"><text transform="translate(1.527 1.26) rotate(65.17)" fill="#00c19c" font-size="3" font-family="ArialMT, Arial" style="isolation:isolate"><tspan x="0" y="0">Pirra</tspan></text></g><g transform="translate(70.901 166.01)" style="isolation:isolate"><text transform="matrix(0.319, 0.948, -0.948, 0.319, 1.594, 0.958)" fill="#00c19c" font-size="3" font-family="ArialMT, Arial" style="isolation:isolate"><tspan x="0" y="0">Procopia</tspan></text></g><g transform="translate(81.952 164.854)" style="isolation:isolate"><text transform="translate(1.645 0.629) rotate(77.905)" fill="#00c19c" font-size="3" font-family="ArialMT, Arial" style="isolation:isolate"><tspan x="0" y="0">Quinsai</tspan></text></g><g transform="translate(92.896 164.328)" style="isolation:isolate"><text transform="translate(1.673 0.325) rotate(83.79)" fill="#00c19c" font-size="3" font-family="ArialMT, Arial" style="isolation:isolate"><tspan x="0" y="0">Raissa</tspan></text></g><g transform="translate(100.672 155.557)" style="isolation:isolate"><text transform="translate(3 19.51) rotate(-90)" fill="#00c19c" font-size="3" font-family="ArialMT, Arial" style="isolation:isolate"><tspan x="0" y="0">Smeraldina</tspan></text></g><g transform="translate(110.418 160.428)" style="isolation:isolate"><text transform="translate(2.982 15.065) rotate(-83.79)" fill="#00c19c" font-size="3" font-family="ArialMT, Arial" style="isolation:isolate"><tspan x="0" y="0">Sofronia</tspan></text></g><g transform="translate(120.089 164.14)" style="isolation:isolate"><text transform="translate(2.933 12.838) rotate(-77.905)" fill="#00c19c" font-size="3" font-family="ArialMT, Arial" style="isolation:isolate"><tspan x="0" y="0" letter-spacing="-0.11em">T</tspan><tspan y="0">amara</tspan></text></g><g transform="translate(129.595 170.392)" style="isolation:isolate"><text transform="matrix(0.319, -0.948, 0.948, 0.319, 2.843, 9.093)" fill="#00c19c" font-size="3" font-family="ArialMT, Arial" style="isolation:isolate"><tspan x="0" y="0" letter-spacing="-0.11em">T</tspan><tspan y="0">ecla</tspan></text></g><g transform="translate(138.796 168.991)" style="isolation:isolate"><text transform="translate(2.723 14.008) rotate(-65.17)" fill="#00c19c" font-size="3" font-family="ArialMT, Arial" style="isolation:isolate"><tspan x="0" y="0" letter-spacing="-0.11em">T</tspan><tspan y="0">eodora</tspan></text></g><g transform="translate(147.598 177.236)" style="isolation:isolate"><text transform="matrix(0.517, -0.856, 0.856, 0.517, 2.567, 10.234)" fill="#00c19c" font-size="3" font-family="ArialMT, Arial" style="isolation:isolate"><tspan x="0" y="0" letter-spacing="-0.04em">T</tspan><tspan y="0">rude</tspan></text></g><g transform="translate(155.893 179.241)" style="isolation:isolate"><text transform="matrix(0.605, -0.796, 0.796, 0.605, 2.388, 13.62)" fill="#00c19c" font-size="3" font-family="ArialMT, Arial" style="isolation:isolate"><tspan x="0" y="0" letter-spacing="-0.07em">V</tspan><tspan y="0">aldrada</tspan></text></g><g transform="translate(163.585 190.786)" style="isolation:isolate"><text transform="translate(2.18 8.299) rotate(-46.614)" fill="#00c19c" font-size="3" font-family="ArialMT, Arial" style="isolation:isolate"><tspan x="0" y="0">Zaira</tspan></text></g><g transform="translate(170.58 193.664)" style="isolation:isolate"><text transform="translate(1.95 12.425) rotate(-40.539)" fill="#00c19c" font-size="3" font-family="ArialMT, Arial" style="isolation:isolate"><tspan x="0" y="0">Zemrude</tspan></text></g><g transform="translate(176.826 203.419)" style="isolation:isolate"><text transform="translate(1.684 10.367) rotate(-34.14)" fill="#00c19c" font-size="3" font-family="ArialMT, Arial" style="isolation:isolate"><tspan x="0" y="0">Zenobia</tspan></text></g><g transform="translate(182.196 214.653)" style="isolation:isolate"><text transform="translate(1.413 7.426) rotate(-28.106)" fill="#00c19c" font-size="3" font-family="ArialMT, Arial" style="isolation:isolate"><tspan x="0" y="0">Zirma</tspan></text></g><g transform="translate(186.672 222.885)" style="isolation:isolate"><text transform="matrix(0.929, -0.37, 0.37, 0.929, 1.11, 7.985)" fill="#00c19c" font-size="3" font-family="ArialMT, Arial" style="isolation:isolate"><tspan x="0" y="0">Zobeide</tspan></text></g><g transform="translate(190.173 235.275)" style="isolation:isolate"><text transform="translate(0.812 4.79) rotate(-15.709)" fill="#00c19c" font-size="3" font-family="ArialMT, Arial" style="isolation:isolate"><tspan x="0" y="0">Zoe</tspan></text></g><g transform="translate(192.69 245.333)" style="isolation:isolate"><text transform="translate(0.485 4.223) rotate(-9.31)" fill="#00c19c" font-size="3" font-family="ArialMT, Arial" style="isolation:isolate"><tspan x="0" y="0">Zora</tspan></text></g><g transform="translate(194.164 254.504)" style="isolation:isolate"><text transform="translate(0.162 4.726) rotate(-3.1)" fill="orange" font-size="3" font-family="ArialMT, Arial" style="isolation:isolate"><tspan x="0" y="0">reggia di Kemenfù</tspan></text></g><g transform="translate(236.68 253.173)" style="isolation:isolate"><text transform="translate(0.162 3.755) rotate(-3.1)" fill="#ff6c39" font-size="3" font-family="ArialMT, Arial" style="isolation:isolate"><tspan x="0" y="0">giardino</tspan></text></g><text transform="translate(102.135 66.772)" fill="#1d1d1b" font-size="9" font-family="HKGrotesk-Regular, HK Grotesk"><tspan x="-30.766" y="0">Le città invisibili</tspan></text><text transform="translate(105.135 267.748)" fill="#1d1d1b" font-size="9" font-family="HKGrotesk-Regular, HK Grotesk"><tspan x="-30.766" y="0">Le città invisibili</tspan></text></g><g transform="translate(0 64)"><text transform="translate(1.967 138.059)" fill="#1d1d1b" font-size="10" font-family="HKGrotesk-MediumItalic, HK Grotesk" font-weight="500" font-style="italic" letter-spacing="-0.01em"><tspan x="0" y="0">Livelli spaziali: luoghi contenuti in altri luoghi</tspan></text></g><g transform="translate(-19 -297)"><text transform="translate(20.067 297)" fill="#404040" font-size="10" font-family="HKGrotesk-Bold, HK Grotesk" font-weight="700"><tspan x="0" y="9">TIPO DI LUOGO</tspan></text><text transform="translate(50 327)" font-size="10" font-family="HKGrotesk-Regular, HK Grotesk" style="isolation:isolate"><tspan x="0" y="0">Terrestri </tspan><tspan x="0" y="12">generici</tspan></text><rect width="21" height="10" rx="5" transform="translate(19 319)" fill="#ff6c39"/><rect width="21" height="10" rx="5" transform="translate(104 318)" fill="orange"/><text transform="translate(135 326)" font-size="10" font-family="HKGrotesk-Regular, HK Grotesk" style="isolation:isolate"><tspan x="0" y="0">Terrestri </tspan><tspan x="0" y="12">localizzabili</tspan></text><rect width="21" height="10" rx="5" transform="translate(199 318)" fill="#00c19c"/><text transform="translate(230 326.078)" font-size="10" font-family="HKGrotesk-Regular, HK Grotesk" style="isolation:isolate"><tspan x="0" y="0">Terrestri </tspan><tspan x="0" y="12">inventati</tspan></text></g></g></svg>