<?xml version="1.0" encoding="utf-8"?>
<!-- Generator: Adobe Illustrator 24.3.0, SVG Export Plug-In . SVG Version: 6.00 Build 0)  -->
<svg version="1.1" id="Layer_1" xmlns="http://www.w3.org/2000/svg" xmlns:xlink="http://www.w3.org/1999/xlink" x="0px" y="0px"
	 viewBox="0 0 385 438" style="enable-background:new 0 0 385 438;" xml:space="preserve">
<style type="text/css">
	.st0{fill:none;stroke:#00C19C;stroke-width:6.6566;stroke-miterlimit:10;}
	.st1{fill:none;stroke:#FF6C39;stroke-width:6.6566;stroke-miterlimit:10;}
	.st2{fill:none;stroke:#FFA500;stroke-width:6.6566;stroke-miterlimit:10;}
	.st3{fill:#404040;}
	.st4{font-family:'HKGrotesk-Bold';}
	.st5{font-size:10px;}
	.st6{font-family:'HKGrotesk-Regular';}
	.st7{fill:#FF6C39;}
	.st8{fill:#FFA500;}
	.st9{fill:#00C19C;}
	.st10{fill:#1D1D1B;}
	.st11{font-size:9px;}
	.st12{font-family:'HKGrotesk-MediumItalic';}
	.st13{fill:#00C19C;stroke:#00C19C;stroke-width:0.25;stroke-miterlimit:10;}
	.st14{fill:#00C19C;stroke:#00C19C;stroke-width:0.5;}
	.st15{fill:none;stroke:#FF6C39;stroke-width:0.33;stroke-miterlimit:10;}
	.st16{fill:none;stroke:#00C19C;stroke-width:0.33;stroke-miterlimit:10;}
	.st17{fill:none;stroke:#00C19C;stroke-width:0.5;stroke-miterlimit:10;}
	.st18{fill:none;stroke:#00C19C;stroke-width:0.33;}
	.st19{fill:#FF6C39;stroke:#FFFFFF;stroke-width:0.44;stroke-miterlimit:10;}
	.st20{fill:#00C19C;stroke:#FFFFFF;stroke-width:0.44;stroke-miterlimit:10;}
	.st21{fill:#FFA500;stroke:#FFFFFF;stroke-width:0.44;stroke-miterlimit:10;}
	.st22{font-size:4px;}
	.st23{font-size:4.001px;}
	.st24{font-size:3.9981px;}
	.st25{font-size:4.0008px;}
	.st26{font-size:4.0003px;}
	.st27{font-size:4.0006px;}
	.st28{font-size:3.997px;}
	.st29{font-size:4.0009px;}
</style>
<g id="Group_24971" transform="translate(150.207 9.755)">
	<path id="Path_148063" class="st0" d="M119.6,97.8c-14.9,31-52.1,44-83,29.1s-44-52.1-29.1-83s52.1-44,83-29.1
		c21.6,10.4,35.3,32.2,35.3,56.1"/>
	<path id="Path_148064" class="st1" d="M125.5,76.6c-0.7,7.4-2.7,14.5-5.9,21.2"/>
	<path id="Path_148065" class="st2" d="M125.8,70.8c0,2-0.1,3.9-0.3,5.8"/>
</g>
<g id="Group_4719" transform="translate(-19 -297)">
	<text transform="matrix(1 0 0 1 41.067 305.9999)" class="st3 st4 st5">TIPO DI LUOGO</text>
	<text transform="matrix(1 0 0 1 71 326.9999)" class="st6 st5">Terrestri </text>
	<text transform="matrix(1 0 0 1 71 338.9999)" class="st6 st5">generici</text>
	<path id="Rectangle_13372" class="st7" d="M45,319h11c2.8,0,5,2.2,5,5l0,0c0,2.8-2.2,5-5,5H45c-2.8,0-5-2.2-5-5l0,0
		C40,321.2,42.2,319,45,319z"/>
	<path id="Rectangle_13373" class="st8" d="M45,359h11c2.8,0,5,2.2,5,5l0,0c0,2.8-2.2,5-5,5H45c-2.8,0-5-2.2-5-5l0,0
		C40,361.2,42.2,359,45,359z"/>
	<text transform="matrix(1 0 0 1 71 366.9999)" class="st6 st5">Terrestri </text>
	<text transform="matrix(1 0 0 1 71 378.9999)" class="st6 st5">localizzabili</text>
	<path id="Rectangle_20149" class="st9" d="M45,399h11c2.8,0,5,2.2,5,5l0,0c0,2.8-2.2,5-5,5H45c-2.8,0-5-2.2-5-5l0,0
		C40,401.2,42.2,399,45,399z"/>
	<text transform="matrix(1 0 0 1 71 407.0779)" class="st6 st5">Terrestri </text>
	<text transform="matrix(1 0 0 1 71 419.0779)" class="st6 st5">inventati</text>
</g>
<text transform="matrix(1 0 0 1 178.3443 80.148)" class="st10 st6 st11">Il ba</text>
<text transform="matrix(1 0 0 1 195.0172 80.148)" class="st10 st6 st11">r</text>
<text transform="matrix(1 0 0 1 198.1508 80.148)" class="st10 st6 st11">one rampante</text>
<text transform="matrix(1 0 0 1 178.3443 316.374)" class="st10 st6 st11">Il ba</text>
<text transform="matrix(1 0 0 1 195.0172 316.374)" class="st10 st6 st11">r</text>
<text transform="matrix(1 0 0 1 198.1508 316.374)" class="st10 st6 st11">one rampante</text>
<g id="Group_24059" transform="translate(122 20)">
	<text transform="matrix(1 0 0 1 -8.033 173.059)" class="st10 st12 st5">Livelli spaziali: luoghi contenuti in altri luoghi</text>
</g>
<path id="Path_148060_1_" class="st13" d="M294.4,350.7c-1,2.3-2.2,4.5-3.4,6.7l-0.1-0.1c1.2-2.2,2.4-4.4,3.4-6.6L294.4,350.7z"/>
<path id="Path_148061_1_" class="st14" d="M281.1,371.3c-31.6,36.5-86.9,40.5-123.4,8.8s-40.5-86.9-8.8-123.4
	c31.6-36.5,86.9-40.5,123.4-8.8c18.1,15.7,28.9,38,30.1,61.9h-0.1c-2.3-48.2-43.2-85.3-91.4-83c-48.2,2.3-85.3,43.2-83,91.4
	s43.2,85.3,91.4,83c23.8-1.1,46.2-12,61.8-30L281.1,371.3z"/>
<line id="Line_7813_1_" class="st15" x1="288.6" y1="324.1" x2="297.7" y2="326.1"/>
<line id="Line_7814_1_" class="st16" x1="289" y1="351.8" x2="292.6" y2="354"/>
<line id="Line_7815_1_" class="st17" x1="138.5" y1="287.8" x2="132.4" y2="285.4"/>
<path id="Path_157364_1_" class="st18" d="M308.7,247.3l13.9-10"/>
<path id="Path_157363_1_" class="st18" d="M331.4,296l8.5-1.1"/>
<ellipse id="Ellipse_33260_1_" class="st19" cx="297.7" cy="326.1" rx="0.7" ry="0.7"/>
<ellipse id="Ellipse_33263_1_" class="st19" cx="294.2" cy="350.7" rx="0.7" ry="0.7"/>
<ellipse id="Ellipse_33264_1_" class="st19" cx="293.1" cy="352.9" rx="0.7" ry="0.7"/>
<ellipse id="Ellipse_33265_1_" class="st19" cx="292" cy="355.1" rx="0.7" ry="0.7"/>
<ellipse id="Ellipse_33266_1_" class="st19" cx="290.8" cy="357.3" rx="0.7" ry="0.7"/>
<ellipse id="Ellipse_33268_1_" class="st19" cx="281" cy="371.2" rx="0.7" ry="0.7"/>
<ellipse id="Ellipse_33269_1_" class="st19" cx="275.2" cy="377.2" rx="0.7" ry="0.7"/>
<ellipse id="Ellipse_33270_1_" class="st19" cx="268.9" cy="382.6" rx="0.7" ry="0.7"/>
<ellipse id="Ellipse_33271_1_" class="st19" cx="262.2" cy="387.5" rx="0.7" ry="0.7"/>
<ellipse id="Ellipse_33272_1_" class="st19" cx="255" cy="391.6" rx="0.7" ry="0.7"/>
<ellipse id="Ellipse_33273_1_" class="st19" cx="247.4" cy="395.1" rx="0.7" ry="0.7"/>
<ellipse id="Ellipse_33274_1_" class="st19" cx="239.6" cy="397.8" rx="0.7" ry="0.7"/>
<ellipse id="Ellipse_33275_1_" class="st19" cx="231.5" cy="399.8" rx="0.7" ry="0.7"/>
<ellipse id="Ellipse_33276_1_" class="st19" cx="223.3" cy="400.9" rx="0.7" ry="0.7"/>
<ellipse id="Ellipse_33277_1_" class="st19" cx="215" cy="401.3" rx="0.7" ry="0.7"/>
<ellipse id="Ellipse_33278_1_" class="st19" cx="206.7" cy="400.9" rx="0.7" ry="0.7"/>
<ellipse id="Ellipse_33279_1_" class="st19" cx="198.4" cy="399.8" rx="0.7" ry="0.7"/>
<ellipse id="Ellipse_33280_1_" class="st19" cx="190.3" cy="397.8" rx="0.7" ry="0.7"/>
<ellipse id="Ellipse_33281_1_" class="st19" cx="182.5" cy="395.1" rx="0.7" ry="0.7"/>
<ellipse id="Ellipse_33282_1_" class="st19" cx="174.9" cy="391.6" rx="0.7" ry="0.7"/>
<ellipse id="Ellipse_33283_1_" class="st19" cx="167.7" cy="387.5" rx="0.7" ry="0.7"/>
<ellipse id="Ellipse_33284_1_" class="st19" cx="161" cy="382.6" rx="0.7" ry="0.7"/>
<ellipse id="Ellipse_33285_1_" class="st19" cx="154.7" cy="377.2" rx="0.7" ry="0.7"/>
<ellipse id="Ellipse_33286_1_" class="st19" cx="149" cy="371.2" rx="0.7" ry="0.7"/>
<ellipse id="Ellipse_33287_1_" class="st19" cx="143.8" cy="364.7" rx="0.7" ry="0.7"/>
<ellipse id="Ellipse_33288_1_" class="st19" cx="139.3" cy="357.7" rx="0.7" ry="0.7"/>
<ellipse id="Ellipse_33289_1_" class="st19" cx="135.5" cy="350.3" rx="0.7" ry="0.7"/>
<ellipse id="Ellipse_33290_1_" class="st19" cx="132.4" cy="342.6" rx="0.7" ry="0.7"/>
<ellipse id="Ellipse_33291_1_" class="st19" cx="130.1" cy="334.6" rx="0.7" ry="0.7"/>
<ellipse id="Ellipse_33292_1_" class="st19" cx="128.5" cy="326.4" rx="0.7" ry="0.7"/>
<ellipse id="Ellipse_33293_1_" class="st19" cx="127.7" cy="318.2" rx="0.7" ry="0.7"/>
<ellipse id="Ellipse_33294_1_" class="st19" cx="127.7" cy="309.8" rx="0.7" ry="0.7"/>
<ellipse id="Ellipse_33295_1_" class="st19" cx="128.5" cy="301.6" rx="0.7" ry="0.7"/>
<ellipse id="Ellipse_33296_1_" class="st19" cx="130.1" cy="293.4" rx="0.7" ry="0.7"/>
<ellipse id="Ellipse_33297_1_" class="st19" cx="132.4" cy="285.4" rx="0.7" ry="0.7"/>
<ellipse id="Ellipse_33298_1_" class="st19" cx="135.5" cy="277.7" rx="0.7" ry="0.7"/>
<ellipse id="Ellipse_33299_1_" class="st19" cx="139.3" cy="270.3" rx="0.7" ry="0.7"/>
<ellipse id="Ellipse_33300_1_" class="st19" cx="143.8" cy="263.3" rx="0.7" ry="0.7"/>
<ellipse id="Ellipse_33301_1_" class="st19" cx="149" cy="256.8" rx="0.7" ry="0.7"/>
<ellipse id="Ellipse_33302_1_" class="st19" cx="154.7" cy="250.8" rx="0.7" ry="0.7"/>
<ellipse id="Ellipse_33303_1_" class="st19" cx="161" cy="245.3" rx="0.7" ry="0.7"/>
<ellipse id="Ellipse_33304_1_" class="st19" cx="167.7" cy="240.5" rx="0.7" ry="0.7"/>
<ellipse id="Ellipse_33305_1_" class="st19" cx="174.9" cy="236.4" rx="0.7" ry="0.7"/>
<ellipse id="Ellipse_33306_1_" class="st19" cx="182.5" cy="232.9" rx="0.7" ry="0.7"/>
<ellipse id="Ellipse_33307_1_" class="st19" cx="190.3" cy="230.2" rx="0.7" ry="0.7"/>
<ellipse id="Ellipse_33308_1_" class="st19" cx="198.4" cy="228.2" rx="0.7" ry="0.7"/>
<ellipse id="Ellipse_33309_1_" class="st19" cx="206.7" cy="227.1" rx="0.7" ry="0.7"/>
<ellipse id="Ellipse_33310_1_" class="st19" cx="215" cy="226.7" rx="0.7" ry="0.7"/>
<ellipse id="Ellipse_33311_1_" class="st19" cx="223.3" cy="227.1" rx="0.7" ry="0.7"/>
<ellipse id="Ellipse_33312_1_" class="st19" cx="231.5" cy="228.2" rx="0.7" ry="0.7"/>
<ellipse id="Ellipse_33313_1_" class="st19" cx="239.6" cy="230.2" rx="0.7" ry="0.7"/>
<ellipse id="Ellipse_33314_1_" class="st19" cx="247.4" cy="232.9" rx="0.7" ry="0.7"/>
<ellipse id="Ellipse_33315_1_" class="st19" cx="255" cy="236.4" rx="0.7" ry="0.7"/>
<ellipse id="Ellipse_33316_1_" class="st19" cx="262.2" cy="240.5" rx="0.7" ry="0.7"/>
<ellipse id="Ellipse_33317_1_" class="st19" cx="268.9" cy="245.3" rx="0.7" ry="0.7"/>
<ellipse id="Ellipse_33318_1_" class="st19" cx="275.2" cy="250.8" rx="0.7" ry="0.7"/>
<ellipse id="Ellipse_33319_1_" class="st19" cx="281" cy="256.8" rx="0.7" ry="0.7"/>
<ellipse id="Ellipse_33320_1_" class="st20" cx="286.1" cy="263.3" rx="0.7" ry="0.7"/>
<ellipse id="Ellipse_33321_1_" class="st19" cx="322.6" cy="237.3" rx="0.7" ry="0.7"/>
<ellipse id="Ellipse_33322_1_" class="st20" cx="290.6" cy="270.3" rx="0.7" ry="0.7"/>
<ellipse id="Ellipse_33323_1_" class="st20" cx="294.4" cy="277.7" rx="0.7" ry="0.7"/>
<ellipse id="Ellipse_33324_1_" class="st20" cx="299.8" cy="293.4" rx="0.7" ry="0.7"/>
<ellipse id="Ellipse_33325_1_" class="st20" cx="301.4" cy="301.6" rx="0.7" ry="0.7"/>
<ellipse id="Ellipse_33326_1_" class="st19" cx="339.8" cy="294.8" rx="0.7" ry="0.7"/>
<ellipse id="Ellipse_33327_1_" class="st21" cx="302.2" cy="309.8" rx="0.7" ry="0.7"/>
<text transform="matrix(0.9989 4.762946e-02 -4.762946e-02 0.9989 279.9857 316.8687)" class="st8 st6 st22">Parigi</text>
<text transform="matrix(0.9898 0.1423 -0.1423 0.9898 278.5197 323.0709)" class="st7 st6 st22">mare</text>
<text transform="matrix(0.9898 0.1423 -0.1423 0.9898 299.8319 327.8987)" class="st7 st6 st22">barca</text>
<text transform="matrix(0.9718 0.2359 -0.2359 0.9718 276.4771 329.5756)" class="st7 st6 st23">mongolfiera</text>
<g id="V005_Olivabassa_1_" transform="translate(277.355 330.562)">
	<text transform="matrix(0.8889 0.4582 -0.4582 0.8889 -6.8166 12.2991)" class="st9 st6 st22">Olivabassa</text>
</g>
<text transform="matrix(0.9076 0.4198 -0.4198 0.9076 298.213 349.697)" class="st7 st6 st22">ciliegio</text>
<text transform="matrix(0.8954 0.4452 -0.4452 0.8954 296.3009 352.9215)" class="st7 st6 st24">mandorlo</text>
<text transform="matrix(0.8822 0.4709 -0.4709 0.8822 294.325 356.1091)" class="st7 st6 st22">platano</text>
<text transform="matrix(0.867 0.4983 -0.4983 0.867 292.2838 359.272)" class="st7 st6 st22">quercia</text>
<text transform="matrix(0.945 0.3271 -0.3271 0.945 138.4668 289.1708)" class="st9 st6 st22">Ombrosa</text>
<text transform="matrix(0.7736 0.6337 -0.6337 0.7736 283.2311 374.6509)" class="st7 st6 st22">olivo</text>
<text transform="matrix(0.6901 0.7237 -0.7237 0.6901 276.477 380.8887)" class="st7 st6 st22">vigne</text>
<text transform="matrix(0.6174 0.7867 -0.7867 0.6174 269.9453 387.0533)" class="st7 st6 st22">valle</text>
<text transform="matrix(0.541 0.841 -0.841 0.541 262.8939 390.9034)" class="st7 st6 st22">vallata</text>
<text transform="matrix(0.4582 0.8889 -0.8889 0.4582 255.3584 394.8019)" class="st7 st6 st22">bandita</text>
<text transform="matrix(0.3717 0.9284 -0.9284 0.3717 248.0649 398.5122)" class="st7 st6 st22">bosco</text>
<text transform="matrix(0.28 0.96 -0.96 0.28 239.5587 401.4699)" class="st7 st6 st22">bottega</text>
<text transform="matrix(0.19 0.9818 -0.9818 0.19 231.481 403.6304)" class="st7 st6 st25">campo</text>
<text transform="matrix(9.497701e-02 0.9955 -0.9955 9.497701e-02 222.2607 404.9223)" class="st7 st6 st22">carrozza</text>
<text transform="matrix(6.123234e-17 1 -1 6.123234e-17 214.235 404.9218)" class="st7 st6 st22">carrubo</text>
<text transform="matrix(9.497701e-02 -0.9955 0.9955 9.497701e-02 204.4288 437.2861)" class="st7 st6 st22">casa del gabelliere</text>
<text transform="matrix(0.19 -0.9818 0.9818 0.19 195.0177 422.672)" class="st7 st6 st25">castagneto</text>
<text transform="matrix(0.2817 -0.9595 0.9595 0.2817 185.5498 417.065)" class="st7 st6 st22">castagno</text>
<text transform="matrix(0.3717 -0.9284 0.9284 0.3717 175.6533 414.3517)" class="st7 st6 st22">cattedrale</text>
<text transform="matrix(0.4582 -0.8889 0.8889 0.4582 168.4557 405.9033)" class="st7 st6 st22">ciliegio</text>
<text transform="matrix(0.541 -0.841 0.841 0.541 159.3825 403.1696)" class="st7 st6 st22">cimitero</text>
<text transform="matrix(0.6181 -0.7861 0.7861 0.6181 152.8698 394.8014)" class="st7 st6 st22">colline</text>
<text transform="matrix(0.6919 -0.7219 0.7219 0.6919 148.4811 385.2678)" class="st7 st6 st26">elce</text>
<text transform="matrix(0.76 -0.65 0.65 0.76 139.5407 379.8251)" class="st7 st6 st22">faggio</text>
<text transform="matrix(0.8146 -0.58 0.58 0.8146 136.861 369.2392)" class="st7 st6 st22">fico</text>
<text transform="matrix(0.866 -0.5 0.5 0.866 125.2999 366.9452)" class="st7 st6 st22">frassino</text>
<text transform="matrix(0.9099 -0.4149 0.4149 0.9099 122.1932 357.6667)" class="st7 st6 st27">frutteto</text>
<text transform="matrix(0.945 -0.3271 0.3271 0.945 121.1803 348.4503)" class="st7 st6 st22">gelso</text>
<text transform="matrix(0.9707 -0.2402 0.2402 0.9707 116.8731 339.1691)" class="st7 st6 st28">glicine</text>
<text transform="matrix(0.9901 -0.14 0.14 0.9901 116.4051 329.1747)" class="st7 st6 st22">grotta</text>
<text transform="matrix(0.9989 -4.762946e-02 4.762946e-02 0.9989 108.8318 320.4917)" class="st7 st6 st22">magnolia</text>
<text transform="matrix(0.9989 4.762946e-02 -4.762946e-02 0.9989 106.1487 309.8432)" class="st7 st6 st22">melograno</text>
<text transform="matrix(0.9901 0.14 -0.14 0.9901 116.4049 300.8528)" class="st7 st6 st22">muro</text>
<text transform="matrix(0.9707 0.2402 -0.2402 0.9707 118.6051 291.2646)" class="st7 st6 st28">noce</text>
<text transform="matrix(0.945 0.3271 -0.3271 0.945 122.1933 282.8824)" class="st7 st6 st22">tana</text>
<text transform="matrix(0.9099 0.4149 -0.4149 0.9099 124.7477 273.603)" class="st7 st6 st27">olmo</text>
<text transform="matrix(0.866 0.5 -0.5 0.866 130.0809 267.0739)" class="st7 st6 st22">orti</text>
<text transform="matrix(0.8146 0.58 -0.58 0.8146 131.7036 256.0873)" class="st7 st6 st22">osteria</text>
<text transform="matrix(0.76 0.65 -0.65 0.76 132.4229 244.1275)" class="st7 st6 st22">padiglione</text>
<text transform="matrix(0.6919 0.7219 -0.7219 0.6919 142.5092 239.8096)" class="st7 st6 st26">palazzo</text>
<text transform="matrix(0.6181 0.7861 -0.7861 0.6181 151.6258 235.5036)" class="st7 st6 st22">parchi</text>
<text transform="matrix(0.541 0.841 -0.841 0.541 160.2504 230.9163)" class="st7 st6 st22">parco</text>
<text transform="matrix(0.4582 0.8889 -0.8889 0.4582 167.7363 225.4342)" class="st7 st6 st22">pesco</text>
<text transform="matrix(0.3717 0.9284 -0.9284 0.3717 176.0502 220.4175)" class="st7 st6 st22">piazza</text>
<text transform="matrix(0.2817 0.9595 -0.9595 0.2817 185.9957 219.8171)" class="st7 st6 st22">pino</text>
<text transform="matrix(0.19 0.9818 -0.9818 0.19 193.6762 212.3672)" class="st7 st6 st25">platano</text>
<text transform="matrix(9.497701e-02 0.9955 -0.9955 9.497701e-02 203.8993 214.2138)" class="st7 st6 st22">porto</text>
<text transform="matrix(6.123234e-17 -1 1 6.123234e-17 216.218 222.4367)" class="st7 st6 st22">prato</text>
<text transform="matrix(9.497701e-02 -0.9955 0.9955 9.497701e-02 224.4158 222.4355)" class="st7 st6 st22">prigione</text>
<text transform="matrix(0.19 -0.9818 0.9818 0.19 233.5106 223.8988)" class="st7 st6 st25">riva</text>
<text transform="matrix(0.2817 -0.9595 0.9595 0.2817 241.6911 227.3815)" class="st7 st6 st22">rovere</text>
<text transform="matrix(0.3717 -0.9284 0.9284 0.3717 249.9123 229.4796)" class="st7 st6 st22">sagrato</text>
<text transform="matrix(0.4582 -0.8889 0.8889 0.4582 257.5156 232.9179)" class="st7 st6 st22">salice</text>
<text transform="matrix(0.541 -0.841 0.841 0.541 264.1586 238.0641)" class="st7 st6 st22">spiaggia</text>
<text transform="matrix(0.6181 -0.7861 0.7861 0.6181 271.7516 243.1646)" class="st7 st6 st22">stanzetta</text>
<text transform="matrix(0.6919 -0.7219 0.7219 0.6919 277.6626 248.8007)" class="st7 st6 st26">strada</text>
<text transform="matrix(0.76 -0.65 0.65 0.76 283.7018 255.0273)" class="st7 st6 st22">susino</text>
<text transform="matrix(0.8146 -0.58 0.58 0.8146 287.8058 261.4941)" class="st9 st6 st22">villa d&apos;Ondariva</text>
<text transform="matrix(0.8146 -0.58 0.58 0.8146 325.3097 236.6283)" class="st7 st6 st22">giardino (D&apos;Ondariva)</text>
<text transform="matrix(0.866 -0.5 0.5 0.866 292.6439 267.6112)" class="st9 st6 st22">V</text>
<text transform="matrix(0.866 -0.5 0.5 0.866 294.712 266.4174)" class="st9 st6 st22">asca Grande</text>
<text transform="matrix(0.9099 -0.4149 0.4149 0.9099 296.7898 275.93)" class="st9 st6 st27">Quercia delle Cinque</text>
<text transform="matrix(0.9238 -0.3829 0.3829 0.9238 298.1298 278.7506)" class="st9 st6 st29">Passere</text>
<text transform="matrix(0.9707 -0.2402 0.2402 0.9707 301.9854 291.8042)" class="st9 st6 st28">Porta Capperi</text>
<text transform="matrix(0.9901 -0.14 0.14 0.9901 303.8929 300.9821)" class="st9 st6 st22">villa d&apos;Ombrosa</text>
<text transform="matrix(0.9901 -0.14 0.14 0.9901 342.3108 295.4086)" class="st7 st6 st22">giardino (villa)</text>
<text transform="matrix(0.9989 -4.762946e-02 4.762946e-02 0.9989 304.9759 308.5411)" class="st8 st6 st22">Cammino dell&apos;Artiglieria</text>
<path id="Path_148062_1_" d="M214.5,250.3c34.1,0,61.7,27.6,61.7,61.7s-27.6,61.7-61.7,61.7s-61.7-27.6-61.7-61.7l0,0
	C152.9,277.9,180.5,250.3,214.5,250.3 M214.5,250.1c-34.2,0-61.9,27.7-61.9,61.9s27.7,61.9,61.9,61.9s61.9-27.7,61.9-61.9l0,0
	C276.5,277.8,248.8,250.1,214.5,250.1z"/>
<ellipse id="Ellipse_33267_1_" class="st20" cx="155.4" cy="294.1" rx="0.7" ry="0.7"/>
<ellipse id="Ellipse_33258_1_" class="st21" cx="276.1" cy="315.7" rx="0.7" ry="0.7"/>
<ellipse id="Ellipse_33259_1_" class="st19" cx="275.5" cy="321.8" rx="0.7" ry="0.7"/>
<ellipse id="Ellipse_33261_1_" class="st19" cx="274.3" cy="327.9" rx="0.7" ry="0.7"/>
<ellipse id="Ellipse_33262_1_" class="st20" cx="268.9" cy="341.3" rx="0.7" ry="0.7"/>
</svg>
