<svg xmlns="http://www.w3.org/2000/svg" viewBox="0 0 532.42 179.11"><defs><style>.cls-1,.cls-3{fill:none;}.cls-1,.cls-3,.cls-4,.cls-5,.cls-6{stroke:#000;stroke-miterlimit:10;}.cls-1,.cls-4,.cls-5,.cls-6{stroke-width:0.38px;}.cls-2{opacity:0.8;}.cls-3{stroke-width:0.38px;stroke-dasharray:4.56 4.56;}.cls-4{fill:#fff;}.cls-5{fill:#c2faef;}.cls-6{fill:#bdf8ec;}.cls-7{isolation:isolate;font-size:12px;font-family:HKGrotesk-Light, HK Grotesk;font-weight:300;}.cls-8{letter-spacing:-0.01em;}.cls-9{letter-spacing:0em;}.cls-10{letter-spacing:0em;}.cls-11{letter-spacing:-0.01em;}.cls-12{letter-spacing:0em;}.cls-13{letter-spacing:-0.01em;}.cls-14{letter-spacing:0.02em;}</style></defs><title>infosheet-spazio-zoom1</title><g id="Layer_5" data-name="Layer 5"><line class="cls-1" x1="103.83" y1="87.86" x2="103.83" y2="62.59"/><path class="cls-1" d="M286.53,108.15V136.9a7.54,7.54,0,0,0,7.54,7.54h2.56"/><path class="cls-1" d="M320.34,112.8V61.51a4.89,4.89,0,0,0-4.9-4.89h0"/><path class="cls-1" d="M283.57,85.44H274A7.54,7.54,0,0,0,266.48,93v51.49"/><path class="cls-1" d="M283.07,102.91h0a5.38,5.38,0,0,0-5.38,5.39v47.61"/></g><g id="Layer_3" data-name="Layer 3"><g class="cls-2"><line class="cls-3" x1="-183.7" y1="99" x2="1464.16" y2="99"/></g></g><g id="new-circles"><circle id="circle" class="cls-4" cx="30.07" cy="107.88" r="4.08"/><circle id="circle-2" data-name="circle" class="cls-4" cx="30.07" cy="98.68" r="3.62"/><circle id="circle-3" data-name="circle" class="cls-4" cx="30.07" cy="89.95" r="3.6"/><circle id="circle-4" data-name="circle" class="cls-4" cx="66.78" cy="104.32" r="3.76"/><circle id="circle-5" data-name="circle" class="cls-4" cx="66.78" cy="95.08" r="3.97"/><circle id="circle-6" data-name="circle" class="cls-4" cx="103.48" cy="100.18" r="3.25"/><circle id="circle-7" data-name="circle" class="cls-4" cx="103.48" cy="108.35" r="3.42"/><circle id="Isabella_e_Fioravanti" data-name="Isabella e Fioravanti" class="cls-5" cx="103.48" cy="91.6" r="3.82"/><circle id="circle-8" data-name="circle" class="cls-4" cx="140.19" cy="104.06" r="3.66"/><circle id="circle-9" data-name="circle" class="cls-4" cx="140.19" cy="95.12" r="3.76"/><circle id="circle-10" data-name="circle" class="cls-4" cx="176.89" cy="99.61" r="3.63"/><circle id="circle-11" data-name="circle" class="cls-4" cx="176.89" cy="108.74" r="4"/><circle id="circle-12" data-name="circle" class="cls-4" cx="176.89" cy="90.41" r="4.07"/><circle id="circle-13" data-name="circle" class="cls-4" cx="213.6" cy="99.5" r="3.87"/><circle id="circle-14" data-name="circle" class="cls-4" cx="250.3" cy="103.82" r="3.69"/><circle id="circle-15" data-name="circle" class="cls-4" cx="250.3" cy="95.06" r="3.58"/><circle id="circle-16" data-name="circle" class="cls-4" cx="250.3" cy="112.64" r="3.64"/><circle id="circle-17" data-name="circle" class="cls-4" cx="250.3" cy="86.32" r="3.66"/><circle id="circle-18" data-name="circle" class="cls-4" cx="287.01" cy="93.93" r="3.55"/><circle id="La_storia_di_Kim-Ghi-U" data-name="La storia di Kim-Ghi-U" class="cls-6" cx="287.01" cy="102.91" r="3.94"/><circle id="Un_paese_disgraziato" data-name="Un paese disgraziato" class="cls-5" cx="287.01" cy="85.44" r="3.44"/><circle id="Il_generale_in_biblioteca" data-name="Il generale in biblioteca" class="cls-5" cx="287.01" cy="112.25" r="3.89"/><circle id="circle-19" data-name="circle" class="cls-4" cx="327.95" cy="95.66" r="3.9"/><circle id="circle-20" data-name="circle" class="cls-4" cx="319.9" cy="91.35" r="3.7"/><circle id="Libertà_Libertà_" data-name="Libertà! Libertà!" class="cls-6" cx="319.5" cy="116.46" r="3.34"/><circle id="I_mozzatori_di_nasi" data-name="I mozzatori di nasi" class="cls-5" cx="326.09" cy="76.77" r="3.29"/><circle id="circle-21" data-name="circle" class="cls-4" cx="326.74" cy="112.51" r="3.37"/><circle id="circle-22" data-name="circle" class="cls-4" cx="327.03" cy="104.33" r="3.3"/><circle id="Lo_jus_primae_noctis" data-name="Lo jus primae noctis" class="cls-5" cx="320.07" cy="82.59" r="3.57"/><circle id="circle-23" data-name="circle" class="cls-4" cx="326.58" cy="120.89" r="3.51"/><circle id="circle-24" data-name="circle" class="cls-4" cx="327.21" cy="86.99" r="3.3"/><circle id="circle-25" data-name="circle" class="cls-4" cx="320.28" cy="99.81" r="3.3"/><circle id="circle-26" data-name="circle" class="cls-4" cx="319.59" cy="108.11" r="3.52"/><circle id="circle-27" data-name="circle" class="cls-4" cx="442.05" cy="109.08" r="3.75"/><circle id="circle-28" data-name="circle" class="cls-4" cx="470.54" cy="108" r="3.69"/><circle id="circle-29" data-name="circle" class="cls-4" cx="470.54" cy="99.2" r="3.61"/><circle id="circle-30" data-name="circle" class="cls-4" cx="470.54" cy="90.57" r="3.51"/><g id="swarm-raccolta_romanzo" data-name="swarm-raccolta;romanzo"><g id="circles"><circle id="circle-31" data-name="circle" class="cls-4" cx="167.89" cy="99.69" r="4.48"/><circle id="circle-32" data-name="circle" class="cls-4" cx="236.74" cy="100.19" r="9.56"/><circle id="circle-33" data-name="circle" class="cls-4" cx="423.76" cy="94.02" r="18.47"/></g></g></g><g id="Layer_1" data-name="Layer 1"><g id="labels"><text class="cls-7" transform="translate(49.73 56.37)">I<tspan class="cls-8" x="3.47" y="0">s</tspan><tspan x="8.93" y="0">abella e </tspan><tspan class="cls-9" x="54.44" y="0">F</tspan><tspan class="cls-10" x="61.92" y="0">iora</tspan><tspan class="cls-9" x="82.75" y="0">v</tspan><tspan x="88.67" y="0">anti</tspan></text><text class="cls-7" transform="translate(142.19 144.69)">La s<tspan class="cls-11" x="21.64" y="0">t</tspan><tspan class="cls-12" x="25.39" y="0">oria di Kim-Ghi</tspan><tspan class="cls-9" x="108.14" y="0">-</tspan><tspan x="113.34" y="0">U</tspan></text><text class="cls-7" transform="translate(298.33 144.76)"><tspan class="cls-11">U</tspan><tspan x="8.32" y="0">n pae</tspan><tspan class="cls-11" x="38.09" y="0">s</tspan><tspan class="cls-12" x="43.61" y="0">e di</tspan><tspan class="cls-11" x="63.32" y="0">s</tspan><tspan class="cls-10" x="68.84" y="0">grazia</tspan><tspan class="cls-9" x="101.12" y="0">t</tspan><tspan x="104.88" y="0">o</tspan></text><text class="cls-7" transform="translate(208.58 167.12)">Il <tspan class="cls-13" x="9.92" y="0">g</tspan><tspan class="cls-12" x="15.95" y="0">enerale in bibli</tspan><tspan class="cls-9" x="95.17" y="0">ot</tspan><tspan x="105.73" y="0">e</tspan><tspan class="cls-11" x="112.09" y="0">c</tspan><tspan x="118.11" y="0">a</tspan></text><text class="cls-7" transform="translate(228.25 57.5)">Libe<tspan class="cls-14" x="22.78" y="0">r</tspan><tspan x="27.8" y="0">tà! Libe</tspan><tspan class="cls-14" x="67.83" y="0">r</tspan><tspan x="72.86" y="0">tà!</tspan></text><text class="cls-7" transform="translate(338.99 61.26)">I m<tspan class="cls-9" x="16.79" y="0">o</tspan><tspan x="23.59" y="0">zza</tspan><tspan class="cls-11" x="41.48" y="0">t</tspan><tspan class="cls-12" x="45.24" y="0">ori di nasi</tspan></text><text class="cls-7" transform="translate(265.21 25.79)"><tspan class="cls-11">L</tspan><tspan x="6.35" y="0">o jus primae noctis</tspan></text></g><line class="cls-1" x1="326.09" y1="73.48" x2="326.09" y2="30.36"/><path class="cls-1" d="M323.65,82.59h9.69a7.55,7.55,0,0,0,7.54-7.54V62.78"/></g></svg>