<?xml version="1.0" encoding="utf-8"?>
<!-- Generator: Adobe Illustrator 24.3.0, SVG Export Plug-In . SVG Version: 6.00 Build 0)  -->
<svg version="1.1" xmlns="http://www.w3.org/2000/svg" xmlns:xlink="http://www.w3.org/1999/xlink" x="0px" y="0px"
	 viewBox="0 0 385 370.2" style="enable-background:new 0 0 385 370.2;" xml:space="preserve">
<style type="text/css">
	.st0{fill:#FFA500;stroke:#FFA500;stroke-width:0.5;stroke-miterlimit:10;}
	.st1{fill:none;stroke:#FFA500;stroke-width:0.7;stroke-miterlimit:10;}
	.st2{fill:none;stroke:#FFA500;stroke-width:0.4891;stroke-miterlimit:10;}
	.st3{fill:#00C19C;stroke:#FFFFFF;stroke-width:0.3228;stroke-miterlimit:10;}
	.st4{fill:#FFA500;stroke:#FFFFFF;stroke-width:0.3228;stroke-miterlimit:10;}
	.st5{fill:#FF6C39;stroke:#FFFFFF;stroke-width:0.3228;stroke-miterlimit:10;}
	.st6{fill:#FFA500;}
	.st7{font-family:'HKGrotesk-Regular';}
	.st8{font-size:4px;}
	.st9{fill:#00C19C;}
	.st10{fill:#FF6C39;}
	.st11{fill:#404040;}
	.st12{font-family:'HKGrotesk-Bold';}
	.st13{font-size:10px;}
	.st14{fill:#1D1D1B;}
	.st15{font-family:'HKGrotesk-MediumItalic';}
	.st16{font-size:9px;}
</style>
<g id="Isolation_Mode">
	<path d="M232.7,208.1c26.8,0,48.6,21.8,48.6,48.6s-21.8,48.6-48.6,48.6s-48.6-21.8-48.6-48.6C184.1,229.8,205.8,208.1,232.7,208.1
		C232.7,208.1,232.7,208.1,232.7,208.1 M232.7,207.9c-26.9,0-48.8,21.8-48.8,48.8s21.8,48.8,48.8,48.8s48.8-21.8,48.8-48.8l0,0
		C281.4,229.7,259.6,207.9,232.7,207.9z"/>
</g>
<g id="Layer_1">
	<g>
		<g id="a_3_">
			<g transform="translate(-0.135 54.228)">
				<path class="st0" d="M319.2,208.5c-2.6,47.3-43,83.5-90.2,80.9s-83.5-43-80.9-90.2c2.6-47.3,43-83.5,90.2-80.9
					c43.7,2.4,78.6,37.3,80.9,80.9H319c-2.6-47.1-42.8-83.3-89.9-80.7s-83.3,42.8-80.7,89.9c2.6,47.1,42.8,83.3,89.9,80.7
					c43.6-2.4,78.3-37.1,80.7-80.7L319.2,208.5z"/>
				<line class="st1" x1="153.2" y1="203.8" x2="148.2" y2="203.8"/>
				<line class="st2" x1="354" y1="196.5" x2="359.8" y2="196.2"/>
				<ellipse class="st3" cx="319" cy="208.4" rx="0.6" ry="0.6"/>
				<ellipse class="st3" cx="318" cy="217.6" rx="0.6" ry="0.6"/>
				<ellipse class="st3" cx="316" cy="226.7" rx="0.6" ry="0.6"/>
				<ellipse class="st3" cx="313" cy="235.4" rx="0.6" ry="0.6"/>
				<ellipse class="st3" cx="309.2" cy="243.8" rx="0.6" ry="0.6"/>
				<ellipse class="st3" cx="304.4" cy="251.8" rx="0.6" ry="0.6"/>
				<ellipse class="st3" cx="298.8" cy="259.1" rx="0.6" ry="0.6"/>
				<ellipse class="st3" cx="292.4" cy="265.9" rx="0.6" ry="0.6"/>
				<ellipse class="st3" cx="285.4" cy="271.8" rx="0.6" ry="0.6"/>
				<ellipse class="st3" cx="277.7" cy="277" rx="0.6" ry="0.6"/>
				<ellipse class="st3" cx="269.5" cy="281.4" rx="0.6" ry="0.6"/>
				<ellipse class="st3" cx="261" cy="284.8" rx="0.6" ry="0.6"/>
				<ellipse class="st3" cx="252" cy="287.3" rx="0.6" ry="0.6"/>
				<ellipse class="st3" cx="242.9" cy="288.8" rx="0.6" ry="0.6"/>
				<ellipse class="st3" cx="233.7" cy="289.3" rx="0.6" ry="0.6"/>
				<ellipse class="st3" cx="224.4" cy="288.8" rx="0.6" ry="0.6"/>
				<ellipse class="st3" cx="215.3" cy="287.3" rx="0.6" ry="0.6"/>
				<ellipse class="st3" cx="206.4" cy="284.8" rx="0.6" ry="0.6"/>
				<ellipse class="st3" cx="197.8" cy="281.4" rx="0.6" ry="0.6"/>
				<ellipse class="st3" cx="189.6" cy="277" rx="0.6" ry="0.6"/>
				<ellipse class="st3" cx="182" cy="271.8" rx="0.6" ry="0.6"/>
				<ellipse class="st3" cx="174.9" cy="265.9" rx="0.6" ry="0.6"/>
				<ellipse class="st3" cx="168.5" cy="259.1" rx="0.6" ry="0.6"/>
				<ellipse class="st3" cx="162.9" cy="251.8" rx="0.6" ry="0.6"/>
				<ellipse class="st3" cx="158.2" cy="243.8" rx="0.6" ry="0.6"/>
				<ellipse class="st3" cx="154.3" cy="235.4" rx="0.6" ry="0.6"/>
				<ellipse class="st3" cx="151.3" cy="226.7" rx="0.6" ry="0.6"/>
				<ellipse class="st3" cx="149.3" cy="217.6" rx="0.6" ry="0.6"/>
				<ellipse class="st3" cx="148.3" cy="208.4" rx="0.6" ry="0.6"/>
				<ellipse class="st3" cx="148.3" cy="199.2" rx="0.6" ry="0.6"/>
				<ellipse class="st3" cx="149.3" cy="190" rx="0.6" ry="0.6"/>
				<ellipse class="st3" cx="151.3" cy="181" rx="0.6" ry="0.6"/>
				<ellipse class="st3" cx="154.3" cy="172.2" rx="0.6" ry="0.6"/>
				<ellipse class="st3" cx="158.2" cy="163.8" rx="0.6" ry="0.6"/>
				<ellipse class="st3" cx="162.9" cy="155.9" rx="0.6" ry="0.6"/>
				<ellipse class="st3" cx="168.5" cy="148.5" rx="0.6" ry="0.6"/>
				<ellipse class="st3" cx="174.9" cy="141.8" rx="0.6" ry="0.6"/>
				<ellipse class="st3" cx="182" cy="135.8" rx="0.6" ry="0.6"/>
				<ellipse class="st3" cx="189.6" cy="130.6" rx="0.6" ry="0.6"/>
				<ellipse class="st3" cx="197.8" cy="126.3" rx="0.6" ry="0.6"/>
				<ellipse class="st3" cx="206.4" cy="122.9" rx="0.6" ry="0.6"/>
				<ellipse class="st3" cx="215.3" cy="120.4" rx="0.6" ry="0.6"/>
				<ellipse class="st3" cx="224.4" cy="118.9" rx="0.6" ry="0.6"/>
				<ellipse class="st3" cx="233.7" cy="118.4" rx="0.6" ry="0.6"/>
				<ellipse class="st3" cx="242.9" cy="118.9" rx="0.6" ry="0.6"/>
				<ellipse class="st3" cx="252" cy="120.4" rx="0.6" ry="0.6"/>
				<ellipse class="st3" cx="261" cy="122.9" rx="0.6" ry="0.6"/>
				<ellipse class="st3" cx="269.5" cy="126.3" rx="0.6" ry="0.6"/>
				<ellipse class="st3" cx="277.7" cy="130.6" rx="0.6" ry="0.6"/>
				<ellipse class="st3" cx="285.4" cy="135.8" rx="0.6" ry="0.6"/>
				<ellipse class="st3" cx="292.4" cy="141.8" rx="0.6" ry="0.6"/>
				<ellipse class="st3" cx="298.8" cy="148.5" rx="0.6" ry="0.6"/>
				<ellipse class="st3" cx="304.4" cy="155.9" rx="0.6" ry="0.6"/>
				<ellipse class="st3" cx="309.2" cy="163.8" rx="0.6" ry="0.6"/>
				<ellipse class="st3" cx="313" cy="172.2" rx="0.6" ry="0.6"/>
				<ellipse class="st3" cx="316" cy="181" rx="0.6" ry="0.6"/>
				<ellipse class="st3" cx="318" cy="190" rx="0.6" ry="0.6"/>
				<ellipse class="st4" cx="319" cy="199.2" rx="0.6" ry="0.6"/>
				<ellipse class="st5" cx="360.6" cy="196.2" rx="0.6" ry="0.6"/>
				<g transform="translate(26.822 261.099)">
					<text transform="matrix(1 0 0 1 126.8244 -56.4121)" class="st6 st7 st8">Impero mongolo</text>
				</g>
				<g transform="translate(194.332 265.966)">
					<text transform="matrix(0.9985 5.407882e-02 -5.407882e-02 0.9985 127.0215 -56.6674)" class="st9 st7 st8">Adelma</text>
				</g>
				<g transform="translate(193.195 275.697)">
					<text transform="matrix(0.9868 0.1618 -0.1618 0.9868 127.4316 -56.2443)" class="st9 st7 st8">Aglaura</text>
				</g>
				<g transform="translate(191.013 285.293)">
					<text transform="matrix(0.9635 0.2676 -0.2676 0.9635 127.4042 -56.9212)" class="st9 st7 st8">Anastasia</text>
				</g>
				<g transform="translate(187.827 294.66)">
					<text transform="matrix(0.929 0.37 -0.37 0.929 127.4374 -57.1424)" class="st9 st7 st8">Andria</text>
				</g>
				<g transform="translate(183.661 303.672)">
					<text transform="matrix(0.8835 0.4684 -0.4684 0.8835 127.8851 -57.2671)" class="st9 st7 st8">Argia</text>
				</g>
				<g transform="translate(178.57 312.232)">
					<text transform="matrix(0.8277 0.5612 -0.5612 0.8277 127.4377 -57.7468)" class="st9 st7 st8">Armilla</text>
				</g>
				<g transform="translate(172.609 320.245)">
					<text transform="matrix(0.76 0.65 -0.65 0.76 127.409 -58.0811)" class="st9 st7 st8">Bauci</text>
				</g>
				<g transform="translate(165.854 327.606)">
					<text transform="matrix(0.6879 0.7258 -0.7258 0.6879 127.2171 -57.9007)" class="st9 st7 st8">Berenice</text>
				</g>
				<g transform="translate(158.378 334.226)">
					<text transform="matrix(0.6051 0.7961 -0.7961 0.6051 127.6467 -59.0806)" class="st9 st7 st8">Bersabea</text>
				</g>
				<g transform="translate(150.27 340.031)">
					<text transform="matrix(0.517 0.856 -0.856 0.517 127.4549 -59.0903)" class="st9 st7 st8">Cecilia</text>
				</g>
				<g transform="translate(141.629 344.977)">
					<text transform="matrix(0.4199 0.9076 -0.9076 0.4199 127.654 -59.1279)" class="st9 st7 st8">Clarice</text>
				</g>
				<g transform="translate(132.553 348.975)">
					<text transform="matrix(0.3189 0.9478 -0.9478 0.3189 128.4002 -59.8561)" class="st9 st7 st8">Cloe</text>
				</g>
				<g transform="translate(123.15 351.989)">
					<text transform="matrix(0.2149 0.9766 -0.9766 0.2149 128.5969 -60.8078)" class="st9 st7 st8">Despina</text>
				</g>
				<g transform="translate(113.522 353.974)">
					<text transform="matrix(0.1082 0.9941 -0.9941 0.1082 128.7422 -61.4243)" class="st9 st7 st8">Diomira</text>
				</g>
				<g transform="translate(103.793 354.926)">
					<text transform="matrix(6.123235e-17 1 -1 6.123235e-17 128.6408 -62.1362)" class="st9 st7 st8">Dorotea</text>
				</g>
				<g transform="translate(89.886 353.109)">
					<text transform="matrix(0.1082 -0.9941 0.9941 0.1082 134.5445 -50.2412)" class="st9 st7 st8">Ersilia</text>
				</g>
				<g transform="translate(78.494 349.299)">
					<text transform="matrix(0.2095 -0.9778 0.9778 0.2095 134.096 -44.0664)" class="st9 st7 st8">Eudossia</text>
				</g>
				<g transform="translate(68.177 347.501)">
					<text transform="matrix(0.3189 -0.9478 0.9478 0.3189 133.4664 -45.9771)" class="st9 st7 st8">Eufemia</text>
				</g>
				<g transform="translate(58.087 343.434)">
					<text transform="matrix(0.4199 -0.9076 0.9076 0.4199 133.9192 -46.8788)" class="st9 st7 st8">Eusapia</text>
				</g>
				<g transform="translate(48.363 338.174)">
					<text transform="matrix(0.517 -0.856 0.856 0.517 133.5991 -45.6236)" class="st9 st7 st8">Eutropia</text>
				</g>
				<g transform="translate(40.268 333.205)">
					<text transform="matrix(0.6051 -0.7961 0.7961 0.6051 133.5719 -48.4085)" class="st9 st7 st8">Fedora</text>
				</g>
				<g transform="translate(33.18 327.322)">
					<text transform="matrix(0.6869 -0.7267 0.7267 0.6869 133.6932 -50.9241)" class="st9 st7 st8">Fillide</text>
				</g>
				<g transform="translate(25.948 320.074)">
					<text transform="matrix(0.76 -0.65 0.65 0.76 133.5011 -51.701)" class="st9 st7 st8">Ipazia</text>
				</g>
				<g transform="translate(20.582 312.417)">
					<text transform="matrix(0.8277 -0.5612 0.5612 0.8277 133.6057 -53.2799)" class="st9 st7 st8">Irene</text>
				</g>
				<g transform="translate(14.277 303.306)">
					<text transform="matrix(0.8821 -0.4711 0.4711 0.8821 133.137 -52.3065)" class="st9 st7 st8">Isaura</text>
				</g>
				<g transform="translate(9.583 294.316)">
					<text transform="matrix(0.929 -0.37 0.37 0.929 132.2485 -52.6489)" class="st9 st7 st8">Isidora</text>
				</g>
				<g transform="translate(6.482 285.007)">
					<text transform="matrix(0.9626 -0.2708 0.2708 0.9626 132.0226 -53.5872)" class="st9 st7 st8">Lalage</text>
				</g>
				<g transform="translate(1.031 275.237)">
					<text transform="matrix(0.9868 -0.1618 0.1618 0.9868 129.0928 -53.1385)" class="st9 st7 st8">Laudomia</text>
				</g>
				<g transform="translate(2.091 265.886)">
					<text transform="matrix(0.9985 -5.407882e-02 5.407882e-02 0.9985 129.3671 -55.4894)" class="st9 st7 st8">Leandra</text>
				</g>
				<g transform="translate(3.985 255.65)">
					<text transform="matrix(0.9985 5.407882e-02 -5.407882e-02 0.9985 130.6263 -56.0677)" class="st9 st7 st8">Leonia</text>
				</g>
				<g transform="translate(3.666 244.621)">
					<text transform="matrix(0.9868 0.1618 -0.1618 0.9868 129.8973 -55.9699)" class="st9 st7 st8">Marozia</text>
				</g>
				<g transform="translate(6.094 233.954)">
					<text transform="matrix(0.9626 0.2708 -0.2708 0.9626 129.6496 -56.2634)" class="st9 st7 st8">Maurilia</text>
				</g>
				<g transform="translate(9.536 223.62)">
					<text transform="matrix(0.929 0.37 -0.37 0.929 129.6585 -56.3014)" class="st9 st7 st8">Melania</text>
				</g>
				<g transform="translate(13.843 213.65)">
					<text transform="matrix(0.8821 0.4711 -0.4711 0.8821 129.4715 -56.8265)" class="st9 st7 st8">Moriana</text>
				</g>
				<g transform="translate(21.031 205.419)">
					<text transform="matrix(0.8277 0.5612 -0.5612 0.8277 129.8807 -56.6757)" class="st9 st7 st8">Olinda</text>
				</g>
				<g transform="translate(28.305 197.676)">
					<text transform="matrix(0.76 0.65 -0.65 0.76 130.7461 -56.3169)" class="st9 st7 st8">Olivia</text>
				</g>
				<g transform="translate(34.465 188.9)">
					<text transform="matrix(0.6869 0.7267 -0.7267 0.6869 129.368 -56.7136)" class="st9 st7 st8">Ottavia</text>
				</g>
				<g transform="translate(40.404 179.035)">
					<text transform="matrix(0.6051 0.7961 -0.7961 0.6051 128.7868 -57.5284)" class="st9 st7 st8">Pentesilea</text>
				</g>
				<g transform="translate(51.182 175.343)">
					<text transform="matrix(0.517 0.856 -0.856 0.517 129.6432 -57.7032)" class="st9 st7 st8">Perinzia</text>
				</g>
				<g transform="translate(62.551 174.053)">
					<text transform="matrix(0.4199 0.9076 -0.9076 0.4199 129.7163 -57.2302)" class="st9 st7 st8">Pirra</text>
				</g>
				<g transform="translate(70.901 166.01)">
					<text transform="matrix(0.3189 0.9478 -0.9478 0.3189 128.4784 -59.9212)" class="st9 st7 st8">Procopia</text>
				</g>
				<g transform="translate(81.952 164.854)">
					<text transform="matrix(0.2095 0.9778 -0.9778 0.2095 128.703 -59.9257)" class="st9 st7 st8">Quinsai</text>
				</g>
				<g transform="translate(92.896 164.328)">
					<text transform="matrix(0.1082 0.9941 -0.9941 0.1082 129.0353 -59.2064)" class="st9 st7 st8">Raissa</text>
				</g>
				<g transform="translate(100.672 155.557)">
					<text transform="matrix(6.123235e-17 -1 1 6.123235e-17 134.1871 -40.1962)" class="st9 st7 st8">Smeraldina</text>
				</g>
				<g transform="translate(110.418 160.428)">
					<text transform="matrix(0.1082 -0.9941 0.9941 0.1082 133.959 -44.3372)" class="st9 st7 st8">Sofronia</text>
				</g>
				<g transform="translate(120.089 164.14)">
					<text transform="matrix(0.2095 -0.9778 0.9778 0.2095 133.8362 -47.5745)" class="st9 st7 st8">Tamara</text>
				</g>
				<g transform="translate(129.595 170.392)">
					<text transform="matrix(0.3189 -0.9478 0.9478 0.3189 133.0036 -51.5182)" class="st9 st7 st8">Tecla</text>
				</g>
				<g transform="translate(138.796 168.991)">
					<text transform="matrix(0.4199 -0.9076 0.9076 0.4199 133.0729 -44.8303)" class="st9 st7 st8">T</text>
					<text transform="matrix(0.4199 -0.9076 0.9076 0.4199 133.6903 -46.1646)" class="st9 st7 st8">eodora</text>
				</g>
				<g transform="translate(147.598 177.236)">
					<text transform="matrix(0.517 -0.856 0.856 0.517 132.5079 -48.8883)" class="st9 st7 st8">T</text>
					<text transform="matrix(0.517 -0.856 0.856 0.517 133.3739 -50.3222)" class="st9 st7 st8">rude</text>
				</g>
				<g transform="translate(155.893 179.241)">
					<text transform="matrix(0.6051 -0.7961 0.7961 0.6051 132.4927 -44.59)" class="st9 st7 st8">V</text>
					<text transform="matrix(0.6051 -0.7961 0.7961 0.6051 133.8842 -46.5073)" class="st9 st7 st8">aldrada</text>
				</g>
				<g transform="translate(163.585 190.786)">
					<text transform="matrix(0.6869 -0.7267 0.7267 0.6869 131.8006 -49.9756)" class="st9 st7 st8">Zaira</text>
				</g>
				<g transform="translate(170.58 193.664)">
					<text transform="matrix(0.76 -0.65 0.65 0.76 131.2522 -46.0871)" class="st9 st7 st8">Zemrude</text>
				</g>
				<g transform="translate(176.826 203.419)">
					<text transform="matrix(0.8277 -0.5612 0.5612 0.8277 131.1415 -49.0013)" class="st9 st7 st8">Zenobia</text>
				</g>
				<g transform="translate(182.196 214.653)">
					<text transform="matrix(0.8821 -0.4711 0.4711 0.8821 130.2104 -50.9977)" class="st9 st7 st8">Zirma</text>
				</g>
				<g transform="translate(186.672 222.885)">
					<text transform="matrix(0.929 -0.37 0.37 0.929 129.9736 -51.2098)" class="st9 st7 st8">Zobeide</text>
				</g>
				<g transform="translate(190.173 235.275)">
					<text transform="matrix(0.9626 -0.2708 0.2708 0.9626 129.4652 -54.6447)" class="st9 st7 st8">Zoe</text>
				</g>
				<g transform="translate(192.69 245.333)">
					<text transform="matrix(0.9868 -0.1618 0.1618 0.9868 129.1015 -54.6898)" class="st9 st7 st8">Zora</text>
				</g>
				<g transform="translate(194.164 254.504)">
					<text transform="matrix(0.9985 -5.407882e-02 5.407882e-02 0.9985 127.6273 -54.922)" class="st6 st7 st8">reggia di Kemenfù</text>
				</g>
				<g transform="translate(236.68 253.173)">
					<text transform="matrix(0.9985 -5.407882e-02 5.407882e-02 0.9985 126.1281 -55.8752)" class="st10 st7 st8">giardino</text>
				</g>
			</g>
		</g>
	</g>
	<g id="Group_4719" transform="translate(-19 -297)">
		<text transform="matrix(1 0 0 1 41.0593 306.4999)" class="st11 st12 st13">TIPO DI LUOGO</text>
		<text transform="matrix(1 0 0 1 70.9923 327.4999)" class="st7 st13">Terrestri </text>
		<text transform="matrix(1 0 0 1 70.9923 339.4999)" class="st7 st13">generici</text>
		<path id="Rectangle_13372" class="st10" d="M45,319.5h11c2.8,0,5,2.2,5,5l0,0c0,2.8-2.2,5-5,5H45c-2.8,0-5-2.2-5-5l0,0
			C40,321.7,42.2,319.5,45,319.5z"/>
		<path id="Rectangle_13373" class="st6" d="M45,359.5h11c2.8,0,5,2.2,5,5l0,0c0,2.8-2.2,5-5,5H45c-2.8,0-5-2.2-5-5l0,0
			C40,361.7,42.2,359.5,45,359.5z"/>
		<text transform="matrix(1 0 0 1 70.9923 367.4999)" class="st7 st13">Terrestri </text>
		<text transform="matrix(1 0 0 1 70.9923 379.4999)" class="st7 st13">localizzabili</text>
		<path id="Rectangle_20149" class="st9" d="M45,399.5h11c2.8,0,5,2.2,5,5l0,0c0,2.8-2.2,5-5,5H45c-2.8,0-5-2.2-5-5l0,0
			C40,401.7,42.2,399.5,45,399.5z"/>
		<text transform="matrix(1 0 0 1 70.9923 407.5779)" class="st7 st13">Terrestri </text>
		<text transform="matrix(1 0 0 1 70.9923 419.5779)" class="st7 st13">inventati</text>
	</g>
	<g id="Group_24059_1_" transform="translate(122 20)">
		<text transform="matrix(1 0 0 1 12.7894 119.8906)" class="st14 st15 st13">Livelli spaziali: luoghi contenuti in altri luoghi</text>
	</g>
	<path class="st6" d="M232.2,8c22.6,0,41,18.3,41,41s-18.3,41-41,41s-41-18.3-41-41c0,0,0,0,0,0C191.2,26.3,209.6,8,232.2,8
		 M232.2,2.5c-25.6,0-46.4,20.8-46.4,46.4s20.8,46.4,46.4,46.4s46.4-20.8,46.4-46.4S257.8,2.5,232.2,2.5z"/>
	<text transform="matrix(1 0 0 1 200.9912 51.4882)" class="st14 st7 st16">Le città invisibili</text>
	<text transform="matrix(1 0 0 1 200.9912 259.8096)" class="st14 st7 st16">Le città invisibili</text>
	<ellipse class="st4" cx="184.1" cy="258" rx="0.6" ry="0.6"/>
</g>
</svg>
