<?xml version="1.0" encoding="utf-8"?>
<!-- Generator: Adobe Illustrator 24.3.0, SVG Export Plug-In . SVG Version: 6.00 Build 0)  -->
<svg version="1.1" id="Layer_1" xmlns="http://www.w3.org/2000/svg" xmlns:xlink="http://www.w3.org/1999/xlink" x="0px" y="0px"
	 viewBox="0 0 695.8 25" style="enable-background:new 0 0 695.8 25;" xml:space="preserve">
<style type="text/css">
	.st0{fill:none;}
	.st1{fill:none;stroke:#000000;stroke-width:0.5;stroke-miterlimit:10;}
</style>
<g id="info">
	<rect x="3.3" y="8.5" class="st0" width="692.5" height="16"/>
	<line class="st1" x1="13.3" y1="24.5" x2="89.7" y2="24.5"/>
	<line class="st1" x1="186.7" y1="24.5" x2="331.9" y2="24.5"/>
	<line class="st1" x1="407.5" y1="24.5" x2="685.9" y2="24.5"/>
	<g>
		<path d="M516.1,16.3c0-1.7,0.8-3.2,2.8-3.2c1.1,0,2,0.5,2.5,1.7l-0.6,0.3c-0.3-1-1.1-1.3-1.9-1.3c-1.5,0-2.1,1.2-2.1,2.5
			c0,1.4,0.6,2.6,2.1,2.6c0.8,0,1.5-0.3,1.9-1.3l0.6,0.3c-0.5,1.1-1.3,1.7-2.5,1.7C517,19.5,516.1,18,516.1,16.3z"/>
		<path d="M523.2,16.3c0-1.7,0.9-3.2,2.8-3.2c1.9,0,2.8,1.5,2.8,3.2c0,1.7-0.9,3.2-2.8,3.2C524,19.5,523.2,18,523.2,16.3z
			 M528.1,16.3c0-1.3-0.6-2.5-2.1-2.5c-1.5,0-2.1,1.2-2.1,2.5c0,1.3,0.6,2.6,2.1,2.6C527.4,18.8,528.1,17.6,528.1,16.3z"/>
		<path d="M531.1,13.2h0.7v5.6h2.7v0.6h-3.4V13.2z"/>
		<path d="M536.6,13.2h0.7v5.6h2.7v0.6h-3.4V13.2z"/>
		<path d="M542,13.2h4v0.6h-3.3V16h2.9v0.6h-2.9v2.2h3.3v0.6h-4V13.2z"/>
		<path d="M547.9,16.3c0-1.7,0.8-3.2,2.8-3.2c1.1,0,2,0.5,2.5,1.7l-0.6,0.3c-0.3-1-1.1-1.3-1.9-1.3c-1.5,0-2.1,1.2-2.1,2.5
			c0,1.4,0.6,2.6,2.1,2.6c0.8,0,1.5-0.3,1.9-1.3l0.6,0.3c-0.5,1.1-1.3,1.7-2.5,1.7C548.8,19.5,547.9,18,547.9,16.3z"/>
		<path d="M556.8,13.8h-2.1v-0.6h4.9v0.6h-2.1v5.6h-0.7V13.8z"/>
		<path d="M561.7,13.2h0.7v6.2h-0.7V13.2z"/>
		<path d="M564.8,16.3c0-1.7,0.9-3.2,2.8-3.2c1.9,0,2.8,1.5,2.8,3.2c0,1.7-0.9,3.2-2.8,3.2C565.7,19.5,564.8,18,564.8,16.3z
			 M569.7,16.3c0-1.3-0.6-2.5-2.1-2.5c-1.5,0-2.1,1.2-2.1,2.5c0,1.3,0.6,2.6,2.1,2.6C569.1,18.8,569.7,17.6,569.7,16.3z"/>
		<path d="M572.8,13.2h1l2.7,5.5v-5.5h0.7v6.2h-1l-2.7-5.5v5.5h-0.7V13.2z"/>
	</g>
	<g>
		<path d="M239.5,17.8l0.7-0.2c0.1,0.8,0.8,1.2,1.5,1.2c0.7,0,1.3-0.4,1.3-1.1c0-1.6-3-1.2-3-3.1c0-1,0.8-1.6,1.7-1.6
			c0.7,0,1.3,0.3,1.7,1l-0.5,0.4c-0.3-0.5-0.7-0.7-1.2-0.7c-0.5,0-1,0.3-1,0.9c0,1.4,3,1.1,3,3.1c0,1.1-0.8,1.8-1.9,1.8
			C240.6,19.5,239.7,18.9,239.5,17.8z"/>
		<path d="M247.2,13.8h-2.1v-0.6h4.9v0.6h-2.1v5.6h-0.7V13.8z"/>
		<path d="M251.5,16.3c0-1.7,0.9-3.2,2.8-3.2c1.9,0,2.8,1.5,2.8,3.2c0,1.7-0.9,3.2-2.8,3.2C252.4,19.5,251.5,18,251.5,16.3z
			 M256.4,16.3c0-1.3-0.6-2.5-2.1-2.5c-1.5,0-2.1,1.2-2.1,2.5c0,1.3,0.6,2.6,2.1,2.6C255.8,18.8,256.4,17.6,256.4,16.3z"/>
		<path d="M259.5,13.2h1.8c1.1,0,2,0.6,2,1.7c0,0.8-0.5,1.4-1.3,1.6l1.7,2.9h-0.8l-1.6-2.8h-1v2.8h-0.7V13.2z M261.4,16
			c0.7,0,1.2-0.4,1.2-1.1c0-0.7-0.5-1.1-1.3-1.1h-1.1V16H261.4z"/>
		<path d="M265.7,13.2h0.7v6.2h-0.7V13.2z"/>
		<path d="M269.2,13.2h4v0.6h-3.3V16h2.9v0.6h-2.9v2.2h3.3v0.6h-4V13.2z"/>
		<path d="M275,17.8l0.7-0.2c0.1,0.8,0.8,1.2,1.5,1.2c0.7,0,1.3-0.4,1.3-1.1c0-1.6-3-1.2-3-3.1c0-1,0.8-1.6,1.7-1.6
			c0.7,0,1.3,0.3,1.7,1l-0.5,0.4c-0.3-0.5-0.7-0.7-1.2-0.7c-0.5,0-1,0.3-1,0.9c0,1.4,3,1.1,3,3.1c0,1.1-0.8,1.8-1.9,1.8
			C276.1,19.5,275.1,18.9,275,17.8z"/>
	</g>
	<g>
		<path d="M23.3,13.2H25c1.2,0,2,0.6,2,1.7c0,1.1-0.8,1.7-2,1.7h-1v2.8h-0.7V13.2z M25,16c0.8,0,1.3-0.4,1.3-1.1
			c0-0.7-0.5-1.1-1.3-1.1h-1V16H25z"/>
		<path d="M29.2,13.2h4v0.6h-3.3V16h2.9v0.6h-2.9v2.2h3.3v0.6h-4V13.2z"/>
		<path d="M35.6,13.2h1.8c1.1,0,2,0.6,2,1.7c0,0.8-0.5,1.4-1.3,1.6l1.7,2.9h-0.8l-1.6-2.8h-1v2.8h-0.7V13.2z M37.5,16
			c0.7,0,1.2-0.4,1.2-1.1c0-0.7-0.5-1.1-1.3-1.1h-1.1V16H37.5z"/>
		<path d="M41.8,13.2h0.7v6.2h-0.7V13.2z"/>
		<path d="M44.9,16.3c0-1.7,0.9-3.2,2.8-3.2c1.9,0,2.8,1.5,2.8,3.2c0,1.7-0.9,3.2-2.8,3.2C45.8,19.5,44.9,18,44.9,16.3z M49.8,16.3
			c0-1.3-0.6-2.5-2.1-2.5c-1.5,0-2.1,1.2-2.1,2.5c0,1.3,0.6,2.6,2.1,2.6C49.2,18.8,49.8,17.6,49.8,16.3z"/>
		<path d="M52.9,13.2h1.6c2,0,3.1,1.1,3.1,3.2c0,2-1.1,3.1-3.1,3.1h-1.6V13.2z M54.3,18.8c1.4,0,2.5-0.8,2.5-2.5
			c0-1.6-0.8-2.5-2.5-2.5h-0.9v4.9H54.3z"/>
		<path d="M59.9,13.2h0.7v6.2h-0.7V13.2z"/>
		<path d="M63,16.3c0-1.7,0.8-3.2,2.8-3.2c1.1,0,2,0.5,2.5,1.7L67.7,15c-0.3-1-1.1-1.3-1.9-1.3c-1.5,0-2.1,1.2-2.1,2.5
			c0,1.4,0.6,2.6,2.1,2.6c0.8,0,1.5-0.3,1.9-1.3l0.6,0.3c-0.5,1.1-1.3,1.7-2.5,1.7C63.9,19.5,63,18,63,16.3z"/>
		<path d="M72,13.2h0.5l2.3,6.2h-0.7L73.6,18h-2.7l-0.5,1.3h-0.8L72,13.2z M73.4,17.4l-1.1-3.2l-1.1,3.2H73.4z"/>
		<path d="M77,13.2h0.7v5.6h2.7v0.6H77V13.2z"/>
	</g>
</g>
</svg>
