<?xml version="1.0" encoding="utf-8"?>
<!-- Generator: Adobe Illustrator 25.0.0, SVG Export Plug-In . SVG Version: 6.00 Build 0)  -->
<svg version="1.1" id="Livello_1" xmlns="http://www.w3.org/2000/svg" xmlns:xlink="http://www.w3.org/1999/xlink" x="0px" y="0px"
	 viewBox="0 0 70.4 78.1" enable-background="new 0 0 70.4 78.1" xml:space="preserve">
<g id="Raggruppa_3998" transform="translate(-17)">
	<g id="dimensione">
		<g id="dimensione-X">
			<g id="Group-7">
				<g id="Group">
					<path id="Path" fill="none" stroke="#444444" stroke-width="0.5" d="M68.06799,59.257l-50.8,0.2"/>
					
						<rect id="Rectangle" x="67.76935" y="57.65741" transform="matrix(1 -0.003 0.003 1 -0.17773 0.20521)" fill="#444444" width="1" height="3.30002"/>
					
						<rect id="Rectangle-2" x="17.06922" y="57.85746" transform="matrix(1 -0.00311 0.00311 1 -0.18478 0.05487)" fill="#444444" width="1" height="3.30002"/>
				</g>
				<g id="Group-2">
					<path id="Path-2" fill="none" stroke="#444444" stroke-width="0.25" d="M68.56799,58.257v-1"/>
					<path id="Path-3" fill="none" stroke="#444444" stroke-width="0.25" stroke-dasharray="1.9,1.9" d="M68.56799,55.357v-21.9"/>
					<path id="Path-4" fill="none" stroke="#444444" stroke-width="0.25" d="M68.56799,32.557v-1"/>
				</g>
				<g id="Group-3">
					<path id="Path-5" fill="none" stroke="#444444" stroke-width="0.25" d="M17.26799,58.257v-1"/>
					<path id="Path-6" fill="none" stroke="#444444" stroke-width="0.25" stroke-dasharray="1.9,1.9" d="M17.26799,55.357v-21.8"/>
					<path id="Path-7" fill="none" stroke="#444444" stroke-width="0.25" d="M17.26799,32.557v-1"/>
				</g>
			</g>
		</g>
	</g>
	<g id="Ellipse_22">
		<circle id="Ellisse_32" fill="#FFFFFF" cx="43.06799" cy="26.057" r="26"/>
		
			<ellipse id="Ellisse_33" transform="matrix(0.49958 -0.86627 0.86627 0.49958 -1.02988 50.32714)" fill="none" stroke="#1A1A1A" stroke-width="0.5" stroke-miterlimit="3.99987" cx="43.04525" cy="26.05497" rx="25.79977" ry="25.79978"/>
	</g>
	<g id="Ellipse_23">
		<circle id="Ellisse_34" fill="#FFFFFF" cx="43.56799" cy="32.557" r="19.5"/>
		<circle id="Ellisse_35" fill="none" stroke="#1A1A1A" stroke-width="0.5" cx="43.56799" cy="32.557" r="19.2"/>
	</g>
	<g id="Ellipse_24">
		<circle id="Ellisse_36" fill="#FFFFFF" cx="43.06799" cy="41.057" r="11"/>
		<circle id="Ellisse_37" fill="none" stroke="#1A1A1A" stroke-width="0.5" cx="43.06799" cy="41.057" r="10.8"/>
	</g>
</g>
<g>
	<path d="M2.74805,69.15039h-2.4082v-0.66016h5.54688v0.66016H3.46777v6.30664H2.74805V69.15039z"/>
	<path d="M10.07715,73.17773h-3.6084c0.02051,1.08008,0.62012,1.72949,1.58887,1.72949c0.54004,0,0.96973-0.13965,1.41992-0.62012
		l0.47949,0.41992c-0.58008,0.60938-1.14941,0.83008-1.90918,0.83008c-1.49902,0-2.26855-1.12012-2.26855-2.51855
		c0-1.38965,0.75977-2.56934,2.18848-2.56934c1.50977,0,2.13867,1.17969,2.13867,2.29883
		C10.10645,72.88867,10.09668,73.05762,10.07715,73.17773z M6.46875,72.59863h2.97852c0-0.02051-0.00977-0.07031-0.00977-0.16016
		c-0.0498-0.7998-0.55957-1.40918-1.46973-1.40918C7.07812,71.0293,6.5293,71.72852,6.46875,72.59863z"/>
	<path d="M12.64844,72.98828l-1.79883-2.45898h0.83984l1.41895,1.97949l1.40918-1.97949h0.83984l-1.79883,2.45898l1.80859,2.46875
		h-0.84961l-1.40918-1.99902l-1.40918,1.99902h-0.84961L12.64844,72.98828z"/>
	<path d="M18.62793,75.40723c-0.25977,0.0791-0.51953,0.12988-0.74902,0.12988c-0.66016,0-1.13965-0.37012-1.13965-1.23926v-3.18848
		h-0.81934V70.5293h0.81934v-1.37891l0.68945-0.51953v1.89844h1.18945v0.58008h-1.18945v3.09766
		c0,0.48047,0.21973,0.7002,0.61035,0.7002c0.16992,0,0.35938-0.04004,0.5791-0.11035L18.62793,75.40723z"/>
	<path d="M22.62891,74.3877v-5.89746h0.69043v5.85742c0,0.33984,0.11914,0.55957,0.44922,0.55957
		c0.15039,0,0.32031-0.04004,0.46973-0.08984l0.00977,0.58984c-0.20996,0.06934-0.45898,0.12988-0.67969,0.12988
		C22.99902,75.53711,22.62891,75.15723,22.62891,74.3877z"/>
	<path d="M29.26758,73.17773h-3.6084c0.02051,1.08008,0.62012,1.72949,1.58887,1.72949c0.54004,0,0.96973-0.13965,1.41992-0.62012
		l0.47949,0.41992c-0.58008,0.60938-1.14941,0.83008-1.90918,0.83008c-1.49902,0-2.26855-1.12012-2.26855-2.51855
		c0-1.38965,0.75977-2.56934,2.18848-2.56934c1.50977,0,2.13867,1.17969,2.13867,2.29883
		C29.29688,72.88867,29.28711,73.05762,29.26758,73.17773z M25.65918,72.59863h2.97852c0-0.02051-0.00977-0.07031-0.00977-0.16016
		c-0.0498-0.7998-0.55957-1.40918-1.46973-1.40918C26.26855,71.0293,25.71973,71.72852,25.65918,72.59863z"/>
	<path d="M34.61621,72.43848v3.01855h-0.68945V72.6084c0-1.05957-0.33984-1.54883-1.0791-1.54883
		c-0.92969,0-1.46875,0.79883-1.46875,2.18848v2.20898h-0.69043V70.5293h0.69043v0.71973c0.31934-0.5,0.91895-0.7998,1.62891-0.7998
		C34.06738,70.44922,34.61621,71.12891,34.61621,72.43848z"/>
	<path d="M40.15625,76.2168c0,0.92871-0.86914,1.3584-2.1084,1.3584c-1.36914,0-2.19922-0.53906-2.19922-1.51855
		c0-0.10059,0.01074-0.16016,0.02051-0.21973l0.7998-0.67969c-0.37988-0.16992-0.63965-0.4502-0.63965-0.93945
		c0-0.40039,0.17969-0.7002,0.5293-0.93945c-0.25977-0.2998-0.41992-0.67969-0.41992-1.12012
		c0-0.99902,0.81934-1.70898,1.87891-1.70898c0.47949,0,0.91016,0.15039,1.22949,0.40039l0.67969-0.58984l0.35938,0.44922
		l-0.66895,0.56055c0.16992,0.26953,0.26953,0.5791,0.26953,0.92871c0,1.00977-0.81934,1.67969-1.85938,1.67969
		c-0.37891,0-0.72949-0.08984-1.01953-0.25c-0.19922,0.10938-0.31934,0.29004-0.31934,0.5c0,0.49902,0.62012,0.61914,1.3291,0.72949
		C38.99707,75.00684,40.15625,75.14648,40.15625,76.2168z M39.4668,76.27637c0-0.59961-0.7793-0.68945-1.59863-0.81934
		c-0.21973-0.03027-0.4502-0.07031-0.66016-0.12012l-0.66992,0.64941c-0.00977,0.0498-0.00977,0.07031-0.00977,0.08984
		c0,0.7002,0.70996,0.91992,1.5498,0.91992C38.94727,76.99609,39.4668,76.75586,39.4668,76.27637z M36.81836,72.17871
		c0,0.63965,0.45996,1.12891,1.19922,1.12891c0.74023,0,1.17969-0.47949,1.17969-1.12891c0-0.67969-0.45996-1.14941-1.16992-1.14941
		C37.32812,71.0293,36.81836,71.49902,36.81836,72.17871z"/>
	<path d="M43.57715,75.40723c-0.25977,0.0791-0.51953,0.12988-0.74902,0.12988c-0.66016,0-1.13965-0.37012-1.13965-1.23926v-3.18848
		h-0.81934V70.5293h0.81934v-1.37891l0.68945-0.51953v1.89844h1.18945v0.58008h-1.18945v3.09766
		c0,0.48047,0.21973,0.7002,0.61035,0.7002c0.16992,0,0.35938-0.04004,0.5791-0.11035L43.57715,75.40723z"/>
	<path d="M48.81641,72.43848v3.01855h-0.68945V72.6084c0-1.06934-0.33984-1.54883-1.0791-1.54883
		c-0.93945,0-1.46973,0.76953-1.46973,2.12891v2.26855h-0.68945v-6.9668h0.68945v2.75879c0.32031-0.5,0.91992-0.7998,1.62988-0.7998
		C48.26758,70.44922,48.81641,71.12891,48.81641,72.43848z"/>
</g>
</svg>
