<?xml version="1.0" encoding="utf-8"?>
<!-- Generator: Adobe Illustrator 25.0.0, SVG Export Plug-In . SVG Version: 6.00 Build 0)  -->
<svg version="1.1" id="Livello_1" xmlns="http://www.w3.org/2000/svg" xmlns:xlink="http://www.w3.org/1999/xlink" x="0px" y="0px"
	 viewBox="0 0 145 192" enable-background="new 0 0 145 192" xml:space="preserve">
<rect x="0.39999" y="113.96399" fill="none" width="144.30002" height="77.80002"/>
<g enable-background="new    ">
	<path d="M3.11426,116.10059H0.70557v-0.65918h5.54688v0.65918H3.83398v6.30664H3.11426V116.10059z"/>
	<path d="M10.44287,120.12891H6.83496c0.02002,1.0791,0.61963,1.72852,1.58936,1.72852c0.53955,0,0.96924-0.13965,1.41895-0.61914
		l0.47998,0.41895c-0.57959,0.61035-1.14941,0.83008-1.90918,0.83008c-1.49902,0-2.26855-1.11914-2.26855-2.51855
		c0-1.38965,0.75977-2.56836,2.18896-2.56836c1.50879,0,2.13867,1.17871,2.13867,2.29785
		C10.47314,119.83887,10.46289,120.00879,10.44287,120.12891z M6.83496,119.54883h2.97852
		c0-0.02051-0.01025-0.07031-0.01025-0.16016c-0.0498-0.7998-0.55957-1.40918-1.46875-1.40918
		C7.44482,117.97949,6.89502,118.67969,6.83496,119.54883z"/>
	<path d="M11.33545,121.19824l0.57959-0.25977c0.17969,0.50977,0.65967,0.93945,1.4292,0.93945
		c0.66943,0,1.09961-0.33008,1.09961-0.84961c0-1.30957-2.83887-0.49023-2.83887-2.23926c0-0.85938,0.69971-1.38867,1.68945-1.38867
		c0.78955,0,1.4292,0.3291,1.76904,1.0293l-0.5498,0.2998c-0.23975-0.44043-0.62988-0.71973-1.23926-0.71973
		c-0.60986,0-0.99951,0.25-0.99951,0.67969c0,1.16895,2.84814,0.42969,2.84814,2.29883c0,0.99902-0.81934,1.49902-1.76904,1.49902
		C12.38477,122.4873,11.59521,121.9873,11.33545,121.19824z"/>
	<path d="M18.57422,122.35742c-0.25977,0.08008-0.52002,0.12988-0.74951,0.12988c-0.65967,0-1.13965-0.37012-1.13965-1.23926
		v-3.18848h-0.81934v-0.58008h0.81934v-1.37891l0.68945-0.51953v1.89844h1.18945v0.58008h-1.18945v3.09863
		c0,0.47949,0.22021,0.69922,0.60986,0.69922c0.16992,0,0.35986-0.04004,0.57959-0.10938L18.57422,122.35742z"/>
	<path d="M19.8252,115.44141h0.79932v1.01953H19.8252V115.44141z M19.88525,117.47949h0.68945v4.92773h-0.68945V117.47949z"/>
	<path d="M29.24268,115.44141v6.96582h-0.68994v-0.65918c-0.35938,0.45898-0.90918,0.73926-1.62891,0.73926
		c-1.43896,0-2.18896-1.0791-2.18896-2.54883c0-1.53906,0.81982-2.54883,2.18896-2.54883c0.69971,0,1.25928,0.27051,1.62891,0.75
		v-2.69824H29.24268z M28.61279,119.93848c0-1.16895-0.59961-1.93848-1.58887-1.93848c-0.99951,0-1.59912,0.76953-1.59912,1.93848
		c0,1.11914,0.54932,1.93945,1.59912,1.93945C28.06299,121.87793,28.61279,121.05762,28.61279,119.93848z"/>
	<path d="M31.00488,115.44141h0.79932v1.01953h-0.79932V115.44141z M31.06494,117.47949h0.68945v4.92773h-0.68945V117.47949z"/>
	<path d="M33.04492,121.19824l0.57959-0.25977c0.17969,0.50977,0.65967,0.93945,1.4292,0.93945
		c0.66943,0,1.09961-0.33008,1.09961-0.84961c0-1.30957-2.83887-0.49023-2.83887-2.23926c0-0.85938,0.69971-1.38867,1.68945-1.38867
		c0.78955,0,1.4292,0.3291,1.76904,1.0293l-0.5498,0.2998c-0.23975-0.44043-0.62988-0.71973-1.23926-0.71973
		c-0.60986,0-0.99951,0.25-0.99951,0.67969c0,1.16895,2.84814,0.42969,2.84814,2.29883c0,0.99902-0.81934,1.49902-1.76855,1.49902
		C34.09424,122.4873,33.30469,121.9873,33.04492,121.19824z"/>
	<path d="M42.74219,119.93848c0,1.46973-0.74951,2.54883-2.18896,2.54883c-0.71924,0-1.26904-0.28027-1.62891-0.73926v2.69824
		h-0.68945v-6.9668h0.68945v0.66016c0.36963-0.47949,0.92969-0.75,1.62891-0.75
		C41.92285,117.38965,42.74219,118.39941,42.74219,119.93848z M42.05273,119.93848c0-1.16895-0.59961-1.93848-1.59912-1.93848
		c-0.98975,0-1.58936,0.76953-1.58936,1.93848c0,1.11914,0.5498,1.93945,1.58936,1.93945
		C41.50293,121.87793,42.05273,121.05762,42.05273,119.93848z"/>
	<path d="M43.74463,119.93848c0-1.45898,0.94971-2.53809,2.35889-2.53809c1.39941,0,2.36865,1.0791,2.36865,2.53809
		c0,1.44922-0.95947,2.54883-2.36865,2.54883S43.74463,121.39746,43.74463,119.93848z M47.78271,119.93848
		c0-1.11914-0.62988-1.92871-1.6792-1.92871c-1.05957,0-1.66895,0.81934-1.66895,1.92871c0,1.11914,0.61963,1.93945,1.66895,1.93945
		C47.16309,121.87793,47.78271,121.03809,47.78271,119.93848z"/>
	<path d="M49.33496,121.19824l0.57959-0.25977c0.17969,0.50977,0.65967,0.93945,1.4292,0.93945
		c0.66943,0,1.09961-0.33008,1.09961-0.84961c0-1.30957-2.83887-0.49023-2.83887-2.23926c0-0.85938,0.69971-1.38867,1.68945-1.38867
		c0.78955,0,1.4292,0.3291,1.76904,1.0293l-0.5498,0.2998c-0.23975-0.44043-0.62988-0.71973-1.23926-0.71973
		c-0.60986,0-0.99951,0.25-0.99951,0.67969c0,1.16895,2.84814,0.42969,2.84814,2.29883c0,0.99902-0.81934,1.49902-1.76855,1.49902
		C50.38428,122.4873,49.59473,121.9873,49.33496,121.19824z"/>
	<path d="M56.57324,122.35742c-0.25977,0.08008-0.52002,0.12988-0.74951,0.12988c-0.65967,0-1.13965-0.37012-1.13965-1.23926
		v-3.18848h-0.81934v-0.58008h0.81934v-1.37891l0.68945-0.51953v1.89844h1.18945v0.58008h-1.18945v3.09863
		c0,0.47949,0.22021,0.69922,0.60986,0.69922c0.16992,0,0.35986-0.04004,0.57959-0.10938L56.57324,122.35742z"/>
	<path d="M57.82422,115.44141h0.79932v1.01953h-0.79932V115.44141z M57.88428,117.47949h0.68945v4.92773h-0.68945V117.47949z"/>
	<path d="M62.59473,121.19824l0.57959-0.25977c0.17969,0.50977,0.65967,0.93945,1.4292,0.93945
		c0.66943,0,1.09961-0.33008,1.09961-0.84961c0-1.30957-2.83887-0.49023-2.83887-2.23926c0-0.85938,0.69971-1.38867,1.68945-1.38867
		c0.78955,0,1.4292,0.3291,1.76904,1.0293l-0.5498,0.2998c-0.23975-0.44043-0.62988-0.71973-1.23926-0.71973
		c-0.60986,0-0.99951,0.25-0.99951,0.67969c0,1.16895,2.84814,0.42969,2.84814,2.29883c0,0.99902-0.81934,1.49902-1.76855,1.49902
		C63.64404,122.4873,62.85449,121.9873,62.59473,121.19824z"/>
	<path d="M71.63184,120.12891h-3.60791c0.02002,1.0791,0.61963,1.72852,1.58936,1.72852c0.53955,0,0.96924-0.13965,1.41895-0.61914
		l0.47998,0.41895c-0.57959,0.61035-1.14941,0.83008-1.90918,0.83008c-1.49902,0-2.26855-1.11914-2.26855-2.51855
		c0-1.38965,0.75977-2.56836,2.18896-2.56836c1.50879,0,2.13867,1.17871,2.13867,2.29785
		C71.66211,119.83887,71.65186,120.00879,71.63184,120.12891z M68.02393,119.54883h2.97852
		c0-0.02051-0.01025-0.07031-0.01025-0.16016c-0.0498-0.7998-0.55957-1.40918-1.46875-1.40918
		C68.63379,117.97949,68.08398,118.67969,68.02393,119.54883z"/>
	<path d="M72.64404,119.95898c0-1.2998,0.72998-2.55859,2.21924-2.55859c0.87988,0,1.60938,0.43945,1.99902,1.3584l-0.66016,0.26074
		c-0.22949-0.62988-0.71875-1.00977-1.33887-1.00977c-1.0498,0-1.51953,0.93945-1.51953,1.94922
		c0,1.00879,0.46973,1.91895,1.5293,1.91895c0.62012,0,1.10938-0.37012,1.2998-1l0.63965,0.24023
		c-0.33008,0.89941-1.0498,1.36914-1.93945,1.36914C73.44434,122.4873,72.64404,121.32812,72.64404,119.95898z"/>
	<path d="M77.65527,119.93848c0-1.45898,0.94922-2.53809,2.3584-2.53809c1.39941,0,2.36816,1.0791,2.36816,2.53809
		c0,1.44922-0.95898,2.54883-2.36816,2.54883S77.65527,121.39746,77.65527,119.93848z M81.69238,119.93848
		c0-1.11914-0.62988-1.92871-1.67871-1.92871c-1.05957,0-1.66895,0.81934-1.66895,1.92871
		c0,1.11914,0.61914,1.93945,1.66895,1.93945C81.07324,121.87793,81.69238,121.03809,81.69238,119.93848z"/>
	<path d="M87.70215,119.38867v3.01855H87.0127v-2.84863c0-1.05957-0.33984-1.54883-1.0791-1.54883
		c-0.92969,0-1.46973,0.7998-1.46973,2.18848v2.20898h-0.68945v-4.92773h0.68945v0.71973
		c0.32031-0.49902,0.91992-0.79883,1.62891-0.79883C87.15234,117.40039,87.70215,118.08008,87.70215,119.38867z"/>
	<path d="M93.52246,115.44141v6.96582h-0.69043v-0.65918c-0.35938,0.45898-0.90918,0.73926-1.62891,0.73926
		c-1.43848,0-2.18848-1.0791-2.18848-2.54883c0-1.53906,0.81934-2.54883,2.18848-2.54883c0.7002,0,1.25977,0.27051,1.62891,0.75
		v-2.69824H93.52246z M92.89258,119.93848c0-1.16895-0.59961-1.93848-1.58887-1.93848c-1,0-1.59961,0.76953-1.59961,1.93848
		c0,1.11914,0.5498,1.93945,1.59961,1.93945C92.34277,121.87793,92.89258,121.05762,92.89258,119.93848z"/>
	<path d="M94.91406,119.93848c0-1.45898,0.94922-2.53809,2.3584-2.53809c1.39941,0,2.36914,1.0791,2.36914,2.53809
		c0,1.44922-0.95996,2.54883-2.36914,2.54883S94.91406,121.39746,94.91406,119.93848z M98.95215,119.93848
		c0-1.11914-0.62988-1.92871-1.67969-1.92871c-1.05957,0-1.66895,0.81934-1.66895,1.92871
		c0,1.11914,0.62012,1.93945,1.66895,1.93945C98.33203,121.87793,98.95215,121.03809,98.95215,119.93848z"/>
	<path d="M107.88184,115.44141v6.96582h-0.69043v-0.65918c-0.35938,0.45898-0.90918,0.73926-1.62891,0.73926
		c-1.43848,0-2.18848-1.0791-2.18848-2.54883c0-1.53906,0.81934-2.54883,2.18848-2.54883c0.7002,0,1.25977,0.27051,1.62891,0.75
		v-2.69824H107.88184z M107.25195,119.93848c0-1.16895-0.59961-1.93848-1.58887-1.93848c-1,0-1.59961,0.76953-1.59961,1.93848
		c0,1.11914,0.5498,1.93945,1.59961,1.93945C106.70215,121.87793,107.25195,121.05762,107.25195,119.93848z"/>
	<path d="M113.37207,119.33887v3.06836h-0.62988l-0.04004-0.75977c-0.38965,0.5498-0.98926,0.83984-1.76953,0.83984
		c-1.06934,0-1.69824-0.55957-1.69824-1.50977c0-0.49902,0.19922-0.87891,0.55957-1.09863
		c0.37988-0.21973,0.90918-0.31055,1.87891-0.31055h1.00879v-0.22949c0-0.85938-0.44922-1.3291-1.2793-1.3291
		c-0.61914,0-1.09863,0.26953-1.49902,0.81934l-0.49902-0.41992c0.5293-0.68945,1.16895-1.00879,2.00879-1.00879
		C112.65234,117.40039,113.37207,118.10938,113.37207,119.33887z M112.68164,120.19824v-0.06934h-0.94922
		c-0.90918,0-1.29883,0.05957-1.53906,0.24902c-0.17969,0.14062-0.26953,0.36035-0.26953,0.63965
		c0,0.5498,0.46973,0.90039,1.20898,0.90039C112.08203,121.91797,112.68164,121.24805,112.68164,120.19824z"/>
	<path d="M117.10254,122.35742c-0.25977,0.08008-0.51953,0.12988-0.74902,0.12988c-0.66016,0-1.13965-0.37012-1.13965-1.23926
		v-3.18848h-0.81934v-0.58008h0.81934v-1.37891l0.68945-0.51953v1.89844h1.18945v0.58008h-1.18945v3.09863
		c0,0.47949,0.21973,0.69922,0.60938,0.69922c0.16992,0,0.36035-0.04004,0.58008-0.10938L117.10254,122.35742z"/>
	<path d="M122.08203,119.33887v3.06836h-0.62988l-0.04004-0.75977c-0.38965,0.5498-0.98926,0.83984-1.76953,0.83984
		c-1.06934,0-1.69824-0.55957-1.69824-1.50977c0-0.49902,0.19922-0.87891,0.55957-1.09863
		c0.37988-0.21973,0.90918-0.31055,1.87891-0.31055h1.00879v-0.22949c0-0.85938-0.44922-1.3291-1.2793-1.3291
		c-0.61914,0-1.09863,0.26953-1.49902,0.81934l-0.49902-0.41992c0.5293-0.68945,1.16895-1.00879,2.00879-1.00879
		C121.3623,117.40039,122.08203,118.10938,122.08203,119.33887z M121.3916,120.19824v-0.06934h-0.94922
		c-0.90918,0-1.29883,0.05957-1.53906,0.24902c-0.17969,0.14062-0.26953,0.36035-0.26953,0.63965
		c0,0.5498,0.46973,0.90039,1.20898,0.90039C120.79199,121.91797,121.3916,121.24805,121.3916,120.19824z"/>
	<path d="M130.61133,115.44141v6.96582h-0.68945v-0.65918c-0.35938,0.45898-0.90918,0.73926-1.62891,0.73926
		c-1.43945,0-2.18945-1.0791-2.18945-2.54883c0-1.53906,0.82031-2.54883,2.18945-2.54883c0.69922,0,1.25879,0.27051,1.62891,0.75
		v-2.69824H130.61133z M129.98145,119.93848c0-1.16895-0.59961-1.93848-1.58887-1.93848c-0.99902,0-1.59863,0.76953-1.59863,1.93848
		c0,1.11914,0.5498,1.93945,1.59863,1.93945C129.43164,121.87793,129.98145,121.05762,129.98145,119.93848z"/>
	<path d="M132.37402,115.44141h0.79883v1.01953h-0.79883V115.44141z M132.43359,117.47949h0.68945v4.92773h-0.68945V117.47949z"/>
</g>
<g enable-background="new    ">
	<path d="M5.78271,131.93848c0,1.46973-0.74951,2.54883-2.18896,2.54883c-0.71924,0-1.26904-0.28027-1.62891-0.73926v2.69824
		H1.27539v-6.9668h0.68945v0.66016c0.36963-0.47949,0.92969-0.75,1.62891-0.75
		C4.96338,129.38965,5.78271,130.39941,5.78271,131.93848z M5.09326,131.93848c0-1.16895-0.59961-1.93848-1.59912-1.93848
		c-0.98975,0-1.58936,0.76953-1.58936,1.93848c0,1.11914,0.5498,1.93945,1.58936,1.93945
		C4.54346,133.87793,5.09326,133.05762,5.09326,131.93848z"/>
	<path d="M10.21338,129.61035l-0.33984,0.55957c-0.22949-0.10059-0.43945-0.15039-0.64941-0.15039
		c-0.75977,0-1.31934,0.56934-1.31934,1.63965v2.74805H7.21533v-4.92773h0.68945v0.74023
		c0.35986-0.64941,0.95947-0.81934,1.45898-0.81934C9.66357,129.40039,9.94385,129.45996,10.21338,129.61035z"/>
	<path d="M11.17529,127.44141h0.79932v1.01953h-0.79932V127.44141z M11.23535,129.47949h0.68945v4.92773h-0.68945V129.47949z"/>
	<path d="M20.50146,131.3291v3.07812h-0.68994v-2.88867c0-0.41992,0-1.50879-1.0791-1.50879
		c-0.99951,0-1.26953,0.91895-1.26953,2.02832v2.36914h-0.68945v-2.84863c0-0.81934-0.25-1.54883-1.10938-1.54883
		c-0.95947,0-1.22949,0.90918-1.22949,2.02832v2.36914h-0.68945l-0.01025-4.92773h0.66992v0.60059
		c0.30957-0.49023,0.80957-0.67969,1.35889-0.67969c0.68994,0,1.19971,0.2998,1.44922,0.94922
		c0.31982-0.62988,0.86963-0.94922,1.61914-0.94922C20.01172,129.40039,20.50146,130.17969,20.50146,131.3291z"/>
	<path d="M25.87305,131.33887v3.06836h-0.62988l-0.04004-0.75977c-0.38965,0.5498-0.98926,0.83984-1.76904,0.83984
		c-1.06934,0-1.69873-0.55957-1.69873-1.50977c0-0.49902,0.19971-0.87891,0.55957-1.09863
		c0.37988-0.21973,0.90967-0.31055,1.87891-0.31055h1.00928v-0.22949c0-0.85938-0.44971-1.3291-1.2793-1.3291
		c-0.61963,0-1.09912,0.26953-1.49902,0.81934l-0.49951-0.41992c0.5293-0.68945,1.16895-1.00879,2.00879-1.00879
		C25.15332,129.40039,25.87305,130.10938,25.87305,131.33887z M25.18311,132.19824v-0.06934h-0.94922
		c-0.90967,0-1.29932,0.05957-1.53906,0.24902c-0.18018,0.14062-0.27002,0.36035-0.27002,0.63965
		c0,0.5498,0.46973,0.90039,1.20947,0.90039C24.5835,133.91797,25.18311,133.24805,25.18311,132.19824z"/>
	<path d="M34.79248,131.93848c0,1.46973-0.74951,2.54883-2.18896,2.54883c-0.71924,0-1.26904-0.28027-1.62891-0.73926v2.69824
		h-0.68945v-6.9668h0.68945v0.66016c0.36963-0.47949,0.92969-0.75,1.62891-0.75
		C33.97314,129.38965,34.79248,130.39941,34.79248,131.93848z M34.10303,131.93848c0-1.16895-0.59961-1.93848-1.59912-1.93848
		c-0.98975,0-1.58936,0.76953-1.58936,1.93848c0,1.11914,0.5498,1.93945,1.58936,1.93945
		C33.55322,133.87793,34.10303,133.05762,34.10303,131.93848z"/>
	<path d="M39.98242,129.47949v4.92773h-0.68945v-0.70996c-0.3501,0.53027-0.97949,0.79004-1.62939,0.79004
		c-1.11914,0-1.60889-0.76953-1.60889-1.98926v-3.01855h0.68945v2.84863c0,0.7998,0.14014,1.5498,1.07959,1.5498
		c0.97949,0,1.46924-0.84961,1.46924-2.12891v-2.26953H39.98242z"/>
	<path d="M46.31201,131.93848c0,1.46973-0.74951,2.54883-2.18896,2.54883c-0.71924,0-1.26904-0.28027-1.62891-0.73926v0.65918
		h-0.68945v-6.96582h0.68945v2.69824c0.36963-0.47949,0.92969-0.75,1.62891-0.75
		C45.49268,129.38965,46.31201,130.39941,46.31201,131.93848z M45.62256,131.93848c0-1.16895-0.59961-1.93848-1.59912-1.93848
		c-0.98975,0-1.58936,0.76953-1.58936,1.93848c0,1.11914,0.5498,1.93945,1.58936,1.93945
		C45.07275,133.87793,45.62256,133.05762,45.62256,131.93848z"/>
	<path d="M52.25195,131.93848c0,1.46973-0.74951,2.54883-2.18896,2.54883c-0.71924,0-1.26904-0.28027-1.62891-0.73926v0.65918
		h-0.68945v-6.96582h0.68945v2.69824c0.36963-0.47949,0.92969-0.75,1.62891-0.75
		C51.43262,129.38965,52.25195,130.39941,52.25195,131.93848z M51.5625,131.93848c0-1.16895-0.59961-1.93848-1.59912-1.93848
		c-0.98975,0-1.58936,0.76953-1.58936,1.93848c0,1.11914,0.5498,1.93945,1.58936,1.93945
		C51.0127,133.87793,51.5625,133.05762,51.5625,131.93848z"/>
	<path d="M53.64453,133.33789v-5.89648h0.68945v5.85645c0,0.33984,0.12012,0.55957,0.44971,0.55957
		c0.1499,0,0.31982-0.04004,0.46973-0.08984l0.01025,0.58984c-0.20996,0.06934-0.45996,0.12988-0.67969,0.12988
		C54.01416,134.4873,53.64453,134.10742,53.64453,133.33789z"/>
	<path d="M56.32471,127.44141h0.79932v1.01953h-0.79932V127.44141z M56.38477,129.47949h0.68945v4.92773h-0.68945V129.47949z"/>
	<path d="M58.48438,131.95898c0-1.2998,0.72998-2.55859,2.21924-2.55859c0.87939,0,1.60889,0.43945,1.99854,1.3584l-0.65967,0.26074
		c-0.22949-0.62988-0.71924-1.00977-1.33887-1.00977c-1.0498,0-1.51953,0.93945-1.51953,1.94922
		c0,1.00879,0.46973,1.91895,1.5293,1.91895c0.61963,0,1.10938-0.37012,1.29932-1l0.63965,0.24023
		c-0.33008,0.89941-1.04932,1.36914-1.93896,1.36914C59.28418,134.4873,58.48438,133.32812,58.48438,131.95898z"/>
	<path d="M67.59277,131.33887v3.06836h-0.62988l-0.04004-0.75977c-0.38965,0.5498-0.98926,0.83984-1.76904,0.83984
		c-1.06934,0-1.69873-0.55957-1.69873-1.50977c0-0.49902,0.19971-0.87891,0.55957-1.09863
		c0.37988-0.21973,0.90967-0.31055,1.87891-0.31055h1.00928v-0.22949c0-0.85938-0.44971-1.3291-1.2793-1.3291
		c-0.61963,0-1.09912,0.26953-1.49902,0.81934l-0.49951-0.41992c0.5293-0.68945,1.16895-1.00879,2.00879-1.00879
		C66.87305,129.40039,67.59277,130.10938,67.59277,131.33887z M66.90283,132.19824v-0.06934h-0.94922
		c-0.90967,0-1.29932,0.05957-1.53906,0.24902c-0.18018,0.14062-0.27002,0.36035-0.27002,0.63965
		c0,0.5498,0.46973,0.90039,1.20947,0.90039C66.30322,133.91797,66.90283,133.24805,66.90283,132.19824z"/>
	<path d="M72.83252,130.0293l-3.2085,3.78809h3.18848v0.58984h-4.09814v-0.5l3.27832-3.83789h-3.1084v-0.58984h3.94824V130.0293z"/>
	<path d="M74.08496,127.44141h0.79883v1.01953h-0.79883V127.44141z M74.14453,129.47949h0.68945v4.92773h-0.68945V129.47949z"/>
	<path d="M76.22461,131.93848c0-1.45898,0.94922-2.53809,2.3584-2.53809c1.39941,0,2.36914,1.0791,2.36914,2.53809
		c0,1.44922-0.95996,2.54883-2.36914,2.54883S76.22461,133.39746,76.22461,131.93848z M80.2627,131.93848
		c0-1.11914-0.62988-1.92871-1.67969-1.92871c-1.05957,0-1.66895,0.81934-1.66895,1.92871
		c0,1.11914,0.62012,1.93945,1.66895,1.93945C79.64258,133.87793,80.2627,133.03809,80.2627,131.93848z"/>
	<path d="M86.27246,131.38867v3.01855h-0.68945v-2.84863c0-1.05957-0.33984-1.54883-1.08008-1.54883
		c-0.92969,0-1.46875,0.7998-1.46875,2.18848v2.20898h-0.68945v-4.92773h0.68945v0.71973
		c0.31934-0.49902,0.91895-0.79883,1.62891-0.79883C85.72266,129.40039,86.27246,130.08008,86.27246,131.38867z"/>
	<path d="M91.87207,132.12891h-3.6084c0.02051,1.0791,0.62012,1.72852,1.58984,1.72852c0.53906,0,0.96875-0.13965,1.41895-0.61914
		l0.47949,0.41895c-0.5791,0.61035-1.14941,0.83008-1.90918,0.83008c-1.49902,0-2.26855-1.11914-2.26855-2.51855
		c0-1.38965,0.75977-2.56836,2.18945-2.56836c1.50879,0,2.13867,1.17871,2.13867,2.29785
		C91.90234,131.83887,91.8916,132.00879,91.87207,132.12891z M88.26367,131.54883h2.97852
		c0-0.02051-0.00977-0.07031-0.00977-0.16016c-0.0498-0.7998-0.55957-1.40918-1.46875-1.40918
		C88.87402,129.97949,88.32422,130.67969,88.26367,131.54883z"/>
</g>
<g enable-background="new    ">
	<path fill="#C6CACF" d="M4.91309,144.53809H2.04492l-1.03955,1.86914H0.17578l3.95801-6.96582h0.57959l1.25928,6.96582H5.22314
		L4.91309,144.53809z M4.80322,143.92871l-0.55957-3.36816l-1.86914,3.36816H4.80322z"/>
	<path fill="#C6CACF" d="M12.23242,143.35938c0,1.56836-1.15918,3.12793-2.73828,3.12793
		c-0.66992,0-1.22949-0.28027-1.51904-0.72949l-0.52979,2.68848H6.68555l1.36914-6.9668H8.8042l-0.10986,0.57031
		c0.43018-0.41992,1.0498-0.64941,1.66943-0.64941C11.58301,141.40039,12.23242,142.18945,12.23242,143.35938z M11.55273,143.42871
		c0-0.85938-0.46973-1.38867-1.28906-1.38867c-1.11963,0-1.96875,0.99902-2.09912,2.16797
		c-0.10986,0.99023,0.37012,1.64941,1.2793,1.64941C10.69336,145.85742,11.55273,144.58789,11.55273,143.42871z"/>
	<path fill="#C6CACF" d="M16.90332,141.62012l-0.41992,0.5791c-0.11963-0.06934-0.32959-0.12988-0.57959-0.12988
		c-0.72949,0-1.49902,0.5-1.75879,1.86914l-0.46973,2.46875h-0.68994l0.95947-4.92773h0.68994l-0.14014,0.66992
		c0.43994-0.58984,1.09961-0.74902,1.5791-0.74902C16.36377,141.40039,16.64355,141.45996,16.90332,141.62012z"/>
	<path fill="#C6CACF" d="M17.88428,141.47949h0.68994l-0.95947,4.92773H16.9248L17.88428,141.47949z M18.26416,139.44141h0.71973
		l-0.19971,1.01953h-0.71973L18.26416,139.44141z"/>
	<path fill="#C6CACF" d="M22.20508,145.32812l1.14941-5.88672h0.67969l-1.13965,5.89648
		c-0.08008,0.39941,0.03027,0.54004,0.31982,0.54004c0.1499,0,0.31006-0.03027,0.5-0.09082l-0.07031,0.58008
		c-0.26953,0.08008-0.50977,0.12012-0.68945,0.12012C22.36475,146.4873,22.05518,146.10742,22.20508,145.32812z"/>
	<path fill="#C6CACF" d="M29.75244,141.47949l-0.95947,4.92773h-0.67969l0.12988-0.65918
		c-0.42969,0.47949-1.08936,0.73926-1.75928,0.73926c-1.21924,0-1.86865-0.79004-1.86865-1.95898
		c0-1.56934,1.15918-3.12793,2.73828-3.12793c0.70996,0,1.28955,0.31934,1.56934,0.80957l0.13965-0.73047H29.75244z
		 M27.40381,142.0293c-1.24951,0-2.10889,1.26953-2.10889,2.42871c0,0.85938,0.46973,1.38965,1.28906,1.38965
		c1.11963,0,1.96924-1,2.09912-2.16895C28.79297,142.68945,28.31299,142.0293,27.40381,142.0293z"/>
	<path fill="#C6CACF" d="M33.23486,144.54785c0-1.62891,1.15967-3.14746,2.73877-3.14746c0.91943,0,1.55908,0.48926,1.74902,1.37891
		l-0.68994,0.21973c-0.08984-0.62988-0.51953-0.98926-1.10938-0.98926c-1.19922,0-1.99854,1.29883-1.99854,2.55859
		c0,0.72949,0.34961,1.30957,1.1792,1.30957c0.64941,0,1.22949-0.39062,1.53906-1.01953l0.58984,0.28906
		c-0.47998,0.86035-1.2793,1.33984-2.16895,1.33984C33.84473,146.4873,33.23486,145.64746,33.23486,144.54785z"/>
	<path fill="#C6CACF" d="M38.13477,144.49805c0-1.62891,1.23926-3.09766,2.86865-3.09766c1.21924,0,1.95898,0.81934,1.95898,1.97852
		c0,1.63867-1.25928,3.1084-2.87842,3.1084C38.86475,146.4873,38.13477,145.66797,38.13477,144.49805z M42.29248,143.37891
		c0-0.81934-0.46973-1.36914-1.33887-1.36914c-1.2793,0-2.13916,1.21875-2.13916,2.49805c0,0.82031,0.46973,1.37012,1.31934,1.37012
		C41.42334,145.87793,42.29248,144.64844,42.29248,143.37891z"/>
	<path fill="#C6CACF" d="M43.86475,145.32812l1.14941-5.88672h0.67969l-1.13965,5.89648
		c-0.08008,0.39941,0.03027,0.54004,0.31982,0.54004c0.1499,0,0.31006-0.03027,0.5-0.09082l-0.07031,0.58008
		c-0.26953,0.08008-0.50977,0.12012-0.68945,0.12012C44.02441,146.4873,43.71484,146.10742,43.86475,145.32812z"/>
	<path fill="#C6CACF" d="M46.26465,144.49805c0-1.62891,1.23926-3.09766,2.86865-3.09766c1.21924,0,1.95898,0.81934,1.95898,1.97852
		c0,1.63867-1.25928,3.1084-2.87842,3.1084C46.99463,146.4873,46.26465,145.66797,46.26465,144.49805z M50.42236,143.37891
		c0-0.81934-0.46973-1.36914-1.33887-1.36914c-1.2793,0-2.13916,1.21875-2.13916,2.49805c0,0.82031,0.46973,1.37012,1.31934,1.37012
		C49.55322,145.87793,50.42236,144.64844,50.42236,143.37891z"/>
	<path fill="#C6CACF" d="M56.41211,142.7793c0,0.26953-0.0498,0.54004-0.06982,0.63965l-0.57959,2.98828h-0.68994l0.56982-2.92871
		c0.02979-0.15918,0.06982-0.35938,0.06982-0.56934c0-0.5498-0.25977-0.89941-0.9292-0.89941
		c-1.07959,0-1.59912,0.94922-1.8291,2.14844l-0.42969,2.24902h-0.68994l0.95947-4.92773h0.68994l-0.12012,0.57031
		c0.45996-0.46973,1.07959-0.64941,1.61914-0.64941C55.92236,141.40039,56.41211,141.93945,56.41211,142.7793z"/>
	<path fill="#C6CACF" d="M61.91211,142.7793c0,0.26953-0.0498,0.54004-0.06982,0.63965l-0.57959,2.98828h-0.68994l0.56982-2.92871
		c0.02979-0.15918,0.06982-0.35938,0.06982-0.56934c0-0.5498-0.25977-0.89941-0.9292-0.89941
		c-1.07959,0-1.59912,0.94922-1.8291,2.14844l-0.42969,2.24902h-0.68994l0.95947-4.92773h0.68994l-0.12012,0.57031
		c0.45996-0.46973,1.07959-0.64941,1.61914-0.64941C61.42236,141.40039,61.91211,141.93945,61.91211,142.7793z"/>
	<path fill="#C6CACF" d="M67.98193,141.47949l-0.95947,4.92773h-0.67969l0.12988-0.65918
		c-0.42969,0.47949-1.08936,0.73926-1.75928,0.73926c-1.21924,0-1.86865-0.79004-1.86865-1.95898
		c0-1.56934,1.15918-3.12793,2.73828-3.12793c0.70996,0,1.28955,0.31934,1.56934,0.80957l0.13965-0.73047H67.98193z
		 M65.6333,142.0293c-1.24951,0-2.10889,1.26953-2.10889,2.42871c0,0.85938,0.46973,1.38965,1.28906,1.38965
		c1.11963,0,1.96924-1,2.09912-2.16895C67.02246,142.68945,66.54248,142.0293,65.6333,142.0293z"/>
	<path fill="#C6CACF" d="M71.46436,144.54785c0-1.62891,1.15967-3.14746,2.73877-3.14746c0.91992,0,1.55957,0.48926,1.74902,1.37891
		l-0.68945,0.21973c-0.08984-0.62988-0.51953-0.98926-1.10938-0.98926c-1.19971,0-1.99902,1.29883-1.99902,2.55859
		c0,0.72949,0.34961,1.30957,1.17969,1.30957c0.64941,0,1.22949-0.39062,1.53906-1.01953l0.58984,0.28906
		c-0.48047,0.86035-1.2793,1.33984-2.16895,1.33984C72.07422,146.4873,71.46436,145.64746,71.46436,144.54785z"/>
	<path fill="#C6CACF" d="M76.57422,145.32812l1.14941-5.88672h0.67969l-1.13965,5.89648
		c-0.08008,0.39941,0.03027,0.54004,0.32031,0.54004c0.14941,0,0.30957-0.03027,0.5-0.09082l-0.07031,0.58008
		c-0.26953,0.08008-0.50977,0.12012-0.68945,0.12012C76.73438,146.4873,76.4248,146.10742,76.57422,145.32812z"/>
	<path fill="#C6CACF" d="M79.93359,141.47949h0.69043l-0.95996,4.92773h-0.68945L79.93359,141.47949z M80.31348,139.44141h0.71973
		l-0.19922,1.01953h-0.71973L80.31348,139.44141z"/>
	<path fill="#C6CACF" d="M81.38477,144.54785c0-1.62891,1.15918-3.14746,2.73828-3.14746c0.91992,0,1.55957,0.48926,1.74902,1.37891
		l-0.68945,0.21973c-0.08984-0.62988-0.51953-0.98926-1.10938-0.98926c-1.19922,0-1.99902,1.29883-1.99902,2.55859
		c0,0.72949,0.34961,1.30957,1.17969,1.30957c0.64941,0,1.22949-0.39062,1.53906-1.01953l0.58984,0.28906
		c-0.48047,0.86035-1.2793,1.33984-2.16895,1.33984C81.99414,146.4873,81.38477,145.64746,81.38477,144.54785z"/>
	<path fill="#C6CACF" d="M86.30469,144.54785c0-1.62891,1.15918-3.14746,2.73828-3.14746c0.91992,0,1.55957,0.48926,1.74902,1.37891
		l-0.68945,0.21973c-0.08984-0.62988-0.51953-0.98926-1.10938-0.98926c-1.19922,0-1.99902,1.29883-1.99902,2.55859
		c0,0.72949,0.34961,1.30957,1.17969,1.30957c0.64941,0,1.22949-0.39062,1.53906-1.01953l0.58984,0.28906
		c-0.48047,0.86035-1.2793,1.33984-2.16895,1.33984C86.91406,146.4873,86.30469,145.64746,86.30469,144.54785z"/>
	<path fill="#C6CACF" d="M96.35156,141.47949l-0.95898,4.92773h-0.67969l0.12988-0.65918
		c-0.42969,0.47949-1.08984,0.73926-1.75977,0.73926c-1.21875,0-1.86816-0.79004-1.86816-1.95898
		c0-1.56934,1.15918-3.12793,2.73828-3.12793c0.70996,0,1.28906,0.31934,1.56934,0.80957l0.13965-0.73047H96.35156z
		 M94.00293,142.0293c-1.24902,0-2.1084,1.26953-2.1084,2.42871c0,0.85938,0.46973,1.38965,1.28906,1.38965
		c1.11914,0,1.96875-1,2.09863-2.16895C95.39258,142.68945,94.91211,142.0293,94.00293,142.0293z"/>
	<path fill="#C6CACF" d="M101.66211,142.7793c0,0.26953-0.0498,0.54004-0.07031,0.63965l-0.5791,2.98828h-0.69043l0.57031-2.92871
		c0.0293-0.15918,0.06934-0.35938,0.06934-0.56934c0-0.5498-0.25977-0.89941-0.92871-0.89941
		c-1.08008,0-1.59961,0.94922-1.8291,2.14844l-0.42969,2.24902h-0.69043l0.95996-4.92773h0.68945l-0.12012,0.57031
		c0.45996-0.46973,1.08008-0.64941,1.61914-0.64941C101.17188,141.40039,101.66211,141.93945,101.66211,142.7793z"/>
	<path fill="#C6CACF" d="M108.13184,139.44141l-1.35938,6.96582h-0.67969l0.12988-0.65918
		c-0.42969,0.47949-1.08984,0.73926-1.75977,0.73926c-1.21875,0-1.86816-0.79004-1.86816-1.95898
		c0-1.56934,1.15918-3.12793,2.73828-3.12793c0.70996,0,1.28906,0.31934,1.56934,0.80957l0.53906-2.76855H108.13184z
		 M105.38281,142.0293c-1.24902,0-2.1084,1.26953-2.1084,2.42871c0,0.85938,0.46973,1.38965,1.28906,1.38965
		c1.11914,0,1.96875-1,2.09863-2.16895C106.77246,142.68945,106.29199,142.0293,105.38281,142.0293z"/>
	<path fill="#C6CACF" d="M108.46387,144.49805c0-1.62891,1.23926-3.09766,2.86914-3.09766
		c1.21875,0,1.95898,0.81934,1.95898,1.97852c0,1.63867-1.25977,3.1084-2.87891,3.1084
		C109.19434,146.4873,108.46387,145.66797,108.46387,144.49805z M112.62207,143.37891c0-0.81934-0.46973-1.36914-1.33887-1.36914
		c-1.2793,0-2.13965,1.21875-2.13965,2.49805c0,0.82031,0.46973,1.37012,1.31934,1.37012
		C111.75293,145.87793,112.62207,144.64844,112.62207,143.37891z"/>
	<path fill="#C6CACF" d="M115.13379,145.11816h0.7998l-1.86914,2.83789h-0.47949L115.13379,145.11816z"/>
	<path fill="#C6CACF" d="M125.01172,143.35938c0,1.56836-1.15918,3.12793-2.73828,3.12793
		c-0.66992,0-1.22949-0.28027-1.51953-0.72949l-0.5293,2.68848h-0.75977l1.36914-6.9668h0.75l-0.11035,0.57031
		c0.42969-0.41992,1.0498-0.64941,1.66895-0.64941C124.3623,141.40039,125.01172,142.18945,125.01172,143.35938z
		 M124.33203,143.42871c0-0.85938-0.46973-1.38867-1.28906-1.38867c-1.12012,0-1.96875,0.99902-2.09863,2.16797
		c-0.11035,0.99023,0.36914,1.64941,1.2793,1.64941C123.47266,145.85742,124.33203,144.58789,124.33203,143.42871z"/>
	<path fill="#C6CACF" d="M125.76367,144.49805c0-1.62891,1.23926-3.09766,2.86914-3.09766
		c1.21875,0,1.95898,0.81934,1.95898,1.97852c0,1.63867-1.25977,3.1084-2.87891,3.1084
		C126.49414,146.4873,125.76367,145.66797,125.76367,144.49805z M129.92188,143.37891c0-0.81934-0.46973-1.36914-1.33887-1.36914
		c-1.2793,0-2.13965,1.21875-2.13965,2.49805c0,0.82031,0.46973,1.37012,1.31934,1.37012
		C129.05273,145.87793,129.92188,144.64844,129.92188,143.37891z"/>
	<path fill="#C6CACF" d="M132.29297,141.47949h0.69043l-0.95996,4.92773h-0.68945L132.29297,141.47949z M132.67285,139.44141
		h0.71973l-0.19922,1.01953h-0.71973L132.67285,139.44141z"/>
</g>
<g enable-background="new    ">
	<path fill="#C6CACF" d="M0.41553,157.17773l0.6499-0.21973c0.10986,0.5,0.49951,0.90918,1.30908,0.90918
		c0.68994,0,1.23926-0.28906,1.23926-0.92871c0-0.99023-2.43848-0.66992-2.43848-2.08887c0-0.87012,0.78955-1.44922,1.80908-1.44922
		c0.85938,0,1.45898,0.39941,1.729,1.03906l-0.59961,0.26953c-0.22021-0.47949-0.56982-0.68945-1.15967-0.68945
		c-0.60938,0-1.09912,0.25977-1.09912,0.75977c0,0.93945,2.43848,0.60938,2.43848,2.08887c0,1.0293-0.86963,1.61914-1.92871,1.61914
		C1.31543,158.4873,0.58545,157.91797,0.41553,157.17773z"/>
	<path fill="#C6CACF" d="M5.27539,156.54785c0-1.62891,1.15967-3.14746,2.73877-3.14746c0.91943,0,1.55908,0.48926,1.74902,1.37891
		l-0.68994,0.21973c-0.08984-0.62988-0.51953-0.98926-1.10938-0.98926c-1.19922,0-1.99854,1.29883-1.99854,2.55859
		c0,0.72949,0.34961,1.30957,1.1792,1.30957c0.64941,0,1.22949-0.39062,1.53906-1.01953l0.58984,0.28906
		c-0.47998,0.86035-1.2793,1.33984-2.16895,1.33984C5.88525,158.4873,5.27539,157.64746,5.27539,156.54785z"/>
	<path fill="#C6CACF" d="M10.17529,156.49805c0-1.62891,1.23926-3.09766,2.86865-3.09766c1.21924,0,1.95898,0.81934,1.95898,1.97852
		c0,1.63867-1.25928,3.1084-2.87842,3.1084C10.90527,158.4873,10.17529,157.66797,10.17529,156.49805z M14.33301,155.37891
		c0-0.81934-0.46973-1.36914-1.33887-1.36914c-1.2793,0-2.13916,1.21875-2.13916,2.49805c0,0.82031,0.46973,1.37012,1.31934,1.37012
		C13.46387,157.87793,14.33301,156.64844,14.33301,155.37891z"/>
	<path fill="#C6CACF" d="M19.66309,153.62012l-0.41992,0.5791c-0.11963-0.06934-0.32959-0.12988-0.57959-0.12988
		c-0.72949,0-1.49902,0.5-1.75879,1.86914l-0.46973,2.46875h-0.68994l0.95947-4.92773h0.68994l-0.14014,0.66992
		c0.43994-0.58984,1.09961-0.74902,1.5791-0.74902C19.12354,153.40039,19.40332,153.45996,19.66309,153.62012z"/>
	<path fill="#C6CACF" d="M23.60303,153.62012l-0.41992,0.5791c-0.11963-0.06934-0.32959-0.12988-0.57959-0.12988
		c-0.72949,0-1.49902,0.5-1.75879,1.86914l-0.46973,2.46875h-0.68994l0.95947-4.92773h0.68994l-0.14014,0.66992
		c0.43994-0.58984,1.09961-0.74902,1.5791-0.74902C23.06348,153.40039,23.34326,153.45996,23.60303,153.62012z"/>
	<path fill="#C6CACF" d="M24.58447,153.47949h0.68994l-0.95947,4.92773H23.625L24.58447,153.47949z M24.96436,151.44141h0.71973
		l-0.19971,1.01953h-0.71973L24.96436,151.44141z"/>
	<path fill="#C6CACF" d="M28.99463,153.47949h0.73975l0.75928,4.04785l2.34912-4.04785h0.76953l-2.97852,4.92773h-0.58984
		L28.99463,153.47949z"/>
	<path fill="#C6CACF" d="M34.21436,156.1582c-0.02979,0.16016-0.0498,0.29004-0.0498,0.4502
		c0,0.78906,0.44971,1.24902,1.26904,1.24902c0.59961,0,1.04932-0.17969,1.56934-0.64941l0.41992,0.46973
		c-0.66992,0.5791-1.2793,0.80957-2.03906,0.80957c-1.2793,0-1.87891-0.7998-1.87891-1.89941
		c0-1.64844,1.11914-3.1875,2.7085-3.1875c1.2793,0,1.77881,0.83887,1.77881,1.77832c0,0.2998-0.06982,0.7002-0.15967,0.97949
		H34.21436z M34.32422,155.59863h2.96826c0.05029-0.17969,0.07031-0.34961,0.07031-0.5c0-0.5791-0.3501-1.0791-1.18945-1.0791
		C35.24365,154.01953,34.58398,154.71973,34.32422,155.59863z"/>
	<path fill="#C6CACF" d="M42.61279,153.62012l-0.41992,0.5791c-0.11963-0.06934-0.32959-0.12988-0.57959-0.12988
		c-0.72949,0-1.49902,0.5-1.75879,1.86914l-0.46973,2.46875h-0.68994l0.95947-4.92773h0.68994l-0.14014,0.66992
		c0.43994-0.58984,1.09961-0.74902,1.5791-0.74902C42.07324,153.40039,42.35303,153.45996,42.61279,153.62012z"/>
	<path fill="#C6CACF" d="M42.14502,157.17773l0.6499-0.21973c0.10986,0.5,0.49951,0.90918,1.30908,0.90918
		c0.68994,0,1.23926-0.28906,1.23926-0.92871c0-0.99023-2.43848-0.66992-2.43848-2.08887c0-0.87012,0.78955-1.44922,1.80908-1.44922
		c0.85938,0,1.45898,0.39941,1.729,1.03906l-0.59961,0.26953c-0.22021-0.47949-0.56982-0.68945-1.15967-0.68945
		c-0.60938,0-1.09912,0.25977-1.09912,0.75977c0,0.93945,2.43848,0.60938,2.43848,2.08887c0,1.0293-0.86963,1.61914-1.92871,1.61914
		C43.04492,158.4873,42.31494,157.91797,42.14502,157.17773z"/>
	<path fill="#C6CACF" d="M46.98438,156.49805c0-1.62891,1.23926-3.09766,2.86865-3.09766c1.21924,0,1.95898,0.81934,1.95898,1.97852
		c0,1.63867-1.25928,3.1084-2.87842,3.1084C47.71436,158.4873,46.98438,157.66797,46.98438,156.49805z M51.14209,155.37891
		c0-0.81934-0.46973-1.36914-1.33887-1.36914c-1.2793,0-2.13916,1.21875-2.13916,2.49805c0,0.82031,0.46973,1.37012,1.31934,1.37012
		C50.27295,157.87793,51.14209,156.64844,51.14209,155.37891z"/>
	<path fill="#C6CACF" d="M56.24414,153.47949h0.68994l-0.95947,4.92773h-0.68994L56.24414,153.47949z M56.62402,151.44141h0.71973
		l-0.19971,1.01953h-0.71973L56.62402,151.44141z"/>
	<path fill="#C6CACF" d="M57.83447,157.32812l1.14941-5.88672h0.67969l-1.13965,5.89648
		c-0.08008,0.39941,0.03027,0.54004,0.31982,0.54004c0.1499,0,0.31006-0.03027,0.5-0.09082l-0.07031,0.58008
		c-0.26953,0.08008-0.50977,0.12012-0.68945,0.12012C57.99414,158.4873,57.68457,158.10742,57.83447,157.32812z"/>
	<path fill="#C6CACF" d="M68.10156,155.35938c0,1.56836-1.15918,3.12793-2.73828,3.12793
		c-0.66992,0-1.21924-0.28027-1.51904-0.72949l-0.12012,0.64941h-0.75977l1.35938-6.96582h0.75977l-0.52002,2.59863
		c0.43018-0.41016,1.0498-0.63965,1.66943-0.63965C67.45215,153.40039,68.10156,154.18945,68.10156,155.35938z M67.42188,155.42871
		c0-0.85938-0.46973-1.38867-1.28906-1.38867c-1.11963,0-1.96875,0.99902-2.09912,2.16797
		c-0.10986,0.99023,0.37012,1.64941,1.2793,1.64941C66.5625,157.85742,67.42188,156.58789,67.42188,155.42871z"/>
	<path fill="#C6CACF" d="M74.00195,153.47949l-0.95898,4.92773h-0.68018l0.12988-0.65918
		c-0.42969,0.47949-1.08936,0.73926-1.75928,0.73926c-1.21924,0-1.86865-0.79004-1.86865-1.95898
		c0-1.56934,1.15918-3.12793,2.73828-3.12793c0.70996,0,1.28955,0.31934,1.56982,0.80957l0.13965-0.73047H74.00195z
		 M71.65332,154.0293c-1.24951,0-2.10889,1.26953-2.10889,2.42871c0,0.85938,0.46973,1.38965,1.28906,1.38965
		c1.11963,0,1.96875-1,2.09912-2.16895C73.04297,154.68945,72.5625,154.0293,71.65332,154.0293z"/>
	<path fill="#C6CACF" d="M74.41504,157.17773l0.64941-0.21973c0.11035,0.5,0.5,0.90918,1.30957,0.90918
		c0.68945,0,1.23926-0.28906,1.23926-0.92871c0-0.99023-2.43848-0.66992-2.43848-2.08887c0-0.87012,0.78906-1.44922,1.80859-1.44922
		c0.85938,0,1.45898,0.39941,1.72949,1.03906l-0.59961,0.26953c-0.2207-0.47949-0.57031-0.68945-1.16016-0.68945
		c-0.60938,0-1.09863,0.25977-1.09863,0.75977c0,0.93945,2.43848,0.60938,2.43848,2.08887c0,1.0293-0.87012,1.61914-1.92871,1.61914
		C75.31445,158.4873,74.58496,157.91797,74.41504,157.17773z"/>
	<path fill="#C6CACF" d="M78.95508,157.17773l0.64941-0.21973c0.11035,0.5,0.5,0.90918,1.30957,0.90918
		c0.68945,0,1.23926-0.28906,1.23926-0.92871c0-0.99023-2.43848-0.66992-2.43848-2.08887c0-0.87012,0.78906-1.44922,1.80859-1.44922
		c0.85938,0,1.45898,0.39941,1.72949,1.03906l-0.59961,0.26953c-0.2207-0.47949-0.57031-0.68945-1.16016-0.68945
		c-0.60938,0-1.09863,0.25977-1.09863,0.75977c0,0.93945,2.43848,0.60938,2.43848,2.08887c0,1.0293-0.87012,1.61914-1.92871,1.61914
		C79.85449,158.4873,79.125,157.91797,78.95508,157.17773z"/>
	<path fill="#C6CACF" d="M83.79395,156.49805c0-1.62891,1.23926-3.09766,2.86914-3.09766c1.21875,0,1.95898,0.81934,1.95898,1.97852
		c0,1.63867-1.25977,3.1084-2.87891,3.1084C84.52441,158.4873,83.79395,157.66797,83.79395,156.49805z M87.95215,155.37891
		c0-0.81934-0.46973-1.36914-1.33887-1.36914c-1.2793,0-2.13965,1.21875-2.13965,2.49805c0,0.82031,0.46973,1.37012,1.31934,1.37012
		C87.08301,157.87793,87.95215,156.64844,87.95215,155.37891z"/>
	<path fill="#C6CACF" d="M97.23145,155.35938c0,1.56836-1.15918,3.12793-2.73828,3.12793
		c-0.66992,0-1.22949-0.28027-1.51953-0.72949l-0.5293,2.68848h-0.75977l1.36914-6.9668h0.75l-0.11035,0.57031
		c0.42969-0.41992,1.0498-0.64941,1.66895-0.64941C96.58203,153.40039,97.23145,154.18945,97.23145,155.35938z M96.55176,155.42871
		c0-0.85938-0.46973-1.38867-1.28906-1.38867c-1.12012,0-1.96875,0.99902-2.09863,2.16797
		c-0.11035,0.99023,0.36914,1.64941,1.2793,1.64941C95.69238,157.85742,96.55176,156.58789,96.55176,155.42871z"/>
	<path fill="#C6CACF" d="M98.7041,156.1582c-0.03027,0.16016-0.0498,0.29004-0.0498,0.4502
		c0,0.78906,0.44922,1.24902,1.26855,1.24902c0.59961,0,1.0498-0.17969,1.56934-0.64941l0.41992,0.46973
		c-0.66992,0.5791-1.2793,0.80957-2.03906,0.80957c-1.2793,0-1.87891-0.7998-1.87891-1.89941
		c0-1.64844,1.11914-3.1875,2.70898-3.1875c1.2793,0,1.77832,0.83887,1.77832,1.77832c0,0.2998-0.06934,0.7002-0.15918,0.97949
		H98.7041z M98.81348,155.59863h2.96875c0.0498-0.17969,0.07031-0.34961,0.07031-0.5c0-0.5791-0.35059-1.0791-1.18945-1.0791
		C99.7334,154.01953,99.07324,154.71973,98.81348,155.59863z"/>
	<path fill="#C6CACF" d="M107.10156,153.62012l-0.41992,0.5791c-0.11914-0.06934-0.3291-0.12988-0.5791-0.12988
		c-0.72949,0-1.49902,0.5-1.75879,1.86914l-0.46973,2.46875h-0.69043l0.95996-4.92773h0.68945l-0.13965,0.66992
		c0.43945-0.58984,1.09961-0.74902,1.5791-0.74902C106.5625,153.40039,106.8418,153.45996,107.10156,153.62012z"/>
	<path fill="#C6CACF" d="M110.07422,153.47949h0.73926l0.75977,4.04785l2.34863-4.04785h0.76953l-2.97852,4.92773h-0.58984
		L110.07422,153.47949z"/>
	<path fill="#C6CACF" d="M115.29395,156.1582c-0.03027,0.16016-0.0498,0.29004-0.0498,0.4502
		c0,0.78906,0.44922,1.24902,1.26855,1.24902c0.59961,0,1.0498-0.17969,1.56934-0.64941l0.41992,0.46973
		c-0.66992,0.5791-1.2793,0.80957-2.03906,0.80957c-1.2793,0-1.87891-0.7998-1.87891-1.89941
		c0-1.64844,1.11914-3.1875,2.70898-3.1875c1.2793,0,1.77832,0.83887,1.77832,1.77832c0,0.2998-0.06934,0.7002-0.15918,0.97949
		H115.29395z M115.40332,155.59863h2.96875c0.0498-0.17969,0.07031-0.34961,0.07031-0.5c0-0.5791-0.35059-1.0791-1.18945-1.0791
		C116.32324,154.01953,115.66309,154.71973,115.40332,155.59863z"/>
	<path fill="#C6CACF" d="M125.32129,151.44141l-1.35938,6.96582h-0.67969l0.12988-0.65918
		c-0.42969,0.47949-1.08984,0.73926-1.75977,0.73926c-1.21875,0-1.86816-0.79004-1.86816-1.95898
		c0-1.56934,1.15918-3.12793,2.73828-3.12793c0.70996,0,1.28906,0.31934,1.56934,0.80957l0.53906-2.76855H125.32129z
		 M122.57227,154.0293c-1.24902,0-2.1084,1.26953-2.1084,2.42871c0,0.85938,0.46973,1.38965,1.28906,1.38965
		c1.11914,0,1.96875-1,2.09863-2.16895C123.96191,154.68945,123.48145,154.0293,122.57227,154.0293z"/>
	<path fill="#C6CACF" d="M126.37305,156.1582c-0.0293,0.16016-0.0498,0.29004-0.0498,0.4502
		c0,0.78906,0.4502,1.24902,1.26953,1.24902c0.59961,0,1.0498-0.17969,1.56934-0.64941l0.41992,0.46973
		c-0.66992,0.5791-1.2793,0.80957-2.03906,0.80957c-1.2793,0-1.87891-0.7998-1.87891-1.89941
		c0-1.64844,1.11914-3.1875,2.70801-3.1875c1.2793,0,1.7793,0.83887,1.7793,1.77832c0,0.2998-0.07031,0.7002-0.16016,0.97949
		H126.37305z M126.4834,155.59863h2.96777c0.05078-0.17969,0.07031-0.34961,0.07031-0.5c0-0.5791-0.34961-1.0791-1.18945-1.0791
		C127.40234,154.01953,126.74316,154.71973,126.4834,155.59863z"/>
	<path fill="#C6CACF" d="M134.77148,153.62012l-0.41992,0.5791c-0.11914-0.06934-0.3291-0.12988-0.5791-0.12988
		c-0.72949,0-1.49902,0.5-1.75879,1.86914l-0.46973,2.46875h-0.69043l0.95996-4.92773h0.68945l-0.13965,0.66992
		c0.43945-0.58984,1.09961-0.74902,1.5791-0.74902C134.23242,153.40039,134.51172,153.45996,134.77148,153.62012z"/>
	<path fill="#C6CACF" d="M135.26367,156.1582c-0.03027,0.16016-0.0498,0.29004-0.0498,0.4502
		c0,0.78906,0.44922,1.24902,1.26855,1.24902c0.59961,0,1.0498-0.17969,1.56934-0.64941l0.41992,0.46973
		c-0.66992,0.5791-1.2793,0.80957-2.03906,0.80957c-1.2793,0-1.87891-0.7998-1.87891-1.89941
		c0-1.64844,1.11914-3.1875,2.70898-3.1875c1.2793,0,1.77832,0.83887,1.77832,1.77832c0,0.2998-0.06934,0.7002-0.15918,0.97949
		H135.26367z M135.37305,155.59863h2.96875c0.0498-0.17969,0.07031-0.34961,0.07031-0.5c0-0.5791-0.35059-1.0791-1.18945-1.0791
		C136.29297,154.01953,135.63281,154.71973,135.37305,155.59863z"/>
</g>
<g enable-background="new    ">
	<path fill="#C6CACF" d="M0.89551,169.32812l1.14941-5.88672h0.67969l-1.13965,5.89648
		c-0.08008,0.39941,0.03027,0.54004,0.31982,0.54004c0.1499,0,0.31006-0.03027,0.5-0.09082l-0.07031,0.58008
		c-0.26953,0.08008-0.50977,0.12012-0.68945,0.12012C1.05518,170.4873,0.74561,170.10742,0.89551,169.32812z"/>
	<path fill="#C6CACF" d="M4.92432,163.44141h0.7998l-1.86914,2.83789H3.37549L4.92432,163.44141z"/>
	<path fill="#C6CACF" d="M10.00293,165.47949l-0.95947,4.92773H8.36377l0.12988-0.65918
		c-0.42969,0.47949-1.08936,0.73926-1.75928,0.73926c-1.21924,0-1.86865-0.79004-1.86865-1.95898
		c0-1.56934,1.15918-3.12793,2.73828-3.12793c0.70996,0,1.28955,0.31934,1.56934,0.80957l0.13965-0.73047H10.00293z
		 M7.6543,166.0293c-1.24951,0-2.10889,1.26953-2.10889,2.42871c0,0.85938,0.46973,1.38965,1.28906,1.38965
		c1.11963,0,1.96875-1,2.09912-2.16895C9.04346,166.68945,8.56348,166.0293,7.6543,166.0293z"/>
	<path fill="#C6CACF" d="M15.31299,166.7793c0,0.26953-0.0498,0.54004-0.06982,0.63965l-0.57959,2.98828h-0.68994l0.56982-2.92871
		c0.02979-0.15918,0.06982-0.35938,0.06982-0.56934c0-0.5498-0.25977-0.89941-0.9292-0.89941
		c-1.07959,0-1.59912,0.94922-1.8291,2.14844l-0.42969,2.24902h-0.68994l0.95947-4.92773h0.68994l-0.12012,0.57031
		c0.45996-0.46973,1.07959-0.64941,1.61914-0.64941C14.82324,165.40039,15.31299,165.93945,15.31299,166.7793z"/>
	<path fill="#C6CACF" d="M21.78271,163.44141l-1.35938,6.96582h-0.67969l0.12988-0.65918
		c-0.42969,0.47949-1.08936,0.73926-1.75928,0.73926c-1.21924,0-1.86865-0.79004-1.86865-1.95898
		c0-1.56934,1.15918-3.12793,2.73828-3.12793c0.70996,0,1.28955,0.31934,1.56934,0.80957l0.53955-2.76855H21.78271z
		 M19.03418,166.0293c-1.24951,0-2.10889,1.26953-2.10889,2.42871c0,0.85938,0.46973,1.38965,1.28906,1.38965
		c1.11963,0,1.96875-1,2.09912-2.16895C20.42334,166.68945,19.94336,166.0293,19.03418,166.0293z"/>
	<path fill="#C6CACF" d="M27.2627,165.47949l-0.95947,4.92773h-0.67969l0.12988-0.65918
		c-0.42969,0.47949-1.08936,0.73926-1.75928,0.73926c-1.21924,0-1.86865-0.79004-1.86865-1.95898
		c0-1.56934,1.15918-3.12793,2.73828-3.12793c0.70996,0,1.28955,0.31934,1.56934,0.80957l0.13965-0.73047H27.2627z
		 M24.91406,166.0293c-1.24951,0-2.10889,1.26953-2.10889,2.42871c0,0.85938,0.46973,1.38965,1.28906,1.38965
		c1.11963,0,1.96875-1,2.09912-2.16895C26.30322,166.68945,25.82324,166.0293,24.91406,166.0293z"/>
	<path fill="#C6CACF" d="M35.40137,166.80957c0,0.26953-0.04004,0.40918-0.08008,0.63965l-0.56982,2.95801h-0.68945l0.5498-2.81836
		c0.04004-0.19043,0.07959-0.45996,0.07959-0.67969c0-0.47949-0.19971-0.89941-0.84912-0.89941
		c-0.97949,0-1.44922,0.95898-1.66943,2.05859l-0.45947,2.33887h-0.68994l0.56006-2.87891
		c0.04004-0.20898,0.06982-0.41895,0.06982-0.60938c0-0.5498-0.23975-0.90918-0.83936-0.90918
		c-0.98975,0-1.44922,0.94922-1.66943,2.05859l-0.45947,2.33887h-0.68994l0.94971-4.92773h0.66943l-0.11963,0.60059
		c0.39941-0.45996,0.99951-0.67969,1.51904-0.67969c0.58984,0,1.09912,0.2793,1.21924,0.94922
		c0.42969-0.64941,1.11963-0.94922,1.7793-0.94922C35.01123,165.40039,35.40137,165.98926,35.40137,166.80957z"/>
	<path fill="#C6CACF" d="M37.04492,168.1582c-0.02979,0.16016-0.0498,0.29004-0.0498,0.4502
		c0,0.78906,0.44971,1.24902,1.26904,1.24902c0.59961,0,1.0498-0.17969,1.56934-0.64941l0.41992,0.46973
		c-0.66992,0.5791-1.2793,0.80957-2.03906,0.80957c-1.2793,0-1.87891-0.7998-1.87891-1.89941
		c0-1.64844,1.11914-3.1875,2.7085-3.1875c1.2793,0,1.77881,0.83887,1.77881,1.77832c0,0.2998-0.06982,0.7002-0.15967,0.97949
		H37.04492z M37.15479,167.59863h2.96826c0.05029-0.17969,0.07031-0.34961,0.07031-0.5c0-0.5791-0.3501-1.0791-1.18945-1.0791
		C38.07422,166.01953,37.41455,166.71973,37.15479,167.59863z"/>
	<path fill="#C6CACF" d="M46.10254,166.7793c0,0.26953-0.0498,0.54004-0.06982,0.63965l-0.57959,2.98828h-0.68994l0.56982-2.92871
		c0.02979-0.15918,0.06982-0.35938,0.06982-0.56934c0-0.5498-0.25977-0.89941-0.9292-0.89941
		c-1.07959,0-1.59912,0.94922-1.8291,2.14844l-0.42969,2.24902H41.5249l0.95947-4.92773h0.68994l-0.12012,0.57031
		c0.45996-0.46973,1.07959-0.64941,1.61914-0.64941C45.61279,165.40039,46.10254,165.93945,46.10254,166.7793z"/>
	<path fill="#C6CACF" d="M48.09424,169.22754c-0.01953,0.10059-0.02979,0.2002-0.02979,0.25977
		c0,0.2998,0.16992,0.41992,0.47998,0.41992c0.15967,0,0.37939-0.04004,0.61963-0.12012l-0.07031,0.57031
		c-0.25977,0.08008-0.5293,0.12988-0.75928,0.12988c-0.56982,0-0.95947-0.28027-0.95947-0.87988
		c0-0.12988,0.02002-0.2793,0.04004-0.37988l0.61963-3.21777h-0.81982l0.10986-0.53027h0.80957l0.27002-1.37891l0.78955-0.51953
		l-0.36963,1.89844h1.18896l-0.09961,0.53027h-1.18945L48.09424,169.22754z"/>
	<path fill="#C6CACF" d="M50.22461,168.49805c0-1.62891,1.23926-3.09766,2.86865-3.09766c1.21924,0,1.95898,0.81934,1.95898,1.97852
		c0,1.63867-1.25928,3.1084-2.87842,3.1084C50.95459,170.4873,50.22461,169.66797,50.22461,168.49805z M54.38232,167.37891
		c0-0.81934-0.46973-1.36914-1.33887-1.36914c-1.2793,0-2.13916,1.21875-2.13916,2.49805c0,0.82031,0.46973,1.37012,1.31934,1.37012
		C53.51318,169.87793,54.38232,168.64844,54.38232,167.37891z"/>
	<path fill="#C6CACF" d="M64.07178,163.44141l-1.35938,6.96582h-0.67969l0.12988-0.65918
		c-0.42969,0.47949-1.08936,0.73926-1.75928,0.73926c-1.21924,0-1.86865-0.79004-1.86865-1.95898
		c0-1.56934,1.15918-3.12793,2.73828-3.12793c0.70996,0,1.28955,0.31934,1.56934,0.80957l0.53955-2.76855H64.07178z
		 M61.32324,166.0293c-1.24951,0-2.10889,1.26953-2.10889,2.42871c0,0.85938,0.46973,1.38965,1.28906,1.38965
		c1.11963,0,1.96875-1,2.09912-2.16895C62.7124,166.68945,62.23242,166.0293,61.32324,166.0293z"/>
	<path fill="#C6CACF" d="M65.12451,168.1582c-0.02979,0.16016-0.0498,0.29004-0.0498,0.4502
		c0,0.78906,0.44971,1.24902,1.26904,1.24902c0.59961,0,1.04932-0.17969,1.56934-0.64941l0.41992,0.46973
		c-0.66992,0.5791-1.2793,0.80957-2.03906,0.80957c-1.2793,0-1.87891-0.7998-1.87891-1.89941
		c0-1.64844,1.11914-3.1875,2.7085-3.1875c1.2793,0,1.77881,0.83887,1.77881,1.77832c0,0.2998-0.06982,0.7002-0.15967,0.97949
		H65.12451z M65.23438,167.59863h2.96826c0.05029-0.17969,0.07031-0.34961,0.07031-0.5c0-0.5791-0.3501-1.0791-1.18945-1.0791
		C66.15381,166.01953,65.49414,166.71973,65.23438,167.59863z"/>
	<path fill="#C6CACF" d="M69.76465,169.32812l1.14941-5.88672h0.67969l-1.13965,5.89648
		c-0.08008,0.39941,0.03027,0.54004,0.31982,0.54004c0.1499,0,0.31006-0.03027,0.5-0.09082l-0.07031,0.58008
		c-0.26953,0.08008-0.50977,0.12012-0.68945,0.12012C69.92432,170.4873,69.61475,170.10742,69.76465,169.32812z"/>
	<path fill="#C6CACF" d="M80.03223,167.35938c0,1.56836-1.15918,3.12793-2.73828,3.12793
		c-0.66992,0-1.22949-0.28027-1.51953-0.72949l-0.5293,2.68848h-0.75977l1.36914-6.9668h0.75l-0.11035,0.57031
		c0.42969-0.41992,1.0498-0.64941,1.66895-0.64941C79.38281,165.40039,80.03223,166.18945,80.03223,167.35938z M79.35254,167.42871
		c0-0.85938-0.46973-1.38867-1.28906-1.38867c-1.12012,0-1.96875,0.99902-2.09863,2.16797
		c-0.11035,0.99023,0.36914,1.64941,1.2793,1.64941C78.49316,169.85742,79.35254,168.58789,79.35254,167.42871z"/>
	<path fill="#C6CACF" d="M84.70215,165.62012l-0.41992,0.5791c-0.11914-0.06934-0.3291-0.12988-0.5791-0.12988
		c-0.72949,0-1.49902,0.5-1.75879,1.86914l-0.46973,2.46875h-0.69043l0.95996-4.92773h0.68945l-0.13965,0.66992
		c0.43945-0.58984,1.09961-0.74902,1.5791-0.74902C84.16309,165.40039,84.44238,165.45996,84.70215,165.62012z"/>
	<path fill="#C6CACF" d="M84.47461,168.49805c0-1.62891,1.23926-3.09766,2.86914-3.09766c1.21875,0,1.95898,0.81934,1.95898,1.97852
		c0,1.63867-1.25977,3.1084-2.87891,3.1084C85.20508,170.4873,84.47461,169.66797,84.47461,168.49805z M88.63281,167.37891
		c0-0.81934-0.46973-1.36914-1.33887-1.36914c-1.2793,0-2.13965,1.21875-2.13965,2.49805c0,0.82031,0.46973,1.37012,1.31934,1.37012
		C87.76367,169.87793,88.63281,168.64844,88.63281,167.37891z"/>
	<path fill="#C6CACF" d="M90.06445,168.54785c0-1.62891,1.16016-3.14746,2.73926-3.14746c0.91895,0,1.55859,0.48926,1.74902,1.37891
		l-0.69043,0.21973c-0.08984-0.62988-0.51953-0.98926-1.10938-0.98926c-1.19922,0-1.99805,1.29883-1.99805,2.55859
		c0,0.72949,0.34961,1.30957,1.17871,1.30957c0.64941,0,1.22949-0.39062,1.53906-1.01953l0.58984,0.28906
		c-0.47949,0.86035-1.2793,1.33984-2.16895,1.33984C90.6748,170.4873,90.06445,169.64746,90.06445,168.54785z"/>
	<path fill="#C6CACF" d="M95.68457,168.1582c-0.03027,0.16016-0.0498,0.29004-0.0498,0.4502
		c0,0.78906,0.44922,1.24902,1.26855,1.24902c0.59961,0,1.0498-0.17969,1.56934-0.64941l0.41992,0.46973
		c-0.66992,0.5791-1.2793,0.80957-2.03906,0.80957c-1.2793,0-1.87891-0.7998-1.87891-1.89941
		c0-1.64844,1.11914-3.1875,2.70898-3.1875c1.2793,0,1.77832,0.83887,1.77832,1.77832c0,0.2998-0.06934,0.7002-0.15918,0.97949
		H95.68457z M95.79395,167.59863h2.96875c0.0498-0.17969,0.07031-0.34961,0.07031-0.5c0-0.5791-0.35059-1.0791-1.18945-1.0791
		C96.71387,166.01953,96.05371,166.71973,95.79395,167.59863z"/>
	<path fill="#C6CACF" d="M99.84473,169.17773l0.64941-0.21973c0.11035,0.5,0.5,0.90918,1.30957,0.90918
		c0.68945,0,1.23926-0.28906,1.23926-0.92871c0-0.99023-2.43848-0.66992-2.43848-2.08887c0-0.87012,0.78906-1.44922,1.80859-1.44922
		c0.85938,0,1.45898,0.39941,1.72949,1.03906l-0.59961,0.26953c-0.2207-0.47949-0.57031-0.68945-1.16016-0.68945
		c-0.60938,0-1.09863,0.25977-1.09863,0.75977c0,0.93945,2.43848,0.60938,2.43848,2.08887c0,1.0293-0.87012,1.61914-1.92871,1.61914
		C100.74414,170.4873,100.01465,169.91797,99.84473,169.17773z"/>
	<path fill="#C6CACF" d="M104.38477,169.17773l0.64941-0.21973c0.11035,0.5,0.5,0.90918,1.30957,0.90918
		c0.68945,0,1.23926-0.28906,1.23926-0.92871c0-0.99023-2.43848-0.66992-2.43848-2.08887c0-0.87012,0.78906-1.44922,1.80859-1.44922
		c0.85938,0,1.45898,0.39941,1.72949,1.03906l-0.59961,0.26953c-0.2207-0.47949-0.57031-0.68945-1.16016-0.68945
		c-0.60938,0-1.09863,0.25977-1.09863,0.75977c0,0.93945,2.43848,0.60938,2.43848,2.08887c0,1.0293-0.87012,1.61914-1.92871,1.61914
		C105.28418,170.4873,104.55469,169.91797,104.38477,169.17773z"/>
	<path fill="#C6CACF" d="M109.22461,168.49805c0-1.62891,1.23926-3.09766,2.86816-3.09766
		c1.21973,0,1.95898,0.81934,1.95898,1.97852c0,1.63867-1.25879,3.1084-2.87793,3.1084
		C109.9541,170.4873,109.22461,169.66797,109.22461,168.49805z M113.38184,167.37891c0-0.81934-0.46973-1.36914-1.33887-1.36914
		c-1.2793,0-2.13867,1.21875-2.13867,2.49805c0,0.82031,0.46973,1.37012,1.31934,1.37012
		C112.5127,169.87793,113.38184,168.64844,113.38184,167.37891z"/>
</g>
<g enable-background="new    ">
	<path fill="#C6CACF" d="M6.28271,175.44141l-1.35938,6.96582H4.24365l0.12988-0.65918
		c-0.42969,0.47949-1.08936,0.73926-1.75928,0.73926c-1.21924,0-1.86865-0.79004-1.86865-1.95898
		c0-1.56934,1.15918-3.12793,2.73828-3.12793c0.70996,0,1.28955,0.31934,1.56934,0.80957l0.53955-2.76855H6.28271z
		 M3.53418,178.0293c-1.24951,0-2.10889,1.26953-2.10889,2.42871c0,0.85938,0.46973,1.38965,1.28906,1.38965
		c1.11963,0,1.96875-1,2.09912-2.16895C4.92334,178.68945,4.44336,178.0293,3.53418,178.0293z"/>
	<path fill="#C6CACF" d="M11.35254,177.47949l-0.95947,4.92773H9.70361l0.12012-0.56934
		c-0.45996,0.46973-1.07959,0.64941-1.61914,0.64941c-0.93945,0-1.4292-0.54004-1.4292-1.37891
		c0-0.27051,0.0498-0.54004,0.06982-0.63965l0.57959-2.98926h0.68994l-0.56982,2.92871
		c-0.03027,0.16016-0.06982,0.36035-0.06982,0.56934c0,0.5498,0.25977,0.90039,0.9292,0.90039
		c1.07959,0,1.59912-0.9502,1.8291-2.14941l0.42969-2.24902H11.35254z"/>
	<path fill="#C6CACF" d="M17.22266,179.35938c0,1.56836-1.15918,3.12793-2.73828,3.12793
		c-0.66992,0-1.21924-0.28027-1.51904-0.72949l-0.12012,0.64941h-0.75977l1.35938-6.96582h0.75977l-0.52002,2.59863
		c0.43018-0.41016,1.0498-0.63965,1.66943-0.63965C16.57324,177.40039,17.22266,178.18945,17.22266,179.35938z M16.54297,179.42871
		c0-0.85938-0.46973-1.38867-1.28906-1.38867c-1.11963,0-1.96875,0.99902-2.09912,2.16797
		c-0.10986,0.99023,0.37012,1.64941,1.2793,1.64941C15.68359,181.85742,16.54297,180.58789,16.54297,179.42871z"/>
	<path fill="#C6CACF" d="M18.93457,177.47949h0.68994l-0.95947,4.92773H17.9751L18.93457,177.47949z M19.31445,175.44141h0.71973
		l-0.19971,1.01953h-0.71973L19.31445,175.44141z"/>
	<path fill="#C6CACF" d="M21.43506,181.22754c-0.02002,0.10059-0.03027,0.2002-0.03027,0.25977
		c0,0.2998,0.16992,0.41992,0.47998,0.41992c0.15967,0,0.37939-0.04004,0.61963-0.12012l-0.07031,0.57031
		c-0.25977,0.08008-0.5293,0.12988-0.75928,0.12988c-0.56982,0-0.95947-0.28027-0.95947-0.87988
		c0-0.12988,0.02002-0.2793,0.04004-0.37988l0.61963-3.21777h-0.81982l0.10986-0.53027h0.80957l0.27002-1.37891l0.78955-0.51953
		l-0.36963,1.89844H23.354l-0.1001,0.53027h-1.18945L21.43506,181.22754z"/>
	<path fill="#C6CACF" d="M28.7124,177.47949l-0.95947,4.92773h-0.67969l0.12988-0.65918
		c-0.42969,0.47949-1.08936,0.73926-1.75928,0.73926c-1.21924,0-1.86865-0.79004-1.86865-1.95898
		c0-1.56934,1.15918-3.12793,2.73828-3.12793c0.70996,0,1.28955,0.31934,1.56934,0.80957l0.13965-0.73047H28.7124z
		 M26.36377,178.0293c-1.24951,0-2.10889,1.26953-2.10889,2.42871c0,0.85938,0.46973,1.38965,1.28906,1.38965
		c1.11963,0,1.96924-1,2.09912-2.16895C27.75293,178.68945,27.27295,178.0293,26.36377,178.0293z"/>
	<path fill="#C6CACF" d="M30.48486,181.22754c-0.02002,0.10059-0.03027,0.2002-0.03027,0.25977
		c0,0.2998,0.16992,0.41992,0.47998,0.41992c0.15967,0,0.37939-0.04004,0.61963-0.12012l-0.07031,0.57031
		c-0.25977,0.08008-0.5293,0.12988-0.75928,0.12988c-0.56982,0-0.95947-0.28027-0.95947-0.87988
		c0-0.12988,0.02002-0.2793,0.04004-0.37988l0.61963-3.21777h-0.81982l0.10986-0.53027h0.80957l0.27002-1.37891l0.78955-0.51953
		l-0.36963,1.89844h1.18945l-0.1001,0.53027h-1.18945L30.48486,181.22754z"/>
	<path fill="#C6CACF" d="M33.62451,177.47949h0.68994l-0.95947,4.92773h-0.68994L33.62451,177.47949z M34.00439,175.44141h0.71973
		l-0.19971,1.01953h-0.71973L34.00439,175.44141z"/>
	<path fill="#C6CACF" d="M35.30518,177.47949h0.73975l0.75928,4.04785l2.34912-4.04785h0.76953l-2.97852,4.92773h-0.58984
		L35.30518,177.47949z"/>
	<path fill="#C6CACF" d="M39.80469,180.49805c0-1.62891,1.23926-3.09766,2.86865-3.09766c1.21924,0,1.95898,0.81934,1.95898,1.97852
		c0,1.63867-1.25928,3.1084-2.87842,3.1084C40.53467,182.4873,39.80469,181.66797,39.80469,180.49805z M43.9624,179.37891
		c0-0.81934-0.46973-1.36914-1.33887-1.36914c-1.2793,0-2.13916,1.21875-2.13916,2.49805c0,0.82031,0.46973,1.37012,1.31934,1.37012
		C43.09326,181.87793,43.9624,180.64844,43.9624,179.37891z"/>
</g>
<path id="Path" fill="none" stroke="#444444" stroke-width="0.5" d="M125.019,104.4l-125,0.2"/>
<rect id="Rectangle" x="124.71964" y="102.80045" transform="matrix(1 -0.003 0.003 1 -0.31299 0.37637)" fill="#444444" width="1" height="3.30002"/>
<rect id="Rectangle-2" x="-0.18089" y="103.0005" transform="matrix(1 -0.00311 0.00311 1 -0.32511 0.0015)" fill="#444444" width="1" height="3.30002"/>
</svg>
