<?xml version="1.0" encoding="utf-8"?>
<!-- Generator: Adobe Illustrator 25.0.0, SVG Export Plug-In . SVG Version: 6.00 Build 0)  -->
<svg version="1.1" id="Livello_1" xmlns="http://www.w3.org/2000/svg" xmlns:xlink="http://www.w3.org/1999/xlink" x="0px" y="0px"
	 viewBox="0 0 145 192" enable-background="new 0 0 145 192" xml:space="preserve">
<g id="Group" transform="translate(170.019 276.936)">
	<path id="Path" fill="none" stroke="#444444" stroke-width="0.5" d="M-45-172.5l-125,0.2"/>
	
		<rect id="Rectangle" x="-45.30008" y="-174.10083" transform="matrix(1 -0.003 0.003 1 0.51748 -0.13526)" fill="#444444" width="1" height="3.30002"/>
	
		<rect id="Rectangle-2" x="-170.20071" y="-173.9008" transform="matrix(1 -0.00311 0.00311 1 0.5343 -0.52802)" fill="#444444" width="1" height="3.30002"/>
</g>
<g>
	<rect x="-0.01501" y="114.33238" fill="none" width="133.0293" height="87.13522"/>
	<path d="M2.73291,116.50977h-2.4082v-0.65918h5.54688v0.65918H3.45264v6.30664H2.73291V116.50977z"/>
	<path d="M10.06201,120.53809h-3.6084c0.02051,1.0791,0.62012,1.72852,1.58887,1.72852c0.54004,0,0.96973-0.13965,1.41992-0.61914
		l0.47949,0.41992c-0.58008,0.60938-1.14941,0.8291-1.90918,0.8291c-1.49902,0-2.26855-1.11914-2.26855-2.51855
		c0-1.38965,0.75977-2.56836,2.18848-2.56836c1.50977,0,2.13867,1.17871,2.13867,2.29883
		C10.09131,120.24805,10.08154,120.41797,10.06201,120.53809z M6.45361,119.95801h2.97852
		c0-0.01953-0.00977-0.06934-0.00977-0.16016c-0.0498-0.79883-0.55957-1.40918-1.46973-1.40918
		C7.06299,118.38867,6.51416,119.08887,6.45361,119.95801z"/>
	<path d="M12.6333,120.34766l-1.79883-2.45801h0.83984l1.41895,1.97852l1.40918-1.97852h0.83984l-1.79883,2.45801l1.80859,2.46875
		h-0.84961l-1.40918-1.99902l-1.40918,1.99902h-0.84961L12.6333,120.34766z"/>
	<path d="M18.61279,122.7666c-0.25977,0.08008-0.51953,0.12988-0.74902,0.12988c-0.66016,0-1.13965-0.37012-1.13965-1.23926
		v-3.18848h-0.81934v-0.5791h0.81934v-1.37988l0.68945-0.51953v1.89941h1.18945v0.5791h-1.18945v3.09863
		c0,0.47949,0.21973,0.69922,0.61035,0.69922c0.16992,0,0.35938-0.04004,0.5791-0.10938L18.61279,122.7666z"/>
	<path d="M19.44482,121.60742l0.5791-0.25977c0.18066,0.50977,0.66016,0.93945,1.42969,0.93945
		c0.66992,0,1.09961-0.33008,1.09961-0.84961c0-1.30957-2.83887-0.49023-2.83887-2.23926c0-0.85938,0.7002-1.38867,1.68945-1.38867
		c0.78906,0,1.42871,0.33008,1.76855,1.0293l-0.5498,0.2998c-0.23926-0.43945-0.62891-0.71973-1.23926-0.71973
		c-0.60938,0-0.99902,0.25-0.99902,0.67969c0,1.16895,2.84863,0.42969,2.84863,2.29883c0,0.99902-0.81934,1.49902-1.76953,1.49902
		C20.49463,122.89648,19.70459,122.39648,19.44482,121.60742z"/>
	<path d="M31.03174,119.74805v3.06836h-0.62891l-0.04004-0.75977c-0.38965,0.5498-0.99023,0.83984-1.76953,0.83984
		c-1.06934,0-1.69922-0.55957-1.69922-1.50879c0-0.5,0.2002-0.87988,0.55957-1.09961
		c0.37988-0.21973,0.91016-0.30957,1.87891-0.30957h1.00977v-0.23047c0-0.85938-0.44922-1.3291-1.2793-1.3291
		c-0.61914,0-1.09961,0.26953-1.49902,0.81934l-0.5-0.41895c0.53027-0.69043,1.16992-1.00977,2.00879-1.00977
		C30.31201,117.80957,31.03174,118.51855,31.03174,119.74805z M30.34229,120.60742v-0.06934h-0.94922
		c-0.90918,0-1.2998,0.05957-1.53906,0.25c-0.17969,0.13965-0.27051,0.35938-0.27051,0.63965
		c0,0.5498,0.46973,0.89941,1.20996,0.89941C29.74268,122.32715,30.34229,121.65723,30.34229,120.60742z"/>
	<path d="M35.7124,118.01953l-0.33984,0.55957c-0.23047-0.09961-0.44043-0.15039-0.65039-0.15039
		c-0.75879,0-1.31934,0.57031-1.31934,1.63965v2.74805h-0.68945v-4.92676h0.68945v0.73926
		c0.36035-0.64941,0.95996-0.81934,1.45996-0.81934C35.1626,117.80957,35.44189,117.86914,35.7124,118.01953z"/>
	<path d="M39.73193,118.01953l-0.33984,0.55957c-0.23047-0.09961-0.44043-0.15039-0.65039-0.15039
		c-0.75879,0-1.31934,0.57031-1.31934,1.63965v2.74805h-0.68945v-4.92676h0.68945v0.73926
		c0.36035-0.64941,0.95996-0.81934,1.45996-0.81934C39.18213,117.80957,39.46143,117.86914,39.73193,118.01953z"/>
	<path d="M44.42041,119.74805v3.06836H43.7915l-0.04004-0.75977c-0.38965,0.5498-0.99023,0.83984-1.76953,0.83984
		c-1.06934,0-1.69922-0.55957-1.69922-1.50879c0-0.5,0.2002-0.87988,0.55957-1.09961
		c0.37988-0.21973,0.91016-0.30957,1.87891-0.30957h1.00977v-0.23047c0-0.85938-0.44922-1.3291-1.2793-1.3291
		c-0.61914,0-1.09961,0.26953-1.49902,0.81934l-0.5-0.41895c0.53027-0.69043,1.16992-1.00977,2.00879-1.00977
		C43.70068,117.80957,44.42041,118.51855,44.42041,119.74805z M43.73096,120.60742v-0.06934h-0.94922
		c-0.90918,0-1.2998,0.05957-1.53906,0.25c-0.17969,0.13965-0.27051,0.35938-0.27051,0.63965
		c0,0.5498,0.46973,0.89941,1.20996,0.89941C43.13135,122.32715,43.73096,121.65723,43.73096,120.60742z"/>
	<path d="M50.02979,119.79785v3.01855h-0.68945v-2.84863c0-1.05859-0.33984-1.54883-1.0791-1.54883
		c-0.92969,0-1.46973,0.7998-1.46973,2.18848v2.20898h-0.68945v-4.92676h0.68945v0.71973c0.32031-0.5,0.91992-0.7998,1.62988-0.7998
		C49.48096,117.80957,50.02979,118.48926,50.02979,119.79785z"/>
	<path d="M55.56982,123.57617c0,0.92969-0.86914,1.35938-2.1084,1.35938c-1.36914,0-2.19922-0.53906-2.19922-1.51855
		c0-0.10059,0.01074-0.16016,0.02051-0.2207l0.7998-0.67969c-0.37988-0.16992-0.63965-0.44922-0.63965-0.93945
		c0-0.39941,0.17969-0.69922,0.5293-0.93945c-0.25977-0.2998-0.41992-0.67969-0.41992-1.11914c0-1,0.81934-1.70898,1.87891-1.70898
		c0.47949,0,0.90918,0.14941,1.22949,0.39941l0.67969-0.58984l0.35938,0.4502l-0.66895,0.55957
		c0.16992,0.26953,0.26953,0.58008,0.26953,0.92969c0,1.00977-0.81934,1.67871-1.85938,1.67871
		c-0.37988,0-0.72949-0.08984-1.01855-0.25c-0.2002,0.11035-0.32031,0.29004-0.32031,0.5c0,0.5,0.62012,0.62012,1.3291,0.72949
		C54.41064,122.36719,55.56982,122.50684,55.56982,123.57617z M54.88037,123.63672c0-0.59961-0.7793-0.68945-1.59863-0.82031
		c-0.2207-0.0293-0.4502-0.06934-0.66016-0.12012l-0.66992,0.65039c-0.00977,0.0498-0.00977,0.07031-0.00977,0.08984
		c0,0.69922,0.70996,0.91992,1.5498,0.91992C54.36084,124.35645,54.88037,124.11621,54.88037,123.63672z M52.23193,119.53809
		c0,0.63965,0.45996,1.12988,1.19922,1.12988c0.74023,0,1.17969-0.47949,1.17969-1.12988c0-0.67969-0.45996-1.14941-1.16992-1.14941
		C52.7417,118.38867,52.23193,118.8584,52.23193,119.53809z"/>
	<path d="M60.64111,120.53809h-3.6084c0.02051,1.0791,0.62012,1.72852,1.58887,1.72852c0.54004,0,0.96973-0.13965,1.41992-0.61914
		l0.47949,0.41992c-0.58008,0.60938-1.14941,0.8291-1.90918,0.8291c-1.49902,0-2.26855-1.11914-2.26855-2.51855
		c0-1.38965,0.75977-2.56836,2.18848-2.56836c1.50977,0,2.13867,1.17871,2.13867,2.29883
		C60.67041,120.24805,60.66064,120.41797,60.64111,120.53809z M57.03271,119.95801h2.97852
		c0-0.01953-0.00977-0.06934-0.00977-0.16016c-0.0498-0.79883-0.55957-1.40918-1.46973-1.40918
		C57.64209,118.38867,57.09326,119.08887,57.03271,119.95801z"/>
	<path d="M66.18115,115.85059v6.96582H65.4917v-0.65918c-0.36035,0.45996-0.91016,0.73926-1.62891,0.73926
		c-1.43945,0-2.18945-1.0791-2.18945-2.54883c0-1.53906,0.81934-2.54785,2.18945-2.54785c0.69922,0,1.25879,0.26953,1.62891,0.74902
		v-2.69824H66.18115z M65.55127,120.34766c0-1.16895-0.59961-1.93848-1.58887-1.93848c-1,0-1.59961,0.76953-1.59961,1.93848
		c0,1.12012,0.5498,1.93945,1.59961,1.93945C65.00146,122.28711,65.55127,121.46777,65.55127,120.34766z"/>
	<path d="M75.24023,120.34766c0,1.46973-0.75,2.54883-2.18848,2.54883c-0.72021,0-1.27002-0.2793-1.62939-0.73926v0.65918h-0.69043
		v-6.96582h0.69043v2.69824c0.36914-0.47949,0.92871-0.74902,1.62939-0.74902
		C74.4209,117.7998,75.24023,118.80859,75.24023,120.34766z M74.55078,120.34766c0-1.16895-0.59961-1.93848-1.6001-1.93848
		c-0.98926,0-1.58887,0.76953-1.58887,1.93848c0,1.12012,0.5498,1.93945,1.58887,1.93945
		C74.00098,122.28711,74.55078,121.46777,74.55078,120.34766z"/>
	<path d="M77.83203,122.75684l-2.08887-4.86719h0.75977l1.69922,4.05762l1.48926-4.05762h0.75977l-2.69922,6.96582H77.0127
		L77.83203,122.75684z"/>
	<path d="M88.41992,115.85059v6.96582h-0.68945v-0.65918c-0.36035,0.45996-0.91016,0.73926-1.62891,0.73926
		c-1.43945,0-2.18945-1.0791-2.18945-2.54883c0-1.53906,0.81934-2.54785,2.18945-2.54785c0.69922,0,1.25879,0.26953,1.62891,0.74902
		v-2.69824H88.41992z M87.79004,120.34766c0-1.16895-0.59961-1.93848-1.58887-1.93848c-1,0-1.59961,0.76953-1.59961,1.93848
		c0,1.12012,0.5498,1.93945,1.59961,1.93945C87.24023,122.28711,87.79004,121.46777,87.79004,120.34766z"/>
	<path d="M93.91016,119.74805v3.06836h-0.62891l-0.04004-0.75977c-0.39062,0.5498-0.99023,0.83984-1.76953,0.83984
		c-1.06934,0-1.69922-0.55957-1.69922-1.50879c0-0.5,0.2002-0.87988,0.55957-1.09961
		c0.37988-0.21973,0.91016-0.30957,1.87988-0.30957h1.00879v-0.23047c0-0.85938-0.44922-1.3291-1.2793-1.3291
		c-0.61914,0-1.09961,0.26953-1.49902,0.81934l-0.5-0.41895c0.53027-0.69043,1.16992-1.00977,2.00879-1.00977
		C93.19043,117.80957,93.91016,118.51855,93.91016,119.74805z M93.2207,120.60742v-0.06934h-0.94922
		c-0.90918,0-1.2998,0.05957-1.53906,0.25c-0.17969,0.13965-0.27051,0.35938-0.27051,0.63965
		c0,0.5498,0.4707,0.89941,1.20996,0.89941C92.62109,122.32715,93.2207,121.65723,93.2207,120.60742z"/>
	<path d="M97.64062,122.7666c-0.25977,0.08008-0.51953,0.12988-0.74902,0.12988c-0.66016,0-1.13965-0.37012-1.13965-1.23926
		v-3.18848h-0.81934v-0.5791h0.81934v-1.37988l0.68945-0.51953v1.89941h1.18945v0.5791h-1.18945v3.09863
		c0,0.47949,0.21973,0.69922,0.61035,0.69922c0.16992,0,0.35938-0.04004,0.5791-0.10938L97.64062,122.7666z"/>
	<path d="M102.80078,120.53809h-3.6084c0.02051,1.0791,0.62012,1.72852,1.58887,1.72852c0.54004,0,0.96973-0.13965,1.41992-0.61914
		l0.47949,0.41992c-0.58008,0.60938-1.14941,0.8291-1.90918,0.8291c-1.49902,0-2.26855-1.11914-2.26855-2.51855
		c0-1.38965,0.75977-2.56836,2.18848-2.56836c1.50977,0,2.13867,1.17871,2.13867,2.29883
		C102.83008,120.24805,102.82031,120.41797,102.80078,120.53809z M99.19238,119.95801h2.97852
		c0-0.01953-0.00977-0.06934-0.00977-0.16016c-0.0498-0.79883-0.55957-1.40918-1.46973-1.40918
		C99.80176,118.38867,99.25293,119.08887,99.19238,119.95801z"/>
	<path d="M106.52246,120.34766c0-1.45898,0.9502-2.53809,2.35938-2.53809c1.39844,0,2.36816,1.0791,2.36816,2.53809
		c0,1.44922-0.95898,2.54883-2.36816,2.54883S106.52246,121.80762,106.52246,120.34766z M110.56055,120.34766
		c0-1.11914-0.62988-1.92871-1.67871-1.92871c-1.05957,0-1.66992,0.81934-1.66992,1.92871
		c0,1.12012,0.62012,1.93945,1.66992,1.93945C109.94043,122.28711,110.56055,121.44727,110.56055,120.34766z"/>
	<path d="M112.94141,118.46875h-1.03906v-0.5791h1.0498v-0.75977c0-1.0498,0.60938-1.35938,1.23926-1.35938
		c0.26953,0,0.56934,0.05957,0.87891,0.18945l-0.23926,0.5498c-0.20996-0.09961-0.40039-0.15918-0.57031-0.15918
		c-0.38965,0-0.62891,0.26953-0.62891,0.72949v0.80957h1.41895v0.5791h-1.41895v4.34766h-0.69043V118.46875z"/>
	<path d="M4.29248,134.81738H3.60303v-4.34766H1.69385v4.34766H1.00439v-4.34766H0.15479v-0.58008h0.84961v-0.39941
		c0-1.16895,0.78906-1.71875,1.75879-1.71875c0.59961,0,1.0791,0.16016,1.5293,0.46973L3.9624,128.7207
		c-0.3291-0.24023-0.68945-0.37988-1.16895-0.37988c-0.70996,0-1.09961,0.34961-1.09961,1.15918v0.38965h2.59863V134.81738z"/>
	<path d="M9.06299,130.02051l-0.33984,0.55957c-0.23047-0.10059-0.44043-0.15039-0.65039-0.15039
		c-0.75879,0-1.31836,0.56934-1.31836,1.63965v2.74805H6.06396v-4.92773h0.69043v0.74023
		c0.35938-0.64941,0.95898-0.81934,1.45898-0.81934C8.51318,129.81055,8.79248,129.87012,9.06299,130.02051z"/>
	<path d="M9.25439,133.6084l0.58008-0.25977c0.17969,0.50977,0.65918,0.93945,1.42871,0.93945
		c0.66992,0,1.09961-0.33008,1.09961-0.84961c0-1.30957-2.83887-0.49023-2.83887-2.23926c0-0.85938,0.7002-1.38867,1.68945-1.38867
		c0.78906,0,1.42871,0.3291,1.76855,1.0293l-0.5498,0.2998c-0.23926-0.44043-0.62891-0.71973-1.23926-0.71973
		c-0.60938,0-0.99902,0.25-0.99902,0.67969c0,1.16895,2.84863,0.42969,2.84863,2.29883c0,0.99902-0.81934,1.49902-1.76953,1.49902
		C10.3042,134.89746,9.51416,134.39746,9.25439,133.6084z"/>
	<path d="M16.49268,134.76758c-0.25977,0.08008-0.51953,0.12988-0.74902,0.12988c-0.66016,0-1.13965-0.37012-1.13965-1.23926
		v-3.18848h-0.81934v-0.58008H14.604v-1.37891l0.68945-0.51953v1.89844h1.18945v0.58008h-1.18945v3.09863
		c0,0.47949,0.21973,0.69922,0.61035,0.69922c0.16992,0,0.35938-0.04004,0.5791-0.10938L16.49268,134.76758z"/>
	<path d="M25.0415,132.34863c0,1.46973-0.75,2.54883-2.18848,2.54883c-0.71973,0-1.26953-0.28027-1.62988-0.73926v2.69824h-0.68945
		v-6.9668h0.68945v0.66016c0.37012-0.47949,0.92969-0.75,1.62988-0.75C24.22217,129.7998,25.0415,130.80957,25.0415,132.34863z
		 M24.35205,132.34863c0-1.16895-0.59961-1.93848-1.59961-1.93848c-0.98926,0-1.58887,0.76953-1.58887,1.93848
		c0,1.11914,0.5498,1.93945,1.58887,1.93945C23.80225,134.28809,24.35205,133.46777,24.35205,132.34863z"/>
	<path d="M30.23193,129.88965v4.92773H29.5415v-0.70996c-0.34961,0.53027-0.97949,0.79004-1.62891,0.79004
		c-1.11914,0-1.6084-0.76953-1.6084-1.98926v-3.01855h0.68945v2.84863c0,0.7998,0.13965,1.5498,1.0791,1.5498
		c0.97949,0,1.46875-0.84961,1.46875-2.12891v-2.26953H30.23193z"/>
	<path d="M36.56104,132.34863c0,1.46973-0.75,2.54883-2.18848,2.54883c-0.71973,0-1.26953-0.28027-1.62988-0.73926v0.65918h-0.68945
		v-6.96582h0.68945v2.69824c0.37012-0.47949,0.92969-0.75,1.62988-0.75C35.7417,129.7998,36.56104,130.80957,36.56104,132.34863z
		 M35.87158,132.34863c0-1.16895-0.59961-1.93848-1.59961-1.93848c-0.98926,0-1.58887,0.76953-1.58887,1.93848
		c0,1.11914,0.5498,1.93945,1.58887,1.93945C35.32178,134.28809,35.87158,133.46777,35.87158,132.34863z"/>
	<path d="M37.95361,133.74805v-5.89648h0.69043v5.85645c0,0.33984,0.11914,0.55957,0.44922,0.55957
		c0.15039,0,0.32031-0.04004,0.46973-0.08984l0.00977,0.58984c-0.20996,0.06934-0.45898,0.12988-0.67969,0.12988
		C38.32373,134.89746,37.95361,134.51758,37.95361,133.74805z"/>
	<path d="M40.63428,127.85156h0.7998v1.01953h-0.7998V127.85156z M40.69385,129.88965h0.68945v4.92773h-0.68945V129.88965z"/>
	<path d="M42.79443,132.36914c0-1.2998,0.72949-2.55859,2.21875-2.55859c0.87891,0,1.6084,0.43945,1.99902,1.3584l-0.66016,0.26074
		c-0.22949-0.62988-0.71973-1.00977-1.33887-1.00977c-1.0498,0-1.51953,0.93945-1.51953,1.94922
		c0,1.00879,0.46973,1.91895,1.5293,1.91895c0.62012,0,1.10938-0.37012,1.29883-1l0.63965,0.24023
		c-0.3291,0.89941-1.04883,1.36914-1.93848,1.36914C43.59326,134.89746,42.79443,133.73828,42.79443,132.36914z"/>
	<path d="M51.90186,131.74902v3.06836h-0.62891l-0.04004-0.75977c-0.39062,0.5498-0.99023,0.83984-1.76953,0.83984
		c-1.06934,0-1.69922-0.55957-1.69922-1.50977c0-0.49902,0.2002-0.87891,0.55957-1.09863
		c0.37988-0.21973,0.91016-0.31055,1.87988-0.31055h1.00879v-0.22949c0-0.85938-0.44922-1.3291-1.2793-1.3291
		c-0.61914,0-1.09961,0.26953-1.49902,0.81934l-0.5-0.41992c0.53027-0.68945,1.16992-1.00879,2.00879-1.00879
		C51.18213,129.81055,51.90186,130.51953,51.90186,131.74902z M51.2124,132.6084v-0.06934h-0.94922
		c-0.90918,0-1.2998,0.05957-1.53906,0.24902c-0.17969,0.14062-0.27051,0.36035-0.27051,0.63965
		c0,0.5498,0.4707,0.90039,1.20996,0.90039C50.61279,134.32812,51.2124,133.6582,51.2124,132.6084z"/>
	<path d="M55.63232,134.76758c-0.25977,0.08008-0.51953,0.12988-0.74902,0.12988c-0.66016,0-1.13965-0.37012-1.13965-1.23926
		v-3.18848h-0.81934v-0.58008h0.81934v-1.37891l0.68945-0.51953v1.89844h1.18945v0.58008h-1.18945v3.09863
		c0,0.47949,0.21973,0.69922,0.61035,0.69922c0.16992,0,0.35938-0.04004,0.5791-0.10938L55.63232,134.76758z"/>
	<path d="M56.88428,127.85156h0.7998v1.01953h-0.7998V127.85156z M56.94385,129.88965h0.68945v4.92773h-0.68945V129.88965z"/>
	<path d="M59.02393,132.34863c0-1.45898,0.9502-2.53809,2.35938-2.53809c1.39844,0,2.36816,1.0791,2.36816,2.53809
		c0,1.44922-0.95898,2.54883-2.36816,2.54883S59.02393,133.80762,59.02393,132.34863z M63.06201,132.34863
		c0-1.11914-0.62988-1.92871-1.67871-1.92871c-1.05957,0-1.66992,0.81934-1.66992,1.92871
		c0,1.11914,0.62012,1.93945,1.66992,1.93945C62.44189,134.28809,63.06201,133.44824,63.06201,132.34863z"/>
	<path d="M69.0708,131.79883v3.01855h-0.68945v-2.84863c0-1.05957-0.33984-1.54883-1.0791-1.54883
		c-0.92969,0-1.46973,0.7998-1.46973,2.18848v2.20898h-0.68945v-4.92773h0.68945v0.71973
		c0.32031-0.49902,0.91992-0.79883,1.62988-0.79883C68.52197,129.81055,69.0708,130.49023,69.0708,131.79883z"/>
	<path fill="#C6CACF" d="M0.70459,144.26855c0-2.46875,1.54883-4.49707,3.95801-4.49707c1.54883,0,2.30859,0.75977,2.52832,1.90918
		l-0.68945,0.20898c-0.16992-0.92871-0.75-1.43848-1.89941-1.43848c-1.99902,0-3.19824,1.74902-3.19824,3.76758
		c0,1.15918,0.57031,1.99902,1.96875,1.99902c1.16016,0,2.00977-0.56934,2.5791-1.51953l0.62988,0.2998
		c-0.7002,1.13965-1.75977,1.89941-3.27832,1.89941C1.54443,146.89746,0.70459,145.82812,0.70459,144.26855z"/>
	<path fill="#C6CACF" d="M7.5542,145.73828l1.14941-5.88672H9.3833l-1.13867,5.89648
		c-0.08008,0.39941,0.0293,0.54004,0.31934,0.54004c0.15039,0,0.30957-0.03027,0.5-0.09082l-0.07031,0.58008
		c-0.26953,0.08008-0.50977,0.12012-0.68945,0.12012C7.71436,146.89746,7.40479,146.51758,7.5542,145.73828z"/>
	<path fill="#C6CACF" d="M10.91357,141.88965h0.68945l-0.95898,4.92773H9.95459L10.91357,141.88965z M11.29346,139.85156h0.71973
		l-0.2002,1.01953h-0.71973L11.29346,139.85156z"/>
	<path fill="#C6CACF" d="M12.36377,144.95801c0-1.62891,1.15918-3.14746,2.73828-3.14746c0.91992,0,1.55957,0.48926,1.74902,1.37891
		l-0.68945,0.21973c-0.08984-0.62988-0.51953-0.98926-1.10938-0.98926c-1.19922,0-1.99902,1.29883-1.99902,2.55859
		c0,0.72949,0.35059,1.30957,1.17969,1.30957c0.64941,0,1.22949-0.39062,1.53906-1.01953l0.58984,0.28906
		c-0.47949,0.86035-1.2793,1.33984-2.16895,1.33984C12.97314,146.89746,12.36377,146.05762,12.36377,144.95801z"/>
	<path fill="#C6CACF" d="M18.67334,139.85156h0.68945l-0.91992,4.64746l2.96875-2.60938h0.93945l-2.14941,1.84961l1.46973,3.07812
		h-0.80957l-1.19922-2.64844l-1.36914,1.19922l-0.29004,1.44922h-0.68945L18.67334,139.85156z"/>
	<path fill="#C6CACF" d="M26.44287,145.6377c-0.02051,0.10059-0.03027,0.2002-0.03027,0.25977
		c0,0.2998,0.16992,0.41992,0.47949,0.41992c0.16016,0,0.37988-0.04004,0.62012-0.12012l-0.07031,0.57031
		c-0.25977,0.08008-0.5293,0.12988-0.75977,0.12988c-0.56934,0-0.95898-0.28027-0.95898-0.87988
		c0-0.12988,0.01953-0.2793,0.04004-0.37988l0.61914-3.21777h-0.81934l0.11035-0.53027h0.80957l0.26953-1.37891l0.79004-0.51953
		l-0.37012,1.89844h1.18945l-0.10059,0.53027h-1.18848L26.44287,145.6377z"/>
	<path fill="#C6CACF" d="M28.57275,144.9082c0-1.62891,1.23926-3.09766,2.86816-3.09766c1.21973,0,1.95898,0.81934,1.95898,1.97852
		c0,1.63867-1.25977,3.1084-2.87891,3.1084C29.30225,146.89746,28.57275,146.07812,28.57275,144.9082z M32.72998,143.78906
		c0-0.81934-0.46973-1.36914-1.33887-1.36914c-1.2793,0-2.13867,1.21875-2.13867,2.49805c0,0.82031,0.46973,1.37012,1.31934,1.37012
		C31.86084,146.28809,32.72998,145.05859,32.72998,143.78906z"/>
	<path fill="#C6CACF" d="M36.87256,144.9082c0-1.62891,1.23926-3.09766,2.86816-3.09766c1.21973,0,1.95898,0.81934,1.95898,1.97852
		c0,1.63867-1.25977,3.1084-2.87891,3.1084C37.60205,146.89746,36.87256,146.07812,36.87256,144.9082z M41.02979,143.78906
		c0-0.81934-0.46973-1.36914-1.33887-1.36914c-1.2793,0-2.13867,1.21875-2.13867,2.49805c0,0.82031,0.46973,1.37012,1.31934,1.37012
		C40.16064,146.28809,41.02979,145.05859,41.02979,143.78906z"/>
	<path fill="#C6CACF" d="M47.57959,143.76953c0,1.56836-1.15918,3.12793-2.73828,3.12793
		c-0.66992,0-1.22949-0.28027-1.51953-0.72949l-0.5293,2.68848h-0.75977l1.36914-6.9668h0.75l-0.11035,0.57031
		c0.42969-0.41992,1.0498-0.64941,1.66895-0.64941C46.93018,141.81055,47.57959,142.59961,47.57959,143.76953z M46.8999,143.83887
		c0-0.85938-0.46973-1.38867-1.28906-1.38867c-1.11914,0-1.96875,0.99902-2.09863,2.16797
		c-0.11035,0.99023,0.36914,1.64941,1.2793,1.64941C46.04053,146.26758,46.8999,144.99805,46.8999,143.83887z"/>
	<path fill="#C6CACF" d="M49.05225,144.56836c-0.03027,0.16016-0.05078,0.29004-0.05078,0.4502
		c0,0.78906,0.4502,1.24902,1.26953,1.24902c0.59961,0,1.0498-0.17969,1.56934-0.64941l0.41992,0.46973
		c-0.66992,0.5791-1.2793,0.80957-2.03906,0.80957c-1.2793,0-1.87891-0.7998-1.87891-1.89941
		c0-1.64844,1.11914-3.1875,2.70801-3.1875c1.2793,0,1.7793,0.83887,1.7793,1.77832c0,0.2998-0.06934,0.7002-0.16016,0.97949
		H49.05225z M49.16162,144.00879h2.96875c0.0498-0.17969,0.06934-0.34961,0.06934-0.5c0-0.5791-0.34961-1.0791-1.18945-1.0791
		C50.08154,142.42969,49.42139,143.12988,49.16162,144.00879z"/>
	<path fill="#C6CACF" d="M58.10986,143.18945c0,0.26953-0.0498,0.54004-0.07031,0.63965l-0.5791,2.98828H56.771l0.56934-2.92871
		c0.03027-0.15918,0.07031-0.35938,0.07031-0.56934c0-0.5498-0.25977-0.89941-0.92969-0.89941
		c-1.08008,0-1.59961,0.94922-1.8291,2.14844l-0.42969,2.24902h-0.68945l0.95898-4.92773h0.68945l-0.11914,0.57031
		c0.45898-0.46973,1.0791-0.64941,1.61816-0.64941C57.62061,141.81055,58.10986,142.34961,58.10986,143.18945z"/>
	<path fill="#C6CACF" d="M62.83154,145.6377c-0.02051,0.10059-0.03027,0.2002-0.03027,0.25977
		c0,0.2998,0.16992,0.41992,0.47949,0.41992c0.16016,0,0.37988-0.04004,0.62012-0.12012l-0.07031,0.57031
		c-0.25977,0.08008-0.5293,0.12988-0.75977,0.12988c-0.56934,0-0.95898-0.28027-0.95898-0.87988
		c0-0.12988,0.01953-0.2793,0.04004-0.37988l0.61914-3.21777h-0.81934l0.11035-0.53027h0.80957l0.26953-1.37891l0.79004-0.51953
		l-0.37012,1.89844h1.18945l-0.10059,0.53027h-1.18848L62.83154,145.6377z"/>
	<path fill="#C6CACF" d="M69.27881,143.8291l-0.5791,2.98828h-0.68945l0.56934-2.92871
		c0.08984-0.44922,0.25977-1.46875-0.85938-1.46875c-1.08984,0-1.59961,0.94922-1.8291,2.14844l-0.42969,2.24902h-0.68945
		l1.35938-6.96582h0.68945l-0.51953,2.6084c0.45898-0.46973,1.06934-0.64941,1.6084-0.64941
		C69.04932,141.81055,69.51904,142.59961,69.27881,143.8291z"/>
	<path fill="#C6CACF" d="M70.98193,144.56836c-0.03027,0.16016-0.05078,0.29004-0.05078,0.4502
		c0,0.78906,0.4502,1.24902,1.26953,1.24902c0.59961,0,1.05029-0.17969,1.56982-0.64941l0.41992,0.46973
		c-0.66992,0.5791-1.27979,0.80957-2.03955,0.80957c-1.2793,0-1.87891-0.7998-1.87891-1.89941
		c0-1.64844,1.11914-3.1875,2.70801-3.1875c1.27979,0,1.77979,0.83887,1.77979,1.77832c0,0.2998-0.06934,0.7002-0.16016,0.97949
		H70.98193z M71.09131,144.00879h2.96924c0.0498-0.17969,0.06934-0.34961,0.06934-0.5c0-0.5791-0.34961-1.0791-1.18994-1.0791
		C72.01123,142.42969,71.35107,143.12988,71.09131,144.00879z"/>
	<path fill="#C6CACF" d="M78.21191,144.95801c0-1.62891,1.15918-3.14746,2.73828-3.14746c0.91992,0,1.55957,0.48926,1.74902,1.37891
		l-0.68945,0.21973c-0.08984-0.62988-0.51953-0.98926-1.10938-0.98926c-1.19922,0-1.99902,1.29883-1.99902,2.55859
		c0,0.72949,0.35059,1.30957,1.17969,1.30957c0.64941,0,1.22949-0.39062,1.53906-1.01953l0.58984,0.28906
		c-0.47949,0.86035-1.2793,1.33984-2.16895,1.33984C78.82129,146.89746,78.21191,146.05762,78.21191,144.95801z"/>
	<path fill="#C6CACF" d="M83.1123,144.9082c0-1.62891,1.23926-3.09766,2.86816-3.09766c1.21973,0,1.95898,0.81934,1.95898,1.97852
		c0,1.63867-1.25977,3.1084-2.87891,3.1084C83.8418,146.89746,83.1123,146.07812,83.1123,144.9082z M87.26953,143.78906
		c0-0.81934-0.46973-1.36914-1.33887-1.36914c-1.2793,0-2.13867,1.21875-2.13867,2.49805c0,0.82031,0.46973,1.37012,1.31934,1.37012
		C86.40039,146.28809,87.26953,145.05859,87.26953,143.78906z"/>
	<path fill="#C6CACF" d="M88.8418,145.73828l1.14941-5.88672h0.67969l-1.13867,5.89648
		c-0.08008,0.39941,0.0293,0.54004,0.31934,0.54004c0.15039,0,0.30957-0.03027,0.5-0.09082l-0.07031,0.58008
		c-0.26953,0.08008-0.50977,0.12012-0.68945,0.12012C89.00195,146.89746,88.69238,146.51758,88.8418,145.73828z"/>
	<path fill="#C6CACF" d="M95.97949,141.88965l-0.95898,4.92773h-0.68945l0.11914-0.56934
		c-0.45898,0.46973-1.0791,0.64941-1.61914,0.64941c-0.93945,0-1.42871-0.54004-1.42871-1.37891
		c0-0.27051,0.0498-0.54004,0.07031-0.63965l0.5791-2.98926h0.68945l-0.56934,2.92871
		c-0.03027,0.16016-0.07031,0.36035-0.07031,0.56934c0,0.5498,0.25977,0.90039,0.92969,0.90039
		c1.0791,0,1.59961-0.9502,1.8291-2.14941l0.42969-2.24902H95.97949z"/>
	<path fill="#C6CACF" d="M104.11816,143.21973c0,0.26953-0.04004,0.40918-0.08008,0.63965l-0.56934,2.95801h-0.68945l0.5498-2.81836
		c0.04004-0.19043,0.08008-0.45996,0.08008-0.67969c0-0.47949-0.2002-0.89941-0.84961-0.89941
		c-0.97949,0-1.44922,0.95898-1.66895,2.05859l-0.45996,2.33887h-0.68945l0.55957-2.87891
		c0.04004-0.20898,0.06934-0.41895,0.06934-0.60938c0-0.5498-0.23926-0.90918-0.83887-0.90918
		c-0.98926,0-1.44922,0.94922-1.66895,2.05859l-0.45996,2.33887h-0.68945l0.94922-4.92773h0.66992l-0.12012,0.60059
		c0.39941-0.45996,0.99902-0.67969,1.51855-0.67969c0.58984,0,1.09961,0.2793,1.21973,0.94922
		c0.42969-0.64941,1.11914-0.94922,1.7793-0.94922C103.72852,141.81055,104.11816,142.39941,104.11816,143.21973z"/>
	<path fill="#C6CACF" d="M109.62012,143.18945c0,0.26953-0.0498,0.54004-0.07031,0.63965l-0.5791,2.98828h-0.68945l0.56934-2.92871
		c0.03027-0.15918,0.07031-0.35938,0.07031-0.56934c0-0.5498-0.25977-0.89941-0.92969-0.89941
		c-1.08008,0-1.59961,0.94922-1.8291,2.14844l-0.42969,2.24902h-0.68945l0.95898-4.92773h0.68945l-0.11914,0.57031
		c0.45898-0.46973,1.0791-0.64941,1.61816-0.64941C109.13086,141.81055,109.62012,142.34961,109.62012,143.18945z"/>
	<path fill="#C6CACF" d="M111.6416,145.52832h0.7998l-1.86914,2.83789h-0.47949L111.6416,145.52832z"/>
	<path fill="#C6CACF" d="M1.42432,157.6377c-0.02051,0.10059-0.03027,0.2002-0.03027,0.25977
		c0,0.2998,0.16992,0.41992,0.47949,0.41992c0.16016,0,0.37988-0.04004,0.62012-0.12012l-0.07031,0.57031
		c-0.25977,0.08008-0.5293,0.12988-0.75977,0.12988c-0.56934,0-0.95898-0.28027-0.95898-0.87988
		c0-0.12988,0.01953-0.2793,0.04004-0.37988l0.61914-3.21777H0.54443l0.11035-0.53027h0.80957l0.26953-1.37891l0.79004-0.51953
		l-0.37012,1.89844h1.18945l-0.10059,0.53027H2.0542L1.42432,157.6377z"/>
	<path fill="#C6CACF" d="M7.87158,155.8291l-0.5791,2.98828H6.60303l0.56934-2.92871
		c0.08984-0.44922,0.25977-1.46875-0.85938-1.46875c-1.08984,0-1.59961,0.94922-1.8291,2.14844l-0.42969,2.24902H3.36475
		l1.35938-6.96582h0.68945l-0.51953,2.6084c0.45898-0.46973,1.06934-0.64941,1.6084-0.64941
		C7.64209,153.81055,8.11182,154.59961,7.87158,155.8291z"/>
	<path fill="#C6CACF" d="M9.57471,156.56836c-0.03027,0.16016-0.05078,0.29004-0.05078,0.4502
		c0,0.78906,0.4502,1.24902,1.26953,1.24902c0.59961,0,1.0498-0.17969,1.56934-0.64941l0.41992,0.46973
		c-0.66992,0.5791-1.2793,0.80957-2.03906,0.80957c-1.2793,0-1.87891-0.7998-1.87891-1.89941
		c0-1.64844,1.11914-3.1875,2.70801-3.1875c1.2793,0,1.7793,0.83887,1.7793,1.77832c0,0.2998-0.07031,0.7002-0.16016,0.97949
		H9.57471z M9.68408,156.00879h2.96875c0.0498-0.17969,0.06934-0.34961,0.06934-0.5c0-0.5791-0.34961-1.0791-1.18945-1.0791
		C10.604,154.42969,9.94385,155.12988,9.68408,156.00879z"/>
	<path fill="#C6CACF" d="M18.63232,155.18945c0,0.26953-0.0498,0.54004-0.07031,0.63965l-0.5791,2.98828h-0.68945l0.56934-2.92871
		c0.03027-0.15918,0.07031-0.35938,0.07031-0.56934c0-0.5498-0.25977-0.89941-0.92969-0.89941
		c-1.0791,0-1.59961,0.94922-1.8291,2.14844l-0.42969,2.24902h-0.68945l0.95898-4.92773h0.68945l-0.11914,0.57031
		c0.45898-0.46973,1.0791-0.64941,1.61914-0.64941C18.14307,153.81055,18.63232,154.34961,18.63232,155.18945z"/>
	<path fill="#C6CACF" d="M21.96436,157.58789l0.64941-0.21973c0.11035,0.5,0.5,0.90918,1.30957,0.90918
		c0.68945,0,1.23926-0.28906,1.23926-0.92871c0-0.99023-2.43848-0.66992-2.43848-2.08887c0-0.87012,0.79004-1.44922,1.80859-1.44922
		c0.86035,0,1.45996,0.39941,1.72949,1.03906l-0.59961,0.26953c-0.21973-0.47949-0.56934-0.68945-1.15918-0.68945
		c-0.61035,0-1.09961,0.25977-1.09961,0.75977c0,0.93945,2.43848,0.60938,2.43848,2.08887c0,1.0293-0.86914,1.61914-1.92871,1.61914
		C22.86377,158.89746,22.13428,158.32812,21.96436,157.58789z"/>
	<path fill="#C6CACF" d="M26.82471,156.95801c0-1.62891,1.15918-3.14746,2.73828-3.14746c0.91992,0,1.55957,0.48926,1.74902,1.37891
		l-0.68945,0.21973c-0.08984-0.62988-0.51953-0.98926-1.10938-0.98926c-1.19922,0-1.99902,1.29883-1.99902,2.55859
		c0,0.72949,0.35059,1.30957,1.17969,1.30957c0.64941,0,1.22949-0.39062,1.53906-1.01953l0.58984,0.28906
		c-0.47949,0.86035-1.2793,1.33984-2.16895,1.33984C27.43408,158.89746,26.82471,158.05762,26.82471,156.95801z"/>
	<path fill="#C6CACF" d="M35.69287,154.03027l-0.41992,0.5791c-0.12012-0.06934-0.33008-0.12988-0.58008-0.12988
		c-0.72949,0-1.49902,0.5-1.75879,1.86914l-0.46973,2.46875H31.7749l0.95898-4.92773h0.68945l-0.13965,0.66992
		c0.43945-0.58984,1.09961-0.74902,1.5791-0.74902C35.15283,153.81055,35.43213,153.87012,35.69287,154.03027z"/>
	<path fill="#C6CACF" d="M35.46436,156.9082c0-1.62891,1.23926-3.09766,2.86816-3.09766c1.21973,0,1.95898,0.81934,1.95898,1.97852
		c0,1.63867-1.25977,3.1084-2.87891,3.1084C36.19385,158.89746,35.46436,158.07812,35.46436,156.9082z M39.62158,155.78906
		c0-0.81934-0.46973-1.36914-1.33887-1.36914c-1.2793,0-2.13867,1.21875-2.13867,2.49805c0,0.82031,0.46973,1.37012,1.31934,1.37012
		C38.75244,158.28809,39.62158,157.05859,39.62158,155.78906z"/>
	<path fill="#C6CACF" d="M41.19385,157.73828l1.14941-5.88672h0.67969l-1.13867,5.89648
		c-0.08008,0.39941,0.0293,0.54004,0.31934,0.54004c0.15039,0,0.30957-0.03027,0.5-0.09082l-0.07031,0.58008
		c-0.26953,0.08008-0.50977,0.12012-0.68945,0.12012C41.354,158.89746,41.04443,158.51758,41.19385,157.73828z"/>
	<path fill="#C6CACF" d="M43.75342,157.73828l1.14941-5.88672h0.67969l-1.13867,5.89648
		c-0.08008,0.39941,0.0293,0.54004,0.31934,0.54004c0.15039,0,0.30957-0.03027,0.5-0.09082l-0.07031,0.58008
		c-0.26953,0.08008-0.50977,0.12012-0.68945,0.12012C43.91357,158.89746,43.604,158.51758,43.75342,157.73828z"/>
	<path fill="#C6CACF" d="M54.43018,151.85156l-1.35938,6.96582h-0.67969l0.12988-0.65918
		c-0.42969,0.47949-1.08984,0.73926-1.75879,0.73926c-1.21973,0-1.86914-0.79004-1.86914-1.95898
		c0-1.56934,1.15918-3.12793,2.73828-3.12793c0.70996,0,1.28906,0.31934,1.56934,0.80957l0.54004-2.76855H54.43018z
		 M51.68115,154.43945c-1.24902,0-2.1084,1.26953-2.1084,2.42871c0,0.85938,0.46973,1.38965,1.28906,1.38965
		c1.11914,0,1.96875-1,2.09863-2.16895C53.0708,155.09961,52.59131,154.43945,51.68115,154.43945z"/>
	<path fill="#C6CACF" d="M54.76318,156.9082c0-1.62891,1.23926-3.09766,2.86816-3.09766c1.21973,0,1.95898,0.81934,1.95898,1.97852
		c0,1.63867-1.25977,3.1084-2.87891,3.1084C55.49268,158.89746,54.76318,158.07812,54.76318,156.9082z M58.92041,155.78906
		c0-0.81934-0.46973-1.36914-1.33887-1.36914c-1.2793,0-2.13867,1.21875-2.13867,2.49805c0,0.82031,0.46973,1.37012,1.31934,1.37012
		C58.05127,158.28809,58.92041,157.05859,58.92041,155.78906z"/>
	<path fill="#C6CACF" d="M67.34912,153.88965l-2.39844,4.92773h-0.64941l-0.54004-3.96777l-2.09863,3.96777h-0.63965
		l-0.49023-4.92773h0.73047l0.2998,3.89844l2.05859-3.89844h0.61914l0.54004,3.87793l1.8291-3.87793H67.34912z"/>
	<path fill="#C6CACF" d="M72.05029,155.18945c0,0.26953-0.0498,0.54004-0.07031,0.63965l-0.5791,2.98828h-0.68945l0.56934-2.92871
		c0.03027-0.15918,0.07031-0.35938,0.07031-0.56934c0-0.5498-0.25977-0.89941-0.92969-0.89941
		c-1.0791,0-1.59961,0.94922-1.8291,2.14844l-0.42969,2.24902h-0.68945l0.95898-4.92773h0.68945l-0.11914,0.57031
		c0.45898-0.46973,1.0791-0.64941,1.61914-0.64941C71.56104,153.81055,72.05029,154.34961,72.05029,155.18945z"/>
	<path fill="#C6CACF" d="M76.77246,157.6377c-0.02051,0.10059-0.03027,0.2002-0.03027,0.25977
		c0,0.2998,0.16992,0.41992,0.47949,0.41992c0.16016,0,0.37988-0.04004,0.62012-0.12012l-0.07031,0.57031
		c-0.25977,0.08008-0.5293,0.12988-0.75977,0.12988c-0.56934,0-0.95898-0.28027-0.95898-0.87988
		c0-0.12988,0.01953-0.2793,0.04004-0.37988l0.61914-3.21777h-0.81934l0.11035-0.53027h0.80957l0.26953-1.37891l0.79004-0.51953
		l-0.37012,1.89844h1.18945l-0.10059,0.53027h-1.18848L76.77246,157.6377z"/>
	<path fill="#C6CACF" d="M78.90332,156.9082c0-1.62891,1.23926-3.09766,2.86816-3.09766c1.21973,0,1.95898,0.81934,1.95898,1.97852
		c0,1.63867-1.25977,3.1084-2.87891,3.1084C79.63281,158.89746,78.90332,158.07812,78.90332,156.9082z M83.06055,155.78906
		c0-0.81934-0.46973-1.36914-1.33887-1.36914c-1.2793,0-2.13867,1.21875-2.13867,2.49805c0,0.82031,0.46973,1.37012,1.31934,1.37012
		C82.19141,158.28809,83.06055,157.05859,83.06055,155.78906z"/>
	<path fill="#C6CACF" d="M87.45312,153.88965h0.73926l0.75977,4.04785l2.34863-4.04785h0.76953l-2.97852,4.92773h-0.58984
		L87.45312,153.88965z"/>
	<path fill="#C6CACF" d="M93.0625,153.88965h0.68945l-0.95898,4.92773h-0.68945L93.0625,153.88965z M93.44238,151.85156h0.71973
		l-0.2002,1.01953h-0.71973L93.44238,151.85156z"/>
	<path fill="#C6CACF" d="M95.21289,156.56836c-0.03027,0.16016-0.05078,0.29004-0.05078,0.4502
		c0,0.78906,0.4502,1.24902,1.26953,1.24902c0.59961,0,1.0498-0.17969,1.56934-0.64941l0.41992,0.46973
		c-0.66992,0.5791-1.2793,0.80957-2.03906,0.80957c-1.2793,0-1.87891-0.7998-1.87891-1.89941
		c0-1.64844,1.11914-3.1875,2.70801-3.1875c1.2793,0,1.7793,0.83887,1.7793,1.77832c0,0.2998-0.06934,0.7002-0.16016,0.97949
		H95.21289z M95.32227,156.00879h2.96875c0.0498-0.17969,0.06934-0.34961,0.06934-0.5c0-0.5791-0.34961-1.0791-1.18945-1.0791
		C96.24219,154.42969,95.58203,155.12988,95.32227,156.00879z"/>
	<path fill="#C6CACF" d="M106.83887,153.88965l-2.39844,4.92773h-0.64941l-0.54004-3.96777l-2.09863,3.96777h-0.63965
		l-0.49023-4.92773h0.73047l0.2998,3.89844l2.05859-3.89844h0.61914l0.54004,3.87793l1.8291-3.87793H106.83887z"/>
	<path fill="#C6CACF" d="M110.76172,157.6377c-0.02051,0.10059-0.03027,0.2002-0.03027,0.25977
		c0,0.2998,0.16992,0.41992,0.47949,0.41992c0.16016,0,0.37988-0.04004,0.62012-0.12012l-0.07031,0.57031
		c-0.25977,0.08008-0.5293,0.12988-0.75977,0.12988c-0.56934,0-0.95898-0.28027-0.95898-0.87988
		c0-0.12988,0.01953-0.2793,0.04004-0.37988l0.61914-3.21777h-0.81934l0.11035-0.53027h0.80957l0.26953-1.37891l0.79004-0.51953
		l-0.37012,1.89844h1.18945l-0.10059,0.53027h-1.18848L110.76172,157.6377z"/>
	<path fill="#C6CACF" d="M117.20898,155.8291l-0.5791,2.98828h-0.68945l0.56934-2.92871
		c0.08984-0.44922,0.25977-1.46875-0.85938-1.46875c-1.08984,0-1.59961,0.94922-1.8291,2.14844l-0.42969,2.24902h-0.68945
		l1.35938-6.96582h0.68945l-0.51953,2.6084c0.45898-0.46973,1.06934-0.64941,1.6084-0.64941
		C116.97949,153.81055,117.44922,154.59961,117.20898,155.8291z"/>
	<path fill="#C6CACF" d="M118.91211,156.56836c-0.03027,0.16016-0.05078,0.29004-0.05078,0.4502
		c0,0.78906,0.4502,1.24902,1.26953,1.24902c0.59961,0,1.0498-0.17969,1.56934-0.64941l0.41992,0.46973
		c-0.66992,0.5791-1.2793,0.80957-2.03906,0.80957c-1.2793,0-1.87891-0.7998-1.87891-1.89941
		c0-1.64844,1.11914-3.1875,2.70801-3.1875c1.2793,0,1.7793,0.83887,1.7793,1.77832c0,0.2998-0.06934,0.7002-0.16016,0.97949
		H118.91211z M119.02148,156.00879h2.96875c0.0498-0.17969,0.06934-0.34961,0.06934-0.5c0-0.5791-0.34961-1.0791-1.18945-1.0791
		C119.94141,154.42969,119.28125,155.12988,119.02148,156.00879z"/>
	<path fill="#C6CACF" d="M5.4917,167.76953c0,1.56836-1.15918,3.12793-2.73828,3.12793c-0.66992,0-1.21973-0.28027-1.51953-0.72949
		l-0.12012,0.64941H0.35498l1.35938-6.96582h0.75879l-0.51953,2.59863c0.42969-0.41016,1.0498-0.63965,1.66895-0.63965
		C4.84229,165.81055,5.4917,166.59961,5.4917,167.76953z M4.81201,167.83887c0-0.85938-0.46973-1.38867-1.28906-1.38867
		c-1.11914,0-1.96875,0.99902-2.09863,2.16797c-0.11035,0.99023,0.36914,1.64941,1.2793,1.64941
		C3.95264,170.26758,4.81201,168.99805,4.81201,167.83887z"/>
	<path fill="#C6CACF" d="M6.96436,168.56836c-0.03027,0.16016-0.05078,0.29004-0.05078,0.4502
		c0,0.78906,0.4502,1.24902,1.26953,1.24902c0.59961,0,1.0498-0.17969,1.56934-0.64941l0.41992,0.46973
		c-0.66992,0.5791-1.2793,0.80957-2.03906,0.80957c-1.2793,0-1.87891-0.7998-1.87891-1.89941
		c0-1.64844,1.11914-3.1875,2.70801-3.1875c1.2793,0,1.7793,0.83887,1.7793,1.77832c0,0.2998-0.06934,0.7002-0.16016,0.97949
		H6.96436z M7.07373,168.00879h2.96875c0.0498-0.17969,0.06934-0.34961,0.06934-0.5c0-0.5791-0.34961-1.0791-1.18945-1.0791
		C7.99365,166.42969,7.3335,167.12988,7.07373,168.00879z"/>
	<path fill="#C6CACF" d="M15.95166,167.8291l-0.5791,2.98828h-0.68945l0.56934-2.92871
		c0.08984-0.44922,0.25977-1.46875-0.85938-1.46875c-1.08984,0-1.59961,0.94922-1.8291,2.14844l-0.42969,2.24902h-0.68945
		l1.35938-6.96582h0.68945l-0.51953,2.6084c0.45898-0.46973,1.06934-0.64941,1.6084-0.64941
		C15.72217,165.81055,16.19189,166.59961,15.95166,167.8291z"/>
	<path fill="#C6CACF" d="M22.08154,165.88965l-0.95898,4.92773h-0.67969l0.12988-0.65918
		c-0.42969,0.47949-1.08984,0.73926-1.75879,0.73926c-1.21973,0-1.86914-0.79004-1.86914-1.95898
		c0-1.56934,1.15918-3.12793,2.73828-3.12793c0.70996,0,1.28906,0.31934,1.56934,0.80957l0.13965-0.73047H22.08154z
		 M19.73291,166.43945c-1.24902,0-2.1084,1.26953-2.1084,2.42871c0,0.85938,0.46973,1.38965,1.28906,1.38965
		c1.11914,0,1.96875-1,2.09863-2.16895C21.12256,167.09961,20.64307,166.43945,19.73291,166.43945z"/>
	<path fill="#C6CACF" d="M22.9751,165.88965h0.73926l0.75977,4.04785l2.34863-4.04785h0.76953l-2.97852,4.92773h-0.58984
		L22.9751,165.88965z"/>
	<path fill="#C6CACF" d="M28.5835,165.88965h0.68945l-0.95898,4.92773h-0.68945L28.5835,165.88965z M28.96338,163.85156h0.71973
		l-0.2002,1.01953h-0.71973L28.96338,163.85156z"/>
	<path fill="#C6CACF" d="M30.01416,168.9082c0-1.62891,1.23926-3.09766,2.86816-3.09766c1.21973,0,1.95898,0.81934,1.95898,1.97852
		c0,1.63867-1.25977,3.1084-2.87891,3.1084C30.74365,170.89746,30.01416,170.07812,30.01416,168.9082z M34.17139,167.78906
		c0-0.81934-0.46973-1.36914-1.33887-1.36914c-1.2793,0-2.13867,1.21875-2.13867,2.49805c0,0.82031,0.46973,1.37012,1.31934,1.37012
		C33.30225,170.28809,34.17139,169.05859,34.17139,167.78906z"/>
	<path fill="#C6CACF" d="M40.3208,165.88965l-0.95898,4.92773h-0.68945l0.11914-0.56934
		c-0.45898,0.46973-1.0791,0.64941-1.61914,0.64941c-0.93945,0-1.42871-0.54004-1.42871-1.37891
		c0-0.27051,0.0498-0.54004,0.07031-0.63965l0.5791-2.98926h0.68945l-0.56934,2.92871
		c-0.03027,0.16016-0.07031,0.36035-0.07031,0.56934c0,0.5498,0.25977,0.90039,0.92969,0.90039
		c1.0791,0,1.59961-0.9502,1.8291-2.14941l0.42969-2.24902H40.3208z"/>
	<path fill="#C6CACF" d="M44.97217,166.03027l-0.41992,0.5791c-0.12012-0.06934-0.33008-0.12988-0.58008-0.12988
		c-0.72949,0-1.49902,0.5-1.75879,1.86914l-0.46973,2.46875H41.0542l0.95898-4.92773h0.68945l-0.13965,0.66992
		c0.43945-0.58984,1.09961-0.74902,1.5791-0.74902C44.43213,165.81055,44.71143,165.87012,44.97217,166.03027z"/>
	<path fill="#C6CACF" d="M47.69482,168.9082c0-1.62891,1.23926-3.09766,2.86816-3.09766c1.21973,0,1.95898,0.81934,1.95898,1.97852
		c0,1.63867-1.25977,3.1084-2.87891,3.1084C48.42432,170.89746,47.69482,170.07812,47.69482,168.9082z M51.85205,167.78906
		c0-0.81934-0.46973-1.36914-1.33887-1.36914c-1.2793,0-2.13867,1.21875-2.13867,2.49805c0,0.82031,0.46973,1.37012,1.31934,1.37012
		C50.98291,170.28809,51.85205,169.05859,51.85205,167.78906z"/>
	<path fill="#C6CACF" d="M54.41455,166.41992h-1.04004l0.11035-0.53027h1.03906l0.15039-0.72949
		c0.19922-0.96875,0.73926-1.38867,1.59863-1.38867c0.30957,0,0.54004,0.08984,0.74023,0.19922l-0.2998,0.50977
		c-0.14062-0.08984-0.28027-0.12988-0.41992-0.12988c-0.61035,0-0.85938,0.41992-0.9502,0.86035l-0.13965,0.67871h1.42969
		l-0.11035,0.53027H55.104l-0.85938,4.39746h-0.67969L54.41455,166.41992z"/>
	<path fill="#C6CACF" d="M60.42432,169.6377c-0.02051,0.10059-0.03027,0.2002-0.03027,0.25977
		c0,0.2998,0.16992,0.41992,0.47949,0.41992c0.16016,0,0.37988-0.04004,0.62012-0.12012l-0.07031,0.57031
		c-0.25977,0.08008-0.5293,0.12988-0.75977,0.12988c-0.56934,0-0.95898-0.28027-0.95898-0.87988
		c0-0.12988,0.01953-0.2793,0.04004-0.37988l0.61914-3.21777h-0.81934l0.11035-0.53027h0.80957l0.26953-1.37891l0.79004-0.51953
		l-0.37012,1.89844h1.18945l-0.10059,0.53027H61.0542L60.42432,169.6377z"/>
	<path fill="#C6CACF" d="M66.87158,167.8291l-0.5791,2.98828h-0.68945l0.56934-2.92871
		c0.08984-0.44922,0.25977-1.46875-0.85938-1.46875c-1.08984,0-1.59961,0.94922-1.8291,2.14844l-0.42969,2.24902h-0.68945
		l1.35938-6.96582h0.68945l-0.51953,2.6084c0.45898-0.46973,1.06934-0.64941,1.6084-0.64941
		C66.64209,165.81055,67.11182,166.59961,66.87158,167.8291z"/>
	<path fill="#C6CACF" d="M68.57471,168.56836c-0.03027,0.16016-0.05078,0.29004-0.05078,0.4502
		c0,0.78906,0.4502,1.24902,1.26953,1.24902c0.59961,0,1.0498-0.17969,1.56934-0.64941l0.41992,0.46973
		c-0.66992,0.5791-1.2793,0.80957-2.03906,0.80957c-1.2793,0-1.87891-0.7998-1.87891-1.89941
		c0-1.64844,1.11914-3.1875,2.70801-3.1875c1.2793,0,1.7793,0.83887,1.7793,1.77832c0,0.2998-0.07031,0.7002-0.16016,0.97949
		H68.57471z M68.68408,168.00879h2.96875c0.0498-0.17969,0.06934-0.34961,0.06934-0.5c0-0.5791-0.34961-1.0791-1.18945-1.0791
		C69.604,166.42969,68.94385,167.12988,68.68408,168.00879z"/>
	<path fill="#C6CACF" d="M81.33203,163.85156l-1.35938,6.96582h-0.67969l0.12988-0.65918
		c-0.42969,0.47949-1.08984,0.73926-1.75879,0.73926c-1.21973,0-1.86914-0.79004-1.86914-1.95898
		c0-1.56934,1.15918-3.12793,2.73828-3.12793c0.70996,0,1.28906,0.31934,1.56934,0.80957l0.54004-2.76855H81.33203z
		 M78.58301,166.43945c-1.24902,0-2.1084,1.26953-2.1084,2.42871c0,0.85938,0.46973,1.38965,1.28906,1.38965
		c1.11914,0,1.96875-1,2.09863-2.16895C79.97266,167.09961,79.49316,166.43945,78.58301,166.43945z"/>
	<path fill="#C6CACF" d="M86.40137,165.88965l-0.95898,4.92773h-0.68945l0.11914-0.56934
		c-0.45898,0.46973-1.0791,0.64941-1.61914,0.64941c-0.93945,0-1.42871-0.54004-1.42871-1.37891
		c0-0.27051,0.0498-0.54004,0.07031-0.63965l0.5791-2.98926h0.68945l-0.56934,2.92871
		c-0.03027,0.16016-0.07031,0.36035-0.07031,0.56934c0,0.5498,0.25977,0.90039,0.92969,0.90039
		c1.0791,0,1.59961-0.9502,1.8291-2.14941l0.42969-2.24902H86.40137z"/>
	<path fill="#C6CACF" d="M92.27148,167.76953c0,1.56836-1.15918,3.12793-2.73828,3.12793
		c-0.66992,0-1.21973-0.28027-1.51953-0.72949l-0.12012,0.64941h-0.75879l1.35938-6.96582h0.75879l-0.51953,2.59863
		c0.42969-0.41016,1.0498-0.63965,1.66895-0.63965C91.62207,165.81055,92.27148,166.59961,92.27148,167.76953z M91.5918,167.83887
		c0-0.85938-0.46973-1.38867-1.28906-1.38867c-1.11914,0-1.96875,0.99902-2.09863,2.16797
		c-0.11035,0.99023,0.36914,1.64941,1.2793,1.64941C90.73242,170.26758,91.5918,168.99805,91.5918,167.83887z"/>
	<path fill="#C6CACF" d="M93.9834,165.88965h0.68945l-0.95898,4.92773h-0.68945L93.9834,165.88965z M94.36328,163.85156h0.71973
		l-0.2002,1.01953h-0.71973L94.36328,163.85156z"/>
	<path fill="#C6CACF" d="M96.4834,169.6377c-0.02051,0.10059-0.03027,0.2002-0.03027,0.25977
		c0,0.2998,0.16992,0.41992,0.47949,0.41992c0.16016,0,0.37988-0.04004,0.62012-0.12012l-0.07031,0.57031
		c-0.25977,0.08008-0.5293,0.12988-0.75977,0.12988c-0.56934,0-0.95898-0.28027-0.95898-0.87988
		c0-0.12988,0.01953-0.2793,0.04004-0.37988l0.61914-3.21777h-0.81934l0.11035-0.53027h0.80957l0.26953-1.37891l0.79004-0.51953
		l-0.37012,1.89844h1.18945l-0.10059,0.53027h-1.18848L96.4834,169.6377z"/>
	<path fill="#C6CACF" d="M103.76074,165.88965l-0.95898,4.92773h-0.67969l0.12988-0.65918
		c-0.42969,0.47949-1.08984,0.73926-1.75879,0.73926c-1.21973,0-1.86914-0.79004-1.86914-1.95898
		c0-1.56934,1.15918-3.12793,2.73828-3.12793c0.70996,0,1.28906,0.31934,1.56934,0.80957l0.13965-0.73047H103.76074z
		 M101.41211,166.43945c-1.24902,0-2.1084,1.26953-2.1084,2.42871c0,0.85938,0.46973,1.38965,1.28906,1.38965
		c1.11914,0,1.96875-1,2.09863-2.16895C102.80176,167.09961,102.32227,166.43945,101.41211,166.43945z"/>
	<path fill="#C6CACF" d="M105.5332,169.6377c-0.02051,0.10059-0.03027,0.2002-0.03027,0.25977
		c0,0.2998,0.16992,0.41992,0.47949,0.41992c0.16016,0,0.37988-0.04004,0.62012-0.12012l-0.07031,0.57031
		c-0.25977,0.08008-0.5293,0.12988-0.75977,0.12988c-0.56934,0-0.95898-0.28027-0.95898-0.87988
		c0-0.12988,0.01953-0.2793,0.04004-0.37988l0.61914-3.21777h-0.81934l0.11035-0.53027h0.80957l0.26953-1.37891l0.79004-0.51953
		l-0.37012,1.89844h1.18945l-0.10059,0.53027h-1.18848L105.5332,169.6377z"/>
	<path fill="#C6CACF" d="M108.67285,165.88965h0.68945l-0.95898,4.92773h-0.68945L108.67285,165.88965z M109.05273,163.85156
		h0.71973l-0.2002,1.01953h-0.71973L109.05273,163.85156z"/>
	<path fill="#C6CACF" d="M110.35352,165.88965h0.73926l0.75977,4.04785l2.34863-4.04785h0.76953l-2.97852,4.92773h-0.58984
		L110.35352,165.88965z"/>
	<path fill="#C6CACF" d="M115.57324,168.56836c-0.03027,0.16016-0.05078,0.29004-0.05078,0.4502
		c0,0.78906,0.4502,1.24902,1.26953,1.24902c0.59961,0,1.0498-0.17969,1.56934-0.64941l0.41992,0.46973
		c-0.66992,0.5791-1.2793,0.80957-2.03906,0.80957c-1.2793,0-1.87891-0.7998-1.87891-1.89941
		c0-1.64844,1.11914-3.1875,2.70801-3.1875c1.2793,0,1.7793,0.83887,1.7793,1.77832c0,0.2998-0.07031,0.7002-0.16016,0.97949
		H115.57324z M115.68262,168.00879h2.96875c0.0498-0.17969,0.06934-0.34961,0.06934-0.5c0-0.5791-0.34961-1.0791-1.18945-1.0791
		C116.60254,166.42969,115.94238,167.12988,115.68262,168.00879z"/>
	<path fill="#C6CACF" d="M5.4917,179.76953c0,1.56836-1.15918,3.12793-2.73828,3.12793c-0.66992,0-1.22949-0.28027-1.51953-0.72949
		l-0.5293,2.68848h-0.75977l1.36914-6.9668h0.75l-0.11035,0.57031c0.42969-0.41992,1.0498-0.64941,1.66895-0.64941
		C4.84229,177.81055,5.4917,178.59961,5.4917,179.76953z M4.81201,179.83887c0-0.85938-0.46973-1.38867-1.28906-1.38867
		c-1.11914,0-1.96875,0.99902-2.09863,2.16797c-0.11035,0.99023,0.36914,1.64941,1.2793,1.64941
		C3.95264,182.26758,4.81201,180.99805,4.81201,179.83887z"/>
	<path fill="#C6CACF" d="M10.1626,178.03027l-0.41992,0.5791c-0.12012-0.06934-0.33008-0.12988-0.58008-0.12988
		c-0.72949,0-1.49902,0.5-1.75879,1.86914l-0.46973,2.46875H6.24463l0.95898-4.92773h0.68945l-0.13965,0.66992
		c0.43945-0.58984,1.09961-0.74902,1.5791-0.74902C9.62256,177.81055,9.90186,177.87012,10.1626,178.03027z"/>
	<path fill="#C6CACF" d="M9.93506,180.9082c0-1.62891,1.23926-3.09766,2.86816-3.09766c1.21973,0,1.95898,0.81934,1.95898,1.97852
		c0,1.63867-1.25977,3.1084-2.87891,3.1084C10.66455,182.89746,9.93506,182.07812,9.93506,180.9082z M14.09229,179.78906
		c0-0.81934-0.46973-1.36914-1.33887-1.36914c-1.2793,0-2.13867,1.21875-2.13867,2.49805c0,0.82031,0.46973,1.37012,1.31934,1.37012
		C13.22314,182.28809,14.09229,181.05859,14.09229,179.78906z"/>
	<path fill="#C6CACF" d="M15.5249,180.95801c0-1.62891,1.15918-3.14746,2.73828-3.14746c0.91992,0,1.55957,0.48926,1.74902,1.37891
		l-0.68945,0.21973c-0.08984-0.62988-0.51953-0.98926-1.10938-0.98926c-1.19922,0-1.99902,1.29883-1.99902,2.55859
		c0,0.72949,0.35059,1.30957,1.17969,1.30957c0.64941,0,1.22949-0.39062,1.53906-1.01953l0.58984,0.28906
		c-0.47949,0.86035-1.2793,1.33984-2.16895,1.33984C16.13428,182.89746,15.5249,182.05762,15.5249,180.95801z"/>
	<path fill="#C6CACF" d="M21.14502,180.56836c-0.03027,0.16016-0.05078,0.29004-0.05078,0.4502
		c0,0.78906,0.4502,1.24902,1.26953,1.24902c0.59961,0,1.0498-0.17969,1.56934-0.64941l0.41992,0.46973
		c-0.66992,0.5791-1.2793,0.80957-2.03906,0.80957c-1.2793,0-1.87891-0.7998-1.87891-1.89941
		c0-1.64844,1.11914-3.1875,2.70801-3.1875c1.2793,0,1.7793,0.83887,1.7793,1.77832c0,0.2998-0.07031,0.7002-0.16016,0.97949
		H21.14502z M21.25439,180.00879h2.96875c0.0498-0.17969,0.06934-0.34961,0.06934-0.5c0-0.5791-0.34961-1.0791-1.18945-1.0791
		C22.17432,178.42969,21.51416,179.12988,21.25439,180.00879z"/>
	<path fill="#C6CACF" d="M25.30518,181.58789l0.64941-0.21973c0.11035,0.5,0.5,0.90918,1.30957,0.90918
		c0.68945,0,1.23926-0.28906,1.23926-0.92871c0-0.99023-2.43848-0.66992-2.43848-2.08887c0-0.87012,0.78906-1.44922,1.80859-1.44922
		c0.86035,0,1.45996,0.39941,1.72949,1.03906l-0.59961,0.26953c-0.21973-0.47949-0.56934-0.68945-1.15918-0.68945
		c-0.61035,0-1.09961,0.25977-1.09961,0.75977c0,0.93945,2.43848,0.60938,2.43848,2.08887c0,1.0293-0.86914,1.61914-1.92871,1.61914
		C26.20459,182.89746,25.4751,182.32812,25.30518,181.58789z"/>
	<path fill="#C6CACF" d="M29.84521,181.58789l0.64941-0.21973c0.11035,0.5,0.5,0.90918,1.30957,0.90918
		c0.68945,0,1.23926-0.28906,1.23926-0.92871c0-0.99023-2.43848-0.66992-2.43848-2.08887c0-0.87012,0.79004-1.44922,1.80859-1.44922
		c0.86035,0,1.45996,0.39941,1.72949,1.03906l-0.59961,0.26953c-0.21973-0.47949-0.56934-0.68945-1.15918-0.68945
		c-0.61035,0-1.09961,0.25977-1.09961,0.75977c0,0.93945,2.43848,0.60938,2.43848,2.08887c0,1.0293-0.86914,1.61914-1.92871,1.61914
		C30.74463,182.89746,30.01514,182.32812,29.84521,181.58789z"/>
</g>
</svg>
