<?xml version="1.0" encoding="utf-8"?>
<!-- Generator: Adobe Illustrator 23.1.1, SVG Export Plug-In . SVG Version: 6.00 Build 0)  -->
<svg version="1.1" xmlns="http://www.w3.org/2000/svg" xmlns:xlink="http://www.w3.org/1999/xlink" x="0px" y="0px"
	 viewBox="0 0 288 90" style="enable-background:new 0 0 288 90;" xml:space="preserve">
<style type="text/css">
	.st0{fill:#D6DBDF;stroke:#444444;stroke-width:0.1776;}
	.st1{fill:none;stroke:#444444;stroke-width:0.1776;}
	.st2{fill:#FFD93B;stroke:#444444;stroke-width:0.1776;stroke-linejoin:round;}
	.st3{fill:#FF3366;stroke:#444444;stroke-width:0.1776;}
	.st4{fill:#FFA500;stroke:#444444;stroke-width:0.1776;stroke-linejoin:round;}
	.st5{fill:#00BFD3;stroke:#444444;stroke-width:0.1776;stroke-linejoin:round;}
	.st6{enable-background:new    ;}
	.st7{font-family:'HKGrotesk-Regular';}
	.st8{font-size:9.167px;}
</style>
<g id="Layer_1">
</g>
<g id="volumi">
	<g id="Group_227">
		<g id="Group-2_1_" transform="translate(31 3.881)">
			<ellipse id="Oval_2_" class="st0" cx="-9" cy="19.7" rx="21.7" ry="12.6"/>
			<ellipse id="Oval-2_2_" class="st0" cx="-9" cy="16.8" rx="18.9" ry="10.9"/>
			<ellipse id="Oval-3_2_" class="st0" cx="-9" cy="13.9" rx="16.8" ry="9.7"/>
			<ellipse id="Oval-4_2_" class="st0" cx="-9" cy="11.1" rx="15.2" ry="8.8"/>
			<ellipse id="Oval-5_2_" class="st0" cx="-9" cy="8.2" rx="13.8" ry="8"/>
			<ellipse id="Oval-6_2_" class="st0" cx="-9" cy="5.2" rx="11.9" ry="6.9"/>
			<ellipse id="Oval-7_1_" class="st0" cx="-9" cy="2.3" rx="9.2" ry="5.3"/>
			<ellipse id="Oval-8_1_" class="st0" cx="-9" cy="-0.5" rx="5.3" ry="3.1"/>
		</g>
		<g id="Group-4" transform="translate(104 3.881)">
			<ellipse id="Oval-9_1_" class="st1" cx="-23.8" cy="19.7" rx="21.7" ry="12.6"/>
			<ellipse id="Oval-10_1_" class="st1" cx="-23.8" cy="16.8" rx="18.9" ry="10.9"/>
			<ellipse id="Oval-11_1_" class="st1" cx="-23.8" cy="13.9" rx="16.8" ry="9.7"/>
			<ellipse id="Oval-12" class="st1" cx="-23.8" cy="11.1" rx="15.2" ry="8.8"/>
			<ellipse id="Oval-13" class="st1" cx="-23.8" cy="8.2" rx="13.8" ry="8"/>
			<ellipse id="Oval-14" class="st1" cx="-23.8" cy="5.2" rx="11.9" ry="6.9"/>
			<ellipse id="Oval-15" class="st1" cx="-23.8" cy="2.3" rx="9.2" ry="5.3"/>
			<ellipse id="Oval-16" class="st1" cx="-23.8" cy="-0.5" rx="5.3" ry="3.1"/>
		</g>
		<g id="Group-6" transform="translate(178 3.881)">
			<ellipse id="Oval-17" class="st2" cx="-39.5" cy="19.7" rx="21.7" ry="12.6"/>
			<ellipse id="Oval-18" class="st2" cx="-39.5" cy="16.8" rx="18.9" ry="10.9"/>
			<ellipse id="Oval-19" class="st2" cx="-39.5" cy="13.9" rx="16.8" ry="9.7"/>
			<ellipse id="Oval-20" class="st2" cx="-39.5" cy="11.1" rx="15.2" ry="8.8"/>
			<ellipse id="Oval-21" class="st2" cx="-39.5" cy="8.2" rx="13.8" ry="8"/>
			<ellipse id="Oval-22" class="st2" cx="-39.5" cy="5.2" rx="11.9" ry="6.9"/>
			<ellipse id="Oval-23" class="st2" cx="-39.5" cy="2.3" rx="9.2" ry="5.3"/>
			<ellipse id="Oval-24" class="st2" cx="-39.5" cy="-0.5" rx="5.3" ry="3.1"/>
		</g>
		<g id="Group-2-2" transform="translate(255 3.881)">
			<ellipse id="Oval-25" class="st3" cx="-58.3" cy="19.7" rx="21.7" ry="12.6"/>
			<ellipse id="Oval-26" class="st3" cx="-58.3" cy="16.8" rx="18.9" ry="10.9"/>
			<ellipse id="Oval-27" class="st4" cx="-58.3" cy="13.9" rx="16.8" ry="9.7"/>
			<ellipse id="Oval-28" class="st4" cx="-58.3" cy="11.1" rx="15.2" ry="8.8"/>
			<ellipse id="Oval-29" class="st2" cx="-58.3" cy="8.2" rx="13.8" ry="8"/>
			<ellipse id="Oval-30" class="st2" cx="-58.3" cy="5.2" rx="11.9" ry="6.9"/>
			<ellipse id="Oval-31" class="st5" cx="-58.3" cy="2.3" rx="9.2" ry="5.3"/>
			<ellipse id="Oval-32" class="st5" cx="-58.3" cy="-0.5" rx="5.3" ry="3.1"/>
		</g>
		<g id="Group_1_" transform="translate(31)">
			<g>
				<text transform="matrix(1 0 0 1 -27.8676 48.245)" class="st6"><tspan x="0" y="0" class="st7 st8">Testo </tspan><tspan x="0" y="11" class="st7 st8">pubblicato </tspan><tspan x="0" y="22" class="st7 st8">in volume </tspan><tspan x="0" y="33" class="st7 st8">autonomo</tspan></text>
			</g>
		</g>
		<g id="Group-3" transform="translate(7)">
			<g>
				<text transform="matrix(1 0 0 1 53.5775 48.2455)" class="st6"><tspan x="0" y="0" class="st7 st8">Testo </tspan><tspan x="0" y="11" class="st7 st8">pubblicato </tspan><tspan x="0" y="22" class="st7 st8">solo in rivista</tspan><tspan x="0" y="33" class="st7 st8">o quotidiano</tspan></text>
			</g>
		</g>
		<g id="Group-5" transform="translate(-16)">
			<g>
				<text transform="matrix(1 0 0 1 139.7635 48.245)" class="st6"><tspan x="0" y="0" class="st7 st8">Testo </tspan><tspan x="0" y="11" class="st7 st8">contenuto </tspan><tspan x="0" y="22" class="st7 st8">in una </tspan><tspan x="0" y="33" class="st7 st8">raccolta</tspan></text>
			</g>
		</g>
		<g>
			<text transform="matrix(1 0 0 1 228.0979 38.494)"><tspan x="0" y="0" class="st7 st8">prima</tspan><tspan x="0" y="11" class="st7 st8">pubblicazione</tspan></text>
		</g>
		<g>
			<text transform="matrix(1 0 0 1 228.0979 7.1069)"><tspan x="0" y="0" class="st7 st8">ultima</tspan><tspan x="0" y="11" class="st7 st8">ripubblicazione</tspan></text>
		</g>
		<path id="Path_1_" class="st1" d="M196.8,36.2h28.3"/>
		<path id="Path-2" class="st1" d="M195.4,2.5h29.8"/>
		<g id="Group-7" transform="translate(-25)">
			<g>
				<text transform="matrix(1 0 0 1 202.7758 48.245)" class="st6"><tspan x="0" y="0" class="st7 st8">Testo </tspan><tspan x="0" y="11" class="st7 st8">contenuto </tspan><tspan x="0" y="22" class="st7 st8">in più </tspan><tspan x="0" y="33" class="st7 st8">raccolte</tspan></text>
			</g>
		</g>
	</g>
</g>
</svg>
