<?xml version="1.0" encoding="utf-8"?>
<!-- Generator: Adobe Illustrator 23.1.1, SVG Export Plug-In . SVG Version: 6.00 Build 0)  -->
<svg version="1.1" xmlns="http://www.w3.org/2000/svg" xmlns:xlink="http://www.w3.org/1999/xlink" x="0px" y="0px"
	 viewBox="0 0 267 90" style="enable-background:new 0 0 267 90;" xml:space="preserve">
<style type="text/css">
	.st0{font-family:'HKGrotesk-Regular';}
	.st1{font-size:9.167px;}
	.st2{fill:#00C19C;stroke:#FFFFFF;stroke-width:0.1641;stroke-linejoin:round;}
	.st3{fill:#8AE297;stroke:#FFFFFF;stroke-width:0.3282;}
	.st4{fill:#FF3366;}
	.st5{fill:#BBBBFF;}
	.st6{fill:#5151FC;stroke:#FFFFFF;stroke-width:0.1641;stroke-linejoin:round;}
	.st7{fill:#97DADD;stroke:#FFFFFF;stroke-width:0.1641;stroke-linejoin:round;}
	.st8{fill:#FFA500;stroke:#FFFFFF;stroke-width:0.1641;stroke-linejoin:round;}
	.st9{fill:#FFD93B;stroke:#FFFFFF;stroke-width:0.1641;stroke-linejoin:round;}
	.st10{fill:#C6CACF;stroke:#FFFFFF;stroke-width:0.1641;stroke-linejoin:round;}
	.st11{fill:#00BFD3;stroke:#FFFFFF;stroke-width:0.1641;stroke-linejoin:round;}
	.st12{fill:#FF6C39;stroke:#FFFFFF;stroke-width:0.1641;stroke-linejoin:round;}
	.st13{fill:none;stroke:#1A1A1A;stroke-width:0.1641;stroke-linejoin:round;}
</style>
<g id="Layer_1">
</g>
<g id="volumi">
	<g>
		<g>
			<text transform="matrix(1 0 0 1 15.0342 7.1377)" class="st0 st1">Ultimo viene il corvo</text>
			<path id="Oval_1_" class="st2" d="M4.2,0.1c2.2,0,4.1,1.8,4.1,4.1S6.4,8.3,4.2,8.3S0.1,6.5,0.1,4.2l0,0C0.1,2,1.9,0.2,4.2,0.1z"
				/>
		</g>
		<g>
			<text transform="matrix(1 0 0 1 15.0342 23.3369)" class="st0 st1">L’entrata in guerra</text>
			<path id="Oval-2_1_" class="st3" d="M4.2,16.3c2.2,0,4.1,1.8,4.1,4.1s-1.8,4.1-4.1,4.1s-4.1-1.8-4.1-4.1l0,0l0,0
				C0.1,18.2,1.9,16.4,4.2,16.3z"/>
		</g>
		<g>
			<text transform="matrix(1 0 0 1 15.0342 88.1348)" class="st0 st1">Ti con Zero</text>
			<circle id="Oval-4_1_" class="st4" cx="4.2" cy="85.2" r="4.1"/>
		</g>
		<g>
			<text transform="matrix(1 0 0 1 15.0342 55.7363)" class="st0 st1">Marcovaldo</text>
			<circle id="Oval-5_1_" class="st5" cx="4.2" cy="52.8" r="4.1"/>
		</g>
		<g>
			<text transform="matrix(1 0 0 1 15.0342 39.5361)" class="st0 st1">I racconti</text>
			<circle id="Oval-6_1_" class="st6" cx="4.2" cy="36.6" r="4.1"/>
		</g>
		<g>
			<circle id="Oval-3_1_" class="st7" cx="4.2" cy="69" r="4.1"/>
			<text transform="matrix(1 0 0 1 15.0342 71.9355)" class="st0 st1">Le Cosmicomiche</text>
		</g>
		<g>
			<text transform="matrix(1 0 0 1 132.5786 7.1377)" class="st0 st1">La memoria del mondo</text>
			<path id="Oval_5_" class="st8" d="M121.7,0.1c2.2,0,4.1,1.8,4.1,4.1s-1.8,4.1-4.1,4.1c-2.2,0-4.1-1.8-4.1-4.1l0,0
				C117.6,2,119.4,0.2,121.7,0.1z"/>
		</g>
		<g>
			<text transform="matrix(1 0 0 1 132.5786 23.3369)" class="st0 st1">Gli amori difficili</text>
			<path id="Oval-2_4_" class="st9" d="M121.7,16.3c2.2,0,4.1,1.8,4.1,4.1s-1.8,4.1-4.1,4.1c-2.2,0-4.1-1.8-4.1-4.1l0,0l0,0
				C117.6,18.2,119.4,16.4,121.7,16.3z"/>
		</g>
		<g>
			<text transform="matrix(1 0 0 1 132.5786 88.1348)" class="st0 st1">Volume autonomo</text>
			<circle id="Oval-4_4_" class="st10" cx="121.7" cy="85.2" r="4.1"/>
		</g>
		<g>
			<text transform="matrix(1 0 0 1 132.5786 55.7363)" class="st0 st1">Le Cosmicomiche vecchie e nuove </text>
			<circle id="Oval-5_4_" class="st11" cx="121.7" cy="52.8" r="4.1"/>
		</g>
		<g>
			<text transform="matrix(1 0 0 1 132.5786 39.5361)" class="st0 st1">Palomar</text>
			<circle id="Oval-6_4_" class="st12" cx="121.7" cy="36.6" r="4.1"/>
		</g>
		<g>
			<circle id="Oval-3_4_" class="st13" cx="121.7" cy="69" r="4.1"/>
			<text transform="matrix(1 0 0 1 132.5786 71.9355)" class="st0 st1">Solo in riviste o quotidiano </text>
		</g>
	</g>
</g>
</svg>
