<?xml version="1.0" encoding="utf-8"?>
<!-- Generator: Adobe Illustrator 23.1.1, SVG Export Plug-In . SVG Version: 6.00 Build 0)  -->
<svg version="1.1" xmlns="http://www.w3.org/2000/svg" xmlns:xlink="http://www.w3.org/1999/xlink" x="0px" y="0px"
	 viewBox="0 0 292.6 132" style="enable-background:new 0 0 292.6 132;" xml:space="preserve">
<style type="text/css">
	.st0{font-family:'HKGrotesk-Regular';}
	.st1{font-size:10px;}
	.st2{fill:#00C19C;stroke:#FFFFFF;stroke-width:0.25;stroke-linejoin:round;}
	.st3{fill:#8AE297;stroke:#FFFFFF;stroke-width:0.5;}
	.st4{fill:#FF3366;}
	.st5{fill:#BBBBFF;}
	.st6{fill:#5151FC;stroke:#FFFFFF;stroke-width:0.25;stroke-linejoin:round;}
	.st7{fill:#97DADD;stroke:#FFFFFF;stroke-width:0.25;stroke-linejoin:round;}
	.st8{fill:none;}
	.st9{fill:#FFA500;stroke:#FFFFFF;stroke-width:0.25;stroke-linejoin:round;}
	.st10{fill:#FFD93B;stroke:#FFFFFF;stroke-width:0.25;stroke-linejoin:round;}
	.st11{fill:#C6CACF;stroke:#FFFFFF;stroke-width:0.25;stroke-linejoin:round;}
	.st12{fill:#00BFD3;stroke:#FFFFFF;stroke-width:0.25;stroke-linejoin:round;}
	.st13{fill:#FF6C39;stroke:#FFFFFF;stroke-width:0.25;stroke-linejoin:round;}
	.st14{fill:none;stroke:#1A1A1A;stroke-width:0.25;stroke-linejoin:round;}
</style>
<g id="Layer_1">
	<title>codice-colori-large</title>
	<desc>Created with Sketch.</desc>
</g>
<g id="volumi">
	<g>
		<g>
			<text transform="matrix(1 0 0 1 19.7189 10.099)" class="st0 st1">Ultimo viene il corvo</text>
			<path id="Oval_1_" class="st2" d="M6.5,0.3c3.4,0,6.2,2.8,6.2,6.2s-2.8,6.2-6.2,6.2S0.3,10,0.3,6.5l0,0C0.3,3.1,3,0.4,6.5,0.3z"
				/>
		</g>
		<g>
			<text transform="matrix(1 0 0 1 19.7189 33.84)" class="st0 st1">L’entrata in guerra</text>
			<path id="Oval-2_1_" class="st3" d="M6.5,24.1c3.4,0,6.2,2.8,6.2,6.2s-2.8,6.2-6.2,6.2s-6.2-2.8-6.2-6.2l0,0l0,0
				C0.3,26.9,3,24.2,6.5,24.1z"/>
		</g>
		<g>
			<text transform="matrix(1 0 0 1 19.7189 128.8032)" class="st0 st1">Ti con Zero</text>
			<circle id="Oval-4_1_" class="st4" cx="6.5" cy="125.2" r="6.2"/>
		</g>
		<g>
			<text transform="matrix(1 0 0 1 19.7189 81.3216)" class="st0 st1">Marcovaldo</text>
			<circle id="Oval-5_1_" class="st5" cx="6.5" cy="77.8" r="6.2"/>
		</g>
		<g>
			<text transform="matrix(1 0 0 1 19.7189 57.5808)" class="st0 st1">I racconti</text>
			<circle id="Oval-6_1_" class="st6" cx="6.5" cy="54" r="6.2"/>
		</g>
		<g>
			<circle id="Oval-3_1_" class="st7" cx="6.5" cy="101.5" r="6.2"/>
			<text transform="matrix(1 0 0 1 19.7189 105.0622)" class="st0 st1">Le Cosmicomiche</text>
		</g>
		<rect class="st8" width="292.6" height="132"/>
	</g>
	<g>
		<g>
			<text transform="matrix(1 0 0 1 145.7189 10.099)" class="st0 st1">La memoria del mondo</text>
			<path id="Oval_5_" class="st9" d="M132.5,0.3c3.4,0,6.2,2.8,6.2,6.2s-2.8,6.2-6.2,6.2c-3.4,0-6.2-2.7-6.2-6.2l0,0
				C126.3,3.1,129,0.4,132.5,0.3z"/>
		</g>
		<g>
			<text transform="matrix(1 0 0 1 145.7189 33.84)" class="st0 st1">Gli amori difficili</text>
			<path id="Oval-2_4_" class="st10" d="M132.5,24.1c3.4,0,6.2,2.8,6.2,6.2s-2.8,6.2-6.2,6.2c-3.4,0-6.2-2.8-6.2-6.2l0,0l0,0
				C126.3,26.9,129,24.2,132.5,24.1z"/>
		</g>
		<g>
			<text transform="matrix(1 0 0 1 145.7189 128.8032)" class="st0 st1">Volume autonomo</text>
			<circle id="Oval-4_4_" class="st11" cx="132.5" cy="125.2" r="6.2"/>
		</g>
		<g>
			<text transform="matrix(1 0 0 1 145.7189 81.3216)" class="st0 st1">Le Cosmicomiche vecchie e nuove </text>
			<circle id="Oval-5_4_" class="st12" cx="132.5" cy="77.8" r="6.2"/>
		</g>
		<g>
			<text transform="matrix(1 0 0 1 145.7189 57.5808)" class="st0 st1">Palomar</text>
			<circle id="Oval-6_4_" class="st13" cx="132.5" cy="54" r="6.2"/>
		</g>
		<g>
			<circle id="Oval-3_4_" class="st14" cx="132.5" cy="101.5" r="6.2"/>
			<text transform="matrix(1 0 0 1 145.7189 105.0622)" class="st0 st1">Solo in riviste o quotidiano </text>
		</g>
	</g>
</g>
</svg>
