<?xml version="1.0" encoding="utf-8"?>
<!-- Generator: Adobe Illustrator 23.1.1, SVG Export Plug-In . SVG Version: 6.00 Build 0)  -->
<svg version="1.1" xmlns="http://www.w3.org/2000/svg" xmlns:xlink="http://www.w3.org/1999/xlink" x="0px" y="0px"
	 viewBox="0 0 75 90" style="enable-background:new 0 0 75 90;" xml:space="preserve">
<style type="text/css">
	.st0{fill-rule:evenodd;clip-rule:evenodd;fill:#FFFFFF;stroke:#444444;stroke-width:0.5327;}
	.st1{fill-rule:evenodd;clip-rule:evenodd;fill:#FFFFFF;stroke:#444444;stroke-width:0.3551;}
	.st2{fill:none;stroke:#444444;stroke-width:0.3551;}
	.st3{fill:#444444;}
	.st4{font-family:'HKGrotesk-Regular';}
	.st5{font-size:9.167px;}
	.st6{fill:none;stroke:#444444;stroke-width:0.1776;}
	.st7{fill:none;stroke:#444444;stroke-width:0.1776;stroke-dasharray:1.3491,1.3491;}
	.st8{fill:none;stroke:#444444;stroke-width:0.1776;stroke-dasharray:1.5013,1.5013;}
	.st9{fill:none;}
</style>
<g id="Layer_1">
</g>
<g id="volumi">
	<g id="dimensione_1_">
		<g id="dimensione-X_1_">
			<g id="Group-7_1_" transform="translate(0.000000, 0.526800)">
				<g id="Group_2_" transform="translate(0.000000, 1.000000)">
					<ellipse id="Oval_3_" class="st0" cx="21.9" cy="22.1" rx="21.8" ry="12.6"/>
					<ellipse class="st1" cx="21.9" cy="19.2" rx="19" ry="10.9"/>
					<ellipse class="st1" cx="21.9" cy="16.3" rx="16.8" ry="9.7"/>
					<ellipse class="st1" cx="21.9" cy="13.4" rx="15.2" ry="8.8"/>
					<ellipse class="st1" cx="21.9" cy="10.5" rx="13.8" ry="8"/>
					<ellipse class="st1" cx="21.9" cy="7.6" rx="11.9" ry="6.9"/>
					<ellipse class="st1" cx="21.9" cy="4.7" rx="9.2" ry="5.3"/>
					<ellipse class="st1" cx="21.9" cy="1.8" rx="5.3" ry="3.1"/>
				</g>
				<g transform="translate(0.000000, 58.000000)">
					<path id="Path_2_" class="st2" d="M43.6-9.8L0.2-9.7"/>
					
						<rect id="Rectangle_1_" x="43.5" y="-11" transform="matrix(1 -3.173790e-03 3.173790e-03 1 3.132804e-02 0.1391)" class="st3" width="0.7" height="2.3"/>
					
						<rect x="0" y="-10.8" transform="matrix(1 -3.112725e-03 3.112725e-03 1 3.006843e-02 1.107292e-03)" class="st3" width="0.7" height="2.3"/>
				</g>
				<g transform="translate(68.000000, 1.000000)">
					<path class="st2" d="M-16.5,35.3V-1.3"/>
					<rect x="-17.7" y="35.1" class="st3" width="2.3" height="0.7"/>
					<rect x="-17.7" y="-1.5" class="st3" width="2.3" height="0.7"/>
				</g>
				<g>
					<text transform="matrix(1 0 0 1 -1.037598e-03 62.1503)"><tspan x="0" y="0" class="st4 st5">lunghezza </tspan><tspan x="0" y="11" class="st4 st5">opera</tspan></text>
				</g>
				<g>
					<text transform="matrix(0 1 -1 0 68.7354 8.919732e-02)"><tspan x="0" y="0" class="st4 st5">lunghezza</tspan><tspan x="0" y="11" class="st4 st5">opera</tspan></text>
				</g>
				<g transform="translate(61.000000, 32.000000)">
					<path class="st6" d="M-17.3,15.5v-0.7"/>
					<path class="st7" d="M-17.3,15V-8.2"/>
					<path class="st6" d="M-17.3-8.8v-0.7"/>
				</g>
				<g transform="translate(0.000000, 32.000000)">
					<path class="st6" d="M0.2,15.5v-0.7"/>
					<path class="st7" d="M0.2,15V-8.1"/>
					<path class="st6" d="M0.2-8.8v-0.7"/>
				</g>
				<g transform="translate(31.000000, 0.000000)">
					<path class="st6" d="M-9-0.2h0.7"/>
					<path class="st8" d="M-6.8-0.2l26.1-0.1"/>
				</g>
				<g transform="translate(31.000000, 51.000000)">
					<path class="st6" d="M-9-14.6h0.7"/>
					<path class="st8" d="M-6.8-14.6l26.1-0.1"/>
				</g>
			</g>
		</g>
	</g>
	<rect x="0" class="st9" width="75" height="90"/>
</g>
</svg>
