<?xml version="1.0" encoding="utf-8"?>
<!-- Generator: Adobe Illustrator 23.1.1, SVG Export Plug-In . SVG Version: 6.00 Build 0)  -->
<svg version="1.1" xmlns="http://www.w3.org/2000/svg" xmlns:xlink="http://www.w3.org/1999/xlink" x="0px" y="0px"
	 viewBox="0 0 152 90" style="enable-background:new 0 0 152 90;" xml:space="preserve">
<style type="text/css">
	.st0{fill:none;stroke:#999999;stroke-width:0.19;stroke-linecap:round;stroke-dasharray:1.506,1.506;}
	.st1{fill:none;stroke:#999999;stroke-width:0.19;stroke-linecap:round;}
	.st2{fill:none;stroke:#FF3366;stroke-width:0.5;}
	.st3{fill:#FF3366;stroke:#FFFFFF;stroke-width:0.25;}
	.st4{fill:#C6CACF;stroke:#FFFFFF;stroke-width:0.25;stroke-linejoin:round;}
	.st5{font-family:'HKGrotesk-Regular';}
	.st6{font-size:9.167px;}
</style>
<g id="Layer_1">
</g>
<g id="volumi">
	<g id="positioning_1_" transform="translate(-2.582 -2.18)">
		<path id="Stroke-2_1_" class="st0" d="M75.2,2.4l74,43"/>
		<path id="Stroke-3_1_" class="st1" d="M149.4,45.7l0.7,0.4"/>
		<path id="Stroke-4_1_" class="st1" d="M59.4,10.7l0.7,0.4"/>
		<path id="Stroke-5_1_" class="st0" d="M60.2,11.4l74,43"/>
		<path id="Stroke-6_1_" class="st1" d="M135.4,53.7l0.7,0.4"/>
		<path id="Stroke-7_1_" class="st1" d="M45.4,18.7l0.7,0.4"/>
		<path id="Stroke-8_1_" class="st0" d="M46.2,19.4l74,43"/>
		<path id="Stroke-9_1_" class="st1" d="M120.4,61.7l0.7,0.4"/>
		<path id="Stroke-10_1_" class="st1" d="M31.4,26.7l0.7,0.4"/>
		<path id="Stroke-11_1_" class="st0" d="M32.2,27.4l74,43"/>
		<path id="Stroke-12_1_" class="st1" d="M106.4,70.7l0.7,0.4"/>
		<path id="Stroke-13_1_" class="st1" d="M16.4,34.7l0.7,0.4"/>
		<path id="Stroke-14_1_" class="st0" d="M18.2,35.4l74,43"/>
		<path id="Stroke-15_1_" class="st1" d="M92.4,78.7l0.7,0.4"/>
		<g id="Group-18_1_" transform="translate(2.164 43)">
			<path id="Stroke-16_1_" class="st1" d="M0.6,0l0.3,0.2"/>
		</g>
		<path id="Stroke-19_1_" class="st0" d="M4.2,43.4l74,43"/>
		<g id="Group-26_1_" transform="translate(2.164 46)">
			<g id="Group-22_1_" transform="translate(76.569 40.576)">
				<path id="Stroke-20_1_" class="st1" d="M0.3-0.2l0.5,0.3"/>
			</g>
			<g id="Group-25_1_">
				<path id="Stroke-23_1_" class="st1" d="M0.8,0l0.5-0.3"/>
			</g>
		</g>
		<path id="Stroke-27_1_" class="st0" d="M4.2,45.4l74-43"/>
		<path id="Stroke-29_1_" class="st1" d="M16.4,54.1l0.7-0.4"/>
		<path id="Stroke-30_1_" class="st0" d="M18.2,53.4l74-43"/>
		<path id="Stroke-31_1_" class="st1" d="M92.4,11.1l0.7-0.4"/>
		<path id="Stroke-32_1_" class="st1" d="M31.4,62.1l0.7-0.4"/>
		<path id="Stroke-33_1_" class="st0" d="M32.2,61.4l74-43"/>
		<path id="Stroke-34_1_" class="st1" d="M106.4,19.1l0.7-0.4"/>
		<path id="Stroke-35_1_" class="st1" d="M45.4,71.1l0.7-0.4"/>
		<path id="Stroke-36_1_" class="st0" d="M46.2,70.4l74-43"/>
		<path id="Stroke-37_1_" class="st1" d="M120.4,27.1l0.7-0.4"/>
		<path id="Stroke-38_1_" class="st1" d="M59.4,79.1l0.7-0.4"/>
		<path id="Stroke-39_1_" class="st0" d="M60.2,78.4l74-43"/>
		<path id="Stroke-40_1_" class="st1" d="M135.4,35.1l0.7-0.4"/>
		<g id="Group-43_1_" transform="translate(73.164 87)">
			<path id="Stroke-41_1_" class="st1" d="M0.5-0.1l0.4-0.2"/>
		</g>
		<path id="Stroke-44_1_" class="st0" d="M75.2,86.4l74-43"/>
		<path id="Stroke-45_1_" class="st1" d="M149.4,43.1l0.7-0.4"/>
		<path id="Stroke-46_1_" class="st2" d="M66.2,64.9c-2.2-1.3-2.8-3.2-1.6-4.8c0-0.1,0.1-0.1,0.1-0.2c0.9-1,0.4-1.3,0.2-1.5
			c-0.3-0.2-0.7-0.3-1-0.4c-0.1,0-0.1,0-0.2-0.1c-0.5-0.2-1.1-0.4-1.5-0.6c-2.5-1.4-2.5-3.8,0-5.2c2.6-1.3,5.6-1.4,8.3-0.4
			c0.1,0,0.2,0.1,0.2,0.1c0.5,0.3,1.1,0.4,1.7,0.4c0.8-0.1,1.5-0.5,2.1-1c0.1,0,0.1-0.1,0.2-0.1c0.2-0.1,0.3-0.2,0.5-0.3
			c4-2,8.7-2,12.7,0c3.1,1.8,3.5,4.6,1,6.6c0,0.1-0.1,0.1-0.2,0.2c-1.6,1.2-1,1.6-0.5,1.9l0,0c0.2,0.1,0.3,0.2,0.5,0.2
			c0,0,0.1,0,0.1,0.1l0,0c0.2,0.1,0.3,0.1,0.5,0.2c2.5,1.4,2.5,3.8,0,5.2c-2.9,1.4-6.2,1.4-9.1,0c-0.1,0-0.1-0.1-0.2-0.1L79.9,65
			c-0.1-0.1-0.2-0.1-0.3-0.2c-0.7-0.4-1.4-0.6-3,0.2c-0.1,0-0.2,0.1-0.3,0.1C73,66.6,69.4,66.5,66.2,64.9z"/>
		<g id="Group-77_1_" transform="translate(65.164 58)">
			<ellipse id="Ellipse_12" class="st3" cx="7.6" cy="2.7" rx="7" ry="4"/>
			<ellipse id="Ellipse_18" class="st3" cx="16.6" cy="-3.8" rx="7" ry="3.5"/>
			<ellipse id="Ellipse_19" class="st4" cx="19.1" cy="-19.8" rx="5.5" ry="2.5"/>
			<ellipse id="Ellipse_20" class="st4" cx="24.6" cy="-14.8" rx="5" ry="2.5"/>
			<ellipse id="Ellipse_21" class="st4" cx="32.6" cy="-20.8" rx="7" ry="3.5"/>
			<ellipse id="Ellipse_16" class="st3" cx="1.1" cy="-3.8" rx="4.5" ry="2.5"/>
			<ellipse id="Ellipse_17" class="st3" cx="19.6" cy="4.7" rx="5" ry="3"/>
			<ellipse id="Ellipse_13" class="st4" cx="-17.4" cy="-7.3" rx="5" ry="3"/>
			<ellipse id="Ellipse_14" class="st4" cx="-16.9" cy="-13.3" rx="3.5" ry="2"/>
			<ellipse id="Ellipse_15" class="st4" cx="-7.4" cy="-12.3" rx="5" ry="3"/>
		</g>
		<path id="Path-3_2_" d="M116.8,37l-2.9-5.2l0.4-0.2l3.6,6.4l-7.3-0.3v-0.5l5.9,0.2l-4.3-2.6c-11.6-6.2-28-9.2-43.6-7.8
			c-17,1.5-31.5,7.9-40.3,18.6l-0.4-0.3c9-10.9,23.6-17.3,40.7-18.8c15.7-1.4,32.2,1.6,43.9,7.9L116.8,37z"/>
		<g>
			<text transform="matrix(1 0 0 1 85.7323 78.998)" class="st5 st6">1. presenti nella</text>
		</g>
		<g>
			<text transform="matrix(1 0 0 1 97.1681 91.8291)" class="st5 st6">stessa raccolta</text>
		</g>
		<g>
			<text transform="matrix(1 0 0 1 52.0063 20.3966)" class="st5 st6">2. cronologia</text>
		</g>
	</g>
</g>
</svg>
