<?xml version="1.0" encoding="utf-8"?>
<!-- Generator: Adobe Illustrator 23.1.1, SVG Export Plug-In . SVG Version: 6.00 Build 0)  -->
<svg version="1.1" id="Layer_1" xmlns="http://www.w3.org/2000/svg" xmlns:xlink="http://www.w3.org/1999/xlink" x="0px" y="0px"
	 viewBox="0 0 293.6 132" style="enable-background:new 0 0 293.6 132;" xml:space="preserve">
<style type="text/css">
	.st0{fill:none;}
	.st1{fill:#D6DBDF;stroke:#444444;stroke-width:0.1776;}
	.st2{fill:none;stroke:#444444;stroke-width:0.1776;}
	.st3{fill:#FFD93B;stroke:#444444;stroke-width:0.1776;stroke-linejoin:round;}
	.st4{fill:#FF3366;stroke:#444444;stroke-width:0.1776;}
	.st5{fill:#FFA500;stroke:#444444;stroke-width:0.1776;stroke-linejoin:round;}
	.st6{fill:#00BFD3;stroke:#444444;stroke-width:0.1776;stroke-linejoin:round;}
	.st7{font-family:'HKGrotesk-Regular';}
	.st8{font-size:10px;}
</style>
<g>
	<title>modalita-raccolta</title>
	<desc>Created with Sketch.</desc>
</g>
<g id="volumi">
	<rect class="st0" width="293.6" height="132"/>
	<g id="Group-2_2_" transform="translate(31 3.881)">
		<ellipse id="Oval_2_" class="st1" cx="-9.1" cy="22.8" rx="21.7" ry="12.6"/>
		<ellipse id="Oval-2_2_" class="st1" cx="-9.1" cy="19.9" rx="18.9" ry="10.9"/>
		<ellipse id="Oval-3_2_" class="st1" cx="-9.1" cy="16.9" rx="16.8" ry="9.7"/>
		<ellipse id="Oval-4_2_" class="st1" cx="-9.1" cy="14.1" rx="15.2" ry="8.8"/>
		<ellipse id="Oval-5_2_" class="st1" cx="-9.1" cy="11.2" rx="13.8" ry="8"/>
		<ellipse id="Oval-6_2_" class="st1" cx="-9.1" cy="8.3" rx="11.9" ry="6.9"/>
		<ellipse id="Oval-7_1_" class="st1" cx="-9.1" cy="5.4" rx="9.2" ry="5.3"/>
		<ellipse id="Oval-8_1_" class="st1" cx="-9.1" cy="2.5" rx="5.3" ry="3.1"/>
	</g>
	<g id="Group-4_1_" transform="translate(104 3.881)">
		<ellipse id="Oval-9_1_" class="st2" cx="-23.9" cy="22.8" rx="21.7" ry="12.6"/>
		<ellipse id="Oval-10_1_" class="st2" cx="-23.9" cy="19.9" rx="18.9" ry="10.9"/>
		<ellipse id="Oval-11_1_" class="st2" cx="-23.9" cy="16.9" rx="16.8" ry="9.7"/>
		<ellipse id="Oval-12_1_" class="st2" cx="-23.9" cy="14.1" rx="15.2" ry="8.8"/>
		<ellipse id="Oval-13_1_" class="st2" cx="-23.9" cy="11.2" rx="13.8" ry="8"/>
		<ellipse id="Oval-14_1_" class="st2" cx="-23.9" cy="8.3" rx="11.9" ry="6.9"/>
		<ellipse id="Oval-15_1_" class="st2" cx="-23.9" cy="5.4" rx="9.2" ry="5.3"/>
		<ellipse id="Oval-16_1_" class="st2" cx="-23.9" cy="2.5" rx="5.3" ry="3.1"/>
	</g>
	<g id="Group-6_1_" transform="translate(178 3.881)">
		<ellipse id="Oval-17_1_" class="st3" cx="-39.7" cy="22.8" rx="21.7" ry="12.6"/>
		<ellipse id="Oval-18_1_" class="st3" cx="-39.7" cy="19.9" rx="18.9" ry="10.9"/>
		<ellipse id="Oval-19_1_" class="st3" cx="-39.7" cy="16.9" rx="16.8" ry="9.7"/>
		<ellipse id="Oval-20_1_" class="st3" cx="-39.7" cy="14.1" rx="15.2" ry="8.8"/>
		<ellipse id="Oval-21_1_" class="st3" cx="-39.7" cy="11.2" rx="13.8" ry="8"/>
		<ellipse id="Oval-22_1_" class="st3" cx="-39.7" cy="8.3" rx="11.9" ry="6.9"/>
		<ellipse id="Oval-23_1_" class="st3" cx="-39.7" cy="5.4" rx="9.2" ry="5.3"/>
		<ellipse id="Oval-24_1_" class="st3" cx="-39.7" cy="2.5" rx="5.3" ry="3.1"/>
	</g>
	<g id="Group-2-2_1_" transform="translate(255 3.881)">
		<ellipse id="Oval-25_1_" class="st4" cx="-58.5" cy="22.8" rx="21.7" ry="12.6"/>
		<ellipse id="Oval-26_1_" class="st4" cx="-58.5" cy="19.9" rx="18.9" ry="10.9"/>
		<ellipse id="Oval-27_1_" class="st5" cx="-58.5" cy="16.9" rx="16.8" ry="9.7"/>
		<ellipse id="Oval-28_1_" class="st5" cx="-58.5" cy="14.1" rx="15.2" ry="8.8"/>
		<ellipse id="Oval-29_1_" class="st3" cx="-58.5" cy="11.2" rx="13.8" ry="8"/>
		<ellipse id="Oval-30_1_" class="st3" cx="-58.5" cy="8.3" rx="11.9" ry="6.9"/>
		<ellipse id="Oval-31_1_" class="st6" cx="-58.5" cy="5.4" rx="9.2" ry="5.3"/>
		<ellipse id="Oval-32_1_" class="st6" cx="-58.5" cy="2.5" rx="5.3" ry="3.1"/>
	</g>
	<g id="Group_2_" transform="translate(31)">
		<text transform="matrix(1 0 0 1 -27.9972 61.5591)" class="st7 st8">Testo </text>
		<text transform="matrix(1 0 0 1 -27.9972 73.5591)" class="st7 st8">pubblicato </text>
		<text transform="matrix(1 0 0 1 -27.9972 85.5591)" class="st7 st8">in volume </text>
		<text transform="matrix(1 0 0 1 -27.9972 97.5591)" class="st7 st8">autonomo</text>
	</g>
	<g id="Group-3_1_" transform="translate(7)">
		<text transform="matrix(1 0 0 1 54.2177 61.5596)" class="st7 st8">Testo </text>
		<text transform="matrix(1 0 0 1 54.2177 73.5596)" class="st7 st8">pubblicato </text>
		<text transform="matrix(1 0 0 1 54.2177 85.5596)" class="st7 st8">solo in </text>
		<text transform="matrix(1 0 0 1 54.2177 97.5596)" class="st7 st8">rivista o </text>
		<text transform="matrix(1 0 0 1 54.2177 109.5596)" class="st7 st8">quotidiano</text>
	</g>
	<g id="Group-5_1_" transform="translate(-16)">
		<text transform="matrix(1 0 0 1 135.4319 61.5591)" class="st7 st8">Testo </text>
		<text transform="matrix(1 0 0 1 135.4319 73.5591)" class="st7 st8">contenuto </text>
		<text transform="matrix(1 0 0 1 135.4319 85.5591)" class="st7 st8">in una </text>
		<text transform="matrix(1 0 0 1 135.4319 97.5591)" class="st7 st8">raccolta</text>
	</g>
	<text transform="matrix(1 0 0 1 227.9685 39.5771)" class="st7 st8">prima</text>
	<text transform="matrix(1 0 0 1 227.9685 51.5771)" class="st7 st8">pubblicazione</text>
	<text transform="matrix(1 0 0 1 227.9685 8.19)" class="st7 st8">ultima</text>
	<text transform="matrix(1 0 0 1 227.9685 20.19)" class="st7 st8">ripubblicazione</text>
	<path id="Path_2_" class="st2" d="M196.7,39.2H225"/>
	<path id="Path-2_1_" class="st2" d="M195.2,5.5H225"/>
	<g id="Group-7_1_" transform="translate(-25)">
		<text transform="matrix(1 0 0 1 202.6468 61.5591)" class="st7 st8">Testo </text>
		<text transform="matrix(1 0 0 1 202.6468 73.5591)" class="st7 st8">contenuto </text>
		<text transform="matrix(1 0 0 1 202.6468 85.5591)" class="st7 st8">in più </text>
		<text transform="matrix(1 0 0 1 202.6468 97.5591)" class="st7 st8">raccolte</text>
	</g>
</g>
</svg>
