<?xml version="1.0" encoding="utf-8"?>
<!-- Generator: Adobe Illustrator 23.1.1, SVG Export Plug-In . SVG Version: 6.00 Build 0)  -->
<svg version="1.1" id="cronologia" xmlns="http://www.w3.org/2000/svg" xmlns:xlink="http://www.w3.org/1999/xlink" x="0px" y="0px"
	 viewBox="0 0 182 132.3" style="enable-background:new 0 0 182 132.3;" xml:space="preserve">
<style type="text/css">
	.st0{font-family:'HKGrotesk-Regular';}
	.st1{font-size:10px;}
	.st2{fill:#00C19C;stroke:#444444;stroke-width:0.1774;}
	.st3{fill:#00BAC1;stroke:#444444;stroke-width:0.1774;}
	.st4{fill:#5151FC;stroke:#444444;stroke-width:0.1774;}
	.st5{fill:#566973;}
	.st6{fill:none;}
</style>
<g id="modalita-cronologia_1_" transform="translate(-0.375 -0.574)">
	<g>
		<text transform="matrix(1 0 0 1 12.1089 75.4096)" class="st0 st1">1943</text>
	</g>
	<g>
		<text transform="matrix(1 0 0 1 148.4726 75.4094)" class="st0 st1">1985</text>
	</g>
	<g id="Group_3_" transform="translate(0 0.399)">
		<ellipse id="Oval_1_" class="st2" cx="22.4" cy="40.3" rx="21.7" ry="12.6"/>
		<ellipse id="Oval-2_1_" class="st2" cx="22.4" cy="37.4" rx="18.9" ry="10.9"/>
		<ellipse id="Oval-3_1_" class="st2" cx="22.4" cy="34.5" rx="16.7" ry="9.6"/>
		<ellipse id="Oval-4_1_" class="st2" cx="22.4" cy="31.7" rx="15.2" ry="8.8"/>
		<ellipse id="Oval-5_1_" class="st2" cx="22.4" cy="28.8" rx="13.8" ry="7.9"/>
		<ellipse id="Oval-6_1_" class="st2" cx="22.4" cy="25.9" rx="11.9" ry="6.9"/>
		<ellipse id="Oval-7_1_" class="st2" cx="22.4" cy="23" rx="9.2" ry="5.3"/>
		<ellipse id="Oval-8_1_" class="st2" cx="22.4" cy="20.1" rx="5.3" ry="3.1"/>
	</g>
	<g id="Group-2_2_" transform="translate(98 0.399)">
		<ellipse id="Oval-9_1_" class="st3" cx="-6" cy="40.3" rx="21.7" ry="12.6"/>
		<ellipse id="Oval-10_1_" class="st3" cx="-6" cy="37.4" rx="18.9" ry="10.9"/>
		<ellipse id="Oval-11_1_" class="st3" cx="-6" cy="34.5" rx="16.7" ry="9.6"/>
		<ellipse id="Oval-12_1_" class="st3" cx="-6" cy="31.7" rx="15.2" ry="8.8"/>
		<ellipse id="Oval-13_1_" class="st3" cx="-6" cy="28.8" rx="13.8" ry="7.9"/>
		<ellipse id="Oval-14_1_" class="st3" cx="-6" cy="25.9" rx="11.9" ry="6.9"/>
		<ellipse id="Oval-15_1_" class="st3" cx="-6" cy="23" rx="9.2" ry="5.3"/>
		<ellipse id="Oval-16_1_" class="st3" cx="-6" cy="20.1" rx="5.3" ry="3.1"/>
	</g>
	<g id="Group-2-2_1_" transform="translate(195 0.699)">
		<ellipse id="Oval-17_1_" class="st4" cx="-34.6" cy="40" rx="21.7" ry="12.6"/>
		<ellipse id="Oval-18_1_" class="st4" cx="-34.6" cy="37.1" rx="18.9" ry="10.9"/>
		<ellipse id="Oval-19_1_" class="st4" cx="-34.6" cy="34.2" rx="16.7" ry="9.6"/>
		<ellipse id="Oval-20_1_" class="st4" cx="-34.6" cy="31.4" rx="15.2" ry="8.8"/>
		<ellipse id="Oval-21_1_" class="st4" cx="-34.6" cy="28.5" rx="13.8" ry="7.9"/>
		<ellipse id="Oval-22_1_" class="st4" cx="-34.6" cy="25.6" rx="11.9" ry="6.9"/>
		<ellipse id="Oval-23_1_" class="st4" cx="-34.6" cy="22.7" rx="9.2" ry="5.3"/>
		<ellipse id="Oval-24_1_" class="st4" cx="-34.6" cy="19.8" rx="5.3" ry="3.1"/>
	</g>
	<g id="Group-3_2_" transform="translate(30 60.399)">
		<rect id="Rectangle_2_" x="-8.4" y="0.7" class="st5" width="139.8" height="1.2"/>
	</g>
</g>
<g>
	<polygon class="st6" points="182,132 0,132.3 0,0.3 182,0 	"/>
</g>
</svg>
