<?xml version="1.0" encoding="utf-8"?>
<!-- Generator: Adobe Illustrator 23.1.1, SVG Export Plug-In . SVG Version: 6.00 Build 0)  -->
<svg version="1.1" xmlns="http://www.w3.org/2000/svg" xmlns:xlink="http://www.w3.org/1999/xlink" x="0px" y="0px"
	 viewBox="0 0 293.6 132" style="enable-background:new 0 0 293.6 132;" xml:space="preserve">
<style type="text/css">
	.st0{fill:none;}
	.st1{fill:#D6DBDF;stroke:#444444;stroke-width:0.1776;}
	.st2{fill:none;stroke:#444444;stroke-width:0.1776;}
	.st3{fill:#FFD93B;stroke:#444444;stroke-width:0.1776;stroke-linejoin:round;}
	.st4{fill:#FF3366;stroke:#444444;stroke-width:0.1776;}
	.st5{fill:#FFA500;stroke:#444444;stroke-width:0.1776;stroke-linejoin:round;}
	.st6{fill:#00BFD3;stroke:#444444;stroke-width:0.1776;stroke-linejoin:round;}
	.st7{enable-background:new    ;}
	.st8{font-family:'HKGrotesk-Regular';}
	.st9{font-size:10px;}
</style>
<g id="Layer_1">
	<title>modalita-raccolta</title>
	<desc>Created with Sketch.</desc>
</g>
<g id="volumi">
	<rect class="st0" width="293.6" height="132"/>
	<g id="Group-2_2_" transform="translate(31 3.881)">
		<ellipse id="Oval_2_" class="st1" cx="-9.1" cy="36.8" rx="21.7" ry="12.6"/>
		<ellipse id="Oval-2_2_" class="st1" cx="-9.1" cy="33.9" rx="18.9" ry="10.9"/>
		<ellipse id="Oval-3_2_" class="st1" cx="-9.1" cy="30.9" rx="16.8" ry="9.7"/>
		<ellipse id="Oval-4_2_" class="st1" cx="-9.1" cy="28.1" rx="15.2" ry="8.8"/>
		<ellipse id="Oval-5_2_" class="st1" cx="-9.1" cy="25.2" rx="13.8" ry="8"/>
		<ellipse id="Oval-6_2_" class="st1" cx="-9.1" cy="22.3" rx="11.9" ry="6.9"/>
		<ellipse id="Oval-7_1_" class="st1" cx="-9.1" cy="19.4" rx="9.2" ry="5.3"/>
		<ellipse id="Oval-8_1_" class="st1" cx="-9.1" cy="16.5" rx="5.3" ry="3.1"/>
	</g>
	<g id="Group-4_1_" transform="translate(104 3.881)">
		<ellipse id="Oval-9_1_" class="st2" cx="-23.9" cy="36.8" rx="21.7" ry="12.6"/>
		<ellipse id="Oval-10_1_" class="st2" cx="-23.9" cy="33.9" rx="18.9" ry="10.9"/>
		<ellipse id="Oval-11_1_" class="st2" cx="-23.9" cy="30.9" rx="16.8" ry="9.7"/>
		<ellipse id="Oval-12_1_" class="st2" cx="-23.9" cy="28.1" rx="15.2" ry="8.8"/>
		<ellipse id="Oval-13_1_" class="st2" cx="-23.9" cy="25.2" rx="13.8" ry="8"/>
		<ellipse id="Oval-14_1_" class="st2" cx="-23.9" cy="22.3" rx="11.9" ry="6.9"/>
		<ellipse id="Oval-15_1_" class="st2" cx="-23.9" cy="19.4" rx="9.2" ry="5.3"/>
		<ellipse id="Oval-16_1_" class="st2" cx="-23.9" cy="16.5" rx="5.3" ry="3.1"/>
	</g>
	<g id="Group-6_1_" transform="translate(178 3.881)">
		<ellipse id="Oval-17_1_" class="st3" cx="-39.7" cy="36.8" rx="21.7" ry="12.6"/>
		<ellipse id="Oval-18_1_" class="st3" cx="-39.7" cy="33.9" rx="18.9" ry="10.9"/>
		<ellipse id="Oval-19_1_" class="st3" cx="-39.7" cy="30.9" rx="16.8" ry="9.7"/>
		<ellipse id="Oval-20_1_" class="st3" cx="-39.7" cy="28.1" rx="15.2" ry="8.8"/>
		<ellipse id="Oval-21_1_" class="st3" cx="-39.7" cy="25.2" rx="13.8" ry="8"/>
		<ellipse id="Oval-22_1_" class="st3" cx="-39.7" cy="22.3" rx="11.9" ry="6.9"/>
		<ellipse id="Oval-23_1_" class="st3" cx="-39.7" cy="19.4" rx="9.2" ry="5.3"/>
		<ellipse id="Oval-24_1_" class="st3" cx="-39.7" cy="16.5" rx="5.3" ry="3.1"/>
	</g>
	<g id="Group-2-2_1_" transform="translate(255 3.881)">
		<ellipse id="Oval-25_1_" class="st4" cx="-58.5" cy="36.8" rx="21.7" ry="12.6"/>
		<ellipse id="Oval-26_1_" class="st4" cx="-58.5" cy="33.9" rx="18.9" ry="10.9"/>
		<ellipse id="Oval-27_1_" class="st5" cx="-58.5" cy="30.9" rx="16.8" ry="9.7"/>
		<ellipse id="Oval-28_1_" class="st5" cx="-58.5" cy="28.1" rx="15.2" ry="8.8"/>
		<ellipse id="Oval-29_1_" class="st3" cx="-58.5" cy="25.2" rx="13.8" ry="8"/>
		<ellipse id="Oval-30_1_" class="st3" cx="-58.5" cy="22.3" rx="11.9" ry="6.9"/>
		<ellipse id="Oval-31_1_" class="st6" cx="-58.5" cy="19.4" rx="9.2" ry="5.3"/>
		<ellipse id="Oval-32_1_" class="st6" cx="-58.5" cy="16.5" rx="5.3" ry="3.1"/>
	</g>
	<g id="Group_2_" transform="translate(31)">
		<text transform="matrix(1 0 0 1 -27.9972 75.5591)" class="st7"><tspan x="0" y="0" class="st8 st9">Testo </tspan><tspan x="0" y="12" class="st8 st9">pubblicato </tspan><tspan x="0" y="24" class="st8 st9">in volume </tspan><tspan x="0" y="36" class="st8 st9">autonomo</tspan></text>
	</g>
	<g id="Group-3_1_" transform="translate(7)">
		<text transform="matrix(1 0 0 1 54.2177 75.5596)" class="st7"><tspan x="0" y="0" class="st8 st9">Testo </tspan><tspan x="0" y="12" class="st8 st9">pubblicato </tspan><tspan x="0" y="24" class="st8 st9">solo in </tspan><tspan x="0" y="36" class="st8 st9">rivista o </tspan><tspan x="0" y="48" class="st8 st9">quotidiano</tspan></text>
	</g>
	<g id="Group-5_1_" transform="translate(-16)">
		<text transform="matrix(1 0 0 1 135.4319 75.5591)" class="st7"><tspan x="0" y="0" class="st8 st9">Testo </tspan><tspan x="0" y="12" class="st8 st9">contenuto </tspan><tspan x="0" y="24" class="st8 st9">in una </tspan><tspan x="0" y="36" class="st8 st9">raccolta</tspan></text>
	</g>
	<text transform="matrix(1 0 0 1 227.9685 41.8834)" class="st7"><tspan x="0" y="0" class="st8 st9">prima</tspan><tspan x="0" y="12" class="st8 st9">pubblicazione</tspan></text>
	<text transform="matrix(1 0 0 1 227.9685 10.4963)" class="st7"><tspan x="0" y="0" class="st8 st9">ultima</tspan><tspan x="0" y="12" class="st8 st9">ripubblicazione</tspan></text>
	<path id="Path_2_" class="st2" d="M196.7,53.2H225"/>
	<path id="Path-2_1_" class="st2" d="M195.2,19.5H225"/>
	<g id="Group-7_1_" transform="translate(-25)">
		<text transform="matrix(1 0 0 1 202.6468 75.5591)" class="st7"><tspan x="0" y="0" class="st8 st9">Testo </tspan><tspan x="0" y="12" class="st8 st9">contenuto </tspan><tspan x="0" y="24" class="st8 st9">in più </tspan><tspan x="0" y="36" class="st8 st9">raccolte</tspan></text>
	</g>
</g>
</svg>
