<svg id="Layer_1" data-name="Layer 1" xmlns="http://www.w3.org/2000/svg" viewBox="0 0 34 34">
  <title>glifi</title>
  <rect width="34" height="34" style="fill: #fff"/>
  <path id="ibrido" d="M17,27.13138a9.99176,9.99176,0,0,1-2.54935-.61706,9.7101,9.7101,0,0,1-2.23491-1.22774A9.42945,9.42945,0,0,1,10.433,23.567a9.148,9.148,0,0,1-1.23217-2.06414A8.86684,8.86684,0,0,1,8.573,19.258,8.58534,8.58534,0,0,1,8.55719,17a8.30418,8.30418,0,0,1,.55951-2.11232A8.02341,8.02341,0,0,1,10.17575,13.06,7.74164,7.74164,0,0,1,11.627,11.627a7.46075,7.46075,0,0,1,1.71442-.96383,7.17944,7.17944,0,0,1,1.83758-.45914A6.89837,6.89837,0,0,1,17,10.24575a6.61793,6.61793,0,0,1,1.67529.502,6.3372,6.3372,0,0,1,1.42041.89036A6.05624,6.05624,0,0,1,21.179,12.821a5.77553,5.77553,0,0,1,.69548,1.36471,5.495,5.495,0,0,1,.29046,1.43033A5.215,5.215,0,0,1,22.06569,17a4.93467,4.93467,0,0,1-.44445,1.23826,4.65514,4.65514,0,0,1-.72167,1.01316,4.37644,4.37644,0,0,1-.91458.73357,4.09723,4.09723,0,0,1-1.015.42713,3.819,3.819,0,0,1-1.02309.12177A3.54289,3.54289,0,0,1,17,20.37713a3.2677,3.2677,0,0,1-.80123-.38691,2.99477,2.99477,0,0,1-.60591-.553A2.724,2.724,0,0,1,15.209,18.791a2.45837,2.45837,0,0,1-.15879-.66528,2.20026,2.20026,0,0,1,.04692-.61584A1.95331,1.95331,0,0,1,15.31144,17a1.72494,1.72494,0,0,1,.32937-.36419,1.527,1.527,0,0,1,.3843-.19866A1.38659,1.38659,0,0,1,16.403,16.403a1.36348,1.36348,0,0,1,.31557.10955,1.6657,1.6657,0,0,1,.20859.21561C16.93946,16.74946,17,17,17,17s.06054.25054.07284.27184a1.6657,1.6657,0,0,0,.20859.21561,1.36348,1.36348,0,0,0,.31557.10955,1.38659,1.38659,0,0,0,.37789-.03415,1.527,1.527,0,0,0,.3843-.19866A1.72494,1.72494,0,0,0,18.68856,17a1.95331,1.95331,0,0,0,.2143-.50987,2.20026,2.20026,0,0,0,.04692-.61584A2.45837,2.45837,0,0,0,18.791,15.209a2.724,2.724,0,0,0-.38385-.64624,2.99477,2.99477,0,0,0-.60591-.553A3.2677,3.2677,0,0,0,17,13.62287a3.54289,3.54289,0,0,0-.9469-.15676,3.819,3.819,0,0,0-1.02309.12177,4.09723,4.09723,0,0,0-1.015.42713,4.37644,4.37644,0,0,0-.91458.73357,4.65514,4.65514,0,0,0-.72167,1.01316A4.93467,4.93467,0,0,0,11.93431,17a5.215,5.215,0,0,0-.09923,1.38394,5.495,5.495,0,0,0,.29046,1.43033A5.77553,5.77553,0,0,0,12.821,21.179a6.05624,6.05624,0,0,0,1.08328,1.18293,6.3372,6.3372,0,0,0,1.42041.89036A6.61793,6.61793,0,0,0,17,23.75425a6.89837,6.89837,0,0,0,1.821.04169,7.17944,7.17944,0,0,0,1.83758-.45914A7.46075,7.46075,0,0,0,22.373,22.373a7.74164,7.74164,0,0,0,1.45128-1.433,8.02341,8.02341,0,0,0,1.059-1.82766A8.30418,8.30418,0,0,0,25.44281,17a8.58534,8.58534,0,0,0-.01584-2.258,8.86684,8.86684,0,0,0-.62783-2.24483A9.148,9.148,0,0,0,23.567,10.433a9.42945,9.42945,0,0,0-1.78271-1.71961,9.7101,9.7101,0,0,0-2.23491-1.22774A9.99176,9.99176,0,0,0,17,6.86862" style="fill: none;stroke: #231f20;stroke-miterlimit: 10;stroke-width: 0.3499999940395355px"/>
</svg>
