<?xml version="1.0" encoding="utf-8"?>
<!-- Generator: Adobe Illustrator 24.3.0, SVG Export Plug-In . SVG Version: 6.00 Build 0)  -->
<svg version="1.1" id="Layer_1" xmlns="http://www.w3.org/2000/svg" xmlns:xlink="http://www.w3.org/1999/xlink" x="0px" y="0px"
	 viewBox="0 0 102 20" style="enable-background:new 0 0 102 20;" xml:space="preserve">
<style type="text/css">
	.st0{enable-background:new    ;}
	.st1{fill:#231F20;}
	.st2{fill:none;stroke:#231F20;stroke-width:0.5;stroke-miterlimit:10;stroke-dasharray:5,4;}
	.st3{fill:#FFFFFF;stroke:#231F20;stroke-width:0.25;stroke-miterlimit:10;}
</style>
<g>
	<g>
		<g class="st0">
			<path class="st1" d="M9.2,12H7.7v-0.5h0.8c0.4,0,0.7-0.3,0.7-0.7v-0.1h0.6v5.5H9.2V12z"/>
			<path class="st1" d="M14.2,14.2c-0.2,0-0.3,0.1-0.5,0.1c-1,0-1.8-0.7-1.8-1.8c0-1,0.8-1.8,1.8-1.8s1.8,0.8,1.8,1.8
				c0,0.4-0.1,0.7-0.3,1l-1.6,2.8H13L14.2,14.2z M14.9,12.5c0-0.7-0.6-1.3-1.2-1.3s-1.2,0.6-1.2,1.3s0.6,1.3,1.2,1.3
				S14.9,13.2,14.9,12.5z"/>
			<path class="st1" d="M16.4,14.8l0.6-0.2c0.1,0.5,0.4,1.2,1.2,1.2c0.8,0,1.2-0.7,1.2-1.4s-0.4-1.3-1.2-1.3c-0.5,0-0.9,0.2-1.1,0.6
				l-0.5-0.2l0.5-2.8h2.7v0.5h-2.3L17.2,13c0.3-0.3,0.7-0.4,1.1-0.4c1,0,1.7,0.8,1.7,1.8s-0.8,1.9-1.8,1.9
				C17.2,16.3,16.6,15.6,16.4,14.8z"/>
			<path class="st1" d="M20.8,15.7c0.9-0.6,1.4-1,1.8-1.5c0.6-0.7,1-1.3,1-2s-0.4-1-1-1c-0.7,0-1.1,0.5-1.1,1.3H21
				c0-1.2,0.7-1.8,1.7-1.8s1.6,0.6,1.6,1.6c0,0.8-0.5,1.6-1.3,2.4c-0.7,0.7-1.1,0.9-1.4,1.1h3v0.5h-3.8
				C20.8,16.3,20.8,15.7,20.8,15.7z"/>
		</g>
	</g>
	<g>
		<path class="st2" d="M86.9,13.7C77.5,23.1,49,7.3,22.7,5.9"/>
		<polygon class="st1" points="19.2,5.8 24.2,4 23,6 24.1,8.1 		"/>
	</g>
	<circle class="st3" cx="90.9" cy="9.8" r="5.7"/>
	<circle class="st1" cx="14.2" cy="5.8" r="2.1"/>
</g>
</svg>
