<svg id="Layer_1" data-name="Layer 1" xmlns="http://www.w3.org/2000/svg" viewBox="0 0 34 34">
  <title>glifi</title>
  <rect width="34" height="34" style="fill: #fff"/>
  <g>
    <path d="M21.71118,19.24847l.0033-.00574c-.56891-.17517-1.563.0113-2.58368-2.9718h0a2.23458,2.23458,0,0,0-1.99738-1.519h0c-3.14734-.18683-3.0766-1.10388-3.39734-1.60541l-.00555.00556a.41832.41832,0,0,0-.35266-.2016.42519.42519,0,0,0-.42517.42517.41839.41839,0,0,0,.20141.35254l-.00555.00549c.50128.32111,1.41839.25092,1.60327,3.39838h0a2.25211,2.25211,0,0,0,2.68262,2.07776h0c3.06408-.60242,3.42279.327,3.85321.7384l.00256.00262.00983.00989.00134-.00238a.42182.42182,0,1,0,.40979-.70984Z" style="fill: #231f20"/>
    <path d="M21.54935,19.62657a5.34842,5.34842,0,0,0,.706-1.2184A5.53579,5.53579,0,0,0,22.62836,17a5.72373,5.72373,0,0,0-.01056-1.50528,5.91108,5.91108,0,0,0-.41854-1.49651,6.09857,6.09857,0,0,0-.82142-1.37605,6.28638,6.28638,0,0,0-1.18843-1.14637,6.47376,6.47376,0,0,0-1.48989-.81847A6.66131,6.66131,0,0,0,17,10.246a6.84838,6.84838,0,0,0-1.79663.04891,7.03647,7.03647,0,0,0-1.768.531,7.22374,7.22374,0,0,0-1.60918,1.00031,7.41092,7.41092,0,0,0-1.32526,1.42157A7.59878,7.59878,0,0,0,9.57,15.00914,7.78636,7.78636,0,0,0,9.12029,17a7.97378,7.97378,0,0,0,.08728,2.088A8.16162,8.16162,0,0,0,9.851,21.12747a8.34934,8.34934,0,0,0,1.1792,1.84231,8.53669,8.53669,0,0,0,1.6547,1.50415,8.72442,8.72442,0,0,0,2.03287,1.04338A8.91216,8.91216,0,0,0,17,26.00538a9.09965,9.09965,0,0,0,2.37932-.12563,9.28721,9.28721,0,0,0,2.311-.75591,9.47446,9.47446,0,0,0,2.07545-1.35809,9.66216,9.66216,0,0,0,1.683-1.88784,9.84991,9.84991,0,0,0,1.15584-2.30436A10.0377,10.0377,0,0,0,27.13105,17a10.22481,10.22481,0,0,0-.164-2.67067,10.41243,10.41243,0,0,0-.86836-2.58247,10.60047,10.60047,0,0,0-1.537-2.30858,10.78821,10.78821,0,0,0-2.121-1.86194A10.97549,10.97549,0,0,0,19.8649,6.30806,11.1629,11.1629,0,0,0,17,5.74328a11.35019,11.35019,0,0,0-2.962.20234,11.5385,11.5385,0,0,0-2.854.98082A11.72581,11.72581,0,0,0,8.64231,8.64231a11.914,11.914,0,0,0-2.04083,2.3541,12.10132,12.10132,0,0,0-1.38074,2.84735A12.28869,12.28869,0,0,0,4.6176,17a12.47653,12.47653,0,0,0,.2407,3.25336,12.66391,12.66391,0,0,0,1.09328,3.12545,12.8513,12.8513,0,0,0,1.89476,2.77485,13.03892,13.03892,0,0,0,2.58724,2.21972,13.22645,13.22645,0,0,0,3.11883,1.49319A13.4144,13.4144,0,0,0,17,30.50807" style="fill: none;stroke: #231f20;stroke-miterlimit: 10;stroke-width: 0.3499999940395355px"/>
    <path d="M17,3.49193a13.4144,13.4144,0,0,1,3.44759.6415,13.22645,13.22645,0,0,1,3.11883,1.49319,13.03892,13.03892,0,0,1,2.58724,2.21972,12.8513,12.8513,0,0,1,1.89476,2.77485,12.66391,12.66391,0,0,1,1.09328,3.12545A12.47653,12.47653,0,0,1,29.3824,17a12.28869,12.28869,0,0,1-.60314,3.15624,12.10132,12.10132,0,0,1-1.38074,2.84735,11.914,11.914,0,0,1-2.04083,2.3541A11.72581,11.72581,0,0,1,22.816,27.07356a11.5385,11.5385,0,0,1-2.854.98082A11.35019,11.35019,0,0,1,17,28.25672a11.1629,11.1629,0,0,1-2.8649-.56478,10.97549,10.97549,0,0,1-2.57585-1.26828,10.78821,10.78821,0,0,1-2.121-1.86194,10.60047,10.60047,0,0,1-1.537-2.30858,10.41243,10.41243,0,0,1-.86836-2.58247A10.22481,10.22481,0,0,1,6.869,17a10.0377,10.0377,0,0,1,.52642-2.57355,9.84991,9.84991,0,0,1,1.15584-2.30436,9.66216,9.66216,0,0,1,1.683-1.88784A9.47446,9.47446,0,0,1,12.3097,8.87616a9.28721,9.28721,0,0,1,2.311-.75591A9.09965,9.09965,0,0,1,17,7.99462a8.91216,8.91216,0,0,1,2.28221.48807,8.72442,8.72442,0,0,1,2.03287,1.04338,8.53669,8.53669,0,0,1,1.6547,1.50415,8.34934,8.34934,0,0,1,1.1792,1.84231,8.16162,8.16162,0,0,1,.64345,2.03949A7.97378,7.97378,0,0,1,24.87971,17,7.78636,7.78636,0,0,1,24.43,18.99086a7.59878,7.59878,0,0,1-.93092,1.76138,7.41092,7.41092,0,0,1-1.32526,1.42157,7.22374,7.22374,0,0,1-1.60918,1.00031,7.03647,7.03647,0,0,1-1.768.531A6.84838,6.84838,0,0,1,17,23.754a6.66131,6.66131,0,0,1-1.69952-.41135,6.47376,6.47376,0,0,1-1.48989-.81847,6.28638,6.28638,0,0,1-1.18843-1.14637,6.09857,6.09857,0,0,1-.82142-1.376,5.91108,5.91108,0,0,1-.41854-1.49651A5.72373,5.72373,0,0,1,11.37164,17a5.53579,5.53579,0,0,1,.373-1.40817,5.34842,5.34842,0,0,1,.706-1.2184,5.16134,5.16134,0,0,1,.96748-.9553" style="fill: none;stroke: #231f20;stroke-miterlimit: 10;stroke-width: 0.3499999940395355px"/>
  </g>
</svg>
