<svg id="Layer_1" data-name="Layer 1" xmlns="http://www.w3.org/2000/svg" viewBox="0 0 34 34">
  <title>glifi</title>
  <rect width="34" height="34" style="fill: #fff"/>
  <path d="M4.5,17a12.40566,12.40566,0,0,1,.60886-3.18622,12.21619,12.21619,0,0,1,1.39386-2.87439A12.02654,12.02654,0,0,1,8.56293,8.56293a11.83716,11.83716,0,0,1,2.56586-1.73217,11.64776,11.64776,0,0,1,2.88106-.99013A11.45864,11.45864,0,0,1,17,5.63636a11.269,11.269,0,0,1,2.89211.57015,11.07962,11.07962,0,0,1,2.60032,1.28033,10.88991,10.88991,0,0,1,2.14111,1.87962A10.7008,10.7008,0,0,1,26.18512,11.697a10.51147,10.51147,0,0,1,.87661,2.607A10.32237,10.32237,0,0,1,27.22728,17a10.1332,10.1332,0,0,1-.53143,2.598A9.94333,9.94333,0,0,1,25.529,21.92424,9.75411,9.75411,0,0,1,23.83,23.83a9.56454,9.56454,0,0,1-2.09516,1.371,9.37553,9.37553,0,0,1-2.33293.76309A9.186,9.186,0,0,1,17,26.09091a8.99655,8.99655,0,0,1-2.30388-.4927,8.80692,8.80692,0,0,1-2.05218-1.05329,8.61754,8.61754,0,0,1-1.67042-1.51844,8.42839,8.42839,0,0,1-1.1904-1.85981,8.23921,8.23921,0,0,1-.64956-2.05886A8.04934,8.04934,0,0,1,9.04545,17a7.86017,7.86017,0,0,1,.454-2.00977,7.67106,7.67106,0,0,1,.93976-1.77811A7.48186,7.48186,0,0,1,11.777,11.777a7.29252,7.29252,0,0,1,1.62446-1.00981,7.10325,7.10325,0,0,1,1.7848-.536A6.91311,6.91311,0,0,1,17,10.18182a6.72427,6.72427,0,0,1,1.71566.41526,6.53518,6.53518,0,0,1,1.504.82624,6.34592,6.34592,0,0,1,1.19972,1.15726,6.15631,6.15631,0,0,1,.82922,1.38912,5.96733,5.96733,0,0,1,.42252,1.51072A5.77768,5.77768,0,0,1,22.68182,17a5.5887,5.5887,0,0,1-.37654,1.42154,5.39985,5.39985,0,0,1-.71272,1.23,5.21033,5.21033,0,0,1-.97667.96437,5.02111,5.02111,0,0,1-1.15377.64863,4.83183,4.83183,0,0,1-1.23665.309A4.643,4.643,0,0,1,17,21.54546a4.45369,4.45369,0,0,1-1.12743-.33783,4.26455,4.26455,0,0,1-.9559-.59919,4.07539,4.07539,0,0,1-.729-.79608,3.88676,3.88676,0,0,1-.468-.91842,3.698,3.698,0,0,1-.19547-.96258A3.50914,3.50914,0,0,1,13.59091,17a3.3208,3.3208,0,0,1,.2991-.83332,3.13264,3.13264,0,0,1,.48567-.68183,2.9453,2.9453,0,0,1,.61549-.49368,2.75762,2.75762,0,0,1,.68307-.28745,2.57047,2.57047,0,0,1,.68852-.082A2.38418,2.38418,0,0,1,17,14.72727a2.19925,2.19925,0,0,1,.53921.26038,2.01549,2.01549,0,0,1,.40776.37215,1.83352,1.83352,0,0,1,.25833.4349,1.65484,1.65484,0,0,1,.10686.44772,1.48089,1.48089,0,0,1-.03158.41445A1.31446,1.31446,0,0,1,18.13636,17a1.16036,1.16036,0,0,1-.22166.24509,1.02769,1.02769,0,0,1-.25862.1337.93336.93336,0,0,1-.25431.023.91753.91753,0,0,1-.21238-.07373,1.12068,1.12068,0,0,1-.14037-.1451C17.04074,17.16861,17,17,17,17s-.04074-.16861-.049-.18294a1.12068,1.12068,0,0,0-.14037-.1451.91753.91753,0,0,0-.21238-.07373.93336.93336,0,0,0-.25431.023,1.02769,1.02769,0,0,0-.25862.1337A1.16036,1.16036,0,0,0,15.86364,17a1.31446,1.31446,0,0,0-.14422.34313,1.48089,1.48089,0,0,0-.03158.41445,1.65484,1.65484,0,0,0,.10686.44772,1.83352,1.83352,0,0,0,.25833.4349,2.01549,2.01549,0,0,0,.40776.37215A2.19925,2.19925,0,0,0,17,19.27273a2.38418,2.38418,0,0,0,.63724.1055,2.57047,2.57047,0,0,0,.68852-.08195,2.75762,2.75762,0,0,0,.68307-.28745,2.9453,2.9453,0,0,0,.61549-.49368,3.13264,3.13264,0,0,0,.48567-.68183A3.3208,3.3208,0,0,0,20.40909,17a3.50914,3.50914,0,0,0,.06678-.93136,3.698,3.698,0,0,0-.19547-.96258,3.88676,3.88676,0,0,0-.468-.91842,4.07539,4.07539,0,0,0-.729-.79608,4.26455,4.26455,0,0,0-.9559-.59919A4.45369,4.45369,0,0,0,17,12.45454a4.643,4.643,0,0,0-1.22547-.02805,4.83183,4.83183,0,0,0-1.23665.309,5.02111,5.02111,0,0,0-1.15377.64863,5.21033,5.21033,0,0,0-.97667.96437,5.39985,5.39985,0,0,0-.71272,1.23A5.5887,5.5887,0,0,0,11.31818,17a5.77768,5.77768,0,0,0,.01066,1.51958,5.96691,5.96691,0,0,0,.42252,1.51072,6.15631,6.15631,0,0,0,.82922,1.38912,6.34592,6.34592,0,0,0,1.19972,1.15726,6.53518,6.53518,0,0,0,1.504.82624A6.72427,6.72427,0,0,0,17,23.81818a6.91311,6.91311,0,0,0,1.81369-.04938,7.10325,7.10325,0,0,0,1.7848-.536A7.29252,7.29252,0,0,0,22.223,22.223a7.48186,7.48186,0,0,0,1.33785-1.43507,7.67106,7.67106,0,0,0,.93976-1.77811A7.86017,7.86017,0,0,0,24.95455,17a8.04934,8.04934,0,0,0-.08811-2.10781,8.23921,8.23921,0,0,0-.64956-2.05886,8.42839,8.42839,0,0,0-1.1904-1.85981,8.61754,8.61754,0,0,0-1.67042-1.51844,8.80692,8.80692,0,0,0-2.05218-1.05329A8.99655,8.99655,0,0,0,17,7.90909a9.186,9.186,0,0,0-2.40192.12682,9.37553,9.37553,0,0,0-2.33293.76309A9.56454,9.56454,0,0,0,10.17,10.17a9.75411,9.75411,0,0,0-1.699,1.90577A9.94333,9.94333,0,0,0,7.30415,14.402,10.1332,10.1332,0,0,0,6.77272,17a10.32237,10.32237,0,0,0,.16555,2.696,10.51147,10.51147,0,0,0,.87661,2.607,10.7008,10.7008,0,0,0,1.55158,2.33051,10.88991,10.88991,0,0,0,2.14111,1.87962,11.07962,11.07962,0,0,0,2.60032,1.28033A11.269,11.269,0,0,0,17,28.36364a11.45864,11.45864,0,0,0,2.99015-.20427,11.64776,11.64776,0,0,0,2.88106-.99013,11.83716,11.83716,0,0,0,2.56586-1.73217,12.02654,12.02654,0,0,0,2.06021-2.37646,12.21619,12.21619,0,0,0,1.39386-2.87439A12.40566,12.40566,0,0,0,29.5,17" style="fill: none;stroke: #231f20;stroke-miterlimit: 10;stroke-width: 0.3499999940395355px"/>
</svg>
