<?xml version="1.0" encoding="utf-8"?>
<!-- Generator: Adobe Illustrator 25.0.0, SVG Export Plug-In . SVG Version: 6.00 Build 0)  -->
<svg version="1.1" id="Livello_1" xmlns="http://www.w3.org/2000/svg" xmlns:xlink="http://www.w3.org/1999/xlink" x="0px" y="0px"
	 viewBox="0 0 300 113.5" enable-background="new 0 0 300 113.5" xml:space="preserve">
<line id="Linea_595" fill="none" stroke="#CCCCCC" stroke-width="0.5" stroke-dasharray="2" x1="144.371" y1="3.89999" x2="144.371" y2="93.5"/>
<path id="Tracciato_116470" fill="none" stroke="#C6CACF" stroke-width="0.5" stroke-dasharray="2" d="M104.471,3.89999V93.5"/>
<line id="Linea_597" fill="none" stroke="#CCCCCC" stroke-width="0.5" stroke-dasharray="2" x1="175.371" y1="64.8" x2="175.371" y2="93.20001"/>
<line id="Linea_598" fill="none" stroke="#000000" stroke-width="0.5" stroke-miterlimit="10" x1="104.571" y1="92.89999" x2="175.371" y2="92.89999"/>
<g id="Raggruppa_892" transform="translate(-252.019 -299.006)">
	
		<rect id="Rettangolo_9627" x="396.57098" y="373.20001" fill="none" stroke="#999999" stroke-width="0.5" stroke-miterlimit="10" width="30.79999" height="4.70001"/>
	
		<rect id="Rettangolo_9628" x="356.57098" y="302.89999" fill="none" stroke="#999999" stroke-width="0.5" stroke-miterlimit="10" width="40" height="4.39999"/>
	<g id="Raggruppa_894" transform="translate(-188.574 -11.821)">
		
			<linearGradient id="Tracciato_108891_1_" gradientUnits="userSpaceOnUse" x1="-997.63519" y1="888.57861" x2="-998.1651" y2="889.5636" gradientTransform="matrix(35.613 0 0 -75 36120.43359 67030.85156)">
			<stop  offset="0" style="stop-color:#A906FF"/>
			<stop  offset="0" style="stop-color:#FBAE17"/>
			<stop  offset="1" style="stop-color:#7F47DD"/>
		</linearGradient>
		<path id="Tracciato_108891" fill="url(#Tracciato_108891_1_)" d="M600.47101,389.79999c-17.70001,0-19.79999-20.70001-21.59998-39
			c-1.90002-19-3.90002-31.5-14-31.5v-4.5c15,0,16.70001,18.09998,18.5,35.59998c1.79999,18,3.5,34.90002,17.09998,34.90002
			V389.79999z"/>
	</g>
</g>
<line id="Linea_599" fill="none" stroke="#000000" stroke-width="0.5" x1="142.27101" y1="6.10001" x2="187.97101" y2="6.10001"/>
<line id="Linea_600" fill="none" stroke="#000000" stroke-width="0.5" x1="172.47101" y1="76.60001" x2="189.371" y2="76.60001"/>
<line id="Linea_601" fill="none" stroke="#000000" stroke-width="0.5" x1="104.571" y1="90.79999" x2="104.571" y2="94.89999"/>
<line id="Linea_602" fill="none" stroke="#000000" stroke-width="0.5" x1="175.371" y1="90.79999" x2="175.371" y2="94.89999"/>
<g id="Group_880" transform="translate(-252.019 -299.006)">
	
		<line id="Line_219" fill="none" stroke="#000000" stroke-width="0.5" x1="349.67099" y1="305.29999" x2="349.67099" y2="375.90002"/>
	<line id="Line_220" fill="none" stroke="#000000" stroke-width="0.5" x1="345.47098" y1="305.29999" x2="377.371" y2="305.29999"/>
	<path id="Line_221" fill="none" stroke="#000000" stroke-width="0.5" d="M345.47098,375.90002h63.89999"/>
</g>
<circle id="Ellisse_230" stroke="#FFFFFF" stroke-miterlimit="10" cx="122.37099" cy="6.10001" r="2.89999"/>
<circle id="Ellisse_231" stroke="#FFFFFF" stroke-miterlimit="10" cx="161.17101" cy="76.60001" r="2.89999"/>
<g>
	<rect x="-9.67948" y="17.11386" fill="none" width="98.31558" height="52.40449"/>
	<path d="M6.89404,18.6333v6.96582h-0.7793l-3.42822-5.75684v5.75684H1.97656V18.6333h0.77002l3.43799,5.72656V18.6333H6.89404z"/>
	<path d="M12.56494,22.53076v3.06836h-0.62988l-0.04004-0.75977c-0.38965,0.5498-0.98926,0.83984-1.76904,0.83984
		c-1.06934,0-1.69873-0.55957-1.69873-1.50977c0-0.49902,0.19971-0.87891,0.55957-1.09863
		c0.37988-0.21973,0.90967-0.31055,1.87891-0.31055H11.875v-0.22949c0-0.85938-0.44971-1.3291-1.2793-1.3291
		c-0.61963,0-1.09912,0.26953-1.49902,0.81934l-0.49951-0.41992c0.5293-0.68945,1.16895-1.00879,2.00879-1.00879
		C11.84521,20.59229,12.56494,21.30127,12.56494,22.53076z M11.875,23.39014V23.3208h-0.94922
		c-0.90967,0-1.29932,0.05957-1.53906,0.24902c-0.18018,0.14062-0.27002,0.36035-0.27002,0.63965
		c0,0.5498,0.46973,0.90039,1.20947,0.90039C11.27539,25.10986,11.875,24.43994,11.875,23.39014z"/>
	<path d="M17.24512,20.80225l-0.33984,0.55957c-0.22949-0.10059-0.43945-0.15039-0.64941-0.15039
		c-0.75977,0-1.31934,0.56934-1.31934,1.63965v2.74805h-0.68945v-4.92773h0.68945v0.74023
		c0.35986-0.64941,0.95947-0.81934,1.45898-0.81934C16.6958,20.59229,16.97559,20.65186,17.24512,20.80225z"/>
	<path d="M21.26514,20.80225l-0.33984,0.55957c-0.22949-0.10059-0.43945-0.15039-0.64941-0.15039
		c-0.75977,0-1.31934,0.56934-1.31934,1.63965v2.74805h-0.68945v-4.92773h0.68945v0.74023
		c0.35986-0.64941,0.95947-0.81934,1.45898-0.81934C20.71533,20.59229,20.99561,20.65186,21.26514,20.80225z"/>
	<path d="M25.95508,22.53076v3.06836H25.3252l-0.04004-0.75977c-0.38965,0.5498-0.98926,0.83984-1.76904,0.83984
		c-1.06934,0-1.69873-0.55957-1.69873-1.50977c0-0.49902,0.19971-0.87891,0.55957-1.09863
		c0.37988-0.21973,0.90967-0.31055,1.87891-0.31055h1.00928v-0.22949c0-0.85938-0.44971-1.3291-1.2793-1.3291
		c-0.61963,0-1.09912,0.26953-1.49902,0.81934l-0.49951-0.41992c0.5293-0.68945,1.16895-1.00879,2.00879-1.00879
		C25.23535,20.59229,25.95508,21.30127,25.95508,22.53076z M25.26514,23.39014V23.3208h-0.94922
		c-0.90967,0-1.29932,0.05957-1.53906,0.24902c-0.18018,0.14062-0.27002,0.36035-0.27002,0.63965
		c0,0.5498,0.46973,0.90039,1.20947,0.90039C24.66553,25.10986,25.26514,24.43994,25.26514,23.39014z"/>
	<path d="M29.68604,25.54932c-0.25977,0.08008-0.52002,0.12988-0.74951,0.12988c-0.65967,0-1.13965-0.37012-1.13965-1.23926
		v-3.18848h-0.81934v-0.58008h0.81934v-1.37891l0.68994-0.51953v1.89844h1.18896v0.58008h-1.18896v3.09863
		c0,0.47949,0.21973,0.69922,0.60938,0.69922c0.16992,0,0.35986-0.04004,0.57959-0.10938L29.68604,25.54932z"/>
	<path d="M30.93701,18.6333h0.79932v1.01953h-0.79932V18.6333z M30.99707,20.67139h0.68945v4.92773h-0.68945V20.67139z"/>
	<path d="M32.79688,20.67139h0.75l1.54883,4.04785l1.55908-4.04785h0.75977l-2.01904,4.92773h-0.58936L32.79688,20.67139z"/>
	<path d="M42.27441,23.3208H38.6665c0.02002,1.0791,0.61963,1.72852,1.58936,1.72852c0.53955,0,0.96924-0.13965,1.41895-0.61914
		l0.47998,0.41895c-0.57959,0.61035-1.14941,0.83008-1.90918,0.83008c-1.49902,0-2.26855-1.11914-2.26855-2.51855
		c0-1.38965,0.75977-2.56836,2.18896-2.56836c1.50879,0,2.13867,1.17871,2.13867,2.29785
		C42.30469,23.03076,42.29443,23.20068,42.27441,23.3208z M38.6665,22.74072h2.97852c0-0.02051-0.01025-0.07031-0.01025-0.16016
		c-0.0498-0.7998-0.55957-1.40918-1.46875-1.40918C39.27637,21.17139,38.72656,21.87158,38.6665,22.74072z"/>
	<path d="M50.32422,23.3208h-3.60791c0.02002,1.0791,0.61963,1.72852,1.58936,1.72852c0.53955,0,0.96924-0.13965,1.41895-0.61914
		l0.47998,0.41895c-0.57959,0.61035-1.14941,0.83008-1.90918,0.83008c-1.49902,0-2.26855-1.11914-2.26855-2.51855
		c0-1.38965,0.75977-2.56836,2.18896-2.56836c1.50879,0,2.13867,1.17871,2.13867,2.29785
		C50.35449,23.03076,50.34424,23.20068,50.32422,23.3208z M46.71631,22.74072h2.97852c0-0.02051-0.01025-0.07031-0.01025-0.16016
		c-0.0498-0.7998-0.55957-1.40918-1.46875-1.40918C47.32617,21.17139,46.77637,21.87158,46.71631,22.74072z"/>
	<path d="M52.896,23.13037l-1.79932-2.45898h0.83984l1.41895,1.97949l1.40918-1.97949h0.83984l-1.79932,2.45898l1.80908,2.46875
		h-0.84961l-1.40918-1.99902l-1.40918,1.99902h-0.84961L52.896,23.13037z"/>
	<path d="M56.26611,23.15088c0-1.2998,0.72998-2.55859,2.21875-2.55859c0.87988,0,1.60938,0.43945,1.99902,1.3584l-0.65967,0.26074
		c-0.22949-0.62988-0.71924-1.00977-1.33936-1.00977c-1.04932,0-1.51904,0.93945-1.51904,1.94922
		c0,1.00879,0.46973,1.91895,1.5293,1.91895c0.61963,0,1.10938-0.37012,1.29932-1l0.63965,0.24023
		c-0.33008,0.89941-1.04932,1.36914-1.93896,1.36914C57.06592,25.6792,56.26611,24.52002,56.26611,23.15088z"/>
	<path d="M65.51416,20.67139v4.92773h-0.68945v-0.70996c-0.34961,0.53027-0.97949,0.79004-1.62891,0.79004
		c-1.11963,0-1.60938-0.76953-1.60938-1.98926v-3.01855h0.68945v2.84863c0,0.7998,0.14014,1.5498,1.07959,1.5498
		c0.97949,0,1.46924-0.84961,1.46924-2.12891v-2.26953H65.51416z"/>
	<path d="M70.33447,20.80225l-0.33984,0.55957c-0.22949-0.10059-0.43945-0.15039-0.64941-0.15039
		c-0.75977,0-1.31934,0.56934-1.31934,1.63965v2.74805h-0.68945v-4.92773h0.68945v0.74023
		c0.35986-0.64941,0.95947-0.81934,1.45898-0.81934C69.78467,20.59229,70.06494,20.65186,70.33447,20.80225z"/>
	<path d="M70.52637,24.39014l0.57959-0.25977c0.17969,0.50977,0.65967,0.93945,1.4292,0.93945
		c0.66943,0,1.09961-0.33008,1.09961-0.84961c0-1.30957-2.83887-0.49023-2.83887-2.23926c0-0.85938,0.69971-1.38867,1.68945-1.38867
		c0.78955,0,1.4292,0.3291,1.76904,1.0293l-0.5498,0.2998c-0.23975-0.44043-0.62988-0.71973-1.23926-0.71973
		c-0.60986,0-0.99951,0.25-0.99951,0.67969c0,1.16895,2.84814,0.42969,2.84814,2.29883c0,0.99902-0.81934,1.49902-1.76855,1.49902
		C71.57568,25.6792,70.78613,25.1792,70.52637,24.39014z"/>
	<path d="M75.65576,18.6333h0.79932v1.01953h-0.79932V18.6333z M75.71582,20.67139h0.68945v4.92773h-0.68945V20.67139z"/>
	<path d="M77.79541,23.13037c0-1.45898,0.94971-2.53809,2.35889-2.53809c1.39941,0,2.36865,1.0791,2.36865,2.53809
		c0,1.44922-0.95947,2.54883-2.36865,2.54883S77.79541,24.58936,77.79541,23.13037z M81.8335,23.13037
		c0-1.11914-0.62988-1.92871-1.6792-1.92871c-1.05957,0-1.66895,0.81934-1.66895,1.92871c0,1.11914,0.61963,1.93945,1.66895,1.93945
		C81.21387,25.06982,81.8335,24.22998,81.8335,23.13037z"/>
	<path d="M87.84326,22.58057v3.01855h-0.68945v-2.84863c0-1.05957-0.33984-1.54883-1.07959-1.54883
		c-0.92969,0-1.46924,0.7998-1.46924,2.18848v2.20898h-0.68945v-4.92773h0.68945v0.71973
		c0.31982-0.49902,0.91943-0.79883,1.62891-0.79883C87.29346,20.59229,87.84326,21.27197,87.84326,22.58057z"/>
	<path d="M13.83398,35.13037c0,1.46973-0.74951,2.54883-2.18896,2.54883c-0.71924,0-1.26904-0.28027-1.62891-0.73926v0.65918
		H9.32666V30.6333h0.68945v2.69824c0.36963-0.47949,0.92969-0.75,1.62891-0.75
		C13.01465,32.58154,13.83398,33.59131,13.83398,35.13037z M13.14453,35.13037c0-1.16895-0.59961-1.93848-1.59912-1.93848
		c-0.98975,0-1.58936,0.76953-1.58936,1.93848c0,1.11914,0.5498,1.93945,1.58936,1.93945
		C12.59473,37.06982,13.14453,36.24951,13.14453,35.13037z"/>
	<path d="M19.16406,35.3208h-3.60791c0.02002,1.0791,0.61963,1.72852,1.58936,1.72852c0.53955,0,0.96924-0.13965,1.41895-0.61914
		l0.47998,0.41895c-0.57959,0.61035-1.14941,0.83008-1.90918,0.83008c-1.49902,0-2.26855-1.11914-2.26855-2.51855
		c0-1.38965,0.75977-2.56836,2.18896-2.56836c1.50879,0,2.13867,1.17871,2.13867,2.29785
		C19.19434,35.03076,19.18408,35.20068,19.16406,35.3208z M15.55615,34.74072h2.97852c0-0.02051-0.01025-0.07031-0.01025-0.16016
		c-0.0498-0.7998-0.55957-1.40918-1.46875-1.40918C16.16602,33.17139,15.61621,33.87158,15.55615,34.74072z"/>
	<path d="M22.63525,37.54932c-0.25977,0.08008-0.52002,0.12988-0.74951,0.12988c-0.65967,0-1.13965-0.37012-1.13965-1.23926
		v-3.18848h-0.81934v-0.58008h0.81934v-1.37891l0.68994-0.51953v1.89844H22.625v0.58008h-1.18896v3.09863
		c0,0.47949,0.21973,0.69922,0.60938,0.69922c0.16992,0,0.35986-0.04004,0.57959-0.10938L22.63525,37.54932z"/>
	<path d="M23.4165,32.67139h0.73975l1.05908,3.88867l1.29932-3.88867h0.62988l1.28906,3.88867l1.06982-3.88867h0.72949
		l-1.43945,4.92773h-0.64941l-1.30957-3.97754l-1.3291,3.97754h-0.63965L23.4165,32.67139z"/>
	<path d="M35.23389,35.3208h-3.60791c0.02002,1.0791,0.61963,1.72852,1.58936,1.72852c0.53955,0,0.96924-0.13965,1.41895-0.61914
		l0.47998,0.41895c-0.57959,0.61035-1.14941,0.83008-1.90918,0.83008c-1.49902,0-2.26855-1.11914-2.26855-2.51855
		c0-1.38965,0.75977-2.56836,2.18896-2.56836c1.50879,0,2.13867,1.17871,2.13867,2.29785
		C35.26416,35.03076,35.25391,35.20068,35.23389,35.3208z M31.62598,34.74072h2.97852c0-0.02051-0.01025-0.07031-0.01025-0.16016
		c-0.0498-0.7998-0.55957-1.40918-1.46875-1.40918C32.23584,33.17139,31.68604,33.87158,31.62598,34.74072z"/>
	<path d="M40.55371,35.3208H36.9458c0.02002,1.0791,0.61963,1.72852,1.58936,1.72852c0.53955,0,0.96924-0.13965,1.41895-0.61914
		l0.47998,0.41895c-0.57959,0.61035-1.14941,0.83008-1.90918,0.83008c-1.49902,0-2.26855-1.11914-2.26855-2.51855
		c0-1.38965,0.75977-2.56836,2.18896-2.56836c1.50879,0,2.13867,1.17871,2.13867,2.29785
		C40.58398,35.03076,40.57373,35.20068,40.55371,35.3208z M36.9458,34.74072h2.97852c0-0.02051-0.01025-0.07031-0.01025-0.16016
		c-0.0498-0.7998-0.55957-1.40918-1.46875-1.40918C37.55566,33.17139,37.00586,33.87158,36.9458,34.74072z"/>
	<path d="M45.90381,34.58057v3.01855h-0.68945v-2.84863c0-1.05957-0.33984-1.54883-1.07959-1.54883
		c-0.92969,0-1.46924,0.7998-1.46924,2.18848v2.20898h-0.68945v-4.92773h0.68945v0.71973
		c0.31982-0.49902,0.91943-0.79883,1.62891-0.79883C45.354,32.59229,45.90381,33.27197,45.90381,34.58057z"/>
	<path d="M52.38477,37.54932c-0.25977,0.08008-0.52002,0.12988-0.74951,0.12988c-0.65967,0-1.13965-0.37012-1.13965-1.23926
		v-3.18848h-0.81934v-0.58008h0.81934v-1.37891l0.68945-0.51953v1.89844h1.18945v0.58008h-1.18945v3.09863
		c0,0.47949,0.22021,0.69922,0.60986,0.69922c0.16992,0,0.35986-0.04004,0.57959-0.10938L52.38477,37.54932z"/>
	<path d="M57.62354,34.58057v3.01855h-0.68945v-2.84863c0-1.06934-0.33984-1.54883-1.07959-1.54883
		c-0.93945,0-1.46924,0.76953-1.46924,2.12891v2.26855H53.6958V30.6333h0.68945v2.75781
		c0.31982-0.49902,0.91943-0.79883,1.62891-0.79883C57.07373,32.59229,57.62354,33.27197,57.62354,34.58057z"/>
	<path d="M63.22314,35.3208h-3.60791c0.02002,1.0791,0.61963,1.72852,1.58936,1.72852c0.53955,0,0.96924-0.13965,1.41895-0.61914
		l0.47998,0.41895c-0.57959,0.61035-1.14941,0.83008-1.90918,0.83008c-1.49902,0-2.26855-1.11914-2.26855-2.51855
		c0-1.38965,0.75977-2.56836,2.18896-2.56836c1.50879,0,2.13867,1.17871,2.13867,2.29785
		C63.25342,35.03076,63.24316,35.20068,63.22314,35.3208z M59.61523,34.74072h2.97852c0-0.02051-0.01025-0.07031-0.01025-0.16016
		c-0.0498-0.7998-0.55957-1.40918-1.46875-1.40918C60.2251,33.17139,59.67529,33.87158,59.61523,34.74072z"/>
	<path d="M74.13184,34.521v3.07812h-0.68994v-2.88867c0-0.41992,0-1.50879-1.0791-1.50879
		c-0.99951,0-1.26953,0.91895-1.26953,2.02832v2.36914h-0.68945v-2.84863c0-0.81934-0.25-1.54883-1.10938-1.54883
		c-0.95947,0-1.22949,0.90918-1.22949,2.02832v2.36914h-0.68945l-0.01025-4.92773h0.66992v0.60059
		c0.30957-0.49023,0.80957-0.67969,1.35889-0.67969c0.68994,0,1.19971,0.2998,1.44922,0.94922
		c0.31982-0.62988,0.86963-0.94922,1.61914-0.94922C73.64209,32.59229,74.13184,33.37158,74.13184,34.521z"/>
	<path d="M75.40576,35.13037c0-1.45898,0.94922-2.53809,2.3584-2.53809c1.39941,0,2.36865,1.0791,2.36865,2.53809
		c0,1.44922-0.95947,2.54883-2.36865,2.54883S75.40576,36.58936,75.40576,35.13037z M79.44336,35.13037
		c0-1.11914-0.62988-1.92871-1.6792-1.92871c-1.05957,0-1.66895,0.81934-1.66895,1.92871c0,1.11914,0.61963,1.93945,1.66895,1.93945
		C78.82373,37.06982,79.44336,36.22998,79.44336,35.13037z"/>
	<path d="M80.99561,36.39014l0.57959-0.25977c0.17969,0.50977,0.65967,0.93945,1.4292,0.93945
		c0.66943,0,1.09961-0.33008,1.09961-0.84961c0-1.30957-2.83887-0.49023-2.83887-2.23926c0-0.85938,0.69971-1.38867,1.68945-1.38867
		c0.78955,0,1.4292,0.3291,1.76904,1.0293l-0.5498,0.2998c-0.23975-0.44043-0.62988-0.71973-1.23926-0.71973
		c-0.60986,0-0.99951,0.25-0.99951,0.67969c0,1.16895,2.84814,0.42969,2.84814,2.29883c0,0.99902-0.81934,1.49902-1.76904,1.49902
		C82.04492,37.6792,81.25537,37.1792,80.99561,36.39014z"/>
	<path d="M88.23389,37.54932c-0.25977,0.08008-0.52002,0.12988-0.74951,0.12988c-0.65967,0-1.13965-0.37012-1.13965-1.23926
		v-3.18848h-0.81934v-0.58008h0.81934v-1.37891l0.68994-0.51953v1.89844h1.18896v0.58008h-1.18896v3.09863
		c0,0.47949,0.21973,0.69922,0.60938,0.69922c0.16992,0,0.35986-0.04004,0.57959-0.10938L88.23389,37.54932z"/>
	<path d="M3.10742,48.39014l0.57959-0.25977c0.17969,0.50977,0.65967,0.93945,1.4292,0.93945
		c0.66943,0,1.09961-0.33008,1.09961-0.84961c0-1.30957-2.83887-0.49023-2.83887-2.23926c0-0.85938,0.69971-1.38867,1.68945-1.38867
		c0.78955,0,1.4292,0.3291,1.76904,1.0293l-0.5498,0.2998c-0.23975-0.44043-0.62988-0.71973-1.23926-0.71973
		c-0.60986,0-0.99951,0.25-0.99951,0.67969c0,1.16895,2.84814,0.42969,2.84814,2.29883c0,0.99902-0.81934,1.49902-1.76855,1.49902
		C4.15674,49.6792,3.36719,49.1792,3.10742,48.39014z"/>
	<path d="M10.3457,49.54932c-0.25977,0.08008-0.52002,0.12988-0.74951,0.12988c-0.65967,0-1.13965-0.37012-1.13965-1.23926v-3.18848
		H7.63721v-0.58008h0.81934v-1.37891L9.146,42.77295v1.89844h1.18945v0.58008H9.146v3.09863
		c0,0.47949,0.22021,0.69922,0.60986,0.69922c0.16992,0,0.35986-0.04004,0.57959-0.10938L10.3457,49.54932z"/>
	<path d="M15.32471,46.53076v3.06836h-0.62988l-0.04004-0.75977c-0.38965,0.5498-0.98926,0.83984-1.76904,0.83984
		c-1.06934,0-1.69873-0.55957-1.69873-1.50977c0-0.49902,0.19971-0.87891,0.55957-1.09863
		c0.37988-0.21973,0.90967-0.31055,1.87891-0.31055h1.00928v-0.22949c0-0.85938-0.44971-1.3291-1.2793-1.3291
		c-0.61963,0-1.09912,0.26953-1.49902,0.81934l-0.49951-0.41992c0.5293-0.68945,1.16895-1.00879,2.00879-1.00879
		C14.60498,44.59229,15.32471,45.30127,15.32471,46.53076z M14.63477,47.39014V47.3208h-0.94922
		c-0.90967,0-1.29932,0.05957-1.53906,0.24902c-0.18018,0.14062-0.27002,0.36035-0.27002,0.63965
		c0,0.5498,0.46973,0.90039,1.20947,0.90039C14.03516,49.10986,14.63477,48.43994,14.63477,47.39014z"/>
	<path d="M19.05566,49.54932c-0.25977,0.08008-0.52002,0.12988-0.74951,0.12988c-0.65967,0-1.13965-0.37012-1.13965-1.23926
		v-3.18848h-0.81934v-0.58008h0.81934v-1.37891l0.68945-0.51953v1.89844h1.18945v0.58008h-1.18945v3.09863
		c0,0.47949,0.22021,0.69922,0.60986,0.69922c0.16992,0,0.35986-0.04004,0.57959-0.10938L19.05566,49.54932z"/>
	<path d="M20.30664,42.6333h0.79932v1.01953h-0.79932V42.6333z M20.3667,44.67139h0.68945v4.92773H20.3667V44.67139z"/>
	<path d="M22.46631,47.15088c0-1.2998,0.72998-2.55859,2.21875-2.55859c0.87988,0,1.60938,0.43945,1.99902,1.3584l-0.65967,0.26074
		c-0.22949-0.62988-0.71924-1.00977-1.33936-1.00977c-1.04932,0-1.51904,0.93945-1.51904,1.94922
		c0,1.00879,0.46973,1.91895,1.5293,1.91895c0.61963,0,1.10938-0.37012,1.29932-1l0.63965,0.24023
		c-0.33008,0.89941-1.04932,1.36914-1.93896,1.36914C23.26611,49.6792,22.46631,48.52002,22.46631,47.15088z"/>
	<path d="M34.35449,46.53076v3.06836h-0.62988l-0.04004-0.75977c-0.38965,0.5498-0.98926,0.83984-1.76904,0.83984
		c-1.06934,0-1.69873-0.55957-1.69873-1.50977c0-0.49902,0.19971-0.87891,0.55957-1.09863
		c0.37988-0.21973,0.90967-0.31055,1.87891-0.31055h1.00928v-0.22949c0-0.85938-0.44971-1.3291-1.2793-1.3291
		c-0.61963,0-1.09912,0.26953-1.49902,0.81934l-0.49951-0.41992c0.5293-0.68945,1.16895-1.00879,2.00879-1.00879
		C33.63477,44.59229,34.35449,45.30127,34.35449,46.53076z M33.66455,47.39014V47.3208h-0.94922
		c-0.90967,0-1.29932,0.05957-1.53906,0.24902c-0.18018,0.14062-0.27002,0.36035-0.27002,0.63965
		c0,0.5498,0.46973,0.90039,1.20947,0.90039C33.06494,49.10986,33.66455,48.43994,33.66455,47.39014z"/>
	<path d="M39.96436,46.58057v3.01855H39.2749v-2.84863c0-1.05957-0.33984-1.54883-1.07959-1.54883
		c-0.92969,0-1.46924,0.7998-1.46924,2.18848v2.20898h-0.68945v-4.92773h0.68945v0.71973
		c0.31982-0.49902,0.91943-0.79883,1.62891-0.79883C39.41455,44.59229,39.96436,45.27197,39.96436,46.58057z"/>
	<path d="M45.78418,42.6333v6.96582h-0.68994v-0.65918c-0.35938,0.45898-0.90918,0.73926-1.62891,0.73926
		c-1.43896,0-2.18896-1.0791-2.18896-2.54883c0-1.53906,0.81982-2.54883,2.18896-2.54883c0.69971,0,1.25928,0.27051,1.62891,0.75
		V42.6333H45.78418z M45.1543,47.13037c0-1.16895-0.59961-1.93848-1.58887-1.93848c-0.99951,0-1.59912,0.76953-1.59912,1.93848
		c0,1.11914,0.5498,1.93945,1.59912,1.93945C44.60449,49.06982,45.1543,48.24951,45.1543,47.13037z"/>
	<path d="M52.38525,49.54932c-0.25977,0.08008-0.52002,0.12988-0.74951,0.12988c-0.65967,0-1.13965-0.37012-1.13965-1.23926
		v-3.18848h-0.81934v-0.58008h0.81934v-1.37891l0.68994-0.51953v1.89844H52.375v0.58008h-1.18896v3.09863
		c0,0.47949,0.21973,0.69922,0.60938,0.69922c0.16992,0,0.35986-0.04004,0.57959-0.10938L52.38525,49.54932z"/>
	<path d="M57.62402,46.58057v3.01855h-0.68945v-2.84863c0-1.06934-0.33984-1.54883-1.07959-1.54883
		c-0.93945,0-1.46924,0.76953-1.46924,2.12891v2.26855h-0.68945V42.6333h0.68945v2.75781
		c0.31982-0.49902,0.91943-0.79883,1.62891-0.79883C57.07422,44.59229,57.62402,45.27197,57.62402,46.58057z"/>
	<path d="M63.22363,47.3208h-3.60791c0.02002,1.0791,0.61963,1.72852,1.58936,1.72852c0.53955,0,0.96924-0.13965,1.41895-0.61914
		l0.47998,0.41895c-0.57959,0.61035-1.14941,0.83008-1.90918,0.83008c-1.49902,0-2.26855-1.11914-2.26855-2.51855
		c0-1.38965,0.75977-2.56836,2.18896-2.56836c1.50879,0,2.13867,1.17871,2.13867,2.29785
		C63.25391,47.03076,63.24365,47.20068,63.22363,47.3208z M59.61572,46.74072h2.97852c0-0.02051-0.01025-0.07031-0.01025-0.16016
		c-0.0498-0.7998-0.55957-1.40918-1.46875-1.40918C60.22559,45.17139,59.67578,45.87158,59.61572,46.74072z"/>
	<path d="M74.13232,46.521v3.07812h-0.68994v-2.88867c0-0.41992,0-1.50879-1.0791-1.50879
		c-0.99951,0-1.26953,0.91895-1.26953,2.02832v2.36914H70.4043v-2.84863c0-0.81934-0.25-1.54883-1.10938-1.54883
		c-0.95947,0-1.22949,0.90918-1.22949,2.02832v2.36914h-0.68945l-0.01025-4.92773h0.66992v0.60059
		c0.30957-0.49023,0.80957-0.67969,1.35889-0.67969c0.68994,0,1.19971,0.2998,1.44922,0.94922
		c0.31982-0.62988,0.86963-0.94922,1.61914-0.94922C73.64258,44.59229,74.13232,45.37158,74.13232,46.521z"/>
	<path d="M75.40576,47.13037c0-1.45898,0.94971-2.53809,2.35889-2.53809c1.39941,0,2.36865,1.0791,2.36865,2.53809
		c0,1.44922-0.95947,2.54883-2.36865,2.54883S75.40576,48.58936,75.40576,47.13037z M79.44385,47.13037
		c0-1.11914-0.62988-1.92871-1.6792-1.92871c-1.05957,0-1.66895,0.81934-1.66895,1.92871c0,1.11914,0.61963,1.93945,1.66895,1.93945
		C78.82422,49.06982,79.44385,48.22998,79.44385,47.13037z"/>
	<path d="M80.99609,48.39014l0.57959-0.25977c0.17969,0.50977,0.65967,0.93945,1.4292,0.93945
		c0.66943,0,1.09961-0.33008,1.09961-0.84961c0-1.30957-2.83887-0.49023-2.83887-2.23926c0-0.85938,0.69971-1.38867,1.68945-1.38867
		c0.78955,0,1.4292,0.3291,1.76904,1.0293l-0.5498,0.2998c-0.23975-0.44043-0.62988-0.71973-1.23926-0.71973
		c-0.60986,0-0.99951,0.25-0.99951,0.67969c0,1.16895,2.84814,0.42969,2.84814,2.29883c0,0.99902-0.81934,1.49902-1.76855,1.49902
		C82.04541,49.6792,81.25586,49.1792,80.99609,48.39014z"/>
	<path d="M88.23438,49.54932c-0.25977,0.08008-0.52002,0.12988-0.74951,0.12988c-0.65967,0-1.13965-0.37012-1.13965-1.23926
		v-3.18848h-0.81934v-0.58008h0.81934v-1.37891l0.68945-0.51953v1.89844h1.18945v0.58008h-1.18945v3.09863
		c0,0.47949,0.22021,0.69922,0.60986,0.69922c0.16992,0,0.35986-0.04004,0.57959-0.10938L88.23438,49.54932z"/>
	<path d="M5.45459,54.6333v6.96631H4.76465v-0.65918c-0.35938,0.45898-0.90918,0.73926-1.62891,0.73926
		c-1.43896,0-2.18896-1.0791-2.18896-2.54883c0-1.53955,0.81982-2.54932,2.18896-2.54932c0.69971,0,1.25928,0.27051,1.62891,0.75
		V54.6333H5.45459z M4.82471,59.13086c0-1.16943-0.59961-1.93896-1.58887-1.93896c-0.99951,0-1.59912,0.76953-1.59912,1.93896
		c0,1.11914,0.54932,1.93945,1.59912,1.93945C4.2749,61.07031,4.82471,60.25,4.82471,59.13086z"/>
	<path d="M8.63574,61.54004l-2.08887-4.86865h0.75977l1.69922,4.05908l1.48926-4.05908h0.75928l-2.69824,6.96729H7.81641
		L8.63574,61.54004z"/>
	<path d="M16.30469,58.58105v3.01855h-0.68945v-2.84863c0-1.06006-0.33984-1.54932-1.07959-1.54932
		c-0.92969,0-1.46924,0.80029-1.46924,2.18896v2.20898h-0.68945v-4.92822h0.68945v0.71973
		c0.31982-0.49902,0.91943-0.79883,1.62891-0.79883C15.75488,56.59229,16.30469,57.27197,16.30469,58.58105z"/>
	<path d="M21.6748,58.53125v3.06836h-0.62988l-0.04004-0.75977c-0.38965,0.5498-0.98926,0.83984-1.76904,0.83984
		c-1.06934,0-1.69873-0.55957-1.69873-1.50977c0-0.49902,0.19971-0.87891,0.55957-1.09863
		c0.37988-0.21973,0.90967-0.31055,1.87891-0.31055h1.00928v-0.22949c0-0.85986-0.44971-1.32959-1.2793-1.32959
		c-0.61963,0-1.09912,0.26953-1.49902,0.81982l-0.49951-0.42041c0.5293-0.68945,1.16895-1.00879,2.00879-1.00879
		C20.95508,56.59229,21.6748,57.30127,21.6748,58.53125z M20.98486,59.39062v-0.06934h-0.94922
		c-0.90967,0-1.29932,0.05957-1.53906,0.24902c-0.18018,0.14062-0.27002,0.36035-0.27002,0.63965
		c0,0.5498,0.46973,0.90039,1.20947,0.90039C20.38525,61.11035,20.98486,60.44043,20.98486,59.39062z"/>
	<path d="M30.11328,58.52148v3.07812h-0.68994v-2.88867c0-0.41992,0-1.50928-1.0791-1.50928
		c-0.99951,0-1.26953,0.91943-1.26953,2.02881v2.36914h-0.68945v-2.84863c0-0.81982-0.25-1.54932-1.10938-1.54932
		c-0.95947,0-1.22949,0.90967-1.22949,2.02881v2.36914h-0.68945l-0.01025-4.92822h0.66992v0.60059
		c0.30957-0.49023,0.80957-0.67969,1.35889-0.67969c0.68994,0,1.19971,0.2998,1.44922,0.94922
		c0.31982-0.62988,0.86963-0.94922,1.61914-0.94922C29.62354,56.59229,30.11328,57.37158,30.11328,58.52148z"/>
	<path d="M31.75684,54.6333h0.79932v1.01953h-0.79932V54.6333z M31.81689,56.67139h0.68945v4.92822h-0.68945V56.67139z"/>
	<path d="M33.9165,59.15137c0-1.30029,0.72998-2.55908,2.21875-2.55908c0.87988,0,1.60938,0.43945,1.99902,1.3584l-0.65967,0.26123
		c-0.22949-0.63037-0.71924-1.01025-1.33936-1.01025c-1.04932,0-1.51904,0.93994-1.51904,1.94971
		c0,1.00879,0.46973,1.91895,1.5293,1.91895c0.61963,0,1.10938-0.37012,1.29932-1l0.63965,0.24023
		c-0.33008,0.89941-1.04932,1.36914-1.93896,1.36914C34.71631,61.67969,33.9165,60.52051,33.9165,59.15137z"/>
	<path d="M41.60693,60.39062l0.57959-0.25977c0.17969,0.50977,0.65967,0.93945,1.4292,0.93945
		c0.66943,0,1.09961-0.33008,1.09961-0.84961c0-1.30957-2.83887-0.49023-2.83887-2.23975c0-0.85938,0.69971-1.38867,1.68945-1.38867
		c0.78955,0,1.4292,0.3291,1.76904,1.0293l-0.5498,0.2998c-0.23975-0.44043-0.62988-0.71973-1.23926-0.71973
		c-0.60986,0-0.99951,0.25-0.99951,0.67969c0,1.16943,2.84814,0.43018,2.84814,2.29932c0,0.99902-0.81934,1.49902-1.76904,1.49902
		C42.65625,61.67969,41.8667,61.17969,41.60693,60.39062z"/>
	<path d="M50.64404,59.32129h-3.60791c0.02002,1.0791,0.61963,1.72852,1.58936,1.72852c0.53955,0,0.96924-0.13965,1.41895-0.61914
		l0.47998,0.41895c-0.57959,0.61035-1.14941,0.83008-1.90918,0.83008c-1.49902,0-2.26855-1.11914-2.26855-2.51855
		c0-1.39014,0.75977-2.56885,2.18896-2.56885c1.50879,0,2.13867,1.17871,2.13867,2.29834
		C50.67432,59.03125,50.66406,59.20117,50.64404,59.32129z M47.03613,58.74121h2.97852c0-0.02051-0.01025-0.07031-0.01025-0.16016
		c-0.0498-0.80029-0.55957-1.40967-1.46875-1.40967C47.646,57.17139,47.09619,57.87158,47.03613,58.74121z"/>
	<path d="M56.18408,56.67139v6.96729h-0.68994v-2.69824c-0.35938,0.45898-0.90918,0.73926-1.62891,0.73926
		c-1.43896,0-2.18896-1.0791-2.18896-2.54883c0-1.53955,0.81982-2.54932,2.18896-2.54932c0.69971,0,1.25928,0.27051,1.62891,0.75
		v-0.66016H56.18408z M55.5542,59.13086c0-1.16943-0.59961-1.93896-1.58887-1.93896c-0.99951,0-1.59912,0.76953-1.59912,1.93896
		c0,1.11914,0.54932,1.93945,1.59912,1.93945C55.00439,61.07031,55.5542,60.25,55.5542,59.13086z"/>
	<path d="M61.81396,56.67139v4.92822h-0.68945v-0.70996c-0.34961,0.53027-0.97949,0.79004-1.62891,0.79004
		c-1.11963,0-1.60938-0.76953-1.60938-1.98926v-3.01904h0.68945v2.84912c0,0.7998,0.14014,1.5498,1.07959,1.5498
		c0.97949,0,1.46924-0.84961,1.46924-2.12891v-2.27002H61.81396z"/>
	<path d="M67.48389,59.32129h-3.60791c0.02002,1.0791,0.61963,1.72852,1.58936,1.72852c0.53955,0,0.96924-0.13965,1.41895-0.61914
		l0.47998,0.41895c-0.57959,0.61035-1.14941,0.83008-1.90918,0.83008c-1.49902,0-2.26855-1.11914-2.26855-2.51855
		c0-1.39014,0.75977-2.56885,2.18896-2.56885c1.50879,0,2.13867,1.17871,2.13867,2.29834
		C67.51416,59.03125,67.50391,59.20117,67.48389,59.32129z M63.87598,58.74121h2.97852c0-0.02051-0.01025-0.07031-0.01025-0.16016
		c-0.0498-0.80029-0.55957-1.40967-1.46875-1.40967C64.48584,57.17139,63.93604,57.87158,63.87598,58.74121z"/>
	<path d="M72.83398,58.58105v3.01855h-0.68945v-2.84863c0-1.06006-0.33984-1.54932-1.07959-1.54932
		c-0.92969,0-1.46924,0.80029-1.46924,2.18896v2.20898h-0.68945v-4.92822h0.68945v0.71973
		c0.31982-0.49902,0.91943-0.79883,1.62891-0.79883C72.28418,56.59229,72.83398,57.27197,72.83398,58.58105z"/>
	<path d="M74.12598,59.15137c0-1.30029,0.72998-2.55908,2.21924-2.55908c0.87939,0,1.60889,0.43945,1.99854,1.3584l-0.65967,0.26123
		c-0.22949-0.63037-0.71924-1.01025-1.33887-1.01025c-1.0498,0-1.51953,0.93994-1.51953,1.94971
		c0,1.00879,0.46973,1.91895,1.5293,1.91895c0.61963,0,1.10938-0.37012,1.29932-1l0.63965,0.24023
		c-0.33008,0.89941-1.04932,1.36914-1.93896,1.36914C74.92578,61.67969,74.12598,60.52051,74.12598,59.15137z"/>
	<path d="M83.46338,59.32129h-3.60791c0.02002,1.0791,0.61963,1.72852,1.58936,1.72852c0.53955,0,0.96924-0.13965,1.41895-0.61914
		l0.47998,0.41895c-0.57959,0.61035-1.14941,0.83008-1.90918,0.83008c-1.49902,0-2.26855-1.11914-2.26855-2.51855
		c0-1.39014,0.75977-2.56885,2.18896-2.56885c1.50879,0,2.13867,1.17871,2.13867,2.29834
		C83.49365,59.03125,83.4834,59.20117,83.46338,59.32129z M79.85547,58.74121h2.97852c0-0.02051-0.01025-0.07031-0.01025-0.16016
		c-0.0498-0.80029-0.55957-1.40967-1.46875-1.40967C80.46533,57.17139,79.91553,57.87158,79.85547,58.74121z"/>
	<path d="M84.35596,60.39062l0.57959-0.25977c0.17969,0.50977,0.65967,0.93945,1.4292,0.93945
		c0.66943,0,1.09961-0.33008,1.09961-0.84961c0-1.30957-2.83887-0.49023-2.83887-2.23975c0-0.85938,0.69971-1.38867,1.68945-1.38867
		c0.78955,0,1.4292,0.3291,1.76904,1.0293l-0.5498,0.2998c-0.23975-0.44043-0.62988-0.71973-1.23926-0.71973
		c-0.60986,0-0.99951,0.25-0.99951,0.67969c0,1.16943,2.84814,0.43018,2.84814,2.29932c0,0.99902-0.81934,1.49902-1.76904,1.49902
		C85.40527,61.67969,84.61572,61.17969,84.35596,60.39062z"/>
</g>
<g>
	<path d="M96.91504,99.53418V106.5h-0.7793l-3.42773-5.75684V106.5h-0.70996v-6.96582h0.76953l3.43848,5.72656v-5.72656H96.91504z"
		/>
	<path d="M98.53809,104.03125c0-1.45898,0.94922-2.53809,2.3584-2.53809c1.39941,0,2.36914,1.0791,2.36914,2.53809
		c0,1.44922-0.95996,2.54883-2.36914,2.54883S98.53809,105.49023,98.53809,104.03125z M102.57617,104.03125
		c0-1.11914-0.62988-1.92871-1.67969-1.92871c-1.05957,0-1.66895,0.81934-1.66895,1.92871
		c0,1.11914,0.62012,1.93945,1.66895,1.93945C101.95605,105.9707,102.57617,105.13086,102.57617,104.03125z"/>
	<path d="M107.65625,101.70312l-0.33984,0.55957c-0.22949-0.10059-0.43945-0.15039-0.64941-0.15039
		c-0.75977,0-1.31934,0.56934-1.31934,1.63965V106.5h-0.68945v-4.92773h0.68945v0.74023
		c0.35938-0.64941,0.95898-0.81934,1.45898-0.81934C107.10645,101.49316,107.38672,101.55273,107.65625,101.70312z"/>
	<path d="M115.43457,103.42188V106.5h-0.69043v-2.88867c0-0.41992,0-1.50879-1.0791-1.50879
		c-0.99902,0-1.26953,0.91895-1.26953,2.02832V106.5h-0.68945v-2.84863c0-0.81934-0.25-1.54883-1.10938-1.54883
		c-0.95898,0-1.22949,0.90918-1.22949,2.02832V106.5h-0.68945l-0.00977-4.92773h0.66992v0.60059
		c0.30957-0.49023,0.80957-0.67969,1.3584-0.67969c0.69043,0,1.2002,0.2998,1.44922,0.94922
		c0.32031-0.62988,0.87012-0.94922,1.61914-0.94922C114.94434,101.49316,115.43457,102.27246,115.43457,103.42188z"/>
	<path d="M120.80566,103.43164V106.5h-0.62988l-0.04004-0.75977c-0.38965,0.5498-0.98926,0.83984-1.76855,0.83984
		c-1.06934,0-1.69922-0.55957-1.69922-1.50977c0-0.49902,0.2002-0.87891,0.55957-1.09863
		c0.37988-0.21973,0.91016-0.31055,1.87891-0.31055h1.00977v-0.22949c0-0.85938-0.4502-1.3291-1.2793-1.3291
		c-0.62012,0-1.09961,0.26953-1.49902,0.81934l-0.5-0.41992c0.5293-0.68945,1.16895-1.00879,2.00879-1.00879
		C120.08594,101.49316,120.80566,102.20215,120.80566,103.43164z M120.11621,104.29102v-0.06934h-0.94922
		c-0.91016,0-1.2998,0.05957-1.53906,0.24902c-0.18066,0.14062-0.27051,0.36035-0.27051,0.63965
		c0,0.5498,0.46973,0.90039,1.20996,0.90039C119.5166,106.01074,120.11621,105.34082,120.11621,104.29102z"/>
	<path d="M122.44727,105.43066v-5.89648h0.68945v5.85645c0,0.33984,0.12012,0.55957,0.4502,0.55957
		c0.14941,0,0.31934-0.04004,0.46973-0.08984l0.00977,0.58984c-0.20996,0.06934-0.45996,0.12988-0.67969,0.12988
		C122.81738,106.58008,122.44727,106.2002,122.44727,105.43066z"/>
	<path d="M125.12793,99.53418h0.79883v1.01953h-0.79883V99.53418z M125.1875,101.57227h0.68945V106.5h-0.68945V101.57227z"/>
	<path d="M131.25586,102.12207l-3.20898,3.78809h3.18848V106.5h-4.09766V106l3.27832-3.83789h-3.1084v-0.58984h3.94824V102.12207z"
		/>
	<path d="M136.46484,104.22168h-3.60742c0.01953,1.0791,0.61914,1.72852,1.58887,1.72852c0.54004,0,0.96973-0.13965,1.41895-0.61914
		l0.48047,0.41895c-0.58008,0.61035-1.14941,0.83008-1.90918,0.83008c-1.49902,0-2.26855-1.11914-2.26855-2.51855
		c0-1.38965,0.75977-2.56836,2.18848-2.56836c1.50879,0,2.13867,1.17871,2.13867,2.29785
		C136.49512,103.93164,136.48535,104.10156,136.46484,104.22168z M132.85742,103.6416h2.97852
		c0-0.02051-0.01074-0.07031-0.01074-0.16016c-0.0498-0.7998-0.55957-1.40918-1.46875-1.40918
		C133.4668,102.07227,132.91699,102.77246,132.85742,103.6416z"/>
	<path d="M142.00488,99.53418V106.5h-0.68945v-0.65918c-0.35938,0.45898-0.90918,0.73926-1.62891,0.73926
		c-1.43945,0-2.18945-1.0791-2.18945-2.54883c0-1.53906,0.82031-2.54883,2.18945-2.54883c0.69922,0,1.25879,0.27051,1.62891,0.75
		v-2.69824H142.00488z M141.375,104.03125c0-1.16895-0.59961-1.93848-1.58887-1.93848c-0.99902,0-1.59863,0.76953-1.59863,1.93848
		c0,1.11914,0.54883,1.93945,1.59863,1.93945C140.8252,105.9707,141.375,105.15039,141.375,104.03125z"/>
	<path d="M148.60645,106.4502c-0.25977,0.08008-0.52051,0.12988-0.75,0.12988c-0.65918,0-1.13965-0.37012-1.13965-1.23926v-3.18848
		h-0.81934v-0.58008h0.81934v-1.37891l0.68945-0.51953v1.89844h1.18945v0.58008h-1.18945v3.09863
		c0,0.47949,0.2207,0.69922,0.61035,0.69922c0.16992,0,0.35938-0.04004,0.5791-0.10938L148.60645,106.4502z"/>
	<path d="M153.76465,104.22168h-3.60742c0.01953,1.0791,0.61914,1.72852,1.58887,1.72852c0.54004,0,0.96973-0.13965,1.41895-0.61914
		l0.48047,0.41895c-0.58008,0.61035-1.14941,0.83008-1.90918,0.83008c-1.49902,0-2.26855-1.11914-2.26855-2.51855
		c0-1.38965,0.75977-2.56836,2.18848-2.56836c1.50879,0,2.13867,1.17871,2.13867,2.29785
		C153.79492,103.93164,153.78516,104.10156,153.76465,104.22168z M150.15723,103.6416h2.97852
		c0-0.02051-0.01074-0.07031-0.01074-0.16016c-0.0498-0.7998-0.55957-1.40918-1.46875-1.40918
		C150.7666,102.07227,150.2168,102.77246,150.15723,103.6416z"/>
	<path d="M156.33691,104.03125l-1.7998-2.45898h0.83984l1.41895,1.97949l1.40918-1.97949h0.83984l-1.79883,2.45898l1.80859,2.46875
		h-0.84961l-1.40918-1.99902L155.38672,106.5h-0.84961L156.33691,104.03125z"/>
	<path d="M162.31641,106.4502c-0.25977,0.08008-0.52051,0.12988-0.75,0.12988c-0.65918,0-1.13965-0.37012-1.13965-1.23926v-3.18848
		h-0.81934v-0.58008h0.81934v-1.37891l0.68945-0.51953v1.89844h1.18945v0.58008h-1.18945v3.09863
		c0,0.47949,0.2207,0.69922,0.61035,0.69922c0.16992,0,0.35938-0.04004,0.5791-0.10938L162.31641,106.4502z"/>
	<path d="M166.31738,105.43066v-5.89648h0.68945v5.85645c0,0.33984,0.12012,0.55957,0.44922,0.55957
		c0.15039,0,0.32031-0.04004,0.46973-0.08984l0.01074,0.58984c-0.20996,0.06934-0.45996,0.12988-0.67969,0.12988
		C166.68652,106.58008,166.31738,106.2002,166.31738,105.43066z"/>
	<path d="M172.95508,104.22168h-3.6084c0.02051,1.0791,0.62012,1.72852,1.58984,1.72852c0.53906,0,0.96875-0.13965,1.41895-0.61914
		l0.47949,0.41895c-0.5791,0.61035-1.14941,0.83008-1.90918,0.83008c-1.49902,0-2.26855-1.11914-2.26855-2.51855
		c0-1.38965,0.75977-2.56836,2.18945-2.56836c1.50879,0,2.13867,1.17871,2.13867,2.29785
		C172.98535,103.93164,172.97461,104.10156,172.95508,104.22168z M169.34668,103.6416h2.97852
		c0-0.02051-0.00977-0.07031-0.00977-0.16016c-0.0498-0.7998-0.55957-1.40918-1.46875-1.40918
		C169.95703,102.07227,169.40723,102.77246,169.34668,103.6416z"/>
	<path d="M178.30469,103.48145V106.5h-0.68945v-2.84863c0-1.05957-0.33984-1.54883-1.0791-1.54883
		c-0.92969,0-1.46973,0.7998-1.46973,2.18848V106.5h-0.68945v-4.92773h0.68945v0.71973
		c0.32031-0.49902,0.91992-0.79883,1.62891-0.79883C177.75488,101.49316,178.30469,102.17285,178.30469,103.48145z"/>
	<path d="M183.84473,107.25977c0,0.92969-0.86914,1.35938-2.1084,1.35938c-1.36914,0-2.19922-0.54004-2.19922-1.51953
		c0-0.09961,0.00977-0.16016,0.02051-0.21973l0.79883-0.67969c-0.37988-0.16992-0.63965-0.4502-0.63965-0.93945
		c0-0.39941,0.17969-0.69922,0.53027-0.93945c-0.25977-0.2998-0.41992-0.67969-0.41992-1.11914c0-1,0.81934-1.70898,1.87891-1.70898
		c0.47949,0,0.90918,0.14941,1.22949,0.39941l0.67969-0.58984l0.35938,0.4502l-0.66992,0.55957
		c0.16992,0.26953,0.27051,0.5791,0.27051,0.92969c0,1.00879-0.81934,1.67871-1.85938,1.67871
		c-0.37988,0-0.72949-0.08984-1.01953-0.25c-0.19922,0.11035-0.31934,0.29004-0.31934,0.5c0,0.5,0.61914,0.61914,1.3291,0.72949
		C182.68555,106.0498,183.84473,106.19043,183.84473,107.25977z M183.15527,107.31934c0-0.59961-0.7793-0.68945-1.59961-0.81934
		c-0.21973-0.03027-0.44922-0.07031-0.65918-0.12012l-0.66992,0.64941c-0.00977,0.05078-0.00977,0.07031-0.00977,0.09082
		c0,0.69922,0.70996,0.91895,1.54883,0.91895C182.63574,108.03906,183.15527,107.79883,183.15527,107.31934z M180.50684,103.22168
		c0,0.63965,0.45996,1.12988,1.19922,1.12988s1.17969-0.48047,1.17969-1.12988c0-0.67969-0.45996-1.14941-1.16992-1.14941
		C181.0166,102.07227,180.50684,102.54199,180.50684,103.22168z"/>
	<path d="M187.26562,106.4502c-0.25977,0.08008-0.51953,0.12988-0.74902,0.12988c-0.66016,0-1.13965-0.37012-1.13965-1.23926
		v-3.18848h-0.81934v-0.58008h0.81934v-1.37891l0.68945-0.51953v1.89844h1.18945v0.58008h-1.18945v3.09863
		c0,0.47949,0.21973,0.69922,0.60938,0.69922c0.16992,0,0.36035-0.04004,0.58008-0.10938L187.26562,106.4502z"/>
	<path d="M192.50488,103.48145V106.5h-0.68945v-2.84863c0-1.06934-0.33984-1.54883-1.08008-1.54883
		c-0.93945,0-1.46875,0.76953-1.46875,2.12891V106.5h-0.68945v-6.96582h0.68945v2.75781
		c0.31934-0.49902,0.91895-0.79883,1.62891-0.79883C191.95508,101.49316,192.50488,102.17285,192.50488,103.48145z"/>
</g>
<g>
	<path d="M198.96094,72.20215v6.96582h-0.71973v-6.0166l-2.24902,5.43652h-0.69922l-2.25879-5.45703v6.03711h-0.70996v-6.96582
		h1.03906l2.2793,5.55664l2.27832-5.55664H198.96094z"/>
	<path d="M200.58496,76.69922c0-1.45898,0.94922-2.53809,2.3584-2.53809c1.39941,0,2.36816,1.0791,2.36816,2.53809
		c0,1.44922-0.95898,2.54883-2.36816,2.54883S200.58496,78.1582,200.58496,76.69922z M204.62207,76.69922
		c0-1.11914-0.62988-1.92871-1.67871-1.92871c-1.05957,0-1.66895,0.81934-1.66895,1.92871
		c0,1.11914,0.61914,1.93945,1.66895,1.93945C204.00293,78.63867,204.62207,77.79883,204.62207,76.69922z"/>
	<path d="M206.1748,77.95898l0.5791-0.25977c0.17969,0.50977,0.66016,0.93945,1.42969,0.93945
		c0.66895,0,1.09961-0.33008,1.09961-0.84961c0-1.30957-2.83887-0.49023-2.83887-2.23926c0-0.85938,0.69922-1.38867,1.68945-1.38867
		c0.78906,0,1.42871,0.3291,1.76855,1.0293l-0.5498,0.2998c-0.23926-0.44043-0.62988-0.71973-1.23926-0.71973
		s-0.99902,0.25-0.99902,0.67969c0,1.16895,2.84766,0.42969,2.84766,2.29883c0,0.99902-0.81934,1.49902-1.76855,1.49902
		C207.22363,79.24805,206.43457,78.74805,206.1748,77.95898z"/>
	<path d="M213.41309,79.11816c-0.25977,0.08008-0.52051,0.12988-0.75,0.12988c-0.65918,0-1.13965-0.37012-1.13965-1.23926v-3.18848
		h-0.81934v-0.58008h0.81934v-1.37891l0.69043-0.51953v1.89844h1.18848v0.58008h-1.18848v3.09863
		c0,0.47949,0.21973,0.69922,0.60938,0.69922c0.16992,0,0.35938-0.04004,0.5791-0.10938L213.41309,79.11816z"/>
	<path d="M221.57227,72.20215v6.96582h-0.69043v-0.65918c-0.35938,0.45898-0.90918,0.73926-1.62891,0.73926
		c-1.43848,0-2.18848-1.0791-2.18848-2.54883c0-1.53906,0.81934-2.54883,2.18848-2.54883c0.7002,0,1.25977,0.27051,1.62891,0.75
		v-2.69824H221.57227z M220.94238,76.69922c0-1.16895-0.59961-1.93848-1.58887-1.93848c-1,0-1.59961,0.76953-1.59961,1.93848
		c0,1.11914,0.5498,1.93945,1.59961,1.93945C220.39258,78.63867,220.94238,77.81836,220.94238,76.69922z"/>
	<path d="M224.75293,79.1084l-2.08887-4.86816h0.75977l1.69922,4.05859l1.48926-4.05859h0.75977l-2.69824,6.9668h-0.74023
		L224.75293,79.1084z"/>
	<path d="M232.42188,76.14941v3.01855h-0.68945v-2.84863c0-1.05957-0.33984-1.54883-1.08008-1.54883
		c-0.92969,0-1.46875,0.7998-1.46875,2.18848v2.20898h-0.68945v-4.92773h0.68945v0.71973
		c0.31934-0.49902,0.91895-0.79883,1.62891-0.79883C231.87207,74.16113,232.42188,74.84082,232.42188,76.14941z"/>
	<path d="M237.79199,76.09961v3.06836h-0.62988l-0.04004-0.75977c-0.38965,0.5498-0.98926,0.83984-1.76953,0.83984
		c-1.06934,0-1.69824-0.55957-1.69824-1.50977c0-0.49902,0.19922-0.87891,0.55957-1.09863
		c0.37988-0.21973,0.90918-0.31055,1.87891-0.31055h1.00879v-0.22949c0-0.85938-0.44922-1.3291-1.2793-1.3291
		c-0.61914,0-1.09863,0.26953-1.49902,0.81934l-0.49902-0.41992c0.5293-0.68945,1.16895-1.00879,2.00879-1.00879
		C237.07227,74.16113,237.79199,74.87012,237.79199,76.09961z M237.10156,76.95898v-0.06934h-0.94922
		c-0.90918,0-1.29883,0.05957-1.53906,0.24902c-0.17969,0.14062-0.26953,0.36035-0.26953,0.63965
		c0,0.5498,0.46973,0.90039,1.20898,0.90039C236.50195,78.67871,237.10156,78.00879,237.10156,76.95898z"/>
	<path d="M246.23047,76.08984v3.07812h-0.69043V76.2793c0-0.41992,0-1.50879-1.0791-1.50879
		c-0.99902,0-1.26953,0.91895-1.26953,2.02832v2.36914h-0.68945v-2.84863c0-0.81934-0.25-1.54883-1.10938-1.54883
		c-0.95898,0-1.22949,0.90918-1.22949,2.02832v2.36914h-0.68945l-0.00977-4.92773h0.66992v0.60059
		c0.30957-0.49023,0.80957-0.67969,1.3584-0.67969c0.69043,0,1.2002,0.2998,1.44922,0.94922
		c0.32031-0.62988,0.87012-0.94922,1.61914-0.94922C245.74023,74.16113,246.23047,74.94043,246.23047,76.08984z"/>
	<path d="M247.87402,72.20215h0.79883v1.01953h-0.79883V72.20215z M247.93359,74.24023h0.68945v4.92773h-0.68945V74.24023z"/>
	<path d="M250.0332,76.71973c0-1.2998,0.73047-2.55859,2.21973-2.55859c0.87891,0,1.6084,0.43945,1.99805,1.3584l-0.65918,0.26074
		c-0.22949-0.62988-0.71973-1.00977-1.33887-1.00977c-1.0498,0-1.51953,0.93945-1.51953,1.94922
		c0,1.00879,0.46973,1.91895,1.5293,1.91895c0.61914,0,1.10938-0.37012,1.29883-1l0.63965,0.24023
		c-0.33008,0.89941-1.04883,1.36914-1.93848,1.36914C250.83301,79.24805,250.0332,78.08887,250.0332,76.71973z"/>
	<path d="M257.72363,77.95898l0.58008-0.25977c0.17969,0.50977,0.65918,0.93945,1.42871,0.93945
		c0.66992,0,1.09961-0.33008,1.09961-0.84961c0-1.30957-2.83887-0.49023-2.83887-2.23926c0-0.85938,0.7002-1.38867,1.68945-1.38867
		c0.79004,0,1.42969,0.3291,1.76953,1.0293l-0.5498,0.2998c-0.24023-0.44043-0.62988-0.71973-1.23926-0.71973
		c-0.61035,0-1,0.25-1,0.67969c0,1.16895,2.84863,0.42969,2.84863,2.29883c0,0.99902-0.81934,1.49902-1.76855,1.49902
		C258.77344,79.24805,257.9834,78.74805,257.72363,77.95898z"/>
	<path d="M266.76074,76.88965h-3.60742c0.01953,1.0791,0.61914,1.72852,1.58887,1.72852c0.54004,0,0.96973-0.13965,1.41895-0.61914
		l0.48047,0.41895c-0.58008,0.61035-1.14941,0.83008-1.90918,0.83008c-1.49902,0-2.26855-1.11914-2.26855-2.51855
		c0-1.38965,0.75977-2.56836,2.18848-2.56836c1.50879,0,2.13867,1.17871,2.13867,2.29785
		C266.79102,76.59961,266.78125,76.76953,266.76074,76.88965z M263.15332,76.30957h2.97852
		c0-0.02051-0.01074-0.07031-0.01074-0.16016c-0.0498-0.7998-0.55957-1.40918-1.46875-1.40918
		C263.7627,74.74023,263.21289,75.44043,263.15332,76.30957z"/>
	<path d="M272.30078,74.24023v6.9668h-0.68945v-2.69824c-0.35938,0.45898-0.90918,0.73926-1.62891,0.73926
		c-1.43945,0-2.18945-1.0791-2.18945-2.54883c0-1.53906,0.82031-2.54883,2.18945-2.54883c0.69922,0,1.25879,0.27051,1.62891,0.75
		v-0.66016H272.30078z M271.6709,76.69922c0-1.16895-0.59961-1.93848-1.58887-1.93848c-0.99902,0-1.59863,0.76953-1.59863,1.93848
		c0,1.11914,0.5498,1.93945,1.59863,1.93945C271.12109,78.63867,271.6709,77.81836,271.6709,76.69922z"/>
	<path d="M277.93066,74.24023v4.92773h-0.68945v-0.70996c-0.34961,0.53027-0.97949,0.79004-1.62891,0.79004
		c-1.11914,0-1.60938-0.76953-1.60938-1.98926v-3.01855h0.68945v2.84863c0,0.7998,0.14062,1.5498,1.08008,1.5498
		c0.97949,0,1.46875-0.84961,1.46875-2.12891v-2.26953H277.93066z"/>
	<path d="M283.60059,76.88965h-3.60742c0.01953,1.0791,0.61914,1.72852,1.58887,1.72852c0.54004,0,0.96973-0.13965,1.41895-0.61914
		l0.48047,0.41895c-0.58008,0.61035-1.14941,0.83008-1.90918,0.83008c-1.49902,0-2.26855-1.11914-2.26855-2.51855
		c0-1.38965,0.75977-2.56836,2.18848-2.56836c1.50879,0,2.13867,1.17871,2.13867,2.29785
		C283.63086,76.59961,283.62109,76.76953,283.60059,76.88965z M279.99316,76.30957h2.97852
		c0-0.02051-0.01074-0.07031-0.01074-0.16016c-0.0498-0.7998-0.55957-1.40918-1.46875-1.40918
		C280.60254,74.74023,280.05273,75.44043,279.99316,76.30957z"/>
	<path d="M288.95117,76.14941v3.01855h-0.68945v-2.84863c0-1.05957-0.33984-1.54883-1.08008-1.54883
		c-0.92969,0-1.46875,0.7998-1.46875,2.18848v2.20898h-0.68945v-4.92773h0.68945v0.71973
		c0.31934-0.49902,0.91895-0.79883,1.62891-0.79883C288.40137,74.16113,288.95117,74.84082,288.95117,76.14941z"/>
	<path d="M290.24316,76.71973c0-1.2998,0.72949-2.55859,2.21875-2.55859c0.87988,0,1.60938,0.43945,1.99902,1.3584l-0.66016,0.26074
		c-0.22949-0.62988-0.71875-1.00977-1.33887-1.00977c-1.0498,0-1.51953,0.93945-1.51953,1.94922
		c0,1.00879,0.46973,1.91895,1.5293,1.91895c0.62012,0,1.10938-0.37012,1.2998-1l0.63965,0.24023
		c-0.33008,0.89941-1.0498,1.36914-1.93945,1.36914C291.04297,79.24805,290.24316,78.08887,290.24316,76.71973z"/>
	<path d="M299.58105,76.88965h-3.6084c0.02051,1.0791,0.62012,1.72852,1.58984,1.72852c0.53906,0,0.96875-0.13965,1.41895-0.61914
		l0.47949,0.41895c-0.5791,0.61035-1.14941,0.83008-1.90918,0.83008c-1.49902,0-2.26855-1.11914-2.26855-2.51855
		c0-1.38965,0.75977-2.56836,2.18945-2.56836c1.50879,0,2.13867,1.17871,2.13867,2.29785
		C299.61133,76.59961,299.60059,76.76953,299.58105,76.88965z M295.97266,76.30957h2.97852
		c0-0.02051-0.00977-0.07031-0.00977-0.16016c-0.0498-0.7998-0.55957-1.40918-1.46875-1.40918
		C296.58301,74.74023,296.0332,75.44043,295.97266,76.30957z"/>
</g>
<g>
	<path d="M198.88867,2.96338V9.9292h-0.71973V3.9126l-2.24902,5.43652h-0.69922l-2.25879-5.45703V9.9292h-0.70996V2.96338h1.03906
		l2.2793,5.55664l2.27832-5.55664H198.88867z"/>
	<path d="M200.5127,7.46045c0-1.45898,0.94922-2.53809,2.3584-2.53809c1.39941,0,2.36816,1.0791,2.36816,2.53809
		c0,1.44922-0.95898,2.54883-2.36816,2.54883S200.5127,8.91943,200.5127,7.46045z M204.5498,7.46045
		c0-1.11914-0.62988-1.92871-1.67871-1.92871c-1.05957,0-1.66895,0.81934-1.66895,1.92871
		c0,1.11914,0.61914,1.93945,1.66895,1.93945C203.93066,9.3999,204.5498,8.56006,204.5498,7.46045z"/>
	<path d="M206.10254,8.72021l0.5791-0.25977c0.17969,0.50977,0.66016,0.93945,1.42969,0.93945
		c0.66895,0,1.09961-0.33008,1.09961-0.84961c0-1.30957-2.83887-0.49023-2.83887-2.23926c0-0.85938,0.69922-1.38867,1.68945-1.38867
		c0.78906,0,1.42871,0.3291,1.76855,1.0293l-0.5498,0.2998c-0.23926-0.44043-0.62988-0.71973-1.23926-0.71973
		s-0.99902,0.25-0.99902,0.67969c0,1.16895,2.84766,0.42969,2.84766,2.29883c0,0.99902-0.81934,1.49902-1.76855,1.49902
		C207.15137,10.00928,206.3623,9.50928,206.10254,8.72021z"/>
	<path d="M213.34082,9.87939c-0.25977,0.08008-0.52051,0.12988-0.75,0.12988c-0.65918,0-1.13965-0.37012-1.13965-1.23926V5.58154
		h-0.81934V5.00146h0.81934V3.62256l0.69043-0.51953v1.89844h1.18848v0.58008h-1.18848v3.09863
		c0,0.47949,0.21973,0.69922,0.60938,0.69922c0.16992,0,0.35938-0.04004,0.5791-0.10938L213.34082,9.87939z"/>
	<path d="M216.85254,8.72021l0.5791-0.25977c0.17969,0.50977,0.66016,0.93945,1.42969,0.93945
		c0.66895,0,1.09961-0.33008,1.09961-0.84961c0-1.30957-2.83887-0.49023-2.83887-2.23926c0-0.85938,0.69922-1.38867,1.68945-1.38867
		c0.78906,0,1.42871,0.3291,1.76855,1.0293l-0.5498,0.2998c-0.23926-0.44043-0.62988-0.71973-1.23926-0.71973
		s-0.99902,0.25-0.99902,0.67969c0,1.16895,2.84766,0.42969,2.84766,2.29883c0,0.99902-0.81934,1.49902-1.76855,1.49902
		C217.90137,10.00928,217.1123,9.50928,216.85254,8.72021z"/>
	<path d="M224.09082,9.87939c-0.25977,0.08008-0.52051,0.12988-0.75,0.12988c-0.65918,0-1.13965-0.37012-1.13965-1.23926V5.58154
		h-0.81934V5.00146h0.81934V3.62256l0.69043-0.51953v1.89844h1.18848v0.58008h-1.18848v3.09863
		c0,0.47949,0.21973,0.69922,0.60938,0.69922c0.16992,0,0.35938-0.04004,0.5791-0.10938L224.09082,9.87939z"/>
	<path d="M229.06934,6.86084V9.9292h-0.62988l-0.04004-0.75977c-0.38965,0.5498-0.98926,0.83984-1.76855,0.83984
		c-1.06934,0-1.69922-0.55957-1.69922-1.50977c0-0.49902,0.2002-0.87891,0.55957-1.09863
		c0.37988-0.21973,0.91016-0.31055,1.87891-0.31055h1.00977V6.86084c0-0.85938-0.4502-1.3291-1.2793-1.3291
		c-0.62012,0-1.09961,0.26953-1.49902,0.81934l-0.5-0.41992c0.5293-0.68945,1.16895-1.00879,2.00879-1.00879
		C228.34961,4.92236,229.06934,5.63135,229.06934,6.86084z M228.37988,7.72021V7.65088h-0.94922
		c-0.91016,0-1.2998,0.05957-1.53906,0.24902c-0.18066,0.14062-0.27051,0.36035-0.27051,0.63965
		c0,0.5498,0.46973,0.90039,1.20996,0.90039C227.78027,9.43994,228.37988,8.77002,228.37988,7.72021z"/>
	<path d="M232.80078,9.87939c-0.25977,0.08008-0.52051,0.12988-0.75,0.12988c-0.65918,0-1.13965-0.37012-1.13965-1.23926V5.58154
		h-0.81934V5.00146h0.81934V3.62256l0.69043-0.51953v1.89844h1.18848v0.58008h-1.18848v3.09863
		c0,0.47949,0.21973,0.69922,0.60938,0.69922c0.16992,0,0.35938-0.04004,0.5791-0.10938L232.80078,9.87939z"/>
	<path d="M234.05176,2.96338h0.79883v1.01953h-0.79883V2.96338z M234.11133,5.00146h0.68945V9.9292h-0.68945V5.00146z"/>
	<path d="M236.21094,7.48096c0-1.2998,0.73047-2.55859,2.21973-2.55859c0.87891,0,1.6084,0.43945,1.99805,1.3584l-0.65918,0.26074
		c-0.22949-0.62988-0.71973-1.00977-1.33887-1.00977c-1.0498,0-1.51953,0.93945-1.51953,1.94922
		c0,1.00879,0.46973,1.91895,1.5293,1.91895c0.61914,0,1.10938-0.37012,1.29883-1l0.63965,0.24023
		c-0.33008,0.89941-1.04883,1.36914-1.93848,1.36914C237.01074,10.00928,236.21094,8.8501,236.21094,7.48096z"/>
	<path d="M243.90137,8.72021l0.58008-0.25977c0.17969,0.50977,0.65918,0.93945,1.42871,0.93945
		c0.66992,0,1.09961-0.33008,1.09961-0.84961c0-1.30957-2.83887-0.49023-2.83887-2.23926c0-0.85938,0.7002-1.38867,1.68945-1.38867
		c0.79004,0,1.42969,0.3291,1.76953,1.0293l-0.5498,0.2998c-0.24023-0.44043-0.62988-0.71973-1.23926-0.71973
		c-0.61035,0-1,0.25-1,0.67969c0,1.16895,2.84863,0.42969,2.84863,2.29883c0,0.99902-0.81934,1.49902-1.76855,1.49902
		C244.95117,10.00928,244.16113,9.50928,243.90137,8.72021z"/>
	<path d="M252.93848,7.65088h-3.60742c0.01953,1.0791,0.61914,1.72852,1.58887,1.72852c0.54004,0,0.96973-0.13965,1.41895-0.61914
		l0.48047,0.41895c-0.58008,0.61035-1.14941,0.83008-1.90918,0.83008c-1.49902,0-2.26855-1.11914-2.26855-2.51855
		c0-1.38965,0.75977-2.56836,2.18848-2.56836c1.50879,0,2.13867,1.17871,2.13867,2.29785
		C252.96875,7.36084,252.95898,7.53076,252.93848,7.65088z M249.33105,7.0708h2.97852c0-0.02051-0.01074-0.07031-0.01074-0.16016
		c-0.0498-0.7998-0.55957-1.40918-1.46875-1.40918C249.94043,5.50146,249.39062,6.20166,249.33105,7.0708z"/>
	<path d="M258.47949,5.00146v6.9668h-0.69043V9.27002c-0.35938,0.45898-0.90918,0.73926-1.62891,0.73926
		c-1.43848,0-2.18848-1.0791-2.18848-2.54883c0-1.53906,0.81934-2.54883,2.18848-2.54883c0.7002,0,1.25977,0.27051,1.62891,0.75
		V5.00146H258.47949z M257.84961,7.46045c0-1.16895-0.59961-1.93848-1.58887-1.93848c-1,0-1.59961,0.76953-1.59961,1.93848
		c0,1.11914,0.5498,1.93945,1.59961,1.93945C257.2998,9.3999,257.84961,8.57959,257.84961,7.46045z"/>
	<path d="M264.10938,5.00146V9.9292h-0.68945V9.21924c-0.34961,0.53027-0.97949,0.79004-1.62891,0.79004
		c-1.12012,0-1.60938-0.76953-1.60938-1.98926V5.00146h0.68945V7.8501c0,0.7998,0.13965,1.5498,1.0791,1.5498
		c0.97949,0,1.46973-0.84961,1.46973-2.12891V5.00146H264.10938z"/>
	<path d="M269.77832,7.65088h-3.60742c0.01953,1.0791,0.61914,1.72852,1.58887,1.72852c0.54004,0,0.96973-0.13965,1.41895-0.61914
		l0.48047,0.41895c-0.58008,0.61035-1.14941,0.83008-1.90918,0.83008c-1.49902,0-2.26855-1.11914-2.26855-2.51855
		c0-1.38965,0.75977-2.56836,2.18848-2.56836c1.50879,0,2.13867,1.17871,2.13867,2.29785
		C269.80859,7.36084,269.79883,7.53076,269.77832,7.65088z M266.1709,7.0708h2.97852c0-0.02051-0.01074-0.07031-0.01074-0.16016
		c-0.0498-0.7998-0.55957-1.40918-1.46875-1.40918C266.78027,5.50146,266.23047,6.20166,266.1709,7.0708z"/>
	<path d="M275.12891,6.91064V9.9292h-0.68945V7.08057c0-1.05957-0.33984-1.54883-1.0791-1.54883
		c-0.92969,0-1.46973,0.7998-1.46973,2.18848V9.9292h-0.68945V5.00146h0.68945v0.71973
		c0.32031-0.49902,0.91992-0.79883,1.62891-0.79883C274.5791,4.92236,275.12891,5.60205,275.12891,6.91064z"/>
	<path d="M276.4209,7.48096c0-1.2998,0.73047-2.55859,2.21973-2.55859c0.87891,0,1.6084,0.43945,1.99805,1.3584l-0.65918,0.26074
		c-0.22949-0.62988-0.71973-1.00977-1.33887-1.00977c-1.0498,0-1.51953,0.93945-1.51953,1.94922
		c0,1.00879,0.46973,1.91895,1.5293,1.91895c0.61914,0,1.10938-0.37012,1.29883-1l0.63965,0.24023
		c-0.33008,0.89941-1.04883,1.36914-1.93848,1.36914C277.2207,10.00928,276.4209,8.8501,276.4209,7.48096z"/>
	<path d="M285.75879,7.65088h-3.6084c0.02051,1.0791,0.62012,1.72852,1.58984,1.72852c0.53906,0,0.96875-0.13965,1.41895-0.61914
		l0.47949,0.41895c-0.5791,0.61035-1.14941,0.83008-1.90918,0.83008c-1.49902,0-2.26855-1.11914-2.26855-2.51855
		c0-1.38965,0.75977-2.56836,2.18945-2.56836c1.50879,0,2.13867,1.17871,2.13867,2.29785
		C285.78906,7.36084,285.77832,7.53076,285.75879,7.65088z M282.15039,7.0708h2.97852c0-0.02051-0.00977-0.07031-0.00977-0.16016
		c-0.0498-0.7998-0.55957-1.40918-1.46875-1.40918C282.76074,5.50146,282.21094,6.20166,282.15039,7.0708z"/>
</g>
<g>
	<path d="M162.68164,64.16992l3.57031,5.30273l-0.49023,0.49023l-5.14258-2.18945l2.95312,4.37891l-0.45117,0.45117
		l-3.57129-5.30176l0.4834-0.4834l5.14258,2.17578l-2.94531-4.37305L162.68164,64.16992z"/>
	<path d="M167.58789,61.85938l2.52734,3.75l-0.43262,0.43262l-0.33691-0.50293c0.03125,0.5791-0.22266,1.16602-0.65039,1.5918
		c-0.77539,0.77734-1.69336,0.6875-2.4375-0.05762c-0.99902-0.99902-1.25391-2.73145-0.24902-3.73633
		c0.45215-0.45215,1.02539-0.61816,1.51562-0.48438l-0.37598-0.55371L167.58789,61.85938z M166.44141,63.70508
		c-0.79492,0.79688-0.53418,2.15234,0.2041,2.89062c0.54785,0.54785,1.18457,0.58594,1.70605,0.06445
		c0.71289-0.71289,0.61719-1.89062-0.04492-2.71875C167.74805,63.24121,167.02148,63.12695,166.44141,63.70508z"/>
	<path d="M170.63672,58.99023l0.10156,0.63672c-0.12109,0.03125-0.29297,0.12695-0.45215,0.28613
		c-0.46484,0.46484-0.63672,1.27344,0.07031,2.31055l1.27246,1.87207l-0.43945,0.43945l-2.52734-3.75l0.43945-0.43945
		l0.33789,0.51562c-0.0957-0.65625,0.22266-1.17773,0.52734-1.48242C170.15234,59.19336,170.36914,59.05371,170.63672,58.99023z"/>
	<path d="M173.14355,56.48242l0.10156,0.63672c-0.12012,0.03174-0.29199,0.12744-0.45215,0.28662
		c-0.46484,0.46484-0.63672,1.27393,0.07031,2.31104l1.27344,1.87109l-0.43945,0.43945l-2.52734-3.75l0.43945-0.43896
		l0.33789,0.51514c-0.0957-0.65527,0.22266-1.17725,0.52734-1.48242C172.66016,56.68604,172.87695,56.54639,173.14355,56.48242z"/>
	<path d="M176.18555,53.26221l2.52734,3.74951l-0.43262,0.43262l-0.33691-0.50244c0.03125,0.5791-0.22266,1.16553-0.65039,1.59131
		c-0.77539,0.77734-1.69336,0.6875-2.4375-0.05762c-0.99902-0.99902-1.25488-2.73047-0.24805-3.73682
		c0.45117-0.45166,1.02344-0.61719,1.51367-0.4834l-0.375-0.5542L176.18555,53.26221z M175.03906,55.10791
		c-0.79492,0.7959-0.53418,2.15186,0.2041,2.89014c0.54785,0.54785,1.18457,0.58594,1.70605,0.06445
		c0.71289-0.71338,0.61719-1.89111-0.04492-2.71924C176.3457,54.64404,175.61914,54.52881,175.03906,55.10791z"/>
	<path d="M179.69824,54.52344c0.05078,0.07617,0.1084,0.14697,0.14746,0.18506c0.18945,0.19043,0.375,0.15918,0.57227-0.03857
		c0.10156-0.10156,0.2168-0.26709,0.31836-0.47119l0.31836,0.40771c-0.11523,0.21729-0.25391,0.42041-0.40039,0.56689
		c-0.36328,0.36279-0.78906,0.43262-1.17188,0.0498c-0.08203-0.08203-0.16602-0.19043-0.2168-0.2666l-1.65527-2.44385
		l-0.52246,0.52197l-0.26758-0.4082l0.51562-0.51562l-0.70508-1.0498l0.17188-0.83398l0.97266,1.44434l0.75781-0.75732
		l0.27441,0.40137l-0.75684,0.75732L179.69824,54.52344z"/>
	<path d="M178.25391,48.59814l0.45703-0.45801l0.52246,0.77588l-0.45801,0.4585L178.25391,48.59814z M179.30859,50.13818
		l0.43945-0.43896l2.52734,3.74951l-0.43945,0.43945L179.30859,50.13818z"/>
	<path d="M180.37793,49.06934l0.47168-0.47119l3.0625,2.09473l-1.08301-4.07471l0.48926-0.48975l1.24219,5.03516l-0.375,0.37598
		L180.37793,49.06934z"/>
	<path d="M185.40625,47.45361c0.08203,0.12109,0.15332,0.21631,0.25586,0.31836c0.50195,0.50244,1.08105,0.50928,1.60352-0.0127
		c0.38086-0.38184,0.55273-0.7832,0.58594-1.41309l0.56641,0.03125c-0.05762,0.79639-0.29883,1.33105-0.7832,1.81494
		c-0.81445,0.81494-1.70703,0.68701-2.40625-0.01318c-1.05078-1.05029-1.31836-2.74414-0.30664-3.75586
		c0.81543-0.81494,1.66895-0.59814,2.2666-0.00049c0.19141,0.19141,0.40137,0.49072,0.52246,0.72656L185.40625,47.45361z
		 M185.12012,47.02734l1.89062-1.89062c-0.08301-0.14697-0.17871-0.26807-0.27344-0.36328
		c-0.36914-0.36914-0.91113-0.46436-1.44531,0.07031C184.7002,45.43555,184.72461,46.30127,185.12012,47.02734z"/>
	<path d="M189.35938,40.76416l-0.66309,0.6626l-0.26758-0.4082l0.66113-0.66162l-0.36816-0.56006
		c-0.49023-0.74512-0.41309-1.35596,0.13379-1.90332c0.19727-0.19727,0.40039-0.28662,0.59766-0.34424l0.13477,0.51562
		c-0.14648,0.03223-0.26172,0.09521-0.35156,0.18457c-0.3877,0.38818-0.2793,0.81543-0.05664,1.15283l0.34375,0.52148
		l0.91016-0.91064l0.26758,0.4082l-0.90332,0.90381l2.25293,3.34863l-0.43262,0.43262L189.35938,40.76416z"/>
	<path d="M193.01172,36.61426l0.10156,0.63672c-0.12109,0.03174-0.29297,0.12744-0.45117,0.28662
		c-0.46484,0.46484-0.63672,1.27344,0.06934,2.31104l1.27246,1.87158l-0.43848,0.43896l-2.52832-3.74951l0.43945-0.43945
		l0.33789,0.51611c-0.09473-0.65625,0.22266-1.17773,0.52832-1.4834C192.52734,36.81787,192.74414,36.67871,193.01172,36.61426z"/>
	<path d="M196.05273,33.39404l2.52734,3.75l-0.43164,0.43262l-0.33789-0.50244c0.03125,0.57861-0.22266,1.16455-0.64844,1.59131
		c-0.77734,0.77686-1.69434,0.68701-2.43945-0.05762c-0.99805-0.99902-1.25391-2.73096-0.24805-3.7373
		c0.45215-0.45166,1.02539-0.61719,1.51562-0.4834l-0.37695-0.55371L196.05273,33.39404z M194.9082,35.23975
		c-0.79688,0.7959-0.53516,2.15234,0.20312,2.89062c0.54688,0.54785,1.18359,0.58594,1.70703,0.06348
		c0.71289-0.71289,0.61719-1.89062-0.0459-2.71826C196.21289,34.77637,195.48633,34.66064,194.9082,35.23975z"/>
	<path d="M202.08008,29.06006c0.17188,0.17188,0.23633,0.28662,0.35742,0.4585l1.52148,2.24707l-0.43945,0.43945l-1.44531-2.14551
		c-0.09473-0.14648-0.24219-0.34375-0.38281-0.48389c-0.30469-0.30518-0.69922-0.44531-1.11328-0.03125
		c-0.62305,0.62354-0.31055,1.53418,0.24902,2.37451l1.19629,1.78174l-0.43945,0.43945l-1.47656-2.18994
		c-0.1084-0.15918-0.22266-0.31152-0.34375-0.43262c-0.34961-0.3501-0.73145-0.42676-1.11328-0.04443
		c-0.63086,0.63037-0.31836,1.52783,0.24805,2.37451l1.19629,1.78223l-0.43848,0.43896l-2.53516-3.74316l0.42773-0.42676
		l0.30469,0.4585c-0.03711-0.54736,0.2041-1.06934,0.53516-1.40039c0.375-0.37549,0.87891-0.52148,1.38184-0.17188
		c-0.13965-0.68701,0.1084-1.31787,0.52832-1.73779C200.93555,28.41064,201.55859,28.53809,202.08008,29.06006z"/>
	<path d="M203.98242,28.87744c0.08301,0.12061,0.15332,0.21631,0.25586,0.31836c0.50195,0.50244,1.08203,0.50879,1.60352-0.01318
		c0.38184-0.38184,0.55371-0.7832,0.58594-1.41309l0.56641,0.03174c-0.05664,0.7959-0.29883,1.33105-0.7832,1.81445
		c-0.81445,0.81494-1.70605,0.68701-2.40625-0.01318c-1.05078-1.05029-1.31836-2.74365-0.30566-3.75586
		c0.81445-0.81445,1.66797-0.59766,2.26562,0c0.19141,0.19141,0.40137,0.49072,0.52246,0.72607L203.98242,28.87744z
		 M203.69727,28.45068l1.88965-1.89014c-0.08301-0.14697-0.17871-0.26807-0.27344-0.36328
		c-0.36914-0.36914-0.91016-0.46484-1.44531,0.07031C203.27637,26.85938,203.30176,27.72461,203.69727,28.45068z"/>
</g>
<g>
	<path d="M104.05859,24.46729l1.18945-1.19043c1.24805-1.24756,2.48926-1.30518,3.55859-0.23584
		c1.62988,1.62988,1.71289,3.83838,0.03125,5.51904l-1.20898,1.20947L104.05859,24.46729z M108.4375,28.12109
		c1.44531-1.44482,1.28516-3.27246-0.08984-4.64746c-0.82715-0.82715-1.71777-0.73828-2.74902,0.29297l-0.75098,0.75146
		l2.89648,4.29688L108.4375,28.12109z"/>
	<path d="M111.06445,23.46924c0.08301,0.12061,0.15332,0.21631,0.25586,0.31836c0.50195,0.50244,1.08203,0.50879,1.60352-0.01318
		c0.38184-0.38184,0.55371-0.7832,0.58594-1.41309l0.56641,0.03174c-0.05664,0.7959-0.29883,1.33105-0.7832,1.81445
		c-0.81445,0.81494-1.70605,0.68701-2.40625-0.01318c-1.05078-1.05029-1.31836-2.74365-0.30566-3.75586
		c0.81445-0.81445,1.66797-0.59766,2.26562,0c0.19141,0.19141,0.40137,0.49072,0.52246,0.72607L111.06445,23.46924z
		 M110.7793,23.04248l1.88965-1.89014c-0.08301-0.14697-0.17871-0.26807-0.27344-0.36328
		c-0.36914-0.36914-0.91016-0.46484-1.44531,0.07031C110.3584,21.45117,110.38379,22.31641,110.7793,23.04248z"/>
	<path d="M115.48828,15.63281l2.52734,3.75l-0.43359,0.43311l-0.33691-0.50244c0.03223,0.57861-0.22168,1.16455-0.64941,1.59131
		c-0.77539,0.77637-1.69336,0.68652-2.4375-0.05811c-0.99902-0.99902-1.25488-2.73047-0.24902-3.73633
		c0.45215-0.45215,1.02441-0.61768,1.51465-0.48389l-0.375-0.5542L115.48828,15.63281z M114.3418,17.479
		c-0.79492,0.7959-0.53418,2.15186,0.2041,2.89014c0.54785,0.54785,1.18457,0.58594,1.70605,0.06396
		c0.71289-0.71289,0.61719-1.89062-0.04492-2.71875C115.64844,17.01514,114.92188,16.8999,114.3418,17.479z"/>
	<path d="M119.00098,16.89453c0.05078,0.07617,0.1084,0.14697,0.14746,0.18506c0.18945,0.19043,0.375,0.15918,0.57227-0.03857
		c0.10156-0.10156,0.2168-0.26709,0.31836-0.47119l0.31836,0.40771c-0.11523,0.21729-0.25391,0.42041-0.40137,0.56738
		c-0.3623,0.3623-0.78906,0.43262-1.17188,0.0498c-0.08203-0.08203-0.16504-0.19092-0.21582-0.26709l-1.65527-2.44385
		l-0.52148,0.52148l-0.26855-0.40771l0.51562-0.51562l-0.70508-1.0498l0.17188-0.83398l0.97266,1.44434l0.75781-0.75732
		l0.27441,0.40137l-0.75684,0.75732L119.00098,16.89453z"/>
	<path d="M121.9541,11.6377l1.53418,2.27246l-0.43945,0.43945l-1.50195-2.22852c-0.22949-0.34375-0.77051-1.10059-1.4834-0.3877
		c-0.69336,0.69336-0.41309,1.62354,0.2041,2.53369l1.1582,1.70557l-0.43945,0.43945l-3.57031-5.30273l0.43945-0.43896
		l1.33008,1.99219c-0.00684-0.59229,0.2666-1.09521,0.61035-1.43896C120.52148,10.49805,121.32422,10.70215,121.9541,11.6377z"/>
</g>
</svg>
