<?xml version="1.0" encoding="utf-8"?>
<!-- Generator: Adobe Illustrator 25.0.0, SVG Export Plug-In . SVG Version: 6.00 Build 0)  -->
<svg version="1.1" id="Livello_1" xmlns="http://www.w3.org/2000/svg" xmlns:xlink="http://www.w3.org/1999/xlink" x="0px" y="0px"
	 viewBox="0 0 300 63" enable-background="new 0 0 300 63" xml:space="preserve">
<g id="Raggruppa_882" transform="translate(45 104)">
	<g id="Raggruppa_879" transform="translate(66 39)">
		
			<linearGradient id="Rettangolo_9608_1_" gradientUnits="userSpaceOnUse" x1="-2116.75171" y1="400.77777" x2="-2116.75171" y2="399.77777" gradientTransform="matrix(5 0 0 -54 10610.6582 21505)">
			<stop  offset="0" style="stop-color:#A906FF"/>
			<stop  offset="0" style="stop-color:#4E1AFA"/>
			<stop  offset="0.498" style="stop-color:#38D1FF"/>
			<stop  offset="1" style="stop-color:#FFBB03"/>
		</linearGradient>
		<rect id="Rettangolo_9608" x="24.4" y="-137" fill="url(#Rettangolo_9608_1_)" width="5" height="54"/>
	</g>
	<g id="Raggruppa_880" transform="translate(66 39)">
		<line id="Linea_219" fill="none" stroke="#000000" x1="26.9" y1="-136.5" x2="26.9" y2="-83.5"/>
		<line id="Linea_220" fill="none" stroke="#000000" x1="21.9" y1="-136.5" x2="31.9" y2="-136.5"/>
		<line id="Linea_221" fill="none" stroke="#000000" x1="21.9" y1="-83.5" x2="31.9" y2="-83.5"/>
	</g>
</g>
<line id="Linea_222" fill="none" stroke="#999999" stroke-width="0.5" stroke-dasharray="2" x1="111.60001" y1="6.5" x2="131.3" y2="6.5"/>
<line id="Linea_223" fill="none" stroke="#999999" stroke-width="0.5" stroke-dasharray="2" x1="111.89999" y1="59.5" x2="131.3" y2="59.5"/>
<rect x="151.5" y="14.5" fill="none" width="129.79999" height="46.89999"/>
<g>
	<rect x="151.5" y="16" fill="none" width="137.67415" height="52.11171"/>
	<path d="M157.55664,16.00342v6.96631h-0.7793l-3.42871-5.75684v5.75684h-0.70898v-6.96631h0.76953l3.4375,5.72705v-5.72705
		H157.55664z"/>
	<path d="M163.22754,19.90137v3.06836h-0.62891l-0.04004-0.75977c-0.39062,0.5498-0.99023,0.83984-1.76953,0.83984
		c-1.06934,0-1.69922-0.56006-1.69922-1.50928c0-0.49951,0.2002-0.87939,0.55957-1.09961
		c0.37988-0.21973,0.91016-0.30957,1.87988-0.30957h1.00879v-0.22998c0-0.85938-0.44922-1.3291-1.2793-1.3291
		c-0.61914,0-1.09961,0.26953-1.49902,0.81934l-0.5-0.41943c0.53027-0.68994,1.16992-1.00977,2.00879-1.00977
		C162.50781,17.9624,163.22754,18.67188,163.22754,19.90137z M162.53809,20.76074v-0.06982h-0.94922
		c-0.90918,0-1.2998,0.06006-1.53906,0.25c-0.17969,0.13965-0.27051,0.35986-0.27051,0.63965
		c0,0.5498,0.4707,0.89941,1.20996,0.89941C161.93848,22.47998,162.53809,21.81055,162.53809,20.76074z"/>
	<path d="M167.9082,18.17236l-0.33984,0.55957c-0.23047-0.09961-0.44043-0.1499-0.65039-0.1499
		c-0.75879,0-1.31836,0.56982-1.31836,1.63916v2.74854h-0.69043v-4.92725h0.69043v0.73975
		c0.35938-0.6499,0.95898-0.81982,1.45898-0.81982C167.3584,17.9624,167.6377,18.02246,167.9082,18.17236z"/>
	<path d="M171.92773,18.17236l-0.33984,0.55957c-0.23047-0.09961-0.44043-0.1499-0.65039-0.1499
		c-0.75879,0-1.31836,0.56982-1.31836,1.63916v2.74854h-0.69043v-4.92725h0.69043v0.73975
		c0.35938-0.6499,0.95898-0.81982,1.45898-0.81982C171.37793,17.9624,171.65723,18.02246,171.92773,18.17236z"/>
	<path d="M176.61621,19.90137v3.06836h-0.62891l-0.04004-0.75977c-0.39062,0.5498-0.99023,0.83984-1.76953,0.83984
		c-1.06934,0-1.69922-0.56006-1.69922-1.50928c0-0.49951,0.2002-0.87939,0.55957-1.09961
		c0.37988-0.21973,0.91016-0.30957,1.87988-0.30957h1.00879v-0.22998c0-0.85938-0.44922-1.3291-1.2793-1.3291
		c-0.61914,0-1.09961,0.26953-1.49902,0.81934l-0.5-0.41943c0.53027-0.68994,1.16992-1.00977,2.00879-1.00977
		C175.89648,17.9624,176.61621,18.67188,176.61621,19.90137z M175.92676,20.76074v-0.06982h-0.94922
		c-0.90918,0-1.2998,0.06006-1.53906,0.25c-0.17969,0.13965-0.27051,0.35986-0.27051,0.63965
		c0,0.5498,0.4707,0.89941,1.20996,0.89941C175.32715,22.47998,175.92676,21.81055,175.92676,20.76074z"/>
	<path d="M180.34668,22.91992c-0.25977,0.07959-0.51953,0.12988-0.74902,0.12988c-0.66016,0-1.13965-0.37012-1.13965-1.23926
		v-3.18848h-0.81934v-0.57959h0.81934v-1.37939l0.68945-0.51953v1.89893h1.18945v0.57959h-1.18945v3.09814
		c0,0.47998,0.21973,0.69971,0.61035,0.69971c0.16992,0,0.35938-0.04004,0.5791-0.10986L180.34668,22.91992z"/>
	<path d="M181.59863,16.00342h0.7998v1.01953h-0.7998V16.00342z M181.6582,18.04248h0.68945v4.92725h-0.68945V18.04248z"/>
	<path d="M183.45898,18.04248h0.74902l1.5498,4.04785l1.55859-4.04785h0.75977l-2.01855,4.92725h-0.58984L183.45898,18.04248z"/>
	<path d="M192.93555,20.69092h-3.6084c0.02051,1.07959,0.62012,1.729,1.58887,1.729c0.54004,0,0.96973-0.13965,1.41992-0.61963
		l0.47949,0.41992c-0.58008,0.60938-1.14941,0.82959-1.90918,0.82959c-1.49902,0-2.26855-1.11963-2.26855-2.51855
		c0-1.38965,0.75977-2.56885,2.18848-2.56885c1.50977,0,2.13867,1.1792,2.13867,2.29883
		C192.96484,20.40137,192.95508,20.5708,192.93555,20.69092z M189.32715,20.11133h2.97852
		c0-0.02002-0.00977-0.06982-0.00977-0.16016c-0.0498-0.79932-0.55957-1.40918-1.46973-1.40918
		C189.93652,18.54199,189.3877,19.2417,189.32715,20.11133z"/>
	<path d="M200.98535,20.69092h-3.6084c0.02051,1.07959,0.62012,1.729,1.58887,1.729c0.54004,0,0.96973-0.13965,1.41992-0.61963
		l0.47949,0.41992c-0.58008,0.60938-1.14941,0.82959-1.90918,0.82959c-1.49902,0-2.26855-1.11963-2.26855-2.51855
		c0-1.38965,0.75977-2.56885,2.18848-2.56885c1.50977,0,2.13867,1.1792,2.13867,2.29883
		C201.01465,20.40137,201.00488,20.5708,200.98535,20.69092z M197.37695,20.11133h2.97852
		c0-0.02002-0.00977-0.06982-0.00977-0.16016c-0.0498-0.79932-0.55957-1.40918-1.46973-1.40918
		C197.98633,18.54199,197.4375,19.2417,197.37695,20.11133z"/>
	<path d="M203.55664,20.50098l-1.79883-2.4585h0.83984l1.41895,1.979l1.40918-1.979h0.83984l-1.79883,2.4585l1.80859,2.46875
		h-0.84961l-1.40918-1.99902l-1.40918,1.99902h-0.84961L203.55664,20.50098z"/>
	<path d="M206.92871,20.521c0-1.29932,0.72949-2.55859,2.21875-2.55859c0.87891,0,1.6084,0.43994,1.99902,1.35938l-0.66016,0.25977
		c-0.22949-0.62939-0.71973-1.00928-1.33887-1.00928c-1.0498,0-1.51953,0.93945-1.51953,1.94873
		c0,1.00977,0.46973,1.91895,1.5293,1.91895c0.62012,0,1.10938-0.36963,1.29883-0.99951l0.63965,0.24023
		c-0.3291,0.89941-1.04883,1.36914-1.93848,1.36914C207.72754,23.0498,206.92871,21.89014,206.92871,20.521z"/>
	<path d="M216.17676,18.04248v4.92725h-0.69043v-0.70947c-0.34961,0.52979-0.97949,0.78955-1.62891,0.78955
		c-1.11914,0-1.6084-0.76953-1.6084-1.98926v-3.01807h0.68945v2.84863c0,0.79932,0.13965,1.54883,1.0791,1.54883
		c0.97949,0,1.46875-0.84961,1.46875-2.12891v-2.26855H216.17676z"/>
	<path d="M220.99707,18.17236l-0.33984,0.55957c-0.23047-0.09961-0.44043-0.1499-0.65039-0.1499
		c-0.75879,0-1.31934,0.56982-1.31934,1.63916v2.74854h-0.68945v-4.92725h0.68945v0.73975
		c0.36035-0.6499,0.95996-0.81982,1.45996-0.81982C220.44727,17.9624,220.72656,18.02246,220.99707,18.17236z"/>
	<path d="M221.18848,21.76025l0.5791-0.25977c0.18066,0.50977,0.66016,0.93945,1.42969,0.93945
		c0.66992,0,1.09961-0.32959,1.09961-0.84961c0-1.30908-2.83887-0.48975-2.83887-2.23877c0-0.85938,0.7002-1.38916,1.68945-1.38916
		c0.78906,0,1.42871,0.33008,1.76855,1.0293l-0.5498,0.2998c-0.23926-0.43945-0.62891-0.71924-1.23926-0.71924
		c-0.60938,0-0.99902,0.24951-0.99902,0.67969c0,1.16895,2.84863,0.42969,2.84863,2.29834
		c0,0.99951-0.81934,1.49951-1.76953,1.49951C222.23828,23.0498,221.44824,22.5498,221.18848,21.76025z"/>
	<path d="M226.31836,16.00342h0.7998v1.01953h-0.7998V16.00342z M226.37793,18.04248h0.69043v4.92725h-0.69043V18.04248z"/>
	<path d="M228.45801,20.50098c0-1.45898,0.9502-2.53857,2.35938-2.53857c1.39844,0,2.36816,1.07959,2.36816,2.53857
		c0,1.44922-0.95898,2.54883-2.36816,2.54883S228.45801,21.96045,228.45801,20.50098z M232.49609,20.50098
		c0-1.11914-0.62988-1.92871-1.67871-1.92871c-1.05957,0-1.66992,0.81934-1.66992,1.92871
		c0,1.11963,0.62012,1.93896,1.66992,1.93896C231.87598,22.43994,232.49609,21.60059,232.49609,20.50098z"/>
	<path d="M238.50488,19.95117v3.01855h-0.68945v-2.84863c0-1.05908-0.33984-1.54883-1.0791-1.54883
		c-0.92969,0-1.46875,0.79932-1.46875,2.18848v2.20898h-0.69043v-4.92725h0.69043v0.71973
		c0.31934-0.5,0.91895-0.7998,1.62891-0.7998C237.95605,17.9624,238.50488,18.64209,238.50488,19.95117z"/>
	<path d="M247.44434,20.50098c0,1.46924-0.75,2.54883-2.18848,2.54883c-0.71973,0-1.26953-0.27979-1.62891-0.73975v0.65967h-0.69043
		v-6.96631h0.69043v2.69873c0.36914-0.47998,0.92871-0.74951,1.62891-0.74951
		C246.625,17.95264,247.44434,18.96191,247.44434,20.50098z M246.75488,20.50098c0-1.16943-0.59961-1.93896-1.59961-1.93896
		c-0.98926,0-1.58887,0.76953-1.58887,1.93896c0,1.11963,0.5498,1.93896,1.58887,1.93896
		C246.20508,22.43994,246.75488,21.62061,246.75488,20.50098z"/>
	<path d="M252.77539,20.69092h-3.6084c0.02051,1.07959,0.62012,1.729,1.58887,1.729c0.54004,0,0.96973-0.13965,1.41992-0.61963
		l0.47949,0.41992c-0.58008,0.60938-1.14941,0.82959-1.90918,0.82959c-1.49902,0-2.26855-1.11963-2.26855-2.51855
		c0-1.38965,0.75977-2.56885,2.18848-2.56885c1.50977,0,2.13867,1.1792,2.13867,2.29883
		C252.80469,20.40137,252.79492,20.5708,252.77539,20.69092z M249.16699,20.11133h2.97852
		c0-0.02002-0.00977-0.06982-0.00977-0.16016c-0.0498-0.79932-0.55957-1.40918-1.46973-1.40918
		C249.77637,18.54199,249.22754,19.2417,249.16699,20.11133z"/>
	<path d="M256.24609,22.91992c-0.25977,0.07959-0.51953,0.12988-0.74902,0.12988c-0.66016,0-1.13965-0.37012-1.13965-1.23926
		v-3.18848h-0.81934v-0.57959h0.81934v-1.37939l0.68945-0.51953v1.89893h1.18945v0.57959h-1.18945v3.09814
		c0,0.47998,0.21973,0.69971,0.61035,0.69971c0.16992,0,0.35938-0.04004,0.5791-0.10986L256.24609,22.91992z"/>
	<path d="M257.02832,18.04248h0.73926l1.05957,3.8877l1.29883-3.8877h0.62988l1.28906,3.8877l1.06934-3.8877h0.72949
		l-1.43848,4.92725h-0.65039l-1.30859-3.97803l-1.3291,3.97803h-0.63965L257.02832,18.04248z"/>
	<path d="M268.8457,20.69092h-3.6084c0.02051,1.07959,0.62012,1.729,1.58887,1.729c0.54004,0,0.96973-0.13965,1.41992-0.61963
		l0.47949,0.41992c-0.58008,0.60938-1.14941,0.82959-1.90918,0.82959c-1.49902,0-2.26855-1.11963-2.26855-2.51855
		c0-1.38965,0.75977-2.56885,2.18848-2.56885c1.50977,0,2.13867,1.1792,2.13867,2.29883
		C268.875,20.40137,268.86523,20.5708,268.8457,20.69092z M265.2373,20.11133h2.97852c0-0.02002-0.00977-0.06982-0.00977-0.16016
		c-0.0498-0.79932-0.55957-1.40918-1.46973-1.40918C265.84668,18.54199,265.29785,19.2417,265.2373,20.11133z"/>
	<path d="M274.16602,20.69092h-3.6084c0.02051,1.07959,0.62012,1.729,1.58887,1.729c0.54004,0,0.96973-0.13965,1.41992-0.61963
		l0.47949,0.41992c-0.58008,0.60938-1.14941,0.82959-1.90918,0.82959c-1.49902,0-2.26855-1.11963-2.26855-2.51855
		c0-1.38965,0.75977-2.56885,2.18848-2.56885c1.50977,0,2.13867,1.1792,2.13867,2.29883
		C274.19531,20.40137,274.18555,20.5708,274.16602,20.69092z M270.55762,20.11133h2.97852
		c0-0.02002-0.00977-0.06982-0.00977-0.16016c-0.0498-0.79932-0.55957-1.40918-1.46973-1.40918
		C271.16699,18.54199,270.61816,19.2417,270.55762,20.11133z"/>
	<path d="M279.51562,19.95117v3.01855h-0.68945v-2.84863c0-1.05908-0.33984-1.54883-1.0791-1.54883
		c-0.92969,0-1.46973,0.79932-1.46973,2.18848v2.20898h-0.68945v-4.92725h0.68945v0.71973
		c0.32031-0.5,0.91992-0.7998,1.62988-0.7998C278.9668,17.9624,279.51562,18.64209,279.51562,19.95117z"/>
	<path d="M154.45801,34.91992c-0.25977,0.08008-0.51953,0.12988-0.74902,0.12988c-0.66016,0-1.13965-0.37012-1.13965-1.23926
		v-3.18848H151.75v-0.57959h0.81934v-1.37939l0.68945-0.51953v1.89893h1.18945v0.57959h-1.18945v3.09863
		c0,0.47949,0.21973,0.69922,0.61035,0.69922c0.16992,0,0.35938-0.04004,0.5791-0.10938L154.45801,34.91992z"/>
	<path d="M159.69727,31.95117v3.01855h-0.68945v-2.84863c0-1.06934-0.33984-1.54883-1.0791-1.54883
		c-0.93945,0-1.46973,0.76953-1.46973,2.12891v2.26855h-0.68945v-6.96631h0.68945v2.75879
		c0.32031-0.5,0.91992-0.7998,1.62988-0.7998C159.14844,29.9624,159.69727,30.64209,159.69727,31.95117z"/>
	<path d="M165.29785,32.69141h-3.6084c0.02051,1.0791,0.62012,1.72852,1.58887,1.72852c0.54004,0,0.96973-0.13965,1.41992-0.61914
		l0.47949,0.41992c-0.58008,0.60938-1.14941,0.8291-1.90918,0.8291c-1.49902,0-2.26855-1.11914-2.26855-2.51855
		c0-1.38965,0.75977-2.56885,2.18848-2.56885c1.50977,0,2.13867,1.1792,2.13867,2.29932
		C165.32715,32.40137,165.31738,32.57129,165.29785,32.69141z M161.68945,32.11133h2.97852
		c0-0.01953-0.00977-0.06934-0.00977-0.16016c-0.0498-0.79932-0.55957-1.40918-1.46973-1.40918
		C162.29883,30.54199,161.75,31.2417,161.68945,32.11133z"/>
	<path d="M176.20605,31.8916v3.07812h-0.68945v-2.8877c0-0.42041,0-1.50977-1.08008-1.50977
		c-0.99902,0-1.26855,0.91943-1.26855,2.0293v2.36816h-0.69043v-2.84863c0-0.81934-0.25-1.54883-1.10938-1.54883
		c-0.95898,0-1.22949,0.90918-1.22949,2.0293v2.36816h-0.68945l-0.00977-4.92725h0.66992v0.59961
		c0.30957-0.48975,0.80957-0.67969,1.35938-0.67969c0.68945,0,1.19922,0.2998,1.44922,0.94971
		c0.31934-0.62988,0.86914-0.94971,1.61914-0.94971C175.71582,29.9624,176.20605,30.74219,176.20605,31.8916z"/>
	<path d="M177.47949,32.50098c0-1.45898,0.9502-2.53857,2.35938-2.53857c1.39844,0,2.36816,1.07959,2.36816,2.53857
		c0,1.44922-0.95898,2.54883-2.36816,2.54883S177.47949,33.96094,177.47949,32.50098z M181.51758,32.50098
		c0-1.11914-0.62988-1.92871-1.67871-1.92871c-1.05957,0-1.66992,0.81934-1.66992,1.92871
		c0,1.12012,0.62012,1.93945,1.66992,1.93945C180.89746,34.44043,181.51758,33.60059,181.51758,32.50098z"/>
	<path d="M183.06934,33.76074l0.5791-0.25977c0.18066,0.50977,0.66016,0.93945,1.42969,0.93945
		c0.66992,0,1.09961-0.33008,1.09961-0.84961c0-1.30957-2.83887-0.49023-2.83887-2.23926c0-0.85938,0.7002-1.38916,1.68945-1.38916
		c0.78906,0,1.42871,0.33008,1.76855,1.0293l-0.5498,0.2998c-0.23926-0.43945-0.62891-0.71924-1.23926-0.71924
		c-0.60938,0-0.99902,0.24951-0.99902,0.67969c0,1.16895,2.84863,0.42969,2.84863,2.29883
		c0,0.99902-0.81934,1.49902-1.76953,1.49902C184.11914,35.0498,183.3291,34.5498,183.06934,33.76074z"/>
	<path d="M190.30762,34.91992c-0.25977,0.08008-0.51953,0.12988-0.74902,0.12988c-0.66016,0-1.13965-0.37012-1.13965-1.23926
		v-3.18848h-0.81934v-0.57959h0.81934v-1.37939l0.68945-0.51953v1.89893h1.18945v0.57959h-1.18945v3.09863
		c0,0.47949,0.21973,0.69922,0.61035,0.69922c0.16992,0,0.35938-0.04004,0.5791-0.10938L190.30762,34.91992z"/>
	<path d="M193.81934,33.76074l0.5791-0.25977c0.18066,0.50977,0.66016,0.93945,1.42969,0.93945
		c0.66992,0,1.09961-0.33008,1.09961-0.84961c0-1.30957-2.83887-0.49023-2.83887-2.23926c0-0.85938,0.7002-1.38916,1.68945-1.38916
		c0.78906,0,1.42871,0.33008,1.76855,1.0293l-0.5498,0.2998c-0.23926-0.43945-0.62891-0.71924-1.23926-0.71924
		c-0.60938,0-0.99902,0.24951-0.99902,0.67969c0,1.16895,2.84863,0.42969,2.84863,2.29883
		c0,0.99902-0.81934,1.49902-1.76953,1.49902C194.86914,35.0498,194.0791,34.5498,193.81934,33.76074z"/>
	<path d="M201.05762,34.91992c-0.25977,0.08008-0.51953,0.12988-0.74902,0.12988c-0.66016,0-1.13965-0.37012-1.13965-1.23926
		v-3.18848h-0.81934v-0.57959h0.81934v-1.37939l0.68945-0.51953v1.89893h1.18945v0.57959h-1.18945v3.09863
		c0,0.47949,0.21973,0.69922,0.61035,0.69922c0.16992,0,0.35938-0.04004,0.5791-0.10938L201.05762,34.91992z"/>
	<path d="M206.03711,31.90137v3.06836h-0.62891l-0.04004-0.75977c-0.38965,0.5498-0.99023,0.83984-1.76953,0.83984
		c-1.06934,0-1.69922-0.55957-1.69922-1.50879c0-0.5,0.2002-0.87988,0.55957-1.09961
		c0.37988-0.21973,0.91016-0.30957,1.87891-0.30957h1.00977v-0.23047c0-0.85938-0.44922-1.3291-1.2793-1.3291
		c-0.61914,0-1.09961,0.26953-1.49902,0.81934l-0.5-0.41943c0.53027-0.68994,1.16992-1.00977,2.00879-1.00977
		C205.31738,29.9624,206.03711,30.67188,206.03711,31.90137z M205.34766,32.76074v-0.06934h-0.94922
		c-0.90918,0-1.2998,0.05957-1.53906,0.25c-0.17969,0.13965-0.27051,0.35938-0.27051,0.63965
		c0,0.5498,0.46973,0.89941,1.20996,0.89941C204.74805,34.48047,205.34766,33.81055,205.34766,32.76074z"/>
	<path d="M209.76758,34.91992c-0.25977,0.08008-0.51953,0.12988-0.74902,0.12988c-0.66016,0-1.13965-0.37012-1.13965-1.23926
		v-3.18848h-0.81934v-0.57959h0.81934v-1.37939l0.68945-0.51953v1.89893h1.18945v0.57959h-1.18945v3.09863
		c0,0.47949,0.21973,0.69922,0.61035,0.69922c0.16992,0,0.35938-0.04004,0.5791-0.10938L209.76758,34.91992z"/>
	<path d="M211.01953,28.00342h0.7998v1.01953h-0.7998V28.00342z M211.0791,30.04248h0.69043v4.92725h-0.69043V30.04248z"/>
	<path d="M213.17969,32.52148c0-1.2998,0.72949-2.55908,2.21875-2.55908c0.87891,0,1.6084,0.43994,1.99902,1.35938l-0.66016,0.25977
		c-0.22949-0.62939-0.71973-1.00928-1.33887-1.00928c-1.0498,0-1.51953,0.93945-1.51953,1.94922s0.46973,1.91895,1.5293,1.91895
		c0.62012,0,1.10938-0.37012,1.29883-1l0.63965,0.24023c-0.3291,0.89941-1.04883,1.36914-1.93848,1.36914
		C213.97852,35.0498,213.17969,33.89062,213.17969,32.52148z"/>
	<path d="M225.06641,31.90137v3.06836h-0.62891l-0.04004-0.75977c-0.38965,0.5498-0.99023,0.83984-1.76953,0.83984
		c-1.06934,0-1.69922-0.55957-1.69922-1.50879c0-0.5,0.2002-0.87988,0.55957-1.09961
		c0.37988-0.21973,0.91016-0.30957,1.87891-0.30957h1.00977v-0.23047c0-0.85938-0.44922-1.3291-1.2793-1.3291
		c-0.61914,0-1.09961,0.26953-1.49902,0.81934l-0.5-0.41943c0.53027-0.68994,1.16992-1.00977,2.00879-1.00977
		C224.34668,29.9624,225.06641,30.67188,225.06641,31.90137z M224.37695,32.76074v-0.06934h-0.94922
		c-0.90918,0-1.2998,0.05957-1.53906,0.25c-0.17969,0.13965-0.27051,0.35938-0.27051,0.63965
		c0,0.5498,0.46973,0.89941,1.20996,0.89941C223.77734,34.48047,224.37695,33.81055,224.37695,32.76074z"/>
	<path d="M230.67578,31.95117v3.01855h-0.68945v-2.84863c0-1.05908-0.33984-1.54883-1.0791-1.54883
		c-0.92969,0-1.46973,0.79932-1.46973,2.18848v2.20898h-0.68945v-4.92725h0.68945v0.71973
		c0.32031-0.5,0.91992-0.7998,1.62988-0.7998C230.12695,29.9624,230.67578,30.64209,230.67578,31.95117z"/>
	<path d="M236.49609,28.00342v6.96631h-0.68945v-0.65918c-0.36035,0.45996-0.91016,0.73926-1.62891,0.73926
		c-1.43945,0-2.18945-1.0791-2.18945-2.54883c0-1.53906,0.81934-2.54834,2.18945-2.54834c0.69922,0,1.25879,0.26953,1.62891,0.74951
		v-2.69873H236.49609z M235.86621,32.50098c0-1.16943-0.59961-1.93896-1.58887-1.93896c-1,0-1.59961,0.76953-1.59961,1.93896
		c0,1.12012,0.5498,1.93945,1.59961,1.93945C235.31641,34.44043,235.86621,33.62109,235.86621,32.50098z"/>
	<path d="M243.0957,34.91992c-0.25977,0.08008-0.51953,0.12988-0.74902,0.12988c-0.66016,0-1.13965-0.37012-1.13965-1.23926
		v-3.18848h-0.81934v-0.57959h0.81934v-1.37939l0.68945-0.51953v1.89893h1.18945v0.57959h-1.18945v3.09863
		c0,0.47949,0.21973,0.69922,0.61035,0.69922c0.16992,0,0.35938-0.04004,0.5791-0.10938L243.0957,34.91992z"/>
	<path d="M248.33496,31.95117v3.01855h-0.68945v-2.84863c0-1.06934-0.33984-1.54883-1.0791-1.54883
		c-0.93945,0-1.46875,0.76953-1.46875,2.12891v2.26855h-0.69043v-6.96631h0.69043v2.75879
		c0.31934-0.5,0.91895-0.7998,1.62891-0.7998C247.78613,29.9624,248.33496,30.64209,248.33496,31.95117z"/>
	<path d="M253.93555,32.69141h-3.6084c0.02051,1.0791,0.62012,1.72852,1.58887,1.72852c0.54004,0,0.96973-0.13965,1.41992-0.61914
		l0.47949,0.41992c-0.58008,0.60938-1.14941,0.8291-1.90918,0.8291c-1.49902,0-2.26855-1.11914-2.26855-2.51855
		c0-1.38965,0.75977-2.56885,2.18848-2.56885c1.50977,0,2.13867,1.1792,2.13867,2.29932
		C253.96484,32.40137,253.95508,32.57129,253.93555,32.69141z M250.32715,32.11133h2.97852
		c0-0.01953-0.00977-0.06934-0.00977-0.16016c-0.0498-0.79932-0.55957-1.40918-1.46973-1.40918
		C250.93652,30.54199,250.3877,31.2417,250.32715,32.11133z"/>
	<path d="M264.84375,31.8916v3.07812h-0.68945v-2.8877c0-0.42041,0-1.50977-1.08008-1.50977
		c-0.99902,0-1.26855,0.91943-1.26855,2.0293v2.36816h-0.69043v-2.84863c0-0.81934-0.25-1.54883-1.10938-1.54883
		c-0.95898,0-1.22852,0.90918-1.22852,2.0293v2.36816h-0.69043l-0.00977-4.92725h0.66992v0.59961
		c0.30957-0.48975,0.80957-0.67969,1.35938-0.67969c0.68945,0,1.19922,0.2998,1.44922,0.94971
		c0.31934-0.62988,0.86914-0.94971,1.61914-0.94971C264.35352,29.9624,264.84375,30.74219,264.84375,31.8916z"/>
	<path d="M266.11719,32.50098c0-1.45898,0.9502-2.53857,2.35938-2.53857c1.39844,0,2.36816,1.07959,2.36816,2.53857
		c0,1.44922-0.95898,2.54883-2.36816,2.54883S266.11719,33.96094,266.11719,32.50098z M270.15527,32.50098
		c0-1.11914-0.62988-1.92871-1.67871-1.92871c-1.05957,0-1.66992,0.81934-1.66992,1.92871
		c0,1.12012,0.62012,1.93945,1.66992,1.93945C269.53516,34.44043,270.15527,33.60059,270.15527,32.50098z"/>
	<path d="M271.70703,33.76074l0.58008-0.25977c0.17969,0.50977,0.65918,0.93945,1.42871,0.93945
		c0.66992,0,1.09961-0.33008,1.09961-0.84961c0-1.30957-2.83887-0.49023-2.83887-2.23926c0-0.85938,0.7002-1.38916,1.68945-1.38916
		c0.78906,0,1.42871,0.33008,1.76855,1.0293l-0.5498,0.2998c-0.23926-0.43945-0.62891-0.71924-1.23926-0.71924
		c-0.60938,0-0.99902,0.24951-0.99902,0.67969c0,1.16895,2.84863,0.42969,2.84863,2.29883
		c0,0.99902-0.81934,1.49902-1.76953,1.49902C272.75684,35.0498,271.9668,34.5498,271.70703,33.76074z"/>
	<path d="M278.94531,34.91992c-0.25977,0.08008-0.51953,0.12988-0.74902,0.12988c-0.66016,0-1.13965-0.37012-1.13965-1.23926
		v-3.18848h-0.81934v-0.57959h0.81934v-1.37939l0.68945-0.51953v1.89893h1.18945v0.57959h-1.18945v3.09863
		c0,0.47949,0.21973,0.69922,0.61035,0.69922c0.16992,0,0.35938-0.04004,0.5791-0.10938L278.94531,34.91992z"/>
	<path d="M156.52734,40.00391v6.96582h-0.68945v-0.65918c-0.36035,0.45996-0.91016,0.73926-1.62891,0.73926
		c-1.43945,0-2.18945-1.0791-2.18945-2.54883c0-1.53906,0.81934-2.54785,2.18945-2.54785c0.69922,0,1.25879,0.26953,1.62891,0.74902
		v-2.69824H156.52734z M155.89746,44.50098c0-1.16895-0.59961-1.93848-1.58887-1.93848c-1,0-1.59961,0.76953-1.59961,1.93848
		c0,1.12012,0.5498,1.93945,1.59961,1.93945C155.34766,46.44043,155.89746,45.62109,155.89746,44.50098z"/>
	<path d="M159.70801,46.91016l-2.08887-4.86719h0.75977l1.69922,4.05762l1.48926-4.05762h0.75977l-2.69922,6.96582h-0.73926
		L159.70801,46.91016z"/>
	<path d="M167.37598,43.95117v3.01855h-0.68945v-2.84863c0-1.05859-0.33984-1.54883-1.0791-1.54883
		c-0.92969,0-1.46875,0.7998-1.46875,2.18848v2.20898h-0.69043v-4.92676h0.69043v0.71973c0.31934-0.5,0.91895-0.7998,1.62891-0.7998
		C166.82715,41.96289,167.37598,42.64258,167.37598,43.95117z"/>
	<path d="M172.74609,43.90137v3.06836h-0.62891l-0.04004-0.75977c-0.38965,0.5498-0.99023,0.83984-1.76953,0.83984
		c-1.06934,0-1.69922-0.55957-1.69922-1.50879c0-0.5,0.2002-0.87988,0.55957-1.09961
		c0.37988-0.21973,0.91016-0.30957,1.87891-0.30957h1.00977v-0.23047c0-0.85938-0.44922-1.3291-1.2793-1.3291
		c-0.61914,0-1.09961,0.26953-1.49902,0.81934l-0.5-0.41895c0.53027-0.69043,1.16992-1.00977,2.00879-1.00977
		C172.02637,41.96289,172.74609,42.67188,172.74609,43.90137z M172.05664,44.76074v-0.06934h-0.94922
		c-0.90918,0-1.2998,0.05957-1.53906,0.25c-0.17969,0.13965-0.27051,0.35938-0.27051,0.63965
		c0,0.5498,0.46973,0.89941,1.20996,0.89941C171.45703,46.48047,172.05664,45.81055,172.05664,44.76074z"/>
	<path d="M181.18457,43.8916v3.07812h-0.68945v-2.8877c0-0.41992,0-1.50977-1.08008-1.50977
		c-0.99902,0-1.26855,0.91992-1.26855,2.0293v2.36816h-0.69043v-2.84863c0-0.81934-0.25-1.54883-1.10938-1.54883
		c-0.95898,0-1.22949,0.90918-1.22949,2.0293v2.36816h-0.68945l-0.00977-4.92676h0.66992v0.59961
		c0.30957-0.49023,0.80957-0.67969,1.35938-0.67969c0.68945,0,1.19922,0.2998,1.44922,0.94922
		c0.31934-0.62988,0.86914-0.94922,1.61914-0.94922C180.69434,41.96289,181.18457,42.74219,181.18457,43.8916z"/>
	<path d="M182.82812,40.00391h0.7998v1.01953h-0.7998V40.00391z M182.8877,42.04297h0.69043v4.92676h-0.69043V42.04297z"/>
	<path d="M184.98828,44.52148c0-1.2998,0.72949-2.55859,2.21875-2.55859c0.87891,0,1.6084,0.43945,1.99902,1.35938l-0.66016,0.25977
		c-0.22949-0.62988-0.71973-1.00977-1.33887-1.00977c-1.0498,0-1.51953,0.93945-1.51953,1.94922s0.46973,1.91895,1.5293,1.91895
		c0.62012,0,1.10938-0.37012,1.29883-1l0.63965,0.24023c-0.3291,0.89941-1.04883,1.36914-1.93848,1.36914
		C185.78711,47.0498,184.98828,45.89062,184.98828,44.52148z"/>
	<path d="M192.67773,45.76074l0.58008-0.25977c0.17969,0.50977,0.65918,0.93945,1.42871,0.93945
		c0.66992,0,1.09961-0.33008,1.09961-0.84961c0-1.30957-2.83887-0.49023-2.83887-2.23926c0-0.85938,0.7002-1.38867,1.68945-1.38867
		c0.78906,0,1.42871,0.33008,1.76855,1.0293l-0.5498,0.2998c-0.23926-0.43945-0.62891-0.71973-1.23926-0.71973
		c-0.60938,0-0.99902,0.25-0.99902,0.67969c0,1.16895,2.84863,0.42969,2.84863,2.29883c0,0.99902-0.81934,1.49902-1.76953,1.49902
		C193.72754,47.0498,192.9375,46.5498,192.67773,45.76074z"/>
	<path d="M201.71582,44.69141h-3.6084c0.02051,1.0791,0.62012,1.72852,1.58887,1.72852c0.54004,0,0.96973-0.13965,1.41992-0.61914
		l0.47949,0.41992c-0.58008,0.60938-1.14941,0.8291-1.90918,0.8291c-1.49902,0-2.26855-1.11914-2.26855-2.51855
		c0-1.38965,0.75977-2.56836,2.18848-2.56836c1.50977,0,2.13867,1.17871,2.13867,2.29883
		C201.74512,44.40137,201.73535,44.57129,201.71582,44.69141z M198.10742,44.11133h2.97852
		c0-0.01953-0.00977-0.06934-0.00977-0.16016c-0.0498-0.79883-0.55957-1.40918-1.46973-1.40918
		C198.7168,42.54199,198.16797,43.24219,198.10742,44.11133z"/>
	<path d="M207.25586,42.04297v6.96582h-0.68945v-2.69824c-0.36035,0.45996-0.91016,0.73926-1.62891,0.73926
		c-1.43945,0-2.18945-1.0791-2.18945-2.54883c0-1.53906,0.81934-2.54785,2.18945-2.54785c0.69922,0,1.25879,0.26953,1.62891,0.74902
		v-0.65918H207.25586z M206.62598,44.50098c0-1.16895-0.59961-1.93848-1.58887-1.93848c-1,0-1.59961,0.76953-1.59961,1.93848
		c0,1.12012,0.5498,1.93945,1.59961,1.93945C206.07617,46.44043,206.62598,45.62109,206.62598,44.50098z"/>
	<path d="M212.88672,42.04297v4.92676h-0.69043v-0.70898c-0.34961,0.5293-0.97949,0.78906-1.62891,0.78906
		c-1.11914,0-1.6084-0.76953-1.6084-1.98926v-3.01758h0.68945v2.84863c0,0.79883,0.13965,1.54883,1.0791,1.54883
		c0.97949,0,1.46875-0.84961,1.46875-2.12891v-2.26855H212.88672z"/>
	<path d="M218.55664,44.69141h-3.6084c0.02051,1.0791,0.62012,1.72852,1.58887,1.72852c0.54004,0,0.96973-0.13965,1.41992-0.61914
		l0.47949,0.41992c-0.58008,0.60938-1.14941,0.8291-1.90918,0.8291c-1.49902,0-2.26855-1.11914-2.26855-2.51855
		c0-1.38965,0.75977-2.56836,2.18848-2.56836c1.50977,0,2.13867,1.17871,2.13867,2.29883
		C218.58594,44.40137,218.57617,44.57129,218.55664,44.69141z M214.94824,44.11133h2.97852
		c0-0.01953-0.00977-0.06934-0.00977-0.16016c-0.0498-0.79883-0.55957-1.40918-1.46973-1.40918
		C215.55762,42.54199,215.00879,43.24219,214.94824,44.11133z"/>
	<path d="M223.90625,43.95117v3.01855h-0.68945v-2.84863c0-1.05859-0.33984-1.54883-1.0791-1.54883
		c-0.92969,0-1.46973,0.7998-1.46973,2.18848v2.20898h-0.68945v-4.92676h0.68945v0.71973c0.32031-0.5,0.91992-0.7998,1.62988-0.7998
		C223.35742,41.96289,223.90625,42.64258,223.90625,43.95117z"/>
	<path d="M225.19922,44.52148c0-1.2998,0.72949-2.55859,2.21875-2.55859c0.87891,0,1.6084,0.43945,1.99902,1.35938l-0.66016,0.25977
		c-0.22949-0.62988-0.71973-1.00977-1.33887-1.00977c-1.0498,0-1.51953,0.93945-1.51953,1.94922s0.46973,1.91895,1.5293,1.91895
		c0.62012,0,1.10938-0.37012,1.29883-1l0.63965,0.24023c-0.3291,0.89941-1.04883,1.36914-1.93848,1.36914
		C225.99805,47.0498,225.19922,45.89062,225.19922,44.52148z"/>
	<path d="M234.53711,44.69141h-3.6084c0.02051,1.0791,0.62012,1.72852,1.58887,1.72852c0.54004,0,0.96973-0.13965,1.41992-0.61914
		l0.47949,0.41992c-0.58008,0.60938-1.14941,0.8291-1.90918,0.8291c-1.49902,0-2.26855-1.11914-2.26855-2.51855
		c0-1.38965,0.75977-2.56836,2.18848-2.56836c1.50977,0,2.13867,1.17871,2.13867,2.29883
		C234.56641,44.40137,234.55664,44.57129,234.53711,44.69141z M230.92871,44.11133h2.97852
		c0-0.01953-0.00977-0.06934-0.00977-0.16016c-0.0498-0.79883-0.55957-1.40918-1.46973-1.40918
		C231.53809,42.54199,230.98926,43.24219,230.92871,44.11133z"/>
	<path d="M235.42969,45.76074l0.58008-0.25977c0.17969,0.50977,0.65918,0.93945,1.42871,0.93945
		c0.66992,0,1.09961-0.33008,1.09961-0.84961c0-1.30957-2.83887-0.49023-2.83887-2.23926c0-0.85938,0.7002-1.38867,1.68945-1.38867
		c0.78906,0,1.42871,0.33008,1.76855,1.0293l-0.5498,0.2998c-0.23926-0.43945-0.62891-0.71973-1.23926-0.71973
		c-0.60938,0-0.99902,0.25-0.99902,0.67969c0,1.16895,2.84863,0.42969,2.84863,2.29883c0,0.99902-0.81934,1.49902-1.76953,1.49902
		C236.47949,47.0498,235.68945,46.5498,235.42969,45.76074z"/>
</g>
<g>
	<path fill="#8131F4" d="M82.93994,2.23389h1.88867c2.26855,0,3.55762,1.28955,3.55762,3.53809
		c0,2.21875-1.25879,3.42822-3.56738,3.42822h-1.87891V2.23389z M84.7583,8.54053c1.94922,0,2.90918-0.91943,2.90918-2.79834
		c0-1.88916-0.95996-2.84863-2.84863-2.84863h-1.16992v5.64697H84.7583z"/>
	<path fill="#8131F4" d="M93.85791,6.92139h-3.6084c0.02051,1.07959,0.62012,1.729,1.58887,1.729
		c0.54004,0,0.96973-0.13965,1.41992-0.61963l0.47949,0.41992c-0.58008,0.60938-1.14941,0.82959-1.90918,0.82959
		c-1.49902,0-2.26855-1.11963-2.26855-2.51855c0-1.38965,0.75977-2.56885,2.18848-2.56885c1.50977,0,2.13867,1.1792,2.13867,2.29883
		C93.88721,6.63184,93.87744,6.80127,93.85791,6.92139z M90.24951,6.3418h2.97852c0-0.02002-0.00977-0.06982-0.00977-0.16016
		c-0.0498-0.79932-0.55957-1.40918-1.46973-1.40918C90.85889,4.77246,90.31006,5.47217,90.24951,6.3418z"/>
	<path fill="#8131F4" d="M98.94775,6.13184V9.2002h-0.62891l-0.04004-0.75977c-0.39062,0.5498-0.99023,0.83984-1.76953,0.83984
		c-1.06934,0-1.69922-0.56006-1.69922-1.50928c0-0.49951,0.2002-0.87939,0.55957-1.09961
		c0.37988-0.21973,0.91016-0.30957,1.87988-0.30957h1.00879V6.13184c0-0.85938-0.44922-1.3291-1.2793-1.3291
		c-0.61914,0-1.09961,0.26953-1.49902,0.81934l-0.5-0.41943c0.53027-0.68994,1.16992-1.00977,2.00879-1.00977
		C98.22803,4.19287,98.94775,4.90234,98.94775,6.13184z M98.2583,6.99121V6.92139h-0.94922c-0.90918,0-1.2998,0.06006-1.53906,0.25
		c-0.17969,0.13965-0.27051,0.35986-0.27051,0.63965c0,0.5498,0.4707,0.89941,1.20996,0.89941
		C97.65869,8.71045,98.2583,8.04102,98.2583,6.99121z"/>
	<path fill="#8131F4" d="M102.67822,9.15039c-0.25977,0.07959-0.51953,0.12988-0.74902,0.12988
		c-0.66016,0-1.13965-0.37012-1.13965-1.23926V4.85254h-0.81934V4.27295h0.81934V2.89355l0.68945-0.51953v1.89893h1.18945v0.57959
		H101.479v3.09814c0,0.47998,0.21973,0.69971,0.61035,0.69971c0.16992,0,0.35938-0.04004,0.5791-0.10986L102.67822,9.15039z"/>
	<path fill="#8131F4" d="M107.9165,6.18164V9.2002h-0.68945V6.35156c0-1.06934-0.33984-1.54883-1.0791-1.54883
		c-0.93945,0-1.46875,0.76953-1.46875,2.12891V9.2002h-0.69043V2.23389h0.69043v2.75879c0.31934-0.5,0.91895-0.7998,1.62891-0.7998
		C107.36768,4.19287,107.9165,4.87256,107.9165,6.18164z"/>
</g>
<g>
	<path fill="#FFA500" d="M43.06445,54.5332V61.5h-0.7793l-3.42871-5.75684V61.5h-0.70898v-6.9668h0.76953l3.4375,5.72754V54.5332
		H43.06445z"/>
	<path fill="#FFA500" d="M48.73535,58.43164V61.5h-0.62891l-0.04004-0.75977c-0.39062,0.5498-0.99023,0.83984-1.76953,0.83984
		c-1.06934,0-1.69922-0.56055-1.69922-1.50977c0-0.49902,0.2002-0.87891,0.55957-1.09961
		c0.37988-0.21973,0.91016-0.30957,1.87988-0.30957h1.00879v-0.22949c0-0.85938-0.44922-1.3291-1.2793-1.3291
		c-0.61914,0-1.09961,0.26953-1.49902,0.81934l-0.5-0.41992c0.53027-0.68945,1.16992-1.00977,2.00879-1.00977
		C48.01562,56.49219,48.73535,57.20215,48.73535,58.43164z M48.0459,59.29102V59.2207h-0.94922
		c-0.90918,0-1.2998,0.06055-1.53906,0.25c-0.17969,0.13965-0.27051,0.36035-0.27051,0.63965
		c0,0.5498,0.4707,0.89941,1.20996,0.89941C47.44629,61.00977,48.0459,60.34082,48.0459,59.29102z"/>
	<path fill="#FFA500" d="M53.41602,56.70215l-0.33984,0.55957c-0.23047-0.09961-0.44043-0.14941-0.65039-0.14941
		c-0.75879,0-1.31836,0.56934-1.31836,1.63867V61.5h-0.69043v-4.92773h0.69043v0.74023
		c0.35938-0.65039,0.95898-0.82031,1.45898-0.82031C52.86621,56.49219,53.14551,56.55273,53.41602,56.70215z"/>
	<path fill="#FFA500" d="M57.43555,56.70215l-0.33984,0.55957c-0.23047-0.09961-0.44043-0.14941-0.65039-0.14941
		c-0.75879,0-1.31836,0.56934-1.31836,1.63867V61.5h-0.69043v-4.92773h0.69043v0.74023
		c0.35938-0.65039,0.95898-0.82031,1.45898-0.82031C56.88574,56.49219,57.16504,56.55273,57.43555,56.70215z"/>
	<path fill="#FFA500" d="M62.125,58.43164V61.5h-0.62891l-0.04004-0.75977c-0.38965,0.5498-0.99023,0.83984-1.76953,0.83984
		c-1.06934,0-1.69922-0.56055-1.69922-1.50977c0-0.49902,0.2002-0.87891,0.55957-1.09961
		c0.37988-0.21973,0.91016-0.30957,1.87891-0.30957h1.00977v-0.22949c0-0.85938-0.44922-1.3291-1.2793-1.3291
		c-0.61914,0-1.09961,0.26953-1.49902,0.81934l-0.5-0.41992c0.53027-0.68945,1.16992-1.00977,2.00879-1.00977
		C61.40527,56.49219,62.125,57.20215,62.125,58.43164z M61.43555,59.29102V59.2207h-0.94922c-0.90918,0-1.2998,0.06055-1.53906,0.25
		c-0.17969,0.13965-0.27051,0.36035-0.27051,0.63965c0,0.5498,0.46973,0.89941,1.20996,0.89941
		C60.83594,61.00977,61.43555,60.34082,61.43555,59.29102z"/>
	<path fill="#FFA500" d="M65.85547,61.4502c-0.25977,0.0791-0.51953,0.12988-0.74902,0.12988
		c-0.66016,0-1.13965-0.37012-1.13965-1.23926v-3.18848h-0.81934v-0.58008h0.81934v-1.37891l0.68945-0.51953v1.89844h1.18945
		v0.58008h-1.18945V60.25c0,0.48047,0.21973,0.7002,0.61035,0.7002c0.16992,0,0.35938-0.04004,0.5791-0.11035L65.85547,61.4502z"/>
	<path fill="#FFA500" d="M67.10742,54.5332h0.7998v1.01953h-0.7998V54.5332z M67.16699,56.57227h0.69043V61.5h-0.69043V56.57227z"/>
	<path fill="#FFA500" d="M68.96777,56.57227h0.74902l1.5498,4.04785l1.55859-4.04785h0.75977L71.56641,61.5h-0.58984
		L68.96777,56.57227z"/>
	<path fill="#FFA500" d="M78.44531,59.2207h-3.6084c0.02051,1.08008,0.62012,1.72949,1.58887,1.72949
		c0.54004,0,0.96973-0.13965,1.41992-0.62012L78.3252,60.75c-0.58008,0.60938-1.14941,0.83008-1.90918,0.83008
		c-1.49902,0-2.26855-1.12012-2.26855-2.51855c0-1.38965,0.75977-2.56934,2.18848-2.56934
		c1.50977,0,2.13867,1.17969,2.13867,2.29883C78.47461,58.93164,78.46484,59.10059,78.44531,59.2207z M74.83691,58.6416h2.97852
		c0-0.02051-0.00977-0.07031-0.00977-0.16016c-0.0498-0.7998-0.55957-1.40918-1.46973-1.40918
		C75.44629,57.07227,74.89746,57.77148,74.83691,58.6416z"/>
	<path fill="#FFA500" d="M82.89648,57.15234h-1.03906v-0.58008h1.0498V55.8125c0-1.04883,0.60938-1.3584,1.23926-1.3584
		c0.26953,0,0.56934,0.05957,0.87891,0.18945l-0.23926,0.5498c-0.20996-0.09961-0.40039-0.16016-0.57031-0.16016
		c-0.38965,0-0.62891,0.26953-0.62891,0.72949v0.80957h1.41895v0.58008h-1.41895V61.5h-0.69043V57.15234z"/>
	<path fill="#FFA500" d="M89.08496,56.70215l-0.33984,0.55957c-0.23047-0.09961-0.44043-0.14941-0.65039-0.14941
		c-0.75879,0-1.31934,0.56934-1.31934,1.63867V61.5h-0.68945v-4.92773h0.68945v0.74023
		c0.36035-0.65039,0.95996-0.82031,1.45996-0.82031C88.53516,56.49219,88.81445,56.55273,89.08496,56.70215z"/>
	<path fill="#FFA500" d="M93.77441,58.43164V61.5h-0.62891l-0.04004-0.75977c-0.39062,0.5498-0.99023,0.83984-1.76953,0.83984
		c-1.06934,0-1.69922-0.56055-1.69922-1.50977c0-0.49902,0.2002-0.87891,0.55957-1.09961
		c0.37988-0.21973,0.91016-0.30957,1.87988-0.30957h1.00879v-0.22949c0-0.85938-0.44922-1.3291-1.2793-1.3291
		c-0.61914,0-1.09961,0.26953-1.49902,0.81934l-0.5-0.41992c0.53027-0.68945,1.16992-1.00977,2.00879-1.00977
		C93.05469,56.49219,93.77441,57.20215,93.77441,58.43164z M93.08496,59.29102V59.2207h-0.94922
		c-0.90918,0-1.2998,0.06055-1.53906,0.25c-0.17969,0.13965-0.27051,0.36035-0.27051,0.63965
		c0,0.5498,0.4707,0.89941,1.20996,0.89941C92.48535,61.00977,93.08496,60.34082,93.08496,59.29102z"/>
	<path fill="#FFA500" d="M102.21289,58.42188V61.5h-0.68945v-2.88867c0-0.41992,0-1.50879-1.08008-1.50879
		c-0.99902,0-1.26855,0.91895-1.26855,2.02832V61.5h-0.69043v-2.84863c0-0.81934-0.25-1.54883-1.10938-1.54883
		c-0.95898,0-1.22852,0.90918-1.22852,2.02832V61.5h-0.69043l-0.00977-4.92773h0.66992v0.59961
		c0.30957-0.48926,0.80957-0.67969,1.35938-0.67969c0.68945,0,1.19922,0.2998,1.44922,0.9502
		c0.31934-0.62988,0.86914-0.9502,1.61914-0.9502C101.72266,56.49219,102.21289,57.27246,102.21289,58.42188z"/>
	<path fill="#FFA500" d="M107.81445,59.2207h-3.6084c0.02051,1.08008,0.62012,1.72949,1.58887,1.72949
		c0.54004,0,0.96973-0.13965,1.41992-0.62012l0.47949,0.41992c-0.58008,0.60938-1.14941,0.83008-1.90918,0.83008
		c-1.49902,0-2.26855-1.12012-2.26855-2.51855c0-1.38965,0.75977-2.56934,2.18848-2.56934
		c1.50977,0,2.13867,1.17969,2.13867,2.29883C107.84375,58.93164,107.83398,59.10059,107.81445,59.2207z M104.20605,58.6416h2.97852
		c0-0.02051-0.00977-0.07031-0.00977-0.16016c-0.0498-0.7998-0.55957-1.40918-1.46973-1.40918
		C104.81543,57.07227,104.2666,57.77148,104.20605,58.6416z"/>
</g>
</svg>
