<svg xmlns="http://www.w3.org/2000/svg" xmlns:xlink="http://www.w3.org/1999/xlink" width="170" height="70" viewBox="0 0 170 70">
  <defs>
    <clipPath id="clip-trama_b_forma">
      <rect width="170" height="70"/>
    </clipPath>
  </defs>
  <g id="trama_b_forma" clip-path="url(#clip-trama_b_forma)">
    <rect id="Rectangle_9623" data-name="Rectangle 9623" width="11" height="11" transform="translate(2.278 6)" fill="#fff"/>
    <rect id="Rectangle_9624" data-name="Rectangle 9624" width="10.5" height="10.5" transform="translate(2.528 6.25)" fill="none" stroke="#000" stroke-width="0.5"/>
    <path id="Path_149478" data-name="Path 149478" d="M.981-7.173h.981V0H.981ZM3.423-5.229h.835v.742a2.342,2.342,0,0,1,.786-.659,2.1,2.1,0,0,1,.923-.2,1.522,1.522,0,0,1,1.5.776,2.757,2.757,0,0,1,.215,1.216V0H6.792V-3.3a1.785,1.785,0,0,0-.142-.771.858.858,0,0,0-.85-.488,1.73,1.73,0,0,0-.513.063,1.32,1.32,0,0,0-.635.43,1.294,1.294,0,0,0-.286.535,3.6,3.6,0,0,0-.066.789V0H3.423Zm5.562.024h.894V0H8.984Zm0-1.968h.894v1H8.984ZM10.815-.693l3.1-3.75H11.045v-.786H15.1v.718L12.017-.786H15.19V0H10.815Zm5.391-4.512H17.1V0h-.894Zm0-1.968H17.1v1h-.894ZM20.5-.566a1.212,1.212,0,0,0,1.2-.662A3.3,3.3,0,0,0,22.026-2.7a2.621,2.621,0,0,0-.234-1.191,1.318,1.318,0,0,0-1.279-.723A1.262,1.262,0,0,0,19.341-4a2.852,2.852,0,0,0-.366,1.484,2.481,2.481,0,0,0,.366,1.392A1.29,1.29,0,0,0,20.5-.566Zm.034-4.814a2.368,2.368,0,0,1,1.709.674,2.631,2.631,0,0,1,.7,1.982,3.4,3.4,0,0,1-.615,2.09A2.226,2.226,0,0,1,20.42.19a2.155,2.155,0,0,1-1.714-.73,2.883,2.883,0,0,1-.635-1.96,3.119,3.119,0,0,1,.669-2.1A2.245,2.245,0,0,1,20.537-5.381Zm6.787,2.827a2.592,2.592,0,0,0,.356,1.406,1.249,1.249,0,0,0,1.143.566,1.2,1.2,0,0,0,1-.525,2.479,2.479,0,0,0,.393-1.506,2.227,2.227,0,0,0-.405-1.467,1.264,1.264,0,0,0-1-.476,1.321,1.321,0,0,0-1.077.508A2.326,2.326,0,0,0,27.324-2.554Zm1.323-2.769a1.861,1.861,0,0,1,1.006.254,2.363,2.363,0,0,1,.532.513V-7.2h.845V0h-.791V-.728a1.9,1.9,0,0,1-.728.7,2.082,2.082,0,0,1-.962.215,1.948,1.948,0,0,1-1.514-.735A2.873,2.873,0,0,1,26.4-2.5a3.376,3.376,0,0,1,.583-1.98A1.91,1.91,0,0,1,28.647-5.322Zm5.859-.024a2.385,2.385,0,0,1,1.079.261,1.99,1.99,0,0,1,.8.676,2.333,2.333,0,0,1,.352.923,6.038,6.038,0,0,1,.078,1.152H32.979a2.237,2.237,0,0,0,.376,1.277,1.259,1.259,0,0,0,1.089.481,1.408,1.408,0,0,0,1.1-.454,1.531,1.531,0,0,0,.332-.61h.864A1.82,1.82,0,0,1,36.511-1a2.284,2.284,0,0,1-.432.579,2.048,2.048,0,0,1-.991.527,3.011,3.011,0,0,1-.718.078,2.2,2.2,0,0,1-1.655-.71,2.764,2.764,0,0,1-.679-1.99,3.006,3.006,0,0,1,.684-2.046A2.255,2.255,0,0,1,34.507-5.347Zm1.4,2.314a2.277,2.277,0,0,0-.249-.913,1.276,1.276,0,0,0-1.206-.635,1.337,1.337,0,0,0-1.016.437A1.651,1.651,0,0,0,33-3.032Zm2.007-4.141h.879V0h-.879Zm5.151.483h.889v1.46h.835v.718h-.835V-1.1a.369.369,0,0,0,.186.366.789.789,0,0,0,.342.054l.137,0q.073,0,.171-.012V0a1.962,1.962,0,0,1-.315.063,2.994,2.994,0,0,1-.354.02.954.954,0,0,1-.835-.315,1.4,1.4,0,0,1-.22-.818V-4.512h-.708v-.718h.708Zm4.78,1.343a2.385,2.385,0,0,1,1.079.261,1.99,1.99,0,0,1,.8.676,2.333,2.333,0,0,1,.352.923,6.038,6.038,0,0,1,.078,1.152H46.318a2.237,2.237,0,0,0,.376,1.277,1.259,1.259,0,0,0,1.089.481,1.408,1.408,0,0,0,1.1-.454,1.531,1.531,0,0,0,.332-.61h.864A1.82,1.82,0,0,1,49.851-1a2.284,2.284,0,0,1-.432.579,2.048,2.048,0,0,1-.991.527,3.011,3.011,0,0,1-.718.078,2.2,2.2,0,0,1-1.655-.71,2.764,2.764,0,0,1-.679-1.99,3.006,3.006,0,0,1,.684-2.046A2.255,2.255,0,0,1,47.847-5.347Zm1.4,2.314A2.277,2.277,0,0,0,49-3.945a1.276,1.276,0,0,0-1.206-.635,1.337,1.337,0,0,0-1.016.437,1.651,1.651,0,0,0-.435,1.111Zm2.5,1.392a1.278,1.278,0,0,0,.22.674,1.381,1.381,0,0,0,1.152.425,1.7,1.7,0,0,0,.859-.212.705.705,0,0,0,.371-.657.562.562,0,0,0-.3-.513,3.541,3.541,0,0,0-.752-.249l-.7-.176a3.406,3.406,0,0,1-.986-.371,1.109,1.109,0,0,1-.566-.986,1.507,1.507,0,0,1,.535-1.2,2.133,2.133,0,0,1,1.438-.459,2,2,0,0,1,1.7.693,1.5,1.5,0,0,1,.317.947h-.83a1.017,1.017,0,0,0-.21-.542,1.339,1.339,0,0,0-1.05-.347,1.255,1.255,0,0,0-.754.19.6.6,0,0,0-.256.5.619.619,0,0,0,.337.547,2.025,2.025,0,0,0,.576.215l.581.142a4.493,4.493,0,0,1,1.27.444,1.177,1.177,0,0,1,.513,1.06,1.615,1.615,0,0,1-.53,1.206A2.255,2.255,0,0,1,53.081.2a2.165,2.165,0,0,1-1.653-.53,2,2,0,0,1-.52-1.311Zm4.653-5.049h.889v1.46h.835v.718h-.835V-1.1a.369.369,0,0,0,.186.366.789.789,0,0,0,.342.054l.137,0q.073,0,.171-.012V0a1.962,1.962,0,0,1-.315.063,2.994,2.994,0,0,1-.354.02.954.954,0,0,1-.835-.315,1.4,1.4,0,0,1-.22-.818V-4.512H55.7v-.718h.708ZM61.084-.566a1.212,1.212,0,0,0,1.2-.662A3.3,3.3,0,0,0,62.607-2.7a2.621,2.621,0,0,0-.234-1.191,1.318,1.318,0,0,0-1.279-.723A1.262,1.262,0,0,0,59.922-4a2.852,2.852,0,0,0-.366,1.484,2.481,2.481,0,0,0,.366,1.392A1.29,1.29,0,0,0,61.084-.566Zm.034-4.814a2.368,2.368,0,0,1,1.709.674,2.631,2.631,0,0,1,.7,1.982,3.4,3.4,0,0,1-.615,2.09A2.226,2.226,0,0,1,61,.19a2.155,2.155,0,0,1-1.714-.73,2.883,2.883,0,0,1-.635-1.96,3.119,3.119,0,0,1,.669-2.1A2.245,2.245,0,0,1,61.118-5.381Z" transform="translate(23.278 15)"/>
    <path id="Path_149477" data-name="Path 149477" d="M.854-7.173H5.83v.879h-4v2.178H5.347v.854H1.826V0H.854Zm5.9,1.968h.894V0H6.753Zm0-1.968h.894v1H6.753ZM8.975-5.229H9.81v.742a2.342,2.342,0,0,1,.786-.659,2.1,2.1,0,0,1,.923-.2,1.522,1.522,0,0,1,1.5.776,2.757,2.757,0,0,1,.215,1.216V0h-.894V-3.3a1.785,1.785,0,0,0-.142-.771.858.858,0,0,0-.85-.488,1.73,1.73,0,0,0-.513.063,1.32,1.32,0,0,0-.635.43,1.294,1.294,0,0,0-.286.535,3.6,3.6,0,0,0-.066.789V0H8.975Zm7.739-.117a2.385,2.385,0,0,1,1.079.261,1.99,1.99,0,0,1,.8.676,2.333,2.333,0,0,1,.352.923,6.038,6.038,0,0,1,.078,1.152H15.186a2.237,2.237,0,0,0,.376,1.277,1.259,1.259,0,0,0,1.089.481,1.408,1.408,0,0,0,1.1-.454,1.531,1.531,0,0,0,.332-.61h.864A1.82,1.82,0,0,1,18.718-1a2.284,2.284,0,0,1-.432.579,2.048,2.048,0,0,1-.991.527,3.011,3.011,0,0,1-.718.078,2.2,2.2,0,0,1-1.655-.71,2.764,2.764,0,0,1-.679-1.99,3.006,3.006,0,0,1,.684-2.046A2.255,2.255,0,0,1,16.714-5.347Zm1.4,2.314a2.277,2.277,0,0,0-.249-.913A1.276,1.276,0,0,0,16.66-4.58a1.337,1.337,0,0,0-1.016.437,1.651,1.651,0,0,0-.435,1.111Zm5.317.479a2.592,2.592,0,0,0,.356,1.406,1.249,1.249,0,0,0,1.143.566,1.2,1.2,0,0,0,1-.525,2.479,2.479,0,0,0,.393-1.506,2.227,2.227,0,0,0-.405-1.467,1.264,1.264,0,0,0-1-.476,1.321,1.321,0,0,0-1.077.508A2.326,2.326,0,0,0,23.433-2.554Zm1.323-2.769a1.861,1.861,0,0,1,1.006.254,2.363,2.363,0,0,1,.532.513V-7.2h.845V0h-.791V-.728a1.9,1.9,0,0,1-.728.7,2.082,2.082,0,0,1-.962.215,1.948,1.948,0,0,1-1.514-.735A2.873,2.873,0,0,1,22.5-2.5a3.376,3.376,0,0,1,.583-1.98A1.91,1.91,0,0,1,24.756-5.322Zm5.859-.024a2.385,2.385,0,0,1,1.079.261,1.99,1.99,0,0,1,.8.676,2.333,2.333,0,0,1,.352.923,6.038,6.038,0,0,1,.078,1.152H29.087a2.237,2.237,0,0,0,.376,1.277,1.259,1.259,0,0,0,1.089.481,1.408,1.408,0,0,0,1.1-.454,1.531,1.531,0,0,0,.332-.61h.864A1.82,1.82,0,0,1,32.62-1a2.284,2.284,0,0,1-.432.579A2.048,2.048,0,0,1,31.2.107a3.011,3.011,0,0,1-.718.078,2.2,2.2,0,0,1-1.655-.71,2.764,2.764,0,0,1-.679-1.99,3.006,3.006,0,0,1,.684-2.046A2.255,2.255,0,0,1,30.615-5.347Zm1.4,2.314a2.277,2.277,0,0,0-.249-.913,1.276,1.276,0,0,0-1.206-.635,1.337,1.337,0,0,0-1.016.437,1.651,1.651,0,0,0-.435,1.111Zm2.007-4.141H34.9V0h-.879Zm5.151.483h.889v1.46H40.9v.718h-.835V-1.1a.369.369,0,0,0,.186.366.789.789,0,0,0,.342.054l.137,0q.073,0,.171-.012V0a1.962,1.962,0,0,1-.315.063,2.994,2.994,0,0,1-.354.02.954.954,0,0,1-.835-.315,1.4,1.4,0,0,1-.22-.818V-4.512h-.708v-.718h.708Zm4.78,1.343a2.385,2.385,0,0,1,1.079.261,1.99,1.99,0,0,1,.8.676,2.333,2.333,0,0,1,.352.923,6.038,6.038,0,0,1,.078,1.152H42.427A2.237,2.237,0,0,0,42.8-1.057a1.259,1.259,0,0,0,1.089.481,1.408,1.408,0,0,0,1.1-.454,1.531,1.531,0,0,0,.332-.61h.864A1.82,1.82,0,0,1,45.959-1a2.284,2.284,0,0,1-.432.579,2.048,2.048,0,0,1-.991.527,3.011,3.011,0,0,1-.718.078,2.2,2.2,0,0,1-1.655-.71,2.764,2.764,0,0,1-.679-1.99,3.006,3.006,0,0,1,.684-2.046A2.255,2.255,0,0,1,43.955-5.347Zm1.4,2.314a2.277,2.277,0,0,0-.249-.913A1.276,1.276,0,0,0,43.9-4.58a1.337,1.337,0,0,0-1.016.437,1.651,1.651,0,0,0-.435,1.111Zm2.5,1.392a1.278,1.278,0,0,0,.22.674,1.381,1.381,0,0,0,1.152.425,1.7,1.7,0,0,0,.859-.212.705.705,0,0,0,.371-.657.562.562,0,0,0-.3-.513,3.541,3.541,0,0,0-.752-.249l-.7-.176a3.406,3.406,0,0,1-.986-.371,1.109,1.109,0,0,1-.566-.986,1.507,1.507,0,0,1,.535-1.2,2.133,2.133,0,0,1,1.438-.459,2,2,0,0,1,1.7.693,1.5,1.5,0,0,1,.317.947h-.83a1.017,1.017,0,0,0-.21-.542,1.339,1.339,0,0,0-1.05-.347,1.255,1.255,0,0,0-.754.19.6.6,0,0,0-.256.5.619.619,0,0,0,.337.547,2.025,2.025,0,0,0,.576.215l.581.142a4.493,4.493,0,0,1,1.27.444,1.177,1.177,0,0,1,.513,1.06A1.615,1.615,0,0,1,50.8-.308,2.255,2.255,0,0,1,49.189.2a2.165,2.165,0,0,1-1.653-.53,2,2,0,0,1-.52-1.311Zm4.653-5.049H53.4v1.46h.835v.718H53.4V-1.1a.369.369,0,0,0,.186.366.789.789,0,0,0,.342.054l.137,0q.073,0,.171-.012V0a1.962,1.962,0,0,1-.315.063,2.994,2.994,0,0,1-.354.02.954.954,0,0,1-.835-.315,1.4,1.4,0,0,1-.22-.818V-4.512h-.708v-.718h.708ZM57.192-.566a1.212,1.212,0,0,0,1.2-.662A3.3,3.3,0,0,0,58.716-2.7a2.621,2.621,0,0,0-.234-1.191A1.318,1.318,0,0,0,57.2-4.614,1.262,1.262,0,0,0,56.03-4a2.852,2.852,0,0,0-.366,1.484,2.481,2.481,0,0,0,.366,1.392A1.29,1.29,0,0,0,57.192-.566Zm.034-4.814a2.368,2.368,0,0,1,1.709.674,2.631,2.631,0,0,1,.7,1.982,3.4,3.4,0,0,1-.615,2.09A2.226,2.226,0,0,1,57.109.19,2.155,2.155,0,0,1,55.4-.54a2.883,2.883,0,0,1-.635-1.96,3.119,3.119,0,0,1,.669-2.1A2.245,2.245,0,0,1,57.227-5.381Z" transform="translate(23.278 38)"/>
    <path id="Path_149476" data-name="Path 149476" d="M3.784-7.368A2.939,2.939,0,0,1,5.9-6.65,2.535,2.535,0,0,1,6.733-5.02H5.786a1.971,1.971,0,0,0-.642-1.1,2.035,2.035,0,0,0-1.35-.405,2.165,2.165,0,0,0-1.711.745A3.394,3.394,0,0,0,1.431-3.5a3.316,3.316,0,0,0,.588,2.043,2.056,2.056,0,0,0,1.755.784A1.854,1.854,0,0,0,5.41-1.494a3.138,3.138,0,0,0,.444-1.143H6.8a3.237,3.237,0,0,1-.84,1.9,2.988,2.988,0,0,1-2.3.923,3.042,3.042,0,0,1-2.1-.757A3.944,3.944,0,0,1,.439-3.662a3.948,3.948,0,0,1,.84-2.6A3.068,3.068,0,0,1,3.784-7.368Zm6.157,6.8a1.212,1.212,0,0,0,1.2-.662A3.3,3.3,0,0,0,11.465-2.7a2.621,2.621,0,0,0-.234-1.191,1.318,1.318,0,0,0-1.279-.723A1.262,1.262,0,0,0,8.779-4a2.852,2.852,0,0,0-.366,1.484,2.481,2.481,0,0,0,.366,1.392A1.29,1.29,0,0,0,9.941-.566Zm.034-4.814a2.368,2.368,0,0,1,1.709.674,2.631,2.631,0,0,1,.7,1.982,3.4,3.4,0,0,1-.615,2.09A2.226,2.226,0,0,1,9.858.19,2.155,2.155,0,0,1,8.145-.54,2.883,2.883,0,0,1,7.51-2.5a3.119,3.119,0,0,1,.669-2.1A2.245,2.245,0,0,1,9.976-5.381Zm3.477.151h.835v.9a2,2,0,0,1,.5-.642,1.3,1.3,0,0,1,.923-.378l.083,0,.2.02v.928a1.313,1.313,0,0,0-.144-.02q-.066,0-.144,0a1.254,1.254,0,0,0-1.021.427,1.491,1.491,0,0,0-.356.984V0h-.879Zm3.33,0h.835v.9a2,2,0,0,1,.5-.642,1.3,1.3,0,0,1,.923-.378l.083,0,.2.02v.928a1.313,1.313,0,0,0-.144-.02q-.066,0-.144,0a1.254,1.254,0,0,0-1.021.427,1.491,1.491,0,0,0-.356.984V0h-.879Zm3.306.024h.894V0h-.894Zm0-1.968h.894v1h-.894Zm2.744,5.532a1.278,1.278,0,0,0,.22.674A1.381,1.381,0,0,0,24.2-.542a1.7,1.7,0,0,0,.859-.212.705.705,0,0,0,.371-.657.562.562,0,0,0-.3-.513,3.541,3.541,0,0,0-.752-.249l-.7-.176A3.406,3.406,0,0,1,22.7-2.72a1.109,1.109,0,0,1-.566-.986,1.507,1.507,0,0,1,.535-1.2,2.133,2.133,0,0,1,1.438-.459,2,2,0,0,1,1.7.693,1.5,1.5,0,0,1,.317.947H25.3a1.017,1.017,0,0,0-.21-.542,1.339,1.339,0,0,0-1.05-.347,1.255,1.255,0,0,0-.754.19.6.6,0,0,0-.256.5.619.619,0,0,0,.337.547,2.025,2.025,0,0,0,.576.215l.581.142a4.493,4.493,0,0,1,1.27.444,1.177,1.177,0,0,1,.513,1.06,1.615,1.615,0,0,1-.53,1.206A2.255,2.255,0,0,1,24.16.2a2.165,2.165,0,0,1-1.653-.53,2,2,0,0,1-.52-1.311Zm6.685,1.05a1.254,1.254,0,0,0,1.023-.515,2.451,2.451,0,0,0,.408-1.541,2.876,2.876,0,0,0-.181-1.074,1.247,1.247,0,0,0-1.25-.864,1.246,1.246,0,0,0-1.25.913,3.619,3.619,0,0,0-.181,1.24,2.629,2.629,0,0,0,.181,1.03A1.246,1.246,0,0,0,29.517-.591ZM27.241-5.205H28.1v.693a2.133,2.133,0,0,1,.576-.552,1.855,1.855,0,0,1,1.045-.293,1.965,1.965,0,0,1,1.509.681,2.791,2.791,0,0,1,.62,1.946,2.988,2.988,0,0,1-.894,2.441,2.019,2.019,0,0,1-1.318.464,1.79,1.79,0,0,1-.991-.259,2.284,2.284,0,0,1-.522-.5V2.085h-.879ZM34.946-.566a1.212,1.212,0,0,0,1.2-.662A3.3,3.3,0,0,0,36.47-2.7a2.621,2.621,0,0,0-.234-1.191,1.318,1.318,0,0,0-1.279-.723A1.262,1.262,0,0,0,33.784-4a2.852,2.852,0,0,0-.366,1.484,2.481,2.481,0,0,0,.366,1.392A1.29,1.29,0,0,0,34.946-.566Zm.034-4.814a2.368,2.368,0,0,1,1.709.674,2.631,2.631,0,0,1,.7,1.982,3.4,3.4,0,0,1-.615,2.09A2.226,2.226,0,0,1,34.863.19a2.155,2.155,0,0,1-1.714-.73,2.883,2.883,0,0,1-.635-1.96,3.119,3.119,0,0,1,.669-2.1A2.245,2.245,0,0,1,34.98-5.381Zm3.452.151h.835v.742a2.342,2.342,0,0,1,.786-.659,2.1,2.1,0,0,1,.923-.2,1.522,1.522,0,0,1,1.5.776A2.757,2.757,0,0,1,42.7-3.354V0H41.8V-3.3a1.785,1.785,0,0,0-.142-.771.858.858,0,0,0-.85-.488,1.73,1.73,0,0,0-.513.063,1.32,1.32,0,0,0-.635.43,1.294,1.294,0,0,0-.286.535,3.6,3.6,0,0,0-.066.789V0h-.879Zm6.118,2.676a2.592,2.592,0,0,0,.356,1.406,1.249,1.249,0,0,0,1.143.566,1.2,1.2,0,0,0,1-.525,2.479,2.479,0,0,0,.393-1.506,2.227,2.227,0,0,0-.405-1.467,1.264,1.264,0,0,0-1-.476,1.321,1.321,0,0,0-1.077.508A2.326,2.326,0,0,0,44.551-2.554Zm1.323-2.769a1.861,1.861,0,0,1,1.006.254,2.363,2.363,0,0,1,.532.513V-7.2h.845V0h-.791V-.728a1.9,1.9,0,0,1-.728.7,2.082,2.082,0,0,1-.962.215,1.948,1.948,0,0,1-1.514-.735,2.873,2.873,0,0,1-.64-1.956,3.376,3.376,0,0,1,.583-1.98A1.91,1.91,0,0,1,45.874-5.322Zm5.859-.024a2.385,2.385,0,0,1,1.079.261,1.99,1.99,0,0,1,.8.676,2.333,2.333,0,0,1,.352.923,6.038,6.038,0,0,1,.078,1.152H50.205a2.237,2.237,0,0,0,.376,1.277,1.259,1.259,0,0,0,1.089.481,1.408,1.408,0,0,0,1.1-.454,1.531,1.531,0,0,0,.332-.61h.864A1.82,1.82,0,0,1,53.738-1a2.284,2.284,0,0,1-.432.579,2.048,2.048,0,0,1-.991.527A3.011,3.011,0,0,1,51.6.186a2.2,2.2,0,0,1-1.655-.71,2.764,2.764,0,0,1-.679-1.99,3.006,3.006,0,0,1,.684-2.046A2.255,2.255,0,0,1,51.733-5.347Zm1.4,2.314a2.277,2.277,0,0,0-.249-.913A1.276,1.276,0,0,0,51.68-4.58a1.337,1.337,0,0,0-1.016.437,1.651,1.651,0,0,0-.435,1.111Zm1.982-2.2h.835v.742a2.342,2.342,0,0,1,.786-.659,2.1,2.1,0,0,1,.923-.2,1.522,1.522,0,0,1,1.5.776,2.757,2.757,0,0,1,.215,1.216V0h-.894V-3.3a1.785,1.785,0,0,0-.142-.771.858.858,0,0,0-.85-.488,1.73,1.73,0,0,0-.513.063,1.32,1.32,0,0,0-.635.43,1.294,1.294,0,0,0-.286.535A3.6,3.6,0,0,0,56-2.739V0h-.879ZM60.288-.693l3.1-3.75H60.518v-.786H64.57v.718L61.489-.786h3.174V0H60.288Zm6.064-.7a.724.724,0,0,0,.278.6,1.032,1.032,0,0,0,.659.22,2,2,0,0,0,.9-.215,1.209,1.209,0,0,0,.732-1.167v-.708a1.5,1.5,0,0,1-.415.171,3.537,3.537,0,0,1-.5.1l-.532.068a2.036,2.036,0,0,0-.718.2A.78.78,0,0,0,66.353-1.392Zm2.129-1.777a.477.477,0,0,0,.405-.254.773.773,0,0,0,.059-.337.714.714,0,0,0-.32-.652,1.716,1.716,0,0,0-.916-.2,1.163,1.163,0,0,0-.977.371,1.221,1.221,0,0,0-.21.61H65.7a1.51,1.51,0,0,1,.627-1.345,2.576,2.576,0,0,1,1.4-.378,2.846,2.846,0,0,1,1.5.352A1.193,1.193,0,0,1,69.8-3.911V-.9a.386.386,0,0,0,.056.22.271.271,0,0,0,.237.083q.059,0,.132-.007t.156-.022V.024A2.448,2.448,0,0,1,70.068.1a2.284,2.284,0,0,1-.293.015.723.723,0,0,1-.659-.322,1.244,1.244,0,0,1-.151-.483,2.236,2.236,0,0,1-.771.61,2.386,2.386,0,0,1-1.108.259A1.648,1.648,0,0,1,65.9-.266a1.468,1.468,0,0,1-.461-1.106A1.424,1.424,0,0,1,65.889-2.5a2.161,2.161,0,0,1,1.191-.493Zm5.757-2.856a1.567,1.567,0,0,1,.19-.8,1.346,1.346,0,0,1,1.187-.449q.083,0,.171,0t.2.015v.8l-.2-.012-.115,0q-.4,0-.479.208a4.1,4.1,0,0,0-.078,1.057h.869v.693h-.879V0h-.869V-4.512h-.728v-.693h.728Zm2.583.8h.835v.9a2,2,0,0,1,.5-.642,1.3,1.3,0,0,1,.923-.378l.083,0,.2.02v.928a1.313,1.313,0,0,0-.144-.02q-.066,0-.144,0a1.254,1.254,0,0,0-1.021.427,1.491,1.491,0,0,0-.356.984V0h-.879ZM80.8-1.392a.724.724,0,0,0,.278.6,1.032,1.032,0,0,0,.659.22,2,2,0,0,0,.9-.215,1.209,1.209,0,0,0,.732-1.167v-.708a1.5,1.5,0,0,1-.415.171,3.537,3.537,0,0,1-.5.1l-.532.068a2.036,2.036,0,0,0-.718.2A.78.78,0,0,0,80.8-1.392ZM82.93-3.169a.477.477,0,0,0,.405-.254.773.773,0,0,0,.059-.337.714.714,0,0,0-.32-.652,1.716,1.716,0,0,0-.916-.2,1.163,1.163,0,0,0-.977.371,1.221,1.221,0,0,0-.21.61h-.82a1.51,1.51,0,0,1,.627-1.345,2.576,2.576,0,0,1,1.4-.378,2.846,2.846,0,0,1,1.5.352,1.193,1.193,0,0,1,.571,1.094V-.9a.386.386,0,0,0,.056.22.271.271,0,0,0,.237.083q.059,0,.132-.007t.156-.022V.024A2.448,2.448,0,0,1,84.517.1a2.284,2.284,0,0,1-.293.015.723.723,0,0,1-.659-.322,1.244,1.244,0,0,1-.151-.483,2.236,2.236,0,0,1-.771.61,2.386,2.386,0,0,1-1.108.259,1.648,1.648,0,0,1-1.189-.442,1.468,1.468,0,0,1-.461-1.106A1.424,1.424,0,0,1,80.337-2.5a2.161,2.161,0,0,1,1.191-.493Zm5.537-2.036h.894V0h-.894Zm0-1.968h.894v1h-.894Zm2.222,1.943h.835v.742a2.342,2.342,0,0,1,.786-.659,2.1,2.1,0,0,1,.923-.2,1.522,1.522,0,0,1,1.5.776,2.757,2.757,0,0,1,.215,1.216V0h-.894V-3.3a1.785,1.785,0,0,0-.142-.771.858.858,0,0,0-.85-.488,1.73,1.73,0,0,0-.513.063,1.32,1.32,0,0,0-.635.43,1.294,1.294,0,0,0-.286.535,3.6,3.6,0,0,0-.066.789V0h-.879Zm5.562.024h.894V0H96.25Zm0-1.968h.894v1H96.25ZM98.081-.693l3.1-3.75H98.311v-.786h4.053v.718L99.282-.786h3.174V0H98.081Zm5.391-4.512h.894V0h-.894Zm0-1.968h.894v1h-.894Zm4.3,6.606a1.212,1.212,0,0,0,1.2-.662,3.3,3.3,0,0,0,.325-1.472,2.621,2.621,0,0,0-.234-1.191,1.318,1.318,0,0,0-1.279-.723A1.262,1.262,0,0,0,106.606-4a2.852,2.852,0,0,0-.366,1.484,2.481,2.481,0,0,0,.366,1.392A1.29,1.29,0,0,0,107.769-.566Zm.034-4.814a2.368,2.368,0,0,1,1.709.674,2.631,2.631,0,0,1,.7,1.982,3.4,3.4,0,0,1-.615,2.09,2.226,2.226,0,0,1-1.909.825,2.155,2.155,0,0,1-1.714-.73,2.883,2.883,0,0,1-.635-1.96,3.119,3.119,0,0,1,.669-2.1A2.245,2.245,0,0,1,107.8-5.381Zm8.408.034a2.385,2.385,0,0,1,1.079.261,1.99,1.99,0,0,1,.8.676,2.333,2.333,0,0,1,.352.923,6.038,6.038,0,0,1,.078,1.152h-3.833a2.237,2.237,0,0,0,.376,1.277,1.259,1.259,0,0,0,1.089.481,1.408,1.408,0,0,0,1.1-.454,1.531,1.531,0,0,0,.332-.61h.864a1.82,1.82,0,0,1-.227.642,2.284,2.284,0,0,1-.432.579,2.048,2.048,0,0,1-.991.527,3.011,3.011,0,0,1-.718.078,2.2,2.2,0,0,1-1.655-.71,2.764,2.764,0,0,1-.679-1.99,3.006,3.006,0,0,1,.684-2.046A2.255,2.255,0,0,1,116.211-5.347Zm1.4,2.314a2.277,2.277,0,0,0-.249-.913,1.276,1.276,0,0,0-1.206-.635,1.337,1.337,0,0,0-1.016.437,1.651,1.651,0,0,0-.435,1.111Zm4.98-2.993a1.567,1.567,0,0,1,.19-.8,1.346,1.346,0,0,1,1.187-.449q.083,0,.171,0t.2.015v.8l-.2-.012-.115,0q-.4,0-.479.208a4.1,4.1,0,0,0-.078,1.057h.869v.693h-.879V0h-.869V-4.512h-.728v-.693h.728Zm2.593-.151v-1h.879v1Zm0,.972h.879V0h-.879Zm2.188-.024h.835v.742a2.342,2.342,0,0,1,.786-.659,2.1,2.1,0,0,1,.923-.2,1.522,1.522,0,0,1,1.5.776,2.757,2.757,0,0,1,.215,1.216V0h-.894V-3.3a1.785,1.785,0,0,0-.142-.771.858.858,0,0,0-.85-.488,1.73,1.73,0,0,0-.513.063,1.32,1.32,0,0,0-.635.43,1.294,1.294,0,0,0-.286.535,3.6,3.6,0,0,0-.066.789V0h-.879Zm7.739-.117a2.385,2.385,0,0,1,1.079.261,1.99,1.99,0,0,1,.8.676,2.333,2.333,0,0,1,.352.923,6.038,6.038,0,0,1,.078,1.152h-3.833a2.237,2.237,0,0,0,.376,1.277,1.259,1.259,0,0,0,1.089.481,1.408,1.408,0,0,0,1.1-.454,1.531,1.531,0,0,0,.332-.61h.864a1.82,1.82,0,0,1-.227.642,2.284,2.284,0,0,1-.432.579,2.048,2.048,0,0,1-.991.527,3.011,3.011,0,0,1-.718.078,2.2,2.2,0,0,1-1.655-.71,2.764,2.764,0,0,1-.679-1.99,3.006,3.006,0,0,1,.684-2.046A2.255,2.255,0,0,1,135.112-5.347Zm1.4,2.314a2.277,2.277,0,0,0-.249-.913,1.276,1.276,0,0,0-1.206-.635,1.337,1.337,0,0,0-1.016.437,1.651,1.651,0,0,0-.435,1.111Z" transform="translate(23.278 60.139)"/>
    <rect id="Rectangle_9625" data-name="Rectangle 9625" width="11" height="11" transform="translate(0 34.779) rotate(-45)" fill="#fff"/>
    <rect id="Rectangle_9626" data-name="Rectangle 9626" width="10.5" height="10.5" transform="translate(0.354 34.779) rotate(-45)" fill="none" stroke="#000" stroke-width="0.5"/>
    <path id="Path_116471" data-name="Path 116471" d="M473.446,369.2l2.278-2.278-2.278-2.278v-3.222h-3.222l-2.278-2.278-2.278,2.278h-3.222v3.222l-2.278,2.278,2.278,2.278v3.222h3.222l2.278,2.278,2.278-2.278h3.222Z" transform="translate(-459.89 -309.641)" fill="#e72eff" stroke="#000" stroke-width="0.5"/>
  </g>
</svg>
