<svg xmlns="http://www.w3.org/2000/svg" xmlns:xlink="http://www.w3.org/1999/xlink" width="160" height="70" viewBox="0 0 160 70">
  <defs>
    <clipPath id="clip-trama_b_forma">
      <rect width="160" height="70"/>
    </clipPath>
  </defs>
  <g id="trama_b_forma" clip-path="url(#clip-trama_b_forma)">
    <rect id="Rectangle_9623" data-name="Rectangle 9623" width="11" height="11" transform="translate(2.278 6)" fill="#fff"/>
    <rect id="Rectangle_9624" data-name="Rectangle 9624" width="10.5" height="10.5" transform="translate(2.528 6.25)" fill="none" stroke="#000" stroke-width="0.5"/>
    <text id="Inizio_del_testo" data-name="Inizio del testo" transform="translate(23.278 15)" font-size="10" font-family="HKGrotesk-Regular, HK Grotesk" style="isolation: isolate"><tspan x="0" y="0">Inizio del testo</tspan></text>
    <text id="Fine_del_testo" data-name="Fine del testo" transform="translate(23.278 38)" font-size="10" font-family="HKGrotesk-Regular, HK Grotesk" style="isolation: isolate"><tspan x="0" y="0">Fine del testo</tspan></text>
    <rect id="Rectangle_9625" data-name="Rectangle 9625" width="11" height="11" transform="translate(0 34.779) rotate(-45)" fill="#fff"/>
    <rect id="Rectangle_9626" data-name="Rectangle 9626" width="10.5" height="10.5" transform="translate(0.354 34.779) rotate(-45)" fill="none" stroke="#000" stroke-width="0.5"/>
    <path id="Path_148990" data-name="Path 148990" d="M3.682.1A2.923,2.923,0,0,0,6.514-1.748L5.8-2.056A2.028,2.028,0,0,1,3.73-.615c-1.685,0-2.358-1.338-2.358-2.861,0-1.489.654-2.817,2.339-2.817a1.968,1.968,0,0,1,2.08,1.426L6.5-5.176A2.726,2.726,0,0,0,3.745-7.012C1.548-7.012.61-5.371.61-3.467.61-1.519,1.592.1,3.682.1ZM9.463.1a2.4,2.4,0,0,0,2.324-2.549A2.383,2.383,0,0,0,9.463-4.98a2.361,2.361,0,0,0-2.3,2.529A2.376,2.376,0,0,0,9.463.1Zm0-.605C8.394-.508,7.9-1.465,7.9-2.451s.5-1.924,1.582-1.924,1.572.947,1.572,1.924S10.562-.508,9.468-.508ZM13.027,0h.718V-2.437c0-1.177.5-1.846,1.333-1.846a.888.888,0,0,1,.6.186l.308-.63A1.268,1.268,0,0,0,15.2-4.98a1.572,1.572,0,0,0-1.44.967v-.864h-.728Zm3.892,0h.718V-2.437c0-1.177.5-1.846,1.333-1.846a.888.888,0,0,1,.6.186l.308-.63a1.268,1.268,0,0,0-.786-.254,1.572,1.572,0,0,0-1.44.967v-.864h-.728Zm3.848-5.962h.83V-6.9h-.83ZM20.82,0h.723V-4.878H20.82Zm3.726.1a1.521,1.521,0,0,0,1.675-1.489c0-1.792-2.632-1.2-2.632-2.324,0-.4.327-.674.854-.674a1.15,1.15,0,0,1,1.089.688l.537-.308a1.733,1.733,0,0,0-1.6-.972A1.392,1.392,0,0,0,22.92-3.628c0,1.655,2.593,1.011,2.593,2.324,0,.527-.405.806-.957.806a1.237,1.237,0,0,1-1.216-.928l-.615.317A1.893,1.893,0,0,0,24.546.1Zm2.9,2.041h.732v-2.8A1.75,1.75,0,0,0,29.668.1c1.309,0,1.987-1.157,1.987-2.539S30.972-4.98,29.663-4.98a1.743,1.743,0,0,0-1.489.767v-.664h-.732Zm2.07-2.656c-.991,0-1.406-.928-1.406-1.924s.415-1.924,1.406-1.924,1.411.938,1.411,1.924S30.488-.518,29.512-.518ZM34.844.1a2.4,2.4,0,0,0,2.324-2.549A2.383,2.383,0,0,0,34.844-4.98a2.361,2.361,0,0,0-2.3,2.529A2.376,2.376,0,0,0,34.844.1Zm0-.605c-1.074,0-1.572-.957-1.572-1.943s.5-1.924,1.582-1.924,1.572.947,1.572,1.924S35.942-.508,34.849-.508ZM38.408,0h.728V-2.534c0-1.211.61-1.812,1.377-1.812.859,0,1.108.781,1.108,1.455V0h.723V-2.964c0-1.074-.474-2-1.636-2a1.752,1.752,0,0,0-1.572.938v-.85h-.728ZM47-6.9v2.686a1.746,1.746,0,0,0-1.528-.767c-1.245,0-1.953,1.143-1.953,2.539S44.229.1,45.479.1a1.734,1.734,0,0,0,1.528-.776L47.021,0h.708V-6.9ZM45.664-.518c-.977,0-1.4-.928-1.4-1.924s.42-1.924,1.4-1.924c1,0,1.4.938,1.4,1.924S46.66-.518,45.664-.518Zm5.542.586a2.392,2.392,0,0,0,1.865-.762l-.5-.4A1.7,1.7,0,0,1,51.2-.571a1.444,1.444,0,0,1-1.426-1.621h3.4c.01-.088.024-.249.024-.376,0-1.123-.488-2.378-2.07-2.378-1.416,0-2.119,1.226-2.119,2.534A2.211,2.211,0,0,0,51.206.068ZM49.775-2.788c.039-.83.459-1.558,1.353-1.558,1,0,1.353.776,1.372,1.558ZM54.453,0h.728V-2.534c0-1.211.61-1.812,1.377-1.812.859,0,1.108.781,1.108,1.455V0h.723V-2.964c0-1.074-.474-2-1.636-2a1.752,1.752,0,0,0-1.572.938v-.85h-.728Zm8.8-4.878h-3.7v.6H62.4L59.419-.552V0h3.838V-.625h-2.93l2.93-3.652ZM65.605.1a1.821,1.821,0,0,0,1.714-1.04L67.334,0h.62V-2.993A1.8,1.8,0,0,0,66.045-4.98a2.164,2.164,0,0,0-1.841.957l.532.415a1.605,1.605,0,0,1,1.353-.737c.884,0,1.2.64,1.2,1.558H66.172c-1.387,0-2.148.454-2.148,1.431A1.43,1.43,0,0,0,65.605.1Zm.083-.615c-.508,0-.913-.239-.913-.82,0-.649.5-.9,1.465-.9h1.045A1.683,1.683,0,0,1,65.688-.518ZM72.339,0h.728V-4.282h1.4v-.6h-1.4v-.781c0-.5.273-.728.649-.728a1.387,1.387,0,0,1,.571.151l.176-.581a1.825,1.825,0,0,0-.8-.186,1.225,1.225,0,0,0-1.318,1.3v.82H71.45v.6h.889Zm3.086,0h.718V-2.437c0-1.177.5-1.846,1.333-1.846a.888.888,0,0,1,.6.186l.308-.63a1.268,1.268,0,0,0-.786-.254,1.572,1.572,0,0,0-1.44.967v-.864h-.728Zm5.029.1a1.821,1.821,0,0,0,1.714-1.04L82.183,0h.62V-2.993A1.8,1.8,0,0,0,80.894-4.98a2.164,2.164,0,0,0-1.841.957l.532.415a1.605,1.605,0,0,1,1.353-.737c.884,0,1.2.64,1.2,1.558H81.021c-1.387,0-2.148.454-2.148,1.431A1.43,1.43,0,0,0,80.454.1Zm.083-.615c-.508,0-.913-.239-.913-.82,0-.649.5-.9,1.465-.9h1.045A1.683,1.683,0,0,1,80.537-.518Zm6.382-5.444h.83V-6.9h-.83ZM86.973,0H87.7V-4.878h-.723Zm2.373,0h.728V-2.534c0-1.211.61-1.812,1.377-1.812.859,0,1.108.781,1.108,1.455V0h.723V-2.964c0-1.074-.474-2-1.636-2a1.752,1.752,0,0,0-1.572.938v-.85h-.728Zm5.42-5.962h.83V-6.9h-.83ZM94.819,0h.723V-4.878h-.723Zm5.713-4.878h-3.7v.6h2.842L96.694-.552V0h3.838V-.625H97.6l2.93-3.652Zm1.157-1.084h.83V-6.9h-.83ZM101.743,0h.723V-4.878h-.723Zm4.272.1a2.4,2.4,0,0,0,2.324-2.549,2.383,2.383,0,0,0-2.324-2.529,2.361,2.361,0,0,0-2.3,2.529A2.376,2.376,0,0,0,106.016.1Zm0-.605c-1.074,0-1.572-.957-1.572-1.943s.5-1.924,1.582-1.924,1.572.947,1.572,1.924S107.114-.508,106.021-.508Zm8.022.576a2.392,2.392,0,0,0,1.865-.762l-.5-.4a1.7,1.7,0,0,1-1.372.522,1.444,1.444,0,0,1-1.426-1.621h3.4c.01-.088.024-.249.024-.376,0-1.123-.488-2.378-2.07-2.378-1.416,0-2.119,1.226-2.119,2.534A2.211,2.211,0,0,0,114.043.068Zm-1.431-2.856c.039-.83.459-1.558,1.353-1.558,1,0,1.353.776,1.372,1.558ZM119.985,0h.684V-4.282h1.841V0h.659V-4.878h-2.5c0-.806.225-1.5,1.1-1.5a1.3,1.3,0,0,1,1.011.474l.4-.493a1.809,1.809,0,0,0-1.392-.6C120.4-7,120-5.981,120-4.878h-.728v.6h.718ZM124.8,0h.728V-2.534c0-1.211.61-1.812,1.377-1.812.859,0,1.108.781,1.108,1.455V0h.723V-2.964c0-1.074-.474-2-1.636-2a1.752,1.752,0,0,0-1.572.938v-.85H124.8Zm7.285.068a2.392,2.392,0,0,0,1.865-.762l-.5-.4a1.7,1.7,0,0,1-1.372.522,1.444,1.444,0,0,1-1.426-1.621h3.4c.01-.088.024-.249.024-.376,0-1.123-.488-2.378-2.07-2.378-1.416,0-2.119,1.226-2.119,2.534A2.211,2.211,0,0,0,132.09.068Zm-1.431-2.856c.039-.83.459-1.558,1.353-1.558,1,0,1.353.776,1.372,1.558Z" transform="translate(24.278 60)"/>
    <path id="Path_116471" data-name="Path 116471" d="M473.446,369.2l2.278-2.278-2.278-2.278v-3.222h-3.222l-2.278-2.278-2.278,2.278h-3.222v3.222l-2.278,2.278,2.278,2.278v3.222h3.222l2.278,2.278,2.278-2.278h3.222Z" transform="translate(-459.89 -309.641)" fill="#e72eff" stroke="#000" stroke-width="0.5"/>
  </g>
</svg>
