<?xml version="1.0" encoding="utf-8"?>
<!-- Generator: Adobe Illustrator 19.2.1, SVG Export Plug-In . SVG Version: 6.00 Build 0)  -->
<svg version="1.1" id="calogo" xmlns="http://www.w3.org/2000/svg" xmlns:xlink="http://www.w3.org/1999/xlink" x="0px" y="0px"
	 viewBox="0 0 324.8 150" style="enable-background:new 0 0 324.8 150;" xml:space="preserve">
<title>logo-big-polygons</title>
<polygon points="38.1,6.1 57.2,53.7 59.9,60.3 62.8,62.5 66.3,63.3 66.7,64.9 66.5,66.3 55,65.8 43.2,66.3 42.9,64.6 43.2,63.3 
	46.2,62.8 48.5,61.5 48.8,60.3 47,54 43.9,45.6 43.2,45.2 35.4,45 25.1,45.3 24.5,45.7 21.1,54.1 19.3,60 20.3,61.8 23.2,62.8 
	26,63.3 26.2,64.6 26.1,66.3 21.8,66 15.6,65.8 10,66 5.4,66.3 5.1,64.9 5.3,63.3 8.8,62.5 11.8,60.8 15.3,53.7 32.2,12.8 35.5,6.3 
	37,5.6 38.1,6.1 "/>
<polygon points="27.2,39.9 33.8,40.2 41.2,39.9 41.4,39.5 34.5,21.4 27.1,39.5 27.2,39.9 "/>
<polygon points="81.8,32.2 76.3,32.2 75.7,29.9 75.8,29.1 79.6,26.9 82.8,24.2 85.3,21.6 88.7,17.7 90.4,17.9 91.2,18.4 91.2,27.3 
	97.8,27.4 102.3,27.4 103,28.2 102.1,32.2 91.2,32.2 91.2,54.1 91.6,57.2 92.7,59.7 94.6,61.1 97,61.6 98.9,61.3 100.6,60.8 
	101.7,60.3 102.4,60 103.2,60.8 103.6,62 99.7,65 96.1,66.3 93.2,66.7 90.3,66.3 86.9,65 85.2,63.6 83.2,61 82.1,57.2 81.8,54.2 
	81.8,32.2 "/>
<polygon points="129.3,53 129.9,61.1 132.1,62.5 134.9,63.3 135.2,64.6 135.1,66.3 131.7,66.1 127.8,65.8 124.6,65.8 121.1,65.8 
	117.3,66.1 113.8,66.3 113.5,64.6 113.8,63.3 116.9,62.5 119.1,61.1 119.8,54.4 119.8,16.6 119.3,10.5 114.8,9 113.8,9 113.3,7.9 
	113.8,6.5 119.2,5.7 123.4,4.8 126.3,4 128.3,3.3 128.9,3 129.1,3 129.9,3.6 130.4,4.5 129.3,13 129.3,53 "/>
<polygon points="164.5,25.9 169.2,26.6 172.9,28.8 173.9,30.2 175.3,34.2 175.7,39 175.7,56.9 176.5,59.6 178.7,60.6 181.8,59.4 
	182.4,60.4 181.8,63.1 178.2,65.4 173.8,66.6 169.7,65 167.1,61.7 166.4,62.3 164.8,63.5 162.4,64.9 159.3,66.2 155.7,66.7 
	151.6,66 148.3,64.2 146,60.8 145.5,57.3 146.5,53.2 149,50.1 152.9,47.7 157.1,45.9 161.7,44.5 165.6,43.3 166.4,41.9 166.4,36.9 
	164.9,31.9 161,30.1 156.7,31.8 155.6,33.7 155.2,36.5 153.8,39.2 150.7,40 148,39.6 146,37.9 146.9,34.7 149.3,31.7 152,29.7 
	155.8,27.7 160,26.3 164.5,25.9 "/>
<polygon points="160.4,60.8 164.6,59.5 166.4,56.6 166.4,47.3 163.7,48.2 160.6,49.3 158,50.6 155.9,52.6 155.2,55.1 156.6,59.4 
	160.4,60.8 "/>
<polygon points="220.8,25.9 224.6,26.5 227.7,28.3 230.5,32.3 231.8,36.4 232.5,44.5 232.5,53.1 233.1,61.3 235.6,62.6 238.8,63.3 
	239.1,64.6 238.9,66.4 234.2,66 227.9,65.8 221.8,66 217.1,66.4 216.8,64.7 217.1,63.3 220.2,62.6 222.4,61.3 223.1,54.7 223.1,46 
	222.7,39.9 221.1,35.5 218.5,33.3 214.6,32.5 209.5,34.1 207.3,37.5 207.3,53.1 208,61.3 210.4,62.6 213.3,63.3 213.8,64.6 
	213.6,66.4 208.8,66 202.7,65.8 196.4,66 191.5,66.4 191.2,64.7 191.5,63.3 194.9,62.6 197.3,61.3 197.9,54.7 197.9,39.9 
	197.6,36.3 196.4,34.1 194.4,32.7 192.2,32.2 191.4,31.9 191.8,29.2 206.4,26.4 206.7,26.3 206.9,26.2 207.2,26.2 207.8,26.9 
	208.1,27.9 207.7,31.1 207.8,31.6 208.2,31.3 213.8,27.5 220.8,25.9 "/>
<polygon points="254,32.2 248.5,32.2 247.9,29.9 248,29.1 251.5,27 254.9,24.2 257.5,21.6 260.9,17.7 262.6,17.9 263.4,18.4 
	263.4,27.3 270,27.4 274.5,27.4 275.2,28.2 274.3,32.2 263.4,32.2 263.4,54.1 263.7,57 264.9,59.7 266.6,61 269.2,61.6 271.1,61.3 
	272.8,60.8 273.9,60.3 274.6,60 275.4,60.8 275.8,62 271.9,65 268.7,66.2 265.4,66.7 262.7,66.4 259.5,65.2 257.4,63.6 255.3,60.7 
	254.4,58 254,54.2 254,32.2 "/>
<polygon points="303.8,25.9 307.8,26.3 311.5,27.6 314.5,29.5 316.7,31.8 318.4,34.4 319.6,37.2 320.6,42.5 320,45 317.2,45.5 
	295.5,45.5 294.8,46 296,52.4 300.1,57.8 306.9,60 309.5,59.9 311.9,59.5 313.8,58.8 315.5,58 316.7,57.3 318.5,56 319,56.6 
	319.3,57.5 318.7,59.2 316.3,62 313.4,64.1 309.1,66 304.4,66.6 300.8,66.2 297,65.1 293.8,63.3 290.8,60.7 288.3,57.7 286.5,54.3 
	285.4,50.6 285,46.5 285.3,42.3 286.2,38.5 287.9,34.9 290.3,31.6 292.8,29.4 296.1,27.4 299.8,26.3 303.8,25.9 "/>
<polygon points="303.2,30.1 301.1,30.4 299.3,31.3 297.8,32.7 296.6,34.4 295.3,37.8 294.9,40.5 295.5,41.2 310.2,41.2 311,39.8 
	310.5,36.6 308.9,33.3 306.2,30.8 303.2,30.1 "/>
<polygon points="56.4,129.5 55,136.5 53,142.8 42.5,145.8 31.9,146.6 20.1,144.1 11.5,137.8 5.7,129.5 3,116.8 5.1,105 11.6,94.7 
	20,88.3 32.9,85.4 42.9,86 54.3,87.9 54.9,93.8 55.1,101.2 53,102.5 51.7,102.2 50.4,98.8 47.5,94.9 41.9,91.3 33.2,89.9 25.6,91.6 
	19.4,97.3 15.4,106.2 14.4,114.9 15.7,124.8 20,134.3 26.7,140.2 35.8,142.2 43,141 48.6,137.1 50.7,133.7 52.2,130.1 52.9,128.7 
	56.4,129.5 "/>
<polygon points="86.3,105.9 90.9,106.5 94.8,108.8 97.1,113.8 97.6,119 97.6,136.9 98.4,139.6 100.6,140.6 103.7,139.4 104.2,140.4 
	103.7,143.1 100.1,145.4 95.7,146.6 91.6,145 89,141.7 88.3,142.3 86.7,143.5 84.3,144.9 81.2,146.2 77.6,146.7 73.5,146 
	70.2,144.2 68.1,141.2 67.3,137.3 68.4,133.2 70.9,130.1 74.8,127.7 79,125.9 83.6,124.5 87.4,123.3 88.2,121.9 88.2,116.9 
	86.8,111.9 82.9,110.1 78.6,111.8 77.1,116.5 75.7,119.2 72.6,120.1 67.9,117.9 70.1,112.7 73.8,109.7 79.9,106.8 86.3,105.9 "/>
<polygon points="82.2,140.8 86.5,139.5 88.2,136.6 88.2,127.3 85.6,128.2 82.4,129.3 79.9,130.6 77.8,132.6 77.1,135.1 78.5,139.4 
	82.2,140.8 "/>
<polygon points="128.1,132.9 128.8,141.1 131,142.5 133.7,143.3 134.1,144.6 133.9,146.3 130.5,146.1 126.7,145.9 123.4,145.8 
	119.9,145.9 116.1,146.1 112.7,146.3 112.3,144.6 112.7,143.3 115.7,142.5 117.9,141.1 118.7,134.4 118.7,96.6 118.1,90.4 113.6,89 
	112.7,89 112.1,87.9 112.7,86.4 118,85.7 122.2,84.8 125.2,83.9 127.1,83.3 127.8,83 127.9,83 128.7,83.6 129.2,84.4 128.1,93 
	128.1,132.9 "/>
<polygon points="172.6,111.6 166.3,109.2 166,107.9 166.3,106.2 170.7,106.5 175.8,106.8 181.1,106.5 185.6,106.2 185.9,107.7 
	185.3,109.2 181.8,110 178.7,112.6 163.5,144.7 162.4,146.2 160.8,147 159.7,146.5 154.8,135.2 149.4,123 144.2,111.7 138.3,109.2 
	137.9,107.7 138.3,106.2 143.1,106.5 149.3,106.8 155.5,106.5 160.3,106.2 160.5,107.9 160.1,109.2 156.9,109.7 154.8,111.2 
	155,112.1 164,132.9 172.2,115 172.6,111.6 "/>
<polygon points="209.6,133.1 210.3,141.3 212.8,142.6 215.8,143.3 216.2,144.6 216.1,146.4 211.2,146 205,145.8 198.6,146 
	193.9,146.4 193.5,144.7 193.9,143.3 197.1,142.6 199.6,141.3 200.2,134.7 200.2,119.9 198.8,114.1 196.7,112.7 194.5,112.2 
	193.6,111.9 194.1,109.2 201.5,108.1 208.7,106.4 209.4,106.2 210.1,106.9 210.3,107.9 209.6,115.7 209.6,133.1 "/>
<polygon points="200.1,95.1 198.5,91.1 200.1,87.2 204.1,85.5 208.1,87.2 209.8,91.1 208.1,95.1 204.1,96.8 200.1,95.1 "/>
<polygon points="255,105.9 260.7,107.4 264.5,111.8 266.3,118.1 266.7,124.5 266.7,133.1 267.4,141.3 269.9,142.6 273,143.3 
	273.3,144.6 273.2,146.4 268.4,146 262.1,145.8 256,146 251.4,146.4 251,144.7 251.4,143.3 254.4,142.6 256.6,141.3 257.4,134.7 
	257.4,126.1 257,120.5 255.3,115.5 252.9,113.4 248.8,112.5 246.1,112.9 243.7,114.1 241.6,117.5 241.6,133.1 242.2,141.3 
	244.6,142.6 247.6,143.3 248,144.6 247.8,146.4 243.1,146 236.9,145.8 230.6,146 225.8,146.4 225.4,144.7 225.8,143.3 229.1,142.6 
	231.5,141.3 232.1,134.7 232.1,119.9 231.8,116.7 230.7,114.1 228.6,112.7 226.4,112.2 225.6,111.9 226,109.2 240.6,106.4 
	240.9,106.3 241.1,106.2 241.4,106.2 242,106.9 242.3,107.9 241.9,111.2 242,111.6 242.5,111.3 244.9,109.3 248.1,107.5 
	251.5,106.3 255,105.9 "/>
<polygon points="301.2,105.9 305.3,106.3 309.1,107.4 312.6,109.2 315.8,111.8 318.4,115 320.3,118.4 321.4,122.2 321.8,126.2 
	321.4,130.3 320.3,134.1 318.5,137.5 315.9,140.7 312.7,143.3 309.2,145.2 305.4,146.3 301.3,146.7 297.1,146.3 293.3,145.2 
	289.8,143.3 286.7,140.7 284,137.5 282.2,134.1 281,130.3 280.7,126.2 281,122.1 282.1,118.3 284,114.9 286.6,111.8 289.8,109.2 
	293.2,107.4 297,106.3 301.2,105.9 "/>
<polygon points="300,110.2 296.2,111.2 293.4,114.3 291.6,118.8 291,124.1 291.8,131 294,136.9 297.5,141 302.2,142.4 306,141.4 
	308.9,138.2 310.7,133.7 311.3,128.4 311,123.9 310.1,119.7 308.5,115.9 306.3,112.9 303.4,110.8 300,110.2 "/>
</svg>
