<?xml version="1.0" encoding="utf-8"?>
<!-- Generator: Adobe Illustrator 23.1.1, SVG Export Plug-In . SVG Version: 6.00 Build 0)  -->
<svg version="1.1" xmlns="http://www.w3.org/2000/svg" xmlns:xlink="http://www.w3.org/1999/xlink" x="0px" y="0px"
	 viewBox="0 0 227.5 241.5" style="enable-background:new 0 0 227.5 241.5;" xml:space="preserve">
<style type="text/css">
	.st0{opacity:0.3;}
	.st1{clip-path:url(#SVGID_1_);}
	.st2{fill:#9092C8;}
	.st3{fill:#404898;}
	.st4{fill:#4856A2;}
</style>
<g id="Layer_1">
</g>
<g id="Tappa_1">
</g>
<g id="transformare">
</g>
<g id="Luoghi">
</g>
<g id="Isolation_Mode">
</g>
<g id="elenchi">
	<g class="st0">
		<defs>
			<rect id="SVGID_4_" class="st0" width="227.5" height="241.5"/>
		</defs>
		<clipPath id="SVGID_1_">
			<use xlink:href="#SVGID_4_"  style="overflow:visible;"/>
		</clipPath>
		<g class="st1">
			<path class="st2" d="M33.4,9c7.5,5.7,9,16.5,3.2,24.1s-16.5,9-24.1,3.2s-9-16.5-3.2-24.1C12.6,8,17.7,5.5,23,5.5v5.7
				c-6.4,0-11.5,5.1-11.5,11.5S16.7,34.2,23,34.2S34.5,29,34.5,22.7c0-3.6-1.7-7-4.5-9.1L33.4,9z"/>
			<path class="st2" d="M222.4,20.5c10.7,6.8,13.9,20.9,7.1,31.6s-20.9,13.9-31.6,7.1c-10.7-6.8-13.9-20.9-7.1-31.6
				c4.2-6.6,11.5-10.6,19.4-10.6v5.7c-9.5,0-17.3,7.7-17.3,17.3s7.7,17.3,17.3,17.3s17.3-7.7,17.3-17.3c0-5.9-3-11.4-8-14.6
				L222.4,20.5z"/>
			<path class="st2" d="M74.1,33.2c7.4,5.9,8.7,16.7,2.8,24.2C71,64.8,60.1,66,52.7,60.1S44,43.4,50,36c3.3-4.1,8.2-6.5,13.5-6.5
				v5.7c-6.4,0-11.5,5.2-11.5,11.5S57,58.2,63.4,58.2S74.9,53,74.9,46.7c0-3.5-1.6-6.8-4.4-9L74.1,33.2z"/>
			<path class="st2" d="M61.9,144.9c8.1,2.1,13,10.4,10.9,18.5c-2.1,8.1-10.4,13-18.5,10.9s-13-10.4-10.9-18.5
				c1.7-6.7,7.8-11.4,14.7-11.4v5.7c-5.3,0-9.5,4.3-9.5,9.5s4.3,9.5,9.5,9.5s9.5-4.3,9.5-9.5c0-4.4-2.9-8.2-7.2-9.2L61.9,144.9z"/>
			<path class="st2" d="M15.7,148.6c8.6,3.9,12.4,14.1,8.5,22.7c-3.9,8.6-14.1,12.4-22.7,8.5c-8.6-3.9-12.4-14.1-8.5-22.7
				c2.8-6.1,8.9-10,15.6-10v5.7c-6.3,0-11.5,5.1-11.5,11.5c0,6.3,5.1,11.5,11.5,11.5S20,170.6,20,164.2c0-4.5-2.6-8.6-6.7-10.5
				L15.7,148.6z"/>
			<path class="st2" d="M41.6,188.8c8.1,2.1,13.1,10.4,11,18.5s-10.4,13.1-18.5,11c-8.1-2.1-13.1-10.4-11-18.5
				c1.7-6.7,7.8-11.4,14.8-11.4v5.7c-5.3,0-9.6,4.3-9.6,9.6s4.3,9.6,9.6,9.6s9.6-4.3,9.6-9.6c0-4.4-3-8.2-7.2-9.3L41.6,188.8z"/>
			<path class="st2" d="M198.4,147.3c48.1,12.3,77,61.3,64.7,109.4c-12.3,48.1-61.3,77-109.4,64.7s-77-61.3-64.7-109.4
				c10.2-39.7,46-67.5,87-67.5v5.7c-46.5,0-84.2,37.7-84.2,84.2s37.7,84.2,84.2,84.2s84.2-37.7,84.2-84.2c0-38.4-26-72-63.2-81.5
				L198.4,147.3z"/>
			<path class="st3" d="M23,5.5c3.8,0,7.4,1.2,10.4,3.5L30,13.5c-2-1.5-4.5-2.4-7-2.4V5.5z"/>
			<path class="st3" d="M210.2,16.9c4.3,0,8.6,1.2,12.3,3.6l-3,4.8c-2.8-1.8-6-2.7-9.2-2.7V16.9z"/>
			<path class="st3" d="M63.4,29.5c3.9,0,7.7,1.3,10.7,3.7l-3.5,4.4c-2-1.6-4.6-2.5-7.2-2.5V29.5z"/>
			<path class="st3" d="M8.6,147.1c2.5,0,4.9,0.5,7.1,1.5l-2.3,5.2c-1.5-0.7-3.1-1-4.8-1V147.1z"/>
			<path class="st4" d="M58.1,144.5c1.3,0,2.5,0.2,3.8,0.5l-1.4,5.5c-0.8-0.2-1.6-0.3-2.4-0.3V144.5z"/>
			<path class="st4" d="M37.8,188.4c1.3,0,2.5,0.2,3.8,0.5l-1.4,5.5c-0.8-0.2-1.6-0.3-2.4-0.3V188.4z"/>
			<path class="st4" d="M176.1,144.5c7.5,0,15,0.9,22.3,2.8l-1.4,5.5c-6.8-1.8-13.9-2.6-20.9-2.6V144.5z"/>
		</g>
	</g>
</g>
</svg>
