<?xml version="1.0" encoding="utf-8"?>
<!-- Generator: Adobe Illustrator 23.1.1, SVG Export Plug-In . SVG Version: 6.00 Build 0)  -->
<svg version="1.1" xmlns="http://www.w3.org/2000/svg" xmlns:xlink="http://www.w3.org/1999/xlink" x="0px" y="0px"
	 viewBox="0 0 221.7 132" style="enable-background:new 0 0 221.7 132;" xml:space="preserve">
<style type="text/css">
	.st0{fill:none;stroke:#444444;stroke-width:0.25;stroke-dasharray:1.9,1.9;}
	.st1{fill:none;stroke:#000000;stroke-width:3.021;stroke-miterlimit:10;}
	.st2{fill:none;stroke:#FFA500;stroke-width:3.025;stroke-miterlimit:10;}
	.st3{font-family:'HKGrotesk-RegularLegacy';}
	.st4{font-size:10px;}
	.st5{fill:none;stroke:#FFCC33;stroke-width:3.025;stroke-miterlimit:10;}
	.st6{fill:none;stroke:#CCCCCC;stroke-width:3.731;stroke-miterlimit:10;}
	.st7{fill:none;stroke:#FF9900;stroke-width:3.731;stroke-miterlimit:10;}
	.st8{fill:none;stroke:#000000;stroke-width:3.731;stroke-miterlimit:10;}
	.st9{fill:none;stroke:#FF9900;stroke-width:3;stroke-miterlimit:10;}
	.st10{fill:none;}
</style>
<g id="Layer_1">
</g>
<g id="elenchi_2">
	<g id="Group_299_1_" transform="translate(1.5)">
		<g id="Group-3-2_1_" transform="translate(72.644 1.24)">
			<path id="Path-6-2_1_" class="st0" d="M70.5,2.9H45.8"/>
		</g>
		<g id="Group-3-2_2_" transform="translate(72.644 1.24)">
			<path id="Path-6-2_2_" class="st0" d="M-24.8,2.9h-15.6"/>
		</g>
		<path id="Path_120_1_" class="st1" d="M77.1,48.8"/>
		<path id="Path_121_1_" class="st1" d="M6,35.8"/>
		<path id="Path_122_1_" class="st2" d="M61.1,53.4"/>
		<path id="Path_123_1_" class="st2" d="M6.6,29.1"/>
		<g id="Group_273_1_" transform="translate(26.954 1.24)">
			<g>
				<g id="Group_272_9_">
					<text transform="matrix(1 0 0 1 24.8549 6.482)" class="st3 st4">Elenchi</text>
				</g>
			</g>
		</g>
		<g id="Group_277_1_" transform="translate(17.558 65.531)">
			<g>
				<g id="Group_276_9_">
					<text transform="matrix(1 0 0 1 17.9384 6.4311)" class="st3 st4">Senza elenchi</text>
				</g>
			</g>
		</g>
		<path id="Path_124_1_" class="st5" d="M53.4,29.1"/>
		<path class="st6" d="M23.8,2.1C10.9,2.1,0.5,12.5,0.5,25.5S11,48.8,23.8,48.8s23.3-10.4,23.3-23.3"/>
		<path class="st7" d="M47.2,25.5c0-12.9-10.4-23.3-23.3-23.3"/>
		<line id="Line_132_1_" class="st0" x1="40.6" y1="41.6" x2="40.6" y2="63.6"/>
		<line id="Line_133_1_" class="st0" x1="91.3" y1="40.9" x2="91.3" y2="63.6"/>
		<path class="st6" d="M109.1,2.1c-12.9,0-23.3,10.4-23.3,23.3s10.4,23.3,23.3,23.3s23.3-10.4,23.3-23.3"/>
		<path class="st8" d="M125.7,9.2c-4.2-4.3-10.1-7.1-16.7-7.1"/>
		<path class="st9" d="M78.8,42.8"/>
		<path class="st6" d="M132.4,25.5c0-6.4-2.5-12.1-6.7-16.3"/>
		<rect x="146.2" y="0.9" class="st10" width="77.6" height="43.8"/>
		<text transform="matrix(1 0 0 1 146.1967 7.7894)"><tspan x="0" y="0" class="st3 st4">Elenchi con </tspan><tspan x="0" y="12" class="st3 st4">presenza menore </tspan><tspan x="0" y="24" class="st3 st4">al 5% del testo</tspan></text>
	</g>
</g>
<g id="Isolation_Mode">
	<rect class="st10" width="221.7" height="132"/>
</g>
</svg>
