<?xml version="1.0" encoding="utf-8"?>
<!-- Generator: Adobe Illustrator 23.1.1, SVG Export Plug-In . SVG Version: 6.00 Build 0)  -->
<svg version="1.1" xmlns="http://www.w3.org/2000/svg" xmlns:xlink="http://www.w3.org/1999/xlink" x="0px" y="0px"
	 viewBox="0 0 184.9 132" style="enable-background:new 0 0 184.9 132;" xml:space="preserve">
<style type="text/css">
	.st0{fill:none;stroke:#5151FC;stroke-width:3.7315;stroke-miterlimit:10;}
	.st1{fill:none;stroke:#00C19C;stroke-width:3.7315;stroke-miterlimit:10;}
	.st2{fill:none;stroke:#FF6C39;stroke-width:3.7315;stroke-miterlimit:10;}
	.st3{fill:none;stroke:#BBBBFF;stroke-width:3.7315;stroke-miterlimit:10;}
	.st4{fill:none;stroke:#FFA500;stroke-width:3.7315;stroke-miterlimit:10;}
	.st5{fill:none;}
	.st6{font-family:'HKGrotesk-Regular';}
	.st7{font-size:10px;}
</style>
<g id="Layer_1">
</g>
<g id="spazio_livello_2">
	<g id="Group_285_1_" transform="translate(-764.475 -614.489)">
		<g id="Group_256_1_" transform="translate(761.515 609.443)">
			<path id="Path_97_1_" class="st0" d="M43.1,50.7c8.3-6.1,11.9-16.9,8.7-26.7"/>
			<path id="Path_100_1_" class="st1" d="M6.3,24C3.1,33.8,6.7,44.6,15,50.7"/>
			<path id="Path_101_1_" class="st2" d="M14.9,50.7c8.3,6.1,19.8,6.1,28.1,0"/>
			<path id="Path_102_1_" class="st3" d="M51.9,24C48.6,14.2,39.4,7.4,29.1,7.4"/>
			<path id="Path_103_1_" class="st4" d="M29.1,7.4C18.8,7.4,9.6,14.2,6.3,24"/>
		</g>
		<rect x="825.6" y="617.3" class="st5" width="125.4" height="48.7"/>
		<text transform="matrix(1 0 0 1 825.6352 624.1895)"><tspan x="0" y="0" class="st6 st7">Proporzione dei tipi di luoghi </tspan><tspan x="0" y="12" class="st6 st7">che sono contenitori di altri </tspan><tspan x="0" y="24" class="st6 st7">luoghi in primo livello.</tspan></text>
	</g>
	<rect class="st5" width="184.9" height="132"/>
</g>
</svg>
