<?xml version="1.0" encoding="utf-8"?>
<!-- Generator: Adobe Illustrator 23.1.1, SVG Export Plug-In . SVG Version: 6.00 Build 0)  -->
<svg version="1.1" id="Layer_1" xmlns="http://www.w3.org/2000/svg" xmlns:xlink="http://www.w3.org/1999/xlink" x="0px" y="0px"
	 viewBox="0 0 295.8 81.5" style="enable-background:new 0 0 295.8 81.5;" xml:space="preserve">
<style type="text/css">
	.st0{font-family:'HKGrotesk-Regular';}
	.st1{font-size:8px;}
	.st2{fill:#00C19C;stroke:#FBFBFC;stroke-width:0.25;stroke-linejoin:round;}
	.st3{fill:#8AE297;stroke:#FBFBFC;stroke-width:0.5;}
	.st4{fill:#5151FC;stroke:#FBFBFC;stroke-width:0.25;stroke-linejoin:round;}
	.st5{fill:#BBBBFF;}
	.st6{fill:#97DADD;stroke:#FBFBFC;stroke-width:0.25;stroke-linejoin:round;}
	.st7{fill:#FFA500;stroke:#FBFBFC;stroke-width:0.25;stroke-linejoin:round;}
	.st8{fill:#FFD93B;stroke:#FBFBFC;stroke-width:0.25;stroke-linejoin:round;}
	.st9{fill:#FF6C39;stroke:#FBFBFC;stroke-width:0.25;stroke-linejoin:round;}
	.st10{fill:#00BFD3;stroke:#FBFBFC;stroke-width:0.25;stroke-linejoin:round;}
	.st11{fill:none;stroke:#1A1A1A;stroke-width:0.25;stroke-linejoin:round;}
	.st12{fill:#C6CACF;stroke:#FBFBFC;stroke-width:0.25;stroke-linejoin:round;}
	.st13{fill:#FF3366;}
</style>
<title>codice-colori-large</title>
<desc>Created with Sketch.</desc>
<g id="Group_228" transform="translate(-539 -606.375)">
	<text transform="matrix(1 0 0 1 558.413 616.4368)" class="st0 st1">Ultimo viene il corvo</text>
	<circle id="Oval" class="st2" cx="545.7" cy="613.1" r="6.2"/>
	<text transform="matrix(1 0 0 1 558.412 639.4369)" class="st0 st1">L’entrata in guerra</text>
	<circle id="Oval-2" class="st3" cx="545.7" cy="635.1" r="6.2"/>
	<text transform="matrix(1 0 0 1 558.412 662.4369)" class="st0 st1">I racconti</text>
	<circle id="Oval-3" class="st4" cx="545.7" cy="658.1" r="6.2"/>
	<text transform="matrix(1 0 0 1 558.412 684.4369)" class="st0 st1">Marcovaldo</text>
	<circle id="Oval-4" class="st5" cx="545.2" cy="680.6" r="6.2"/>
	<text transform="matrix(1 0 0 1 661.419 616.4368)" class="st0 st1">Le Cosmicomiche</text>
	<circle id="Oval-5" class="st6" cx="648.2" cy="613.1" r="6.2"/>
	<text transform="matrix(1 0 0 1 661.419 662.4369)" class="st0 st1">La memoria del mondo</text>
	<circle id="Oval-6" class="st7" cx="648.2" cy="658.1" r="6.2"/>
	<text transform="matrix(1 0 0 1 661.419 684.4369)" class="st0 st1">Gli amori difficili</text>
	<circle id="Oval-7" class="st8" cx="648.2" cy="681.1" r="6.2"/>
	<text transform="matrix(1 0 0 1 773 616.4368)" class="st0 st1">Palomar</text>
	<circle id="Oval-8" class="st9" cx="758.7" cy="613.1" r="6.2"/>
	<text transform="matrix(1 0 0 1 773 634.4368)" class="st0 st1">Le Cosmicomiche </text>
	<text transform="matrix(1 0 0 1 773 644.4369)" class="st0 st1">vecchie e nuove</text>
	<circle id="Oval-9" class="st10" cx="758.7" cy="635.1" r="6.2"/>
	<text transform="matrix(1 0 0 1 773 657.4369)" class="st0 st1">Solo in riviste </text>
	<text transform="matrix(1 0 0 1 773 667.4369)" class="st0 st1">o quotidiano</text>
	<circle id="Oval-10" class="st11" cx="758.7" cy="658.1" r="6.2"/>
	<text transform="matrix(1 0 0 1 773 684.4369)" class="st0 st1">Altri volumi</text>
	<circle id="Oval-Copy" class="st12" cx="758.7" cy="681.1" r="6.2"/>
	<text transform="matrix(1 0 0 1 661.419 639.4369)" class="st0 st1">Ti con Zero</text>
	<circle id="Oval-11" class="st13" cx="648.2" cy="634.6" r="6.2"/>
</g>
</svg>
