<svg xmlns="http://www.w3.org/2000/svg" xmlns:xlink="http://www.w3.org/1999/xlink" width="250" height="151" viewBox="0 0 250 151">
  <defs>
    <clipPath id="clip-path">
      <rect id="Rettangolo_19225" data-name="Rettangolo 19225" width="220" height="170" transform="translate(0 0)" fill="none"/>
    </clipPath>
    <clipPath id="clip-zoom-02">
      <rect width="250" height="151"/>
    </clipPath>
  </defs>
  <g id="zoom-02" clip-path="url(#clip-zoom-02)">
    <g id="axis">
      <path id="Tracciato_148113" data-name="Tracciato 148113" d="M167.622.791h0Z" transform="translate(85.889 131.314)"/>
      <line id="Linea_7866" data-name="Linea 7866" x1="4.744" transform="translate(24.5 115.897)" fill="none" stroke="#000" stroke-width="0.5"/>
      <line id="Linea_7867" data-name="Linea 7867" x1="4.744" transform="translate(24.5 100.084)" fill="none" stroke="#000" stroke-width="0.5"/>
      <line id="Linea_7868" data-name="Linea 7868" x1="4.744" transform="translate(24.5 84.271)" fill="none" stroke="#000" stroke-width="0.5"/>
      <line id="Linea_7869" data-name="Linea 7869" x1="4.744" transform="translate(24.5 68.459)" fill="none" stroke="#000" stroke-width="0.5"/>
      <line id="Linea_7870" data-name="Linea 7870" x1="4.744" transform="translate(24.5 52.646)" fill="none" stroke="#000" stroke-width="0.5"/>
      <line id="Linea_7871" data-name="Linea 7871" x1="4.744" transform="translate(24.5 36.833)" fill="none" stroke="#000" stroke-width="0.5"/>
      <line id="Linea_7872" data-name="Linea 7872" x1="4.744" transform="translate(24.5 21.021)" fill="none" stroke="#000" stroke-width="0.5"/>
      <text id="_0.00" data-name="0.00" transform="translate(0 131.891)" font-size="10" font-family="HKGrotesk-Regular, HK Grotesk"><tspan x="0" y="0">0.00</tspan></text>
      <text id="_0.10" data-name="0.10" transform="translate(0 100.265)" font-size="10" font-family="HKGrotesk-Regular, HK Grotesk"><tspan x="0" y="0">0.10</tspan></text>
      <text id="_0.20" data-name="0.20" transform="translate(0 68.64)" font-size="10" font-family="HKGrotesk-Regular, HK Grotesk"><tspan x="0" y="0">0.20</tspan></text>
      <text id="_0.30" data-name="0.30" transform="translate(0 37.014)" font-size="10" font-family="HKGrotesk-Regular, HK Grotesk"><tspan x="0" y="0">0.30</tspan></text>
      <path id="Tracciato_148114" data-name="Tracciato 148114" d="M23.17,25.266H28.31l-.332,110.554H249.164" transform="translate(1.33 -4.246)" fill="none" stroke="#000" stroke-width="1"/>
      <g id="Raggruppa_24070" data-name="Raggruppa 24070" transform="translate(-20.198 -20.937)">
        <g id="Layer_1" data-name="Layer 1" transform="translate(50.198 7.937)">
          <g id="Raggruppa_24071" data-name="Raggruppa 24071">
            <g id="Raggruppa_24070-2" data-name="Raggruppa 24070" clip-path="url(#clip-path)">
              <line id="Linea_7873" data-name="Linea 7873" y2="5.461" transform="translate(-329.865 144.168)" fill="none" stroke="#000" stroke-width="0.708"/>
              <line id="Linea_7874" data-name="Linea 7874" y2="5.461" transform="translate(-269.853 144.168)" fill="none" stroke="#000" stroke-width="0.708"/>
              <text id="_1952" data-name="1952" transform="translate(-279.173 162.679)" font-size="8" font-family="HKGrotesk-Regular, HK Grotesk"><tspan x="0" y="0">1952</tspan></text>
              <line id="Linea_7875" data-name="Linea 7875" y2="5.461" transform="translate(-209.842 144.168)" fill="none" stroke="#000" stroke-width="0.708"/>
              <text id="_1954" data-name="1954" transform="translate(-219.163 162.679)" font-size="8" font-family="HKGrotesk-Regular, HK Grotesk"><tspan x="0" y="0">1954</tspan></text>
              <line id="Linea_7876" data-name="Linea 7876" y2="5.461" transform="translate(-149.831 144.168)" fill="none" stroke="#000" stroke-width="0.708"/>
              <text id="_1956" data-name="1956" transform="translate(-159.151 162.679)" font-size="8" font-family="HKGrotesk-Regular, HK Grotesk"><tspan x="0" y="0">1956</tspan></text>
              <line id="Linea_7877" data-name="Linea 7877" y2="5.461" transform="translate(-89.819 144.168)" fill="none" stroke="#000" stroke-width="0.708"/>
              <text id="_1958" data-name="1958" transform="translate(-99.14 162.679)" font-size="8" font-family="HKGrotesk-Regular, HK Grotesk"><tspan x="0" y="0">1958</tspan></text>
              <line id="Linea_7878" data-name="Linea 7878" y2="5.461" transform="translate(30.204 144.168)" fill="none" stroke="#000" stroke-width="0.708"/>
              <text id="_1962" data-name="1962" transform="translate(18.883 162)" font-size="10" font-family="HKGrotesk-Regular, HK Grotesk"><tspan x="0" y="0">1962</tspan></text>
              <line id="Linea_7879" data-name="Linea 7879" y2="5.461" transform="translate(90.215 144.168)" fill="none" stroke="#000" stroke-width="0.708"/>
              <text id="_1964" data-name="1964" transform="translate(78.895 162)" font-size="10" font-family="HKGrotesk-Regular, HK Grotesk"><tspan x="0" y="0">1964</tspan></text>
              <line id="Linea_7880" data-name="Linea 7880" y2="5.461" transform="translate(150.226 144.168)" fill="none" stroke="#000" stroke-width="0.708"/>
              <line id="Linea_7881" data-name="Linea 7881" y2="5.461" transform="translate(209.601 144.168)" fill="none" stroke="#000" stroke-width="0.708"/>
              <text id="_1966" data-name="1966" transform="translate(138.906 162)" font-size="10" font-family="HKGrotesk-Regular, HK Grotesk"><tspan x="0" y="0">1966</tspan></text>
              <text id="_1965" data-name="1965" transform="translate(112.036 162)" fill="#5151fc" font-size="10" font-family="HKGrotesk-Italic, HK Grotesk" font-style="italic"><tspan x="0" y="0">1965</tspan></text>
              <text id="_1984" data-name="1984" transform="translate(318.805 151.443)" font-size="5" font-family="HKGrotesk-Regular, HK Grotesk"><tspan x="0" y="0">1984</tspan></text>
              <path id="Tracciato_148115" data-name="Tracciato 148115" d="M720.956,152.1h.741v.91h-.838v-.455h.419v.455h-.322Zm-450.923,0H720.118v.91H270.032Zm-2.513,0h.838v.91h-.838Zm-2.514,0h.838v.91h-.838Zm-2.513,0h.838v.91h-.838Zm-2.514,0h.838v.91h-.838Zm-2.513,0h.838v.91h-.838Zm-2.514,0h.838v.91h-.838Zm-2.513,0h.838v.91h-.838Zm-2.514,0h.838v.91h-.838Zm-2.513,0h.838v.91h-.838Zm-2.514,0h.838v.91H244.9Zm-2.514,0h.839v.91h-.839Zm-2.513,0h.838v.91h-.838Zm-2.514,0h.839v.91h-.839Zm-2.513,0h.838v.91h-.838Zm-2.514,0h.839v.91h-.839Zm-2.513,0h.838v.91h-.838Zm-2.514,0h.838v.91H227.3Zm-2.513,0h.838v.91h-.838Zm-2.514,0h.838v.91h-.838Zm-224.283,0h.838v.91h-.838Zm-2.513,0h.838v.91h-.838Zm-2.514,0H-6.2v.91h-.838Zm-2.513,0h.838v.91h-.838Zm-2.514,0h.838v.91h-.838Zm-2.513,0h.838v.91h-.838Zm-2.514,0h.838v.91h-.838Zm-2.513,0h.838v.91H-19.6Zm-2.514,0h.838v.91h-.838Zm-2.513,0h.838v.91h-.838Zm-2.514,0h.838v.91h-.838Zm-2.514,0h.839v.91h-.839Zm-2.513,0h.838v.91h-.838Zm-2.514,0h.839v.91h-.839Zm-2.513,0h.838v.91h-.838Zm-2.514,0h.838v.91h-.838Zm-2.513,0h.838v.91h-.838Zm-2.514,0h.838v.91h-.838Zm-2.513,0h.838v.91h-.838Zm-2.514,0h.838v.91h-.838Zm-2.513,0h.838v.91h-.838Zm-2.514,0h.838v.91h-.838Zm-2.513,0h.838v.91H-57.3Zm-451.762,0H-58.978v.91H-509.064Zm-2.513,0h.838v.91h-.838Zm-2.514,0h.838v.91h-.838Zm-2.513,0h.838v.91h-.838Zm-2.514,0h.838v.91h-.838Zm-2.513,0h.838v.91h-.838Zm-2.514,0h.838v.91h-.838Zm-2.513,0h.838v.91h-.838Zm-2.514,0h.838v.91h-.838Zm-2.514,0h.839v.91h-.839Zm-2.513,0h.838v.91h-.838Zm-2.514,0h.839v.91h-.839Zm-2.513,0h.838v.91h-.838Zm-2.514,0h.839v.91h-.839Zm-2.513,0h.838v.91h-.838Zm-2.514,0h.838v.91h-.838Zm-2.513,0h.838v.91h-.838Zm-2.514,0h.838v.91h-.838Zm-2.513,0h.838v.91h-.838Zm-2.514,0h.838v.91h-.838Zm-2.513,0h.838v.91h-.838Zm-2.514,0h.838v.91h-.838Zm-2.513,0h.838v.91h-.838Zm-2.514,0h.838v.91h-.838Zm-2.514.91v-.91h.839v.91h-.419v-.455h.419v.455Z" transform="translate(-0.943 -7.937)"/>
              <line id="Linea_7882" data-name="Linea 7882" y2="5.461" transform="translate(-569.911 144.168)" fill="none" stroke="#000" stroke-width="0.708"/>
              <text id="_1942" data-name="1942" transform="translate(-579.231 162.679)" font-size="8" font-family="HKGrotesk-Regular, HK Grotesk"><tspan x="0" y="0">1942</tspan></text>
              <line id="Linea_7883" data-name="Linea 7883" y2="5.461" transform="translate(-509.899 144.168)" fill="none" stroke="#000" stroke-width="0.708"/>
              <text id="_1944" data-name="1944" transform="translate(-519.219 162.679)" font-size="8" font-family="HKGrotesk-Regular, HK Grotesk"><tspan x="0" y="0">1944</tspan></text>
              <line id="Linea_7884" data-name="Linea 7884" y2="5.461" transform="translate(-449.888 144.168)" fill="none" stroke="#000" stroke-width="0.708"/>
              <text id="_1946" data-name="1946" transform="translate(-459.208 162.679)" font-size="8" font-family="HKGrotesk-Regular, HK Grotesk"><tspan x="0" y="0">1946</tspan></text>
              <line id="Linea_7885" data-name="Linea 7885" y2="5.461" transform="translate(-389.876 144.168)" fill="none" stroke="#000" stroke-width="0.708"/>
              <text id="_1948" data-name="1948" transform="translate(-399.196 162.679)" font-size="8" font-family="HKGrotesk-Regular, HK Grotesk"><tspan x="0" y="0">1948</tspan></text>
              <text id="_1950" data-name="1950" transform="translate(-339.185 162.679)" font-size="8" font-family="HKGrotesk-Regular, HK Grotesk"><tspan x="0" y="0">1950</tspan></text>
              <path id="Tracciato_148116" data-name="Tracciato 148116" d="M-569.387,152.1h60.012c15,0,15-82.319,30.006-82.319s15,70.689,30.006,70.689,15,5.836,30.006,5.836,15-7.184,30.006-7.184,15,2.281,30.006,2.281,15,1.419,30.006,1.419,15-29.847,30.006-29.847,15,25.574,30.006,25.574,15-.606,30.006-.606,15,2.052,30.006,2.052,15,3.315,30.006,3.315,15,8.79,30.007,8.79,15-8.654,30.006-8.654,15-11.8,30.006-11.8,15,4.08,30.006,4.08,15,16.374,30.006,16.374H.722c15,0,15-14.084,30.006-14.084s15,1.283,30.006,1.283,15,4.868,30.006,4.868,15,.1,30.006.1,15-4.391,30.006-4.391,15,.713,30.006.713,15,2.127,30.007,2.127,15,5.069,30.006,5.069,15,4.315,30.006,4.315,15-17.771,30.006-17.771,15-.788,30.006-.788,15-5.026,30.006-5.026,15,13.851,30.006,13.851,15-13.088,30.006-13.088,15,15.266,30.006,15.266,15-3.71,30.006-3.71,15,6.675,30.006,6.675,15-13.245,30.006-13.245,15,6.112,30.006,6.112,15,3.812,30.007,3.812,15-4.31,30.006-4.31,15-3.15,30.006-3.15,15,4.853,30.006,4.853,15,10.519,30.006,10.519H-569.387Z" transform="translate(-0.943 -7.937)" fill="#646464" opacity="0.1"/>
              <path id="Tracciato_148117" data-name="Tracciato 148117" d="M-569.387,152.1h60.012c15,0,15-82.319,30.006-82.319s15,70.689,30.006,70.689,15,5.836,30.006,5.836,15-7.184,30.006-7.184,15,2.281,30.006,2.281,15,1.419,30.006,1.419,15-29.847,30.006-29.847,15,25.574,30.006,25.574,15-.606,30.006-.606,15,2.052,30.006,2.052,15,3.315,30.006,3.315,15,8.79,30.007,8.79,15-8.654,30.006-8.654,15-11.8,30.006-11.8,15,4.08,30.006,4.08,15,16.374,30.006,16.374H.722c15,0,15-14.084,30.006-14.084s15,1.283,30.006,1.283,15,4.868,30.006,4.868,15,.1,30.006.1,15-4.391,30.006-4.391,15,.713,30.006.713,15,2.127,30.007,2.127,15,5.069,30.006,5.069,15,4.315,30.006,4.315,15-17.771,30.006-17.771,15-.788,30.006-.788,15-5.026,30.006-5.026,15,13.851,30.006,13.851,15-13.088,30.006-13.088,15,15.266,30.006,15.266,15-3.71,30.006-3.71,15,6.675,30.006,6.675,15-13.245,30.006-13.245,15,6.112,30.006,6.112,15,3.812,30.007,3.812,15-4.31,30.006-4.31,15-3.15,30.006-3.15,15,4.853,30.006,4.853,15,10.519,30.006,10.519H-569.387Z" transform="translate(-0.943 -7.937)" fill="none" stroke="#000" stroke-width="0.455" opacity="0.1"/>
              <path id="Tracciato_148118" data-name="Tracciato 148118" d="M-569.387,152.1c45.009-23.638,45.009,0,60.012,0s15-115.524,30.006-115.524,15,93.607,30.006,93.607,15,9.3,30.006,9.3,15-7.3,30.006-7.3,15-1.058,30.006-1.058,15,7.236,30.006,7.236,15-35.556,30.006-35.556,15,29.469,30.006,29.469,15-2.065,30.006-2.065,15,4.109,30.006,4.109,15-2.188,30.006-2.188,15-6.607,30.007-6.607,15,5.032,30.006,5.032,15-14,30.006-14,15,1.9,30.006,1.9,15,33.645,30.006,33.645H.722c15,0,15-43.078,30.006-43.078s15,18.355,30.006,18.355,15,1.951,30.006,1.951,15-5.507,30.006-5.507,15-13.712,30.006-13.712,15,21.371,30.006,21.371,15-2.612,30.007-2.612,15,8.194,30.006,8.194,15,15.038,30.006,15.038,15-36.662,30.006-36.662,15-8.771,30.006-8.771,15,7.345,30.006,7.345,15,20.4,30.006,20.4,15-9.618,30.006-9.618,15,3.041,30.006,3.041,15-4.345,30.006-4.345,15,3.24,30.006,3.24,15-4.327,30.006-4.327,15,9.1,30.006,9.1,15-3.334,30.007-3.334,15-1.534,30.006-1.534,15-9.544,30.006-9.544,15,7.3,30.006,7.3,15,27.707,30.006,27.707C675.85,136.822,675.85,130.2,660.848,130.2s-15,.485-30.006.485-15,4.055-30.006,4.055-15,5.058-30.007,5.058-15-9.442-30.006-9.442-15,4.367-30.006,4.367-15-7.334-30.006-7.334-15,11.774-30.006,11.774-15-12.285-30.006-12.285S405.8,139.9,390.8,139.9s-15-17.936-30.006-17.936-15-1.174-30.006-1.174-15,9.638-30.006,9.638-15,21.678-30.006,21.678-15-10.175-30.006-10.175-15-.973-30.006-.973-15-3.963-30.007-3.963-15,.09-30.006.09-15-5.919-30.006-5.919-15,10.727-30.006,10.727-15-8.179-30.006-8.179-15-7.95-30.006-7.95S15.724,152.1.722,152.1H-29.284c-15,0-15-24.694-30.006-24.694s-15,1.228-30.006,1.228-15,8.2-30.006,8.2-15,15.266-30.006,15.266-15-9.468-30.007-9.468-15-4.364-30.006-4.364-15-4.772-30.006-4.772-15,2.726-30.006,2.726-15-26.134-30.006-26.134-15,30.281-30.006,30.281-15-2.112-30.006-2.112-15-.835-30.006-.835-15,4.571-30.006,4.571-15-7.11-30.006-7.11-15-73.871-30.006-73.871-15,91.088-30.006,91.088-15-3.223-30.006-3.223S-554.384,152.1-569.387,152.1Z" transform="translate(-0.943 -7.937)" fill="#aeaeae" opacity="0.1"/>
              <path id="Tracciato_148119" data-name="Tracciato 148119" d="M-569.387,152.1c45.009-23.638,45.009,0,60.012,0s15-115.524,30.006-115.524,15,93.607,30.006,93.607,15,9.3,30.006,9.3,15-7.3,30.006-7.3,15-1.058,30.006-1.058,15,7.236,30.006,7.236,15-35.556,30.006-35.556,15,29.469,30.006,29.469,15-2.065,30.006-2.065,15,4.109,30.006,4.109,15-2.188,30.006-2.188,15-6.607,30.007-6.607,15,5.032,30.006,5.032,15-14,30.006-14,15,1.9,30.006,1.9,15,33.645,30.006,33.645H.722c15,0,15-43.078,30.006-43.078s15,18.355,30.006,18.355,15,1.951,30.006,1.951,15-5.507,30.006-5.507,15-13.712,30.006-13.712,15,21.371,30.006,21.371,15-2.612,30.007-2.612,15,8.194,30.006,8.194,15,15.038,30.006,15.038,15-36.662,30.006-36.662,15-8.771,30.006-8.771,15,7.345,30.006,7.345,15,20.4,30.006,20.4,15-9.618,30.006-9.618,15,3.041,30.006,3.041,15-4.345,30.006-4.345,15,3.24,30.006,3.24,15-4.327,30.006-4.327,15,9.1,30.006,9.1,15-3.334,30.007-3.334,15-1.534,30.006-1.534,15-9.544,30.006-9.544,15,7.3,30.006,7.3,15,27.707,30.006,27.707C675.85,136.822,675.85,130.2,660.848,130.2s-15,.485-30.006.485-15,4.055-30.006,4.055-15,5.058-30.007,5.058-15-9.442-30.006-9.442-15,4.367-30.006,4.367-15-7.334-30.006-7.334-15,11.774-30.006,11.774-15-12.285-30.006-12.285S405.8,139.9,390.8,139.9s-15-17.936-30.006-17.936-15-1.174-30.006-1.174-15,9.638-30.006,9.638-15,21.678-30.006,21.678-15-10.175-30.006-10.175-15-.973-30.006-.973-15-3.963-30.007-3.963-15,.09-30.006.09-15-5.919-30.006-5.919-15,10.727-30.006,10.727-15-8.179-30.006-8.179-15-7.95-30.006-7.95S15.724,152.1.722,152.1H-29.284c-15,0-15-24.694-30.006-24.694s-15,1.228-30.006,1.228-15,8.2-30.006,8.2-15,15.266-30.006,15.266-15-9.468-30.007-9.468-15-4.364-30.006-4.364-15-4.772-30.006-4.772-15,2.726-30.006,2.726-15-26.134-30.006-26.134-15,30.281-30.006,30.281-15-2.112-30.006-2.112-15-.835-30.006-.835-15,4.571-30.006,4.571-15-7.11-30.006-7.11-15-73.871-30.006-73.871-15,91.088-30.006,91.088-15-3.223-30.006-3.223S-554.384,152.1-569.387,152.1Z" transform="translate(-0.943 -7.937)" fill="none" stroke="#000" stroke-width="0.455" opacity="0.1"/>
              <path id="Tracciato_148120" data-name="Tracciato 148120" d="M-569.387,152.1h60.012c15,0,15-88.208,30.006-88.208s15,73.391,30.006,73.391,15,5.963,30.006,5.963,15-4.514,30.006-4.514,15,1.162,30.006,1.162,15,1.34,30.006,1.34,15-31.146,30.006-31.146,15,26.887,30.006,26.887,15-1.449,30.006-1.449,15,4.469,30.006,4.469,15,3.315,30.006,3.315,15,8.79,30.007,8.79,15-13.426,30.006-13.426,15-8.7,30.006-8.7,15,.49,30.006.49,15,21.637,30.006,21.637H.722c15,0,15-24.293,30.006-24.293s15,9.211,30.006,9.211,15,7.149,30.006,7.149,15-4.346,30.006-4.346,15,.055,30.006.055,15-.777,30.006-.777,15,2.43,30.007,2.43,15,2.768,30.006,2.768,15,7.8,30.006,7.8,15-19.419,30.006-19.419,15-6.36,30.006-6.36,15-1.392,30.006-1.392,15,16.127,30.006,16.127,15-12.593,30.006-12.593,15,15.094,30.006,15.094,15-13.314,30.006-13.314,15,9.476,30.006,9.476,15-6.51,30.006-6.51,15,7.167,30.006,7.167,15-.866,30.007-.866,15-4.7,30.006-4.7,15-1.579,30.006-1.579,15,6.762,30.006,6.762,15,12.11,30.006,12.11c-45.009-10.519-45.009-15.372-60.011-15.372s-15,3.15-30.006,3.15-15,4.31-30.006,4.31-15-3.812-30.007-3.812-15-6.112-30.006-6.112-15,13.245-30.006,13.245-15-6.675-30.006-6.675-15,3.71-30.006,3.71-15-15.266-30.006-15.266-15,13.088-30.006,13.088-15-13.851-30.006-13.851-15,5.026-30.006,5.026-15,.788-30.006.788-15,17.771-30.006,17.771-15-4.315-30.006-4.315-15-5.069-30.006-5.069-15-2.127-30.007-2.127-15-.713-30.006-.713-15,4.391-30.006,4.391-15-.1-30.006-.1-15-4.868-30.006-4.868-15-1.283-30.006-1.283S15.724,152.1.722,152.1H-29.284c-15,0-15-16.374-30.006-16.374s-15-4.08-30.006-4.08-15,11.8-30.006,11.8-15,8.654-30.006,8.654-15-8.79-30.007-8.79-15-3.315-30.006-3.315-15-2.052-30.006-2.052-15,.606-30.006.606-15-25.574-30.006-25.574-15,29.847-30.006,29.847-15-1.419-30.006-1.419-15-2.281-30.006-2.281-15,7.184-30.006,7.184-15-5.836-30.006-5.836-15-70.689-30.006-70.689-15,82.319-30.006,82.319h-60.012Z" transform="translate(-0.943 -7.937)" fill="#767676" opacity="0.1"/>
              <path id="Tracciato_148121" data-name="Tracciato 148121" d="M-569.387,152.1c45.009-3.223,45.009,0,60.012,0s15-91.088,30.006-91.088,15,73.871,30.006,73.871,15,7.11,30.006,7.11,15-4.571,30.006-4.571,15,.835,30.006.835,15,2.112,30.006,2.112,15-30.281,30.006-30.281,15,26.134,30.006,26.134,15-2.726,30.006-2.726,15,4.772,30.006,4.772,15,4.364,30.006,4.364,15,9.468,30.007,9.468,15-15.266,30.006-15.266,15-8.2,30.006-8.2,15-1.228,30.006-1.228,15,24.694,30.006,24.694H.722c15,0,15-26.342,30.006-26.342s15,7.95,30.006,7.95,15,8.179,30.006,8.179,15-10.727,30.006-10.727,15,5.919,30.006,5.919,15-.09,30.006-.09,15,3.963,30.007,3.963,15,.973,30.006.973,15,10.175,30.006,10.175,15-21.678,30.006-21.678,15-9.638,30.006-9.638,15,1.174,30.006,1.174,15,17.936,30.006,17.936,15-13.025,30.006-13.025,15,12.285,30.006,12.285,15-11.774,30.006-11.774,15,7.334,30.006,7.334,15-4.367,30.006-4.367,15,9.442,30.006,9.442,15-5.058,30.007-5.058,15-4.055,30.006-4.055,15-.485,30.006-.485,15,6.626,30.006,6.626,15,15.283,30.006,15.283c-45.009-12.11-45.009-18.872-60.011-18.872s-15,1.579-30.006,1.579-15,4.7-30.006,4.7-15,.866-30.007.866-15-7.167-30.006-7.167-15,6.51-30.006,6.51-15-9.476-30.006-9.476-15,13.314-30.006,13.314-15-15.094-30.006-15.094-15,12.593-30.006,12.593-15-16.127-30.006-16.127-15,1.392-30.006,1.392-15,6.36-30.006,6.36-15,19.419-30.006,19.419-15-7.8-30.006-7.8-15-2.768-30.006-2.768-15-2.43-30.007-2.43-15,.777-30.006.777-15-.055-30.006-.055-15,4.346-30.006,4.346-15-7.149-30.006-7.149-15-9.211-30.006-9.211S15.724,152.1.722,152.1H-29.284c-15,0-15-21.637-30.006-21.637s-15-.49-30.006-.49-15,8.7-30.006,8.7-15,13.426-30.006,13.426-15-8.79-30.007-8.79-15-3.315-30.006-3.315-15-4.469-30.006-4.469-15,1.449-30.006,1.449-15-26.887-30.006-26.887-15,31.146-30.006,31.146-15-1.34-30.006-1.34-15-1.162-30.006-1.162-15,4.514-30.006,4.514-15-5.963-30.006-5.963-15-73.391-30.006-73.391-15,88.208-30.006,88.208h-60.012Z" transform="translate(-0.943 -7.937)" fill="#00c19c"/>
              <path id="Tracciato_148122" data-name="Tracciato 148122" d="M-569.387,152.1c45.009-3.223,45.009,0,60.012,0s15-91.088,30.006-91.088,15,73.871,30.006,73.871,15,7.11,30.006,7.11,15-4.571,30.006-4.571,15,.835,30.006.835,15,2.112,30.006,2.112,15-30.281,30.006-30.281,15,26.134,30.006,26.134,15-2.726,30.006-2.726,15,4.772,30.006,4.772,15,4.364,30.006,4.364,15,9.468,30.007,9.468,15-15.266,30.006-15.266,15-8.2,30.006-8.2,15-1.228,30.006-1.228,15,24.694,30.006,24.694H.722c15,0,15-26.342,30.006-26.342s15,7.95,30.006,7.95,15,8.179,30.006,8.179,15-10.727,30.006-10.727,15,5.919,30.006,5.919,15-.09,30.006-.09,15,3.963,30.007,3.963,15,.973,30.006.973,15,10.175,30.006,10.175,15-21.678,30.006-21.678,15-9.638,30.006-9.638,15,1.174,30.006,1.174,15,17.936,30.006,17.936,15-13.025,30.006-13.025,15,12.285,30.006,12.285,15-11.774,30.006-11.774,15,7.334,30.006,7.334,15-4.367,30.006-4.367,15,9.442,30.006,9.442,15-5.058,30.007-5.058,15-4.055,30.006-4.055,15-.485,30.006-.485,15,6.626,30.006,6.626,15,15.283,30.006,15.283c-45.009-12.11-45.009-18.872-60.011-18.872s-15,1.579-30.006,1.579-15,4.7-30.006,4.7-15,.866-30.007.866-15-7.167-30.006-7.167-15,6.51-30.006,6.51-15-9.476-30.006-9.476-15,13.314-30.006,13.314-15-15.094-30.006-15.094-15,12.593-30.006,12.593-15-16.127-30.006-16.127-15,1.392-30.006,1.392-15,6.36-30.006,6.36-15,19.419-30.006,19.419-15-7.8-30.006-7.8-15-2.768-30.006-2.768-15-2.43-30.007-2.43-15,.777-30.006.777-15-.055-30.006-.055-15,4.346-30.006,4.346-15-7.149-30.006-7.149-15-9.211-30.006-9.211S15.724,152.1.722,152.1H-29.284c-15,0-15-21.637-30.006-21.637s-15-.49-30.006-.49-15,8.7-30.006,8.7-15,13.426-30.006,13.426-15-8.79-30.007-8.79-15-3.315-30.006-3.315-15-4.469-30.006-4.469-15,1.449-30.006,1.449-15-26.887-30.006-26.887-15,31.146-30.006,31.146-15-1.34-30.006-1.34-15-1.162-30.006-1.162-15,4.514-30.006,4.514-15-5.963-30.006-5.963-15-73.391-30.006-73.391-15,88.208-30.006,88.208h-60.012Z" transform="translate(-0.943 -7.937)" fill="none" stroke="#000" stroke-width="0.455" opacity="0.702"/>
              <line id="Linea_7886" data-name="Linea 7886" x1="5.027" transform="translate(-12.929 144.623)" fill="none" stroke="#000" stroke-width="0.708"/>
            </g>
          </g>
        </g>
        <g id="Isolation_Mode" data-name="Isolation Mode" transform="translate(149.442 85.139)">
          <text id="Peak_in_the_words_category_" data-name="Peak in the 
words category
" transform="translate(19.734 -1)" fill="#5151fc" font-size="8" font-family="HKGrotesk-Italic, HK Grotesk" font-style="italic"><tspan x="0" y="0">Peak in the </tspan><tspan font-family="HKGrotesk-SemiBoldItalic, HK Grotesk" font-weight="600"><tspan x="0" y="10">words</tspan><tspan y="10" xml:space="preserve" font-family="HKGrotesk-Italic, HK Grotesk" font-weight="400"> category</tspan></tspan><tspan font-family="HKGrotesk-Italic"><tspan x="0" y="20"></tspan></tspan></text>
          <rect id="Rettangolo_19226" data-name="Rettangolo 19226" width="45.258" height="49.166" rx="22.629" transform="translate(0 19.747)" fill="none" stroke="#5151fc" stroke-width="0.59"/>
        </g>
      </g>
    </g>
    <g id="Isolation_Mode-2" data-name="Isolation Mode" transform="translate(23.226 5.722)">
      <text id="_Type_of_lists_in_the_text" data-name="% Type of lists in the text" transform="translate(0 10)" font-size="10" font-family="HKGrotesk-Italic, HK Grotesk" font-style="italic"><tspan x="0" y="0">% Type of lists in the text</tspan></text>
    </g>
  </g>
</svg>
