<?xml version="1.0" encoding="utf-8"?>
<!-- Generator: Adobe Illustrator 25.1.0, SVG Export Plug-In . SVG Version: 6.00 Build 0)  -->
<svg version="1.1" id="Livello_1" xmlns="http://www.w3.org/2000/svg" xmlns:xlink="http://www.w3.org/1999/xlink" x="0px" y="0px"
	 width="900px" height="141px" viewBox="0 0 900 141" style="enable-background:new 0 0 900 141;" xml:space="preserve">
<style type="text/css">
	.st0{clip-path:url(#SVGID_2_);}
	.st1{fill:none;stroke:#000000;stroke-width:0.5;}
	.st2{enable-background:new    ;}
	.st3{opacity:0.702;fill:none;stroke:#000000;stroke-width:0.322;enable-background:new    ;}
	.st4{fill:#FF3366;}
	.st5{fill:#00C19C;}
	.st6{opacity:0.1;fill:#646464;enable-background:new    ;}
	.st7{opacity:0.1;fill:none;stroke:#000000;stroke-width:0.322;enable-background:new    ;}
	.st8{opacity:0.1;fill:#AEAEAE;enable-background:new    ;}
</style>
<g>
	<g>
		<defs>
			<rect id="SVGID_1_" y="0" width="900" height="141"/>
		</defs>
		<clipPath id="SVGID_2_">
			<use xlink:href="#SVGID_1_"  style="overflow:visible;"/>
		</clipPath>
		<g id="zoom-03" class="st0">
			<g id="Raggruppa_24065" transform="translate(8.621 181.858)">
				<g id="Layer_1" transform="translate(-8.004 -181.858)">
					<path id="Tracciato_148081" d="M899.88098,118.441h0.5v0.57301h-0.56702v-0.286h0.28302v0.286h-0.21802L899.88098,118.441z
						 M594.73297,118.441h304.58099v0.57301H594.73297V118.441z M593.03296,118.441h0.56702v0.57301h-0.56702V118.441z
						 M591.33295,118.441h0.56702v0.57301h-0.56702V118.441z M589.63293,118.441h0.56702v0.57301h-0.56702V118.441z
						 M587.93292,118.441h0.56702v0.57301h-0.56702V118.441z M586.23291,118.441h0.56702v0.57301h-0.56702V118.441z
						 M584.5329,118.441h0.56702v0.57301h-0.56702V118.441z M582.83289,118.441h0.56702v0.57301h-0.56702V118.441z
						 M581.13287,118.441h0.56702v0.57301h-0.56702V118.441z M579.43286,118.441h0.56702v0.57301h-0.56702V118.441z
						 M577.73285,118.441h0.56702v0.57301h-0.56702V118.441z M576.03284,118.441h0.56702v0.57301h-0.56702V118.441z
						 M574.33282,118.441h0.56702v0.57301h-0.56702V118.441z M572.63281,118.441h0.56702v0.57301h-0.56702V118.441z
						 M570.9328,118.441h0.56702v0.57301h-0.56702V118.441z M569.23279,118.441h0.56702v0.57301h-0.56702V118.441z
						 M567.53278,118.441h0.56702v0.57301h-0.56702V118.441z M565.83276,118.441h0.56702v0.57301h-0.56702V118.441z
						 M564.13275,118.441h0.56702v0.57301h-0.56702V118.441z M562.43274,118.441h0.56702v0.57301h-0.56702V118.441z
						 M560.73273,118.441h0.56702v0.57301h-0.56702V118.441z M559.03271,118.441h0.56702v0.57301h-0.56702V118.441z
						 M557.3327,118.441h0.56702v0.57301h-0.56702V118.441z M555.63269,118.441h0.56702v0.57301h-0.56702V118.441z
						 M412.36069,118.441h142.11728v0.57301H412.34L412.36069,118.441z M410.66068,118.441h0.56699v0.57301h-0.56699V118.441z
						 M408.96066,118.441h0.56799v0.57301h-0.56799V118.441z M407.26065,118.441h0.56699v0.57301h-0.56699V118.441z
						 M405.56064,118.441h0.56799v0.57301h-0.56799V118.441z M403.86063,118.441h0.56699v0.57301h-0.56699V118.441z
						 M402.16061,118.441h0.56799v0.57301h-0.56799V118.441z M400.4606,118.441h0.53738v0.57301H400.431L400.4606,118.441z
						 M398.76059,118.441h0.56799v0.57301h-0.56799V118.441z M397.06058,118.441h0.56699v0.57301h-0.56699V118.441z
						 M395.36057,118.441h0.56799v0.57301h-0.56799V118.441z M393.66055,118.441h0.56699v0.57301h-0.56699V118.441z
						 M391.96054,118.441h0.56799v0.57301h-0.56799V118.441z M390.26053,118.441h0.56699v0.57301h-0.56699V118.441z
						 M388.56052,118.441h0.56799v0.57301h-0.56799V118.441z M386.8605,118.441h0.56699v0.57301h-0.56699V118.441z
						 M385.16049,118.441h0.56799v0.57301h-0.56799V118.441z M383.46048,118.441h0.56699v0.57301h-0.56699V118.441z
						 M381.76047,118.441h0.56799v0.57301h-0.56799V118.441z M380.06046,118.441h0.56699v0.57301h-0.56699V118.441z
						 M378.36044,118.441h0.56799v0.57301h-0.56799V118.441z M376.66043,118.441h0.56699v0.57301h-0.56699V118.441z
						 M374.96042,118.441h0.56799v0.57301h-0.56799V118.441z M373.26041,118.441h0.56699v0.57301h-0.56699V118.441z
						 M67.54643,118.441H372.086v0.57301H67.506L67.54643,118.441z M65.84643,118.441h0.568v0.57301h-0.568V118.441z
						 M64.14643,118.441h0.567v0.57301h-0.567V118.441z M62.44643,118.441h0.568v0.57301H62.398L62.44643,118.441z
						 M60.74643,118.441h0.567v0.57301H60.698L60.74643,118.441z M59.04643,118.441h0.568v0.57301H58.998L59.04643,118.441z
						 M57.34643,118.441h0.567v0.57301H57.298L57.34643,118.441z M55.64643,118.441h0.568v0.57301H55.598L55.64643,118.441z
						 M53.94643,118.441h0.567v0.57301H53.898L53.94643,118.441z M52.24643,118.441h0.568v0.57301H52.198L52.24643,118.441z
						 M50.54642,118.441h0.567v0.57301H50.498L50.54642,118.441z M48.84642,118.441h0.568v0.57301H48.798L48.84642,118.441z
						 M47.14642,118.441h0.567v0.57301H47.098L47.14642,118.441z M45.44642,118.441h0.568v0.57301H45.398L45.44642,118.441z
						 M43.74642,118.441h0.567v0.57301H43.698L43.74642,118.441z M42.04642,118.441h0.568v0.57301h-0.568V118.441z
						 M40.34642,118.441h0.567v0.57301h-0.567V118.441z M38.64642,118.441h0.568v0.57301h-0.568V118.441z M36.94642,118.441h0.567
						v0.57301h-0.567V118.441z M35.24642,118.441h0.568v0.57301H35.188L35.24642,118.441z M33.54642,118.441h0.567v0.57301H33.488
						L33.54642,118.441z M31.84642,118.441h0.568v0.57301h-0.568V118.441z M30.14642,118.441h0.567v0.57301h-0.567V118.441z
						 M28.44641,118.441h0.568v0.57301h-0.568V118.441z M26.74641,119.01401V118.441h0.567v0.57301h-0.284v-0.286h0.284v0.286
						C27.31341,119.01402,26.74641,119.01402,26.74641,119.01401z"/>
					<line id="Linea_7830" class="st1" x1="26.971" y1="118.441" x2="26.971" y2="121.877"/>
					<line id="Linea_7831" class="st1" x1="67.993" y1="118.441" x2="67.993" y2="121.877"/>
					<line id="Linea_7832" class="st1" x1="109.015" y1="118.441" x2="109.015" y2="121.877"/>
					<line id="Linea_7833" class="st1" x1="150.037" y1="118.441" x2="150.037" y2="121.877"/>
					<line id="Linea_7834" class="st1" x1="189.19901" y1="118.441" x2="189.19901" y2="121.877"/>
					<line id="Linea_7835" class="st1" x1="229.82201" y1="118.441" x2="229.82201" y2="121.877"/>
					<line id="Linea_7836" class="st1" x1="270.44501" y1="118.441" x2="270.44501" y2="121.877"/>
					<line id="Linea_7837" class="st1" x1="311.06799" y1="118.441" x2="311.06799" y2="121.877"/>
					<line id="Linea_7838" class="st1" x1="351.69101" y1="118.441" x2="351.69101" y2="121.877"/>
					<line id="Linea_7839" class="st1" x1="392.314" y1="118.441" x2="392.314" y2="121.877"/>
					<line id="Linea_7840" class="st1" x1="432.936" y1="118.441" x2="432.936" y2="121.877"/>
					<line id="Linea_7841" class="st1" x1="473.55899" y1="118.441" x2="473.55899" y2="121.877"/>
					<line id="Linea_7842" class="st1" x1="514.18201" y1="118.441" x2="514.18201" y2="121.877"/>
					<line id="Linea_7843" class="st1" x1="554.80499" y1="118.441" x2="554.80499" y2="121.877"/>
					<line id="Linea_7844" class="st1" x1="595.42798" y1="118.441" x2="595.42798" y2="121.877"/>
					<line id="Linea_7845" class="st1" x1="636.05103" y1="118.441" x2="636.05103" y2="121.877"/>
					<line id="Linea_7846" class="st1" x1="676.67297" y1="118.441" x2="676.67297" y2="121.877"/>
					<line id="Linea_7847" class="st1" x1="717.29602" y1="118.441" x2="717.29602" y2="121.877"/>
					<line id="Linea_7848" class="st1" x1="756.51898" y1="118.441" x2="756.51898" y2="121.877"/>
					<line id="Linea_7849" class="st1" x1="797.54102" y1="118.441" x2="797.54102" y2="121.877"/>
					<line id="Linea_7850" class="st1" x1="838.56299" y1="118.441" x2="838.56299" y2="121.877"/>
					<line id="Linea_7851" class="st1" x1="879.58502" y1="118.441" x2="879.58502" y2="121.877"/>
					<g id="Raggruppa_24066" transform="translate(15.6 125.376)">
						<g class="st2">
							<path d="M3.658,3.03434v6.96582H2.96806V4.83317H1.22929V4.15348h1.15918c0.34961,0,0.57959-0.12012,0.57959-0.53027V3.03434
								H3.658z"/>
							<path d="M10.86698,5.26286c0,0.42969-0.14014,0.87988-0.35986,1.23926L8.408,10.00016H7.6287L9.23759,7.382
								c-0.35986,0.12988-0.79932,0.19922-1.229,0.11914c-1.0498-0.18945-1.87891-1.10938-1.87891-2.22852
								c0-1.26953,1.05908-2.31836,2.36865-2.31836C9.79765,2.95426,10.86698,3.99332,10.86698,5.26286z M10.16728,5.27262
								c0-0.90918-0.73975-1.65918-1.66895-1.65918c-0.91943,0-1.66943,0.75-1.66943,1.65918s0.75,1.64941,1.66943,1.64941
								S10.16728,6.1818,10.16728,5.27262z"/>
							<path d="M16.82646,7.6818v0.65918h-1.1294v1.65918h-0.68945V8.34098h-3.48828V7.89176l3.53809-4.85742h0.63965V7.6818
								H16.82646z M15.00761,7.6818V4.0734l-2.56836,3.6084H15.00761z"/>
							<path d="M22.23661,9.35075v0.64941h-4.81738V9.36051c1.62939-1.01953,3.79785-2.47852,3.79785-4.32715
								c0-0.87988-0.48975-1.43945-1.38916-1.43945c-1.05957,0-1.53906,0.76953-1.54883,1.79883l-0.67969-0.0498
								c0-1.36914,0.78955-2.40918,2.22852-2.40918c1.23926,0,2.08887,0.76953,2.08887,2.10938
								c0,1.77832-1.5791,3.19824-3.34814,4.30762h3.66796V9.35075z"/>
						</g>
						<g class="st2">
							<path d="M44.67997,3.03434v6.96582h-0.68994V4.83317h-1.73877V4.15348h1.15918c0.34961,0,0.57959-0.12012,0.57959-0.53027
								V3.03434H44.67997z"/>
							<path d="M51.88896,5.26286c0,0.42969-0.14014,0.87988-0.35986,1.23926l-2.09912,3.49805h-0.7793L50.25956,7.382
								c-0.35986,0.12988-0.79932,0.19922-1.229,0.11914c-1.0498-0.18945-1.87891-1.10938-1.87891-2.22852
								c0-1.26953,1.05908-2.31836,2.36865-2.31836C50.81962,2.95426,51.88896,3.99332,51.88896,5.26286z M51.18925,5.27262
								c0-0.90918-0.73975-1.65918-1.66895-1.65918c-0.91943,0-1.66943,0.75-1.66943,1.65918s0.75,1.64941,1.66943,1.64941
								S51.18925,6.1818,51.18925,5.27262z"/>
							<path d="M57.84843,7.6818v0.65918h-1.12939v1.65918h-0.68945V8.34098H52.5413V7.89176l3.53809-4.85742h0.63965V7.6818
								H57.84843z M56.02958,7.6818V4.0734l-2.56836,3.6084H56.02958z"/>
							<path d="M63.51835,7.6818v0.65918h-1.12939v1.65918H61.6995V8.34098h-3.48828V7.89176l3.53809-4.85742h0.63965V7.6818
								H63.51835z M61.6995,7.6818V4.0734l-2.56836,3.6084H61.6995z"/>
						</g>
						<g class="st2">
							<path d="M85.70243,3.03434v6.96582h-0.68994V4.83317h-1.73877V4.15348h1.15918c0.34961,0,0.57959-0.12012,0.57959-0.53027
								V3.03434H85.70243z"/>
							<path d="M92.91142,5.26286c0,0.42969-0.14014,0.87988-0.35986,1.23926l-2.09912,3.49805h-0.7793L91.28202,7.382
								c-0.35986,0.12988-0.79932,0.19922-1.229,0.11914c-1.0498-0.18945-1.87891-1.10938-1.87891-2.22852
								c0-1.26953,1.05908-2.31836,2.36865-2.31836C91.84208,2.95426,92.91142,3.99332,92.91142,5.26286z M92.21171,5.27262
								c0-0.90918-0.73975-1.65918-1.66895-1.65918c-0.91943,0-1.66943,0.75-1.66943,1.65918s0.75,1.64941,1.66943,1.64941
								S92.21171,6.1818,92.21171,5.27262z"/>
							<path d="M98.87089,7.6818v0.65918H97.7415v1.65918h-0.68945V8.34098h-3.48828V7.89176l3.53809-4.85742h0.63965V7.6818
								H98.87089z M97.05204,7.6818V4.0734l-2.56836,3.6084H97.05204z"/>
							<path d="M104.26102,7.76188c0,1.26855-1.05908,2.31836-2.36865,2.31836c-1.29932,0-2.36865-1.03906-2.36865-2.30859
								c0-0.42969,0.14014-0.87988,0.35986-1.23926l2.09863-3.49805h0.77979l-1.60938,2.61816
								c0.35986-0.12988,0.7998-0.2002,1.22949-0.12012C103.43143,5.72282,104.26102,6.64176,104.26102,7.76188z M103.56132,7.76188
								c0-0.91016-0.74951-1.64941-1.66895-1.64941s-1.66895,0.73926-1.66895,1.64941c0,0.90918,0.73975,1.6582,1.66895,1.6582
								C102.81181,9.42008,103.56132,8.67106,103.56132,7.76188z"/>
						</g>
						<g class="st2">
							<path d="M126.72538,3.03434v6.96582h-0.68994V4.83317h-1.73877V4.15348h1.15918c0.34961,0,0.57959-0.12012,0.57959-0.53027
								V3.03434H126.72538z"/>
							<path d="M133.93437,5.26286c0,0.42969-0.14014,0.87988-0.35986,1.23926l-2.09912,3.49805h-0.7793l1.60889-2.61816
								c-0.35986,0.12988-0.79932,0.19922-1.229,0.11914c-1.0498-0.18945-1.87891-1.10938-1.87891-2.22852
								c0-1.26953,1.05908-2.31836,2.36865-2.31836C132.86504,2.95426,133.93437,3.99332,133.93437,5.26286z M133.23466,5.27262
								c0-0.90918-0.73975-1.65918-1.66895-1.65918c-0.91943,0-1.66943,0.75-1.66943,1.65918s0.75,1.64941,1.66943,1.64941
								S133.23466,6.1818,133.23466,5.27262z"/>
							<path d="M139.89384,7.6818v0.65918h-1.12939v1.65918H138.075V8.34098h-3.48828V7.89176l3.53809-4.85742h0.63965V7.6818
								H139.89384z M138.075,7.6818V4.0734l-2.56836,3.6084H138.075z"/>
							<path d="M140.55644,8.03141c0-0.87988,0.48975-1.54883,1.29932-1.81934c-0.54932-0.26953-0.90918-0.81934-0.90918-1.50879
								c0-1.10938,0.98926-1.74902,1.979-1.74902c1.06934,0,1.9585,0.69922,1.9585,1.78906
								c0,0.67969-0.37939,1.21875-0.90918,1.46875c0.79932,0.27051,1.2793,0.94922,1.2793,1.81934
								c0,1.36914-1.14941,2.04883-2.33887,2.04883S140.55644,9.40055,140.55644,8.03141z M144.57451,7.98161
								c0-0.91016-0.68945-1.48926-1.65918-1.48926c-0.97949,0-1.66895,0.5791-1.66895,1.48926
								c0,0.95898,0.7793,1.43848,1.66895,1.43848C143.79472,9.42008,144.57451,8.94059,144.57451,7.98161z M144.20488,4.79313
								c0-0.68945-0.52979-1.17969-1.2793-1.17969c-0.68994,0-1.28955,0.42969-1.28955,1.14941
								c0,0.76953,0.52979,1.24902,1.28955,1.24902C143.67509,6.01188,144.20488,5.53239,144.20488,4.79313z"/>
						</g>
						<g class="st2">
							<path d="M166.06133,3.03434v6.96582h-0.68994V4.83317h-1.73877V4.15348h1.15918c0.34961,0,0.57959-0.12012,0.57959-0.53027
								V3.03434H166.06133z"/>
							<path d="M173.27031,5.26286c0,0.42969-0.14014,0.87988-0.35986,1.23926l-2.09912,3.49805h-0.7793l1.60889-2.61816
								c-0.35986,0.12988-0.79932,0.19922-1.229,0.11914c-1.0498-0.18945-1.87891-1.10938-1.87891-2.22852
								c0-1.26953,1.05908-2.31836,2.36865-2.31836C172.20097,2.95426,173.27031,3.99332,173.27031,5.26286z M172.5706,5.27262
								c0-0.90918-0.73975-1.65918-1.66895-1.65918c-0.91943,0-1.66943,0.75-1.66943,1.65918s0.75,1.64941,1.66943,1.64941
								S172.5706,6.1818,172.5706,5.27262z"/>
							<path d="M178.92021,7.64176c0,1.31934-1.0293,2.43848-2.41846,2.43848c-1.25928,0-2.16895-0.88965-2.36865-2.00879
								l0.6792-0.11035c0.15039,0.83984,0.77979,1.45898,1.68945,1.45898c1.0293,0,1.68896-0.8291,1.68896-1.77832
								c0-0.91992-0.59961-1.65918-1.60938-1.65918c-0.66943,0-1.1792,0.33008-1.52881,0.83887L174.35283,6.632l0.62939-3.59766
								h3.6084v0.65918h-3.03857l-0.3999,2.25879c0.46973-0.43945,0.99951-0.60938,1.50928-0.60938
								C177.97099,5.34293,178.92021,6.36247,178.92021,7.64176z"/>
							<path d="M180.01201,6.52165c0-1.6582,0.3501-3.58789,2.15918-3.58789c1.64893,0,2.21875,1.68945,2.21875,3.59863
								c0,1.9082-0.55957,3.56738-2.14893,3.56738C180.38213,10.09977,180.01201,8.18082,180.01201,6.52165z M183.65019,6.52165
								c0-1.6084-0.30957-2.92773-1.479-2.92773c-1.21924,0-1.44922,1.42871-1.44922,2.92773
								c0,1.46973,0.22998,2.91894,1.49902,2.91894C183.35039,9.44059,183.65019,8.10075,183.65019,6.52165z"/>
						</g>
						<g class="st2">
							<path d="M206.66142,3.03434v6.96582h-0.68994V4.83317h-1.73877V4.15348h1.15918c0.34961,0,0.57959-0.12012,0.57959-0.53027
								V3.03434H206.66142z"/>
							<path d="M213.87041,5.26286c0,0.42969-0.14014,0.87988-0.35986,1.23926l-2.09912,3.49805h-0.7793l1.60889-2.61816
								c-0.35986,0.12988-0.79932,0.19922-1.229,0.11914c-1.0498-0.18945-1.87891-1.10938-1.87891-2.22852
								c0-1.26953,1.05908-2.31836,2.36865-2.31836C212.80107,2.95426,213.87041,3.99332,213.87041,5.26286z M213.1707,5.27262
								c0-0.90918-0.73975-1.65918-1.66895-1.65918c-0.91943,0-1.66943,0.75-1.66943,1.65918s0.75,1.64941,1.66943,1.64941
								S213.1707,6.1818,213.1707,5.27262z"/>
							<path d="M219.52031,7.64176c0,1.31934-1.0293,2.43848-2.41846,2.43848c-1.25928,0-2.16895-0.88965-2.36865-2.00879
								l0.6792-0.11035c0.15039,0.83984,0.77979,1.45898,1.68945,1.45898c1.0293,0,1.68896-0.8291,1.68896-1.77832
								c0-0.91992-0.59961-1.65918-1.60938-1.65918c-0.66943,0-1.1792,0.33008-1.52881,0.83887L214.95293,6.632l0.62939-3.59766
								h3.6084v0.65918h-3.03857l-0.3999,2.25879c0.46973-0.43945,0.99951-0.60938,1.50928-0.60938
								C218.57109,5.34293,219.52031,6.36247,219.52031,7.64176z"/>
							<path d="M225.18974,9.35075v0.64941h-4.81738V9.36051c1.62939-1.01953,3.79785-2.47852,3.79785-4.32715
								c0-0.87988-0.48975-1.43945-1.38916-1.43945c-1.05908,0-1.53906,0.76953-1.54883,1.79883l-0.67969-0.0498
								c0-1.36914,0.78955-2.40918,2.22852-2.40918c1.23926,0,2.08887,0.76953,2.08887,2.10938
								c0,1.77832-1.5791,3.19824-3.34814,4.30762h3.66797V9.35075z"/>
						</g>
						<g class="st2">
							<path d="M247.26201,3.03434v6.96582h-0.68994V4.83317h-1.73877V4.15348h1.15918c0.34961,0,0.57959-0.12012,0.57959-0.53027
								V3.03434H247.26201z"/>
							<path d="M254.47099,5.26286c0,0.42969-0.14014,0.87988-0.35986,1.23926l-2.09912,3.49805h-0.7793L252.8416,7.382
								c-0.35986,0.12988-0.79932,0.19922-1.229,0.11914c-1.0498-0.18945-1.87891-1.10938-1.87891-2.22852
								c0-1.26953,1.05908-2.31836,2.36865-2.31836C253.40166,2.95426,254.47099,3.99332,254.47099,5.26286z M253.77129,5.27262
								c0-0.90918-0.73975-1.65918-1.66895-1.65918c-0.91943,0-1.66943,0.75-1.66943,1.65918s0.75,1.64941,1.66943,1.64941
								S253.77129,6.1818,253.77129,5.27262z"/>
							<path d="M260.12088,7.64176c0,1.31934-1.0293,2.43848-2.41846,2.43848c-1.25928,0-2.16893-0.88965-2.36864-2.00879
								l0.67918-0.11035c0.15039,0.83984,0.77979,1.45898,1.68945,1.45898c1.0293,0,1.68896-0.8291,1.68896-1.77832
								c0-0.91992-0.59961-1.65918-1.60938-1.65918c-0.66943,0-1.1792,0.33008-1.52881,0.83887L255.55351,6.632l0.62938-3.59766
								h3.6084v0.65918h-3.03857l-0.3999,2.25879c0.46973-0.43945,0.99951-0.60938,1.50928-0.60938
								C259.17166,5.34293,260.12088,6.36247,260.12088,7.64176z"/>
							<path d="M266.05008,7.6818v0.65918h-1.12939v1.65918h-0.68945V8.34098h-3.48828V7.89176l3.53809-4.85742h0.63965V7.6818
								H266.05008z M264.23123,7.6818V4.0734l-2.56836,3.6084H264.23123z"/>
						</g>
						<g class="st2">
							<path d="M287.86209,3.03434v6.96582h-0.68994V4.83317h-1.73877V4.15348h1.15918c0.34961,0,0.57959-0.12012,0.57959-0.53027
								V3.03434H287.86209z"/>
							<path d="M295.07108,5.26286c0,0.42969-0.14014,0.87988-0.35986,1.23926l-2.09912,3.49805h-0.7793l1.60889-2.61816
								c-0.35986,0.12988-0.79932,0.19922-1.229,0.11914c-1.0498-0.18945-1.87891-1.10938-1.87891-2.22852
								c0-1.26953,1.05908-2.31836,2.36865-2.31836C294.00174,2.95426,295.07108,3.99332,295.07108,5.26286z M294.37137,5.27262
								c0-0.90918-0.73975-1.65918-1.66895-1.65918c-0.91943,0-1.66943,0.75-1.66943,1.65918s0.75,1.64941,1.66943,1.64941
								S294.37137,6.1818,294.37137,5.27262z"/>
							<path d="M300.72098,7.64176c0,1.31934-1.0293,2.43848-2.41846,2.43848c-1.25928,0-2.16895-0.88965-2.36865-2.00879
								l0.6792-0.11035c0.15039,0.83984,0.77979,1.45898,1.68945,1.45898c1.0293,0,1.68896-0.8291,1.68896-1.77832
								c0-0.91992-0.59961-1.65918-1.60938-1.65918c-0.66943,0-1.1792,0.33008-1.52881,0.83887L296.15359,6.632l0.62939-3.59766
								h3.6084v0.65918h-3.03857l-0.3999,2.25879c0.46973-0.43945,0.99951-0.60938,1.50928-0.60938
								C299.77176,5.34293,300.72098,6.36247,300.72098,7.64176z"/>
							<path d="M306.37039,7.76188c0,1.26855-1.05908,2.31836-2.36865,2.31836c-1.29932,0-2.36865-1.03906-2.36865-2.30859
								c0-0.42969,0.14014-0.87988,0.35986-1.23926l2.09863-3.49805h0.77979l-1.60938,2.61816
								c0.35986-0.12988,0.7998-0.2002,1.22949-0.12012C305.5408,5.72282,306.37039,6.64176,306.37039,7.76188z M305.67068,7.76188
								c0-0.91016-0.74951-1.64941-1.66895-1.64941s-1.66895,0.73926-1.66895,1.64941c0,0.90918,0.73975,1.6582,1.66895,1.6582
								C304.92117,9.42008,305.67068,8.67106,305.67068,7.76188z"/>
						</g>
						<g class="st2">
							<path d="M328.46414,3.03434v6.96582h-0.68994V4.83317h-1.73877V4.15348h1.15918c0.34961,0,0.57959-0.12012,0.57959-0.53027
								V3.03434H328.46414z"/>
							<path d="M335.67313,5.26286c0,0.42969-0.14014,0.87988-0.35986,1.23926l-2.09912,3.49805h-0.7793l1.60889-2.61816
								c-0.35986,0.12988-0.79932,0.19922-1.229,0.11914c-1.0498-0.18945-1.87891-1.10938-1.87891-2.22852
								c0-1.26953,1.05908-2.31836,2.36865-2.31836C334.60379,2.95426,335.67313,3.99332,335.67313,5.26286z M334.97342,5.27262
								c0-0.90918-0.73975-1.65918-1.66895-1.65918c-0.91943,0-1.66943,0.75-1.66943,1.65918s0.75,1.64941,1.66943,1.64941
								S334.97342,6.1818,334.97342,5.27262z"/>
							<path d="M341.32303,7.64176c0,1.31934-1.0293,2.43848-2.41846,2.43848c-1.25928,0-2.16895-0.88965-2.36865-2.00879
								l0.6792-0.11035c0.15039,0.83984,0.77979,1.45898,1.68945,1.45898c1.0293,0,1.68896-0.8291,1.68896-1.77832
								c0-0.91992-0.59961-1.65918-1.60938-1.65918c-0.66943,0-1.1792,0.33008-1.52881,0.83887L336.75565,6.632l0.62939-3.59766
								h3.6084v0.65918h-3.03857l-0.3999,2.25879c0.46973-0.43945,0.99951-0.60938,1.50928-0.60938
								C340.37381,5.34293,341.32303,6.36247,341.32303,7.64176z"/>
							<path d="M342.24539,8.03141c0-0.87988,0.48926-1.54883,1.29883-1.81934c-0.54932-0.26953-0.90918-0.81934-0.90918-1.50879
								c0-1.10938,0.98926-1.74902,1.979-1.74902c1.06934,0,1.9585,0.69922,1.9585,1.78906
								c0,0.67969-0.37939,1.21875-0.90918,1.46875c0.79932,0.27051,1.2793,0.94922,1.2793,1.81934
								c0,1.36914-1.14941,2.04883-2.33887,2.04883S342.24539,9.40055,342.24539,8.03141z M346.26297,7.98161
								c0-0.91016-0.68945-1.48926-1.65918-1.48926c-0.97949,0-1.66895,0.5791-1.66895,1.48926
								c0,0.95898,0.7793,1.43848,1.66895,1.43848C345.48318,9.42008,346.26297,8.94059,346.26297,7.98161z M345.89334,4.79313
								c0-0.68945-0.52979-1.17969-1.2793-1.17969c-0.68994,0-1.28955,0.42969-1.28955,1.14941
								c0,0.76953,0.52979,1.24902,1.28955,1.24902C345.36356,6.01188,345.89334,5.53239,345.89334,4.79313z"/>
						</g>
						<g class="st2">
							<path d="M369.06424,3.03434v6.96582h-0.68994V4.83317h-1.73877V4.15348h1.15918c0.34961,0,0.57959-0.12012,0.57959-0.53027
								V3.03434H369.06424z"/>
							<path d="M376.27322,5.26286c0,0.42969-0.14014,0.87988-0.35986,1.23926l-2.09912,3.49805h-0.7793l1.60889-2.61816
								c-0.35986,0.12988-0.79932,0.19922-1.229,0.11914c-1.0498-0.18945-1.87891-1.10938-1.87891-2.22852
								c0-1.26953,1.05908-2.31836,2.36865-2.31836C375.20389,2.95426,376.27322,3.99332,376.27322,5.26286z M375.57352,5.27262
								c0-0.90918-0.73975-1.65918-1.66895-1.65918c-0.91943,0-1.66943,0.75-1.66943,1.65918s0.75,1.64941,1.66943,1.64941
								S375.57352,6.1818,375.57352,5.27262z"/>
							<path d="M381.91287,7.76188c0,1.26855-1.05908,2.31836-2.36865,2.31836c-1.29932,0-2.36865-1.03906-2.36865-2.30859
								c0-0.42969,0.14014-0.87988,0.35986-1.23926l2.09863-3.49805h0.77979l-1.60938,2.61816
								c0.35986-0.12988,0.7998-0.2002,1.22949-0.12012C381.08328,5.72282,381.91287,6.64176,381.91287,7.76188z M381.21317,7.76188
								c0-0.91016-0.74951-1.64941-1.66895-1.64941s-1.66895,0.73926-1.66895,1.64941c0,0.90918,0.73975,1.6582,1.66895,1.6582
								C380.46365,9.42008,381.21317,8.67106,381.21317,7.76188z"/>
							<path d="M383.02518,6.52165c0-1.6582,0.3501-3.58789,2.15918-3.58789c1.64893,0,2.21875,1.68945,2.21875,3.59863
								c0,1.9082-0.55957,3.56738-2.14893,3.56738C383.39529,10.09977,383.02518,8.18082,383.02518,6.52165z M386.66336,6.52165
								c0-1.6084-0.30957-2.92773-1.479-2.92773c-1.21924,0-1.44922,1.42871-1.44922,2.92773
								c0,1.46973,0.22998,2.91894,1.49902,2.91894C386.36356,9.44059,386.66336,8.10075,386.66336,6.52165z"/>
						</g>
						<g class="st2">
							<path d="M409.66531,3.03434v6.96582h-0.68994V4.83317h-1.73877V4.15348h1.15918c0.34961,0,0.57959-0.12012,0.57959-0.53027
								V3.03434H409.66531z"/>
							<path d="M416.8743,5.26286c0,0.42969-0.14014,0.87988-0.35986,1.23926l-2.09912,3.49805h-0.7793L415.2449,7.382
								c-0.35986,0.12988-0.79932,0.19922-1.229,0.11914c-1.0498-0.18945-1.87891-1.10938-1.87891-2.22852
								c0-1.26953,1.05908-2.31836,2.36865-2.31836C415.80496,2.95426,416.8743,3.99332,416.8743,5.26286z M416.17459,5.27262
								c0-0.90918-0.73975-1.65918-1.66895-1.65918c-0.91943,0-1.66943,0.75-1.66943,1.65918s0.75,1.64941,1.66943,1.64941
								S416.17459,6.1818,416.17459,5.27262z"/>
							<path d="M422.51395,7.76188c0,1.26855-1.05908,2.31836-2.36865,2.31836c-1.29932,0-2.36865-1.03906-2.36865-2.30859
								c0-0.42969,0.14014-0.87988,0.35986-1.23926l2.09863-3.49805h0.77979l-1.60938,2.61816
								c0.35986-0.12988,0.7998-0.2002,1.22949-0.12012C421.68436,5.72282,422.51395,6.64176,422.51395,7.76188z M421.81424,7.76188
								c0-0.91016-0.74951-1.64941-1.66895-1.64941s-1.66895,0.73926-1.66895,1.64941c0,0.90918,0.73975,1.6582,1.66895,1.6582
								C421.06473,9.42008,421.81424,8.67106,421.81424,7.76188z"/>
							<path d="M428.20389,9.35075v0.64941h-4.81738V9.36051c1.62939-1.01953,3.79785-2.47852,3.79785-4.32715
								c0-0.87988-0.48975-1.43945-1.38916-1.43945c-1.05957,0-1.53906,0.76953-1.54883,1.79883l-0.67969-0.0498
								c0-1.36914,0.78955-2.40918,2.22852-2.40918c1.23926,0,2.08887,0.76953,2.08887,2.10938
								c0,1.77832-1.5791,3.19824-3.34814,4.30762h3.66797V9.35075z"/>
						</g>
						<g class="st2">
							<path d="M450.26639,3.03434v6.96582h-0.69043V4.83317h-1.73828V4.15348h1.15918c0.34961,0,0.5791-0.12012,0.5791-0.53027
								V3.03434H450.26639z"/>
							<path d="M457.47537,5.26286c0,0.42969-0.14062,0.87988-0.36035,1.23926l-2.09863,3.49805h-0.7793l1.6084-2.61816
								c-0.35938,0.12988-0.79883,0.19922-1.22852,0.11914c-1.0498-0.18945-1.87891-1.10938-1.87891-2.22852
								c0-1.26953,1.05859-2.31836,2.36816-2.31836C456.40604,2.95426,457.47537,3.99332,457.47537,5.26286z M456.77518,5.27262
								c0-0.90918-0.73926-1.65918-1.66895-1.65918c-0.91895,0-1.66895,0.75-1.66895,1.65918s0.75,1.64941,1.66895,1.64941
								C456.02615,6.92204,456.77518,6.1818,456.77518,5.27262z"/>
							<path d="M463.11502,7.76188c0,1.26855-1.05957,2.31836-2.36914,2.31836c-1.29883,0-2.36816-1.03906-2.36816-2.30859
								c0-0.42969,0.13965-0.87988,0.35938-1.23926l2.09863-3.49805h0.78027l-1.60938,2.61816
								c0.35938-0.12988,0.7998-0.2002,1.22949-0.12012C462.28494,5.72282,463.11502,6.64176,463.11502,7.76188z M462.41483,7.76188
								c0-0.91016-0.74902-1.64941-1.66895-1.64941c-0.91895,0-1.66895,0.73926-1.66895,1.64941
								c0,0.90918,0.74023,1.6582,1.66895,1.6582C461.6658,9.42008,462.41483,8.67106,462.41483,7.76188z"/>
							<path d="M469.06424,7.6818v0.65918h-1.12891v1.65918h-0.68945V8.34098h-3.48828V7.89176l3.53809-4.85742h0.63965V7.6818
								H469.06424z M467.24588,7.6818V4.0734l-2.56836,3.6084H467.24588z"/>
						</g>
						<g class="st2">
							<path d="M490.866,3.03434v6.96582h-0.68945V4.83317h-1.73926V4.15348h1.15918c0.34961,0,0.58008-0.12012,0.58008-0.53027
								V3.03434H490.866z"/>
							<path d="M498.07498,5.26286c0,0.42969-0.13965,0.87988-0.35938,1.23926l-2.09961,3.49805h-0.7793l1.60938-2.61816
								c-0.36035,0.12988-0.7998,0.19922-1.22949,0.11914c-1.0498-0.18945-1.87891-1.10938-1.87891-2.22852
								c0-1.26953,1.05957-2.31836,2.36914-2.31836C497.00565,2.95426,498.07498,3.99332,498.07498,5.26286z M497.37576,5.27262
								c0-0.90918-0.74023-1.65918-1.66895-1.65918c-0.91992,0-1.66992,0.75-1.66992,1.65918s0.75,1.64941,1.66992,1.64941
								C496.62576,6.92204,497.37576,6.1818,497.37576,5.27262z"/>
							<path d="M503.71463,7.76188c0,1.26855-1.05859,2.31836-2.36816,2.31836c-1.2998,0-2.36914-1.03906-2.36914-2.30859
								c0-0.42969,0.14062-0.87988,0.36035-1.23926l2.09863-3.49805h0.7793l-1.60938,2.61816
								c0.36035-0.12988,0.7998-0.2002,1.22949-0.12012C502.88553,5.72282,503.71463,6.64176,503.71463,7.76188z M503.01541,7.76188
								c0-0.91016-0.75-1.64941-1.66895-1.64941c-0.91992,0-1.66895,0.73926-1.66895,1.64941
								c0,0.90918,0.73926,1.6582,1.66895,1.6582C502.26541,9.42008,503.01541,8.67106,503.01541,7.76188z"/>
							<path d="M509.38455,7.76188c0,1.26855-1.05859,2.31836-2.36816,2.31836c-1.2998,0-2.36914-1.03906-2.36914-2.30859
								c0-0.42969,0.14062-0.87988,0.36035-1.23926l2.09863-3.49805h0.7793l-1.60938,2.61816
								c0.36035-0.12988,0.7998-0.2002,1.22949-0.12012C508.55545,5.72282,509.38455,6.64176,509.38455,7.76188z M508.68533,7.76188
								c0-0.91016-0.75-1.64941-1.66895-1.64941c-0.91992,0-1.66895,0.73926-1.66895,1.64941
								c0,0.90918,0.73926,1.6582,1.66895,1.6582C507.93533,9.42008,508.68533,8.67106,508.68533,7.76188z"/>
						</g>
						<g class="st2">
							<path d="M531.46759,3.03434v6.96582h-0.69043V4.83317h-1.73828V4.15348h1.15918c0.34961,0,0.5791-0.12012,0.5791-0.53027
								V3.03434H531.46759z"/>
							<path d="M538.67657,5.26286c0,0.42969-0.14062,0.87988-0.36035,1.23926l-2.09863,3.49805h-0.7793l1.6084-2.61816
								c-0.35938,0.12988-0.79883,0.19922-1.22852,0.11914c-1.0498-0.18945-1.87891-1.10938-1.87891-2.22852
								c0-1.26953,1.05859-2.31836,2.36816-2.31836C537.60724,2.95426,538.67657,3.99332,538.67657,5.26286z M537.97638,5.27262
								c0-0.90918-0.73926-1.65918-1.66895-1.65918c-0.91895,0-1.66895,0.75-1.66895,1.65918s0.75,1.64941,1.66895,1.64941
								C537.22736,6.92204,537.97638,6.1818,537.97638,5.27262z"/>
							<path d="M544.31622,7.76188c0,1.26855-1.05957,2.31836-2.36914,2.31836c-1.29883,0-2.36816-1.03906-2.36816-2.30859
								c0-0.42969,0.13965-0.87988,0.35938-1.23926l2.09863-3.49805h0.78027l-1.60938,2.61816
								c0.35938-0.12988,0.7998-0.2002,1.22949-0.12012C543.48615,5.72282,544.31622,6.64176,544.31622,7.76188z M543.61603,7.76188
								c0-0.91016-0.74902-1.64941-1.66895-1.64941c-0.91895,0-1.66895,0.73926-1.66895,1.64941
								c0,0.90918,0.74023,1.6582,1.66895,1.6582C542.867,9.42008,543.61603,8.67106,543.61603,7.76188z"/>
							<path d="M545.25861,8.03141c0-0.87988,0.48926-1.54883,1.29883-1.81934c-0.54883-0.26953-0.90918-0.81934-0.90918-1.50879
								c0-1.10938,0.98926-1.74902,1.97949-1.74902c1.06934,0,1.95801,0.69922,1.95801,1.78906
								c0,0.67969-0.37891,1.21875-0.90918,1.46875c0.7998,0.27051,1.2793,0.94922,1.2793,1.81934
								c0,1.36914-1.14941,2.04883-2.33887,2.04883S545.25861,9.40055,545.25861,8.03141z M549.27618,7.98161
								c0-0.91016-0.68945-1.48926-1.65918-1.48926c-0.97949,0-1.66895,0.5791-1.66895,1.48926
								c0,0.95898,0.7793,1.43848,1.66895,1.43848C548.49689,9.42008,549.27618,8.94059,549.27618,7.98161z M548.90704,4.79313
								c0-0.68945-0.53027-1.17969-1.2793-1.17969c-0.69043,0-1.29004,0.42969-1.29004,1.14941
								c0,0.76953,0.53027,1.24902,1.29004,1.24902C548.37677,6.01188,548.90704,5.53239,548.90704,4.79313z"/>
						</g>
						<g class="st2">
							<path d="M572.0672,3.03434v6.96582h-0.69043V4.83317h-1.73828V4.15348h1.15918c0.34961,0,0.5791-0.12012,0.5791-0.53027
								V3.03434H572.0672z"/>
							<path d="M579.27618,5.26286c0,0.42969-0.13965,0.87988-0.36035,1.23926l-2.09863,3.49805h-0.7793l1.6084-2.61816
								c-0.35938,0.12988-0.79883,0.19922-1.22852,0.11914c-1.0498-0.18945-1.87891-1.10938-1.87891-2.22852
								c0-1.26953,1.05859-2.31836,2.36914-2.31836C578.20685,2.95426,579.27618,3.99332,579.27618,5.26286z M578.57599,5.27262
								c0-0.90918-0.73926-1.65918-1.66797-1.65918c-0.91992,0-1.66992,0.75-1.66992,1.65918s0.75,1.64941,1.66992,1.64941
								C577.82697,6.92204,578.57599,6.1818,578.57599,5.27262z"/>
							<path d="M585.05646,3.03434v0.42969l-3.39844,6.53613h-0.7793l3.32812-6.30664h-4.13867V3.03434H585.05646z"/>
							<path d="M586.06818,6.52165c0-1.6582,0.34961-3.58789,2.15918-3.58789c1.64941,0,2.21875,1.68945,2.21875,3.59863
								c0,1.9082-0.55957,3.56738-2.14941,3.56738C586.43829,10.09977,586.06818,8.18082,586.06818,6.52165z M589.70685,6.52165
								c0-1.6084-0.31055-2.92773-1.47949-2.92773c-1.21973,0-1.44922,1.42871-1.44922,2.92773
								c0,1.46973,0.22949,2.91894,1.49902,2.91894C589.40607,9.44059,589.70685,8.10075,589.70685,6.52165z"/>
						</g>
						<g class="st2">
							<path d="M612.66779,3.03434v6.96582h-0.68945V4.83317h-1.73926V4.15348h1.15918c0.34961,0,0.58008-0.12012,0.58008-0.53027
								V3.03434H612.66779z"/>
							<path d="M619.87677,5.26286c0,0.42969-0.13965,0.87988-0.35938,1.23926l-2.09961,3.49805h-0.7793l1.60938-2.61816
								c-0.36035,0.12988-0.7998,0.19922-1.22949,0.11914c-1.0498-0.18945-1.87891-1.10938-1.87891-2.22852
								c0-1.26953,1.05957-2.31836,2.36914-2.31836C618.80743,2.95426,619.87677,3.99332,619.87677,5.26286z M619.17755,5.27262
								c0-0.90918-0.74023-1.65918-1.66895-1.65918c-0.91992,0-1.66992,0.75-1.66992,1.65918s0.75,1.64941,1.66992,1.64941
								C618.42755,6.92204,619.17755,6.1818,619.17755,5.27262z"/>
							<path d="M625.65704,3.03434v0.42969l-3.39844,6.53613h-0.7793l3.32812-6.30664h-4.1377V3.03434H625.65704z"/>
							<path d="M631.24689,9.35075v0.64941h-4.81738V9.36051c1.62891-1.01953,3.79785-2.47852,3.79785-4.32715
								c0-0.87988-0.49023-1.43945-1.38965-1.43945c-1.05957,0-1.53906,0.76953-1.54883,1.79883l-0.67969-0.0498
								c0-1.36914,0.79004-2.40918,2.22852-2.40918c1.23926,0,2.08887,0.76953,2.08887,2.10938
								c0,1.77832-1.5791,3.19824-3.34766,4.30762h3.66797V9.35075z"/>
						</g>
						<g class="st2">
							<path d="M653.26935,3.03434v6.96582h-0.69043V4.83317h-1.73828V4.15348h1.15918c0.34961,0,0.5791-0.12012,0.5791-0.53027
								V3.03434H653.26935z"/>
							<path d="M660.47833,5.26286c0,0.42969-0.14062,0.87988-0.36035,1.23926l-2.09863,3.49805h-0.7793l1.6084-2.61816
								c-0.35938,0.12988-0.79883,0.19922-1.22852,0.11914c-1.0498-0.18945-1.87891-1.10938-1.87891-2.22852
								c0-1.26953,1.05859-2.31836,2.36816-2.31836C659.409,2.95426,660.47833,3.99332,660.47833,5.26286z M659.77814,5.27262
								c0-0.90918-0.73926-1.65918-1.66895-1.65918c-0.91895,0-1.66895,0.75-1.66895,1.65918s0.75,1.64941,1.66895,1.64941
								C659.02911,6.92204,659.77814,6.1818,659.77814,5.27262z"/>
							<path d="M666.25763,3.03434v0.42969l-3.39746,6.53613h-0.78027l3.32812-6.30664h-4.1377V3.03434H666.25763z"/>
							<path d="M672.10724,7.6818v0.65918h-1.12891v1.65918h-0.68945V8.34098h-3.48828V7.89176l3.53809-4.85742h0.63965V7.6818
								H672.10724z M670.28888,7.6818V4.0734l-2.56836,3.6084H670.28888z"/>
						</g>
						<g class="st2">
							<path d="M693.86896,3.03434v6.96582h-0.68945V4.83317h-1.73926V4.15348h1.15918c0.34961,0,0.58008-0.12012,0.58008-0.53027
								V3.03434H693.86896z"/>
							<path d="M701.07794,5.26286c0,0.42969-0.13965,0.87988-0.35938,1.23926l-2.09961,3.49805h-0.7793l1.60938-2.61816
								c-0.36035,0.12988-0.7998,0.19922-1.22949,0.11914c-1.0498-0.18945-1.87891-1.10938-1.87891-2.22852
								c0-1.26953,1.05957-2.31836,2.36914-2.31836C700.00861,2.95426,701.07794,3.99332,701.07794,5.26286z M700.37872,5.27262
								c0-0.90918-0.74023-1.65918-1.66895-1.65918c-0.91992,0-1.66992,0.75-1.66992,1.65918s0.75,1.64941,1.66992,1.64941
								C699.62872,6.92204,700.37872,6.1818,700.37872,5.27262z"/>
							<path d="M706.85822,3.03434v0.42969l-3.39844,6.53613h-0.7793l3.32812-6.30664h-4.1377V3.03434H706.85822z"/>
							<path d="M712.42755,7.76188c0,1.26855-1.05859,2.31836-2.36816,2.31836c-1.2998,0-2.36914-1.03906-2.36914-2.30859
								c0-0.42969,0.14062-0.87988,0.36035-1.23926l2.09863-3.49805h0.7793l-1.60938,2.61816
								c0.36035-0.12988,0.7998-0.2002,1.22949-0.12012C711.59845,5.72282,712.42755,6.64176,712.42755,7.76188z M711.72833,7.76188
								c0-0.91016-0.75-1.64941-1.66895-1.64941c-0.91992,0-1.66895,0.73926-1.66895,1.64941
								c0,0.90918,0.73926,1.6582,1.66895,1.6582C710.97833,9.42008,711.72833,8.67106,711.72833,7.76188z"/>
						</g>
						<g class="st2">
							<path d="M733.20587,3.03434v6.96582h-0.68945V4.83317h-1.73926V4.15348h1.15918c0.34961,0,0.58008-0.12012,0.58008-0.53027
								V3.03434H733.20587z"/>
							<path d="M740.41486,5.26286c0,0.42969-0.13965,0.87988-0.35938,1.23926l-2.09961,3.49805h-0.7793l1.60938-2.61816
								c-0.36035,0.12988-0.7998,0.19922-1.22949,0.11914c-1.0498-0.18945-1.87891-1.10938-1.87891-2.22852
								c0-1.26953,1.05957-2.31836,2.36914-2.31836C739.34552,2.95426,740.41486,3.99332,740.41486,5.26286z M739.71564,5.27262
								c0-0.90918-0.74023-1.65918-1.66895-1.65918c-0.91992,0-1.66992,0.75-1.66992,1.65918s0.75,1.64941,1.66992,1.64941
								C738.96564,6.92204,739.71564,6.1818,739.71564,5.27262z"/>
							<path d="M746.19513,3.03434v0.42969l-3.39844,6.53613h-0.7793l3.32812-6.30664h-4.1377V3.03434H746.19513z"/>
							<path d="M747.03693,8.03141c0-0.87988,0.49023-1.54883,1.2998-1.81934c-0.5498-0.26953-0.90918-0.81934-0.90918-1.50879
								c0-1.10938,0.98926-1.74902,1.97852-1.74902c1.06934,0,1.95898,0.69922,1.95898,1.78906
								c0,0.67969-0.37988,1.21875-0.90918,1.46875c0.79883,0.27051,1.2793,0.94922,1.2793,1.81934
								c0,1.36914-1.14941,2.04883-2.33887,2.04883S747.03693,9.40055,747.03693,8.03141z M751.05548,7.98161
								c0-0.91016-0.68945-1.48926-1.65918-1.48926c-0.97949,0-1.66895,0.5791-1.66895,1.48926
								c0,0.95898,0.7793,1.43848,1.66895,1.43848C750.27521,9.42008,751.05548,8.94059,751.05548,7.98161z M750.68536,4.79313
								c0-0.68945-0.5293-1.17969-1.2793-1.17969c-0.68945,0-1.28906,0.42969-1.28906,1.14941
								c0,0.76953,0.5293,1.24902,1.28906,1.24902C750.15607,6.01188,750.68536,5.53239,750.68536,4.79313z"/>
						</g>
						<g class="st2">
							<path d="M774.22833,3.03434v6.96582h-0.69043V4.83317h-1.73828V4.15348h1.15918c0.34961,0,0.5791-0.12012,0.5791-0.53027
								V3.03434H774.22833z"/>
							<path d="M781.43732,5.26286c0,0.42969-0.14062,0.87988-0.36035,1.23926l-2.09863,3.49805h-0.7793l1.6084-2.61816
								c-0.35938,0.12988-0.79883,0.19922-1.22852,0.11914c-1.0498-0.18945-1.87891-1.10938-1.87891-2.22852
								c0-1.26953,1.05859-2.31836,2.36816-2.31836C780.36798,2.95426,781.43732,3.99332,781.43732,5.26286z M780.73712,5.27262
								c0-0.90918-0.73926-1.65918-1.66895-1.65918c-0.91895,0-1.66895,0.75-1.66895,1.65918s0.75,1.64941,1.66895,1.64941
								C779.9881,6.92204,780.73712,6.1818,780.73712,5.27262z"/>
							<path d="M782.33966,8.03141c0-0.87988,0.48926-1.54883,1.29883-1.81934c-0.54883-0.26953-0.90918-0.81934-0.90918-1.50879
								c0-1.10938,0.98926-1.74902,1.97949-1.74902c1.06934,0,1.95801,0.69922,1.95801,1.78906
								c0,0.67969-0.37891,1.21875-0.90918,1.46875c0.7998,0.27051,1.2793,0.94922,1.2793,1.81934
								c0,1.36914-1.14941,2.04883-2.33887,2.04883S782.33966,9.40055,782.33966,8.03141z M786.35724,7.98161
								c0-0.91016-0.68945-1.48926-1.65918-1.48926c-0.97949,0-1.66895,0.5791-1.66895,1.48926
								c0,0.95898,0.7793,1.43848,1.66895,1.43848C785.57794,9.42008,786.35724,8.94059,786.35724,7.98161z M785.9881,4.79313
								c0-0.68945-0.53027-1.17969-1.2793-1.17969c-0.69043,0-1.29004,0.42969-1.29004,1.14941
								c0,0.76953,0.53027,1.24902,1.29004,1.24902C785.45782,6.01188,785.9881,5.53239,785.9881,4.79313z"/>
							<path d="M788.12872,6.52165c0-1.6582,0.35059-3.58789,2.15918-3.58789c1.64941,0,2.21875,1.68945,2.21875,3.59863
								c0,1.9082-0.55957,3.56738-2.14844,3.56738C788.49884,10.09977,788.12872,8.18082,788.12872,6.52165z M791.7674,6.52165
								c0-1.6084-0.30957-2.92773-1.47949-2.92773c-1.21875,0-1.44922,1.42871-1.44922,2.92773
								c0,1.46973,0.23047,2.91894,1.49902,2.91894C791.46759,9.44059,791.7674,8.10075,791.7674,6.52165z"/>
						</g>
						<g class="st2">
							<path d="M815.24982,3.03434v6.96582h-0.68945V4.83317h-1.73926V4.15348h1.15918c0.34961,0,0.58008-0.12012,0.58008-0.53027
								V3.03434H815.24982z"/>
							<path d="M822.4588,5.26286c0,0.42969-0.13965,0.87988-0.35938,1.23926l-2.09961,3.49805h-0.7793L820.8299,7.382
								c-0.36035,0.12988-0.7998,0.19922-1.22949,0.11914c-1.0498-0.18945-1.87891-1.10938-1.87891-2.22852
								c0-1.26953,1.05957-2.31836,2.36914-2.31836C821.38947,2.95426,822.4588,3.99332,822.4588,5.26286z M821.75958,5.27262
								c0-0.90918-0.74023-1.65918-1.66895-1.65918c-0.91992,0-1.66992,0.75-1.66992,1.65918s0.75,1.64941,1.66992,1.64941
								C821.00958,6.92204,821.75958,6.1818,821.75958,5.27262z"/>
							<path d="M823.36115,8.03141c0-0.87988,0.49023-1.54883,1.2998-1.81934c-0.5498-0.26953-0.90918-0.81934-0.90918-1.50879
								c0-1.10938,0.98926-1.74902,1.97852-1.74902c1.06934,0,1.95898,0.69922,1.95898,1.78906
								c0,0.67969-0.37988,1.21875-0.90918,1.46875c0.79883,0.27051,1.2793,0.94922,1.2793,1.81934
								c0,1.36914-1.14941,2.04883-2.33887,2.04883S823.36115,9.40055,823.36115,8.03141z M827.3797,7.98161
								c0-0.91016-0.68945-1.48926-1.65918-1.48926c-0.97949,0-1.66895,0.5791-1.66895,1.48926
								c0,0.95898,0.7793,1.43848,1.66895,1.43848C826.59943,9.42008,827.3797,8.94059,827.3797,7.98161z M827.00958,4.79313
								c0-0.68945-0.5293-1.17969-1.2793-1.17969c-0.68945,0-1.28906,0.42969-1.28906,1.14941
								c0,0.76953,0.5293,1.24902,1.28906,1.24902C826.48029,6.01188,827.00958,5.53239,827.00958,4.79313z"/>
							<path d="M833.77814,9.35075v0.64941h-4.81738V9.36051c1.62988-1.01953,3.79785-2.47852,3.79785-4.32715
								c0-0.87988-0.48926-1.43945-1.38867-1.43945c-1.05957,0-1.53906,0.76953-1.54883,1.79883l-0.67969-0.0498
								c0-1.36914,0.78906-2.40918,2.22852-2.40918c1.23926,0,2.08887,0.76953,2.08887,2.10938
								c0,1.77832-1.5791,3.19824-3.34863,4.30762h3.66797V9.35075z"/>
						</g>
						<g class="st2">
							<path d="M856.27228,3.03434v6.96582h-0.69043V4.83317h-1.73828V4.15348h1.15918c0.34961,0,0.5791-0.12012,0.5791-0.53027
								V3.03434H856.27228z"/>
							<path d="M863.48126,5.26286c0,0.42969-0.14062,0.87988-0.36035,1.23926l-2.09863,3.49805h-0.7793l1.6084-2.61816
								c-0.35938,0.12988-0.79883,0.19922-1.22852,0.11914c-1.0498-0.18945-1.87891-1.10938-1.87891-2.22852
								c0-1.26953,1.05859-2.31836,2.36816-2.31836C862.41193,2.95426,863.48126,3.99332,863.48126,5.26286z M862.78107,5.27262
								c0-0.90918-0.73926-1.65918-1.66895-1.65918c-0.91895,0-1.66895,0.75-1.66895,1.65918s0.75,1.64941,1.66895,1.64941
								C862.03204,6.92204,862.78107,6.1818,862.78107,5.27262z"/>
							<path d="M864.38361,8.03141c0-0.87988,0.48926-1.54883,1.29883-1.81934c-0.54883-0.26953-0.90918-0.81934-0.90918-1.50879
								c0-1.10938,0.98926-1.74902,1.97949-1.74902c1.06934,0,1.95801,0.69922,1.95801,1.78906
								c0,0.67969-0.37891,1.21875-0.90918,1.46875c0.7998,0.27051,1.2793,0.94922,1.2793,1.81934
								c0,1.36914-1.14941,2.04883-2.33887,2.04883S864.38361,9.40055,864.38361,8.03141z M868.40118,7.98161
								c0-0.91016-0.68945-1.48926-1.65918-1.48926c-0.97949,0-1.66895,0.5791-1.66895,1.48926
								c0,0.95898,0.7793,1.43848,1.66895,1.43848C867.62189,9.42008,868.40118,8.94059,868.40118,7.98161z M868.03204,4.79313
								c0-0.68945-0.53027-1.17969-1.2793-1.17969c-0.69043,0-1.29004,0.42969-1.29004,1.14941
								c0,0.76953,0.53027,1.24902,1.29004,1.24902C867.50177,6.01188,868.03204,5.53239,868.03204,4.79313z"/>
							<path d="M875.06036,7.6818v0.65918h-1.12988v1.65918h-0.68945V8.34098h-3.48828V7.89176l3.53809-4.85742h0.63965V7.6818
								H875.06036z M873.24103,7.6818V4.0734l-2.56836,3.6084H873.24103z"/>
						</g>
					</g>
					<path id="Tracciato_148082" class="st1" d="M23.248,118.728h3.723V38.548h-3.723"/>
					<line id="Linea_7852" class="st1" x1="26.684" y1="118.728" x2="23.248" y2="118.728"/>
					<g class="st2">
						<path d="M1.03241,116.90643c0-1.6582,0.3501-3.58789,2.15918-3.58789c1.64893,0,2.21875,1.68945,2.21875,3.59863
							c0,1.9082-0.55957,3.56738-2.14893,3.56738C1.40253,120.48456,1.03241,118.56561,1.03241,116.90643z M4.6706,116.90643
							c0-1.6084-0.30957-2.92773-1.479-2.92773c-1.21924,0-1.44922,1.42871-1.44922,2.92773
							c0,1.46973,0.22998,2.91895,1.49902,2.91895C4.37079,119.82538,4.6706,118.48553,4.6706,116.90643z"/>
						<path d="M7.30243,119.28534h0.89941v1.09961H7.30243V119.28534z"/>
						<path d="M10.10224,116.90643c0-1.6582,0.3501-3.58789,2.15918-3.58789c1.64893,0,2.21875,1.68945,2.21875,3.59863
							c0,1.9082-0.55957,3.56738-2.14893,3.56738C10.47236,120.48456,10.10224,118.56561,10.10224,116.90643z M13.74042,116.90643
							c0-1.6084-0.30957-2.92773-1.479-2.92773c-1.21924,0-1.44922,1.42871-1.44922,2.92773
							c0,1.46973,0.22998,2.91895,1.49902,2.91895C13.44062,119.82538,13.74042,118.48553,13.74042,116.90643z"/>
						<path d="M15.73212,116.90643c0-1.6582,0.3501-3.58789,2.15918-3.58789c1.64893,0,2.21875,1.68945,2.21875,3.59863
							c0,1.9082-0.55957,3.56738-2.14893,3.56738C16.10224,120.48456,15.73212,118.56561,15.73212,116.90643z M19.3703,116.90643
							c0-1.6084-0.30957-2.92773-1.479-2.92773c-1.21924,0-1.44922,1.42871-1.44922,2.92773
							c0,1.46973,0.22998,2.91895,1.49902,2.91895C19.0705,119.82538,19.3703,118.48553,19.3703,116.90643z"/>
					</g>
					<line id="Linea_7853" class="st1" x1="26.684" y1="107.274" x2="23.248" y2="107.274"/>
					<line id="Linea_7854" class="st1" x1="26.684" y1="95.819" x2="23.248" y2="95.819"/>
					<g class="st2">
						<path d="M1.03241,93.99725c0-1.6582,0.3501-3.58789,2.15918-3.58789c1.64893,0,2.21875,1.68945,2.21875,3.59863
							c0,1.9082-0.55957,3.56738-2.14893,3.56738C1.40253,97.57538,1.03241,95.65643,1.03241,93.99725z M4.6706,93.99725
							c0-1.6084-0.30957-2.92773-1.479-2.92773c-1.21924,0-1.44922,1.42871-1.44922,2.92773
							c0,1.46973,0.22998,2.91895,1.49902,2.91895C4.37079,96.9162,4.6706,95.57635,4.6706,93.99725z"/>
						<path d="M7.30243,96.37616h0.89941v1.09961H7.30243V96.37616z"/>
						<path d="M13.11103,90.50995v6.96582h-0.68994v-5.16699h-1.73877v-0.67969h1.15918c0.34961,0,0.57959-0.12012,0.57959-0.53027
							v-0.58887H13.11103z"/>
						<path d="M15.82197,93.99725c0-1.6582,0.3501-3.58789,2.15918-3.58789c1.64893,0,2.21875,1.68945,2.21875,3.59863
							c0,1.9082-0.55957,3.56738-2.14893,3.56738C16.19208,97.57538,15.82197,95.65643,15.82197,93.99725z M19.46015,93.99725
							c0-1.6084-0.30957-2.92773-1.479-2.92773c-1.21924,0-1.44922,1.42871-1.44922,2.92773
							c0,1.46973,0.22998,2.91895,1.49902,2.91895C19.16034,96.9162,19.46015,95.57635,19.46015,93.99725z"/>
					</g>
					<line id="Linea_7855" class="st1" x1="26.684" y1="84.365" x2="23.248" y2="84.365"/>
					<line id="Linea_7856" class="st1" x1="26.684" y1="72.911" x2="23.248" y2="72.911"/>
					<g class="st2">
						<path d="M1.03241,71.08954c0-1.6582,0.3501-3.58789,2.15918-3.58789c1.64893,0,2.21875,1.68945,2.21875,3.59863
							c0,1.90771-0.55957,3.56689-2.14893,3.56689C1.40253,74.66718,1.03241,72.74823,1.03241,71.08954z M4.6706,71.08954
							c0-1.6084-0.30957-2.92773-1.479-2.92773c-1.21924,0-1.44922,1.42871-1.44922,2.92773
							c0,1.46924,0.22998,2.91846,1.49902,2.91846C4.37079,74.008,4.6706,72.66815,4.6706,71.08954z"/>
						<path d="M7.30243,73.46796h0.89941v1.09961H7.30243V73.46796z"/>
						<path d="M14.67988,73.91815v0.64941H9.86249v-0.63965c1.62939-1.01953,3.79785-2.47803,3.79785-4.32666
							c0-0.87988-0.48975-1.43945-1.38916-1.43945c-1.05908,0-1.53906,0.76953-1.54883,1.79883l-0.67969-0.0498
							c0-1.36914,0.78955-2.40918,2.22852-2.40918c1.23926,0,2.08887,0.76953,2.08887,2.10938
							c0,1.77832-1.5791,3.19775-3.34814,4.30713C11.01191,73.91816,14.67988,73.91816,14.67988,73.91815z"/>
						<path d="M15.77216,71.08954c0-1.6582,0.3501-3.58789,2.15918-3.58789c1.64893,0,2.21875,1.68945,2.21875,3.59863
							c0,1.90771-0.55957,3.56689-2.14893,3.56689C16.14228,74.66718,15.77216,72.74823,15.77216,71.08954z M19.41034,71.08954
							c0-1.6084-0.30957-2.92773-1.479-2.92773c-1.21924,0-1.44922,1.42871-1.44922,2.92773
							c0,1.46924,0.22998,2.91846,1.49902,2.91846C19.11054,74.008,19.41034,72.66815,19.41034,71.08954z"/>
					</g>
					<line id="Linea_7857" class="st1" x1="26.684" y1="61.457" x2="23.248" y2="61.457"/>
					<line id="Linea_7858" class="st1" x1="26.684" y1="50.002" x2="23.248" y2="50.002"/>
					<g class="st2">
						<path d="M1.03241,48.18036c0-1.6582,0.3501-3.58789,2.15918-3.58789c1.64893,0,2.21875,1.68945,2.21875,3.59863
							c0,1.9082-0.55957,3.56738-2.14893,3.56738C1.40253,51.75848,1.03241,49.83954,1.03241,48.18036z M4.6706,48.18036
							c0-1.6084-0.30957-2.92773-1.479-2.92773c-1.21924,0-1.44922,1.42871-1.44922,2.92773
							c0,1.46973,0.22998,2.91895,1.49902,2.91895C4.37079,51.0993,4.6706,49.75946,4.6706,48.18036z"/>
						<path d="M7.30243,50.55927h0.89941v1.09961H7.30243V50.55927z"/>
						<path d="M9.78241,49.57977l0.67969-0.04004c0,0.99023,0.72998,1.55957,1.7793,1.55957
							c0.98926,0,1.73877-0.53027,1.73877-1.47949c0-1.17871-1.18896-1.33887-2.08887-1.33887v-0.58008
							c1.00977,0,1.71924-0.37988,1.71924-1.24902c0-0.81934-0.59961-1.19922-1.33936-1.19922
							c-0.86963,0-1.46924,0.47949-1.479,1.33887l-0.66992-0.0498c0-1.20898,0.90967-1.94922,2.11914-1.94922
							c1.09912,0,2.05859,0.63965,2.05859,1.7793c0,0.83984-0.5293,1.39941-1.04932,1.56934
							c0.75977,0.13965,1.41943,0.71973,1.41943,1.73926c0,1.31934-1.07959,2.07812-2.43896,2.07812
							C10.84198,51.75848,9.78241,50.98895,9.78241,49.57977z"/>
						<path d="M15.77216,48.18036c0-1.6582,0.3501-3.58789,2.15918-3.58789c1.64893,0,2.21875,1.68945,2.21875,3.59863
							c0,1.9082-0.55957,3.56738-2.14893,3.56738C16.14228,51.75848,15.77216,49.83954,15.77216,48.18036z M19.41034,48.18036
							c0-1.6084-0.30957-2.92773-1.479-2.92773c-1.21924,0-1.44922,1.42871-1.44922,2.92773
							c0,1.46973,0.22998,2.91895,1.49902,2.91895C19.11054,51.0993,19.41034,49.75946,19.41034,48.18036z"/>
					</g>
					<line id="Linea_7859" class="st1" x1="26.684" y1="38.548" x2="23.248" y2="38.548"/>
					<path id="Tracciato_148083" class="st3" d="M26.684,118.441h40.614c10.152,0,10.152-51.8,20.3-51.8s10.152,44.48,20.3,44.48
						s10.153,3.672,20.306,3.672s10.15201-4.52,20.3-4.52s10.15199,1.435,20.306,1.435s10.15199,0.89301,20.3,0.89301
						S199.26201,93.82,209.41,93.82s10.153,16.091,20.306,16.091s10.15199-0.381,20.3-0.381
						c10.14799,0,10.15199,1.291,20.30598,1.291s10.15201,2.086,20.29999,2.086s10.15201,5.531,20.29999,5.531
						s10.15201-5.445,20.306-5.445s10.15201-7.426,20.29999-7.426s10.15201,2.568,20.29999,2.568s10.15302,10.3,20.306,10.3
						h20.29999c10.15201,0,10.15201-8.86201,20.306-8.86201s10.15201,0.807,20.29999,0.807s10.15201,3.063,20.29999,3.063
						s10.15302,0.063,20.306,0.063s10.15201-2.763,20.30002-2.763c10.14795,0,10.15198,0.44901,20.30597,0.44901
						s10.15198,1.338,20.29999,1.338s10.15198,3.19,20.29999,3.19s10.15198,2.715,20.30603,2.715s10.2251-11.176,20.37811-11.176
						s10.15302-0.5,20.29999-0.5s10.16199-3.159,20.31097-3.159s10.15198,8.715,20.29999,8.715s10.15198-8.235,20.30603-8.235
						s10.15198,9.605,20.29999,9.605s10.15198-2.334,20.29999-2.334s10.15302,4.2,20.30603,4.2s10.15198-8.334,20.29999-8.334
						s10.17102,3.842,20.32397,3.842s10.15198,2.4,20.29999,2.4s10.15198-2.712,20.29999-2.712s10.16406-1.978,20.31506-1.978
						s10.15198,3.053,20.29999,3.053s10.15198,6.619,20.30603,6.619C899.80402,118.44101,26.684,118.44101,26.684,118.441z"/>
					<path id="Tracciato_148084" class="st4" d="M26.684,118.44101h40.614c10.152,0,10.152-55.5,20.3-55.5
						s10.154,46.174,20.306,46.174s10.153,3.751,20.30598,3.751s10.15201-2.84,20.3-2.84s10.15201,0.731,20.306,0.731
						s10.15201,0.84299,20.3,0.84299s10.15199-19.6,20.3-19.6s10.153,16.919,20.306,16.919s10.15201-0.911,20.3-0.911
						s10.15199,2.811,20.30602,2.811s10.16998,2.096,20.32397,2.096s10.15201,5.531,20.29999,5.531s10.15201-8.449,20.306-8.449
						s10.15201-5.475,20.29999-5.475s10.15201,0.309,20.29999,0.309s10.15298,13.614,20.306,13.614h20.29999
						c10.15201,0,10.15201-15.286,20.306-15.286s10.15201,5.8,20.29999,5.8s10.15201,4.5,20.29999,4.5
						s10.18207-2.744,20.33508-2.744s10.15201,0.035,20.30002,0.035c10.14795,0,10.15198-0.489,20.30597-0.489
						s10.15198,1.529,20.29999,1.529s10.15198,1.742,20.29999,1.742s10.15198,4.91,20.30603,4.91s10.15302-12.219,20.29999-12.219
						s10.15302-4,20.29999-4s10.15302-0.876,20.30603-0.876s10.15198,10.148,20.29999,10.148s10.15198-7.924,20.30597-7.924
						s10.15198,9.5,20.29999,9.5s10.15198-8.377,20.29999-8.377s10.15302,5.962,20.30603,5.962s10.15198-4.1,20.29999-4.1
						s10.15198,4.509,20.30597,4.509s10.15198-0.544,20.29999-0.544s10.15198-2.96001,20.29999-2.96001
						s10.15302-0.994,20.30603-0.994s10.15198,4.255,20.29999,4.255s10.15198,7.62,20.30597,7.62
						c-30.45801-6.619-30.45801-9.672-40.61102-9.672s-10.15302,1.981-20.30597,1.981s-10.15198,2.712-20.29999,2.712
						s-10.15198-2.4-20.29999-2.4s-10.1059-3.848-20.25793-3.848s-10.15198,8.334-20.29999,8.334s-10.15198-4.2-20.30597-4.2
						s-10.15198,2.334-20.29999,2.334s-10.15198-9.605-20.29999-9.605s-10.16803,8.23701-20.32104,8.23701
						s-10.15198-8.715-20.29999-8.715s-10.15302,3.163-20.31,3.163s-10.15198,0.5-20.29999,0.5s-10.15198,11.181-20.29999,11.181
						s-10.15302-2.715-20.30603-2.715s-10.15198-3.19-20.29999-3.19s-10.15198-1.338-20.29999-1.338
						s-10.15302-0.44901-20.30597-0.44901c-10.15302,0-10.15204,2.763-20.30002,2.763s-10.15201-0.063-20.306-0.063
						s-10.15201-3.063-20.29999-3.063s-10.15201-0.807-20.29999-0.807s-10.15302,8.862-20.306,8.862h-20.29999
						c-10.15201,0-10.15201-10.3-20.306-10.3s-10.15201-2.568-20.29999-2.568s-10.15201,7.426-20.29999,7.426
						s-10.15302,5.445-20.306,5.445s-10.15201-5.53101-20.29999-5.53101s-10.15201-2.086-20.29999-2.086
						s-10.15298-1.291-20.30598-1.291s-10.15201,0.381-20.3,0.381s-10.15199-16.091-20.306-16.091s-10.15199,18.781-20.3,18.781
						s-10.15201-0.893-20.3-0.893s-10.22513-1.44199-20.37813-1.44199s-10.15201,4.52-20.3,4.52s-10.152-3.672-20.306-3.672
						s-10.152-44.48-20.3-44.48s-10.152,51.8-20.3,51.8H26.684V118.44101z"/>
					<path id="Tracciato_148085" class="st3" d="M26.684,118.44101h40.614c10.152,0,10.152-55.5,20.3-55.5
						s10.154,46.174,20.306,46.174s10.153,3.751,20.30598,3.751s10.15201-2.84,20.3-2.84s10.15201,0.731,20.306,0.731
						s10.15201,0.84299,20.3,0.84299s10.15199-19.6,20.3-19.6s10.153,16.919,20.306,16.919s10.15201-0.911,20.3-0.911
						s10.15199,2.811,20.30602,2.811s10.16998,2.096,20.32397,2.096s10.15201,5.531,20.29999,5.531s10.15201-8.449,20.306-8.449
						s10.15201-5.475,20.29999-5.475s10.15201,0.309,20.29999,0.309s10.15298,13.614,20.306,13.614h20.29999
						c10.15201,0,10.15201-15.286,20.306-15.286s10.15201,5.8,20.29999,5.8s10.15201,4.5,20.29999,4.5
						s10.18207-2.744,20.33508-2.744s10.15201,0.035,20.30002,0.035c10.14795,0,10.15198-0.489,20.30597-0.489
						s10.15198,1.529,20.29999,1.529s10.15198,1.742,20.29999,1.742s10.15198,4.91,20.30603,4.91s10.15302-12.219,20.29999-12.219
						s10.15302-4,20.29999-4s10.15302-0.876,20.30603-0.876s10.15198,10.148,20.29999,10.148s10.15198-7.924,20.30597-7.924
						s10.15198,9.5,20.29999,9.5s10.15198-8.377,20.29999-8.377s10.15302,5.962,20.30603,5.962s10.15198-4.1,20.29999-4.1
						s10.15198,4.509,20.30597,4.509s10.15198-0.544,20.29999-0.544s10.15198-2.96001,20.29999-2.96001
						s10.15302-0.994,20.30603-0.994s10.15198,4.255,20.29999,4.255s10.15198,7.62,20.30597,7.62
						c-30.45801-6.619-30.45801-9.672-40.61102-9.672s-10.15302,1.981-20.30597,1.981s-10.15198,2.712-20.29999,2.712
						s-10.15198-2.4-20.29999-2.4s-10.1059-3.848-20.25793-3.848s-10.15198,8.334-20.29999,8.334s-10.15198-4.2-20.30597-4.2
						s-10.15198,2.334-20.29999,2.334s-10.15198-9.605-20.29999-9.605s-10.16803,8.23701-20.32104,8.23701
						s-10.15198-8.715-20.29999-8.715s-10.15302,3.163-20.31,3.163s-10.15198,0.5-20.29999,0.5s-10.15198,11.181-20.29999,11.181
						s-10.15302-2.715-20.30603-2.715s-10.15198-3.19-20.29999-3.19s-10.15198-1.338-20.29999-1.338
						s-10.15302-0.44901-20.30597-0.44901c-10.15302,0-10.15204,2.763-20.30002,2.763s-10.15201-0.063-20.306-0.063
						s-10.15201-3.063-20.29999-3.063s-10.15201-0.807-20.29999-0.807s-10.15302,8.862-20.306,8.862h-20.29999
						c-10.15201,0-10.15201-10.3-20.306-10.3s-10.15201-2.568-20.29999-2.568s-10.15201,7.426-20.29999,7.426
						s-10.15302,5.445-20.306,5.445s-10.15201-5.53101-20.29999-5.53101s-10.15201-2.086-20.29999-2.086
						s-10.15298-1.291-20.30598-1.291s-10.15201,0.381-20.3,0.381s-10.15199-16.091-20.306-16.091s-10.15199,18.781-20.3,18.781
						s-10.15201-0.893-20.3-0.893s-10.22513-1.44199-20.37813-1.44199s-10.15201,4.52-20.3,4.52s-10.152-3.672-20.306-3.672
						s-10.152-44.48-20.3-44.48s-10.152,51.8-20.3,51.8H26.684V118.44101z"/>
					<path id="Tracciato_148086" class="st5" d="M26.684,118.438c30.457-2.028,30.457,0,40.611,0s10.15201-57.31499,20.3-57.31499
						s10.152,46.48199,20.3,46.48199s10.153,4.474,20.306,4.474s10.15201-2.876,20.3-2.876s10.15199,0.525,20.306,0.525
						s10.15199,1.329,20.3,1.329s10.15201-19.05401,20.3-19.05401s10.153,16.445,20.306,16.445s10.15199-1.715,20.3-1.715
						c10.14799,0,10.15199,3,20.30598,3s10.15201,2.746,20.29999,2.746s10.15201,5.957,20.29999,5.957s10.19-9.598,20.34402-9.598
						s10.15201-5.16,20.29999-5.16s10.15201-0.773,20.29999-0.773s10.16302,15.533,20.315,15.533h20.29999
						c10.15201,0,10.15201-16.575,20.306-16.575s10.15201,5,20.29999,5s10.15201,5.147,20.29999,5.147s10.15298-6.75,20.306-6.75
						s10.15201,3.725,20.29999,3.725c10.14795,0,10.15198-0.057,20.30603-0.057s10.15198,2.494,20.29999,2.494
						s10.15198,0.612,20.29999,0.612s10.15198,6.4,20.30603,6.4s10.15302-13.64001,20.29999-13.64001s10.15302-6.065,20.29999-6.065
						s10.15302,0.739,20.30603,0.739s10.15198,11.286,20.29999,11.286s10.15198-8.2,20.30597-8.2s10.15198,7.73,20.29999,7.73
						s10.15198-7.409,20.29999-7.409s10.15302,4.614,20.30603,4.614s10.15198-2.748,20.29999-2.748s10.15198,5.942,20.30597,5.942
						s10.15198-3.182,20.29999-3.182s10.15198-2.552,20.29999-2.552s10.15302-0.305,20.30603-0.305s10.15198,4.17,20.29999,4.17
						S889.65601,118.438,899.81,118.438c-30.45801-7.62-30.45801-11.875-40.61102-11.875s-10.15302,0.994-20.30597,0.994
						s-10.15198,2.96-20.29999,2.96s-10.15198,0.544-20.29999,0.544s-10.15302-4.509-20.30603-4.509s-10.15198,4.1-20.29999,4.1
						s-10.15198-5.962-20.30597-5.962s-10.15198,8.377-20.29999,8.377s-10.15198-9.5-20.29999-9.5s-10.15302,7.924-20.30603,7.924
						s-10.15198-10.148-20.29999-10.148s-10.15302,0.876-20.30597,0.876s-10.15198,4-20.29999,4s-10.1861,12.219-20.33813,12.219
						s-10.15302-4.91-20.30597-4.91s-10.15198-1.742-20.29999-1.742s-10.15198-1.529-20.29999-1.529s-10.15302,0.489-20.30597,0.489
						c-10.15302,0-10.15204-0.035-20.30002-0.035s-10.15201,2.735-20.306,2.735s-10.15201-4.5-20.29999-4.5
						s-10.15201-5.8-20.29999-5.8s-10.17706,15.292-20.33008,15.292h-20.29999c-10.15201,0-10.15201-13.614-20.306-13.614
						s-10.15201-0.309-20.29999-0.309s-10.15201,5.475-20.29999,5.475s-10.16803,8.448-20.32001,8.448
						s-10.15201-5.531-20.29999-5.531s-10.15201-2.086-20.29999-2.086s-10.15298-2.811-20.30598-2.811s-10.15201,0.911-20.3,0.911
						s-10.15199-16.919-20.306-16.919s-10.15199,19.6-20.3,19.6s-10.15201-0.84299-20.3-0.84299s-10.153-0.731-20.306-0.731
						s-10.15199,2.84-20.3,2.84S118.058,109.118,107.904,109.118s-10.152-46.18-20.306-46.18s-10.151,55.5-20.3,55.5
						C67.298,118.438,26.684,118.438,26.684,118.438z"/>
					<path id="Tracciato_148087" class="st3" d="M26.684,118.438c30.457-2.028,30.457,0,40.611,0s10.15201-57.31499,20.3-57.31499
						s10.152,46.48199,20.3,46.48199s10.153,4.474,20.306,4.474s10.15201-2.876,20.3-2.876s10.15199,0.525,20.306,0.525
						s10.15199,1.329,20.3,1.329s10.15201-19.05401,20.3-19.05401s10.153,16.445,20.306,16.445s10.15199-1.715,20.3-1.715
						c10.14799,0,10.15199,3,20.30598,3s10.15201,2.746,20.29999,2.746s10.15201,5.957,20.29999,5.957s10.19-9.598,20.34402-9.598
						s10.15201-5.16,20.29999-5.16s10.15201-0.773,20.29999-0.773s10.16302,15.533,20.315,15.533h20.29999
						c10.15201,0,10.15201-16.575,20.306-16.575s10.15201,5,20.29999,5s10.15201,5.147,20.29999,5.147s10.15298-6.75,20.306-6.75
						s10.15201,3.725,20.29999,3.725c10.14795,0,10.15198-0.057,20.30603-0.057s10.15198,2.494,20.29999,2.494
						s10.15198,0.612,20.29999,0.612s10.15198,6.4,20.30603,6.4s10.15302-13.64001,20.29999-13.64001s10.15302-6.065,20.29999-6.065
						s10.15302,0.739,20.30603,0.739s10.15198,11.286,20.29999,11.286s10.15198-8.2,20.30597-8.2s10.15198,7.73,20.29999,7.73
						s10.15198-7.409,20.29999-7.409s10.15302,4.614,20.30603,4.614s10.15198-2.748,20.29999-2.748s10.15198,5.942,20.30597,5.942
						s10.15198-3.182,20.29999-3.182s10.15198-2.552,20.29999-2.552s10.15302-0.305,20.30603-0.305s10.15198,4.17,20.29999,4.17
						S889.65601,118.438,899.81,118.438c-30.45801-7.62-30.45801-11.875-40.61102-11.875s-10.15302,0.994-20.30597,0.994
						s-10.15198,2.96-20.29999,2.96s-10.15198,0.544-20.29999,0.544s-10.15302-4.509-20.30603-4.509s-10.15198,4.1-20.29999,4.1
						s-10.15198-5.962-20.30597-5.962s-10.15198,8.377-20.29999,8.377s-10.15198-9.5-20.29999-9.5s-10.15302,7.924-20.30603,7.924
						s-10.15198-10.148-20.29999-10.148s-10.15302,0.876-20.30597,0.876s-10.15198,4-20.29999,4s-10.1861,12.219-20.33813,12.219
						s-10.15302-4.91-20.30597-4.91s-10.15198-1.742-20.29999-1.742s-10.15198-1.529-20.29999-1.529s-10.15302,0.489-20.30597,0.489
						c-10.15302,0-10.15204-0.035-20.30002-0.035s-10.15201,2.735-20.306,2.735s-10.15201-4.5-20.29999-4.5
						s-10.15201-5.8-20.29999-5.8s-10.17706,15.292-20.33008,15.292h-20.29999c-10.15201,0-10.15201-13.614-20.306-13.614
						s-10.15201-0.309-20.29999-0.309s-10.15201,5.475-20.29999,5.475s-10.16803,8.448-20.32001,8.448
						s-10.15201-5.531-20.29999-5.531s-10.15201-2.086-20.29999-2.086s-10.15298-2.811-20.30598-2.811s-10.15201,0.911-20.3,0.911
						s-10.15199-16.919-20.306-16.919s-10.15199,19.6-20.3,19.6s-10.15201-0.84299-20.3-0.84299s-10.153-0.731-20.306-0.731
						s-10.15199,2.84-20.3,2.84S118.058,109.118,107.904,109.118s-10.152-46.18-20.306-46.18s-10.151,55.5-20.3,55.5
						C67.298,118.438,26.684,118.438,26.684,118.438z"/>
					<g id="Raggruppa_24064" transform="translate(2)">
						<g class="st2">
							<path d="M31.57489,5.03436v6.96582h-0.71973v-6.0166l-2.24902,5.43652h-0.69922l-2.25879-5.45703v6.03711h-0.70996V5.03436
								h1.03955l2.27881,5.55664l2.27881-5.55664C30.53534,5.03436,31.57489,5.03436,31.57489,5.03436z"/>
							<path d="M33.56855,5.03436h0.79932v1.01953h-0.79932V5.03436z M33.6286,7.07245h0.68945v4.92773H33.6286V7.07245z"/>
							<path d="M37.28778,9.53143l-1.79932-2.45898h0.83984l1.41895,1.97949l1.40918-1.97949h0.83984l-1.79932,2.45898
								l1.80908,2.46875h-0.84961l-1.40918-1.99902l-1.40918,1.99902h-0.84961L37.28778,9.53143z"/>
							<path d="M44.96601,9.72186H41.3581c0.02002,1.0791,0.61963,1.72852,1.58936,1.72852
								c0.53955,0,0.96924-0.13965,1.41895-0.61914l0.47998,0.41895c-0.57959,0.61035-1.14941,0.83008-1.90918,0.83008
								c-1.49902,0-2.26855-1.11914-2.26855-2.51855c0-1.38965,0.75977-2.56836,2.18896-2.56836
								c1.50879,0,2.13867,1.17871,2.13867,2.29785C44.99628,9.43182,44.98603,9.60175,44.96601,9.72186z M41.3581,9.14178h2.97852
								c0-0.02051-0.01025-0.07031-0.01025-0.16016c-0.0498-0.7998-0.55957-1.40918-1.46875-1.40918
								C41.96796,7.57245,41.41816,8.27264,41.3581,9.14178z"/>
							<path d="M50.50605,5.03436v6.96582H49.8161V11.341c-0.35938,0.45898-0.90918,0.73926-1.62891,0.73926
								c-1.43896,0-2.18896-1.0791-2.18896-2.54883c0-1.53906,0.81982-2.54883,2.18896-2.54883
								c0.69971,0,1.25928,0.27051,1.62891,0.75V5.03436H50.50605z M49.87616,9.53143c0-1.16895-0.59961-1.93848-1.58887-1.93848
								c-0.99951,0-1.59912,0.76953-1.59912,1.93848c0,1.11914,0.54932,1.93945,1.59912,1.93945
								C49.32636,11.47089,49.87616,10.65057,49.87616,9.53143z"/>
						</g>
						<path id="Rectangle_180" class="st4" d="M5.559,4h9.882c2.91178-0.15796,5.40031,2.07445,5.55827,4.98622
							C20.99952,8.99081,20.99977,8.99541,21,9l0,0c-0.15036,2.91219-2.63304,5.15109-5.54523,5.00073
							C15.45018,14.00049,15.44559,14.00024,15.441,14H5.559c-2.91178,0.15796-5.4003-2.07445-5.55827-4.98622
							C0.00048,9.00919,0.00024,9.00459,0,9l0,0c0.15036-2.91219,2.63304-5.15109,5.54522-5.00073
							C5.54982,3.99951,5.55441,3.99976,5.559,4z"/>
						<g class="st2">
							<path d="M91.47285,5.03436h0.73926l1.6792,5.90625l1.7793-5.53711H96.3l1.7793,5.53711l1.66895-5.90625h0.74951
								l-2.01904,6.96582h-0.71924l-1.76904-5.4668l-1.7793,5.4668H93.4914L91.47285,5.03436z"/>
							<path d="M101.05293,9.53143c0-1.45898,0.94922-2.53809,2.3584-2.53809c1.39941,0,2.36865,1.0791,2.36865,2.53809
								c0,1.44922-0.95947,2.54883-2.36865,2.54883S101.05293,10.99042,101.05293,9.53143z M105.09052,9.53143
								c0-1.11914-0.62988-1.92871-1.6792-1.92871c-1.05957,0-1.66895,0.81934-1.66895,1.92871
								c0,1.11914,0.61963,1.93945,1.66895,1.93945C104.47089,11.47089,105.09052,10.63104,105.09052,9.53143z"/>
							<path d="M110.1706,7.20331l-0.33984,0.55957c-0.22949-0.10059-0.43945-0.15039-0.64941-0.15039
								c-0.75977,0-1.31934,0.56934-1.31934,1.63965v2.74805h-0.68945V7.07245h0.68945v0.74023
								c0.35986-0.64941,0.95947-0.81934,1.45898-0.81934C109.62128,6.99335,109.90107,7.05292,110.1706,7.20331z"/>
							<path d="M114.86005,5.03436v6.96582h-0.68994V11.341c-0.35938,0.45898-0.90918,0.73926-1.62891,0.73926
								c-1.43896,0-2.18896-1.0791-2.18896-2.54883c0-1.53906,0.81982-2.54883,2.18896-2.54883
								c0.69971,0,1.25928,0.27051,1.62891,0.75V5.03436H114.86005z M114.23017,9.53143c0-1.16895-0.59961-1.93848-1.58887-1.93848
								c-0.99951,0-1.59912,0.76953-1.59912,1.93848c0,1.11914,0.5498,1.93945,1.59912,1.93945
								C113.68037,11.47089,114.23017,10.65057,114.23017,9.53143z"/>
							<path d="M116.15253,10.7912l0.57959-0.25977c0.17969,0.50977,0.65967,0.93945,1.4292,0.93945
								c0.66943,0,1.09961-0.33008,1.09961-0.84961c0-1.30957-2.83887-0.49023-2.83887-2.23926
								c0-0.85938,0.69971-1.38867,1.68945-1.38867c0.78955,0,1.4292,0.3291,1.76904,1.0293l-0.5498,0.2998
								c-0.23975-0.44043-0.62988-0.71973-1.23926-0.71973c-0.60986,0-0.99951,0.25-0.99951,0.67969
								c0,1.16895,2.84814,0.42969,2.84814,2.29883c0,0.99902-0.81934,1.49902-1.76904,1.49902
								C117.20185,12.08026,116.4123,11.58026,116.15253,10.7912z"/>
						</g>
						<path id="Rectangle_181" class="st5" d="M70.424,4h9.882c2.91178-0.15796,5.40031,2.07445,5.55827,4.98622
							C85.86452,8.99081,85.86476,8.99541,85.865,9l0,0c-0.15036,2.91219-2.63304,5.15109-5.54523,5.00073
							C80.31519,14.00049,80.31059,14.00024,80.306,14h-9.882c-2.91178,0.15796-5.4003-2.07445-5.55827-4.98622
							C64.86548,9.00919,64.86523,9.00459,64.865,9l0,0c0.15036-2.91219,2.63304-5.15109,5.54523-5.00073
							C70.41481,3.99951,70.4194,3.99976,70.424,4z"/>
					</g>
					<path id="Tracciato_148088" class="st6" d="M26.684,118.441h40.614c10.152,0,10.152-51.8,20.3-51.8s10.152,44.48,20.3,44.48
						s10.153,3.672,20.306,3.672s10.15201-4.52,20.3-4.52s10.15199,1.435,20.306,1.435s10.15199,0.89301,20.3,0.89301
						S199.26201,93.82,209.41,93.82s10.153,16.091,20.306,16.091s10.15199-0.381,20.3-0.381
						c10.14799,0,10.15199,1.291,20.30598,1.291s10.15201,2.086,20.29999,2.086s10.15201,5.531,20.29999,5.531
						s10.15201-5.445,20.306-5.445s10.15201-7.426,20.29999-7.426s10.15201,2.568,20.29999,2.568s10.15302,10.3,20.306,10.3
						h20.29999c10.15201,0,10.15201-8.86201,20.306-8.86201s10.15201,0.807,20.29999,0.807s10.15201,3.063,20.29999,3.063
						s10.15302,0.063,20.306,0.063s10.15201-2.763,20.30002-2.763c10.14795,0,10.15198,0.44901,20.30597,0.44901
						s10.15198,1.338,20.29999,1.338s10.15198,3.19,20.29999,3.19s10.15198,2.715,20.30603,2.715s10.2251-11.176,20.37811-11.176
						s10.15302-0.5,20.29999-0.5s10.16199-3.159,20.31097-3.159s10.15198,8.715,20.29999,8.715s10.15198-8.235,20.30603-8.235
						s10.15198,9.605,20.29999,9.605s10.15198-2.334,20.29999-2.334s10.15302,4.2,20.30603,4.2s10.15198-8.334,20.29999-8.334
						s10.17102,3.842,20.32397,3.842s10.15198,2.4,20.29999,2.4s10.15198-2.712,20.29999-2.712s10.16406-1.978,20.31506-1.978
						s10.15198,3.053,20.29999,3.053s10.15198,6.619,20.30603,6.619C899.80402,118.44101,26.684,118.44101,26.684,118.441z"/>
					<path id="Tracciato_148089" class="st7" d="M26.684,118.441h40.614c10.152,0,10.152-51.8,20.3-51.8s10.152,44.48,20.3,44.48
						s10.153,3.672,20.306,3.672s10.15201-4.52,20.3-4.52s10.15199,1.435,20.306,1.435s10.15199,0.89301,20.3,0.89301
						S199.26201,93.82,209.41,93.82s10.153,16.091,20.306,16.091s10.15199-0.381,20.3-0.381
						c10.14799,0,10.15199,1.291,20.30598,1.291s10.15201,2.086,20.29999,2.086s10.15201,5.531,20.29999,5.531
						s10.15201-5.445,20.306-5.445s10.15201-7.426,20.29999-7.426s10.15201,2.568,20.29999,2.568s10.15302,10.3,20.306,10.3
						h20.29999c10.15201,0,10.15201-8.86201,20.306-8.86201s10.15201,0.807,20.29999,0.807s10.15201,3.063,20.29999,3.063
						s10.15302,0.063,20.306,0.063s10.15201-2.763,20.30002-2.763c10.14795,0,10.15198,0.44901,20.30597,0.44901
						s10.15198,1.338,20.29999,1.338s10.15198,3.19,20.29999,3.19s10.15198,2.715,20.30603,2.715s10.2251-11.176,20.37811-11.176
						s10.15302-0.5,20.29999-0.5s10.16199-3.159,20.31097-3.159s10.15198,8.715,20.29999,8.715s10.15198-8.235,20.30603-8.235
						s10.15198,9.605,20.29999,9.605s10.15198-2.334,20.29999-2.334s10.15302,4.2,20.30603,4.2s10.15198-8.334,20.29999-8.334
						s10.17102,3.842,20.32397,3.842s10.15198,2.4,20.29999,2.4s10.15198-2.712,20.29999-2.712s10.16406-1.978,20.31506-1.978
						s10.15198,3.053,20.29999,3.053s10.15198,6.619,20.30603,6.619C899.80402,118.44101,26.684,118.44101,26.684,118.441z"/>
					<path id="Tracciato_148090" class="st8" d="M26.684,118.442c30.457-14.874,30.457,0,40.611,0s10.15201-72.69101,20.3-72.69101
						s10.152,58.9,20.3,58.9s10.153,5.851,20.306,5.851s10.15201-4.595,20.3-4.595s10.15199-0.665,20.306-0.665
						s10.15199,4.553,20.3,4.553s10.15201-22.374,20.3-22.374s10.153,18.543,20.306,18.543s10.15199-1.3,20.3-1.3
						c10.14799,0,10.15199,2.585,20.30598,2.585s10.15201-1.377,20.29999-1.377s10.15201-4.157,20.29999-4.157
						s10.15201,3.166,20.306,3.166s10.15201-8.808,20.29999-8.808s10.15201,1.2,20.29999,1.2s10.15302,21.171,20.306,21.171
						h20.29999c10.15201,0,10.15201-27.106,20.306-27.106s10.15201,11.55,20.29999,11.55s10.15201,1.227,20.29999,1.227
						s10.15302-3.465,20.306-3.465s10.15201-8.629,20.30002-8.629c10.14795,0,10.15198,13.448,20.30597,13.448
						s10.15198-1.644,20.29999-1.644s10.15198,5.157,20.29999,5.157s10.15198,9.462,20.30597,9.462s10.15302-23.069,20.29999-23.069
						s10.15302-5.519,20.29999-5.519s10.24316,4.62001,20.39215,4.62001s10.15198,12.835,20.29999,12.835
						s10.15198-6.052,20.30603-6.052s10.15198,1.914,20.29999,1.914s10.15198-2.735,20.29999-2.735s10.15302,2.039,20.30603,2.039
						s10.15198-2.722,20.29999-2.722s10.15198,5.727,20.30597,5.727s10.15198-2.1,20.29999-2.1s10.15198-0.965,20.29999-0.965
						s10.15302-6.006,20.30603-6.006s10.15198,4.595,20.29999,4.595s10.15198,17.434,20.30597,17.434
						c-30.4259-9.61001-30.4259-13.784-40.57892-13.784s-10.15302,0.305-20.30597,0.305s-10.15198,2.552-20.29999,2.552
						s-10.15198,3.182-20.29999,3.182s-10.15302-5.942-20.30603-5.942s-10.15198,2.748-20.29999,2.748
						s-10.15198-4.614-20.30597-4.614s-10.15198,7.409-20.29999,7.409s-10.15198-7.73-20.29999-7.73s-10.15302,8.2-20.30603,8.2
						S666.32208,99.48,656.17407,99.48s-10.15302-0.739-20.30597-0.739s-10.15198,6.065-20.29999,6.065
						s-10.15198,13.64-20.29999,13.64s-10.15302-6.4-20.30603-6.4s-10.15198-0.612-20.29999-0.612s-10.19415-2.504-20.34711-2.504
						s-10.15302,0.057-20.30597,0.057c-10.15302,0-10.15204-3.725-20.30002-3.725s-10.15201,6.75-20.306,6.75
						s-10.15201-5.147-20.29999-5.147s-10.15201-5-20.29999-5s-10.15302,16.575-20.306,16.575h-20.29999
						c-10.15201,0-10.15201-15.538-20.306-15.538s-10.15201,0.773-20.29999,0.773s-10.15201,5.16-20.29999,5.16
						s-10.15302,9.605-20.306,9.605s-10.15201-5.957-20.29999-5.957s-10.15201-2.746-20.29999-2.746s-10.15298-3-20.30598-3
						s-10.15201,1.715-20.3,1.715s-10.15199-16.445-20.306-16.445S199.278,111.06,189.12601,111.06s-10.15199-1.329-20.3-1.329
						s-10.153-0.525-20.306-0.525s-10.15201,2.876-20.3,2.876s-10.152-4.474-20.306-4.474S97.752,61.13,87.598,61.13
						s-10.151,57.312-20.3,57.312s-10.153-2.028-20.306-2.028S36.836,118.442,26.684,118.442z"/>
					<path id="Tracciato_148091" class="st7" d="M26.684,118.442c30.457-14.874,30.457,0,40.611,0s10.15201-72.69101,20.3-72.69101
						s10.152,58.9,20.3,58.9s10.153,5.851,20.306,5.851s10.15201-4.595,20.3-4.595s10.15199-0.665,20.306-0.665
						s10.15199,4.553,20.3,4.553s10.15201-22.374,20.3-22.374s10.153,18.543,20.306,18.543s10.15199-1.3,20.3-1.3
						c10.14799,0,10.15199,2.585,20.30598,2.585s10.15201-1.377,20.29999-1.377s10.15201-4.157,20.29999-4.157
						s10.15201,3.166,20.306,3.166s10.15201-8.808,20.29999-8.808s10.15201,1.2,20.29999,1.2s10.15302,21.171,20.306,21.171
						h20.29999c10.15201,0,10.15201-27.106,20.306-27.106s10.15201,11.55,20.29999,11.55s10.15201,1.227,20.29999,1.227
						s10.15302-3.465,20.306-3.465s10.15201-8.629,20.30002-8.629c10.14795,0,10.15198,13.448,20.30597,13.448
						s10.15198-1.644,20.29999-1.644s10.15198,5.157,20.29999,5.157s10.15198,9.462,20.30597,9.462s10.15302-23.069,20.29999-23.069
						s10.15302-5.519,20.29999-5.519s10.24316,4.62001,20.39215,4.62001s10.15198,12.835,20.29999,12.835
						s10.15198-6.052,20.30603-6.052s10.15198,1.914,20.29999,1.914s10.15198-2.735,20.29999-2.735s10.15302,2.039,20.30603,2.039
						s10.15198-2.722,20.29999-2.722s10.15198,5.727,20.30597,5.727s10.15198-2.1,20.29999-2.1s10.15198-0.965,20.29999-0.965
						s10.15302-6.006,20.30603-6.006s10.15198,4.595,20.29999,4.595s10.15198,17.434,20.30597,17.434
						c-30.4259-9.61001-30.4259-13.784-40.57892-13.784s-10.15302,0.305-20.30597,0.305s-10.15198,2.552-20.29999,2.552
						s-10.15198,3.182-20.29999,3.182s-10.15302-5.942-20.30603-5.942s-10.15198,2.748-20.29999,2.748
						s-10.15198-4.614-20.30597-4.614s-10.15198,7.409-20.29999,7.409s-10.15198-7.73-20.29999-7.73s-10.15302,8.2-20.30603,8.2
						S666.32208,99.48,656.17407,99.48s-10.15302-0.739-20.30597-0.739s-10.15198,6.065-20.29999,6.065
						s-10.15198,13.64-20.29999,13.64s-10.15302-6.4-20.30603-6.4s-10.15198-0.612-20.29999-0.612s-10.19415-2.504-20.34711-2.504
						s-10.15302,0.057-20.30597,0.057c-10.15302,0-10.15204-3.725-20.30002-3.725s-10.15201,6.75-20.306,6.75
						s-10.15201-5.147-20.29999-5.147s-10.15201-5-20.29999-5s-10.15302,16.575-20.306,16.575h-20.29999
						c-10.15201,0-10.15201-15.538-20.306-15.538s-10.15201,0.773-20.29999,0.773s-10.15201,5.16-20.29999,5.16
						s-10.15302,9.605-20.306,9.605s-10.15201-5.957-20.29999-5.957s-10.15201-2.746-20.29999-2.746s-10.15298-3-20.30598-3
						s-10.15201,1.715-20.3,1.715s-10.15199-16.445-20.306-16.445S199.278,111.06,189.12601,111.06s-10.15199-1.329-20.3-1.329
						s-10.153-0.525-20.306-0.525s-10.15201,2.876-20.3,2.876s-10.152-4.474-20.306-4.474S97.752,61.13,87.598,61.13
						s-10.151,57.312-20.3,57.312s-10.153-2.028-20.306-2.028S36.836,118.442,26.684,118.442z"/>
				</g>
				<g id="Isolation_Mode" transform="translate(13.604 -161.136)">
					<g class="st2">
						<path d="M6.35654,3.03404h0.61963L1.68906,9.99986H1.06943L6.35654,3.03404z M1.16953,4.90221
							c0-1.01855,0.67969-1.93848,1.64893-1.93848c0.70947,0,1.12939,0.5,1.12939,1.21973
							c0,0.97949-0.69971,1.91895-1.64893,1.91895C1.50937,6.1024,1.16953,5.5526,1.16953,4.90221z M3.46836,4.2733
							c0-0.45996-0.25-0.83008-0.72998-0.83008c-0.61963,0-1.08936,0.67969-1.08936,1.35937
							c0,0.42969,0.20996,0.83008,0.71973,0.83008C2.98838,5.63268,3.46836,4.95299,3.46836,4.2733z M4.05771,8.87096
							c0-1.01953,0.67969-1.93945,1.64941-1.93945c0.70947,0,1.13916,0.50977,1.13916,1.21973
							c0,0.99902-0.71973,1.92871-1.64893,1.92871C4.39756,10.07994,4.05771,9.53014,4.05771,8.87096z M6.35654,8.24107
							c0-0.45996-0.25-0.83008-0.72949-0.83008c-0.61963,0-1.08936,0.67969-1.08936,1.36914
							c0,0.44043,0.21973,0.82031,0.71973,0.82031C5.87705,9.60045,6.35654,8.92076,6.35654,8.24107z"/>
						<path d="M13.76816,3.69322h-2.40869l0.12988-0.65918h5.54736l-0.13037,0.65918h-2.41846L13.2584,9.99986h-0.70947
							L13.76816,3.69322z"/>
						<path d="M21.1373,5.07213l-4.0376,6.9668h-0.75977l1.22949-2.11914l-1.13965-4.84766h0.74951l0.88965,3.97852l2.29883-3.97852
							C20.36776,5.07213,21.1373,5.07213,21.1373,5.07213z"/>
						<path d="M26.3165,6.95201c0,1.56836-1.15918,3.12793-2.73828,3.12793c-0.66992,0-1.22949-0.28027-1.51904-0.72949
							l-0.52979,2.68848h-0.75977l1.36914-6.9668h0.75l-0.11035,0.57031c0.42969-0.41992,1.0498-0.64941,1.66943-0.64941
							C25.66709,4.99303,26.3165,5.78209,26.3165,6.95201z M25.63682,7.02135c0-0.85938-0.46973-1.38867-1.28906-1.38867
							c-1.11963,0-1.96875,0.99902-2.09863,2.16797c-0.11035,0.99023,0.36963,1.64941,1.2793,1.64941
							C24.77744,9.45006,25.63682,8.18053,25.63682,7.02135z"/>
						<path d="M27.78916,7.75084c-0.02979,0.16016-0.0498,0.29004-0.0498,0.4502c0,0.78906,0.44971,1.24902,1.26904,1.24902
							c0.59961,0,1.04932-0.17969,1.56934-0.64941l0.41992,0.46973c-0.66992,0.5791-1.2793,0.80957-2.03906,0.80957
							c-1.2793,0-1.87891-0.7998-1.87891-1.89941c0-1.64844,1.11914-3.1875,2.7085-3.1875c1.2793,0,1.77881,0.83887,1.77881,1.77832
							c0,0.2998-0.06982,0.7002-0.15967,0.97949C31.40733,7.75085,27.78916,7.75085,27.78916,7.75084z M27.89902,7.19127h2.96826
							c0.05029-0.17969,0.07031-0.34961,0.07031-0.5c0-0.5791-0.3501-1.0791-1.18945-1.0791
							C28.81846,5.61217,28.15879,6.31236,27.89902,7.19127z"/>
						<path d="M34.99912,8.09068c0-1.62891,1.23926-3.09766,2.86865-3.09766c1.21924,0,1.95898,0.81934,1.95898,1.97852
							c0,1.63867-1.25928,3.1084-2.87842,3.1084C35.7291,10.07994,34.99912,9.2606,34.99912,8.09068z M39.15684,6.97154
							c0-0.81934-0.46973-1.36914-1.33887-1.36914c-1.2793,0-2.13916,1.21875-2.13916,2.49805
							c0,0.82031,0.46973,1.37012,1.31934,1.37012C38.2877,9.47057,39.15684,8.24107,39.15684,6.97154z"/>
						<path d="M41.71836,5.6024h-1.03955l0.11035-0.53027h1.03906l0.1499-0.72949c0.2002-0.96875,0.73975-1.38867,1.59912-1.38867
							c0.31006,0,0.54004,0.08984,0.73975,0.19922l-0.2998,0.50977c-0.14014-0.08984-0.27979-0.12988-0.41992-0.12988
							c-0.60938,0-0.85938,0.41992-0.94922,0.86035l-0.14014,0.67871h1.4292L43.82725,5.6024H42.4083l-0.85986,4.39746h-0.67969
							L41.71836,5.6024z"/>
						<path d="M46.81944,8.92076l1.14941-5.88672h0.67969l-1.13965,5.89648c-0.08008,0.39941,0.03027,0.54004,0.31982,0.54004
							c0.1499,0,0.31006-0.03027,0.5-0.09082L48.2584,9.95982c-0.26953,0.08008-0.50977,0.12012-0.68945,0.12012
							C46.9791,10.07994,46.66953,9.70006,46.81944,8.92076z"/>
						<path d="M50.17832,5.07213h0.68994l-0.95947,4.92773h-0.68994L50.17832,5.07213z M50.5582,3.03404h0.71973l-0.19971,1.01953
							H50.3585L50.5582,3.03404z"/>
						<path d="M51.28916,8.77037l0.6499-0.21973c0.10986,0.5,0.49951,0.90918,1.30908,0.90918
							c0.68994,0,1.23926-0.28906,1.23926-0.92871c0-0.99023-2.43848-0.66992-2.43848-2.08887
							c0-0.87012,0.78955-1.44922,1.80908-1.44922c0.85938,0,1.45898,0.39941,1.729,1.03906l-0.5996,0.26954
							c-0.22021-0.47949-0.56982-0.68945-1.15967-0.68945c-0.60938,0-1.09912,0.25977-1.09912,0.75977
							c0,0.93945,2.43848,0.60938,2.43848,2.08887c0,1.0293-0.86963,1.61914-1.92871,1.61914
							C52.18906,10.07994,51.45908,9.5106,51.28916,8.77037z"/>
						<path d="M57.21885,8.82018c-0.02002,0.10059-0.03027,0.2002-0.03027,0.25977c0,0.2998,0.16992,0.41992,0.47998,0.41992
							c0.15967,0,0.37939-0.04004,0.61963-0.12012l-0.07031,0.57031c-0.25977,0.08008-0.5293,0.12988-0.75928,0.12988
							c-0.56982,0-0.95947-0.28027-0.95947-0.87988c0-0.12988,0.02002-0.2793,0.04004-0.37988l0.61963-3.21777h-0.81982
							l0.10986-0.53027h0.80957l0.27002-1.37891l0.78955-0.51953l-0.36963,1.89844h1.18945L59.0377,5.6024h-1.18945
							L57.21885,8.82018z"/>
						<path d="M59.18906,8.77037l0.6499-0.21973c0.10986,0.5,0.49951,0.90918,1.30908,0.90918
							c0.68994,0,1.23926-0.28906,1.23926-0.92871c0-0.99023-2.43848-0.66992-2.43848-2.08887
							c0-0.87012,0.78955-1.44922,1.80908-1.44922c0.85938,0,1.45898,0.39941,1.729,1.03906l-0.59961,0.26953
							c-0.22021-0.47949-0.56982-0.68945-1.15967-0.68945c-0.60938,0-1.09912,0.25977-1.09912,0.75977
							c0,0.93945,2.43848,0.60938,2.43848,2.08887c0,1.0293-0.86963,1.61914-1.92871,1.61914
							C60.08897,10.07994,59.35899,9.5106,59.18906,8.77037z"/>
						<path d="M67.73838,5.07213h0.68994l-0.95947,4.92773h-0.68994L67.73838,5.07213z M68.11826,3.03404h0.71973l-0.19971,1.01953
							h-0.71973L68.11826,3.03404z"/>
						<path d="M73.74619,6.37193c0,0.26953-0.0498,0.54004-0.06982,0.63965l-0.57959,2.98828h-0.68994l0.56982-2.92871
							c0.02979-0.15918,0.06982-0.35938,0.06982-0.56934c0-0.5498-0.25977-0.89941-0.9292-0.89941
							c-1.07959,0-1.59912,0.94922-1.8291,2.14844L69.8585,9.99986h-0.68994l0.95947-4.92773h0.68994l-0.12012,0.57031
							c0.45996-0.46973,1.07959-0.64941,1.61914-0.64941C73.25645,4.99303,73.74619,5.53209,73.74619,6.37193z"/>
						<path d="M78.46787,8.82018c-0.01953,0.10059-0.02979,0.2002-0.02979,0.25977c0,0.2998,0.16992,0.41992,0.47998,0.41992
							c0.15967,0,0.37939-0.04004,0.61963-0.12012l-0.07031,0.57031c-0.25977,0.08008-0.5293,0.12988-0.75928,0.12988
							c-0.56982,0-0.95947-0.28027-0.95947-0.87988c0-0.12988,0.02002-0.2793,0.04004-0.37988L78.4083,5.6024h-0.81982
							l0.10986-0.53027h0.80957l0.27002-1.37891l0.78955-0.51953l-0.36963,1.89844h1.18896L80.28721,5.6024h-1.18945
							L78.46787,8.82018z"/>
						<path d="M84.91611,7.01158l-0.57959,2.98828h-0.68994l0.56982-2.92871c0.08984-0.44922,0.25977-1.46875-0.85938-1.46875
							c-1.08936,0-1.59912,0.94922-1.8291,2.14844l-0.42969,2.24902H80.4083l1.35938-6.96582h0.68945l-0.51953,2.6084
							c0.45996-0.46973,1.06934-0.64941,1.60938-0.64941C84.68613,4.99303,85.15586,5.78209,84.91611,7.01158z"/>
						<path d="M86.61826,7.75084c-0.02979,0.16016-0.0498,0.29004-0.0498,0.4502c0,0.78906,0.44971,1.24902,1.26904,1.24902
							c0.59961,0,1.04932-0.17969,1.56934-0.64941l0.41992,0.46973c-0.66992,0.5791-1.2793,0.80957-2.03906,0.80957
							c-1.2793,0-1.87891-0.7998-1.87891-1.89941c0-1.64844,1.11914-3.1875,2.7085-3.1875c1.2793,0,1.77881,0.83887,1.77881,1.77832
							c0,0.2998-0.06982,0.7002-0.15967,0.97949C90.23645,7.75085,86.61826,7.75085,86.61826,7.75084z M86.72813,7.19127h2.96826
							c0.05029-0.17969,0.07031-0.34961,0.07031-0.5c0-0.5791-0.3501-1.0791-1.18945-1.0791
							C87.64756,5.61217,86.98789,6.31236,86.72813,7.19127z"/>
						<path d="M94.89756,8.82018c-0.01953,0.10059-0.02979,0.2002-0.02979,0.25977c0,0.2998,0.16992,0.41992,0.47998,0.41992
							c0.15967,0,0.37939-0.04004,0.61963-0.12012l-0.07031,0.57031c-0.25977,0.08008-0.5293,0.12988-0.75928,0.12988
							c-0.56982,0-0.95947-0.28027-0.95947-0.87988c0-0.12988,0.02002-0.2793,0.04004-0.37988l0.61963-3.21777h-0.81982
							l0.10986-0.53027h0.80957l0.27002-1.37891l0.78955-0.51953l-0.36963,1.89844h1.18896L96.7169,5.6024h-1.18945
							L94.89756,8.82018z"/>
						<path d="M97.74815,7.75084c-0.02979,0.16016-0.0498,0.29004-0.0498,0.4502c0,0.78906,0.44971,1.24902,1.26904,1.24902
							c0.59961,0,1.04932-0.17969,1.56934-0.64941l0.41992,0.46973c-0.66992,0.5791-1.2793,0.80957-2.03906,0.80957
							c-1.2793,0-1.87891-0.7998-1.87891-1.89941c0-1.64844,1.11914-3.1875,2.7085-3.1875c1.2793,0,1.77881,0.83887,1.77881,1.77832
							c0,0.2998-0.06982,0.7002-0.15967,0.97949C101.36633,7.75085,97.74815,7.75085,97.74815,7.75084z M97.85801,7.19127h2.96826
							c0.05029-0.17969,0.07031-0.34961,0.07031-0.5c0-0.5791-0.3501-1.0791-1.18945-1.0791
							C98.77744,5.61217,98.11777,6.31236,97.85801,7.19127z"/>
						<path d="M103.85752,7.51158l-1.29932-2.43945h0.79932l1.01953,1.97949l1.80908-1.97949h0.84961l-2.29883,2.47949
							l1.30908,2.44824h-0.80957l-1.01904-1.99902l-1.79932,1.99902h-0.85938L103.85752,7.51158z"/>
						<path d="M108.27744,8.82018c-0.01953,0.10059-0.02979,0.2002-0.02979,0.25977c0,0.2998,0.16992,0.41992,0.47998,0.41992
							c0.15967,0,0.37939-0.04004,0.61963-0.12012l-0.07031,0.57031c-0.25977,0.08008-0.5293,0.12988-0.75928,0.12988
							c-0.56982,0-0.95947-0.28027-0.95947-0.87988c0-0.12988,0.02002-0.2793,0.04004-0.37988l0.61963-3.21777h-0.81982
							l0.10986-0.53027h0.80957l0.27002-1.37891l0.78955-0.51953l-0.36963,1.89844h1.18896l-0.09961,0.53027h-1.18945
							L108.27744,8.82018z"/>
					</g>
				</g>
			</g>
		</g>
	</g>
</g>
</svg>
