<?xml version="1.0" encoding="utf-8"?>
<!-- Generator: Adobe Illustrator 25.1.0, SVG Export Plug-In . SVG Version: 6.00 Build 0)  -->
<svg version="1.1" id="Livello_1" xmlns="http://www.w3.org/2000/svg" xmlns:xlink="http://www.w3.org/1999/xlink" x="0px" y="0px"
	 viewBox="0 0 250 151" enable-background="new 0 0 250 151" xml:space="preserve">
<g>
	<defs>
		<rect id="SVGID_1_" y="0" width="250" height="151"/>
	</defs>
	<clipPath id="SVGID_2_">
		<use xlink:href="#SVGID_1_"  overflow="visible"/>
	</clipPath>
	<g id="zoom-01" clip-path="url(#SVGID_2_)">
		<g id="axis">
			<path id="Tracciato_148113" d="M253.51099,132.105L253.51099,132.105z"/>
			<line id="Linea_7861" fill="none" stroke="#000000" stroke-width="0.5" x1="85.99" y1="131.314" x2="85.99" y2="136.058"/>
			
				<line id="Linea_7862" fill="none" stroke="#000000" stroke-width="0.5" x1="142.62199" y1="131.314" x2="142.62199" y2="136.058"/>
			<line id="Linea_7863" fill="none" stroke="#5151FC" stroke-width="0.5" x1="116.278" y1="132.05099" x2="116.278" y2="136.058"/>
			
				<line id="Linea_7864" fill="none" stroke="#000000" stroke-width="0.5" x1="199.25301" y1="131.314" x2="199.25301" y2="136.058"/>
			<line id="Linea_7866" fill="none" stroke="#000000" stroke-width="0.5" x1="29.244" y1="115.897" x2="24.5" y2="115.897"/>
			<line id="Linea_7867" fill="none" stroke="#000000" stroke-width="0.5" x1="29.244" y1="100.084" x2="24.5" y2="100.084"/>
			<line id="Linea_7868" fill="none" stroke="#000000" stroke-width="0.5" x1="29.244" y1="84.271" x2="24.5" y2="84.271"/>
			<line id="Linea_7869" fill="none" stroke="#000000" stroke-width="0.5" x1="29.244" y1="68.459" x2="24.5" y2="68.459"/>
			<line id="Linea_7870" fill="none" stroke="#000000" stroke-width="0.5" x1="29.244" y1="52.646" x2="24.5" y2="52.646"/>
			<line id="Linea_7871" fill="none" stroke="#000000" stroke-width="0.5" x1="29.244" y1="36.833" x2="24.5" y2="36.833"/>
			<line id="Linea_7872" fill="none" stroke="#000000" stroke-width="0.5" x1="29.244" y1="21.021" x2="24.5" y2="21.021"/>
			<g enable-background="new    ">
				<path d="M0.64941,128.41229c0-1.6582,0.3501-3.58789,2.15918-3.58789c1.64893,0,2.21875,1.68945,2.21875,3.59863
					c0,1.9082-0.55957,3.56738-2.14893,3.56738C1.01953,131.99042,0.64941,130.07147,0.64941,128.41229z M4.2876,128.41229
					c0-1.6084-0.30957-2.92773-1.479-2.92773c-1.21924,0-1.44922,1.42871-1.44922,2.92773
					c0,1.46973,0.22998,2.91895,1.49902,2.91895C3.98779,131.33124,4.2876,129.99139,4.2876,128.41229z"/>
				<path d="M6.91943,130.7912h0.89941v1.09961H6.91943V130.7912z"/>
				<path d="M9.71924,128.41229c0-1.6582,0.3501-3.58789,2.15918-3.58789c1.64893,0,2.21875,1.68945,2.21875,3.59863
					c0,1.9082-0.55957,3.56738-2.14893,3.56738C10.08936,131.99042,9.71924,130.07147,9.71924,128.41229z M13.35742,128.41229
					c0-1.6084-0.30957-2.92773-1.479-2.92773c-1.21924,0-1.44922,1.42871-1.44922,2.92773
					c0,1.46973,0.22998,2.91895,1.49902,2.91895C13.05762,131.33124,13.35742,129.99139,13.35742,128.41229z"/>
				<path d="M15.34912,128.41229c0-1.6582,0.3501-3.58789,2.15918-3.58789c1.64893,0,2.21875,1.68945,2.21875,3.59863
					c0,1.9082-0.55957,3.56738-2.14893,3.56738C15.71924,131.99042,15.34912,130.07147,15.34912,128.41229z M18.9873,128.41229
					c0-1.6084-0.30957-2.92773-1.479-2.92773c-1.21924,0-1.44922,1.42871-1.44922,2.92773
					c0,1.46973,0.22998,2.91895,1.49902,2.91895C18.6875,131.33124,18.9873,129.99139,18.9873,128.41229z"/>
			</g>
			<g enable-background="new    ">
				<path d="M0.64941,96.78632c0-1.6582,0.3501-3.58789,2.15918-3.58789c1.64893,0,2.21875,1.68945,2.21875,3.59863
					c0,1.9082-0.55957,3.56738-2.14893,3.56738C1.01953,100.36444,0.64941,98.4455,0.64941,96.78632z M4.2876,96.78632
					c0-1.6084-0.30957-2.92773-1.479-2.92773c-1.21924,0-1.44922,1.42871-1.44922,2.92773
					c0,1.46973,0.22998,2.91895,1.49902,2.91895C3.98779,99.70526,4.2876,98.36542,4.2876,96.78632z"/>
				<path d="M6.91943,99.16522h0.89941v1.09961H6.91943V99.16522z"/>
				<path d="M12.72803,93.29901v6.96582h-0.68994v-5.16699h-1.73877v-0.67969h1.15918c0.34961,0,0.57959-0.12012,0.57959-0.53027
					v-0.58887H12.72803z"/>
				<path d="M15.43896,96.78632c0-1.6582,0.3501-3.58789,2.15918-3.58789c1.64893,0,2.21875,1.68945,2.21875,3.59863
					c0,1.9082-0.55957,3.56738-2.14893,3.56738C15.80908,100.36444,15.43896,98.4455,15.43896,96.78632z M19.07715,96.78632
					c0-1.6084-0.30957-2.92773-1.479-2.92773c-1.21924,0-1.44922,1.42871-1.44922,2.92773
					c0,1.46973,0.22998,2.91895,1.49902,2.91895C18.77734,99.70526,19.07715,98.36542,19.07715,96.78632z"/>
			</g>
			<g enable-background="new    ">
				<path d="M0.64941,65.16132c0-1.6582,0.3501-3.58789,2.15918-3.58789c1.64893,0,2.21875,1.68945,2.21875,3.59863
					c0,1.9082-0.55957,3.56738-2.14893,3.56738C1.01953,68.73944,0.64941,66.8205,0.64941,65.16132z M4.2876,65.16132
					c0-1.6084-0.30957-2.92773-1.479-2.92773c-1.21924,0-1.44922,1.42871-1.44922,2.92773
					c0,1.46973,0.22998,2.91895,1.49902,2.91895C3.98779,68.08026,4.2876,66.74042,4.2876,65.16132z"/>
				<path d="M6.91943,67.54022h0.89941v1.09961H6.91943V67.54022z"/>
				<path d="M14.29688,67.99042v0.64941H9.47949v-0.63965c1.62939-1.01953,3.79785-2.47852,3.79785-4.32715
					c0-0.87988-0.48975-1.43945-1.38916-1.43945c-1.05908,0-1.53906,0.76953-1.54883,1.79883l-0.67969-0.0498
					c0-1.36914,0.78955-2.40918,2.22852-2.40918c1.23926,0,2.08887,0.76953,2.08887,2.10938
					c0,1.77832-1.5791,3.19824-3.34814,4.30762H14.29688z"/>
				<path d="M15.38916,65.16132c0-1.6582,0.3501-3.58789,2.15918-3.58789c1.64893,0,2.21875,1.68945,2.21875,3.59863
					c0,1.9082-0.55957,3.56738-2.14893,3.56738C15.75928,68.73944,15.38916,66.8205,15.38916,65.16132z M19.02734,65.16132
					c0-1.6084-0.30957-2.92773-1.479-2.92773c-1.21924,0-1.44922,1.42871-1.44922,2.92773
					c0,1.46973,0.22998,2.91895,1.49902,2.91895C18.72754,68.08026,19.02734,66.74042,19.02734,65.16132z"/>
			</g>
			<g enable-background="new    ">
				<path d="M0.64941,33.53534c0-1.6582,0.3501-3.58789,2.15918-3.58789c1.64893,0,2.21875,1.68945,2.21875,3.59863
					c0,1.9082-0.55957,3.56738-2.14893,3.56738C1.01953,37.11346,0.64941,35.19452,0.64941,33.53534z M4.2876,33.53534
					c0-1.6084-0.30957-2.92773-1.479-2.92773c-1.21924,0-1.44922,1.42871-1.44922,2.92773
					c0,1.46973,0.22998,2.91895,1.49902,2.91895C3.98779,36.45428,4.2876,35.11444,4.2876,33.53534z"/>
				<path d="M6.91943,35.91425h0.89941v1.09961H6.91943V35.91425z"/>
				<path d="M9.39941,34.93475l0.67969-0.04004c0,0.99023,0.72998,1.55957,1.7793,1.55957
					c0.98926,0,1.73877-0.53027,1.73877-1.47949c0-1.17871-1.18896-1.33887-2.08887-1.33887v-0.58008
					c1.00977,0,1.71924-0.37988,1.71924-1.24902c0-0.81934-0.59961-1.19922-1.33936-1.19922
					c-0.86963,0-1.46924,0.47949-1.479,1.33887l-0.66992-0.0498c0-1.20898,0.90967-1.94922,2.11914-1.94922
					c1.09912,0,2.05859,0.63965,2.05859,1.7793c0,0.83984-0.5293,1.39941-1.04932,1.56934
					c0.75977,0.13965,1.41943,0.71973,1.41943,1.73926c0,1.31934-1.07959,2.07812-2.43896,2.07812
					C10.45898,37.11346,9.39941,36.34393,9.39941,34.93475z"/>
				<path d="M15.38916,33.53534c0-1.6582,0.3501-3.58789,2.15918-3.58789c1.64893,0,2.21875,1.68945,2.21875,3.59863
					c0,1.9082-0.55957,3.56738-2.14893,3.56738C15.75928,37.11346,15.38916,35.19452,15.38916,33.53534z M19.02734,33.53534
					c0-1.6084-0.30957-2.92773-1.479-2.92773c-1.21924,0-1.44922,1.42871-1.44922,2.92773
					c0,1.46973,0.22998,2.91895,1.49902,2.91895C18.72754,36.45428,19.02734,35.11444,19.02734,33.53534z"/>
			</g>
			<path id="Tracciato_148114" fill="none" stroke="#000000" d="M24.5,21.02h5.14l-0.332,110.554h221.186"/>
		</g>
		<g id="Raggruppa_24069">
			<path id="Tracciato_148101" opacity="0.73" fill="#5151FC" enable-background="new    " d="M253.51201,123.245
				c-12.2-0.10899-12.875-1.22301-26.338-1.22301c-14.158,0-14.158-1.981-28.31599-1.981s-14.158,6.24001-28.31599,6.24001
				s-14.158-5.07001-28.31599-5.07001s-14.158-61.4-28.316-61.4s-14.158,71.507-28.316,71.507h167.91798V123.245z"/>
			<path id="Tracciato_148102" opacity="0.702" fill="none" stroke="#000000" stroke-width="0.455" enable-background="new    " d="
				M253.51201,123.245c-12.2-0.10899-12.875-1.22301-26.338-1.22301c-14.158,0-14.158-1.981-28.31599-1.981
				s-14.158,6.24001-28.31599,6.24001s-14.158-5.07001-28.31599-5.07001s-14.158-61.4-28.316-61.4s-14.158,71.507-28.316,71.507
				h167.91798V123.245z"/>
			<path id="Tracciato_148103" fill="#FFA500" d="M253.51201,119.328c-12.2-0.559-12.875-6.238-26.338-6.238
				c-14.158,0-14.158,0.919-28.31599,0.919s-14.158,6.343-28.31599,6.343s-14.158-8.077-28.31599-8.077
				S128.069,30.963,113.911,30.963s-14.159,100.35101-28.316,100.35101c14.157,0,14.157-79.12501,28.316-79.12501
				s14.157,64.169,28.31599,64.169s14.157,6.176,28.31599,6.176s14.157-3.971,28.31599-3.971s14.157,0.725,28.31599,0.725
				c13.463,0,14.133,1.657,26.33801,1.821L253.51201,119.328z"/>
			<path id="Tracciato_148104" fill="#FFA500" d="M28.963,131.31401c14.158,0,14.158-2.8,28.317-2.8s14.157,2.8,28.316,2.8
				C71.437,131.31401,71.437,110.781,28.963,131.31401z"/>
			<path id="Tracciato_148105" opacity="0.702" fill="none" stroke="#000000" stroke-width="0.455" enable-background="new    " d="
				M253.51201,119.328c-12.2-0.559-12.875-6.238-26.338-6.238c-14.158,0-14.158,0.919-28.31599,0.919s-14.158,6.343-28.31599,6.343
				s-14.158-8.077-28.31599-8.077S128.069,30.963,113.911,30.963s-14.159,100.35101-28.316,100.35101
				c14.157,0,14.157-79.12501,28.316-79.12501s14.157,64.169,28.31599,64.169s14.157,6.176,28.31599,6.176
				s14.157-3.971,28.31599-3.971s14.157,0.725,28.31599,0.725c13.463,0,14.133,1.657,26.33801,1.821L253.51201,119.328z"/>
			<path id="Tracciato_148106" opacity="0.702" fill="none" stroke="#000000" stroke-width="0.455" enable-background="new    " d="
				M28.963,131.31401c14.158,0,14.158-2.8,28.317-2.8s14.157,2.8,28.316,2.8C71.437,131.31401,71.437,110.781,28.963,131.31401z"/>
			<path id="Tracciato_148107" fill="#FF3366" d="M253.51201,121.863c-12.2-0.10001-12.875-1.155-26.338-1.155
				c-14.158,0-14.158-1.009-28.31599-1.009s-14.158,3.92101-28.31599,3.92101s-14.158-5.18-28.31599-5.18
				S128.069,54.69,113.911,54.69S99.753,131.314,85.59499,131.314c14.157,0,14.157-71.507,28.316-71.507
				s14.157,61.40001,28.31599,61.40001s14.157,5.07001,28.31599,5.07001s14.157-6.24001,28.31599-6.24001
				s14.157,1.981,28.31599,1.981c13.463,0,14.133,1.114,26.33801,1.22301L253.51201,121.863z"/>
			<path id="Tracciato_148108" opacity="0.702" fill="none" stroke="#000000" stroke-width="0.455" enable-background="new    " d="
				M253.51201,121.863c-12.2-0.10001-12.875-1.155-26.338-1.155c-14.158,0-14.158-1.009-28.31599-1.009
				s-14.158,3.92101-28.31599,3.92101s-14.158-5.18-28.31599-5.18S128.069,54.69,113.911,54.69S99.753,131.314,85.59499,131.314
				c14.157,0,14.157-71.507,28.316-71.507s14.157,61.40001,28.31599,61.40001s14.157,5.07001,28.31599,5.07001
				s14.157-6.24001,28.31599-6.24001s14.157,1.981,28.31599,1.981c13.463,0,14.133,1.114,26.33801,1.22301L253.51201,121.863z"/>
			<path id="Tracciato_148109" fill="#00C19C" d="M253.51201,121.10999c-12.2-0.16299-12.875-1.821-26.338-1.821
				c-14.158,0-14.158-0.725-28.31599-0.725s-14.158,3.971-28.31599,3.971s-14.158-6.176-28.31599-6.176S128.069,52.19,113.911,52.19
				s-14.158,79.125-28.316,79.125c14.157,0,14.157-76.62401,28.316-76.62401s14.158,63.75101,28.31599,63.75101
				s14.157,5.18,28.31599,5.18s14.157-3.92101,28.31599-3.92101s14.157,1.009,28.31599,1.009c13.463,0,14.133,1.052,26.33801,1.155
				L253.51201,121.10999z"/>
			<path id="Tracciato_148110" fill="#00C19C" d="M28.963,131.31401h56.632C71.437,131.31401,71.437,128.51401,28.963,131.31401z"/>
			<path id="Tracciato_148111" opacity="0.702" fill="none" stroke="#000000" stroke-width="0.455" enable-background="new    " d="
				M28.963,131.31401h56.632C71.437,131.31401,71.437,128.51401,28.963,131.31401z"/>
			<path id="Tracciato_148112" opacity="0.702" fill="none" stroke="#000000" stroke-width="0.455" enable-background="new    " d="
				M253.51201,121.10999c-12.2-0.16299-12.875-1.821-26.338-1.821c-14.158,0-14.158-0.725-28.31599-0.725
				s-14.158,3.971-28.31599,3.971s-14.158-6.176-28.31599-6.176S128.069,52.19,113.911,52.19s-14.158,79.125-28.316,79.125
				c14.157,0,14.157-76.62401,28.316-76.62401s14.158,63.75101,28.31599,63.75101s14.157,5.18,28.31599,5.18
				s14.157-3.92101,28.31599-3.92101s14.157,1.009,28.31599,1.009c13.463,0,14.133,1.052,26.33801,1.155L253.51201,121.10999z"/>
		</g>
		<g enable-background="new    ">
			<path fill="#5151FC" d="M153.12793,50.27069h-2.86816l-1.03906,1.86914h-0.83008l3.95801-6.96582h0.58008l1.25879,6.96582
				h-0.74902L153.12793,50.27069z M153.01855,49.66132l-0.55957-3.36816l-1.86914,3.36816H153.01855z"/>
			<path fill="#5151FC" d="M159.8877,48.5119c0,0.26953-0.0498,0.54004-0.06934,0.63965l-0.58008,2.98828h-0.68945l0.56934-2.92871
				c0.03027-0.15918,0.07031-0.35938,0.07031-0.56934c0-0.5498-0.25977-0.89941-0.92969-0.89941
				c-1.0791,0-1.59863,0.94922-1.8291,2.14844L156,52.13983h-0.68945l0.95898-4.92773h0.69043l-0.12012,0.57031
				c0.45996-0.46973,1.0791-0.64941,1.61914-0.64941C159.39844,47.133,159.8877,47.67206,159.8877,48.5119z"/>
			<path fill="#5151FC" d="M161.42969,50.9201c0,1.05957,3.08887,0.18066,3.08887,1.84961c0,0.98926-1.0791,1.48926-2.37891,1.48926
				c-1.17969,0-1.93848-0.41016-1.93848-1.23926c0-0.16992,0.0293-0.33984,0.08008-0.53027l1.00879-0.64941
				c-0.31934-0.16016-0.53906-0.39941-0.53906-0.80957c0-0.49023,0.31934-0.84961,0.73926-1.09961
				c-0.16016-0.22949-0.25-0.5-0.25-0.81934c0-1.05957,0.98926-1.97852,2.19922-1.97852c0.48926,0,0.89941,0.14941,1.17871,0.40918
				l0.7998-0.59961l0.29004,0.4502l-0.79004,0.5791c0.08984,0.17969,0.12988,0.37988,0.12988,0.61035
				c0,1.11914-0.99902,1.97852-2.16895,1.97852c-0.37891,0-0.70898-0.08984-0.96875-0.24023
				C161.62988,50.45038,161.42969,50.65057,161.42969,50.9201z M161.76953,52.00018l-0.83887,0.68945
				c-0.03027,0.10938-0.04004,0.20996-0.04004,0.2793c0,0.5498,0.56934,0.70996,1.28906,0.70996
				c0.88965,0,1.64941-0.25,1.64941-0.80957C163.8291,52.1701,162.65918,52.21991,161.76953,52.00018z M161.91992,49.11151
				c0,0.5293,0.35938,0.87988,0.96973,0.87988c0.83887,0,1.47852-0.65039,1.47852-1.38965
				c0-0.55957-0.35938-0.88965-0.93945-0.88965C162.5791,47.7121,161.91992,48.40155,161.91992,49.11151z"/>
			<path fill="#5151FC" d="M165.90039,50.23065c0-1.62891,1.23926-3.09766,2.86816-3.09766
				c1.21973,0,1.95898,0.81934,1.95898,1.97852c0,1.63867-1.25879,3.1084-2.87793,3.1084
				C166.62988,52.21991,165.90039,51.40057,165.90039,50.23065z M170.05762,49.11151c0-0.81934-0.46973-1.36914-1.33887-1.36914
				c-1.2793,0-2.13867,1.21875-2.13867,2.49805c0,0.82031,0.46973,1.37012,1.31934,1.37012
				C169.18848,51.61053,170.05762,50.38104,170.05762,49.11151z"/>
			<path fill="#5151FC" d="M171.15039,50.91034l0.64941-0.21973c0.11035,0.5,0.5,0.90918,1.30957,0.90918
				c0.68945,0,1.23926-0.28906,1.23926-0.92871c0-0.99023-2.43848-0.66992-2.43848-2.08887
				c0-0.87012,0.78906-1.44922,1.80859-1.44922c0.85938,0,1.45898,0.39941,1.72949,1.03906l-0.59961,0.26953
				c-0.2207-0.47949-0.57031-0.68945-1.16016-0.68945c-0.60938,0-1.09863,0.25977-1.09863,0.75977
				c0,0.93945,2.43848,0.60938,2.43848,2.08887c0,1.0293-0.87012,1.61914-1.92871,1.61914
				C172.0498,52.21991,171.32031,51.65057,171.15039,50.91034z"/>
			<path fill="#5151FC" d="M176.00977,50.28046c0-1.62891,1.16016-3.14746,2.73926-3.14746
				c0.91895,0,1.55859,0.48926,1.74902,1.37891l-0.69043,0.21973c-0.08984-0.62988-0.51953-0.98926-1.10938-0.98926
				c-1.19922,0-1.99805,1.29883-1.99805,2.55859c0,0.72949,0.34961,1.30957,1.17871,1.30957
				c0.64941,0,1.22949-0.39062,1.53906-1.01953l0.58984,0.28906c-0.47949,0.86035-1.2793,1.33984-2.16895,1.33984
				C176.62012,52.21991,176.00977,51.38007,176.00977,50.28046z"/>
			<path fill="#5151FC" d="M181.91895,47.2121h0.69043l-0.95996,4.92773h-0.68945L181.91895,47.2121z M182.29883,45.17401h0.71973
				l-0.19922,1.01953h-0.71973L182.29883,45.17401z"/>
			<path fill="#5151FC" d="M188.49707,47.2121l-0.95898,4.92773h-0.67969l0.12988-0.65918
				c-0.42969,0.47949-1.08984,0.73926-1.75977,0.73926c-1.21875,0-1.86816-0.79004-1.86816-1.95898
				c0-1.56934,1.15918-3.12793,2.73828-3.12793c0.70996,0,1.28906,0.31934,1.56934,0.80957l0.13965-0.73047H188.49707z
				 M186.14844,47.7619c-1.24902,0-2.1084,1.26953-2.1084,2.42871c0,0.85938,0.46973,1.38965,1.28906,1.38965
				c1.11914,0,1.96875-1,2.09863-2.16895C187.53809,48.42206,187.05762,47.7619,186.14844,47.7619z"/>
			<path fill="#5151FC" d="M192.91895,47.2121h0.69043l-0.95996,4.92773h-0.68945L192.91895,47.2121z M193.29883,45.17401h0.71973
				l-0.19922,1.01953h-0.71973L193.29883,45.17401z"/>
			<path fill="#5151FC" d="M198.92773,48.5119c0,0.26953-0.0498,0.54004-0.07031,0.63965l-0.5791,2.98828h-0.69043l0.57031-2.92871
				c0.0293-0.15918,0.06934-0.35938,0.06934-0.56934c0-0.5498-0.25977-0.89941-0.92871-0.89941
				c-1.08008,0-1.59961,0.94922-1.8291,2.14844l-0.42969,2.24902h-0.69043l0.95996-4.92773h0.68945l-0.12012,0.57031
				c0.45996-0.46973,1.08008-0.64941,1.61914-0.64941C198.4375,47.133,198.92773,47.67206,198.92773,48.5119z"/>
			<path fill="#5151FC" d="M202.59961,50.28046c0-1.62891,1.15918-3.14746,2.73828-3.14746
				c0.91992,0,1.55957,0.48926,1.74902,1.37891l-0.68945,0.21973c-0.08984-0.62988-0.51953-0.98926-1.10938-0.98926
				c-1.19922,0-1.99902,1.29883-1.99902,2.55859c0,0.72949,0.34961,1.30957,1.17969,1.30957
				c0.64941,0,1.22949-0.39062,1.53906-1.01953l0.58984,0.28906c-0.48047,0.86035-1.2793,1.33984-2.16895,1.33984
				C203.20898,52.21991,202.59961,51.38007,202.59961,50.28046z"/>
			<path fill="#5151FC" d="M212.64746,47.2121l-0.95996,4.92773h-0.67969l0.12988-0.65918
				c-0.42969,0.47949-1.08887,0.73926-1.75879,0.73926c-1.21973,0-1.86914-0.79004-1.86914-1.95898
				c0-1.56934,1.15918-3.12793,2.73828-3.12793c0.70996,0,1.29004,0.31934,1.56934,0.80957l0.13965-0.73047H212.64746z
				 M210.29883,47.7619c-1.25,0-2.10938,1.26953-2.10938,2.42871c0,0.85938,0.46973,1.38965,1.28906,1.38965
				c1.12012,0,1.96973-1,2.09961-2.16895C211.6875,48.42206,211.20801,47.7619,210.29883,47.7619z"/>
			<path fill="#5151FC" d="M213.05957,50.91034l0.65039-0.21973c0.10938,0.5,0.49902,0.90918,1.30859,0.90918
				c0.69043,0,1.23926-0.28906,1.23926-0.92871c0-0.99023-2.43848-0.66992-2.43848-2.08887
				c0-0.87012,0.79004-1.44922,1.80957-1.44922c0.85938,0,1.45898,0.39941,1.72852,1.03906l-0.59961,0.26953
				c-0.21973-0.47949-0.56934-0.68945-1.15918-0.68945c-0.60938,0-1.09961,0.25977-1.09961,0.75977
				c0,0.93945,2.43848,0.60938,2.43848,2.08887c0,1.0293-0.86914,1.61914-1.92871,1.61914
				C213.95996,52.21991,213.22949,51.65057,213.05957,50.91034z"/>
			<path fill="#5151FC" d="M218.61914,49.89081c-0.0293,0.16016-0.0498,0.29004-0.0498,0.4502
				c0,0.78906,0.4502,1.24902,1.26953,1.24902c0.59961,0,1.0498-0.17969,1.56934-0.64941l0.41992,0.46973
				c-0.66992,0.5791-1.2793,0.80957-2.03906,0.80957c-1.2793,0-1.87891-0.7998-1.87891-1.89941
				c0-1.64844,1.11914-3.1875,2.70801-3.1875c1.2793,0,1.7793,0.83887,1.7793,1.77832c0,0.2998-0.07031,0.7002-0.16016,0.97949
				H218.61914z M218.72949,49.33124h2.96777c0.05078-0.17969,0.07031-0.34961,0.07031-0.5c0-0.5791-0.34961-1.0791-1.18945-1.0791
				C219.64844,47.75214,218.98926,48.45233,218.72949,49.33124z"/>
			<path fill="#5151FC" d="M227.01758,47.35272l-0.41992,0.5791c-0.12012-0.06934-0.33008-0.12988-0.58008-0.12988
				c-0.72949,0-1.49902,0.5-1.75879,1.86914l-0.46973,2.46875h-0.68945l0.95898-4.92773h0.69043l-0.14062,0.66992
				c0.44043-0.58984,1.09961-0.74902,1.5791-0.74902C226.47754,47.133,226.75781,47.19257,227.01758,47.35272z"/>
			<path fill="#5151FC" d="M234.44531,48.54218c0,0.26953-0.04004,0.40918-0.08008,0.63965l-0.56934,2.95801h-0.68945
				l0.5498-2.81836c0.04004-0.19043,0.0791-0.45996,0.0791-0.67969c0-0.47949-0.19922-0.89941-0.84863-0.89941
				c-0.97949,0-1.44922,0.95898-1.66992,2.05859l-0.45898,2.33887h-0.69043l0.56055-2.87891
				c0.04004-0.20898,0.06934-0.41895,0.06934-0.60938c0-0.5498-0.23926-0.90918-0.83887-0.90918
				c-0.99023,0-1.44922,0.94922-1.66992,2.05859l-0.45898,2.33887h-0.69043l0.9502-4.92773h0.66895l-0.11914,0.60059
				c0.39941-0.45996,0.99902-0.67969,1.51855-0.67969c0.58984,0,1.09961,0.2793,1.21973,0.94922
				c0.42969-0.64941,1.11914-0.94922,1.7793-0.94922C234.05566,47.133,234.44531,47.72186,234.44531,48.54218z"/>
			<path fill="#5151FC" d="M240.5166,47.2121l-0.95898,4.92773h-0.67969l0.12988-0.65918
				c-0.42969,0.47949-1.08984,0.73926-1.75977,0.73926c-1.21875,0-1.86816-0.79004-1.86816-1.95898
				c0-1.56934,1.15918-3.12793,2.73828-3.12793c0.70996,0,1.28906,0.31934,1.56934,0.80957l0.13965-0.73047H240.5166z
				 M238.16797,47.7619c-1.24902,0-2.1084,1.26953-2.1084,2.42871c0,0.85938,0.46973,1.38965,1.28906,1.38965
				c1.11914,0,1.96875-1,2.09863-2.16895C239.55762,48.42206,239.07715,47.7619,238.16797,47.7619z"/>
		</g>
		
			<circle id="Ellisse_33414" fill="none" stroke="#5151FC" stroke-width="0.5" stroke-miterlimit="10" cx="114.165" cy="50.817" r="28.666"/>
		<g id="Raggruppa_24068">
			<g enable-background="new    ">
				<path d="M77.85205,140.47968v6.96484h-0.68994v-5.16602h-1.73877v-0.67969h1.15918c0.34961,0,0.57959-0.12109,0.57959-0.53125
					v-0.58789H77.85205z"/>
				<path d="M85.06104,142.70819c0,0.42969-0.14014,0.87891-0.35986,1.23828l-2.09912,3.49805h-0.7793l1.60889-2.61719
					c-0.35986,0.12891-0.79932,0.19922-1.229,0.11914c-1.0498-0.18945-1.87891-1.10938-1.87891-2.22852
					c0-1.26953,1.05908-2.31836,2.36865-2.31836C83.9917,140.3996,85.06104,141.43866,85.06104,142.70819z M84.36133,142.71796
					c0-0.91016-0.73975-1.66016-1.66895-1.66016c-0.91943,0-1.66943,0.75-1.66943,1.66016c0,0.9082,0.75,1.64844,1.66943,1.64844
					S84.36133,143.62616,84.36133,142.71796z"/>
				<path d="M91.02051,145.12616v0.66016h-1.12939v1.6582h-0.68945v-1.6582h-3.48828v-0.44922l3.53809-4.85742h0.63965v4.64648
					H91.02051z M89.20166,145.12616v-3.60742l-2.56836,3.60742H89.20166z"/>
				<path d="M96.69043,145.12616v0.66016h-1.12939v1.6582h-0.68945v-1.6582H91.3833v-0.44922l3.53809-4.85742h0.63965v4.64648
					H96.69043z M94.87158,145.12616v-3.60742l-2.56836,3.60742H94.87158z"/>
			</g>
			<g enable-background="new    ">
				<path d="M135.48438,140.47968v6.96484h-0.69043v-5.16602h-1.73828v-0.67969h1.15918c0.34961,0,0.5791-0.12109,0.5791-0.53125
					v-0.58789H135.48438z"/>
				<path d="M142.69336,142.70819c0,0.42969-0.14062,0.87891-0.36035,1.23828l-2.09863,3.49805h-0.7793l1.6084-2.61719
					c-0.35938,0.12891-0.79883,0.19922-1.22852,0.11914c-1.0498-0.18945-1.87891-1.10938-1.87891-2.22852
					c0-1.26953,1.05859-2.31836,2.36816-2.31836C141.62402,140.3996,142.69336,141.43866,142.69336,142.70819z M141.99316,142.71796
					c0-0.91016-0.73926-1.66016-1.66895-1.66016c-0.91895,0-1.66895,0.75-1.66895,1.66016c0,0.9082,0.75,1.64844,1.66895,1.64844
					C141.24414,144.36639,141.99316,143.62616,141.99316,142.71796z"/>
				<path d="M148.65234,145.12616v0.66016h-1.12891v1.6582h-0.68945v-1.6582h-3.48828v-0.44922l3.53809-4.85742h0.63965v4.64648
					H148.65234z M146.83398,145.12616v-3.60742l-2.56836,3.60742H146.83398z"/>
				<path d="M154.04297,145.20624c0,1.26953-1.05957,2.31836-2.36914,2.31836c-1.29883,0-2.36816-1.03906-2.36816-2.30859
					c0-0.42969,0.13965-0.87891,0.35938-1.23828l2.09863-3.49805h0.78027l-1.60938,2.61719
					c0.35938-0.12891,0.7998-0.19922,1.22949-0.11914C153.21289,143.16718,154.04297,144.0871,154.04297,145.20624z
					 M153.34277,145.20624c0-0.91016-0.74902-1.64844-1.66895-1.64844c-0.91895,0-1.66895,0.73828-1.66895,1.64844
					s0.74023,1.6582,1.66895,1.6582C152.59375,146.86444,153.34277,146.11639,153.34277,145.20624z"/>
			</g>
			<g enable-background="new    ">
				<path d="M193.11621,140.47968v6.96484h-0.69043v-5.16602h-1.73828v-0.67969h1.15918c0.34961,0,0.5791-0.12109,0.5791-0.53125
					v-0.58789H193.11621z"/>
				<path d="M200.3252,142.70819c0,0.42969-0.13965,0.87891-0.36035,1.23828l-2.09863,3.49805h-0.7793l1.6084-2.61719
					c-0.35938,0.12891-0.79883,0.19922-1.22852,0.11914c-1.0498-0.18945-1.87891-1.10938-1.87891-2.22852
					c0-1.26953,1.05859-2.31836,2.36914-2.31836C199.25586,140.3996,200.3252,141.43866,200.3252,142.70819z M199.625,142.71796
					c0-0.91016-0.73926-1.66016-1.66797-1.66016c-0.91992,0-1.66992,0.75-1.66992,1.66016c0,0.9082,0.75,1.64844,1.66992,1.64844
					C198.87598,144.36639,199.625,143.62616,199.625,142.71796z"/>
				<path d="M206.28516,145.12616v0.66016h-1.12988v1.6582h-0.68945v-1.6582h-3.48828v-0.44922l3.53809-4.85742h0.63965v4.64648
					H206.28516z M204.46582,145.12616v-3.60742l-2.56836,3.60742H204.46582z"/>
				<path d="M206.94727,145.47577c0-0.87891,0.49023-1.54883,1.29883-1.81836c-0.54883-0.26953-0.9082-0.82031-0.9082-1.50977
					c0-1.10938,0.98828-1.74805,1.97852-1.74805c1.06934,0,1.95898,0.69922,1.95898,1.78906
					c0,0.67969-0.37988,1.21875-0.91016,1.46875c0.7998,0.26953,1.2793,0.94922,1.2793,1.81836
					c0,1.36914-1.14844,2.04883-2.33789,2.04883S206.94727,146.84491,206.94727,145.47577z M210.96484,145.42694
					c0-0.91016-0.68945-1.49023-1.6582-1.49023c-0.98047,0-1.66992,0.58008-1.66992,1.49023c0,0.95898,0.7793,1.4375,1.66992,1.4375
					C210.18555,146.86444,210.96484,146.38593,210.96484,145.42694z M210.5957,142.23749c0-0.68945-0.5293-1.17969-1.2793-1.17969
					c-0.68945,0-1.28906,0.42969-1.28906,1.15039c0,0.76953,0.5293,1.24805,1.28906,1.24805
					C210.06641,143.45624,210.5957,142.97772,210.5957,142.23749z"/>
			</g>
			<g enable-background="new    ">
				<path fill="#5151FC" d="M109.24268,140.3576l-1.34912,6.96582h-0.67969l1.00928-5.2373h-1.73926l0.12012-0.60938h1.13916
					c0.3999,0,0.66992-0.17969,0.73975-0.55957l0.1001-0.55957H109.24268z"/>
				<path fill="#5151FC" d="M116.05176,142.19647c0,0.58984-0.24951,1.16895-0.63965,1.65918l-2.77832,3.46777h-0.81934
					l2.15869-2.63867c-0.22998,0.11035-0.47998,0.17969-0.73975,0.17969c-1.20947,0-1.99902-0.78906-1.99902-1.88867
					c0-1.41895,1.37939-2.69824,2.82861-2.69824C115.22217,140.27753,116.05176,141.11639,116.05176,142.19647z
					 M115.35205,142.23651c0-0.74023-0.55957-1.2998-1.35889-1.2998c-1.0498,0-2.05908,0.97949-2.05908,2.00879
					c0,0.74023,0.5498,1.2998,1.34912,1.2998C114.35303,144.2453,115.35205,143.26581,115.35205,142.23651z"/>
				<path fill="#5151FC" d="M121.51172,145.00507l-0.12988,0.65918h-1.13916l-0.31006,1.65918h-0.68945l0.31982-1.65918h-3.48828
					l0.08008-0.44922l4.47754-4.85742h0.6499l-0.8999,4.64746H121.51172z M120.39258,141.39667l-3.2583,3.6084h2.55859
					L120.39258,141.39667z"/>
				<path fill="#5151FC" d="M124.34326,141.01678l-0.81934,2.22852c0.50977-0.40918,1.06934-0.5791,1.56885-0.5791
					c1.15918,0,1.87891,0.78906,1.87891,1.8584c0,1.51953-1.37891,2.87891-2.89795,2.87891
					c-1.22949,0-2.00928-0.87012-1.99902-2.0293l0.67969-0.06934c-0.01025,0.81934,0.47949,1.43848,1.37891,1.43848
					c1.17969,0,2.12842-1.09863,2.12842-2.19824c0-0.70996-0.46924-1.23926-1.31885-1.23926
					c-0.6792,0-1.25928,0.34961-1.70898,0.85938l-0.66943-0.20996l1.3291-3.59766h3.60742l-0.12988,0.65918H124.34326z"/>
			</g>
		</g>
		<g id="Isolation_Mode" transform="translate(23.226 5.722)">
			<g enable-background="new    ">
				<path d="M6.35652,3.03404h0.61963L1.68904,9.99986H1.06941L6.35652,3.03404z M1.16951,4.90221
					c0-1.01855,0.67969-1.93848,1.64893-1.93848c0.70947,0,1.12939,0.5,1.12939,1.21973c0,0.97949-0.69971,1.91895-1.64893,1.91895
					C1.50935,6.1024,1.16951,5.5526,1.16951,4.90221z M3.46834,4.2733c0-0.45996-0.25-0.83008-0.72998-0.83008
					c-0.61963,0-1.08936,0.67969-1.08936,1.35937c0,0.42969,0.20996,0.83008,0.71973,0.83008
					C2.98836,5.63268,3.46834,4.95299,3.46834,4.2733z M4.05769,8.87096c0-1.01953,0.67969-1.93945,1.64941-1.93945
					c0.70947,0,1.13916,0.50977,1.13916,1.21973c0,0.99902-0.71973,1.92871-1.64893,1.92871
					C4.39754,10.07994,4.05769,9.53014,4.05769,8.87096z M6.35652,8.24107c0-0.45996-0.25-0.83008-0.72949-0.83008
					c-0.61963,0-1.08936,0.67969-1.08936,1.36914c0,0.44043,0.21973,0.82031,0.71973,0.82031
					C5.87703,9.60045,6.35652,8.92076,6.35652,8.24107z"/>
				<path d="M13.76814,3.69322h-2.40869l0.12988-0.65918h5.54736l-0.13037,0.65918h-2.41846l-1.22949,6.30664H12.5489
					L13.76814,3.69322z"/>
				<path d="M21.13728,5.07213l-4.0376,6.9668h-0.75977l1.22949-2.11914l-1.13965-4.84766h0.74951l0.88965,3.97852l2.29883-3.97852
					H21.13728z"/>
				<path d="M26.31648,6.95201c0,1.56836-1.15918,3.12793-2.73828,3.12793c-0.66992,0-1.22949-0.28027-1.51904-0.72949
					l-0.52979,2.68848h-0.75977l1.36914-6.9668h0.75l-0.11035,0.57031c0.42969-0.41992,1.0498-0.64941,1.66943-0.64941
					C25.66707,4.99303,26.31648,5.78209,26.31648,6.95201z M25.63679,7.02135c0-0.85938-0.46973-1.38867-1.28906-1.38867
					c-1.11963,0-1.96875,0.99902-2.09863,2.16797c-0.11035,0.99023,0.36963,1.64941,1.2793,1.64941
					C24.77742,9.45006,25.63679,8.18053,25.63679,7.02135z"/>
				<path d="M27.78914,7.75084c-0.02979,0.16016-0.0498,0.29004-0.0498,0.4502c0,0.78906,0.44971,1.24902,1.26904,1.24902
					c0.59961,0,1.04932-0.17969,1.56934-0.64941l0.41992,0.46973c-0.66992,0.5791-1.2793,0.80957-2.03906,0.80957
					c-1.2793,0-1.87891-0.7998-1.87891-1.89941c0-1.64844,1.11914-3.1875,2.7085-3.1875c1.2793,0,1.77881,0.83887,1.77881,1.77832
					c0,0.2998-0.06982,0.7002-0.15967,0.97949H27.78914z M27.899,7.19127h2.96826c0.05029-0.17969,0.07031-0.34961,0.07031-0.5
					c0-0.5791-0.3501-1.0791-1.18945-1.0791C28.81843,5.61217,28.15877,6.31236,27.899,7.19127z"/>
				<path d="M34.9991,8.09068c0-1.62891,1.23926-3.09766,2.86865-3.09766c1.21924,0,1.95898,0.81934,1.95898,1.97852
					c0,1.63867-1.25928,3.1084-2.87842,3.1084C35.72908,10.07994,34.9991,9.2606,34.9991,8.09068z M39.15681,6.97154
					c0-0.81934-0.46973-1.36914-1.33887-1.36914c-1.2793,0-2.13916,1.21875-2.13916,2.49805
					c0,0.82031,0.46973,1.37012,1.31934,1.37012C38.28767,9.47057,39.15681,8.24107,39.15681,6.97154z"/>
				<path d="M41.71833,5.6024h-1.03955l0.11035-0.53027h1.03906l0.1499-0.72949c0.2002-0.96875,0.73975-1.38867,1.59912-1.38867
					c0.31006,0,0.54004,0.08984,0.73975,0.19922l-0.2998,0.50977c-0.14014-0.08984-0.27979-0.12988-0.41992-0.12988
					c-0.60938,0-0.85938,0.41992-0.94922,0.86035l-0.14014,0.67871h1.4292L43.82722,5.6024h-1.41895l-0.85986,4.39746h-0.67969
					L41.71833,5.6024z"/>
				<path d="M46.81941,8.92076l1.14941-5.88672h0.67969l-1.13965,5.89648c-0.08008,0.39941,0.03027,0.54004,0.31982,0.54004
					c0.1499,0,0.31006-0.03027,0.5-0.09082l-0.07031,0.58008c-0.26953,0.08008-0.50977,0.12012-0.68945,0.12012
					C46.97908,10.07994,46.66951,9.70006,46.81941,8.92076z"/>
				<path d="M50.1783,5.07213h0.68994l-0.95947,4.92773h-0.68994L50.1783,5.07213z M50.55818,3.03404h0.71973L51.0782,4.05357
					h-0.71973L50.55818,3.03404z"/>
				<path d="M51.28913,8.77037l0.6499-0.21973c0.10986,0.5,0.49951,0.90918,1.30908,0.90918
					c0.68994,0,1.23926-0.28906,1.23926-0.92871c0-0.99023-2.43848-0.66992-2.43848-2.08887
					c0-0.87012,0.78955-1.44922,1.80908-1.44922c0.85938,0,1.45898,0.39941,1.729,1.03906l-0.59961,0.26953
					c-0.22021-0.47949-0.56982-0.68945-1.15967-0.68945c-0.60938,0-1.09912,0.25977-1.09912,0.75977
					c0,0.93945,2.43848,0.60938,2.43848,2.08887c0,1.0293-0.86963,1.61914-1.92871,1.61914
					C52.18904,10.07994,51.45906,9.5106,51.28913,8.77037z"/>
				<path d="M57.21882,8.82018c-0.02002,0.10059-0.03027,0.2002-0.03027,0.25977c0,0.2998,0.16992,0.41992,0.47998,0.41992
					c0.15967,0,0.37939-0.04004,0.61963-0.12012l-0.07031,0.57031c-0.25977,0.08008-0.5293,0.12988-0.75928,0.12988
					c-0.56982,0-0.95947-0.28027-0.95947-0.87988c0-0.12988,0.02002-0.2793,0.04004-0.37988l0.61963-3.21777h-0.81982
					l0.10986-0.53027h0.80957l0.27002-1.37891l0.78955-0.51953l-0.36963,1.89844h1.18945l-0.1001,0.53027h-1.18945L57.21882,8.82018
					z"/>
				<path d="M59.18904,8.77037l0.6499-0.21973c0.10986,0.5,0.49951,0.90918,1.30908,0.90918
					c0.68994,0,1.23926-0.28906,1.23926-0.92871c0-0.99023-2.43848-0.66992-2.43848-2.08887
					c0-0.87012,0.78955-1.44922,1.80908-1.44922c0.85938,0,1.45898,0.39941,1.729,1.03906l-0.59961,0.26953
					c-0.22021-0.47949-0.56982-0.68945-1.15967-0.68945c-0.60938,0-1.09912,0.25977-1.09912,0.75977
					c0,0.93945,2.43848,0.60938,2.43848,2.08887c0,1.0293-0.86963,1.61914-1.92871,1.61914
					C60.08894,10.07994,59.35896,9.5106,59.18904,8.77037z"/>
				<path d="M67.73836,5.07213h0.68994l-0.95947,4.92773h-0.68994L67.73836,5.07213z M68.11824,3.03404h0.71973l-0.19971,1.01953
					h-0.71973L68.11824,3.03404z"/>
				<path d="M73.74617,6.37193c0,0.26953-0.0498,0.54004-0.06982,0.63965l-0.57959,2.98828h-0.68994l0.56982-2.92871
					c0.02979-0.15918,0.06982-0.35938,0.06982-0.56934c0-0.5498-0.25977-0.89941-0.9292-0.89941
					c-1.07959,0-1.59912,0.94922-1.8291,2.14844l-0.42969,2.24902h-0.68994l0.95947-4.92773h0.68994l-0.12012,0.57031
					c0.45996-0.46973,1.07959-0.64941,1.61914-0.64941C73.25642,4.99303,73.74617,5.53209,73.74617,6.37193z"/>
				<path d="M78.46785,8.82018c-0.01953,0.10059-0.02979,0.2002-0.02979,0.25977c0,0.2998,0.16992,0.41992,0.47998,0.41992
					c0.15967,0,0.37939-0.04004,0.61963-0.12012l-0.07031,0.57031c-0.25977,0.08008-0.5293,0.12988-0.75928,0.12988
					c-0.56982,0-0.95947-0.28027-0.95947-0.87988c0-0.12988,0.02002-0.2793,0.04004-0.37988l0.61963-3.21777h-0.81982
					l0.10986-0.53027h0.80957l0.27002-1.37891l0.78955-0.51953l-0.36963,1.89844h1.18896L80.28719,5.6024h-1.18945L78.46785,8.82018
					z"/>
				<path d="M84.91609,7.01158L84.3365,9.99986h-0.68994l0.56982-2.92871c0.08984-0.44922,0.25977-1.46875-0.85938-1.46875
					c-1.08936,0-1.59912,0.94922-1.8291,2.14844l-0.42969,2.24902h-0.68994l1.35938-6.96582h0.68945l-0.51953,2.6084
					c0.45996-0.46973,1.06934-0.64941,1.60938-0.64941C84.68611,4.99303,85.15584,5.78209,84.91609,7.01158z"/>
				<path d="M86.61824,7.75084c-0.02979,0.16016-0.0498,0.29004-0.0498,0.4502c0,0.78906,0.44971,1.24902,1.26904,1.24902
					c0.59961,0,1.04932-0.17969,1.56934-0.64941l0.41992,0.46973c-0.66992,0.5791-1.2793,0.80957-2.03906,0.80957
					c-1.2793,0-1.87891-0.7998-1.87891-1.89941c0-1.64844,1.11914-3.1875,2.7085-3.1875c1.2793,0,1.77881,0.83887,1.77881,1.77832
					c0,0.2998-0.06982,0.7002-0.15967,0.97949H86.61824z M86.7281,7.19127h2.96826c0.05029-0.17969,0.07031-0.34961,0.07031-0.5
					c0-0.5791-0.3501-1.0791-1.18945-1.0791C87.64754,5.61217,86.98787,6.31236,86.7281,7.19127z"/>
				<path d="M94.89754,8.82018c-0.01953,0.10059-0.02979,0.2002-0.02979,0.25977c0,0.2998,0.16992,0.41992,0.47998,0.41992
					c0.15967,0,0.37939-0.04004,0.61963-0.12012l-0.07031,0.57031c-0.25977,0.08008-0.5293,0.12988-0.75928,0.12988
					c-0.56982,0-0.95947-0.28027-0.95947-0.87988c0-0.12988,0.02002-0.2793,0.04004-0.37988l0.61963-3.21777h-0.81982
					l0.10986-0.53027h0.80957l0.27002-1.37891l0.78955-0.51953l-0.36963,1.89844h1.18896L96.71687,5.6024h-1.18945L94.89754,8.82018
					z"/>
				<path d="M97.74812,7.75084c-0.02979,0.16016-0.0498,0.29004-0.0498,0.4502c0,0.78906,0.44971,1.24902,1.26904,1.24902
					c0.59961,0,1.04932-0.17969,1.56934-0.64941l0.41992,0.46973c-0.66992,0.5791-1.2793,0.80957-2.03906,0.80957
					c-1.2793,0-1.87891-0.7998-1.87891-1.89941c0-1.64844,1.11914-3.1875,2.7085-3.1875c1.2793,0,1.77881,0.83887,1.77881,1.77832
					c0,0.2998-0.06982,0.7002-0.15967,0.97949H97.74812z M97.85799,7.19127h2.96826c0.05029-0.17969,0.07031-0.34961,0.07031-0.5
					c0-0.5791-0.3501-1.0791-1.18945-1.0791C98.77742,5.61217,98.11775,6.31236,97.85799,7.19127z"/>
				<path d="M103.85701,7.51158l-1.29883-2.43945h0.79883l1.01953,1.97949l1.80957-1.97949h0.84961l-2.29883,2.47949
					l1.30859,2.44824h-0.80957l-1.01855-1.99902l-1.79932,1.99902h-0.85938L103.85701,7.51158z"/>
				<path d="M108.27693,8.82018c-0.01953,0.10059-0.0293,0.2002-0.0293,0.25977c0,0.2998,0.16992,0.41992,0.47949,0.41992
					c0.16016,0,0.37988-0.04004,0.62012-0.12012l-0.07031,0.57031c-0.25977,0.08008-0.5293,0.12988-0.75977,0.12988
					c-0.56934,0-0.95898-0.28027-0.95898-0.87988c0-0.12988,0.01953-0.2793,0.04004-0.37988l0.61914-3.21777h-0.81934
					l0.10938-0.53027h0.80957l0.27051-1.37891l0.78906-0.51953l-0.36914,1.89844h1.18848l-0.09961,0.53027h-1.18945
					L108.27693,8.82018z"/>
			</g>
		</g>
	</g>
</g>
</svg>
