<?xml version="1.0" encoding="utf-8"?>
<!-- Generator: Adobe Illustrator 25.0.0, SVG Export Plug-In . SVG Version: 6.00 Build 0)  -->
<svg version="1.1" id="Livello_1" xmlns="http://www.w3.org/2000/svg" xmlns:xlink="http://www.w3.org/1999/xlink" x="0px" y="0px"
	 viewBox="0 0 72.26721 78.1" enable-background="new 0 0 72.26721 78.1" xml:space="preserve">
<path id="Path" fill="none" stroke="#444444" stroke-width="0.5" d="M51.06799,59.257l-50.8,0.2"/>
<rect id="Rectangle" x="50.76935" y="57.65751" transform="matrix(1 -0.003 0.003 1 -0.17781 0.15417)" fill="#444444" width="1" height="3.30002"/>
<rect id="Rectangle-2" x="0.06922" y="57.85746" transform="matrix(1 -0.00311 0.00311 1 -0.18487 0.00206)" fill="#444444" width="1" height="3.30002"/>
<g enable-background="new    ">
	<path d="M0.6333,68.50098h0.70996v6.30664h3.17822v0.65918H0.6333V68.50098z"/>
	<path d="M9.38135,70.53906v4.92773H8.69189v-0.70996c-0.3501,0.53027-0.97949,0.79004-1.62939,0.79004
		c-1.11914,0-1.60889-0.76953-1.60889-1.98926v-3.01855h0.68945v2.84863c0,0.7998,0.14014,1.5498,1.07959,1.5498
		c0.97949,0,1.46924-0.84961,1.46924-2.12891v-2.26953H9.38135z"/>
	<path d="M15.13135,72.44824v3.01855h-0.68945v-2.84863c0-1.05957-0.33984-1.54883-1.07959-1.54883
		c-0.92969,0-1.46924,0.7998-1.46924,2.18848v2.20898h-0.68945v-4.92773h0.68945v0.71973
		c0.31982-0.49902,0.91943-0.79883,1.62891-0.79883C14.58154,70.45996,15.13135,71.13965,15.13135,72.44824z"/>
	<path d="M20.67139,76.22656c0,0.92969-0.86963,1.35938-2.10889,1.35938c-1.36914,0-2.19873-0.54004-2.19873-1.51953
		c0-0.09961,0.00977-0.16016,0.02002-0.21973l0.79932-0.67969c-0.37988-0.16992-0.63965-0.4502-0.63965-0.93945
		c0-0.39941,0.18018-0.69922,0.52979-0.93945c-0.25977-0.2998-0.41992-0.67969-0.41992-1.11914c0-1,0.81982-1.70898,1.87891-1.70898
		c0.47998,0,0.90967,0.14941,1.22949,0.39941l0.67969-0.58984l0.35986,0.4502l-0.66992,0.55957
		c0.16992,0.26953,0.27002,0.5791,0.27002,0.92969c0,1.00879-0.81934,1.67871-1.85889,1.67871
		c-0.37988,0-0.72949-0.08984-1.01953-0.25c-0.19971,0.11035-0.31982,0.29004-0.31982,0.5c0,0.5,0.61963,0.61914,1.3291,0.72949
		C19.51172,75.0166,20.67139,75.15723,20.67139,76.22656z M19.98145,76.28613c0-0.59961-0.7793-0.68945-1.59912-0.81934
		c-0.21973-0.03027-0.44971-0.07031-0.65967-0.12012l-0.66943,0.64941c-0.01025,0.05078-0.01025,0.07031-0.01025,0.09082
		c0,0.69922,0.70996,0.91895,1.54932,0.91895C19.46191,77.00586,19.98145,76.76562,19.98145,76.28613z M17.33301,72.18848
		c0,0.63965,0.45996,1.12988,1.19922,1.12988c0.73975,0,1.17969-0.48047,1.17969-1.12988c0-0.67969-0.45996-1.14941-1.16943-1.14941
		C17.84277,71.03906,17.33301,71.50879,17.33301,72.18848z"/>
	<path d="M25.97119,72.44824v3.01855h-0.68945v-2.84863c0-1.06934-0.33984-1.54883-1.07959-1.54883
		c-0.93945,0-1.46924,0.76953-1.46924,2.12891v2.26855h-0.68945v-6.96582h0.68945v2.75781
		c0.31982-0.49902,0.91943-0.79883,1.62891-0.79883C25.42139,70.45996,25.97119,71.13965,25.97119,72.44824z"/>
	<path d="M31.5708,73.18848h-3.60791c0.02002,1.0791,0.61963,1.72852,1.58936,1.72852c0.53955,0,0.96924-0.13965,1.41895-0.61914
		l0.47998,0.41895c-0.57959,0.61035-1.14941,0.83008-1.90918,0.83008c-1.49902,0-2.26855-1.11914-2.26855-2.51855
		c0-1.38965,0.75977-2.56836,2.18896-2.56836c1.50879,0,2.13867,1.17871,2.13867,2.29785
		C31.60107,72.89844,31.59082,73.06836,31.5708,73.18848z M27.96289,72.6084h2.97852c0-0.02051-0.01025-0.07031-0.01025-0.16016
		c-0.0498-0.7998-0.55957-1.40918-1.46875-1.40918C28.57275,71.03906,28.02295,71.73926,27.96289,72.6084z"/>
	<path d="M36.55078,71.08887l-3.20801,3.78809h3.18848v0.58984h-4.09814v-0.5l3.27832-3.83789h-3.1084v-0.58984h3.94775V71.08887z"
		/>
	<path d="M41.4209,71.08887l-3.20801,3.78809h3.18848v0.58984h-4.09863v-0.5l3.27832-3.83789h-3.1084v-0.58984h3.94824V71.08887z"/>
	<path d="M46.40137,72.39844v3.06836h-0.62988l-0.04004-0.75977c-0.38965,0.5498-0.98926,0.83984-1.76953,0.83984
		c-1.06934,0-1.69824-0.55957-1.69824-1.50977c0-0.49902,0.19922-0.87891,0.55957-1.09863
		c0.37988-0.21973,0.90918-0.31055,1.87891-0.31055h1.00879v-0.22949c0-0.85938-0.44922-1.3291-1.2793-1.3291
		c-0.61914,0-1.09863,0.26953-1.49902,0.81934l-0.49902-0.41992c0.5293-0.68945,1.16895-1.00879,2.00879-1.00879
		C45.68164,70.45996,46.40137,71.16895,46.40137,72.39844z M45.71094,73.25781v-0.06934h-0.94922
		c-0.90918,0-1.29883,0.05957-1.53906,0.24902c-0.17969,0.14062-0.26953,0.36035-0.26953,0.63965
		c0,0.5498,0.46973,0.90039,1.20898,0.90039C45.11133,74.97754,45.71094,74.30762,45.71094,73.25781z"/>
	<path d="M52.86133,75.41699c-0.25977,0.08008-0.51953,0.12988-0.74902,0.12988c-0.66016,0-1.13965-0.37012-1.13965-1.23926
		v-3.18848h-0.81934v-0.58008h0.81934v-1.37891l0.68945-0.51953v1.89844h1.18945v0.58008h-1.18945v3.09863
		c0,0.47949,0.21973,0.69922,0.60938,0.69922c0.16992,0,0.36035-0.04004,0.58008-0.10938L52.86133,75.41699z"/>
	<path d="M58.02051,73.18848h-3.60742c0.01953,1.0791,0.61914,1.72852,1.58887,1.72852c0.54004,0,0.96973-0.13965,1.41895-0.61914
		l0.48047,0.41895c-0.58008,0.61035-1.14941,0.83008-1.90918,0.83008c-1.49902,0-2.26855-1.11914-2.26855-2.51855
		c0-1.38965,0.75977-2.56836,2.18848-2.56836c1.50879,0,2.13867,1.17871,2.13867,2.29785
		C58.05078,72.89844,58.04102,73.06836,58.02051,73.18848z M54.41309,72.6084h2.97852c0-0.02051-0.01074-0.07031-0.01074-0.16016
		c-0.0498-0.7998-0.55957-1.40918-1.46875-1.40918C55.02246,71.03906,54.47266,71.73926,54.41309,72.6084z"/>
	<path d="M58.91309,74.25781l0.58008-0.25977c0.17969,0.50977,0.65918,0.93945,1.42871,0.93945
		c0.66992,0,1.09961-0.33008,1.09961-0.84961c0-1.30957-2.83887-0.49023-2.83887-2.23926c0-0.85938,0.7002-1.38867,1.68945-1.38867
		c0.79004,0,1.42969,0.3291,1.76953,1.0293l-0.5498,0.2998c-0.24023-0.44043-0.62988-0.71973-1.23926-0.71973
		c-0.61035,0-1,0.25-1,0.67969c0,1.16895,2.84863,0.42969,2.84863,2.29883c0,0.99902-0.81934,1.49902-1.76855,1.49902
		C59.96289,75.54688,59.17285,75.04688,58.91309,74.25781z"/>
	<path d="M66.15137,75.41699c-0.25977,0.08008-0.51953,0.12988-0.74902,0.12988c-0.66016,0-1.13965-0.37012-1.13965-1.23926
		v-3.18848h-0.81934v-0.58008h0.81934v-1.37891l0.68945-0.51953v1.89844h1.18945v0.58008h-1.18945v3.09863
		c0,0.47949,0.21973,0.69922,0.60938,0.69922c0.16992,0,0.36035-0.04004,0.58008-0.10938L66.15137,75.41699z"/>
	<path d="M66.9834,72.99805c0-1.45898,0.94922-2.53809,2.3584-2.53809c1.39941,0,2.36816,1.0791,2.36816,2.53809
		c0,1.44922-0.95898,2.54883-2.36816,2.54883S66.9834,74.45703,66.9834,72.99805z M71.02051,72.99805
		c0-1.11914-0.62988-1.92871-1.67871-1.92871c-1.05957,0-1.66895,0.81934-1.66895,1.92871
		c0,1.11914,0.61914,1.93945,1.66895,1.93945C70.40137,74.9375,71.02051,74.09766,71.02051,72.99805z"/>
</g>
<g>
	<path id="Path-2" fill="none" stroke="#444444" stroke-width="0.25" d="M51.26935,58.257v-1"/>
	<path id="Path-3" fill="none" stroke="#444444" stroke-width="0.25" stroke-dasharray="1.9,1.9" d="M51.26935,55.357v-21.9"/>
	<path id="Path-4" fill="none" stroke="#444444" stroke-width="0.25" d="M51.26935,32.557v-1"/>
</g>
<g>
	<path id="Path-5" fill="none" stroke="#444444" stroke-width="0.25" d="M0.56923,58.257v-1"/>
	<path id="Path-6" fill="none" stroke="#444444" stroke-width="0.25" stroke-dasharray="1.9,1.9" d="M0.56923,55.357v-21.8"/>
	<path id="Path-7" fill="none" stroke="#444444" stroke-width="0.25" d="M0.56923,32.557v-1"/>
</g>
<circle id="Ellisse_32" fill="#FFFFFF" cx="26.06799" cy="26.057" r="26"/>
<ellipse id="Ellisse_33" transform="matrix(0.1735 -0.98483 0.98483 0.1735 -4.11668 47.20865)" fill="none" stroke="#1A1A1A" stroke-width="0.5" cx="26.06799" cy="26.057" rx="25.8" ry="25.79999"/>
<circle id="Ellisse_34" fill="#FFFFFF" cx="26.56799" cy="32.557" r="19.5"/>
<circle id="Ellisse_35" fill="none" stroke="#1A1A1A" stroke-width="0.5" cx="26.56799" cy="32.557" r="19.2"/>
<circle id="Ellisse_36" fill="#FFFFFF" cx="26.06799" cy="41.057" r="11"/>
<circle id="Ellisse_37" fill="none" stroke="#1A1A1A" stroke-width="0.5" cx="26.06799" cy="41.057" r="10.8"/>
</svg>
