<svg id="Layer_1" data-name="Layer 1" xmlns="http://www.w3.org/2000/svg" viewBox="0 0 58.8 58.8">
  <g id="NEW_Bussolablack" data-name="NEW Bussolablack">
    <g>
      <g>
        <path d="M29.4,58.5A29.1,29.1,0,1,1,58.5,29.4h0A29.06357,29.06357,0,0,1,29.4,58.5" fill="#fff"/>
        <path d="M29.4.5A28.9,28.9,0,1,1,.5,29.4h0A28.85025,28.85025,0,0,1,29.4.5m0-.5A29.4,29.4,0,1,0,58.8,29.4,29.44772,29.44772,0,0,0,29.4,0h0"/>
        <path d="M29.4,56A26.6,26.6,0,1,1,56,29.4h0A26.71709,26.71709,0,0,1,29.4,56" fill="#fff"/>
        <path d="M29.4,3.2A26.2,26.2,0,1,1,3.2,29.4h0A26.16151,26.16151,0,0,1,29.4,3.2m0-.8a27,27,0,1,0,27,27,27.015,27.015,0,0,0-27-27h0"/>
      </g>
      <g>
        <path d="M29.4,44.8A15.4,15.4,0,1,1,44.8,29.4h0A15.40664,15.40664,0,0,1,29.4,44.8" fill="#fff"/>
        <path d="M29.4,14.4a15,15,0,1,1-15,15h0a14.97991,14.97991,0,0,1,15-15m0-.8A15.8,15.8,0,1,0,45.2,29.4,15.83354,15.83354,0,0,0,29.4,13.6h0"/>
        <line x1="29.1" y1="15.4" x2="29.1" y2="17.6" fill="none" stroke="#000" stroke-miterlimit="10" stroke-width="0.845"/>
        <line x1="15.4" y1="30.2" x2="17.6" y2="30.2" fill="none" stroke="#000" stroke-miterlimit="10" stroke-width="0.845"/>
        <line x1="41.2" y1="30.2" x2="43.4" y2="30.2" fill="none" stroke="#000" stroke-miterlimit="10" stroke-width="0.845"/>
        <polygon points="27.7 29.3 33 23.4 30.5 30.9 25.2 36.8 27.7 29.3" fill="#fff"/>
        <path d="M32.2,24.9l-1.9,5.8-4.1,4.6,1.9-5.8,4.1-4.6m1.1-2.2c-.1,0-.1,0-.2.1L27.4,29h0l-2.6,8c0,.1,0,.3.2.3h.1c.1,0,.1,0,.2-.1L31,31h0l2.6-8c-.1-.1-.1-.2-.3-.3h0"/>
        <polygon points="27.7 29.3 30.5 31 32.9 23.7 27.7 29.3"/>
      </g>
    </g>
  </g>
  <g id="bussolanera_en" data-name="bussolanera en">
    <g>
      <path d="M9.9,19.4c-1.4-1-2.1-2.6-.9-4.3a2.83823,2.83823,0,0,1,4.3-.6c1.4,1,2.1,2.6.9,4.3C13.1,20.5,11.3,20.4,9.9,19.4Zm2.8-3.9c-1-.7-2.1-.9-2.8.2-.8,1.1-.2,2.1.7,2.8,1,.7,2.1.9,2.9-.2A1.90745,1.90745,0,0,0,12.7,15.5Z"/>
      <path d="M12.8,11l1.5-1.2a1.96366,1.96366,0,0,1,2.9.1,1.93447,1.93447,0,0,1-.6,2.8l-.7.5,1.6,2-.9.7Zm3.1.8c.6-.5.7-.9.4-1.3s-.7-.4-1.3,0l-.7.5.9,1.2Z"/>
      <path d="M18,7.4l3.8-1.6.4.9L19.4,7.9,20,9.3l2.6-1.1.4.9-2.6,1.1.6,1.4,2.8-1.2.4,1L20.4,13Z"/>
      <path d="M24.5,5.1,25.6,5l3,4.1-.4-4.3,1.1-.1.6,6.2H28.8l-3-4.1.4,4.3-1.1.1Z"/>
      <path d="M35.8,6.7l-1.9-.6.3-1L39,6.6l-.3,1L36.8,7l-1.6,5-1.1-.3Z"/>
      <path d="M41.1,7.7l.9.6-1.5,2.1,2.2,1.5,1.5-2.1.9.6-3.5,5.1-.9-.6,1.5-2.1L40,11.3l-1.5,2.1-.9-.6Z"/>
      <path d="M47.3,12.6l2.5,3.3-.8.6-1.9-2.4-1.2,1,1.7,2.2-.8.6-1.7-2.2-1.2.9L45.8,19l-.8.7-2.5-3.3Z"/>
    </g>
    <g>
      <path d="M11,41.2c1.3-1.1,3.1-1.4,4.4.2a2.71674,2.71674,0,0,1,.4,3.2l-1-.5a1.52842,1.52842,0,0,0-.2-2,1.85848,1.85848,0,0,0-2.8-.1c-.9.8-1.3,1.8-.4,2.9a1.63786,1.63786,0,0,0,2,.5l.4,1.1a2.8089,2.8089,0,0,1-3.1-.9A2.81916,2.81916,0,0,1,11,41.2Z"/>
      <path d="M15.4,46.1a2.98967,2.98967,0,0,1,4.2-1.2,2.94069,2.94069,0,0,1,.9,4.3,2.98967,2.98967,0,0,1-4.2,1.2A2.883,2.883,0,0,1,15.4,46.1Zm4.1,2.5c.6-1,.7-2.1-.4-2.8s-2.1-.1-2.7.9-.7,2.1.4,2.8S18.9,49.6,19.5,48.6Z"/>
      <path d="M22.5,46.7,24,47l.8,4.6,2.5-4,1.5.3L27.6,54l-1.1-.2.9-4.6-2.3,3.7L24,52.7l-.7-4.3L22.4,53l-1.1-.2Z"/>
      <path d="M29.6,47.8l1.9-.2c1.3-.1,2.3.4,2.4,1.6s-.7,1.9-2,2l-.8.1.3,2.6H30.3Zm2.2,2.3c.8-.1,1-.4,1-.9-.1-.5-.4-.8-1.2-.7l-.8.2.2,1.5Z"/>
      <path d="M35.7,46.5l.8-.3L41.1,51l-1.1.4-.9-1.1-2.2.9.1,1.4-1.1.5Zm2.6,3.2-1.6-1.8.1,2.4Z"/>
      <path d="M41.1,49l.7-.9a1.15508,1.15508,0,0,0,1.7.1c.5-.4.6-.9.3-1.2-.8-1-2.9,1.1-4.1-.5a1.70321,1.70321,0,0,1,.5-2.5,2.15693,2.15693,0,0,1,2.2-.3l-.4,1a1.04807,1.04807,0,0,0-1.2.1c-.4.3-.5.7-.2,1,.7.9,2.9-1.2,4.1.5a1.92154,1.92154,0,0,1-.6,2.8A2.40854,2.40854,0,0,1,41.1,49Z"/>
      <path d="M45.4,45.6l.5-1a1.25092,1.25092,0,0,0,1.7-.3c.4-.5.4-1,0-1.3-1-.8-2.6,1.8-4.1.5a1.70845,1.70845,0,0,1-.1-2.6,2.17416,2.17416,0,0,1,2-.8l-.1,1.1a.902.902,0,0,0-1.1.4.666.666,0,0,0,0,1c.9.7,2.5-1.8,4.1-.5.9.7.8,1.9.1,2.9A2.58944,2.58944,0,0,1,45.4,45.6Z"/>
    </g>
  </g>
</svg>
