<?xml version="1.0" encoding="utf-8"?>
<!-- Generator: Adobe Illustrator 24.3.0, SVG Export Plug-In . SVG Version: 6.00 Build 0)  -->
<svg version="1.1" id="Layer_1" xmlns="http://www.w3.org/2000/svg" xmlns:xlink="http://www.w3.org/1999/xlink" x="0px" y="0px"
	 viewBox="0 0 58.8 58.8" style="enable-background:new 0 0 58.8 58.8;" xml:space="preserve">
<style type="text/css">
	.st0{fill:#FFFFFF;}
	.st1{fill:none;stroke:#000000;stroke-width:0.845;stroke-miterlimit:10;}
</style>
<g id="NEW_Bussolablack">
	<g>
		<g>
			<path class="st0" d="M29.4,58.5c-16.1,0-29.1-13-29.1-29.1s13-29.1,29.1-29.1s29.1,13,29.1,29.1l0,0
				C58.5,45.5,45.5,58.5,29.4,58.5"/>
			<path d="M29.4,0.5c16,0,28.9,12.9,28.9,28.9S45.3,58.3,29.4,58.3S0.5,45.3,0.5,29.4c0,0,0,0,0,0C0.5,13.4,13.4,0.5,29.4,0.5
				 M29.4,0C13.2,0,0,13.2,0,29.4s13.2,29.4,29.4,29.4c16.2,0,29.4-13.2,29.4-29.4C58.8,13.2,45.6,0,29.4,0C29.4,0,29.4,0,29.4,0"/>
			<path class="st0" d="M29.4,56C14.7,56,2.8,44.1,2.8,29.4c0-14.7,11.9-26.6,26.6-26.6C44.1,2.8,56,14.7,56,29.4c0,0,0,0,0,0
				C55.9,44.1,44.1,55.9,29.4,56"/>
			<path d="M29.4,3.2c14.5,0,26.2,11.7,26.2,26.2S43.8,55.6,29.4,55.6S3.2,43.8,3.2,29.4c0,0,0,0,0,0C3.2,14.9,14.9,3.2,29.4,3.2
				 M29.4,2.4c-14.9,0-27,12.1-27,27s12.1,27,27,27s27-12.1,27-27C56.4,14.5,44.3,2.4,29.4,2.4C29.4,2.4,29.4,2.4,29.4,2.4"/>
		</g>
		<g>
			<path class="st0" d="M29.4,44.8c-8.5,0-15.4-6.9-15.4-15.4S20.9,14,29.4,14s15.4,6.9,15.4,15.4v0C44.8,37.9,37.9,44.8,29.4,44.8"
				/>
			<path d="M29.4,14.4c8.3,0,15,6.7,15,15c0,8.3-6.7,15-15,15c-8.3,0-15-6.7-15-15c0,0,0,0,0,0C14.4,21.1,21.1,14.4,29.4,14.4
				 M29.4,13.6c-8.7,0-15.8,7.1-15.8,15.8s7.1,15.8,15.8,15.8c8.7,0,15.8-7.1,15.8-15.8C45.2,20.7,38.1,13.6,29.4,13.6
				C29.4,13.6,29.4,13.6,29.4,13.6"/>
			<line class="st1" x1="29.1" y1="15.4" x2="29.1" y2="17.6"/>
			<line class="st1" x1="15.4" y1="30.2" x2="17.6" y2="30.2"/>
			<line class="st1" x1="41.2" y1="30.2" x2="43.4" y2="30.2"/>
			<polygon class="st0" points="27.7,29.3 33,23.4 30.5,30.9 25.2,36.8 			"/>
			<path d="M32.2,24.9l-1.9,5.8l-4.1,4.6l1.9-5.8L32.2,24.9 M33.3,22.7c-0.1,0-0.1,0-0.2,0.1l-5.7,6.2c0,0,0,0,0,0c0,0,0,0,0,0
				l-2.6,8c0,0.1,0,0.3,0.2,0.3c0,0,0.1,0,0.1,0c0.1,0,0.1,0,0.2-0.1l5.7-6.2c0,0,0,0,0,0c0,0,0,0,0,0l2.6-8
				C33.5,22.9,33.5,22.8,33.3,22.7C33.3,22.7,33.3,22.7,33.3,22.7"/>
			<polygon points="27.7,29.3 30.5,31 32.9,23.7 			"/>
		</g>
	</g>
</g>
<g id="bussolanera_en">
	<g>
		<g>
			<path d="M9.9,19.4c-1.4-1-2.1-2.6-0.9-4.3s3-1.6,4.3-0.6c1.4,1,2.1,2.6,0.9,4.3C13.1,20.5,11.3,20.4,9.9,19.4z M12.7,15.5
				c-1-0.7-2.1-0.9-2.8,0.2c-0.8,1.1-0.2,2.1,0.7,2.8c1,0.7,2.1,0.9,2.9-0.2C14.2,17.1,13.7,16.1,12.7,15.5z"/>
			<path d="M12.8,11l1.5-1.2c1-0.8,2.1-0.8,2.9,0.1c0.7,0.9,0.4,2-0.6,2.8l-0.7,0.5l1.6,2l-0.9,0.7L12.8,11z M15.9,11.8
				c0.6-0.5,0.7-0.9,0.4-1.3c-0.3-0.4-0.7-0.4-1.3,0L14.3,11l0.9,1.2L15.9,11.8z"/>
			<path d="M18,7.4l3.8-1.6l0.4,0.9l-2.8,1.2L20,9.3l2.6-1.1L23,9.1l-2.6,1.1l0.6,1.4l2.8-1.2l0.4,1L20.4,13L18,7.4z"/>
			<path d="M24.5,5.1L25.6,5l3,4.1l-0.4-4.3l1.1-0.1l0.6,6.2h-1.1l-3-4.1l0.4,4.3l-1.1,0.1L24.5,5.1z"/>
			<path d="M35.8,6.7l-1.9-0.6l0.3-1L39,6.6l-0.3,1L36.8,7l-1.6,5l-1.1-0.3L35.8,6.7z"/>
			<path d="M41.1,7.7L42,8.3l-1.5,2.1l2.2,1.5l1.5-2.1l0.9,0.6l-3.5,5.1l-0.9-0.6l1.5-2.1L40,11.3l-1.5,2.1l-0.9-0.6L41.1,7.7z"/>
			<path d="M47.3,12.6l2.5,3.3L49,16.5l-1.9-2.4l-1.2,1l1.7,2.2l-0.8,0.6l-1.7-2.2l-1.2,0.9l1.9,2.4L45,19.7l-2.5-3.3L47.3,12.6z"/>
		</g>
	</g>
	<g>
		<g>
			<path d="M11,41.2c1.3-1.1,3.1-1.4,4.4,0.2c0.8,0.9,1,2.1,0.4,3.2l-1-0.5c0.5-0.7,0.3-1.4-0.2-2c-0.9-1-1.9-0.8-2.8-0.1
				c-0.9,0.8-1.3,1.8-0.4,2.9c0.5,0.6,1.1,0.8,2,0.5l0.4,1.1c-1.2,0.4-2.3,0-3.1-0.9C9.2,44,9.7,42.3,11,41.2z"/>
			<path d="M15.4,46.1c0.9-1.4,2.5-2.2,4.2-1.2c1.7,1.1,1.8,2.8,0.9,4.3c-0.9,1.4-2.5,2.2-4.2,1.2C14.5,49.3,14.5,47.5,15.4,46.1z
				 M19.5,48.6c0.6-1,0.7-2.1-0.4-2.8s-2.1-0.1-2.7,0.9s-0.7,2.1,0.4,2.8C17.9,50.2,18.9,49.6,19.5,48.6z"/>
			<path d="M22.5,46.7L24,47l0.8,4.6l2.5-4l1.5,0.3L27.6,54l-1.1-0.2l0.9-4.6l-2.3,3.7L24,52.7l-0.7-4.3L22.4,53l-1.1-0.2L22.5,46.7
				z"/>
			<path d="M29.6,47.8l1.9-0.2c1.3-0.1,2.3,0.4,2.4,1.6c0.1,1.2-0.7,1.9-2,2l-0.8,0.1l0.3,2.6l-1.1,0L29.6,47.8z M31.8,50.1
				c0.8-0.1,1-0.4,1-0.9c-0.1-0.5-0.4-0.8-1.2-0.7l-0.8,0.2l0.2,1.5L31.8,50.1z"/>
			<path d="M35.7,46.5l0.8-0.3l4.6,4.8L40,51.4l-0.9-1.1l-2.2,0.9l0.1,1.4l-1.1,0.5L35.7,46.5z M38.3,49.7l-1.6-1.8l0.1,2.4
				L38.3,49.7z"/>
			<path d="M41.1,49l0.7-0.9c0.5,0.6,1.2,0.5,1.7,0.1s0.6-0.9,0.3-1.2c-0.8-1-2.9,1.1-4.1-0.5c-0.7-0.9-0.3-1.9,0.5-2.5
				c0.6-0.5,1.4-0.6,2.2-0.3l-0.4,1c-0.4-0.2-0.9-0.2-1.2,0.1c-0.4,0.3-0.5,0.7-0.2,1c0.7,0.9,2.9-1.2,4.1,0.5
				c0.7,0.9,0.4,2.1-0.6,2.8C43.2,49.7,42,49.8,41.1,49z"/>
			<path d="M45.4,45.6l0.5-1c0.6,0.4,1.3,0.2,1.7-0.3s0.4-1,0-1.3c-1-0.8-2.6,1.8-4.1,0.5c-0.9-0.7-0.8-1.8-0.1-2.6
				c0.5-0.6,1.2-0.9,2-0.8l-0.1,1.1c-0.5-0.1-0.9,0-1.1,0.4c-0.3,0.3-0.3,0.8,0,1c0.9,0.7,2.5-1.8,4.1-0.5c0.9,0.7,0.8,1.9,0.1,2.9
				C47.6,45.7,46.5,46.2,45.4,45.6z"/>
		</g>
	</g>
</g>
</svg>
