<?xml version="1.0" encoding="utf-8"?>
<!-- Generator: Adobe Illustrator 25.1.0, SVG Export Plug-In . SVG Version: 6.00 Build 0)  -->
<svg version="1.1" id="Livello_1" xmlns="http://www.w3.org/2000/svg" xmlns:xlink="http://www.w3.org/1999/xlink" x="0px" y="0px"
	 viewBox="0 0 938 104.36" style="enable-background:new 0 0 938 104.36;" xml:space="preserve">
<style type="text/css">
	.st0{clip-path:url(#SVGID_2_);}
	.st1{enable-background:new    ;}
	.st2{opacity:0.4;fill:#FF3366;enable-background:new    ;}
	.st3{fill:none;}
	.st4{fill:#5151FC;}
	.st5{fill:#F7F8F8;}
	.st6{fill:none;stroke:#333333;stroke-linecap:square;stroke-miterlimit:10;stroke-dasharray:0,4;}
	.st7{fill:none;stroke:#333333;stroke-width:0.5;stroke-miterlimit:10;}
	.st8{fill:#FFFFFF;}
	.st9{fill:none;stroke:#5151FC;stroke-width:0.414;}
	.st10{fill:none;stroke:#5151FC;stroke-width:0.5;stroke-miterlimit:10;}
	.st11{opacity:0.4;fill:#FFD93B;enable-background:new    ;}
	.st12{opacity:0.4;fill:#10BED2;enable-background:new    ;}
</style>
<g>
	<defs>
		<rect id="SVGID_1_" y="0" width="938" height="104.36"/>
	</defs>
	<clipPath id="SVGID_2_">
		<use xlink:href="#SVGID_1_"  style="overflow:visible;"/>
	</clipPath>
	<g id="legend_scheda3" class="st0">
		<g class="st1">
			<path d="M32.15869,82.86639c0-2.23926,1.20947-3.56836,3.21826-3.56836c1.39893,0,2.37842,0.63965,2.86816,1.90918l-0.65967,0.25
				c-0.36963-1-1.10938-1.47949-2.2085-1.47949c-1.59912,0-2.50879,1.04004-2.50879,2.88867
				c0,1.85938,0.89941,2.91797,2.4585,2.91797c1.08984,0,1.86914-0.50977,2.25879-1.50879l0.67969,0.25
				c-0.51953,1.26953-1.54883,1.93848-2.93848,1.93848C33.34814,86.46405,32.15869,85.11542,32.15869,82.86639z"/>
			<path d="M39.04834,83.89569c0-1.45898,0.94971-2.53809,2.35889-2.53809c1.39941,0,2.36865,1.0791,2.36865,2.53809
				c0,1.44922-0.95947,2.54883-2.36865,2.54883S39.04834,85.35468,39.04834,83.89569z M43.08643,83.89569
				c0-1.11914-0.62988-1.92871-1.6792-1.92871c-1.05957,0-1.66895,0.81934-1.66895,1.92871
				c0,1.11914,0.61963,1.93945,1.66895,1.93945C42.4668,85.83514,43.08643,84.9953,43.08643,83.89569z"/>
			<path d="M49.09619,83.34589v3.01855h-0.68945v-2.84863c0-1.05957-0.33984-1.54883-1.07959-1.54883
				c-0.92969,0-1.46924,0.7998-1.46924,2.18848v2.20898h-0.68945v-4.92773h0.68945v0.71973
				c0.31982-0.49902,0.91943-0.79883,1.62891-0.79883C48.54639,81.3576,49.09619,82.03729,49.09619,83.34589z"/>
			<path d="M52.84717,86.31464c-0.25977,0.08008-0.52002,0.12988-0.74951,0.12988c-0.65967,0-1.13965-0.37012-1.13965-1.23926
				v-3.18848h-0.81934v-0.58008h0.81934V80.0578l0.68994-0.51953v1.89844h1.18896v0.58008h-1.18896v3.09863
				c0,0.47949,0.21973,0.69922,0.60938,0.69922c0.16992,0,0.35986-0.04004,0.57959-0.10938L52.84717,86.31464z"/>
			<path d="M58.00586,84.08612h-3.60791c0.02002,1.0791,0.61963,1.72852,1.58936,1.72852c0.53955,0,0.96924-0.13965,1.41895-0.61914
				l0.47998,0.41895c-0.57959,0.61035-1.14941,0.83008-1.90918,0.83008c-1.49902,0-2.26855-1.11914-2.26855-2.51855
				c0-1.38965,0.75977-2.56836,2.18896-2.56836c1.50879,0,2.13867,1.17871,2.13867,2.29785
				C58.03613,83.79608,58.02588,83.966,58.00586,84.08612z M54.39795,83.50604h2.97852c0-0.02051-0.01025-0.07031-0.01025-0.16016
				c-0.0498-0.7998-0.55957-1.40918-1.46875-1.40918C55.00781,81.93671,54.45801,82.6369,54.39795,83.50604z"/>
			<path d="M63.35645,83.34589v3.01855h-0.68945v-2.84863c0-1.05957-0.33984-1.54883-1.07959-1.54883
				c-0.92969,0-1.46924,0.7998-1.46924,2.18848v2.20898h-0.68945v-4.92773h0.68945v0.71973
				c0.31982-0.49902,0.91943-0.79883,1.62891-0.79883C62.80664,81.3576,63.35645,82.03729,63.35645,83.34589z"/>
			<path d="M67.10742,86.31464c-0.25977,0.08008-0.52002,0.12988-0.74951,0.12988c-0.65967,0-1.13965-0.37012-1.13965-1.23926
				v-3.18848h-0.81934v-0.58008h0.81934V80.0578l0.68945-0.51953v1.89844h1.18945v0.58008h-1.18945v3.09863
				c0,0.47949,0.22021,0.69922,0.60986,0.69922c0.16992,0,0.35986-0.04004,0.57959-0.10938L67.10742,86.31464z"/>
		</g>
		<path id="Rectangle_13361" class="st2" d="M5,78.364h11c2.76142,0,5,2.23858,5,5l0,0c0,2.76143-2.23858,5-5,5H5
			c-2.76142,0-5-2.23857-5-5l0,0C0,80.60258,2.23858,78.364,5,78.364z"/>
		<rect id="legend-bg-transparent" x="0.488" y="0.352" class="st3" width="938" height="110"/>
		<g id="Testo_non_dubitativo" transform="translate(0.451 120.352)">
			<g id="Raggruppa_24914">
				<g class="st1">
					<path class="st4" d="M476.29608-102.81666h-2.17871v-1.14941h5.61621v1.14941h-2.17871v5.81641h-1.25879V-102.81666z"/>
					<path class="st4" d="M482.63593-99.719l-2.64844-4.24707h1.46875l1.7793,3.04785l1.79883-3.04785h1.47949l-2.62891,4.24707
						v2.71875h-1.24902V-99.719z"/>
					<path class="st4" d="M487.36639-103.96607h2.27832c1.55957,0,2.36914,0.67969,2.36914,2.00879
						c0,1.34863-0.83008,2.06836-2.36914,2.06836h-1.03906v2.88867h-1.23926V-103.96607z M489.51483-101.03834
						c0.87988,0,1.25-0.26953,1.25-0.89941s-0.36035-0.87891-1.25-0.87891h-0.90918v1.77832H489.51483z"/>
					<path class="st4" d="M493.216-103.96607h4.6377v1.14941h-3.3877v1.6582h3.14844v1.14941H494.466v1.85938h3.3877v1.14941
						h-4.6377V-103.96607z"/>
					<path class="st4" d="M501.25604-100.47877c0-2.18848,1.34961-3.6377,3.32812-3.6377c1.98926,0,3.32812,1.44922,3.32812,3.6377
						c0,2.17969-1.34863,3.62891-3.32812,3.62891C502.60565-96.84986,501.25604-98.29908,501.25604-100.47877z M506.66327-100.47877
						c0-1.50879-0.80957-2.44824-2.0791-2.44824c-1.26855,0-2.07812,0.92969-2.07812,2.44824
						c0,1.50977,0.80957,2.43945,2.07812,2.43945C505.8537-98.03931,506.66327-98.97877,506.66327-100.47877z"/>
					<path class="st4" d="M509.18573-103.96607h4.9375v1.14941h-3.68848v1.6582h3.24805v1.14941h-3.24805v3.00879h-1.24902
						V-103.96607z"/>
					<path class="st4" d="M519.0451-102.81666h-2.17871v-1.14941h5.61621v1.14941h-2.17871v5.81641h-1.25879V-102.81666z"/>
					<path class="st4" d="M523.4455-103.96607h4.6377v1.14941h-3.3877v1.6582h3.14844v1.14941h-3.14844v1.85938h3.3877v1.14941
						h-4.6377V-103.96607z"/>
					<path class="st4" d="M531.10468-100.47877l-2.31836-3.4873h1.49902l1.67871,2.61816l1.68945-2.61816h1.48926l-2.31934,3.4873
						l2.33887,3.47852h-1.49902l-1.70898-2.57812l-1.67969,2.57812h-1.49902L531.10468-100.47877z"/>
					<path class="st4" d="M537.55487-102.81666h-2.17871v-1.14941h5.61621v1.14941h-2.17871v5.81641h-1.25879V-102.81666z"/>
				</g>
			</g>
		</g>
		<g id="Raggruppa_24915" transform="translate(0.451 120.352)">
			<rect id="Rectangle_19" x="474.03699" y="-85.988" class="st5" width="20" height="10"/>
			<line id="Line_63" class="st6" x1="474.03699" y1="-80.988" x2="494.03699" y2="-80.988"/>
		</g>
		<g id="Testo_neutro" transform="translate(0.451 120.352)">
			<g id="Raggruppa_24916">
				<g class="st1">
					<path d="M510.09393-84.95387v6.96582h-0.7793l-3.42871-5.75684v5.75684h-0.70996v-6.96582h0.77051l3.4375,5.72656v-5.72656
						H510.09393z"/>
					<path d="M511.71698-80.45679c0-1.45898,0.94922-2.53809,2.3584-2.53809c1.39941,0,2.36816,1.0791,2.36816,2.53809
						c0,1.44922-0.95898,2.54883-2.36816,2.54883S511.71698-78.99781,511.71698-80.45679z M515.75409-80.45679
						c0-1.11914-0.62988-1.92871-1.67871-1.92871c-1.05957,0-1.66895,0.81934-1.66895,1.92871
						c0,1.11914,0.61914,1.93945,1.66895,1.93945C515.13495-78.51734,515.75409-79.35719,515.75409-80.45679z"/>
					<path d="M521.76385-81.0066v3.01855h-0.68945v-2.84863c0-1.05957-0.33984-1.54883-1.0791-1.54883
						c-0.92969,0-1.46973,0.7998-1.46973,2.18848v2.20898h-0.68945v-4.92773h0.68945v0.71973
						c0.32031-0.49902,0.91992-0.79883,1.62891-0.79883C521.21405-82.99488,521.76385-82.31519,521.76385-81.0066z"/>
					<path d="M523.4162-81.31617h2.66797v0.5293h-2.66797V-81.31617z"/>
					<path d="M531.97382-84.95387v6.96582h-0.68945v-0.65918c-0.35938,0.45898-0.90918,0.73926-1.62891,0.73926
						c-1.43945,0-2.18945-1.0791-2.18945-2.54883c0-1.53906,0.82031-2.54883,2.18945-2.54883
						c0.69922,0,1.25879,0.27051,1.62891,0.75v-2.69824H531.97382z M531.34393-80.45679c0-1.16895-0.59961-1.93848-1.58887-1.93848
						c-0.99902,0-1.59863,0.76953-1.59863,1.93848c0,1.11914,0.5498,1.93945,1.59863,1.93945
						C530.79413-78.51734,531.34393-79.33765,531.34393-80.45679z"/>
					<path d="M537.55389-82.91578v4.92773h-0.68945v-0.70996c-0.34961,0.53027-0.97949,0.79004-1.62891,0.79004
						c-1.11914,0-1.60938-0.76953-1.60938-1.98926v-3.01855h0.68945v2.84863c0,0.7998,0.14062,1.5498,1.08008,1.5498
						c0.97949,0,1.46875-0.84961,1.46875-2.12891v-2.26953H537.55389z"/>
					<path d="M543.88397-80.45679c0,1.46973-0.75,2.54883-2.18945,2.54883c-0.71875,0-1.26855-0.28027-1.62891-0.73926v0.65918
						h-0.68945v-6.96582h0.68945v2.69824c0.37012-0.47949,0.92969-0.75,1.62891-0.75
						C543.06464-83.00562,543.88397-81.99586,543.88397-80.45679z M543.19452-80.45679c0-1.16895-0.59961-1.93848-1.59961-1.93848
						c-0.98926,0-1.58887,0.76953-1.58887,1.93848c0,1.11914,0.5498,1.93945,1.58887,1.93945
						C542.64471-78.51734,543.19452-79.33765,543.19452-80.45679z"/>
					<path d="M545.25604-84.95387h0.7998v1.01953h-0.7998V-84.95387z M545.31659-82.91578h0.68945v4.92773h-0.68945V-82.91578z"/>
					<path d="M549.87518-78.03785c-0.25977,0.08008-0.52051,0.12988-0.75,0.12988c-0.65918,0-1.13965-0.37012-1.13965-1.23926
						v-3.18848h-0.81934v-0.58008h0.81934v-1.37891l0.69043-0.51953v1.89844h1.18848v0.58008h-1.18848v3.09863
						c0,0.47949,0.21973,0.69922,0.60938,0.69922c0.16992,0,0.35938-0.04004,0.5791-0.10938L549.87518-78.03785z"/>
					<path d="M554.8537-81.0564v3.06836h-0.62988l-0.04004-0.75977c-0.38965,0.5498-0.98926,0.83984-1.76855,0.83984
						c-1.06934,0-1.69922-0.55957-1.69922-1.50977c0-0.49902,0.2002-0.87891,0.55957-1.09863
						c0.37988-0.21973,0.91016-0.31055,1.87891-0.31055h1.00977v-0.22949c0-0.85938-0.4502-1.3291-1.2793-1.3291
						c-0.62012,0-1.09961,0.26953-1.49902,0.81934l-0.5-0.41992c0.5293-0.68945,1.16895-1.00879,2.00879-1.00879
						C554.13397-82.99488,554.8537-82.2859,554.8537-81.0564z M554.16425-80.19703v-0.06934h-0.94922
						c-0.91016,0-1.2998,0.05957-1.53906,0.24902c-0.18066,0.14062-0.27051,0.36035-0.27051,0.63965
						c0,0.5498,0.46973,0.90039,1.20996,0.90039C553.56464-78.4773,554.16425-79.14722,554.16425-80.19703z"/>
					<path d="M558.58514-78.03785c-0.25977,0.08008-0.52051,0.12988-0.75,0.12988c-0.65918,0-1.13965-0.37012-1.13965-1.23926
						v-3.18848h-0.81934v-0.58008h0.81934v-1.37891l0.69043-0.51953v1.89844h1.18848v0.58008h-1.18848v3.09863
						c0,0.47949,0.21973,0.69922,0.60938,0.69922c0.16992,0,0.35938-0.04004,0.5791-0.10938L558.58514-78.03785z"/>
					<path d="M559.83612-84.95387h0.79883v1.01953h-0.79883V-84.95387z M559.89569-82.91578h0.68945v4.92773h-0.68945V-82.91578z"/>
					<path d="M561.6955-82.91578h0.75l1.54883,4.04785l1.55957-4.04785h0.75977l-2.01953,4.92773h-0.58887L561.6955-82.91578z"/>
					<path d="M571.17303-80.26637h-3.60742c0.01953,1.0791,0.61914,1.72852,1.58887,1.72852
						c0.54004,0,0.96973-0.13965,1.41895-0.61914l0.48047,0.41895c-0.58008,0.61035-1.14941,0.83008-1.90918,0.83008
						c-1.49902,0-2.26855-1.11914-2.26855-2.51855c0-1.38965,0.75977-2.56836,2.18848-2.56836
						c1.50879,0,2.13867,1.17871,2.13867,2.29785C571.20331-80.5564,571.19354-80.38648,571.17303-80.26637z M567.56561-80.84644
						h2.97852c0-0.02051-0.01074-0.07031-0.01074-0.16016c-0.0498-0.7998-0.55957-1.40918-1.46875-1.40918
						C568.17499-82.41578,567.62518-81.71558,567.56561-80.84644z"/>
					<path d="M577.37421-78.03785c-0.25977,0.08008-0.51953,0.12988-0.74902,0.12988c-0.66016,0-1.13965-0.37012-1.13965-1.23926
						v-3.18848h-0.81934v-0.58008h0.81934v-1.37891l0.68945-0.51953v1.89844h1.18945v0.58008h-1.18945v3.09863
						c0,0.47949,0.21973,0.69922,0.60938,0.69922c0.16992,0,0.36035-0.04004,0.58008-0.10938L577.37421-78.03785z"/>
					<path d="M582.53339-80.26637h-3.6084c0.02051,1.0791,0.62012,1.72852,1.58984,1.72852
						c0.53906,0,0.96875-0.13965,1.41895-0.61914l0.47949,0.41895c-0.5791,0.61035-1.14941,0.83008-1.90918,0.83008
						c-1.49902,0-2.26855-1.11914-2.26855-2.51855c0-1.38965,0.75977-2.56836,2.18945-2.56836
						c1.50879,0,2.13867,1.17871,2.13867,2.29785C582.56366-80.5564,582.55292-80.38648,582.53339-80.26637z M578.92499-80.84644
						h2.97852c0-0.02051-0.00977-0.07031-0.00977-0.16016c-0.0498-0.7998-0.55957-1.40918-1.46875-1.40918
						C579.53534-82.41578,578.98553-81.71558,578.92499-80.84644z"/>
					<path d="M585.10565-80.45679l-1.7998-2.45898h0.83984l1.41895,1.97949l1.40918-1.97949h0.83984l-1.79883,2.45898
						l1.80859,2.46875h-0.84961l-1.40918-1.99902l-1.40918,1.99902h-0.84961L585.10565-80.45679z"/>
					<path d="M591.08417-78.03785c-0.25977,0.08008-0.51953,0.12988-0.74902,0.12988c-0.66016,0-1.13965-0.37012-1.13965-1.23926
						v-3.18848h-0.81934v-0.58008h0.81934v-1.37891l0.68945-0.51953v1.89844h1.18945v0.58008h-1.18945v3.09863
						c0,0.47949,0.21973,0.69922,0.60938,0.69922c0.16992,0,0.36035-0.04004,0.58008-0.10938L591.08417-78.03785z"/>
				</g>
			</g>
		</g>
		<g id="Raggruppa_24917" transform="translate(0.451 120.352)">
			<rect id="Rectangle_20" x="474.03699" y="-63.988" class="st5" width="20" height="10"/>
			<line id="Line_64" class="st7" x1="474.03699" y1="-58.988" x2="494.03699" y2="-58.988"/>
		</g>
		<g id="Testo_soggetto" transform="translate(0.451 120.352)">
			<g id="Raggruppa_24918">
				<g class="st1">
					<path d="M506.78534-62.2942h-2.4082v-0.65918h5.54688v0.65918h-2.41895v6.30664h-0.71973V-62.2942z"/>
					<path d="M514.11444-58.26588h-3.6084c0.02051,1.0791,0.62012,1.72852,1.58984,1.72852
						c0.53906,0,0.96875-0.13965,1.41895-0.61914l0.47949,0.41895c-0.5791,0.61035-1.14941,0.83008-1.90918,0.83008
						c-1.49902,0-2.26855-1.11914-2.26855-2.51855c0-1.38965,0.75977-2.56836,2.18945-2.56836
						c1.50879,0,2.13867,1.17871,2.13867,2.29785C514.14471-58.55592,514.13397-58.38599,514.11444-58.26588z M510.50604-58.84595
						h2.97852c0-0.02051-0.00977-0.07031-0.00977-0.16016c-0.0498-0.7998-0.55957-1.40918-1.46875-1.40918
						C511.11639-60.41529,510.56659-59.7151,510.50604-58.84595z"/>
					<path d="M516.68573-58.45631l-1.79883-2.45898h0.83984l1.41895,1.97949l1.40918-1.97949h0.83984l-1.7998,2.45898
						l1.80957,2.46875h-0.84961l-1.40918-1.99902l-1.40918,1.99902h-0.84961L516.68573-58.45631z"/>
					<path d="M522.66522-56.03736c-0.25977,0.08008-0.51953,0.12988-0.74902,0.12988c-0.66016,0-1.13965-0.37012-1.13965-1.23926
						v-3.18848h-0.81934v-0.58008h0.81934v-1.37891l0.68945-0.51953v1.89844h1.18945v0.58008H521.466v3.09863
						c0,0.47949,0.21973,0.69922,0.60938,0.69922c0.16992,0,0.36035-0.04004,0.58008-0.10938L522.66522-56.03736z"/>
					<path d="M526.27655-58.45631c0-1.45898,0.94922-2.53809,2.3584-2.53809c1.39941,0,2.36914,1.0791,2.36914,2.53809
						c0,1.44922-0.95996,2.54883-2.36914,2.54883S526.27655-56.99732,526.27655-58.45631z M530.31464-58.45631
						c0-1.11914-0.62988-1.92871-1.67969-1.92871c-1.05957,0-1.66895,0.81934-1.66895,1.92871
						c0,1.11914,0.62012,1.93945,1.66895,1.93945C529.69452-56.51685,530.31464-57.3567,530.31464-58.45631z"/>
					<path d="M536.9035-58.45631c0,1.46973-0.74902,2.54883-2.18848,2.54883c-0.71973,0-1.26953-0.28027-1.62891-0.73926v0.65918
						h-0.68945v-6.96582h0.68945v2.69824c0.36914-0.47949,0.92969-0.75,1.62891-0.75
						C536.08417-61.00513,536.9035-59.99537,536.9035-58.45631z M536.21405-58.45631c0-1.16895-0.59961-1.93848-1.59863-1.93848
						c-0.99023,0-1.58984,0.76953-1.58984,1.93848c0,1.11914,0.5498,1.93945,1.58984,1.93945
						C535.66425-56.51685,536.21405-57.33717,536.21405-58.45631z"/>
					<path d="M537.39667-53.9983l0.00977-0.55957c0.16992,0.05957,0.33008,0.0791,0.45996,0.0791
						c0.2998,0,0.46973-0.16992,0.46973-0.55957v-5.87695h0.67969v5.91699c0,0.7793-0.37012,1.12988-0.93945,1.12988
						C537.87616-53.86842,537.64667-53.91822,537.39667-53.9983z M538.27655-62.95338h0.79883v1.01953h-0.79883V-62.95338z"/>
					<path d="M544.73358-58.26588h-3.60742c0.01953,1.0791,0.61914,1.72852,1.58887,1.72852
						c0.54004,0,0.96973-0.13965,1.41895-0.61914l0.48047,0.41895c-0.58008,0.61035-1.14941,0.83008-1.90918,0.83008
						c-1.49902,0-2.26855-1.11914-2.26855-2.51855c0-1.38965,0.75977-2.56836,2.18848-2.56836
						c1.50879,0,2.13867,1.17871,2.13867,2.29785C544.76385-58.55592,544.75409-58.38599,544.73358-58.26588z M541.12616-58.84595
						h2.97852c0-0.02051-0.01074-0.07031-0.01074-0.16016c-0.0498-0.7998-0.55957-1.40918-1.46875-1.40918
						C541.73553-60.41529,541.18573-59.7151,541.12616-58.84595z"/>
					<path d="M545.74628-58.4358c0-1.2998,0.72949-2.55859,2.21875-2.55859c0.87988,0,1.60938,0.43945,1.99902,1.3584
						l-0.66016,0.26074c-0.22949-0.62988-0.71875-1.00977-1.33887-1.00977c-1.0498,0-1.51953,0.93945-1.51953,1.94922
						c0,1.00879,0.46973,1.91895,1.5293,1.91895c0.62012,0,1.10938-0.37012,1.2998-1l0.63965,0.24023
						c-0.33008,0.89941-1.0498,1.36914-1.93945,1.36914C546.54608-55.90748,545.74628-57.06666,545.74628-58.4358z"/>
					<path d="M553.28534-56.03736c-0.25977,0.08008-0.52051,0.12988-0.75,0.12988c-0.65918,0-1.13965-0.37012-1.13965-1.23926
						v-3.18848h-0.81934v-0.58008h0.81934v-1.37891l0.69043-0.51953v1.89844h1.18848v0.58008h-1.18848v3.09863
						c0,0.47949,0.21973,0.69922,0.60938,0.69922c0.16992,0,0.35938-0.04004,0.5791-0.10938L553.28534-56.03736z"/>
					<path d="M556.89667-58.45631c0-1.45898,0.94922-2.53809,2.3584-2.53809c1.39941,0,2.36816,1.0791,2.36816,2.53809
						c0,1.44922-0.95898,2.54883-2.36816,2.54883S556.89667-56.99732,556.89667-58.45631z M560.93378-58.45631
						c0-1.11914-0.62988-1.92871-1.67871-1.92871c-1.05957,0-1.66895,0.81934-1.66895,1.92871
						c0,1.11914,0.61914,1.93945,1.66895,1.93945C560.31464-56.51685,560.93378-57.3567,560.93378-58.45631z"/>
					<path d="M563.31561-60.33521h-1.03906v-0.58008h1.04883v-0.75879c0-1.0498,0.61035-1.35938,1.23926-1.35938
						c0.27051,0,0.57031,0.05957,0.87988,0.18945l-0.24023,0.5498c-0.20996-0.09961-0.39941-0.16016-0.56934-0.16016
						c-0.38965,0-0.62988,0.27051-0.62988,0.72949v0.80957h1.41992v0.58008h-1.41992v4.34766h-0.68945V-60.33521z"/>
					<path d="M573.3537-62.95338v6.96582h-0.69043v-0.65918c-0.35938,0.45898-0.90918,0.73926-1.62891,0.73926
						c-1.43848,0-2.18848-1.0791-2.18848-2.54883c0-1.53906,0.81934-2.54883,2.18848-2.54883c0.7002,0,1.25977,0.27051,1.62891,0.75
						v-2.69824H573.3537z M572.72382-58.45631c0-1.16895-0.59961-1.93848-1.58887-1.93848c-1,0-1.59961,0.76953-1.59961,1.93848
						c0,1.11914,0.5498,1.93945,1.59961,1.93945C572.17401-56.51685,572.72382-57.33717,572.72382-58.45631z"/>
					<path d="M574.74628-58.45631c0-1.45898,0.94922-2.53809,2.3584-2.53809c1.39941,0,2.36816,1.0791,2.36816,2.53809
						c0,1.44922-0.95898,2.54883-2.36816,2.54883S574.74628-56.99732,574.74628-58.45631z M578.78339-58.45631
						c0-1.11914-0.62988-1.92871-1.67871-1.92871c-1.05957,0-1.66895,0.81934-1.66895,1.92871
						c0,1.11914,0.61914,1.93945,1.66895,1.93945C578.16425-56.51685,578.78339-57.3567,578.78339-58.45631z"/>
					<path d="M584.62323-60.91529v4.92773h-0.68945v-0.70996c-0.34961,0.53027-0.97949,0.79004-1.62891,0.79004
						c-1.11914,0-1.60938-0.76953-1.60938-1.98926v-3.01855h0.68945v2.84863c0,0.7998,0.14062,1.5498,1.08008,1.5498
						c0.97949,0,1.46875-0.84961,1.46875-2.12891v-2.26953H584.62323z"/>
					<path d="M590.95331-58.45631c0,1.46973-0.75,2.54883-2.18945,2.54883c-0.71875,0-1.26855-0.28027-1.62891-0.73926v0.65918
						h-0.68945v-6.96582h0.68945v2.69824c0.37012-0.47949,0.92969-0.75,1.62891-0.75
						C590.13397-61.00513,590.95331-59.99537,590.95331-58.45631z M590.26385-58.45631c0-1.16895-0.59961-1.93848-1.59961-1.93848
						c-0.98926,0-1.58887,0.76953-1.58887,1.93848c0,1.11914,0.5498,1.93945,1.58887,1.93945
						C589.71405-56.51685,590.26385-57.33717,590.26385-58.45631z"/>
					<path d="M594.38397-56.03736c-0.25977,0.08008-0.51953,0.12988-0.74902,0.12988c-0.66016,0-1.13965-0.37012-1.13965-1.23926
						v-3.18848h-0.81934v-0.58008h0.81934v-1.37891l0.68945-0.51953v1.89844h1.18945v0.58008h-1.18945v3.09863
						c0,0.47949,0.21973,0.69922,0.60938,0.69922c0.16992,0,0.36035-0.04004,0.58008-0.10938L594.38397-56.03736z"/>
				</g>
			</g>
		</g>
		<g id="Stili" transform="translate(0.451 120.352)">
			<g id="Raggruppa_24919">
				<g class="st1">
					<path class="st4" d="M237.24675-98.969l1.23926-0.30957c0.08984,0.8291,0.63965,1.29883,1.44922,1.29883
						c0.69971,0,1.14941-0.34961,1.14941-0.93945c0-0.47949-0.35986-0.7793-1.38916-1.18945
						c-1.45947-0.56934-1.979-1.09961-1.979-2.1084c0-1.12988,0.86963-1.89941,2.16895-1.89941
						c0.93945,0,1.67871,0.42969,2.11865,1.26953l-1.03955,0.63965c-0.23975-0.51953-0.64941-0.7998-1.11914-0.7998
						c-0.5,0-0.87988,0.33008-0.87988,0.75977c0,0.45996,0.33984,0.71973,1.38965,1.12891
						c1.48877,0.57031,1.97852,1.09961,1.97852,2.08887c0,1.2998-0.98926,2.15918-2.41846,2.15918
						C238.52605-96.87037,237.44646-97.69947,237.24675-98.969z"/>
					<path class="st4" d="M244.85564-102.81666h-2.17871v-1.14941h5.6167v1.14941h-2.17871v5.81641h-1.25928V-102.81666z"/>
					<path class="st4" d="M251.19499-99.719l-2.64844-4.24707h1.46875l1.7793,3.04785l1.79883-3.04785h1.47949l-2.62891,4.24707
						v2.71875h-1.24902V-99.719z"/>
					<path class="st4" d="M255.92595-103.96607h1.24953v5.81641h2.97852v1.14941h-4.22804V-103.96607z"/>
					<path class="st4" d="M261.12567-103.96607h4.6377v1.14941h-3.38818v1.6582h3.14795v1.14941h-3.14795v1.85938h3.38818v1.14941
						h-4.6377V-103.96607z"/>
					<path class="st4" d="M266.55634-98.969l1.23926-0.30957c0.08984,0.8291,0.63965,1.29883,1.44922,1.29883
						c0.69971,0,1.14941-0.34961,1.14941-0.93945c0-0.47949-0.35986-0.7793-1.38916-1.18945
						c-1.45947-0.56934-1.979-1.09961-1.979-2.1084c0-1.12988,0.86963-1.89941,2.16895-1.89941
						c0.93945,0,1.67871,0.42969,2.11865,1.26953l-1.03955,0.63965c-0.23975-0.51953-0.64941-0.7998-1.11914-0.7998
						c-0.5,0-0.87988,0.33008-0.87988,0.75977c0,0.45996,0.33984,0.71973,1.38965,1.12891
						c1.48877,0.57031,1.97852,1.09961,1.97852,2.08887c0,1.2998-0.98926,2.15918-2.41846,2.15918
						C267.83563-96.87037,266.75604-97.69947,266.55634-98.969z"/>
				</g>
			</g>
		</g>
		<g id="Raggruppa_24920" transform="translate(0.451 120.352)">
			<rect id="Rectangle_16" x="237.037" y="-85.988" class="st5" width="20" height="10"/>
			<line id="Line_57" class="st7" x1="241.09401" y1="-83.254" x2="238.981" y2="-78.722"/>
			<line id="Line_58" class="st7" x1="248.09401" y1="-83.254" x2="245.981" y2="-78.722"/>
			<line id="Line_59" class="st7" x1="255.09401" y1="-83.254" x2="252.981" y2="-78.722"/>
			<line id="Line_60" class="st7" x1="237.037" y1="-80.988" x2="243.037" y2="-80.988"/>
			<line id="Line_61" class="st7" x1="244.037" y1="-80.988" x2="250.037" y2="-80.988"/>
			<line id="Line_62" class="st7" x1="251.037" y1="-80.988" x2="257.03702" y2="-80.988"/>
		</g>
		<g id="Negazione" transform="translate(0.451 120.352)">
			<g id="Raggruppa_24921">
				<g class="st1">
					<path d="M273.09344-84.95387v6.96582h-0.7793l-3.42822-5.75684v5.75684h-0.70996v-6.96582h0.77002l3.43799,5.72656v-5.72656
						H273.09344z"/>
					<path d="M279.04364-80.26637h-3.60791c0.02002,1.0791,0.61963,1.72852,1.58936,1.72852
						c0.53955,0,0.96924-0.13965,1.41895-0.61914l0.47998,0.41895c-0.57959,0.61035-1.14941,0.83008-1.90918,0.83008
						c-1.49902,0-2.26855-1.11914-2.26855-2.51855c0-1.38965,0.75977-2.56836,2.18896-2.56836
						c1.50879,0,2.13867,1.17871,2.13867,2.29785C279.07391-80.5564,279.06366-80.38648,279.04364-80.26637z M275.43573-80.84644
						h2.97852c0-0.02051-0.01025-0.07031-0.01025-0.16016c-0.0498-0.7998-0.55957-1.40918-1.46875-1.40918
						C276.04559-82.41578,275.49579-81.71558,275.43573-80.84644z"/>
					<path d="M284.30438-77.22828c0,0.92969-0.86963,1.35938-2.10889,1.35938c-1.36914,0-2.19873-0.54004-2.19873-1.51953
						c0-0.09961,0.00977-0.16016,0.02002-0.21973l0.79932-0.67969c-0.37988-0.16992-0.63965-0.4502-0.63965-0.93945
						c0-0.39941,0.17969-0.69922,0.52979-0.93945c-0.25977-0.2998-0.41992-0.67969-0.41992-1.11914
						c0-1,0.81982-1.70898,1.87891-1.70898c0.47998,0,0.90967,0.14941,1.22949,0.39941l0.67969-0.58984l0.35986,0.4502
						l-0.66992,0.55957c0.16992,0.26953,0.27002,0.5791,0.27002,0.92969c0,1.00879-0.81934,1.67871-1.85889,1.67871
						c-0.37988,0-0.72949-0.08984-1.01953-0.25c-0.19971,0.11035-0.31982,0.29004-0.31982,0.5c0,0.5,0.61963,0.61914,1.3291,0.72949
						C283.14471-78.43824,284.30438-78.29762,284.30438-77.22828z M283.61444-77.16871c0-0.59961-0.7793-0.68945-1.59912-0.81934
						c-0.21973-0.03027-0.44971-0.07031-0.65967-0.12012l-0.66943,0.64941c-0.00977,0.05078-0.00977,0.07031-0.00977,0.09082
						c0,0.69922,0.70947,0.91895,1.54883,0.91895C283.09491-76.44898,283.61444-76.68922,283.61444-77.16871z M280.966-81.26637
						c0,0.63965,0.45996,1.12988,1.19922,1.12988c0.73975,0,1.17969-0.48047,1.17969-1.12988
						c0-0.67969-0.45996-1.14941-1.16943-1.14941C281.47577-82.41578,280.966-81.94605,280.966-81.26637z"/>
					<path d="M289.29413-81.0564v3.06836h-0.62988l-0.04004-0.75977c-0.38965,0.5498-0.98926,0.83984-1.76904,0.83984
						c-1.06934,0-1.69873-0.55957-1.69873-1.50977c0-0.49902,0.19971-0.87891,0.55957-1.09863
						c0.37988-0.21973,0.90967-0.31055,1.87891-0.31055h1.00928v-0.22949c0-0.85938-0.44971-1.3291-1.2793-1.3291
						c-0.61963,0-1.09912,0.26953-1.49902,0.81934l-0.49951-0.41992c0.5293-0.68945,1.16895-1.00879,2.00879-1.00879
						C288.5744-82.99488,289.29413-82.2859,289.29413-81.0564z M288.60419-80.19703v-0.06934h-0.94922
						c-0.90967,0-1.29932,0.05957-1.53906,0.24902c-0.18018,0.14062-0.27002,0.36035-0.27002,0.63965
						c0,0.5498,0.46973,0.90039,1.20947,0.90039C288.00458-78.4773,288.60419-79.14722,288.60419-80.19703z"/>
					<path d="M293.02509-78.03785c-0.25977,0.08008-0.52002,0.12988-0.74951,0.12988c-0.65967,0-1.13965-0.37012-1.13965-1.23926
						v-3.18848h-0.81934v-0.58008h0.81934v-1.37891l0.68994-0.51953v1.89844h1.18896v0.58008h-1.18896v3.09863
						c0,0.47949,0.21973,0.69922,0.60938,0.69922c0.16992,0,0.35986-0.04004,0.57959-0.10938L293.02509-78.03785z"/>
					<path d="M294.27606-84.95387h0.79932v1.01953h-0.79932V-84.95387z M294.33612-82.91578h0.68945v4.92773h-0.68945V-82.91578z"/>
					<path d="M296.41669-80.45679c0-1.45898,0.94922-2.53809,2.3584-2.53809c1.39941,0,2.36865,1.0791,2.36865,2.53809
						c0,1.44922-0.95947,2.54883-2.36865,2.54883S296.41669-78.99781,296.41669-80.45679z M300.45428-80.45679
						c0-1.11914-0.62988-1.92871-1.6792-1.92871c-1.05957,0-1.66895,0.81934-1.66895,1.92871
						c0,1.11914,0.61963,1.93945,1.66895,1.93945C299.83466-78.51734,300.45428-79.35719,300.45428-80.45679z"/>
					<path d="M306.46356-81.0066v3.01855h-0.68945v-2.84863c0-1.05957-0.33984-1.54883-1.07959-1.54883
						c-0.92969,0-1.46924,0.7998-1.46924,2.18848v2.20898h-0.68945v-4.92773h0.68945v0.71973
						c0.31982-0.49902,0.91943-0.79883,1.62891-0.79883C305.91376-82.99488,306.46356-82.31519,306.46356-81.0066z"/>
				</g>
			</g>
		</g>
		<g id="Raggruppa_24922" transform="translate(0.451 120.352)">
			<rect id="Rectangle_17" x="237.037" y="-63.988" class="st5" width="20" height="10"/>
			<path id="Path_2" class="st7" d="M242.037-58.988c0,0-1.12-1.878-2.5-1.878s-2.5,1.878-2.5,1.878"/>
			<path id="Path_3" class="st7" d="M252.037-58.988c0,0-1.12-1.878-2.5-1.878s-2.5,1.878-2.5,1.878s-1.12,1.877-2.5,1.877
				s-2.5-1.877-2.5-1.877"/>
			<path id="Path_4" class="st7" d="M257.03699-58.988c0,0-1.12,1.877-2.5,1.877s-2.5-1.877-2.5-1.877"/>
		</g>
		<g id="Esitazione" transform="translate(0.451 120.352)">
			<g id="Raggruppa_24923">
				<g class="st1">
					<path d="M268.17499-62.95338h0.70996v3.07812h3.61768v-3.07812h0.71973v6.96582h-0.71973v-3.21777h-3.61768v3.21777h-0.70996
						V-62.95338z"/>
					<path d="M279.17303-58.26588h-3.60791c0.02002,1.0791,0.61963,1.72852,1.58936,1.72852
						c0.53955,0,0.96924-0.13965,1.41895-0.61914l0.47998,0.41895c-0.57959,0.61035-1.14941,0.83008-1.90918,0.83008
						c-1.49902,0-2.26855-1.11914-2.26855-2.51855c0-1.38965,0.75977-2.56836,2.18896-2.56836
						c1.50879,0,2.13867,1.17871,2.13867,2.29785C279.20331-58.55592,279.19305-58.38599,279.17303-58.26588z M275.56512-58.84595
						h2.97852c0-0.02051-0.01025-0.07031-0.01025-0.16016c-0.0498-0.7998-0.55957-1.40918-1.46875-1.40918
						C276.17499-60.41529,275.62518-59.7151,275.56512-58.84595z"/>
					<path d="M280.06561-57.19654l0.57959-0.25977c0.17969,0.50977,0.65967,0.93945,1.4292,0.93945
						c0.66943,0,1.09961-0.33008,1.09961-0.84961c0-1.30957-2.83887-0.49023-2.83887-2.23926
						c0-0.85938,0.69971-1.38867,1.68945-1.38867c0.78955,0,1.4292,0.3291,1.76904,1.0293l-0.5498,0.2998
						c-0.23975-0.44043-0.62988-0.71973-1.23926-0.71973c-0.60986,0-0.99951,0.25-0.99951,0.67969
						c0,1.16895,2.84814,0.42969,2.84814,2.29883c0,0.99902-0.81934,1.49902-1.76855,1.49902
						C281.11493-55.90748,280.32538-56.40748,280.06561-57.19654z"/>
					<path d="M285.19501-62.95338h0.79932v1.01953h-0.79932V-62.95338z M285.25507-60.91529h0.68945v4.92773h-0.68945V-60.91529z"/>
					<path d="M289.81415-56.03736c-0.25977,0.08008-0.52002,0.12988-0.74951,0.12988c-0.65967,0-1.13965-0.37012-1.13965-1.23926
						v-3.18848h-0.81934v-0.58008h0.81934v-1.37891l0.68994-0.51953v1.89844h1.18896v0.58008h-1.18896v3.09863
						c0,0.47949,0.21973,0.69922,0.60938,0.69922c0.16992,0,0.35986-0.04004,0.57959-0.10938L289.81415-56.03736z"/>
					<path d="M294.79315-59.05592v3.06836h-0.62988l-0.04004-0.75977c-0.38965,0.5498-0.98926,0.83984-1.76904,0.83984
						c-1.06934,0-1.69873-0.55957-1.69873-1.50977c0-0.49902,0.19971-0.87891,0.55957-1.09863
						c0.37988-0.21973,0.90967-0.31055,1.87891-0.31055h1.00928v-0.22949c0-0.85938-0.44971-1.3291-1.2793-1.3291
						c-0.61963,0-1.09912,0.26953-1.49902,0.81934l-0.49951-0.41992c0.5293-0.68945,1.16895-1.00879,2.00879-1.00879
						C294.07343-60.99439,294.79315-60.28541,294.79315-59.05592z M294.10321-58.19654v-0.06934h-0.94922
						c-0.90967,0-1.29932,0.05957-1.53906,0.24902c-0.18018,0.14062-0.27002,0.36035-0.27002,0.63965
						c0,0.5498,0.46973,0.90039,1.20947,0.90039C293.5036-56.47681,294.10321-57.14674,294.10321-58.19654z"/>
					<path d="M298.52362-56.03736c-0.25977,0.08008-0.52002,0.12988-0.74951,0.12988c-0.65967,0-1.13965-0.37012-1.13965-1.23926
						v-3.18848h-0.81934v-0.58008h0.81934v-1.37891l0.68945-0.51953v1.89844h1.18945v0.58008h-1.18945v3.09863
						c0,0.47949,0.22021,0.69922,0.60986,0.69922c0.16992,0,0.35986-0.04004,0.57959-0.10938L298.52362-56.03736z"/>
					<path d="M299.77509-62.95338h0.79932v1.01953h-0.79932V-62.95338z M299.83514-60.91529h0.68945v4.92773h-0.68945V-60.91529z"/>
					<path d="M301.91473-58.45631c0-1.45898,0.94971-2.53809,2.35889-2.53809c1.39941,0,2.36865,1.0791,2.36865,2.53809
						c0,1.44922-0.95947,2.54883-2.36865,2.54883S301.91473-56.99732,301.91473-58.45631z M305.95282-58.45631
						c0-1.11914-0.62988-1.92871-1.6792-1.92871c-1.05957,0-1.66895,0.81934-1.66895,1.92871
						c0,1.11914,0.61963,1.93945,1.66895,1.93945C305.33319-56.51685,305.95282-57.3567,305.95282-58.45631z"/>
					<path d="M311.96259-59.00611v3.01855h-0.68945v-2.84863c0-1.05957-0.33984-1.54883-1.07959-1.54883
						c-0.92969,0-1.46924,0.7998-1.46924,2.18848v2.20898h-0.68945v-4.92773h0.68945v0.71973
						c0.31982-0.49902,0.91943-0.79883,1.62891-0.79883C311.41278-60.99439,311.96259-60.3147,311.96259-59.00611z"/>
				</g>
			</g>
		</g>
		<g id="Raggruppa_24924" transform="translate(0.451 120.352)">
			<rect id="Rectangle_18" x="237.037" y="-41.988" class="st5" width="20" height="10"/>
			<path id="Path_5" class="st7" d="M250.37-40.005c2.89999,0,5.556,1.465,5.556,3.811
				c-0.02623,1.22721-1.04176,2.20111-2.269,2.176c-1.19107-0.02544-2.15056-0.98493-2.17599-2.176
				c0-2.346,2.659-3.811,5.55602-3.811"/>
			<path id="Path_6" class="st7" d="M243.7-40.005c2.89999,0,5.55499,1.465,5.55499,3.811
				c0.00497,1.22662-0.98535,2.22502-2.21198,2.22999c-0.00067,0-0.00136,0-0.00203,0.00001
				c-1.22717,0.00443-2.22557-0.9868-2.23-2.21397c0-0.00001,0-0.00002,0-0.00003v-0.016c0-2.346,2.658-3.811,5.55499-3.811"/>
			<path id="Path_7" class="st7" d="M237.037-40.005c2.89999,0,5.556,1.465,5.556,3.811
				c-0.02623,1.22721-1.04176,2.20111-2.269,2.176c-1.19107-0.02544-2.15056-0.98493-2.17599-2.176c0-2.346,2.659-3.811,5.556-3.811
				"/>
		</g>
		<g id="Riformulazione" transform="translate(0.451 120.352)">
			<g id="Raggruppa_24925">
				<g class="st1">
					<path d="M272.10419-33.98756l-1.7793-3.08789h-0.46973h-0.96924v3.08789h-0.70996v-6.96582h1.98926
						c1.49902,0,2.29883,0.66895,2.29883,1.92871c0,0.97949-0.48975,1.60938-1.4292,1.8584l1.89893,3.17871H272.10419z
						 M270.09491-37.7356c1.09961,0,1.64941-0.42969,1.64941-1.2793s-0.5498-1.2793-1.64941-1.2793h-1.20898v2.55859H270.09491z"/>
					<path d="M277.97382-36.26588h-3.60791c0.02002,1.0791,0.61963,1.72852,1.58936,1.72852
						c0.53955,0,0.96924-0.13965,1.41895-0.61914l0.47998,0.41895c-0.57959,0.61035-1.14941,0.83008-1.90918,0.83008
						c-1.49902,0-2.26855-1.11914-2.26855-2.51855c0-1.38965,0.75977-2.56836,2.18896-2.56836
						c1.50879,0,2.13867,1.17871,2.13867,2.29785C278.00409-36.55592,277.99384-36.38599,277.97382-36.26588z M274.36591-36.84595
						h2.97852c0-0.02051-0.01025-0.07031-0.01025-0.16016c-0.0498-0.7998-0.55957-1.40918-1.46875-1.40918
						C274.97577-38.41529,274.42596-37.7151,274.36591-36.84595z"/>
					<path d="M279.69647-38.33521h-1.03955v-0.58008h1.04932v-0.75879c0-1.0498,0.60986-1.35938,1.23926-1.35938
						c0.27002,0,0.56982,0.05957,0.87988,0.18945l-0.24023,0.5498c-0.20996-0.09961-0.39941-0.16016-0.56934-0.16016
						c-0.39014,0-0.62988,0.27051-0.62988,0.72949v0.80957h1.41943v0.58008h-1.41943v4.34766h-0.68945V-38.33521z"/>
					<path d="M282.25653-36.45631c0-1.45898,0.94971-2.53809,2.35889-2.53809c1.39941,0,2.36865,1.0791,2.36865,2.53809
						c0,1.44922-0.95947,2.54883-2.36865,2.54883S282.25653-34.99732,282.25653-36.45631z M286.29462-36.45631
						c0-1.11914-0.62988-1.92871-1.6792-1.92871c-1.05957,0-1.66895,0.81934-1.66895,1.92871
						c0,1.11914,0.61963,1.93945,1.66895,1.93945C285.67499-34.51685,286.29462-35.3567,286.29462-36.45631z"/>
					<path d="M291.37469-38.78443l-0.33984,0.55957c-0.22949-0.10059-0.43945-0.15039-0.64941-0.15039
						c-0.75977,0-1.31934,0.56934-1.31934,1.63965v2.74805h-0.68945v-4.92773h0.68945v0.74023
						c0.35986-0.64941,0.95947-0.81934,1.45898-0.81934C290.82489-38.99439,291.10516-38.93482,291.37469-38.78443z"/>
					<path d="M299.15253-37.06568v3.07812h-0.68994v-2.88867c0-0.41992,0-1.50879-1.0791-1.50879
						c-0.99951,0-1.26953,0.91895-1.26953,2.02832v2.36914h-0.68945v-2.84863c0-0.81934-0.25-1.54883-1.10938-1.54883
						c-0.95947,0-1.22949,0.90918-1.22949,2.02832v2.36914h-0.68945l-0.01025-4.92773h0.66992v0.60059
						c0.30957-0.49023,0.80957-0.67969,1.35889-0.67969c0.68994,0,1.19971,0.2998,1.44922,0.94922
						c0.31982-0.62988,0.86963-0.94922,1.61914-0.94922C298.66278-38.99439,299.15253-38.2151,299.15253-37.06568z"/>
					<path d="M304.56415-38.91529v4.92773h-0.68945v-0.70996c-0.34961,0.53027-0.97949,0.79004-1.62891,0.79004
						c-1.11963,0-1.60938-0.76953-1.60938-1.98926v-3.01855h0.68945v2.84863c0,0.7998,0.14014,1.5498,1.07959,1.5498
						c0.97949,0,1.46924-0.84961,1.46924-2.12891v-2.26953H304.56415z"/>
					<path d="M306.34637-35.05689v-5.89648h0.68945v5.85645c0,0.33984,0.12012,0.55957,0.44971,0.55957
						c0.1499,0,0.31982-0.04004,0.46973-0.08984l0.01025,0.58984c-0.20996,0.06934-0.45996,0.12988-0.67969,0.12988
						C306.716-33.90748,306.34637-34.28736,306.34637-35.05689z"/>
					<path d="M312.75409-37.05592v3.06836h-0.62988l-0.04004-0.75977c-0.38965,0.5498-0.98926,0.83984-1.76904,0.83984
						c-1.06934,0-1.69873-0.55957-1.69873-1.50977c0-0.49902,0.19971-0.87891,0.55957-1.09863
						c0.37988-0.21973,0.90967-0.31055,1.87891-0.31055h1.00928v-0.22949c0-0.85938-0.44971-1.3291-1.2793-1.3291
						c-0.61963,0-1.09912,0.26953-1.49902,0.81934l-0.49951-0.41992c0.5293-0.68945,1.16895-1.00879,2.00879-1.00879
						C312.03436-38.99439,312.75409-38.28541,312.75409-37.05592z M312.06415-36.19654v-0.06934h-0.94922
						c-0.90967,0-1.29932,0.05957-1.53906,0.24902c-0.18018,0.14062-0.27002,0.36035-0.27002,0.63965
						c0,0.5498,0.46973,0.90039,1.20947,0.90039C311.46454-34.47681,312.06415-35.14674,312.06415-36.19654z"/>
					<path d="M316.48505-34.03736c-0.25977,0.08008-0.52002,0.12988-0.74951,0.12988c-0.65967,0-1.13965-0.37012-1.13965-1.23926
						v-3.18848h-0.81934v-0.58008h0.81934v-1.37891l0.68994-0.51953v1.89844h1.18896v0.58008h-1.18896v3.09863
						c0,0.47949,0.21973,0.69922,0.60938,0.69922c0.16992,0,0.35986-0.04004,0.57959-0.10938L316.48505-34.03736z"/>
					<path d="M317.73602-40.95338h0.79932v1.01953h-0.79932V-40.95338z M317.79608-38.91529h0.68945v4.92773h-0.68945V-38.91529z"/>
					<path d="M319.87567-36.45631c0-1.45898,0.94971-2.53809,2.35889-2.53809c1.39941,0,2.36865,1.0791,2.36865,2.53809
						c0,1.44922-0.95947,2.54883-2.36865,2.54883S319.87567-34.99732,319.87567-36.45631z M323.91376-36.45631
						c0-1.11914-0.62988-1.92871-1.6792-1.92871c-1.05957,0-1.66895,0.81934-1.66895,1.92871
						c0,1.11914,0.61963,1.93945,1.66895,1.93945C323.29413-34.51685,323.91376-35.3567,323.91376-36.45631z"/>
					<path d="M329.92352-37.00611v3.01855h-0.68945v-2.84863c0-1.05957-0.33984-1.54883-1.07959-1.54883
						c-0.92969,0-1.46924,0.7998-1.46924,2.18848v2.20898h-0.68945v-4.92773h0.68945v0.71973
						c0.31982-0.49902,0.91943-0.79883,1.62891-0.79883C329.37372-38.99439,329.92352-38.3147,329.92352-37.00611z"/>
				</g>
			</g>
		</g>
		<g id="Categorie" transform="translate(0.451 120.352)">
			<g class="st1">
				<path class="st4" d="M0.4367-100.48853c0-2.22852,1.31934-3.6377,3.37793-3.6377c1.46924,0,2.57861,0.70996,3.08838,2.03906
					l-1.14941,0.44922c-0.30957-0.86914-0.98926-1.29883-1.93896-1.29883c-1.34912,0-2.12891,0.87891-2.12891,2.43848
					c0,1.56934,0.78955,2.45898,2.12891,2.45898c0.95947,0,1.63916-0.4502,1.93896-1.33008l1.16943,0.44043
					c-0.49951,1.34863-1.61914,2.0791-3.1084,2.0791C1.75603-96.84986,0.4367-98.26002,0.4367-100.48853z"/>
				<path class="st4" d="M11.51433-98.4397H8.78582l-0.5293,1.43945H6.89714l2.78857-6.96582h0.93945l2.77832,6.96582h-1.35938
					L11.51433-98.4397z M11.0949-99.58912l-0.93945-2.53809l-0.93945,2.53809H11.0949z"/>
				<path class="st4" d="M15.04558-102.81666h-2.17871v-1.14941h5.6167v1.14941h-2.17871v5.81641h-1.25928V-102.81666z"/>
				<path class="st4" d="M19.44597-103.96607h4.6377v1.14941h-3.38818v1.6582h3.14795v1.14941h-3.14795v1.85938h3.38818v1.14941
					h-4.6377V-103.96607z"/>
				<path class="st4" d="M31.58269-100.76783v3.76758h-0.88916l-0.1499-0.71973c-0.41016,0.55957-1.15967,0.87012-2.05908,0.87012
					c-1.94873,0-3.43799-1.43945-3.43799-3.64844c0-2.06934,1.30908-3.62793,3.39795-3.62793
					c1.41943,0,2.55859,0.71973,3.06836,2.03906l-1.14941,0.44922c-0.30957-0.85938-0.99951-1.29883-1.93896-1.29883
					c-1.33936,0-2.12891,0.89941-2.12891,2.42871c0,1.58887,0.84961,2.46875,2.26904,2.46875
					c1.11914,0,1.77881-0.5498,1.77881-1.48926v-0.08984h-1.55908v-1.14941H31.58269z"/>
				<path class="st4" d="M32.60613-100.47877c0-2.18848,1.34961-3.6377,3.32812-3.6377c1.98926,0,3.32812,1.44922,3.32812,3.6377
					c0,2.17969-1.34912,3.62891-3.32812,3.62891C33.95574-96.84986,32.60613-98.29908,32.60613-100.47877z M38.01336-100.47877
					c0-1.50879-0.80957-2.44824-2.0791-2.44824c-1.26904,0-2.07861,0.92969-2.07861,2.44824
					c0,1.50977,0.80957,2.43945,2.07861,2.43945C37.20378-98.03931,38.01336-98.97877,38.01336-100.47877z"/>
				<path class="st4" d="M44.3239-97.00025l-1.66895-2.88867h-0.41992h-0.45996v2.88867h-1.23926v-6.96582h2.27881
					c1.65918,0,2.36865,0.75879,2.36865,2.00879c0,0.99902-0.45947,1.63867-1.28906,1.91895l1.87891,3.03809H44.3239z
					 M42.68474-101.03834c0.80957,0,1.24951-0.21973,1.24951-0.89941s-0.43994-0.87891-1.24951-0.87891h-0.90967v1.77832H42.68474z"
					/>
				<path class="st4" d="M46.75554-103.96607h1.24951v6.96582h-1.24951V-103.96607z"/>
				<path class="st4" d="M49.7658-103.96607h4.6377v1.14941h-3.38818v1.6582h3.14844v1.14941h-3.14844v1.85938h3.38818v1.14941
					h-4.6377V-103.96607z"/>
				<path class="st4" d="M55.19597-98.969l1.23926-0.30957c0.08984,0.8291,0.63965,1.29883,1.44922,1.29883
					c0.69971,0,1.14941-0.34961,1.14941-0.93945c0-0.47949-0.35986-0.7793-1.38916-1.18945
					c-1.45947-0.56934-1.979-1.09961-1.979-2.1084c0-1.12988,0.86963-1.89941,2.16895-1.89941
					c0.93945,0,1.67871,0.42969,2.11865,1.26953l-1.03955,0.63965c-0.23975-0.51953-0.64941-0.7998-1.11914-0.7998
					c-0.5,0-0.87988,0.33008-0.87988,0.75977c0,0.45996,0.33984,0.71973,1.38965,1.12891
					c1.48877,0.57031,1.97852,1.09961,1.97852,2.08887c0,1.2998-0.98926,2.15918-2.41846,2.15918
					C56.47527-96.87037,55.39568-97.69947,55.19597-98.969z"/>
			</g>
		</g>
		<g id="Numero_di_paragrafo" transform="translate(0.451 120.352)">
			<g id="Raggruppa_24926">
				<g class="st1">
					<path d="M790.17596-62.95338h1.98926c1.47949,0,2.29883,0.69922,2.29883,1.94824c0,1.26953-0.8291,1.97949-2.29883,1.97949
						h-1.2793v3.03809h-0.70996V-62.95338z M792.09491-59.6858c1.08984,0,1.64941-0.44922,1.64941-1.30859
						c0-0.86035-0.55957-1.2998-1.64941-1.2998h-1.20898v2.6084H792.09491z"/>
					<path d="M799.24432-59.05592v3.06836h-0.62988l-0.04004-0.75977c-0.38965,0.5498-0.98926,0.83984-1.76855,0.83984
						c-1.06934,0-1.69922-0.55957-1.69922-1.50977c0-0.49902,0.2002-0.87891,0.55957-1.09863
						c0.37988-0.21973,0.91016-0.31055,1.87891-0.31055h1.00977v-0.22949c0-0.85938-0.4502-1.3291-1.2793-1.3291
						c-0.62012,0-1.09961,0.26953-1.49902,0.81934l-0.5-0.41992c0.5293-0.68945,1.16895-1.00879,2.00879-1.00879
						C798.5246-60.99439,799.24432-60.28541,799.24432-59.05592z M798.55487-58.19654v-0.06934h-0.94922
						c-0.91016,0-1.2998,0.05957-1.53906,0.24902c-0.18066,0.14062-0.27051,0.36035-0.27051,0.63965
						c0,0.5498,0.46973,0.90039,1.20996,0.90039C797.95526-56.47681,798.55487-57.14674,798.55487-58.19654z"/>
					<path d="M803.92499-60.78443l-0.33984,0.55957c-0.22949-0.10059-0.43945-0.15039-0.64941-0.15039
						c-0.75977,0-1.31934,0.56934-1.31934,1.63965v2.74805h-0.68945v-4.92773h0.68945v0.74023
						c0.35938-0.64941,0.95898-0.81934,1.45898-0.81934C803.37518-60.99439,803.65546-60.93482,803.92499-60.78443z"/>
					<path d="M808.61444-59.05592v3.06836h-0.62988l-0.04004-0.75977c-0.38965,0.5498-0.98926,0.83984-1.76953,0.83984
						c-1.06934,0-1.69824-0.55957-1.69824-1.50977c0-0.49902,0.19922-0.87891,0.55957-1.09863
						c0.37988-0.21973,0.90918-0.31055,1.87891-0.31055h1.00879v-0.22949c0-0.85938-0.44922-1.3291-1.2793-1.3291
						c-0.61914,0-1.09863,0.26953-1.49902,0.81934l-0.49902-0.41992c0.5293-0.68945,1.16895-1.00879,2.00879-1.00879
						C807.89471-60.99439,808.61444-60.28541,808.61444-59.05592z M807.92401-58.19654v-0.06934h-0.94922
						c-0.90918,0-1.29883,0.05957-1.53906,0.24902c-0.17969,0.14062-0.26953,0.36035-0.26953,0.63965
						c0,0.5498,0.46973,0.90039,1.20898,0.90039C807.3244-56.47681,807.92401-57.14674,807.92401-58.19654z"/>
					<path d="M814.13397-55.22779c0,0.92969-0.86914,1.35938-2.1084,1.35938c-1.36914,0-2.19922-0.54004-2.19922-1.51953
						c0-0.09961,0.00977-0.16016,0.02051-0.21973l0.79883-0.67969c-0.37988-0.16992-0.63965-0.4502-0.63965-0.93945
						c0-0.39941,0.18066-0.69922,0.53027-0.93945c-0.25977-0.2998-0.41992-0.67969-0.41992-1.11914
						c0-1,0.81934-1.70898,1.87891-1.70898c0.47949,0,0.90918,0.14941,1.22949,0.39941l0.67969-0.58984l0.35938,0.4502
						l-0.66992,0.55957c0.16992,0.26953,0.27051,0.5791,0.27051,0.92969c0,1.00879-0.81934,1.67871-1.85938,1.67871
						c-0.37988,0-0.72949-0.08984-1.01953-0.25c-0.19922,0.11035-0.31934,0.29004-0.31934,0.5c0,0.5,0.61914,0.61914,1.3291,0.72949
						C812.97479-56.43775,814.13397-56.29713,814.13397-55.22779z M813.44452-55.16822c0-0.59961-0.7793-0.68945-1.59961-0.81934
						c-0.21973-0.03027-0.44922-0.07031-0.65918-0.12012l-0.66992,0.64941c-0.00977,0.05078-0.00977,0.07031-0.00977,0.09082
						c0,0.69922,0.70996,0.91895,1.54883,0.91895C812.92499-54.44849,813.44452-54.68873,813.44452-55.16822z M810.79608-59.26588
						c0,0.63965,0.45996,1.12988,1.19922,1.12988s1.17969-0.48047,1.17969-1.12988c0-0.67969-0.45996-1.14941-1.16992-1.14941
						C811.30585-60.41529,810.79608-59.94556,810.79608-59.26588z"/>
					<path d="M818.50409-60.78443l-0.33984,0.55957c-0.22949-0.10059-0.43945-0.15039-0.64941-0.15039
						c-0.75977,0-1.31934,0.56934-1.31934,1.63965v2.74805h-0.68945v-4.92773h0.68945v0.74023
						c0.36035-0.64941,0.95996-0.81934,1.45898-0.81934C817.95526-60.99439,818.23456-60.93482,818.50409-60.78443z"/>
					<path d="M823.19452-59.05592v3.06836h-0.62988l-0.04004-0.75977c-0.38965,0.5498-0.98926,0.83984-1.76953,0.83984
						c-1.06934,0-1.69824-0.55957-1.69824-1.50977c0-0.49902,0.19922-0.87891,0.55957-1.09863
						c0.37988-0.21973,0.90918-0.31055,1.87891-0.31055h1.00879v-0.22949c0-0.85938-0.44922-1.3291-1.2793-1.3291
						c-0.61914,0-1.09863,0.26953-1.49902,0.81934l-0.49902-0.41992c0.5293-0.68945,1.16895-1.00879,2.00879-1.00879
						C822.47479-60.99439,823.19452-60.28541,823.19452-59.05592z M822.50409-58.19654v-0.06934h-0.94922
						c-0.90918,0-1.29883,0.05957-1.53906,0.24902c-0.17969,0.14062-0.26953,0.36035-0.26953,0.63965
						c0,0.5498,0.46973,0.90039,1.20898,0.90039C821.90448-56.47681,822.50409-57.14674,822.50409-58.19654z"/>
					<path d="M829.383-58.45631c0,1.46973-0.74902,2.54883-2.18848,2.54883c-0.71973,0-1.26953-0.28027-1.62891-0.73926v2.69824
						h-0.68945v-6.9668h0.68945v0.66016c0.36914-0.47949,0.92969-0.75,1.62891-0.75
						C828.56366-61.00513,829.383-59.99537,829.383-58.45631z M828.69354-58.45631c0-1.16895-0.59961-1.93848-1.59863-1.93848
						c-0.99023,0-1.58984,0.76953-1.58984,1.93848c0,1.11914,0.5498,1.93945,1.58984,1.93945
						C828.14374-56.51685,828.69354-57.33717,828.69354-58.45631z"/>
					<path d="M834.74335-59.00611v3.01855h-0.68945v-2.84863c0-1.06934-0.33984-1.54883-1.0791-1.54883
						c-0.93945,0-1.46973,0.76953-1.46973,2.12891v2.26855h-0.68945v-6.96582h0.68945v2.75781
						c0.32031-0.49902,0.91992-0.79883,1.62891-0.79883C834.19354-60.99439,834.74335-60.3147,834.74335-59.00611z"/>
					<path d="M843.1037-59.00611v3.01855h-0.68945v-2.84863c0-1.05957-0.33984-1.54883-1.08008-1.54883
						c-0.92969,0-1.46875,0.7998-1.46875,2.18848v2.20898h-0.68945v-4.92773h0.68945v0.71973
						c0.31934-0.49902,0.91895-0.79883,1.62891-0.79883C842.55389-60.99439,843.1037-60.3147,843.1037-59.00611z"/>
					<path d="M848.51385-60.91529v4.92773h-0.68945v-0.70996c-0.34961,0.53027-0.97949,0.79004-1.62891,0.79004
						c-1.12012,0-1.60938-0.76953-1.60938-1.98926v-3.01855h0.68945v2.84863c0,0.7998,0.13965,1.5498,1.0791,1.5498
						c0.97949,0,1.46973-0.84961,1.46973-2.12891v-2.26953H848.51385z"/>
					<path d="M857.09198-59.06568v3.07812h-0.68945v-2.88867c0-0.41992,0-1.50879-1.0791-1.50879
						c-1,0-1.26953,0.91895-1.26953,2.02832v2.36914h-0.68945v-2.84863c0-0.81934-0.25-1.54883-1.10938-1.54883
						c-0.95996,0-1.22949,0.90918-1.22949,2.02832v2.36914h-0.68945l-0.01074-4.92773h0.66992v0.60059
						c0.30957-0.49023,0.80957-0.67969,1.35938-0.67969c0.68945,0,1.19922,0.2998,1.44922,0.94922
						c0.31934-0.62988,0.86914-0.94922,1.61914-0.94922C856.60272-60.99439,857.09198-60.2151,857.09198-59.06568z"/>
					<path d="M863.30292-58.45631c0,1.46973-0.75,2.54883-2.18945,2.54883c-0.71875,0-1.26855-0.28027-1.62891-0.73926v0.65918
						h-0.68945v-6.96582h0.68945v2.69824c0.37012-0.47949,0.92969-0.75,1.62891-0.75
						C862.48358-61.00513,863.30292-59.99537,863.30292-58.45631z M862.61346-58.45631c0-1.16895-0.59961-1.93848-1.59961-1.93848
						c-0.98926,0-1.58887,0.76953-1.58887,1.93848c0,1.11914,0.5498,1.93945,1.58887,1.93945
						C862.06366-56.51685,862.61346-57.33717,862.61346-58.45631z"/>
					<path d="M868.633-58.26588h-3.60742c0.01953,1.0791,0.61914,1.72852,1.58887,1.72852
						c0.54004,0,0.96973-0.13965,1.41895-0.61914l0.48047,0.41895c-0.58008,0.61035-1.14941,0.83008-1.90918,0.83008
						c-1.49902,0-2.26855-1.11914-2.26855-2.51855c0-1.38965,0.75977-2.56836,2.18848-2.56836
						c1.50879,0,2.13867,1.17871,2.13867,2.29785C868.66327-58.55592,868.6535-58.38599,868.633-58.26588z M865.02557-58.84595
						h2.97852c0-0.02051-0.01074-0.07031-0.01074-0.16016c-0.0498-0.7998-0.55957-1.40918-1.46875-1.40918
						C865.63495-60.41529,865.08514-59.7151,865.02557-58.84595z"/>
					<path d="M873.05389-60.78443l-0.33984,0.55957c-0.22949-0.10059-0.43945-0.15039-0.64941-0.15039
						c-0.75977,0-1.31934,0.56934-1.31934,1.63965v2.74805h-0.68945v-4.92773h0.68945v0.74023
						c0.35938-0.64941,0.95898-0.81934,1.45898-0.81934C872.50409-60.99439,872.78436-60.93482,873.05389-60.78443z"/>
				</g>
			</g>
		</g>
		<g id="Numerazioni" transform="translate(0.451 120.352)">
			<g class="st1">
				<path class="st4" d="M716.38397-103.96607v6.96582h-1.2998l-2.91797-4.81738v4.81738h-1.25v-6.96582h1.29004l2.92773,4.79688
					v-4.79688H716.38397z"/>
				<path class="st4" d="M718.00702-99.51881v-4.44727h1.24902v4.30762c0,1.17871,0.37988,1.59863,1.40918,1.59863
					s1.41895-0.42969,1.41895-1.59863v-4.30762h1.25v4.39746c0,1.80859-0.91016,2.71875-2.66895,2.71875
					C718.9162-96.84986,718.00702-97.73951,718.00702-99.51881z"/>
				<path class="st4" d="M732.12225-103.96607v6.96582h-1.24902v-5.20703l-1.72852,4.59766h-1.20996l-1.72852-4.59766v5.20703h-1.25
					v-6.96582h1.78906l1.78906,4.90723l1.79883-4.90723H732.12225z"/>
				<path class="st4" d="M733.88593-103.96607h2.42871c1.38965,0,2.20898,0.65918,2.20898,1.75879
					c0,0.64941-0.2793,1.16895-0.76953,1.44922c0.75,0.26953,1.13965,0.84961,1.13965,1.71875
					c0,1.2793-0.84961,2.03906-2.26855,2.03906h-2.73926V-103.96607z M736.31464-101.19752
					c0.62988,0,0.95996-0.27051,0.95996-0.79004c0-0.5293-0.34961-0.8291-0.95996-0.8291h-1.17871v1.61914H736.31464z
					 M736.5246-98.14967c0.7002,0,1.12012-0.37988,1.12012-0.98926c0-0.58984-0.39062-0.90918-1.12012-0.90918h-1.38867v1.89844
					H736.5246z"/>
				<path class="st4" d="M740.17596-103.96607h4.6377v1.14941h-3.3877v1.6582h3.14844v1.14941h-3.14844v1.85938h3.3877v1.14941
					h-4.6377V-103.96607z"/>
				<path class="st4" d="M750.06464-97.00025l-1.66895-2.88867h-0.41992h-0.45996v2.88867h-1.23926v-6.96582h2.27832
					c1.65918,0,2.36914,0.75879,2.36914,2.00879c0,0.99902-0.45996,1.63867-1.28906,1.91895l1.87891,3.03809H750.06464z
					 M748.42499-101.03834c0.80957,0,1.25-0.21973,1.25-0.89941s-0.44043-0.87891-1.25-0.87891h-0.90918v1.77832H748.42499z"/>
				<path class="st4" d="M751.82635-98.969l1.23926-0.30957c0.08984,0.8291,0.63965,1.29883,1.44922,1.29883
					c0.7002,0,1.14941-0.34961,1.14941-0.93945c0-0.47949-0.35938-0.7793-1.38867-1.18945
					c-1.45996-0.56934-1.97949-1.09961-1.97949-2.1084c0-1.12988,0.87012-1.89941,2.16895-1.89941
					c0.93945,0,1.67871,0.42969,2.11914,1.26953l-1.04004,0.63965c-0.23926-0.51953-0.64941-0.7998-1.11914-0.7998
					c-0.5,0-0.87988,0.33008-0.87988,0.75977c0,0.45996,0.33984,0.71973,1.38965,1.12891
					c1.48926,0.57031,1.97852,1.09961,1.97852,2.08887c0,1.2998-0.98926,2.15918-2.41797,2.15918
					C753.10565-96.87037,752.02655-97.69947,751.82635-98.969z"/>
			</g>
		</g>
		<g id="Occorrenze_testo_dubitativo" transform="translate(0.451 120.352)">
			<g id="Raggruppa_24927">
				<g class="st1">
					<path d="M789.70624-81.46656c0-2.1582,1.2793-3.58789,3.18848-3.58789s3.18848,1.42969,3.18848,3.58789
						c0,2.14941-1.2793,3.57812-3.18848,3.57812S789.70624-79.31715,789.70624-81.46656z M795.37323-81.46656
						c0-1.77832-0.96875-2.9082-2.47852-2.9082c-1.50879,0-2.47852,1.12988-2.47852,2.9082
						c0,1.76953,0.96973,2.89844,2.47852,2.89844C794.40448-78.56812,795.37323-79.69703,795.37323-81.46656z"/>
					<path d="M797.25604-80.43629c0-1.2998,0.73047-2.55859,2.21973-2.55859c0.87891,0,1.6084,0.43945,1.99805,1.3584
						l-0.65918,0.26074c-0.22949-0.62988-0.71973-1.00977-1.33887-1.00977c-1.0498,0-1.51953,0.93945-1.51953,1.94922
						c0,1.00879,0.46973,1.91895,1.5293,1.91895c0.61914,0,1.10938-0.37012,1.29883-1l0.63965,0.24023
						c-0.33008,0.89941-1.04883,1.36914-1.93848,1.36914C798.05585-77.90797,797.25604-79.06715,797.25604-80.43629z"/>
					<path d="M802.28632-80.43629c0-1.2998,0.73047-2.55859,2.21973-2.55859c0.87891,0,1.6084,0.43945,1.99805,1.3584
						l-0.65918,0.26074c-0.22949-0.62988-0.71973-1.00977-1.33887-1.00977c-1.0498,0-1.51953,0.93945-1.51953,1.94922
						c0,1.00879,0.46973,1.91895,1.5293,1.91895c0.61914,0,1.10938-0.37012,1.29883-1l0.63965,0.24023
						c-0.33008,0.89941-1.04883,1.36914-1.93848,1.36914C803.08612-77.90797,802.28632-79.06715,802.28632-80.43629z"/>
					<path d="M811.53436-82.91578v4.92773h-0.68945v-0.70996c-0.34961,0.53027-0.97949,0.79004-1.62891,0.79004
						c-1.12012,0-1.60938-0.76953-1.60938-1.98926v-3.01855h0.68945v2.84863c0,0.7998,0.13965,1.5498,1.0791,1.5498
						c0.97949,0,1.46973-0.84961,1.46973-2.12891v-2.26953H811.53436z"/>
					<path d="M816.35468-82.78492l-0.33984,0.55957c-0.22949-0.10059-0.43945-0.15039-0.64941-0.15039
						c-0.75977,0-1.31934,0.56934-1.31934,1.63965v2.74805h-0.68945v-4.92773h0.68945v0.74023
						c0.35938-0.64941,0.95898-0.81934,1.45898-0.81934C815.80487-82.99488,816.08514-82.93531,816.35468-82.78492z"/>
					<path d="M820.37421-82.78492l-0.33984,0.55957c-0.22949-0.10059-0.43945-0.15039-0.64941-0.15039
						c-0.75977,0-1.31934,0.56934-1.31934,1.63965v2.74805h-0.68945v-4.92773h0.68945v0.74023
						c0.36035-0.64941,0.95996-0.81934,1.45898-0.81934C819.82538-82.99488,820.10468-82.93531,820.37421-82.78492z"/>
					<path d="M824.84393-80.26637h-3.60742c0.01953,1.0791,0.61914,1.72852,1.58887,1.72852
						c0.54004,0,0.96973-0.13965,1.41895-0.61914l0.48047,0.41895c-0.58008,0.61035-1.14941,0.83008-1.90918,0.83008
						c-1.49902,0-2.26855-1.11914-2.26855-2.51855c0-1.38965,0.75977-2.56836,2.18848-2.56836
						c1.50879,0,2.13867,1.17871,2.13867,2.29785C824.87421-80.5564,824.86444-80.38648,824.84393-80.26637z M821.23651-80.84644
						h2.97852c0-0.02051-0.01074-0.07031-0.01074-0.16016c-0.0498-0.7998-0.55957-1.40918-1.46875-1.40918
						C821.84589-82.41578,821.29608-81.71558,821.23651-80.84644z"/>
					<path d="M830.19452-81.0066v3.01855h-0.68945v-2.84863c0-1.05957-0.33984-1.54883-1.08008-1.54883
						c-0.92969,0-1.46875,0.7998-1.46875,2.18848v2.20898h-0.68945v-4.92773h0.68945v0.71973
						c0.31934-0.49902,0.91895-0.79883,1.62891-0.79883C829.64471-82.99488,830.19452-82.31519,830.19452-81.0066z"/>
					<path d="M831.48651-80.43629c0-1.2998,0.72949-2.55859,2.21875-2.55859c0.87988,0,1.60938,0.43945,1.99902,1.3584
						l-0.66016,0.26074c-0.22949-0.62988-0.71875-1.00977-1.33887-1.00977c-1.0498,0-1.51953,0.93945-1.51953,1.94922
						c0,1.00879,0.46973,1.91895,1.5293,1.91895c0.62012,0,1.10938-0.37012,1.2998-1l0.63965,0.24023
						c-0.33008,0.89941-1.0498,1.36914-1.93945,1.36914C832.28632-77.90797,831.48651-79.06715,831.48651-80.43629z"/>
					<path d="M840.82343-80.26637H837.216c0.01953,1.0791,0.61914,1.72852,1.58887,1.72852
						c0.54004,0,0.96973-0.13965,1.41895-0.61914l0.48047,0.41895c-0.58008,0.61035-1.14941,0.83008-1.90918,0.83008
						c-1.49902,0-2.26855-1.11914-2.26855-2.51855c0-1.38965,0.75977-2.56836,2.18848-2.56836
						c1.50879,0,2.13867,1.17871,2.13867,2.29785C840.8537-80.5564,840.84393-80.38648,840.82343-80.26637z M837.216-80.84644
						h2.97852c0-0.02051-0.01074-0.07031-0.01074-0.16016c-0.0498-0.7998-0.55957-1.40918-1.46875-1.40918
						C837.82538-82.41578,837.27557-81.71558,837.216-80.84644z"/>
					<path d="M841.71698-79.19703l0.5791-0.25977c0.17969,0.50977,0.66016,0.93945,1.42969,0.93945
						c0.66895,0,1.09961-0.33008,1.09961-0.84961c0-1.30957-2.83887-0.49023-2.83887-2.23926
						c0-0.85938,0.69922-1.38867,1.68945-1.38867c0.78906,0,1.42871,0.3291,1.76855,1.0293l-0.5498,0.2998
						c-0.23926-0.44043-0.62988-0.71973-1.23926-0.71973s-0.99902,0.25-0.99902,0.67969c0,1.16895,2.84766,0.42969,2.84766,2.29883
						c0,0.99902-0.81934,1.49902-1.76855,1.49902C842.76581-77.90797,841.97675-78.40797,841.71698-79.19703z"/>
					<path d="M849.20624-80.45679c0-1.45898,0.94922-2.53809,2.3584-2.53809c1.39941,0,2.36914,1.0791,2.36914,2.53809
						c0,1.44922-0.95996,2.54883-2.36914,2.54883S849.20624-78.99781,849.20624-80.45679z M853.24432-80.45679
						c0-1.11914-0.62988-1.92871-1.67969-1.92871c-1.05957,0-1.66895,0.81934-1.66895,1.92871
						c0,1.11914,0.62012,1.93945,1.66895,1.93945C852.62421-78.51734,853.24432-79.35719,853.24432-80.45679z"/>
					<path d="M855.62616-82.3357h-1.04004v-0.58008h1.0498v-0.75879c0-1.0498,0.60938-1.35938,1.23926-1.35938
						c0.26953,0,0.56934,0.05957,0.87988,0.18945l-0.24023,0.5498c-0.20996-0.09961-0.39941-0.16016-0.56934-0.16016
						c-0.39062,0-0.62988,0.27051-0.62988,0.72949v0.80957h1.41895v0.58008h-1.41895v4.34766h-0.68945V-82.3357z"/>
					<path d="M865.66327-84.95387v6.96582h-0.68945v-0.65918c-0.35938,0.45898-0.90918,0.73926-1.62891,0.73926
						c-1.43945,0-2.18945-1.0791-2.18945-2.54883c0-1.53906,0.82031-2.54883,2.18945-2.54883
						c0.69922,0,1.25879,0.27051,1.62891,0.75v-2.69824H865.66327z M865.03339-80.45679c0-1.16895-0.59961-1.93848-1.58887-1.93848
						c-0.99902,0-1.59863,0.76953-1.59863,1.93848c0,1.11914,0.5498,1.93945,1.59863,1.93945
						C864.48358-78.51734,865.03339-79.33765,865.03339-80.45679z"/>
					<path d="M871.24335-82.91578v4.92773h-0.68945v-0.70996c-0.34961,0.53027-0.97949,0.79004-1.62891,0.79004
						c-1.11914,0-1.60938-0.76953-1.60938-1.98926v-3.01855h0.68945v2.84863c0,0.7998,0.14062,1.5498,1.08008,1.5498
						c0.97949,0,1.46875-0.84961,1.46875-2.12891v-2.26953H871.24335z"/>
					<path d="M877.57343-80.45679c0,1.46973-0.75,2.54883-2.18945,2.54883c-0.71875,0-1.26855-0.28027-1.62891-0.73926v0.65918
						h-0.68945v-6.96582h0.68945v2.69824c0.37012-0.47949,0.92969-0.75,1.62891-0.75
						C876.75409-83.00562,877.57343-81.99586,877.57343-80.45679z M876.88397-80.45679c0-1.16895-0.59961-1.93848-1.59961-1.93848
						c-0.98926,0-1.58887,0.76953-1.58887,1.93848c0,1.11914,0.5498,1.93945,1.58887,1.93945
						C876.33417-78.51734,876.88397-79.33765,876.88397-80.45679z"/>
					<path d="M878.9455-84.95387h0.7998v1.01953h-0.7998V-84.95387z M879.00604-82.91578h0.68945v4.92773h-0.68945V-82.91578z"/>
					<path d="M883.56464-78.03785c-0.25977,0.08008-0.52051,0.12988-0.75,0.12988c-0.65918,0-1.13965-0.37012-1.13965-1.23926
						v-3.18848h-0.81934v-0.58008h0.81934v-1.37891l0.69043-0.51953v1.89844h1.18848v0.58008h-1.18848v3.09863
						c0,0.47949,0.21973,0.69922,0.60938,0.69922c0.16992,0,0.35938-0.04004,0.5791-0.10938L883.56464-78.03785z"/>
					<path d="M888.54413-81.0564v3.06836h-0.62988l-0.04004-0.75977c-0.38965,0.5498-0.98926,0.83984-1.76953,0.83984
						c-1.06934,0-1.69824-0.55957-1.69824-1.50977c0-0.49902,0.19922-0.87891,0.55957-1.09863
						c0.37988-0.21973,0.90918-0.31055,1.87891-0.31055h1.00879v-0.22949c0-0.85938-0.44922-1.3291-1.2793-1.3291
						c-0.61914,0-1.09863,0.26953-1.49902,0.81934l-0.49902-0.41992c0.5293-0.68945,1.16895-1.00879,2.00879-1.00879
						C887.8244-82.99488,888.54413-82.2859,888.54413-81.0564z M887.8537-80.19703v-0.06934h-0.94922
						c-0.90918,0-1.29883,0.05957-1.53906,0.24902c-0.17969,0.14062-0.26953,0.36035-0.26953,0.63965
						c0,0.5498,0.46973,0.90039,1.20898,0.90039C887.25409-78.4773,887.8537-79.14722,887.8537-80.19703z"/>
					<path d="M892.2746-78.03785c-0.25977,0.08008-0.52051,0.12988-0.75,0.12988c-0.65918,0-1.13965-0.37012-1.13965-1.23926
						v-3.18848h-0.81934v-0.58008h0.81934v-1.37891l0.69043-0.51953v1.89844h1.18848v0.58008h-1.18848v3.09863
						c0,0.47949,0.21973,0.69922,0.60938,0.69922c0.16992,0,0.35938-0.04004,0.5791-0.10938L892.2746-78.03785z"/>
					<path d="M893.52557-84.95387h0.79883v1.01953h-0.79883V-84.95387z M893.58514-82.91578h0.68945v4.92773h-0.68945V-82.91578z"/>
					<path d="M895.38593-82.91578h0.75l1.54883,4.04785l1.55859-4.04785h0.75977l-2.01855,4.92773h-0.58984L895.38593-82.91578z"/>
					<path d="M904.86346-80.26637h-3.6084c0.02051,1.0791,0.62012,1.72852,1.58984,1.72852
						c0.53906,0,0.96875-0.13965,1.41895-0.61914l0.47949,0.41895c-0.5791,0.61035-1.14941,0.83008-1.90918,0.83008
						c-1.49902,0-2.26855-1.11914-2.26855-2.51855c0-1.38965,0.75977-2.56836,2.18945-2.56836
						c1.50879,0,2.13867,1.17871,2.13867,2.29785C904.89374-80.5564,904.883-80.38648,904.86346-80.26637z M901.25507-80.84644
						h2.97852c0-0.02051-0.00977-0.07031-0.00977-0.16016c-0.0498-0.7998-0.55957-1.40918-1.46875-1.40918
						C901.86542-82.41578,901.31561-81.71558,901.25507-80.84644z"/>
					<path d="M911.06464-78.03785c-0.25977,0.08008-0.52051,0.12988-0.75,0.12988c-0.65918,0-1.13965-0.37012-1.13965-1.23926
						v-3.18848h-0.81934v-0.58008h0.81934v-1.37891l0.69043-0.51953v1.89844h1.18848v0.58008h-1.18848v3.09863
						c0,0.47949,0.21973,0.69922,0.60938,0.69922c0.16992,0,0.35938-0.04004,0.5791-0.10938L911.06464-78.03785z"/>
					<path d="M916.22284-80.26637h-3.60742c0.01953,1.0791,0.61914,1.72852,1.58887,1.72852
						c0.54004,0,0.96973-0.13965,1.41895-0.61914l0.48047,0.41895c-0.58008,0.61035-1.14941,0.83008-1.90918,0.83008
						c-1.49902,0-2.26855-1.11914-2.26855-2.51855c0-1.38965,0.75977-2.56836,2.18848-2.56836
						c1.50879,0,2.13867,1.17871,2.13867,2.29785C916.25311-80.5564,916.24335-80.38648,916.22284-80.26637z M912.61542-80.84644
						h2.97852c0-0.02051-0.01074-0.07031-0.01074-0.16016c-0.0498-0.7998-0.55957-1.40918-1.46875-1.40918
						C913.22479-82.41578,912.67499-81.71558,912.61542-80.84644z"/>
					<path d="M918.7951-80.45679l-1.7998-2.45898h0.83984l1.41895,1.97949l1.40918-1.97949h0.83984l-1.79883,2.45898
						l1.80859,2.46875h-0.84961l-1.40918-1.99902l-1.40918,1.99902h-0.84961L918.7951-80.45679z"/>
					<path d="M924.7746-78.03785c-0.25977,0.08008-0.52051,0.12988-0.75,0.12988c-0.65918,0-1.13965-0.37012-1.13965-1.23926
						v-3.18848h-0.81934v-0.58008h0.81934v-1.37891l0.69043-0.51953v1.89844h1.18848v0.58008h-1.18848v3.09863
						c0,0.47949,0.21973,0.69922,0.60938,0.69922c0.16992,0,0.35938-0.04004,0.5791-0.10938L924.7746-78.03785z"/>
				</g>
			</g>
		</g>
		<g id="Ellipse_4" transform="translate(0.451 120.352)">
			<circle id="Ellisse_33612" class="st8" cx="743.03705" cy="-81.408" r="5.793"/>
			<circle id="Ellisse_33613" class="st9" cx="743.03699" cy="-81.408" r="6"/>
		</g>
		<g id="Ellipse_7" transform="translate(0.451 120.352)">
			<circle id="Ellisse_33614" class="st8" cx="767.03705" cy="-81.408" r="5.793"/>
			<circle id="Ellisse_33615" class="st9" cx="767.03699" cy="-81.408" r="6"/>
		</g>
		<g id="Ellipse_6" transform="translate(0.451 120.352)">
			<circle id="Ellisse_33616" class="st8" cx="717.03705" cy="-81.408" r="5.793"/>
			<circle id="Ellisse_33617" class="st9" cx="717.03699" cy="-81.408" r="6"/>
		</g>
		<g id="_12" transform="translate(0.451 120.352)">
			<g class="st1">
				<path class="st4" d="M741.01874-83.6731v4.88184h-0.72168v-3.48828h-1.16895v-0.62305h0.70703
					c0.30762,0,0.46191-0.11914,0.46191-0.43457v-0.33594H741.01874z"/>
				<path class="st4" d="M746.09393-79.47095v0.67969h-3.40332v-0.60938c0.95215-0.58789,2.47168-1.60352,2.47168-2.79492
					c0-0.50391-0.26562-0.84668-0.79785-0.84668c-0.6582,0-0.90332,0.53223-0.91797,1.10645l-0.70703-0.05664
					c0-0.91699,0.57422-1.74316,1.63184-1.74316c0.88965,0,1.5127,0.58105,1.5127,1.49805c0,1.14941-0.99414,2.15723-1.96777,2.7666
					H746.09393z"/>
			</g>
		</g>
		<g id="_41" transform="translate(0.451 120.352)">
			<g class="st1">
				<path class="st4" d="M767.25507-80.63306v0.68652h-0.78418v1.15527h-0.72168v-1.15527h-2.33203v-0.44141l2.41602-3.28516h0.6377
					v3.04004H767.25507z M765.74921-80.63306v-1.98242l-1.41504,1.98242H765.74921z"/>
				<path class="st4" d="M770.08905-83.6731v4.88184h-0.7207v-3.48828h-1.16992v-0.62305h0.70703
					c0.30859,0,0.46289-0.11914,0.46289-0.43457v-0.33594H770.08905z"/>
			</g>
		</g>
		<g id="_1" transform="translate(0.451 120.352)">
			<g class="st1">
				<path class="st4" d="M717.38593-83.6731v4.88184h-0.7207v-3.48828h-1.16992v-0.62305h0.70703
					c0.30859,0,0.46289-0.11914,0.46289-0.43457v-0.33594H717.38593z"/>
			</g>
		</g>
		<g id="Raggruppa_24928" transform="translate(0.451 120.352)">
			<rect id="Rectangle_19-2" x="723.03699" y="-63.988" class="st5" width="20" height="10"/>
			<rect id="Rectangle_24" x="747.03699" y="-63.988" class="st5" width="28" height="10"/>
			<line id="Line_63-2" class="st6" x1="724.03699" y1="-58.988" x2="742.52899" y2="-58.988"/>
			<line id="Line_67" class="st6" x1="748.53699" y1="-58.918" x2="767.03699" y2="-58.988"/>
			<line id="Line_68" class="st6" x1="760.53699" y1="-58.918" x2="775.53699" y2="-58.918"/>
			<g id="_18">
				<g class="st1">
					<path class="st4" d="M713.4035-61.99146v5.57324h-0.82324v-3.98145h-1.33594v-0.71191h0.80762
						c0.35254,0,0.52832-0.13574,0.52832-0.49609v-0.38379H713.4035z"/>
					<path class="st4" d="M715.25311-58.04127c0-0.63965,0.31152-1.14355,0.88672-1.40723
						c-0.36719-0.22363-0.59961-0.59961-0.59961-1.10352c0-0.95117,0.83984-1.51074,1.71973-1.51074
						c0.90332,0,1.71875,0.5752,1.71875,1.51855c0,0.50391-0.24023,0.87207-0.59961,1.0957
						c0.56738,0.26367,0.87891,0.76758,0.87891,1.40723c0,1.13574-0.95898,1.69531-1.99805,1.69531
						C716.22772-56.34595,715.25311-56.90553,715.25311-58.04127z M718.43475-58.11353c0-0.63184-0.4873-1.00684-1.1748-1.00684
						c-0.69629,0-1.18359,0.375-1.18359,1.00684c0,0.65625,0.52734,0.9834,1.18359,0.9834
						C717.90741-57.13013,718.43475-57.45728,718.43475-58.11353z M718.15546-60.48756c0-0.48047-0.36816-0.79199-0.89551-0.79199
						c-0.50391,0-0.89551,0.2959-0.89551,0.7832c0,0.50391,0.36719,0.81641,0.89551,0.81641
						C717.7951-59.67994,718.15546-59.99244,718.15546-60.48756z"/>
				</g>
			</g>
		</g>
		<line id="Linea_7940" class="st10" x1="0.488" y1="0.352" x2="938.48798" y2="0.352"/>
		<g class="st1">
			<path d="M39.25586,35.39813v6.96582h-0.71973v-6.0166l-2.24902,5.43652h-0.69922l-2.25879-5.45703v6.03711h-0.70996v-6.96582
				h1.03955l2.27881,5.55664l2.27881-5.55664H39.25586z"/>
			<path d="M45.20703,40.08563h-3.60791c0.02002,1.0791,0.61963,1.72852,1.58936,1.72852c0.53955,0,0.96924-0.13965,1.41895-0.61914
				l0.47998,0.41895c-0.57959,0.61035-1.14941,0.83008-1.90918,0.83008c-1.49902,0-2.26855-1.11914-2.26855-2.51855
				c0-1.38965,0.75977-2.56836,2.18896-2.56836c1.50879,0,2.13867,1.17871,2.13867,2.29785
				C45.2373,39.79559,45.22705,39.96552,45.20703,40.08563z M41.59912,39.50555h2.97852c0-0.02051-0.01025-0.07031-0.01025-0.16016
				c-0.0498-0.7998-0.55957-1.40918-1.46875-1.40918C42.20898,37.93622,41.65918,38.63641,41.59912,39.50555z"/>
			<path d="M50.29736,39.29559v3.06836h-0.62988l-0.04004-0.75977c-0.38965,0.5498-0.98926,0.83984-1.76904,0.83984
				c-1.06934,0-1.69873-0.55957-1.69873-1.50977c0-0.49902,0.19971-0.87891,0.55957-1.09863
				c0.37988-0.21973,0.90967-0.31055,1.87891-0.31055h1.00928v-0.22949c0-0.85938-0.44971-1.3291-1.2793-1.3291
				c-0.61963,0-1.09912,0.26953-1.49902,0.81934l-0.49951-0.41992c0.5293-0.68945,1.16895-1.00879,2.00879-1.00879
				C49.57764,37.35712,50.29736,38.0661,50.29736,39.29559z M49.60742,40.15497v-0.06934H48.6582
				c-0.90967,0-1.29932,0.05957-1.53906,0.24902c-0.18018,0.14062-0.27002,0.36035-0.27002,0.63965
				c0,0.5498,0.46973,0.90039,1.20947,0.90039C49.00781,41.87469,49.60742,41.20477,49.60742,40.15497z"/>
			<path d="M55.90723,39.3454v3.01855h-0.68945v-2.84863c0-1.05957-0.33984-1.54883-1.07959-1.54883
				c-0.92969,0-1.46924,0.7998-1.46924,2.18848v2.20898h-0.68945v-4.92773h0.68945v0.71973
				c0.31982-0.49902,0.91943-0.79883,1.62891-0.79883C55.35742,37.35712,55.90723,38.0368,55.90723,39.3454z"/>
			<path d="M57.54932,35.39813h0.79932v1.01953h-0.79932V35.39813z M57.60938,37.43622h0.68945v4.92773h-0.68945V37.43622z"/>
			<path d="M64.04688,39.3454v3.01855h-0.68945v-2.84863c0-1.05957-0.33984-1.54883-1.07959-1.54883
				c-0.92969,0-1.46924,0.7998-1.46924,2.18848v2.20898h-0.68945v-4.92773h0.68945v0.71973
				c0.31982-0.49902,0.91943-0.79883,1.62891-0.79883C63.49707,37.35712,64.04688,38.0368,64.04688,39.3454z"/>
			<path d="M69.58691,43.12372c0,0.92969-0.86963,1.35938-2.10889,1.35938c-1.36914,0-2.19873-0.54004-2.19873-1.51953
				c0-0.09961,0.00977-0.16016,0.02002-0.21973l0.79932-0.67969c-0.37988-0.16992-0.63965-0.4502-0.63965-0.93945
				c0-0.39941,0.18018-0.69922,0.52979-0.93945c-0.25977-0.2998-0.41992-0.67969-0.41992-1.11914
				c0-1,0.81982-1.70898,1.87891-1.70898c0.47998,0,0.90967,0.14941,1.22949,0.39941l0.67969-0.58984l0.35986,0.4502
				l-0.66992,0.55957c0.16992,0.26953,0.27002,0.5791,0.27002,0.92969c0,1.00879-0.81934,1.67871-1.85889,1.67871
				c-0.37988,0-0.72949-0.08984-1.01953-0.25c-0.19971,0.11035-0.31982,0.29004-0.31982,0.5c0,0.5,0.61963,0.61914,1.3291,0.72949
				C68.42725,41.91376,69.58691,42.05438,69.58691,43.12372z M68.89697,43.18329c0-0.59961-0.7793-0.68945-1.59912-0.81934
				c-0.21973-0.03027-0.44971-0.07031-0.65967-0.12012l-0.66943,0.64941c-0.01025,0.05078-0.01025,0.07031-0.01025,0.09082
				c0,0.69922,0.70996,0.91895,1.54932,0.91895C68.37744,43.90302,68.89697,43.66278,68.89697,43.18329z M66.24854,39.08563
				c0,0.63965,0.45996,1.12988,1.19922,1.12988c0.73975,0,1.17969-0.48047,1.17969-1.12988
				c0-0.67969-0.45996-1.14941-1.16943-1.14941C66.7583,37.93622,66.24854,38.40594,66.24854,39.08563z"/>
		</g>
		<g class="st1">
			<path d="M32.61816,57.39862h4.72754v0.65918h-4.01758v2.42871h3.51807v0.66016h-3.51807v3.21777h-0.70996V57.39862z"/>
			<path d="M37.88916,61.89569c0-1.45898,0.94922-2.53809,2.3584-2.53809c1.39941,0,2.36865,1.0791,2.36865,2.53809
				c0,1.44922-0.95947,2.54883-2.36865,2.54883S37.88916,63.35468,37.88916,61.89569z M41.92676,61.89569
				c0-1.11914-0.62988-1.92871-1.6792-1.92871c-1.05957,0-1.66895,0.81934-1.66895,1.92871
				c0,1.11914,0.61963,1.93945,1.66895,1.93945C41.30713,63.83514,41.92676,62.9953,41.92676,61.89569z"/>
			<path d="M47.00684,59.56757l-0.33984,0.55957c-0.22949-0.10059-0.43945-0.15039-0.64941-0.15039
				c-0.75977,0-1.31934,0.56934-1.31934,1.63965v2.74805h-0.68945v-4.92773h0.68945v0.74023
				c0.35986-0.64941,0.95947-0.81934,1.45898-0.81934C46.45752,59.3576,46.7373,59.41718,47.00684,59.56757z"/>
			<path d="M54.78467,61.28632v3.07812h-0.68994v-2.88867c0-0.41992,0-1.50879-1.0791-1.50879
				c-0.99951,0-1.26953,0.91895-1.26953,2.02832v2.36914h-0.68945v-2.84863c0-0.81934-0.25-1.54883-1.10938-1.54883
				c-0.95947,0-1.22949,0.90918-1.22949,2.02832v2.36914h-0.68945l-0.01025-4.92773h0.66992v0.60059
				c0.30957-0.49023,0.80957-0.67969,1.35889-0.67969c0.68994,0,1.19971,0.2998,1.44922,0.94922
				c0.31982-0.62988,0.86963-0.94922,1.61914-0.94922C54.29492,59.3576,54.78467,60.1369,54.78467,61.28632z"/>
		</g>
		<path id="Rectangle_13359" class="st11" d="M5,34.364h11c2.76142,0,5,2.23858,5,5l0,0c0,2.76142-2.23858,5-5,5H5
			c-2.76142,0-5-2.23858-5-5l0,0C0,36.60258,2.23858,34.364,5,34.364z"/>
		<path id="Rectangle_13360" class="st12" d="M5,56.364h11c2.76142,0,5,2.23857,5,5l0,0c0,2.76143-2.23858,5-5,5H5
			c-2.76142,0-5-2.23857-5-5l0,0C0,58.60257,2.23858,56.364,5,56.364z"/>
		<line id="Linea_7939" class="st10" x1="0.488" y1="103.962" x2="938.48798" y2="103.962"/>
	</g>
</g>
</svg>
