<?xml version="1.0" encoding="utf-8"?>
<!-- Generator: Adobe Illustrator 25.0.0, SVG Export Plug-In . SVG Version: 6.00 Build 0)  -->
<svg version="1.1" id="Livello_1" xmlns="http://www.w3.org/2000/svg" xmlns:xlink="http://www.w3.org/1999/xlink" x="0px" y="0px"
	 viewBox="0 0 300 99" enable-background="new 0 0 300 99" xml:space="preserve">
<g enable-background="new    ">
	<path d="M196.81934,88.75781v6.96582h-0.68945v-5.16699h-1.73926v-0.67969h1.15918c0.34961,0,0.58008-0.12012,0.58008-0.53027
		v-0.58887H196.81934z"/>
	<path d="M199.53027,92.24512c0-1.6582,0.35059-3.58789,2.15918-3.58789c1.64941,0,2.21875,1.68945,2.21875,3.59863
		c0,1.9082-0.55957,3.56738-2.14844,3.56738C199.90039,95.82324,199.53027,93.9043,199.53027,92.24512z M203.16895,92.24512
		c0-1.6084-0.30957-2.92773-1.47949-2.92773c-1.21875,0-1.44922,1.42871-1.44922,2.92773c0,1.46973,0.23047,2.91895,1.49902,2.91895
		C202.86914,95.16406,203.16895,93.82422,203.16895,92.24512z"/>
	<path d="M205.16016,92.24512c0-1.6582,0.35059-3.58789,2.15918-3.58789c1.64941,0,2.21875,1.68945,2.21875,3.59863
		c0,1.9082-0.55957,3.56738-2.14844,3.56738C205.53027,95.82324,205.16016,93.9043,205.16016,92.24512z M208.79883,92.24512
		c0-1.6084-0.30957-2.92773-1.47949-2.92773c-1.21875,0-1.44922,1.42871-1.44922,2.92773c0,1.46973,0.23047,2.91895,1.49902,2.91895
		C208.49902,95.16406,208.79883,93.82422,208.79883,92.24512z"/>
	<path d="M210.68066,90.25684c0-0.79004,0.43945-1.5791,1.2998-1.5791c0.76953,0,1.31934,0.67969,1.31934,1.58887
		c0,0.88965-0.54004,1.55957-1.29004,1.55957C211.13086,91.82617,210.68066,91.0459,210.68066,90.25684z M212.81934,90.2666
		c0-0.59961-0.2998-1.10938-0.83887-1.10938c-0.58008,0-0.82031,0.55957-0.82031,1.09961c0,0.53906,0.25,1.08887,0.84961,1.08887
		C212.47949,91.3457,212.81934,90.89648,212.81934,90.2666z M215.47852,88.75781h0.49902l-3.92773,6.96582h-0.50977
		L215.47852,88.75781z M214.22852,94.22461c0-0.7793,0.44043-1.56934,1.2998-1.56934c0.76953,0,1.31934,0.67969,1.31934,1.5791
		s-0.54004,1.56934-1.28906,1.56934C214.66895,95.80371,214.22852,95.00391,214.22852,94.22461z M216.36816,94.23438
		c0-0.58984-0.29004-1.09961-0.83984-1.09961c-0.57031,0-0.81934,0.5498-0.81934,1.08984s0.24902,1.09961,0.84961,1.09961
		C216.03809,95.32422,216.36816,94.86426,216.36816,94.23438z"/>
	<path d="M220.66113,94.51465l0.5791-0.25977c0.17969,0.50977,0.66016,0.93945,1.42969,0.93945
		c0.66895,0,1.09961-0.33008,1.09961-0.84961c0-1.30957-2.83887-0.49023-2.83887-2.23926c0-0.85938,0.69922-1.38867,1.68945-1.38867
		c0.78906,0,1.42871,0.3291,1.76855,1.0293l-0.5498,0.2998c-0.23926-0.44043-0.62988-0.71973-1.23926-0.71973
		s-0.99902,0.25-0.99902,0.67969c0,1.16895,2.84766,0.42969,2.84766,2.29883c0,0.99902-0.81934,1.49902-1.76855,1.49902
		C221.70996,95.80371,220.9209,95.30371,220.66113,94.51465z"/>
	<path d="M225.79004,88.75781h0.7998v1.01953h-0.7998V88.75781z M225.85059,90.7959h0.68945v4.92773h-0.68945V90.7959z"/>
	<path d="M232.19824,96.4834c0,0.92969-0.87012,1.35938-2.10938,1.35938c-1.36914,0-2.19824-0.54004-2.19824-1.51953
		c0-0.09961,0.00977-0.16016,0.01953-0.21973l0.7998-0.67969c-0.37988-0.16992-0.63965-0.4502-0.63965-0.93945
		c0-0.39941,0.17969-0.69922,0.5293-0.93945c-0.25977-0.2998-0.41992-0.67969-0.41992-1.11914c0-1,0.82031-1.70898,1.87891-1.70898
		c0.48047,0,0.91016,0.14941,1.22949,0.39941l0.67969-0.58984l0.36035,0.4502l-0.66992,0.55957
		c0.16992,0.26953,0.26953,0.5791,0.26953,0.92969c0,1.00879-0.81934,1.67871-1.8584,1.67871
		c-0.37988,0-0.72949-0.08984-1.01953-0.25c-0.2002,0.11035-0.32031,0.29004-0.32031,0.5c0,0.5,0.62012,0.61914,1.3291,0.72949
		C231.03809,95.27344,232.19824,95.41406,232.19824,96.4834z M231.50781,96.54297c0-0.59961-0.7793-0.68945-1.59863-0.81934
		c-0.21973-0.03027-0.4502-0.07031-0.66016-0.12012l-0.66895,0.64941c-0.01074,0.05078-0.01074,0.07031-0.01074,0.09082
		c0,0.69922,0.70996,0.91895,1.5498,0.91895C230.98828,97.2627,231.50781,97.02246,231.50781,96.54297z M228.85938,92.44531
		c0,0.63965,0.45996,1.12988,1.19922,1.12988c0.74023,0,1.17969-0.48047,1.17969-1.12988c0-0.67969-0.45996-1.14941-1.16895-1.14941
		C229.36914,91.2959,228.85938,91.76562,228.85938,92.44531z"/>
	<path d="M237.49805,92.70508v3.01855h-0.68945V92.875c0-1.05957-0.33984-1.54883-1.08008-1.54883
		c-0.92969,0-1.46875,0.7998-1.46875,2.18848v2.20898h-0.68945V90.7959h0.68945v0.71973
		c0.31934-0.49902,0.91895-0.79883,1.62891-0.79883C236.94824,90.7168,237.49805,91.39648,237.49805,92.70508z"/>
	<path d="M239.13965,88.75781h0.7998v1.01953h-0.7998V88.75781z M239.2002,90.7959h0.68945v4.92773h-0.68945V90.7959z"/>
	<path d="M245.1084,95.72363h-0.68945v-4.34766h-1.90918v4.34766h-0.68945v-4.34766h-0.84961V90.7959h0.84961v-0.39941
		c0-1.16895,0.78906-1.71875,1.75879-1.71875c0.59961,0,1.0791,0.16016,1.5293,0.46973l-0.33008,0.47949
		c-0.33008-0.24023-0.68945-0.37988-1.16895-0.37988c-0.70996,0-1.09961,0.34961-1.09961,1.15918v0.38965h2.59863V95.72363z"/>
	<path d="M246.46973,93.27539c0-1.2998,0.73047-2.55859,2.21875-2.55859c0.87988,0,1.60938,0.43945,1.99902,1.3584l-0.65918,0.26074
		c-0.22949-0.62988-0.71973-1.00977-1.33984-1.00977c-1.04883,0-1.51855,0.93945-1.51855,1.94922
		c0,1.00879,0.46973,1.91895,1.5293,1.91895c0.61914,0,1.10938-0.37012,1.29883-1l0.63965,0.24023
		c-0.33008,0.89941-1.04883,1.36914-1.93848,1.36914C247.26953,95.80371,246.46973,94.64453,246.46973,93.27539z"/>
	<path d="M255.57812,92.65527v3.06836h-0.62988l-0.04004-0.75977c-0.38965,0.5498-0.98926,0.83984-1.76953,0.83984
		c-1.06934,0-1.69824-0.55957-1.69824-1.50977c0-0.49902,0.19922-0.87891,0.55957-1.09863
		c0.37988-0.21973,0.90918-0.31055,1.87891-0.31055h1.00879v-0.22949c0-0.85938-0.44922-1.3291-1.2793-1.3291
		c-0.61914,0-1.09863,0.26953-1.49902,0.81934l-0.49902-0.41992c0.5293-0.68945,1.16895-1.00879,2.00879-1.00879
		C254.8584,90.7168,255.57812,91.42578,255.57812,92.65527z M254.8877,93.51465v-0.06934h-0.94922
		c-0.90918,0-1.29883,0.05957-1.53906,0.24902c-0.17969,0.14062-0.26953,0.36035-0.26953,0.63965
		c0,0.5498,0.46973,0.90039,1.20898,0.90039C254.28809,95.23438,254.8877,94.56445,254.8877,93.51465z"/>
	<path d="M259.30859,95.67383c-0.25977,0.08008-0.51953,0.12988-0.74902,0.12988c-0.66016,0-1.13965-0.37012-1.13965-1.23926
		v-3.18848h-0.81934V90.7959h0.81934v-1.37891l0.68945-0.51953v1.89844h1.18945v0.58008h-1.18945v3.09863
		c0,0.47949,0.21973,0.69922,0.60938,0.69922c0.16992,0,0.36035-0.04004,0.58008-0.10938L259.30859,95.67383z"/>
	<path d="M260.13965,93.25488c0-1.45898,0.9502-2.53809,2.35938-2.53809c1.39941,0,2.36816,1.0791,2.36816,2.53809
		c0,1.44922-0.95898,2.54883-2.36816,2.54883S260.13965,94.71387,260.13965,93.25488z M264.17773,93.25488
		c0-1.11914-0.62988-1.92871-1.67871-1.92871c-1.05957,0-1.66895,0.81934-1.66895,1.92871
		c0,1.11914,0.61914,1.93945,1.66895,1.93945C263.55859,95.19434,264.17773,94.35449,264.17773,93.25488z"/>
</g>
<g enable-background="new    ">
	<path d="M249.93848,3.28516v6.96582h-0.68945V5.08398h-1.73926V4.4043h1.15918c0.34961,0,0.58008-0.12012,0.58008-0.53027V3.28516
		H249.93848z"/>
	<path d="M252.64941,6.77246c0-1.6582,0.35059-3.58789,2.15918-3.58789c1.64941,0,2.21875,1.68945,2.21875,3.59863
		c0,1.9082-0.55957,3.56738-2.14844,3.56738C253.01953,10.35059,252.64941,8.43164,252.64941,6.77246z M256.28809,6.77246
		c0-1.6084-0.30957-2.92773-1.47949-2.92773c-1.21875,0-1.44922,1.42871-1.44922,2.92773c0,1.46973,0.23047,2.91895,1.49902,2.91895
		C255.98828,9.69141,256.28809,8.35156,256.28809,6.77246z"/>
	<path d="M258.2793,6.77246c0-1.6582,0.35059-3.58789,2.15918-3.58789c1.64941,0,2.21875,1.68945,2.21875,3.59863
		c0,1.9082-0.55957,3.56738-2.14844,3.56738C258.64941,10.35059,258.2793,8.43164,258.2793,6.77246z M261.91797,6.77246
		c0-1.6084-0.30957-2.92773-1.47949-2.92773c-1.21875,0-1.44922,1.42871-1.44922,2.92773c0,1.46973,0.23047,2.91895,1.49902,2.91895
		C261.61816,9.69141,261.91797,8.35156,261.91797,6.77246z"/>
	<path d="M263.7998,4.78418c0-0.79004,0.43945-1.5791,1.2998-1.5791c0.76953,0,1.31934,0.67969,1.31934,1.58887
		c0,0.88965-0.54004,1.55957-1.29004,1.55957C264.25,6.35352,263.7998,5.57324,263.7998,4.78418z M265.93848,4.79395
		c0-0.59961-0.2998-1.10938-0.83887-1.10938c-0.58008,0-0.82031,0.55957-0.82031,1.09961c0,0.53906,0.25,1.08887,0.84961,1.08887
		C265.59863,5.87305,265.93848,5.42383,265.93848,4.79395z M268.59766,3.28516h0.49902l-3.92773,6.96582h-0.50977L268.59766,3.28516
		z M267.34766,8.75195c0-0.7793,0.44043-1.56934,1.2998-1.56934c0.76953,0,1.31934,0.67969,1.31934,1.5791
		s-0.54004,1.56934-1.28906,1.56934C267.78809,10.33105,267.34766,9.53125,267.34766,8.75195z M269.4873,8.76172
		c0-0.58984-0.29004-1.09961-0.83984-1.09961c-0.57031,0-0.81934,0.5498-0.81934,1.08984s0.24902,1.09961,0.84961,1.09961
		C269.15723,9.85156,269.4873,9.3916,269.4873,8.76172z"/>
	<path d="M274.60938,5.90332h-1.03906V5.32324h1.04883V4.56445c0-1.0498,0.61035-1.35938,1.23926-1.35938
		c0.27051,0,0.57031,0.05957,0.87988,0.18945l-0.24023,0.5498c-0.20996-0.09961-0.39941-0.16016-0.56934-0.16016
		c-0.38965,0-0.62988,0.27051-0.62988,0.72949v0.80957h1.41992v0.58008h-1.41992v4.34766h-0.68945V5.90332z"/>
	<path d="M277.16992,7.78223c0-1.45898,0.94922-2.53809,2.3584-2.53809c1.39941,0,2.36914,1.0791,2.36914,2.53809
		c0,1.44922-0.95996,2.54883-2.36914,2.54883S277.16992,9.24121,277.16992,7.78223z M281.20801,7.78223
		c0-1.11914-0.62988-1.92871-1.67969-1.92871c-1.05957,0-1.66895,0.81934-1.66895,1.92871
		c0,1.11914,0.62012,1.93945,1.66895,1.93945C280.58789,9.72168,281.20801,8.88184,281.20801,7.78223z"/>
	<path d="M286.28809,5.4541l-0.33984,0.55957c-0.22949-0.10059-0.43945-0.15039-0.64941-0.15039
		c-0.75977,0-1.31934,0.56934-1.31934,1.63965v2.74805h-0.68945V5.32324h0.68945v0.74023
		c0.35938-0.64941,0.95898-0.81934,1.45898-0.81934C285.73828,5.24414,286.01855,5.30371,286.28809,5.4541z"/>
	<path d="M294.06543,7.17285v3.07812h-0.68945V7.3623c0-0.41992,0-1.50879-1.0791-1.50879c-1,0-1.26953,0.91895-1.26953,2.02832
		v2.36914h-0.68945V7.40234c0-0.81934-0.25-1.54883-1.10938-1.54883c-0.95996,0-1.22949,0.90918-1.22949,2.02832v2.36914h-0.68945
		l-0.01074-4.92773h0.66992v0.60059c0.30957-0.49023,0.80957-0.67969,1.35938-0.67969c0.68945,0,1.19922,0.2998,1.44922,0.94922
		c0.31934-0.62988,0.86914-0.94922,1.61914-0.94922C293.57617,5.24414,294.06543,6.02344,294.06543,7.17285z"/>
	<path d="M299.4375,7.18262v3.06836h-0.62988l-0.04004-0.75977c-0.38965,0.5498-0.98926,0.83984-1.76953,0.83984
		c-1.06934,0-1.69824-0.55957-1.69824-1.50977c0-0.49902,0.19922-0.87891,0.55957-1.09863
		c0.37988-0.21973,0.90918-0.31055,1.87891-0.31055h1.00879V7.18262c0-0.85938-0.44922-1.3291-1.2793-1.3291
		c-0.61914,0-1.09863,0.26953-1.49902,0.81934l-0.49902-0.41992c0.5293-0.68945,1.16895-1.00879,2.00879-1.00879
		C298.71777,5.24414,299.4375,5.95312,299.4375,7.18262z M298.74707,8.04199V7.97266h-0.94922
		c-0.90918,0-1.29883,0.05957-1.53906,0.24902c-0.17969,0.14062-0.26953,0.36035-0.26953,0.63965
		c0,0.5498,0.46973,0.90039,1.20898,0.90039C298.14746,9.76172,298.74707,9.0918,298.74707,8.04199z"/>
</g>
<g enable-background="new    ">
	<path d="M153.68457,3.28418V10.25h-0.68945V5.08301h-1.73926V4.40332h1.15918c0.34961,0,0.58008-0.12012,0.58008-0.53027V3.28418
		H153.68457z"/>
	<path d="M156.39551,6.77148c0-1.6582,0.35059-3.58789,2.15918-3.58789c1.64941,0,2.21875,1.68945,2.21875,3.59863
		c0,1.9082-0.55957,3.56738-2.14844,3.56738C156.76562,10.34961,156.39551,8.43066,156.39551,6.77148z M160.03418,6.77148
		c0-1.6084-0.30957-2.92773-1.47949-2.92773c-1.21875,0-1.44922,1.42871-1.44922,2.92773c0,1.46973,0.23047,2.91895,1.49902,2.91895
		C159.73438,9.69043,160.03418,8.35059,160.03418,6.77148z"/>
	<path d="M162.02539,6.77148c0-1.6582,0.35059-3.58789,2.15918-3.58789c1.64941,0,2.21875,1.68945,2.21875,3.59863
		c0,1.9082-0.55957,3.56738-2.14844,3.56738C162.39551,10.34961,162.02539,8.43066,162.02539,6.77148z M165.66406,6.77148
		c0-1.6084-0.30957-2.92773-1.47949-2.92773c-1.21875,0-1.44922,1.42871-1.44922,2.92773c0,1.46973,0.23047,2.91895,1.49902,2.91895
		C165.36426,9.69043,165.66406,8.35059,165.66406,6.77148z"/>
	<path d="M167.5459,4.7832c0-0.79004,0.43945-1.5791,1.2998-1.5791c0.76953,0,1.31934,0.67969,1.31934,1.58887
		c0,0.88965-0.54004,1.55957-1.29004,1.55957C167.99609,6.35254,167.5459,5.57227,167.5459,4.7832z M169.68457,4.79297
		c0-0.59961-0.2998-1.10938-0.83887-1.10938c-0.58008,0-0.82031,0.55957-0.82031,1.09961c0,0.53906,0.25,1.08887,0.84961,1.08887
		C169.34473,5.87207,169.68457,5.42285,169.68457,4.79297z M172.34375,3.28418h0.49902L168.91504,10.25h-0.50977L172.34375,3.28418z
		 M171.09375,8.75098c0-0.7793,0.44043-1.56934,1.2998-1.56934c0.76953,0,1.31934,0.67969,1.31934,1.5791
		s-0.54004,1.56934-1.28906,1.56934C171.53418,10.33008,171.09375,9.53027,171.09375,8.75098z M173.2334,8.76074
		c0-0.58984-0.29004-1.09961-0.83984-1.09961c-0.57031,0-0.81934,0.5498-0.81934,1.08984s0.24902,1.09961,0.84961,1.09961
		C172.90332,9.85059,173.2334,9.39062,173.2334,8.76074z"/>
	<path d="M177.64551,7.80176c0-1.2998,0.73047-2.55859,2.21875-2.55859c0.87988,0,1.60938,0.43945,1.99902,1.3584L181.2041,6.8623
		c-0.22949-0.62988-0.71973-1.00977-1.33984-1.00977c-1.04883,0-1.51855,0.93945-1.51855,1.94922
		c0,1.00879,0.46973,1.91895,1.5293,1.91895c0.61914,0,1.10938-0.37012,1.29883-1l0.63965,0.24023
		c-0.33008,0.89941-1.04883,1.36914-1.93848,1.36914C178.44531,10.33008,177.64551,9.1709,177.64551,7.80176z"/>
	<path d="M182.65527,7.78125c0-1.45898,0.9502-2.53809,2.35938-2.53809c1.39941,0,2.36816,1.0791,2.36816,2.53809
		c0,1.44922-0.95898,2.54883-2.36816,2.54883S182.65527,9.24023,182.65527,7.78125z M186.69336,7.78125
		c0-1.11914-0.62988-1.92871-1.67871-1.92871c-1.05957,0-1.66895,0.81934-1.66895,1.92871
		c0,1.11914,0.61914,1.93945,1.66895,1.93945C186.07422,9.7207,186.69336,8.88086,186.69336,7.78125z"/>
	<path d="M192.70312,7.23145V10.25h-0.68945V7.40137c0-1.05957-0.33984-1.54883-1.0791-1.54883
		c-0.92969,0-1.46973,0.7998-1.46973,2.18848V10.25h-0.68945V5.32227h0.68945v0.71973
		c0.32031-0.49902,0.91992-0.79883,1.62891-0.79883C192.15332,5.24316,192.70312,5.92285,192.70312,7.23145z"/>
	<path d="M196.4541,10.2002c-0.25977,0.08008-0.51953,0.12988-0.74902,0.12988c-0.66016,0-1.13965-0.37012-1.13965-1.23926V5.90234
		h-0.81934V5.32227h0.81934V3.94336l0.68945-0.51953v1.89844h1.18945v0.58008h-1.18945v3.09863
		c0,0.47949,0.21973,0.69922,0.60938,0.69922c0.16992,0,0.36035-0.04004,0.58008-0.10938L196.4541,10.2002z"/>
	<path d="M201.61328,7.97168h-3.6084c0.02051,1.0791,0.62012,1.72852,1.58984,1.72852c0.53906,0,0.96875-0.13965,1.41895-0.61914
		L201.49316,9.5c-0.5791,0.61035-1.14941,0.83008-1.90918,0.83008c-1.49902,0-2.26855-1.11914-2.26855-2.51855
		c0-1.38965,0.75977-2.56836,2.18945-2.56836c1.50879,0,2.13867,1.17871,2.13867,2.29785
		C201.64355,7.68164,201.63281,7.85156,201.61328,7.97168z M198.00488,7.3916h2.97852c0-0.02051-0.00977-0.07031-0.00977-0.16016
		c-0.0498-0.7998-0.55957-1.40918-1.46875-1.40918C198.61523,5.82227,198.06543,6.52246,198.00488,7.3916z"/>
	<path d="M206.96289,7.23145V10.25h-0.68945V7.40137c0-1.05957-0.33984-1.54883-1.0791-1.54883
		c-0.92969,0-1.46973,0.7998-1.46973,2.18848V10.25h-0.68945V5.32227h0.68945v0.71973
		c0.32031-0.49902,0.91992-0.79883,1.62891-0.79883C206.41309,5.24316,206.96289,5.92285,206.96289,7.23145z"/>
	<path d="M212.37305,5.32227V10.25h-0.68945V9.54004c-0.34961,0.53027-0.97949,0.79004-1.62891,0.79004
		c-1.11914,0-1.60938-0.76953-1.60938-1.98926V5.32227h0.68945V8.1709c0,0.7998,0.14062,1.5498,1.08008,1.5498
		c0.97949,0,1.46875-0.84961,1.46875-2.12891V5.32227H212.37305z"/>
	<path d="M216.24414,10.2002c-0.25977,0.08008-0.51953,0.12988-0.74902,0.12988c-0.66016,0-1.13965-0.37012-1.13965-1.23926V5.90234
		h-0.81934V5.32227h0.81934V3.94336l0.68945-0.51953v1.89844h1.18945v0.58008h-1.18945v3.09863
		c0,0.47949,0.21973,0.69922,0.60938,0.69922c0.16992,0,0.36035-0.04004,0.58008-0.10938L216.24414,10.2002z"/>
	<path d="M217.0752,7.78125c0-1.45898,0.9502-2.53809,2.35938-2.53809c1.39941,0,2.36816,1.0791,2.36816,2.53809
		c0,1.44922-0.95898,2.54883-2.36816,2.54883S217.0752,9.24023,217.0752,7.78125z M221.11328,7.78125
		c0-1.11914-0.62988-1.92871-1.67871-1.92871c-1.05957,0-1.66895,0.81934-1.66895,1.92871
		c0,1.11914,0.61914,1.93945,1.66895,1.93945C220.49414,9.7207,221.11328,8.88086,221.11328,7.78125z"/>
</g>
<path id="Rettangolo_9797" fill="#FF3366" d="M228.97,72.60098L228.97,72.60098c2.20001,0,3.90002,1.7,3.90002,3.9l0,0
	c0,2.2-1.70001,3.9-3.90002,3.9l0,0c-2.20001,0-3.90002-1.7-3.90002-3.9l0,0C225.06998,74.20097,226.76999,72.60098,228.97,72.60098
	z"/>
<path id="Rettangolo_9798" fill="#FF5D5B" d="M220.76999,59.40098L220.76999,59.40098c2.20001,0,3.90002,1.7,3.90002,3.9l0,0
	c0,2.2-1.70001,3.9-3.90002,3.9l0,0c-2.20001,0-3.90002-1.7-3.90002-3.9l0,0
	C216.86996,61.20097,218.56998,59.40098,220.76999,59.40098z"/>
<path id="Rettangolo_9799" fill="#FFD93B" d="M196.17001,20.30098L196.17001,20.30098c2.20001,0,3.90002,1.7,3.90002,3.9l0,0
	c0,2.2-1.70001,3.9-3.90002,3.9l0,0c-2.20001,0-3.90002-1.7-3.90002-3.9l0,0C192.26999,22.00098,193.97,20.30098,196.17001,20.30098
	z"/>
<path id="Rettangolo_9800" fill="#C3D261" d="M212.47,20.50098L212.47,20.50098c2.20001,0,3.90002,1.7,3.90002,3.9l0,0
	c0,2.2-1.70001,3.9-3.90002,3.9l0,0c-2.20001,0-3.90002-1.7-3.90002-3.9l0,0C208.56998,22.20098,210.26999,20.50098,212.47,20.50098
	z"/>
<path id="Rettangolo_9801" fill="#88CC87" d="M228.76999,20.50098L228.76999,20.50098c2.20001,0,3.90002,1.7,3.90002,3.9l0,0
	c0,2.2-1.70001,3.9-3.90002,3.9l0,0c-2.20001,0-3.90002-1.7-3.90002-3.9l0,0
	C224.86996,22.20098,226.56998,20.50098,228.76999,20.50098z"/>
<path id="Rettangolo_9802" fill="#4CC5AC" d="M245.06998,20.50098L245.06998,20.50098c2.20001,0,3.90002,1.7,3.90002,3.9l0,0
	c0,2.2-1.70001,3.9-3.90002,3.9l0,0c-2.20001,0-3.90002-1.7-3.90002-3.9l0,0
	C241.17001,22.20098,242.86996,20.50098,245.06998,20.50098z"/>
<path id="Rettangolo_9803" fill="#10BED2" d="M261.36996,20.70098L261.36996,20.70098c2.20001,0,3.90002,1.7,3.90002,3.9l0,0
	c0,2.2-1.70001,3.9-3.90002,3.9l0,0c-2.20001,0-3.90002-1.7-3.90002-3.9l0,0C257.47,22.30098,259.17001,20.70098,261.36996,20.70098
	z"/>
<path id="Rettangolo_9804" fill="#FF3366" d="M228.97,72.60098L228.97,72.60098c2.20001,0,3.90002,1.7,3.90002,3.9l0,0
	c0,2.2-1.70001,3.9-3.90002,3.9l0,0c-2.20001,0-3.90002-1.7-3.90002-3.9l0,0C225.06998,74.20097,226.76999,72.60098,228.97,72.60098
	z"/>
<path id="Rettangolo_9805" fill="#C35681" d="M237.06998,59.60098L237.06998,59.60098c2.20001,0,3.90002,1.7,3.90002,3.9l0,0
	c0,2.2-1.70001,3.9-3.90002,3.9l0,0c-2.20001,0-3.90002-1.7-3.90002-3.9l0,0
	C233.17001,61.30098,234.86996,59.60098,237.06998,59.60098z"/>
<g id="Raggruppa_1292">
	<path id="Rettangolo_9806" fill="#FF8651" d="M212.56998,46.40098L212.56998,46.40098c2.20001,0,3.90002,1.7,3.90002,3.9l0,0
		c0,2.2-1.70001,3.9-3.90002,3.9l0,0c-2.20001,0-3.90002-1.7-3.90002-3.9l0,0
		C208.67001,48.20097,210.36996,46.40098,212.56998,46.40098z"/>
	<path id="Rettangolo_9807" fill="#C38077" d="M228.86996,46.60098L228.86996,46.60098c2.20001,0,3.90002,1.7,3.90002,3.9l0,0
		c0,2.2-1.70001,3.9-3.90002,3.9l0,0c-2.20001,0-3.90002-1.7-3.90002-3.9l0,0
		C224.97,48.20097,226.67001,46.60098,228.86996,46.60098z"/>
	<path id="Rettangolo_9808" fill="#88799C" d="M245.17001,46.60098L245.17001,46.60098c2.20001,0,3.90002,1.7,3.90002,3.9l0,0
		c0,2.2-1.70001,3.9-3.90002,3.9l0,0c-2.20001,0-3.90002-1.7-3.90002-3.9l0,0
		C241.26999,48.30098,242.97,46.60098,245.17001,46.60098z"/>
</g>
<g id="Raggruppa_1293">
	<path id="Rettangolo_9809" fill="#FFB046" d="M204.36996,33.30098L204.36996,33.30098c2.20001,0,3.90002,1.7,3.90002,3.9l0,0
		c0,2.2-1.70001,3.9-3.90002,3.9l0,0c-2.20001,0-3.90002-1.7-3.90002-3.9l0,0
		C200.47,35.20097,202.17001,33.30098,204.36996,33.30098z"/>
	<path id="Rettangolo_9810" fill="#C3A96C" d="M220.67001,33.40098L220.67001,33.40098c2.20001,0,3.90002,1.7,3.90002,3.9l0,0
		c0,2.2-1.70001,3.9-3.90002,3.9l0,0c-2.20001,0-3.90002-1.7-3.90002-3.9l0,0
		C216.76999,35.20097,218.47,33.40098,220.67001,33.40098z"/>
	<path id="Rettangolo_9811" fill="#88A291" d="M236.97,33.60098L236.97,33.60098c2.20001,0,3.90002,1.7,3.90002,3.9l0,0
		c0,2.2-1.70001,3.9-3.90002,3.9l0,0c-2.20001,0-3.90002-1.7-3.90002-3.9l0,0
		C233.06998,35.20097,234.76999,33.60098,236.97,33.60098z"/>
	<path id="Rettangolo_9812" fill="#4C9BB7" d="M253.26999,33.60098L253.26999,33.60098c2.20001,0,3.90002,1.7,3.90002,3.9l0,0
		c0,2.2-1.70001,3.9-3.90002,3.9l0,0c-2.20001,0-3.90002-1.7-3.90002-3.9l0,0
		C249.36996,35.30098,251.06998,33.60098,253.26999,33.60098z"/>
</g>
<path id="Rettangolo_9813" fill="#10BED2" d="M261.36996,20.70098L261.36996,20.70098c2.20001,0,3.90002,1.7,3.90002,3.9l0,0
	c0,2.2-1.70001,3.9-3.90002,3.9l0,0c-2.20001,0-3.90002-1.7-3.90002-3.9l0,0C257.47,22.30098,259.17001,20.70098,261.36996,20.70098
	z"/>
<g enable-background="new    ">
	<path d="M0.92871,4.28418h1.98926c1.479,0,2.29883,0.69922,2.29883,1.94824c0,1.26953-0.82959,1.97949-2.29883,1.97949h-1.2793
		V11.25H0.92871V4.28418z M2.84766,7.55176c1.08984,0,1.64941-0.44922,1.64941-1.30859c0-0.86035-0.55957-1.2998-1.64941-1.2998
		H1.63867v2.6084H2.84766z"/>
	<path d="M10.12646,8.97168H6.51855c0.02002,1.0791,0.61963,1.72852,1.58936,1.72852c0.53955,0,0.96924-0.13965,1.41895-0.61914
		L10.00684,10.5c-0.57959,0.61035-1.14941,0.83008-1.90918,0.83008c-1.49902,0-2.26855-1.11914-2.26855-2.51855
		c0-1.38965,0.75977-2.56836,2.18896-2.56836c1.50879,0,2.13867,1.17871,2.13867,2.29785
		C10.15674,8.68164,10.14648,8.85156,10.12646,8.97168z M6.51855,8.3916h2.97852c0-0.02051-0.01025-0.07031-0.01025-0.16016
		c-0.0498-0.7998-0.55957-1.40918-1.46875-1.40918C7.12842,6.82227,6.57861,7.52246,6.51855,8.3916z"/>
	<path d="M14.54736,6.45312L14.20752,7.0127c-0.22949-0.10059-0.43945-0.15039-0.64941-0.15039
		c-0.75977,0-1.31934,0.56934-1.31934,1.63965V11.25h-0.68945V6.32227h0.68945V7.0625
		c0.35986-0.64941,0.95947-0.81934,1.45898-0.81934C13.99756,6.24316,14.27783,6.30273,14.54736,6.45312z"/>
	<path d="M14.70898,8.80176c0-1.2998,0.72998-2.55859,2.21924-2.55859c0.87939,0,1.60889,0.43945,1.99854,1.3584L18.26709,7.8623
		c-0.22949-0.62988-0.71924-1.00977-1.33887-1.00977c-1.0498,0-1.51953,0.93945-1.51953,1.94922
		c0,1.00879,0.46973,1.91895,1.5293,1.91895c0.61963,0,1.10938-0.37012,1.29932-1l0.63965,0.24023
		c-0.33008,0.89941-1.04932,1.36914-1.93896,1.36914C15.50879,11.33008,14.70898,10.1709,14.70898,8.80176z"/>
	<path d="M24.04639,8.97168h-3.60791c0.02002,1.0791,0.61963,1.72852,1.58936,1.72852c0.53955,0,0.96924-0.13965,1.41895-0.61914
		L23.92676,10.5c-0.57959,0.61035-1.14941,0.83008-1.90918,0.83008c-1.49902,0-2.26855-1.11914-2.26855-2.51855
		c0-1.38965,0.75977-2.56836,2.18896-2.56836c1.50879,0,2.13867,1.17871,2.13867,2.29785
		C24.07666,8.68164,24.06641,8.85156,24.04639,8.97168z M20.43848,8.3916h2.97852c0-0.02051-0.01025-0.07031-0.01025-0.16016
		c-0.0498-0.7998-0.55957-1.40918-1.46875-1.40918C21.04834,6.82227,20.49854,7.52246,20.43848,8.3916z"/>
	<path d="M29.39697,8.23145V11.25h-0.68945V8.40137c0-1.05957-0.33984-1.54883-1.07959-1.54883
		c-0.92969,0-1.46924,0.7998-1.46924,2.18848V11.25h-0.68945V6.32227h0.68945v0.71973
		c0.31982-0.49902,0.91943-0.79883,1.62891-0.79883C28.84717,6.24316,29.39697,6.92285,29.39697,8.23145z"/>
	<path d="M33.14795,11.2002c-0.25977,0.08008-0.52002,0.12988-0.74951,0.12988c-0.65967,0-1.13965-0.37012-1.13965-1.23926V6.90234
		h-0.81934V6.32227h0.81934V4.94336l0.68994-0.51953v1.89844h1.18896v0.58008h-1.18896v3.09863
		c0,0.47949,0.21973,0.69922,0.60938,0.69922c0.16992,0,0.35986-0.04004,0.57959-0.10938L33.14795,11.2002z"/>
	<path d="M38.2666,6.32227V11.25h-0.68945v-0.70996c-0.3501,0.53027-0.97949,0.79004-1.62939,0.79004
		c-1.11914,0-1.60889-0.76953-1.60889-1.98926V6.32227h0.68945V9.1709c0,0.7998,0.14014,1.5498,1.07959,1.5498
		c0.97949,0,1.46924-0.84961,1.46924-2.12891V6.32227H38.2666z"/>
	<path d="M43.75684,8.18164V11.25h-0.62988l-0.04004-0.75977c-0.38965,0.5498-0.98926,0.83984-1.76904,0.83984
		c-1.06934,0-1.69873-0.55957-1.69873-1.50977c0-0.49902,0.19971-0.87891,0.55957-1.09863
		c0.37988-0.21973,0.90967-0.31055,1.87891-0.31055h1.00928V8.18164c0-0.85938-0.44971-1.3291-1.2793-1.3291
		c-0.61963,0-1.09912,0.26953-1.49902,0.81934l-0.49951-0.41992c0.5293-0.68945,1.16895-1.00879,2.00879-1.00879
		C43.03711,6.24316,43.75684,6.95215,43.75684,8.18164z M43.06689,9.04102V8.97168h-0.94922
		c-0.90967,0-1.29932,0.05957-1.53906,0.24902c-0.18018,0.14062-0.27002,0.36035-0.27002,0.63965
		c0,0.5498,0.46973,0.90039,1.20947,0.90039C42.46729,10.76074,43.06689,10.09082,43.06689,9.04102z"/>
	<path d="M45.39893,10.18066V4.28418h0.68945v5.85645c0,0.33984,0.12012,0.55957,0.44971,0.55957
		c0.1499,0,0.31982-0.04004,0.46973-0.08984l0.01025,0.58984c-0.20996,0.06934-0.45996,0.12988-0.67969,0.12988
		C45.76855,11.33008,45.39893,10.9502,45.39893,10.18066z"/>
	<path d="M52.03613,8.97168h-3.60791c0.02002,1.0791,0.61963,1.72852,1.58936,1.72852c0.53955,0,0.96924-0.13965,1.41895-0.61914
		L51.9165,10.5c-0.57959,0.61035-1.14941,0.83008-1.90918,0.83008c-1.49902,0-2.26855-1.11914-2.26855-2.51855
		c0-1.38965,0.75977-2.56836,2.18896-2.56836c1.50879,0,2.13867,1.17871,2.13867,2.29785
		C52.06641,8.68164,52.05615,8.85156,52.03613,8.97168z M48.42822,8.3916h2.97852c0-0.02051-0.01025-0.07031-0.01025-0.16016
		c-0.0498-0.7998-0.55957-1.40918-1.46875-1.40918C49.03809,6.82227,48.48828,7.52246,48.42822,8.3916z"/>
</g>
<g enable-background="new    ">
	<path d="M4.81689,17.28418V24.25H4.12695v-0.65918c-0.35938,0.45898-0.90918,0.73926-1.62891,0.73926
		c-1.43896,0-2.18896-1.0791-2.18896-2.54883c0-1.53906,0.81982-2.54883,2.18896-2.54883c0.69971,0,1.25928,0.27051,1.62891,0.75
		v-2.69824H4.81689z M4.18701,21.78125c0-1.16895-0.59961-1.93848-1.58887-1.93848c-0.99951,0-1.59912,0.76953-1.59912,1.93848
		c0,1.11914,0.54932,1.93945,1.59912,1.93945C3.63721,23.7207,4.18701,22.90039,4.18701,21.78125z"/>
	<path d="M7.32861,17.28418h0.78955l-1.31934,2.83789H6.3291L7.32861,17.28418z"/>
	<path d="M13.34668,19.32227V24.25h-0.68945v-0.70996c-0.3501,0.53027-0.97949,0.79004-1.62939,0.79004
		c-1.11914,0-1.60889-0.76953-1.60889-1.98926v-3.01855h0.68945v2.84863c0,0.7998,0.14014,1.5498,1.07959,1.5498
		c0.97949,0,1.46924-0.84961,1.46924-2.12891v-2.26953H13.34668z"/>
	<path d="M17.21777,24.2002c-0.25977,0.08008-0.52002,0.12988-0.74951,0.12988c-0.65967,0-1.13965-0.37012-1.13965-1.23926v-3.18848
		h-0.81934v-0.58008h0.81934v-1.37891l0.68945-0.51953v1.89844h1.18945v0.58008h-1.18945v3.09863
		c0,0.47949,0.22021,0.69922,0.60986,0.69922c0.16992,0,0.35986-0.04004,0.57959-0.10938L17.21777,24.2002z"/>
	<path d="M18.46875,17.28418h0.79932v1.01953h-0.79932V17.28418z M18.52881,19.32227h0.68945V24.25h-0.68945V19.32227z"/>
	<path d="M20.99902,23.18066v-5.89648h0.68945v5.85645c0,0.33984,0.12012,0.55957,0.44971,0.55957
		c0.1499,0,0.31982-0.04004,0.46973-0.08984l0.01025,0.58984c-0.20996,0.06934-0.45996,0.12988-0.67969,0.12988
		C21.36865,24.33008,20.99902,23.9502,20.99902,23.18066z"/>
	<path d="M23.67871,17.28418h0.79932v1.01953h-0.79932V17.28418z M23.73877,19.32227h0.68945V24.25h-0.68945V19.32227z"/>
	<path d="M29.80664,19.87207l-3.2085,3.78809h3.18848V24.25h-4.09814v-0.5l3.27832-3.83789h-3.1084v-0.58984h3.94824V19.87207z"/>
	<path d="M34.67676,19.87207l-3.2085,3.78809h3.18848V24.25h-4.09814v-0.5l3.27832-3.83789h-3.1084v-0.58984h3.94824V19.87207z"/>
	<path d="M35.55908,21.78125c0-1.45898,0.94922-2.53809,2.3584-2.53809c1.39941,0,2.36865,1.0791,2.36865,2.53809
		c0,1.44922-0.95947,2.54883-2.36865,2.54883S35.55908,23.24023,35.55908,21.78125z M39.59668,21.78125
		c0-1.11914-0.62988-1.92871-1.6792-1.92871c-1.05957,0-1.66895,0.81934-1.66895,1.92871c0,1.11914,0.61963,1.93945,1.66895,1.93945
		C38.97705,23.7207,39.59668,22.88086,39.59668,21.78125z"/>
	<path d="M48.52637,17.28418V24.25h-0.68994v-0.65918c-0.35938,0.45898-0.90918,0.73926-1.62891,0.73926
		c-1.43896,0-2.18896-1.0791-2.18896-2.54883c0-1.53906,0.81982-2.54883,2.18896-2.54883c0.69971,0,1.25928,0.27051,1.62891,0.75
		v-2.69824H48.52637z M47.89648,21.78125c0-1.16895-0.59961-1.93848-1.58887-1.93848c-0.99951,0-1.59912,0.76953-1.59912,1.93848
		c0,1.11914,0.5498,1.93945,1.59912,1.93945C47.34668,23.7207,47.89648,22.90039,47.89648,21.78125z"/>
	<path d="M54.24609,21.97168h-3.60791c0.02002,1.0791,0.61963,1.72852,1.58936,1.72852c0.53955,0,0.96924-0.13965,1.41895-0.61914
		L54.12646,23.5c-0.57959,0.61035-1.14941,0.83008-1.90918,0.83008c-1.49902,0-2.26855-1.11914-2.26855-2.51855
		c0-1.38965,0.75977-2.56836,2.18896-2.56836c1.50879,0,2.13867,1.17871,2.13867,2.29785
		C54.27637,21.68164,54.26611,21.85156,54.24609,21.97168z M50.63818,21.3916h2.97852c0-0.02051-0.01025-0.07031-0.01025-0.16016
		c-0.0498-0.7998-0.55957-1.40918-1.46875-1.40918C51.24805,19.82227,50.69824,20.52246,50.63818,21.3916z"/>
	<path d="M55.62842,23.18066v-5.89648h0.68945v5.85645c0,0.33984,0.12012,0.55957,0.44971,0.55957
		c0.1499,0,0.31982-0.04004,0.46973-0.08984l0.01025,0.58984c-0.20996,0.06934-0.45996,0.12988-0.67969,0.12988
		C55.99805,24.33008,55.62842,23.9502,55.62842,23.18066z"/>
	<path d="M58.32812,23.18066v-5.89648h0.68945v5.85645c0,0.33984,0.12012,0.55957,0.44971,0.55957
		c0.1499,0,0.31982-0.04004,0.46973-0.08984l0.01025,0.58984c-0.20996,0.06934-0.45996,0.12988-0.67969,0.12988
		C58.69775,24.33008,58.32812,23.9502,58.32812,23.18066z"/>
	<path d="M64.96582,21.97168h-3.60791c0.02002,1.0791,0.61963,1.72852,1.58936,1.72852c0.53955,0,0.96924-0.13965,1.41895-0.61914
		L64.84619,23.5c-0.57959,0.61035-1.14941,0.83008-1.90918,0.83008c-1.49902,0-2.26855-1.11914-2.26855-2.51855
		c0-1.38965,0.75977-2.56836,2.18896-2.56836c1.50879,0,2.13867,1.17871,2.13867,2.29785
		C64.99609,21.68164,64.98584,21.85156,64.96582,21.97168z M61.35791,21.3916h2.97852c0-0.02051-0.01025-0.07031-0.01025-0.16016
		c-0.0498-0.7998-0.55957-1.40918-1.46875-1.40918C61.96777,19.82227,61.41797,20.52246,61.35791,21.3916z"/>
</g>
<g enable-background="new    ">
	<path d="M0.28906,34.80176c0-1.2998,0.72998-2.55859,2.21924-2.55859c0.87939,0,1.60889,0.43945,1.99854,1.3584L3.84717,33.8623
		c-0.22949-0.62988-0.71924-1.00977-1.33887-1.00977c-1.0498,0-1.51953,0.93945-1.51953,1.94922
		c0,1.00879,0.46973,1.91895,1.5293,1.91895c0.61963,0,1.10938-0.37012,1.29932-1l0.63965,0.24023
		c-0.33008,0.89941-1.04932,1.36914-1.93896,1.36914C1.08887,37.33008,0.28906,36.1709,0.28906,34.80176z"/>
	<path d="M9.39746,34.18164V37.25H8.76758l-0.04004-0.75977c-0.38965,0.5498-0.98926,0.83984-1.76904,0.83984
		c-1.06934,0-1.69873-0.55957-1.69873-1.50977c0-0.49902,0.19971-0.87891,0.55957-1.09863
		c0.37988-0.21973,0.90967-0.31055,1.87891-0.31055h1.00928v-0.22949c0-0.85938-0.44971-1.3291-1.2793-1.3291
		c-0.61963,0-1.09912,0.26953-1.49902,0.81934l-0.49951-0.41992c0.5293-0.68945,1.16895-1.00879,2.00879-1.00879
		C8.67773,32.24316,9.39746,32.95215,9.39746,34.18164z M8.70752,35.04102v-0.06934H7.7583
		c-0.90967,0-1.29932,0.05957-1.53906,0.24902c-0.18018,0.14062-0.27002,0.36035-0.27002,0.63965
		c0,0.5498,0.46973,0.90039,1.20947,0.90039C8.10791,36.76074,8.70752,36.09082,8.70752,35.04102z"/>
	<path d="M13.12793,37.2002c-0.25977,0.08008-0.52002,0.12988-0.74951,0.12988c-0.65967,0-1.13965-0.37012-1.13965-1.23926v-3.18848
		h-0.81934v-0.58008h0.81934v-1.37891l0.68945-0.51953v1.89844h1.18945v0.58008h-1.18945v3.09863
		c0,0.47949,0.22021,0.69922,0.60986,0.69922c0.16992,0,0.35986-0.04004,0.57959-0.10938L13.12793,37.2002z"/>
	<path d="M18.28662,34.97168h-3.60791c0.02002,1.0791,0.61963,1.72852,1.58936,1.72852c0.53955,0,0.96924-0.13965,1.41895-0.61914
		L18.16699,36.5c-0.57959,0.61035-1.14941,0.83008-1.90918,0.83008c-1.49902,0-2.26855-1.11914-2.26855-2.51855
		c0-1.38965,0.75977-2.56836,2.18896-2.56836c1.50879,0,2.13867,1.17871,2.13867,2.29785
		C18.31689,34.68164,18.30664,34.85156,18.28662,34.97168z M14.67871,34.3916h2.97852c0-0.02051-0.01025-0.07031-0.01025-0.16016
		c-0.0498-0.7998-0.55957-1.40918-1.46875-1.40918C15.28857,32.82227,14.73877,33.52246,14.67871,34.3916z"/>
	<path d="M23.54688,38.00977c0,0.92969-0.86963,1.35938-2.10889,1.35938c-1.36914,0-2.19873-0.54004-2.19873-1.51953
		c0-0.09961,0.00977-0.16016,0.02002-0.21973l0.79932-0.67969c-0.37988-0.16992-0.63965-0.4502-0.63965-0.93945
		c0-0.39941,0.18018-0.69922,0.52979-0.93945c-0.25977-0.2998-0.41992-0.67969-0.41992-1.11914c0-1,0.81982-1.70898,1.87891-1.70898
		c0.47998,0,0.90967,0.14941,1.22949,0.39941l0.67969-0.58984l0.35986,0.4502l-0.66992,0.55957
		c0.16992,0.26953,0.27002,0.5791,0.27002,0.92969c0,1.00879-0.81934,1.67871-1.85889,1.67871
		c-0.37988,0-0.72949-0.08984-1.01953-0.25c-0.19971,0.11035-0.31982,0.29004-0.31982,0.5c0,0.5,0.61963,0.61914,1.3291,0.72949
		C22.38721,36.7998,23.54688,36.94043,23.54688,38.00977z M22.85693,38.06934c0-0.59961-0.7793-0.68945-1.59912-0.81934
		c-0.21973-0.03027-0.44971-0.07031-0.65967-0.12012l-0.66943,0.64941c-0.01025,0.05078-0.01025,0.07031-0.01025,0.09082
		c0,0.69922,0.70996,0.91895,1.54932,0.91895C22.3374,38.78906,22.85693,38.54883,22.85693,38.06934z M20.2085,33.97168
		c0,0.63965,0.45996,1.12988,1.19922,1.12988c0.73975,0,1.17969-0.48047,1.17969-1.12988c0-0.67969-0.45996-1.14941-1.16943-1.14941
		C20.71826,32.82227,20.2085,33.29199,20.2085,33.97168z"/>
	<path d="M24.28955,34.78125c0-1.45898,0.94922-2.53809,2.3584-2.53809c1.39941,0,2.36865,1.0791,2.36865,2.53809
		c0,1.44922-0.95947,2.54883-2.36865,2.54883S24.28955,36.24023,24.28955,34.78125z M28.32715,34.78125
		c0-1.11914-0.62988-1.92871-1.6792-1.92871c-1.05957,0-1.66895,0.81934-1.66895,1.92871c0,1.11914,0.61963,1.93945,1.66895,1.93945
		C27.70752,36.7207,28.32715,35.88086,28.32715,34.78125z"/>
	<path d="M33.40723,32.45312l-0.33984,0.55957c-0.22949-0.10059-0.43945-0.15039-0.64941-0.15039
		c-0.75977,0-1.31934,0.56934-1.31934,1.63965V37.25h-0.68945v-4.92773h0.68945v0.74023
		c0.35986-0.64941,0.95947-0.81934,1.45898-0.81934C32.85791,32.24316,33.1377,32.30273,33.40723,32.45312z"/>
	<path d="M34.36914,30.28418h0.79932v1.01953h-0.79932V30.28418z M34.4292,32.32227h0.68945V37.25H34.4292V32.32227z"/>
	<path d="M40.83643,34.97168h-3.60791c0.02002,1.0791,0.61963,1.72852,1.58936,1.72852c0.53955,0,0.96924-0.13965,1.41895-0.61914
		L40.7168,36.5c-0.57959,0.61035-1.14941,0.83008-1.90918,0.83008c-1.49902,0-2.26855-1.11914-2.26855-2.51855
		c0-1.38965,0.75977-2.56836,2.18896-2.56836c1.50879,0,2.13867,1.17871,2.13867,2.29785
		C40.8667,34.68164,40.85645,34.85156,40.83643,34.97168z M37.22852,34.3916h2.97852c0-0.02051-0.01025-0.07031-0.01025-0.16016
		c-0.0498-0.7998-0.55957-1.40918-1.46875-1.40918C37.83838,32.82227,37.28857,33.52246,37.22852,34.3916z"/>
	<path d="M48.9165,34.23145V37.25h-0.68945v-2.84863c0-1.05957-0.33984-1.54883-1.07959-1.54883
		c-0.92969,0-1.46924,0.7998-1.46924,2.18848V37.25h-0.68945v-4.92773h0.68945v0.71973
		c0.31982-0.49902,0.91943-0.79883,1.62891-0.79883C48.3667,32.24316,48.9165,32.92285,48.9165,34.23145z"/>
	<path d="M54.51611,34.97168H50.9082c0.02002,1.0791,0.61963,1.72852,1.58936,1.72852c0.53955,0,0.96924-0.13965,1.41895-0.61914
		L54.39648,36.5c-0.57959,0.61035-1.14941,0.83008-1.90918,0.83008c-1.49902,0-2.26855-1.11914-2.26855-2.51855
		c0-1.38965,0.75977-2.56836,2.18896-2.56836c1.50879,0,2.13867,1.17871,2.13867,2.29785
		C54.54639,34.68164,54.53613,34.85156,54.51611,34.97168z M50.9082,34.3916h2.97852c0-0.02051-0.01025-0.07031-0.01025-0.16016
		c-0.0498-0.7998-0.55957-1.40918-1.46875-1.40918C51.51807,32.82227,50.96826,33.52246,50.9082,34.3916z"/>
	<path d="M55.89893,36.18066v-5.89648h0.68945v5.85645c0,0.33984,0.12012,0.55957,0.44971,0.55957
		c0.1499,0,0.31982-0.04004,0.46973-0.08984l0.01025,0.58984c-0.20996,0.06934-0.45996,0.12988-0.67969,0.12988
		C56.26855,37.33008,55.89893,36.9502,55.89893,36.18066z"/>
	<path d="M63.41748,37.2002c-0.25977,0.08008-0.52002,0.12988-0.74951,0.12988c-0.65967,0-1.13965-0.37012-1.13965-1.23926v-3.18848
		h-0.81934v-0.58008h0.81934v-1.37891l0.68994-0.51953v1.89844h1.18896v0.58008h-1.18896v3.09863
		c0,0.47949,0.21973,0.69922,0.60938,0.69922c0.16992,0,0.35986-0.04004,0.57959-0.10938L63.41748,37.2002z"/>
	<path d="M68.57617,34.97168h-3.60791c0.02002,1.0791,0.61963,1.72852,1.58936,1.72852c0.53955,0,0.96924-0.13965,1.41895-0.61914
		L68.45654,36.5c-0.57959,0.61035-1.14941,0.83008-1.90918,0.83008c-1.49902,0-2.26855-1.11914-2.26855-2.51855
		c0-1.38965,0.75977-2.56836,2.18896-2.56836c1.50879,0,2.13867,1.17871,2.13867,2.29785
		C68.60645,34.68164,68.59619,34.85156,68.57617,34.97168z M64.96826,34.3916h2.97852c0-0.02051-0.01025-0.07031-0.01025-0.16016
		c-0.0498-0.7998-0.55957-1.40918-1.46875-1.40918C65.57812,32.82227,65.02832,33.52246,64.96826,34.3916z"/>
	<path d="M69.46875,36.04102l0.57959-0.25977c0.17969,0.50977,0.65967,0.93945,1.4292,0.93945
		c0.66943,0,1.09961-0.33008,1.09961-0.84961c0-1.30957-2.83887-0.49023-2.83887-2.23926c0-0.85938,0.69971-1.38867,1.68945-1.38867
		c0.78955,0,1.4292,0.3291,1.76904,1.0293l-0.5498,0.2998c-0.23975-0.44043-0.62988-0.71973-1.23926-0.71973
		c-0.60986,0-0.99951,0.25-0.99951,0.67969c0,1.16895,2.84814,0.42969,2.84814,2.29883c0,0.99902-0.81934,1.49902-1.76855,1.49902
		C70.51807,37.33008,69.72852,36.83008,69.46875,36.04102z"/>
	<path d="M76.70752,37.2002c-0.25977,0.08008-0.52002,0.12988-0.74951,0.12988c-0.65967,0-1.13965-0.37012-1.13965-1.23926v-3.18848
		h-0.81934v-0.58008h0.81934v-1.37891l0.68994-0.51953v1.89844h1.18896v0.58008H75.5083v3.09863
		c0,0.47949,0.21973,0.69922,0.60938,0.69922c0.16992,0,0.35986-0.04004,0.57959-0.10938L76.70752,37.2002z"/>
	<path d="M77.53857,34.78125c0-1.45898,0.94971-2.53809,2.35889-2.53809c1.39941,0,2.36865,1.0791,2.36865,2.53809
		c0,1.44922-0.95947,2.54883-2.36865,2.54883S77.53857,36.24023,77.53857,34.78125z M81.57666,34.78125
		c0-1.11914-0.62988-1.92871-1.6792-1.92871c-1.05957,0-1.66895,0.81934-1.66895,1.92871c0,1.11914,0.61963,1.93945,1.66895,1.93945
		C80.95703,36.7207,81.57666,35.88086,81.57666,34.78125z"/>
</g>
<g enable-background="new    ">
	<path d="M4.81689,43.28418V50.25H4.12695v-0.65918c-0.35938,0.45898-0.90918,0.73926-1.62891,0.73926
		c-1.43896,0-2.18896-1.0791-2.18896-2.54883c0-1.53906,0.81982-2.54883,2.18896-2.54883c0.69971,0,1.25928,0.27051,1.62891,0.75
		v-2.69824H4.81689z M4.18701,47.78125c0-1.16895-0.59961-1.93848-1.58887-1.93848c-0.99951,0-1.59912,0.76953-1.59912,1.93848
		c0,1.11914,0.54932,1.93945,1.59912,1.93945C3.63721,49.7207,4.18701,48.90039,4.18701,47.78125z"/>
	<path d="M10.39697,45.32227V50.25H9.70752v-0.70996c-0.34961,0.53027-0.97949,0.79004-1.62891,0.79004
		c-1.11963,0-1.60938-0.76953-1.60938-1.98926v-3.01855h0.68945v2.84863c0,0.7998,0.14014,1.5498,1.07959,1.5498
		c0.97949,0,1.46924-0.84961,1.46924-2.12891v-2.26953H10.39697z"/>
	<path d="M16.72656,47.78125c0,1.46973-0.74951,2.54883-2.18896,2.54883c-0.71924,0-1.26904-0.28027-1.62891-0.73926V50.25h-0.68945
		v-6.96582h0.68945v2.69824c0.36963-0.47949,0.92969-0.75,1.62891-0.75C15.90723,45.23242,16.72656,46.24219,16.72656,47.78125z
		 M16.03711,47.78125c0-1.16895-0.59961-1.93848-1.59912-1.93848c-0.98975,0-1.58936,0.76953-1.58936,1.93848
		c0,1.11914,0.5498,1.93945,1.58936,1.93945C15.4873,49.7207,16.03711,48.90039,16.03711,47.78125z"/>
	<path d="M18.09912,43.28418h0.79932v1.01953h-0.79932V43.28418z M18.15918,45.32227h0.68945V50.25h-0.68945V45.32227z"/>
	<path d="M22.71777,50.2002c-0.25977,0.08008-0.52002,0.12988-0.74951,0.12988c-0.65967,0-1.13965-0.37012-1.13965-1.23926v-3.18848
		h-0.81934v-0.58008h0.81934v-1.37891l0.68945-0.51953v1.89844h1.18945v0.58008h-1.18945v3.09863
		c0,0.47949,0.22021,0.69922,0.60986,0.69922c0.16992,0,0.35986-0.04004,0.57959-0.10938L22.71777,50.2002z"/>
	<path d="M27.69678,47.18164V50.25h-0.62988l-0.04004-0.75977c-0.38965,0.5498-0.98926,0.83984-1.76904,0.83984
		c-1.06934,0-1.69873-0.55957-1.69873-1.50977c0-0.49902,0.19971-0.87891,0.55957-1.09863
		c0.37988-0.21973,0.90967-0.31055,1.87891-0.31055h1.00928v-0.22949c0-0.85938-0.44971-1.3291-1.2793-1.3291
		c-0.61963,0-1.09912,0.26953-1.49902,0.81934L23.729,46.25195c0.5293-0.68945,1.16895-1.00879,2.00879-1.00879
		C26.97705,45.24316,27.69678,45.95215,27.69678,47.18164z M27.00684,48.04102v-0.06934h-0.94922
		c-0.90967,0-1.29932,0.05957-1.53906,0.24902c-0.18018,0.14062-0.27002,0.36035-0.27002,0.63965
		c0,0.5498,0.46973,0.90039,1.20947,0.90039C26.40723,49.76074,27.00684,49.09082,27.00684,48.04102z"/>
	<path d="M31.42773,50.2002c-0.25977,0.08008-0.52002,0.12988-0.74951,0.12988c-0.65967,0-1.13965-0.37012-1.13965-1.23926v-3.18848
		h-0.81934v-0.58008h0.81934v-1.37891l0.68945-0.51953v1.89844h1.18945v0.58008h-1.18945v3.09863
		c0,0.47949,0.22021,0.69922,0.60986,0.69922c0.16992,0,0.35986-0.04004,0.57959-0.10938L31.42773,50.2002z"/>
	<path d="M32.67871,43.28418h0.79932v1.01953h-0.79932V43.28418z M32.73877,45.32227h0.68945V50.25h-0.68945V45.32227z"/>
	<path d="M34.53906,45.32227h0.75l1.54883,4.04785l1.55908-4.04785h0.75977L37.1377,50.25h-0.58936L34.53906,45.32227z"/>
	<path d="M39.68896,47.78125c0-1.45898,0.94922-2.53809,2.3584-2.53809c1.39941,0,2.36865,1.0791,2.36865,2.53809
		c0,1.44922-0.95947,2.54883-2.36865,2.54883S39.68896,49.24023,39.68896,47.78125z M43.72656,47.78125
		c0-1.11914-0.62988-1.92871-1.6792-1.92871c-1.05957,0-1.66895,0.81934-1.66895,1.92871c0,1.11914,0.61963,1.93945,1.66895,1.93945
		C43.10693,49.7207,43.72656,48.88086,43.72656,47.78125z"/>
	<path d="M52.65625,43.28418V50.25h-0.68994v-0.65918c-0.35938,0.45898-0.90918,0.73926-1.62891,0.73926
		c-1.43896,0-2.18896-1.0791-2.18896-2.54883c0-1.53906,0.81982-2.54883,2.18896-2.54883c0.69971,0,1.25928,0.27051,1.62891,0.75
		v-2.69824H52.65625z M52.02637,47.78125c0-1.16895-0.59961-1.93848-1.58887-1.93848c-0.99951,0-1.59912,0.76953-1.59912,1.93848
		c0,1.11914,0.5498,1.93945,1.59912,1.93945C51.47656,49.7207,52.02637,48.90039,52.02637,47.78125z"/>
	<path d="M54.41846,43.28418h0.79932v1.01953h-0.79932V43.28418z M54.47852,45.32227h0.68945V50.25h-0.68945V45.32227z"/>
</g>
<g enable-background="new    ">
	<path d="M4.50684,58.32227V63.25H3.81738v-0.70996c-0.3501,0.53027-0.97949,0.79004-1.62939,0.79004
		c-1.11914,0-1.60889-0.76953-1.60889-1.98926v-3.01855h0.68945v2.84863c0,0.7998,0.14014,1.5498,1.07959,1.5498
		c0.97949,0,1.46924-0.84961,1.46924-2.12891v-2.26953H4.50684z"/>
	<path d="M10.25684,60.23145V63.25H9.56738v-2.84863c0-1.05957-0.33984-1.54883-1.07959-1.54883
		c-0.92969,0-1.46924,0.7998-1.46924,2.18848V63.25H6.3291v-4.92773h0.68945v0.71973
		c0.31982-0.49902,0.91943-0.79883,1.62891-0.79883C9.70703,58.24316,10.25684,58.92285,10.25684,60.23145z"/>
	<path d="M12.64844,56.28418h0.78955l-1.31934,2.83789h-0.46973L12.64844,56.28418z"/>
	<path d="M13.4292,60.78125c0-1.45898,0.94922-2.53809,2.3584-2.53809c1.39941,0,2.36865,1.0791,2.36865,2.53809
		c0,1.44922-0.95947,2.54883-2.36865,2.54883S13.4292,62.24023,13.4292,60.78125z M17.4668,60.78125
		c0-1.11914-0.62988-1.92871-1.6792-1.92871c-1.05957,0-1.66895,0.81934-1.66895,1.92871c0,1.11914,0.61963,1.93945,1.66895,1.93945
		C16.84717,62.7207,17.4668,61.88086,17.4668,60.78125z"/>
	<path d="M24.05615,60.78125c0,1.46973-0.74951,2.54883-2.18896,2.54883c-0.71924,0-1.26904-0.28027-1.62891-0.73926v2.69824
		h-0.68945v-6.9668h0.68945v0.66016c0.36963-0.47949,0.92969-0.75,1.62891-0.75
		C23.23682,58.23242,24.05615,59.24219,24.05615,60.78125z M23.3667,60.78125c0-1.16895-0.59961-1.93848-1.59912-1.93848
		c-0.98975,0-1.58936,0.76953-1.58936,1.93848c0,1.11914,0.5498,1.93945,1.58936,1.93945
		C22.81689,62.7207,23.3667,61.90039,23.3667,60.78125z"/>
	<path d="M29.38623,60.97168h-3.60791c0.02002,1.0791,0.61963,1.72852,1.58936,1.72852c0.53955,0,0.96924-0.13965,1.41895-0.61914
		L29.2666,62.5c-0.57959,0.61035-1.14941,0.83008-1.90918,0.83008c-1.49902,0-2.26855-1.11914-2.26855-2.51855
		c0-1.38965,0.75977-2.56836,2.18896-2.56836c1.50879,0,2.13867,1.17871,2.13867,2.29785
		C29.4165,60.68164,29.40625,60.85156,29.38623,60.97168z M25.77832,60.3916h2.97852c0-0.02051-0.01025-0.07031-0.01025-0.16016
		c-0.0498-0.7998-0.55957-1.40918-1.46875-1.40918C26.38818,58.82227,25.83838,59.52246,25.77832,60.3916z"/>
	<path d="M33.80664,58.45312L33.4668,59.0127c-0.22949-0.10059-0.43945-0.15039-0.64941-0.15039
		c-0.75977,0-1.31934,0.56934-1.31934,1.63965V63.25h-0.68945v-4.92773h0.68945v0.74023
		c0.35986-0.64941,0.95947-0.81934,1.45898-0.81934C33.25732,58.24316,33.53711,58.30273,33.80664,58.45312z"/>
	<path d="M38.49658,60.18164V63.25H37.8667l-0.04004-0.75977c-0.38965,0.5498-0.98926,0.83984-1.76904,0.83984
		c-1.06934,0-1.69873-0.55957-1.69873-1.50977c0-0.49902,0.19971-0.87891,0.55957-1.09863
		c0.37988-0.21973,0.90967-0.31055,1.87891-0.31055h1.00928v-0.22949c0-0.85938-0.44971-1.3291-1.2793-1.3291
		c-0.61963,0-1.09912,0.26953-1.49902,0.81934l-0.49951-0.41992c0.5293-0.68945,1.16895-1.00879,2.00879-1.00879
		C37.77686,58.24316,38.49658,58.95215,38.49658,60.18164z M37.80664,61.04102v-0.06934h-0.94922
		c-0.90967,0-1.29932,0.05957-1.53906,0.24902c-0.18018,0.14062-0.27002,0.36035-0.27002,0.63965
		c0,0.5498,0.46973,0.90039,1.20947,0.90039C37.20703,62.76074,37.80664,62.09082,37.80664,61.04102z"/>
</g>
<path id="Tracciato_109125" fill="none" stroke="#000000" stroke-width="0.5" stroke-miterlimit="10" d="M198.29247,40.67262
	c-4.81836,3.15015-9.9809,5.46272-15.4601,7.03386c-15.09181,4.32751-29.81877,2.3086-39.1245-4.38572"/>
<g id="Raggruppa_1315" transform="translate(604.614 87.959)">
	<path id="Tracciato_109126" d="M-409.84354-48.44475l-0.12302,0.65945l3.3248,0.71111l-0.93091,3.28381l0.68701,0.21912
		l1.15005-3.97082L-409.84354-48.44475z"/>
</g>
</svg>
