<?xml version="1.0" encoding="utf-8"?>
<!-- Generator: Adobe Illustrator 25.0.0, SVG Export Plug-In . SVG Version: 6.00 Build 0)  -->
<svg version="1.1" id="Livello_1" xmlns="http://www.w3.org/2000/svg" xmlns:xlink="http://www.w3.org/1999/xlink" x="0px" y="0px"
	 viewBox="0 0 261 53.7" enable-background="new 0 0 261 53.7" xml:space="preserve">
<circle id="Ellisse_469" fill="none" stroke="#707070" stroke-linecap="round" stroke-dasharray="0.1,3" cx="124.89999" cy="21.92099" r="21.2"/>
<path id="Path" fill="none" stroke="#444444" stroke-width="0.5" d="M90.895,43.45847l-0.2-43.31747"/>
<rect id="Rectangle" x="89.42456" y="43.09748" transform="matrix(1 -0.003 0.003 1 -0.13028 0.27308)" fill="#444444" width="2.80002" height="0.80001"/>
<rect id="Rectangle-2" x="89.30915" y="0.08761" transform="matrix(1 -0.00311 0.00311 1 -0.00108 0.28204)" fill="#444444" width="2.80002" height="0.80001"/>
<path id="Path-2" fill="none" stroke="#444444" stroke-width="0.5" d="M169.664,32.22099v-19.1"/>
<rect id="Rectangle-3" x="168.26401" y="32.021" fill="#444444" width="2.7" height="0.8"/>
<rect id="Rectangle-4" x="168.26401" y="12.82099" fill="#444444" width="2.7" height="0.8"/>
<g enable-background="new    ">
	<path d="M3.94141,13.38428h0.70996v6.30664H7.8291v0.65918h-3.8877V13.38428z"/>
	<path d="M12.68945,15.42236v4.92773H12v-0.70996c-0.35059,0.53027-0.97949,0.79004-1.62988,0.79004
		c-1.11914,0-1.6084-0.76953-1.6084-1.98926v-3.01855h0.68945V18.271c0,0.7998,0.13965,1.5498,1.0791,1.5498
		C11.50977,19.8208,12,18.97119,12,17.69189v-2.26953H12.68945z"/>
	<path d="M18.43945,17.33154v3.01855H17.75v-2.84863c0-1.05957-0.33984-1.54883-1.08008-1.54883
		c-0.92969,0-1.46875,0.7998-1.46875,2.18848v2.20898h-0.68945v-4.92773h0.68945v0.71973
		c0.31934-0.49902,0.91895-0.79883,1.62891-0.79883C17.88965,15.34326,18.43945,16.02295,18.43945,17.33154z"/>
	<path d="M23.97949,21.10986c0,0.92969-0.87012,1.35938-2.10938,1.35938c-1.36914,0-2.19824-0.54004-2.19824-1.51953
		c0-0.09961,0.00977-0.16016,0.01953-0.21973l0.7998-0.67969c-0.37988-0.16992-0.63965-0.4502-0.63965-0.93945
		c0-0.39941,0.17969-0.69922,0.5293-0.93945c-0.25977-0.2998-0.41992-0.67969-0.41992-1.11914c0-1,0.82031-1.70898,1.87891-1.70898
		c0.48047,0,0.91016,0.14941,1.22949,0.39941l0.67969-0.58984l0.36035,0.4502l-0.66992,0.55957
		c0.16992,0.26953,0.26953,0.5791,0.26953,0.92969c0,1.00879-0.81934,1.67871-1.8584,1.67871
		c-0.37988,0-0.72949-0.08984-1.01953-0.25c-0.2002,0.11035-0.32031,0.29004-0.32031,0.5c0,0.5,0.62012,0.61914,1.3291,0.72949
		C22.81934,19.8999,23.97949,20.04053,23.97949,21.10986z M23.28906,21.16943c0-0.59961-0.7793-0.68945-1.59863-0.81934
		c-0.21973-0.03027-0.4502-0.07031-0.66016-0.12012l-0.66895,0.64941c-0.01074,0.05078-0.01074,0.07031-0.01074,0.09082
		c0,0.69922,0.70996,0.91895,1.5498,0.91895C22.76953,21.88916,23.28906,21.64893,23.28906,21.16943z M20.64062,17.07178
		c0,0.63965,0.45996,1.12988,1.19922,1.12988c0.74023,0,1.17969-0.48047,1.17969-1.12988c0-0.67969-0.45996-1.14941-1.16895-1.14941
		C21.15039,15.92236,20.64062,16.39209,20.64062,17.07178z"/>
	<path d="M29.2793,17.33154v3.01855h-0.68945v-2.84863c0-1.06934-0.33984-1.54883-1.08008-1.54883
		c-0.93945,0-1.46875,0.76953-1.46875,2.12891v2.26855h-0.68945v-6.96582h0.68945v2.75781
		c0.31934-0.49902,0.91895-0.79883,1.62891-0.79883C28.72949,15.34326,29.2793,16.02295,29.2793,17.33154z"/>
	<path d="M34.87891,18.07178h-3.6084c0.02051,1.0791,0.62012,1.72852,1.58984,1.72852c0.53906,0,0.96875-0.13965,1.41895-0.61914
		l0.47949,0.41895c-0.5791,0.61035-1.14941,0.83008-1.90918,0.83008c-1.49902,0-2.26855-1.11914-2.26855-2.51855
		c0-1.38965,0.75977-2.56836,2.18945-2.56836c1.50879,0,2.13867,1.17871,2.13867,2.29785
		C34.90918,17.78174,34.89844,17.95166,34.87891,18.07178z M31.27051,17.4917h2.97852c0-0.02051-0.00977-0.07031-0.00977-0.16016
		c-0.0498-0.7998-0.55957-1.40918-1.46875-1.40918C31.88086,15.92236,31.33105,16.62256,31.27051,17.4917z"/>
	<path d="M39.85938,15.97217l-3.20898,3.78809h3.18848v0.58984h-4.09766v-0.5l3.27832-3.83789h-3.1084v-0.58984h3.94824V15.97217z"
		/>
	<path d="M44.72949,15.97217l-3.20898,3.78809h3.18848v0.58984h-4.09766v-0.5l3.27832-3.83789h-3.1084v-0.58984h3.94824V15.97217z"
		/>
	<path d="M49.70898,17.28174v3.06836H49.0791l-0.04004-0.75977c-0.38965,0.5498-0.98926,0.83984-1.76855,0.83984
		c-1.06934,0-1.69922-0.55957-1.69922-1.50977c0-0.49902,0.2002-0.87891,0.55957-1.09863
		c0.37988-0.21973,0.91016-0.31055,1.87891-0.31055h1.00977v-0.22949c0-0.85938-0.4502-1.3291-1.2793-1.3291
		c-0.62012,0-1.09961,0.26953-1.49902,0.81934l-0.5-0.41992c0.5293-0.68945,1.16895-1.00879,2.00879-1.00879
		C48.98926,15.34326,49.70898,16.05225,49.70898,17.28174z M49.01953,18.14111v-0.06934h-0.94922
		c-0.91016,0-1.2998,0.05957-1.53906,0.24902c-0.18066,0.14062-0.27051,0.36035-0.27051,0.63965
		c0,0.5498,0.46973,0.90039,1.20996,0.90039C48.41992,19.86084,49.01953,19.19092,49.01953,18.14111z"/>
	<path d="M53.69043,17.88135c0-1.45898,0.9502-2.53809,2.35938-2.53809c1.39941,0,2.36816,1.0791,2.36816,2.53809
		c0,1.44922-0.95898,2.54883-2.36816,2.54883S53.69043,19.34033,53.69043,17.88135z M57.72852,17.88135
		c0-1.11914-0.62988-1.92871-1.67871-1.92871c-1.05957,0-1.66895,0.81934-1.66895,1.92871
		c0,1.11914,0.61914,1.93945,1.66895,1.93945C57.10938,19.8208,57.72852,18.98096,57.72852,17.88135z"/>
	<path d="M64.31836,17.88135c0,1.46973-0.75,2.54883-2.18945,2.54883c-0.71875,0-1.26855-0.28027-1.62891-0.73926v2.69824h-0.68945
		v-6.9668H60.5v0.66016c0.37012-0.47949,0.92969-0.75,1.62891-0.75C63.49902,15.33252,64.31836,16.34229,64.31836,17.88135z
		 M63.62891,17.88135c0-1.16895-0.59961-1.93848-1.59961-1.93848c-0.98926,0-1.58887,0.76953-1.58887,1.93848
		c0,1.11914,0.5498,1.93945,1.58887,1.93945C63.0791,19.8208,63.62891,19.00049,63.62891,17.88135z"/>
	<path d="M69.64844,18.07178h-3.6084c0.02051,1.0791,0.62012,1.72852,1.58984,1.72852c0.53906,0,0.96875-0.13965,1.41895-0.61914
		l0.47949,0.41895c-0.5791,0.61035-1.14941,0.83008-1.90918,0.83008c-1.49902,0-2.26855-1.11914-2.26855-2.51855
		c0-1.38965,0.75977-2.56836,2.18945-2.56836c1.50879,0,2.13867,1.17871,2.13867,2.29785
		C69.67871,17.78174,69.66797,17.95166,69.64844,18.07178z M66.04004,17.4917h2.97852c0-0.02051-0.00977-0.07031-0.00977-0.16016
		c-0.0498-0.7998-0.55957-1.40918-1.46875-1.40918C66.65039,15.92236,66.10059,16.62256,66.04004,17.4917z"/>
	<path d="M74.06934,15.55322l-0.33984,0.55957C73.5,16.01221,73.29004,15.9624,73.08008,15.9624
		c-0.75977,0-1.31934,0.56934-1.31934,1.63965v2.74805h-0.68945v-4.92773h0.68945v0.74023
		c0.35938-0.64941,0.95898-0.81934,1.45898-0.81934C73.51953,15.34326,73.7998,15.40283,74.06934,15.55322z"/>
	<path d="M78.75879,17.28174v3.06836h-0.62988l-0.04004-0.75977c-0.38965,0.5498-0.98926,0.83984-1.76953,0.83984
		c-1.06934,0-1.69824-0.55957-1.69824-1.50977c0-0.49902,0.19922-0.87891,0.55957-1.09863
		c0.37988-0.21973,0.90918-0.31055,1.87891-0.31055h1.00879v-0.22949c0-0.85938-0.44922-1.3291-1.2793-1.3291
		c-0.61914,0-1.09863,0.26953-1.49902,0.81934l-0.49902-0.41992c0.5293-0.68945,1.16895-1.00879,2.00879-1.00879
		C78.03906,15.34326,78.75879,16.05225,78.75879,17.28174z M78.06836,18.14111v-0.06934h-0.94922
		c-0.90918,0-1.29883,0.05957-1.53906,0.24902c-0.17969,0.14062-0.26953,0.36035-0.26953,0.63965
		c0,0.5498,0.46973,0.90039,1.20898,0.90039C77.46875,19.86084,78.06836,19.19092,78.06836,18.14111z"/>
</g>
<g enable-background="new    ">
	<path d="M31.2417,26.38428h0.79932v1.01953H31.2417V26.38428z M31.30176,28.42285h0.68945v4.92773h-0.68945V28.42285z"/>
	<path d="M37.73926,30.33203v3.01855H37.0498v-2.84863c0-1.05957-0.33984-1.54883-1.07959-1.54883
		c-0.92969,0-1.46924,0.7998-1.46924,2.18848v2.20898h-0.68945v-4.92773h0.68945v0.71973
		c0.31982-0.49902,0.91943-0.79883,1.62891-0.79883C37.18945,28.34375,37.73926,29.02344,37.73926,30.33203z"/>
	<path d="M41.76123,30.90234c0-1.2998,0.72998-2.55859,2.21875-2.55859c0.87988,0,1.60938,0.43945,1.99902,1.3584l-0.65967,0.26074
		c-0.22949-0.62988-0.71924-1.00977-1.33936-1.00977c-1.04932,0-1.51904,0.93945-1.51904,1.94922
		c0,1.00879,0.46973,1.91895,1.5293,1.91895c0.61963,0,1.10938-0.37012,1.29932-1l0.63965,0.24023
		c-0.33008,0.89941-1.04932,1.36914-1.93896,1.36914C42.56104,33.43066,41.76123,32.27148,41.76123,30.90234z"/>
	<path d="M50.86963,30.28223v3.06836h-0.62988l-0.04004-0.75977c-0.38965,0.5498-0.98926,0.83984-1.76904,0.83984
		c-1.06934,0-1.69873-0.55957-1.69873-1.50977c0-0.49902,0.19971-0.87891,0.55957-1.09863
		c0.37988-0.21973,0.90967-0.31055,1.87891-0.31055h1.00928v-0.22949c0-0.85938-0.44971-1.3291-1.2793-1.3291
		c-0.61963,0-1.09912,0.26953-1.49902,0.81934l-0.49951-0.41992c0.5293-0.68945,1.16895-1.00879,2.00879-1.00879
		C50.1499,28.34375,50.86963,29.05273,50.86963,30.28223z M50.17969,31.1416v-0.06934h-0.94922
		c-0.90967,0-1.29932,0.05957-1.53906,0.24902c-0.18018,0.14062-0.27002,0.36035-0.27002,0.63965
		c0,0.5498,0.46973,0.90039,1.20947,0.90039C49.58008,32.86133,50.17969,32.19141,50.17969,31.1416z"/>
	<path d="M55.54932,28.55371l-0.33984,0.55957c-0.22949-0.10059-0.43945-0.15039-0.64941-0.15039
		c-0.75977,0-1.31934,0.56934-1.31934,1.63965v2.74805h-0.68945v-4.92773h0.68945v0.74023
		c0.35986-0.64941,0.95947-0.81934,1.45898-0.81934C54.99951,28.34375,55.27979,28.40332,55.54932,28.55371z"/>
	<path d="M60.23926,30.28223v3.06836h-0.62988l-0.04004-0.75977c-0.38965,0.5498-0.98926,0.83984-1.76904,0.83984
		c-1.06934,0-1.69873-0.55957-1.69873-1.50977c0-0.49902,0.19971-0.87891,0.55957-1.09863
		c0.37988-0.21973,0.90967-0.31055,1.87891-0.31055h1.00928v-0.22949c0-0.85938-0.44971-1.3291-1.2793-1.3291
		c-0.61963,0-1.09912,0.26953-1.49902,0.81934l-0.49951-0.41992c0.5293-0.68945,1.16895-1.00879,2.00879-1.00879
		C59.51953,28.34375,60.23926,29.05273,60.23926,30.28223z M59.54932,31.1416v-0.06934H58.6001
		c-0.90967,0-1.29932,0.05957-1.53906,0.24902c-0.18018,0.14062-0.27002,0.36035-0.27002,0.63965
		c0,0.5498,0.46973,0.90039,1.20947,0.90039C58.94971,32.86133,59.54932,32.19141,59.54932,31.1416z"/>
	<path d="M63.97021,33.30078c-0.25977,0.08008-0.52002,0.12988-0.74951,0.12988c-0.65967,0-1.13965-0.37012-1.13965-1.23926
		v-3.18848h-0.81934v-0.58008h0.81934v-1.37939l0.68994-0.51953v1.89893h1.18896v0.58008H62.771v3.09863
		c0,0.47949,0.21973,0.69922,0.60938,0.69922c0.16992,0,0.35986-0.04004,0.57959-0.10938L63.97021,33.30078z"/>
	<path d="M67.33008,33.30078c-0.25977,0.08008-0.52002,0.12988-0.74951,0.12988c-0.65967,0-1.13965-0.37012-1.13965-1.23926
		v-3.18848h-0.81934v-0.58008h0.81934v-1.37939l0.68945-0.51953v1.89893h1.18945v0.58008h-1.18945v3.09863
		c0,0.47949,0.22021,0.69922,0.60986,0.69922c0.16992,0,0.35986-0.04004,0.57959-0.10938L67.33008,33.30078z"/>
	<path d="M72.48877,31.07227h-3.60791c0.02002,1.0791,0.61963,1.72852,1.58936,1.72852c0.53955,0,0.96924-0.13965,1.41895-0.61914
		l0.47998,0.41895c-0.57959,0.61035-1.14941,0.83008-1.90918,0.83008c-1.49902,0-2.26855-1.11914-2.26855-2.51855
		c0-1.38965,0.75977-2.56836,2.18896-2.56836c1.50879,0,2.13867,1.17871,2.13867,2.29785
		C72.51904,30.78223,72.50879,30.95215,72.48877,31.07227z M68.88086,30.49219h2.97852c0-0.02051-0.01025-0.07031-0.01025-0.16016
		c-0.0498-0.7998-0.55957-1.40918-1.46875-1.40918C69.49072,28.92285,68.94092,29.62305,68.88086,30.49219z"/>
	<path d="M76.90918,28.55371l-0.33984,0.55957c-0.22949-0.10059-0.43945-0.15039-0.64941-0.15039
		c-0.75977,0-1.31934,0.56934-1.31934,1.63965v2.74805h-0.68945v-4.92773h0.68945v0.74023
		c0.35986-0.64941,0.95947-0.81934,1.45898-0.81934C76.35986,28.34375,76.63965,28.40332,76.90918,28.55371z"/>
	<path d="M77.87109,26.38428h0.79932v1.01953h-0.79932V26.38428z M77.93115,28.42285h0.68945v4.92773h-0.68945V28.42285z"/>
</g>
<path id="Path-13" fill="none" stroke="#444444" stroke-width="0.25" stroke-dasharray="2.114,2.114" d="M126.08849,32.421h43.7"/>
<path id="Path-12_1_" fill="none" stroke="#444444" stroke-width="0.25" d="M123.33,24.60399h0.8"/>
<path id="Path-13_1_" fill="none" stroke="#444444" stroke-width="0.25" stroke-dasharray="2.114,2.114" d="M126.04961,13.22099
	h43.7"/>
<g enable-background="new    ">
	<path d="M186.70703,23.26074l-1.01953-1c-0.50977,0.36035-1.12988,0.55957-1.83984,0.55957
		c-1.9082,0-3.1875-1.42871-3.1875-3.57812c0-2.1582,1.2793-3.58789,3.1875-3.58789c1.90918,0,3.18848,1.42969,3.18848,3.58789
		c0,1.08008-0.31934,1.96973-0.87988,2.59863l1.00977,0.99023L186.70703,23.26074z M185.17773,21.77148l-1.12988-1.09961
		l0.47949-0.42969l1.12891,1.10938c0.42969-0.5,0.66992-1.22949,0.66992-2.10938c0-1.77832-0.96875-2.9082-2.47852-2.9082
		c-1.50879,0-2.47852,1.12988-2.47852,2.9082c0,1.76953,0.96973,2.89844,2.47852,2.89844
		C184.35742,22.14062,184.80664,22.01074,185.17773,21.77148z"/>
	<path d="M192.55664,17.79297v4.92773h-0.68945v-0.70996c-0.34961,0.53027-0.97852,0.79004-1.62891,0.79004
		c-1.11914,0-1.60938-0.76953-1.60938-1.98926v-3.01855h0.68945v2.84863c0,0.7998,0.14062,1.5498,1.08008,1.5498
		c0.97949,0,1.46875-0.84961,1.46875-2.12891v-2.26953H192.55664z"/>
	<path d="M198.04688,19.65234v3.06836h-0.62891l-0.04102-0.75977c-0.38867,0.5498-0.98828,0.83984-1.76855,0.83984
		c-1.06934,0-1.69824-0.55957-1.69824-1.50977c0-0.49902,0.19922-0.87891,0.55859-1.09863
		c0.38086-0.21973,0.91016-0.31055,1.87891-0.31055h1.00977v-0.22949c0-0.85938-0.44922-1.3291-1.2793-1.3291
		c-0.61914,0-1.09961,0.26953-1.49902,0.81934l-0.49902-0.41992c0.5293-0.68945,1.16797-1.00879,2.00781-1.00879
		C197.32812,17.71387,198.04688,18.42285,198.04688,19.65234z M197.35742,20.51172v-0.06934h-0.94922
		c-0.91016,0-1.29883,0.05957-1.53906,0.24902c-0.17969,0.14062-0.26953,0.36035-0.26953,0.63965
		c0,0.5498,0.46875,0.90039,1.20898,0.90039C196.75781,22.23145,197.35742,21.56152,197.35742,20.51172z"/>
	<path d="M203.65723,19.70215v3.01855h-0.68945v-2.84863c0-1.05957-0.33984-1.54883-1.0791-1.54883
		c-0.92969,0-1.46973,0.7998-1.46973,2.18848v2.20898h-0.68945v-4.92773h0.68945v0.71973
		c0.31934-0.49902,0.91895-0.79883,1.62891-0.79883C203.10742,17.71387,203.65723,18.39355,203.65723,19.70215z"/>
	<path d="M207.4082,22.6709c-0.25977,0.08008-0.51953,0.12988-0.75,0.12988c-0.65918,0-1.13867-0.37012-1.13867-1.23926v-3.18848
		h-0.82031v-0.58008h0.82031v-1.37891l0.68945-0.51953v1.89844h1.18945v0.58008h-1.18945v3.09863
		c0,0.47949,0.21973,0.69922,0.60938,0.69922c0.16992,0,0.35938-0.04004,0.58008-0.10938L207.4082,22.6709z"/>
	<path d="M208.65918,15.75488h0.7998v1.01953h-0.7998V15.75488z M208.71875,17.79297h0.68945v4.92773h-0.68945V17.79297z"/>
	<path d="M213.27734,22.6709c-0.25977,0.08008-0.51953,0.12988-0.74902,0.12988c-0.65918,0-1.13965-0.37012-1.13965-1.23926
		v-3.18848h-0.81934v-0.58008h0.81934v-1.37891l0.68945-0.51953v1.89844h1.18945v0.58008h-1.18945v3.09863
		c0,0.47949,0.2207,0.69922,0.60938,0.69922c0.16992,0,0.36035-0.04004,0.58008-0.10938L213.27734,22.6709z"/>
	<path d="M218.25781,19.65234v3.06836h-0.63086l-0.03906-0.75977c-0.39062,0.5498-0.99023,0.83984-1.76953,0.83984
		c-1.06934,0-1.69922-0.55957-1.69922-1.50977c0-0.49902,0.2002-0.87891,0.56055-1.09863
		c0.37891-0.21973,0.90918-0.31055,1.87891-0.31055h1.00879v-0.22949c0-0.85938-0.4502-1.3291-1.2793-1.3291
		c-0.62012,0-1.09863,0.26953-1.49902,0.81934l-0.5-0.41992c0.5293-0.68945,1.16992-1.00879,2.00977-1.00879
		C217.53711,17.71387,218.25781,18.42285,218.25781,19.65234z M216.04883,17.16406l-1.24023-1.40918h0.74023l1.03906,1.40918
		H216.04883z M217.56738,20.51172v-0.06934h-0.94922c-0.90918,0-1.2998,0.05957-1.53906,0.24902
		c-0.18066,0.14062-0.27051,0.36035-0.27051,0.63965c0,0.5498,0.4707,0.90039,1.20996,0.90039
		C216.96777,22.23145,217.56738,21.56152,217.56738,20.51172z"/>
	<path d="M226.78711,15.75488v6.96582h-0.69043v-0.65918c-0.35938,0.45898-0.90918,0.73926-1.62891,0.73926
		c-1.43848,0-2.18848-1.0791-2.18848-2.54883c0-1.53906,0.81934-2.54883,2.18848-2.54883c0.7002,0,1.25879,0.27051,1.62891,0.75
		v-2.69824H226.78711z M226.15625,20.25195c0-1.16895-0.59961-1.93848-1.58789-1.93848c-1,0-1.59961,0.76953-1.59961,1.93848
		c0,1.11914,0.5498,1.93945,1.59961,1.93945C225.60742,22.19141,226.15625,21.37109,226.15625,20.25195z"/>
	<path d="M228.54883,15.75488h0.79883v1.01953h-0.79883V15.75488z M228.60938,17.79297h0.68945v4.92773h-0.68945V17.79297z"/>
	<path d="M235.89746,22.6709c-0.25977,0.08008-0.52051,0.12988-0.74902,0.12988c-0.66016,0-1.14062-0.37012-1.14062-1.23926
		v-3.18848h-0.81836v-0.58008h0.81836v-1.37891l0.69043-0.51953v1.89844h1.18848v0.58008h-1.18848v3.09863
		c0,0.47949,0.21973,0.69922,0.60938,0.69922c0.16992,0,0.36035-0.04004,0.5791-0.10938L235.89746,22.6709z"/>
	<path d="M241.05664,20.44238h-3.6084c0.02051,1.0791,0.62012,1.72852,1.58887,1.72852c0.54004,0,0.96973-0.13965,1.41992-0.61914
		l0.47949,0.41895c-0.5791,0.61035-1.14941,0.83008-1.90918,0.83008c-1.49902,0-2.26855-1.11914-2.26855-2.51855
		c0-1.38965,0.75977-2.56836,2.18848-2.56836c1.50977,0,2.13867,1.17871,2.13867,2.29785
		C241.08594,20.15234,241.07617,20.32227,241.05664,20.44238z M237.44824,19.8623h2.97852
		c0-0.02051-0.01074-0.07031-0.01074-0.16016c-0.04883-0.7998-0.55859-1.40918-1.46875-1.40918
		C238.05859,18.29297,237.50781,18.99316,237.44824,19.8623z"/>
	<path d="M241.94922,21.51172l0.58008-0.25977c0.17969,0.50977,0.65918,0.93945,1.42871,0.93945
		c0.66895,0,1.09961-0.33008,1.09961-0.84961c0-1.30957-2.83887-0.49023-2.83887-2.23926c0-0.85938,0.69922-1.38867,1.68945-1.38867
		c0.78906,0,1.42969,0.3291,1.76953,1.0293l-0.55078,0.2998c-0.23926-0.44043-0.62891-0.71973-1.23828-0.71973
		c-0.61035,0-1,0.25-1,0.67969c0,1.16895,2.84766,0.42969,2.84766,2.29883c0,0.99902-0.81836,1.49902-1.76855,1.49902
		C242.99805,22.80078,242.20898,22.30078,241.94922,21.51172z"/>
	<path d="M249.1875,22.6709c-0.25977,0.08008-0.51953,0.12988-0.75,0.12988c-0.65918,0-1.13867-0.37012-1.13867-1.23926v-3.18848
		h-0.82031v-0.58008h0.82031v-1.37891l0.68945-0.51953v1.89844h1.18945v0.58008h-1.18945v3.09863
		c0,0.47949,0.21973,0.69922,0.60938,0.69922c0.16992,0,0.35938-0.04004,0.58008-0.10938L249.1875,22.6709z"/>
	<path d="M250.01855,20.25195c0-1.45898,0.9502-2.53809,2.3584-2.53809c1.40039,0,2.36914,1.0791,2.36914,2.53809
		c0,1.44922-0.95898,2.54883-2.36914,2.54883C250.96875,22.80078,250.01855,21.71094,250.01855,20.25195z M254.05664,20.25195
		c0-1.11914-0.62988-1.92871-1.67969-1.92871c-1.05859,0-1.66797,0.81934-1.66797,1.92871
		c0,1.11914,0.61914,1.93945,1.66797,1.93945C253.4375,22.19141,254.05664,21.35156,254.05664,20.25195z"/>
</g>
<g enable-background="new    ">
	<path d="M185.02734,28.75488v6.96582h-0.68945v-0.65918c-0.35938,0.45898-0.91016,0.73926-1.62891,0.73926
		c-1.43945,0-2.18945-1.0791-2.18945-2.54883c0-1.53906,0.82031-2.54883,2.18945-2.54883c0.69922,0,1.25879,0.27051,1.62891,0.75
		v-2.69824H185.02734z M184.39746,33.25195c0-1.16895-0.59961-1.93848-1.58887-1.93848c-1,0-1.59961,0.76953-1.59961,1.93848
		c0,1.11914,0.5498,1.93945,1.59961,1.93945C183.84766,35.19141,184.39746,34.37109,184.39746,33.25195z"/>
	<path d="M190.60742,30.79297v4.92773h-0.68945v-0.70996c-0.34961,0.53027-0.97949,0.79004-1.62891,0.79004
		c-1.11914,0-1.60938-0.76953-1.60938-1.98926v-3.01855h0.68945v2.84863c0,0.7998,0.14062,1.5498,1.08008,1.5498
		c0.97852,0,1.46875-0.84961,1.46875-2.12891v-2.26953H190.60742z"/>
	<path d="M196.9375,33.25195c0,1.46973-0.75,2.54883-2.18945,2.54883c-0.71875,0-1.26953-0.28027-1.62891-0.73926v0.65918h-0.68945
		v-6.96582h0.68945v2.69824c0.36914-0.47949,0.92969-0.75,1.62891-0.75C196.11719,30.70312,196.9375,31.71289,196.9375,33.25195z
		 M196.24805,33.25195c0-1.16895-0.59961-1.93848-1.59961-1.93848c-0.99023,0-1.58984,0.76953-1.58984,1.93848
		c0,1.11914,0.55078,1.93945,1.58984,1.93945C195.69727,35.19141,196.24805,34.37109,196.24805,33.25195z"/>
	<path d="M198.30957,28.75488h0.7998v1.01953h-0.7998V28.75488z M198.36914,30.79297h0.68945v4.92773h-0.68945V30.79297z"/>
	<path d="M202.92773,35.6709c-0.25977,0.08008-0.51953,0.12988-0.74902,0.12988c-0.65918,0-1.13965-0.37012-1.13965-1.23926
		v-3.18848h-0.81934v-0.58008h0.81934v-1.37891l0.68945-0.51953v1.89844h1.18945v0.58008h-1.18945v3.09863
		c0,0.47949,0.2207,0.69922,0.60938,0.69922c0.16992,0,0.36035-0.04004,0.58008-0.10938L202.92773,35.6709z"/>
	<path d="M207.90723,32.65234v3.06836h-0.62988l-0.04004-0.75977c-0.38965,0.5498-0.98926,0.83984-1.76855,0.83984
		c-1.07031,0-1.69922-0.55957-1.69922-1.50977c0-0.49902,0.19922-0.87891,0.55957-1.09863
		c0.37988-0.21973,0.90918-0.31055,1.87891-0.31055h1.00879v-0.22949c0-0.85938-0.44922-1.3291-1.2793-1.3291
		c-0.61914,0-1.09863,0.26953-1.49805,0.81934l-0.5-0.41992c0.5293-0.68945,1.16895-1.00879,2.00879-1.00879
		C207.1875,30.71387,207.90723,31.42285,207.90723,32.65234z M207.2168,33.51172v-0.06934h-0.94922
		c-0.90918,0-1.29883,0.05957-1.53906,0.24902c-0.17969,0.14062-0.26953,0.36035-0.26953,0.63965
		c0,0.5498,0.46973,0.90039,1.20898,0.90039C206.61719,35.23145,207.2168,34.56152,207.2168,33.51172z"/>
	<path d="M211.63867,35.6709c-0.25977,0.08008-0.52051,0.12988-0.75,0.12988c-0.66016,0-1.13965-0.37012-1.13965-1.23926v-3.18848
		h-0.81934v-0.58008h0.81934v-1.37891l0.68945-0.51953v1.89844h1.18945v0.58008h-1.18945v3.09863
		c0,0.47949,0.21973,0.69922,0.61035,0.69922c0.16992,0,0.35938-0.04004,0.5791-0.10938L211.63867,35.6709z"/>
	<path d="M212.88867,28.75488h0.7998v1.01953h-0.7998V28.75488z M212.94922,30.79297h0.68945v4.92773h-0.68945V30.79297z"/>
	<path d="M214.75,30.79297h0.75l1.54883,4.04785l1.55859-4.04785h0.75977l-2.01953,4.92773h-0.58887L214.75,30.79297z"/>
	<path d="M219.89941,33.25195c0-1.45898,0.94922-2.53809,2.3584-2.53809c1.39941,0,2.36914,1.0791,2.36914,2.53809
		c0,1.44922-0.95996,2.54883-2.36914,2.54883S219.89941,34.71094,219.89941,33.25195z M223.9375,33.25195
		c0-1.11914-0.63086-1.92871-1.67969-1.92871c-1.05957,0-1.66895,0.81934-1.66895,1.92871
		c0,1.11914,0.62012,1.93945,1.66895,1.93945C223.31738,35.19141,223.9375,34.35156,223.9375,33.25195z"/>
	<path d="M228.68945,28.75488h0.79883v1.01953h-0.79883V28.75488z M228.74902,30.79297h0.68945v4.92773h-0.68945V30.79297z"/>
	<path d="M235.18652,32.70215v3.01855h-0.68945v-2.84863c0-1.05957-0.33984-1.54883-1.0791-1.54883
		c-0.92969,0-1.46973,0.7998-1.46973,2.18848v2.20898h-0.68945v-4.92773h0.68945v0.71973
		c0.31934-0.49902,0.91895-0.79883,1.62891-0.79883C234.63672,30.71387,235.18652,31.39355,235.18652,32.70215z"/>
</g>
<g enable-background="new    ">
	<path d="M180.5,46.27246c0-1.2998,0.72949-2.55859,2.21875-2.55859c0.87891,0,1.60938,0.43945,1.99805,1.3584l-0.65918,0.26074
		c-0.22949-0.62988-0.71973-1.00977-1.33887-1.00977c-1.0498,0-1.51953,0.93945-1.51953,1.94922
		c0,1.00879,0.46973,1.91895,1.5293,1.91895c0.61914,0,1.10938-0.37012,1.29883-1l0.64062,0.24023
		c-0.33008,0.89941-1.0498,1.36914-1.93945,1.36914C181.29883,48.80078,180.5,47.6416,180.5,46.27246z"/>
	<path d="M189.60742,45.65234v3.06836h-0.62891l-0.04102-0.75977c-0.38867,0.5498-0.98828,0.83984-1.76855,0.83984
		c-1.06934,0-1.69824-0.55957-1.69824-1.50977c0-0.49902,0.19922-0.87891,0.55859-1.09863
		c0.38086-0.21973,0.91016-0.31055,1.87891-0.31055h1.00977v-0.22949c0-0.85938-0.44922-1.3291-1.2793-1.3291
		c-0.61914,0-1.09961,0.26953-1.49902,0.81934l-0.49902-0.41992c0.5293-0.68945,1.16797-1.00879,2.00781-1.00879
		C188.88867,43.71387,189.60742,44.42285,189.60742,45.65234z M188.91797,46.51172v-0.06934h-0.94922
		c-0.91016,0-1.29883,0.05957-1.53906,0.24902c-0.17969,0.14062-0.26953,0.36035-0.26953,0.63965
		c0,0.5498,0.46875,0.90039,1.20898,0.90039C188.31836,48.23145,188.91797,47.56152,188.91797,46.51172z"/>
	<path d="M194.28711,43.92383l-0.33984,0.55957c-0.22852-0.10059-0.43945-0.15039-0.64844-0.15039
		c-0.75977,0-1.32031,0.56934-1.32031,1.63965v2.74805h-0.68945v-4.92773h0.68945v0.74023
		c0.36035-0.64941,0.95996-0.81934,1.45898-0.81934C193.73828,43.71387,194.01758,43.77344,194.28711,43.92383z"/>
	<path d="M198.97754,45.65234v3.06836h-0.62988l-0.04004-0.75977c-0.38965,0.5498-0.98926,0.83984-1.76855,0.83984
		c-1.07031,0-1.69922-0.55957-1.69922-1.50977c0-0.49902,0.19922-0.87891,0.55957-1.09863
		c0.37988-0.21973,0.90918-0.31055,1.87891-0.31055h1.00879v-0.22949c0-0.85938-0.44922-1.3291-1.2793-1.3291
		c-0.61914,0-1.09863,0.26953-1.49805,0.81934l-0.5-0.41992c0.5293-0.68945,1.16895-1.00879,2.00879-1.00879
		C198.25781,43.71387,198.97754,44.42285,198.97754,45.65234z M198.28711,46.51172v-0.06934h-0.94922
		c-0.90918,0-1.29883,0.05957-1.53906,0.24902c-0.17969,0.14062-0.26953,0.36035-0.26953,0.63965
		c0,0.5498,0.46973,0.90039,1.20898,0.90039C197.6875,48.23145,198.28711,47.56152,198.28711,46.51172z"/>
	<path d="M202.70898,48.6709c-0.25977,0.08008-0.52051,0.12988-0.75,0.12988c-0.66016,0-1.13965-0.37012-1.13965-1.23926v-3.18848
		H200v-0.58008h0.81934v-1.37891l0.68945-0.51953v1.89844h1.18945v0.58008h-1.18945v3.09863
		c0,0.47949,0.21973,0.69922,0.61035,0.69922c0.16992,0,0.35938-0.04004,0.5791-0.10938L202.70898,48.6709z"/>
	<path d="M206.06836,48.6709c-0.25977,0.08008-0.51953,0.12988-0.75,0.12988c-0.65918,0-1.13867-0.37012-1.13867-1.23926v-3.18848
		h-0.82031v-0.58008h0.82031v-1.37891l0.68945-0.51953v1.89844h1.18945v0.58008h-1.18945v3.09863
		c0,0.47949,0.21973,0.69922,0.60938,0.69922c0.16992,0,0.35938-0.04004,0.58008-0.10938L206.06836,48.6709z"/>
	<path d="M211.22656,46.44238h-3.60742c0.01953,1.0791,0.61914,1.72852,1.58984,1.72852c0.53906,0,0.96875-0.13965,1.41797-0.61914
		l0.48047,0.41895c-0.58008,0.61035-1.14941,0.83008-1.90918,0.83008c-1.49902,0-2.26855-1.11914-2.26855-2.51855
		c0-1.38965,0.75977-2.56836,2.18945-2.56836c1.50781,0,2.13867,1.17871,2.13867,2.29785
		C211.25781,46.15234,211.24707,46.32227,211.22656,46.44238z M207.61914,45.8623h2.97852
		c0-0.02051-0.00977-0.07031-0.00977-0.16016c-0.05078-0.7998-0.56055-1.40918-1.46875-1.40918
		C208.22852,44.29297,207.67969,44.99316,207.61914,45.8623z"/>
	<path d="M215.64746,43.92383l-0.33984,0.55957c-0.22949-0.10059-0.43945-0.15039-0.64941-0.15039
		c-0.75977,0-1.31934,0.56934-1.31934,1.63965v2.74805h-0.68945v-4.92773h0.68945v0.74023
		c0.36035-0.64941,0.95996-0.81934,1.45898-0.81934C215.09766,43.71387,215.37793,43.77344,215.64746,43.92383z"/>
	<path d="M216.60938,41.75488h0.79883v1.01953h-0.79883V41.75488z M216.66992,43.79297h0.68945v4.92773h-0.68945V43.79297z"/>
</g>
<path id="Tracciato_124405" fill="#C7CD60" d="M125.39999,30.22099c-0.60001-0.8-1.10001-0.89999-1.7-0.39999
	c-1.10001,0.8-2.7,0.60001-3.60001-0.5c-0.39999-0.5-0.60001-1.10001-0.5-1.7c0.10001-1.39999-0.39999-2.3-2.3-2.39999
	c-2-0.2-3.39999-1.89999-3.3-3.89999c0.2-2,1.89999-3.39999,3.8-3.3c0.2,0,0.5,0.10001,0.7,0.10001c1.60001,0.5,2.5,0,3-1.7
	c0.60001-2,2.7-3.10001,4.7-2.5c1.8,0.5,2.89999,2.3,2.60001,4.2c-0.2,1.10001,0.10001,1.5,0.89999,1.60001
	c1.39999,0.2,2.3,1.60001,2.10001,2.89999c-0.10001,0.60001-0.39999,1.2-0.89999,1.60001c-0.60001,0.5-0.7,1,0,1.8
	c1.2,1.5,0.89999,3.7-0.60001,4.89999S126.60001,31.72099,125.39999,30.22099L125.39999,30.22099z"/>
<path id="Path-4" fill="none" stroke="#444444" stroke-width="0.25" stroke-dasharray="1.9,1.9" d="M91.66105,43.39326h31.74458"/>
<path id="Path-7" fill="none" stroke="#444444" stroke-width="0.25" stroke-dasharray="1.9,1.9" d="M90.0637,0.40899h34.7923"/>
</svg>
