<?xml version="1.0" encoding="utf-8"?>
<!-- Generator: Adobe Illustrator 25.0.0, SVG Export Plug-In . SVG Version: 6.00 Build 0)  -->
<svg version="1.1" id="Layer_1" xmlns="http://www.w3.org/2000/svg" xmlns:xlink="http://www.w3.org/1999/xlink" x="0px" y="0px"
	 viewBox="0 0 303 98.5" style="enable-background:new 0 0 303 98.5;" xml:space="preserve">
<style type="text/css">
	.st0{font-family:'HKGrotesk-Regular';}
	.st1{font-size:10px;}
	.st2{fill:#FF3366;}
	.st3{fill:#FF5D5B;}
	.st4{fill:#FFD93B;}
	.st5{fill:#C3D261;}
	.st6{fill:#88CC87;}
	.st7{fill:#4CC5AC;}
	.st8{fill:#10BED2;}
	.st9{fill:#C35681;}
	.st10{fill:#FF8651;}
	.st11{fill:#C38077;}
	.st12{fill:#88799C;}
	.st13{fill:#FFB046;}
	.st14{fill:#C3A96C;}
	.st15{fill:#88A291;}
	.st16{fill:#4C9BB7;}
	.st17{opacity:0.3;}
	.st18{fill:none;stroke:#000000;stroke-width:0.5;stroke-miterlimit:10;}
</style>
<text transform="matrix(1 0 0 1 193.372 95.474)" class="st0 st1">100% significato</text>
<text transform="matrix(1 0 0 1 246.491 10.001)" class="st0 st1">100% forma</text>
<text transform="matrix(1 0 0 1 150.237 10)" class="st0 st1">100% contenuto</text>
<g id="Raggruppa_1305" transform="translate(-482 520.065)">
	<path id="Rettangolo_9797" class="st2" d="M711.1-447.8L711.1-447.8c2.2,0,3.9,1.7,3.9,3.9l0,0c0,2.2-1.7,3.9-3.9,3.9l0,0
		c-2.2,0-3.9-1.7-3.9-3.9l0,0C707.2-446,709-447.8,711.1-447.8z"/>
	<path id="Rettangolo_9798" class="st3" d="M702.9-460.8L702.9-460.8c2.2,0,3.9,1.7,3.9,3.9l0,0c0,2.2-1.7,3.9-3.9,3.9l0,0
		c-2.2,0-3.9-1.7-3.9-3.9l0,0C699-459.1,700.8-460.8,702.9-460.8z"/>
	<path id="Rettangolo_9799" class="st4" d="M678.4-500L678.4-500c2.2,0,3.9,1.7,3.9,3.9l0,0c0,2.2-1.7,3.9-3.9,3.9l0,0
		c-2.2,0-3.9-1.7-3.9-3.9l0,0C674.4-498.2,676.2-500,678.4-500z"/>
	<path id="Rettangolo_9800" class="st5" d="M694.7-499.9L694.7-499.9c2.2,0,3.9,1.7,3.9,3.9l0,0c0,2.2-1.7,3.9-3.9,3.9l0,0
		c-2.2,0-3.9-1.7-3.9-3.9l0,0C690.7-498.2,692.5-499.9,694.7-499.9z"/>
	<path id="Rettangolo_9801" class="st6" d="M711-499.8L711-499.8c2.2,0,3.9,1.7,3.9,3.9l0,0c0,2.2-1.7,3.9-3.9,3.9l0,0
		c-2.2,0-3.9-1.7-3.9-3.9l0,0C707-498.1,708.8-499.8,711-499.8z"/>
	<path id="Rettangolo_9802" class="st7" d="M727.3-499.8L727.3-499.8c2.2,0,3.9,1.7,3.9,3.9l0,0c0,2.2-1.7,3.9-3.9,3.9l0,0
		c-2.2,0-3.9-1.7-3.9-3.9l0,0C723.4-498,725.1-499.8,727.3-499.8z"/>
	<path id="Rettangolo_9803" class="st8" d="M743.6-499.7L743.6-499.7c2.2,0,3.9,1.7,3.9,3.9l0,0c0,2.2-1.7,3.9-3.9,3.9l0,0
		c-2.2,0-3.9-1.7-3.9-3.9l0,0C739.7-498,741.4-499.7,743.6-499.7z"/>
	<path id="Rettangolo_9804" class="st2" d="M711.1-447.8L711.1-447.8c2.2,0,3.9,1.7,3.9,3.9l0,0c0,2.2-1.7,3.9-3.9,3.9l0,0
		c-2.2,0-3.9-1.7-3.9-3.9l0,0C707.2-446,709-447.8,711.1-447.8z"/>
	<path id="Rettangolo_9805" class="st9" d="M719.2-460.8L719.2-460.8c2.2,0,3.9,1.7,3.9,3.9l0,0c0,2.2-1.7,3.9-3.9,3.9l0,0
		c-2.2,0-3.9-1.7-3.9-3.9l0,0C715.3-459,717.1-460.8,719.2-460.8z"/>
	<g id="Raggruppa_1292">
		<path id="Rettangolo_9806" class="st10" d="M694.7-473.9L694.7-473.9c2.2,0,3.9,1.7,3.9,3.9l0,0c0,2.2-1.7,3.9-3.9,3.9l0,0
			c-2.2,0-3.9-1.7-3.9-3.9l0,0C690.8-472.1,692.6-473.9,694.7-473.9z"/>
		<path id="Rettangolo_9807" class="st11" d="M711-473.8L711-473.8c2.2,0,3.9,1.7,3.9,3.9l0,0c0,2.2-1.7,3.9-3.9,3.9l0,0
			c-2.2,0-3.9-1.7-3.9-3.9l0,0C707.1-472.1,708.9-473.8,711-473.8z"/>
		<path id="Rettangolo_9808" class="st12" d="M727.3-473.7L727.3-473.7c2.2,0,3.9,1.7,3.9,3.9l0,0c0,2.2-1.7,3.9-3.9,3.9l0,0
			c-2.2,0-3.9-1.7-3.9-3.9l0,0C723.4-472,725.2-473.7,727.3-473.7z"/>
	</g>
	<g id="Raggruppa_1293">
		<path id="Rettangolo_9809" class="st13" d="M686.5-486.9L686.5-486.9c2.2,0,3.9,1.7,3.9,3.9l0,0c0,2.2-1.7,3.9-3.9,3.9l0,0
			c-2.2,0-3.9-1.7-3.9-3.9l0,0C682.6-485.2,684.4-486.9,686.5-486.9z"/>
		<path id="Rettangolo_9810" class="st14" d="M702.9-486.9L702.9-486.9c2.2,0,3.9,1.7,3.9,3.9l0,0c0,2.2-1.7,3.9-3.9,3.9l0,0
			c-2.2,0-3.9-1.7-3.9-3.9l0,0C698.9-485.1,700.7-486.9,702.9-486.9z"/>
		<path id="Rettangolo_9811" class="st15" d="M719.2-486.8L719.2-486.8c2.2,0,3.9,1.7,3.9,3.9l0,0c0,2.2-1.7,3.9-3.9,3.9l0,0
			c-2.2,0-3.9-1.7-3.9-3.9l0,0C715.2-485,717-486.8,719.2-486.8z"/>
		<path id="Rettangolo_9812" class="st16" d="M735.5-486.7L735.5-486.7c2.2,0,3.9,1.7,3.9,3.9l0,0c0,2.2-1.7,3.9-3.9,3.9l0,0
			c-2.2,0-3.9-1.7-3.9-3.9l0,0C731.5-485,733.3-486.7,735.5-486.7z"/>
	</g>
	<path id="Rettangolo_9813" class="st8" d="M743.6-499.7L743.6-499.7c2.2,0,3.9,1.7,3.9,3.9l0,0c0,2.2-1.7,3.9-3.9,3.9l0,0
		c-2.2,0-3.9-1.7-3.9-3.9l0,0C739.7-498,741.4-499.7,743.6-499.7z"/>
</g>
<text transform="matrix(1 0 0 1 0 11)" class="st0 st1">Percentuale </text>
<text transform="matrix(1 0 0 1 0 24)" class="st0 st1">d’utilizzo delle </text>
<text transform="matrix(1 0 0 1 0 37)" class="st0 st1">categorie nel testo </text>
<text transform="matrix(1 0 0 1 0 50)" class="st0 st1">dubitativo di </text>
<text transform="matrix(1 0 0 1 0 63)" class="st0 st1">un’opera</text>
<g id="Raggruppa_7794" transform="translate(-510.65 678.371) rotate(-16)" class="st17">
	<path id="Tracciato_109125" class="st18" d="M857.5-417.7c-5.5,1.7-11.1,2.5-16.8,2.5c-15.7,0-29.3-6-36.4-15"/>
	<g id="Raggruppa_1315" transform="translate(604.614 87.959)">
		<path id="Tracciato_109126" d="M249.8-508l-0.3,0.6l3,1.6l-1.8,2.9l0.6,0.4l2.2-3.5L249.8-508z"/>
	</g>
</g>
</svg>
