<svg xmlns="http://www.w3.org/2000/svg" xmlns:xlink="http://www.w3.org/1999/xlink" width="127" height="240" viewBox="0 0 127 240"><defs><clipPath id="b"><rect width="127" height="240"/></clipPath></defs><g id="a" clip-path="url(#b)"><path d="M.932,0H4.285V-.637H1.63V-6.209h-.7ZM5.256-5.366H6v-.844H5.256ZM5.3,0h.65V-4.39H5.3ZM7.44,0H8.1V-2.29c0-.8.391-1.635,1.121-1.635.751,0,.923.7.923,1.305V0h.668V-2.435c0-.721.391-1.49,1.112-1.49.76,0,.94.725.94,1.323V0h.664V-2.667c0-.976-.439-1.815-1.525-1.815a1.456,1.456,0,0,0-1.367.918A1.318,1.318,0,0,0,9.3-4.482a1.313,1.313,0,0,0-1.2.773V-4.39H7.44Zm7.427-5.366h.747v-.844h-.747ZM14.915,0h.65V-4.39h-.65Zm2.136,0h.655V-2.281c0-1.09.549-1.63,1.239-1.63.773,0,1,.7,1,1.31V0h.65V-2.667c0-.967-.426-1.8-1.472-1.8a1.576,1.576,0,0,0-1.415.844V-4.39h-.655Zm5.941.088a1.639,1.639,0,0,0,1.542-.936L24.548,0h.558V-2.694a1.617,1.617,0,0,0-1.718-1.789,1.948,1.948,0,0,0-1.657.861l.479.374a1.445,1.445,0,0,1,1.217-.664c.8,0,1.077.576,1.077,1.4h-1c-1.248,0-1.934.409-1.934,1.288A1.287,1.287,0,0,0,22.992.088Zm.075-.554c-.457,0-.822-.215-.822-.738,0-.584.448-.809,1.318-.809h.94A1.515,1.515,0,0,1,23.067-.466Zm4.271-.018c-.2,0-.215-.237-.215-.25V-6.209h-.664V-.888c0,.527.048.976.712.976A2.143,2.143,0,0,0,27.765,0V-.527A2.6,2.6,0,0,1,27.338-.483Zm5.427.545a2.153,2.153,0,0,0,1.679-.686L34-.984a1.534,1.534,0,0,1-1.235.47,1.3,1.3,0,0,1-1.283-1.459h3.059c.009-.079.022-.224.022-.338,0-1.011-.439-2.14-1.863-2.14a2.024,2.024,0,0,0-1.907,2.281A1.99,1.99,0,0,0,32.766.062ZM31.478-2.509c.035-.747.413-1.4,1.217-1.4.9,0,1.217.7,1.235,1.4ZM36.659,0h.58l1.635-4.39h-.7L36.949-.853,35.736-4.39H35.02Zm4.614.062a2.153,2.153,0,0,0,1.679-.686L42.5-.984a1.534,1.534,0,0,1-1.235.47,1.3,1.3,0,0,1-1.283-1.459h3.059c.009-.079.022-.224.022-.338,0-1.011-.439-2.14-1.863-2.14A2.024,2.024,0,0,0,39.3-2.171,1.99,1.99,0,0,0,41.273.062ZM39.986-2.509c.035-.747.413-1.4,1.217-1.4.9,0,1.217.7,1.235,1.4ZM44.2,0h.655V-2.281c0-1.09.549-1.63,1.239-1.63.773,0,1,.7,1,1.31V0h.65V-2.667c0-.967-.426-1.8-1.472-1.8a1.576,1.576,0,0,0-1.415.844V-4.39H44.2Zm6.139.088A1.77,1.77,0,0,0,50.924,0V-.562a1.047,1.047,0,0,1-.439.11c-.321,0-.558-.224-.558-.708V-3.854h1.112V-4.39H49.926v-1.6l-.65.615v.989h-.708v.536h.7v2.689C49.271-.413,49.557.088,50.335.088Zm3.015,0a1.369,1.369,0,0,0,1.507-1.34c0-1.613-2.369-1.081-2.369-2.092,0-.36.294-.606.769-.606a1.035,1.035,0,0,1,.98.62l.483-.277a1.56,1.56,0,0,0-1.441-.875,1.253,1.253,0,0,0-1.393,1.217c0,1.49,2.333.91,2.333,2.092,0,.475-.365.725-.861.725a1.114,1.114,0,0,1-1.094-.835L51.71-1A1.7,1.7,0,0,0,53.35.088Z" transform="translate(30 35)"/><path d="M5.294,0h9.412A5.153,5.153,0,0,1,20,5a5.153,5.153,0,0,1-5.294,5H5.294A5.153,5.153,0,0,1,0,5,5.153,5.153,0,0,1,5.294,0Z" transform="translate(0 27)" fill="#8131f4"/><path d="M.932,0h.7V-6.209h-.7ZM3.3,0h.655V-2.281c0-1.09.549-1.63,1.239-1.63.773,0,1,.7,1,1.31V0h.65V-2.667c0-.967-.426-1.8-1.472-1.8a1.576,1.576,0,0,0-1.415.844V-4.39H3.3ZM9.435.088A1.77,1.77,0,0,0,10.024,0V-.562a1.047,1.047,0,0,1-.439.11c-.321,0-.558-.224-.558-.708V-3.854h1.112V-4.39H9.026v-1.6l-.65.615v.989H7.668v.536h.7v2.689C8.372-.413,8.657.088,9.435.088Zm3.34-.026a2.153,2.153,0,0,0,1.679-.686l-.448-.36a1.534,1.534,0,0,1-1.235.47,1.3,1.3,0,0,1-1.283-1.459h3.059c.009-.079.022-.224.022-.338,0-1.011-.439-2.14-1.863-2.14A2.024,2.024,0,0,0,10.8-2.171,1.99,1.99,0,0,0,12.775.062ZM11.487-2.509c.035-.747.413-1.4,1.217-1.4.9,0,1.217.7,1.235,1.4ZM15.7,0h.646V-2.193c0-1.059.453-1.661,1.2-1.661a.8.8,0,0,1,.536.167l.277-.567a1.141,1.141,0,0,0-.708-.229,1.414,1.414,0,0,0-1.3.87V-4.39H15.7Zm4.526.088a1.639,1.639,0,0,0,1.542-.936L21.779,0h.558V-2.694a1.617,1.617,0,0,0-1.718-1.789,1.948,1.948,0,0,0-1.657.861l.479.374a1.445,1.445,0,0,1,1.217-.664c.8,0,1.077.576,1.077,1.4h-1c-1.248,0-1.934.409-1.934,1.288A1.287,1.287,0,0,0,20.224.088ZM20.3-.466c-.457,0-.822-.215-.822-.738,0-.584.448-.809,1.318-.809h.94A1.515,1.515,0,0,1,20.3-.466Zm4.979.554A1.675,1.675,0,0,0,26.93-1.077l-.571-.246a1.1,1.1,0,0,1-1.09.857c-.918,0-1.226-.918-1.226-1.723s.316-1.74,1.226-1.74a1.111,1.111,0,0,1,1.09.879l.62-.264a1.8,1.8,0,0,0-1.709-1.169c-1.266,0-1.9,1.116-1.9,2.294A2.019,2.019,0,0,0,25.277.088Zm3.929,0A1.77,1.77,0,0,0,29.795,0V-.562a1.047,1.047,0,0,1-.439.11c-.321,0-.558-.224-.558-.708V-3.854h1.112V-4.39H28.8v-1.6l-.65.615v.989h-.708v.536h.7v2.689C28.143-.413,28.428.088,29.206.088Zm1.705-5.454h.747v-.844h-.747ZM30.959,0h.65V-4.39h-.65ZM34.8.088A2.158,2.158,0,0,0,36.9-2.206,2.145,2.145,0,0,0,34.8-4.482a2.125,2.125,0,0,0-2.07,2.276A2.138,2.138,0,0,0,34.8.088Zm0-.545c-.967,0-1.415-.861-1.415-1.749s.448-1.731,1.424-1.731,1.415.853,1.415,1.731S35.793-.457,34.809-.457Zm3.2.457h.655V-2.281c0-1.09.549-1.63,1.239-1.63.773,0,1,.7,1,1.31V0h.65V-2.667c0-.967-.426-1.8-1.472-1.8a1.576,1.576,0,0,0-1.415.844V-4.39h-.655Zm6.135.088a1.369,1.369,0,0,0,1.507-1.34c0-1.613-2.369-1.081-2.369-2.092,0-.36.294-.606.769-.606a1.035,1.035,0,0,1,.98.62l.483-.277a1.56,1.56,0,0,0-1.441-.875,1.253,1.253,0,0,0-1.393,1.217c0,1.49,2.333.91,2.333,2.092,0,.475-.365.725-.861.725a1.114,1.114,0,0,1-1.094-.835L42.508-1A1.7,1.7,0,0,0,44.147.088Z" transform="translate(29.483 54)"/><rect width="20" height="10" rx="5" transform="translate(0 46)" fill="blue"/><path d="M5.294,0h9.412A5.153,5.153,0,0,1,20,5a5.153,5.153,0,0,1-5.294,5H5.294A5.153,5.153,0,0,1,0,5,5.153,5.153,0,0,1,5.294,0Z" transform="translate(0 65)" fill="#5151fc"/><path d="M.932,0h.694V-5.607L3.489-.541h.765L6.122-5.607V0h.69V-6.209H5.678L3.858-1.222,2.065-6.209H.932Zm9.25.088a2.158,2.158,0,0,0,2.092-2.294,2.145,2.145,0,0,0-2.092-2.276,2.125,2.125,0,0,0-2.07,2.276A2.138,2.138,0,0,0,10.182.088Zm0-.545c-.967,0-1.415-.861-1.415-1.749S9.22-3.937,10.2-3.937s1.415.853,1.415,1.731S11.171-.457,10.187-.457ZM14.313,0h.58l1.635-4.39h-.7L14.6-.853,13.39-4.39h-.716Zm4.614.062a2.153,2.153,0,0,0,1.679-.686l-.448-.36a1.534,1.534,0,0,1-1.235.47A1.3,1.3,0,0,1,17.64-1.973H20.7c.009-.079.022-.224.022-.338,0-1.011-.439-2.14-1.863-2.14A2.024,2.024,0,0,0,16.95-2.171,1.99,1.99,0,0,0,18.927.062ZM17.64-2.509c.035-.747.413-1.4,1.217-1.4.9,0,1.217.7,1.235,1.4ZM21.85,0h.664V-2.29c0-.8.391-1.635,1.121-1.635.751,0,.923.7.923,1.305V0h.668V-2.435c0-.721.391-1.49,1.112-1.49.76,0,.94.725.94,1.323V0h.664V-2.667c0-.976-.439-1.815-1.525-1.815a1.456,1.456,0,0,0-1.367.918,1.318,1.318,0,0,0-1.34-.918,1.313,1.313,0,0,0-1.2.773V-4.39H21.85Zm9.105.062a2.153,2.153,0,0,0,1.679-.686l-.448-.36a1.534,1.534,0,0,1-1.235.47,1.3,1.3,0,0,1-1.283-1.459h3.059c.009-.079.022-.224.022-.338,0-1.011-.439-2.14-1.863-2.14a2.024,2.024,0,0,0-1.907,2.281A1.99,1.99,0,0,0,30.955.062ZM29.667-2.509c.035-.747.413-1.4,1.217-1.4.9,0,1.217.7,1.235,1.4ZM33.877,0h.655V-2.281c0-1.09.549-1.63,1.239-1.63.773,0,1,.7,1,1.31V0h.65V-2.667c0-.967-.426-1.8-1.472-1.8a1.576,1.576,0,0,0-1.415.844V-4.39h-.655Zm6.139.088A1.77,1.77,0,0,0,40.605,0V-.562a1.047,1.047,0,0,1-.439.11c-.321,0-.558-.224-.558-.708V-3.854H40.72V-4.39H39.608v-1.6l-.65.615v.989H38.25v.536h.7v2.689C38.953-.413,39.239.088,40.017.088Z" transform="translate(29.483 73)"/><path d="M5.294,0h9.412A5.153,5.153,0,0,1,20,5a5.153,5.153,0,0,1-5.294,5H5.294A5.153,5.153,0,0,1,0,5,5.153,5.153,0,0,1,5.294,0Z" transform="translate(0 104)" fill="aqua"/><path d="M2.509.07A1.783,1.783,0,0,0,4.447-1.714c0-2-2.993-1.683-2.993-3.076a.935.935,0,0,1,1-.91,1.309,1.309,0,0,1,1.208.716l.523-.352A1.891,1.891,0,0,0,2.461-6.3,1.582,1.582,0,0,0,.778-4.729c0,1.89,2.993,1.463,2.993,3.067,0,.751-.514,1.112-1.257,1.112a1.383,1.383,0,0,1-1.5-1.235l-.65.193A2.025,2.025,0,0,0,2.509.07ZM5.542-5.366h.747v-.844H5.542ZM5.59,0h.65V-4.39H5.59ZM8.947.088A1.77,1.77,0,0,0,9.536,0V-.562a1.047,1.047,0,0,1-.439.11c-.321,0-.558-.224-.558-.708V-3.854H9.65V-4.39H8.539v-1.6l-.65.615v.989H7.181v.536h.7v2.689C7.884-.413,8.169.088,8.947.088ZM12.089.1a1.562,1.562,0,0,0,1.38-.839V0h.65V-4.39h-.65v2.43a1.41,1.41,0,0,1-1.31,1.5c-.751,0-.923-.708-.923-1.34V-4.39h-.655v2.549C10.582-.747,11.008.1,12.089.1ZM16.625.088a1.639,1.639,0,0,0,1.542-.936L18.18,0h.558V-2.694A1.617,1.617,0,0,0,17.02-4.482a1.948,1.948,0,0,0-1.657.861l.479.374a1.445,1.445,0,0,1,1.217-.664c.8,0,1.077.576,1.077,1.4h-1c-1.248,0-1.934.409-1.934,1.288A1.287,1.287,0,0,0,16.625.088ZM16.7-.466c-.457,0-.822-.215-.822-.738,0-.584.448-.809,1.318-.809h.94A1.515,1.515,0,0,1,16.7-.466Zm4.619.554A1.77,1.77,0,0,0,21.907,0V-.562a1.047,1.047,0,0,1-.439.11c-.321,0-.558-.224-.558-.708V-3.854h1.112V-4.39H20.909v-1.6l-.65.615v.989h-.708v.536h.7v2.689C20.254-.413,20.54.088,21.318.088Zm1.705-5.454h.747v-.844h-.747ZM23.071,0h.65V-4.39h-.65Zm3.845.088a2.158,2.158,0,0,0,2.092-2.294,2.145,2.145,0,0,0-2.092-2.276,2.125,2.125,0,0,0-2.07,2.276A2.138,2.138,0,0,0,26.917.088Zm0-.545c-.967,0-1.415-.861-1.415-1.749s.448-1.731,1.424-1.731,1.415.853,1.415,1.731S27.905-.457,26.921-.457Zm3.2.457h.655V-2.281c0-1.09.549-1.63,1.239-1.63.773,0,1,.7,1,1.31V0h.65V-2.667c0-.967-.426-1.8-1.472-1.8a1.576,1.576,0,0,0-1.415.844V-4.39h-.655Z" transform="translate(28.483 112)"/><path d="M5.294,0h9.412A5.153,5.153,0,0,1,20,5a5.153,5.153,0,0,1-5.294,5H5.294A5.153,5.153,0,0,1,0,5,5.153,5.153,0,0,1,5.294,0Z" transform="translate(0 123)" fill="#009959"/><path d="M.932,0H4.953V-.637H1.63v-2.18H4.518V-3.4H1.63V-5.607H4.953v-.6H.932ZM7.453.1a1.562,1.562,0,0,0,1.38-.839V0h.65V-4.39h-.65v2.43a1.41,1.41,0,0,1-1.31,1.5c-.751,0-.923-.708-.923-1.34V-4.39H5.946v2.549C5.946-.747,6.372.1,7.453.1Zm3.52,1.828h.659V-.6a1.575,1.575,0,0,0,1.345.686c1.178,0,1.789-1.042,1.789-2.285s-.615-2.285-1.793-2.285a1.569,1.569,0,0,0-1.34.69v-.6h-.659ZM12.836-.466c-.892,0-1.266-.835-1.266-1.731s.374-1.731,1.266-1.731,1.27.844,1.27,1.731S13.715-.466,12.836-.466Zm3.1.466h.65V-2.369a1.383,1.383,0,0,1,1.31-1.485c.756,0,.932.655.932,1.252V0h.664V-2.707c0-.936-.426-1.762-1.477-1.762a1.714,1.714,0,0,0-1.428.8v-2.54h-.65Zm6.64.088a2.158,2.158,0,0,0,2.092-2.294,2.145,2.145,0,0,0-2.092-2.276A2.125,2.125,0,0,0,20.5-2.206,2.138,2.138,0,0,0,22.575.088Zm0-.545c-.967,0-1.415-.861-1.415-1.749s.448-1.731,1.424-1.731S24-3.085,24-2.206,23.563-.457,22.579-.457Zm3.2.457h.646V-2.193c0-1.059.453-1.661,1.2-1.661a.8.8,0,0,1,.536.167l.277-.567a1.141,1.141,0,0,0-.708-.229,1.414,1.414,0,0,0-1.3.87V-4.39h-.655Zm3.463-5.366h.747v-.844h-.747ZM29.294,0h.65V-4.39h-.65ZM33,.088a1.675,1.675,0,0,0,1.652-1.165l-.571-.246a1.1,1.1,0,0,1-1.09.857c-.918,0-1.226-.918-1.226-1.723s.316-1.74,1.226-1.74a1.111,1.111,0,0,1,1.09.879l.62-.264a1.8,1.8,0,0,0-1.709-1.169c-1.266,0-1.9,1.116-1.9,2.294A2.019,2.019,0,0,0,33,.088Zm6.3,0a1.369,1.369,0,0,0,1.507-1.34c0-1.613-2.369-1.081-2.369-2.092,0-.36.294-.606.769-.606a1.035,1.035,0,0,1,.98.62l.483-.277a1.56,1.56,0,0,0-1.441-.875,1.253,1.253,0,0,0-1.393,1.217c0,1.49,2.333.91,2.333,2.092,0,.475-.365.725-.861.725a1.114,1.114,0,0,1-1.094-.835L37.666-1A1.7,1.7,0,0,0,39.3.088Zm3.819,0A1.77,1.77,0,0,0,43.712,0V-.562a1.047,1.047,0,0,1-.439.11c-.321,0-.558-.224-.558-.708V-3.854h1.112V-4.39H42.715v-1.6l-.65.615v.989h-.708v.536h.7v2.689C42.06-.413,42.346.088,43.124.088Zm2.769,0a1.639,1.639,0,0,0,1.542-.936L47.448,0h.558V-2.694a1.617,1.617,0,0,0-1.718-1.789,1.948,1.948,0,0,0-1.657.861l.479.374a1.445,1.445,0,0,1,1.217-.664c.8,0,1.077.576,1.077,1.4h-1c-1.248,0-1.934.409-1.934,1.288A1.287,1.287,0,0,0,45.892.088Zm.075-.554c-.457,0-.822-.215-.822-.738,0-.584.448-.809,1.318-.809h.94A1.515,1.515,0,0,1,45.967-.466Zm4.619.554A1.77,1.77,0,0,0,51.174,0V-.562a1.047,1.047,0,0,1-.439.11c-.321,0-.558-.224-.558-.708V-3.854h1.112V-4.39H50.177v-1.6l-.65.615v.989h-.708v.536h.7v2.689C49.522-.413,49.808.088,50.585.088Zm3.34-.026A2.153,2.153,0,0,0,55.6-.624l-.448-.36a1.534,1.534,0,0,1-1.235.47,1.3,1.3,0,0,1-1.283-1.459H55.7c.009-.079.022-.224.022-.338,0-1.011-.439-2.14-1.863-2.14a2.024,2.024,0,0,0-1.907,2.281A1.99,1.99,0,0,0,53.925.062ZM52.638-2.509c.035-.747.413-1.4,1.217-1.4.9,0,1.217.7,1.235,1.4Z" transform="translate(29.483 131)"/><path d="M5.294,0h9.412A5.153,5.153,0,0,1,20,5a5.153,5.153,0,0,1-5.294,5H5.294A5.153,5.153,0,0,1,0,5,5.153,5.153,0,0,1,5.294,0Z" transform="translate(0 142)" fill="#00c19c"/><path d="M.932,0H2.5A2.814,2.814,0,0,0,5.647-3.059,2.833,2.833,0,0,0,2.514-6.209H.932Zm.7-.637V-5.585H2.5A2.2,2.2,0,0,1,4.948-3.107,2.3,2.3,0,0,1,2.4-.637ZM7.269,1.89h.69L10.31-4.39H9.593L8.345-.8,7.058-4.39H6.333L8.02-.022ZM12.34.088a1.369,1.369,0,0,0,1.507-1.34c0-1.613-2.369-1.081-2.369-2.092,0-.36.294-.606.769-.606a1.035,1.035,0,0,1,.98.62l.483-.277a1.56,1.56,0,0,0-1.441-.875,1.253,1.253,0,0,0-1.393,1.217c0,1.49,2.333.91,2.333,2.092,0,.475-.365.725-.861.725a1.114,1.114,0,0,1-1.094-.835L10.7-1A1.7,1.7,0,0,0,12.34.088Zm2.606,1.837H15.6V-.6A1.575,1.575,0,0,0,16.95.088c1.178,0,1.789-1.042,1.789-2.285s-.615-2.285-1.793-2.285a1.569,1.569,0,0,0-1.34.69v-.6h-.659ZM16.809-.466c-.892,0-1.266-.835-1.266-1.731s.374-1.731,1.266-1.731,1.27.844,1.27,1.731S17.688-.466,16.809-.466Zm3.1.466h.65V-2.369a1.383,1.383,0,0,1,1.31-1.485c.756,0,.932.655.932,1.252V0h.664V-2.707c0-.936-.426-1.762-1.477-1.762a1.714,1.714,0,0,0-1.428.8v-2.54h-.65Zm6.64.088a2.158,2.158,0,0,0,2.092-2.294,2.145,2.145,0,0,0-2.092-2.276,2.125,2.125,0,0,0-2.07,2.276A2.138,2.138,0,0,0,26.547.088Zm0-.545c-.967,0-1.415-.861-1.415-1.749s.448-1.731,1.424-1.731,1.415.853,1.415,1.731S27.536-.457,26.552-.457Zm3.2.457H30.4V-2.193c0-1.059.453-1.661,1.2-1.661a.8.8,0,0,1,.536.167l.277-.567a1.141,1.141,0,0,0-.708-.229,1.414,1.414,0,0,0-1.3.87V-4.39h-.655Zm3.463-5.366h.747v-.844h-.747ZM33.267,0h.65V-4.39h-.65Zm3.709.088a1.675,1.675,0,0,0,1.652-1.165l-.571-.246a1.1,1.1,0,0,1-1.09.857c-.918,0-1.226-.918-1.226-1.723s.316-1.74,1.226-1.74a1.111,1.111,0,0,1,1.09.879l.62-.264a1.8,1.8,0,0,0-1.709-1.169c-1.266,0-1.9,1.116-1.9,2.294A2.019,2.019,0,0,0,36.976.088Zm6.3,0a1.369,1.369,0,0,0,1.507-1.34c0-1.613-2.369-1.081-2.369-2.092,0-.36.294-.606.769-.606a1.035,1.035,0,0,1,.98.62l.483-.277a1.56,1.56,0,0,0-1.441-.875,1.253,1.253,0,0,0-1.393,1.217c0,1.49,2.333.91,2.333,2.092,0,.475-.365.725-.861.725a1.114,1.114,0,0,1-1.094-.835L41.638-1A1.7,1.7,0,0,0,43.277.088Zm3.819,0A1.77,1.77,0,0,0,47.685,0V-.562a1.047,1.047,0,0,1-.439.11c-.321,0-.558-.224-.558-.708V-3.854H47.8V-4.39H46.688v-1.6l-.65.615v.989H45.33v.536h.7v2.689C46.033-.413,46.318.088,47.1.088Zm2.769,0a1.639,1.639,0,0,0,1.542-.936L51.42,0h.558V-2.694A1.617,1.617,0,0,0,50.26-4.482a1.948,1.948,0,0,0-1.657.861l.479.374A1.445,1.445,0,0,1,50.3-3.911c.8,0,1.077.576,1.077,1.4h-1c-1.248,0-1.934.409-1.934,1.288A1.287,1.287,0,0,0,49.865.088Zm.075-.554c-.457,0-.822-.215-.822-.738,0-.584.448-.809,1.318-.809h.94A1.515,1.515,0,0,1,49.939-.466Zm4.619.554A1.77,1.77,0,0,0,55.147,0V-.562a1.047,1.047,0,0,1-.439.11c-.321,0-.558-.224-.558-.708V-3.854h1.112V-4.39H54.149v-1.6l-.65.615v.989h-.708v.536h.7v2.689C53.495-.413,53.78.088,54.558.088ZM57.9.062a2.153,2.153,0,0,0,1.679-.686l-.448-.36a1.534,1.534,0,0,1-1.235.47A1.3,1.3,0,0,1,56.61-1.973h3.059c.009-.079.022-.224.022-.338,0-1.011-.439-2.14-1.863-2.14A2.024,2.024,0,0,0,55.92-2.171,1.99,1.99,0,0,0,57.9.062ZM56.61-2.509c.035-.747.413-1.4,1.217-1.4.9,0,1.217.7,1.235,1.4Z" transform="translate(29.483 150)"/><path d="M5.294,0h9.412A5.153,5.153,0,0,1,20,5a5.153,5.153,0,0,1-5.294,5H5.294A5.153,5.153,0,0,1,0,5,5.153,5.153,0,0,1,5.294,0Z" transform="translate(0 162)" fill="#8ae297"/><path d="M.932.009h.7V-2.777H2.65L4.2.009h.817L3.335-2.87A1.587,1.587,0,0,0,4.658-4.478,1.763,1.763,0,0,0,2.707-6.2H.932Zm.708-3.428V-5.585H2.716A1.11,1.11,0,0,1,3.973-4.478c0,.668-.488,1.024-1.151,1.059ZM7.567.062A2.153,2.153,0,0,0,9.246-.624L8.8-.984a1.534,1.534,0,0,1-1.235.47A1.3,1.3,0,0,1,6.28-1.973H9.338c.009-.079.022-.224.022-.338,0-1.011-.439-2.14-1.863-2.14A2.024,2.024,0,0,0,5.59-2.171,1.99,1.99,0,0,0,7.567.062ZM6.28-2.509c.035-.747.413-1.4,1.217-1.4.9,0,1.217.7,1.235,1.4Zm7.15,2.6a1.418,1.418,0,0,0,.5-.088V-.576a1.408,1.408,0,0,1-.3.048c-.189,0-.211-.079-.211-.277v-4.9A1.922,1.922,0,0,0,12.063-6.3c-.888,0-1.516.426-1.516,1.283v.628H9.892v.536h.646V0h.615V-3.854H12.1V-4.39h-.945v-.554c0-.593.29-.8.936-.8a.866.866,0,0,1,.721.281V-.888C12.81-.356,12.929.088,13.43.088ZM16.563.062a2.153,2.153,0,0,0,1.679-.686l-.448-.36a1.534,1.534,0,0,1-1.235.47,1.3,1.3,0,0,1-1.283-1.459h3.059c.009-.079.022-.224.022-.338,0-1.011-.439-2.14-1.863-2.14a2.024,2.024,0,0,0-1.907,2.281A1.99,1.99,0,0,0,16.563.062ZM15.275-2.509c.035-.747.413-1.4,1.217-1.4.9,0,1.217.7,1.235,1.4Zm5.783,2.6a1.675,1.675,0,0,0,1.652-1.165l-.571-.246a1.1,1.1,0,0,1-1.09.857c-.918,0-1.226-.918-1.226-1.723s.316-1.74,1.226-1.74a1.111,1.111,0,0,1,1.09.879l.62-.264A1.8,1.8,0,0,0,21.05-4.482c-1.266,0-1.9,1.116-1.9,2.294A2.019,2.019,0,0,0,21.059.088Zm3.929,0A1.77,1.77,0,0,0,25.576,0V-.562a1.047,1.047,0,0,1-.439.11c-.321,0-.558-.224-.558-.708V-3.854H25.69V-4.39H24.579v-1.6l-.65.615v.989h-.708v.536h.7v2.689C23.924-.413,24.209.088,24.987.088Zm1.705-5.454h.747v-.844h-.747ZM26.741,0h.65V-4.39h-.65Zm3.195,0h.58L32.15-4.39h-.7L30.226-.853,29.013-4.39H28.3ZM34.55.062a2.153,2.153,0,0,0,1.679-.686l-.448-.36a1.534,1.534,0,0,1-1.235.47,1.3,1.3,0,0,1-1.283-1.459h3.059c.009-.079.022-.224.022-.338,0-1.011-.439-2.14-1.863-2.14a2.024,2.024,0,0,0-1.907,2.281A1.99,1.99,0,0,0,34.55.062ZM33.262-2.509c.035-.747.413-1.4,1.217-1.4.9,0,1.217.7,1.235,1.4Zm7.8,2.6a1.369,1.369,0,0,0,1.507-1.34c0-1.613-2.369-1.081-2.369-2.092,0-.36.294-.606.769-.606a1.035,1.035,0,0,1,.98.62l.483-.277A1.56,1.56,0,0,0,41-4.482,1.253,1.253,0,0,0,39.6-3.265c0,1.49,2.333.91,2.333,2.092,0,.475-.365.725-.861.725a1.114,1.114,0,0,1-1.094-.835L39.428-1A1.7,1.7,0,0,0,41.067.088Zm3.819,0A1.77,1.77,0,0,0,45.475,0V-.562a1.047,1.047,0,0,1-.439.11c-.321,0-.558-.224-.558-.708V-3.854h1.112V-4.39H44.477v-1.6l-.65.615v.989h-.708v.536h.7v2.689C43.822-.413,44.108.088,44.886.088Zm2.769,0A1.639,1.639,0,0,0,49.2-.848L49.21,0h.558V-2.694A1.617,1.617,0,0,0,48.05-4.482a1.948,1.948,0,0,0-1.657.861l.479.374a1.445,1.445,0,0,1,1.217-.664c.8,0,1.077.576,1.077,1.4h-1c-1.248,0-1.934.409-1.934,1.288A1.287,1.287,0,0,0,47.654.088Zm.075-.554c-.457,0-.822-.215-.822-.738,0-.584.448-.809,1.318-.809h.94A1.515,1.515,0,0,1,47.729-.466Zm4.619.554A1.77,1.77,0,0,0,52.937,0V-.562a1.047,1.047,0,0,1-.439.11c-.321,0-.558-.224-.558-.708V-3.854h1.112V-4.39H51.939v-1.6l-.65.615v.989h-.708v.536h.7v2.689C51.284-.413,51.57.088,52.348.088Zm3.34-.026a2.153,2.153,0,0,0,1.679-.686l-.448-.36a1.534,1.534,0,0,1-1.235.47A1.3,1.3,0,0,1,54.4-1.973h3.059c.009-.079.022-.224.022-.338,0-1.011-.439-2.14-1.863-2.14A2.024,2.024,0,0,0,53.71-2.171,1.99,1.99,0,0,0,55.688.062ZM54.4-2.509c.035-.747.413-1.4,1.217-1.4.9,0,1.217.7,1.235,1.4Z" transform="translate(28.483 170)"/><path d="M5.294,0h9.412A5.153,5.153,0,0,1,20,5a5.153,5.153,0,0,1-5.294,5H5.294A5.153,5.153,0,0,1,0,5,5.153,5.153,0,0,1,5.294,0Z" transform="translate(0 181)" fill="#00ffb6"/><path d="M2.509.07A1.783,1.783,0,0,0,4.447-1.714c0-2-2.993-1.683-2.993-3.076a.935.935,0,0,1,1-.91,1.309,1.309,0,0,1,1.208.716l.523-.352A1.891,1.891,0,0,0,2.461-6.3,1.582,1.582,0,0,0,.778-4.729c0,1.89,2.993,1.463,2.993,3.067,0,.751-.514,1.112-1.257,1.112a1.383,1.383,0,0,1-1.5-1.235l-.65.193A2.025,2.025,0,0,0,2.509.07ZM6.807.1a1.562,1.562,0,0,0,1.38-.839V0h.65V-4.39h-.65v2.43a1.41,1.41,0,0,1-1.31,1.5c-.751,0-.923-.708-.923-1.34V-4.39H5.3v2.549C5.3-.747,5.726.1,6.807.1ZM11.536.088a1.369,1.369,0,0,0,1.507-1.34c0-1.613-2.369-1.081-2.369-2.092,0-.36.294-.606.769-.606a1.035,1.035,0,0,1,.98.62l.483-.277a1.56,1.56,0,0,0-1.441-.875,1.253,1.253,0,0,0-1.393,1.217c0,1.49,2.333.91,2.333,2.092,0,.475-.365.725-.861.725a1.114,1.114,0,0,1-1.094-.835L9.9-1A1.7,1.7,0,0,0,11.536.088Zm2.606,1.837H14.8V-.6a1.575,1.575,0,0,0,1.345.686c1.178,0,1.789-1.042,1.789-2.285s-.615-2.285-1.793-2.285a1.569,1.569,0,0,0-1.34.69v-.6h-.659ZM16-.466c-.892,0-1.266-.835-1.266-1.731S15.113-3.929,16-3.929s1.27.844,1.27,1.731S16.884-.466,16-.466Zm4.729.527a2.153,2.153,0,0,0,1.679-.686l-.448-.36a1.534,1.534,0,0,1-1.235.47,1.3,1.3,0,0,1-1.283-1.459H22.5c.009-.079.022-.224.022-.338,0-1.011-.439-2.14-1.863-2.14a2.024,2.024,0,0,0-1.907,2.281A1.99,1.99,0,0,0,20.733.062ZM19.446-2.509c.035-.747.413-1.4,1.217-1.4.9,0,1.217.7,1.235,1.4ZM23.656,0h.655V-2.281c0-1.09.549-1.63,1.239-1.63.773,0,1,.7,1,1.31V0h.65V-2.667c0-.967-.426-1.8-1.472-1.8a1.576,1.576,0,0,0-1.415.844V-4.39h-.655ZM31.39-6.209v2.417a1.572,1.572,0,0,0-1.375-.69c-1.121,0-1.758,1.028-1.758,2.285S28.894.088,30.019.088a1.561,1.561,0,0,0,1.375-.7L31.408,0h.637V-6.209Zm-1.2,5.744c-.879,0-1.257-.835-1.257-1.731s.378-1.731,1.257-1.731c.9,0,1.257.844,1.257,1.731S31.083-.466,30.186-.466Zm4.988.527a2.153,2.153,0,0,0,1.679-.686L36.4-.984a1.534,1.534,0,0,1-1.235.47,1.3,1.3,0,0,1-1.283-1.459h3.059c.009-.079.022-.224.022-.338,0-1.011-.439-2.14-1.863-2.14A2.024,2.024,0,0,0,33.2-2.171,1.99,1.99,0,0,0,35.174.062ZM33.886-2.509c.035-.747.413-1.4,1.217-1.4.9,0,1.217.7,1.235,1.4Zm7.027-3.7v2.417a1.572,1.572,0,0,0-1.375-.69c-1.121,0-1.758,1.028-1.758,2.285S38.417.088,39.542.088a1.561,1.561,0,0,0,1.375-.7L40.931,0h.637V-6.209Zm-1.2,5.744c-.879,0-1.257-.835-1.257-1.731s.378-1.731,1.257-1.731c.9,0,1.257.844,1.257,1.731S40.605-.466,39.709-.466Zm6.943.554a1.369,1.369,0,0,0,1.507-1.34c0-1.613-2.369-1.081-2.369-2.092,0-.36.294-.606.769-.606a1.035,1.035,0,0,1,.98.62l.483-.277a1.56,1.56,0,0,0-1.441-.875,1.253,1.253,0,0,0-1.393,1.217c0,1.49,2.333.91,2.333,2.092,0,.475-.365.725-.861.725a1.114,1.114,0,0,1-1.094-.835L45.013-1A1.7,1.7,0,0,0,46.652.088Zm3.819,0A1.77,1.77,0,0,0,51.06,0V-.562a1.047,1.047,0,0,1-.439.11c-.321,0-.558-.224-.558-.708V-3.854h1.112V-4.39H50.063v-1.6l-.65.615v.989H48.7v.536h.7v2.689C49.408-.413,49.693.088,50.471.088Zm2.769,0a1.639,1.639,0,0,0,1.542-.936L54.8,0h.558V-2.694a1.617,1.617,0,0,0-1.718-1.789,1.948,1.948,0,0,0-1.657.861l.479.374a1.445,1.445,0,0,1,1.217-.664c.8,0,1.077.576,1.077,1.4h-1c-1.248,0-1.934.409-1.934,1.288A1.287,1.287,0,0,0,53.24.088Zm.075-.554c-.457,0-.822-.215-.822-.738,0-.584.448-.809,1.318-.809h.94A1.515,1.515,0,0,1,53.314-.466Zm4.619.554A1.77,1.77,0,0,0,58.522,0V-.562a1.047,1.047,0,0,1-.439.11c-.321,0-.558-.224-.558-.708V-3.854h1.112V-4.39H57.524v-1.6l-.65.615v.989h-.708v.536h.7v2.689C56.87-.413,57.155.088,57.933.088Zm3.34-.026a2.153,2.153,0,0,0,1.679-.686L62.5-.984a1.534,1.534,0,0,1-1.235.47,1.3,1.3,0,0,1-1.283-1.459h3.059c.009-.079.022-.224.022-.338,0-1.011-.439-2.14-1.863-2.14A2.024,2.024,0,0,0,59.3-2.171,1.99,1.99,0,0,0,61.273.062ZM59.985-2.509c.035-.747.413-1.4,1.217-1.4.9,0,1.217.7,1.235,1.4Z" transform="translate(28.483 189)"/><path d="M.932,0h.7V-6.209h-.7ZM3.3,0h.655V-2.281c0-1.09.549-1.63,1.239-1.63.773,0,1,.7,1,1.31V0h.65V-2.667c0-.967-.426-1.8-1.472-1.8a1.576,1.576,0,0,0-1.415.844V-4.39H3.3ZM9.435.088A1.77,1.77,0,0,0,10.024,0V-.562a1.047,1.047,0,0,1-.439.11c-.321,0-.558-.224-.558-.708V-3.854h1.112V-4.39H9.026v-1.6l-.65.615v.989H7.668v.536h.7v2.689C8.372-.413,8.657.088,9.435.088Zm3.34-.026a2.153,2.153,0,0,0,1.679-.686l-.448-.36a1.534,1.534,0,0,1-1.235.47,1.3,1.3,0,0,1-1.283-1.459h3.059c.009-.079.022-.224.022-.338,0-1.011-.439-2.14-1.863-2.14A2.024,2.024,0,0,0,10.8-2.171,1.99,1.99,0,0,0,12.775.062ZM11.487-2.509c.035-.747.413-1.4,1.217-1.4.9,0,1.217.7,1.235,1.4ZM15.7,0h.655V-2.281c0-1.09.549-1.63,1.239-1.63.773,0,1,.7,1,1.31V0h.65V-2.667c0-.967-.426-1.8-1.472-1.8a1.576,1.576,0,0,0-1.415.844V-4.39H15.7Zm6.139.088A1.77,1.77,0,0,0,22.425,0V-.562a1.047,1.047,0,0,1-.439.11c-.321,0-.558-.224-.558-.708V-3.854H22.54V-4.39H21.428v-1.6l-.65.615v.989H20.07v.536h.7v2.689C20.773-.413,21.059.088,21.836.088Zm1.705-5.454h.747v-.844h-.747ZM23.59,0h.65V-4.39h-.65Zm3.845.088a2.158,2.158,0,0,0,2.092-2.294,2.145,2.145,0,0,0-2.092-2.276,2.125,2.125,0,0,0-2.07,2.276A2.138,2.138,0,0,0,27.435.088Zm0-.545c-.967,0-1.415-.861-1.415-1.749s.448-1.731,1.424-1.731,1.415.853,1.415,1.731S28.424-.457,27.439-.457Zm3.2.457H31.3V-2.281c0-1.09.549-1.63,1.239-1.63.773,0,1,.7,1,1.31V0h.65V-2.667c0-.967-.426-1.8-1.472-1.8a1.576,1.576,0,0,0-1.415.844V-4.39h-.655Z" transform="translate(29 93)"/><path d="M5.294,0h9.412A5.153,5.153,0,0,1,20,5a5.153,5.153,0,0,1-5.294,5H5.294A5.153,5.153,0,0,1,0,5,5.153,5.153,0,0,1,5.294,0Z" transform="translate(0 85)" fill="#6e94f4"/><path d="M2.368.078a2.327,2.327,0,0,0,2.471-2.2c0-1.88-2.6-1.558-2.6-2.959A1.383,1.383,0,0,1,3.687-6.343a1.116,1.116,0,0,1,1.133.767l.62-.317A1.722,1.722,0,0,0,3.706-7,2.134,2.134,0,0,0,1.475-4.98c0,1.807,2.6,1.445,2.6,2.979A1.482,1.482,0,0,1,2.412-.62a1.234,1.234,0,0,1-1.4-1.328L.254-1.8A1.9,1.9,0,0,0,2.368.078ZM7.461.059a2.925,2.925,0,0,0,2-.728l-.449-.449a2.12,2.12,0,0,1-1.528.532c-.913,0-1.206-.708-1-1.572h3.4c.02-.054.049-.151.049-.151.322-1.353.1-2.632-1.523-2.632A2.883,2.883,0,0,0,5.8-2.48C5.483-1.074,5.977.059,7.461.059ZM6.626-2.754A1.9,1.9,0,0,1,8.379-4.292c.913,0,1.2.586.986,1.538Zm6.655,4.893h.737L15.64-4.878h-.732l-.176.688a1.384,1.384,0,0,0-1.377-.791,2.836,2.836,0,0,0-2.48,2.471C10.547-1.084,11.011.1,12.29.1A2.176,2.176,0,0,0,13.94-.64ZM12.51-.542c-.947,0-1.143-.869-.913-1.826.229-1.025.894-1.963,1.9-1.963.967,0,1.133.869.913,1.821C14.185-1.475,13.54-.542,12.51-.542Zm5.234.654A2.239,2.239,0,0,0,19.438-.8l-.19.8h.718l1.118-4.878h-.723l-.62,2.71a2.149,2.149,0,0,1-1.9,1.65c-.8,0-.791-.742-.635-1.406l.674-2.954h-.728l-.659,2.856C16.235-.889,16.5.112,17.744.112ZM23.428.059a2.925,2.925,0,0,0,2-.728l-.449-.449a2.12,2.12,0,0,1-1.528.532c-.913,0-1.206-.708-1-1.572h3.4c.02-.054.049-.151.049-.151.322-1.353.1-2.632-1.523-2.632A2.883,2.883,0,0,0,21.768-2.48C21.45-1.074,21.943.059,23.428.059Zm-.835-2.812a1.9,1.9,0,0,1,1.753-1.538c.913,0,1.2.586.986,1.538ZM26.631,0h.728l.635-2.739a2.066,2.066,0,0,1,1.846-1.528c.815,0,.82.679.674,1.343L29.839,0h.732l.674-2.93c.249-1.084-.029-2.031-1.27-2.031a2.255,2.255,0,0,0-1.675.82l.181-.737h-.732Zm7.236.1a2.4,2.4,0,0,0,2.08-1.26L35.371-1.5a1.71,1.71,0,0,1-1.489.981c-.991,0-1.074-.981-.884-1.836.21-.918.835-1.978,1.88-1.978a.872.872,0,0,1,.952.913l.728-.229a1.58,1.58,0,0,0-1.646-1.309A2.9,2.9,0,0,0,32.285-2.5C31.978-1.143,32.432.1,33.867.1ZM38.643.059a2.925,2.925,0,0,0,2-.728L40.2-1.118a2.12,2.12,0,0,1-1.528.532c-.913,0-1.206-.708-1-1.572h3.4c.02-.054.049-.151.049-.151.322-1.353.1-2.632-1.523-2.632A2.883,2.883,0,0,0,36.982-2.48C36.665-1.074,37.158.059,38.643.059Zm-.835-2.812a1.9,1.9,0,0,1,1.753-1.538c.913,0,1.2.586.986,1.538ZM45.923.1A2.194,2.194,0,0,0,46.572.01l.093-.649a1.414,1.414,0,0,1-.552.137c-.327,0-.527-.215-.4-.752l.7-3.027h1.245l.137-.6h-1.25l.41-1.782-.889.684-.249,1.1h-.767l-.137.6h.767L45-1.328C44.81-.493,45.029.1,45.923.1Zm1.846,2h.786l4.224-6.978h-.811L49.648-.889l-.493-3.989h-.8l.752,4.854Zm4.39.039h.732L53.56-.7a1.39,1.39,0,0,0,1.382.8,2.822,2.822,0,0,0,2.476-2.466c.327-1.431-.122-2.612-1.426-2.612a2.167,2.167,0,0,0-1.641.732l.151-.63h-.723ZM54.775-.542c-.933,0-1.138-.869-.908-1.826.234-1.025.9-1.968,1.9-1.968.972,0,1.167.874.947,1.826C56.479-1.479,55.811-.542,54.775-.542Zm5.244.6a2.925,2.925,0,0,0,2-.728l-.449-.449a2.12,2.12,0,0,1-1.528.532c-.913,0-1.206-.708-1-1.572h3.4c.02-.054.049-.151.049-.151.322-1.353.1-2.632-1.523-2.632A2.883,2.883,0,0,0,58.359-2.48C58.042-1.074,58.535.059,60.02.059Zm-.835-2.812a1.9,1.9,0,0,1,1.753-1.538c.913,0,1.2.586.986,1.538Z" transform="translate(0 9)"/></g></svg>