<?xml version="1.0" encoding="utf-8"?>
<!-- Generator: Adobe Illustrator 25.1.0, SVG Export Plug-In . SVG Version: 6.00 Build 0)  -->
<svg version="1.1" id="Livello_1" xmlns="http://www.w3.org/2000/svg" xmlns:xlink="http://www.w3.org/1999/xlink" x="0px" y="0px"
	 viewBox="0 0 127 162" enable-background="new 0 0 127 162" xml:space="preserve">
<g>
	<defs>
		<rect id="SVGID_1_" y="0" width="127" height="162"/>
	</defs>
	<clipPath id="SVGID_2_">
		<use xlink:href="#SVGID_1_"  overflow="visible"/>
	</clipPath>
	<g id="legenda_03" clip-path="url(#SVGID_2_)">
		<g enable-background="new    ">
			<path d="M1.93896,2.03436h0.70947L1.41943,8.341h3.17822L4.46777,9.00018H0.57959L1.93896,2.03436z"/>
			<path d="M10.74707,4.07245L9.7876,9.00018H9.10791L9.23779,8.341C8.80811,8.8205,8.14844,9.08026,7.47852,9.08026
				c-1.21924,0-1.86865-0.79004-1.86865-1.95898c0-1.56934,1.15918-3.12793,2.73828-3.12793
				c0.70996,0,1.28955,0.31934,1.56934,0.80957l0.13965-0.73047H10.74707z M8.39844,4.62225
				c-1.24951,0-2.10889,1.26953-2.10889,2.42871c0,0.85938,0.46973,1.38965,1.28906,1.38965c1.11963,0,1.96924-1,2.09912-2.16895
				C9.7876,5.28241,9.30762,4.62225,8.39844,4.62225z"/>
			<path d="M16.28711,4.07245l-4.0376,6.9668h-0.75977l1.22949-2.11914l-1.13965-4.84766h0.74951l0.88965,3.97852l2.29883-3.97852
				H16.28711z"/>
			<path d="M16.81934,6.75116c-0.02979,0.16016-0.0498,0.29004-0.0498,0.4502c0,0.78906,0.44971,1.24902,1.26904,1.24902
				c0.59961,0,1.04932-0.17969,1.56934-0.64941l0.41992,0.46973c-0.66992,0.5791-1.2793,0.80957-2.03906,0.80957
				c-1.2793,0-1.87891-0.7998-1.87891-1.89941c0-1.64844,1.11914-3.1875,2.7085-3.1875c1.2793,0,1.77881,0.83887,1.77881,1.77832
				c0,0.2998-0.06982,0.7002-0.15967,0.97949H16.81934z M16.9292,6.19159h2.96826c0.05029-0.17969,0.07031-0.34961,0.07031-0.5
				c0-0.5791-0.3501-1.0791-1.18945-1.0791C17.84863,4.61249,17.18896,5.31268,16.9292,6.19159z"/>
			<path d="M25.21729,4.21307l-0.41992,0.5791c-0.11963-0.06934-0.32959-0.12988-0.57959-0.12988
				c-0.72949,0-1.49902,0.5-1.75879,1.86914l-0.46973,2.46875h-0.68994l0.95947-4.92773h0.68994l-0.14014,0.66992
				c0.43994-0.58984,1.09961-0.74902,1.5791-0.74902C24.67773,3.99335,24.95752,4.05292,25.21729,4.21307z"/>
		</g>
		<g enable-background="new    ">
			<path d="M0.23975,103.93085l0.70996-0.01953c-0.11035,0.88965,0.27979,1.49902,1.19922,1.49902
				c1.25928,0,1.68896-0.91895,1.89893-1.95898l0.73975-3.75781H1.96875l0.12988-0.65918h3.52832l-0.87939,4.50684
				c-0.31006,1.55957-1.15967,2.53906-2.65869,2.53906C0.70947,106.08026,0.1001,105.10077,0.23975,103.93085z"/>
			<path d="M10.74707,101.07245l-0.95947,4.92773H9.09814l0.12012-0.56934c-0.45996,0.46973-1.07959,0.64941-1.61914,0.64941
				c-0.93945,0-1.4292-0.54004-1.4292-1.37891c0-0.27051,0.0498-0.54004,0.06982-0.63965l0.57959-2.98926h0.68994l-0.56982,2.92871
				c-0.03027,0.16016-0.06982,0.36035-0.06982,0.56934c0,0.5498,0.25977,0.90039,0.9292,0.90039
				c1.07959,0,1.59912-0.9502,1.8291-2.14941l0.42969-2.24902H10.74707z"/>
			<path d="M18.88574,102.40253c0,0.26953-0.04004,0.40918-0.08008,0.63965l-0.56982,2.95801h-0.68945l0.5498-2.81836
				c0.04004-0.19043,0.07959-0.45996,0.07959-0.67969c0-0.47949-0.19971-0.89941-0.84912-0.89941
				c-0.97949,0-1.44922,0.95898-1.66943,2.05859l-0.45947,2.33887h-0.68994l0.56006-2.87891
				c0.03955-0.20898,0.06982-0.41895,0.06982-0.60938c0-0.5498-0.23975-0.90918-0.83936-0.90918
				c-0.98975,0-1.44922,0.94922-1.66943,2.05859l-0.45947,2.33887h-0.68994l0.94971-4.92773h0.66943l-0.11963,0.60059
				c0.39941-0.45996,0.99951-0.67969,1.51904-0.67969c0.58984,0,1.09912,0.2793,1.21924,0.94922
				c0.42969-0.64941,1.11963-0.94922,1.7793-0.94922C18.49561,100.99335,18.88574,101.58221,18.88574,102.40253z"/>
			<path d="M24.94678,102.95233c0,1.56836-1.15918,3.12793-2.73828,3.12793c-0.66992,0-1.22949-0.28027-1.51904-0.72949
				l-0.52979,2.68848H19.3999l1.36914-6.9668h0.74951l-0.10986,0.57031c0.43018-0.41992,1.0498-0.64941,1.66943-0.64941
				C24.29736,100.99335,24.94678,101.78241,24.94678,102.95233z M24.26709,103.02167c0-0.85938-0.46973-1.38867-1.28906-1.38867
				c-1.11963,0-1.96875,0.99902-2.09912,2.16797c-0.10986,0.99023,0.37012,1.64941,1.2793,1.64941
				C23.40771,105.45038,24.26709,104.18085,24.26709,103.02167z"/>
			<path d="M25.37939,104.77069l0.6499-0.21973c0.10986,0.5,0.49951,0.90918,1.30908,0.90918
				c0.68994,0,1.23926-0.28906,1.23926-0.92871c0-0.99023-2.43848-0.66992-2.43848-2.08887
				c0-0.87012,0.78955-1.44922,1.80908-1.44922c0.85938,0,1.45898,0.39941,1.729,1.03906l-0.59961,0.26953
				c-0.22021-0.47949-0.56982-0.68945-1.15967-0.68945c-0.60938,0-1.09912,0.25977-1.09912,0.75977
				c0,0.93945,2.43848,0.60938,2.43848,2.08887c0,1.0293-0.86963,1.61914-1.92871,1.61914
				C26.2793,106.08026,25.54932,105.51093,25.37939,104.77069z"/>
			<path d="M38.10645,102.95233c0,1.56836-1.15918,3.12793-2.73828,3.12793c-0.66992,0-1.21924-0.28027-1.51904-0.72949
				l-0.12012,0.64941h-0.75977l1.35938-6.96582h0.75977l-0.52002,2.59863c0.42969-0.41016,1.0498-0.63965,1.66943-0.63965
				C37.45703,100.99335,38.10645,101.78241,38.10645,102.95233z M37.42676,103.02167c0-0.85938-0.46973-1.38867-1.28906-1.38867
				c-1.11963,0-1.96875,0.99902-2.09863,2.16797c-0.11035,0.99023,0.36963,1.64941,1.2793,1.64941
				C36.56738,105.45038,37.42676,104.18085,37.42676,103.02167z"/>
			<path d="M39.5791,103.75116c-0.02979,0.16016-0.0498,0.29004-0.0498,0.4502c0,0.78906,0.44971,1.24902,1.26904,1.24902
				c0.59961,0,1.04932-0.17969,1.56934-0.64941l0.41992,0.46973c-0.66992,0.5791-1.2793,0.80957-2.03906,0.80957
				c-1.2793,0-1.87891-0.7998-1.87891-1.89941c0-1.64844,1.11914-3.1875,2.7085-3.1875c1.2793,0,1.77881,0.83887,1.77881,1.77832
				c0,0.2998-0.06982,0.7002-0.15967,0.97949H39.5791z M39.68896,103.19159h2.96826c0.05029-0.17969,0.07031-0.34961,0.07031-0.5
				c0-0.5791-0.3501-1.0791-1.18945-1.0791C40.6084,101.61249,39.94873,102.31268,39.68896,103.19159z"/>
			<path d="M45.12891,104.8205c-0.02002,0.10059-0.03027,0.2002-0.03027,0.25977c0,0.2998,0.16992,0.41992,0.47998,0.41992
				c0.15967,0,0.37939-0.04004,0.61963-0.12012l-0.07031,0.57031c-0.25977,0.08008-0.5293,0.12988-0.75928,0.12988
				c-0.56982,0-0.95947-0.28027-0.95947-0.87988c0-0.12988,0.02002-0.2793,0.04004-0.37988l0.61963-3.21777h-0.81982
				l0.10986-0.53027h0.80957l0.27002-1.37891l0.78955-0.51953l-0.36963,1.89844h1.18945l-0.1001,0.53027H45.7583L45.12891,104.8205z
				"/>
			<path d="M54.46484,101.07245l-2.39844,4.92773h-0.64941l-0.54004-3.96777l-2.09863,3.96777h-0.63965l-0.48975-4.92773h0.72949
				l0.2998,3.89844l2.05908-3.89844h0.61963l0.53955,3.87793l1.8291-3.87793H54.46484z"/>
			<path d="M55.17871,103.75116c-0.02979,0.16016-0.0498,0.29004-0.0498,0.4502c0,0.78906,0.44971,1.24902,1.26904,1.24902
				c0.59961,0,1.04932-0.17969,1.56934-0.64941l0.41992,0.46973c-0.66992,0.5791-1.2793,0.80957-2.03906,0.80957
				c-1.2793,0-1.87891-0.7998-1.87891-1.89941c0-1.64844,1.11914-3.1875,2.7085-3.1875c1.2793,0,1.77881,0.83887,1.77881,1.77832
				c0,0.2998-0.06982,0.7002-0.15967,0.97949H55.17871z M55.28857,103.19159h2.96826c0.05029-0.17969,0.07031-0.34961,0.07031-0.5
				c0-0.5791-0.3501-1.0791-1.18945-1.0791C56.20801,101.61249,55.54834,102.31268,55.28857,103.19159z"/>
			<path d="M60.37842,103.75116c-0.02979,0.16016-0.0498,0.29004-0.0498,0.4502c0,0.78906,0.44971,1.24902,1.26904,1.24902
				c0.59961,0,1.0498-0.17969,1.56934-0.64941l0.41992,0.46973c-0.66992,0.5791-1.2793,0.80957-2.03906,0.80957
				c-1.2793,0-1.87891-0.7998-1.87891-1.89941c0-1.64844,1.11914-3.1875,2.7085-3.1875c1.2793,0,1.77881,0.83887,1.77881,1.77832
				c0,0.2998-0.07031,0.7002-0.15967,0.97949H60.37842z M60.48828,103.19159h2.96826c0.05029-0.17969,0.07031-0.34961,0.07031-0.5
				c0-0.5791-0.3501-1.0791-1.18945-1.0791C61.40771,101.61249,60.74805,102.31268,60.48828,103.19159z"/>
			<path d="M69.43652,102.37225c0,0.26953-0.0498,0.54004-0.06934,0.63965l-0.58008,2.98828h-0.68945l0.56934-2.92871
				c0.03027-0.15918,0.06934-0.35938,0.06934-0.56934c0-0.5498-0.25977-0.89941-0.92871-0.89941
				c-1.0791,0-1.59863,0.94922-1.8291,2.14844l-0.42969,2.24902h-0.68945l0.95898-4.92773h0.68945l-0.11914,0.57031
				c0.45898-0.46973,1.0791-0.64941,1.61914-0.64941C68.94727,100.99335,69.43652,101.53241,69.43652,102.37225z"/>
			<path d="M73.24805,104.92108l1.15039-5.88672h0.67969l-1.14062,5.89648c-0.08008,0.39941,0.03125,0.54004,0.32031,0.54004
				c0.15039,0,0.31055-0.03027,0.5-0.09082l-0.07031,0.58008c-0.26953,0.08008-0.50977,0.12012-0.68945,0.12012
				C73.4082,106.08026,73.09863,105.70038,73.24805,104.92108z"/>
			<path d="M80.7959,101.07245l-0.95996,4.92773h-0.67969l0.13086-0.65918c-0.42969,0.47949-1.08984,0.73926-1.75977,0.73926
				c-1.21875,0-1.86914-0.79004-1.86914-1.95898c0-1.56934,1.16016-3.12793,2.73828-3.12793
				c0.71094,0,1.29004,0.31934,1.57031,0.80957l0.13867-0.73047H80.7959z M78.44727,101.62225
				c-1.25,0-2.10938,1.26953-2.10938,2.42871c0,0.85938,0.4707,1.38965,1.28906,1.38965c1.12012,0,1.96973-1,2.09961-2.16895
				C79.83594,102.28241,79.35645,101.62225,78.44727,101.62225z"/>
			<path d="M86.33594,101.07245l-4.03711,6.9668h-0.75977l1.22949-2.11914l-1.13965-4.84766h0.75l0.88867,3.97852l2.29883-3.97852
				H86.33594z"/>
			<path d="M86.86816,103.75116c-0.03027,0.16016-0.0498,0.29004-0.0498,0.4502c0,0.78906,0.44922,1.24902,1.26953,1.24902
				c0.59961,0,1.04883-0.17969,1.56836-0.64941l0.41992,0.46973c-0.66992,0.5791-1.2793,0.80957-2.03906,0.80957
				c-1.2793,0-1.87891-0.7998-1.87891-1.89941c0-1.64844,1.11914-3.1875,2.70898-3.1875c1.2793,0,1.7793,0.83887,1.7793,1.77832
				c0,0.2998-0.07031,0.7002-0.16016,0.97949H86.86816z M86.97852,103.19159h2.96777c0.0498-0.17969,0.07031-0.34961,0.07031-0.5
				c0-0.5791-0.35059-1.0791-1.18945-1.0791C87.89746,101.61249,87.23828,102.31268,86.97852,103.19159z"/>
			<path d="M95.2666,101.21307l-0.41992,0.5791c-0.12012-0.06934-0.3291-0.12988-0.5791-0.12988c-0.73047,0-1.5,0.5-1.75977,1.86914
				l-0.46875,2.46875h-0.69043l0.95996-4.92773h0.68945l-0.14062,0.66992c0.44043-0.58984,1.09961-0.74902,1.58008-0.74902
				C94.72656,100.99335,95.00684,101.05292,95.2666,101.21307z"/>
			<path d="M94.79883,104.77069l0.65039-0.21973c0.10938,0.5,0.49902,0.90918,1.30859,0.90918
				c0.68945,0,1.23926-0.28906,1.23926-0.92871c0-0.99023-2.43848-0.66992-2.43848-2.08887
				c0-0.87012,0.78906-1.44922,1.80859-1.44922c0.85938,0,1.45898,0.39941,1.72949,1.03906l-0.59961,0.26953
				c-0.21973-0.47949-0.56934-0.68945-1.15918-0.68945c-0.60938,0-1.09961,0.25977-1.09961,0.75977
				c0,0.93945,2.43848,0.60938,2.43848,2.08887c0,1.0293-0.87012,1.61914-1.92871,1.61914
				C95.69922,106.08026,94.96875,105.51093,94.79883,104.77069z"/>
		</g>
		<g enable-background="new    ">
			<path d="M31.02637,28.72577h4.11426v0.59375h-3.4751v2.1875h3.12402v0.59473h-3.12402v2.30469h3.4751v0.59375h-4.11426V28.72577z
				"/>
			<path d="M37.54248,32.77655l-1.62061-2.21484h0.75635l1.27832,1.78223l1.26953-1.78223h0.75635l-1.62061,2.21484l1.62939,2.22363
				h-0.76514l-1.26953-1.80078l-1.26904,1.80078h-0.76562L37.54248,32.77655z"/>
			<path d="M42.9248,34.95526c-0.23438,0.07227-0.46826,0.11719-0.67529,0.11719c-0.59424,0-1.02637-0.33301-1.02637-1.11621
				v-2.87207h-0.73828v-0.52246h0.73828v-1.24219l0.62109-0.46777v1.70996h1.07129v0.52246h-1.07129v2.79102
				c0,0.43164,0.19824,0.62988,0.54932,0.62988c0.15283,0,0.32373-0.03613,0.52197-0.09863L42.9248,34.95526z"/>
			<path d="M47.56885,32.94745h-3.24951c0.01758,0.97266,0.55811,1.55762,1.43115,1.55762
				c0.48633,0,0.87354-0.12598,1.27832-0.55859l0.43213,0.37891c-0.52197,0.54883-1.03516,0.74707-1.71924,0.74707
				c-1.35059,0-2.04395-1.00879-2.04395-2.26855c0-1.25195,0.68457-2.31445,1.97168-2.31445
				c1.35938,0,1.92676,1.0625,1.92676,2.07129C47.59619,32.68671,47.58691,32.84003,47.56885,32.94745z M44.31934,32.42499h2.68262
				c0-0.01758-0.00928-0.0625-0.00928-0.14355c-0.04492-0.7207-0.50391-1.26953-1.32324-1.26953
				C44.86816,31.0119,44.37305,31.64178,44.31934,32.42499z"/>
			<path d="M51.54688,30.67889l-0.30615,0.50391c-0.20703-0.08984-0.396-0.13477-0.58496-0.13477
				c-0.68408,0-1.18848,0.5127-1.18848,1.47656v2.47559h-0.62109v-4.43848h0.62109v0.66602
				c0.32422-0.58496,0.86426-0.73828,1.31445-0.73828C51.05176,30.48944,51.30371,30.54413,51.54688,30.67889z"/>
			<path d="M56.00195,32.28143v2.71875h-0.62109v-2.56543c0-0.95508-0.30615-1.39551-0.97266-1.39551
				c-0.83691,0-1.32324,0.71973-1.32324,1.97168v1.98926h-0.62109v-4.43848h0.62109v0.64844
				c0.28809-0.4502,0.82812-0.7207,1.46729-0.7207C55.50684,30.48944,56.00195,31.10175,56.00195,32.28143z"/>
			<path d="M60.83447,32.23651v2.76367h-0.56689l-0.03613-0.68457c-0.35107,0.49512-0.89111,0.75684-1.59326,0.75684
				c-0.96338,0-1.53076-0.50391-1.53076-1.35938c0-0.4502,0.18018-0.79297,0.50439-0.99023
				c0.3418-0.19824,0.81934-0.2793,1.69238-0.2793h0.90918v-0.20703c0-0.77441-0.40479-1.19727-1.15234-1.19727
				c-0.55811,0-0.99023,0.24316-1.3501,0.73828l-0.4502-0.37891c0.47705-0.62109,1.05322-0.90918,1.80957-0.90918
				C60.18652,30.48944,60.83447,31.12909,60.83447,32.23651z M60.21338,33.01093v-0.06348H59.3584
				c-0.81934,0-1.17041,0.05371-1.38672,0.22559c-0.16211,0.12598-0.24316,0.32324-0.24316,0.57617
				c0,0.49512,0.42334,0.80957,1.08936,0.80957C59.67334,34.55878,60.21338,33.95624,60.21338,33.01093z"/>
			<path d="M62.30957,34.03729v-5.31152h0.62109v5.27539c0,0.30566,0.1084,0.50391,0.40527,0.50391
				c0.13477,0,0.28809-0.03613,0.42285-0.08105l0.00928,0.53125c-0.18896,0.0625-0.41406,0.11719-0.6123,0.11719
				C62.64258,35.07245,62.30957,34.72968,62.30957,34.03729z"/>
		</g>
		<path id="Tracciato_47" fill="#5151FC" d="M5.559,27h9.882c2.91318-0.14701,5.3976,2.08758,5.559,5
			c-0.1614,2.91242-2.64582,5.14701-5.559,5H5.559C2.64582,37.14701,0.1614,34.91242,0,32
			C0.1614,29.08758,2.64582,26.85299,5.559,27z"/>
		<g enable-background="new    ">
			<path d="M31.02637,44.72577h0.63916v6.27441h-0.63916V44.72577z"/>
			<path d="M37.04834,48.28143v2.71875h-0.62109v-2.56543c0-0.95508-0.30615-1.39551-0.97266-1.39551
				c-0.83691,0-1.32324,0.71973-1.32324,1.97168v1.98926h-0.62109v-4.43848h0.62109v0.64844
				c0.28809-0.4502,0.82812-0.7207,1.46729-0.7207C36.55322,46.48944,37.04834,47.10175,37.04834,48.28143z"/>
			<path d="M40.42285,50.95526c-0.23438,0.07227-0.46826,0.11719-0.67529,0.11719c-0.59424,0-1.02637-0.33301-1.02637-1.11621
				v-2.87207h-0.73828v-0.52246h0.73828v-1.24219l0.62109-0.46777v1.70996h1.07129v0.52246h-1.07129v2.79102
				c0,0.43164,0.19824,0.62988,0.54932,0.62988c0.15283,0,0.32373-0.03613,0.52197-0.09863L40.42285,50.95526z"/>
			<path d="M45.06689,48.94745h-3.24951c0.01758,0.97266,0.55811,1.55762,1.43115,1.55762
				c0.48633,0,0.87354-0.12598,1.27832-0.55859l0.43213,0.37891c-0.52197,0.54883-1.03516,0.74707-1.71924,0.74707
				c-1.35059,0-2.04395-1.00879-2.04395-2.26855c0-1.25195,0.68457-2.31445,1.97168-2.31445
				c1.35938,0,1.92676,1.0625,1.92676,2.07129C45.09424,48.68671,45.08496,48.84003,45.06689,48.94745z M41.81738,48.42499H44.5
				c0-0.01758-0.00928-0.0625-0.00928-0.14355c-0.04492-0.7207-0.50391-1.26953-1.32324-1.26953
				C42.36621,47.0119,41.87109,47.64178,41.81738,48.42499z"/>
			<path d="M49.04492,46.67889l-0.30615,0.50391c-0.20703-0.08984-0.396-0.13477-0.58496-0.13477
				c-0.68408,0-1.18848,0.5127-1.18848,1.47656v2.47559h-0.62109v-4.43848h0.62109v0.66602
				c0.32422-0.58496,0.86426-0.73828,1.31445-0.73828C48.5498,46.48944,48.80176,46.54413,49.04492,46.67889z"/>
			<path d="M53.50049,48.28143v2.71875h-0.62109v-2.56543c0-0.95508-0.30615-1.39551-0.97266-1.39551
				c-0.83691,0-1.32324,0.71973-1.32324,1.97168v1.98926H49.9624v-4.43848h0.62109v0.64844
				c0.28809-0.4502,0.82812-0.7207,1.46729-0.7207C53.00537,46.48944,53.50049,47.10175,53.50049,48.28143z"/>
			<path d="M58.33301,48.23651v2.76367h-0.56689l-0.03613-0.68457c-0.35107,0.49512-0.89111,0.75684-1.59326,0.75684
				c-0.96338,0-1.53076-0.50391-1.53076-1.35938c0-0.4502,0.18018-0.79297,0.50439-0.99023
				c0.3418-0.19824,0.81934-0.2793,1.69238-0.2793h0.90918v-0.20703c0-0.77441-0.40527-1.19727-1.15234-1.19727
				c-0.55811,0-0.99023,0.24316-1.3501,0.73828l-0.4502-0.37891c0.47705-0.62109,1.05322-0.90918,1.80957-0.90918
				C57.68506,46.48944,58.33301,47.12909,58.33301,48.23651z M57.71191,49.01093v-0.06348h-0.85498
				c-0.81934,0-1.17041,0.05371-1.38672,0.22559c-0.16211,0.12598-0.24316,0.32324-0.24316,0.57617
				c0,0.49512,0.42334,0.80957,1.08936,0.80957C57.17188,50.55878,57.71191,49.95624,57.71191,49.01093z"/>
			<path d="M59.80762,50.03729v-5.31152h0.62109v5.27539c0,0.30566,0.1084,0.50391,0.40527,0.50391
				c0.13477,0,0.28809-0.03613,0.42285-0.08105l0.00928,0.53125c-0.18896,0.0625-0.41406,0.11719-0.6123,0.11719
				C60.14062,51.07245,59.80762,50.72968,59.80762,50.03729z"/>
		</g>
		<path id="Tracciato_46" fill="#0AFFB7" d="M5.559,44h9.882c2.91318-0.14701,5.3976,2.08758,5.559,5
			c-0.1614,2.91242-2.64582,5.14701-5.559,5H5.559C2.64582,54.14701,0.1614,51.91242,0,49
			C0.1614,46.08758,2.64582,43.85299,5.559,44z"/>
		<g enable-background="new    ">
			<path d="M30.50928,61.72577h4.2583v0.59375h-3.61914v2.1875h3.16895v0.59473h-3.16895v2.89844h-0.63916V61.72577z"/>
			<path d="M35.25195,65.77655c0-1.31445,0.85547-2.28711,2.12451-2.28711c1.26074,0,2.13379,0.97266,2.13379,2.28711
				c0,1.30566-0.86426,2.2959-2.13379,2.2959C36.10742,68.07245,35.25195,67.091,35.25195,65.77655z M38.88916,65.77655
				c0-1.00879-0.56738-1.7373-1.5127-1.7373c-0.9541,0-1.50342,0.73828-1.50342,1.7373c0,1.00781,0.55811,1.74609,1.50342,1.74609
				C38.33105,67.52264,38.88916,66.76678,38.88916,65.77655z"/>
			<path d="M43.46094,63.67889l-0.30615,0.50391c-0.20703-0.08984-0.396-0.13477-0.58496-0.13477
				c-0.68457,0-1.18848,0.5127-1.18848,1.47656v2.47559h-0.62109v-4.43848h0.62109v0.66602
				c0.32422-0.58496,0.86426-0.73828,1.31445-0.73828C42.96582,63.48944,43.21777,63.54413,43.46094,63.67889z"/>
			<path d="M50.46387,65.22772v2.77246h-0.62158v-2.60156c0-0.37793,0-1.35938-0.97217-1.35938
				c-0.90039,0-1.14307,0.82812-1.14307,1.82715v2.13379h-0.62158v-2.56543c0-0.73828-0.2251-1.39551-0.99902-1.39551
				c-0.86426,0-1.10742,0.81934-1.10742,1.82715v2.13379h-0.62109l-0.00928-4.43848h0.60352v0.54004
				c0.27881-0.44043,0.729-0.6123,1.22412-0.6123c0.62109,0,1.08057,0.27051,1.30566,0.85547
				c0.28809-0.56738,0.7832-0.85547,1.4585-0.85547C50.02246,63.48944,50.46387,64.19159,50.46387,65.22772z"/>
			<path d="M55.2959,65.23651v2.76367H54.729l-0.03613-0.68457c-0.35107,0.49512-0.89111,0.75684-1.59326,0.75684
				c-0.96338,0-1.53076-0.50391-1.53076-1.35938c0-0.4502,0.18018-0.79297,0.50439-0.99023
				c0.3418-0.19824,0.81934-0.2793,1.69238-0.2793h0.90918v-0.20703c0-0.77441-0.40479-1.19727-1.15234-1.19727
				c-0.55811,0-0.99023,0.24316-1.3501,0.73828l-0.4502-0.37891c0.47705-0.62109,1.05322-0.90918,1.80957-0.90918
				C54.64795,63.48944,55.2959,64.12909,55.2959,65.23651z M54.6748,66.01093v-0.06348h-0.85498
				c-0.81934,0-1.17041,0.05371-1.38672,0.22559c-0.16211,0.12598-0.24316,0.32324-0.24316,0.57617
				c0,0.49512,0.42334,0.80957,1.08936,0.80957C54.13477,67.55878,54.6748,66.95624,54.6748,66.01093z"/>
			<path d="M56.771,67.03729v-5.31152h0.62109v5.27539c0,0.30566,0.1084,0.50391,0.40527,0.50391
				c0.13477,0,0.28809-0.03613,0.42285-0.08105l0.00928,0.53125c-0.18896,0.0625-0.41406,0.11719-0.6123,0.11719
				C57.104,68.07245,56.771,67.72968,56.771,67.03729z"/>
		</g>
		<path id="Rettangolo_181" fill="#FFA501" d="M5,60h11c2.76142,0,5,2.23857,5,5l0,0c0,2.76142-2.23858,5-5,5H5
			c-2.76142,0-5-2.23858-5-5l0,0C0,62.23857,2.23858,60,5,60z"/>
		<g id="Raggruppa_24968" transform="translate(0 9)">
			<g enable-background="new    ">
				<path d="M49.50928,116.72577h4.2583v0.59375h-3.61914v2.1875h3.16895v0.59473h-3.16895v2.89844h-0.63916V116.72577z"/>
				<path d="M57.42969,118.67889l-0.30615,0.50391c-0.20703-0.08984-0.396-0.13477-0.58496-0.13477
					c-0.68457,0-1.18848,0.5127-1.18848,1.47656v2.47559H54.729v-4.43848h0.62109v0.66602
					c0.32422-0.58496,0.86426-0.73828,1.31445-0.73828C56.93457,118.48944,57.18652,118.54413,57.42969,118.67889z"/>
				<path d="M57.55518,120.77655c0-1.31445,0.85547-2.28711,2.12451-2.28711c1.26025,0,2.13379,0.97266,2.13379,2.28711
					c0,1.30566-0.86426,2.2959-2.13379,2.2959C58.41064,123.07245,57.55518,122.091,57.55518,120.77655z M61.19238,120.77655
					c0-1.00879-0.56738-1.7373-1.5127-1.7373c-0.9541,0-1.50342,0.73828-1.50342,1.7373c0,1.00781,0.55811,1.74609,1.50342,1.74609
					C60.63428,122.52264,61.19238,121.76678,61.19238,120.77655z"/>
				<path d="M69.14941,120.22772v2.77246h-0.62207v-2.60156c0-0.37793,0-1.35938-0.97168-1.35938
					c-0.90039,0-1.14355,0.82812-1.14355,1.82715v2.13379h-0.62109v-2.56543c0-0.73828-0.22559-1.39551-0.99902-1.39551
					c-0.86475,0-1.10791,0.81934-1.10791,1.82715v2.13379h-0.62109l-0.00928-4.43848h0.60352v0.54004
					c0.27881-0.44043,0.72949-0.6123,1.22461-0.6123c0.62109,0,1.08008,0.27051,1.30566,0.85547
					c0.28809-0.56738,0.7832-0.85547,1.45801-0.85547C68.70801,118.48944,69.14941,119.19159,69.14941,120.22772z"/>
				<path d="M74.97949,122.95526c-0.23438,0.07227-0.46777,0.11719-0.6748,0.11719c-0.59473,0-1.02637-0.33301-1.02637-1.11621
					v-2.87207h-0.73828v-0.52246h0.73828v-1.24219l0.62109-0.46777v1.70996h1.07129v0.52246h-1.07129v2.79102
					c0,0.43164,0.19824,0.62988,0.54883,0.62988c0.15332,0,0.32422-0.03613,0.52246-0.09863L74.97949,122.95526z"/>
				<path d="M79.69629,120.28143v2.71875H79.0752v-2.56543c0-0.96387-0.30664-1.39551-0.97266-1.39551
					c-0.84668,0-1.32324,0.69336-1.32324,1.91699v2.04395H76.1582v-6.27441h0.62109v2.48438
					c0.28809-0.4502,0.82812-0.7207,1.4668-0.7207C79.20117,118.48944,79.69629,119.10175,79.69629,120.28143z"/>
				<path d="M84.73535,120.94745h-3.24902c0.01758,0.97266,0.55762,1.55762,1.43066,1.55762
					c0.48633,0,0.87402-0.12598,1.27832-0.55859l0.43262,0.37891c-0.52246,0.54883-1.03516,0.74707-1.71973,0.74707
					c-1.35059,0-2.04395-1.00879-2.04395-2.26855c0-1.25195,0.68457-2.31445,1.97168-2.31445
					c1.35938,0,1.92676,1.0625,1.92676,2.07129C84.7627,120.68671,84.75391,120.84003,84.73535,120.94745z M81.48633,120.42499
					h2.68262c0-0.01758-0.00977-0.0625-0.00977-0.14355c-0.04492-0.7207-0.50391-1.26953-1.32324-1.26953
					C82.03516,119.0119,81.54004,119.64178,81.48633,120.42499z"/>
				<path d="M88.41602,116.72577h0.71973v0.91797h-0.71973V116.72577z M88.46973,118.56171h0.62109v4.43848h-0.62109V118.56171z"/>
				<path d="M94.2666,120.28143v2.71875h-0.62109v-2.56543c0-0.95508-0.30566-1.39551-0.97266-1.39551
					c-0.83691,0-1.32324,0.71973-1.32324,1.97168v1.98926h-0.62109v-4.43848h0.62109v0.64844
					c0.28809-0.4502,0.82812-0.7207,1.46777-0.7207C93.77148,118.48944,94.2666,119.10175,94.2666,120.28143z"/>
				<path d="M97.6416,122.95526c-0.23438,0.07227-0.46875,0.11719-0.67578,0.11719c-0.59375,0-1.02637-0.33301-1.02637-1.11621
					v-2.87207h-0.73828v-0.52246h0.73828v-1.24219l0.62109-0.46777v1.70996h1.07129v0.52246h-1.07129v2.79102
					c0,0.43164,0.19824,0.62988,0.5498,0.62988c0.15234,0,0.32324-0.03613,0.52148-0.09863L97.6416,122.95526z"/>
				<path d="M102.28516,120.94745h-3.24902c0.01758,0.97266,0.55762,1.55762,1.43066,1.55762
					c0.48633,0,0.87402-0.12598,1.27832-0.55859l0.43262,0.37891c-0.52246,0.54883-1.03516,0.74707-1.71973,0.74707
					c-1.35059,0-2.04395-1.00879-2.04395-2.26855c0-1.25195,0.68457-2.31445,1.97168-2.31445
					c1.35938,0,1.92676,1.0625,1.92676,2.07129C102.3125,120.68671,102.30371,120.84003,102.28516,120.94745z M99.03613,120.42499
					h2.68262c0-0.01758-0.00977-0.0625-0.00977-0.14355c-0.04492-0.7207-0.50391-1.26953-1.32324-1.26953
					C99.58496,119.0119,99.08984,119.64178,99.03613,120.42499z"/>
				<path d="M106.26367,118.67889l-0.30664,0.50391c-0.20703-0.08984-0.39551-0.13477-0.58496-0.13477
					c-0.68359,0-1.18848,0.5127-1.18848,1.47656v2.47559h-0.62109v-4.43848h0.62109v0.66602
					c0.32422-0.58496,0.86426-0.73828,1.31445-0.73828C105.76855,118.48944,106.02051,118.54413,106.26367,118.67889z"/>
				<path d="M110.71875,120.28143v2.71875h-0.62109v-2.56543c0-0.95508-0.30566-1.39551-0.97266-1.39551
					c-0.83691,0-1.32324,0.71973-1.32324,1.97168v1.98926h-0.62109v-4.43848h0.62109v0.64844
					c0.28809-0.4502,0.82812-0.7207,1.46777-0.7207C110.22363,118.48944,110.71875,119.10175,110.71875,120.28143z"/>
				<path d="M115.55176,120.23651v2.76367h-0.56738l-0.03613-0.68457c-0.35059,0.49512-0.89062,0.75684-1.59277,0.75684
					c-0.96387,0-1.53125-0.50391-1.53125-1.35938c0-0.4502,0.18066-0.79297,0.50488-0.99023
					c0.3418-0.19824,0.81934-0.2793,1.69238-0.2793h0.90918v-0.20703c0-0.77441-0.40527-1.19727-1.15234-1.19727
					c-0.55859,0-0.99023,0.24316-1.35059,0.73828l-0.4502-0.37891c0.47754-0.62109,1.05371-0.90918,1.80957-0.90918
					C114.90332,118.48944,115.55176,119.12909,115.55176,120.23651z M114.93066,121.01093v-0.06348h-0.85547
					c-0.81934,0-1.16992,0.05371-1.38672,0.22559c-0.16211,0.12598-0.24316,0.32324-0.24316,0.57617
					c0,0.49512,0.42383,0.80957,1.08984,0.80957C114.39062,122.55878,114.93066,121.95624,114.93066,121.01093z"/>
				<path d="M117.02637,122.03729v-5.31152h0.62109v5.27539c0,0.30566,0.1084,0.50391,0.40527,0.50391
					c0.13574,0,0.28809-0.03613,0.42383-0.08105l0.00879,0.53125c-0.18945,0.0625-0.41406,0.11719-0.6123,0.11719
					C117.35938,123.07245,117.02637,122.72968,117.02637,122.03729z"/>
			</g>
			<g enable-background="new    ">
				<path d="M49.26611,132.8371v-5.31152h0.62109v5.27539c0,0.30566,0.1084,0.50391,0.40527,0.50391
					c0.13477,0,0.28809-0.03613,0.42285-0.08105l0.00928,0.53125c-0.18896,0.0625-0.41406,0.11719-0.6123,0.11719
					C49.59912,133.87225,49.26611,133.52948,49.26611,132.8371z"/>
				<path d="M55.03564,131.03632v2.76367h-0.56689l-0.03613-0.68457c-0.35107,0.49512-0.89111,0.75684-1.59326,0.75684
					c-0.96338,0-1.53076-0.50391-1.53076-1.35938c0-0.4502,0.18018-0.79297,0.50439-0.99023
					c0.3418-0.19824,0.81934-0.2793,1.69238-0.2793h0.90918v-0.20703c0-0.77441-0.40527-1.19727-1.15234-1.19727
					c-0.55811,0-0.99023,0.24316-1.3501,0.73828l-0.4502-0.37891c0.47705-0.62109,1.05322-0.90918,1.80957-0.90918
					C54.3877,129.28925,55.03564,129.92889,55.03564,131.03632z M54.41455,131.81073v-0.06348h-0.85498
					c-0.81934,0-1.17041,0.05371-1.38672,0.22559c-0.16211,0.12598-0.24316,0.32324-0.24316,0.57617
					c0,0.49512,0.42334,0.80957,1.08936,0.80957C53.87451,133.35858,54.41455,132.75604,54.41455,131.81073z"/>
				<path d="M57.68115,133.74628l-1.88135-4.38477h0.68408l1.53027,3.65527l1.3418-3.65527h0.68408l-2.43066,6.27539h-0.6665
					L57.68115,133.74628z"/>
				<path d="M64.37793,131.74725h-3.24951c0.01758,0.97266,0.55811,1.55762,1.43115,1.55762
					c0.48633,0,0.87354-0.12598,1.27832-0.55859l0.43262,0.37891c-0.52246,0.54883-1.03564,0.74707-1.71973,0.74707
					c-1.35059,0-2.04395-1.00879-2.04395-2.26855c0-1.25195,0.68457-2.31445,1.97168-2.31445
					c1.35938,0,1.92676,1.0625,1.92676,2.07129C64.40527,131.48651,64.39648,131.63983,64.37793,131.74725z M61.12842,131.22479
					h2.68262c0-0.01758-0.00928-0.0625-0.00928-0.14355c-0.04492-0.7207-0.50391-1.26953-1.32324-1.26953
					C61.67725,129.81171,61.18213,130.44159,61.12842,131.22479z"/>
				<path d="M68.35645,129.4787l-0.30664,0.50391c-0.20703-0.08984-0.39551-0.13477-0.58496-0.13477
					c-0.68359,0-1.18848,0.5127-1.18848,1.47656v2.47559h-0.62109v-4.43848h0.62109v0.66602
					c0.32422-0.58496,0.86426-0.73828,1.31445-0.73828C67.86133,129.28925,68.11328,129.34393,68.35645,129.4787z"/>
				<path d="M73.57617,133.75507c-0.23438,0.07227-0.46875,0.11719-0.67578,0.11719c-0.59375,0-1.02637-0.33301-1.02637-1.11621
					v-2.87207h-0.73828v-0.52246h0.73828v-1.24219l0.62109-0.46777v1.70996h1.07129v0.52246h-1.07129v2.79102
					c0,0.43164,0.19824,0.62988,0.5498,0.62988c0.15234,0,0.32324-0.03613,0.52148-0.09863L73.57617,133.75507z"/>
				<path d="M74.32227,131.57635c0-1.31445,0.85547-2.28711,2.12402-2.28711c1.26074,0,2.13379,0.97266,2.13379,2.28711
					c0,1.30566-0.86426,2.2959-2.13379,2.2959C75.17773,133.87225,74.32227,132.89081,74.32227,131.57635z M77.95898,131.57635
					c0-1.00879-0.56738-1.7373-1.5127-1.7373c-0.9541,0-1.50293,0.73828-1.50293,1.7373c0,1.00781,0.55762,1.74609,1.50293,1.74609
					C77.40137,133.32245,77.95898,132.56659,77.95898,131.57635z"/>
				<path d="M84.13281,133.75507c-0.23438,0.07227-0.46777,0.11719-0.6748,0.11719c-0.59473,0-1.02637-0.33301-1.02637-1.11621
					v-2.87207h-0.73828v-0.52246h0.73828v-1.24219l0.62109-0.46777v1.70996h1.07129v0.52246h-1.07129v2.79102
					c0,0.43164,0.19824,0.62988,0.54883,0.62988c0.15332,0,0.32422-0.03613,0.52246-0.09863L84.13281,133.75507z"/>
				<path d="M88.84961,131.08124v2.71875h-0.62109v-2.56543c0-0.96387-0.30664-1.39551-0.97266-1.39551
					c-0.84668,0-1.32324,0.69336-1.32324,1.91699v2.04395h-0.62109v-6.27441h0.62109v2.48438
					c0.28809-0.4502,0.82812-0.7207,1.4668-0.7207C88.35449,129.28925,88.84961,129.90155,88.84961,131.08124z"/>
				<path d="M93.88867,131.74725h-3.24902c0.01758,0.97266,0.55762,1.55762,1.43066,1.55762
					c0.48633,0,0.87402-0.12598,1.27832-0.55859l0.43262,0.37891c-0.52246,0.54883-1.03516,0.74707-1.71973,0.74707
					c-1.35059,0-2.04395-1.00879-2.04395-2.26855c0-1.25195,0.68457-2.31445,1.97168-2.31445
					c1.35938,0,1.92676,1.0625,1.92676,2.07129C93.91602,131.48651,93.90723,131.63983,93.88867,131.74725z M90.63965,131.22479
					h2.68262c0-0.01758-0.00977-0.0625-0.00977-0.14355c-0.04492-0.7207-0.50391-1.26953-1.32324-1.26953
					C91.18848,129.81171,90.69336,130.44159,90.63965,131.22479z"/>
			</g>
			<g enable-background="new    ">
				<path d="M52.81299,142.54706h-3.25c0.01807,0.97266,0.55859,1.55762,1.43164,1.55762c0.48633,0,0.87305-0.12598,1.27832-0.55859
					l0.43213,0.37891c-0.52197,0.54883-1.03516,0.74707-1.71924,0.74707c-1.35059,0-2.04395-1.00879-2.04395-2.26855
					c0-1.25195,0.68457-2.31445,1.97168-2.31445c1.35938,0,1.92676,1.0625,1.92676,2.07129
					C52.84033,142.28632,52.83105,142.43964,52.81299,142.54706z M49.56299,142.0246h2.68311
					c0-0.01758-0.00928-0.0625-0.00928-0.14355c-0.04492-0.7207-0.50391-1.26953-1.32324-1.26953
					C50.1123,140.61151,49.61719,141.24139,49.56299,142.0246z"/>
				<path d="M55.12549,142.37616l-1.62061-2.21484h0.75635l1.27832,1.78223l1.26953-1.78223h0.75635l-1.62061,2.21484
					l1.62939,2.22363h-0.76514l-1.26953-1.80078l-1.26904,1.80078h-0.76562L55.12549,142.37616z"/>
				<path d="M60.50732,144.55487c-0.23389,0.07227-0.46777,0.11719-0.6748,0.11719c-0.59424,0-1.02637-0.33301-1.02637-1.11621
					v-2.87207h-0.73828v-0.52246h0.73828v-1.24219l0.62109-0.46777v1.70996h1.07129v0.52246h-1.07129v2.79102
					c0,0.43164,0.19824,0.62988,0.54932,0.62988c0.15283,0,0.32373-0.03613,0.52197-0.09863L60.50732,144.55487z"/>
				<path d="M65.15234,142.54706h-3.25049c0.01807,0.97266,0.55859,1.55762,1.43164,1.55762
					c0.48633,0,0.87354-0.12598,1.27881-0.55859l0.43164,0.37891c-0.52148,0.54883-1.03516,0.74707-1.71924,0.74707
					c-1.35059,0-2.04395-1.00879-2.04395-2.26855c0-1.25195,0.68457-2.31445,1.97168-2.31445
					c1.35986,0,1.92725,1.0625,1.92725,2.07129C65.17969,142.28632,65.16992,142.43964,65.15234,142.54706z M61.90186,142.0246
					h2.68311c0-0.01758-0.00879-0.0625-0.00879-0.14355c-0.04492-0.7207-0.50391-1.26953-1.32373-1.26953
					C62.45117,140.61151,61.95605,141.24139,61.90186,142.0246z"/>
				<path d="M69.12988,140.2785l-0.30566,0.50391c-0.20703-0.08984-0.39648-0.13477-0.58496-0.13477
					c-0.68457,0-1.18848,0.5127-1.18848,1.47656v2.47559h-0.62109v-4.43848h0.62109v0.66602
					c0.32422-0.58496,0.86426-0.73828,1.31445-0.73828C68.63477,140.08905,68.88672,140.14374,69.12988,140.2785z"/>
				<path d="M73.58496,141.88104v2.71875h-0.62109v-2.56543c0-0.95508-0.30566-1.39551-0.97266-1.39551
					c-0.83691,0-1.32324,0.71973-1.32324,1.97168v1.98926h-0.62109v-4.43848h0.62109v0.64844
					c0.28809-0.4502,0.82812-0.7207,1.46777-0.7207C73.08984,140.08905,73.58496,140.70135,73.58496,141.88104z"/>
				<path d="M78.41797,141.83612v2.76367h-0.56738l-0.03613-0.68457c-0.35059,0.49512-0.89062,0.75684-1.59277,0.75684
					c-0.96387,0-1.53125-0.50391-1.53125-1.35938c0-0.4502,0.18066-0.79297,0.50488-0.99023
					c0.3418-0.19824,0.81934-0.2793,1.69238-0.2793h0.90918v-0.20703c0-0.77441-0.40527-1.19727-1.15234-1.19727
					c-0.55859,0-0.99023,0.24316-1.35059,0.73828l-0.4502-0.37891c0.47754-0.62109,1.05371-0.90918,1.80957-0.90918
					C77.76953,140.08905,78.41797,140.7287,78.41797,141.83612z M77.79688,142.61053v-0.06348h-0.85547
					c-0.81934,0-1.16992,0.05371-1.38672,0.22559c-0.16211,0.12598-0.24316,0.32324-0.24316,0.57617
					c0,0.49512,0.42383,0.80957,1.08984,0.80957C77.25684,144.15839,77.79688,143.55585,77.79688,142.61053z"/>
				<path d="M79.89258,143.6369v-5.31152h0.62109v5.27539c0,0.30566,0.1084,0.50391,0.40527,0.50391
					c0.13574,0,0.28809-0.03613,0.42383-0.08105l0.00879,0.53125c-0.18945,0.0625-0.41406,0.11719-0.6123,0.11719
					C80.22559,144.67206,79.89258,144.32928,79.89258,143.6369z"/>
				<path d="M84.78027,143.6369v-5.31152h0.62109v5.27539c0,0.30566,0.1084,0.50391,0.40527,0.50391
					c0.13477,0,0.28809-0.03613,0.42285-0.08105l0.00879,0.53125c-0.18848,0.0625-0.41406,0.11719-0.6123,0.11719
					C85.11328,144.67206,84.78027,144.32928,84.78027,143.6369z"/>
				<path d="M90.5498,141.83612v2.76367h-0.56738l-0.03613-0.68457c-0.35059,0.49512-0.89062,0.75684-1.59277,0.75684
					c-0.96387,0-1.53125-0.50391-1.53125-1.35938c0-0.4502,0.18066-0.79297,0.50488-0.99023
					c0.3418-0.19824,0.81934-0.2793,1.69238-0.2793h0.90918v-0.20703c0-0.77441-0.40527-1.19727-1.15234-1.19727
					c-0.55859,0-0.99023,0.24316-1.35059,0.73828l-0.4502-0.37891c0.47754-0.62109,1.05371-0.90918,1.80957-0.90918
					C89.90137,140.08905,90.5498,140.7287,90.5498,141.83612z M89.92871,142.61053v-0.06348h-0.85547
					c-0.81934,0-1.16992,0.05371-1.38672,0.22559c-0.16211,0.12598-0.24316,0.32324-0.24316,0.57617
					c0,0.49512,0.42383,0.80957,1.08984,0.80957C89.38867,144.15839,89.92871,143.55585,89.92871,142.61053z"/>
				<path d="M93.19531,144.54608l-1.88184-4.38477h0.68457l1.53027,3.65527l1.3418-3.65527h0.68359l-2.43066,6.27539h-0.66602
					L93.19531,144.54608z"/>
				<path d="M99.8916,142.54706h-3.25c0.01758,0.97266,0.55859,1.55762,1.43164,1.55762c0.48633,0,0.87305-0.12598,1.27832-0.55859
					l0.43164,0.37891c-0.52148,0.54883-1.03516,0.74707-1.71875,0.74707c-1.35059,0-2.04395-1.00879-2.04395-2.26855
					c0-1.25195,0.68457-2.31445,1.97168-2.31445c1.35938,0,1.92676,1.0625,1.92676,2.07129
					C99.91895,142.28632,99.90918,142.43964,99.8916,142.54706z M96.6416,142.0246h2.68262
					c0-0.01758-0.00879-0.0625-0.00879-0.14355c-0.04492-0.7207-0.50391-1.26953-1.32324-1.26953
					C97.19043,140.61151,96.69531,141.24139,96.6416,142.0246z"/>
				<path d="M103.86914,140.2785l-0.30566,0.50391c-0.20703-0.08984-0.39648-0.13477-0.58496-0.13477
					c-0.68457,0-1.18848,0.5127-1.18848,1.47656v2.47559h-0.62109v-4.43848h0.62109v0.66602
					c0.32422-0.58496,0.86426-0.73828,1.31445-0.73828C103.37402,140.08905,103.62598,140.14374,103.86914,140.2785z"/>
			</g>
			<g id="Group_630" transform="translate(0.095 116.68)">
				<rect id="Rectangle_1651" x="0" y="0" fill="#00FFB6" width="19.223" height="1.353"/>
				<rect id="Rectangle_1652" x="0" y="1.354" fill="#00FFB6" width="19.223" height="5.051"/>
				<rect id="Rectangle_1653" x="0" y="6.406" fill="#00FFB6" width="19.223" height="4.449"/>
				<rect id="Rectangle_1654" x="0" y="10.857" fill="#00FFB6" width="19.223" height="2.736"/>
				<rect id="Rectangle_1655" x="0" y="13.594" fill="#00FFB6" width="19.223" height="0.76"/>
				<rect id="Rectangle_1656" x="0" y="14.355" fill="#00FFB6" width="19.223" height="1.749"/>
				<rect id="Rectangle_1657" x="0" y="16.105" fill="#00FFB6" width="19.223" height="0.518"/>
				<rect id="Rectangle_1658" x="0" y="16.624" fill="#00FFB6" width="19.223" height="2.483"/>
			</g>
			<g id="Group_631" transform="translate(19.891 135.788)">
				<rect id="Rectangle_1659" x="0" y="0" fill="#5151FC" width="19.223" height="4.158"/>
			</g>
			<path id="Tracciato_148130" fill="none" stroke="#000000" stroke-width="0.5" stroke-dasharray="2" d="M38.73682,134.32397
				c0-14.21899-12.9458-17.64398-18.58789-17.64398"/>
		</g>
		<path id="Tracciato_157314" fill="#5151FC" d="M5.559,27h9.882c2.91318-0.14701,5.3976,2.08758,5.559,5
			c-0.1614,2.91242-2.64582,5.14701-5.559,5H5.559C2.64582,37.14701,0.1614,34.91242,0,32
			C0.1614,29.08758,2.64582,26.85299,5.559,27z"/>
	</g>
</g>
</svg>
