<?xml version="1.0" encoding="utf-8"?>
<!-- Generator: Adobe Illustrator 24.3.0, SVG Export Plug-In . SVG Version: 6.00 Build 0)  -->
<svg version="1.1" id="Livello_1" xmlns="http://www.w3.org/2000/svg" xmlns:xlink="http://www.w3.org/1999/xlink" x="0px" y="0px"
	 width="271px" height="208.9px" viewBox="0 0 271 208.9" style="enable-background:new 0 0 271 208.9;" xml:space="preserve">
<style type="text/css">
	.st0{fill:none;stroke:#000000;stroke-width:0.5;stroke-miterlimit:10;}
	.st1{fill:none;stroke:#000000;stroke-width:0.5;}
	.st2{fill:#00FFCC;}
	.st3{fill:#6666FF;}
	.st4{fill:none;stroke:#666666;stroke-width:0.496;stroke-dasharray:1.982;}
	.st5{enable-background:new    ;}
	.st6{fill:#5151FC;}
	.st7{fill:none;stroke:#000000;stroke-miterlimit:10;}
	.st8{fill:none;stroke:#00FFCC;stroke-miterlimit:10;}
	.st9{fill:none;stroke:#6666FF;stroke-miterlimit:10;}
	.st10{fill:#C6CACF;}
	.st11{fill:none;}
</style>
<line id="Linea_293" class="st0" x1="71.3" y1="158.8" x2="185.9" y2="158.8"/>
<line id="Linea_294" class="st0" x1="64" y1="158.5" x2="64" y2="36.3"/>
<line id="Linea_295" class="st1" x1="62" y1="158.5" x2="66" y2="158.5"/>
<line id="Linea_296" class="st1" x1="62" y1="36.3" x2="66" y2="36.3"/>
<path id="Tracciato_116441" class="st2" d="M76.6,67.3h45.5v63H76.6C76.6,130.3,76.6,67.3,76.6,67.3z"/>
<rect id="Rettangolo_9622" x="122.1" y="77.3" class="st3" width="45.5" height="43"/>
<line id="Linea_297" class="st4" x1="122.1" y1="76.3" x2="76.6" y2="76.3"/>
<line id="Linea_298" class="st4" x1="122.1" y1="119" x2="76.6" y2="119"/>
<g class="st5">
	<path d="M36.2,33h0.7v7h-0.7V33z"/>
	<path d="M42.9,37v3h-0.7v-2.8c0-1.1-0.3-1.5-1.1-1.5c-0.9,0-1.5,0.8-1.5,2.2V40h-0.7v-4.9h0.7v0.7c0.3-0.5,0.9-0.8,1.6-0.8
		C42.3,35,42.9,35.7,42.9,37z"/>
	<path d="M44.5,33h0.8v1h-0.8V33z M44.6,35.1h0.7V40h-0.7V35.1z"/>
	<path d="M50.6,35.6l-3.2,3.8h3.2V40h-4.1v-0.5l3.3-3.8h-3.1v-0.6h3.9V35.6z"/>
	<path d="M51.9,33h0.8v1h-0.8V33z M51.9,35.1h0.7V40h-0.7V35.1z"/>
	<path d="M54,37.5c0-1.5,0.9-2.5,2.4-2.5c1.4,0,2.4,1.1,2.4,2.5c0,1.4-1,2.5-2.4,2.5S54,39,54,37.5z M58.1,37.5
		c0-1.1-0.6-1.9-1.7-1.9c-1.1,0-1.7,0.8-1.7,1.9c0,1.1,0.6,1.9,1.7,1.9C57.4,39.5,58.1,38.6,58.1,37.5z"/>
</g>
<g class="st5">
	<path d="M40.7,152.1h4.7v0.7h-4v2.4h3.5v0.7h-3.5v3.2h-0.7C40.7,159.1,40.7,152.1,40.7,152.1z"/>
	<path d="M46.6,152.1h0.8v1h-0.8V152.1z M46.7,154.1h0.7v4.9h-0.7V154.1z"/>
	<path d="M53.1,156v3h-0.7v-2.8c0-1.1-0.3-1.5-1.1-1.5c-0.9,0-1.5,0.8-1.5,2.2v2.2h-0.7v-4.9h0.7v0.7c0.3-0.5,0.9-0.8,1.6-0.8
		C52.6,154,53.1,154.7,53.1,156z"/>
	<path d="M58.7,156.8h-3.6c0,1.1,0.6,1.7,1.6,1.7c0.5,0,1-0.1,1.4-0.6l0.5,0.4c-0.6,0.6-1.1,0.8-1.9,0.8c-1.5,0-2.3-1.1-2.3-2.5
		c0-1.4,0.8-2.6,2.2-2.6c1.5,0,2.1,1.2,2.1,2.3C58.8,156.5,58.7,156.7,58.7,156.8z M55.1,156.2h3c0,0,0-0.1,0-0.2
		c0-0.8-0.6-1.4-1.5-1.4C55.7,154.6,55.2,155.3,55.1,156.2z"/>
</g>
<g class="st5">
	<path d="M7.4,1.5l-2.7,7H4.1l-2.8-7h0.8l2.3,5.9l2.3-5.9C6.6,1.5,7.4,1.5,7.4,1.5z"/>
	<path d="M7.7,5.9c0-1.5,0.9-2.5,2.4-2.5c1.4,0,2.4,1.1,2.4,2.5c0,1.4-1,2.5-2.4,2.5S7.7,7.4,7.7,5.9z M11.7,5.9
		c0-1.1-0.6-1.9-1.7-1.9C9,4,8.4,4.8,8.4,5.9c0,1.1,0.6,1.9,1.7,1.9C11.1,7.9,11.7,7,11.7,5.9z"/>
	<path d="M13.8,7.3V1.5h0.7v5.9c0,0.3,0.1,0.6,0.4,0.6c0.1,0,0.3,0,0.5-0.1l0,0.6c-0.2,0.1-0.5,0.1-0.7,0.1
		C14.1,8.5,13.8,8.1,13.8,7.3z"/>
	<path d="M20.3,3.5v4.9h-0.7V7.7c-0.3,0.5-1,0.8-1.6,0.8c-1.1,0-1.6-0.8-1.6-2v-3H17v2.8c0,0.8,0.1,1.5,1.1,1.5c1,0,1.5-0.8,1.5-2.1
		V3.5H20.3z"/>
	<path d="M28.8,5.3v3.1h-0.7V5.5c0-0.4,0-1.5-1.1-1.5c-1,0-1.3,0.9-1.3,2v2.4h-0.7V5.6C25.1,4.8,24.9,4,24,4c-1,0-1.2,0.9-1.2,2v2.4
		h-0.7l0-4.9h0.7v0.6c0.3-0.5,0.8-0.7,1.4-0.7c0.7,0,1.2,0.3,1.4,0.9c0.3-0.6,0.9-0.9,1.6-0.9C28.4,3.4,28.8,4.2,28.8,5.3z"/>
	<path d="M34.4,6.1h-3.6c0,1.1,0.6,1.7,1.6,1.7c0.5,0,1-0.1,1.4-0.6l0.5,0.4c-0.6,0.6-1.1,0.8-1.9,0.8c-1.5,0-2.3-1.1-2.3-2.5
		c0-1.4,0.8-2.6,2.2-2.6c1.5,0,2.1,1.2,2.1,2.3C34.5,5.8,34.5,6,34.4,6.1z M30.8,5.6h3c0,0,0-0.1,0-0.2c0-0.8-0.6-1.4-1.5-1.4
		C31.5,4,30.9,4.7,30.8,5.6z"/>
</g>
<g class="st5">
	<path class="st2" d="M76.5,19.5l0.7-0.2c0.1,0.9,0.8,1.5,1.7,1.5c1,0,1.5-0.5,1.5-1.2c0-0.8-0.4-1.1-1.7-1.6
		c-1.4-0.5-1.9-1-1.9-1.9c0-1.1,0.8-1.8,2-1.8c0.9,0,1.6,0.4,2,1.1l-0.6,0.4c-0.3-0.5-0.8-0.9-1.4-0.9c-0.7,0-1.2,0.5-1.2,1.1
		c0,0.6,0.5,1,1.6,1.4c1.5,0.6,2,1.1,2,2.1c0,1.2-0.8,1.9-2.2,1.9C77.6,21.4,76.7,20.7,76.5,19.5z"/>
	<path class="st2" d="M86.6,19.1H83c0,1.1,0.6,1.7,1.6,1.7c0.5,0,1-0.1,1.4-0.6l0.5,0.4c-0.6,0.6-1.1,0.8-1.9,0.8
		c-1.5,0-2.3-1.1-2.3-2.5c0-1.4,0.8-2.6,2.2-2.6c1.5,0,2.1,1.2,2.1,2.3C86.7,18.8,86.7,19,86.6,19.1z M83,18.5h3c0,0,0-0.1,0-0.2
		c0-0.8-0.6-1.4-1.5-1.4C83.6,16.9,83.1,17.6,83,18.5z"/>
	<path class="st2" d="M92.2,16.4v7h-0.7v-2.7c-0.4,0.5-0.9,0.7-1.6,0.7c-1.4,0-2.2-1.1-2.2-2.5c0-1.5,0.8-2.5,2.2-2.5
		c0.7,0,1.3,0.3,1.6,0.8v-0.7H92.2z M91.6,18.9c0-1.2-0.6-1.9-1.6-1.9c-1,0-1.6,0.8-1.6,1.9c0,1.1,0.5,1.9,1.6,1.9
		C91,20.8,91.6,20,91.6,18.9z"/>
	<path class="st2" d="M97.8,16.4v4.9h-0.7v-0.7c-0.4,0.5-1,0.8-1.6,0.8c-1.1,0-1.6-0.8-1.6-2v-3h0.7v2.8c0,0.8,0.1,1.5,1.1,1.5
		c1,0,1.5-0.8,1.5-2.1v-2.3C97.1,16.4,97.8,16.4,97.8,16.4z"/>
	<path class="st2" d="M103.5,19.1h-3.6c0,1.1,0.6,1.7,1.6,1.7c0.5,0,1-0.1,1.4-0.6l0.5,0.4c-0.6,0.6-1.1,0.8-1.9,0.8
		c-1.5,0-2.3-1.1-2.3-2.5c0-1.4,0.8-2.6,2.2-2.6c1.5,0,2.1,1.2,2.1,2.3C103.5,18.8,103.5,19,103.5,19.1z M99.9,18.5h3
		c0,0,0-0.1,0-0.2c0-0.8-0.6-1.4-1.5-1.4C100.5,16.9,99.9,17.6,99.9,18.5z"/>
	<path class="st2" d="M108.8,18.3v3h-0.7v-2.8c0-1.1-0.3-1.5-1.1-1.5c-0.9,0-1.5,0.8-1.5,2.2v2.2h-0.7v-4.9h0.7v0.7
		c0.3-0.5,0.9-0.8,1.6-0.8C108.3,16.3,108.8,17,108.8,18.3z"/>
	<path class="st2" d="M114.1,17l-3.2,3.8h3.2v0.6H110v-0.5l3.3-3.8h-3.1v-0.6h3.9C114.1,16.4,114.1,17,114.1,17z"/>
	<path class="st2" d="M119.1,18.3v3.1h-0.6l0-0.8c-0.4,0.5-1,0.8-1.8,0.8c-1.1,0-1.7-0.6-1.7-1.5c0-0.5,0.2-0.9,0.6-1.1
		c0.4-0.2,0.9-0.3,1.9-0.3h1v-0.2c0-0.9-0.4-1.3-1.3-1.3c-0.6,0-1.1,0.3-1.5,0.8l-0.5-0.4c0.5-0.7,1.2-1,2-1
		C118.4,16.3,119.1,17.1,119.1,18.3z M118.4,19.1L118.4,19.1l-0.9-0.1c-0.9,0-1.3,0.1-1.5,0.2c-0.2,0.1-0.3,0.4-0.3,0.6
		c0,0.5,0.5,0.9,1.2,0.9C117.8,20.9,118.4,20.2,118.4,19.1z"/>
	<path class="st2" d="M125.4,17.8l-2.4-3.5h0.9l2,3l2-3h0.8l-2.4,3.5l2.4,3.5h-0.9l-2.1-3l-2,3H123L125.4,17.8z"/>
</g>
<g class="st5">
	<path class="st6" d="M165.7,38.2l0.7-0.2c0.1,0.9,0.8,1.5,1.7,1.5c1,0,1.5-0.5,1.5-1.2c0-0.8-0.4-1.1-1.7-1.6
		c-1.4-0.5-1.9-1-1.9-1.9c0-1.1,0.8-1.8,2-1.8c0.9,0,1.6,0.4,2,1.1l-0.6,0.4c-0.3-0.5-0.8-0.9-1.4-0.9c-0.7,0-1.2,0.5-1.2,1.1
		c0,0.6,0.5,1,1.6,1.4c1.5,0.6,2,1.1,2,2.1c0,1.2-0.8,1.9-2.2,1.9C166.9,40.1,165.9,39.3,165.7,38.2z"/>
	<path class="st6" d="M175.9,37.7h-3.6c0,1.1,0.6,1.7,1.6,1.7c0.5,0,1-0.1,1.4-0.6l0.5,0.4c-0.6,0.6-1.1,0.8-1.9,0.8
		c-1.5,0-2.3-1.1-2.3-2.5c0-1.4,0.8-2.6,2.2-2.6c1.5,0,2.1,1.2,2.1,2.3C175.9,37.4,175.9,37.6,175.9,37.7z M172.3,37.1h3
		c0,0,0-0.1,0-0.2c0-0.8-0.6-1.4-1.5-1.4C172.9,35.6,172.3,36.3,172.3,37.1z"/>
	<path class="st6" d="M181.4,35.1v7h-0.7v-2.7c-0.4,0.5-0.9,0.7-1.6,0.7c-1.4,0-2.2-1.1-2.2-2.5c0-1.5,0.8-2.5,2.2-2.5
		c0.7,0,1.3,0.3,1.6,0.8v-0.7C180.7,35.1,181.4,35.1,181.4,35.1z M180.8,37.5c0-1.2-0.6-1.9-1.6-1.9c-1,0-1.6,0.8-1.6,1.9
		c0,1.1,0.5,1.9,1.6,1.9C180.2,39.5,180.8,38.7,180.8,37.5z"/>
	<path class="st6" d="M187,35.1V40h-0.7v-0.7c-0.4,0.5-1,0.8-1.6,0.8c-1.1,0-1.6-0.8-1.6-2v-3h0.7v2.8c0,0.8,0.1,1.5,1.1,1.5
		c1,0,1.5-0.8,1.5-2.1v-2.3L187,35.1L187,35.1z"/>
	<path class="st6" d="M192.7,37.7h-3.6c0,1.1,0.6,1.7,1.6,1.7c0.5,0,1-0.1,1.4-0.6l0.5,0.4c-0.6,0.6-1.1,0.8-1.9,0.8
		c-1.5,0-2.3-1.1-2.3-2.5c0-1.4,0.8-2.6,2.2-2.6c1.5,0,2.1,1.2,2.1,2.3C192.7,37.4,192.7,37.6,192.7,37.7z M189.1,37.1h3
		c0,0,0-0.1,0-0.2c0-0.8-0.6-1.4-1.5-1.4C189.7,35.6,189.2,36.3,189.1,37.1z"/>
	<path class="st6" d="M198.1,37v3h-0.7v-2.8c0-1.1-0.3-1.5-1.1-1.5c-0.9,0-1.5,0.8-1.5,2.2V40h-0.7v-4.9h0.7v0.7
		c0.3-0.5,0.9-0.8,1.6-0.8C197.5,35,198.1,35.7,198.1,37z"/>
	<path class="st6" d="M203.3,35.6l-3.2,3.8h3.2V40h-4.1v-0.5l3.3-3.8h-3.1v-0.6h3.9V35.6z"/>
	<path class="st6" d="M208.3,36.9V40h-0.6l0-0.8c-0.4,0.5-1,0.8-1.8,0.8c-1.1,0-1.7-0.6-1.7-1.5c0-0.5,0.2-0.9,0.6-1.1
		c0.4-0.2,0.9-0.3,1.9-0.3h1v-0.2c0-0.9-0.5-1.3-1.3-1.3c-0.6,0-1.1,0.3-1.5,0.8l-0.5-0.4c0.5-0.7,1.2-1,2-1
		C207.6,35,208.3,35.7,208.3,36.9z M207.6,37.8L207.6,37.8l-0.9-0.1c-0.9,0-1.3,0.1-1.5,0.2c-0.2,0.1-0.3,0.4-0.3,0.6
		c0,0.5,0.5,0.9,1.2,0.9C207,39.5,207.6,38.8,207.6,37.8z"/>
	<path class="st6" d="M214.8,37.3l-2.7-4.3h0.8l2.2,3.6l2.2-3.6h0.8l-2.7,4.3V40h-0.7V37.3z"/>
</g>
<g class="st5">
	<path d="M220.7,37.6c0-1.3,0.7-2.6,2.2-2.6c0.9,0,1.6,0.4,2,1.4l-0.7,0.3c-0.2-0.6-0.7-1-1.3-1c-1,0-1.5,0.9-1.5,1.9
		c0,1,0.5,1.9,1.5,1.9c0.6,0,1.1-0.4,1.3-1l0.6,0.2c-0.3,0.9-1,1.4-1.9,1.4C221.5,40.1,220.7,38.9,220.7,37.6z"/>
	<path d="M230.1,37v3h-0.7v-2.8c0-1.1-0.3-1.5-1.1-1.5c-0.9,0-1.5,0.8-1.5,2.1V40h-0.7v-7h0.7v2.8c0.3-0.5,0.9-0.8,1.6-0.8
		C229.5,35,230.1,35.7,230.1,37z"/>
	<path d="M235.7,37.7h-3.6c0,1.1,0.6,1.7,1.6,1.7c0.5,0,1-0.1,1.4-0.6l0.5,0.4c-0.6,0.6-1.1,0.8-1.9,0.8c-1.5,0-2.3-1.1-2.3-2.5
		c0-1.4,0.8-2.6,2.2-2.6c1.5,0,2.1,1.2,2.1,2.3C235.7,37.4,235.7,37.6,235.7,37.7z M232.1,37.1h3c0,0,0-0.1,0-0.2
		c0-0.8-0.6-1.4-1.5-1.4C232.7,35.6,232.1,36.3,232.1,37.1z"/>
	<path d="M239.3,38.8l0.6-0.3c0.2,0.5,0.7,0.9,1.4,0.9c0.7,0,1.1-0.3,1.1-0.8c0-1.3-2.8-0.5-2.8-2.2c0-0.9,0.7-1.4,1.7-1.4
		c0.8,0,1.4,0.3,1.8,1l-0.5,0.3c-0.2-0.4-0.6-0.7-1.2-0.7s-1,0.2-1,0.7c0,1.2,2.8,0.4,2.8,2.3c0,1-0.8,1.5-1.8,1.5
		C240.4,40.1,239.6,39.6,239.3,38.8z"/>
	<path d="M244.4,33h0.8v1h-0.8V33z M244.5,35.1h0.7V40h-0.7V35.1z"/>
</g>
<g class="st5">
	<path d="M165.6,51.8l0.6-0.3c0.2,0.5,0.7,0.9,1.4,0.9c0.7,0,1.1-0.3,1.1-0.8c0-1.3-2.8-0.5-2.8-2.2c0-0.9,0.7-1.4,1.7-1.4
		c0.8,0,1.4,0.3,1.8,1l-0.5,0.3c-0.2-0.4-0.6-0.7-1.2-0.7c-0.6,0-1,0.2-1,0.7c0,1.2,2.8,0.4,2.8,2.3c0,1-0.8,1.5-1.8,1.5
		C166.7,53.1,165.9,52.6,165.6,51.8z"/>
	<path d="M170,48.1h0.8l1.5,4l1.6-4h0.8l-2,4.9H172L170,48.1z"/>
	<path d="M175.2,50.5c0-1.5,0.9-2.5,2.4-2.5c1.4,0,2.4,1.1,2.4,2.5c0,1.4-1,2.5-2.4,2.5S175.2,52,175.2,50.5z M179.2,50.5
		c0-1.1-0.6-1.9-1.7-1.9c-1.1,0-1.7,0.8-1.7,1.9c0,1.1,0.6,1.9,1.7,1.9C178.6,52.5,179.2,51.6,179.2,50.5z"/>
	<path d="M181.3,51.9V46h0.7v5.9c0,0.3,0.1,0.6,0.4,0.6c0.2,0,0.3,0,0.5-0.1l0,0.6c-0.2,0.1-0.5,0.1-0.7,0.1
		C181.6,53.1,181.3,52.7,181.3,51.9z"/>
	<path d="M187.8,53.8c0,0.9-0.9,1.4-2.1,1.4c-1.4,0-2.2-0.5-2.2-1.5c0-0.1,0-0.2,0-0.2l0.8-0.7c-0.4-0.2-0.6-0.5-0.6-0.9
		c0-0.4,0.2-0.7,0.5-0.9c-0.3-0.3-0.4-0.7-0.4-1.1c0-1,0.8-1.7,1.9-1.7c0.5,0,0.9,0.1,1.2,0.4l0.7-0.6l0.4,0.5l-0.7,0.6
		c0.2,0.3,0.3,0.6,0.3,0.9c0,1-0.8,1.7-1.9,1.7c-0.4,0-0.7-0.1-1-0.2c-0.2,0.1-0.3,0.3-0.3,0.5c0,0.5,0.6,0.6,1.3,0.7
		C186.7,52.5,187.8,52.7,187.8,53.8z M187.2,53.8c0-0.6-0.8-0.7-1.6-0.8c-0.2,0-0.4-0.1-0.7-0.1l-0.7,0.6c0,0.1,0,0.1,0,0.1
		c0,0.7,0.7,0.9,1.5,0.9C186.6,54.5,187.2,54.3,187.2,53.8z M184.5,49.7c0,0.6,0.5,1.1,1.2,1.1s1.2-0.5,1.2-1.1
		c0-0.7-0.5-1.1-1.2-1.1C185,48.6,184.5,49,184.5,49.7z"/>
	<path d="M192.9,50.7h-3.6c0,1.1,0.6,1.7,1.6,1.7c0.5,0,1-0.1,1.4-0.6l0.5,0.4c-0.6,0.6-1.1,0.8-1.9,0.8c-1.5,0-2.3-1.1-2.3-2.5
		c0-1.4,0.8-2.6,2.2-2.6c1.5,0,2.1,1.2,2.1,2.3C192.9,50.4,192.9,50.6,192.9,50.7z M189.3,50.1h3c0,0,0-0.1,0-0.2
		c0-0.8-0.6-1.4-1.5-1.4C189.9,48.6,189.4,49.3,189.3,50.1z"/>
	<path d="M201.2,46v7h-0.7v-0.7c-0.4,0.5-0.9,0.7-1.6,0.7c-1.4,0-2.2-1.1-2.2-2.5c0-1.5,0.8-2.5,2.2-2.5c0.7,0,1.3,0.3,1.6,0.8V46
		C200.5,46,201.2,46,201.2,46z M200.6,50.5c0-1.2-0.6-1.9-1.6-1.9c-1,0-1.6,0.8-1.6,1.9c0,1.1,0.5,1.9,1.6,1.9
		C200,52.5,200.6,51.7,200.6,50.5z"/>
	<path d="M206.8,48.1V53h-0.7v-0.7c-0.3,0.5-1,0.8-1.6,0.8c-1.1,0-1.6-0.8-1.6-2v-3h0.7v2.8c0,0.8,0.1,1.5,1.1,1.5
		c1,0,1.5-0.8,1.5-2.1v-2.3L206.8,48.1L206.8,48.1z"/>
	<path d="M211.6,48.2l-0.3,0.6c-0.2-0.1-0.4-0.2-0.6-0.2c-0.8,0-1.3,0.6-1.3,1.6V53h-0.7v-4.9h0.7v0.7c0.4-0.6,1-0.8,1.5-0.8
		C211,48,211.3,48.1,211.6,48.2z"/>
	<path d="M216.3,49.9V53h-0.6l0-0.8c-0.4,0.5-1,0.8-1.8,0.8c-1.1,0-1.7-0.6-1.7-1.5c0-0.5,0.2-0.9,0.6-1.1c0.4-0.2,0.9-0.3,1.9-0.3
		h1v-0.2c0-0.9-0.4-1.3-1.3-1.3c-0.6,0-1.1,0.3-1.5,0.8l-0.5-0.4c0.5-0.7,1.2-1,2-1C215.6,48,216.3,48.7,216.3,49.9z M215.6,50.8
		L215.6,50.8l-0.9-0.1c-0.9,0-1.3,0.1-1.5,0.2c-0.2,0.1-0.3,0.4-0.3,0.6c0,0.5,0.5,0.9,1.2,0.9C215,52.5,215.6,51.8,215.6,50.8z"/>
	<path d="M221.9,50v3h-0.7v-2.8c0-1.1-0.3-1.5-1.1-1.5c-0.9,0-1.5,0.8-1.5,2.2V53H218v-4.9h0.7v0.7c0.3-0.5,0.9-0.8,1.6-0.8
		C221.3,48,221.9,48.7,221.9,50z"/>
	<path d="M225.6,53c-0.3,0.1-0.5,0.1-0.8,0.1c-0.7,0-1.1-0.4-1.1-1.2v-3.2h-0.8v-0.6h0.8v-1.4l0.7-0.5v1.9h1.2v0.6h-1.2v3.1
		c0,0.5,0.2,0.7,0.6,0.7c0.2,0,0.4,0,0.6-0.1L225.6,53z"/>
	<path d="M230.8,50.7h-3.6c0,1.1,0.6,1.7,1.6,1.7c0.5,0,1-0.1,1.4-0.6l0.5,0.4c-0.6,0.6-1.1,0.8-1.9,0.8c-1.5,0-2.3-1.1-2.3-2.5
		c0-1.4,0.8-2.6,2.2-2.6c1.5,0,2.1,1.2,2.1,2.3C230.8,50.4,230.8,50.6,230.8,50.7z M227.2,50.1h3c0,0,0-0.1,0-0.2
		c0-0.8-0.6-1.4-1.5-1.4C227.8,48.6,227.2,49.3,227.2,50.1z"/>
	<path d="M234.9,51.9V46h0.7v5.9c0,0.3,0.1,0.6,0.4,0.6c0.2,0,0.3,0,0.5-0.1l0,0.6c-0.2,0.1-0.5,0.1-0.7,0.1
		C235.3,53.1,234.9,52.7,234.9,51.9z"/>
	<path d="M241.3,49.9V53h-0.6l0-0.8c-0.4,0.5-1,0.8-1.8,0.8c-1.1,0-1.7-0.6-1.7-1.5c0-0.5,0.2-0.9,0.6-1.1c0.4-0.2,0.9-0.3,1.9-0.3
		h1v-0.2c0-0.9-0.5-1.3-1.3-1.3c-0.6,0-1.1,0.3-1.5,0.8l-0.5-0.4c0.5-0.7,1.2-1,2-1C240.6,48,241.3,48.7,241.3,49.9z M240.6,50.8
		L240.6,50.8l-0.9-0.1c-0.9,0-1.3,0.1-1.5,0.2c-0.2,0.1-0.3,0.4-0.3,0.6c0,0.5,0.5,0.9,1.2,0.9C240,52.5,240.6,51.8,240.6,50.8z"/>
</g>
<g class="st5">
	<path class="st2" d="M165.6,64.8l0.6-0.3c0.2,0.5,0.7,0.9,1.4,0.9c0.7,0,1.1-0.3,1.1-0.8c0-1.3-2.8-0.5-2.8-2.2
		c0-0.9,0.7-1.4,1.7-1.4c0.8,0,1.4,0.3,1.8,1l-0.5,0.3c-0.2-0.4-0.6-0.7-1.2-0.7c-0.6,0-1,0.2-1,0.7c0,1.2,2.8,0.4,2.8,2.3
		c0,1-0.8,1.5-1.8,1.5C166.7,66.1,165.9,65.6,165.6,64.8z"/>
	<path class="st2" d="M174.6,63.7H171c0,1.1,0.6,1.7,1.6,1.7c0.5,0,1-0.1,1.4-0.6l0.5,0.4c-0.6,0.6-1.1,0.8-1.9,0.8
		c-1.5,0-2.3-1.1-2.3-2.5c0-1.4,0.8-2.6,2.2-2.6c1.5,0,2.1,1.2,2.1,2.3C174.7,63.4,174.7,63.6,174.6,63.7z M171,63.1h3
		c0,0,0-0.1,0-0.2c0-0.8-0.6-1.4-1.5-1.4C171.6,61.6,171.1,62.3,171,63.1z"/>
	<path class="st2" d="M180.2,61.1v7h-0.7v-2.7c-0.4,0.5-0.9,0.7-1.6,0.7c-1.4,0-2.2-1.1-2.2-2.5c0-1.5,0.8-2.5,2.2-2.5
		c0.7,0,1.3,0.3,1.6,0.8v-0.7H180.2z M179.6,63.5c0-1.2-0.6-1.9-1.6-1.9c-1,0-1.6,0.8-1.6,1.9c0,1.1,0.5,1.9,1.6,1.9
		C179,65.5,179.6,64.7,179.6,63.5z"/>
	<path class="st2" d="M185.8,61.1V66h-0.7v-0.7c-0.4,0.5-1,0.8-1.6,0.8c-1.1,0-1.6-0.8-1.6-2v-3h0.7v2.8c0,0.8,0.1,1.5,1.1,1.5
		c1,0,1.5-0.8,1.5-2.1v-2.3L185.8,61.1L185.8,61.1z"/>
	<path class="st2" d="M191.5,63.7h-3.6c0,1.1,0.6,1.7,1.6,1.7c0.5,0,1-0.1,1.4-0.6l0.5,0.4c-0.6,0.6-1.1,0.8-1.9,0.8
		c-1.5,0-2.3-1.1-2.3-2.5c0-1.4,0.8-2.6,2.2-2.6c1.5,0,2.1,1.2,2.1,2.3C191.5,63.4,191.5,63.6,191.5,63.7z M187.9,63.1h3
		c0,0,0-0.1,0-0.2c0-0.8-0.6-1.4-1.5-1.4C188.5,61.6,187.9,62.3,187.9,63.1z"/>
	<path class="st2" d="M196.8,63v3h-0.7v-2.8c0-1.1-0.3-1.5-1.1-1.5c-0.9,0-1.5,0.8-1.5,2.2V66h-0.7v-4.9h0.7v0.7
		c0.3-0.5,0.9-0.8,1.6-0.8C196.3,61,196.8,61.7,196.8,63z"/>
	<path class="st2" d="M202.1,61.6l-3.2,3.8h3.2V66H198v-0.5l3.3-3.8h-3.1v-0.6h3.9V61.6z"/>
	<path class="st2" d="M207.1,62.9V66h-0.6l0-0.8c-0.4,0.5-1,0.8-1.8,0.8c-1.1,0-1.7-0.6-1.7-1.5c0-0.5,0.2-0.9,0.6-1.1
		c0.4-0.2,0.9-0.3,1.9-0.3h1v-0.2c0-0.9-0.4-1.3-1.3-1.3c-0.6,0-1.1,0.3-1.5,0.8l-0.5-0.4c0.5-0.7,1.2-1,2-1
		C206.4,61,207.1,61.7,207.1,62.9z M206.4,63.8L206.4,63.8l-0.9-0.1c-0.9,0-1.3,0.1-1.5,0.2c-0.2,0.1-0.3,0.4-0.3,0.6
		c0,0.5,0.5,0.9,1.2,0.9C205.8,65.5,206.4,64.8,206.4,63.8z"/>
	<path class="st2" d="M213.4,62.5L211,59h0.9l2,3l2-3h0.8l-2.4,3.5l2.4,3.5h-0.9l-2.1-3l-2,3H211L213.4,62.5z"/>
</g>
<line id="Linea_299" class="st1" x1="99.6" y1="71.4" x2="99.6" y2="27.1"/>
<rect id="Rettangolo_9623" x="76.6" y="36.3" class="st7" width="45.5" height="122.2"/>
<path id="Tracciato_108889" class="st0" d="M37.8,5.9c21.1,0,20.6,30.9,36.8,30.9"/>
<g class="st5">
	<path d="M77.7,168.7h0.7v6.3h3.2v0.7h-3.9V168.7z"/>
	<path d="M83.1,168.7h0.7v7h-0.7V168.7z"/>
	<path d="M91.4,168.7l-2.7,7h-0.6l-2.8-7h0.8l2.3,5.9l2.3-5.9H91.4z"/>
	<path d="M92.9,168.7h4.6v0.7h-3.9v2.4h3.5v0.7h-3.5v2.6h3.9v0.7h-4.6V168.7z"/>
	<path d="M99.2,168.7h0.7v6.3h3.2v0.7h-3.9V168.7z"/>
	<path d="M104.6,168.7h0.7v6.3h3.2v0.7h-3.9V168.7z"/>
	<path d="M109.1,172.2c0-2.2,1.3-3.6,3.2-3.6c1.9,0,3.2,1.4,3.2,3.6c0,2.1-1.3,3.6-3.2,3.6C110.4,175.8,109.1,174.4,109.1,172.2z
		 M114.8,172.2c0-1.8-1-2.9-2.5-2.9s-2.5,1.1-2.5,2.9c0,1.8,1,2.9,2.5,2.9S114.8,174,114.8,172.2z"/>
</g>
<g class="st5">
	<path d="M125.3,168.7h0.7v6.3h3.2v0.7h-3.9V168.7z"/>
	<path d="M130.6,168.7h0.7v7h-0.7V168.7z"/>
	<path d="M138.9,168.7l-2.7,7h-0.6l-2.8-7h0.8l2.3,5.9l2.3-5.9H138.9z"/>
	<path d="M140.4,168.7h4.6v0.7h-3.9v2.4h3.5v0.7h-3.5v2.6h3.9v0.7h-4.6V168.7z"/>
	<path d="M146.8,168.7h0.7v6.3h3.2v0.7h-3.9V168.7z"/>
	<path d="M152.1,168.7h0.7v6.3h3.2v0.7h-3.9V168.7z"/>
	<path d="M156.7,172.2c0-2.2,1.3-3.6,3.2-3.6c1.9,0,3.2,1.4,3.2,3.6c0,2.1-1.3,3.6-3.2,3.6C158,175.8,156.7,174.4,156.7,172.2z
		 M162.3,172.2c0-1.8-1-2.9-2.5-2.9c-1.5,0-2.5,1.1-2.5,2.9c0,1.8,1,2.9,2.5,2.9C161.4,175.1,162.3,174,162.3,172.2z"/>
	<path d="M171.7,175v0.6h-4.8v-0.6c1.6-1,3.8-2.5,3.8-4.3c0-0.9-0.5-1.4-1.4-1.4c-1.1,0-1.5,0.8-1.5,1.8l-0.7,0
		c0-1.4,0.8-2.4,2.2-2.4c1.2,0,2.1,0.8,2.1,2.1c0,1.8-1.6,3.2-3.3,4.3H171.7z"/>
</g>
<g class="st5">
	<path d="M188.1,185.1h-2.4v-0.7h5.5v0.7h-2.4v6.3h-0.7V185.1z"/>
	<path d="M192.3,184.4h0.8v1h-0.8V184.4z M192.3,186.4h0.7v4.9h-0.7V186.4z"/>
	<path d="M199.3,188.9c0,1.5-0.7,2.5-2.2,2.5c-0.7,0-1.3-0.3-1.6-0.7v2.7h-0.7v-7h0.7v0.7c0.4-0.5,0.9-0.8,1.6-0.8
		C198.5,186.4,199.3,187.4,199.3,188.9z M198.6,188.9c0-1.2-0.6-1.9-1.6-1.9c-1,0-1.6,0.8-1.6,1.9c0,1.1,0.5,1.9,1.6,1.9
		C198.1,190.8,198.6,190,198.6,188.9z"/>
	<path d="M200.3,188.9c0-1.5,0.9-2.5,2.4-2.5c1.4,0,2.4,1.1,2.4,2.5c0,1.4-1,2.5-2.4,2.5S200.3,190.4,200.3,188.9z M204.4,188.9
		c0-1.1-0.6-1.9-1.7-1.9c-1.1,0-1.7,0.8-1.7,1.9c0,1.1,0.6,1.9,1.7,1.9C203.8,190.8,204.4,190,204.4,188.9z"/>
	<path d="M213.3,184.4v7h-0.7v-0.7c-0.4,0.5-0.9,0.7-1.6,0.7c-1.4,0-2.2-1.1-2.2-2.5c0-1.5,0.8-2.5,2.2-2.5c0.7,0,1.3,0.3,1.6,0.8
		v-2.7H213.3z M212.7,188.9c0-1.2-0.6-1.9-1.6-1.9c-1,0-1.6,0.8-1.6,1.9c0,1.1,0.5,1.9,1.6,1.9C212.1,190.8,212.7,190,212.7,188.9z"
		/>
	<path d="M215.1,184.4h0.8v1h-0.8V184.4z M215.1,186.4h0.7v4.9h-0.7V186.4z"/>
	<path d="M219.8,190.2l0.6-0.3c0.2,0.5,0.7,0.9,1.4,0.9c0.7,0,1.1-0.3,1.1-0.8c0-1.3-2.8-0.5-2.8-2.2c0-0.9,0.7-1.4,1.7-1.4
		c0.8,0,1.4,0.3,1.8,1l-0.5,0.3c-0.2-0.4-0.6-0.7-1.2-0.7s-1,0.2-1,0.7c0,1.2,2.8,0.4,2.8,2.3c0,1-0.8,1.5-1.8,1.5
		C220.9,191.5,220.1,191,219.8,190.2z"/>
	<path d="M228.9,189.1h-3.6c0,1.1,0.6,1.7,1.6,1.7c0.5,0,1-0.1,1.4-0.6l0.5,0.4c-0.6,0.6-1.1,0.8-1.9,0.8c-1.5,0-2.3-1.1-2.3-2.5
		c0-1.4,0.8-2.6,2.2-2.6c1.5,0,2.1,1.2,2.1,2.3C228.9,188.8,228.9,189,228.9,189.1z M225.3,188.5h3c0,0,0-0.1,0-0.2
		c0-0.8-0.6-1.4-1.5-1.4C225.9,186.9,225.3,187.6,225.3,188.5z"/>
	<path d="M234.4,186.4v7h-0.7v-2.7c-0.4,0.5-0.9,0.7-1.6,0.7c-1.4,0-2.2-1.1-2.2-2.5c0-1.5,0.8-2.5,2.2-2.5c0.7,0,1.3,0.3,1.6,0.8
		v-0.7H234.4z M233.8,188.9c0-1.2-0.6-1.9-1.6-1.9c-1,0-1.6,0.8-1.6,1.9c0,1.1,0.5,1.9,1.6,1.9C233.2,190.8,233.8,190,233.8,188.9z"
		/>
	<path d="M240,186.4v4.9h-0.7v-0.7c-0.4,0.5-1,0.8-1.6,0.8c-1.1,0-1.6-0.8-1.6-2v-3h0.7v2.8c0,0.8,0.1,1.5,1.1,1.5
		c1,0,1.5-0.8,1.5-2.1v-2.3H240z"/>
	<path d="M245.7,189.1h-3.6c0,1.1,0.6,1.7,1.6,1.7c0.5,0,1-0.1,1.4-0.6l0.5,0.4c-0.6,0.6-1.1,0.8-1.9,0.8c-1.5,0-2.3-1.1-2.3-2.5
		c0-1.4,0.8-2.6,2.2-2.6c1.5,0,2.1,1.2,2.1,2.3C245.7,188.8,245.7,189,245.7,189.1z M242.1,188.5h3c0,0,0-0.1,0-0.2
		c0-0.8-0.6-1.4-1.5-1.4C242.7,186.9,242.2,187.6,242.1,188.5z"/>
	<path d="M251.1,188.4v3h-0.7v-2.8c0-1.1-0.3-1.5-1.1-1.5c-0.9,0-1.5,0.8-1.5,2.2v2.2h-0.7v-4.9h0.7v0.7c0.3-0.5,0.9-0.8,1.6-0.8
		C250.5,186.4,251.1,187,251.1,188.4z"/>
	<path d="M256.3,187l-3.2,3.8h3.2v0.6h-4.1v-0.5l3.3-3.8h-3.1v-0.6h3.9V187z"/>
	<path d="M261.3,188.3v3.1h-0.6l0-0.8c-0.4,0.5-1,0.8-1.8,0.8c-1.1,0-1.7-0.6-1.7-1.5c0-0.5,0.2-0.9,0.6-1.1
		c0.4-0.2,0.9-0.3,1.9-0.3h1v-0.2c0-0.9-0.5-1.3-1.3-1.3c-0.6,0-1.1,0.3-1.5,0.8l-0.5-0.4c0.5-0.7,1.2-1,2-1
		C260.6,186.4,261.3,187.1,261.3,188.3z M260.6,189.2L260.6,189.2l-0.9-0.1c-0.9,0-1.3,0.1-1.5,0.2c-0.2,0.1-0.3,0.4-0.3,0.6
		c0,0.5,0.5,0.9,1.2,0.9C260,190.9,260.6,190.2,260.6,189.2z"/>
</g>
<line id="Linea_301" class="st8" x1="76.6" y1="193" x2="115.9" y2="193"/>
<line id="Linea_302" class="st9" x1="124" y1="193" x2="164.2" y2="193"/>
<line id="Linea_303" class="st1" x1="183.6" y1="188.8" x2="167.6" y2="188.8"/>
<path id="Tracciato_116468" class="st1" d="M144.9,82.2c0-12.2-2.1-38.7,15.1-38.7"/>
<g class="st5">
	<path class="st10" d="M77.7,183.9h1.9c2.3,0,3.6,1.3,3.6,3.5c0,2.2-1.3,3.4-3.6,3.4h-1.9L77.7,183.9L77.7,183.9z M79.5,190.2
		c1.9,0,2.9-0.9,2.9-2.8c0-1.9-1-2.8-2.8-2.8h-1.2v5.6H79.5z"/>
	<path class="st10" d="M88.6,188.6H85c0,1.1,0.6,1.7,1.6,1.7c0.5,0,1-0.1,1.4-0.6l0.5,0.4c-0.6,0.6-1.1,0.8-1.9,0.8
		c-1.5,0-2.3-1.1-2.3-2.5c0-1.4,0.8-2.6,2.2-2.6c1.5,0,2.1,1.2,2.1,2.3C88.7,188.3,88.7,188.5,88.6,188.6z M85,188h3
		c0,0,0-0.1,0-0.2c0-0.8-0.6-1.4-1.5-1.4C85.6,186.5,85.1,187.2,85,188z"/>
	<path class="st10" d="M92.1,190.8c-0.3,0.1-0.5,0.1-0.7,0.1c-0.7,0-1.1-0.4-1.1-1.2v-3.2h-0.8V186h0.8v-1.4l0.7-0.5v1.9h1.2v0.6
		h-1.2v3.1c0,0.5,0.2,0.7,0.6,0.7c0.2,0,0.4,0,0.6-0.1L92.1,190.8z"/>
	<path class="st10" d="M95.5,190.8c-0.3,0.1-0.5,0.1-0.7,0.1c-0.7,0-1.1-0.4-1.1-1.2v-3.2h-0.8V186h0.8v-1.4l0.7-0.5v1.9h1.2v0.6
		h-1.2v3.1c0,0.5,0.2,0.7,0.6,0.7c0.2,0,0.4,0,0.6-0.1L95.5,190.8z"/>
	<path class="st10" d="M100.5,187.8v3.1h-0.6l0-0.8c-0.4,0.5-1,0.8-1.8,0.8c-1.1,0-1.7-0.6-1.7-1.5c0-0.5,0.2-0.9,0.6-1.1
		c0.4-0.2,0.9-0.3,1.9-0.3h1v-0.2c0-0.9-0.4-1.3-1.3-1.3c-0.6,0-1.1,0.3-1.5,0.8l-0.5-0.4c0.5-0.7,1.2-1,2-1
		C99.7,185.9,100.5,186.6,100.5,187.8z M99.8,188.7L99.8,188.7l-0.9-0.1c-0.9,0-1.3,0.1-1.5,0.2c-0.2,0.1-0.3,0.4-0.3,0.6
		c0,0.5,0.5,0.9,1.2,0.9C99.2,190.4,99.8,189.7,99.8,188.7z"/>
	<path class="st10" d="M106,191.6c0,0.9-0.9,1.4-2.1,1.4c-1.4,0-2.2-0.5-2.2-1.5c0-0.1,0-0.2,0-0.2l0.8-0.7
		c-0.4-0.2-0.6-0.5-0.6-0.9c0-0.4,0.2-0.7,0.5-0.9c-0.3-0.3-0.4-0.7-0.4-1.1c0-1,0.8-1.7,1.9-1.7c0.5,0,0.9,0.1,1.2,0.4l0.7-0.6
		l0.4,0.5l-0.7,0.6c0.2,0.3,0.3,0.6,0.3,0.9c0,1-0.8,1.7-1.9,1.7c-0.4,0-0.7-0.1-1-0.2c-0.2,0.1-0.3,0.3-0.3,0.5
		c0,0.5,0.6,0.6,1.3,0.7C104.8,190.4,106,190.6,106,191.6z M105.3,191.7c0-0.6-0.8-0.7-1.6-0.8c-0.2,0-0.4-0.1-0.7-0.1l-0.7,0.6
		c0,0.1,0,0.1,0,0.1c0,0.7,0.7,0.9,1.5,0.9C104.8,192.4,105.3,192.2,105.3,191.7z M102.6,187.6c0,0.6,0.5,1.1,1.2,1.1
		c0.7,0,1.2-0.5,1.2-1.1c0-0.7-0.5-1.1-1.2-1.1C103.1,186.5,102.6,186.9,102.6,187.6z"/>
	<path class="st10" d="M107.3,189.8v-5.9h0.7v5.9c0,0.3,0.1,0.6,0.4,0.6c0.1,0,0.3,0,0.5-0.1l0,0.6c-0.2,0.1-0.5,0.1-0.7,0.1
		C107.7,191,107.3,190.6,107.3,189.8z"/>
	<path class="st10" d="M110,183.9h0.8v1H110V183.9z M110.1,186h0.7v4.9h-0.7V186z"/>
	<path class="st10" d="M112.1,188.4c0-1.5,0.9-2.5,2.4-2.5c1.4,0,2.4,1.1,2.4,2.5c0,1.4-1,2.5-2.4,2.5S112.1,189.9,112.1,188.4z
		 M116.2,188.4c0-1.1-0.6-1.9-1.7-1.9c-1.1,0-1.7,0.8-1.7,1.9c0,1.1,0.6,1.9,1.7,1.9C115.5,190.4,116.2,189.5,116.2,188.4z"/>
</g>
<g class="st5">
	<path class="st10" d="M125.1,183.9h1.9c2.3,0,3.6,1.3,3.6,3.5c0,2.2-1.3,3.4-3.6,3.4h-1.9C125.1,190.9,125.1,183.9,125.1,183.9z
		 M126.9,190.2c1.9,0,2.9-0.9,2.9-2.8c0-1.9-1-2.8-2.8-2.8h-1.2v5.6H126.9z"/>
	<path class="st10" d="M136,188.6h-3.6c0,1.1,0.6,1.7,1.6,1.7c0.5,0,1-0.1,1.4-0.6l0.5,0.4c-0.6,0.6-1.1,0.8-1.9,0.8
		c-1.5,0-2.3-1.1-2.3-2.5c0-1.4,0.8-2.6,2.2-2.6c1.5,0,2.1,1.2,2.1,2.3C136,188.3,136,188.5,136,188.6z M132.4,188h3
		c0,0,0-0.1,0-0.2c0-0.8-0.6-1.4-1.5-1.4C133,186.5,132.4,187.2,132.4,188z"/>
	<path class="st10" d="M139.4,190.8c-0.3,0.1-0.5,0.1-0.8,0.1c-0.7,0-1.1-0.4-1.1-1.2v-3.2h-0.8V186h0.8v-1.4l0.7-0.5v1.9h1.2v0.6
		h-1.2v3.1c0,0.5,0.2,0.7,0.6,0.7c0.2,0,0.4,0,0.6-0.1L139.4,190.8z"/>
	<path class="st10" d="M142.8,190.8c-0.3,0.1-0.5,0.1-0.7,0.1c-0.7,0-1.1-0.4-1.1-1.2v-3.2h-0.8V186h0.8v-1.4l0.7-0.5v1.9h1.2v0.6
		h-1.2v3.1c0,0.5,0.2,0.7,0.6,0.7c0.2,0,0.4,0,0.6-0.1L142.8,190.8z"/>
	<path class="st10" d="M147.8,187.8v3.1h-0.6l0-0.8c-0.4,0.5-1,0.8-1.8,0.8c-1.1,0-1.7-0.6-1.7-1.5c0-0.5,0.2-0.9,0.6-1.1
		c0.4-0.2,0.9-0.3,1.9-0.3h1v-0.2c0-0.9-0.5-1.3-1.3-1.3c-0.6,0-1.1,0.3-1.5,0.8l-0.5-0.4c0.5-0.7,1.2-1,2-1
		C147.1,185.9,147.8,186.6,147.8,187.8z M147.1,188.7L147.1,188.7l-0.9-0.1c-0.9,0-1.3,0.1-1.5,0.2c-0.2,0.1-0.3,0.4-0.3,0.6
		c0,0.5,0.5,0.9,1.2,0.9C146.5,190.4,147.1,189.7,147.1,188.7z"/>
	<path class="st10" d="M153.3,191.6c0,0.9-0.9,1.4-2.1,1.4c-1.4,0-2.2-0.5-2.2-1.5c0-0.1,0-0.2,0-0.2l0.8-0.7
		c-0.4-0.2-0.6-0.5-0.6-0.9c0-0.4,0.2-0.7,0.5-0.9c-0.3-0.3-0.4-0.7-0.4-1.1c0-1,0.8-1.7,1.9-1.7c0.5,0,0.9,0.1,1.2,0.4l0.7-0.6
		l0.4,0.5l-0.7,0.6c0.2,0.3,0.3,0.6,0.3,0.9c0,1-0.8,1.7-1.9,1.7c-0.4,0-0.7-0.1-1-0.2c-0.2,0.1-0.3,0.3-0.3,0.5
		c0,0.5,0.6,0.6,1.3,0.7C152.1,190.4,153.3,190.6,153.3,191.6z M152.6,191.7c0-0.6-0.8-0.7-1.6-0.8c-0.2,0-0.4-0.1-0.7-0.1l-0.7,0.6
		c0,0.1,0,0.1,0,0.1c0,0.7,0.7,0.9,1.5,0.9C152.1,192.4,152.6,192.2,152.6,191.7z M150,187.6c0,0.6,0.5,1.1,1.2,1.1s1.2-0.5,1.2-1.1
		c0-0.7-0.5-1.1-1.2-1.1C150.5,186.5,150,186.9,150,187.6z"/>
	<path class="st10" d="M154.6,189.8v-5.9h0.7v5.9c0,0.3,0.1,0.6,0.5,0.6c0.1,0,0.3,0,0.5-0.1l0,0.6c-0.2,0.1-0.5,0.1-0.7,0.1
		C155,191,154.6,190.6,154.6,189.8z"/>
	<path class="st10" d="M157.3,183.9h0.8v1h-0.8V183.9z M157.4,186h0.7v4.9h-0.7V186z"/>
	<path class="st10" d="M159.5,188.4c0-1.5,0.9-2.5,2.4-2.5c1.4,0,2.4,1.1,2.4,2.5c0,1.4-1,2.5-2.4,2.5S159.5,189.9,159.5,188.4z
		 M163.5,188.4c0-1.1-0.6-1.9-1.7-1.9c-1.1,0-1.7,0.8-1.7,1.9c0,1.1,0.6,1.9,1.7,1.9C162.9,190.4,163.5,189.5,163.5,188.4z"/>
</g>
<g>
	<rect x="0.1" y="80" class="st11" width="59.1" height="53"/>
	<path d="M12.7,80h0.7v6.3h3.2v0.7h-3.9C12.7,86.9,12.7,80,12.7,80z"/>
	<path d="M21.4,82v4.9h-0.7v-0.7c-0.3,0.5-1,0.8-1.6,0.8c-1.1,0-1.6-0.8-1.6-2v-3h0.7v2.8c0,0.8,0.1,1.5,1.1,1.5
		c1,0,1.5-0.8,1.5-2.1V82C20.8,82,21.4,82,21.4,82z"/>
	<path d="M27.2,83.9v3h-0.7v-2.8c0-1.1-0.3-1.5-1.1-1.5c-0.9,0-1.5,0.8-1.5,2.2v2.2h-0.7V82H24v0.7c0.3-0.5,0.9-0.8,1.6-0.8
		C26.6,81.9,27.2,82.6,27.2,83.9z"/>
	<path d="M32.7,87.7c0,0.9-0.9,1.4-2.1,1.4c-1.4,0-2.2-0.5-2.2-1.5c0-0.1,0-0.2,0-0.2l0.8-0.7c-0.4-0.2-0.6-0.4-0.6-0.9
		c0-0.4,0.2-0.7,0.5-0.9c-0.3-0.3-0.4-0.7-0.4-1.1c0-1,0.8-1.7,1.9-1.7c0.5,0,0.9,0.1,1.2,0.4l0.7-0.6l0.4,0.4l-0.7,0.6
		c0.2,0.3,0.3,0.6,0.3,0.9c0,1-0.8,1.7-1.9,1.7c-0.4,0-0.7-0.1-1-0.2c-0.2,0.1-0.3,0.3-0.3,0.5c0,0.5,0.6,0.6,1.3,0.7
		C31.6,86.5,32.7,86.6,32.7,87.7z M32,87.8c0-0.6-0.8-0.7-1.6-0.8c-0.2,0-0.4-0.1-0.7-0.1l-0.7,0.6c0,0,0,0.1,0,0.1
		c0,0.7,0.7,0.9,1.5,0.9C31.5,88.5,32,88.2,32,87.8z M29.4,83.7c0,0.6,0.5,1.1,1.2,1.1c0.7,0,1.2-0.5,1.2-1.1c0-0.7-0.5-1.1-1.2-1.1
		C29.9,82.5,29.4,83,29.4,83.7z"/>
	<path d="M38,83.9v3h-0.7v-2.8c0-1.1-0.3-1.5-1.1-1.5c-0.9,0-1.5,0.8-1.5,2.1v2.3h-0.7v-7h0.7v2.8c0.3-0.5,0.9-0.8,1.6-0.8
		C37.5,81.9,38,82.6,38,83.9z"/>
	<path d="M43.6,84.7H40c0,1.1,0.6,1.7,1.6,1.7c0.5,0,1-0.1,1.4-0.6l0.5,0.4c-0.6,0.6-1.1,0.8-1.9,0.8c-1.5,0-2.3-1.1-2.3-2.5
		c0-1.4,0.8-2.6,2.2-2.6c1.5,0,2.1,1.2,2.1,2.3C43.7,84.4,43.7,84.6,43.6,84.7z M40,84.1h3c0,0,0-0.1,0-0.2c0-0.8-0.6-1.4-1.5-1.4
		C40.6,82.5,40.1,83.2,40,84.1z"/>
	<path d="M48.6,82.6l-3.2,3.8h3.2v0.6h-4.1v-0.5l3.3-3.8h-3.1V82h3.9V82.6z"/>
	<path d="M53.5,82.6l-3.2,3.8h3.2v0.6h-4.1v-0.5l3.3-3.8h-3.1V82h3.9V82.6z"/>
	<path d="M58.5,83.9v3.1h-0.6l0-0.8c-0.4,0.5-1,0.8-1.8,0.8c-1.1,0-1.7-0.6-1.7-1.5c0-0.5,0.2-0.9,0.6-1.1c0.4-0.2,0.9-0.3,1.9-0.3
		h1v-0.2c0-0.9-0.4-1.3-1.3-1.3c-0.6,0-1.1,0.3-1.5,0.8L54.5,83c0.5-0.7,1.2-1,2-1C57.7,81.9,58.5,82.7,58.5,83.9z M57.8,84.7
		L57.8,84.7l-0.9-0.1c-0.9,0-1.3,0.1-1.5,0.2c-0.2,0.1-0.3,0.4-0.3,0.6c0,0.5,0.5,0.9,1.2,0.9C57.2,86.5,57.8,85.8,57.8,84.7z"/>
	<path d="M25.3,92v7h-0.7v-0.7C24.2,98.7,23.7,99,23,99c-1.4,0-2.2-1.1-2.2-2.5c0-1.5,0.8-2.5,2.2-2.5c0.7,0,1.3,0.3,1.6,0.7V92
		C24.6,92,25.3,92,25.3,92z M24.7,96.5c0-1.2-0.6-1.9-1.6-1.9c-1,0-1.6,0.8-1.6,1.9c0,1.1,0.5,1.9,1.6,1.9
		C24.1,98.4,24.7,97.6,24.7,96.5z"/>
	<path d="M31,96.7h-3.6c0,1.1,0.6,1.7,1.6,1.7c0.5,0,1-0.1,1.4-0.6l0.5,0.4C30.3,98.8,29.7,99,29,99c-1.5,0-2.3-1.1-2.3-2.5
		c0-1.4,0.8-2.6,2.2-2.6c1.5,0,2.1,1.2,2.1,2.3C31,96.4,31,96.6,31,96.7z M27.4,96.1h3c0,0,0-0.1,0-0.2c0-0.8-0.6-1.4-1.5-1.4
		C28,94.5,27.5,95.2,27.4,96.1z"/>
	<path d="M32.4,97.9V92h0.7v5.9c0,0.3,0.1,0.6,0.4,0.6c0.1,0,0.3,0,0.5-0.1l0,0.6C33.8,99,33.5,99,33.3,99
		C32.8,99,32.4,98.6,32.4,97.9z"/>
	<path d="M39.9,98.9C39.6,99,39.4,99,39.2,99c-0.7,0-1.1-0.4-1.1-1.2v-3.2h-0.8V94H38v-1.4l0.7-0.5V94h1.2v0.6h-1.2v3.1
		c0,0.5,0.2,0.7,0.6,0.7c0.2,0,0.4,0,0.6-0.1L39.9,98.9z"/>
	<path d="M45.1,96.7h-3.6c0,1.1,0.6,1.7,1.6,1.7c0.5,0,1-0.1,1.4-0.6l0.5,0.4C44.4,98.8,43.8,99,43,99c-1.5,0-2.3-1.1-2.3-2.5
		c0-1.4,0.8-2.6,2.2-2.6c1.5,0,2.1,1.2,2.1,2.3C45.1,96.4,45.1,96.6,45.1,96.7z M41.5,96.1h3c0,0,0-0.1,0-0.2c0-0.8-0.6-1.4-1.5-1.4
		C42.1,94.5,41.5,95.2,41.5,96.1z"/>
	<path d="M46,97.7l0.6-0.3c0.2,0.5,0.7,0.9,1.4,0.9c0.7,0,1.1-0.3,1.1-0.8c0-1.3-2.8-0.5-2.8-2.2c0-0.9,0.7-1.4,1.7-1.4
		c0.8,0,1.4,0.3,1.8,1l-0.5,0.3c-0.2-0.4-0.6-0.7-1.2-0.7c-0.6,0-1,0.2-1,0.7c0,1.2,2.8,0.4,2.8,2.3c0,1-0.8,1.5-1.8,1.5
		C47,99,46.2,98.5,46,97.7z"/>
	<path d="M53.2,98.9C52.9,99,52.7,99,52.4,99c-0.7,0-1.1-0.4-1.1-1.2v-3.2h-0.8V94h0.8v-1.4l0.7-0.5V94h1.2v0.6H52v3.1
		c0,0.5,0.2,0.7,0.6,0.7c0.2,0,0.4,0,0.6-0.1L53.2,98.9z"/>
	<path d="M54,96.5c0-1.5,0.9-2.5,2.4-2.5c1.4,0,2.4,1.1,2.4,2.5c0,1.4-1,2.5-2.4,2.5S54,97.9,54,96.5z M58.1,96.5
		c0-1.1-0.6-1.9-1.7-1.9c-1.1,0-1.7,0.8-1.7,1.9c0,1.1,0.6,1.9,1.7,1.9C57.4,98.4,58.1,97.6,58.1,96.5z"/>
	<path d="M5.9,107.9v3H5.2v-2.8c0-1.1-0.3-1.5-1.1-1.5c-0.9,0-1.5,0.8-1.5,2.2v2.2H2V106h0.7v0.7c0.3-0.5,0.9-0.8,1.6-0.8
		C5.4,105.9,5.9,106.6,5.9,107.9z"/>
	<path d="M7.2,108.5c0-1.5,0.9-2.5,2.4-2.5c1.4,0,2.4,1.1,2.4,2.5c0,1.4-1,2.5-2.4,2.5S7.2,109.9,7.2,108.5z M11.2,108.5
		c0-1.1-0.6-1.9-1.7-1.9c-1.1,0-1.7,0.8-1.7,1.9c0,1.1,0.6,1.9,1.7,1.9C10.6,110.4,11.2,109.6,11.2,108.5z"/>
	<path d="M16.3,106.2l-0.3,0.6c-0.2-0.1-0.4-0.2-0.6-0.2c-0.8,0-1.3,0.6-1.3,1.6v2.7h-0.7V106H14v0.7c0.4-0.6,1-0.8,1.5-0.8
		C15.8,105.9,16,106,16.3,106.2z"/>
	<path d="M24.1,107.9v3.1h-0.7v-2.9c0-0.4,0-1.5-1.1-1.5c-1,0-1.3,0.9-1.3,2v2.4h-0.7v-2.8c0-0.8-0.2-1.5-1.1-1.5
		c-1,0-1.2,0.9-1.2,2v2.4h-0.7l0-4.9H18v0.6c0.3-0.5,0.8-0.7,1.4-0.7c0.7,0,1.2,0.3,1.4,0.9c0.3-0.6,0.9-0.9,1.6-0.9
		C23.6,105.9,24.1,106.7,24.1,107.9z"/>
	<path d="M29.5,107.9v3.1h-0.6l0-0.8c-0.4,0.5-1,0.8-1.8,0.8c-1.1,0-1.7-0.6-1.7-1.5c0-0.5,0.2-0.9,0.6-1.1c0.4-0.2,0.9-0.3,1.9-0.3
		h1v-0.2c0-0.9-0.4-1.3-1.3-1.3c-0.6,0-1.1,0.3-1.5,0.8l-0.5-0.4c0.5-0.7,1.2-1,2-1C28.7,105.9,29.5,106.7,29.5,107.9z M28.8,108.7
		L28.8,108.7l-0.9-0.1c-0.9,0-1.3,0.1-1.5,0.2c-0.2,0.1-0.3,0.4-0.3,0.6c0,0.5,0.5,0.9,1.2,0.9C28.2,110.5,28.8,109.8,28.8,108.7z"
		/>
	<path d="M31.1,109.9V104h0.7v5.9c0,0.3,0.1,0.6,0.4,0.6c0.1,0,0.3,0,0.5-0.1l0,0.6c-0.2,0.1-0.5,0.1-0.7,0.1
		C31.5,111,31.1,110.6,31.1,109.9z"/>
	<path d="M33.8,104h0.8v1h-0.8V104z M33.8,106h0.7v4.9h-0.7V106z"/>
	<path d="M39.9,106.6l-3.2,3.8h3.2v0.6h-4.1v-0.5l3.3-3.8H36V106h3.9V106.6z"/>
	<path d="M44.8,106.6l-3.2,3.8h3.2v0.6h-4.1v-0.5l3.3-3.8h-3.1V106h3.9V106.6z"/>
	<path d="M49.8,107.9v3.1h-0.6l0-0.8c-0.4,0.5-1,0.8-1.8,0.8c-1.1,0-1.7-0.6-1.7-1.5c0-0.5,0.2-0.9,0.6-1.1c0.4-0.2,0.9-0.3,1.9-0.3
		h1v-0.2c0-0.9-0.4-1.3-1.3-1.3c-0.6,0-1.1,0.3-1.5,0.8l-0.5-0.4c0.5-0.7,1.2-1,2-1C49,105.9,49.8,106.7,49.8,107.9z M49.1,108.7
		L49.1,108.7l-0.9-0.1c-0.9,0-1.3,0.1-1.5,0.2c-0.2,0.1-0.3,0.4-0.3,0.6c0,0.5,0.5,0.9,1.2,0.9C48.5,110.5,49.1,109.8,49.1,108.7z"
		/>
	<path d="M53.5,110.9c-0.3,0.1-0.5,0.1-0.7,0.1c-0.7,0-1.1-0.4-1.1-1.2v-3.2h-0.8V106h0.8v-1.4l0.7-0.5v1.9h1.2v0.6h-1.2v3.1
		c0,0.5,0.2,0.7,0.6,0.7c0.2,0,0.4,0,0.6-0.1L53.5,110.9z"/>
	<path d="M58.5,107.9v3.1h-0.6l0-0.8c-0.4,0.5-1,0.8-1.8,0.8c-1.1,0-1.7-0.6-1.7-1.5c0-0.5,0.2-0.9,0.6-1.1c0.4-0.2,0.9-0.3,1.9-0.3
		h1v-0.2c0-0.9-0.4-1.3-1.3-1.3c-0.6,0-1.1,0.3-1.5,0.8l-0.5-0.4c0.5-0.7,1.2-1,2-1C57.7,105.9,58.5,106.7,58.5,107.9z M57.8,108.7
		L57.8,108.7l-0.9-0.1c-0.9,0-1.3,0.1-1.5,0.2c-0.2,0.1-0.3,0.4-0.3,0.6c0,0.5,0.5,0.9,1.2,0.9C57.2,110.5,57.8,109.8,57.8,108.7z"
		/>
</g>
</svg>
