<?xml version="1.0" encoding="utf-8"?>
<!-- Generator: Adobe Illustrator 25.0.0, SVG Export Plug-In . SVG Version: 6.00 Build 0)  -->
<svg version="1.1" id="Livello_1" xmlns="http://www.w3.org/2000/svg" xmlns:xlink="http://www.w3.org/1999/xlink" x="0px" y="0px"
	 viewBox="0 0 271 208.89999" enable-background="new 0 0 271 208.89999" xml:space="preserve">
<line id="Linea_293" fill="none" stroke="#000000" stroke-width="0.5" stroke-miterlimit="10" x1="71.263" y1="158.79599" x2="185.86298" y2="158.79599"/>
<line id="Linea_294" fill="none" stroke="#000000" stroke-width="0.5" stroke-miterlimit="10" x1="63.96301" y1="158.496" x2="63.96301" y2="36.296"/>
<line id="Linea_295" fill="none" stroke="#000000" stroke-width="0.5" x1="61.96301" y1="158.496" x2="65.96301" y2="158.496"/>
<line id="Linea_296" fill="none" stroke="#000000" stroke-width="0.5" x1="61.96301" y1="36.296" x2="65.96301" y2="36.296"/>
<path id="Tracciato_116441" fill="#00FFCC" d="M76.6,67.29999h45.50001v63h-45.5C76.6,130.29999,76.6,67.29999,76.6,67.29999z"/>
<rect id="Rettangolo_9622" x="122.10001" y="77.29999" fill="#6666FF" width="45.5" height="43"/>
<line id="Linea_297" fill="none" stroke="#666666" stroke-width="0.496" stroke-dasharray="1.982" x1="122.10001" y1="76.29999" x2="76.6" y2="76.29999"/>
<line id="Linea_298" fill="none" stroke="#666666" stroke-width="0.496" stroke-dasharray="1.982" x1="122.10001" y1="119" x2="76.6" y2="119"/>
<g enable-background="new    ">
	<path d="M36.1792,33.03418h0.70996V40H36.1792V33.03418z"/>
	<path d="M42.86719,36.98145V40h-0.68945v-2.84863c0-1.05957-0.33984-1.54883-1.07959-1.54883
		c-0.92969,0-1.46924,0.7998-1.46924,2.18848V40h-0.68945v-4.92773h0.68945v0.71973
		c0.31982-0.49902,0.91943-0.79883,1.62891-0.79883C42.31738,34.99316,42.86719,35.67285,42.86719,36.98145z"/>
	<path d="M44.50928,33.03418h0.79932v1.01953h-0.79932V33.03418z M44.56934,35.07227h0.68945V40h-0.68945V35.07227z"/>
	<path d="M50.6377,35.62207l-3.2085,3.78809h3.18848V40h-4.09814v-0.5l3.27832-3.83789h-3.1084v-0.58984h3.94824V35.62207z"/>
	<path d="M51.88965,33.03418h0.79932v1.01953h-0.79932V33.03418z M51.94971,35.07227h0.68945V40h-0.68945V35.07227z"/>
	<path d="M54.0293,37.53125c0-1.45898,0.94971-2.53809,2.35889-2.53809c1.39941,0,2.36865,1.0791,2.36865,2.53809
		c0,1.44922-0.95947,2.54883-2.36865,2.54883S54.0293,38.99023,54.0293,37.53125z M58.06738,37.53125
		c0-1.11914-0.62988-1.92871-1.6792-1.92871c-1.05957,0-1.66895,0.81934-1.66895,1.92871c0,1.11914,0.61963,1.93945,1.66895,1.93945
		C57.44775,39.4707,58.06738,38.63086,58.06738,37.53125z"/>
</g>
<g enable-background="new    ">
	<path d="M40.68896,152.08496h4.72754v0.65918h-4.01758v2.42871h3.51807v0.66016h-3.51807v3.21777h-0.70996V152.08496z"/>
	<path d="M46.62939,152.08496h0.79932v1.01953h-0.79932V152.08496z M46.68945,154.12305h0.68945v4.92773h-0.68945V154.12305z"/>
	<path d="M53.12695,156.03223v3.01855H52.4375v-2.84863c0-1.05957-0.33984-1.54883-1.07959-1.54883
		c-0.92969,0-1.46924,0.7998-1.46924,2.18848v2.20898h-0.68945v-4.92773h0.68945v0.71973
		c0.31982-0.49902,0.91943-0.79883,1.62891-0.79883C52.57715,154.04395,53.12695,154.72363,53.12695,156.03223z"/>
	<path d="M58.72656,156.77246h-3.60791c0.02002,1.0791,0.61963,1.72852,1.58936,1.72852c0.53955,0,0.96924-0.13965,1.41895-0.61914
		l0.47998,0.41895c-0.57959,0.61035-1.14941,0.83008-1.90918,0.83008c-1.49902,0-2.26855-1.11914-2.26855-2.51855
		c0-1.38965,0.75977-2.56836,2.18896-2.56836c1.50879,0,2.13867,1.17871,2.13867,2.29785
		C58.75684,156.48242,58.74658,156.65234,58.72656,156.77246z M55.11865,156.19238h2.97852
		c0-0.02051-0.01025-0.07031-0.01025-0.16016c-0.0498-0.7998-0.55957-1.40918-1.46875-1.40918
		C55.72852,154.62305,55.17871,155.32324,55.11865,156.19238z"/>
</g>
<g enable-background="new    ">
	<path d="M7.4082,1.45215L4.65967,8.41797H4.08008l-2.7583-6.96582h0.78955l2.25879,5.85645l2.25879-5.85645H7.4082z"/>
	<path d="M7.69189,5.94922c0-1.45898,0.94922-2.53809,2.3584-2.53809c1.39941,0,2.36865,1.0791,2.36865,2.53809
		c0,1.44922-0.95947,2.54883-2.36865,2.54883S7.69189,7.4082,7.69189,5.94922z M11.72949,5.94922
		c0-1.11914-0.62988-1.92871-1.6792-1.92871c-1.05957,0-1.66895,0.81934-1.66895,1.92871c0,1.11914,0.61963,1.93945,1.66895,1.93945
		C11.10986,7.88867,11.72949,7.04883,11.72949,5.94922z"/>
	<path d="M13.77148,7.34863V1.45215h0.68945v5.85645c0,0.33984,0.12012,0.55957,0.44971,0.55957
		c0.1499,0,0.31982-0.04004,0.46973-0.08984l0.01025,0.58984c-0.20996,0.06934-0.45996,0.12988-0.67969,0.12988
		C14.14111,8.49805,13.77148,8.11816,13.77148,7.34863z"/>
	<path d="M20.26904,3.49023v4.92773h-0.68945V7.70801c-0.34961,0.53027-0.97949,0.79004-1.62891,0.79004
		c-1.11963,0-1.60938-0.76953-1.60938-1.98926V3.49023h0.68945v2.84863c0,0.7998,0.14014,1.5498,1.07959,1.5498
		c0.97949,0,1.46924-0.84961,1.46924-2.12891V3.49023H20.26904z"/>
	<path d="M28.84766,5.33984v3.07812h-0.68994V5.5293c0-0.41992,0-1.50879-1.0791-1.50879
		c-0.99951,0-1.26953,0.91895-1.26953,2.02832v2.36914h-0.68945V5.56934c0-0.81934-0.25-1.54883-1.10938-1.54883
		c-0.95947,0-1.22949,0.90918-1.22949,2.02832v2.36914h-0.68945l-0.01025-4.92773h0.66992v0.60059
		c0.30957-0.49023,0.80957-0.67969,1.35889-0.67969c0.68994,0,1.19971,0.2998,1.44922,0.94922
		c0.31982-0.62988,0.86963-0.94922,1.61914-0.94922C28.35791,3.41113,28.84766,4.19043,28.84766,5.33984z"/>
	<path d="M34.44873,6.13965h-3.60791c0.02002,1.0791,0.61963,1.72852,1.58936,1.72852c0.53955,0,0.96924-0.13965,1.41895-0.61914
		l0.47998,0.41895c-0.57959,0.61035-1.14941,0.83008-1.90918,0.83008c-1.49902,0-2.26855-1.11914-2.26855-2.51855
		c0-1.38965,0.75977-2.56836,2.18896-2.56836c1.50879,0,2.13867,1.17871,2.13867,2.29785
		C34.479,5.84961,34.46875,6.01953,34.44873,6.13965z M30.84082,5.55957h2.97852c0-0.02051-0.01025-0.07031-0.01025-0.16016
		c-0.0498-0.7998-0.55957-1.40918-1.46875-1.40918C31.45068,3.99023,30.90088,4.69043,30.84082,5.55957z"/>
</g>
<g enable-background="new    ">
	<path fill="#00FFCC" d="M76.48975,19.51123l0.70947-0.16992c0.12988,0.89941,0.80957,1.46875,1.74902,1.46875
		c1.00977,0,1.51953-0.5293,1.51953-1.21875c0-0.75-0.43018-1.13965-1.65918-1.60938
		c-1.40918-0.5293-1.89893-1.0293-1.89893-1.93848c0-1.05957,0.79932-1.75977,1.97852-1.75977
		c0.87988,0,1.56934,0.38965,1.98926,1.12988l-0.59961,0.36914c-0.2998-0.53906-0.80957-0.85938-1.40918-0.85938
		c-0.72998,0-1.24951,0.5-1.24951,1.08984c0,0.63965,0.47949,0.97949,1.5791,1.39941
		c1.54932,0.58887,1.98877,1.14941,1.98877,2.11816c0,1.16992-0.80957,1.91895-2.24854,1.91895
		C77.64893,21.44971,76.67969,20.68018,76.48975,19.51123z"/>
	<path fill="#00FFCC" d="M86.64697,19.07178h-3.60791c0.02002,1.0791,0.61963,1.72852,1.58936,1.72852
		c0.53955,0,0.96924-0.13965,1.41895-0.61914l0.47998,0.41895c-0.57959,0.61035-1.14941,0.83008-1.90918,0.83008
		c-1.49902,0-2.26855-1.11914-2.26855-2.51855c0-1.38965,0.75977-2.56836,2.18896-2.56836
		c1.50879,0,2.13867,1.17871,2.13867,2.29785C86.67725,18.78174,86.66699,18.95166,86.64697,19.07178z M83.03906,18.4917h2.97852
		c0-0.02051-0.01025-0.07031-0.01025-0.16016c-0.0498-0.7998-0.55957-1.40918-1.46875-1.40918
		C83.64893,16.92236,83.09912,17.62256,83.03906,18.4917z"/>
	<path fill="#00FFCC" d="M92.18701,16.42236v6.9668h-0.68994v-2.69824c-0.35938,0.45898-0.90918,0.73926-1.62891,0.73926
		c-1.43896,0-2.18896-1.0791-2.18896-2.54883c0-1.53906,0.81982-2.54883,2.18896-2.54883c0.69971,0,1.25928,0.27051,1.62891,0.75
		v-0.66016H92.18701z M91.55713,18.88135c0-1.16895-0.59961-1.93848-1.58887-1.93848c-0.99951,0-1.59912,0.76953-1.59912,1.93848
		c0,1.11914,0.5498,1.93945,1.59912,1.93945C91.00732,20.8208,91.55713,20.00049,91.55713,18.88135z"/>
	<path fill="#00FFCC" d="M97.81689,16.42236v4.92773h-0.68945v-0.70996c-0.3501,0.53027-0.97949,0.79004-1.62939,0.79004
		c-1.11914,0-1.60889-0.76953-1.60889-1.98926v-3.01855h0.68945V19.271c0,0.7998,0.14014,1.5498,1.07959,1.5498
		c0.97949,0,1.46924-0.84961,1.46924-2.12891v-2.26953H97.81689z"/>
	<path fill="#00FFCC" d="M103.48682,19.07178h-3.60791c0.02002,1.0791,0.61963,1.72852,1.58936,1.72852
		c0.53955,0,0.96924-0.13965,1.41895-0.61914l0.47998,0.41895c-0.57959,0.61035-1.14941,0.83008-1.90918,0.83008
		c-1.49902,0-2.26855-1.11914-2.26855-2.51855c0-1.38965,0.75977-2.56836,2.18896-2.56836
		c1.50879,0,2.13867,1.17871,2.13867,2.29785C103.51709,18.78174,103.50684,18.95166,103.48682,19.07178z M99.87891,18.4917h2.97852
		c0-0.02051-0.01025-0.07031-0.01025-0.16016c-0.0498-0.7998-0.55957-1.40918-1.46875-1.40918
		C100.48877,16.92236,99.93896,17.62256,99.87891,18.4917z"/>
	<path fill="#00FFCC" d="M108.83691,18.33154v3.01855h-0.68945v-2.84863c0-1.05957-0.33984-1.54883-1.07959-1.54883
		c-0.92969,0-1.46924,0.7998-1.46924,2.18848v2.20898h-0.68945v-4.92773h0.68945v0.71973
		c0.31982-0.49902,0.91943-0.79883,1.62891-0.79883C108.28711,16.34326,108.83691,17.02295,108.83691,18.33154z"/>
	<path fill="#00FFCC" d="M114.09717,16.97217l-3.2085,3.78809h3.18848v0.58984H109.979v-0.5l3.27832-3.83789h-3.1084v-0.58984
		h3.94824V16.97217z"/>
	<path fill="#00FFCC" d="M119.07715,18.28174v3.06836h-0.62988l-0.04004-0.75977c-0.38965,0.5498-0.98926,0.83984-1.76904,0.83984
		c-1.06934,0-1.69873-0.55957-1.69873-1.50977c0-0.49902,0.19971-0.87891,0.55957-1.09863
		c0.37988-0.21973,0.90967-0.31055,1.87891-0.31055h1.00928v-0.22949c0-0.85938-0.44971-1.3291-1.2793-1.3291
		c-0.61963,0-1.09912,0.26953-1.49902,0.81934l-0.49951-0.41992c0.5293-0.68945,1.16895-1.00879,2.00879-1.00879
		C118.35742,16.34326,119.07715,17.05225,119.07715,18.28174z M118.38721,19.14111v-0.06934h-0.94922
		c-0.90967,0-1.29932,0.05957-1.53906,0.24902c-0.18018,0.14062-0.27002,0.36035-0.27002,0.63965
		c0,0.5498,0.46973,0.90039,1.20947,0.90039C117.7876,20.86084,118.38721,20.19092,118.38721,19.14111z"/>
	<path fill="#00FFCC" d="M125.39795,17.84229l-2.37842-3.45801h0.85938l2.00879,2.95801l2.01904-2.95801h0.84961l-2.37891,3.45801
		l2.42871,3.50781h-0.85938l-2.06885-2.98828l-2.03906,2.98828h-0.85938L125.39795,17.84229z"/>
</g>
<g enable-background="new    ">
	<path fill="#5151FC" d="M165.7207,38.16113l0.70898-0.16992c0.12988,0.89941,0.80957,1.46875,1.74902,1.46875
		c1.00977,0,1.51953-0.5293,1.51953-1.21875c0-0.75-0.42969-1.13965-1.65918-1.60938
		c-1.40918-0.5293-1.89844-1.0293-1.89844-1.93848c0-1.05957,0.79883-1.75977,1.97852-1.75977
		c0.87988,0,1.56934,0.38965,1.98926,1.12988l-0.59961,0.36914c-0.2998-0.53906-0.80957-0.85938-1.40918-0.85938
		c-0.73047,0-1.25,0.5-1.25,1.08984c0,0.63965,0.47949,0.97949,1.5791,1.39941c1.5498,0.58887,1.98926,1.14941,1.98926,2.11816
		c0,1.16992-0.80957,1.91895-2.24902,1.91895C166.87988,40.09961,165.91016,39.33008,165.7207,38.16113z"/>
	<path fill="#5151FC" d="M175.87793,37.72168h-3.6084c0.02051,1.0791,0.62012,1.72852,1.58984,1.72852
		c0.53906,0,0.96875-0.13965,1.41895-0.61914l0.47949,0.41895c-0.5791,0.61035-1.14941,0.83008-1.90918,0.83008
		c-1.49902,0-2.26855-1.11914-2.26855-2.51855c0-1.38965,0.75977-2.56836,2.18945-2.56836
		c1.50879,0,2.13867,1.17871,2.13867,2.29785C175.9082,37.43164,175.89746,37.60156,175.87793,37.72168z M172.26953,37.1416h2.97852
		c0-0.02051-0.00977-0.07031-0.00977-0.16016c-0.0498-0.7998-0.55957-1.40918-1.46875-1.40918
		C172.87988,35.57227,172.33008,36.27246,172.26953,37.1416z"/>
	<path fill="#5151FC" d="M181.41797,35.07227v6.9668h-0.69043v-2.69824c-0.35938,0.45898-0.90918,0.73926-1.62891,0.73926
		c-1.43848,0-2.18848-1.0791-2.18848-2.54883c0-1.53906,0.81934-2.54883,2.18848-2.54883c0.7002,0,1.25977,0.27051,1.62891,0.75
		v-0.66016H181.41797z M180.78809,37.53125c0-1.16895-0.59961-1.93848-1.58887-1.93848c-1,0-1.59961,0.76953-1.59961,1.93848
		c0,1.11914,0.5498,1.93945,1.59961,1.93945C180.23828,39.4707,180.78809,38.65039,180.78809,37.53125z"/>
	<path fill="#5151FC" d="M187.04785,35.07227V40h-0.68945v-0.70996c-0.35059,0.53027-0.97949,0.79004-1.62988,0.79004
		c-1.11914,0-1.6084-0.76953-1.6084-1.98926v-3.01855h0.68945v2.84863c0,0.7998,0.13965,1.5498,1.0791,1.5498
		c0.97949,0,1.46973-0.84961,1.46973-2.12891v-2.26953H187.04785z"/>
	<path fill="#5151FC" d="M192.71777,37.72168h-3.6084c0.02051,1.0791,0.62012,1.72852,1.58984,1.72852
		c0.53906,0,0.96875-0.13965,1.41895-0.61914l0.47949,0.41895c-0.5791,0.61035-1.14941,0.83008-1.90918,0.83008
		c-1.49902,0-2.26855-1.11914-2.26855-2.51855c0-1.38965,0.75977-2.56836,2.18945-2.56836
		c1.50879,0,2.13867,1.17871,2.13867,2.29785C192.74805,37.43164,192.7373,37.60156,192.71777,37.72168z M189.10938,37.1416h2.97852
		c0-0.02051-0.00977-0.07031-0.00977-0.16016c-0.0498-0.7998-0.55957-1.40918-1.46875-1.40918
		C189.71973,35.57227,189.16992,36.27246,189.10938,37.1416z"/>
	<path fill="#5151FC" d="M198.06738,36.98145V40h-0.68945v-2.84863c0-1.05957-0.33984-1.54883-1.0791-1.54883
		c-0.92969,0-1.46973,0.7998-1.46973,2.18848V40h-0.68945v-4.92773h0.68945v0.71973
		c0.32031-0.49902,0.91992-0.79883,1.62891-0.79883C197.51758,34.99316,198.06738,35.67285,198.06738,36.98145z"/>
	<path fill="#5151FC" d="M203.32812,35.62207l-3.20898,3.78809h3.18848V40h-4.09766v-0.5l3.27832-3.83789h-3.1084v-0.58984h3.94824
		V35.62207z"/>
	<path fill="#5151FC" d="M208.30762,36.93164V40h-0.62988l-0.04004-0.75977c-0.38965,0.5498-0.98926,0.83984-1.76855,0.83984
		c-1.06934,0-1.69922-0.55957-1.69922-1.50977c0-0.49902,0.2002-0.87891,0.55957-1.09863
		c0.37988-0.21973,0.91016-0.31055,1.87891-0.31055h1.00977v-0.22949c0-0.85938-0.4502-1.3291-1.2793-1.3291
		c-0.62012,0-1.09961,0.26953-1.49902,0.81934l-0.5-0.41992c0.5293-0.68945,1.16895-1.00879,2.00879-1.00879
		C207.58789,34.99316,208.30762,35.70215,208.30762,36.93164z M207.61816,37.79102v-0.06934h-0.94922
		c-0.91016,0-1.2998,0.05957-1.53906,0.24902c-0.18066,0.14062-0.27051,0.36035-0.27051,0.63965
		c0,0.5498,0.46973,0.90039,1.20996,0.90039C207.01855,39.51074,207.61816,38.84082,207.61816,37.79102z"/>
	<path fill="#5151FC" d="M214.76855,37.33105l-2.6582-4.29688h0.83887l2.16895,3.60742l2.17871-3.60742h0.84961l-2.6582,4.29688V40
		h-0.71973V37.33105z"/>
</g>
<g enable-background="new    ">
	<path d="M215.21875,37.55176c0-1.2998,0.73047-2.55859,2.21875-2.55859c0.87988,0,1.60938,0.43945,1.99902,1.3584l-0.65918,0.26074
		c-0.22949-0.62988-0.71973-1.00977-1.33984-1.00977c-1.04883,0-1.51855,0.93945-1.51855,1.94922
		c0,1.00879,0.46973,1.91895,1.5293,1.91895c0.61914,0,1.10938-0.37012,1.29883-1l0.63965,0.24023
		c-0.33008,0.89941-1.04883,1.36914-1.93848,1.36914C216.01855,40.08008,215.21875,38.9209,215.21875,37.55176z"/>
	<path d="M224.63672,36.98145V40h-0.68945v-2.84863c0-1.06934-0.33984-1.54883-1.0791-1.54883
		c-0.93945,0-1.46973,0.76953-1.46973,2.12891V40h-0.68945v-6.96582h0.68945v2.75781
		c0.32031-0.49902,0.91992-0.79883,1.62891-0.79883C224.08691,34.99316,224.63672,35.67285,224.63672,36.98145z"/>
	<path d="M230.23633,37.72168h-3.60742c0.01953,1.0791,0.61914,1.72852,1.58887,1.72852c0.54004,0,0.96973-0.13965,1.41895-0.61914
		l0.48047,0.41895c-0.58008,0.61035-1.14941,0.83008-1.90918,0.83008c-1.49902,0-2.26855-1.11914-2.26855-2.51855
		c0-1.38965,0.75977-2.56836,2.18848-2.56836c1.50879,0,2.13867,1.17871,2.13867,2.29785
		C230.2666,37.43164,230.25684,37.60156,230.23633,37.72168z M226.62891,37.1416h2.97852c0-0.02051-0.01074-0.07031-0.01074-0.16016
		c-0.0498-0.7998-0.55957-1.40918-1.46875-1.40918C227.23828,35.57227,226.68848,36.27246,226.62891,37.1416z"/>
	<path d="M233.85938,38.79102l0.5791-0.25977c0.17969,0.50977,0.66016,0.93945,1.42969,0.93945
		c0.66895,0,1.09961-0.33008,1.09961-0.84961c0-1.30957-2.83887-0.49023-2.83887-2.23926c0-0.85938,0.69922-1.38867,1.68945-1.38867
		c0.78906,0,1.42871,0.3291,1.76855,1.0293l-0.5498,0.2998c-0.23926-0.44043-0.62988-0.71973-1.23926-0.71973
		s-0.99902,0.25-0.99902,0.67969c0,1.16895,2.84766,0.42969,2.84766,2.29883c0,0.99902-0.81934,1.49902-1.76855,1.49902
		C234.9082,40.08008,234.11914,39.58008,233.85938,38.79102z"/>
	<path d="M238.98828,33.03418h0.7998v1.01953h-0.7998V33.03418z M239.04883,35.07227h0.68945V40h-0.68945V35.07227z"/>
</g>
<g enable-background="new    ">
	<path d="M165.61035,51.79102l0.58008-0.25977c0.17969,0.50977,0.65918,0.93945,1.42871,0.93945
		c0.66992,0,1.09961-0.33008,1.09961-0.84961c0-1.30957-2.83887-0.49023-2.83887-2.23926c0-0.85938,0.7002-1.38867,1.68945-1.38867
		c0.79004,0,1.42969,0.3291,1.76953,1.0293l-0.5498,0.2998c-0.24023-0.44043-0.62988-0.71973-1.23926-0.71973
		c-0.61035,0-1,0.25-1,0.67969c0,1.16895,2.84863,0.42969,2.84863,2.29883c0,0.99902-0.81934,1.49902-1.76953,1.49902
		C166.66016,53.08008,165.87012,52.58008,165.61035,51.79102z"/>
	<path d="M170.04004,48.07227h0.75l1.54883,4.04785l1.55957-4.04785h0.75977L172.63867,53h-0.58887L170.04004,48.07227z"/>
	<path d="M175.19043,50.53125c0-1.45898,0.94922-2.53809,2.3584-2.53809c1.39941,0,2.36914,1.0791,2.36914,2.53809
		c0,1.44922-0.95996,2.54883-2.36914,2.54883S175.19043,51.99023,175.19043,50.53125z M179.22852,50.53125
		c0-1.11914-0.62988-1.92871-1.67969-1.92871c-1.05957,0-1.66895,0.81934-1.66895,1.92871
		c0,1.11914,0.62012,1.93945,1.66895,1.93945C178.6084,52.4707,179.22852,51.63086,179.22852,50.53125z"/>
	<path d="M181.27051,51.93066v-5.89648h0.68945v5.85645c0,0.33984,0.12012,0.55957,0.44922,0.55957
		c0.15039,0,0.32031-0.04004,0.46973-0.08984l0.01074,0.58984c-0.20996,0.06934-0.45996,0.12988-0.67969,0.12988
		C181.63965,53.08008,181.27051,52.7002,181.27051,51.93066z"/>
	<path d="M187.84766,53.75977c0,0.92969-0.86914,1.35938-2.1084,1.35938c-1.36914,0-2.19922-0.54004-2.19922-1.51953
		c0-0.09961,0.00977-0.16016,0.02051-0.21973l0.79883-0.67969c-0.37988-0.16992-0.63965-0.4502-0.63965-0.93945
		c0-0.39941,0.17969-0.69922,0.53027-0.93945c-0.25977-0.2998-0.41992-0.67969-0.41992-1.11914c0-1,0.81934-1.70898,1.87891-1.70898
		c0.47949,0,0.90918,0.14941,1.22949,0.39941l0.67969-0.58984l0.35938,0.4502l-0.66992,0.55957
		c0.16992,0.26953,0.27051,0.5791,0.27051,0.92969c0,1.00879-0.81934,1.67871-1.85938,1.67871
		c-0.37988,0-0.72949-0.08984-1.01953-0.25c-0.19922,0.11035-0.31934,0.29004-0.31934,0.5c0,0.5,0.61914,0.61914,1.3291,0.72949
		C186.68848,52.5498,187.84766,52.69043,187.84766,53.75977z M187.1582,53.81934c0-0.59961-0.7793-0.68945-1.59961-0.81934
		c-0.21973-0.03027-0.44922-0.07031-0.65918-0.12012l-0.66992,0.64941c-0.00977,0.05078-0.00977,0.07031-0.00977,0.09082
		c0,0.69922,0.70996,0.91895,1.54883,0.91895C186.63867,54.53906,187.1582,54.29883,187.1582,53.81934z M184.50977,49.72168
		c0,0.63965,0.45996,1.12988,1.19922,1.12988s1.17969-0.48047,1.17969-1.12988c0-0.67969-0.45996-1.14941-1.16992-1.14941
		C185.01953,48.57227,184.50977,49.04199,184.50977,49.72168z"/>
	<path d="M192.91797,50.72168h-3.6084c0.02051,1.0791,0.62012,1.72852,1.58984,1.72852c0.53906,0,0.96875-0.13965,1.41895-0.61914
		l0.47949,0.41895c-0.5791,0.61035-1.14941,0.83008-1.90918,0.83008c-1.49902,0-2.26855-1.11914-2.26855-2.51855
		c0-1.38965,0.75977-2.56836,2.18945-2.56836c1.50879,0,2.13867,1.17871,2.13867,2.29785
		C192.94824,50.43164,192.9375,50.60156,192.91797,50.72168z M189.30957,50.1416h2.97852c0-0.02051-0.00977-0.07031-0.00977-0.16016
		c-0.0498-0.7998-0.55957-1.40918-1.46875-1.40918C189.91992,48.57227,189.37012,49.27246,189.30957,50.1416z"/>
	<path d="M201.1875,46.03418V53h-0.68945v-0.65918c-0.35938,0.45898-0.90918,0.73926-1.62891,0.73926
		c-1.43945,0-2.18945-1.0791-2.18945-2.54883c0-1.53906,0.82031-2.54883,2.18945-2.54883c0.69922,0,1.25879,0.27051,1.62891,0.75
		v-2.69824H201.1875z M200.55762,50.53125c0-1.16895-0.59961-1.93848-1.58887-1.93848c-0.99902,0-1.59863,0.76953-1.59863,1.93848
		c0,1.11914,0.54883,1.93945,1.59863,1.93945C200.00781,52.4707,200.55762,51.65039,200.55762,50.53125z"/>
	<path d="M206.76758,48.07227V53h-0.68945v-0.70996c-0.34961,0.53027-0.97949,0.79004-1.62891,0.79004
		c-1.11914,0-1.60938-0.76953-1.60938-1.98926v-3.01855h0.68945v2.84863c0,0.7998,0.14062,1.5498,1.08008,1.5498
		c0.97949,0,1.46875-0.84961,1.46875-2.12891v-2.26953H206.76758z"/>
	<path d="M211.58789,48.20312l-0.33984,0.55957c-0.22949-0.10059-0.43945-0.15039-0.64941-0.15039
		c-0.75977,0-1.31934,0.56934-1.31934,1.63965V53h-0.68945v-4.92773h0.68945v0.74023
		c0.36035-0.64941,0.95996-0.81934,1.45898-0.81934C211.03809,47.99316,211.31836,48.05273,211.58789,48.20312z"/>
	<path d="M216.27832,49.93164V53h-0.62988l-0.04004-0.75977c-0.38965,0.5498-0.98926,0.83984-1.76953,0.83984
		c-1.06934,0-1.69824-0.55957-1.69824-1.50977c0-0.49902,0.19922-0.87891,0.55957-1.09863
		c0.37988-0.21973,0.90918-0.31055,1.87891-0.31055h1.00879v-0.22949c0-0.85938-0.44922-1.3291-1.2793-1.3291
		c-0.61914,0-1.09863,0.26953-1.49902,0.81934l-0.49902-0.41992c0.5293-0.68945,1.16895-1.00879,2.00879-1.00879
		C215.55859,47.99316,216.27832,48.70215,216.27832,49.93164z M215.58789,50.79102v-0.06934h-0.94922
		c-0.90918,0-1.29883,0.05957-1.53906,0.24902c-0.17969,0.14062-0.26953,0.36035-0.26953,0.63965
		c0,0.5498,0.46973,0.90039,1.20898,0.90039C214.98828,52.51074,215.58789,51.84082,215.58789,50.79102z"/>
	<path d="M221.8877,49.98145V53h-0.68945v-2.84863c0-1.05957-0.33984-1.54883-1.08008-1.54883
		c-0.92969,0-1.46875,0.7998-1.46875,2.18848V53h-0.68945v-4.92773h0.68945v0.71973
		c0.31934-0.49902,0.91895-0.79883,1.62891-0.79883C221.33789,47.99316,221.8877,48.67285,221.8877,49.98145z"/>
	<path d="M225.63867,52.9502c-0.25977,0.08008-0.52051,0.12988-0.75,0.12988c-0.65918,0-1.13965-0.37012-1.13965-1.23926v-3.18848
		h-0.81934v-0.58008h0.81934v-1.37891l0.68945-0.51953v1.89844h1.18945v0.58008h-1.18945v3.09863
		c0,0.47949,0.2207,0.69922,0.61035,0.69922c0.16992,0,0.35938-0.04004,0.5791-0.10938L225.63867,52.9502z"/>
	<path d="M230.79688,50.72168h-3.60742c0.01953,1.0791,0.61914,1.72852,1.58887,1.72852c0.54004,0,0.96973-0.13965,1.41895-0.61914
		l0.48047,0.41895c-0.58008,0.61035-1.14941,0.83008-1.90918,0.83008c-1.49902,0-2.26855-1.11914-2.26855-2.51855
		c0-1.38965,0.75977-2.56836,2.18848-2.56836c1.50879,0,2.13867,1.17871,2.13867,2.29785
		C230.82715,50.43164,230.81738,50.60156,230.79688,50.72168z M227.18945,50.1416h2.97852
		c0-0.02051-0.01074-0.07031-0.01074-0.16016c-0.0498-0.7998-0.55957-1.40918-1.46875-1.40918
		C227.79883,48.57227,227.24902,49.27246,227.18945,50.1416z"/>
	<path d="M234.91016,51.93066v-5.89648h0.68945v5.85645c0,0.33984,0.12012,0.55957,0.44922,0.55957
		c0.15039,0,0.32031-0.04004,0.46973-0.08984l0.01074,0.58984c-0.20996,0.06934-0.45996,0.12988-0.67969,0.12988
		C235.2793,53.08008,234.91016,52.7002,234.91016,51.93066z"/>
	<path d="M241.31738,49.93164V53h-0.62988l-0.04004-0.75977c-0.38965,0.5498-0.98926,0.83984-1.76855,0.83984
		c-1.06934,0-1.69922-0.55957-1.69922-1.50977c0-0.49902,0.2002-0.87891,0.55957-1.09863
		c0.37988-0.21973,0.91016-0.31055,1.87891-0.31055h1.00977v-0.22949c0-0.85938-0.4502-1.3291-1.2793-1.3291
		c-0.62012,0-1.09961,0.26953-1.49902,0.81934l-0.5-0.41992c0.5293-0.68945,1.16895-1.00879,2.00879-1.00879
		C240.59766,47.99316,241.31738,48.70215,241.31738,49.93164z M240.62793,50.79102v-0.06934h-0.94922
		c-0.91016,0-1.2998,0.05957-1.53906,0.24902c-0.18066,0.14062-0.27051,0.36035-0.27051,0.63965
		c0,0.5498,0.46973,0.90039,1.20996,0.90039C240.02832,52.51074,240.62793,51.84082,240.62793,50.79102z"/>
</g>
<g enable-background="new    ">
	<path fill="#00FFCC" d="M165.61035,64.79102l0.58008-0.25977c0.17969,0.50977,0.65918,0.93945,1.42871,0.93945
		c0.66992,0,1.09961-0.33008,1.09961-0.84961c0-1.30957-2.83887-0.49023-2.83887-2.23926c0-0.85938,0.7002-1.38867,1.68945-1.38867
		c0.79004,0,1.42969,0.3291,1.76953,1.0293l-0.5498,0.2998c-0.24023-0.44043-0.62988-0.71973-1.23926-0.71973
		c-0.61035,0-1,0.25-1,0.67969c0,1.16895,2.84863,0.42969,2.84863,2.29883c0,0.99902-0.81934,1.49902-1.76953,1.49902
		C166.66016,66.08008,165.87012,65.58008,165.61035,64.79102z"/>
	<path fill="#00FFCC" d="M174.64746,63.72168h-3.60742c0.01953,1.0791,0.61914,1.72852,1.58887,1.72852
		c0.54004,0,0.96973-0.13965,1.41895-0.61914l0.48047,0.41895c-0.58008,0.61035-1.14941,0.83008-1.90918,0.83008
		c-1.49902,0-2.26855-1.11914-2.26855-2.51855c0-1.38965,0.75977-2.56836,2.18848-2.56836
		c1.50879,0,2.13867,1.17871,2.13867,2.29785C174.67773,63.43164,174.66797,63.60156,174.64746,63.72168z M171.04004,63.1416
		h2.97852c0-0.02051-0.01074-0.07031-0.01074-0.16016c-0.0498-0.7998-0.55957-1.40918-1.46875-1.40918
		C171.64941,61.57227,171.09961,62.27246,171.04004,63.1416z"/>
	<path fill="#00FFCC" d="M180.18848,61.07227v6.9668h-0.69043v-2.69824c-0.35938,0.45898-0.90918,0.73926-1.62891,0.73926
		c-1.43848,0-2.18848-1.0791-2.18848-2.54883c0-1.53906,0.81934-2.54883,2.18848-2.54883c0.7002,0,1.25977,0.27051,1.62891,0.75
		v-0.66016H180.18848z M179.55859,63.53125c0-1.16895-0.59961-1.93848-1.58887-1.93848c-1,0-1.59961,0.76953-1.59961,1.93848
		c0,1.11914,0.5498,1.93945,1.59961,1.93945C179.00879,65.4707,179.55859,64.65039,179.55859,63.53125z"/>
	<path fill="#00FFCC" d="M185.81836,61.07227V66h-0.68945v-0.70996c-0.35059,0.53027-0.97949,0.79004-1.62988,0.79004
		c-1.11914,0-1.6084-0.76953-1.6084-1.98926v-3.01855h0.68945v2.84863c0,0.7998,0.13965,1.5498,1.0791,1.5498
		c0.97949,0,1.46973-0.84961,1.46973-2.12891v-2.26953H185.81836z"/>
	<path fill="#00FFCC" d="M191.4873,63.72168h-3.60742c0.01953,1.0791,0.61914,1.72852,1.58887,1.72852
		c0.54004,0,0.96973-0.13965,1.41895-0.61914l0.48047,0.41895c-0.58008,0.61035-1.14941,0.83008-1.90918,0.83008
		c-1.49902,0-2.26855-1.11914-2.26855-2.51855c0-1.38965,0.75977-2.56836,2.18848-2.56836
		c1.50879,0,2.13867,1.17871,2.13867,2.29785C191.51758,63.43164,191.50781,63.60156,191.4873,63.72168z M187.87988,63.1416h2.97852
		c0-0.02051-0.01074-0.07031-0.01074-0.16016c-0.0498-0.7998-0.55957-1.40918-1.46875-1.40918
		C188.48926,61.57227,187.93945,62.27246,187.87988,63.1416z"/>
	<path fill="#00FFCC" d="M196.83789,62.98145V66h-0.68945v-2.84863c0-1.05957-0.33984-1.54883-1.0791-1.54883
		c-0.92969,0-1.46973,0.7998-1.46973,2.18848V66h-0.68945v-4.92773h0.68945v0.71973
		c0.32031-0.49902,0.91992-0.79883,1.62891-0.79883C196.28809,60.99316,196.83789,61.67285,196.83789,62.98145z"/>
	<path fill="#00FFCC" d="M202.09863,61.62207l-3.20898,3.78809h3.18848V66h-4.09766v-0.5l3.27832-3.83789h-3.1084v-0.58984h3.94824
		V61.62207z"/>
	<path fill="#00FFCC" d="M207.07812,62.93164V66h-0.62988l-0.04004-0.75977c-0.38965,0.5498-0.98926,0.83984-1.76953,0.83984
		c-1.06934,0-1.69824-0.55957-1.69824-1.50977c0-0.49902,0.19922-0.87891,0.55957-1.09863
		c0.37988-0.21973,0.90918-0.31055,1.87891-0.31055h1.00879v-0.22949c0-0.85938-0.44922-1.3291-1.2793-1.3291
		c-0.61914,0-1.09863,0.26953-1.49902,0.81934l-0.49902-0.41992c0.5293-0.68945,1.16895-1.00879,2.00879-1.00879
		C206.3584,60.99316,207.07812,61.70215,207.07812,62.93164z M206.3877,63.79102v-0.06934h-0.94922
		c-0.90918,0-1.29883,0.05957-1.53906,0.24902c-0.17969,0.14062-0.26953,0.36035-0.26953,0.63965
		c0,0.5498,0.46973,0.90039,1.20898,0.90039C205.78809,65.51074,206.3877,64.84082,206.3877,63.79102z"/>
	<path fill="#00FFCC" d="M213.39844,62.49219l-2.37793-3.45801h0.85938l2.00879,2.95801l2.01855-2.95801h0.84961l-2.37891,3.45801
		L216.80664,66h-0.85938l-2.06836-2.98828L211.83984,66h-0.85938L213.39844,62.49219z"/>
</g>
<line id="Linea_299" fill="none" stroke="#000000" stroke-width="0.5" x1="99.60001" y1="71.39999" x2="99.60001" y2="27.10001"/>
<rect id="Rettangolo_9623" x="76.6" y="36.3" fill="none" stroke="#000000" stroke-miterlimit="10" width="45.50001" height="122.2"/>
<path id="Tracciato_108889" fill="none" stroke="#000000" stroke-width="0.5" stroke-miterlimit="10" d="M37.8,5.89999
	c21.1,0,20.6,30.89999,36.8,30.89999"/>
<g enable-background="new    ">
	<path d="M77.73877,168.73242h0.70996v6.30664h3.17822v0.65918h-3.88818V168.73242z"/>
	<path d="M83.10889,168.73242h0.70996v6.96582h-0.70996V168.73242z"/>
	<path d="M91.40576,168.73242l-2.74854,6.96582h-0.57959l-2.7583-6.96582h0.78955l2.25879,5.85645l2.25879-5.85645H91.40576z"/>
	<path d="M92.90869,168.73242h4.56787v0.65918h-3.85791v2.42871h3.46777v0.66016h-3.46777v2.55859h3.85791v0.65918h-4.56787
		V168.73242z"/>
	<path d="M99.22852,168.73242h0.70996v6.30664h3.17822v0.65918h-3.88818V168.73242z"/>
	<path d="M104.59814,168.73242h0.70996v6.30664h3.17822v0.65918h-3.88818V168.73242z"/>
	<path d="M109.14844,172.21973c0-2.1582,1.2793-3.58789,3.18848-3.58789c1.90869,0,3.18799,1.42969,3.18799,3.58789
		c0,2.14941-1.2793,3.57812-3.18799,3.57812C110.42773,175.79785,109.14844,174.36914,109.14844,172.21973z M114.81543,172.21973
		c0-1.77832-0.96924-2.9082-2.47852-2.9082s-2.47852,1.12988-2.47852,2.9082c0,1.76953,0.96924,2.89844,2.47852,2.89844
		S114.81543,173.98926,114.81543,172.21973z"/>
</g>
<g enable-background="new    ">
	<path d="M125.26221,168.73242h0.70996v6.30664h3.17822v0.65918h-3.88818V168.73242z"/>
	<path d="M130.63232,168.73242h0.70996v6.96582h-0.70996V168.73242z"/>
	<path d="M138.92871,168.73242l-2.74805,6.96582h-0.57959l-2.7583-6.96582h0.78955l2.25879,5.85645l2.2583-5.85645H138.92871z"/>
	<path d="M140.43164,168.73242H145v0.65918h-3.8584v2.42871h3.46777v0.66016h-3.46777v2.55859H145v0.65918h-4.56836V168.73242z"/>
	<path d="M146.75195,168.73242h0.70996v6.30664h3.17773v0.65918h-3.8877V168.73242z"/>
	<path d="M152.12109,168.73242h0.70996v6.30664h3.17871v0.65918h-3.88867V168.73242z"/>
	<path d="M156.67188,172.21973c0-2.1582,1.2793-3.58789,3.18848-3.58789c1.9082,0,3.1875,1.42969,3.1875,3.58789
		c0,2.14941-1.2793,3.57812-3.1875,3.57812C157.95117,175.79785,156.67188,174.36914,156.67188,172.21973z M162.33887,172.21973
		c0-1.77832-0.96973-2.9082-2.47852-2.9082c-1.50977,0-2.47852,1.12988-2.47852,2.9082c0,1.76953,0.96875,2.89844,2.47852,2.89844
		C161.36914,175.11816,162.33887,173.98926,162.33887,172.21973z"/>
	<path d="M171.67969,175.04883v0.64941h-4.81738v-0.63965c1.62891-1.01953,3.79785-2.47852,3.79785-4.32715
		c0-0.87988-0.49023-1.43945-1.38965-1.43945c-1.05859,0-1.53906,0.76953-1.54883,1.79883l-0.67969-0.0498
		c0-1.36914,0.79004-2.40918,2.22852-2.40918c1.23926,0,2.08887,0.76953,2.08887,2.10938c0,1.77832-1.5791,3.19824-3.34766,4.30762
		H171.67969z"/>
</g>
<g enable-background="new    ">
	<path d="M188.12598,185.06641h-2.40918v-0.65918h5.54688v0.65918h-2.41797v6.30664h-0.71973V185.06641z"/>
	<path d="M192.25684,184.40723h0.79883v1.01953h-0.79883V184.40723z M192.31641,186.44531h0.68945v4.92773h-0.68945V186.44531z"/>
	<path d="M199.33398,188.9043c0,1.46973-0.74902,2.54883-2.18848,2.54883c-0.71973,0-1.26953-0.28027-1.62891-0.73926v2.69824
		h-0.68945v-6.9668h0.68945v0.66016c0.36914-0.47949,0.92969-0.75,1.62891-0.75
		C198.51465,186.35547,199.33398,187.36523,199.33398,188.9043z M198.64453,188.9043c0-1.16895-0.59961-1.93848-1.59863-1.93848
		c-0.99023,0-1.58984,0.76953-1.58984,1.93848c0,1.11914,0.5498,1.93945,1.58984,1.93945
		C198.09473,190.84375,198.64453,190.02344,198.64453,188.9043z"/>
	<path d="M200.33691,188.9043c0-1.45898,0.94922-2.53809,2.3584-2.53809c1.39941,0,2.36914,1.0791,2.36914,2.53809
		c0,1.44922-0.95996,2.54883-2.36914,2.54883S200.33691,190.36328,200.33691,188.9043z M204.375,188.9043
		c0-1.11914-0.62988-1.92871-1.67969-1.92871c-1.05957,0-1.66895,0.81934-1.66895,1.92871
		c0,1.11914,0.62012,1.93945,1.66895,1.93945C203.75488,190.84375,204.375,190.00391,204.375,188.9043z"/>
	<path d="M213.30371,184.40723v6.96582h-0.68945v-0.65918c-0.35938,0.45898-0.90918,0.73926-1.62891,0.73926
		c-1.43945,0-2.18945-1.0791-2.18945-2.54883c0-1.53906,0.82031-2.54883,2.18945-2.54883c0.69922,0,1.25879,0.27051,1.62891,0.75
		v-2.69824H213.30371z M212.67383,188.9043c0-1.16895-0.59961-1.93848-1.58887-1.93848c-0.99902,0-1.59863,0.76953-1.59863,1.93848
		c0,1.11914,0.54883,1.93945,1.59863,1.93945C212.12402,190.84375,212.67383,190.02344,212.67383,188.9043z"/>
	<path d="M215.06641,184.40723h0.79883v1.01953h-0.79883V184.40723z M215.12598,186.44531h0.68945v4.92773h-0.68945V186.44531z"/>
	<path d="M219.83691,190.16406l0.5791-0.25977c0.17969,0.50977,0.66016,0.93945,1.42969,0.93945
		c0.66895,0,1.09961-0.33008,1.09961-0.84961c0-1.30957-2.83887-0.49023-2.83887-2.23926c0-0.85938,0.69922-1.38867,1.68945-1.38867
		c0.78906,0,1.42871,0.3291,1.76855,1.0293l-0.5498,0.2998c-0.23926-0.44043-0.62988-0.71973-1.23926-0.71973
		s-0.99902,0.25-0.99902,0.67969c0,1.16895,2.84766,0.42969,2.84766,2.29883c0,0.99902-0.81934,1.49902-1.76855,1.49902
		C220.88574,191.45312,220.09668,190.95312,219.83691,190.16406z"/>
	<path d="M228.87402,189.09473h-3.6084c0.02051,1.0791,0.62012,1.72852,1.58984,1.72852c0.53906,0,0.96875-0.13965,1.41895-0.61914
		l0.47949,0.41895c-0.5791,0.61035-1.14941,0.83008-1.90918,0.83008c-1.49902,0-2.26855-1.11914-2.26855-2.51855
		c0-1.38965,0.75977-2.56836,2.18945-2.56836c1.50879,0,2.13867,1.17871,2.13867,2.29785
		C228.9043,188.80469,228.89355,188.97461,228.87402,189.09473z M225.26562,188.51465h2.97852
		c0-0.02051-0.00977-0.07031-0.00977-0.16016c-0.0498-0.7998-0.55957-1.40918-1.46875-1.40918
		C225.87598,186.94531,225.32617,187.64551,225.26562,188.51465z"/>
	<path d="M234.41406,186.44531v6.9668h-0.69043v-2.69824c-0.35938,0.45898-0.90918,0.73926-1.62891,0.73926
		c-1.43848,0-2.18848-1.0791-2.18848-2.54883c0-1.53906,0.81934-2.54883,2.18848-2.54883c0.7002,0,1.25977,0.27051,1.62891,0.75
		v-0.66016H234.41406z M233.78418,188.9043c0-1.16895-0.59961-1.93848-1.58887-1.93848c-1,0-1.59961,0.76953-1.59961,1.93848
		c0,1.11914,0.5498,1.93945,1.59961,1.93945C233.23438,190.84375,233.78418,190.02344,233.78418,188.9043z"/>
	<path d="M240.04395,186.44531v4.92773h-0.68945v-0.70996c-0.35059,0.53027-0.97949,0.79004-1.62988,0.79004
		c-1.11914,0-1.6084-0.76953-1.6084-1.98926v-3.01855h0.68945v2.84863c0,0.7998,0.13965,1.5498,1.0791,1.5498
		c0.97949,0,1.46973-0.84961,1.46973-2.12891v-2.26953H240.04395z"/>
	<path d="M245.71387,189.09473h-3.6084c0.02051,1.0791,0.62012,1.72852,1.58984,1.72852c0.53906,0,0.96875-0.13965,1.41895-0.61914
		l0.47949,0.41895c-0.5791,0.61035-1.14941,0.83008-1.90918,0.83008c-1.49902,0-2.26855-1.11914-2.26855-2.51855
		c0-1.38965,0.75977-2.56836,2.18945-2.56836c1.50879,0,2.13867,1.17871,2.13867,2.29785
		C245.74414,188.80469,245.7334,188.97461,245.71387,189.09473z M242.10547,188.51465h2.97852
		c0-0.02051-0.00977-0.07031-0.00977-0.16016c-0.0498-0.7998-0.55957-1.40918-1.46875-1.40918
		C242.71582,186.94531,242.16602,187.64551,242.10547,188.51465z"/>
	<path d="M251.06348,188.35449v3.01855h-0.68945v-2.84863c0-1.05957-0.33984-1.54883-1.0791-1.54883
		c-0.92969,0-1.46973,0.7998-1.46973,2.18848v2.20898h-0.68945v-4.92773h0.68945v0.71973
		c0.32031-0.49902,0.91992-0.79883,1.62891-0.79883C250.51367,186.36621,251.06348,187.0459,251.06348,188.35449z"/>
	<path d="M256.32422,186.99512l-3.20898,3.78809h3.18848v0.58984h-4.09766v-0.5l3.27832-3.83789h-3.1084v-0.58984h3.94824V186.99512
		z"/>
	<path d="M261.30371,188.30469v3.06836h-0.62988l-0.04004-0.75977c-0.38965,0.5498-0.98926,0.83984-1.76855,0.83984
		c-1.06934,0-1.69922-0.55957-1.69922-1.50977c0-0.49902,0.2002-0.87891,0.55957-1.09863
		c0.37988-0.21973,0.91016-0.31055,1.87891-0.31055h1.00977v-0.22949c0-0.85938-0.4502-1.3291-1.2793-1.3291
		c-0.62012,0-1.09961,0.26953-1.49902,0.81934l-0.5-0.41992c0.5293-0.68945,1.16895-1.00879,2.00879-1.00879
		C260.58398,186.36621,261.30371,187.0752,261.30371,188.30469z M260.61426,189.16406v-0.06934h-0.94922
		c-0.91016,0-1.2998,0.05957-1.53906,0.24902c-0.18066,0.14062-0.27051,0.36035-0.27051,0.63965
		c0,0.5498,0.46973,0.90039,1.20996,0.90039C260.01465,190.88379,260.61426,190.21387,260.61426,189.16406z"/>
</g>
<line id="Linea_301" fill="none" stroke="#00FFCC" stroke-miterlimit="10" x1="76.56299" y1="192.996" x2="115.86298" y2="192.996"/>
<line id="Linea_302" fill="none" stroke="#6666FF" stroke-miterlimit="10" x1="123.96301" y1="192.996" x2="164.16302" y2="192.996"/>
<line id="Linea_303" fill="none" stroke="#000000" stroke-width="0.5" x1="183.58992" y1="188.7899" x2="167.58992" y2="188.7899"/>
<path id="Tracciato_116468" fill="none" stroke="#000000" stroke-width="0.5" d="M144.93089,82.20001
	c0-12.20001-2.10001-38.7,15.10001-38.7"/>
<g enable-background="new    ">
	<path fill="#C6CACF" d="M77.72998,183.91797h1.88916c2.26855,0,3.55811,1.28906,3.55811,3.53809
		c0,2.21875-1.25928,3.42773-3.56787,3.42773h-1.87939V183.91797z M79.54932,190.22461c1.94873,0,2.9082-0.91992,2.9082-2.79883
		c0-1.88867-0.95947-2.84863-2.84814-2.84863h-1.16943v5.64746H79.54932z"/>
	<path fill="#C6CACF" d="M88.64795,188.60547h-3.60791c0.02002,1.0791,0.61963,1.72852,1.58936,1.72852
		c0.53955,0,0.96924-0.13965,1.41895-0.61914l0.47998,0.41895c-0.57959,0.61035-1.14941,0.83008-1.90918,0.83008
		c-1.49902,0-2.26855-1.11914-2.26855-2.51855c0-1.38965,0.75977-2.56836,2.18896-2.56836
		c1.50879,0,2.13867,1.17871,2.13867,2.29785C88.67822,188.31543,88.66797,188.48535,88.64795,188.60547z M85.04004,188.02539
		h2.97852c0-0.02051-0.01025-0.07031-0.01025-0.16016c-0.0498-0.7998-0.55957-1.40918-1.46875-1.40918
		C85.6499,186.45605,85.1001,187.15625,85.04004,188.02539z"/>
	<path fill="#C6CACF" d="M92.11914,190.83398c-0.25977,0.08008-0.52002,0.12988-0.74951,0.12988
		c-0.65967,0-1.13965-0.37012-1.13965-1.23926v-3.18848h-0.81934v-0.58008h0.81934v-1.37891l0.68994-0.51953v1.89844h1.18896
		v0.58008h-1.18896v3.09863c0,0.47949,0.21973,0.69922,0.60938,0.69922c0.16992,0,0.35986-0.04004,0.57959-0.10938
		L92.11914,190.83398z"/>
	<path fill="#C6CACF" d="M95.479,190.83398c-0.25977,0.08008-0.52002,0.12988-0.74951,0.12988
		c-0.65967,0-1.13965-0.37012-1.13965-1.23926v-3.18848h-0.81934v-0.58008h0.81934v-1.37891l0.68945-0.51953v1.89844h1.18945
		v0.58008H94.2793v3.09863c0,0.47949,0.22021,0.69922,0.60986,0.69922c0.16992,0,0.35986-0.04004,0.57959-0.10938L95.479,190.83398z
		"/>
	<path fill="#C6CACF" d="M100.4585,187.81543v3.06836h-0.62988l-0.04004-0.75977c-0.38965,0.5498-0.98926,0.83984-1.76904,0.83984
		c-1.06934,0-1.69873-0.55957-1.69873-1.50977c0-0.49902,0.19971-0.87891,0.55957-1.09863
		c0.37988-0.21973,0.90967-0.31055,1.87891-0.31055h1.00928v-0.22949c0-0.85938-0.44971-1.3291-1.2793-1.3291
		c-0.61963,0-1.09912,0.26953-1.49902,0.81934l-0.49951-0.41992c0.5293-0.68945,1.16895-1.00879,2.00879-1.00879
		C99.73877,185.87695,100.4585,186.58594,100.4585,187.81543z M99.76855,188.6748v-0.06934h-0.94922
		c-0.90967,0-1.29932,0.05957-1.53906,0.24902c-0.18018,0.14062-0.27002,0.36035-0.27002,0.63965
		c0,0.5498,0.46973,0.90039,1.20947,0.90039C99.16895,190.39453,99.76855,189.72461,99.76855,188.6748z"/>
	<path fill="#C6CACF" d="M105.97803,191.64355c0,0.92969-0.86963,1.35938-2.10889,1.35938
		c-1.36914,0-2.19873-0.54004-2.19873-1.51953c0-0.09961,0.00977-0.16016,0.02002-0.21973l0.79932-0.67969
		c-0.37988-0.16992-0.63965-0.4502-0.63965-0.93945c0-0.39941,0.18018-0.69922,0.52979-0.93945
		c-0.25977-0.2998-0.41992-0.67969-0.41992-1.11914c0-1,0.81982-1.70898,1.87891-1.70898c0.47998,0,0.90967,0.14941,1.22949,0.39941
		l0.67969-0.58984l0.35986,0.4502l-0.66992,0.55957c0.16992,0.26953,0.27002,0.5791,0.27002,0.92969
		c0,1.00879-0.81934,1.67871-1.85889,1.67871c-0.37988,0-0.72949-0.08984-1.01953-0.25
		c-0.19971,0.11035-0.31982,0.29004-0.31982,0.5c0,0.5,0.61963,0.61914,1.3291,0.72949
		C104.81836,190.43359,105.97803,190.57422,105.97803,191.64355z M105.28809,191.70312c0-0.59961-0.7793-0.68945-1.59912-0.81934
		c-0.21973-0.03027-0.44971-0.07031-0.65967-0.12012l-0.66943,0.64941c-0.01025,0.05078-0.01025,0.07031-0.01025,0.09082
		c0,0.69922,0.70996,0.91895,1.54932,0.91895C104.76855,192.42285,105.28809,192.18262,105.28809,191.70312z M102.63965,187.60547
		c0,0.63965,0.45996,1.12988,1.19922,1.12988c0.73975,0,1.17969-0.48047,1.17969-1.12988c0-0.67969-0.45996-1.14941-1.16943-1.14941
		C103.14941,186.45605,102.63965,186.92578,102.63965,187.60547z"/>
	<path fill="#C6CACF" d="M107.31006,189.81445v-5.89648h0.68945v5.85645c0,0.33984,0.12012,0.55957,0.44971,0.55957
		c0.1499,0,0.31982-0.04004,0.46973-0.08984l0.01025,0.58984c-0.20996,0.06934-0.45996,0.12988-0.67969,0.12988
		C107.67969,190.96387,107.31006,190.58398,107.31006,189.81445z"/>
	<path fill="#C6CACF" d="M109.99023,183.91797h0.79932v1.01953h-0.79932V183.91797z M110.05029,185.95605h0.68945v4.92773h-0.68945
		V185.95605z"/>
	<path fill="#C6CACF" d="M112.12988,188.41504c0-1.45898,0.94971-2.53809,2.35889-2.53809c1.39941,0,2.36865,1.0791,2.36865,2.53809
		c0,1.44922-0.95947,2.54883-2.36865,2.54883S112.12988,189.87402,112.12988,188.41504z M116.16797,188.41504
		c0-1.11914-0.62988-1.92871-1.6792-1.92871c-1.05957,0-1.66895,0.81934-1.66895,1.92871c0,1.11914,0.61963,1.93945,1.66895,1.93945
		C115.54834,190.35449,116.16797,189.51465,116.16797,188.41504z"/>
</g>
<g enable-background="new    ">
	<path fill="#C6CACF" d="M125.0542,183.91797h1.88916c2.26855,0,3.55811,1.28906,3.55811,3.53809
		c0,2.21875-1.25928,3.42773-3.56787,3.42773h-1.87939V183.91797z M126.87354,190.22461c1.94873,0,2.9082-0.91992,2.9082-2.79883
		c0-1.88867-0.95947-2.84863-2.84814-2.84863h-1.16943v5.64746H126.87354z"/>
	<path fill="#C6CACF" d="M135.97217,188.60547h-3.60791c0.02002,1.0791,0.61963,1.72852,1.58936,1.72852
		c0.53955,0,0.96924-0.13965,1.41895-0.61914l0.47998,0.41895c-0.57959,0.61035-1.14941,0.83008-1.90918,0.83008
		c-1.49902,0-2.26855-1.11914-2.26855-2.51855c0-1.38965,0.75977-2.56836,2.18896-2.56836
		c1.50879,0,2.13818,1.17871,2.13818,2.29785C136.00195,188.31543,135.99219,188.48535,135.97217,188.60547z M132.36426,188.02539
		h2.97852c0-0.02051-0.01025-0.07031-0.01025-0.16016c-0.0498-0.7998-0.55957-1.40918-1.46875-1.40918
		C132.97412,186.45605,132.42432,187.15625,132.36426,188.02539z"/>
	<path fill="#C6CACF" d="M139.44336,190.83398c-0.25977,0.08008-0.52051,0.12988-0.75,0.12988
		c-0.65918,0-1.13965-0.37012-1.13965-1.23926v-3.18848h-0.81934v-0.58008h0.81934v-1.37891l0.69043-0.51953v1.89844h1.18848
		v0.58008h-1.18848v3.09863c0,0.47949,0.21973,0.69922,0.60938,0.69922c0.16992,0,0.35938-0.04004,0.5791-0.10938
		L139.44336,190.83398z"/>
	<path fill="#C6CACF" d="M142.80273,190.83398c-0.25977,0.08008-0.51953,0.12988-0.74902,0.12988
		c-0.66016,0-1.13965-0.37012-1.13965-1.23926v-3.18848h-0.81934v-0.58008h0.81934v-1.37891l0.68945-0.51953v1.89844h1.18945
		v0.58008h-1.18945v3.09863c0,0.47949,0.21973,0.69922,0.60938,0.69922c0.16992,0,0.36035-0.04004,0.58008-0.10938
		L142.80273,190.83398z"/>
	<path fill="#C6CACF" d="M147.78223,187.81543v3.06836h-0.62988l-0.04004-0.75977c-0.38965,0.5498-0.98926,0.83984-1.76855,0.83984
		c-1.06934,0-1.69922-0.55957-1.69922-1.50977c0-0.49902,0.2002-0.87891,0.55957-1.09863
		c0.37988-0.21973,0.91016-0.31055,1.87891-0.31055h1.00977v-0.22949c0-0.85938-0.4502-1.3291-1.2793-1.3291
		c-0.62012,0-1.09961,0.26953-1.49902,0.81934l-0.5-0.41992c0.5293-0.68945,1.16895-1.00879,2.00879-1.00879
		C147.0625,185.87695,147.78223,186.58594,147.78223,187.81543z M147.09277,188.6748v-0.06934h-0.94922
		c-0.91016,0-1.2998,0.05957-1.53906,0.24902c-0.18066,0.14062-0.27051,0.36035-0.27051,0.63965
		c0,0.5498,0.46973,0.90039,1.20996,0.90039C146.49316,190.39453,147.09277,189.72461,147.09277,188.6748z"/>
	<path fill="#C6CACF" d="M153.30176,191.64355c0,0.92969-0.86914,1.35938-2.1084,1.35938
		c-1.36914,0-2.19922-0.54004-2.19922-1.51953c0-0.09961,0.00977-0.16016,0.02051-0.21973l0.79883-0.67969
		c-0.37988-0.16992-0.63965-0.4502-0.63965-0.93945c0-0.39941,0.18066-0.69922,0.53027-0.93945
		c-0.25977-0.2998-0.41992-0.67969-0.41992-1.11914c0-1,0.81934-1.70898,1.87891-1.70898c0.47949,0,0.90918,0.14941,1.22949,0.39941
		l0.67969-0.58984l0.35938,0.4502l-0.66992,0.55957c0.16992,0.26953,0.27051,0.5791,0.27051,0.92969
		c0,1.00879-0.81934,1.67871-1.85938,1.67871c-0.37988,0-0.72949-0.08984-1.01953-0.25
		c-0.19922,0.11035-0.31934,0.29004-0.31934,0.5c0,0.5,0.61914,0.61914,1.3291,0.72949
		C152.14258,190.43359,153.30176,190.57422,153.30176,191.64355z M152.6123,191.70312c0-0.59961-0.7793-0.68945-1.59961-0.81934
		c-0.21973-0.03027-0.44922-0.07031-0.65918-0.12012l-0.66992,0.64941c-0.00977,0.05078-0.00977,0.07031-0.00977,0.09082
		c0,0.69922,0.70996,0.91895,1.54883,0.91895C152.09277,192.42285,152.6123,192.18262,152.6123,191.70312z M149.96387,187.60547
		c0,0.63965,0.45996,1.12988,1.19922,1.12988s1.17969-0.48047,1.17969-1.12988c0-0.67969-0.45996-1.14941-1.16992-1.14941
		C150.47363,186.45605,149.96387,186.92578,149.96387,187.60547z"/>
	<path fill="#C6CACF" d="M154.63379,189.81445v-5.89648h0.68945v5.85645c0,0.33984,0.12012,0.55957,0.4502,0.55957
		c0.14941,0,0.31934-0.04004,0.46973-0.08984l0.00977,0.58984c-0.20996,0.06934-0.45996,0.12988-0.67969,0.12988
		C155.00391,190.96387,154.63379,190.58398,154.63379,189.81445z"/>
	<path fill="#C6CACF" d="M157.31445,183.91797h0.79883v1.01953h-0.79883V183.91797z M157.37402,185.95605h0.68945v4.92773h-0.68945
		V185.95605z"/>
	<path fill="#C6CACF" d="M159.4541,188.41504c0-1.45898,0.94922-2.53809,2.3584-2.53809c1.39941,0,2.36914,1.0791,2.36914,2.53809
		c0,1.44922-0.95996,2.54883-2.36914,2.54883S159.4541,189.87402,159.4541,188.41504z M163.49219,188.41504
		c0-1.11914-0.62988-1.92871-1.67969-1.92871c-1.05957,0-1.66895,0.81934-1.66895,1.92871
		c0,1.11914,0.62012,1.93945,1.66895,1.93945C162.87207,190.35449,163.49219,189.51465,163.49219,188.41504z"/>
</g>
<g>
	<rect x="0.11079" y="79.97974" fill="none" width="59.12896" height="53.03973"/>
	<path d="M12.69922,79.98291h0.70996v6.30664h3.17822v0.65967h-3.88818V79.98291z"/>
	<path d="M21.44775,82.02197v4.92725H20.7583v-0.70947c-0.34961,0.52979-0.97949,0.78955-1.62891,0.78955
		c-1.11963,0-1.60938-0.76953-1.60938-1.98926v-3.01807h0.68945v2.84863c0,0.79932,0.14014,1.54883,1.07959,1.54883
		c0.97949,0,1.46924-0.84961,1.46924-2.12891v-2.26855H21.44775z"/>
	<path d="M27.19775,83.93066v3.01855H26.5083v-2.84863c0-1.05908-0.33984-1.54883-1.07959-1.54883
		c-0.92969,0-1.46924,0.79932-1.46924,2.18848v2.20898h-0.68945v-4.92725h0.68945v0.71973
		c0.31982-0.5,0.91943-0.7998,1.62891-0.7998C26.64795,81.94189,27.19775,82.62158,27.19775,83.93066z"/>
	<path d="M32.73779,87.70898c0,0.9292-0.86963,1.35889-2.10889,1.35889c-1.36914,0-2.19873-0.53955-2.19873-1.51904
		c0-0.1001,0.00977-0.15967,0.02002-0.21973l0.79932-0.67969c-0.37988-0.16992-0.63965-0.44971-0.63965-0.93945
		c0-0.3999,0.17969-0.69971,0.52979-0.93945c-0.25977-0.2998-0.41992-0.67969-0.41992-1.11963
		c0-0.99951,0.81982-1.70898,1.87891-1.70898c0.47998,0,0.90967,0.1499,1.22949,0.3999l0.67969-0.58984l0.35986,0.44971
		l-0.66992,0.56006c0.16992,0.26953,0.27002,0.57959,0.27002,0.9292c0,1.00977-0.81934,1.6792-1.85889,1.6792
		c-0.37988,0-0.72949-0.08984-1.01953-0.25c-0.19971,0.10986-0.31982,0.29004-0.31982,0.5c0,0.49951,0.61963,0.61963,1.3291,0.72949
		C31.57812,86.49951,32.73779,86.63916,32.73779,87.70898z M32.04785,87.76855c0-0.59961-0.7793-0.68945-1.59912-0.81934
		c-0.21973-0.02979-0.44971-0.06982-0.65967-0.12012l-0.66943,0.6499c-0.00977,0.0498-0.00977,0.06982-0.00977,0.08984
		c0,0.69971,0.70947,0.91943,1.54883,0.91943C31.52832,88.48828,32.04785,88.24854,32.04785,87.76855z M29.39941,83.6709
		c0,0.63965,0.45996,1.12939,1.19922,1.12939c0.73975,0,1.17969-0.47949,1.17969-1.12939c0-0.67969-0.45996-1.14941-1.16943-1.14941
		C29.90918,82.52148,29.39941,82.99121,29.39941,83.6709z"/>
	<path d="M38.0376,83.93066v3.01855h-0.68945v-2.84863c0-1.06934-0.33984-1.54883-1.07959-1.54883
		c-0.93945,0-1.46924,0.76953-1.46924,2.12891v2.26855h-0.68945v-6.96631h0.68945v2.75879
		c0.31982-0.5,0.91943-0.7998,1.62891-0.7998C37.48779,81.94189,38.0376,82.62158,38.0376,83.93066z"/>
	<path d="M43.63721,84.67041H40.0293c0.02002,1.07959,0.61963,1.729,1.58936,1.729c0.53955,0,0.96924-0.13965,1.41895-0.61963
		l0.47998,0.41992c-0.57959,0.60938-1.14941,0.82959-1.90918,0.82959c-1.49902,0-2.26855-1.11963-2.26855-2.51855
		c0-1.38965,0.75977-2.56885,2.18896-2.56885c1.50879,0,2.13867,1.1792,2.13867,2.29883
		C43.66748,84.38086,43.65723,84.55029,43.63721,84.67041z M40.0293,84.09082h2.97852c0-0.02002-0.01025-0.06982-0.01025-0.16016
		c-0.0498-0.79932-0.55957-1.40918-1.46875-1.40918C40.63916,82.52148,40.08936,83.22119,40.0293,84.09082z"/>
	<path d="M48.61768,82.57178l-3.2085,3.7876h3.18848v0.58984h-4.09814v-0.49951l3.27832-3.83789h-3.1084v-0.58984h3.94824V82.57178z
		"/>
	<path d="M53.48779,82.57178l-3.2085,3.7876h3.18848v0.58984h-4.09814v-0.49951l3.27832-3.83789h-3.1084v-0.58984h3.94824V82.57178z
		"/>
	<path d="M58.46777,83.88086v3.06836h-0.62988l-0.04004-0.75977c-0.38965,0.5498-0.98926,0.83984-1.76904,0.83984
		c-1.06934,0-1.69873-0.56006-1.69873-1.50928c0-0.49951,0.19971-0.87939,0.55957-1.09961
		c0.37988-0.21973,0.90967-0.30957,1.87891-0.30957h1.00928v-0.22998c0-0.85938-0.44971-1.3291-1.2793-1.3291
		c-0.61963,0-1.09912,0.26953-1.49902,0.81934L54.5,82.95166c0.5293-0.68994,1.16895-1.00977,2.00879-1.00977
		C57.74805,81.94189,58.46777,82.65137,58.46777,83.88086z M57.77783,84.74023v-0.06982h-0.94922
		c-0.90967,0-1.29932,0.06006-1.53906,0.25c-0.18018,0.13965-0.27002,0.35986-0.27002,0.63965
		c0,0.5498,0.46973,0.89941,1.20947,0.89941C57.17822,86.45947,57.77783,85.79004,57.77783,84.74023z"/>
	<path d="M25.2876,91.98291v6.96631h-0.68994v-0.65967c-0.35938,0.45996-0.90918,0.73975-1.62891,0.73975
		c-1.43896,0-2.18896-1.07959-2.18896-2.54883c0-1.53906,0.81982-2.54834,2.18896-2.54834
		c0.69971,0,1.25928,0.26953,1.62891,0.74951v-2.69873H25.2876z M24.65771,96.48047c0-1.16943-0.59961-1.93896-1.58887-1.93896
		c-0.99951,0-1.59912,0.76953-1.59912,1.93896c0,1.11963,0.54932,1.93896,1.59912,1.93896
		C24.10791,98.41943,24.65771,97.6001,24.65771,96.48047z"/>
	<path d="M31.00732,96.67041h-3.60791c0.02002,1.07959,0.61963,1.729,1.58936,1.729c0.53955,0,0.96924-0.13965,1.41895-0.61963
		l0.47998,0.41992c-0.57959,0.60938-1.14941,0.82959-1.90918,0.82959c-1.49902,0-2.26855-1.11963-2.26855-2.51855
		c0-1.38965,0.75977-2.56885,2.18896-2.56885c1.50879,0,2.13867,1.1792,2.13867,2.29883
		C31.0376,96.38086,31.02734,96.55029,31.00732,96.67041z M27.39941,96.09082h2.97852c0-0.02002-0.01025-0.06982-0.01025-0.16016
		c-0.0498-0.79932-0.55957-1.40918-1.46875-1.40918C28.00928,94.52148,27.45947,95.22119,27.39941,96.09082z"/>
	<path d="M32.38965,97.87988v-5.89697h0.68945v5.85693c0,0.33984,0.12012,0.55957,0.44971,0.55957
		c0.1499,0,0.31982-0.04004,0.46973-0.08984l0.01025,0.58984c-0.20996,0.06982-0.45996,0.12988-0.67969,0.12988
		C32.75928,99.0293,32.38965,98.64941,32.38965,97.87988z"/>
	<path d="M39.9082,98.89941c-0.25977,0.07959-0.52002,0.12988-0.74951,0.12988c-0.65967,0-1.13965-0.37012-1.13965-1.23926v-3.18848
		h-0.81934v-0.57959h0.81934v-1.37939l0.68945-0.51953v1.89893h1.18945v0.57959H38.7085v3.09814
		c0,0.47998,0.22021,0.69971,0.60986,0.69971c0.16992,0,0.35986-0.04004,0.57959-0.10986L39.9082,98.89941z"/>
	<path d="M45.06689,96.67041h-3.60791c0.02002,1.07959,0.61963,1.729,1.58936,1.729c0.53955,0,0.96924-0.13965,1.41895-0.61963
		l0.47998,0.41992c-0.57959,0.60938-1.14941,0.82959-1.90918,0.82959c-1.49902,0-2.26855-1.11963-2.26855-2.51855
		c0-1.38965,0.75977-2.56885,2.18896-2.56885c1.50879,0,2.13867,1.1792,2.13867,2.29883
		C45.09717,96.38086,45.08691,96.55029,45.06689,96.67041z M41.45898,96.09082h2.97852c0-0.02002-0.01025-0.06982-0.01025-0.16016
		c-0.0498-0.79932-0.55957-1.40918-1.46875-1.40918C42.06885,94.52148,41.51904,95.22119,41.45898,96.09082z"/>
	<path d="M45.95947,97.73975l0.57959-0.25977c0.17969,0.50977,0.65967,0.93945,1.4292,0.93945
		c0.66943,0,1.09961-0.32959,1.09961-0.84961c0-1.30908-2.83887-0.48975-2.83887-2.23877c0-0.85938,0.69971-1.38916,1.68945-1.38916
		c0.78955,0,1.4292,0.33008,1.76904,1.0293l-0.5498,0.2998c-0.23975-0.43945-0.62988-0.71924-1.23926-0.71924
		c-0.60986,0-0.99951,0.24951-0.99951,0.67969c0,1.16895,2.84814,0.42969,2.84814,2.29834
		c0,0.99951-0.81934,1.49951-1.76904,1.49951C47.00879,99.0293,46.21924,98.5293,45.95947,97.73975z"/>
	<path d="M53.19775,98.89941c-0.25977,0.07959-0.52002,0.12988-0.74951,0.12988c-0.65967,0-1.13965-0.37012-1.13965-1.23926
		v-3.18848h-0.81934v-0.57959h0.81934v-1.37939l0.68994-0.51953v1.89893h1.18896v0.57959h-1.18896v3.09814
		c0,0.47998,0.21973,0.69971,0.60938,0.69971c0.16992,0,0.35986-0.04004,0.57959-0.10986L53.19775,98.89941z"/>
	<path d="M54.02881,96.48047c0-1.45898,0.94971-2.53857,2.35889-2.53857c1.39941,0,2.36865,1.07959,2.36865,2.53857
		c0,1.44922-0.95947,2.54883-2.36865,2.54883S54.02881,97.93994,54.02881,96.48047z M58.06689,96.48047
		c0-1.11914-0.62988-1.92871-1.6792-1.92871c-1.05957,0-1.66895,0.81934-1.66895,1.92871c0,1.11963,0.61963,1.93896,1.66895,1.93896
		C57.44727,98.41943,58.06689,97.58008,58.06689,96.48047z"/>
	<path d="M5.91797,107.93066v3.01855H5.22852v-2.84863c0-1.05859-0.33984-1.54883-1.07959-1.54883
		c-0.92969,0-1.46924,0.7998-1.46924,2.18848v2.20898H1.99023v-4.92676h0.68945v0.71973c0.31982-0.5,0.91943-0.7998,1.62891-0.7998
		C5.36816,105.94238,5.91797,106.62207,5.91797,107.93066z"/>
	<path d="M7.18994,108.48047c0-1.45898,0.94971-2.53809,2.35889-2.53809c1.39941,0,2.36865,1.0791,2.36865,2.53809
		c0,1.44922-0.95947,2.54883-2.36865,2.54883S7.18994,109.94043,7.18994,108.48047z M11.22803,108.48047
		c0-1.11914-0.62988-1.92871-1.6792-1.92871c-1.05957,0-1.66895,0.81934-1.66895,1.92871c0,1.12012,0.61963,1.93945,1.66895,1.93945
		C10.6084,110.41992,11.22803,109.58008,11.22803,108.48047z"/>
	<path d="M16.30811,106.15234l-0.33984,0.55957c-0.22949-0.09961-0.43945-0.15039-0.64941-0.15039
		c-0.75977,0-1.31934,0.57031-1.31934,1.63965v2.74805h-0.68945v-4.92676h0.68945v0.73926
		c0.35986-0.64941,0.95947-0.81934,1.45898-0.81934C15.7583,105.94238,16.03857,106.00195,16.30811,106.15234z"/>
	<path d="M24.08643,107.87109v3.07812h-0.68994v-2.8877c0-0.41992,0-1.50977-1.0791-1.50977
		c-0.99951,0-1.26953,0.91992-1.26953,2.0293v2.36816H20.3584v-2.84863c0-0.81934-0.25-1.54883-1.10938-1.54883
		c-0.95947,0-1.22949,0.90918-1.22949,2.0293v2.36816h-0.68945l-0.01025-4.92676h0.66992v0.59961
		c0.30957-0.49023,0.80957-0.67969,1.35889-0.67969c0.68994,0,1.19971,0.2998,1.44922,0.94922
		c0.31982-0.62988,0.86963-0.94922,1.61914-0.94922C23.59668,105.94238,24.08643,106.72168,24.08643,107.87109z"/>
	<path d="M29.45801,107.88086v3.06836h-0.62988l-0.04004-0.75977c-0.38965,0.5498-0.98926,0.83984-1.76904,0.83984
		c-1.06934,0-1.69873-0.55957-1.69873-1.50879c0-0.5,0.19971-0.87988,0.55957-1.09961
		c0.37988-0.21973,0.90967-0.30957,1.87891-0.30957h1.00928v-0.23047c0-0.85938-0.44971-1.3291-1.2793-1.3291
		c-0.61963,0-1.09912,0.26953-1.49902,0.81934l-0.49951-0.41895c0.5293-0.69043,1.16895-1.00977,2.00879-1.00977
		C28.73828,105.94238,29.45801,106.65137,29.45801,107.88086z M28.76807,108.74023v-0.06934h-0.94922
		c-0.90967,0-1.29932,0.05957-1.53906,0.25c-0.18018,0.13965-0.27002,0.35938-0.27002,0.63965
		c0,0.5498,0.46973,0.89941,1.20947,0.89941C28.16846,110.45996,28.76807,109.79004,28.76807,108.74023z"/>
	<path d="M31.1001,109.87988v-5.89697h0.68945v5.85693c0,0.33984,0.12012,0.55957,0.44971,0.55957
		c0.1499,0,0.31982-0.04004,0.46973-0.08984l0.01025,0.58984c-0.20996,0.07031-0.45996,0.12988-0.67969,0.12988
		C31.46973,111.0293,31.1001,110.64941,31.1001,109.87988z"/>
	<path d="M33.77979,103.98291h0.79932v1.02002h-0.79932V103.98291z M33.83984,106.02246h0.68945v4.92676h-0.68945V106.02246z"/>
	<path d="M39.90771,106.57227l-3.2085,3.78711h3.18848v0.58984h-4.09814v-0.49902l3.27832-3.83789h-3.1084v-0.58984h3.94824
		V106.57227z"/>
	<path d="M44.77783,106.57227l-3.2085,3.78711h3.18848v0.58984h-4.09814v-0.49902l3.27832-3.83789h-3.1084v-0.58984h3.94824
		V106.57227z"/>
	<path d="M49.75781,107.88086v3.06836h-0.62988l-0.04004-0.75977c-0.38965,0.5498-0.98926,0.83984-1.76904,0.83984
		c-1.06934,0-1.69873-0.55957-1.69873-1.50879c0-0.5,0.19971-0.87988,0.55957-1.09961
		c0.37988-0.21973,0.90967-0.30957,1.87891-0.30957h1.00928v-0.23047c0-0.85938-0.44971-1.3291-1.2793-1.3291
		c-0.61963,0-1.09912,0.26953-1.49902,0.81934l-0.49951-0.41895c0.5293-0.69043,1.16895-1.00977,2.00879-1.00977
		C49.03809,105.94238,49.75781,106.65137,49.75781,107.88086z M49.06787,108.74023v-0.06934h-0.94922
		c-0.90967,0-1.29932,0.05957-1.53906,0.25c-0.18018,0.13965-0.27002,0.35938-0.27002,0.63965
		c0,0.5498,0.46973,0.89941,1.20947,0.89941C48.46826,110.45996,49.06787,109.79004,49.06787,108.74023z"/>
	<path d="M53.48877,110.89941c-0.25977,0.08008-0.52002,0.12988-0.74951,0.12988c-0.65967,0-1.13965-0.37012-1.13965-1.23926
		v-3.18848h-0.81934v-0.5791h0.81934v-1.37988l0.68994-0.51953v1.89941h1.18896v0.5791h-1.18896v3.09863
		c0,0.47949,0.21973,0.69922,0.60938,0.69922c0.16992,0,0.35986-0.04004,0.57959-0.10938L53.48877,110.89941z"/>
	<path d="M58.46777,107.88086v3.06836h-0.62988l-0.04004-0.75977c-0.38965,0.5498-0.98926,0.83984-1.76904,0.83984
		c-1.06934,0-1.69873-0.55957-1.69873-1.50879c0-0.5,0.19971-0.87988,0.55957-1.09961
		c0.37988-0.21973,0.90967-0.30957,1.87891-0.30957h1.00928v-0.23047c0-0.85938-0.44971-1.3291-1.2793-1.3291
		c-0.61963,0-1.09912,0.26953-1.49902,0.81934L54.5,106.95215c0.5293-0.69043,1.16895-1.00977,2.00879-1.00977
		C57.74805,105.94238,58.46777,106.65137,58.46777,107.88086z M57.77783,108.74023v-0.06934h-0.94922
		c-0.90967,0-1.29932,0.05957-1.53906,0.25c-0.18018,0.13965-0.27002,0.35938-0.27002,0.63965
		c0,0.5498,0.46973,0.89941,1.20947,0.89941C57.17822,110.45996,57.77783,109.79004,57.77783,108.74023z"/>
</g>
</svg>
