<svg xmlns="http://www.w3.org/2000/svg" xmlns:xlink="http://www.w3.org/1999/xlink" width="127" height="162" viewBox="0 0 127 162">
  <defs>
    <clipPath id="clip-legenda_03">
      <rect width="127" height="162"/>
    </clipPath>
  </defs>
  <g id="legenda_03" clip-path="url(#clip-legenda_03)">
    <text id="Layer" transform="translate(0 9)" font-size="10" font-family="HKGrotesk-Italic, HK Grotesk" font-style="italic"><tspan x="0" y="0">Layer</tspan></text>
    <text id="Jumps_between_layers" data-name="Jumps between layers" transform="translate(0 106)" font-size="10" font-family="HKGrotesk-Italic, HK Grotesk" font-style="italic"><tspan x="0" y="0">Jumps between layers</tspan></text>
    <text id="External" transform="translate(30 35)" font-size="9" font-family="HKGrotesk-Regular, HK Grotesk" style="isolation: isolate"><tspan x="0" y="0">External</tspan></text>
    <path id="Tracciato_47" data-name="Tracciato 47" d="M5.559,0h9.882A5.3,5.3,0,0,1,21,5a5.3,5.3,0,0,1-5.559,5H5.559A5.3,5.3,0,0,1,0,5,5.3,5.3,0,0,1,5.559,0Z" transform="translate(0 27)" fill="#5151fc"/>
    <text id="Internal" transform="translate(30 51)" font-size="9" font-family="HKGrotesk-Regular, HK Grotesk" style="isolation: isolate"><tspan x="0" y="0">Internal</tspan></text>
    <path id="Tracciato_46" data-name="Tracciato 46" d="M5.559,0h9.882A5.3,5.3,0,0,1,21,5a5.3,5.3,0,0,1-5.559,5H5.559A5.3,5.3,0,0,1,0,5,5.3,5.3,0,0,1,5.559,0Z" transform="translate(0 44)" fill="#0affb7"/>
    <text id="Formal" transform="translate(29.483 68)" font-size="9" font-family="HKGrotesk-Regular, HK Grotesk" style="isolation: isolate"><tspan x="0" y="0">Formal</tspan></text>
    <rect id="Rettangolo_181" data-name="Rettangolo 181" width="21" height="10" rx="5" transform="translate(0 60)" fill="#ffa501"/>
    <g id="Raggruppa_24968" data-name="Raggruppa 24968" transform="translate(0 9)">
      <text id="From_the_internal_layer_to_the_external_layer_" data-name="From the internal 
layer to the 
external layer
" transform="translate(48.483 123)" font-size="9" font-family="HKGrotesk-Regular, HK Grotesk" style="isolation: isolate"><tspan x="0" y="0">From the internal </tspan><tspan x="0" y="10.8">layer to the </tspan><tspan x="0" y="21.6">external layer</tspan><tspan font-family="HKGrotesk-Regular"><tspan x="0" y="32.4"></tspan></tspan></text>
      <g id="Group_630" data-name="Group 630" transform="translate(0.095 116.68)">
        <rect id="Rectangle_1651" data-name="Rectangle 1651" width="19.223" height="1.353" fill="#00ffb6"/>
        <rect id="Rectangle_1652" data-name="Rectangle 1652" width="19.223" height="5.051" transform="translate(0 1.354)" fill="#00ffb6"/>
        <rect id="Rectangle_1653" data-name="Rectangle 1653" width="19.223" height="4.449" transform="translate(0 6.406)" fill="#00ffb6"/>
        <rect id="Rectangle_1654" data-name="Rectangle 1654" width="19.223" height="2.736" transform="translate(0 10.857)" fill="#00ffb6"/>
        <rect id="Rectangle_1655" data-name="Rectangle 1655" width="19.223" height="0.76" transform="translate(0 13.594)" fill="#00ffb6"/>
        <rect id="Rectangle_1656" data-name="Rectangle 1656" width="19.223" height="1.749" transform="translate(0 14.355)" fill="#00ffb6"/>
        <rect id="Rectangle_1657" data-name="Rectangle 1657" width="19.223" height="0.518" transform="translate(0 16.105)" fill="#00ffb6"/>
        <rect id="Rectangle_1658" data-name="Rectangle 1658" width="19.223" height="2.483" transform="translate(0 16.624)" fill="#00ffb6"/>
      </g>
      <g id="Group_631" data-name="Group 631" transform="translate(19.891 135.788)">
        <rect id="Rectangle_1659" data-name="Rectangle 1659" width="19.223" height="4.158" fill="#5151fc"/>
      </g>
      <path id="Tracciato_148130" data-name="Tracciato 148130" d="M6205.737,884.324c0-14.219-12.946-17.644-18.588-17.644" transform="translate(-6167 -750)" fill="none" stroke="#000" stroke-width="0.5" stroke-dasharray="2"/>
    </g>
    <path id="Tracciato_157314" data-name="Tracciato 157314" d="M5.559,0h9.882A5.3,5.3,0,0,1,21,5a5.3,5.3,0,0,1-5.559,5H5.559A5.3,5.3,0,0,1,0,5,5.3,5.3,0,0,1,5.559,0Z" transform="translate(0 27)" fill="#5151fc"/>
  </g>
</svg>
