<svg id="Layer_1" data-name="Layer 1" xmlns="http://www.w3.org/2000/svg" xmlns:xlink="http://www.w3.org/1999/xlink" viewBox="0 0 131.299 108.27">
  <g id="combinare">
    <g>
      <polygon points="0.65 0.65 0.65 107.62 46.698 107.62 46.698 89.968 88.675 89.968 88.675 82.108 46.698 82.108 46.698 72.601 88.675 72.601 88.675 62.098 46.698 62.098 46.698 59.094 88.675 59.094 88.675 55.236 130.65 55.236 130.65 38.943 88.675 38.943 88.675 37.51 130.65 37.51 130.65 36.394 130.65 30.978 130.65 27.366 88.675 27.366 88.675 20.363 46.698 20.363 46.698 0.65 0.65 0.65" fill="#fffffa"/>
      <g>
        <polygon points="88.675 27.366 88.675 20.363 46.698 20.363 46.698 0.65 0.65 0.65 0.65 107.621 46.698 107.621 46.698 89.968 88.675 89.968 88.675 82.108 46.698 82.108 46.698 72.601 88.675 72.601 88.675 62.097 46.698 62.097 46.698 59.095 88.675 59.095 88.675 55.236 130.65 55.236 130.65 38.943 88.675 38.943 88.675 37.511 130.65 37.511 130.65 36.394 130.65 30.978 130.65 27.366 88.675 27.366" fill="none" stroke="#fff" stroke-miterlimit="10" stroke-width="1.299"/>
      </g>
      <rect x="2.685" y="2.65" width="41.977" height="102.971" fill="#fffffa"/>
      <rect x="2.685" y="2.65" width="41.977" height="102.971" fill="none" stroke="#5151fc" stroke-miterlimit="10" stroke-width="1.014"/>
      <rect x="44.662" y="22.36301" width="41.977" height="34.731" fill="#fffffa"/>
      <rect x="44.662" y="22.36301" width="41.977" height="34.731" fill="none" stroke="#5151fc" stroke-miterlimit="10" stroke-width="1.014"/>
      <rect x="86.636" y="29.36501" width="41.97701" height="6.145" fill="#fffffa"/>
      <rect x="86.636" y="29.36501" width="41.97701" height="6.145" fill="none" stroke="#5151fc" stroke-miterlimit="10" stroke-width="1.014"/>
      <rect x="86.636" y="40.943" width="41.97701" height="12.293" fill="#fffffa"/>
      <rect x="86.636" y="40.943" width="41.97701" height="12.293" fill="none" stroke="#5151fc" stroke-miterlimit="10" stroke-width="1.014"/>
      <rect x="44.662" y="64.097" width="41.977" height="6.504" fill="#fffffa"/>
      <rect x="44.662" y="64.097" width="41.977" height="6.504" fill="none" stroke="#5151fc" stroke-miterlimit="10" stroke-width="1.014"/>
      <rect x="44.662" y="84.10801" width="41.977" height="3.859" fill="#fffffa"/>
      <rect x="44.662" y="84.10801" width="41.977" height="3.859" fill="none" stroke="#5151fc" stroke-miterlimit="10" stroke-width="1.014"/>
    </g>
  </g>
</svg>
