<svg id="Layer_1" data-name="Layer 1" xmlns="http://www.w3.org/2000/svg" viewBox="0 0 79 79">
  <g>
    <path d="M31.272,65.71222l1.35254-1.23145a1.88137,1.88137,0,0,0,2.63281.62012,1.36917,1.36917,0,0,0,.76563-1.89941c-.31543-.57715-.95215-.69239-2.48438-.49414-2.16992.25879-3.17578-.03711-3.85937-1.29-.75-1.375-.19141-2.92285,1.40527-3.79395a3.165,3.165,0,0,1,3.4668.13379l-.85938,1.52051a1.72266,1.72266,0,0,0-1.89941-.23926,1.11434,1.11434,0,0,0-.56152,1.48535c.30175.55274.90039.65625,2.43359.458,2.25586-.30566,3.18066.01758,3.84473,1.2334.87011,1.59766.22461,3.33594-1.53125,4.29394A3.571,3.571,0,0,1,31.272,65.71222Z"/>
    <path d="M35.25537,55.4505,37.87256,53.595c1.79394-1.27246,3.27051-1.15137,4.34863.36817,1.09375,1.543.73633,3.0498-1.03515,4.30566L40.02,59.096l2.334,3.291-1.45117,1.0293Zm4.83789,1.56738c.8916-.63183,1.21582-1.24023.68067-1.99414-.51856-.73144-1.14551-.64746-2.083.0166l-1.02832.7295L39.064,57.74738Z"/>
    <path d="M49.99072,53.72784l-2.83691,2.52247.7666,1.98046-1.45508,1.293-3.55664-9.90136,1.00488-.89356,9.40821,4.69824L51.856,54.73077Zm-1.52148-.80273-3.29883-1.77148,1.36328,3.49316Z"/>
    <path d="M53.05615,40.88507l1.59375,8.55859L58.19385,45.345l1.249,1.08008-5.14551,5.95215-.94238-.81543-1.60937-8.626-3.36915,3.89649-1.249-1.08008,4.94336-5.71875Z"/>
    <path d="M52.71924,38.98956l1.043-1.457,7.93359,5.67871-1.043,1.457Z"/>
    <path d="M58.9458,38.8587c-2.6543-1.50683-3.499-4.16015-2.13086-6.57129,1.38281-2.43457,4.08106-3.07617,6.748-1.5625,2.6543,1.50684,3.47949,4.165,2.10449,6.5879C64.29834,39.72394,61.5874,40.3587,58.9458,38.8587Zm3.72559-6.56347c-1.80274-1.02246-3.49317-.71094-4.3711.83593-.86425,1.52247-.29687,3.13184,1.53028,4.16895,1.81445,1.03027,3.4873.69141,4.35156-.83008C65.06006,34.92316,64.46143,33.31183,62.67139,32.29523Z"/>
  </g>
  <path d="M78.29257.00017A78.58527,78.58527,0,0,1-.2927,78.58545" style="fill: none;stroke: #000;stroke-miterlimit: 10"/>
</svg>
