<?xml version="1.0" encoding="utf-8"?>
<!-- Generator: Adobe Illustrator 25.1.0, SVG Export Plug-In . SVG Version: 6.00 Build 0)  -->
<svg version="1.1" id="Livello_1" xmlns="http://www.w3.org/2000/svg" xmlns:xlink="http://www.w3.org/1999/xlink" x="0px" y="0px"
	 viewBox="0 0 900 318" enable-background="new 0 0 900 318" xml:space="preserve">
<g>
	<defs>
		<rect id="SVGID_1_" y="0" width="900" height="318"/>
	</defs>
	<clipPath id="SVGID_2_">
		<use xlink:href="#SVGID_1_"  overflow="visible"/>
	</clipPath>
	<g id="zoom-01" clip-path="url(#SVGID_2_)">
		<g id="Raggruppa_617" transform="translate(9.121 -35.769)">
			<g id="Raggruppa_595" transform="translate(44.734 294.883)">
				<path id="Tracciato_598" fill="none" stroke="#000000" stroke-width="1.27" d="M0,7.99585v-8h845.58203v8"/>
			</g>
			<g enable-background="new    ">
				<path d="M-0.08682,347.17447l-2.0498,2.04883l0.84863,1.7959l-0.55176,0.55176l-3.08887-6.76367l0.41797-0.41699
					l6.76953,3.08105l-0.55859,0.55859L-0.08682,347.17447z M-0.67373,346.89908l-3.3291-1.58984l1.58398,3.33594
					L-0.67373,346.89908z"/>
				<path d="M2.19052,340.57095l3.48438,3.48438l-0.4873,0.48828l-0.50195-0.50195c0.12793,0.62109-0.13379,1.25098-0.59277,1.70996
					c-0.79297,0.79199-1.68262,0.59473-2.54492-0.26855l-2.13477-2.13477l0.48828-0.4873l2.01367,2.01465
					c0.56543,0.56445,1.19531,0.99609,1.85938,0.33203c0.69238-0.69336,0.4375-1.63965-0.4668-2.54492l-1.60449-1.60352
					L2.19052,340.57095z"/>
				<path d="M8.37705,341.28384c-0.12695,0.24023-0.27637,0.45898-0.43848,0.62109c-0.4668,0.4668-1.06738,0.54492-1.68164-0.07031
					l-2.25488-2.25391l-0.5791,0.57812l-0.41016-0.41016l0.5791-0.57812l-0.97559-0.97559l0.12109-0.85547l1.34277,1.34277
					l0.84082-0.84082l0.41016,0.41016l-0.84082,0.84082l2.19043,2.19043c0.33984,0.33887,0.65039,0.33887,0.92578,0.06348
					c0.12012-0.11914,0.22656-0.28223,0.33203-0.48633L8.37705,341.28384z"/>
				<path d="M9.98252,335.47916l2.13379,2.13477l-0.4873,0.48828l-2.01465-2.01465
					c-0.75586-0.75684-1.33496-0.85449-1.85742-0.33203c-0.66504,0.66504-0.49609,1.58301,0.46582,2.54395l1.60449,1.60449
					l-0.48828,0.4873l-4.92578-4.92578l0.48828-0.4873l1.94922,1.9502c-0.12695-0.5791,0.08594-1.21484,0.58789-1.7168
					C8.18759,334.46158,9.05771,334.55435,9.98252,335.47916z"/>
				<path d="M11.2706,334.96939c-1.03125-1.03223-1.12305-2.4668-0.12695-3.46289c0.98926-0.99023,2.4375-0.91211,3.46973,0.11914
					c1.02441,1.02539,1.12402,2.48145,0.12793,3.47754C13.74423,336.10025,12.30185,336.00064,11.2706,334.96939z
					 M14.12607,332.11392c-0.79102-0.79199-1.80957-0.91797-2.55078-0.17676c-0.75,0.74902-0.60156,1.75879,0.18359,2.54395
					c0.79102,0.79102,1.80859,0.93359,2.55078,0.19141C15.05869,333.92252,14.90341,332.89127,14.12607,332.11392z"/>
				<path d="M16.07138,326.87564l0.15625,0.63574c-0.23438,0.09082-0.41797,0.2041-0.56641,0.35254
					c-0.53711,0.53711-0.53027,1.33594,0.22656,2.0918l1.94336,1.94336l-0.4873,0.48828l-3.48438-3.48438l0.4873-0.48828
					l0.52344,0.52344c-0.20508-0.71289,0.09961-1.25781,0.45215-1.61133C15.53427,327.11588,15.77451,326.95963,16.07138,326.87564z
					"/>
				<path d="M15.74814,324.1315l0.55762-0.55859l1.07422,2.93945l-0.33203,0.33203L15.74814,324.1315z"/>
				<path d="M21.00693,327.01334l0.22656-0.59277c0.4873,0.23242,1.13086,0.19727,1.6748-0.34766
					c0.47363-0.47266,0.54395-1.00977,0.17676-1.37695c-0.92578-0.92578-2.35352,1.66016-3.59082,0.42383
					c-0.60742-0.60742-0.4873-1.47656,0.21191-2.17676c0.55859-0.55859,1.24414-0.77832,1.97949-0.52246l-0.17676,0.59961
					c-0.48047-0.1416-0.9541-0.0625-1.38477,0.36816c-0.43164,0.43066-0.53027,0.88379-0.22656,1.18652
					c0.82617,0.82715,2.31836-1.70996,3.63965-0.38867c0.70605,0.70703,0.48047,1.64062-0.19043,2.31152
					C22.66123,327.18326,21.74912,327.38736,21.00693,327.01334z"/>
				<path d="M28.10459,317.35709l2.13477,2.13379l-0.4873,0.48828l-2.01465-2.01465
					c-0.74902-0.74902-1.33594-0.85449-1.8584-0.33105c-0.65723,0.65625-0.47363,1.60352,0.50879,2.58594l1.5625,1.56152
					l-0.48828,0.4873l-3.48438-3.48438l0.48828-0.4873l0.50781,0.50879c-0.12695-0.5791,0.08594-1.21484,0.58691-1.7168
					C26.30966,316.33951,27.17978,316.43228,28.10459,317.35709z"/>
				<path d="M29.39365,316.84634c-1.03125-1.03223-1.12402-2.4668-0.12695-3.46289c0.98926-0.99023,2.4375-0.91211,3.46875,0.12012
					c1.02539,1.02441,1.125,2.48047,0.12793,3.47754C31.8663,317.9772,30.4249,317.87759,29.39365,316.84634z M32.24912,313.99088
					c-0.79199-0.79102-1.80957-0.91797-2.55176-0.17578c-0.74902,0.74805-0.60059,1.75879,0.18359,2.54297
					c0.79199,0.79199,1.80957,0.93359,2.55176,0.19141C33.18174,315.79947,33.02646,314.76822,32.24912,313.99088z"/>
				<path d="M36.84482,312.81509c-0.12695,0.24023-0.27539,0.45996-0.43848,0.62305
					c-0.46582,0.46582-1.06738,0.54297-1.68262-0.07129l-2.25391-2.25488l-0.5791,0.58008l-0.41016-0.41016l0.5791-0.58008
					l-0.97461-0.97461l0.11914-0.85449l1.34278,1.34277l0.84082-0.8418l0.41016,0.41016l-0.84082,0.8418l2.19043,2.19043
					c0.33984,0.33887,0.65039,0.33887,0.92676,0.06348c0.12012-0.12109,0.22559-0.2832,0.33203-0.48828L36.84482,312.81509z"/>
				<path d="M38.91709,307.59244l-2.55078,2.55078c0.77637,0.74805,1.66016,0.78418,2.3457,0.09863
					c0.38086-0.38184,0.58594-0.78418,0.56445-1.44141l0.63672-0.04297c0.02148,0.84082-0.22656,1.39941-0.76367,1.93652
					c-1.05957,1.06055-2.39551,0.8125-3.38477-0.17578c-0.98242-0.9834-1.2793-2.35352-0.26855-3.36523
					c1.06738-1.06641,2.3457-0.67773,3.1377,0.11328C38.73349,307.36588,38.8458,307.49283,38.91709,307.59244z M35.95615,309.73306
					l2.10547-2.10547c-0.01465-0.01562-0.05664-0.04297-0.12109-0.10645c-0.60059-0.53027-1.3916-0.60059-2.03516,0.04199
					C35.27646,308.19205,35.38388,309.07584,35.95615,309.73306z"/>
			</g>
			<g enable-background="new    ">
				<path d="M34.39658,331.0983c-1.58398-1.58301-1.66797-3.37793-0.24805-4.79883c0.99023-0.98828,2.13477-1.22852,3.37793-0.67773
					l-0.28906,0.64355c-0.96875-0.44629-1.83105-0.26172-2.6084,0.51465c-1.13086,1.13086-1.03809,2.50977,0.26953,3.81641
					c1.31445,1.31543,2.69922,1.42773,3.80078,0.32617c0.77148-0.77148,0.96191-1.68262,0.53125-2.66406l0.65625-0.30469
					c0.53125,1.26562,0.27539,2.4668-0.70703,3.44922C37.78135,332.80142,35.98642,332.68912,34.39658,331.0983z"/>
				<path d="M42.75986,323.4147l2.13379,2.13379l-0.4873,0.4873l-2.01367-2.01367c-0.75684-0.75684-1.33594-0.85547-1.85938-0.33203
					c-0.66406,0.66406-0.49414,1.58203,0.4668,2.54395l1.60352,1.60449l-0.4873,0.4873l-4.92578-4.92578l0.4873-0.4873
					l1.95117,1.94922c-0.12695-0.57812,0.08398-1.21484,0.58594-1.7168C40.96494,322.39713,41.83408,322.48892,42.75986,323.4147z"
					/>
				<path d="M45.56064,323.32681l0.63574-0.63574l0.77734,0.77734l-0.63574,0.63574L45.56064,323.32681z"/>
				<path d="M47.44931,313.14127l4.92578,4.92578l-0.4873,0.4873l-3.65332-3.65332l-1.23047,1.22852l-0.48047-0.48047
					l0.82031-0.81836c0.24609-0.24805,0.32422-0.49609,0.03516-0.78516l-0.41699-0.41699L47.44931,313.14127z"/>
			</g>
			<g enable-background="new    ">
				<path d="M50.47275,331.0983c-1.58398-1.58301-1.66797-3.37793-0.24805-4.79883c0.99023-0.98828,2.13477-1.22852,3.37793-0.67773
					l-0.28906,0.64355c-0.96875-0.44629-1.83105-0.26172-2.6084,0.51465c-1.13086,1.13086-1.03809,2.50977,0.26953,3.81641
					c1.31445,1.31543,2.69922,1.42773,3.80078,0.32617c0.77148-0.77148,0.96191-1.68262,0.53125-2.66406l0.65625-0.30469
					c0.53125,1.26562,0.27539,2.4668-0.70703,3.44922C53.85752,332.80142,52.0626,332.68912,50.47275,331.0983z"/>
				<path d="M58.83603,323.4147l2.13379,2.13379l-0.4873,0.4873l-2.01367-2.01367c-0.75684-0.75684-1.33594-0.85547-1.85938-0.33203
					c-0.66406,0.66406-0.49414,1.58203,0.4668,2.54395l1.60352,1.60449l-0.4873,0.4873l-4.92578-4.92578l0.4873-0.4873
					l1.95117,1.94922c-0.12695-0.57812,0.08398-1.21484,0.58594-1.7168C57.04111,322.39713,57.91025,322.48892,58.83603,323.4147z"
					/>
				<path d="M61.63681,323.32681l0.63574-0.63574l0.77734,0.77734l-0.63574,0.63574L61.63681,323.32681z"/>
				<path d="M69.10165,316.49869l0.45898,0.45898l-3.40625,3.40625l-0.45215-0.45215
					c0.43066-1.87402,0.93262-4.43848-0.37402-5.74512c-0.62305-0.62305-1.36425-0.67188-2-0.03516
					c-0.74902,0.74805-0.54492,1.63086,0.17578,2.36719l-0.51562,0.44531c-0.96777-0.96875-1.14453-2.2627-0.12695-3.2793
					c0.87598-0.87695,2.0205-0.93359,2.96777,0.01367c1.25781,1.25781,1.14551,3.37793,0.67871,5.41406L69.10165,316.49869z"/>
			</g>
			<g enable-background="new    ">
				<path d="M103.49228,335.0983c-1.58398-1.58301-1.66797-3.37793-0.24805-4.79883
					c0.99023-0.98828,2.13477-1.22852,3.37793-0.67773l-0.28906,0.64355c-0.96875-0.44629-1.83105-0.26172-2.6084,0.51465
					c-1.13086,1.13086-1.03809,2.50977,0.26953,3.81641c1.31445,1.31543,2.69922,1.42773,3.80078,0.32617
					c0.77148-0.77148,0.96191-1.68262,0.53125-2.66406l0.65625-0.30469c0.53125,1.26562,0.27539,2.4668-0.70703,3.44922
					C106.87704,336.80142,105.08212,336.68912,103.49228,335.0983z"/>
				<path d="M111.85556,327.4147l2.13379,2.13379l-0.4873,0.4873l-2.01367-2.01367
					c-0.75684-0.75684-1.33594-0.85547-1.85938-0.33203c-0.66406,0.66406-0.49414,1.58203,0.4668,2.54395l1.60352,1.60449
					l-0.4873,0.4873l-4.92578-4.92578l0.4873-0.4873l1.95117,1.94922c-0.12695-0.57812,0.08398-1.21484,0.58594-1.7168
					C110.06064,326.39713,110.92978,326.48892,111.85556,327.4147z"/>
				<path d="M114.65634,327.32681l0.63574-0.63574l0.77734,0.77734l-0.63574,0.63574L114.65634,327.32681z"/>
				<path d="M117.64658,322.94986l0.45312-0.50879c0.7002,0.7002,1.61914,0.58691,2.36133-0.15527
					c0.69922-0.69922,0.85352-1.60352,0.18262-2.27539c-0.83301-0.83398-1.78711-0.10645-2.42383,0.53027l-0.41016-0.41016
					c0.71387-0.71387,0.94727-1.48438,0.33301-2.09863c-0.58008-0.58008-1.27148-0.42383-1.79492,0.09961
					c-0.61523,0.61426-0.7002,1.37695-0.09961,1.99219l-0.50977,0.4375c-0.85352-0.85352-0.73438-2.02148,0.12109-2.87598
					c0.77734-0.77734,1.9082-1.00293,2.71289-0.19824c0.59473,0.59473,0.61621,1.36426,0.36914,1.85156
					c0.63477-0.4375,1.51172-0.49414,2.23242,0.22656c0.93359,0.93359,0.70703,2.23242-0.25488,3.19434
					C119.93759,323.74088,118.64365,323.94693,117.64658,322.94986z"/>
			</g>
			
				<line id="Linea_273" fill="none" stroke="#000000" stroke-width="1.271" x1="52.336" y1="294.51999" x2="52.336" y2="303.24298"/>
			
				<line id="Linea_274" fill="none" stroke="#000000" stroke-width="1.271" x1="63.829" y1="294.51999" x2="63.829" y2="303.24298"/>
			
				<line id="Linea_275" fill="none" stroke="#000000" stroke-width="1.271" x1="121.75" y1="294.51999" x2="121.75" y2="303.24298"/>
			<g enable-background="new    ">
				<path d="M208.98251,335.0983c-1.58398-1.58301-1.66797-3.37793-0.24805-4.79883
					c0.99023-0.98828,2.13477-1.22852,3.37793-0.67773l-0.28906,0.64355c-0.96875-0.44629-1.83105-0.26172-2.6084,0.51465
					c-1.13086,1.13086-1.03809,2.50977,0.26953,3.81641c1.31445,1.31543,2.69922,1.42773,3.80078,0.32617
					c0.77148-0.77148,0.96191-1.68262,0.53125-2.66406l0.65625-0.30469c0.53125,1.26562,0.27539,2.4668-0.70703,3.44922
					C212.36728,336.80142,210.57236,336.68912,208.98251,335.0983z"/>
				<path d="M217.34579,327.4147l2.13379,2.13379l-0.4873,0.4873l-2.01367-2.01367
					c-0.75684-0.75684-1.33594-0.85547-1.85938-0.33203c-0.66406,0.66406-0.49414,1.58203,0.4668,2.54395l1.60352,1.60449
					l-0.4873,0.4873l-4.92578-4.92578l0.4873-0.4873l1.95117,1.94922c-0.12695-0.57812,0.08398-1.21484,0.58594-1.7168
					C215.55087,326.39713,216.42001,326.48892,217.34579,327.4147z"/>
				<path d="M220.14658,327.32681l0.63574-0.63574l0.77734,0.77734l-0.63574,0.63574L220.14658,327.32681z"/>
				<path d="M226.61533,319.13443l0.46582,0.46582l-0.79883,0.79883l1.17285,1.17383l-0.48633,0.48633l-1.17383-1.17285
					l-2.4668,2.4668l-0.31738-0.31738l-0.93262-5.9375l0.45117-0.45117l3.28711,3.28613L226.61533,319.13443z M225.32919,320.42056
					l-2.55176-2.55176l0.73535,4.36816L225.32919,320.42056z"/>
			</g>
			
				<line id="Linea_276" fill="none" stroke="#000000" stroke-width="1.271" x1="228.789" y1="294.51999" x2="228.789" y2="303.24298"/>
			<g enable-background="new    ">
				<path d="M242.22031,335.0983c-1.58398-1.58301-1.66797-3.37793-0.24805-4.79883
					c0.99023-0.98828,2.13477-1.22852,3.37793-0.67773l-0.28906,0.64355c-0.96875-0.44629-1.83105-0.26172-2.6084,0.51465
					c-1.13086,1.13086-1.03809,2.50977,0.26953,3.81641c1.31445,1.31543,2.69922,1.42773,3.80078,0.32617
					c0.77148-0.77148,0.96191-1.68262,0.53125-2.66406l0.65625-0.30469c0.53125,1.26562,0.27539,2.4668-0.70703,3.44922
					C245.60507,336.80142,243.81015,336.68912,242.22031,335.0983z"/>
				<path d="M250.58359,327.4147l2.13379,2.13379l-0.4873,0.4873l-2.01367-2.01367
					c-0.75684-0.75684-1.33594-0.85547-1.85938-0.33203c-0.66406,0.66406-0.49414,1.58203,0.4668,2.54395l1.60352,1.60449
					l-0.4873,0.4873l-4.92578-4.92578l0.4873-0.4873l1.95117,1.94922c-0.12695-0.57812,0.08398-1.21484,0.58594-1.7168
					C248.78867,326.39713,249.65781,326.48892,250.58359,327.4147z"/>
				<path d="M253.38437,327.32681l0.63574-0.63574l0.77734,0.77734l-0.63574,0.63574L253.38437,327.32681z"/>
				<path d="M259.6412,319.2897c0.93262,0.93262,0.99609,2.45215,0.01367,3.43457c-0.88965,0.88965-2.16309,0.90527-3.09473,0.25488
					l0.40234-0.55859c0.69922,0.4873,1.58203,0.48047,2.22559-0.16309c0.72754-0.72754,0.6084-1.78027-0.06348-2.45215
					c-0.65039-0.65039-1.59668-0.74902-2.31055-0.03516c-0.47363,0.47363-0.60059,1.06738-0.48828,1.67383l-0.62891,0.36133
					l-2.09863-2.98926l2.55176-2.55176l0.46582,0.4668l-2.14844,2.14844l1.31445,1.87988
					c0.02148-0.64258,0.27637-1.1377,0.63672-1.49805C257.34433,318.3356,258.73593,318.38541,259.6412,319.2897z"/>
			</g>
			
				<line id="Linea_277" fill="none" stroke="#000000" stroke-width="1.271" x1="261.76401" y1="294.51999" x2="261.76401" y2="303.24298"/>
			<g enable-background="new    ">
				<path d="M300.82138,335.0983c-1.58398-1.58301-1.66797-3.37793-0.24805-4.79883
					c0.99023-0.98828,2.13477-1.22852,3.37793-0.67773l-0.28906,0.64355c-0.96875-0.44629-1.83105-0.26172-2.6084,0.51465
					c-1.13086,1.13086-1.03809,2.50977,0.26953,3.81641c1.31445,1.31543,2.69922,1.42773,3.80078,0.32617
					c0.77148-0.77148,0.96191-1.68262,0.53125-2.66406l0.65625-0.30469c0.53125,1.26562,0.27539,2.4668-0.70703,3.44922
					C304.20615,336.80142,302.41122,336.68912,300.82138,335.0983z"/>
				<path d="M309.18466,327.4147l2.13379,2.13379l-0.4873,0.4873l-2.01367-2.01367
					c-0.75684-0.75684-1.33594-0.85547-1.85938-0.33203c-0.66406,0.66406-0.49414,1.58203,0.4668,2.54395l1.60352,1.60449
					l-0.4873,0.4873l-4.92578-4.92578l0.4873-0.4873l1.95117,1.94922c-0.12695-0.57812,0.08398-1.21484,0.58594-1.7168
					C307.38974,326.39713,308.25888,326.48892,309.18466,327.4147z"/>
				<path d="M311.98544,327.32681l0.63574-0.63574l0.77734,0.77734l-0.63574,0.63574L311.98544,327.32681z"/>
				<path d="M318.31357,319.38931c0.89648,0.89648,0.88965,2.3877-0.03711,3.31445
					c-0.91797,0.91797-2.40918,0.93945-3.30664,0.04199c-0.30469-0.30371-0.52344-0.72168-0.62207-1.13086l-0.98926-3.95801
					l0.55078-0.55078l0.71387,2.98926c0.16309-0.34668,0.42383-0.70703,0.78418-0.9541
					C316.28427,318.53384,317.5206,318.59634,318.31357,319.38931z M317.81747,319.88345
					c-0.64258-0.64258-1.69531-0.63672-2.3457,0.01367s-0.65723,1.70312-0.01367,2.34668
					c0.64258,0.64258,1.69531,0.64941,2.35156-0.00684C318.46005,321.58658,318.46005,320.52603,317.81747,319.88345z"/>
			</g>
			
				<line id="Linea_278" fill="none" stroke="#000000" stroke-width="1.271" x1="320.745" y1="294.51999" x2="320.745" y2="303.24298"/>
			<g enable-background="new    ">
				<path d="M367.84775,335.0983c-1.58398-1.58301-1.66797-3.37793-0.24805-4.79883
					c0.99023-0.98828,2.13477-1.22852,3.37793-0.67773l-0.28906,0.64355c-0.96875-0.44629-1.83105-0.26172-2.6084,0.51465
					c-1.13086,1.13086-1.03809,2.50977,0.26953,3.81641c1.31445,1.31543,2.69922,1.42773,3.80078,0.32617
					c0.77148-0.77148,0.96191-1.68262,0.53125-2.66406l0.65625-0.30469c0.53125,1.26562,0.27539,2.4668-0.70703,3.44922
					C371.23251,336.80142,369.43759,336.68912,367.84775,335.0983z"/>
				<path d="M376.21103,327.4147l2.13379,2.13379l-0.4873,0.4873l-2.01367-2.01367
					c-0.75684-0.75684-1.33594-0.85547-1.85938-0.33203c-0.66406,0.66406-0.49414,1.58203,0.4668,2.54395l1.60352,1.60449
					l-0.4873,0.4873l-4.92578-4.92578l0.4873-0.4873l1.95117,1.94922c-0.12695-0.57812,0.08398-1.21484,0.58594-1.7168
					C374.41611,326.39713,375.28525,326.48892,376.21103,327.4147z"/>
				<path d="M379.01181,327.32681l0.63574-0.63574l0.77734,0.77734l-0.63574,0.63574L379.01181,327.32681z"/>
				<path d="M382.0665,315.97525l0.30469,0.30371l2.21875,7.02441l-0.55078,0.55078l-2.10742-6.8125l-2.92578,2.92578
					l-0.46582-0.46582L382.0665,315.97525z"/>
			</g>
			
				<line id="Linea_279" fill="none" stroke="#000000" stroke-width="1.271" x1="389.33099" y1="294.51999" x2="389.33099" y2="303.24298"/>
			<g enable-background="new    ">
				<path d="M391.45615,335.0983c-1.58398-1.58301-1.66797-3.37793-0.24805-4.79883
					c0.99023-0.98828,2.13477-1.22852,3.37793-0.67773l-0.28906,0.64355c-0.96875-0.44629-1.83105-0.26172-2.6084,0.51465
					c-1.13086,1.13086-1.03809,2.50977,0.26953,3.81641c1.31445,1.31543,2.69922,1.42773,3.80078,0.32617
					c0.77148-0.77148,0.96191-1.68262,0.53125-2.66406l0.65625-0.30469c0.53125,1.26562,0.27539,2.4668-0.70703,3.44922
					C394.84091,336.80142,393.04599,336.68912,391.45615,335.0983z"/>
				<path d="M399.81943,327.4147l2.13379,2.13379l-0.4873,0.4873l-2.01367-2.01367
					c-0.75684-0.75684-1.33594-0.85547-1.85938-0.33203c-0.66406,0.66406-0.49414,1.58203,0.4668,2.54395l1.60352,1.60449
					l-0.4873,0.4873l-4.92578-4.92578l0.4873-0.4873l1.95117,1.94922c-0.12695-0.57812,0.08398-1.21484,0.58594-1.7168
					C398.02451,326.39713,398.89365,326.48892,399.81943,327.4147z"/>
				<path d="M402.62021,327.32681l0.63574-0.63574l0.77734,0.77734l-0.63574,0.63574L402.62021,327.32681z"/>
				<path d="M405.79599,322.92252c-0.62305-0.62305-0.75-1.44141-0.36914-2.20508c-0.57812,0.19727-1.22168,0.06348-1.70898-0.42383
					c-0.78516-0.78516-0.53711-1.9375,0.16211-2.63672c0.75586-0.75586,1.87891-0.89062,2.65039-0.11914
					c0.48047,0.48047,0.59375,1.12891,0.39551,1.68066c0.75684-0.37402,1.5752-0.2334,2.19043,0.38184
					c0.96875,0.96875,0.63672,2.26172-0.20508,3.10352C408.07138,323.54361,406.76376,323.89029,405.79599,322.92252z
					 M406.08505,318.0524c-0.4873-0.4873-1.20898-0.45996-1.73828,0.07129c-0.48828,0.4873-0.6084,1.21484-0.09961,1.72461
					c0.54492,0.54297,1.25781,0.50781,1.79492-0.0293C406.57236,319.28873,406.60849,318.57486,406.08505,318.0524z
					 M408.60068,320.04556c-0.64258-0.64258-1.54004-0.56543-2.22656,0.12109c-0.69141,0.69141-0.76953,1.58887-0.12598,2.23242
					c0.67871,0.67773,1.56738,0.4668,2.19629-0.16211C409.06747,321.61392,409.27939,320.72427,408.60068,320.04556z"/>
			</g>
			
				<line id="Linea_280" fill="none" stroke="#000000" stroke-width="1.271" x1="410.76099" y1="294.51999" x2="410.76099" y2="303.24298"/>
			<g enable-background="new    ">
				<path d="M436.32529,335.0983c-1.58398-1.58301-1.66797-3.37793-0.24805-4.79883
					c0.99023-0.98828,2.13477-1.22852,3.37793-0.67773l-0.28906,0.64355c-0.96875-0.44629-1.83105-0.26172-2.6084,0.51465
					c-1.13086,1.13086-1.03809,2.50977,0.26953,3.81641c1.31445,1.31543,2.69922,1.42773,3.80078,0.32617
					c0.77148-0.77148,0.96191-1.68262,0.53125-2.66406l0.65625-0.30469c0.53125,1.26562,0.27539,2.4668-0.70703,3.44922
					C439.71005,336.80142,437.91513,336.68912,436.32529,335.0983z"/>
				<path d="M444.68857,327.4147l2.13379,2.13379l-0.4873,0.4873l-2.01367-2.01367
					c-0.75684-0.75684-1.33594-0.85547-1.85938-0.33203c-0.66406,0.66406-0.49414,1.58203,0.4668,2.54395l1.60352,1.60449
					l-0.4873,0.4873l-4.92578-4.92578l0.4873-0.4873l1.95117,1.94922c-0.12695-0.57812,0.08398-1.21484,0.58594-1.7168
					C442.89365,326.39713,443.76279,326.48892,444.68857,327.4147z"/>
				<path d="M447.48935,327.32681l0.63574-0.63574l0.77734,0.77734l-0.63574,0.63574L447.48935,327.32681z"/>
				<path d="M452.04208,317.62955c0.30469,0.30273,0.52344,0.7207,0.62207,1.12988l0.98926,3.95801l-0.55078,0.55078
					l-0.71387-2.98926c-0.16211,0.34668-0.4248,0.70605-0.78418,0.9541c-0.87695,0.60742-2.11328,0.54297-2.9043-0.24805
					c-0.89844-0.89746-0.89062-2.38867,0.03516-3.31445C449.65341,316.75259,451.14462,316.73111,452.04208,317.62955z
					 M451.55478,318.13052c-0.64355-0.64355-1.69629-0.65039-2.35352,0.00684c-0.64941,0.65039-0.64941,1.71094-0.00684,2.35352
					s1.69629,0.63574,2.3457-0.01367C452.19052,319.82681,452.19736,318.7731,451.55478,318.13052z"/>
			</g>
			
				<line id="Linea_281" fill="none" stroke="#000000" stroke-width="1.271" x1="455.33899" y1="294.51999" x2="455.33899" y2="303.24298"/>
			<g enable-background="new    ">
				<path d="M492.94247,339.34244c-1.58398-1.58398-1.66797-3.37891-0.24805-4.79883
					c0.99023-0.99023,2.13477-1.23047,3.37793-0.67871l-0.28906,0.64355c-0.96875-0.44629-1.83105-0.26172-2.6084,0.51562
					c-1.13086,1.13086-1.03809,2.50879,0.26953,3.81641c1.31445,1.31445,2.69922,1.42773,3.80078,0.32422
					c0.77148-0.76953,0.96191-1.68164,0.53125-2.66406l0.65625-0.30273c0.53125,1.26367,0.27539,2.46484-0.70703,3.44727
					C496.32724,341.04459,494.53232,340.93228,492.94247,339.34244z"/>
				<path d="M501.30576,331.65689l2.13379,2.13477l-0.4873,0.4873l-2.01367-2.01465
					c-0.75684-0.75586-1.33594-0.85449-1.85938-0.33203c-0.66406,0.66504-0.49414,1.58398,0.4668,2.54492l1.60352,1.60352
					l-0.4873,0.48828l-4.92578-4.92578l0.4873-0.48828l1.95117,1.95117c-0.12695-0.58008,0.08398-1.21484,0.58594-1.7168
					C499.51083,330.63931,500.37997,330.73209,501.30576,331.65689z"/>
				<path d="M504.10654,331.57095l0.63574-0.63672l0.77734,0.77734l-0.63574,0.63672L504.10654,331.57095z"/>
				<path d="M505.99521,321.38345l4.92578,4.92578l-0.4873,0.48828l-3.65332-3.6543l-1.23047,1.23047l-0.48047-0.48047
					l0.82031-0.82031c0.24609-0.24609,0.32422-0.49414,0.03516-0.78516l-0.41699-0.41602L505.99521,321.38345z"/>
				<path d="M510.379,321.93326c-1.17285-1.17285-2.29004-2.78418-1.01074-4.06348c1.16602-1.16602,2.7637-0.375,4.11331,0.97559
					c1.34961,1.34863,2.12695,2.91797,1.00293,4.04199C513.17102,324.20181,511.55185,323.10611,510.379,321.93326z
					 M512.95129,319.36099c-1.13773-1.1377-2.28909-1.85156-3.11624-1.02441c-0.86133,0.86133-0.01367,2.03516,1.0459,3.09473
					c1.03906,1.03906,2.22659,1.90137,3.12405,1.00488C514.80383,321.63736,514.0675,320.4772,512.95129,319.36099z"/>
			</g>
			
				<line id="Linea_282" fill="none" stroke="#000000" stroke-width="1.271" x1="516.09802" y1="294.51999" x2="516.09802" y2="303.24298"/>
			<g enable-background="new    ">
				<path d="M540.03625,339.34244c-1.58398-1.58398-1.66797-3.37891-0.24805-4.79883
					c0.99023-0.99023,2.13477-1.23047,3.37793-0.67871l-0.28906,0.64355c-0.96875-0.44629-1.83105-0.26172-2.6084,0.51562
					c-1.13086,1.13086-1.03809,2.50879,0.26953,3.81641c1.31445,1.31445,2.69922,1.42773,3.80078,0.32422
					c0.77148-0.76953,0.96191-1.68164,0.53125-2.66406l0.65625-0.30273c0.53125,1.26367,0.27539,2.46484-0.70703,3.44727
					C543.42102,341.04459,541.6261,340.93228,540.03625,339.34244z"/>
				<path d="M548.39954,331.65689l2.13379,2.13477l-0.4873,0.4873l-2.01367-2.01465
					c-0.75684-0.75586-1.33594-0.85449-1.85938-0.33203c-0.66406,0.66504-0.49414,1.58398,0.4668,2.54492l1.60352,1.60352
					l-0.4873,0.48828l-4.92578-4.92578l0.4873-0.48828l1.95117,1.95117c-0.12695-0.58008,0.08398-1.21484,0.58594-1.7168
					C546.60461,330.63931,547.47375,330.73209,548.39954,331.65689z"/>
				<path d="M551.20032,331.57095l0.63574-0.63672l0.77734,0.77734l-0.63574,0.63672L551.20032,331.57095z"/>
				<path d="M553.08899,321.38345l4.92578,4.92578l-0.4873,0.48828l-3.65332-3.6543l-1.23047,1.23047l-0.48047-0.48047
					l0.82031-0.82031c0.24609-0.24609,0.32422-0.49414,0.03516-0.78516l-0.41699-0.41602L553.08899,321.38345z"/>
				<path d="M557.09875,317.37466l4.92578,4.92578l-0.48828,0.48828l-3.6543-3.65332l-1.22852,1.22852l-0.48047-0.48047
					l0.81934-0.81934c0.24707-0.24707,0.3252-0.49512,0.03418-0.78418l-0.41602-0.41699L557.09875,317.37466z"/>
			</g>
			
				<line id="Linea_283" fill="none" stroke="#000000" stroke-width="1.271" x1="563.987" y1="294.366" x2="563.987" y2="303.08899"/>
			<g enable-background="new    ">
				<path d="M676.22668,339.34244c-1.58398-1.58398-1.66797-3.37891-0.24805-4.79883
					c0.99023-0.99023,2.13477-1.23047,3.37793-0.67871l-0.28906,0.64355c-0.96875-0.44629-1.83105-0.26172-2.6084,0.51562
					c-1.13086,1.13086-1.03809,2.50879,0.26953,3.81641c1.31445,1.31445,2.69922,1.42773,3.80078,0.32422
					c0.77148-0.76953,0.96191-1.68164,0.53125-2.66406l0.65625-0.30273c0.53125,1.26367,0.27539,2.46484-0.70703,3.44727
					C679.61145,341.04459,677.81653,340.93228,676.22668,339.34244z"/>
				<path d="M684.58997,331.65689l2.13379,2.13477l-0.4873,0.4873l-2.01367-2.01465
					c-0.75684-0.75586-1.33594-0.85449-1.85938-0.33203c-0.66406,0.66504-0.49414,1.58398,0.4668,2.54492l1.60352,1.60352
					l-0.4873,0.48828l-4.92578-4.92578l0.4873-0.48828l1.95117,1.95117c-0.12695-0.58008,0.08398-1.21484,0.58594-1.7168
					C682.79504,330.63931,683.66418,330.73209,684.58997,331.65689z"/>
				<path d="M687.39075,331.57095l0.63574-0.63672l0.77734,0.77734l-0.63574,0.63672L687.39075,331.57095z"/>
				<path d="M689.27942,321.38345l4.92578,4.92578l-0.4873,0.48828l-3.65332-3.6543l-1.23047,1.23047l-0.48047-0.48047
					l0.82031-0.82031c0.24609-0.24609,0.32422-0.49414,0.03516-0.78516l-0.41699-0.41602L689.27942,321.38345z"/>
				<path d="M698.86536,320.73209l0.45898,0.45898l-3.40625,3.40723l-0.45312-0.45312
					c0.43164-1.87305,0.93359-4.4375-0.37402-5.74512c-0.62207-0.62207-1.36426-0.6709-2-0.03516
					c-0.74902,0.74902-0.54395,1.63184,0.17676,2.36719l-0.51562,0.44531c-0.96875-0.96777-1.14453-2.2627-0.12793-3.2793
					c0.87598-0.87598,2.02051-0.93262,2.96777,0.01465c1.25781,1.25781,1.14648,3.37695,0.67969,5.41309L698.86536,320.73209z"/>
			</g>
			
				<line id="Linea_284" fill="none" stroke="#000000" stroke-width="1.271" x1="699.28601" y1="294.40701" x2="699.28601" y2="303.13"/>
			<g enable-background="new    ">
				<path d="M808.32922,339.34244c-1.58398-1.58398-1.66797-3.37891-0.24805-4.79883
					c0.99023-0.99023,2.13477-1.23047,3.37793-0.67871l-0.28906,0.64355c-0.96875-0.44629-1.83105-0.26172-2.6084,0.51562
					c-1.13086,1.13086-1.03809,2.50879,0.26953,3.81641c1.31445,1.31445,2.69922,1.42773,3.80078,0.32422
					c0.77148-0.76953,0.96191-1.68164,0.53125-2.66406l0.65625-0.30273c0.53125,1.26367,0.27539,2.46484-0.70703,3.44727
					C811.71399,341.04459,809.91907,340.93228,808.32922,339.34244z"/>
				<path d="M816.6925,331.65689l2.13379,2.13477l-0.4873,0.4873l-2.01367-2.01465
					c-0.75684-0.75586-1.33594-0.85449-1.85938-0.33203c-0.66406,0.66504-0.49414,1.58398,0.4668,2.54492l1.60352,1.60352
					l-0.4873,0.48828l-4.92578-4.92578l0.4873-0.48828l1.95117,1.95117c-0.12695-0.58008,0.08398-1.21484,0.58594-1.7168
					C814.89758,330.63931,815.76672,330.73209,816.6925,331.65689z"/>
				<path d="M819.49329,331.57095l0.63574-0.63672l0.77734,0.77734l-0.63574,0.63672L819.49329,331.57095z"/>
				<path d="M821.38196,321.38345l4.92578,4.92578l-0.4873,0.48828l-3.65332-3.6543l-1.23047,1.23047l-0.48047-0.48047
					l0.82031-0.82031c0.24609-0.24609,0.32422-0.49414,0.03516-0.78516l-0.41699-0.41602L821.38196,321.38345z"/>
				<path d="M826.49329,323.18423l0.45312-0.50977c0.69922,0.70117,1.61914,0.58789,2.36035-0.1543
					c0.7002-0.69922,0.85449-1.60449,0.18262-2.27539c-0.83301-0.83398-1.78711-0.10645-2.42383,0.5293l-0.41016-0.41016
					c0.71484-0.71387,0.94727-1.48438,0.33301-2.09863c-0.5791-0.5791-1.27148-0.42383-1.79492,0.09961
					c-0.61426,0.61426-0.7002,1.37793-0.09863,1.99219l-0.50977,0.43848c-0.85449-0.85449-0.73438-2.02148,0.12109-2.87695
					c0.77734-0.77734,1.90723-1.00293,2.71289-0.19727c0.59375,0.59375,0.61523,1.36328,0.36816,1.85156
					c0.63574-0.43848,1.5127-0.49414,2.2334,0.22656c0.93262,0.93262,0.70605,2.23242-0.25586,3.19336
					C828.78333,323.97525,827.48938,324.18033,826.49329,323.18423z"/>
			</g>
			
				<line id="Linea_285" fill="none" stroke="#000000" stroke-width="1.271" x1="828.66498" y1="294.51999" x2="828.66498" y2="303.24298"/>
			<g enable-background="new    ">
				<path d="M844.90344,339.34244c-1.58398-1.58398-1.66797-3.37891-0.24805-4.79883
					c0.99023-0.99023,2.13477-1.23047,3.37793-0.67871l-0.28906,0.64355c-0.96875-0.44629-1.83105-0.26172-2.6084,0.51562
					c-1.13086,1.13086-1.03809,2.50879,0.26953,3.81641c1.31445,1.31445,2.69922,1.42773,3.80078,0.32422
					c0.77148-0.76953,0.96191-1.68164,0.53125-2.66406l0.65625-0.30273c0.53125,1.26367,0.27539,2.46484-0.70703,3.44727
					C848.28821,341.04459,846.49329,340.93228,844.90344,339.34244z"/>
				<path d="M853.26672,331.65689l2.13379,2.13477l-0.4873,0.4873l-2.01367-2.01465
					c-0.75684-0.75586-1.33594-0.85449-1.85938-0.33203c-0.66406,0.66504-0.49414,1.58398,0.4668,2.54492l1.60352,1.60352
					l-0.4873,0.48828l-4.92578-4.92578l0.4873-0.48828l1.95117,1.95117c-0.12695-0.58008,0.08398-1.21484,0.58594-1.7168
					C851.4718,330.63931,852.34094,330.73209,853.26672,331.65689z"/>
				<path d="M856.0675,331.57095l0.63574-0.63672l0.77734,0.77734l-0.63574,0.63672L856.0675,331.57095z"/>
				<path d="M857.95618,321.38345l4.92578,4.92578l-0.4873,0.48828l-3.65332-3.6543l-1.23047,1.23047l-0.48047-0.48047
					l0.82031-0.82031c0.24609-0.24609,0.32422-0.49414,0.03516-0.78516l-0.41699-0.41602L857.95618,321.38345z"/>
				<path d="M866.54602,319.36783l0.46484,0.4668l-0.79883,0.79883l1.17383,1.17285l-0.4873,0.4873l-1.17285-1.17383l-2.4668,2.4668
					l-0.31836-0.31641l-0.93262-5.9375l0.45215-0.45215l3.28711,3.28613L866.54602,319.36783z M865.25891,320.65494
					l-2.55078-2.55273l0.73438,4.36914L865.25891,320.65494z"/>
			</g>
			
				<line id="Linea_286" fill="none" stroke="#000000" stroke-width="1.271" x1="870.86401" y1="294.51999" x2="870.86401" y2="303.24298"/>
			<g enable-background="new    ">
				<path d="M864.79211,339.34244c-1.58398-1.58398-1.66797-3.37891-0.24805-4.79883
					c0.99023-0.99023,2.13477-1.23047,3.37793-0.67871l-0.28906,0.64355c-0.96875-0.44629-1.83105-0.26172-2.6084,0.51562
					c-1.13086,1.13086-1.03809,2.50879,0.26953,3.81641c1.31445,1.31445,2.69922,1.42773,3.80078,0.32422
					c0.77148-0.76953,0.96191-1.68164,0.53125-2.66406l0.65625-0.30273c0.53125,1.26367,0.27539,2.46484-0.70703,3.44727
					C868.17688,341.04459,866.38196,340.93228,864.79211,339.34244z"/>
				<path d="M873.1554,331.65689l2.13379,2.13477l-0.4873,0.4873l-2.01367-2.01465
					c-0.75684-0.75586-1.33594-0.85449-1.85938-0.33203c-0.66406,0.66504-0.49414,1.58398,0.4668,2.54492l1.60352,1.60352
					l-0.4873,0.48828l-4.92578-4.92578l0.4873-0.48828l1.95117,1.95117c-0.12695-0.58008,0.08398-1.21484,0.58594-1.7168
					C871.36047,330.63931,872.22961,330.73209,873.1554,331.65689z"/>
				<path d="M875.95618,331.57095l0.63574-0.63672l0.77734,0.77734l-0.63574,0.63672L875.95618,331.57095z"/>
				<path d="M877.84485,321.38345l4.92578,4.92578l-0.4873,0.48828l-3.65332-3.6543l-1.23047,1.23047l-0.48047-0.48047
					l0.82031-0.82031c0.24609-0.24609,0.32422-0.49414,0.03516-0.78516l-0.41699-0.41602L877.84485,321.38345z"/>
				<path d="M886.2218,319.52408c0.93359,0.93164,0.99609,2.45117,0.01367,3.43359
					c-0.88965,0.89062-2.16211,0.90527-3.09473,0.25488l0.40234-0.55859c0.7002,0.4873,1.58301,0.48047,2.22559-0.16309
					c0.72852-0.72754,0.6084-1.78027-0.0625-2.45117c-0.65039-0.65039-1.59766-0.75-2.31152-0.03516
					c-0.47363,0.47266-0.60059,1.06641-0.4873,1.67383l-0.62891,0.36133l-2.09961-2.99023l2.55176-2.55078l0.46582,0.4668
					l-2.14844,2.14844l1.31445,1.87891c0.02148-0.64258,0.27637-1.13672,0.63672-1.49707
					C883.92493,318.569,885.3175,318.6188,886.2218,319.52408z"/>
			</g>
			<path id="Tracciato_599" fill="none" stroke="#000000" stroke-width="1.297" d="M267.77698,294.52002"/>
			<line id="Linea_287" fill="none" stroke="#999999" stroke-width="0.5" x1="697.01898" y1="88.455" x2="890.52802" y2="88.455"/>
			<g enable-background="new    ">
				<path d="M13.53427,79.28481v0.64941H8.71689v-0.63965c1.62939-1.01953,3.79785-2.47852,3.79785-4.32715
					c0-0.87988-0.48975-1.43945-1.38916-1.43945c-1.05957,0-1.53906,0.76953-1.54883,1.79883l-0.67969-0.0498
					c0-1.36914,0.78955-2.40918,2.22852-2.40918c1.23926,0,2.08887,0.76953,2.08887,2.10938
					c0,1.77832-1.5791,3.19824-3.34814,4.30762H13.53427z"/>
				<path d="M19.28427,72.9684v0.42969l-3.39795,6.53613h-0.77979l3.32812-6.30664h-4.1377V72.9684H19.28427z"/>
			</g>
			<g enable-background="new    ">
				<path d="M13.53427,91.28481v0.64941H8.71689v-0.63965c1.62939-1.01953,3.79785-2.47852,3.79785-4.32715
					c0-0.87988-0.48975-1.43945-1.38916-1.43945c-1.05957,0-1.53906,0.76953-1.54883,1.79883l-0.67969-0.0498
					c0-1.36914,0.78955-2.40918,2.22852-2.40918c1.23926,0,2.08887,0.76953,2.08887,2.10938
					c0,1.77832-1.5791,3.19824-3.34814,4.30762H13.53427z"/>
				<path d="M19.18418,89.69594c0,1.26855-1.05908,2.31836-2.36865,2.31836c-1.29932,0-2.36865-1.03906-2.36865-2.30859
					c0-0.42969,0.14014-0.87988,0.35986-1.23926l2.09863-3.49805h0.77979l-1.60938,2.61816
					c0.35986-0.12988,0.7998-0.2002,1.22949-0.12012C18.35459,87.65688,19.18418,88.57582,19.18418,89.69594z M18.48447,89.69594
					c0-0.91016-0.74951-1.64941-1.66895-1.64941s-1.66895,0.73926-1.66895,1.64941c0,0.90918,0.73975,1.6582,1.66895,1.6582
					C17.73496,91.35414,18.48447,90.60512,18.48447,89.69594z"/>
			</g>
			<g enable-background="new    ">
				<path d="M-2.63614,38.53627v6.96582h-0.7793l-3.42822-5.75684v5.75684h-0.70996v-6.96582h0.77002l3.43799,5.72656v-5.72656
					H-2.63614z"/>
				<path d="M3.22421,40.57436v4.92773H2.53476v-0.70996c-0.34961,0.53027-0.97949,0.79004-1.62891,0.79004
					c-1.11963,0-1.60938-0.76953-1.60938-1.98926v-3.01855h0.68945v2.84863c0,0.7998,0.14014,1.5498,1.07959,1.5498
					c0.97949,0,1.46924-0.84961,1.46924-2.12891v-2.26953H3.22421z"/>
				<path d="M11.80283,42.42397v3.07812h-0.68994v-2.88867c0-0.41992,0-1.50879-1.0791-1.50879
					c-0.99951,0-1.26953,0.91895-1.26953,2.02832v2.36914H8.0748v-2.84863c0-0.81934-0.25-1.54883-1.10937-1.54883
					c-0.95947,0-1.22949,0.90918-1.22949,2.02832v2.36914H5.04648l-0.01025-4.92773h0.66992v0.60059
					c0.30957-0.49023,0.80957-0.67969,1.35889-0.67969c0.68994,0,1.19971,0.2998,1.44922,0.94922
					c0.31982-0.62988,0.86963-0.94922,1.61914-0.94922C11.31308,40.49526,11.80283,41.27456,11.80283,42.42397z"/>
				<path d="M18.01377,43.03334c0,1.46973-0.74951,2.54883-2.18896,2.54883c-0.71924,0-1.26904-0.28027-1.62891-0.73926v0.65918
					h-0.68945v-6.96582h0.68945v2.69824c0.36963-0.47949,0.92969-0.75,1.62891-0.75
					C17.19443,40.48452,18.01377,41.49428,18.01377,43.03334z M17.32431,43.03334c0-1.16895-0.59961-1.93848-1.59912-1.93848
					c-0.98975,0-1.58936,0.76953-1.58936,1.93848c0,1.11914,0.5498,1.93945,1.58936,1.93945
					C16.77451,44.9728,17.32431,44.15248,17.32431,43.03334z"/>
				<path d="M23.34384,43.22377h-3.60791c0.02002,1.0791,0.61963,1.72852,1.58936,1.72852
					c0.53955,0,0.96924-0.13965,1.41895-0.61914l0.47998,0.41895c-0.57959,0.61035-1.14941,0.83008-1.90918,0.83008
					c-1.49902,0-2.26855-1.11914-2.26855-2.51855c0-1.38965,0.75977-2.56836,2.18896-2.56836
					c1.50879,0,2.13867,1.17871,2.13867,2.29785C23.37412,42.93373,23.36386,43.10366,23.34384,43.22377z M19.73593,42.6437h2.97852
					c0-0.02051-0.01025-0.07031-0.01025-0.16016c-0.0498-0.7998-0.55957-1.40918-1.46875-1.40918
					C20.3458,41.07436,19.79599,41.77456,19.73593,42.6437z"/>
				<path d="M27.76474,40.70522l-0.33984,0.55957c-0.22949-0.10059-0.43945-0.15039-0.64941-0.15039
					c-0.75977,0-1.31934,0.56934-1.31934,1.63965v2.74805H24.7667v-4.92773h0.68945v0.74023
					c0.35986-0.64941,0.95947-0.81934,1.45898-0.81934C27.21543,40.49526,27.49521,40.55483,27.76474,40.70522z"/>
				<path d="M31.08652,43.03334c0-1.45898,0.94922-2.53809,2.3584-2.53809c1.39941,0,2.36865,1.0791,2.36865,2.53809
					c0,1.44922-0.95947,2.54883-2.36865,2.54883S31.08652,44.49233,31.08652,43.03334z M35.12412,43.03334
					c0-1.11914-0.62988-1.92871-1.6792-1.92871c-1.05957,0-1.66895,0.81934-1.66895,1.92871
					c0,1.11914,0.61963,1.93945,1.66895,1.93945C34.50449,44.9728,35.12412,44.13295,35.12412,43.03334z"/>
				<path d="M37.50595,41.15444H36.4664v-0.58008h1.04932v-0.75879c0-1.0498,0.60986-1.35938,1.23926-1.35938
					c0.27002,0,0.56982,0.05957,0.87988,0.18945l-0.24023,0.5498c-0.20996-0.09961-0.39941-0.16016-0.56934-0.16016
					c-0.39014,0-0.62988,0.27051-0.62988,0.72949v0.80957h1.41943v0.58008h-1.41943v4.34766h-0.68945V41.15444z"/>
				<path d="M42.99668,43.03334c0-1.45898,0.94922-2.53809,2.3584-2.53809c1.39941,0,2.36865,1.0791,2.36865,2.53809
					c0,1.44922-0.95947,2.54883-2.36865,2.54883S42.99668,44.49233,42.99668,43.03334z M47.03428,43.03334
					c0-1.11914-0.62988-1.92871-1.6792-1.92871c-1.05957,0-1.66895,0.81934-1.66895,1.92871
					c0,1.11914,0.61963,1.93945,1.66895,1.93945C46.41465,44.9728,47.03428,44.13295,47.03428,43.03334z"/>
				<path d="M48.70566,43.05385c0-1.2998,0.72998-2.55859,2.21875-2.55859c0.87988,0,1.60938,0.43945,1.99902,1.3584
					l-0.65967,0.26074c-0.22949-0.62988-0.71924-1.00977-1.33936-1.00977c-1.04932,0-1.51904,0.93945-1.51904,1.94922
					c0,1.00879,0.46973,1.91895,1.5293,1.91895c0.61963,0,1.10938-0.37012,1.29932-1l0.63965,0.24023
					c-0.33008,0.89941-1.04932,1.36914-1.93896,1.36914C49.50547,45.58217,48.70566,44.42299,48.70566,43.05385z"/>
				<path d="M53.73594,43.05385c0-1.2998,0.72998-2.55859,2.21875-2.55859c0.87988,0,1.60938,0.43945,1.99902,1.3584
					l-0.65967,0.26074c-0.22949-0.62988-0.71924-1.00977-1.33936-1.00977c-1.04932,0-1.51904,0.93945-1.51904,1.94922
					c0,1.00879,0.46973,1.91895,1.5293,1.91895c0.61963,0,1.10938-0.37012,1.29932-1l0.63965,0.24023
					c-0.33008,0.89941-1.04932,1.36914-1.93896,1.36914C54.53574,45.58217,53.73594,44.42299,53.73594,43.05385z"/>
				<path d="M62.98349,40.57436v4.92773h-0.68945v-0.70996c-0.3501,0.53027-0.97949,0.79004-1.62939,0.79004
					c-1.11914,0-1.60889-0.76953-1.60889-1.98926v-3.01855h0.68945v2.84863c0,0.7998,0.14014,1.5498,1.07959,1.5498
					c0.97949,0,1.46924-0.84961,1.46924-2.12891v-2.26953H62.98349z"/>
				<path d="M67.8038,40.70522l-0.33984,0.55957c-0.22949-0.10059-0.43945-0.15039-0.64941-0.15039
					c-0.75977,0-1.31934,0.56934-1.31934,1.63965v2.74805h-0.68945v-4.92773h0.68945v0.74023
					c0.35986-0.64941,0.95947-0.81934,1.45898-0.81934C67.25449,40.49526,67.53427,40.55483,67.8038,40.70522z"/>
				<path d="M71.82382,40.70522l-0.33984,0.55957c-0.22949-0.10059-0.43945-0.15039-0.64941-0.15039
					c-0.75977,0-1.31934,0.56934-1.31934,1.63965v2.74805h-0.68945v-4.92773h0.68945v0.74023
					c0.35986-0.64941,0.95947-0.81934,1.45898-0.81934C71.27402,40.49526,71.55429,40.55483,71.82382,40.70522z"/>
				<path d="M76.29355,43.22377h-3.60791c0.02002,1.0791,0.61963,1.72852,1.58936,1.72852
					c0.53955,0,0.96924-0.13965,1.41895-0.61914l0.47998,0.41895c-0.57959,0.61035-1.14941,0.83008-1.90918,0.83008
					c-1.49902,0-2.26855-1.11914-2.26855-2.51855c0-1.38965,0.75977-2.56836,2.18896-2.56836
					c1.50879,0,2.13867,1.17871,2.13867,2.29785C76.32382,42.93373,76.31357,43.10366,76.29355,43.22377z M72.68564,42.6437h2.97852
					c0-0.02051-0.01025-0.07031-0.01025-0.16016c-0.0498-0.7998-0.55957-1.40918-1.46875-1.40918
					C73.2955,41.07436,72.7457,41.77456,72.68564,42.6437z"/>
				<path d="M81.64365,42.48354v3.01855h-0.68945v-2.84863c0-1.05957-0.33984-1.54883-1.07959-1.54883
					c-0.92969,0-1.46924,0.7998-1.46924,2.18848v2.20898h-0.68945v-4.92773h0.68945v0.71973
					c0.31982-0.49902,0.91943-0.79883,1.62891-0.79883C81.09384,40.49526,81.64365,41.17495,81.64365,42.48354z"/>
				<path d="M82.93564,43.05385c0-1.2998,0.72998-2.55859,2.21924-2.55859c0.87939,0,1.60889,0.43945,1.99854,1.3584
					l-0.65967,0.26074c-0.22949-0.62988-0.71924-1.00977-1.33887-1.00977c-1.0498,0-1.51953,0.93945-1.51953,1.94922
					c0,1.00879,0.46973,1.91895,1.5293,1.91895c0.61963,0,1.10938-0.37012,1.29932-1l0.63965,0.24023
					c-0.33008,0.89941-1.04932,1.36914-1.93896,1.36914C83.73544,45.58217,82.93564,44.42299,82.93564,43.05385z"/>
				<path d="M92.27304,43.22377h-3.60791c0.02002,1.0791,0.61963,1.72852,1.58936,1.72852
					c0.53955,0,0.96924-0.13965,1.41895-0.61914l0.47998,0.41895c-0.57959,0.61035-1.14941,0.83008-1.90918,0.83008
					c-1.49902,0-2.26855-1.11914-2.26855-2.51855c0-1.38965,0.75977-2.56836,2.18896-2.56836
					c1.50879,0,2.13867,1.17871,2.13867,2.29785C92.30331,42.93373,92.29306,43.10366,92.27304,43.22377z M88.66513,42.6437h2.97852
					c0-0.02051-0.01025-0.07031-0.01025-0.16016c-0.0498-0.7998-0.55957-1.40918-1.46875-1.40918
					C89.27499,41.07436,88.72519,41.77456,88.66513,42.6437z"/>
				<path d="M93.16611,44.29311l0.57959-0.25977c0.17969,0.50977,0.65967,0.93945,1.4292,0.93945
					c0.66943,0,1.09961-0.33008,1.09961-0.84961c0-1.30957-2.83887-0.49023-2.83887-2.23926
					c0-0.85938,0.69971-1.38867,1.68945-1.38867c0.78955,0,1.4292,0.3291,1.76904,1.0293l-0.5498,0.2998
					c-0.23975-0.44043-0.62988-0.71973-1.23926-0.71973c-0.60986,0-0.99951,0.25-0.99951,0.67969
					c0,1.16895,2.84814,0.42969,2.84814,2.29883c0,0.99902-0.81934,1.49902-1.76855,1.49902
					C94.21542,45.58217,93.42587,45.08217,93.16611,44.29311z"/>
			</g>
			<g enable-background="new    ">
				<path d="M13.68418,111.54018v1.12891H8.80673v-0.98926c1.22949-0.75,3.38818-2.18945,3.38818-3.81836
					c0-0.62988-0.31982-1.08887-1.00928-1.08887c-0.87939,0-1.15918,0.74902-1.18945,1.46875l-1.1792-0.08984
					c0-1.2793,0.83936-2.53809,2.38867-2.53809c1.2793,0,2.18896,0.85938,2.18896,2.1582c0,1.56934-1.33936,3.02832-2.53857,3.76855
					H13.68418z"/>
				<path d="M14.45712,110.46986l1.18896-0.06934c0,0.78906,0.60986,1.21875,1.4292,1.21875
					c0.70996,0,1.34961-0.3291,1.34961-1.12891c0-0.95996-0.93945-0.98926-1.68945-0.98926v-0.9502
					c0.96973,0,1.31934-0.34961,1.31934-0.88867c0-0.62012-0.44971-0.91016-1.00928-0.91016c-0.63965,0-1.05957,0.37012-1.06934,1
					l-1.1792-0.08008c0-1.30957,1.0293-2.06934,2.22852-2.06934c1.15918,0,2.229,0.70996,2.229,1.90918
					c0,0.54004-0.22021,1.05957-0.80957,1.37891c0.82959,0.26074,1.1792,0.96973,1.1792,1.72949
					c0,1.40918-1.21924,2.14844-2.57861,2.14844C15.65634,112.76869,14.45712,112.0099,14.45712,110.46986z"/>
			</g>
			
				<linearGradient id="Rettangolo_2130_1_" gradientUnits="userSpaceOnUse" x1="120.32372" y1="614.03882" x2="121.32372" y2="614.03882" gradientTransform="matrix(6.739 0 0 -233.92 -765.69653 143813.51562)">
				<stop  offset="0" style="stop-color:#F3F3F3"/>
				<stop  offset="0.75" style="stop-color:#FFFFFF"/>
			</linearGradient>
			<rect id="Rettangolo_2130" x="45.165" y="60.6" fill="url(#Rettangolo_2130_1_)" width="6.739" height="233.92"/>
			
				<linearGradient id="Rettangolo_2131_1_" gradientUnits="userSpaceOnUse" x1="129.65356" y1="614.03882" x2="130.65356" y2="614.03882" gradientTransform="matrix(11.493 0 0 -233.92 -1437.77234 143813.51562)">
				<stop  offset="0" style="stop-color:#F3F3F3"/>
				<stop  offset="0.75" style="stop-color:#FFFFFF"/>
			</linearGradient>
			<rect id="Rettangolo_2131" x="52.336" y="60.6" fill="url(#Rettangolo_2131_1_)" width="11.493" height="233.92"/>
			
				<linearGradient id="Rettangolo_2132_1_" gradientUnits="userSpaceOnUse" x1="140.25473" y1="614.03882" x2="141.25473" y2="614.03882" gradientTransform="matrix(57.921 0 0 -233.92 -8059.86572 143813.51562)">
				<stop  offset="0" style="stop-color:#F3F3F3"/>
				<stop  offset="0.75" style="stop-color:#FFFFFF"/>
			</linearGradient>
			<rect id="Rettangolo_2132" x="63.829" y="60.6" fill="url(#Rettangolo_2132_1_)" width="57.921" height="233.92"/>
			
				<linearGradient id="Rettangolo_2133_1_" gradientUnits="userSpaceOnUse" x1="141.49011" y1="614.03882" x2="142.49011" y2="614.03882" gradientTransform="matrix(109.44 0 0 -233.92 -15362.92773 143813.51562)">
				<stop  offset="0" style="stop-color:#F3F3F3"/>
				<stop  offset="0.75" style="stop-color:#FFFFFF"/>
			</linearGradient>
			<rect id="Rettangolo_2133" x="121.75" y="60.6" fill="url(#Rettangolo_2133_1_)" width="109.44" height="233.92"/>
			
				<linearGradient id="Rettangolo_2134_1_" gradientUnits="userSpaceOnUse" x1="138.31554" y1="614.03882" x2="139.31554" y2="614.03882" gradientTransform="matrix(33.308 0 0 -233.92 -4378.31543 143813.51562)">
				<stop  offset="0" style="stop-color:#F3F3F3"/>
				<stop  offset="0.75" style="stop-color:#FFFFFF"/>
			</linearGradient>
			<rect id="Rettangolo_2134" x="228.698" y="60.6" fill="url(#Rettangolo_2134_1_)" width="33.308" height="233.92"/>
			
				<linearGradient id="Rettangolo_2135_1_" gradientUnits="userSpaceOnUse" x1="140.32768" y1="614.03882" x2="141.32768" y2="614.03882" gradientTransform="matrix(59.577 0 0 -233.92 -8098.729 143813.51562)">
				<stop  offset="0" style="stop-color:#F3F3F3"/>
				<stop  offset="0.75" style="stop-color:#FFFFFF"/>
			</linearGradient>
			<rect id="Rettangolo_2135" x="261.573" y="60.6" fill="url(#Rettangolo_2135_1_)" width="59.577" height="233.92"/>
			
				<linearGradient id="Rettangolo_2136_1_" gradientUnits="userSpaceOnUse" x1="140.68494" y1="614.03882" x2="141.68494" y2="614.03882" gradientTransform="matrix(69.278 0 0 -233.92 -9425.89941 143813.51562)">
				<stop  offset="0" style="stop-color:#F3F3F3"/>
				<stop  offset="0.75" style="stop-color:#FFFFFF"/>
			</linearGradient>
			<rect id="Rettangolo_2136" x="320.47198" y="60.6" fill="url(#Rettangolo_2136_1_)" width="69.278" height="233.92"/>
			
				<linearGradient id="Rettangolo_2137_1_" gradientUnits="userSpaceOnUse" x1="135.85724" y1="614.03882" x2="136.85724" y2="614.03882" gradientTransform="matrix(21.647 0 0 -233.92 -2551.6687 143813.51562)">
				<stop  offset="0" style="stop-color:#F3F3F3"/>
				<stop  offset="0.75" style="stop-color:#FFFFFF"/>
			</linearGradient>
			<rect id="Rettangolo_2137" x="389.233" y="60.6" fill="url(#Rettangolo_2137_1_)" width="21.647" height="233.92"/>
			
				<linearGradient id="Rettangolo_2138_1_" gradientUnits="userSpaceOnUse" x1="139.50325" y1="614.03882" x2="140.50325" y2="614.03882" gradientTransform="matrix(45.027 0 0 -233.92 -5870.87158 143813.51562)">
				<stop  offset="0" style="stop-color:#F3F3F3"/>
				<stop  offset="0.75" style="stop-color:#FFFFFF"/>
			</linearGradient>
			<rect id="Rettangolo_2138" x="410.54099" y="60.6" fill="url(#Rettangolo_2138_1_)" width="45.027" height="233.92"/>
			
				<linearGradient id="Rettangolo_2139_1_" gradientUnits="userSpaceOnUse" x1="140.40234" y1="614.03882" x2="141.40234" y2="614.03882" gradientTransform="matrix(61.373 0 0 -233.92 -8161.91211 143813.51562)">
				<stop  offset="0" style="stop-color:#F3F3F3"/>
				<stop  offset="0.75" style="stop-color:#FFFFFF"/>
			</linearGradient>
			<rect id="Rettangolo_2139" x="455.00101" y="60.6" fill="url(#Rettangolo_2139_1_)" width="61.373" height="233.92"/>
			
				<linearGradient id="Rettangolo_2140_1_" gradientUnits="userSpaceOnUse" x1="139.73981" y1="614.03882" x2="140.73981" y2="614.03882" gradientTransform="matrix(48.42 0 0 -233.92 -6250.3999 143813.51562)">
				<stop  offset="0" style="stop-color:#F3F3F3"/>
				<stop  offset="0.75" style="stop-color:#FFFFFF"/>
			</linearGradient>
			<rect id="Rettangolo_2140" x="515.80103" y="60.6" fill="url(#Rettangolo_2140_1_)" width="48.42" height="233.92"/>
			
				<linearGradient id="Rettangolo_2141_1_" gradientUnits="userSpaceOnUse" x1="141.76646" y1="614.03882" x2="142.76646" y2="614.03882" gradientTransform="matrix(136.62399 0 0 -233.92 -18805.68359 143813.51562)">
				<stop  offset="0" style="stop-color:#F3F3F3"/>
				<stop  offset="0.75" style="stop-color:#FFFFFF"/>
			</linearGradient>
			<rect id="Rettangolo_2141" x="563.01501" y="60.6" fill="url(#Rettangolo_2141_1_)" width="136.62399" height="233.92"/>
			
				<linearGradient id="Rettangolo_2142_1_" gradientUnits="userSpaceOnUse" x1="141.72206" y1="614.03882" x2="142.72206" y2="614.03882" gradientTransform="matrix(131.381 0 0 -233.92 -17922.26367 143813.51562)">
				<stop  offset="0" style="stop-color:#F3F3F3"/>
				<stop  offset="0.75" style="stop-color:#FFFFFF"/>
			</linearGradient>
			<rect id="Rettangolo_2142" x="697.32202" y="60.6" fill="url(#Rettangolo_2142_1_)" width="131.381" height="233.92"/>
			
				<linearGradient id="Rettangolo_2143_1_" gradientUnits="userSpaceOnUse" x1="139.2748" y1="614.03882" x2="140.2748" y2="614.03882" gradientTransform="matrix(42.173 0 0 -233.92 -5044.93311 143813.51562)">
				<stop  offset="0" style="stop-color:#F3F3F3"/>
				<stop  offset="0.75" style="stop-color:#FFFFFF"/>
			</linearGradient>
			<rect id="Rettangolo_2143" x="828.703" y="60.6" fill="url(#Rettangolo_2143_1_)" width="42.173" height="233.92"/>
			
				<linearGradient id="Rettangolo_2144_1_" gradientUnits="userSpaceOnUse" x1="135.27975" y1="614.03882" x2="136.27975" y2="614.03882" gradientTransform="matrix(20.002 0 0 -233.92 -1834.98987 143813.51562)">
				<stop  offset="0" style="stop-color:#F3F3F3"/>
				<stop  offset="0.75" style="stop-color:#FFFFFF"/>
			</linearGradient>
			<rect id="Rettangolo_2144" x="870.87598" y="60.6" fill="url(#Rettangolo_2144_1_)" width="20.002" height="233.92"/>
			<g id="Raggruppa_596" transform="translate(44.734 80.656)">
				<path id="Tracciato_600" fill="#BBBBFF" stroke="#6600FF" stroke-width="0.979" stroke-miterlimit="10" d="M0,182.18091
					c3.52,0,3.52,15.84204,7.039,15.84204c6.282,0,6.282-166.33911,12.563-166.33911C48.144,31.68384,48.144,7.9209,76.68499,7.9209
					c52.9,0,52.9,158.41797,105.8,158.41797c17.922,0,17.922-79.20898,35.84299-79.20898c29.052,0,29.052,39.6001,58.10001,39.6001
					h68.47198c10.741,0,10.741,47.5271,21.48199,47.5271c22.30801,0,22.30801-110.89404,44.61499-110.89404
					c30.00702,0,30.00702,47.5249,60.013,47.5249c24.935,0,24.935-110.89209,49.87-110.89209
					c66.73499,0,66.73499,7.91992,133.46899,7.91992c64.75598,0,64.75598,79.20898,129.513,79.20898
					c21.44098,0,21.44098,102.97192,42.88202,102.97192c9.41803,0,9.41803-23.76294,18.836-23.76294v47.5249H0V182.18091z"/>
			</g>
			<line id="Linea_288" fill="none" stroke="#000000" x1="26.5" y1="112.542" x2="65.008" y2="112.542"/>
			<line id="Linea_289" fill="none" stroke="#999999" stroke-width="0.5" x1="26.5" y1="80.655" x2="890.87903" y2="80.655"/>
			<line id="Linea_290" fill="none" stroke="#999999" stroke-width="0.5" x1="26.149" y1="88.455" x2="121.378" y2="88.455"/>
		</g>
	</g>
</g>
</svg>
