<?xml version="1.0" encoding="utf-8"?>
<!-- Generator: Adobe Illustrator 25.1.0, SVG Export Plug-In . SVG Version: 6.00 Build 0)  -->
<svg version="1.1" id="Livello_1" xmlns="http://www.w3.org/2000/svg" xmlns:xlink="http://www.w3.org/1999/xlink" x="0px" y="0px"
	 viewBox="0 0 695 10.9" enable-background="new 0 0 695 10.9" xml:space="preserve">
<g>
	<defs>
		<rect id="SVGID_1_" y="0" width="695" height="10.9"/>
	</defs>
	<clipPath id="SVGID_2_">
		<use xlink:href="#SVGID_1_"  overflow="visible"/>
	</clipPath>
	<g id="legenda-03" clip-path="url(#SVGID_2_)">
		<g id="Raggruppa_795" transform="translate(-1.19 -27.676)">
			<g id="Esteriore" transform="translate(0 0)">
				<g enable-background="new    ">
					<path d="M25.32916,28.71036h1.88916c2.26855,0,3.55811,1.28906,3.55811,3.53809c0,2.21875-1.25928,3.42773-3.56787,3.42773
						h-1.87939V28.71036z M27.1485,35.01701c1.94873,0,2.9082-0.91992,2.9082-2.79883c0-1.88867-0.95947-2.84863-2.84814-2.84863
						h-1.16943v5.64746H27.1485z"/>
					<path d="M36.15728,30.74845v4.92774h-0.68945v-0.70996c-0.3501,0.53027-0.97949,0.79004-1.62939,0.79004
						c-1.11914,0-1.60889-0.76953-1.60889-1.98926v-3.01856H32.919v2.84863c0,0.7998,0.14014,1.5498,1.07959,1.5498
						c0.97949,0,1.46924-0.84961,1.46924-2.12891v-2.26953H36.15728z"/>
					<path d="M42.48687,33.20744c0,1.46973-0.74951,2.54883-2.18896,2.54883c-0.71924,0-1.26904-0.28027-1.62891-0.73926v0.65918
						h-0.68945v-6.96582H38.669v2.69824c0.36963-0.47949,0.92969-0.75,1.62891-0.75
						C41.66754,30.65861,42.48687,31.66837,42.48687,33.20744z M41.79742,33.20744c0-1.16895-0.59961-1.93848-1.59912-1.93848
						c-0.98975,0-1.58936,0.76953-1.58936,1.93848c0,1.11914,0.5498,1.93945,1.58936,1.93945
						C41.24762,35.14689,41.79742,34.32658,41.79742,33.20744z"/>
					<path d="M43.85943,28.71036h0.79932v1.01953h-0.79932V28.71036z M43.91949,30.74845h0.68945v4.92774h-0.68945V30.74845z"/>
					<path d="M48.47808,35.62638c-0.25977,0.08008-0.52002,0.12988-0.74951,0.12988c-0.65967,0-1.13965-0.37012-1.13965-1.23926
						v-3.18848h-0.81934v-0.58008h0.81934v-1.37891l0.68994-0.51953v1.89844h1.18896v0.58008h-1.18896v3.09863
						c0,0.47949,0.21973,0.69922,0.60938,0.69922c0.16992,0,0.35986-0.04004,0.57959-0.10938L48.47808,35.62638z"/>
					<path d="M53.45709,32.60783v3.06836h-0.62988l-0.04004-0.75977c-0.38965,0.5498-0.98926,0.83984-1.76904,0.83984
						c-1.06934,0-1.69873-0.55957-1.69873-1.50977c0-0.49902,0.19971-0.87891,0.55957-1.09863
						c0.37988-0.21973,0.90967-0.31055,1.87891-0.31055h1.00928v-0.22949c0-0.85938-0.44971-1.3291-1.2793-1.3291
						c-0.61963,0-1.09912,0.26953-1.49902,0.81934l-0.49951-0.41992c0.5293-0.68945,1.16895-1.00879,2.00879-1.00879
						C52.73736,30.66935,53.45709,31.37833,53.45709,32.60783z M52.76715,33.4672v-0.06934h-0.94922
						c-0.90967,0-1.29932,0.05957-1.53906,0.24902c-0.18018,0.14062-0.27002,0.36035-0.27002,0.63965
						c0,0.5498,0.46973,0.90039,1.20947,0.90039C52.16754,35.18693,52.76715,34.51701,52.76715,33.4672z"/>
					<path d="M57.18805,35.62638c-0.25977,0.08008-0.52002,0.12988-0.74951,0.12988c-0.65967,0-1.13965-0.37012-1.13965-1.23926
						v-3.18848h-0.81934v-0.58008h0.81934v-1.37891l0.68994-0.51953v1.89844h1.18896v0.58008h-1.18896v3.09863
						c0,0.47949,0.21973,0.69922,0.60938,0.69922c0.16992,0,0.35986-0.04004,0.57959-0.10938L57.18805,35.62638z"/>
					<path d="M58.43902,28.71036h0.79932v1.01953h-0.79932V28.71036z M58.49908,30.74845h0.68945v4.92774h-0.68945V30.74845z"/>
					<path d="M60.29889,30.74845h0.75l1.54883,4.04785l1.55909-4.04785h0.75977l-2.01905,4.92774h-0.58936L60.29889,30.74845z"/>
					<path d="M69.77643,33.39787h-3.60791c0.02002,1.0791,0.61963,1.72852,1.58936,1.72852
						c0.53955,0,0.96924-0.13965,1.41895-0.61914l0.47998,0.41895c-0.57959,0.61035-1.14941,0.83008-1.90918,0.83008
						c-1.49902,0-2.26855-1.11914-2.26855-2.51855c0-1.38965,0.75977-2.56836,2.18896-2.56836
						c1.50879,0,2.13867,1.17871,2.13867,2.29785C69.8067,33.10783,69.79645,33.27775,69.77643,33.39787z M66.16852,32.81779
						h2.97852c0-0.02051-0.01025-0.07031-0.01025-0.16016c-0.0498-0.79981-0.55957-1.40918-1.46875-1.40918
						C66.77838,31.24845,66.22858,31.94864,66.16852,32.81779z"/>
					<path d="M75.9776,35.62638c-0.25977,0.08008-0.52002,0.12988-0.74951,0.12988c-0.65967,0-1.13965-0.37012-1.13965-1.23926
						v-3.18848H73.2691v-0.58008h0.81934v-1.37891l0.68945-0.51953v1.89844h1.18945v0.58008h-1.18945v3.09863
						c0,0.47949,0.22021,0.69922,0.60986,0.69922c0.16992,0,0.35986-0.04004,0.57959-0.10938L75.9776,35.62638z"/>
					<path d="M81.13678,33.39787h-3.60791c0.02002,1.0791,0.61963,1.72852,1.58936,1.72852
						c0.53955,0,0.96924-0.13965,1.41895-0.61914l0.47998,0.41895c-0.57959,0.61035-1.14941,0.83008-1.90918,0.83008
						c-1.49902,0-2.26855-1.11914-2.26855-2.51855c0-1.38965,0.75977-2.56836,2.18896-2.56836
						c1.50879,0,2.13867,1.17871,2.13867,2.29785C81.16705,33.10783,81.1568,33.27775,81.13678,33.39787z M77.52887,32.81779
						h2.97852c0-0.02051-0.01025-0.07031-0.01025-0.16016c-0.0498-0.79981-0.55957-1.40918-1.46875-1.40918
						C78.13873,31.24845,77.58893,31.94864,77.52887,32.81779z"/>
					<path d="M83.70856,33.20744l-1.79932-2.45899h0.83984l1.41895,1.97949l1.40918-1.97949h0.83984l-1.79932,2.45899
						l1.80908,2.46875h-0.84961l-1.40918-1.99902l-1.40918,1.99902h-0.84961L83.70856,33.20744z"/>
					<path d="M89.68756,35.62638c-0.25977,0.08008-0.52002,0.12988-0.74951,0.12988c-0.65967,0-1.13965-0.37012-1.13965-1.23926
						v-3.18848h-0.81934v-0.58008h0.81934v-1.37891l0.68945-0.51953v1.89844h1.18945v0.58008h-1.18945v3.09863
						c0,0.47949,0.22021,0.69922,0.60986,0.69922c0.16992,0,0.35986-0.04004,0.57959-0.10938L89.68756,35.62638z"/>
				</g>
			</g>
			<path id="Path_47" fill="#D6D6FC" d="M6.484,27.676H15.9c2.76143-0.15626,5.12668,1.95564,5.28294,4.71707
				c0.15626,2.76142-1.95564,5.12667-4.71706,5.28294c-0.18847,0.01067-0.3774,0.01067-0.56587,0H6.484
				c-2.76142,0.15627-5.12668-1.95562-5.28295-4.71704c-0.15627-2.76143,1.95562-5.12668,4.71705-5.28296
				C6.10658,27.66534,6.29552,27.66534,6.484,27.676z"/>
			<g enable-background="new    ">
				<path d="M131.64117,28.71036h1.98926c1.479,0,2.29883,0.69922,2.29883,1.94824c0,1.26953-0.82959,1.97949-2.29883,1.97949
					h-1.2793v3.03809h-0.70996V28.71036z M133.56012,31.97794c1.08984,0,1.64941-0.44922,1.64941-1.30859
					c0-0.86035-0.55957-1.2998-1.64941-1.2998h-1.20898v2.6084H133.56012z"/>
				<path d="M140.18951,30.87931l-0.33984,0.55957c-0.22949-0.10059-0.43945-0.15039-0.64941-0.15039
					c-0.75977,0-1.31934,0.56934-1.31934,1.63965v2.74805h-0.68945v-4.92774h0.68945v0.74023
					c0.35986-0.64941,0.95947-0.81934,1.45898-0.81934C139.63971,30.66935,139.91998,30.72892,140.18951,30.87931z"/>
				<path d="M144.65875,33.39787h-3.60791c0.02002,1.0791,0.61963,1.72852,1.58936,1.72852
					c0.53955,0,0.96924-0.13965,1.41895-0.61914l0.47998,0.41895c-0.57959,0.61035-1.14941,0.83008-1.90918,0.83008
					c-1.49902,0-2.26855-1.11914-2.26855-2.51855c0-1.38965,0.75977-2.56836,2.18896-2.56836
					c1.50879,0,2.13867,1.17871,2.13867,2.29785C144.68903,33.10783,144.67877,33.27775,144.65875,33.39787z M141.05084,32.81779
					h2.97852c0-0.02051-0.01025-0.07031-0.01025-0.16016c-0.0498-0.79981-0.55957-1.40918-1.46875-1.40918
					C141.66071,31.24845,141.1109,31.94864,141.05084,32.81779z"/>
				<path d="M145.55182,34.4672l0.57959-0.25977c0.17969,0.50977,0.65967,0.93945,1.4292,0.93945
					c0.66943,0,1.09961-0.33008,1.09961-0.84961c0-1.30957-2.83887-0.49023-2.83887-2.23926
					c0-0.85938,0.69971-1.38867,1.68945-1.38867c0.78955,0,1.4292,0.3291,1.76904,1.0293l-0.5498,0.2998
					c-0.23975-0.44043-0.62988-0.71973-1.23926-0.71973c-0.60986,0-0.99951,0.25-0.99951,0.67969
					c0,1.16895,2.84814,0.42969,2.84814,2.29883c0,0.99902-0.81934,1.49902-1.76904,1.49902
					C146.60114,35.75626,145.81158,35.25626,145.55182,34.4672z"/>
				<path d="M154.58893,33.39787h-3.60791c0.02002,1.0791,0.61963,1.72852,1.58936,1.72852
					c0.53955,0,0.96924-0.13965,1.41895-0.61914l0.47998,0.41895c-0.57959,0.61035-1.14941,0.83008-1.90918,0.83008
					c-1.49902,0-2.26855-1.11914-2.26855-2.51855c0-1.38965,0.75977-2.56836,2.18896-2.56836
					c1.50879,0,2.13867,1.17871,2.13867,2.29785C154.6192,33.10783,154.60895,33.27775,154.58893,33.39787z M150.98102,32.81779
					h2.97852c0-0.02051-0.01025-0.07031-0.01025-0.16016c-0.0498-0.79981-0.55957-1.40918-1.46875-1.40918
					C151.59088,31.24845,151.04108,31.94864,150.98102,32.81779z"/>
				<path d="M159.93903,32.65763v3.01855h-0.68945v-2.84863c0-1.05957-0.33984-1.54883-1.07959-1.54883
					c-0.92969,0-1.46924,0.79981-1.46924,2.18848v2.20898h-0.68945v-4.92774h0.68945v0.71973
					c0.31982-0.49902,0.91943-0.79883,1.62891-0.79883C159.38922,30.66935,159.93903,31.34904,159.93903,32.65763z"/>
				<path d="M161.23102,33.22794c0-1.29981,0.72998-2.5586,2.21924-2.5586c0.87939,0,1.60889,0.43945,1.99854,1.3584
					l-0.65967,0.26074c-0.22949-0.62988-0.71924-1.00977-1.33887-1.00977c-1.0498,0-1.51953,0.93946-1.51953,1.94922
					c0,1.00879,0.46973,1.91895,1.5293,1.91895c0.61963,0,1.10938-0.37012,1.29932-1l0.63965,0.24023
					c-0.33008,0.89941-1.04932,1.36914-1.93896,1.36914C162.03082,35.75626,161.23102,34.59708,161.23102,33.22794z"/>
				<path d="M170.56891,33.39787H166.961c0.02002,1.0791,0.61963,1.72852,1.58936,1.72852
					c0.53955,0,0.96924-0.13965,1.41895-0.61914l0.47998,0.41895c-0.57959,0.61035-1.14941,0.83008-1.90918,0.83008
					c-1.49902,0-2.26855-1.11914-2.26855-2.51855c0-1.38965,0.75977-2.56836,2.18896-2.56836
					c1.50879,0,2.13867,1.17871,2.13867,2.29785C170.59918,33.10783,170.58893,33.27775,170.56891,33.39787z M166.961,32.81779
					h2.97852c0-0.02051-0.01025-0.07031-0.01025-0.16016c-0.0498-0.79981-0.55957-1.40918-1.46875-1.40918
					C167.57086,31.24845,167.02106,31.94864,166.961,32.81779z"/>
				<path d="M174.29108,33.20744c0-1.45899,0.94971-2.53809,2.35889-2.53809c1.39941,0,2.36865,1.0791,2.36865,2.53809
					c0,1.44922-0.95947,2.54883-2.36865,2.54883S174.29108,34.66642,174.29108,33.20744z M178.32916,33.20744
					c0-1.11914-0.62988-1.92871-1.6792-1.92871c-1.05957,0-1.66895,0.81934-1.66895,1.92871
					c0,1.11914,0.61963,1.93945,1.66895,1.93945C177.70953,35.14689,178.32916,34.30704,178.32916,33.20744z"/>
				<path d="M180.711,31.32853h-1.03955v-0.58008h1.04932v-0.75879c0-1.0498,0.60986-1.35938,1.23926-1.35938
					c0.27002,0,0.56982,0.05957,0.87988,0.18945l-0.24023,0.5498c-0.20996-0.09961-0.39941-0.16016-0.56934-0.16016
					c-0.39014,0-0.62988,0.27051-0.62988,0.72949v0.80957h1.41943v0.58008h-1.41943v4.34766H180.711V31.32853z"/>
				<path d="M191.13824,33.20744c0,1.46973-0.74951,2.54883-2.18896,2.54883c-0.71924,0-1.26904-0.28027-1.62891-0.73926v2.69824
					h-0.68945v-6.9668h0.68945v0.66016c0.36963-0.47949,0.92969-0.75,1.62891-0.75
					C190.31891,30.65861,191.13824,31.66837,191.13824,33.20744z M190.44879,33.20744c0-1.16895-0.59961-1.93848-1.59912-1.93848
					c-0.98975,0-1.58936,0.76953-1.58936,1.93848c0,1.11914,0.5498,1.93945,1.58936,1.93945
					C189.89899,35.14689,190.44879,34.32658,190.44879,33.20744z"/>
				<path d="M196.23883,32.60783v3.06836h-0.62988l-0.04004-0.75977c-0.38965,0.5498-0.98926,0.83984-1.76904,0.83984
					c-1.06934,0-1.69873-0.55957-1.69873-1.50977c0-0.49902,0.19971-0.87891,0.55957-1.09863
					c0.37988-0.21973,0.90967-0.31055,1.87891-0.31055h1.00928v-0.22949c0-0.85938-0.44971-1.3291-1.2793-1.3291
					c-0.61963,0-1.09912,0.26953-1.49902,0.81934l-0.49951-0.41992c0.5293-0.68945,1.16895-1.00879,2.00879-1.00879
					C195.5191,30.66935,196.23883,31.37833,196.23883,32.60783z M195.54889,33.4672v-0.06934h-0.94922
					c-0.90967,0-1.29932,0.05957-1.53906,0.24902c-0.18018,0.14062-0.27002,0.36035-0.27002,0.63965
					c0,0.5498,0.46973,0.90039,1.20947,0.90039C194.94928,35.18693,195.54889,34.51701,195.54889,33.4672z"/>
				<path d="M200.91901,30.87931l-0.33984,0.55957c-0.22949-0.10059-0.43945-0.15039-0.64941-0.15039
					c-0.75977,0-1.31934,0.56934-1.31934,1.63965v2.74805h-0.68945v-4.92774h0.68945v0.74023
					c0.35986-0.64941,0.95947-0.81934,1.45898-0.81934C200.3692,30.66935,200.64948,30.72892,200.91901,30.87931z"/>
				<path d="M205.38824,33.39787h-3.60791c0.02002,1.0791,0.61963,1.72852,1.58936,1.72852
					c0.53955,0,0.96924-0.13965,1.41895-0.61914l0.47998,0.41895c-0.57959,0.61035-1.14941,0.83008-1.90918,0.83008
					c-1.49902,0-2.26855-1.11914-2.26855-2.51855c0-1.38965,0.75977-2.56836,2.18896-2.56836
					c1.50879,0,2.13867,1.17871,2.13867,2.29785C205.41852,33.10783,205.40826,33.27775,205.38824,33.39787z M201.78033,32.81779
					h2.97852c0-0.02051-0.01025-0.07031-0.01025-0.16016c-0.0498-0.79981-0.55957-1.40918-1.46875-1.40918
					C202.3902,31.24845,201.84039,31.94864,201.78033,32.81779z"/>
				<path d="M210.73883,32.65763v3.01855h-0.68945v-2.84863c0-1.05957-0.33984-1.54883-1.07959-1.54883
					c-0.92969,0-1.46924,0.79981-1.46924,2.18848v2.20898h-0.68945v-4.92774h0.68945v0.71973
					c0.31982-0.49902,0.91943-0.79883,1.62891-0.79883C210.18903,30.66935,210.73883,31.34904,210.73883,32.65763z"/>
				<path d="M214.48981,35.62638c-0.25977,0.08008-0.52002,0.12988-0.74951,0.12988c-0.65967,0-1.13965-0.37012-1.13965-1.23926
					v-3.18848h-0.81934v-0.58008h0.81934v-1.37891l0.68945-0.51953v1.89844h1.18945v0.58008h-1.18945v3.09863
					c0,0.47949,0.22021,0.69922,0.60986,0.69922c0.16992,0,0.35986-0.04004,0.57959-0.10938L214.48981,35.62638z"/>
				<path d="M219.72858,32.65763v3.01855h-0.68945v-2.84863c0-1.06934-0.33984-1.54883-1.07959-1.54883
					c-0.93945,0-1.46924,0.76953-1.46924,2.12891v2.26855h-0.68945v-6.96582h0.68945v2.75781
					c0.31982-0.49902,0.91943-0.79883,1.62891-0.79883C219.17877,30.66935,219.72858,31.34904,219.72858,32.65763z"/>
				<path d="M225.32819,33.39787h-3.60791c0.02002,1.0791,0.61963,1.72852,1.58936,1.72852
					c0.53955,0,0.96924-0.13965,1.41895-0.61914l0.47998,0.41895c-0.57959,0.61035-1.14941,0.83008-1.90918,0.83008
					c-1.49902,0-2.26855-1.11914-2.26855-2.51855c0-1.38965,0.75977-2.56836,2.18896-2.56836
					c1.50879,0,2.13867,1.17871,2.13867,2.29785C225.35846,33.10783,225.34821,33.27775,225.32819,33.39787z M221.72028,32.81779
					h2.97852c0-0.02051-0.01025-0.07031-0.01025-0.16016c-0.0498-0.79981-0.55957-1.40918-1.46875-1.40918
					C222.33014,31.24845,221.78033,31.94864,221.72028,32.81779z"/>
				<path d="M226.22076,34.4672l0.57959-0.25977c0.17969,0.50977,0.65967,0.93945,1.4292,0.93945
					c0.66943,0,1.09961-0.33008,1.09961-0.84961c0-1.30957-2.83887-0.49023-2.83887-2.23926
					c0-0.85938,0.69971-1.38867,1.68945-1.38867c0.78955,0,1.4292,0.3291,1.76904,1.0293l-0.5498,0.2998
					c-0.23975-0.44043-0.62988-0.71973-1.23926-0.71973c-0.60986,0-0.99951,0.25-0.99951,0.67969
					c0,1.16895,2.84814,0.42969,2.84814,2.29883c0,0.99902-0.81934,1.49902-1.76904,1.49902
					C227.27008,35.75626,226.48053,35.25626,226.22076,34.4672z"/>
				<path d="M235.25787,33.39787h-3.60791c0.02002,1.0791,0.61963,1.72852,1.58936,1.72852
					c0.53955,0,0.96924-0.13965,1.41895-0.61914l0.47998,0.41895c-0.57959,0.61035-1.14941,0.83008-1.90918,0.83008
					c-1.49902,0-2.26855-1.11914-2.26855-2.51855c0-1.38965,0.75977-2.56836,2.18896-2.56836
					c1.50879,0,2.13867,1.17871,2.13867,2.29785C235.28815,33.10783,235.27789,33.27775,235.25787,33.39787z M231.64996,32.81779
					h2.97852c0-0.02051-0.01025-0.07031-0.01025-0.16016c-0.0498-0.79981-0.55957-1.40918-1.46875-1.40918
					C232.25983,31.24845,231.71002,31.94864,231.64996,32.81779z"/>
				<path d="M236.15094,34.4672l0.57959-0.25977c0.17969,0.50977,0.65967,0.93945,1.4292,0.93945
					c0.66943,0,1.09961-0.33008,1.09961-0.84961c0-1.30957-2.83887-0.49023-2.83887-2.23926
					c0-0.85938,0.69971-1.38867,1.68945-1.38867c0.78955,0,1.4292,0.3291,1.76904,1.0293l-0.5498,0.2998
					c-0.23975-0.44043-0.62988-0.71973-1.23926-0.71973c-0.60986,0-0.99951,0.25-0.99951,0.67969
					c0,1.16895,2.84814,0.42969,2.84814,2.29883c0,0.99902-0.81934,1.49902-1.76855,1.49902
					C237.20026,35.75626,236.41071,35.25626,236.15094,34.4672z"/>
				<path d="M247.73834,32.60783v3.06836h-0.62988l-0.04004-0.75977c-0.38965,0.5498-0.98926,0.83984-1.76904,0.83984
					c-1.06934,0-1.69873-0.55957-1.69873-1.50977c0-0.49902,0.19971-0.87891,0.55957-1.09863
					c0.37988-0.21973,0.90967-0.31055,1.87891-0.31055h1.00928v-0.22949c0-0.85938-0.44971-1.3291-1.2793-1.3291
					c-0.61963,0-1.09912,0.26953-1.49902,0.81934l-0.49951-0.41992c0.5293-0.68945,1.16895-1.00879,2.00879-1.00879
					C247.01862,30.66935,247.73834,31.37833,247.73834,32.60783z M247.0484,33.4672v-0.06934h-0.94922
					c-0.90967,0-1.29932,0.05957-1.53906,0.24902c-0.18018,0.14062-0.27002,0.36035-0.27002,0.63965
					c0,0.5498,0.46973,0.90039,1.20947,0.90039C246.44879,35.18693,247.0484,34.51701,247.0484,33.4672z"/>
				<path d="M253.34821,32.65763v3.01855h-0.68945v-2.84863c0-1.05957-0.33984-1.54883-1.07959-1.54883
					c-0.92969,0-1.46924,0.79981-1.46924,2.18848v2.20898h-0.68945v-4.92774h0.68945v0.71973
					c0.31982-0.49902,0.91943-0.79883,1.62891-0.79883C252.7984,30.66935,253.34821,31.34904,253.34821,32.65763z"/>
				<path d="M259.16803,28.71036v6.96582h-0.68994v-0.65918c-0.35938,0.45898-0.90918,0.73926-1.62891,0.73926
					c-1.43896,0-2.18896-1.0791-2.18896-2.54883c0-1.53906,0.81982-2.54883,2.18896-2.54883c0.69971,0,1.25928,0.27051,1.62891,0.75
					v-2.69824H259.16803z M258.53815,33.20744c0-1.16895-0.59961-1.93848-1.58887-1.93848
					c-0.99951,0-1.59912,0.76953-1.59912,1.93848c0,1.11914,0.54932,1.93945,1.59912,1.93945
					C257.98834,35.14689,258.53815,34.32658,258.53815,33.20744z"/>
				<path d="M267.38824,32.60783v3.06836h-0.62988l-0.04004-0.75977c-0.38965,0.5498-0.98926,0.83984-1.76904,0.83984
					c-1.06934,0-1.69873-0.55957-1.69873-1.50977c0-0.49902,0.19971-0.87891,0.55957-1.09863
					c0.37988-0.21973,0.90967-0.31055,1.87891-0.31055h1.00928v-0.22949c0-0.85938-0.44971-1.3291-1.2793-1.3291
					c-0.61963,0-1.09912,0.26953-1.49902,0.81934l-0.49951-0.41992c0.5293-0.68945,1.16895-1.00879,2.00879-1.00879
					C266.66852,30.66935,267.38824,31.37833,267.38824,32.60783z M266.6983,33.4672v-0.06934h-0.94922
					c-0.90967,0-1.29932,0.05957-1.53906,0.24902c-0.18018,0.14062-0.27002,0.36035-0.27002,0.63965
					c0,0.5498,0.46973,0.90039,1.20947,0.90039C266.09869,35.18693,266.6983,34.51701,266.6983,33.4672z"/>
				<path d="M268.5401,34.4672l0.57959-0.25977c0.17969,0.50977,0.65967,0.93945,1.4292,0.93945
					c0.66943,0,1.09961-0.33008,1.09961-0.84961c0-1.30957-2.83887-0.49023-2.83887-2.23926
					c0-0.85938,0.69971-1.38867,1.68945-1.38867c0.78955,0,1.4292,0.3291,1.76904,1.0293l-0.5498,0.2998
					c-0.23975-0.44043-0.62988-0.71973-1.23926-0.71973c-0.60986,0-0.99951,0.25-0.99951,0.67969
					c0,1.16895,2.84814,0.42969,2.84814,2.29883c0,0.99902-0.81934,1.49902-1.76904,1.49902
					C269.58942,35.75626,268.79987,35.25626,268.5401,34.4672z"/>
				<path d="M273.66998,28.71036h0.79932v1.01953h-0.79932V28.71036z M273.73004,30.74845h0.68945v4.92774h-0.68945V30.74845z"/>
				<path d="M280.35748,28.71036v6.96582h-0.68994v-0.65918c-0.35938,0.45898-0.90918,0.73926-1.62891,0.73926
					c-1.43896,0-2.18896-1.0791-2.18896-2.54883c0-1.53906,0.81982-2.54883,2.18896-2.54883c0.69971,0,1.25928,0.27051,1.62891,0.75
					v-2.69824H280.35748z M279.7276,33.20744c0-1.16895-0.59961-1.93848-1.58887-1.93848
					c-0.99951,0-1.59912,0.76953-1.59912,1.93848c0,1.11914,0.54932,1.93945,1.59912,1.93945
					C279.1778,35.14689,279.7276,34.32658,279.7276,33.20744z"/>
				<path d="M286.07721,33.39787h-3.60791c0.02002,1.0791,0.61963,1.72852,1.58936,1.72852
					c0.53955,0,0.96924-0.13965,1.41895-0.61914l0.47998,0.41895c-0.57959,0.61035-1.14941,0.83008-1.90918,0.83008
					c-1.49902,0-2.26855-1.11914-2.26855-2.51855c0-1.38965,0.75977-2.56836,2.18896-2.56836
					c1.50879,0,2.13867,1.17871,2.13867,2.29785C286.10748,33.10783,286.09723,33.27775,286.07721,33.39787z M282.4693,32.81779
					h2.97852c0-0.02051-0.01025-0.07031-0.01025-0.16016c-0.0498-0.79981-0.55957-1.40918-1.46875-1.40918
					C283.07916,31.24845,282.52936,31.94864,282.4693,32.81779z"/>
				<path d="M286.96979,34.4672l0.57959-0.25977c0.17969,0.50977,0.65967,0.93945,1.4292,0.93945
					c0.66943,0,1.09961-0.33008,1.09961-0.84961c0-1.30957-2.83887-0.49023-2.83887-2.23926
					c0-0.85938,0.69971-1.38867,1.68945-1.38867c0.78955,0,1.4292,0.3291,1.76904,1.0293l-0.5498,0.2998
					c-0.23975-0.44043-0.62988-0.71973-1.23926-0.71973c-0.60986,0-0.99951,0.25-0.99951,0.67969
					c0,1.16895,2.84814,0.42969,2.84814,2.29883c0,0.99902-0.81934,1.49902-1.76904,1.49902
					C288.0191,35.75626,287.22955,35.25626,286.96979,34.4672z"/>
			</g>
			<path id="Path_46" fill="#4E0FFF" d="M109.061,27.676h9.882c2.91319-0.14701,5.39761,2.08758,5.55901,5
				c-0.16141,2.91242-2.64581,5.14701-5.559,5h-9.882c-2.91319,0.14701-5.3976-2.08758-5.559-5
				C103.66341,29.76358,106.14782,27.529,109.061,27.676z"/>
		</g>
	</g>
</g>
</svg>
