<?xml version="1.0" encoding="utf-8"?>
<!-- Generator: Adobe Illustrator 25.0.0, SVG Export Plug-In . SVG Version: 6.00 Build 0)  -->
<svg version="1.1" id="Livello_1" xmlns="http://www.w3.org/2000/svg" xmlns:xlink="http://www.w3.org/1999/xlink" x="0px" y="0px"
	 viewBox="0 0 124.6 113.6" enable-background="new 0 0 124.6 113.6" xml:space="preserve">
<rect id="misto_perc-S172" x="28" y="55.4" opacity="0.7" fill="#00C19C" enable-background="new    " width="6.1" height="14.9"/>
<rect id="soggetto_perc-S172" x="28" y="11" opacity="0.7" fill="#FFC806" enable-background="new    " width="6.1" height="44.4"/>
<rect id="dubbio_perc-S172" x="28" y="70.2" opacity="0.7" fill="#BBBBFF" enable-background="new    " width="6.1" height="15.9"/>
<rect id="definitivo_perc-S170" x="28" y="0.8" opacity="0.7" fill="#EAEAEA" enable-background="new    " width="6.1" height="10.5"/>
<g>
	<path id="Path-2" fill="none" stroke="#444444" stroke-width="0.25" d="M57.876,70.2h-1"/>
	<path id="Path-3" fill="none" stroke="#444444" stroke-width="0.25" stroke-dasharray="1.9,1.9" d="M54.976,70.2h-21.9"/>
</g>
<g>
	<path id="Path-2-2" fill="none" stroke="#444444" stroke-width="0.25" d="M57.876,55.4h-1"/>
	<path id="Path-3-2" fill="none" stroke="#444444" stroke-width="0.25" stroke-dasharray="1.9,1.9" d="M54.976,55.4h-21.9"/>
</g>
<g>
	<path id="Path-2-3" fill="none" stroke="#444444" stroke-width="0.25" d="M57.876,11.14354h-1"/>
	<path id="Path-3-3" fill="none" stroke="#444444" stroke-width="0.25" stroke-dasharray="1.9,1.9" d="M54.976,11.14354h-21.9"/>
</g>
<path id="Path-2-4" fill="none" stroke="#444444" stroke-width="0.25" d="M57.876,0.79401h-1"/>
<path id="Path-3-4" fill="none" stroke="#444444" stroke-width="0.25" stroke-dasharray="1.9,1.9" d="M54.976,0.79401h-21.9"/>
<path id="Path-2-5" fill="none" stroke="#444444" stroke-width="0.25" d="M57.876,85.79398h-1"/>
<path id="Path-3-5" fill="none" stroke="#444444" stroke-width="0.25" stroke-dasharray="1.9,1.9" d="M54.976,85.99336h-21.9"/>
<g id="Group" transform="translate(-12.043 525.672) rotate(-90)">
	<path id="Path" fill="none" stroke="#444444" stroke-width="0.5" d="M525,69.9l-85.29999,0.2"/>
	
		<rect id="Rectangle" x="523.22803" y="69.41512" transform="matrix(-0.00301 -1 1 -0.00301 456.54443 595.0014)" fill="#444444" width="3.3" height="1"/>
	
		<rect id="Rectangle-2" x="438.02863" y="69.62063" transform="matrix(-0.00311 -1 1 -0.00311 370.92685 510.01538)" fill="#444444" width="3.3" height="1"/>
</g>
<g id="Rettangolo_18727" transform="translate(30 286)">
	<rect x="-25.35" y="-187.39999" fill="none" width="52.8" height="15"/>
	<rect x="-24.85" y="-186.89999" fill="none" stroke="#000000" stroke-width="0.9537" width="51.8" height="14"/>
</g>
<line id="Linea_5253" fill="none" stroke="#000000" stroke-width="0.5" stroke-linecap="square" x1="31.05" y1="88.1" x2="31.05" y2="99.1"/>
<g>
	<path d="M9.52412,102.45898h1.88867c2.26855,0,3.55762,1.29004,3.55762,3.53809c0,2.21875-1.25879,3.42871-3.56738,3.42871H9.52412
		V102.45898z M11.34248,108.76562c1.94922,0,2.90918-0.91895,2.90918-2.79785c0-1.88965-0.95996-2.84863-2.84863-2.84863h-1.16992
		v5.64648C10.23311,108.76561,11.34248,108.76561,11.34248,108.76562z"/>
	<path d="M20.21162,106.35742v3.06836h-0.62891l-0.04004-0.75977c-0.39062,0.5498-0.99023,0.83984-1.76953,0.83984
		c-1.06934,0-1.69922-0.56055-1.69922-1.50977c0-0.49902,0.2002-0.87891,0.55957-1.09961
		c0.37988-0.21973,0.91016-0.30957,1.87988-0.30957h1.00879v-0.22949c0-0.85938-0.44922-1.3291-1.2793-1.3291
		c-0.61914,0-1.09961,0.26953-1.49902,0.81934l-0.5-0.41992c0.53027-0.68945,1.16992-1.00977,2.00879-1.00977
		C19.49189,104.41797,20.21162,105.12793,20.21162,106.35742z M19.52217,107.2168v-0.07031h-0.94922
		c-0.90918,0-1.2998,0.06055-1.53906,0.25c-0.17969,0.13965-0.27051,0.36035-0.27051,0.63965
		c0,0.5498,0.4707,0.89941,1.20996,0.89941C18.92256,108.93555,19.52217,108.2666,19.52217,107.2168z"/>
	<path d="M23.94209,109.37598c-0.25977,0.0791-0.51953,0.12988-0.74902,0.12988c-0.66016,0-1.13965-0.37012-1.13965-1.23926
		v-3.18848h-0.81934v-0.58008h0.81934v-1.37891l0.68945-0.51953v1.89844h1.18945v0.58008h-1.18945v3.09766
		c0,0.48047,0.21973,0.7002,0.61035,0.7002c0.16992,0,0.35938-0.04004,0.5791-0.11035L23.94209,109.37598z"/>
	<path d="M29.10225,107.14648h-3.6084c0.02051,1.08008,0.62012,1.72949,1.58887,1.72949c0.54004,0,0.96973-0.13965,1.41992-0.62012
		l0.47949,0.41992c-0.58008,0.60938-1.14941,0.83008-1.90918,0.83008c-1.49902,0-2.26855-1.12012-2.26855-2.51855
		c0-1.38965,0.75977-2.56934,2.18848-2.56934c1.50977,0,2.13867,1.17969,2.13867,2.29883
		C29.13154,106.85742,29.12178,107.02637,29.10225,107.14648z M25.49385,106.56738h2.97852
		c0-0.02051-0.00977-0.07031-0.00977-0.16016c-0.0498-0.7998-0.55957-1.40918-1.46973-1.40918
		C26.10322,104.99805,25.55439,105.69727,25.49385,106.56738z"/>
	<path d="M31.33271,108.13672h0.88965l-1.31934,2.83789H30.4333L31.33271,108.13672z"/>
	<path d="M38.60225,109.37598c-0.25977,0.0791-0.51953,0.12988-0.74902,0.12988c-0.66016,0-1.13965-0.37012-1.13965-1.23926
		v-3.18848h-0.81934v-0.58008h0.81934v-1.37891l0.68945-0.51953v1.89844h1.18945v0.58008h-1.18945v3.09766
		c0,0.48047,0.21973,0.7002,0.61035,0.7002c0.16992,0,0.35938-0.04004,0.5791-0.11035L38.60225,109.37598z"/>
	<path d="M39.8542,102.45898h0.7998v1.01953h-0.7998V102.45898z M39.91377,104.49805h0.68945v4.92773h-0.68945V104.49805z"/>
	<path d="M44.47236,109.37598c-0.25977,0.0791-0.51953,0.12988-0.74902,0.12988c-0.66016,0-1.13965-0.37012-1.13965-1.23926
		v-3.18848h-0.81934v-0.58008h0.81934v-1.37891l0.68945-0.51953v1.89844h1.18945v0.58008h-1.18945v3.09766
		c0,0.48047,0.21973,0.7002,0.61035,0.7002c0.16992,0,0.35938-0.04004,0.5791-0.11035L44.47236,109.37598z"/>
	<path d="M45.74287,108.35645v-5.89746h0.69043v5.85742c0,0.33984,0.11914,0.55957,0.44922,0.55957
		c0.15039,0,0.32031-0.04004,0.46973-0.08984l0.00977,0.58984c-0.20996,0.06934-0.45898,0.12988-0.67969,0.12988
		C46.11299,109.50586,45.74287,109.12598,45.74287,108.35645z"/>
	<path d="M52.38154,107.14648h-3.6084c0.02051,1.08008,0.62012,1.72949,1.58887,1.72949c0.54004,0,0.96973-0.13965,1.41992-0.62012
		l0.47949,0.41992c-0.58008,0.60938-1.14941,0.83008-1.90918,0.83008c-1.49902,0-2.26855-1.12012-2.26855-2.51855
		c0-1.38965,0.75977-2.56934,2.18848-2.56934c1.50977,0,2.13867,1.17969,2.13867,2.29883
		C52.41084,106.85742,52.40107,107.02637,52.38154,107.14648z M48.77314,106.56738h2.97852
		c0-0.02051-0.00977-0.07031-0.00977-0.16016c-0.0498-0.7998-0.55957-1.40918-1.46973-1.40918
		C49.38252,104.99805,48.83369,105.69727,48.77314,106.56738z"/>
</g>
<g>
	<path d="M67.65332,21.70215h1.98828c1.47949,0,2.29883,0.69971,2.29883,1.94922c0,1.26904-0.8291,1.97852-2.29883,1.97852h-1.2793
		v3.03857h-0.70898C67.65333,28.66846,67.65333,21.70215,67.65332,21.70215z M69.57227,24.9707
		c1.08887,0,1.64844-0.4502,1.64844-1.30957s-0.55957-1.29932-1.64844-1.29932H68.3623v2.60889H69.57227z"/>
	<path d="M76.20215,23.87109l-0.33984,0.55957c-0.23047-0.09961-0.44043-0.1499-0.65039-0.1499
		c-0.75879,0-1.31934,0.56982-1.31934,1.63916v2.74854h-0.68945v-4.92725h0.68945v0.73975
		c0.36035-0.6499,0.95996-0.81982,1.45996-0.81982C75.65234,23.66113,75.93164,23.72119,76.20215,23.87109z"/>
	<path d="M76.34277,26.19971c0-1.45898,0.9502-2.53857,2.35938-2.53857c1.39844,0,2.36816,1.07959,2.36816,2.53857
		c0,1.44922-0.95898,2.54883-2.36816,2.54883S76.34277,27.65918,76.34277,26.19971z M80.38086,26.19971
		c0-1.11914-0.62988-1.92871-1.67871-1.92871c-1.05957,0-1.66992,0.81934-1.66992,1.92871
		c0,1.11963,0.62012,1.93896,1.66992,1.93896C79.76074,28.13867,80.38086,27.29932,80.38086,26.19971z"/>
	<path d="M86.9707,26.19971c0,1.46924-0.75,2.54883-2.18848,2.54883c-0.71973,0-1.26953-0.27979-1.62988-0.73975v2.69873h-0.68945
		v-6.96631h0.68945v0.65967c0.37012-0.47998,0.92969-0.74951,1.62988-0.74951C86.15137,23.65137,86.9707,24.66064,86.9707,26.19971z
		 M86.28125,26.19971c0-1.16943-0.59961-1.93896-1.59961-1.93896c-0.98926,0-1.58887,0.76953-1.58887,1.93896
		c0,1.11963,0.5498,1.93896,1.58887,1.93896C85.73145,28.13867,86.28125,27.31934,86.28125,26.19971z"/>
	<path d="M87.97266,26.19971c0-1.45898,0.9502-2.53857,2.35938-2.53857c1.39844,0,2.36816,1.07959,2.36816,2.53857
		c0,1.44922-0.95898,2.54883-2.36816,2.54883S87.97266,27.65918,87.97266,26.19971z M92.01074,26.19971
		c0-1.11914-0.62988-1.92871-1.67871-1.92871c-1.05957,0-1.66992,0.81934-1.66992,1.92871
		c0,1.11963,0.62012,1.93896,1.66992,1.93896C91.39062,28.13867,92.01074,27.29932,92.01074,26.19971z"/>
	<path d="M97.0918,23.87109l-0.33984,0.55957c-0.23047-0.09961-0.44043-0.1499-0.65039-0.1499
		c-0.75879,0-1.31836,0.56982-1.31836,1.63916v2.74854h-0.69043v-4.92725h0.69043v0.73975
		c0.35938-0.6499,0.95898-0.81982,1.45898-0.81982C96.54199,23.66113,96.82129,23.72119,97.0918,23.87109z"/>
	<path d="M100.41113,28.61865c-0.25977,0.07959-0.51953,0.12988-0.74902,0.12988c-0.66016,0-1.13965-0.37012-1.13965-1.23926
		V24.3208h-0.81934v-0.57959h0.81934v-1.37939l0.68945-0.51953v1.89893h1.18945v0.57959h-1.18945v3.09814
		c0,0.47998,0.21973,0.69971,0.61035,0.69971c0.16992,0,0.35938-0.04004,0.5791-0.10986L100.41113,28.61865z"/>
	<path d="M101.66211,21.70215h0.7998v1.01953h-0.7998V21.70215z M101.72168,23.74121h0.69043v4.92725h-0.69043V23.74121z"/>
	<path d="M103.80273,26.19971c0-1.45898,0.9502-2.53857,2.35938-2.53857c1.39844,0,2.36816,1.07959,2.36816,2.53857
		c0,1.44922-0.95898,2.54883-2.36816,2.54883S103.80273,27.65918,103.80273,26.19971z M107.84082,26.19971
		c0-1.11914-0.62988-1.92871-1.67871-1.92871c-1.05957,0-1.66992,0.81934-1.66992,1.92871
		c0,1.11963,0.62012,1.93896,1.66992,1.93896C107.2207,28.13867,107.84082,27.29932,107.84082,26.19971z"/>
	<path d="M113.84961,25.6499v3.01855h-0.68945v-2.84863c0-1.05908-0.33984-1.54883-1.0791-1.54883
		c-0.92969,0-1.46973,0.79932-1.46973,2.18848v2.20898h-0.68945V23.7412h0.68945v0.71973c0.32031-0.5,0.91992-0.7998,1.62988-0.7998
		C113.30078,23.66113,113.84961,24.34082,113.84961,25.6499z"/>
	<path d="M71.93066,38.19971c0,1.46924-0.75,2.54883-2.18848,2.54883c-0.71973,0-1.26953-0.27979-1.62891-0.73975v0.65967h-0.69043
		v-6.96631h0.69043v2.69873c0.36914-0.47998,0.92871-0.74951,1.62891-0.74951
		C71.11133,35.65137,71.93066,36.66064,71.93066,38.19971z M71.24121,38.19971c0-1.16943-0.59961-1.93896-1.59961-1.93896
		c-0.98926,0-1.58887,0.76953-1.58887,1.93896c0,1.11963,0.5498,1.93896,1.58887,1.93896
		C70.69141,40.13867,71.24121,39.31934,71.24121,38.19971z"/>
	<path d="M77.26074,38.38965h-3.6084c0.02051,1.07959,0.62012,1.729,1.58887,1.729c0.54004,0,0.96973-0.13965,1.41992-0.61963
		l0.47949,0.41992c-0.58008,0.60938-1.14941,0.82959-1.90918,0.82959c-1.49902,0-2.26855-1.11963-2.26855-2.51855
		c0-1.38965,0.75977-2.56885,2.18848-2.56885c1.50977,0,2.13867,1.1792,2.13867,2.29883
		C77.29004,38.1001,77.28027,38.26953,77.26074,38.38965z M73.65234,37.81006h2.97852c0-0.02002-0.00977-0.06982-0.00977-0.16016
		c-0.0498-0.79932-0.55957-1.40918-1.46973-1.40918C74.26172,36.24072,73.71289,36.94043,73.65234,37.81006z"/>
	<path d="M80.73145,40.61865c-0.25977,0.07959-0.51953,0.12988-0.74902,0.12988c-0.66016,0-1.13965-0.37012-1.13965-1.23926V36.3208
		h-0.81934v-0.57959h0.81934v-1.37939l0.68945-0.51953v1.89893h1.18945v0.57959h-1.18945v3.09814
		c0,0.47998,0.21973,0.69971,0.61035,0.69971c0.16992,0,0.35938-0.04004,0.5791-0.10986L80.73145,40.61865z"/>
	<path d="M81.51367,35.74121h0.73926l1.05957,3.8877l1.29883-3.8877h0.62988l1.28906,3.8877l1.06934-3.8877h0.72949
		l-1.43848,4.92725h-0.65039l-1.30859-3.97803l-1.3291,3.97803H82.9629L81.51367,35.74121z"/>
	<path d="M93.33105,38.38965h-3.6084c0.02051,1.07959,0.62012,1.729,1.58887,1.729c0.54004,0,0.96973-0.13965,1.41992-0.61963
		l0.47949,0.41992c-0.58008,0.60938-1.14941,0.82959-1.90918,0.82959c-1.49902,0-2.26855-1.11963-2.26855-2.51855
		c0-1.38965,0.75977-2.56885,2.18848-2.56885c1.50977,0,2.13867,1.1792,2.13867,2.29883
		C93.36035,38.1001,93.35059,38.26953,93.33105,38.38965z M89.72266,37.81006h2.97852c0-0.02002-0.00977-0.06982-0.00977-0.16016
		c-0.0498-0.79932-0.55957-1.40918-1.46973-1.40918C90.33203,36.24072,89.7832,36.94043,89.72266,37.81006z"/>
	<path d="M98.65137,38.38965h-3.6084c0.02051,1.07959,0.62012,1.729,1.58887,1.729c0.54004,0,0.96973-0.13965,1.41992-0.61963
		l0.47949,0.41992c-0.58008,0.60938-1.14941,0.82959-1.90918,0.82959c-1.49902,0-2.26855-1.11963-2.26855-2.51855
		c0-1.38965,0.75977-2.56885,2.18848-2.56885c1.50977,0,2.13867,1.1792,2.13867,2.29883
		C98.68066,38.1001,98.6709,38.26953,98.65137,38.38965z M95.04297,37.81006h2.97852c0-0.02002-0.00977-0.06982-0.00977-0.16016
		c-0.0498-0.79932-0.55957-1.40918-1.46973-1.40918C95.65234,36.24072,95.10352,36.94043,95.04297,37.81006z"/>
	<path d="M104,37.6499v3.01855h-0.68945v-2.84863c0-1.05908-0.33984-1.54883-1.0791-1.54883
		c-0.92969,0-1.46973,0.79932-1.46973,2.18848v2.20898h-0.68945V35.7412h0.68945v0.71973c0.32031-0.5,0.91992-0.7998,1.62988-0.7998
		C103.45117,35.66113,104,36.34082,104,37.6499z"/>
	<path d="M69.47168,52.61865c-0.25977,0.07959-0.51953,0.12988-0.74902,0.12988c-0.66016,0-1.13965-0.37012-1.13965-1.23926V48.3208
		h-0.81934v-0.57959h0.81934v-1.37939l0.68945-0.51953v1.89893h1.18945v0.57959h-1.18945v3.09814
		c0,0.47998,0.21973,0.69971,0.61035,0.69971c0.16992,0,0.35938-0.04004,0.5791-0.10986L69.47168,52.61865z"/>
	<path d="M74.71094,49.6499v3.01855h-0.68945v-2.84863c0-1.06934-0.33984-1.54883-1.0791-1.54883
		c-0.93945,0-1.46973,0.76953-1.46973,2.12891v2.26855H70.7832v-6.96631h0.68945v2.75879c0.32031-0.5,0.91992-0.7998,1.62988-0.7998
		C74.16211,47.66113,74.71094,48.34082,74.71094,49.6499z"/>
	<path d="M80.31152,50.38965h-3.6084c0.02051,1.07959,0.62012,1.729,1.58887,1.729c0.54004,0,0.96973-0.13965,1.41992-0.61963
		l0.47949,0.41992c-0.58008,0.60938-1.14941,0.82959-1.90918,0.82959c-1.49902,0-2.26855-1.11963-2.26855-2.51855
		c0-1.38965,0.75977-2.56885,2.18848-2.56885c1.50977,0,2.13867,1.1792,2.13867,2.29883
		C80.34082,50.1001,80.33105,50.26953,80.31152,50.38965z M76.70312,49.81006h2.97852c0-0.02002-0.00977-0.06982-0.00977-0.16016
		c-0.0498-0.79932-0.55957-1.40918-1.46973-1.40918C77.3125,48.24072,76.76367,48.94043,76.70312,49.81006z"/>
	<path d="M86.51172,52.61865c-0.25977,0.07959-0.51953,0.12988-0.74902,0.12988c-0.66016,0-1.13965-0.37012-1.13965-1.23926V48.3208
		H83.8037v-0.57959h0.81934v-1.37939l0.68945-0.51953v1.89893h1.18945v0.57959H85.3125v3.09814
		c0,0.47998,0.21973,0.69971,0.61035,0.69971c0.16992,0,0.35938-0.04004,0.5791-0.10986L86.51172,52.61865z"/>
	<path d="M89.23145,52.6084l-2.08887-4.86719h0.75977l1.69922,4.05762l1.48926-4.05762h0.75977l-2.69922,6.96631h-0.73926
		L89.23145,52.6084z"/>
	<path d="M97.48047,50.19971c0,1.46924-0.75,2.54883-2.18848,2.54883c-0.71973,0-1.26953-0.27979-1.62988-0.73975v2.69873h-0.68945
		v-6.96631h0.68945v0.65967c0.37012-0.47998,0.92969-0.74951,1.62988-0.74951
		C96.66113,47.65137,97.48047,48.66064,97.48047,50.19971z M96.79102,50.19971c0-1.16943-0.59961-1.93896-1.59961-1.93896
		c-0.98926,0-1.58887,0.76953-1.58887,1.93896c0,1.11963,0.5498,1.93896,1.58887,1.93896
		C96.24121,52.13867,96.79102,51.31934,96.79102,50.19971z"/>
	<path d="M102.81055,50.38965h-3.6084c0.02051,1.07959,0.62012,1.729,1.58887,1.729c0.54004,0,0.96973-0.13965,1.41992-0.61963
		l0.47949,0.41992c-0.58008,0.60938-1.14941,0.82959-1.90918,0.82959c-1.49902,0-2.26855-1.11963-2.26855-2.51855
		c0-1.38965,0.75977-2.56885,2.18848-2.56885c1.50977,0,2.13867,1.1792,2.13867,2.29883
		C102.83984,50.1001,102.83008,50.26953,102.81055,50.38965z M99.20215,49.81006h2.97852c0-0.02002-0.00977-0.06982-0.00977-0.16016
		c-0.0498-0.79932-0.55957-1.40918-1.46973-1.40918C99.81152,48.24072,99.2627,48.94043,99.20215,49.81006z"/>
	<path d="M103.70312,51.45898l0.58008-0.25977c0.17969,0.50977,0.65918,0.93945,1.42871,0.93945
		c0.66992,0,1.09961-0.32959,1.09961-0.84961c0-1.30908-2.83887-0.48975-2.83887-2.23877c0-0.85938,0.7002-1.38916,1.68945-1.38916
		c0.78906,0,1.42871,0.33008,1.76855,1.0293l-0.5498,0.2998c-0.23926-0.43945-0.62891-0.71924-1.23926-0.71924
		c-0.60938,0-0.99902,0.24951-0.99902,0.67969c0,1.16895,2.84863,0.42969,2.84863,2.29834
		c0,0.99951-0.81934,1.49951-1.76953,1.49951C104.75293,52.74854,103.96289,52.24854,103.70312,51.45898z"/>
	<path d="M66.99316,62.19922c0-1.45898,0.9502-2.53809,2.35938-2.53809c1.39844,0,2.36816,1.0791,2.36816,2.53809
		c0,1.44922-0.95898,2.54883-2.36816,2.54883S66.99316,63.65918,66.99316,62.19922z M71.03125,62.19922
		c0-1.11914-0.62988-1.92871-1.67871-1.92871c-1.05957,0-1.66992,0.81934-1.66992,1.92871
		c0,1.12012,0.62012,1.93945,1.66992,1.93945C70.41113,64.13867,71.03125,63.29883,71.03125,62.19922z"/>
	<path d="M73.41211,60.32031h-1.03906v-0.5791h1.0498v-0.75977c0-1.04932,0.60938-1.35889,1.23926-1.35889
		c0.26953,0,0.56934,0.05957,0.87891,0.18945l-0.23926,0.54932c-0.20996-0.09961-0.40039-0.15918-0.57031-0.15918
		c-0.38965,0-0.62891,0.26953-0.62891,0.72949v0.80957h1.41895v0.5791h-1.41895v4.34766H73.4121
		C73.4121,64.66795,73.4121,60.32031,73.41211,60.32031z"/>
	<path d="M81.38184,64.61816c-0.25977,0.08008-0.51953,0.12988-0.74902,0.12988c-0.66016,0-1.13965-0.37012-1.13965-1.23926V60.3203
		h-0.81934v-0.5791h0.81934v-1.37988l0.68945-0.51904v1.89893h1.18945v0.5791h-1.18945v3.09863
		c0,0.47949,0.21973,0.69922,0.61035,0.69922c0.16992,0,0.35938-0.04004,0.5791-0.10938L81.38184,64.61816z"/>
	<path d="M86.54102,62.38965h-3.6084c0.02051,1.0791,0.62012,1.72852,1.58887,1.72852c0.54004,0,0.96973-0.13965,1.41992-0.61914
		l0.47949,0.41992c-0.58008,0.60938-1.14941,0.8291-1.90918,0.8291c-1.49902,0-2.26855-1.11914-2.26855-2.51855
		c0-1.38965,0.75977-2.56836,2.18848-2.56836c1.50977,0,2.13867,1.17871,2.13867,2.29883
		C86.57031,62.09961,86.56055,62.26953,86.54102,62.38965z M82.93262,61.80957h2.97852c0-0.01953-0.00977-0.06934-0.00977-0.16016
		c-0.0498-0.79883-0.55957-1.40918-1.46973-1.40918C83.54199,60.24023,82.99316,60.94043,82.93262,61.80957z"/>
	<path d="M89.1123,62.19922l-1.79883-2.45801h0.83984l1.41895,1.97852l1.40918-1.97852h0.83984l-1.79883,2.45801l1.80859,2.46875
		h-0.84961l-1.40918-1.99902l-1.40918,1.99902h-0.84961L89.1123,62.19922z"/>
	<path d="M95.0918,64.61816c-0.25977,0.08008-0.51953,0.12988-0.74902,0.12988c-0.66016,0-1.13965-0.37012-1.13965-1.23926V60.3203
		h-0.81934v-0.5791h0.81934v-1.37988l0.68945-0.51904v1.89893h1.18945v0.5791h-1.18945v3.09863
		c0,0.47949,0.21973,0.69922,0.61035,0.69922c0.16992,0,0.35938-0.04004,0.5791-0.10938L95.0918,64.61816z"/>
</g>
</svg>
