<svg id="Layer_1" data-name="Layer 1" xmlns="http://www.w3.org/2000/svg" xmlns:xlink="http://www.w3.org/1999/xlink" viewBox="0 0 132.22501 121.60001">
  <g id="dubitareColor">
    <g>
      <polygon points="126.932 76.831 126.932 28.086 126.874 28.086 126.874 25.64 122.71 25.64 122.71 22.394 122.638 22.394 122.638 19.538 118.4 19.538 114.325 19.538 114.325 16.574 114.162 16.574 114.162 13.865 102.98 13.865 102.98 26.339 102.98 33.327 102.98 39.686 94.577 39.686 94.577 39.832 94.411 39.832 94.411 53.056 82.408 53.056 20.831 53.056 20.831 49.698 16.615 49.698 16.615 4.024 16.58 4.024 16.58 1.113 5.399 1.113 5.399 4.024 5.376 4.024 5.376 88.569 1.113 88.569 1.113 88.632 1.113 95.135 1.113 99.547 1.113 106.598 1.113 120.487 5.399 120.487 9.649 120.487 12.293 120.487 13.946 120.487 16.58 120.487 18.232 120.487 20.831 120.487 25.126 120.487 94.577 120.487 98.759 120.487 101.536 120.487 102.98 120.487 105.757 120.487 107.218 120.487 109.94 120.487 111.457 120.487 114.162 120.487 115.694 120.487 118.4 120.487 119.932 120.487 122.638 120.487 126.874 120.487 131.113 120.487 131.113 117.78 131.113 96.233 131.113 96.105 131.113 81.428 131.113 76.831 126.932 76.831" fill="#fffff2"/>
      <g>
        <polygon points="126.932 76.831 126.932 28.086 126.874 28.086 126.874 25.64 122.71 25.64 122.71 22.394 122.638 22.394 122.638 19.538 118.4 19.538 114.325 19.538 114.325 16.574 114.162 16.574 114.162 13.865 102.98 13.865 102.98 26.339 102.98 33.327 102.98 39.686 94.577 39.686 94.577 39.832 94.411 39.832 94.411 53.056 82.408 53.056 20.831 53.056 20.831 49.698 16.615 49.698 16.615 4.024 16.58 4.024 16.58 1.113 5.399 1.113 5.399 4.024 5.376 4.024 5.376 88.569 1.113 88.569 1.113 88.632 1.113 95.135 1.113 99.547 1.113 106.598 1.113 120.487 5.399 120.487 9.649 120.487 12.293 120.487 13.946 120.487 16.58 120.487 18.232 120.487 20.831 120.487 25.126 120.487 94.577 120.487 98.759 120.487 101.536 120.487 102.98 120.487 105.757 120.487 107.218 120.487 109.94 120.487 111.457 120.487 114.162 120.487 115.694 120.487 118.4 120.487 119.932 120.487 122.638 120.487 126.874 120.487 131.113 120.487 131.113 117.78 131.113 96.233 131.113 96.105 131.113 81.428 131.113 76.831 126.932 76.831" fill="none" stroke="#fff" stroke-miterlimit="10" stroke-width="2.225"/>
      </g>
      <rect x="4.569" y="92.02601" width="4.268" height="11.114" fill="#5bbe9e"/>
      <rect x="4.569" y="103.00401" width="4.268" height="14.026" fill="#bbbdfa"/>
      <polyline points="4.57 95.135 4.57 92.089 8.838 92.089 8.838 95.135" fill="#f6c946"/>
      <rect x="8.855" y="76.50701" width="4.268" height="40.523" fill="#bbbdfa"/>
      <polyline points="8.856 117.03 8.856 76.507 13.124 76.507 13.124 117.03" fill="#bbbdfa"/>
      <rect x="8.855" y="36.005" width="4.268" height="40.523" fill="#5bbe9e"/>
      <rect x="8.855" y="4.56901" width="4.268" height="31.547" fill="#f6c946"/>
      <rect x="13.105" y="86.66201" width="4.268" height="30.368" fill="#bbbdfa"/>
      <rect x="13.105" y="53.15401" width="4.268" height="8.038" fill="#bbbdfa"/>
      <rect x="13.105" y="53.15401" width="4.268" height="8.038" fill="#f6c946"/>
      <rect x="13.105" y="61.145" width="4.268" height="25.509" fill="#5bbe9e"/>
      <rect x="17.402" y="104.62801" width="4.268" height="12.402" fill="#bbbdfa"/>
      <rect x="17.402" y="90.94201" width="4.268" height="3.282" fill="#f6c946"/>
      <rect x="17.402" y="94.20601" width="4.268" height="10.418" fill="#5bbe9e"/>
      <rect x="21.688" y="56.512" width="76.389" height="60.518" fill="#bbbdfa"/>
      <rect x="21.688" y="56.51301" width="76.389" height="33.368" fill="#f6c946"/>
      <rect x="21.688" y="89.88101" width="76.389" height="4.927" fill="#5bbe9e"/>
      <rect x="67.99001" y="89.88101" width="30.087" height="4.927" fill="#51a98f"/>
      <rect x="85.86501" y="56.51301" width="12.212" height="33.368" fill="#dcb53f"/>
      <rect x="85.86501" y="80.72301" width="12.212" height="9.158" fill="#c7a237"/>
      <rect x="98.033" y="81.90301" width="4.268" height="35.127" fill="#bbbdfa"/>
      <rect x="98.033" y="43.14301" width="4.268" height="9.298" fill="#bbbdfa"/>
      <rect x="98.033" y="43.14301" width="4.268" height="9.298" fill="#f6c946"/>
      <rect x="98.033" y="52.386" width="4.268" height="29.507" fill="#5bbe9e"/>
      <rect x="102.215" y="91.90501" width="4.268" height="25.125" fill="#bbbdfa"/>
      <rect x="102.215" y="64.18301" width="4.268" height="6.65" fill="#bbbdfa"/>
      <rect x="102.215" y="64.18301" width="4.268" height="6.65" fill="#f6c946"/>
      <rect x="102.215" y="70.79401" width="4.268" height="21.104" fill="#5bbe9e"/>
      <rect x="106.437" y="69.62701" width="4.268" height="47.403" fill="#bbbdfa"/>
      <rect x="106.437" y="17.32201" width="4.268" height="12.548" fill="#bbbdfa"/>
      <rect x="106.437" y="17.32201" width="4.268" height="12.548" fill="#f6c946"/>
      <rect x="106.437" y="29.79601" width="4.268" height="73.709" fill="#5bbe9e"/>
      <rect x="110.675" y="72.32401" width="4.268" height="44.706" fill="#bbbdfa"/>
      <rect x="110.675" y="22.994" width="4.268" height="11.834" fill="#bbbdfa"/>
      <rect x="110.675" y="22.99401" width="4.268" height="31.963" fill="#f6c946"/>
      <rect x="110.675" y="34.757" width="4.268" height="75.344" fill="#5bbe9e"/>
      <rect x="114.913" y="72.32401" width="4.267" height="44.706" fill="#bbbdfa"/>
      <rect x="114.913" y="22.99401" width="4.267" height="31.963" fill="#f6c946"/>
      <rect x="114.913" y="34.757" width="4.267" height="75.344" fill="#5bbe9e"/>
      <rect x="119.15" y="112.45501" width="4.268" height="4.575" fill="#bbbdfa"/>
      <rect x="119.15" y="29.09701" width="4.268" height="41.537" fill="#f6c946"/>
      <rect x="119.15" y="70.70201" width="4.268" height="42.841" fill="#5bbe9e"/>
      <rect x="123.388" y="99.56201" width="4.268" height="17.468" fill="#bbbdfa"/>
      <rect x="123.388" y="80.28801" width="4.268" height="12.488" fill="#f6c946"/>
      <rect x="123.388" y="84.88501" width="4.268" height="29.438" fill="#5bbe9e"/>
      <line x1="8.8333" y1="4.02431" x2="8.8333" y2="116.94931" fill="none" stroke="#fff" stroke-miterlimit="10" stroke-width="0.43"/>
      <line x1="13.1566" y1="4.02431" x2="13.1566" y2="116.94931" fill="none" stroke="#fff" stroke-miterlimit="10" stroke-width="0.43"/>
      <line x1="17.3362" y1="51.9305" x2="17.3362" y2="116.9495" fill="none" stroke="#fff" stroke-miterlimit="10" stroke-width="0.43"/>
      <line x1="21.6605" y1="54.9276" x2="21.6605" y2="117.37661" fill="none" stroke="#fff" stroke-miterlimit="10" stroke-width="0.43"/>
      <line x1="97.8675" y1="39.83191" x2="97.8675" y2="117.37691" fill="none" stroke="#fff" stroke-miterlimit="10" stroke-width="0.43"/>
      <line x1="102.2298" y1="40.079" x2="102.2298" y2="117.377" fill="none" stroke="#fff" stroke-miterlimit="10" stroke-width="0.43"/>
      <line x1="106.5921" y1="16.5751" x2="106.5921" y2="117.37711" fill="none" stroke="#fff" stroke-miterlimit="10" stroke-width="0.43"/>
      <line x1="110.8675" y1="16.5751" x2="110.8675" y2="117.37711" fill="none" stroke="#fff" stroke-miterlimit="10" stroke-width="0.43"/>
      <line x1="115.3157" y1="22.39441" x2="115.3157" y2="117.37641" fill="none" stroke="#fff" stroke-miterlimit="10" stroke-width="0.43"/>
      <line x1="119.2542" y1="22.39441" x2="119.2542" y2="117.37641" fill="none" stroke="#fff" stroke-miterlimit="10" stroke-width="0.43"/>
      <line x1="123.4749" y1="28.08581" x2="123.4749" y2="117.37681" fill="none" stroke="#fff" stroke-miterlimit="10" stroke-width="0.43"/>
    </g>
  </g>
</svg>
