<svg xmlns="http://www.w3.org/2000/svg" xmlns:xlink="http://www.w3.org/1999/xlink" width="900" height="141" viewBox="0 0 900 141">
  <defs>
    <clipPath id="clip-zoom-03">
      <rect width="900" height="141"/>
    </clipPath>
  </defs>
  <g id="zoom-03" clip-path="url(#clip-zoom-03)">
    <g id="Raggruppa_24065" data-name="Raggruppa 24065" transform="translate(8.621 181.858)">
      <g id="Layer_1" data-name="Layer 1" transform="translate(-8.004 -181.858)">
        <path id="Tracciato_148081" data-name="Tracciato 148081" d="M893.883-48.846h.5v.573h-.567v-.286h.283v.286h-.218Zm-305.148,0H893.316v.573H588.735Zm-1.7,0h.567v.573h-.567Zm-1.7,0h.567v.573h-.567Zm-1.7,0h.567v.573h-.567Zm-1.7,0h.567v.573h-.567Zm-1.7,0h.567v.573h-.567Zm-1.7,0h.567v.573h-.567Zm-1.7,0h.567v.573h-.567Zm-1.7,0h.567v.573h-.567Zm-1.7,0h.567v.573h-.567Zm-1.7,0h.567v.573h-.567Zm-1.7,0h.567v.573h-.567Zm-1.7,0h.567v.573h-.567Zm-1.7,0h.567v.573h-.567Zm-1.7,0h.567v.573h-.567Zm-1.7,0h.567v.573h-.567Zm-1.7,0h.567v.573h-.567Zm-1.7,0h.567v.573h-.567Zm-1.7,0h.567v.573h-.567Zm-1.7,0h.567v.573h-.567Zm-1.7,0h.567v.573h-.567Zm-1.7,0h.567v.573h-.567Zm-1.7,0h.567v.573h-.567Zm-1.7,0h.567v.573h-.567Zm-143.272,0H548.48v.573H406.342Zm-1.7,0h.567v.573h-.567Zm-1.7,0h.568v.573h-.568Zm-1.7,0h.567v.573h-.567Zm-1.7,0h.568v.573h-.568Zm-1.7,0h.567v.573h-.567Zm-1.7,0h.568v.573h-.568Zm-1.7,0H395v.573h-.567Zm-1.7,0h.568v.573h-.568Zm-1.7,0h.567v.573h-.567Zm-1.7,0h.568v.573h-.568Zm-1.7,0h.567v.573h-.567Zm-1.7,0h.568v.573h-.568Zm-1.7,0h.567v.573h-.567Zm-1.7,0h.568v.573h-.568Zm-1.7,0h.567v.573h-.567Zm-1.7,0h.568v.573h-.568Zm-1.7,0h.567v.573h-.567Zm-1.7,0h.568v.573h-.568Zm-1.7,0h.567v.573h-.567Zm-1.7,0h.568v.573h-.568Zm-1.7,0h.567v.573h-.567Zm-1.7,0h.568v.573h-.568Zm-1.7,0h.567v.573h-.567Zm-305.714,0H366.088v.573H61.508Zm-1.7,0h.568v.573h-.568Zm-1.7,0h.567v.573h-.567Zm-1.7,0h.568v.573H56.4Zm-1.7,0h.567v.573H54.7Zm-1.7,0h.568v.573H53Zm-1.7,0h.567v.573H51.3Zm-1.7,0h.568v.573H49.6Zm-1.7,0h.567v.573H47.9Zm-1.7,0h.568v.573H46.2Zm-1.7,0h.567v.573H44.5Zm-1.7,0h.568v.573H42.8Zm-1.7,0h.567v.573H41.1Zm-1.7,0h.568v.573H39.4Zm-1.7,0h.567v.573H37.7Zm-1.7,0h.568v.573h-.568Zm-1.7,0h.567v.573h-.567Zm-1.7,0h.568v.573h-.568Zm-1.7,0h.567v.573h-.567Zm-1.7,0h.568v.573H29.19Zm-1.7,0h.567v.573H27.49Zm-1.7,0h.568v.573h-.568Zm-1.7,0h.567v.573h-.567Zm-1.7,0h.568v.573h-.568Zm-1.7.573v-.573h.567v.573h-.284v-.286h.284v.286Z" transform="translate(5.998 167.287)"/>
        <line id="Linea_7830" data-name="Linea 7830" y2="3.436" transform="translate(26.971 118.441)" fill="none" stroke="#000" stroke-width="0.5"/>
        <line id="Linea_7831" data-name="Linea 7831" y2="3.436" transform="translate(67.993 118.441)" fill="none" stroke="#000" stroke-width="0.5"/>
        <line id="Linea_7832" data-name="Linea 7832" y2="3.436" transform="translate(109.015 118.441)" fill="none" stroke="#000" stroke-width="0.5"/>
        <line id="Linea_7833" data-name="Linea 7833" y2="3.436" transform="translate(150.037 118.441)" fill="none" stroke="#000" stroke-width="0.5"/>
        <line id="Linea_7834" data-name="Linea 7834" y2="3.436" transform="translate(189.199 118.441)" fill="none" stroke="#000" stroke-width="0.5"/>
        <line id="Linea_7835" data-name="Linea 7835" y2="3.436" transform="translate(229.822 118.441)" fill="none" stroke="#000" stroke-width="0.5"/>
        <line id="Linea_7836" data-name="Linea 7836" y2="3.436" transform="translate(270.445 118.441)" fill="none" stroke="#000" stroke-width="0.5"/>
        <line id="Linea_7837" data-name="Linea 7837" y2="3.436" transform="translate(311.068 118.441)" fill="none" stroke="#000" stroke-width="0.5"/>
        <line id="Linea_7838" data-name="Linea 7838" y2="3.436" transform="translate(351.691 118.441)" fill="none" stroke="#000" stroke-width="0.5"/>
        <line id="Linea_7839" data-name="Linea 7839" y2="3.436" transform="translate(392.314 118.441)" fill="none" stroke="#000" stroke-width="0.5"/>
        <line id="Linea_7840" data-name="Linea 7840" y2="3.436" transform="translate(432.936 118.441)" fill="none" stroke="#000" stroke-width="0.5"/>
        <line id="Linea_7841" data-name="Linea 7841" y2="3.436" transform="translate(473.559 118.441)" fill="none" stroke="#000" stroke-width="0.5"/>
        <line id="Linea_7842" data-name="Linea 7842" y2="3.436" transform="translate(514.182 118.441)" fill="none" stroke="#000" stroke-width="0.5"/>
        <line id="Linea_7843" data-name="Linea 7843" y2="3.436" transform="translate(554.805 118.441)" fill="none" stroke="#000" stroke-width="0.5"/>
        <line id="Linea_7844" data-name="Linea 7844" y2="3.436" transform="translate(595.428 118.441)" fill="none" stroke="#000" stroke-width="0.5"/>
        <line id="Linea_7845" data-name="Linea 7845" y2="3.436" transform="translate(636.051 118.441)" fill="none" stroke="#000" stroke-width="0.5"/>
        <line id="Linea_7846" data-name="Linea 7846" y2="3.436" transform="translate(676.673 118.441)" fill="none" stroke="#000" stroke-width="0.5"/>
        <line id="Linea_7847" data-name="Linea 7847" y2="3.436" transform="translate(717.296 118.441)" fill="none" stroke="#000" stroke-width="0.5"/>
        <line id="Linea_7848" data-name="Linea 7848" y2="3.436" transform="translate(756.519 118.441)" fill="none" stroke="#000" stroke-width="0.5"/>
        <line id="Linea_7849" data-name="Linea 7849" y2="3.436" transform="translate(797.541 118.441)" fill="none" stroke="#000" stroke-width="0.5"/>
        <line id="Linea_7850" data-name="Linea 7850" y2="3.436" transform="translate(838.563 118.441)" fill="none" stroke="#000" stroke-width="0.5"/>
        <line id="Linea_7851" data-name="Linea 7851" y2="3.436" transform="translate(879.585 118.441)" fill="none" stroke="#000" stroke-width="0.5"/>
        <g id="Raggruppa_24066" data-name="Raggruppa 24066" transform="translate(15.6 125.376)">
          <text id="_1942" data-name="1942" transform="translate(0 10)" font-size="10" font-family="HKGrotesk-Regular, HK Grotesk"><tspan x="0" y="0">1942</tspan></text>
          <text id="_1944" data-name="1944" transform="translate(41.022 10)" font-size="10" font-family="HKGrotesk-Regular, HK Grotesk"><tspan x="0" y="0">1944</tspan></text>
          <text id="_1946" data-name="1946" transform="translate(82.044 10)" font-size="10" font-family="HKGrotesk-Regular, HK Grotesk"><tspan x="0" y="0">1946</tspan></text>
          <text id="_1948" data-name="1948" transform="translate(123.067 10)" font-size="10" font-family="HKGrotesk-Regular, HK Grotesk"><tspan x="0" y="0">1948</tspan></text>
          <text id="_1950" data-name="1950" transform="translate(162.403 10)" font-size="10" font-family="HKGrotesk-Regular, HK Grotesk"><tspan x="0" y="0">1950</tspan></text>
          <text id="_1952" data-name="1952" transform="translate(203.003 10)" font-size="10" font-family="HKGrotesk-Regular, HK Grotesk"><tspan x="0" y="0">1952</tspan></text>
          <text id="_1954" data-name="1954" transform="translate(243.604 10)" font-size="10" font-family="HKGrotesk-Regular, HK Grotesk"><tspan x="0" y="0">1954</tspan></text>
          <text id="_1956" data-name="1956" transform="translate(284.204 10)" font-size="10" font-family="HKGrotesk-Regular, HK Grotesk"><tspan x="0" y="0">1956</tspan></text>
          <text id="_1958" data-name="1958" transform="translate(324.806 10)" font-size="10" font-family="HKGrotesk-Regular, HK Grotesk"><tspan x="0" y="0">1958</tspan></text>
          <text id="_1960" data-name="1960" transform="translate(365.406 10)" font-size="10" font-family="HKGrotesk-Regular, HK Grotesk"><tspan x="0" y="0">1960</tspan></text>
          <text id="_1962" data-name="1962" transform="translate(406.007 10)" font-size="10" font-family="HKGrotesk-Regular, HK Grotesk"><tspan x="0" y="0">1962</tspan></text>
          <text id="_1964" data-name="1964" transform="translate(446.608 10)" font-size="10" font-family="HKGrotesk-Regular, HK Grotesk"><tspan x="0" y="0">1964</tspan></text>
          <text id="_1966" data-name="1966" transform="translate(487.208 10)" font-size="10" font-family="HKGrotesk-Regular, HK Grotesk"><tspan x="0" y="0">1966</tspan></text>
          <text id="_1968" data-name="1968" transform="translate(527.809 10)" font-size="10" font-family="HKGrotesk-Regular, HK Grotesk"><tspan x="0" y="0">1968</tspan></text>
          <text id="_1970" data-name="1970" transform="translate(568.409 10)" font-size="10" font-family="HKGrotesk-Regular, HK Grotesk"><tspan x="0" y="0">1970</tspan></text>
          <text id="_1972" data-name="1972" transform="translate(609.01 10)" font-size="10" font-family="HKGrotesk-Regular, HK Grotesk"><tspan x="0" y="0">1972</tspan></text>
          <text id="_1974" data-name="1974" transform="translate(649.611 10)" font-size="10" font-family="HKGrotesk-Regular, HK Grotesk"><tspan x="0" y="0">1974</tspan></text>
          <text id="_1976" data-name="1976" transform="translate(690.211 10)" font-size="10" font-family="HKGrotesk-Regular, HK Grotesk"><tspan x="0" y="0">1976</tspan></text>
          <text id="_1978" data-name="1978" transform="translate(729.548 10)" font-size="10" font-family="HKGrotesk-Regular, HK Grotesk"><tspan x="0" y="0">1978</tspan></text>
          <text id="_1980" data-name="1980" transform="translate(770.57 10)" font-size="10" font-family="HKGrotesk-Regular, HK Grotesk"><tspan x="0" y="0">1980</tspan></text>
          <text id="_1982" data-name="1982" transform="translate(811.592 10)" font-size="10" font-family="HKGrotesk-Regular, HK Grotesk"><tspan x="0" y="0">1982</tspan></text>
          <text id="_1984" data-name="1984" transform="translate(852.614 10)" font-size="10" font-family="HKGrotesk-Regular, HK Grotesk"><tspan x="0" y="0">1984</tspan></text>
        </g>
        <path id="Tracciato_148082" data-name="Tracciato 148082" d="M16.827-58.388H20.55v-80.18H16.827" transform="translate(6.421 177.116)" fill="none" stroke="#000" stroke-width="0.5"/>
        <line id="Linea_7852" data-name="Linea 7852" x1="3.436" transform="translate(23.248 118.728)" fill="none" stroke="#000" stroke-width="0.5"/>
        <text id="_0.00" data-name="0.00" transform="translate(0.383 120.385)" font-size="10" font-family="HKGrotesk-Regular, HK Grotesk"><tspan x="0" y="0">0.00</tspan></text>
        <line id="Linea_7853" data-name="Linea 7853" x1="3.436" transform="translate(23.248 107.274)" fill="none" stroke="#000" stroke-width="0.5"/>
        <line id="Linea_7854" data-name="Linea 7854" x1="3.436" transform="translate(23.248 95.819)" fill="none" stroke="#000" stroke-width="0.5"/>
        <text id="_0.10" data-name="0.10" transform="translate(0.383 97.476)" font-size="10" font-family="HKGrotesk-Regular, HK Grotesk"><tspan x="0" y="0">0.10</tspan></text>
        <line id="Linea_7855" data-name="Linea 7855" x1="3.436" transform="translate(23.248 84.365)" fill="none" stroke="#000" stroke-width="0.5"/>
        <line id="Linea_7856" data-name="Linea 7856" x1="3.436" transform="translate(23.248 72.911)" fill="none" stroke="#000" stroke-width="0.5"/>
        <text id="_0.20" data-name="0.20" transform="translate(0.383 74.568)" font-size="10" font-family="HKGrotesk-Regular, HK Grotesk"><tspan x="0" y="0">0.20</tspan></text>
        <line id="Linea_7857" data-name="Linea 7857" x1="3.436" transform="translate(23.248 61.457)" fill="none" stroke="#000" stroke-width="0.5"/>
        <line id="Linea_7858" data-name="Linea 7858" x1="3.436" transform="translate(23.248 50.002)" fill="none" stroke="#000" stroke-width="0.5"/>
        <text id="_0.30" data-name="0.30" transform="translate(0.383 51.659)" font-size="10" font-family="HKGrotesk-Regular, HK Grotesk"><tspan x="0" y="0">0.30</tspan></text>
        <line id="Linea_7859" data-name="Linea 7859" x1="3.436" transform="translate(23.248 38.548)" fill="none" stroke="#000" stroke-width="0.5"/>
        <path id="Tracciato_148083" data-name="Tracciato 148083" d="M20.686-55.218H61.3c10.152,0,10.152-51.8,20.3-51.8s10.152,44.48,20.3,44.48,10.153,3.672,20.306,3.672,10.152-4.52,20.3-4.52,10.152,1.435,20.306,1.435,10.152.893,20.3.893,10.152-18.781,20.3-18.781,10.153,16.091,20.306,16.091,10.152-.381,20.3-.381,10.152,1.291,20.306,1.291,10.152,2.086,20.3,2.086,10.152,5.531,20.3,5.531,10.152-5.445,20.306-5.445,10.152-7.426,20.3-7.426,10.152,2.568,20.3,2.568,10.153,10.3,20.306,10.3h20.3c10.152,0,10.152-8.862,20.306-8.862s10.152.807,20.3.807,10.152,3.063,20.3,3.063,10.153.063,20.306.063,10.152-2.763,20.3-2.763,10.152.449,20.306.449,10.152,1.338,20.3,1.338,10.152,3.19,20.3,3.19,10.152,2.715,20.306,2.715S599.385-66.4,609.538-66.4s10.153-.5,20.3-.5S640-70.059,650.149-70.059s10.152,8.715,20.3,8.715,10.152-8.235,20.306-8.235,10.152,9.605,20.3,9.605,10.152-2.334,20.3-2.334,10.153,4.2,20.306,4.2,10.152-8.334,20.3-8.334S782.132-62.6,792.285-62.6s10.152,2.4,20.3,2.4,10.152-2.712,20.3-2.712S843.049-64.89,853.2-64.89s10.152,3.053,20.3,3.053,10.152,6.619,20.306,6.619H20.686Z" transform="translate(5.998 173.659)" fill="none" stroke="#000" stroke-width="0.322" opacity="0.702"/>
        <path id="Tracciato_148084" data-name="Tracciato 148084" d="M20.686-55.674H61.3c10.152,0,10.152-55.5,20.3-55.5S91.754-65,101.906-65s10.153,3.751,20.306,3.751,10.152-2.84,20.3-2.84,10.152.731,20.306.731,10.152.843,20.3.843,10.152-19.6,20.3-19.6,10.153,16.919,20.306,16.919,10.152-.911,20.3-.911,10.152,2.811,20.306,2.811S274.5-61.2,284.654-61.2s10.152,5.531,20.3,5.531,10.152-8.449,20.306-8.449,10.152-5.475,20.3-5.475,10.152.309,20.3.309,10.153,13.614,20.306,13.614h20.3c10.152,0,10.152-15.286,20.306-15.286s10.152,5.8,20.3,5.8,10.152,4.5,20.3,4.5S477.554-63.4,487.707-63.4s10.152.035,20.3.035,10.152-.489,20.306-.489,10.152,1.529,20.3,1.529,10.152,1.742,20.3,1.742,10.152,4.91,20.306,4.91,10.153-12.219,20.3-12.219,10.153-4,20.3-4,10.153-.876,20.306-.876,10.152,10.148,20.3,10.148,10.152-7.924,20.306-7.924,10.152,9.5,20.3,9.5,10.152-8.377,20.3-8.377,10.153,5.962,20.306,5.962,10.152-4.1,20.3-4.1,10.152,4.509,20.306,4.509,10.152-.544,20.3-.544,10.152-2.96,20.3-2.96,10.153-.994,20.306-.994,10.152,4.255,20.3,4.255,10.152,7.62,20.306,7.62c-30.458-6.619-30.458-9.672-40.611-9.672s-10.153,1.981-20.306,1.981-10.152,2.712-20.3,2.712-10.152-2.4-20.3-2.4S782.132-66.9,771.98-66.9s-10.152,8.334-20.3,8.334-10.152-4.2-20.306-4.2-10.152,2.334-20.3,2.334-10.152-9.605-20.3-9.605S680.606-61.8,670.453-61.8s-10.152-8.715-20.3-8.715S640-67.352,629.843-67.352s-10.152.5-20.3.5-10.152,11.181-20.3,11.181-10.153-2.715-20.306-2.715-10.152-3.19-20.3-3.19-10.152-1.338-20.3-1.338-10.153-.449-20.306-.449-10.152,2.763-20.3,2.763-10.152-.063-20.306-.063-10.152-3.063-20.3-3.063-10.152-.807-20.3-.807-10.153,8.862-20.306,8.862h-20.3c-10.152,0-10.152-10.3-20.306-10.3s-10.152-2.568-20.3-2.568-10.152,7.426-20.3,7.426-10.153,5.445-20.306,5.445-10.152-5.531-20.3-5.531-10.152-2.086-20.3-2.086-10.153-1.291-20.306-1.291-10.152.381-20.3.381-10.152-16.091-20.306-16.091-10.152,18.781-20.3,18.781-10.152-.893-20.3-.893S152.67-63.84,142.517-63.84s-10.152,4.52-20.3,4.52-10.152-3.672-20.306-3.672-10.152-44.48-20.3-44.48-10.152,51.8-20.3,51.8H20.686Z" transform="translate(5.998 174.115)" fill="#f36"/>
        <path id="Tracciato_148085" data-name="Tracciato 148085" d="M20.686-55.674H61.3c10.152,0,10.152-55.5,20.3-55.5S91.754-65,101.906-65s10.153,3.751,20.306,3.751,10.152-2.84,20.3-2.84,10.152.731,20.306.731,10.152.843,20.3.843,10.152-19.6,20.3-19.6,10.153,16.919,20.306,16.919,10.152-.911,20.3-.911,10.152,2.811,20.306,2.811S274.5-61.2,284.654-61.2s10.152,5.531,20.3,5.531,10.152-8.449,20.306-8.449,10.152-5.475,20.3-5.475,10.152.309,20.3.309,10.153,13.614,20.306,13.614h20.3c10.152,0,10.152-15.286,20.306-15.286s10.152,5.8,20.3,5.8,10.152,4.5,20.3,4.5S477.554-63.4,487.707-63.4s10.152.035,20.3.035,10.152-.489,20.306-.489,10.152,1.529,20.3,1.529,10.152,1.742,20.3,1.742,10.152,4.91,20.306,4.91,10.153-12.219,20.3-12.219,10.153-4,20.3-4,10.153-.876,20.306-.876,10.152,10.148,20.3,10.148,10.152-7.924,20.306-7.924,10.152,9.5,20.3,9.5,10.152-8.377,20.3-8.377,10.153,5.962,20.306,5.962,10.152-4.1,20.3-4.1,10.152,4.509,20.306,4.509,10.152-.544,20.3-.544,10.152-2.96,20.3-2.96,10.153-.994,20.306-.994,10.152,4.255,20.3,4.255,10.152,7.62,20.306,7.62c-30.458-6.619-30.458-9.672-40.611-9.672s-10.153,1.981-20.306,1.981-10.152,2.712-20.3,2.712-10.152-2.4-20.3-2.4S782.132-66.9,771.98-66.9s-10.152,8.334-20.3,8.334-10.152-4.2-20.306-4.2-10.152,2.334-20.3,2.334-10.152-9.605-20.3-9.605S680.606-61.8,670.453-61.8s-10.152-8.715-20.3-8.715S640-67.352,629.843-67.352s-10.152.5-20.3.5-10.152,11.181-20.3,11.181-10.153-2.715-20.306-2.715-10.152-3.19-20.3-3.19-10.152-1.338-20.3-1.338-10.153-.449-20.306-.449-10.152,2.763-20.3,2.763-10.152-.063-20.306-.063-10.152-3.063-20.3-3.063-10.152-.807-20.3-.807-10.153,8.862-20.306,8.862h-20.3c-10.152,0-10.152-10.3-20.306-10.3s-10.152-2.568-20.3-2.568-10.152,7.426-20.3,7.426-10.153,5.445-20.306,5.445-10.152-5.531-20.3-5.531-10.152-2.086-20.3-2.086-10.153-1.291-20.306-1.291-10.152.381-20.3.381-10.152-16.091-20.306-16.091-10.152,18.781-20.3,18.781-10.152-.893-20.3-.893S152.67-63.84,142.517-63.84s-10.152,4.52-20.3,4.52-10.152-3.672-20.306-3.672-10.152-44.48-20.3-44.48-10.152,51.8-20.3,51.8H20.686Z" transform="translate(5.998 174.115)" fill="none" stroke="#000" stroke-width="0.322" opacity="0.702"/>
        <path id="Tracciato_148086" data-name="Tracciato 148086" d="M20.686-55.9c30.457-2.028,30.457,0,40.611,0s10.152-57.315,20.3-57.315,10.152,46.482,20.3,46.482,10.153,4.474,20.306,4.474,10.152-2.876,20.3-2.876,10.152.525,20.306.525,10.152,1.329,20.3,1.329,10.152-19.054,20.3-19.054,10.153,16.445,20.306,16.445,10.152-1.715,20.3-1.715,10.152,3,20.306,3,10.152,2.746,20.3,2.746,10.152,5.957,20.3,5.957S315.111-65.5,325.265-65.5s10.152-5.16,20.3-5.16,10.152-.773,20.3-.773S376.028-55.9,386.18-55.9h20.3c10.152,0,10.152-16.575,20.306-16.575s10.152,5,20.3,5,10.152,5.147,20.3,5.147,10.153-6.75,20.306-6.75,10.152,3.725,20.3,3.725,10.152-.057,20.306-.057,10.152,2.494,20.3,2.494,10.152.612,20.3.612,10.152,6.4,20.306,6.4,10.153-13.64,20.3-13.64,10.153-6.065,20.3-6.065,10.153.739,20.306.739,10.152,11.286,20.3,11.286,10.152-8.2,20.306-8.2,10.152,7.73,20.3,7.73,10.152-7.409,20.3-7.409,10.153,4.614,20.306,4.614,10.152-2.748,20.3-2.748,10.152,5.942,20.306,5.942,10.152-3.182,20.3-3.182,10.152-2.552,20.3-2.552,10.153-.305,20.306-.305,10.152,4.17,20.3,4.17S883.658-55.9,893.812-55.9c-30.458-7.62-30.458-11.875-40.611-11.875s-10.153.994-20.306.994-10.152,2.96-20.3,2.96-10.152.544-20.3.544-10.153-4.509-20.306-4.509-10.152,4.1-20.3,4.1-10.152-5.962-20.306-5.962-10.152,8.377-20.3,8.377-10.152-9.5-20.3-9.5-10.153,7.924-20.306,7.924-10.152-10.148-20.3-10.148-10.153.876-20.306.876-10.152,4-20.3,4S599.385-55.9,589.233-55.9s-10.153-4.91-20.306-4.91-10.152-1.742-20.3-1.742-10.152-1.529-20.3-1.529-10.153.489-20.306.489-10.152-.035-20.3-.035-10.152,2.735-20.306,2.735-10.152-4.5-20.3-4.5-10.152-5.8-20.3-5.8S416.638-55.9,406.485-55.9h-20.3c-10.152,0-10.152-13.614-20.306-13.614s-10.152-.309-20.3-.309-10.152,5.475-20.3,5.475S315.111-55.9,304.959-55.9s-10.152-5.531-20.3-5.531-10.152-2.086-20.3-2.086-10.153-2.811-20.306-2.811-10.152.911-20.3.911-10.152-16.919-20.306-16.919-10.152,19.6-20.3,19.6-10.152-.843-20.3-.843-10.153-.731-20.306-.731-10.152,2.84-20.3,2.84S112.06-65.22,101.906-65.22,91.754-111.4,81.6-111.4,71.449-55.9,61.3-55.9H20.686Z" transform="translate(5.998 174.338)" fill="#00c19c"/>
        <path id="Tracciato_148087" data-name="Tracciato 148087" d="M20.686-55.9c30.457-2.028,30.457,0,40.611,0s10.152-57.315,20.3-57.315,10.152,46.482,20.3,46.482,10.153,4.474,20.306,4.474,10.152-2.876,20.3-2.876,10.152.525,20.306.525,10.152,1.329,20.3,1.329,10.152-19.054,20.3-19.054,10.153,16.445,20.306,16.445,10.152-1.715,20.3-1.715,10.152,3,20.306,3,10.152,2.746,20.3,2.746,10.152,5.957,20.3,5.957S315.111-65.5,325.265-65.5s10.152-5.16,20.3-5.16,10.152-.773,20.3-.773S376.028-55.9,386.18-55.9h20.3c10.152,0,10.152-16.575,20.306-16.575s10.152,5,20.3,5,10.152,5.147,20.3,5.147,10.153-6.75,20.306-6.75,10.152,3.725,20.3,3.725,10.152-.057,20.306-.057,10.152,2.494,20.3,2.494,10.152.612,20.3.612,10.152,6.4,20.306,6.4,10.153-13.64,20.3-13.64,10.153-6.065,20.3-6.065,10.153.739,20.306.739,10.152,11.286,20.3,11.286,10.152-8.2,20.306-8.2,10.152,7.73,20.3,7.73,10.152-7.409,20.3-7.409,10.153,4.614,20.306,4.614,10.152-2.748,20.3-2.748,10.152,5.942,20.306,5.942,10.152-3.182,20.3-3.182,10.152-2.552,20.3-2.552,10.153-.305,20.306-.305,10.152,4.17,20.3,4.17S883.658-55.9,893.812-55.9c-30.458-7.62-30.458-11.875-40.611-11.875s-10.153.994-20.306.994-10.152,2.96-20.3,2.96-10.152.544-20.3.544-10.153-4.509-20.306-4.509-10.152,4.1-20.3,4.1-10.152-5.962-20.306-5.962-10.152,8.377-20.3,8.377-10.152-9.5-20.3-9.5-10.153,7.924-20.306,7.924-10.152-10.148-20.3-10.148-10.153.876-20.306.876-10.152,4-20.3,4S599.385-55.9,589.233-55.9s-10.153-4.91-20.306-4.91-10.152-1.742-20.3-1.742-10.152-1.529-20.3-1.529-10.153.489-20.306.489-10.152-.035-20.3-.035-10.152,2.735-20.306,2.735-10.152-4.5-20.3-4.5-10.152-5.8-20.3-5.8S416.638-55.9,406.485-55.9h-20.3c-10.152,0-10.152-13.614-20.306-13.614s-10.152-.309-20.3-.309-10.152,5.475-20.3,5.475S315.111-55.9,304.959-55.9s-10.152-5.531-20.3-5.531-10.152-2.086-20.3-2.086-10.153-2.811-20.306-2.811-10.152.911-20.3.911-10.152-16.919-20.306-16.919-10.152,19.6-20.3,19.6-10.152-.843-20.3-.843-10.153-.731-20.306-.731-10.152,2.84-20.3,2.84S112.06-65.22,101.906-65.22,91.754-111.4,81.6-111.4,71.449-55.9,61.3-55.9H20.686Z" transform="translate(5.998 174.338)" fill="none" stroke="#000" stroke-width="0.322" opacity="0.702"/>
        <g id="Raggruppa_24064" data-name="Raggruppa 24064" transform="translate(2)">
          <text id="Mixed" transform="translate(23.799 12)" font-size="10" font-family="HKGrotesk-Regular, HK Grotesk" style="isolation: isolate"><tspan x="0" y="0">Mixed</tspan></text>
          <path id="Rectangle_180" data-name="Rectangle 180" d="M8.631-180.034h9.882a5.28,5.28,0,0,1,5.559,5h0a5.28,5.28,0,0,1-5.559,5H8.631a5.28,5.28,0,0,1-5.559-5h0A5.28,5.28,0,0,1,8.631-180.034Z" transform="translate(-3.072 184.034)" fill="#f36"/>
          <text id="Words" transform="translate(91.053 12)" font-size="10" font-family="HKGrotesk-Regular, HK Grotesk" style="isolation: isolate"><tspan x="0" y="0">Words</tspan></text>
          <path id="Rectangle_181" data-name="Rectangle 181" d="M64.631-180.034h9.882a5.28,5.28,0,0,1,5.559,5h0a5.28,5.28,0,0,1-5.559,5H64.631a5.28,5.28,0,0,1-5.559-5h0A5.28,5.28,0,0,1,64.631-180.034Z" transform="translate(5.793 184.034)" fill="#00c19c"/>
        </g>
        <path id="Tracciato_148088" data-name="Tracciato 148088" d="M20.686-55.218H61.3c10.152,0,10.152-51.8,20.3-51.8s10.152,44.48,20.3,44.48,10.153,3.672,20.306,3.672,10.152-4.52,20.3-4.52,10.152,1.435,20.306,1.435,10.152.893,20.3.893,10.152-18.781,20.3-18.781,10.153,16.091,20.306,16.091,10.152-.381,20.3-.381,10.152,1.291,20.306,1.291,10.152,2.086,20.3,2.086,10.152,5.531,20.3,5.531,10.152-5.445,20.306-5.445,10.152-7.426,20.3-7.426,10.152,2.568,20.3,2.568,10.153,10.3,20.306,10.3h20.3c10.152,0,10.152-8.862,20.306-8.862s10.152.807,20.3.807,10.152,3.063,20.3,3.063,10.153.063,20.306.063,10.152-2.763,20.3-2.763,10.152.449,20.306.449,10.152,1.338,20.3,1.338,10.152,3.19,20.3,3.19,10.152,2.715,20.306,2.715S599.385-66.4,609.538-66.4s10.153-.5,20.3-.5S640-70.059,650.149-70.059s10.152,8.715,20.3,8.715,10.152-8.235,20.306-8.235,10.152,9.605,20.3,9.605,10.152-2.334,20.3-2.334,10.153,4.2,20.306,4.2,10.152-8.334,20.3-8.334S782.132-62.6,792.285-62.6s10.152,2.4,20.3,2.4,10.152-2.712,20.3-2.712S843.049-64.89,853.2-64.89s10.152,3.053,20.3,3.053,10.152,6.619,20.306,6.619H20.686Z" transform="translate(5.998 173.659)" fill="#646464" opacity="0.1"/>
        <path id="Tracciato_148089" data-name="Tracciato 148089" d="M20.686-55.218H61.3c10.152,0,10.152-51.8,20.3-51.8s10.152,44.48,20.3,44.48,10.153,3.672,20.306,3.672,10.152-4.52,20.3-4.52,10.152,1.435,20.306,1.435,10.152.893,20.3.893,10.152-18.781,20.3-18.781,10.153,16.091,20.306,16.091,10.152-.381,20.3-.381,10.152,1.291,20.306,1.291,10.152,2.086,20.3,2.086,10.152,5.531,20.3,5.531,10.152-5.445,20.306-5.445,10.152-7.426,20.3-7.426,10.152,2.568,20.3,2.568,10.153,10.3,20.306,10.3h20.3c10.152,0,10.152-8.862,20.306-8.862s10.152.807,20.3.807,10.152,3.063,20.3,3.063,10.153.063,20.306.063,10.152-2.763,20.3-2.763,10.152.449,20.306.449,10.152,1.338,20.3,1.338,10.152,3.19,20.3,3.19,10.152,2.715,20.306,2.715S599.385-66.4,609.538-66.4s10.153-.5,20.3-.5S640-70.059,650.149-70.059s10.152,8.715,20.3,8.715,10.152-8.235,20.306-8.235,10.152,9.605,20.3,9.605,10.152-2.334,20.3-2.334,10.153,4.2,20.306,4.2,10.152-8.334,20.3-8.334S782.132-62.6,792.285-62.6s10.152,2.4,20.3,2.4,10.152-2.712,20.3-2.712S843.049-64.89,853.2-64.89s10.152,3.053,20.3,3.053,10.152,6.619,20.306,6.619H20.686Z" transform="translate(5.998 173.659)" fill="none" stroke="#000" stroke-width="0.322" opacity="0.1"/>
        <path id="Tracciato_148090" data-name="Tracciato 148090" d="M20.686-57.788c30.457-14.874,30.457,0,40.611,0s10.152-72.691,20.3-72.691,10.152,58.9,20.3,58.9,10.153,5.851,20.306,5.851,10.152-4.595,20.3-4.595,10.152-.665,20.306-.665,10.152,4.553,20.3,4.553,10.152-22.374,20.3-22.374,10.153,18.543,20.306,18.543,10.152-1.3,20.3-1.3,10.152,2.585,20.306,2.585,10.152-1.377,20.3-1.377,10.152-4.157,20.3-4.157,10.152,3.166,20.306,3.166,10.152-8.808,20.3-8.808,10.152,1.2,20.3,1.2,10.153,21.171,20.306,21.171h20.3c10.152,0,10.152-27.106,20.306-27.106s10.152,11.55,20.3,11.55,10.152,1.227,20.3,1.227,10.153-3.465,20.306-3.465,10.152-8.629,20.3-8.629,10.152,13.448,20.306,13.448,10.152-1.644,20.3-1.644,10.152,5.157,20.3,5.157,10.152,9.462,20.306,9.462,10.153-23.069,20.3-23.069,10.153-5.519,20.3-5.519S640-81.754,650.149-81.754s10.152,12.835,20.3,12.835,10.152-6.052,20.306-6.052,10.152,1.914,20.3,1.914,10.152-2.735,20.3-2.735,10.153,2.039,20.306,2.039,10.152-2.722,20.3-2.722,10.152,5.727,20.306,5.727,10.152-2.1,20.3-2.1,10.152-.965,20.3-.965,10.153-6.006,20.306-6.006,10.152,4.595,20.3,4.595,10.152,17.434,20.306,17.434C863.353-67.4,863.353-71.574,853.2-71.574s-10.153.305-20.306.305-10.152,2.552-20.3,2.552-10.152,3.182-20.3,3.182-10.153-5.942-20.306-5.942-10.152,2.748-20.3,2.748-10.152-4.614-20.306-4.614-10.152,7.409-20.3,7.409-10.152-7.73-20.3-7.73-10.153,8.2-20.306,8.2-10.152-11.286-20.3-11.286-10.153-.739-20.306-.739-10.152,6.065-20.3,6.065-10.152,13.64-20.3,13.64-10.153-6.4-20.306-6.4-10.152-.612-20.3-.612S538.47-67.3,528.317-67.3s-10.153.057-20.306.057-10.152-3.725-20.3-3.725-10.152,6.75-20.306,6.75-10.152-5.147-20.3-5.147-10.152-5-20.3-5-10.153,16.575-20.306,16.575h-20.3c-10.152,0-10.152-15.538-20.306-15.538s-10.152.773-20.3.773-10.152,5.16-20.3,5.16-10.153,9.605-20.306,9.605-10.152-5.957-20.3-5.957-10.152-2.746-20.3-2.746-10.153-3-20.306-3-10.152,1.715-20.3,1.715-10.152-16.445-20.306-16.445S193.28-65.17,183.128-65.17s-10.152-1.329-20.3-1.329-10.153-.525-20.306-.525-10.152,2.876-20.3,2.876-10.152-4.474-20.306-4.474S91.754-115.1,81.6-115.1,71.449-57.788,61.3-57.788s-10.153-2.028-20.306-2.028S30.838-57.788,20.686-57.788Z" transform="translate(5.998 176.23)" fill="#aeaeae" opacity="0.1"/>
        <path id="Tracciato_148091" data-name="Tracciato 148091" d="M20.686-57.788c30.457-14.874,30.457,0,40.611,0s10.152-72.691,20.3-72.691,10.152,58.9,20.3,58.9,10.153,5.851,20.306,5.851,10.152-4.595,20.3-4.595,10.152-.665,20.306-.665,10.152,4.553,20.3,4.553,10.152-22.374,20.3-22.374,10.153,18.543,20.306,18.543,10.152-1.3,20.3-1.3,10.152,2.585,20.306,2.585,10.152-1.377,20.3-1.377,10.152-4.157,20.3-4.157,10.152,3.166,20.306,3.166,10.152-8.808,20.3-8.808,10.152,1.2,20.3,1.2,10.153,21.171,20.306,21.171h20.3c10.152,0,10.152-27.106,20.306-27.106s10.152,11.55,20.3,11.55,10.152,1.227,20.3,1.227,10.153-3.465,20.306-3.465,10.152-8.629,20.3-8.629,10.152,13.448,20.306,13.448,10.152-1.644,20.3-1.644,10.152,5.157,20.3,5.157,10.152,9.462,20.306,9.462,10.153-23.069,20.3-23.069,10.153-5.519,20.3-5.519S640-81.754,650.149-81.754s10.152,12.835,20.3,12.835,10.152-6.052,20.306-6.052,10.152,1.914,20.3,1.914,10.152-2.735,20.3-2.735,10.153,2.039,20.306,2.039,10.152-2.722,20.3-2.722,10.152,5.727,20.306,5.727,10.152-2.1,20.3-2.1,10.152-.965,20.3-.965,10.153-6.006,20.306-6.006,10.152,4.595,20.3,4.595,10.152,17.434,20.306,17.434C863.353-67.4,863.353-71.574,853.2-71.574s-10.153.305-20.306.305-10.152,2.552-20.3,2.552-10.152,3.182-20.3,3.182-10.153-5.942-20.306-5.942-10.152,2.748-20.3,2.748-10.152-4.614-20.306-4.614-10.152,7.409-20.3,7.409-10.152-7.73-20.3-7.73-10.153,8.2-20.306,8.2-10.152-11.286-20.3-11.286-10.153-.739-20.306-.739-10.152,6.065-20.3,6.065-10.152,13.64-20.3,13.64-10.153-6.4-20.306-6.4-10.152-.612-20.3-.612S538.47-67.3,528.317-67.3s-10.153.057-20.306.057-10.152-3.725-20.3-3.725-10.152,6.75-20.306,6.75-10.152-5.147-20.3-5.147-10.152-5-20.3-5-10.153,16.575-20.306,16.575h-20.3c-10.152,0-10.152-15.538-20.306-15.538s-10.152.773-20.3.773-10.152,5.16-20.3,5.16-10.153,9.605-20.306,9.605-10.152-5.957-20.3-5.957-10.152-2.746-20.3-2.746-10.153-3-20.306-3-10.152,1.715-20.3,1.715-10.152-16.445-20.306-16.445S193.28-65.17,183.128-65.17s-10.152-1.329-20.3-1.329-10.153-.525-20.306-.525-10.152,2.876-20.3,2.876-10.152-4.474-20.306-4.474S91.754-115.1,81.6-115.1,71.449-57.788,61.3-57.788s-10.153-2.028-20.306-2.028S30.838-57.788,20.686-57.788Z" transform="translate(5.998 176.23)" fill="none" stroke="#000" stroke-width="0.322" opacity="0.1"/>
      </g>
      <g id="Isolation_Mode" data-name="Isolation Mode" transform="translate(13.604 -161.136)">
        <text id="_Type_of_lists_in_the_text" data-name="% Type of lists in the text" transform="translate(0 10)" font-size="10" font-family="HKGrotesk-Italic, HK Grotesk" font-style="italic"><tspan x="0" y="0">% Type of lists in the text</tspan></text>
      </g>
    </g>
  </g>
</svg>
