<svg id="Layer_1" data-name="Layer 1" xmlns="http://www.w3.org/2000/svg" xmlns:xlink="http://www.w3.org/1999/xlink" viewBox="0 0 128.813 127.59201">
  <g id="elenchi">
    <g>
      <g>
        <path d="M49.9328,8.42722l-.007-.008a35.92986,35.92986,0,1,0,.007.008m-15.146,37.772h-.003a17.6998,17.6998,0,1,1,6.969-29.469h.001l.001.001a17.70178,17.70178,0,0,1-6.968,29.468" fill="#fffffa"/>
        <path d="M37.7077,55.27641l-2.274-7.059a19.8213,19.8213,0,0,0,7.806-32.998l5.198-5.29a27.23689,27.23689,0,0,1-10.73,45.347Z" fill="none" stroke="#5151fc" stroke-miterlimit="10"/>
        <path d="M29.3503,56.583A27.232,27.232,0,1,1,48.4393,9.93l-5.2,5.29a19.80238,19.80238,0,1,0-7.806,32.998l2.274,7.058A27.182,27.182,0,0,1,29.3503,56.583Z" fill="none" stroke="#5151fc" stroke-miterlimit="10"/>
        <path d="M81.13509,46.45752h-.002a41.16807,41.16807,0,0,0-6.023-.443,40.78967,40.78967,0,0,0-3.077,81.463c.053.004.105.006.158.006h.003c.961.068,1.94.108,2.916.108a40.79084,40.79084,0,0,0,6.025-81.134m-6.025,69.479c-.73,0-1.473-.028-2.207-.082h-.001a29.13542,29.13542,0,1,1,6.521-57.868h.003a29.13586,29.13586,0,0,1-4.316,57.95" fill="#fffffa"/>
        <path d="M75.1101,125.47271c-.973,0-1.954-.036-2.919-.108l.553-7.397c.781.058,1.578.088,2.366.088a31.25528,31.25528,0,0,0,4.626-62.166l1.086-7.336a38.67171,38.67171,0,0,1-5.712,76.919Z" fill="none" stroke="#5151fc" stroke-miterlimit="10"/>
        <path d="M46.3122,74.63971l-6.831-2.889a38.61449,38.61449,0,0,1,35.629-23.617,39.12256,39.12256,0,0,1,5.713.42l-1.088,7.336a31.3121,31.3121,0,0,0-33.423,18.75Z" fill="none" stroke="#5151fc" stroke-miterlimit="10"/>
        <path d="M72.1911,125.36431a38.81294,38.81294,0,0,1-35.75-38.561,38.40455,38.40455,0,0,1,3.04-15.052l6.831,2.888a31.27625,31.27625,0,0,0,26.432,43.329Z" fill="none" stroke="#5151fc" stroke-miterlimit="10"/>
        <path d="M103.949,51.33572a24.864,24.864,0,1,1,24.863-24.863,24.89074,24.89074,0,0,1-24.863,24.863m0-38.073a13.209,13.209,0,1,0,13.208,13.21,13.22413,13.22413,0,0,0-13.208-13.21" fill="#fffffa"/>
        <path d="M103.949,49.21661a22.745,22.745,0,1,1,22.744-22.744A22.77073,22.77073,0,0,1,103.949,49.21661Zm0-38.073a15.328,15.328,0,1,0,15.327,15.329A15.34607,15.34607,0,0,0,103.949,11.14361Z" fill="none" stroke="#5151fc" stroke-miterlimit="10"/>
      </g>
    </g>
  </g>
</svg>
