<svg xmlns="http://www.w3.org/2000/svg" width="120.417" height="80.345" viewBox="0 0 120.417 80.345">
  <g id="Group_4043" data-name="Group 4043" transform="translate(-0.301 32.905)">
    <g id="Group_4040" data-name="Group 4040" transform="translate(-24)">
      <g id="Group_299" data-name="Group 299">
        <g id="Group-3-2" transform="translate(100.309 129.497) rotate(-90)">
          <path id="Path-6-2" d="M140.759,10.427H127.734" transform="translate(0 -1.521)" fill="none" stroke="#444" stroke-width="0.25" stroke-dasharray="1.9 1.9"/>
        </g>
        <g id="Group-3-2-2" data-name="Group-3-2" transform="translate(43.415 129.496) rotate(-90)">
          <path id="Path-6-2-2" data-name="Path-6-2" d="M150.512,10.427H127.734" transform="translate(0 -1.521)" fill="none" stroke="#444" stroke-width="0.25" stroke-dasharray="1.9 1.9"/>
        </g>
        <g id="Group_273" data-name="Group 273" transform="translate(1.771 -17)">
          <g id="Group_4038" data-name="Group 4038">
            <g id="Group_272" data-name="Group 272">
              <path id="Path_148969" data-name="Path 148969" d="M2.642.068A2.392,2.392,0,0,0,4.507-.693l-.5-.4a1.7,1.7,0,0,1-1.372.522A1.444,1.444,0,0,1,1.211-2.192h3.4c.01-.088.024-.249.024-.376,0-1.123-.488-2.378-2.07-2.378C1.147-4.946.444-3.721.444-2.412A2.211,2.211,0,0,0,2.642.068ZM1.211-2.788c.039-.83.459-1.558,1.353-1.558,1,0,1.353.776,1.372,1.558ZM6.851-.537c-.22,0-.239-.264-.239-.278V-6.9H5.874V-.986C5.874-.4,5.928.1,6.665.1A2.381,2.381,0,0,0,7.324,0V-.586A2.891,2.891,0,0,1,6.851-.537Zm3.389.605A2.392,2.392,0,0,0,12.1-.693l-.5-.4a1.7,1.7,0,0,1-1.372.522A1.444,1.444,0,0,1,8.809-2.192h3.4c.01-.088.024-.249.024-.376,0-1.123-.488-2.378-2.07-2.378-1.416,0-2.119,1.226-2.119,2.534A2.211,2.211,0,0,0,10.239.068ZM8.809-2.788c.039-.83.459-1.558,1.353-1.558,1,0,1.353.776,1.372,1.558ZM13.486,0h.728V-2.534c0-1.211.61-1.812,1.377-1.812.859,0,1.108.781,1.108,1.455V0h.723V-2.964c0-1.074-.474-2-1.636-2a1.752,1.752,0,0,0-1.572.938v-.85h-.728ZM20.7.1A1.861,1.861,0,0,0,22.534-1.2L21.9-1.47a1.224,1.224,0,0,1-1.211.952c-1.021,0-1.362-1.021-1.362-1.914s.352-1.934,1.362-1.934a1.234,1.234,0,0,1,1.211.977l.688-.293a2,2,0,0,0-1.9-1.3c-1.406,0-2.109,1.24-2.109,2.549S19.292.1,20.7.1ZM23.716,0h.723V-2.632a1.537,1.537,0,0,1,1.455-1.65c.84,0,1.035.728,1.035,1.392V0h.737V-3.008c0-1.04-.474-1.958-1.641-1.958a1.9,1.9,0,0,0-1.587.889V-6.9h-.723ZM29.15-5.962h.83V-6.9h-.83ZM29.2,0h.723V-4.878H29.2Z" transform="translate(23.91 -7.015)"/>
            </g>
          </g>
        </g>
        <path id="Path_148968" data-name="Path 148968" d="M55.386-21.016c0,20.553,50.554,7.906,50.554,21.081v0" fill="none" stroke="#000" stroke-width="0.25" stroke-dasharray="1.9 1.9"/>
      </g>
    </g>
    <g id="Ellipse_22" data-name="Ellipse 22">
      <path id="Path_89" data-name="Path 89" d="M24.036,1.35h0" fill="none" stroke="#5151fc" stroke-linejoin="round" stroke-width="2.684"/>
      <path id="Path_89-2" data-name="Path 89" d="M24.036,46.06A22.379,22.379,0,0,1,1.681,23.7" fill="none" stroke="#ccc" stroke-miterlimit="10" stroke-width="2.76"/>
      <path id="Path_89-3" data-name="Path 89" d="M1.681,23.7A22.379,22.379,0,0,1,24.036,1.35" fill="none" stroke="#ccc" stroke-miterlimit="10" stroke-width="2.76"/>
      <path id="Path_90" data-name="Path 90" d="M46.391,23.7A22.379,22.379,0,0,1,24.036,46.06" fill="none" stroke="#ccc" stroke-miterlimit="10" stroke-width="2.76"/>
      <path id="Path_90-2" data-name="Path 90" d="M24.036,1.35" fill="none" stroke="#f36" stroke-miterlimit="10" stroke-width="2.76"/>
      <path id="Path_90-3" data-name="Path 90" d="M24.036,1.35A22.38,22.38,0,0,1,46.391,23.7" fill="none" stroke="#0cc" stroke-miterlimit="10" stroke-width="2.76"/>
    </g>
    <path id="Path_148967" data-name="Path 148967" d="M.83,11.139h.732v-2.8A1.75,1.75,0,0,0,3.057,9.1c1.309,0,1.987-1.157,1.987-2.539S4.36,4.02,3.052,4.02a1.743,1.743,0,0,0-1.489.767V4.122H.83ZM2.9,8.482c-.991,0-1.406-.928-1.406-1.924S1.909,4.635,2.9,4.635s1.411.938,1.411,1.924S3.877,8.482,2.9,8.482Zm5.254.586a2.392,2.392,0,0,0,1.865-.762l-.5-.4a1.7,1.7,0,0,1-1.372.522A1.444,1.444,0,0,1,6.724,6.808h3.4c.01-.088.024-.249.024-.376,0-1.123-.488-2.378-2.07-2.378-1.416,0-2.119,1.226-2.119,2.534A2.211,2.211,0,0,0,8.154,9.068ZM6.724,6.212c.039-.83.459-1.558,1.353-1.558,1,0,1.353.776,1.372,1.558ZM11.4,9h.718V6.563c0-1.177.5-1.846,1.333-1.846a.888.888,0,0,1,.6.186l.308-.63a1.268,1.268,0,0,0-.786-.254,1.572,1.572,0,0,0-1.44.967V4.122H11.4Zm5.229.1A1.861,1.861,0,0,0,18.467,7.8l-.635-.273a1.224,1.224,0,0,1-1.211.952c-1.021,0-1.362-1.021-1.362-1.914s.352-1.934,1.362-1.934a1.234,1.234,0,0,1,1.211.977l.688-.293a2,2,0,0,0-1.9-1.3c-1.406,0-2.109,1.24-2.109,2.549S15.225,9.1,16.631,9.1Zm4.78-.029a2.392,2.392,0,0,0,1.865-.762l-.5-.4a1.7,1.7,0,0,1-1.372.522A1.444,1.444,0,0,1,19.98,6.808h3.4c.01-.088.024-.249.024-.376,0-1.123-.488-2.378-2.07-2.378-1.416,0-2.119,1.226-2.119,2.534A2.211,2.211,0,0,0,21.411,9.068ZM19.98,6.212c.039-.83.459-1.558,1.353-1.558,1,0,1.353.776,1.372,1.558ZM24.658,9h.728V6.466c0-1.211.61-1.812,1.377-1.812.859,0,1.108.781,1.108,1.455V9h.723V6.036c0-1.074-.474-2-1.636-2a1.752,1.752,0,0,0-1.572.938v-.85h-.728Zm6.821.1a1.966,1.966,0,0,0,.654-.1V8.375a1.164,1.164,0,0,1-.488.122c-.356,0-.62-.249-.62-.786V4.718h1.235v-.6H31.025V2.34l-.723.684v1.1h-.786v.6H30.3V7.706C30.3,8.541,30.615,9.1,31.479,9.1Zm3.491.01A1.736,1.736,0,0,0,36.5,8.175V9h.723V4.122H36.5v2.7a1.566,1.566,0,0,1-1.455,1.67c-.835,0-1.025-.786-1.025-1.489V4.122H33.3V6.954C33.3,8.17,33.77,9.107,34.971,9.107ZM40.01,9.1a1.821,1.821,0,0,0,1.714-1.04L41.738,9h.62V6.007A1.8,1.8,0,0,0,40.449,4.02a2.164,2.164,0,0,0-1.841.957l.532.415a1.605,1.605,0,0,1,1.353-.737c.884,0,1.2.64,1.2,1.558H40.576c-1.387,0-2.148.454-2.148,1.431A1.43,1.43,0,0,0,40.01,9.1Zm.083-.615c-.508,0-.913-.239-.913-.82,0-.649.5-.9,1.465-.9h1.045A1.683,1.683,0,0,1,40.093,8.482Zm4.746-.02c-.22,0-.239-.264-.239-.278V2.1h-.737V8.014c0,.586.054,1.084.791,1.084a2.381,2.381,0,0,0,.659-.1V8.414A2.891,2.891,0,0,1,44.839,8.463Zm3.389.605a2.392,2.392,0,0,0,1.865-.762l-.5-.4a1.7,1.7,0,0,1-1.372.522A1.444,1.444,0,0,1,46.8,6.808h3.4c.01-.088.024-.249.024-.376,0-1.123-.488-2.378-2.07-2.378-1.416,0-2.119,1.226-2.119,2.534A2.211,2.211,0,0,0,48.228,9.068ZM46.8,6.212c.039-.83.459-1.558,1.353-1.558,1,0,1.353.776,1.372,1.558ZM.776,15.038h.83V14.1H.776ZM.83,21h.723V16.122H.83ZM3.2,21h.728V18.466c0-1.211.61-1.812,1.377-1.812.859,0,1.108.781,1.108,1.455V21h.723V18.036c0-1.074-.474-2-1.636-2a1.752,1.752,0,0,0-1.572.938v-.85H3.2Zm5.688,0h.728V16.718h1.4v-.6h-1.4v-.781c0-.5.273-.728.649-.728a1.387,1.387,0,0,1,.571.151l.176-.581a1.825,1.825,0,0,0-.8-.186A1.225,1.225,0,0,0,8.9,15.3v.82H8v.6h.889Zm4.727.068a2.392,2.392,0,0,0,1.865-.762l-.5-.4a1.7,1.7,0,0,1-1.372.522,1.444,1.444,0,0,1-1.426-1.621h3.4c.01-.088.024-.249.024-.376,0-1.123-.488-2.378-2.07-2.378-1.416,0-2.119,1.226-2.119,2.534A2.211,2.211,0,0,0,13.618,21.068Zm-1.431-2.856c.039-.83.459-1.558,1.353-1.558,1,0,1.353.776,1.372,1.558ZM16.865,21h.718V18.563c0-1.177.5-1.846,1.333-1.846a.888.888,0,0,1,.6.186l.308-.63a1.268,1.268,0,0,0-.786-.254,1.572,1.572,0,0,0-1.44.967v-.864h-.728Zm3.848-5.962h.83V14.1h-.83ZM20.767,21h.723V16.122h-.723Zm4.272.1a2.4,2.4,0,0,0,2.324-2.549,2.321,2.321,0,1,0-4.624,0A2.376,2.376,0,0,0,25.039,21.1Zm0-.605c-1.074,0-1.572-.957-1.572-1.943s.5-1.924,1.582-1.924,1.572.947,1.572,1.924S26.138,20.492,25.044,20.492ZM28.6,21h.718V18.563c0-1.177.5-1.846,1.333-1.846a.888.888,0,0,1,.6.186l.308-.63a1.268,1.268,0,0,0-.786-.254,1.572,1.572,0,0,0-1.44.967v-.864H28.6Zm5.3.068a2.392,2.392,0,0,0,1.865-.762l-.5-.4a1.7,1.7,0,0,1-1.372.522,1.444,1.444,0,0,1-1.426-1.621h3.4c.01-.088.024-.249.024-.376,0-1.123-.488-2.378-2.07-2.378-1.416,0-2.119,1.226-2.119,2.534A2.211,2.211,0,0,0,33.906,21.068Zm-1.431-2.856c.039-.83.459-1.558,1.353-1.558,1,0,1.353.776,1.372,1.558ZM40.933,21.1a1.821,1.821,0,0,0,1.714-1.04l.015.942h.62V18.007a1.8,1.8,0,0,0-1.909-1.987,2.164,2.164,0,0,0-1.841.957l.532.415a1.605,1.605,0,0,1,1.353-.737c.884,0,1.2.64,1.2,1.558H41.5c-1.387,0-2.148.454-2.148,1.431A1.43,1.43,0,0,0,40.933,21.1Zm.083-.615c-.508,0-.913-.239-.913-.82,0-.649.5-.9,1.465-.9h1.045A1.683,1.683,0,0,1,41.016,20.482Zm4.746-.02c-.22,0-.239-.264-.239-.278V14.1h-.737v5.913c0,.586.054,1.084.791,1.084a2.381,2.381,0,0,0,.659-.1v-.586A2.891,2.891,0,0,1,45.762,20.463Zm6.191.635a2.308,2.308,0,0,0,2.31-2.354A2.161,2.161,0,0,0,52.1,16.493,1.852,1.852,0,0,0,50.762,17l.371-2.227H53.95V14.1H50.542l-.605,3.477.664.313a1.636,1.636,0,0,1,1.4-.762,1.478,1.478,0,0,1,1.465,1.616,1.565,1.565,0,0,1-1.528,1.7,1.6,1.6,0,0,1-1.548-1.489l-.688.229A2.3,2.3,0,0,0,51.953,21.1Zm4.6-4.023c.815,0,1.187-.791,1.187-1.533s-.381-1.553-1.216-1.553c-.9,0-1.182.9-1.182,1.553C55.347,16.171,55.63,17.074,56.558,17.074Zm-.19,3.916h.645l3.677-6.86h-.645Zm.181-4.4c-.5,0-.684-.562-.684-1.045s.186-1.055.664-1.055.669.562.669,1.045S57.017,16.586,56.548,16.586Zm4.053,4.4c.811,0,1.182-.781,1.182-1.523s-.386-1.548-1.211-1.548c-.9,0-1.187.9-1.187,1.543S59.673,20.985,60.6,20.985Zm-.01-.488c-.5,0-.688-.562-.688-1.04s.19-1.045.669-1.045.674.552.674,1.04C61.245,19.916,61.055,20.5,60.591,20.5Z" transform="translate(58.936 -35.006)"/>
    <g id="Group_4044" data-name="Group 4044" transform="translate(-31.957)">
      <path id="Path_89-4" data-name="Path 89" d="M110.994,46.06A22.379,22.379,0,0,1,88.638,23.7" fill="none" stroke="#ccc" stroke-miterlimit="10" stroke-width="2.76"/>
      <path id="Path_89-5" data-name="Path 89" d="M88.638,23.7A22.38,22.38,0,0,1,110.994,1.35" fill="none" stroke="#ccc" stroke-miterlimit="10" stroke-width="2.76"/>
      <path id="Path_90-4" data-name="Path 90" d="M133.349,23.7A22.379,22.379,0,0,1,110.994,46.06" fill="none" stroke="#ccc" stroke-miterlimit="10" stroke-width="2.76"/>
      <path id="Path_90-5" data-name="Path 90" d="M130.218,12.3a22.225,22.225,0,0,1,3.131,11.4" fill="none" stroke="#ccc" stroke-miterlimit="10" stroke-width="2.76"/>
      <path id="Path_90-6" data-name="Path 90" d="M126.336,7.46a22.475,22.475,0,0,1,3.882,4.844" fill="none" stroke="#ccc" stroke-miterlimit="10" stroke-width="2.76"/>
      <path id="Path_90-7" data-name="Path 90" d="M110.994,1.35A22.228,22.228,0,0,1,121.172,3.8" fill="none" stroke="#000" stroke-miterlimit="10" stroke-width="2.76"/>
      <path id="Path_90-8" data-name="Path 90" d="M121.172,3.8a22.452,22.452,0,0,1,5.164,3.656" fill="none" stroke="#ccc" stroke-miterlimit="10" stroke-width="2.76"/>
    </g>
  </g>
</svg>
