<?xml version="1.0" encoding="utf-8"?>
<!-- Generator: Adobe Illustrator 25.0.0, SVG Export Plug-In . SVG Version: 6.00 Build 0)  -->
<svg version="1.1" id="Livello_1" xmlns="http://www.w3.org/2000/svg" xmlns:xlink="http://www.w3.org/1999/xlink" x="0px" y="0px"
	 viewBox="0 0 126 78.4" enable-background="new 0 0 126 78.4" xml:space="preserve">
<g id="Ellipse_22" transform="translate(175 350.97)">
	<path id="Path_89" fill="none" stroke="#5151FC" stroke-width="2.684" stroke-linejoin="round" d="M-151.10001-318.60001
		L-151.10001-318.60001"/>
	<path id="Path_89-2" fill="none" stroke="#00C19C" stroke-width="2.76" stroke-miterlimit="10" d="M-151.10001-273.89999
		c-12.29999,0-22.29999-10-22.39999-22.39999"/>
	<path id="Path_89-3" fill="none" stroke="#FF3366" stroke-width="2.76" stroke-miterlimit="10" d="M-173.39999-296.29999
		c0-12.30002,10-22.30002,22.39999-22.40002"/>
	<path id="Path_90" fill="none" stroke="#5151FC" stroke-width="2.76" stroke-miterlimit="10" d="M-128.7-296.29999
		c0,12.29999-10,22.29999-22.40001,22.39999"/>
	<path id="Path_90-2" fill="none" stroke="#FF3366" stroke-width="2.76" stroke-miterlimit="10" d="M-151.10001-318.60001"/>
	<path id="Path_90-3" fill="none" stroke="#FFA500" stroke-width="2.76" stroke-miterlimit="10" d="M-151.10001-318.60001
		c12.3,0,22.3,10,22.40001,22.39999"/>
</g>
<g>
	<path d="M2.63965,3.03369h1.98828c1.47949,0,2.29883,0.69971,2.29883,1.94922c0,1.26904-0.8291,1.97852-2.29883,1.97852h-1.2793V10
		H2.63965V3.03369z M4.55859,6.30225c1.08887,0,1.64844-0.4502,1.64844-1.30957S5.64746,3.69336,4.55859,3.69336H3.34863v2.60889
		H4.55859z"/>
	<path d="M11.18848,5.20264l-0.33984,0.55957c-0.23047-0.09961-0.44043-0.1499-0.65039-0.1499
		c-0.75879,0-1.31934,0.56982-1.31934,1.63916V10H8.18945V5.07275h0.68945V5.8125c0.36035-0.6499,0.95996-0.81982,1.45996-0.81982
		C10.63867,4.99268,10.91797,5.05273,11.18848,5.20264z"/>
	<path d="M11.3291,7.53125c0-1.45898,0.9502-2.53857,2.35938-2.53857c1.39844,0,2.36816,1.07959,2.36816,2.53857
		c0,1.44922-0.95898,2.54883-2.36816,2.54883S11.3291,8.99072,11.3291,7.53125z M15.36719,7.53125
		c0-1.11914-0.62988-1.92871-1.67871-1.92871c-1.05957,0-1.66992,0.81934-1.66992,1.92871
		c0,1.11963,0.62012,1.93896,1.66992,1.93896C14.74707,9.47021,15.36719,8.63086,15.36719,7.53125z"/>
	<path d="M21.95703,7.53125c0,1.46924-0.75,2.54883-2.18848,2.54883c-0.71973,0-1.26953-0.27979-1.62988-0.73975v2.69873h-0.68945
		V5.07275h0.68945v0.65967c0.37012-0.47998,0.92969-0.74951,1.62988-0.74951C21.1377,4.98291,21.95703,5.99219,21.95703,7.53125z
		 M21.26758,7.53125c0-1.16943-0.59961-1.93896-1.59961-1.93896c-0.98926,0-1.58887,0.76953-1.58887,1.93896
		c0,1.11963,0.5498,1.93896,1.58887,1.93896C20.71777,9.47021,21.26758,8.65088,21.26758,7.53125z"/>
	<path d="M22.95898,7.53125c0-1.45898,0.9502-2.53857,2.35938-2.53857c1.39844,0,2.36816,1.07959,2.36816,2.53857
		c0,1.44922-0.95898,2.54883-2.36816,2.54883S22.95898,8.99072,22.95898,7.53125z M26.99707,7.53125
		c0-1.11914-0.62988-1.92871-1.67871-1.92871c-1.05957,0-1.66992,0.81934-1.66992,1.92871
		c0,1.11963,0.62012,1.93896,1.66992,1.93896C26.37695,9.47021,26.99707,8.63086,26.99707,7.53125z"/>
	<path d="M32.07812,5.20264l-0.33984,0.55957c-0.23047-0.09961-0.44043-0.1499-0.65039-0.1499
		c-0.75879,0-1.31836,0.56982-1.31836,1.63916V10H29.0791V5.07275h0.69043V5.8125c0.35938-0.6499,0.95898-0.81982,1.45898-0.81982
		C31.52832,4.99268,31.80762,5.05273,32.07812,5.20264z"/>
	<path d="M35.39746,9.9502c-0.25977,0.07959-0.51953,0.12988-0.74902,0.12988c-0.66016,0-1.13965-0.37012-1.13965-1.23926V5.65234
		h-0.81934V5.07275h0.81934V3.69336l0.68945-0.51953v1.89893h1.18945v0.57959h-1.18945v3.09814
		c0,0.47998,0.21973,0.69971,0.61035,0.69971c0.16992,0,0.35938-0.04004,0.5791-0.10986L35.39746,9.9502z"/>
	<path d="M36.64844,3.03369h0.7998v1.01953h-0.7998V3.03369z M36.70801,5.07275h0.69043V10h-0.69043V5.07275z"/>
	<path d="M38.78906,7.53125c0-1.45898,0.9502-2.53857,2.35938-2.53857c1.39844,0,2.36816,1.07959,2.36816,2.53857
		c0,1.44922-0.95898,2.54883-2.36816,2.54883S38.78906,8.99072,38.78906,7.53125z M42.82715,7.53125
		c0-1.11914-0.62988-1.92871-1.67871-1.92871c-1.05957,0-1.66992,0.81934-1.66992,1.92871
		c0,1.11963,0.62012,1.93896,1.66992,1.93896C42.20703,9.47021,42.82715,8.63086,42.82715,7.53125z"/>
	<path d="M48.83594,6.98145V10h-0.68945V7.15137c0-1.05908-0.33984-1.54883-1.0791-1.54883
		c-0.92969,0-1.46973,0.79932-1.46973,2.18848V10H44.9082V5.07275h0.68945v0.71973c0.32031-0.5,0.91992-0.7998,1.62988-0.7998
		C48.28711,4.99268,48.83594,5.67236,48.83594,6.98145z"/>
	<path d="M57.77637,7.53125c0,1.46924-0.75,2.54883-2.18848,2.54883c-0.71973,0-1.26953-0.27979-1.62891-0.73975V10h-0.69043
		V3.03369h0.69043v2.69873c0.36914-0.47998,0.92871-0.74951,1.62891-0.74951C56.95703,4.98291,57.77637,5.99219,57.77637,7.53125z
		 M57.08691,7.53125c0-1.16943-0.59961-1.93896-1.59961-1.93896c-0.98926,0-1.58887,0.76953-1.58887,1.93896
		c0,1.11963,0.5498,1.93896,1.58887,1.93896C56.53711,9.47021,57.08691,8.65088,57.08691,7.53125z"/>
	<path d="M63.10645,7.72119h-3.6084c0.02051,1.07959,0.62012,1.729,1.58887,1.729c0.54004,0,0.96973-0.13965,1.41992-0.61963
		l0.47949,0.41992c-0.58008,0.60938-1.14941,0.82959-1.90918,0.82959c-1.49902,0-2.26855-1.11963-2.26855-2.51855
		c0-1.38965,0.75977-2.56885,2.18848-2.56885c1.50977,0,2.13867,1.1792,2.13867,2.29883
		C63.13574,7.43164,63.12598,7.60107,63.10645,7.72119z M59.49805,7.1416h2.97852c0-0.02002-0.00977-0.06982-0.00977-0.16016
		c-0.0498-0.79932-0.55957-1.40918-1.46973-1.40918C60.10742,5.57227,59.55859,6.27197,59.49805,7.1416z"/>
	<path d="M66.57715,9.9502c-0.25977,0.07959-0.51953,0.12988-0.74902,0.12988c-0.66016,0-1.13965-0.37012-1.13965-1.23926V5.65234
		h-0.81934V5.07275h0.81934V3.69336l0.68945-0.51953v1.89893h1.18945v0.57959h-1.18945v3.09814
		c0,0.47998,0.21973,0.69971,0.61035,0.69971c0.16992,0,0.35938-0.04004,0.5791-0.10986L66.57715,9.9502z"/>
	<path d="M67.35938,5.07275h0.73926l1.05957,3.8877l1.29883-3.8877h0.62988l1.28906,3.8877l1.06934-3.8877h0.72949L72.73633,10
		h-0.65039l-1.30859-3.97803L69.44824,10h-0.63965L67.35938,5.07275z"/>
	<path d="M79.17676,7.72119h-3.6084c0.02051,1.07959,0.62012,1.729,1.58887,1.729c0.54004,0,0.96973-0.13965,1.41992-0.61963
		l0.47949,0.41992c-0.58008,0.60938-1.14941,0.82959-1.90918,0.82959c-1.49902,0-2.26855-1.11963-2.26855-2.51855
		c0-1.38965,0.75977-2.56885,2.18848-2.56885c1.50977,0,2.13867,1.1792,2.13867,2.29883
		C79.20605,7.43164,79.19629,7.60107,79.17676,7.72119z M75.56836,7.1416h2.97852c0-0.02002-0.00977-0.06982-0.00977-0.16016
		c-0.0498-0.79932-0.55957-1.40918-1.46973-1.40918C76.17773,5.57227,75.62891,6.27197,75.56836,7.1416z"/>
	<path d="M84.49609,7.72119h-3.6084c0.02051,1.07959,0.62012,1.729,1.58887,1.729c0.54004,0,0.96973-0.13965,1.41992-0.61963
		l0.47949,0.41992c-0.58008,0.60938-1.14941,0.82959-1.90918,0.82959c-1.49902,0-2.26855-1.11963-2.26855-2.51855
		c0-1.38965,0.75977-2.56885,2.18848-2.56885c1.50977,0,2.13867,1.1792,2.13867,2.29883
		C84.52539,7.43164,84.51562,7.60107,84.49609,7.72119z M80.8877,7.1416h2.97852c0-0.02002-0.00977-0.06982-0.00977-0.16016
		c-0.0498-0.79932-0.55957-1.40918-1.46973-1.40918C81.49707,5.57227,80.94824,6.27197,80.8877,7.1416z"/>
	<path d="M89.8457,6.98145V10h-0.68945V7.15137c0-1.05908-0.33984-1.54883-1.0791-1.54883
		c-0.92969,0-1.46973,0.79932-1.46973,2.18848V10h-0.68945V5.07275h0.68945v0.71973c0.32031-0.5,0.91992-0.7998,1.62988-0.7998
		C89.29688,4.99268,89.8457,5.67236,89.8457,6.98145z"/>
	<path d="M96.32617,9.9502c-0.25977,0.07959-0.51953,0.12988-0.74902,0.12988c-0.66016,0-1.13965-0.37012-1.13965-1.23926V5.65234
		h-0.81934V5.07275h0.81934V3.69336l0.68945-0.51953v1.89893h1.18945v0.57959h-1.18945v3.09814
		c0,0.47998,0.21973,0.69971,0.61035,0.69971c0.16992,0,0.35938-0.04004,0.5791-0.10986L96.32617,9.9502z"/>
	<path d="M101.56543,6.98145V10h-0.68945V7.15137c0-1.06934-0.33984-1.54883-1.0791-1.54883
		c-0.93945,0-1.46875,0.76953-1.46875,2.12891V10H97.6377V3.03369h0.69043v2.75879c0.31934-0.5,0.91895-0.7998,1.62891-0.7998
		C101.0166,4.99268,101.56543,5.67236,101.56543,6.98145z"/>
	<path d="M107.16602,7.72119h-3.6084c0.02051,1.07959,0.62012,1.729,1.58887,1.729c0.54004,0,0.96973-0.13965,1.41992-0.61963
		l0.47949,0.41992c-0.58008,0.60938-1.14941,0.82959-1.90918,0.82959c-1.49902,0-2.26855-1.11963-2.26855-2.51855
		c0-1.38965,0.75977-2.56885,2.18848-2.56885c1.50977,0,2.13867,1.1792,2.13867,2.29883
		C107.19531,7.43164,107.18555,7.60107,107.16602,7.72119z M103.55762,7.1416h2.97852c0-0.02002-0.00977-0.06982-0.00977-0.16016
		c-0.0498-0.79932-0.55957-1.40918-1.46973-1.40918C104.16699,5.57227,103.61816,6.27197,103.55762,7.1416z"/>
	<path d="M4.45801,21.9502c-0.25977,0.07959-0.51953,0.12988-0.74902,0.12988c-0.66016,0-1.13965-0.37012-1.13965-1.23926v-3.18848
		H1.75v-0.57959h0.81934v-1.37939l0.68945-0.51953v1.89893h1.18945v0.57959H3.25879v3.09814
		c0,0.47998,0.21973,0.69971,0.61035,0.69971c0.16992,0,0.35938-0.04004,0.5791-0.10986L4.45801,21.9502z"/>
	<path d="M7.17871,21.93994l-2.08887-4.86719h0.75977l1.69922,4.05762l1.48926-4.05762h0.75977l-2.69922,6.96631H6.35938
		L7.17871,21.93994z"/>
	<path d="M15.42676,19.53125c0,1.46924-0.75,2.54883-2.18848,2.54883c-0.71973,0-1.26953-0.27979-1.62891-0.73975v2.69873h-0.69043
		v-6.96631h0.69043v0.65967c0.36914-0.47998,0.92871-0.74951,1.62891-0.74951
		C14.60742,16.98291,15.42676,17.99219,15.42676,19.53125z M14.7373,19.53125c0-1.16943-0.59961-1.93896-1.59961-1.93896
		c-0.98926,0-1.58887,0.76953-1.58887,1.93896c0,1.11963,0.5498,1.93896,1.58887,1.93896
		C14.1875,21.47021,14.7373,20.65088,14.7373,19.53125z"/>
	<path d="M20.75781,19.72119h-3.6084c0.02051,1.07959,0.62012,1.729,1.58887,1.729c0.54004,0,0.96973-0.13965,1.41992-0.61963
		l0.47949,0.41992c-0.58008,0.60938-1.14941,0.82959-1.90918,0.82959c-1.49902,0-2.26855-1.11963-2.26855-2.51855
		c0-1.38965,0.75977-2.56885,2.18848-2.56885c1.50977,0,2.13867,1.1792,2.13867,2.29883
		C20.78711,19.43164,20.77734,19.60107,20.75781,19.72119z M17.14941,19.1416h2.97852c0-0.02002-0.00977-0.06982-0.00977-0.16016
		c-0.0498-0.79932-0.55957-1.40918-1.46973-1.40918C17.75879,17.57227,17.20996,18.27197,17.14941,19.1416z"/>
	<path d="M21.64941,20.79053l0.5791-0.25977c0.18066,0.50977,0.66016,0.93945,1.42969,0.93945
		c0.66992,0,1.09961-0.32959,1.09961-0.84961c0-1.30908-2.83887-0.48975-2.83887-2.23877c0-0.85938,0.7002-1.38916,1.68945-1.38916
		c0.78906,0,1.42871,0.33008,1.76855,1.0293l-0.5498,0.2998c-0.23926-0.43945-0.62891-0.71924-1.23926-0.71924
		c-0.60938,0-0.99902,0.24951-0.99902,0.67969c0,1.16895,2.84863,0.42969,2.84863,2.29834
		c0,0.99951-0.81934,1.49951-1.76953,1.49951C22.69922,22.08008,21.90918,21.58008,21.64941,20.79053z"/>
	<path d="M29.13867,19.53125c0-1.45898,0.9502-2.53857,2.35938-2.53857c1.39844,0,2.36816,1.07959,2.36816,2.53857
		c0,1.44922-0.95898,2.54883-2.36816,2.54883S29.13867,20.99072,29.13867,19.53125z M33.17676,19.53125
		c0-1.11914-0.62988-1.92871-1.67871-1.92871c-1.05957,0-1.66992,0.81934-1.66992,1.92871
		c0,1.11963,0.62012,1.93896,1.66992,1.93896C32.55664,21.47021,33.17676,20.63086,33.17676,19.53125z"/>
	<path d="M35.55859,17.65234h-1.03906v-0.57959h1.0498v-0.75977c0-1.04932,0.60938-1.35889,1.23926-1.35889
		c0.26953,0,0.56934,0.05957,0.87891,0.18945l-0.23926,0.5498c-0.20996-0.09961-0.40039-0.15967-0.57031-0.15967
		c-0.38965,0-0.62891,0.26953-0.62891,0.72949v0.80957h1.41895v0.57959h-1.41895V22h-0.69043V17.65234z"/>
	<path d="M41.43848,20.93066v-5.89697h0.69043v5.85693c0,0.33984,0.11914,0.55957,0.44922,0.55957
		c0.15039,0,0.32031-0.04004,0.46973-0.08984l0.00977,0.58984c-0.20996,0.06982-0.45898,0.12988-0.67969,0.12988
		C41.80859,22.08008,41.43848,21.7002,41.43848,20.93066z"/>
	<path d="M44.11914,15.03369h0.7998v1.01953h-0.7998V15.03369z M44.17871,17.07275h0.69043V22h-0.69043V17.07275z"/>
	<path d="M46.15918,20.79053l0.5791-0.25977c0.18066,0.50977,0.66016,0.93945,1.42969,0.93945
		c0.66992,0,1.09961-0.32959,1.09961-0.84961c0-1.30908-2.83887-0.48975-2.83887-2.23877c0-0.85938,0.7002-1.38916,1.68945-1.38916
		c0.78906,0,1.42871,0.33008,1.76855,1.0293l-0.5498,0.2998c-0.23926-0.43945-0.62891-0.71924-1.23926-0.71924
		c-0.60938,0-0.99902,0.24951-0.99902,0.67969c0,1.16895,2.84863,0.42969,2.84863,2.29834
		c0,0.99951-0.81934,1.49951-1.76953,1.49951C47.20898,22.08008,46.41895,21.58008,46.15918,20.79053z"/>
	<path d="M53.39746,21.9502c-0.25977,0.07959-0.51953,0.12988-0.74902,0.12988c-0.66016,0-1.13965-0.37012-1.13965-1.23926v-3.18848
		h-0.81934v-0.57959h0.81934v-1.37939l0.68945-0.51953v1.89893h1.18945v0.57959h-1.18945v3.09814
		c0,0.47998,0.21973,0.69971,0.61035,0.69971c0.16992,0,0.35938-0.04004,0.5791-0.10986L53.39746,21.9502z"/>
</g>
</svg>
