<svg xmlns="http://www.w3.org/2000/svg" width="145.922" height="82.446" viewBox="0 0 145.922 82.446">
  <g id="Raggruppa_4043" data-name="Raggruppa 4043" transform="translate(-0.301 35.006)">
    <g id="Raggruppa_4040" data-name="Raggruppa 4040">
      <g id="Group_299" data-name="Group 299">
        <g id="Group-3-2" transform="translate(77.309 129.497) rotate(-90)">
          <path id="Path-6-2" d="M138.513,10.427H127.734" transform="translate(0 -1.521)" fill="none" stroke="#444" stroke-width="0.25" stroke-dasharray="1.9 1.9"/>
        </g>
        <g id="Group-3-2-2" data-name="Group-3-2" transform="translate(170.122 95.753) rotate(-137)">
          <path id="Path-6-2-2" data-name="Path-6-2" d="M162.191,10.427H127.734" transform="translate(0 -1.521)" fill="none" stroke="#444" stroke-width="0.25" stroke-dasharray="1.9 1.9"/>
        </g>
        <g id="Group-3-2-3" data-name="Group-3-2" transform="translate(19.415 129.496) rotate(-90)">
          <path id="Path-6-2-3" data-name="Path-6-2" d="M150.512,10.427H127.734" transform="translate(0 -1.521)" fill="none" stroke="#444" stroke-width="0.25" stroke-dasharray="1.9 1.9"/>
        </g>
        <g id="Group_273" data-name="Group 273" transform="translate(1.771 -17)">
          <g id="Raggruppa_4038" data-name="Raggruppa 4038">
            <g id="Group_272" data-name="Group 272">
              <text id="elenchi" transform="translate(23.91 -7.015)" font-size="10" font-family="HKGrotesk-Regular, HK Grotesk" style="isolation: isolate"><tspan x="0" y="0">elenchi</tspan></text>
            </g>
          </g>
        </g>
      </g>
    </g>
    <g id="Ellipse_22" data-name="Ellipse 22">
      <path id="Path_89" data-name="Path 89" d="M24.036,1.35h0" fill="none" stroke="#5151fc" stroke-linejoin="round" stroke-width="2.684"/>
      <path id="Path_89-2" data-name="Path 89" d="M24.036,46.06A22.379,22.379,0,0,1,1.681,23.7" fill="none" stroke="#ccc" stroke-miterlimit="10" stroke-width="2.76"/>
      <path id="Path_89-3" data-name="Path 89" d="M1.681,23.7A22.379,22.379,0,0,1,24.036,1.35" fill="none" stroke="#ccc" stroke-miterlimit="10" stroke-width="2.76"/>
      <path id="Path_90" data-name="Path 90" d="M46.391,23.7A22.379,22.379,0,0,1,24.036,46.06" fill="none" stroke="#ccc" stroke-miterlimit="10" stroke-width="2.76"/>
      <path id="Path_90-2" data-name="Path 90" d="M24.036,1.35" fill="none" stroke="#f36" stroke-miterlimit="10" stroke-width="2.76"/>
      <path id="Path_90-3" data-name="Path 90" d="M24.036,1.35A22.38,22.38,0,0,1,46.391,23.7" fill="none" stroke="#0cc" stroke-miterlimit="10" stroke-width="2.76"/>
    </g>
    <text id="percentuale_inferiore_al_5_" data-name="percentuale inferiore al 5%" transform="translate(79.223 -35.006)" font-size="10" font-family="HKGrotesk-Regular, HK Grotesk"><tspan x="0" y="10">percentuale </tspan><tspan x="0" y="23">inferiore al 5%</tspan></text>
    <g id="Raggruppa_4044" data-name="Raggruppa 4044" transform="translate(-31.957)">
      <path id="Path_89-4" data-name="Path 89" d="M110.994,46.06A22.379,22.379,0,0,1,88.638,23.7" fill="none" stroke="#ccc" stroke-miterlimit="10" stroke-width="2.76"/>
      <path id="Path_89-5" data-name="Path 89" d="M88.638,23.7A22.38,22.38,0,0,1,110.994,1.35" fill="none" stroke="#ccc" stroke-miterlimit="10" stroke-width="2.76"/>
      <path id="Path_90-4" data-name="Path 90" d="M133.349,23.7A22.379,22.379,0,0,1,110.994,46.06" fill="none" stroke="#ccc" stroke-miterlimit="10" stroke-width="2.76"/>
      <path id="Path_90-5" data-name="Path 90" d="M130.218,12.3a22.225,22.225,0,0,1,3.131,11.4" fill="none" stroke="#ccc" stroke-miterlimit="10" stroke-width="2.76"/>
      <path id="Path_90-6" data-name="Path 90" d="M126.336,7.46a22.475,22.475,0,0,1,3.882,4.844" fill="none" stroke="#ccc" stroke-miterlimit="10" stroke-width="2.76"/>
      <path id="Path_90-7" data-name="Path 90" d="M110.994,1.35A22.228,22.228,0,0,1,121.172,3.8" fill="none" stroke="#000" stroke-miterlimit="10" stroke-width="2.76"/>
      <path id="Path_90-8" data-name="Path 90" d="M121.172,3.8a22.452,22.452,0,0,1,5.164,3.656" fill="none" stroke="#ccc" stroke-miterlimit="10" stroke-width="2.76"/>
    </g>
  </g>
</svg>
