<?xml version="1.0" encoding="utf-8"?>
<!-- Generator: Adobe Illustrator 25.0.0, SVG Export Plug-In . SVG Version: 6.00 Build 0)  -->
<svg version="1.1" id="Livello_1" xmlns="http://www.w3.org/2000/svg" xmlns:xlink="http://www.w3.org/1999/xlink" x="0px" y="0px"
	 viewBox="0 0 145 82.4" enable-background="new 0 0 145 82.4" xml:space="preserve">
<path id="Path-6-2" fill="none" stroke="#444444" stroke-width="0.25" stroke-dasharray="1.9,1.9" d="M85.408,26.00299v10.8"/>
<path id="Path-6-2-2" fill="none" stroke="#444444" stroke-width="0.25" stroke-dasharray="1.9,1.9" d="M56.84121,13.64462
	l25.2317,23.52894"/>
<path id="Path-6-2-3" fill="none" stroke="#444444" stroke-width="0.25" stroke-dasharray="1.9,1.9" d="M27.514,14.002v22.8"/>
<g id="Raggruppa_4038">
	<g id="Group_272">
		<g enable-background="new    ">
			<path d="M26.05811,4.02539h4.56787v0.65918h-3.85791v2.42871h3.46777v0.66016h-3.46777v2.55859h3.85791v0.65918h-4.56787V4.02539
				z"/>
			<path d="M32.1084,9.92188V4.02539h0.68945v5.85645c0,0.33984,0.12012,0.55957,0.44971,0.55957
				c0.1499,0,0.31982-0.04004,0.46973-0.08984l0.01025,0.58984c-0.20996,0.06934-0.45996,0.12988-0.67969,0.12988
				C32.47803,11.07129,32.1084,10.69141,32.1084,9.92188z"/>
			<path d="M38.74561,8.71289H35.1377c0.02002,1.0791,0.61963,1.72852,1.58936,1.72852c0.53955,0,0.96924-0.13965,1.41895-0.61914
				l0.47998,0.41895c-0.57959,0.61035-1.14941,0.83008-1.90918,0.83008c-1.49902,0-2.26855-1.11914-2.26855-2.51855
				c0-1.38965,0.75977-2.56836,2.18896-2.56836c1.50879,0,2.13867,1.17871,2.13867,2.29785
				C38.77588,8.42285,38.76562,8.59277,38.74561,8.71289z M35.1377,8.13281h2.97852c0-0.02051-0.01025-0.07031-0.01025-0.16016
				c-0.0498-0.7998-0.55957-1.40918-1.46875-1.40918C35.74756,6.56348,35.19775,7.26367,35.1377,8.13281z"/>
			<path d="M44.09619,7.97266v3.01855h-0.68945V8.14258c0-1.05957-0.33984-1.54883-1.07959-1.54883
				c-0.92969,0-1.46924,0.7998-1.46924,2.18848v2.20898h-0.68945V6.06348h0.68945V6.7832
				c0.31982-0.49902,0.91943-0.79883,1.62891-0.79883C43.54639,5.98438,44.09619,6.66406,44.09619,7.97266z"/>
			<path d="M45.38818,8.54297c0-1.2998,0.72998-2.55859,2.21924-2.55859c0.87939,0,1.60889,0.43945,1.99854,1.3584l-0.65967,0.26074
				c-0.22949-0.62988-0.71924-1.00977-1.33887-1.00977c-1.0498,0-1.51953,0.93945-1.51953,1.94922
				c0,1.00879,0.46973,1.91895,1.5293,1.91895c0.61963,0,1.10938-0.37012,1.29932-1l0.63965,0.24023
				c-0.33008,0.89941-1.04932,1.36914-1.93896,1.36914C46.18799,11.07129,45.38818,9.91211,45.38818,8.54297z"/>
			<path d="M54.80615,7.97266v3.01855H54.1167V8.14258c0-1.06934-0.33984-1.54883-1.07959-1.54883
				c-0.93945,0-1.46924,0.76953-1.46924,2.12891v2.26855h-0.68945V4.02539h0.68945V6.7832
				c0.31982-0.49902,0.91943-0.79883,1.62891-0.79883C54.25635,5.98438,54.80615,6.66406,54.80615,7.97266z"/>
			<path d="M56.44824,4.02539h0.79932v1.01953h-0.79932V4.02539z M56.5083,6.06348h0.68945v4.92773H56.5083V6.06348z"/>
		</g>
	</g>
</g>
<path id="Path_89" fill="none" stroke="#5151FC" stroke-width="2.684" stroke-linejoin="round" d="M23.299,36.306L23.299,36.306"/>
<path id="Path_89-2" fill="none" stroke="#CCCCCC" stroke-width="2.76" stroke-miterlimit="10" d="M23.299,81.106
	c-12.4-0.10001-22.4-10.10001-22.4-22.4"/>
<path id="Path_89-3" fill="none" stroke="#CCCCCC" stroke-width="2.76" stroke-miterlimit="10" d="M0.899,58.706
	c0-12.3,10-22.3,22.4-22.4"/>
<path id="Path_90" fill="none" stroke="#CCCCCC" stroke-width="2.76" stroke-miterlimit="10" d="M45.599,58.706
	c0,12.3-10,22.3-22.4,22.4"/>
<path id="Path_90-2" fill="none" stroke="#FF3366" stroke-width="2.76" stroke-miterlimit="10" d="M23.299,36.306"/>
<path id="Path_90-3" fill="none" stroke="#00CCCC" stroke-width="2.76" stroke-miterlimit="10" d="M23.299,36.306
	c12.3,0,22.3,10,22.4,22.4"/>
<g enable-background="new    ">
	<path d="M79.60059,3.03418h1.98926c1.47852,0,2.29883,0.69922,2.29883,1.94824c0,1.26953-0.83008,1.97949-2.29883,1.97949h-1.2793
		V10h-0.70996V3.03418z M81.51953,6.30176c1.08984,0,1.64941-0.44922,1.64941-1.30859c0-0.86035-0.55957-1.2998-1.64941-1.2998
		h-1.20898v2.6084H81.51953z"/>
	<path d="M88.79785,7.72168h-3.60742c0.01953,1.0791,0.61914,1.72852,1.58887,1.72852c0.54004,0,0.96973-0.13965,1.41895-0.61914
		L88.67871,9.25c-0.58008,0.61035-1.14941,0.83008-1.90918,0.83008c-1.49902,0-2.26855-1.11914-2.26855-2.51855
		c0-1.38965,0.75977-2.56836,2.18848-2.56836c1.50879,0,2.13867,1.17871,2.13867,2.29785
		C88.82812,7.43164,88.81836,7.60156,88.79785,7.72168z M85.19043,7.1416h2.97852c0-0.02051-0.01074-0.07031-0.01074-0.16016
		c-0.0498-0.7998-0.55957-1.40918-1.46875-1.40918C85.7998,5.57227,85.25,6.27246,85.19043,7.1416z"/>
	<path d="M93.21875,5.20312L92.87891,5.7627c-0.22949-0.10059-0.43945-0.15039-0.64941-0.15039
		c-0.75977,0-1.31934,0.56934-1.31934,1.63965V10H90.2207V5.07227h0.68945V5.8125c0.36035-0.64941,0.95996-0.81934,1.45898-0.81934
		C92.66895,4.99316,92.94922,5.05273,93.21875,5.20312z"/>
	<path d="M93.38086,7.55176c0-1.2998,0.72949-2.55859,2.21875-2.55859c0.87988,0,1.60938,0.43945,1.99902,1.3584L96.93848,6.6123
		c-0.22949-0.62988-0.71875-1.00977-1.33887-1.00977c-1.0498,0-1.51953,0.93945-1.51953,1.94922
		c0,1.00879,0.46973,1.91895,1.5293,1.91895c0.62012,0,1.10938-0.37012,1.2998-1l0.63965,0.24023
		c-0.33008,0.89941-1.0498,1.36914-1.93945,1.36914C94.18066,10.08008,93.38086,8.9209,93.38086,7.55176z"/>
	<path d="M102.71777,7.72168h-3.60742c0.01953,1.0791,0.61914,1.72852,1.58887,1.72852c0.54004,0,0.96973-0.13965,1.41895-0.61914
		L102.59863,9.25c-0.58008,0.61035-1.14941,0.83008-1.90918,0.83008c-1.49902,0-2.26855-1.11914-2.26855-2.51855
		c0-1.38965,0.75977-2.56836,2.18848-2.56836c1.50879,0,2.13867,1.17871,2.13867,2.29785
		C102.74805,7.43164,102.73828,7.60156,102.71777,7.72168z M99.11035,7.1416h2.97852c0-0.02051-0.01074-0.07031-0.01074-0.16016
		c-0.0498-0.7998-0.55957-1.40918-1.46875-1.40918C99.71973,5.57227,99.16992,6.27246,99.11035,7.1416z"/>
	<path d="M108.06836,6.98145V10h-0.68945V7.15137c0-1.05957-0.33984-1.54883-1.0791-1.54883
		c-0.92969,0-1.46973,0.7998-1.46973,2.18848V10h-0.68945V5.07227h0.68945v0.71973c0.32031-0.49902,0.91992-0.79883,1.62891-0.79883
		C107.51855,4.99316,108.06836,5.67285,108.06836,6.98145z"/>
	<path d="M111.81934,9.9502c-0.25977,0.08008-0.51953,0.12988-0.74902,0.12988c-0.66016,0-1.13965-0.37012-1.13965-1.23926V5.65234
		h-0.81934V5.07227h0.81934V3.69336l0.68945-0.51953v1.89844h1.18945v0.58008h-1.18945v3.09863
		c0,0.47949,0.21973,0.69922,0.60938,0.69922c0.16992,0,0.36035-0.04004,0.58008-0.10938L111.81934,9.9502z"/>
	<path d="M116.93848,5.07227V10h-0.68945V9.29004c-0.35059,0.53027-0.97949,0.79004-1.62988,0.79004
		c-1.11914,0-1.6084-0.76953-1.6084-1.98926V5.07227h0.68945V7.9209c0,0.7998,0.13965,1.5498,1.0791,1.5498
		c0.97949,0,1.46973-0.84961,1.46973-2.12891V5.07227H116.93848z"/>
	<path d="M122.42871,6.93164V10h-0.62988l-0.04004-0.75977c-0.38965,0.5498-0.98926,0.83984-1.76953,0.83984
		c-1.06934,0-1.69824-0.55957-1.69824-1.50977c0-0.49902,0.19922-0.87891,0.55957-1.09863
		c0.37988-0.21973,0.90918-0.31055,1.87891-0.31055h1.00879V6.93164c0-0.85938-0.44922-1.3291-1.2793-1.3291
		c-0.61914,0-1.09863,0.26953-1.49902,0.81934l-0.49902-0.41992c0.5293-0.68945,1.16895-1.00879,2.00879-1.00879
		C121.70898,4.99316,122.42871,5.70215,122.42871,6.93164z M121.73828,7.79102V7.72168h-0.94922
		c-0.90918,0-1.29883,0.05957-1.53906,0.24902c-0.17969,0.14062-0.26953,0.36035-0.26953,0.63965
		c0,0.5498,0.46973,0.90039,1.20898,0.90039C121.13867,9.51074,121.73828,8.84082,121.73828,7.79102z"/>
	<path d="M124.07031,8.93066V3.03418h0.68945v5.85645c0,0.33984,0.12012,0.55957,0.4502,0.55957
		c0.14941,0,0.31934-0.04004,0.46973-0.08984l0.00977,0.58984c-0.20996,0.06934-0.45996,0.12988-0.67969,0.12988
		C124.44043,10.08008,124.07031,9.7002,124.07031,8.93066z"/>
	<path d="M130.70801,7.72168h-3.6084c0.02051,1.0791,0.62012,1.72852,1.58984,1.72852c0.53906,0,0.96875-0.13965,1.41895-0.61914
		L130.58789,9.25c-0.5791,0.61035-1.14941,0.83008-1.90918,0.83008c-1.49902,0-2.26855-1.11914-2.26855-2.51855
		c0-1.38965,0.75977-2.56836,2.18945-2.56836c1.50879,0,2.13867,1.17871,2.13867,2.29785
		C130.73828,7.43164,130.72754,7.60156,130.70801,7.72168z M127.09961,7.1416h2.97852c0-0.02051-0.00977-0.07031-0.00977-0.16016
		c-0.0498-0.7998-0.55957-1.40918-1.46875-1.40918C127.70996,5.57227,127.16016,6.27246,127.09961,7.1416z"/>
</g>
<g enable-background="new    ">
	<path d="M79.31055,16.03418h0.7998v1.01953h-0.7998V16.03418z M79.37109,18.07227h0.68945V23h-0.68945V18.07227z"/>
	<path d="M85.80859,19.98145V23h-0.68945v-2.84863c0-1.05957-0.33984-1.54883-1.08008-1.54883
		c-0.92969,0-1.46875,0.7998-1.46875,2.18848V23h-0.68945v-4.92773h0.68945v0.71973
		c0.31934-0.49902,0.91895-0.79883,1.62891-0.79883C85.25879,17.99316,85.80859,18.67285,85.80859,19.98145z"/>
	<path d="M87.81055,18.65234h-1.04004v-0.58008h1.0498v-0.75879c0-1.0498,0.60938-1.35938,1.23926-1.35938
		c0.26953,0,0.56934,0.05957,0.87988,0.18945l-0.24023,0.5498c-0.20996-0.09961-0.39941-0.16016-0.56934-0.16016
		c-0.39062,0-0.62988,0.27051-0.62988,0.72949v0.80957h1.41895v0.58008H88.5V23h-0.68945V18.65234z"/>
	<path d="M94.69824,20.72168h-3.6084c0.02051,1.0791,0.62012,1.72852,1.58984,1.72852c0.53906,0,0.96875-0.13965,1.41895-0.61914
		L94.57812,22.25c-0.5791,0.61035-1.14941,0.83008-1.90918,0.83008c-1.49902,0-2.26855-1.11914-2.26855-2.51855
		c0-1.38965,0.75977-2.56836,2.18945-2.56836c1.50879,0,2.13867,1.17871,2.13867,2.29785
		C94.72852,20.43164,94.71777,20.60156,94.69824,20.72168z M91.08984,20.1416h2.97852c0-0.02051-0.00977-0.07031-0.00977-0.16016
		c-0.0498-0.7998-0.55957-1.40918-1.46875-1.40918C91.7002,18.57227,91.15039,19.27246,91.08984,20.1416z"/>
	<path d="M99.11914,18.20312L98.7793,18.7627c-0.22949-0.10059-0.43945-0.15039-0.64941-0.15039
		c-0.75977,0-1.31934,0.56934-1.31934,1.63965V23h-0.68945v-4.92773h0.68945v0.74023
		c0.35938-0.64941,0.95898-0.81934,1.45898-0.81934C98.56934,17.99316,98.84961,18.05273,99.11914,18.20312z"/>
	<path d="M100.08105,16.03418h0.79883v1.01953h-0.79883V16.03418z M100.14062,18.07227h0.68945V23h-0.68945V18.07227z"/>
	<path d="M102.2207,20.53125c0-1.45898,0.94922-2.53809,2.3584-2.53809c1.39941,0,2.36914,1.0791,2.36914,2.53809
		c0,1.44922-0.95996,2.54883-2.36914,2.54883S102.2207,21.99023,102.2207,20.53125z M106.25879,20.53125
		c0-1.11914-0.62988-1.92871-1.67969-1.92871c-1.05957,0-1.66895,0.81934-1.66895,1.92871
		c0,1.11914,0.62012,1.93945,1.66895,1.93945C105.63867,22.4707,106.25879,21.63086,106.25879,20.53125z"/>
	<path d="M111.33887,18.20312l-0.33984,0.55957c-0.22949-0.10059-0.43945-0.15039-0.64941-0.15039
		c-0.75977,0-1.31934,0.56934-1.31934,1.63965V23h-0.68945v-4.92773h0.68945v0.74023
		c0.35938-0.64941,0.95898-0.81934,1.45898-0.81934C110.78906,17.99316,111.06934,18.05273,111.33887,18.20312z"/>
	<path d="M115.80762,20.72168h-3.60742c0.01953,1.0791,0.61914,1.72852,1.58887,1.72852c0.54004,0,0.96973-0.13965,1.41895-0.61914
		l0.48047,0.41895c-0.58008,0.61035-1.14941,0.83008-1.90918,0.83008c-1.49902,0-2.26855-1.11914-2.26855-2.51855
		c0-1.38965,0.75977-2.56836,2.18848-2.56836c1.50879,0,2.13867,1.17871,2.13867,2.29785
		C115.83789,20.43164,115.82812,20.60156,115.80762,20.72168z M112.2002,20.1416h2.97852c0-0.02051-0.01074-0.07031-0.01074-0.16016
		c-0.0498-0.7998-0.55957-1.40918-1.46875-1.40918C112.80957,18.57227,112.25977,19.27246,112.2002,20.1416z"/>
	<path d="M123.62793,19.93164V23h-0.62988l-0.04004-0.75977c-0.38965,0.5498-0.98926,0.83984-1.76855,0.83984
		c-1.06934,0-1.69922-0.55957-1.69922-1.50977c0-0.49902,0.2002-0.87891,0.55957-1.09863
		c0.37988-0.21973,0.91016-0.31055,1.87891-0.31055h1.00977v-0.22949c0-0.85938-0.4502-1.3291-1.2793-1.3291
		c-0.62012,0-1.09961,0.26953-1.49902,0.81934l-0.5-0.41992c0.5293-0.68945,1.16895-1.00879,2.00879-1.00879
		C122.9082,17.99316,123.62793,18.70215,123.62793,19.93164z M122.93848,20.79102v-0.06934h-0.94922
		c-0.91016,0-1.2998,0.05957-1.53906,0.24902c-0.18066,0.14062-0.27051,0.36035-0.27051,0.63965
		c0,0.5498,0.46973,0.90039,1.20996,0.90039C122.33887,22.51074,122.93848,21.84082,122.93848,20.79102z"/>
	<path d="M125.27051,21.93066v-5.89648h0.68945v5.85645c0,0.33984,0.12012,0.55957,0.44922,0.55957
		c0.15039,0,0.32031-0.04004,0.46973-0.08984l0.01074,0.58984c-0.20996,0.06934-0.45996,0.12988-0.67969,0.12988
		C125.63965,23.08008,125.27051,22.7002,125.27051,21.93066z"/>
	<path d="M135.05762,20.6416c0,1.31934-1.0293,2.43848-2.41895,2.43848c-1.25879,0-2.16895-0.88965-2.36816-2.00879l0.67871-0.11035
		c0.15039,0.83984,0.78027,1.45898,1.68945,1.45898c1.0293,0,1.68945-0.8291,1.68945-1.77832
		c0-0.91992-0.59961-1.65918-1.60938-1.65918c-0.66992,0-1.17969,0.33008-1.5293,0.83887l-0.69922-0.18945l0.62891-3.59766h3.6084
		v0.65918h-3.03809l-0.40039,2.25879c0.46973-0.43945,1-0.60938,1.50977-0.60938
		C134.1084,18.34277,135.05762,19.3623,135.05762,20.6416z"/>
	<path d="M136.2002,17.5332c0-0.79004,0.43945-1.5791,1.29883-1.5791c0.76953,0,1.31934,0.67969,1.31934,1.58887
		c0,0.88965-0.54004,1.55957-1.28906,1.55957C136.64941,19.10254,136.2002,18.32227,136.2002,17.5332z M138.33887,17.54297
		c0-0.59961-0.2998-1.10938-0.83984-1.10938c-0.5791,0-0.81934,0.55957-0.81934,1.09961c0,0.53906,0.25,1.08887,0.84961,1.08887
		C137.99902,18.62207,138.33887,18.17285,138.33887,17.54297z M140.99707,16.03418h0.5L137.56934,23h-0.50977L140.99707,16.03418z
		 M139.74805,21.50098c0-0.7793,0.43945-1.56934,1.29883-1.56934c0.76953,0,1.31934,0.67969,1.31934,1.5791
		s-0.53906,1.56934-1.28906,1.56934C140.1875,23.08008,139.74805,22.28027,139.74805,21.50098z M141.88672,21.51074
		c0-0.58984-0.29004-1.09961-0.83984-1.09961c-0.56934,0-0.81934,0.5498-0.81934,1.08984s0.25,1.09961,0.84961,1.09961
		C141.55664,22.60059,141.88672,22.14062,141.88672,21.51074z"/>
</g>
<path id="Path_89-4" fill="none" stroke="#CCCCCC" stroke-width="2.76" stroke-miterlimit="10" d="M78.242,81.106
	c-12.3,0-22.3-10-22.4-22.4"/>
<path id="Path_89-5" fill="none" stroke="#CCCCCC" stroke-width="2.76" stroke-miterlimit="10" d="M55.942,58.706
	c0-12.3,10-22.3,22.4-22.4"/>
<path id="Path_90-4" fill="none" stroke="#CCCCCC" stroke-width="2.76" stroke-miterlimit="10" d="M100.64199,58.706
	c0,12.3-10,22.3-22.4,22.4"/>
<path id="Path_90-5" fill="none" stroke="#CCCCCC" stroke-width="2.76" stroke-miterlimit="10" d="M97.542,47.306
	c2.10001,3.4,3.10001,7.4,3.10001,11.4"/>
<path id="Path_90-6" fill="none" stroke="#CCCCCC" stroke-width="2.76" stroke-miterlimit="10" d="M93.642,42.506
	c1.5,1.4,2.8,3.1,3.9,4.8"/>
<path id="Path_90-7" fill="none" stroke="#000000" stroke-width="2.76" stroke-miterlimit="10" d="M78.242,36.306
	c3.5,0,7,0.8,10.2,2.4"/>
<path id="Path_90-8" fill="none" stroke="#CCCCCC" stroke-width="2.76" stroke-miterlimit="10" d="M88.44199,38.806
	c1.9,1,3.6,2.2,5.2,3.7"/>
</svg>
