<svg xmlns="http://www.w3.org/2000/svg" width="457.202" height="32.708" viewBox="0 0 457.202 32.708">
  <g id="Layer_1_1_" transform="translate(0 -6.144)">
    <g id="Group-7_1_" transform="translate(392 13.674)">
      <text id="_Type_of_lists_in_the_text" data-name="% Type of lists in the text" transform="translate(-47.798 21.971)" font-size="10" font-family="HKGrotesk-Regular, HK Grotesk"><tspan x="0" y="0">% Type of lists in the text</tspan></text>
      <g id="Raggruppa_24089" data-name="Raggruppa 24089">
        <g id="Raggruppa_24084" data-name="Raggruppa 24084">
          <line id="Linea_7897" data-name="Linea 7897" y2="30.4" transform="translate(-60.3 -7.4)" fill="none"/>
          <g id="Raggruppa_24083" data-name="Raggruppa 24083">
            <line id="Linea_7898" data-name="Linea 7898" y2="30.1" transform="translate(-60.3 -7.2)" fill="none" stroke="#1d1d1b" stroke-miterlimit="10" stroke-width="0.25"/>
            <g id="Raggruppa_24081" data-name="Raggruppa 24081">
              <rect id="Rettangolo_19229" data-name="Rettangolo 19229" width="1.6" height="0.2" transform="translate(-61.1 -7.4)" fill="#1d1d1b"/>
            </g>
            <g id="Raggruppa_24082" data-name="Raggruppa 24082">
              <rect id="Rettangolo_19230" data-name="Rettangolo 19230" width="1.6" height="0.2" transform="translate(-61.1 22.8)" fill="#1d1d1b"/>
            </g>
          </g>
        </g>
        <g id="Raggruppa_24086" data-name="Raggruppa 24086">
          <line id="Linea_7899" data-name="Linea 7899" x2="15.5" transform="translate(-77.4 -7.4)" fill="none"/>
          <g id="Raggruppa_24085" data-name="Raggruppa 24085">
            <line id="Linea_7900" data-name="Linea 7900" x2="0.5" transform="translate(-77.4 -7.4)" fill="none" stroke="#1d1d1b" stroke-miterlimit="10" stroke-width="0.26"/>
            <line id="Linea_7901" data-name="Linea 7901" x2="12.9" transform="translate(-75.8 -7.4)" fill="none" stroke="#1d1d1b" stroke-miterlimit="10" stroke-width="0.26" stroke-dasharray="1.115 1.115"/>
            <line id="Linea_7902" data-name="Linea 7902" x2="0.5" transform="translate(-62.4 -7.4)" fill="none" stroke="#1d1d1b" stroke-miterlimit="10" stroke-width="0.26"/>
          </g>
        </g>
        <path id="Tracciato_148124" data-name="Tracciato 148124" d="M-77.4-7.4c-6.1,0-6.1,25.9-12.2,25.9S-95.7,23-101.8,23h36.7C-71.3,23-71.3-7.4-77.4-7.4Z" fill="none" stroke="#1d1d1b" stroke-miterlimit="10" stroke-width="0.25"/>
        <g id="Raggruppa_24088" data-name="Raggruppa 24088">
          <line id="Linea_7903" data-name="Linea 7903" x2="3.3" transform="translate(-65.2 23)" fill="none"/>
          <g id="Raggruppa_24087" data-name="Raggruppa 24087">
            <line id="Linea_7904" data-name="Linea 7904" x2="0.5" transform="translate(-65.2 23)" fill="none" stroke="#1d1d1b" stroke-miterlimit="10" stroke-width="0.26"/>
            <line id="Linea_7905" data-name="Linea 7905" x2="1.1" transform="translate(-63.9 23)" fill="none" stroke="#1d1d1b" stroke-miterlimit="10" stroke-width="0.26" stroke-dasharray="0.758 0.758"/>
            <line id="Linea_7906" data-name="Linea 7906" x2="0.5" transform="translate(-62.4 23)" fill="none" stroke="#1d1d1b" stroke-miterlimit="10" stroke-width="0.26"/>
          </g>
        </g>
      </g>
    </g>
    <text id="Clauses" transform="translate(24.958 35.852)" font-size="10" font-family="HKGrotesk-Regular, HK Grotesk"><tspan x="0" y="0">Clauses</tspan></text>
    <path id="Rectangle_179_1_" d="M-96.441,15.1h9.882A5.28,5.28,0,0,1-81,20.1h0a5.28,5.28,0,0,1-5.559,5h-9.882a5.28,5.28,0,0,1-5.559-5h0A5.28,5.28,0,0,1-96.441,15.1Z" transform="translate(102 12.576)" fill="#5151fc"/>
    <text id="Mixed" transform="translate(99.189 35.852)" font-size="10" font-family="HKGrotesk-Regular, HK Grotesk"><tspan x="0" y="0">Mixed</tspan></text>
    <path id="Rectangle_180_1_" d="M-17.241,15.1h9.882a5.28,5.28,0,0,1,5.559,5h0a5.28,5.28,0,0,1-5.559,5h-9.882a5.28,5.28,0,0,1-5.559-5h0A5.28,5.28,0,0,1-17.241,15.1Z" transform="translate(96 12.576)" fill="#f36"/>
    <text id="Words" transform="translate(166.625 35.852)" font-size="10" font-family="HKGrotesk-Regular, HK Grotesk"><tspan x="0" y="0">Words</tspan></text>
    <path id="Rectangle_181_1_" d="M64.759,15.1h9.882a5.28,5.28,0,0,1,5.559,5h0a5.28,5.28,0,0,1-5.559,5H64.759a5.28,5.28,0,0,1-5.559-5h0A5.28,5.28,0,0,1,64.759,15.1Z" transform="translate(81 12.576)" fill="#00c19c"/>
    <text id="Phrases" transform="translate(235.422 35.852)" font-size="10" font-family="HKGrotesk-Regular, HK Grotesk"><tspan x="0" y="0">Phrases</tspan></text>
    <path id="Rectangle_182_1_" d="M151.559,15.1h9.882a5.279,5.279,0,0,1,5.559,5h0a5.279,5.279,0,0,1-5.559,5h-9.882a5.28,5.28,0,0,1-5.559-5h0A5.28,5.28,0,0,1,151.559,15.1Z" transform="translate(63 12.576)" fill="orange"/>
  </g>
</svg>
