<?xml version="1.0" encoding="utf-8"?>
<!-- Generator: Adobe Illustrator 25.1.0, SVG Export Plug-In . SVG Version: 6.00 Build 0)  -->
<svg version="1.1" id="Livello_1" xmlns="http://www.w3.org/2000/svg" xmlns:xlink="http://www.w3.org/1999/xlink" x="0px" y="0px"
	 width="457.202px" height="32.708px" viewBox="0 0 457.202 32.708" style="enable-background:new 0 0 457.202 32.708;"
	 xml:space="preserve">
<style type="text/css">
	.st0{enable-background:new    ;}
	.st1{fill:none;}
	.st2{fill:none;stroke:#1D1D1B;stroke-width:0.25;stroke-miterlimit:10;}
	.st3{fill:#1D1D1B;}
	.st4{fill:none;stroke:#1D1D1B;stroke-width:0.26;stroke-miterlimit:10;}
	.st5{fill:none;stroke:#1D1D1B;stroke-width:0.26;stroke-miterlimit:10;stroke-dasharray:1.115,1.115;}
	.st6{fill:none;stroke:#1D1D1B;stroke-width:0.26;stroke-miterlimit:10;stroke-dasharray:0.758,0.758;}
	.st7{fill:#5151FC;}
	.st8{fill:#FF3366;}
	.st9{fill:#00C19C;}
	.st10{fill:#FFA500;}
</style>
<g id="Layer_1_1_" transform="translate(0 -6.144)">
	<g id="Group-7_1_" transform="translate(392 13.674)">
		<g class="st0">
			<path d="M-47.09863,16.50436c0-0.79004,0.43945-1.5791,1.2998-1.5791c0.76953,0,1.31934,0.67969,1.31934,1.58887
				c0,0.88965-0.54004,1.55957-1.29004,1.55957C-46.64844,18.0737-47.09863,17.29342-47.09863,16.50436z M-44.95996,16.51413
				c0-0.59961-0.2998-1.10937-0.83887-1.10937c-0.58008,0-0.82031,0.55957-0.82031,1.09961c0,0.53906,0.25,1.08887,0.84961,1.08887
				C-45.2998,17.59323-44.95996,17.14401-44.95996,16.51413z M-42.30078,15.00534h0.49902l-3.92773,6.96582h-0.50977
				L-42.30078,15.00534z M-43.55078,20.47214c0-0.7793,0.44043-1.56934,1.2998-1.56934c0.76953,0,1.31934,0.67969,1.31934,1.5791
				s-0.54004,1.56934-1.28906,1.56934C-43.11035,22.05124-43.55078,21.25143-43.55078,20.47214z M-41.41113,20.4819
				c0-0.58984-0.29004-1.09961-0.83984-1.09961c-0.57031,0-0.81934,0.5498-0.81934,1.08984s0.24902,1.09961,0.84961,1.09961
				C-41.74121,21.57174-41.41113,21.11178-41.41113,20.4819z"/>
			<path d="M-34.75,15.66452h-2.4082v-0.65918h5.54688v0.65918h-2.41895v6.30664H-34.75V15.66452z"/>
			<path d="M-29.70996,21.91159l-2.08887-4.86816h0.75977l1.69922,4.05859l1.48926-4.05859h0.75977l-2.69824,6.9668h-0.74023
				L-29.70996,21.91159z"/>
			<path d="M-21.46191,19.50241c0,1.46973-0.74902,2.54883-2.18848,2.54883c-0.71973,0-1.26953-0.28027-1.62891-0.73926v2.69824
				h-0.68945v-6.9668h0.68945v0.66016c0.36914-0.47949,0.92969-0.75,1.62891-0.75
				C-22.28125,16.95358-21.46191,17.96335-21.46191,19.50241z M-22.15137,19.50241c0-1.16895-0.59961-1.93848-1.59863-1.93848
				c-0.99023,0-1.58984,0.76953-1.58984,1.93848c0,1.11914,0.5498,1.93945,1.58984,1.93945
				C-22.70117,21.44186-22.15137,20.62155-22.15137,19.50241z"/>
			<path d="M-16.13184,19.69284h-3.60742c0.01953,1.0791,0.61914,1.72852,1.58887,1.72852
				c0.54004,0,0.96973-0.13965,1.41895-0.61914l0.48047,0.41895c-0.58008,0.61035-1.14941,0.83008-1.90918,0.83008
				c-1.49902,0-2.26855-1.11914-2.26855-2.51855c0-1.38965,0.75977-2.56836,2.18848-2.56836
				c1.50879,0,2.13867,1.17871,2.13867,2.29785C-16.10156,19.4028-16.11133,19.57272-16.13184,19.69284z M-19.73926,19.11276
				h2.97852c0-0.02051-0.01074-0.07031-0.01074-0.16016c-0.0498-0.7998-0.55957-1.40918-1.46875-1.40918
				C-19.12988,17.54342-19.67969,18.24362-19.73926,19.11276z"/>
			<path d="M-12.4082,19.50241c0-1.45898,0.94922-2.53809,2.3584-2.53809c1.39941,0,2.36816,1.0791,2.36816,2.53809
				c0,1.44922-0.95898,2.54883-2.36816,2.54883S-12.4082,20.96139-12.4082,19.50241z M-8.37109,19.50241
				c0-1.11914-0.62988-1.92871-1.67871-1.92871c-1.05957,0-1.66895,0.81934-1.66895,1.92871
				c0,1.11914,0.61914,1.93945,1.66895,1.93945C-8.99023,21.44186-8.37109,20.60202-8.37109,19.50241z"/>
			<path d="M-5.98926,17.6235h-1.03906v-0.58008h1.04883v-0.75879c0-1.0498,0.61035-1.35937,1.23926-1.35937
				c0.27051,0,0.57031,0.05957,0.87988,0.18945l-0.24023,0.5498c-0.20997-0.0996-0.39942-0.16015-0.56934-0.16015
				c-0.38965,0-0.62988,0.27051-0.62988,0.72949v0.80957h1.41992v0.58008H-5.2998v4.34766h-0.68945V17.6235H-5.98926z"/>
			<path d="M-0.10938,20.90182v-5.89648h0.68945v5.85644c0,0.33984,0.12012,0.55957,0.4502,0.55957
				c0.14941,0,0.31934-0.04004,0.46973-0.08984l0.00977,0.58984c-0.20996,0.06934-0.45996,0.12988-0.67969,0.12988
				C0.26074,22.05124-0.10938,21.67135-0.10938,20.90182z"/>
			<path d="M2.57031,15.00534h0.7998v1.01953h-0.7998V15.00534z M2.63086,17.04342h0.68945v4.92773H2.63086V17.04342z"/>
			<path d="M4.61133,20.76217l0.5791-0.25977c0.17969,0.50977,0.66016,0.93945,1.42969,0.93945
				c0.66895,0,1.09961-0.33008,1.09961-0.84961c0-1.30957-2.83887-0.49023-2.83887-2.23926
				c0-0.85938,0.69922-1.38867,1.68945-1.38867c0.78906,0,1.42871,0.3291,1.76855,1.0293l-0.5498,0.2998
				C7.5498,17.85299,7.15918,17.5737,6.5498,17.5737s-0.99902,0.25-0.99902,0.67969c0,1.16895,2.84766,0.42969,2.84766,2.29883
				c0,0.99902-0.81934,1.49902-1.76855,1.49902C5.66016,22.05124,4.87109,21.55124,4.61133,20.76217z"/>
			<path d="M11.84961,21.92135c-0.25977,0.08008-0.52051,0.12988-0.75,0.12988c-0.65918,0-1.13965-0.37012-1.13965-1.23926V17.6235
				H9.14062v-0.58008h0.81934v-1.37891l0.69043-0.51953v1.89844h1.18848v0.58008h-1.18848v3.09863
				c0,0.47949,0.21973,0.69922,0.60938,0.69922c0.16992,0,0.35938-0.04004,0.5791-0.10938L11.84961,21.92135z"/>
			<path d="M12.68066,20.76217l0.5791-0.25977c0.17969,0.50977,0.66016,0.93945,1.42969,0.93945
				c0.66895,0,1.09961-0.33008,1.09961-0.84961c0-1.30957-2.83887-0.49023-2.83887-2.23926
				c0-0.85938,0.69922-1.38867,1.68945-1.38867c0.78906,0,1.42871,0.3291,1.76855,1.0293l-0.5498,0.2998
				c-0.23926-0.44043-0.62988-0.71973-1.23926-0.71973s-0.99902,0.25-0.99902,0.67969c0,1.16895,2.84766,0.42969,2.84766,2.29883
				c0,0.99902-0.81934,1.49902-1.76855,1.49902C13.72949,22.05124,12.94043,21.55124,12.68066,20.76217z"/>
			<path d="M20.54004,15.00534h0.7998v1.01953h-0.7998V15.00534z M20.60059,17.04342h0.68945v4.92773h-0.68945V17.04342z"/>
			<path d="M27.03809,18.9526v3.01855h-0.68945v-2.84863c0-1.05957-0.33984-1.54883-1.08008-1.54883
				c-0.92969,0-1.46875,0.7998-1.46875,2.18848v2.20898h-0.68945v-4.92773h0.68945v0.71973
				c0.31934-0.49902,0.91895-0.79883,1.62891-0.79883C26.48828,16.96432,27.03809,17.64401,27.03809,18.9526z"/>
			<path d="M33.51855,21.92135c-0.25977,0.08008-0.51953,0.12988-0.74902,0.12988c-0.66016,0-1.13965-0.37012-1.13965-1.23926
				V17.6235h-0.81934v-0.58008h0.81934v-1.37891l0.68945-0.51953v1.89844h1.18945v0.58008h-1.18945v3.09863
				c0,0.47949,0.21973,0.69922,0.60938,0.69922c0.16992,0,0.36035-0.04004,0.58008-0.10938L33.51855,21.92135z"/>
			<path d="M38.75781,18.9526v3.01855h-0.68945v-2.84863c0-1.06934-0.33984-1.54883-1.08008-1.54883
				c-0.93945,0-1.46875,0.76953-1.46875,2.12891v2.26855h-0.68945v-6.96582h0.68945v2.75781
				c0.31934-0.49902,0.91895-0.79883,1.62891-0.79883C38.20801,16.96432,38.75781,17.64401,38.75781,18.9526z"/>
			<path d="M44.35742,19.69284h-3.6084c0.02051,1.0791,0.62012,1.72852,1.58984,1.72852c0.53906,0,0.96875-0.13965,1.41895-0.61914
				l0.47949,0.41895c-0.5791,0.61035-1.14941,0.83008-1.90918,0.83008c-1.49902,0-2.26855-1.11914-2.26855-2.51855
				c0-1.38965,0.75977-2.56836,2.18945-2.56836c1.50879,0,2.13867,1.17871,2.13867,2.29785
				C44.3877,19.4028,44.37695,19.57272,44.35742,19.69284z M40.74902,19.11276h2.97852c0-0.02051-0.00977-0.07031-0.00977-0.16016
				c-0.0498-0.7998-0.55957-1.40918-1.46875-1.40918C41.35938,17.54342,40.80957,18.24362,40.74902,19.11276z"/>
			<path d="M50.55859,21.92135c-0.25977,0.08008-0.51953,0.12988-0.74902,0.12988c-0.66016,0-1.13965-0.37012-1.13965-1.23926
				V17.6235h-0.81934v-0.58008h0.81934v-1.37891l0.68945-0.51953v1.89844h1.18945v0.58008h-1.18945v3.09863
				c0,0.47949,0.21973,0.69922,0.60938,0.69922c0.16992,0,0.36035-0.04004,0.58008-0.10938L50.55859,21.92135z"/>
			<path d="M55.71777,19.69284h-3.6084c0.02051,1.0791,0.62012,1.72852,1.58984,1.72852c0.53906,0,0.96875-0.13965,1.41895-0.61914
				l0.47949,0.41895c-0.5791,0.61035-1.14941,0.83008-1.90918,0.83008c-1.49902,0-2.26855-1.11914-2.26855-2.51855
				c0-1.38965,0.75977-2.56836,2.18945-2.56836c1.50879,0,2.13867,1.17871,2.13867,2.29785
				C55.74805,19.4028,55.7373,19.57272,55.71777,19.69284z M52.10938,19.11276h2.97852c0-0.02051-0.00977-0.07031-0.00977-0.16016
				c-0.0498-0.7998-0.55957-1.40918-1.46875-1.40918C52.71973,17.54342,52.16992,18.24362,52.10938,19.11276z"/>
			<path d="M58.28906,19.50241l-1.79883-2.45898h0.83984l1.41895,1.97949l1.40918-1.97949h0.83984l-1.7998,2.45898l1.80957,2.46875
				H60.1582l-1.40918-1.99902l-1.40918,1.99902h-0.84961L58.28906,19.50241z"/>
			<path d="M64.26855,21.92135c-0.25977,0.08008-0.52051,0.12988-0.75,0.12988c-0.65918,0-1.13965-0.37012-1.13965-1.23926V17.6235
				h-0.81934v-0.58008h0.81934v-1.37891l0.69043-0.51953v1.89844h1.18848v0.58008h-1.18848v3.09863
				c0,0.47949,0.21973,0.69922,0.60938,0.69922c0.16992,0,0.35938-0.04004,0.5791-0.10938L64.26855,21.92135z"/>
		</g>
		<g id="Raggruppa_24089">
			<g id="Raggruppa_24084">
				<line id="Linea_7897" class="st1" x1="-60.3" y1="-7.4" x2="-60.3" y2="23"/>
				<g id="Raggruppa_24083">
					<line id="Linea_7898" class="st2" x1="-60.3" y1="-7.2" x2="-60.3" y2="22.9"/>
					<g id="Raggruppa_24081">
						<rect id="Rettangolo_19229" x="-61.1" y="-7.4" class="st3" width="1.6" height="0.2"/>
					</g>
					<g id="Raggruppa_24082">
						<rect id="Rettangolo_19230" x="-61.1" y="22.8" class="st3" width="1.6" height="0.2"/>
					</g>
				</g>
			</g>
			<g id="Raggruppa_24086">
				<line id="Linea_7899" class="st1" x1="-77.4" y1="-7.4" x2="-61.9" y2="-7.4"/>
				<g id="Raggruppa_24085">
					<line id="Linea_7900" class="st4" x1="-77.4" y1="-7.4" x2="-76.9" y2="-7.4"/>
					<line id="Linea_7901" class="st5" x1="-75.8" y1="-7.4" x2="-62.9" y2="-7.4"/>
					<line id="Linea_7902" class="st4" x1="-62.4" y1="-7.4" x2="-61.9" y2="-7.4"/>
				</g>
			</g>
			<path id="Tracciato_148124" class="st2" d="M-77.4-7.4c-6.1,0-6.1,25.9-12.2,25.9s-6.1,4.5-12.2,4.5h36.7
				C-71.3,23-71.3-7.4-77.4-7.4z"/>
			<g id="Raggruppa_24088">
				<line id="Linea_7903" class="st1" x1="-65.2" y1="23" x2="-61.9" y2="23"/>
				<g id="Raggruppa_24087">
					<line id="Linea_7904" class="st4" x1="-65.2" y1="23" x2="-64.7" y2="23"/>
					<line id="Linea_7905" class="st6" x1="-63.9" y1="23" x2="-62.8" y2="23"/>
					<line id="Linea_7906" class="st4" x1="-62.4" y1="23" x2="-61.9" y2="23"/>
				</g>
			</g>
		</g>
	</g>
	<g class="st0">
		<path d="M25.6377,32.35415c0-2.23926,1.20947-3.56836,3.21826-3.56836c1.39893,0,2.37842,0.63965,2.86816,1.90918l-0.65967,0.25
			c-0.36963-1-1.10938-1.47949-2.2085-1.47949c-1.59912,0-2.50879,1.04004-2.50879,2.88867
			c0,1.85938,0.89941,2.91797,2.4585,2.91797c1.08984,0,1.86914-0.50977,2.25879-1.50879l0.67969,0.25
			c-0.51953,1.26953-1.54883,1.93848-2.93848,1.93848C26.82715,35.9518,25.6377,34.60317,25.6377,32.35415z"/>
		<path d="M33.01758,34.78286v-5.89649h0.68945v5.85645c0,0.33984,0.12012,0.55957,0.44971,0.55957
			c0.1499,0,0.31982-0.04004,0.46973-0.08984l0.01025,0.58984c-0.20996,0.06934-0.45996,0.12988-0.67969,0.12988
			C33.38721,35.93227,33.01758,35.55239,33.01758,34.78286z"/>
		<path d="M39.42529,32.78383v3.06836h-0.62988l-0.04004-0.75977c-0.38965,0.5498-0.98926,0.83984-1.76904,0.83984
			c-1.06934,0-1.69873-0.55957-1.69873-1.50977c0-0.49902,0.19971-0.87891,0.55957-1.09863
			c0.37988-0.21973,0.90967-0.31055,1.87891-0.31055h1.00928v-0.22949c0-0.85938-0.44971-1.3291-1.2793-1.3291
			c-0.61963,0-1.09912,0.26953-1.49902,0.81934l-0.49951-0.41992c0.5293-0.68945,1.16895-1.00879,2.00879-1.00879
			C38.70557,30.84535,39.42529,31.55434,39.42529,32.78383z M38.73535,33.64321v-0.06934h-0.94922
			c-0.90967,0-1.29932,0.05957-1.53906,0.24902c-0.18018,0.14062-0.27002,0.36035-0.27002,0.63965
			c0,0.5498,0.46973,0.90039,1.20947,0.90039C38.13574,35.36293,38.73535,34.69301,38.73535,33.64321z"/>
		<path d="M44.81494,30.92446v4.92774h-0.68945v-0.70996c-0.3501,0.53027-0.97949,0.79004-1.62939,0.79004
			c-1.11914,0-1.60889-0.76953-1.60889-1.98926v-3.01856h0.68945v2.84863c0,0.7998,0.14014,1.5498,1.07959,1.5498
			c0.97949,0,1.46924-0.84961,1.46924-2.12891v-2.26953h0.68945V30.92446z"/>
		<path d="M46.10742,34.64321l0.57959-0.25977c0.17969,0.50977,0.65967,0.93945,1.4292,0.93945
			c0.66943,0,1.09961-0.33008,1.09961-0.84961c0-1.30957-2.83887-0.49023-2.83887-2.23926
			c0-0.85938,0.69971-1.38867,1.68945-1.38867c0.78955,0,1.4292,0.3291,1.76904,1.0293l-0.5498,0.29981
			c-0.23975-0.44043-0.62988-0.71973-1.23926-0.71973c-0.60986,0-0.99951,0.25-0.99951,0.67969
			c0,1.16895,2.84814,0.42969,2.84814,2.29883c0,0.99902-0.81934,1.49902-1.76904,1.49902
			C47.15674,35.93227,46.36719,35.43227,46.10742,34.64321z"/>
		<path d="M55.14502,33.57387h-3.60791c0.02002,1.0791,0.61963,1.72852,1.58936,1.72852c0.53955,0,0.96924-0.13965,1.41895-0.61914
			l0.47998,0.41895c-0.57959,0.61035-1.14941,0.83008-1.90918,0.83008c-1.49902,0-2.26855-1.11914-2.26855-2.51855
			c0-1.38965,0.75977-2.56836,2.18896-2.56836c1.50879,0,2.13867,1.17871,2.13867,2.29785
			C55.17529,33.28383,55.16504,33.45375,55.14502,33.57387z M51.53711,32.99379h2.97852c0-0.02051-0.01025-0.07031-0.01025-0.16016
			c-0.0498-0.7998-0.55957-1.40918-1.46875-1.40918C52.14697,31.42446,51.59717,32.12465,51.53711,32.99379z"/>
		<path d="M56.0376,34.64321l0.57959-0.25977c0.17969,0.50977,0.65967,0.93945,1.4292,0.93945
			c0.66943,0,1.09961-0.33008,1.09961-0.84961c0-1.30957-2.83887-0.49023-2.83887-2.23926
			c0-0.85938,0.69971-1.38867,1.68945-1.38867c0.78955,0,1.4292,0.3291,1.76904,1.0293l-0.5498,0.29981
			c-0.23975-0.44043-0.62988-0.71973-1.23926-0.71973c-0.60986,0-0.99951,0.25-0.99951,0.67969
			c0,1.16895,2.84814,0.42969,2.84814,2.29883c0,0.99902-0.81934,1.49902-1.76855,1.49902
			C57.08691,35.93227,56.29736,35.43227,56.0376,34.64321z"/>
	</g>
	<path id="Rectangle_179_1_" class="st7" d="M5.559,27.676h9.882c2.91178-0.15797,5.40031,2.07444,5.55827,4.98622
		c0.00025,0.0046,0.0005,0.00919,0.00073,0.01378l0,0c-0.15036,2.91219-2.63304,5.15109-5.54523,5.00073
		c-0.00459-0.00024-0.00918-0.00048-0.01377-0.00073H5.559c-2.91178,0.15797-5.40031-2.07444-5.55827-4.98623
		C0.00048,32.68518,0.00023,32.68059,0,32.676l0,0c0.15036-2.91218,2.63304-5.15108,5.54523-5.00073
		C5.54982,27.67551,5.55441,27.67575,5.559,27.676z"/>
	<g class="st0">
		<path d="M106.96484,28.88637v6.96582h-0.71973v-6.0166l-2.24902,5.43653h-0.69922l-2.25879-5.45703v6.03711h-0.70996v-6.96582
			h1.03955l2.27881,5.55664l2.27881-5.55664C105.92529,28.88638,106.96484,28.88638,106.96484,28.88637z"/>
		<path d="M108.9585,28.88637h0.79932v1.01953h-0.79932V28.88637z M109.01855,30.92446h0.68945v4.92774h-0.68945V30.92446z"/>
		<path d="M112.67773,33.38344l-1.79932-2.45899h0.83984l1.41895,1.97949l1.40918-1.97949h0.83984l-1.79932,2.45899l1.80908,2.46875
			h-0.84961l-1.40918-1.99902l-1.40918,1.99902h-0.84961L112.67773,33.38344z"/>
		<path d="M120.35596,33.57387h-3.60791c0.02002,1.0791,0.61963,1.72852,1.58936,1.72852c0.53955,0,0.96924-0.13965,1.41895-0.61914
			l0.47998,0.41895c-0.57959,0.61035-1.14941,0.83008-1.90918,0.83008c-1.49902,0-2.26855-1.11914-2.26855-2.51855
			c0-1.38965,0.75977-2.56836,2.18896-2.56836c1.50879,0,2.13867,1.17871,2.13867,2.29785
			C120.38623,33.28383,120.37598,33.45375,120.35596,33.57387z M116.74805,32.99379h2.97852
			c0-0.02051-0.01025-0.07031-0.01025-0.16016c-0.0498-0.7998-0.55957-1.40918-1.46875-1.40918
			C117.35791,31.42446,116.80811,32.12465,116.74805,32.99379z"/>
		<path d="M125.896,28.88637v6.96582h-0.68994v-0.65918c-0.35938,0.45898-0.90918,0.73926-1.62891,0.73926
			c-1.43896,0-2.18896-1.0791-2.18896-2.54883c0-1.53906,0.81982-2.54883,2.18896-2.54883c0.69971,0,1.25928,0.27051,1.62891,0.75
			v-2.69824C125.20606,28.88637,125.896,28.88637,125.896,28.88637z M125.26611,33.38344c0-1.16895-0.59961-1.93848-1.58887-1.93848
			c-0.99951,0-1.59912,0.76953-1.59912,1.93848c0,1.11914,0.54932,1.93945,1.59912,1.93945
			C124.71631,35.3229,125.26611,34.50258,125.26611,33.38344z"/>
	</g>
	<path id="Rectangle_180_1_" class="st8" d="M78.759,27.676h9.882c2.91178-0.15797,5.40031,2.07444,5.55827,4.98622
		c0.00025,0.00459,0.00049,0.00918,0.00072,0.01377l0,0c-0.15035,2.91219-2.63303,5.15109-5.54522,5.00073
		c-0.00459-0.00024-0.00919-0.00048-0.01378-0.00073h-9.882c-2.91178,0.15797-5.40031-2.07444-5.55827-4.98623
		C73.20049,32.68518,73.20024,32.68059,73.2,32.676l0,0c0.15036-2.91218,2.63304-5.15109,5.54523-5.00073
		C78.74982,27.67551,78.75441,27.67575,78.759,27.676z"/>
	<g class="st0">
		<path d="M167.04492,28.88637h0.73926l1.6792,5.90625l1.7793-5.53711h0.62939l1.7793,5.53711l1.66895-5.90625h0.74951
			l-2.01904,6.96582h-0.71924l-1.76904-5.4668l-1.7793,5.4668h-0.71973L167.04492,28.88637z"/>
		<path d="M176.625,33.38344c0-1.45899,0.94922-2.53809,2.3584-2.53809c1.39941,0,2.36865,1.0791,2.36865,2.53809
			c0,1.44922-0.95947,2.54883-2.36865,2.54883S176.625,34.84243,176.625,33.38344z M180.6626,33.38344
			c0-1.11914-0.62988-1.92871-1.6792-1.92871c-1.05957,0-1.66895,0.81934-1.66895,1.92871
			c0,1.11914,0.61963,1.93945,1.66895,1.93945C180.04297,35.3229,180.6626,34.48305,180.6626,33.38344z"/>
		<path d="M185.74268,31.05532l-0.33984,0.55957c-0.22949-0.10059-0.43945-0.15039-0.64941-0.15039
			c-0.75977,0-1.31934,0.56934-1.31934,1.63965v2.74805h-0.68945v-4.92774h0.68945v0.74023
			c0.35986-0.64941,0.95947-0.81934,1.45898-0.81934C185.19336,30.84535,185.47314,30.90492,185.74268,31.05532z"/>
		<path d="M190.43213,28.88637v6.96582h-0.68994v-0.65918c-0.35938,0.45898-0.90918,0.73926-1.62891,0.73926
			c-1.43896,0-2.18896-1.0791-2.18896-2.54883c0-1.53906,0.81982-2.54883,2.18896-2.54883c0.69971,0,1.25928,0.27051,1.62891,0.75
			v-2.69824C189.74219,28.88637,190.43213,28.88637,190.43213,28.88637z M189.80225,33.38344
			c0-1.16895-0.59961-1.93848-1.58887-1.93848c-0.99951,0-1.59912,0.76953-1.59912,1.93848
			c0,1.11914,0.5498,1.93945,1.59912,1.93945C189.25244,35.3229,189.80225,34.50258,189.80225,33.38344z"/>
		<path d="M191.72461,34.64321l0.57959-0.25977c0.17969,0.50977,0.65967,0.93945,1.4292,0.93945
			c0.66943,0,1.09961-0.33008,1.09961-0.84961c0-1.30957-2.83887-0.49023-2.83887-2.23926
			c0-0.85938,0.69971-1.38867,1.68945-1.38867c0.78955,0,1.4292,0.3291,1.76904,1.0293l-0.5498,0.29981
			c-0.23975-0.44043-0.62988-0.71973-1.23926-0.71973c-0.60986,0-0.99951,0.25-0.99951,0.67969
			c0,1.16895,2.84814,0.42969,2.84814,2.29883c0,0.99902-0.81934,1.49902-1.76904,1.49902
			C192.77393,35.93227,191.98438,35.43227,191.72461,34.64321z"/>
	</g>
	<path id="Rectangle_181_1_" class="st9" d="M145.759,27.676h9.882c2.91179-0.15797,5.40031,2.07444,5.55827,4.98623
		c0.00024,0.00459,0.00049,0.00918,0.00073,0.01377l0,0c-0.15036,2.91219-2.63306,5.15109-5.54523,5.00073
		c-0.00459-0.00024-0.00919-0.00048-0.01378-0.00073h-9.882c-2.91177,0.15797-5.4003-2.07444-5.55827-4.98623
		c-0.00024-0.00459-0.00049-0.00918-0.00072-0.01377l0,0c0.15034-2.91218,2.63303-5.15109,5.54523-5.00073
		C145.74982,27.67551,145.75441,27.67575,145.759,27.676z"/>
	<g class="st0">
		<path d="M236.56152,28.88637h1.98926c1.47852,0,2.29883,0.69922,2.29883,1.94824c0,1.26953-0.83008,1.97949-2.29883,1.97949
			h-1.2793v3.03809h-0.70996V28.88637z M238.48047,32.15395c1.08984,0,1.64941-0.44922,1.64941-1.3086
			c0-0.86035-0.55957-1.2998-1.64941-1.2998h-1.20898v2.6084H238.48047z"/>
		<path d="M246.08984,32.83364v3.01855h-0.68945v-2.84863c0-1.06934-0.33984-1.54883-1.08008-1.54883
			c-0.93945,0-1.46875,0.76953-1.46875,2.12891v2.26855h-0.68945v-6.96582h0.68945v2.75781
			c0.31934-0.49902,0.91895-0.79883,1.62891-0.79883C245.54004,30.84535,246.08984,31.52504,246.08984,32.83364z"/>
		<path d="M250.79004,31.05532l-0.33984,0.55957c-0.22949-0.10059-0.43945-0.15039-0.64941-0.15039
			c-0.75977,0-1.31934,0.56934-1.31934,1.63965v2.74805h-0.68945v-4.92774h0.68945v0.74023
			c0.35938-0.64941,0.95898-0.81934,1.45898-0.81934C250.24023,30.84535,250.52051,30.90492,250.79004,31.05532z"/>
		<path d="M255.47949,32.78383v3.06836h-0.62988l-0.04004-0.75977c-0.38965,0.5498-0.98926,0.83984-1.76953,0.83984
			c-1.06934,0-1.69824-0.55957-1.69824-1.50977c0-0.49902,0.19922-0.87891,0.55957-1.09863
			c0.37988-0.21973,0.90918-0.31055,1.87891-0.31055h1.00879v-0.22949c0-0.85938-0.44922-1.3291-1.2793-1.3291
			c-0.61914,0-1.09863,0.26953-1.49902,0.81934l-0.49902-0.41992c0.5293-0.68945,1.16895-1.00879,2.00879-1.00879
			C254.75977,30.84535,255.47949,31.55434,255.47949,32.78383z M254.78906,33.64321v-0.06934h-0.94922
			c-0.90918,0-1.29883,0.05957-1.53906,0.24902c-0.17969,0.14062-0.26953,0.36035-0.26953,0.63965
			c0,0.5498,0.46973,0.90039,1.20898,0.90039C254.18945,35.36293,254.78906,34.69301,254.78906,33.64321z"/>
		<path d="M256.63184,34.64321l0.5791-0.25977c0.17969,0.50977,0.66016,0.93945,1.42969,0.93945
			c0.66895,0,1.09961-0.33008,1.09961-0.84961c0-1.30957-2.83887-0.49023-2.83887-2.23926
			c0-0.85938,0.69922-1.38867,1.68945-1.38867c0.78906,0,1.42871,0.3291,1.76855,1.0293l-0.5498,0.29981
			c-0.23926-0.44043-0.62988-0.71973-1.23926-0.71973s-0.99902,0.25-0.99902,0.67969c0,1.16895,2.84766,0.42969,2.84766,2.29883
			c0,0.99902-0.81934,1.49902-1.76855,1.49902C257.68066,35.93227,256.8916,35.43227,256.63184,34.64321z"/>
		<path d="M265.66895,33.57387h-3.6084c0.02051,1.0791,0.62012,1.72852,1.58984,1.72852c0.53906,0,0.96875-0.13965,1.41895-0.61914
			l0.47949,0.41895c-0.5791,0.61035-1.14941,0.83008-1.90918,0.83008c-1.49902,0-2.26855-1.11914-2.26855-2.51855
			c0-1.38965,0.75977-2.56836,2.18945-2.56836c1.50879,0,2.13867,1.17871,2.13867,2.29785
			C265.69922,33.28383,265.68848,33.45375,265.66895,33.57387z M262.06055,32.99379h2.97852
			c0-0.02051-0.00977-0.07031-0.00977-0.16016c-0.0498-0.7998-0.55957-1.40918-1.46875-1.40918
			C262.6709,31.42446,262.12109,32.12465,262.06055,32.99379z"/>
		<path d="M266.56152,34.64321l0.58008-0.25977c0.17969,0.50977,0.65918,0.93945,1.42871,0.93945
			c0.66992,0,1.09961-0.33008,1.09961-0.84961c0-1.30957-2.83887-0.49023-2.83887-2.23926c0-0.85938,0.7002-1.38867,1.68945-1.38867
			c0.79004,0,1.42969,0.3291,1.76953,1.0293l-0.5498,0.29981c-0.24023-0.44043-0.62988-0.71973-1.23926-0.71973
			c-0.61035,0-1,0.25-1,0.67969c0,1.16895,2.84863,0.42969,2.84863,2.29883c0,0.99902-0.81934,1.49902-1.76953,1.49902
			C267.61133,35.93227,266.82129,35.43227,266.56152,34.64321z"/>
	</g>
	<path id="Rectangle_182_1_" class="st10" d="M214.55901,27.676h9.882c2.91119-0.15849,5.39967,2.07302,5.55817,4.98422
		c0.00029,0.00526,0.00056,0.01052,0.00084,0.01578l0,0c-0.14978,2.91166-2.63156,5.15061-5.54323,5.00084
		c-0.00525-0.00027-0.01051-0.00055-0.01578-0.00084h-9.882c-2.91179,0.15797-5.4003-2.07444-5.55827-4.98622
		C209.00047,32.68519,209.00024,32.6806,209,32.676l0,0c0.15036-2.91218,2.63304-5.15109,5.54523-5.00073
		C214.54982,27.67551,214.55441,27.67575,214.55901,27.676z"/>
</g>
</svg>
