<?xml version="1.0" encoding="utf-8"?>
<!-- Generator: Adobe Illustrator 24.3.0, SVG Export Plug-In . SVG Version: 6.00 Build 0)  -->
<svg version="1.1" xmlns="http://www.w3.org/2000/svg" xmlns:xlink="http://www.w3.org/1999/xlink" x="0px" y="0px" width="145px"
	 height="82.4px" viewBox="0 0 145 82.4" style="enable-background:new 0 0 145 82.4;" xml:space="preserve">
<style type="text/css">
	.st0{fill:none;stroke:#444444;stroke-width:0.25;stroke-dasharray:1.9,1.9;}
	.st1{fill:none;stroke:#5151FC;stroke-width:2.684;stroke-linejoin:round;}
	.st2{fill:none;stroke:#CCCCCC;stroke-width:2.76;stroke-miterlimit:10;}
	.st3{fill:none;stroke:#FF3366;stroke-width:2.76;stroke-miterlimit:10;}
	.st4{fill:none;stroke:#00CCCC;stroke-width:2.76;stroke-miterlimit:10;}
	.st5{fill:none;stroke:#000000;stroke-width:2.76;stroke-miterlimit:10;}
	.st6{fill:none;stroke:#000000;stroke-width:0.25;stroke-dasharray:1.9,1.9;}
</style>
<g id="Livello_1">
	<g id="Group-3-2-3" transform="translate(19.415 129.496) rotate(-90)">
		<path id="Path-6-2-3" class="st0" d="M115.5,8.1H92.7"/>
	</g>
	<path id="Path_89" class="st1" d="M23.3,36.3L23.3,36.3"/>
	<path id="Path_89-2" class="st2" d="M23.3,81.1C10.9,81,0.9,71,0.9,58.7"/>
	<path id="Path_89-3" class="st2" d="M0.9,58.7c0-12.3,10-22.3,22.4-22.4"/>
	<path id="Path_90" class="st2" d="M45.6,58.7c0,12.3-10,22.3-22.4,22.4"/>
	<path id="Path_90-2" class="st3" d="M23.3,36.3"/>
	<path id="Path_90-3" class="st4" d="M23.3,36.3c12.3,0,22.3,10,22.4,22.4"/>
	<path id="Path_89-4" class="st2" d="M78.2,81.1c-12.3,0-22.3-10-22.4-22.4"/>
	<path id="Path_89-5" class="st2" d="M55.9,58.7c0-12.3,10-22.3,22.4-22.4"/>
	<path id="Path_90-4" class="st2" d="M100.6,58.7c0,12.3-10,22.3-22.4,22.4"/>
	<path id="Path_90-5" class="st2" d="M97.5,47.3c2.1,3.4,3.1,7.4,3.1,11.4"/>
	<path id="Path_90-6" class="st2" d="M93.6,42.5c1.5,1.4,2.8,3.1,3.9,4.8"/>
	<path id="Path_90-7" class="st5" d="M78.2,36.3c3.5,0,7,0.8,10.2,2.4"/>
	<path id="Path_90-8" class="st2" d="M88.4,38.8c1.9,1,3.6,2.2,5.2,3.7"/>
	<g>
		<path d="M13.8,3.1h0.7v6.3h3.2v0.7h-3.9C13.8,10.1,13.8,3.1,13.8,3.1z"/>
		<path d="M18.9,3.1h0.8v1h-0.8V3.1z M19,5.2h0.7v4.9H19V5.2z"/>
		<path d="M20.9,8.9l0.6-0.3c0.2,0.5,0.7,0.9,1.4,0.9c0.7,0,1.1-0.3,1.1-0.8c0-1.3-2.8-0.5-2.8-2.2c0-0.9,0.7-1.4,1.7-1.4
			c0.8,0,1.4,0.3,1.8,1l-0.5,0.3c-0.2-0.4-0.6-0.7-1.2-0.7c-0.6,0-1,0.2-1,0.7c0,1.2,2.8,0.4,2.8,2.3c0,1-0.8,1.5-1.8,1.5
			C22,10.2,21.2,9.7,20.9,8.9z"/>
		<path d="M28.2,10c-0.3,0.1-0.5,0.1-0.7,0.1c-0.7,0-1.1-0.4-1.1-1.2V5.8h-0.8V5.2h0.8V3.8L27,3.3v1.9h1.2v0.6H27v3.1
			c0,0.5,0.2,0.7,0.6,0.7c0.2,0,0.4,0,0.6-0.1L28.2,10z"/>
		<path d="M29,8.9l0.6-0.3c0.2,0.5,0.7,0.9,1.4,0.9c0.7,0,1.1-0.3,1.1-0.8c0-1.3-2.8-0.5-2.8-2.2c0-0.9,0.7-1.4,1.7-1.4
			c0.8,0,1.4,0.3,1.8,1l-0.5,0.3c-0.2-0.4-0.6-0.7-1.2-0.7c-0.6,0-1,0.2-1,0.7c0,1.2,2.8,0.4,2.8,2.3c0,1-0.8,1.5-1.8,1.5
			C30.1,10.2,29.3,9.7,29,8.9z"/>
	</g>
	<g>
		<path d="M53.9,3.2h0.7v6.3h3.2v0.7h-3.9L53.9,3.2L53.9,3.2z"/>
		<path d="M62.9,7.9h-3.6c0,1.1,0.6,1.7,1.6,1.7c0.5,0,1-0.1,1.4-0.6l0.5,0.4c-0.6,0.6-1.1,0.8-1.9,0.8c-1.5,0-2.3-1.1-2.3-2.5
			c0-1.4,0.8-2.6,2.2-2.6c1.5,0,2.1,1.2,2.1,2.3C62.9,7.6,62.9,7.8,62.9,7.9z M59.3,7.3h3c0,0,0-0.1,0-0.2c0-0.8-0.6-1.4-1.5-1.4
			C59.9,5.8,59.3,6.5,59.3,7.3z"/>
		<path d="M63.8,9l0.6-0.3c0.2,0.5,0.7,0.9,1.4,0.9c0.7,0,1.1-0.3,1.1-0.8c0-1.3-2.8-0.5-2.8-2.2c0-0.9,0.7-1.4,1.7-1.4
			c0.8,0,1.4,0.3,1.8,1l-0.5,0.3c-0.2-0.4-0.6-0.7-1.2-0.7c-0.6,0-1,0.2-1,0.7c0,1.2,2.8,0.4,2.8,2.3c0,1-0.8,1.5-1.8,1.5
			C64.8,10.3,64,9.8,63.8,9z"/>
		<path d="M68.4,9L69,8.7c0.2,0.5,0.7,0.9,1.4,0.9c0.7,0,1.1-0.3,1.1-0.8c0-1.3-2.8-0.5-2.8-2.2c0-0.9,0.7-1.4,1.7-1.4
			c0.8,0,1.4,0.3,1.8,1l-0.5,0.3c-0.2-0.4-0.6-0.7-1.2-0.7c-0.6,0-1,0.2-1,0.7c0,1.2,2.8,0.4,2.8,2.3c0,1-0.8,1.5-1.8,1.5
			C69.5,10.3,68.7,9.8,68.4,9z"/>
		<path d="M78.4,10.2c-0.3,0.1-0.5,0.1-0.7,0.1c-0.7,0-1.1-0.4-1.1-1.2V5.9h-0.8V5.3h0.8V3.9l0.7-0.5v1.9h1.2v0.6h-1.2V9
			c0,0.5,0.2,0.7,0.6,0.7c0.2,0,0.4,0,0.6-0.1L78.4,10.2z"/>
		<path d="M83.6,7.2v3h-0.7V7.4c0-1.1-0.3-1.5-1.1-1.5c-0.9,0-1.5,0.8-1.5,2.1v2.3h-0.7v-7h0.7V6c0.3-0.5,0.9-0.8,1.6-0.8
			C83.1,5.2,83.6,5.9,83.6,7.2z"/>
		<path d="M89,7.1v3.1h-0.6l0-0.8c-0.4,0.5-1,0.8-1.8,0.8c-1.1,0-1.7-0.6-1.7-1.5c0-0.5,0.2-0.9,0.6-1.1c0.4-0.2,0.9-0.3,1.9-0.3h1
			V7.1c0-0.9-0.4-1.3-1.3-1.3c-0.6,0-1.1,0.3-1.5,0.8L85,6.2c0.5-0.7,1.2-1,2-1C88.3,5.2,89,5.9,89,7.1z M88.3,8L88.3,8l-0.9-0.1
			c-0.9,0-1.3,0.1-1.5,0.3c-0.2,0.1-0.3,0.4-0.3,0.6c0,0.5,0.5,0.9,1.2,0.9C87.7,9.7,88.3,9,88.3,8z"/>
		<path d="M94.6,7.2v3h-0.7V7.4c0-1.1-0.3-1.5-1.1-1.5c-0.9,0-1.5,0.8-1.5,2.2v2.2h-0.7V5.3h0.7V6c0.3-0.5,0.9-0.8,1.6-0.8
			C94.1,5.2,94.6,5.9,94.6,7.2z"/>
		<path d="M103.4,7.8c0,1.3-1,2.4-2.4,2.4c-1.3,0-2.2-0.9-2.4-2l0.7-0.1c0.2,0.8,0.8,1.5,1.7,1.5c1,0,1.7-0.8,1.7-1.8
			c0-0.9-0.6-1.7-1.6-1.7c-0.7,0-1.2,0.3-1.5,0.8l-0.7-0.2l0.6-3.6h3.6v0.7h-3l-0.4,2.3c0.5-0.4,1-0.6,1.5-0.6
			C102.4,5.5,103.4,6.6,103.4,7.8z"/>
		<path d="M104.5,4.7c0-0.8,0.4-1.6,1.3-1.6c0.8,0,1.3,0.7,1.3,1.6c0,0.9-0.5,1.6-1.3,1.6C104.9,6.3,104.5,5.5,104.5,4.7z
			 M106.6,4.7c0-0.6-0.3-1.1-0.8-1.1c-0.6,0-0.8,0.6-0.8,1.1c0,0.5,0.2,1.1,0.8,1.1C106.3,5.8,106.6,5.4,106.6,4.7z M109.3,3.2h0.5
			l-3.9,7h-0.5L109.3,3.2z M108,8.7c0-0.8,0.4-1.6,1.3-1.6c0.8,0,1.3,0.7,1.3,1.6s-0.5,1.6-1.3,1.6C108.5,10.3,108,9.5,108,8.7z
			 M110.2,8.7c0-0.6-0.3-1.1-0.8-1.1c-0.6,0-0.8,0.5-0.8,1.1c0,0.5,0.2,1.1,0.8,1.1C109.9,9.8,110.2,9.3,110.2,8.7z"/>
		<path d="M58.2,19.7c0,1.5-0.8,2.5-2.2,2.5c-0.7,0-1.3-0.3-1.6-0.7v2.7h-0.7v-7h0.7v0.7c0.4-0.5,0.9-0.7,1.6-0.7
			C57.3,17.2,58.2,18.2,58.2,19.7z M57.5,19.7c0-1.2-0.6-1.9-1.6-1.9c-1,0-1.6,0.8-1.6,1.9c0,1.1,0.5,1.9,1.6,1.9
			C56.9,21.7,57.5,20.9,57.5,19.7z"/>
		<path d="M62.6,17.4L62.2,18c-0.2-0.1-0.4-0.1-0.7-0.1c-0.8,0-1.3,0.6-1.3,1.6v2.7h-0.7v-4.9h0.7V18c0.4-0.6,1-0.8,1.5-0.8
			C62,17.2,62.3,17.3,62.6,17.4z"/>
		<path d="M67.1,19.9h-3.6c0,1.1,0.6,1.7,1.6,1.7c0.5,0,1-0.1,1.4-0.6l0.5,0.4c-0.6,0.6-1.1,0.8-1.9,0.8c-1.5,0-2.3-1.1-2.3-2.5
			c0-1.4,0.8-2.6,2.2-2.6c1.5,0,2.1,1.2,2.1,2.3C67.1,19.6,67.1,19.8,67.1,19.9z M63.4,19.3h3c0,0,0-0.1,0-0.2
			c0-0.8-0.6-1.4-1.5-1.4C64.1,17.8,63.5,18.5,63.4,19.3z"/>
		<path d="M67.9,21l0.6-0.3c0.2,0.5,0.7,0.9,1.4,0.9c0.7,0,1.1-0.3,1.1-0.8c0-1.3-2.8-0.5-2.8-2.2c0-0.9,0.7-1.4,1.7-1.4
			c0.8,0,1.4,0.3,1.8,1l-0.5,0.3c-0.2-0.4-0.6-0.7-1.2-0.7c-0.6,0-1,0.2-1,0.7c0,1.2,2.8,0.4,2.8,2.3c0,1-0.8,1.5-1.8,1.5
			C69,22.3,68.2,21.8,67.9,21z"/>
		<path d="M77,19.9h-3.6c0,1.1,0.6,1.7,1.6,1.7c0.5,0,1-0.1,1.4-0.6l0.5,0.4c-0.6,0.6-1.1,0.8-1.9,0.8c-1.5,0-2.3-1.1-2.3-2.5
			c0-1.4,0.8-2.6,2.2-2.6c1.5,0,2.1,1.2,2.1,2.3C77,19.6,77,19.8,77,19.9z M73.4,19.3h3c0,0,0-0.1,0-0.2c0-0.8-0.6-1.4-1.5-1.4
			C74,17.8,73.4,18.5,73.4,19.3z"/>
		<path d="M82.3,19.2v3h-0.7v-2.8c0-1.1-0.3-1.5-1.1-1.5c-0.9,0-1.5,0.8-1.5,2.2v2.2h-0.7v-4.9h0.7V18c0.3-0.5,0.9-0.8,1.6-0.8
			C81.8,17.2,82.3,17.9,82.3,19.2z"/>
		<path d="M83.6,19.8c0-1.3,0.7-2.6,2.2-2.6c0.9,0,1.6,0.4,2,1.4l-0.7,0.3c-0.2-0.6-0.7-1-1.3-1c-1,0-1.5,0.9-1.5,1.9
			c0,1,0.5,1.9,1.5,1.9c0.6,0,1.1-0.4,1.3-1l0.6,0.2c-0.3,0.9-1,1.4-1.9,1.4C84.4,22.3,83.6,21.1,83.6,19.8z"/>
		<path d="M93,19.9h-3.6c0,1.1,0.6,1.7,1.6,1.7c0.5,0,1-0.1,1.4-0.6l0.5,0.4c-0.6,0.6-1.1,0.8-1.9,0.8c-1.5,0-2.3-1.1-2.3-2.5
			c0-1.4,0.8-2.6,2.2-2.6c1.5,0,2.1,1.2,2.1,2.3C93,19.6,93,19.8,93,19.9z M89.4,19.3h3c0,0,0-0.1,0-0.2c0-0.8-0.6-1.4-1.5-1.4
			C90,17.8,89.4,18.5,89.4,19.3z"/>
	</g>
</g>
<g id="Layer_1">
	<g id="Group_4043" transform="translate(-0.301 33.015)">
		<g id="Group_4040" transform="translate(-24)">
			<g id="Group_299">
				<g id="Group-3-2_1_" transform="translate(100.309 129.497) rotate(-90)">
					<path id="Path-6-2_1_" class="st0" d="M138.4,8.4h-13"/>
				</g>
				<g id="Group-3-2-2_1_" transform="translate(43.415 129.496) rotate(-90)">
					<path id="Path-6-2-2_1_" class="st0" d="M148.2,8.4h-22.8"/>
				</g>
				<path id="Path_148968" class="st6" d="M54.9-18.7c0,20.6,50.6,7.9,50.6,21.1l0,0"/>
			</g>
		</g>
	</g>
</g>
</svg>
