<svg xmlns="http://www.w3.org/2000/svg" xmlns:xlink="http://www.w3.org/1999/xlink" width="250" height="403" viewBox="0 0 250 403"><defs><linearGradient id="a" x1="-163.72" y1="24.419" x2="-163.72" y2="24.418" gradientUnits="objectBoundingBox"><stop offset="0" stop-color="#fffcf0"/><stop offset="0.75" stop-color="#ffe37d"/></linearGradient><linearGradient id="b" x1="-54.261" y1="24.419" x2="-54.261" y2="24.418" gradientUnits="objectBoundingBox"><stop offset="0" stop-color="#f5f5fd"/><stop offset="0.75" stop-color="#d1d1f8"/></linearGradient><linearGradient id="c" x1="-115.129" y1="4.429" x2="-115.122" y2="4.429" gradientUnits="objectBoundingBox"><stop offset="0" stop-color="#fff" stop-opacity="0"/><stop offset="1" stop-color="#fff"/></linearGradient><clipPath id="e"><rect width="250" height="403"/></clipPath></defs><g id="d" clip-path="url(#e)"><path d="M-691.589-1632.961v14.09h-23.877v-14.09" transform="translate(744.705 1954.861)" fill="none" stroke="#bbf" stroke-linecap="round" stroke-width="1.5" stroke-dasharray="0.15 3"/><path d="M-645.959-1632.961v25.775h-69.513v-25.775" transform="translate(744.706 1954.861)" fill="none" stroke="#bbf" stroke-linecap="round" stroke-width="1.5" stroke-dasharray="0.15 3"/><path d="M-599.607-1632.961v14.09h-3.361v-14.09" transform="translate(729.836 1954.861)" fill="none" stroke="#bbf" stroke-linecap="round" stroke-width="1.5" stroke-dasharray="0.15 3"/><path d="M-510.74-1632.961v14.09h-51.467v-14.09" transform="translate(724.448 1954.861)" fill="none" stroke="#bbf" stroke-linecap="round" stroke-width="1.5" stroke-dasharray="0.15 3"/><line x2="219.549" transform="translate(27.103 312.632)" fill="none" stroke="#000" stroke-linecap="round" stroke-width="0.5" stroke-dasharray="2 4" opacity="0.5"/><text transform="translate(11.759 314.073)" font-size="10" font-family="Helvetica-Light, Helvetica" font-weight="300" style="isolation:isolate"><tspan x="0" y="0">0</tspan></text><line x2="222.897" transform="translate(27.103 284.615)" fill="none" stroke="#000" stroke-linecap="round" stroke-width="0.5" stroke-dasharray="2 4" opacity="0.5"/><text transform="translate(11.759 286.057)" font-size="10" font-family="Helvetica-Light, Helvetica" font-weight="300" style="isolation:isolate"><tspan x="0" y="0">1</tspan></text><line x2="219.549" transform="translate(27.103 256.598)" fill="none" stroke="#000" stroke-linecap="round" stroke-width="0.5" stroke-dasharray="2 4" opacity="0.5"/><text transform="translate(11.759 258.039)" font-size="10" font-family="Helvetica-Light, Helvetica" font-weight="300" style="isolation:isolate"><tspan x="0" y="0">2</tspan></text><line x2="211.378" transform="translate(27.103 228.579)" fill="none" stroke="#000" stroke-linecap="round" stroke-width="0.5" stroke-dasharray="2 4" opacity="0.5"/><text transform="translate(11.759 230.02)" font-size="10" font-family="Helvetica-Light, Helvetica" font-weight="300" style="isolation:isolate"><tspan x="0" y="0">3</tspan></text><line x2="219.549" transform="translate(27.103 200.562)" fill="none" stroke="#000" stroke-linecap="round" stroke-width="0.5" stroke-dasharray="2 4" opacity="0.5"/><text transform="translate(11.759 202.003)" font-size="10" font-family="Helvetica-Light, Helvetica" font-weight="300" style="isolation:isolate"><tspan x="0" y="0">4</tspan></text><line x2="219.549" transform="translate(27.103 172.544)" fill="none" stroke="#000" stroke-linecap="round" stroke-width="0.5" stroke-dasharray="2 4" opacity="0.5"/><text transform="translate(11.759 173.983)" font-size="10" font-family="Helvetica-Light, Helvetica" font-weight="300" style="isolation:isolate"><tspan x="0" y="0">5</tspan></text><line x2="222.897" transform="translate(27.103 144.526)" fill="none" stroke="#000" stroke-linecap="round" stroke-width="0.5" stroke-dasharray="2 4" opacity="0.5"/><text transform="translate(11.759 145.966)" font-size="10" font-family="Helvetica-Light, Helvetica" font-weight="300" style="isolation:isolate"><tspan x="0" y="0">6</tspan></text><line x2="219.549" transform="translate(27.103 116.508)" fill="none" stroke="#000" stroke-linecap="round" stroke-width="0.5" stroke-dasharray="2 4" opacity="0.5"/><text transform="translate(11.759 117.947)" font-size="10" font-family="Helvetica-Light, Helvetica" font-weight="300" style="isolation:isolate"><tspan x="0" y="0">7</tspan></text><rect width="14.149" height="9.754" transform="translate(161.357 312.145)" fill="#ffe37d"/><rect width="1.238" height="9.754" transform="translate(125.984 312.145)" fill="#ffe37d"/><rect width="14.326" height="37.773" transform="translate(28.355 284.127)" fill="url(#a)"/><rect width="14.326" height="9.754" transform="translate(28.355 312.145)" fill="#ffe37d"/><rect width="38.91" height="9.754" transform="translate(175.683 312.145)" fill="#d1d1f8"/><rect width="3.714" height="9.754" transform="translate(127.399 312.145)" fill="#d1d1f8"/><rect width="45.277" height="37.773" transform="translate(54.354 284.127)" fill="url(#b)"/><rect width="10.966" height="9.754" transform="translate(43.034 312.145)" fill="#d1d1f8"/><text transform="translate(193.697 304.293) rotate(-20.972)" font-size="8" font-family="HKGrotesk-Regular, HK Grotesk" style="isolation:isolate"><tspan x="0" y="0">td 10</tspan></text><text transform="translate(127.815 304.29) rotate(-20.972)" font-size="8" font-family="HKGrotesk-Regular, HK Grotesk" style="isolation:isolate"><tspan x="0" y="0">td 9</tspan></text><text transform="translate(75.551 276.274) rotate(-20.972)" font-size="8" font-family="HKGrotesk-Regular, HK Grotesk" style="isolation:isolate"><tspan x="0" y="0">td 8</tspan></text><text transform="translate(47.076 304.292) rotate(-20.972)" font-size="8" font-family="HKGrotesk-Regular, HK Grotesk" style="isolation:isolate"><tspan x="0" y="0">td 7</tspan></text><text transform="translate(15.776 372.165)" font-size="10" font-family="HKGrotesk-Regular, HK Grotesk" style="isolation:isolate"><tspan x="0" y="0">non è perché</tspan></text><text transform="translate(49.868 396.006)" font-size="10" font-family="HKGrotesk-Regular, HK Grotesk" style="isolation:isolate"><tspan x="0" y="0">ma perché</tspan></text><text transform="translate(112.87 372.165)" font-size="10" font-family="HKGrotesk-Regular, HK Grotesk" style="isolation:isolate"><tspan x="0" y="0">o magari</tspan></text><text transform="translate(167.523 372.165)" font-size="10" font-family="HKGrotesk-Regular, HK Grotesk" style="isolation:isolate"><tspan x="0" y="0">ammesso che</tspan></text><path d="M-501.881-1633.417h35.4" transform="translate(716.474 1954.921)" fill="none" stroke="#000" stroke-width="0.984"/><path d="M-723.844-1629.772v-3.645h153.538" transform="translate(745.812 1954.921)" fill="none" stroke="#000" stroke-width="0.984"/><line y2="30.208" transform="translate(41.177 335.258)" fill="none" stroke="#999" stroke-width="0.984"/><line y2="28.037" transform="translate(128.548 335.258)" fill="none" stroke="#999" stroke-width="0.984"/><line y2="28.037" transform="translate(187.974 335.258)" fill="none" stroke="#999" stroke-width="0.984"/><line y2="41.338" transform="translate(70.875 347.977)" fill="none" stroke="#999" stroke-width="0.984"/><text transform="translate(78.917 138.255)" fill="#4500ff" font-size="10" font-family="HKGrotesk-Italic, HK Grotesk" font-style="italic" style="isolation:isolate"><tspan x="0" y="0">Scegliere</tspan></text><ellipse cx="57.497" cy="57.497" rx="57.497" ry="57.497" transform="translate(1.139 240.019)" fill="none" stroke="#4500ff" stroke-miterlimit="10" stroke-width="0.5"/><text transform="translate(154.344 166.783)" fill="#4500ff" font-size="10" font-family="HKGrotesk-Italic, HK Grotesk" font-style="italic" style="isolation:isolate"><tspan x="0" y="0">Interpretare </tspan></text><text transform="translate(181.868 216.945)" fill="#4500ff" font-size="10" font-family="HKGrotesk-Italic, HK Grotesk" font-style="italic" style="isolation:isolate"><tspan x="0" y="0">Precisare </tspan></text><ellipse cx="25.699" cy="25.699" rx="25.699" ry="25.699" transform="translate(107.663 276.587)" fill="none" stroke="#4500ff" stroke-miterlimit="10" stroke-width="0.5"/><ellipse cx="41.32" cy="41.32" rx="41.32" ry="41.32" transform="translate(150.621 266.174)" fill="none" stroke="#4500ff" stroke-miterlimit="10" stroke-width="0.5"/><path d="M-681.592-1743.483v-106.172h13.955" transform="translate(740.227 1983.502)" fill="none" stroke="#4500ff" stroke-miterlimit="10" stroke-width="0.5"/><path d="M-595.484-1702.245v-112.082h13.954" transform="translate(728.846 1978.832)" fill="none" stroke="#4500ff" stroke-miterlimit="10" stroke-width="0.5"/><path d="M-555.074-1697.674v-58.858h11.648" transform="translate(723.505 1971.193)" fill="none" stroke="#4500ff" stroke-miterlimit="10" stroke-width="0.5"/><line x2="14.149" transform="translate(161.357 312.144)" fill="none" stroke="#ffc806" stroke-width="1.476"/><line x2="1.238" transform="translate(125.984 312.144)" fill="none" stroke="#ffc806" stroke-width="1.476"/><line x2="14.326" transform="translate(28.355 284.127)" fill="none" stroke="#ffc806" stroke-width="1.476"/><line x2="14.326" transform="translate(28.355 312.144)" fill="none" stroke="#ffc806" stroke-width="1.476"/><line x2="38.91" transform="translate(175.683 312.144)" fill="none" stroke="#bbf" stroke-width="1.476"/><line x2="3.714" transform="translate(127.399 312.144)" fill="none" stroke="#bbf" stroke-width="1.476"/><line x2="45.277" transform="translate(54.354 284.127)" fill="none" stroke="#bbf" stroke-width="1.476"/><line x2="10.966" transform="translate(43.034 312.144)" fill="none" stroke="#bbf" stroke-width="1.476"/><path d="M-546.718-1635.417c2.16,0,2.16,3.471,4.32,3.471s2.162-3.471,4.323-3.471,2.161,3.471,4.322,3.471,2.161-3.471,4.322-3.471,2.162,3.471,4.323,3.471,2.16-3.471,4.321-3.471,2.163,3.471,4.324,3.471,2.164-3.471,4.328-3.471,2.164,3.471,4.328,3.471" transform="translate(722.401 1955.185)" fill="none" stroke="#4500ff" stroke-miterlimit="10" stroke-width="1"/><text transform="translate(1 95)" font-size="10" font-family="HKGrotesk-Regular, HK Grotesk"><tspan x="0" y="0">Livelli</tspan></text><path d="M0,285Z" transform="translate(228.883 54.977)" fill="url(#c)"/><g transform="translate(-842 -2641)"><path d="M-762.5-1915.677c2.623,0,2.623,7,5.245,7s2.623-7,5.246-7,2.628,7,5.255,7,2.626-7,5.254-7" transform="translate(1604.984 4596.142)" fill="none" stroke="#4500ff" stroke-miterlimit="10" stroke-width="0.75"/><text transform="translate(867.425 2650.083)" font-size="10" font-family="HKGrotesk-Regular, HK Grotesk" style="isolation:isolate"><tspan x="0" y="0" xml:space="preserve">Testo dubitativo  (td)</tspan></text><path d="M-757-1952.058h9.882a5.3,5.3,0,0,1,5.559,5h0a5.3,5.3,0,0,1-5.559,5H-757a5.3,5.3,0,0,1-5.559-5h0A5.3,5.3,0,0,1-757-1952.058Z" transform="translate(1604.984 4596.142)" fill="#d1d1f8"/><text transform="translate(867.909 2667.722)" font-size="10" font-family="HKGrotesk-Regular, HK Grotesk" style="isolation:isolate"><tspan x="0" y="0">Testo oggetto di dubbio</tspan></text><text transform="translate(867.909 2685.722)" font-size="10" font-family="HKGrotesk-Regular, HK Grotesk" style="isolation:isolate"><tspan x="0" y="0">Testo dubitativo con incisi e parentesi</tspan></text><path d="M-757-1935.42h9.882a5.3,5.3,0,0,1,5.559,5h0a5.3,5.3,0,0,1-5.559,5H-757a5.3,5.3,0,0,1-5.559-5h0A5.3,5.3,0,0,1-757-1935.42Z" transform="translate(1604.984 4596.142)" fill="#ffd93b"/></g></g></svg>