<svg xmlns="http://www.w3.org/2000/svg" xmlns:xlink="http://www.w3.org/1999/xlink" width="695" height="32" viewBox="0 0 695 32"><defs><clipPath id="b"><rect width="695" height="32"/></clipPath></defs><g id="a" clip-path="url(#b)"><g transform="translate(0 -5.273)"><g transform="translate(449 13.674)"><text transform="translate(-47.798 21.971)" font-size="10" font-family="HKGrotesk-Regular, HK Grotesk"><tspan x="0" y="0">% tipo di elenchi nel testo</tspan></text><line y2="30.4" transform="translate(-60.3 -7.4)" fill="none"/><line y2="30.1" transform="translate(-60.3 -7.2)" fill="none" stroke="#1d1d1b" stroke-miterlimit="10" stroke-width="0.25"/><rect width="1.6" height="0.2" transform="translate(-61.1 -7.4)" fill="#1d1d1b"/><rect width="1.6" height="0.2" transform="translate(-61.1 22.8)" fill="#1d1d1b"/><line x2="15.5" transform="translate(-77.4 -7.4)" fill="none"/><line x2="0.5" transform="translate(-77.4 -7.4)" fill="none" stroke="#1d1d1b" stroke-miterlimit="10" stroke-width="0.26"/><line x2="12.9" transform="translate(-75.8 -7.4)" fill="none" stroke="#1d1d1b" stroke-miterlimit="10" stroke-width="0.26" stroke-dasharray="1.115 1.115"/><line x2="0.5" transform="translate(-62.4 -7.4)" fill="none" stroke="#1d1d1b" stroke-miterlimit="10" stroke-width="0.26"/><path d="M-77.4-7.4c-6.1,0-6.1,25.9-12.2,25.9S-95.7,23-101.8,23h36.7C-71.3,23-71.3-7.4-77.4-7.4Z" fill="none" stroke="#1d1d1b" stroke-miterlimit="10" stroke-width="0.25"/><line x2="3.3" transform="translate(-65.2 23)" fill="none"/><line x2="0.5" transform="translate(-65.2 23)" fill="none" stroke="#1d1d1b" stroke-miterlimit="10" stroke-width="0.26"/><line x2="1.1" transform="translate(-63.9 23)" fill="none" stroke="#1d1d1b" stroke-miterlimit="10" stroke-width="0.26" stroke-dasharray="0.758 0.758"/><line x2="0.5" transform="translate(-62.4 23)" fill="none" stroke="#1d1d1b" stroke-miterlimit="10" stroke-width="0.26"/></g><text transform="translate(24.958 35.852)" font-size="10" font-family="HKGrotesk-Regular, HK Grotesk"><tspan x="0" y="0">Proposizioni</tspan></text><path d="M-96.441,15.1h9.882A5.28,5.28,0,0,1-81,20.1h0a5.28,5.28,0,0,1-5.559,5h-9.882a5.28,5.28,0,0,1-5.559-5h0A5.28,5.28,0,0,1-96.441,15.1Z" transform="translate(102 12.576)" fill="#5151fc"/><text transform="translate(125.189 35.852)" font-size="10" font-family="HKGrotesk-Regular, HK Grotesk"><tspan x="0" y="0">Misto</tspan></text><path d="M-17.241,15.1h9.882a5.28,5.28,0,0,1,5.559,5h0a5.28,5.28,0,0,1-5.559,5h-9.882a5.28,5.28,0,0,1-5.559-5h0A5.28,5.28,0,0,1-17.241,15.1Z" transform="translate(122 12.576)" fill="#f36"/><text transform="translate(198.625 35.852)" font-size="10" font-family="HKGrotesk-Regular, HK Grotesk"><tspan x="0" y="0">Parole</tspan></text><path d="M64.759,15.1h9.882a5.28,5.28,0,0,1,5.559,5h0a5.28,5.28,0,0,1-5.559,5H64.759a5.28,5.28,0,0,1-5.559-5h0A5.28,5.28,0,0,1,64.759,15.1Z" transform="translate(113 12.576)" fill="#00c19c"/><text transform="translate(276.422 35.852)" font-size="10" font-family="HKGrotesk-Regular, HK Grotesk"><tspan x="0" y="0">Sintagmi</tspan></text><path d="M151.559,15.1h9.882a5.279,5.279,0,0,1,5.559,5h0a5.279,5.279,0,0,1-5.559,5h-9.882a5.28,5.28,0,0,1-5.559-5h0A5.28,5.28,0,0,1,151.559,15.1Z" transform="translate(104 12.576)" fill="orange"/></g></g></svg>