<svg xmlns="http://www.w3.org/2000/svg" xmlns:xlink="http://www.w3.org/1999/xlink" width="600" height="114" viewBox="0 0 600 114">
  <defs>
    <clipPath id="clip-legenda_0">
      <rect width="600" height="114"/>
    </clipPath>
  </defs>
  <g id="legenda_0" clip-path="url(#clip-legenda_0)">
    <path id="Path_161809" data-name="Path 161809" d="M2.941,0h1.2V-7.248h2.7V-8.279H.24v1.031h2.7Zm5.3,0H13.67V-1.107H9.428V-3.615h3.8V-4.67h-3.8V-7.213H13.67V-8.279H8.238Zm7.277,0h1.16V-6.873L18.961-.721h1.213l2.285-6.152V0h1.16V-8.279H21.873L19.559-1.986l-2.3-6.293H15.516ZM25.939,0h1.184V-3.6h1.266c1.646,0,2.777-.82,2.777-2.32s-1.131-2.361-2.777-2.361H25.939Zm1.184-4.687v-2.5h1.266c1.061,0,1.6.469,1.6,1.271s-.533,1.23-1.6,1.23Zm8.889,4.8c2.625,0,3.85-1.98,3.85-4.26S38.637-8.4,36.012-8.4s-3.844,1.986-3.844,4.26S33.393.117,36.012.117Zm0-1.072c-1.893,0-2.625-1.512-2.625-3.187s.732-3.182,2.625-3.182,2.637,1.512,2.637,3.182S37.91-.955,36.012-.955ZM44.666,0H46.9c2.725,0,4.248-1.482,4.248-4.078,0-2.707-1.482-4.2-4.236-4.2H44.666Zm1.189-1.09V-7.2h1.031c2.121,0,3.07,1,3.07,3.053,0,2.18-1.318,3.053-3.2,3.053ZM52.91,0h5.432V-1.107H54.1V-3.615h3.8V-4.67H54.1V-7.213h4.242V-8.279H52.91Zm7.277,0h4.734V-1.107H61.377V-8.279H60.188Zm6.146,0h4.734V-1.107H67.523V-8.279H66.334Zm5.373,0h1.3l.639-1.8h3.439L77.719,0H79L75.814-8.279h-.9Zm2.338-2.848,1.324-3.68,1.313,3.68ZM85.652.094a2.482,2.482,0,0,0,2.719-2.437c0-2.707-4-2.232-4-3.949a1.105,1.105,0,0,1,1.2-1.061,1.634,1.634,0,0,1,1.482.92l.949-.6A2.64,2.64,0,0,0,85.6-8.4a2.219,2.219,0,0,0-2.4,2.186c0,2.6,4,2.033,4,3.973,0,.809-.592,1.277-1.535,1.277A1.711,1.711,0,0,1,83.8-2.531l-1.154.311A2.848,2.848,0,0,0,85.652.094ZM91.752,0h1.2V-7.248h2.7V-8.279h-6.6v1.031h2.7Zm8.326.117c2.625,0,3.85-1.98,3.85-4.26S102.7-8.4,100.078-8.4s-3.844,1.986-3.844,4.26S97.459.117,100.078.117Zm0-1.072c-1.893,0-2.625-1.512-2.625-3.187s.732-3.182,2.625-3.182,2.637,1.512,2.637,3.182S101.977-.955,100.078-.955ZM105.7.012h1.189V-3.627h1.189L110.133.012h1.377l-2.273-3.773a2.181,2.181,0,0,0,1.7-2.15,2.453,2.453,0,0,0-2.725-2.361H105.7Zm1.2-4.664V-7.213h1.324c.92,0,1.535.492,1.535,1.313,0,.768-.562,1.207-1.406,1.248ZM112.975,0h1.189V-8.279h-1.189Zm2.578,0h1.3l.639-1.8h3.439l.633,1.8h1.283L119.66-8.279h-.9Zm2.338-2.848,1.324-3.68,1.313,3.68Z" transform="translate(0.452 12)"/>
    <path id="Path_161810" data-name="Path 161810" d="M1.16,0H3.393C6.117,0,7.641-1.482,7.641-4.078c0-2.707-1.482-4.2-4.236-4.2H1.16ZM2.35-1.09V-7.2H3.381c2.121,0,3.07,1,3.07,3.053,0,2.18-1.318,3.053-3.2,3.053ZM9.4,0h5.432V-1.107H10.594V-3.615h3.8V-4.67h-3.8V-7.213h4.242V-8.279H9.4ZM19.939.117a3.622,3.622,0,0,0,3.5-2.291l-1.1-.463A2.318,2.318,0,0,1,19.969-1c-1.91,0-2.689-1.441-2.689-3.182,0-1.67.773-3.105,2.666-3.105a2.226,2.226,0,0,1,2.379,1.617l1.1-.457a3.494,3.494,0,0,0-3.451-2.285C17.3-8.414,16.1-6.428,16.1-4.148,16.1-1.846,17.326.117,19.939.117ZM25,0h5.432V-1.107H26.186V-3.615h3.8V-4.67h-3.8V-7.213h4.242V-8.279H25Zm7.277,0h1.16V-6.6l3.5,6.6h1.424V-8.279H37.2v6.592L33.68-8.279H32.273Zm8.408,0h1.16V-6.6l3.5,6.6H46.77V-8.279h-1.16v6.592L42.088-8.279H40.682ZM49.09,0h1.189V-8.279H49.09Zm6.545,0h2.232c2.725,0,4.248-1.482,4.248-4.078,0-2.707-1.482-4.2-4.236-4.2H55.635Zm1.189-1.09V-7.2h1.031c2.121,0,3.07,1,3.07,3.053,0,2.18-1.318,3.053-3.2,3.053ZM63.879,0h1.189V-8.279H63.879ZM72.65.094a2.482,2.482,0,0,0,2.719-2.437c0-2.707-4-2.232-4-3.949a1.105,1.105,0,0,1,1.2-1.061,1.634,1.634,0,0,1,1.482.92l.949-.6A2.64,2.64,0,0,0,72.6-8.4a2.219,2.219,0,0,0-2.4,2.186c0,2.6,4,2.033,4,3.973,0,.809-.592,1.277-1.535,1.277A1.711,1.711,0,0,1,70.8-2.531l-1.154.311A2.848,2.848,0,0,0,72.65.094Zm7.611.023a3.622,3.622,0,0,0,3.5-2.291l-1.1-.463A2.318,2.318,0,0,1,80.291-1C78.381-1,77.6-2.443,77.6-4.184c0-1.67.773-3.105,2.666-3.105a2.226,2.226,0,0,1,2.379,1.617l1.1-.457A3.494,3.494,0,0,0,80.3-8.414c-2.678,0-3.873,1.986-3.873,4.266C76.424-1.846,77.648.117,80.262.117ZM85.318.012h1.189V-3.627H87.7L89.754.012h1.377L88.857-3.762a2.181,2.181,0,0,0,1.7-2.15,2.453,2.453,0,0,0-2.725-2.361H85.318Zm1.2-4.664V-7.213h1.324c.92,0,1.535.492,1.535,1.313,0,.768-.562,1.207-1.406,1.248ZM92.6,0h1.189V-8.279H92.6Zm5.291,0h1.2V-7.248h2.7V-8.279h-6.6v1.031h2.7Zm7.318,0h1.2V-7.248h2.7V-8.279h-6.6v1.031h2.7Zm8.156.117c2.133,0,3.029-1.406,3.029-3.3V-8.279h-1.2v4.934c0,1.383-.41,2.32-1.834,2.32s-1.822-.937-1.822-2.32V-8.279H110.35v5.15C110.35-1.289,111.229.117,113.361.117Zm5.168-.105h1.189V-3.627h1.189L122.965.012h1.377l-2.273-3.773a2.181,2.181,0,0,0,1.7-2.15,2.453,2.453,0,0,0-2.725-2.361h-2.514Zm1.2-4.664V-7.213h1.324c.92,0,1.535.492,1.535,1.313,0,.768-.562,1.207-1.406,1.248ZM124.84,0h1.3l.639-1.8h3.439l.633,1.8h1.283l-3.187-8.279h-.9Zm2.338-2.848,1.324-3.68,1.313,3.68Z" transform="translate(243.086 12)"/>
    <path id="Path_536" data-name="Path 536" d="M288.4,70.2h-9c-3.3,0-6-2.25-6-5h0c0-2.75,2.7-5,6-5h9c3.3,0,6,2.25,6,5h0C294.4,67.95,291.7,70.2,288.4,70.2Z" transform="translate(-30.4 -6.779)" fill="#ff916b"/>
    <path id="Path_537" data-name="Path 537" d="M288.2,99.1h-9c-3.3,0-6-2.25-6-5h0c0-2.75,2.7-5,6-5h9c3.3,0,6,2.25,6,5h0C294.2,96.85,291.5,99.1,288.2,99.1Z" transform="translate(-30.2 -6.779)" fill="#40e6fd"/>
    <path id="Path_538" data-name="Path 538" d="M467.1,41.2h-9c-3.3,0-6-2.25-6-5h0c0-2.75,2.7-5,6-5h9c3.3,0,6,2.25,6,5h0C473.1,38.95,470.4,41.2,467.1,41.2Z" transform="translate(-7.1 -8.2)" fill="#40d1b5"/>
    <path id="Path_539" data-name="Path 539" d="M467.1,70.5h-9c-3.3,0-6-2.25-6-5h0c0-2.75,2.7-5,6-5h9c3.3,0,6,2.25,6,5h0C473.1,68.25,470.4,70.5,467.1,70.5Z" transform="translate(-7.1 -7.779)" fill="#8383ff"/>
    <path id="Path_161808" data-name="Path 161808" d="M.277,8h.76l.475-1.349H4.241L4.715,8h.747L3.146,1.791H2.61ZM1.745,6.014l1.138-3.2L4,6.014ZM6.442,8h.664V5.71c0-.8.391-1.635,1.121-1.635.751,0,.923.7.923,1.305V8h.668V5.565c0-.721.391-1.49,1.112-1.49.76,0,.94.725.94,1.323V8h.664V5.333c0-.976-.439-1.815-1.525-1.815a1.456,1.456,0,0,0-1.367.918,1.376,1.376,0,0,0-2.536-.145V3.61H6.442Zm9.5.088c1.143,0,1.767-1.033,1.767-2.285s-.624-2.285-1.771-2.285a1.572,1.572,0,0,0-1.362.69V1.791h-.655V8h.655V7.4A1.573,1.573,0,0,0,15.939,8.088Zm-.171-.554c-.879,0-1.252-.835-1.252-1.731s.374-1.731,1.252-1.731,1.283.844,1.283,1.731S16.651,7.534,15.768,7.534Zm3.059-4.9h.747V1.791h-.747ZM18.875,8h.65V3.61h-.65Zm3.775.062a2.153,2.153,0,0,0,1.679-.686l-.448-.36a1.534,1.534,0,0,1-1.235.47,1.3,1.3,0,0,1-1.283-1.459H24.42c.009-.079.022-.224.022-.338,0-1.011-.439-2.14-1.863-2.14a2.024,2.024,0,0,0-1.907,2.281A1.99,1.99,0,0,0,22.649,8.062ZM21.362,5.491c.035-.747.413-1.4,1.217-1.4.9,0,1.217.7,1.235,1.4ZM25.572,8h.655V5.719c0-1.09.549-1.63,1.239-1.63.773,0,1,.7,1,1.31V8h.65V5.333c0-.967-.426-1.8-1.472-1.8a1.576,1.576,0,0,0-1.415.844V3.61h-.655Zm6.139.088A1.77,1.77,0,0,0,32.3,8V7.438a1.047,1.047,0,0,1-.439.11c-.321,0-.558-.224-.558-.708V4.146h1.112V3.61H31.3v-1.6l-.65.615V3.61h-.708v.536h.7V6.835C30.647,7.587,30.933,8.088,31.711,8.088Zm2.769,0a1.639,1.639,0,0,0,1.542-.936L36.035,8h.558V5.306a1.617,1.617,0,0,0-1.718-1.789,1.948,1.948,0,0,0-1.657.861l.479.374a1.445,1.445,0,0,1,1.217-.664c.8,0,1.077.576,1.077,1.4h-1c-1.248,0-1.934.409-1.934,1.288A1.287,1.287,0,0,0,34.479,8.088Zm.075-.554c-.457,0-.822-.215-.822-.738,0-.584.448-.809,1.318-.809h.94A1.515,1.515,0,0,1,34.554,7.534ZM40.966,3.61H37.639v.536H40.2L37.512,7.5V8h3.454V7.438H38.329L40.966,4.15Zm1.042-.976h.747V1.791h-.747ZM42.056,8h.65V3.61h-.65Zm3.845.088a2.158,2.158,0,0,0,2.092-2.294,2.089,2.089,0,1,0-4.162,0A2.138,2.138,0,0,0,45.9,8.088Zm0-.545c-.967,0-1.415-.861-1.415-1.749s.448-1.731,1.424-1.731,1.415.853,1.415,1.731S46.89,7.543,45.905,7.543Zm3.2.457h.655V5.719c0-1.09.549-1.63,1.239-1.63.773,0,1,.7,1,1.31V8h.65V5.333c0-.967-.426-1.8-1.472-1.8a1.576,1.576,0,0,0-1.415.844V3.61h-.655Zm4.878-5.366h.747V1.791h-.747ZM54.035,8h.65V3.61h-.65Zm7.33-6.209V4.208a1.572,1.572,0,0,0-1.375-.69c-1.121,0-1.758,1.028-1.758,2.285s.637,2.285,1.762,2.285a1.561,1.561,0,0,0,1.375-.7L61.383,8h.637V1.791Zm-1.2,5.744C59.282,7.534,58.9,6.7,58.9,5.8s.378-1.731,1.257-1.731c.9,0,1.257.844,1.257,1.731S61.058,7.534,60.161,7.534Zm3.309-4.9h.747V1.791H63.47ZM63.519,8h.65V3.61h-.65Zm5.735.088A1.77,1.77,0,0,0,69.842,8V7.438a1.047,1.047,0,0,1-.439.11c-.321,0-.558-.224-.558-.708V4.146h1.112V3.61H68.845v-1.6l-.65.615V3.61h-.708v.536h.7V6.835C68.19,7.587,68.476,8.088,69.253,8.088Zm3.34-.026a2.153,2.153,0,0,0,1.679-.686l-.448-.36a1.534,1.534,0,0,1-1.235.47,1.3,1.3,0,0,1-1.283-1.459h3.059c.009-.079.022-.224.022-.338,0-1.011-.439-2.14-1.863-2.14a2.024,2.024,0,0,0-1.907,2.281A1.99,1.99,0,0,0,72.593,8.062ZM71.306,5.491c.035-.747.413-1.4,1.217-1.4.9,0,1.217.7,1.235,1.4Zm5.427,2.6a1.369,1.369,0,0,0,1.507-1.34c0-1.613-2.369-1.081-2.369-2.092,0-.36.294-.606.769-.606a1.035,1.035,0,0,1,.98.62l.483-.277a1.56,1.56,0,0,0-1.441-.875A1.253,1.253,0,0,0,75.27,4.735c0,1.49,2.333.91,2.333,2.092,0,.475-.365.725-.861.725a1.114,1.114,0,0,1-1.094-.835L75.094,7A1.7,1.7,0,0,0,76.733,8.088Zm3.819,0A1.77,1.77,0,0,0,81.141,8V7.438a1.047,1.047,0,0,1-.439.11c-.321,0-.558-.224-.558-.708V4.146h1.112V3.61H80.143v-1.6l-.65.615V3.61h-.708v.536h.7V6.835C79.488,7.587,79.774,8.088,80.552,8.088Zm1.705-5.454H83V1.791h-.747ZM82.305,8h.65V3.61h-.65Zm4.474-5.366h.747V1.791h-.747ZM86.827,8h.65V3.61h-.65Zm2.136,0h.655V5.719c0-1.09.549-1.63,1.239-1.63.773,0,1,.7,1,1.31V8h.65V5.333c0-.967-.426-1.8-1.472-1.8a1.576,1.576,0,0,0-1.415.844V3.61h-.655Zm8.868.088a1.675,1.675,0,0,0,1.652-1.165l-.571-.246a1.1,1.1,0,0,1-1.09.857c-.918,0-1.226-.918-1.226-1.723s.316-1.74,1.226-1.74a1.111,1.111,0,0,1,1.09.879l.62-.264a1.8,1.8,0,0,0-1.709-1.169c-1.266,0-1.9,1.116-1.9,2.294A2.019,2.019,0,0,0,97.831,8.088Zm4.052.009a1.562,1.562,0,0,0,1.38-.839V8h.65V3.61h-.65V6.04a1.41,1.41,0,0,1-1.31,1.5c-.751,0-.923-.708-.923-1.34V3.61h-.655V6.159C100.375,7.253,100.8,8.1,101.883,8.1Zm3.472-5.462h.747V1.791h-.747ZM105.4,8h.65V3.61h-.65Zm4.474-5.366h.747V1.791h-.747ZM109.925,8h.65V3.61h-.65Zm3-.483c-.2,0-.215-.237-.215-.25V1.791h-.664V7.112c0,.527.048.976.712.976A2.143,2.143,0,0,0,113.353,8V7.473A2.6,2.6,0,0,1,112.926,7.517Zm5.01.571A1.77,1.77,0,0,0,118.525,8V7.438a1.047,1.047,0,0,1-.439.11c-.321,0-.558-.224-.558-.708V4.146h1.112V3.61h-1.112v-1.6l-.65.615V3.61h-.708v.536h.7V6.835C116.873,7.587,117.158,8.088,117.936,8.088Zm3.34-.026a2.153,2.153,0,0,0,1.679-.686l-.448-.36a1.534,1.534,0,0,1-1.235.47,1.3,1.3,0,0,1-1.283-1.459h3.059c.009-.079.022-.224.022-.338,0-1.011-.439-2.14-1.863-2.14A2.024,2.024,0,0,0,119.3,5.829,1.99,1.99,0,0,0,121.276,8.062Zm-1.288-2.571c.035-.747.413-1.4,1.217-1.4.9,0,1.217.7,1.235,1.4ZM124.2,8h.664V5.71c0-.8.391-1.635,1.121-1.635.751,0,.923.7.923,1.305V8h.668V5.565c0-.721.391-1.49,1.112-1.49.76,0,.94.725.94,1.323V8h.664V5.333c0-.976-.439-1.815-1.525-1.815a1.456,1.456,0,0,0-1.367.918,1.376,1.376,0,0,0-2.536-.145V3.61H124.2Zm7.475,1.925h.659V7.4a1.575,1.575,0,0,0,1.345.686c1.178,0,1.789-1.042,1.789-2.285s-.615-2.285-1.793-2.285a1.569,1.569,0,0,0-1.34.69v-.6h-.659Zm1.863-2.391c-.892,0-1.266-.835-1.266-1.731s.374-1.731,1.266-1.731,1.27.844,1.27,1.731S134.416,7.534,133.537,7.534Zm4.8.554a2.158,2.158,0,0,0,2.092-2.294,2.089,2.089,0,1,0-4.162,0A2.138,2.138,0,0,0,138.335,8.088Zm0-.545c-.967,0-1.415-.861-1.415-1.749s.448-1.731,1.424-1.731,1.415.853,1.415,1.731S139.324,7.543,138.34,7.543Zm8.4-5.752V4.208a1.572,1.572,0,0,0-1.375-.69c-1.121,0-1.758,1.028-1.758,2.285s.637,2.285,1.762,2.285a1.561,1.561,0,0,0,1.375-.7l.013.611h.637V1.791Zm-1.2,5.744c-.879,0-1.257-.835-1.257-1.731s.378-1.731,1.257-1.731c.9,0,1.257.844,1.257,1.731S146.43,7.534,145.534,7.534Zm4.988.527a2.153,2.153,0,0,0,1.679-.686l-.448-.36a1.534,1.534,0,0,1-1.235.47,1.3,1.3,0,0,1-1.283-1.459h3.059c.009-.079.022-.224.022-.338,0-1.011-.439-2.14-1.863-2.14a2.024,2.024,0,0,0-1.907,2.281A1.99,1.99,0,0,0,150.521,8.062Zm-1.288-2.571c.035-.747.413-1.4,1.217-1.4.9,0,1.217.7,1.235,1.4Zm5.076,2.026c-.2,0-.215-.237-.215-.25V1.791h-.664V7.112c0,.527.048.976.712.976A2.143,2.143,0,0,0,154.736,8V7.473A2.6,2.6,0,0,1,154.31,7.517Zm2.276,0c-.2,0-.215-.237-.215-.25V1.791h-.664V7.112c0,.527.048.976.712.976A2.143,2.143,0,0,0,157.012,8V7.473A2.6,2.6,0,0,1,156.586,7.517Zm2.426.571a1.639,1.639,0,0,0,1.542-.936l.013.848h.558V5.306a1.617,1.617,0,0,0-1.718-1.789,1.948,1.948,0,0,0-1.657.861l.479.374a1.445,1.445,0,0,1,1.217-.664c.8,0,1.077.576,1.077,1.4h-1c-1.248,0-1.934.409-1.934,1.288A1.287,1.287,0,0,0,159.012,8.088Zm.075-.554c-.457,0-.822-.215-.822-.738,0-.584.448-.809,1.318-.809h.94A1.515,1.515,0,0,1,159.086,7.534Zm7,.554a1.369,1.369,0,0,0,1.507-1.34c0-1.613-2.369-1.081-2.369-2.092,0-.36.294-.606.769-.606a1.035,1.035,0,0,1,.98.62l.483-.277a1.56,1.56,0,0,0-1.441-.875,1.253,1.253,0,0,0-1.393,1.217c0,1.49,2.333.91,2.333,2.092,0,.475-.365.725-.861.725A1.114,1.114,0,0,1,165,6.717L164.448,7A1.7,1.7,0,0,0,166.087,8.088Zm3.819,0A1.77,1.77,0,0,0,170.495,8V7.438a1.047,1.047,0,0,1-.439.11c-.321,0-.558-.224-.558-.708V4.146h1.112V3.61H169.5v-1.6l-.65.615V3.61h-.708v.536h.7V6.835C168.842,7.587,169.128,8.088,169.906,8.088Zm3.41,0a2.158,2.158,0,0,0,2.092-2.294,2.089,2.089,0,1,0-4.162,0A2.138,2.138,0,0,0,173.316,8.088Zm0-.545c-.967,0-1.415-.861-1.415-1.749s.448-1.731,1.424-1.731,1.415.853,1.415,1.731S174.3,7.543,173.32,7.543Zm3.2.457h.646V5.807c0-1.059.453-1.661,1.2-1.661a.8.8,0,0,1,.536.167l.277-.567a1.141,1.141,0,0,0-.708-.229,1.414,1.414,0,0,0-1.3.87V3.61h-.655Zm3.463-5.366h.747V1.791h-.747ZM180.035,8h.65V3.61h-.65Zm3.16.088a1.639,1.639,0,0,0,1.542-.936L184.75,8h.558V5.306a1.617,1.617,0,0,0-1.718-1.789,1.948,1.948,0,0,0-1.657.861l.479.374a1.445,1.445,0,0,1,1.217-.664c.8,0,1.077.576,1.077,1.4h-1c-1.248,0-1.934.409-1.934,1.288A1.287,1.287,0,0,0,183.195,8.088Zm.075-.554c-.457,0-.822-.215-.822-.738,0-.584.448-.809,1.318-.809h.94A1.515,1.515,0,0,1,183.27,7.534ZM1.934,14.069H2.6l-.958-1.279H.8Zm.444,4.992a2.153,2.153,0,0,0,1.679-.686l-.448-.36a1.534,1.534,0,0,1-1.235.47A1.3,1.3,0,0,1,1.09,17.027H4.148c.009-.079.022-.224.022-.338,0-1.011-.439-2.14-1.863-2.14A2.024,2.024,0,0,0,.4,16.829,1.99,1.99,0,0,0,2.377,19.062ZM1.09,16.491c.035-.747.413-1.4,1.217-1.4.9,0,1.217.7,1.235,1.4Zm8.161,2.6A1.675,1.675,0,0,0,10.9,17.923l-.571-.246a1.1,1.1,0,0,1-1.09.857c-.918,0-1.226-.918-1.226-1.723s.316-1.74,1.226-1.74a1.111,1.111,0,0,1,1.09.879l.62-.264a1.8,1.8,0,0,0-1.709-1.169c-1.266,0-1.9,1.116-1.9,2.294A2.019,2.019,0,0,0,9.25,19.088Zm4.373,0a2.158,2.158,0,0,0,2.092-2.294,2.089,2.089,0,1,0-4.162,0A2.138,2.138,0,0,0,13.623,19.088Zm0-.545c-.967,0-1.415-.861-1.415-1.749s.448-1.731,1.424-1.731,1.415.853,1.415,1.731S14.612,18.543,13.627,18.543Zm4.069-.026c-.2,0-.215-.237-.215-.25V12.791h-.664v5.322c0,.527.048.976.712.976A2.143,2.143,0,0,0,18.123,19v-.527A2.6,2.6,0,0,1,17.7,18.517Zm2.276,0c-.2,0-.215-.237-.215-.25V12.791h-.664v5.322c0,.527.048.976.712.976A2.143,2.143,0,0,0,20.4,19v-.527A2.6,2.6,0,0,1,19.973,18.517Zm3.12.571a2.158,2.158,0,0,0,2.092-2.294,2.089,2.089,0,1,0-4.162,0A2.138,2.138,0,0,0,23.093,19.088Zm0-.545c-.967,0-1.415-.861-1.415-1.749s.448-1.731,1.424-1.731,1.415.853,1.415,1.731S24.082,18.543,23.1,18.543Zm4.777.545a1.675,1.675,0,0,0,1.652-1.165l-.571-.246a1.1,1.1,0,0,1-1.09.857c-.918,0-1.226-.918-1.226-1.723s.316-1.74,1.226-1.74a1.111,1.111,0,0,1,1.09.879l.62-.264a1.8,1.8,0,0,0-1.709-1.169c-1.266,0-1.9,1.116-1.9,2.294A2.019,2.019,0,0,0,27.875,19.088Zm3.7,0a1.639,1.639,0,0,0,1.542-.936l.013.848h.558V16.306a1.617,1.617,0,0,0-1.718-1.789,1.948,1.948,0,0,0-1.657.861l.479.374a1.445,1.445,0,0,1,1.217-.664c.8,0,1.077.576,1.077,1.4h-1c-1.248,0-1.934.409-1.934,1.288A1.287,1.287,0,0,0,31.57,19.088Zm.075-.554c-.457,0-.822-.215-.822-.738,0-.584.448-.809,1.318-.809h.94A1.515,1.515,0,0,1,31.645,18.534Zm4.619.554A1.77,1.77,0,0,0,36.853,19v-.562a1.047,1.047,0,0,1-.439.11c-.321,0-.558-.224-.558-.708V15.146h1.112V14.61H35.855v-1.6l-.65.615v.989H34.5v.536h.7v2.689C35.2,18.587,35.486,19.088,36.264,19.088Zm3.41,0a2.158,2.158,0,0,0,2.092-2.294,2.089,2.089,0,1,0-4.162,0A2.138,2.138,0,0,0,39.674,19.088Zm0-.545c-.967,0-1.415-.861-1.415-1.749s.448-1.731,1.424-1.731,1.415.853,1.415,1.731S40.663,18.543,39.678,18.543ZM45.259,19h.655V16.719c0-1.09.549-1.63,1.239-1.63.773,0,1,.7,1,1.31V19h.65V16.333c0-.967-.426-1.8-1.472-1.8a1.576,1.576,0,0,0-1.415.844V14.61h-.655Zm6.557.062a2.153,2.153,0,0,0,1.679-.686l-.448-.36a1.534,1.534,0,0,1-1.235.47,1.3,1.3,0,0,1-1.283-1.459h3.059c.009-.079.022-.224.022-.338,0-1.011-.439-2.14-1.863-2.14a2.024,2.024,0,0,0-1.907,2.281A1.99,1.99,0,0,0,51.816,19.062Zm-1.288-2.571c.035-.747.413-1.4,1.217-1.4.9,0,1.217.7,1.235,1.4ZM55.6,18.517c-.2,0-.215-.237-.215-.25V12.791h-.664v5.322c0,.527.048.976.712.976A2.143,2.143,0,0,0,56.03,19v-.527A2.6,2.6,0,0,1,55.6,18.517Zm2.276,0c-.2,0-.215-.237-.215-.25V12.791H57v5.322c0,.527.048.976.712.976A2.143,2.143,0,0,0,58.307,19v-.527A2.6,2.6,0,0,1,57.88,18.517Zm2.426.571a1.639,1.639,0,0,0,1.542-.936l.013.848h.558V16.306A1.617,1.617,0,0,0,60.7,14.518a1.948,1.948,0,0,0-1.657.861l.479.374a1.445,1.445,0,0,1,1.217-.664c.8,0,1.077.576,1.077,1.4h-1c-1.248,0-1.934.409-1.934,1.288A1.287,1.287,0,0,0,60.306,19.088Zm.075-.554c-.457,0-.822-.215-.822-.738,0-.584.448-.809,1.318-.809h.94A1.515,1.515,0,0,1,60.381,18.534Zm7.387.554a1.766,1.766,0,0,0,1.74-1.23l-.756-.3a1.018,1.018,0,0,1-.993.787c-.839,0-1.134-.791-1.134-1.529s.3-1.542,1.134-1.542a1.016,1.016,0,0,1,.993.8l.8-.33a1.854,1.854,0,0,0-1.8-1.226,2.069,2.069,0,0,0-2,2.294A2.054,2.054,0,0,0,67.768,19.088Zm4.417,0a2.184,2.184,0,0,0,2.167-2.294,2.165,2.165,0,1,0-4.324,0A2.175,2.175,0,0,0,72.185,19.088Zm0-.721c-.9,0-1.283-.765-1.283-1.573s.387-1.551,1.283-1.551,1.283.747,1.283,1.551S73.09,18.367,72.189,18.367ZM75.353,19H76.2V16.662c0-.936.475-1.375,1.121-1.375.668,0,.923.567.923,1.156V19h.844V16.346c0-.945-.435-1.819-1.529-1.819a1.615,1.615,0,0,0-1.358.729V14.61h-.844Zm6.381.088a2.046,2.046,0,0,0,.686-.11v-.756a1.244,1.244,0,0,1-.523.136c-.3,0-.527-.18-.527-.633V15.317h1.112V14.61H81.369V12.887l-.835.686V14.61h-.716v.708h.708v2.5A1.125,1.125,0,0,0,81.734,19.088Zm3.45-.013a2.227,2.227,0,0,0,1.736-.734l-.589-.5a1.427,1.427,0,0,1-1.147.47,1.158,1.158,0,0,1-1.2-1.23h3.037a2.487,2.487,0,0,0,.026-.374,1.93,1.93,0,0,0-1.942-2.175,2.068,2.068,0,0,0-2.021,2.29A2.052,2.052,0,0,0,85.184,19.075Zm-1.2-2.637c.062-.65.4-1.2,1.116-1.2.743,0,1.081.527,1.121,1.2ZM88.075,19h.857V16.653c0-.694.369-1.371,1.028-1.371s.817.576.817,1.143V19h.861V16.579c0-.659.369-1.3,1.024-1.3s.831.593.831,1.16V19h.866V16.346c0-.954-.466-1.828-1.573-1.828a1.542,1.542,0,0,0-1.406.853,1.372,1.372,0,0,0-2.448-.185V14.61h-.857Zm7.563,1.925H96.5V18.473a1.576,1.576,0,0,0,1.3.615c1.2,0,1.833-1.055,1.833-2.285s-.642-2.285-1.841-2.285a1.56,1.56,0,0,0-1.292.615V14.61h-.857Zm1.951-2.6c-.817,0-1.173-.7-1.173-1.525s.356-1.538,1.173-1.538,1.178.721,1.178,1.538S98.407,18.328,97.589,18.328Zm4.856.76a2.184,2.184,0,0,0,2.167-2.294,2.165,2.165,0,1,0-4.324,0A2.175,2.175,0,0,0,102.445,19.088Zm0-.721c-.9,0-1.283-.765-1.283-1.573s.387-1.551,1.283-1.551,1.283.747,1.283,1.551S103.351,18.367,102.45,18.367Zm3.164.633h.826V16.965c0-1.085.483-1.626,1.116-1.626a.822.822,0,0,1,.51.163l.374-.716a1.119,1.119,0,0,0-.751-.268,1.335,1.335,0,0,0-1.239.853v-.76h-.835Zm4.667.088a1.585,1.585,0,0,0,1.459-.831l.044.743h.708V16.319a1.671,1.671,0,0,0-1.8-1.8,2.03,2.03,0,0,0-1.745.91l.637.475a1.321,1.321,0,0,1,1.129-.642c.69,0,.98.479.98,1.178h-1.068c-1.125,0-1.846.365-1.846,1.279A1.357,1.357,0,0,0,110.281,19.088Zm.11-.721c-.435,0-.738-.211-.738-.624,0-.439.343-.677,1.033-.677h1.006A1.332,1.332,0,0,1,110.391,18.367Zm3.366.633h.844V16.662c0-.936.475-1.375,1.121-1.375.668,0,.923.567.923,1.156V19h.844V16.346c0-.945-.435-1.819-1.529-1.819a1.615,1.615,0,0,0-1.358.729V14.61h-.844Zm6.732.075a2.227,2.227,0,0,0,1.736-.734l-.589-.5a1.427,1.427,0,0,1-1.147.47,1.158,1.158,0,0,1-1.2-1.23h3.037a2.487,2.487,0,0,0,.026-.374,1.93,1.93,0,0,0-1.942-2.175,2.068,2.068,0,0,0-2.021,2.29A2.052,2.052,0,0,0,120.489,19.075Zm-1.2-2.637c.062-.65.4-1.2,1.116-1.2.743,0,1.081.527,1.121,1.2Zm4.052-2.733h.918v-.914h-.918Zm.035,5.3h.848V14.61h-.848Zm3.612.088a2.046,2.046,0,0,0,.686-.11v-.756a1.244,1.244,0,0,1-.523.136c-.3,0-.527-.18-.527-.633V15.317h1.112V14.61h-1.112V12.887l-.835.686V14.61h-.716v.708h.708v2.5A1.125,1.125,0,0,0,126.993,19.088Zm2.988-4.979h.721l-.971-1.318h-.984Zm-.11,4.979a1.585,1.585,0,0,0,1.459-.831l.044.743h.708V16.319a1.671,1.671,0,0,0-1.8-1.8,2.03,2.03,0,0,0-1.745.91l.637.475a1.321,1.321,0,0,1,1.129-.642c.69,0,.98.479.98,1.178h-1.068c-1.125,0-1.846.365-1.846,1.279A1.357,1.357,0,0,0,129.872,19.088Zm.11-.721c-.435,0-.738-.211-.738-.624,0-.439.343-.677,1.033-.677h1.006A1.332,1.332,0,0,1,129.981,18.367Zm7.5.721a2.158,2.158,0,0,0,2.092-2.294,2.089,2.089,0,1,0-4.162,0A2.138,2.138,0,0,0,137.479,19.088Zm0-.545c-.967,0-1.415-.861-1.415-1.749s.448-1.731,1.424-1.731,1.415.853,1.415,1.731S138.467,18.543,137.483,18.543Zm5.542-4.909h.747v-.844h-.747ZM143.073,19h.65V14.61h-.65Zm2.136,0h.655V16.719c0-1.09.549-1.63,1.239-1.63.773,0,1,.7,1,1.31V19h.65V16.333c0-.967-.426-1.8-1.472-1.8a1.576,1.576,0,0,0-1.415.844V14.61h-.655Zm8.868.088a1.675,1.675,0,0,0,1.652-1.165l-.571-.246a1.1,1.1,0,0,1-1.09.857c-.918,0-1.226-.918-1.226-1.723s.316-1.74,1.226-1.74a1.111,1.111,0,0,1,1.09.879l.62-.264a1.8,1.8,0,0,0-1.709-1.169c-1.266,0-1.9,1.116-1.9,2.294A2.019,2.019,0,0,0,154.077,19.088Zm4.052.009a1.562,1.562,0,0,0,1.38-.839V19h.65V14.61h-.65v2.43a1.41,1.41,0,0,1-1.31,1.5c-.751,0-.923-.708-.923-1.34V14.61h-.655v2.549C156.621,18.253,157.047,19.1,158.128,19.1Zm3.472-5.462h.747v-.844H161.6ZM161.648,19h.65V14.61h-.65ZM.747,31.925h.659V29.4a1.575,1.575,0,0,0,1.345.686c1.178,0,1.789-1.042,1.789-2.285s-.615-2.285-1.793-2.285a1.569,1.569,0,0,0-1.34.69v-.6H.747ZM2.61,29.534c-.892,0-1.266-.835-1.266-1.731s.374-1.731,1.266-1.731,1.27.844,1.27,1.731S3.489,29.534,2.61,29.534ZM5.7,30h.646V27.807c0-1.059.453-1.661,1.2-1.661a.8.8,0,0,1,.536.167l.277-.567a1.141,1.141,0,0,0-.708-.229,1.414,1.414,0,0,0-1.3.87V25.61H5.7Zm4.772.062a2.153,2.153,0,0,0,1.679-.686l-.448-.36a1.534,1.534,0,0,1-1.235.47,1.3,1.3,0,0,1-1.283-1.459h3.059c.009-.079.022-.224.022-.338,0-1.011-.439-2.14-1.863-2.14a2.024,2.024,0,0,0-1.907,2.281A1.99,1.99,0,0,0,10.472,30.062ZM9.185,27.491c.035-.747.413-1.4,1.217-1.4.9,0,1.217.7,1.235,1.4Zm5.427,2.6a1.369,1.369,0,0,0,1.507-1.34c0-1.613-2.369-1.081-2.369-2.092,0-.36.294-.606.769-.606a1.035,1.035,0,0,1,.98.62l.483-.277a1.56,1.56,0,0,0-1.441-.875,1.253,1.253,0,0,0-1.393,1.217c0,1.49,2.333.91,2.333,2.092,0,.475-.365.725-.861.725a1.114,1.114,0,0,1-1.094-.835L12.973,29A1.7,1.7,0,0,0,14.612,30.088Zm4.2-.026a2.153,2.153,0,0,0,1.679-.686l-.448-.36a1.534,1.534,0,0,1-1.235.47,1.3,1.3,0,0,1-1.283-1.459h3.059c.009-.079.022-.224.022-.338,0-1.011-.439-2.14-1.863-2.14a2.024,2.024,0,0,0-1.907,2.281A1.99,1.99,0,0,0,18.813,30.062Zm-1.288-2.571c.035-.747.413-1.4,1.217-1.4.9,0,1.217.7,1.235,1.4ZM21.735,30h.655V27.719c0-1.09.549-1.63,1.239-1.63.773,0,1,.7,1,1.31V30h.65V27.333c0-.967-.426-1.8-1.472-1.8a1.576,1.576,0,0,0-1.415.844V25.61h-.655Zm6.139.088A1.77,1.77,0,0,0,28.463,30v-.562a1.047,1.047,0,0,1-.439.11c-.321,0-.558-.224-.558-.708V26.146h1.112V25.61H27.466v-1.6l-.65.615v.989h-.708v.536h.7v2.689C26.811,29.587,27.1,30.088,27.875,30.088Zm3.34-.026a2.153,2.153,0,0,0,1.679-.686l-.448-.36a1.534,1.534,0,0,1-1.235.47,1.3,1.3,0,0,1-1.283-1.459h3.059c.009-.079.022-.224.022-.338,0-1.011-.439-2.14-1.863-2.14a2.024,2.024,0,0,0-1.907,2.281A1.99,1.99,0,0,0,31.214,30.062Zm-1.288-2.571c.035-.747.413-1.4,1.217-1.4.9,0,1.217.7,1.235,1.4Zm8.227,2.571a2.153,2.153,0,0,0,1.679-.686l-.448-.36a1.534,1.534,0,0,1-1.235.47,1.3,1.3,0,0,1-1.283-1.459h3.059c.009-.079.022-.224.022-.338,0-1.011-.439-2.14-1.863-2.14a2.024,2.024,0,0,0-1.907,2.281A1.99,1.99,0,0,0,38.153,30.062Zm-1.288-2.571c.035-.747.413-1.4,1.217-1.4.9,0,1.217.7,1.235,1.4Zm6.6,4.434h.659V29.4a1.575,1.575,0,0,0,1.345.686c1.178,0,1.789-1.042,1.789-2.285s-.615-2.285-1.793-2.285a1.569,1.569,0,0,0-1.34.69v-.6h-.659Zm1.863-2.391c-.892,0-1.266-.835-1.266-1.731s.374-1.731,1.266-1.731,1.27.844,1.27,1.731S46.2,29.534,45.325,29.534Zm4.113.554a1.639,1.639,0,0,0,1.542-.936l.013.848h.558V27.306a1.617,1.617,0,0,0-1.718-1.789,1.948,1.948,0,0,0-1.657.861l.479.374a1.445,1.445,0,0,1,1.217-.664c.8,0,1.077.576,1.077,1.4h-1c-1.248,0-1.934.409-1.934,1.288A1.287,1.287,0,0,0,49.438,30.088Zm.075-.554c-.457,0-.822-.215-.822-.738,0-.584.448-.809,1.318-.809h.94A1.515,1.515,0,0,1,49.513,29.534Zm4.623.554a1.369,1.369,0,0,0,1.507-1.34c0-1.613-2.369-1.081-2.369-2.092,0-.36.294-.606.769-.606a1.035,1.035,0,0,1,.98.62l.483-.277a1.56,1.56,0,0,0-1.441-.875,1.253,1.253,0,0,0-1.393,1.217c0,1.49,2.333.91,2.333,2.092,0,.475-.365.725-.861.725a1.114,1.114,0,0,1-1.094-.835L52.5,29A1.7,1.7,0,0,0,54.136,30.088Zm3.814,0a1.369,1.369,0,0,0,1.507-1.34c0-1.613-2.369-1.081-2.369-2.092,0-.36.294-.606.769-.606a1.035,1.035,0,0,1,.98.62l.483-.277a1.56,1.56,0,0,0-1.441-.875,1.253,1.253,0,0,0-1.393,1.217c0,1.49,2.333.91,2.333,2.092,0,.475-.365.725-.861.725a1.114,1.114,0,0,1-1.094-.835L56.312,29A1.7,1.7,0,0,0,57.951,30.088Zm3.542,0a1.639,1.639,0,0,0,1.542-.936l.013.848h.558V27.306a1.617,1.617,0,0,0-1.718-1.789,1.948,1.948,0,0,0-1.657.861l.479.374a1.445,1.445,0,0,1,1.217-.664c.8,0,1.077.576,1.077,1.4H62c-1.248,0-1.934.409-1.934,1.288A1.287,1.287,0,0,0,61.493,30.088Zm.075-.554c-.457,0-.822-.215-.822-.738,0-.584.448-.809,1.318-.809H63A1.515,1.515,0,0,1,61.567,29.534Zm4.619.554A1.77,1.77,0,0,0,66.775,30v-.562a1.047,1.047,0,0,1-.439.11c-.321,0-.558-.224-.558-.708V26.146h1.112V25.61H65.777v-1.6l-.65.615v.989h-.708v.536h.7v2.689C65.123,29.587,65.408,30.088,66.186,30.088Zm3.41,0a2.294,2.294,0,0,0,0-4.57,2.125,2.125,0,0,0-2.07,2.276A2.138,2.138,0,0,0,69.6,30.088Zm0-.545c-.967,0-1.415-.861-1.415-1.749s.448-1.731,1.424-1.731,1.415.853,1.415,1.731S70.585,29.543,69.6,29.543Zm6.8.545a1.369,1.369,0,0,0,1.507-1.34c0-1.613-2.369-1.081-2.369-2.092,0-.36.294-.606.769-.606a1.035,1.035,0,0,1,.98.62l.483-.277a1.56,1.56,0,0,0-1.441-.875,1.253,1.253,0,0,0-1.393,1.217c0,1.49,2.333.91,2.333,2.092,0,.475-.365.725-.861.725a1.114,1.114,0,0,1-1.094-.835L74.76,29A1.7,1.7,0,0,0,76.4,30.088Zm2.558-5.454H79.7v-.844h-.747ZM79,30h.65V25.61H79Zm4.715,0h.655V26.146h1.261V25.61H84.375v-.7c0-.448.246-.655.584-.655a1.248,1.248,0,0,1,.514.136l.158-.523a1.643,1.643,0,0,0-.721-.167,1.1,1.1,0,0,0-1.187,1.173v.738h-.8v.536h.8Zm4.324.088a2.294,2.294,0,0,0,0-4.57,2.125,2.125,0,0,0-2.07,2.276A2.138,2.138,0,0,0,88.044,30.088Zm0-.545c-.967,0-1.415-.861-1.415-1.749s.448-1.731,1.424-1.731,1.415.853,1.415,1.731S89.033,29.543,88.049,29.543Zm3.2.457h.655V27.719c0-1.09.549-1.63,1.239-1.63.773,0,1,.7,1,1.31V30h.65V27.333c0-.967-.426-1.8-1.472-1.8a1.576,1.576,0,0,0-1.415.844V25.61h-.655Zm7.734-6.209v2.417a1.572,1.572,0,0,0-1.375-.69c-1.121,0-1.758,1.028-1.758,2.285s.637,2.285,1.762,2.285a1.561,1.561,0,0,0,1.375-.7L99,30h.637V23.791Zm-1.2,5.744c-.879,0-1.257-.835-1.257-1.731s.378-1.731,1.257-1.731c.9,0,1.257.844,1.257,1.731S98.679,29.534,97.783,29.534Zm5.058.554a2.294,2.294,0,0,0,0-4.57,2.125,2.125,0,0,0-2.07,2.276A2.138,2.138,0,0,0,102.841,30.088Zm0-.545c-.967,0-1.415-.861-1.415-1.749s.448-1.731,1.424-1.731,1.415.853,1.415,1.731S103.83,29.543,102.845,29.543Zm3.2.457h.655V27.719c0-1.09.549-1.63,1.239-1.63.773,0,1,.7,1,1.31V30h.65V27.333c0-.967-.426-1.8-1.472-1.8a1.576,1.576,0,0,0-1.415.844V25.61h-.655Zm6.627.088a2.294,2.294,0,0,0,0-4.57,2.125,2.125,0,0,0-2.07,2.276A2.138,2.138,0,0,0,112.676,30.088Zm0-.545c-.967,0-1.415-.861-1.415-1.749s.448-1.731,1.424-1.731,1.415.853,1.415,1.731S113.665,29.543,112.68,29.543Zm5.542-4.909h.747v-.844h-.747ZM118.27,30h.65V25.61h-.65Zm2.136,0h.655V27.719c0-1.09.549-1.63,1.239-1.63.773,0,1,.7,1,1.31V30h.65V27.333c0-.967-.426-1.8-1.472-1.8a1.576,1.576,0,0,0-1.415.844V25.61h-.655Zm8.692.1a1.562,1.562,0,0,0,1.38-.839V30h.65V25.61h-.65v2.43a1.41,1.41,0,0,1-1.31,1.5c-.751,0-.923-.708-.923-1.34V25.61h-.655v2.549C127.591,29.253,128.017,30.1,129.1,30.1Zm3.511-.1h.655V27.719c0-1.09.549-1.63,1.239-1.63.773,0,1,.7,1,1.31V30h.65V27.333c0-.967-.426-1.8-1.472-1.8a1.576,1.576,0,0,0-1.415.844V25.61h-.655Zm8.626.088a2.046,2.046,0,0,0,.686-.11v-.756a1.244,1.244,0,0,1-.523.136c-.3,0-.527-.18-.527-.633V26.317h1.112V25.61h-1.112V23.887l-.835.686V25.61h-.716v.708h.708v2.5A1.125,1.125,0,0,0,141.236,30.088Zm3.45-.013a2.227,2.227,0,0,0,1.736-.734l-.589-.5a1.427,1.427,0,0,1-1.147.47,1.158,1.158,0,0,1-1.2-1.23h3.037a2.487,2.487,0,0,0,.026-.374,1.93,1.93,0,0,0-1.942-2.175,2.068,2.068,0,0,0-2.021,2.29A2.052,2.052,0,0,0,144.686,30.075Zm-1.2-2.637c.062-.65.4-1.2,1.116-1.2.743,0,1.081.527,1.121,1.2ZM147.577,30h.857V27.653c0-.694.369-1.371,1.028-1.371s.817.576.817,1.143V30h.861V27.579c0-.659.369-1.3,1.024-1.3s.831.593.831,1.16V30h.866V27.346c0-.954-.466-1.828-1.573-1.828a1.542,1.542,0,0,0-1.406.853,1.372,1.372,0,0,0-2.448-.185V25.61h-.857Zm7.563,1.925H156V29.473a1.576,1.576,0,0,0,1.3.615c1.2,0,1.833-1.055,1.833-2.285s-.642-2.285-1.841-2.285a1.56,1.56,0,0,0-1.292.615V25.61h-.857Zm1.951-2.6c-.817,0-1.173-.7-1.173-1.525s.356-1.538,1.173-1.538,1.178.721,1.178,1.538S157.909,29.328,157.091,29.328Zm4.856.76a2.288,2.288,0,0,0,0-4.57,2.289,2.289,0,0,0,0,4.57Zm0-.721c-.9,0-1.283-.765-1.283-1.573s.387-1.551,1.283-1.551,1.283.747,1.283,1.551S162.853,29.367,161.952,29.367Zm5.44.633h.857V27.653c0-.694.369-1.371,1.028-1.371s.817.576.817,1.143V30h.861V27.579c0-.659.369-1.3,1.024-1.3s.831.593.831,1.16V30h.866V27.346c0-.954-.466-1.828-1.573-1.828a1.542,1.542,0,0,0-1.406.853,1.372,1.372,0,0,0-2.448-.185V25.61h-.857Zm7.519-5.3h.918v-.914h-.918Zm.035,5.3h.848V25.61h-.848Zm3.5.088a1.444,1.444,0,0,0,1.6-1.4c0-1.608-2.3-1.138-2.3-1.991,0-.286.259-.5.672-.5a1,1,0,0,1,.932.593l.646-.356a1.686,1.686,0,0,0-1.547-.914,1.339,1.339,0,0,0-1.5,1.288c0,1.516,2.272.976,2.272,1.951,0,.36-.294.628-.791.628a1.037,1.037,0,0,1-1.02-.778l-.694.325A1.783,1.783,0,0,0,178.449,30.088Zm4.012,0a2.046,2.046,0,0,0,.686-.11v-.756a1.244,1.244,0,0,1-.523.136c-.3,0-.527-.18-.527-.633V26.317h1.112V25.61H182.1V23.887l-.835.686V25.61h-.716v.708h.708v2.5A1.125,1.125,0,0,0,182.461,30.088Zm3.489,0a2.288,2.288,0,0,0,0-4.57,2.289,2.289,0,0,0,0,4.57Zm0-.721c-.9,0-1.283-.765-1.283-1.573s.387-1.551,1.283-1.551,1.283.747,1.283,1.551S186.855,29.367,185.955,29.367Z" transform="translate(30 60)"/>
    <path id="Path_541" data-name="Path 541" d="M288.4,41.2h-9c-3.3,0-6-2.25-6-5h0c0-2.75,2.7-5,6-5h9c3.3,0,6,2.25,6,5h0C294.4,38.95,291.7,41.2,288.4,41.2Z" transform="translate(-30.4 -8.2)" fill="#ffda40"/>
    <path id="Path_161807" data-name="Path 161807" d="M.277,8h.76l.475-1.349H4.241L4.715,8h.747L3.146,1.791H2.61ZM1.745,6.014l1.138-3.2L4,6.014ZM6.442,8h.664V5.71c0-.8.391-1.635,1.121-1.635.751,0,.923.7.923,1.305V8h.668V5.565c0-.721.391-1.49,1.112-1.49.76,0,.94.725.94,1.323V8h.664V5.333c0-.976-.439-1.815-1.525-1.815a1.456,1.456,0,0,0-1.367.918,1.376,1.376,0,0,0-2.536-.145V3.61H6.442Zm9.5.088c1.143,0,1.767-1.033,1.767-2.285s-.624-2.285-1.771-2.285a1.572,1.572,0,0,0-1.362.69V1.791h-.655V8h.655V7.4A1.573,1.573,0,0,0,15.939,8.088Zm-.171-.554c-.879,0-1.252-.835-1.252-1.731s.374-1.731,1.252-1.731,1.283.844,1.283,1.731S16.651,7.534,15.768,7.534Zm3.059-4.9h.747V1.791h-.747ZM18.875,8h.65V3.61h-.65Zm3.775.062a2.153,2.153,0,0,0,1.679-.686l-.448-.36a1.534,1.534,0,0,1-1.235.47,1.3,1.3,0,0,1-1.283-1.459H24.42c.009-.079.022-.224.022-.338,0-1.011-.439-2.14-1.863-2.14a2.024,2.024,0,0,0-1.907,2.281A1.99,1.99,0,0,0,22.649,8.062ZM21.362,5.491c.035-.747.413-1.4,1.217-1.4.9,0,1.217.7,1.235,1.4ZM25.572,8h.655V5.719c0-1.09.549-1.63,1.239-1.63.773,0,1,.7,1,1.31V8h.65V5.333c0-.967-.426-1.8-1.472-1.8a1.576,1.576,0,0,0-1.415.844V3.61h-.655Zm6.139.088A1.77,1.77,0,0,0,32.3,8V7.438a1.047,1.047,0,0,1-.439.11c-.321,0-.558-.224-.558-.708V4.146h1.112V3.61H31.3v-1.6l-.65.615V3.61h-.708v.536h.7V6.835C30.647,7.587,30.933,8.088,31.711,8.088Zm2.769,0a1.639,1.639,0,0,0,1.542-.936L36.035,8h.558V5.306a1.617,1.617,0,0,0-1.718-1.789,1.948,1.948,0,0,0-1.657.861l.479.374a1.445,1.445,0,0,1,1.217-.664c.8,0,1.077.576,1.077,1.4h-1c-1.248,0-1.934.409-1.934,1.288A1.287,1.287,0,0,0,34.479,8.088Zm.075-.554c-.457,0-.822-.215-.822-.738,0-.584.448-.809,1.318-.809h.94A1.515,1.515,0,0,1,34.554,7.534ZM40.966,3.61H37.639v.536H40.2L37.512,7.5V8h3.454V7.438H38.329L40.966,4.15Zm1.042-.976h.747V1.791h-.747ZM42.056,8h.65V3.61h-.65Zm3.845.088a2.158,2.158,0,0,0,2.092-2.294,2.089,2.089,0,1,0-4.162,0A2.138,2.138,0,0,0,45.9,8.088Zm0-.545c-.967,0-1.415-.861-1.415-1.749s.448-1.731,1.424-1.731,1.415.853,1.415,1.731S46.89,7.543,45.905,7.543Zm3.2.457h.655V5.719c0-1.09.549-1.63,1.239-1.63.773,0,1,.7,1,1.31V8h.65V5.333c0-.967-.426-1.8-1.472-1.8a1.576,1.576,0,0,0-1.415.844V3.61h-.655Zm4.878-5.366h.747V1.791h-.747ZM54.035,8h.65V3.61h-.65Zm7.33-6.209V4.208a1.572,1.572,0,0,0-1.375-.69c-1.121,0-1.758,1.028-1.758,2.285s.637,2.285,1.762,2.285a1.561,1.561,0,0,0,1.375-.7L61.383,8h.637V1.791Zm-1.2,5.744C59.282,7.534,58.9,6.7,58.9,5.8s.378-1.731,1.257-1.731c.9,0,1.257.844,1.257,1.731S61.058,7.534,60.161,7.534Zm3.309-4.9h.747V1.791H63.47ZM63.519,8h.65V3.61h-.65Zm5.735.088A1.77,1.77,0,0,0,69.842,8V7.438a1.047,1.047,0,0,1-.439.11c-.321,0-.558-.224-.558-.708V4.146h1.112V3.61H68.845v-1.6l-.65.615V3.61h-.708v.536h.7V6.835C68.19,7.587,68.476,8.088,69.253,8.088Zm3.34-.026a2.153,2.153,0,0,0,1.679-.686l-.448-.36a1.534,1.534,0,0,1-1.235.47,1.3,1.3,0,0,1-1.283-1.459h3.059c.009-.079.022-.224.022-.338,0-1.011-.439-2.14-1.863-2.14a2.024,2.024,0,0,0-1.907,2.281A1.99,1.99,0,0,0,72.593,8.062ZM71.306,5.491c.035-.747.413-1.4,1.217-1.4.9,0,1.217.7,1.235,1.4Zm5.427,2.6a1.369,1.369,0,0,0,1.507-1.34c0-1.613-2.369-1.081-2.369-2.092,0-.36.294-.606.769-.606a1.035,1.035,0,0,1,.98.62l.483-.277a1.56,1.56,0,0,0-1.441-.875A1.253,1.253,0,0,0,75.27,4.735c0,1.49,2.333.91,2.333,2.092,0,.475-.365.725-.861.725a1.114,1.114,0,0,1-1.094-.835L75.094,7A1.7,1.7,0,0,0,76.733,8.088Zm3.819,0A1.77,1.77,0,0,0,81.141,8V7.438a1.047,1.047,0,0,1-.439.11c-.321,0-.558-.224-.558-.708V4.146h1.112V3.61H80.143v-1.6l-.65.615V3.61h-.708v.536h.7V6.835C79.488,7.587,79.774,8.088,80.552,8.088Zm1.705-5.454H83V1.791h-.747ZM82.305,8h.65V3.61h-.65Zm4.474-5.366h.747V1.791h-.747ZM86.827,8h.65V3.61h-.65Zm2.136,0h.655V5.719c0-1.09.549-1.63,1.239-1.63.773,0,1,.7,1,1.31V8h.65V5.333c0-.967-.426-1.8-1.472-1.8a1.576,1.576,0,0,0-1.415.844V3.61h-.655Zm8.868.088a1.675,1.675,0,0,0,1.652-1.165l-.571-.246a1.1,1.1,0,0,1-1.09.857c-.918,0-1.226-.918-1.226-1.723s.316-1.74,1.226-1.74a1.111,1.111,0,0,1,1.09.879l.62-.264a1.8,1.8,0,0,0-1.709-1.169c-1.266,0-1.9,1.116-1.9,2.294A2.019,2.019,0,0,0,97.831,8.088Zm4.052.009a1.562,1.562,0,0,0,1.38-.839V8h.65V3.61h-.65V6.04a1.41,1.41,0,0,1-1.31,1.5c-.751,0-.923-.708-.923-1.34V3.61h-.655V6.159C100.375,7.253,100.8,8.1,101.883,8.1Zm3.472-5.462h.747V1.791h-.747ZM105.4,8h.65V3.61h-.65Zm4.474-5.366h.747V1.791h-.747ZM109.925,8h.65V3.61h-.65Zm3-.483c-.2,0-.215-.237-.215-.25V1.791h-.664V7.112c0,.527.048.976.712.976A2.143,2.143,0,0,0,113.353,8V7.473A2.6,2.6,0,0,1,112.926,7.517Zm5.01.571A1.77,1.77,0,0,0,118.525,8V7.438a1.047,1.047,0,0,1-.439.11c-.321,0-.558-.224-.558-.708V4.146h1.112V3.61h-1.112v-1.6l-.65.615V3.61h-.708v.536h.7V6.835C116.873,7.587,117.158,8.088,117.936,8.088Zm3.34-.026a2.153,2.153,0,0,0,1.679-.686l-.448-.36a1.534,1.534,0,0,1-1.235.47,1.3,1.3,0,0,1-1.283-1.459h3.059c.009-.079.022-.224.022-.338,0-1.011-.439-2.14-1.863-2.14A2.024,2.024,0,0,0,119.3,5.829,1.99,1.99,0,0,0,121.276,8.062Zm-1.288-2.571c.035-.747.413-1.4,1.217-1.4.9,0,1.217.7,1.235,1.4ZM124.2,8h.664V5.71c0-.8.391-1.635,1.121-1.635.751,0,.923.7.923,1.305V8h.668V5.565c0-.721.391-1.49,1.112-1.49.76,0,.94.725.94,1.323V8h.664V5.333c0-.976-.439-1.815-1.525-1.815a1.456,1.456,0,0,0-1.367.918,1.376,1.376,0,0,0-2.536-.145V3.61H124.2Zm7.475,1.925h.659V7.4a1.575,1.575,0,0,0,1.345.686c1.178,0,1.789-1.042,1.789-2.285s-.615-2.285-1.793-2.285a1.569,1.569,0,0,0-1.34.69v-.6h-.659Zm1.863-2.391c-.892,0-1.266-.835-1.266-1.731s.374-1.731,1.266-1.731,1.27.844,1.27,1.731S134.416,7.534,133.537,7.534Zm4.8.554a2.158,2.158,0,0,0,2.092-2.294,2.089,2.089,0,1,0-4.162,0A2.138,2.138,0,0,0,138.335,8.088Zm0-.545c-.967,0-1.415-.861-1.415-1.749s.448-1.731,1.424-1.731,1.415.853,1.415,1.731S139.324,7.543,138.34,7.543Zm8.4-5.752V4.208a1.572,1.572,0,0,0-1.375-.69c-1.121,0-1.758,1.028-1.758,2.285s.637,2.285,1.762,2.285a1.561,1.561,0,0,0,1.375-.7l.013.611h.637V1.791Zm-1.2,5.744c-.879,0-1.257-.835-1.257-1.731s.378-1.731,1.257-1.731c.9,0,1.257.844,1.257,1.731S146.43,7.534,145.534,7.534Zm4.988.527a2.153,2.153,0,0,0,1.679-.686l-.448-.36a1.534,1.534,0,0,1-1.235.47,1.3,1.3,0,0,1-1.283-1.459h3.059c.009-.079.022-.224.022-.338,0-1.011-.439-2.14-1.863-2.14a2.024,2.024,0,0,0-1.907,2.281A1.99,1.99,0,0,0,150.521,8.062Zm-1.288-2.571c.035-.747.413-1.4,1.217-1.4.9,0,1.217.7,1.235,1.4Zm5.076,2.026c-.2,0-.215-.237-.215-.25V1.791h-.664V7.112c0,.527.048.976.712.976A2.143,2.143,0,0,0,154.736,8V7.473A2.6,2.6,0,0,1,154.31,7.517Zm2.276,0c-.2,0-.215-.237-.215-.25V1.791h-.664V7.112c0,.527.048.976.712.976A2.143,2.143,0,0,0,157.012,8V7.473A2.6,2.6,0,0,1,156.586,7.517Zm2.426.571a1.639,1.639,0,0,0,1.542-.936l.013.848h.558V5.306a1.617,1.617,0,0,0-1.718-1.789,1.948,1.948,0,0,0-1.657.861l.479.374a1.445,1.445,0,0,1,1.217-.664c.8,0,1.077.576,1.077,1.4h-1c-1.248,0-1.934.409-1.934,1.288A1.287,1.287,0,0,0,159.012,8.088Zm.075-.554c-.457,0-.822-.215-.822-.738,0-.584.448-.809,1.318-.809h.94A1.515,1.515,0,0,1,159.086,7.534Zm7,.554a1.369,1.369,0,0,0,1.507-1.34c0-1.613-2.369-1.081-2.369-2.092,0-.36.294-.606.769-.606a1.035,1.035,0,0,1,.98.62l.483-.277a1.56,1.56,0,0,0-1.441-.875,1.253,1.253,0,0,0-1.393,1.217c0,1.49,2.333.91,2.333,2.092,0,.475-.365.725-.861.725A1.114,1.114,0,0,1,165,6.717L164.448,7A1.7,1.7,0,0,0,166.087,8.088Zm3.819,0A1.77,1.77,0,0,0,170.495,8V7.438a1.047,1.047,0,0,1-.439.11c-.321,0-.558-.224-.558-.708V4.146h1.112V3.61H169.5v-1.6l-.65.615V3.61h-.708v.536h.7V6.835C168.842,7.587,169.128,8.088,169.906,8.088Zm3.41,0a2.158,2.158,0,0,0,2.092-2.294,2.089,2.089,0,1,0-4.162,0A2.138,2.138,0,0,0,173.316,8.088Zm0-.545c-.967,0-1.415-.861-1.415-1.749s.448-1.731,1.424-1.731,1.415.853,1.415,1.731S174.3,7.543,173.32,7.543Zm3.2.457h.646V5.807c0-1.059.453-1.661,1.2-1.661a.8.8,0,0,1,.536.167l.277-.567a1.141,1.141,0,0,0-.708-.229,1.414,1.414,0,0,0-1.3.87V3.61h-.655Zm3.463-5.366h.747V1.791h-.747ZM180.035,8h.65V3.61h-.65Zm3.16.088a1.639,1.639,0,0,0,1.542-.936L184.75,8h.558V5.306a1.617,1.617,0,0,0-1.718-1.789,1.948,1.948,0,0,0-1.657.861l.479.374a1.445,1.445,0,0,1,1.217-.664c.8,0,1.077.576,1.077,1.4h-1c-1.248,0-1.934.409-1.934,1.288A1.287,1.287,0,0,0,183.195,8.088Zm.075-.554c-.457,0-.822-.215-.822-.738,0-.584.448-.809,1.318-.809h.94A1.515,1.515,0,0,1,183.27,7.534ZM1.934,14.069H2.6l-.958-1.279H.8Zm.444,4.992a2.153,2.153,0,0,0,1.679-.686l-.448-.36a1.534,1.534,0,0,1-1.235.47A1.3,1.3,0,0,1,1.09,17.027H4.148c.009-.079.022-.224.022-.338,0-1.011-.439-2.14-1.863-2.14A2.024,2.024,0,0,0,.4,16.829,1.99,1.99,0,0,0,2.377,19.062ZM1.09,16.491c.035-.747.413-1.4,1.217-1.4.9,0,1.217.7,1.235,1.4Zm8.161,2.6A1.675,1.675,0,0,0,10.9,17.923l-.571-.246a1.1,1.1,0,0,1-1.09.857c-.918,0-1.226-.918-1.226-1.723s.316-1.74,1.226-1.74a1.111,1.111,0,0,1,1.09.879l.62-.264a1.8,1.8,0,0,0-1.709-1.169c-1.266,0-1.9,1.116-1.9,2.294A2.019,2.019,0,0,0,9.25,19.088Zm4.373,0a2.158,2.158,0,0,0,2.092-2.294,2.089,2.089,0,1,0-4.162,0A2.138,2.138,0,0,0,13.623,19.088Zm0-.545c-.967,0-1.415-.861-1.415-1.749s.448-1.731,1.424-1.731,1.415.853,1.415,1.731S14.612,18.543,13.627,18.543Zm4.069-.026c-.2,0-.215-.237-.215-.25V12.791h-.664v5.322c0,.527.048.976.712.976A2.143,2.143,0,0,0,18.123,19v-.527A2.6,2.6,0,0,1,17.7,18.517Zm2.276,0c-.2,0-.215-.237-.215-.25V12.791h-.664v5.322c0,.527.048.976.712.976A2.143,2.143,0,0,0,20.4,19v-.527A2.6,2.6,0,0,1,19.973,18.517Zm3.12.571a2.158,2.158,0,0,0,2.092-2.294,2.089,2.089,0,1,0-4.162,0A2.138,2.138,0,0,0,23.093,19.088Zm0-.545c-.967,0-1.415-.861-1.415-1.749s.448-1.731,1.424-1.731,1.415.853,1.415,1.731S24.082,18.543,23.1,18.543Zm4.777.545a1.675,1.675,0,0,0,1.652-1.165l-.571-.246a1.1,1.1,0,0,1-1.09.857c-.918,0-1.226-.918-1.226-1.723s.316-1.74,1.226-1.74a1.111,1.111,0,0,1,1.09.879l.62-.264a1.8,1.8,0,0,0-1.709-1.169c-1.266,0-1.9,1.116-1.9,2.294A2.019,2.019,0,0,0,27.875,19.088Zm3.7,0a1.639,1.639,0,0,0,1.542-.936l.013.848h.558V16.306a1.617,1.617,0,0,0-1.718-1.789,1.948,1.948,0,0,0-1.657.861l.479.374a1.445,1.445,0,0,1,1.217-.664c.8,0,1.077.576,1.077,1.4h-1c-1.248,0-1.934.409-1.934,1.288A1.287,1.287,0,0,0,31.57,19.088Zm.075-.554c-.457,0-.822-.215-.822-.738,0-.584.448-.809,1.318-.809h.94A1.515,1.515,0,0,1,31.645,18.534Zm4.619.554A1.77,1.77,0,0,0,36.853,19v-.562a1.047,1.047,0,0,1-.439.11c-.321,0-.558-.224-.558-.708V15.146h1.112V14.61H35.855v-1.6l-.65.615v.989H34.5v.536h.7v2.689C35.2,18.587,35.486,19.088,36.264,19.088Zm3.41,0a2.158,2.158,0,0,0,2.092-2.294,2.089,2.089,0,1,0-4.162,0A2.138,2.138,0,0,0,39.674,19.088Zm0-.545c-.967,0-1.415-.861-1.415-1.749s.448-1.731,1.424-1.731,1.415.853,1.415,1.731S40.663,18.543,39.678,18.543Zm6.6.545a1.639,1.639,0,0,0,1.542-.936l.013.848H48.4V16.306a1.617,1.617,0,0,0-1.718-1.789,1.948,1.948,0,0,0-1.657.861l.479.374a1.445,1.445,0,0,1,1.217-.664c.8,0,1.077.576,1.077,1.4h-1c-1.248,0-1.934.409-1.934,1.288A1.287,1.287,0,0,0,46.283,19.088Zm.075-.554c-.457,0-.822-.215-.822-.738,0-.584.448-.809,1.318-.809h.94A1.515,1.515,0,0,1,46.358,18.534Zm4.271-.018c-.2,0-.215-.237-.215-.25V12.791H49.75v5.322c0,.527.048.976.712.976A2.143,2.143,0,0,0,51.056,19v-.527A2.6,2.6,0,0,1,50.629,18.517Zm3.753,2.408h.857V18.473a1.576,1.576,0,0,0,1.3.615c1.2,0,1.833-1.055,1.833-2.285s-.642-2.285-1.841-2.285a1.56,1.56,0,0,0-1.292.615V14.61h-.857Zm1.951-2.6c-.817,0-1.173-.7-1.173-1.525s.356-1.538,1.173-1.538,1.178.721,1.178,1.538S57.151,18.328,56.333,18.328Zm4.192.76a1.585,1.585,0,0,0,1.459-.831l.044.743h.708V16.319a1.671,1.671,0,0,0-1.8-1.8,2.03,2.03,0,0,0-1.745.91l.637.475a1.321,1.321,0,0,1,1.129-.642c.69,0,.98.479.98,1.178H60.869c-1.125,0-1.846.365-1.846,1.279A1.357,1.357,0,0,0,60.526,19.088Zm.11-.721c-.435,0-.738-.211-.738-.624,0-.439.343-.677,1.033-.677h1.006A1.332,1.332,0,0,1,60.636,18.367Zm4.632.721a1.444,1.444,0,0,0,1.6-1.4c0-1.608-2.3-1.138-2.3-1.991,0-.286.259-.5.672-.5a1,1,0,0,1,.932.593l.646-.356a1.686,1.686,0,0,0-1.547-.914,1.339,1.339,0,0,0-1.5,1.288c0,1.516,2.272.976,2.272,1.951,0,.36-.294.628-.791.628a1.037,1.037,0,0,1-1.02-.778l-.694.325A1.783,1.783,0,0,0,65.268,19.088Zm3.9,0a1.444,1.444,0,0,0,1.6-1.4c0-1.608-2.3-1.138-2.3-1.991,0-.286.259-.5.672-.5a1,1,0,0,1,.932.593l.646-.356a1.686,1.686,0,0,0-1.547-.914,1.339,1.339,0,0,0-1.5,1.288c0,1.516,2.272.976,2.272,1.951,0,.36-.294.628-.791.628a1.037,1.037,0,0,1-1.02-.778l-.694.325A1.783,1.783,0,0,0,69.17,19.088Zm3.678,0a1.585,1.585,0,0,0,1.459-.831l.044.743h.708V16.319a1.671,1.671,0,0,0-1.8-1.8,2.03,2.03,0,0,0-1.745.91l.637.475a1.321,1.321,0,0,1,1.129-.642c.69,0,.98.479.98,1.178H73.191c-1.125,0-1.846.365-1.846,1.279A1.357,1.357,0,0,0,72.848,19.088Zm.11-.721c-.435,0-.738-.211-.738-.624,0-.439.343-.677,1.033-.677h1.006A1.332,1.332,0,0,1,72.958,18.367Zm4.724.721a2.046,2.046,0,0,0,.686-.11v-.756a1.244,1.244,0,0,1-.523.136c-.3,0-.527-.18-.527-.633V15.317h1.112V14.61H77.317V12.887l-.835.686V14.61h-.716v.708h.708v2.5A1.125,1.125,0,0,0,77.682,19.088Zm3.489,0a2.184,2.184,0,0,0,2.167-2.294,2.165,2.165,0,1,0-4.324,0A2.175,2.175,0,0,0,81.171,19.088Zm0-.721c-.9,0-1.283-.765-1.283-1.573s.387-1.551,1.283-1.551,1.283.747,1.283,1.551S82.077,18.367,81.176,18.367Zm7.295.721a2.158,2.158,0,0,0,2.092-2.294,2.089,2.089,0,1,0-4.162,0A2.138,2.138,0,0,0,88.471,19.088Zm0-.545c-.967,0-1.415-.861-1.415-1.749s.448-1.731,1.424-1.731,1.415.853,1.415,1.731S89.459,18.543,88.475,18.543Zm5.542-4.909h.747v-.844h-.747ZM94.065,19h.65V14.61h-.65ZM96.2,19h.655V16.719c0-1.09.549-1.63,1.239-1.63.773,0,1,.7,1,1.31V19h.65V16.333c0-.967-.426-1.8-1.472-1.8a1.576,1.576,0,0,0-1.415.844V14.61H96.2Zm8.692.1a1.562,1.562,0,0,0,1.38-.839V19h.65V14.61h-.65v2.43a1.41,1.41,0,0,1-1.31,1.5c-.751,0-.923-.708-.923-1.34V14.61h-.655v2.549C103.386,18.253,103.812,19.1,104.893,19.1ZM108.4,19h.655V16.719c0-1.09.549-1.63,1.239-1.63.773,0,1,.7,1,1.31V19h.65V16.333c0-.967-.426-1.8-1.472-1.8a1.576,1.576,0,0,0-1.415.844V14.61H108.4Zm8.626.088a2.046,2.046,0,0,0,.686-.11v-.756a1.244,1.244,0,0,1-.523.136c-.3,0-.527-.18-.527-.633V15.317h1.112V14.61h-1.112V12.887l-.835.686V14.61h-.716v.708h.708v2.5A1.125,1.125,0,0,0,117.031,19.088Zm3.45-.013a2.227,2.227,0,0,0,1.736-.734l-.589-.5a1.427,1.427,0,0,1-1.147.47,1.158,1.158,0,0,1-1.2-1.23h3.037a2.487,2.487,0,0,0,.026-.374,1.93,1.93,0,0,0-1.942-2.175,2.068,2.068,0,0,0-2.021,2.29A2.052,2.052,0,0,0,120.48,19.075Zm-1.2-2.637c.062-.65.4-1.2,1.116-1.2.743,0,1.081.527,1.121,1.2ZM123.372,19h.857V16.653c0-.694.369-1.371,1.028-1.371s.817.576.817,1.143V19h.861V16.579c0-.659.369-1.3,1.024-1.3s.831.593.831,1.16V19h.866V16.346c0-.954-.466-1.828-1.573-1.828a1.542,1.542,0,0,0-1.406.853,1.372,1.372,0,0,0-2.448-.185V14.61h-.857Zm7.563,1.925h.857V18.473a1.576,1.576,0,0,0,1.3.615c1.2,0,1.833-1.055,1.833-2.285s-.642-2.285-1.841-2.285a1.56,1.56,0,0,0-1.292.615V14.61h-.857Zm1.951-2.6c-.817,0-1.173-.7-1.173-1.525s.356-1.538,1.173-1.538,1.178.721,1.178,1.538S133.7,18.328,132.886,18.328Zm4.856.76a2.184,2.184,0,0,0,2.167-2.294,2.165,2.165,0,1,0-4.324,0A2.175,2.175,0,0,0,137.742,19.088Zm0-.721c-.9,0-1.283-.765-1.283-1.573s.387-1.551,1.283-1.551,1.283.747,1.283,1.551S138.647,18.367,137.747,18.367Zm5.405-4.663h.918v-.914h-.918Zm.035,5.3h.848V14.61h-.848Zm2.237,0h.844V16.662c0-.936.475-1.375,1.121-1.375.668,0,.923.567.923,1.156V19h.844V16.346c0-.945-.435-1.819-1.529-1.819a1.615,1.615,0,0,0-1.358.729V14.61h-.844Zm7.8-6.209v2.342a1.587,1.587,0,0,0-1.318-.615c-1.165,0-1.815,1.05-1.815,2.285s.65,2.285,1.824,2.285a1.566,1.566,0,0,0,1.332-.637l.026.549h.809V12.791Zm-1.094,5.55c-.817,0-1.173-.716-1.173-1.538s.356-1.534,1.173-1.534,1.165.716,1.165,1.534S152.952,18.341,152.13,18.341Zm5.076.734a2.227,2.227,0,0,0,1.736-.734l-.589-.5a1.427,1.427,0,0,1-1.147.47,1.158,1.158,0,0,1-1.2-1.23h3.037a2.487,2.487,0,0,0,.026-.374,1.93,1.93,0,0,0-1.942-2.175,2.068,2.068,0,0,0-2.021,2.29A2.052,2.052,0,0,0,157.206,19.075Zm-1.2-2.637c.062-.65.4-1.2,1.116-1.2.743,0,1.081.527,1.121,1.2ZM160.185,19h.826V15.317h1.525V19h.8V14.61h-2.329c0-.664.2-1.16.905-1.16a1.154,1.154,0,0,1,.905.409l.457-.62a1.771,1.771,0,0,0-1.349-.541c-1.3,0-1.74.87-1.74,1.912h-.668v.708h.664Zm4.526,0h.844V16.662c0-.936.475-1.375,1.121-1.375.668,0,.923.567.923,1.156V19h.844V16.346c0-.945-.435-1.819-1.529-1.819a1.615,1.615,0,0,0-1.358.729V14.61h-.844Zm4.97-5.3h.918v-.914h-.918Zm.035,5.3h.848V14.61h-.848Zm3.612.088a2.046,2.046,0,0,0,.686-.11v-.756a1.244,1.244,0,0,1-.523.136c-.3,0-.527-.18-.527-.633V15.317h1.112V14.61h-1.112V12.887l-.835.686V14.61h-.716v.708h.708v2.5A1.125,1.125,0,0,0,173.329,19.088Zm3.489,0a2.184,2.184,0,0,0,2.167-2.294,2.165,2.165,0,1,0-4.324,0A2.175,2.175,0,0,0,176.818,19.088Zm0-.721c-.9,0-1.283-.765-1.283-1.573s.387-1.551,1.283-1.551,1.283.747,1.283,1.551S177.724,18.367,176.823,18.367Z" transform="translate(30 23)"/>
    <path id="Path_161811" data-name="Path 161811" d="M.932,8H4.285V7.363H1.63V1.791h-.7Zm5.59.1A1.562,1.562,0,0,0,7.9,7.257V8h.65V3.61H7.9V6.04a1.41,1.41,0,0,1-1.31,1.5c-.751,0-.923-.708-.923-1.34V3.61H5.014V6.159C5.014,7.253,5.44,8.1,6.521,8.1Zm5.186-.009A2.158,2.158,0,0,0,13.8,5.794a2.089,2.089,0,1,0-4.162,0A2.138,2.138,0,0,0,11.707,8.088Zm0-.545c-.967,0-1.415-.861-1.415-1.749s.448-1.731,1.424-1.731,1.415.853,1.415,1.731S12.7,7.543,11.711,7.543Zm4.781-.11c-.624-.088-1.173-.22-1.173-.672a.416.416,0,0,1,.189-.338,1.871,1.871,0,0,0,.826.185A1.5,1.5,0,0,0,17.956,5.1a1.585,1.585,0,0,0-.163-.712l.708-.558-.374-.466-.659.6a1.67,1.67,0,0,0-1.134-.409,1.534,1.534,0,0,0-1.644,1.538,1.463,1.463,0,0,0,.369,1,.9.9,0,0,0-.321.725.973.973,0,0,0,.558.9l-.633.637a1.158,1.158,0,0,0-.013.167c0,.835.751,1.494,1.894,1.494.923,0,1.758-.431,1.758-1.336C18.3,7.684,17.385,7.552,16.493,7.433Zm-.167-3.366A.953.953,0,0,1,17.3,5.073a.969.969,0,1,1-1.938,0A.959.959,0,0,1,16.326,4.067ZM16.6,9.433c-.853,0-1.336-.448-1.34-.9l.519-.633a4.453,4.453,0,0,0,.523.114c.751.127,1.419.149,1.419.712C17.719,9.2,17.178,9.433,16.6,9.433ZM19.424,8h.65V5.631a1.383,1.383,0,0,1,1.31-1.485c.756,0,.932.655.932,1.252V8h.664V5.293c0-.936-.426-1.762-1.477-1.762a1.714,1.714,0,0,0-1.428.8V1.791h-.65Zm4.891-5.366h.747V1.791h-.747ZM24.363,8h.65V3.61h-.65Zm7.33-6.209V4.208a1.572,1.572,0,0,0-1.375-.69C29.2,3.518,28.56,4.546,28.56,5.8s.637,2.285,1.762,2.285a1.561,1.561,0,0,0,1.375-.7L31.711,8h.637V1.791Zm-1.2,5.744c-.879,0-1.257-.835-1.257-1.731s.378-1.731,1.257-1.731c.9,0,1.257.844,1.257,1.731S31.386,7.534,30.489,7.534Zm3.234-3.608h.409l.98-2.136h-.857Zm3.243,4.162a1.639,1.639,0,0,0,1.542-.936L38.522,8h.558V5.306a1.617,1.617,0,0,0-1.718-1.789,1.948,1.948,0,0,0-1.657.861l.479.374A1.445,1.445,0,0,1,37.4,4.089c.8,0,1.077.576,1.077,1.4h-1c-1.248,0-1.934.409-1.934,1.288A1.287,1.287,0,0,0,36.967,8.088Zm.075-.554c-.457,0-.822-.215-.822-.738,0-.584.448-.809,1.318-.809h.94A1.515,1.515,0,0,1,37.042,7.534ZM40.447,8h.664V5.71c0-.8.391-1.635,1.121-1.635.751,0,.923.7.923,1.305V8h.668V5.565c0-.721.391-1.49,1.112-1.49.76,0,.94.725.94,1.323V8h.664V5.333c0-.976-.439-1.815-1.525-1.815a1.456,1.456,0,0,0-1.367.918,1.376,1.376,0,0,0-2.536-.145V3.61h-.664Zm9.5.088c1.143,0,1.767-1.033,1.767-2.285s-.624-2.285-1.771-2.285a1.572,1.572,0,0,0-1.362.69V1.791h-.655V8h.655V7.4A1.573,1.573,0,0,0,49.944,8.088Zm-.171-.554c-.879,0-1.252-.835-1.252-1.731s.374-1.731,1.252-1.731,1.283.844,1.283,1.731S50.656,7.534,49.772,7.534Zm3.059-4.9h.747V1.791h-.747ZM52.879,8h.65V3.61h-.65Zm3.775.062a2.153,2.153,0,0,0,1.679-.686l-.448-.36a1.534,1.534,0,0,1-1.235.47,1.3,1.3,0,0,1-1.283-1.459h3.059c.009-.079.022-.224.022-.338,0-1.011-.439-2.14-1.863-2.14a2.024,2.024,0,0,0-1.907,2.281A1.99,1.99,0,0,0,56.654,8.062ZM55.367,5.491c.035-.747.413-1.4,1.217-1.4.9,0,1.217.7,1.235,1.4ZM59.577,8h.655V5.719c0-1.09.549-1.63,1.239-1.63.773,0,1,.7,1,1.31V8h.65V5.333c0-.967-.426-1.8-1.472-1.8a1.576,1.576,0,0,0-1.415.844V3.61h-.655Zm6.139.088A1.77,1.77,0,0,0,66.3,8V7.438a1.047,1.047,0,0,1-.439.11c-.321,0-.558-.224-.558-.708V4.146h1.112V3.61H65.307v-1.6l-.65.615V3.61h-.708v.536h.7V6.835C64.652,7.587,64.938,8.088,65.716,8.088Zm2.769,0a1.639,1.639,0,0,0,1.542-.936L70.04,8H70.6V5.306A1.617,1.617,0,0,0,68.88,3.518a1.948,1.948,0,0,0-1.657.861l.479.374a1.445,1.445,0,0,1,1.217-.664c.8,0,1.077.576,1.077,1.4h-1c-1.248,0-1.934.409-1.934,1.288A1.287,1.287,0,0,0,68.484,8.088Zm.075-.554c-.457,0-.822-.215-.822-.738,0-.584.448-.809,1.318-.809H70A1.515,1.515,0,0,1,68.559,7.534ZM74.971,3.61H71.644v.536H74.2L71.517,7.5V8h3.454V7.438H72.334L74.971,4.15Zm1.042-.976h.747V1.791h-.747ZM76.061,8h.65V3.61h-.65Zm3.845.088A2.158,2.158,0,0,0,82,5.794a2.089,2.089,0,1,0-4.162,0A2.138,2.138,0,0,0,79.906,8.088Zm0-.545c-.967,0-1.415-.861-1.415-1.749s.448-1.731,1.424-1.731,1.415.853,1.415,1.731S80.895,7.543,79.91,7.543Zm3.2.457h.655V5.719c0-1.09.549-1.63,1.239-1.63.773,0,1,.7,1,1.31V8h.65V5.333c0-.967-.426-1.8-1.472-1.8a1.576,1.576,0,0,0-1.415.844V3.61h-.655Zm6.557.062a2.153,2.153,0,0,0,1.679-.686l-.448-.36a1.534,1.534,0,0,1-1.235.47,1.3,1.3,0,0,1-1.283-1.459h3.059c.009-.079.022-.224.022-.338,0-1.011-.439-2.14-1.863-2.14a2.024,2.024,0,0,0-1.907,2.281A1.99,1.99,0,0,0,89.67,8.062ZM88.383,5.491c.035-.747.413-1.4,1.217-1.4.9,0,1.217.7,1.235,1.4ZM94.97,8h.646V5.807c0-1.059.453-1.661,1.2-1.661a.8.8,0,0,1,.536.167l.277-.567a1.141,1.141,0,0,0-.708-.229,1.414,1.414,0,0,0-1.3.87V3.61H94.97Zm3.463-5.366h.747V1.791h-.747ZM98.481,8h.65V3.61h-.65Zm3.709.088a1.675,1.675,0,0,0,1.652-1.165l-.571-.246a1.1,1.1,0,0,1-1.09.857c-.918,0-1.226-.918-1.226-1.723s.316-1.74,1.226-1.74a1.111,1.111,0,0,1,1.09.879l.62-.264a1.8,1.8,0,0,0-1.709-1.169c-1.266,0-1.9,1.116-1.9,2.294A2.019,2.019,0,0,0,102.19,8.088Zm4.373,0a2.158,2.158,0,0,0,2.092-2.294,2.089,2.089,0,1,0-4.162,0A2.138,2.138,0,0,0,106.563,8.088Zm0-.545c-.967,0-1.415-.861-1.415-1.749s.448-1.731,1.424-1.731,1.415.853,1.415,1.731S107.552,7.543,106.567,7.543Zm3.2.457h.646V5.807c0-1.059.453-1.661,1.2-1.661a.8.8,0,0,1,.536.167l.277-.567a1.141,1.141,0,0,0-.708-.229,1.414,1.414,0,0,0-1.3.87V3.61h-.655Zm3.5,0h.646V5.807c0-1.059.453-1.661,1.2-1.661a.8.8,0,0,1,.536.167l.277-.567a1.141,1.141,0,0,0-.708-.229,1.414,1.414,0,0,0-1.3.87V3.61h-.655Zm4.772.062a2.153,2.153,0,0,0,1.679-.686l-.448-.36a1.534,1.534,0,0,1-1.235.47,1.3,1.3,0,0,1-1.283-1.459h3.059c.009-.079.022-.224.022-.338,0-1.011-.439-2.14-1.863-2.14a2.024,2.024,0,0,0-1.907,2.281A1.99,1.99,0,0,0,118.046,8.062Zm-1.288-2.571c.035-.747.413-1.4,1.217-1.4.9,0,1.217.7,1.235,1.4ZM120.968,8h.655V5.719c0-1.09.549-1.63,1.239-1.63.773,0,1,.7,1,1.31V8h.65V5.333c0-.967-.426-1.8-1.472-1.8a1.576,1.576,0,0,0-1.415.844V3.61h-.655Zm6.139.088A1.77,1.77,0,0,0,127.7,8V7.438a1.047,1.047,0,0,1-.439.11c-.321,0-.558-.224-.558-.708V4.146h1.112V3.61H126.7v-1.6l-.65.615V3.61h-.708v.536h.7V6.835C126.044,7.587,126.33,8.088,127.107,8.088Zm1.705-5.454h.747V1.791h-.747ZM128.861,8h.65V3.61h-.65ZM2.312,19.088a1.675,1.675,0,0,0,1.652-1.165l-.571-.246a1.1,1.1,0,0,1-1.09.857c-.918,0-1.226-.918-1.226-1.723s.316-1.74,1.226-1.74a1.111,1.111,0,0,1,1.09.879l.62-.264A1.8,1.8,0,0,0,2.3,14.518c-1.266,0-1.9,1.116-1.9,2.294A2.019,2.019,0,0,0,2.312,19.088ZM5.027,19h.65V16.631a1.383,1.383,0,0,1,1.31-1.485c.756,0,.932.655.932,1.252V19h.664V16.293c0-.936-.426-1.762-1.477-1.762a1.714,1.714,0,0,0-1.428.8v-2.54h-.65Zm6.57.062a2.153,2.153,0,0,0,1.679-.686l-.448-.36a1.534,1.534,0,0,1-1.235.47,1.3,1.3,0,0,1-1.283-1.459h3.059c.009-.079.022-.224.022-.338,0-1.011-.439-2.14-1.863-2.14A2.024,2.024,0,0,0,9.62,16.829,1.99,1.99,0,0,0,11.6,19.062ZM10.31,16.491c.035-.747.413-1.4,1.217-1.4.9,0,1.217.7,1.235,1.4Zm7.611,2.6a1.639,1.639,0,0,0,1.542-.936l.013.848h.558V16.306a1.617,1.617,0,0,0-1.718-1.789,1.948,1.948,0,0,0-1.657.861l.479.374a1.445,1.445,0,0,1,1.217-.664c.8,0,1.077.576,1.077,1.4h-1c-1.248,0-1.934.409-1.934,1.288A1.287,1.287,0,0,0,17.921,19.088ZM18,18.534c-.457,0-.822-.215-.822-.738,0-.584.448-.809,1.318-.809h.94A1.515,1.515,0,0,1,18,18.534Zm4.619.554A1.77,1.77,0,0,0,23.2,19v-.562a1.047,1.047,0,0,1-.439.11c-.321,0-.558-.224-.558-.708V15.146h1.112V14.61H22.206v-1.6l-.65.615v.989h-.708v.536h.7v2.689C21.551,18.587,21.836,19.088,22.614,19.088Zm2.958,0A1.77,1.77,0,0,0,26.161,19v-.562a1.047,1.047,0,0,1-.439.11c-.321,0-.558-.224-.558-.708V15.146h1.112V14.61H25.163v-1.6l-.65.615v.989h-.708v.536h.7v2.689C24.508,18.587,24.794,19.088,25.572,19.088ZM27.229,19h.646V16.807c0-1.059.453-1.661,1.2-1.661a.8.8,0,0,1,.536.167l.277-.567a1.141,1.141,0,0,0-.708-.229,1.414,1.414,0,0,0-1.3.87V14.61h-.655Zm4.526.088a1.639,1.639,0,0,0,1.542-.936l.013.848h.558V16.306a1.617,1.617,0,0,0-1.718-1.789,1.948,1.948,0,0,0-1.657.861l.479.374a1.445,1.445,0,0,1,1.217-.664c.8,0,1.077.576,1.077,1.4h-1c-1.248,0-1.934.409-1.934,1.288A1.287,1.287,0,0,0,31.755,19.088Zm.075-.554c-.457,0-.822-.215-.822-.738,0-.584.448-.809,1.318-.809h.94A1.515,1.515,0,0,1,31.83,18.534ZM36.277,19h.58l1.635-4.39h-.7l-1.222,3.538L35.354,14.61h-.716Zm4.614.062a2.153,2.153,0,0,0,1.679-.686l-.448-.36a1.534,1.534,0,0,1-1.235.47A1.3,1.3,0,0,1,39.6,17.027h3.059c.009-.079.022-.224.022-.338,0-1.011-.439-2.14-1.863-2.14a2.024,2.024,0,0,0-1.907,2.281A1.99,1.99,0,0,0,40.891,19.062ZM39.6,16.491c.035-.747.413-1.4,1.217-1.4.9,0,1.217.7,1.235,1.4ZM43.813,19h.646V16.807c0-1.059.453-1.661,1.2-1.661a.8.8,0,0,1,.536.167l.277-.567a1.141,1.141,0,0,0-.708-.229,1.414,1.414,0,0,0-1.3.87V14.61h-.655Zm4.469.088a1.369,1.369,0,0,0,1.507-1.34c0-1.613-2.369-1.081-2.369-2.092,0-.36.294-.606.769-.606a1.035,1.035,0,0,1,.98.62l.483-.277a1.56,1.56,0,0,0-1.441-.875,1.253,1.253,0,0,0-1.393,1.217c0,1.49,2.333.91,2.333,2.092,0,.475-.365.725-.861.725a1.114,1.114,0,0,1-1.094-.835L46.644,18A1.7,1.7,0,0,0,48.283,19.088Zm3.542,0a1.639,1.639,0,0,0,1.542-.936L53.38,19h.558V16.306a1.617,1.617,0,0,0-1.718-1.789,1.948,1.948,0,0,0-1.657.861l.479.374a1.445,1.445,0,0,1,1.217-.664c.8,0,1.077.576,1.077,1.4h-1c-1.248,0-1.934.409-1.934,1.288A1.287,1.287,0,0,0,51.825,19.088Zm.075-.554c-.457,0-.822-.215-.822-.738,0-.584.448-.809,1.318-.809h.94A1.515,1.515,0,0,1,51.9,18.534ZM55.305,19h.655V16.719c0-1.09.549-1.63,1.239-1.63.773,0,1,.7,1,1.31V19h.65V16.333c0-.967-.426-1.8-1.472-1.8a1.576,1.576,0,0,0-1.415.844V14.61h-.655Zm6.627.088a2.158,2.158,0,0,0,2.092-2.294,2.089,2.089,0,1,0-4.162,0A2.138,2.138,0,0,0,61.932,19.088Zm0-.545c-.967,0-1.415-.861-1.415-1.749s.448-1.731,1.424-1.731,1.415.853,1.415,1.731S62.921,18.543,61.937,18.543Zm5.59,2.382h.659V18.4a1.575,1.575,0,0,0,1.345.686c1.178,0,1.789-1.042,1.789-2.285s-.615-2.285-1.793-2.285a1.569,1.569,0,0,0-1.34.69v-.6h-.659Zm1.863-2.391c-.892,0-1.266-.835-1.266-1.731s.374-1.731,1.266-1.731,1.27.844,1.27,1.731S70.269,18.534,69.39,18.534Zm3.05-4.9h.747v-.844h-.747ZM72.488,19h.65V14.61h-.65Zm3.538-4.931h.668l-.958-1.279h-.844Zm0,5.027a1.562,1.562,0,0,0,1.38-.839V19h.65V14.61H77.4v2.43a1.41,1.41,0,0,1-1.31,1.5c-.751,0-.923-.708-.923-1.34V14.61h-.655v2.549C74.514,18.253,74.94,19.1,76.021,19.1Zm8.706-6.306v2.417a1.572,1.572,0,0,0-1.375-.69c-1.121,0-1.758,1.028-1.758,2.285s.637,2.285,1.762,2.285a1.561,1.561,0,0,0,1.375-.7l.013.611h.637V12.791Zm-1.2,5.744c-.879,0-1.257-.835-1.257-1.731s.378-1.731,1.257-1.731c.9,0,1.257.844,1.257,1.731S84.419,18.534,83.522,18.534Zm3.309-4.9h.747v-.844h-.747ZM86.88,19h.65V14.61h-.65Zm5.911.1a1.562,1.562,0,0,0,1.38-.839V19h.65V14.61h-.65v2.43a1.41,1.41,0,0,1-1.31,1.5c-.751,0-.923-.708-.923-1.34V14.61h-.655v2.549C91.283,18.253,91.709,19.1,92.791,19.1ZM96.3,19h.655V16.719c0-1.09.549-1.63,1.239-1.63.773,0,1,.7,1,1.31V19h.65V16.333c0-.967-.426-1.8-1.472-1.8a1.576,1.576,0,0,0-1.415.844V14.61H96.3Zm10.112-6.209v2.417a1.572,1.572,0,0,0-1.375-.69c-1.121,0-1.758,1.028-1.758,2.285s.637,2.285,1.762,2.285a1.561,1.561,0,0,0,1.375-.7l.013.611h.637V12.791Zm-1.2,5.744c-.879,0-1.257-.835-1.257-1.731s.378-1.731,1.257-1.731c.9,0,1.257.844,1.257,1.731S106.106,18.534,105.209,18.534Zm4.988.527a2.153,2.153,0,0,0,1.679-.686l-.448-.36a1.534,1.534,0,0,1-1.235.47,1.3,1.3,0,0,1-1.283-1.459h3.059c.009-.079.022-.224.022-.338,0-1.011-.439-2.14-1.863-2.14a2.024,2.024,0,0,0-1.907,2.281A1.99,1.99,0,0,0,110.2,19.062Zm-1.288-2.571c.035-.747.413-1.4,1.217-1.4.9,0,1.217.7,1.235,1.4Zm5.783,2.6a1.675,1.675,0,0,0,1.652-1.165l-.571-.246a1.1,1.1,0,0,1-1.09.857c-.918,0-1.226-.918-1.226-1.723s.316-1.74,1.226-1.74a1.111,1.111,0,0,1,1.09.879l.62-.264a1.8,1.8,0,0,0-1.709-1.169c-1.266,0-1.9,1.116-1.9,2.294A2.019,2.019,0,0,0,114.693,19.088Zm4.3-.026a2.153,2.153,0,0,0,1.679-.686l-.448-.36a1.534,1.534,0,0,1-1.235.47,1.3,1.3,0,0,1-1.283-1.459h3.059c.009-.079.022-.224.022-.338,0-1.011-.439-2.14-1.863-2.14a2.024,2.024,0,0,0-1.907,2.281A1.99,1.99,0,0,0,119,19.062Zm-1.288-2.571c.035-.747.413-1.4,1.217-1.4.9,0,1.217.7,1.235,1.4ZM121.917,19h.655V16.719c0-1.09.549-1.63,1.239-1.63.773,0,1,.7,1,1.31V19h.65V16.333c0-.967-.426-1.8-1.472-1.8a1.576,1.576,0,0,0-1.415.844V14.61h-.655Zm4.917,0h.655V16.719c0-1.09.549-1.63,1.239-1.63.773,0,1,.7,1,1.31V19h.65V16.333c0-.967-.426-1.8-1.472-1.8a1.576,1.576,0,0,0-1.415.844V14.61h-.655Zm4.878-5.366h.747v-.844h-.747ZM131.761,19h.65V14.61h-.65Zm3.845.088a2.158,2.158,0,0,0,2.092-2.294,2.089,2.089,0,1,0-4.162,0A2.138,2.138,0,0,0,135.606,19.088Zm0-.545c-.967,0-1.415-.861-1.415-1.749s.448-1.731,1.424-1.731,1.415.853,1.415,1.731S136.6,18.543,135.611,18.543Z" transform="translate(272 23)"/>
    <path id="Path_161812" data-name="Path 161812" d="M.277,8h.76l.475-1.349H4.241L4.715,8h.747L3.146,1.791H2.61ZM1.745,6.014l1.138-3.2L4,6.014ZM6.442,8h.664V5.71c0-.8.391-1.635,1.121-1.635.751,0,.923.7.923,1.305V8h.668V5.565c0-.721.391-1.49,1.112-1.49.76,0,.94.725.94,1.323V8h.664V5.333c0-.976-.439-1.815-1.525-1.815a1.456,1.456,0,0,0-1.367.918,1.376,1.376,0,0,0-2.536-.145V3.61H6.442Zm9.5.088c1.143,0,1.767-1.033,1.767-2.285s-.624-2.285-1.771-2.285a1.572,1.572,0,0,0-1.362.69V1.791h-.655V8h.655V7.4A1.573,1.573,0,0,0,15.939,8.088Zm-.171-.554c-.879,0-1.252-.835-1.252-1.731s.374-1.731,1.252-1.731,1.283.844,1.283,1.731S16.651,7.534,15.768,7.534Zm3.059-4.9h.747V1.791h-.747ZM18.875,8h.65V3.61h-.65Zm3.775.062a2.153,2.153,0,0,0,1.679-.686l-.448-.36a1.534,1.534,0,0,1-1.235.47,1.3,1.3,0,0,1-1.283-1.459H24.42c.009-.079.022-.224.022-.338,0-1.011-.439-2.14-1.863-2.14a2.024,2.024,0,0,0-1.907,2.281A1.99,1.99,0,0,0,22.649,8.062ZM21.362,5.491c.035-.747.413-1.4,1.217-1.4.9,0,1.217.7,1.235,1.4ZM25.572,8h.655V5.719c0-1.09.549-1.63,1.239-1.63.773,0,1,.7,1,1.31V8h.65V5.333c0-.967-.426-1.8-1.472-1.8a1.576,1.576,0,0,0-1.415.844V3.61h-.655Zm6.139.088A1.77,1.77,0,0,0,32.3,8V7.438a1.047,1.047,0,0,1-.439.11c-.321,0-.558-.224-.558-.708V4.146h1.112V3.61H31.3v-1.6l-.65.615V3.61h-.708v.536h.7V6.835C30.647,7.587,30.933,8.088,31.711,8.088Zm2.769,0a1.639,1.639,0,0,0,1.542-.936L36.035,8h.558V5.306a1.617,1.617,0,0,0-1.718-1.789,1.948,1.948,0,0,0-1.657.861l.479.374a1.445,1.445,0,0,1,1.217-.664c.8,0,1.077.576,1.077,1.4h-1c-1.248,0-1.934.409-1.934,1.288A1.287,1.287,0,0,0,34.479,8.088Zm.075-.554c-.457,0-.822-.215-.822-.738,0-.584.448-.809,1.318-.809h.94A1.515,1.515,0,0,1,34.554,7.534ZM40.966,3.61H37.639v.536H40.2L37.512,7.5V8h3.454V7.438H38.329L40.966,4.15Zm1.042-.976h.747V1.791h-.747ZM42.056,8h.65V3.61h-.65Zm3.845.088a2.158,2.158,0,0,0,2.092-2.294,2.089,2.089,0,1,0-4.162,0A2.138,2.138,0,0,0,45.9,8.088Zm0-.545c-.967,0-1.415-.861-1.415-1.749s.448-1.731,1.424-1.731,1.415.853,1.415,1.731S46.89,7.543,45.905,7.543Zm3.2.457h.655V5.719c0-1.09.549-1.63,1.239-1.63.773,0,1,.7,1,1.31V8h.65V5.333c0-.967-.426-1.8-1.472-1.8a1.576,1.576,0,0,0-1.415.844V3.61h-.655Zm4.878-5.366h.747V1.791h-.747ZM54.035,8h.65V3.61h-.65Zm7.33-6.209V4.208a1.572,1.572,0,0,0-1.375-.69c-1.121,0-1.758,1.028-1.758,2.285s.637,2.285,1.762,2.285a1.561,1.561,0,0,0,1.375-.7L61.383,8h.637V1.791Zm-1.2,5.744C59.282,7.534,58.9,6.7,58.9,5.8s.378-1.731,1.257-1.731c.9,0,1.257.844,1.257,1.731S61.058,7.534,60.161,7.534Zm3.309-4.9h.747V1.791H63.47ZM63.519,8h.65V3.61h-.65Zm5.735.088A1.77,1.77,0,0,0,69.842,8V7.438a1.047,1.047,0,0,1-.439.11c-.321,0-.558-.224-.558-.708V4.146h1.112V3.61H68.845v-1.6l-.65.615V3.61h-.708v.536h.7V6.835C68.19,7.587,68.476,8.088,69.253,8.088Zm3.34-.026a2.153,2.153,0,0,0,1.679-.686l-.448-.36a1.534,1.534,0,0,1-1.235.47,1.3,1.3,0,0,1-1.283-1.459h3.059c.009-.079.022-.224.022-.338,0-1.011-.439-2.14-1.863-2.14a2.024,2.024,0,0,0-1.907,2.281A1.99,1.99,0,0,0,72.593,8.062ZM71.306,5.491c.035-.747.413-1.4,1.217-1.4.9,0,1.217.7,1.235,1.4Zm5.427,2.6a1.369,1.369,0,0,0,1.507-1.34c0-1.613-2.369-1.081-2.369-2.092,0-.36.294-.606.769-.606a1.035,1.035,0,0,1,.98.62l.483-.277a1.56,1.56,0,0,0-1.441-.875A1.253,1.253,0,0,0,75.27,4.735c0,1.49,2.333.91,2.333,2.092,0,.475-.365.725-.861.725a1.114,1.114,0,0,1-1.094-.835L75.094,7A1.7,1.7,0,0,0,76.733,8.088Zm3.819,0A1.77,1.77,0,0,0,81.141,8V7.438a1.047,1.047,0,0,1-.439.11c-.321,0-.558-.224-.558-.708V4.146h1.112V3.61H80.143v-1.6l-.65.615V3.61h-.708v.536h.7V6.835C79.488,7.587,79.774,8.088,80.552,8.088Zm1.705-5.454H83V1.791h-.747ZM82.305,8h.65V3.61h-.65Zm5.73.088a1.369,1.369,0,0,0,1.507-1.34c0-1.613-2.369-1.081-2.369-2.092,0-.36.294-.606.769-.606a1.035,1.035,0,0,1,.98.62l.483-.277a1.56,1.56,0,0,0-1.441-.875,1.253,1.253,0,0,0-1.393,1.217c0,1.49,2.333.91,2.333,2.092,0,.475-.365.725-.861.725a1.114,1.114,0,0,1-1.094-.835L86.4,7A1.7,1.7,0,0,0,88.036,8.088Zm4.135,0a1.675,1.675,0,0,0,1.652-1.165l-.571-.246a1.1,1.1,0,0,1-1.09.857c-.918,0-1.226-.918-1.226-1.723s.316-1.74,1.226-1.74a1.111,1.111,0,0,1,1.09.879l.62-.264a1.8,1.8,0,0,0-1.709-1.169c-1.266,0-1.9,1.116-1.9,2.294A2.019,2.019,0,0,0,92.171,8.088ZM94.878,8h.646V5.807c0-1.059.453-1.661,1.2-1.661a.8.8,0,0,1,.536.167l.277-.567a1.141,1.141,0,0,0-.708-.229,1.414,1.414,0,0,0-1.3.87V3.61h-.655Zm3.463-5.366h.747V1.791h-.747ZM98.389,8h.65V3.61h-.65Zm3.357.088A1.77,1.77,0,0,0,102.335,8V7.438a1.047,1.047,0,0,1-.439.11c-.321,0-.558-.224-.558-.708V4.146h1.112V3.61h-1.112v-1.6l-.65.615V3.61H99.98v.536h.7V6.835C100.683,7.587,100.969,8.088,101.747,8.088Zm2.958,0A1.77,1.77,0,0,0,105.293,8V7.438a1.047,1.047,0,0,1-.439.11c-.321,0-.558-.224-.558-.708V4.146h1.112V3.61H104.3v-1.6l-.65.615V3.61h-.708v.536h.7V6.835C103.641,7.587,103.926,8.088,104.7,8.088Zm1.705-5.454h.747V1.791h-.747ZM106.458,8h.65V3.61h-.65ZM1.96,19.088A1.77,1.77,0,0,0,2.549,19v-.562a1.047,1.047,0,0,1-.439.11c-.321,0-.558-.224-.558-.708V15.146H2.663V14.61H1.551v-1.6l-.65.615v.989H.193v.536H.9v2.689C.9,18.587,1.182,19.088,1.96,19.088ZM3.617,19h.646V16.807c0-1.059.453-1.661,1.2-1.661A.8.8,0,0,1,6,15.313l.277-.567a1.141,1.141,0,0,0-.708-.229,1.414,1.414,0,0,0-1.3.87V14.61H3.617Zm4.526.088a1.639,1.639,0,0,0,1.542-.936L9.7,19h.558V16.306a1.617,1.617,0,0,0-1.718-1.789,1.948,1.948,0,0,0-1.657.861l.479.374a1.445,1.445,0,0,1,1.217-.664c.8,0,1.077.576,1.077,1.4h-1c-1.248,0-1.934.409-1.934,1.288A1.287,1.287,0,0,0,8.143,19.088Zm.075-.554c-.457,0-.822-.215-.822-.738,0-.584.448-.809,1.318-.809h.94A1.515,1.515,0,0,1,8.218,18.534Zm5.744-4.9h.747v-.844h-.747ZM14.01,19h.65V14.61h-.65Zm3-.483c-.2,0-.215-.237-.215-.25V12.791h-.664v5.322c0,.527.048.976.712.976A2.143,2.143,0,0,0,17.438,19v-.527A2.6,2.6,0,0,1,17.011,18.517Zm5.6.483h.694V12.791h-.633v.119a.72.72,0,0,1-.769.769h-.949v.549h1.657Zm4.232,0h.747l1.819-3.16a2.117,2.117,0,0,0,.29-1.077,2.052,2.052,0,1,0-4.1.013A1.983,1.983,0,0,0,27.65,16.75a2.515,2.515,0,0,0,.554-.062Zm.8-2.791a1.442,1.442,0,1,1,1.389-1.441A1.415,1.415,0,0,1,27.65,16.209ZM33.271,19h.681V17.326h.989v-.593h-.989V12.791h-.62l-2.927,4.14v.4h2.865Zm-2.043-2.268,2.043-2.887v2.887Zm6.583,2.355a2.077,2.077,0,0,0,2.079-2.118,1.945,1.945,0,0,0-1.942-2.026,1.667,1.667,0,0,0-1.208.457l.334-2h2.536v-.606H36.541L36,15.919l.6.281a1.473,1.473,0,0,1,1.261-.686,1.33,1.33,0,0,1,1.318,1.455A1.409,1.409,0,0,1,37.8,18.5a1.439,1.439,0,0,1-1.393-1.34l-.62.207A2.071,2.071,0,0,0,37.811,19.088Zm7.308-.026a2.153,2.153,0,0,0,1.679-.686l-.448-.36a1.534,1.534,0,0,1-1.235.47,1.3,1.3,0,0,1-1.283-1.459H46.89c.009-.079.022-.224.022-.338,0-1.011-.439-2.14-1.863-2.14a2.024,2.024,0,0,0-1.907,2.281A1.99,1.99,0,0,0,45.119,19.062Zm-1.288-2.571c.035-.747.413-1.4,1.217-1.4.9,0,1.217.7,1.235,1.4Zm6.548-2.856h.747v-.844h-.747ZM50.427,19h.65V14.61h-.65Zm3-.483c-.2,0-.215-.237-.215-.25V12.791H52.55v5.322c0,.527.048.976.712.976A2.143,2.143,0,0,0,53.855,19v-.527A2.6,2.6,0,0,1,53.429,18.517Zm5.6.483h.694V12.791h-.633v.119a.72.72,0,0,1-.769.769h-.949v.549h1.657Zm4.232,0h.747l1.819-3.16a2.117,2.117,0,0,0,.29-1.077,2.052,2.052,0,1,0-4.1.013,1.983,1.983,0,0,0,2.052,1.973,2.515,2.515,0,0,0,.554-.062Zm.8-2.791a1.442,1.442,0,1,1,1.389-1.441A1.415,1.415,0,0,1,64.068,16.209Zm5.049,2.878A2.077,2.077,0,0,0,71.2,16.97a1.945,1.945,0,0,0-1.942-2.026,1.667,1.667,0,0,0-1.208.457l.334-2h2.536v-.606H67.847L67.3,15.919l.6.281a1.473,1.473,0,0,1,1.261-.686,1.33,1.33,0,0,1,1.318,1.455A1.409,1.409,0,0,1,69.1,18.5a1.439,1.439,0,0,1-1.393-1.34l-.62.207A2.071,2.071,0,0,0,69.117,19.088Zm5.076,0a2.077,2.077,0,0,0,2.079-2.118,1.945,1.945,0,0,0-1.942-2.026,1.667,1.667,0,0,0-1.208.457l.334-2H75.99v-.606H72.923l-.545,3.129.6.281a1.473,1.473,0,0,1,1.261-.686,1.33,1.33,0,0,1,1.318,1.455A1.409,1.409,0,0,1,74.18,18.5a1.439,1.439,0,0,1-1.393-1.34l-.62.207A2.071,2.071,0,0,0,74.193,19.088Z" transform="translate(272 52)"/>
    <path id="Path_161813" data-name="Path 161813" d="M.277,8h.76l.475-1.349H4.241L4.715,8h.747L3.146,1.791H2.61ZM1.745,6.014l1.138-3.2L4,6.014ZM6.442,8h.664V5.71c0-.8.391-1.635,1.121-1.635.751,0,.923.7.923,1.305V8h.668V5.565c0-.721.391-1.49,1.112-1.49.76,0,.94.725.94,1.323V8h.664V5.333c0-.976-.439-1.815-1.525-1.815a1.456,1.456,0,0,0-1.367.918,1.376,1.376,0,0,0-2.536-.145V3.61H6.442Zm9.5.088c1.143,0,1.767-1.033,1.767-2.285s-.624-2.285-1.771-2.285a1.572,1.572,0,0,0-1.362.69V1.791h-.655V8h.655V7.4A1.573,1.573,0,0,0,15.939,8.088Zm-.171-.554c-.879,0-1.252-.835-1.252-1.731s.374-1.731,1.252-1.731,1.283.844,1.283,1.731S16.651,7.534,15.768,7.534Zm3.059-4.9h.747V1.791h-.747ZM18.875,8h.65V3.61h-.65Zm3.775.062a2.153,2.153,0,0,0,1.679-.686l-.448-.36a1.534,1.534,0,0,1-1.235.47,1.3,1.3,0,0,1-1.283-1.459H24.42c.009-.079.022-.224.022-.338,0-1.011-.439-2.14-1.863-2.14a2.024,2.024,0,0,0-1.907,2.281A1.99,1.99,0,0,0,22.649,8.062ZM21.362,5.491c.035-.747.413-1.4,1.217-1.4.9,0,1.217.7,1.235,1.4ZM25.572,8h.655V5.719c0-1.09.549-1.63,1.239-1.63.773,0,1,.7,1,1.31V8h.65V5.333c0-.967-.426-1.8-1.472-1.8a1.576,1.576,0,0,0-1.415.844V3.61h-.655Zm6.139.088A1.77,1.77,0,0,0,32.3,8V7.438a1.047,1.047,0,0,1-.439.11c-.321,0-.558-.224-.558-.708V4.146h1.112V3.61H31.3v-1.6l-.65.615V3.61h-.708v.536h.7V6.835C30.647,7.587,30.933,8.088,31.711,8.088Zm2.769,0a1.639,1.639,0,0,0,1.542-.936L36.035,8h.558V5.306a1.617,1.617,0,0,0-1.718-1.789,1.948,1.948,0,0,0-1.657.861l.479.374a1.445,1.445,0,0,1,1.217-.664c.8,0,1.077.576,1.077,1.4h-1c-1.248,0-1.934.409-1.934,1.288A1.287,1.287,0,0,0,34.479,8.088Zm.075-.554c-.457,0-.822-.215-.822-.738,0-.584.448-.809,1.318-.809h.94A1.515,1.515,0,0,1,34.554,7.534ZM40.966,3.61H37.639v.536H40.2L37.512,7.5V8h3.454V7.438H38.329L40.966,4.15Zm1.042-.976h.747V1.791h-.747ZM42.056,8h.65V3.61h-.65Zm3.845.088a2.158,2.158,0,0,0,2.092-2.294,2.089,2.089,0,1,0-4.162,0A2.138,2.138,0,0,0,45.9,8.088Zm0-.545c-.967,0-1.415-.861-1.415-1.749s.448-1.731,1.424-1.731,1.415.853,1.415,1.731S46.89,7.543,45.905,7.543Zm3.2.457h.655V5.719c0-1.09.549-1.63,1.239-1.63.773,0,1,.7,1,1.31V8h.65V5.333c0-.967-.426-1.8-1.472-1.8a1.576,1.576,0,0,0-1.415.844V3.61h-.655Zm4.878-5.366h.747V1.791h-.747ZM54.035,8h.65V3.61h-.65Zm7.33-6.209V4.208a1.572,1.572,0,0,0-1.375-.69c-1.121,0-1.758,1.028-1.758,2.285s.637,2.285,1.762,2.285a1.561,1.561,0,0,0,1.375-.7L61.383,8h.637V1.791Zm-1.2,5.744C59.282,7.534,58.9,6.7,58.9,5.8s.378-1.731,1.257-1.731c.9,0,1.257.844,1.257,1.731S61.058,7.534,60.161,7.534Zm3.309-4.9h.747V1.791H63.47ZM63.519,8h.65V3.61h-.65Zm5.735.088A1.77,1.77,0,0,0,69.842,8V7.438a1.047,1.047,0,0,1-.439.11c-.321,0-.558-.224-.558-.708V4.146h1.112V3.61H68.845v-1.6l-.65.615V3.61h-.708v.536h.7V6.835C68.19,7.587,68.476,8.088,69.253,8.088Zm3.34-.026a2.153,2.153,0,0,0,1.679-.686l-.448-.36a1.534,1.534,0,0,1-1.235.47,1.3,1.3,0,0,1-1.283-1.459h3.059c.009-.079.022-.224.022-.338,0-1.011-.439-2.14-1.863-2.14a2.024,2.024,0,0,0-1.907,2.281A1.99,1.99,0,0,0,72.593,8.062ZM71.306,5.491c.035-.747.413-1.4,1.217-1.4.9,0,1.217.7,1.235,1.4Zm5.427,2.6a1.369,1.369,0,0,0,1.507-1.34c0-1.613-2.369-1.081-2.369-2.092,0-.36.294-.606.769-.606a1.035,1.035,0,0,1,.98.62l.483-.277a1.56,1.56,0,0,0-1.441-.875A1.253,1.253,0,0,0,75.27,4.735c0,1.49,2.333.91,2.333,2.092,0,.475-.365.725-.861.725a1.114,1.114,0,0,1-1.094-.835L75.094,7A1.7,1.7,0,0,0,76.733,8.088Zm3.819,0A1.77,1.77,0,0,0,81.141,8V7.438a1.047,1.047,0,0,1-.439.11c-.321,0-.558-.224-.558-.708V4.146h1.112V3.61H80.143v-1.6l-.65.615V3.61h-.708v.536h.7V6.835C79.488,7.587,79.774,8.088,80.552,8.088Zm1.705-5.454H83V1.791h-.747ZM82.305,8h.65V3.61h-.65Zm5.73.088a1.369,1.369,0,0,0,1.507-1.34c0-1.613-2.369-1.081-2.369-2.092,0-.36.294-.606.769-.606a1.035,1.035,0,0,1,.98.62l.483-.277a1.56,1.56,0,0,0-1.441-.875,1.253,1.253,0,0,0-1.393,1.217c0,1.49,2.333.91,2.333,2.092,0,.475-.365.725-.861.725a1.114,1.114,0,0,1-1.094-.835L86.4,7A1.7,1.7,0,0,0,88.036,8.088Zm4.135,0a1.675,1.675,0,0,0,1.652-1.165l-.571-.246a1.1,1.1,0,0,1-1.09.857c-.918,0-1.226-.918-1.226-1.723s.316-1.74,1.226-1.74a1.111,1.111,0,0,1,1.09.879l.62-.264a1.8,1.8,0,0,0-1.709-1.169c-1.266,0-1.9,1.116-1.9,2.294A2.019,2.019,0,0,0,92.171,8.088ZM94.878,8h.646V5.807c0-1.059.453-1.661,1.2-1.661a.8.8,0,0,1,.536.167l.277-.567a1.141,1.141,0,0,0-.708-.229,1.414,1.414,0,0,0-1.3.87V3.61h-.655Zm3.463-5.366h.747V1.791h-.747ZM98.389,8h.65V3.61h-.65Zm3.357.088A1.77,1.77,0,0,0,102.335,8V7.438a1.047,1.047,0,0,1-.439.11c-.321,0-.558-.224-.558-.708V4.146h1.112V3.61h-1.112v-1.6l-.65.615V3.61H99.98v.536h.7V6.835C100.683,7.587,100.969,8.088,101.747,8.088Zm2.958,0A1.77,1.77,0,0,0,105.293,8V7.438a1.047,1.047,0,0,1-.439.11c-.321,0-.558-.224-.558-.708V4.146h1.112V3.61H104.3v-1.6l-.65.615V3.61h-.708v.536h.7V6.835C103.641,7.587,103.926,8.088,104.7,8.088Zm1.705-5.454h.747V1.791h-.747ZM106.458,8h.65V3.61h-.65ZM1.96,19.088A1.77,1.77,0,0,0,2.549,19v-.562a1.047,1.047,0,0,1-.439.11c-.321,0-.558-.224-.558-.708V15.146H2.663V14.61H1.551v-1.6l-.65.615v.989H.193v.536H.9v2.689C.9,18.587,1.182,19.088,1.96,19.088ZM3.617,19h.646V16.807c0-1.059.453-1.661,1.2-1.661A.8.8,0,0,1,6,15.313l.277-.567a1.141,1.141,0,0,0-.708-.229,1.414,1.414,0,0,0-1.3.87V14.61H3.617Zm4.526.088a1.639,1.639,0,0,0,1.542-.936L9.7,19h.558V16.306a1.617,1.617,0,0,0-1.718-1.789,1.948,1.948,0,0,0-1.657.861l.479.374a1.445,1.445,0,0,1,1.217-.664c.8,0,1.077.576,1.077,1.4h-1c-1.248,0-1.934.409-1.934,1.288A1.287,1.287,0,0,0,8.143,19.088Zm.075-.554c-.457,0-.822-.215-.822-.738,0-.584.448-.809,1.318-.809h.94A1.515,1.515,0,0,1,8.218,18.534Zm5.744-4.9h.747v-.844h-.747ZM14.01,19h.65V14.61h-.65Zm3-.483c-.2,0-.215-.237-.215-.25V12.791h-.664v5.322c0,.527.048.976.712.976A2.143,2.143,0,0,0,17.438,19v-.527A2.6,2.6,0,0,1,17.011,18.517Zm5.6.483h.694V12.791h-.633v.119a.72.72,0,0,1-.769.769h-.949v.549h1.657Zm4.232,0h.747l1.819-3.16a2.117,2.117,0,0,0,.29-1.077,2.052,2.052,0,1,0-4.1.013A1.983,1.983,0,0,0,27.65,16.75a2.515,2.515,0,0,0,.554-.062Zm.8-2.791a1.442,1.442,0,1,1,1.389-1.441A1.415,1.415,0,0,1,27.65,16.209ZM32.7,19.088a2.077,2.077,0,0,0,2.079-2.118,1.945,1.945,0,0,0-1.942-2.026,1.667,1.667,0,0,0-1.208.457l.334-2H34.5v-.606H31.43l-.545,3.129.6.281a1.473,1.473,0,0,1,1.261-.686,1.33,1.33,0,0,1,1.318,1.455A1.409,1.409,0,0,1,32.687,18.5a1.439,1.439,0,0,1-1.393-1.34l-.62.207A2.071,2.071,0,0,0,32.7,19.088Zm5.115,0a2.05,2.05,0,0,0,2.052-2.074,1.975,1.975,0,0,0-2.052-1.973,2.8,2.8,0,0,0-.549.057l1.367-2.307h-.76l-1.811,3.16a2.067,2.067,0,0,0,1.753,3.138Zm0-.624A1.442,1.442,0,1,1,39.2,17.022,1.42,1.42,0,0,1,37.815,18.464Zm7.269.6a2.153,2.153,0,0,0,1.679-.686l-.448-.36a1.534,1.534,0,0,1-1.235.47A1.3,1.3,0,0,1,43.8,17.027h3.059c.009-.079.022-.224.022-.338,0-1.011-.439-2.14-1.863-2.14a2.024,2.024,0,0,0-1.907,2.281A1.99,1.99,0,0,0,45.083,19.062ZM43.8,16.491c.035-.747.413-1.4,1.217-1.4.9,0,1.217.7,1.235,1.4Zm6.548-2.856h.747v-.844h-.747ZM50.392,19h.65V14.61h-.65Zm3-.483c-.2,0-.215-.237-.215-.25V12.791h-.664v5.322c0,.527.048.976.712.976A2.143,2.143,0,0,0,53.82,19v-.527A2.6,2.6,0,0,1,53.394,18.517ZM59,19h.694V12.791h-.633v.119a.72.72,0,0,1-.769.769H57.34v.549H59Zm4.232,0h.747l1.819-3.16a2.117,2.117,0,0,0,.29-1.077,2.052,2.052,0,1,0-4.1.013,1.983,1.983,0,0,0,2.052,1.973,2.515,2.515,0,0,0,.554-.062Zm.8-2.791a1.442,1.442,0,1,1,1.389-1.441A1.415,1.415,0,0,1,64.033,16.209Zm5.089,2.878a2.05,2.05,0,0,0,2.052-2.074,1.975,1.975,0,0,0-2.052-1.973,2.8,2.8,0,0,0-.549.057l1.367-2.307h-.76l-1.811,3.16a2.067,2.067,0,0,0,1.753,3.138Zm0-.624a1.442,1.442,0,1,1,1.389-1.441A1.42,1.42,0,0,1,69.122,18.464Zm5.036.624a2.077,2.077,0,0,0,2.079-2.118,1.945,1.945,0,0,0-1.942-2.026,1.667,1.667,0,0,0-1.208.457l.334-2h2.536v-.606H72.888l-.545,3.129.6.281a1.473,1.473,0,0,1,1.261-.686A1.33,1.33,0,0,1,75.52,16.97,1.409,1.409,0,0,1,74.145,18.5a1.439,1.439,0,0,1-1.393-1.34l-.62.207A2.071,2.071,0,0,0,74.158,19.088Z" transform="translate(272 80)"/>
    <path id="Path_161815" data-name="Path 161815" d="M.277,8h.76l.475-1.349H4.241L4.715,8h.747L3.146,1.791H2.61ZM1.745,6.014l1.138-3.2L4,6.014ZM6.442,8h.664V5.71c0-.8.391-1.635,1.121-1.635.751,0,.923.7.923,1.305V8h.668V5.565c0-.721.391-1.49,1.112-1.49.76,0,.94.725.94,1.323V8h.664V5.333c0-.976-.439-1.815-1.525-1.815a1.456,1.456,0,0,0-1.367.918,1.376,1.376,0,0,0-2.536-.145V3.61H6.442Zm9.5.088c1.143,0,1.767-1.033,1.767-2.285s-.624-2.285-1.771-2.285a1.572,1.572,0,0,0-1.362.69V1.791h-.655V8h.655V7.4A1.573,1.573,0,0,0,15.939,8.088Zm-.171-.554c-.879,0-1.252-.835-1.252-1.731s.374-1.731,1.252-1.731,1.283.844,1.283,1.731S16.651,7.534,15.768,7.534Zm3.059-4.9h.747V1.791h-.747ZM18.875,8h.65V3.61h-.65Zm3.775.062a2.153,2.153,0,0,0,1.679-.686l-.448-.36a1.534,1.534,0,0,1-1.235.47,1.3,1.3,0,0,1-1.283-1.459H24.42c.009-.079.022-.224.022-.338,0-1.011-.439-2.14-1.863-2.14a2.024,2.024,0,0,0-1.907,2.281A1.99,1.99,0,0,0,22.649,8.062ZM21.362,5.491c.035-.747.413-1.4,1.217-1.4.9,0,1.217.7,1.235,1.4ZM25.572,8h.655V5.719c0-1.09.549-1.63,1.239-1.63.773,0,1,.7,1,1.31V8h.65V5.333c0-.967-.426-1.8-1.472-1.8a1.576,1.576,0,0,0-1.415.844V3.61h-.655Zm6.139.088A1.77,1.77,0,0,0,32.3,8V7.438a1.047,1.047,0,0,1-.439.11c-.321,0-.558-.224-.558-.708V4.146h1.112V3.61H31.3v-1.6l-.65.615V3.61h-.708v.536h.7V6.835C30.647,7.587,30.933,8.088,31.711,8.088Zm2.769,0a1.639,1.639,0,0,0,1.542-.936L36.035,8h.558V5.306a1.617,1.617,0,0,0-1.718-1.789,1.948,1.948,0,0,0-1.657.861l.479.374a1.445,1.445,0,0,1,1.217-.664c.8,0,1.077.576,1.077,1.4h-1c-1.248,0-1.934.409-1.934,1.288A1.287,1.287,0,0,0,34.479,8.088Zm.075-.554c-.457,0-.822-.215-.822-.738,0-.584.448-.809,1.318-.809h.94A1.515,1.515,0,0,1,34.554,7.534ZM40.966,3.61H37.639v.536H40.2L37.512,7.5V8h3.454V7.438H38.329L40.966,4.15Zm1.042-.976h.747V1.791h-.747ZM42.056,8h.65V3.61h-.65Zm3.845.088a2.158,2.158,0,0,0,2.092-2.294,2.089,2.089,0,1,0-4.162,0A2.138,2.138,0,0,0,45.9,8.088Zm0-.545c-.967,0-1.415-.861-1.415-1.749s.448-1.731,1.424-1.731,1.415.853,1.415,1.731S46.89,7.543,45.905,7.543Zm3.2.457h.655V5.719c0-1.09.549-1.63,1.239-1.63.773,0,1,.7,1,1.31V8h.65V5.333c0-.967-.426-1.8-1.472-1.8a1.576,1.576,0,0,0-1.415.844V3.61h-.655Zm4.878-5.366h.747V1.791h-.747ZM54.035,8h.65V3.61h-.65Zm7.33-6.209V4.208a1.572,1.572,0,0,0-1.375-.69c-1.121,0-1.758,1.028-1.758,2.285s.637,2.285,1.762,2.285a1.561,1.561,0,0,0,1.375-.7L61.383,8h.637V1.791Zm-1.2,5.744C59.282,7.534,58.9,6.7,58.9,5.8s.378-1.731,1.257-1.731c.9,0,1.257.844,1.257,1.731S61.058,7.534,60.161,7.534Zm3.309-4.9h.747V1.791H63.47ZM63.519,8h.65V3.61h-.65Zm5.735.088A1.77,1.77,0,0,0,69.842,8V7.438a1.047,1.047,0,0,1-.439.11c-.321,0-.558-.224-.558-.708V4.146h1.112V3.61H68.845v-1.6l-.65.615V3.61h-.708v.536h.7V6.835C68.19,7.587,68.476,8.088,69.253,8.088Zm3.34-.026a2.153,2.153,0,0,0,1.679-.686l-.448-.36a1.534,1.534,0,0,1-1.235.47,1.3,1.3,0,0,1-1.283-1.459h3.059c.009-.079.022-.224.022-.338,0-1.011-.439-2.14-1.863-2.14a2.024,2.024,0,0,0-1.907,2.281A1.99,1.99,0,0,0,72.593,8.062ZM71.306,5.491c.035-.747.413-1.4,1.217-1.4.9,0,1.217.7,1.235,1.4Zm5.427,2.6a1.369,1.369,0,0,0,1.507-1.34c0-1.613-2.369-1.081-2.369-2.092,0-.36.294-.606.769-.606a1.035,1.035,0,0,1,.98.62l.483-.277a1.56,1.56,0,0,0-1.441-.875A1.253,1.253,0,0,0,75.27,4.735c0,1.49,2.333.91,2.333,2.092,0,.475-.365.725-.861.725a1.114,1.114,0,0,1-1.094-.835L75.094,7A1.7,1.7,0,0,0,76.733,8.088Zm3.819,0A1.77,1.77,0,0,0,81.141,8V7.438a1.047,1.047,0,0,1-.439.11c-.321,0-.558-.224-.558-.708V4.146h1.112V3.61H80.143v-1.6l-.65.615V3.61h-.708v.536h.7V6.835C79.488,7.587,79.774,8.088,80.552,8.088Zm1.705-5.454H83V1.791h-.747ZM82.305,8h.65V3.61h-.65Zm5.73.088a1.369,1.369,0,0,0,1.507-1.34c0-1.613-2.369-1.081-2.369-2.092,0-.36.294-.606.769-.606a1.035,1.035,0,0,1,.98.62l.483-.277a1.56,1.56,0,0,0-1.441-.875,1.253,1.253,0,0,0-1.393,1.217c0,1.49,2.333.91,2.333,2.092,0,.475-.365.725-.861.725a1.114,1.114,0,0,1-1.094-.835L86.4,7A1.7,1.7,0,0,0,88.036,8.088Zm4.135,0a1.675,1.675,0,0,0,1.652-1.165l-.571-.246a1.1,1.1,0,0,1-1.09.857c-.918,0-1.226-.918-1.226-1.723s.316-1.74,1.226-1.74a1.111,1.111,0,0,1,1.09.879l.62-.264a1.8,1.8,0,0,0-1.709-1.169c-1.266,0-1.9,1.116-1.9,2.294A2.019,2.019,0,0,0,92.171,8.088ZM94.878,8h.646V5.807c0-1.059.453-1.661,1.2-1.661a.8.8,0,0,1,.536.167l.277-.567a1.141,1.141,0,0,0-.708-.229,1.414,1.414,0,0,0-1.3.87V3.61h-.655Zm3.463-5.366h.747V1.791h-.747ZM98.389,8h.65V3.61h-.65Zm3.357.088A1.77,1.77,0,0,0,102.335,8V7.438a1.047,1.047,0,0,1-.439.11c-.321,0-.558-.224-.558-.708V4.146h1.112V3.61h-1.112v-1.6l-.65.615V3.61H99.98v.536h.7V6.835C100.683,7.587,100.969,8.088,101.747,8.088Zm2.958,0A1.77,1.77,0,0,0,105.293,8V7.438a1.047,1.047,0,0,1-.439.11c-.321,0-.558-.224-.558-.708V4.146h1.112V3.61H104.3v-1.6l-.65.615V3.61h-.708v.536h.7V6.835C103.641,7.587,103.926,8.088,104.7,8.088Zm1.705-5.454h.747V1.791h-.747ZM106.458,8h.65V3.61h-.65ZM1.96,19.088A1.77,1.77,0,0,0,2.549,19v-.562a1.047,1.047,0,0,1-.439.11c-.321,0-.558-.224-.558-.708V15.146H2.663V14.61H1.551v-1.6l-.65.615v.989H.193v.536H.9v2.689C.9,18.587,1.182,19.088,1.96,19.088ZM3.617,19h.646V16.807c0-1.059.453-1.661,1.2-1.661A.8.8,0,0,1,6,15.313l.277-.567a1.141,1.141,0,0,0-.708-.229,1.414,1.414,0,0,0-1.3.87V14.61H3.617Zm4.526.088a1.639,1.639,0,0,0,1.542-.936L9.7,19h.558V16.306a1.617,1.617,0,0,0-1.718-1.789,1.948,1.948,0,0,0-1.657.861l.479.374a1.445,1.445,0,0,1,1.217-.664c.8,0,1.077.576,1.077,1.4h-1c-1.248,0-1.934.409-1.934,1.288A1.287,1.287,0,0,0,8.143,19.088Zm.075-.554c-.457,0-.822-.215-.822-.738,0-.584.448-.809,1.318-.809h.94A1.515,1.515,0,0,1,8.218,18.534Zm5.744-4.9h.747v-.844h-.747ZM14.01,19h.65V14.61h-.65Zm3-.483c-.2,0-.215-.237-.215-.25V12.791h-.664v5.322c0,.527.048.976.712.976A2.143,2.143,0,0,0,17.438,19v-.527A2.6,2.6,0,0,1,17.011,18.517Zm5.6.483h.694V12.791h-.633v.119a.72.72,0,0,1-.769.769h-.949v.549h1.657Zm4.232,0h.747l1.819-3.16a2.117,2.117,0,0,0,.29-1.077,2.052,2.052,0,1,0-4.1.013A1.983,1.983,0,0,0,27.65,16.75a2.515,2.515,0,0,0,.554-.062Zm.8-2.791a1.442,1.442,0,1,1,1.389-1.441A1.415,1.415,0,0,1,27.65,16.209Zm5.089,2.878a2.05,2.05,0,0,0,2.052-2.074,1.975,1.975,0,0,0-2.052-1.973,2.8,2.8,0,0,0-.549.057l1.367-2.307H32.8l-1.811,3.16a2.067,2.067,0,0,0,1.753,3.138Zm0-.624a1.442,1.442,0,1,1,1.389-1.441A1.42,1.42,0,0,1,32.739,18.464Zm5.076.624a2.05,2.05,0,0,0,2.052-2.074,1.975,1.975,0,0,0-2.052-1.973,2.8,2.8,0,0,0-.549.057l1.367-2.307h-.76l-1.811,3.16a2.067,2.067,0,0,0,1.753,3.138Zm0-.624A1.442,1.442,0,1,1,39.2,17.022,1.42,1.42,0,0,1,37.815,18.464Zm7.269.6a2.153,2.153,0,0,0,1.679-.686l-.448-.36a1.534,1.534,0,0,1-1.235.47A1.3,1.3,0,0,1,43.8,17.027h3.059c.009-.079.022-.224.022-.338,0-1.011-.439-2.14-1.863-2.14a2.024,2.024,0,0,0-1.907,2.281A1.99,1.99,0,0,0,45.083,19.062ZM43.8,16.491c.035-.747.413-1.4,1.217-1.4.9,0,1.217.7,1.235,1.4Zm6.548-2.856h.747v-.844h-.747ZM50.392,19h.65V14.61h-.65Zm3-.483c-.2,0-.215-.237-.215-.25V12.791h-.664v5.322c0,.527.048.976.712.976A2.143,2.143,0,0,0,53.82,19v-.527A2.6,2.6,0,0,1,53.394,18.517ZM59,19h.694V12.791h-.633v.119a.72.72,0,0,1-.769.769H57.34v.549H59Zm4.232,0h.747l1.819-3.16a2.117,2.117,0,0,0,.29-1.077,2.052,2.052,0,1,0-4.1.013,1.983,1.983,0,0,0,2.052,1.973,2.515,2.515,0,0,0,.554-.062Zm.8-2.791a1.442,1.442,0,1,1,1.389-1.441A1.415,1.415,0,0,1,64.033,16.209ZM67.746,19h.765l2.676-5.867v-.343H67.056V13.4h3.327Zm6.337.088a2.077,2.077,0,0,0,2.079-2.118,1.945,1.945,0,0,0-1.942-2.026,1.667,1.667,0,0,0-1.208.457l.334-2H75.88v-.606H72.813l-.545,3.129.6.281a1.473,1.473,0,0,1,1.261-.686,1.33,1.33,0,0,1,1.318,1.455A1.409,1.409,0,0,1,74.07,18.5a1.439,1.439,0,0,1-1.393-1.34l-.62.207A2.071,2.071,0,0,0,74.083,19.088Z" transform="translate(472 23)"/>
    <path id="Path_161814" data-name="Path 161814" d="M.277,8h.76l.475-1.349H4.241L4.715,8h.747L3.146,1.791H2.61ZM1.745,6.014l1.138-3.2L4,6.014ZM6.442,8h.664V5.71c0-.8.391-1.635,1.121-1.635.751,0,.923.7.923,1.305V8h.668V5.565c0-.721.391-1.49,1.112-1.49.76,0,.94.725.94,1.323V8h.664V5.333c0-.976-.439-1.815-1.525-1.815a1.456,1.456,0,0,0-1.367.918,1.376,1.376,0,0,0-2.536-.145V3.61H6.442Zm9.5.088c1.143,0,1.767-1.033,1.767-2.285s-.624-2.285-1.771-2.285a1.572,1.572,0,0,0-1.362.69V1.791h-.655V8h.655V7.4A1.573,1.573,0,0,0,15.939,8.088Zm-.171-.554c-.879,0-1.252-.835-1.252-1.731s.374-1.731,1.252-1.731,1.283.844,1.283,1.731S16.651,7.534,15.768,7.534Zm3.059-4.9h.747V1.791h-.747ZM18.875,8h.65V3.61h-.65Zm3.775.062a2.153,2.153,0,0,0,1.679-.686l-.448-.36a1.534,1.534,0,0,1-1.235.47,1.3,1.3,0,0,1-1.283-1.459H24.42c.009-.079.022-.224.022-.338,0-1.011-.439-2.14-1.863-2.14a2.024,2.024,0,0,0-1.907,2.281A1.99,1.99,0,0,0,22.649,8.062ZM21.362,5.491c.035-.747.413-1.4,1.217-1.4.9,0,1.217.7,1.235,1.4ZM25.572,8h.655V5.719c0-1.09.549-1.63,1.239-1.63.773,0,1,.7,1,1.31V8h.65V5.333c0-.967-.426-1.8-1.472-1.8a1.576,1.576,0,0,0-1.415.844V3.61h-.655Zm6.139.088A1.77,1.77,0,0,0,32.3,8V7.438a1.047,1.047,0,0,1-.439.11c-.321,0-.558-.224-.558-.708V4.146h1.112V3.61H31.3v-1.6l-.65.615V3.61h-.708v.536h.7V6.835C30.647,7.587,30.933,8.088,31.711,8.088Zm2.769,0a1.639,1.639,0,0,0,1.542-.936L36.035,8h.558V5.306a1.617,1.617,0,0,0-1.718-1.789,1.948,1.948,0,0,0-1.657.861l.479.374a1.445,1.445,0,0,1,1.217-.664c.8,0,1.077.576,1.077,1.4h-1c-1.248,0-1.934.409-1.934,1.288A1.287,1.287,0,0,0,34.479,8.088Zm.075-.554c-.457,0-.822-.215-.822-.738,0-.584.448-.809,1.318-.809h.94A1.515,1.515,0,0,1,34.554,7.534ZM40.966,3.61H37.639v.536H40.2L37.512,7.5V8h3.454V7.438H38.329L40.966,4.15Zm1.042-.976h.747V1.791h-.747ZM42.056,8h.65V3.61h-.65Zm3.845.088a2.158,2.158,0,0,0,2.092-2.294,2.089,2.089,0,1,0-4.162,0A2.138,2.138,0,0,0,45.9,8.088Zm0-.545c-.967,0-1.415-.861-1.415-1.749s.448-1.731,1.424-1.731,1.415.853,1.415,1.731S46.89,7.543,45.905,7.543Zm3.2.457h.655V5.719c0-1.09.549-1.63,1.239-1.63.773,0,1,.7,1,1.31V8h.65V5.333c0-.967-.426-1.8-1.472-1.8a1.576,1.576,0,0,0-1.415.844V3.61h-.655Zm4.878-5.366h.747V1.791h-.747ZM54.035,8h.65V3.61h-.65Zm7.33-6.209V4.208a1.572,1.572,0,0,0-1.375-.69c-1.121,0-1.758,1.028-1.758,2.285s.637,2.285,1.762,2.285a1.561,1.561,0,0,0,1.375-.7L61.383,8h.637V1.791Zm-1.2,5.744C59.282,7.534,58.9,6.7,58.9,5.8s.378-1.731,1.257-1.731c.9,0,1.257.844,1.257,1.731S61.058,7.534,60.161,7.534Zm3.309-4.9h.747V1.791H63.47ZM63.519,8h.65V3.61h-.65Zm5.735.088A1.77,1.77,0,0,0,69.842,8V7.438a1.047,1.047,0,0,1-.439.11c-.321,0-.558-.224-.558-.708V4.146h1.112V3.61H68.845v-1.6l-.65.615V3.61h-.708v.536h.7V6.835C68.19,7.587,68.476,8.088,69.253,8.088Zm3.34-.026a2.153,2.153,0,0,0,1.679-.686l-.448-.36a1.534,1.534,0,0,1-1.235.47,1.3,1.3,0,0,1-1.283-1.459h3.059c.009-.079.022-.224.022-.338,0-1.011-.439-2.14-1.863-2.14a2.024,2.024,0,0,0-1.907,2.281A1.99,1.99,0,0,0,72.593,8.062ZM71.306,5.491c.035-.747.413-1.4,1.217-1.4.9,0,1.217.7,1.235,1.4Zm5.427,2.6a1.369,1.369,0,0,0,1.507-1.34c0-1.613-2.369-1.081-2.369-2.092,0-.36.294-.606.769-.606a1.035,1.035,0,0,1,.98.62l.483-.277a1.56,1.56,0,0,0-1.441-.875A1.253,1.253,0,0,0,75.27,4.735c0,1.49,2.333.91,2.333,2.092,0,.475-.365.725-.861.725a1.114,1.114,0,0,1-1.094-.835L75.094,7A1.7,1.7,0,0,0,76.733,8.088Zm3.819,0A1.77,1.77,0,0,0,81.141,8V7.438a1.047,1.047,0,0,1-.439.11c-.321,0-.558-.224-.558-.708V4.146h1.112V3.61H80.143v-1.6l-.65.615V3.61h-.708v.536h.7V6.835C79.488,7.587,79.774,8.088,80.552,8.088Zm1.705-5.454H83V1.791h-.747ZM82.305,8h.65V3.61h-.65Zm5.73.088a1.369,1.369,0,0,0,1.507-1.34c0-1.613-2.369-1.081-2.369-2.092,0-.36.294-.606.769-.606a1.035,1.035,0,0,1,.98.62l.483-.277a1.56,1.56,0,0,0-1.441-.875,1.253,1.253,0,0,0-1.393,1.217c0,1.49,2.333.91,2.333,2.092,0,.475-.365.725-.861.725a1.114,1.114,0,0,1-1.094-.835L86.4,7A1.7,1.7,0,0,0,88.036,8.088Zm4.135,0a1.675,1.675,0,0,0,1.652-1.165l-.571-.246a1.1,1.1,0,0,1-1.09.857c-.918,0-1.226-.918-1.226-1.723s.316-1.74,1.226-1.74a1.111,1.111,0,0,1,1.09.879l.62-.264a1.8,1.8,0,0,0-1.709-1.169c-1.266,0-1.9,1.116-1.9,2.294A2.019,2.019,0,0,0,92.171,8.088ZM94.878,8h.646V5.807c0-1.059.453-1.661,1.2-1.661a.8.8,0,0,1,.536.167l.277-.567a1.141,1.141,0,0,0-.708-.229,1.414,1.414,0,0,0-1.3.87V3.61h-.655Zm3.463-5.366h.747V1.791h-.747ZM98.389,8h.65V3.61h-.65Zm3.357.088A1.77,1.77,0,0,0,102.335,8V7.438a1.047,1.047,0,0,1-.439.11c-.321,0-.558-.224-.558-.708V4.146h1.112V3.61h-1.112v-1.6l-.65.615V3.61H99.98v.536h.7V6.835C100.683,7.587,100.969,8.088,101.747,8.088Zm2.958,0A1.77,1.77,0,0,0,105.293,8V7.438a1.047,1.047,0,0,1-.439.11c-.321,0-.558-.224-.558-.708V4.146h1.112V3.61H104.3v-1.6l-.65.615V3.61h-.708v.536h.7V6.835C103.641,7.587,103.926,8.088,104.7,8.088Zm1.705-5.454h.747V1.791h-.747ZM106.458,8h.65V3.61h-.65ZM1.96,19.088A1.77,1.77,0,0,0,2.549,19v-.562a1.047,1.047,0,0,1-.439.11c-.321,0-.558-.224-.558-.708V15.146H2.663V14.61H1.551v-1.6l-.65.615v.989H.193v.536H.9v2.689C.9,18.587,1.182,19.088,1.96,19.088ZM3.617,19h.646V16.807c0-1.059.453-1.661,1.2-1.661A.8.8,0,0,1,6,15.313l.277-.567a1.141,1.141,0,0,0-.708-.229,1.414,1.414,0,0,0-1.3.87V14.61H3.617Zm4.526.088a1.639,1.639,0,0,0,1.542-.936L9.7,19h.558V16.306a1.617,1.617,0,0,0-1.718-1.789,1.948,1.948,0,0,0-1.657.861l.479.374a1.445,1.445,0,0,1,1.217-.664c.8,0,1.077.576,1.077,1.4h-1c-1.248,0-1.934.409-1.934,1.288A1.287,1.287,0,0,0,8.143,19.088Zm.075-.554c-.457,0-.822-.215-.822-.738,0-.584.448-.809,1.318-.809h.94A1.515,1.515,0,0,1,8.218,18.534Zm5.744-4.9h.747v-.844h-.747ZM14.01,19h.65V14.61h-.65Zm3-.483c-.2,0-.215-.237-.215-.25V12.791h-.664v5.322c0,.527.048.976.712.976A2.143,2.143,0,0,0,17.438,19v-.527A2.6,2.6,0,0,1,17.011,18.517Zm5.6.483h.694V12.791h-.633v.119a.72.72,0,0,1-.769.769h-.949v.549h1.657Zm4.232,0h.747l1.819-3.16a2.117,2.117,0,0,0,.29-1.077,2.052,2.052,0,1,0-4.1.013A1.983,1.983,0,0,0,27.65,16.75a2.515,2.515,0,0,0,.554-.062Zm.8-2.791a1.442,1.442,0,1,1,1.389-1.441A1.415,1.415,0,0,1,27.65,16.209ZM31.364,19h.765L34.8,13.133v-.343H30.674V13.4H34Zm6.486.088A2.05,2.05,0,0,0,39.9,17.014a1.975,1.975,0,0,0-2.052-1.973,2.8,2.8,0,0,0-.549.057l1.367-2.307h-.76L36.1,15.95a2.067,2.067,0,0,0,1.753,3.138Zm0-.624a1.442,1.442,0,1,1,1.389-1.441A1.42,1.42,0,0,1,37.85,18.464Zm7.269.6a2.153,2.153,0,0,0,1.679-.686l-.448-.36a1.534,1.534,0,0,1-1.235.47,1.3,1.3,0,0,1-1.283-1.459H46.89c.009-.079.022-.224.022-.338,0-1.011-.439-2.14-1.863-2.14a2.024,2.024,0,0,0-1.907,2.281A1.99,1.99,0,0,0,45.119,19.062Zm-1.288-2.571c.035-.747.413-1.4,1.217-1.4.9,0,1.217.7,1.235,1.4Zm6.548-2.856h.747v-.844h-.747ZM50.427,19h.65V14.61h-.65Zm3-.483c-.2,0-.215-.237-.215-.25V12.791H52.55v5.322c0,.527.048.976.712.976A2.143,2.143,0,0,0,53.855,19v-.527A2.6,2.6,0,0,1,53.429,18.517Zm5.6.483h.694V12.791h-.633v.119a.72.72,0,0,1-.769.769h-.949v.549h1.657Zm4.232,0h.747l1.819-3.16a2.117,2.117,0,0,0,.29-1.077,2.052,2.052,0,1,0-4.1.013,1.983,1.983,0,0,0,2.052,1.973,2.515,2.515,0,0,0,.554-.062Zm.8-2.791a1.442,1.442,0,1,1,1.389-1.441A1.415,1.415,0,0,1,64.068,16.209Zm5.067,2.878a1.841,1.841,0,0,0,2.083-1.8,1.7,1.7,0,0,0-1.077-1.635,1.526,1.526,0,0,0,.765-1.354,1.783,1.783,0,0,0-3.546,0,1.524,1.524,0,0,0,.782,1.354,1.707,1.707,0,0,0-1.094,1.639A1.847,1.847,0,0,0,69.135,19.088Zm.022-3.652a1.058,1.058,0,0,1-1.116-1.121,1.11,1.11,0,1,1,1.116,1.121Zm-.026,3.081a1.284,1.284,0,1,1,1.4-1.279A1.29,1.29,0,0,1,69.13,18.517Zm5.6.483h.681V17.326H76.4v-.593H75.41V12.791h-.62l-2.927,4.14v.4h2.865Zm-2.043-2.268,2.043-2.887v2.887Z" transform="translate(472 52)"/>
    <path id="Path_534" data-name="Path 534" d="M13.168,41.3c-3.243,0-5.868-2.237-5.868-5s2.625-5,5.868-5h9.265c3.243,0,5.868,2.237,5.868,5s-2.625,5-5.868,5Z" transform="translate(-7.1 30.221)" fill="#fff" stroke="#000" stroke-width="0.5"/>
    <circle id="Ellipse_5" data-name="Ellipse 5" cx="0.7" cy="0.7" r="0.7" transform="translate(10.3 65.741)"/>
    <path id="Path_161561" data-name="Path 161561" d="M22.1,71.3h-9c-3.3,0-6-2.25-6-5h0c0-2.75,2.7-5,6-5h9c3.3,0,6,2.25,6,5h0C28.1,69.05,25.4,71.3,22.1,71.3Z" transform="translate(-7.1 -37.879)" fill="#b4b3b3"/>
  </g>
</svg>
