<svg xmlns="http://www.w3.org/2000/svg" xmlns:xlink="http://www.w3.org/1999/xlink" width="938" height="105.29" viewBox="0 0 938 105.29">
  <defs>
    <clipPath id="clip-path">
      <rect id="SVGID" width="11.6" height="11.6" transform="translate(-1056.362 -103.437)" fill="none"/>
    </clipPath>
    <clipPath id="clip-path-2">
      <rect id="SVGID-2" data-name="SVGID" width="11.61" height="11.61" transform="translate(-1056.424 -103.344)" fill="none"/>
    </clipPath>
    <clipPath id="clip-path-3">
      <rect id="SVGID-3" data-name="SVGID" width="11.6" height="11.6" transform="translate(-1056.333 -81.336)" fill="none"/>
    </clipPath>
    <clipPath id="clip-path-4">
      <rect id="SVGID-4" data-name="SVGID" width="11.61" height="11.61" transform="translate(-1056.412 -81.215)" fill="none"/>
    </clipPath>
    <clipPath id="clip-Legend01">
      <rect width="938" height="105.29"/>
    </clipPath>
  </defs>
  <g id="Legend01" clip-path="url(#clip-Legend01)">
    <path id="Path_161564" data-name="Path 161564" d="M1.035.01h.776v-3.1H2.944L4.668.01h.908l-1.87-3.2a1.763,1.763,0,0,0,1.47-1.787A1.959,1.959,0,0,0,3.008-6.89H1.035ZM1.821-3.8V-6.206h1.2a1.234,1.234,0,0,1,1.4,1.23c0,.742-.542,1.138-1.279,1.177ZM8.408.068a2.392,2.392,0,0,0,1.865-.762l-.5-.4A1.7,1.7,0,0,1,8.4-.571,1.444,1.444,0,0,1,6.978-2.192h3.4c.01-.088.024-.249.024-.376,0-1.123-.488-2.378-2.07-2.378-1.416,0-2.119,1.226-2.119,2.534A2.211,2.211,0,0,0,8.408.068ZM6.978-2.788c.039-.83.459-1.558,1.353-1.558,1,0,1.353.776,1.372,1.558ZM12.793.1a1.821,1.821,0,0,0,1.714-1.04L14.521,0h.62V-2.993A1.8,1.8,0,0,0,13.232-4.98a2.164,2.164,0,0,0-1.841.957l.532.415a1.605,1.605,0,0,1,1.353-.737c.884,0,1.2.64,1.2,1.558H13.359c-1.387,0-2.148.454-2.148,1.431A1.43,1.43,0,0,0,12.793.1Zm.083-.615c-.508,0-.913-.239-.913-.82,0-.649.5-.9,1.465-.9h1.045A1.683,1.683,0,0,1,12.876-.518Zm4.746-.02c-.22,0-.239-.264-.239-.278V-6.9h-.737V-.986C16.646-.4,16.7.1,17.437.1A2.381,2.381,0,0,0,18.1,0V-.586A2.891,2.891,0,0,1,17.622-.537ZM20.547.1A1.966,1.966,0,0,0,21.2,0V-.625a1.164,1.164,0,0,1-.488.122c-.356,0-.62-.249-.62-.786V-4.282h1.235v-.6H20.093V-6.66l-.723.684v1.1h-.786v.6h.781v2.988C19.365-.459,19.683.1,20.547.1Zm3.218-5.576h.742L23.442-6.9H22.5ZM23.623.1a1.821,1.821,0,0,0,1.714-1.04L25.352,0h.62V-2.993A1.8,1.8,0,0,0,24.063-4.98a2.164,2.164,0,0,0-1.841.957l.532.415a1.605,1.605,0,0,1,1.353-.737c.884,0,1.2.64,1.2,1.558H24.189c-1.387,0-2.148.454-2.148,1.431A1.43,1.43,0,0,0,23.623.1Zm.083-.615c-.508,0-.913-.239-.913-.82,0-.649.5-.9,1.465-.9H25.3A1.683,1.683,0,0,1,23.706-.518Z" transform="translate(31.514 42.713)"/>
    <path id="Path_161565" data-name="Path 161565" d="M3.682.1A2.923,2.923,0,0,0,6.514-1.748L5.8-2.056A2.028,2.028,0,0,1,3.73-.615c-1.685,0-2.358-1.338-2.358-2.861,0-1.489.654-2.817,2.339-2.817a1.968,1.968,0,0,1,2.08,1.426L6.5-5.176A2.726,2.726,0,0,0,3.745-7.012C1.548-7.012.61-5.371.61-3.467.61-1.519,1.592.1,3.682.1ZM9.463.1a2.4,2.4,0,0,0,2.324-2.549A2.383,2.383,0,0,0,9.463-4.98a2.361,2.361,0,0,0-2.3,2.529A2.376,2.376,0,0,0,9.463.1Zm0-.605C8.394-.508,7.9-1.465,7.9-2.451s.5-1.924,1.582-1.924,1.572.947,1.572,1.924S10.562-.508,9.468-.508ZM13.027,0h.728V-2.534c0-1.211.61-1.812,1.377-1.812.859,0,1.108.781,1.108,1.455V0h.723V-2.964c0-1.074-.474-2-1.636-2a1.752,1.752,0,0,0-1.572.938v-.85h-.728Zm6.821.1A1.966,1.966,0,0,0,20.5,0V-.625a1.164,1.164,0,0,1-.488.122c-.356,0-.62-.249-.62-.786V-4.282H20.63v-.6H19.395V-6.66l-.723.684v1.1h-.786v.6h.781v2.988C18.667-.459,18.984.1,19.849.1ZM23.56.068a2.392,2.392,0,0,0,1.865-.762l-.5-.4a1.7,1.7,0,0,1-1.372.522,1.444,1.444,0,0,1-1.426-1.621h3.4c.01-.088.024-.249.024-.376,0-1.123-.488-2.378-2.07-2.378-1.416,0-2.119,1.226-2.119,2.534A2.211,2.211,0,0,0,23.56.068ZM22.129-2.788c.039-.83.459-1.558,1.353-1.558,1,0,1.353.776,1.372,1.558ZM28.159.1a1.521,1.521,0,0,0,1.675-1.489c0-1.792-2.632-1.2-2.632-2.324,0-.4.327-.674.854-.674a1.15,1.15,0,0,1,1.089.688l.537-.308a1.733,1.733,0,0,0-1.6-.972,1.392,1.392,0,0,0-1.548,1.353c0,1.655,2.593,1.011,2.593,2.324,0,.527-.405.806-.957.806a1.237,1.237,0,0,1-1.216-.928l-.615.317A1.893,1.893,0,0,0,28.159.1ZM32.4.1a1.966,1.966,0,0,0,.654-.1V-.625a1.164,1.164,0,0,1-.488.122c-.356,0-.62-.249-.62-.786V-4.282h1.235v-.6H31.948V-6.66l-.723.684v1.1h-.786v.6h.781v2.988C31.221-.459,31.538.1,32.4.1Zm3.491.01a1.736,1.736,0,0,0,1.533-.933V0h.723V-4.878h-.723v2.7a1.566,1.566,0,0,1-1.455,1.67c-.835,0-1.025-.786-1.025-1.489V-4.878h-.728v2.832C34.219-.83,34.692.107,35.894.107ZM40.933.1a1.821,1.821,0,0,0,1.714-1.04L42.661,0h.62V-2.993A1.8,1.8,0,0,0,41.372-4.98a2.164,2.164,0,0,0-1.841.957l.532.415a1.605,1.605,0,0,1,1.353-.737c.884,0,1.2.64,1.2,1.558H41.5c-1.387,0-2.148.454-2.148,1.431A1.43,1.43,0,0,0,40.933.1Zm.083-.615c-.508,0-.913-.239-.913-.82,0-.649.5-.9,1.465-.9h1.045A1.683,1.683,0,0,1,41.016-.518Zm4.746-.02c-.22,0-.239-.264-.239-.278V-6.9h-.737V-.986c0,.586.054,1.084.791,1.084a2.381,2.381,0,0,0,.659-.1V-.586A2.891,2.891,0,0,1,45.762-.537Zm1.523-5.425h.83V-6.9h-.83ZM47.339,0h.723V-4.878h-.723Zm5.713-4.878h-3.7v.6H52.2L49.214-.552V0h3.838V-.625h-2.93l2.93-3.652Zm4.551,0h-3.7v.6h2.842L53.765-.552V0H57.6V-.625h-2.93L57.6-4.277ZM59.951.1a1.821,1.821,0,0,0,1.714-1.04L61.68,0h.62V-2.993A1.8,1.8,0,0,0,60.391-4.98a2.164,2.164,0,0,0-1.841.957l.532.415a1.605,1.605,0,0,1,1.353-.737c.884,0,1.2.64,1.2,1.558H60.518c-1.387,0-2.148.454-2.148,1.431A1.43,1.43,0,0,0,59.951.1Zm.083-.615c-.508,0-.913-.239-.913-.82,0-.649.5-.9,1.465-.9h1.045A1.683,1.683,0,0,1,60.034-.518Zm7.124-4.36h-3.7v.6H66.3L63.32-.552V0h3.838V-.625h-2.93l2.93-3.652Zm1.157-1.084h.83V-6.9h-.83ZM68.369,0h.723V-4.878h-.723Zm4.272.1a2.4,2.4,0,0,0,2.324-2.549A2.383,2.383,0,0,0,72.642-4.98a2.361,2.361,0,0,0-2.3,2.529A2.376,2.376,0,0,0,72.642.1Zm0-.605c-1.074,0-1.572-.957-1.572-1.943s.5-1.924,1.582-1.924,1.572.947,1.572,1.924S73.74-.508,72.646-.508ZM76.206,0h.728V-2.534c0-1.211.61-1.812,1.377-1.812.859,0,1.108.781,1.108,1.455V0h.723V-2.964c0-1.074-.474-2-1.636-2a1.752,1.752,0,0,0-1.572.938v-.85h-.728Zm7.285.068a2.392,2.392,0,0,0,1.865-.762l-.5-.4a1.7,1.7,0,0,1-1.372.522,1.444,1.444,0,0,1-1.426-1.621h3.4c.01-.088.024-.249.024-.376,0-1.123-.488-2.378-2.07-2.378-1.416,0-2.119,1.226-2.119,2.534A2.211,2.211,0,0,0,83.491.068ZM82.061-2.788c.039-.83.459-1.558,1.353-1.558,1,0,1.353.776,1.372,1.558Z" transform="translate(31.513 64.713)"/>
    <path id="Path_161566" data-name="Path 161566" d="M1.035,0h.776V-6.9H1.035ZM3.662,0H4.4V-2.544c0-.884.435-1.816,1.245-1.816.835,0,1.025.776,1.025,1.45V0h.742V-2.705c0-.8.435-1.655,1.235-1.655.845,0,1.045.806,1.045,1.47V0h.737V-2.964c0-1.084-.488-2.017-1.694-2.017A1.618,1.618,0,0,0,7.217-3.96,1.465,1.465,0,0,0,5.728-4.98,1.459,1.459,0,0,0,4.4-4.121v-.757H3.662Zm8.3,0H12.7V-2.544c0-.884.435-1.816,1.245-1.816.835,0,1.025.776,1.025,1.45V0h.742V-2.705c0-.8.435-1.655,1.235-1.655.845,0,1.045.806,1.045,1.47V0h.737V-2.964c0-1.084-.488-2.017-1.694-2.017A1.618,1.618,0,0,0,15.513-3.96,1.465,1.465,0,0,0,14.023-4.98a1.459,1.459,0,0,0-1.328.859v-.757h-.737Zm9.434.1a1.821,1.821,0,0,0,1.714-1.04L23.12,0h.62V-2.993A1.8,1.8,0,0,0,21.831-4.98a2.164,2.164,0,0,0-1.841.957l.532.415a1.605,1.605,0,0,1,1.353-.737c.884,0,1.2.64,1.2,1.558H21.958c-1.387,0-2.148.454-2.148,1.431A1.43,1.43,0,0,0,21.392.1Zm.083-.615c-.508,0-.913-.239-.913-.82,0-.649.5-.9,1.465-.9h1.045A1.683,1.683,0,0,1,21.475-.518ZM27.012-.63c-.693-.1-1.3-.244-1.3-.747a.462.462,0,0,1,.21-.376,2.079,2.079,0,0,0,.918.205,1.661,1.661,0,0,0,1.8-1.68,1.761,1.761,0,0,0-.181-.791l.786-.62-.415-.518-.732.664a1.855,1.855,0,0,0-1.26-.454A1.7,1.7,0,0,0,25.01-3.237a1.625,1.625,0,0,0,.41,1.113,1,1,0,0,0-.356.806,1.082,1.082,0,0,0,.62,1l-.7.708a1.287,1.287,0,0,0-.015.186c0,.928.835,1.66,2.1,1.66,1.025,0,1.953-.479,1.953-1.484C29.023-.352,28-.5,27.012-.63Zm-.186-3.74a1.059,1.059,0,0,1,1.079,1.118,1.023,1.023,0,0,1-1.079,1.1,1.019,1.019,0,0,1-1.074-1.1A1.066,1.066,0,0,1,26.826-4.37Zm.3,5.962c-.947,0-1.484-.5-1.489-1l.576-.7A4.948,4.948,0,0,0,26.8.015c.835.142,1.577.166,1.577.791C28.374,1.338,27.773,1.592,27.129,1.592Zm3.086-7.554h.83V-6.9h-.83ZM30.269,0h.723V-4.878h-.723Zm2.373,0h.728V-2.534c0-1.211.61-1.812,1.377-1.812.859,0,1.108.781,1.108,1.455V0h.723V-2.964c0-1.074-.474-2-1.636-2a1.752,1.752,0,0,0-1.572.938v-.85h-.728Zm6.6.1a1.821,1.821,0,0,0,1.714-1.04L40.972,0h.62V-2.993A1.8,1.8,0,0,0,39.683-4.98a2.164,2.164,0,0,0-1.841.957l.532.415a1.605,1.605,0,0,1,1.353-.737c.884,0,1.2.64,1.2,1.558H39.81c-1.387,0-2.148.454-2.148,1.431A1.43,1.43,0,0,0,39.243.1Zm.083-.615c-.508,0-.913-.239-.913-.82,0-.649.5-.9,1.465-.9h1.045A1.683,1.683,0,0,1,39.326-.518Zm7.124-4.36h-3.7v.6H45.6L42.612-.552V0H46.45V-.625h-2.93l2.93-3.652Zm1.157-1.084h.83V-6.9h-.83ZM47.661,0h.723V-4.878h-.723Zm4.272.1a2.4,2.4,0,0,0,2.324-2.549A2.383,2.383,0,0,0,51.934-4.98a2.361,2.361,0,0,0-2.3,2.529A2.376,2.376,0,0,0,51.934.1Zm0-.605c-1.074,0-1.572-.957-1.572-1.943s.5-1.924,1.582-1.924,1.572.947,1.572,1.924S53.032-.508,51.938-.508ZM55.5,0h.728V-2.534c0-1.211.61-1.812,1.377-1.812.859,0,1.108.781,1.108,1.455V0h.723V-2.964c0-1.074-.474-2-1.636-2a1.752,1.752,0,0,0-1.572.938v-.85H55.5Zm7.285.068a2.392,2.392,0,0,0,1.865-.762l-.5-.4a1.7,1.7,0,0,1-1.372.522,1.444,1.444,0,0,1-1.426-1.621h3.4c.01-.088.024-.249.024-.376,0-1.123-.488-2.378-2.07-2.378-1.416,0-2.119,1.226-2.119,2.534A2.211,2.211,0,0,0,62.783.068ZM61.353-2.788c.039-.83.459-1.558,1.353-1.558,1,0,1.353.776,1.372,1.558Z" transform="translate(31.513 86.713)"/>
    <path id="Rectangle_13359" data-name="Rectangle 13359" d="M-1287.879-102.5h11a4.951,4.951,0,0,1,5,5h0a4.951,4.951,0,0,1-5,5h-11a4.951,4.951,0,0,1-5-5h0A5.015,5.015,0,0,1-1287.879-102.5Z" transform="translate(1293.157 137.196)" fill="#00bfd3"/>
    <path id="Rectangle_13360" data-name="Rectangle 13360" d="M-1287.879-80.5h11a4.951,4.951,0,0,1,5,5h0a4.951,4.951,0,0,1-5,5h-11a4.951,4.951,0,0,1-5-5h0A5.015,5.015,0,0,1-1287.879-80.5Z" transform="translate(1293.157 137.196)" fill="#bbf"/>
    <path id="Rectangle_13361" data-name="Rectangle 13361" d="M-1287.879-58.5h11a4.951,4.951,0,0,1,5,5h0a4.951,4.951,0,0,1-5,5h-11a4.951,4.951,0,0,1-5-5h0A5.015,5.015,0,0,1-1287.879-58.5Z" transform="translate(1293.157 137.196)" fill="#f36"/>
    <g id="Group_24452" data-name="Group 24452" transform="translate(1289.635 137.196)">
      <path id="Path_161573" data-name="Path 161573" d="M.889,0H5.078V-1.172H2.129V-6.9H.889ZM8.462.1C10.313.1,11.1-1,11.1-2.739V-6.9H9.863v4.067c0,1.113-.288,1.733-1.4,1.733s-1.4-.62-1.4-1.733V-6.9H5.825V-2.69C5.825-1,6.611.1,8.462.1Zm7.1,0a3.229,3.229,0,0,0,3.33-3.55A3.229,3.229,0,0,0,15.562-7a3.229,3.229,0,0,0-3.33,3.55A3.229,3.229,0,0,0,15.562.1Zm0-1.1C14.082-1,13.54-2.148,13.54-3.452S14.082-5.9,15.562-5.9s2.021,1.147,2.021,2.446S17.041-1,15.562-1ZM23.032.1A2.284,2.284,0,0,0,25.073-.972L25.181,0h.981V-3.73H23.394v1h1.567a1.9,1.9,0,0,1-1.929,1.719c-1.479,0-2.109-1.118-2.109-2.49,0-1.279.63-2.427,2.09-2.427A1.894,1.894,0,0,1,24.932-4.57l1.1-.459a3.136,3.136,0,0,0-3.008-1.982c-2.28,0-3.33,1.67-3.33,3.56A3.235,3.235,0,0,0,23.032.1ZM27.671,0h1.24V-2.881h3.022V0h1.24V-6.9h-1.24v2.881H28.911V-6.9h-1.24Zm7.28,0h1.24V-6.9h-1.24Zm5.42,0h4.59V-1.172h-3.35V-2.881h3.12V-4.019h-3.12V-5.762h3.35V-6.9h-4.59Zm8.481,0h1.23V-2.861h.933c1.406,0,2.437-.708,2.437-2S52.422-6.9,51.016-6.9H48.853Zm1.23-4.019V-5.742h.933c.84,0,1.206.322,1.206.884s-.356.84-1.206.84ZM54.521,0h4.59V-1.172h-3.35V-2.881h3.12V-4.019h-3.12V-5.762h3.35V-6.9h-4.59ZM60.6.01h1.24V-2.949h.83L64.37.01h1.421L63.872-3.071a1.891,1.891,0,0,0,1.348-1.8A2.139,2.139,0,0,0,62.832-6.9H60.6Zm1.25-3.97V-5.791h.991c.708,0,1.152.371,1.152.942,0,.518-.391.859-1.05.889ZM68.765.078a2.169,2.169,0,0,0,2.4-2.09c0-2.29-3.34-1.851-3.34-3.149a.786.786,0,0,1,.869-.737,1.249,1.249,0,0,1,1.113.737l1.03-.63A2.309,2.309,0,0,0,68.735-7a1.951,1.951,0,0,0-2.153,1.9c0,2.246,3.34,1.768,3.34,3.2,0,.488-.4.879-1.138.879a1.315,1.315,0,0,1-1.431-1.24l-1.23.313A2.507,2.507,0,0,0,68.765.078Zm6.4.02a3.229,3.229,0,0,0,3.33-3.55A3.229,3.229,0,0,0,75.166-7a3.229,3.229,0,0,0-3.33,3.55A3.229,3.229,0,0,0,75.166.1Zm0-1.1c-1.479,0-2.021-1.147-2.021-2.451S73.687-5.9,75.166-5.9s2.021,1.147,2.021,2.446S76.646-1,75.166-1Zm4.619,1h1.191V-4.839L83.867,0h1.24V-6.9H83.916V-2.07L81.016-6.9h-1.23Zm6.27,0h1.353l.537-1.5h2.681L91.157,0H92.5L89.746-6.9h-.928Zm2.31-2.559.923-2.52.918,2.52ZM95.952.1A2.284,2.284,0,0,0,97.993-.972L98.1,0h.981V-3.73H96.313v1h1.567a1.9,1.9,0,0,1-1.929,1.719c-1.479,0-2.109-1.118-2.109-2.49,0-1.279.63-2.427,2.09-2.427A1.894,1.894,0,0,1,97.852-4.57l1.1-.459a3.136,3.136,0,0,0-3.008-1.982c-2.28,0-3.33,1.67-3.33,3.56A3.235,3.235,0,0,0,95.952.1Zm7.49,0a2.284,2.284,0,0,0,2.041-1.069l.107.972h.981V-3.73H103.8v1h1.567a1.9,1.9,0,0,1-1.929,1.719c-1.479,0-2.109-1.118-2.109-2.49,0-1.279.63-2.427,2.09-2.427a1.894,1.894,0,0,1,1.919,1.357l1.1-.459a3.136,3.136,0,0,0-3.008-1.982c-2.28,0-3.33,1.67-3.33,3.56A3.235,3.235,0,0,0,103.442.1Zm4.639-.1h1.24V-6.9h-1.24Z" transform="translate(-1055.635 -113.495)" fill="#5151fc"/>
    </g>
    <g id="Group_24453" data-name="Group 24453" transform="translate(1310.731 159.196)">
      <path id="Path_161567" data-name="Path 161567" d="M1.035,0h.771V-3.115H2.969c1.338,0,2.207-.664,2.207-1.88,0-1.187-.869-1.9-2.207-1.9H1.035Zm.771-3.8V-6.211H2.969c.923,0,1.445.449,1.445,1.216,0,.8-.522,1.191-1.445,1.191ZM7.866.068A2.392,2.392,0,0,0,9.731-.693l-.5-.4a1.7,1.7,0,0,1-1.372.522A1.444,1.444,0,0,1,6.436-2.192h3.4c.01-.088.024-.249.024-.376,0-1.123-.488-2.378-2.07-2.378-1.416,0-2.119,1.226-2.119,2.534A2.211,2.211,0,0,0,7.866.068ZM6.436-2.788c.039-.83.459-1.558,1.353-1.558,1,0,1.353.776,1.372,1.558ZM11.113,0h.718V-2.437c0-1.177.5-1.846,1.333-1.846a.888.888,0,0,1,.6.186l.308-.63a1.268,1.268,0,0,0-.786-.254,1.572,1.572,0,0,0-1.44.967v-.864h-.728Zm4.966.1a1.521,1.521,0,0,0,1.675-1.489c0-1.792-2.632-1.2-2.632-2.324,0-.4.327-.674.854-.674a1.15,1.15,0,0,1,1.089.688l.537-.308A1.733,1.733,0,0,0,16-4.98a1.392,1.392,0,0,0-1.548,1.353c0,1.655,2.593,1.011,2.593,2.324,0,.527-.405.806-.957.806a1.237,1.237,0,0,1-1.216-.928l-.615.317A1.893,1.893,0,0,0,16.079.1Zm4.746,0a2.4,2.4,0,0,0,2.324-2.549A2.383,2.383,0,0,0,20.825-4.98a2.361,2.361,0,0,0-2.3,2.529A2.376,2.376,0,0,0,20.825.1Zm0-.605c-1.074,0-1.572-.957-1.572-1.943s.5-1.924,1.582-1.924,1.572.947,1.572,1.924S21.924-.508,20.83-.508ZM24.39,0h.728V-2.534c0-1.211.61-1.812,1.377-1.812.859,0,1.108.781,1.108,1.455V0h.723V-2.964c0-1.074-.474-2-1.636-2a1.752,1.752,0,0,0-1.572.938v-.85H24.39Zm6.6.1a1.821,1.821,0,0,0,1.714-1.04L32.72,0h.62V-2.993A1.8,1.8,0,0,0,31.431-4.98a2.164,2.164,0,0,0-1.841.957l.532.415a1.605,1.605,0,0,1,1.353-.737c.884,0,1.2.64,1.2,1.558H31.558c-1.387,0-2.148.454-2.148,1.431A1.43,1.43,0,0,0,30.991.1Zm.083-.615c-.508,0-.913-.239-.913-.82,0-.649.5-.9,1.465-.9h1.045A1.683,1.683,0,0,1,31.074-.518ZM36.611-.63c-.693-.1-1.3-.244-1.3-.747a.462.462,0,0,1,.21-.376,2.079,2.079,0,0,0,.918.205,1.661,1.661,0,0,0,1.8-1.68,1.761,1.761,0,0,0-.181-.791l.786-.62-.415-.518-.732.664a1.855,1.855,0,0,0-1.26-.454,1.7,1.7,0,0,0-1.826,1.709,1.625,1.625,0,0,0,.41,1.113,1,1,0,0,0-.356.806,1.082,1.082,0,0,0,.62,1l-.7.708a1.287,1.287,0,0,0-.015.186c0,.928.835,1.66,2.1,1.66,1.025,0,1.953-.479,1.953-1.484C38.623-.352,37.6-.5,36.611-.63Zm-.186-3.74A1.059,1.059,0,0,1,37.5-3.252a1.023,1.023,0,0,1-1.079,1.1,1.019,1.019,0,0,1-1.074-1.1A1.066,1.066,0,0,1,36.426-4.37Zm.3,5.962c-.947,0-1.484-.5-1.489-1l.576-.7A4.948,4.948,0,0,0,36.4.015c.835.142,1.577.166,1.577.791C37.974,1.338,37.373,1.592,36.729,1.592ZM41.611-.63c-.693-.1-1.3-.244-1.3-.747a.462.462,0,0,1,.21-.376,2.079,2.079,0,0,0,.918.205,1.661,1.661,0,0,0,1.8-1.68,1.761,1.761,0,0,0-.181-.791l.786-.62-.415-.518-.732.664a1.855,1.855,0,0,0-1.26-.454,1.7,1.7,0,0,0-1.826,1.709,1.625,1.625,0,0,0,.41,1.113,1,1,0,0,0-.356.806,1.082,1.082,0,0,0,.62,1l-.7.708a1.287,1.287,0,0,0-.015.186c0,.928.835,1.66,2.1,1.66,1.025,0,1.953-.479,1.953-1.484C43.623-.352,42.6-.5,41.611-.63Zm-.186-3.74A1.059,1.059,0,0,1,42.5-3.252a1.023,1.023,0,0,1-1.079,1.1,1.019,1.019,0,0,1-1.074-1.1A1.066,1.066,0,0,1,41.426-4.37Zm.3,5.962c-.947,0-1.484-.5-1.489-1l.576-.7A4.948,4.948,0,0,0,41.4.015c.835.142,1.577.166,1.577.791C42.974,1.338,42.373,1.592,41.729,1.592Zm3.086-7.554h.83V-6.9h-.83ZM44.868,0h.723V-4.878h-.723Zm4.272.1a2.4,2.4,0,0,0,2.324-2.549A2.383,2.383,0,0,0,49.141-4.98a2.361,2.361,0,0,0-2.3,2.529A2.376,2.376,0,0,0,49.141.1Zm0-.605c-1.074,0-1.572-.957-1.572-1.943s.5-1.924,1.582-1.924,1.572.947,1.572,1.924S50.239-.508,49.146-.508Zm6.2.508h.718V-2.437c0-1.177.5-1.846,1.333-1.846a.888.888,0,0,1,.6.186l.308-.63a1.268,1.268,0,0,0-.786-.254,1.572,1.572,0,0,0-1.44.967v-.864h-.728Zm5.3.068a2.392,2.392,0,0,0,1.865-.762l-.5-.4a1.7,1.7,0,0,1-1.372.522,1.444,1.444,0,0,1-1.426-1.621h3.4c.01-.088.024-.249.024-.376,0-1.123-.488-2.378-2.07-2.378-1.416,0-2.119,1.226-2.119,2.534A2.211,2.211,0,0,0,60.649.068ZM59.219-2.788c.039-.83.459-1.558,1.353-1.558,1,0,1.353.776,1.372,1.558ZM65.034.1a1.821,1.821,0,0,0,1.714-1.04L66.763,0h.62V-2.993A1.8,1.8,0,0,0,65.474-4.98a2.164,2.164,0,0,0-1.841.957l.532.415a1.605,1.605,0,0,1,1.353-.737c.884,0,1.2.64,1.2,1.558H65.6c-1.387,0-2.148.454-2.148,1.431A1.43,1.43,0,0,0,65.034.1Zm.083-.615c-.508,0-.913-.239-.913-.82,0-.649.5-.9,1.465-.9h1.045A1.683,1.683,0,0,1,65.117-.518Zm4.746-.02c-.22,0-.239-.264-.239-.278V-6.9h-.737V-.986C68.887-.4,68.94.1,69.678.1a2.381,2.381,0,0,0,.659-.1V-.586A2.891,2.891,0,0,1,69.863-.537Zm3.389.605a2.392,2.392,0,0,0,1.865-.762l-.5-.4a1.7,1.7,0,0,1-1.372.522,1.444,1.444,0,0,1-1.426-1.621h3.4c.01-.088.024-.249.024-.376,0-1.123-.488-2.378-2.07-2.378-1.416,0-2.119,1.226-2.119,2.534A2.211,2.211,0,0,0,73.252.068ZM71.821-2.788c.039-.83.459-1.558,1.353-1.558,1,0,1.353.776,1.372,1.558Z" transform="translate(-1023.731 -94.483)"/>
    </g>
    <g id="Group_24454" data-name="Group 24454" transform="translate(1310.731 159.196)">
      <path id="Path_161568" data-name="Path 161568" d="M.474,0H1.25l.713-3.115H3.154A2.4,2.4,0,0,0,5.747-4.927C6.035-6.152,5.308-6.9,3.97-6.9h-1.9ZM2.119-3.8l.562-2.407H3.872c.918,0,1.313.415,1.143,1.143A1.614,1.614,0,0,1,3.262-3.8ZM7.344.059a2.925,2.925,0,0,0,2-.728L8.9-1.118a2.12,2.12,0,0,1-1.528.532c-.913,0-1.206-.708-1-1.572h3.4c.02-.054.049-.151.049-.151.322-1.353.1-2.632-1.523-2.632A2.883,2.883,0,0,0,5.684-2.48C5.366-1.074,5.859.059,7.344.059ZM6.509-2.754A1.9,1.9,0,0,1,8.262-4.292c.913,0,1.2.586.986,1.538ZM10.547,0h.732l.527-2.275c.234-1.016.933-1.982,1.792-1.982a1.143,1.143,0,0,1,.605.176l.356-.62a1.365,1.365,0,0,0-.82-.249,1.852,1.852,0,0,0-1.528.913l.19-.84h-.737Zm5.107.1a1.8,1.8,0,0,0,1.9-1.621c0-1.582-2.212-.962-2.212-2.017,0-.542.43-.8.972-.8a.952.952,0,0,1,1,.625l.61-.264a1.574,1.574,0,0,0-1.577-.977A1.508,1.508,0,0,0,14.658-3.5c0,1.563,2.173.908,2.173,2a1.028,1.028,0,0,1-1.118.947,1,1,0,0,1-1.079-.84l-.664.249A1.6,1.6,0,0,0,15.654.1Zm4.658,0a3.057,3.057,0,0,0,2.822-2.446c.332-1.426-.376-2.593-1.777-2.593A3.047,3.047,0,0,0,18.545-2.49C18.213-1.064,18.9.1,20.313.1Zm.039-.645c-1.055,0-1.24-.864-1.025-1.8a2.194,2.194,0,0,1,2-1.943c1.069,0,1.25.864,1.03,1.8A2.19,2.19,0,0,1,20.352-.547ZM23.843,0h.728l.635-2.739a2.066,2.066,0,0,1,1.846-1.528c.815,0,.82.679.674,1.343L27.051,0h.732l.674-2.93c.249-1.084-.029-2.031-1.27-2.031a2.255,2.255,0,0,0-1.675.82l.181-.737h-.732ZM33.55-4.878l-.176.688a1.382,1.382,0,0,0-1.382-.791A2.831,2.831,0,0,0,29.521-2.51C29.194-1.084,29.658.1,30.938.1a2.156,2.156,0,0,0,1.631-.713L32.446,0h.713l1.118-4.878ZM33.062-2.51c-.234,1.035-.869,1.943-1.9,1.943-.947,0-1.147-.845-.918-1.8.229-1.025.884-1.938,1.895-1.938C33.105-4.307,33.281-3.462,33.062-2.51ZM38.652.034l1.143-4.912h-.737l-.171.7a1.391,1.391,0,0,0-1.353-.8,2.813,2.813,0,0,0-2.5,2.461c-.327,1.426.122,2.6,1.45,2.6A2.172,2.172,0,0,0,38.1-.664l-.161.63a1.793,1.793,0,0,1-1.733,1.519A1.105,1.105,0,0,1,35.059.767l-.625.356a1.735,1.735,0,0,0,1.738.991A2.435,2.435,0,0,0,38.652.034Zm-1.973-.6c-.957,0-1.152-.864-.923-1.812.225-1.021.894-1.953,1.909-1.953.957,0,1.123.869.908,1.812C38.345-1.5,37.7-.566,36.68-.566Zm7.49.6,1.143-4.912h-.737l-.171.7a1.391,1.391,0,0,0-1.353-.8,2.813,2.813,0,0,0-2.5,2.461c-.327,1.426.122,2.6,1.45,2.6a2.172,2.172,0,0,0,1.616-.742l-.161.63a1.793,1.793,0,0,1-1.733,1.519A1.105,1.105,0,0,1,40.576.767l-.625.356a1.735,1.735,0,0,0,1.738.991A2.435,2.435,0,0,0,44.17.034ZM42.2-.566c-.957,0-1.152-.864-.923-1.812.225-1.021.894-1.953,1.909-1.953.957,0,1.123.869.908,1.812C43.862-1.5,43.218-.566,42.2-.566Zm4.976-5.4h.845l.215-.937h-.84ZM45.85,0h.737L47.71-4.878h-.742Zm4.316.1a3.057,3.057,0,0,0,2.822-2.446c.332-1.426-.376-2.593-1.777-2.593A3.047,3.047,0,0,0,48.4-2.49C48.066-1.064,48.755.1,50.166.1Zm.039-.645c-1.055,0-1.24-.864-1.025-1.8a2.194,2.194,0,0,1,2-1.943c1.069,0,1.25.864,1.03,1.8A2.19,2.19,0,0,1,50.205-.547ZM57.72-5.962h.845l.215-.937h-.84ZM56.4,0h.737l1.123-4.878h-.742Zm2.383,0h.732l.635-2.749a1.918,1.918,0,0,1,1.665-1.6c.815,0,.806.728.649,1.4L61.787,0h.737l.63-2.749a1.923,1.923,0,0,1,1.66-1.6c.82,0,.815.757.664,1.421L64.8,0h.737l.679-2.93c.249-1.084-.049-2.031-1.289-2.031a2.044,2.044,0,0,0-1.709.981,1.146,1.146,0,0,0-1.3-.991,1.781,1.781,0,0,0-1.484.9l.2-.806H59.9Zm8.286,0H67.8l.635-2.749a1.918,1.918,0,0,1,1.665-1.6c.815,0,.806.728.649,1.4L70.073,0h.737l.63-2.749a1.923,1.923,0,0,1,1.66-1.6c.82,0,.815.757.664,1.421L73.091,0h.737l.679-2.93c.249-1.084-.049-2.031-1.289-2.031a2.044,2.044,0,0,0-1.709.981,1.146,1.146,0,0,0-1.3-.991,1.781,1.781,0,0,0-1.484.9l.2-.806h-.737ZM79.6-4.878l-.176.688a1.382,1.382,0,0,0-1.382-.791A2.831,2.831,0,0,0,75.571-2.51C75.244-1.084,75.708.1,76.987.1a2.156,2.156,0,0,0,1.631-.713L78.5,0h.713l1.118-4.878ZM79.111-2.51c-.234,1.035-.869,1.943-1.9,1.943-.947,0-1.147-.845-.918-1.8.229-1.025.884-1.938,1.895-1.938C79.155-4.307,79.331-3.462,79.111-2.51ZM84.7.034l1.143-4.912h-.737l-.171.7a1.391,1.391,0,0,0-1.353-.8,2.813,2.813,0,0,0-2.5,2.461c-.327,1.426.122,2.6,1.45,2.6A2.172,2.172,0,0,0,84.15-.664l-.161.63a1.793,1.793,0,0,1-1.733,1.519A1.105,1.105,0,0,1,81.108.767l-.625.356a1.735,1.735,0,0,0,1.738.991A2.435,2.435,0,0,0,84.7.034Zm-1.973-.6c-.957,0-1.152-.864-.923-1.812.225-1.021.894-1.953,1.909-1.953.957,0,1.123.869.908,1.812C84.395-1.5,83.75-.566,82.729-.566Zm4.976-5.4h.845l.215-.937h-.84ZM86.382,0h.737l1.123-4.878H87.5Zm2.383,0h.728l.635-2.739a2.066,2.066,0,0,1,1.846-1.528c.815,0,.82.679.674,1.343L91.973,0h.732l.674-2.93c.249-1.084-.029-2.031-1.27-2.031a2.255,2.255,0,0,0-1.675.82l.181-.737h-.732Zm9.707-4.878-.176.688a1.382,1.382,0,0,0-1.382-.791A2.831,2.831,0,0,0,94.443-2.51C94.116-1.084,94.58.1,95.859.1A2.156,2.156,0,0,0,97.49-.615L97.368,0h.713L99.2-4.878ZM97.983-2.51c-.234,1.035-.869,1.943-1.9,1.943-.947,0-1.147-.845-.918-1.8.229-1.025.884-1.938,1.895-1.938C98.027-4.307,98.2-3.462,97.983-2.51ZM99.736,0h.732L101-2.275c.234-1.016.933-1.982,1.792-1.982a1.143,1.143,0,0,1,.605.176l.356-.62a1.365,1.365,0,0,0-.82-.249,1.852,1.852,0,0,0-1.528.913l.19-.84h-.737Zm5.332.059a2.925,2.925,0,0,0,2-.728l-.449-.449a2.12,2.12,0,0,1-1.528.532c-.913,0-1.206-.708-1-1.572h3.4c.02-.054.049-.151.049-.151.322-1.353.1-2.632-1.523-2.632a2.883,2.883,0,0,0-2.617,2.461C103.091-1.074,103.584.059,105.068.059Zm-.835-2.812a1.9,1.9,0,0,1,1.753-1.538c.913,0,1.2.586.986,1.538Z" transform="translate(-1023.731 -72.483)" fill="#4500ff"/>
    </g>
    <path id="Path_161563" data-name="Path 161563" d="M2.261,0H3.5V-5.791H5.659V-6.9H.1v1.108H2.261ZM6.65,0h1.24V-6.9H6.65ZM9.668,0H10.9V-2.861h.933c1.406,0,2.437-.708,2.437-2S13.237-6.9,11.831-6.9H9.668ZM10.9-4.019V-5.742h.933c.84,0,1.206.322,1.206.884s-.356.84-1.206.84ZM18.208.1a3.229,3.229,0,0,0,3.33-3.55A3.229,3.229,0,0,0,18.208-7a3.229,3.229,0,0,0-3.33,3.55A3.229,3.229,0,0,0,18.208.1Zm0-1.1c-1.479,0-2.021-1.147-2.021-2.451S16.729-5.9,18.208-5.9s2.021,1.147,2.021,2.446S19.688-1,18.208-1Zm4.619,1h4.189V-1.172H24.067V-6.9h-1.24Zm7.8.1a3.229,3.229,0,0,0,3.33-3.55A3.229,3.229,0,0,0,30.63-7a3.229,3.229,0,0,0-3.33,3.55A3.229,3.229,0,0,0,30.63.1Zm0-1.1c-1.479,0-2.021-1.147-2.021-2.451S29.15-5.9,30.63-5.9s2.021,1.147,2.021,2.446S32.109-1,30.63-1ZM38.1.1A2.284,2.284,0,0,0,40.142-.972L40.249,0h.981V-3.73H38.462v1h1.567A1.9,1.9,0,0,1,38.1-1.011c-1.479,0-2.109-1.118-2.109-2.49,0-1.279.63-2.427,2.09-2.427A1.894,1.894,0,0,1,40-4.57l1.1-.459a3.136,3.136,0,0,0-3.008-1.982c-2.28,0-3.33,1.67-3.33,3.56A3.235,3.235,0,0,0,38.1.1ZM42.739,0h1.24V-6.9h-1.24Zm2.188,0h1.353l.537-1.5H49.5L50.029,0h1.338L48.618-6.9H47.69Zm2.31-2.559.923-2.52.918,2.52ZM56.689.078a2.169,2.169,0,0,0,2.4-2.09c0-2.29-3.34-1.851-3.34-3.149a.786.786,0,0,1,.869-.737,1.249,1.249,0,0,1,1.113.737l1.03-.63A2.309,2.309,0,0,0,56.66-7a1.951,1.951,0,0,0-2.153,1.9c0,2.246,3.34,1.768,3.34,3.2,0,.488-.4.879-1.138.879a1.315,1.315,0,0,1-1.431-1.24l-1.23.313A2.507,2.507,0,0,0,56.689.078ZM60.269,0h4.59V-1.172h-3.35V-2.881h3.12V-4.019h-3.12V-5.762h3.35V-6.9h-4.59ZM72.012.581l.8-.752-.986-.937A4.038,4.038,0,0,0,72.5-3.442,3.237,3.237,0,0,0,69.17-7a3.229,3.229,0,0,0-3.33,3.55A3.229,3.229,0,0,0,69.17.1,3.3,3.3,0,0,0,71.021-.41ZM69.17-1.069c-1.479,0-2.09-1.079-2.09-2.383s.61-2.378,2.09-2.378,2.09,1.079,2.09,2.378a2.87,2.87,0,0,1-.342,1.44L70-2.861l-.8.732.942.859A2.316,2.316,0,0,1,69.17-1.069ZM76.489.1C78.34.1,79.131-1,79.131-2.739V-6.9h-1.24v4.067c0,1.113-.288,1.733-1.4,1.733s-1.4-.62-1.4-1.733V-6.9H73.853V-2.69C73.853-1,74.639.1,76.489.1ZM80.747,0h4.59V-1.172h-3.35V-2.881h3.12V-4.019h-3.12V-5.762h3.35V-6.9h-4.59Zm6.079,0h1.191V-4.839L90.908,0h1.24V-6.9H90.957V-2.07L88.057-6.9h-1.23Zm6.5,0h5.562V-1.118H95.059L98.887-6v-.9H93.545v1.138h3.633l-3.853,4.9Zm5.981,0h1.353l.537-1.5h2.681l.532,1.5h1.338L103-6.9h-.928Zm2.31-2.559.923-2.52.918,2.52ZM109.1,0h1.191V-4.839L113.179,0h1.24V-6.9h-1.191V-2.07l-2.9-4.829H109.1Zm6.27,0h1.353l.537-1.5h2.681l.532,1.5h1.338l-2.749-6.9h-.928Zm2.31-2.559.923-2.52.918,2.52ZM122.754.01h1.24V-2.949h.83l1.7,2.959h1.421l-1.919-3.081a1.891,1.891,0,0,0,1.348-1.8A2.139,2.139,0,0,0,124.985-6.9h-2.231ZM124-3.96V-5.791H125c.708,0,1.152.371,1.152.942,0,.518-.391.859-1.05.889ZM128.945.01h1.24V-2.949h.83l1.7,2.959h1.421l-1.919-3.081a1.891,1.891,0,0,0,1.348-1.8A2.139,2.139,0,0,0,131.177-6.9h-2.231Zm1.25-3.97V-5.791h.991c.708,0,1.152.371,1.152.942,0,.518-.391.859-1.05.889ZM134.287,0h1.353l.537-1.5h2.681L139.39,0h1.338l-2.749-6.9h-.928Zm2.31-2.559.923-2.52.918,2.52ZM142.4,0h1.24V-5.791H145.8V-6.9h-5.562v1.108H142.4Zm4.39,0h1.24V-6.9h-1.24Zm4.951,0h.928l2.749-6.9h-1.357l-1.851,4.888L150.347-6.9h-1.372Zm3.184,0h1.353l.537-1.5h2.681l.532,1.5h1.338l-2.749-6.9h-.928Zm2.31-2.559.923-2.52.918,2.52Z" transform="translate(0.522 23.701)" fill="#5151fc"/>
    <path id="Path_153170" data-name="Path 153170" d="M-1292.679-32.9" transform="translate(1293.157 137.196)" fill="none" stroke="#5151fc" stroke-miterlimit="10" stroke-width="0.5"/>
    <line id="Line_7910" data-name="Line 7910" x2="938.978" transform="translate(-0.5 0.694)" fill="none" stroke="#5151fc" stroke-miterlimit="10" stroke-width="0.5"/>
    <rect id="Rectangle_50" data-name="Rectangle 50" width="938" height="104.4" transform="translate(0.278 0.894)" fill="none"/>
    <g id="Group_24462" data-name="Group 24462" transform="translate(1304.547 159.196)">
      <g id="Group_24461" data-name="Group 24461">
        <g id="Group_24460" data-name="Group 24460" clip-path="url(#clip-path)">
          <g id="Group_24459" data-name="Group 24459">
            <g id="Group_24458" data-name="Group 24458">
              <g id="Group_24457" data-name="Group 24457" clip-path="url(#clip-path-2)">
                <g id="Group_24456" data-name="Group 24456">
                  <g id="New_Symbol" data-name="New Symbol">
                    <circle id="Ellipse_33592" data-name="Ellipse 33592" cx="5.49" cy="5.49" r="5.49" transform="translate(-1056.064 -103.074)" fill="#fff" stroke="#66f" stroke-miterlimit="10" stroke-width="0.75"/>
                    <rect id="Rectangle_19344" data-name="Rectangle 19344" width="3.24" height="6.57" transform="translate(-1051.924 -100.914)" fill="none"/>
                    <path id="Path_161571" data-name="Path 161571" d="M.552,0h.9V-1.606c0-.967.453-1.37.887-1.37a.742.742,0,0,1,.415.129l.423-.761a.978.978,0,0,0-.7-.274,1.082,1.082,0,0,0-1.02.719V-3.8H.552Z" transform="translate(-1051.958 -95.48)" fill="#5151fc"/>
                  </g>
                </g>
              </g>
            </g>
          </g>
        </g>
      </g>
    </g>
    <g id="Group_24469" data-name="Group 24469" transform="translate(1304.547 159.196)">
      <g id="Group_24468" data-name="Group 24468">
        <g id="Group_24467" data-name="Group 24467" clip-path="url(#clip-path-3)">
          <g id="Group_24466" data-name="Group 24466">
            <g id="Group_24465" data-name="Group 24465">
              <g id="Group_24464" data-name="Group 24464" clip-path="url(#clip-path-4)">
                <g id="Group_24463" data-name="Group 24463">
                  <circle id="Ellipse_33593" data-name="Ellipse 33593" cx="5.49" cy="5.49" r="5.49" transform="translate(-1056.052 -80.945)" fill="#5151fc" stroke="#fff" stroke-miterlimit="10" stroke-width="0.75"/>
                  <rect id="Rectangle_19345" data-name="Rectangle 19345" width="3.24" height="6.57" transform="translate(-1051.552 -78.245)" fill="none"/>
                  <path id="Path_161572" data-name="Path 161572" d="M.529-4.522H1.5v-.856H.529ZM.552,0h.921V-3.8H.552Z" transform="translate(-1051.566 -72.817)" fill="#fff"/>
                </g>
              </g>
            </g>
          </g>
        </g>
      </g>
    </g>
    <g id="Group_25101" data-name="Group 25101" transform="translate(1293.157 93.196)">
      <path id="Path_161570" data-name="Path 161570" d="M3.74.1A3.13,3.13,0,0,0,6.758-1.89L5.61-2.358A1.815,1.815,0,0,1,3.74-1.079c-1.479,0-2.109-1.05-2.109-2.422A2.046,2.046,0,0,1,3.721-5.83a1.734,1.734,0,0,1,1.87,1.26l1.157-.459A3.14,3.14,0,0,0,3.73-7.012,3.237,3.237,0,0,0,.4-3.452,3.235,3.235,0,0,0,3.74.1ZM7.612,0H8.765V-2.061c0-1.24.581-1.758,1.138-1.758a.952.952,0,0,1,.532.166l.542-.977a1.254,1.254,0,0,0-.894-.352,1.388,1.388,0,0,0-1.309.923v-.82H7.612ZM13.4.1a2.549,2.549,0,0,0,2-.879l-.82-.718a1.481,1.481,0,0,1-1.172.518,1.127,1.127,0,0,1-1.221-1.069h3.35a1.94,1.94,0,0,0,.044-.469A2.232,2.232,0,0,0,13.325-4.98a2.36,2.36,0,0,0-2.393,2.559A2.353,2.353,0,0,0,13.4.1ZM12.192-2.91c.112-.61.42-1.069,1.123-1.069a1.055,1.055,0,0,1,1.1,1.069Zm4.4,5.049H17.8V-.488A1.761,1.761,0,0,0,19.194.1c1.348,0,2.09-1.187,2.09-2.539S20.542-4.98,19.175-4.98A1.713,1.713,0,0,0,17.8-4.39v-.488H16.592ZM18.882-1c-.815,0-1.187-.62-1.187-1.44s.371-1.47,1.187-1.47,1.191.649,1.191,1.47S19.7-1,18.882-1Zm3.428,3.14h1.211V-.488A1.761,1.761,0,0,0,24.912.1C26.26.1,27-1.089,27-2.441S26.26-4.98,24.893-4.98a1.713,1.713,0,0,0-1.372.591v-.488H22.31ZM24.6-1c-.815,0-1.187-.62-1.187-1.44s.371-1.47,1.187-1.47,1.191.649,1.191,1.47S25.42-1,24.6-1ZM30.059.1a2.461,2.461,0,0,0,2.5-2.549,2.448,2.448,0,0,0-2.5-2.529,2.448,2.448,0,0,0-2.5,2.529A2.461,2.461,0,0,0,30.059.1Zm0-1.025c-.9,0-1.26-.723-1.26-1.523s.361-1.5,1.26-1.5,1.26.7,1.26,1.5S30.962-.928,30.059-.928Z" transform="translate(-1055.635 -50.483)"/>
      <path id="Path_161569" data-name="Path 161569" d="M.889,0H5.078V-1.172H2.129V-6.9H.889Zm6.5.1a1.735,1.735,0,0,0,1.44-.669V0h1.211V-4.878H8.828v2.2c0,1.411-.571,1.7-1.128,1.7-.723,0-.884-.488-.884-1.289V-4.878H5.61V-2.31C5.61-.84,6.157.1,7.388.1Zm6.089,0a2.461,2.461,0,0,0,2.5-2.549,2.448,2.448,0,0,0-2.5-2.529,2.448,2.448,0,0,0-2.5,2.529A2.461,2.461,0,0,0,13.477.1Zm0-1.025c-.9,0-1.26-.723-1.26-1.523s.361-1.5,1.26-1.5,1.26.7,1.26,1.5S14.38-.928,13.477-.928Zm5.7.166c-.869-.107-1.47-.117-1.47-.518a.286.286,0,0,1,.142-.259,2.3,2.3,0,0,0,.928.19A1.839,1.839,0,0,0,20.757-3.13a1.725,1.725,0,0,0-.21-.85l.708-.571-.62-.757-.747.64a2.212,2.212,0,0,0-1.152-.312,1.877,1.877,0,0,0-2,1.792,1.747,1.747,0,0,0,.405,1.123,1.267,1.267,0,0,0-.454,1.006,1.079,1.079,0,0,0,.479.962l-.508.459a.907.907,0,0,0-.02.21c0,1,.84,1.738,2.28,1.738,1.211,0,2.158-.527,2.158-1.631S20.1-.64,19.175-.762Zm-.4-3.3a.781.781,0,0,1,.8.879.768.768,0,0,1-.8.859.777.777,0,0,1-.811-.859A.791.791,0,0,1,18.774-4.058Zm.151,5.43c-.7,0-1.221-.254-1.289-.771l.249-.41a8.156,8.156,0,0,0,.869.132c.771.088,1.191.137,1.191.5S19.546,1.372,18.926,1.372ZM22.075,0h1.211V-2.471c0-.811.361-1.431,1.123-1.431.718,0,.879.522.879,1.123V0H26.5V-2.93A1.826,1.826,0,0,0,24.7-4.98a1.812,1.812,0,0,0-1.411.669V-6.9H22.075Zm5.669-5.8h1.24V-6.9h-1.24ZM27.773,0h1.182V-4.878H27.773ZM35-.762c-.869-.107-1.47-.117-1.47-.518a.286.286,0,0,1,.142-.259,2.3,2.3,0,0,0,.928.19A1.839,1.839,0,0,0,36.587-3.13a1.725,1.725,0,0,0-.21-.85l.708-.571-.62-.757-.747.64a2.212,2.212,0,0,0-1.152-.312,1.877,1.877,0,0,0-2,1.792,1.747,1.747,0,0,0,.405,1.123,1.267,1.267,0,0,0-.454,1.006,1.079,1.079,0,0,0,.479.962l-.508.459a.907.907,0,0,0-.02.21c0,1,.84,1.738,2.28,1.738,1.211,0,2.158-.527,2.158-1.631S35.928-.64,35-.762Zm-.4-3.3a.781.781,0,0,1,.8.879.768.768,0,0,1-.8.859.777.777,0,0,1-.811-.859A.791.791,0,0,1,34.6-4.058Zm.151,5.43c-.7,0-1.221-.254-1.289-.771l.249-.41a8.156,8.156,0,0,0,.869.132c.771.088,1.191.137,1.191.5S35.376,1.372,34.756,1.372ZM39.927.1a2.549,2.549,0,0,0,2-.879l-.82-.718a1.481,1.481,0,0,1-1.172.518,1.127,1.127,0,0,1-1.221-1.069h3.35a1.94,1.94,0,0,0,.044-.469A2.232,2.232,0,0,0,39.849-4.98a2.36,2.36,0,0,0-2.393,2.559A2.353,2.353,0,0,0,39.927.1ZM38.716-2.91c.112-.61.42-1.069,1.123-1.069a1.055,1.055,0,0,1,1.1,1.069ZM45.146.1a2.461,2.461,0,0,0,2.5-2.549,2.448,2.448,0,0,0-2.5-2.529,2.448,2.448,0,0,0-2.5,2.529A2.461,2.461,0,0,0,45.146.1Zm0-1.025c-.9,0-1.26-.723-1.26-1.523s.361-1.5,1.26-1.5,1.26.7,1.26,1.5S46.05-.928,45.146-.928Zm5.7.166c-.869-.107-1.47-.117-1.47-.518a.286.286,0,0,1,.142-.259,2.3,2.3,0,0,0,.928.19A1.839,1.839,0,0,0,52.427-3.13a1.725,1.725,0,0,0-.21-.85l.708-.571-.62-.757-.747.64a2.212,2.212,0,0,0-1.152-.312,1.877,1.877,0,0,0-2,1.792,1.747,1.747,0,0,0,.405,1.123,1.267,1.267,0,0,0-.454,1.006,1.079,1.079,0,0,0,.479.962l-.508.459a.907.907,0,0,0-.02.21c0,1,.84,1.738,2.28,1.738,1.211,0,2.158-.527,2.158-1.631S51.768-.64,50.845-.762Zm-.4-3.3a.781.781,0,0,1,.8.879.768.768,0,0,1-.8.859.777.777,0,0,1-.811-.859A.791.791,0,0,1,50.444-4.058Zm.151,5.43c-.7,0-1.221-.254-1.289-.771l.249-.41a8.156,8.156,0,0,0,.869.132c.771.088,1.191.137,1.191.5S51.216,1.372,50.6,1.372ZM53.735,0h1.152V-2.061c0-1.24.581-1.758,1.138-1.758a.952.952,0,0,1,.532.166l.542-.977a1.254,1.254,0,0,0-.894-.352,1.388,1.388,0,0,0-1.309.923v-.82H53.735Zm5.371.1a1.7,1.7,0,0,0,1.519-.8L60.7,0h.981V-2.959A1.932,1.932,0,0,0,59.575-4.98a2.387,2.387,0,0,0-2.051,1.069l.913.659a1.313,1.313,0,0,1,1.147-.688.915.915,0,0,1,.962,1.03h-1.27c-1.094,0-1.943.352-1.943,1.411A1.6,1.6,0,0,0,59.106.1Zm.171-1.006c-.464,0-.723-.229-.723-.552s.249-.591.791-.591h1.2A1.254,1.254,0,0,1,59.277-.908ZM63.105,0h1.182V-3.882h1.538V0h1.152V-4.878h-2.69c0-.664.22-1.04.9-1.04a1.261,1.261,0,0,1,1.011.43l.63-.913A2.176,2.176,0,0,0,65.2-7a1.9,1.9,0,0,0-2.09,2.124h-.762v1h.762ZM70.3.1a2.093,2.093,0,0,0,2.051-1.445l-1.084-.41a1.006,1.006,0,0,1-.977.776c-.83,0-1.143-.708-1.143-1.45s.322-1.47,1.143-1.47a1.01,1.01,0,0,1,.977.8L72.4-3.54a2.123,2.123,0,0,0-2.109-1.44,2.35,2.35,0,0,0-2.354,2.549A2.334,2.334,0,0,0,70.3.1Zm2.939-5.9h1.24V-6.9h-1.24ZM73.267,0h1.182V-4.878H73.267Zm5.991.1a5.1,5.1,0,0,0,.889-.1V-1a2.483,2.483,0,0,1-.327.029c-.239,0-.391-.1-.391-.327V-6.9H78.237V-.972C78.237-.112,78.7.1,79.258.1Zm3.848,0a2.461,2.461,0,0,0,2.5-2.549,2.448,2.448,0,0,0-2.5-2.529,2.448,2.448,0,0,0-2.5,2.529A2.461,2.461,0,0,0,83.105.1Zm0-1.025c-.9,0-1.26-.723-1.26-1.523s.361-1.5,1.26-1.5,1.26.7,1.26,1.5S84.009-.928,83.105-.928ZM88.506.1a2.093,2.093,0,0,0,2.051-1.445l-1.084-.41a1.006,1.006,0,0,1-.977.776c-.83,0-1.143-.708-1.143-1.45S87.676-3.9,88.5-3.9a1.01,1.01,0,0,1,.977.8l1.133-.439A2.123,2.123,0,0,0,88.5-4.98a2.35,2.35,0,0,0-2.354,2.549A2.334,2.334,0,0,0,88.506.1Zm4.282,0a1.7,1.7,0,0,0,1.519-.8l.078.7h.981V-2.959A1.932,1.932,0,0,0,93.257-4.98a2.387,2.387,0,0,0-2.051,1.069l.913.659a1.313,1.313,0,0,1,1.147-.688.915.915,0,0,1,.962,1.03h-1.27c-1.094,0-1.943.352-1.943,1.411A1.6,1.6,0,0,0,92.788.1Zm.171-1.006c-.464,0-.723-.229-.723-.552s.249-.591.791-.591h1.2A1.254,1.254,0,0,1,92.959-.908ZM97.627.1a5.1,5.1,0,0,0,.889-.1V-1a2.483,2.483,0,0,1-.327.029c-.239,0-.391-.1-.391-.327V-6.9H96.606V-.972C96.606-.112,97.065.1,97.627.1ZM99.4-5.8h1.24V-6.9H99.4ZM99.434,0h1.182V-4.878H99.434Zm6.45-4.878h-4.16v1h2.617L101.582-.791V0h4.3V-1h-2.646l2.646-3.027Zm4.932,0h-4.16v1h2.617L106.514-.791V0h4.3V-1h-2.646l2.646-3.027ZM113.257.1a1.7,1.7,0,0,0,1.519-.8l.078.7h.981V-2.959a1.932,1.932,0,0,0-2.109-2.021,2.387,2.387,0,0,0-2.051,1.069l.913.659a1.313,1.313,0,0,1,1.147-.688.915.915,0,0,1,.962,1.03h-1.27c-1.094,0-1.943.352-1.943,1.411A1.6,1.6,0,0,0,113.257.1Zm.171-1.006c-.464,0-.723-.229-.723-.552s.249-.591.791-.591h1.2A1.254,1.254,0,0,1,113.428-.908ZM119.736.1c1.353,0,2.09-1.187,2.09-2.539s-.737-2.539-2.109-2.539a1.713,1.713,0,0,0-1.372.591V-6.9h-1.23V0h1.23V-.488A1.768,1.768,0,0,0,119.736.1Zm-.3-1.1c-.82,0-1.2-.62-1.2-1.44s.381-1.46,1.2-1.46,1.187.649,1.187,1.46S120.259-1,119.438-1Zm3.379-4.8h1.24V-6.9h-1.24Zm.029,5.8h1.182V-4.878h-1.182Zm3.589.1a5.1,5.1,0,0,0,.889-.1V-1A2.483,2.483,0,0,1,127-.972c-.239,0-.391-.1-.391-.327V-6.9h-1.191V-.972C125.415-.112,125.874.1,126.436.1Zm3.838,0a2.549,2.549,0,0,0,2-.879l-.82-.718a1.481,1.481,0,0,1-1.172.518,1.127,1.127,0,0,1-1.221-1.069h3.35a1.94,1.94,0,0,0,.044-.469A2.232,2.232,0,0,0,130.2-4.98,2.36,2.36,0,0,0,127.8-2.422,2.353,2.353,0,0,0,130.273.1ZM129.063-2.91c.112-.61.42-1.069,1.123-1.069a1.055,1.055,0,0,1,1.1,1.069ZM137.324.1a1.708,1.708,0,0,0,1.9-1.626c0-1.792-2.48-1.353-2.48-2.09,0-.229.239-.42.63-.42a1.055,1.055,0,0,1,.967.62l.923-.5a2.033,2.033,0,0,0-1.851-1.06c-.942,0-1.812.488-1.812,1.519,0,1.724,2.451,1.172,2.451,1.992,0,.259-.239.581-.791.581a1.068,1.068,0,0,1-1.04-.8l-.947.42A2.092,2.092,0,0,0,137.324.1Zm4.561,0a1.735,1.735,0,0,0,1.44-.669V0h1.211V-4.878h-1.211v2.2c0,1.411-.571,1.7-1.128,1.7-.723,0-.884-.488-.884-1.289V-4.878h-1.206V-2.31C140.107-.84,140.654.1,141.885.1Zm6.47-.1h1.2V-2.681a1.074,1.074,0,0,1,1.03-1.191c.61,0,.771.483.771,1.074V0h1.211V-2.681a1.07,1.07,0,0,1,1.021-1.191c.615,0,.786.493.786,1.094V0h1.211V-2.93a1.838,1.838,0,0,0-1.8-2.051,1.846,1.846,0,0,0-1.616.859A1.493,1.493,0,0,0,150.8-4.98a1.484,1.484,0,0,0-1.24.61v-.508h-1.2ZM158.2.1a1.7,1.7,0,0,0,1.519-.8l.078.7h.981V-2.959a1.932,1.932,0,0,0-2.109-2.021,2.387,2.387,0,0,0-2.051,1.069l.913.659a1.313,1.313,0,0,1,1.147-.688.915.915,0,0,1,.962,1.03h-1.27c-1.094,0-1.943.352-1.943,1.411A1.6,1.6,0,0,0,158.2.1Zm.171-1.006c-.464,0-.723-.229-.723-.552s.249-.591.791-.591h1.2A1.254,1.254,0,0,1,158.369-.908Zm3.687,3.047h1.211V-.488A1.761,1.761,0,0,0,164.658.1c1.348,0,2.09-1.187,2.09-2.539s-.742-2.539-2.109-2.539a1.713,1.713,0,0,0-1.372.591v-.488h-1.211ZM164.346-1c-.815,0-1.187-.62-1.187-1.44s.371-1.47,1.187-1.47,1.191.649,1.191,1.47S165.166-1,164.346-1Zm3.428,3.14h1.211V-.488A1.761,1.761,0,0,0,170.376.1c1.348,0,2.09-1.187,2.09-2.539s-.742-2.539-2.109-2.539a1.713,1.713,0,0,0-1.372.591v-.488h-1.211ZM170.063-1c-.815,0-1.187-.62-1.187-1.44s.371-1.47,1.187-1.47,1.191.649,1.191,1.47S170.884-1,170.063-1ZM174.814.1a1.7,1.7,0,0,0,1.519-.8l.078.7h.981V-2.959a1.932,1.932,0,0,0-2.109-2.021,2.387,2.387,0,0,0-2.051,1.069l.913.659a1.313,1.313,0,0,1,1.147-.688.915.915,0,0,1,.962,1.03h-1.27c-1.094,0-1.943.352-1.943,1.411A1.6,1.6,0,0,0,174.814.1Zm.171-1.006c-.464,0-.723-.229-.723-.552s.249-.591.791-.591h1.2A1.254,1.254,0,0,1,174.985-.908Z" transform="translate(-1006.157 -50.483)"/>
    </g>
    <g id="Rectangle_20152" data-name="Rectangle 20152" transform="translate(234 32)" fill="none" stroke="#00bfd3" stroke-width="1">
      <rect width="40" height="16" rx="2" stroke="none"/>
      <rect x="0.5" y="0.5" width="39" height="15" rx="1.5" fill="none"/>
    </g>
  </g>
</svg>
