<svg xmlns="http://www.w3.org/2000/svg" viewBox="0 0 938.92558 104.36145"><g id="elements"><rect id="legend-bg-transparent" x="0.50001" y="0.35189" width="938" height="110" fill="none"/><g id="Testo_non_dubitativo" data-name="Testo non dubitativo"><g style="isolation:isolate"><path d="M476.76074,17.56088h-2.16308v-1.1084h5.56152v1.1084H478.001v5.791h-1.24024Z" fill="#5151fc"/><path d="M481.15039,16.45248h4.58985v1.1377h-3.34961v1.74316h3.12011V20.471h-3.12011V22.18h3.34961v1.17187h-4.58985Z" fill="#5151fc"/><path d="M486.56055,21.40365l1.23047-.3125a1.31543,1.31543,0,0,0,1.43066,1.24024c.73731,0,1.1377-.39063,1.1377-.87891,0-1.43066-3.33985-.95215-3.33985-3.19824a1.95086,1.95086,0,0,1,2.15332-1.9043,2.3094,2.3094,0,0,1,2.09961,1.21094l-1.03027.62988a1.24937,1.24937,0,0,0-1.11328-.7373.78568.78568,0,0,0-.86914.7373c0,1.29883,3.33984.85938,3.33984,3.14942A2.16892,2.16892,0,0,1,489.20215,23.43,2.50716,2.50716,0,0,1,486.56055,21.40365Z" fill="#5151fc"/><path d="M494.13379,17.56088h-2.16308v-1.1084h5.56152v1.1084H495.374v5.791h-1.24024Z" fill="#5151fc"/><path d="M497.84473,19.89975a3.33688,3.33688,0,1,1,6.66015,0,3.33688,3.33688,0,1,1-6.66015,0Zm5.35156,0c0-1.29883-.542-2.44629-2.02148-2.44629s-2.02149,1.14746-2.02149,2.44629c0,1.30371.542,2.45117,2.02149,2.45117S503.19629,21.20346,503.19629,19.89975Z" fill="#5151fc"/><path d="M508.19629,16.45248h1.23047l2.90039,4.8291v-4.8291h1.19141v6.89941h-1.24024L509.3877,18.513v4.83886h-1.19141Z" fill="#5151fc"/><path d="M514.80762,19.89975a3.33688,3.33688,0,1,1,6.66016,0,3.33688,3.33688,0,1,1-6.66016,0Zm5.35156,0c0-1.29883-.542-2.44629-2.02148-2.44629s-2.02149,1.14746-2.02149,2.44629c0,1.30371.542,2.45117,2.02149,2.45117S520.15918,21.20346,520.15918,19.89975Z" fill="#5151fc"/><path d="M522.75684,16.45248h1.23047l2.90039,4.8291v-4.8291h1.1914v6.89941h-1.24023L523.94824,18.513v4.83886h-1.1914Z" fill="#5151fc"/><path d="M532.25879,16.45248h2.002c2.34864,0,3.58887,1.25977,3.58887,3.501,0,2.14843-1.2793,3.39843-3.59863,3.39843h-1.99219Zm1.87012,5.76172c1.52344,0,2.48047-.59082,2.48047-2.31445,0-1.63575-.66895-2.30957-2.36817-2.30957H533.499v4.624Z" fill="#5151fc"/><path d="M538.98242,20.66146v-4.209h1.23536v4.06738c0,1.11328.293,1.7334,1.40136,1.7334,1.11328,0,1.40137-.62012,1.40137-1.7334V16.45248h1.24023v4.16016c0,1.73828-.791,2.83691-2.6416,2.83691S538.98242,22.35092,538.98242,20.66146Z" fill="#5151fc"/><path d="M545.877,16.45248h2.39257c1.04981,0,2.207.47852,2.207,1.86035a1.55824,1.55824,0,0,1-.7666,1.34766,1.91652,1.91652,0,0,1,1.1084,1.68945,2.066,2.066,0,0,1-2.251,2.002H545.877Zm2.50976,2.77832c.4834,0,.95215-.1709.95215-.84961,0-.53711-.459-.81055-1.04981-.81055h-1.17187V19.2308Zm.2002,2.93945c.63964,0,1.01074-.30761,1.01074-.957a.96256.96256,0,0,0-1.05957-.91308h-1.4209v1.87011Z" fill="#5151fc"/><path d="M552.09766,16.45248h1.24023v6.89941h-1.24023Z" fill="#5151fc"/><path d="M556.48731,17.56088h-2.16309v-1.1084h5.56152v1.1084h-2.1582v5.791h-1.24023Z" fill="#5151fc"/><path d="M562.16113,16.45248h.92774l2.749,6.89941H564.5l-.53222-1.499h-2.68067l-.53711,1.499h-1.35254Zm1.38672,4.34082-.918-2.51953L561.707,20.7933Z" fill="#5151fc"/><path d="M567.50781,17.56088h-2.16308v-1.1084h5.56152v1.1084h-2.1582v5.791h-1.24024Z" fill="#5151fc"/><path d="M571.89746,16.45248h1.24024v6.89941h-1.24024Z" fill="#5151fc"/><path d="M574.085,16.45248H575.457l1.86035,4.8877,1.85059-4.8877h1.35742l-2.749,6.89941h-.92774Z" fill="#5151fc"/><path d="M580.73535,19.89975a3.33688,3.33688,0,1,1,6.66016,0,3.33688,3.33688,0,1,1-6.66016,0Zm5.35157,0c0-1.29883-.542-2.44629-2.02149-2.44629s-2.02148,1.14746-2.02148,2.44629c0,1.30371.542,2.45117,2.02148,2.45117S586.08692,21.20346,586.08692,19.89975Z" fill="#5151fc"/></g></g><rect id="Rectangle_19" data-name="Rectangle 19" x="474.50001" y="34.36397" width="20" height="10" fill="#f7f8f8"/><line id="Line_63" data-name="Line 63" x1="474.50001" y1="39.36397" x2="494.50001" y2="39.36397" fill="none" stroke="#333" stroke-linecap="square" stroke-miterlimit="10" stroke-dasharray="0 4"/><g id="Testo_neutro" data-name="Testo neutro"><g style="isolation:isolate"><path d="M507.12207,36.10434H504.793v-.63965h5.43945v.63965h-2.3291V42.3641h-.78125Z"/><path d="M510.01758,39.952c0-1.30859.70313-2.53418,2.11914-2.53418,1.582,0,2.07031,1.25489,2.07031,2.37793,0,.127-.01465.28809-.02441.376h-3.39844A1.44421,1.44421,0,0,0,512.21,41.79281a1.70464,1.70464,0,0,0,1.37207-.52246l.498.40039a2.3918,2.3918,0,0,1-1.86523.76172A2.21112,2.21112,0,0,1,510.01758,39.952Zm3.49121-.376c-.01953-.78125-.37109-1.55762-1.37207-1.55762-.89355,0-1.31348.72754-1.35254,1.55762Z"/><path d="M514.99317,41.2557l.61523-.31738a1.23741,1.23741,0,0,0,1.21582.92773c.55176,0,.957-.27832.957-.80566,0-1.31348-2.59277-.66894-2.59277-2.32422a1.39215,1.39215,0,0,1,1.54785-1.35254,1.733,1.733,0,0,1,1.60156.97168l-.53711.30762a1.14983,1.14983,0,0,0-1.08886-.68848c-.52735,0-.8545.27344-.8545.67383,0,1.123,2.63184.53223,2.63184,2.32422a1.52123,1.52123,0,0,1-1.6748,1.48926A1.8928,1.8928,0,0,1,514.99317,41.2557Z"/><path d="M519.876,41.07016V38.08187h-.78125v-.5957h.78613V36.38754l.72266-.68359v1.78222h1.23535v.5957h-1.23535V41.075c0,.53711.26367.78613.62011.78613a1.16368,1.16368,0,0,0,.48829-.12207v.625a1.966,1.966,0,0,1-.6543.09766C520.19336,42.46176,519.876,41.90512,519.876,41.07016Z"/><path d="M522.54688,39.91293a2.32135,2.32135,0,1,1,4.624,0,2.323,2.323,0,1,1-4.624,0Zm3.88672,0c0-.97656-.48829-1.92383-1.57227-1.92383s-1.582.94727-1.582,1.92383c0,.98633.498,1.94336,1.57226,1.94336C525.94531,41.85629,526.4336,40.87973,526.4336,39.91293Z"/><path d="M531.05274,37.48617h.72754v.84961a1.75163,1.75163,0,0,1,1.57226-.9375c1.16211,0,1.63574.92774,1.63574,2.002V42.3641h-.72265V39.47348c0-.67383-.249-1.45508-1.1084-1.45508-.7666,0-1.377.60058-1.377,1.81152V42.3641h-.72754Z"/><path d="M536.14063,39.952c0-1.30859.70312-2.53418,2.11914-2.53418,1.582,0,2.07031,1.25489,2.07031,2.37793,0,.127-.01465.28809-.02441.376h-3.39844a1.44421,1.44421,0,0,0,1.42578,1.62109,1.70465,1.70465,0,0,0,1.37207-.52246l.49805.40039a2.39184,2.39184,0,0,1-1.86524.76172A2.21112,2.21112,0,0,1,536.14063,39.952Zm3.49121-.376c-.01953-.78125-.3711-1.55762-1.37207-1.55762-.89356,0-1.31348.72754-1.35254,1.55762Z"/><path d="M541.33106,40.3182v-2.832h.72754V40.367c0,.70313.19043,1.48926,1.02539,1.48926a1.56649,1.56649,0,0,0,1.45507-1.66992v-2.7002h.72266V42.3641h-.72266v-.82519a1.736,1.736,0,0,1-1.5332.93261C541.80469,42.47152,541.33106,41.534,541.33106,40.3182Z"/><path d="M547.083,41.07016V38.08187h-.78125v-.5957h.78613V36.38754l.72266-.68359v1.78222h1.23535v.5957h-1.23535V41.075c0,.53711.26367.78613.62012.78613a1.16368,1.16368,0,0,0,.48828-.12207v.625a1.966,1.966,0,0,1-.6543.09766C547.40039,42.46176,547.083,41.90512,547.083,41.07016Z"/><path d="M550.10547,37.48617h.72754v.86426a1.57166,1.57166,0,0,1,1.44043-.9668,1.26822,1.26822,0,0,1,.78613.25391l-.30761.62988a.88776.88776,0,0,0-.59571-.18555c-.83008,0-1.333.66895-1.333,1.84571V42.3641h-.71777Z"/><path d="M553.18653,39.91293a2.32135,2.32135,0,1,1,4.624,0,2.323,2.323,0,1,1-4.624,0Zm3.88671,0c0-.97656-.48828-1.92383-1.57226-1.92383s-1.582.94727-1.582,1.92383c0,.98633.498,1.94336,1.57226,1.94336C556.585,41.85629,557.07324,40.87973,557.07324,39.91293Z"/></g></g><rect id="Rectangle_20" data-name="Rectangle 20" x="474.50001" y="56.36397" width="20" height="10" fill="#f7f8f8"/><line id="Line_64" data-name="Line 64" x1="474.50001" y1="61.36397" x2="494.50001" y2="61.36397" fill="none" stroke="#333" stroke-miterlimit="10" stroke-width="0.5"/><g id="Testo_soggetto" data-name="Testo soggetto"><g style="isolation:isolate"><path d="M507.12207,58.10434H504.793v-.63965h5.43945v.63965h-2.3291V64.3641h-.78125Z"/><path d="M510.01758,61.952c0-1.30859.70313-2.53418,2.11914-2.53418,1.582,0,2.07031,1.25489,2.07031,2.37793,0,.127-.01465.28809-.02441.376h-3.39844A1.44421,1.44421,0,0,0,512.21,63.79281a1.70464,1.70464,0,0,0,1.37207-.52246l.498.40039a2.3918,2.3918,0,0,1-1.86523.76172A2.21112,2.21112,0,0,1,510.01758,61.952Zm3.49121-.376c-.01953-.78125-.37109-1.55762-1.37207-1.55762-.89355,0-1.31348.72754-1.35254,1.55762Z"/><path d="M514.99317,63.2557l.61523-.31738a1.23741,1.23741,0,0,0,1.21582.92773c.55176,0,.957-.27832.957-.80566,0-1.31348-2.59277-.66894-2.59277-2.32422a1.39215,1.39215,0,0,1,1.54785-1.35254,1.733,1.733,0,0,1,1.60156.97168l-.53711.30762a1.14983,1.14983,0,0,0-1.08886-.68848c-.52735,0-.8545.27344-.8545.67383,0,1.123,2.63184.53223,2.63184,2.32422a1.52123,1.52123,0,0,1-1.6748,1.48926A1.8928,1.8928,0,0,1,514.99317,63.2557Z"/><path d="M519.876,63.07016V60.08187h-.78125v-.5957h.78613V58.38754l.72266-.68359v1.78222h1.23535v.5957h-1.23535V63.075c0,.53711.26367.78613.62011.78613a1.16368,1.16368,0,0,0,.48829-.12207v.625a1.966,1.966,0,0,1-.6543.09766C520.19336,64.46176,519.876,63.90512,519.876,63.07016Z"/><path d="M522.54688,61.91293a2.32135,2.32135,0,1,1,4.624,0,2.323,2.323,0,1,1-4.624,0Zm3.88672,0c0-.97656-.48829-1.92383-1.57227-1.92383s-1.582.94727-1.582,1.92383c0,.98633.498,1.94336,1.57226,1.94336C525.94531,63.85629,526.4336,62.87973,526.4336,61.91293Z"/><path d="M530.584,63.2557l.61523-.31738a1.23741,1.23741,0,0,0,1.21582.92773c.55176,0,.957-.27832.957-.80566,0-1.31348-2.59277-.66894-2.59277-2.32422a1.39215,1.39215,0,0,1,1.54785-1.35254,1.733,1.733,0,0,1,1.60156.97168l-.53711.30762a1.14983,1.14983,0,0,0-1.08886-.68848c-.52735,0-.8545.27344-.8545.67383,0,1.123,2.63184.53223,2.63184,2.32422a1.52123,1.52123,0,0,1-1.6748,1.48926A1.8928,1.8928,0,0,1,530.584,63.2557Z"/><path d="M534.85156,61.91293a2.32135,2.32135,0,1,1,4.624,0,2.323,2.323,0,1,1-4.624,0Zm3.88672,0c0-.97656-.48828-1.92383-1.57226-1.92383s-1.582.94727-1.582,1.92383c0,.98633.498,1.94336,1.57226,1.94336C538.25,63.85629,538.73828,62.87973,538.73828,61.91293Z"/><path d="M544.48047,65.11605c0,1.00586-.92773,1.48438-1.95312,1.48438-1.26954,0-2.1045-.73242-2.1045-1.66016a1.288,1.288,0,0,1,.01465-.18554l.70313-.708a1.08167,1.08167,0,0,1-.62012-1.001.99789.99789,0,0,1,.35645-.80566,1.62544,1.62544,0,0,1-.41016-1.11328,1.70462,1.70462,0,0,1,1.82617-1.709,1.85524,1.85524,0,0,1,1.25977.4541l.73242-.66406.415.51758-.78614.62012a1.76144,1.76144,0,0,1,.18067.791,1.66123,1.66123,0,0,1-1.80176,1.67969,2.07919,2.07919,0,0,1-.918-.20508.46251.46251,0,0,0-.21.376c0,.50293.61035.64941,1.30371.74707C543.46,63.86605,544.48047,64.01254,544.48047,65.11605Zm-.64941.05372c0-.625-.74219-.64942-1.57715-.791a4.94884,4.94884,0,0,1-.58106-.12695l-.57617.70312c.00488.50293.542,1.001,1.48926,1.001C543.23047,65.9559,543.83106,65.702,543.83106,65.16977ZM541.209,61.11215a1.07688,1.07688,0,1,0,2.15332,0,1.07743,1.07743,0,1,0-2.15332,0Z"/><path d="M549.48047,65.11605c0,1.00586-.92773,1.48438-1.95312,1.48438-1.26954,0-2.1045-.73242-2.1045-1.66016a1.288,1.288,0,0,1,.01465-.18554l.70313-.708a1.08167,1.08167,0,0,1-.62012-1.001.99789.99789,0,0,1,.35645-.80566,1.62544,1.62544,0,0,1-.41016-1.11328,1.70462,1.70462,0,0,1,1.82617-1.709,1.85524,1.85524,0,0,1,1.25977.4541l.73242-.66406.415.51758-.78614.62012a1.76144,1.76144,0,0,1,.18067.791,1.66123,1.66123,0,0,1-1.80176,1.67969,2.07919,2.07919,0,0,1-.918-.20508.46251.46251,0,0,0-.21.376c0,.50293.61035.64941,1.30371.74707C548.46,63.86605,549.48047,64.01254,549.48047,65.11605Zm-.64941.05372c0-.625-.74219-.64942-1.57715-.791a4.94884,4.94884,0,0,1-.58106-.12695l-.57617.70312c.00488.50293.542,1.001,1.48926,1.001C548.23047,65.9559,548.83106,65.702,548.83106,65.16977ZM546.209,61.11215a1.07688,1.07688,0,1,0,2.15332,0,1.07743,1.07743,0,1,0-2.15332,0Z"/><path d="M550.33985,61.952c0-1.30859.70312-2.53418,2.11914-2.53418,1.582,0,2.07031,1.25489,2.07031,2.37793,0,.127-.01465.28809-.02442.376h-3.39843a1.44421,1.44421,0,0,0,1.42578,1.62109,1.70465,1.70465,0,0,0,1.37207-.52246l.498.40039a2.39184,2.39184,0,0,1-1.86524.76172A2.21112,2.21112,0,0,1,550.33985,61.952Zm3.49121-.376c-.01953-.78125-.3711-1.55762-1.37207-1.55762-.89356,0-1.31348.72754-1.35254,1.55762Z"/><path d="M555.96,63.07016V60.08187h-.78125v-.5957h.78614V58.38754l.72265-.68359v1.78222h1.23535v.5957H556.6875V63.075c0,.53711.26367.78613.62012.78613a1.16368,1.16368,0,0,0,.48828-.12207v.625a1.96594,1.96594,0,0,1-.6543.09766C556.27735,64.46176,555.96,63.90512,555.96,63.07016Z"/><path d="M559.2461,63.07016V60.08187h-.78125v-.5957h.78613V58.38754l.72265-.68359v1.78222H561.209v.5957h-1.23536V63.075c0,.53711.26368.78613.62012.78613a1.16364,1.16364,0,0,0,.48828-.12207v.625a1.96592,1.96592,0,0,1-.65429.09766C559.56348,64.46176,559.2461,63.90512,559.2461,63.07016Z"/><path d="M561.917,61.91293a2.32135,2.32135,0,1,1,4.624,0,2.323,2.323,0,1,1-4.624,0Zm3.88672,0c0-.97656-.48828-1.92383-1.57226-1.92383s-1.582.94727-1.582,1.92383c0,.98633.498,1.94336,1.57226,1.94336C565.31543,63.85629,565.80371,62.87973,565.80371,61.91293Z"/></g></g><g id="Stili"><g style="isolation:isolate"><path d="M237.71973,21.40365l1.23047-.3125a1.31543,1.31543,0,0,0,1.43066,1.24024c.73731,0,1.1377-.39063,1.1377-.87891,0-1.43066-3.33985-.95215-3.33985-3.19824a1.95086,1.95086,0,0,1,2.15332-1.9043,2.3094,2.3094,0,0,1,2.09961,1.21094l-1.03027.62988a1.24937,1.24937,0,0,0-1.11328-.7373.78568.78568,0,0,0-.86914.7373c0,1.29883,3.33984.85938,3.33984,3.14942A2.16892,2.16892,0,0,1,240.36133,23.43,2.50716,2.50716,0,0,1,237.71973,21.40365Z" fill="#5151fc"/><path d="M245.293,17.56088h-2.16309v-1.1084h5.56153v1.1084h-2.1582v5.791H245.293Z" fill="#5151fc"/><path d="M249.68262,16.45248h1.24023v6.89941h-1.24023Z" fill="#5151fc"/><path d="M252.7002,16.45248h1.24023V22.18h2.94922v1.17187H252.7002Z" fill="#5151fc"/><path d="M257.89063,16.45248h1.24023v6.89941h-1.24023Z" fill="#5151fc"/></g></g><rect id="Rectangle_16" data-name="Rectangle 16" x="237.50002" y="34.36397" width="20" height="10" fill="#f7f8f8"/><line id="Line_57" data-name="Line 57" x1="241.55702" y1="37.09786" x2="239.44402" y2="41.62986" fill="none" stroke="#333" stroke-miterlimit="10" stroke-width="0.5"/><line id="Line_58" data-name="Line 58" x1="248.55702" y1="37.09786" x2="246.44402" y2="41.62986" fill="none" stroke="#333" stroke-miterlimit="10" stroke-width="0.5"/><line id="Line_59" data-name="Line 59" x1="255.55702" y1="37.09786" x2="253.44402" y2="41.62986" fill="none" stroke="#333" stroke-miterlimit="10" stroke-width="0.5"/><line id="Line_60" data-name="Line 60" x1="237.50002" y1="39.36397" x2="243.50002" y2="39.36397" fill="none" stroke="#333" stroke-miterlimit="10" stroke-width="0.5"/><line id="Line_61" data-name="Line 61" x1="244.50002" y1="39.36397" x2="250.50002" y2="39.36397" fill="none" stroke="#333" stroke-miterlimit="10" stroke-width="0.5"/><line id="Line_62" data-name="Line 62" x1="251.50002" y1="39.36397" x2="257.50002" y2="39.36397" fill="none" stroke="#333" stroke-miterlimit="10" stroke-width="0.5"/><g id="Negazione"><g style="isolation:isolate"><path d="M268.53516,35.46469h1.11816l2.96875,6.0791v-6.0791h.7666V42.3641h-1.13281l-2.94922-6.08887V42.3641h-.77148Z"/><path d="M274.8584,39.952c0-1.30859.70313-2.53418,2.11914-2.53418,1.582,0,2.07031,1.25489,2.07031,2.37793,0,.127-.01464.28809-.02441.376H275.625a1.44421,1.44421,0,0,0,1.42578,1.62109,1.70464,1.70464,0,0,0,1.37207-.52246l.49805.40039a2.3918,2.3918,0,0,1-1.86523.76172A2.21112,2.21112,0,0,1,274.8584,39.952Zm3.49121-.376c-.01953-.78125-.37109-1.55762-1.37207-1.55762-.89355,0-1.31348.72754-1.35254,1.55762Z"/><path d="M284.06738,43.11605c0,1.00586-.92773,1.48438-1.95312,1.48438-1.26953,0-2.10449-.73242-2.10449-1.66016a1.28653,1.28653,0,0,1,.01465-.18554l.70312-.708a1.08167,1.08167,0,0,1-.62012-1.001.99792.99792,0,0,1,.35645-.80566,1.62544,1.62544,0,0,1-.41016-1.11328,1.70462,1.70462,0,0,1,1.82617-1.709,1.85522,1.85522,0,0,1,1.25977.4541l.73242-.66406.415.51758-.78613.62012a1.76143,1.76143,0,0,1,.18066.791,1.66123,1.66123,0,0,1-1.80176,1.67969,2.07911,2.07911,0,0,1-.918-.20508.46249.46249,0,0,0-.21.376c0,.50293.61035.64941,1.30371.74707C283.04688,41.86605,284.06738,42.01254,284.06738,43.11605Zm-.64941.05372c0-.625-.74219-.64942-1.57715-.791a4.94868,4.94868,0,0,1-.58105-.12695l-.57617.70312c.00488.50293.542,1.001,1.48925,1.001C282.81738,43.9559,283.418,43.702,283.418,43.16977Zm-2.62207-4.05762a1.07688,1.07688,0,1,0,2.15332,0,1.07743,1.07743,0,1,0-2.15332,0Z"/><path d="M284.80957,41.00668c0-.97656.76172-1.43066,2.14844-1.43066h1.11328c0-.918-.3125-1.55762-1.19629-1.55762a1.60535,1.60535,0,0,0-1.35254.7373l-.53222-.415a2.1639,2.1639,0,0,1,1.84082-.957,1.79669,1.79669,0,0,1,1.90918,1.98731V42.3641h-.62012l-.01465-.94238a1.82116,1.82116,0,0,1-1.71387,1.04A1.43023,1.43023,0,0,1,284.80957,41.00668Zm3.26172-.87891h-1.04492c-.9668,0-1.46484.249-1.46484.89844,0,.58106.40527.82031.91308.82031A1.68294,1.68294,0,0,0,288.07129,40.12777Z"/><path d="M293.59863,38.08676,290.669,41.7391h2.92968v.625h-3.83789v-.55176l2.9834-3.73047h-2.84179v-.5957h3.69628Z"/><path d="M294.75586,35.46469h.83008v.9375h-.83008Zm.05371,2.02148h.72266V42.3641h-.72266Z"/><path d="M296.78223,39.91293a2.32135,2.32135,0,1,1,4.624,0,2.323,2.323,0,1,1-4.624,0Zm3.88672,0c0-.97656-.48828-1.92383-1.57227-1.92383s-1.582.94727-1.582,1.92383c0,.98633.498,1.94336,1.57227,1.94336C300.18067,41.85629,300.669,40.87973,300.669,39.91293Z"/><path d="M302.64649,37.48617h.72754v.84961a1.75163,1.75163,0,0,1,1.57226-.9375c1.16211,0,1.63574.92774,1.63574,2.002V42.3641h-.72265V39.47348c0-.67383-.249-1.45508-1.1084-1.45508-.7666,0-1.377.60058-1.377,1.81152V42.3641h-.72754Z"/><path d="M307.73438,39.952c0-1.30859.70312-2.53418,2.11914-2.53418,1.582,0,2.07031,1.25489,2.07031,2.37793,0,.127-.01465.28809-.02441.376H308.501a1.44421,1.44421,0,0,0,1.42578,1.62109,1.70465,1.70465,0,0,0,1.37207-.52246l.498.40039a2.39184,2.39184,0,0,1-1.86524.76172A2.21112,2.21112,0,0,1,307.73438,39.952Zm3.49121-.376c-.01953-.78125-.3711-1.55762-1.37207-1.55762-.89356,0-1.31348.72754-1.35254,1.55762Z"/></g></g><rect id="Rectangle_17" data-name="Rectangle 17" x="237.50001" y="56.36397" width="20" height="10" fill="#f7f8f8"/><path id="Path_2" data-name="Path 2" d="M242.5,61.36387s-1.12-1.878-2.5-1.878-2.5,1.878-2.5,1.878" fill="none" stroke="#333" stroke-miterlimit="10" stroke-width="0.5"/><path id="Path_3" data-name="Path 3" d="M252.5,61.36387s-1.12-1.878-2.5-1.878-2.5,1.878-2.5,1.878-1.12,1.877-2.5,1.877-2.5-1.877-2.5-1.877" fill="none" stroke="#333" stroke-miterlimit="10" stroke-width="0.5"/><path id="Path_4" data-name="Path 4" d="M257.5,61.36387s-1.12,1.877-2.5,1.877-2.5-1.877-2.5-1.877" fill="none" stroke="#333" stroke-miterlimit="10" stroke-width="0.5"/><g id="Esitazione"><g style="isolation:isolate"><path d="M268.53418,57.46469H273.002v.66894h-3.69141V60.5848h3.208v.64942h-3.208v2.42187H273.002v.708h-4.46778Z"/><path d="M273.86133,63.2557l.61523-.31738a1.23742,1.23742,0,0,0,1.21582.92773c.55176,0,.957-.27832.957-.80566,0-1.31348-2.59278-.66894-2.59278-2.32422a1.39216,1.39216,0,0,1,1.54785-1.35254,1.733,1.733,0,0,1,1.60157.97168l-.53711.30762a1.14984,1.14984,0,0,0-1.08887-.68848c-.52734,0-.85449.27344-.85449.67383,0,1.123,2.63183.53223,2.63183,2.32422a1.52122,1.52122,0,0,1-1.6748,1.48926A1.8928,1.8928,0,0,1,273.86133,63.2557Z"/><path d="M278.52442,57.46469h.83007v.9375h-.83007Zm.05371,2.02148h.72265V64.3641h-.72265Z"/><path d="M281.127,63.07016V60.08187h-.78125v-.5957h.78613V58.38754l.72265-.68359v1.78222h1.23536v.5957h-1.23536V63.075c0,.53711.26368.78613.62012.78613a1.16364,1.16364,0,0,0,.48828-.12207v.625a1.96592,1.96592,0,0,1-.65429.09766C281.44434,64.46176,281.127,63.90512,281.127,63.07016Z"/><path d="M283.80274,63.00668c0-.97656.76172-1.43066,2.14843-1.43066h1.11329c0-.918-.3125-1.55762-1.19629-1.55762a1.60532,1.60532,0,0,0-1.35254.7373l-.53223-.415a2.16391,2.16391,0,0,1,1.84082-.957,1.79669,1.79669,0,0,1,1.90918,1.98731V64.3641h-.62012l-.01465-.94238a1.82115,1.82115,0,0,1-1.71386,1.04A1.43023,1.43023,0,0,1,283.80274,63.00668Zm3.26172-.87891h-1.04493c-.96679,0-1.46484.249-1.46484.89844,0,.58106.40527.82031.91309.82031A1.683,1.683,0,0,0,287.06446,62.12777Z"/><path d="M292.5918,60.08676l-2.92969,3.65234h2.92969v.625h-3.83789v-.55176l2.9834-3.73047h-2.8418v-.5957h3.69629Z"/><path d="M293.749,57.46469h.83007v.9375H293.749Zm.05371,2.02148h.72265V64.3641h-.72265Z"/><path d="M295.77539,61.91293a2.32135,2.32135,0,1,1,4.624,0,2.323,2.323,0,1,1-4.624,0Zm3.88672,0c0-.97656-.48828-1.92383-1.57226-1.92383s-1.582.94727-1.582,1.92383c0,.98633.498,1.94336,1.57227,1.94336C299.17383,63.85629,299.66211,62.87973,299.66211,61.91293Z"/><path d="M301.63965,59.48617h.72754v.84961a1.75166,1.75166,0,0,1,1.57227-.9375c1.1621,0,1.63574.92774,1.63574,2.002V64.3641h-.72266V61.47348c0-.67383-.249-1.45508-1.1084-1.45508-.7666,0-1.377.60058-1.377,1.81152V64.3641h-.72754Z"/><path d="M306.72754,61.952c0-1.30859.70313-2.53418,2.11914-2.53418,1.582,0,2.07031,1.25489,2.07031,2.37793,0,.127-.01464.28809-.02441.376h-3.39844a1.44422,1.44422,0,0,0,1.42578,1.62109,1.70464,1.70464,0,0,0,1.37207-.52246l.498.40039a2.3918,2.3918,0,0,1-1.86523.76172A2.21112,2.21112,0,0,1,306.72754,61.952Zm3.49121-.376c-.01953-.78125-.37109-1.55762-1.37207-1.55762-.89355,0-1.31347.72754-1.35254,1.55762Z"/></g></g><rect id="Rectangle_18" data-name="Rectangle 18" x="237.50001" y="78.36397" width="20" height="10" fill="#f7f8f8"/><path id="Path_5" data-name="Path 5" d="M250.833,80.34687c2.9,0,5.556,1.465,5.556,3.811a2.223,2.223,0,0,1-4.445,0c0-2.346,2.659-3.811,5.556-3.811" fill="none" stroke="#333" stroke-miterlimit="10" stroke-width="0.5"/><path id="Path_6" data-name="Path 6" d="M244.167,80.34687c2.9,0,5.555,1.465,5.555,3.811a2.222,2.222,0,0,1-4.444.01634v-.01634c0-2.346,2.658-3.811,5.555-3.811" fill="none" stroke="#333" stroke-miterlimit="10" stroke-width="0.5"/><path id="Path_7" data-name="Path 7" d="M237.5,80.34687c2.9,0,5.556,1.465,5.556,3.811a2.223,2.223,0,0,1-4.445,0c0-2.346,2.659-3.811,5.556-3.811" fill="none" stroke="#333" stroke-miterlimit="10" stroke-width="0.5"/><g id="Riformulazione"><g style="isolation:isolate"><path d="M268.53516,79.47445h1.97265a1.95928,1.95928,0,0,1,2.168,1.91407,1.76277,1.76277,0,0,1-1.46972,1.7871l1.87011,3.19825h-.9082l-1.72363-3.09571h-1.13281v3.09571h-.77637Zm2.09961,3.09082c.7373-.03906,1.27929-.43457,1.27929-1.17675a1.23362,1.23362,0,0,0-1.39648-1.23047h-1.19629v2.40722Z"/><path d="M274.2334,79.46469h.83008v.9375h-.83008Zm.05371,2.02148h.72266V86.3641h-.72266Z"/><path d="M276.88477,82.08187h-.88867v-.5957h.89355v-.82031a1.225,1.225,0,0,1,1.31836-1.30371,1.825,1.825,0,0,1,.80078.18555l-.17578.581a1.387,1.387,0,0,0-.57129-.15137c-.376,0-.64941.22949-.64941.72754v.78125h1.40136v.5957h-1.40136V86.3641h-.72754Z"/><path d="M279.38965,83.91293a2.32135,2.32135,0,1,1,4.624,0,2.323,2.323,0,1,1-4.624,0Zm3.88672,0c0-.97656-.48828-1.92383-1.57227-1.92383s-1.582.94727-1.582,1.92383c0,.98633.498,1.94336,1.57227,1.94336C282.78809,85.85629,283.27637,84.87973,283.27637,83.91293Z"/><path d="M285.25391,81.48617h.72754v.86426a1.57164,1.57164,0,0,1,1.44043-.9668,1.26822,1.26822,0,0,1,.78613.25391l-.30762.62988a.88771.88771,0,0,0-.5957-.18555c-.83008,0-1.333.669-1.333,1.84571V86.3641h-.71777Z"/><path d="M289.14551,81.48617h.7373V82.243a1.52918,1.52918,0,0,1,2.81739.16113,1.61809,1.61809,0,0,1,1.51855-1.02051c1.20606,0,1.69434.93262,1.69434,2.0166V86.3641h-.73731V83.47348c0-.66407-.20019-1.46973-1.04492-1.46973-.80078,0-1.23535.85449-1.23535,1.65527V86.3641h-.74219V83.454c0-.67383-.19043-1.4502-1.02539-1.4502-.81055,0-1.24512.93262-1.24512,1.81641V86.3641h-.7373Z"/><path d="M297.23145,84.3182v-2.832h.72754V84.367c0,.70313.19043,1.48926,1.02539,1.48926a1.5665,1.5665,0,0,0,1.45508-1.66992v-2.7002h.72265V86.3641h-.72265v-.82519a1.73605,1.73605,0,0,1-1.53321.93261C297.70508,86.47152,297.23145,85.534,297.23145,84.3182Z"/><path d="M304.24317,85.77816v.58594a2.38144,2.38144,0,0,1-.65918.09766c-.73731,0-.791-.498-.791-1.084V79.46469h.73731v6.084c0,.01465.01953.27832.23925.27832A2.89066,2.89066,0,0,0,304.24317,85.77816Z"/><path d="M304.88281,85.00668c0-.97656.76172-1.43066,2.14844-1.43066h1.11328c0-.918-.3125-1.55762-1.19629-1.55762a1.60531,1.60531,0,0,0-1.35253.7373l-.53223-.415a2.1639,2.1639,0,0,1,1.84082-.957,1.79669,1.79669,0,0,1,1.90918,1.98731V86.3641h-.62012l-.01465-.94238a1.82115,1.82115,0,0,1-1.71386,1.04A1.43024,1.43024,0,0,1,304.88281,85.00668Zm3.26172-.87891h-1.04492c-.9668,0-1.46484.249-1.46484.89844,0,.58106.40527.82031.91308.82031A1.68294,1.68294,0,0,0,308.14453,84.12777Z"/><path d="M313.67188,82.08676l-2.92969,3.65234h2.92969v.625H309.834v-.55176l2.98339-3.73047h-2.84179v-.5957h3.69629Z"/><path d="M314.8291,79.46469h.83008v.9375h-.83008Zm.05371,2.02148h.72266V86.3641h-.72266Z"/><path d="M316.85547,83.91293a2.32135,2.32135,0,1,1,4.624,0,2.323,2.323,0,1,1-4.624,0Zm3.88672,0c0-.97656-.48828-1.92383-1.57227-1.92383s-1.582.94727-1.582,1.92383c0,.98633.498,1.94336,1.57227,1.94336C320.25391,85.85629,320.74219,84.87973,320.74219,83.91293Z"/><path d="M322.71973,81.48617h.72754v.84961a1.75164,1.75164,0,0,1,1.57226-.9375c1.16211,0,1.63575.92774,1.63575,2.00195V86.3641h-.72266V83.47348c0-.67383-.249-1.45508-1.1084-1.45508-.7666,0-1.377.60058-1.377,1.81152V86.3641h-.72754Z"/><path d="M327.80762,83.952c0-1.30859.70312-2.53418,2.11914-2.53418,1.582,0,2.07031,1.25489,2.07031,2.37793,0,.127-.01465.28809-.02441.376h-3.39844A1.44421,1.44421,0,0,0,330,85.79281a1.70464,1.70464,0,0,0,1.37207-.52246l.498.40039a2.39183,2.39183,0,0,1-1.86524.76172A2.21112,2.21112,0,0,1,327.80762,83.952Zm3.49121-.376c-.01953-.78125-.37109-1.55762-1.37207-1.55762-.89355,0-1.31348.72754-1.35254,1.55762Z"/></g></g><g id="Categorie" style="isolation:isolate"><g style="isolation:isolate"><path d="M.90039,19.89975a3.23735,3.23735,0,0,1,3.33008-3.55957A3.13954,3.13954,0,0,1,7.24805,18.3226l-1.15723.459a1.73416,1.73416,0,0,0-1.87011-1.25976,2.04552,2.04552,0,0,0-2.08985,2.3291c0,1.37207.62988,2.42187,2.10938,2.42187A1.81465,1.81465,0,0,0,6.11035,20.9935l1.14746.46875a3.13035,3.13035,0,0,1-3.01757,1.9873A3.23475,3.23475,0,0,1,.90039,19.89975Z" fill="#5151fc"/><path d="M10.02637,16.45248h.92773l2.749,6.89941H12.36524l-.53223-1.499H9.15235l-.53711,1.499H7.2627Zm1.38672,4.34082-.918-2.51953L9.57227,20.7933Z" fill="#5151fc"/><path d="M15.37305,17.56088H13.21v-1.1084h5.56153v1.1084H16.61328v5.791H15.37305Z" fill="#5151fc"/><path d="M19.7627,16.45248h4.58984v1.1377H21.00293v1.74316h3.12012V20.471H21.00293V22.18h3.34961v1.17187H19.7627Z" fill="#5151fc"/><path d="M25.334,19.89975c0-1.88965,1.0498-3.55957,3.33007-3.55957a3.13572,3.13572,0,0,1,3.00782,1.98242l-1.09864.459a1.8935,1.8935,0,0,0-1.91894-1.35742c-1.46,0-2.08984,1.14746-2.08984,2.42676,0,1.37207.62988,2.49023,2.10937,2.49023a1.89833,1.89833,0,0,0,1.92871-1.71875H29.03516v-1.001h2.76855v3.73046h-.98144l-.10742-.97168a2.28359,2.28359,0,0,1-2.041,1.06934A3.23474,3.23474,0,0,1,25.334,19.89975Z" fill="#5151fc"/><path d="M32.82422,19.89975a3.33688,3.33688,0,1,1,6.66016,0,3.33688,3.33688,0,1,1-6.66016,0Zm5.35156,0c0-1.29883-.542-2.44629-2.02148-2.44629s-2.02149,1.14746-2.02149,2.44629c0,1.30371.542,2.45117,2.02149,2.45117S38.17578,21.20346,38.17578,19.89975Z" fill="#5151fc"/><path d="M40.77344,16.45248h2.23144a2.139,2.139,0,0,1,2.3877,2.03125,1.89139,1.89139,0,0,1-1.34766,1.79688l1.919,3.08105H44.543l-1.69922-2.959h-.83008v2.959H40.77344Zm2.34375,2.93945c.65918-.02929,1.0498-.37109,1.0498-.88867,0-.57129-.44433-.94238-1.15234-.94238h-.99121v1.831Z" fill="#5151fc"/><path d="M46.96485,16.45248h1.24023v6.89941H46.96485Z" fill="#5151fc"/><path d="M49.98242,16.45248h4.58985v1.1377H51.22266v1.74316h3.12012V20.471H51.22266V22.18h3.34961v1.17187H49.98242Z" fill="#5151fc"/></g></g><g id="Numero_di_paragrafo" data-name="Numero di paragrafo"><g style="isolation:isolate"><path d="M790.53516,57.46469h1.11816l2.96875,6.0791v-6.0791h.7666V64.3641h-1.13281l-2.94922-6.08887V64.3641h-.77148Z"/><path d="M797.12207,62.3182v-2.832h.72754V62.367c0,.70313.19043,1.48926,1.02539,1.48926a1.5665,1.5665,0,0,0,1.45508-1.66992v-2.7002h.72266V64.3641h-.72266v-.82519a1.736,1.736,0,0,1-1.5332.93261C797.59571,64.47152,797.12207,63.534,797.12207,62.3182Z"/><path d="M802.69824,59.48617h.73731V60.243a1.52917,1.52917,0,0,1,2.81738.16113,1.6181,1.6181,0,0,1,1.51856-1.02051c1.20605,0,1.69433.93262,1.69433,2.0166V64.3641h-.7373V61.47348c0-.66407-.2002-1.46973-1.04492-1.46973-.80079,0-1.23536.85449-1.23536,1.65527V64.3641h-.74218V61.454c0-.67383-.19043-1.4502-1.02539-1.4502-.81055,0-1.24512.93262-1.24512,1.81641V64.3641h-.73731Z"/><path d="M810.61817,61.952c0-1.30859.70312-2.53418,2.11914-2.53418,1.582,0,2.07031,1.25489,2.07031,2.37793,0,.127-.01465.28809-.02441.376h-3.39844a1.44421,1.44421,0,0,0,1.42578,1.62109,1.70465,1.70465,0,0,0,1.37207-.52246l.498.40039a2.39184,2.39184,0,0,1-1.86524.76172A2.21112,2.21112,0,0,1,810.61817,61.952Zm3.49121-.376c-.01953-.78125-.3711-1.55762-1.37207-1.55762-.89356,0-1.31348.72754-1.35254,1.55762Z"/><path d="M816.0625,59.48617H816.79v.86426a1.57166,1.57166,0,0,1,1.44043-.9668,1.26822,1.26822,0,0,1,.78613.25391l-.30761.62988a.88774.88774,0,0,0-.59571-.18555c-.83007,0-1.333.66895-1.333,1.84571V64.3641h-.71778Z"/><path d="M819.14356,61.91293a2.32135,2.32135,0,1,1,4.624,0,2.323,2.323,0,1,1-4.624,0Zm3.88672,0c0-.97656-.48829-1.92383-1.57227-1.92383s-1.582.94727-1.582,1.92383c0,.98633.498,1.94336,1.57226,1.94336C822.542,63.85629,823.03028,62.87973,823.03028,61.91293Z"/><path d="M831.50684,57.46469V64.3641h-.708l-.01465-.67871a1.73417,1.73417,0,0,1-1.52832.77637c-1.25,0-1.958-1.14746-1.958-2.53906,0-1.39649.708-2.53907,1.95313-2.53907a1.74626,1.74626,0,0,1,1.52832.7666V57.46469Zm-.66895,4.458c0-.98633-.40039-1.92383-1.39648-1.92383-.97656,0-1.39649.9375-1.39649,1.92383,0,.99609.41993,1.92382,1.39649,1.92382C830.4375,63.84652,830.83789,62.92367,830.83789,61.9227Z"/><path d="M833.11817,57.46469h.83007v.9375h-.83007Zm.05371,2.02148h.72265V64.3641h-.72265Z"/><path d="M838.19629,59.48617h.73242v.66406a1.74287,1.74287,0,0,1,1.48926-.7666c1.30859,0,1.99219,1.14258,1.99219,2.53907,0,1.38183-.67871,2.53906-1.98731,2.53906A1.75038,1.75038,0,0,1,838.92871,63.7v2.80273h-.73242Zm3.48145,2.43653c0-.98633-.43457-1.92383-1.41114-1.92383-.99121,0-1.40625.9375-1.40625,1.92383,0,.99609.415,1.92382,1.40625,1.92382C841.24317,63.84652,841.67774,62.91879,841.67774,61.9227Z"/><path d="M843.25488,63.00668c0-.97656.76172-1.43066,2.14844-1.43066h1.11328c0-.918-.3125-1.55762-1.19629-1.55762a1.60531,1.60531,0,0,0-1.35253.7373l-.53223-.415a2.16391,2.16391,0,0,1,1.84082-.957,1.79669,1.79669,0,0,1,1.90918,1.98731V64.3641h-.62012l-.01465-.94238a1.82115,1.82115,0,0,1-1.71386,1.04A1.43024,1.43024,0,0,1,843.25488,63.00668Zm3.26172-.87891h-1.04492c-.9668,0-1.46484.249-1.46484.89844,0,.58106.40527.82031.91308.82031A1.68294,1.68294,0,0,0,846.5166,62.12777Z"/><path d="M848.7041,59.48617h.72754v.86426a1.57166,1.57166,0,0,1,1.44043-.9668,1.26825,1.26825,0,0,1,.78614.25391l-.30762.62988a.88772.88772,0,0,0-.59571-.18555c-.83007,0-1.333.66895-1.333,1.84571V64.3641h-.71778Z"/><path d="M852.15137,63.00668c0-.97656.76172-1.43066,2.14844-1.43066h1.11328c0-.918-.3125-1.55762-1.19629-1.55762a1.60533,1.60533,0,0,0-1.35254.7373l-.53223-.415a2.16393,2.16393,0,0,1,1.84082-.957,1.79669,1.79669,0,0,1,1.90918,1.98731V64.3641h-.62011l-.01465-.94238a1.82117,1.82117,0,0,1-1.71387,1.04A1.43023,1.43023,0,0,1,852.15137,63.00668Zm3.26172-.87891h-1.04492c-.9668,0-1.46485.249-1.46485.89844,0,.58106.40528.82031.91309.82031A1.683,1.683,0,0,0,855.41309,62.12777Z"/><path d="M861.36524,65.11605c0,1.00586-.92774,1.48438-1.95313,1.48438-1.26953,0-2.10449-.73242-2.10449-1.66016a1.28653,1.28653,0,0,1,.01465-.18554l.70312-.708a1.08166,1.08166,0,0,1-.62011-1.001.99791.99791,0,0,1,.35644-.80566,1.62544,1.62544,0,0,1-.41016-1.11328,1.70462,1.70462,0,0,1,1.82618-1.709,1.85521,1.85521,0,0,1,1.25976.4541l.73242-.66406.415.51758-.78613.62012a1.76143,1.76143,0,0,1,.18066.791,1.66123,1.66123,0,0,1-1.80175,1.67969,2.07913,2.07913,0,0,1-.918-.20508.46249.46249,0,0,0-.21.376c0,.50293.61035.64941,1.30371.74707C860.34473,63.86605,861.36524,64.01254,861.36524,65.11605Zm-.64942.05372c0-.625-.74219-.64942-1.57715-.791a4.94868,4.94868,0,0,1-.58105-.12695l-.57617.70312c.00488.50293.542,1.001,1.48926,1.001C860.11524,65.9559,860.71582,65.702,860.71582,65.16977Zm-2.62207-4.05762a1.07688,1.07688,0,1,0,2.15332,0,1.07743,1.07743,0,1,0-2.15332,0Z"/><path d="M862.60059,59.48617h.72754v.86426a1.57164,1.57164,0,0,1,1.44043-.9668,1.26822,1.26822,0,0,1,.78613.25391l-.30762.62988a.88771.88771,0,0,0-.5957-.18555c-.83008,0-1.333.66895-1.333,1.84571V64.3641h-.71777Z"/><path d="M866.04785,63.00668c0-.97656.76172-1.43066,2.14844-1.43066h1.11328c0-.918-.3125-1.55762-1.19629-1.55762a1.60535,1.60535,0,0,0-1.35254.7373l-.53222-.415a2.1639,2.1639,0,0,1,1.84082-.957,1.79669,1.79669,0,0,1,1.90918,1.98731V64.3641h-.62012l-.01465-.94238a1.82116,1.82116,0,0,1-1.71387,1.04A1.43023,1.43023,0,0,1,866.04785,63.00668Zm3.26172-.87891h-1.04492c-.9668,0-1.46484.249-1.46484.89844,0,.58106.40527.82031.91308.82031A1.68294,1.68294,0,0,0,869.30957,62.12777Z"/><path d="M871.72168,60.08187H870.833v-.5957h.89355v-.82031a1.225,1.225,0,0,1,1.31836-1.30371,1.825,1.825,0,0,1,.80079.18555l-.17579.581a1.38693,1.38693,0,0,0-.57129-.15137c-.376,0-.64941.22949-.64941.72754v.78125h1.40137v.5957h-1.40137V64.3641h-.72754Z"/><path d="M874.22656,61.91293a2.32135,2.32135,0,1,1,4.624,0,2.323,2.323,0,1,1-4.624,0Zm3.88672,0c0-.97656-.48828-1.92383-1.57226-1.92383s-1.582.94727-1.582,1.92383c0,.98633.498,1.94336,1.57226,1.94336C877.625,63.85629,878.11328,62.87973,878.11328,61.91293Z"/></g></g><g id="Numerazioni" style="isolation:isolate"><g style="isolation:isolate"><path d="M711.38867,16.45248h1.23047l2.90039,4.8291v-4.8291h1.19141v6.89941h-1.24023L712.58008,18.513v4.83886h-1.19141Z" fill="#5151fc"/><path d="M718.332,20.66146v-4.209h1.23535v4.06738c0,1.11328.293,1.7334,1.40137,1.7334,1.11328,0,1.40137-.62012,1.40137-1.7334V16.45248h1.24023v4.16016c0,1.73828-.791,2.83691-2.6416,2.83691S718.332,22.35092,718.332,20.66146Z" fill="#5151fc"/><path d="M725.22656,16.45248h1.66993l1.83105,4.90723,1.83106-4.90723h1.66992v6.89941h-1.19141V18.19076l-1.709,4.56055H728.127l-1.709-4.56055v5.16113h-1.19141Z" fill="#5151fc"/><path d="M734.00586,16.45248h4.58985v1.1377H735.2461v1.74316h3.12011V20.471H735.2461V22.18h3.34961v1.17187h-4.58985Z" fill="#5151fc"/><path d="M740.085,16.45248h2.23145a2.139,2.139,0,0,1,2.38769,2.03125,1.89138,1.89138,0,0,1-1.34765,1.79688l1.91894,3.08105h-1.4209l-1.69921-2.959h-.83008v2.959H740.085Zm2.34375,2.93945c.65918-.02929,1.04981-.37109,1.04981-.88867,0-.57129-.44434-.94238-1.15235-.94238H741.335v1.831Z" fill="#5151fc"/><path d="M748.19043,16.45248h.92774l2.749,6.89941H750.5293l-.53223-1.499h-2.68066l-.53711,1.499h-1.35254Zm1.38672,4.34082-.918-2.51953-.92285,2.51953Z" fill="#5151fc"/><path d="M752.30176,22.49252l3.85254-4.90234h-3.63281v-1.1377h5.34179v.89844l-3.82812,4.88281h3.82812v1.11816h-5.56152Z" fill="#5151fc"/><path d="M759.11328,16.45248h1.24024v6.89941h-1.24024Z" fill="#5151fc"/><path d="M761.64258,19.89975a3.33688,3.33688,0,1,1,6.66016,0,3.33688,3.33688,0,1,1-6.66016,0Zm5.35156,0c0-1.29883-.542-2.44629-2.02148-2.44629s-2.02149,1.14746-2.02149,2.44629c0,1.30371.542,2.45117,2.02149,2.45117S766.99414,21.20346,766.99414,19.89975Z" fill="#5151fc"/><path d="M769.5918,16.45248h1.23047l2.90039,4.8291v-4.8291h1.1914v6.89941h-1.24023L770.78321,18.513v4.83886H769.5918Z" fill="#5151fc"/><path d="M776.69141,16.45248h1.24023v6.89941h-1.24023Z" fill="#5151fc"/></g></g><g id="Occorrenze_testo_dubitativo" data-name="Occorrenze testo dubitativo"><g style="isolation:isolate"><path d="M790.10059,38.912c0-1.90918.99121-3.5498,3.09082-3.5498,2.10937,0,3.10547,1.64062,3.10547,3.5498,0,1.91407-.9961,3.54981-3.10547,3.54981C791.0918,42.46176,790.10059,40.826,790.10059,38.912Zm5.44433,0c0-1.47461-.67382-2.832-2.35351-2.832-1.65528,0-2.334,1.35742-2.334,2.832,0,1.4795.67871,2.83692,2.334,2.83692C794.8711,41.74887,795.54492,40.39145,795.54492,38.912Z"/><path d="M797.35645,39.93246c0-1.30859.70312-2.54883,2.10937-2.54883a1.99973,1.99973,0,0,1,1.89942,1.29883l-.68848.293a1.23416,1.23416,0,0,0-1.21094-.97656c-1.01074,0-1.3623,1.05468-1.3623,1.93359,0,.89356.34179,1.91406,1.3623,1.91406a1.22356,1.22356,0,0,0,1.21094-.95215l.63477.27344a1.86063,1.86063,0,0,1-1.83594,1.29395C798.06934,42.46176,797.35645,41.2557,797.35645,39.93246Z"/><path d="M802.06348,39.93246c0-1.30859.70312-2.54883,2.10937-2.54883a1.99973,1.99973,0,0,1,1.89942,1.29883l-.68848.293a1.23416,1.23416,0,0,0-1.21094-.97656c-1.01074,0-1.3623,1.05468-1.3623,1.93359,0,.89356.3418,1.91406,1.3623,1.91406a1.22356,1.22356,0,0,0,1.21094-.95215l.63477.27344a1.86063,1.86063,0,0,1-1.83594,1.29395C802.77637,42.46176,802.06348,41.2557,802.06348,39.93246Z"/><path d="M806.74121,39.91293a2.32135,2.32135,0,1,1,4.624,0,2.323,2.323,0,1,1-4.624,0Zm3.88672,0c0-.97656-.48828-1.92383-1.57226-1.92383s-1.582.94727-1.582,1.92383c0,.98633.49805,1.94336,1.57227,1.94336C810.13965,41.85629,810.62793,40.87973,810.62793,39.91293Z"/><path d="M812.60547,37.48617h.72754v.86426a1.57166,1.57166,0,0,1,1.44043-.9668,1.26822,1.26822,0,0,1,.78613.25391l-.30761.62988a.88776.88776,0,0,0-.59571-.18555c-.83008,0-1.333.66895-1.333,1.84571V42.3641h-.71777Z"/><path d="M816.49707,37.48617h.72754v.86426a1.57166,1.57166,0,0,1,1.44043-.9668,1.2682,1.2682,0,0,1,.78613.25391l-.30761.62988a.88774.88774,0,0,0-.59571-.18555c-.83007,0-1.333.66895-1.333,1.84571V42.3641h-.71778Z"/><path d="M819.60254,39.952c0-1.30859.70313-2.53418,2.11914-2.53418,1.582,0,2.07031,1.25489,2.07031,2.37793,0,.127-.01464.28809-.02441.376h-3.39844a1.44422,1.44422,0,0,0,1.42578,1.62109,1.70464,1.70464,0,0,0,1.37207-.52246l.498.40039a2.3918,2.3918,0,0,1-1.86523.76172A2.21112,2.21112,0,0,1,819.60254,39.952Zm3.49121-.376c-.01953-.78125-.37109-1.55762-1.37207-1.55762-.89355,0-1.31347.72754-1.35254,1.55762Z"/><path d="M825.04688,37.48617h.72754v.84961a1.75163,1.75163,0,0,1,1.57226-.9375c1.16211,0,1.63574.92774,1.63574,2.002V42.3641h-.72265V39.47348c0-.67383-.249-1.45508-1.1084-1.45508-.7666,0-1.377.60058-1.377,1.81152V42.3641h-.72754Z"/><path d="M833.85059,38.08676,830.9209,41.7391h2.92969v.625H830.0127v-.55176l2.9834-3.73047h-2.8418v-.5957h3.69629Z"/><path d="M834.666,39.952c0-1.30859.70312-2.53418,2.11914-2.53418,1.582,0,2.07031,1.25489,2.07031,2.37793,0,.127-.01465.28809-.02441.376h-3.39844a1.44421,1.44421,0,0,0,1.42578,1.62109,1.70465,1.70465,0,0,0,1.37207-.52246l.49805.40039a2.39184,2.39184,0,0,1-1.86524.76172A2.21112,2.21112,0,0,1,834.666,39.952Zm3.49121-.376c-.01953-.78125-.3711-1.55762-1.37207-1.55762-.89356,0-1.31348.72754-1.35254,1.55762Z"/><path d="M842.92774,41.07016V38.08187h-.78125v-.5957h.78613V36.38754l.72266-.68359v1.78222h1.23535v.5957h-1.23535V41.075c0,.53711.26367.78613.62011.78613a1.1636,1.1636,0,0,0,.48828-.12207v.625a1.96592,1.96592,0,0,1-.65429.09766C843.24512,42.46176,842.92774,41.90512,842.92774,41.07016Z"/><path d="M845.62305,39.952c0-1.30859.70312-2.53418,2.11914-2.53418,1.582,0,2.07031,1.25489,2.07031,2.37793,0,.127-.01465.28809-.02441.376h-3.39844a1.44421,1.44421,0,0,0,1.42578,1.62109,1.70464,1.70464,0,0,0,1.37207-.52246l.49805.40039a2.39183,2.39183,0,0,1-1.86524.76172A2.21112,2.21112,0,0,1,845.62305,39.952Zm3.49121-.376c-.01953-.78125-.37109-1.55762-1.37207-1.55762-.89356,0-1.31348.72754-1.35254,1.55762Z"/><path d="M850.59863,41.2557l.61524-.31738a1.23741,1.23741,0,0,0,1.21582.92773c.55176,0,.957-.27832.957-.80566,0-1.31348-2.59277-.66894-2.59277-2.32422a1.39215,1.39215,0,0,1,1.54785-1.35254,1.733,1.733,0,0,1,1.60156.97168l-.53711.30762a1.14983,1.14983,0,0,0-1.08887-.68848c-.52734,0-.85449.27344-.85449.67383,0,1.123,2.63184.53223,2.63184,2.32422a1.52123,1.52123,0,0,1-1.67481,1.48926A1.89281,1.89281,0,0,1,850.59863,41.2557Z"/><path d="M855.48145,41.07016V38.08187h-.78125v-.5957h.78613V36.38754l.72266-.68359v1.78222h1.23535v.5957H856.209V41.075c0,.53711.26367.78613.62011.78613a1.1636,1.1636,0,0,0,.48828-.12207v.625a1.96592,1.96592,0,0,1-.65429.09766C855.79883,42.46176,855.48145,41.90512,855.48145,41.07016Z"/><path d="M858.15235,39.91293a2.32135,2.32135,0,1,1,4.624,0,2.323,2.323,0,1,1-4.624,0Zm3.88671,0c0-.97656-.48828-1.92383-1.57226-1.92383s-1.582.94727-1.582,1.92383c0,.98633.498,1.94336,1.57226,1.94336C861.55078,41.85629,862.03906,40.87973,862.03906,39.91293Z"/><path d="M870.51563,35.46469V42.3641h-.708l-.01465-.67871a1.73417,1.73417,0,0,1-1.52832.77637c-1.25,0-1.958-1.14746-1.958-2.53906,0-1.39649.708-2.53907,1.95313-2.53907a1.74626,1.74626,0,0,1,1.52832.7666V35.46469Zm-.66895,4.458c0-.98633-.40039-1.92383-1.39648-1.92383-.97657,0-1.39649.9375-1.39649,1.92383,0,.99609.41992,1.92382,1.39649,1.92382C869.44629,41.84652,869.84668,40.92367,869.84668,39.9227Z"/><path d="M872.00977,40.3182v-2.832h.72754V40.367c0,.70313.19043,1.48926,1.02539,1.48926a1.5665,1.5665,0,0,0,1.45508-1.66992v-2.7002h.72265V42.3641h-.72265v-.82519a1.73605,1.73605,0,0,1-1.53321.93261C872.4834,42.47152,872.00977,41.534,872.00977,40.3182Z"/><path d="M878.32324,41.7v.66406h-.72753V35.46469h.72753v2.68554a1.74711,1.74711,0,0,1,1.51368-.7666c1.27441,0,1.96777,1.14746,1.96777,2.53907s-.69336,2.53906-1.96289,2.53906A1.74747,1.74747,0,0,1,878.32324,41.7Zm2.75391-1.77734c0-.98633-.44434-1.92383-1.42578-1.92383-.97656,0-1.3916.9375-1.3916,1.92383,0,.99609.415,1.92382,1.3916,1.92382C880.63281,41.84652,881.07715,40.91879,881.07715,39.9227Z"/><path d="M883.04981,35.46469h.83007v.9375h-.83007Zm.05371,2.02148h.72265V42.3641h-.72265Z"/><path d="M885.65235,41.07016V38.08187h-.78125v-.5957h.78613V36.38754l.72265-.68359v1.78222h1.23536v.5957h-1.23536V41.075c0,.53711.26368.78613.62012.78613a1.16364,1.16364,0,0,0,.48828-.12207v.625a1.96592,1.96592,0,0,1-.65429.09766C885.96973,42.46176,885.65235,41.90512,885.65235,41.07016Z"/><path d="M888.32813,41.00668c0-.97656.76172-1.43066,2.14843-1.43066h1.11329c0-.918-.3125-1.55762-1.19629-1.55762a1.60532,1.60532,0,0,0-1.35254.7373l-.53223-.415a2.16391,2.16391,0,0,1,1.84082-.957,1.79669,1.79669,0,0,1,1.90918,1.98731V42.3641h-.62012l-.01464-.94238a1.82117,1.82117,0,0,1-1.71387,1.04A1.43023,1.43023,0,0,1,888.32813,41.00668Zm3.26172-.87891h-1.04493c-.96679,0-1.46484.249-1.46484.89844,0,.58106.40527.82031.91309.82031A1.683,1.683,0,0,0,891.58985,40.12777Z"/><path d="M893.94336,41.07016V38.08187h-.78125v-.5957h.78613V36.38754l.72266-.68359v1.78222h1.23535v.5957H894.6709V41.075c0,.53711.26367.78613.62012.78613a1.16368,1.16368,0,0,0,.48828-.12207v.625a1.966,1.966,0,0,1-.6543.09766C894.26074,42.46176,893.94336,41.90512,893.94336,41.07016Z"/><path d="M897.01953,35.46469h.83008v.9375h-.83008Zm.05371,2.02148h.72266V42.3641h-.72266Z"/><path d="M898.80176,37.48617h.7959l1.34765,3.93067,1.35743-3.93067h.78125l-1.81641,4.87793h-.64453Z"/><path d="M903.52832,39.91293a2.32135,2.32135,0,1,1,4.624,0,2.323,2.323,0,1,1-4.624,0Zm3.88672,0c0-.97656-.48828-1.92383-1.57226-1.92383s-1.582.94727-1.582,1.92383c0,.98633.498,1.94336,1.57227,1.94336C906.92676,41.85629,907.415,40.87973,907.415,39.91293Z"/></g></g><g id="Ellipse_4" data-name="Ellipse 4"><circle cx="743.50001" cy="38.94375" r="5.7931" fill="#fff"/><circle cx="743.50001" cy="38.94375" r="6" fill="none" stroke="#5151fc" stroke-width="0.41379"/></g><g id="Ellipse_7" data-name="Ellipse 7"><circle cx="767.50001" cy="38.94375" r="5.7931" fill="#fff"/><circle cx="767.50001" cy="38.94375" r="6" fill="none" stroke="#5151fc" stroke-width="0.41379"/></g><g id="Ellipse_6" data-name="Ellipse 6"><circle cx="717.50001" cy="38.94375" r="5.7931" fill="#fff"/><circle cx="717.50001" cy="38.94375" r="6" fill="none" stroke="#5151fc" stroke-width="0.41379"/></g><g id="_12" data-name=" 12" style="isolation:isolate"><g style="isolation:isolate"><path d="M740.68848,37.97885h-1.27832v-.584h.77539a.49533.49533,0,0,0,.54-.54394V36.7308h.71777v4.83008h-.75488Z" fill="#5151fc"/><path d="M742.99219,40.93881a11.30331,11.30331,0,0,0,1.73242-1.33692,2.2408,2.2408,0,0,0,.81738-1.48242.68751.68751,0,0,0-.72851-.76562c-.61817,0-.85742.51953-.88184,1.08008l-.748-.05469a1.604,1.604,0,0,1,1.62011-1.71289,1.40772,1.40772,0,0,1,1.51075,1.415,3.01215,3.01215,0,0,1-1.11817,2.00683,5.51761,5.51761,0,0,1-.9873.78906h2.34472v.6836h-3.56152Z" fill="#5151fc"/></g></g><g id="_41" data-name=" 41" style="isolation:isolate"><g style="isolation:isolate"><path d="M766.07129,40.37533h-2.23144V39.93l2.334-3.19922h.64941v2.957h.77247v.6875h-.77247v1.18555h-.752Zm0-.6875V37.90072l-1.26465,1.78711Z" fill="#5151fc"/><path d="M769.72559,37.97885h-1.27832v-.584h.77539a.49533.49533,0,0,0,.54-.54394V36.7308h.71777v4.83008h-.75488Z" fill="#5151fc"/></g></g><g id="_1" data-name=" 1" style="isolation:isolate"><g style="isolation:isolate"><path d="M717.05664,37.97885h-1.27832v-.584h.77539a.49532.49532,0,0,0,.54-.54394V36.7308h.71778v4.83008h-.75489Z" fill="#5151fc"/></g></g><rect id="Rectangle_19-2" data-name="Rectangle 19-2" x="723.50001" y="56.36397" width="20" height="10" fill="#f7f8f8"/><rect id="Rectangle_24" data-name="Rectangle 24" x="747.50001" y="56.36397" width="28" height="10" fill="#f7f8f8"/><line id="Line_63-2" data-name="Line 63-2" x1="724.50001" y1="61.36397" x2="742.9922" y2="61.36397" fill="none" stroke="#333" stroke-linecap="square" stroke-miterlimit="10" stroke-dasharray="0 4"/><line id="Line_67" data-name="Line 67" x1="749.00001" y1="61.43397" x2="767.50001" y2="61.36397" fill="none" stroke="#333" stroke-linecap="square" stroke-miterlimit="10" stroke-dasharray="0 4"/><line id="Line_68" data-name="Line 68" x1="761.00001" y1="61.43392" x2="776.00001" y2="61.43392" fill="none" stroke="#333" stroke-linecap="square" stroke-miterlimit="10" stroke-dasharray="0 4"/><g id="_18" data-name=" 18" style="isolation:isolate"><g style="isolation:isolate"><path d="M712.96289,59.84018H711.502v-.668h.88671a.56618.56618,0,0,0,.61719-.6211v-.13672h.82031v5.51954h-.86328Z" fill="#5151fc"/><path d="M715.68164,62.37143a1.547,1.547,0,0,1,.85547-1.418,1.38543,1.38543,0,0,1-.57422-1.14063,1.72051,1.72051,0,0,1,3.40625-.00781,1.40652,1.40652,0,0,1-.57031,1.14844,1.53037,1.53037,0,0,1,.84766,1.41015c0,1.11328-.94922,1.64844-1.98047,1.64844C716.627,64.01205,715.68164,63.46908,715.68164,62.37143Zm3.09766-.05079c0-.61718-.49219-.957-1.12109-.957-.63672,0-1.1211.33985-1.1211.95313a.99109.99109,0,0,0,1.1211.957C718.25977,63.27377,718.7793,62.96127,718.7793,62.32064ZM718.541,59.8558a.86179.86179,0,1,0-.85938.78516A.78095.78095,0,0,0,718.541,59.8558Z" fill="#5151fc"/></g></g><line x1="0.50001" y1="103.96153" x2="938.50001" y2="103.96153" fill="none" stroke="#5151fc" stroke-miterlimit="10" stroke-width="0.5"/><line x1="0.50001" y1="0.35189" x2="938.50001" y2="0.35189" fill="none" stroke="#5151fc" stroke-miterlimit="10" stroke-width="0.5"/></g><g id="Layer_1" data-name="Layer 1"><g id="Ultimo-viene-il-corvo" style="isolation:isolate"><g style="isolation:isolate"><path d="M32.10254,38.8973c0-1.90429.9375-3.54492,3.13477-3.54492a2.72642,2.72642,0,0,1,2.75879,1.83594l-.71289.30762a1.96784,1.96784,0,0,0-2.08008-1.42578c-1.68457,0-2.33887,1.32812-2.33887,2.81738,0,1.52344.67383,2.86133,2.3584,2.86133A2.0279,2.0279,0,0,0,37.293,40.30844l.71289.30761a2.923,2.923,0,0,1-2.832,1.84571C33.084,42.46176,32.10254,40.84555,32.10254,38.8973Z"/><path d="M38.65528,39.91293a2.32135,2.32135,0,1,1,4.624,0,2.323,2.323,0,1,1-4.624,0Zm3.88671,0c0-.97656-.48828-1.92383-1.57226-1.92383s-1.582.94727-1.582,1.92383c0,.98633.498,1.94336,1.57226,1.94336C42.05371,41.85629,42.542,40.87973,42.542,39.91293Z"/><path d="M44.51953,37.48617h.72754v.84961a1.75166,1.75166,0,0,1,1.57227-.9375c1.16211,0,1.63574.92774,1.63574,2.002V42.3641h-.72266V39.47348c0-.67383-.249-1.45508-1.10839-1.45508-.76661,0-1.377.60058-1.377,1.81152V42.3641h-.72754Z"/><path d="M50.15918,41.07016V38.08187h-.78125v-.5957h.78613V36.38754l.72266-.68359v1.78222h1.23535v.5957H50.88672V41.075c0,.53711.26367.78613.62012.78613a1.16368,1.16368,0,0,0,.48828-.12207v.625a1.966,1.966,0,0,1-.6543.09766C50.47656,42.46176,50.15918,41.90512,50.15918,41.07016Z"/><path d="M52.85449,39.952c0-1.30859.70313-2.53418,2.11914-2.53418,1.582,0,2.07032,1.25489,2.07032,2.37793,0,.127-.01465.28809-.02442.376H53.6211a1.44421,1.44421,0,0,0,1.42578,1.62109,1.70465,1.70465,0,0,0,1.37207-.52246l.498.40039a2.3918,2.3918,0,0,1-1.86523.76172A2.21112,2.21112,0,0,1,52.85449,39.952Zm3.49122-.376c-.01954-.78125-.3711-1.55762-1.37208-1.55762-.89355,0-1.31347.72754-1.35253,1.55762Z"/><path d="M58.29883,37.48617h.72754v.84961a1.75164,1.75164,0,0,1,1.57226-.9375c1.16211,0,1.63575.92774,1.63575,2.002V42.3641h-.72266V39.47348c0-.67383-.249-1.45508-1.1084-1.45508-.7666,0-1.377.60058-1.377,1.81152V42.3641h-.72754Z"/><path d="M63.55274,40.3182v-2.832h.72754V40.367c0,.70313.19043,1.48926,1.02539,1.48926a1.56649,1.56649,0,0,0,1.45507-1.66992v-2.7002h.72266V42.3641h-.72266v-.82519a1.736,1.736,0,0,1-1.5332.93261C64.02637,42.47152,63.55274,41.534,63.55274,40.3182Z"/><path d="M69.30469,41.07016V38.08187h-.78125v-.5957h.78613V36.38754l.72266-.68359v1.78222h1.23535v.5957H70.03223V41.075c0,.53711.26367.78613.62012.78613a1.16368,1.16368,0,0,0,.48828-.12207v.625a1.966,1.966,0,0,1-.6543.09766C69.62207,42.46176,69.30469,41.90512,69.30469,41.07016Z"/><path d="M71.97559,39.91293a2.32135,2.32135,0,1,1,4.624,0,2.323,2.323,0,1,1-4.624,0Zm3.88672,0c0-.97656-.48828-1.92383-1.57227-1.92383s-1.582.94727-1.582,1.92383c0,.98633.498,1.94336,1.57227,1.94336C75.374,41.85629,75.86231,40.87973,75.86231,39.91293Z"/></g></g><g id="L_entrata-in-guerra" data-name="L entrata-in-guerra" style="isolation:isolate"><g style="isolation:isolate"><path d="M32.52637,57.46469H36.9502v.66894H33.30274V60.5848h3.21777v.64942H33.30274V64.3641h-.77637Z"/><path d="M37.40918,61.91293a2.32135,2.32135,0,1,1,4.624,0,2.323,2.323,0,1,1-4.624,0Zm3.88672,0c0-.97656-.48828-1.92383-1.57227-1.92383s-1.582.94727-1.582,1.92383c0,.98633.49805,1.94336,1.57227,1.94336C40.80762,63.85629,41.2959,62.87973,41.2959,61.91293Z"/><path d="M43.27344,59.48617H44.001v.86426a1.57164,1.57164,0,0,1,1.44043-.9668,1.26822,1.26822,0,0,1,.78613.25391l-.30762.62988a.88771.88771,0,0,0-.5957-.18555c-.83008,0-1.333.66895-1.333,1.84571V64.3641h-.71777Z"/><path d="M47.165,59.48617h.73731V60.243a1.52917,1.52917,0,0,1,2.81738.16113,1.6181,1.6181,0,0,1,1.51855-1.02051c1.20606,0,1.69434.93262,1.69434,2.0166V64.3641h-.73731V61.47348c0-.66407-.20019-1.46973-1.04492-1.46973-.80078,0-1.23535.85449-1.23535,1.65527V64.3641h-.74219V61.454c0-.67383-.19043-1.4502-1.02539-1.4502-.81054,0-1.24511.93262-1.24511,1.81641V64.3641H47.165Z"/><path d="M55.0166,63.00668c0-.97656.76172-1.43066,2.14844-1.43066h1.11328c0-.918-.3125-1.55762-1.19629-1.55762a1.60535,1.60535,0,0,0-1.35254.7373l-.53222-.415a2.1639,2.1639,0,0,1,1.84082-.957,1.79669,1.79669,0,0,1,1.90918,1.98731V64.3641h-.62012l-.01465-.94238a1.82116,1.82116,0,0,1-1.71387,1.04A1.43023,1.43023,0,0,1,55.0166,63.00668Zm3.26172-.87891H57.2334c-.9668,0-1.46484.249-1.46484.89844,0,.58106.40527.82031.91308.82031A1.68294,1.68294,0,0,0,58.27832,62.12777Z"/></g></g><g id="I-racconti" style="isolation:isolate"><g style="isolation:isolate"><path d="M31.89649,84.59652l.72265-.21484a1.53671,1.53671,0,0,0,1.665,1.37207c.8252,0,1.39649-.40039,1.39649-1.23535,0-1.78223-3.3252-1.3086-3.3252-3.4082a1.758,1.758,0,0,1,1.87012-1.74805,2.10083,2.10083,0,0,1,1.91406,1.07422l-.58105.39062a1.45408,1.45408,0,0,0-1.34278-.7959,1.0387,1.0387,0,0,0-1.1084,1.01075c0,1.54785,3.3252,1.1914,3.3252,3.418a1.98148,1.98148,0,0,1-2.15332,1.98243A2.24987,2.24987,0,0,1,31.89649,84.59652Z"/><path d="M37.64844,79.46469h.83008v.9375h-.83008Zm.05371,2.02148h.72266V86.3641h-.72266Z"/><path d="M43.83985,87.11605c0,1.00586-.92774,1.48438-1.95313,1.48438-1.26953,0-2.10449-.73242-2.10449-1.66016a1.28653,1.28653,0,0,1,.01465-.18554l.70312-.708a1.08167,1.08167,0,0,1-.62012-1.001.99792.99792,0,0,1,.35645-.80566,1.62544,1.62544,0,0,1-.41016-1.11328,1.70462,1.70462,0,0,1,1.82618-1.709,1.85521,1.85521,0,0,1,1.25976.4541l.73242-.66406.415.51758-.78613.62012a1.76143,1.76143,0,0,1,.18066.791,1.66123,1.66123,0,0,1-1.80175,1.67969,2.07913,2.07913,0,0,1-.918-.20508.46249.46249,0,0,0-.21.376c0,.50293.61035.64941,1.30371.74707C42.81934,85.86605,43.83985,86.01254,43.83985,87.11605Zm-.64942.05372c0-.625-.74219-.64942-1.57715-.791a4.94868,4.94868,0,0,1-.58105-.12695l-.57617.70312c.00488.50293.542,1.001,1.48925,1.001C42.58985,87.9559,43.19043,87.702,43.19043,87.16977Zm-2.62207-4.05762a1.07688,1.07688,0,1,0,2.15332,0,1.07743,1.07743,0,1,0-2.15332,0Z"/><path d="M45.0752,81.48617h.72754v.84961a1.75163,1.75163,0,0,1,1.57226-.9375c1.16211,0,1.63574.92774,1.63574,2.00195V86.3641h-.72265V83.47348c0-.67383-.249-1.45508-1.1084-1.45508-.7666,0-1.377.60058-1.377,1.81152V86.3641H45.0752Z"/><path d="M50.49512,79.46469h.83008v.9375h-.83008Zm.05371,2.02148h.72266V86.3641h-.72266Z"/><path d="M52.97559,82.08187h-.71778v-.5957h.72754c0-1.10351.40039-2.124,1.792-2.124a1.80891,1.80891,0,0,1,1.3916.60058l-.39551.49317a1.30223,1.30223,0,0,0-1.01074-.47363c-.87891,0-1.10352.69824-1.10352,1.5039h2.5V86.3641H55.5V82.08187H53.65918V86.3641h-.68359Z"/><path d="M57.42383,83.93246c0-1.30859.70313-2.54883,2.10938-2.54883a1.99973,1.99973,0,0,1,1.89941,1.29883l-.68848.293a1.23416,1.23416,0,0,0-1.21093-.97656c-1.01075,0-1.36231,1.05468-1.36231,1.93359,0,.89356.3418,1.91406,1.36231,1.91406a1.22355,1.22355,0,0,0,1.21093-.95215l.63477.27344A1.86063,1.86063,0,0,1,59.543,86.46176C58.13672,86.46176,57.42383,85.2557,57.42383,83.93246Z"/><path d="M62.06738,85.00668c0-.97656.76172-1.43066,2.14844-1.43066H65.3291c0-.918-.3125-1.55762-1.19629-1.55762a1.60531,1.60531,0,0,0-1.35253.7373l-.53223-.415a2.16391,2.16391,0,0,1,1.84082-.957,1.79669,1.79669,0,0,1,1.90918,1.98731V86.3641h-.62012l-.01465-.94238a1.82115,1.82115,0,0,1-1.71386,1.04A1.43024,1.43024,0,0,1,62.06738,85.00668Zm3.26172-.87891H64.28418c-.9668,0-1.46484.249-1.46484.89844,0,.58106.40527.82031.91308.82031A1.68294,1.68294,0,0,0,65.3291,84.12777Z"/><path d="M67.68262,85.07016V82.08187h-.78125v-.5957h.78613V80.38754l.72266-.68359v1.78222h1.23535v.5957H68.41016V85.075c0,.53711.26367.78613.62012.78613a1.16368,1.16368,0,0,0,.48828-.12207v.625a1.966,1.966,0,0,1-.6543.09766C68,86.46176,67.68262,85.90512,67.68262,85.07016Z"/><path d="M70.35352,83.91293a2.32135,2.32135,0,1,1,4.624,0,2.323,2.323,0,1,1-4.624,0Zm3.88672,0c0-.97656-.48828-1.92383-1.57227-1.92383s-1.582.94727-1.582,1.92383c0,.98633.49805,1.94336,1.57227,1.94336C73.752,85.85629,74.24024,84.87973,74.24024,83.91293Z"/></g></g><path id="Rectangle_13359" data-name="Rectangle 13359" d="M5.012,34.364h11a5,5,0,0,1,5,5h0a5,5,0,0,1-5,5h-11a5,5,0,0,1-5-5h0A5,5,0,0,1,5.012,34.364Z" fill="#ffd93b" opacity="0.4" style="isolation:isolate"/><path id="Rectangle_13360" data-name="Rectangle 13360" d="M5.012,56.364h11a5,5,0,0,1,5,5h0a5,5,0,0,1-5,5h-11a5,5,0,0,1-5-5h0A5,5,0,0,1,5.012,56.364Z" fill="#10bed2" opacity="0.4" style="isolation:isolate"/><path id="Rectangle_13361" data-name="Rectangle 13361" d="M5.012,78.364h11a5,5,0,0,1,5,5h0a5,5,0,0,1-5,5h-11a5,5,0,0,1-5-5h0A5,5,0,0,1,5.012,78.364Z" fill="#f36" opacity="0.4" style="isolation:isolate"/></g></svg>