<svg xmlns="http://www.w3.org/2000/svg" xmlns:xlink="http://www.w3.org/1999/xlink" width="600" height="157" viewBox="0 0 600 157">
  <defs>
    <clipPath id="clip-path">
      <path id="Path_148032" data-name="Path 148032" d="M209,35.5h9c3.3,0,6,2.25,6,5h0c0,2.75-2.7,5-6,5h-9c-3.3,0-6-2.25-6-5h0C203,37.75,205.7,35.5,209,35.5Z" transform="translate(-203 -35.5)"/>
    </clipPath>
    <clipPath id="clip-path-2">
      <path id="Path_148034" data-name="Path 148034" d="M209,55.8h9c3.3,0,6,2.25,6,5h0c0,2.75-2.7,5-6,5h-9c-3.3,0-6-2.25-6-5h0C203,58.05,205.7,55.8,209,55.8Z" transform="translate(-203 -55.8)"/>
    </clipPath>
    <clipPath id="clip-path-3">
      <path id="Path_148036" data-name="Path 148036" d="M209,76.2h9c3.3,0,6,2.25,6,5h0c0,2.75-2.7,5-6,5h-9c-3.3,0-6-2.25-6-5h0C203,78.45,205.7,76.2,209,76.2Z" transform="translate(-203 -76.2)"/>
    </clipPath>
    <clipPath id="clip-path-4">
      <path id="Path_157232" data-name="Path 157232" d="M209.5,35.5h9c3.3,0,6,2.25,6,5h0c0,2.75-2.7,5-6,5h-9c-3.3,0-6-2.25-6-5h0C203.5,37.75,206.2,35.5,209.5,35.5Z" transform="translate(-203.5 -35.5)"/>
    </clipPath>
    <clipPath id="clip-legenda_04">
      <rect width="600" height="157"/>
    </clipPath>
  </defs>
  <g id="legenda_04" clip-path="url(#clip-legenda_04)">
    <path id="Path_161698" data-name="Path 161698" d="M.932,0h.694V-5.607L3.489-.541h.765L6.122-5.607V0h.69V-6.209H5.678L3.858-1.222,2.065-6.209H.932Zm9.18.062a2.153,2.153,0,0,0,1.679-.686l-.448-.36a1.534,1.534,0,0,1-1.235.47A1.3,1.3,0,0,1,8.824-1.973h3.059c.009-.079.022-.224.022-.338,0-1.011-.439-2.14-1.863-2.14A2.024,2.024,0,0,0,8.134-2.171,1.99,1.99,0,0,0,10.112.062ZM8.824-2.509c.035-.747.413-1.4,1.217-1.4.9,0,1.217.7,1.235,1.4Zm5.432,2.6A1.77,1.77,0,0,0,14.845,0V-.562a1.047,1.047,0,0,1-.439.11c-.321,0-.558-.224-.558-.708V-3.854h1.112V-4.39H13.847v-1.6l-.65.615v.989h-.708v.536h.7v2.689C13.192-.413,13.478.088,14.256.088ZM15.913,0h.646V-2.193c0-1.059.453-1.661,1.2-1.661a.8.8,0,0,1,.536.167l.277-.567a1.141,1.141,0,0,0-.708-.229,1.414,1.414,0,0,0-1.3.87V-4.39h-.655Zm4.843.088a2.158,2.158,0,0,0,2.092-2.294,2.145,2.145,0,0,0-2.092-2.276,2.125,2.125,0,0,0-2.07,2.276A2.138,2.138,0,0,0,20.755.088Zm0-.545c-.967,0-1.415-.861-1.415-1.749s.448-1.731,1.424-1.731,1.415.853,1.415,1.731S21.744-.457,20.76-.457Zm3.212,2.382h.659V-.6a1.575,1.575,0,0,0,1.345.686c1.178,0,1.789-1.042,1.789-2.285s-.615-2.285-1.793-2.285a1.569,1.569,0,0,0-1.34.69v-.6h-.659ZM25.835-.466c-.892,0-1.266-.835-1.266-1.731s.374-1.731,1.266-1.731,1.27.844,1.27,1.731S26.714-.466,25.835-.466Zm4.8.554a2.158,2.158,0,0,0,2.092-2.294,2.145,2.145,0,0,0-2.092-2.276,2.125,2.125,0,0,0-2.07,2.276A2.138,2.138,0,0,0,30.634.088Zm0-.545c-.967,0-1.415-.861-1.415-1.749s.448-1.731,1.424-1.731,1.415.853,1.415,1.731S31.623-.457,30.639-.457Zm4.069-.026c-.2,0-.215-.237-.215-.25V-6.209h-.664V-.888c0,.527.048.976.712.976A2.143,2.143,0,0,0,35.134,0V-.527A2.6,2.6,0,0,1,34.708-.483Zm1.371-4.882h.747v-.844h-.747ZM36.127,0h.65V-4.39h-.65Z" transform="translate(298.295 34.867)"/>
    <g id="Group_24045" data-name="Group 24045" transform="translate(269.086 28.299)" clip-path="url(#clip-path)">
      <line id="Line_7689" data-name="Line 7689" x2="107.1" y2="89.25" transform="translate(-66 1.625)" fill="none" stroke="#f36" stroke-miterlimit="10" stroke-width="0.5"/>
      <line id="Line_7690" data-name="Line 7690" x2="107.1" y2="89.25" transform="translate(-62.4 0.125)" fill="none" stroke="#f36" stroke-miterlimit="10" stroke-width="0.5"/>
      <line id="Line_7691" data-name="Line 7691" x2="107.1" y2="89.25" transform="translate(-58.8 -1.375)" fill="none" stroke="#f36" stroke-miterlimit="10" stroke-width="0.5"/>
      <line id="Line_7692" data-name="Line 7692" x2="107.1" y2="89.25" transform="translate(-55.2 -2.875)" fill="none" stroke="#f36" stroke-miterlimit="10" stroke-width="0.5"/>
      <line id="Line_7693" data-name="Line 7693" x2="107.1" y2="89.25" transform="translate(-51.6 -4.375)" fill="none" stroke="#f36" stroke-miterlimit="10" stroke-width="0.5"/>
      <line id="Line_7694" data-name="Line 7694" x2="107.1" y2="89.25" transform="translate(-48 -5.875)" fill="none" stroke="#f36" stroke-miterlimit="10" stroke-width="0.5"/>
      <line id="Line_7695" data-name="Line 7695" x2="107.1" y2="89.25" transform="translate(-44.4 -7.375)" fill="none" stroke="#f36" stroke-miterlimit="10" stroke-width="0.5"/>
      <line id="Line_7696" data-name="Line 7696" x2="107.1" y2="89.25" transform="translate(-40.8 -8.875)" fill="none" stroke="#f36" stroke-miterlimit="10" stroke-width="0.5"/>
      <line id="Line_7697" data-name="Line 7697" x2="107.1" y2="89.25" transform="translate(-37.2 -10.375)" fill="none" stroke="#f36" stroke-miterlimit="10" stroke-width="0.5"/>
      <line id="Line_7698" data-name="Line 7698" x2="107.1" y2="89.25" transform="translate(-33.6 -11.875)" fill="none" stroke="#f36" stroke-miterlimit="10" stroke-width="0.5"/>
      <line id="Line_7699" data-name="Line 7699" x2="107.1" y2="89.25" transform="translate(-30 -13.375)" fill="none" stroke="#f36" stroke-miterlimit="10" stroke-width="0.5"/>
      <line id="Line_7700" data-name="Line 7700" x2="107.1" y2="89.25" transform="translate(-26.4 -14.875)" fill="none" stroke="#f36" stroke-miterlimit="10" stroke-width="0.5"/>
      <line id="Line_7701" data-name="Line 7701" x2="107.1" y2="89.25" transform="translate(-22.8 -16.375)" fill="none" stroke="#f36" stroke-miterlimit="10" stroke-width="0.5"/>
      <line id="Line_7702" data-name="Line 7702" x2="107.1" y2="89.25" transform="translate(-19.2 -17.875)" fill="none" stroke="#f36" stroke-miterlimit="10" stroke-width="0.5"/>
      <line id="Line_7703" data-name="Line 7703" x2="107.1" y2="89.25" transform="translate(-15.6 -19.375)" fill="none" stroke="#f36" stroke-miterlimit="10" stroke-width="0.5"/>
      <line id="Line_7704" data-name="Line 7704" x2="107.1" y2="89.25" transform="translate(-12 -20.875)" fill="none" stroke="#f36" stroke-miterlimit="10" stroke-width="0.5"/>
      <line id="Line_7705" data-name="Line 7705" x2="107.1" y2="89.25" transform="translate(-8.4 -22.375)" fill="none" stroke="#f36" stroke-miterlimit="10" stroke-width="0.5"/>
      <line id="Line_7706" data-name="Line 7706" x2="107.1" y2="89.25" transform="translate(-4.8 -23.875)" fill="none" stroke="#f36" stroke-miterlimit="10" stroke-width="0.5"/>
      <line id="Line_7707" data-name="Line 7707" x2="107.1" y2="89.25" transform="translate(-1.2 -25.375)" fill="none" stroke="#f36" stroke-miterlimit="10" stroke-width="0.5"/>
      <line id="Line_7708" data-name="Line 7708" x2="107.1" y2="89.25" transform="translate(2.4 -26.875)" fill="none" stroke="#f36" stroke-miterlimit="10" stroke-width="0.5"/>
      <line id="Line_7709" data-name="Line 7709" x2="107.1" y2="89.25" transform="translate(6 -28.375)" fill="none" stroke="#f36" stroke-miterlimit="10" stroke-width="0.5"/>
    </g>
    <path id="Path_148033" data-name="Path 148033" d="M209,35.5h9c3.3,0,6,2.25,6,5h0c0,2.75-2.7,5-6,5h-9c-3.3,0-6-2.25-6-5h0C203,37.75,205.7,35.5,209,35.5Z" transform="translate(66.086 -7.201)" fill="none" stroke="#f36" stroke-miterlimit="10" stroke-width="0.5"/>
    <path id="Path_161699" data-name="Path 161699" d="M2.619,0h.6L5.542-6.209H4.83L2.918-.923,1.006-6.209H.277Zm3.9-5.366h.747v-.844H6.517ZM6.565,0h.65V-4.39h-.65Zm3.16.088a1.639,1.639,0,0,0,1.542-.936L11.281,0h.558V-2.694a1.617,1.617,0,0,0-1.718-1.789,1.948,1.948,0,0,0-1.657.861l.479.374a1.445,1.445,0,0,1,1.217-.664c.8,0,1.077.576,1.077,1.4h-1C8.987-2.509,8.3-2.1,8.3-1.222A1.287,1.287,0,0,0,9.725.088ZM9.8-.466c-.457,0-.822-.215-.822-.738,0-.584.448-.809,1.318-.809h.94A1.515,1.515,0,0,1,9.8-.466Zm4.983-.1c-.624-.088-1.173-.22-1.173-.672a.416.416,0,0,1,.189-.338,1.871,1.871,0,0,0,.826.185A1.5,1.5,0,0,0,16.247-2.9a1.585,1.585,0,0,0-.163-.712l.708-.558-.374-.466-.659.6a1.67,1.67,0,0,0-1.134-.409,1.534,1.534,0,0,0-1.644,1.538,1.463,1.463,0,0,0,.369,1,.9.9,0,0,0-.321.725.973.973,0,0,0,.558.9l-.633.637a1.158,1.158,0,0,0-.013.167c0,.835.751,1.494,1.894,1.494.923,0,1.758-.431,1.758-1.336C16.594-.316,15.675-.448,14.783-.567Zm-.167-3.366a.953.953,0,0,1,.971,1.006.92.92,0,0,1-.971.989.917.917,0,0,1-.967-.989A.959.959,0,0,1,14.616-3.933Zm.272,5.366c-.853,0-1.336-.448-1.34-.9L14.067-.1a4.453,4.453,0,0,0,.523.114c.751.127,1.419.149,1.419.712C16.009,1.2,15.469,1.433,14.889,1.433Zm4.395-2c-.624-.088-1.173-.22-1.173-.672a.416.416,0,0,1,.189-.338,1.871,1.871,0,0,0,.826.185A1.5,1.5,0,0,0,20.747-2.9a1.585,1.585,0,0,0-.163-.712l.708-.558-.374-.466-.659.6a1.67,1.67,0,0,0-1.134-.409,1.534,1.534,0,0,0-1.644,1.538,1.463,1.463,0,0,0,.369,1,.9.9,0,0,0-.321.725.973.973,0,0,0,.558.9l-.633.637a1.158,1.158,0,0,0-.013.167c0,.835.751,1.494,1.894,1.494.923,0,1.758-.431,1.758-1.336C21.094-.316,20.175-.448,19.283-.567Zm-.167-3.366a.953.953,0,0,1,.971,1.006.92.92,0,0,1-.971.989.917.917,0,0,1-.967-.989A.959.959,0,0,1,19.116-3.933Zm.272,5.366c-.853,0-1.336-.448-1.34-.9L18.567-.1a4.453,4.453,0,0,0,.523.114c.751.127,1.419.149,1.419.712C20.509,1.2,19.969,1.433,19.389,1.433Zm2.777-6.8h.747v-.844h-.747ZM22.214,0h.65V-4.39h-.65ZM26.06.088a2.158,2.158,0,0,0,2.092-2.294A2.145,2.145,0,0,0,26.06-4.482a2.125,2.125,0,0,0-2.07,2.276A2.138,2.138,0,0,0,26.06.088Zm0-.545c-.967,0-1.415-.861-1.415-1.749s.448-1.731,1.424-1.731,1.415.853,1.415,1.731S27.048-.457,26.064-.457Z" transform="translate(298.295 59.34)"/>
    <g id="Group_24047" data-name="Group 24047" transform="translate(269.086 51.737)" clip-path="url(#clip-path-2)">
      <line id="Line_7710" data-name="Line 7710" x2="107.1" y2="89.25" transform="translate(-66 1.75)" fill="none" stroke="#8131f4" stroke-miterlimit="10" stroke-width="0.5"/>
      <line id="Line_7711" data-name="Line 7711" x2="107.1" y2="89.25" transform="translate(-62.4 0.25)" fill="none" stroke="#8131f4" stroke-miterlimit="10" stroke-width="0.5"/>
      <line id="Line_7712" data-name="Line 7712" x2="107.1" y2="89.25" transform="translate(-58.8 -1.25)" fill="none" stroke="#8131f4" stroke-miterlimit="10" stroke-width="0.5"/>
      <line id="Line_7713" data-name="Line 7713" x2="107.1" y2="89.25" transform="translate(-55.2 -2.75)" fill="none" stroke="#8131f4" stroke-miterlimit="10" stroke-width="0.5"/>
      <line id="Line_7714" data-name="Line 7714" x2="107.1" y2="89.25" transform="translate(-51.6 -4.25)" fill="none" stroke="#8131f4" stroke-miterlimit="10" stroke-width="0.5"/>
      <line id="Line_7715" data-name="Line 7715" x2="107.1" y2="89.25" transform="translate(-48 -5.75)" fill="none" stroke="#8131f4" stroke-miterlimit="10" stroke-width="0.5"/>
      <line id="Line_7716" data-name="Line 7716" x2="107.1" y2="89.25" transform="translate(-44.4 -7.25)" fill="none" stroke="#8131f4" stroke-miterlimit="10" stroke-width="0.5"/>
      <line id="Line_7717" data-name="Line 7717" x2="107.1" y2="89.25" transform="translate(-40.8 -8.75)" fill="none" stroke="#8131f4" stroke-miterlimit="10" stroke-width="0.5"/>
      <line id="Line_7718" data-name="Line 7718" x2="107.1" y2="89.25" transform="translate(-37.2 -10.25)" fill="none" stroke="#8131f4" stroke-miterlimit="10" stroke-width="0.5"/>
      <line id="Line_7719" data-name="Line 7719" x2="107.1" y2="89.25" transform="translate(-33.6 -11.75)" fill="none" stroke="#8131f4" stroke-miterlimit="10" stroke-width="0.5"/>
      <line id="Line_7720" data-name="Line 7720" x2="107.1" y2="89.25" transform="translate(-30 -13.25)" fill="none" stroke="#8131f4" stroke-miterlimit="10" stroke-width="0.5"/>
      <line id="Line_7721" data-name="Line 7721" x2="107.1" y2="89.25" transform="translate(-26.4 -14.75)" fill="none" stroke="#8131f4" stroke-miterlimit="10" stroke-width="0.5"/>
      <line id="Line_7722" data-name="Line 7722" x2="107.1" y2="89.25" transform="translate(-22.8 -16.25)" fill="none" stroke="#8131f4" stroke-miterlimit="10" stroke-width="0.5"/>
      <line id="Line_7723" data-name="Line 7723" x2="107.1" y2="89.25" transform="translate(-19.2 -17.75)" fill="none" stroke="#8131f4" stroke-miterlimit="10" stroke-width="0.5"/>
      <line id="Line_7724" data-name="Line 7724" x2="107.1" y2="89.25" transform="translate(-15.6 -19.25)" fill="none" stroke="#8131f4" stroke-miterlimit="10" stroke-width="0.5"/>
      <line id="Line_7725" data-name="Line 7725" x2="107.1" y2="89.25" transform="translate(-12 -20.75)" fill="none" stroke="#8131f4" stroke-miterlimit="10" stroke-width="0.5"/>
      <line id="Line_7726" data-name="Line 7726" x2="107.1" y2="89.25" transform="translate(-8.4 -22.25)" fill="none" stroke="#8131f4" stroke-miterlimit="10" stroke-width="0.5"/>
      <line id="Line_7727" data-name="Line 7727" x2="107.1" y2="89.25" transform="translate(-4.8 -23.75)" fill="none" stroke="#8131f4" stroke-miterlimit="10" stroke-width="0.5"/>
      <line id="Line_7728" data-name="Line 7728" x2="107.1" y2="89.25" transform="translate(-1.2 -25.25)" fill="none" stroke="#8131f4" stroke-miterlimit="10" stroke-width="0.5"/>
      <line id="Line_7729" data-name="Line 7729" x2="107.1" y2="89.25" transform="translate(2.4 -26.75)" fill="none" stroke="#8131f4" stroke-miterlimit="10" stroke-width="0.5"/>
      <line id="Line_7730" data-name="Line 7730" x2="107.1" y2="89.25" transform="translate(6 -28.25)" fill="none" stroke="#8131f4" stroke-miterlimit="10" stroke-width="0.5"/>
    </g>
    <path id="Path_148035" data-name="Path 148035" d="M209,55.8h9c3.3,0,6,2.25,6,5h0c0,2.75-2.7,5-6,5h-9c-3.3,0-6-2.25-6-5h0C203,58.05,205.7,55.8,209,55.8Z" transform="translate(66.086 -4.063)" fill="none" stroke="#8131f4" stroke-miterlimit="10" stroke-width="0.5"/>
    <path id="Path_161700" data-name="Path 161700" d="M.932,0h.694V-2.8H2.672c1.2,0,1.986-.6,1.986-1.692,0-1.068-.782-1.714-1.986-1.714H.932Zm.694-3.423V-5.59H2.672c.831,0,1.3.4,1.3,1.094,0,.716-.47,1.072-1.3,1.072ZM6.557.088A1.639,1.639,0,0,0,8.1-.848L8.112,0H8.67V-2.694A1.617,1.617,0,0,0,6.952-4.482,1.948,1.948,0,0,0,5.3-3.621l.479.374a1.445,1.445,0,0,1,1.217-.664c.8,0,1.077.576,1.077,1.4h-1c-1.248,0-1.934.409-1.934,1.288A1.287,1.287,0,0,0,6.557.088Zm.075-.554c-.457,0-.822-.215-.822-.738,0-.584.448-.809,1.318-.809h.94A1.515,1.515,0,0,1,6.631-.466Zm5.045.527a2.153,2.153,0,0,0,1.679-.686l-.448-.36a1.534,1.534,0,0,1-1.235.47,1.3,1.3,0,0,1-1.283-1.459h3.059c.009-.079.022-.224.022-.338,0-1.011-.439-2.14-1.863-2.14A2.024,2.024,0,0,0,9.7-2.171,1.99,1.99,0,0,0,11.676.062ZM10.389-2.509c.035-.747.413-1.4,1.217-1.4.9,0,1.217.7,1.235,1.4Zm5.427,2.6a1.369,1.369,0,0,0,1.507-1.34c0-1.613-2.369-1.081-2.369-2.092,0-.36.294-.606.769-.606a1.035,1.035,0,0,1,.98.62l.483-.277a1.56,1.56,0,0,0-1.441-.875,1.253,1.253,0,0,0-1.393,1.217c0,1.49,2.333.91,2.333,2.092,0,.475-.365.725-.861.725a1.114,1.114,0,0,1-1.094-.835L14.177-1A1.7,1.7,0,0,0,15.816.088Zm3.542,0A1.639,1.639,0,0,0,20.9-.848L20.914,0h.558V-2.694a1.617,1.617,0,0,0-1.718-1.789,1.948,1.948,0,0,0-1.657.861l.479.374a1.445,1.445,0,0,1,1.217-.664c.8,0,1.077.576,1.077,1.4h-1c-1.248,0-1.934.409-1.934,1.288A1.287,1.287,0,0,0,19.358.088Zm.075-.554c-.457,0-.822-.215-.822-.738,0-.584.448-.809,1.318-.809h.94A1.515,1.515,0,0,1,19.433-.466Zm4.983-.1c-.624-.088-1.173-.22-1.173-.672a.416.416,0,0,1,.189-.338,1.871,1.871,0,0,0,.826.185A1.5,1.5,0,0,0,25.879-2.9a1.585,1.585,0,0,0-.163-.712l.708-.558-.374-.466-.659.6a1.67,1.67,0,0,0-1.134-.409,1.534,1.534,0,0,0-1.644,1.538,1.463,1.463,0,0,0,.369,1,.9.9,0,0,0-.321.725.973.973,0,0,0,.558.9l-.633.637a1.158,1.158,0,0,0-.013.167c0,.835.751,1.494,1.894,1.494.923,0,1.758-.431,1.758-1.336C26.227-.316,25.308-.448,24.416-.567Zm-.167-3.366a.953.953,0,0,1,.971,1.006.92.92,0,0,1-.971.989.917.917,0,0,1-.967-.989A.959.959,0,0,1,24.249-3.933Zm.272,5.366c-.853,0-1.336-.448-1.34-.9L23.7-.1a4.453,4.453,0,0,0,.523.114c.751.127,1.419.149,1.419.712C25.642,1.2,25.1,1.433,24.521,1.433Zm4.395-2c-.624-.088-1.173-.22-1.173-.672a.416.416,0,0,1,.189-.338,1.871,1.871,0,0,0,.826.185A1.5,1.5,0,0,0,30.379-2.9a1.585,1.585,0,0,0-.163-.712l.708-.558-.374-.466-.659.6a1.67,1.67,0,0,0-1.134-.409,1.534,1.534,0,0,0-1.644,1.538,1.463,1.463,0,0,0,.369,1,.9.9,0,0,0-.321.725.973.973,0,0,0,.558.9l-.633.637a1.158,1.158,0,0,0-.013.167c0,.835.751,1.494,1.894,1.494.923,0,1.758-.431,1.758-1.336C30.727-.316,29.808-.448,28.916-.567Zm-.167-3.366a.953.953,0,0,1,.971,1.006.92.92,0,0,1-.971.989.917.917,0,0,1-.967-.989A.959.959,0,0,1,28.749-3.933Zm.272,5.366c-.853,0-1.336-.448-1.34-.9L28.2-.1a4.453,4.453,0,0,0,.523.114c.751.127,1.419.149,1.419.712C30.142,1.2,29.6,1.433,29.021,1.433Zm2.777-6.8h.747v-.844H31.8ZM31.847,0h.65V-4.39h-.65Zm3.845.088a2.158,2.158,0,0,0,2.092-2.294,2.145,2.145,0,0,0-2.092-2.276,2.125,2.125,0,0,0-2.07,2.276A2.138,2.138,0,0,0,35.692.088Zm0-.545c-.967,0-1.415-.861-1.415-1.749s.448-1.731,1.424-1.731,1.415.853,1.415,1.731S36.681-.457,35.7-.457Zm7.154.545A1.675,1.675,0,0,0,44.5-1.077l-.571-.246a1.1,1.1,0,0,1-1.09.857c-.918,0-1.226-.918-1.226-1.723s.316-1.74,1.226-1.74a1.111,1.111,0,0,1,1.09.879l.62-.264a1.8,1.8,0,0,0-1.709-1.169c-1.266,0-1.9,1.116-1.9,2.294A2.019,2.019,0,0,0,42.851.088Zm4.373,0a2.158,2.158,0,0,0,2.092-2.294,2.145,2.145,0,0,0-2.092-2.276,2.125,2.125,0,0,0-2.07,2.276A2.138,2.138,0,0,0,47.224.088Zm0-.545c-.967,0-1.415-.861-1.415-1.749s.448-1.731,1.424-1.731,1.415.853,1.415,1.731S48.212-.457,47.228-.457Zm4.421.545a1.369,1.369,0,0,0,1.507-1.34c0-1.613-2.369-1.081-2.369-2.092,0-.36.294-.606.769-.606a1.035,1.035,0,0,1,.98.62l.483-.277a1.56,1.56,0,0,0-1.441-.875,1.253,1.253,0,0,0-1.393,1.217c0,1.49,2.333.91,2.333,2.092,0,.475-.365.725-.861.725a1.114,1.114,0,0,1-1.094-.835L50.01-1A1.7,1.7,0,0,0,51.649.088ZM54.246,0h.664V-2.29c0-.8.391-1.635,1.121-1.635.751,0,.923.7.923,1.305V0h.668V-2.435c0-.721.391-1.49,1.112-1.49.76,0,.94.725.94,1.323V0h.664V-2.667c0-.976-.439-1.815-1.525-1.815a1.456,1.456,0,0,0-1.367.918,1.318,1.318,0,0,0-1.34-.918,1.313,1.313,0,0,0-1.2.773V-4.39h-.664Zm7.427-5.366h.747v-.844h-.747ZM61.721,0h.65V-4.39h-.65ZM65.43.088a1.675,1.675,0,0,0,1.652-1.165l-.571-.246a1.1,1.1,0,0,1-1.09.857c-.918,0-1.226-.918-1.226-1.723s.316-1.74,1.226-1.74a1.111,1.111,0,0,1,1.09.879l.62-.264a1.8,1.8,0,0,0-1.709-1.169c-1.266,0-1.9,1.116-1.9,2.294A2.019,2.019,0,0,0,65.43.088Zm4.373,0a2.158,2.158,0,0,0,2.092-2.294A2.145,2.145,0,0,0,69.8-4.482a2.125,2.125,0,0,0-2.07,2.276A2.138,2.138,0,0,0,69.8.088Zm0-.545c-.967,0-1.415-.861-1.415-1.749s.448-1.731,1.424-1.731,1.415.853,1.415,1.731S70.792-.457,69.807-.457Z" transform="translate(298.295 82.824)"/>
    <g id="Group_24049" data-name="Group 24049" transform="translate(269.086 75.291)" clip-path="url(#clip-path-3)">
      <line id="Line_7731" data-name="Line 7731" x2="107.1" y2="89.25" transform="translate(-66 1.625)" fill="none" stroke="#0505c4" stroke-miterlimit="10" stroke-width="0.5"/>
      <line id="Line_7732" data-name="Line 7732" x2="107.1" y2="89.25" transform="translate(-62.4 0.125)" fill="none" stroke="#0505c4" stroke-miterlimit="10" stroke-width="0.5"/>
      <line id="Line_7733" data-name="Line 7733" x2="107.1" y2="89.25" transform="translate(-58.8 -1.375)" fill="none" stroke="#0505c4" stroke-miterlimit="10" stroke-width="0.5"/>
      <line id="Line_7734" data-name="Line 7734" x2="107.1" y2="89.25" transform="translate(-55.2 -2.875)" fill="none" stroke="#0505c4" stroke-miterlimit="10" stroke-width="0.5"/>
      <line id="Line_7735" data-name="Line 7735" x2="107.1" y2="89.25" transform="translate(-51.6 -4.375)" fill="none" stroke="#0505c4" stroke-miterlimit="10" stroke-width="0.5"/>
      <line id="Line_7736" data-name="Line 7736" x2="107.1" y2="89.25" transform="translate(-48 -5.875)" fill="none" stroke="#0505c4" stroke-miterlimit="10" stroke-width="0.5"/>
      <line id="Line_7737" data-name="Line 7737" x2="107.1" y2="89.25" transform="translate(-44.4 -7.375)" fill="none" stroke="#0505c4" stroke-miterlimit="10" stroke-width="0.5"/>
      <line id="Line_7738" data-name="Line 7738" x2="107.1" y2="89.25" transform="translate(-40.8 -8.875)" fill="none" stroke="#0505c4" stroke-miterlimit="10" stroke-width="0.5"/>
      <line id="Line_7739" data-name="Line 7739" x2="107.1" y2="89.25" transform="translate(-37.2 -10.375)" fill="none" stroke="#0505c4" stroke-miterlimit="10" stroke-width="0.5"/>
      <line id="Line_7740" data-name="Line 7740" x2="107.1" y2="89.25" transform="translate(-33.6 -11.875)" fill="none" stroke="#0505c4" stroke-miterlimit="10" stroke-width="0.5"/>
      <line id="Line_7741" data-name="Line 7741" x2="107.1" y2="89.25" transform="translate(-30 -13.375)" fill="none" stroke="#0505c4" stroke-miterlimit="10" stroke-width="0.5"/>
      <line id="Line_7742" data-name="Line 7742" x2="107.1" y2="89.25" transform="translate(-26.4 -14.875)" fill="none" stroke="#0505c4" stroke-miterlimit="10" stroke-width="0.5"/>
      <line id="Line_7743" data-name="Line 7743" x2="107.1" y2="89.25" transform="translate(-22.8 -16.375)" fill="none" stroke="#0505c4" stroke-miterlimit="10" stroke-width="0.5"/>
      <line id="Line_7744" data-name="Line 7744" x2="107.1" y2="89.25" transform="translate(-19.2 -17.875)" fill="none" stroke="#0505c4" stroke-miterlimit="10" stroke-width="0.5"/>
      <line id="Line_7745" data-name="Line 7745" x2="107.1" y2="89.25" transform="translate(-15.6 -19.375)" fill="none" stroke="#0505c4" stroke-miterlimit="10" stroke-width="0.5"/>
      <line id="Line_7746" data-name="Line 7746" x2="107.1" y2="89.25" transform="translate(-12 -20.875)" fill="none" stroke="#0505c4" stroke-miterlimit="10" stroke-width="0.5"/>
      <line id="Line_7747" data-name="Line 7747" x2="107.1" y2="89.25" transform="translate(-8.4 -22.375)" fill="none" stroke="#0505c4" stroke-miterlimit="10" stroke-width="0.5"/>
      <line id="Line_7748" data-name="Line 7748" x2="107.1" y2="89.25" transform="translate(-4.8 -23.875)" fill="none" stroke="#0505c4" stroke-miterlimit="10" stroke-width="0.5"/>
      <line id="Line_7749" data-name="Line 7749" x2="107.1" y2="89.25" transform="translate(-1.2 -25.375)" fill="none" stroke="#0505c4" stroke-miterlimit="10" stroke-width="0.5"/>
      <line id="Line_7750" data-name="Line 7750" x2="107.1" y2="89.25" transform="translate(2.4 -26.875)" fill="none" stroke="#0505c4" stroke-miterlimit="10" stroke-width="0.5"/>
      <line id="Line_7751" data-name="Line 7751" x2="107.1" y2="89.25" transform="translate(6 -28.375)" fill="none" stroke="#0505c4" stroke-miterlimit="10" stroke-width="0.5"/>
    </g>
    <path id="Path_148037" data-name="Path 148037" d="M209,76.2h9c3.3,0,6,2.25,6,5h0c0,2.75-2.7,5-6,5h-9c-3.3,0-6-2.25-6-5h0C203,78.45,205.7,76.2,209,76.2Z" transform="translate(66.086 -0.909)" fill="none" stroke="#0505c4" stroke-miterlimit="10" stroke-width="0.5"/>
    <path id="Path_161695" data-name="Path 161695" d="M2.941,0h1.2V-7.248h2.7V-8.279H.24v1.031h2.7Zm5.3,0H13.67V-1.107H9.428V-3.615h3.8V-4.67h-3.8V-7.213H13.67V-8.279H8.238Zm7.277,0h1.16V-6.873L18.961-.721h1.213l2.285-6.152V0h1.16V-8.279H21.873L19.559-1.986l-2.3-6.293H15.516ZM25.939,0h1.184V-3.6h1.266c1.646,0,2.777-.82,2.777-2.32s-1.131-2.361-2.777-2.361H25.939Zm1.184-4.687v-2.5h1.266c1.061,0,1.6.469,1.6,1.271s-.533,1.23-1.6,1.23Zm8.889,4.8c2.625,0,3.85-1.98,3.85-4.26S38.637-8.4,36.012-8.4s-3.844,1.986-3.844,4.26S33.393.117,36.012.117Zm0-1.072c-1.893,0-2.625-1.512-2.625-3.187s.732-3.182,2.625-3.182,2.637,1.512,2.637,3.182S37.91-.955,36.012-.955ZM44.666,0H46.9c2.725,0,4.248-1.482,4.248-4.078,0-2.707-1.482-4.2-4.236-4.2H44.666Zm1.189-1.09V-7.2h1.031c2.121,0,3.07,1,3.07,3.053,0,2.18-1.318,3.053-3.2,3.053ZM52.91,0h5.432V-1.107H54.1V-3.615h3.8V-4.67H54.1V-7.213h4.242V-8.279H52.91Zm7.277,0h4.734V-1.107H61.377V-8.279H60.188Zm6.146,0h4.734V-1.107H67.523V-8.279H66.334Zm5.373,0h1.3l.639-1.8h3.439L77.719,0H79L75.814-8.279h-.9Zm2.338-2.848,1.324-3.68,1.313,3.68ZM85.652.094a2.482,2.482,0,0,0,2.719-2.437c0-2.707-4-2.232-4-3.949a1.105,1.105,0,0,1,1.2-1.061,1.634,1.634,0,0,1,1.482.92l.949-.6A2.64,2.64,0,0,0,85.6-8.4a2.219,2.219,0,0,0-2.4,2.186c0,2.6,4,2.033,4,3.973,0,.809-.592,1.277-1.535,1.277A1.711,1.711,0,0,1,83.8-2.531l-1.154.311A2.848,2.848,0,0,0,85.652.094ZM91.752,0h1.2V-7.248h2.7V-8.279h-6.6v1.031h2.7Zm8.326.117c2.625,0,3.85-1.98,3.85-4.26S102.7-8.4,100.078-8.4s-3.844,1.986-3.844,4.26S97.459.117,100.078.117Zm0-1.072c-1.893,0-2.625-1.512-2.625-3.187s.732-3.182,2.625-3.182,2.637,1.512,2.637,3.182S101.977-.955,100.078-.955ZM105.7.012h1.189V-3.627h1.189L110.133.012h1.377l-2.273-3.773a2.181,2.181,0,0,0,1.7-2.15,2.453,2.453,0,0,0-2.725-2.361H105.7Zm1.2-4.664V-7.213h1.324c.92,0,1.535.492,1.535,1.313,0,.768-.562,1.207-1.406,1.248ZM112.975,0h1.189V-8.279h-1.189Zm2.578,0h1.3l.639-1.8h3.439l.633,1.8h1.283L119.66-8.279h-.9Zm2.338-2.848,1.324-3.68,1.313,3.68Z" transform="translate(0 13)"/>
    <path id="Path_161696" data-name="Path 161696" d="M4.453.117a3.622,3.622,0,0,0,3.5-2.291l-1.1-.463A2.318,2.318,0,0,1,4.482-1C2.572-1,1.793-2.443,1.793-4.184c0-1.67.773-3.105,2.666-3.105A2.226,2.226,0,0,1,6.838-5.672l1.1-.457A3.494,3.494,0,0,0,4.488-8.414C1.811-8.414.615-6.428.615-4.148.615-1.846,1.84.117,4.453.117Zm8.256,0c2.625,0,3.85-1.98,3.85-4.26S15.334-8.4,12.709-8.4,8.865-6.416,8.865-4.143,10.09.117,12.709.117Zm0-1.072c-1.893,0-2.625-1.512-2.625-3.187s.732-3.182,2.625-3.182,2.637,1.512,2.637,3.182S14.607-.955,12.709-.955ZM18.328,0h1.16V-6.6l3.5,6.6h1.424V-8.279h-1.16v6.592L19.734-8.279H18.328ZM28.518,0h1.2V-7.248h2.7V-8.279h-6.6v1.031h2.7Zm5.3,0h5.432V-1.107H35V-3.615h3.8V-4.67H35V-7.213h4.242V-8.279H33.814Zm9.5.094a2.482,2.482,0,0,0,2.719-2.437c0-2.707-4-2.232-4-3.949a1.105,1.105,0,0,1,1.2-1.061,1.634,1.634,0,0,1,1.482.92l.949-.6a2.64,2.64,0,0,0-2.4-1.365,2.219,2.219,0,0,0-2.4,2.186c0,2.6,4,2.033,4,3.973,0,.809-.592,1.277-1.535,1.277a1.711,1.711,0,0,1-1.863-1.564l-1.154.311A2.848,2.848,0,0,0,43.318.094ZM49.418,0h1.2V-7.248h2.7V-8.279h-6.6v1.031h2.7Zm5.3,0H55.9V-8.279H54.715Z" transform="translate(269.086 12)"/>
    <g id="Group_24681" data-name="Group 24681">
      <path id="Path_148042" data-name="Path 148042" d="M7.5,97.2h9c3.3,0,6,2.25,6,5h0c0,2.75-2.7,5-6,5h-9c-3.3,0-6-2.25-6-5h0C1.5,99.45,4.2,97.2,7.5,97.2Z" transform="translate(0 2.337)" fill="none" stroke="#000" stroke-miterlimit="10" stroke-width="0.25"/>
      <path id="Path_148043" data-name="Path 148043" d="M7.5,128h9c3.3,0,6,2.25,6,5h0c0,2.75-2.7,5-6,5h-9c-3.3,0-6-2.25-6-5h0C1.5,130.25,4.2,128,7.5,128Z" transform="translate(0 7.099)" fill="none" stroke="red" stroke-miterlimit="10" stroke-width="0.5" stroke-dasharray="2 2"/>
      <path id="Path_161705" data-name="Path 161705" d="M.932,0H4.285V-.637H1.63V-6.209h-.7Zm5.59.1A1.562,1.562,0,0,0,7.9-.743V0h.65V-4.39H7.9v2.43a1.41,1.41,0,0,1-1.31,1.5c-.751,0-.923-.708-.923-1.34V-4.39H5.014v2.549C5.014-.747,5.44.1,6.521.1ZM11.707.088A2.158,2.158,0,0,0,13.8-2.206a2.145,2.145,0,0,0-2.092-2.276,2.125,2.125,0,0,0-2.07,2.276A2.138,2.138,0,0,0,11.707.088Zm0-.545c-.967,0-1.415-.861-1.415-1.749s.448-1.731,1.424-1.731,1.415.853,1.415,1.731S12.7-.457,11.711-.457Zm4.781-.11c-.624-.088-1.173-.22-1.173-.672a.416.416,0,0,1,.189-.338,1.871,1.871,0,0,0,.826.185A1.5,1.5,0,0,0,17.956-2.9a1.585,1.585,0,0,0-.163-.712l.708-.558-.374-.466-.659.6a1.67,1.67,0,0,0-1.134-.409,1.534,1.534,0,0,0-1.644,1.538,1.463,1.463,0,0,0,.369,1,.9.9,0,0,0-.321.725.973.973,0,0,0,.558.9l-.633.637a1.158,1.158,0,0,0-.013.167c0,.835.751,1.494,1.894,1.494.923,0,1.758-.431,1.758-1.336C18.3-.316,17.385-.448,16.493-.567Zm-.167-3.366A.953.953,0,0,1,17.3-2.927a.92.92,0,0,1-.971.989.917.917,0,0,1-.967-.989A.959.959,0,0,1,16.326-3.933ZM16.6,1.433c-.853,0-1.336-.448-1.34-.9L15.776-.1A4.453,4.453,0,0,0,16.3.013c.751.127,1.419.149,1.419.712C17.719,1.2,17.178,1.433,16.6,1.433ZM19.424,0h.65V-2.369a1.383,1.383,0,0,1,1.31-1.485c.756,0,.932.655.932,1.252V0h.664V-2.707c0-.936-.426-1.762-1.477-1.762a1.714,1.714,0,0,0-1.428.8v-2.54h-.65Zm4.891-5.366h.747v-.844h-.747ZM24.363,0h.65V-4.39h-.65Zm5.73.088A1.369,1.369,0,0,0,31.6-1.252c0-1.613-2.369-1.081-2.369-2.092,0-.36.294-.606.769-.606a1.035,1.035,0,0,1,.98.62l.483-.277a1.56,1.56,0,0,0-1.441-.875A1.253,1.253,0,0,0,28.63-3.265c0,1.49,2.333.91,2.333,2.092,0,.475-.365.725-.861.725a1.114,1.114,0,0,1-1.094-.835L28.455-1A1.7,1.7,0,0,0,30.094.088Zm4.135,0a1.675,1.675,0,0,0,1.652-1.165l-.571-.246a1.1,1.1,0,0,1-1.09.857c-.918,0-1.226-.918-1.226-1.723s.316-1.74,1.226-1.74a1.111,1.111,0,0,1,1.09.879l.62-.264A1.8,1.8,0,0,0,34.22-4.482c-1.266,0-1.9,1.116-1.9,2.294A2.019,2.019,0,0,0,34.229.088Zm4.373,0a2.158,2.158,0,0,0,2.092-2.294A2.145,2.145,0,0,0,38.6-4.482a2.125,2.125,0,0,0-2.07,2.276A2.138,2.138,0,0,0,38.6.088Zm0-.545c-.967,0-1.415-.861-1.415-1.749s.448-1.731,1.424-1.731,1.415.853,1.415,1.731S39.59-.457,38.606-.457ZM41.81,0h.664V-2.29c0-.8.391-1.635,1.121-1.635.751,0,.923.7.923,1.305V0h.668V-2.435c0-.721.391-1.49,1.112-1.49.76,0,.94.725.94,1.323V0H47.9V-2.667c0-.976-.439-1.815-1.525-1.815a1.456,1.456,0,0,0-1.367.918,1.318,1.318,0,0,0-1.34-.918,1.313,1.313,0,0,0-1.2.773V-4.39H41.81Zm7.475,1.925h.659V-.6a1.575,1.575,0,0,0,1.345.686c1.178,0,1.789-1.042,1.789-2.285s-.615-2.285-1.793-2.285a1.569,1.569,0,0,0-1.34.69v-.6h-.659ZM51.148-.466c-.892,0-1.266-.835-1.266-1.731s.374-1.731,1.266-1.731,1.27.844,1.27,1.731S52.027-.466,51.148-.466Zm4.113.554A1.639,1.639,0,0,0,56.8-.848L56.817,0h.558V-2.694a1.617,1.617,0,0,0-1.718-1.789A1.948,1.948,0,0,0,54-3.621l.479.374A1.445,1.445,0,0,1,55.7-3.911c.8,0,1.077.576,1.077,1.4h-1c-1.248,0-1.934.409-1.934,1.288A1.287,1.287,0,0,0,55.261.088Zm.075-.554c-.457,0-.822-.215-.822-.738,0-.584.448-.809,1.318-.809h.94A1.515,1.515,0,0,1,55.336-.466ZM58.742,0h.646V-2.193c0-1.059.453-1.661,1.2-1.661a.8.8,0,0,1,.536.167l.277-.567a1.141,1.141,0,0,0-.708-.229,1.414,1.414,0,0,0-1.3.87V-4.39h-.655Zm4.469.088a1.369,1.369,0,0,0,1.507-1.34c0-1.613-2.369-1.081-2.369-2.092,0-.36.294-.606.769-.606a1.035,1.035,0,0,1,.98.62l.483-.277a1.56,1.56,0,0,0-1.441-.875,1.253,1.253,0,0,0-1.393,1.217c0,1.49,2.333.91,2.333,2.092,0,.475-.365.725-.861.725a1.114,1.114,0,0,1-1.094-.835L61.572-1A1.7,1.7,0,0,0,63.211.088Zm2.558-5.454h.747v-.844h-.747ZM65.817,0h.65V-4.39h-.65Zm7.33-6.209v2.417a1.572,1.572,0,0,0-1.375-.69c-1.121,0-1.758,1.028-1.758,2.285S70.651.088,71.776.088a1.561,1.561,0,0,0,1.375-.7L73.165,0H73.8V-6.209Zm-1.2,5.744c-.879,0-1.257-.835-1.257-1.731s.378-1.731,1.257-1.731c.9,0,1.257.844,1.257,1.731S72.839-.466,71.943-.466Zm4.364.554a1.639,1.639,0,0,0,1.542-.936L77.862,0h.558V-2.694A1.617,1.617,0,0,0,76.7-4.482a1.948,1.948,0,0,0-1.657.861l.479.374a1.445,1.445,0,0,1,1.217-.664c.8,0,1.077.576,1.077,1.4h-1c-1.248,0-1.934.409-1.934,1.288A1.287,1.287,0,0,0,76.307.088Zm.075-.554c-.457,0-.822-.215-.822-.738,0-.584.448-.809,1.318-.809h.94A1.515,1.515,0,0,1,76.381-.466Zm4.271-.018c-.2,0-.215-.237-.215-.25V-6.209h-.664V-.888c0,.527.048.976.712.976A2.143,2.143,0,0,0,81.079,0V-.527A2.6,2.6,0,0,1,80.653-.483Zm2.276,0c-.2,0-.215-.237-.215-.25V-6.209H82.05V-.888c0,.527.048.976.712.976A2.143,2.143,0,0,0,83.355,0V-.527A2.6,2.6,0,0,1,82.929-.483Zm2.426.571A1.639,1.639,0,0,0,86.9-.848L86.911,0h.558V-2.694A1.617,1.617,0,0,0,85.75-4.482a1.948,1.948,0,0,0-1.657.861l.479.374a1.445,1.445,0,0,1,1.217-.664c.8,0,1.077.576,1.077,1.4h-1c-1.248,0-1.934.409-1.934,1.288A1.287,1.287,0,0,0,85.355.088Zm.075-.554c-.457,0-.822-.215-.822-.738,0-.584.448-.809,1.318-.809h.94A1.515,1.515,0,0,1,85.43-.466ZM91.213,0h.655V-2.281c0-1.09.549-1.63,1.239-1.63.773,0,1,.7,1,1.31V0h.65V-2.667c0-.967-.426-1.8-1.472-1.8a1.576,1.576,0,0,0-1.415.844V-4.39h-.655Zm5.941.088A1.639,1.639,0,0,0,98.7-.848L98.71,0h.558V-2.694A1.617,1.617,0,0,0,97.55-4.482a1.948,1.948,0,0,0-1.657.861l.479.374a1.445,1.445,0,0,1,1.217-.664c.8,0,1.077.576,1.077,1.4h-1c-1.248,0-1.934.409-1.934,1.288A1.287,1.287,0,0,0,97.154.088Zm.075-.554c-.457,0-.822-.215-.822-.738,0-.584.448-.809,1.318-.809h.94A1.515,1.515,0,0,1,97.229-.466ZM100.635,0h.646V-2.193c0-1.059.453-1.661,1.2-1.661a.8.8,0,0,1,.536.167l.277-.567a1.141,1.141,0,0,0-.708-.229,1.414,1.414,0,0,0-1.3.87V-4.39h-.655Zm3.5,0h.646V-2.193c0-1.059.453-1.661,1.2-1.661a.8.8,0,0,1,.536.167l.277-.567a1.141,1.141,0,0,0-.708-.229,1.414,1.414,0,0,0-1.3.87V-4.39h-.655Zm4.526.088a1.639,1.639,0,0,0,1.542-.936l.013.848h.558V-2.694a1.617,1.617,0,0,0-1.718-1.789,1.948,1.948,0,0,0-1.657.861l.479.374a1.445,1.445,0,0,1,1.217-.664c.8,0,1.077.576,1.077,1.4h-1c-1.248,0-1.934.409-1.934,1.288A1.287,1.287,0,0,0,108.664.088Zm.075-.554c-.457,0-.822-.215-.822-.738,0-.584.448-.809,1.318-.809h.94A1.515,1.515,0,0,1,108.738-.466ZM115.15-4.39h-3.327v.536h2.558L111.7-.5V0h3.454V-.562h-2.637L115.15-3.85Zm1.042-.976h.747v-.844h-.747ZM116.24,0h.65V-4.39h-.65Zm3.845.088a2.158,2.158,0,0,0,2.092-2.294,2.145,2.145,0,0,0-2.092-2.276,2.125,2.125,0,0,0-2.07,2.276A2.138,2.138,0,0,0,120.085.088Zm0-.545c-.967,0-1.415-.861-1.415-1.749s.448-1.731,1.424-1.731,1.415.853,1.415,1.731S121.074-.457,120.089-.457Zm3.2.457h.655V-2.281c0-1.09.549-1.63,1.239-1.63.773,0,1,.7,1,1.31V0h.65V-2.667c0-.967-.426-1.8-1.472-1.8a1.576,1.576,0,0,0-1.415.844V-4.39h-.655Zm6.557.062a2.153,2.153,0,0,0,1.679-.686l-.448-.36a1.534,1.534,0,0,1-1.235.47,1.3,1.3,0,0,1-1.283-1.459h3.059c.009-.079.022-.224.022-.338,0-1.011-.439-2.14-1.863-2.14a2.024,2.024,0,0,0-1.907,2.281A1.99,1.99,0,0,0,129.85.062Zm-1.288-2.571c.035-.747.413-1.4,1.217-1.4.9,0,1.217.7,1.235,1.4Z" transform="translate(29 142.667)"/>
      <path id="Path_161704" data-name="Path 161704" d="M.277,8h.76l.475-1.349H4.241L4.715,8h.747L3.146,1.791H2.61ZM1.745,6.014l1.138-3.2L4,6.014ZM6.442,8h.664V5.71c0-.8.391-1.635,1.121-1.635.751,0,.923.7.923,1.305V8h.668V5.565c0-.721.391-1.49,1.112-1.49.76,0,.94.725.94,1.323V8h.664V5.333c0-.976-.439-1.815-1.525-1.815a1.456,1.456,0,0,0-1.367.918,1.376,1.376,0,0,0-2.536-.145V3.61H6.442Zm9.5.088c1.143,0,1.767-1.033,1.767-2.285s-.624-2.285-1.771-2.285a1.572,1.572,0,0,0-1.362.69V1.791h-.655V8h.655V7.4A1.573,1.573,0,0,0,15.939,8.088Zm-.171-.554c-.879,0-1.252-.835-1.252-1.731s.374-1.731,1.252-1.731,1.283.844,1.283,1.731S16.651,7.534,15.768,7.534Zm3.059-4.9h.747V1.791h-.747ZM18.875,8h.65V3.61h-.65Zm3.775.062a2.153,2.153,0,0,0,1.679-.686l-.448-.36a1.534,1.534,0,0,1-1.235.47,1.3,1.3,0,0,1-1.283-1.459H24.42c.009-.079.022-.224.022-.338,0-1.011-.439-2.14-1.863-2.14a2.024,2.024,0,0,0-1.907,2.281A1.99,1.99,0,0,0,22.649,8.062ZM21.362,5.491c.035-.747.413-1.4,1.217-1.4.9,0,1.217.7,1.235,1.4ZM25.572,8h.655V5.719c0-1.09.549-1.63,1.239-1.63.773,0,1,.7,1,1.31V8h.65V5.333c0-.967-.426-1.8-1.472-1.8a1.576,1.576,0,0,0-1.415.844V3.61h-.655Zm6.139.088A1.77,1.77,0,0,0,32.3,8V7.438a1.047,1.047,0,0,1-.439.11c-.321,0-.558-.224-.558-.708V4.146h1.112V3.61H31.3v-1.6l-.65.615V3.61h-.708v.536h.7V6.835C30.647,7.587,30.933,8.088,31.711,8.088Zm2.769,0a1.639,1.639,0,0,0,1.542-.936L36.035,8h.558V5.306a1.617,1.617,0,0,0-1.718-1.789,1.948,1.948,0,0,0-1.657.861l.479.374a1.445,1.445,0,0,1,1.217-.664c.8,0,1.077.576,1.077,1.4h-1c-1.248,0-1.934.409-1.934,1.288A1.287,1.287,0,0,0,34.479,8.088Zm.075-.554c-.457,0-.822-.215-.822-.738,0-.584.448-.809,1.318-.809h.94A1.515,1.515,0,0,1,34.554,7.534ZM40.966,3.61H37.639v.536H40.2L37.512,7.5V8h3.454V7.438H38.329L40.966,4.15Zm1.042-.976h.747V1.791h-.747ZM42.056,8h.65V3.61h-.65Zm3.845.088a2.158,2.158,0,0,0,2.092-2.294,2.089,2.089,0,1,0-4.162,0A2.138,2.138,0,0,0,45.9,8.088Zm0-.545c-.967,0-1.415-.861-1.415-1.749s.448-1.731,1.424-1.731,1.415.853,1.415,1.731S46.89,7.543,45.905,7.543Zm3.2.457h.655V5.719c0-1.09.549-1.63,1.239-1.63.773,0,1,.7,1,1.31V8h.65V5.333c0-.967-.426-1.8-1.472-1.8a1.576,1.576,0,0,0-1.415.844V3.61h-.655Zm4.878-5.366h.747V1.791h-.747ZM54.035,8h.65V3.61h-.65Zm7.33-6.209V4.208a1.572,1.572,0,0,0-1.375-.69c-1.121,0-1.758,1.028-1.758,2.285s.637,2.285,1.762,2.285a1.561,1.561,0,0,0,1.375-.7L61.383,8h.637V1.791Zm-1.2,5.744C59.282,7.534,58.9,6.7,58.9,5.8s.378-1.731,1.257-1.731c.9,0,1.257.844,1.257,1.731S61.058,7.534,60.161,7.534Zm3.309-4.9h.747V1.791H63.47ZM63.519,8h.65V3.61h-.65Zm5.735.088A1.77,1.77,0,0,0,69.842,8V7.438a1.047,1.047,0,0,1-.439.11c-.321,0-.558-.224-.558-.708V4.146h1.112V3.61H68.845v-1.6l-.65.615V3.61h-.708v.536h.7V6.835C68.19,7.587,68.476,8.088,69.253,8.088Zm3.34-.026a2.153,2.153,0,0,0,1.679-.686l-.448-.36a1.534,1.534,0,0,1-1.235.47,1.3,1.3,0,0,1-1.283-1.459h3.059c.009-.079.022-.224.022-.338,0-1.011-.439-2.14-1.863-2.14a2.024,2.024,0,0,0-1.907,2.281A1.99,1.99,0,0,0,72.593,8.062ZM71.306,5.491c.035-.747.413-1.4,1.217-1.4.9,0,1.217.7,1.235,1.4Zm5.427,2.6a1.369,1.369,0,0,0,1.507-1.34c0-1.613-2.369-1.081-2.369-2.092,0-.36.294-.606.769-.606a1.035,1.035,0,0,1,.98.62l.483-.277a1.56,1.56,0,0,0-1.441-.875A1.253,1.253,0,0,0,75.27,4.735c0,1.49,2.333.91,2.333,2.092,0,.475-.365.725-.861.725a1.114,1.114,0,0,1-1.094-.835L75.094,7A1.7,1.7,0,0,0,76.733,8.088Zm3.819,0A1.77,1.77,0,0,0,81.141,8V7.438a1.047,1.047,0,0,1-.439.11c-.321,0-.558-.224-.558-.708V4.146h1.112V3.61H80.143v-1.6l-.65.615V3.61h-.708v.536h.7V6.835C79.488,7.587,79.774,8.088,80.552,8.088Zm1.705-5.454H83V1.791h-.747ZM82.305,8h.65V3.61h-.65Zm4.474-5.366h.747V1.791h-.747ZM86.827,8h.65V3.61h-.65Zm2.136,0h.655V5.719c0-1.09.549-1.63,1.239-1.63.773,0,1,.7,1,1.31V8h.65V5.333c0-.967-.426-1.8-1.472-1.8a1.576,1.576,0,0,0-1.415.844V3.61h-.655Zm8.868.088a1.675,1.675,0,0,0,1.652-1.165l-.571-.246a1.1,1.1,0,0,1-1.09.857c-.918,0-1.226-.918-1.226-1.723s.316-1.74,1.226-1.74a1.111,1.111,0,0,1,1.09.879l.62-.264a1.8,1.8,0,0,0-1.709-1.169c-1.266,0-1.9,1.116-1.9,2.294A2.019,2.019,0,0,0,97.831,8.088Zm4.052.009a1.562,1.562,0,0,0,1.38-.839V8h.65V3.61h-.65V6.04a1.41,1.41,0,0,1-1.31,1.5c-.751,0-.923-.708-.923-1.34V3.61h-.655V6.159C100.375,7.253,100.8,8.1,101.883,8.1Zm3.472-5.462h.747V1.791h-.747ZM105.4,8h.65V3.61h-.65Zm4.522,1.925h.659V7.4a1.575,1.575,0,0,0,1.345.686c1.178,0,1.789-1.042,1.789-2.285s-.615-2.285-1.793-2.285a1.569,1.569,0,0,0-1.34.69v-.6h-.659Zm1.863-2.391c-.892,0-1.266-.835-1.266-1.731s.374-1.731,1.266-1.731,1.27.844,1.27,1.731S112.667,7.534,111.788,7.534ZM114.877,8h.646V5.807c0-1.059.453-1.661,1.2-1.661a.8.8,0,0,1,.536.167l.277-.567a1.141,1.141,0,0,0-.708-.229,1.414,1.414,0,0,0-1.3.87V3.61h-.655Zm4.772.062a2.153,2.153,0,0,0,1.679-.686l-.448-.36a1.534,1.534,0,0,1-1.235.47,1.3,1.3,0,0,1-1.283-1.459h3.059c.009-.079.022-.224.022-.338,0-1.011-.439-2.14-1.863-2.14a2.024,2.024,0,0,0-1.907,2.281A1.99,1.99,0,0,0,119.65,8.062Zm-1.288-2.571c.035-.747.413-1.4,1.217-1.4.9,0,1.217.7,1.235,1.4Zm5.427,2.6a1.369,1.369,0,0,0,1.507-1.34c0-1.613-2.369-1.081-2.369-2.092,0-.36.294-.606.769-.606a1.035,1.035,0,0,1,.98.62l.483-.277a1.56,1.56,0,0,0-1.441-.875,1.253,1.253,0,0,0-1.393,1.217c0,1.49,2.333.91,2.333,2.092,0,.475-.365.725-.861.725a1.114,1.114,0,0,1-1.094-.835L122.15,7A1.7,1.7,0,0,0,123.79,8.088Zm4.2-.026a2.153,2.153,0,0,0,1.679-.686l-.448-.36a1.534,1.534,0,0,1-1.235.47A1.3,1.3,0,0,1,126.7,6.027h3.059c.009-.079.022-.224.022-.338,0-1.011-.439-2.14-1.863-2.14a2.024,2.024,0,0,0-1.907,2.281A1.99,1.99,0,0,0,127.991,8.062ZM126.7,5.491c.035-.747.413-1.4,1.217-1.4.9,0,1.217.7,1.235,1.4ZM130.913,8h.655V5.719c0-1.09.549-1.63,1.239-1.63.773,0,1,.7,1,1.31V8h.65V5.333c0-.967-.426-1.8-1.472-1.8a1.576,1.576,0,0,0-1.415.844V3.61h-.655Zm6.139.088A1.77,1.77,0,0,0,137.641,8V7.438a1.047,1.047,0,0,1-.439.11c-.321,0-.558-.224-.558-.708V4.146h1.112V3.61h-1.112v-1.6l-.65.615V3.61h-.708v.536h.7V6.835C135.989,7.587,136.274,8.088,137.052,8.088Zm3.34-.026a2.153,2.153,0,0,0,1.679-.686l-.448-.36a1.534,1.534,0,0,1-1.235.47A1.3,1.3,0,0,1,139.1,6.027h3.059c.009-.079.022-.224.022-.338,0-1.011-.439-2.14-1.863-2.14a2.024,2.024,0,0,0-1.907,2.281A1.99,1.99,0,0,0,140.392,8.062ZM139.1,5.491c.035-.747.413-1.4,1.217-1.4.9,0,1.217.7,1.235,1.4Zm8.227,2.571a2.153,2.153,0,0,0,1.679-.686l-.448-.36a1.534,1.534,0,0,1-1.235.47,1.3,1.3,0,0,1-1.283-1.459H149.1c.009-.079.022-.224.022-.338,0-1.011-.439-2.14-1.863-2.14a2.024,2.024,0,0,0-1.907,2.281A1.99,1.99,0,0,0,147.331,8.062Zm-1.288-2.571c.035-.747.413-1.4,1.217-1.4.9,0,1.217.7,1.235,1.4Zm6.6,4.434h.659V7.4a1.575,1.575,0,0,0,1.345.686c1.178,0,1.789-1.042,1.789-2.285s-.615-2.285-1.793-2.285a1.569,1.569,0,0,0-1.34.69v-.6h-.659ZM154.5,7.534c-.892,0-1.266-.835-1.266-1.731s.374-1.731,1.266-1.731,1.27.844,1.27,1.731S155.382,7.534,154.5,7.534Zm4.113.554a1.639,1.639,0,0,0,1.542-.936l.013.848h.558V5.306a1.617,1.617,0,0,0-1.718-1.789,1.948,1.948,0,0,0-1.657.861l.479.374a1.445,1.445,0,0,1,1.217-.664c.8,0,1.077.576,1.077,1.4h-1c-1.248,0-1.934.409-1.934,1.288A1.287,1.287,0,0,0,158.616,8.088Zm.075-.554c-.457,0-.822-.215-.822-.738,0-.584.448-.809,1.318-.809h.94A1.515,1.515,0,0,1,158.691,7.534Zm4.623.554a1.369,1.369,0,0,0,1.507-1.34c0-1.613-2.369-1.081-2.369-2.092,0-.36.294-.606.769-.606a1.035,1.035,0,0,1,.98.62l.483-.277a1.56,1.56,0,0,0-1.441-.875,1.253,1.253,0,0,0-1.393,1.217c0,1.49,2.333.91,2.333,2.092,0,.475-.365.725-.861.725a1.114,1.114,0,0,1-1.094-.835L161.675,7A1.7,1.7,0,0,0,163.314,8.088Zm3.814,0a1.369,1.369,0,0,0,1.507-1.34c0-1.613-2.369-1.081-2.369-2.092,0-.36.294-.606.769-.606a1.035,1.035,0,0,1,.98.62l.483-.277a1.56,1.56,0,0,0-1.441-.875,1.253,1.253,0,0,0-1.393,1.217c0,1.49,2.333.91,2.333,2.092,0,.475-.365.725-.861.725a1.114,1.114,0,0,1-1.094-.835L165.489,7A1.7,1.7,0,0,0,167.128,8.088Zm3.542,0a1.639,1.639,0,0,0,1.542-.936l.013.848h.558V5.306a1.617,1.617,0,0,0-1.718-1.789,1.948,1.948,0,0,0-1.657.861l.479.374a1.445,1.445,0,0,1,1.217-.664c.8,0,1.077.576,1.077,1.4h-1c-1.248,0-1.934.409-1.934,1.288A1.287,1.287,0,0,0,170.67,8.088Zm.075-.554c-.457,0-.822-.215-.822-.738,0-.584.448-.809,1.318-.809h.94A1.515,1.515,0,0,1,170.745,7.534Zm4.619.554A1.77,1.77,0,0,0,175.953,8V7.438a1.047,1.047,0,0,1-.439.11c-.321,0-.558-.224-.558-.708V4.146h1.112V3.61h-1.112v-1.6l-.65.615V3.61H173.6v.536h.7V6.835C174.3,7.587,174.586,8.088,175.364,8.088Zm3.41,0a2.158,2.158,0,0,0,2.092-2.294,2.089,2.089,0,1,0-4.162,0A2.138,2.138,0,0,0,178.774,8.088Zm0-.545c-.967,0-1.415-.861-1.415-1.749s.448-1.731,1.424-1.731,1.415.853,1.415,1.731S179.763,7.543,178.778,7.543Zm6.8.545a1.369,1.369,0,0,0,1.507-1.34c0-1.613-2.369-1.081-2.369-2.092,0-.36.294-.606.769-.606a1.035,1.035,0,0,1,.98.62l.483-.277a1.56,1.56,0,0,0-1.441-.875,1.253,1.253,0,0,0-1.393,1.217c0,1.49,2.333.91,2.333,2.092,0,.475-.365.725-.861.725a1.114,1.114,0,0,1-1.094-.835L183.938,7A1.7,1.7,0,0,0,185.577,8.088Zm2.558-5.454h.747V1.791h-.747ZM188.183,8h.65V3.61h-.65ZM.94,19H1.6V15.146H2.856V14.61H1.6v-.7c0-.448.246-.655.584-.655a1.248,1.248,0,0,1,.514.136l.158-.523a1.643,1.643,0,0,0-.721-.167A1.1,1.1,0,0,0,.945,13.872v.738h-.8v.536h.8Zm4.324.088a2.158,2.158,0,0,0,2.092-2.294,2.145,2.145,0,0,0-2.092-2.276,2.125,2.125,0,0,0-2.07,2.276A2.138,2.138,0,0,0,5.265,19.088Zm0-.545c-.967,0-1.415-.861-1.415-1.749s.448-1.731,1.424-1.731,1.415.853,1.415,1.731S6.253,18.543,5.269,18.543Zm3.2.457h.655V16.719c0-1.09.549-1.63,1.239-1.63.773,0,1,.7,1,1.31V19h.65V16.333c0-.967-.426-1.8-1.472-1.8a1.576,1.576,0,0,0-1.415.844V14.61H8.473Zm7.734-6.209v2.417a1.572,1.572,0,0,0-1.375-.69c-1.121,0-1.758,1.028-1.758,2.285s.637,2.285,1.762,2.285a1.561,1.561,0,0,0,1.375-.7l.013.611h.637V12.791ZM15,18.534c-.879,0-1.257-.835-1.257-1.731s.378-1.731,1.257-1.731c.9,0,1.257.844,1.257,1.731S15.9,18.534,15,18.534Zm5.058.554a2.158,2.158,0,0,0,2.092-2.294,2.089,2.089,0,1,0-4.162,0A2.138,2.138,0,0,0,20.061,19.088Zm0-.545c-.967,0-1.415-.861-1.415-1.749s.448-1.731,1.424-1.731,1.415.853,1.415,1.731S21.05,18.543,20.065,18.543Zm3.2.457h.655V16.719c0-1.09.549-1.63,1.239-1.63.773,0,1,.7,1,1.31V19h.65V16.333c0-.967-.426-1.8-1.472-1.8a1.576,1.576,0,0,0-1.415.844V14.61h-.655Zm6.627.088a2.158,2.158,0,0,0,2.092-2.294,2.089,2.089,0,1,0-4.162,0A2.138,2.138,0,0,0,29.9,19.088Zm0-.545c-.967,0-1.415-.861-1.415-1.749s.448-1.731,1.424-1.731,1.415.853,1.415,1.731S30.885,18.543,29.9,18.543Zm5.542-4.909h.747v-.844h-.747ZM35.49,19h.65V14.61h-.65Zm2.136,0h.655V16.719c0-1.09.549-1.63,1.239-1.63.773,0,1,.7,1,1.31V19h.65V16.333c0-.967-.426-1.8-1.472-1.8a1.576,1.576,0,0,0-1.415.844V14.61h-.655Zm8.692.1a1.562,1.562,0,0,0,1.38-.839V19h.65V14.61H47.7v2.43a1.41,1.41,0,0,1-1.31,1.5c-.751,0-.923-.708-.923-1.34V14.61h-.655v2.549C44.811,18.253,45.237,19.1,46.318,19.1ZM49.83,19h.655V16.719c0-1.09.549-1.63,1.239-1.63.773,0,1,.7,1,1.31V19h.65V16.333c0-.967-.426-1.8-1.472-1.8a1.576,1.576,0,0,0-1.415.844V14.61H49.83Zm8.626.088a2.046,2.046,0,0,0,.686-.11v-.756a1.244,1.244,0,0,1-.523.136c-.3,0-.527-.18-.527-.633V15.317H59.2V14.61H58.091V12.887l-.835.686V14.61H56.54v.708h.708v2.5A1.125,1.125,0,0,0,58.456,19.088Zm3.45-.013a2.227,2.227,0,0,0,1.736-.734l-.589-.5a1.427,1.427,0,0,1-1.147.47,1.158,1.158,0,0,1-1.2-1.23h3.037a2.487,2.487,0,0,0,.026-.374,1.93,1.93,0,0,0-1.942-2.175,2.068,2.068,0,0,0-2.021,2.29A2.052,2.052,0,0,0,61.906,19.075Zm-1.2-2.637c.062-.65.4-1.2,1.116-1.2.743,0,1.081.527,1.121,1.2Zm5.353,2.65a1.444,1.444,0,0,0,1.6-1.4c0-1.608-2.3-1.138-2.3-1.991,0-.286.259-.5.672-.5a1,1,0,0,1,.932.593l.646-.356a1.686,1.686,0,0,0-1.547-.914,1.339,1.339,0,0,0-1.5,1.288c0,1.516,2.272.976,2.272,1.951,0,.36-.294.628-.791.628a1.037,1.037,0,0,1-1.02-.778l-.694.325A1.783,1.783,0,0,0,66.063,19.088Zm4.012,0a2.046,2.046,0,0,0,.686-.11v-.756a1.244,1.244,0,0,1-.523.136c-.3,0-.527-.18-.527-.633V15.317h1.112V14.61H69.71V12.887l-.835.686V14.61h-.716v.708h.708v2.5A1.125,1.125,0,0,0,70.075,19.088Zm3.489,0a2.184,2.184,0,0,0,2.167-2.294,2.165,2.165,0,1,0-4.324,0A2.175,2.175,0,0,0,73.564,19.088Zm0-.721c-.9,0-1.283-.765-1.283-1.573s.387-1.551,1.283-1.551,1.283.747,1.283,1.551S74.47,18.367,73.569,18.367Zm5.44.633h.857V16.653c0-.694.369-1.371,1.028-1.371s.817.576.817,1.143V19h.861V16.579c0-.659.369-1.3,1.024-1.3s.831.593.831,1.16V19h.866V16.346c0-.954-.466-1.828-1.573-1.828a1.542,1.542,0,0,0-1.406.853,1.372,1.372,0,0,0-2.448-.185V14.61h-.857Zm7.519-5.3h.918v-.914h-.918Zm.035,5.3h.848V14.61h-.848Zm3.5.088a1.444,1.444,0,0,0,1.6-1.4c0-1.608-2.3-1.138-2.3-1.991,0-.286.259-.5.672-.5a1,1,0,0,1,.932.593l.646-.356a1.686,1.686,0,0,0-1.547-.914,1.339,1.339,0,0,0-1.5,1.288c0,1.516,2.272.976,2.272,1.951,0,.36-.294.628-.791.628a1.037,1.037,0,0,1-1.02-.778l-.694.325A1.783,1.783,0,0,0,90.066,19.088Zm4.012,0a2.046,2.046,0,0,0,.686-.11v-.756a1.244,1.244,0,0,1-.523.136c-.3,0-.527-.18-.527-.633V15.317h1.112V14.61H93.713V12.887l-.835.686V14.61h-.716v.708h.708v2.5A1.125,1.125,0,0,0,94.078,19.088Zm3.489,0a2.184,2.184,0,0,0,2.167-2.294,2.165,2.165,0,1,0-4.324,0A2.175,2.175,0,0,0,97.567,19.088Zm0-.721c-.9,0-1.283-.765-1.283-1.573s.387-1.551,1.283-1.551,1.283.747,1.283,1.551S98.473,18.367,97.572,18.367Z" transform="translate(29 97)"/>
      <path id="Path_157234" data-name="Path 157234" d="M7.654,76.8C4.585,76.8,2,74.514,2,71.8s2.585-5,5.654-5h9.692c3.069,0,5.654,2.286,5.654,5s-2.585,5-5.654,5Z" transform="translate(-1 -5.309)" fill="#dbdbdb"/>
      <g id="Group_24680" data-name="Group 24680">
        <g id="Group_24678" data-name="Group 24678" transform="translate(0.703 26.322)" clip-path="url(#clip-path-4)">
          <line id="Line_7918" data-name="Line 7918" x2="107.1" y2="89.25" transform="translate(-66 1.625)" fill="none" stroke="#0d1b3a" stroke-miterlimit="10" stroke-width="0.25"/>
          <line id="Line_7919" data-name="Line 7919" x2="107.1" y2="89.25" transform="translate(-62.4 0.125)" fill="none" stroke="#0d1b3a" stroke-miterlimit="10" stroke-width="0.25"/>
          <line id="Line_7920" data-name="Line 7920" x2="107.1" y2="89.25" transform="translate(-58.8 -1.375)" fill="none" stroke="#0d1b3a" stroke-miterlimit="10" stroke-width="0.25"/>
          <line id="Line_7921" data-name="Line 7921" x2="107.1" y2="89.25" transform="translate(-55.2 -2.875)" fill="none" stroke="#0d1b3a" stroke-miterlimit="10" stroke-width="0.25"/>
          <line id="Line_7922" data-name="Line 7922" x2="107.1" y2="89.25" transform="translate(-51.6 -4.375)" fill="none" stroke="#0d1b3a" stroke-miterlimit="10" stroke-width="0.25"/>
          <line id="Line_7923" data-name="Line 7923" x2="107.1" y2="89.25" transform="translate(-48 -5.875)" fill="none" stroke="#0d1b3a" stroke-miterlimit="10" stroke-width="0.25"/>
          <line id="Line_7924" data-name="Line 7924" x2="107.1" y2="89.25" transform="translate(-44.4 -7.375)" fill="none" stroke="#0d1b3a" stroke-miterlimit="10" stroke-width="0.25"/>
          <line id="Line_7925" data-name="Line 7925" x2="107.1" y2="89.25" transform="translate(-40.8 -8.875)" fill="none" stroke="#0d1b3a" stroke-miterlimit="10" stroke-width="0.25"/>
          <line id="Line_7926" data-name="Line 7926" x2="107.1" y2="89.25" transform="translate(-37.2 -10.375)" fill="none" stroke="#0d1b3a" stroke-miterlimit="10" stroke-width="0.25"/>
          <line id="Line_7927" data-name="Line 7927" x2="107.1" y2="89.25" transform="translate(-33.6 -11.875)" fill="none" stroke="#0d1b3a" stroke-miterlimit="10" stroke-width="0.25"/>
          <line id="Line_7928" data-name="Line 7928" x2="107.1" y2="89.25" transform="translate(-30 -13.375)" fill="none" stroke="#0d1b3a" stroke-miterlimit="10" stroke-width="0.25"/>
          <line id="Line_7929" data-name="Line 7929" x2="107.1" y2="89.25" transform="translate(-26.4 -14.875)" fill="none" stroke="#0d1b3a" stroke-miterlimit="10" stroke-width="0.25"/>
          <line id="Line_7930" data-name="Line 7930" x2="107.1" y2="89.25" transform="translate(-22.8 -16.375)" fill="none" stroke="#0d1b3a" stroke-miterlimit="10" stroke-width="0.25"/>
          <line id="Line_7931" data-name="Line 7931" x2="107.1" y2="89.25" transform="translate(-19.2 -17.875)" fill="none" stroke="#0d1b3a" stroke-miterlimit="10" stroke-width="0.25"/>
          <line id="Line_7932" data-name="Line 7932" x2="107.1" y2="89.25" transform="translate(-15.6 -19.375)" fill="none" stroke="#0d1b3a" stroke-miterlimit="10" stroke-width="0.25"/>
          <line id="Line_7933" data-name="Line 7933" x2="107.1" y2="89.25" transform="translate(-12 -20.875)" fill="none" stroke="#0d1b3a" stroke-miterlimit="10" stroke-width="0.25"/>
          <line id="Line_7934" data-name="Line 7934" x2="107.1" y2="89.25" transform="translate(-8.4 -22.375)" fill="none" stroke="#0d1b3a" stroke-miterlimit="10" stroke-width="0.25"/>
          <line id="Line_7935" data-name="Line 7935" x2="107.1" y2="89.25" transform="translate(-4.8 -23.875)" fill="none" stroke="#0d1b3a" stroke-miterlimit="10" stroke-width="0.25"/>
          <line id="Line_7936" data-name="Line 7936" x2="107.1" y2="89.25" transform="translate(-1.2 -25.375)" fill="none" stroke="#0d1b3a" stroke-miterlimit="10" stroke-width="0.25"/>
          <line id="Line_7937" data-name="Line 7937" x2="107.1" y2="89.25" transform="translate(2.4 -26.875)" fill="none" stroke="#0d1b3a" stroke-miterlimit="10" stroke-width="0.25"/>
          <line id="Line_7938" data-name="Line 7938" x2="107.1" y2="89.25" transform="translate(6 -28.375)" fill="none" stroke="#0d1b3a" stroke-miterlimit="10" stroke-width="0.25"/>
        </g>
        <path id="Path_157233" data-name="Path 157233" d="M209.5,35.5h9c3.3,0,6,2.25,6,5h0c0,2.75-2.7,5-6,5h-9c-3.3,0-6-2.25-6-5h0C203.5,37.75,206.2,35.5,209.5,35.5Z" transform="translate(-202.797 -9.178)" fill="none" stroke="#0d1b3a" stroke-miterlimit="10" stroke-width="0.25"/>
      </g>
      <path id="Path_161702" data-name="Path 161702" d="M.308,9h.845L1.68,7.5H4.712L5.239,9h.83L3.5,2.1H2.9ZM1.938,6.793,3.2,3.238,4.448,6.793ZM7.158,9H7.9V6.456c0-.884.435-1.816,1.245-1.816.835,0,1.025.776,1.025,1.45V9h.742V6.295c0-.8.435-1.655,1.235-1.655.845,0,1.045.806,1.045,1.47V9h.737V6.036c0-1.084-.488-2.017-1.694-2.017A1.618,1.618,0,0,0,10.713,5.04,1.529,1.529,0,0,0,7.9,4.879V4.122H7.158Zm10.552.1c1.27,0,1.963-1.147,1.963-2.539S18.979,4.02,17.705,4.02a1.747,1.747,0,0,0-1.514.767V2.1h-.728V9h.728V8.336A1.747,1.747,0,0,0,17.71,9.1Zm-.19-.615c-.977,0-1.392-.928-1.392-1.924s.415-1.924,1.392-1.924,1.426.938,1.426,1.924S18.5,8.482,17.52,8.482Zm3.4-5.444h.83V2.1h-.83ZM20.972,9h.723V4.122h-.723Zm4.194.068a2.392,2.392,0,0,0,1.865-.762l-.5-.4a1.7,1.7,0,0,1-1.372.522,1.444,1.444,0,0,1-1.426-1.621h3.4c.01-.088.024-.249.024-.376,0-1.123-.488-2.378-2.07-2.378-1.416,0-2.119,1.226-2.119,2.534A2.211,2.211,0,0,0,25.166,9.068ZM23.735,6.212c.039-.83.459-1.558,1.353-1.558,1,0,1.353.776,1.372,1.558ZM28.413,9h.728V6.466c0-1.211.61-1.812,1.377-1.812.859,0,1.108.781,1.108,1.455V9h.723V6.036c0-1.074-.474-2-1.636-2a1.752,1.752,0,0,0-1.572.938v-.85h-.728Zm6.821.1a1.966,1.966,0,0,0,.654-.1V8.375A1.164,1.164,0,0,1,35.4,8.5c-.356,0-.62-.249-.62-.786V4.718h1.235v-.6H34.78V2.34l-.723.684v1.1h-.786v.6h.781V7.706C34.053,8.541,34.37,9.1,35.234,9.1Zm3.076,0a1.821,1.821,0,0,0,1.714-1.04L40.039,9h.62V6.007A1.8,1.8,0,0,0,38.75,4.02a2.164,2.164,0,0,0-1.841.957l.532.415a1.605,1.605,0,0,1,1.353-.737c.884,0,1.2.64,1.2,1.558H38.877c-1.387,0-2.148.454-2.148,1.431A1.43,1.43,0,0,0,38.311,9.1Zm.083-.615c-.508,0-.913-.239-.913-.82,0-.649.5-.9,1.465-.9H39.99A1.683,1.683,0,0,1,38.394,8.482Zm7.124-4.36h-3.7v.6h2.842L41.68,8.448V9h3.838V8.375h-2.93l2.93-3.652Zm1.157-1.084h.83V2.1h-.83ZM46.729,9h.723V4.122h-.723ZM51,9.1a2.4,2.4,0,0,0,2.324-2.549,2.321,2.321,0,1,0-4.624,0A2.376,2.376,0,0,0,51,9.1Zm0-.605c-1.074,0-1.572-.957-1.572-1.943s.5-1.924,1.582-1.924,1.572.947,1.572,1.924S52.1,8.492,51.006,8.492ZM54.565,9h.728V6.466c0-1.211.61-1.812,1.377-1.812.859,0,1.108.781,1.108,1.455V9H58.5V6.036c0-1.074-.474-2-1.636-2a1.752,1.752,0,0,0-1.572.938v-.85h-.728Zm5.42-5.962h.83V2.1h-.83ZM60.039,9h.723V4.122h-.723Zm8.145-6.9V4.786a1.746,1.746,0,0,0-1.528-.767C65.41,4.02,64.7,5.162,64.7,6.559S65.41,9.1,66.66,9.1a1.734,1.734,0,0,0,1.528-.776L68.2,9h.708V2.1ZM66.846,8.482c-.977,0-1.4-.928-1.4-1.924s.42-1.924,1.4-1.924c1,0,1.4.938,1.4,1.924S67.842,8.482,66.846,8.482Zm3.677-5.444h.83V2.1h-.83ZM70.576,9H71.3V4.122h-.723Zm6.372.1A1.966,1.966,0,0,0,77.6,9V8.375a1.164,1.164,0,0,1-.488.122c-.356,0-.62-.249-.62-.786V4.718h1.235v-.6H76.494V2.34l-.723.684v1.1h-.786v.6h.781V7.706C75.767,8.541,76.084,9.1,76.948,9.1Zm3.711-.029a2.392,2.392,0,0,0,1.865-.762l-.5-.4a1.7,1.7,0,0,1-1.372.522,1.444,1.444,0,0,1-1.426-1.621h3.4c.01-.088.024-.249.024-.376,0-1.123-.488-2.378-2.07-2.378-1.416,0-2.119,1.226-2.119,2.534A2.211,2.211,0,0,0,80.659,9.068ZM79.229,6.212c.039-.83.459-1.558,1.353-1.558,1,0,1.353.776,1.372,1.558ZM85.259,9.1a1.521,1.521,0,0,0,1.675-1.489c0-1.792-2.632-1.2-2.632-2.324,0-.4.327-.674.854-.674a1.15,1.15,0,0,1,1.089.688l.537-.308a1.733,1.733,0,0,0-1.6-.972,1.392,1.392,0,0,0-1.548,1.353c0,1.655,2.593,1.011,2.593,2.324,0,.527-.405.806-.957.806a1.237,1.237,0,0,1-1.216-.928l-.615.317A1.893,1.893,0,0,0,85.259,9.1Zm4.243,0a1.966,1.966,0,0,0,.654-.1V8.375a1.164,1.164,0,0,1-.488.122c-.356,0-.62-.249-.62-.786V4.718h1.235v-.6H89.048V2.34l-.723.684v1.1h-.786v.6h.781V7.706C88.32,8.541,88.638,9.1,89.5,9.1ZM91.4,3.038h.83V2.1H91.4ZM91.45,9h.723V4.122H91.45Zm4.971-5.962h.83V2.1h-.83ZM96.475,9H97.2V4.122h-.723Zm2.373,0h.728V6.466c0-1.211.61-1.812,1.377-1.812.859,0,1.108.781,1.108,1.455V9h.723V6.036c0-1.074-.474-2-1.636-2a1.752,1.752,0,0,0-1.572.938v-.85h-.728Zm9.854.1A1.861,1.861,0,0,0,110.537,7.8L109.9,7.53a1.224,1.224,0,0,1-1.211.952c-1.021,0-1.362-1.021-1.362-1.914s.352-1.934,1.362-1.934a1.234,1.234,0,0,1,1.211.977l.688-.293a2,2,0,0,0-1.9-1.3c-1.406,0-2.109,1.24-2.109,2.549S107.295,9.1,108.7,9.1Zm4.5.01a1.736,1.736,0,0,0,1.533-.933V9h.723V4.122h-.723v2.7a1.566,1.566,0,0,1-1.455,1.67c-.835,0-1.025-.786-1.025-1.489V4.122h-.728V6.954C111.528,8.17,112,9.107,113.2,9.107Zm3.857-6.069h.83V2.1h-.83ZM117.114,9h.723V4.122h-.723Zm4.971-5.962h.83V2.1h-.83ZM122.139,9h.723V4.122h-.723Zm3.335-.537c-.22,0-.239-.264-.239-.278V2.1H124.5V8.014c0,.586.054,1.084.791,1.084a2.381,2.381,0,0,0,.659-.1V8.414A2.891,2.891,0,0,1,125.474,8.463Zm5.566.635a1.966,1.966,0,0,0,.654-.1V8.375a1.164,1.164,0,0,1-.488.122c-.356,0-.62-.249-.62-.786V4.718h1.235v-.6h-1.235V2.34l-.723.684v1.1h-.786v.6h.781V7.706C129.858,8.541,130.176,9.1,131.04,9.1Zm3.711-.029a2.392,2.392,0,0,0,1.865-.762l-.5-.4a1.7,1.7,0,0,1-1.372.522,1.444,1.444,0,0,1-1.426-1.621h3.4c.01-.088.024-.249.024-.376,0-1.123-.488-2.378-2.07-2.378-1.416,0-2.119,1.226-2.119,2.534A2.211,2.211,0,0,0,134.751,9.068ZM133.32,6.212c.039-.83.459-1.558,1.353-1.558,1,0,1.353.776,1.372,1.558ZM138,9h.737V6.456c0-.884.435-1.816,1.245-1.816.835,0,1.025.776,1.025,1.45V9h.742V6.295c0-.8.435-1.655,1.235-1.655.845,0,1.045.806,1.045,1.47V9h.737V6.036c0-1.084-.488-2.017-1.694-2.017a1.618,1.618,0,0,0-1.519,1.021,1.529,1.529,0,0,0-2.817-.161V4.122H138Zm8.306,2.139h.732v-2.8a1.75,1.75,0,0,0,1.494.762c1.309,0,1.987-1.157,1.987-2.539s-.684-2.539-1.992-2.539a1.743,1.743,0,0,0-1.489.767V4.122H146.3Zm2.07-2.656c-.991,0-1.406-.928-1.406-1.924s.415-1.924,1.406-1.924,1.411.938,1.411,1.924S149.351,8.482,148.374,8.482Zm5.332.615a2.4,2.4,0,0,0,2.324-2.549,2.321,2.321,0,1,0-4.624,0A2.376,2.376,0,0,0,153.706,9.1Zm0-.605c-1.074,0-1.572-.957-1.572-1.943s.5-1.924,1.582-1.924,1.572.947,1.572,1.924S154.8,8.492,153.711,8.492ZM163.042,2.1V4.786a1.746,1.746,0,0,0-1.528-.767c-1.245,0-1.953,1.143-1.953,2.539s.708,2.539,1.958,2.539a1.734,1.734,0,0,0,1.528-.776l.015.679h.708V2.1ZM161.7,8.482c-.977,0-1.4-.928-1.4-1.924s.42-1.924,1.4-1.924c1,0,1.4.938,1.4,1.924S162.7,8.482,161.7,8.482Zm5.542.586a2.392,2.392,0,0,0,1.865-.762l-.5-.4a1.7,1.7,0,0,1-1.372.522,1.444,1.444,0,0,1-1.426-1.621h3.4c.01-.088.024-.249.024-.376,0-1.123-.488-2.378-2.07-2.378-1.416,0-2.119,1.226-2.119,2.534A2.211,2.211,0,0,0,167.246,9.068Zm-1.431-2.856c.039-.83.459-1.558,1.353-1.558,1,0,1.353.776,1.372,1.558Zm5.64,2.251c-.22,0-.239-.264-.239-.278V2.1h-.737V8.014c0,.586.054,1.084.791,1.084a2.381,2.381,0,0,0,.659-.1V8.414A2.891,2.891,0,0,1,171.455,8.463Zm2.529,0c-.22,0-.239-.264-.239-.278V2.1h-.737V8.014c0,.586.054,1.084.791,1.084a2.381,2.381,0,0,0,.659-.1V8.414A2.891,2.891,0,0,1,173.984,8.463Zm2.7.635a1.821,1.821,0,0,0,1.714-1.04l.015.942h.62V6.007a1.8,1.8,0,0,0-1.909-1.987,2.164,2.164,0,0,0-1.841.957l.532.415a1.605,1.605,0,0,1,1.353-.737c.884,0,1.2.64,1.2,1.558h-1.113c-1.387,0-2.148.454-2.148,1.431A1.43,1.43,0,0,0,176.68,9.1Zm.083-.615c-.508,0-.913-.239-.913-.82,0-.649.5-.9,1.465-.9h1.045A1.683,1.683,0,0,1,176.763,8.482Zm7.778.615a1.521,1.521,0,0,0,1.675-1.489c0-1.792-2.632-1.2-2.632-2.324,0-.4.327-.674.854-.674a1.15,1.15,0,0,1,1.089.688l.537-.308a1.733,1.733,0,0,0-1.6-.972,1.392,1.392,0,0,0-1.548,1.353c0,1.655,2.593,1.011,2.593,2.324,0,.527-.405.806-.957.806a1.237,1.237,0,0,1-1.216-.928l-.615.317A1.893,1.893,0,0,0,184.541,9.1Zm4.243,0a1.966,1.966,0,0,0,.654-.1V8.375a1.164,1.164,0,0,1-.488.122c-.356,0-.62-.249-.62-.786V4.718h1.235v-.6H188.33V2.34l-.723.684v1.1h-.786v.6h.781V7.706C187.6,8.541,187.92,9.1,188.784,9.1Zm3.789,0A2.4,2.4,0,0,0,194.9,6.549a2.321,2.321,0,1,0-4.624,0A2.376,2.376,0,0,0,192.573,9.1Zm0-.605c-1.074,0-1.572-.957-1.572-1.943s.5-1.924,1.582-1.924,1.572.947,1.572,1.924S193.672,8.492,192.578,8.492Zm3.56.508h.718V6.563c0-1.177.5-1.846,1.333-1.846a.888.888,0,0,1,.6.186l.308-.63a1.268,1.268,0,0,0-.786-.254,1.572,1.572,0,0,0-1.44.967V4.122h-.728Zm3.848-5.962h.83V2.1h-.83ZM200.039,9h.723V4.122h-.723Zm3.511.1a1.821,1.821,0,0,0,1.714-1.04l.015.942h.62V6.007a1.8,1.8,0,0,0-1.909-1.987,2.164,2.164,0,0,0-1.841.957l.532.415a1.605,1.605,0,0,1,1.353-.737c.884,0,1.2.64,1.2,1.558h-1.113c-1.387,0-2.148.454-2.148,1.431A1.43,1.43,0,0,0,203.55,9.1Zm.083-.615c-.508,0-.913-.239-.913-.82,0-.649.5-.9,1.465-.9h1.045A1.683,1.683,0,0,1,203.633,8.482ZM2.148,15.521h.742L1.826,14.1H.889Zm.493,5.547a2.392,2.392,0,0,0,1.865-.762l-.5-.4a1.7,1.7,0,0,1-1.372.522,1.444,1.444,0,0,1-1.426-1.621h3.4c.01-.088.024-.249.024-.376,0-1.123-.488-2.378-2.07-2.378-1.416,0-2.119,1.226-2.119,2.534A2.211,2.211,0,0,0,2.642,21.068ZM1.211,18.212c.039-.83.459-1.558,1.353-1.558,1,0,1.353.776,1.372,1.558ZM10.278,21.1A1.861,1.861,0,0,0,12.114,19.8l-.635-.273a1.224,1.224,0,0,1-1.211.952c-1.021,0-1.362-1.021-1.362-1.914s.352-1.934,1.362-1.934a1.234,1.234,0,0,1,1.211.977l.688-.293a2,2,0,0,0-1.9-1.3c-1.406,0-2.109,1.24-2.109,2.549S8.872,21.1,10.278,21.1Zm4.858,0a2.4,2.4,0,0,0,2.324-2.549,2.321,2.321,0,1,0-4.624,0A2.376,2.376,0,0,0,15.137,21.1Zm0-.605c-1.074,0-1.572-.957-1.572-1.943s.5-1.924,1.582-1.924,1.572.947,1.572,1.924S16.235,20.492,15.142,20.492Zm4.521-.029c-.22,0-.239-.264-.239-.278V14.1h-.737v5.913c0,.586.054,1.084.791,1.084a2.381,2.381,0,0,0,.659-.1v-.586A2.891,2.891,0,0,1,19.663,20.463Zm2.529,0c-.22,0-.239-.264-.239-.278V14.1h-.737v5.913c0,.586.054,1.084.791,1.084a2.381,2.381,0,0,0,.659-.1v-.586A2.891,2.891,0,0,1,22.192,20.463Zm3.467.635a2.4,2.4,0,0,0,2.324-2.549,2.321,2.321,0,1,0-4.624,0A2.376,2.376,0,0,0,25.659,21.1Zm0-.605c-1.074,0-1.572-.957-1.572-1.943s.5-1.924,1.582-1.924,1.572.947,1.572,1.924S26.758,20.492,25.664,20.492Zm5.308.605A1.861,1.861,0,0,0,32.808,19.8l-.635-.273a1.224,1.224,0,0,1-1.211.952c-1.021,0-1.362-1.021-1.362-1.914s.352-1.934,1.362-1.934a1.234,1.234,0,0,1,1.211.977l.688-.293a2,2,0,0,0-1.9-1.3c-1.406,0-2.109,1.24-2.109,2.549S29.565,21.1,30.972,21.1Zm4.106,0a1.821,1.821,0,0,0,1.714-1.04l.015.942h.62V18.007a1.8,1.8,0,0,0-1.909-1.987,2.164,2.164,0,0,0-1.841.957l.532.415a1.605,1.605,0,0,1,1.353-.737c.884,0,1.2.64,1.2,1.558H35.645c-1.387,0-2.148.454-2.148,1.431A1.43,1.43,0,0,0,35.078,21.1Zm.083-.615c-.508,0-.913-.239-.913-.82,0-.649.5-.9,1.465-.9h1.045A1.683,1.683,0,0,1,35.161,20.482Zm5.132.615a1.966,1.966,0,0,0,.654-.1v-.625a1.164,1.164,0,0,1-.488.122c-.356,0-.62-.249-.62-.786V16.718h1.235v-.6H39.839V14.34l-.723.684v1.1H38.33v.6h.781v2.988C39.111,20.541,39.429,21.1,40.293,21.1Zm3.789,0a2.4,2.4,0,0,0,2.324-2.549,2.321,2.321,0,1,0-4.624,0A2.376,2.376,0,0,0,44.082,21.1Zm0-.605c-1.074,0-1.572-.957-1.572-1.943s.5-1.924,1.582-1.924,1.572.947,1.572,1.924S45.181,20.492,44.087,20.492Zm6.2.508h.728V18.466c0-1.211.61-1.812,1.377-1.812.859,0,1.108.781,1.108,1.455V21h.723V18.036c0-1.074-.474-2-1.636-2a1.752,1.752,0,0,0-1.572.938v-.85h-.728Zm7.285.068a2.392,2.392,0,0,0,1.865-.762l-.5-.4a1.7,1.7,0,0,1-1.372.522,1.444,1.444,0,0,1-1.426-1.621h3.4c.01-.088.024-.249.024-.376,0-1.123-.488-2.378-2.07-2.378-1.416,0-2.119,1.226-2.119,2.534A2.211,2.211,0,0,0,57.573,21.068Zm-1.431-2.856c.039-.83.459-1.558,1.353-1.558,1,0,1.353.776,1.372,1.558Zm5.64,2.251c-.22,0-.239-.264-.239-.278V14.1h-.737v5.913c0,.586.054,1.084.791,1.084a2.381,2.381,0,0,0,.659-.1v-.586A2.891,2.891,0,0,1,61.782,20.463Zm2.529,0c-.22,0-.239-.264-.239-.278V14.1h-.737v5.913c0,.586.054,1.084.791,1.084a2.381,2.381,0,0,0,.659-.1v-.586A2.891,2.891,0,0,1,64.312,20.463Zm2.7.635a1.821,1.821,0,0,0,1.714-1.04l.015.942h.62V18.007a1.8,1.8,0,0,0-1.909-1.987,2.164,2.164,0,0,0-1.841.957l.532.415a1.605,1.605,0,0,1,1.353-.737c.884,0,1.2.64,1.2,1.558H67.573c-1.387,0-2.148.454-2.148,1.431A1.43,1.43,0,0,0,67.007,21.1Zm.083-.615c-.508,0-.913-.239-.913-.82,0-.649.5-.9,1.465-.9h1.045A1.683,1.683,0,0,1,67.09,20.482ZM75.3,21.1a1.963,1.963,0,0,0,1.934-1.367l-.84-.337a1.131,1.131,0,0,1-1.1.874c-.933,0-1.26-.879-1.26-1.7s.337-1.714,1.26-1.714a1.129,1.129,0,0,1,1.1.894l.894-.366a2.06,2.06,0,0,0-2-1.362,2.3,2.3,0,0,0-2.222,2.549A2.282,2.282,0,0,0,75.3,21.1Zm4.907,0a2.427,2.427,0,0,0,2.407-2.549,2.406,2.406,0,1,0-4.8,0A2.416,2.416,0,0,0,80.205,21.1Zm0-.8c-1,0-1.426-.85-1.426-1.748s.43-1.724,1.426-1.724,1.426.83,1.426,1.724S81.211,20.3,80.21,20.3Zm3.516.7h.938V18.4c0-1.04.527-1.528,1.245-1.528.742,0,1.025.63,1.025,1.284V21h.938V18.051c0-1.05-.483-2.021-1.7-2.021a1.794,1.794,0,0,0-1.509.811v-.718h-.937Zm7.09.1a2.273,2.273,0,0,0,.762-.122v-.84a1.382,1.382,0,0,1-.581.151c-.332,0-.586-.2-.586-.7V16.908h1.235v-.786H90.41V14.208l-.928.762v1.152h-.8v.786h.786v2.773A1.25,1.25,0,0,0,90.815,21.1Zm3.833-.015a2.474,2.474,0,0,0,1.929-.815l-.654-.552a1.585,1.585,0,0,1-1.274.522,1.287,1.287,0,0,1-1.328-1.367h3.374a2.764,2.764,0,0,0,.029-.415,2.145,2.145,0,0,0-2.158-2.417,2.3,2.3,0,0,0-2.246,2.544A2.28,2.28,0,0,0,94.648,21.083Zm-1.328-2.93c.068-.723.439-1.328,1.24-1.328.825,0,1.2.586,1.245,1.328ZM97.861,21h.952V18.393c0-.771.41-1.523,1.143-1.523s.908.64.908,1.27V21h.957V18.31c0-.732.41-1.44,1.138-1.44s.923.659.923,1.289V21h.962V18.051c0-1.06-.518-2.031-1.748-2.031a1.714,1.714,0,0,0-1.562.947,1.525,1.525,0,0,0-2.72-.205v-.64h-.952Zm8.4,2.139h.952V20.414a1.751,1.751,0,0,0,1.445.684c1.328,0,2.036-1.172,2.036-2.539s-.713-2.539-2.046-2.539a1.734,1.734,0,0,0-1.436.684v-.581h-.952Zm2.168-2.886c-.908,0-1.3-.781-1.3-1.694s.4-1.709,1.3-1.709,1.309.8,1.309,1.709S109.341,20.253,108.433,20.253Zm5.4.845a2.427,2.427,0,0,0,2.407-2.549,2.406,2.406,0,1,0-4.8,0A2.416,2.416,0,0,0,113.828,21.1Zm0-.8c-1,0-1.426-.85-1.426-1.748s.43-1.724,1.426-1.724,1.426.83,1.426,1.724S114.834,20.3,113.833,20.3Zm3.516.7h.918V18.739c0-1.206.537-1.807,1.24-1.807a.913.913,0,0,1,.566.181l.415-.8a1.243,1.243,0,0,0-.835-.3,1.483,1.483,0,0,0-1.377.947v-.845h-.928Zm5.186.1a1.761,1.761,0,0,0,1.621-.923L124.2,21h.786V18.021a1.857,1.857,0,0,0-2-2,2.255,2.255,0,0,0-1.938,1.011l.708.527a1.468,1.468,0,0,1,1.255-.713c.767,0,1.089.532,1.089,1.309h-1.187c-1.25,0-2.051.405-2.051,1.421A1.508,1.508,0,0,0,122.534,21.1Zm.122-.8c-.483,0-.82-.234-.82-.693,0-.488.381-.752,1.147-.752H124.1A1.48,1.48,0,0,1,122.656,20.3Zm3.74.7h.938V18.4c0-1.04.527-1.528,1.245-1.528.742,0,1.025.63,1.025,1.284V21h.938V18.051c0-1.05-.483-2.021-1.7-2.021a1.794,1.794,0,0,0-1.509.811v-.718H126.4Zm7.48.083a2.474,2.474,0,0,0,1.929-.815l-.654-.552a1.585,1.585,0,0,1-1.274.522,1.287,1.287,0,0,1-1.328-1.367h3.374a2.764,2.764,0,0,0,.029-.415,2.145,2.145,0,0,0-2.158-2.417,2.3,2.3,0,0,0-2.246,2.544A2.28,2.28,0,0,0,133.877,21.083Zm-1.328-2.93c.068-.723.439-1.328,1.24-1.328.825,0,1.2.586,1.245,1.328Zm4.5-3.037h1.021V14.1h-1.021ZM137.09,21h.942V16.122h-.942Zm4.014.1a2.273,2.273,0,0,0,.762-.122v-.84a1.382,1.382,0,0,1-.581.151c-.332,0-.586-.2-.586-.7V16.908h1.235v-.786H140.7V14.208l-.928.762v1.152h-.8v.786h.786v2.773A1.25,1.25,0,0,0,141.1,21.1Zm3.32-5.532h.8L144.146,14.1h-1.094ZM144.3,21.1a1.761,1.761,0,0,0,1.621-.923l.049.825h.786V18.021a1.857,1.857,0,0,0-2-2,2.255,2.255,0,0,0-1.938,1.011l.708.527a1.468,1.468,0,0,1,1.255-.713c.767,0,1.089.532,1.089,1.309h-1.187c-1.25,0-2.051.405-2.051,1.421A1.508,1.508,0,0,0,144.3,21.1Zm.122-.8c-.483,0-.82-.234-.82-.693,0-.488.381-.752,1.147-.752h1.118A1.48,1.48,0,0,1,144.424,20.3Z" transform="translate(30 25)"/>
      <path id="Path_161703" data-name="Path 161703" d="M.308,9h.845L1.68,7.5H4.712L5.239,9h.83L3.5,2.1H2.9ZM1.938,6.793,3.2,3.238,4.448,6.793ZM7.158,9H7.9V6.456c0-.884.435-1.816,1.245-1.816.835,0,1.025.776,1.025,1.45V9h.742V6.295c0-.8.435-1.655,1.235-1.655.845,0,1.045.806,1.045,1.47V9h.737V6.036c0-1.084-.488-2.017-1.694-2.017A1.618,1.618,0,0,0,10.713,5.04,1.529,1.529,0,0,0,7.9,4.879V4.122H7.158Zm10.552.1c1.27,0,1.963-1.147,1.963-2.539S18.979,4.02,17.705,4.02a1.747,1.747,0,0,0-1.514.767V2.1h-.728V9h.728V8.336A1.747,1.747,0,0,0,17.71,9.1Zm-.19-.615c-.977,0-1.392-.928-1.392-1.924s.415-1.924,1.392-1.924,1.426.938,1.426,1.924S18.5,8.482,17.52,8.482Zm3.4-5.444h.83V2.1h-.83ZM20.972,9h.723V4.122h-.723Zm4.194.068a2.392,2.392,0,0,0,1.865-.762l-.5-.4a1.7,1.7,0,0,1-1.372.522,1.444,1.444,0,0,1-1.426-1.621h3.4c.01-.088.024-.249.024-.376,0-1.123-.488-2.378-2.07-2.378-1.416,0-2.119,1.226-2.119,2.534A2.211,2.211,0,0,0,25.166,9.068ZM23.735,6.212c.039-.83.459-1.558,1.353-1.558,1,0,1.353.776,1.372,1.558ZM28.413,9h.728V6.466c0-1.211.61-1.812,1.377-1.812.859,0,1.108.781,1.108,1.455V9h.723V6.036c0-1.074-.474-2-1.636-2a1.752,1.752,0,0,0-1.572.938v-.85h-.728Zm6.821.1a1.966,1.966,0,0,0,.654-.1V8.375A1.164,1.164,0,0,1,35.4,8.5c-.356,0-.62-.249-.62-.786V4.718h1.235v-.6H34.78V2.34l-.723.684v1.1h-.786v.6h.781V7.706C34.053,8.541,34.37,9.1,35.234,9.1Zm3.076,0a1.821,1.821,0,0,0,1.714-1.04L40.039,9h.62V6.007A1.8,1.8,0,0,0,38.75,4.02a2.164,2.164,0,0,0-1.841.957l.532.415a1.605,1.605,0,0,1,1.353-.737c.884,0,1.2.64,1.2,1.558H38.877c-1.387,0-2.148.454-2.148,1.431A1.43,1.43,0,0,0,38.311,9.1Zm.083-.615c-.508,0-.913-.239-.913-.82,0-.649.5-.9,1.465-.9H39.99A1.683,1.683,0,0,1,38.394,8.482Zm7.124-4.36h-3.7v.6h2.842L41.68,8.448V9h3.838V8.375h-2.93l2.93-3.652Zm1.157-1.084h.83V2.1h-.83ZM46.729,9h.723V4.122h-.723ZM51,9.1a2.4,2.4,0,0,0,2.324-2.549,2.321,2.321,0,1,0-4.624,0A2.376,2.376,0,0,0,51,9.1Zm0-.605c-1.074,0-1.572-.957-1.572-1.943s.5-1.924,1.582-1.924,1.572.947,1.572,1.924S52.1,8.492,51.006,8.492ZM54.565,9h.728V6.466c0-1.211.61-1.812,1.377-1.812.859,0,1.108.781,1.108,1.455V9H58.5V6.036c0-1.074-.474-2-1.636-2a1.752,1.752,0,0,0-1.572.938v-.85h-.728Zm5.42-5.962h.83V2.1h-.83ZM60.039,9h.723V4.122h-.723Zm8.145-6.9V4.786a1.746,1.746,0,0,0-1.528-.767C65.41,4.02,64.7,5.162,64.7,6.559S65.41,9.1,66.66,9.1a1.734,1.734,0,0,0,1.528-.776L68.2,9h.708V2.1ZM66.846,8.482c-.977,0-1.4-.928-1.4-1.924s.42-1.924,1.4-1.924c1,0,1.4.938,1.4,1.924S67.842,8.482,66.846,8.482Zm3.677-5.444h.83V2.1h-.83ZM70.576,9H71.3V4.122h-.723Zm6.372.1A1.966,1.966,0,0,0,77.6,9V8.375a1.164,1.164,0,0,1-.488.122c-.356,0-.62-.249-.62-.786V4.718h1.235v-.6H76.494V2.34l-.723.684v1.1h-.786v.6h.781V7.706C75.767,8.541,76.084,9.1,76.948,9.1Zm3.711-.029a2.392,2.392,0,0,0,1.865-.762l-.5-.4a1.7,1.7,0,0,1-1.372.522,1.444,1.444,0,0,1-1.426-1.621h3.4c.01-.088.024-.249.024-.376,0-1.123-.488-2.378-2.07-2.378-1.416,0-2.119,1.226-2.119,2.534A2.211,2.211,0,0,0,80.659,9.068ZM79.229,6.212c.039-.83.459-1.558,1.353-1.558,1,0,1.353.776,1.372,1.558ZM85.259,9.1a1.521,1.521,0,0,0,1.675-1.489c0-1.792-2.632-1.2-2.632-2.324,0-.4.327-.674.854-.674a1.15,1.15,0,0,1,1.089.688l.537-.308a1.733,1.733,0,0,0-1.6-.972,1.392,1.392,0,0,0-1.548,1.353c0,1.655,2.593,1.011,2.593,2.324,0,.527-.405.806-.957.806a1.237,1.237,0,0,1-1.216-.928l-.615.317A1.893,1.893,0,0,0,85.259,9.1Zm4.243,0a1.966,1.966,0,0,0,.654-.1V8.375a1.164,1.164,0,0,1-.488.122c-.356,0-.62-.249-.62-.786V4.718h1.235v-.6H89.048V2.34l-.723.684v1.1h-.786v.6h.781V7.706C88.32,8.541,88.638,9.1,89.5,9.1ZM91.4,3.038h.83V2.1H91.4ZM91.45,9h.723V4.122H91.45Zm4.971-5.962h.83V2.1h-.83ZM96.475,9H97.2V4.122h-.723Zm2.373,0h.728V6.466c0-1.211.61-1.812,1.377-1.812.859,0,1.108.781,1.108,1.455V9h.723V6.036c0-1.074-.474-2-1.636-2a1.752,1.752,0,0,0-1.572.938v-.85h-.728Zm9.854.1A1.861,1.861,0,0,0,110.537,7.8L109.9,7.53a1.224,1.224,0,0,1-1.211.952c-1.021,0-1.362-1.021-1.362-1.914s.352-1.934,1.362-1.934a1.234,1.234,0,0,1,1.211.977l.688-.293a2,2,0,0,0-1.9-1.3c-1.406,0-2.109,1.24-2.109,2.549S107.295,9.1,108.7,9.1Zm4.5.01a1.736,1.736,0,0,0,1.533-.933V9h.723V4.122h-.723v2.7a1.566,1.566,0,0,1-1.455,1.67c-.835,0-1.025-.786-1.025-1.489V4.122h-.728V6.954C111.528,8.17,112,9.107,113.2,9.107Zm3.857-6.069h.83V2.1h-.83ZM117.114,9h.723V4.122h-.723Zm4.971-5.962h.83V2.1h-.83ZM122.139,9h.723V4.122h-.723Zm3.335-.537c-.22,0-.239-.264-.239-.278V2.1H124.5V8.014c0,.586.054,1.084.791,1.084a2.381,2.381,0,0,0,.659-.1V8.414A2.891,2.891,0,0,1,125.474,8.463Zm5.566.635a1.966,1.966,0,0,0,.654-.1V8.375a1.164,1.164,0,0,1-.488.122c-.356,0-.62-.249-.62-.786V4.718h1.235v-.6h-1.235V2.34l-.723.684v1.1h-.786v.6h.781V7.706C129.858,8.541,130.176,9.1,131.04,9.1Zm3.711-.029a2.392,2.392,0,0,0,1.865-.762l-.5-.4a1.7,1.7,0,0,1-1.372.522,1.444,1.444,0,0,1-1.426-1.621h3.4c.01-.088.024-.249.024-.376,0-1.123-.488-2.378-2.07-2.378-1.416,0-2.119,1.226-2.119,2.534A2.211,2.211,0,0,0,134.751,9.068ZM133.32,6.212c.039-.83.459-1.558,1.353-1.558,1,0,1.353.776,1.372,1.558ZM138,9h.737V6.456c0-.884.435-1.816,1.245-1.816.835,0,1.025.776,1.025,1.45V9h.742V6.295c0-.8.435-1.655,1.235-1.655.845,0,1.045.806,1.045,1.47V9h.737V6.036c0-1.084-.488-2.017-1.694-2.017a1.618,1.618,0,0,0-1.519,1.021,1.529,1.529,0,0,0-2.817-.161V4.122H138Zm8.306,2.139h.732v-2.8a1.75,1.75,0,0,0,1.494.762c1.309,0,1.987-1.157,1.987-2.539s-.684-2.539-1.992-2.539a1.743,1.743,0,0,0-1.489.767V4.122H146.3Zm2.07-2.656c-.991,0-1.406-.928-1.406-1.924s.415-1.924,1.406-1.924,1.411.938,1.411,1.924S149.351,8.482,148.374,8.482Zm5.332.615a2.4,2.4,0,0,0,2.324-2.549,2.321,2.321,0,1,0-4.624,0A2.376,2.376,0,0,0,153.706,9.1Zm0-.605c-1.074,0-1.572-.957-1.572-1.943s.5-1.924,1.582-1.924,1.572.947,1.572,1.924S154.8,8.492,153.711,8.492ZM163.042,2.1V4.786a1.746,1.746,0,0,0-1.528-.767c-1.245,0-1.953,1.143-1.953,2.539s.708,2.539,1.958,2.539a1.734,1.734,0,0,0,1.528-.776l.015.679h.708V2.1ZM161.7,8.482c-.977,0-1.4-.928-1.4-1.924s.42-1.924,1.4-1.924c1,0,1.4.938,1.4,1.924S162.7,8.482,161.7,8.482Zm5.542.586a2.392,2.392,0,0,0,1.865-.762l-.5-.4a1.7,1.7,0,0,1-1.372.522,1.444,1.444,0,0,1-1.426-1.621h3.4c.01-.088.024-.249.024-.376,0-1.123-.488-2.378-2.07-2.378-1.416,0-2.119,1.226-2.119,2.534A2.211,2.211,0,0,0,167.246,9.068Zm-1.431-2.856c.039-.83.459-1.558,1.353-1.558,1,0,1.353.776,1.372,1.558Zm5.64,2.251c-.22,0-.239-.264-.239-.278V2.1h-.737V8.014c0,.586.054,1.084.791,1.084a2.381,2.381,0,0,0,.659-.1V8.414A2.891,2.891,0,0,1,171.455,8.463Zm2.529,0c-.22,0-.239-.264-.239-.278V2.1h-.737V8.014c0,.586.054,1.084.791,1.084a2.381,2.381,0,0,0,.659-.1V8.414A2.891,2.891,0,0,1,173.984,8.463Zm2.7.635a1.821,1.821,0,0,0,1.714-1.04l.015.942h.62V6.007a1.8,1.8,0,0,0-1.909-1.987,2.164,2.164,0,0,0-1.841.957l.532.415a1.605,1.605,0,0,1,1.353-.737c.884,0,1.2.64,1.2,1.558h-1.113c-1.387,0-2.148.454-2.148,1.431A1.43,1.43,0,0,0,176.68,9.1Zm.083-.615c-.508,0-.913-.239-.913-.82,0-.649.5-.9,1.465-.9h1.045A1.683,1.683,0,0,1,176.763,8.482Zm7.778.615a1.521,1.521,0,0,0,1.675-1.489c0-1.792-2.632-1.2-2.632-2.324,0-.4.327-.674.854-.674a1.15,1.15,0,0,1,1.089.688l.537-.308a1.733,1.733,0,0,0-1.6-.972,1.392,1.392,0,0,0-1.548,1.353c0,1.655,2.593,1.011,2.593,2.324,0,.527-.405.806-.957.806a1.237,1.237,0,0,1-1.216-.928l-.615.317A1.893,1.893,0,0,0,184.541,9.1Zm4.243,0a1.966,1.966,0,0,0,.654-.1V8.375a1.164,1.164,0,0,1-.488.122c-.356,0-.62-.249-.62-.786V4.718h1.235v-.6H188.33V2.34l-.723.684v1.1h-.786v.6h.781V7.706C187.6,8.541,187.92,9.1,188.784,9.1Zm3.789,0A2.4,2.4,0,0,0,194.9,6.549a2.321,2.321,0,1,0-4.624,0A2.376,2.376,0,0,0,192.573,9.1Zm0-.605c-1.074,0-1.572-.957-1.572-1.943s.5-1.924,1.582-1.924,1.572.947,1.572,1.924S193.672,8.492,192.578,8.492Zm3.56.508h.718V6.563c0-1.177.5-1.846,1.333-1.846a.888.888,0,0,1,.6.186l.308-.63a1.268,1.268,0,0,0-.786-.254,1.572,1.572,0,0,0-1.44.967V4.122h-.728Zm3.848-5.962h.83V2.1h-.83ZM200.039,9h.723V4.122h-.723Zm3.511.1a1.821,1.821,0,0,0,1.714-1.04l.015.942h.62V6.007a1.8,1.8,0,0,0-1.909-1.987,2.164,2.164,0,0,0-1.841.957l.532.415a1.605,1.605,0,0,1,1.353-.737c.884,0,1.2.64,1.2,1.558h-1.113c-1.387,0-2.148.454-2.148,1.431A1.43,1.43,0,0,0,203.55,9.1Zm.083-.615c-.508,0-.913-.239-.913-.82,0-.649.5-.9,1.465-.9h1.045A1.683,1.683,0,0,1,203.633,8.482ZM2.148,15.521h.742L1.826,14.1H.889Zm.493,5.547a2.392,2.392,0,0,0,1.865-.762l-.5-.4a1.7,1.7,0,0,1-1.372.522,1.444,1.444,0,0,1-1.426-1.621h3.4c.01-.088.024-.249.024-.376,0-1.123-.488-2.378-2.07-2.378-1.416,0-2.119,1.226-2.119,2.534A2.211,2.211,0,0,0,2.642,21.068ZM1.211,18.212c.039-.83.459-1.558,1.353-1.558,1,0,1.353.776,1.372,1.558ZM10.278,21.1A1.861,1.861,0,0,0,12.114,19.8l-.635-.273a1.224,1.224,0,0,1-1.211.952c-1.021,0-1.362-1.021-1.362-1.914s.352-1.934,1.362-1.934a1.234,1.234,0,0,1,1.211.977l.688-.293a2,2,0,0,0-1.9-1.3c-1.406,0-2.109,1.24-2.109,2.549S8.872,21.1,10.278,21.1Zm4.858,0a2.4,2.4,0,0,0,2.324-2.549,2.321,2.321,0,1,0-4.624,0A2.376,2.376,0,0,0,15.137,21.1Zm0-.605c-1.074,0-1.572-.957-1.572-1.943s.5-1.924,1.582-1.924,1.572.947,1.572,1.924S16.235,20.492,15.142,20.492Zm4.521-.029c-.22,0-.239-.264-.239-.278V14.1h-.737v5.913c0,.586.054,1.084.791,1.084a2.381,2.381,0,0,0,.659-.1v-.586A2.891,2.891,0,0,1,19.663,20.463Zm2.529,0c-.22,0-.239-.264-.239-.278V14.1h-.737v5.913c0,.586.054,1.084.791,1.084a2.381,2.381,0,0,0,.659-.1v-.586A2.891,2.891,0,0,1,22.192,20.463Zm3.467.635a2.4,2.4,0,0,0,2.324-2.549,2.321,2.321,0,1,0-4.624,0A2.376,2.376,0,0,0,25.659,21.1Zm0-.605c-1.074,0-1.572-.957-1.572-1.943s.5-1.924,1.582-1.924,1.572.947,1.572,1.924S26.758,20.492,25.664,20.492Zm5.308.605A1.861,1.861,0,0,0,32.808,19.8l-.635-.273a1.224,1.224,0,0,1-1.211.952c-1.021,0-1.362-1.021-1.362-1.914s.352-1.934,1.362-1.934a1.234,1.234,0,0,1,1.211.977l.688-.293a2,2,0,0,0-1.9-1.3c-1.406,0-2.109,1.24-2.109,2.549S29.565,21.1,30.972,21.1Zm4.106,0a1.821,1.821,0,0,0,1.714-1.04l.015.942h.62V18.007a1.8,1.8,0,0,0-1.909-1.987,2.164,2.164,0,0,0-1.841.957l.532.415a1.605,1.605,0,0,1,1.353-.737c.884,0,1.2.64,1.2,1.558H35.645c-1.387,0-2.148.454-2.148,1.431A1.43,1.43,0,0,0,35.078,21.1Zm.083-.615c-.508,0-.913-.239-.913-.82,0-.649.5-.9,1.465-.9h1.045A1.683,1.683,0,0,1,35.161,20.482Zm5.132.615a1.966,1.966,0,0,0,.654-.1v-.625a1.164,1.164,0,0,1-.488.122c-.356,0-.62-.249-.62-.786V16.718h1.235v-.6H39.839V14.34l-.723.684v1.1H38.33v.6h.781v2.988C39.111,20.541,39.429,21.1,40.293,21.1Zm3.789,0a2.4,2.4,0,0,0,2.324-2.549,2.321,2.321,0,1,0-4.624,0A2.376,2.376,0,0,0,44.082,21.1Zm0-.605c-1.074,0-1.572-.957-1.572-1.943s.5-1.924,1.582-1.924,1.572.947,1.572,1.924S45.181,20.492,44.087,20.492Zm6.2.508h.728V18.466c0-1.211.61-1.812,1.377-1.812.859,0,1.108.781,1.108,1.455V21h.723V18.036c0-1.074-.474-2-1.636-2a1.752,1.752,0,0,0-1.572.938v-.85h-.728Zm7.285.068a2.392,2.392,0,0,0,1.865-.762l-.5-.4a1.7,1.7,0,0,1-1.372.522,1.444,1.444,0,0,1-1.426-1.621h3.4c.01-.088.024-.249.024-.376,0-1.123-.488-2.378-2.07-2.378-1.416,0-2.119,1.226-2.119,2.534A2.211,2.211,0,0,0,57.573,21.068Zm-1.431-2.856c.039-.83.459-1.558,1.353-1.558,1,0,1.353.776,1.372,1.558Zm5.64,2.251c-.22,0-.239-.264-.239-.278V14.1h-.737v5.913c0,.586.054,1.084.791,1.084a2.381,2.381,0,0,0,.659-.1v-.586A2.891,2.891,0,0,1,61.782,20.463Zm4.17,2.676H66.9V20.414a1.751,1.751,0,0,0,1.445.684c1.328,0,2.036-1.172,2.036-2.539s-.713-2.539-2.046-2.539A1.734,1.734,0,0,0,66.9,16.7v-.581h-.952Zm2.168-2.886c-.908,0-1.3-.781-1.3-1.694s.4-1.709,1.3-1.709,1.309.8,1.309,1.709S69.028,20.253,68.12,20.253Zm4.658.845a1.761,1.761,0,0,0,1.621-.923l.049.825h.786V18.021a1.857,1.857,0,0,0-2-2,2.255,2.255,0,0,0-1.938,1.011l.708.527a1.468,1.468,0,0,1,1.255-.713c.767,0,1.089.532,1.089,1.309H73.159c-1.25,0-2.051.405-2.051,1.421A1.508,1.508,0,0,0,72.778,21.1Zm.122-.8c-.483,0-.82-.234-.82-.693,0-.488.381-.752,1.147-.752h1.118A1.48,1.48,0,0,1,72.9,20.3Zm5.146.8a1.6,1.6,0,0,0,1.777-1.558c0-1.787-2.559-1.265-2.559-2.212,0-.317.288-.557.747-.557a1.114,1.114,0,0,1,1.035.659l.718-.4a1.874,1.874,0,0,0-1.719-1.016,1.488,1.488,0,0,0-1.67,1.431c0,1.685,2.524,1.084,2.524,2.168,0,.4-.327.7-.879.7a1.153,1.153,0,0,1-1.133-.864l-.771.361A1.981,1.981,0,0,0,78.047,21.1Zm4.336,0A1.6,1.6,0,0,0,84.16,19.54c0-1.787-2.559-1.265-2.559-2.212,0-.317.288-.557.747-.557a1.114,1.114,0,0,1,1.035.659l.718-.4a1.874,1.874,0,0,0-1.719-1.016,1.488,1.488,0,0,0-1.67,1.431c0,1.685,2.524,1.084,2.524,2.168,0,.4-.327.7-.879.7a1.153,1.153,0,0,1-1.133-.864l-.771.361A1.981,1.981,0,0,0,82.383,21.1Zm4.087,0a1.761,1.761,0,0,0,1.621-.923L88.14,21h.786V18.021a1.857,1.857,0,0,0-2-2,2.255,2.255,0,0,0-1.938,1.011l.708.527a1.468,1.468,0,0,1,1.255-.713c.767,0,1.089.532,1.089,1.309H86.851c-1.25,0-2.051.405-2.051,1.421A1.508,1.508,0,0,0,86.47,21.1Zm.122-.8c-.483,0-.82-.234-.82-.693,0-.488.381-.752,1.147-.752h1.118A1.48,1.48,0,0,1,86.592,20.3Zm5.249.8a2.273,2.273,0,0,0,.762-.122v-.84a1.382,1.382,0,0,1-.581.151c-.332,0-.586-.2-.586-.7V16.908h1.235v-.786H91.436V14.208l-.928.762v1.152h-.8v.786H90.5v2.773A1.25,1.25,0,0,0,91.841,21.1Zm3.877,0a2.427,2.427,0,0,0,2.407-2.549,2.406,2.406,0,1,0-4.8,0A2.416,2.416,0,0,0,95.718,21.1Zm0-.8c-1,0-1.426-.85-1.426-1.748s.43-1.724,1.426-1.724,1.426.83,1.426,1.724S96.724,20.3,95.723,20.3Zm8.105.8a2.4,2.4,0,0,0,2.324-2.549,2.321,2.321,0,1,0-4.624,0A2.376,2.376,0,0,0,103.828,21.1Zm0-.605c-1.074,0-1.572-.957-1.572-1.943s.5-1.924,1.582-1.924,1.572.947,1.572,1.924S104.927,20.492,103.833,20.492Zm6.157-5.454h.83V14.1h-.83ZM110.044,21h.723V16.122h-.723Zm2.373,0h.728V18.466c0-1.211.61-1.812,1.377-1.812.859,0,1.108.781,1.108,1.455V21h.723V18.036c0-1.074-.474-2-1.636-2a1.752,1.752,0,0,0-1.572.938v-.85h-.728Zm9.658.107a1.736,1.736,0,0,0,1.533-.933V21h.723V16.122h-.723v2.7a1.566,1.566,0,0,1-1.455,1.67c-.835,0-1.025-.786-1.025-1.489V16.122H120.4v2.832C120.4,20.17,120.874,21.107,122.075,21.107Zm3.9-.107h.728V18.466c0-1.211.61-1.812,1.377-1.812.859,0,1.108.781,1.108,1.455V21h.723V18.036c0-1.074-.474-2-1.636-2a1.752,1.752,0,0,0-1.572.938v-.85h-.728Zm9.463.1a1.966,1.966,0,0,0,.654-.1v-.625a1.164,1.164,0,0,1-.488.122c-.356,0-.62-.249-.62-.786V16.718h1.235v-.6h-1.235V14.34l-.723.684v1.1h-.786v.6h.781v2.988C134.258,20.541,134.575,21.1,135.439,21.1Zm3.711-.029a2.392,2.392,0,0,0,1.865-.762l-.5-.4a1.7,1.7,0,0,1-1.372.522,1.444,1.444,0,0,1-1.426-1.621h3.4c.01-.088.024-.249.024-.376,0-1.123-.488-2.378-2.07-2.378-1.416,0-2.119,1.226-2.119,2.534A2.211,2.211,0,0,0,139.15,21.068Zm-1.431-2.856c.039-.83.459-1.558,1.353-1.558,1,0,1.353.776,1.372,1.558ZM142.4,21h.737V18.456c0-.884.435-1.816,1.245-1.816.835,0,1.025.776,1.025,1.45V21h.742V18.295c0-.8.435-1.655,1.235-1.655.845,0,1.045.806,1.045,1.47V21h.737V18.036c0-1.084-.488-2.017-1.694-2.017a1.618,1.618,0,0,0-1.519,1.021,1.529,1.529,0,0,0-2.817-.161v-.757H142.4Zm8.306,2.139h.732v-2.8a1.75,1.75,0,0,0,1.494.762c1.309,0,1.987-1.157,1.987-2.539s-.684-2.539-1.992-2.539a1.743,1.743,0,0,0-1.489.767v-.664H150.7Zm2.07-2.656c-.991,0-1.406-.928-1.406-1.924s.415-1.924,1.406-1.924,1.411.938,1.411,1.924S153.75,20.482,152.773,20.482Zm5.332.615a2.4,2.4,0,0,0,2.324-2.549,2.321,2.321,0,1,0-4.624,0A2.376,2.376,0,0,0,158.105,21.1Zm0-.605c-1.074,0-1.572-.957-1.572-1.943s.5-1.924,1.582-1.924,1.572.947,1.572,1.924S159.2,20.492,158.11,20.492Zm6.113-5.376h1.021V14.1h-1.021ZM164.263,21h.942V16.122h-.942Zm2.485,0h.938V18.4c0-1.04.527-1.528,1.245-1.528.742,0,1.025.63,1.025,1.284V21h.938V18.051c0-1.05-.483-2.021-1.7-2.021a1.794,1.794,0,0,0-1.509.811v-.718h-.937Zm8.667-6.9v2.6a1.764,1.764,0,0,0-1.465-.684c-1.294,0-2.017,1.167-2.017,2.539s.723,2.539,2.026,2.539a1.741,1.741,0,0,0,1.479-.708l.029.61h.9V14.1ZM174.2,20.268c-.908,0-1.3-.8-1.3-1.709s.4-1.7,1.3-1.7,1.294.8,1.294,1.7S175.112,20.268,174.2,20.268Zm5.64.815a2.474,2.474,0,0,0,1.929-.815l-.654-.552a1.585,1.585,0,0,1-1.274.522,1.287,1.287,0,0,1-1.328-1.367h3.374a2.764,2.764,0,0,0,.029-.415,2.145,2.145,0,0,0-2.158-2.417,2.3,2.3,0,0,0-2.246,2.544A2.28,2.28,0,0,0,179.839,21.083Zm-1.328-2.93c.068-.723.439-1.328,1.24-1.328.825,0,1.2.586,1.245,1.328ZM183.149,21h.918V16.908h1.694V21h.894V16.122h-2.588c0-.737.22-1.289,1.006-1.289a1.282,1.282,0,0,1,1.006.454l.508-.688a1.968,1.968,0,0,0-1.5-.6c-1.44,0-1.934.967-1.934,2.124h-.742v.786h.737Zm5.029,0h.938V18.4c0-1.04.527-1.528,1.245-1.528.742,0,1.025.63,1.025,1.284V21h.938V18.051c0-1.05-.483-2.021-1.7-2.021a1.794,1.794,0,0,0-1.509.811v-.718h-.937Zm5.522-5.884h1.021V14.1H193.7ZM193.74,21h.942V16.122h-.942Zm4.014.1a2.273,2.273,0,0,0,.762-.122v-.84a1.382,1.382,0,0,1-.581.151c-.332,0-.586-.2-.586-.7V16.908h1.235v-.786h-1.235V14.208l-.928.762v1.152h-.8v.786h.786v2.773A1.25,1.25,0,0,0,197.754,21.1Zm3.877,0a2.427,2.427,0,0,0,2.407-2.549,2.406,2.406,0,1,0-4.8,0A2.416,2.416,0,0,0,201.631,21.1Zm0-.8c-1,0-1.426-.85-1.426-1.748s.43-1.724,1.426-1.724,1.426.83,1.426,1.724S202.637,20.3,201.636,20.3Z" transform="translate(30 61)"/>
    </g>
    <path id="Path_161701" data-name="Path 161701" d="M1.035,0h.771V-6.089L4.756,0H5.889V-6.9H5.122V-.82L2.153-6.9H1.035ZM9.3.107A1.736,1.736,0,0,0,10.83-.825V0h.723V-4.878H10.83v2.7A1.566,1.566,0,0,1,9.375-.508C8.54-.508,8.35-1.294,8.35-2V-4.878H7.622v2.832C7.622-.83,8.1.107,9.3.107ZM13.2,0h.737V-2.544c0-.884.435-1.816,1.245-1.816.835,0,1.025.776,1.025,1.45V0h.742V-2.705c0-.8.435-1.655,1.235-1.655.845,0,1.045.806,1.045,1.47V0h.737V-2.964c0-1.084-.488-2.017-1.694-2.017A1.618,1.618,0,0,0,16.753-3.96,1.465,1.465,0,0,0,15.264-4.98a1.459,1.459,0,0,0-1.328.859v-.757H13.2ZM23.315.068a2.392,2.392,0,0,0,1.865-.762l-.5-.4a1.7,1.7,0,0,1-1.372.522,1.444,1.444,0,0,1-1.426-1.621h3.4c.01-.088.024-.249.024-.376,0-1.123-.488-2.378-2.07-2.378-1.416,0-2.119,1.226-2.119,2.534A2.211,2.211,0,0,0,23.315.068ZM21.885-2.788c.039-.83.459-1.558,1.353-1.558,1,0,1.353.776,1.372,1.558ZM26.563,0h.718V-2.437c0-1.177.5-1.846,1.333-1.846a.888.888,0,0,1,.6.186l.308-.63a1.268,1.268,0,0,0-.786-.254,1.572,1.572,0,0,0-1.44.967v-.864h-.728Zm5.381.1a2.4,2.4,0,0,0,2.324-2.549A2.383,2.383,0,0,0,31.943-4.98a2.361,2.361,0,0,0-2.3,2.529A2.376,2.376,0,0,0,31.943.1Zm0-.605c-1.074,0-1.572-.957-1.572-1.943s.5-1.924,1.582-1.924,1.572.947,1.572,1.924S33.042-.508,31.948-.508ZM41.279-6.9v2.686a1.746,1.746,0,0,0-1.528-.767c-1.245,0-1.953,1.143-1.953,2.539S38.506.1,39.756.1a1.734,1.734,0,0,0,1.528-.776L41.3,0h.708V-6.9ZM39.941-.518c-.977,0-1.4-.928-1.4-1.924s.42-1.924,1.4-1.924c1,0,1.4.938,1.4,1.924S40.938-.518,39.941-.518Zm3.677-5.444h.83V-6.9h-.83ZM43.672,0h.723V-4.878h-.723Zm6.914.1A2.4,2.4,0,0,0,52.91-2.451,2.383,2.383,0,0,0,50.586-4.98a2.361,2.361,0,0,0-2.3,2.529A2.376,2.376,0,0,0,50.586.1Zm0-.605c-1.074,0-1.572-.957-1.572-1.943s.5-1.924,1.582-1.924,1.572.947,1.572,1.924S51.685-.508,50.591-.508ZM55.9.1A1.861,1.861,0,0,0,57.734-1.2L57.1-1.47a1.224,1.224,0,0,1-1.211.952c-1.021,0-1.362-1.021-1.362-1.914s.352-1.934,1.362-1.934a1.234,1.234,0,0,1,1.211.977l.688-.293a2,2,0,0,0-1.9-1.3c-1.406,0-2.109,1.24-2.109,2.549S54.492.1,55.9.1Zm4.707,0A1.861,1.861,0,0,0,62.441-1.2l-.635-.273A1.224,1.224,0,0,1,60.6-.518c-1.021,0-1.362-1.021-1.362-1.914s.352-1.934,1.362-1.934a1.234,1.234,0,0,1,1.211.977l.688-.293a2,2,0,0,0-1.9-1.3c-1.406,0-2.109,1.24-2.109,2.549S59.2.1,60.605.1Zm4.858,0a2.4,2.4,0,0,0,2.324-2.549A2.383,2.383,0,0,0,65.464-4.98a2.361,2.361,0,0,0-2.3,2.529A2.376,2.376,0,0,0,65.464.1Zm0-.605c-1.074,0-1.572-.957-1.572-1.943s.5-1.924,1.582-1.924,1.572.947,1.572,1.924S66.563-.508,65.469-.508ZM69.028,0h.718V-2.437c0-1.177.5-1.846,1.333-1.846a.888.888,0,0,1,.6.186l.308-.63A1.268,1.268,0,0,0,71.2-4.98a1.572,1.572,0,0,0-1.44.967v-.864h-.728ZM72.92,0h.718V-2.437c0-1.177.5-1.846,1.333-1.846a.888.888,0,0,1,.6.186l.308-.63a1.268,1.268,0,0,0-.786-.254,1.572,1.572,0,0,0-1.44.967v-.864H72.92Zm5.3.068a2.392,2.392,0,0,0,1.865-.762l-.5-.4a1.7,1.7,0,0,1-1.372.522,1.444,1.444,0,0,1-1.426-1.621h3.4c.01-.088.024-.249.024-.376,0-1.123-.488-2.378-2.07-2.378-1.416,0-2.119,1.226-2.119,2.534A2.211,2.211,0,0,0,78.223.068ZM76.792-2.788c.039-.83.459-1.558,1.353-1.558,1,0,1.353.776,1.372,1.558ZM81.47,0H82.2V-2.534c0-1.211.61-1.812,1.377-1.812.859,0,1.108.781,1.108,1.455V0h.723V-2.964c0-1.074-.474-2-1.636-2a1.752,1.752,0,0,0-1.572.938v-.85H81.47Zm8.8-4.878h-3.7v.6h2.842L86.436-.552V0h3.838V-.625h-2.93l2.93-3.652ZM93.286.068a2.392,2.392,0,0,0,1.865-.762l-.5-.4a1.7,1.7,0,0,1-1.372.522,1.444,1.444,0,0,1-1.426-1.621h3.4c.01-.088.024-.249.024-.376,0-1.123-.488-2.378-2.07-2.378-1.416,0-2.119,1.226-2.119,2.534A2.211,2.211,0,0,0,93.286.068ZM91.855-2.788c.039-.83.459-1.558,1.353-1.558,1,0,1.353.776,1.372,1.558Z" transform="translate(414.83 36.743)"/>
    <circle id="Ellipse_33243" data-name="Ellipse 33243" cx="2.876" cy="2.876" r="2.876" transform="translate(396.769 33.502)" fill="none" stroke="#000" stroke-miterlimit="10" stroke-width="0.25"/>
    <circle id="Ellipse_33244" data-name="Ellipse 33244" cx="6.327" cy="6.327" r="6.327" transform="translate(393.325 26.578)" fill="none" stroke="#000" stroke-miterlimit="10" stroke-width="0.25"/>
    <path id="Path_161697" data-name="Path 161697" d="M1.16,0H3.393C6.117,0,7.641-1.482,7.641-4.078c0-2.707-1.482-4.2-4.236-4.2H1.16ZM2.35-1.09V-7.2H3.381c2.121,0,3.07,1,3.07,3.053,0,2.18-1.318,3.053-3.2,3.053ZM9.4,0h1.189V-8.279H9.4Zm3.51,0h1.16V-6.873L16.359-.721h1.213l2.285-6.152V0h1.16V-8.279H19.271L16.957-1.986l-2.3-6.293H12.914ZM23.338,0H28.77V-1.107H24.527V-3.615h3.8V-4.67h-3.8V-7.213H28.77V-8.279H23.338Zm7.277,0h1.16V-6.6l3.5,6.6H36.7V-8.279h-1.16v6.592L32.021-8.279H30.615ZM41.25.094a2.482,2.482,0,0,0,2.719-2.437c0-2.707-4-2.232-4-3.949a1.105,1.105,0,0,1,1.2-1.061,1.634,1.634,0,0,1,1.482.92l.949-.6A2.64,2.64,0,0,0,41.2-8.4a2.219,2.219,0,0,0-2.4,2.186c0,2.6,4,2.033,4,3.973,0,.809-.592,1.277-1.535,1.277A1.711,1.711,0,0,1,39.4-2.531l-1.154.311A2.848,2.848,0,0,0,41.25.094ZM45.6,0h1.189V-8.279H45.6Zm6.8.117c2.625,0,3.85-1.98,3.85-4.26S55.031-8.4,52.406-8.4s-3.844,1.986-3.844,4.26S49.787.117,52.406.117Zm0-1.072c-1.893,0-2.625-1.512-2.625-3.187s.732-3.182,2.625-3.182,2.637,1.512,2.637,3.182S54.3-.955,52.406-.955ZM58.025,0h1.16V-6.6l3.5,6.6h1.424V-8.279h-1.16v6.592L59.432-8.279H58.025Zm8.408,0h5.432V-1.107H67.623V-3.615h3.8V-4.67h-3.8V-7.213h4.242V-8.279H66.434Z" transform="translate(391.086 12)"/>
    <path id="Path_159707" data-name="Path 159707" transform="translate(213 91)" fill="#c11600"/>
  </g>
</svg>
