<?xml version="1.0" encoding="utf-8"?>
<!-- Generator: Adobe Illustrator 24.3.0, SVG Export Plug-In . SVG Version: 6.00 Build 0)  -->
<svg version="1.1" id="Layer_1" xmlns="http://www.w3.org/2000/svg" xmlns:xlink="http://www.w3.org/1999/xlink" x="0px" y="0px"
	 viewBox="0 0 938 105.3" style="enable-background:new 0 0 938 105.3;" xml:space="preserve">
<style type="text/css">
	.st0{clip-path:url(#SVGID_2_);enable-background:new    ;}
	.st1{fill:#5151FC;}
	.st2{font-family:'HKGrotesk-Bold';}
	.st3{font-size:10px;}
	.st4{fill:#4500FF;}
	.st5{font-family:'HKGrotesk-Italic';}
	.st6{clip-path:url(#SVGID_2_);fill:none;stroke:#5151FC;stroke-width:0.5;stroke-miterlimit:10;}
	.st7{clip-path:url(#SVGID_2_);fill:none;}
	.st8{font-family:'HKGrotesk-Regular';}
	.st9{clip-path:url(#SVGID_2_);fill:#FF3366;}
	.st10{clip-path:url(#SVGID_2_);}
	.st11{clip-path:url(#SVGID_4_);}
	.st12{clip-path:url(#SVGID_6_);fill:#5151FC;stroke:#FFFFFF;stroke-width:0.75;stroke-miterlimit:10;}
	.st13{clip-path:url(#SVGID_6_);fill:none;}
	.st14{clip-path:url(#SVGID_6_);enable-background:new    ;}
	.st15{fill:#FFFFFF;}
	.st16{font-size:7.796px;}
	.st17{fill:#F299C1;}
	.st18{fill:#FFCC66;}
	.st19{fill:#FBFB97;}
	.st20{fill:#99FFFF;}
</style>
<g>
	<defs>
		<rect id="SVGID_1_" y="0" width="938" height="105.3"/>
	</defs>
	<clipPath id="SVGID_2_">
		<use xlink:href="#SVGID_1_"  style="overflow:visible;"/>
	</clipPath>
	<g class="st0">
		<text transform="matrix(1 0 0 1 237.244 23.801)" class="st1 st2 st3">ELEMENTI DI TRASFORMAZIONE DELLA REALTÀ</text>
	</g>
	<g class="st0">
		<text transform="matrix(1 0 0 1 268.1656 42.813)" class="st4 st5 st3">Personaggio immaginario</text>
	</g>
	<g class="st0">
		<text transform="matrix(1 0 0 1 0.244 23.801)" class="st1 st2 st3">TIPOLOGIA SEQUENZA NARRATIVA</text>
	</g>
	<line id="Linea_7911" class="st6" x1="0.2" y1="0.8" x2="938.2" y2="0.8"/>
	<rect id="Rectangle_50" y="1" class="st7" width="938" height="104.4"/>
	<g class="st0">
		<text transform="matrix(1 0 0 1 31.235 42.813)" class="st8 st3">Immaginazione</text>
	</g>
	<path id="Rectangle_13361" class="st9" d="M5.3,34.8h11c2.7,0,5,2.2,5,4.9c0,0,0,0.1,0,0.1l0,0c0,2.7-2.2,5-4.9,5c0,0-0.1,0-0.1,0
		h-11c-2.7,0-5-2.2-5-4.9c0,0,0-0.1,0-0.1l0,0C0.4,37,2.6,34.8,5.3,34.8z"/>
	<g class="st10">
		<defs>
			<rect id="SVGID_3_" x="243.1" y="33.3" width="11.6" height="11.6"/>
		</defs>
		<clipPath id="SVGID_4_">
			<use xlink:href="#SVGID_3_"  style="overflow:visible;"/>
		</clipPath>
		<g class="st11">
			<defs>
				<rect id="SVGID_5_" x="243" y="33.4" width="11.6" height="11.6"/>
			</defs>
			<clipPath id="SVGID_6_">
				<use xlink:href="#SVGID_5_"  style="overflow:visible;"/>
			</clipPath>
			<circle id="Ellisse_33594" class="st12" cx="248.8" cy="39.2" r="5.5"/>
			<rect id="Rettangolo_19346" x="247.8" y="36.4" class="st13" width="3.2" height="6.6"/>
			<g class="st14">
				<text transform="matrix(1 0 0 1 247.8301 41.846)" class="st15 st2 st16">i</text>
			</g>
		</g>
	</g>
</g>
<g>
	<text transform="matrix(1 0 0 1 595.481 62.624)" class="st8 st3">Metafora e similitudine animale</text>
	<path id="Tracciato_153173" class="st17" d="M574.2,54.4c2.8,0,5,2.2,5,5c0,2.8-2.2,5-5,5c-2.7,0-5-2.3-5-5
		C569.3,56.6,571.5,54.4,574.2,54.4 M574.2,53.7c-3.1,0-5.7,2.6-5.7,5.7c0,3.1,2.6,5.7,5.7,5.7c3.1,0,5.7-2.6,5.7-5.7
		C579.9,56.3,577.4,53.7,574.2,53.7z"/>
</g>
<g>
	<text transform="matrix(1 0 0 1 268.1658 62.6201)" class="st8 st3">Interrogativi e dubbi</text>
	<path id="Rectangle_13359-2" class="st18" d="M241.9,54.7h11c2.7,0,5,2.2,5,4.9c0,0,0,0.1,0,0.1l0,0c0,2.7-2.2,5-4.9,5
		c0,0-0.1,0-0.1,0h-11c-2.7,0-5-2.2-5-4.9c0,0,0-0.1,0-0.1l0,0C236.9,56.9,239.1,54.7,241.9,54.7z"/>
</g>
<g>
	<text transform="matrix(1 0 0 1 452.0154 42.7579)" class="st8 st3">Visioni e desideri</text>
	<path id="Rectangle_13360-2" class="st19" d="M425.7,34.8h11c2.7,0,5,2.2,5,4.9c0,0,0,0.1,0,0.1l0,0c0,2.7-2.2,5-4.9,5
		c0,0-0.1,0-0.1,0h-11c-2.7,0-5-2.2-5-4.9c0,0,0-0.1,0-0.1l0,0C420.7,37,423,34.8,425.7,34.8z"/>
</g>
<g>
	<text transform="matrix(1 0 0 1 595.1754 42.758)" class="st8 st3">Similitudine</text>
	<path id="Rectangle_13360" class="st20" d="M568.9,34.8h11c2.7,0,5,2.2,5,4.9c0,0,0,0.1,0,0.1l0,0c0,2.7-2.2,5-4.9,5
		c0,0-0.1,0-0.1,0h-11c-2.7,0-5-2.2-5-4.9c0,0,0-0.1,0-0.1l0,0C563.9,37,566.1,34.8,568.9,34.8z"/>
</g>
<g>
	<text transform="matrix(1 0 0 1 452.0184 62.5701)" class="st8 st3">Metafora</text>
	<path id="Rectangle_13359" class="st17" d="M425.7,54.6h11c2.7,0,5,2.2,5,4.9c0,0,0,0.1,0,0.1l0,0c0,2.7-2.2,5-4.9,5
		c0,0-0.1,0-0.1,0h-11c-2.7,0-5-2.2-5-4.9c0,0,0-0.1,0-0.1l0,0C420.7,56.9,423,54.6,425.7,54.6z"/>
</g>
</svg>
