<svg xmlns="http://www.w3.org/2000/svg" xmlns:xlink="http://www.w3.org/1999/xlink" width="904" height="56" viewBox="0 0 904 56"><defs><clipPath id="b"><rect width="904" height="56"/></clipPath></defs><g id="a" clip-path="url(#b)"><g transform="translate(-0.88 -1.65)"><ellipse cx="5.47" cy="5.47" rx="5.47" ry="5.47" transform="translate(12.265 42.041)" fill="#fff" stroke="#000" stroke-miterlimit="10" stroke-width="0.5"/><ellipse cx="16.165" cy="16.165" rx="16.165" ry="16.165" transform="translate(1.57 20.65)" fill="none" stroke="#000" stroke-miterlimit="10" stroke-width="0.5"/><path d="M1.782-.537c-.22,0-.239-.264-.239-.278V-6.9H.806V-.986C.806-.4.859.1,1.6.1A2.381,2.381,0,0,0,2.256,0V-.586A2.891,2.891,0,0,1,1.782-.537ZM4.763.107A1.736,1.736,0,0,0,6.3-.825V0h.723V-4.878H6.3v2.7A1.566,1.566,0,0,1,4.841-.508C4.006-.508,3.816-1.294,3.816-2V-4.878H3.088v2.832C3.088-.83,3.562.107,4.763.107ZM8.565,0h.728V-2.534c0-1.211.61-1.812,1.377-1.812.859,0,1.108.781,1.108,1.455V0H12.5V-2.964c0-1.074-.474-2-1.636-2a1.752,1.752,0,0,0-1.572.938v-.85H8.565Zm7.117-.63c-.693-.1-1.3-.244-1.3-.747a.462.462,0,0,1,.21-.376,2.079,2.079,0,0,0,.918.205,1.661,1.661,0,0,0,1.8-1.68,1.761,1.761,0,0,0-.181-.791l.786-.62L17.5-5.156l-.732.664a1.855,1.855,0,0,0-1.26-.454,1.7,1.7,0,0,0-1.826,1.709,1.625,1.625,0,0,0,.41,1.113,1,1,0,0,0-.356.806,1.082,1.082,0,0,0,.62,1l-.7.708a1.287,1.287,0,0,0-.015.186c0,.928.835,1.66,2.1,1.66,1.025,0,1.953-.479,1.953-1.484C17.693-.352,16.673-.5,15.681-.63ZM15.5-4.37a1.059,1.059,0,0,1,1.079,1.118,1.023,1.023,0,0,1-1.079,1.1,1.019,1.019,0,0,1-1.074-1.1A1.066,1.066,0,0,1,15.5-4.37Zm.3,5.962c-.947,0-1.484-.5-1.489-1l.576-.7a4.948,4.948,0,0,0,.581.127c.835.142,1.577.166,1.577.791C17.044,1.338,16.443,1.592,15.8,1.592ZM18.838,0h.723V-2.632a1.537,1.537,0,0,1,1.455-1.65c.84,0,1.035.728,1.035,1.392V0h.737V-3.008c0-1.04-.474-1.958-1.641-1.958a1.9,1.9,0,0,0-1.587.889V-6.9h-.723Zm7.2.068A2.392,2.392,0,0,0,27.9-.693l-.5-.4a1.7,1.7,0,0,1-1.372.522,1.444,1.444,0,0,1-1.426-1.621h3.4c.01-.088.024-.249.024-.376,0-1.123-.488-2.378-2.07-2.378-1.416,0-2.119,1.226-2.119,2.534A2.211,2.211,0,0,0,26.038.068ZM24.607-2.788c.039-.83.459-1.558,1.353-1.558,1,0,1.353.776,1.372,1.558Zm7.918-2.09h-3.7v.6h2.842L28.687-.552V0h3.838V-.625H29.6l2.93-3.652Zm4.451,0h-3.7v.6h2.842L33.138-.552V0h3.838V-.625h-2.93l2.93-3.652ZM39.224.1a1.821,1.821,0,0,0,1.714-1.04L40.953,0h.62V-2.993A1.8,1.8,0,0,0,39.664-4.98a2.164,2.164,0,0,0-1.841.957l.532.415a1.605,1.605,0,0,1,1.353-.737c.884,0,1.2.64,1.2,1.558H39.791c-1.387,0-2.148.454-2.148,1.431A1.43,1.43,0,0,0,39.224.1Zm.083-.615c-.508,0-.913-.239-.913-.82,0-.649.5-.9,1.465-.9H40.9A1.683,1.683,0,0,1,39.307-.518ZM46.891.1a1.966,1.966,0,0,0,.654-.1V-.625a1.164,1.164,0,0,1-.488.122c-.356,0-.62-.249-.62-.786V-4.282h1.235v-.6H46.437V-6.66l-.723.684v1.1h-.786v.6h.781v2.988C45.709-.459,46.026.1,46.891.1ZM50.5.068a2.392,2.392,0,0,0,1.865-.762l-.5-.4A1.7,1.7,0,0,1,50.5-.571a1.444,1.444,0,0,1-1.426-1.621h3.4c.01-.088.024-.249.024-.376,0-1.123-.488-2.378-2.07-2.378-1.416,0-2.119,1.226-2.119,2.534A2.211,2.211,0,0,0,50.5.068ZM49.071-2.788c.039-.83.459-1.558,1.353-1.558,1,0,1.353.776,1.372,1.558ZM55,.1a1.521,1.521,0,0,0,1.675-1.489c0-1.792-2.632-1.2-2.632-2.324,0-.4.327-.674.854-.674a1.15,1.15,0,0,1,1.089.688l.537-.308a1.733,1.733,0,0,0-1.6-.972,1.392,1.392,0,0,0-1.548,1.353c0,1.655,2.593,1.011,2.593,2.324,0,.527-.405.806-.957.806A1.237,1.237,0,0,1,53.8-1.426l-.615.317A1.893,1.893,0,0,0,55,.1Zm4.143,0A1.966,1.966,0,0,0,59.8,0V-.625A1.164,1.164,0,0,1,59.31-.5c-.356,0-.62-.249-.62-.786V-4.282h1.235v-.6H58.69V-6.66l-.723.684v1.1h-.786v.6h.781v2.988C57.963-.459,58.28.1,59.144.1Zm3.689,0a2.4,2.4,0,0,0,2.324-2.549A2.383,2.383,0,0,0,62.833-4.98a2.361,2.361,0,0,0-2.3,2.529A2.376,2.376,0,0,0,62.833.1Zm0-.605c-1.074,0-1.572-.957-1.572-1.943s.5-1.924,1.582-1.924,1.572.947,1.572,1.924S63.932-.508,62.838-.508Z" transform="translate(51.52 42.94)"/><line x2="27.35" transform="translate(19.91 20.65)" fill="none" stroke="#000" stroke-miterlimit="10" stroke-width="0.25" stroke-dasharray="2.03 2.03"/><line x2="27.35" transform="translate(19.91 52.98)" fill="none" stroke="#000" stroke-miterlimit="10" stroke-width="0.25" stroke-dasharray="2.03 2.03"/><rect width="7.94" height="4.5" transform="translate(166.79 25.86)" fill="#b6f5e7"/><rect width="7.94" height="4.5" transform="translate(167.71 25.86)" fill="#aff3e4"/><rect width="7.94" height="4.5" transform="translate(168.63 25.86)" fill="#a9f1e1"/><rect width="7.94" height="4.5" transform="translate(169.55 25.86)" fill="#a2efdf"/><rect width="7.94" height="4.5" transform="translate(170.47 25.86)" fill="#9beddc"/><rect width="7.94" height="4.5" transform="translate(171.39 25.86)" fill="#94ebd9"/><rect width="7.94" height="4.5" transform="translate(172.31 25.86)" fill="#8ee9d6"/><rect width="7.94" height="4.5" transform="translate(173.24 25.86)" fill="#87e8d4"/><rect width="7.94" height="4.5" transform="translate(174.16 25.86)" fill="#80e6d1"/><rect width="7.94" height="4.5" transform="translate(175.08 25.86)" fill="#79e4ce"/><rect width="7.94" height="4.5" transform="translate(176 25.86)" fill="#73e2cb"/><rect width="7.94" height="4.5" transform="translate(176.92 25.86)" fill="#6ce0c8"/><rect width="7.94" height="4.5" transform="translate(177.84 25.86)" fill="#65dec6"/><rect width="7.94" height="4.5" transform="translate(178.76 25.86)" fill="#5edcc3"/><rect width="7.94" height="4.5" transform="translate(179.68 25.86)" fill="#58dac0"/><rect width="7.94" height="4.5" transform="translate(180.61 25.86)" fill="#51d8bd"/><rect width="7.94" height="4.5" transform="translate(181.53 25.86)" fill="#4ad6bb"/><rect width="7.94" height="4.5" transform="translate(182.45 25.86)" fill="#43d4b8"/><rect width="7.94" height="4.5" transform="translate(183.37 25.86)" fill="#3dd2b5"/><rect width="7.94" height="4.5" transform="translate(184.29 25.86)" fill="#36d0b2"/><rect width="7.94" height="4.5" transform="translate(185.21 25.86)" fill="#2fceaf"/><rect width="7.94" height="4.5" transform="translate(186.13 25.86)" fill="#28cdad"/><rect width="7.94" height="4.5" transform="translate(187.05 25.86)" fill="#22cbaa"/><rect width="7.94" height="4.5" transform="translate(187.98 25.86)" fill="#1bc9a7"/><rect width="7.94" height="4.5" transform="translate(188.9 25.86)" fill="#14c7a4"/><rect width="7.94" height="4.5" transform="translate(189.82 25.86)" fill="#0dc5a2"/><rect width="7.94" height="4.5" transform="translate(190.74 25.86)" fill="#07c39f"/><rect width="7.94" height="4.5" transform="translate(191.66 25.86)" fill="#00c19c"/><path d="M1.035,0h.771V-3.115H2.969c1.338,0,2.207-.664,2.207-1.88,0-1.187-.869-1.9-2.207-1.9H1.035Zm.771-3.8V-6.211H2.969c.923,0,1.445.449,1.445,1.216,0,.8-.522,1.191-1.445,1.191ZM7.466.068A2.392,2.392,0,0,0,9.331-.693l-.5-.4a1.7,1.7,0,0,1-1.372.522A1.444,1.444,0,0,1,6.036-2.192h3.4c.01-.088.024-.249.024-.376,0-1.123-.488-2.378-2.07-2.378-1.416,0-2.119,1.226-2.119,2.534A2.211,2.211,0,0,0,7.466.068ZM6.036-2.788c.039-.83.459-1.558,1.353-1.558,1,0,1.353.776,1.372,1.558ZM10.713,0h.718V-2.437c0-1.177.5-1.846,1.333-1.846a.888.888,0,0,1,.6.186l.308-.63a1.268,1.268,0,0,0-.786-.254,1.572,1.572,0,0,0-1.44.967v-.864h-.728Zm4.729.1A1.861,1.861,0,0,0,17.279-1.2l-.635-.273a1.224,1.224,0,0,1-1.211.952c-1.021,0-1.362-1.021-1.362-1.914s.352-1.934,1.362-1.934a1.234,1.234,0,0,1,1.211.977l.688-.293a2,2,0,0,0-1.9-1.3c-1.406,0-2.109,1.24-2.109,2.549S14.037.1,15.443.1Zm4.78-.029a2.392,2.392,0,0,0,1.865-.762l-.5-.4a1.7,1.7,0,0,1-1.372.522,1.444,1.444,0,0,1-1.426-1.621h3.4c.01-.088.024-.249.024-.376,0-1.123-.488-2.378-2.07-2.378-1.416,0-2.119,1.226-2.119,2.534A2.211,2.211,0,0,0,20.223.068ZM18.792-2.788c.039-.83.459-1.558,1.353-1.558,1,0,1.353.776,1.372,1.558ZM23.47,0H24.2V-2.534c0-1.211.61-1.812,1.377-1.812.859,0,1.108.781,1.108,1.455V0h.723V-2.964c0-1.074-.474-2-1.636-2a1.752,1.752,0,0,0-1.572.938v-.85H23.47Zm6.821.1a1.966,1.966,0,0,0,.654-.1V-.625a1.164,1.164,0,0,1-.488.122c-.356,0-.62-.249-.62-.786V-4.282h1.235v-.6H29.837V-6.66l-.723.684v1.1h-.786v.6h.781v2.988C29.11-.459,29.427.1,30.291.1Zm3.491.01a1.736,1.736,0,0,0,1.533-.933V0h.723V-4.878h-.723v2.7a1.566,1.566,0,0,1-1.455,1.67c-.835,0-1.025-.786-1.025-1.489V-4.878h-.728v2.832C32.108-.83,32.581.107,33.783.107ZM38.822.1a1.821,1.821,0,0,0,1.714-1.04L40.55,0h.62V-2.993A1.8,1.8,0,0,0,39.261-4.98a2.164,2.164,0,0,0-1.841.957l.532.415a1.605,1.605,0,0,1,1.353-.737c.884,0,1.2.64,1.2,1.558H39.388c-1.387,0-2.148.454-2.148,1.431A1.43,1.43,0,0,0,38.822.1ZM38.9-.518c-.508,0-.913-.239-.913-.82,0-.649.5-.9,1.465-.9H40.5A1.683,1.683,0,0,1,38.9-.518Zm4.746-.02c-.22,0-.239-.264-.239-.278V-6.9h-.737V-.986c0,.586.054,1.084.791,1.084a2.381,2.381,0,0,0,.659-.1V-.586A2.891,2.891,0,0,1,43.651-.537Zm3.389.605A2.392,2.392,0,0,0,48.9-.693l-.5-.4a1.7,1.7,0,0,1-1.372.522,1.444,1.444,0,0,1-1.426-1.621h3.4c.01-.088.024-.249.024-.376,0-1.123-.488-2.378-2.07-2.378-1.416,0-2.119,1.226-2.119,2.534A2.211,2.211,0,0,0,47.039.068ZM45.609-2.788c.039-.83.459-1.558,1.353-1.558,1,0,1.353.776,1.372,1.558ZM56.058-6.9v2.686A1.746,1.746,0,0,0,54.53-4.98c-1.245,0-1.953,1.143-1.953,2.539S53.285.1,54.535.1a1.734,1.734,0,0,0,1.528-.776L56.078,0h.708V-6.9ZM54.72-.518c-.977,0-1.4-.928-1.4-1.924s.42-1.924,1.4-1.924c1,0,1.4.938,1.4,1.924S55.716-.518,54.72-.518ZM58.4-5.962h.83V-6.9H58.4ZM58.451,0h.723V-4.878h-.723Zm5.977-.537c-.22,0-.239-.264-.239-.278V-6.9h-.737V-.986C63.451-.4,63.5.1,64.242.1A2.381,2.381,0,0,0,64.9,0V-.586A2.891,2.891,0,0,1,64.427-.537Zm2.981.645a1.736,1.736,0,0,0,1.533-.933V0h.723V-4.878h-.723v2.7a1.566,1.566,0,0,1-1.455,1.67c-.835,0-1.025-.786-1.025-1.489V-4.878h-.728v2.832C65.733-.83,66.207.107,67.408.107ZM73.07.1a2.4,2.4,0,0,0,2.324-2.549A2.383,2.383,0,0,0,73.07-4.98a2.361,2.361,0,0,0-2.3,2.529A2.376,2.376,0,0,0,73.07.1Zm0-.605C72-.508,71.5-1.465,71.5-2.451s.5-1.924,1.582-1.924,1.572.947,1.572,1.924S74.169-.508,73.075-.508ZM78.387-.63c-.693-.1-1.3-.244-1.3-.747a.462.462,0,0,1,.21-.376,2.079,2.079,0,0,0,.918.205,1.661,1.661,0,0,0,1.8-1.68,1.761,1.761,0,0,0-.181-.791l.786-.62L80.2-5.156l-.732.664a1.855,1.855,0,0,0-1.26-.454,1.7,1.7,0,0,0-1.826,1.709,1.625,1.625,0,0,0,.41,1.113,1,1,0,0,0-.356.806,1.082,1.082,0,0,0,.62,1l-.7.708a1.287,1.287,0,0,0-.015.186c0,.928.835,1.66,2.1,1.66,1.025,0,1.953-.479,1.953-1.484C80.4-.352,79.379-.5,78.387-.63ZM78.2-4.37a1.059,1.059,0,0,1,1.079,1.118,1.023,1.023,0,0,1-1.079,1.1,1.019,1.019,0,0,1-1.074-1.1A1.066,1.066,0,0,1,78.2-4.37Zm.3,5.962c-.947,0-1.484-.5-1.489-1l.576-.7a4.948,4.948,0,0,0,.581.127c.835.142,1.577.166,1.577.791C79.75,1.338,79.149,1.592,78.5,1.592ZM81.644,0h.723V-2.632a1.537,1.537,0,0,1,1.455-1.65c.84,0,1.035.728,1.035,1.392V0h.737V-3.008c0-1.04-.474-1.958-1.641-1.958a1.9,1.9,0,0,0-1.587.889V-6.9h-.723Zm5.435-5.962h.83V-6.9h-.83ZM87.132,0h.723V-4.878h-.723ZM92.1-5.962h.83V-6.9H92.1ZM92.157,0h.723V-4.878h-.723ZM94.53,0h.728V-2.534c0-1.211.61-1.812,1.377-1.812.859,0,1.108.781,1.108,1.455V0h.723V-2.964c0-1.074-.474-2-1.636-2a1.752,1.752,0,0,0-1.572.938v-.85H94.53Zm6.621,0h.645l1.816-4.878h-.781L101.473-.947l-1.348-3.931h-.8Zm4.927.068a2.392,2.392,0,0,0,1.865-.762l-.5-.4a1.7,1.7,0,0,1-1.372.522,1.444,1.444,0,0,1-1.426-1.621h3.4c.01-.088.024-.249.024-.376,0-1.123-.488-2.378-2.07-2.378-1.416,0-2.119,1.226-2.119,2.534A2.211,2.211,0,0,0,106.078.068Zm-1.431-2.856c.039-.83.459-1.558,1.353-1.558,1,0,1.353.776,1.372,1.558ZM109.325,0h.728V-2.534c0-1.211.61-1.812,1.377-1.812.859,0,1.108.781,1.108,1.455V0h.723V-2.964c0-1.074-.474-2-1.636-2a1.752,1.752,0,0,0-1.572.938v-.85h-.728Zm6.821.1A1.966,1.966,0,0,0,116.8,0V-.625a1.164,1.164,0,0,1-.488.122c-.356,0-.62-.249-.62-.786V-4.282h1.235v-.6h-1.235V-6.66l-.723.684v1.1h-.786v.6h.781v2.988C114.965-.459,115.282.1,116.146.1Zm3.076,0a1.821,1.821,0,0,0,1.714-1.04l.015.942h.62V-2.993a1.8,1.8,0,0,0-1.909-1.987,2.164,2.164,0,0,0-1.841.957l.532.415a1.605,1.605,0,0,1,1.353-.737c.884,0,1.2.64,1.2,1.558h-1.113c-1.387,0-2.148.454-2.148,1.431A1.43,1.43,0,0,0,119.222.1Zm.083-.615c-.508,0-.913-.239-.913-.82,0-.649.5-.9,1.465-.9H120.9A1.683,1.683,0,0,1,119.305-.518ZM124.437.1a1.966,1.966,0,0,0,.654-.1V-.625A1.164,1.164,0,0,1,124.6-.5c-.356,0-.62-.249-.62-.786V-4.282h1.235v-.6h-1.235V-6.66l-.723.684v1.1h-.786v.6h.781v2.988C123.256-.459,123.573.1,124.437.1Zm1.895-6.06h.83V-6.9h-.83ZM126.386,0h.723V-4.878h-.723ZM.82,12h.728V9.466c0-1.211.61-1.812,1.377-1.812.859,0,1.108.781,1.108,1.455V12h.723V9.036c0-1.074-.474-2-1.636-2a1.752,1.752,0,0,0-1.572.938v-.85H.82Zm7.285.068a2.392,2.392,0,0,0,1.865-.762l-.5-.4a1.7,1.7,0,0,1-1.372.522A1.444,1.444,0,0,1,6.675,9.808h3.4c.01-.088.024-.249.024-.376,0-1.123-.488-2.378-2.07-2.378-1.416,0-2.119,1.226-2.119,2.534A2.211,2.211,0,0,0,8.105,12.068ZM6.675,9.212c.039-.83.459-1.558,1.353-1.558,1,0,1.353.776,1.372,1.558Zm5.64,2.251c-.22,0-.239-.264-.239-.278V5.1h-.737v5.913c0,.586.054,1.084.791,1.084a2.381,2.381,0,0,0,.659-.1v-.586A2.891,2.891,0,0,1,12.314,11.463Zm5.566.635a1.966,1.966,0,0,0,.654-.1v-.625a1.164,1.164,0,0,1-.488.122c-.356,0-.62-.249-.62-.786V7.718h1.235v-.6H17.427V5.34l-.723.684v1.1h-.786v.6H16.7v2.988C16.7,11.541,17.017,12.1,17.881,12.1Zm3.611-.029a2.392,2.392,0,0,0,1.865-.762l-.5-.4a1.7,1.7,0,0,1-1.372.522,1.444,1.444,0,0,1-1.426-1.621h3.4c.01-.088.024-.249.024-.376,0-1.123-.488-2.378-2.07-2.378-1.416,0-2.119,1.226-2.119,2.534A2.211,2.211,0,0,0,21.492,12.068ZM20.061,9.212c.039-.83.459-1.558,1.353-1.558,1,0,1.353.776,1.372,1.558Zm6.03,2.886a1.521,1.521,0,0,0,1.675-1.489c0-1.792-2.632-1.2-2.632-2.324,0-.4.327-.674.854-.674a1.15,1.15,0,0,1,1.089.688l.537-.308a1.733,1.733,0,0,0-1.6-.972,1.392,1.392,0,0,0-1.548,1.353c0,1.655,2.593,1.011,2.593,2.324,0,.527-.405.806-.957.806a1.237,1.237,0,0,1-1.216-.928l-.615.317A1.893,1.893,0,0,0,26.091,12.1Zm4.243,0a1.966,1.966,0,0,0,.654-.1v-.625a1.164,1.164,0,0,1-.488.122c-.356,0-.62-.249-.62-.786V7.718h1.235v-.6H29.88V5.34l-.723.684v1.1h-.786v.6h.781v2.988C29.153,11.541,29.47,12.1,30.335,12.1Zm3.689,0a2.4,2.4,0,0,0,2.324-2.549,2.321,2.321,0,1,0-4.624,0A2.376,2.376,0,0,0,34.024,12.1Zm0-.605c-1.074,0-1.572-.957-1.572-1.943s.5-1.924,1.582-1.924,1.572.947,1.572,1.924S35.122,11.492,34.029,11.492Zm6.2.508h.718V9.563c0-1.177.5-1.846,1.333-1.846a.888.888,0,0,1,.6.186l.308-.63A1.268,1.268,0,0,0,42.4,7.02a1.572,1.572,0,0,0-1.44.967V7.122H40.23Zm3.848-5.962h.83V5.1h-.83ZM44.131,12h.723V7.122h-.723Zm3.726.1a1.521,1.521,0,0,0,1.675-1.489c0-1.792-2.632-1.2-2.632-2.324,0-.4.327-.674.854-.674a1.15,1.15,0,0,1,1.089.688l.537-.308a1.733,1.733,0,0,0-1.6-.972,1.392,1.392,0,0,0-1.548,1.353c0,1.655,2.593,1.011,2.593,2.324,0,.527-.405.806-.957.806a1.237,1.237,0,0,1-1.216-.928l-.615.317A1.893,1.893,0,0,0,47.857,12.1Zm2.9,2.041h.732v-2.8a1.75,1.75,0,0,0,1.494.762c1.309,0,1.987-1.157,1.987-2.539S54.282,7.02,52.974,7.02a1.743,1.743,0,0,0-1.489.767V7.122h-.732Zm2.07-2.656c-.991,0-1.406-.928-1.406-1.924s.415-1.924,1.406-1.924,1.411.938,1.411,1.924S53.8,11.482,52.822,11.482Zm5.254.586a2.392,2.392,0,0,0,1.865-.762l-.5-.4a1.7,1.7,0,0,1-1.372.522,1.444,1.444,0,0,1-1.426-1.621h3.4c.01-.088.024-.249.024-.376,0-1.123-.488-2.378-2.07-2.378-1.416,0-2.119,1.226-2.119,2.534A2.211,2.211,0,0,0,58.076,12.068ZM56.646,9.212c.039-.83.459-1.558,1.353-1.558,1,0,1.353.776,1.372,1.558ZM62.681,12.1a1.966,1.966,0,0,0,.654-.1v-.625a1.164,1.164,0,0,1-.488.122c-.356,0-.62-.249-.62-.786V7.718h1.235v-.6H62.227V5.34l-.723.684v1.1h-.786v.6H61.5v2.988C61.5,11.541,61.817,12.1,62.681,12.1Zm3.286,0a1.966,1.966,0,0,0,.654-.1v-.625a1.164,1.164,0,0,1-.488.122c-.356,0-.62-.249-.62-.786V7.718h1.235v-.6H65.513V5.34l-.723.684v1.1H64v.6h.781v2.988C64.785,11.541,65.1,12.1,65.967,12.1Zm3.789,0A2.4,2.4,0,0,0,72.08,9.549a2.321,2.321,0,1,0-4.624,0A2.376,2.376,0,0,0,69.756,12.1Zm0-.605c-1.074,0-1.572-.957-1.572-1.943s.5-1.924,1.582-1.924,1.572.947,1.572,1.924S70.855,11.492,69.761,11.492ZM77.1,12.1a1.821,1.821,0,0,0,1.714-1.04l.015.942h.62V9.007A1.8,1.8,0,0,0,77.539,7.02a2.164,2.164,0,0,0-1.841.957l.532.415a1.605,1.605,0,0,1,1.353-.737c.884,0,1.2.64,1.2,1.558H77.666c-1.387,0-2.148.454-2.148,1.431A1.43,1.43,0,0,0,77.1,12.1Zm.083-.615c-.508,0-.913-.239-.913-.82,0-.649.5-.9,1.465-.9h1.045A1.683,1.683,0,0,1,77.183,11.482Zm4.746-.02c-.22,0-.239-.264-.239-.278V5.1h-.737v5.913c0,.586.054,1.084.791,1.084A2.381,2.381,0,0,0,82.4,12v-.586A2.891,2.891,0,0,1,81.929,11.463ZM86.138,12h.728V9.466c0-1.211.61-1.812,1.377-1.812.859,0,1.108.781,1.108,1.455V12h.723V9.036c0-1.074-.474-2-1.636-2a1.752,1.752,0,0,0-1.572.938v-.85h-.728Zm6.829.107a1.736,1.736,0,0,0,1.533-.933V12h.723V7.122H94.5v2.7a1.566,1.566,0,0,1-1.455,1.67c-.835,0-1.025-.786-1.025-1.489V7.122h-.728V9.954C91.292,11.17,91.765,12.107,92.967,12.107Zm3.9-.107h.737V9.456c0-.884.435-1.816,1.245-1.816.835,0,1.025.776,1.025,1.45V12h.742V9.295c0-.8.435-1.655,1.235-1.655.845,0,1.045.806,1.045,1.47V12h.737V9.036c0-1.084-.488-2.017-1.694-2.017a1.618,1.618,0,0,0-1.519,1.021,1.529,1.529,0,0,0-2.817-.161V7.122h-.737Zm10.117.068a2.392,2.392,0,0,0,1.865-.762l-.5-.4a1.7,1.7,0,0,1-1.372.522,1.444,1.444,0,0,1-1.426-1.621h3.4c.01-.088.024-.249.024-.376,0-1.123-.488-2.378-2.07-2.378-1.416,0-2.119,1.226-2.119,2.534A2.211,2.211,0,0,0,106.985,12.068Zm-1.431-2.856c.039-.83.459-1.558,1.353-1.558,1,0,1.353.776,1.372,1.558ZM110.232,12h.718V9.563c0-1.177.5-1.846,1.333-1.846a.888.888,0,0,1,.6.186l.308-.63a1.268,1.268,0,0,0-.786-.254,1.572,1.572,0,0,0-1.44.967V7.122h-.728Zm4.881.1a2.4,2.4,0,0,0,2.324-2.549,2.321,2.321,0,1,0-4.624,0A2.376,2.376,0,0,0,115.113,12.1Zm0-.605c-1.074,0-1.572-.957-1.572-1.943s.5-1.924,1.582-1.924,1.572.947,1.572,1.924S116.212,11.492,115.118,11.492ZM.82,24h.737V21.456c0-.884.435-1.816,1.245-1.816.835,0,1.025.776,1.025,1.45V24H4.57V21.295c0-.8.435-1.655,1.235-1.655.845,0,1.045.806,1.045,1.47V24h.737V21.036c0-1.084-.488-2.017-1.694-2.017A1.618,1.618,0,0,0,4.375,20.04,1.465,1.465,0,0,0,2.886,19.02a1.459,1.459,0,0,0-1.328.859v-.757H.82Zm9.434.1a1.821,1.821,0,0,0,1.714-1.04l.015.942h.62V21.007a1.8,1.8,0,0,0-1.909-1.987,2.164,2.164,0,0,0-1.841.957l.532.415a1.605,1.605,0,0,1,1.353-.737c.884,0,1.2.64,1.2,1.558H10.82c-1.387,0-2.148.454-2.148,1.431A1.43,1.43,0,0,0,10.254,24.1Zm.083-.615c-.508,0-.913-.239-.913-.82,0-.649.5-.9,1.465-.9h1.045A1.683,1.683,0,0,1,10.337,23.482Zm5.137.615a1.521,1.521,0,0,0,1.675-1.489c0-1.792-2.632-1.2-2.632-2.324,0-.4.327-.674.854-.674a1.15,1.15,0,0,1,1.089.688L17,19.991a1.733,1.733,0,0,0-1.6-.972,1.392,1.392,0,0,0-1.548,1.353c0,1.655,2.593,1.011,2.593,2.324,0,.527-.405.806-.957.806a1.237,1.237,0,0,1-1.216-.928l-.615.317A1.893,1.893,0,0,0,15.474,24.1Zm4.238,0a1.521,1.521,0,0,0,1.675-1.489c0-1.792-2.632-1.2-2.632-2.324,0-.4.327-.674.854-.674A1.15,1.15,0,0,1,20.7,20.3l.537-.308a1.733,1.733,0,0,0-1.6-.972,1.392,1.392,0,0,0-1.548,1.353c0,1.655,2.593,1.011,2.593,2.324,0,.527-.405.806-.957.806a1.237,1.237,0,0,1-1.216-.928l-.615.317A1.893,1.893,0,0,0,19.712,24.1Zm2.842-6.06h.83V17.1h-.83ZM22.607,24h.723V19.122h-.723Zm2.373,0h.737V21.456c0-.884.435-1.816,1.245-1.816.835,0,1.025.776,1.025,1.45V24h.742V21.295c0-.8.435-1.655,1.235-1.655.845,0,1.045.806,1.045,1.47V24h.737V21.036c0-1.084-.488-2.017-1.694-2.017a1.618,1.618,0,0,0-1.519,1.021,1.529,1.529,0,0,0-2.817-.161v-.757H24.98Zm10.2.1A2.4,2.4,0,0,0,37.5,21.549a2.321,2.321,0,1,0-4.624,0A2.376,2.376,0,0,0,35.176,24.1Zm0-.605c-1.074,0-1.572-.957-1.572-1.943s.5-1.924,1.582-1.924,1.572.947,1.572,1.924S36.274,23.492,35.181,23.492ZM44.512,17.1v2.686a1.746,1.746,0,0,0-1.528-.767c-1.245,0-1.953,1.143-1.953,2.539s.708,2.539,1.958,2.539a1.734,1.734,0,0,0,1.528-.776l.015.679h.708V17.1Zm-1.338,6.382c-.977,0-1.4-.928-1.4-1.924s.42-1.924,1.4-1.924c1,0,1.4.938,1.4,1.924S44.17,23.482,43.174,23.482Zm5.542.586a2.392,2.392,0,0,0,1.865-.762l-.5-.4a1.7,1.7,0,0,1-1.372.522,1.444,1.444,0,0,1-1.426-1.621h3.4c.01-.088.024-.249.024-.376,0-1.123-.488-2.378-2.07-2.378-1.416,0-2.119,1.226-2.119,2.534A2.211,2.211,0,0,0,48.716,24.068Zm-1.431-2.856c.039-.83.459-1.558,1.353-1.558,1,0,1.353.776,1.372,1.558Zm5.64,2.251c-.22,0-.239-.264-.239-.278V17.1h-.737v5.913c0,.586.054,1.084.791,1.084A2.381,2.381,0,0,0,53.4,24v-.586A2.891,2.891,0,0,1,52.925,23.463Zm2.529,0c-.22,0-.239-.264-.239-.278V17.1h-.737v5.913c0,.586.054,1.084.791,1.084a2.381,2.381,0,0,0,.659-.1v-.586A2.891,2.891,0,0,1,55.454,23.463Zm2.7.635a1.821,1.821,0,0,0,1.714-1.04l.015.942h.62V21.007a1.8,1.8,0,0,0-1.909-1.987,2.164,2.164,0,0,0-1.841.957l.532.415a1.605,1.605,0,0,1,1.353-.737c.884,0,1.2.64,1.2,1.558H58.716c-1.387,0-2.148.454-2.148,1.431A1.43,1.43,0,0,0,58.149,24.1Zm.083-.615c-.508,0-.913-.239-.913-.82,0-.649.5-.9,1.465-.9h1.045A1.683,1.683,0,0,1,58.232,23.482Zm8.174.615A1.861,1.861,0,0,0,68.242,22.8l-.635-.273a1.224,1.224,0,0,1-1.211.952c-1.021,0-1.362-1.021-1.362-1.914s.352-1.934,1.362-1.934a1.234,1.234,0,0,1,1.211.977l.688-.293a2,2,0,0,0-1.9-1.3c-1.406,0-2.109,1.24-2.109,2.549S65,24.1,66.406,24.1Zm4.006,0a1.821,1.821,0,0,0,1.714-1.04l.015.942h.62V21.007a1.8,1.8,0,0,0-1.909-1.987,2.164,2.164,0,0,0-1.841.957l.532.415a1.605,1.605,0,0,1,1.353-.737c.884,0,1.2.64,1.2,1.558H70.979c-1.387,0-2.148.454-2.148,1.431A1.43,1.43,0,0,0,70.413,24.1Zm.083-.615c-.508,0-.913-.239-.913-.82,0-.649.5-.9,1.465-.9h1.045A1.683,1.683,0,0,1,70.5,23.482Zm5.132.615a1.966,1.966,0,0,0,.654-.1v-.625a1.164,1.164,0,0,1-.488.122c-.356,0-.62-.249-.62-.786V19.718h1.235v-.6H75.173V17.34l-.723.684v1.1h-.786v.6h.781v2.988C74.446,23.541,74.763,24.1,75.628,24.1Zm3.711-.029a2.392,2.392,0,0,0,1.865-.762l-.5-.4a1.7,1.7,0,0,1-1.372.522,1.444,1.444,0,0,1-1.426-1.621h3.4c.01-.088.024-.249.024-.376,0-1.123-.488-2.378-2.07-2.378-1.416,0-2.119,1.226-2.119,2.534A2.211,2.211,0,0,0,79.338,24.068Zm-1.431-2.856c.039-.83.459-1.558,1.353-1.558,1,0,1.353.776,1.372,1.558Zm6.431,2.158c-.693-.1-1.3-.244-1.3-.747a.462.462,0,0,1,.21-.376,2.079,2.079,0,0,0,.918.205,1.661,1.661,0,0,0,1.8-1.68,1.761,1.761,0,0,0-.181-.791l.786-.62-.415-.518-.732.664a1.855,1.855,0,0,0-1.26-.454,1.7,1.7,0,0,0-1.826,1.709,1.625,1.625,0,0,0,.41,1.113,1,1,0,0,0-.356.806,1.082,1.082,0,0,0,.62,1l-.7.708a1.287,1.287,0,0,0-.015.186c0,.928.835,1.66,2.1,1.66,1.025,0,1.953-.479,1.953-1.484C86.35,23.648,85.33,23.5,84.338,23.37Zm-.186-3.74a1.059,1.059,0,0,1,1.079,1.118,1.077,1.077,0,1,1-2.153,0A1.066,1.066,0,0,1,84.153,19.63Zm.3,5.962c-.947,0-1.484-.5-1.489-1l.576-.7a4.948,4.948,0,0,0,.581.127c.835.142,1.577.166,1.577.791C85.7,25.338,85.1,25.592,84.456,25.592ZM89.285,24.1a2.4,2.4,0,0,0,2.324-2.549,2.321,2.321,0,1,0-4.624,0A2.376,2.376,0,0,0,89.285,24.1Zm0-.605c-1.074,0-1.572-.957-1.572-1.943s.5-1.924,1.582-1.924,1.572.947,1.572,1.924S90.384,23.492,89.29,23.492Zm3.56.508h.718V21.563c0-1.177.5-1.846,1.333-1.846a.888.888,0,0,1,.6.186l.308-.63a1.268,1.268,0,0,0-.786-.254,1.572,1.572,0,0,0-1.44.967v-.864h-.728ZM96.7,18.038h.83V17.1H96.7ZM96.751,24h.723V19.122h-.723Zm3.511.1a1.821,1.821,0,0,0,1.714-1.04l.015.942h.62V21.007A1.8,1.8,0,0,0,100.7,19.02a2.164,2.164,0,0,0-1.841.957l.532.415a1.605,1.605,0,0,1,1.353-.737c.884,0,1.2.64,1.2,1.558h-1.113c-1.387,0-2.148.454-2.148,1.431A1.43,1.43,0,0,0,100.262,24.1Zm.083-.615c-.508,0-.913-.239-.913-.82,0-.649.5-.9,1.465-.9h1.045A1.683,1.683,0,0,1,100.345,23.482Z" transform="translate(208.55 30.83)"/><path d="M1.16,0H3.393C6.117,0,7.641-1.482,7.641-4.078c0-2.707-1.482-4.2-4.236-4.2H1.16ZM2.35-1.09V-7.2H3.381c2.121,0,3.07,1,3.07,3.053,0,2.18-1.318,3.053-3.2,3.053ZM9.4,0h1.189V-8.279H9.4Zm3.51,0h1.16V-6.873L16.359-.721h1.213l2.285-6.152V0h1.16V-8.279H19.271L16.957-1.986l-2.3-6.293H12.914ZM23.338,0H28.77V-1.107H24.527V-3.615h3.8V-4.67h-3.8V-7.213H28.77V-8.279H23.338Zm7.277,0h1.16V-6.6l3.5,6.6H36.7V-8.279h-1.16v6.592L32.021-8.279H30.615ZM41.25.094a2.482,2.482,0,0,0,2.719-2.437c0-2.707-4-2.232-4-3.949a1.105,1.105,0,0,1,1.2-1.061,1.634,1.634,0,0,1,1.482.92l.949-.6A2.64,2.64,0,0,0,41.2-8.4a2.219,2.219,0,0,0-2.4,2.186c0,2.6,4,2.033,4,3.973,0,.809-.592,1.277-1.535,1.277A1.711,1.711,0,0,1,39.4-2.531l-1.154.311A2.848,2.848,0,0,0,41.25.094ZM45.6,0h1.189V-8.279H45.6Zm6.8.117c2.625,0,3.85-1.98,3.85-4.26S55.031-8.4,52.406-8.4s-3.844,1.986-3.844,4.26S49.787.117,52.406.117Zm0-1.072c-1.893,0-2.625-1.512-2.625-3.187s.732-3.182,2.625-3.182,2.637,1.512,2.637,3.182S54.3-.955,52.406-.955ZM58.025,0h1.16V-6.6l3.5,6.6h1.424V-8.279h-1.16v6.592L59.432-8.279H58.025Zm8.408,0h5.432V-1.107H67.623V-3.615h3.8V-4.67h-3.8V-7.213h4.242V-8.279H66.434Z" transform="translate(0.88 10.65)"/><path d="M4.453.117a3.622,3.622,0,0,0,3.5-2.291l-1.1-.463A2.318,2.318,0,0,1,4.482-1C2.572-1,1.793-2.443,1.793-4.184c0-1.67.773-3.105,2.666-3.105A2.226,2.226,0,0,1,6.838-5.672l1.1-.457A3.494,3.494,0,0,0,4.488-8.414C1.811-8.414.615-6.428.615-4.148.615-1.846,1.84.117,4.453.117Zm8.136,0c2.625,0,3.85-1.98,3.85-4.26S15.214-8.4,12.589-8.4,8.745-6.416,8.745-4.143,9.97.117,12.589.117Zm0-1.072c-1.893,0-2.625-1.512-2.625-3.187s.732-3.182,2.625-3.182,2.637,1.512,2.637,3.182S14.487-.955,12.589-.955ZM18.208,0h4.734V-1.107H19.4V-8.279H18.208Zm8.745.117c2.625,0,3.85-1.98,3.85-4.26S29.579-8.4,26.954-8.4,23.11-6.416,23.11-4.143,24.334.117,26.954.117Zm0-1.072c-1.893,0-2.625-1.512-2.625-3.187s.732-3.182,2.625-3.182S29.59-5.812,29.59-4.143,28.852-.955,26.954-.955Zm5.619.967h1.189V-3.627h1.189L37.008.012h1.377L36.112-3.762a2.181,2.181,0,0,0,1.7-2.15,2.453,2.453,0,0,0-2.725-2.361H32.573Zm1.2-4.664V-7.213H35.1c.92,0,1.535.492,1.535,1.313,0,.768-.562,1.207-1.406,1.248ZM39.85,0h5.432V-1.107H41.04V-3.615h3.8V-4.67h-3.8V-7.213h4.242V-8.279H39.85Z" transform="translate(166.02 10.65)"/><ellipse cx="11.411" cy="11.411" rx="11.411" ry="11.411" transform="translate(6.324 30.159)" fill="none" stroke="#000" stroke-miterlimit="10" stroke-width="0.5"/></g><g transform="translate(-54.174 289.507) rotate(-90)"><g transform="translate(235 98.297)"><g transform="translate(0)"><path d="M283.97,99.9l-31.765.2" transform="translate(-252 -98.297)" fill="none" stroke="#444" stroke-width="0.5"/><rect width="1" height="3.3" transform="translate(31.665 0.003) rotate(-0.172)" fill="#444"/><rect width="1" height="3.3" transform="translate(0 0.203) rotate(-0.178)" fill="#444"/></g></g></g></g></svg>