<svg xmlns="http://www.w3.org/2000/svg" xmlns:xlink="http://www.w3.org/1999/xlink" width="938" height="105.29" viewBox="0 0 938 105.29"><defs><clipPath id="a"><rect width="11.6" height="11.6" transform="translate(236.6 -103.869)" fill="none"/></clipPath><clipPath id="b"><rect width="11.61" height="11.61" transform="translate(236.521 -103.748)" fill="none"/></clipPath><clipPath id="d"><rect width="938" height="105.29"/></clipPath></defs><g id="c" clip-path="url(#d)"><g transform="translate(0.2 137.196)"><text transform="translate(237.044 -113.395)" fill="#5151fc" font-size="10" font-family="HKGrotesk-Bold, HK Grotesk" font-weight="700" style="isolation:isolate"><tspan x="0" y="0">ELEMENTI</tspan></text><text transform="translate(260.274 -94.383)" fill="#4500ff" font-size="10" font-family="HKGrotesk-Italic, HK Grotesk" font-style="italic" style="isolation:isolate"><tspan x="0" y="0">Personaggi immaginari</tspan></text><text transform="translate(259.239 -72.383)" font-size="10" font-family="HKGrotesk-Regular, HK Grotesk" style="isolation:isolate"><tspan x="0" y="0">Metafore o similitudine animali</tspan></text><text transform="translate(0.044 -113.395)" fill="#5151fc" font-size="10" font-family="HKGrotesk-Bold, HK Grotesk" font-weight="700" style="isolation:isolate"><tspan x="0" y="0">TIPOLOGIA SEQUENZA NARRATIVA</tspan></text><text transform="translate(474.933 -113.395)" fill="#5151fc" font-size="10" font-family="HKGrotesk-Bold, HK Grotesk" font-weight="700" style="isolation:isolate"><tspan x="0" y="0">FIGURE RETORICHE</tspan></text><line x2="938" transform="translate(0 -136.402)" fill="none" stroke="#5151fc" stroke-miterlimit="10" stroke-width="0.5"/><rect width="938" height="104.4" transform="translate(-0.2 -136.202)" fill="none"/><text transform="translate(31.035 -94.383)" font-size="10" font-family="HKGrotesk-Regular, HK Grotesk" style="isolation:isolate"><tspan x="0" y="0">Immaginazione</tspan></text><path d="M5.142-102.4h11a4.951,4.951,0,0,1,5,5h0a4.951,4.951,0,0,1-5,5h-11a4.951,4.951,0,0,1-5-5h0A5.015,5.015,0,0,1,5.142-102.4Z" fill="#f36"/><text transform="translate(511.485 -94.649)" font-size="10" font-family="HKGrotesk-Regular, HK Grotesk" style="isolation:isolate"><tspan x="0" y="0">Metafore</tspan></text><text transform="translate(511.484 -72.649)" font-size="10" font-family="HKGrotesk-Regular, HK Grotesk" style="isolation:isolate"><tspan x="0" y="0">Similitudini</tspan></text><path d="M485.2-102.6h11a4.951,4.951,0,0,1,5,5h0a4.951,4.951,0,0,1-5,5h-11a4.951,4.951,0,0,1-5-5h0A5.015,5.015,0,0,1,485.2-102.6Z" fill="#f299c1"/><path d="M485.2-80.6h11a4.951,4.951,0,0,1,5,5h0a4.951,4.951,0,0,1-5,5h-11a4.951,4.951,0,0,1-5-5h0A5.015,5.015,0,0,1,485.2-80.6Z" fill="#9ff"/><text transform="translate(627.983 -94.649)" font-size="10" font-family="HKGrotesk-Regular, HK Grotesk" style="isolation:isolate"><tspan x="0" y="0">Dubbi - interrogativi</tspan></text><text transform="translate(627.982 -72.649)" font-size="10" font-family="HKGrotesk-Regular, HK Grotesk" style="isolation:isolate"><tspan x="0" y="0">Visioni - desideri</tspan></text><path d="M601.7-102.6h11a4.951,4.951,0,0,1,5,5h0a4.951,4.951,0,0,1-5,5h-11a4.951,4.951,0,0,1-5-5h0A5.015,5.015,0,0,1,601.7-102.6Z" fill="#fc6"/><path d="M601.7-80.6h11a4.951,4.951,0,0,1,5,5h0a4.951,4.951,0,0,1-5,5h-11a4.951,4.951,0,0,1-5-5h0A5.015,5.015,0,0,1,601.7-80.6Z" fill="#fbfb97"/></g><g transform="translate(0.2 137.196)"><path d="M242.4-80.6a5.015,5.015,0,0,1,5,5,5.015,5.015,0,0,1-5,5,5.081,5.081,0,0,1-5-5,5.015,5.015,0,0,1,5-5m0-.7a5.763,5.763,0,0,0-5.7,5.7,5.763,5.763,0,0,0,5.7,5.7,5.763,5.763,0,0,0,5.7-5.7,5.763,5.763,0,0,0-5.7-5.7Z" fill="#f299c1"/></g><g transform="translate(0.2 137.196)"><g clip-path="url(#a)"><g clip-path="url(#b)"><circle cx="5.49" cy="5.49" r="5.49" transform="translate(236.881 -103.478)" fill="#5151fc" stroke="#fff" stroke-miterlimit="10" stroke-width="0.75"/><rect width="3.24" height="6.57" transform="translate(241.381 -100.778)" fill="none"/><text transform="translate(241.367 -95.35)" fill="#fff" font-size="7.796" font-family="HKGrotesk-Bold, HK Grotesk" font-weight="700" style="isolation:isolate"><tspan x="0" y="0">i</tspan></text></g></g></g></g></svg>