<svg xmlns="http://www.w3.org/2000/svg" xmlns:xlink="http://www.w3.org/1999/xlink" width="127" height="162" viewBox="0 0 127 162"><defs><clipPath id="b"><rect width="127" height="162"/></clipPath></defs><g id="a" clip-path="url(#b)"><text transform="translate(0 9)" font-size="10" font-family="HKGrotesk-Italic, HK Grotesk" font-style="italic"><tspan x="0" y="0">Piano</tspan></text><text transform="translate(0 106)" font-size="10" font-family="HKGrotesk-Italic, HK Grotesk" font-style="italic"><tspan x="0" y="0">Salti di piano</tspan></text><text transform="translate(30 35)" font-size="9" font-family="HKGrotesk-Regular, HK Grotesk" style="isolation:isolate"><tspan x="0" y="0">Esteriore</tspan></text><path d="M5.559,0h9.882A5.3,5.3,0,0,1,21,5a5.3,5.3,0,0,1-5.559,5H5.559A5.3,5.3,0,0,1,0,5,5.3,5.3,0,0,1,5.559,0Z" transform="translate(0 27)" fill="#5151fc"/><text transform="translate(30 51)" font-size="9" font-family="HKGrotesk-Regular, HK Grotesk" style="isolation:isolate"><tspan x="0" y="0">Interiore</tspan></text><path d="M5.559,0h9.882A5.3,5.3,0,0,1,21,5a5.3,5.3,0,0,1-5.559,5H5.559A5.3,5.3,0,0,1,0,5,5.3,5.3,0,0,1,5.559,0Z" transform="translate(0 44)" fill="#0affb7"/><text transform="translate(29.483 68)" font-size="9" font-family="HKGrotesk-Regular, HK Grotesk" style="isolation:isolate"><tspan x="0" y="0">Formale</tspan></text><text transform="translate(48.483 123)" font-size="9" font-family="HKGrotesk-Regular, HK Grotesk" style="isolation:isolate"><tspan x="0" y="0">Dal piano </tspan><tspan x="0" y="10.8">interiore </tspan><tspan x="0" y="21.6">al piano </tspan><tspan x="0" y="32.4">esteriore</tspan></text><rect width="21" height="10" rx="5" transform="translate(0 60)" fill="#ffa501"/><g transform="translate(0.095 116.68)"><rect width="19.223" height="1.353" fill="#00ffb6"/><rect width="19.223" height="5.051" transform="translate(0 1.354)" fill="#00ffb6"/><rect width="19.223" height="4.449" transform="translate(0 6.406)" fill="#00ffb6"/><rect width="19.223" height="2.736" transform="translate(0 10.857)" fill="#00ffb6"/><rect width="19.223" height="0.76" transform="translate(0 13.594)" fill="#00ffb6"/><rect width="19.223" height="1.749" transform="translate(0 14.355)" fill="#00ffb6"/><rect width="19.223" height="0.518" transform="translate(0 16.105)" fill="#00ffb6"/><rect width="19.223" height="2.483" transform="translate(0 16.624)" fill="#00ffb6"/></g><g transform="translate(19.891 135.788)"><rect width="19.223" height="4.158" fill="#5151fc"/></g><path d="M6205.737,884.324c0-14.219-12.946-17.644-18.588-17.644" transform="translate(-6167 -750)" fill="none" stroke="#000" stroke-width="0.5" stroke-dasharray="2"/><path d="M5.559,0h9.882A5.3,5.3,0,0,1,21,5a5.3,5.3,0,0,1-5.559,5H5.559A5.3,5.3,0,0,1,0,5,5.3,5.3,0,0,1,5.559,0Z" transform="translate(0 27)" fill="#5151fc"/></g></svg>