<svg id="Layer_1" data-name="Layer 1" xmlns="http://www.w3.org/2000/svg" viewBox="0 0 695.81164 25">
  <g id="info">
    <rect x="3.30153" y="8.5" width="692.51011" height="16" fill="none" opacity="0.8"/>
    <g>
      <path d="M24.45974,13.22525h1.85449c1.3501,0,2.08838.63037,2.08838,1.76465,0,1.16113-.74707,1.80957-2.08838,1.80957H25.2156v2.70068h-.75586ZM26.242,16.09732c.90918,0,1.39551-.36035,1.39551-1.08936,0-.72949-.46826-1.08056-1.39551-1.08056H25.2156v2.16992Z"/>
      <path d="M30.29177,13.22525H34.4236v.70215h-3.376V15.944h3.05224v.70215H31.04763V18.798h3.376v.70215H30.29177Z"/>
      <path d="M39.94069,19.50015l-1.58447-2.73682H37.18581v2.73682h-.75635v-6.2749H38.284c1.38672,0,2.08887.63037,2.08887,1.75537a1.60139,1.60139,0,0,1-1.26074,1.68359L40.823,19.50015Zm-1.72851-3.439c.8999,0,1.39551-.333,1.39551-1.07128s-.49561-1.0625-1.39551-1.0625H37.18581v2.13378Z"/>
      <path d="M42.66677,13.22525h.75586v6.2749h-.75586Z"/>
      <path d="M45.45632,16.36734c0-1.94483,1.17041-3.24121,2.89892-3.24121,1.73731,0,2.90772,1.28759,2.90772,3.24121a2.92,2.92,0,1,1-5.80664,0Zm5.05029,0c0-1.53076-.83691-2.521-2.15137-2.521-1.30566,0-2.14257.98145-2.14257,2.521,0,1.53027.83691,2.51172,2.14257,2.51172C49.6697,18.87906,50.50661,17.88882,50.50661,16.36734Z"/>
      <path d="M53.2864,13.22525h1.72851a2.91554,2.91554,0,0,1,3.22266,3.187c0,1.99853-1.14307,3.08789-3.23194,3.08789H53.2864ZM54.94265,18.798c1.68359,0,2.52978-.75635,2.52978-2.4126a2.17525,2.17525,0,0,0-2.4668-2.458h-.96337V18.798Z"/>
      <path d="M63.43044,17.90689H60.86452l-.57617,1.59326h-.82813l2.37647-6.2749h.6123l2.38575,6.2749h-.83741Zm-.23438-.65723L62.15163,14.3146l-1.05322,2.93506Z"/>
      <path d="M66.5613,13.22525h.75586V18.798H70.135v.70215H66.5613Z"/>
      <path d="M71.49294,17.81656l.75635-.18018a1.42793,1.42793,0,0,0,1.5122,1.27881c.83741,0,1.2876-.44141,1.2876-1.03565,0-.62988-.37793-.94531-1.44922-1.35937-1.26953-.48584-1.71972-.94531-1.71972-1.78223a1.63941,1.63941,0,0,1,1.82763-1.61181,1.97622,1.97622,0,0,1,1.81836,1.04443l-.63916.396a1.349,1.349,0,0,0-1.20654-.76514.97165.97165,0,0,0-1.044.90918c0,.54053.40479.82861,1.36817,1.19726,1.38672.53125,1.80078,1.01758,1.80078,1.9087,0,1.08056-.76514,1.78271-2.06152,1.78271A2.14795,2.14795,0,0,1,71.49294,17.81656Z"/>
    </g>
    <line x1="13.30153" y1="24.5" x2="89.66484" y2="24.5" fill="none" stroke="#000" stroke-miterlimit="10" stroke-width="0.5"/>
    <g>
      <path d="M239.77614,17.81656l.75635-.18018a1.42794,1.42794,0,0,0,1.51221,1.27881c.8374,0,1.28759-.44141,1.28759-1.03565,0-.62988-.37793-.94531-1.44921-1.35937-1.26954-.48584-1.71973-.94531-1.71973-1.78223a1.63941,1.63941,0,0,1,1.82764-1.61181,1.97623,1.97623,0,0,1,1.81836,1.04443l-.63916.396a1.349,1.349,0,0,0-1.20655-.76514.97164.97164,0,0,0-1.04394.90918c0,.54053.40478.82861,1.36816,1.19726,1.38672.53125,1.80078,1.01758,1.80078,1.9087,0,1.08056-.76513,1.78271-2.06152,1.78271A2.14795,2.14795,0,0,1,239.77614,17.81656Z"/>
      <path d="M247.616,13.9274h-2.11573v-.70215h5.01416v.70215h-2.1333v5.57275H247.616Z"/>
      <path d="M251.62038,16.36734c0-1.94483,1.17041-3.24121,2.89893-3.24121,1.7373,0,2.90771,1.28759,2.90771,3.24121a2.92,2.92,0,1,1-5.80664,0Zm5.05029,0c0-1.53076-.83691-2.521-2.15136-2.521-1.30567,0-2.14258.98145-2.14258,2.521,0,1.53027.83691,2.51172,2.14258,2.51172C255.83376,18.87906,256.67067,17.88882,256.67067,16.36734Z"/>
      <path d="M262.97048,19.50015,261.386,16.76333H260.2156v2.73682h-.75635v-6.2749h1.85449c1.38672,0,2.08887.63037,2.08887,1.75537a1.60146,1.60146,0,0,1-1.26026,1.68359l1.71045,2.83594Zm-1.72852-3.439c.90039,0,1.39551-.333,1.39551-1.07128s-.49512-1.0625-1.39551-1.0625H260.2156v2.13378Z"/>
      <path d="M265.69655,13.22525h.75586v6.2749h-.75586Z"/>
      <path d="M268.74733,13.22525h4.13233v.70215h-3.37647V15.944h3.05225v.70215h-3.05225V18.798h3.37647v.70215h-4.13233Z"/>
      <path d="M274.45339,17.81656l.75635-.18018a1.42793,1.42793,0,0,0,1.5122,1.27881c.83741,0,1.2876-.44141,1.2876-1.03565,0-.62988-.37793-.94531-1.44922-1.35937-1.26953-.48584-1.71972-.94531-1.71972-1.78223a1.63941,1.63941,0,0,1,1.82763-1.61181,1.97623,1.97623,0,0,1,1.81836,1.04443l-.63916.396a1.34878,1.34878,0,0,0-1.206-.76514.97181.97181,0,0,0-1.04444.90918c0,.54053.40479.82861,1.36817,1.19726,1.38672.53125,1.80078,1.01758,1.80078,1.9087,0,1.08056-.76514,1.78271-2.06153,1.78271A2.14828,2.14828,0,0,1,274.45339,17.81656Z"/>
    </g>
    <line x1="186.71649" y1="24.5" x2="331.88657" y2="24.5" fill="none" stroke="#000" stroke-miterlimit="10" stroke-width="0.5"/>
    <g>
      <path d="M512.81716,16.34878c0-2.00781,1.11621-3.22314,2.93457-3.22314a2.6,2.6,0,0,1,2.6289,1.74658l-.70214.26123a1.86856,1.86856,0,0,0-1.92676-1.2876c-1.38672,0-2.17871.90039-2.17871,2.50293,0,1.61133.792,2.52979,2.14258,2.52979a1.93774,1.93774,0,0,0,1.96289-1.32324l.71972.27a2.70411,2.70411,0,0,1-2.68261,1.77343C513.91481,19.59878,512.81716,18.36538,512.81716,16.34878Z"/>
      <path d="M520.0613,16.36685c0-1.94483,1.1709-3.24121,2.89941-3.24121,1.73731,0,2.90723,1.2876,2.90723,3.24121a2.92,2.92,0,1,1-5.80664,0Zm5.05078,0c0-1.53076-.83691-2.521-2.15137-2.521-1.30566,0-2.14258.98145-2.14258,2.521,0,1.53027.83692,2.51172,2.14258,2.51172C524.27517,18.87857,525.11208,17.88833,525.11208,16.36685Z"/>
      <path d="M527.89235,13.22476h.75586v5.57275h2.81739v.70215h-3.57325Z"/>
      <path d="M533.18337,13.22476h.75586v5.57275h2.81836v.70215h-3.57422Z"/>
      <path d="M538.47536,13.22476h4.13281v.70215h-3.37695v2.0166H542.284v.70215h-3.05273v2.15185h3.37695v.70215h-4.13281Z"/>
      <path d="M544.3611,16.34878c0-2.00781,1.11621-3.22314,2.93555-3.22314a2.598,2.598,0,0,1,2.62793,1.74658l-.70215.26123a1.86662,1.86662,0,0,0-1.92578-1.2876c-1.38672,0-2.17871.90039-2.17871,2.50293,0,1.61133.792,2.52979,2.14258,2.52979a1.93655,1.93655,0,0,0,1.96191-1.32324l.7207.27a2.70411,2.70411,0,0,1-2.68261,1.77343C545.45974,19.59878,544.3611,18.36538,544.3611,16.34878Z"/>
      <path d="M553.407,13.92691h-2.11523v-.70215h5.01367v.70215h-2.13281v5.57275H553.407Z"/>
      <path d="M558.02321,13.22476h.75586v6.2749h-.75586Z"/>
      <path d="M560.81325,16.36685c0-1.94483,1.1709-3.24121,2.89942-3.24121,1.7373,0,2.90722,1.2876,2.90722,3.24121a2.92,2.92,0,1,1-5.80664,0Zm5.05078,0c0-1.53076-.83691-2.521-2.15136-2.521-1.30567,0-2.14258.98145-2.14258,2.521,0,1.53027.83691,2.51172,2.14258,2.51172C565.02712,18.87857,565.864,17.88833,565.864,16.36685Z"/>
      <path d="M573.1902,13.22476v6.2749h-.81054l-2.98047-4.9873v4.9873h-.75586v-6.2749h.80176l2.98828,4.95166V13.22476Z"/>
      <path d="M575.12282,17.81607l.75684-.18018a1.42747,1.42747,0,0,0,1.51172,1.27881c.83789,0,1.28808-.44141,1.28808-1.03564,0-.62989-.37793-.94532-1.44922-1.35938-1.26953-.48584-1.71972-.94531-1.71972-1.78223a1.63925,1.63925,0,0,1,1.82715-1.61181,1.97569,1.97569,0,0,1,1.81835,1.04443l-.63867.396a1.34878,1.34878,0,0,0-1.20605-.76514.97226.97226,0,0,0-1.04492.90918c0,.54053.40527.82861,1.36816,1.19727,1.38672.53125,1.80078,1.01757,1.80078,1.90869,0,1.08056-.76465,1.78271-2.06152,1.78271A2.14863,2.14863,0,0,1,575.12282,17.81607Z"/>
    </g>
    <line x1="407.45156" y1="24.5" x2="685.94369" y2="24.5" fill="none" stroke="#000" stroke-miterlimit="10" stroke-width="0.5"/>
  </g>
</svg>
