<svg id="Layer_1" data-name="Layer 1" xmlns="http://www.w3.org/2000/svg" viewBox="0 0 695.81164 25">
  <g id="info">
    <rect x="3.30153" y="8.5" width="692.51011" height="16" fill="none" opacity="0.8"/>
    <g>
      <path d="M26.53884,13.22525h1.85449c1.3501,0,2.08838.63037,2.08838,1.76465,0,1.16113-.74707,1.80957-2.08838,1.80957H27.2947v2.70068h-.75586Zm1.78222,2.87207c.90918,0,1.39551-.36035,1.39551-1.08936,0-.72949-.46826-1.08056-1.39551-1.08056H27.2947v2.16992Z"/>
      <path d="M32.37087,13.22525H36.5027v.70215h-3.376V15.944H36.179v.70215H33.12673V18.798h3.376v.70215H32.37087Z"/>
      <path d="M42.01979,19.50015l-1.58447-2.73682H39.26491v2.73682h-.75635v-6.2749h1.8545c1.38671,0,2.08886.63037,2.08886,1.75537a1.60139,1.60139,0,0,1-1.26074,1.68359l1.71094,2.83594Zm-1.72851-3.439c.8999,0,1.39551-.333,1.39551-1.07128s-.49561-1.0625-1.39551-1.0625H39.26491v2.13378Z"/>
      <path d="M44.74587,13.22525h.75586v6.2749h-.75586Z"/>
      <path d="M47.53542,16.36734c0-1.94483,1.17041-3.24121,2.89893-3.24121,1.7373,0,2.90771,1.28759,2.90771,3.24121a2.92,2.92,0,1,1-5.80664,0Zm5.05029,0c0-1.53076-.83691-2.521-2.15136-2.521-1.30567,0-2.14258.98145-2.14258,2.521,0,1.53027.83691,2.51172,2.14258,2.51172C51.7488,18.87906,52.58571,17.88882,52.58571,16.36734Z"/>
      <path d="M55.3655,13.22525H57.094a2.91554,2.91554,0,0,1,3.22266,3.187c0,1.99853-1.14307,3.08789-3.23193,3.08789H55.3655ZM57.02175,18.798c1.68359,0,2.52978-.75635,2.52978-2.4126a2.17525,2.17525,0,0,0-2.46679-2.458h-.96338V18.798Z"/>
      <path d="M62.34938,13.22525h.75586v6.2749h-.75586Z"/>
      <path d="M65.15749,16.34927c0-2.00781,1.11621-3.22314,2.93506-3.22314A2.599,2.599,0,0,1,70.721,14.87271l-.70215.26123a1.86759,1.86759,0,0,0-1.92627-1.2876c-1.38672,0-2.17871.90039-2.17871,2.50293,0,1.61133.792,2.52979,2.14258,2.52979a1.93754,1.93754,0,0,0,1.9624-1.32325l.72021.27a2.7041,2.7041,0,0,1-2.68261,1.77344C66.25563,19.59927,65.15749,18.36587,65.15749,16.34927Z"/>
      <path d="M72.66335,13.22525h.75586v6.2749h-.75586Z"/>
    </g>
    <line x1="13.30153" y1="24.5" x2="89.66484" y2="24.5" fill="none" stroke="#000" stroke-miterlimit="10" stroke-width="0.5"/>
    <g>
      <path d="M238.62575,19.50015l-1.58447-2.73682h-1.17041v2.73682h-.75635v-6.2749H236.969c1.38672,0,2.08887.63037,2.08887,1.75537a1.60146,1.60146,0,0,1-1.26025,1.68359l1.71045,2.83594Zm-1.72851-3.439c.90039,0,1.3955-.333,1.3955-1.07128s-.49511-1.0625-1.3955-1.0625h-1.02637v2.13378Z"/>
      <path d="M244.76345,17.90689H242.198l-.57617,1.59326h-.82813l2.37647-6.2749h.6123l2.38574,6.2749h-.8374Zm-.23389-.65723-1.04443-2.93506-1.05323,2.93506Z"/>
      <path d="M247.39968,16.34927c0-2.00781,1.11621-3.22314,2.93506-3.22314a2.599,2.599,0,0,1,2.62841,1.74658l-.70214.26123a1.8676,1.8676,0,0,0-1.92627-1.2876c-1.38672,0-2.17872.90039-2.17872,2.50293,0,1.61133.792,2.52979,2.14258,2.52979a1.93755,1.93755,0,0,0,1.96241-1.32325l.72021.27a2.70412,2.70412,0,0,1-2.68262,1.77344C248.49782,19.59927,247.39968,18.36587,247.39968,16.34927Z"/>
      <path d="M254.66237,16.34927c0-2.00781,1.11621-3.22314,2.93506-3.22314a2.599,2.599,0,0,1,2.62842,1.74658l-.70215.26123a1.86759,1.86759,0,0,0-1.92627-1.2876c-1.38672,0-2.17871.90039-2.17871,2.50293,0,1.61133.792,2.52979,2.14258,2.52979a1.93753,1.93753,0,0,0,1.9624-1.32325l.72022.27a2.70412,2.70412,0,0,1-2.68262,1.77344C255.76052,19.59927,254.66237,18.36587,254.66237,16.34927Z"/>
      <path d="M261.907,16.36734c0-1.94483,1.17041-3.24121,2.89893-3.24121,1.7373,0,2.90771,1.28759,2.90771,3.24121a2.92,2.92,0,1,1-5.80664,0Zm5.05029,0c0-1.53076-.83691-2.521-2.15136-2.521-1.30567,0-2.14258.98145-2.14258,2.521,0,1.53027.83691,2.51172,2.14258,2.51172C266.12038,18.87906,266.95729,17.88882,266.95729,16.36734Z"/>
      <path d="M274.284,13.22525v6.2749h-.81054l-2.98-4.9873v4.9873h-.75586v-6.2749h.80127l2.98877,4.95166V13.22525Z"/>
      <path d="M278.117,13.9274h-2.11572v-.70215h5.01416v.70215h-2.1333v5.57275H278.117Z"/>
      <path d="M282.73317,13.22525h.75586v6.2749h-.75586Z"/>
    </g>
    <line x1="186.71649" y1="24.5" x2="331.88657" y2="24.5" fill="none" stroke="#000" stroke-miterlimit="10" stroke-width="0.5"/>
    <g>
      <path d="M525.18337,19.49966l-1.584-2.73681h-1.17089v2.73681h-.75586v-6.2749h1.85449c1.38672,0,2.08887.63037,2.08887,1.75537a1.60139,1.60139,0,0,1-1.26075,1.68359l1.71094,2.83594Zm-1.72852-3.439c.90039,0,1.39551-.333,1.39551-1.07129s-.49512-1.0625-1.39551-1.0625h-1.02636V16.0607Z"/>
      <path d="M531.322,17.9064h-2.56641l-.57617,1.59326h-.82812l2.37695-6.2749h.61231l2.38574,6.2749h-.83789Zm-.23437-.65723-1.04493-2.93506L528.99,17.24917Z"/>
      <path d="M533.95778,16.34878c0-2.00781,1.11621-3.22314,2.93457-3.22314a2.6,2.6,0,0,1,2.62891,1.74658l-.70215.26123a1.86856,1.86856,0,0,0-1.92676-1.2876c-1.38672,0-2.17871.90039-2.17871,2.50293,0,1.61133.792,2.52979,2.14258,2.52979a1.93773,1.93773,0,0,0,1.96289-1.32324l.71973.27a2.70413,2.70413,0,0,1-2.68262,1.77343C535.05544,19.59878,533.95778,18.36538,533.95778,16.34878Z"/>
      <path d="M541.22048,16.34878c0-2.00781,1.11621-3.22314,2.93457-3.22314a2.6,2.6,0,0,1,2.6289,1.74658l-.70214.26123a1.86856,1.86856,0,0,0-1.92676-1.2876c-1.38672,0-2.17871.90039-2.17871,2.50293,0,1.61133.792,2.52979,2.14258,2.52979a1.93774,1.93774,0,0,0,1.96289-1.32324l.71972.27a2.70411,2.70411,0,0,1-2.68261,1.77343C542.31813,19.59878,541.22048,18.36538,541.22048,16.34878Z"/>
      <path d="M548.46462,16.36685c0-1.94483,1.1709-3.24121,2.89941-3.24121,1.73731,0,2.90723,1.2876,2.90723,3.24121a2.92,2.92,0,1,1-5.80664,0Zm5.05078,0c0-1.53076-.83691-2.521-2.15137-2.521-1.30566,0-2.14258.98145-2.14258,2.521,0,1.53027.83692,2.51172,2.14258,2.51172C552.67849,18.87857,553.5154,17.88833,553.5154,16.36685Z"/>
      <path d="M556.29567,13.22476h.75586v5.57275h2.81739v.70215h-3.57325Z"/>
      <path d="M562.074,13.92691h-2.11621v-.70215h5.01465v.70215h-2.13379v5.57275H562.074Z"/>
      <path d="M566.6902,13.22476H570.823v.70215h-3.377v2.0166h3.05274v.70215h-3.05274v2.15185h3.377v.70215H566.6902Z"/>
    </g>
    <line x1="407.45156" y1="24.5" x2="685.94369" y2="24.5" fill="none" stroke="#000" stroke-miterlimit="10" stroke-width="0.5"/>
  </g>
</svg>
