<?xml version="1.0" encoding="utf-8"?>
<!-- Generator: Adobe Illustrator 24.3.0, SVG Export Plug-In . SVG Version: 6.00 Build 0)  -->
<svg version="1.1" id="Livello_1" xmlns="http://www.w3.org/2000/svg" xmlns:xlink="http://www.w3.org/1999/xlink" x="0px" y="0px"
	 viewBox="0 0 137 115.8" style="enable-background:new 0 0 137 115.8;" xml:space="preserve">
<style type="text/css">
	.st0{fill:none;stroke:#444444;stroke-width:0.393;stroke-dasharray:2.986,2.986;}
	.st1{fill:none;stroke:#666666;stroke-width:3.44;}
	.st2{enable-background:new    ;}
	.st3{fill:none;stroke:#CCCCCC;stroke-width:3.44;}
	.st4{fill:none;stroke:#666666;stroke-width:3.929;}
	.st5{fill:#CCCCCC;stroke:#FFFFFF;stroke-width:1.2;}
	.st6{fill:#666666;stroke:#FFFFFF;stroke-width:1.2;}
	.st7{fill:none;stroke:#000000;stroke-width:0.393;}
</style>
<line id="Line_131" class="st0" x1="24.1" y1="105.6" x2="24.1" y2="87.9"/>
<line id="Line_104" class="st1" x1="64" y1="71.7" x2="91.1" y2="71.8"/>
<g class="st2">
	<path d="M1.1,26.4h0.7v6.3H5v0.7H1.1V26.4z"/>
	<path d="M6.2,26.4H7v1H6.2V26.4z M6.3,28.4H7v4.9H6.3V28.4z"/>
	<path d="M8.1,28.4h0.8l1.5,4l1.6-4h0.8l-2,4.9h-0.6L8.1,28.4z"/>
	<path d="M17.6,31h-3.6c0,1.1,0.6,1.7,1.6,1.7c0.5,0,1-0.1,1.4-0.6l0.5,0.4c-0.6,0.6-1.1,0.8-1.9,0.8c-1.5,0-2.3-1.1-2.3-2.5
		c0-1.4,0.8-2.6,2.2-2.6c1.5,0,2.1,1.2,2.1,2.3C17.6,30.8,17.6,30.9,17.6,31z M13.9,30.5h3c0,0,0-0.1,0-0.2c0-0.8-0.6-1.4-1.5-1.4
		C14.6,28.9,14,29.6,13.9,30.5z"/>
	<path d="M18.9,32.3v-5.9h0.7v5.9c0,0.3,0.1,0.6,0.4,0.6c0.1,0,0.3,0,0.5-0.1l0,0.6c-0.2,0.1-0.5,0.1-0.7,0.1
		C19.3,33.4,18.9,33,18.9,32.3z"/>
	<path d="M21.6,32.3v-5.9h0.7v5.9c0,0.3,0.1,0.6,0.4,0.6c0.1,0,0.3,0,0.5-0.1l0,0.6c-0.2,0.1-0.5,0.1-0.7,0.1
		C22,33.4,21.6,33,21.6,32.3z"/>
	<path d="M23.9,30.9c0-1.5,0.9-2.5,2.4-2.5c1.4,0,2.4,1.1,2.4,2.5c0,1.4-1,2.5-2.4,2.5S23.9,32.3,23.9,30.9z M28,30.9
		c0-1.1-0.6-1.9-1.7-1.9c-1.1,0-1.7,0.8-1.7,1.9c0,1.1,0.6,1.9,1.7,1.9C27.4,32.8,28,32,28,30.9z"/>
	<path d="M35.5,26.4v7h-0.7v-5.2h-1.7v-0.7h1.2c0.3,0,0.6-0.1,0.6-0.5v-0.6H35.5z"/>
</g>
<g class="st2">
	<path d="M62.2,32.7v0.6h-4.8v-0.6c1.6-1,3.8-2.5,3.8-4.3c0-0.9-0.5-1.4-1.4-1.4c-1.1,0-1.5,0.8-1.5,1.8l-0.7,0
		c0-1.4,0.8-2.4,2.2-2.4c1.2,0,2.1,0.8,2.1,2.1c0,1.8-1.6,3.2-3.3,4.3L62.2,32.7L62.2,32.7z"/>
</g>
<g class="st2">
	<path d="M87,31.2l0.7,0c0,1,0.7,1.6,1.8,1.6c1,0,1.7-0.5,1.7-1.5c0-1.2-1.2-1.3-2.1-1.3v-0.6c1,0,1.7-0.4,1.7-1.2
		c0-0.8-0.6-1.2-1.3-1.2c-0.9,0-1.5,0.5-1.5,1.3l-0.7,0c0-1.2,0.9-1.9,2.1-1.9c1.1,0,2.1,0.6,2.1,1.8c0,0.8-0.5,1.4-1,1.6
		c0.8,0.1,1.4,0.7,1.4,1.7c0,1.3-1.1,2.1-2.4,2.1C88.1,33.4,87,32.7,87,31.2z"/>
</g>
<path id="Path_74" class="st3" d="M35.1,83.3c-5.9,5.9-15.6,5.9-21.5,0s-5.9-15.6,0-21.5s15.6-5.9,21.5,0l0,0"/>
<path id="Path_76" class="st1" d="M60.1,56.7c4.4,9.8,4.4,21-0.1,30.7"/>
<path id="Path_77" class="st4" d="M57.4,53"/>
<path id="Path_78" class="st1" d="M89.3,60.2C91,68,91,76,89.3,83.8"/>
<path id="Path_79" class="st1" d="M35.1,61.8c5.9,5.9,6,15.5,0.1,21.5c0,0,0,0-0.1,0.1l0,0"/>
<ellipse id="Ellipse_2" class="st5" cx="24.1" cy="57.3" rx="2.6" ry="2.6"/>
<ellipse id="Ellipse_4" class="st5" cx="24.1" cy="87.9" rx="2.6" ry="2.6"/>
<ellipse id="Ellipse_4-2" class="st5" cx="9" cy="71.3" rx="2.6" ry="2.6"/>
<line id="Line_112" class="st1" x1="40.3" y1="71.5" x2="64" y2="71.7"/>
<ellipse id="Ellipse_6" class="st6" cx="39.5" cy="71.3" rx="2.6" ry="2.6"/>
<ellipse id="Ellipse_7" transform="matrix(0.9985 -5.530030e-02 5.530030e-02 0.9985 -3.8761 3.6148)" class="st6" cx="63.4" cy="71.8" rx="2.6" ry="2.6"/>
<ellipse id="Ellipse_8" class="st5" cx="60.1" cy="87.9" rx="2.6" ry="2.6"/>
<ellipse id="Ellipse_9" class="st6" cx="60.1" cy="57.3" rx="2.6" ry="2.6"/>
<ellipse id="Ellipse_10" class="st5" cx="89.8" cy="59.3" rx="2.6" ry="2.6"/>
<ellipse id="Ellipse_11" class="st6" cx="89.3" cy="82.1" rx="2.6" ry="2.6"/>
<path id="Line_115" class="st7" d="M15.9,54.7V36.8"/>
<line id="Line_116" class="st7" x1="59.8" y1="53" x2="59.8" y2="36.6"/>
<line id="Line_117" class="st7" x1="89.5" y1="54.7" x2="89.5" y2="36.6"/>
<g class="st2">
	<path d="M1.1,3h0.7v6.3H5V10H1.1V3z"/>
	<path d="M9.9,5.1V10H9.2V9.3c-0.4,0.5-1,0.8-1.6,0.8c-1.1,0-1.6-0.8-1.6-2v-3h0.7v2.8c0,0.8,0.1,1.5,1.1,1.5c1,0,1.5-0.8,1.5-2.1
		V5.1H9.9z"/>
	<path d="M11.2,7.5c0-1.5,0.9-2.5,2.4-2.5C15,5,16,6.1,16,7.5c0,1.4-1,2.5-2.4,2.5S11.2,9,11.2,7.5z M15.3,7.5
		c0-1.1-0.6-1.9-1.7-1.9c-1.1,0-1.7,0.8-1.7,1.9c0,1.1,0.6,1.9,1.7,1.9C14.6,9.5,15.3,8.6,15.3,7.5z"/>
	<path d="M21.2,10.8c0,0.9-0.9,1.4-2.1,1.4c-1.4,0-2.2-0.5-2.2-1.5c0-0.1,0-0.2,0-0.2l0.8-0.7c-0.4-0.2-0.6-0.5-0.6-0.9
		c0-0.4,0.2-0.7,0.5-0.9c-0.3-0.3-0.4-0.7-0.4-1.1C17.2,5.7,18,5,19,5c0.5,0,0.9,0.1,1.2,0.4L21,4.8l0.4,0.5l-0.7,0.6
		c0.2,0.3,0.3,0.6,0.3,0.9c0,1-0.8,1.7-1.9,1.7c-0.4,0-0.7-0.1-1-0.2c-0.2,0.1-0.3,0.3-0.3,0.5c0,0.5,0.6,0.6,1.3,0.7
		C20,9.5,21.2,9.7,21.2,10.8z M20.5,10.8c0-0.6-0.8-0.7-1.6-0.8c-0.2,0-0.4-0.1-0.7-0.1l-0.7,0.6c0,0.1,0,0.1,0,0.1
		c0,0.7,0.7,0.9,1.5,0.9C20,11.5,20.5,11.3,20.5,10.8z M17.8,6.7c0,0.6,0.5,1.1,1.2,1.1c0.7,0,1.2-0.5,1.2-1.1
		c0-0.7-0.5-1.1-1.2-1.1C18.4,5.6,17.8,6,17.8,6.7z"/>
	<path d="M26.5,7v3h-0.7V7.2c0-1.1-0.3-1.5-1.1-1.5c-0.9,0-1.5,0.8-1.5,2.1V10h-0.7V3h0.7v2.8C23.6,5.3,24.2,5,24.9,5
		C25.9,5,26.5,5.7,26.5,7z"/>
	<path d="M28.1,3h0.8v1h-0.8V3z M28.2,5.1h0.7V10h-0.7V5.1z"/>
	<path d="M33,7.6C33,6.3,33.7,5,35.2,5c0.9,0,1.6,0.4,2,1.4l-0.7,0.3c-0.2-0.6-0.7-1-1.3-1c-1,0-1.5,0.9-1.5,1.9
		c0,1,0.5,1.9,1.5,1.9c0.6,0,1.1-0.4,1.3-1l0.6,0.2c-0.3,0.9-1,1.4-1.9,1.4C33.8,10.1,33,8.9,33,7.6z"/>
	<path d="M38,7.5C38,6.1,39,5,40.4,5c1.4,0,2.4,1.1,2.4,2.5c0,1.4-1,2.5-2.4,2.5S38,9,38,7.5z M42.1,7.5c0-1.1-0.6-1.9-1.7-1.9
		c-1.1,0-1.7,0.8-1.7,1.9c0,1.1,0.6,1.9,1.7,1.9C41.4,9.5,42.1,8.6,42.1,7.5z"/>
	<path d="M48.1,7v3h-0.7V7.2c0-1.1-0.3-1.5-1.1-1.5c-0.9,0-1.5,0.8-1.5,2.2V10h-0.7V5.1h0.7v0.7C45.2,5.3,45.8,5,46.5,5
		C47.5,5,48.1,5.7,48.1,7z"/>
	<path d="M51.8,10c-0.3,0.1-0.5,0.1-0.7,0.1c-0.7,0-1.1-0.4-1.1-1.2V5.7h-0.8V5.1h0.8V3.7l0.7-0.5v1.9h1.2v0.6h-1.2v3.1
		c0,0.5,0.2,0.7,0.6,0.7c0.2,0,0.4,0,0.6-0.1L51.8,10z"/>
	<path d="M57,7.7h-3.6c0,1.1,0.6,1.7,1.6,1.7c0.5,0,1-0.1,1.4-0.6l0.5,0.4c-0.6,0.6-1.1,0.8-1.9,0.8c-1.5,0-2.3-1.1-2.3-2.5
		c0-1.4,0.8-2.6,2.2-2.6C56.4,5,57,6.2,57,7.3C57,7.4,57,7.6,57,7.7z M53.4,7.1h3c0,0,0-0.1,0-0.2c0-0.8-0.6-1.4-1.5-1.4
		C54,5.6,53.4,6.3,53.4,7.1z"/>
	<path d="M62.3,7v3h-0.7V7.2c0-1.1-0.3-1.5-1.1-1.5c-0.9,0-1.5,0.8-1.5,2.2V10h-0.7V5.1h0.7v0.7C59.4,5.3,60,5,60.7,5
		C61.8,5,62.3,5.7,62.3,7z"/>
	<path d="M67.7,5.1V10h-0.7V9.3c-0.4,0.5-1,0.8-1.6,0.8c-1.1,0-1.6-0.8-1.6-2v-3h0.7v2.8c0,0.8,0.1,1.5,1.1,1.5c1,0,1.5-0.8,1.5-2.1
		V5.1H67.7z"/>
	<path d="M71.6,10c-0.3,0.1-0.5,0.1-0.7,0.1c-0.7,0-1.1-0.4-1.1-1.2V5.7h-0.8V5.1h0.8V3.7l0.7-0.5v1.9h1.2v0.6h-1.2v3.1
		c0,0.5,0.2,0.7,0.6,0.7c0.2,0,0.4,0,0.6-0.1L71.6,10z"/>
	<path d="M72.9,3h0.8v1h-0.8V3z M72.9,5.1h0.7V10h-0.7V5.1z"/>
	<path d="M78.1,3h0.8v1h-0.8V3z M78.2,5.1h0.7V10h-0.7V5.1z"/>
	<path d="M84.6,7v3h-0.7V7.2c0-1.1-0.3-1.5-1.1-1.5c-0.9,0-1.5,0.8-1.5,2.2V10h-0.7V5.1h0.7v0.7C81.7,5.3,82.3,5,83,5
		C84.1,5,84.6,5.7,84.6,7z"/>
	<path d="M92.7,6.9V10h-0.6l0-0.8c-0.4,0.5-1,0.8-1.8,0.8c-1.1,0-1.7-0.6-1.7-1.5c0-0.5,0.2-0.9,0.6-1.1C89.5,7.3,90,7.2,91,7.2h1
		V6.9c0-0.9-0.5-1.3-1.3-1.3c-0.6,0-1.1,0.3-1.5,0.8L88.7,6c0.5-0.7,1.2-1,2-1C92,5,92.7,5.7,92.7,6.9z M92,7.8L92,7.8l-0.9-0.1
		c-0.9,0-1.3,0.1-1.5,0.2c-0.2,0.1-0.3,0.4-0.3,0.6c0,0.5,0.5,0.9,1.2,0.9C91.4,9.5,92,8.8,92,7.8z"/>
	<path d="M94.3,8.9V3H95v5.9c0,0.3,0.1,0.6,0.5,0.6c0.1,0,0.3,0,0.5-0.1l0,0.6c-0.2,0.1-0.5,0.1-0.7,0.1
		C94.7,10.1,94.3,9.7,94.3,8.9z"/>
	<path d="M99.1,10c-0.3,0.1-0.5,0.1-0.7,0.1c-0.7,0-1.1-0.4-1.1-1.2V5.7h-0.8V5.1h0.8V3.7l0.7-0.5v1.9h1.2v0.6h-1.2v3.1
		c0,0.5,0.2,0.7,0.6,0.7c0.2,0,0.4,0,0.6-0.1L99.1,10z"/>
	<path d="M103.3,5.2L103,5.8c-0.2-0.1-0.4-0.2-0.6-0.2c-0.8,0-1.3,0.6-1.3,1.6V10h-0.7V5.1h0.7v0.7c0.4-0.6,1-0.8,1.5-0.8
		C102.8,5,103.1,5.1,103.3,5.2z"/>
	<path d="M104.3,3h0.8v1h-0.8V3z M104.4,5.1h0.7V10h-0.7V5.1z"/>
	<path d="M109.6,8.9V3h0.7v5.9c0,0.3,0.1,0.6,0.4,0.6c0.2,0,0.3,0,0.5-0.1l0,0.6c-0.2,0.1-0.5,0.1-0.7,0.1
		C109.9,10.1,109.6,9.7,109.6,8.9z"/>
	<path d="M116.1,5.1V10h-0.7V9.3c-0.4,0.5-1,0.8-1.6,0.8c-1.1,0-1.6-0.8-1.6-2v-3h0.7v2.8c0,0.8,0.1,1.5,1.1,1.5
		c1,0,1.5-0.8,1.5-2.1V5.1H116.1z"/>
	<path d="M117.4,7.5c0-1.5,0.9-2.5,2.4-2.5c1.4,0,2.4,1.1,2.4,2.5c0,1.4-1,2.5-2.4,2.5S117.4,9,117.4,7.5z M121.4,7.5
		c0-1.1-0.6-1.9-1.7-1.9c-1.1,0-1.7,0.8-1.7,1.9c0,1.1,0.6,1.9,1.7,1.9C120.8,9.5,121.4,8.6,121.4,7.5z"/>
	<path d="M127.4,10.8c0,0.9-0.9,1.4-2.1,1.4c-1.4,0-2.2-0.5-2.2-1.5c0-0.1,0-0.2,0-0.2l0.8-0.7c-0.4-0.2-0.6-0.5-0.6-0.9
		c0-0.4,0.2-0.7,0.5-0.9c-0.3-0.3-0.4-0.7-0.4-1.1c0-1,0.8-1.7,1.9-1.7c0.5,0,0.9,0.1,1.2,0.4l0.7-0.6l0.4,0.5l-0.7,0.6
		c0.2,0.3,0.3,0.6,0.3,0.9c0,1-0.8,1.7-1.9,1.7c-0.4,0-0.7-0.1-1-0.2c-0.2,0.1-0.3,0.3-0.3,0.5c0,0.5,0.6,0.6,1.3,0.7
		C126.2,9.5,127.4,9.7,127.4,10.8z M126.7,10.8c0-0.6-0.8-0.7-1.6-0.8c-0.2,0-0.4-0.1-0.7-0.1l-0.7,0.6c0,0.1,0,0.1,0,0.1
		c0,0.7,0.7,0.9,1.5,0.9C126.2,11.5,126.7,11.3,126.7,10.8z M124,6.7c0,0.6,0.5,1.1,1.2,1.1c0.7,0,1.2-0.5,1.2-1.1
		c0-0.7-0.5-1.1-1.2-1.1C124.5,5.6,124,6,124,6.7z"/>
	<path d="M132.7,7v3H132V7.2c0-1.1-0.3-1.5-1.1-1.5c-0.9,0-1.5,0.8-1.5,2.1V10h-0.7V3h0.7v2.8c0.3-0.5,0.9-0.8,1.6-0.8
		C132.1,5,132.7,5.7,132.7,7z"/>
	<path d="M134.3,3h0.8v1h-0.8V3z M134.4,5.1h0.7V10h-0.7V5.1z"/>
</g>
<g>
	<path d="M10.4,106.5h1.1l3,6.1v-6.1h0.8v6.9h-1.1l-2.9-6.1v6.1h-0.8V106.5z"/>
	<path d="M16.7,111c0-1.4,0.9-2.5,2.3-2.5c1.4,0,2.3,1.1,2.3,2.5c0,1.4-1,2.5-2.3,2.5C17.6,113.5,16.7,112.4,16.7,111z M20.6,111
		c0-1-0.5-1.9-1.6-1.9s-1.6,0.9-1.6,1.9c0,1,0.5,1.9,1.6,1.9C20.1,112.9,20.6,112,20.6,111z"/>
	<path d="M22.5,108.6h0.7v0.8c0.2-0.5,0.7-0.9,1.3-0.9c0.7,0,1.2,0.3,1.5,1c0.3-0.7,0.8-1,1.5-1c1.2,0,1.7,0.9,1.7,2v3h-0.7v-2.9
		c0-0.7-0.2-1.5-1-1.5c-0.8,0-1.2,0.9-1.2,1.7v2.7h-0.7v-2.9c0-0.7-0.2-1.5-1-1.5c-0.8,0-1.2,0.9-1.2,1.8v2.5h-0.7V108.6z"/>
	<path d="M30.5,111c0-1.3,0.7-2.5,2.1-2.5c1.6,0,2.1,1.3,2.1,2.4c0,0.1,0,0.3,0,0.4h-3.4c0,0.9,0.5,1.6,1.4,1.6c0.6,0,1-0.1,1.4-0.5
		l0.5,0.4c-0.5,0.5-1.1,0.8-1.9,0.8C31.2,113.5,30.5,112.4,30.5,111z M34,110.7c0-0.8-0.4-1.6-1.4-1.6c-0.9,0-1.3,0.7-1.4,1.6H34z"
		/>
	<path d="M42.4,106.5v6.9h-0.7l0-0.7c-0.3,0.5-0.8,0.8-1.5,0.8c-1.2,0-2-1.1-2-2.5c0-1.4,0.7-2.5,2-2.5c0.7,0,1.2,0.3,1.5,0.8v-2.7
		H42.4z M41.7,111c0-1-0.4-1.9-1.4-1.9c-1,0-1.4,0.9-1.4,1.9c0,1,0.4,1.9,1.4,1.9C41.3,112.9,41.7,112,41.7,111z"/>
	<path d="M43.7,111c0-1.3,0.7-2.5,2.1-2.5c1.6,0,2.1,1.3,2.1,2.4c0,0.1,0,0.3,0,0.4h-3.4c0,0.9,0.5,1.6,1.4,1.6c0.6,0,1-0.1,1.4-0.5
		l0.5,0.4c-0.5,0.5-1.1,0.8-1.9,0.8C44.4,113.5,43.7,112.4,43.7,111z M47.2,110.7c0-0.8-0.4-1.6-1.4-1.6c-0.9,0-1.3,0.7-1.4,1.6
		H47.2z"/>
	<path d="M50.6,112.9v0.6c-0.2,0-0.4,0.1-0.7,0.1c-0.7,0-0.8-0.5-0.8-1.1v-5.9h0.7v6.1c0,0,0,0.3,0.2,0.3
		C50.3,112.9,50.5,112.9,50.6,112.9z"/>
	<path d="M55.7,112.9v0.6c-0.2,0-0.4,0.1-0.7,0.1c-0.7,0-0.8-0.5-0.8-1.1v-5.9H55v6.1c0,0,0,0.3,0.2,0.3
		C55.4,112.9,55.6,112.9,55.7,112.9z"/>
	<path d="M56.7,111.4v-2.8h0.7v2.9c0,0.7,0.2,1.5,1,1.5c0.8,0,1.5-0.7,1.5-1.7v-2.7h0.7v4.9h-0.7v-0.8c-0.2,0.4-0.8,0.9-1.5,0.9
		C57.1,113.6,56.7,112.6,56.7,111.4z"/>
	<path d="M61.8,111c0-1.4,0.9-2.5,2.3-2.5c1.4,0,2.3,1.1,2.3,2.5c0,1.4-1,2.5-2.3,2.5C62.7,113.5,61.8,112.4,61.8,111z M65.7,111
		c0-1-0.5-1.9-1.6-1.9s-1.6,0.9-1.6,1.9c0,1,0.5,1.9,1.6,1.9C65.2,112.9,65.7,112,65.7,111z"/>
	<path d="M71.4,114.2c0,1-0.9,1.5-2,1.5c-1.3,0-2.1-0.7-2.1-1.7c0-0.1,0-0.1,0-0.2l0.7-0.7c-0.4-0.2-0.6-0.5-0.6-1
		c0-0.3,0.1-0.6,0.4-0.8c-0.3-0.3-0.4-0.7-0.4-1.1c0-1,0.8-1.7,1.8-1.7c0.5,0,0.9,0.2,1.3,0.5l0.7-0.7l0.4,0.5l-0.8,0.6
		c0.1,0.2,0.2,0.5,0.2,0.8c0,1-0.8,1.7-1.8,1.7c-0.3,0-0.6-0.1-0.9-0.2c-0.1,0.1-0.2,0.2-0.2,0.4c0,0.5,0.6,0.6,1.3,0.7
		C70.4,112.9,71.4,113.1,71.4,114.2z M70.8,114.2c0-0.6-0.7-0.6-1.6-0.8c-0.2,0-0.4-0.1-0.6-0.1l-0.6,0.7c0,0.5,0.5,1,1.5,1
		C70.2,115,70.8,114.8,70.8,114.2z M68.2,110.2c0,0.7,0.4,1.1,1.1,1.1s1.1-0.4,1.1-1.1c0-0.6-0.4-1.1-1.1-1.1S68.2,109.6,68.2,110.2
		z"/>
	<path d="M72.3,111c0-1.4,0.9-2.5,2.3-2.5c1.4,0,2.3,1.1,2.3,2.5c0,1.4-1,2.5-2.3,2.5C73.2,113.5,72.3,112.4,72.3,111z M76.2,111
		c0-1-0.5-1.9-1.6-1.9S73,110,73,111c0,1,0.5,1.9,1.6,1.9C75.7,112.9,76.2,112,76.2,111z"/>
</g>
</svg>
