<svg xmlns="http://www.w3.org/2000/svg" xmlns:xlink="http://www.w3.org/1999/xlink" width="385" height="412" viewBox="0 0 385 412">
  <defs>
    <clipPath id="clip-zoom-03">
      <rect width="385" height="412"/>
    </clipPath>
  </defs>
  <g id="zoom-03" clip-path="url(#clip-zoom-03)">
    <g id="Group_25100" data-name="Group 25100">
      <g id="Layer_1" data-name="Layer 1">
        <g id="Group_25099" data-name="Group 25099" transform="translate(20)">
          <g id="Ellipse_33831" data-name="Ellipse 33831" transform="translate(172 249)" fill="none" stroke="#707070" stroke-width="0.5">
            <circle cx="49" cy="49" r="49" stroke="none"/>
            <circle cx="49" cy="49" r="48.75" fill="none"/>
          </g>
          <path id="Path_157378" data-name="Path 157378" d="M264.8,233.035a74.214,74.214,0,0,1,11.2,8.9l-.2.2a74.216,74.216,0,0,0-11.2-8.9Z" fill="orange" stroke="orange" stroke-miterlimit="10" stroke-width="0.5"/>
          <path id="Path_157379" data-name="Path 157379" d="M332.2,279.835a115.071,115.071,0,0,1,1.3,11.8h-.3a116.608,116.608,0,0,0-1.4-11.7Z" fill="orange" stroke="orange" stroke-miterlimit="10" stroke-width="0.5"/>
          <path id="Path_157380" data-name="Path 157380" d="M155.8,386.335a125.96,125.96,0,0,1-36.3-129.8l.3.1a125.416,125.416,0,0,0,36.2,129.5Z" fill="orange" stroke="orange" stroke-miterlimit="10" stroke-width="0.5"/>
          <line id="Line_8019" data-name="Line 8019" y1="5" x2="4" transform="translate(266.396 237.435)" fill="none" stroke="orange" stroke-miterlimit="10" stroke-width="0.58"/>
          <line id="Line_8020" data-name="Line 8020" x1="2.893" y2="3.683" transform="translate(178.402 349.735)" fill="none" stroke="orange" stroke-miterlimit="10" stroke-width="0.75"/>
          <line id="Line_8021" data-name="Line 8021" y1="0.914" x2="7.479" transform="translate(325.217 285.735)" fill="none" stroke="orange" stroke-miterlimit="10" stroke-width="0.58"/>
          <line id="Line_8022" data-name="Line 8022" x2="8.572" y2="3.755" transform="translate(316.124 335.98)" fill="none" stroke="orange" stroke-miterlimit="10" stroke-width="0.58"/>
          <line id="Line_8023" data-name="Line 8023" x2="14" y2="11.1" transform="translate(294.796 355.935)" fill="none" stroke="orange" stroke-miterlimit="10" stroke-width="0.58"/>
          <line id="Line_8024" data-name="Line 8024" x1="11.7" y2="3.3" transform="translate(119.196 323.335)" fill="none" stroke="orange" stroke-miterlimit="10" stroke-width="0.58"/>
          <circle id="Ellipse_33805" data-name="Ellipse 33805" cx="0.8" cy="0.8" r="0.8" transform="translate(250.956 259.618)" fill="orange" stroke="#fff" stroke-miterlimit="10" stroke-width="0.39"/>
          <circle id="Ellipse_33806" data-name="Ellipse 33806" cx="0.8" cy="0.8" r="0.8" transform="translate(263.796 232.535)" fill="#ff6c39" stroke="#fff" stroke-miterlimit="10" stroke-width="0.39"/>
          <circle id="Ellipse_33807" data-name="Ellipse 33807" cx="0.8" cy="0.8" r="0.8" transform="translate(269.596 236.635)" fill="#ff6c39" stroke="#fff" stroke-miterlimit="10" stroke-width="0.39"/>
          <circle id="Ellipse_33808" data-name="Ellipse 33808" cx="0.8" cy="0.8" r="0.8" transform="translate(274.996 241.335)" fill="#ff6c39" stroke="#fff" stroke-miterlimit="10" stroke-width="0.39"/>
          <circle id="Ellipse_33809" data-name="Ellipse 33809" cx="0.8" cy="0.8" r="0.8" transform="translate(190.684 335.2)" fill="orange" stroke="#fff" stroke-miterlimit="10" stroke-width="0.39"/>
          <circle id="Ellipse_33810" data-name="Ellipse 33810" cx="0.8" cy="0.8" r="0.8" transform="translate(331.096 279.135)" fill="#ff6c39" stroke="#fff" stroke-miterlimit="10" stroke-width="0.39"/>
          <circle id="Ellipse_33811" data-name="Ellipse 33811" cx="0.8" cy="0.8" r="0.8" transform="translate(332.496 290.835)" fill="#ff6c39" stroke="#fff" stroke-miterlimit="10" stroke-width="0.39"/>
          <circle id="Ellipse_33812" data-name="Ellipse 33812" cx="0.8" cy="0.8" r="0.8" transform="translate(323.896 338.935)" fill="#ff6c39" stroke="#fff" stroke-miterlimit="10" stroke-width="0.39"/>
          <circle id="Ellipse_33813" data-name="Ellipse 33813" cx="0.8" cy="0.8" r="0.8" transform="translate(307.996 366.235)" fill="#ff6c39" stroke="#fff" stroke-miterlimit="10" stroke-width="0.39"/>
          <circle id="Ellipse_33814" data-name="Ellipse 33814" cx="0.8" cy="0.8" r="0.8" transform="translate(155.196 385.335)" fill="#ff6c39" stroke="#fff" stroke-miterlimit="10" stroke-width="0.39"/>
          <circle id="Ellipse_33815" data-name="Ellipse 33815" cx="0.8" cy="0.8" r="0.8" transform="translate(146.796 376.935)" fill="#ff6c39" stroke="#fff" stroke-miterlimit="10" stroke-width="0.39"/>
          <circle id="Ellipse_33816" data-name="Ellipse 33816" cx="0.8" cy="0.8" r="0.8" transform="translate(139.296 367.935)" fill="#ff6c39" stroke="#fff" stroke-miterlimit="10" stroke-width="0.39"/>
          <circle id="Ellipse_33817" data-name="Ellipse 33817" cx="0.8" cy="0.8" r="0.8" transform="translate(132.596 358.135)" fill="#ff6c39" stroke="#fff" stroke-miterlimit="10" stroke-width="0.39"/>
          <circle id="Ellipse_33818" data-name="Ellipse 33818" cx="0.8" cy="0.8" r="0.8" transform="translate(126.796 347.835)" fill="#ff6c39" stroke="#fff" stroke-miterlimit="10" stroke-width="0.39"/>
          <circle id="Ellipse_33819" data-name="Ellipse 33819" cx="0.8" cy="0.8" r="0.8" transform="translate(122.096 337.035)" fill="#ff6c39" stroke="#fff" stroke-miterlimit="10" stroke-width="0.39"/>
          <circle id="Ellipse_33820" data-name="Ellipse 33820" cx="0.8" cy="0.8" r="0.8" transform="translate(118.396 325.835)" fill="#ff6c39" stroke="#fff" stroke-miterlimit="10" stroke-width="0.39"/>
          <circle id="Ellipse_33821" data-name="Ellipse 33821" cx="0.8" cy="0.8" r="0.8" transform="translate(115.696 314.235)" fill="#ff6c39" stroke="#fff" stroke-miterlimit="10" stroke-width="0.39"/>
          <circle id="Ellipse_33822" data-name="Ellipse 33822" cx="0.8" cy="0.8" r="0.8" transform="translate(114.196 302.535)" fill="#ff6c39" stroke="#fff" stroke-miterlimit="10" stroke-width="0.39"/>
          <circle id="Ellipse_33823" data-name="Ellipse 33823" cx="0.8" cy="0.8" r="0.8" transform="translate(113.696 290.735)" fill="#ff6c39" stroke="#fff" stroke-miterlimit="10" stroke-width="0.39"/>
          <circle id="Ellipse_33824" data-name="Ellipse 33824" cx="0.8" cy="0.8" r="0.8" transform="translate(114.396 278.935)" fill="#ff6c39" stroke="#fff" stroke-miterlimit="10" stroke-width="0.39"/>
          <circle id="Ellipse_33825" data-name="Ellipse 33825" cx="0.8" cy="0.8" r="0.8" transform="translate(116.196 267.235)" fill="#00c19c" stroke="#fff" stroke-miterlimit="10" stroke-width="0.39"/>
          <circle id="Ellipse_33826" data-name="Ellipse 33826" cx="0.8" cy="0.8" r="0.8" transform="translate(119.096 255.735)" fill="#00c19c" stroke="#fff" stroke-miterlimit="10" stroke-width="0.39"/>
          <text id="Boemia" transform="translate(254.679 259.618) rotate(-51.982)" fill="orange" font-size="6" font-family="HKGrotesk-Regular, HK Grotesk" style="isolation: isolate"><tspan x="0" y="0">Boemia</tspan></text>
          <path id="Path_161378" data-name="Path 161378" d="M1.175.059A1.093,1.093,0,0,0,2.2-.565L2.212,0h.372V-1.8A1.078,1.078,0,0,0,1.438-2.988a1.3,1.3,0,0,0-1.1.574l.319.249a.963.963,0,0,1,.812-.442c.53,0,.718.384.718.935H1.515C.683-1.673.226-1.4.226-.814A.858.858,0,0,0,1.175.059Zm.05-.369C.92-.311.677-.454.677-.8c0-.39.3-.539.879-.539h.627A1.01,1.01,0,0,1,1.225-.311ZM4.544.059a1.116,1.116,0,0,0,1.1-.776L5.265-.882a.734.734,0,0,1-.727.571c-.612,0-.817-.612-.817-1.148s.211-1.16.817-1.16a.741.741,0,0,1,.727.586l.413-.176a1.2,1.2,0,0,0-1.14-.779c-.844,0-1.266.744-1.266,1.529A1.346,1.346,0,0,0,4.544.059Zm2.824,0a1.116,1.116,0,0,0,1.1-.776L8.089-.882a.734.734,0,0,1-.727.571c-.612,0-.817-.612-.817-1.148s.211-1.16.817-1.16a.741.741,0,0,1,.727.586L8.5-2.209a1.2,1.2,0,0,0-1.14-.779c-.844,0-1.266.744-1.266,1.529A1.346,1.346,0,0,0,7.368.059Zm2.464,0A1.093,1.093,0,0,0,10.86-.565L10.869,0h.372V-1.8A1.078,1.078,0,0,0,10.1-2.988a1.3,1.3,0,0,0-1.1.574l.319.249a.963.963,0,0,1,.812-.442c.53,0,.718.384.718.935h-.668c-.832,0-1.289.272-1.289.858A.858.858,0,0,0,9.832.059Zm.05-.369c-.3,0-.548-.144-.548-.492,0-.39.3-.539.879-.539h.627A1.01,1.01,0,0,1,9.882-.311ZM12.152,0h.442V-1.526c0-.53.261-1.09.747-1.09s.615.466.615.87V0H14.4V-1.623c0-.48.261-.993.741-.993.507,0,.627.483.627.882V0h.442V-1.778c0-.65-.293-1.21-1.017-1.21a.971.971,0,0,0-.911.612.879.879,0,0,0-.894-.612.875.875,0,0,0-.8.516v-.454h-.442Zm4.983,1.283h.439V-.4a1.05,1.05,0,0,0,.9.457c.785,0,1.192-.694,1.192-1.523s-.41-1.523-1.2-1.523a1.046,1.046,0,0,0-.894.46v-.4h-.439ZM18.378-.311c-.595,0-.844-.557-.844-1.154s.249-1.154.844-1.154.847.563.847,1.154S18.964-.311,18.378-.311ZM21.12.059a1.093,1.093,0,0,0,1.028-.624L22.157,0h.372V-1.8a1.078,1.078,0,0,0-1.146-1.192,1.3,1.3,0,0,0-1.1.574l.319.249a.963.963,0,0,1,.812-.442c.53,0,.718.384.718.935H21.46c-.832,0-1.289.272-1.289.858A.858.858,0,0,0,21.12.059Zm.05-.369c-.3,0-.548-.144-.548-.492,0-.39.3-.539.879-.539h.627A1.01,1.01,0,0,1,21.17-.311ZM23.44,0h.442V-1.526c0-.53.261-1.09.747-1.09s.615.466.615.87V0h.445V-1.623c0-.48.261-.993.741-.993.507,0,.627.483.627.882V0H27.5V-1.778c0-.65-.293-1.21-1.017-1.21a.971.971,0,0,0-.911.612.879.879,0,0,0-.894-.612.875.875,0,0,0-.8.516v-.454H23.44Zm6.07.041A1.435,1.435,0,0,0,30.63-.416l-.3-.24a1.023,1.023,0,0,1-.823.313.867.867,0,0,1-.855-.973h2.039c.006-.053.015-.149.015-.226,0-.674-.293-1.427-1.242-1.427a1.35,1.35,0,0,0-1.271,1.521A1.327,1.327,0,0,0,29.511.041Zm-.858-1.714c.023-.5.275-.935.812-.935.6,0,.812.466.823.935ZM31.459,0H31.9V-1.521c0-.727.366-1.087.826-1.087.516,0,.665.469.665.873V0h.434V-1.778c0-.645-.284-1.2-.981-1.2a1.051,1.051,0,0,0-.943.563v-.51h-.437Zm4.093.059A1.18,1.18,0,0,0,35.944,0V-.375a.7.7,0,0,1-.293.073c-.214,0-.372-.149-.372-.472v-1.8h.741v-.357h-.741V-4l-.434.41v.659h-.472v.357h.469V-.776C34.843-.275,35.033.059,35.552.059Zm2.273,0A1.439,1.439,0,0,0,39.22-1.471a1.43,1.43,0,0,0-1.395-1.518,1.417,1.417,0,0,0-1.38,1.518A1.425,1.425,0,0,0,37.825.059Zm0-.363c-.645,0-.943-.574-.943-1.166s.3-1.154.949-1.154.943.568.943,1.154S38.484-.3,37.828-.3Z" transform="translate(266.396 230.964) rotate(-56.995)" fill="#ff6c39"/>
          <path id="Path_161379" data-name="Path 161379" d="M1.541.059a1.116,1.116,0,0,0,1.1-.776L2.262-.882a.734.734,0,0,1-.727.571C.923-.311.718-.923.718-1.459s.211-1.16.817-1.16a.741.741,0,0,1,.727.586l.413-.176a1.2,1.2,0,0,0-1.14-.779C.691-2.988.27-2.244.27-1.459A1.346,1.346,0,0,0,1.541.059ZM4,.059A1.093,1.093,0,0,0,5.033-.565L5.042,0h.372V-1.8A1.078,1.078,0,0,0,4.269-2.988a1.3,1.3,0,0,0-1.1.574l.319.249a.963.963,0,0,1,.812-.442c.53,0,.718.384.718.935H4.345c-.832,0-1.289.272-1.289.858A.858.858,0,0,0,4,.059Zm.05-.369c-.3,0-.548-.144-.548-.492,0-.39.3-.539.879-.539h.627A1.01,1.01,0,0,1,4.055-.311ZM6.325,0h.442V-1.526c0-.53.261-1.09.747-1.09s.615.466.615.87V0h.445V-1.623c0-.48.261-.993.741-.993.507,0,.627.483.627.882V0h.442V-1.778c0-.65-.293-1.21-1.017-1.21a.971.971,0,0,0-.911.612.879.879,0,0,0-.894-.612.875.875,0,0,0-.8.516v-.454H6.325Zm4.983,1.283h.439V-.4a1.05,1.05,0,0,0,.9.457c.785,0,1.192-.694,1.192-1.523s-.41-1.523-1.2-1.523a1.046,1.046,0,0,0-.894.46v-.4h-.439ZM12.551-.311c-.595,0-.844-.557-.844-1.154s.249-1.154.844-1.154.847.563.847,1.154S13.137-.311,12.551-.311Zm3.2.369a1.439,1.439,0,0,0,1.395-1.529A1.43,1.43,0,0,0,15.75-2.988a1.417,1.417,0,0,0-1.38,1.518A1.425,1.425,0,0,0,15.75.059Zm0-.363c-.645,0-.943-.574-.943-1.166s.3-1.154.949-1.154.943.568.943,1.154S16.409-.3,15.753-.3Zm5.6-3.835v1.611a1.048,1.048,0,0,0-.917-.46c-.747,0-1.172.686-1.172,1.523S19.688.059,20.438.059a1.041,1.041,0,0,0,.917-.466L21.363,0h.425V-4.14Zm-.8,3.829c-.586,0-.838-.557-.838-1.154s.252-1.154.838-1.154.838.563.838,1.154S21.146-.311,20.549-.311Zm2.206-3.267h.5V-4.14h-.5ZM22.787,0h.434V-2.927h-.434Zm4.362.059c.762,0,1.178-.688,1.178-1.523s-.416-1.523-1.181-1.523a1.048,1.048,0,0,0-.908.46V-4.14H25.8V0h.437V-.4A1.048,1.048,0,0,0,27.149.059Zm-.114-.369c-.586,0-.835-.557-.835-1.154s.249-1.154.835-1.154.855.563.855,1.154S27.624-.311,27.035-.311Zm2.748.369a1.093,1.093,0,0,0,1.028-.624L30.82,0h.372V-1.8a1.078,1.078,0,0,0-1.146-1.192,1.3,1.3,0,0,0-1.1.574l.319.249a.963.963,0,0,1,.812-.442c.53,0,.718.384.718.935h-.668c-.832,0-1.289.272-1.289.858A.858.858,0,0,0,29.783.059Zm.05-.369c-.3,0-.548-.144-.548-.492,0-.39.3-.539.879-.539h.627A1.01,1.01,0,0,1,29.833-.311Zm3.079.369A1.18,1.18,0,0,0,33.3,0V-.375a.7.7,0,0,1-.293.073c-.214,0-.372-.149-.372-.472v-1.8h.741v-.357H32.64V-4l-.434.41v.659h-.472v.357H32.2V-.776C32.2-.275,32.394.059,32.912.059Zm1.972,0A1.18,1.18,0,0,0,35.276,0V-.375a.7.7,0,0,1-.293.073c-.214,0-.372-.149-.372-.472v-1.8h.741v-.357h-.741V-4l-.434.41v.659h-.472v.357h.469V-.776C34.175-.275,34.365.059,34.884.059Zm1.846,0a1.093,1.093,0,0,0,1.028-.624L37.767,0h.372V-1.8a1.078,1.078,0,0,0-1.146-1.192,1.3,1.3,0,0,0-1.1.574l.319.249a.963.963,0,0,1,.812-.442c.53,0,.718.384.718.935h-.668c-.832,0-1.289.272-1.289.858A.858.858,0,0,0,36.729.059Zm.05-.369c-.3,0-.548-.144-.548-.492,0-.39.3-.539.879-.539h.627A1.01,1.01,0,0,1,36.779-.311ZM40.1-.378c-.416-.059-.782-.146-.782-.448a.277.277,0,0,1,.126-.226A1.248,1.248,0,0,0,40-.929a1,1,0,0,0,1.081-1.008,1.057,1.057,0,0,0-.108-.475l.472-.372-.249-.311-.439.4A1.113,1.113,0,0,0,40-2.968a1.023,1.023,0,0,0-1.1,1.025.975.975,0,0,0,.246.668.6.6,0,0,0-.214.483.649.649,0,0,0,.372.6l-.422.425a.772.772,0,0,0-.009.111c0,.557.5,1,1.263,1,.615,0,1.172-.287,1.172-.891C41.309-.211,40.7-.3,40.1-.378ZM39.99-2.622a.635.635,0,0,1,.647.671.614.614,0,0,1-.647.659.611.611,0,0,1-.645-.659A.64.64,0,0,1,39.99-2.622ZM40.172.955c-.568,0-.891-.3-.894-.6l.346-.422a2.969,2.969,0,0,0,.349.076c.5.085.946.1.946.475C40.919.8,40.559.955,40.172.955ZM42.627-.322c-.132,0-.144-.158-.144-.167V-4.14h-.442V-.592c0,.352.032.65.475.65a1.429,1.429,0,0,0,.4-.059V-.352A1.735,1.735,0,0,1,42.627-.322Zm.914-3.255h.5V-4.14h-.5ZM43.573,0h.434V-2.927h-.434ZM45.68.059a1.093,1.093,0,0,0,1.028-.624L46.717,0h.372V-1.8a1.078,1.078,0,0,0-1.146-1.192,1.3,1.3,0,0,0-1.1.574l.319.249a.963.963,0,0,1,.812-.442c.53,0,.718.384.718.935H46.02c-.832,0-1.289.272-1.289.858A.858.858,0,0,0,45.68.059Zm.05-.369c-.3,0-.548-.144-.548-.492,0-.39.3-.539.879-.539h.627A1.01,1.01,0,0,1,45.729-.311Z" transform="translate(272.673 235.764) rotate(-51.982)" fill="#ff6c39"/>
          <path id="Path_161380" data-name="Path 161380" d="M1.632.059A1.439,1.439,0,0,0,3.026-1.471,1.43,1.43,0,0,0,1.632-2.988,1.417,1.417,0,0,0,.252-1.471,1.425,1.425,0,0,0,1.632.059Zm0-.363C.99-.3.691-.879.691-1.471s.3-1.154.949-1.154.943.568.943,1.154S2.291-.3,1.635-.3ZM4.582.059a.913.913,0,0,0,1-.894c0-1.075-1.579-.721-1.579-1.395,0-.24.2-.4.513-.4a.69.69,0,0,1,.653.413L5.5-2.405a1.04,1.04,0,0,0-.961-.583.835.835,0,0,0-.929.812c0,.993,1.556.606,1.556,1.395,0,.316-.243.483-.574.483a.742.742,0,0,1-.729-.557l-.369.19A1.136,1.136,0,0,0,4.582.059ZM6.319,1.283h.439V-.4a1.05,1.05,0,0,0,.9.457c.785,0,1.192-.694,1.192-1.523s-.41-1.523-1.2-1.523a1.046,1.046,0,0,0-.894.46v-.4H6.319ZM7.562-.311c-.595,0-.844-.557-.844-1.154s.249-1.154.844-1.154.847.563.847,1.154S8.147-.311,7.562-.311Zm3.152.352a1.435,1.435,0,0,0,1.119-.457l-.3-.24a1.023,1.023,0,0,1-.823.313.867.867,0,0,1-.855-.973h2.039c.006-.053.015-.149.015-.226,0-.674-.293-1.427-1.242-1.427A1.35,1.35,0,0,0,9.4-1.447,1.327,1.327,0,0,0,10.714.041ZM9.855-1.673c.023-.5.275-.935.812-.935.6,0,.812.466.823.935ZM14.54-4.14v1.611a1.048,1.048,0,0,0-.917-.46c-.747,0-1.172.686-1.172,1.523S12.876.059,13.626.059a1.041,1.041,0,0,0,.917-.466L14.552,0h.425V-4.14Zm-.8,3.829c-.586,0-.838-.557-.838-1.154s.252-1.154.838-1.154.838.563.838,1.154S14.335-.311,13.737-.311Zm2.909.369a1.093,1.093,0,0,0,1.028-.624L17.684,0h.372V-1.8A1.078,1.078,0,0,0,16.91-2.988a1.3,1.3,0,0,0-1.1.574l.319.249a.963.963,0,0,1,.812-.442c.53,0,.718.384.718.935h-.668c-.832,0-1.289.272-1.289.858A.858.858,0,0,0,16.646.059Zm.05-.369c-.3,0-.548-.144-.548-.492,0-.39.3-.539.879-.539h.627A1.01,1.01,0,0,1,16.7-.311Zm2.848-.012c-.132,0-.144-.158-.144-.167V-4.14h-.442V-.592c0,.352.032.65.475.65a1.429,1.429,0,0,0,.4-.059V-.352A1.735,1.735,0,0,1,19.544-.322Zm2.033.363A1.435,1.435,0,0,0,22.7-.416l-.3-.24a1.023,1.023,0,0,1-.823.313.867.867,0,0,1-.855-.973h2.039c.006-.053.015-.149.015-.226,0-.674-.293-1.427-1.242-1.427a1.35,1.35,0,0,0-1.271,1.521A1.327,1.327,0,0,0,21.577.041Zm-.858-1.714c.023-.5.275-.935.812-.935.6,0,.812.466.823.935Z" transform="translate(278.704 240.755) rotate(-45.997)" fill="#ff6c39"/>
          <path id="Path_161388" data-name="Path 161388" d="M.621,0h.466V-4.14H.621ZM3.012.059A1.18,1.18,0,0,0,3.4,0V-.375A.7.7,0,0,1,3.111-.3c-.214,0-.372-.149-.372-.472v-1.8H3.48v-.357H2.739V-4l-.434.41v.659H1.834v.357H2.3V-.776C2.3-.275,2.493.059,3.012.059Zm1.846,0A1.093,1.093,0,0,0,5.886-.565L5.895,0h.372V-1.8A1.078,1.078,0,0,0,5.121-2.988a1.3,1.3,0,0,0-1.1.574l.319.249a.963.963,0,0,1,.812-.442c.53,0,.718.384.718.935H5.2c-.832,0-1.289.272-1.289.858A.858.858,0,0,0,4.857.059Zm.05-.369c-.3,0-.548-.144-.548-.492,0-.39.3-.539.879-.539h.627A1.01,1.01,0,0,1,4.907-.311ZM7.755-.322c-.132,0-.144-.158-.144-.167V-4.14H7.169V-.592c0,.352.032.65.475.65A1.429,1.429,0,0,0,8.039,0V-.352A1.735,1.735,0,0,1,7.755-.322Zm.914-3.255h.5V-4.14h-.5ZM8.7,0h.434V-2.927H8.7Zm2.106.059a1.093,1.093,0,0,0,1.028-.624L11.845,0h.372V-1.8a1.078,1.078,0,0,0-1.146-1.192,1.3,1.3,0,0,0-1.1.574l.319.249a.963.963,0,0,1,.812-.442c.53,0,.718.384.718.935h-.668c-.832,0-1.289.272-1.289.858A.858.858,0,0,0,10.808.059Zm.05-.369c-.3,0-.548-.144-.548-.492,0-.39.3-.539.879-.539h.627A1.01,1.01,0,0,1,10.857-.311Z" transform="translate(183.296 349.354) rotate(-51.982)" fill="orange"/>
          <path id="Path_161381" data-name="Path 161381" d="M2.209.059a1.754,1.754,0,0,0,1.7-1.107L3.48-1.233a1.217,1.217,0,0,1-1.242.864c-1.011,0-1.415-.8-1.415-1.717,0-.894.393-1.69,1.4-1.69a1.181,1.181,0,0,1,1.248.855L3.9-3.105a1.636,1.636,0,0,0-1.655-1.1C.929-4.207.366-3.223.366-2.08.366-.911.955.059,2.209.059Zm3.469,0A1.439,1.439,0,0,0,7.072-1.471,1.43,1.43,0,0,0,5.678-2.988,1.417,1.417,0,0,0,4.3-1.471,1.425,1.425,0,0,0,5.678.059Zm0-.363c-.645,0-.943-.574-.943-1.166s.3-1.154.949-1.154.943.568.943,1.154S6.337-.3,5.681-.3ZM8.394-.322c-.132,0-.144-.158-.144-.167V-4.14H7.808V-.592c0,.352.032.65.475.65A1.429,1.429,0,0,0,8.678,0V-.352A1.735,1.735,0,0,1,8.394-.322ZM12.65.059A1.4,1.4,0,0,0,14-.756L14.01,0H14.4V-2.095H13.011v.366h.946A1.273,1.273,0,0,1,12.65-.375c-.993,0-1.4-.8-1.4-1.726,0-.882.407-1.67,1.389-1.67a1.325,1.325,0,0,1,1.263.85l.425-.185a1.742,1.742,0,0,0-1.682-1.1,1.882,1.882,0,0,0-1.852,2.136C10.793-.917,11.376.059,12.65.059ZM16.433.041a1.435,1.435,0,0,0,1.119-.457l-.3-.24a1.023,1.023,0,0,1-.823.313.867.867,0,0,1-.855-.973h2.039c.006-.053.015-.149.015-.226,0-.674-.293-1.427-1.242-1.427a1.35,1.35,0,0,0-1.271,1.521A1.327,1.327,0,0,0,16.433.041Zm-.858-1.714c.023-.5.275-.935.812-.935.6,0,.812.466.823.935ZM18.381,0h.431V-1.462c0-.706.3-1.107.8-1.107a.533.533,0,0,1,.357.111l.185-.378a.761.761,0,0,0-.472-.152.943.943,0,0,0-.864.58v-.519h-.437Zm3.688.059c.762,0,1.178-.688,1.178-1.523s-.416-1.523-1.181-1.523a1.048,1.048,0,0,0-.908.46V-4.14h-.437V0h.437V-.4A1.048,1.048,0,0,0,22.069.059Zm-.114-.369c-.586,0-.835-.557-.835-1.154s.249-1.154.835-1.154.855.563.855,1.154S22.544-.311,21.955-.311Zm2.039-3.267h.5V-4.14h-.5ZM24.026,0h.434V-2.927h-.434Zm3.3-4.14v1.611a1.048,1.048,0,0,0-.917-.46c-.747,0-1.172.686-1.172,1.523S25.664.059,26.414.059a1.041,1.041,0,0,0,.917-.466L27.34,0h.425V-4.14Zm-.8,3.829c-.586,0-.838-.557-.838-1.154s.252-1.154.838-1.154.838.563.838,1.154S27.123-.311,26.525-.311ZM29.9.059a1.439,1.439,0,0,0,1.395-1.529A1.43,1.43,0,0,0,29.9-2.988a1.417,1.417,0,0,0-1.38,1.518A1.425,1.425,0,0,0,29.9.059Zm0-.363c-.645,0-.943-.574-.943-1.166s.3-1.154.949-1.154.943.568.943,1.154S30.557-.3,29.9-.3Z" transform="translate(293.313 292.783) rotate(-7.002)" fill="#00c19c"/>
          <path id="Path_161387" data-name="Path 161387" d="M1.541.059a1.116,1.116,0,0,0,1.1-.776L2.262-.882a.734.734,0,0,1-.727.571C.923-.311.718-.923.718-1.459s.211-1.16.817-1.16a.741.741,0,0,1,.727.586l.413-.176a1.2,1.2,0,0,0-1.14-.779C.691-2.988.27-2.244.27-1.459A1.346,1.346,0,0,0,1.541.059ZM4,.059A1.093,1.093,0,0,0,5.033-.565L5.042,0h.372V-1.8A1.078,1.078,0,0,0,4.269-2.988a1.3,1.3,0,0,0-1.1.574l.319.249a.963.963,0,0,1,.812-.442c.53,0,.718.384.718.935H4.345c-.832,0-1.289.272-1.289.858A.858.858,0,0,0,4,.059Zm.05-.369c-.3,0-.548-.144-.548-.492,0-.39.3-.539.879-.539h.627A1.01,1.01,0,0,1,4.055-.311ZM7.137.059a.913.913,0,0,0,1-.894c0-1.075-1.579-.721-1.579-1.395,0-.24.2-.4.513-.4a.69.69,0,0,1,.653.413l.322-.185a1.04,1.04,0,0,0-.961-.583.835.835,0,0,0-.929.812c0,.993,1.556.606,1.556,1.395,0,.316-.243.483-.574.483a.742.742,0,0,1-.729-.557l-.369.19A1.136,1.136,0,0,0,7.137.059Zm2.848,0a1.439,1.439,0,0,0,1.395-1.529A1.43,1.43,0,0,0,9.984-2.988,1.417,1.417,0,0,0,8.6-1.471,1.425,1.425,0,0,0,9.984.059Zm0-.363c-.645,0-.943-.574-.943-1.166s.3-1.154.949-1.154.943.568.943,1.154S10.644-.3,9.987-.3ZM12.7-.322c-.132,0-.144-.158-.144-.167V-4.14h-.442V-.592c0,.352.032.65.475.65a1.429,1.429,0,0,0,.4-.059V-.352A1.735,1.735,0,0,1,12.7-.322Zm1.617.381a1.093,1.093,0,0,0,1.028-.624L15.354,0h.372V-1.8a1.078,1.078,0,0,0-1.146-1.192,1.3,1.3,0,0,0-1.1.574l.319.249a.963.963,0,0,1,.812-.442c.53,0,.718.384.718.935h-.668c-.832,0-1.289.272-1.289.858A.858.858,0,0,0,14.317.059Zm.05-.369c-.3,0-.548-.144-.548-.492,0-.39.3-.539.879-.539h.627A1.01,1.01,0,0,1,14.367-.311ZM16.638,0h.431V-1.462c0-.706.3-1.107.8-1.107a.533.533,0,0,1,.357.111l.185-.378a.761.761,0,0,0-.472-.152.943.943,0,0,0-.864.58v-.519h-.437Zm3.182.041a1.435,1.435,0,0,0,1.119-.457l-.3-.24a1.023,1.023,0,0,1-.823.313.867.867,0,0,1-.855-.973H21c.006-.053.015-.149.015-.226,0-.674-.293-1.427-1.242-1.427A1.35,1.35,0,0,0,18.5-1.447,1.327,1.327,0,0,0,19.819.041Zm-.858-1.714c.023-.5.275-.935.812-.935.6,0,.812.466.823.935Z" transform="translate(334.903 279.69) rotate(-8.998)" fill="#ff6c39"/>
          <path id="Path_161386" data-name="Path 161386" d="M1.307.059A1.18,1.18,0,0,0,1.7,0V-.375A.7.7,0,0,1,1.406-.3c-.214,0-.372-.149-.372-.472v-1.8h.741v-.357H1.034V-4L.6-3.586v.659H.129v.357H.6V-.776C.6-.275.788.059,1.307.059Zm1.846,0A1.093,1.093,0,0,0,4.181-.565L4.189,0h.372V-1.8A1.078,1.078,0,0,0,3.416-2.988a1.3,1.3,0,0,0-1.1.574l.319.249a.963.963,0,0,1,.812-.442c.53,0,.718.384.718.935H3.492C2.66-1.673,2.2-1.4,2.2-.814A.858.858,0,0,0,3.152.059ZM3.2-.311c-.3,0-.548-.144-.548-.492,0-.39.3-.539.879-.539H4.16A1.01,1.01,0,0,1,3.2-.311ZM5.473,0h.437V-1.521c0-.727.366-1.087.826-1.087.516,0,.665.469.665.873V0h.434V-1.778c0-.645-.284-1.2-.981-1.2a1.051,1.051,0,0,0-.943.563v-.51H5.473ZM9.434.059a1.093,1.093,0,0,0,1.028-.624L10.471,0h.372V-1.8A1.078,1.078,0,0,0,9.7-2.988a1.3,1.3,0,0,0-1.1.574l.319.249a.963.963,0,0,1,.812-.442c.53,0,.718.384.718.935H9.773c-.832,0-1.289.272-1.289.858A.858.858,0,0,0,9.434.059Zm.05-.369c-.3,0-.548-.144-.548-.492,0-.39.3-.539.879-.539h.627A1.01,1.01,0,0,1,9.483-.311Z" transform="translate(336.074 292.419) rotate(-4.012)" fill="#ff6c39"/>
          <path id="Path_161382" data-name="Path 161382" d="M.621,0h.463V-1.869h.7c.8,0,1.324-.4,1.324-1.128,0-.712-.521-1.143-1.324-1.143H.621Zm.463-2.282V-3.727h.7c.554,0,.867.27.867.729,0,.478-.313.715-.867.715ZM3.771,0H4.2V-1.462c0-.706.3-1.107.8-1.107a.533.533,0,0,1,.357.111l.185-.378a.761.761,0,0,0-.472-.152.943.943,0,0,0-.864.58v-.519H3.771ZM6.788.059A1.093,1.093,0,0,0,7.816-.565L7.825,0H8.2V-1.8A1.078,1.078,0,0,0,7.052-2.988a1.3,1.3,0,0,0-1.1.574l.319.249a.963.963,0,0,1,.812-.442c.53,0,.718.384.718.935H7.128c-.832,0-1.289.272-1.289.858A.858.858,0,0,0,6.788.059Zm.05-.369c-.3,0-.548-.144-.548-.492,0-.39.3-.539.879-.539H7.8A1.01,1.01,0,0,1,6.838-.311ZM9.917.059A1.18,1.18,0,0,0,10.31,0V-.375a.7.7,0,0,1-.293.073c-.214,0-.372-.149-.372-.472v-1.8h.741v-.357H9.645V-4l-.434.41v.659H8.739v.357h.469V-.776C9.208-.275,9.4.059,9.917.059Zm2.273,0a1.439,1.439,0,0,0,1.395-1.529A1.43,1.43,0,0,0,12.19-2.988a1.417,1.417,0,0,0-1.38,1.518A1.425,1.425,0,0,0,12.19.059Zm0-.363c-.645,0-.943-.574-.943-1.166s.3-1.154.949-1.154.943.568.943,1.154S12.85-.3,12.193-.3Zm2.271.3H14.9V-2.569h.841v-.357H14.9V-3.4c0-.3.164-.437.39-.437a.832.832,0,0,1,.343.091l.105-.349a1.1,1.1,0,0,0-.48-.111.735.735,0,0,0-.791.782v.492h-.536v.357h.533Zm2.76.064a1.042,1.042,0,0,0,.92-.56V0h.434V-2.927h-.434v1.62a.94.94,0,0,1-.873,1c-.5,0-.615-.472-.615-.894V-2.927h-.437v1.7C16.219-.5,16.5.064,17.224.064ZM19.564,0H20V-1.521c0-.727.366-1.087.826-1.087.516,0,.665.469.665.873V0h.434V-1.778c0-.645-.284-1.2-.981-1.2A1.051,1.051,0,0,0,20-2.417v-.51h-.437Zm4.33-.378c-.416-.059-.782-.146-.782-.448a.277.277,0,0,1,.126-.226,1.248,1.248,0,0,0,.551.123A1,1,0,0,0,24.87-1.937a1.057,1.057,0,0,0-.108-.475l.472-.372-.249-.311-.439.4a1.113,1.113,0,0,0-.756-.272,1.023,1.023,0,0,0-1.1,1.025.975.975,0,0,0,.246.668.6.6,0,0,0-.214.483.649.649,0,0,0,.372.6l-.422.425a.772.772,0,0,0-.009.111c0,.557.5,1,1.263,1,.615,0,1.172-.287,1.172-.891C25.1-.211,24.489-.3,23.895-.378Zm-.111-2.244a.635.635,0,0,1,.647.671.614.614,0,0,1-.647.659.611.611,0,0,1-.645-.659A.64.64,0,0,1,23.783-2.622ZM23.965.955c-.568,0-.891-.3-.894-.6l.346-.422a2.969,2.969,0,0,0,.349.076c.5.085.946.1.946.475C24.712.8,24.352.955,23.965.955Zm3.018-.9a1.439,1.439,0,0,0,1.395-1.529,1.43,1.43,0,0,0-1.395-1.518A1.417,1.417,0,0,0,25.6-1.471,1.425,1.425,0,0,0,26.982.059Zm0-.363c-.645,0-.943-.574-.943-1.166s.3-1.154.949-1.154.943.568.943,1.154S27.642-.3,26.985-.3Z" transform="translate(287.415 324.97) rotate(24.999)" fill="#00c19c"/>
          <path id="Path_161385" data-name="Path 161385" d="M1.541.059a1.116,1.116,0,0,0,1.1-.776L2.262-.882a.734.734,0,0,1-.727.571C.923-.311.718-.923.718-1.459s.211-1.16.817-1.16a.741.741,0,0,1,.727.586l.413-.176a1.2,1.2,0,0,0-1.14-.779C.691-2.988.27-2.244.27-1.459A1.346,1.346,0,0,0,1.541.059ZM4,.059A1.093,1.093,0,0,0,5.033-.565L5.042,0h.372V-1.8A1.078,1.078,0,0,0,4.269-2.988a1.3,1.3,0,0,0-1.1.574l.319.249a.963.963,0,0,1,.812-.442c.53,0,.718.384.718.935H4.345c-.832,0-1.289.272-1.289.858A.858.858,0,0,0,4,.059Zm.05-.369c-.3,0-.548-.144-.548-.492,0-.39.3-.539.879-.539h.627A1.01,1.01,0,0,1,4.055-.311ZM6.331,1.283h.439V-.4a1.05,1.05,0,0,0,.9.457c.785,0,1.192-.694,1.192-1.523s-.41-1.523-1.2-1.523a1.046,1.046,0,0,0-.894.46v-.4H6.331ZM7.573-.311c-.595,0-.844-.557-.844-1.154s.249-1.154.844-1.154.847.563.847,1.154S8.159-.311,7.573-.311Zm2.742.369a1.093,1.093,0,0,0,1.028-.624L11.353,0h.372V-1.8a1.078,1.078,0,0,0-1.146-1.192,1.3,1.3,0,0,0-1.1.574l.319.249a.963.963,0,0,1,.812-.442c.53,0,.718.384.718.935h-.668c-.832,0-1.289.272-1.289.858A.858.858,0,0,0,10.315.059Zm.05-.369c-.3,0-.548-.144-.548-.492,0-.39.3-.539.879-.539h.627A1.01,1.01,0,0,1,10.365-.311ZM12.636,0h.437V-1.521c0-.727.366-1.087.826-1.087.516,0,.665.469.665.873V0H15V-1.778c0-.645-.284-1.2-.981-1.2a1.051,1.051,0,0,0-.943.563v-.51h-.437Zm3.278,0h.437V-1.521c0-.727.366-1.087.826-1.087.516,0,.665.469.665.873V0h.434V-1.778c0-.645-.284-1.2-.981-1.2a1.051,1.051,0,0,0-.943.563v-.51h-.437Zm4.157.064a1.042,1.042,0,0,0,.92-.56V0h.434V-2.927h-.434v1.62a.94.94,0,0,1-.873,1c-.5,0-.615-.472-.615-.894V-2.927h-.437v1.7C19.066-.5,19.351.064,20.071.064ZM23.438.059a1.116,1.116,0,0,0,1.1-.776l-.381-.164a.734.734,0,0,1-.727.571c-.612,0-.817-.612-.817-1.148s.211-1.16.817-1.16a.741.741,0,0,1,.727.586l.413-.176a1.2,1.2,0,0,0-1.14-.779c-.844,0-1.266.744-1.266,1.529A1.346,1.346,0,0,0,23.438.059Zm2.824,0a1.116,1.116,0,0,0,1.1-.776l-.381-.164a.734.734,0,0,1-.727.571c-.612,0-.817-.612-.817-1.148s.211-1.16.817-1.16a.741.741,0,0,1,.727.586l.413-.176a1.2,1.2,0,0,0-1.14-.779c-.844,0-1.266.744-1.266,1.529A1.346,1.346,0,0,0,26.262.059ZM28.04-3.577h.5V-4.14h-.5ZM28.072,0h.434V-2.927h-.434Zm2.106.059a1.093,1.093,0,0,0,1.028-.624L31.216,0h.372V-1.8a1.078,1.078,0,0,0-1.146-1.192,1.3,1.3,0,0,0-1.1.574l.319.249a.963.963,0,0,1,.812-.442c.53,0,.718.384.718.935h-.668c-.832,0-1.289.272-1.289.858A.858.858,0,0,0,30.179.059Zm.05-.369c-.3,0-.548-.144-.548-.492,0-.39.3-.539.879-.539h.627A1.01,1.01,0,0,1,30.229-.311Z" transform="translate(325.172 342.835) rotate(24.999)" fill="#ff6c39"/>
          <path id="Path_161383" data-name="Path 161383" d="M1.573,0h.469V-3.756h1.4V-4.14H.176v.384h1.4ZM4.629.041A1.435,1.435,0,0,0,5.748-.416l-.3-.24a1.023,1.023,0,0,1-.823.313.867.867,0,0,1-.855-.973H5.81c.006-.053.015-.149.015-.226,0-.674-.293-1.427-1.242-1.427A1.35,1.35,0,0,0,3.311-1.447,1.327,1.327,0,0,0,4.629.041ZM3.771-1.673c.023-.5.275-.935.812-.935.6,0,.812.466.823.935ZM6.577,0h.431V-1.462c0-.706.3-1.107.8-1.107a.533.533,0,0,1,.357.111l.185-.378a.761.761,0,0,0-.472-.152.943.943,0,0,0-.864.58v-.519H6.577ZM8.912,0h.431V-1.462c0-.706.3-1.107.8-1.107a.533.533,0,0,1,.357.111l.185-.378a.761.761,0,0,0-.472-.152.943.943,0,0,0-.864.58v-.519H8.912ZM11.93.059a1.093,1.093,0,0,0,1.028-.624L12.967,0h.372V-1.8a1.078,1.078,0,0,0-1.146-1.192,1.3,1.3,0,0,0-1.1.574l.319.249a.963.963,0,0,1,.812-.442c.53,0,.718.384.718.935H12.27c-.832,0-1.289.272-1.289.858A.858.858,0,0,0,11.93.059Zm.05-.369c-.3,0-.548-.144-.548-.492,0-.39.3-.539.879-.539h.627A1.01,1.01,0,0,1,11.979-.311ZM15.6.059c.762,0,1.178-.688,1.178-1.523S16.365-2.988,15.6-2.988a1.048,1.048,0,0,0-.908.46V-4.14h-.437V0h.437V-.4A1.048,1.048,0,0,0,15.6.059Zm-.114-.369c-.586,0-.835-.557-.835-1.154s.249-1.154.835-1.154.855.563.855,1.154S16.078-.311,15.489-.311Zm2.748.369a1.093,1.093,0,0,0,1.028-.624L19.274,0h.372V-1.8A1.078,1.078,0,0,0,18.5-2.988a1.3,1.3,0,0,0-1.1.574l.319.249a.963.963,0,0,1,.812-.442c.53,0,.718.384.718.935h-.668c-.832,0-1.289.272-1.289.858A.858.858,0,0,0,18.237.059Zm.05-.369c-.3,0-.548-.144-.548-.492,0-.39.3-.539.879-.539h.627A1.01,1.01,0,0,1,18.287-.311Z" transform="translate(277.218 343.647) rotate(43.089)" fill="#00c19c"/>
          <path id="Path_161384" data-name="Path 161384" d="M1.541.059a1.116,1.116,0,0,0,1.1-.776L2.262-.882a.734.734,0,0,1-.727.571C.923-.311.718-.923.718-1.459s.211-1.16.817-1.16a.741.741,0,0,1,.727.586l.413-.176a1.2,1.2,0,0,0-1.14-.779C.691-2.988.27-2.244.27-1.459A1.346,1.346,0,0,0,1.541.059ZM4,.059A1.093,1.093,0,0,0,5.033-.565L5.042,0h.372V-1.8A1.078,1.078,0,0,0,4.269-2.988a1.3,1.3,0,0,0-1.1.574l.319.249a.963.963,0,0,1,.812-.442c.53,0,.718.384.718.935H4.345c-.832,0-1.289.272-1.289.858A.858.858,0,0,0,4,.059Zm.05-.369c-.3,0-.548-.144-.548-.492,0-.39.3-.539.879-.539h.627A1.01,1.01,0,0,1,4.055-.311ZM6.325,0h.442V-1.526c0-.53.261-1.09.747-1.09s.615.466.615.87V0h.445V-1.623c0-.48.261-.993.741-.993.507,0,.627.483.627.882V0h.442V-1.778c0-.65-.293-1.21-1.017-1.21a.971.971,0,0,0-.911.612.879.879,0,0,0-.894-.612.875.875,0,0,0-.8.516v-.454H6.325Zm4.983,1.283h.439V-.4a1.05,1.05,0,0,0,.9.457c.785,0,1.192-.694,1.192-1.523s-.41-1.523-1.2-1.523a1.046,1.046,0,0,0-.894.46v-.4h-.439ZM12.551-.311c-.595,0-.844-.557-.844-1.154s.249-1.154.844-1.154.847.563.847,1.154S13.137-.311,12.551-.311Zm2.742.369a1.093,1.093,0,0,0,1.028-.624L16.33,0H16.7V-1.8a1.078,1.078,0,0,0-1.146-1.192,1.3,1.3,0,0,0-1.1.574l.319.249a.963.963,0,0,1,.812-.442c.53,0,.718.384.718.935h-.668c-.832,0-1.289.272-1.289.858A.858.858,0,0,0,15.293.059Zm.05-.369c-.3,0-.548-.144-.548-.492,0-.39.3-.539.879-.539H16.3A1.01,1.01,0,0,1,15.343-.311Zm3.322-.067c-.416-.059-.782-.146-.782-.448a.277.277,0,0,1,.126-.226,1.248,1.248,0,0,0,.551.123,1,1,0,0,0,1.081-1.008,1.057,1.057,0,0,0-.108-.475L20-2.783l-.249-.311-.439.4a1.113,1.113,0,0,0-.756-.272,1.023,1.023,0,0,0-1.1,1.025.975.975,0,0,0,.246.668.6.6,0,0,0-.214.483.649.649,0,0,0,.372.6l-.422.425a.772.772,0,0,0-.009.111c0,.557.5,1,1.263,1,.615,0,1.172-.287,1.172-.891C19.872-.211,19.26-.3,18.665-.378Zm-.111-2.244a.635.635,0,0,1,.647.671.614.614,0,0,1-.647.659.611.611,0,0,1-.645-.659A.64.64,0,0,1,18.554-2.622ZM18.735.955c-.568,0-.891-.3-.894-.6l.346-.422a2.969,2.969,0,0,0,.349.076c.5.085.946.1.946.475C19.482.8,19.122.955,18.735.955ZM20.613,0h.437V-1.521c0-.727.366-1.087.826-1.087.516,0,.665.469.665.873V0h.434V-1.778c0-.645-.284-1.2-.981-1.2a1.051,1.051,0,0,0-.943.563v-.51h-.437Zm3.961.059A1.093,1.093,0,0,0,25.6-.565L25.611,0h.372V-1.8a1.078,1.078,0,0,0-1.146-1.192,1.3,1.3,0,0,0-1.1.574l.319.249a.963.963,0,0,1,.812-.442c.53,0,.718.384.718.935h-.668c-.832,0-1.289.272-1.289.858A.858.858,0,0,0,24.574.059Zm.05-.369c-.3,0-.548-.144-.548-.492,0-.39.3-.539.879-.539h.627A1.01,1.01,0,0,1,24.624-.311Z" transform="translate(308.708 369.406) rotate(43.014)" fill="#ff6c39"/>
          <path id="Path_161389" data-name="Path 161389" d="M1.573,0h.469V-3.756h1.4V-4.14H.176v.384h1.4ZM4.629.041A1.435,1.435,0,0,0,5.748-.416l-.3-.24a1.023,1.023,0,0,1-.823.313.867.867,0,0,1-.855-.973H5.81c.006-.053.015-.149.015-.226,0-.674-.293-1.427-1.242-1.427A1.35,1.35,0,0,0,3.311-1.447,1.327,1.327,0,0,0,4.629.041ZM3.771-1.673c.023-.5.275-.935.812-.935.6,0,.812.466.823.935ZM6.577,0h.431V-1.462c0-.706.3-1.107.8-1.107a.533.533,0,0,1,.357.111l.185-.378a.761.761,0,0,0-.472-.152.943.943,0,0,0-.864.58v-.519H6.577ZM8.912,0h.431V-1.462c0-.706.3-1.107.8-1.107a.533.533,0,0,1,.357.111l.185-.378a.761.761,0,0,0-.472-.152.943.943,0,0,0-.864.58v-.519H8.912ZM11.93.059a1.093,1.093,0,0,0,1.028-.624L12.967,0h.372V-1.8a1.078,1.078,0,0,0-1.146-1.192,1.3,1.3,0,0,0-1.1.574l.319.249a.963.963,0,0,1,.812-.442c.53,0,.718.384.718.935H12.27c-.832,0-1.289.272-1.289.858A.858.858,0,0,0,11.93.059Zm.05-.369c-.3,0-.548-.144-.548-.492,0-.39.3-.539.879-.539h.627A1.01,1.01,0,0,1,11.979-.311Zm2.848-.012c-.132,0-.144-.158-.144-.167V-4.14h-.442V-.592c0,.352.032.65.475.65a1.429,1.429,0,0,0,.4-.059V-.352A1.735,1.735,0,0,1,14.827-.322Zm2.294.381c.762,0,1.178-.688,1.178-1.523s-.416-1.523-1.181-1.523a1.048,1.048,0,0,0-.908.46V-4.14h-.437V0h.437V-.4A1.048,1.048,0,0,0,17.121.059Zm-.114-.369c-.586,0-.835-.557-.835-1.154s.249-1.154.835-1.154.855.563.855,1.154S17.6-.311,17.007-.311Zm2.748.369a1.093,1.093,0,0,0,1.028-.624L20.792,0h.372V-1.8a1.078,1.078,0,0,0-1.146-1.192,1.3,1.3,0,0,0-1.1.574l.319.249a.963.963,0,0,1,.812-.442c.53,0,.718.384.718.935h-.668c-.832,0-1.289.272-1.289.858A.858.858,0,0,0,19.755.059Zm.05-.369c-.3,0-.548-.144-.548-.492,0-.39.3-.539.879-.539h.627A1.01,1.01,0,0,1,19.8-.311Z" transform="translate(131.96 324.983) rotate(-15.997)" fill="#00c19c"/>
          <path id="Path_161402" data-name="Path 161402" d="M1.541.059a1.116,1.116,0,0,0,1.1-.776L2.262-.882a.734.734,0,0,1-.727.571C.923-.311.718-.923.718-1.459s.211-1.16.817-1.16a.741.741,0,0,1,.727.586l.413-.176a1.2,1.2,0,0,0-1.14-.779C.691-2.988.27-2.244.27-1.459A1.346,1.346,0,0,0,1.541.059ZM3.319-3.577h.5V-4.14h-.5ZM3.352,0h.434V-2.927H3.352ZM4.775,0h.442V-1.526c0-.53.261-1.09.747-1.09s.615.466.615.87V0h.445V-1.623c0-.48.261-.993.741-.993.507,0,.627.483.627.882V0h.442V-1.778c0-.65-.293-1.21-1.017-1.21a.971.971,0,0,0-.911.612.879.879,0,0,0-.894-.612.875.875,0,0,0-.8.516v-.454H4.775ZM9.727-3.577h.5V-4.14h-.5ZM9.759,0h.434V-2.927H9.759ZM12,.059A1.18,1.18,0,0,0,12.39,0V-.375A.7.7,0,0,1,12.1-.3c-.214,0-.372-.149-.372-.472v-1.8h.741v-.357h-.741V-4l-.434.41v.659h-.472v.357h.469V-.776C11.288-.275,11.479.059,12,.059ZM14.224.041a1.435,1.435,0,0,0,1.119-.457l-.3-.24a1.023,1.023,0,0,1-.823.313.867.867,0,0,1-.855-.973H15.4c.006-.053.015-.149.015-.226,0-.674-.293-1.427-1.242-1.427a1.35,1.35,0,0,0-1.271,1.521A1.327,1.327,0,0,0,14.224.041Zm-.858-1.714c.023-.5.275-.935.812-.935.6,0,.812.466.823.935ZM16.172,0H16.6V-1.462c0-.706.3-1.107.8-1.107a.533.533,0,0,1,.357.111l.185-.378a.761.761,0,0,0-.472-.152.943.943,0,0,0-.864.58v-.519h-.437ZM19.4.059a1.439,1.439,0,0,0,1.395-1.529A1.43,1.43,0,0,0,19.4-2.988a1.417,1.417,0,0,0-1.38,1.518A1.425,1.425,0,0,0,19.4.059Zm0-.363c-.645,0-.943-.574-.943-1.166s.3-1.154.949-1.154.943.568.943,1.154S20.06-.3,19.4-.3Z" transform="translate(140.942 404.236) rotate(-47.999)" fill="#ff6c39"/>
          <path id="Path_161401" data-name="Path 161401" d="M.5,1.283H.938V-.4a1.05,1.05,0,0,0,.9.457c.785,0,1.192-.694,1.192-1.523s-.41-1.523-1.2-1.523a1.046,1.046,0,0,0-.894.46v-.4H.5ZM1.74-.311C1.146-.311.9-.867.9-1.465s.249-1.154.844-1.154.847.563.847,1.154S2.326-.311,1.74-.311ZM3.8,0H4.23V-1.462c0-.706.3-1.107.8-1.107a.533.533,0,0,1,.357.111l.185-.378A.761.761,0,0,0,5.1-2.988a.943.943,0,0,0-.864.58v-.519H3.8ZM6.817.059A1.093,1.093,0,0,0,7.846-.565L7.854,0h.372V-1.8A1.078,1.078,0,0,0,7.081-2.988a1.3,1.3,0,0,0-1.1.574l.319.249a.963.963,0,0,1,.812-.442c.53,0,.718.384.718.935H7.157c-.832,0-1.289.272-1.289.858A.858.858,0,0,0,6.817.059Zm.05-.369c-.3,0-.548-.144-.548-.492,0-.39.3-.539.879-.539h.627A1.01,1.01,0,0,1,6.867-.311ZM9.946.059A1.18,1.18,0,0,0,10.339,0V-.375a.7.7,0,0,1-.293.073c-.214,0-.372-.149-.372-.472v-1.8h.741v-.357H9.674V-4l-.434.41v.659H8.769v.357h.469V-.776C9.237-.275,9.428.059,9.946.059Zm2.273,0a1.439,1.439,0,0,0,1.395-1.529A1.43,1.43,0,0,0,12.22-2.988a1.417,1.417,0,0,0-1.38,1.518A1.425,1.425,0,0,0,12.22.059Zm0-.363c-.645,0-.943-.574-.943-1.166s.3-1.154.949-1.154.943.568.943,1.154S12.879-.3,12.223-.3Z" transform="matrix(0.731, -0.682, 0.682, 0.731, 137.074, 389.392)" fill="#ff6c39"/>
          <path id="Path_161400" data-name="Path 161400" d="M1.846.059c.762,0,1.178-.688,1.178-1.523S2.607-2.988,1.843-2.988a1.048,1.048,0,0,0-.908.46V-4.14H.5V0H.935V-.4A1.048,1.048,0,0,0,1.846.059ZM1.731-.311C1.146-.311.9-.867.9-1.465s.249-1.154.835-1.154.855.563.855,1.154S2.32-.311,1.731-.311ZM4.937.059A1.439,1.439,0,0,0,6.331-1.471,1.43,1.43,0,0,0,4.937-2.988a1.417,1.417,0,0,0-1.38,1.518A1.425,1.425,0,0,0,4.937.059Zm0-.363C4.295-.3,4-.879,4-1.471s.3-1.154.949-1.154.943.568.943,1.154S5.6-.3,4.939-.3ZM7.887.059a.913.913,0,0,0,1-.894c0-1.075-1.579-.721-1.579-1.395,0-.24.2-.4.513-.4a.69.69,0,0,1,.653.413L8.8-2.405a1.04,1.04,0,0,0-.961-.583.835.835,0,0,0-.929.812c0,.993,1.556.606,1.556,1.395,0,.316-.243.483-.574.483a.742.742,0,0,1-.729-.557l-.369.19A1.136,1.136,0,0,0,7.887.059Zm2.757,0a1.116,1.116,0,0,0,1.1-.776l-.381-.164a.734.734,0,0,1-.727.571c-.612,0-.817-.612-.817-1.148s.211-1.16.817-1.16a.741.741,0,0,1,.727.586l.413-.176a1.2,1.2,0,0,0-1.14-.779c-.844,0-1.266.744-1.266,1.529A1.346,1.346,0,0,0,10.644.059Zm2.915,0a1.439,1.439,0,0,0,1.395-1.529,1.43,1.43,0,0,0-1.395-1.518,1.417,1.417,0,0,0-1.38,1.518A1.425,1.425,0,0,0,13.559.059Zm0-.363c-.645,0-.943-.574-.943-1.166s.3-1.154.949-1.154.943.568.943,1.154S14.218-.3,13.562-.3Z" transform="matrix(0.799, -0.602, 0.602, 0.799, 127.646, 380.149)" fill="#ff6c39"/>
          <path id="Path_161399" data-name="Path 161399" d="M1.846.059c.762,0,1.178-.688,1.178-1.523S2.607-2.988,1.843-2.988a1.048,1.048,0,0,0-.908.46V-4.14H.5V0H.935V-.4A1.048,1.048,0,0,0,1.846.059ZM1.731-.311C1.146-.311.9-.867.9-1.465s.249-1.154.835-1.154.855.563.855,1.154S2.32-.311,1.731-.311ZM4.937.059A1.439,1.439,0,0,0,6.331-1.471,1.43,1.43,0,0,0,4.937-2.988a1.417,1.417,0,0,0-1.38,1.518A1.425,1.425,0,0,0,4.937.059Zm0-.363C4.295-.3,4-.879,4-1.471s.3-1.154.949-1.154.943.568.943,1.154S5.6-.3,4.939-.3ZM7.866.059A1.18,1.18,0,0,0,8.259,0V-.375A.7.7,0,0,1,7.966-.3c-.214,0-.372-.149-.372-.472v-1.8h.741v-.357H7.594V-4l-.434.41v.659H6.688v.357h.469V-.776C7.157-.275,7.348.059,7.866.059Zm1.972,0A1.18,1.18,0,0,0,10.23,0V-.375A.7.7,0,0,1,9.938-.3c-.214,0-.372-.149-.372-.472v-1.8h.741v-.357H9.565V-4l-.434.41v.659H8.66v.357h.469V-.776C9.129-.275,9.319.059,9.838.059ZM12.064.041a1.435,1.435,0,0,0,1.119-.457l-.3-.24a1.023,1.023,0,0,1-.823.313.867.867,0,0,1-.855-.973h2.039c.006-.053.015-.149.015-.226,0-.674-.293-1.427-1.242-1.427a1.35,1.35,0,0,0-1.271,1.521A1.327,1.327,0,0,0,12.064.041Zm-.858-1.714c.023-.5.275-.935.812-.935.6,0,.812.466.823.935ZM15.064-.378c-.416-.059-.782-.146-.782-.448a.277.277,0,0,1,.126-.226,1.248,1.248,0,0,0,.551.123A1,1,0,0,0,16.04-1.937a1.057,1.057,0,0,0-.108-.475l.472-.372-.249-.311-.439.4a1.113,1.113,0,0,0-.756-.272,1.023,1.023,0,0,0-1.1,1.025.975.975,0,0,0,.246.668.6.6,0,0,0-.214.483.649.649,0,0,0,.372.6l-.422.425a.772.772,0,0,0-.009.111c0,.557.5,1,1.263,1,.615,0,1.172-.287,1.172-.891C16.271-.211,15.659-.3,15.064-.378Zm-.111-2.244a.635.635,0,0,1,.647.671.614.614,0,0,1-.647.659.611.611,0,0,1-.645-.659A.64.64,0,0,1,14.953-2.622ZM15.135.955c-.568,0-.891-.3-.894-.6l.346-.422a2.969,2.969,0,0,0,.349.076c.5.085.946.1.946.475C15.882.8,15.521.955,15.135.955Zm2.531-.9a1.093,1.093,0,0,0,1.028-.624L18.7,0h.372V-1.8A1.078,1.078,0,0,0,17.93-2.988a1.3,1.3,0,0,0-1.1.574l.319.249a.963.963,0,0,1,.812-.442c.53,0,.718.384.718.935h-.668c-.832,0-1.289.272-1.289.858A.858.858,0,0,0,17.666.059Zm.05-.369c-.3,0-.548-.144-.548-.492,0-.39.3-.539.879-.539h.627A1.01,1.01,0,0,1,17.716-.311Z" transform="matrix(0.848, -0.53, 0.53, 0.848, 116.454, 371.596)" fill="#ff6c39"/>
          <path id="Path_161398" data-name="Path 161398" d="M1.541.059a1.116,1.116,0,0,0,1.1-.776L2.262-.882a.734.734,0,0,1-.727.571C.923-.311.718-.923.718-1.459s.211-1.16.817-1.16a.741.741,0,0,1,.727.586l.413-.176a1.2,1.2,0,0,0-1.14-.779C.691-2.988.27-2.244.27-1.459A1.346,1.346,0,0,0,1.541.059ZM4,.059A1.093,1.093,0,0,0,5.033-.565L5.042,0h.372V-1.8A1.078,1.078,0,0,0,4.269-2.988a1.3,1.3,0,0,0-1.1.574l.319.249a.963.963,0,0,1,.812-.442c.53,0,.718.384.718.935H4.345c-.832,0-1.289.272-1.289.858A.858.858,0,0,0,4,.059Zm.05-.369c-.3,0-.548-.144-.548-.492,0-.39.3-.539.879-.539h.627A1.01,1.01,0,0,1,4.055-.311ZM7.137.059a.913.913,0,0,0,1-.894c0-1.075-1.579-.721-1.579-1.395,0-.24.2-.4.513-.4a.69.69,0,0,1,.653.413l.322-.185a1.04,1.04,0,0,0-.961-.583.835.835,0,0,0-.929.812c0,.993,1.556.606,1.556,1.395,0,.316-.243.483-.574.483a.742.742,0,0,1-.729-.557l-.369.19A1.136,1.136,0,0,0,7.137.059Zm2.848,0a1.439,1.439,0,0,0,1.395-1.529A1.43,1.43,0,0,0,9.984-2.988,1.417,1.417,0,0,0,8.6-1.471,1.425,1.425,0,0,0,9.984.059Zm0-.363c-.645,0-.943-.574-.943-1.166s.3-1.154.949-1.154.943.568.943,1.154S10.644-.3,9.987-.3ZM12.7-.322c-.132,0-.144-.158-.144-.167V-4.14h-.442V-.592c0,.352.032.65.475.65a1.429,1.429,0,0,0,.4-.059V-.352A1.735,1.735,0,0,1,12.7-.322Zm1.617.381a1.093,1.093,0,0,0,1.028-.624L15.354,0h.372V-1.8a1.078,1.078,0,0,0-1.146-1.192,1.3,1.3,0,0,0-1.1.574l.319.249a.963.963,0,0,1,.812-.442c.53,0,.718.384.718.935h-.668c-.832,0-1.289.272-1.289.858A.858.858,0,0,0,14.317.059Zm.05-.369c-.3,0-.548-.144-.548-.492,0-.39.3-.539.879-.539h.627A1.01,1.01,0,0,1,14.367-.311ZM16.638,0h.431V-1.462c0-.706.3-1.107.8-1.107a.533.533,0,0,1,.357.111l.185-.378a.761.761,0,0,0-.472-.152.943.943,0,0,0-.864.58v-.519h-.437Zm3.182.041a1.435,1.435,0,0,0,1.119-.457l-.3-.24a1.023,1.023,0,0,1-.823.313.867.867,0,0,1-.855-.973H21c.006-.053.015-.149.015-.226,0-.674-.293-1.427-1.242-1.427A1.35,1.35,0,0,0,18.5-1.447,1.327,1.327,0,0,0,19.819.041Zm-.858-1.714c.023-.5.275-.935.812-.935.6,0,.812.466.823.935Z" transform="translate(107.263 361.085) rotate(-27.001)" fill="#ff6c39"/>
          <path id="Path_161397" data-name="Path 161397" d="M1.541.059a1.116,1.116,0,0,0,1.1-.776L2.262-.882a.734.734,0,0,1-.727.571C.923-.311.718-.923.718-1.459s.211-1.16.817-1.16a.741.741,0,0,1,.727.586l.413-.176a1.2,1.2,0,0,0-1.14-.779C.691-2.988.27-2.244.27-1.459A1.346,1.346,0,0,0,1.541.059ZM4,.059A1.093,1.093,0,0,0,5.033-.565L5.042,0h.372V-1.8A1.078,1.078,0,0,0,4.269-2.988a1.3,1.3,0,0,0-1.1.574l.319.249a.963.963,0,0,1,.812-.442c.53,0,.718.384.718.935H4.345c-.832,0-1.289.272-1.289.858A.858.858,0,0,0,4,.059Zm.05-.369c-.3,0-.548-.144-.548-.492,0-.39.3-.539.879-.539h.627A1.01,1.01,0,0,1,4.055-.311ZM7.137.059a.913.913,0,0,0,1-.894c0-1.075-1.579-.721-1.579-1.395,0-.24.2-.4.513-.4a.69.69,0,0,1,.653.413l.322-.185a1.04,1.04,0,0,0-.961-.583.835.835,0,0,0-.929.812c0,.993,1.556.606,1.556,1.395,0,.316-.243.483-.574.483a.742.742,0,0,1-.729-.557l-.369.19A1.136,1.136,0,0,0,7.137.059Zm2.546,0A1.18,1.18,0,0,0,10.075,0V-.375A.7.7,0,0,1,9.782-.3c-.214,0-.372-.149-.372-.472v-1.8h.741v-.357H9.41V-4l-.434.41v.659H8.5v.357h.469V-.776C8.974-.275,9.164.059,9.683.059ZM11.909.041a1.435,1.435,0,0,0,1.119-.457l-.3-.24a1.023,1.023,0,0,1-.823.313.867.867,0,0,1-.855-.973H13.09c.006-.053.015-.149.015-.226,0-.674-.293-1.427-1.242-1.427a1.35,1.35,0,0,0-1.271,1.521A1.327,1.327,0,0,0,11.909.041Zm-.858-1.714c.023-.5.275-.935.812-.935.6,0,.812.466.823.935ZM14.435-.322c-.132,0-.144-.158-.144-.167V-4.14h-.442V-.592c0,.352.032.65.475.65a1.429,1.429,0,0,0,.4-.059V-.352A1.735,1.735,0,0,1,14.435-.322Zm1.518,0c-.132,0-.144-.158-.144-.167V-4.14h-.442V-.592c0,.352.032.65.475.65a1.429,1.429,0,0,0,.4-.059V-.352A1.735,1.735,0,0,1,15.952-.322Zm2.08.381a1.439,1.439,0,0,0,1.395-1.529,1.43,1.43,0,0,0-1.395-1.518,1.417,1.417,0,0,0-1.38,1.518A1.425,1.425,0,0,0,18.032.059Zm0-.363c-.645,0-.943-.574-.943-1.166s.3-1.154.949-1.154.943.568.943,1.154S18.691-.3,18.035-.3Z" transform="matrix(0.934, -0.358, 0.358, 0.934, 103.01, 347.237)" fill="#ff6c39"/>
          <path id="Path_161396" data-name="Path 161396" d="M.492,0H.923V-1.462c0-.706.3-1.107.8-1.107a.533.533,0,0,1,.357.111l.185-.378a.761.761,0,0,0-.472-.152.943.943,0,0,0-.864.58v-.519H.492ZM2.8-3.577h.5V-4.14H2.8ZM2.833,0h.434V-2.927H2.833Zm2.13,0H5.35l1.09-2.927H5.971L5.156-.568,4.348-2.927H3.87ZM7.7.059A1.093,1.093,0,0,0,8.725-.565L8.733,0h.372V-1.8A1.078,1.078,0,0,0,7.96-2.988a1.3,1.3,0,0,0-1.1.574l.319.249a.963.963,0,0,1,.812-.442c.53,0,.718.384.718.935H8.036c-.832,0-1.289.272-1.289.858A.858.858,0,0,0,7.7.059Zm.05-.369c-.3,0-.548-.144-.548-.492,0-.39.3-.539.879-.539H8.7A1.01,1.01,0,0,1,7.746-.311Z" transform="translate(107.263 331.53) rotate(-15.997)" fill="#ff6c39"/>
          <path id="Path_161395" data-name="Path 161395" d="M1.541.059a1.116,1.116,0,0,0,1.1-.776L2.262-.882a.734.734,0,0,1-.727.571C.923-.311.718-.923.718-1.459s.211-1.16.817-1.16a.741.741,0,0,1,.727.586l.413-.176a1.2,1.2,0,0,0-1.14-.779C.691-2.988.27-2.244.27-1.459A1.346,1.346,0,0,0,1.541.059Zm2.915,0A1.439,1.439,0,0,0,5.851-1.471,1.43,1.43,0,0,0,4.456-2.988a1.417,1.417,0,0,0-1.38,1.518A1.425,1.425,0,0,0,4.456.059Zm0-.363c-.645,0-.943-.574-.943-1.166s.3-1.154.949-1.154.943.568.943,1.154S5.115-.3,4.459-.3ZM7.172-.322c-.132,0-.144-.158-.144-.167V-4.14H6.586V-.592c0,.352.032.65.475.65A1.429,1.429,0,0,0,7.456,0V-.352A1.735,1.735,0,0,1,7.172-.322Zm1.518,0c-.132,0-.144-.158-.144-.167V-4.14H8.1V-.592c0,.352.032.65.475.65A1.429,1.429,0,0,0,8.974,0V-.352A1.735,1.735,0,0,1,8.689-.322ZM9.6-3.577h.5V-4.14H9.6ZM9.636,0h.434V-2.927H9.636ZM11.06,0H11.5V-1.521c0-.727.366-1.087.826-1.087.516,0,.665.469.665.873V0h.434V-1.778c0-.645-.284-1.2-.981-1.2a1.051,1.051,0,0,0-.943.563v-.51H11.06Zm4.371.041A1.435,1.435,0,0,0,16.55-.416l-.3-.24a1.023,1.023,0,0,1-.823.313.867.867,0,0,1-.855-.973h2.039c.006-.053.015-.149.015-.226,0-.674-.293-1.427-1.242-1.427a1.35,1.35,0,0,0-1.271,1.521A1.327,1.327,0,0,0,15.431.041Zm-.858-1.714c.023-.5.275-.935.812-.935.6,0,.812.466.823.935ZM18.193.059A1.18,1.18,0,0,0,18.586,0V-.375a.7.7,0,0,1-.293.073c-.214,0-.372-.149-.372-.472v-1.8h.741v-.357h-.741V-4l-.434.41v.659h-.472v.357h.469V-.776C17.484-.275,17.675.059,18.193.059Zm1.972,0A1.18,1.18,0,0,0,20.558,0V-.375a.7.7,0,0,1-.293.073c-.214,0-.372-.149-.372-.472v-1.8h.741v-.357h-.741V-4l-.434.41v.659h-.472v.357h.469V-.776C19.456-.275,19.646.059,20.165.059Zm1.846,0a1.093,1.093,0,0,0,1.028-.624L23.048,0h.372V-1.8a1.078,1.078,0,0,0-1.146-1.192,1.3,1.3,0,0,0-1.1.574l.319.249a.963.963,0,0,1,.812-.442c.53,0,.718.384.718.935h-.668c-.832,0-1.289.272-1.289.858A.858.858,0,0,0,22.011.059Zm.05-.369c-.3,0-.548-.144-.548-.492,0-.39.3-.539.879-.539h.627A1.01,1.01,0,0,1,22.061-.311Z" transform="translate(90.949 321.435) rotate(-9.997)" fill="#ff6c39"/>
          <path id="Path_161394" data-name="Path 161394" d="M.524,0h.41V-2.569h1.1V0h.4V-2.927H.935c0-.483.135-.9.662-.9a.781.781,0,0,1,.606.284l.237-.3a1.085,1.085,0,0,0-.835-.36C.771-4.2.53-3.589.53-2.927H.094v.357H.524ZM4.509.041A1.435,1.435,0,0,0,5.628-.416l-.3-.24a1.023,1.023,0,0,1-.823.313.867.867,0,0,1-.855-.973H5.689c.006-.053.015-.149.015-.226,0-.674-.293-1.427-1.242-1.427A1.35,1.35,0,0,0,3.19-1.447,1.327,1.327,0,0,0,4.509.041ZM3.65-1.673c.023-.5.275-.935.812-.935.6,0,.812.466.823.935ZM6.457,0h.437V-1.521c0-.727.366-1.087.826-1.087.516,0,.665.469.665.873V0h.434V-1.778c0-.645-.284-1.2-.981-1.2a1.051,1.051,0,0,0-.943.563v-.51H6.457ZM9.709-3.577h.5V-4.14h-.5ZM9.741,0h.434V-2.927H9.741Zm2-.322c-.132,0-.144-.158-.144-.167V-4.14h-.442V-.592c0,.352.032.65.475.65a1.429,1.429,0,0,0,.4-.059V-.352A1.735,1.735,0,0,1,11.742-.322Zm2.033.363a1.435,1.435,0,0,0,1.119-.457l-.3-.24a1.023,1.023,0,0,1-.823.313.867.867,0,0,1-.855-.973h2.039c.006-.053.015-.149.015-.226,0-.674-.293-1.427-1.242-1.427a1.35,1.35,0,0,0-1.271,1.521A1.327,1.327,0,0,0,13.775.041Zm-.858-1.714c.023-.5.275-.935.812-.935.6,0,.812.466.823.935Z" transform="matrix(0.996, -0.087, 0.087, 0.996, 96.585, 306.481)" fill="#ff6c39"/>
          <path id="Path_161393" data-name="Path 161393" d="M1.544-.378C1.128-.437.762-.524.762-.826a.277.277,0,0,1,.126-.226,1.248,1.248,0,0,0,.551.123A1,1,0,0,0,2.52-1.937a1.057,1.057,0,0,0-.108-.475l.472-.372-.249-.311-.439.4a1.113,1.113,0,0,0-.756-.272,1.023,1.023,0,0,0-1.1,1.025.975.975,0,0,0,.246.668.6.6,0,0,0-.214.483.649.649,0,0,0,.372.6L.325.234A.772.772,0,0,0,.316.346c0,.557.5,1,1.263,1,.615,0,1.172-.287,1.172-.891C2.751-.211,2.139-.3,1.544-.378ZM1.433-2.622a.635.635,0,0,1,.647.671.614.614,0,0,1-.647.659.611.611,0,0,1-.645-.659A.64.64,0,0,1,1.433-2.622ZM1.614.955c-.568,0-.891-.3-.894-.6l.346-.422a2.969,2.969,0,0,0,.349.076c.5.085.946.1.946.475C2.361.8,2,.955,1.614.955ZM3.492,0h.431V-1.462c0-.706.3-1.107.8-1.107a.533.533,0,0,1,.357.111l.185-.378a.761.761,0,0,0-.472-.152.943.943,0,0,0-.864.58v-.519H3.492ZM6.721.059A1.439,1.439,0,0,0,8.115-1.471,1.43,1.43,0,0,0,6.721-2.988a1.417,1.417,0,0,0-1.38,1.518A1.425,1.425,0,0,0,6.721.059Zm0-.363c-.645,0-.943-.574-.943-1.166s.3-1.154.949-1.154.943.568.943,1.154S7.38-.3,6.724-.3ZM9.65.059A1.18,1.18,0,0,0,10.043,0V-.375A.7.7,0,0,1,9.75-.3c-.214,0-.372-.149-.372-.472v-1.8h.741v-.357H9.378V-4l-.434.41v.659H8.473v.357h.469V-.776C8.941-.275,9.132.059,9.65.059Zm1.972,0A1.18,1.18,0,0,0,12.015,0V-.375a.7.7,0,0,1-.293.073c-.214,0-.372-.149-.372-.472v-1.8h.741v-.357H11.35V-4l-.434.41v.659h-.472v.357h.469V-.776C10.913-.275,11.1.059,11.622.059Zm1.846,0A1.093,1.093,0,0,0,14.5-.565L14.5,0h.372V-1.8a1.078,1.078,0,0,0-1.146-1.192,1.3,1.3,0,0,0-1.1.574l.319.249a.963.963,0,0,1,.812-.442c.53,0,.718.384.718.935h-.668c-.832,0-1.289.272-1.289.858A.858.858,0,0,0,13.468.059Zm.05-.369c-.3,0-.548-.144-.548-.492,0-.39.3-.539.879-.539h.627A1.01,1.01,0,0,1,13.518-.311Z" transform="matrix(0.995, 0.104, -0.104, 0.995, 95.558, 291.732)" fill="#ff6c39"/>
          <path id="Path_161392" data-name="Path 161392" d="M.492,0H.935V-1.526c0-.53.261-1.09.747-1.09s.615.466.615.87V0h.445V-1.623c0-.48.261-.993.741-.993.507,0,.627.483.627.882V0h.442V-1.778c0-.65-.293-1.21-1.017-1.21a.971.971,0,0,0-.911.612.879.879,0,0,0-.894-.612.875.875,0,0,0-.8.516v-.454H.492Zm5.66.059A1.093,1.093,0,0,0,7.181-.565L7.189,0h.372V-1.8A1.078,1.078,0,0,0,6.416-2.988a1.3,1.3,0,0,0-1.1.574l.319.249a.963.963,0,0,1,.812-.442c.53,0,.718.384.718.935H6.492C5.66-1.673,5.2-1.4,5.2-.814A.858.858,0,0,0,6.152.059ZM6.2-.311c-.3,0-.548-.144-.548-.492,0-.39.3-.539.879-.539H7.16A1.01,1.01,0,0,1,6.2-.311ZM8.473,0H8.9V-1.462c0-.706.3-1.107.8-1.107a.533.533,0,0,1,.357.111l.185-.378a.761.761,0,0,0-.472-.152.943.943,0,0,0-.864.58v-.519H8.473Zm2.309-3.577h.5V-4.14h-.5ZM10.813,0h.434V-2.927h-.434Zm1.424,0h.437V-1.521c0-.727.366-1.087.826-1.087.516,0,.665.469.665.873V0H14.6V-1.778c0-.645-.284-1.2-.981-1.2a1.051,1.051,0,0,0-.943.563v-.51h-.437ZM16.2.059a1.093,1.093,0,0,0,1.028-.624L17.235,0h.372V-1.8a1.078,1.078,0,0,0-1.146-1.192,1.3,1.3,0,0,0-1.1.574l.319.249a.963.963,0,0,1,.812-.442c.53,0,.718.384.718.935h-.668c-.832,0-1.289.272-1.289.858A.858.858,0,0,0,16.2.059Zm.05-.369c-.3,0-.548-.144-.548-.492,0-.39.3-.539.879-.539h.627A1.01,1.01,0,0,1,16.248-.311Z" transform="matrix(0.982, 0.191, -0.191, 0.982, 93.854, 279.219)" fill="#ff6c39"/>
          <path id="Path_161391" data-name="Path 161391" d="M1.673.047A1.189,1.189,0,0,0,2.965-1.143c0-1.336-2-1.122-2-2.051A.623.623,0,0,1,1.635-3.8a.872.872,0,0,1,.806.478l.349-.234A1.26,1.26,0,0,0,1.641-4.2,1.055,1.055,0,0,0,.519-3.152c0,1.26,2,.976,2,2.045,0,.5-.343.741-.838.741a.922.922,0,0,1-1-.823l-.434.129A1.35,1.35,0,0,0,1.673.047ZM4.4.059A1.093,1.093,0,0,0,5.432-.565L5.44,0h.372V-1.8A1.078,1.078,0,0,0,4.667-2.988a1.3,1.3,0,0,0-1.1.574l.319.249a.963.963,0,0,1,.812-.442c.53,0,.718.384.718.935H4.743c-.832,0-1.289.272-1.289.858A.858.858,0,0,0,4.4.059Zm.05-.369c-.3,0-.548-.144-.548-.492,0-.39.3-.539.879-.539h.627A1.01,1.01,0,0,1,4.453-.311ZM7.3-.322c-.132,0-.144-.158-.144-.167V-4.14H6.715V-.592c0,.352.032.65.475.65A1.429,1.429,0,0,0,7.585,0V-.352A1.735,1.735,0,0,1,7.3-.322ZM9.056.059A1.18,1.18,0,0,0,9.448,0V-.375A.7.7,0,0,1,9.155-.3c-.214,0-.372-.149-.372-.472v-1.8h.741v-.357H8.783V-4l-.434.41v.659H7.878v.357h.469V-.776C8.347-.275,8.537.059,9.056.059Zm2.273,0a1.439,1.439,0,0,0,1.395-1.529,1.43,1.43,0,0,0-1.395-1.518,1.417,1.417,0,0,0-1.38,1.518A1.425,1.425,0,0,0,11.329.059Zm0-.363c-.645,0-.943-.574-.943-1.166s.3-1.154.949-1.154.943.568.943,1.154S11.988-.3,11.332-.3Zm5.6-3.835v1.611a1.048,1.048,0,0,0-.917-.46c-.747,0-1.172.686-1.172,1.523S15.267.059,16.017.059a1.041,1.041,0,0,0,.917-.466L16.942,0h.425V-4.14Zm-.8,3.829c-.586,0-.838-.557-.838-1.154s.252-1.154.838-1.154.838.563.838,1.154S16.726-.311,16.128-.311Zm3.325.352a1.435,1.435,0,0,0,1.119-.457l-.3-.24a1.023,1.023,0,0,1-.823.313.867.867,0,0,1-.855-.973h2.039c.006-.053.015-.149.015-.226,0-.674-.293-1.427-1.242-1.427a1.35,1.35,0,0,0-1.271,1.521A1.327,1.327,0,0,0,19.453.041Zm-.858-1.714c.023-.5.275-.935.812-.935.6,0,.812.466.823.935ZM21.979-.322c-.132,0-.144-.158-.144-.167V-4.14h-.442V-.592c0,.352.032.65.475.65a1.429,1.429,0,0,0,.4-.059V-.352A1.735,1.735,0,0,1,21.979-.322Zm1.518,0c-.132,0-.144-.158-.144-.167V-4.14H22.91V-.592c0,.352.032.65.475.65A1.429,1.429,0,0,0,23.78,0V-.352A1.735,1.735,0,0,1,23.5-.322Zm1.617.381a1.093,1.093,0,0,0,1.028-.624L26.15,0h.372V-1.8a1.078,1.078,0,0,0-1.146-1.192,1.3,1.3,0,0,0-1.1.574l.319.249a.963.963,0,0,1,.812-.442c.53,0,.718.384.718.935h-.668c-.832,0-1.289.272-1.289.858A.858.858,0,0,0,25.113.059Zm.05-.369c-.3,0-.548-.144-.548-.492,0-.39.3-.539.879-.539h.627A1.01,1.01,0,0,1,25.163-.311ZM30.75.059A1.4,1.4,0,0,0,32.1-.756L32.109,0H32.5V-2.095H31.11v.366h.946A1.273,1.273,0,0,1,30.75-.375c-.993,0-1.4-.8-1.4-1.726,0-.882.407-1.67,1.389-1.67A1.325,1.325,0,0,1,32-2.921l.425-.185a1.742,1.742,0,0,0-1.682-1.1,1.882,1.882,0,0,0-1.852,2.136C28.893-.917,29.476.059,30.75.059ZM33.445,0h.434V-1.579a.922.922,0,0,1,.873-.99c.5,0,.621.437.621.835V0h.442V-1.8c0-.624-.284-1.175-.984-1.175a1.142,1.142,0,0,0-.952.533V-4.14h-.434Zm3.261-3.577h.5V-4.14h-.5ZM36.738,0h.434V-2.927h-.434Zm2.476-.378c-.416-.059-.782-.146-.782-.448a.277.277,0,0,1,.126-.226,1.248,1.248,0,0,0,.551.123,1,1,0,0,0,1.081-1.008,1.057,1.057,0,0,0-.108-.475l.472-.372L40.3-3.094l-.439.4a1.113,1.113,0,0,0-.756-.272,1.023,1.023,0,0,0-1.1,1.025.975.975,0,0,0,.246.668.6.6,0,0,0-.214.483.649.649,0,0,0,.372.6L38,.234a.772.772,0,0,0-.009.111c0,.557.5,1,1.263,1,.615,0,1.172-.287,1.172-.891C40.421-.211,39.809-.3,39.214-.378ZM39.1-2.622a.635.635,0,0,1,.647.671.614.614,0,0,1-.647.659.611.611,0,0,1-.645-.659A.64.64,0,0,1,39.1-2.622ZM39.284.955c-.568,0-.891-.3-.894-.6l.346-.422a2.969,2.969,0,0,0,.349.076c.5.085.946.1.946.475C40.031.8,39.671.955,39.284.955ZM41.162,0H41.6V-1.521c0-.727.366-1.087.826-1.087.516,0,.665.469.665.873V0h.434V-1.778c0-.645-.284-1.2-.981-1.2a1.051,1.051,0,0,0-.943.563v-.51h-.437Zm3.961.059a1.093,1.093,0,0,0,1.028-.624L46.16,0h.372V-1.8a1.078,1.078,0,0,0-1.146-1.192,1.3,1.3,0,0,0-1.1.574l.319.249a.963.963,0,0,1,.812-.442c.53,0,.718.384.718.935h-.668c-.832,0-1.289.272-1.289.858A.858.858,0,0,0,45.123.059Zm.05-.369c-.3,0-.548-.144-.548-.492,0-.39.3-.539.879-.539h.627A1.01,1.01,0,0,1,45.173-.311Z" transform="translate(67.621 257.224) rotate(15.997)" fill="#00c19c"/>
          <path id="Path_161390" data-name="Path 161390" d="M.621,0h.463V-1.869h.7c.8,0,1.324-.4,1.324-1.128,0-.712-.521-1.143-1.324-1.143H.621Zm.463-2.282V-3.727h.7c.554,0,.867.27.867.729,0,.478-.313.715-.867.715ZM3.771,0H4.2V-1.462c0-.706.3-1.107.8-1.107a.533.533,0,0,1,.357.111l.185-.378a.761.761,0,0,0-.472-.152.943.943,0,0,0-.864.58v-.519H3.771ZM6.788.059A1.093,1.093,0,0,0,7.816-.565L7.825,0H8.2V-1.8A1.078,1.078,0,0,0,7.052-2.988a1.3,1.3,0,0,0-1.1.574l.319.249a.963.963,0,0,1,.812-.442c.53,0,.718.384.718.935H7.128c-.832,0-1.289.272-1.289.858A.858.858,0,0,0,6.788.059Zm.05-.369c-.3,0-.548-.144-.548-.492,0-.39.3-.539.879-.539H7.8A1.01,1.01,0,0,1,6.838-.311ZM9.917.059A1.18,1.18,0,0,0,10.31,0V-.375a.7.7,0,0,1-.293.073c-.214,0-.372-.149-.372-.472v-1.8h.741v-.357H9.645V-4l-.434.41v.659H8.739v.357h.469V-.776C9.208-.275,9.4.059,9.917.059Zm2.273,0a1.439,1.439,0,0,0,1.395-1.529A1.43,1.43,0,0,0,12.19-2.988a1.417,1.417,0,0,0-1.38,1.518A1.425,1.425,0,0,0,12.19.059Zm0-.363c-.645,0-.943-.574-.943-1.166s.3-1.154.949-1.154.943.568.943,1.154S12.85-.3,12.193-.3Zm5.6-3.835v1.611a1.048,1.048,0,0,0-.917-.46c-.747,0-1.172.686-1.172,1.523S16.128.059,16.878.059a1.041,1.041,0,0,0,.917-.466L17.8,0h.425V-4.14Zm-.8,3.829c-.586,0-.838-.557-.838-1.154s.252-1.154.838-1.154.838.563.838,1.154S17.587-.311,16.989-.311Zm3.325.352a1.435,1.435,0,0,0,1.119-.457l-.3-.24a1.023,1.023,0,0,1-.823.313.867.867,0,0,1-.855-.973H21.5c.006-.053.015-.149.015-.226,0-.674-.293-1.427-1.242-1.427A1.35,1.35,0,0,0,19-1.447,1.327,1.327,0,0,0,20.314.041Zm-.858-1.714c.023-.5.275-.935.812-.935.6,0,.812.466.823.935ZM22.84-.322c-.132,0-.144-.158-.144-.167V-4.14h-.442V-.592c0,.352.032.65.475.65a1.429,1.429,0,0,0,.4-.059V-.352A1.735,1.735,0,0,1,22.84-.322Zm1.518,0c-.132,0-.144-.158-.144-.167V-4.14h-.442V-.592c0,.352.032.65.475.65a1.429,1.429,0,0,0,.4-.059V-.352A1.735,1.735,0,0,1,24.357-.322Zm2.033.363A1.435,1.435,0,0,0,27.51-.416l-.3-.24a1.023,1.023,0,0,1-.823.313.867.867,0,0,1-.855-.973h2.039c.006-.053.015-.149.015-.226,0-.674-.293-1.427-1.242-1.427a1.35,1.35,0,0,0-1.271,1.521A1.327,1.327,0,0,0,26.391.041Zm-.858-1.714c.023-.5.275-.935.812-.935.6,0,.812.466.823.935ZM30.053,0h.463V-3.738L31.758-.36h.51l1.245-3.378V0h.46V-4.14h-.756L32-.814l-1.2-3.325h-.756ZM36.22.059a1.439,1.439,0,0,0,1.395-1.529A1.43,1.43,0,0,0,36.22-2.988a1.417,1.417,0,0,0-1.38,1.518A1.425,1.425,0,0,0,36.22.059Zm0-.363c-.645,0-.943-.574-.943-1.166s.3-1.154.949-1.154.943.568.943,1.154S36.879-.3,36.223-.3Zm2.136.3h.437V-1.521c0-.727.366-1.087.826-1.087.516,0,.665.469.665.873V0h.434V-1.778c0-.645-.284-1.2-.981-1.2a1.051,1.051,0,0,0-.943.563v-.51h-.437Zm3.961.059a1.093,1.093,0,0,0,1.028-.624L43.356,0h.372V-1.8a1.078,1.078,0,0,0-1.146-1.192,1.3,1.3,0,0,0-1.1.574l.319.249a.963.963,0,0,1,.812-.442c.53,0,.718.384.718.935h-.668c-.832,0-1.289.272-1.289.858A.858.858,0,0,0,42.319.059Zm.05-.369c-.3,0-.548-.144-.548-.492,0-.39.3-.539.879-.539h.627A1.01,1.01,0,0,1,42.369-.311Zm3.319.369a1.116,1.116,0,0,0,1.1-.776l-.381-.164a.734.734,0,0,1-.727.571c-.612,0-.817-.612-.817-1.148s.211-1.16.817-1.16a.741.741,0,0,1,.727.586l.413-.176a1.2,1.2,0,0,0-1.14-.779c-.844,0-1.266.744-1.266,1.529A1.346,1.346,0,0,0,45.688.059ZM47.5,0h.434V-1.579a.922.922,0,0,1,.873-.99c.5,0,.621.437.621.835V0h.442V-1.8c0-.624-.284-1.175-.984-1.175a1.142,1.142,0,0,0-.952.533V-4.14H47.5Zm4.38.041A1.435,1.435,0,0,0,53-.416l-.3-.24a1.023,1.023,0,0,1-.823.313.867.867,0,0,1-.855-.973H53.06c.006-.053.015-.149.015-.226,0-.674-.293-1.427-1.242-1.427a1.35,1.35,0,0,0-1.271,1.521A1.327,1.327,0,0,0,51.879.041Zm-.858-1.714c.023-.5.275-.935.812-.935.6,0,.812.466.823.935Z" transform="matrix(0.927, 0.374, -0.374, 0.927, 67.368, 238.412)" fill="#00c19c"/>
          <path id="Path_157381" data-name="Path 157381" d="M154.358,316.913a69.167,69.167,0,0,0,135.995-17.825,70.007,70.007,0,0,0-.357-7.071" fill="none" stroke="orange" stroke-miterlimit="10" stroke-width="0.75"/>
          <circle id="Ellipse_33827" data-name="Ellipse 33827" cx="0.8" cy="0.8" r="0.8" transform="translate(289.553 291.217)" fill="#00c19c" stroke="#fff" stroke-miterlimit="10" stroke-width="0.39"/>
          <circle id="Ellipse_33828" data-name="Ellipse 33828" cx="0.8" cy="0.8" r="0.8" transform="translate(274.792 340.535)" fill="#00c19c" stroke="#fff" stroke-miterlimit="10" stroke-width="0.39"/>
          <circle id="Ellipse_33829" data-name="Ellipse 33829" cx="0.8" cy="0.8" r="0.8" transform="translate(284.945 322.735)" fill="#00c19c" stroke="#fff" stroke-miterlimit="10" stroke-width="0.39"/>
          <circle id="Ellipse_33830" data-name="Ellipse 33830" cx="0.8" cy="0.8" r="0.8" transform="translate(153.558 316.113)" fill="#00c19c" stroke="#fff" stroke-miterlimit="10" stroke-width="0.39"/>
        </g>
        <g id="Group_24059" data-name="Group 24059" transform="translate(20)">
          <path id="Path_161559" data-name="Path 161559" d="M.405,0H4.351l.21-.923H1.611L2.988-6.9H2ZM6.65-5.884H7.686L7.915-6.9H6.885ZM5.332,0h.947L7.4-4.878H6.45ZM9.023,0h.8l3.022-4.878H11.812L9.683-1.226l-.42-3.652H8.247ZM14.36.059A3.013,3.013,0,0,0,16.44-.7l-.562-.61a2.013,2.013,0,0,1-1.45.508c-.806,0-1.094-.537-.952-1.279h3.389c.024-.063.063-.186.073-.225.313-1.313.088-2.632-1.636-2.632A2.92,2.92,0,0,0,12.583-2.5C12.266-1.113,12.788.059,14.36.059ZM13.647-2.8a1.734,1.734,0,0,1,1.587-1.323c.806,0,1.069.459.918,1.323ZM18.467.1A3.845,3.845,0,0,0,19.2.01l.127-.8a2.593,2.593,0,0,1-.386.063c-.215,0-.3-.073-.249-.3L20.054-6.9h-.947L17.749-1.021C17.583-.3,17.764.1,18.467.1Zm2.656,0A3.845,3.845,0,0,0,21.86.01l.127-.8a2.593,2.593,0,0,1-.386.063c-.215,0-.3-.073-.249-.3L22.71-6.9h-.947L20.405-1.021C20.239-.3,20.42.1,21.123.1ZM24.17-5.884h1.035L25.435-6.9H24.4ZM22.852,0H23.8l1.118-4.878H23.97Zm6.768.1a1.858,1.858,0,0,0,1.992-1.685c0-1.543-2.134-1.035-2.134-1.953,0-.42.366-.659.864-.659a.888.888,0,0,1,.933.6l.791-.327a1.682,1.682,0,0,0-1.689-1.025,1.609,1.609,0,0,0-1.807,1.514c0,1.519,2.1.952,2.1,1.9a.924.924,0,0,1-1.021.82.929.929,0,0,1-1.006-.8l-.82.283A1.669,1.669,0,0,0,29.619.1ZM31.89,2.139h.952L33.5-.62A1.393,1.393,0,0,0,34.834.1a2.843,2.843,0,0,0,2.534-2.451c.322-1.421-.146-2.627-1.494-2.627a2.1,2.1,0,0,0-1.553.649l.122-.547h-.937Zm2.769-2.9c-.859,0-1.064-.728-.859-1.6.215-.952.835-1.782,1.763-1.782.889,0,1.084.747.884,1.606C36.226-1.567,35.61-.757,34.658-.757Zm7.554-4.121-.156.615a1.4,1.4,0,0,0-1.343-.718,2.847,2.847,0,0,0-2.524,2.451C37.866-1.1,38.34.1,39.678.1A2.116,2.116,0,0,0,41.24-.552L41.152,0h.894l1.123-4.878Zm-.464,2.349c-.215.967-.811,1.758-1.758,1.758-.869,0-1.074-.713-.869-1.582a1.973,1.973,0,0,1,1.763-1.763C41.768-4.116,41.948-3.389,41.748-2.529ZM48.3-4.878H44.385l-.176.786h2.715L43.267-.664,43.125,0h4.058l.181-.8H44.585L48.149-4.16Zm1.333-1.006h1.035L50.9-6.9h-1.03ZM48.315,0h.947l1.118-4.878h-.947Zm6.709-4.878-.156.615a1.4,1.4,0,0,0-1.343-.718A2.847,2.847,0,0,0,51-2.529C50.679-1.1,51.152.1,52.49.1a2.116,2.116,0,0,0,1.563-.649L53.965,0h.894l1.123-4.878Zm-.464,2.349c-.215.967-.811,1.758-1.758,1.758-.869,0-1.074-.713-.869-1.582A1.973,1.973,0,0,1,53.7-4.116C54.58-4.116,54.761-3.389,54.561-2.529ZM57.339.1A3.845,3.845,0,0,0,58.076.01l.127-.8a2.593,2.593,0,0,1-.386.063c-.215,0-.3-.073-.249-.3L58.926-6.9h-.947L56.621-1.021C56.455-.3,56.636.1,57.339.1Zm3.047-5.981h1.035L61.65-6.9H60.62ZM59.067,0h.947l1.118-4.878h-.947ZM62.69-3.555H63.8l.259-1.1H62.944ZM61.875,0h1.118l.254-1.108H62.129Zm6.611.1A3.845,3.845,0,0,0,69.224.01l.127-.8a2.593,2.593,0,0,1-.386.063c-.215,0-.3-.073-.249-.3L70.073-6.9h-.947L67.769-1.021C67.6-.3,67.783.1,68.486.1Zm3.33.015a2.223,2.223,0,0,0,1.611-.781L73.276,0h.933l1.123-4.878H74.38L73.8-2.339A1.877,1.877,0,0,1,72.065-.752c-.747,0-.762-.581-.615-1.216l.669-2.91h-.957l-.654,2.837C70.259-.942,70.542.112,71.816.112ZM77.725.1a3.084,3.084,0,0,0,2.9-2.427,1.921,1.921,0,0,0-1.86-2.612,3.078,3.078,0,0,0-2.9,2.432A1.916,1.916,0,0,0,77.725.1ZM77.8-.728c-.967,0-1.152-.757-.957-1.6a2.014,2.014,0,0,1,1.851-1.787c.977,0,1.157.762.962,1.606A2.01,2.01,0,0,1,77.8-.728Zm7.441.767,1.138-4.917h-.952l-.156.615a1.414,1.414,0,0,0-1.323-.718,2.824,2.824,0,0,0-2.534,2.422c-.322,1.4.146,2.6,1.509,2.6A2.109,2.109,0,0,0,84.458-.61l-.146.571A1.589,1.589,0,0,1,82.734,1.3,1.072,1.072,0,0,1,81.611.635l-.806.454a1.851,1.851,0,0,0,1.846,1.04A2.505,2.505,0,0,0,85.239.039ZM83.218-.815c-.879,0-1.079-.728-.879-1.562a1.972,1.972,0,0,1,1.768-1.753c.879,0,1.055.742.864,1.572C84.756-1.626,84.16-.815,83.218-.815ZM86.807,0h.952l.6-2.627a1.975,1.975,0,0,1,1.748-1.45c.7,0,.718.562.571,1.2L90.015,0h.962l.674-2.93c.239-1.03-.059-2.031-1.3-2.031a2.27,2.27,0,0,0-1.636.737L89.346-6.9H88.4ZM93.7-5.884h1.035L94.961-6.9h-1.03ZM92.378,0h.947l1.118-4.878H93.5Zm7.051.1a2.515,2.515,0,0,0,2.192-1.323l-.767-.425A1.552,1.552,0,0,1,99.5-.757c-.9,0-1.016-.811-.835-1.582.2-.859.771-1.763,1.729-1.763a.782.782,0,0,1,.864.806l.942-.278a1.657,1.657,0,0,0-1.729-1.387A2.931,2.931,0,0,0,97.739-2.52C97.427-1.162,97.91.1,99.429.1Zm4.907,0a3.084,3.084,0,0,0,2.9-2.427,1.921,1.921,0,0,0-1.86-2.612,3.078,3.078,0,0,0-2.9,2.432A1.916,1.916,0,0,0,104.336.1Zm.073-.825c-.967,0-1.152-.757-.957-1.6A2.014,2.014,0,0,1,105.3-4.116c.977,0,1.157.762.962,1.606A2.01,2.01,0,0,1,104.409-.728ZM107.817,0h.952l.62-2.686a1.931,1.931,0,0,1,1.719-1.387c.708,0,.728.557.581,1.191L111.025,0h.957l.669-2.905c.244-1.055-.049-2.056-1.323-2.056a2.208,2.208,0,0,0-1.6.723l.161-.64h-.957Zm7.139.1a2.463,2.463,0,0,0,.752-.107l.142-.869a1.63,1.63,0,0,1-.649.166c-.3,0-.518-.156-.4-.659l.635-2.72h1.255l.181-.786h-1.26l.439-1.914-1.094.762L114.7-4.878h-.791l-.181.786h.781l-.63,2.729C113.677-.5,114.019.1,114.956.1Zm3.833-.039a3.013,3.013,0,0,0,2.08-.762l-.562-.61a2.013,2.013,0,0,1-1.45.508c-.806,0-1.094-.537-.952-1.279h3.389c.024-.063.063-.186.073-.225.313-1.313.088-2.632-1.636-2.632a2.92,2.92,0,0,0-2.72,2.441C116.694-1.113,117.217.059,118.789.059ZM118.076-2.8a1.734,1.734,0,0,1,1.587-1.323c.806,0,1.069.459.918,1.323ZM121.968,0h.952l.62-2.686a1.931,1.931,0,0,1,1.719-1.387c.708,0,.728.557.581,1.191L125.176,0h.957l.669-2.905c.244-1.055-.049-2.056-1.323-2.056a2.208,2.208,0,0,0-1.6.723l.161-.64h-.957ZM129.1.112a2.223,2.223,0,0,0,1.611-.781L130.562,0h.933l1.123-4.878h-.952l-.581,2.539a1.877,1.877,0,0,1-1.733,1.587c-.747,0-.762-.581-.615-1.216l.669-2.91h-.957l-.654,2.837C127.544-.942,127.827.112,129.1.112ZM134.6.1a2.463,2.463,0,0,0,.752-.107l.142-.869a1.63,1.63,0,0,1-.649.166c-.3,0-.518-.156-.4-.659l.635-2.72h1.255l.181-.786h-1.26l.439-1.914L134.6-6.03l-.254,1.152h-.791l-.181.786h.781l-.63,2.729C133.325-.5,133.667.1,134.6.1Zm3.252-5.981h1.035l.229-1.016h-1.03ZM136.538,0h.947L138.6-4.878h-.947Zm6.5-5.884h1.035l.229-1.016h-1.03ZM141.724,0h.947l1.118-4.878h-.947Zm2.485,0h.952l.62-2.686A1.931,1.931,0,0,1,147.5-4.072c.708,0,.728.557.581,1.191L147.417,0h.957l.669-2.905c.244-1.055-.049-2.056-1.323-2.056a2.208,2.208,0,0,0-1.6.723l.161-.64h-.957Zm12.5-4.878-.156.615a1.4,1.4,0,0,0-1.343-.718,2.847,2.847,0,0,0-2.524,2.451C152.358-1.1,152.832.1,154.17.1a2.116,2.116,0,0,0,1.563-.649L155.645,0h.894l1.123-4.878Zm-.464,2.349c-.215.967-.811,1.758-1.758,1.758-.869,0-1.074-.713-.869-1.582a1.973,1.973,0,0,1,1.763-1.763C156.26-4.116,156.44-3.389,156.24-2.529ZM159.019.1a3.845,3.845,0,0,0,.737-.088l.127-.8a2.593,2.593,0,0,1-.386.063c-.215,0-.3-.073-.249-.3L160.605-6.9h-.947L158.3-1.021C158.135-.3,158.315.1,159.019.1Zm3.3,0a2.463,2.463,0,0,0,.752-.107l.142-.869a1.63,1.63,0,0,1-.649.166c-.3,0-.518-.156-.4-.659l.635-2.72h1.255l.181-.786h-1.26l.439-1.914-1.094.762-.254,1.152h-.791l-.181.786h.781l-.63,2.729C161.035-.5,161.377.1,162.314.1ZM164.16,0h.928l.518-2.246c.244-1.05.889-1.821,1.636-1.821a1.119,1.119,0,0,1,.591.171l.522-.757a1.4,1.4,0,0,0-.9-.3,1.7,1.7,0,0,0-1.426.879l.171-.806h-.923Zm5.264-5.884h1.035l.229-1.016h-1.03ZM168.105,0h.947l1.118-4.878h-.947Zm6.113.1a3.845,3.845,0,0,0,.737-.088l.127-.8a2.593,2.593,0,0,1-.386.063c-.215,0-.3-.073-.249-.3L175.806-6.9h-.947L173.5-1.021C173.335-.3,173.516.1,174.219.1Zm3.33.015a2.223,2.223,0,0,0,1.611-.781L179.009,0h.933l1.123-4.878h-.952l-.581,2.539A1.877,1.877,0,0,1,177.8-.752c-.747,0-.762-.581-.615-1.216l.669-2.91h-.957l-.654,2.837C175.991-.942,176.274.112,177.549.112ZM183.457.1a3.084,3.084,0,0,0,2.9-2.427,1.921,1.921,0,0,0-1.86-2.612,3.078,3.078,0,0,0-2.9,2.432A1.916,1.916,0,0,0,183.457.1Zm.073-.825c-.967,0-1.152-.757-.957-1.6a2.014,2.014,0,0,1,1.851-1.787c.977,0,1.157.762.962,1.606A2.01,2.01,0,0,1,183.53-.728Zm7.441.767,1.138-4.917h-.952L191-4.263a1.414,1.414,0,0,0-1.323-.718,2.824,2.824,0,0,0-2.534,2.422c-.322,1.4.146,2.6,1.509,2.6A2.109,2.109,0,0,0,190.19-.61l-.146.571A1.589,1.589,0,0,1,188.467,1.3a1.072,1.072,0,0,1-1.123-.669l-.806.454a1.851,1.851,0,0,0,1.846,1.04A2.505,2.505,0,0,0,190.972.039ZM188.95-.815c-.879,0-1.079-.728-.879-1.562a1.972,1.972,0,0,1,1.768-1.753c.879,0,1.055.742.864,1.572C190.488-1.626,189.893-.815,188.95-.815ZM192.539,0h.952l.6-2.627a1.975,1.975,0,0,1,1.748-1.45c.7,0,.718.562.571,1.2L195.747,0h.962l.674-2.93c.239-1.03-.059-2.031-1.3-2.031a2.27,2.27,0,0,0-1.636.737l.635-2.676h-.947Zm6.89-5.884h1.035l.229-1.016h-1.03ZM198.11,0h.947l1.118-4.878h-.947Z" transform="translate(113.959 182.45)" fill="#1d1d1b"/>
        </g>
        <path id="Path_157382" data-name="Path 157382" d="M216.2,35.137V40.08h0a42.416,42.416,0,1,1-25.164,8.268A42.46,42.46,0,0,1,216.2,40.08V35.137m0,0a47.184,47.184,0,1,0,13.391,1.887A47.369,47.369,0,0,0,216.2,35.137Z" transform="translate(20)" fill="orange"/>
        <path id="Path_161377" data-name="Path 161377" d="M.932,0h.7V-6.209h-.7Zm3.23-.483c-.2,0-.215-.237-.215-.25V-6.209H3.283V-.888c0,.527.048.976.712.976A2.143,2.143,0,0,0,4.588,0V-.527A2.6,2.6,0,0,1,4.162-.483ZM9.009,0h.58l1.635-4.39h-.7L9.3-.853,8.086-4.39H7.37Zm3.072-5.366h.747v-.844h-.747ZM12.129,0h.65V-4.39h-.65Zm3.353.088a1.369,1.369,0,0,0,1.507-1.34c0-1.613-2.369-1.081-2.369-2.092,0-.36.294-.606.769-.606a1.035,1.035,0,0,1,.98.62l.483-.277a1.56,1.56,0,0,0-1.441-.875,1.253,1.253,0,0,0-1.393,1.217c0,1.49,2.333.91,2.333,2.092,0,.475-.365.725-.861.725A1.114,1.114,0,0,1,14.4-1.283L13.843-1A1.7,1.7,0,0,0,15.482.088Zm4.135,0A1.675,1.675,0,0,0,21.27-1.077L20.7-1.323a1.1,1.1,0,0,1-1.09.857c-.918,0-1.226-.918-1.226-1.723s.316-1.74,1.226-1.74a1.111,1.111,0,0,1,1.09.879l.62-.264a1.8,1.8,0,0,0-1.709-1.169c-1.266,0-1.9,1.116-1.9,2.294A2.019,2.019,0,0,0,19.617.088Zm4.373,0a2.158,2.158,0,0,0,2.092-2.294A2.145,2.145,0,0,0,23.99-4.482a2.125,2.125,0,0,0-2.07,2.276A2.138,2.138,0,0,0,23.99.088Zm0-.545c-.967,0-1.415-.861-1.415-1.749S23.027-3.937,24-3.937s1.415.853,1.415,1.731S24.979-.457,23.994-.457ZM27.2,0h.655V-2.281c0-1.09.549-1.63,1.239-1.63.773,0,1,.7,1,1.31V0h.65V-2.667c0-.967-.426-1.8-1.472-1.8a1.576,1.576,0,0,0-1.415.844V-4.39H27.2Zm6.139.088A1.77,1.77,0,0,0,33.926,0V-.562a1.047,1.047,0,0,1-.439.11c-.321,0-.558-.224-.558-.708V-3.854H34.04V-4.39H32.928v-1.6l-.65.615v.989H31.57v.536h.7v2.689C32.273-.413,32.559.088,33.337.088Zm3.34-.026a2.153,2.153,0,0,0,1.679-.686l-.448-.36a1.534,1.534,0,0,1-1.235.47,1.3,1.3,0,0,1-1.283-1.459h3.059c.009-.079.022-.224.022-.338,0-1.011-.439-2.14-1.863-2.14A2.024,2.024,0,0,0,34.7-2.171,1.99,1.99,0,0,0,36.677.062ZM35.389-2.509c.035-.747.413-1.4,1.217-1.4.9,0,1.217.7,1.235,1.4Zm9.4-3.7v2.417a1.572,1.572,0,0,0-1.375-.69C42.3-4.482,41.66-3.454,41.66-2.2S42.3.088,43.422.088a1.561,1.561,0,0,0,1.375-.7L44.811,0h.637V-6.209Zm-1.2,5.744c-.879,0-1.257-.835-1.257-1.731s.378-1.731,1.257-1.731c.9,0,1.257.844,1.257,1.731S44.486-.466,43.589-.466Zm3.309-4.9h.747v-.844H46.9ZM46.947,0h.65V-4.39h-.65Zm2.136,0h.664V-2.29c0-.8.391-1.635,1.121-1.635.751,0,.923.7.923,1.305V0h.668V-2.435c0-.721.391-1.49,1.112-1.49.76,0,.94.725.94,1.323V0h.664V-2.667c0-.976-.439-1.815-1.525-1.815a1.456,1.456,0,0,0-1.367.918,1.318,1.318,0,0,0-1.34-.918,1.313,1.313,0,0,0-1.2.773V-4.39h-.664Zm9.105.062a2.153,2.153,0,0,0,1.679-.686l-.448-.36a1.534,1.534,0,0,1-1.235.47A1.3,1.3,0,0,1,56.9-1.973h3.059c.009-.079.022-.224.022-.338,0-1.011-.439-2.14-1.863-2.14A2.024,2.024,0,0,0,56.21-2.171,1.99,1.99,0,0,0,58.188.062ZM56.9-2.509c.035-.747.413-1.4,1.217-1.4.9,0,1.217.7,1.235,1.4ZM64.116-4.39H60.79v.536h2.558L60.662-.5V0h3.454V-.562H61.479L64.116-3.85Zm4.1,0H64.885v.536h2.558L64.758-.5V0h3.454V-.562H65.575L68.212-3.85ZM70.326.088a1.639,1.639,0,0,0,1.542-.936L71.881,0h.558V-2.694a1.617,1.617,0,0,0-1.718-1.789,1.948,1.948,0,0,0-1.657.861l.479.374a1.445,1.445,0,0,1,1.217-.664c.8,0,1.077.576,1.077,1.4h-1c-1.248,0-1.934.409-1.934,1.288A1.287,1.287,0,0,0,70.326.088ZM70.4-.466c-.457,0-.822-.215-.822-.738,0-.584.448-.809,1.318-.809h.94A1.515,1.515,0,0,1,70.4-.466Zm4.619.554A1.77,1.77,0,0,0,75.608,0V-.562a1.047,1.047,0,0,1-.439.11c-.321,0-.558-.224-.558-.708V-3.854h1.112V-4.39H74.61v-1.6l-.65.615v.989h-.708v.536h.7v2.689C73.956-.413,74.241.088,75.019.088Zm3.41,0a2.158,2.158,0,0,0,2.092-2.294,2.145,2.145,0,0,0-2.092-2.276,2.125,2.125,0,0,0-2.07,2.276A2.138,2.138,0,0,0,78.429.088Zm0-.545c-.967,0-1.415-.861-1.415-1.749s.448-1.731,1.424-1.731,1.415.853,1.415,1.731S79.418-.457,78.434-.457Z" transform="translate(196.043 86.187)" fill="#1d1d1b"/>
      </g>
      <g id="Isolation_Mode" data-name="Isolation Mode" transform="translate(20)">
        <path id="Path_161558" data-name="Path 161558" d="M.932,0h.7V-6.209h-.7Zm3.23-.483c-.2,0-.215-.237-.215-.25V-6.209H3.283V-.888c0,.527.048.976.712.976A2.143,2.143,0,0,0,4.588,0V-.527A2.6,2.6,0,0,1,4.162-.483ZM9.009,0h.58l1.635-4.39h-.7L9.3-.853,8.086-4.39H7.37Zm3.072-5.366h.747v-.844h-.747ZM12.129,0h.65V-4.39h-.65Zm3.353.088a1.369,1.369,0,0,0,1.507-1.34c0-1.613-2.369-1.081-2.369-2.092,0-.36.294-.606.769-.606a1.035,1.035,0,0,1,.98.62l.483-.277a1.56,1.56,0,0,0-1.441-.875,1.253,1.253,0,0,0-1.393,1.217c0,1.49,2.333.91,2.333,2.092,0,.475-.365.725-.861.725A1.114,1.114,0,0,1,14.4-1.283L13.843-1A1.7,1.7,0,0,0,15.482.088Zm4.135,0A1.675,1.675,0,0,0,21.27-1.077L20.7-1.323a1.1,1.1,0,0,1-1.09.857c-.918,0-1.226-.918-1.226-1.723s.316-1.74,1.226-1.74a1.111,1.111,0,0,1,1.09.879l.62-.264a1.8,1.8,0,0,0-1.709-1.169c-1.266,0-1.9,1.116-1.9,2.294A2.019,2.019,0,0,0,19.617.088Zm4.373,0a2.158,2.158,0,0,0,2.092-2.294A2.145,2.145,0,0,0,23.99-4.482a2.125,2.125,0,0,0-2.07,2.276A2.138,2.138,0,0,0,23.99.088Zm0-.545c-.967,0-1.415-.861-1.415-1.749S23.027-3.937,24-3.937s1.415.853,1.415,1.731S24.979-.457,23.994-.457ZM27.2,0h.655V-2.281c0-1.09.549-1.63,1.239-1.63.773,0,1,.7,1,1.31V0h.65V-2.667c0-.967-.426-1.8-1.472-1.8a1.576,1.576,0,0,0-1.415.844V-4.39H27.2Zm6.139.088A1.77,1.77,0,0,0,33.926,0V-.562a1.047,1.047,0,0,1-.439.11c-.321,0-.558-.224-.558-.708V-3.854H34.04V-4.39H32.928v-1.6l-.65.615v.989H31.57v.536h.7v2.689C32.273-.413,32.559.088,33.337.088Zm3.34-.026a2.153,2.153,0,0,0,1.679-.686l-.448-.36a1.534,1.534,0,0,1-1.235.47,1.3,1.3,0,0,1-1.283-1.459h3.059c.009-.079.022-.224.022-.338,0-1.011-.439-2.14-1.863-2.14A2.024,2.024,0,0,0,34.7-2.171,1.99,1.99,0,0,0,36.677.062ZM35.389-2.509c.035-.747.413-1.4,1.217-1.4.9,0,1.217.7,1.235,1.4Zm9.4-3.7v2.417a1.572,1.572,0,0,0-1.375-.69C42.3-4.482,41.66-3.454,41.66-2.2S42.3.088,43.422.088a1.561,1.561,0,0,0,1.375-.7L44.811,0h.637V-6.209Zm-1.2,5.744c-.879,0-1.257-.835-1.257-1.731s.378-1.731,1.257-1.731c.9,0,1.257.844,1.257,1.731S44.486-.466,43.589-.466Zm3.309-4.9h.747v-.844H46.9ZM46.947,0h.65V-4.39h-.65Zm2.136,0h.664V-2.29c0-.8.391-1.635,1.121-1.635.751,0,.923.7.923,1.305V0h.668V-2.435c0-.721.391-1.49,1.112-1.49.76,0,.94.725.94,1.323V0h.664V-2.667c0-.976-.439-1.815-1.525-1.815a1.456,1.456,0,0,0-1.367.918,1.318,1.318,0,0,0-1.34-.918,1.313,1.313,0,0,0-1.2.773V-4.39h-.664Zm9.105.062a2.153,2.153,0,0,0,1.679-.686l-.448-.36a1.534,1.534,0,0,1-1.235.47A1.3,1.3,0,0,1,56.9-1.973h3.059c.009-.079.022-.224.022-.338,0-1.011-.439-2.14-1.863-2.14A2.024,2.024,0,0,0,56.21-2.171,1.99,1.99,0,0,0,58.188.062ZM56.9-2.509c.035-.747.413-1.4,1.217-1.4.9,0,1.217.7,1.235,1.4ZM64.116-4.39H60.79v.536h2.558L60.662-.5V0h3.454V-.562H61.479L64.116-3.85Zm4.1,0H64.885v.536h2.558L64.758-.5V0h3.454V-.562H65.575L68.212-3.85ZM70.326.088a1.639,1.639,0,0,0,1.542-.936L71.881,0h.558V-2.694a1.617,1.617,0,0,0-1.718-1.789,1.948,1.948,0,0,0-1.657.861l.479.374a1.445,1.445,0,0,1,1.217-.664c.8,0,1.077.576,1.077,1.4h-1c-1.248,0-1.934.409-1.934,1.288A1.287,1.287,0,0,0,70.326.088ZM70.4-.466c-.457,0-.822-.215-.822-.738,0-.584.448-.809,1.318-.809h.94A1.515,1.515,0,0,1,70.4-.466Zm4.619.554A1.77,1.77,0,0,0,75.608,0V-.562a1.047,1.047,0,0,1-.439.11c-.321,0-.558-.224-.558-.708V-3.854h1.112V-4.39H74.61v-1.6l-.65.615v.989h-.708v.536h.7v2.689C73.956-.413,74.241.088,75.019.088Zm3.41,0a2.158,2.158,0,0,0,2.092-2.294,2.145,2.145,0,0,0-2.092-2.276,2.125,2.125,0,0,0-2.07,2.276A2.138,2.138,0,0,0,78.429.088Zm0-.545c-.967,0-1.415-.861-1.415-1.749s.448-1.731,1.424-1.731,1.415.853,1.415,1.731S79.418-.457,78.434-.457Z" transform="translate(178.402 302.535)" fill="#1d1d1b"/>
      </g>
    </g>
    <g id="Group_4719" data-name="Group 4719">
      <text id="TIPO_DI_LUOGO" data-name="TIPO DI LUOGO" transform="translate(22.067 9)" fill="#404040" font-size="10" font-family="HKGrotesk-Bold, HK Grotesk" font-weight="700" style="isolation: isolate"><tspan x="0" y="0">TIPO DI LUOGO</tspan></text>
      <path id="Rectangle_13372" data-name="Rectangle 13372" d="M26,22H37a4.951,4.951,0,0,1,5,5h0a4.951,4.951,0,0,1-5,5H26a4.951,4.951,0,0,1-5-5h0A4.951,4.951,0,0,1,26,22Z" fill="#ff6c39"/>
      <path id="Rectangle_13373" data-name="Rectangle 13373" d="M26,62H37a4.951,4.951,0,0,1,5,5h0a4.951,4.951,0,0,1-5,5H26a4.951,4.951,0,0,1-5-5h0A4.951,4.951,0,0,1,26,62Z" fill="orange"/>
      <path id="Rectangle_20149" data-name="Rectangle 20149" d="M26,102H37a4.951,4.951,0,0,1,5,5h0a4.951,4.951,0,0,1-5,5H26a4.951,4.951,0,0,1-5-5h0A4.951,4.951,0,0,1,26,102Z" fill="#00c19c"/>
      <text id="Unspecified_terrestrial_" data-name="Unspecified 
terrestrial " transform="translate(52 31)" font-size="10" font-family="HKGrotesk-Regular, HK Grotesk" style="isolation: isolate"><tspan x="0" y="0">Unspecified </tspan><tspan x="0" y="12">terrestrial </tspan></text>
      <text id="Specific_terrestrial_" data-name="Specific 
terrestrial " transform="translate(52 71)" font-size="10" font-family="HKGrotesk-Regular, HK Grotesk" style="isolation: isolate"><tspan x="0" y="0">Specific </tspan><tspan x="0" y="12">terrestrial </tspan></text>
      <text id="Invented_terrestrial" data-name="Invented 
terrestrial" transform="translate(52 110)" font-size="10" font-family="HKGrotesk-Regular, HK Grotesk" style="isolation: isolate"><tspan x="0" y="0">Invented </tspan><tspan x="0" y="12">terrestrial</tspan></text>
    </g>
  </g>
</svg>
