<?xml version="1.0" encoding="utf-8"?>
<!-- Generator: Adobe Illustrator 25.0.0, SVG Export Plug-In . SVG Version: 6.00 Build 0)  -->
<svg version="1.1" id="Livello_1" xmlns="http://www.w3.org/2000/svg" xmlns:xlink="http://www.w3.org/1999/xlink" x="0px" y="0px"
	 viewBox="0 0 145 115.8" enable-background="new 0 0 145 115.8" xml:space="preserve">
<line id="Line_131" fill="none" stroke="#444444" stroke-width="0.393" stroke-dasharray="2.986,2.986" x1="28.078" y1="105.645" x2="28.078" y2="87.945"/>
<line id="Line_104" fill="none" stroke="#666666" stroke-width="3.44" x1="67.978" y1="71.745" x2="95.078" y2="71.845"/>
<path id="Path_74" fill="none" stroke="#CCCCCC" stroke-width="3.44" d="M39.078,83.345c-5.89999,5.9-15.60001,5.9-21.5,0
	s-5.89999-15.6,0-21.5s15.60001-5.9,21.5,0l0,0"/>
<path id="Path_76" fill="none" stroke="#666666" stroke-width="3.44" d="M64.078,56.745c4.39999,9.8,4.39999,21-0.10001,30.7"/>
<path id="Path_77" fill="none" stroke="#666666" stroke-width="3.929" d="M61.37799,53.045"/>
<path id="Path_78" fill="none" stroke="#666666" stroke-width="3.44" d="M93.27798,60.245c1.70001,7.8,1.70001,15.8,0,23.6"/>
<path id="Path_79" fill="none" stroke="#666666" stroke-width="3.44" d="M39.078,61.845c5.89999,5.90001,6,15.5,0.10001,21.5
	c0,0,0,0-0.10001,0.1l0,0"/>
<ellipse id="Ellipse_2" fill="#CCCCCC" stroke="#FFFFFF" stroke-width="1.2" cx="28.078" cy="57.345" rx="2.60001" ry="2.6"/>
<ellipse id="Ellipse_4" fill="#CCCCCC" stroke="#FFFFFF" stroke-width="1.2" cx="28.078" cy="87.945" rx="2.60001" ry="2.6"/>
<ellipse id="Ellipse_4-2" fill="#CCCCCC" stroke="#FFFFFF" stroke-width="1.2" cx="12.978" cy="71.345" rx="2.60001" ry="2.6"/>
<line id="Line_112" fill="none" stroke="#666666" stroke-width="3.44" x1="44.278" y1="71.545" x2="67.978" y2="71.745"/>
<ellipse id="Ellipse_6" fill="#666666" stroke="#FFFFFF" stroke-width="1.2" cx="43.478" cy="71.345" rx="2.60001" ry="2.6"/>
<ellipse id="Ellipse_7" fill="#666666" stroke="#FFFFFF" stroke-width="1.2" cx="67.37799" cy="71.845" rx="2.60001" ry="2.6"/>
<ellipse id="Ellipse_8" fill="#CCCCCC" stroke="#FFFFFF" stroke-width="1.2" cx="64.078" cy="87.945" rx="2.60001" ry="2.6"/>
<ellipse id="Ellipse_9" fill="#666666" stroke="#FFFFFF" stroke-width="1.2" cx="64.078" cy="57.345" rx="2.60001" ry="2.6"/>
<ellipse id="Ellipse_10" fill="#CCCCCC" stroke="#FFFFFF" stroke-width="1.2" cx="93.77798" cy="59.345" rx="2.60001" ry="2.6"/>
<ellipse id="Ellipse_11" fill="#666666" stroke="#FFFFFF" stroke-width="1.2" cx="93.27798" cy="82.145" rx="2.60001" ry="2.6"/>
<path id="Line_115" fill="none" stroke="#000000" stroke-width="0.393" d="M20.27794,54.745v-17.9"/>
<line id="Line_116" fill="none" stroke="#000000" stroke-width="0.393" x1="64.1955" y1="53.045" x2="64.1955" y2="36.645"/>
<line id="Line_117" fill="none" stroke="#000000" stroke-width="0.393" x1="93.77798" y1="54.745" x2="93.77798" y2="36.645"/>
<g>
	<path d="M1.13965,3.17871h0.70898v6.30664h3.17871v0.65967h-3.8877V3.17871z"/>
	<path d="M5.7998,7.67627c0-1.45898,0.9502-2.53857,2.35938-2.53857c1.39844,0,2.36816,1.07959,2.36816,2.53857
		c0,1.44922-0.95898,2.54883-2.36816,2.54883S5.7998,9.13574,5.7998,7.67627z M9.83789,7.67627
		c0-1.11914-0.62988-1.92871-1.67871-1.92871c-1.05957,0-1.66992,0.81934-1.66992,1.92871
		c0,1.11963,0.62012,1.93896,1.66992,1.93896C9.21777,9.61523,9.83789,8.77588,9.83789,7.67627z"/>
	<path d="M11.50977,7.69629c0-1.29932,0.72949-2.55859,2.21875-2.55859c0.87891,0,1.6084,0.43994,1.99902,1.35938l-0.66016,0.25977
		c-0.22949-0.62939-0.71973-1.00928-1.33887-1.00928c-1.0498,0-1.51953,0.93945-1.51953,1.94873
		c0,1.00977,0.46973,1.91895,1.5293,1.91895c0.62012,0,1.10938-0.36963,1.29883-0.99951l0.63965,0.24023
		c-0.3291,0.89941-1.04883,1.36914-1.93848,1.36914C12.30859,10.2251,11.50977,9.06543,11.50977,7.69629z"/>
	<path d="M20.61719,7.07666v3.06836h-0.62891l-0.04004-0.75977c-0.38965,0.5498-0.99023,0.83984-1.76953,0.83984
		c-1.06934,0-1.69922-0.56006-1.69922-1.50928c0-0.49951,0.2002-0.87939,0.55957-1.09961
		c0.37988-0.21973,0.91016-0.30957,1.87891-0.30957h1.00977V7.07666c0-0.85938-0.44922-1.3291-1.2793-1.3291
		c-0.61914,0-1.09961,0.26953-1.49902,0.81934l-0.5-0.41943c0.53027-0.68994,1.16992-1.00977,2.00879-1.00977
		C19.89746,5.1377,20.61719,5.84717,20.61719,7.07666z M19.92773,7.93604V7.86621h-0.94922c-0.90918,0-1.2998,0.06006-1.53906,0.25
		c-0.17969,0.13965-0.27051,0.35986-0.27051,0.63965c0,0.5498,0.46973,0.89941,1.20996,0.89941
		C19.32812,9.65527,19.92773,8.98584,19.92773,7.93604z"/>
	<path d="M24.34766,10.09521c-0.25977,0.07959-0.51953,0.12988-0.74902,0.12988c-0.66016,0-1.13965-0.37012-1.13965-1.23926V5.79736
		h-0.81934V5.21777h0.81934V3.83838l0.68945-0.51953v1.89893h1.18945v0.57959h-1.18945v3.09814
		c0,0.47998,0.21973,0.69971,0.61035,0.69971c0.16992,0,0.35938-0.04004,0.5791-0.10986L24.34766,10.09521z"/>
	<path d="M25.59961,3.17871h0.7998v1.01953h-0.7998V3.17871z M25.65918,5.21777h0.69043v4.92725h-0.69043V5.21777z"/>
	<path d="M27.73926,7.67627c0-1.45898,0.9502-2.53857,2.35938-2.53857c1.39844,0,2.36816,1.07959,2.36816,2.53857
		c0,1.44922-0.95898,2.54883-2.36816,2.54883S27.73926,9.13574,27.73926,7.67627z M31.77734,7.67627
		c0-1.11914-0.62988-1.92871-1.67871-1.92871c-1.05957,0-1.66992,0.81934-1.66992,1.92871
		c0,1.11963,0.62012,1.93896,1.66992,1.93896C31.15723,9.61523,31.77734,8.77588,31.77734,7.67627z"/>
	<path d="M37.78613,7.12646v3.01855h-0.68945V7.29639c0-1.05908-0.33984-1.54883-1.0791-1.54883
		c-0.92969,0-1.46875,0.79932-1.46875,2.18848v2.20898H33.8584V5.21777h0.69043V5.9375c0.31934-0.5,0.91895-0.7998,1.62891-0.7998
		C37.2373,5.1377,37.78613,5.81738,37.78613,7.12646z"/>
	<path d="M38.95898,8.93555l0.58008-0.25977c0.17969,0.50977,0.65918,0.93945,1.42871,0.93945
		c0.66992,0,1.09961-0.32959,1.09961-0.84961c0-1.30908-2.83887-0.48975-2.83887-2.23877c0-0.85938,0.7002-1.38916,1.68945-1.38916
		c0.78906,0,1.42871,0.33008,1.76855,1.0293l-0.5498,0.2998c-0.23926-0.43945-0.62891-0.71924-1.23926-0.71924
		c-0.60938,0-0.99902,0.24951-0.99902,0.67969c0,1.16895,2.84863,0.42969,2.84863,2.29834
		c0,0.99951-0.81934,1.49951-1.76953,1.49951C40.00879,10.2251,39.21875,9.7251,38.95898,8.93555z"/>
	<path d="M46.81836,3.17871h0.7998v1.01953h-0.7998V3.17871z M46.87793,5.21777h0.69043v4.92725h-0.69043V5.21777z"/>
	<path d="M53.31641,7.12646v3.01855h-0.68945V7.29639c0-1.05908-0.33984-1.54883-1.0791-1.54883
		c-0.92969,0-1.46973,0.79932-1.46973,2.18848v2.20898h-0.68945V5.21777h0.68945V5.9375c0.32031-0.5,0.91992-0.7998,1.62988-0.7998
		C52.76758,5.1377,53.31641,5.81738,53.31641,7.12646z"/>
	<path d="M54.48926,8.93555l0.5791-0.25977c0.18066,0.50977,0.66016,0.93945,1.42969,0.93945
		c0.66992,0,1.09961-0.32959,1.09961-0.84961c0-1.30908-2.83887-0.48975-2.83887-2.23877c0-0.85938,0.7002-1.38916,1.68945-1.38916
		c0.78906,0,1.42871,0.33008,1.76855,1.0293l-0.5498,0.2998c-0.23926-0.43945-0.62891-0.71924-1.23926-0.71924
		c-0.60938,0-0.99902,0.24951-0.99902,0.67969c0,1.16895,2.84863,0.42969,2.84863,2.29834
		c0,0.99951-0.81934,1.49951-1.76953,1.49951C55.53906,10.2251,54.74902,9.7251,54.48926,8.93555z"/>
	<path d="M59.61816,3.17871h0.7998v1.01953h-0.7998V3.17871z M59.67773,5.21777h0.68945v4.92725h-0.68945V5.21777z"/>
	<path d="M66.30664,3.17871v6.96631h-0.68945V9.48535c-0.36035,0.45996-0.91016,0.73975-1.62891,0.73975
		c-1.43945,0-2.18945-1.07959-2.18945-2.54883c0-1.53906,0.81934-2.54834,2.18945-2.54834
		c0.69922,0,1.25879,0.26953,1.62891,0.74951V3.17871H66.30664z M65.67676,7.67627c0-1.16943-0.59961-1.93896-1.58887-1.93896
		c-1,0-1.59961,0.76953-1.59961,1.93896c0,1.11963,0.5498,1.93896,1.59961,1.93896
		C65.12695,9.61523,65.67676,8.7959,65.67676,7.67627z"/>
	<path d="M72.02637,7.86621h-3.6084c0.02051,1.07959,0.62012,1.729,1.58887,1.729c0.54004,0,0.96973-0.13965,1.41992-0.61963
		l0.47949,0.41992c-0.58008,0.60938-1.14941,0.82959-1.90918,0.82959c-1.49902,0-2.26855-1.11963-2.26855-2.51855
		c0-1.38965,0.75977-2.56885,2.18848-2.56885c1.50977,0,2.13867,1.1792,2.13867,2.29883
		C72.05566,7.57666,72.0459,7.74609,72.02637,7.86621z M68.41797,7.28662h2.97852c0-0.02002-0.00977-0.06982-0.00977-0.16016
		c-0.0498-0.79932-0.55957-1.40918-1.46973-1.40918C69.02734,5.71729,68.47852,6.41699,68.41797,7.28662z"/>
	<path d="M75.74805,7.67627c0-1.45898,0.9502-2.53857,2.35938-2.53857c1.39844,0,2.36816,1.07959,2.36816,2.53857
		c0,1.44922-0.95898,2.54883-2.36816,2.54883S75.74805,9.13574,75.74805,7.67627z M79.78613,7.67627
		c0-1.11914-0.62988-1.92871-1.67871-1.92871c-1.05957,0-1.66992,0.81934-1.66992,1.92871
		c0,1.11963,0.62012,1.93896,1.66992,1.93896C79.16602,9.61523,79.78613,8.77588,79.78613,7.67627z"/>
	<path d="M83.86621,10.09521c-0.25977,0.07959-0.51953,0.12988-0.74902,0.12988c-0.66016,0-1.13965-0.37012-1.13965-1.23926V5.79736
		H81.1582V5.21777h0.81934V3.83838l0.68945-0.51953v1.89893h1.18945v0.57959h-1.18945v3.09814
		c0,0.47998,0.21973,0.69971,0.61035,0.69971c0.16992,0,0.35938-0.04004,0.5791-0.10986L83.86621,10.09521z"/>
	<path d="M89.10547,7.12646v3.01855h-0.68945V7.29639c0-1.06934-0.33984-1.54883-1.0791-1.54883
		c-0.93945,0-1.46973,0.76953-1.46973,2.12891v2.26855h-0.68945V3.17871h0.68945V5.9375c0.32031-0.5,0.91992-0.7998,1.62988-0.7998
		C88.55664,5.1377,89.10547,5.81738,89.10547,7.12646z"/>
	<path d="M94.70605,7.86621h-3.6084c0.02051,1.07959,0.62012,1.729,1.58887,1.729c0.54004,0,0.96973-0.13965,1.41992-0.61963
		l0.47949,0.41992c-0.58008,0.60938-1.14941,0.82959-1.90918,0.82959c-1.49902,0-2.26855-1.11963-2.26855-2.51855
		c0-1.38965,0.75977-2.56885,2.18848-2.56885c1.50977,0,2.13867,1.1792,2.13867,2.29883
		C94.73535,7.57666,94.72559,7.74609,94.70605,7.86621z M91.09766,7.28662h2.97852c0-0.02002-0.00977-0.06982-0.00977-0.16016
		c-0.0498-0.79932-0.55957-1.40918-1.46973-1.40918C91.70703,5.71729,91.1582,6.41699,91.09766,7.28662z"/>
	<path d="M99.12695,5.34766l-0.33984,0.55957c-0.23047-0.09961-0.44043-0.1499-0.65039-0.1499
		c-0.75879,0-1.31836,0.56982-1.31836,1.63916v2.74854h-0.69043V5.21777h0.69043v0.73975
		c0.35938-0.6499,0.95898-0.81982,1.45898-0.81982C98.57715,5.1377,98.85645,5.19775,99.12695,5.34766z"/>
	<path d="M102.83789,9.07568V3.17871h0.69043v5.85693c0,0.33984,0.11914,0.55957,0.44922,0.55957
		c0.15039,0,0.32031-0.04004,0.46973-0.08984l0.00977,0.58984c-0.20996,0.06982-0.45898,0.12988-0.67969,0.12988
		C103.20801,10.2251,102.83789,9.84521,102.83789,9.07568z"/>
	<path d="M105.14746,7.67627c0-1.45898,0.9502-2.53857,2.35938-2.53857c1.39844,0,2.36816,1.07959,2.36816,2.53857
		c0,1.44922-0.95898,2.54883-2.36816,2.54883S105.14746,9.13574,105.14746,7.67627z M109.18555,7.67627
		c0-1.11914-0.62988-1.92871-1.67871-1.92871c-1.05957,0-1.66992,0.81934-1.66992,1.92871
		c0,1.11963,0.62012,1.93896,1.66992,1.93896C108.56543,9.61523,109.18555,8.77588,109.18555,7.67627z"/>
	<path d="M110.8584,7.69629c0-1.29932,0.72949-2.55859,2.21875-2.55859c0.87891,0,1.6084,0.43994,1.99902,1.35938l-0.66016,0.25977
		c-0.22949-0.62939-0.71973-1.00928-1.33887-1.00928c-1.0498,0-1.51953,0.93945-1.51953,1.94873
		c0,1.00977,0.46973,1.91895,1.5293,1.91895c0.62012,0,1.10938-0.36963,1.29883-0.99951l0.63965,0.24023
		c-0.3291,0.89941-1.04883,1.36914-1.93848,1.36914C111.65723,10.2251,110.8584,9.06543,110.8584,7.69629z"/>
	<path d="M119.96582,7.07666v3.06836h-0.62891l-0.04004-0.75977c-0.39062,0.5498-0.99023,0.83984-1.76953,0.83984
		c-1.06934,0-1.69922-0.56006-1.69922-1.50928c0-0.49951,0.2002-0.87939,0.55957-1.09961
		c0.37988-0.21973,0.91016-0.30957,1.87988-0.30957h1.00879V7.07666c0-0.85938-0.44922-1.3291-1.2793-1.3291
		c-0.61914,0-1.09961,0.26953-1.49902,0.81934l-0.5-0.41943c0.53027-0.68994,1.16992-1.00977,2.00879-1.00977
		C119.24609,5.1377,119.96582,5.84717,119.96582,7.07666z M119.27637,7.93604V7.86621h-0.94922
		c-0.90918,0-1.2998,0.06006-1.53906,0.25c-0.17969,0.13965-0.27051,0.35986-0.27051,0.63965
		c0,0.5498,0.4707,0.89941,1.20996,0.89941C118.67676,9.65527,119.27637,8.98584,119.27637,7.93604z"/>
	<path d="M123.69629,10.09521c-0.25977,0.07959-0.51953,0.12988-0.74902,0.12988c-0.66016,0-1.13965-0.37012-1.13965-1.23926
		V5.79736h-0.81934V5.21777h0.81934V3.83838l0.68945-0.51953v1.89893h1.18945v0.57959h-1.18945v3.09814
		c0,0.47998,0.21973,0.69971,0.61035,0.69971c0.16992,0,0.35938-0.04004,0.5791-0.10986L123.69629,10.09521z"/>
	<path d="M124.94727,3.17871h0.7998v1.01953h-0.7998V3.17871z M125.00684,5.21777h0.69043v4.92725h-0.69043V5.21777z"/>
	<path d="M127.08789,7.67627c0-1.45898,0.9502-2.53857,2.35938-2.53857c1.39844,0,2.36816,1.07959,2.36816,2.53857
		c0,1.44922-0.95898,2.54883-2.36816,2.54883S127.08789,9.13574,127.08789,7.67627z M131.12598,7.67627
		c0-1.11914-0.62988-1.92871-1.67871-1.92871c-1.05957,0-1.66992,0.81934-1.66992,1.92871
		c0,1.11963,0.62012,1.93896,1.66992,1.93896C130.50586,9.61523,131.12598,8.77588,131.12598,7.67627z"/>
	<path d="M137.13477,7.12646v3.01855h-0.68945V7.29639c0-1.05908-0.33984-1.54883-1.0791-1.54883
		c-0.92969,0-1.46973,0.79932-1.46973,2.18848v2.20898h-0.68945V5.21777h0.68945V5.9375c0.32031-0.5,0.91992-0.7998,1.62988-0.7998
		C136.58594,5.1377,137.13477,5.81738,137.13477,7.12646z"/>
	<path d="M138.30762,8.93555l0.5791-0.25977c0.18066,0.50977,0.66016,0.93945,1.42969,0.93945
		c0.66992,0,1.09961-0.32959,1.09961-0.84961c0-1.30908-2.83887-0.48975-2.83887-2.23877c0-0.85938,0.7002-1.38916,1.68945-1.38916
		c0.78906,0,1.42871,0.33008,1.76855,1.0293l-0.5498,0.2998c-0.23926-0.43945-0.62891-0.71924-1.23926-0.71924
		c-0.60938,0-0.99902,0.24951-0.99902,0.67969c0,1.16895,2.84863,0.42969,2.84863,2.29834
		c0,0.99951-0.81934,1.49951-1.76953,1.49951C139.35742,10.2251,138.56738,9.7251,138.30762,8.93555z"/>
</g>
<g>
	<path d="M6.81787,26.479h0.70898v6.30664h3.17871v0.65967h-3.8877V26.479z"/>
	<path d="M15.80615,31.1665h-3.6084c0.02051,1.07959,0.62012,1.729,1.58887,1.729c0.54004,0,0.96973-0.13965,1.41992-0.61963
		l0.47949,0.41992c-0.58008,0.60938-1.14941,0.82959-1.90918,0.82959c-1.49902,0-2.26855-1.11963-2.26855-2.51855
		c0-1.38965,0.75977-2.56885,2.18848-2.56885c1.50977,0,2.13867,1.1792,2.13867,2.29883
		C15.83545,30.87695,15.82568,31.04639,15.80615,31.1665z M12.19775,30.58691h2.97852c0-0.02002-0.00977-0.06982-0.00977-0.16016
		c-0.0498-0.79932-0.55957-1.40918-1.46973-1.40918C12.80713,29.01758,12.2583,29.71729,12.19775,30.58691z"/>
	<path d="M16.51807,28.51807h0.74902l1.5498,4.04785l1.55859-4.04785h0.75977l-2.01855,4.92725h-0.58984L16.51807,28.51807z"/>
	<path d="M25.99561,31.1665h-3.6084c0.02051,1.07959,0.62012,1.729,1.58887,1.729c0.54004,0,0.96973-0.13965,1.41992-0.61963
		l0.47949,0.41992c-0.58008,0.60938-1.14941,0.82959-1.90918,0.82959c-1.49902,0-2.26855-1.11963-2.26855-2.51855
		c0-1.38965,0.75977-2.56885,2.18848-2.56885c1.50977,0,2.13867,1.1792,2.13867,2.29883
		C26.0249,30.87695,26.01514,31.04639,25.99561,31.1665z M22.38721,30.58691h2.97852c0-0.02002-0.00977-0.06982-0.00977-0.16016
		c-0.0498-0.79932-0.55957-1.40918-1.46973-1.40918C22.99658,29.01758,22.44775,29.71729,22.38721,30.58691z"/>
	<path d="M27.37744,32.37598V26.479h0.69043v5.85693c0,0.33984,0.11914,0.55957,0.44922,0.55957
		c0.15039,0,0.32031-0.04004,0.46973-0.08984l0.00977,0.58984c-0.20996,0.06982-0.45898,0.12988-0.67969,0.12988
		C27.74756,33.52539,27.37744,33.14551,27.37744,32.37598z"/>
	<path d="M32.8667,26.479v6.96631h-0.68945v-5.16699h-1.73926v-0.67969h1.15918c0.34961,0,0.58008-0.12012,0.58008-0.52979V26.479
		H32.8667z"/>
</g>
<g>
	<path d="M66.58789,32.7959v0.64941h-4.81738v-0.63965c1.62891-1.01953,3.79785-2.47852,3.79785-4.32764
		c0-0.87939-0.49023-1.43896-1.38965-1.43896c-1.05957,0-1.53906,0.76953-1.54883,1.79883l-0.67969-0.0498
		c0-1.36963,0.78906-2.40869,2.22852-2.40869c1.23926,0,2.08887,0.76953,2.08887,2.1084c0,1.7793-1.5791,3.19824-3.34766,4.30811
		H66.58789z"/>
</g>
<g>
	<path d="M91.50781,31.3667l0.67969-0.04004c0,0.98926,0.72949,1.55908,1.77832,1.55908c0.99023,0,1.73926-0.52979,1.73926-1.47949
		c0-1.1792-1.18945-1.33887-2.08887-1.33887V29.4873c1.00977,0,1.71973-0.37939,1.71973-1.24902
		c0-0.81982-0.60059-1.19922-1.33984-1.19922c-0.86914,0-1.46875,0.47949-1.47949,1.33887l-0.66895-0.0498
		c0-1.20947,0.90918-1.94873,2.11816-1.94873c1.09961,0,2.05957,0.63965,2.05957,1.77881c0,0.83936-0.53027,1.39941-1.0498,1.56934
		c0.75977,0.13965,1.41895,0.71924,1.41895,1.73877c0,1.31934-1.0791,2.0791-2.43848,2.0791
		C92.56738,33.54541,91.50781,32.77588,91.50781,31.3667z"/>
</g>
<g>
	<path d="M9.28076,107.30859h0.70898v6.30664h3.17871v0.65918h-3.8877V107.30859z"/>
	<path d="M13.94092,111.80566c0-1.45898,0.9502-2.53809,2.35938-2.53809c1.39844,0,2.36816,1.0791,2.36816,2.53809
		c0,1.44922-0.95898,2.54883-2.36816,2.54883S13.94092,113.26562,13.94092,111.80566z M17.979,111.80566
		c0-1.11914-0.62988-1.92871-1.67871-1.92871c-1.05957,0-1.66992,0.81934-1.66992,1.92871
		c0,1.12012,0.62012,1.93945,1.66992,1.93945C17.35889,113.74512,17.979,112.90527,17.979,111.80566z"/>
	<path d="M19.65088,111.82617c0-1.2998,0.72949-2.55859,2.21875-2.55859c0.87891,0,1.6084,0.43945,1.99902,1.35938l-0.66016,0.25977
		c-0.22949-0.62988-0.71973-1.00977-1.33887-1.00977c-1.0498,0-1.51953,0.93945-1.51953,1.94922s0.46973,1.91895,1.5293,1.91895
		c0.62012,0,1.10938-0.37012,1.29883-1l0.63965,0.24023c-0.3291,0.89941-1.04883,1.36914-1.93848,1.36914
		C20.44971,114.35449,19.65088,113.19531,19.65088,111.82617z"/>
	<path d="M28.7583,111.20605v3.06836h-0.62891l-0.04004-0.75977c-0.38965,0.5498-0.99023,0.83984-1.76953,0.83984
		c-1.06934,0-1.69922-0.55957-1.69922-1.50879c0-0.5,0.2002-0.87988,0.55957-1.09961
		c0.37988-0.21973,0.91016-0.30957,1.87891-0.30957h1.00977v-0.23047c0-0.85938-0.44922-1.3291-1.2793-1.3291
		c-0.61914,0-1.09961,0.26953-1.49902,0.81934l-0.5-0.41895c0.53027-0.69043,1.16992-1.00977,2.00879-1.00977
		C28.03857,109.26758,28.7583,109.97656,28.7583,111.20605z M28.06885,112.06543v-0.06934h-0.94922
		c-0.90918,0-1.2998,0.05957-1.53906,0.25c-0.17969,0.13965-0.27051,0.35938-0.27051,0.63965
		c0,0.5498,0.46973,0.89941,1.20996,0.89941C27.46924,113.78516,28.06885,113.11523,28.06885,112.06543z"/>
	<path d="M32.48877,114.22461c-0.25977,0.08008-0.51953,0.12988-0.74902,0.12988c-0.66016,0-1.13965-0.37012-1.13965-1.23926
		v-3.18848h-0.81934v-0.5791h0.81934v-1.37988l0.68945-0.51953v1.89941H32.479v0.5791h-1.18945v3.09863
		c0,0.47949,0.21973,0.69922,0.61035,0.69922c0.16992,0,0.35938-0.04004,0.5791-0.10938L32.48877,114.22461z"/>
	<path d="M33.74072,107.30859h0.7998v1.01953h-0.7998V107.30859z M33.80029,109.34766h0.69043v4.92676h-0.69043V109.34766z"/>
	<path d="M35.88037,111.80566c0-1.45898,0.9502-2.53809,2.35938-2.53809c1.39844,0,2.36816,1.0791,2.36816,2.53809
		c0,1.44922-0.95898,2.54883-2.36816,2.54883S35.88037,113.26562,35.88037,111.80566z M39.91846,111.80566
		c0-1.11914-0.62988-1.92871-1.67871-1.92871c-1.05957,0-1.66992,0.81934-1.66992,1.92871
		c0,1.12012,0.62012,1.93945,1.66992,1.93945C39.29834,113.74512,39.91846,112.90527,39.91846,111.80566z"/>
	<path d="M45.92725,111.25586v3.01855h-0.68945v-2.84863c0-1.05859-0.33984-1.54883-1.0791-1.54883
		c-0.92969,0-1.46875,0.7998-1.46875,2.18848v2.20898h-0.69043v-4.92676h0.69043v0.71973c0.31934-0.5,0.91895-0.7998,1.62891-0.7998
		C45.37842,109.26758,45.92725,109.94727,45.92725,111.25586z"/>
	<path d="M47.1001,113.06543l0.58008-0.25977c0.17969,0.50977,0.65918,0.93945,1.42871,0.93945
		c0.66992,0,1.09961-0.33008,1.09961-0.84961c0-1.30957-2.83887-0.49023-2.83887-2.23926c0-0.85938,0.7002-1.38867,1.68945-1.38867
		c0.78906,0,1.42871,0.33008,1.76855,1.0293l-0.5498,0.2998c-0.23926-0.43945-0.62891-0.71973-1.23926-0.71973
		c-0.60938,0-0.99902,0.25-0.99902,0.67969c0,1.16895,2.84863,0.42969,2.84863,2.29883c0,0.99902-0.81934,1.49902-1.76953,1.49902
		C48.1499,114.35449,47.35986,113.85449,47.1001,113.06543z"/>
</g>
</svg>
