<?xml version="1.0" encoding="utf-8"?>
<!-- Generator: Adobe Illustrator 25.0.0, SVG Export Plug-In . SVG Version: 6.00 Build 0)  -->
<svg version="1.1" id="Livello_1" xmlns="http://www.w3.org/2000/svg" xmlns:xlink="http://www.w3.org/1999/xlink" x="0px" y="0px"
	 viewBox="0 0 119 96.409" enable-background="new 0 0 119 96.409" xml:space="preserve">
<g enable-background="new    ">
	<path d="M1.13916,3.03418h1.98926c1.479,0,2.29883,0.69922,2.29883,1.94824c0,1.26953-0.82959,1.97949-2.29883,1.97949h-1.2793V10
		H1.13916V3.03418z M3.05811,6.30176c1.08984,0,1.64941-0.44922,1.64941-1.30859c0-0.86035-0.55957-1.2998-1.64941-1.2998H1.84912
		v2.6084H3.05811z"/>
	<path d="M9.6875,5.20312L9.34766,5.7627C9.11816,5.66211,8.9082,5.6123,8.69824,5.6123c-0.75977,0-1.31934,0.56934-1.31934,1.63965
		V10H6.68945V5.07227h0.68945V5.8125c0.35986-0.64941,0.95947-0.81934,1.45898-0.81934
		C9.1377,4.99316,9.41797,5.05273,9.6875,5.20312z"/>
	<path d="M9.8291,7.53125c0-1.45898,0.94971-2.53809,2.35889-2.53809c1.39941,0,2.36865,1.0791,2.36865,2.53809
		c0,1.44922-0.95947,2.54883-2.36865,2.54883S9.8291,8.99023,9.8291,7.53125z M13.86719,7.53125
		c0-1.11914-0.62988-1.92871-1.6792-1.92871c-1.05957,0-1.66895,0.81934-1.66895,1.92871c0,1.11914,0.61963,1.93945,1.66895,1.93945
		C13.24756,9.4707,13.86719,8.63086,13.86719,7.53125z"/>
	<path d="M20.45654,7.53125c0,1.46973-0.74951,2.54883-2.18896,2.54883c-0.71924,0-1.26904-0.28027-1.62891-0.73926v2.69824
		h-0.68945v-6.9668h0.68945v0.66016c0.36963-0.47949,0.92969-0.75,1.62891-0.75C19.63721,4.98242,20.45654,5.99219,20.45654,7.53125
		z M19.76709,7.53125c0-1.16895-0.59961-1.93848-1.59912-1.93848c-0.98975,0-1.58936,0.76953-1.58936,1.93848
		c0,1.11914,0.5498,1.93945,1.58936,1.93945C19.21729,9.4707,19.76709,8.65039,19.76709,7.53125z"/>
	<path d="M21.45898,7.53125c0-1.45898,0.94971-2.53809,2.35889-2.53809c1.39941,0,2.36865,1.0791,2.36865,2.53809
		c0,1.44922-0.95947,2.54883-2.36865,2.54883S21.45898,8.99023,21.45898,7.53125z M25.49707,7.53125
		c0-1.11914-0.62988-1.92871-1.6792-1.92871c-1.05957,0-1.66895,0.81934-1.66895,1.92871c0,1.11914,0.61963,1.93945,1.66895,1.93945
		C24.87744,9.4707,25.49707,8.63086,25.49707,7.53125z"/>
	<path d="M30.57715,5.20312L30.2373,5.7627c-0.22949-0.10059-0.43945-0.15039-0.64941-0.15039
		c-0.75977,0-1.31934,0.56934-1.31934,1.63965V10H27.5791V5.07227h0.68945V5.8125c0.35986-0.64941,0.95947-0.81934,1.45898-0.81934
		C30.02734,4.99316,30.30762,5.05273,30.57715,5.20312z"/>
	<path d="M35.25732,5.62207l-3.2085,3.78809h3.18848V10h-4.09814V9.5l3.27832-3.83789h-3.1084V5.07227h3.94824V5.62207z"/>
	<path d="M36.50879,3.03418h0.79932v1.01953h-0.79932V3.03418z M36.56885,5.07227h0.68945V10h-0.68945V5.07227z"/>
	<path d="M38.64941,7.53125c0-1.45898,0.94922-2.53809,2.3584-2.53809c1.39941,0,2.36865,1.0791,2.36865,2.53809
		c0,1.44922-0.95947,2.54883-2.36865,2.54883S38.64941,8.99023,38.64941,7.53125z M42.68701,7.53125
		c0-1.11914-0.62988-1.92871-1.6792-1.92871c-1.05957,0-1.66895,0.81934-1.66895,1.92871c0,1.11914,0.61963,1.93945,1.66895,1.93945
		C42.06738,9.4707,42.68701,8.63086,42.68701,7.53125z"/>
	<path d="M48.69629,6.98145V10h-0.68945V7.15137c0-1.05957-0.33984-1.54883-1.07959-1.54883
		c-0.92969,0-1.46924,0.7998-1.46924,2.18848V10h-0.68945V5.07227h0.68945v0.71973c0.31982-0.49902,0.91943-0.79883,1.62891-0.79883
		C48.14648,4.99316,48.69629,5.67285,48.69629,6.98145z"/>
	<path d="M54.2959,7.72168h-3.60791c0.02002,1.0791,0.61963,1.72852,1.58936,1.72852c0.53955,0,0.96924-0.13965,1.41895-0.61914
		L54.17627,9.25c-0.57959,0.61035-1.14941,0.83008-1.90918,0.83008c-1.49902,0-2.26855-1.11914-2.26855-2.51855
		c0-1.38965,0.75977-2.56836,2.18896-2.56836c1.50879,0,2.13867,1.17871,2.13867,2.29785
		C54.32617,7.43164,54.31592,7.60156,54.2959,7.72168z M50.68799,7.1416h2.97852c0-0.02051-0.01025-0.07031-0.01025-0.16016
		c-0.0498-0.7998-0.55957-1.40918-1.46875-1.40918C51.29785,5.57227,50.74805,6.27246,50.68799,7.1416z"/>
	<path d="M60.49805,9.9502c-0.25977,0.08008-0.52051,0.12988-0.75,0.12988c-0.65967,0-1.13965-0.37012-1.13965-1.23926V5.65234
		h-0.81934V5.07227h0.81934V3.69336l0.68945-0.51953v1.89844h1.18945v0.58008h-1.18945v3.09863
		c0,0.47949,0.22021,0.69922,0.60986,0.69922c0.17041,0,0.35986-0.04004,0.57959-0.10938L60.49805,9.9502z"/>
	<path d="M64.70703,5.20312L64.36719,5.7627C64.13672,5.66211,63.92773,5.6123,63.7168,5.6123
		c-0.75977,0-1.31836,0.56934-1.31836,1.63965V10h-0.68945V5.07227h0.68945V5.8125c0.35938-0.64941,0.95898-0.81934,1.45898-0.81934
		C64.15723,4.99316,64.4375,5.05273,64.70703,5.20312z"/>
	<path d="M69.39648,6.93164V10H68.7666l-0.04004-0.75977c-0.38965,0.5498-0.98926,0.83984-1.76953,0.83984
		c-1.06836,0-1.69824-0.55957-1.69824-1.50977c0-0.49902,0.2002-0.87891,0.55957-1.09863
		c0.37988-0.21973,0.91016-0.31055,1.87891-0.31055h1.00977V6.93164c0-0.85938-0.4502-1.3291-1.2793-1.3291
		c-0.62012,0-1.09961,0.26953-1.5,0.81934l-0.49902-0.41992c0.5293-0.68945,1.16895-1.00879,2.00879-1.00879
		C68.67676,4.99316,69.39648,5.70215,69.39648,6.93164z M68.70703,7.79102V7.72168h-0.94922
		c-0.91016,0-1.2998,0.05957-1.53906,0.24902c-0.18066,0.14062-0.27051,0.36035-0.27051,0.63965
		c0,0.5498,0.46973,0.90039,1.20996,0.90039C68.10742,9.51074,68.70703,8.84082,68.70703,7.79102z"/>
	<path d="M73.74805,3.03418h0.7998v1.01953h-0.7998V3.03418z M73.80859,5.07227h0.68945V10h-0.68945V5.07227z"/>
	<path d="M81.09766,9.9502c-0.25977,0.08008-0.52051,0.12988-0.75,0.12988c-0.66016,0-1.13965-0.37012-1.13965-1.23926V5.65234
		h-0.81934V5.07227h0.81934V3.69336l0.68945-0.51953v1.89844h1.18945v0.58008h-1.18945v3.09863
		c0,0.47949,0.21973,0.69922,0.61035,0.69922c0.16992,0,0.35938-0.04004,0.5791-0.10938L81.09766,9.9502z"/>
	<path d="M82.34766,3.03418h0.7998v1.01953h-0.7998V3.03418z M82.4082,5.07227h0.68945V10H82.4082V5.07227z"/>
	<path d="M89.42578,7.53125c0,1.46973-0.75,2.54883-2.18945,2.54883c-0.71875,0-1.26953-0.28027-1.62891-0.73926v2.69824h-0.68945
		v-6.9668h0.68945v0.66016c0.36914-0.47949,0.92969-0.75,1.62891-0.75C88.60547,4.98242,89.42578,5.99219,89.42578,7.53125z
		 M88.73633,7.53125c0-1.16895-0.59961-1.93848-1.59961-1.93848c-0.99023,0-1.58984,0.76953-1.58984,1.93848
		c0,1.11914,0.55078,1.93945,1.58984,1.93945C88.18555,9.4707,88.73633,8.65039,88.73633,7.53125z"/>
	<path d="M90.79785,3.03418h0.7998v1.01953h-0.7998V3.03418z M90.85742,5.07227h0.68945V10h-0.68945V5.07227z"/>
	<path d="M100.21582,3.03418V10h-0.69043V9.34082c-0.35938,0.45898-0.9082,0.73926-1.62891,0.73926
		c-1.43848,0-2.18848-1.0791-2.18848-2.54883c0-1.53906,0.81934-2.54883,2.18848-2.54883c0.7002,0,1.25977,0.27051,1.62891,0.75
		V3.03418H100.21582z M99.58594,7.53125c0-1.16895-0.59961-1.93848-1.58887-1.93848c-0.99902,0-1.59863,0.76953-1.59863,1.93848
		c0,1.11914,0.54883,1.93945,1.59863,1.93945C99.03613,9.4707,99.58594,8.65039,99.58594,7.53125z"/>
	<path d="M101.97852,3.03418h0.79883v1.01953h-0.79883V3.03418z M102.03809,5.07227h0.68945V10h-0.68945V5.07227z"/>
</g>
<g enable-background="new    ">
	<path d="M0.86963,21.93066v-5.89648h0.68945v5.85645c0,0.33984,0.12012,0.55957,0.44971,0.55957
		c0.1499,0,0.31982-0.04004,0.46973-0.08984l0.01025,0.58984c-0.20996,0.06934-0.45996,0.12988-0.67969,0.12988
		C1.23926,23.08008,0.86963,22.7002,0.86963,21.93066z"/>
	<path d="M7.36719,18.07227V23H6.67773v-0.70996c-0.34961,0.53027-0.97949,0.79004-1.62891,0.79004
		c-1.11963,0-1.60938-0.76953-1.60938-1.98926v-3.01855h0.68945v2.84863c0,0.7998,0.14014,1.5498,1.07959,1.5498
		c0.97949,0,1.46924-0.84961,1.46924-2.12891v-2.26953H7.36719z"/>
	<path d="M8.70996,20.53125c0-1.45898,0.94922-2.53809,2.3584-2.53809c1.39941,0,2.36865,1.0791,2.36865,2.53809
		c0,1.44922-0.95947,2.54883-2.36865,2.54883S8.70996,21.99023,8.70996,20.53125z M12.74756,20.53125
		c0-1.11914-0.62988-1.92871-1.6792-1.92871c-1.05957,0-1.66895,0.81934-1.66895,1.92871c0,1.11914,0.61963,1.93945,1.66895,1.93945
		C12.12793,22.4707,12.74756,21.63086,12.74756,20.53125z"/>
	<path d="M18.66748,23.75977c0,0.92969-0.86963,1.35938-2.10889,1.35938c-1.36914,0-2.19873-0.54004-2.19873-1.51953
		c0-0.09961,0.00977-0.16016,0.02002-0.21973l0.79932-0.67969c-0.37988-0.16992-0.63965-0.4502-0.63965-0.93945
		c0-0.39941,0.18018-0.69922,0.52979-0.93945c-0.25977-0.2998-0.41992-0.67969-0.41992-1.11914c0-1,0.81982-1.70898,1.87891-1.70898
		c0.47998,0,0.90967,0.14941,1.22949,0.39941l0.67969-0.58984l0.35986,0.4502l-0.66992,0.55957
		c0.16992,0.26953,0.27002,0.5791,0.27002,0.92969c0,1.00879-0.81934,1.67871-1.85889,1.67871
		c-0.37988,0-0.72949-0.08984-1.01953-0.25c-0.19971,0.11035-0.31982,0.29004-0.31982,0.5c0,0.5,0.61963,0.61914,1.3291,0.72949
		C17.50781,22.5498,18.66748,22.69043,18.66748,23.75977z M17.97754,23.81934c0-0.59961-0.7793-0.68945-1.59912-0.81934
		c-0.21973-0.03027-0.44971-0.07031-0.65967-0.12012l-0.66943,0.64941c-0.01025,0.05078-0.01025,0.07031-0.01025,0.09082
		c0,0.69922,0.70996,0.91895,1.54932,0.91895C17.45801,24.53906,17.97754,24.29883,17.97754,23.81934z M15.3291,19.72168
		c0,0.63965,0.45996,1.12988,1.19922,1.12988c0.73975,0,1.17969-0.48047,1.17969-1.12988c0-0.67969-0.45996-1.14941-1.16943-1.14941
		C15.83887,18.57227,15.3291,19.04199,15.3291,19.72168z"/>
	<path d="M23.96729,19.98145V23h-0.68945v-2.84863c0-1.06934-0.33984-1.54883-1.07959-1.54883
		c-0.93945,0-1.46924,0.76953-1.46924,2.12891V23h-0.68945v-6.96582H20.729v2.75781
		c0.31982-0.49902,0.91943-0.79883,1.62891-0.79883C23.41748,17.99316,23.96729,18.67285,23.96729,19.98145z"/>
	<path d="M25.60938,16.03418h0.79932v1.01953h-0.79932V16.03418z M25.66943,18.07227h0.68945V23h-0.68945V18.07227z"/>
	<path d="M34.83691,19.98145V23h-0.68945v-2.84863c0-1.05957-0.33984-1.54883-1.07959-1.54883
		c-0.92969,0-1.46924,0.7998-1.46924,2.18848V23h-0.68945v-4.92773h0.68945v0.71973
		c0.31982-0.49902,0.91943-0.79883,1.62891-0.79883C34.28711,17.99316,34.83691,18.67285,34.83691,19.98145z"/>
	<path d="M40.43652,20.72168h-3.60791c0.02002,1.0791,0.61963,1.72852,1.58936,1.72852c0.53955,0,0.96924-0.13965,1.41895-0.61914
		L40.31689,22.25c-0.57959,0.61035-1.14941,0.83008-1.90918,0.83008c-1.49902,0-2.26855-1.11914-2.26855-2.51855
		c0-1.38965,0.75977-2.56836,2.18896-2.56836c1.50879,0,2.13867,1.17871,2.13867,2.29785
		C40.4668,20.43164,40.45654,20.60156,40.43652,20.72168z M36.82861,20.1416h2.97852c0-0.02051-0.01025-0.07031-0.01025-0.16016
		c-0.0498-0.7998-0.55957-1.40918-1.46875-1.40918C37.43848,18.57227,36.88867,19.27246,36.82861,20.1416z"/>
	<path d="M41.81885,21.93066v-5.89648h0.68945v5.85645c0,0.33984,0.12012,0.55957,0.44971,0.55957
		c0.1499,0,0.31982-0.04004,0.46973-0.08984l0.01025,0.58984c-0.20996,0.06934-0.45996,0.12988-0.67969,0.12988
		C42.18848,23.08008,41.81885,22.7002,41.81885,21.93066z"/>
	<path d="M51.79639,20.53125c0,1.46973-0.74951,2.54883-2.18896,2.54883c-0.71924,0-1.26904-0.28027-1.62891-0.73926v2.69824
		h-0.68945v-6.9668h0.68945v0.66016c0.36963-0.47949,0.92969-0.75,1.62891-0.75
		C50.97705,17.98242,51.79639,18.99219,51.79639,20.53125z M51.10693,20.53125c0-1.16895-0.59961-1.93848-1.59912-1.93848
		c-0.98975,0-1.58936,0.76953-1.58936,1.93848c0,1.11914,0.5498,1.93945,1.58936,1.93945
		C50.55713,22.4707,51.10693,21.65039,51.10693,20.53125z"/>
	<path d="M56.22705,18.20312l-0.33984,0.55957c-0.22949-0.10059-0.43945-0.15039-0.64941-0.15039
		c-0.75977,0-1.31934,0.56934-1.31934,1.63965V23H53.229v-4.92773h0.68945v0.74023c0.35986-0.64941,0.95947-0.81934,1.45898-0.81934
		C55.67773,17.99316,55.95752,18.05273,56.22705,18.20312z"/>
	<path d="M57.18848,16.03418h0.79932v1.01953h-0.79932V16.03418z M57.24854,18.07227h0.68945V23h-0.68945V18.07227z"/>
	<path d="M66.51562,19.92188V23H65.8252v-2.88867c0-0.41992,0-1.50879-1.0791-1.50879c-1,0-1.26953,0.91895-1.26953,2.02832V23
		h-0.68945v-2.84863c0-0.81934-0.25-1.54883-1.10938-1.54883c-0.95898,0-1.22949,0.90918-1.22949,2.02832V23h-0.68945
		l-0.01025-4.92773h0.66943v0.60059c0.31055-0.49023,0.81055-0.67969,1.35938-0.67969c0.68945,0,1.19922,0.2998,1.44922,0.94922
		c0.32031-0.62988,0.86914-0.94922,1.61914-0.94922C66.02539,17.99316,66.51562,18.77246,66.51562,19.92188z"/>
	<path d="M67.78906,20.53125c0-1.45898,0.94922-2.53809,2.3584-2.53809c1.39941,0,2.36816,1.0791,2.36816,2.53809
		c0,1.44922-0.95898,2.54883-2.36816,2.54883S67.78906,21.99023,67.78906,20.53125z M71.82617,20.53125
		c0-1.11914-0.62891-1.92871-1.67871-1.92871c-1.05957,0-1.66895,0.81934-1.66895,1.92871
		c0,1.11914,0.61914,1.93945,1.66895,1.93945C71.20703,22.4707,71.82617,21.63086,71.82617,20.53125z"/>
	<path d="M76.59766,21.93066v-5.89648h0.68945v5.85645c0,0.33984,0.12109,0.55957,0.4502,0.55957
		c0.14941,0,0.31934-0.04004,0.46973-0.08984l0.00977,0.58984c-0.20898,0.06934-0.45898,0.12988-0.67969,0.12988
		C76.96777,23.08008,76.59766,22.7002,76.59766,21.93066z"/>
	<path d="M79.27832,16.03418h0.7998v1.01953h-0.7998V16.03418z M79.33789,18.07227h0.68945V23h-0.68945V18.07227z"/>
	<path d="M81.13867,18.07227h0.75l1.54883,4.04785l1.55859-4.04785h0.75977L83.73633,23h-0.58887L81.13867,18.07227z"/>
	<path d="M90.61523,20.72168h-3.60742c0.01953,1.0791,0.61914,1.72852,1.58984,1.72852c0.53906,0,0.96875-0.13965,1.41797-0.61914
		L90.49609,22.25c-0.58008,0.61035-1.14941,0.83008-1.90918,0.83008c-1.49902,0-2.26855-1.11914-2.26855-2.51855
		c0-1.38965,0.75977-2.56836,2.18945-2.56836c1.50781,0,2.13867,1.17871,2.13867,2.29785
		C90.64648,20.43164,90.63574,20.60156,90.61523,20.72168z M87.00781,20.1416h2.97852c0-0.02051-0.00977-0.07031-0.00977-0.16016
		c-0.05078-0.7998-0.56055-1.40918-1.46875-1.40918C87.61719,18.57227,87.06836,19.27246,87.00781,20.1416z"/>
	<path d="M91.99805,21.93066v-5.89648h0.68945v5.85645c0,0.33984,0.12012,0.55957,0.44922,0.55957
		c0.15039,0,0.32031-0.04004,0.4707-0.08984l0.00977,0.58984c-0.20996,0.06934-0.45996,0.12988-0.67969,0.12988
		C92.36719,23.08008,91.99805,22.7002,91.99805,21.93066z"/>
	<path d="M94.69824,21.93066v-5.89648h0.68945v5.85645c0,0.33984,0.12012,0.55957,0.4502,0.55957
		c0.14941,0,0.31934-0.04004,0.46875-0.08984l0.01074,0.58984c-0.20996,0.06934-0.45996,0.12988-0.67969,0.12988
		C95.06836,23.08008,94.69824,22.7002,94.69824,21.93066z"/>
	<path d="M97.00781,20.53125c0-1.45898,0.94922-2.53809,2.35938-2.53809c1.39844,0,2.36816,1.0791,2.36816,2.53809
		c0,1.44922-0.95996,2.54883-2.36816,2.54883C97.95703,23.08008,97.00781,21.99023,97.00781,20.53125z M101.0459,20.53125
		c0-1.11914-0.62988-1.92871-1.67871-1.92871c-1.06055,0-1.66992,0.81934-1.66992,1.92871
		c0,1.11914,0.62012,1.93945,1.66992,1.93945C100.42578,22.4707,101.0459,21.63086,101.0459,20.53125z"/>
</g>
<g enable-background="new    ">
	<path d="M0.37988,34.79102l0.57959-0.25977c0.17969,0.50977,0.65967,0.93945,1.4292,0.93945
		c0.66943,0,1.09961-0.33008,1.09961-0.84961c0-1.30957-2.83887-0.49023-2.83887-2.23926c0-0.85938,0.69971-1.38867,1.68945-1.38867
		c0.78955,0,1.4292,0.3291,1.76904,1.0293l-0.5498,0.2998c-0.23975-0.44043-0.62988-0.71973-1.23926-0.71973
		c-0.60986,0-0.99951,0.25-0.99951,0.67969c0,1.16895,2.84814,0.42969,2.84814,2.29883c0,0.99902-0.81934,1.49902-1.76904,1.49902
		C1.4292,36.08008,0.63965,35.58008,0.37988,34.79102z"/>
	<path d="M10.07666,33.53125c0,1.46973-0.74951,2.54883-2.18896,2.54883c-0.71924,0-1.26904-0.28027-1.62891-0.73926v2.69824
		H5.56934v-6.9668h0.68945v0.66016c0.36963-0.47949,0.92969-0.75,1.62891-0.75
		C9.25732,30.98242,10.07666,31.99219,10.07666,33.53125z M9.38721,33.53125c0-1.16895-0.59961-1.93848-1.59912-1.93848
		c-0.98975,0-1.58936,0.76953-1.58936,1.93848c0,1.11914,0.5498,1.93945,1.58936,1.93945
		C8.8374,35.4707,9.38721,34.65039,9.38721,33.53125z"/>
	<path d="M15.17725,32.93164V36h-0.62988l-0.04004-0.75977c-0.38965,0.5498-0.98926,0.83984-1.76904,0.83984
		c-1.06934,0-1.69873-0.55957-1.69873-1.50977c0-0.49902,0.19971-0.87891,0.55957-1.09863
		c0.37988-0.21973,0.90967-0.31055,1.87891-0.31055h1.00928v-0.22949c0-0.85938-0.44971-1.3291-1.2793-1.3291
		c-0.61963,0-1.09912,0.26953-1.49902,0.81934l-0.49951-0.41992c0.5293-0.68945,1.16895-1.00879,2.00879-1.00879
		C14.45752,30.99316,15.17725,31.70215,15.17725,32.93164z M14.4873,33.79102v-0.06934h-0.94922
		c-0.90967,0-1.29932,0.05957-1.53906,0.24902c-0.18018,0.14062-0.27002,0.36035-0.27002,0.63965
		c0,0.5498,0.46973,0.90039,1.20947,0.90039C13.8877,35.51074,14.4873,34.84082,14.4873,33.79102z"/>
	<path d="M20.41748,31.62207l-3.2085,3.78809h3.18848V36h-4.09814v-0.5l3.27832-3.83789h-3.1084v-0.58984h3.94824V31.62207z"/>
	<path d="M21.66943,29.03418h0.79932v1.01953h-0.79932V29.03418z M21.72949,31.07227h0.68945V36h-0.68945V31.07227z"/>
	<path d="M27.90723,32.93164V36h-0.62988l-0.04004-0.75977c-0.38965,0.5498-0.98926,0.83984-1.76904,0.83984
		c-1.06934,0-1.69873-0.55957-1.69873-1.50977c0-0.49902,0.19971-0.87891,0.55957-1.09863
		c0.37988-0.21973,0.90967-0.31055,1.87891-0.31055h1.00928v-0.22949c0-0.85938-0.44971-1.3291-1.2793-1.3291
		c-0.61963,0-1.09912,0.26953-1.49902,0.81934l-0.49951-0.41992c0.5293-0.68945,1.16895-1.00879,2.00879-1.00879
		C27.1875,30.99316,27.90723,31.70215,27.90723,32.93164z M27.21729,33.79102v-0.06934h-0.94922
		c-0.90967,0-1.29932,0.05957-1.53906,0.24902c-0.18018,0.14062-0.27002,0.36035-0.27002,0.63965
		c0,0.5498,0.46973,0.90039,1.20947,0.90039C26.61768,35.51074,27.21729,34.84082,27.21729,33.79102z"/>
	<path d="M29.54932,34.93066v-5.89648h0.68945v5.85645c0,0.33984,0.12012,0.55957,0.44971,0.55957
		c0.1499,0,0.31982-0.04004,0.46973-0.08984l0.01025,0.58984c-0.20996,0.06934-0.45996,0.12988-0.67969,0.12988
		C29.91895,36.08008,29.54932,35.7002,29.54932,34.93066z"/>
	<path d="M36.18652,33.72168h-3.60791c0.02002,1.0791,0.61963,1.72852,1.58936,1.72852c0.53955,0,0.96924-0.13965,1.41895-0.61914
		L36.06689,35.25c-0.57959,0.61035-1.14941,0.83008-1.90918,0.83008c-1.49902,0-2.26855-1.11914-2.26855-2.51855
		c0-1.38965,0.75977-2.56836,2.18896-2.56836c1.50879,0,2.13867,1.17871,2.13867,2.29785
		C36.2168,33.43164,36.20654,33.60156,36.18652,33.72168z M32.57861,33.1416h2.97852c0-0.02051-0.01025-0.07031-0.01025-0.16016
		c-0.0498-0.7998-0.55957-1.40918-1.46875-1.40918C33.18848,31.57227,32.63867,32.27246,32.57861,33.1416z"/>
</g>
<g id="Group_285">
	<g id="Group_256" transform="translate(12 -32)">
		<path id="Path_97" fill="none" stroke="#5151FC" stroke-width="3.44" stroke-miterlimit="10" d="M24.57101,122.42101
			c7.65849-5.80973,10.83145-15.81078,7.923-24.973"/>
		<path id="Path_100" fill="none" stroke="#00C19C" stroke-width="3.44" stroke-miterlimit="10" d="M-8.92999,97.44801
			c-2.90845,9.16222,0.26451,19.16327,7.923,24.973"/>
		<path id="Path_101" fill="none" stroke="#FF6C39" stroke-width="3.44" stroke-miterlimit="10" d="M-1.12,122.42101
			c7.57599,5.69201,18.002,5.69201,25.578,0"/>
		<path id="Path_102" fill="none" stroke="#BBBBFF" stroke-width="3.44" stroke-miterlimit="10" d="M32.494,97.44801
			c-2.82062-9.09804-11.18739-15.33838-20.712-15.448"/>
		<path id="Path_103" fill="none" stroke="#FFA500" stroke-width="3.44" stroke-miterlimit="10" d="M11.78201,82.00002
			c-9.52461,0.10962-17.89138,6.34996-20.712,15.448"/>
	</g>
</g>
</svg>
