<?xml version="1.0" encoding="utf-8"?>
<!-- Generator: Adobe Illustrator 24.0.1, SVG Export Plug-In . SVG Version: 6.00 Build 0)  -->
<svg version="1.1" id="Livello_1" xmlns="http://www.w3.org/2000/svg" xmlns:xlink="http://www.w3.org/1999/xlink" x="0px" y="0px"
	 viewBox="0 0 137 115.8" style="enable-background:new 0 0 137 115.8;" xml:space="preserve">
<style type="text/css">
	.st0{fill:none;stroke:#444444;stroke-width:0.393;stroke-dasharray:2.986,2.986;}
	.st1{fill:none;stroke:#666666;stroke-width:3.44;}
	.st2{font-family:'HKGrotesk-Regular';}
	.st3{font-size:10px;}
	.st4{fill:none;stroke:#CCCCCC;stroke-width:3.44;}
	.st5{fill:none;stroke:#666666;stroke-width:3.929;}
	.st6{fill:#CCCCCC;stroke:#FFFFFF;stroke-width:1.2;}
	.st7{fill:#666666;stroke:#FFFFFF;stroke-width:1.2;}
	.st8{fill:none;stroke:#000000;stroke-width:0.393;}
</style>
<g id="Raggruppa_4037" transform="translate(-203.522 -1.955)">
	<g id="Group_291" transform="translate(0 17)">
		<line id="Line_131" class="st0" x1="227.6" y1="90.6" x2="227.6" y2="72.9"/>
		<line id="Line_104" class="st1" x1="267.5" y1="56.7" x2="294.6" y2="56.8"/>
		<text transform="matrix(1 0 0 1 203.522 18.281)" class="st2 st3">livello 1</text>
		<text transform="matrix(1 0 0 1 260.191 18.281)" class="st2 st3">2</text>
		<text transform="matrix(1 0 0 1 289.942 18.281)" class="st2 st3">3</text>
		<text transform="matrix(1 0 0 1 214.726 97.766)" class="st2 st3">luoghi</text>
		<path id="Path_74" class="st4" d="M238.6,68.3c-5.9,5.9-15.6,5.9-21.5,0s-5.9-15.6,0-21.5s15.6-5.9,21.5,0l0,0"/>
		<path id="Path_76" class="st1" d="M263.6,41.7c4.4,9.8,4.4,21-0.1,30.7"/>
		<path id="Path_77" class="st5" d="M260.9,38"/>
		<path id="Path_78" class="st1" d="M292.8,45.2c1.7,7.8,1.7,15.8,0,23.6"/>
		<path id="Path_79" class="st1" d="M238.6,46.8c5.9,5.9,6,15.5,0.1,21.5c0,0,0,0-0.1,0.1l0,0"/>
		<ellipse id="Ellipse_2" class="st6" cx="227.6" cy="42.3" rx="2.6" ry="2.6"/>
		<ellipse id="Ellipse_4" class="st6" cx="227.6" cy="72.9" rx="2.6" ry="2.6"/>
		<ellipse id="Ellipse_4-2" class="st6" cx="212.5" cy="56.3" rx="2.6" ry="2.6"/>
		<line id="Line_112" class="st1" x1="243.8" y1="56.5" x2="267.5" y2="56.7"/>
		<ellipse id="Ellipse_6" class="st7" cx="243" cy="56.3" rx="2.6" ry="2.6"/>
		<ellipse id="Ellipse_7" class="st7" cx="266.9" cy="56.8" rx="2.6" ry="2.6"/>
		<ellipse id="Ellipse_8" class="st6" cx="263.6" cy="72.9" rx="2.6" ry="2.6"/>
		<ellipse id="Ellipse_9" class="st7" cx="263.6" cy="42.3" rx="2.6" ry="2.6"/>
		<ellipse id="Ellipse_10" class="st6" cx="293.3" cy="44.3" rx="2.6" ry="2.6"/>
		<ellipse id="Ellipse_11" class="st7" cx="292.8" cy="67.1" rx="2.6" ry="2.6"/>
		<path id="Line_115" class="st8" d="M219.4,39.7V21.8"/>
		<line id="Line_116" class="st8" x1="263.6" y1="38" x2="263.6" y2="21.6"/>
		<line id="Line_117" class="st8" x1="293.3" y1="39.7" x2="293.3" y2="21.6"/>
	</g>
	<text transform="matrix(1 0 0 1 203.522 11.955)" class="st2 st3">Luoghi contenuti in altri luoghi</text>
</g>
</svg>
