<svg xmlns="http://www.w3.org/2000/svg" xmlns:xlink="http://www.w3.org/1999/xlink" width="904" height="56" viewBox="0 0 904 56">
  <defs>
    <clipPath id="clip-legend">
      <rect width="904" height="56"/>
    </clipPath>
  </defs>
  <g id="legend" clip-path="url(#clip-legend)">
    <g id="Layer_1" data-name="Layer 1" transform="translate(-0.88 1.35)">
      <g id="legend-2" data-name="legend">
        <rect id="Rectangle_19195" data-name="Rectangle 19195" width="7.94" height="4.5" transform="translate(166.79 25.86)" fill="#b6f5e7"/>
        <rect id="Rectangle_19196" data-name="Rectangle 19196" width="7.94" height="4.5" transform="translate(167.71 25.86)" fill="#aff3e4"/>
        <rect id="Rectangle_19197" data-name="Rectangle 19197" width="7.94" height="4.5" transform="translate(168.63 25.86)" fill="#a9f1e1"/>
        <rect id="Rectangle_19198" data-name="Rectangle 19198" width="7.94" height="4.5" transform="translate(169.55 25.86)" fill="#a2efdf"/>
        <rect id="Rectangle_19199" data-name="Rectangle 19199" width="7.94" height="4.5" transform="translate(170.47 25.86)" fill="#9beddc"/>
        <rect id="Rectangle_19200" data-name="Rectangle 19200" width="7.94" height="4.5" transform="translate(171.39 25.86)" fill="#94ebd9"/>
        <rect id="Rectangle_19201" data-name="Rectangle 19201" width="7.94" height="4.5" transform="translate(172.31 25.86)" fill="#8ee9d6"/>
        <rect id="Rectangle_19202" data-name="Rectangle 19202" width="7.94" height="4.5" transform="translate(173.24 25.86)" fill="#87e8d4"/>
        <rect id="Rectangle_19203" data-name="Rectangle 19203" width="7.94" height="4.5" transform="translate(174.16 25.86)" fill="#80e6d1"/>
        <rect id="Rectangle_19204" data-name="Rectangle 19204" width="7.94" height="4.5" transform="translate(175.08 25.86)" fill="#79e4ce"/>
        <rect id="Rectangle_19205" data-name="Rectangle 19205" width="7.94" height="4.5" transform="translate(176 25.86)" fill="#73e2cb"/>
        <rect id="Rectangle_19206" data-name="Rectangle 19206" width="7.94" height="4.5" transform="translate(176.92 25.86)" fill="#6ce0c8"/>
        <rect id="Rectangle_19207" data-name="Rectangle 19207" width="7.94" height="4.5" transform="translate(177.84 25.86)" fill="#65dec6"/>
        <rect id="Rectangle_19208" data-name="Rectangle 19208" width="7.94" height="4.5" transform="translate(178.76 25.86)" fill="#5edcc3"/>
        <rect id="Rectangle_19209" data-name="Rectangle 19209" width="7.94" height="4.5" transform="translate(179.68 25.86)" fill="#58dac0"/>
        <rect id="Rectangle_19210" data-name="Rectangle 19210" width="7.94" height="4.5" transform="translate(180.61 25.86)" fill="#51d8bd"/>
        <rect id="Rectangle_19211" data-name="Rectangle 19211" width="7.94" height="4.5" transform="translate(181.53 25.86)" fill="#4ad6bb"/>
        <rect id="Rectangle_19212" data-name="Rectangle 19212" width="7.94" height="4.5" transform="translate(182.45 25.86)" fill="#43d4b8"/>
        <rect id="Rectangle_19213" data-name="Rectangle 19213" width="7.94" height="4.5" transform="translate(183.37 25.86)" fill="#3dd2b5"/>
        <rect id="Rectangle_19214" data-name="Rectangle 19214" width="7.94" height="4.5" transform="translate(184.29 25.86)" fill="#36d0b2"/>
        <rect id="Rectangle_19215" data-name="Rectangle 19215" width="7.94" height="4.5" transform="translate(185.21 25.86)" fill="#2fceaf"/>
        <rect id="Rectangle_19216" data-name="Rectangle 19216" width="7.94" height="4.5" transform="translate(186.13 25.86)" fill="#28cdad"/>
        <rect id="Rectangle_19217" data-name="Rectangle 19217" width="7.94" height="4.5" transform="translate(187.05 25.86)" fill="#22cbaa"/>
        <rect id="Rectangle_19218" data-name="Rectangle 19218" width="7.94" height="4.5" transform="translate(187.98 25.86)" fill="#1bc9a7"/>
        <rect id="Rectangle_19219" data-name="Rectangle 19219" width="7.94" height="4.5" transform="translate(188.9 25.86)" fill="#14c7a4"/>
        <rect id="Rectangle_19220" data-name="Rectangle 19220" width="7.94" height="4.5" transform="translate(189.82 25.86)" fill="#0dc5a2"/>
        <rect id="Rectangle_19221" data-name="Rectangle 19221" width="7.94" height="4.5" transform="translate(190.74 25.86)" fill="#07c39f"/>
        <rect id="Rectangle_19222" data-name="Rectangle 19222" width="7.94" height="4.5" transform="translate(191.66 25.86)" fill="#00c19c"/>
        <path id="Path_161565" data-name="Path 161565" d="M1.035,0h.771V-3.115H2.969c1.338,0,2.207-.664,2.207-1.88,0-1.187-.869-1.9-2.207-1.9H1.035Zm.771-3.8V-6.211H2.969c.923,0,1.445.449,1.445,1.216,0,.8-.522,1.191-1.445,1.191ZM7.466.068A2.392,2.392,0,0,0,9.331-.693l-.5-.4a1.7,1.7,0,0,1-1.372.522A1.444,1.444,0,0,1,6.036-2.192h3.4c.01-.088.024-.249.024-.376,0-1.123-.488-2.378-2.07-2.378-1.416,0-2.119,1.226-2.119,2.534A2.211,2.211,0,0,0,7.466.068ZM6.036-2.788c.039-.83.459-1.558,1.353-1.558,1,0,1.353.776,1.372,1.558ZM10.313,0h.718V-2.437c0-1.177.5-1.846,1.333-1.846a.888.888,0,0,1,.6.186l.308-.63a1.268,1.268,0,0,0-.786-.254,1.572,1.572,0,0,0-1.44.967v-.864h-.728Zm4.829.1A1.861,1.861,0,0,0,16.979-1.2l-.635-.273a1.224,1.224,0,0,1-1.211.952c-1.021,0-1.362-1.021-1.362-1.914s.352-1.934,1.362-1.934a1.234,1.234,0,0,1,1.211.977l.688-.293a2,2,0,0,0-1.9-1.3c-1.406,0-2.109,1.24-2.109,2.549S13.737.1,15.143.1Zm4.38-.029a2.392,2.392,0,0,0,1.865-.762l-.5-.4a1.7,1.7,0,0,1-1.372.522,1.444,1.444,0,0,1-1.426-1.621h3.4c.01-.088.024-.249.024-.376,0-1.123-.488-2.378-2.07-2.378-1.416,0-2.119,1.226-2.119,2.534A2.211,2.211,0,0,0,19.523.068ZM18.092-2.788c.039-.83.459-1.558,1.353-1.558,1,0,1.353.776,1.372,1.558ZM22.37,0H23.1V-2.534c0-1.211.61-1.812,1.377-1.812.859,0,1.108.781,1.108,1.455V0h.723V-2.964c0-1.074-.474-2-1.636-2a1.752,1.752,0,0,0-1.572.938v-.85H22.37Zm6.421.1a1.966,1.966,0,0,0,.654-.1V-.625a1.164,1.164,0,0,1-.488.122c-.356,0-.62-.249-.62-.786V-4.282h1.235v-.6H28.337V-6.66l-.723.684v1.1h-.786v.6h.781v2.988C27.61-.459,27.927.1,28.791.1Zm2.676,0a1.821,1.821,0,0,0,1.714-1.04L33.2,0h.62V-2.993A1.8,1.8,0,0,0,31.907-4.98a2.164,2.164,0,0,0-1.841.957l.532.415a1.605,1.605,0,0,1,1.353-.737c.884,0,1.2.64,1.2,1.558H32.034c-1.387,0-2.148.454-2.148,1.431A1.43,1.43,0,0,0,31.468.1Zm.083-.615c-.508,0-.913-.239-.913-.82,0-.649.5-.9,1.465-.9h1.045A1.683,1.683,0,0,1,31.551-.518ZM36.688-.63c-.693-.1-1.3-.244-1.3-.747a.462.462,0,0,1,.21-.376,2.079,2.079,0,0,0,.918.205,1.661,1.661,0,0,0,1.8-1.68,1.761,1.761,0,0,0-.181-.791l.786-.62L38.5-5.156l-.732.664a1.855,1.855,0,0,0-1.26-.454,1.7,1.7,0,0,0-1.826,1.709,1.625,1.625,0,0,0,.41,1.113,1,1,0,0,0-.356.806,1.082,1.082,0,0,0,.62,1l-.7.708a1.287,1.287,0,0,0-.015.186c0,.928.835,1.66,2.1,1.66,1.025,0,1.953-.479,1.953-1.484C38.7-.352,37.679-.5,36.688-.63ZM36.5-4.37a1.059,1.059,0,0,1,1.079,1.118,1.023,1.023,0,0,1-1.079,1.1,1.019,1.019,0,0,1-1.074-1.1A1.066,1.066,0,0,1,36.5-4.37Zm.3,5.962c-.947,0-1.484-.5-1.489-1l.576-.7a4.948,4.948,0,0,0,.581.127c.835.142,1.577.166,1.577.791C38.05,1.338,37.449,1.592,36.8,1.592ZM41.356.068a2.392,2.392,0,0,0,1.865-.762l-.5-.4a1.7,1.7,0,0,1-1.372.522,1.444,1.444,0,0,1-1.426-1.621h3.4c.01-.088.024-.249.024-.376,0-1.123-.488-2.378-2.07-2.378-1.416,0-2.119,1.226-2.119,2.534A2.211,2.211,0,0,0,41.356.068ZM39.925-2.788c.039-.83.459-1.558,1.353-1.558,1,0,1.353.776,1.372,1.558ZM48.344.1a2.4,2.4,0,0,0,2.324-2.549A2.383,2.383,0,0,0,48.344-4.98a2.361,2.361,0,0,0-2.3,2.529A2.376,2.376,0,0,0,48.344.1Zm0-.605c-1.074,0-1.572-.957-1.572-1.943s.5-1.924,1.582-1.924,1.572.947,1.572,1.924S49.443-.508,48.349-.508ZM51.733,0h.728V-4.282h1.4v-.6h-1.4v-.781c0-.5.273-.728.649-.728a1.387,1.387,0,0,1,.571.151l.176-.581a1.825,1.825,0,0,0-.8-.186,1.225,1.225,0,0,0-1.318,1.3v.82h-.894v.6h.889Zm4.884-5.962h.83V-6.9h-.83ZM56.671,0h.723V-4.878h-.723Zm1.973,0h.728V-2.534c0-1.211.61-1.812,1.377-1.812.859,0,1.108.781,1.108,1.455V0h.723V-2.964c0-1.074-.474-2-1.636-2a1.752,1.752,0,0,0-1.572.938v-.85h-.728Zm6.221,0h.645l1.816-4.878h-.781L65.187-.947,63.839-4.878h-.8Zm4.727.068a2.392,2.392,0,0,0,1.865-.762l-.5-.4a1.7,1.7,0,0,1-1.372.522,1.444,1.444,0,0,1-1.426-1.621h3.4c.01-.088.024-.249.024-.376,0-1.123-.488-2.378-2.07-2.378-1.416,0-2.119,1.226-2.119,2.534A2.211,2.211,0,0,0,69.592.068ZM68.161-2.788c.039-.83.459-1.558,1.353-1.558,1,0,1.353.776,1.372,1.558ZM72.439,0h.728V-2.534c0-1.211.61-1.812,1.377-1.812.859,0,1.108.781,1.108,1.455V0h.723V-2.964c0-1.074-.474-2-1.636-2a1.752,1.752,0,0,0-1.572.938v-.85h-.728ZM78.86.1a1.966,1.966,0,0,0,.654-.1V-.625a1.164,1.164,0,0,1-.488.122c-.356,0-.62-.249-.62-.786V-4.282h1.235v-.6H78.406V-6.66l-.723.684v1.1H76.9v.6h.781v2.988C77.678-.459,78,.1,78.86.1ZM82.171.068a2.392,2.392,0,0,0,1.865-.762l-.5-.4a1.7,1.7,0,0,1-1.372.522A1.444,1.444,0,0,1,80.74-2.192h3.4c.01-.088.024-.249.024-.376,0-1.123-.488-2.378-2.07-2.378-1.416,0-2.119,1.226-2.119,2.534A2.211,2.211,0,0,0,82.171.068ZM80.74-2.788c.039-.83.459-1.558,1.353-1.558,1,0,1.353.776,1.372,1.558ZM88.148-6.9v2.686A1.746,1.746,0,0,0,86.62-4.98c-1.245,0-1.953,1.143-1.953,2.539S85.374.1,86.624.1a1.734,1.734,0,0,0,1.528-.776L88.167,0h.708V-6.9ZM86.81-.518c-.977,0-1.4-.928-1.4-1.924s.42-1.924,1.4-1.924c1,0,1.4.938,1.4,1.924S87.806-.518,86.81-.518Zm6.524-.02c-.22,0-.239-.264-.239-.278V-6.9h-.737V-.986c0,.586.054,1.084.791,1.084a2.381,2.381,0,0,0,.659-.1V-.586A2.891,2.891,0,0,1,93.334-.537ZM96.4.1a2.4,2.4,0,0,0,2.324-2.549A2.383,2.383,0,0,0,96.4-4.98a2.361,2.361,0,0,0-2.3,2.529A2.376,2.376,0,0,0,96.4.1Zm0-.605c-1.074,0-1.572-.957-1.572-1.943s.5-1.924,1.582-1.924,1.572.947,1.572,1.924S97.5-.508,96.406-.508ZM101.313.1A1.861,1.861,0,0,0,103.149-1.2l-.635-.273a1.224,1.224,0,0,1-1.211.952c-1.021,0-1.362-1.021-1.362-1.914s.352-1.934,1.362-1.934a1.234,1.234,0,0,1,1.211.977l.688-.293a2,2,0,0,0-1.9-1.3c-1.406,0-2.109,1.24-2.109,2.549S99.907.1,101.313.1Zm3.706,0a1.821,1.821,0,0,0,1.714-1.04l.015.942h.62V-2.993a1.8,1.8,0,0,0-1.909-1.987,2.164,2.164,0,0,0-1.841.957l.532.415a1.605,1.605,0,0,1,1.353-.737c.884,0,1.2.64,1.2,1.558h-1.113c-1.387,0-2.148.454-2.148,1.431A1.43,1.43,0,0,0,105.02.1Zm.083-.615c-.508,0-.913-.239-.913-.82,0-.649.5-.9,1.465-.9H106.7A1.683,1.683,0,0,1,105.1-.518ZM109.835.1a1.966,1.966,0,0,0,.654-.1V-.625A1.164,1.164,0,0,1,110-.5c-.356,0-.62-.249-.62-.786V-4.282h1.235v-.6h-1.235V-6.66l-.723.684v1.1h-.786v.6h.781v2.988C108.653-.459,108.971.1,109.835.1Zm1.495-6.06h.83V-6.9h-.83ZM111.383,0h.723V-4.878h-.723Zm3.872.1a2.4,2.4,0,0,0,2.324-2.549,2.383,2.383,0,0,0-2.324-2.529,2.361,2.361,0,0,0-2.3,2.529A2.376,2.376,0,0,0,115.255.1Zm0-.605c-1.074,0-1.572-.957-1.572-1.943s.5-1.924,1.582-1.924,1.572.947,1.572,1.924S116.354-.508,115.26-.508ZM118.42,0h.728V-2.534c0-1.211.61-1.812,1.377-1.812.859,0,1.108.781,1.108,1.455V0h.723V-2.964c0-1.074-.474-2-1.636-2a1.752,1.752,0,0,0-1.572.938v-.85h-.728Zm6.416.1a1.521,1.521,0,0,0,1.675-1.489c0-1.792-2.632-1.2-2.632-2.324,0-.4.327-.674.854-.674a1.15,1.15,0,0,1,1.089.688l.537-.308a1.733,1.733,0,0,0-1.6-.972,1.392,1.392,0,0,0-1.548,1.353c0,1.655,2.593,1.011,2.593,2.324,0,.527-.405.806-.957.806a1.237,1.237,0,0,1-1.216-.928l-.615.317A1.893,1.893,0,0,0,124.836.1Zm4.683-6.06h.83V-6.9h-.83ZM129.573,0h.723V-4.878h-.723Zm1.973,0h.728V-2.534c0-1.211.61-1.812,1.377-1.812.859,0,1.108.781,1.108,1.455V0h.723V-2.964c0-1.074-.474-2-1.636-2a1.752,1.752,0,0,0-1.572.938v-.85h-.728Zm8.443.1A1.821,1.821,0,0,0,141.7-.942l.015.942h.62V-2.993a1.8,1.8,0,0,0-1.909-1.987,2.164,2.164,0,0,0-1.841.957l.532.415a1.605,1.605,0,0,1,1.353-.737c.884,0,1.2.64,1.2,1.558h-1.113c-1.387,0-2.148.454-2.148,1.431A1.43,1.43,0,0,0,139.99.1Zm.083-.615c-.508,0-.913-.239-.913-.82,0-.649.5-.9,1.465-.9h1.045A1.683,1.683,0,0,1,140.073-.518ZM147.056.1a1.966,1.966,0,0,0,.654-.1V-.625a1.164,1.164,0,0,1-.488.122c-.356,0-.62-.249-.62-.786V-4.282h1.235v-.6H146.6V-6.66l-.723.684v1.1h-.786v.6h.781v2.988C145.874-.459,146.192.1,147.056.1Zm3.311-.029a2.392,2.392,0,0,0,1.865-.762l-.5-.4a1.7,1.7,0,0,1-1.372.522,1.444,1.444,0,0,1-1.426-1.621h3.4c.01-.088.024-.249.024-.376,0-1.123-.488-2.378-2.07-2.378-1.416,0-2.119,1.226-2.119,2.534A2.211,2.211,0,0,0,150.367.068Zm-1.431-2.856c.039-.83.459-1.558,1.353-1.558,1,0,1.353.776,1.372,1.558ZM152.56,0h.894l1.138-1.846L155.733,0h.869l-1.626-2.461L156.6-4.878h-.869l-1.143,1.807-1.138-1.807h-.894l1.646,2.417Zm6.1.1a1.966,1.966,0,0,0,.654-.1V-.625a1.164,1.164,0,0,1-.488.122c-.356,0-.62-.249-.62-.786V-4.282h1.235v-.6h-1.235V-6.66l-.723.684v1.1H156.7v.6h.781v2.988C157.482-.459,157.8.1,158.663.1ZM.82,12h.718V9.563c0-1.177.5-1.846,1.333-1.846a.888.888,0,0,1,.6.186l.308-.63a1.268,1.268,0,0,0-.786-.254,1.572,1.572,0,0,0-1.44.967V7.122H.82Zm4.9.068a2.392,2.392,0,0,0,1.865-.762l-.5-.4a1.7,1.7,0,0,1-1.372.522A1.444,1.444,0,0,1,4.292,9.808h3.4c.01-.088.024-.249.024-.376,0-1.123-.488-2.378-2.07-2.378-1.416,0-2.119,1.226-2.119,2.534A2.211,2.211,0,0,0,5.723,12.068ZM4.292,9.212c.039-.83.459-1.558,1.353-1.558,1,0,1.353.776,1.372,1.558Zm5.24,2.251c-.22,0-.239-.264-.239-.278V5.1H8.555v5.913c0,.586.054,1.084.791,1.084a2.381,2.381,0,0,0,.659-.1v-.586A2.891,2.891,0,0,1,9.532,11.463Zm2.3.635a1.821,1.821,0,0,0,1.714-1.04l.015.942h.62V9.007A1.8,1.8,0,0,0,12.267,7.02a2.164,2.164,0,0,0-1.841.957l.532.415a1.605,1.605,0,0,1,1.353-.737c.884,0,1.2.64,1.2,1.558H12.394c-1.387,0-2.148.454-2.148,1.431A1.43,1.43,0,0,0,11.827,12.1Zm.083-.615c-.508,0-.913-.239-.913-.82,0-.649.5-.9,1.465-.9h1.045A1.683,1.683,0,0,1,11.91,11.482Zm4.732.615A1.966,1.966,0,0,0,17.3,12v-.625a1.164,1.164,0,0,1-.488.122c-.356,0-.62-.249-.62-.786V7.718h1.235v-.6H16.188V5.34l-.723.684v1.1h-.786v.6h.781v2.988C15.461,11.541,15.778,12.1,16.642,12.1Zm1.495-6.06h.83V5.1h-.83ZM18.19,12h.723V7.122H18.19Zm3.15,0h.645L23.8,7.122H23.02l-1.357,3.931L20.315,7.122h-.8Zm4.727.068a2.392,2.392,0,0,0,1.865-.762l-.5-.4a1.7,1.7,0,0,1-1.372.522,1.444,1.444,0,0,1-1.426-1.621h3.4c.01-.088.024-.249.024-.376,0-1.123-.488-2.378-2.07-2.378-1.416,0-2.119,1.226-2.119,2.534A2.211,2.211,0,0,0,26.067,12.068ZM24.637,9.212c.039-.83.459-1.558,1.353-1.558,1,0,1.353.776,1.372,1.558ZM32.513,12.1a1.966,1.966,0,0,0,.654-.1v-.625a1.164,1.164,0,0,1-.488.122c-.356,0-.62-.249-.62-.786V7.718h1.235v-.6H32.059V5.34l-.723.684v1.1H30.55v.6h.781v2.988C31.332,11.541,31.649,12.1,32.513,12.1Zm3.389,0a2.4,2.4,0,0,0,2.324-2.549,2.321,2.321,0,1,0-4.624,0A2.376,2.376,0,0,0,35.9,12.1Zm0-.605c-1.074,0-1.572-.957-1.572-1.943s.5-1.924,1.582-1.924,1.572.947,1.572,1.924S37,11.492,35.907,11.492Zm6.759.605a1.966,1.966,0,0,0,.654-.1v-.625a1.164,1.164,0,0,1-.488.122c-.356,0-.62-.249-.62-.786V7.718h1.235v-.6H42.212V5.34l-.723.684v1.1H40.7v.6h.781v2.988C41.484,11.541,41.8,12.1,42.666,12.1Zm1.5-.1h.723V9.368a1.537,1.537,0,0,1,1.455-1.65c.84,0,1.035.728,1.035,1.392V12h.737V8.992c0-1.04-.474-1.958-1.641-1.958a1.9,1.9,0,0,0-1.587.889V5.1h-.723Zm6.9.068a2.392,2.392,0,0,0,1.865-.762l-.5-.4a1.7,1.7,0,0,1-1.372.522,1.444,1.444,0,0,1-1.426-1.621h3.4c.01-.088.024-.249.024-.376,0-1.123-.488-2.378-2.07-2.378-1.416,0-2.119,1.226-2.119,2.534A2.211,2.211,0,0,0,51.065,12.068ZM49.634,9.212c.039-.83.459-1.558,1.353-1.558,1,0,1.353.776,1.372,1.558ZM57.9,12.1A1.861,1.861,0,0,0,59.738,10.8L59.1,10.53a1.224,1.224,0,0,1-1.211.952c-1.021,0-1.362-1.021-1.362-1.914s.352-1.934,1.362-1.934a1.234,1.234,0,0,1,1.211.977l.688-.293a2,2,0,0,0-1.9-1.3c-1.406,0-2.109,1.24-2.109,2.549S56.5,12.1,57.9,12.1Zm3.706,0a1.821,1.821,0,0,0,1.714-1.04l.015.942h.62V9.007A1.8,1.8,0,0,0,62.048,7.02a2.164,2.164,0,0,0-1.841.957l.532.415a1.605,1.605,0,0,1,1.353-.737c.884,0,1.2.64,1.2,1.558H62.175c-1.387,0-2.148.454-2.148,1.431A1.43,1.43,0,0,0,61.608,12.1Zm.083-.615c-.508,0-.913-.239-.913-.82,0-.649.5-.9,1.465-.9h1.045A1.683,1.683,0,0,1,61.691,11.482Zm4.732.615a1.966,1.966,0,0,0,.654-.1v-.625a1.164,1.164,0,0,1-.488.122c-.356,0-.62-.249-.62-.786V7.718H67.2v-.6H65.969V5.34l-.723.684v1.1H64.46v.6h.781v2.988C65.241,11.541,65.559,12.1,66.423,12.1Zm3.311-.029a2.392,2.392,0,0,0,1.865-.762l-.5-.4a1.7,1.7,0,0,1-1.372.522A1.444,1.444,0,0,1,68.3,9.808h3.4c.01-.088.024-.249.024-.376,0-1.123-.488-2.378-2.07-2.378-1.416,0-2.119,1.226-2.119,2.534A2.211,2.211,0,0,0,69.734,12.068ZM68.3,9.212c.039-.83.459-1.558,1.353-1.558,1,0,1.353.776,1.372,1.558Zm6.031,2.158c-.693-.1-1.3-.244-1.3-.747a.462.462,0,0,1,.21-.376,2.079,2.079,0,0,0,.918.205,1.661,1.661,0,0,0,1.8-1.68,1.761,1.761,0,0,0-.181-.791l.786-.62-.415-.518-.732.664a1.855,1.855,0,0,0-1.26-.454,1.7,1.7,0,0,0-1.826,1.709,1.625,1.625,0,0,0,.41,1.113,1,1,0,0,0-.356.806,1.082,1.082,0,0,0,.62,1l-.7.708a1.287,1.287,0,0,0-.015.186c0,.928.835,1.66,2.1,1.66,1.025,0,1.953-.479,1.953-1.484C76.346,11.648,75.325,11.5,74.334,11.37Zm-.186-3.74a1.059,1.059,0,0,1,1.079,1.118,1.077,1.077,0,1,1-2.153,0A1.066,1.066,0,0,1,74.148,7.63Zm.3,5.962c-.947,0-1.484-.5-1.489-1l.576-.7a4.948,4.948,0,0,0,.581.127c.835.142,1.577.166,1.577.791C75.7,13.338,75.1,13.592,74.451,13.592ZM79.08,12.1A2.4,2.4,0,0,0,81.4,9.549a2.321,2.321,0,1,0-4.624,0A2.376,2.376,0,0,0,79.08,12.1Zm0-.605c-1.074,0-1.572-.957-1.572-1.943s.5-1.924,1.582-1.924,1.572.947,1.572,1.924S80.179,11.492,79.085,11.492Zm3.16.508h.718V9.563c0-1.177.5-1.846,1.333-1.846a.888.888,0,0,1,.6.186l.308-.63a1.268,1.268,0,0,0-.786-.254,1.572,1.572,0,0,0-1.44.967V7.122h-.728Zm4.043,2.1h.767l2.612-6.978h-.8l-1.387,3.989L86.054,7.122h-.806l1.875,4.854Zm3.843-6.626h.454L91.674,5.1h-.952ZM93.389,12.1a1.521,1.521,0,0,0,1.675-1.489c0-1.792-2.632-1.2-2.632-2.324,0-.4.327-.674.854-.674a1.15,1.15,0,0,1,1.089.688l.537-.308a1.733,1.733,0,0,0-1.6-.972,1.392,1.392,0,0,0-1.548,1.353c0,1.655,2.593,1.011,2.593,2.324,0,.527-.405.806-.957.806a1.237,1.237,0,0,1-1.216-.928l-.615.317A1.893,1.893,0,0,0,93.389,12.1Zm4.727-.1h.737V9.456c0-.884.435-1.816,1.245-1.816.835,0,1.025.776,1.025,1.45V12h.742V9.295c0-.8.435-1.655,1.235-1.655.845,0,1.045.806,1.045,1.47V12h.737V9.036c0-1.084-.488-2.017-1.694-2.017a1.618,1.618,0,0,0-1.519,1.021,1.529,1.529,0,0,0-2.817-.161V7.122h-.737Zm9.034.1a1.821,1.821,0,0,0,1.714-1.04l.015.942h.62V9.007a1.8,1.8,0,0,0-1.909-1.987,2.164,2.164,0,0,0-1.841.957l.532.415a1.605,1.605,0,0,1,1.353-.737c.884,0,1.2.64,1.2,1.558h-1.113c-1.387,0-2.148.454-2.148,1.431A1.43,1.43,0,0,0,107.15,12.1Zm.083-.615c-.508,0-.913-.239-.913-.82,0-.649.5-.9,1.465-.9h1.045A1.683,1.683,0,0,1,107.233,11.482Zm2.788.518h.894l1.138-1.846L113.195,12h.869l-1.626-2.461,1.626-2.417h-.869l-1.143,1.807-1.138-1.807h-.894l1.646,2.417Zm4.644-5.962h.83V5.1h-.83ZM114.719,12h.723V7.122h-.723Zm1.973,0h.737V9.456c0-.884.435-1.816,1.245-1.816.835,0,1.025.776,1.025,1.45V12h.742V9.295c0-.8.435-1.655,1.235-1.655.845,0,1.045.806,1.045,1.47V12h.737V9.036c0-1.084-.488-2.017-1.694-2.017a1.618,1.618,0,0,0-1.519,1.021,1.529,1.529,0,0,0-2.817-.161V7.122h-.737Zm9.361.107a1.736,1.736,0,0,0,1.533-.933V12h.723V7.122h-.723v2.7a1.566,1.566,0,0,1-1.455,1.67c-.835,0-1.025-.786-1.025-1.489V7.122h-.728V9.954C124.378,11.17,124.851,12.107,126.053,12.107Zm3.5-.107h.737V9.456c0-.884.435-1.816,1.245-1.816.835,0,1.025.776,1.025,1.45V12h.742V9.295c0-.8.435-1.655,1.235-1.655.845,0,1.045.806,1.045,1.47V12h.737V9.036c0-1.084-.488-2.017-1.694-2.017a1.618,1.618,0,0,0-1.519,1.021,1.529,1.529,0,0,0-2.817-.161V7.122h-.737Zm10.137,0h.728V9.466c0-1.211.61-1.812,1.377-1.812.859,0,1.108.781,1.108,1.455V12h.723V9.036c0-1.074-.474-2-1.636-2a1.752,1.752,0,0,0-1.572.938v-.85h-.728Zm6.529.107a1.736,1.736,0,0,0,1.533-.933V12h.723V7.122h-.723v2.7a1.566,1.566,0,0,1-1.455,1.67c-.835,0-1.025-.786-1.025-1.489V7.122h-.728V9.954C144.545,11.17,145.019,12.107,146.22,12.107Zm3.5-.107h.737V9.456c0-.884.435-1.816,1.245-1.816.835,0,1.025.776,1.025,1.45V12h.742V9.295c0-.8.435-1.655,1.235-1.655.845,0,1.045.806,1.045,1.47V12h.737V9.036c0-1.084-.488-2.017-1.694-2.017a1.618,1.618,0,0,0-1.519,1.021,1.529,1.529,0,0,0-2.817-.161V7.122h-.737Zm10.152.1c1.27,0,1.963-1.147,1.963-2.539s-.693-2.539-1.968-2.539a1.747,1.747,0,0,0-1.514.767V5.1h-.728V12h.728v-.664A1.747,1.747,0,0,0,159.873,12.1Zm-.19-.615c-.977,0-1.392-.928-1.392-1.924s.415-1.924,1.392-1.924,1.426.938,1.426,1.924S160.664,11.482,159.683,11.482Zm4.864.586a2.392,2.392,0,0,0,1.865-.762l-.5-.4a1.7,1.7,0,0,1-1.372.522,1.444,1.444,0,0,1-1.426-1.621h3.4c.01-.088.024-.249.024-.376,0-1.123-.488-2.378-2.07-2.378-1.416,0-2.119,1.226-2.119,2.534A2.211,2.211,0,0,0,164.546,12.068Zm-1.431-2.856c.039-.83.459-1.558,1.353-1.558,1,0,1.353.776,1.372,1.558ZM167.394,12h.718V9.563c0-1.177.5-1.846,1.333-1.846a.888.888,0,0,1,.6.186l.308-.63a1.268,1.268,0,0,0-.786-.254,1.572,1.572,0,0,0-1.44.967V7.122h-.728Z" transform="translate(208.55 30.83)"/>
        <text id="SIZE" transform="translate(0.88 10.65)" font-size="12" font-family="HKGrotesk-Medium, HK Grotesk" font-weight="500"><tspan x="0" y="0">SIZE</tspan></text>
        <path id="Path_161564" data-name="Path 161564" d="M4.453.117a3.622,3.622,0,0,0,3.5-2.291l-1.1-.463A2.318,2.318,0,0,1,4.482-1C2.572-1,1.793-2.443,1.793-4.184c0-1.67.773-3.105,2.666-3.105A2.226,2.226,0,0,1,6.838-5.672l1.1-.457A3.494,3.494,0,0,0,4.488-8.414C1.811-8.414.615-6.428.615-4.148.615-1.846,1.84.117,4.453.117Zm8.136,0c2.625,0,3.85-1.98,3.85-4.26S15.214-8.4,12.589-8.4,8.745-6.416,8.745-4.143,9.97.117,12.589.117Zm0-1.072c-1.893,0-2.625-1.512-2.625-3.187s.732-3.182,2.625-3.182,2.637,1.512,2.637,3.182S14.487-.955,12.589-.955Zm5.5.955h4.734V-1.107H19.278V-8.279H18.088Zm8.985.117c2.625,0,3.85-1.98,3.85-4.26S29.7-8.4,27.074-8.4,23.23-6.416,23.23-4.143,24.454.117,27.074.117Zm0-1.072c-1.893,0-2.625-1.512-2.625-3.187s.732-3.182,2.625-3.182S29.71-5.812,29.71-4.143,28.972-.955,27.074-.955ZM35.409.117c2.133,0,3.029-1.406,3.029-3.3V-8.279h-1.2v4.934c0,1.383-.41,2.32-1.834,2.32s-1.822-.937-1.822-2.32V-8.279H32.4v5.15C32.4-1.289,33.276.117,35.409.117ZM40.457.012h1.189V-3.627h1.189L44.892.012h1.377L44-3.762a2.181,2.181,0,0,0,1.7-2.15A2.453,2.453,0,0,0,42.97-8.273H40.457Zm1.2-4.664V-7.213h1.324c.92,0,1.535.492,1.535,1.313,0,.768-.562,1.207-1.406,1.248Z" transform="translate(166.02 10.65)"/>
        <g id="Group_24983" data-name="Group 24983" transform="translate(-52.294 286.157) rotate(-90)">
          <g id="Group_3998" data-name="Group 3998" transform="translate(235 98.297)">
            <g id="dimensione" transform="translate(0)">
              <g id="dimensione-X">
                <g id="Group-7">
                  <g id="Group">
                    <path id="Path" d="M283.97,99.9l-31.765.2" transform="translate(-252 -98.297)" fill="none" stroke="#444" stroke-width="0.5"/>
                    <rect id="Rectangle" width="1" height="3.3" transform="translate(31.665 0.003) rotate(-0.172)" fill="#444"/>
                    <rect id="Rectangle-2" width="1" height="3.3" transform="translate(0 0.203) rotate(-0.178)" fill="#444"/>
                  </g>
                </g>
              </g>
            </g>
          </g>
        </g>
        <g id="Layer_1-2" data-name="Layer 1" transform="translate(1 -2)">
          <g id="legend-3" data-name="legend">
            <ellipse id="S004" cx="5.47" cy="5.47" rx="5.47" ry="5.47" transform="translate(12.265 42.041)" fill="#fff" stroke="#000" stroke-miterlimit="10" stroke-width="0.5"/>
            <ellipse id="S004-2" data-name="S004" cx="16.165" cy="16.165" rx="16.165" ry="16.165" transform="translate(1.57 20.65)" fill="none" stroke="#000" stroke-miterlimit="10" stroke-width="0.5"/>
            <line id="Line_7808" data-name="Line 7808" x2="27.35" transform="translate(19.91 20.65)" fill="none" stroke="#000" stroke-miterlimit="10" stroke-width="0.25" stroke-dasharray="2.03 2.03"/>
            <line id="Line_7811" data-name="Line 7811" x2="27.35" transform="translate(19.91 52.98)" fill="none" stroke="#000" stroke-miterlimit="10" stroke-width="0.25" stroke-dasharray="2.03 2.03"/>
            <ellipse id="S004-3" data-name="S004" cx="11.411" cy="11.411" rx="11.411" ry="11.411" transform="translate(6.324 30.159)" fill="none" stroke="#000" stroke-miterlimit="10" stroke-width="0.5"/>
            <path id="Path_161563" data-name="Path 161563" d="M2.178.1A1.966,1.966,0,0,0,2.832,0V-.625A1.164,1.164,0,0,1,2.344-.5c-.356,0-.62-.249-.62-.786V-4.282H2.959v-.6H1.724V-6.66L1-5.977v1.1H.215v.6H1v2.988C1-.459,1.313.1,2.178.1ZM5.789.068A2.392,2.392,0,0,0,7.654-.693l-.5-.4a1.7,1.7,0,0,1-1.372.522A1.444,1.444,0,0,1,4.358-2.192h3.4c.01-.088.024-.249.024-.376,0-1.123-.488-2.378-2.07-2.378-1.416,0-2.119,1.226-2.119,2.534A2.211,2.211,0,0,0,5.789.068ZM4.358-2.788c.039-.83.459-1.558,1.353-1.558,1,0,1.353.776,1.372,1.558ZM8.281,0h.894l1.138-1.846L11.455,0h.869L10.7-2.461l1.626-2.417h-.869L10.313-3.071,9.175-4.878H8.281L9.927-2.461Zm6.4.1A1.966,1.966,0,0,0,15.34,0V-.625a1.164,1.164,0,0,1-.488.122c-.356,0-.62-.249-.62-.786V-4.282h1.235v-.6H14.231V-6.66l-.723.684v1.1h-.786v.6H13.5v2.988C13.5-.459,13.821.1,14.685.1Zm5.332-.635c-.22,0-.239-.264-.239-.278V-6.9h-.737V-.986c0,.586.054,1.084.791,1.084a2.381,2.381,0,0,0,.659-.1V-.586A2.891,2.891,0,0,1,20.018-.537Zm3.289.605a2.392,2.392,0,0,0,1.865-.762l-.5-.4A1.7,1.7,0,0,1,23.3-.571a1.444,1.444,0,0,1-1.426-1.621h3.4c.01-.088.024-.249.024-.376,0-1.123-.488-2.378-2.07-2.378-1.416,0-2.119,1.226-2.119,2.534A2.211,2.211,0,0,0,23.306.068ZM21.876-2.788c.039-.83.459-1.558,1.353-1.558,1,0,1.353.776,1.372,1.558ZM26.453,0h.728V-2.534c0-1.211.61-1.812,1.377-1.812.859,0,1.108.781,1.108,1.455V0h.723V-2.964c0-1.074-.474-2-1.636-2a1.752,1.752,0,0,0-1.572.938v-.85h-.728ZM33.57-.63c-.693-.1-1.3-.244-1.3-.747a.462.462,0,0,1,.21-.376,2.079,2.079,0,0,0,.918.205,1.661,1.661,0,0,0,1.8-1.68,1.761,1.761,0,0,0-.181-.791l.786-.62-.415-.518-.732.664a1.855,1.855,0,0,0-1.26-.454,1.7,1.7,0,0,0-1.826,1.709,1.625,1.625,0,0,0,.41,1.113,1,1,0,0,0-.356.806,1.082,1.082,0,0,0,.62,1l-.7.708a1.287,1.287,0,0,0-.015.186c0,.928.835,1.66,2.1,1.66,1.025,0,1.953-.479,1.953-1.484C35.582-.352,34.561-.5,33.57-.63Zm-.186-3.74a1.059,1.059,0,0,1,1.079,1.118,1.023,1.023,0,0,1-1.079,1.1,1.019,1.019,0,0,1-1.074-1.1A1.066,1.066,0,0,1,33.385-4.37Zm.3,5.962c-.947,0-1.484-.5-1.489-1l.576-.7a4.948,4.948,0,0,0,.581.127c.835.142,1.577.166,1.577.791C34.932,1.338,34.332,1.592,33.687,1.592ZM38.075.1a1.966,1.966,0,0,0,.654-.1V-.625a1.164,1.164,0,0,1-.488.122c-.356,0-.62-.249-.62-.786V-4.282h1.235v-.6H37.621V-6.66l-.723.684v1.1h-.786v.6h.781v2.988C36.893-.459,37.21.1,38.075.1Zm1.8-.1H40.6V-2.632a1.537,1.537,0,0,1,1.455-1.65c.84,0,1.035.728,1.035,1.392V0h.737V-3.008c0-1.04-.474-1.958-1.641-1.958a1.9,1.9,0,0,0-1.587.889V-6.9h-.723Z" transform="translate(50.52 42.94)"/>
          </g>
        </g>
      </g>
    </g>
  </g>
</svg>
