<svg id="Layer_1" data-name="Layer 1" xmlns="http://www.w3.org/2000/svg" xmlns:xlink="http://www.w3.org/1999/xlink" viewBox="0 0 127.616 129.05299">
  <g id="nebbiaColore">
    <g>
      <g>
        <g>
          <path d="M98.9957.0002a28.62,28.62,0,1,0,28.62,28.62,28.65257,28.65257,0,0,0-28.62-28.62" fill="#fffffa"/>
          <path d="M41.8893,32.215a41.8895,41.8895,0,1,0,41.889,41.89,41.93688,41.93688,0,0,0-41.889-41.89" fill="#fffffa"/>
          <g opacity="0.7">
            <g>
              <path d="M2.1735,74.10469a39.716,39.716,0,1,1,39.715,39.716,39.71521,39.71521,0,0,1-39.715-39.716" fill="#00c97c"/>
            </g>
          </g>
          <path d="M98.9957,86.86049a21.096,21.096,0,1,0,21.096,21.097,21.12079,21.12079,0,0,0-21.096-21.097" fill="#fffffa"/>
          <g opacity="0.5">
            <g>
              <path d="M80.0739,107.95719a18.922,18.922,0,1,1,18.922,18.922,18.92243,18.92243,0,0,1-18.922-18.922" fill="#00c97c"/>
            </g>
          </g>
          <path d="M72.5485,28.62029a26.447,26.447,0,1,1,26.447,26.447,26.44714,26.44714,0,0,1-26.447-26.447" fill="#00c97c"/>
        </g>
      </g>
    </g>
  </g>
</svg>
