<svg id="Layer_1" data-name="Layer 1" xmlns="http://www.w3.org/2000/svg" xmlns:xlink="http://www.w3.org/1999/xlink" viewBox="0 0 127.616 129.05299">
  <defs>
    <clipPath id="clip-path">
      <rect width="127.616" height="129.05299" fill="none"/>
    </clipPath>
  </defs>
  <g id="nebbia">
    <g clip-path="url(#clip-path)">
      <g clip-path="url(#clip-path)">
        <path d="M98.9954.0002a28.62,28.62,0,1,0,28.621,28.62A28.65256,28.65256,0,0,0,98.9954.0002" fill="#fffffa"/>
        <path d="M41.8899,32.215a41.8895,41.8895,0,1,0,41.888,41.89,41.93773,41.93773,0,0,0-41.888-41.89" fill="#fffffa"/>
        <circle cx="41.8891" cy="74.10469" r="39.716" fill="none" stroke="#5151fc" stroke-miterlimit="10"/>
        <path d="M98.9954,86.86049a21.096,21.096,0,1,0,21.096,21.097,21.12059,21.12059,0,0,0-21.096-21.097" fill="#fffffa"/>
        <circle cx="98.9955" cy="107.95719" r="18.922" fill="none" stroke="#5151fc" stroke-miterlimit="10"/>
        <path d="M72.5491,28.62029a26.4465,26.4465,0,1,1,26.446,26.447A26.44629,26.44629,0,0,1,72.5491,28.62029Z" fill="none" stroke="#5151fc" stroke-miterlimit="10"/>
      </g>
    </g>
  </g>
</svg>
