<?xml version="1.0" encoding="utf-8"?>
<!-- Generator: Adobe Illustrator 25.1.0, SVG Export Plug-In . SVG Version: 6.00 Build 0)  -->
<svg version="1.1" id="Livello_1" xmlns="http://www.w3.org/2000/svg" xmlns:xlink="http://www.w3.org/1999/xlink" x="0px" y="0px"
	 width="250.88px" height="193.23199px" viewBox="0 0 250.88 193.23199" style="enable-background:new 0 0 250.88 193.23199;"
	 xml:space="preserve">
<style type="text/css">
	.st0{clip-path:url(#SVGID_2_);}
	.st1{clip-path:url(#SVGID_4_);}
	.st2{fill:#5151FC;}
	.st3{fill:#C5C5FC;}
	.st4{fill:#00C19C;}
	.st5{fill:#C2FAEF;}
	.st6{fill:none;stroke:#000000;}
	.st7{enable-background:new    ;}
</style>
<g id="Raggruppa_24966" transform="translate(-0.037 1)">
	<g id="Group_24061" transform="translate(-2 -5)">
		<g id="Group_24062" transform="translate(0.675 19.357)">
			<g id="Group_23" transform="translate(-0.638)">
				<g>
					<g>
						<defs>
							<rect id="SVGID_1_" x="43.272" y="0" width="231.244" height="159.69701"/>
						</defs>
						<clipPath id="SVGID_2_">
							<use xlink:href="#SVGID_1_"  style="overflow:visible;"/>
						</clipPath>
						<g id="Scorri_gruppo_1" transform="translate(21.636)" class="st0">
							<g>
								<g>
									<defs>
										<rect id="SVGID_3_" x="0" y="0" width="236.244" height="159.69701"/>
									</defs>
									<clipPath id="SVGID_4_">
										<use xlink:href="#SVGID_3_"  style="overflow:visible;"/>
									</clipPath>
									<g id="Scroll_Group_2" class="st1">
										<g id="Group_20" transform="translate(-458.354 5.17)">
											<path id="Path_10" class="st2" d="M0,154.61201c43.389,0,43.389-10.54199,57.85201-10.54199h28.926
												c14.46301,0,14.46301-42.16801,28.926-42.16801s14.463,49.2,28.92599,49.2s14.463,3.51399,28.92599,3.51399
												s14.463-7.028,28.92599-7.028c14.46301,0,14.46301,7.028,28.92599,7.028s14.46301-14.056,28.92599-14.056
												s14.46301,10.54199,28.92599,10.54199s14.46301-17.569,28.92599-17.569s14.46301,21.086,28.92599,21.086
												s14.46301-3.51401,28.92599-3.51401s14.46301,3.51401,28.92599,3.51401s14.46103-63.258,28.92505-63.258
												s14.46301,56.22299,28.92599,56.22299c14.46295,0,14.46301,7.028,28.92603,7.028h57.85199
												c14.46301,0,14.46301-31.626,28.92603-31.626s14.46301,31.62601,28.92603,31.62601s14.46301-10.54199,28.92603-10.54199
												s14.46301,10.54199,28.92603,10.54199s14.46301-3.51401,28.92603-3.51401s14.46301,3.51401,28.92603,3.51401H781
												c14.46301,0,14.46301-10.54199,28.92603-10.54199s14.46301-17.56901,28.92603-17.56901
												s14.46301,28.11201,28.92603,28.11201h57.85199c14.46301,0,14.46301-7.028,28.92603-7.028
												s14.46301-3.51399,28.92603-3.51399c14.46295,0,14.46295,10.54199,28.92596,10.54199
												s14.46301-24.60001,28.92603-24.60001s14.46301,24.60001,28.92603,24.60001h57.85205
												c14.46301,0,14.46301-3.51401,28.92603-3.51401s14.46301,3.51401,28.92603,3.51401L0,154.61201z"/>
											<path id="Path_11" class="st3" d="M0,154.61201c43.389,0,43.389-10.54199,57.85201-10.54199h28.926
												c14.46301,0,14.46301-45.68102,28.926-45.68102s14.463,49.2,28.92599,49.2s14.463,7.028,28.92599,7.028
												s14.463-7.028,28.92599-7.028c14.46301,0,14.46301,7.028,28.92599,7.028s14.46301-14.06201,28.927-14.06201
												s14.46301,7.028,28.92599,7.028s14.46301-14.056,28.92599-14.056s14.46301,21.086,28.92599,21.086
												s14.46301-3.51399,28.92599-3.51399s14.46301,3.51401,28.92599,3.51401S419.42798,84.334,433.89096,84.334
												s14.46301,63.25101,28.92599,63.25101c14.46295,0,14.46301,7.028,28.92603,7.028h57.85699
												c14.46301,0,14.46301-45.68102,28.92603-45.68102s14.46301,45.68102,28.92603,45.68102
												s14.45496-14.05801,28.91998-14.05801s14.46301,14.056,28.92603,14.056s14.46301-7.028,28.92603-7.028
												s14.46301,7.028,28.92603,7.028H781c14.46301,0,14.46301-10.54199,28.92603-10.54199
												s14.46198-28.11402,28.92499-28.11402s14.46301,38.654,28.92603,38.654h28.92297
												c14.46301,0,14.46301-3.51401,28.92603-3.51401s14.46301-7.028,28.92603-7.028h28.92603
												c14.46295,0,14.46295,10.54201,28.92596,10.54201s14.46301-42.16801,28.92603-42.16801
												s14.46301,42.16801,28.92603,42.16801h28.92603c14.46301,0,14.46301-3.51401,28.92603-3.51401h57.85205v3.51401
												c-43.38904-3.51401-43.38904,0-57.85205,0h-57.85205c-14.46301,0-14.46301-24.60001-28.92603-24.60001
												s-14.46301,24.60001-28.92603,24.60001S997.94006,144.067,983.47803,144.067s-14.46301,3.51401-28.92603,3.51401
												s-14.46301,7.028-28.92603,7.028h-57.849c-14.46301,0-14.46301-28.11201-28.92603-28.11201
												s-14.46301,17.56901-28.92603,17.56901S795.46198,154.61,781,154.61h-57.85199
												c-14.46301,0-14.46301-3.51401-28.92603-3.51401S679.75897,154.61,665.29596,154.61
												s-14.46301-10.54199-28.92603-10.54199S621.90692,154.61,607.44391,154.61s-14.46301-31.62601-28.92603-31.62601
												S564.05487,154.61,549.59186,154.61h-57.85187c-14.46301,0-14.46301-7.028-28.92599-7.028
												S448.35199,91.355,433.888,91.355s-14.46301,63.251-28.92599,63.251s-14.46301-3.51401-28.92599-3.51401
												S361.573,154.606,347.11002,154.606S332.647,133.52,318.18402,133.52s-14.46301,17.569-28.92599,17.569
												s-14.45804-10.534-28.92502-10.534s-14.46301,14.056-28.92599,14.056s-14.46301-7.028-28.92599-7.028
												s-14.463,7.028-28.92599,7.028s-14.463-3.51401-28.92599-3.51401s-14.463-49.2-28.92599-49.2
												s-14.463,42.16801-28.926,42.16801H57.852c-14.463,0-14.463,10.54201-28.926,10.54201L0,154.61201z"/>
											<path id="Path_12" class="st4" d="M0,154.61301c43.389,0,43.389-10.54201,57.85201-10.54201s14.463-7.028,28.926-7.028
												s14.46301-59.737,28.926-59.737s14.463,70.27901,28.92599,70.27901s14.463,3.51401,28.92599,3.51401
												s14.463-3.51401,28.92599-3.51401c14.46301,0,14.46301,7.028,28.92599,7.028s14.46301-28.112,28.92599-28.112
												s14.466,7.02699,28.927,7.02699s14.46301-3.51401,28.92599-3.51401s14.46301,24.60001,28.92599,24.60001
												s14.46301-3.51401,28.92599-3.51401s14.46301-3.51401,28.92599-3.51401s14.46301-94.877,28.92599-94.877
												s14.46301,94.877,28.92599,94.877c14.46295,0,14.46301,7.028,28.92603,7.028h57.85699
												c14.46301,0,14.46301-52.709,28.92603-52.709s14.46301,17.569,28.92603,17.569s14.45795,14.05402,28.92096,14.05402
												s14.46301,17.569,28.92603,17.569s14.46301-14.056,28.92603-14.056s14.46301,14.056,28.92603,14.056
												s14.46301,3.51401,28.92603,3.51401H781c14.46301,0,14.46301-10.54199,28.92603-10.54199
												s14.46301-42.168,28.92603-42.168s14.46301,45.681,28.92603,45.681s14.46301,7.028,28.92603,7.028
												s14.46301-7.028,28.92603-7.028s14.46301-3.51401,28.92603-3.51401s14.46301-3.51401,28.92603-3.51401
												s14.46301,14.056,28.92603,14.056s14.46301-105.418,28.92603-105.418s14.46301,94.877,28.92603,94.877
												s14.46301,10.54201,28.92603,10.54201s14.46301-3.51401,28.92603-3.51401s14.46301-10.54199,28.92603-10.54199
												s14.46301,10.54199,28.92603,10.54199h-57.85205c-14.46399,0-14.46399,3.51401-28.92603,3.51401h-28.92603
												c-14.46301,0-14.46301-42.168-28.92603-42.168s-14.46301,42.168-28.92603,42.168s-14.46399-10.54199-28.92603-10.54199
												h-28.92719c-14.46301,0-14.46301,7.028-28.92603,7.028s-14.46301,3.51399-28.92603,3.51399h-28.92596
												c-14.46301,0-14.46301-38.65399-28.92603-38.65399s-14.46301,28.112-28.92603,28.112S795.46198,154.61301,781,154.61301
												h-57.85199c-14.46301,0-14.46301-7.028-28.92603-7.028s-14.46301,7.028-28.92603,7.028s-14.46301-14.056-28.92603-14.056
												s-14.46301,14.056-28.92603,14.056s-14.46289-45.68501-28.9259-45.68501s-14.46301,45.681-28.92603,45.681h-57.85199
												c-14.46301,0-14.46301-7.028-28.92599-7.028s-14.46301-63.248-28.92499-63.248s-14.46301,70.27899-28.92599,70.27899
												s-14.46301-3.51401-28.92599-3.51401s-14.46301,3.51401-28.92599,3.51401S332.64801,133.528,318.185,133.528
												s-14.46301,14.056-28.92599,14.056s-14.46301-7.028-28.92599-7.028s-14.46301,14.056-28.92599,14.056
												s-14.46301-7.028-28.92599-7.028s-14.463,7.028-28.92599,7.028s-14.463-7.028-28.92599-7.028s-14.463-49.2-28.92599-49.2
												s-14.461,45.67599-28.925,45.67599H57.852c-14.463,0-14.463,10.54201-28.926,10.54201L0,154.61301z"/>
											<path id="Path_13" class="st5" d="M0,154.61301c43.389,0,43.389-10.54201,57.85201-10.54201
												s14.463-10.54199,28.926-10.54199S101.241,70.277,115.7,70.277s14.46701,77.31001,28.93001,77.31001
												s14.463-3.51399,28.92599-3.51399s14.463,3.51401,28.92599,3.51401c14.46301,0,14.46301,7.028,28.92599,7.028
												s14.46301-28.11201,28.92599-28.11201s14.46301,3.514,28.92599,3.514h28.92599
												c14.46301,0,14.46301,24.60001,28.92599,24.60001s14.46301-3.51401,28.92599-3.51401s14.46301-7.028,28.92599-7.028
												s14.46301-98.39101,28.92599-98.39101s14.46301,94.877,28.92599,94.877s14.46298,14.056,28.92599,14.056h28.92603
												c14.46301,0,14.46301-3.51401,28.92603-3.51401s14.46301-56.223,28.92603-56.223s14.46301,21.086,28.92603,21.086
												s14.46301-7.028,28.92603-7.028S650.83508,151.106,665.2981,151.106s14.46301-17.569,28.92603-17.569
												s14.46301,17.569,28.92603,17.569s14.46301,3.51399,28.92603,3.51399H781c14.46301,0,14.46301-14.056,28.92603-14.056
												s14.46301-56.223,28.92603-56.223s14.46198,63.24599,28.92493,63.24599h28.92303
												c14.46301,0,14.46301-7.028,28.92603-7.028h57.85199c14.46301,0,14.46301,14.056,28.92603,14.056
												s14.46301-154.614,28.92603-154.614s14.46301,144.073,28.92603,144.073s14.46301,3.51399,28.92603,3.51399
												s14.46301-3.51401,28.92603-3.51401s14.46301-14.056,28.92603-14.056s14.46301,21.086,28.92603,21.086l0,0
												c-43.38904-10.54199-43.38904,0-57.85205,0s-14.46301,3.51401-28.92603,3.51401s-14.46301-10.54199-28.92603-10.54199
												S1055.79309,49.199,1041.33008,49.199s-14.46301,105.418-28.92603,105.418s-14.46399-14.056-28.92603-14.056
												S969.01501,144.075,954.552,144.075s-14.46301,3.51401-28.92603,3.51401s-14.46301,7.028-28.92603,7.028
												s-14.45996-7.03-28.92297-7.03S853.31396,101.906,838.85095,101.906s-14.46301,42.16801-28.92603,42.16801
												S795.46198,154.617,781,154.617h-28.927c-14.46301,0-14.46301-3.51399-28.92603-3.51399
												s-14.46301-14.056-28.92603-14.056s-14.46301,14.056-28.92603,14.056s-14.46301-17.569-28.92603-17.569
												S621.90588,119.478,607.44287,119.478s-14.46301-17.569-28.92603-17.569s-14.46301,52.70901-28.92603,52.70901h-57.85083
												c-14.46301,0-14.46301-7.028-28.92599-7.028s-14.46301-94.877-28.92599-94.877s-14.46201,94.87399-28.92599,94.87399
												s-14.46301,3.51399-28.92599,3.51399s-14.46301,3.51401-28.92599,3.51401S332.647,130.015,318.18402,130.015
												s-14.46301,3.51401-28.92599,3.51401s-14.46301-7.02801-28.92599-7.02801s-14.46301,28.11201-28.92599,28.11201
												s-14.46304-7.026-28.92604-7.026S188.017,151.101,173.554,151.101s-14.463-3.51401-28.92599-3.51401
												s-14.463-70.279-28.92599-70.279s-14.463,59.73701-28.926,59.73701s-14.463,7.028-28.926,7.028
												S43.387,154.617,28.923,154.617L0,154.61301z"/>
										</g>
									</g>
								</g>
							</g>
						</g>
					</g>
				</g>
				<path id="Path_14" class="st6" d="M251.96201,159.774H21.173"/>
				<line id="Line_23" class="st6" x1="54.769" y1="159.782" x2="54.769" y2="162.547"/>
				<line id="Line_24" class="st6" x1="199.257" y1="159.782" x2="199.257" y2="162.547"/>
			</g>
		</g>
		<g class="st7">
			<path d="M23.05653,7.03436v6.96582h-0.7793l-3.42822-5.75684v5.75684h-0.70996V7.03436h0.77002l3.43799,5.72656V7.03436H23.05653
				z"/>
			<path d="M28.91688,9.07245v4.92773h-0.68945v-0.70996c-0.34961,0.53027-0.97949,0.79004-1.62891,0.79004
				c-1.11963,0-1.60938-0.76953-1.60938-1.98926V9.07245h0.68945v2.84863c0,0.7998,0.14014,1.5498,1.07959,1.5498
				c0.97949,0,1.46924-0.84961,1.46924-2.12891V9.07245H28.91688z"/>
			<path d="M37.49549,10.92206v3.07812h-0.68994v-2.88867c0-0.41992,0-1.50879-1.0791-1.50879
				c-0.99951,0-1.26953,0.91895-1.26953,2.02832v2.36914h-0.68945v-2.84863c0-0.81934-0.25-1.54883-1.10938-1.54883
				c-0.95947,0-1.22949,0.90918-1.22949,2.02832v2.36914h-0.68945L30.7289,9.07245h0.66992v0.60059
				c0.30957-0.49023,0.80957-0.67969,1.35888-0.67969c0.68994,0,1.19971,0.2998,1.44922,0.94922
				c0.31982-0.62988,0.86963-0.94922,1.61914-0.94922C37.00575,8.99335,37.49549,9.77264,37.49549,10.92206z"/>
			<path d="M43.70643,11.53143c0,1.46973-0.74951,2.54883-2.18896,2.54883c-0.71924,0-1.26904-0.28027-1.62891-0.73926v0.65918
				h-0.68945V7.03436h0.68945V9.7326c0.36963-0.47949,0.92969-0.75,1.62891-0.75C42.8871,8.9826,43.70643,9.99237,43.70643,11.53143
				z M43.01698,11.53143c0-1.16895-0.59961-1.93848-1.59912-1.93848c-0.98975,0-1.58936,0.76953-1.58936,1.93848
				c0,1.11914,0.5498,1.93945,1.58936,1.93945C42.46717,13.47089,43.01698,12.65057,43.01698,11.53143z"/>
			<path d="M49.03651,11.72186H45.4286c0.02002,1.0791,0.61963,1.72852,1.58936,1.72852c0.53955,0,0.96924-0.13965,1.41895-0.61914
				l0.47998,0.41895c-0.57959,0.61035-1.14941,0.83008-1.90918,0.83008c-1.49902,0-2.26855-1.11914-2.26855-2.51855
				c0-1.38965,0.75977-2.56836,2.18896-2.56836c1.50879,0,2.13867,1.17871,2.13867,2.29785
				C49.06678,11.43182,49.05653,11.60175,49.03651,11.72186z M45.4286,11.14178h2.97852c0-0.02051-0.01025-0.07031-0.01025-0.16016
				c-0.0498-0.7998-0.55957-1.40918-1.46875-1.40918C46.03846,9.57245,45.48866,10.27264,45.4286,11.14178z"/>
			<path d="M53.45741,9.20331l-0.33984,0.55957c-0.22949-0.10059-0.43945-0.15039-0.64941-0.15039
				c-0.75977,0-1.31934,0.56934-1.31934,1.63965v2.74805h-0.68945V9.07245h0.68945v0.74023
				c0.35986-0.64941,0.95947-0.81934,1.45898-0.81934C52.90809,8.99335,53.18788,9.05292,53.45741,9.20331z"/>
			<path d="M56.77919,11.53143c0-1.45898,0.94922-2.53809,2.3584-2.53809c1.39941,0,2.36865,1.0791,2.36865,2.53809
				c0,1.44922-0.95947,2.54883-2.36865,2.54883S56.77919,12.99042,56.77919,11.53143z M60.81678,11.53143
				c0-1.11914-0.62988-1.92871-1.6792-1.92871c-1.05957,0-1.66895,0.81934-1.66895,1.92871
				c0,1.11914,0.61963,1.93945,1.66895,1.93945C60.19715,13.47089,60.81678,12.63104,60.81678,11.53143z"/>
			<path d="M63.19862,9.65253h-1.03955V9.07245h1.04932V8.31366c0-1.0498,0.60986-1.35938,1.23926-1.35938
				c0.27002,0,0.56982,0.05957,0.87988,0.18945l-0.24023,0.5498c-0.20996-0.09961-0.39941-0.16016-0.56934-0.16016
				c-0.39014,0-0.62989,0.27051-0.62989,0.72949v0.80957h1.41944v0.58008h-1.41944v4.34766h-0.68945V9.65253z"/>
			<path d="M68.68935,11.53143c0-1.45898,0.94922-2.53809,2.3584-2.53809c1.39941,0,2.36865,1.0791,2.36865,2.53809
				c0,1.44922-0.95947,2.54883-2.36865,2.54883S68.68935,12.99042,68.68935,11.53143z M72.72694,11.53143
				c0-1.11914-0.62988-1.92871-1.6792-1.92871c-1.05957,0-1.66895,0.81934-1.66895,1.92871
				c0,1.11914,0.61963,1.93945,1.66895,1.93945C72.10732,13.47089,72.72694,12.63104,72.72694,11.53143z"/>
			<path d="M74.39833,11.55194c0-1.2998,0.72998-2.55859,2.21875-2.55859c0.87988,0,1.60938,0.43945,1.99902,1.3584
				l-0.65967,0.26074c-0.22949-0.62988-0.71924-1.00977-1.33936-1.00977c-1.04932,0-1.51904,0.93945-1.51904,1.94922
				c0,1.00879,0.46973,1.91895,1.5293,1.91895c0.61963,0,1.10938-0.37012,1.29932-1l0.63965,0.24023
				c-0.33008,0.89941-1.04932,1.36914-1.93896,1.36914C75.19814,14.08026,74.39833,12.92108,74.39833,11.55194z"/>
			<path d="M79.4286,11.55194c0-1.2998,0.72998-2.55859,2.21875-2.55859c0.87988,0,1.60938,0.43945,1.99902,1.3584l-0.65967,0.26074
				c-0.22949-0.62988-0.71924-1.00977-1.33936-1.00977c-1.04932,0-1.51904,0.93945-1.51904,1.94922
				c0,1.00879,0.46973,1.91895,1.5293,1.91895c0.61963,0,1.10938-0.37012,1.29932-1l0.63965,0.24023
				c-0.33008,0.89941-1.04932,1.36914-1.93896,1.36914C80.22841,14.08026,79.4286,12.92108,79.4286,11.55194z"/>
			<path d="M88.67616,9.07245v4.92773h-0.68945v-0.70996c-0.3501,0.53027-0.97949,0.79004-1.62939,0.79004
				c-1.11914,0-1.60889-0.76953-1.60889-1.98926V9.07245h0.68945v2.84863c0,0.7998,0.14014,1.5498,1.07959,1.5498
				c0.97949,0,1.46924-0.84961,1.46924-2.12891V9.07245H88.67616z"/>
			<path d="M93.49648,9.20331l-0.33984,0.55957c-0.22949-0.10059-0.43945-0.15039-0.64941-0.15039
				c-0.75977,0-1.31934,0.56934-1.31934,1.63965v2.74805h-0.68945V9.07245h0.68945v0.74023
				c0.35986-0.64941,0.95947-0.81934,1.45898-0.81934C92.94716,8.99335,93.22694,9.05292,93.49648,9.20331z"/>
			<path d="M97.51649,9.20331l-0.33984,0.55957c-0.22949-0.10059-0.43945-0.15039-0.64941-0.15039
				c-0.75977,0-1.31934,0.56934-1.31934,1.63965v2.74805h-0.68945V9.07245h0.68945v0.74023
				c0.35986-0.64941,0.95947-0.81934,1.45898-0.81934C96.96669,8.99335,97.24696,9.05292,97.51649,9.20331z"/>
			<path d="M101.98622,11.72186h-3.60791c0.02002,1.0791,0.61963,1.72852,1.58936,1.72852
				c0.53955,0,0.96924-0.13965,1.41895-0.61914l0.47998,0.41895c-0.57959,0.61035-1.14941,0.83008-1.90918,0.83008
				c-1.49902,0-2.26855-1.11914-2.26855-2.51855c0-1.38965,0.75977-2.56836,2.18896-2.56836
				c1.50879,0,2.13867,1.17871,2.13867,2.29785C102.01649,11.43182,102.00624,11.60175,101.98622,11.72186z M98.37831,11.14178
				h2.97852c0-0.02051-0.01025-0.07031-0.01025-0.16016c-0.0498-0.7998-0.55957-1.40918-1.46875-1.40918
				C98.98817,9.57245,98.43837,10.27264,98.37831,11.14178z"/>
			<path d="M107.33632,10.98163v3.01855h-0.68945v-2.84863c0-1.05957-0.33984-1.54883-1.07959-1.54883
				c-0.92969,0-1.46924,0.7998-1.46924,2.18848v2.20898h-0.68945V9.07245h0.68945v0.71973
				c0.31982-0.49902,0.91943-0.79883,1.62891-0.79883C106.78651,8.99335,107.33632,9.67303,107.33632,10.98163z"/>
			<path d="M108.62831,11.55194c0-1.2998,0.72998-2.55859,2.21924-2.55859c0.87939,0,1.60889,0.43945,1.99854,1.3584
				l-0.65967,0.26074c-0.22949-0.62988-0.71924-1.00977-1.33887-1.00977c-1.0498,0-1.51953,0.93945-1.51953,1.94922
				c0,1.00879,0.46973,1.91895,1.5293,1.91895c0.61963,0,1.10938-0.37012,1.29932-1l0.63965,0.24023
				c-0.33008,0.89941-1.04932,1.36914-1.93896,1.36914C109.42812,14.08026,108.62831,12.92108,108.62831,11.55194z"/>
			<path d="M117.96571,11.72186h-3.60791c0.02002,1.0791,0.61963,1.72852,1.58936,1.72852
				c0.53955,0,0.96924-0.13965,1.41895-0.61914l0.47998,0.41895c-0.57959,0.61035-1.14941,0.83008-1.90918,0.83008
				c-1.49902,0-2.26855-1.11914-2.26855-2.51855c0-1.38965,0.75977-2.56836,2.18896-2.56836
				c1.50879,0,2.13867,1.17871,2.13867,2.29785C117.99599,11.43182,117.98573,11.60175,117.96571,11.72186z M114.3578,11.14178
				h2.97852c0-0.02051-0.01025-0.07031-0.01025-0.16016c-0.0498-0.7998-0.55957-1.40918-1.46875-1.40918
				C114.96767,9.57245,114.41786,10.27264,114.3578,11.14178z"/>
			<path d="M118.85878,12.7912l0.57959-0.25977c0.17969,0.50977,0.65967,0.93945,1.4292,0.93945
				c0.66943,0,1.09961-0.33008,1.09961-0.84961c0-1.30957-2.83887-0.49023-2.83887-2.23926
				c0-0.85938,0.69971-1.38867,1.68945-1.38867c0.78955,0,1.4292,0.3291,1.76904,1.0293l-0.5498,0.2998
				c-0.23975-0.44043-0.62988-0.71973-1.23926-0.71973c-0.60986,0-0.99951,0.25-0.99951,0.67969
				c0,1.16895,2.84814,0.42969,2.84814,2.29883c0,0.99902-0.81934,1.49902-1.76855,1.49902
				C119.9081,14.08026,119.11855,13.58026,118.85878,12.7912z"/>
		</g>
	</g>
	<g class="st7">
		<path d="M45.72401,182.26581v6.96582h-0.68994v-5.16699H43.2953v-0.67969h1.15918c0.34961,0,0.57959-0.12012,0.57959-0.53027
			v-0.58887H45.72401z"/>
		<path d="M52.93299,184.49432c0,0.42969-0.14014,0.87988-0.35986,1.23926l-2.09912,3.49805h-0.7793l1.60889-2.61816
			c-0.35986,0.12988-0.79932,0.19922-1.229,0.11914c-1.0498-0.18945-1.87891-1.10938-1.87891-2.22852
			c0-1.26953,1.05908-2.31836,2.36865-2.31836C51.86366,182.18573,52.93299,183.22479,52.93299,184.49432z M52.23329,184.50409
			c0-0.90918-0.73975-1.65918-1.66895-1.65918c-0.91943,0-1.66943,0.75-1.66943,1.65918s0.75,1.64941,1.66943,1.64941
			S52.23329,185.41327,52.23329,184.50409z"/>
		<path d="M58.57264,186.99335c0,1.26855-1.05908,2.31836-2.36865,2.31836c-1.29932,0-2.36865-1.03906-2.36865-2.30859
			c0-0.42969,0.14014-0.87988,0.35986-1.23926l2.09863-3.49805h0.77979l-1.60938,2.61816
			c0.35986-0.12988,0.7998-0.2002,1.22949-0.12012C57.74305,184.95428,58.57264,185.87323,58.57264,186.99335z M57.87294,186.99335
			c0-0.91016-0.74951-1.64941-1.66895-1.64941s-1.66895,0.73926-1.66895,1.64941c0,0.90918,0.73975,1.6582,1.66895,1.6582
			C57.12342,188.65155,57.87294,187.90253,57.87294,186.99335z"/>
		<path d="M59.68495,185.75311c0-1.6582,0.3501-3.58789,2.15918-3.58789c1.64893,0,2.21875,1.68945,2.21875,3.59863
			c0,1.9082-0.55957,3.56738-2.14893,3.56738C60.05507,189.33124,59.68495,187.41229,59.68495,185.75311z M63.32313,185.75311
			c0-1.6084-0.30957-2.92773-1.479-2.92773c-1.21924,0-1.44922,1.42871-1.44922,2.92773c0,1.46973,0.22998,2.91895,1.49902,2.91895
			C63.02333,188.67206,63.32313,187.33221,63.32313,185.75311z"/>
	</g>
	<g class="st7">
		<path d="M190.35341,182.26581v6.96582h-0.69043v-5.16699h-1.73828v-0.67969h1.15918c0.34961,0,0.5791-0.12012,0.5791-0.53027
			v-0.58887H190.35341z"/>
		<path d="M197.56239,184.49432c0,0.42969-0.14062,0.87988-0.36035,1.23926l-2.09863,3.49805h-0.7793l1.6084-2.61816
			c-0.35938,0.12988-0.79883,0.19922-1.22852,0.11914c-1.0498-0.18945-1.87891-1.10938-1.87891-2.22852
			c0-1.26953,1.05859-2.31836,2.36816-2.31836C196.49306,182.18573,197.56239,183.22479,197.56239,184.49432z M196.8622,184.50409
			c0-0.90918-0.73926-1.65918-1.66895-1.65918c-0.91895,0-1.66895,0.75-1.66895,1.65918s0.75,1.64941,1.66895,1.64941
			C196.11317,186.1535,196.8622,185.41327,196.8622,184.50409z"/>
		<path d="M203.20204,186.99335c0,1.26855-1.05957,2.31836-2.36914,2.31836c-1.29883,0-2.36816-1.03906-2.36816-2.30859
			c0-0.42969,0.13965-0.87988,0.35938-1.23926l2.09863-3.49805h0.78027l-1.60938,2.61816
			c0.35938-0.12988,0.7998-0.2002,1.22949-0.12012C202.37196,184.95428,203.20204,185.87323,203.20204,186.99335z
			 M202.50185,186.99335c0-0.91016-0.74902-1.64941-1.66895-1.64941c-0.91895,0-1.66895,0.73926-1.66895,1.64941
			c0,0.90918,0.74023,1.6582,1.66895,1.6582C201.75282,188.65155,202.50185,187.90253,202.50185,186.99335z"/>
		<path d="M208.89149,186.87323c0,1.31934-1.0293,2.43848-2.41797,2.43848c-1.25977,0-2.16895-0.88965-2.36914-2.00879
			l0.67969-0.11035c0.15039,0.83984,0.7793,1.45898,1.68945,1.45898c1.0293,0,1.68848-0.8291,1.68848-1.77832
			c0-0.91992-0.59961-1.65918-1.60938-1.65918c-0.66895,0-1.17871,0.33008-1.52832,0.83887l-0.7002-0.18945l0.62988-3.59766h3.6084
			v0.65918h-3.03906l-0.39941,2.25879c0.46973-0.43945,0.99902-0.60938,1.50879-0.60938
			C207.94228,184.5744,208.89149,185.59393,208.89149,186.87323z"/>
	</g>
	<g id="Group_22" transform="translate(-1.963 16.576)">
		<g class="st7">
			<path d="M8.18555,154.54625c0-1.6582,0.3501-3.58789,2.15918-3.58789c1.64893,0,2.21875,1.68945,2.21875,3.59863
				c0,1.9082-0.55957,3.56738-2.14893,3.56738C8.55566,158.12437,8.18555,156.20543,8.18555,154.54625z M11.82373,154.54625
				c0-1.6084-0.30957-2.92773-1.479-2.92773c-1.21924,0-1.44922,1.42871-1.44922,2.92773c0,1.46973,0.22998,2.91895,1.49902,2.91895
				C11.52393,157.46519,11.82373,156.12535,11.82373,154.54625z"/>
		</g>
		<g id="Group_21">
			<line id="Line_19" class="st6" x1="21.637" y1="122.988" x2="17.601" y2="122.988"/>
			<g class="st7">
				<path d="M5.6582,117.18395v6.96582H4.96826v-5.16699H3.22949v-0.67969h1.15918c0.34961,0,0.57959-0.12012,0.57959-0.53027
					v-0.58887H5.6582z"/>
				<path d="M8.36914,120.67126c0-1.6582,0.3501-3.58789,2.15918-3.58789c1.64893,0,2.21875,1.68945,2.21875,3.59863
					c0,1.9082-0.55957,3.56738-2.14893,3.56738C8.73926,124.24938,8.36914,122.33044,8.36914,120.67126z M12.00732,120.67126
					c0-1.6084-0.30957-2.92773-1.479-2.92773c-1.21924,0-1.44922,1.42871-1.44922,2.92773
					c0,1.46973,0.22998,2.91895,1.49902,2.91895C11.70752,123.5902,12.00732,122.25036,12.00732,120.67126z"/>
			</g>
			<line id="Line_20" class="st6" x1="21.637" y1="87.849" x2="17.601" y2="87.849"/>
			<g class="st7">
				<path d="M7.2749,88.36071v0.64941H2.45752v-0.63965c1.62939-1.01953,3.79785-2.47852,3.79785-4.32715
					c0-0.87988-0.48975-1.43945-1.38916-1.43945c-1.05957,0-1.53906,0.76953-1.54883,1.79883L2.6377,84.3529
					c0-1.36914,0.78955-2.40918,2.22852-2.40918c1.23926,0,2.08887,0.76953,2.08887,2.10938
					c0,1.77832-1.5791,3.19824-3.34814,4.30762C3.60695,88.36072,7.2749,88.36072,7.2749,88.36071z"/>
				<path d="M8.36719,85.53161c0-1.6582,0.3501-3.58789,2.15918-3.58789c1.64893,0,2.21875,1.68945,2.21875,3.59863
					c0,1.9082-0.55957,3.56738-2.14893,3.56738C8.7373,89.10973,8.36719,87.19079,8.36719,85.53161z M12.00537,85.53161
					c0-1.6084-0.30957-2.92773-1.479-2.92773c-1.21924,0-1.44922,1.42871-1.44922,2.92773
					c0,1.46973,0.22998,2.91895,1.49902,2.91895C11.70557,88.45055,12.00537,87.11071,12.00537,85.53161z"/>
			</g>
			<line id="Line_21" class="st6" x1="21.637" y1="52.709" x2="17.601" y2="52.709"/>
			<g class="st7">
				<path d="M2.37744,51.79186l0.67969-0.04004c0,0.99023,0.72998,1.55957,1.7793,1.55957
					c0.98926,0,1.73877-0.53027,1.73877-1.47949c0-1.17871-1.18896-1.33887-2.08887-1.33887v-0.58008
					c1.00977,0,1.71924-0.37988,1.71924-1.24902c0-0.81934-0.59961-1.19922-1.33936-1.19922
					c-0.86963,0-1.46924,0.47949-1.479,1.33887l-0.66992-0.0498c0-1.20898,0.90967-1.94922,2.11914-1.94922
					c1.09912,0,2.05859,0.63965,2.05859,1.7793c0,0.83984-0.52979,1.39941-1.04932,1.56934
					c0.75977,0.13965,1.41943,0.71973,1.41943,1.73926c0,1.31934-1.07959,2.07812-2.43896,2.07812
					C3.43701,53.97057,2.37744,53.20104,2.37744,51.79186z"/>
				<path d="M8.36719,50.39244c0-1.6582,0.3501-3.58789,2.15918-3.58789c1.64893,0,2.21875,1.68945,2.21875,3.59863
					c0,1.9082-0.55957,3.56738-2.14893,3.56738C8.7373,53.97057,8.36719,52.05162,8.36719,50.39244z M12.00537,50.39244
					c0-1.6084-0.30957-2.92773-1.479-2.92773c-1.21924,0-1.44922,1.42871-1.44922,2.92773
					c0,1.46973,0.22998,2.91895,1.49902,2.91895C11.70557,53.31139,12.00537,51.97155,12.00537,50.39244z"/>
			</g>
			<line id="Line_22" class="st6" x1="21.637" y1="17.57" x2="17.601" y2="17.57"/>
			<g class="st7">
				<path d="M7.53467,16.41344v0.65918h-1.1294v1.65918H5.71582v-1.65918H2.22754V16.6234l3.53809-4.85742h0.63965v4.64746H7.53467z
					 M5.71582,16.41344v-3.6084l-2.56836,3.6084H5.71582z"/>
				<path d="M8.36719,15.25328c0-1.6582,0.3501-3.58789,2.15918-3.58789c1.64893,0,2.21875,1.68945,2.21875,3.59863
					c0,1.9082-0.55957,3.56738-2.14893,3.56738C8.7373,18.83141,8.36719,16.91246,8.36719,15.25328z M12.00537,15.25328
					c0-1.6084-0.30957-2.92773-1.479-2.92773c-1.21924,0-1.44922,1.42871-1.44922,2.92773
					c0,1.46973,0.22998,2.91895,1.49902,2.91895C11.70557,18.17223,12.00537,16.83239,12.00537,15.25328z"/>
			</g>
			<path id="Path_15" class="st6" d="M17.244,0h4.266v157.74899"/>
		</g>
	</g>
</g>
</svg>
