<?xml version="1.0" encoding="utf-8"?>
<!-- Generator: Adobe Illustrator 25.0.0, SVG Export Plug-In . SVG Version: 6.00 Build 0)  -->
<svg version="1.1" id="Livello_1" xmlns="http://www.w3.org/2000/svg" xmlns:xlink="http://www.w3.org/1999/xlink" x="0px" y="0px"
	 viewBox="0 0 241.3 401.4" style="enable-background:new 0 0 241.3 401.4;" xml:space="preserve">
<style type="text/css">
	.st0{fill:none;stroke:#000000;}
	.st1{font-family:'HKGrotesk-Regular';}
	.st2{font-size:10px;}
	.st3{fill:#5151FC;}
	.st4{font-family:'HKGrotesk-Medium';}
	.st5{clip-path:url(#SVGID_2_);fill:#5151FC;}
	.st6{clip-path:url(#SVGID_2_);fill:#C5C5FC;}
	.st7{clip-path:url(#SVGID_2_);fill:#00C19C;}
	.st8{clip-path:url(#SVGID_2_);fill:#C2FAEF;}
	.st9{clip-path:url(#SVGID_2_);fill:#FFFFFF;}
	.st10{fill:none;stroke:#212529;}
	.st11{fill:none;}
	.st12{fill:#C5C5FC;}
	.st13{fill:#00C19C;}
</style>
<line id="Line_1" class="st0" x1="75.6" y1="174.6" x2="75.6" y2="177.3"/>
<line id="Line_2" class="st0" x1="215.2" y1="174.6" x2="215.2" y2="177.3"/>
<text transform="matrix(1 0 0 1 63.432 188.511)" class="st1 st2">1945</text>
<text transform="matrix(1 0 0 1 203.069 188.511)" class="st1 st2">1950</text>
<text transform="matrix(1 0 0 1 14.963 10)" class="st1 st2">Number of occurrences</text>
<text transform="matrix(1 0 0 1 14.963 219)" class="st1 st2">Number of occurrences</text>
<path id="Path_8" class="st0" d="M19.2,174.4h222.1"/>
<text transform="matrix(1 0 0 1 225.963 25)" class="st3 st4 st2">a</text>
<text transform="matrix(1 0 0 1 5.536 174.601)" class="st1 st2">0</text>
<line id="Line_19" class="st0" x1="19.6" y1="139.6" x2="15.6" y2="139.6"/>
<text transform="matrix(1 0 0 1 0 140.726)" class="st1 st2">10</text>
<line id="Line_20" class="st0" x1="19.6" y1="104.4" x2="15.6" y2="104.4"/>
<text transform="matrix(1 0 0 1 4.800415e-02 105.586)" class="st1 st2">20</text>
<line id="Line_21" class="st0" x1="19.6" y1="69.3" x2="15.6" y2="69.3"/>
<text transform="matrix(1 0 0 1 4.800415e-02 70.447)" class="st1 st2">30</text>
<line id="Line_22" class="st0" x1="19.6" y1="34.1" x2="15.6" y2="34.1"/>
<text transform="matrix(1 0 0 1 4.800415e-02 35.308)" class="st1 st2">40</text>
<path id="Path_15" class="st0" d="M15.2,16.6h4.3v157.7"/>
<g>
	<defs>
		<rect id="SVGID_1_" x="19.9" y="229.2" width="209" height="154.2"/>
	</defs>
	<clipPath id="SVGID_2_">
		<use xlink:href="#SVGID_1_"  style="overflow:visible;"/>
	</clipPath>
	<path id="Path_3-2" class="st5" d="M-915.8,383.5c41.9,0,41.9-10.2,55.8-10.2h27.9c14,0,14-40.7,27.9-40.7c14,0,14,47.5,27.9,47.5
		c14,0,14,3.4,27.9,3.4c14,0,14-6.8,27.9-6.8c14,0,14,6.8,27.9,6.8c14,0,14-13.6,27.9-13.6c14,0,14,10.2,27.9,10.2
		c14,0,14-17,27.9-17c14,0,14,20.4,27.9,20.4c14,0,14-3.4,27.9-3.4c14,0,14,3.4,27.9,3.4c14,0,14-61.1,27.9-61.1s14,54.3,27.9,54.3
		s14,6.8,27.9,6.8h55.8c14,0,14-30.5,27.9-30.5s14,30.5,27.9,30.5s14-10.2,27.9-10.2s14,10.2,27.9,10.2s14-3.4,27.9-3.4
		c14,0,14,3.4,27.9,3.4h55.8c14,0,14-10.2,27.9-10.2s14-17,27.9-17s14,27.1,27.9,27.1h55.8c14,0,14-6.8,27.9-6.8s14-3.4,27.9-3.4
		s14,10.2,27.9,10.2c14,0,14-23.7,27.9-23.7s14,23.7,27.9,23.7h55.8c14,0,14-3.4,27.9-3.4s14,3.4,27.9,3.4L-915.8,383.5z"/>
	<path id="Path_4-2" class="st6" d="M-915.8,383.5c41.9,0,41.9-10.2,55.8-10.2h27.9c14,0,14-44.1,27.9-44.1c14,0,14,47.5,27.9,47.5
		c14,0,14,6.8,27.9,6.8c14,0,14-6.8,27.9-6.8c14,0,14,6.8,27.9,6.8c14,0,14-13.6,27.9-13.6c14,0,14,6.8,27.9,6.8
		c14,0,14-13.6,27.9-13.6c14,0,14,20.4,27.9,20.4c14,0,14-3.4,27.9-3.4c14,0,14,3.4,27.9,3.4c14,0,14-67.8,27.9-67.8
		s14,61.1,27.9,61.1s14,6.8,27.9,6.8h55.8c14,0,14-44.1,27.9-44.1s14,44.1,27.9,44.1s14-13.6,27.9-13.6s14,13.6,27.9,13.6
		s14-6.8,27.9-6.8c14,0,14,6.8,27.9,6.8h55.8c14,0,14-10.2,27.9-10.2s14-27.1,27.9-27.1s14,37.3,27.9,37.3h27.9
		c14,0,14-3.4,27.9-3.4s14-6.8,27.9-6.8h27.9c14,0,14,10.2,27.9,10.2c14,0,14-40.7,27.9-40.7s14,40.7,27.9,40.7h27.9
		c14,0,14-3.4,27.9-3.4h55.8v3.4c-41.9-3.4-41.9,0-55.8,0h-55.8c-14,0-14-23.7-27.9-23.7s-14,23.7-27.9,23.7s-14-10.2-27.9-10.2
		s-14,3.4-27.9,3.4s-14,6.8-27.9,6.8h-55.8c-14,0-14-27.1-27.9-27.1s-14,17-27.9,17s-14,10.2-27.9,10.2h-55.8c-14,0-14-3.4-27.9-3.4
		c-14,0-14,3.4-27.9,3.4s-14-10.2-27.9-10.2s-14,10.2-27.9,10.2s-14-30.5-27.9-30.5s-14,30.5-27.9,30.5h-55.8c-14,0-14-6.8-27.9-6.8
		s-14-54.3-27.9-54.3s-14,61.1-27.9,61.1c-14,0-14-3.4-27.9-3.4c-14,0-14,3.4-27.9,3.4c-14,0-14-20.4-27.9-20.4c-14,0-14,17-27.9,17
		c-14,0-14-10.2-27.9-10.2c-14,0-14,13.6-27.9,13.6c-14,0-14-6.8-27.9-6.8c-14,0-14,6.8-27.9,6.8c-14,0-14-3.4-27.9-3.4
		c-14,0-14-47.5-27.9-47.5c-14,0-14,40.7-27.9,40.7h-27.9c-14,0-14,10.2-27.9,10.2H-915.8z"/>
	<path id="Path_5-2" class="st7" d="M-915.8,383.5c41.9,0,41.9-10.2,55.8-10.2c14,0,14-6.8,27.9-6.8s14-57.7,27.9-57.7
		c14,0,14,67.8,27.9,67.8c14,0,14,3.4,27.9,3.4c14,0,14-3.4,27.9-3.4c14,0,14,6.8,27.9,6.8c14,0,14-27.1,27.9-27.1
		c14,0,14,6.8,27.9,6.8c14,0,14-3.4,27.9-3.4c14,0,14,23.7,27.9,23.7c14,0,14-3.4,27.9-3.4c14,0,14-3.4,27.9-3.4
		c14,0,14-91.6,27.9-91.6s14,91.6,27.9,91.6s14,6.8,27.9,6.8h55.8c14,0,14-50.9,27.9-50.9s14,17,27.9,17s14,13.6,27.9,13.6
		s14,17,27.9,17s14-13.6,27.9-13.6c14,0,14,13.6,27.9,13.6s14,3.4,27.9,3.4h27.9c14,0,14-10.2,27.9-10.2s14-40.7,27.9-40.7
		s14,44.1,27.9,44.1s14,6.8,27.9,6.8s14-6.8,27.9-6.8s14-3.4,27.9-3.4s14-3.4,27.9-3.4s14,13.6,27.9,13.6c14,0,14-101.8,27.9-101.8
		s14,91.6,27.9,91.6s14,10.2,27.9,10.2s14-3.4,27.9-3.4s14-10.2,27.9-10.2s14,10.2,27.9,10.2h-55.8c-14,0-14,3.4-27.9,3.4h-27.9
		c-14,0-14-40.7-27.9-40.7s-14,40.7-27.9,40.7s-14-10.2-27.9-10.2H5.7c-14,0-14,6.8-27.9,6.8s-14,3.4-27.9,3.4h-27.9
		c-14,0-14-37.3-27.9-37.3s-14,27.1-27.9,27.1s-14,10.2-27.9,10.2h-55.8c-14,0-14-6.8-27.9-6.8c-14,0-14,6.8-27.9,6.8
		s-14-13.6-27.9-13.6s-14,13.6-27.9,13.6s-14-44.1-27.9-44.1s-14,44.1-27.9,44.1h-55.8c-14,0-14-6.8-27.9-6.8s-14-61.1-27.9-61.1
		s-14,67.8-27.9,67.8c-14,0-14-3.4-27.9-3.4c-14,0-14,3.4-27.9,3.4c-14,0-14-20.4-27.9-20.4c-14,0-14,13.6-27.9,13.6
		c-14,0-14-6.8-27.9-6.8c-14,0-14,13.6-27.9,13.6c-14,0-14-6.8-27.9-6.8c-14,0-14,6.8-27.9,6.8c-14,0-14-6.8-27.9-6.8
		c-14,0-14-47.5-27.9-47.5c-14,0-14,44.1-27.9,44.1h-27.9c-14,0-14,10.2-27.9,10.2L-915.8,383.5z"/>
	<path id="Path_6-2" class="st8" d="M-915.8,383.5c41.9,0,41.9-10.2,55.8-10.2c14,0,14-10.2,27.9-10.2s14-61.1,27.9-61.1
		c14,0,14,74.6,27.9,74.6c14,0,14-3.4,27.9-3.4c14,0,14,3.4,27.9,3.4c14,0,14,6.8,27.9,6.8c14,0,14-27.1,27.9-27.1
		c14,0,14,3.4,27.9,3.4h27.9c14,0,14,23.7,27.9,23.7c14,0,14-3.4,27.9-3.4c14,0,14-6.8,27.9-6.8c14,0,14-95,27.9-95
		s14,91.6,27.9,91.6s14,13.6,27.9,13.6h27.9c14,0,14-3.4,27.9-3.4s14-54.3,27.9-54.3s14,20.4,27.9,20.4s14-6.8,27.9-6.8
		s14,40.7,27.9,40.7s14-17,27.9-17c14,0,14,17,27.9,17s14,3.4,27.9,3.4h27.9c14,0,14-13.6,27.9-13.6s14-54.3,27.9-54.3
		s14,61.1,27.9,61.1h27.9c14,0,14-6.8,27.9-6.8h55.8c14,0,14,13.6,27.9,13.6s14-149.3,27.9-149.3s14,139.1,27.9,139.1
		s14,3.4,27.9,3.4s14-3.4,27.9-3.4s14-13.6,27.9-13.6s14,20.4,27.9,20.4l0,0c-41.9-10.2-41.9,0-55.8,0s-14,3.4-27.9,3.4
		s-14-10.2-27.9-10.2s-14-91.6-27.9-91.6s-14,101.8-27.9,101.8s-14-13.6-27.9-13.6s-14,3.4-27.9,3.4s-14,3.4-27.9,3.4
		s-14,6.8-27.9,6.8s-14-6.8-27.9-6.8s-14-44.1-27.9-44.1s-14,40.7-27.9,40.7s-14,10.2-27.9,10.2h-27.9c-14,0-14-3.4-27.9-3.4
		s-14-13.6-27.9-13.6c-14,0-14,13.6-27.9,13.6s-14-17-27.9-17s-14-13.6-27.9-13.6s-14-17-27.9-17s-14,50.9-27.9,50.9h-55.8
		c-14,0-14-6.8-27.9-6.8s-14-91.6-27.9-91.6s-14,91.6-27.9,91.6c-14,0-14,3.4-27.9,3.4c-14,0-14,3.4-27.9,3.4
		c-14,0-14-23.7-27.9-23.7c-14,0-14,3.4-27.9,3.4c-14,0-14-6.8-27.9-6.8c-14,0-14,27.1-27.9,27.1c-14,0-14-6.8-27.9-6.8
		c-14,0-14,3.4-27.9,3.4c-14,0-14-3.4-27.9-3.4c-14,0-14-67.8-27.9-67.8c-14,0-14,57.7-27.9,57.7c-14,0-14,6.8-27.9,6.8
		c-14,0-14,10.2-27.9,10.2L-915.8,383.5z"/>
	<rect id="Rectangle_1" x="-49" y="230" class="st9" width="68" height="176"/>
</g>
<path id="Path_2" class="st10" d="M19.8,383.7"/>
<line id="Line_18" class="st0" x1="117.9" y1="383.5" x2="117.9" y2="386.1"/>
<path id="Path_9" class="st0" d="M229,383.8v-3.9"/>
<text transform="matrix(1 0 0 1 225.963 238)" class="st3 st4 st2">b</text>
<text transform="matrix(1 0 0 1 106.807 398.394)" class="st1 st2">1980</text>
<text transform="matrix(1 0 0 1 215.564 398.394)" class="st1 st2">1984</text>
<text transform="matrix(1 0 0 1 5.536 383.601)" class="st1 st2">0</text>
<line id="Line_19-2" class="st0" x1="19.6" y1="348.6" x2="15.6" y2="348.6"/>
<text transform="matrix(1 0 0 1 0 349.726)" class="st1 st2">10</text>
<line id="Line_20-2" class="st0" x1="19.6" y1="313.4" x2="15.6" y2="313.4"/>
<text transform="matrix(1 0 0 1 4.800415e-02 314.586)" class="st1 st2">20</text>
<line id="Line_21-2" class="st0" x1="19.6" y1="278.3" x2="15.6" y2="278.3"/>
<text transform="matrix(1 0 0 1 4.800415e-02 279.447)" class="st1 st2">30</text>
<line id="Line_22-2" class="st0" x1="19.6" y1="243.1" x2="15.6" y2="243.1"/>
<text transform="matrix(1 0 0 1 4.800415e-02 244.308)" class="st1 st2">40</text>
<path id="Path_15-2" class="st0" d="M15.2,225.6h4.3v157.7"/>
<path id="Tracciato_148080" class="st0" d="M19.6,383.4h209.6"/>
<path class="st11" d="M103,164.4C103,164.4,103,164.4,103,164.4c13.9,0,13.9-40.7,27.9-40.7c0,0,0,0,0,0
	C117,123.7,116.9,164.4,103,164.4z"/>
<path class="st11" d="M113.5,152.4c-2.6,6.8-5.8,12-10.5,12c0,0,0,0,0,0C107.8,164.4,110.9,159.2,113.5,152.4z"/>
<path class="st11" d="M115.1,148.1c0.2-0.6,0.4-1.3,0.6-1.9C115.5,146.9,115.3,147.5,115.1,148.1z"/>
<path class="st11" d="M114.3,150.5c0.2-0.5,0.4-1.1,0.6-1.6C114.7,149.4,114.5,149.9,114.3,150.5z"/>
<path class="st11" d="M113.6,152.4c0.2-0.5,0.4-1.1,0.6-1.6C114,151.3,113.8,151.8,113.6,152.4z"/>
<path class="st3" d="M158.8,171.2c-14,0-14-47.5-27.9-47.5c-14,0-14,40.7-27.9,40.7h0h0H75.1c0,0,0,0-0.1,0c0,0-0.1,0-0.1,0
	c-0.4,0-0.7,0-1.1,0c-0.1,0-0.1,0-0.2,0c-0.4,0-0.7,0-1.1,0.1c0,0,0,0,0,0c-11.5,1.1-12.4,10.1-25.4,10.1h-0.7l140,0
	c-0.2,0-0.4,0-0.5,0C172.8,174.5,172.5,171.2,158.8,171.2z"/>
<path class="st3" d="M214.7,167.8c-13.9,0-14,6.7-27.7,6.8l54.3,0v0C228.6,174.2,228.2,167.8,214.7,167.8z"/>
<polygon class="st3" points="19.2,174.6 19.5,174.6 19.5,174.6 "/>
<path class="st12" d="M103,164.4C103,164.4,103,164.4,103,164.4L103,164.4C103,164.4,103,164.4,103,164.4
	C103,164.4,103,164.4,103,164.4z"/>
<path class="st12" d="M158.8,171.2c13.7,0,14,3.3,27.1,3.4c-13.2-0.3-13.4-6.8-27.1-6.8c-14,0-14-47.5-27.9-47.5
	c-7.8,0-11.2,13.8-15.2,25.9c-0.2,0.6-0.4,1.3-0.6,1.9c-0.1,0.2-0.2,0.5-0.3,0.7c-0.2,0.5-0.4,1.1-0.6,1.6c0,0.1-0.1,0.2-0.1,0.3
	c-0.2,0.5-0.4,1.1-0.6,1.6c0,0,0,0,0,0.1c-2.6,6.8-5.8,12-10.5,12c13.9-0.1,13.9-40.7,27.9-40.7c0,0,0,0,0,0c0,0,0,0,0,0
	C144.9,123.7,144.9,171.2,158.8,171.2z"/>
<path class="st12" d="M159,167.8c0,0-0.1,0-0.1,0c0,0,0,0,0,0c0,0,0,0,0,0C158.9,167.8,158.9,167.8,159,167.8z"/>
<path class="st12" d="M241.3,174.6L241.3,174.6c-12.7-0.4-13.1-6.8-26.7-6.8c0,0-0.1,0-0.1,0c0,0,0.1,0,0.1,0
	C228.2,167.8,228.6,174.2,241.3,174.6z"/>
<path class="st12" d="M158.8,171.2c-14,0-14-47.5-27.9-47.5c0,0,0,0,0,0C144.9,123.7,144.9,171.2,158.8,171.2
	c13.7,0,14,3.3,27.1,3.4c0,0,0,0,0,0C172.8,174.5,172.5,171.2,158.8,171.2z"/>
<path class="st12" d="M72.6,164.5C72.6,164.5,72.6,164.5,72.6,164.5c0.4,0,0.8-0.1,1.1-0.1c0.1,0,0.1,0,0.2,0c0.4,0,0.7,0,1.1,0
	c0,0,0.1,0,0.1,0c-14,0-14,10.2-55.8,10.2h0.3C58.5,174.6,61,165.7,72.6,164.5z"/>
<path class="st13" d="M214.5,167.8c-13.8,0-13.9,3.4-27.8,3.4c-13.9,0-14-3.4-27.8-3.4c13.8,0,13.9,6.8,27.8,6.8
	C200.7,174.6,200.7,167.9,214.5,167.8z"/>
<path class="st13" d="M19.2,174.6l27.3,0h-27C19.4,174.6,19.3,174.6,19.2,174.6z"/>
<path class="st13" d="M103,164.4c4.8,0,7.9-5.2,10.5-12c0,0,0,0,0-0.1c0.2-0.5,0.4-1.1,0.6-1.6c0-0.1,0.1-0.2,0.1-0.3
	c0.2-0.5,0.4-1.1,0.6-1.6c0.1-0.2,0.2-0.5,0.3-0.7c0.2-0.6,0.4-1.3,0.6-1.9c4-12.1,7.4-25.9,15.2-25.9c13.9,0,14,47.4,27.9,47.5
	c-13.9-0.1-13.9-67.8-27.9-67.8c-14,0-14,57.7-27.9,57.7c-13.9,0-14,6.8-27.9,6.8L103,164.4C103,164.4,103,164.4,103,164.4z"/>
<path class="st13" d="M186.8,174.6C186.8,174.6,186.8,174.6,186.8,174.6c14,0,14-6.8,27.9-6.8c0,0,0,0,0,0
	C200.7,167.8,200.7,174.6,186.8,174.6z"/>
<path class="st13" d="M186.8,174.6c0.1,0,0.2,0,0.3,0h-0.5C186.6,174.6,186.7,174.6,186.8,174.6z"/>
<path class="st13" d="M72.6,164.5C72.6,164.5,72.6,164.5,72.6,164.5C72.6,164.5,72.6,164.5,72.6,164.5z"/>
<path class="st13" d="M75.1,164.4C75.1,164.4,75.1,164.4,75.1,164.4L75.1,164.4C75,164.4,75,164.4,75.1,164.4
	C75,164.4,75,164.4,75.1,164.4z"/>
<path class="st13" d="M73.9,164.4c-0.1,0-0.1,0-0.2,0C73.8,164.4,73.8,164.4,73.9,164.4z"/>
<path class="st13" d="M241.3,174.6L241.3,174.6c-12.7-0.4-13.1-6.8-26.7-6.8c-14,0-14,6.8-27.9,6.8c0,0,0,0,0,0c0,0,0,0,0,0
	c-0.3,0-0.5,0-0.8,0c0.2,0,0.4,0,0.5,0h0.5c13.7-0.1,13.8-6.8,27.7-6.8C228.2,167.8,228.6,174.2,241.3,174.6z"/>
<polygon class="st13" points="19.5,174.6 19.5,174.6 46.5,174.6 47.1,174.6 "/>
<path class="st13" d="M114.8,148.9c0.1-0.2,0.2-0.5,0.3-0.7C115,148.4,114.9,148.6,114.8,148.9z"/>
<path class="st13" d="M114.2,150.7c0-0.1,0.1-0.2,0.1-0.3C114.2,150.6,114.2,150.7,114.2,150.7z"/>
<path class="st13" d="M113.5,152.4C113.6,152.4,113.6,152.4,113.5,152.4C113.6,152.4,113.6,152.4,113.5,152.4z"/>
<path class="st13" d="M130.9,120.3c-7.8,0-11.2,13.8-15.2,25.9C119.7,134.1,123.1,120.3,130.9,120.3c14,0,14,47.5,27.9,47.5
	c13.7,0,14,6.5,27.1,6.8c0.3,0,0.5,0,0.8,0c14,0,14-6.8,27.9-6.8c0,0,0,0,0,0s0,0,0,0c13.5,0,13.9,6.4,26.7,6.8v0
	c-12.7-0.4-13.1-6.8-26.7-6.8c0,0-0.1,0-0.1,0c-13.8,0-13.9,6.8-27.8,6.8c-13.9,0-14-6.7-27.8-6.8c0,0-0.1,0-0.1,0c0,0,0,0,0,0
	C144.9,167.7,144.9,120.3,130.9,120.3z"/>
<path class="st13" d="M103,164.4L103,164.4C103,164.4,103,164.4,103,164.4C103,164.4,103,164.4,103,164.4z"/>
<path class="st13" d="M75,164.4c-0.4,0-0.7,0-1.1,0C74.2,164.4,74.6,164.4,75,164.4z"/>
<path class="st13" d="M47.1,174.6c13.1,0,13.9-8.9,25.4-10.1c-11.6,1.1-14.1,10-53.1,10.1H47.1z"/>
<path class="st13" d="M73.7,164.5c-0.4,0-0.7,0-1.1,0.1C73,164.5,73.3,164.5,73.7,164.5z"/>
<path class="st13" d="M214.7,167.8C214.7,167.8,214.7,167.8,214.7,167.8c13.5,0,13.9,6.4,26.7,6.8v0
	C228.6,174.2,228.2,167.8,214.7,167.8z"/>
<path class="st13" d="M270.5,161C270.5,161,270.5,161,270.5,161c0.3,0,0.5,0,0.8,0c0,0,0,0,0,0C271.1,161,270.8,161,270.5,161z"/>
<path class="st13" d="M186,174.6c0.3,0,0.5,0,0.8,0c0,0,0,0,0,0C186.5,174.6,186.2,174.6,186,174.6C186,174.6,186,174.6,186,174.6z"
	/>
</svg>
