<svg id="Livello_1" data-name="Livello 1" xmlns="http://www.w3.org/2000/svg" xmlns:xlink="http://www.w3.org/1999/xlink" width="695" height="33.5" viewBox="0 0 695 33.5">
  <defs>
    <clipPath id="clip-path">
      <rect width="695" height="35.4" fill="none"/>
    </clipPath>
  </defs>
  <g clip-path="url(#clip-path)">
    <g id="legend">
      <g id="Raggruppa_24965" data-name="Raggruppa 24965">
        <g id="Raggruppa_24947" data-name="Raggruppa 24947">
          <g id="Group-7">
            <g style="isolation: isolate">
              <path d="M480.3,22.4v7h-.8l-3.4-5.8v5.8h-.7v-7h.8l3.4,5.7V22.4Z"/>
              <path d="M486.1,24.4v5h-.7v-.7a1.94316,1.94316,0,0,1-1.6.8c-1.1,0-1.6-.8-1.6-2v-3h.7v2.8c0,.8.1,1.5,1.1,1.5s1.5-.8,1.5-2.1V24.4Z"/>
              <path d="M494.7,26.3v3.1H494V26.5c0-.4,0-1.5-1.1-1.5-1,0-1.3.9-1.3,2v2.4H491V26.6c0-.8-.2-1.5-1.1-1.5-1,0-1.2.9-1.2,2v2.3H488V24.5h.7v.6a1.51316,1.51316,0,0,1,1.4-.7,1.33483,1.33483,0,0,1,1.4.9,1.69643,1.69643,0,0,1,1.6-.9C494.2,24.4,494.7,25.1,494.7,26.3Z"/>
              <path d="M500.9,26.9c0,1.5-.7,2.5-2.2,2.5a2.01508,2.01508,0,0,1-1.6-.7v.7h-.7v-7h.7v2.7a1.94314,1.94314,0,0,1,1.6-.8A2.32791,2.32791,0,0,1,500.9,26.9Zm-.7,0c0-1.2-.6-1.9-1.6-1.9s-1.6.8-1.6,1.9.5,1.9,1.6,1.9S500.2,28,500.2,26.9Z"/>
              <path d="M506.2,27.1h-3.6a1.50257,1.50257,0,0,0,1.6,1.7,1.63973,1.63973,0,0,0,1.4-.6l.5.4a2.36419,2.36419,0,0,1-1.9.8,2.2595,2.2595,0,0,1-2.3-2.5,2.32793,2.32793,0,0,1,2.2-2.6,2.09238,2.09238,0,0,1,2.1,2.3A.44637.44637,0,0,1,506.2,27.1Zm-3.6-.6h3v-.2a1.394,1.394,0,0,0-1.5-1.4C503.2,24.9,502.7,25.6,502.6,26.5Z"/>
              <path d="M510.7,24.6l-.3.6a1.42123,1.42123,0,0,0-.6-.2c-.8,0-1.3.6-1.3,1.6v2.8h-.7v-5h.7v.7a1.76842,1.76842,0,0,1,1.5-.8C510.1,24.4,510.4,24.4,510.7,24.6Z"/>
              <path d="M514,26.9a2.28513,2.28513,0,0,1,2.4-2.5,2.50208,2.50208,0,0,1,0,5A2.3374,2.3374,0,0,1,514,26.9Zm4,0a1.71052,1.71052,0,1,0-3.4,0,1.71052,1.71052,0,1,0,3.4,0Z"/>
              <path d="M520.4,25h-1v-.6h1v-.8c0-1,.6-1.4,1.2-1.4a2.91967,2.91967,0,0,1,.9.2l-.2.5a1.42131,1.42131,0,0,0-.6-.2c-.4,0-.6.3-.6.7v1h1.4V25h-1.4v4.4h-.7V25Z"/>
              <path d="M525.9,26.9a2.28514,2.28514,0,0,1,2.4-2.5,2.50208,2.50208,0,0,1,0,5A2.33741,2.33741,0,0,1,525.9,26.9Zm4,0a1.71052,1.71052,0,1,0-3.4,0,1.71052,1.71052,0,1,0,3.4,0Z"/>
              <path d="M531.6,26.9a2.32024,2.32024,0,0,1,2.2-2.6,2.00008,2.00008,0,0,1,2,1.4l-.7.3a1.38071,1.38071,0,0,0-1.3-1c-1,0-1.5.9-1.5,1.9s.5,1.9,1.5,1.9a1.38071,1.38071,0,0,0,1.3-1l.6.2a1.92062,1.92062,0,0,1-1.9,1.4C532.4,29.5,531.6,28.3,531.6,26.9Z"/>
              <path d="M536.6,26.9a2.32024,2.32024,0,0,1,2.2-2.6,2.00008,2.00008,0,0,1,2,1.4l-.7.3a1.38071,1.38071,0,0,0-1.3-1c-1,0-1.5.9-1.5,1.9s.5,1.9,1.5,1.9a1.38071,1.38071,0,0,0,1.3-1l.6.2a1.92062,1.92062,0,0,1-1.9,1.4C537.4,29.5,536.6,28.3,536.6,26.9Z"/>
              <path d="M545.9,24.4v5h-.7v-.7a1.94318,1.94318,0,0,1-1.6.8c-1.1,0-1.6-.8-1.6-2v-3h.7v2.8c0,.8.1,1.5,1.1,1.5s1.5-.8,1.5-2.1V24.4Z"/>
              <path d="M550.7,24.6l-.3.6a1.42123,1.42123,0,0,0-.6-.2c-.8,0-1.3.6-1.3,1.6v2.8h-.7v-5h.7v.7a1.76842,1.76842,0,0,1,1.5-.8C550.1,24.4,550.4,24.4,550.7,24.6Z"/>
              <path d="M554.7,24.6l-.3.6a1.42123,1.42123,0,0,0-.6-.2c-.8,0-1.3.6-1.3,1.6v2.8h-.7v-5h.7v.7a1.76842,1.76842,0,0,1,1.5-.8A3.62941,3.62941,0,0,1,554.7,24.6Z"/>
              <path d="M559.2,27.1h-3.6a1.50257,1.50257,0,0,0,1.6,1.7,1.63973,1.63973,0,0,0,1.4-.6l.5.4a2.36419,2.36419,0,0,1-1.9.8,2.2595,2.2595,0,0,1-2.3-2.5,2.32793,2.32793,0,0,1,2.2-2.6,2.09238,2.09238,0,0,1,2.1,2.3Zm-3.6-.6h3v-.2a1.394,1.394,0,0,0-1.5-1.4A1.4987,1.4987,0,0,0,555.6,26.5Z"/>
              <path d="M564.5,26.4v3h-.7V26.6c0-1.1-.3-1.5-1.1-1.5-.9,0-1.5.8-1.5,2.2v2.1h-.7v-5h.7v.7a1.81636,1.81636,0,0,1,1.6-.8C564,24.4,564.5,25,564.5,26.4Z"/>
              <path d="M565.8,26.9a2.32025,2.32025,0,0,1,2.2-2.6,2.00008,2.00008,0,0,1,2,1.4l-.7.3a1.38069,1.38069,0,0,0-1.3-1c-1,0-1.5.9-1.5,1.9s.5,1.9,1.5,1.9a1.38069,1.38069,0,0,0,1.3-1l.6.2a1.92062,1.92062,0,0,1-1.9,1.4C566.6,29.5,565.8,28.3,565.8,26.9Z"/>
              <path d="M575.2,27.1h-3.6a1.50257,1.50257,0,0,0,1.6,1.7,1.63973,1.63973,0,0,0,1.4-.6l.5.4a2.36419,2.36419,0,0,1-1.9.8,2.2595,2.2595,0,0,1-2.3-2.5,2.32793,2.32793,0,0,1,2.2-2.6,2.09238,2.09238,0,0,1,2.1,2.3Zm-3.6-.6h3v-.2a1.394,1.394,0,0,0-1.5-1.4A1.4987,1.4987,0,0,0,571.6,26.5Z"/>
              <path d="M576.1,28.2l.6-.3a1.46081,1.46081,0,0,0,1.4.9c.7,0,1.1-.3,1.1-.8,0-1.3-2.8-.5-2.8-2.2,0-.9.7-1.4,1.7-1.4a1.9043,1.9043,0,0,1,1.8,1l-.5.3a1.27261,1.27261,0,0,0-1.2-.7c-.6,0-1,.2-1,.7,0,1.2,2.8.4,2.8,2.3,0,1-.8,1.5-1.8,1.5A1.96345,1.96345,0,0,1,576.1,28.2Z"/>
              <path d="M583.6,26.9a2.28513,2.28513,0,0,1,2.4-2.5,2.50208,2.50208,0,0,1,0,5A2.3374,2.3374,0,0,1,583.6,26.9Zm4,0a1.71053,1.71053,0,1,0-3.4,0,1.71053,1.71053,0,1,0,3.4,0Z"/>
              <path d="M588.8,24.4h.8l1.5,4,1.6-4h.8l-2,4.9h-.6Z"/>
              <path d="M598.3,27.1h-3.6a1.50257,1.50257,0,0,0,1.6,1.7,1.63976,1.63976,0,0,0,1.4-.6l.5.4a2.3642,2.3642,0,0,1-1.9.8,2.25949,2.25949,0,0,1-2.3-2.5,2.32793,2.32793,0,0,1,2.2-2.6,2.09237,2.09237,0,0,1,2.1,2.3Zm-3.6-.6h3v-.2a1.394,1.394,0,0,0-1.5-1.4A1.49871,1.49871,0,0,0,594.7,26.5Z"/>
              <path d="M602.7,24.6l-.3.6a1.42123,1.42123,0,0,0-.6-.2c-.8,0-1.3.6-1.3,1.6v2.8h-.7v-5h.7v.7a1.76842,1.76842,0,0,1,1.5-.8A3.62941,3.62941,0,0,1,602.7,24.6Z"/>
              <path d="M608.5,29.3a1.95227,1.95227,0,0,1-.7.1c-.7,0-1.1-.4-1.1-1.2V25h-.8v-.6h.8V23l.7-.5v1.9h1.2V25h-1.2v3.1c0,.5.2.7.6.7a1.2684,1.2684,0,0,0,.6-.1Z"/>
              <path d="M609.8,22.4h.8v1h-.8Zm0,2h.7v5h-.7Z"/>
              <path d="M619.1,26.3v3.1h-.7V26.5c0-.4,0-1.5-1.1-1.5-1,0-1.3.9-1.3,2v2.4h-.7V26.6c0-.8-.2-1.5-1.1-1.5-1,0-1.2.9-1.2,2v2.3h-.7V24.5h.7v.6a1.51314,1.51314,0,0,1,1.4-.7,1.33482,1.33482,0,0,1,1.4.9,1.6964,1.6964,0,0,1,1.6-.9C618.6,24.4,619.1,25.1,619.1,26.3Z"/>
              <path d="M624.7,27.1h-3.6a1.50257,1.50257,0,0,0,1.6,1.7,1.63976,1.63976,0,0,0,1.4-.6l.5.4a2.3642,2.3642,0,0,1-1.9.8,2.25949,2.25949,0,0,1-2.3-2.5,2.32792,2.32792,0,0,1,2.2-2.6,2.09237,2.09237,0,0,1,2.1,2.3Zm-3.6-.6h3v-.2a1.394,1.394,0,0,0-1.5-1.4A1.49871,1.49871,0,0,0,621.1,26.5Z"/>
            </g>
            <g id="Raggruppa_24080" data-name="Raggruppa 24080">
              <g id="Raggruppa_24075" data-name="Raggruppa 24075">
                <g id="Raggruppa_24074" data-name="Raggruppa 24074">
                  <line id="Linea_7888" data-name="Linea 7888" x1="466.7" y1="0.2" x2="466.7" y2="30.3" fill="none" stroke="#1d1d1b" stroke-miterlimit="10" stroke-width="0.25"/>
                  <g id="Raggruppa_24072" data-name="Raggruppa 24072">
                    <rect id="Rettangolo_19227" data-name="Rettangolo 19227" x="465.9" width="1.6" height="0.2" fill="#1d1d1b"/>
                  </g>
                  <g id="Raggruppa_24073" data-name="Raggruppa 24073">
                    <rect id="Rettangolo_19228" data-name="Rettangolo 19228" x="465.9" y="30.2" width="1.6" height="0.2" fill="#1d1d1b"/>
                  </g>
                </g>
              </g>
              <g id="Raggruppa_24077" data-name="Raggruppa 24077">
                <g id="Raggruppa_24076" data-name="Raggruppa 24076">
                  <line id="Linea_7890" data-name="Linea 7890" x1="449.6" x2="450.1" fill="none" stroke="#1d1d1b" stroke-miterlimit="10" stroke-width="0.26"/>
                  <line id="Linea_7891" data-name="Linea 7891" x1="451.2" x2="464.1" fill="none" stroke="#1d1d1b" stroke-miterlimit="10" stroke-width="0.26" stroke-dasharray="1.115 1.115"/>
                  <line id="Linea_7892" data-name="Linea 7892" x1="464.6" x2="465.1" fill="none" stroke="#1d1d1b" stroke-miterlimit="10" stroke-width="0.26"/>
                </g>
              </g>
              <path id="Tracciato_148123" data-name="Tracciato 148123" d="M449.6,0c-6.1,0-6.1,25.9-12.2,25.9s-6.1,4.5-12.2,4.5h36.7C455.7,30.4,455.7,0,449.6,0Z" fill="none" stroke="#1d1d1b" stroke-miterlimit="10" stroke-width="0.25"/>
              <g id="Raggruppa_24079" data-name="Raggruppa 24079">
                <g id="Raggruppa_24078" data-name="Raggruppa 24078">
                  <line id="Linea_7894" data-name="Linea 7894" x1="461.8" y1="30.4" x2="462.3" y2="30.4" fill="none" stroke="#1d1d1b" stroke-miterlimit="10" stroke-width="0.26"/>
                  <line id="Linea_7895" data-name="Linea 7895" x1="463.1" y1="30.4" x2="464.2" y2="30.4" fill="none" stroke="#1d1d1b" stroke-miterlimit="10" stroke-width="0.26" stroke-dasharray="0.758 0.758"/>
                  <line id="Linea_7896" data-name="Linea 7896" x1="464.6" y1="30.4" x2="465.1" y2="30.4" fill="none" stroke="#1d1d1b" stroke-miterlimit="10" stroke-width="0.26"/>
                </g>
              </g>
            </g>
          </g>
        </g>
        <g id="Raggruppa_24944" data-name="Raggruppa 24944">
          <g style="isolation: isolate">
            <path d="M30.7,28.7H27.8l-.7,1.9h-.8l2.6-7h.6l2.6,7h-.8Zm-.3-.6-1.2-3.5L28,28.1Z"/>
            <path d="M37.9,28.1c0,1.5-.7,2.5-2.2,2.5a2.01506,2.01506,0,0,1-1.6-.7v.7h-.7v-7h.7v2.7a1.94316,1.94316,0,0,1,1.6-.8A2.32793,2.32793,0,0,1,37.9,28.1Zm-.7,0c0-1.2-.6-1.9-1.6-1.9S34,27,34,28.1s.5,1.9,1.6,1.9S37.2,29.2,37.2,28.1Z"/>
            <path d="M38.8,29.4l.6-.3a1.46081,1.46081,0,0,0,1.4.9c.7,0,1.1-.3,1.1-.8,0-1.3-2.8-.5-2.8-2.2,0-.9.7-1.4,1.7-1.4a1.90429,1.90429,0,0,1,1.8,1l-.6.3a1.2726,1.2726,0,0,0-1.2-.7c-.6,0-1,.2-1,.7,0,1.2,2.8.4,2.8,2.3,0,1-.8,1.5-1.8,1.5A1.99653,1.99653,0,0,1,38.8,29.4Z"/>
            <path d="M46,30.5a1.95227,1.95227,0,0,1-.7.1c-.7,0-1.1-.4-1.1-1.2V26.2h-.8v-.6h.8V24.2l.7-.5v1.9H46v.6H44.8v3.1c0,.5.2.7.6.7a1.26834,1.26834,0,0,0,.6-.1Z"/>
            <path d="M50.2,25.8l-.3.6a1.42132,1.42132,0,0,0-.6-.2c-.8,0-1.3.6-1.3,1.6v2.7h-.7V25.6H48v.7a1.76843,1.76843,0,0,1,1.5-.8C49.7,25.6,50,25.6,50.2,25.8Z"/>
            <path d="M54.9,27.5v3.1h-.6v-.8a2.19716,2.19716,0,0,1-1.8.8c-1.1,0-1.7-.6-1.7-1.5a1.14878,1.14878,0,0,1,.6-1.1,4.09334,4.09334,0,0,1,1.9-.3h1v-.2c0-.9-.4-1.3-1.3-1.3a1.899,1.899,0,0,0-1.5.8l-.5-.4a2.33434,2.33434,0,0,1,2-1A1.73634,1.73634,0,0,1,54.9,27.5Zm-.7.9h0l-.9-.1a3.575,3.575,0,0,0-1.5.2.71275.71275,0,0,0-.3.6c0,.5.5.9,1.2.9C53.6,30.1,54.2,29.4,54.2,28.4Z"/>
            <path d="M56.2,28.1a2.32025,2.32025,0,0,1,2.2-2.6,2.00008,2.00008,0,0,1,2,1.4l-.7.3a1.38071,1.38071,0,0,0-1.3-1c-1,0-1.5.9-1.5,1.9s.5,1.9,1.5,1.9a1.38071,1.38071,0,0,0,1.3-1l.6.2a1.92062,1.92062,0,0,1-1.9,1.4C57,30.7,56.2,29.5,56.2,28.1Z"/>
            <path d="M63.7,30.5a1.95227,1.95227,0,0,1-.7.1c-.7,0-1.1-.4-1.1-1.2V26.2H61v-.6h.8V24.2l.7-.5v1.9h1.2v.6H62.5v3.1c0,.5.2.7.6.7a1.26834,1.26834,0,0,0,.6-.1Z"/>
            <path d="M68.1,26.2h-1v-.6h1v-.8c0-1,.6-1.4,1.2-1.4a2.91992,2.91992,0,0,1,.9.2l-.2.7a1.42132,1.42132,0,0,0-.6-.2c-.4,0-.6.3-.6.7v.8h1.4v.6H68.8v4.3h-.7Z"/>
            <path d="M70.6,28.1A2.28514,2.28514,0,0,1,73,25.6a2.50208,2.50208,0,0,1,0,5A2.33741,2.33741,0,0,1,70.6,28.1Zm4.1,0a1.71053,1.71053,0,1,0-3.4,0,1.71053,1.71053,0,1,0,3.4,0Z"/>
            <path d="M80.6,31.3c0,.9-.9,1.4-2.1,1.4-1.4,0-2.2-.5-2.2-1.5V31l.8-.7a.961.961,0,0,1-.6-.9,1.05016,1.05016,0,0,1,.5-.9,1.50382,1.50382,0,0,1-.4-1.1,1.74047,1.74047,0,0,1,1.9-1.7,1.594,1.594,0,0,1,1.2.4l.7-.6.4.5-.7.6a1.613,1.613,0,0,1,.3.9,1.74047,1.74047,0,0,1-1.9,1.7,2.9585,2.9585,0,0,1-1-.2.54994.54994,0,0,0-.3.5c0,.5.6.6,1.3.7C79.4,30.1,80.6,30.3,80.6,31.3Zm-.7.1c0-.6-.8-.7-1.6-.8-.2,0-.4-.1-.7-.1l-.6.6v.1c0,.7.7.9,1.5.9C79.4,32.1,79.9,31.9,79.9,31.4Zm-2.6-4.1a1.20455,1.20455,0,0,0,2.4,0,1.20455,1.20455,0,0,0-2.4,0Z"/>
          </g>
          <path id="Rectangle_179" data-name="Rectangle 179" d="M5.6,22.4h9.9a5.34091,5.34091,0,0,1,5.6,5h0a5.25129,5.25129,0,0,1-5.5,5H5.6a5.34091,5.34091,0,0,1-5.6-5H0a5.34813,5.34813,0,0,1,5.6-5Z" fill="#c5c5fc"/>
        </g>
        <g id="Raggruppa_24945" data-name="Raggruppa 24945">
          <g style="isolation: isolate">
            <path d="M120.7,27.1c0-2.2,1.2-3.6,3.2-3.6a2.83107,2.83107,0,0,1,2.9,1.9l-.7.2a2.1651,2.1651,0,0,0-2.2-1.5c-1.6,0-2.5,1-2.5,2.9s.9,2.9,2.5,2.9a2.28866,2.28866,0,0,0,2.3-1.5l.7.2a2.83107,2.83107,0,0,1-2.9,1.9C121.9,30.7,120.7,29.3,120.7,27.1Z"/>
            <path d="M127.6,28.1a2.28514,2.28514,0,0,1,2.4-2.5,2.50208,2.50208,0,0,1,0,5A2.33741,2.33741,0,0,1,127.6,28.1Zm4,0a1.71052,1.71052,0,1,0-3.4,0,1.71052,1.71052,0,1,0,3.4,0Z"/>
            <path d="M137.6,27.6v3h-.7V27.8c0-1.1-.3-1.5-1.1-1.5-.9,0-1.5.8-1.5,2.2v2.2h-.7V25.8h.7v.7a1.81636,1.81636,0,0,1,1.6-.8C137.1,25.6,137.6,26.3,137.6,27.6Z"/>
            <path d="M138.9,28.1a2.32024,2.32024,0,0,1,2.2-2.6,2.00008,2.00008,0,0,1,2,1.4l-.7.3a1.38071,1.38071,0,0,0-1.3-1c-1,0-1.5.9-1.5,1.9s.5,1.9,1.5,1.9a1.38071,1.38071,0,0,0,1.3-1l.6.2a1.92062,1.92062,0,0,1-1.9,1.4C139.7,30.7,138.9,29.5,138.9,28.1Z"/>
            <path d="M147.4,25.8l-.3.6a1.42123,1.42123,0,0,0-.6-.2c-.8,0-1.3.6-1.3,1.6v2.7h-.7V25.6h.7v.7a1.76842,1.76842,0,0,1,1.5-.8C146.8,25.6,147.1,25.6,147.4,25.8Z"/>
            <path d="M151.9,28.3h-3.6a1.50257,1.50257,0,0,0,1.6,1.7,1.63973,1.63973,0,0,0,1.4-.6l.5.4a2.36419,2.36419,0,0,1-1.9.8,2.2595,2.2595,0,0,1-2.3-2.5,2.32793,2.32793,0,0,1,2.2-2.6,2.09238,2.09238,0,0,1,2.1,2.3Zm-3.7-.6h3v-.2a1.394,1.394,0,0,0-1.5-1.4A1.80585,1.80585,0,0,0,148.2,27.7Z"/>
            <path d="M155.3,30.5a1.95227,1.95227,0,0,1-.7.1c-.7,0-1.1-.4-1.1-1.2V26.2h-.8v-.6h.8V24.2l.7-.5v1.9h1.2v.6h-1.2v3.1c0,.5.2.7.6.7a1.26842,1.26842,0,0,0,.6-.1Z"/>
            <path d="M160.5,28.3h-3.6a1.50257,1.50257,0,0,0,1.6,1.7,1.63973,1.63973,0,0,0,1.4-.6l.5.4a2.36419,2.36419,0,0,1-1.9.8,2.2595,2.2595,0,0,1-2.3-2.5,2.32793,2.32793,0,0,1,2.2-2.6,2.09238,2.09238,0,0,1,2.1,2.3Zm-3.6-.6h3v-.2a1.394,1.394,0,0,0-1.5-1.4A1.62373,1.62373,0,0,0,156.9,27.7Z"/>
            <path d="M164.9,26.2h-1v-.6h1v-.8c0-1,.6-1.4,1.2-1.4a2.91973,2.91973,0,0,1,.9.2l-.2.5a1.42127,1.42127,0,0,0-.6-.2c-.4,0-.6.3-.6.7v.8H167V26h-1.4v4.3h-.7V26.2Z"/>
            <path d="M167.5,28.1a2.28513,2.28513,0,0,1,2.4-2.5,2.50208,2.50208,0,0,1,0,5A2.3374,2.3374,0,0,1,167.5,28.1Zm4,0a1.71053,1.71053,0,1,0-3.4,0,1.71053,1.71053,0,1,0,3.4,0Z"/>
            <path d="M177.5,31.3c0,.9-.9,1.4-2.1,1.4-1.4,0-2.2-.5-2.2-1.5V31l.8-.7a.961.961,0,0,1-.6-.9,1.05018,1.05018,0,0,1,.5-.9,1.50386,1.50386,0,0,1-.4-1.1,1.74047,1.74047,0,0,1,1.9-1.7,1.594,1.594,0,0,1,1.2.4l.7-.6.4.5-.7.6a1.61294,1.61294,0,0,1,.3.9,1.74047,1.74047,0,0,1-1.9,1.7,2.95855,2.95855,0,0,1-1-.2.54993.54993,0,0,0-.3.5c0,.5.6.6,1.3.7C176.3,30.1,177.5,30.3,177.5,31.3Zm-.7.1c0-.6-.8-.7-1.6-.8-.2,0-.4-.1-.7-.1l-.7.6v.1c0,.7.7.9,1.5.9C176.2,32.1,176.8,31.9,176.8,31.4Zm-2.7-4.1a1.20455,1.20455,0,0,0,2.4,0,1.20455,1.20455,0,0,0-2.4,0Z"/>
          </g>
          <path id="Rectangle_180" data-name="Rectangle 180" d="M99.6,22.4h9.9a5.34089,5.34089,0,0,1,5.6,5h0a5.192,5.192,0,0,1-5.5,5H99.7a5.34091,5.34091,0,0,1-5.6-5h0a5.19733,5.19733,0,0,1,5.5-5Z" fill="#5151fc"/>
        </g>
        <g id="Raggruppa_24946" data-name="Raggruppa 24946">
          <g style="isolation: isolate">
            <path d="M222.1,28.7h-2.9l-.7,1.9h-.7l2.6-7h.6l2.6,7h-.8Zm-.2-.6-1.2-3.5-1.2,3.5Z"/>
            <path d="M229.4,28.1c0,1.5-.7,2.5-2.2,2.5a2.0151,2.0151,0,0,1-1.6-.7v.7h-.7v-7h.7v2.7a1.94316,1.94316,0,0,1,1.6-.8A2.39061,2.39061,0,0,1,229.4,28.1Zm-.7,0c0-1.2-.6-1.9-1.6-1.9s-1.6.8-1.6,1.9.5,1.9,1.6,1.9C228.1,30,228.7,29.2,228.7,28.1Z"/>
            <path d="M230.3,29.4l.6-.3a1.46079,1.46079,0,0,0,1.4.9c.7,0,1.1-.3,1.1-.8,0-1.3-2.8-.5-2.8-2.2,0-.9.7-1.4,1.7-1.4a1.90428,1.90428,0,0,1,1.8,1l-.5.3a1.27264,1.27264,0,0,0-1.2-.7c-.6,0-1,.2-1,.7,0,1.2,2.8.4,2.8,2.3,0,1-.8,1.5-1.8,1.5A1.96344,1.96344,0,0,1,230.3,29.4Z"/>
            <path d="M237.5,30.5a1.95227,1.95227,0,0,1-.7.1c-.7,0-1.1-.4-1.1-1.2V26.2h-.9v-.6h.8V24.2l.7-.5v1.9h1.2v.6h-1.2v3.1c0,.5.2.7.6.7a1.26834,1.26834,0,0,0,.6-.1Z"/>
            <path d="M241.7,25.8l-.3.6a1.4214,1.4214,0,0,0-.6-.2c-.8,0-1.3.6-1.3,1.6v2.7h-.7V25.6h.7v.7a1.76842,1.76842,0,0,1,1.5-.8A3.6295,3.6295,0,0,1,241.7,25.8Z"/>
            <path d="M246.4,27.5v3.1h-.6v-.8a2.19714,2.19714,0,0,1-1.8.8c-1.1,0-1.7-.6-1.7-1.5a1.14878,1.14878,0,0,1,.6-1.1,4.09326,4.09326,0,0,1,1.9-.3h1v-.2c0-.9-.4-1.3-1.3-1.3a1.89892,1.89892,0,0,0-1.5.8l-.5-.4a2.33435,2.33435,0,0,1,2-1A1.73635,1.73635,0,0,1,246.4,27.5Zm-.7.9h0l-.9-.1a3.57507,3.57507,0,0,0-1.5.2.71271.71271,0,0,0-.3.6c0,.5.5.9,1.2.9C245.1,30.1,245.7,29.4,245.7,28.4Z"/>
            <path d="M247.7,28.1a2.32027,2.32027,0,0,1,2.2-2.6,2.00009,2.00009,0,0,1,2,1.4l-.7.3a1.38072,1.38072,0,0,0-1.3-1c-1,0-1.5.9-1.5,1.9s.5,1.9,1.5,1.9a1.38066,1.38066,0,0,0,1.3-1l.6.2a1.92061,1.92061,0,0,1-1.9,1.4C248.5,30.7,247.7,29.5,247.7,28.1Z"/>
            <path d="M255.2,30.5a1.95224,1.95224,0,0,1-.7.1c-.7,0-1.1-.4-1.1-1.2V26.2h-.8v-.6h.8V24.2l.7-.5v1.9h1.2v.6h-1.2v3.1c0,.5.2.7.6.7a1.26836,1.26836,0,0,0,.6-.1Z"/>
            <path d="M263.2,28.3h-3.6a1.50257,1.50257,0,0,0,1.6,1.7,1.63976,1.63976,0,0,0,1.4-.6l.5.4a2.3642,2.3642,0,0,1-1.9.8,2.25948,2.25948,0,0,1-2.3-2.5,2.32792,2.32792,0,0,1,2.2-2.6,2.09237,2.09237,0,0,1,2.1,2.3Zm-3.7-.6h3v-.2a1.394,1.394,0,0,0-1.5-1.4A1.80578,1.80578,0,0,0,259.5,27.7Z"/>
            <path d="M267.6,25.8l-.3.6a1.42131,1.42131,0,0,0-.6-.2c-.8,0-1.3.6-1.3,1.6v2.7h-.7V25.6h.7v.7a1.76841,1.76841,0,0,1,1.5-.8C267,25.6,267.3,25.6,267.6,25.8Z"/>
            <path d="M272.3,27.5v3.1h-.6v-.8a2.19713,2.19713,0,0,1-1.8.8c-1.1,0-1.7-.6-1.7-1.5a1.1488,1.1488,0,0,1,.6-1.1,4.09326,4.09326,0,0,1,1.9-.3h1v-.2c0-.9-.4-1.3-1.3-1.3a1.89889,1.89889,0,0,0-1.5.8l-.5-.4a2.33435,2.33435,0,0,1,2-1A1.78435,1.78435,0,0,1,272.3,27.5Zm-.7.9h0l-.9-.1a3.57511,3.57511,0,0,0-1.5.2.7127.7127,0,0,0-.3.6c0,.5.5.9,1.2.9C271,30.1,271.6,29.4,271.6,28.4Z"/>
            <path d="M273.4,29.4l.6-.3a1.46083,1.46083,0,0,0,1.4.9c.7,0,1.1-.3,1.1-.8,0-1.3-2.8-.5-2.8-2.2,0-.9.7-1.4,1.7-1.4a1.90427,1.90427,0,0,1,1.8,1l-.5.3a1.27261,1.27261,0,0,0-1.2-.7c-.6,0-1,.2-1,.7,0,1.2,2.8.4,2.8,2.3,0,1-.8,1.5-1.8,1.5A2.13117,2.13117,0,0,1,273.4,29.4Z"/>
            <path d="M282.4,25.7v4.9h-.7v-.7a1.94313,1.94313,0,0,1-1.6.8c-1.1,0-1.6-.8-1.6-2v-3h.7v2.8c0,.8.1,1.5,1.1,1.5s1.5-.8,1.5-2.1V25.6C281.7,25.7,282.4,25.7,282.4,25.7Z"/>
            <path d="M287.2,25.8l-.3.6a1.4214,1.4214,0,0,0-.6-.2c-.8,0-1.3.6-1.3,1.6v2.7h-.7V25.6h.7v.7a1.76842,1.76842,0,0,1,1.5-.8C286.6,25.6,286.9,25.6,287.2,25.8Z"/>
            <path d="M291.7,28.3h-3.6a1.50257,1.50257,0,0,0,1.6,1.7,1.63976,1.63976,0,0,0,1.4-.6l.5.4a2.3642,2.3642,0,0,1-1.9.8,2.25948,2.25948,0,0,1-2.3-2.5,2.32792,2.32792,0,0,1,2.2-2.6,2.09237,2.09237,0,0,1,2.1,2.3Zm-3.7-.6h3v-.2a1.394,1.394,0,0,0-1.5-1.4A1.80578,1.80578,0,0,0,288,27.7Z"/>
          </g>
          <path id="Rectangle_181" data-name="Rectangle 181" d="M196.6,22.4h9.9a5.34092,5.34092,0,0,1,5.6,5h0a5.25129,5.25129,0,0,1-5.5,5h-9.9a5.34092,5.34092,0,0,1-5.6-5h0a5.13912,5.13912,0,0,1,5.5-5Z" fill="#c2faef"/>
        </g>
        <g id="Raggruppa_24948" data-name="Raggruppa 24948">
          <g style="isolation: isolate">
            <path d="M332.1,27.1c0-2.2,1.2-3.6,3.2-3.6a2.83107,2.83107,0,0,1,2.9,1.9l-.7.2a2.1651,2.1651,0,0,0-2.2-1.5c-1.6,0-2.5,1-2.5,2.9s.9,2.9,2.5,2.9a2.28865,2.28865,0,0,0,2.3-1.5l.7.2a2.83108,2.83108,0,0,1-2.9,1.9C333.3,30.7,332.1,29.3,332.1,27.1Z"/>
            <path d="M339,28.1a2.28513,2.28513,0,0,1,2.4-2.5,2.50208,2.50208,0,0,1,0,5A2.3374,2.3374,0,0,1,339,28.1Zm4,0a1.71054,1.71054,0,1,0-3.4,0,1.71054,1.71054,0,1,0,3.4,0Z"/>
            <path d="M349,27.6v3h-.7V27.8c0-1.1-.3-1.5-1.1-1.5-.9,0-1.5.8-1.5,2.2v2.2H345V25.8h.7v.7a1.81636,1.81636,0,0,1,1.6-.8C348.5,25.6,349,26.3,349,27.6Z"/>
            <path d="M350.3,28.1a2.32026,2.32026,0,0,1,2.2-2.6,2.00008,2.00008,0,0,1,2,1.4l-.7.3a1.38072,1.38072,0,0,0-1.3-1c-1,0-1.5.9-1.5,1.9s.5,1.9,1.5,1.9a1.38067,1.38067,0,0,0,1.3-1l.6.2a1.9206,1.9206,0,0,1-1.9,1.4C351.1,30.7,350.3,29.5,350.3,28.1Z"/>
            <path d="M358.8,25.8l-.3.6a1.42131,1.42131,0,0,0-.6-.2c-.8,0-1.3.6-1.3,1.6v2.7h-.7V25.6h.7v.7a1.76841,1.76841,0,0,1,1.5-.8A3.62977,3.62977,0,0,1,358.8,25.8Z"/>
            <path d="M363.3,28.3h-3.6a1.50257,1.50257,0,0,0,1.6,1.7,1.63973,1.63973,0,0,0,1.4-.6l.5.4a2.36416,2.36416,0,0,1-1.9.8,2.25949,2.25949,0,0,1-2.3-2.5,2.32792,2.32792,0,0,1,2.2-2.6,2.09238,2.09238,0,0,1,2.1,2.3Zm-3.6-.6h3v-.2a1.394,1.394,0,0,0-1.5-1.4A1.62372,1.62372,0,0,0,359.7,27.7Z"/>
            <path d="M366.8,30.5a1.95227,1.95227,0,0,1-.7.1c-.7,0-1.1-.4-1.1-1.2V26.2h-.8v-.6h.8V24.2l.7-.5v1.9h1.2v.6h-1.2v3.1c0,.5.2.7.6.7a1.26834,1.26834,0,0,0,.6-.1Z"/>
            <path d="M371.9,28.3h-3.6a1.50257,1.50257,0,0,0,1.6,1.7,1.63976,1.63976,0,0,0,1.4-.6l.5.4a2.3642,2.3642,0,0,1-1.9.8,2.25948,2.25948,0,0,1-2.3-2.5,2.32792,2.32792,0,0,1,2.2-2.6,2.09237,2.09237,0,0,1,2.1,2.3Zm-3.6-.6h3v-.2a1.394,1.394,0,0,0-1.5-1.4A1.7082,1.7082,0,0,0,368.3,27.7Z"/>
            <path d="M380,28.3h-3.6A1.50257,1.50257,0,0,0,378,30a1.63973,1.63973,0,0,0,1.4-.6l.5.4a2.36416,2.36416,0,0,1-1.9.8,2.25949,2.25949,0,0,1-2.3-2.5,2.32792,2.32792,0,0,1,2.2-2.6,2.09238,2.09238,0,0,1,2.1,2.3Zm-3.6-.6h3v-.2a1.394,1.394,0,0,0-1.5-1.4A1.62375,1.62375,0,0,0,376.4,27.7Z"/>
            <path d="M384.4,25.8l-.3.6a1.4214,1.4214,0,0,0-.6-.2c-.8,0-1.3.6-1.3,1.6v2.7h-.7V25.6h.7v.7a1.76842,1.76842,0,0,1,1.5-.8C383.8,25.6,384.1,25.6,384.4,25.8Z"/>
            <path d="M389.1,27.5v3.1h-.6v-.8a2.19714,2.19714,0,0,1-1.8.8c-1.1,0-1.7-.6-1.7-1.5a1.14878,1.14878,0,0,1,.6-1.1,4.09326,4.09326,0,0,1,1.9-.3h1v-.2a1.16217,1.16217,0,0,0-1.3-1.3,1.89892,1.89892,0,0,0-1.5.8l-.5-.4a2.33435,2.33435,0,0,1,2-1A1.73635,1.73635,0,0,1,389.1,27.5Zm-.7.9h0l-.9-.1a3.57507,3.57507,0,0,0-1.5.2.71271.71271,0,0,0-.3.6c0,.5.5.9,1.2.9C387.8,30.1,388.4,29.4,388.4,28.4Z"/>
            <path d="M390.2,29.4l.6-.3a1.46083,1.46083,0,0,0,1.4.9c.7,0,1.1-.3,1.1-.8,0-1.3-2.8-.5-2.8-2.2,0-.9.7-1.4,1.7-1.4a1.90427,1.90427,0,0,1,1.8,1l-.5.3a1.27263,1.27263,0,0,0-1.2-.7c-.6,0-1,.2-1,.7,0,1.2,2.8.4,2.8,2.3,0,1-.8,1.5-1.8,1.5A2.13116,2.13116,0,0,1,390.2,29.4Z"/>
            <path d="M399.2,25.7v4.9h-.7v-.7a1.94315,1.94315,0,0,1-1.6.8c-1.1,0-1.6-.8-1.6-2v-3h.7v2.8c0,.8.1,1.5,1.1,1.5s1.5-.8,1.5-2.1V25.6C398.5,25.7,399.2,25.7,399.2,25.7Z"/>
            <path d="M404,25.8l-.3.6a1.42132,1.42132,0,0,0-.6-.2c-.8,0-1.3.6-1.3,1.6v2.7H401V25.6h.7v.7a1.76842,1.76842,0,0,1,1.5-.8A4.11641,4.11641,0,0,1,404,25.8Z"/>
            <path d="M408.5,28.3h-3.6a1.50257,1.50257,0,0,0,1.6,1.7,1.63973,1.63973,0,0,0,1.4-.6l.5.4a2.36416,2.36416,0,0,1-1.9.8,2.25949,2.25949,0,0,1-2.3-2.5,2.32792,2.32792,0,0,1,2.2-2.6,2.09238,2.09238,0,0,1,2.1,2.3Zm-3.6-.6h3v-.2a1.394,1.394,0,0,0-1.5-1.4A1.62375,1.62375,0,0,0,404.9,27.7Z"/>
          </g>
          <path id="Rectangle_182" data-name="Rectangle 182" d="M310.6,22.4h9.9a5.34093,5.34093,0,0,1,5.6,5h0a5.25131,5.25131,0,0,1-5.5,5h-9.9a5.34092,5.34092,0,0,1-5.6-5h0a5.13912,5.13912,0,0,1,5.5-5Z" fill="#00c19c"/>
        </g>
      </g>
    </g>
  </g>
</svg>
