<svg xmlns="http://www.w3.org/2000/svg" xmlns:xlink="http://www.w3.org/1999/xlink" width="938" height="105.29" viewBox="0 0 938 105.29">
  <defs>
    <clipPath id="clip-path">
      <rect id="SVGID" width="11.6" height="11.6" transform="translate(-1056.362 -103.437)" fill="none"/>
    </clipPath>
    <clipPath id="clip-path-2">
      <rect id="SVGID-2" data-name="SVGID" width="11.61" height="11.61" transform="translate(-1056.424 -103.344)" fill="none"/>
    </clipPath>
    <clipPath id="clip-path-3">
      <rect id="SVGID-3" data-name="SVGID" width="11.6" height="11.6" transform="translate(-1056.333 -81.336)" fill="none"/>
    </clipPath>
    <clipPath id="clip-path-4">
      <rect id="SVGID-4" data-name="SVGID" width="11.61" height="11.61" transform="translate(-1056.412 -81.215)" fill="none"/>
    </clipPath>
    <clipPath id="clip-Legend01">
      <rect width="938" height="105.29"/>
    </clipPath>
  </defs>
  <g id="Legend01" clip-path="url(#clip-Legend01)">
    <path id="Path_161918" data-name="Path 161918" d="M1.035.01h.776v-3.1H2.944L4.668.01h.908l-1.87-3.2a1.763,1.763,0,0,0,1.47-1.787A1.959,1.959,0,0,0,3.008-6.89H1.035ZM1.821-3.8V-6.206h1.2a1.234,1.234,0,0,1,1.4,1.23c0,.742-.542,1.138-1.279,1.177ZM8.408.068a2.392,2.392,0,0,0,1.865-.762l-.5-.4A1.7,1.7,0,0,1,8.4-.571,1.444,1.444,0,0,1,6.978-2.192h3.4c.01-.088.024-.249.024-.376,0-1.123-.488-2.378-2.07-2.378-1.416,0-2.119,1.226-2.119,2.534A2.211,2.211,0,0,0,8.408.068ZM6.978-2.788c.039-.83.459-1.558,1.353-1.558,1,0,1.353.776,1.372,1.558ZM12.793.1a1.821,1.821,0,0,0,1.714-1.04L14.521,0h.62V-2.993A1.8,1.8,0,0,0,13.232-4.98a2.164,2.164,0,0,0-1.841.957l.532.415a1.605,1.605,0,0,1,1.353-.737c.884,0,1.2.64,1.2,1.558H13.359c-1.387,0-2.148.454-2.148,1.431A1.43,1.43,0,0,0,12.793.1Zm.083-.615c-.508,0-.913-.239-.913-.82,0-.649.5-.9,1.465-.9h1.045A1.683,1.683,0,0,1,12.876-.518Zm4.746-.02c-.22,0-.239-.264-.239-.278V-6.9h-.737V-.986C16.646-.4,16.7.1,17.437.1A2.381,2.381,0,0,0,18.1,0V-.586A2.891,2.891,0,0,1,17.622-.537Zm1.523-5.425h.83V-6.9h-.83ZM19.2,0h.723V-4.878H19.2Zm3.73.1a1.966,1.966,0,0,0,.654-.1V-.625A1.164,1.164,0,0,1,23.1-.5c-.356,0-.62-.249-.62-.786V-4.282h1.235v-.6H22.476V-6.66l-.723.684v1.1h-.786v.6h.781v2.988C21.748-.459,22.065.1,22.93.1Zm2.388,2h.767L28.7-4.878h-.8L26.514-.889,25.083-4.878h-.806L26.152-.024Z" transform="translate(31.514 42.713)"/>
    <path id="Path_161919" data-name="Path 161919" d="M3.682.1A2.923,2.923,0,0,0,6.514-1.748L5.8-2.056A2.028,2.028,0,0,1,3.73-.615c-1.685,0-2.358-1.338-2.358-2.861,0-1.489.654-2.817,2.339-2.817a1.968,1.968,0,0,1,2.08,1.426L6.5-5.176A2.726,2.726,0,0,0,3.745-7.012C1.548-7.012.61-5.371.61-3.467.61-1.519,1.592.1,3.682.1ZM9.463.1a2.4,2.4,0,0,0,2.324-2.549A2.383,2.383,0,0,0,9.463-4.98a2.361,2.361,0,0,0-2.3,2.529A2.376,2.376,0,0,0,9.463.1Zm0-.605C8.394-.508,7.9-1.465,7.9-2.451s.5-1.924,1.582-1.924,1.572.947,1.572,1.924S10.562-.508,9.468-.508ZM13.027,0h.728V-2.534c0-1.211.61-1.812,1.377-1.812.859,0,1.108.781,1.108,1.455V0h.723V-2.964c0-1.074-.474-2-1.636-2a1.752,1.752,0,0,0-1.572.938v-.85h-.728Zm6.821.1A1.966,1.966,0,0,0,20.5,0V-.625a1.164,1.164,0,0,1-.488.122c-.356,0-.62-.249-.62-.786V-4.282H20.63v-.6H19.395V-6.66l-.723.684v1.1h-.786v.6h.781v2.988C18.667-.459,18.984.1,19.849.1ZM23.56.068a2.392,2.392,0,0,0,1.865-.762l-.5-.4a1.7,1.7,0,0,1-1.372.522,1.444,1.444,0,0,1-1.426-1.621h3.4c.01-.088.024-.249.024-.376,0-1.123-.488-2.378-2.07-2.378-1.416,0-2.119,1.226-2.119,2.534A2.211,2.211,0,0,0,23.56.068ZM22.129-2.788c.039-.83.459-1.558,1.353-1.558,1,0,1.353.776,1.372,1.558ZM26.152,0h.894l1.138-1.846L29.326,0H30.2L28.569-2.461,30.2-4.878h-.869L28.184-3.071,27.046-4.878h-.894L27.8-2.461Zm6.5.1a1.966,1.966,0,0,0,.654-.1V-.625a1.164,1.164,0,0,1-.488.122c-.356,0-.62-.249-.62-.786V-4.282h1.235v-.6H32.2V-6.66l-.723.684v1.1h-.786v.6h.781v2.988C31.475-.459,31.792.1,32.656.1Zm3.491.01a1.736,1.736,0,0,0,1.533-.933V0H38.4V-4.878h-.723v2.7a1.566,1.566,0,0,1-1.455,1.67C35.391-.508,35.2-1.294,35.2-2V-4.878h-.728v2.832C34.473-.83,34.946.107,36.147.107ZM41.187.1A1.821,1.821,0,0,0,42.9-.942L42.915,0h.62V-2.993A1.8,1.8,0,0,0,41.626-4.98a2.164,2.164,0,0,0-1.841.957l.532.415a1.605,1.605,0,0,1,1.353-.737c.884,0,1.2.64,1.2,1.558H41.753c-1.387,0-2.148.454-2.148,1.431A1.43,1.43,0,0,0,41.187.1Zm.083-.615c-.508,0-.913-.239-.913-.82,0-.649.5-.9,1.465-.9h1.045A1.683,1.683,0,0,1,41.27-.518Zm4.746-.02c-.22,0-.239-.264-.239-.278V-6.9h-.737V-.986C45.039-.4,45.093.1,45.83.1a2.381,2.381,0,0,0,.659-.1V-.586A2.891,2.891,0,0,1,46.016-.537Zm1.523-5.425h.83V-6.9h-.83ZM47.593,0h.723V-4.878h-.723Zm3.726.1a1.521,1.521,0,0,0,1.675-1.489c0-1.792-2.632-1.2-2.632-2.324,0-.4.327-.674.854-.674A1.15,1.15,0,0,1,52.3-3.7l.537-.308a1.733,1.733,0,0,0-1.6-.972,1.392,1.392,0,0,0-1.548,1.353c0,1.655,2.593,1.011,2.593,2.324,0,.527-.405.806-.957.806a1.237,1.237,0,0,1-1.216-.928l-.615.317A1.893,1.893,0,0,0,51.318.1Zm3.936,0a1.821,1.821,0,0,0,1.714-1.04L56.982,0h.62V-2.993A1.8,1.8,0,0,0,55.693-4.98a2.164,2.164,0,0,0-1.841.957l.532.415a1.605,1.605,0,0,1,1.353-.737c.884,0,1.2.64,1.2,1.558H55.82c-1.387,0-2.148.454-2.148,1.431A1.43,1.43,0,0,0,55.254.1Zm.083-.615c-.508,0-.913-.239-.913-.82,0-.649.5-.9,1.465-.9h1.045A1.683,1.683,0,0,1,55.337-.518ZM60.469.1a1.966,1.966,0,0,0,.654-.1V-.625a1.164,1.164,0,0,1-.488.122c-.356,0-.62-.249-.62-.786V-4.282H61.25v-.6H60.015V-6.66l-.723.684v1.1h-.786v.6h.781v2.988C59.287-.459,59.6.1,60.469.1Zm1.895-6.06h.83V-6.9h-.83ZM62.417,0h.723V-4.878h-.723Zm4.272.1a2.4,2.4,0,0,0,2.324-2.549A2.383,2.383,0,0,0,66.689-4.98a2.361,2.361,0,0,0-2.3,2.529A2.376,2.376,0,0,0,66.689.1Zm0-.605c-1.074,0-1.572-.957-1.572-1.943s.5-1.924,1.582-1.924,1.572.947,1.572,1.924S67.788-.508,66.694-.508ZM70.254,0h.728V-2.534c0-1.211.61-1.812,1.377-1.812.859,0,1.108.781,1.108,1.455V0h.723V-2.964c0-1.074-.474-2-1.636-2a1.752,1.752,0,0,0-1.572.938v-.85h-.728Z" transform="translate(31.513 64.713)"/>
    <path id="Path_161920" data-name="Path 161920" d="M1.035,0h.776V-6.9H1.035ZM3.662,0H4.4V-2.544c0-.884.435-1.816,1.245-1.816.835,0,1.025.776,1.025,1.45V0h.742V-2.705c0-.8.435-1.655,1.235-1.655.845,0,1.045.806,1.045,1.47V0h.737V-2.964c0-1.084-.488-2.017-1.694-2.017A1.618,1.618,0,0,0,7.217-3.96,1.465,1.465,0,0,0,5.728-4.98,1.459,1.459,0,0,0,4.4-4.121v-.757H3.662ZM13.1.1A1.821,1.821,0,0,0,14.81-.942L14.824,0h.62V-2.993A1.8,1.8,0,0,0,13.535-4.98a2.164,2.164,0,0,0-1.841.957l.532.415a1.605,1.605,0,0,1,1.353-.737c.884,0,1.2.64,1.2,1.558H13.662c-1.387,0-2.148.454-2.148,1.431A1.43,1.43,0,0,0,13.1.1Zm.083-.615c-.508,0-.913-.239-.913-.82,0-.649.5-.9,1.465-.9h1.045A1.683,1.683,0,0,1,13.179-.518ZM18.716-.63c-.693-.1-1.3-.244-1.3-.747a.462.462,0,0,1,.21-.376,2.079,2.079,0,0,0,.918.205,1.661,1.661,0,0,0,1.8-1.68,1.761,1.761,0,0,0-.181-.791l.786-.62-.415-.518-.732.664a1.855,1.855,0,0,0-1.26-.454,1.7,1.7,0,0,0-1.826,1.709,1.625,1.625,0,0,0,.41,1.113,1,1,0,0,0-.356.806,1.082,1.082,0,0,0,.62,1l-.7.708a1.287,1.287,0,0,0-.015.186c0,.928.835,1.66,2.1,1.66,1.025,0,1.953-.479,1.953-1.484C20.728-.352,19.707-.5,18.716-.63ZM18.53-4.37a1.059,1.059,0,0,1,1.079,1.118,1.023,1.023,0,0,1-1.079,1.1,1.019,1.019,0,0,1-1.074-1.1A1.066,1.066,0,0,1,18.53-4.37Zm.3,5.962c-.947,0-1.484-.5-1.489-1l.576-.7A4.948,4.948,0,0,0,18.5.015c.835.142,1.577.166,1.577.791C20.078,1.338,19.478,1.592,18.833,1.592Zm3.086-7.554h.83V-6.9h-.83ZM21.973,0H22.7V-4.878h-.723Zm2.373,0h.728V-2.534c0-1.211.61-1.812,1.377-1.812.859,0,1.108.781,1.108,1.455V0h.723V-2.964c0-1.074-.474-2-1.636-2a1.752,1.752,0,0,0-1.572.938v-.85h-.728Zm6.6.1a1.821,1.821,0,0,0,1.714-1.04L32.676,0h.62V-2.993A1.8,1.8,0,0,0,31.387-4.98a2.164,2.164,0,0,0-1.841.957l.532.415a1.605,1.605,0,0,1,1.353-.737c.884,0,1.2.64,1.2,1.558H31.514c-1.387,0-2.148.454-2.148,1.431A1.43,1.43,0,0,0,30.947.1Zm.083-.615c-.508,0-.913-.239-.913-.82,0-.649.5-.9,1.465-.9h1.045A1.683,1.683,0,0,1,31.03-.518ZM36.162.1a1.966,1.966,0,0,0,.654-.1V-.625a1.164,1.164,0,0,1-.488.122c-.356,0-.62-.249-.62-.786V-4.282h1.235v-.6H35.708V-6.66l-.723.684v1.1H34.2v.6h.781v2.988C34.98-.459,35.3.1,36.162.1Zm1.895-6.06h.83V-6.9h-.83ZM38.11,0h.723V-4.878H38.11Zm4.272.1a2.4,2.4,0,0,0,2.324-2.549A2.383,2.383,0,0,0,42.383-4.98a2.361,2.361,0,0,0-2.3,2.529A2.376,2.376,0,0,0,42.383.1Zm0-.605c-1.074,0-1.572-.957-1.572-1.943s.5-1.924,1.582-1.924,1.572.947,1.572,1.924S43.481-.508,42.388-.508ZM45.947,0h.728V-2.534c0-1.211.61-1.812,1.377-1.812.859,0,1.108.781,1.108,1.455V0h.723V-2.964c0-1.074-.474-2-1.636-2a1.752,1.752,0,0,0-1.572.938v-.85h-.728Z" transform="translate(31.513 86.713)"/>
    <path id="Rectangle_13359" data-name="Rectangle 13359" d="M-1287.879-102.5h11a4.951,4.951,0,0,1,5,5h0a4.951,4.951,0,0,1-5,5h-11a4.951,4.951,0,0,1-5-5h0A5.015,5.015,0,0,1-1287.879-102.5Z" transform="translate(1293.157 137.196)" fill="#00bfd3"/>
    <path id="Rectangle_13360" data-name="Rectangle 13360" d="M-1287.879-80.5h11a4.951,4.951,0,0,1,5,5h0a4.951,4.951,0,0,1-5,5h-11a4.951,4.951,0,0,1-5-5h0A5.015,5.015,0,0,1-1287.879-80.5Z" transform="translate(1293.157 137.196)" fill="#bbf"/>
    <path id="Rectangle_13361" data-name="Rectangle 13361" d="M-1287.879-58.5h11a4.951,4.951,0,0,1,5,5h0a4.951,4.951,0,0,1-5,5h-11a4.951,4.951,0,0,1-5-5h0A5.015,5.015,0,0,1-1287.879-58.5Z" transform="translate(1293.157 137.196)" fill="#f36"/>
    <g id="Group_24452" data-name="Group 24452" transform="translate(1288.635 137.196)">
      <text id="LOCATIONS_AND_CHARACTERS" data-name="LOCATIONS AND CHARACTERS" transform="translate(-1055.635 -113.495)" fill="#5151fc" font-size="10" font-family="HKGrotesk-Bold, HK Grotesk" font-weight="700" style="isolation: isolate"><tspan x="0" y="0">LOCATIONS AND CHARACTERS</tspan></text>
    </g>
    <path id="Path_161917" data-name="Path 161917" d="M2.261,0H3.5V-5.791H5.659V-6.9H.1v1.108H2.261ZM8.54,0H9.834V-2.69L12.412-6.9H10.9L9.17-3.882,7.451-6.9h-1.5L8.54-2.69Zm4.751,0h1.23V-2.861h.933c1.406,0,2.437-.708,2.437-2S16.86-6.9,15.454-6.9H13.291Zm1.23-4.019V-5.742h.933c.84,0,1.206.322,1.206.884s-.356.84-1.206.84ZM18.96,0h4.59V-1.172H20.2V-2.881h3.12V-4.019H20.2V-5.762h3.35V-6.9H18.96Zm8.052.078a2.169,2.169,0,0,0,2.4-2.09c0-2.29-3.34-1.851-3.34-3.149a.786.786,0,0,1,.869-.737,1.249,1.249,0,0,1,1.113.737l1.03-.63A2.309,2.309,0,0,0,26.982-7a1.951,1.951,0,0,0-2.153,1.9c0,2.246,3.34,1.768,3.34,3.2,0,.488-.4.879-1.138.879A1.315,1.315,0,0,1,25.6-2.261l-1.23.313A2.507,2.507,0,0,0,27.012.078ZM35.835.1a3.229,3.229,0,0,0,3.33-3.55A3.229,3.229,0,0,0,35.835-7a3.229,3.229,0,0,0-3.33,3.55A3.229,3.229,0,0,0,35.835.1Zm0-1.1c-1.479,0-2.021-1.147-2.021-2.451S34.355-5.9,35.835-5.9s2.021,1.147,2.021,2.446S37.314-1,35.835-1Zm4.619,1h1.24V-2.881h3.223V-4.019H41.694V-5.762h3.652V-6.9H40.454Zm8.433,0h1.191V-4.839L52.969,0h1.24V-6.9H53.018V-2.07L50.117-6.9h-1.23Zm6.27,0h1.353l.537-1.5h2.681L60.259,0H61.6L58.848-6.9H57.92Zm2.31-2.559.923-2.52.918,2.52ZM62.544.01h1.24V-2.949h.83L66.313.01h1.421L65.815-3.071a1.891,1.891,0,0,0,1.348-1.8A2.139,2.139,0,0,0,64.775-6.9H62.544Zm1.25-3.97V-5.791h.991c.708,0,1.152.371,1.152.942,0,.518-.391.859-1.05.889ZM68.735.01h1.24V-2.949h.83L72.5.01h1.421L72.007-3.071a1.891,1.891,0,0,0,1.348-1.8A2.139,2.139,0,0,0,70.967-6.9H68.735Zm1.25-3.97V-5.791h.991c.708,0,1.152.371,1.152.942,0,.518-.391.859-1.05.889ZM74.077,0H75.43l.537-1.5h2.681L79.18,0h1.338L77.769-6.9h-.928Zm2.31-2.559.923-2.52.918,2.52ZM82.188,0h1.24V-5.791h2.158V-6.9H80.024v1.108h2.163Zm4.39,0h1.24V-6.9h-1.24Zm4.951,0h.928l2.749-6.9H93.848L92-2.012,90.137-6.9H88.765Zm4.624,0h4.59V-1.172h-3.35V-2.881h3.12V-4.019h-3.12V-5.762h3.35V-6.9h-4.59Zm10.454.078a2.169,2.169,0,0,0,2.4-2.09c0-2.29-3.34-1.851-3.34-3.149a.786.786,0,0,1,.869-.737,1.249,1.249,0,0,1,1.113.737l1.03-.63A2.309,2.309,0,0,0,106.577-7a1.951,1.951,0,0,0-2.153,1.9c0,2.246,3.34,1.768,3.34,3.2,0,.488-.4.879-1.138.879a1.315,1.315,0,0,1-1.431-1.24l-1.23.313A2.507,2.507,0,0,0,106.606.078ZM110.186,0h4.59V-1.172h-3.35V-2.881h3.12V-4.019h-3.12V-5.762h3.35V-6.9h-4.59Zm11.743.581.8-.752-.986-.937a4.038,4.038,0,0,0,.679-2.334A3.237,3.237,0,0,0,119.087-7a3.229,3.229,0,0,0-3.33,3.55A3.229,3.229,0,0,0,119.087.1a3.3,3.3,0,0,0,1.851-.508Zm-2.842-1.65c-1.479,0-2.09-1.079-2.09-2.383s.61-2.378,2.09-2.378,2.09,1.079,2.09,2.378a2.87,2.87,0,0,1-.342,1.44l-.918-.85-.8.732.942.859A2.316,2.316,0,0,1,119.087-1.069ZM126.406.1c1.851,0,2.642-1.1,2.642-2.837V-6.9h-1.24v4.067c0,1.113-.288,1.733-1.4,1.733s-1.4-.62-1.4-1.733V-6.9H123.77V-2.69C123.77-1,124.556.1,126.406.1Zm4.258-.1h4.59V-1.172H131.9V-2.881h3.12V-4.019H131.9V-5.762h3.35V-6.9h-4.59Zm6.079,0h1.191V-4.839L140.825,0h1.24V-6.9h-1.191V-2.07l-2.9-4.829h-1.23Zm9.951.1a3.13,3.13,0,0,0,3.018-1.987l-1.147-.469a1.815,1.815,0,0,1-1.87,1.279c-1.479,0-2.109-1.05-2.109-2.422a2.046,2.046,0,0,1,2.09-2.329,1.734,1.734,0,0,1,1.87,1.26l1.157-.459a3.14,3.14,0,0,0-3.018-1.982,3.237,3.237,0,0,0-3.33,3.56A3.235,3.235,0,0,0,146.694.1Zm4.141-.1h4.59V-1.172h-3.35V-2.881h3.12V-4.019h-3.12V-5.762h3.35V-6.9h-4.59Z" transform="translate(0.522 23.701)" fill="#5151fc"/>
    <path id="Path_153170" data-name="Path 153170" d="M-1292.679-32.9" transform="translate(1293.157 137.196)" fill="none" stroke="#5151fc" stroke-miterlimit="10" stroke-width="0.5"/>
    <line id="Line_7910" data-name="Line 7910" x2="938.978" transform="translate(-0.5 0.694)" fill="none" stroke="#5151fc" stroke-miterlimit="10" stroke-width="0.5"/>
    <rect id="Rectangle_50" data-name="Rectangle 50" width="938" height="104.4" transform="translate(0.278 0.894)" fill="none"/>
    <g id="Group_24462" data-name="Group 24462" transform="translate(1304.547 159.196)">
      <g id="Group_24461" data-name="Group 24461">
        <g id="Group_24460" data-name="Group 24460" clip-path="url(#clip-path)">
          <g id="Group_24459" data-name="Group 24459">
            <g id="Group_24458" data-name="Group 24458">
              <g id="Group_24457" data-name="Group 24457" clip-path="url(#clip-path-2)">
                <g id="Group_24456" data-name="Group 24456">
                  <g id="New_Symbol" data-name="New Symbol">
                    <circle id="Ellipse_33592" data-name="Ellipse 33592" cx="5.49" cy="5.49" r="5.49" transform="translate(-1056.064 -103.074)" fill="#fff" stroke="#66f" stroke-miterlimit="10" stroke-width="0.75"/>
                    <rect id="Rectangle_19344" data-name="Rectangle 19344" width="3.24" height="6.57" transform="translate(-1051.924 -100.914)" fill="none"/>
                    <path id="Path_161571" data-name="Path 161571" d="M.552,0h.9V-1.606c0-.967.453-1.37.887-1.37a.742.742,0,0,1,.415.129l.423-.761a.978.978,0,0,0-.7-.274,1.082,1.082,0,0,0-1.02.719V-3.8H.552Z" transform="translate(-1051.958 -95.48)" fill="#5151fc"/>
                  </g>
                </g>
              </g>
            </g>
          </g>
        </g>
      </g>
    </g>
    <g id="Group_24469" data-name="Group 24469" transform="translate(1304.547 159.196)">
      <g id="Group_24468" data-name="Group 24468">
        <g id="Group_24467" data-name="Group 24467" clip-path="url(#clip-path-3)">
          <g id="Group_24466" data-name="Group 24466">
            <g id="Group_24465" data-name="Group 24465">
              <g id="Group_24464" data-name="Group 24464" clip-path="url(#clip-path-4)">
                <g id="Group_24463" data-name="Group 24463">
                  <circle id="Ellipse_33593" data-name="Ellipse 33593" cx="5.49" cy="5.49" r="5.49" transform="translate(-1056.052 -80.945)" fill="#5151fc" stroke="#fff" stroke-miterlimit="10" stroke-width="0.75"/>
                  <rect id="Rectangle_19345" data-name="Rectangle 19345" width="3.24" height="6.57" transform="translate(-1051.552 -78.245)" fill="none"/>
                  <path id="Path_161572" data-name="Path 161572" d="M.529-4.522H1.5v-.856H.529ZM.552,0h.921V-3.8H.552Z" transform="translate(-1051.566 -72.817)" fill="#fff"/>
                </g>
              </g>
            </g>
          </g>
        </g>
      </g>
    </g>
    <g id="Group_25101" data-name="Group 25101" transform="translate(1293.157 93.196)">
      <path id="Path_161570" data-name="Path 161570" d="M3.74.1A3.13,3.13,0,0,0,6.758-1.89L5.61-2.358A1.815,1.815,0,0,1,3.74-1.079c-1.479,0-2.109-1.05-2.109-2.422A2.046,2.046,0,0,1,3.721-5.83a1.734,1.734,0,0,1,1.87,1.26l1.157-.459A3.14,3.14,0,0,0,3.73-7.012,3.237,3.237,0,0,0,.4-3.452,3.235,3.235,0,0,0,3.74.1ZM7.612,0H8.765V-2.061c0-1.24.581-1.758,1.138-1.758a.952.952,0,0,1,.532.166l.542-.977a1.254,1.254,0,0,0-.894-.352,1.388,1.388,0,0,0-1.309.923v-.82H7.612ZM13.4.1a2.549,2.549,0,0,0,2-.879l-.82-.718a1.481,1.481,0,0,1-1.172.518,1.127,1.127,0,0,1-1.221-1.069h3.35a1.94,1.94,0,0,0,.044-.469A2.232,2.232,0,0,0,13.325-4.98a2.36,2.36,0,0,0-2.393,2.559A2.353,2.353,0,0,0,13.4.1ZM12.192-2.91c.112-.61.42-1.069,1.123-1.069a1.055,1.055,0,0,1,1.1,1.069Zm4.4,5.049H17.8V-.488A1.761,1.761,0,0,0,19.194.1c1.348,0,2.09-1.187,2.09-2.539S20.542-4.98,19.175-4.98A1.713,1.713,0,0,0,17.8-4.39v-.488H16.592ZM18.882-1c-.815,0-1.187-.62-1.187-1.44s.371-1.47,1.187-1.47,1.191.649,1.191,1.47S19.7-1,18.882-1Zm3.428,3.14h1.211V-.488A1.761,1.761,0,0,0,24.912.1C26.26.1,27-1.089,27-2.441S26.26-4.98,24.893-4.98a1.713,1.713,0,0,0-1.372.591v-.488H22.31ZM24.6-1c-.815,0-1.187-.62-1.187-1.44s.371-1.47,1.187-1.47,1.191.649,1.191,1.47S25.42-1,24.6-1ZM30.059.1a2.461,2.461,0,0,0,2.5-2.549,2.448,2.448,0,0,0-2.5-2.529,2.448,2.448,0,0,0-2.5,2.529A2.461,2.461,0,0,0,30.059.1Zm0-1.025c-.9,0-1.26-.723-1.26-1.523s.361-1.5,1.26-1.5,1.26.7,1.26,1.5S30.962-.928,30.059-.928Z" transform="translate(-1055.635 -50.483)"/>
      <g id="Group_25107" data-name="Group 25107" transform="translate(49)">
        <text id="Place_locatable_on_a_map" data-name="Place locatable on a map" transform="translate(-1055.635 -50.483)" font-size="10" font-family="HKGrotesk-Bold, HK Grotesk" font-weight="700" style="isolation: isolate"><tspan x="0" y="0">Place locatable on a map</tspan></text>
      </g>
    </g>
    <g id="Rectangle_20152" data-name="Rectangle 20152" transform="translate(234 32)" fill="none" stroke="#00bfd3" stroke-width="1">
      <rect width="40" height="16" rx="2" stroke="none"/>
      <rect x="0.5" y="0.5" width="39" height="15" rx="1.5" fill="none"/>
    </g>
    <path id="Path_161921" data-name="Path 161921" d="M1.035.01h.776v-3.1H2.944L4.668.01h.908l-1.87-3.2a1.763,1.763,0,0,0,1.47-1.787A1.959,1.959,0,0,0,3.008-6.89H1.035ZM1.821-3.8V-6.206h1.2a1.234,1.234,0,0,1,1.4,1.23c0,.742-.542,1.138-1.279,1.177ZM8.408.068a2.392,2.392,0,0,0,1.865-.762l-.5-.4A1.7,1.7,0,0,1,8.4-.571,1.444,1.444,0,0,1,6.978-2.192h3.4c.01-.088.024-.249.024-.376,0-1.123-.488-2.378-2.07-2.378-1.416,0-2.119,1.226-2.119,2.534A2.211,2.211,0,0,0,8.408.068ZM6.978-2.788c.039-.83.459-1.558,1.353-1.558,1,0,1.353.776,1.372,1.558ZM12.793.1a1.821,1.821,0,0,0,1.714-1.04L14.521,0h.62V-2.993A1.8,1.8,0,0,0,13.232-4.98a2.164,2.164,0,0,0-1.841.957l.532.415a1.605,1.605,0,0,1,1.353-.737c.884,0,1.2.64,1.2,1.558H13.359c-1.387,0-2.148.454-2.148,1.431A1.43,1.43,0,0,0,12.793.1Zm.083-.615c-.508,0-.913-.239-.913-.82,0-.649.5-.9,1.465-.9h1.045A1.683,1.683,0,0,1,12.876-.518Zm4.746-.02c-.22,0-.239-.264-.239-.278V-6.9h-.737V-.986C16.646-.4,16.7.1,17.437.1A2.381,2.381,0,0,0,18.1,0V-.586A2.891,2.891,0,0,1,17.622-.537ZM23.579.1A1.861,1.861,0,0,0,25.415-1.2L24.78-1.47a1.224,1.224,0,0,1-1.211.952c-1.021,0-1.362-1.021-1.362-1.914s.352-1.934,1.362-1.934a1.234,1.234,0,0,1,1.211.977l.688-.293a2,2,0,0,0-1.9-1.3c-1.406,0-2.109,1.24-2.109,2.549S22.173.1,23.579.1ZM26.6,0h.723V-2.632a1.537,1.537,0,0,1,1.455-1.65c.84,0,1.035.728,1.035,1.392V0h.737V-3.008c0-1.04-.474-1.958-1.641-1.958a1.9,1.9,0,0,0-1.587.889V-6.9H26.6Zm6.616.1a1.821,1.821,0,0,0,1.714-1.04L34.941,0h.62V-2.993A1.8,1.8,0,0,0,33.652-4.98a2.164,2.164,0,0,0-1.841.957l.532.415A1.605,1.605,0,0,1,33.7-4.346c.884,0,1.2.64,1.2,1.558H33.779c-1.387,0-2.148.454-2.148,1.431A1.43,1.43,0,0,0,33.213.1ZM33.3-.518c-.508,0-.913-.239-.913-.82,0-.649.5-.9,1.465-.9h1.045A1.683,1.683,0,0,1,33.3-.518ZM37.08,0H37.8V-2.437c0-1.177.5-1.846,1.333-1.846a.888.888,0,0,1,.6.186l.308-.63a1.268,1.268,0,0,0-.786-.254,1.572,1.572,0,0,0-1.44.967v-.864H37.08Zm5.029.1a1.821,1.821,0,0,0,1.714-1.04L43.838,0h.62V-2.993A1.8,1.8,0,0,0,42.549-4.98a2.164,2.164,0,0,0-1.841.957l.532.415a1.605,1.605,0,0,1,1.353-.737c.884,0,1.2.64,1.2,1.558H42.676c-1.387,0-2.148.454-2.148,1.431A1.43,1.43,0,0,0,42.109.1Zm.083-.615c-.508,0-.913-.239-.913-.82,0-.649.5-.9,1.465-.9h1.045A1.683,1.683,0,0,1,42.192-.518ZM47.725.1A1.861,1.861,0,0,0,49.561-1.2l-.635-.273a1.224,1.224,0,0,1-1.211.952c-1.021,0-1.362-1.021-1.362-1.914s.352-1.934,1.362-1.934a1.234,1.234,0,0,1,1.211.977l.688-.293a2,2,0,0,0-1.9-1.3c-1.406,0-2.109,1.24-2.109,2.549S46.318.1,47.725.1ZM52.09.1a1.966,1.966,0,0,0,.654-.1V-.625a1.164,1.164,0,0,1-.488.122c-.356,0-.62-.249-.62-.786V-4.282h1.235v-.6H51.636V-6.66l-.723.684v1.1h-.786v.6h.781v2.988C50.908-.459,51.226.1,52.09.1ZM55.8.068a2.392,2.392,0,0,0,1.865-.762l-.5-.4A1.7,1.7,0,0,1,55.8-.571,1.444,1.444,0,0,1,54.37-2.192h3.4c.01-.088.024-.249.024-.376,0-1.123-.488-2.378-2.07-2.378-1.416,0-2.119,1.226-2.119,2.534A2.211,2.211,0,0,0,55.8.068ZM54.37-2.788c.039-.83.459-1.558,1.353-1.558,1,0,1.353.776,1.372,1.558ZM59.048,0h.718V-2.437c0-1.177.5-1.846,1.333-1.846a.888.888,0,0,1,.6.186L62-4.727a1.268,1.268,0,0,0-.786-.254,1.572,1.572,0,0,0-1.44.967v-.864h-.728Z" transform="translate(287 64.713)"/>
    <g id="Group_25103" data-name="Group 25103" transform="translate(1310.731 158.196)">
      <text id="Imaginary_character" data-name="Imaginary character" transform="translate(-1023.731 -72.483)" fill="#4500ff" font-size="10" font-family="HKGrotesk-Italic, HK Grotesk" font-style="italic" style="isolation: isolate"><tspan x="0" y="0">Imaginary character</tspan></text>
    </g>
  </g>
</svg>
