<?xml version="1.0" encoding="utf-8"?>
<!-- Generator: Adobe Illustrator 25.1.0, SVG Export Plug-In . SVG Version: 6.00 Build 0)  -->
<svg version="1.1" id="Livello_1" xmlns="http://www.w3.org/2000/svg" xmlns:xlink="http://www.w3.org/1999/xlink" x="0px" y="0px"
	 viewBox="0 0 938 105.29" enable-background="new 0 0 938 105.29" xml:space="preserve">
<g>
	<defs>
		<rect id="SVGID_1_" y="0" width="938" height="105.29"/>
	</defs>
	<clipPath id="SVGID_2_">
		<use xlink:href="#SVGID_1_"  overflow="visible"/>
	</clipPath>
	<g id="Legend01" clip-path="url(#SVGID_2_)">
		<g enable-background="new    ">
			<path d="M36.58154,42.71307l-1.7793-3.08789h-0.46973h-0.96924v3.08789h-0.70996v-6.96582h1.98926
				c1.49902,0,2.29883,0.66895,2.29883,1.92871c0,0.97949-0.48975,1.60938-1.4292,1.8584l1.89893,3.17871H36.58154z
				 M34.57227,38.96503c1.09961,0,1.64941-0.42969,1.64941-1.2793s-0.5498-1.2793-1.64941-1.2793h-1.20898v2.55859H34.57227z"/>
			<path d="M42.45117,40.43475h-3.60791c0.02002,1.0791,0.61963,1.72852,1.58936,1.72852c0.53955,0,0.96924-0.13965,1.41895-0.61914
				l0.47998,0.41895c-0.57959,0.61035-1.14941,0.83008-1.90918,0.83008c-1.49902,0-2.26855-1.11914-2.26855-2.51855
				c0-1.38965,0.75977-2.56836,2.18896-2.56836c1.50879,0,2.13867,1.17871,2.13867,2.29785
				C42.48145,40.14471,42.47119,40.31464,42.45117,40.43475z M38.84326,39.85468h2.97852c0-0.02051-0.01025-0.07031-0.01025-0.16016
				c-0.0498-0.7998-0.55957-1.40918-1.46875-1.40918C39.45312,38.28534,38.90332,38.98553,38.84326,39.85468z"/>
			<path d="M47.54199,39.64471v3.06836h-0.62988l-0.04004-0.75977c-0.38965,0.5498-0.98926,0.83984-1.76904,0.83984
				c-1.06934,0-1.69873-0.55957-1.69873-1.50977c0-0.49902,0.19971-0.87891,0.55957-1.09863
				c0.37988-0.21973,0.90967-0.31055,1.87891-0.31055h1.00928v-0.22949c0-0.85938-0.44971-1.3291-1.2793-1.3291
				c-0.61963,0-1.09912,0.26953-1.49902,0.81934l-0.49951-0.41992c0.5293-0.68945,1.16895-1.00879,2.00879-1.00879
				C46.82227,37.70624,47.54199,38.41522,47.54199,39.64471z M46.85205,40.50409v-0.06934h-0.94922
				c-0.90967,0-1.29932,0.05957-1.53906,0.24902c-0.18018,0.14062-0.27002,0.36035-0.27002,0.63965
				c0,0.5498,0.46973,0.90039,1.20947,0.90039C46.25244,42.22382,46.85205,41.55389,46.85205,40.50409z"/>
			<path d="M49.18359,41.64374v-5.89648h0.68945v5.85645c0,0.33984,0.12012,0.55957,0.44971,0.55957
				c0.1499,0,0.31982-0.04004,0.46973-0.08984l0.01025,0.58984c-0.20996,0.06934-0.45996,0.12988-0.67969,0.12988
				C49.55322,42.79315,49.18359,42.41327,49.18359,41.64374z"/>
			<path d="M53.97266,42.66327c-0.25977,0.08008-0.52002,0.12988-0.74951,0.12988c-0.65967,0-1.13965-0.37012-1.13965-1.23926
				v-3.18848h-0.81934v-0.58008h0.81934v-1.37891l0.68945-0.51953v1.89844h1.18945v0.58008h-1.18945v3.09863
				c0,0.47949,0.22021,0.69922,0.60986,0.69922c0.16992,0,0.35986-0.04004,0.57959-0.10938L53.97266,42.66327z"/>
			<path d="M58.95166,39.64471v3.06836h-0.62988l-0.04004-0.75977c-0.38965,0.5498-0.98926,0.83984-1.76904,0.83984
				c-1.06934,0-1.69873-0.55957-1.69873-1.50977c0-0.49902,0.19971-0.87891,0.55957-1.09863
				c0.37988-0.21973,0.90967-0.31055,1.87891-0.31055h1.00928v-0.22949c0-0.85938-0.44971-1.3291-1.2793-1.3291
				c-0.61963,0-1.09912,0.26953-1.49902,0.81934l-0.49951-0.41992c0.5293-0.68945,1.16895-1.00879,2.00879-1.00879
				C58.23193,37.70624,58.95166,38.41522,58.95166,39.64471z M58.26172,40.50409v-0.06934H57.3125
				c-0.90967,0-1.29932,0.05957-1.53906,0.24902c-0.18018,0.14062-0.27002,0.36035-0.27002,0.63965
				c0,0.5498,0.46973,0.90039,1.20947,0.90039C57.66211,42.22382,58.26172,41.55389,58.26172,40.50409z M57.28223,37.15643h-0.5293
				l1.0791-1.40918h0.73975L57.28223,37.15643z"/>
		</g>
		<g enable-background="new    ">
			<path d="M32.19287,61.21503c0-2.23926,1.20947-3.56836,3.21826-3.56836c1.39893,0,2.37842,0.63965,2.86816,1.90918l-0.65967,0.25
				c-0.36963-1-1.10938-1.47949-2.2085-1.47949c-1.59912,0-2.50879,1.04004-2.50879,2.88867
				c0,1.85938,0.89941,2.91797,2.4585,2.91797c1.08984,0,1.86914-0.50977,2.25879-1.50879l0.67969,0.25
				c-0.51953,1.26953-1.54883,1.93848-2.93848,1.93848C33.38232,64.81268,32.19287,63.46405,32.19287,61.21503z"/>
			<path d="M39.08252,62.24432c0-1.45898,0.94971-2.53809,2.35889-2.53809c1.39941,0,2.36865,1.0791,2.36865,2.53809
				c0,1.44922-0.95947,2.54883-2.36865,2.54883S39.08252,63.70331,39.08252,62.24432z M43.12061,62.24432
				c0-1.11914-0.62988-1.92871-1.6792-1.92871c-1.05957,0-1.66895,0.81934-1.66895,1.92871
				c0,1.11914,0.61963,1.93945,1.66895,1.93945C42.50098,64.18378,43.12061,63.34393,43.12061,62.24432z"/>
			<path d="M49.13037,61.69452v3.01855h-0.68945v-2.84863c0-1.05957-0.33984-1.54883-1.07959-1.54883
				c-0.92969,0-1.46924,0.7998-1.46924,2.18848v2.20898h-0.68945v-4.92773h0.68945v0.71973
				c0.31982-0.49902,0.91943-0.79883,1.62891-0.79883C48.58057,59.70624,49.13037,60.38593,49.13037,61.69452z"/>
			<path d="M52.88135,64.66327c-0.25977,0.08008-0.52002,0.12988-0.74951,0.12988c-0.65967,0-1.13965-0.37012-1.13965-1.23926
				v-3.18848h-0.81934v-0.58008h0.81934v-1.37891l0.68994-0.51953v1.89844h1.18896v0.58008h-1.18896v3.09863
				c0,0.47949,0.21973,0.69922,0.60938,0.69922c0.16992,0,0.35986-0.04004,0.57959-0.10938L52.88135,64.66327z"/>
			<path d="M58.04004,62.43475h-3.60791c0.02002,1.0791,0.61963,1.72852,1.58936,1.72852c0.53955,0,0.96924-0.13965,1.41895-0.61914
				l0.47998,0.41895c-0.57959,0.61035-1.14941,0.83008-1.90918,0.83008c-1.49902,0-2.26855-1.11914-2.26855-2.51855
				c0-1.38965,0.75977-2.56836,2.18896-2.56836c1.50879,0,2.13867,1.17871,2.13867,2.29785
				C58.07031,62.14471,58.06006,62.31464,58.04004,62.43475z M54.43213,61.85468h2.97852c0-0.02051-0.01025-0.07031-0.01025-0.16016
				c-0.0498-0.7998-0.55957-1.40918-1.46875-1.40918C55.04199,60.28534,54.49219,60.98553,54.43213,61.85468z"/>
			<path d="M58.93311,63.50409l0.57959-0.25977c0.17969,0.50977,0.65967,0.93945,1.4292,0.93945
				c0.66943,0,1.09961-0.33008,1.09961-0.84961c0-1.30957-2.83887-0.49023-2.83887-2.23926
				c0-0.85938,0.69971-1.38867,1.68945-1.38867c0.78955,0,1.4292,0.3291,1.76904,1.0293l-0.5498,0.2998
				c-0.23975-0.44043-0.62988-0.71973-1.23926-0.71973c-0.60986,0-0.99951,0.25-0.99951,0.67969
				c0,1.16895,2.84814,0.42969,2.84814,2.29883c0,0.99902-0.81934,1.49902-1.76904,1.49902
				C59.98242,64.79315,59.19287,64.29315,58.93311,63.50409z"/>
			<path d="M66.17139,64.66327c-0.25977,0.08008-0.52002,0.12988-0.74951,0.12988c-0.65967,0-1.13965-0.37012-1.13965-1.23926
				v-3.18848h-0.81934v-0.58008h0.81934v-1.37891l0.68994-0.51953v1.89844h1.18896v0.58008h-1.18896v3.09863
				c0,0.47949,0.21973,0.69922,0.60938,0.69922c0.16992,0,0.35986-0.04004,0.57959-0.10938L66.17139,64.66327z"/>
			<path d="M71.29004,59.78534v4.92773h-0.68945v-0.70996c-0.3501,0.53027-0.97949,0.79004-1.62939,0.79004
				c-1.11914,0-1.60889-0.76953-1.60889-1.98926v-3.01855h0.68945v2.84863c0,0.7998,0.14014,1.5498,1.07959,1.5498
				c0.97949,0,1.46924-0.84961,1.46924-2.12891v-2.26953H71.29004z"/>
			<path d="M76.78027,61.64471v3.06836h-0.62988l-0.04004-0.75977c-0.38965,0.5498-0.98926,0.83984-1.76904,0.83984
				c-1.06934,0-1.69873-0.55957-1.69873-1.50977c0-0.49902,0.19971-0.87891,0.55957-1.09863
				c0.37988-0.21973,0.90967-0.31055,1.87891-0.31055h1.00928v-0.22949c0-0.85938-0.44971-1.3291-1.2793-1.3291
				c-0.61963,0-1.09912,0.26953-1.49902,0.81934l-0.49951-0.41992c0.5293-0.68945,1.16895-1.00879,2.00879-1.00879
				C76.06055,59.70624,76.78027,60.41522,76.78027,61.64471z M76.09033,62.50409v-0.06934h-0.94922
				c-0.90967,0-1.29932,0.05957-1.53906,0.24902c-0.18018,0.14062-0.27002,0.36035-0.27002,0.63965
				c0,0.5498,0.46973,0.90039,1.20947,0.90039C75.49072,64.22382,76.09033,63.55389,76.09033,62.50409z"/>
			<path d="M78.42236,63.64374v-5.89648h0.68945v5.85645c0,0.33984,0.12012,0.55957,0.44971,0.55957
				c0.1499,0,0.31982-0.04004,0.46973-0.08984l0.01025,0.58984c-0.20996,0.06934-0.45996,0.12988-0.67969,0.12988
				C78.79199,64.79315,78.42236,64.41327,78.42236,63.64374z"/>
			<path d="M81.10205,57.74725h0.79932v1.01953h-0.79932V57.74725z M81.16211,59.78534h0.68945v4.92773h-0.68945V59.78534z"/>
			<path d="M87.22998,60.33514l-3.2085,3.78809h3.18848v0.58984h-4.09814v-0.5l3.27832-3.83789h-3.1084v-0.58984h3.94824V60.33514z"
				/>
			<path d="M92.1001,60.33514l-3.2085,3.78809h3.18848v0.58984h-4.09814v-0.5l3.27832-3.83789h-3.1084v-0.58984h3.94824V60.33514z"
				/>
			<path d="M97.08008,61.64471v3.06836H96.4502l-0.04004-0.75977c-0.38965,0.5498-0.98926,0.83984-1.76904,0.83984
				c-1.06934,0-1.69873-0.55957-1.69873-1.50977c0-0.49902,0.19971-0.87891,0.55957-1.09863
				c0.37988-0.21973,0.90967-0.31055,1.87891-0.31055h1.00928v-0.22949c0-0.85938-0.44971-1.3291-1.2793-1.3291
				c-0.61963,0-1.09912,0.26953-1.49902,0.81934l-0.49951-0.41992c0.5293-0.68945,1.16895-1.00879,2.00879-1.00879
				C96.36035,59.70624,97.08008,60.41522,97.08008,61.64471z M96.39014,62.50409v-0.06934h-0.94922
				c-0.90967,0-1.29932,0.05957-1.53906,0.24902c-0.18018,0.14062-0.27002,0.36035-0.27002,0.63965
				c0,0.5498,0.46973,0.90039,1.20947,0.90039C95.79053,64.22382,96.39014,63.55389,96.39014,62.50409z"/>
			<path d="M102.31982,60.33514l-3.2085,3.78809h3.18848v0.58984h-4.09814v-0.5l3.27832-3.83789h-3.1084v-0.58984h3.94824V60.33514z
				"/>
			<path d="M103.57178,57.74725h0.79932v1.01953h-0.79932V57.74725z M103.63184,59.78534h0.68945v4.92773h-0.68945V59.78534z"/>
			<path d="M105.7124,62.24432c0-1.45898,0.94922-2.53809,2.3584-2.53809c1.39941,0,2.36865,1.0791,2.36865,2.53809
				c0,1.44922-0.95947,2.54883-2.36865,2.54883S105.7124,63.70331,105.7124,62.24432z M109.75,62.24432
				c0-1.11914-0.62988-1.92871-1.6792-1.92871c-1.05957,0-1.66895,0.81934-1.66895,1.92871
				c0,1.11914,0.61963,1.93945,1.66895,1.93945C109.13037,64.18378,109.75,63.34393,109.75,62.24432z"/>
			<path d="M115.75928,61.69452v3.01855h-0.68945v-2.84863c0-1.05957-0.33984-1.54883-1.07959-1.54883
				c-0.92969,0-1.46924,0.7998-1.46924,2.18848v2.20898h-0.68945v-4.92773h0.68945v0.71973
				c0.31982-0.49902,0.91943-0.79883,1.62891-0.79883C115.20947,59.70624,115.75928,60.38593,115.75928,61.69452z"/>
			<path d="M121.35889,62.43475h-3.60791c0.02002,1.0791,0.61963,1.72852,1.58936,1.72852
				c0.53955,0,0.96924-0.13965,1.41895-0.61914l0.47998,0.41895c-0.57959,0.61035-1.14941,0.83008-1.90918,0.83008
				c-1.49902,0-2.26855-1.11914-2.26855-2.51855c0-1.38965,0.75977-2.56836,2.18896-2.56836
				c1.50879,0,2.13867,1.17871,2.13867,2.29785C121.38916,62.14471,121.37891,62.31464,121.35889,62.43475z M117.75098,61.85468
				h2.97852c0-0.02051-0.01025-0.07031-0.01025-0.16016c-0.0498-0.7998-0.55957-1.40918-1.46875-1.40918
				C118.36084,60.28534,117.81104,60.98553,117.75098,61.85468z"/>
		</g>
		<g enable-background="new    ">
			<path d="M32.65234,79.74725h0.70996v6.96582h-0.70996V79.74725z"/>
			<path d="M42.16895,83.63495v3.07812H41.479V83.8244c0-0.41992,0-1.50879-1.0791-1.50879
				c-0.99951,0-1.26953,0.91895-1.26953,2.02832v2.36914h-0.68945v-2.84863c0-0.81934-0.25-1.54883-1.10938-1.54883
				c-0.95947,0-1.22949,0.90918-1.22949,2.02832v2.36914H35.4126l-0.01025-4.92773h0.66992v0.60059
				c0.30957-0.49023,0.80957-0.67969,1.35889-0.67969c0.68994,0,1.19971,0.2998,1.44922,0.94922
				c0.31982-0.62988,0.86963-0.94922,1.61914-0.94922C41.6792,81.70624,42.16895,82.48553,42.16895,83.63495z"/>
			<path d="M50.62891,83.63495v3.07812h-0.68994V83.8244c0-0.41992,0-1.50879-1.0791-1.50879
				c-0.99951,0-1.26953,0.91895-1.26953,2.02832v2.36914h-0.68945v-2.84863c0-0.81934-0.25-1.54883-1.10938-1.54883
				c-0.95947,0-1.22949,0.90918-1.22949,2.02832v2.36914h-0.68945l-0.01025-4.92773h0.66992v0.60059
				c0.30957-0.49023,0.80957-0.67969,1.35889-0.67969c0.68994,0,1.19971,0.2998,1.44922,0.94922
				c0.31982-0.62988,0.86963-0.94922,1.61914-0.94922C50.13916,81.70624,50.62891,82.48553,50.62891,83.63495z"/>
			<path d="M56.00049,83.64471v3.06836h-0.62988l-0.04004-0.75977c-0.38965,0.5498-0.98926,0.83984-1.76904,0.83984
				c-1.06934,0-1.69873-0.55957-1.69873-1.50977c0-0.49902,0.19971-0.87891,0.55957-1.09863
				c0.37988-0.21973,0.90967-0.31055,1.87891-0.31055h1.00928v-0.22949c0-0.85938-0.44971-1.3291-1.2793-1.3291
				c-0.61963,0-1.09912,0.26953-1.49902,0.81934l-0.49951-0.41992c0.5293-0.68945,1.16895-1.00879,2.00879-1.00879
				C55.28076,81.70624,56.00049,82.41522,56.00049,83.64471z M55.31055,84.50409v-0.06934h-0.94922
				c-0.90967,0-1.29932,0.05957-1.53906,0.24902c-0.18018,0.14062-0.27002,0.36035-0.27002,0.63965
				c0,0.5498,0.46973,0.90039,1.20947,0.90039C54.71094,86.22382,55.31055,85.55389,55.31055,84.50409z"/>
			<path d="M61.52051,87.47284c0,0.92969-0.86963,1.35938-2.10889,1.35938c-1.36914,0-2.19873-0.54004-2.19873-1.51953
				c0-0.09961,0.00977-0.16016,0.02002-0.21973l0.79932-0.67969c-0.37988-0.16992-0.63965-0.4502-0.63965-0.93945
				c0-0.39941,0.18018-0.69922,0.52979-0.93945c-0.25977-0.2998-0.41992-0.67969-0.41992-1.11914
				c0-1,0.81982-1.70898,1.87891-1.70898c0.47998,0,0.90967,0.14941,1.22949,0.39941l0.67969-0.58984l0.35986,0.4502
				l-0.66992,0.55957c0.16992,0.26953,0.27002,0.5791,0.27002,0.92969c0,1.00879-0.81934,1.67871-1.85889,1.67871
				c-0.37988,0-0.72949-0.08984-1.01953-0.25c-0.19971,0.11035-0.31982,0.29004-0.31982,0.5c0,0.5,0.61963,0.61914,1.3291,0.72949
				C60.36084,86.26288,61.52051,86.4035,61.52051,87.47284z M60.83057,87.53241c0-0.59961-0.7793-0.68945-1.59912-0.81934
				c-0.21973-0.03027-0.44971-0.07031-0.65967-0.12012l-0.66943,0.64941c-0.01025,0.05078-0.01025,0.07031-0.01025,0.09082
				c0,0.69922,0.70996,0.91895,1.54932,0.91895C60.31104,88.25214,60.83057,88.0119,60.83057,87.53241z M58.18213,83.43475
				c0,0.63965,0.45996,1.12988,1.19922,1.12988c0.73975,0,1.17969-0.48047,1.17969-1.12988
				c0-0.67969-0.45996-1.14941-1.16943-1.14941C58.69189,82.28534,58.18213,82.75507,58.18213,83.43475z"/>
			<path d="M62.83252,79.74725h0.79932v1.01953h-0.79932V79.74725z M62.89258,81.78534h0.68945v4.92773h-0.68945V81.78534z"/>
			<path d="M69.33008,83.69452v3.01855h-0.68945v-2.84863c0-1.05957-0.33984-1.54883-1.07959-1.54883
				c-0.92969,0-1.46924,0.7998-1.46924,2.18848v2.20898h-0.68945v-4.92773h0.68945v0.71973
				c0.31982-0.49902,0.91943-0.79883,1.62891-0.79883C68.78027,81.70624,69.33008,82.38593,69.33008,83.69452z"/>
			<path d="M74.7002,83.64471v3.06836h-0.62988l-0.04004-0.75977c-0.38965,0.5498-0.98926,0.83984-1.76904,0.83984
				c-1.06934,0-1.69873-0.55957-1.69873-1.50977c0-0.49902,0.19971-0.87891,0.55957-1.09863
				c0.37988-0.21973,0.90967-0.31055,1.87891-0.31055h1.00928v-0.22949c0-0.85938-0.44971-1.3291-1.2793-1.3291
				c-0.61963,0-1.09912,0.26953-1.49902,0.81934l-0.49951-0.41992c0.5293-0.68945,1.16895-1.00879,2.00879-1.00879
				C73.98047,81.70624,74.7002,82.41522,74.7002,83.64471z M74.01025,84.50409v-0.06934h-0.94922
				c-0.90967,0-1.29932,0.05957-1.53906,0.24902c-0.18018,0.14062-0.27002,0.36035-0.27002,0.63965
				c0,0.5498,0.46973,0.90039,1.20947,0.90039C73.41064,86.22382,74.01025,85.55389,74.01025,84.50409z"/>
			<path d="M79.94043,82.33514l-3.2085,3.78809h3.18848v0.58984h-4.09814v-0.5l3.27832-3.83789h-3.1084v-0.58984h3.94824V82.33514z"
				/>
			<path d="M81.19189,79.74725h0.79932v1.01953h-0.79932V79.74725z M81.25195,81.78534h0.68945v4.92773h-0.68945V81.78534z"/>
			<path d="M83.33252,84.24432c0-1.45898,0.94922-2.53809,2.3584-2.53809c1.39941,0,2.36865,1.0791,2.36865,2.53809
				c0,1.44922-0.95947,2.54883-2.36865,2.54883S83.33252,85.70331,83.33252,84.24432z M87.37012,84.24432
				c0-1.11914-0.62988-1.92871-1.6792-1.92871c-1.05957,0-1.66895,0.81934-1.66895,1.92871
				c0,1.11914,0.61963,1.93945,1.66895,1.93945C86.75049,86.18378,87.37012,85.34393,87.37012,84.24432z"/>
			<path d="M93.37988,83.69452v3.01855h-0.68945v-2.84863c0-1.05957-0.33984-1.54883-1.07959-1.54883
				c-0.92969,0-1.46924,0.7998-1.46924,2.18848v2.20898h-0.68945v-4.92773h0.68945v0.71973
				c0.31982-0.49902,0.91943-0.79883,1.62891-0.79883C92.83008,81.70624,93.37988,82.38593,93.37988,83.69452z"/>
			<path d="M98.97949,84.43475h-3.60791c0.02002,1.0791,0.61963,1.72852,1.58936,1.72852c0.53955,0,0.96924-0.13965,1.41895-0.61914
				l0.47998,0.41895c-0.57959,0.61035-1.14941,0.83008-1.90918,0.83008c-1.49902,0-2.26855-1.11914-2.26855-2.51855
				c0-1.38965,0.75977-2.56836,2.18896-2.56836c1.50879,0,2.13867,1.17871,2.13867,2.29785
				C99.00977,84.14471,98.99951,84.31464,98.97949,84.43475z M95.37158,83.85468h2.97852c0-0.02051-0.01025-0.07031-0.01025-0.16016
				c-0.0498-0.7998-0.55957-1.40918-1.46875-1.40918C95.98145,82.28534,95.43164,82.98553,95.37158,83.85468z"/>
		</g>
		<path id="Rectangle_13359" fill="#00BFD3" d="M5.27795,34.696h11c2.73425-0.0272,4.97278,2.16728,5,4.90151
			c0.00037,0.03283,0.00037,0.06566,0,0.09849l0,0c0.02722,2.73423-2.16724,4.9728-4.90149,5
			c-0.03284,0.00033-0.06567,0.00033-0.09851,0h-11c-2.73425,0.0272-4.97278-2.16728-5-4.90151
			c-0.00037-0.03283-0.00037-0.06566,0-0.09849l0,0C0.28613,36.938,2.5199,34.70424,5.27795,34.696z"/>
		<path id="Rectangle_13360" fill="#BBBBFF" d="M5.27795,56.696h11c2.73425-0.0272,4.97278,2.16728,5,4.90151
			c0.00037,0.03283,0.00037,0.06566,0,0.09849l0,0c0.02722,2.73423-2.16724,4.9728-4.90149,5
			c-0.03284,0.00033-0.06567,0.00033-0.09851,0h-11c-2.73425,0.0272-4.97278-2.16728-5-4.90151
			c-0.00037-0.03283-0.00037-0.06566,0-0.09849l0,0C0.28613,58.938,2.5199,56.70424,5.27795,56.696z"/>
		<path id="Rectangle_13361" fill="#FF3366" d="M5.27795,78.696h11c2.73425-0.0272,4.97278,2.16729,5,4.90151
			c0.00037,0.03283,0.00037,0.06566,0,0.09849l0,0c0.02722,2.73423-2.16724,4.9728-4.90149,5
			c-0.03284,0.00033-0.06567,0.00033-0.09851,0h-11c-2.73425,0.0272-4.97278-2.16728-5-4.90151
			c-0.00037-0.03283-0.00037-0.06566,0-0.09849l0,0C0.28613,80.938,2.5199,78.70424,5.27795,78.696z"/>
		<g id="Raggruppa_24452" transform="translate(1293.157 137.196)">
			<g enable-background="new    ">
				<path fill="#5151FC" d="M-1054.75562-120.46095h1.24951v5.81641h2.97852v1.14941h-4.22803V-120.46095z"/>
				<path fill="#5151FC" d="M-1050.27563-116.97365c0-2.18848,1.34961-3.6377,3.32812-3.6377
					c1.98926,0,3.32812,1.44922,3.32812,3.6377c0,2.17969-1.34912,3.62891-3.32812,3.62891
					C-1048.92603-113.34474-1050.27563-114.79396-1050.27563-116.97365z M-1044.86841-116.97365
					c0-1.50879-0.80957-2.44824-2.0791-2.44824c-1.26904,0-2.07861,0.92969-2.07861,2.44824
					c0,1.50977,0.80957,2.43945,2.07861,2.43945C-1045.67798-114.53419-1044.86841-115.47365-1044.86841-116.97365z"/>
				<path fill="#5151FC" d="M-1042.82544-116.98341c0-2.22852,1.31934-3.6377,3.37793-3.6377
					c1.46924,0,2.57861,0.70996,3.08838,2.03906l-1.14941,0.44922c-0.30957-0.86914-0.98926-1.29883-1.93896-1.29883
					c-1.34912,0-2.12891,0.87891-2.12891,2.43848c0,1.56934,0.78955,2.45898,2.12891,2.45898
					c0.95947,0,1.63916-0.4502,1.93896-1.33008l1.16943,0.44043c-0.49951,1.34863-1.61914,2.0791-3.1084,2.0791
					C-1041.5061-113.34474-1042.82544-114.7549-1042.82544-116.98341z"/>
				<path fill="#5151FC" d="M-1031.7478-114.93459h-2.72852l-0.5293,1.43945h-1.35938l2.78857-6.96582h0.93945l2.77832,6.96582
					h-1.35938L-1031.7478-114.93459z M-1032.16724-116.084l-0.93945-2.53809l-0.93945,2.53809H-1032.16724z"/>
				<path fill="#5151FC" d="M-1028.21606-119.31154h-2.17871v-1.14941h5.6167v1.14941h-2.17871v5.81641h-1.25928V-119.31154z"/>
				<path fill="#5151FC" d="M-1023.81567-120.46095h1.24951v6.96582h-1.24951V-120.46095z"/>
				<path fill="#5151FC" d="M-1021.29565-116.97365c0-2.18848,1.34961-3.6377,3.32812-3.6377
					c1.98926,0,3.32812,1.44922,3.32812,3.6377c0,2.17969-1.34912,3.62891-3.32812,3.62891
					C-1019.94604-113.34474-1021.29565-114.79396-1021.29565-116.97365z M-1015.88843-116.97365
					c0-1.50879-0.80957-2.44824-2.0791-2.44824c-1.26904,0-2.07861,0.92969-2.07861,2.44824
					c0,1.50977,0.80957,2.43945,2.07861,2.43945C-1016.698-114.53419-1015.88843-115.47365-1015.88843-116.97365z"/>
				<path fill="#5151FC" d="M-1007.89868-120.46095v6.96582h-1.29932l-2.91846-4.81738v4.81738h-1.24951v-6.96582h1.28955
					l2.92822,4.79688v-4.79688H-1007.89868z"/>
				<path fill="#5151FC" d="M-1006.80542-115.46388l1.23926-0.30957c0.08984,0.8291,0.63965,1.29883,1.44922,1.29883
					c0.69971,0,1.14941-0.34961,1.14941-0.93945c0-0.47949-0.35986-0.7793-1.38916-1.18945
					c-1.45947-0.56934-1.979-1.09961-1.979-2.1084c0-1.12988,0.86963-1.89941,2.16895-1.89941
					c0.93945,0,1.67871,0.42969,2.11865,1.26953l-1.03955,0.63965c-0.23975-0.51953-0.64941-0.7998-1.11914-0.7998
					c-0.5,0-0.87988,0.33008-0.87988,0.75977c0,0.45996,0.33984,0.71973,1.38965,1.12891
					c1.48877,0.57031,1.97852,1.09961,1.97852,2.08887c0,1.2998-0.98926,2.15918-2.41846,2.15918
					C-1005.52612-113.36525-1006.60571-114.19435-1006.80542-115.46388z"/>
				<path fill="#5151FC" d="M-994.34839-114.93459h-2.72852l-0.5293,1.43945h-1.35938l2.78857-6.96582h0.93945l2.77832,6.96582
					h-1.35938L-994.34839-114.93459z M-994.76782-116.084l-0.93945-2.53809l-0.93945,2.53809H-994.76782z"/>
				<path fill="#5151FC" d="M-986.06909-120.46095v6.96582h-1.29932l-2.91846-4.81738v4.81738h-1.24951v-6.96582h1.28955
					l2.92822,4.79688v-4.79688H-986.06909z"/>
				<path fill="#5151FC" d="M-984.3064-120.46095h2.01904c2.30859,0,3.62793,1.2793,3.62793,3.53809
					c0,2.21875-1.2793,3.42773-3.63818,3.42773h-2.00879V-120.46095z M-982.41724-114.64455
					c1.75879,0,2.49854-0.68945,2.49854-2.3291c0-1.6084-0.73975-2.33789-2.38867-2.33789h-0.74951v4.66699H-982.41724z"/>
				<path fill="#5151FC" d="M-975.44604-116.98341c0-2.22852,1.31934-3.6377,3.37793-3.6377
					c1.46924,0,2.57861,0.70996,3.08838,2.03906l-1.14941,0.44922c-0.30957-0.86914-0.98926-1.29883-1.93896-1.29883
					c-1.34912,0-2.12891,0.87891-2.12891,2.43848c0,1.56934,0.78955,2.45898,2.12891,2.45898
					c0.95947,0,1.63916-0.4502,1.93896-1.33008l1.16943,0.44043c-0.49951,1.34863-1.61914,2.0791-3.1084,2.0791
					C-974.12671-113.34474-975.44604-114.7549-975.44604-116.98341z"/>
				<path fill="#5151FC" d="M-967.8562-120.46095h1.24951v2.80762h3.04834v-2.80762h1.24902v6.96582h-1.24902v-3.00879h-3.04834
					v3.00879h-1.24951V-120.46095z"/>
				<path fill="#5151FC" d="M-956.7688-114.93459h-2.72852l-0.5293,1.43945h-1.35938l2.78857-6.96582h0.93945l2.77832,6.96582
					h-1.35938L-956.7688-114.93459z M-957.18823-116.084l-0.93945-2.53809l-0.93945,2.53809H-957.18823z"/>
				<path fill="#5151FC" d="M-950.16821-113.49513l-1.66895-2.88867h-0.41992h-0.45996v2.88867h-1.23926v-6.96582h2.27881
					c1.65918,0,2.36865,0.75879,2.36865,2.00879c0,0.99902-0.45947,1.63867-1.28906,1.91895l1.87891,3.03809H-950.16821z
					 M-951.80737-117.53322c0.80957,0,1.24951-0.21973,1.24951-0.89941s-0.43994-0.87891-1.24951-0.87891h-0.90967v1.77832
					H-951.80737z"/>
				<path fill="#5151FC" d="M-943.97876-114.93459h-2.72852l-0.5293,1.43945h-1.35938l2.78857-6.96582h0.93945l2.77832,6.96582
					h-1.35938L-943.97876-114.93459z M-944.39819-116.084l-0.93945-2.53809l-0.93945,2.53809H-944.39819z"/>
				<path fill="#5151FC" d="M-941.98608-116.98341c0-2.22852,1.31934-3.6377,3.37793-3.6377
					c1.46924,0,2.57861,0.70996,3.08838,2.03906l-1.14941,0.44922c-0.30957-0.86914-0.98926-1.29883-1.93896-1.29883
					c-1.34912,0-2.12891,0.87891-2.12891,2.43848c0,1.56934,0.78955,2.45898,2.12891,2.45898
					c0.95947,0,1.63916-0.4502,1.93896-1.33008l1.16943,0.44043c-0.49951,1.34863-1.61914,2.0791-3.1084,2.0791
					C-940.66675-113.34474-941.98608-114.7549-941.98608-116.98341z"/>
				<path fill="#5151FC" d="M-933.01733-119.31154h-2.17871v-1.14941h5.6167v1.14941h-2.17871v5.81641h-1.25928V-119.31154z"/>
				<path fill="#5151FC" d="M-928.61694-120.46095h4.6377v1.14941h-3.38818v1.6582h3.14844v1.14941h-3.14844v1.85938h3.38818
					v1.14941h-4.6377V-120.46095z"/>
				<path fill="#5151FC" d="M-918.72876-113.49513l-1.66895-2.88867h-0.41992h-0.45996v2.88867h-1.23926v-6.96582h2.27881
					c1.65918,0,2.36865,0.75879,2.36865,2.00879c0,0.99902-0.45947,1.63867-1.28906,1.91895l1.87891,3.03809H-918.72876z
					 M-920.36792-117.53322c0.80957,0,1.24951-0.21973,1.24951-0.89941s-0.43994-0.87891-1.24951-0.87891h-0.90967v1.77832
					H-920.36792z"/>
				<path fill="#5151FC" d="M-916.96655-115.46388l1.23926-0.30957c0.08984,0.8291,0.63965,1.29883,1.44922,1.29883
					c0.69971,0,1.14941-0.34961,1.14941-0.93945c0-0.47949-0.35986-0.7793-1.38916-1.18945
					c-1.45947-0.56934-1.979-1.09961-1.979-2.1084c0-1.12988,0.86963-1.89941,2.16895-1.89941
					c0.93945,0,1.67871,0.42969,2.11865,1.26953l-1.03955,0.63965c-0.23975-0.51953-0.64941-0.7998-1.11914-0.7998
					c-0.5,0-0.87988,0.33008-0.87988,0.75977c0,0.45996,0.33984,0.71973,1.38965,1.12891
					c1.48877,0.57031,1.97852,1.09961,1.97852,2.08887c0,1.2998-0.98926,2.15918-2.41846,2.15918
					C-915.68726-113.36525-916.76685-114.19435-916.96655-115.46388z"/>
			</g>
		</g>
		<g id="Raggruppa_24453" transform="translate(1293.157 137.196)">
			<g enable-background="new    ">
				<path d="M-1018.66382-94.48293l-1.7793-3.08789h-0.46973h-0.96924v3.08789h-0.70996v-6.96582h1.98926
					c1.49902,0,2.29883,0.66895,2.29883,1.92871c0,0.97949-0.48975,1.60938-1.4292,1.8584l1.89893,3.17871H-1018.66382z
					 M-1020.6731-98.23097c1.09961,0,1.64941-0.42969,1.64941-1.2793s-0.5498-1.2793-1.64941-1.2793h-1.20898v2.55859H-1020.6731z"
					/>
				<path d="M-1012.79419-96.76125h-3.60791c0.02002,1.0791,0.61963,1.72852,1.58936,1.72852
					c0.53955,0,0.96924-0.13965,1.41895-0.61914l0.47998,0.41895c-0.57959,0.61035-1.14941,0.83008-1.90918,0.83008
					c-1.49902,0-2.26855-1.11914-2.26855-2.51855c0-1.38965,0.75977-2.56836,2.18896-2.56836
					c1.50879,0,2.13867,1.17871,2.13867,2.29785C-1012.76392-97.05128-1012.77417-96.88136-1012.79419-96.76125z
					 M-1016.4021-97.34132h2.97852c0-0.02051-0.01025-0.07031-0.01025-0.16016c-0.0498-0.7998-0.55957-1.40918-1.46875-1.40918
					C-1015.79224-98.91066-1016.34204-98.21046-1016.4021-97.34132z"/>
				<path d="M-1007.70337-97.55128v3.06836h-0.62988l-0.04004-0.75977c-0.38965,0.5498-0.98926,0.83984-1.76904,0.83984
					c-1.06934,0-1.69873-0.55957-1.69873-1.50977c0-0.49902,0.19971-0.87891,0.55957-1.09863
					c0.37988-0.21973,0.90967-0.31055,1.87891-0.31055h1.00928v-0.22949c0-0.85938-0.44971-1.3291-1.2793-1.3291
					c-0.61963,0-1.09912,0.26953-1.49902,0.81934l-0.49951-0.41992c0.5293-0.68945,1.16895-1.00879,2.00879-1.00879
					C-1008.4231-99.48976-1007.70337-98.78078-1007.70337-97.55128z M-1008.39331-96.69191v-0.06934h-0.94922
					c-0.90967,0-1.29932,0.05957-1.53906,0.24902c-0.18018,0.14062-0.27002,0.36035-0.27002,0.63965
					c0,0.5498,0.46973,0.90039,1.20947,0.90039C-1008.99292-94.97218-1008.39331-95.64211-1008.39331-96.69191z"/>
				<path d="M-1006.06177-95.55226v-5.89648h0.68945v5.85645c0,0.33984,0.12012,0.55957,0.44971,0.55957
					c0.1499,0,0.31982-0.04004,0.46973-0.08984l0.01025,0.58984c-0.20996,0.06934-0.45996,0.12988-0.67969,0.12988
					C-1005.69214-94.40285-1006.06177-94.78273-1006.06177-95.55226z"/>
				<path d="M-1001.00171-96.93117c0-1.2998,0.72998-2.55859,2.21875-2.55859c0.87988,0,1.60938,0.43945,1.99902,1.3584
					l-0.65967,0.26074c-0.22949-0.62988-0.71924-1.00977-1.33936-1.00977c-1.04932,0-1.51904,0.93945-1.51904,1.94922
					c0,1.00879,0.46973,1.91895,1.5293,1.91895c0.61963,0,1.10938-0.37012,1.29932-1l0.63965,0.24023
					c-0.33008,0.89941-1.04932,1.36914-1.93896,1.36914C-1000.2019-94.40285-1001.00171-95.56203-1001.00171-96.93117z"/>
				<path d="M-991.58423-97.50148v3.01855h-0.68945v-2.84863c0-1.06934-0.33984-1.54883-1.07959-1.54883
					c-0.93945,0-1.46924,0.76953-1.46924,2.12891v2.26855h-0.68945v-6.96582h0.68945v2.75781
					c0.31982-0.49902,0.91943-0.79883,1.62891-0.79883C-992.13403-99.48976-991.58423-98.81007-991.58423-97.50148z"/>
				<path d="M-986.21411-97.55128v3.06836h-0.62988l-0.04004-0.75977c-0.38965,0.5498-0.98926,0.83984-1.76904,0.83984
					c-1.06934,0-1.69873-0.55957-1.69873-1.50977c0-0.49902,0.19971-0.87891,0.55957-1.09863
					c0.37988-0.21973,0.90967-0.31055,1.87891-0.31055h1.00928v-0.22949c0-0.85938-0.44971-1.3291-1.2793-1.3291
					c-0.61963,0-1.09912,0.26953-1.49902,0.81934l-0.49951-0.41992c0.5293-0.68945,1.16895-1.00879,2.00879-1.00879
					C-986.93384-99.48976-986.21411-98.78078-986.21411-97.55128z M-986.90405-96.69191v-0.06934h-0.94922
					c-0.90967,0-1.29932,0.05957-1.53906,0.24902c-0.18018,0.14062-0.27002,0.36035-0.27002,0.63965
					c0,0.5498,0.46973,0.90039,1.20947,0.90039C-987.50366-94.97218-986.90405-95.64211-986.90405-96.69191z"/>
				<path d="M-981.53394-99.2798l-0.33984,0.55957c-0.22949-0.10059-0.43945-0.15039-0.64941-0.15039
					c-0.75977,0-1.31934,0.56934-1.31934,1.63965v2.74805h-0.68945v-4.92773h0.68945v0.74023
					c0.35986-0.64941,0.95947-0.81934,1.45898-0.81934C-982.08374-99.48976-981.80347-99.43019-981.53394-99.2798z"/>
				<path d="M-976.84399-97.55128v3.06836h-0.62988l-0.04004-0.75977c-0.38965,0.5498-0.98926,0.83984-1.76904,0.83984
					c-1.06934,0-1.69873-0.55957-1.69873-1.50977c0-0.49902,0.19971-0.87891,0.55957-1.09863
					c0.37988-0.21973,0.90967-0.31055,1.87891-0.31055h1.00928v-0.22949c0-0.85938-0.44971-1.3291-1.2793-1.3291
					c-0.61963,0-1.09912,0.26953-1.49902,0.81934l-0.49951-0.41992c0.5293-0.68945,1.16895-1.00879,2.00879-1.00879
					C-977.56372-99.48976-976.84399-98.78078-976.84399-97.55128z M-977.53394-96.69191v-0.06934h-0.94922
					c-0.90967,0-1.29932,0.05957-1.53906,0.24902c-0.18018,0.14062-0.27002,0.36035-0.27002,0.63965
					c0,0.5498,0.46973,0.90039,1.20947,0.90039C-978.13354-94.97218-977.53394-95.64211-977.53394-96.69191z"/>
				<path d="M-975.57251-96.93117c0-1.2998,0.72998-2.55859,2.21924-2.55859c0.87939,0,1.60889,0.43945,1.99854,1.3584
					l-0.65967,0.26074c-0.22949-0.62988-0.71924-1.00977-1.33887-1.00977c-1.0498,0-1.51953,0.93945-1.51953,1.94922
					c0,1.00879,0.46973,1.91895,1.5293,1.91895c0.61963,0,1.10938-0.37012,1.29932-1l0.63965,0.24023
					c-0.33008,0.89941-1.04932,1.36914-1.93896,1.36914C-974.77271-94.40285-975.57251-95.56203-975.57251-96.93117z"/>
				<path d="M-968.03345-94.53273c-0.25977,0.08008-0.52002,0.12988-0.74951,0.12988c-0.65967,0-1.13965-0.37012-1.13965-1.23926
					v-3.18848h-0.81934v-0.58008h0.81934v-1.37891l0.68945-0.51953v1.89844h1.18945v0.58008h-1.18945v3.09863
					c0,0.47949,0.22021,0.69922,0.60986,0.69922c0.16992,0,0.35986-0.04004,0.57959-0.10938L-968.03345-94.53273z"/>
				<path d="M-962.87476-96.76125h-3.60791c0.02002,1.0791,0.61963,1.72852,1.58936,1.72852
					c0.53955,0,0.96924-0.13965,1.41895-0.61914l0.47998,0.41895c-0.57959,0.61035-1.14941,0.83008-1.90918,0.83008
					c-1.49902,0-2.26855-1.11914-2.26855-2.51855c0-1.38965,0.75977-2.56836,2.18896-2.56836
					c1.50879,0,2.13867,1.17871,2.13867,2.29785C-962.84448-97.05128-962.85474-96.88136-962.87476-96.76125z M-966.48267-97.34132
					h2.97852c0-0.02051-0.01025-0.07031-0.01025-0.16016c-0.0498-0.7998-0.55957-1.40918-1.46875-1.40918
					C-965.8728-98.91066-966.42261-98.21046-966.48267-97.34132z"/>
				<path d="M-958.45435-99.2798l-0.33984,0.55957c-0.22949-0.10059-0.43945-0.15039-0.64941-0.15039
					c-0.75977,0-1.31934,0.56934-1.31934,1.63965v2.74805h-0.68945v-4.92773h0.68945v0.74023
					c0.35986-0.64941,0.95947-0.81934,1.45898-0.81934C-959.00366-99.48976-958.72388-99.43019-958.45435-99.2798z"/>
			</g>
		</g>
		<g id="Raggruppa_24454" transform="translate(1293.157 137.196)">
			<g enable-background="new    ">
				<path fill="#4500FF" d="M-1021.79224-79.44875h0.70947l-1.35938,6.96582h-0.70947L-1021.79224-79.44875z"/>
				<path fill="#4500FF" d="M-1013.12524-76.08058c0,0.26953-0.04004,0.40918-0.08008,0.63965l-0.56982,2.95801h-0.68945
					l0.5498-2.81836c0.04004-0.19043,0.07959-0.45996,0.07959-0.67969c0-0.47949-0.19971-0.89941-0.84912-0.89941
					c-0.97949,0-1.44922,0.95898-1.66943,2.05859l-0.45947,2.33887h-0.68994l0.56006-2.87891
					c0.04004-0.20898,0.06982-0.41895,0.06982-0.60938c0-0.5498-0.23975-0.90918-0.83936-0.90918
					c-0.98975,0-1.44922,0.94922-1.66943,2.05859l-0.45947,2.33887h-0.68994l0.94971-4.92773h0.66943l-0.11963,0.60059
					c0.39941-0.45996,0.99951-0.67969,1.51904-0.67969c0.58984,0,1.09912,0.2793,1.21924,0.94922
					c0.42969-0.64941,1.11963-0.94922,1.7793-0.94922C-1013.51538-77.48976-1013.12524-76.90089-1013.12524-76.08058z"/>
				<path fill="#4500FF" d="M-1007.05444-77.41066l-0.95947,4.92773h-0.67969l0.12988-0.65918
					c-0.42969,0.47949-1.08936,0.73926-1.75928,0.73926c-1.21924,0-1.86865-0.79004-1.86865-1.95898
					c0-1.56934,1.15918-3.12793,2.73828-3.12793c0.70996,0,1.28955,0.31934,1.56934,0.80957l0.13965-0.73047H-1007.05444z
					 M-1009.40308-76.86086c-1.24951,0-2.10889,1.26953-2.10889,2.42871c0,0.85938,0.46973,1.38965,1.28906,1.38965
					c1.11963,0,1.96924-1,2.09912-2.16895C-1008.01392-76.2007-1008.4939-76.86086-1009.40308-76.86086z"/>
				<path fill="#4500FF" d="M-1005.72192-73.70265c0,1.05957,3.08838,0.18066,3.08838,1.84961
					c0,0.98926-1.0791,1.48926-2.37842,1.48926c-1.17969,0-1.93896-0.41016-1.93896-1.23926
					c0-0.16992,0.02979-0.33984,0.08008-0.53027l1.00928-0.64941c-0.31982-0.16016-0.53955-0.39941-0.53955-0.80957
					c0-0.49023,0.31982-0.84961,0.73926-1.09961c-0.15967-0.22949-0.25-0.5-0.25-0.81934c0-1.05957,0.98975-1.97852,2.19922-1.97852
					c0.48975,0,0.89941,0.14941,1.1792,0.40918l0.79932-0.59961l0.29004,0.4502l-0.78955,0.5791
					c0.08984,0.17969,0.12988,0.37988,0.12988,0.61035c0,1.11914-0.99951,1.97852-2.16895,1.97852
					c-0.37939,0-0.70947-0.08984-0.96924-0.24023C-1005.52173-74.17238-1005.72192-73.97218-1005.72192-73.70265z
					 M-1005.38208-72.62257l-0.83936,0.68945c-0.02979,0.10938-0.04004,0.20996-0.04004,0.2793
					c0,0.5498,0.56982,0.70996,1.28955,0.70996c0.88916,0,1.64893-0.25,1.64893-0.80957
					C-1003.323-72.45265-1004.49243-72.40285-1005.38208-72.62257z M-1005.23218-75.51125c0,0.5293,0.35986,0.87988,0.96973,0.87988
					c0.83936,0,1.479-0.65039,1.479-1.38965c0-0.55957-0.35986-0.88965-0.93945-0.88965
					C-1004.57251-76.91066-1005.23218-76.22121-1005.23218-75.51125z"/>
				<path fill="#4500FF" d="M-1000.29224-77.41066h0.68994l-0.95947,4.92773h-0.68994L-1000.29224-77.41066z M-999.91235-79.44875
					h0.71973l-0.19971,1.01953h-0.71973L-999.91235-79.44875z"/>
				<path fill="#4500FF" d="M-994.28442-76.11086c0,0.26953-0.0498,0.54004-0.06982,0.63965l-0.57959,2.98828h-0.68994
					l0.56982-2.92871c0.02979-0.15918,0.06982-0.35938,0.06982-0.56934c0-0.5498-0.25977-0.89941-0.9292-0.89941
					c-1.07959,0-1.59912,0.94922-1.8291,2.14844l-0.42969,2.24902h-0.68994l0.95947-4.92773h0.68994l-0.12012,0.57031
					c0.45996-0.46973,1.07959-0.64941,1.61914-0.64941C-994.77417-77.48976-994.28442-76.9507-994.28442-76.11086z"/>
				<path fill="#4500FF" d="M-988.2146-77.41066l-0.95947,4.92773h-0.67969l0.12988-0.65918
					c-0.42969,0.47949-1.08936,0.73926-1.75928,0.73926c-1.21924,0-1.86865-0.79004-1.86865-1.95898
					c0-1.56934,1.15918-3.12793,2.73828-3.12793c0.70996,0,1.28955,0.31934,1.56934,0.80957l0.13965-0.73047H-988.2146z
					 M-990.56323-76.86086c-1.24951,0-2.10889,1.26953-2.10889,2.42871c0,0.85938,0.46973,1.38965,1.28906,1.38965
					c1.11963,0,1.96924-1,2.09912-2.16895C-989.17407-76.2007-989.65405-76.86086-990.56323-76.86086z"/>
				<path fill="#4500FF" d="M-983.56421-77.27003l-0.41992,0.5791c-0.11963-0.06934-0.32959-0.12988-0.57959-0.12988
					c-0.72949,0-1.49902,0.5-1.75879,1.86914l-0.46973,2.46875h-0.68994l0.95947-4.92773h0.68994l-0.14014,0.66992
					c0.43994-0.58984,1.09961-0.74902,1.5791-0.74902C-984.10376-77.48976-983.82397-77.43019-983.56421-77.27003z"/>
				<path fill="#4500FF" d="M-978.39478-77.41066l-4.0376,6.9668h-0.75977l1.22949-2.11914l-1.13965-4.84766h0.74951
					l0.88965,3.97852l2.29883-3.97852H-978.39478z"/>
				<path fill="#4500FF" d="M-975.60229-74.3423c0-1.62891,1.15967-3.14746,2.73877-3.14746
					c0.91943,0,1.55908,0.48926,1.74902,1.37891l-0.68994,0.21973c-0.08984-0.62988-0.51953-0.98926-1.10938-0.98926
					c-1.19922,0-1.99854,1.29883-1.99854,2.55859c0,0.72949,0.34961,1.30957,1.1792,1.30957
					c0.64941,0,1.22949-0.39062,1.53906-1.01953l0.58984,0.28906c-0.47998,0.86035-1.2793,1.33984-2.16895,1.33984
					C-974.99243-72.40285-975.60229-73.24269-975.60229-74.3423z"/>
				<path fill="#4500FF" d="M-966.14478-75.47121l-0.57959,2.98828h-0.68994l0.56982-2.92871
					c0.08984-0.44922,0.25977-1.46875-0.85938-1.46875c-1.08936,0-1.59912,0.94922-1.8291,2.14844l-0.42969,2.24902h-0.68994
					l1.35938-6.96582h0.68945l-0.51953,2.6084c0.45996-0.46973,1.06934-0.64941,1.60938-0.64941
					C-966.37476-77.48976-965.90503-76.7007-966.14478-75.47121z"/>
				<path fill="#4500FF" d="M-960.01489-77.41066l-0.95947,4.92773h-0.67969l0.12988-0.65918
					c-0.42969,0.47949-1.08936,0.73926-1.75928,0.73926c-1.21924,0-1.86865-0.79004-1.86865-1.95898
					c0-1.56934,1.15918-3.12793,2.73828-3.12793c0.70996,0,1.28955,0.31934,1.56934,0.80957l0.13965-0.73047H-960.01489z
					 M-962.36353-76.86086c-1.24951,0-2.10889,1.26953-2.10889,2.42871c0,0.85938,0.46973,1.38965,1.28906,1.38965
					c1.11963,0,1.96875-1,2.09912-2.16895C-960.97437-76.2007-961.45435-76.86086-962.36353-76.86086z"/>
				<path fill="#4500FF" d="M-955.3645-77.27003l-0.41992,0.5791c-0.11963-0.06934-0.32959-0.12988-0.57959-0.12988
					c-0.72949,0-1.49902,0.5-1.75879,1.86914l-0.46973,2.46875h-0.68994l0.95947-4.92773h0.68994l-0.14014,0.66992
					c0.43994-0.58984,1.09961-0.74902,1.5791-0.74902C-955.90405-77.48976-955.62427-77.43019-955.3645-77.27003z"/>
				<path fill="#4500FF" d="M-950.44507-77.41066l-0.95947,4.92773h-0.67969l0.12988-0.65918
					c-0.42969,0.47949-1.08936,0.73926-1.75928,0.73926c-1.21924,0-1.86865-0.79004-1.86865-1.95898
					c0-1.56934,1.15918-3.12793,2.73828-3.12793c0.70996,0,1.28955,0.31934,1.56934,0.80957l0.13965-0.73047H-950.44507z
					 M-952.7937-76.86086c-1.24951,0-2.10889,1.26953-2.10889,2.42871c0,0.85938,0.46973,1.38965,1.28906,1.38965
					c1.11963,0,1.96924-1,2.09912-2.16895C-951.40454-76.2007-951.88452-76.86086-952.7937-76.86086z"/>
				<path fill="#4500FF" d="M-949.71265-74.3423c0-1.62891,1.15967-3.14746,2.73877-3.14746
					c0.91943,0,1.55908,0.48926,1.74902,1.37891l-0.68994,0.21973c-0.08984-0.62988-0.51953-0.98926-1.10938-0.98926
					c-1.19922,0-1.99854,1.29883-1.99854,2.55859c0,0.72949,0.34961,1.30957,1.1792,1.30957
					c0.64941,0,1.22949-0.39062,1.53906-1.01953l0.58984,0.28906c-0.47998,0.86035-1.2793,1.33984-2.16895,1.33984
					C-949.10278-72.40285-949.71265-73.24269-949.71265-74.3423z"/>
				<path fill="#4500FF" d="M-943.69312-73.66261c-0.01953,0.10059-0.02979,0.2002-0.02979,0.25977
					c0,0.2998,0.16992,0.41992,0.47998,0.41992c0.15967,0,0.37939-0.04004,0.61963-0.12012l-0.07031,0.57031
					c-0.25977,0.08008-0.5293,0.12988-0.75928,0.12988c-0.56982,0-0.95947-0.28027-0.95947-0.87988
					c0-0.12988,0.02002-0.2793,0.04004-0.37988l0.61963-3.21777h-0.81982l0.10986-0.53027h0.80957l0.27002-1.37891l0.78955-0.51953
					l-0.36963,1.89844h1.18896l-0.09961,0.53027h-1.18945L-943.69312-73.66261z"/>
				<path fill="#4500FF" d="M-940.84302-74.73195c-0.02979,0.16016-0.0498,0.29004-0.0498,0.4502
					c0,0.78906,0.44971,1.24902,1.26904,1.24902c0.59961,0,1.0498-0.17969,1.56934-0.64941l0.41992,0.46973
					c-0.66992,0.5791-1.2793,0.80957-2.03906,0.80957c-1.2793,0-1.87891-0.7998-1.87891-1.89941
					c0-1.64844,1.11914-3.1875,2.7085-3.1875c1.2793,0,1.77881,0.83887,1.77881,1.77832c0,0.2998-0.06982,0.7002-0.15967,0.97949
					H-940.84302z M-940.73315-75.29152h2.96826c0.05029-0.17969,0.07031-0.34961,0.07031-0.5c0-0.5791-0.3501-1.0791-1.18945-1.0791
					C-939.81372-76.87062-940.47339-76.17043-940.73315-75.29152z"/>
				<path fill="#4500FF" d="M-932.44507-77.27003l-0.41992,0.5791c-0.11963-0.06934-0.32959-0.12988-0.57959-0.12988
					c-0.72949,0-1.49902,0.5-1.75879,1.86914l-0.46973,2.46875h-0.68994l0.95947-4.92773h0.68994l-0.14014,0.66992
					c0.43994-0.58984,1.09961-0.74902,1.5791-0.74902C-932.98462-77.48976-932.70483-77.43019-932.44507-77.27003z"/>
			</g>
		</g>
		<g id="Raggruppa_24455" transform="translate(1293.157 137.196)">
			<g enable-background="new    ">
				<path d="M-1054.75562-57.44875h2.27881c1.55908,0,2.36865,0.67969,2.36865,2.00879c0,1.34863-0.82959,2.06836-2.36865,2.06836
					h-1.03955v2.88867h-1.23926V-57.44875z M-1052.60669-54.52101c0.87939,0,1.24951-0.26953,1.24951-0.89941
					s-0.35986-0.87891-1.24951-0.87891h-0.90967v1.77832H-1052.60669z"/>
				<path d="M-1049.30542-51.66261v-5.78613h1.19971v5.70605c0,0.2207,0.12988,0.31055,0.34961,0.31055
					c0.10986,0,0.23975-0.02051,0.37988-0.06055v0.95996c-0.27002,0.09961-0.53955,0.14941-0.76953,0.14941
					C-1048.81567-50.38332-1049.30542-50.78273-1049.30542-51.66261z"/>
				<path d="M-1042.48755-53.59132v3.1084h-1.09912l-0.1001-0.63965c-0.29004,0.45996-0.84961,0.73926-1.49902,0.73926
					c-1.03955,0-1.7793-0.66895-1.7793-1.6084c0-0.58008,0.25977-1.01953,0.73975-1.23926
					c0.32959-0.15039,0.74951-0.2207,1.30908-0.2207h1.22949v-0.13965c0-0.54004-0.35986-0.86914-0.92969-0.86914
					c-0.49951,0-0.96924,0.25977-1.3291,0.73926l-0.86963-0.72949c0.58984-0.70996,1.31934-1.05957,2.21875-1.05957
					C-1043.29712-55.51027-1042.48755-54.78078-1042.48755-53.59132z M-1043.68677-52.55226h-1.06934
					c-0.40967,0-0.6499,0.05078-0.80957,0.16992c-0.12988,0.09082-0.2002,0.23047-0.2002,0.41016
					c0,0.34961,0.29004,0.56934,0.77002,0.56934C-1044.27661-51.40285-1043.68677-51.91261-1043.68677-52.55226z"/>
				<path d="M-1041.67456-52.93117c0-1.2998,0.76953-2.5791,2.37842-2.5791c0.97949,0,1.74902,0.46973,2.12891,1.44922
					l-1.13916,0.4502c-0.12988-0.52051-0.5-0.84961-0.98975-0.84961c-0.82959,0-1.14941,0.74902-1.14941,1.5293
					c0,0.7793,0.31006,1.49902,1.14941,1.49902c0.47998,0,0.85986-0.32031,0.98975-0.83008l1.08936,0.41992
					c-0.33008,0.91992-1.08936,1.45898-2.06885,1.45898C-1040.89526-50.38332-1041.67456-51.63234-1041.67456-52.93117z"/>
				<path d="M-1032.18774-52.55226h-3.37793c0.0498,0.65039,0.44971,1.08008,1.22949,1.08008
					c0.43945,0,0.83936-0.13965,1.1792-0.53027l0.82959,0.72949c-0.54004,0.60059-1.18945,0.88965-2.01904,0.88965
					c-1.69922,0-2.41846-1.21875-2.41846-2.53809c0-1.28906,0.69922-2.58887,2.33838-2.58887
					c1.5293,0,2.26904,1.12988,2.26904,2.49902C-1032.15747-52.86183-1032.16772-52.71144-1032.18774-52.55226z
					 M-1033.30688-53.50148c-0.02002-0.62988-0.5-1.00879-1.12939-1.00879c-0.72949,0-1.06934,0.51953-1.13965,1.00879H-1033.30688z
					"/>
				<path d="M-1031.6853-51.76222l0.95947-0.42969c0.13037,0.35938,0.39014,0.80957,1.0498,0.80957
					c0.55957,0,0.79932-0.32031,0.79932-0.58008c0-0.8291-2.53857-0.2793-2.53857-2.1084c0-0.94922,0.85938-1.43945,1.80908-1.43945
					c0.84961,0,1.49902,0.39941,1.86914,1.06934l-0.92969,0.50977c-0.16992-0.30957-0.43994-0.62988-0.97949-0.62988
					c-0.38965,0-0.62939,0.19043-0.62939,0.41992c0,0.75,2.57812,0.30957,2.57812,2.10938
					c0,1.14941-0.98926,1.64844-1.91895,1.64844C-1030.65552-50.38332-1031.44507-51.01222-1031.6853-51.76222z"/>
				<path d="M-1024.30542-51.66261v-5.78613h1.19971v5.70605c0,0.2207,0.12988,0.31055,0.34961,0.31055
					c0.10986,0,0.23975-0.02051,0.37988-0.06055v0.95996c-0.27002,0.09961-0.53955,0.14941-0.76953,0.14941
					C-1023.81567-50.38332-1024.30542-50.78273-1024.30542-51.66261z"/>
				<path d="M-1021.91528-52.95168c0-1.39941,0.93945-2.55859,2.46875-2.55859c1.51904,0,2.46875,1.15918,2.46875,2.55859
					c0,1.38965-0.94971,2.56836-2.46875,2.56836C-1020.97583-50.38332-1021.91528-51.56203-1021.91528-52.95168z
					 M-1018.177-52.95168c0-0.80957-0.35986-1.50879-1.26953-1.50879s-1.26953,0.69922-1.26953,1.50879
					c0,0.7998,0.35986,1.51953,1.26953,1.51953S-1018.177-52.15187-1018.177-52.95168z"/>
				<path d="M-1016.44507-52.93117c0-1.2998,0.76953-2.5791,2.37842-2.5791c0.97949,0,1.74902,0.46973,2.12891,1.44922
					l-1.13916,0.4502c-0.12988-0.52051-0.5-0.84961-0.98975-0.84961c-0.82959,0-1.14941,0.74902-1.14941,1.5293
					c0,0.7793,0.31006,1.49902,1.14941,1.49902c0.47998,0,0.85986-0.32031,0.98975-0.83008l1.08936,0.41992
					c-0.33008,0.91992-1.08936,1.45898-2.06885,1.45898C-1015.66577-50.38332-1016.44507-51.63234-1016.44507-52.93117z"/>
				<path d="M-1007.07788-53.59132v3.1084h-1.09912l-0.1001-0.63965c-0.29004,0.45996-0.84961,0.73926-1.49902,0.73926
					c-1.03955,0-1.7793-0.66895-1.7793-1.6084c0-0.58008,0.25977-1.01953,0.73975-1.23926
					c0.32959-0.15039,0.74951-0.2207,1.30908-0.2207h1.22949v-0.13965c0-0.54004-0.35986-0.86914-0.92969-0.86914
					c-0.49951,0-0.96924,0.25977-1.3291,0.73926l-0.86963-0.72949c0.58984-0.70996,1.31934-1.05957,2.21875-1.05957
					C-1007.88745-55.51027-1007.07788-54.78078-1007.07788-53.59132z M-1008.2771-52.55226h-1.06934
					c-0.40967,0-0.6499,0.05078-0.80957,0.16992c-0.12988,0.09082-0.19971,0.23047-0.19971,0.41016
					c0,0.34961,0.28955,0.56934,0.76953,0.56934C-1008.86694-51.40285-1008.2771-51.91261-1008.2771-52.55226z"/>
				<path d="M-1004.44653-54.46046v2.50879c0,0.38965,0.24023,0.56934,0.62988,0.56934c0.16992,0,0.37988-0.04004,0.59961-0.11035
					v0.95996c-0.2998,0.09961-0.59961,0.14941-0.89941,0.14941c-0.82959,0-1.5293-0.42969-1.5293-1.47852v-2.59863h-0.79932v-0.9502
					h0.79932v-1.14844l1.19922-0.88965v2.03809h1.22949v0.9502H-1004.44653z"/>
				<path d="M-998.11792-53.59132v3.1084h-1.09912l-0.1001-0.63965c-0.29004,0.45996-0.84961,0.73926-1.49902,0.73926
					c-1.03955,0-1.7793-0.66895-1.7793-1.6084c0-0.58008,0.25977-1.01953,0.73975-1.23926
					c0.32959-0.15039,0.74951-0.2207,1.30908-0.2207h1.22949v-0.13965c0-0.54004-0.35986-0.86914-0.92969-0.86914
					c-0.49951,0-0.96924,0.25977-1.3291,0.73926l-0.86963-0.72949c0.58984-0.70996,1.31934-1.05957,2.21875-1.05957
					C-998.92749-55.51027-998.11792-54.78078-998.11792-53.59132z M-999.31714-52.55226h-1.06934
					c-0.40967,0-0.6499,0.05078-0.80957,0.16992c-0.12988,0.09082-0.19971,0.23047-0.19971,0.41016
					c0,0.34961,0.28955,0.56934,0.76953,0.56934C-999.90698-51.40285-999.31714-51.91261-999.31714-52.55226z"/>
				<path d="M-992.14771-52.95168c0,1.47949-0.73975,2.56836-2.0791,2.56836c-0.52979,0-1.07959-0.16992-1.41895-0.58887v0.48926
					h-1.19971v-6.96582h1.19971v2.53809c0.30957-0.36914,0.85938-0.59961,1.41895-0.59961
					C-993.01733-55.51027-992.14771-54.56105-992.14771-52.95168z M-993.34741-52.94191c0-0.91895-0.37939-1.47852-1.1792-1.47852
					c-0.85938,0-1.22949,0.65918-1.22949,1.47852c0,0.82031,0.37012,1.44922,1.23926,1.44922
					C-993.71704-51.49269-993.34741-52.03175-993.34741-52.94191z"/>
				<path d="M-991.17603-51.66261v-5.78613h1.19971v5.70605c0,0.2207,0.12988,0.31055,0.34961,0.31055
					c0.10986,0,0.23975-0.02051,0.37988-0.06055v0.95996c-0.27002,0.09961-0.53955,0.14941-0.76953,0.14941
					C-990.68628-50.38332-991.17603-50.78273-991.17603-51.66261z"/>
				<path d="M-984.17798-52.55226h-3.37793c0.0498,0.65039,0.44971,1.08008,1.22949,1.08008
					c0.43945,0,0.83936-0.13965,1.1792-0.53027l0.82959,0.72949c-0.54004,0.60059-1.18945,0.88965-2.01904,0.88965
					c-1.69922,0-2.41846-1.21875-2.41846-2.53809c0-1.28906,0.69922-2.58887,2.33838-2.58887
					c1.5293,0,2.26904,1.12988,2.26904,2.49902C-984.14771-52.86183-984.15796-52.71144-984.17798-52.55226z M-985.29712-53.50148
					c-0.02002-0.62988-0.5-1.00879-1.12939-1.00879c-0.72949,0-1.06934,0.51953-1.13965,1.00879H-985.29712z"/>
				<path d="M-981.16528-52.95168c0-1.39941,0.93945-2.55859,2.46875-2.55859c1.51904,0,2.46875,1.15918,2.46875,2.55859
					c0,1.38965-0.94971,2.56836-2.46875,2.56836C-980.22583-50.38332-981.16528-51.56203-981.16528-52.95168z M-977.427-52.95168
					c0-0.80957-0.35986-1.50879-1.26953-1.50879s-1.26953,0.69922-1.26953,1.50879c0,0.7998,0.35986,1.51953,1.26953,1.51953
					S-977.427-52.15187-977.427-52.95168z"/>
				<path d="M-970.83862-53.66164v3.17871h-1.19922v-2.87891c0-0.33887,0-1.09863-0.90918-1.09863
					c-1.11963,0-1.11963,1.12891-1.11963,2.00879v1.96875h-1.19922v-4.92773h1.19922v0.57031
					c0.34961-0.46973,0.88965-0.66992,1.48926-0.66992C-971.46802-55.51027-970.83862-54.83058-970.83862-53.66164z"/>
				<path d="M-963.09839-53.59132v3.1084h-1.09912l-0.1001-0.63965c-0.29004,0.45996-0.84961,0.73926-1.49902,0.73926
					c-1.03955,0-1.7793-0.66895-1.7793-1.6084c0-0.58008,0.25977-1.01953,0.73975-1.23926
					c0.32959-0.15039,0.74951-0.2207,1.30908-0.2207h1.22949v-0.13965c0-0.54004-0.35986-0.86914-0.92969-0.86914
					c-0.49951,0-0.96924,0.25977-1.3291,0.73926l-0.86963-0.72949c0.58984-0.70996,1.31934-1.05957,2.21875-1.05957
					C-963.90796-55.51027-963.09839-54.78078-963.09839-53.59132z M-964.29761-52.55226h-1.06934
					c-0.40967,0-0.6499,0.05078-0.80957,0.16992c-0.12988,0.09082-0.19971,0.23047-0.19971,0.41016
					c0,0.34961,0.28955,0.56934,0.76953,0.56934C-964.88745-51.40285-964.29761-51.91261-964.29761-52.55226z"/>
				<path d="M-952.17993-53.6216v3.13867h-1.19971v-2.77832c0-0.38965-0.0498-1.19922-0.83936-1.19922
					c-1.00928,0-0.96924,1.10938-0.96924,2.09863v1.87891h-1.19971v-2.77832c0-0.38965-0.0498-1.19922-0.82959-1.19922
					c-1.00928,0-0.979,1.10938-0.979,2.09863v1.87891h-1.19971l-0.00977-4.92773h1.15918v0.62012
					c0.31982-0.5498,0.82959-0.71973,1.31934-0.71973c0.53955,0,1.13916,0.20996,1.43945,0.96973
					c0.37939-0.73926,0.94922-0.96973,1.58887-0.96973C-952.70972-55.51027-952.17993-54.61086-952.17993-53.6216z"/>
				<path d="M-946.87817-53.59132v3.1084h-1.09912l-0.1001-0.63965c-0.29004,0.45996-0.84961,0.73926-1.49902,0.73926
					c-1.03955,0-1.7793-0.66895-1.7793-1.6084c0-0.58008,0.25977-1.01953,0.73975-1.23926
					c0.32959-0.15039,0.74951-0.2207,1.30908-0.2207h1.22949v-0.13965c0-0.54004-0.35986-0.86914-0.92969-0.86914
					c-0.49951,0-0.96924,0.25977-1.3291,0.73926l-0.86963-0.72949c0.58984-0.70996,1.31934-1.05957,2.21875-1.05957
					C-947.68774-55.51027-946.87817-54.78078-946.87817-53.59132z M-948.07739-52.55226h-1.06934
					c-0.40967,0-0.6499,0.05078-0.80957,0.16992c-0.12988,0.09082-0.2002,0.23047-0.2002,0.41016
					c0,0.34961,0.29004,0.56934,0.77002,0.56934C-948.66724-51.40285-948.07739-51.91261-948.07739-52.55226z"/>
				<path d="M-940.90845-52.94191c0,1.60938-0.86963,2.55859-2.0791,2.55859c-0.55957,0-1.10938-0.22949-1.41895-0.59961v2.53906
					h-1.19971v-6.9668h1.19971v0.49023c0.33936-0.41992,0.88916-0.58984,1.41895-0.58984
					C-941.64819-55.51027-940.90845-54.42043-940.90845-52.94191z M-942.10815-52.95168c0-0.96973-0.36963-1.50879-1.16943-1.50879
					c-0.86914,0-1.23926,0.62891-1.23926,1.50879c0,0.85938,0.37012,1.51953,1.22949,1.51953
					C-942.48755-51.43214-942.10815-51.99171-942.10815-52.95168z"/>
			</g>
		</g>
		<g enable-background="new    ">
			<path fill="#5151FC" d="M2.78076,17.88446H0.60205v-1.14941h5.6167v1.14941H4.04004v5.81641H2.78076V17.88446z"/>
			<path fill="#5151FC" d="M9.12061,20.98212l-2.64844-4.24707h1.46875l1.7793,3.04785l1.79883-3.04785h1.47949l-2.62891,4.24707
				v2.71875H9.12061V20.98212z"/>
			<path fill="#5151FC" d="M13.85107,16.73505h2.27881c1.55908,0,2.36865,0.67969,2.36865,2.00879
				c0,1.34863-0.82959,2.06836-2.36865,2.06836h-1.03955v2.88867h-1.23926V16.73505z M16,19.66278
				c0.87939,0,1.24951-0.26953,1.24951-0.89941S16.88965,17.88446,16,17.88446h-0.90967v1.77832H16z"/>
			<path fill="#5151FC" d="M19.70117,16.73505h4.6377v1.14941h-3.38818v1.6582h3.14844v1.14941h-3.14844v1.85938h3.38818v1.14941
				h-4.6377V16.73505z"/>
			<path fill="#5151FC" d="M25.13135,21.73212l1.23926-0.30957c0.08984,0.8291,0.63965,1.29883,1.44922,1.29883
				c0.69971,0,1.14941-0.34961,1.14941-0.93945c0-0.47949-0.35986-0.7793-1.38916-1.18945
				c-1.45947-0.56934-1.979-1.09961-1.979-2.1084c0-1.12988,0.86963-1.89941,2.16895-1.89941
				c0.93945,0,1.67871,0.42969,2.11865,1.26953l-1.03955,0.63965c-0.23975-0.51953-0.64941-0.7998-1.11914-0.7998
				c-0.5,0-0.87988,0.33008-0.87988,0.75977c0,0.45996,0.33984,0.71973,1.38965,1.12891
				c1.48877,0.57031,1.97852,1.09961,1.97852,2.08887c0,1.2998-0.98926,2.15918-2.41846,2.15918
				C26.41064,23.83075,25.33105,23.00165,25.13135,21.73212z"/>
			<path fill="#5151FC" d="M33.3208,20.22235c0-2.18848,1.34961-3.6377,3.32812-3.6377c1.98926,0,3.32812,1.44922,3.32812,3.6377
				c0,2.17969-1.34912,3.62891-3.32812,3.62891C34.67041,23.85126,33.3208,22.40204,33.3208,20.22235z M38.72803,20.22235
				c0-1.50879-0.80957-2.44824-2.0791-2.44824c-1.26904,0-2.07861,0.92969-2.07861,2.44824
				c0,1.50977,0.80957,2.43945,2.07861,2.43945C37.91846,22.6618,38.72803,21.72235,38.72803,20.22235z"/>
			<path fill="#5151FC" d="M41.25049,16.73505h4.9375v1.14941H42.5v1.6582h3.24805v1.14941H42.5v3.00879h-1.24951V16.73505z"/>
			<path fill="#5151FC" d="M55.19775,16.73505v6.96582h-1.29932l-2.91846-4.81738v4.81738h-1.24951v-6.96582h1.28955
				l2.92822,4.79688v-4.79688H55.19775z"/>
			<path fill="#5151FC" d="M60.73828,22.26141h-2.72852l-0.5293,1.43945h-1.35938l2.78857-6.96582h0.93945l2.77832,6.96582h-1.35938
				L60.73828,22.26141z M60.31885,21.112l-0.93945-2.53809L58.43994,21.112H60.31885z"/>
			<path fill="#5151FC" d="M67.33838,23.70087l-1.66895-2.88867h-0.41992h-0.45996v2.88867h-1.23926v-6.96582h2.27881
				c1.65918,0,2.36865,0.75879,2.36865,2.00879c0,0.99902-0.45947,1.63867-1.28906,1.91895l1.87891,3.03809H67.33838z
				 M65.69922,19.66278c0.80957,0,1.24951-0.21973,1.24951-0.89941s-0.43994-0.87891-1.24951-0.87891h-0.90967v1.77832H65.69922z"/>
			<path fill="#5151FC" d="M73.55859,23.70087l-1.66895-2.88867h-0.41992h-0.45996v2.88867h-1.23926v-6.96582h2.27881
				c1.65918,0,2.36865,0.75879,2.36865,2.00879c0,0.99902-0.45947,1.63867-1.28906,1.91895l1.87891,3.03809H73.55859z
				 M71.91943,19.66278c0.80957,0,1.24951-0.21973,1.24951-0.89941s-0.43994-0.87891-1.24951-0.87891h-0.90967v1.77832H71.91943z"/>
			<path fill="#5151FC" d="M79.74805,22.26141h-2.72852l-0.5293,1.43945h-1.35938l2.78857-6.96582h0.93945l2.77832,6.96582h-1.35938
				L79.74805,22.26141z M79.32861,21.112l-0.93945-2.53809L77.44971,21.112H79.32861z"/>
			<path fill="#5151FC" d="M83.27979,17.88446h-2.17871v-1.14941h5.6167v1.14941h-2.17871v5.81641h-1.25928V17.88446z"/>
			<path fill="#5151FC" d="M87.68018,16.73505h1.24951v6.96582h-1.24951V16.73505z"/>
			<path fill="#5151FC" d="M96.35693,16.73505l-2.77832,6.96582h-0.93945l-2.78857-6.96582h1.37939l1.87891,4.92676l1.86865-4.92676
				H96.35693z"/>
			<path fill="#5151FC" d="M97.28027,16.73505h4.6377v1.14941h-3.38818v1.6582h3.14844v1.14941h-3.14844v1.85938h3.38818v1.14941
				h-4.6377V16.73505z"/>
			<path fill="#5151FC" d="M105.14062,21.73212l1.23926-0.30957c0.08984,0.8291,0.63965,1.29883,1.44922,1.29883
				c0.69971,0,1.14941-0.34961,1.14941-0.93945c0-0.47949-0.35986-0.7793-1.38916-1.18945
				c-1.45947-0.56934-1.979-1.09961-1.979-2.1084c0-1.12988,0.86963-1.89941,2.16895-1.89941
				c0.93945,0,1.67871,0.42969,2.11865,1.26953l-1.03955,0.63965c-0.23975-0.51953-0.64941-0.7998-1.11914-0.7998
				c-0.5,0-0.87988,0.33008-0.87988,0.75977c0,0.45996,0.33984,0.71973,1.38965,1.12891
				c1.48877,0.57031,1.97852,1.09961,1.97852,2.08887c0,1.2998-0.98926,2.15918-2.41846,2.15918
				C106.41992,23.83075,105.34033,23.00165,105.14062,21.73212z"/>
			<path fill="#5151FC" d="M111.39014,16.73505h4.6377v1.14941h-3.38818v1.6582h3.14795v1.14941h-3.14795v1.85938h3.38818v1.14941
				h-4.6377V16.73505z"/>
			<path fill="#5151FC" d="M123.2168,24.29071l-1.01953-0.98926c-0.51953,0.35938-1.16943,0.5498-1.88916,0.5498
				c-1.97852,0-3.32812-1.44922-3.32812-3.62891c0-2.18848,1.34961-3.6377,3.32812-3.6377c1.98926,0,3.32861,1.44922,3.32861,3.6377
				c0,0.92969-0.25,1.72949-0.67969,2.33887l1.01904,1L123.2168,24.29071z M121.2876,22.43134l-0.90918-0.87891l0.74951-0.76953
				l0.91943,0.89941c0.21973-0.38965,0.33984-0.87988,0.33984-1.45996c0-1.50879-0.80957-2.44824-2.0791-2.44824
				c-1.26904,0-2.07861,0.92969-2.07861,2.44824c0,1.50977,0.80957,2.43945,2.07861,2.43945
				C120.67822,22.6618,121.00781,22.58173,121.2876,22.43134z"/>
			<path fill="#5151FC" d="M125,21.18231v-4.44727h1.24902v4.30762c0,1.17871,0.37988,1.59863,1.40918,1.59863
				c1.02979,0,1.41943-0.42969,1.41943-1.59863v-4.30762h1.24951v4.39746c0,1.80859-0.90967,2.71875-2.66895,2.71875
				C125.90918,23.85126,125,22.96161,125,21.18231z"/>
			<path fill="#5151FC" d="M131.94971,16.73505h4.6377v1.14941h-3.38818v1.6582h3.14795v1.14941h-3.14795v1.85938h3.38818v1.14941
				h-4.6377V16.73505z"/>
			<path fill="#5151FC" d="M143.51709,16.73505v6.96582h-1.29932l-2.91846-4.81738v4.81738h-1.24951v-6.96582h1.28955
				l2.92822,4.79688v-4.79688H143.51709z"/>
			<path fill="#5151FC" d="M144.7998,20.21259c0-2.22852,1.31934-3.6377,3.37793-3.6377c1.46924,0,2.57861,0.70996,3.08838,2.03906
				l-1.14941,0.44922c-0.30957-0.86914-0.98926-1.29883-1.93896-1.29883c-1.34912,0-2.12891,0.87891-2.12891,2.43848
				c0,1.56934,0.78955,2.45898,2.12891,2.45898c0.95947,0,1.63916-0.4502,1.93896-1.33008l1.16943,0.44043
				c-0.49951,1.34863-1.61914,2.0791-3.1084,2.0791C146.11914,23.85126,144.7998,22.4411,144.7998,20.21259z"/>
			<path fill="#5151FC" d="M152.38965,16.73505h4.6377v1.14941h-3.38818v1.6582h3.14844v1.14941h-3.14844v1.85938h3.38818v1.14941
				h-4.6377V16.73505z"/>
		</g>
		<path id="Tracciato_153170" fill="none" stroke="#5151FC" stroke-width="0.5" stroke-miterlimit="10" d="M0.47803,104.296"/>
		
			<line id="Linea_7910" fill="none" stroke="#5151FC" stroke-width="0.5" stroke-miterlimit="10" x1="-0.5" y1="0.694" x2="938.47803" y2="0.694"/>
		<rect id="Rectangle_50" x="0.278" y="0.894" fill="none" width="938" height="104.4"/>
		<g id="Raggruppa_24462" transform="translate(1293.157 137.196)">
			<g id="Raggruppa_24461">
				<g>
					<defs>
						<rect id="SVGID_3_" x="-1056.36206" y="-103.437" width="11.6" height="11.6"/>
					</defs>
					<clipPath id="SVGID_4_">
						<use xlink:href="#SVGID_3_"  overflow="visible"/>
					</clipPath>
					<g id="Raggruppa_24460" clip-path="url(#SVGID_4_)">
						<g id="Raggruppa_24459">
							<g id="Raggruppa_24458">
								<g>
									<defs>
										<rect id="SVGID_5_" x="-1056.42395" y="-103.344" width="11.61" height="11.61"/>
									</defs>
									<clipPath id="SVGID_6_">
										<use xlink:href="#SVGID_5_"  overflow="visible"/>
									</clipPath>
									<g id="Raggruppa_24457" clip-path="url(#SVGID_6_)">
										<g id="Raggruppa_24456">
											<g id="New_Symbol">
												
													<circle id="Ellisse_33592" fill="#FFFFFF" stroke="#6666FF" stroke-width="0.75" stroke-miterlimit="10" cx="-1050.57397" cy="-97.584" r="5.49"/>
												<rect id="Rettangolo_19344" x="-1051.92395" y="-100.914" fill="none" width="3.24" height="6.57"/>
												<g enable-background="new    ">
													<path fill="#5151FC" d="M-1048.70679-99.1841l-0.45215,0.82715c-0.13281-0.08594-0.28027-0.13281-0.46777-0.13281
														c-0.56934,0-0.84961,0.35059-0.84961,1.07617V-95.48h-0.93555v-3.84375h0.94336v0.6543
														c0.16309-0.47559,0.59277-0.73242,1.0293-0.73242C-1049.18237-99.40187-1048.95581-99.33937-1048.70679-99.1841z"/>
												</g>
											</g>
										</g>
									</g>
								</g>
							</g>
						</g>
					</g>
				</g>
			</g>
		</g>
		<g id="Raggruppa_24469" transform="translate(1293.157 137.196)">
			<g id="Raggruppa_24468">
				<g>
					<defs>
						<rect id="SVGID_7_" x="-1056.33301" y="-81.336" width="11.6" height="11.6"/>
					</defs>
					<clipPath id="SVGID_8_">
						<use xlink:href="#SVGID_7_"  overflow="visible"/>
					</clipPath>
					<g id="Raggruppa_24467" clip-path="url(#SVGID_8_)">
						<g id="Raggruppa_24466">
							<g id="Raggruppa_24465">
								<g>
									<defs>
										<rect id="SVGID_9_" x="-1056.41199" y="-81.215" width="11.61" height="11.61"/>
									</defs>
									<clipPath id="SVGID_10_">
										<use xlink:href="#SVGID_9_"  overflow="visible"/>
									</clipPath>
									<g id="Raggruppa_24464" clip-path="url(#SVGID_10_)">
										<g id="Raggruppa_24463">
											
												<circle id="Ellisse_33593" fill="#5151FC" stroke="#FFFFFF" stroke-width="0.75" stroke-miterlimit="10" cx="-1050.56201" cy="-75.455" r="5.49"/>
											<rect id="Rettangolo_19345" x="-1051.552" y="-78.245" fill="none" width="3.24" height="6.57"/>
											<g enable-background="new    ">
												<path fill="#FFFFFF" d="M-1051.0437-78.25148h0.98242v0.86523h-0.98242V-78.25148z M-1051.02026-76.66066h0.93555
													v3.84375h-0.93555V-76.66066z"/>
											</g>
										</g>
									</g>
								</g>
							</g>
						</g>
					</g>
				</g>
			</g>
		</g>
	</g>
</g>
</svg>
