<svg xmlns="http://www.w3.org/2000/svg" xmlns:xlink="http://www.w3.org/1999/xlink" width="938" height="105.29" viewBox="0 0 938 105.29">
  <defs>
    <clipPath id="clip-path">
      <rect id="SVGID" width="11.6" height="11.6" transform="translate(-1056.362 -103.437)" fill="none"/>
    </clipPath>
    <clipPath id="clip-path-2">
      <rect id="SVGID-2" data-name="SVGID" width="11.61" height="11.61" transform="translate(-1056.424 -103.344)" fill="none"/>
    </clipPath>
    <clipPath id="clip-path-3">
      <rect id="SVGID-3" data-name="SVGID" width="11.6" height="11.6" transform="translate(-1056.333 -81.336)" fill="none"/>
    </clipPath>
    <clipPath id="clip-path-4">
      <rect id="SVGID-4" data-name="SVGID" width="11.61" height="11.61" transform="translate(-1056.412 -81.215)" fill="none"/>
    </clipPath>
    <clipPath id="clip-Legend01">
      <rect width="938" height="105.29"/>
    </clipPath>
  </defs>
  <g id="Legend01" clip-path="url(#clip-Legend01)">
    <text id="Realtá" transform="translate(31.514 42.713)" font-size="10" font-family="HKGrotesk-Regular, HK Grotesk" style="isolation: isolate"><tspan x="0" y="0">Realtá</tspan></text>
    <text id="Contestualizzazione" transform="translate(31.513 64.713)" font-size="10" font-family="HKGrotesk-Regular, HK Grotesk" style="isolation: isolate"><tspan x="0" y="0">Contestualizzazione</tspan></text>
    <text id="Immaginazione" transform="translate(31.513 86.713)" font-size="10" font-family="HKGrotesk-Regular, HK Grotesk" style="isolation: isolate"><tspan x="0" y="0">Immaginazione</tspan></text>
    <path id="Rectangle_13359" data-name="Rectangle 13359" d="M-1287.879-102.5h11a4.951,4.951,0,0,1,5,5h0a4.951,4.951,0,0,1-5,5h-11a4.951,4.951,0,0,1-5-5h0A5.015,5.015,0,0,1-1287.879-102.5Z" transform="translate(1293.157 137.196)" fill="#00bfd3"/>
    <path id="Rectangle_13360" data-name="Rectangle 13360" d="M-1287.879-80.5h11a4.951,4.951,0,0,1,5,5h0a4.951,4.951,0,0,1-5,5h-11a4.951,4.951,0,0,1-5-5h0A5.015,5.015,0,0,1-1287.879-80.5Z" transform="translate(1293.157 137.196)" fill="#bbf"/>
    <path id="Rectangle_13361" data-name="Rectangle 13361" d="M-1287.879-58.5h11a4.951,4.951,0,0,1,5,5h0a4.951,4.951,0,0,1-5,5h-11a4.951,4.951,0,0,1-5-5h0A5.015,5.015,0,0,1-1287.879-58.5Z" transform="translate(1293.157 137.196)" fill="#f36"/>
    <g id="Raggruppa_24452" data-name="Raggruppa 24452" transform="translate(1293.157 137.196)">
      <text id="LOCATIONS_AND_CHARACTERS" data-name="LOCATIONS AND CHARACTERS" transform="translate(-1055.635 -113.495)" fill="#5151fc" font-size="10" font-family="HKGrotesk-Bold, HK Grotesk" font-weight="700" style="isolation: isolate"><tspan x="0" y="0">LOCATIONS AND CHARACTERS</tspan></text>
    </g>
    <g id="Raggruppa_24453" data-name="Raggruppa 24453" transform="translate(1293.157 137.196)">
      <text id="Real_character" data-name="Real character" transform="translate(-1023.731 -94.483)" font-size="10" font-family="HKGrotesk-Regular, HK Grotesk" style="isolation: isolate"><tspan x="0" y="0">Real character</tspan></text>
    </g>
    <g id="Raggruppa_24454" data-name="Raggruppa 24454" transform="translate(1293.157 137.196)">
      <text id="Imaginary_character" data-name="Imaginary character" transform="translate(-1023.731 -72.483)" fill="#4500ff" font-size="10" font-family="HKGrotesk-Italic, HK Grotesk" font-style="italic" style="isolation: isolate"><tspan x="0" y="0">Imaginary character</tspan></text>
    </g>
    <g id="Raggruppa_24455" data-name="Raggruppa 24455" transform="translate(1293.157 137.196)">
      <text id="Places_locatable_on_a_map" data-name="Places locatable on a map" transform="translate(-1055.635 -50.483)" font-size="10" font-family="HKGrotesk-Bold, HK Grotesk" font-weight="700" style="isolation: isolate"><tspan x="0" y="0">Places locatable on a map</tspan></text>
    </g>
    <text id="TYPES_OF_NARRATIVE_SEQUENCE" data-name="TYPES OF NARRATIVE SEQUENCE" transform="translate(0.522 23.701)" fill="#5151fc" font-size="10" font-family="HKGrotesk-Bold, HK Grotesk" font-weight="700" style="isolation: isolate"><tspan x="0" y="0">TYPES OF NARRATIVE SEQUENCE</tspan></text>
    <path id="Tracciato_153170" data-name="Tracciato 153170" d="M-1292.679-32.9" transform="translate(1293.157 137.196)" fill="none" stroke="#5151fc" stroke-miterlimit="10" stroke-width="0.5"/>
    <line id="Linea_7910" data-name="Linea 7910" x2="938.978" transform="translate(-0.5 0.694)" fill="none" stroke="#5151fc" stroke-miterlimit="10" stroke-width="0.5"/>
    <rect id="Rectangle_50" data-name="Rectangle 50" width="938" height="104.4" transform="translate(0.278 0.894)" fill="none"/>
    <g id="Raggruppa_24462" data-name="Raggruppa 24462" transform="translate(1293.157 137.196)">
      <g id="Raggruppa_24461" data-name="Raggruppa 24461">
        <g id="Raggruppa_24460" data-name="Raggruppa 24460" clip-path="url(#clip-path)">
          <g id="Raggruppa_24459" data-name="Raggruppa 24459">
            <g id="Raggruppa_24458" data-name="Raggruppa 24458">
              <g id="Raggruppa_24457" data-name="Raggruppa 24457" clip-path="url(#clip-path-2)">
                <g id="Raggruppa_24456" data-name="Raggruppa 24456">
                  <g id="New_Symbol" data-name="New Symbol">
                    <circle id="Ellisse_33592" data-name="Ellisse 33592" cx="5.49" cy="5.49" r="5.49" transform="translate(-1056.064 -103.074)" fill="#fff" stroke="#66f" stroke-miterlimit="10" stroke-width="0.75"/>
                    <rect id="Rettangolo_19344" data-name="Rettangolo 19344" width="3.24" height="6.57" transform="translate(-1051.924 -100.914)" fill="none"/>
                    <text id="r" transform="translate(-1051.958 -95.48)" fill="#5151fc" font-size="7.796" font-family="HKGrotesk-Bold, HK Grotesk" font-weight="700" style="isolation: isolate"><tspan x="0" y="0">r</tspan></text>
                  </g>
                </g>
              </g>
            </g>
          </g>
        </g>
      </g>
    </g>
    <g id="Raggruppa_24469" data-name="Raggruppa 24469" transform="translate(1293.157 137.196)">
      <g id="Raggruppa_24468" data-name="Raggruppa 24468">
        <g id="Raggruppa_24467" data-name="Raggruppa 24467" clip-path="url(#clip-path-3)">
          <g id="Raggruppa_24466" data-name="Raggruppa 24466">
            <g id="Raggruppa_24465" data-name="Raggruppa 24465">
              <g id="Raggruppa_24464" data-name="Raggruppa 24464" clip-path="url(#clip-path-4)">
                <g id="Raggruppa_24463" data-name="Raggruppa 24463">
                  <circle id="Ellisse_33593" data-name="Ellisse 33593" cx="5.49" cy="5.49" r="5.49" transform="translate(-1056.052 -80.945)" fill="#5151fc" stroke="#fff" stroke-miterlimit="10" stroke-width="0.75"/>
                  <rect id="Rettangolo_19345" data-name="Rettangolo 19345" width="3.24" height="6.57" transform="translate(-1051.552 -78.245)" fill="none"/>
                  <text id="i" transform="translate(-1051.566 -72.817)" fill="#fff" font-size="7.796" font-family="HKGrotesk-Bold, HK Grotesk" font-weight="700" style="isolation: isolate"><tspan x="0" y="0">i</tspan></text>
                </g>
              </g>
            </g>
          </g>
        </g>
      </g>
    </g>
  </g>
</svg>
