<?xml version="1.0" encoding="utf-8"?>
<!-- Generator: Adobe Illustrator 24.3.0, SVG Export Plug-In . SVG Version: 6.00 Build 0)  -->
<svg version="1.1" id="Livello_1" xmlns="http://www.w3.org/2000/svg" xmlns:xlink="http://www.w3.org/1999/xlink" x="0px" y="0px"
	 width="300px" height="92.4px" viewBox="0 0 300 92.4" style="enable-background:new 0 0 300 92.4;" xml:space="preserve">
<style type="text/css">
	.st0{enable-background:new    ;}
	.st1{fill:none;stroke:#000000;stroke-width:0.5973;}
	.st2{display:none;}
	.st3{fill:none;stroke:#CCCCCC;stroke-width:0.5;stroke-dasharray:2,2;}
	.st4{fill:none;stroke:#444444;stroke-width:0.5695;}
	.st5{fill:#444444;}
	.st6{fill:none;stroke:#444444;stroke-width:0.4602;}
</style>
<g class="st0">
	<path d="M12.7,45.1H9.8l-0.7,1.9H8.3l2.6-7h0.6l2.6,7h-0.8L12.7,45.1z M12.5,44.5L11.2,41L10,44.5H12.5z"/>
	<path d="M14.9,45.7l0.6-0.3c0.2,0.5,0.7,0.9,1.4,0.9c0.7,0,1.1-0.3,1.1-0.8c0-1.3-2.8-0.5-2.8-2.2c0-0.9,0.7-1.4,1.7-1.4
		c0.8,0,1.4,0.3,1.8,1L18,43.3c-0.2-0.4-0.6-0.7-1.2-0.7c-0.6,0-1,0.2-1,0.7c0,1.2,2.8,0.4,2.8,2.3c0,1-0.8,1.5-1.8,1.5
		C15.9,47,15.1,46.5,14.9,45.7z"/>
	<path d="M19.5,45.7l0.6-0.3c0.2,0.5,0.7,0.9,1.4,0.9c0.7,0,1.1-0.3,1.1-0.8c0-1.3-2.8-0.5-2.8-2.2c0-0.9,0.7-1.4,1.7-1.4
		c0.8,0,1.4,0.3,1.8,1l-0.5,0.3c-0.2-0.4-0.6-0.7-1.2-0.7c-0.6,0-1,0.2-1,0.7c0,1.2,2.8,0.4,2.8,2.3c0,1-0.8,1.5-1.8,1.5
		C20.6,47,19.8,46.5,19.5,45.7z"/>
	<path d="M28.6,44.7H25c0,1.1,0.6,1.7,1.6,1.7c0.5,0,1-0.1,1.4-0.6l0.5,0.4c-0.6,0.6-1.1,0.8-1.9,0.8c-1.5,0-2.3-1.1-2.3-2.5
		c0-1.4,0.8-2.6,2.2-2.6c1.5,0,2.1,1.2,2.1,2.3C28.6,44.4,28.6,44.5,28.6,44.7z M25,44.1h3c0,0,0-0.1,0-0.2c0-0.8-0.6-1.4-1.5-1.4
		C25.6,42.5,25,43.2,25,44.1z"/>
	<path d="M33.9,43.9v3h-0.7v-2.8c0-1.1-0.3-1.5-1.1-1.5c-0.9,0-1.5,0.8-1.5,2.2v2.2H30V42h0.7v0.7c0.3-0.5,0.9-0.8,1.6-0.8
		C33.4,41.9,33.9,42.6,33.9,43.9z"/>
	<path d="M39.2,42.6L36,46.3h3.2v0.6h-4.1v-0.5l3.3-3.8h-3.1V42h3.9V42.6z"/>
	<path d="M44.2,43.9v3.1h-0.6l0-0.8c-0.4,0.5-1,0.8-1.8,0.8c-1.1,0-1.7-0.6-1.7-1.5c0-0.5,0.2-0.9,0.6-1.1c0.4-0.2,0.9-0.3,1.9-0.3
		h1v-0.2c0-0.9-0.4-1.3-1.3-1.3c-0.6,0-1.1,0.3-1.5,0.8l-0.5-0.4c0.5-0.7,1.2-1,2-1C43.4,41.9,44.2,42.6,44.2,43.9z M43.5,44.7
		L43.5,44.7l-0.9-0.1c-0.9,0-1.3,0.1-1.5,0.2c-0.2,0.1-0.3,0.4-0.3,0.6c0,0.5,0.5,0.9,1.2,0.9C42.9,46.4,43.5,45.8,43.5,44.7z"/>
	<path d="M52.7,40v7H52v-0.7c-0.4,0.5-0.9,0.7-1.6,0.7c-1.4,0-2.2-1.1-2.2-2.5c0-1.5,0.8-2.5,2.2-2.5c0.7,0,1.3,0.3,1.6,0.8V40H52.7
		z M52.1,44.5c0-1.2-0.6-1.9-1.6-1.9c-1,0-1.6,0.8-1.6,1.9c0,1.1,0.5,1.9,1.6,1.9C51.5,46.4,52.1,45.6,52.1,44.5z"/>
	<path d="M54.4,40h0.8v1h-0.8V40z M54.5,42h0.7v4.9h-0.7V42z"/>
</g>
<g class="st0">
	<path d="M15.6,54.5v3.1h-0.7v-2.9c0-0.4,0-1.5-1.1-1.5c-1,0-1.3,0.9-1.3,2v2.4h-0.7v-2.8c0-0.8-0.2-1.5-1.1-1.5c-1,0-1.2,0.9-1.2,2
		v2.4H8.9l0-4.9h0.7v0.6c0.3-0.5,0.8-0.7,1.4-0.7c0.7,0,1.2,0.3,1.4,0.9c0.3-0.6,0.9-0.9,1.6-0.9C15.1,52.5,15.6,53.3,15.6,54.5z"/>
	<path d="M16.9,55.1c0-1.5,0.9-2.5,2.4-2.5c1.4,0,2.4,1.1,2.4,2.5c0,1.4-1,2.5-2.4,2.5S16.9,56.5,16.9,55.1z M20.9,55.1
		c0-1.1-0.6-1.9-1.7-1.9c-1.1,0-1.7,0.8-1.7,1.9c0,1.1,0.6,1.9,1.7,1.9C20.3,57,20.9,56.2,20.9,55.1z"/>
	<path d="M22.2,52.6h0.8l1.5,4l1.6-4h0.8l-2,4.9h-0.6L22.2,52.6z"/>
	<path d="M27.8,50.6h0.8v1h-0.8V50.6z M27.9,52.6h0.7v4.9h-0.7V52.6z"/>
	<path d="M37.2,54.5v3.1h-0.7v-2.9c0-0.4,0-1.5-1.1-1.5c-1,0-1.3,0.9-1.3,2v2.4h-0.7v-2.8c0-0.8-0.2-1.5-1.1-1.5c-1,0-1.2,0.9-1.2,2
		v2.4h-0.7l0-4.9h0.7v0.6c0.3-0.5,0.8-0.7,1.4-0.7c0.7,0,1.2,0.3,1.4,0.9c0.3-0.6,0.9-0.9,1.6-0.9C36.7,52.5,37.2,53.3,37.2,54.5z"
		/>
	<path d="M42.8,55.3h-3.6c0,1.1,0.6,1.7,1.6,1.7c0.5,0,1-0.1,1.4-0.6l0.5,0.4c-0.6,0.6-1.1,0.8-1.9,0.8c-1.5,0-2.3-1.1-2.3-2.5
		c0-1.4,0.8-2.6,2.2-2.6c1.5,0,2.1,1.2,2.1,2.3C42.8,55,42.8,55.1,42.8,55.3z M39.2,54.7h3c0,0,0-0.1,0-0.2c0-0.8-0.6-1.4-1.5-1.4
		C39.8,53.1,39.2,53.8,39.2,54.7z"/>
	<path d="M48.1,54.5v3h-0.7v-2.8c0-1.1-0.3-1.5-1.1-1.5c-0.9,0-1.5,0.8-1.5,2.2v2.2h-0.7v-4.9h0.7v0.7c0.3-0.5,0.9-0.8,1.6-0.8
		C47.6,52.5,48.1,53.2,48.1,54.5z"/>
	<path d="M51.9,57.5c-0.3,0.1-0.5,0.1-0.7,0.1c-0.7,0-1.1-0.4-1.1-1.2v-3.2h-0.8v-0.6H50v-1.4l0.7-0.5v1.9h1.2v0.6h-1.2v3.1
		c0,0.5,0.2,0.7,0.6,0.7c0.2,0,0.4,0,0.6-0.1L51.9,57.5z"/>
	<path d="M52.7,55.1c0-1.5,0.9-2.5,2.4-2.5c1.4,0,2.4,1.1,2.4,2.5c0,1.4-1,2.5-2.4,2.5S52.7,56.5,52.7,55.1z M56.7,55.1
		c0-1.1-0.6-1.9-1.7-1.9c-1.1,0-1.7,0.8-1.7,1.9c0,1.1,0.6,1.9,1.7,1.9C56.1,57,56.7,56.2,56.7,55.1z"/>
</g>
<g class="st0">
	<path d="M93.5,40h2c1.5,0,2.3,0.7,2.3,1.9c0,1.3-0.8,2-2.3,2h-1.3v3h-0.7V40z M95.4,43.2c1.1,0,1.6-0.4,1.6-1.3
		c0-0.9-0.6-1.3-1.6-1.3h-1.2v2.6C94.2,43.2,95.4,43.2,95.4,43.2z"/>
	<path d="M102,42.1l-0.3,0.6c-0.2-0.1-0.4-0.2-0.6-0.2c-0.8,0-1.3,0.6-1.3,1.6v2.7H99V42h0.7v0.7c0.4-0.6,1-0.8,1.5-0.8
		C101.5,41.9,101.8,42,102,42.1z"/>
	<path d="M106.5,44.7h-3.6c0,1.1,0.6,1.7,1.6,1.7c0.5,0,1-0.1,1.4-0.6l0.5,0.4c-0.6,0.6-1.1,0.8-1.9,0.8c-1.5,0-2.3-1.1-2.3-2.5
		c0-1.4,0.8-2.6,2.2-2.6c1.5,0,2.1,1.2,2.1,2.3C106.5,44.4,106.5,44.5,106.5,44.7z M102.9,44.1h3c0,0,0-0.1,0-0.2
		c0-0.8-0.6-1.4-1.5-1.4C103.5,42.5,103,43.2,102.9,44.1z"/>
	<path d="M107.4,45.7l0.6-0.3c0.2,0.5,0.7,0.9,1.4,0.9c0.7,0,1.1-0.3,1.1-0.8c0-1.3-2.8-0.5-2.8-2.2c0-0.9,0.7-1.4,1.7-1.4
		c0.8,0,1.4,0.3,1.8,1l-0.5,0.3c-0.2-0.4-0.6-0.7-1.2-0.7c-0.6,0-1,0.2-1,0.7c0,1.2,2.8,0.4,2.8,2.3c0,1-0.8,1.5-1.8,1.5
		C108.4,47,107.7,46.5,107.4,45.7z"/>
	<path d="M116.4,44.7h-3.6c0,1.1,0.6,1.7,1.6,1.7c0.5,0,1-0.1,1.4-0.6l0.5,0.4c-0.6,0.6-1.1,0.8-1.9,0.8c-1.5,0-2.3-1.1-2.3-2.5
		c0-1.4,0.8-2.6,2.2-2.6c1.5,0,2.1,1.2,2.1,2.3C116.5,44.4,116.5,44.5,116.4,44.7z M112.8,44.1h3c0,0,0-0.1,0-0.2
		c0-0.8-0.6-1.4-1.5-1.4C113.4,42.5,112.9,43.2,112.8,44.1z"/>
	<path d="M121.8,43.9v3h-0.7v-2.8c0-1.1-0.3-1.5-1.1-1.5c-0.9,0-1.5,0.8-1.5,2.2v2.2h-0.7V42h0.7v0.7c0.3-0.5,0.9-0.8,1.6-0.8
		C121.2,41.9,121.8,42.6,121.8,43.9z"/>
	<path d="M127,42.6l-3.2,3.8h3.2v0.6h-4.1v-0.5l3.3-3.8h-3.1V42h3.9V42.6z"/>
	<path d="M132,43.9v3.1h-0.6l0-0.8c-0.4,0.5-1,0.8-1.8,0.8c-1.1,0-1.7-0.6-1.7-1.5c0-0.5,0.2-0.9,0.6-1.1c0.4-0.2,0.9-0.3,1.9-0.3h1
		v-0.2c0-0.9-0.4-1.3-1.3-1.3c-0.6,0-1.1,0.3-1.5,0.8l-0.5-0.4c0.5-0.7,1.2-1,2-1C131.3,41.9,132,42.6,132,43.9z M131.3,44.7
		L131.3,44.7l-0.9-0.1c-0.9,0-1.3,0.1-1.5,0.2c-0.2,0.1-0.3,0.4-0.3,0.6c0,0.5,0.5,0.9,1.2,0.9C130.7,46.4,131.3,45.8,131.3,44.7z"
		/>
	<path d="M140.6,40v7h-0.7v-0.7c-0.4,0.5-0.9,0.7-1.6,0.7c-1.4,0-2.2-1.1-2.2-2.5c0-1.5,0.8-2.5,2.2-2.5c0.7,0,1.3,0.3,1.6,0.8V40
		H140.6z M139.9,44.5c0-1.2-0.6-1.9-1.6-1.9c-1,0-1.6,0.8-1.6,1.9c0,1.1,0.5,1.9,1.6,1.9C139.4,46.4,139.9,45.6,139.9,44.5z"/>
	<path d="M142.3,40h0.8v1h-0.8V40z M142.4,42h0.7v4.9h-0.7V42z"/>
</g>
<g class="st0">
	<path d="M100,54.5v3.1h-0.7v-2.9c0-0.4,0-1.5-1.1-1.5c-1,0-1.3,0.9-1.3,2v2.4h-0.7v-2.8c0-0.8-0.2-1.5-1.1-1.5c-1,0-1.2,0.9-1.2,2
		v2.4h-0.7l0-4.9h0.7v0.6c0.3-0.5,0.8-0.7,1.4-0.7c0.7,0,1.2,0.3,1.4,0.9c0.3-0.6,0.9-0.9,1.6-0.9C99.5,52.5,100,53.3,100,54.5z"/>
	<path d="M101.3,55.1c0-1.5,0.9-2.5,2.4-2.5c1.4,0,2.4,1.1,2.4,2.5c0,1.4-1,2.5-2.4,2.5S101.3,56.5,101.3,55.1z M105.3,55.1
		c0-1.1-0.6-1.9-1.7-1.9c-1.1,0-1.7,0.8-1.7,1.9c0,1.1,0.6,1.9,1.7,1.9C104.7,57,105.3,56.2,105.3,55.1z"/>
	<path d="M106.5,52.6h0.8l1.5,4l1.6-4h0.8l-2,4.9h-0.6L106.5,52.6z"/>
	<path d="M112.2,50.6h0.8v1h-0.8V50.6z M112.3,52.6h0.7v4.9h-0.7V52.6z"/>
	<path d="M121.5,54.5v3.1h-0.7v-2.9c0-0.4,0-1.5-1.1-1.5c-1,0-1.3,0.9-1.3,2v2.4h-0.7v-2.8c0-0.8-0.2-1.5-1.1-1.5
		c-1,0-1.2,0.9-1.2,2v2.4h-0.7l0-4.9h0.7v0.6c0.3-0.5,0.8-0.7,1.4-0.7c0.7,0,1.2,0.3,1.4,0.9c0.3-0.6,0.9-0.9,1.6-0.9
		C121.1,52.5,121.5,53.3,121.5,54.5z"/>
	<path d="M127.1,55.3h-3.6c0,1.1,0.6,1.7,1.6,1.7c0.5,0,1-0.1,1.4-0.6l0.5,0.4c-0.6,0.6-1.1,0.8-1.9,0.8c-1.5,0-2.3-1.1-2.3-2.5
		c0-1.4,0.8-2.6,2.2-2.6c1.5,0,2.1,1.2,2.1,2.3C127.2,55,127.2,55.1,127.1,55.3z M123.5,54.7h3c0,0,0-0.1,0-0.2
		c0-0.8-0.6-1.4-1.5-1.4C124.1,53.1,123.6,53.8,123.5,54.7z"/>
	<path d="M132.5,54.5v3h-0.7v-2.8c0-1.1-0.3-1.5-1.1-1.5c-0.9,0-1.5,0.8-1.5,2.2v2.2h-0.7v-4.9h0.7v0.7c0.3-0.5,0.9-0.8,1.6-0.8
		C131.9,52.5,132.5,53.2,132.5,54.5z"/>
	<path d="M136.2,57.5c-0.3,0.1-0.5,0.1-0.7,0.1c-0.7,0-1.1-0.4-1.1-1.2v-3.2h-0.8v-0.6h0.8v-1.4l0.7-0.5v1.9h1.2v0.6H135v3.1
		c0,0.5,0.2,0.7,0.6,0.7c0.2,0,0.4,0,0.6-0.1L136.2,57.5z"/>
	<path d="M137.1,55.1c0-1.5,0.9-2.5,2.4-2.5c1.4,0,2.4,1.1,2.4,2.5c0,1.4-1,2.5-2.4,2.5S137.1,56.5,137.1,55.1z M141.1,55.1
		c0-1.1-0.6-1.9-1.7-1.9c-1.1,0-1.7,0.8-1.7,1.9c0,1.1,0.6,1.9,1.7,1.9C140.5,57,141.1,56.2,141.1,55.1z"/>
</g>
<line id="Linea_1459" class="st1" x1="252.8" y1="47.2" x2="291.5" y2="47.2"/>
<g id="Raggruppa_4797" transform="translate(187.583 561.695) rotate(-169)">
	<path id="Tracciato_109126" d="M30.4,515.7l-0.3,0.6l3.2,1.6l-2,3.1l0.6,0.4l2.3-3.8L30.4,515.7z"/>
</g>
<g class="st0">
	<path d="M262.4,20.7h-2.9l-0.7,1.9h-0.8l2.6-7h0.6l2.6,7h-0.8L262.4,20.7z M262.2,20.1l-1.2-3.5l-1.2,3.5H262.2z"/>
	<path d="M264.1,17.7h0.8l1.5,4l1.6-4h0.8l-2,4.9h-0.6L264.1,17.7z"/>
	<path d="M273.5,19.5v3.1h-0.6l0-0.8c-0.4,0.5-1,0.8-1.8,0.8c-1.1,0-1.7-0.6-1.7-1.5c0-0.5,0.2-0.9,0.6-1.1c0.4-0.2,0.9-0.3,1.9-0.3
		h1v-0.2c0-0.9-0.4-1.3-1.3-1.3c-0.6,0-1.1,0.3-1.5,0.8l-0.5-0.4c0.5-0.7,1.2-1,2-1C272.8,17.6,273.5,18.3,273.5,19.5z M272.8,20.4
		L272.8,20.4l-0.9-0.1c-0.9,0-1.3,0.1-1.5,0.2c-0.2,0.1-0.3,0.4-0.3,0.6c0,0.5,0.5,0.9,1.2,0.9C272.2,22.1,272.8,21.5,272.8,20.4z"
		/>
	<path d="M279.1,19.6v3h-0.7v-2.8c0-1.1-0.3-1.5-1.1-1.5c-0.9,0-1.5,0.8-1.5,2.2v2.2h-0.7v-4.9h0.7v0.7c0.3-0.5,0.9-0.8,1.6-0.8
		C278.5,17.6,279.1,18.3,279.1,19.6z"/>
	<path d="M282.8,22.6c-0.3,0.1-0.5,0.1-0.7,0.1c-0.7,0-1.1-0.4-1.1-1.2v-3.2h-0.8v-0.6h0.8v-1.4l0.7-0.5v1.9h1.2v0.6h-1.2v3.1
		c0,0.5,0.2,0.7,0.6,0.7c0.2,0,0.4,0,0.6-0.1L282.8,22.6z"/>
	<path d="M284.1,15.6h0.8v1h-0.8V15.6z M284.2,17.7h0.7v4.9h-0.7V17.7z"/>
</g>
<g class="st0">
	<path d="M257.7,52.2h0.7v7h-0.7V52.2z"/>
	<path d="M264.4,56.2v3h-0.7v-2.8c0-1.1-0.3-1.5-1.1-1.5c-0.9,0-1.5,0.8-1.5,2.2v2.2h-0.7v-4.9h0.7V55c0.3-0.5,0.9-0.8,1.6-0.8
		C263.9,54.2,264.4,54.9,264.4,56.2z"/>
	<path d="M270.2,52.2v7h-0.7v-0.7c-0.4,0.5-0.9,0.7-1.6,0.7c-1.4,0-2.2-1.1-2.2-2.5c0-1.5,0.8-2.5,2.2-2.5c0.7,0,1.3,0.3,1.6,0.8
		v-2.7H270.2z M269.6,56.7c0-1.2-0.6-1.9-1.6-1.9c-1,0-1.6,0.8-1.6,1.9c0,1.1,0.5,1.9,1.6,1.9C269,58.7,269.6,57.9,269.6,56.7z"/>
	<path d="M272,52.2h0.8v1H272V52.2z M272,54.3h0.7v4.9H272V54.3z"/>
	<path d="M278.5,56.9h-3.6c0,1.1,0.6,1.7,1.6,1.7c0.5,0,1-0.1,1.4-0.6l0.5,0.4c-0.6,0.6-1.1,0.8-1.9,0.8c-1.5,0-2.3-1.1-2.3-2.5
		c0-1.4,0.8-2.6,2.2-2.6c1.5,0,2.1,1.2,2.1,2.3C278.5,56.6,278.5,56.8,278.5,56.9z M274.8,56.3h3c0,0,0-0.1,0-0.2
		c0-0.8-0.6-1.4-1.5-1.4C275.5,54.8,274.9,55.5,274.8,56.3z"/>
	<path d="M281.9,59.2c-0.3,0.1-0.5,0.1-0.8,0.1c-0.7,0-1.1-0.4-1.1-1.2v-3.2h-0.8v-0.6h0.8v-1.4l0.7-0.5v1.9h1.2v0.6h-1.2V58
		c0,0.5,0.2,0.7,0.6,0.7c0.2,0,0.4,0,0.6-0.1L281.9,59.2z"/>
	<path d="M286.1,54.4l-0.3,0.6c-0.2-0.1-0.4-0.2-0.6-0.2c-0.8,0-1.3,0.6-1.3,1.6v2.7h-0.7v-4.9h0.7V55c0.4-0.6,1-0.8,1.5-0.8
		C285.6,54.2,285.9,54.3,286.1,54.4z"/>
	<path d="M286.3,56.7c0-1.5,1-2.5,2.4-2.5c1.4,0,2.4,1.1,2.4,2.5c0,1.4-1,2.5-2.4,2.5S286.3,58.2,286.3,56.7z M290.3,56.7
		c0-1.1-0.6-1.9-1.7-1.9c-1.1,0-1.7,0.8-1.7,1.9c0,1.1,0.6,1.9,1.7,1.9C289.7,58.7,290.3,57.8,290.3,56.7z"/>
</g>
<line id="Linea_1459-2" class="st1" x1="293.3" y1="10.1" x2="254.6" y2="10.1"/>
<g id="Raggruppa_4797-2" transform="translate(187.583 561.695) rotate(-169)">
	<path id="Tracciato_109126-2" d="M5.2,563.5l0.4-0.6l-3.2-1.6l1.9-3.1l-0.6-0.4l-2.3,3.8L5.2,563.5z"/>
</g>
<g id="Livello_1_1_" class="st2">
</g>
<g id="Group-4_2_" transform="translate(0.249 0)">
	<path id="Path-7_2_" class="st3" d="M180.2,33.2V12.6"/>
</g>
<g id="Group-4_1_" transform="translate(0.249 0)">
	<path id="Path-7_1_" class="st3" d="M0.6,33.4V12.8"/>
</g>
<g id="Group-4" transform="translate(0.249 0)">
	<path id="Path-7" class="st3" d="M62.2,33.1V12.5"/>
</g>
<path id="Path" class="st4" d="M62.4,33.2L0.6,33.3"/>
<polygon id="Rectangle" class="st5" points="61.8,31.5 63.2,31.5 63.2,34.8 61.8,34.8 "/>
<rect id="Rectangle-2" x="0.4" y="31.7" transform="matrix(1 -3.109985e-03 3.109985e-03 1 -0.1037 2.960639e-03)" class="st5" width="1" height="3.3"/>
<path id="Path-2" class="st6" d="M180.9,33.1L63.2,33.2"/>
<rect id="Rectangle-2_1_" x="179.9" y="31.4" transform="matrix(1 -3.109985e-03 3.109985e-03 1 -0.1019 0.5612)" class="st5" width="1" height="3.3"/>
</svg>
