<?xml version="1.0" encoding="utf-8"?>
<!-- Generator: Adobe Illustrator 24.3.0, SVG Export Plug-In . SVG Version: 6.00 Build 0)  -->
<svg version="1.1" id="Layer_1" xmlns="http://www.w3.org/2000/svg" xmlns:xlink="http://www.w3.org/1999/xlink" x="0px" y="0px"
	 viewBox="0 0 288.9 90.9" style="enable-background:new 0 0 288.9 90.9;" xml:space="preserve">
<style type="text/css">
	.st0{fill:none;stroke:#444444;stroke-width:0.5;stroke-dasharray:2.114,2.114;}
	.st1{fill:none;stroke:#777777;stroke-width:2;stroke-linecap:round;}
	.st2{fill:none;stroke:#444444;stroke-width:3;}
	.st3{fill:#FFFFFF;}
	.st4{fill:none;stroke:#444444;stroke-width:0.25;stroke-dasharray:2.114,2.114;}
	.st5{fill:url(#Tracciato_109340_1_);}
	.st6{fill:none;stroke:#000000;stroke-width:0.5;stroke-dasharray:2,2;}
	.st7{fill:none;stroke:#000000;stroke-width:0.5;stroke-miterlimit:10;}
	.st8{font-family:'HKGrotesk-Regular';}
	.st9{font-size:10px;}
	.st10{fill:#888888;}
	.st11{fill:#C6CACF;}
	.st12{fill:none;stroke:#000000;stroke-width:0.5;}
	.st13{fill:none;stroke:#FFFFFF;stroke-width:0.5;}
	.st14{fill:none;stroke:#000000;stroke-width:0.5;stroke-miterlimit:10;stroke-dasharray:2;}
</style>
<g id="Raggruppa_22303" transform="translate(-19.707 -185.082)">
	<line id="Linea_666" class="st0" x1="82.4" y1="192.2" x2="54.5" y2="192.5"/>
	<line id="Linea_645" class="st1" x1="97.2" y1="198.3" x2="70.6" y2="261.4"/>
	<line id="Linea_646" class="st1" x1="106.3" y1="203.9" x2="61.5" y2="255.7"/>
	<line id="Linea_647" class="st1" x1="113.2" y1="212.1" x2="54.6" y2="247.6"/>
	<line id="Linea_648" class="st1" x1="117.2" y1="222" x2="50.5" y2="237.6"/>
	<line id="Linea_649" class="st1" x1="118" y1="232.7" x2="49.7" y2="226.9"/>
	<line id="Linea_650" class="st1" x1="115.4" y1="243.1" x2="52.3" y2="216.5"/>
	<line id="Linea_651" class="st1" x1="109.8" y1="252.2" x2="58" y2="207.4"/>
	<line id="Linea_652" class="st1" x1="101.6" y1="259.1" x2="66.1" y2="200.5"/>
	<line id="Linea_653" class="st1" x1="91.7" y1="263.2" x2="76.1" y2="196.5"/>
	<line id="Linea_654" class="st1" x1="81" y1="264" x2="83.9" y2="229.8"/>
	<line id="Linea_655" class="st1" x1="91.7" y1="196.5" x2="75.7" y2="263.1"/>
	<line id="Linea_656" class="st1" x1="101.6" y1="200.6" x2="65.8" y2="259"/>
	<line id="Linea_657" class="st1" x1="109.8" y1="207.6" x2="57.7" y2="252.1"/>
	<line id="Linea_658" class="st1" x1="115.4" y1="216.7" x2="52.1" y2="242.9"/>
	<line id="Linea_659" class="st1" x1="117.9" y1="227.2" x2="49.6" y2="232.5"/>
	<line id="Linea_660" class="st1" x1="117" y1="237.8" x2="50.4" y2="221.8"/>
	<line id="Linea_661" class="st1" x1="112.9" y1="247.7" x2="54.5" y2="211.9"/>
	<line id="Linea_662" class="st1" x1="106" y1="255.9" x2="61.5" y2="203.8"/>
	<line id="Linea_663" class="st1" x1="96.8" y1="261.5" x2="70.6" y2="198.2"/>
	<line id="Linea_664" class="st1" x1="86.4" y1="264" x2="83.7" y2="229.8"/>
	<line id="Linea_665" class="st2" x1="83.9" y1="229.6" x2="83.9" y2="185.5"/>
	<ellipse id="Ellisse_20399" class="st3" cx="83.9" cy="229.6" rx="20.5" ry="20.5"/>
	<line id="Linea_667" class="st4" x1="82.4" y1="208.8" x2="70.6" y2="208.8"/>
	
		<linearGradient id="Tracciato_109340_1_" gradientUnits="userSpaceOnUse" x1="-418.9052" y1="646.9183" x2="-418.9052" y2="645.9183" gradientTransform="matrix(37.938 0 0 -74.2064 15956.4941 48199.293)">
		<stop  offset="0" style="stop-color:#FFFFFF;stop-opacity:0"/>
		<stop  offset="0" style="stop-color:#FFFFFF"/>
		<stop  offset="0.764" style="stop-color:#FFFFFF;stop-opacity:0.965"/>
		<stop  offset="1" style="stop-color:#FFFFFF;stop-opacity:0"/>
	</linearGradient>
	<path id="Tracciato_109340" class="st5" d="M83,268c-20.9,0-37.9-16.7-37.9-37.1c0-20.5,16.6-37.1,37.1-37.1c0.1,0,0.2,0,0.3,0
		v15.5l0.5,3.2c-10.1-0.2-18.5,7.8-18.8,18s7.8,18.5,18,18.8c0.3,0,0.5,0,0.8,0V268z"/>
	<path id="Tracciato_147338" class="st6" d="M81.4,207.6c-22,0-20.8,16.8-36.3,16.7"/>
	<path id="Tracciato_109125" class="st7" d="M103.6,191.9c3.3,1.3,6.3,3.1,9,5.3c7.5,6.1,11.6,14.3,11.5,21.4"/>
	<path id="Tracciato_109126" d="M127.3,215.9l-0.5-0.5l-2.4,2.4l-2.2-2.6l-0.5,0.4l2.7,3.2L127.3,215.9z"/>
	<text transform="matrix(1 0 0 1 19.707 195.082)" class="st8 st9">fine del </text>
	<text transform="matrix(1 0 0 1 19.707 208.082)" class="st8 st9">testo</text>
	<text transform="matrix(1 0 0 1 19.707 229.479)" class="st8 st9">inizio </text>
	<text transform="matrix(1 0 0 1 19.707 242.479)" class="st8 st9">del </text>
	<text transform="matrix(1 0 0 1 19.707 255.479)" class="st8 st9">testo</text>
	<text transform="matrix(1 0 0 1 128.563 197)" class="st8 st9">Testi di lunghezza normalizzata disposti </text>
	<text transform="matrix(1 0 0 1 128.563 210)" class="st8 st9">secondo data di prima pubblicazione</text>
	<text transform="matrix(1 0 0 1 121.258 259)" class="st8 st9">Singolo </text>
	<text transform="matrix(1 0 0 1 121.258 272)" class="st8 st9">racconto</text>
	<text transform="matrix(1 0 0 1 206.563 271)" class="st8 st9">ambientazione</text>
	<path id="Rettangolo_16527" class="st10" d="M171,240h40c1.7,0,3,1.3,3,3v3c0,1.7-1.3,3-3,3h-40c-1.7,0-3-1.3-3-3v-3
		C168,241.3,169.3,240,171,240z"/>
	<path id="Rettangolo_16528" class="st11" d="M211,240h56c1.7,0,3,1.3,3,3v3c0,1.7-1.3,3-3,3h-56c-1.7,0-3-1.3-3-3v-3
		C208,241.3,209.3,240,211,240z"/>
	<path id="Rettangolo_16529" class="st10" d="M267,240h36c1.7,0,3,1.3,3,3v3c0,1.7-1.3,3-3,3h-36c-1.7,0-3-1.3-3-3v-3
		C264,241.3,265.3,240,267,240z"/>
	<line id="Linea_2516" class="st12" x1="239" y1="246.6" x2="239" y2="262.5"/>
	<path id="Tracciato_124417" class="st12" d="M203,245c0,11.5,36,8.3,35.9,14.3"/>
	<path id="Tracciato_147339" class="st12" d="M295,245c0,11.5-56.1,8.3-56,14.3"/>
	<g id="Ellisse_20527" transform="translate(237 243)">
		<circle cx="2" cy="2" r="2"/>
		<circle class="st13" cx="2" cy="2" r="1.8"/>
	</g>
	<g id="Ellisse_20528" transform="translate(293 243)">
		<circle cx="2" cy="2" r="2"/>
		<circle class="st13" cx="2" cy="2" r="1.8"/>
	</g>
	<g id="Ellisse_20529" transform="translate(201 243)">
		<circle cx="2" cy="2" r="2"/>
		<circle class="st13" cx="2" cy="2" r="1.8"/>
	</g>
	<path id="Tracciato_109125-2" class="st14" d="M163.3,243.9c-4.4-0.2-46.3-0.7-46.2-1"/>
	<path id="Tracciato_109126-2" d="M161.1,240.5l-0.5,0.5l2.7,2.6l-2.9,2.1l0.5,0.5l3.4-2.6L161.1,240.5z"/>
</g>
</svg>
