<svg id="Layer_1" data-name="Layer 1" xmlns="http://www.w3.org/2000/svg" xmlns:xlink="http://www.w3.org/1999/xlink" viewBox="0 0 130.645 88.43091">
  <g id="realismo">
    <g>
      <g>
        <path d="M105.142,4.51161a10.3167,10.3167,0,0,0-17.438,1.782,10.24256,10.24256,0,0,0-7.178,5.562,10.24344,10.24344,0,0,0-7.177,5.562,10.24718,10.24718,0,0,0-7.178,5.563,10.23342,10.23342,0,0,0-7.177,5.561,10.24721,10.24721,0,0,0-7.178,5.563,10.23814,10.23814,0,0,0-7.177,5.562,10.24248,10.24248,0,0,0-7.178,5.562,10.23814,10.23814,0,0,0-7.177,5.562,10.24191,10.24191,0,0,0-7.178,5.563,10.23342,10.23342,0,0,0-7.177,5.561,10.24191,10.24191,0,0,0-7.178,5.563,10.33453,10.33453,0,1,0,11.361,14.66,10.24135,10.24135,0,0,0,7.177-5.563,10.24253,10.24253,0,0,0,7.178-5.562,10.23661,10.23661,0,0,0,7.177-5.562,10.24248,10.24248,0,0,0,7.178-5.562,10.236,10.236,0,0,0,7.177-5.563,10.23775,10.23775,0,0,0,7.178-5.561,10.24139,10.24139,0,0,0,7.177-5.563,10.24253,10.24253,0,0,0,7.178-5.562,10.23127,10.23127,0,0,0,7.177-5.562,10.24243,10.24243,0,0,0,7.178-5.562,10.24567,10.24567,0,0,0,7.178-5.563,10.316,10.316,0,0,0,6.077-16.441" fill="#fffffa"/>
        <path d="M105.142,4.51161a10.3167,10.3167,0,0,0-17.438,1.782,10.24256,10.24256,0,0,0-7.178,5.562,10.24344,10.24344,0,0,0-7.177,5.562,10.24718,10.24718,0,0,0-7.178,5.563,10.23342,10.23342,0,0,0-7.177,5.561,10.24721,10.24721,0,0,0-7.178,5.563,10.23814,10.23814,0,0,0-7.177,5.562,10.24248,10.24248,0,0,0-7.178,5.562,10.23814,10.23814,0,0,0-7.177,5.562,10.24191,10.24191,0,0,0-7.178,5.563,10.23342,10.23342,0,0,0-7.177,5.561,10.24191,10.24191,0,0,0-7.178,5.563,10.33453,10.33453,0,1,0,11.361,14.66,10.24135,10.24135,0,0,0,7.177-5.563,10.24253,10.24253,0,0,0,7.178-5.562,10.23661,10.23661,0,0,0,7.177-5.562,10.24248,10.24248,0,0,0,7.178-5.562,10.236,10.236,0,0,0,7.177-5.563,10.23775,10.23775,0,0,0,7.178-5.561,10.24139,10.24139,0,0,0,7.177-5.563,10.24253,10.24253,0,0,0,7.178-5.562,10.23127,10.23127,0,0,0,7.177-5.562,10.24243,10.24243,0,0,0,7.178-5.562,10.24567,10.24567,0,0,0,7.178-5.563,10.316,10.316,0,0,0,6.077-16.441Z" fill="none" stroke="#5151fc" stroke-miterlimit="10" stroke-width="1.014"/>
        <path d="M123.3568,37.91681a10.31742,10.31742,0,0,0-17.112-3.8,10.24207,10.24207,0,0,0-8.564,3.02,10.24543,10.24543,0,0,0-8.564,3.019,10.24206,10.24206,0,0,0-8.564,3.02,10.24486,10.24486,0,0,0-8.563,3.019,10.24206,10.24206,0,0,0-8.564,3.02,10.24544,10.24544,0,0,0-8.564,3.019,10.23727,10.23727,0,0,0-8.564,3.019,10.33446,10.33446,0,1,0,6.167,17.492,10.24546,10.24546,0,0,0,8.564-3.019,10.24206,10.24206,0,0,0,8.564-3.02,10.2483,10.2483,0,0,0,8.564-3.019,10.23864,10.23864,0,0,0,8.563-3.02,10.242,10.242,0,0,0,8.564-3.02,10.23727,10.23727,0,0,0,8.564-3.019,10.24544,10.24544,0,0,0,8.564-3.019,10.31645,10.31645,0,0,0,10.945-13.692" fill="#fffffa"/>
        <path d="M123.3568,37.91681a10.31742,10.31742,0,0,0-17.112-3.8,10.24207,10.24207,0,0,0-8.564,3.02,10.24543,10.24543,0,0,0-8.564,3.019,10.24206,10.24206,0,0,0-8.564,3.02,10.24486,10.24486,0,0,0-8.563,3.019,10.24206,10.24206,0,0,0-8.564,3.02,10.24544,10.24544,0,0,0-8.564,3.019,10.23727,10.23727,0,0,0-8.564,3.019,10.33446,10.33446,0,1,0,6.167,17.492,10.24546,10.24546,0,0,0,8.564-3.019,10.24206,10.24206,0,0,0,8.564-3.02,10.2483,10.2483,0,0,0,8.564-3.019,10.23864,10.23864,0,0,0,8.563-3.02,10.242,10.242,0,0,0,8.564-3.02,10.23727,10.23727,0,0,0,8.564-3.019,10.24544,10.24544,0,0,0,8.564-3.019,10.31645,10.31645,0,0,0,10.945-13.692Z" fill="none" stroke="#5151fc" stroke-miterlimit="10" stroke-width="1.014"/>
        <path d="M46.2826,65.09161a10.31642,10.31642,0,0,0-17.112-3.8,10.24206,10.24206,0,0,0-8.564,3.02,10.24543,10.24543,0,0,0-8.564,3.019,10.33478,10.33478,0,1,0,6.168,17.491,10.23382,10.23382,0,0,0,8.563-3.019,10.24206,10.24206,0,0,0,8.564-3.02,10.31563,10.31563,0,0,0,10.945-13.691" fill="#fffffa"/>
        <path d="M46.2826,65.09161a10.31642,10.31642,0,0,0-17.112-3.8,10.24206,10.24206,0,0,0-8.564,3.02,10.24543,10.24543,0,0,0-8.564,3.019,10.33478,10.33478,0,1,0,6.168,17.491,10.23382,10.23382,0,0,0,8.563-3.019,10.24206,10.24206,0,0,0,8.564-3.02,10.31563,10.31563,0,0,0,10.945-13.691Z" fill="none" stroke="#5151fc" stroke-miterlimit="10" stroke-width="1.014"/>
        <path d="M130.138,76.56921a10.31758,10.31758,0,0,0-14.954-9.146,10.23553,10.23553,0,0,0-9.08.078,10.23983,10.23983,0,0,0-9.08.077,10.33423,10.33423,0,1,0,.158,18.547,10.2441,10.2441,0,0,0,9.08-.078,10.2441,10.2441,0,0,0,9.08-.078,10.317,10.317,0,0,0,14.796-9.4" fill="#fffffa"/>
        <path d="M130.138,76.56921a10.31758,10.31758,0,0,0-14.954-9.146,10.23553,10.23553,0,0,0-9.08.078,10.23983,10.23983,0,0,0-9.08.077,10.33423,10.33423,0,1,0,.158,18.547,10.2441,10.2441,0,0,0,9.08-.078,10.2441,10.2441,0,0,0,9.08-.078,10.317,10.317,0,0,0,14.796-9.4Z" fill="none" stroke="#5151fc" stroke-miterlimit="10" stroke-width="1.014"/>
        <path d="M93.8168,76.87971a10.31677,10.31677,0,0,0-14.953-9.146,10.23553,10.23553,0,0,0-9.08.078,10.23546,10.23546,0,0,0-9.08.078,10.23329,10.23329,0,0,0-9.081.077,10.33448,10.33448,0,1,0,.159,18.546,10.24849,10.24849,0,0,0,9.08-.077,10.24418,10.24418,0,0,0,9.08-.078,10.2441,10.2441,0,0,0,9.08-.078,10.31617,10.31617,0,0,0,14.795-9.4" fill="#fffffa"/>
        <path d="M93.8168,76.87971a10.31677,10.31677,0,0,0-14.953-9.146,10.23553,10.23553,0,0,0-9.08.078,10.23546,10.23546,0,0,0-9.08.078,10.23329,10.23329,0,0,0-9.081.077,10.33448,10.33448,0,1,0,.159,18.546,10.24849,10.24849,0,0,0,9.08-.077,10.24418,10.24418,0,0,0,9.08-.078,10.2441,10.2441,0,0,0,9.08-.078,10.31617,10.31617,0,0,0,14.795-9.4Z" fill="none" stroke="#5151fc" stroke-miterlimit="10" stroke-width="1.014"/>
        <path d="M48.4169,77.26741a10.31758,10.31758,0,0,0-14.954-9.146,10.23987,10.23987,0,0,0-9.08.079,10.2312,10.2312,0,0,0-9.08.077,10.33472,10.33472,0,1,0,.158,18.546,10.25059,10.25059,0,0,0,9.081-.077,10.23994,10.23994,0,0,0,9.08-.079,10.31619,10.31619,0,0,0,14.795-9.4" fill="#fffffa"/>
        <path d="M48.4169,77.26741a10.31758,10.31758,0,0,0-14.954-9.146,10.23987,10.23987,0,0,0-9.08.079,10.2312,10.2312,0,0,0-9.08.077,10.33472,10.33472,0,1,0,.158,18.546,10.25059,10.25059,0,0,0,9.081-.077,10.23994,10.23994,0,0,0,9.08-.079,10.31619,10.31619,0,0,0,14.795-9.4Z" fill="none" stroke="#5151fc" stroke-miterlimit="10" stroke-width="1.014"/>
      </g>
    </g>
  </g>
</svg>
