<?xml version="1.0" encoding="utf-8"?>
<!-- Generator: Adobe Illustrator 25.1.0, SVG Export Plug-In . SVG Version: 6.00 Build 0)  -->
<svg version="1.1" id="Livello_1" xmlns="http://www.w3.org/2000/svg" xmlns:xlink="http://www.w3.org/1999/xlink" x="0px" y="0px"
	 viewBox="0 0 938 105.29" enable-background="new 0 0 938 105.29" xml:space="preserve">
<g>
	<defs>
		<rect id="SVGID_1_" y="0" width="938" height="105.29"/>
	</defs>
	<clipPath id="SVGID_2_">
		<use xlink:href="#SVGID_1_"  overflow="visible"/>
	</clipPath>
	<g id="Legend02" clip-path="url(#SVGID_2_)">
		<g id="legend" transform="translate(0.2 137.196)">
			<g id="Raggruppa_24470">
				<g enable-background="new    ">
					<path fill="#5151FC" d="M237.92354-120.36086h4.6377v1.14941h-3.38818v1.6582h3.14844v1.14941h-3.14844v1.85938h3.38818
						v1.14941h-4.6377V-120.36086z"/>
					<path fill="#5151FC" d="M244.02315-120.36086h1.24951v5.81641h2.97852v1.14941h-4.22803V-120.36086z"/>
					<path fill="#5151FC" d="M249.22334-120.36086h4.6377v1.14941h-3.38818v1.6582h3.14844v1.14941h-3.14844v1.85938h3.38818
						v1.14941h-4.6377V-120.36086z"/>
					<path fill="#5151FC" d="M262.48895-120.36086v6.96582h-1.24902v-5.20703l-1.729,4.59766h-1.20947l-1.729-4.59766v5.20703
						h-1.2495v-6.96582h1.78905l1.78906,4.90723l1.79883-4.90723H262.48895z"/>
					<path fill="#5151FC" d="M264.25311-120.36086h4.6377v1.14941h-3.38818v1.6582h3.14795v1.14941h-3.14795v1.85938h3.38818
						v1.14941h-4.6377V-120.36086z"/>
					<path fill="#5151FC" d="M275.82001-120.36086v6.96582h-1.29932l-2.91846-4.81738v4.81738h-1.24951v-6.96582h1.28955
						l2.92822,4.79688v-4.79688H275.82001z"/>
					<path fill="#5151FC" d="M278.9621-119.21144h-2.17871v-1.14941h5.6167v1.14941h-2.17871v5.81641h-1.25928V-119.21144z"/>
					<path fill="#5151FC" d="M282.69305-115.36378l1.23926-0.30957c0.08984,0.8291,0.63965,1.29883,1.44922,1.29883
						c0.69971,0,1.14941-0.34961,1.14941-0.93945c0-0.47949-0.35986-0.7793-1.38916-1.18945
						c-1.45947-0.56934-1.979-1.09961-1.979-2.1084c0-1.12988,0.86963-1.89941,2.16895-1.89941
						c0.93945,0,1.67871,0.42969,2.11865,1.26953l-1.03955,0.63965c-0.23975-0.51953-0.64941-0.7998-1.11914-0.7998
						c-0.5,0-0.87988,0.33008-0.87988,0.75977c0,0.45996,0.33984,0.71973,1.38965,1.12891
						c1.48877,0.57031,1.97852,1.09961,1.97852,2.08887c0,1.2998-0.98926,2.15918-2.41846,2.15918
						C283.97235-113.26515,282.89276-114.09425,282.69305-115.36378z"/>
					<path fill="#5151FC" d="M290.883-116.87355c0-2.18848,1.34961-3.6377,3.32812-3.6377c1.98926,0,3.32812,1.44922,3.32812,3.6377
						c0,2.17969-1.34912,3.62891-3.32812,3.62891C292.2326-113.24464,290.883-114.69386,290.883-116.87355z M296.29022-116.87355
						c0-1.50879-0.80957-2.44824-2.0791-2.44824c-1.26904,0-2.07861,0.92969-2.07861,2.44824
						c0,1.50977,0.80957,2.43945,2.07861,2.43945C295.48065-114.4341,296.29022-115.37355,296.29022-116.87355z"/>
					<path fill="#5151FC" d="M298.81268-120.36086h4.9375v1.14941h-3.68799v1.6582h3.24805v1.14941h-3.24805v3.00879h-1.24951
						V-120.36086z"/>
					<path fill="#5151FC" d="M308.67206-119.21144h-2.17871v-1.14941h5.6167v1.14941h-2.17871v5.81641h-1.25928V-119.21144z"/>
					<path fill="#5151FC" d="M316.86053-113.39503l-1.66895-2.88867h-0.41992h-0.45996v2.88867h-1.23926v-6.96582h2.27881
						c1.65918,0,2.36865,0.75879,2.36865,2.00879c0,0.99902-0.45947,1.63867-1.28906,1.91895l1.87891,3.03809H316.86053z
						 M315.22137-117.43312c0.80957,0,1.24951-0.21973,1.24951-0.89941s-0.43994-0.87891-1.24951-0.87891h-0.90967v1.77832
						H315.22137z"/>
					<path fill="#5151FC" d="M323.04999-114.83449h-2.72852l-0.5293,1.43945h-1.35938l2.78857-6.96582h0.93945l2.77832,6.96582
						h-1.35938L323.04999-114.83449z M322.63055-115.9839l-0.93945-2.53809l-0.93945,2.53809H322.63055z"/>
					<path fill="#5151FC" d="M331.32928-120.36086v6.96582h-1.29932l-2.91846-4.81738v4.81738H325.862v-6.96582h1.28955
						l2.92822,4.79688v-4.79688H331.32928z"/>
					<path fill="#5151FC" d="M332.42255-115.36378l1.23926-0.30957c0.08984,0.8291,0.63965,1.29883,1.44922,1.29883
						c0.69971,0,1.14941-0.34961,1.14941-0.93945c0-0.47949-0.35986-0.7793-1.38916-1.18945
						c-1.45947-0.56934-1.979-1.09961-1.979-2.1084c0-1.12988,0.86963-1.89941,2.16895-1.89941
						c0.93945,0,1.67871,0.42969,2.11865,1.26953l-1.03955,0.63965c-0.23975-0.51953-0.64941-0.7998-1.11914-0.7998
						c-0.5,0-0.87988,0.33008-0.87988,0.75977c0,0.45996,0.33984,0.71973,1.38965,1.12891
						c1.48877,0.57031,1.97852,1.09961,1.97852,2.08887c0,1.2998-0.98926,2.15918-2.41846,2.15918
						C333.70184-113.26515,332.62225-114.09425,332.42255-115.36378z"/>
					<path fill="#5151FC" d="M338.67206-120.36086h4.9375v1.14941h-3.68799v1.6582h3.24805v1.14941h-3.24805v3.00879h-1.24951
						V-120.36086z"/>
					<path fill="#5151FC" d="M344.18231-116.87355c0-2.18848,1.34961-3.6377,3.32812-3.6377
						c1.98926,0,3.32812,1.44922,3.32812,3.6377c0,2.17969-1.34912,3.62891-3.32812,3.62891
						C345.53192-113.24464,344.18231-114.69386,344.18231-116.87355z M349.58954-116.87355
						c0-1.50879-0.80957-2.44824-2.0791-2.44824c-1.26904,0-2.07861,0.92969-2.07861,2.44824
						c0,1.50977,0.80957,2.43945,2.07861,2.43945C348.77997-114.4341,349.58954-115.37355,349.58954-116.87355z"/>
					<path fill="#5151FC" d="M355.90009-113.39503l-1.66895-2.88867h-0.41992h-0.45996v2.88867H352.112v-6.96582h2.27881
						c1.65918,0,2.36865,0.75879,2.36865,2.00879c0,0.99902-0.45947,1.63867-1.28906,1.91895l1.87891,3.03809H355.90009z
						 M354.26093-117.43312c0.80957,0,1.24951-0.21973,1.24951-0.89941s-0.43994-0.87891-1.24951-0.87891h-0.90967v1.77832
						H354.26093z"/>
					<path fill="#5151FC" d="M365.49823-120.36086v6.96582h-1.24902v-5.20703l-1.729,4.59766h-1.20947l-1.729-4.59766v5.20703
						h-1.24951v-6.96582h1.78906l1.78906,4.90723l1.79883-4.90723H365.49823z"/>
					<path fill="#5151FC" d="M371.03973-114.83449h-2.72852l-0.5293,1.43945h-1.35938l2.78857-6.96582h0.93945l2.77832,6.96582
						h-1.35938L371.03973-114.83449z M370.6203-115.9839l-0.93945-2.53809l-0.93945,2.53809H370.6203z"/>
					<path fill="#5151FC" d="M374.57147-119.21144h-2.17871v-1.14941h5.6167v1.14941h-2.17871v5.81641h-1.25928V-119.21144z"/>
					<path fill="#5151FC" d="M378.97186-120.36086h1.24951v6.96582h-1.24951V-120.36086z"/>
					<path fill="#5151FC" d="M381.49188-116.87355c0-2.18848,1.34961-3.6377,3.32812-3.6377
						c1.98926,0,3.32812,1.44922,3.32812,3.6377c0,2.17969-1.34912,3.62891-3.32812,3.62891
						C382.84149-113.24464,381.49188-114.69386,381.49188-116.87355z M386.89911-116.87355
						c0-1.50879-0.80957-2.44824-2.0791-2.44824c-1.26904,0-2.07861,0.92969-2.07861,2.44824
						c0,1.50977,0.80957,2.43945,2.07861,2.43945C386.08954-114.4341,386.89911-115.37355,386.89911-116.87355z"/>
					<path fill="#5151FC" d="M394.88885-120.36086v6.96582h-1.29932l-2.91846-4.81738v4.81738h-1.24951v-6.96582h1.28955
						l2.92822,4.79688v-4.79688H394.88885z"/>
					<path fill="#5151FC" d="M398.59198-116.87355c0-2.18848,1.34961-3.6377,3.32812-3.6377
						c1.98926,0,3.32812,1.44922,3.32812,3.6377c0,2.17969-1.34912,3.62891-3.32812,3.62891
						C399.94159-113.24464,398.59198-114.69386,398.59198-116.87355z M403.99921-116.87355
						c0-1.50879-0.80957-2.44824-2.0791-2.44824c-1.26904,0-2.07861,0.92969-2.07861,2.44824
						c0,1.50977,0.80957,2.43945,2.07861,2.43945C403.18964-114.4341,403.99921-115.37355,403.99921-116.87355z"/>
					<path fill="#5151FC" d="M406.52118-120.36086h4.9375v1.14941h-3.68799v1.6582h3.24805v1.14941h-3.24805v3.00879h-1.24951
						V-120.36086z"/>
					<path fill="#5151FC" d="M418.78925-113.39503l-1.66895-2.88867h-0.41992h-0.45996v2.88867h-1.23926v-6.96582h2.27881
						c1.65918,0,2.36865,0.75879,2.36865,2.00879c0,0.99902-0.45947,1.63867-1.28906,1.91895l1.87891,3.03809H418.78925z
						 M417.15009-117.43312c0.80957,0,1.24951-0.21973,1.24951-0.89941s-0.43994-0.87891-1.24951-0.87891h-0.90967v1.77832
						H417.15009z"/>
					<path fill="#5151FC" d="M421.22137-120.36086h4.6377v1.14941h-3.38818v1.6582h3.14844v1.14941h-3.14844v1.85938h3.38818
						v1.14941h-4.6377V-120.36086z"/>
					<path fill="#5151FC" d="M431.09882-114.83449h-2.72852l-0.5293,1.43945h-1.35938l2.78857-6.96582h0.93945l2.77832,6.96582
						h-1.35938L431.09882-114.83449z M430.67938-115.9839l-0.93945-2.53809l-0.93945,2.53809H430.67938z"/>
					<path fill="#5151FC" d="M433.91083-120.36086h1.24951v5.81641h2.97852v1.14941h-4.22803V-120.36086z"/>
					<path fill="#5151FC" d="M439.11102-120.36086h1.24951v6.96582h-1.24951V-120.36086z"/>
					<path fill="#5151FC" d="M443.50018-119.21144h-2.17871v-1.14941h5.6167v1.14941h-2.17871v5.81641h-1.25928V-119.21144z"/>
					<path fill="#5151FC" d="M449.84003-116.11378l-2.64844-4.24707h1.46875l1.7793,3.04785l1.79883-3.04785h1.47949
						l-2.62891,4.24707v2.71875h-1.24902V-116.11378z"/>
				</g>
			</g>
			<g id="Raggruppa_24471">
				<g enable-background="new    ">
					<path fill="#4500FF" d="M262.21307-101.34865h0.70947l-1.35938,6.96582h-0.70947L262.21307-101.34865z"/>
					<path fill="#4500FF" d="M270.88007-97.98048c0,0.26953-0.04004,0.40918-0.08008,0.63965l-0.56982,2.95801h-0.68945
						l0.5498-2.81836c0.04004-0.19043,0.07959-0.45996,0.07959-0.67969c0-0.47949-0.19971-0.89941-0.84912-0.89941
						c-0.97949,0-1.44922,0.95898-1.66943,2.05859l-0.45947,2.33887h-0.68994l0.56006-2.87891
						c0.04004-0.20898,0.06982-0.41895,0.06982-0.60938c0-0.5498-0.23975-0.90918-0.83936-0.90918
						c-0.98975,0-1.44922,0.94922-1.66943,2.05859l-0.45947,2.33887h-0.68994l0.94971-4.92773h0.66943l-0.11963,0.60059
						c0.39941-0.45996,0.99951-0.67969,1.51904-0.67969c0.58984,0,1.09912,0.2793,1.21924,0.94922
						c0.42969-0.64941,1.11963-0.94922,1.7793-0.94922C270.48993-99.38966,270.88007-98.8008,270.88007-97.98048z"/>
					<path fill="#4500FF" d="M276.95087-99.31056l-0.95947,4.92773h-0.67969l0.12988-0.65918
						c-0.42969,0.47949-1.08936,0.73926-1.75928,0.73926c-1.21924,0-1.86865-0.79004-1.86865-1.95898
						c0-1.56934,1.15918-3.12793,2.73828-3.12793c0.70996,0,1.28955,0.31934,1.56934,0.80957l0.13965-0.73047H276.95087z
						 M274.60223-98.76076c-1.24951,0-2.10889,1.26953-2.10889,2.42871c0,0.85938,0.46973,1.38965,1.28906,1.38965
						c1.11963,0,1.96924-1,2.09912-2.16895C275.99139-98.1006,275.51141-98.76076,274.60223-98.76076z"/>
					<path fill="#4500FF" d="M278.28339-95.60255c0,1.05957,3.08838,0.18066,3.08838,1.84961
						c0,0.98926-1.0791,1.48926-2.37842,1.48926c-1.17969,0-1.93896-0.41016-1.93896-1.23926
						c0-0.16992,0.02979-0.33984,0.08008-0.53027l1.00928-0.64941c-0.31982-0.16016-0.53955-0.39941-0.53955-0.80957
						c0-0.49023,0.31982-0.84961,0.73926-1.09961c-0.15967-0.22949-0.25-0.5-0.25-0.81934
						c0-1.05957,0.98975-1.97852,2.19922-1.97852c0.48975,0,0.89941,0.14941,1.1792,0.40918l0.79932-0.59961l0.29004,0.4502
						l-0.78955,0.5791c0.08984,0.17969,0.12988,0.37988,0.12988,0.61035c0,1.11914-0.99951,1.97852-2.16895,1.97852
						c-0.37939,0-0.70947-0.08984-0.96924-0.24023C278.48358-96.07228,278.28339-95.87209,278.28339-95.60255z M278.62323-94.52248
						l-0.83936,0.68945c-0.02979,0.10938-0.04004,0.20996-0.04004,0.2793c0,0.5498,0.56982,0.70996,1.28955,0.70996
						c0.88916,0,1.64893-0.25,1.64893-0.80957C280.68231-94.35255,279.51288-94.30275,278.62323-94.52248z M278.77313-97.41115
						c0,0.5293,0.35986,0.87988,0.96973,0.87988c0.83936,0,1.479-0.65039,1.479-1.38965c0-0.55957-0.35986-0.88965-0.93945-0.88965
						C279.4328-98.81056,278.77313-98.12111,278.77313-97.41115z"/>
					<path fill="#4500FF" d="M283.71307-99.31056h0.68994l-0.95947,4.92773h-0.68994L283.71307-99.31056z M284.09296-101.34865
						h0.71973l-0.19971,1.01953h-0.71973L284.09296-101.34865z"/>
					<path fill="#4500FF" d="M289.72089-98.01076c0,0.26953-0.0498,0.54004-0.06982,0.63965l-0.57959,2.98828h-0.68994
						l0.56982-2.92871c0.02979-0.15918,0.06982-0.35938,0.06982-0.56934c0-0.5498-0.25977-0.89941-0.9292-0.89941
						c-1.07959,0-1.59912,0.94922-1.8291,2.14844l-0.42969,2.24902h-0.68994l0.95947-4.92773h0.68994l-0.12012,0.57031
						c0.45996-0.46973,1.07959-0.64941,1.61914-0.64941C289.23114-99.38966,289.72089-98.8506,289.72089-98.01076z"/>
					<path fill="#4500FF" d="M295.79071-99.31056l-0.95947,4.92773h-0.67969l0.12988-0.65918
						c-0.42969,0.47949-1.08936,0.73926-1.75928,0.73926c-1.21924,0-1.86865-0.79004-1.86865-1.95898
						c0-1.56934,1.15918-3.12793,2.73828-3.12793c0.70996,0,1.28955,0.31934,1.56934,0.80957l0.13965-0.73047H295.79071z
						 M293.44208-98.76076c-1.24951,0-2.10889,1.26953-2.10889,2.42871c0,0.85938,0.46973,1.38965,1.28906,1.38965
						c1.11963,0,1.96924-1,2.09912-2.16895C294.83124-98.1006,294.35126-98.76076,293.44208-98.76076z"/>
					<path fill="#4500FF" d="M300.4411-99.16994l-0.41992,0.5791c-0.11963-0.06934-0.32959-0.12988-0.57959-0.12988
						c-0.72949,0-1.49902,0.5-1.75879,1.86914l-0.46973,2.46875h-0.68994l0.95947-4.92773h0.68994l-0.14014,0.66992
						c0.43994-0.58984,1.09961-0.74902,1.5791-0.74902C299.90155-99.38966,300.18134-99.33009,300.4411-99.16994z"/>
					<path fill="#4500FF" d="M305.61053-99.31056l-4.0376,6.9668h-0.75977l1.22949-2.11914l-1.13965-4.84766h0.74951
						l0.88965,3.97852l2.29883-3.97852H305.61053z"/>
					<path fill="#4500FF" d="M308.40302-96.2422c0-1.62891,1.15967-3.14746,2.73877-3.14746
						c0.91943,0,1.55908,0.48926,1.74902,1.37891l-0.68994,0.21973c-0.08984-0.62988-0.51953-0.98926-1.10938-0.98926
						c-1.19922,0-1.99854,1.29883-1.99854,2.55859c0,0.72949,0.34961,1.30957,1.1792,1.30957
						c0.64941,0,1.22949-0.39062,1.53906-1.01953l0.58984,0.28906c-0.47998,0.86035-1.2793,1.33984-2.16895,1.33984
						C309.01288-94.30275,308.40302-95.14259,308.40302-96.2422z"/>
					<path fill="#4500FF" d="M317.86053-97.37111l-0.57959,2.98828H316.591l0.56982-2.92871
						c0.08984-0.44922,0.25977-1.46875-0.85938-1.46875c-1.08936,0-1.59912,0.94922-1.8291,2.14844l-0.42969,2.24902h-0.68994
						l1.35938-6.96582h0.68945l-0.51953,2.6084c0.45996-0.46973,1.06934-0.64941,1.60938-0.64941
						C317.63055-99.38966,318.10028-98.6006,317.86053-97.37111z"/>
					<path fill="#4500FF" d="M323.99042-99.31056l-0.95947,4.92773h-0.67969l0.12988-0.65918
						c-0.42969,0.47949-1.08936,0.73926-1.75928,0.73926c-1.21924,0-1.86865-0.79004-1.86865-1.95898
						c0-1.56934,1.15918-3.12793,2.73828-3.12793c0.70996,0,1.28955,0.31934,1.56934,0.80957l0.13965-0.73047H323.99042z
						 M321.64178-98.76076c-1.24951,0-2.10889,1.26953-2.10889,2.42871c0,0.85938,0.46973,1.38965,1.28906,1.38965
						c1.11963,0,1.96875-1,2.09912-2.16895C323.03094-98.1006,322.55096-98.76076,321.64178-98.76076z"/>
					<path fill="#4500FF" d="M328.64081-99.16994l-0.41992,0.5791c-0.11963-0.06934-0.32959-0.12988-0.57959-0.12988
						c-0.72949,0-1.49902,0.5-1.75879,1.86914l-0.46973,2.46875h-0.68994l0.95947-4.92773h0.68994l-0.14014,0.66992
						c0.43994-0.58984,1.09961-0.74902,1.5791-0.74902C328.10126-99.38966,328.38104-99.33009,328.64081-99.16994z"/>
					<path fill="#4500FF" d="M333.56024-99.31056l-0.95947,4.92773h-0.67969l0.12988-0.65918
						c-0.42969,0.47949-1.08936,0.73926-1.75928,0.73926c-1.21924,0-1.86865-0.79004-1.86865-1.95898
						c0-1.56934,1.15918-3.12793,2.73828-3.12793c0.70996,0,1.28955,0.31934,1.56934,0.80957l0.13965-0.73047H333.56024z
						 M331.21161-98.76076c-1.24951,0-2.10889,1.26953-2.10889,2.42871c0,0.85938,0.46973,1.38965,1.28906,1.38965
						c1.11963,0,1.96924-1,2.09912-2.16895C332.60077-98.1006,332.12079-98.76076,331.21161-98.76076z"/>
					<path fill="#4500FF" d="M334.29266-96.2422c0-1.62891,1.15967-3.14746,2.73877-3.14746
						c0.91943,0,1.55908,0.48926,1.74902,1.37891l-0.68994,0.21973c-0.08984-0.62988-0.51953-0.98926-1.10938-0.98926
						c-1.19922,0-1.99854,1.29883-1.99854,2.55859c0,0.72949,0.34961,1.30957,1.1792,1.30957
						c0.64941,0,1.22949-0.39062,1.53906-1.01953l0.58984,0.28906c-0.47998,0.86035-1.2793,1.33984-2.16895,1.33984
						C334.90253-94.30275,334.29266-95.14259,334.29266-96.2422z"/>
					<path fill="#4500FF" d="M340.31219-95.56252c-0.01953,0.10059-0.02979,0.2002-0.02979,0.25977
						c0,0.2998,0.16992,0.41992,0.47998,0.41992c0.15967,0,0.37939-0.04004,0.61963-0.12012l-0.07031,0.57031
						c-0.25977,0.08008-0.5293,0.12988-0.75928,0.12988c-0.56982,0-0.95947-0.28027-0.95947-0.87988
						c0-0.12988,0.02002-0.2793,0.04004-0.37988l0.61963-3.21777h-0.81982l0.10986-0.53027h0.80957l0.27002-1.37891l0.78955-0.51953
						l-0.36963,1.89844h1.18896l-0.09961,0.53027h-1.18945L340.31219-95.56252z"/>
					<path fill="#4500FF" d="M343.16229-96.63185c-0.02979,0.16016-0.0498,0.29004-0.0498,0.4502
						c0,0.78906,0.44971,1.24902,1.26904,1.24902c0.59961,0,1.0498-0.17969,1.56934-0.64941l0.41992,0.46973
						c-0.66992,0.5791-1.2793,0.80957-2.03906,0.80957c-1.2793,0-1.87891-0.7998-1.87891-1.89941
						c0-1.64844,1.11914-3.1875,2.7085-3.1875c1.2793,0,1.77881,0.83887,1.77881,1.77832c0,0.2998-0.06982,0.7002-0.15967,0.97949
						H343.16229z M343.27216-97.19142h2.96826c0.05029-0.17969,0.07031-0.34961,0.07031-0.5c0-0.5791-0.3501-1.0791-1.18945-1.0791
						C344.19159-98.77052,343.53192-98.07033,343.27216-97.19142z"/>
					<path fill="#4500FF" d="M351.56024-99.16994l-0.41992,0.5791c-0.11963-0.06934-0.32959-0.12988-0.57959-0.12988
						c-0.72949,0-1.49902,0.5-1.75879,1.86914l-0.46973,2.46875h-0.68994l0.95947-4.92773h0.68994l-0.14014,0.66992
						c0.43994-0.58984,1.09961-0.74902,1.5791-0.74902C351.02069-99.38966,351.30048-99.33009,351.56024-99.16994z"/>
				</g>
			</g>
			<g id="Raggruppa_24472">
				<g enable-background="new    ">
					<path d="M263.94647-74.25246h-2.89844l-0.66992,1.86914h-0.7793l2.59863-6.96582h0.58936l2.60889,6.96582h-0.78955
						L263.94647-74.25246z M263.72626-74.86183l-1.229-3.47852l-1.23926,3.47852H263.72626z"/>
					<path d="M270.54657-75.40187v3.01855h-0.68945v-2.84863c0-1.05957-0.33984-1.54883-1.07959-1.54883
						c-0.92969,0-1.46924,0.7998-1.46924,2.18848v2.20898h-0.68945v-4.92773h0.68945v0.71973
						c0.31982-0.49902,0.91943-0.79883,1.62891-0.79883C269.99677-77.39015,270.54657-76.71046,270.54657-75.40187z"/>
					<path d="M272.18866-79.34914h0.79932v1.01953h-0.79932V-79.34914z M272.24872-77.31105h0.68945v4.92773h-0.68945V-77.31105z"/>
					<path d="M281.51483-75.46144v3.07812h-0.68994v-2.88867c0-0.41992,0-1.50879-1.0791-1.50879
						c-0.99951,0-1.26953,0.91895-1.26953,2.02832v2.36914h-0.68945v-2.84863c0-0.81934-0.25-1.54883-1.10938-1.54883
						c-0.95947,0-1.22949,0.90918-1.22949,2.02832v2.36914h-0.68945l-0.01025-4.92773h0.66992v0.60059
						c0.30957-0.49023,0.80957-0.67969,1.35889-0.67969c0.68994,0,1.19971,0.2998,1.44922,0.94922
						c0.31982-0.62988,0.86963-0.94922,1.61914-0.94922C281.02509-77.39015,281.51483-76.61086,281.51483-75.46144z"/>
					<path d="M286.88641-75.45168v3.06836h-0.62988l-0.04004-0.75977c-0.38965,0.5498-0.98926,0.83984-1.76904,0.83984
						c-1.06934,0-1.69873-0.55957-1.69873-1.50977c0-0.49902,0.19971-0.87891,0.55957-1.09863
						c0.37988-0.21973,0.90967-0.31055,1.87891-0.31055h1.00928v-0.22949c0-0.85938-0.44971-1.3291-1.2793-1.3291
						c-0.61963,0-1.09912,0.26953-1.49902,0.81934l-0.49951-0.41992c0.5293-0.68945,1.16895-1.00879,2.00879-1.00879
						C286.16669-77.39015,286.88641-76.68117,286.88641-75.45168z M286.19647-74.5923v-0.06934h-0.94922
						c-0.90967,0-1.29932,0.05957-1.53906,0.24902c-0.18018,0.14062-0.27002,0.36035-0.27002,0.63965
						c0,0.5498,0.46973,0.90039,1.20947,0.90039C285.59686-72.87257,286.19647-73.5425,286.19647-74.5923z"/>
					<path d="M288.52802-73.45265v-5.89648h0.68945v5.85645c0,0.33984,0.12012,0.55957,0.44971,0.55957
						c0.1499,0,0.31982-0.04004,0.46973-0.08984l0.01025,0.58984c-0.20996,0.06934-0.45996,0.12988-0.67969,0.12988
						C288.89764-72.30324,288.52802-72.68312,288.52802-73.45265z"/>
					<path d="M300.75458-75.46144v3.07812h-0.68994v-2.88867c0-0.41992,0-1.50879-1.0791-1.50879
						c-0.99951,0-1.26953,0.91895-1.26953,2.02832v2.36914h-0.68945v-2.84863c0-0.81934-0.25-1.54883-1.10938-1.54883
						c-0.95947,0-1.22949,0.90918-1.22949,2.02832v2.36914h-0.68945l-0.01025-4.92773h0.66992v0.60059
						c0.30957-0.49023,0.80957-0.67969,1.35889-0.67969c0.68994,0,1.19971,0.2998,1.44922,0.94922
						c0.31982-0.62988,0.86963-0.94922,1.61914-0.94922C300.26483-77.39015,300.75458-76.61086,300.75458-75.46144z"/>
					<path d="M306.35565-74.66164h-3.60791c0.02002,1.0791,0.61963,1.72852,1.58936,1.72852
						c0.53955,0,0.96924-0.13965,1.41895-0.61914l0.47998,0.41895c-0.57959,0.61035-1.14941,0.83008-1.90918,0.83008
						c-1.49902,0-2.26855-1.11914-2.26855-2.51855c0-1.38965,0.75977-2.56836,2.18896-2.56836
						c1.50879,0,2.13867,1.17871,2.13867,2.29785C306.38593-74.95168,306.37567-74.78175,306.35565-74.66164z M302.74774-75.24171
						h2.97852c0-0.02051-0.01025-0.07031-0.01025-0.16016c-0.0498-0.7998-0.55957-1.40918-1.46875-1.40918
						C303.3576-76.81105,302.8078-76.11086,302.74774-75.24171z"/>
					<path d="M309.82684-72.43312c-0.25977,0.08008-0.52002,0.12988-0.74951,0.12988c-0.65967,0-1.13965-0.37012-1.13965-1.23926
						v-3.18848h-0.81934v-0.58008h0.81934v-1.37891l0.68994-0.51953v1.89844h1.18896v0.58008h-1.18896v3.09863
						c0,0.47949,0.21973,0.69922,0.60938,0.69922c0.16992,0,0.35986-0.04004,0.57959-0.10938L309.82684-72.43312z"/>
					<path d="M314.80585-75.45168v3.06836h-0.62988l-0.04004-0.75977c-0.38965,0.5498-0.98926,0.83984-1.76904,0.83984
						c-1.06934,0-1.69873-0.55957-1.69873-1.50977c0-0.49902,0.19971-0.87891,0.55957-1.09863
						c0.37988-0.21973,0.90967-0.31055,1.87891-0.31055h1.00928v-0.22949c0-0.85938-0.44971-1.3291-1.2793-1.3291
						c-0.61963,0-1.09912,0.26953-1.49902,0.81934l-0.49951-0.41992c0.5293-0.68945,1.16895-1.00879,2.00879-1.00879
						C314.08612-77.39015,314.80585-76.68117,314.80585-75.45168z M314.11591-74.5923v-0.06934h-0.94922
						c-0.90967,0-1.29932,0.05957-1.53906,0.24902c-0.18018,0.14062-0.27002,0.36035-0.27002,0.63965
						c0,0.5498,0.46973,0.90039,1.20947,0.90039C313.5163-72.87257,314.11591-73.5425,314.11591-74.5923z"/>
					<path d="M320.9953-74.85207c0,1.46973-0.74951,2.54883-2.18896,2.54883c-0.71924,0-1.26904-0.28027-1.62891-0.73926v2.69824
						h-0.68945v-6.9668h0.68945v0.66016c0.36963-0.47949,0.92969-0.75,1.62891-0.75
						C320.17596-77.40089,320.9953-76.39113,320.9953-74.85207z M320.30585-74.85207c0-1.16895-0.59961-1.93848-1.59912-1.93848
						c-0.98975,0-1.58936,0.76953-1.58936,1.93848c0,1.11914,0.5498,1.93945,1.58936,1.93945
						C319.75604-72.91261,320.30585-73.73293,320.30585-74.85207z"/>
					<path d="M326.35565-75.40187v3.01855h-0.68945v-2.84863c0-1.06934-0.33984-1.54883-1.07959-1.54883
						c-0.93945,0-1.46924,0.76953-1.46924,2.12891v2.26855h-0.68945v-6.96582h0.68945v2.75781
						c0.31982-0.49902,0.91943-0.79883,1.62891-0.79883C325.80585-77.39015,326.35565-76.71046,326.35565-75.40187z"/>
					<path d="M327.62762-74.85207c0-1.45898,0.94971-2.53809,2.35889-2.53809c1.39941,0,2.36865,1.0791,2.36865,2.53809
						c0,1.44922-0.95947,2.54883-2.36865,2.54883S327.62762-73.39308,327.62762-74.85207z M331.66571-74.85207
						c0-1.11914-0.62988-1.92871-1.6792-1.92871c-1.05957,0-1.66895,0.81934-1.66895,1.92871
						c0,1.11914,0.61963,1.93945,1.66895,1.93945C331.04608-72.91261,331.66571-73.75246,331.66571-74.85207z"/>
					<path d="M336.74579-77.18019l-0.33984,0.55957c-0.22949-0.10059-0.43945-0.15039-0.64941-0.15039
						c-0.75977,0-1.31934,0.56934-1.31934,1.63965v2.74805h-0.68945v-4.92773h0.68945v0.74023
						c0.35986-0.64941,0.95947-0.81934,1.45898-0.81934C336.19598-77.39015,336.47626-77.33058,336.74579-77.18019z"/>
					<path d="M336.93768-73.5923l0.57959-0.25977c0.17969,0.50977,0.65967,0.93945,1.4292,0.93945
						c0.66943,0,1.09961-0.33008,1.09961-0.84961c0-1.30957-2.83887-0.49023-2.83887-2.23926
						c0-0.85938,0.69971-1.38867,1.68945-1.38867c0.78955,0,1.4292,0.3291,1.76904,1.0293l-0.5498,0.2998
						c-0.23975-0.44043-0.62988-0.71973-1.23926-0.71973c-0.60986,0-0.99951,0.25-0.99951,0.67969
						c0,1.16895,2.84814,0.42969,2.84814,2.29883c0,0.99902-0.81934,1.49902-1.76855,1.49902
						C337.987-72.30324,337.19745-72.80324,336.93768-73.5923z"/>
					<path d="M348.52509-75.45168v3.06836h-0.62988l-0.04004-0.75977c-0.38965,0.5498-0.98926,0.83984-1.76904,0.83984
						c-1.06934,0-1.69873-0.55957-1.69873-1.50977c0-0.49902,0.19971-0.87891,0.55957-1.09863
						c0.37988-0.21973,0.90967-0.31055,1.87891-0.31055h1.00928v-0.22949c0-0.85938-0.44971-1.3291-1.2793-1.3291
						c-0.61963,0-1.09912,0.26953-1.49902,0.81934l-0.49951-0.41992c0.5293-0.68945,1.16895-1.00879,2.00879-1.00879
						C347.80536-77.39015,348.52509-76.68117,348.52509-75.45168z M347.83514-74.5923v-0.06934h-0.94922
						c-0.90967,0-1.29932,0.05957-1.53906,0.24902c-0.18018,0.14062-0.27002,0.36035-0.27002,0.63965
						c0,0.5498,0.46973,0.90039,1.20947,0.90039C347.23553-72.87257,347.83514-73.5425,347.83514-74.5923z"/>
					<path d="M354.13495-75.40187v3.01855h-0.68945v-2.84863c0-1.05957-0.33984-1.54883-1.07959-1.54883
						c-0.92969,0-1.46924,0.7998-1.46924,2.18848v2.20898h-0.68945v-4.92773h0.68945v0.71973
						c0.31982-0.49902,0.91943-0.79883,1.62891-0.79883C353.58514-77.39015,354.13495-76.71046,354.13495-75.40187z"/>
					<path d="M359.95477-79.34914v6.96582h-0.68994v-0.65918c-0.35938,0.45898-0.90918,0.73926-1.62891,0.73926
						c-1.43896,0-2.18896-1.0791-2.18896-2.54883c0-1.53906,0.81982-2.54883,2.18896-2.54883
						c0.69971,0,1.25928,0.27051,1.62891,0.75v-2.69824H359.95477z M359.32489-74.85207c0-1.16895-0.59961-1.93848-1.58887-1.93848
						c-0.99951,0-1.59912,0.76953-1.59912,1.93848c0,1.11914,0.54932,1.93945,1.59912,1.93945
						C358.77509-72.91261,359.32489-73.73293,359.32489-74.85207z"/>
					<path d="M363.97723-73.5923l0.57959-0.25977c0.17969,0.50977,0.65967,0.93945,1.4292,0.93945
						c0.66943,0,1.09961-0.33008,1.09961-0.84961c0-1.30957-2.83887-0.49023-2.83887-2.23926
						c0-0.85938,0.69971-1.38867,1.68945-1.38867c0.78955,0,1.4292,0.3291,1.76904,1.0293l-0.5498,0.2998
						c-0.23975-0.44043-0.62988-0.71973-1.23926-0.71973c-0.60986,0-0.99951,0.25-0.99951,0.67969
						c0,1.16895,2.84814,0.42969,2.84814,2.29883c0,0.99902-0.81934,1.49902-1.76904,1.49902
						C365.02655-72.30324,364.237-72.80324,363.97723-73.5923z"/>
					<path d="M369.10663-79.34914h0.79932v1.01953h-0.79932V-79.34914z M369.16669-77.31105h0.68945v4.92773h-0.68945V-77.31105z"/>
					<path d="M378.43329-75.46144v3.07812h-0.68994v-2.88867c0-0.41992,0-1.50879-1.0791-1.50879
						c-0.99951,0-1.26953,0.91895-1.26953,2.02832v2.36914h-0.68945v-2.84863c0-0.81934-0.25-1.54883-1.10938-1.54883
						c-0.95947,0-1.22949,0.90918-1.22949,2.02832v2.36914h-0.68945l-0.01025-4.92773h0.66992v0.60059
						c0.30957-0.49023,0.80957-0.67969,1.35889-0.67969c0.68994,0,1.19971,0.2998,1.44922,0.94922
						c0.31982-0.62988,0.86963-0.94922,1.61914-0.94922C377.94354-77.39015,378.43329-76.61086,378.43329-75.46144z"/>
					<path d="M380.07684-79.34914h0.79932v1.01953h-0.79932V-79.34914z M380.1369-77.31105h0.68945v4.92773h-0.68945V-77.31105z"/>
					<path d="M382.60663-73.45265v-5.89648h0.68945v5.85645c0,0.33984,0.12012,0.55957,0.44971,0.55957
						c0.1499,0,0.31982-0.04004,0.46973-0.08984l0.01025,0.58984c-0.20996,0.06934-0.45996,0.12988-0.67969,0.12988
						C382.97626-72.30324,382.60663-72.68312,382.60663-73.45265z"/>
					<path d="M389.24384-74.66164h-3.60791c0.02002,1.0791,0.61963,1.72852,1.58936,1.72852
						c0.53955,0,0.96924-0.13965,1.41895-0.61914l0.47998,0.41895c-0.57959,0.61035-1.14941,0.83008-1.90918,0.83008
						c-1.49902,0-2.26855-1.11914-2.26855-2.51855c0-1.38965,0.75977-2.56836,2.18896-2.56836
						c1.50879,0,2.13867,1.17871,2.13867,2.29785C389.27411-74.95168,389.26385-74.78175,389.24384-74.66164z M385.63593-75.24171
						h2.97852c0-0.02051-0.01025-0.07031-0.01025-0.16016c-0.0498-0.7998-0.55957-1.40918-1.46875-1.40918
						C386.24579-76.81105,385.69598-76.11086,385.63593-75.24171z"/>
					<path d="M390.1369-73.5923l0.57959-0.25977c0.17969,0.50977,0.65967,0.93945,1.4292,0.93945
						c0.66943,0,1.09961-0.33008,1.09961-0.84961c0-1.30957-2.83887-0.49023-2.83887-2.23926
						c0-0.85938,0.69971-1.38867,1.68945-1.38867c0.78955,0,1.4292,0.3291,1.76904,1.0293l-0.5498,0.2998
						c-0.23975-0.44043-0.62988-0.71973-1.23926-0.71973c-0.60986,0-0.99951,0.25-0.99951,0.67969
						c0,1.16895,2.84814,0.42969,2.84814,2.29883c0,0.99902-0.81934,1.49902-1.76855,1.49902
						C391.18622-72.30324,390.39667-72.80324,390.1369-73.5923z"/>
				</g>
			</g>
			<g enable-background="new    ">
				<path fill="#5151FC" d="M2.30293-119.21144H0.12422v-1.14941h5.6167v1.14941H3.56221v5.81641H2.30293V-119.21144z"/>
				<path fill="#5151FC" d="M8.64277-116.11378l-2.64844-4.24707h1.46875l1.7793,3.04785l1.79883-3.04785h1.47949l-2.62891,4.24707
					v2.71875H8.64277V-116.11378z"/>
				<path fill="#5151FC" d="M13.37324-120.36086h2.27881c1.55908,0,2.36865,0.67969,2.36865,2.00879
					c0,1.34863-0.82959,2.06836-2.36865,2.06836H14.6125v2.88867h-1.23926V-120.36086z M15.52217-117.43312
					c0.87939,0,1.24951-0.26953,1.24951-0.89941s-0.35986-0.87891-1.24951-0.87891H14.6125v1.77832H15.52217z"/>
				<path fill="#5151FC" d="M19.22334-120.36086h4.6377v1.14941h-3.38818v1.6582h3.14844v1.14941h-3.14844v1.85938h3.38818v1.14941
					h-4.6377V-120.36086z"/>
				<path fill="#5151FC" d="M24.65351-115.36378l1.23926-0.30957c0.08984,0.8291,0.63965,1.29883,1.44922,1.29883
					c0.69971,0,1.14941-0.34961,1.14941-0.93945c0-0.47949-0.35986-0.7793-1.38916-1.18945
					c-1.45947-0.56934-1.979-1.09961-1.979-2.1084c0-1.12988,0.86963-1.89941,2.16895-1.89941
					c0.93945,0,1.67871,0.42969,2.11865,1.26953l-1.03955,0.63965c-0.23975-0.51953-0.64941-0.7998-1.11914-0.7998
					c-0.5,0-0.87988,0.33008-0.87988,0.75977c0,0.45996,0.33984,0.71973,1.38965,1.12891
					c1.48877,0.57031,1.97852,1.09961,1.97852,2.08887c0,1.2998-0.98926,2.15918-2.41846,2.15918
					C25.93281-113.26515,24.85322-114.09425,24.65351-115.36378z"/>
				<path fill="#5151FC" d="M32.84297-116.87355c0-2.18848,1.34961-3.6377,3.32812-3.6377c1.98926,0,3.32812,1.44922,3.32812,3.6377
					c0,2.17969-1.34912,3.62891-3.32812,3.62891C34.19258-113.24464,32.84297-114.69386,32.84297-116.87355z M38.25019-116.87355
					c0-1.50879-0.80957-2.44824-2.0791-2.44824c-1.26904,0-2.07861,0.92969-2.07861,2.44824
					c0,1.50977,0.80957,2.43945,2.07861,2.43945C37.44062-114.4341,38.25019-115.37355,38.25019-116.87355z"/>
				<path fill="#5151FC" d="M40.77266-120.36086h4.9375v1.14941h-3.68799v1.6582h3.24805v1.14941h-3.24805v3.00879h-1.24951
					V-120.36086z"/>
				<path fill="#5151FC" d="M54.71992-120.36086v6.96582H53.4206l-2.91846-4.81738v4.81738h-1.24951v-6.96582h1.28955
					l2.92822,4.79688v-4.79688H54.71992z"/>
				<path fill="#5151FC" d="M60.26045-114.83449h-2.72852l-0.5293,1.43945h-1.35938l2.78857-6.96582h0.93945l2.77832,6.96582
					h-1.35938L60.26045-114.83449z M59.84101-115.9839l-0.93945-2.53809l-0.93945,2.53809H59.84101z"/>
				<path fill="#5151FC" d="M66.86055-113.39503l-1.66895-2.88867h-0.41992h-0.45996v2.88867h-1.23926v-6.96582h2.27881
					c1.65918,0,2.36865,0.75879,2.36865,2.00879c0,0.99902-0.45947,1.63867-1.28906,1.91895l1.87891,3.03809H66.86055z
					 M65.22139-117.43312c0.80957,0,1.24951-0.21973,1.24951-0.89941s-0.43994-0.87891-1.24951-0.87891h-0.90967v1.77832H65.22139z"
					/>
				<path fill="#5151FC" d="M73.08076-113.39503l-1.66895-2.88867H70.9919h-0.45996v2.88867h-1.23926v-6.96582h2.27881
					c1.65918,0,2.36865,0.75879,2.36865,2.00879c0,0.99902-0.45947,1.63867-1.28906,1.91895l1.87891,3.03809H73.08076z
					 M71.4416-117.43312c0.80957,0,1.24951-0.21973,1.24951-0.89941s-0.43994-0.87891-1.24951-0.87891h-0.90967v1.77832H71.4416z"/>
				<path fill="#5151FC" d="M79.27022-114.83449H76.5417l-0.5293,1.43945h-1.35938l2.78857-6.96582h0.93945l2.77832,6.96582H79.8
					L79.27022-114.83449z M78.85078-115.9839l-0.93945-2.53809l-0.93945,2.53809H78.85078z"/>
				<path fill="#5151FC" d="M82.80196-119.21144h-2.17871v-1.14941h5.6167v1.14941h-2.17871v5.81641h-1.25928V-119.21144z"/>
				<path fill="#5151FC" d="M87.20235-120.36086h1.24951v6.96582h-1.24951V-120.36086z"/>
				<path fill="#5151FC" d="M95.8791-120.36086l-2.77832,6.96582h-0.93945l-2.78857-6.96582h1.37939l1.87891,4.92676
					l1.86865-4.92676H95.8791z"/>
				<path fill="#5151FC" d="M96.80244-120.36086h4.6377v1.14941h-3.38818v1.6582h3.14844v1.14941h-3.14844v1.85938h3.38818v1.14941
					h-4.6377V-120.36086z"/>
				<path fill="#5151FC" d="M104.6628-115.36378l1.23926-0.30957c0.08984,0.8291,0.63965,1.29883,1.44922,1.29883
					c0.69971,0,1.14941-0.34961,1.14941-0.93945c0-0.47949-0.35986-0.7793-1.38916-1.18945
					c-1.45947-0.56934-1.979-1.09961-1.979-2.1084c0-1.12988,0.86963-1.89941,2.16895-1.89941
					c0.93945,0,1.67871,0.42969,2.11865,1.26953l-1.03955,0.63965c-0.23975-0.51953-0.64941-0.7998-1.11914-0.7998
					c-0.5,0-0.87988,0.33008-0.87988,0.75977c0,0.45996,0.33984,0.71973,1.38965,1.12891
					c1.48877,0.57031,1.97852,1.09961,1.97852,2.08887c0,1.2998-0.98926,2.15918-2.41846,2.15918
					C105.94209-113.26515,104.8625-114.09425,104.6628-115.36378z"/>
				<path fill="#5151FC" d="M110.91231-120.36086h4.6377v1.14941h-3.38818v1.6582h3.14795v1.14941h-3.14795v1.85938H115.55v1.14941
					h-4.6377V-120.36086z"/>
				<path fill="#5151FC" d="M122.73897-112.80519l-1.01953-0.98926c-0.51953,0.35938-1.16943,0.5498-1.88916,0.5498
					c-1.97852,0-3.32812-1.44922-3.32812-3.62891c0-2.18848,1.34961-3.6377,3.32812-3.6377
					c1.98926,0,3.32861,1.44922,3.32861,3.6377c0,0.92969-0.25,1.72949-0.67969,2.33887l1.01904,1L122.73897-112.80519z
					 M120.80977-114.66457l-0.90918-0.87891l0.74951-0.76953l0.91943,0.89941c0.21973-0.38965,0.33984-0.87988,0.33984-1.45996
					c0-1.50879-0.80957-2.44824-2.0791-2.44824c-1.26904,0-2.07861,0.92969-2.07861,2.44824
					c0,1.50977,0.80957,2.43945,2.07861,2.43945C120.20039-114.4341,120.52998-114.51418,120.80977-114.66457z"/>
				<path fill="#5151FC" d="M124.52217-115.91359v-4.44727h1.24902v4.30762c0,1.17871,0.37988,1.59863,1.40918,1.59863
					c1.02979,0,1.41943-0.42969,1.41943-1.59863v-4.30762h1.24951v4.39746c0,1.80859-0.90967,2.71875-2.66895,2.71875
					C125.43135-113.24464,124.52217-114.13429,124.52217-115.91359z"/>
				<path fill="#5151FC" d="M131.47188-120.36086h4.6377v1.14941h-3.38818v1.6582h3.14795v1.14941h-3.14795v1.85938h3.38818v1.14941
					h-4.6377V-120.36086z"/>
				<path fill="#5151FC" d="M143.03926-120.36086v6.96582h-1.29932l-2.91846-4.81738v4.81738h-1.24951v-6.96582h1.28955
					l2.92822,4.79688v-4.79688H143.03926z"/>
				<path fill="#5151FC" d="M144.32198-116.88332c0-2.22852,1.31934-3.6377,3.37793-3.6377
					c1.46924,0,2.57861,0.70996,3.08838,2.03906l-1.14941,0.44922c-0.30957-0.86914-0.98926-1.29883-1.93896-1.29883
					c-1.34912,0-2.12891,0.87891-2.12891,2.43848c0,1.56934,0.78955,2.45898,2.12891,2.45898
					c0.95947,0,1.63916-0.4502,1.93896-1.33008l1.16943,0.44043c-0.49951,1.34863-1.61914,2.0791-3.1084,2.0791
					C145.64131-113.24464,144.32198-114.6548,144.32198-116.88332z"/>
				<path fill="#5151FC" d="M151.91182-120.36086h4.6377v1.14941h-3.38818v1.6582h3.14844v1.14941h-3.14844v1.85938h3.38818v1.14941
					h-4.6377V-120.36086z"/>
			</g>
			
				<line id="Linea_7911" fill="none" stroke="#5151FC" stroke-width="0.5" stroke-miterlimit="10" x1="0" y1="-136.40199" x2="938" y2="-136.40199"/>
			<rect id="Rectangle_50" x="-0.2" y="-136.202" fill="none" width="938" height="104.4"/>
			<g enable-background="new    ">
				<path d="M32.17402-101.34865h0.70996v6.96582h-0.70996V-101.34865z"/>
				<path d="M41.69062-97.46095v3.07812h-0.68994v-2.88867c0-0.41992,0-1.50879-1.0791-1.50879
					c-0.99951,0-1.26953,0.91895-1.26953,2.02832v2.36914H37.9626v-2.84863c0-0.81934-0.25-1.54883-1.10938-1.54883
					c-0.95947,0-1.22949,0.90918-1.22949,2.02832v2.36914h-0.68945l-0.01025-4.92773h0.66992v0.60059
					c0.30957-0.49023,0.80957-0.67969,1.35889-0.67969c0.68994,0,1.19971,0.2998,1.44922,0.94922
					c0.31982-0.62988,0.86963-0.94922,1.61914-0.94922C41.20088-99.38966,41.69062-98.61037,41.69062-97.46095z"/>
				<path d="M47.06221-97.45119v3.06836h-0.62988l-0.04004-0.75977c-0.38965,0.5498-0.98926,0.83984-1.76904,0.83984
					c-1.06934,0-1.69873-0.55957-1.69873-1.50977c0-0.49902,0.19971-0.87891,0.55957-1.09863
					c0.37988-0.21973,0.90967-0.31055,1.87891-0.31055h1.00928v-0.22949c0-0.85938-0.44971-1.3291-1.2793-1.3291
					c-0.61963,0-1.09912,0.26953-1.49902,0.81934l-0.49951-0.41992c0.5293-0.68945,1.16895-1.00879,2.00879-1.00879
					C46.34248-99.38966,47.06221-98.68068,47.06221-97.45119z M46.37226-96.59181v-0.06934h-0.94922
					c-0.90967,0-1.29932,0.05957-1.53906,0.24902c-0.18018,0.14062-0.27002,0.36035-0.27002,0.63965
					c0,0.5498,0.46973,0.90039,1.20947,0.90039C45.77266-94.87209,46.37226-95.54201,46.37226-96.59181z"/>
				<path d="M52.58223-93.62306c0,0.92969-0.86963,1.35938-2.10889,1.35938c-1.36914,0-2.19873-0.54004-2.19873-1.51953
					c0-0.09961,0.00977-0.16016,0.02002-0.21973l0.79932-0.67969c-0.37988-0.16992-0.63965-0.4502-0.63965-0.93945
					c0-0.39941,0.18018-0.69922,0.52979-0.93945c-0.25977-0.2998-0.41992-0.67969-0.41992-1.11914
					c0-1,0.81982-1.70898,1.87891-1.70898c0.47998,0,0.90967,0.14941,1.22949,0.39941l0.67969-0.58984l0.35986,0.4502
					l-0.66992,0.55957c0.16992,0.26953,0.27002,0.5791,0.27002,0.92969c0,1.00879-0.81934,1.67871-1.85889,1.67871
					c-0.37988,0-0.72949-0.08984-1.01953-0.25c-0.19971,0.11035-0.31982,0.29004-0.31982,0.5c0,0.5,0.61963,0.61914,1.3291,0.72949
					C51.42256-94.83302,52.58223-94.6924,52.58223-93.62306z M51.89228-93.56349c0-0.59961-0.7793-0.68945-1.59912-0.81934
					c-0.21973-0.03027-0.44971-0.07031-0.65967-0.12012l-0.66943,0.64941c-0.01025,0.05078-0.01025,0.07031-0.01025,0.09082
					c0,0.69922,0.70996,0.91895,1.54932,0.91895C51.37275-92.84377,51.89228-93.084,51.89228-93.56349z M49.24385-97.66115
					c0,0.63965,0.45996,1.12988,1.19922,1.12988c0.73975,0,1.17969-0.48047,1.17969-1.12988
					c0-0.67969-0.45996-1.14941-1.16943-1.14941C49.75361-98.81056,49.24385-98.34084,49.24385-97.66115z"/>
				<path d="M53.89424-101.34865h0.79932v1.01953h-0.79932V-101.34865z M53.9543-99.31056h0.68945v4.92773H53.9543V-99.31056z"/>
				<path d="M60.3918-97.40138v3.01855h-0.68945v-2.84863c0-1.05957-0.33984-1.54883-1.07959-1.54883
					c-0.92969,0-1.46924,0.7998-1.46924,2.18848v2.20898h-0.68945v-4.92773h0.68945v0.71973
					c0.31982-0.49902,0.91943-0.79883,1.62891-0.79883C59.84199-99.38966,60.3918-98.70998,60.3918-97.40138z"/>
				<path d="M65.76192-97.45119v3.06836h-0.62988L65.092-95.14259c-0.38965,0.5498-0.98926,0.83984-1.76905,0.83984
					c-1.06934,0-1.69873-0.55957-1.69873-1.50977c0-0.49902,0.19971-0.87891,0.55957-1.09863
					c0.37988-0.21973,0.90967-0.31055,1.87891-0.31055h1.00928v-0.22949c0-0.85938-0.44971-1.3291-1.2793-1.3291
					c-0.61963,0-1.09912,0.26953-1.49902,0.81934l-0.49951-0.41992c0.5293-0.68945,1.16895-1.00879,2.00879-1.00879
					C65.04219-99.38966,65.76192-98.68068,65.76192-97.45119z M65.07198-96.59181v-0.06934h-0.94922
					c-0.90967,0-1.29932,0.05957-1.53907,0.24902c-0.18018,0.14062-0.27002,0.36035-0.27002,0.63965
					c0,0.5498,0.46973,0.90039,1.20947,0.90039C64.47237-94.87209,65.07198-95.54201,65.07198-96.59181z"/>
				<path d="M69.49287-94.43263c-0.25977,0.08008-0.52002,0.12988-0.74951,0.12988c-0.65967,0-1.13965-0.37012-1.13965-1.23926
					v-3.18848h-0.81934v-0.58008h0.81934v-1.37891l0.68994-0.51953v1.89844h1.18896v0.58008h-1.18896v3.09863
					c0,0.47949,0.21973,0.69922,0.60938,0.69922c0.16992,0,0.35986-0.04004,0.57959-0.10938L69.49287-94.43263z"/>
				<path d="M70.74385-101.34865h0.79932v1.01953h-0.79932V-101.34865z M70.80391-99.31056h0.68945v4.92773h-0.68945V-99.31056z"/>
				<path d="M72.8835-96.85158c0-1.45898,0.94971-2.53809,2.35889-2.53809c1.39941,0,2.36865,1.0791,2.36865,2.53809
					c0,1.44922-0.95947,2.54883-2.36865,2.54883S72.8835-95.39259,72.8835-96.85158z M76.92159-96.85158
					c0-1.11914-0.62988-1.92871-1.6792-1.92871c-1.05957,0-1.66895,0.81934-1.66895,1.92871
					c0,1.11914,0.61963,1.93945,1.66895,1.93945C76.30196-94.91212,76.92159-95.75197,76.92159-96.85158z"/>
				<path d="M82.93135-97.40138v3.01855H82.2419v-2.84863c0-1.05957-0.33984-1.54883-1.07959-1.54883
					c-0.92969,0-1.46924,0.7998-1.46924,2.18848v2.20898h-0.68945v-4.92773h0.68945v0.71973
					c0.31982-0.49902,0.91943-0.79883,1.62891-0.79883C82.38155-99.38966,82.93135-98.70998,82.93135-97.40138z"/>
			</g>
			<path id="Rectangle_13361" fill="#FF3366" d="M5.142-102.4h11c2.73423-0.0272,4.9728,2.16728,5,4.90151
				c0.00033,0.03283,0.00033,0.06566,0,0.09849l0,0c0.0272,2.73423-2.16728,4.9728-4.90151,5
				c-0.03283,0.00033-0.06566,0.00033-0.09849,0h-11c-2.73423,0.0272-4.9728-2.16728-5-4.90151
				c-0.00033-0.03283-0.00033-0.06566,0-0.09849l0,0C0.15024-100.158,2.384-102.39176,5.142-102.4z"/>
			<g enable-background="new    ">
				<path d="M519.26093-101.61476v6.96582h-0.71973v-6.0166l-2.24902,5.43652h-0.69922l-2.25879-5.45703v6.03711h-0.70996v-6.96582
					h1.03906l2.2793,5.55664l2.27832-5.55664H519.26093z"/>
				<path d="M525.2121-96.92726h-3.6084c0.02051,1.0791,0.62012,1.72852,1.58984,1.72852c0.53906,0,0.96875-0.13965,1.41895-0.61914
					l0.47949,0.41895c-0.5791,0.61035-1.14941,0.83008-1.90918,0.83008c-1.49902,0-2.26855-1.11914-2.26855-2.51855
					c0-1.38965,0.75977-2.56836,2.18945-2.56836c1.50879,0,2.13867,1.17871,2.13867,2.29785
					C525.24237-97.2173,525.23163-97.04738,525.2121-96.92726z M521.6037-97.50734h2.97852
					c0-0.02051-0.00977-0.07031-0.00977-0.16016c-0.0498-0.7998-0.55957-1.40918-1.46875-1.40918
					C522.21405-99.07668,521.66425-98.37648,521.6037-97.50734z"/>
				<path d="M528.6828-94.69875c-0.25977,0.08008-0.51953,0.12988-0.74902,0.12988c-0.66016,0-1.13965-0.37012-1.13965-1.23926
					v-3.18848h-0.81934v-0.58008h0.81934v-1.37891l0.68945-0.51953v1.89844h1.18945v0.58008h-1.18945v3.09863
					c0,0.47949,0.21973,0.69922,0.60938,0.69922c0.16992,0,0.36035-0.04004,0.58008-0.10938L528.6828-94.69875z"/>
				<path d="M533.66229-97.7173v3.06836h-0.62988l-0.04004-0.75977c-0.38965,0.5498-0.98926,0.83984-1.76855,0.83984
					c-1.06934,0-1.69922-0.55957-1.69922-1.50977c0-0.49902,0.2002-0.87891,0.55957-1.09863
					c0.37988-0.21973,0.91016-0.31055,1.87891-0.31055h1.00977v-0.22949c0-0.85938-0.4502-1.3291-1.2793-1.3291
					c-0.62012,0-1.09961,0.26953-1.49902,0.81934l-0.5-0.41992c0.5293-0.68945,1.16895-1.00879,2.00879-1.00879
					C532.94257-99.65578,533.66229-98.94679,533.66229-97.7173z M532.97284-96.85793v-0.06934h-0.94922
					c-0.91016,0-1.2998,0.05957-1.53906,0.24902c-0.18066,0.14062-0.27051,0.36035-0.27051,0.63965
					c0,0.5498,0.46973,0.90039,1.20996,0.90039C532.37323-95.1382,532.97284-95.80812,532.97284-96.85793z"/>
				<path d="M539.85175-97.11769c0,1.46973-0.75,2.54883-2.18945,2.54883c-0.71875,0-1.26855-0.28027-1.62891-0.73926v2.69824
					h-0.68945v-6.9668h0.68945v0.66016c0.37012-0.47949,0.92969-0.75,1.62891-0.75
					C539.03241-99.66652,539.85175-98.65675,539.85175-97.11769z M539.16229-97.11769c0-1.16895-0.59961-1.93848-1.59961-1.93848
					c-0.98926,0-1.58887,0.76953-1.58887,1.93848c0,1.11914,0.5498,1.93945,1.58887,1.93945
					C538.61249-95.17824,539.16229-95.99855,539.16229-97.11769z"/>
				<path d="M545.2121-97.6675v3.01855h-0.68945v-2.84863c0-1.06934-0.33984-1.54883-1.08008-1.54883
					c-0.93945,0-1.46875,0.76953-1.46875,2.12891v2.26855h-0.68945v-6.96582h0.68945v2.75781
					c0.31934-0.49902,0.91895-0.79883,1.62891-0.79883C544.66229-99.65578,545.2121-98.97609,545.2121-97.6675z"/>
				<path d="M546.48358-97.11769c0-1.45898,0.9502-2.53809,2.35938-2.53809c1.39941,0,2.36816,1.0791,2.36816,2.53809
					c0,1.44922-0.95898,2.54883-2.36816,2.54883S546.48358-95.65871,546.48358-97.11769z M550.52167-97.11769
					c0-1.11914-0.62988-1.92871-1.67871-1.92871c-1.05957,0-1.66895,0.81934-1.66895,1.92871
					c0,1.11914,0.61914,1.93945,1.66895,1.93945C549.90253-95.17824,550.52167-96.01808,550.52167-97.11769z"/>
				<path d="M555.60175-99.44582l-0.33984,0.55957c-0.22949-0.10059-0.43945-0.15039-0.64941-0.15039
					c-0.75977,0-1.31934,0.56934-1.31934,1.63965v2.74805h-0.68945v-4.92773h0.68945v0.74023
					c0.36035-0.64941,0.95996-0.81934,1.45898-0.81934C555.05194-99.65578,555.33221-99.59621,555.60175-99.44582z"/>
				<path d="M555.79413-95.85793l0.58008-0.25977c0.17969,0.50977,0.65918,0.93945,1.42871,0.93945
					c0.66992,0,1.09961-0.33008,1.09961-0.84961c0-1.30957-2.83887-0.49023-2.83887-2.23926
					c0-0.85938,0.7002-1.38867,1.68945-1.38867c0.79004,0,1.42969,0.3291,1.76953,1.0293l-0.5498,0.2998
					c-0.24023-0.44043-0.62988-0.71973-1.23926-0.71973c-0.61035,0-1,0.25-1,0.67969c0,1.16895,2.84863,0.42969,2.84863,2.29883
					c0,0.99902-0.81934,1.49902-1.76953,1.49902C556.84393-94.56886,556.05389-95.06886,555.79413-95.85793z"/>
			</g>
			<g enable-background="new    ">
				<path d="M511.97382-74.48781l0.70898-0.16992c0.12988,0.89941,0.80957,1.46875,1.74902,1.46875
					c1.00977,0,1.51953-0.5293,1.51953-1.21875c0-0.75-0.42969-1.13965-1.65918-1.60938
					c-1.40918-0.5293-1.89844-1.0293-1.89844-1.93848c0-1.05957,0.79883-1.75977,1.97852-1.75977
					c0.87988,0,1.56934,0.38965,1.98926,1.12988l-0.59961,0.36914c-0.2998-0.53906-0.80957-0.85938-1.40918-0.85938
					c-0.73047,0-1.25,0.5-1.25,1.08984c0,0.63965,0.47949,0.97949,1.5791,1.39941c1.5498,0.58887,1.98926,1.14941,1.98926,2.11816
					c0,1.16992-0.80957,1.91895-2.24902,1.91895C513.133-72.54933,512.16327-73.31886,511.97382-74.48781z"/>
				<path d="M518.02362-79.61476h0.79883v1.01953h-0.79883V-79.61476z M518.08319-77.57668h0.68945v4.92773h-0.68945V-77.57668z"/>
				<path d="M527.34979-75.72707v3.07812h-0.69043v-2.88867c0-0.41992,0-1.50879-1.0791-1.50879
					c-0.99902,0-1.26953,0.91895-1.26953,2.02832v2.36914h-0.68945v-2.84863c0-0.81934-0.25-1.54883-1.10938-1.54883
					c-0.95898,0-1.22949,0.90918-1.22949,2.02832v2.36914h-0.68945l-0.00977-4.92773h0.66992v0.60059
					c0.30957-0.49023,0.80957-0.67969,1.3584-0.67969c0.69043,0,1.2002,0.2998,1.44922,0.94922
					c0.32031-0.62988,0.87012-0.94922,1.61914-0.94922C526.85956-77.65578,527.34979-76.87648,527.34979-75.72707z"/>
				<path d="M528.99335-79.61476h0.79883v1.01953h-0.79883V-79.61476z M529.05292-77.57668h0.68945v4.92773h-0.68945V-77.57668z"/>
				<path d="M531.52362-73.71828v-5.89648h0.68945v5.85645c0,0.33984,0.12012,0.55957,0.44922,0.55957
					c0.15039,0,0.32031-0.04004,0.46973-0.08984l0.01074,0.58984c-0.20996,0.06934-0.45996,0.12988-0.67969,0.12988
					C531.89276-72.56886,531.52362-72.94875,531.52362-73.71828z"/>
				<path d="M538.16034-74.92726h-3.60742c0.01953,1.0791,0.61914,1.72852,1.58887,1.72852
					c0.54004,0,0.96973-0.13965,1.41895-0.61914l0.48047,0.41895c-0.58008,0.61035-1.14941,0.83008-1.90918,0.83008
					c-1.49902,0-2.26855-1.11914-2.26855-2.51855c0-1.38965,0.75977-2.56836,2.18848-2.56836
					c1.50879,0,2.13867,1.17871,2.13867,2.29785C538.19061-75.2173,538.18085-75.04738,538.16034-74.92726z M534.55292-75.50734
					h2.97852c0-0.02051-0.01074-0.07031-0.01074-0.16016c-0.0498-0.7998-0.55957-1.40918-1.46875-1.40918
					C535.16229-77.07668,534.61249-76.37648,534.55292-75.50734z"/>
				<path d="M539.05292-73.85793l0.58008-0.25977c0.17969,0.50977,0.65918,0.93945,1.42871,0.93945
					c0.66992,0,1.09961-0.33008,1.09961-0.84961c0-1.30957-2.83887-0.49023-2.83887-2.23926
					c0-0.85938,0.7002-1.38867,1.68945-1.38867c0.79004,0,1.42969,0.3291,1.76953,1.0293l-0.5498,0.2998
					c-0.24023-0.44043-0.62988-0.71973-1.23926-0.71973c-0.61035,0-1,0.25-1,0.67969c0,1.16895,2.84863,0.42969,2.84863,2.29883
					c0,0.99902-0.81934,1.49902-1.76953,1.49902C540.10272-72.56886,539.31268-73.06886,539.05292-73.85793z"/>
			</g>
			<path id="Rectangle_13359" fill="#F299C1" d="M485.20001-102.6h11c2.73422-0.0272,4.97281,2.16728,5,4.90151
				c0.00034,0.03283,0.00034,0.06566,0,0.09849l0,0c0.02719,2.73423-2.1673,4.9728-4.90152,5
				c-0.03281,0.00033-0.06564,0.00033-0.09848,0h-11c-2.73422,0.0272-4.97281-2.16728-5-4.90151
				c-0.00034-0.03283-0.00034-0.06566,0-0.09849l0,0C480.20825-100.358,482.44202-102.59176,485.20001-102.6z"/>
			<path id="Rectangle_13360" fill="#99FFFF" d="M485.20001-80.6h11c2.73422-0.0272,4.97281,2.16728,5,4.90151
				c0.00034,0.03283,0.00034,0.06566,0,0.09849l0,0c0.02719,2.73423-2.1673,4.9728-4.90152,5
				c-0.03281,0.00033-0.06564,0.00033-0.09848,0h-11c-2.73422,0.0272-4.97281-2.16728-5-4.90151
				c-0.00034-0.03283-0.00034-0.06566,0-0.09849l0,0C480.20825-78.358,482.44202-80.59176,485.20001-80.6z"/>
			<g enable-background="new    ">
				<path d="M634.68964-94.1089l-1.01953-1c-0.50977,0.36035-1.12988,0.55957-1.83984,0.55957
					c-1.9082,0-3.1875-1.42871-3.1875-3.57812c0-2.1582,1.2793-3.58789,3.1875-3.58789c1.90918,0,3.18848,1.42969,3.18848,3.58789
					c0,1.08008-0.31934,1.96973-0.87891,2.59863l1.00879,0.99023L634.68964-94.1089z M633.16034-95.59816l-1.12988-1.09961
					l0.47949-0.42969l1.12988,1.10938c0.42969-0.5,0.66992-1.22949,0.66992-2.10938c0-1.77832-0.96973-2.9082-2.47949-2.9082
					c-1.50879,0-2.47852,1.12988-2.47852,2.9082c0,1.76953,0.96973,2.89844,2.47852,2.89844
					C632.34003-95.22902,632.79022-95.3589,633.16034-95.59816z"/>
				<path d="M640.54022-99.57668v4.92773h-0.68945v-0.70996c-0.35059,0.53027-0.97949,0.79004-1.62988,0.79004
					c-1.11914,0-1.6084-0.76953-1.6084-1.98926v-3.01855h0.68945v2.84863c0,0.7998,0.13965,1.5498,1.0791,1.5498
					c0.97949,0,1.46973-0.84961,1.46973-2.12891v-2.26953H640.54022z"/>
				<path d="M646.21014-96.92726h-3.6084c0.02051,1.0791,0.62012,1.72852,1.58984,1.72852
					c0.53906,0,0.96875-0.13965,1.41895-0.61914l0.47949,0.41895c-0.5791,0.61035-1.14941,0.83008-1.90918,0.83008
					c-1.49902,0-2.26855-1.11914-2.26855-2.51855c0-1.38965,0.75977-2.56836,2.18945-2.56836
					c1.50879,0,2.13867,1.17871,2.13867,2.29785C646.24042-97.2173,646.22968-97.04738,646.21014-96.92726z M642.60175-97.50734
					h2.97852c0-0.02051-0.00977-0.07031-0.00977-0.16016c-0.0498-0.7998-0.55957-1.40918-1.46875-1.40918
					C643.2121-99.07668,642.66229-98.37648,642.60175-97.50734z"/>
				<path d="M647.10272-95.85793l0.5791-0.25977c0.17969,0.50977,0.66016,0.93945,1.42969,0.93945
					c0.66895,0,1.09961-0.33008,1.09961-0.84961c0-1.30957-2.83887-0.49023-2.83887-2.23926
					c0-0.85938,0.69922-1.38867,1.68945-1.38867c0.78906,0,1.42871,0.3291,1.76855,1.0293l-0.5498,0.2998
					c-0.23926-0.44043-0.62988-0.71973-1.23926-0.71973s-0.99902,0.25-0.99902,0.67969c0,1.16895,2.84766,0.42969,2.84766,2.29883
					c0,0.99902-0.81934,1.49902-1.76855,1.49902C648.15155-94.56886,647.36249-95.06886,647.10272-95.85793z"/>
				<path d="M654.341-94.69875c-0.25977,0.08008-0.51953,0.12988-0.74902,0.12988c-0.66016,0-1.13965-0.37012-1.13965-1.23926
					v-3.18848H651.633v-0.58008h0.81934v-1.37891l0.68945-0.51953v1.89844h1.18945v0.58008h-1.18945v3.09863
					c0,0.47949,0.21973,0.69922,0.60938,0.69922c0.16992,0,0.36035-0.04004,0.58008-0.10938L654.341-94.69875z"/>
				<path d="M655.59198-101.61476h0.7998v1.01953h-0.7998V-101.61476z M655.65253-99.57668h0.68945v4.92773h-0.68945V-99.57668z"/>
				<path d="M657.73163-97.11769c0-1.45898,0.9502-2.53809,2.35938-2.53809c1.39941,0,2.36816,1.0791,2.36816,2.53809
					c0,1.44922-0.95898,2.54883-2.36816,2.54883S657.73163-95.65871,657.73163-97.11769z M661.76971-97.11769
					c0-1.11914-0.62988-1.92871-1.67871-1.92871c-1.05957,0-1.66895,0.81934-1.66895,1.92871
					c0,1.11914,0.61914,1.93945,1.66895,1.93945C661.15057-95.17824,661.76971-96.01808,661.76971-97.11769z"/>
				<path d="M667.77948-97.6675v3.01855h-0.68945v-2.84863c0-1.05957-0.33984-1.54883-1.0791-1.54883
					c-0.92969,0-1.46973,0.7998-1.46973,2.18848v2.20898h-0.68945v-4.92773h0.68945v0.71973
					c0.32031-0.49902,0.91992-0.79883,1.62891-0.79883C667.22968-99.65578,667.77948-98.97609,667.77948-97.6675z"/>
				<path d="M668.95233-95.85793l0.5791-0.25977c0.17969,0.50977,0.66016,0.93945,1.42969,0.93945
					c0.66895,0,1.09961-0.33008,1.09961-0.84961c0-1.30957-2.83887-0.49023-2.83887-2.23926
					c0-0.85938,0.69922-1.38867,1.68945-1.38867c0.78906,0,1.42871,0.3291,1.76855,1.0293l-0.5498,0.2998
					c-0.23926-0.44043-0.62988-0.71973-1.23926-0.71973s-0.99902,0.25-0.99902,0.67969c0,1.16895,2.84766,0.42969,2.84766,2.29883
					c0,0.99902-0.81934,1.49902-1.76855,1.49902C670.00116-94.56886,669.2121-95.06886,668.95233-95.85793z"/>
				<path d="M680.54022-97.7173v3.06836h-0.62988l-0.04004-0.75977c-0.38965,0.5498-0.98926,0.83984-1.76953,0.83984
					c-1.06934,0-1.69824-0.55957-1.69824-1.50977c0-0.49902,0.19922-0.87891,0.55957-1.09863
					c0.37988-0.21973,0.90918-0.31055,1.87891-0.31055h1.00879v-0.22949c0-0.85938-0.44922-1.3291-1.2793-1.3291
					c-0.61914,0-1.09863,0.26953-1.49902,0.81934l-0.49902-0.41992c0.5293-0.68945,1.16895-1.00879,2.00879-1.00879
					C679.8205-99.65578,680.54022-98.94679,680.54022-97.7173z M679.84979-96.85793v-0.06934h-0.94922
					c-0.90918,0-1.29883,0.05957-1.53906,0.24902c-0.17969,0.14062-0.26953,0.36035-0.26953,0.63965
					c0,0.5498,0.46973,0.90039,1.20898,0.90039C679.25018-95.1382,679.84979-95.80812,679.84979-96.85793z"/>
				<path d="M686.1496-97.6675v3.01855h-0.68945v-2.84863c0-1.05957-0.33984-1.54883-1.08008-1.54883
					c-0.92969,0-1.46875,0.7998-1.46875,2.18848v2.20898h-0.68945v-4.92773h0.68945v0.71973
					c0.31934-0.49902,0.91895-0.79883,1.62891-0.79883C685.59979-99.65578,686.1496-98.97609,686.1496-97.6675z"/>
				<path d="M691.96893-101.61476v6.96582h-0.68945v-0.65918c-0.35938,0.45898-0.90918,0.73926-1.62891,0.73926
					c-1.43945,0-2.18945-1.0791-2.18945-2.54883c0-1.53906,0.82031-2.54883,2.18945-2.54883c0.69922,0,1.25879,0.27051,1.62891,0.75
					v-2.69824H691.96893z M691.33905-97.11769c0-1.16895-0.59961-1.93848-1.58887-1.93848
					c-0.99902,0-1.59863,0.76953-1.59863,1.93848c0,1.11914,0.54883,1.93945,1.59863,1.93945
					C690.78925-95.17824,691.33905-95.99855,691.33905-97.11769z"/>
				<path d="M700.63885-101.61476v6.96582h-0.68945v-0.65918c-0.35938,0.45898-0.90918,0.73926-1.62891,0.73926
					c-1.43945,0-2.18945-1.0791-2.18945-2.54883c0-1.53906,0.82031-2.54883,2.18945-2.54883c0.69922,0,1.25879,0.27051,1.62891,0.75
					v-2.69824H700.63885z M700.00897-97.11769c0-1.16895-0.59961-1.93848-1.58887-1.93848
					c-0.99902,0-1.59863,0.76953-1.59863,1.93848c0,1.11914,0.54883,1.93945,1.59863,1.93945
					C699.45917-95.17824,700.00897-95.99855,700.00897-97.11769z"/>
				<path d="M702.03143-97.11769c0-1.45898,0.94922-2.53809,2.3584-2.53809c1.39941,0,2.36914,1.0791,2.36914,2.53809
					c0,1.44922-0.95996,2.54883-2.36914,2.54883S702.03143-95.65871,702.03143-97.11769z M706.06952-97.11769
					c0-1.11914-0.62988-1.92871-1.67969-1.92871c-1.05957,0-1.66895,0.81934-1.66895,1.92871
					c0,1.11914,0.62012,1.93945,1.66895,1.93945C705.4494-95.17824,706.06952-96.01808,706.06952-97.11769z"/>
				<path d="M711.90936-99.57668v4.92773h-0.68945v-0.70996c-0.35059,0.53027-0.97949,0.79004-1.62988,0.79004
					c-1.11914,0-1.6084-0.76953-1.6084-1.98926v-3.01855h0.68945v2.84863c0,0.7998,0.13965,1.5498,1.0791,1.5498
					c0.97949,0,1.46973-0.84961,1.46973-2.12891v-2.26953H711.90936z"/>
				<path d="M718.23846-97.11769c0,1.46973-0.74902,2.54883-2.18848,2.54883c-0.71973,0-1.26953-0.28027-1.62891-0.73926v0.65918
					h-0.68945v-6.96582h0.68945v2.69824c0.36914-0.47949,0.92969-0.75,1.62891-0.75
					C717.41913-99.66652,718.23846-98.65675,718.23846-97.11769z M717.54901-97.11769c0-1.16895-0.59961-1.93848-1.59863-1.93848
					c-0.99023,0-1.58984,0.76953-1.58984,1.93848c0,1.11914,0.5498,1.93945,1.58984,1.93945
					C716.99921-95.17824,717.54901-95.99855,717.54901-97.11769z"/>
				<path d="M721.6701-94.69875c-0.25977,0.08008-0.52051,0.12988-0.75,0.12988c-0.65918,0-1.13965-0.37012-1.13965-1.23926
					v-3.18848h-0.81934v-0.58008h0.81934v-1.37891l0.68945-0.51953v1.89844h1.18945v0.58008h-1.18945v3.09863
					c0,0.47949,0.2207,0.69922,0.61035,0.69922c0.16992,0,0.35938-0.04004,0.5791-0.10938L721.6701-94.69875z"/>
				<path d="M722.50116-95.85793l0.58008-0.25977c0.17969,0.50977,0.65918,0.93945,1.42871,0.93945
					c0.66992,0,1.09961-0.33008,1.09961-0.84961c0-1.30957-2.83887-0.49023-2.83887-2.23926
					c0-0.85938,0.7002-1.38867,1.68945-1.38867c0.79004,0,1.42969,0.3291,1.76953,1.0293l-0.5498,0.2998
					c-0.24023-0.44043-0.62988-0.71973-1.23926-0.71973c-0.61035,0-1,0.25-1,0.67969c0,1.16895,2.84863,0.42969,2.84863,2.29883
					c0,0.99902-0.81934,1.49902-1.76953,1.49902C723.55096-94.56886,722.76093-95.06886,722.50116-95.85793z"/>
			</g>
			<g enable-background="new    ">
				<path d="M634.42792-79.61476l-2.74805,6.96582h-0.58008l-2.75781-6.96582h0.78906l2.25879,5.85645l2.25879-5.85645H634.42792z"
					/>
				<path d="M635.64178-79.61476h0.79883v1.01953h-0.79883V-79.61476z M635.70135-77.57668h0.68945v4.92773h-0.68945V-77.57668z"/>
				<path d="M637.68182-73.85793l0.5791-0.25977c0.17969,0.50977,0.66016,0.93945,1.42969,0.93945
					c0.66895,0,1.09961-0.33008,1.09961-0.84961c0-1.30957-2.83887-0.49023-2.83887-2.23926
					c0-0.85938,0.69922-1.38867,1.68945-1.38867c0.78906,0,1.42871,0.3291,1.76855,1.0293l-0.5498,0.2998
					c-0.23926-0.44043-0.62988-0.71973-1.23926-0.71973s-0.99902,0.25-0.99902,0.67969c0,1.16895,2.84766,0.42969,2.84766,2.29883
					c0,0.99902-0.81934,1.49902-1.76855,1.49902C638.73065-72.56886,637.94159-73.06886,637.68182-73.85793z"/>
				<path d="M642.81171-79.61476h0.79883v1.01953h-0.79883V-79.61476z M642.87128-77.57668h0.68945v4.92773h-0.68945V-77.57668z"/>
				<path d="M644.95135-75.11769c0-1.45898,0.94922-2.53809,2.3584-2.53809c1.39941,0,2.36914,1.0791,2.36914,2.53809
					c0,1.44922-0.95996,2.54883-2.36914,2.54883S644.95135-73.65871,644.95135-75.11769z M648.98944-75.11769
					c0-1.11914-0.62988-1.92871-1.67969-1.92871c-1.05957,0-1.66895,0.81934-1.66895,1.92871
					c0,1.11914,0.62012,1.93945,1.66895,1.93945C648.36932-73.17824,648.98944-74.01808,648.98944-75.11769z"/>
				<path d="M654.99921-75.6675v3.01855h-0.68945v-2.84863c0-1.05957-0.33984-1.54883-1.08008-1.54883
					c-0.92969,0-1.46875,0.7998-1.46875,2.18848v2.20898h-0.68945v-4.92773h0.68945v0.71973
					c0.31934-0.49902,0.91895-0.79883,1.62891-0.79883C654.4494-77.65578,654.99921-76.97609,654.99921-75.6675z"/>
				<path d="M656.17108-73.85793l0.58008-0.25977c0.17969,0.50977,0.65918,0.93945,1.42871,0.93945
					c0.66992,0,1.09961-0.33008,1.09961-0.84961c0-1.30957-2.83887-0.49023-2.83887-2.23926
					c0-0.85938,0.7002-1.38867,1.68945-1.38867c0.79004,0,1.42969,0.3291,1.76953,1.0293l-0.5498,0.2998
					c-0.24023-0.44043-0.62988-0.71973-1.23926-0.71973c-0.61035,0-1,0.25-1,0.67969c0,1.16895,2.84863,0.42969,2.84863,2.29883
					c0,0.99902-0.81934,1.49902-1.76953,1.49902C657.22089-72.56886,656.43085-73.06886,656.17108-73.85793z"/>
				<path d="M667.75897-75.7173v3.06836h-0.62988l-0.04004-0.75977c-0.38965,0.5498-0.98926,0.83984-1.76953,0.83984
					c-1.06934,0-1.69824-0.55957-1.69824-1.50977c0-0.49902,0.19922-0.87891,0.55957-1.09863
					c0.37988-0.21973,0.90918-0.31055,1.87891-0.31055h1.00879v-0.22949c0-0.85938-0.44922-1.3291-1.2793-1.3291
					c-0.61914,0-1.09863,0.26953-1.49902,0.81934l-0.49902-0.41992c0.5293-0.68945,1.16895-1.00879,2.00879-1.00879
					C667.03925-77.65578,667.75897-76.94679,667.75897-75.7173z M667.06854-74.85793v-0.06934h-0.94922
					c-0.90918,0-1.29883,0.05957-1.53906,0.24902c-0.17969,0.14062-0.26953,0.36035-0.26953,0.63965
					c0,0.5498,0.46973,0.90039,1.20898,0.90039C666.46893-73.1382,667.06854-73.80812,667.06854-74.85793z"/>
				<path d="M673.36835-75.6675v3.01855h-0.68945v-2.84863c0-1.05957-0.33984-1.54883-1.0791-1.54883
					c-0.92969,0-1.46973,0.7998-1.46973,2.18848v2.20898h-0.68945v-4.92773h0.68945v0.71973
					c0.32031-0.49902,0.91992-0.79883,1.62891-0.79883C672.81854-77.65578,673.36835-76.97609,673.36835-75.6675z"/>
				<path d="M679.18866-79.61476v6.96582h-0.69043v-0.65918c-0.35938,0.45898-0.90918,0.73926-1.62891,0.73926
					c-1.43848,0-2.18848-1.0791-2.18848-2.54883c0-1.53906,0.81934-2.54883,2.18848-2.54883c0.7002,0,1.25977,0.27051,1.62891,0.75
					v-2.69824H679.18866z M678.55878-75.11769c0-1.16895-0.59961-1.93848-1.58887-1.93848c-1,0-1.59961,0.76953-1.59961,1.93848
					c0,1.11914,0.5498,1.93945,1.59961,1.93945C678.00897-73.17824,678.55878-73.99855,678.55878-75.11769z"/>
				<path d="M687.85858-79.61476v6.96582h-0.69043v-0.65918c-0.35938,0.45898-0.90918,0.73926-1.62891,0.73926
					c-1.43848,0-2.18848-1.0791-2.18848-2.54883c0-1.53906,0.81934-2.54883,2.18848-2.54883c0.7002,0,1.25977,0.27051,1.62891,0.75
					v-2.69824H687.85858z M687.2287-75.11769c0-1.16895-0.59961-1.93848-1.58887-1.93848c-1,0-1.59961,0.76953-1.59961,1.93848
					c0,1.11914,0.5498,1.93945,1.59961,1.93945C686.67889-73.17824,687.2287-73.99855,687.2287-75.11769z"/>
				<path d="M693.57831-74.92726h-3.6084c0.02051,1.0791,0.62012,1.72852,1.58984,1.72852
					c0.53906,0,0.96875-0.13965,1.41895-0.61914l0.47949,0.41895c-0.5791,0.61035-1.14941,0.83008-1.90918,0.83008
					c-1.49902,0-2.26855-1.11914-2.26855-2.51855c0-1.38965,0.75977-2.56836,2.18945-2.56836
					c1.50879,0,2.13867,1.17871,2.13867,2.29785C693.60858-75.2173,693.59784-75.04738,693.57831-74.92726z M689.96991-75.50734
					h2.97852c0-0.02051-0.00977-0.07031-0.00977-0.16016c-0.0498-0.7998-0.55957-1.40918-1.46875-1.40918
					C690.58026-77.07668,690.03046-76.37648,689.96991-75.50734z"/>
				<path d="M694.47089-73.85793l0.5791-0.25977c0.17969,0.50977,0.66016,0.93945,1.42969,0.93945
					c0.66895,0,1.09961-0.33008,1.09961-0.84961c0-1.30957-2.83887-0.49023-2.83887-2.23926
					c0-0.85938,0.69922-1.38867,1.68945-1.38867c0.78906,0,1.42871,0.3291,1.76855,1.0293l-0.5498,0.2998
					c-0.23926-0.44043-0.62988-0.71973-1.23926-0.71973s-0.99902,0.25-0.99902,0.67969c0,1.16895,2.84766,0.42969,2.84766,2.29883
					c0,0.99902-0.81934,1.49902-1.76855,1.49902C695.51971-72.56886,694.73065-73.06886,694.47089-73.85793z"/>
				<path d="M699.59979-79.61476h0.7998v1.01953h-0.7998V-79.61476z M699.66034-77.57668h0.68945v4.92773h-0.68945V-77.57668z"/>
				<path d="M705.16815-77.44582l-0.33984,0.55957c-0.22949-0.10059-0.43945-0.15039-0.64941-0.15039
					c-0.75977,0-1.31934,0.56934-1.31934,1.63965v2.74805h-0.68945v-4.92773h0.68945v0.74023
					c0.36035-0.64941,0.95996-0.81934,1.45898-0.81934C704.61835-77.65578,704.89862-77.59621,705.16815-77.44582z"/>
				<path d="M709.63788-74.92726h-3.6084c0.02051,1.0791,0.62012,1.72852,1.58984,1.72852
					c0.53906,0,0.96875-0.13965,1.41895-0.61914l0.47949,0.41895c-0.5791,0.61035-1.14941,0.83008-1.90918,0.83008
					c-1.49902,0-2.26855-1.11914-2.26855-2.51855c0-1.38965,0.75977-2.56836,2.18945-2.56836
					c1.50879,0,2.13867,1.17871,2.13867,2.29785C709.66815-75.2173,709.65741-75.04738,709.63788-74.92726z M706.02948-75.50734
					h2.97852c0-0.02051-0.00977-0.07031-0.00977-0.16016c-0.0498-0.7998-0.55957-1.40918-1.46875-1.40918
					C706.63983-77.07668,706.09003-76.37648,706.02948-75.50734z"/>
				<path d="M710.53046-73.85793l0.5791-0.25977c0.17969,0.50977,0.66016,0.93945,1.42969,0.93945
					c0.66895,0,1.09961-0.33008,1.09961-0.84961c0-1.30957-2.83887-0.49023-2.83887-2.23926
					c0-0.85938,0.69922-1.38867,1.68945-1.38867c0.78906,0,1.42871,0.3291,1.76855,1.0293l-0.5498,0.2998
					c-0.23926-0.44043-0.62988-0.71973-1.23926-0.71973s-0.99902,0.25-0.99902,0.67969c0,1.16895,2.84766,0.42969,2.84766,2.29883
					c0,0.99902-0.81934,1.49902-1.76855,1.49902C711.57928-72.56886,710.79022-73.06886,710.53046-73.85793z"/>
			</g>
			<path id="Rectangle_13359-2" fill="#FFCC66" d="M601.70001-102.6h11c2.73425-0.0272,4.97278,2.16728,5,4.90151
				c0.00031,0.03283,0.00031,0.06566,0,0.09849l0,0c0.02722,2.73423-2.1673,4.9728-4.90149,5
				c-0.03284,0.00033-0.06567,0.00033-0.09851,0h-11c-2.73425,0.0272-4.97278-2.16728-5-4.90151
				c-0.00031-0.03283-0.00031-0.06566,0-0.09849l0,0C596.70825-100.358,598.94202-102.59176,601.70001-102.6z"/>
			<path id="Rectangle_13360-2" fill="#FBFB97" d="M601.70001-80.6h11c2.73425-0.0272,4.97278,2.16728,5,4.90151
				c0.00031,0.03283,0.00031,0.06566,0,0.09849l0,0c0.02722,2.73423-2.1673,4.9728-4.90149,5
				c-0.03284,0.00033-0.06567,0.00033-0.09851,0h-11c-2.73425,0.0272-4.97278-2.16728-5-4.90151
				c-0.00031-0.03283-0.00031-0.06566,0-0.09849l0,0C596.70825-78.358,598.94202-80.59176,601.70001-80.6z"/>
		</g>
		<g id="Raggruppa_24474" transform="translate(0.2 137.196)">
			<path id="Tracciato_153173" fill="#F299C1" d="M242.39999-80.6c2.75801,0.00824,4.99176,2.242,5,5
				c-0.00824,2.758-2.24199,4.99176-5,5c-2.74326-0.0434-4.9566-2.25675-5-5C237.40823-78.358,239.64198-80.59176,242.39999-80.6
				 M242.39999-81.3c-3.1338,0.03407-5.66592,2.5662-5.7,5.7c0.03407,3.1338,2.56619,5.66592,5.7,5.7
				c3.1338-0.03407,5.66592-2.5662,5.7-5.7C248.06592-78.7338,245.5338-81.26592,242.39999-81.3z"/>
		</g>
		<g id="Raggruppa_24481" transform="translate(0.2 137.196)">
			<g id="Raggruppa_24480">
				<g>
					<defs>
						<rect id="SVGID_3_" x="236.60001" y="-103.869" width="11.6" height="11.6"/>
					</defs>
					<clipPath id="SVGID_4_">
						<use xlink:href="#SVGID_3_"  overflow="visible"/>
					</clipPath>
					<g id="Raggruppa_24479" clip-path="url(#SVGID_4_)">
						<g id="Raggruppa_24478">
							<g id="Raggruppa_24477">
								<g>
									<defs>
										<rect id="SVGID_5_" x="236.521" y="-103.748" width="11.61" height="11.61"/>
									</defs>
									<clipPath id="SVGID_6_">
										<use xlink:href="#SVGID_5_"  overflow="visible"/>
									</clipPath>
									<g id="Raggruppa_24476" clip-path="url(#SVGID_6_)">
										<g id="Raggruppa_24475">
											
												<circle id="Ellisse_33594" fill="#5151FC" stroke="#FFFFFF" stroke-width="0.75" stroke-miterlimit="10" cx="242.371" cy="-97.988" r="5.49"/>
											<rect id="Rettangolo_19346" x="241.381" y="-100.778" fill="none" width="3.24" height="6.57"/>
											<g enable-background="new    ">
												<path fill="#FFFFFF" d="M241.88936-100.78468h0.98242v0.86523h-0.98242V-100.78468z M241.9128-99.19386h0.93555v3.84375
													h-0.93555V-99.19386z"/>
											</g>
										</g>
									</g>
								</g>
							</g>
						</g>
					</g>
				</g>
			</g>
		</g>
	</g>
</g>
</svg>
