<?xml version="1.0" encoding="utf-8"?>
<!-- Generator: Adobe Illustrator 24.3.0, SVG Export Plug-In . SVG Version: 6.00 Build 0)  -->
<svg version="1.1" id="Layer_1" xmlns="http://www.w3.org/2000/svg" xmlns:xlink="http://www.w3.org/1999/xlink" x="0px" y="0px"
	 width="250px" height="108px" viewBox="0 0 250 108" style="enable-background:new 0 0 250 108;" xml:space="preserve">
<style type="text/css">
	.st0{clip-path:url(#SVGID_2_);}
	.st1{opacity:0.355;fill:#FFD337;enable-background:new    ;}
	.st2{fill:none;stroke:#000000;stroke-width:0.5;}
	.st3{fill:none;stroke:#000000;stroke-width:0.5;stroke-miterlimit:10;}
	.st4{enable-background:new    ;}
	.st5{fill:none;}
</style>
<g>
	<defs>
		<rect id="SVGID_1_" y="0" width="250" height="108"/>
	</defs>
	<clipPath id="SVGID_2_">
		<use xlink:href="#SVGID_1_"  style="overflow:visible;"/>
	</clipPath>
	<g id="a" class="st0">
		<g transform="translate(-1.9 -0.8)">
			<rect x="2.1" y="1.4" class="st1" width="66.2" height="19.1"/>
			<path class="st2" d="M1.9,108.6"/>
			<line class="st3" x1="1.9" y1="20.1" x2="251.7" y2="20.1"/>
			<line class="st3" x1="1.9" y1="55.7" x2="251.7" y2="55.7"/>
			<line class="st3" x1="1.9" y1="38.1" x2="251.7" y2="38.1"/>
			<line class="st3" x1="1.9" y1="91.3" x2="251.7" y2="91.3"/>
			<line class="st3" x1="1.9" y1="73.4" x2="251.7" y2="73.4"/>
			<line class="st3" x1="68.1" y1="0.8" x2="68.1" y2="108.8"/>
			<line class="st3" x1="114" y1="0.8" x2="114" y2="108.8"/>
			<line class="st3" x1="159.9" y1="0.8" x2="159.9" y2="108.8"/>
			<line class="st3" x1="205.9" y1="0.8" x2="205.9" y2="108.8"/>
			<g class="st4">
				<path d="M7.6,4h0.5L10,8.9H9.3l-0.4-1h-2l-0.4,1H5.8L7.6,4z M8.7,7.2L7.9,5L7.1,7.2H8.7z"/>
				<path d="M10.8,4h1l1.3,3.7L14.5,4h1v4.8h-0.7v-4l-1.3,3.6h-0.7l-1.3-3.6v4h-0.7V4z"/>
				<path d="M16.9,4h1.5C19.2,4,20,4.4,20,5.3c0,0.5-0.3,0.8-0.6,1c0.5,0.2,0.8,0.6,0.8,1.2c0,0.9-0.8,1.3-1.6,1.3h-1.7V4z
					 M18.5,6.1c0.4,0,0.8-0.2,0.8-0.7c0-0.5-0.4-0.7-0.9-0.7h-0.8v1.4H18.5z M18.7,8.2c0.5,0,0.9-0.2,0.9-0.7c0-0.5-0.4-0.8-0.9-0.8
					h-1v1.5H18.7z"/>
				<path d="M21.2,4h0.7v4.8h-0.7V4z"/>
				<path d="M23.3,4h3.2v0.6H24v1.5h2.2v0.6H24v1.5h2.5v0.6h-3.2V4z"/>
				<path d="M27.5,4h0.8l2.1,3.8V4h0.7v4.8h-0.8l-2-3.9v3.9h-0.7V4z"/>
				<path d="M33.4,4.6h-1.6V4h3.8v0.6h-1.6v4.2h-0.7V4.6z"/>
				<path d="M37.4,4h0.5l1.9,4.8H39l-0.4-1h-2l-0.4,1h-0.8L37.4,4z M38.4,7.2L37.7,5l-0.8,2.1H38.4z"/>
				<path d="M40.2,8.3l2.9-3.7h-2.7V4H44v0.5l-2.9,3.7H44v0.6h-3.8V8.3z"/>
				<path d="M45,4h0.7v4.8H45V4z"/>
				<path d="M46.7,6.4C46.7,5.1,47.4,4,49,4c1.5,0,2.2,1.2,2.2,2.5c0,1.3-0.7,2.5-2.2,2.5C47.4,8.9,46.7,7.8,46.7,6.4z M50.5,6.4
					c0-1-0.4-1.9-1.5-1.9c-1.1,0-1.5,0.9-1.5,1.9c0,1,0.4,1.9,1.5,1.9C50.1,8.3,50.5,7.4,50.5,6.4z"/>
				<path d="M52.2,4h0.8l2.1,3.8V4h0.7v4.8H55l-2-3.9v3.9h-0.7V4z"/>
				<path d="M57.1,4h0.7v4.8h-0.7V4z"/>
			</g>
			<g class="st4">
				<path d="M6.3,11.9h1.5c0.9,0,1.6,0.5,1.6,1.4c0,0.6-0.4,1.1-1,1.3l1.3,2.2H8.9l-1.2-2.1H7v2.1H6.3V11.9z M7.9,14
					c0.5,0,0.8-0.3,0.8-0.7c0-0.5-0.4-0.8-0.9-0.8H7V14H7.9z"/>
				<path d="M10.6,11.9h0.7v4.8h-0.7V11.9z"/>
				<path d="M12.3,14.3c0-1.3,0.7-2.5,2.3-2.5c0.9,0,1.7,0.4,2,1.3l-0.6,0.3c-0.2-0.7-0.8-0.9-1.4-0.9c-1.1,0-1.6,0.8-1.6,1.8
					c0,1,0.5,1.9,1.6,1.9c0.6,0,1.1-0.2,1.4-1l0.6,0.3c-0.4,0.9-1.1,1.3-2,1.3C13,16.8,12.3,15.6,12.3,14.3z"/>
				<path d="M17.1,14.3c0-1.3,0.7-2.5,2.2-2.5c1.5,0,2.2,1.2,2.2,2.5c0,1.3-0.7,2.5-2.2,2.5C17.8,16.8,17.1,15.6,17.1,14.3z
					 M20.9,14.3c0-1-0.4-1.9-1.5-1.9c-1.1,0-1.5,0.9-1.5,1.9c0,1,0.4,1.9,1.5,1.9C20.5,16.1,20.9,15.3,20.9,14.3z"/>
				<path d="M22.6,11.9h1.5c0.9,0,1.6,0.5,1.6,1.4c0,0.6-0.4,1.1-1,1.3l1.3,2.2h-0.8L24,14.6h-0.7v2.1h-0.7V11.9z M24.2,14
					c0.5,0,0.8-0.3,0.8-0.7c0-0.5-0.4-0.8-0.9-0.8h-0.8V14H24.2z"/>
				<path d="M26.9,11.9h1.5c0.9,0,1.6,0.5,1.6,1.4c0,0.6-0.4,1.1-1,1.3l1.3,2.2h-0.8l-1.2-2.1h-0.7v2.1h-0.7V11.9z M28.4,14
					c0.5,0,0.8-0.3,0.8-0.7c0-0.5-0.4-0.8-0.9-0.8h-0.8V14H28.4z"/>
				<path d="M31.1,11.9h3.2v0.6h-2.5V14H34v0.6h-2.2v1.5h2.5v0.6h-3.2V11.9z"/>
				<path d="M35.4,11.9h0.8l2.1,3.8v-3.8h0.7v4.8h-0.8l-2-3.9v3.9h-0.7V11.9z"/>
				<path d="M41.3,12.5h-1.6v-0.6h3.8v0.6H42v4.2h-0.7V12.5z"/>
				<path d="M44.4,11.9h0.7v4.8h-0.7V11.9z"/>
			</g>
			<g class="st4">
				<path d="M7.6,97h0.8l2.1,3.8V97h0.7v4.8h-0.8l-2-3.9v3.9H7.6V97z"/>
				<path d="M12,100.2c0-0.9,0.5-1.8,1.6-1.8c1.2,0,1.5,0.9,1.5,1.7c0,0.1,0,0.2,0,0.3h-2.4c0,0.5,0.3,1,0.9,1
					c0.4,0,0.6-0.1,0.9-0.4l0.5,0.4c-0.4,0.4-0.8,0.6-1.4,0.6C12.6,101.9,12,101.1,12,100.2z M14.5,99.9c0-0.5-0.3-0.9-0.9-0.9
					c-0.6,0-0.8,0.4-0.9,0.9H14.5z"/>
				<path d="M15.4,98.4h0.7l0.6,2.5l0.7-2.5h0.6l0.7,2.5l0.6-2.5h0.7l-1,3.4h-0.6l-0.7-2.5l-0.7,2.5h-0.6L15.4,98.4z"/>
				<path d="M23.9,100L22.1,97H23l1.3,2.3l1.3-2.3h0.8l-1.8,2.9v1.9h-0.7V100z"/>
				<path d="M26.1,100.1c0-1,0.7-1.8,1.7-1.8c1,0,1.7,0.8,1.7,1.8c0,1-0.7,1.8-1.7,1.8C26.8,101.9,26.1,101.1,26.1,100.1z
					 M28.8,100.1c0-0.6-0.3-1.2-1-1.2c-0.7,0-1,0.6-1,1.2c0,0.6,0.3,1.2,1,1.2C28.5,101.4,28.8,100.8,28.8,100.1z"/>
				<path d="M30.2,98.4h0.6V99c0.2-0.4,0.6-0.7,1-0.7c0.2,0,0.4,0.1,0.6,0.2l-0.3,0.6C32,99,31.9,99,31.8,99c-0.5,0-0.9,0.4-0.9,1.3
					v1.6h-0.6V98.4z"/>
				<path d="M33,97h0.7v3.1l1.4-1.6h0.8l-1.2,1.3l1.4,2.1h-0.8l-1-1.7l-0.6,0.7v1H33V97z"/>
			</g>
			<g class="st4">
				<path d="M7.6,80H9c1,0,1.6,0.5,1.6,1.4c0,0.9-0.7,1.4-1.6,1.4H8.3v2.1H7.6V80z M9,82.1c0.6,0,0.9-0.2,0.9-0.7
					c0-0.5-0.3-0.7-0.9-0.7H8.3v1.5H9z"/>
				<path d="M10.9,83.8c0-0.7,0.6-1,1.4-1h0.8c0-0.5-0.2-0.9-0.8-0.9c-0.4,0-0.7,0.3-0.9,0.5L11.1,82c0.3-0.4,0.7-0.7,1.4-0.7
					c0.9,0,1.4,0.6,1.4,1.4v2.1h-0.6l0-0.6c-0.3,0.5-0.7,0.6-1.1,0.6C11.4,84.9,10.9,84.5,10.9,83.8z M13.2,83.3h-0.8
					c-0.5,0-0.8,0.2-0.8,0.5c0,0.3,0.2,0.5,0.6,0.5C12.8,84.3,13.2,83.8,13.2,83.3z"/>
				<path d="M14.8,81.4h0.6V82c0.2-0.4,0.6-0.7,1-0.7c0.2,0,0.4,0.1,0.6,0.2l-0.3,0.6C16.6,82,16.5,82,16.3,82
					c-0.5,0-0.9,0.4-0.9,1.3v1.6h-0.6V81.4z"/>
				<path d="M17.5,80h0.7v0.7h-0.7V80z M17.6,81.4h0.7v3.4h-0.7V81.4z"/>
				<path d="M22.1,85.3c0,0.7-0.7,1.1-1.4,1.1c-0.9,0-1.5-0.5-1.5-1.2c0-0.1,0-0.1,0-0.1l0.4-0.4c-0.2-0.1-0.4-0.3-0.4-0.7
					c0-0.3,0.1-0.5,0.3-0.6c-0.2-0.2-0.3-0.5-0.3-0.8c0-0.7,0.6-1.2,1.3-1.2c0.3,0,0.6,0.1,0.9,0.3l0.5-0.5l0.4,0.4L21.7,82
					c0.1,0.2,0.1,0.4,0.1,0.6c0,0.7-0.6,1.2-1.3,1.2c-0.2,0-0.5,0-0.6-0.1c-0.1,0.1-0.1,0.1-0.1,0.2c0,0.3,0.4,0.4,1,0.4
					C21.4,84.4,22.1,84.5,22.1,85.3z M21.4,85.4c0-0.3-0.4-0.4-1-0.5c-0.2,0-0.3-0.1-0.5-0.1l-0.3,0.4c0,0.4,0.4,0.6,1,0.6
					C21.1,85.8,21.4,85.7,21.4,85.4z M19.8,82.5c0,0.4,0.2,0.7,0.7,0.7c0.4,0,0.7-0.3,0.7-0.7c0-0.4-0.2-0.7-0.7-0.7
					C20.1,81.8,19.8,82.2,19.8,82.5z"/>
				<path d="M22.8,80h0.7v0.7h-0.7V80z M22.8,81.4h0.7v3.4h-0.7V81.4z"/>
			</g>
			<g class="st4">
				<path d="M7.1,29.5l0.7-0.2c0.1,0.6,0.5,0.9,1.1,0.9c0.6,0,0.9-0.3,0.9-0.7c0-1.1-2.3-0.8-2.3-2.3c0-0.8,0.6-1.3,1.4-1.3
					c0.6,0,1.1,0.2,1.4,0.8L9.7,27c-0.2-0.4-0.5-0.5-0.9-0.5c-0.4,0-0.7,0.2-0.7,0.6c0,1,2.3,0.7,2.3,2.3c0,0.9-0.7,1.4-1.6,1.4
					C8.1,30.9,7.3,30.4,7.1,29.5z"/>
				<path d="M10.9,29.8c0-0.7,0.6-1,1.4-1h0.8c0-0.5-0.2-0.9-0.8-0.9c-0.4,0-0.7,0.3-0.9,0.5L11.1,28c0.3-0.4,0.7-0.7,1.4-0.7
					c0.9,0,1.4,0.6,1.4,1.4v2.1h-0.6l0-0.6c-0.3,0.5-0.7,0.6-1.1,0.6C11.4,30.9,10.9,30.5,10.9,29.8z M13.2,29.3h-0.8
					c-0.5,0-0.8,0.2-0.8,0.5c0,0.3,0.2,0.5,0.6,0.5C12.8,30.3,13.2,29.8,13.2,29.3z"/>
				<path d="M14.8,27.4h0.7v0.5c0.2-0.4,0.6-0.6,1.1-0.6c0.9,0,1.2,0.7,1.2,1.4v2.1h-0.7v-2c0-0.5-0.2-0.9-0.7-0.9
					c-0.5,0-0.9,0.3-0.9,1.1v1.8h-0.7V27.4z"/>
				<path d="M18.7,27.4h0.6V28c0.2-0.4,0.6-0.7,1-0.7c0.2,0,0.4,0.1,0.6,0.2l-0.3,0.6C20.5,28,20.4,28,20.2,28
					c-0.5,0-0.9,0.4-0.9,1.3v1.6h-0.6V27.4z"/>
				<path d="M21,29.1c0-0.9,0.5-1.8,1.6-1.8c1.2,0,1.5,0.9,1.5,1.7c0,0.1,0,0.2,0,0.3h-2.4c0,0.5,0.3,1,0.9,1c0.4,0,0.6-0.1,0.9-0.4
					l0.5,0.4c-0.4,0.4-0.8,0.6-1.4,0.6C21.5,30.9,21,30,21,29.1z M23.4,28.8c0-0.5-0.3-0.9-0.9-0.9c-0.6,0-0.8,0.4-0.9,0.9H23.4z"/>
				<path d="M24.8,27.4h0.7v0.4c0.2-0.3,0.5-0.5,0.9-0.5c0.5,0,0.8,0.2,1,0.7c0.2-0.4,0.6-0.7,1.1-0.7c0.9,0,1.2,0.7,1.2,1.4v2.1H29
					v-2c0-0.4-0.1-0.9-0.6-0.9c-0.5,0-0.8,0.5-0.8,1v1.9h-0.7v-2c0-0.4-0.1-0.9-0.6-0.9s-0.8,0.5-0.8,1.1v1.8h-0.7V27.4z"/>
				<path d="M30.4,29.1c0-1,0.7-1.8,1.7-1.8c1,0,1.7,0.8,1.7,1.8c0,1-0.7,1.8-1.7,1.8C31.1,30.9,30.4,30.1,30.4,29.1z M33.1,29.1
					c0-0.6-0.3-1.2-1-1.2c-0.7,0-1,0.6-1,1.2c0,0.6,0.3,1.2,1,1.2C32.8,30.3,33.1,29.7,33.1,29.1z"/>
			</g>
			<g class="st4">
				<path d="M7.6,61H9c0.9,0,1.6,0.5,1.6,1.4c0,0.6-0.4,1.1-1,1.3l1.3,2.2h-0.8L9,63.7H8.3v2.1H7.6V61z M9.1,63.1
					c0.5,0,0.8-0.3,0.8-0.7c0-0.5-0.4-0.8-0.9-0.8H8.3v1.5H9.1z"/>
				<path d="M11.3,64.1c0-1,0.7-1.8,1.7-1.8c1,0,1.7,0.8,1.7,1.8c0,1-0.7,1.8-1.7,1.8C11.9,65.9,11.3,65.1,11.3,64.1z M13.9,64.1
					c0-0.6-0.3-1.2-1-1.2c-0.7,0-1,0.6-1,1.2c0,0.6,0.3,1.2,1,1.2C13.6,65.3,13.9,64.7,13.9,64.1z"/>
				<path d="M15.4,62.4h0.7v0.4c0.2-0.3,0.5-0.5,0.9-0.5c0.5,0,0.8,0.2,1,0.7c0.2-0.4,0.6-0.7,1.1-0.7c0.9,0,1.2,0.7,1.2,1.4v2.1
					h-0.7v-2c0-0.4-0.1-0.9-0.6-0.9c-0.5,0-0.8,0.5-0.8,1v1.9h-0.7v-2c0-0.4-0.1-0.9-0.6-0.9s-0.8,0.5-0.8,1.1v1.8h-0.7V62.4z"/>
				<path d="M21,64.8c0-0.7,0.6-1,1.4-1h0.8c0-0.5-0.2-0.9-0.8-0.9c-0.4,0-0.7,0.3-0.9,0.5L21.1,63c0.3-0.4,0.7-0.7,1.4-0.7
					c0.9,0,1.4,0.6,1.4,1.4v2.1h-0.6l0-0.6c-0.3,0.5-0.7,0.6-1.1,0.6C21.5,65.9,21,65.5,21,64.8z M23.2,64.3h-0.8
					c-0.5,0-0.8,0.2-0.8,0.5c0,0.3,0.2,0.5,0.6,0.5C22.8,65.3,23.2,64.8,23.2,64.3z"/>
			</g>
			<g class="st4">
				<path d="M8.6,44.4H7v-0.6h3.8v0.6H9.3v4.2H8.6V44.4z"/>
				<path d="M10.6,46.9c0-1,0.7-1.8,1.7-1.8c1,0,1.7,0.8,1.7,1.8c0,1-0.7,1.8-1.7,1.8C11.3,48.7,10.6,47.9,10.6,46.9z M13.3,46.9
					c0-0.6-0.3-1.2-1-1.2c-0.7,0-1,0.6-1,1.2c0,0.6,0.3,1.2,1,1.2C13,48.1,13.3,47.5,13.3,46.9z"/>
				<path d="M14.7,45.2h0.6v0.6c0.2-0.4,0.6-0.7,1-0.7c0.2,0,0.4,0.1,0.6,0.2l-0.3,0.6c-0.1-0.1-0.2-0.1-0.4-0.1
					c-0.5,0-0.9,0.4-0.9,1.3v1.6h-0.6V45.2z"/>
				<path d="M17.5,43.8h0.7v0.7h-0.7V43.8z M17.5,45.2h0.7v3.4h-0.7V45.2z"/>
				<path d="M19.2,45.2h0.7v0.5c0.2-0.4,0.6-0.6,1.1-0.6c0.9,0,1.2,0.7,1.2,1.4v2.1h-0.7v-2c0-0.5-0.2-0.9-0.7-0.9
					c-0.5,0-0.9,0.3-0.9,1.1v1.8h-0.7V45.2z"/>
				<path d="M22.8,46.9c0-1,0.7-1.8,1.7-1.8c1,0,1.7,0.8,1.7,1.8c0,1-0.7,1.8-1.7,1.8C23.5,48.7,22.8,47.9,22.8,46.9z M25.5,46.9
					c0-0.6-0.3-1.2-1-1.2c-0.7,0-1,0.6-1,1.2c0,0.6,0.3,1.2,1,1.2C25.2,48.1,25.5,47.5,25.5,46.9z"/>
			</g>
			<g class="st4">
				<path d="M73.8,8.4h-1.3V7.8h0.8c0.4,0,0.6-0.2,0.6-0.6V7.2h0.6V12h-0.7V8.4z"/>
				<path d="M78.2,10.3c-0.1,0-0.2,0-0.3,0c-0.9,0-1.7-0.7-1.7-1.6c0-0.9,0.7-1.7,1.7-1.7c0.9,0,1.7,0.7,1.7,1.6
					c0,0.3-0.1,0.6-0.2,0.8L77.9,12h-0.8L78.2,10.3z M78.9,8.7c0-0.6-0.4-1-1-1c-0.6,0-1,0.5-1,1s0.4,1,1,1
					C78.4,9.8,78.9,9.3,78.9,8.7z"/>
				<path d="M82.2,10.8H80v-0.4l2.3-3.2h0.6v3h0.8v0.6h-0.8V12h-0.7V10.8z M82.2,10.2V8.2l-1.4,1.9H82.2z"/>
				<path d="M84.2,10.7l0.6-0.2c0.1,0.5,0.4,1,1,1c0.6,0,1-0.5,1-1.1c0-0.5-0.3-1-1-1c-0.4,0-0.7,0.2-0.9,0.5l-0.6-0.2l0.4-2.5h2.5
					v0.6h-2L85.1,9c0.3-0.2,0.6-0.3,0.9-0.3c0.9,0,1.6,0.7,1.6,1.6c0,0.9-0.7,1.7-1.7,1.7C85,12.1,84.4,11.4,84.2,10.7z"/>
				<path d="M89.8,9.6h1.9v0.5h-1.9V9.6z"/>
				<path d="M95.6,8.4h-1.3V7.8h0.8c0.4,0,0.6-0.2,0.6-0.6V7.2h0.6V12h-0.7V8.4z"/>
				<path d="M99.9,10.3c-0.1,0-0.2,0-0.3,0c-0.9,0-1.7-0.7-1.7-1.6c0-0.9,0.7-1.7,1.7-1.7c0.9,0,1.7,0.7,1.7,1.6
					c0,0.3-0.1,0.6-0.2,0.8L99.6,12h-0.8L99.9,10.3z M100.6,8.7c0-0.6-0.4-1-1-1c-0.6,0-1,0.5-1,1s0.4,1,1,1
					C100.2,9.8,100.6,9.3,100.6,8.7z"/>
				<path d="M102,10.7l0.6-0.2c0.1,0.5,0.4,1,1,1c0.6,0,1-0.5,1-1.1c0-0.5-0.3-1-1-1c-0.4,0-0.7,0.2-0.9,0.5l-0.6-0.2l0.4-2.5h2.5
					v0.6h-2L102.9,9c0.3-0.2,0.6-0.3,0.9-0.3c0.9,0,1.6,0.7,1.6,1.6c0,0.9-0.7,1.7-1.7,1.7C102.8,12.1,102.1,11.4,102,10.7z"/>
				<path d="M106,10.7l0.6-0.2c0.1,0.5,0.4,1,1,1c0.6,0,1-0.5,1-1.1c0-0.5-0.3-1-1-1c-0.4,0-0.7,0.2-0.9,0.5l-0.6-0.2l0.4-2.5h2.5
					v0.6h-2L106.9,9c0.3-0.2,0.6-0.3,0.9-0.3c0.9,0,1.6,0.7,1.6,1.6c0,0.9-0.7,1.7-1.7,1.7C106.8,12.1,106.1,11.4,106,10.7z"/>
			</g>
			<g class="st4">
				<path d="M119.8,8.4h-1.3V7.8h0.8c0.4,0,0.6-0.2,0.6-0.6V7.2h0.6V12h-0.7V8.4z"/>
				<path d="M124.2,10.3c-0.1,0-0.2,0-0.3,0c-0.9,0-1.7-0.7-1.7-1.6c0-0.9,0.7-1.7,1.7-1.7c0.9,0,1.7,0.7,1.7,1.6
					c0,0.3-0.1,0.6-0.2,0.8l-1.4,2.4h-0.8L124.2,10.3z M124.9,8.7c0-0.6-0.4-1-1-1c-0.6,0-1,0.5-1,1s0.4,1,1,1
					C124.4,9.8,124.9,9.3,124.9,8.7z"/>
				<path d="M126.2,10.7l0.6-0.2c0.1,0.5,0.4,1,1,1c0.6,0,1-0.5,1-1.1c0-0.5-0.3-1-1-1c-0.4,0-0.7,0.2-0.9,0.5l-0.6-0.2l0.4-2.5h2.5
					v0.6h-2L127.1,9c0.3-0.2,0.6-0.3,0.9-0.3c0.9,0,1.6,0.7,1.6,1.6c0,0.9-0.7,1.7-1.7,1.7C127,12.1,126.4,11.4,126.2,10.7z"/>
				<path d="M130.2,10.4c0-0.3,0.1-0.6,0.2-0.8l1.4-2.4h0.8l-1.1,1.7c0.1,0,0.2,0,0.3,0c0.9,0,1.7,0.7,1.7,1.6
					c0,0.9-0.7,1.7-1.7,1.7C131,12.1,130.2,11.3,130.2,10.4z M132.9,10.4c0-0.6-0.5-1-1-1c-0.6,0-1,0.5-1,1c0,0.6,0.4,1,1,1
					C132.5,11.4,132.9,11,132.9,10.4z"/>
				<path d="M135.8,9.6h1.9v0.5h-1.9V9.6z"/>
				<path d="M141.6,8.4h-1.3V7.8h0.8c0.4,0,0.6-0.2,0.6-0.6V7.2h0.6V12h-0.7V8.4z"/>
				<path d="M145.9,10.3c-0.1,0-0.2,0-0.3,0c-0.9,0-1.7-0.7-1.7-1.6c0-0.9,0.7-1.7,1.7-1.7c0.9,0,1.7,0.7,1.7,1.6
					c0,0.3-0.1,0.6-0.2,0.8l-1.4,2.4h-0.8L145.9,10.3z M146.6,8.7c0-0.6-0.4-1-1-1c-0.6,0-1,0.5-1,1s0.4,1,1,1
					C146.2,9.8,146.6,9.3,146.6,8.7z"/>
				<path d="M148,10.4c0-0.3,0.1-0.6,0.2-0.8l1.4-2.4h0.8l-1.1,1.7c0.1,0,0.2,0,0.3,0c0.9,0,1.7,0.7,1.7,1.6c0,0.9-0.7,1.7-1.7,1.7
					C148.7,12.1,148,11.3,148,10.4z M150.6,10.4c0-0.6-0.5-1-1-1c-0.6,0-1,0.5-1,1c0,0.6,0.4,1,1,1C150.2,11.4,150.6,11,150.6,10.4z
					"/>
				<path d="M151.9,10.7l0.6-0.2c0.1,0.5,0.4,1,1,1c0.6,0,1-0.5,1-1.1c0-0.5-0.3-1-1-1c-0.4,0-0.7,0.2-0.9,0.5l-0.6-0.2l0.4-2.5h2.5
					v0.6h-2L152.9,9c0.3-0.2,0.6-0.3,0.9-0.3c0.9,0,1.6,0.7,1.6,1.6c0,0.9-0.7,1.7-1.7,1.7C152.7,12.1,152.1,11.4,151.9,10.7z"/>
			</g>
			<g class="st4">
				<path d="M166.8,8.4h-1.3V7.8h0.8c0.4,0,0.6-0.2,0.6-0.6V7.2h0.6V12h-0.7V8.4z"/>
				<path d="M171.2,10.3c-0.1,0-0.2,0-0.3,0c-0.9,0-1.7-0.7-1.7-1.6c0-0.9,0.7-1.7,1.7-1.7c0.9,0,1.7,0.7,1.7,1.6
					c0,0.3-0.1,0.6-0.2,0.8l-1.4,2.4h-0.8L171.2,10.3z M171.9,8.7c0-0.6-0.4-1-1-1c-0.5,0-1,0.5-1,1s0.4,1,1,1
					C171.4,9.8,171.9,9.3,171.9,8.7z"/>
				<path d="M173.2,10.4c0-0.3,0.1-0.6,0.2-0.8l1.4-2.4h0.8l-1.1,1.7c0.1,0,0.2,0,0.3,0c0.9,0,1.7,0.7,1.7,1.6
					c0,0.9-0.7,1.7-1.7,1.7C174,12.1,173.2,11.3,173.2,10.4z M175.9,10.4c0-0.6-0.5-1-1-1c-0.6,0-1,0.5-1,1c0,0.6,0.4,1,1,1
					C175.5,11.4,175.9,11,175.9,10.4z"/>
				<path d="M177.2,10.4c0-0.3,0.1-0.6,0.2-0.8l1.4-2.4h0.8l-1.1,1.7c0.1,0,0.2,0,0.3,0c0.9,0,1.7,0.7,1.7,1.6
					c0,0.9-0.7,1.7-1.7,1.7C178,12.1,177.2,11.3,177.2,10.4z M179.9,10.4c0-0.6-0.5-1-1-1c-0.6,0-1,0.5-1,1c0,0.6,0.4,1,1,1
					C179.5,11.4,179.9,11,179.9,10.4z"/>
				<path d="M182.8,9.6h1.9v0.5h-1.9V9.6z"/>
				<path d="M188.6,8.4h-1.3V7.8h0.8c0.4,0,0.6-0.2,0.6-0.6V7.2h0.6V12h-0.7V8.4z"/>
				<path d="M192.9,10.3c-0.1,0-0.2,0-0.3,0c-0.9,0-1.7-0.7-1.7-1.6c0-0.9,0.7-1.7,1.7-1.7c0.9,0,1.7,0.7,1.7,1.6
					c0,0.3-0.1,0.6-0.2,0.8l-1.4,2.4h-0.8L192.9,10.3z M193.6,8.7c0-0.6-0.4-1-1-1c-0.6,0-1,0.5-1,1s0.4,1,1,1
					C193.2,9.8,193.6,9.3,193.6,8.7z"/>
				<path d="M197.5,7.8H195V7.2h3.3v0.3l-2.1,4.5h-0.8L197.5,7.8z"/>
				<path d="M198.9,10.7l0.6-0.2c0.1,0.5,0.4,1,1,1c0.6,0,1-0.5,1-1.1c0-0.5-0.3-1-1-1c-0.4,0-0.7,0.2-0.9,0.5l-0.6-0.2l0.4-2.5h2.5
					v0.6h-2L199.8,9c0.3-0.2,0.6-0.3,0.9-0.3c0.9,0,1.6,0.7,1.6,1.6c0,0.9-0.7,1.7-1.7,1.7C199.7,12.1,199.1,11.4,198.9,10.7z"/>
			</g>
			<g class="st4">
				<path d="M212.8,8.4h-1.3V7.8h0.8c0.4,0,0.6-0.2,0.6-0.6V7.2h0.6V12h-0.7V8.4z"/>
				<path d="M217.2,10.3c-0.1,0-0.2,0-0.3,0c-0.9,0-1.7-0.7-1.7-1.6c0-0.9,0.7-1.7,1.7-1.7c0.9,0,1.7,0.7,1.7,1.6
					c0,0.3-0.1,0.6-0.2,0.8l-1.4,2.4h-0.8L217.2,10.3z M217.9,8.7c0-0.6-0.4-1-1-1c-0.5,0-1,0.5-1,1s0.4,1,1,1
					C217.4,9.8,217.9,9.3,217.9,8.7z"/>
				<path d="M221.8,7.8h-2.5V7.2h3.3v0.3l-2.1,4.5h-0.8L221.8,7.8z"/>
				<path d="M223.2,10.4c0-0.3,0.1-0.6,0.2-0.8l1.4-2.4h0.8l-1.1,1.7c0.1,0,0.2,0,0.3,0c0.9,0,1.7,0.7,1.7,1.6
					c0,0.9-0.7,1.7-1.7,1.7C224,12.1,223.2,11.3,223.2,10.4z M225.9,10.4c0-0.6-0.5-1-1-1c-0.6,0-1,0.5-1,1c0,0.6,0.4,1,1,1
					C225.5,11.4,225.9,11,225.9,10.4z"/>
				<path d="M228.8,9.6h1.9v0.5h-1.9V9.6z"/>
				<path d="M234.6,8.4h-1.3V7.8h0.8c0.4,0,0.6-0.2,0.6-0.6V7.2h0.6V12h-0.7V8.4z"/>
				<path d="M238.9,10.3c-0.1,0-0.2,0-0.3,0c-0.9,0-1.7-0.7-1.7-1.6c0-0.9,0.7-1.7,1.7-1.7c0.9,0,1.7,0.7,1.7,1.6
					c0,0.3-0.1,0.6-0.2,0.8l-1.4,2.4h-0.8L238.9,10.3z M239.6,8.7c0-0.6-0.4-1-1-1c-0.6,0-1,0.5-1,1s0.4,1,1,1
					C239.2,9.8,239.6,9.3,239.6,8.7z"/>
				<path d="M240.9,10.6c0-0.6,0.3-1,0.8-1.2c-0.3-0.2-0.5-0.6-0.5-1c0-0.8,0.7-1.3,1.5-1.3c0.8,0,1.5,0.5,1.5,1.3
					c0,0.4-0.2,0.8-0.5,1c0.5,0.2,0.8,0.7,0.8,1.2c0,1-0.8,1.4-1.7,1.4C241.7,12.1,240.9,11.6,240.9,10.6z M243.6,10.6
					c0-0.6-0.5-0.9-1-0.9c-0.6,0-1,0.3-1,0.9c0,0.6,0.5,0.9,1,0.9C243.2,11.5,243.6,11.2,243.6,10.6z M243.4,8.4
					c0-0.5-0.4-0.7-0.8-0.7c-0.4,0-0.8,0.2-0.8,0.7c0,0.5,0.3,0.8,0.8,0.8C243.1,9.2,243.4,8.9,243.4,8.4z"/>
				<path d="M247,10.8h-2.2v-0.4l2.3-3.2h0.6v3h0.8v0.6h-0.8V12H247V10.8z M247,10.2V8.2l-1.4,1.9H247z"/>
			</g>
			<g class="st4">
				<path d="M227.1,98.8c0-1.1,0.4-2.5,1.7-2.5c1.2,0,1.8,1.2,1.8,2.5c0,1.2-0.6,2.5-1.7,2.5C227.6,101.3,227.1,99.9,227.1,98.8z
					 M230.1,98.8c0-0.8-0.3-2-1.2-2c-0.9,0-1.2,1.1-1.2,2c0,0.8,0.3,2,1.2,2C229.8,100.8,230.1,99.6,230.1,98.8z"/>
			</g>
			<g class="st4">
				<path d="M88.1,98.8c0-1.1,0.4-2.5,1.7-2.5c1.2,0,1.8,1.2,1.8,2.5c0,1.2-0.6,2.5-1.7,2.5C88.6,101.3,88.1,99.9,88.1,98.8z
					 M91.1,98.8c0-0.8-0.3-2-1.2-2c-0.9,0-1.2,1.1-1.2,2c0,0.8,0.3,2,1.2,2C90.8,100.8,91.1,99.6,91.1,98.8z"/>
			</g>
			<g class="st4">
				<path d="M134.1,98.8c0-1.1,0.4-2.5,1.7-2.5c1.2,0,1.8,1.2,1.8,2.5c0,1.2-0.6,2.5-1.7,2.5C134.6,101.3,134.1,99.9,134.1,98.8z
					 M137.1,98.8c0-0.8-0.3-2-1.2-2c-0.9,0-1.2,1.1-1.2,2c0,0.8,0.3,2,1.2,2C136.8,100.8,137.1,99.6,137.1,98.8z"/>
			</g>
			<g class="st4">
				<path d="M184.3,99.4c-0.1,0-0.3,0-0.4,0c-0.9,0-1.6-0.7-1.6-1.5c0-0.9,0.7-1.6,1.6-1.6c0.9,0,1.6,0.7,1.6,1.6
					c0,0.3-0.1,0.6-0.2,0.8l-1.4,2.5h-0.6L184.3,99.4z M184.9,97.9c0-0.6-0.5-1.1-1.1-1.1s-1.1,0.5-1.1,1.1c0,0.6,0.5,1.1,1.1,1.1
					S184.9,98.6,184.9,97.9z"/>
			</g>
			<g class="st4">
				<path d="M225.2,84.3c0.8-0.5,1.2-0.9,1.6-1.3c0.5-0.6,0.9-1.1,0.9-1.7c0-0.6-0.3-0.9-0.8-0.9c-0.6,0-0.9,0.5-1,1.2l-0.5-0.1
					c0-1,0.6-1.6,1.5-1.6c0.9,0,1.4,0.6,1.4,1.4c0,0.7-0.4,1.4-1.1,2.1c-0.6,0.6-0.9,0.8-1.2,1h2.6v0.5h-3.3V84.3z"/>
				<path d="M229.1,82.4c0-1.1,0.4-2.5,1.7-2.5c1.2,0,1.8,1.2,1.8,2.5c0,1.2-0.6,2.5-1.7,2.5C229.5,84.9,229.1,83.5,229.1,82.4z
					 M232,82.4c0-0.8-0.3-2-1.2-2c-0.9,0-1.2,1.1-1.2,2c0,0.8,0.3,2,1.2,2C231.7,84.4,232,83.2,232,82.4z"/>
			</g>
			<g class="st4">
				<path d="M89.9,81.1h-1.3v-0.4h0.7c0.4,0,0.6-0.3,0.6-0.6V80h0.5v4.8h-0.5V81.1z"/>
			</g>
			<g class="st4">
				<path d="M136.3,83.5h-2.2v-0.3l2.3-3.2h0.5V83h0.8v0.5h-0.8v1.3h-0.5V83.5z M136.3,83v-2.2l-1.6,2.2H136.3z"/>
			</g>
			<g class="st4">
				<path d="M181.9,81.1h-1.3v-0.4h0.7c0.4,0,0.6-0.3,0.6-0.6V80h0.5v4.8h-0.5V81.1z"/>
				<path d="M184.1,84.3c0.8-0.5,1.2-0.9,1.6-1.3c0.5-0.6,0.9-1.1,0.9-1.7c0-0.6-0.3-0.9-0.8-0.9c-0.6,0-0.9,0.5-1,1.2l-0.5-0.1
					c0-1,0.6-1.6,1.5-1.6c0.9,0,1.4,0.6,1.4,1.4c0,0.7-0.4,1.4-1.1,2.1c-0.6,0.6-0.9,0.8-1.2,1h2.6v0.5h-3.3V84.3z"/>
			</g>
			<g class="st4">
				<path d="M227.3,64.5c0-0.6,0.3-1,0.9-1.3c-0.4-0.2-0.6-0.6-0.6-1.1c0-0.8,0.6-1.2,1.4-1.2c0.7,0,1.4,0.5,1.4,1.2
					c0,0.4-0.2,0.8-0.6,1.1c0.5,0.2,0.8,0.7,0.8,1.3c0,0.9-0.7,1.4-1.6,1.4C228,65.9,227.3,65.4,227.3,64.5z M230,64.4
					c0-0.6-0.5-1-1.1-1c-0.6,0-1.1,0.4-1.1,1c0,0.7,0.5,1,1.1,1S230,65.1,230,64.4z M229.8,62.2c0-0.5-0.4-0.8-0.9-0.8
					c-0.4,0-0.9,0.3-0.9,0.8c0,0.5,0.4,0.9,0.9,0.9C229.4,63,229.8,62.7,229.8,62.2z"/>
			</g>
			<g class="st4">
				<path d="M88.1,63.4c0-1.1,0.4-2.5,1.7-2.5c1.2,0,1.8,1.2,1.8,2.5c0,1.2-0.6,2.5-1.7,2.5C88.6,65.9,88.1,64.5,88.1,63.4z
					 M91.1,63.4c0-0.8-0.3-2-1.2-2c-0.9,0-1.2,1.1-1.2,2c0,0.8,0.3,2,1.2,2C90.8,65.4,91.1,64.2,91.1,63.4z"/>
			</g>
			<g class="st4">
				<path d="M134.3,64.3c0-0.3,0.1-0.6,0.2-0.8l1.4-2.5h0.6l-1.1,1.8c0.1,0,0.3,0,0.4,0c0.9,0,1.6,0.6,1.6,1.5
					c0,0.9-0.7,1.6-1.6,1.6C135,65.9,134.3,65.2,134.3,64.3z M137,64.3c0-0.6-0.5-1.1-1.1-1.1c-0.6,0-1.1,0.5-1.1,1.1
					c0,0.6,0.5,1.1,1.1,1.1C136.5,65.4,137,64.9,137,64.3z"/>
			</g>
			<g class="st4">
				<path d="M181.1,63.4c0-1.1,0.4-2.5,1.7-2.5c1.2,0,1.8,1.2,1.8,2.5c0,1.2-0.6,2.5-1.7,2.5C181.6,65.9,181.1,64.5,181.1,63.4z
					 M184.1,63.4c0-0.8-0.3-2-1.2-2c-0.9,0-1.2,1.1-1.2,2c0,0.8,0.3,2,1.2,2C183.8,65.4,184.1,64.2,184.1,63.4z"/>
			</g>
			<g class="st4">
				<path d="M227.1,28.4c0-1.1,0.4-2.5,1.7-2.5c1.2,0,1.8,1.2,1.8,2.5c0,1.2-0.6,2.5-1.7,2.5C227.6,30.9,227.1,29.5,227.1,28.4z
					 M230.1,28.4c0-0.8-0.3-2-1.2-2c-0.9,0-1.2,1.1-1.2,2c0,0.8,0.3,2,1.2,2C229.8,30.4,230.1,29.2,230.1,28.4z"/>
			</g>
			<g class="st4">
				<path d="M88.3,29.5l0.5-0.2c0.1,0.5,0.4,1,1.1,1c0.7,0,1.1-0.6,1.1-1.2s-0.3-1.1-1-1.1c-0.4,0-0.8,0.2-1,0.5l-0.5-0.2l0.4-2.4
					h2.4v0.5h-2L89,28c0.3-0.3,0.6-0.4,0.9-0.4c0.9,0,1.5,0.7,1.5,1.6c0,0.9-0.7,1.6-1.6,1.6C89,30.9,88.5,30.3,88.3,29.5z"/>
			</g>
			<g class="st4">
				<path d="M134.2,30.3c0.8-0.5,1.2-0.9,1.6-1.3c0.5-0.6,0.9-1.1,0.9-1.7c0-0.6-0.3-0.9-0.8-0.9c-0.6,0-0.9,0.5-1,1.2l-0.5-0.1
					c0-1,0.6-1.6,1.5-1.6c0.9,0,1.4,0.6,1.4,1.4c0,0.7-0.4,1.4-1.1,2.1c-0.6,0.6-0.9,0.8-1.2,1h2.6v0.5h-3.3V30.3z"/>
			</g>
			<g class="st4">
				<path d="M181.2,29.4l0.5,0c0,0.7,0.5,1,1.1,1c0.6,0,1.1-0.3,1.1-1c0-0.6-0.5-0.9-1.1-0.9h-0.3V28h0.3c0.5,0,0.8-0.3,0.8-0.8
					c0-0.5-0.4-0.8-0.9-0.8c-0.5,0-0.9,0.3-0.9,0.8l-0.5-0.1c0-0.8,0.6-1.3,1.4-1.3c0.7,0,1.4,0.5,1.4,1.3c0,0.4-0.2,0.8-0.6,1
					c0.6,0.2,0.8,0.7,0.8,1.2c0,1-0.7,1.4-1.6,1.4C181.9,30.9,181.2,30.4,181.2,29.4z"/>
			</g>
			<g class="st4">
				<path d="M227.1,46c0-1.1,0.4-2.5,1.7-2.5c1.2,0,1.8,1.2,1.8,2.5c0,1.2-0.6,2.5-1.7,2.5C227.6,48.5,227.1,47.1,227.1,46z
					 M230.1,46c0-0.8-0.3-2-1.2-2c-0.9,0-1.2,1.1-1.2,2c0,0.8,0.3,2,1.2,2C229.8,48,230.1,46.9,230.1,46z"/>
			</g>
			<g class="st4">
				<path d="M88.3,46.4l0.5-0.2c0.1,0.5,0.4,1,1.1,1c0.7,0,1.1-0.6,1.1-1.2s-0.3-1.1-1-1.1c-0.4,0-0.8,0.2-1,0.5l-0.5-0.2l0.4-2.4
					h2.4v0.5h-2L89,44.8c0.3-0.3,0.6-0.4,0.9-0.4c0.9,0,1.5,0.7,1.5,1.6c0,0.9-0.7,1.6-1.6,1.6C89,47.7,88.5,47.1,88.3,46.4z"/>
			</g>
			<g class="st4">
				<path d="M136.3,46.3h-2.2V46l2.3-3.2h0.5v3.1h0.8v0.5h-0.8v1.3h-0.5V46.3z M136.3,45.9v-2.2l-1.6,2.2H136.3z"/>
			</g>
			<g class="st4">
				<path d="M181.1,46c0-1.1,0.4-2.5,1.7-2.5c1.2,0,1.8,1.2,1.8,2.5c0,1.2-0.6,2.5-1.7,2.5C181.6,48.5,181.1,47.1,181.1,46z
					 M184.1,46c0-0.8-0.3-2-1.2-2c-0.9,0-1.2,1.1-1.2,2c0,0.8,0.3,2,1.2,2C183.8,48,184.1,46.9,184.1,46z"/>
			</g>
		</g>
		<g>
			<rect y="0" class="st5" width="250" height="108"/>
			<rect x="0.2" y="0.3" class="st2" width="249.5" height="107.5"/>
		</g>
	</g>
</g>
</svg>
