<svg xmlns="http://www.w3.org/2000/svg" xmlns:xlink="http://www.w3.org/1999/xlink" width="250" height="108" viewBox="0 0 250 108">
  <defs>
    <clipPath id="clip-Table">
      <rect width="250" height="108"/>
    </clipPath>
  </defs>
  <g id="Table" clip-path="url(#clip-Table)">
    <rect id="Rectangle_18845" data-name="Rectangle 18845" width="65.834" height="18.73" transform="translate(0.238 0.556)" fill="#bbf" opacity="0.355"/>
    <path id="Path_157235" data-name="Path 157235" d="M0,105.635Z" transform="translate(0 2.206)" fill="none" stroke="#000" stroke-width="0.5"/>
    <path id="Path_159913" data-name="Path 159913" d="M0,0V108" transform="translate(66.191 0)" fill="none" stroke="#000" stroke-width="0.5"/>
    <path id="Path_159914" data-name="Path 159914" d="M0,0V108" transform="translate(112.143 0)" fill="none" stroke="#000" stroke-width="0.5"/>
    <path id="Path_159915" data-name="Path 159915" d="M0,0V108" transform="translate(158.016 0)" fill="none" stroke="#000" stroke-width="0.5"/>
    <path id="Path_159916" data-name="Path 159916" d="M0,0V108" transform="translate(203.968 0)" fill="none" stroke="#000" stroke-width="0.5"/>
    <path id="Path_159917" data-name="Path 159917" d="M.133,0H.892l.373-1.049H3.271L3.64,0h.749L2.529-4.83H2ZM1.5-1.661,2.27-3.808l.766,2.146ZM5.2,0h.677V-4.009L7.208-.42h.708L9.249-4.009V0h.677V-4.83H8.907L7.557-1.159,6.217-4.83H5.2Zm6.081,0h1.726a1.377,1.377,0,0,0,1.552-1.34,1.31,1.31,0,0,0-.82-1.227,1.14,1.14,0,0,0,.584-1.019c0-.916-.793-1.244-1.548-1.244H11.279Zm.69-2.789V-4.2h.813c.475,0,.865.171.865.68,0,.543-.39.735-.834.735Zm0,2.136V-2.181h1.039a.763.763,0,0,1,.865.779c0,.554-.373.749-.854.749ZM15.576,0h.694V-4.83h-.694Zm2.047,0h3.168V-.646H18.317V-2.109h2.218v-.615H18.317V-4.208h2.475V-4.83H17.623Zm4.245,0h.677V-3.852L24.589,0h.831V-4.83h-.677V-.984L22.688-4.83h-.82Zm5.944,0h.7V-4.228h1.576v-.6H26.236v.6h1.576ZM29.9,0h.759l.373-1.049h2.006L33.411,0h.749L32.3-4.83h-.526Zm1.364-1.661.772-2.146.766,2.146ZM34.58,0h3.8V-.629H35.506L38.38-4.3v-.53H34.733v.622h2.734L34.58-.506Zm4.775,0h.694V-4.83h-.694Zm3.968.068a2.224,2.224,0,0,0,2.246-2.485A2.226,2.226,0,0,0,43.323-4.9a2.225,2.225,0,0,0-2.242,2.485A2.224,2.224,0,0,0,43.323.068Zm0-.625c-1.1,0-1.531-.882-1.531-1.859s.427-1.856,1.531-1.856,1.538.882,1.538,1.856S44.43-.557,43.323-.557ZM46.6,0h.677V-3.852L49.321,0h.831V-4.83h-.677V-.984L47.421-4.83H46.6Zm4.9,0H52.2V-4.83h-.694Z" transform="translate(3.738 8.053)"/>
    <path id="Path_159918" data-name="Path 159918" d="M.677.007h.694V-2.116h.694L3.264.007h.8l-1.326-2.2a1.272,1.272,0,0,0,.991-1.254A1.431,1.431,0,0,0,2.143-4.826H.677Zm.7-2.721V-4.208H2.15c.537,0,.9.287.9.766,0,.448-.328.7-.82.728ZM4.922,0h.694V-4.83H4.922ZM8.89.068a2.113,2.113,0,0,0,2.041-1.336l-.639-.27a1.352,1.352,0,0,1-1.384.954c-1.114,0-1.569-.841-1.569-1.856,0-.974.451-1.812,1.555-1.812a1.3,1.3,0,0,1,1.388.943l.643-.267A2.038,2.038,0,0,0,8.911-4.908,2.221,2.221,0,0,0,6.651-2.42,2.219,2.219,0,0,0,8.89.068Zm4.816,0a2.224,2.224,0,0,0,2.246-2.485A2.226,2.226,0,0,0,13.706-4.9a2.225,2.225,0,0,0-2.242,2.485A2.224,2.224,0,0,0,13.706.068Zm0-.625c-1.1,0-1.531-.882-1.531-1.859s.427-1.856,1.531-1.856,1.538.882,1.538,1.856S14.813-.557,13.706-.557Zm3.278.564h.694V-2.116h.694l1.2,2.123h.8l-1.326-2.2a1.272,1.272,0,0,0,.991-1.254A1.431,1.431,0,0,0,18.45-4.826H16.984Zm.7-2.721V-4.208h.772c.537,0,.9.287.9.766,0,.448-.328.7-.82.728ZM21.229.007h.694V-2.116h.694l1.2,2.123h.8l-1.326-2.2a1.272,1.272,0,0,0,.991-1.254A1.431,1.431,0,0,0,22.7-4.826H21.229Zm.7-2.721V-4.208H22.7c.537,0,.9.287.9.766,0,.448-.328.7-.82.728ZM25.474,0h3.168V-.646H26.168V-2.109h2.218v-.615H26.168V-4.208h2.475V-4.83H25.474Zm4.245,0H30.4V-3.852L32.44,0h.831V-4.83h-.677V-.984L30.54-4.83h-.82Zm5.944,0h.7V-4.228h1.576v-.6H34.087v.6h1.576Zm3.09,0h.694V-4.83h-.694Z" transform="translate(3.738 15.898)"/>
    <path id="Path_159919" data-name="Path 159919" d="M.677,0h.677V-3.852L3.4,0h.831V-4.83H3.551V-.984L1.5-4.83H.677Zm6.1.058a1.732,1.732,0,0,0,1.35-.571L7.667-.9a1.11,1.11,0,0,1-.892.366.9.9,0,0,1-.93-.957H8.207a1.934,1.934,0,0,0,.021-.291A1.5,1.5,0,0,0,6.716-3.473,1.609,1.609,0,0,0,5.144-1.692,1.6,1.6,0,0,0,6.774.058Zm-.93-2.051c.048-.506.308-.93.868-.93.578,0,.841.41.872.93Zm3.7,2h.615L10.9-2.522,11.642,0h.615l1-3.415h-.7L11.908-.964,11.19-3.415h-.581L9.892-.957,9.246-3.415h-.7ZM17.032,0h.708V-1.887l1.8-2.943H18.71L17.377-2.57,16.051-4.83h-.827l1.808,2.943ZM20.88.068a1.7,1.7,0,0,0,1.685-1.784A1.689,1.689,0,0,0,20.88-3.486,1.682,1.682,0,0,0,19.2-1.716,1.691,1.691,0,0,0,20.88.068Zm0-.561c-.7,0-1-.595-1-1.224s.3-1.207,1-1.207,1,.581,1,1.207S21.584-.492,20.884-.492ZM23.345,0h.643V-1.583c0-.844.376-1.265.868-1.265a.639.639,0,0,1,.4.126l.291-.557a.87.87,0,0,0-.584-.208,1.038,1.038,0,0,0-.964.663v-.591h-.649Zm2.772,0h.663V-1l.636-.7L28.438,0h.786L27.846-2.129l1.193-1.285h-.848L26.78-1.771V-4.83h-.663Z" transform="translate(5 101.047)"/>
    <path id="Path_159920" data-name="Path 159920" d="M.677,0h.69V-2.1h.738c.96,0,1.62-.479,1.62-1.354S3.066-4.83,2.105-4.83H.677Zm.69-2.734V-4.194h.738c.619,0,.933.273.933.742s-.311.718-.933.718ZM5.192.068A1.233,1.233,0,0,0,6.327-.578L6.361,0h.55V-2.085a1.3,1.3,0,0,0-1.4-1.4,1.579,1.579,0,0,0-1.357.708l.5.369a1.027,1.027,0,0,1,.878-.5c.537,0,.762.373.762.916H5.458c-.875,0-1.436.284-1.436.995A1.055,1.055,0,0,0,5.192.068Zm.085-.561c-.338,0-.574-.164-.574-.485,0-.342.267-.526.8-.526h.783A1.036,1.036,0,0,1,5.277-.492ZM7.9,0h.643V-1.583c0-.844.376-1.265.868-1.265a.639.639,0,0,1,.4.126l.291-.557a.87.87,0,0,0-.584-.208,1.038,1.038,0,0,0-.964.663v-.591H7.9Zm2.738-4.119h.714V-4.83h-.714ZM10.661,0h.66V-3.415h-.66Zm3.121-.485c-.543-.072-.967-.126-.967-.448a.255.255,0,0,1,.126-.222,1.529,1.529,0,0,0,.646.137,1.218,1.218,0,0,0,1.319-1.207,1.218,1.218,0,0,0-.137-.574l.526-.417-.359-.444-.513.455a1.41,1.41,0,0,0-.851-.267,1.248,1.248,0,0,0-1.336,1.22,1.181,1.181,0,0,0,.287.786.78.78,0,0,0-.284.629.743.743,0,0,0,.39.687L12.2.263a.784.784,0,0,0-.01.14c0,.673.584,1.186,1.531,1.186.776,0,1.432-.352,1.432-1.087C15.152-.277,14.451-.393,13.781-.485Zm-.2-2.471a.65.65,0,0,1,.663.7.632.632,0,0,1-.663.69.633.633,0,0,1-.667-.69A.654.654,0,0,1,13.583-2.957Zm.161,4c-.581,0-.954-.267-.978-.625l.291-.4c.171.041.345.068.509.092.561.082.974.109.974.458C14.54.882,14.185,1.042,13.744,1.042Zm2.17-5.161h.714V-4.83h-.714ZM15.941,0h.66V-3.415h-.66Z" transform="translate(5 84)"/>
    <path id="Path_159921" data-name="Path 159921" d="M1.976.055A1.448,1.448,0,0,0,3.562-1.367c0-1.579-2.331-1.3-2.331-2.3a.645.645,0,0,1,.7-.619.953.953,0,0,1,.865.537L3.346-4.1a1.54,1.54,0,0,0-1.4-.8,1.294,1.294,0,0,0-1.4,1.275c0,1.518,2.334,1.186,2.334,2.317,0,.472-.345.745-.9.745A1,1,0,0,1,.9-1.477L.222-1.3A1.661,1.661,0,0,0,1.976.055Zm3.24.014A1.233,1.233,0,0,0,6.351-.578L6.385,0h.55V-2.085a1.3,1.3,0,0,0-1.4-1.4,1.579,1.579,0,0,0-1.357.708l.5.369a1.027,1.027,0,0,1,.878-.5c.537,0,.762.373.762.916H5.482c-.875,0-1.436.284-1.436.995A1.055,1.055,0,0,0,5.216.068ZM5.3-.492c-.338,0-.574-.164-.574-.485,0-.342.267-.526.8-.526h.783A1.036,1.036,0,0,1,5.3-.492ZM7.919,0h.656V-1.818c0-.728.369-1.07.872-1.07.52,0,.718.441.718.9V0h.656V-2.064c0-.735-.338-1.415-1.189-1.415a1.256,1.256,0,0,0-1.056.567v-.5H7.919Zm3.893,0h.643V-1.583c0-.844.376-1.265.868-1.265a.639.639,0,0,1,.4.126l.291-.557a.87.87,0,0,0-.584-.208,1.038,1.038,0,0,0-.964.663v-.591h-.649Zm3.869.058a1.732,1.732,0,0,0,1.35-.571L16.574-.9a1.11,1.11,0,0,1-.892.366.9.9,0,0,1-.93-.957h2.362a1.934,1.934,0,0,0,.021-.291,1.5,1.5,0,0,0-1.511-1.692,1.609,1.609,0,0,0-1.572,1.781A1.6,1.6,0,0,0,15.682.058Zm-.93-2.051c.048-.506.308-.93.868-.93.578,0,.841.41.872.93ZM17.931,0H18.6V-1.825c0-.54.287-1.066.8-1.066s.636.448.636.889V0h.67V-1.883c0-.513.287-1.008.8-1.008s.646.461.646.9V0h.673V-2.064c0-.742-.362-1.422-1.224-1.422a1.2,1.2,0,0,0-1.094.663,1.03,1.03,0,0,0-1-.663,1.023,1.023,0,0,0-.9.52v-.448h-.667Zm7.25.068a1.7,1.7,0,0,0,1.685-1.784A1.689,1.689,0,0,0,25.18-3.486,1.682,1.682,0,0,0,23.5-1.716,1.691,1.691,0,0,0,25.18.068Zm0-.561c-.7,0-1-.595-1-1.224s.3-1.207,1-1.207,1,.581,1,1.207S25.884-.492,25.184-.492Z" transform="translate(5 30)"/>
    <path id="Path_159922" data-name="Path 159922" d="M.677.007h.694V-2.116h.694L3.264.007h.8l-1.326-2.2a1.272,1.272,0,0,0,.991-1.254A1.431,1.431,0,0,0,2.143-4.826H.677Zm.7-2.721V-4.208H2.15c.537,0,.9.287.9.766,0,.448-.328.7-.82.728ZM6.04.068A1.7,1.7,0,0,0,7.725-1.716,1.689,1.689,0,0,0,6.04-3.486,1.682,1.682,0,0,0,4.361-1.716,1.691,1.691,0,0,0,6.04.068Zm0-.561c-.7,0-1-.595-1-1.224s.3-1.207,1-1.207,1,.581,1,1.207S6.744-.492,6.043-.492ZM8.5,0H9.17V-1.825c0-.54.287-1.066.8-1.066s.636.448.636.889V0h.67V-1.883c0-.513.287-1.008.8-1.008s.646.461.646.9V0h.673V-2.064c0-.742-.362-1.422-1.224-1.422a1.2,1.2,0,0,0-1.094.663,1.03,1.03,0,0,0-1-.663,1.023,1.023,0,0,0-.9.52v-.448H8.5Zm6.733.068a1.233,1.233,0,0,0,1.135-.646L16.406,0h.55V-2.085a1.3,1.3,0,0,0-1.4-1.4,1.579,1.579,0,0,0-1.357.708l.5.369a1.027,1.027,0,0,1,.878-.5c.537,0,.762.373.762.916H15.5c-.875,0-1.436.284-1.436.995A1.055,1.055,0,0,0,15.237.068Zm.085-.561c-.338,0-.574-.164-.574-.485,0-.342.267-.526.8-.526h.783A1.036,1.036,0,0,1,15.323-.492Z" transform="translate(5 65)"/>
    <path id="Path_159923" data-name="Path 159923" d="M1.716,0h.7V-4.228H3.989v-.6H.14v.6H1.716ZM5.376.068A1.7,1.7,0,0,0,7.062-1.716,1.689,1.689,0,0,0,5.376-3.486,1.682,1.682,0,0,0,3.7-1.716,1.691,1.691,0,0,0,5.376.068Zm0-.561c-.7,0-1-.595-1-1.224s.3-1.207,1-1.207,1,.581,1,1.207S6.081-.492,5.38-.492ZM7.841,0h.643V-1.583c0-.844.376-1.265.868-1.265a.639.639,0,0,1,.4.126l.291-.557a.87.87,0,0,0-.584-.208,1.038,1.038,0,0,0-.964.663v-.591H7.841Zm2.738-4.119h.714V-4.83h-.714ZM10.606,0h.66V-3.415h-.66Zm1.74,0H13V-1.818c0-.728.369-1.07.872-1.07.52,0,.718.441.718.9V0h.656V-2.064c0-.735-.338-1.415-1.189-1.415A1.256,1.256,0,0,0,13-2.912v-.5h-.656Zm5.267.068A1.7,1.7,0,0,0,19.3-1.716a1.689,1.689,0,0,0-1.685-1.771,1.682,1.682,0,0,0-1.678,1.771A1.691,1.691,0,0,0,17.613.068Zm0-.561c-.7,0-1-.595-1-1.224s.3-1.207,1-1.207,1,.581,1,1.207S18.317-.492,17.616-.492Z" transform="translate(5 47.84)"/>
    <path id="Path_159924" data-name="Path 159924" d="M1.945,0h.687V-4.83H1.986v.113a.515.515,0,0,1-.561.557H.663v.537H1.945ZM5.212,0h.772L7.417-2.423a1.566,1.566,0,0,0,.239-.844A1.648,1.648,0,0,0,5.988-4.9,1.659,1.659,0,0,0,4.31-3.247,1.6,1.6,0,0,0,5.981-1.675,1.776,1.776,0,0,0,6.258-1.7Zm.769-2.249a1,1,0,0,1-1-1,1.006,1.006,0,0,1,1-1.008,1.007,1.007,0,0,1,1,1.008A1,1,0,0,1,5.981-2.249ZM10.322,0H11V-1.224h.769v-.615H11V-4.83h-.6L8.09-1.624v.4h2.232ZM8.952-1.839,10.322-3.77v1.931ZM13.979.068A1.685,1.685,0,0,0,15.665-1.61a1.584,1.584,0,0,0-1.572-1.624,1.335,1.335,0,0,0-.851.28L13.463-4.2h1.986V-4.83H12.92l-.444,2.485.615.208a1.068,1.068,0,0,1,.906-.5.948.948,0,0,1,.96,1.019A1.014,1.014,0,0,1,13.973-.54a1.055,1.055,0,0,1-1.015-.984l-.632.191A1.709,1.709,0,0,0,13.979.068Zm3.958-1.931H19.8v-.5H17.938ZM23.69,0h.687V-4.83h-.646v.113a.515.515,0,0,1-.561.557h-.762v.537H23.69Zm3.268,0h.772l1.432-2.423a1.566,1.566,0,0,0,.239-.844A1.648,1.648,0,0,0,27.733-4.9a1.659,1.659,0,0,0-1.678,1.654,1.6,1.6,0,0,0,1.671,1.572A1.776,1.776,0,0,0,28-1.7Zm.769-2.249a1,1,0,0,1-1-1,1.006,1.006,0,0,1,1-1.008,1.007,1.007,0,0,1,1,1.008A1,1,0,0,1,27.727-2.249ZM31.712.068A1.685,1.685,0,0,0,33.4-1.61a1.584,1.584,0,0,0-1.572-1.624,1.335,1.335,0,0,0-.851.28L31.2-4.2h1.986V-4.83H30.652l-.444,2.485.615.208a1.068,1.068,0,0,1,.906-.5.948.948,0,0,1,.96,1.019A1.014,1.014,0,0,1,31.705-.54a1.055,1.055,0,0,1-1.015-.984l-.632.191A1.709,1.709,0,0,0,31.712.068Zm4,0A1.685,1.685,0,0,0,37.4-1.61a1.584,1.584,0,0,0-1.572-1.624,1.335,1.335,0,0,0-.851.28L35.195-4.2h1.986V-4.83H34.651l-.444,2.485.615.208a1.068,1.068,0,0,1,.906-.5.948.948,0,0,1,.96,1.019A1.014,1.014,0,0,1,35.7-.54a1.055,1.055,0,0,1-1.015-.984l-.632.191A1.709,1.709,0,0,0,35.711.068Z" transform="translate(70 11.201)"/>
    <path id="Path_159925" data-name="Path 159925" d="M1.945,0h.687V-4.83H1.986v.113a.515.515,0,0,1-.561.557H.663v.537H1.945ZM5.212,0h.772L7.417-2.423a1.566,1.566,0,0,0,.239-.844A1.648,1.648,0,0,0,5.988-4.9,1.659,1.659,0,0,0,4.31-3.247,1.6,1.6,0,0,0,5.981-1.675,1.776,1.776,0,0,0,6.258-1.7Zm.769-2.249a1,1,0,0,1-1-1,1.006,1.006,0,0,1,1-1.008,1.007,1.007,0,0,1,1,1.008A1,1,0,0,1,5.981-2.249ZM9.967.068A1.685,1.685,0,0,0,11.652-1.61,1.584,1.584,0,0,0,10.08-3.233a1.335,1.335,0,0,0-.851.28L9.451-4.2h1.986V-4.83H8.907L8.463-2.345l.615.208a1.068,1.068,0,0,1,.906-.5.948.948,0,0,1,.96,1.019A1.014,1.014,0,0,1,9.96-.54a1.055,1.055,0,0,1-1.015-.984l-.632.191A1.709,1.709,0,0,0,9.967.068Zm4.03,0a1.655,1.655,0,0,0,1.675-1.651A1.6,1.6,0,0,0,14-3.155a1.814,1.814,0,0,0-.277.024l1.056-1.7H14L12.571-2.41a1.533,1.533,0,0,0-.246.848A1.646,1.646,0,0,0,14,.068Zm0-.639a1.006,1.006,0,0,1-1-1,1,1,0,0,1,1-1,1.006,1.006,0,0,1,1,1A1.008,1.008,0,0,1,14-.571Zm3.924-1.292H19.79v-.5H17.924ZM23.676,0h.687V-4.83h-.646v.113a.515.515,0,0,1-.561.557h-.762v.537h1.282Zm3.268,0h.772l1.432-2.423a1.566,1.566,0,0,0,.239-.844A1.648,1.648,0,0,0,27.72-4.9a1.659,1.659,0,0,0-1.678,1.654,1.6,1.6,0,0,0,1.671,1.572A1.776,1.776,0,0,0,27.99-1.7Zm.769-2.249a1,1,0,0,1-1-1,1.006,1.006,0,0,1,1-1.008,1.007,1.007,0,0,1,1,1.008A1,1,0,0,1,27.713-2.249ZM31.729.068A1.655,1.655,0,0,0,33.4-1.583a1.6,1.6,0,0,0-1.671-1.572,1.814,1.814,0,0,0-.277.024l1.056-1.7h-.783L30.3-2.41a1.533,1.533,0,0,0-.246.848A1.646,1.646,0,0,0,31.729.068Zm0-.639a1.006,1.006,0,0,1-1-1,1,1,0,0,1,1-1,1.006,1.006,0,0,1,1,1A1.008,1.008,0,0,1,31.732-.571ZM35.7.068A1.685,1.685,0,0,0,37.382-1.61,1.584,1.584,0,0,0,35.81-3.233a1.335,1.335,0,0,0-.851.28L35.181-4.2h1.986V-4.83H34.638l-.444,2.485.615.208a1.068,1.068,0,0,1,.906-.5.948.948,0,0,1,.96,1.019A1.014,1.014,0,0,1,35.69-.54a1.055,1.055,0,0,1-1.015-.984l-.632.191A1.709,1.709,0,0,0,35.7.068Z" transform="translate(116 11.201)"/>
    <path id="Path_159926" data-name="Path 159926" d="M1.945,0h.687V-4.83H1.986v.113a.515.515,0,0,1-.561.557H.663v.537H1.945ZM5.212,0h.772L7.417-2.423a1.566,1.566,0,0,0,.239-.844A1.648,1.648,0,0,0,5.988-4.9,1.659,1.659,0,0,0,4.31-3.247,1.6,1.6,0,0,0,5.981-1.675,1.776,1.776,0,0,0,6.258-1.7Zm.769-2.249a1,1,0,0,1-1-1,1.006,1.006,0,0,1,1-1.008,1.007,1.007,0,0,1,1,1.008A1,1,0,0,1,5.981-2.249ZM10,.068a1.655,1.655,0,0,0,1.675-1.651A1.6,1.6,0,0,0,10-3.155a1.814,1.814,0,0,0-.277.024l1.056-1.7H10L8.572-2.41a1.533,1.533,0,0,0-.246.848A1.646,1.646,0,0,0,10,.068Zm0-.639a1.006,1.006,0,0,1-1-1,1,1,0,0,1,1-1,1.006,1.006,0,0,1,1,1A1.008,1.008,0,0,1,10-.571Zm4,.639a1.655,1.655,0,0,0,1.675-1.651A1.6,1.6,0,0,0,14-3.155a1.814,1.814,0,0,0-.277.024l1.056-1.7H14L12.571-2.41a1.533,1.533,0,0,0-.246.848A1.646,1.646,0,0,0,14,.068Zm0-.639a1.006,1.006,0,0,1-1-1,1,1,0,0,1,1-1,1.006,1.006,0,0,1,1,1A1.008,1.008,0,0,1,14-.571Zm3.924-1.292H19.79v-.5H17.924ZM23.676,0h.687V-4.83h-.646v.113a.515.515,0,0,1-.561.557h-.762v.537h1.282Zm3.268,0h.772l1.432-2.423a1.566,1.566,0,0,0,.239-.844A1.648,1.648,0,0,0,27.72-4.9a1.659,1.659,0,0,0-1.678,1.654,1.6,1.6,0,0,0,1.671,1.572A1.776,1.776,0,0,0,27.99-1.7Zm.769-2.249a1,1,0,0,1-1-1,1.006,1.006,0,0,1,1-1.008,1.007,1.007,0,0,1,1,1.008A1,1,0,0,1,27.713-2.249ZM30.533,0H31.3l2.109-4.481V-4.83H30.068v.622h2.516ZM35.67.068A1.685,1.685,0,0,0,37.355-1.61a1.584,1.584,0,0,0-1.572-1.624,1.335,1.335,0,0,0-.851.28L35.154-4.2H37.14V-4.83H34.61l-.444,2.485.615.208a1.068,1.068,0,0,1,.906-.5.948.948,0,0,1,.96,1.019A1.014,1.014,0,0,1,35.663-.54a1.055,1.055,0,0,1-1.015-.984l-.632.191A1.709,1.709,0,0,0,35.67.068Z" transform="translate(163 11.201)"/>
    <path id="Path_159927" data-name="Path 159927" d="M1.945,0h.687V-4.83H1.986v.113a.515.515,0,0,1-.561.557H.663v.537H1.945ZM5.212,0h.772L7.417-2.423a1.566,1.566,0,0,0,.239-.844A1.648,1.648,0,0,0,5.988-4.9,1.659,1.659,0,0,0,4.31-3.247,1.6,1.6,0,0,0,5.981-1.675,1.776,1.776,0,0,0,6.258-1.7Zm.769-2.249a1,1,0,0,1-1-1,1.006,1.006,0,0,1,1-1.008,1.007,1.007,0,0,1,1,1.008A1,1,0,0,1,5.981-2.249ZM8.8,0h.766l2.109-4.481V-4.83H8.336v.622h2.516ZM14.01.068a1.655,1.655,0,0,0,1.675-1.651,1.6,1.6,0,0,0-1.671-1.572,1.814,1.814,0,0,0-.277.024l1.056-1.7H14.01L12.585-2.41a1.533,1.533,0,0,0-.246.848A1.646,1.646,0,0,0,14.01.068Zm0-.639a1.006,1.006,0,0,1-1-1,1,1,0,0,1,1-1,1.006,1.006,0,0,1,1,1A1.008,1.008,0,0,1,14.014-.571Zm3.924-1.292H19.8v-.5H17.938ZM23.69,0h.687V-4.83h-.646v.113a.515.515,0,0,1-.561.557h-.762v.537H23.69Zm3.268,0h.772l1.432-2.423a1.566,1.566,0,0,0,.239-.844A1.648,1.648,0,0,0,27.733-4.9a1.659,1.659,0,0,0-1.678,1.654,1.6,1.6,0,0,0,1.671,1.572A1.776,1.776,0,0,0,28-1.7Zm.769-2.249a1,1,0,0,1-1-1,1.006,1.006,0,0,1,1-1.008,1.007,1.007,0,0,1,1,1.008A1,1,0,0,1,27.727-2.249Zm4,2.317c.9,0,1.7-.465,1.7-1.429a1.336,1.336,0,0,0-.772-1.248,1.212,1.212,0,0,0,.53-1.019A1.327,1.327,0,0,0,31.732-4.9a1.326,1.326,0,0,0-1.456,1.278,1.2,1.2,0,0,0,.537,1.015,1.338,1.338,0,0,0-.783,1.251C30.03-.4,30.833.068,31.729.068Zm.017-2.916a.73.73,0,0,1-.79-.762.72.72,0,0,1,.786-.711.724.724,0,0,1,.786.742A.719.719,0,0,1,31.746-2.847ZM31.726-.513A.91.91,0,0,1,30.707-1.4a.906.906,0,0,1,1.019-.885.907.907,0,0,1,1.015.889A.905.905,0,0,1,31.726-.513ZM36.053,0h.68V-1.224H37.5v-.615h-.769V-4.83h-.6L33.821-1.624v.4h2.232ZM34.682-1.839,36.053-3.77v1.931Z" transform="translate(209 11.201)"/>
    <g id="Path_159672" data-name="Path 159672" fill="none">
      <path d="M0,0H250V108H0Z" stroke="none"/>
      <path d="M 0.5 0.5 L 0.5 107.5 L 249.5 107.5 L 249.5 0.5 L 0.5 0.5 M 0 0 L 250 0 L 250 108 L 0 108 L 0 0 Z" stroke="none" fill="#000"/>
    </g>
    <path id="Path_161878" data-name="Path 161878" d="M2.01.068C3.165.068,3.75-1.155,3.75-2.4S3.155-4.908,1.958-4.908C.653-4.908.212-3.507.212-2.417S.663.068,2.01.068ZM1.989-.424C1.036-.424.742-1.572.742-2.417S1.036-4.4,1.958-4.4s1.22,1.128,1.22,1.976C3.179-1.6,2.892-.424,1.989-.424Z" transform="translate(225 100.427)"/>
    <path id="Path_161879" data-name="Path 161879" d="M2.01.068C3.165.068,3.75-1.155,3.75-2.4S3.155-4.908,1.958-4.908C.653-4.908.212-3.507.212-2.417S.663.068,2.01.068ZM1.989-.424C1.036-.424.742-1.572.742-2.417S1.036-4.4,1.958-4.4s1.22,1.128,1.22,1.976C3.179-1.6,2.892-.424,1.989-.424Z" transform="translate(86 100.427)"/>
    <path id="Path_161880" data-name="Path 161880" d="M2.01.068C3.165.068,3.75-1.155,3.75-2.4S3.155-4.908,1.958-4.908C.653-4.908.212-3.507.212-2.417S.663.068,2.01.068ZM1.989-.424C1.036-.424.742-1.572.742-2.417S1.036-4.4,1.958-4.4s1.22,1.128,1.22,1.976C3.179-1.6,2.892-.424,1.989-.424Z" transform="translate(132 100.427)"/>
    <path id="Path_161881" data-name="Path 161881" d="M-.012.068A1.616,1.616,0,0,0,1.6-1.579,1.513,1.513,0,0,0,.094-3.155a1.3,1.3,0,0,0-.94.355l.26-1.559H1.386V-4.83H-1L-1.424-2.4l.465.219A1.145,1.145,0,0,1,.022-2.71,1.035,1.035,0,0,1,1.048-1.579,1.1,1.1,0,0,1-.022-.39,1.119,1.119,0,0,1-1.106-1.432l-.482.161A1.61,1.61,0,0,0-.012.068Z" transform="translate(180.937 100.427)"/>
    <path id="Path_161882" data-name="Path 161882" d="M1.962.068A1.616,1.616,0,0,0,3.579-1.579,1.513,1.513,0,0,0,2.068-3.155a1.3,1.3,0,0,0-.94.355l.26-1.559H3.36V-4.83H.974L.55-2.4l.465.219A1.145,1.145,0,0,1,2-2.71,1.035,1.035,0,0,1,3.021-1.579,1.1,1.1,0,0,1,1.952-.39,1.119,1.119,0,0,1,.868-1.432l-.482.161A1.61,1.61,0,0,0,1.962.068Z" transform="translate(225 84)"/>
    <path id="Path_161883" data-name="Path 161883" d="M1.986,0h.54V-4.83H2.034v.092a.56.56,0,0,1-.6.6H.7v.427H1.986Z" transform="translate(86 84)" fill="#999"/>
    <path id="Path_161884" data-name="Path 161884" d="M.273,0H3.609V-.458H1.019a6.219,6.219,0,0,0,1.207-.988A3.01,3.01,0,0,0,3.37-3.517,1.309,1.309,0,0,0,1.952-4.895,1.431,1.431,0,0,0,.461-3.3l.533.051c.038-.7.379-1.166.974-1.166a.809.809,0,0,1,.837.913A2.6,2.6,0,0,1,1.89-1.784,8.478,8.478,0,0,1,.273-.485Z" transform="translate(132 84)" fill="#999"/>
    <path id="Path_161885" data-name="Path 161885" d="M.405,0h.53V-1.3H1.7v-.461H.935V-4.83H.453L-1.823-1.61V-1.3H.405ZM-1.184-1.764.405-4.009v2.246Z" transform="translate(181 84)"/>
    <path id="Path_161886" data-name="Path 161886" d="M.273,0H3.609V-.458H1.019a6.219,6.219,0,0,0,1.207-.988A3.01,3.01,0,0,0,3.37-3.517,1.309,1.309,0,0,0,1.952-4.895,1.431,1.431,0,0,0,.461-3.3l.533.051c.038-.7.379-1.166.974-1.166a.809.809,0,0,1,.837.913A2.6,2.6,0,0,1,1.89-1.784,8.478,8.478,0,0,1,.273-.485Z" transform="translate(225 66)"/>
    <path id="Path_161887" data-name="Path 161887" d="M2.01.068C3.165.068,3.75-1.155,3.75-2.4S3.155-4.908,1.958-4.908C.653-4.908.212-3.507.212-2.417S.663.068,2.01.068ZM1.989-.424C1.036-.424.742-1.572.742-2.417S1.036-4.4,1.958-4.4s1.22,1.128,1.22,1.976C3.179-1.6,2.892-.424,1.989-.424Z" transform="translate(86 66)"/>
    <path id="Path_161888" data-name="Path 161888" d="M1.9.068A1.445,1.445,0,0,0,3.524-1.374,1.237,1.237,0,0,0,2.7-2.6,1.2,1.2,0,0,0,3.264-3.65,1.267,1.267,0,0,0,1.887-4.9,1.263,1.263,0,0,0,.5-3.633l.489.055a.842.842,0,0,1,.9-.841.817.817,0,0,1,.872.834.732.732,0,0,1-.786.79H1.634v.468h.342a.938.938,0,0,1,1.053.937A1.023,1.023,0,0,1,1.9-.4,1.037,1.037,0,0,1,.766-1.412l-.5.048A1.44,1.44,0,0,0,1.9.068Z" transform="translate(132 66)" fill="#999"/>
    <path id="Path_161889" data-name="Path 161889" d="M.036.068c1.155,0,1.74-1.224,1.74-2.471S1.181-4.908-.015-4.908c-1.306,0-1.747,1.4-1.747,2.492S-1.311.068.036.068ZM.015-.424c-.954,0-1.248-1.148-1.248-1.993S-.938-4.4-.015-4.4,1.2-3.271,1.2-2.423C1.2-1.6.918-.424.015-.424Z" transform="translate(181 66)"/>
    <path id="Path_161890" data-name="Path 161890" d="M2.01.068C3.165.068,3.75-1.155,3.75-2.4S3.155-4.908,1.958-4.908C.653-4.908.212-3.507.212-2.417S.663.068,2.01.068ZM1.989-.424C1.036-.424.742-1.572.742-2.417S1.036-4.4,1.958-4.4s1.22,1.128,1.22,1.976C3.179-1.6,2.892-.424,1.989-.424Z" transform="translate(225 30)"/>
    <path id="Path_161891" data-name="Path 161891" d="M1.962.068A1.616,1.616,0,0,0,3.579-1.579,1.513,1.513,0,0,0,2.068-3.155a1.3,1.3,0,0,0-.94.355l.26-1.559H3.36V-4.83H.974L.55-2.4l.465.219A1.145,1.145,0,0,1,2-2.71,1.035,1.035,0,0,1,3.021-1.579,1.1,1.1,0,0,1,1.952-.39,1.119,1.119,0,0,1,.868-1.432l-.482.161A1.61,1.61,0,0,0,1.962.068Z" transform="translate(86 30)"/>
    <path id="Path_161892" data-name="Path 161892" d="M1.9.068A1.445,1.445,0,0,0,3.524-1.374,1.237,1.237,0,0,0,2.7-2.6,1.2,1.2,0,0,0,3.264-3.65,1.267,1.267,0,0,0,1.887-4.9,1.263,1.263,0,0,0,.5-3.633l.489.055a.842.842,0,0,1,.9-.841.817.817,0,0,1,.872.834.732.732,0,0,1-.786.79H1.634v.468h.342a.938.938,0,0,1,1.053.937A1.023,1.023,0,0,1,1.9-.4,1.037,1.037,0,0,1,.766-1.412l-.5.048A1.44,1.44,0,0,0,1.9.068Z" transform="translate(132 30)"/>
    <path id="Path_161893" data-name="Path 161893" d="M.012,0h.54V-4.83H.06v.092a.56.56,0,0,1-.6.6h-.738v.427H.012Z" transform="translate(181 30)"/>
    <path id="Path_161894" data-name="Path 161894" d="M2.01.068C3.165.068,3.75-1.155,3.75-2.4S3.155-4.908,1.958-4.908C.653-4.908.212-3.507.212-2.417S.663.068,2.01.068ZM1.989-.424C1.036-.424.742-1.572.742-2.417S1.036-4.4,1.958-4.4s1.22,1.128,1.22,1.976C3.179-1.6,2.892-.424,1.989-.424Z" transform="translate(225 47.661)"/>
    <path id="Path_161895" data-name="Path 161895" d="M1.962.068A1.616,1.616,0,0,0,3.579-1.579,1.513,1.513,0,0,0,2.068-3.155a1.3,1.3,0,0,0-.94.355l.26-1.559H3.36V-4.83H.974L.55-2.4l.465.219A1.145,1.145,0,0,1,2-2.71,1.035,1.035,0,0,1,3.021-1.579,1.1,1.1,0,0,1,1.952-.39,1.119,1.119,0,0,1,.868-1.432l-.482.161A1.61,1.61,0,0,0,1.962.068Z" transform="translate(86 46.827)"/>
    <path id="Path_161896" data-name="Path 161896" d="M1.9.068A1.445,1.445,0,0,0,3.524-1.374,1.237,1.237,0,0,0,2.7-2.6,1.2,1.2,0,0,0,3.264-3.65,1.267,1.267,0,0,0,1.887-4.9,1.263,1.263,0,0,0,.5-3.633l.489.055a.842.842,0,0,1,.9-.841.817.817,0,0,1,.872.834.732.732,0,0,1-.786.79H1.634v.468h.342a.938.938,0,0,1,1.053.937A1.023,1.023,0,0,1,1.9-.4,1.037,1.037,0,0,1,.766-1.412l-.5.048A1.44,1.44,0,0,0,1.9.068Z" transform="translate(132 46.827)"/>
    <path id="Path_161897" data-name="Path 161897" d="M.036.068c1.155,0,1.74-1.224,1.74-2.471S1.181-4.908-.015-4.908c-1.306,0-1.747,1.4-1.747,2.492S-1.311.068.036.068ZM.015-.424c-.954,0-1.248-1.148-1.248-1.993S-.938-4.4-.015-4.4,1.2-3.271,1.2-2.423C1.2-1.6.918-.424.015-.424Z" transform="translate(181 47.661)"/>
    <line id="Line_5884" data-name="Line 5884" x2="249.841" transform="translate(0 19.286)" fill="none" stroke="#000" stroke-miterlimit="10" stroke-width="0.5"/>
    <line id="Line_5885" data-name="Line 5885" x2="249.841" transform="translate(0 54.93)" fill="none" stroke="#000" stroke-miterlimit="10" stroke-width="0.5"/>
    <line id="Line_5886" data-name="Line 5886" x2="249.841" transform="translate(0 37.295)" fill="none" stroke="#000" stroke-miterlimit="10" stroke-width="0.5"/>
    <line id="Line_5888" data-name="Line 5888" x2="249.841" transform="translate(0 90.54)" fill="none" stroke="#000" stroke-miterlimit="10" stroke-width="0.5"/>
    <line id="Line_5889" data-name="Line 5889" x2="249.841" transform="translate(0 72.566)" fill="none" stroke="#000" stroke-miterlimit="10" stroke-width="0.5"/>
  </g>
</svg>
