<svg xmlns="http://www.w3.org/2000/svg" xmlns:xlink="http://www.w3.org/1999/xlink" width="250" height="108" viewBox="0 0 250 108"><defs><clipPath id="b"><rect width="250" height="108"/></clipPath></defs><g id="a" clip-path="url(#b)"><g transform="translate(-1.9 -0.8)"><rect width="66.19" height="19.127" transform="translate(2.138 1.356)" fill="#ffd337" opacity="0.355"/><path d="M0,105.635Z" transform="translate(1.9 3.006)" fill="none" stroke="#000" stroke-width="0.5"/><line x2="249.841" transform="translate(1.9 20.086)" fill="none" stroke="#000" stroke-miterlimit="10" stroke-width="0.5"/><line x2="249.841" transform="translate(1.9 55.73)" fill="none" stroke="#000" stroke-miterlimit="10" stroke-width="0.5"/><line x2="249.841" transform="translate(1.9 38.094)" fill="none" stroke="#000" stroke-miterlimit="10" stroke-width="0.5"/><line x2="249.841" transform="translate(1.9 91.339)" fill="none" stroke="#000" stroke-miterlimit="10" stroke-width="0.5"/><line x2="249.841" transform="translate(1.9 73.366)" fill="none" stroke="#000" stroke-miterlimit="10" stroke-width="0.5"/><line y2="108" transform="translate(68.09 0.8)" fill="none" stroke="#000" stroke-miterlimit="10" stroke-width="0.5"/><line y2="108" transform="translate(114.043 0.8)" fill="none" stroke="#000" stroke-miterlimit="10" stroke-width="0.5"/><line y2="108" transform="translate(159.916 0.8)" fill="none" stroke="#000" stroke-miterlimit="10" stroke-width="0.5"/><line y2="108" transform="translate(205.868 0.8)" fill="none" stroke="#000" stroke-miterlimit="10" stroke-width="0.5"/><text transform="translate(5.638 8.853)" font-size="7" font-family="HKGrotesk-Medium, HK Grotesk" font-weight="500"><tspan x="0" y="0">AMBIENTAZIONI</tspan></text><text transform="translate(5.638 16.698)" font-size="7" font-family="HKGrotesk-Medium, HK Grotesk" font-weight="500"><tspan x="0" y="0">RICORRENTI</tspan></text><text transform="translate(6.9 101.847)" font-size="7" font-family="HKGrotesk-Medium, HK Grotesk" font-weight="500"><tspan x="0" y="0">New York</tspan></text><text transform="translate(6.9 84.8)" font-size="7" font-family="HKGrotesk-Medium, HK Grotesk" font-weight="500"><tspan x="0" y="0">Parigi</tspan></text><text transform="translate(6.9 30.8)" font-size="7" font-family="HKGrotesk-Medium, HK Grotesk" font-weight="500"><tspan x="0" y="0">Sanremo</tspan></text><text transform="translate(6.9 65.8)" font-size="7" font-family="HKGrotesk-Medium, HK Grotesk" font-weight="500"><tspan x="0" y="0">Roma</tspan></text><text transform="translate(6.9 48.64)" font-size="7" font-family="HKGrotesk-Medium, HK Grotesk" font-weight="500"><tspan x="0" y="0">Torino</tspan></text><text transform="translate(71.9 12.001)" font-size="7" font-family="HKGrotesk-Medium, HK Grotesk" font-weight="500"><tspan x="0" y="0">1945 - 1955</tspan></text><text transform="translate(117.9 12.001)" font-size="7" font-family="HKGrotesk-Medium, HK Grotesk" font-weight="500"><tspan x="0" y="0">1956 - 1965</tspan></text><text transform="translate(164.9 12.001)" font-size="7" font-family="HKGrotesk-Medium, HK Grotesk" font-weight="500"><tspan x="0" y="0">1966 - 1975</tspan></text><text transform="translate(210.9 12.001)" font-size="7" font-family="HKGrotesk-Medium, HK Grotesk" font-weight="500"><tspan x="0" y="0">1976 - 1984</tspan></text><text transform="translate(226.9 101.227)" font-size="7" font-family="HKGrotesk-Regular, HK Grotesk"><tspan x="0" y="0">0</tspan></text><text transform="translate(87.9 101.227)" font-size="7" font-family="HKGrotesk-Regular, HK Grotesk"><tspan x="0" y="0">0</tspan></text><text transform="translate(133.9 101.227)" font-size="7" font-family="HKGrotesk-Regular, HK Grotesk"><tspan x="0" y="0">0</tspan></text><text transform="translate(181.9 101.227)" font-size="7" font-family="HKGrotesk-Regular, HK Grotesk"><tspan x="0" y="0">9</tspan></text><text transform="translate(224.9 84.8)" font-size="7" font-family="HKGrotesk-Regular, HK Grotesk"><tspan x="0" y="0">20</tspan></text><text transform="translate(87.9 84.8)" font-size="7" font-family="HKGrotesk-Regular, HK Grotesk"><tspan x="0" y="0">1</tspan></text><text transform="translate(133.9 84.8)" font-size="7" font-family="HKGrotesk-Regular, HK Grotesk"><tspan x="0" y="0">4</tspan></text><text transform="translate(179.9 84.8)" font-size="7" font-family="HKGrotesk-Regular, HK Grotesk"><tspan x="0" y="0">12</tspan></text><text transform="translate(226.9 65.8)" font-size="7" font-family="HKGrotesk-Regular, HK Grotesk"><tspan x="0" y="0">8</tspan></text><text transform="translate(87.9 65.8)" font-size="7" font-family="HKGrotesk-Regular, HK Grotesk"><tspan x="0" y="0">0</tspan></text><text transform="translate(133.9 65.8)" font-size="7" font-family="HKGrotesk-Regular, HK Grotesk"><tspan x="0" y="0">6</tspan></text><text transform="translate(180.9 65.8)" font-size="7" font-family="HKGrotesk-Regular, HK Grotesk"><tspan x="0" y="0">0</tspan></text><text transform="translate(226.9 30.8)" font-size="7" font-family="HKGrotesk-Regular, HK Grotesk"><tspan x="0" y="0">0</tspan></text><text transform="translate(87.9 30.8)" font-size="7" font-family="HKGrotesk-Regular, HK Grotesk"><tspan x="0" y="0">5</tspan></text><text transform="translate(133.9 30.8)" font-size="7" font-family="HKGrotesk-Regular, HK Grotesk"><tspan x="0" y="0">2</tspan></text><text transform="translate(180.9 30.8)" font-size="7" font-family="HKGrotesk-Regular, HK Grotesk"><tspan x="0" y="0">3</tspan></text><text transform="translate(226.9 48.46)" font-size="7" font-family="HKGrotesk-Regular, HK Grotesk"><tspan x="0" y="0">0</tspan></text><text transform="translate(87.9 47.627)" font-size="7" font-family="HKGrotesk-Regular, HK Grotesk"><tspan x="0" y="0">5</tspan></text><text transform="translate(133.9 47.627)" font-size="7" font-family="HKGrotesk-Regular, HK Grotesk"><tspan x="0" y="0">4</tspan></text><text transform="translate(180.9 48.46)" font-size="7" font-family="HKGrotesk-Regular, HK Grotesk"><tspan x="0" y="0">0</tspan></text></g><g fill="none" stroke="#000" stroke-width="0.5"><rect width="250" height="108" stroke="none"/><rect x="0.25" y="0.25" width="249.5" height="107.5" fill="none"/></g></g></svg>