<svg xmlns="http://www.w3.org/2000/svg" viewBox="0 0 20 20">
  <g id="Grid">
    <line x1="-843.74936" y1="13.00049" x2="522.25" y2="13.0007" fill="none" stroke="#000" stroke-miterlimit="10" stroke-width="0.5" opacity="0.1"/>
    <g opacity="0.1">
      <line x1="10" y1="93.76839" x2="10" y2="-70.75834" fill="none" stroke="#000" stroke-miterlimit="10" stroke-dasharray="5.98279 5.98279"/>
    </g>
  </g>
  <g id="Orbite">
    <ellipse cx="-160.75001" cy="348.38619" rx="998.36843" ry="355.5" fill="none" stroke="#666" stroke-miterlimit="10" stroke-dasharray="3.99741 5.99611"/>
    <ellipse cx="-160.75" cy="254.72725" rx="723.98376" ry="251.84106" fill="none" stroke="#666" stroke-miterlimit="10" stroke-dasharray="3.99773 5.99659"/>
    <ellipse cx="-160.75001" cy="131.38619" rx="340.29134" ry="118.5" fill="none" stroke="#666" stroke-miterlimit="10" stroke-dasharray="3.99201 5.98802"/>
  </g>
  <g id="Directions">
    <g>
      <circle cx="10" cy="10" r="10" fill="#5151fc"/>
      <path d="M13.376,13.28v1.26074H6.56836V13.39229c2.00293-1.23242,5.0293-3.26367,5.0293-5.70117a1.57341,1.57341,0,0,0-1.667-1.76465c-1.373,0-1.8916,1.10645-1.91894,2.28321L6.709,8.111A3.20955,3.20955,0,0,1,9.94434,4.63741a2.84269,2.84269,0,0,1,2.998,3.04c0,2.24121-1.90527,4.24414-4.23047,5.60254Z" fill="#fff"/>
    </g>
    <rect x="-13" y="-13" width="46" height="46" fill="none" stroke="#03f3ff" stroke-miterlimit="10" stroke-width="0.2833"/>
  </g>
</svg>
