<svg xmlns="http://www.w3.org/2000/svg" xmlns:xlink="http://www.w3.org/1999/xlink" width="65" height="165" viewBox="0 0 65 165">
  <defs>
    <clipPath id="clip-territorio_b_situazione_editoriale_3">
      <rect width="65" height="165"/>
    </clipPath>
  </defs>
  <g id="territorio_b_situazione_editoriale_3" clip-path="url(#clip-territorio_b_situazione_editoriale_3)">
    <g id="Group" transform="translate(1.668 30.881)">
      <ellipse id="Oval" cx="30.6" cy="17.7" rx="30.6" ry="17.7" transform="translate(0.6 15.1)" fill="#ffd93b" stroke="#444" stroke-linejoin="round" stroke-width="0.25"/>
      <ellipse id="Oval-2" data-name="Oval" cx="26.6" cy="15.4" rx="26.6" ry="15.4" transform="translate(4.6 13.3)" fill="#ffd93b" stroke="#444" stroke-linejoin="round" stroke-width="0.25"/>
      <ellipse id="Oval-3" data-name="Oval" cx="23.6" cy="13.6" rx="23.6" ry="13.6" transform="translate(7.6 11)" fill="#ffd93b" stroke="#444" stroke-linejoin="round" stroke-width="0.25"/>
      <ellipse id="Oval-4" data-name="Oval" cx="21.4" cy="12.4" rx="21.4" ry="12.4" transform="translate(9.8 8.2)" fill="#ffd93b" stroke="#444" stroke-linejoin="round" stroke-width="0.25"/>
      <ellipse id="Oval-5" data-name="Oval" cx="19.4" cy="11.2" rx="19.4" ry="11.2" transform="translate(11.8 5.3)" fill="#ffd93b" stroke="#444" stroke-linejoin="round" stroke-width="0.25"/>
      <ellipse id="Oval-6" data-name="Oval" cx="16.8" cy="9.7" rx="16.8" ry="9.7" transform="translate(14.4 2.7)" fill="#ffd93b" stroke="#444" stroke-linejoin="round" stroke-width="0.25"/>
      <ellipse id="Oval-7" data-name="Oval" cx="13" cy="7.5" rx="13" ry="7.5" transform="translate(18.2 0.8)" fill="#ffd93b" stroke="#444" stroke-linejoin="round" stroke-width="0.25"/>
      <ellipse id="Oval-8" data-name="Oval" cx="7.5" cy="4.3" rx="7.5" ry="4.3" transform="translate(23.7 0)" fill="#ffd93b" stroke="#444" stroke-linejoin="round" stroke-width="0.25"/>
    </g>
    <text id="Testo_contenuto_in_una_raccolta" data-name="Testo contenuto in una raccolta" transform="translate(2 111)" font-size="10" font-family="HKGrotesk-Regular, HK Grotesk"><tspan x="0" y="10">Testo </tspan><tspan x="0" y="23">contenuto in </tspan><tspan x="0" y="36">una raccolta</tspan></text>
  </g>
</svg>
