<?xml version="1.0" encoding="utf-8"?>
<!-- Generator: Adobe Illustrator 25.0.0, SVG Export Plug-In . SVG Version: 6.00 Build 0)  -->
<svg version="1.1" id="Livello_1" xmlns="http://www.w3.org/2000/svg" xmlns:xlink="http://www.w3.org/1999/xlink" x="0px" y="0px"
	 viewBox="0 0 75 160" enable-background="new 0 0 75 160" xml:space="preserve">
<ellipse id="Oval" fill="#FFD93B" stroke="#444444" stroke-width="0.25" stroke-linejoin="round" cx="31.66701" cy="63.68101" rx="30.6" ry="17.7"/>
<ellipse id="Oval-2" fill="#FFD93B" stroke="#444444" stroke-width="0.25" stroke-linejoin="round" cx="31.66701" cy="59.58101" rx="26.6" ry="15.4"/>
<ellipse id="Oval-3" fill="#FFD93B" stroke="#444444" stroke-width="0.25" stroke-linejoin="round" cx="31.66701" cy="55.48101" rx="23.6" ry="13.6"/>
<ellipse id="Oval-4" fill="#FFD93B" stroke="#444444" stroke-width="0.25" stroke-linejoin="round" cx="31.66701" cy="51.48101" rx="21.4" ry="12.4"/>
<ellipse id="Oval-5" fill="#FFD93B" stroke="#444444" stroke-width="0.25" stroke-linejoin="round" cx="31.66701" cy="47.38101" rx="19.4" ry="11.2"/>
<ellipse id="Oval-6" fill="#FFD93B" stroke="#444444" stroke-width="0.25" stroke-linejoin="round" cx="31.56701" cy="43.28101" rx="16.8" ry="9.7"/>
<ellipse id="Oval-7" fill="#FFD93B" stroke="#444444" stroke-width="0.25" stroke-linejoin="round" cx="31.66701" cy="39.18101" rx="13" ry="7.5"/>
<ellipse id="Oval-8" fill="#FFD93B" stroke="#444444" stroke-width="0.25" stroke-linejoin="round" cx="31.66701" cy="35.18101" rx="7.5" ry="4.3"/>
<g enable-background="new    ">
	<path d="M3.49854,114.69336H1.08984v-0.65918h5.54688v0.65918H4.21826V121H3.49854V114.69336z"/>
	<path d="M10.82715,118.72168H7.21924c0.02002,1.0791,0.61963,1.72852,1.58936,1.72852c0.53955,0,0.96924-0.13965,1.41895-0.61914
		l0.47998,0.41895c-0.57959,0.61035-1.14941,0.83008-1.90918,0.83008c-1.49902,0-2.26855-1.11914-2.26855-2.51855
		c0-1.38965,0.75977-2.56836,2.18896-2.56836c1.50879,0,2.13867,1.17871,2.13867,2.29785
		C10.85742,118.43164,10.84717,118.60156,10.82715,118.72168z M7.21924,118.1416h2.97852c0-0.02051-0.01025-0.07031-0.01025-0.16016
		c-0.0498-0.7998-0.55957-1.40918-1.46875-1.40918C7.8291,116.57227,7.2793,117.27246,7.21924,118.1416z"/>
	<path d="M11.71973,119.79102l0.57959-0.25977c0.17969,0.50977,0.65967,0.93945,1.4292,0.93945
		c0.66943,0,1.09961-0.33008,1.09961-0.84961c0-1.30957-2.83887-0.49023-2.83887-2.23926c0-0.85938,0.69971-1.38867,1.68945-1.38867
		c0.78955,0,1.4292,0.3291,1.76904,1.0293l-0.5498,0.2998c-0.23975-0.44043-0.62988-0.71973-1.23926-0.71973
		c-0.60986,0-0.99951,0.25-0.99951,0.67969c0,1.16895,2.84814,0.42969,2.84814,2.29883c0,0.99902-0.81934,1.49902-1.76904,1.49902
		C12.76904,121.08008,11.97949,120.58008,11.71973,119.79102z"/>
	<path d="M18.9585,120.9502c-0.25977,0.08008-0.52002,0.12988-0.74951,0.12988c-0.65967,0-1.13965-0.37012-1.13965-1.23926v-3.18848
		H16.25v-0.58008h0.81934v-1.37891l0.68945-0.51953v1.89844h1.18945v0.58008h-1.18945v3.09863
		c0,0.47949,0.22021,0.69922,0.60986,0.69922c0.16992,0,0.35986-0.04004,0.57959-0.10938L18.9585,120.9502z"/>
	<path d="M19.79004,118.53125c0-1.45898,0.94922-2.53809,2.3584-2.53809c1.39941,0,2.36865,1.0791,2.36865,2.53809
		c0,1.44922-0.95947,2.54883-2.36865,2.54883S19.79004,119.99023,19.79004,118.53125z M23.82764,118.53125
		c0-1.11914-0.62988-1.92871-1.6792-1.92871c-1.05957,0-1.66895,0.81934-1.66895,1.92871c0,1.11914,0.61963,1.93945,1.66895,1.93945
		C23.20801,120.4707,23.82764,119.63086,23.82764,118.53125z"/>
</g>
<g enable-background="new    ">
	<path d="M1.24951,131.55176c0-1.2998,0.72998-2.55859,2.21924-2.55859c0.87939,0,1.60889,0.43945,1.99854,1.3584l-0.65967,0.26074
		c-0.22949-0.62988-0.71924-1.00977-1.33887-1.00977c-1.0498,0-1.51953,0.93945-1.51953,1.94922
		c0,1.00879,0.46973,1.91895,1.5293,1.91895c0.61963,0,1.10938-0.37012,1.29932-1l0.63965,0.24023
		c-0.33008,0.89941-1.04932,1.36914-1.93896,1.36914C2.04932,134.08008,1.24951,132.9209,1.24951,131.55176z"/>
	<path d="M6.25977,131.53125c0-1.45898,0.94971-2.53809,2.35889-2.53809c1.39941,0,2.36865,1.0791,2.36865,2.53809
		c0,1.44922-0.95947,2.54883-2.36865,2.54883S6.25977,132.99023,6.25977,131.53125z M10.29785,131.53125
		c0-1.11914-0.62988-1.92871-1.6792-1.92871c-1.05957,0-1.66895,0.81934-1.66895,1.92871c0,1.11914,0.61963,1.93945,1.66895,1.93945
		C9.67822,133.4707,10.29785,132.63086,10.29785,131.53125z"/>
	<path d="M16.30713,130.98145V134h-0.68945v-2.84863c0-1.05957-0.33984-1.54883-1.07959-1.54883
		c-0.92969,0-1.46924,0.7998-1.46924,2.18848V134h-0.68945v-4.92773h0.68945v0.71973
		c0.31982-0.49902,0.91943-0.79883,1.62891-0.79883C15.75732,128.99316,16.30713,129.67285,16.30713,130.98145z"/>
	<path d="M20.05811,133.9502c-0.25977,0.08008-0.52002,0.12988-0.74951,0.12988c-0.65967,0-1.13965-0.37012-1.13965-1.23926
		v-3.18848h-0.81934v-0.58008h0.81934v-1.37891l0.68945-0.51953v1.89844h1.18945v0.58008H18.8584v3.09863
		c0,0.47949,0.22021,0.69922,0.60986,0.69922c0.16992,0,0.35986-0.04004,0.57959-0.10938L20.05811,133.9502z"/>
	<path d="M25.2168,131.72168h-3.60791c0.02002,1.0791,0.61963,1.72852,1.58936,1.72852c0.53955,0,0.96924-0.13965,1.41895-0.61914
		l0.47998,0.41895c-0.57959,0.61035-1.14941,0.83008-1.90918,0.83008c-1.49902,0-2.26855-1.11914-2.26855-2.51855
		c0-1.38965,0.75977-2.56836,2.18896-2.56836c1.50879,0,2.13867,1.17871,2.13867,2.29785
		C25.24707,131.43164,25.23682,131.60156,25.2168,131.72168z M21.60889,131.1416h2.97852c0-0.02051-0.01025-0.07031-0.01025-0.16016
		c-0.0498-0.7998-0.55957-1.40918-1.46875-1.40918C22.21875,129.57227,21.66895,130.27246,21.60889,131.1416z"/>
	<path d="M30.56738,130.98145V134h-0.68945v-2.84863c0-1.05957-0.33984-1.54883-1.07959-1.54883
		c-0.92969,0-1.46924,0.7998-1.46924,2.18848V134h-0.68945v-4.92773h0.68945v0.71973
		c0.31982-0.49902,0.91943-0.79883,1.62891-0.79883C30.01758,128.99316,30.56738,129.67285,30.56738,130.98145z"/>
	<path d="M35.97705,129.07227V134H35.2876v-0.70996c-0.3501,0.53027-0.97949,0.79004-1.62939,0.79004
		c-1.11914,0-1.60889-0.76953-1.60889-1.98926v-3.01855h0.68945v2.84863c0,0.7998,0.14014,1.5498,1.07959,1.5498
		c0.97949,0,1.46924-0.84961,1.46924-2.12891v-2.26953H35.97705z"/>
	<path d="M39.84766,133.9502c-0.25977,0.08008-0.51953,0.12988-0.74902,0.12988c-0.65918,0-1.13965-0.37012-1.13965-1.23926
		v-3.18848h-0.81934v-0.58008h0.81934v-1.37891l0.68945-0.51953v1.89844h1.18945v0.58008h-1.18945v3.09863
		c0,0.47949,0.2207,0.69922,0.60938,0.69922c0.16992,0,0.36035-0.04004,0.58008-0.10938L39.84766,133.9502z"/>
	<path d="M40.67969,131.53125c0-1.45898,0.94922-2.53809,2.3584-2.53809c1.39941,0,2.36816,1.0791,2.36816,2.53809
		c0,1.44922-0.95898,2.54883-2.36816,2.54883S40.67969,132.99023,40.67969,131.53125z M44.7168,131.53125
		c0-1.11914-0.62891-1.92871-1.67871-1.92871c-1.05957,0-1.66895,0.81934-1.66895,1.92871
		c0,1.11914,0.61914,1.93945,1.66895,1.93945C44.09766,133.4707,44.7168,132.63086,44.7168,131.53125z"/>
	<path d="M49.46875,127.03418h0.7998v1.01953h-0.7998V127.03418z M49.5293,129.07227h0.68945V134H49.5293V129.07227z"/>
	<path d="M55.9668,130.98145V134h-0.68945v-2.84863c0-1.05957-0.33984-1.54883-1.08008-1.54883
		c-0.92969,0-1.46875,0.7998-1.46875,2.18848V134h-0.68945v-4.92773h0.68945v0.71973
		c0.32031-0.49902,0.91992-0.79883,1.62891-0.79883C55.41699,128.99316,55.9668,129.67285,55.9668,130.98145z"/>
</g>
<g enable-background="new    ">
	<path d="M5.46729,142.07227V147H4.77783v-0.70996c-0.3501,0.53027-0.97949,0.79004-1.62939,0.79004
		c-1.11914,0-1.60889-0.76953-1.60889-1.98926v-3.01855H2.229v2.84863c0,0.7998,0.14014,1.5498,1.07959,1.5498
		c0.97949,0,1.46924-0.84961,1.46924-2.12891v-2.26953H5.46729z"/>
	<path d="M11.21729,143.98145V147h-0.68945v-2.84863c0-1.05957-0.33984-1.54883-1.07959-1.54883
		c-0.92969,0-1.46924,0.7998-1.46924,2.18848V147H7.28955v-4.92773H7.979v0.71973c0.31982-0.49902,0.91943-0.79883,1.62891-0.79883
		C10.66748,141.99316,11.21729,142.67285,11.21729,143.98145z"/>
	<path d="M16.5874,143.93164V147h-0.62988l-0.04004-0.75977c-0.38965,0.5498-0.98926,0.83984-1.76904,0.83984
		c-1.06934,0-1.69873-0.55957-1.69873-1.50977c0-0.49902,0.19971-0.87891,0.55957-1.09863
		c0.37988-0.21973,0.90967-0.31055,1.87891-0.31055h1.00928v-0.22949c0-0.85938-0.44971-1.3291-1.2793-1.3291
		c-0.61963,0-1.09912,0.26953-1.49902,0.81934l-0.49951-0.41992c0.5293-0.68945,1.16895-1.00879,2.00879-1.00879
		C15.86768,141.99316,16.5874,142.70215,16.5874,143.93164z M15.89746,144.79102v-0.06934h-0.94922
		c-0.90967,0-1.29932,0.05957-1.53906,0.24902c-0.18018,0.14062-0.27002,0.36035-0.27002,0.63965
		c0,0.5498,0.46973,0.90039,1.20947,0.90039C15.29785,146.51074,15.89746,145.84082,15.89746,144.79102z"/>
	<path d="M23.99756,142.20312l-0.33984,0.55957c-0.22949-0.10059-0.43945-0.15039-0.64941-0.15039
		c-0.75977,0-1.31934,0.56934-1.31934,1.63965V147h-0.68945v-4.92773h0.68945v0.74023
		c0.35986-0.64941,0.95947-0.81934,1.45898-0.81934C23.44824,141.99316,23.72803,142.05273,23.99756,142.20312z"/>
	<path d="M28.68701,143.93164V147h-0.62988l-0.04004-0.75977c-0.38965,0.5498-0.98926,0.83984-1.76904,0.83984
		c-1.06934,0-1.69873-0.55957-1.69873-1.50977c0-0.49902,0.19971-0.87891,0.55957-1.09863
		c0.37988-0.21973,0.90967-0.31055,1.87891-0.31055h1.00928v-0.22949c0-0.85938-0.44971-1.3291-1.2793-1.3291
		c-0.61963,0-1.09912,0.26953-1.49902,0.81934l-0.49951-0.41992c0.5293-0.68945,1.16895-1.00879,2.00879-1.00879
		C27.96729,141.99316,28.68701,142.70215,28.68701,143.93164z M27.99707,144.79102v-0.06934h-0.94922
		c-0.90967,0-1.29932,0.05957-1.53906,0.24902c-0.18018,0.14062-0.27002,0.36035-0.27002,0.63965
		c0,0.5498,0.46973,0.90039,1.20947,0.90039C27.39746,146.51074,27.99707,145.84082,27.99707,144.79102z"/>
	<path d="M29.95898,144.55176c0-1.2998,0.72998-2.55859,2.21875-2.55859c0.87988,0,1.60938,0.43945,1.99902,1.3584l-0.65967,0.26074
		c-0.22949-0.62988-0.71924-1.00977-1.33936-1.00977c-1.04932,0-1.51904,0.93945-1.51904,1.94922
		c0,1.00879,0.46973,1.91895,1.5293,1.91895c0.61963,0,1.10938-0.37012,1.29932-1l0.63965,0.24023
		c-0.33008,0.89941-1.04932,1.36914-1.93896,1.36914C30.75879,147.08008,29.95898,145.9209,29.95898,144.55176z"/>
	<path d="M34.98877,144.55176c0-1.2998,0.72998-2.55859,2.21924-2.55859c0.87988,0,1.6084,0.43945,1.99902,1.3584l-0.66016,0.26074
		c-0.22949-0.62988-0.71924-1.00977-1.33887-1.00977c-1.0498,0-1.51953,0.93945-1.51953,1.94922
		c0,1.00879,0.46973,1.91895,1.5293,1.91895c0.61963,0,1.10938-0.37012,1.2998-1l0.63867,0.24023
		c-0.33008,0.89941-1.04883,1.36914-1.93848,1.36914C35.78857,147.08008,34.98877,145.9209,34.98877,144.55176z"/>
	<path d="M39.99902,144.53125c0-1.45898,0.9502-2.53809,2.3584-2.53809c1.40039,0,2.36914,1.0791,2.36914,2.53809
		c0,1.44922-0.95898,2.54883-2.36914,2.54883C40.94922,147.08008,39.99902,145.99023,39.99902,144.53125z M44.03711,144.53125
		c0-1.11914-0.62988-1.92871-1.67969-1.92871c-1.05859,0-1.66797,0.81934-1.66797,1.92871
		c0,1.11914,0.61914,1.93945,1.66797,1.93945C43.41797,146.4707,44.03711,145.63086,44.03711,144.53125z"/>
	<path d="M46.0791,145.93066v-5.89648h0.68945v5.85645c0,0.33984,0.12012,0.55957,0.4502,0.55957
		c0.14941,0,0.31934-0.04004,0.46875-0.08984l0.01074,0.58984c-0.20996,0.06934-0.45996,0.12988-0.67969,0.12988
		C46.44922,147.08008,46.0791,146.7002,46.0791,145.93066z"/>
	<path d="M50.86719,146.9502c-0.25977,0.08008-0.51953,0.12988-0.74902,0.12988c-0.65918,0-1.13965-0.37012-1.13965-1.23926
		v-3.18848h-0.81934v-0.58008h0.81934v-1.37891l0.68945-0.51953v1.89844h1.18945v0.58008h-1.18945v3.09863
		c0,0.47949,0.2207,0.69922,0.60938,0.69922c0.16992,0,0.36035-0.04004,0.58008-0.10938L50.86719,146.9502z"/>
	<path d="M55.84668,143.93164V147H55.2168l-0.04004-0.75977c-0.38965,0.5498-0.98926,0.83984-1.76855,0.83984
		c-1.07031,0-1.69922-0.55957-1.69922-1.50977c0-0.49902,0.19922-0.87891,0.55957-1.09863
		c0.37988-0.21973,0.90918-0.31055,1.87891-0.31055h1.00879v-0.22949c0-0.85938-0.44922-1.3291-1.2793-1.3291
		c-0.61914,0-1.09863,0.26953-1.49805,0.81934l-0.5-0.41992c0.5293-0.68945,1.16895-1.00879,2.00879-1.00879
		C55.12695,141.99316,55.84668,142.70215,55.84668,143.93164z M55.15625,144.79102v-0.06934h-0.94922
		c-0.90918,0-1.29883,0.05957-1.53906,0.24902c-0.17969,0.14062-0.26953,0.36035-0.26953,0.63965
		c0,0.5498,0.46973,0.90039,1.20898,0.90039C54.55664,146.51074,55.15625,145.84082,55.15625,144.79102z"/>
</g>
<rect x="-0.2" fill="none" width="75.5" height="160"/>
</svg>
