<?xml version="1.0" encoding="utf-8"?>
<!-- Generator: Adobe Illustrator 25.0.0, SVG Export Plug-In . SVG Version: 6.00 Build 0)  -->
<svg version="1.1" id="Livello_1" xmlns="http://www.w3.org/2000/svg" xmlns:xlink="http://www.w3.org/1999/xlink" x="0px" y="0px"
	 viewBox="0 0 220.39999 74.6" enable-background="new 0 0 220.39999 74.6" xml:space="preserve">
<ellipse id="Oval" fill="#00C19C" stroke="#444444" stroke-width="0.25" cx="30.725" cy="32.925" rx="30.6" ry="17.7"/>
<ellipse id="Oval-2" fill="#00C19C" stroke="#444444" stroke-width="0.25" cx="30.725" cy="28.825" rx="26.6" ry="15.4"/>
<ellipse id="Oval-3" fill="#00C19C" stroke="#444444" stroke-width="0.25" cx="30.725" cy="24.725" rx="23.6" ry="13.6"/>
<ellipse id="Oval-4" fill="#00C19C" stroke="#444444" stroke-width="0.25" cx="30.725" cy="20.725" rx="21.4" ry="12.4"/>
<ellipse id="Oval-5" fill="#00C19C" stroke="#444444" stroke-width="0.25" cx="30.725" cy="16.625" rx="19.4" ry="11.2"/>
<ellipse id="Oval-6" fill="#00C19C" stroke="#444444" stroke-width="0.25" cx="30.725" cy="12.525" rx="16.8" ry="9.7"/>
<ellipse id="Oval-7" fill="#00C19C" stroke="#444444" stroke-width="0.25" cx="30.725" cy="8.425" rx="13" ry="7.5"/>
<ellipse id="Oval-8" fill="#00C19C" stroke="#444444" stroke-width="0.25" cx="30.725" cy="4.425" rx="7.5" ry="4.3"/>
<ellipse id="Oval-9" fill="#00BAC1" stroke="#444444" stroke-width="0.25" cx="110.12501" cy="32.925" rx="30.6" ry="17.7"/>
<ellipse id="Oval-10" fill="#00BAC1" stroke="#444444" stroke-width="0.25" cx="110.12501" cy="28.825" rx="26.6" ry="15.4"/>
<ellipse id="Oval-11" fill="#00BAC1" stroke="#444444" stroke-width="0.25" cx="110.12501" cy="24.725" rx="23.6" ry="13.6"/>
<ellipse id="Oval-12" fill="#00BAC1" stroke="#444444" stroke-width="0.25" cx="110.125" cy="20.725" rx="21.4" ry="12.4"/>
<ellipse id="Oval-13" fill="#00BAC1" stroke="#444444" stroke-width="0.25" cx="110.125" cy="16.625" rx="19.4" ry="11.2"/>
<ellipse id="Oval-14" fill="#00BAC1" stroke="#444444" stroke-width="0.25" cx="110.125" cy="12.525" rx="16.8" ry="9.7"/>
<ellipse id="Oval-15" fill="#00BAC1" stroke="#444444" stroke-width="0.25" cx="110.125" cy="8.425" rx="13" ry="7.5"/>
<ellipse id="Oval-16" fill="#00BAC1" stroke="#444444" stroke-width="0.25" cx="110.125" cy="4.425" rx="7.5" ry="4.3"/>
<ellipse id="Oval-17" fill="#5151FC" stroke="#444444" stroke-width="0.25" cx="189.72501" cy="32.925" rx="30.6" ry="17.7"/>
<ellipse id="Oval-18" fill="#5151FC" stroke="#444444" stroke-width="0.25" cx="189.72501" cy="28.825" rx="26.6" ry="15.4"/>
<ellipse id="Oval-19" fill="#5151FC" stroke="#444444" stroke-width="0.25" cx="189.72501" cy="24.725" rx="23.6" ry="13.6"/>
<ellipse id="Oval-20" fill="#5151FC" stroke="#444444" stroke-width="0.25" cx="189.72501" cy="20.725" rx="21.4" ry="12.4"/>
<ellipse id="Oval-21" fill="#5151FC" stroke="#444444" stroke-width="0.25" cx="189.72501" cy="16.625" rx="19.4" ry="11.2"/>
<ellipse id="Oval-22" fill="#5151FC" stroke="#444444" stroke-width="0.25" cx="189.72501" cy="12.525" rx="16.8" ry="9.7"/>
<ellipse id="Oval-23" fill="#5151FC" stroke="#444444" stroke-width="0.25" cx="189.72501" cy="8.425" rx="13" ry="7.5"/>
<ellipse id="Oval-24" fill="#5151FC" stroke="#444444" stroke-width="0.25" cx="189.72501" cy="4.425" rx="7.5" ry="4.3"/>
<rect id="Rectangle" x="20.625" y="60.625" fill="#566973" width="176.10001" height="1"/>
<g>
	<path d="M21.66455,66.25977v6.96582h-0.68994v-5.16699h-1.73877v-0.67969h1.15918c0.34961,0,0.57959-0.12012,0.57959-0.53027
		v-0.58887H21.66455z"/>
	<path d="M28.87354,68.48828c0,0.42969-0.14014,0.87988-0.35986,1.23926l-2.09912,3.49805h-0.7793l1.60889-2.61816
		c-0.35986,0.12988-0.79932,0.19922-1.229,0.11914c-1.0498-0.18945-1.87891-1.10938-1.87891-2.22852
		c0-1.26953,1.05908-2.31836,2.36865-2.31836C27.8042,66.17969,28.87354,67.21875,28.87354,68.48828z M28.17383,68.49805
		c0-0.90918-0.73975-1.65918-1.66895-1.65918c-0.91943,0-1.66943,0.75-1.66943,1.65918s0.75,1.64941,1.66943,1.64941
		S28.17383,69.40723,28.17383,68.49805z"/>
	<path d="M34.83301,70.90723v0.65918h-1.12939v1.65918h-0.68945v-1.65918h-3.48828v-0.44922l3.53809-4.85742h0.63965v4.64746
		H34.83301z M33.01416,70.90723v-3.6084l-2.56836,3.6084H33.01416z"/>
	<path d="M35.3457,71.14648l0.67969-0.04004c0,0.99023,0.72998,1.55957,1.7793,1.55957c0.98926,0,1.73877-0.53027,1.73877-1.47949
		c0-1.17871-1.18896-1.33887-2.08887-1.33887v-0.58008c1.00977,0,1.71924-0.37988,1.71924-1.24902
		c0-0.81934-0.59961-1.19922-1.33936-1.19922c-0.86963,0-1.46924,0.47949-1.479,1.33887l-0.66992-0.0498
		c0-1.20898,0.90967-1.94922,2.11914-1.94922c1.09912,0,2.05859,0.63965,2.05859,1.7793c0,0.83984-0.52979,1.39941-1.04932,1.56934
		c0.75977,0.13965,1.41943,0.71973,1.41943,1.73926c0,1.31934-1.07959,2.07812-2.43896,2.07812
		C36.40527,73.3252,35.3457,72.55566,35.3457,71.14648z"/>
</g>
<g>
	<path d="M182.08301,66.25977v6.96582h-0.68945v-5.16699h-1.73926v-0.67969h1.15918c0.34961,0,0.58008-0.12012,0.58008-0.53027
		v-0.58887H182.08301z"/>
	<path d="M189.29199,68.48828c0,0.42969-0.13965,0.87988-0.35938,1.23926l-2.09961,3.49805h-0.7793l1.60938-2.61816
		c-0.36035,0.12988-0.7998,0.19922-1.22949,0.11914c-1.0498-0.18945-1.87891-1.10938-1.87891-2.22852
		c0-1.26953,1.05957-2.31836,2.36914-2.31836C188.22266,66.17969,189.29199,67.21875,189.29199,68.48828z M188.59277,68.49805
		c0-0.90918-0.74023-1.65918-1.66895-1.65918c-0.91992,0-1.66992,0.75-1.66992,1.65918s0.75,1.64941,1.66992,1.64941
		C187.84277,70.14746,188.59277,69.40723,188.59277,68.49805z"/>
	<path d="M190.19434,71.25684c0-0.87988,0.49023-1.54883,1.2998-1.81934c-0.5498-0.26953-0.90918-0.81934-0.90918-1.50879
		c0-1.10938,0.98926-1.74902,1.97852-1.74902c1.06934,0,1.95898,0.69922,1.95898,1.78906c0,0.67969-0.37988,1.21875-0.90918,1.46875
		c0.79883,0.27051,1.2793,0.94922,1.2793,1.81934c0,1.36914-1.14941,2.04883-2.33887,2.04883S190.19434,72.62598,190.19434,71.25684
		z M194.21289,71.20703c0-0.91016-0.68945-1.48926-1.65918-1.48926c-0.97949,0-1.66895,0.5791-1.66895,1.48926
		c0,0.95898,0.7793,1.43848,1.66895,1.43848C193.43262,72.64551,194.21289,72.16602,194.21289,71.20703z M193.84277,68.01855
		c0-0.68945-0.5293-1.17969-1.2793-1.17969c-0.68945,0-1.28906,0.42969-1.28906,1.14941c0,0.76953,0.5293,1.24902,1.28906,1.24902
		C193.31348,69.2373,193.84277,68.75781,193.84277,68.01855z"/>
	<path d="M200.61133,70.86719c0,1.31934-1.0293,2.43848-2.41797,2.43848c-1.25977,0-2.16895-0.88965-2.36914-2.00879
		l0.67969-0.11035c0.15039,0.83984,0.7793,1.45898,1.68945,1.45898c1.0293,0,1.68848-0.8291,1.68848-1.77832
		c0-0.91992-0.59961-1.65918-1.60938-1.65918c-0.66895,0-1.17871,0.33008-1.52832,0.83887l-0.7002-0.18945l0.62988-3.59766h3.6084
		v0.65918h-3.03906l-0.39941,2.25879c0.46973-0.43945,0.99902-0.60938,1.50879-0.60938
		C199.66211,68.56836,200.61133,69.58789,200.61133,70.86719z"/>
</g>
</svg>
