<svg xmlns="http://www.w3.org/2000/svg" width="75.5" height="160" viewBox="0 0 75.5 160">
  <g id="Group_4717" data-name="Group 4717" transform="translate(-245 -326)">
    <g id="Rectangle_13358" data-name="Rectangle 13358" transform="translate(245 326)" fill="none" stroke="#fffffa" stroke-width="1">
      <rect width="75.5" height="160" stroke="none"/>
      <rect x="0.5" y="0.5" width="74.5" height="159" fill="none"/>
    </g>
    <path id="prima-pubblicazione" d="M-22.626-4.518a1.728,1.728,0,0,0-1.422.648v-.567h-.729V1.836h.729V-.576a1.719,1.719,0,0,0,1.422.648c1.251,0,1.953-.945,1.953-2.3C-20.673-3.591-21.4-4.518-22.626-4.518Zm-.135,3.951c-.891,0-1.35-.7-1.35-1.656,0-.99.5-1.656,1.359-1.656.846,0,1.341.657,1.341,1.656C-21.411-1.251-21.87-.567-22.761-.567Zm5.175-3.942a1.394,1.394,0,0,0-1.287.756v-.684H-19.6V0h.729V-2.412c0-.927.477-1.422,1.134-1.422a1.482,1.482,0,0,1,.585.135l.351-.612A1.536,1.536,0,0,0-17.586-4.509Zm1.557-.8h.819v-.963h-.819ZM-15.975,0h.729V-4.437h-.729Zm6.669-4.509a1.511,1.511,0,0,0-1.458.864,1.287,1.287,0,0,0-1.3-.864,1.348,1.348,0,0,0-1.215.612v-.54h-.711L-13.977,0h.729V-2.025c0-.72.072-1.845,1.053-1.845.756,0,.945.675.945,1.323V0h.729V-2.025c0-.882.135-1.845,1.08-1.845.918,0,.918.954.918,1.3V0h.729V-2.79C-7.794-3.78-8.244-4.509-9.306-4.509Zm4.5,0a2.254,2.254,0,0,0-1.863.891l.531.45a1.565,1.565,0,0,1,1.3-.7.992.992,0,0,1,1.1,1.1v.189h-.954a3.207,3.207,0,0,0-1.593.27A1.1,1.1,0,0,0-6.8-1.3C-6.8-.45-6.219.072-5.247.072a1.773,1.773,0,0,0,1.53-.729L-3.672,0h.666V-2.772A1.618,1.618,0,0,0-4.806-4.509ZM-5.058-.522c-.621,0-1.017-.3-1.017-.756A.641.641,0,0,1-5.85-1.8c.207-.162.522-.207,1.233-.207h.882v.045A1.3,1.3,0,0,1-5.058-.522Zm-47.547,8a1.728,1.728,0,0,0-1.422.648V7.563h-.729v6.273h.729V11.424a1.719,1.719,0,0,0,1.422.648c1.251,0,1.953-.945,1.953-2.295C-50.652,8.409-51.381,7.482-52.6,7.482Zm-.135,3.951c-.891,0-1.35-.7-1.35-1.656,0-.99.495-1.656,1.359-1.656.846,0,1.341.657,1.341,1.656C-51.39,10.749-51.849,11.433-52.74,11.433Zm6.021-3.87V9.516c0,1.134-.378,1.917-1.251,1.917-.918,0-.936-.855-.936-1.323V7.563h-.729v2.718c0,1.089.45,1.791,1.485,1.791a1.679,1.679,0,0,0,1.431-.684V12h.729V7.563Zm4.149-.081A1.741,1.741,0,0,0-44,8.139V5.727h-.729V12H-44v-.567a1.736,1.736,0,0,0,1.422.639c1.278,0,1.953-.981,1.953-2.295C-40.626,8.373-41.382,7.482-42.57,7.482Zm-.135,3.933c-.9,0-1.359-.693-1.359-1.638,0-.972.495-1.647,1.35-1.647s1.35.648,1.35,1.647C-41.364,10.74-41.823,11.415-42.7,11.415Zm5.31-3.933a1.741,1.741,0,0,0-1.431.657V5.727h-.729V12h.729v-.567a1.736,1.736,0,0,0,1.422.639c1.278,0,1.953-.981,1.953-2.295C-35.451,8.373-36.207,7.482-37.395,7.482Zm-.135,3.933c-.9,0-1.359-.693-1.359-1.638,0-.972.495-1.647,1.35-1.647s1.35.648,1.35,1.647C-36.189,10.74-36.648,11.415-37.53,11.415Zm4.023.657a2.141,2.141,0,0,0,.639-.117l-.009-.612a1.427,1.427,0,0,1-.4.072c-.3,0-.387-.2-.387-.459V5.727H-34.4V11.01C-34.4,11.73-34.038,12.072-33.507,12.072ZM-32.04,6.69h.819V5.727h-.819Zm.054,5.31h.729V7.563h-.729Zm3.834.072a1.807,1.807,0,0,0,1.773-1.251l-.675-.252a1.126,1.126,0,0,1-1.1.864c-.909,0-1.3-.783-1.3-1.638s.387-1.665,1.287-1.665A1.2,1.2,0,0,1-27.027,9l.693-.27a1.877,1.877,0,0,0-1.827-1.242,2.091,2.091,0,0,0-2.034,2.3A2.074,2.074,0,0,0-28.152,12.072Zm4.572-4.581a2.254,2.254,0,0,0-1.863.891l.531.45a1.565,1.565,0,0,1,1.305-.7.992.992,0,0,1,1.1,1.1v.189h-.954a3.207,3.207,0,0,0-1.593.27,1.1,1.1,0,0,0-.522,1.008c0,.855.585,1.377,1.557,1.377a1.773,1.773,0,0,0,1.53-.729l.045.657h.666V9.228A1.618,1.618,0,0,0-23.58,7.491Zm-.252,3.987c-.621,0-1.017-.3-1.017-.756a.641.641,0,0,1,.225-.522c.207-.162.522-.207,1.233-.207h.882v.045A1.3,1.3,0,0,1-23.832,11.478Zm6.66-3.915h-3.564v.621h2.664l-2.808,3.3V12h3.69v-.621h-2.727l2.745-3.258Zm.936-.873h.819V5.727h-.819Zm.054,5.31h.729V7.563h-.729Zm3.933.072A2.154,2.154,0,0,0-10.1,9.777a2.141,2.141,0,0,0-2.151-2.286A2.136,2.136,0,0,0-14.4,9.777,2.144,2.144,0,0,0-12.249,12.072Zm0-.639c-.918,0-1.422-.72-1.422-1.656A1.452,1.452,0,0,1-12.249,8.13a1.457,1.457,0,0,1,1.422,1.647A1.469,1.469,0,0,1-12.249,11.433Zm5.373-3.942a1.68,1.68,0,0,0-1.44.693V7.563h-.729V12h.729V10c0-1.134.414-1.872,1.251-1.872.729,0,.936.549.936,1.323V12H-5.4V9.246C-5.4,8.1-5.913,7.491-6.876,7.491ZM-.423,9.6A1.925,1.925,0,0,0-2.376,7.491,2.063,2.063,0,0,0-4.383,9.8,2.04,2.04,0,0,0-2.3,12.072a2.2,2.2,0,0,0,1.737-.756l-.5-.441a1.537,1.537,0,0,1-1.224.531A1.3,1.3,0,0,1-3.654,9.993h3.2A3.372,3.372,0,0,0-.423,9.6ZM-2.385,8.1A1.174,1.174,0,0,1-1.134,9.282a.978.978,0,0,0,.009.117h-2.52A1.266,1.266,0,0,1-2.385,8.1Z" transform="translate(306 415)"/>
    <path id="ultima-ripubblicazio" d="M-23.292-4.437v1.953c0,1.134-.378,1.917-1.251,1.917-.918,0-.936-.855-.936-1.323V-4.437h-.729v2.718c0,1.089.45,1.791,1.485,1.791a1.679,1.679,0,0,0,1.431-.684V0h.729V-4.437ZM-20.43.072a2.141,2.141,0,0,0,.639-.117L-19.8-.657a1.427,1.427,0,0,1-.4.072c-.3,0-.387-.2-.387-.459V-6.273h-.729V-.99C-21.321-.27-20.961.072-20.43.072Zm3.474-3.906v-.6h-1.08V-6.066l-.729.549v1.08H-19.5v.6h.738V-1.1A1.032,1.032,0,0,0-17.658.072a2.342,2.342,0,0,0,.7-.117V-.666a1.92,1.92,0,0,1-.531.1c-.378,0-.549-.225-.549-.621V-3.834Zm.927-1.476h.819v-.963h-.819ZM-15.975,0h.729V-4.437h-.729Zm6.669-4.509a1.511,1.511,0,0,0-1.458.864,1.287,1.287,0,0,0-1.3-.864,1.348,1.348,0,0,0-1.215.612v-.54h-.711L-13.977,0h.729V-2.025c0-.72.072-1.845,1.053-1.845.756,0,.945.675.945,1.323V0h.729V-2.025c0-.882.135-1.845,1.08-1.845.918,0,.918.954.918,1.3V0h.729V-2.79C-7.794-3.78-8.244-4.509-9.306-4.509Zm4.5,0a2.254,2.254,0,0,0-1.863.891l.531.45a1.565,1.565,0,0,1,1.3-.7.992.992,0,0,1,1.1,1.1v.189h-.954a3.207,3.207,0,0,0-1.593.27A1.1,1.1,0,0,0-6.8-1.3C-6.8-.45-6.219.072-5.247.072a1.773,1.773,0,0,0,1.53-.729L-3.672,0h.666V-2.772A1.618,1.618,0,0,0-4.806-4.509ZM-5.058-.522c-.621,0-1.017-.3-1.017-.756A.641.641,0,0,1-5.85-1.8c.207-.162.522-.207,1.233-.207h.882v.045A1.3,1.3,0,0,1-5.058-.522Zm-53.3,8.013a1.394,1.394,0,0,0-1.287.756V7.563h-.729V12h.729V9.588c0-.927.477-1.422,1.134-1.422a1.482,1.482,0,0,1,.585.135l.351-.612A1.536,1.536,0,0,0-58.356,7.491Zm1.557-.8h.819V5.727H-56.8Zm.054,5.31h.729V7.563h-.729Zm4.14-4.518a1.728,1.728,0,0,0-1.422.648V7.563h-.729v6.273h.729V11.424a1.719,1.719,0,0,0,1.422.648c1.251,0,1.953-.945,1.953-2.295C-50.652,8.409-51.381,7.482-52.6,7.482Zm-.135,3.951c-.891,0-1.35-.7-1.35-1.656,0-.99.495-1.656,1.359-1.656.846,0,1.341.657,1.341,1.656C-51.39,10.749-51.849,11.433-52.74,11.433Zm6.021-3.87V9.516c0,1.134-.378,1.917-1.251,1.917-.918,0-.936-.855-.936-1.323V7.563h-.729v2.718c0,1.089.45,1.791,1.485,1.791a1.679,1.679,0,0,0,1.431-.684V12h.729V7.563Zm4.149-.081A1.741,1.741,0,0,0-44,8.139V5.727h-.729V12H-44v-.567a1.736,1.736,0,0,0,1.422.639c1.278,0,1.953-.981,1.953-2.295C-40.626,8.373-41.382,7.482-42.57,7.482Zm-.135,3.933c-.9,0-1.359-.693-1.359-1.638,0-.972.495-1.647,1.35-1.647s1.35.648,1.35,1.647C-41.364,10.74-41.823,11.415-42.705,11.415Zm5.31-3.933a1.741,1.741,0,0,0-1.431.657V5.727h-.729V12h.729v-.567a1.736,1.736,0,0,0,1.422.639c1.278,0,1.953-.981,1.953-2.295C-35.451,8.373-36.207,7.482-37.395,7.482Zm-.135,3.933c-.9,0-1.359-.693-1.359-1.638,0-.972.495-1.647,1.35-1.647s1.35.648,1.35,1.647C-36.189,10.74-36.648,11.415-37.53,11.415Zm4.023.657a2.141,2.141,0,0,0,.639-.117l-.009-.612a1.427,1.427,0,0,1-.4.072c-.3,0-.387-.2-.387-.459V5.727H-34.4V11.01C-34.4,11.73-34.038,12.072-33.507,12.072ZM-32.04,6.69h.819V5.727h-.819Zm.054,5.31h.729V7.563h-.729Zm3.834.072a1.807,1.807,0,0,0,1.773-1.251l-.675-.252a1.126,1.126,0,0,1-1.1.864c-.909,0-1.3-.783-1.3-1.638s.387-1.665,1.287-1.665A1.2,1.2,0,0,1-27.027,9l.693-.27a1.877,1.877,0,0,0-1.827-1.242,2.091,2.091,0,0,0-2.034,2.3A2.074,2.074,0,0,0-28.152,12.072Zm4.572-4.581a2.254,2.254,0,0,0-1.863.891l.531.45a1.565,1.565,0,0,1,1.305-.7.992.992,0,0,1,1.1,1.1v.189h-.954a3.207,3.207,0,0,0-1.593.27,1.1,1.1,0,0,0-.522,1.008c0,.855.585,1.377,1.557,1.377a1.773,1.773,0,0,0,1.53-.729l.045.657h.666V9.228A1.618,1.618,0,0,0-23.58,7.491Zm-.252,3.987c-.621,0-1.017-.3-1.017-.756a.641.641,0,0,1,.225-.522c.207-.162.522-.207,1.233-.207h.882v.045A1.3,1.3,0,0,1-23.832,11.478Zm6.66-3.915h-3.564v.621h2.664l-2.808,3.3V12h3.69v-.621h-2.727l2.745-3.258Zm.936-.873h.819V5.727h-.819Zm.054,5.31h.729V7.563h-.729Zm3.933.072A2.154,2.154,0,0,0-10.1,9.777a2.141,2.141,0,0,0-2.151-2.286A2.136,2.136,0,0,0-14.4,9.777,2.144,2.144,0,0,0-12.249,12.072Zm0-.639c-.918,0-1.422-.72-1.422-1.656A1.452,1.452,0,0,1-12.249,8.13a1.457,1.457,0,0,1,1.422,1.647A1.469,1.469,0,0,1-12.249,11.433Zm5.373-3.942a1.68,1.68,0,0,0-1.44.693V7.563h-.729V12h.729V10c0-1.134.414-1.872,1.251-1.872.729,0,.936.549.936,1.323V12H-5.4V9.246C-5.4,8.1-5.913,7.491-6.876,7.491ZM-.423,9.6A1.925,1.925,0,0,0-2.376,7.491,2.063,2.063,0,0,0-4.383,9.8,2.04,2.04,0,0,0-2.3,12.072a2.2,2.2,0,0,0,1.737-.756l-.5-.441a1.537,1.537,0,0,1-1.224.531A1.3,1.3,0,0,1-3.654,9.993h3.2A3.372,3.372,0,0,0-.423,9.6ZM-2.385,8.1A1.174,1.174,0,0,1-1.134,9.282a.978.978,0,0,0,.009.117h-2.52A1.266,1.266,0,0,1-2.385,8.1Z" transform="translate(313 337)"/>
    <g id="Group-2" transform="translate(247.667 356.881)">
      <ellipse id="Oval" cx="30.6" cy="17.7" rx="30.6" ry="17.7" transform="translate(0 15.1)" fill="#f36" stroke="#444" stroke-width="0.25"/>
      <ellipse id="Oval-2" data-name="Oval" cx="26.6" cy="15.4" rx="26.6" ry="15.4" transform="translate(4 13.3)" fill="#f36" stroke="#444" stroke-width="0.25"/>
      <ellipse id="Oval-3" data-name="Oval" cx="23.6" cy="13.6" rx="23.6" ry="13.6" transform="translate(7 11)" fill="orange" stroke="#444" stroke-linejoin="round" stroke-width="0.25"/>
      <ellipse id="Oval-4" data-name="Oval" cx="21.4" cy="12.4" rx="21.4" ry="12.4" transform="translate(9.2 8.2)" fill="orange" stroke="#444" stroke-linejoin="round" stroke-width="0.25"/>
      <ellipse id="Oval-5" data-name="Oval" cx="19.4" cy="11.2" rx="19.4" ry="11.2" transform="translate(11.2 5.3)" fill="#ffd93b" stroke="#444" stroke-linejoin="round" stroke-width="0.25"/>
      <ellipse id="Oval-6" data-name="Oval" cx="16.8" cy="9.7" rx="16.8" ry="9.7" transform="translate(13.8 2.7)" fill="#ffd93b" stroke="#444" stroke-linejoin="round" stroke-width="0.25"/>
      <ellipse id="Oval-7" data-name="Oval" cx="13" cy="7.5" rx="13" ry="7.5" transform="translate(17.6 0.8)" fill="#00bfd3" stroke="#444" stroke-linejoin="round" stroke-width="0.25"/>
      <ellipse id="Oval-8" data-name="Oval" cx="7.5" cy="4.3" rx="7.5" ry="4.3" transform="translate(23.1 0)" fill="#00bfd3" stroke="#444" stroke-linejoin="round" stroke-width="0.25"/>
    </g>
    <path id="Path_116466" data-name="Path 116466" d="M284.674,2.04c11.545,0,9.384-11.244,9.384-11.244" transform="translate(-7.333 358)" fill="none" stroke="#707070" stroke-width="0.25"/>
    <path id="Path_116467" data-name="Path 116467" d="M284.674,2.04c11.545,0,9.384-11.244,9.384-11.244" transform="translate(269.296 117.935) rotate(90)" fill="none" stroke="#707070" stroke-width="0.25"/>
    <path id="Path_149430" data-name="Path 149430" d="M2.48,10h.85V3.81H5.7V3.03H.13v.78H2.48ZM9.77,7.33A2.139,2.139,0,0,0,7.6,4.99,2.292,2.292,0,0,0,5.37,7.56a2.266,2.266,0,0,0,2.31,2.52,2.443,2.443,0,0,0,1.93-.84l-.56-.49a1.707,1.707,0,0,1-1.36.59A1.444,1.444,0,0,1,6.18,7.77H9.74A3.747,3.747,0,0,0,9.77,7.33ZM7.59,5.67A1.3,1.3,0,0,1,8.98,6.98a1.087,1.087,0,0,0,.01.13H6.19A1.407,1.407,0,0,1,7.59,5.67Zm5.07,4.41c.95,0,1.81-.5,1.81-1.53,0-1.87-2.79-1.17-2.79-2.26,0-.39.36-.62.92-.62a1.26,1.26,0,0,1,1.17.71l.64-.36a1.881,1.881,0,0,0-1.79-1.03c-.97,0-1.72.51-1.72,1.41,0,1.75,2.77,1,2.77,2.21,0,.47-.39.78-1.02.78a1.366,1.366,0,0,1-1.35-.92l-.67.3A2.039,2.039,0,0,0,12.66,10.08Zm5.38-4.34V5.07h-1.2V3.26l-.81.61v1.2h-.82v.67h.82V8.78a1.146,1.146,0,0,0,1.23,1.3,2.6,2.6,0,0,0,.78-.13V9.26a2.133,2.133,0,0,1-.59.11c-.42,0-.61-.25-.61-.69V5.74Zm3.12,4.34a2.393,2.393,0,0,0,2.39-2.55,2.394,2.394,0,1,0-4.78,0A2.382,2.382,0,0,0,21.16,10.08Zm0-.71c-1.02,0-1.58-.8-1.58-1.84a1.6,1.6,0,1,1,3.16,0A1.632,1.632,0,0,1,21.16,9.37ZM2.75,23.08a2.008,2.008,0,0,0,1.97-1.39l-.75-.28a1.252,1.252,0,0,1-1.22.96c-1.01,0-1.44-.87-1.44-1.82s.43-1.85,1.43-1.85A1.332,1.332,0,0,1,4,19.67l.77-.3a2.085,2.085,0,0,0-2.03-1.38A2.324,2.324,0,0,0,.48,20.55,2.3,2.3,0,0,0,2.75,23.08Zm5.26,0a2.393,2.393,0,0,0,2.39-2.55,2.394,2.394,0,1,0-4.78,0A2.382,2.382,0,0,0,8.01,23.08Zm0-.71c-1.02,0-1.58-.8-1.58-1.84a1.6,1.6,0,1,1,3.16,0A1.632,1.632,0,0,1,8.01,22.37Zm5.97-4.38a1.867,1.867,0,0,0-1.6.77v-.69h-.81V23h.81V20.78c0-1.26.46-2.08,1.39-2.08.81,0,1.04.61,1.04,1.47V23h.81V19.94C15.62,18.67,15.05,17.99,13.98,17.99Zm5.38.75v-.67h-1.2V16.26l-.81.61v1.2h-.82v.67h.82v3.04a1.146,1.146,0,0,0,1.23,1.3,2.6,2.6,0,0,0,.78-.13v-.69a2.133,2.133,0,0,1-.59.11c-.42,0-.61-.25-.61-.69V18.74Zm5.14,1.59a2.139,2.139,0,0,0-2.17-2.34,2.292,2.292,0,0,0-2.23,2.57,2.266,2.266,0,0,0,2.31,2.52,2.443,2.443,0,0,0,1.93-.84l-.56-.49a1.707,1.707,0,0,1-1.36.59,1.444,1.444,0,0,1-1.51-1.57h3.56A3.747,3.747,0,0,0,24.5,20.33Zm-2.18-1.66a1.3,1.3,0,0,1,1.39,1.31,1.087,1.087,0,0,0,.01.13h-2.8A1.407,1.407,0,0,1,22.32,18.67Zm5.76-.68a1.867,1.867,0,0,0-1.6.77v-.69h-.81V23h.81V20.78c0-1.26.46-2.08,1.39-2.08.81,0,1.04.61,1.04,1.47V23h.81V19.94C29.72,18.67,29.15,17.99,28.08,17.99Zm6.17.08v2.17c0,1.26-.42,2.13-1.39,2.13-1.02,0-1.04-.95-1.04-1.47V18.07h-.81v3.02c0,1.21.5,1.99,1.65,1.99a1.865,1.865,0,0,0,1.59-.76V23h.81V18.07Zm4.6.67v-.67h-1.2V16.26l-.81.61v1.2h-.82v.67h.82v3.04a1.146,1.146,0,0,0,1.23,1.3,2.6,2.6,0,0,0,.78-.13v-.69a2.133,2.133,0,0,1-.59.11c-.42,0-.61-.25-.61-.69V18.74Zm3.12,4.34a2.393,2.393,0,0,0,2.39-2.55,2.394,2.394,0,1,0-4.78,0A2.382,2.382,0,0,0,41.97,23.08Zm0-.71c-1.02,0-1.58-.8-1.58-1.84a1.6,1.6,0,1,1,3.16,0A1.632,1.632,0,0,1,41.97,22.37Zm6.21-5.27h.91V16.03h-.91Zm.06,5.9h.81V18.07h-.81Zm4.62-5.01a1.867,1.867,0,0,0-1.6.77v-.69h-.81V23h.81V20.78c0-1.26.46-2.08,1.39-2.08.81,0,1.04.61,1.04,1.47V23h.81V19.94C54.5,18.67,53.93,17.99,52.86,17.99ZM3.09,30.98a1.92,1.92,0,0,0-1.58.72v-.63H.7v6.97h.81V35.36a1.91,1.91,0,0,0,1.58.72c1.39,0,2.17-1.05,2.17-2.55C5.26,32.01,4.45,30.98,3.09,30.98Zm-.15,4.39c-.99,0-1.5-.78-1.5-1.84,0-1.1.55-1.84,1.51-1.84.94,0,1.49.73,1.49,1.84C4.44,34.61,3.93,35.37,2.94,35.37ZM6.4,30.1h.91V29.03H6.4ZM6.46,36h.81V31.07H6.46Zm4.48-5.56L9.9,29.03H9.03l1.28,1.41Zm.91.63v2.17c0,1.26-.42,2.13-1.39,2.13-1.02,0-1.04-.95-1.04-1.47V31.07H8.61v3.02c0,1.21.5,1.99,1.65,1.99a1.865,1.865,0,0,0,1.59-.76V36h.81V31.07ZM19,30.99a1.549,1.549,0,0,0-1.43.84v-.76h-.81V36h.81V33.32c0-1.03.53-1.58,1.26-1.58a1.647,1.647,0,0,1,.65.15l.39-.68A1.707,1.707,0,0,0,19,30.99Zm3.55,0a2.5,2.5,0,0,0-2.07.99l.59.5a1.739,1.739,0,0,1,1.45-.78,1.1,1.1,0,0,1,1.22,1.22v.21H22.68a3.563,3.563,0,0,0-1.77.3,1.221,1.221,0,0,0-.58,1.12c0,.95.65,1.53,1.73,1.53a1.97,1.97,0,0,0,1.7-.81l.05.73h.74V32.92A1.8,1.8,0,0,0,22.55,30.99Zm-.28,4.43c-.69,0-1.13-.33-1.13-.84a.712.712,0,0,1,.25-.58c.23-.18.58-.23,1.37-.23h.98v.05A1.444,1.444,0,0,1,22.27,35.42Zm5.67.66a2.008,2.008,0,0,0,1.97-1.39l-.75-.28a1.252,1.252,0,0,1-1.22.96c-1.01,0-1.44-.87-1.44-1.82s.43-1.85,1.43-1.85a1.332,1.332,0,0,1,1.26.97l.77-.3a2.085,2.085,0,0,0-2.03-1.38,2.324,2.324,0,0,0-2.26,2.56A2.3,2.3,0,0,0,27.94,36.08Zm5.15,0a2.008,2.008,0,0,0,1.97-1.39l-.75-.28a1.252,1.252,0,0,1-1.22.96c-1.01,0-1.44-.87-1.44-1.82s.43-1.85,1.43-1.85a1.332,1.332,0,0,1,1.26.97l.77-.3a2.085,2.085,0,0,0-2.03-1.38,2.324,2.324,0,0,0-2.26,2.56A2.3,2.3,0,0,0,33.09,36.08Zm5.26,0a2.55,2.55,0,1,0-2.39-2.55A2.393,2.393,0,0,0,38.35,36.08Zm0-.71c-1.02,0-1.58-.8-1.58-1.84a1.6,1.6,0,1,1,3.16,0A1.632,1.632,0,0,1,38.35,35.37Zm4.53.71a2.379,2.379,0,0,0,.71-.13l-.01-.68a1.585,1.585,0,0,1-.45.08c-.33,0-.43-.22-.43-.51V29.03h-.81V34.9C41.89,35.7,42.29,36.08,42.88,36.08Zm3.86-4.34v-.67h-1.2V29.26l-.81.61v1.2h-.82v.67h.82v3.04a1.146,1.146,0,0,0,1.23,1.3,2.6,2.6,0,0,0,.78-.13v-.69a2.133,2.133,0,0,1-.59.11c-.42,0-.61-.25-.61-.69V31.74Zm5.14,1.59a2.139,2.139,0,0,0-2.17-2.34,2.292,2.292,0,0,0-2.23,2.57,2.266,2.266,0,0,0,2.31,2.52,2.443,2.443,0,0,0,1.93-.84l-.56-.49a1.707,1.707,0,0,1-1.36.59,1.444,1.444,0,0,1-1.51-1.57h3.56A3.747,3.747,0,0,0,51.88,33.33ZM49.7,31.67a1.3,1.3,0,0,1,1.39,1.31,1.087,1.087,0,0,0,.01.13H48.3A1.407,1.407,0,0,1,49.7,31.67Z" transform="translate(245 437)"/>
  </g>
</svg>
