<?xml version="1.0" encoding="utf-8"?>
<!-- Generator: Adobe Illustrator 25.0.0, SVG Export Plug-In . SVG Version: 6.00 Build 0)  -->
<svg version="1.1" id="Livello_1" xmlns="http://www.w3.org/2000/svg" xmlns:xlink="http://www.w3.org/1999/xlink" x="0px" y="0px"
	 viewBox="0 0 75 160" style="enable-background:new 0 0 75 160;" xml:space="preserve">
<style type="text/css">
	.st0{fill:none;stroke:#444444;stroke-width:0.25;}
	.st1{enable-background:new    ;}
</style>
<ellipse id="Oval" class="st0" cx="31" cy="63.7" rx="30.6" ry="17.7"/>
<ellipse id="Oval-2" class="st0" cx="31" cy="59.6" rx="26.6" ry="15.4"/>
<ellipse id="Oval-3" class="st0" cx="31" cy="55.5" rx="23.6" ry="13.6"/>
<ellipse id="Oval-4" class="st0" cx="31" cy="51.5" rx="21.4" ry="12.4"/>
<ellipse id="Oval-5" class="st0" cx="31" cy="47.4" rx="19.4" ry="11.2"/>
<ellipse id="Oval-6" class="st0" cx="30.9" cy="43.3" rx="16.8" ry="9.7"/>
<ellipse id="Oval-7" class="st0" cx="31" cy="39.2" rx="13" ry="7.5"/>
<ellipse id="Oval-8" class="st0" cx="31" cy="35.2" rx="7.5" ry="4.3"/>
<g class="st1">
	<path d="M3,114.7H0.6V114h5.5v0.7H3.7v6.3H3V114.7z"/>
	<path d="M10.3,118.7H6.7c0,1.1,0.6,1.7,1.6,1.7c0.5,0,1-0.1,1.4-0.6l0.5,0.4c-0.6,0.6-1.1,0.8-1.9,0.8c-1.5,0-2.3-1.1-2.3-2.5
		c0-1.4,0.8-2.6,2.2-2.6c1.5,0,2.1,1.2,2.1,2.3C10.4,118.4,10.3,118.6,10.3,118.7z M6.7,118.1h3c0,0,0-0.1,0-0.2
		c0-0.8-0.6-1.4-1.5-1.4C7.3,116.6,6.8,117.3,6.7,118.1z"/>
	<path d="M11.2,119.8l0.6-0.3c0.2,0.5,0.7,0.9,1.4,0.9c0.7,0,1.1-0.3,1.1-0.8c0-1.3-2.8-0.5-2.8-2.2c0-0.9,0.7-1.4,1.7-1.4
		c0.8,0,1.4,0.3,1.8,1l-0.5,0.3c-0.2-0.4-0.6-0.7-1.2-0.7c-0.6,0-1,0.2-1,0.7c0,1.2,2.8,0.4,2.8,2.3c0,1-0.8,1.5-1.8,1.5
		C12.3,121.1,11.5,120.6,11.2,119.8z"/>
	<path d="M18.5,121c-0.3,0.1-0.5,0.1-0.7,0.1c-0.7,0-1.1-0.4-1.1-1.2v-3.2h-0.8v-0.6h0.8v-1.4l0.7-0.5v1.9h1.2v0.6h-1.2v3.1
		c0,0.5,0.2,0.7,0.6,0.7c0.2,0,0.4,0,0.6-0.1L18.5,121z"/>
	<path d="M19.3,118.5c0-1.5,0.9-2.5,2.4-2.5c1.4,0,2.4,1.1,2.4,2.5c0,1.4-1,2.5-2.4,2.5S19.3,120,19.3,118.5z M23.3,118.5
		c0-1.1-0.6-1.9-1.7-1.9c-1.1,0-1.7,0.8-1.7,1.9c0,1.1,0.6,1.9,1.7,1.9C22.7,120.5,23.3,119.6,23.3,118.5z"/>
</g>
<g class="st1">
	<path d="M5.7,131.5c0,1.5-0.7,2.5-2.2,2.5c-0.7,0-1.3-0.3-1.6-0.7v2.7H1.2v-7h0.7v0.7c0.4-0.5,0.9-0.8,1.6-0.8
		C4.8,129,5.7,130,5.7,131.5z M5,131.5c0-1.2-0.6-1.9-1.6-1.9c-1,0-1.6,0.8-1.6,1.9c0,1.1,0.5,1.9,1.6,1.9
		C4.4,133.5,5,132.7,5,131.5z"/>
	<path d="M10.9,129.1v4.9h-0.7v-0.7c-0.3,0.5-1,0.8-1.6,0.8c-1.1,0-1.6-0.8-1.6-2v-3h0.7v2.8c0,0.8,0.1,1.5,1.1,1.5
		c1,0,1.5-0.8,1.5-2.1v-2.3H10.9z"/>
	<path d="M17.2,131.5c0,1.5-0.7,2.5-2.2,2.5c-0.7,0-1.3-0.3-1.6-0.7v0.7h-0.7v-7h0.7v2.7c0.4-0.5,0.9-0.8,1.6-0.8
		C16.4,129,17.2,130,17.2,131.5z M16.5,131.5c0-1.2-0.6-1.9-1.6-1.9c-1,0-1.6,0.8-1.6,1.9c0,1.1,0.5,1.9,1.6,1.9
		C15.9,133.5,16.5,132.7,16.5,131.5z"/>
	<path d="M23.1,131.5c0,1.5-0.7,2.5-2.2,2.5c-0.7,0-1.3-0.3-1.6-0.7v0.7h-0.7v-7h0.7v2.7c0.4-0.5,0.9-0.8,1.6-0.8
		C22.3,129,23.1,130,23.1,131.5z M22.4,131.5c0-1.2-0.6-1.9-1.6-1.9c-1,0-1.6,0.8-1.6,1.9c0,1.1,0.5,1.9,1.6,1.9
		C21.9,133.5,22.4,132.7,22.4,131.5z"/>
	<path d="M24.5,132.9V127h0.7v5.9c0,0.3,0.1,0.6,0.4,0.6c0.1,0,0.3,0,0.5-0.1l0,0.6c-0.2,0.1-0.5,0.1-0.7,0.1
		C24.9,134.1,24.5,133.7,24.5,132.9z"/>
	<path d="M27.2,127H28v1h-0.8V127z M27.3,129.1h0.7v4.9h-0.7V129.1z"/>
	<path d="M29.4,131.6c0-1.3,0.7-2.6,2.2-2.6c0.9,0,1.6,0.4,2,1.4l-0.7,0.3c-0.2-0.6-0.7-1-1.3-1c-1,0-1.5,0.9-1.5,1.9
		c0,1,0.5,1.9,1.5,1.9c0.6,0,1.1-0.4,1.3-1l0.6,0.2c-0.3,0.9-1,1.4-1.9,1.4C30.2,134.1,29.4,132.9,29.4,131.6z"/>
	<path d="M38.5,130.9v3.1h-0.6l0-0.8c-0.4,0.5-1,0.8-1.8,0.8c-1.1,0-1.7-0.6-1.7-1.5c0-0.5,0.2-0.9,0.6-1.1c0.4-0.2,0.9-0.3,1.9-0.3
		h1v-0.2c0-0.9-0.4-1.3-1.3-1.3c-0.6,0-1.1,0.3-1.5,0.8l-0.5-0.4c0.5-0.7,1.2-1,2-1C37.7,129,38.5,129.7,38.5,130.9z M37.8,131.8
		L37.8,131.8l-0.9-0.1c-0.9,0-1.3,0.1-1.5,0.2c-0.2,0.1-0.3,0.4-0.3,0.6c0,0.5,0.5,0.9,1.2,0.9C37.2,133.5,37.8,132.8,37.8,131.8z"
		/>
	<path d="M42.2,134c-0.3,0.1-0.5,0.1-0.7,0.1c-0.7,0-1.1-0.4-1.1-1.2v-3.2h-0.8v-0.6h0.8v-1.4l0.7-0.5v1.9h1.2v0.6H41v3.1
		c0,0.5,0.2,0.7,0.6,0.7c0.2,0,0.4,0,0.6-0.1L42.2,134z"/>
	<path d="M43,131.5c0-1.5,0.9-2.5,2.4-2.5c1.4,0,2.4,1.1,2.4,2.5c0,1.4-1,2.5-2.4,2.5C44,134.1,43,133,43,131.5z M47.1,131.5
		c0-1.1-0.6-1.9-1.7-1.9c-1.1,0-1.7,0.8-1.7,1.9c0,1.1,0.6,1.9,1.7,1.9C46.4,133.5,47.1,132.6,47.1,131.5z"/>
</g>
<g class="st1">
	<path d="M0.6,145.8l0.6-0.3c0.2,0.5,0.7,0.9,1.4,0.9c0.7,0,1.1-0.3,1.1-0.8c0-1.3-2.8-0.5-2.8-2.2c0-0.9,0.7-1.4,1.7-1.4
		c0.8,0,1.4,0.3,1.8,1l-0.5,0.3c-0.2-0.4-0.6-0.7-1.2-0.7c-0.6,0-1,0.2-1,0.7c0,1.2,2.8,0.4,2.8,2.3c0,1-0.8,1.5-1.8,1.5
		C1.7,147.1,0.9,146.6,0.6,145.8z"/>
	<path d="M5.3,144.5c0-1.5,0.9-2.5,2.4-2.5c1.4,0,2.4,1.1,2.4,2.5c0,1.4-1,2.5-2.4,2.5S5.3,146,5.3,144.5z M9.4,144.5
		c0-1.1-0.6-1.9-1.7-1.9c-1.1,0-1.7,0.8-1.7,1.9c0,1.1,0.6,1.9,1.7,1.9C8.8,146.5,9.4,145.6,9.4,144.5z"/>
	<path d="M11.4,145.9V140h0.7v5.9c0,0.3,0.1,0.6,0.4,0.6c0.1,0,0.3,0,0.5-0.1l0,0.6c-0.2,0.1-0.5,0.1-0.7,0.1
		C11.8,147.1,11.4,146.7,11.4,145.9z"/>
	<path d="M13.7,144.5c0-1.5,0.9-2.5,2.4-2.5c1.4,0,2.4,1.1,2.4,2.5c0,1.4-1,2.5-2.4,2.5S13.7,146,13.7,144.5z M17.8,144.5
		c0-1.1-0.6-1.9-1.7-1.9c-1.1,0-1.7,0.8-1.7,1.9c0,1.1,0.6,1.9,1.7,1.9C17.1,146.5,17.8,145.6,17.8,144.5z"/>
	<path d="M22.5,140h0.8v1h-0.8V140z M22.6,142.1h0.7v4.9h-0.7V142.1z"/>
	<path d="M29,144v3h-0.7v-2.8c0-1.1-0.3-1.5-1.1-1.5c-0.9,0-1.5,0.8-1.5,2.2v2.2h-0.7v-4.9h0.7v0.7c0.3-0.5,0.9-0.8,1.6-0.8
		C28.5,142,29,142.7,29,144z"/>
	<path d="M36.4,142.2l-0.3,0.6c-0.2-0.1-0.4-0.2-0.6-0.2c-0.8,0-1.3,0.6-1.3,1.6v2.7h-0.7v-4.9h0.7v0.7c0.4-0.6,1-0.8,1.5-0.8
		C35.9,142,36.2,142.1,36.4,142.2z"/>
	<path d="M37.4,140h0.8v1h-0.8V140z M37.5,142.1h0.7v4.9h-0.7V142.1z"/>
	<path d="M39.3,142.1H40l1.5,4l1.6-4h0.8l-2,4.9h-0.6L39.3,142.1z"/>
	<path d="M44.9,140h0.8v1h-0.8V140z M45,142.1h0.7v4.9H45V142.1z"/>
	<path d="M47,145.8l0.6-0.3c0.2,0.5,0.7,0.9,1.4,0.9c0.7,0,1.1-0.3,1.1-0.8c0-1.3-2.8-0.5-2.8-2.2c0-0.9,0.7-1.4,1.7-1.4
		c0.8,0,1.4,0.3,1.8,1l-0.5,0.3c-0.2-0.4-0.6-0.7-1.2-0.7s-1,0.2-1,0.7c0,1.2,2.8,0.4,2.8,2.3c0,1-0.8,1.5-1.8,1.5
		C48,147.1,47.2,146.6,47,145.8z"/>
	<path d="M54.2,147c-0.3,0.1-0.5,0.1-0.7,0.1c-0.7,0-1.1-0.4-1.1-1.2v-3.2h-0.8v-0.6h0.8v-1.4l0.7-0.5v1.9h1.2v0.6H53v3.1
		c0,0.5,0.2,0.7,0.6,0.7c0.2,0,0.4,0,0.6-0.1L54.2,147z"/>
	<path d="M59.2,143.9v3.1h-0.6l0-0.8c-0.4,0.5-1,0.8-1.8,0.8c-1.1,0-1.7-0.6-1.7-1.5c0-0.5,0.2-0.9,0.6-1.1c0.4-0.2,0.9-0.3,1.9-0.3
		h1v-0.2c0-0.9-0.5-1.3-1.3-1.3c-0.6,0-1.1,0.3-1.5,0.8l-0.5-0.4c0.5-0.7,1.2-1,2-1C58.5,142,59.2,142.7,59.2,143.9z M58.5,144.8
		L58.5,144.8l-0.9-0.1c-0.9,0-1.3,0.1-1.5,0.2c-0.2,0.1-0.3,0.4-0.3,0.6c0,0.5,0.5,0.9,1.2,0.9C57.9,146.5,58.5,145.8,58.5,144.8z"
		/>
</g>
<g class="st1">
	<path d="M0.7,156.5c0-1.5,0.9-2.5,2.4-2.5c1.4,0,2.4,1.1,2.4,2.5c0,1.4-1,2.5-2.4,2.5S0.7,158,0.7,156.5z M4.8,156.5
		c0-1.1-0.6-1.9-1.7-1.9c-1.1,0-1.7,0.8-1.7,1.9c0,1.1,0.6,1.9,1.7,1.9C4.1,158.5,4.8,157.6,4.8,156.5z"/>
	<path d="M13.7,154.1v7H13v-2.7c-0.4,0.5-0.9,0.7-1.6,0.7c-1.4,0-2.2-1.1-2.2-2.5c0-1.5,0.8-2.5,2.2-2.5c0.7,0,1.3,0.3,1.6,0.8v-0.7
		H13.7z M13.1,156.5c0-1.2-0.6-1.9-1.6-1.9c-1,0-1.6,0.8-1.6,1.9c0,1.1,0.5,1.9,1.6,1.9C12.5,158.5,13.1,157.7,13.1,156.5z"/>
	<path d="M19.3,154.1v4.9h-0.7v-0.7c-0.3,0.5-1,0.8-1.6,0.8c-1.1,0-1.6-0.8-1.6-2v-3h0.7v2.8c0,0.8,0.1,1.5,1.1,1.5
		c1,0,1.5-0.8,1.5-2.1v-2.3H19.3z"/>
	<path d="M20.7,156.5c0-1.5,0.9-2.5,2.4-2.5c1.4,0,2.4,1.1,2.4,2.5c0,1.4-1,2.5-2.4,2.5S20.7,158,20.7,156.5z M24.7,156.5
		c0-1.1-0.6-1.9-1.7-1.9c-1.1,0-1.7,0.8-1.7,1.9c0,1.1,0.6,1.9,1.7,1.9C24.1,158.5,24.7,157.6,24.7,156.5z"/>
	<path d="M28.8,159c-0.3,0.1-0.5,0.1-0.7,0.1c-0.7,0-1.1-0.4-1.1-1.2v-3.2h-0.8v-0.6h0.8v-1.4l0.7-0.5v1.9h1.2v0.6h-1.2v3.1
		c0,0.5,0.2,0.7,0.6,0.7c0.2,0,0.4,0,0.6-0.1L28.8,159z"/>
	<path d="M30,152h0.8v1H30V152z M30.1,154.1h0.7v4.9h-0.7V154.1z"/>
	<path d="M36.7,152v7H36v-0.7c-0.4,0.5-0.9,0.7-1.6,0.7c-1.4,0-2.2-1.1-2.2-2.5c0-1.5,0.8-2.5,2.2-2.5c0.7,0,1.3,0.3,1.6,0.8V152
		H36.7z M36.1,156.5c0-1.2-0.6-1.9-1.6-1.9c-1,0-1.6,0.8-1.6,1.9c0,1.1,0.5,1.9,1.6,1.9C35.5,158.5,36.1,157.7,36.1,156.5z"/>
	<path d="M38.5,152h0.8v1h-0.8V152z M38.5,154.1h0.7v4.9h-0.7V154.1z"/>
	<path d="M44.7,155.9v3.1h-0.6l0-0.8c-0.4,0.5-1,0.8-1.8,0.8c-1.1,0-1.7-0.6-1.7-1.5c0-0.5,0.2-0.9,0.6-1.1c0.4-0.2,0.9-0.3,1.9-0.3
		h1v-0.2c0-0.9-0.4-1.3-1.3-1.3c-0.6,0-1.1,0.3-1.5,0.8l-0.5-0.4c0.5-0.7,1.2-1,2-1C44,154,44.7,154.7,44.7,155.9z M44,156.8
		L44,156.8l-0.9-0.1c-0.9,0-1.3,0.1-1.5,0.2c-0.2,0.1-0.3,0.4-0.3,0.6c0,0.5,0.5,0.9,1.2,0.9C43.4,158.5,44,157.8,44,156.8z"/>
	<path d="M50.3,156v3h-0.7v-2.8c0-1.1-0.3-1.5-1.1-1.5c-0.9,0-1.5,0.8-1.5,2.2v2.2h-0.7v-4.9h0.7v0.7c0.3-0.5,0.9-0.8,1.6-0.8
		C49.8,154,50.3,154.7,50.3,156z"/>
	<path d="M51.6,156.5c0-1.5,0.9-2.5,2.4-2.5c1.4,0,2.4,1.1,2.4,2.5c0,1.4-1,2.5-2.4,2.5S51.6,158,51.6,156.5z M55.6,156.5
		c0-1.1-0.6-1.9-1.7-1.9c-1.1,0-1.7,0.8-1.7,1.9c0,1.1,0.6,1.9,1.7,1.9C55,158.5,55.6,157.6,55.6,156.5z"/>
</g>
</svg>
