<?xml version="1.0" encoding="utf-8"?>
<!-- Generator: Adobe Illustrator 24.0.1, SVG Export Plug-In . SVG Version: 6.00 Build 0)  -->
<svg version="1.1" id="Livello_1" xmlns="http://www.w3.org/2000/svg" xmlns:xlink="http://www.w3.org/1999/xlink" x="0px" y="0px"
	 viewBox="0 0 84.5 75" style="enable-background:new 0 0 84.5 75;" xml:space="preserve">
<style type="text/css">
	.st0_ot4lk7{fill:#FFFFFF;stroke:#444444;stroke-width:0.75;}
	.st1_ot4lk7{fill:#FFFFFF;stroke:#444444;stroke-width:0.5;}
	.st2_ot4lk7{fill:none;stroke:#444444;stroke-width:0.5;}
	.st3_ot4lk7{fill:#444444;}
	.st4_ot4lk7{font-family:'HKGrotesk-Regular';}
	.st5_ot4lk7{font-size:10px;}
	.st6_ot4lk7{fill:none;stroke:#444444;stroke-width:0.25;}
	.st7_ot4lk7{fill:none;stroke:#444444;stroke-width:0.25;stroke-dasharray:1.9,1.9;}
	.st8_ot4lk7{fill:none;stroke:#444444;stroke-width:0.25;stroke-dasharray:2.114,2.114;}
</style>
<g id="Raggruppa_3935" transform="translate(-13.748 -213)">
	<g id="dimensione" transform="translate(13.723 211.679)">
		<g id="dimensione-X">
			<g id="Group-7" transform="translate(0 0.527)">
				<g id="Group" transform="translate(0 1)">
					<ellipse id="Oval" class="st0_ot4lk7" cx="31.1" cy="33.3" rx="30.7" ry="17.7"/>
					<ellipse id="Oval-2" class="st1_ot4lk7" cx="31.1" cy="29.2" rx="26.7" ry="15.4"/>
					<ellipse id="Oval-3" class="st1_ot4lk7" cx="31.1" cy="25.2" rx="23.6" ry="13.6"/>
					<ellipse id="Oval-4" class="st1_ot4lk7" cx="31.1" cy="21.1" rx="21.4" ry="12.4"/>
					<ellipse id="Oval-5" class="st1_ot4lk7" cx="31.1" cy="17" rx="19.4" ry="11.2"/>
					<ellipse id="Oval-6" class="st1_ot4lk7" cx="31.1" cy="12.9" rx="16.8" ry="9.7"/>
					<ellipse id="Oval-7" class="st1_ot4lk7" cx="31.1" cy="8.8" rx="13" ry="7.5"/>
					<ellipse id="Oval-8" class="st1_ot4lk7" cx="31.1" cy="4.7" rx="7.5" ry="4.3"/>
				</g>
				<g id="Group-2" transform="translate(0 58)">
					<path id="Path" class="st2_ot4lk7" d="M61.7,2L0.5,2.2"/>
					
						<rect id="Rectangle" x="61.5" y="0.4" transform="matrix(1 -2.999987e-03 2.999987e-03 1 -5.872474e-03 0.186)" class="st3_ot4lk7" width="1" height="3.3"/>
					
						<rect id="Rectangle-2" x="0.3" y="0.6" transform="matrix(1 -3.106666e-03 3.106666e-03 1 -6.987525e-03 2.496583e-03)" class="st3_ot4lk7" width="1" height="3.3"/>
				</g>
				<g id="Group-3" transform="translate(68 1)">
					<path id="Path-2" class="st2_ot4lk7" d="M1.9,50.9V0.3"/>
					<rect id="Rectangle-3" x="0.2" y="50.6" class="st3_ot4lk7" width="3.2" height="1"/>
					<rect id="Rectangle-4" x="0.2" y="0" class="st3_ot4lk7" width="3.2" height="1"/>
				</g>
				<text transform="matrix(1 0 0 1 0.277 73.468)" class="st4_ot4lk7 st5_ot4lk7">lunghezza testo</text>
				<text transform="matrix(6.123234e-17 1 -1 6.123234e-17 76.7223 0.794)" class="st4_ot4lk7 st5_ot4lk7">lunghezza testo</text>
				<g id="Group-4" transform="translate(61 32)">
					<path id="Path-3" class="st6_ot4lk7" d="M0.8,27v-1"/>
					<path id="Path-4" class="st7_ot4lk7" d="M0.8,24.1V2.2"/>
					<path id="Path-5" class="st6_ot4lk7" d="M0.8,1.3v-1"/>
				</g>
				<g id="Group-5" transform="translate(0 32)">
					<path id="Path-6" class="st6_ot4lk7" d="M0.5,27v-1"/>
					<path id="Path-7" class="st7_ot4lk7" d="M0.5,24.1V2.3"/>
					<path id="Path-8" class="st6_ot4lk7" d="M0.5,1.3v-1"/>
				</g>
				<g id="Group-6" transform="translate(31)">
					<path id="Path-9" class="st6_ot4lk7" d="M0.2,1.2h1"/>
					<path id="Path-10" class="st8_ot4lk7" d="M3.3,1.2H36"/>
					<path id="Path-11" class="st6_ot4lk7" d="M37.1,1.2h1"/>
				</g>
				<g id="Group-7-2" transform="translate(31 51)">
					<path id="Path-12" class="st6_ot4lk7" d="M0.2,0.9h1"/>
					<path id="Path-13" class="st8_ot4lk7" d="M3.3,0.9H36"/>
					<path id="Path-14" class="st6_ot4lk7" d="M37.1,0.9h1"/>
				</g>
			</g>
		</g>
	</g>
</g>
</svg>
