<?xml version="1.0" encoding="utf-8"?>
<!-- Generator: Adobe Illustrator 24.3.0, SVG Export Plug-In . SVG Version: 6.00 Build 0)  -->
<svg version="1.1" id="prova" xmlns="http://www.w3.org/2000/svg" xmlns:xlink="http://www.w3.org/1999/xlink" x="0px" y="0px"
	 width="75px" height="160px" viewBox="0 0 75 160" style="enable-background:new 0 0 75 160;" xml:space="preserve">
<style type="text/css">
	.st0{fill:#D6DBDF;stroke:#444444;stroke-width:0.25;}
	.st1{fill:none;}
</style>
<g id="Group" transform="translate(0.667 30.881)">
	<ellipse id="Oval" class="st0" cx="30.8" cy="32.8" rx="30.6" ry="17.7"/>
	<ellipse id="Oval-2" class="st0" cx="30.8" cy="28.7" rx="26.6" ry="15.4"/>
	<ellipse id="Oval-3" class="st0" cx="30.8" cy="24.6" rx="23.6" ry="13.6"/>
	<ellipse id="Oval-4" class="st0" cx="30.8" cy="20.6" rx="21.4" ry="12.4"/>
	<ellipse id="Oval-5" class="st0" cx="30.8" cy="16.5" rx="19.4" ry="11.2"/>
	<ellipse id="Oval-6" class="st0" cx="30.7" cy="12.4" rx="16.8" ry="9.7"/>
	<ellipse id="Oval-7" class="st0" cx="30.8" cy="8.3" rx="13" ry="7.5"/>
	<ellipse id="Oval-8" class="st0" cx="30.8" cy="4.3" rx="7.5" ry="4.3"/>
</g>
<rect x="0.8" y="112.5" class="st1" width="71.1" height="47"/>
<path d="M2.4,115.8H0v-0.7h5.5v0.7H3.2v6.3H2.4V115.8z"/>
<path d="M9.8,119.8H6.2c0,1.1,0.6,1.7,1.6,1.7c0.5,0,1-0.1,1.4-0.6l0.5,0.4c-0.6,0.6-1.1,0.8-1.9,0.8c-1.5,0-2.3-1.1-2.3-2.5
	c0-1.4,0.8-2.6,2.2-2.6c1.5,0,2.1,1.2,2.1,2.3C9.8,119.5,9.8,119.7,9.8,119.8z M6.2,119.2h3c0,0,0-0.1,0-0.2c0-0.8-0.6-1.4-1.5-1.4
	C6.8,117.7,6.2,118.4,6.2,119.2z"/>
<path d="M12.3,119.6l-1.8-2.5h0.8l1.4,2l1.4-2h0.8l-1.8,2.5l1.8,2.5h-0.8l-1.4-2l-1.4,2h-0.8L12.3,119.6z"/>
<path d="M18.3,122.1c-0.3,0.1-0.5,0.1-0.7,0.1c-0.7,0-1.1-0.4-1.1-1.2v-3.2h-0.8v-0.6h0.8v-1.4l0.7-0.5v1.9h1.2v0.6h-1.2v3.1
	c0,0.5,0.2,0.7,0.6,0.7c0.2,0,0.4,0,0.6-0.1L18.3,122.1z"/>
<g>
	<path d="M5.1,131.8c0,1.5-0.8,2.5-2.2,2.5c-0.7,0-1.3-0.3-1.6-0.7v2.7H0.6v-7h0.7v0.7c0.4-0.5,0.9-0.8,1.6-0.8
		C4.3,129.3,5.1,130.3,5.1,131.8z M4.4,131.8c0-1.2-0.6-1.9-1.6-1.9c-1,0-1.6,0.8-1.6,1.9c0,1.1,0.5,1.9,1.6,1.9
		C3.9,133.8,4.4,132.9,4.4,131.8z"/>
	<path d="M10.3,129.4v4.9H9.6v-0.7c-0.3,0.5-1,0.8-1.6,0.8c-1.1,0-1.6-0.8-1.6-2v-3h0.7v2.8c0,0.8,0.1,1.5,1.1,1.5
		c1,0,1.5-0.8,1.5-2.1v-2.3C9.6,129.4,10.3,129.4,10.3,129.4z"/>
	<path d="M16.6,131.8c0,1.5-0.8,2.5-2.2,2.5c-0.7,0-1.3-0.3-1.6-0.7v0.7h-0.7v-7h0.7v2.7c0.4-0.5,0.9-0.8,1.6-0.8
		C15.8,129.3,16.6,130.3,16.6,131.8z M16,131.8c0-1.2-0.6-1.9-1.6-1.9c-1,0-1.6,0.8-1.6,1.9c0,1.1,0.5,1.9,1.6,1.9
		C15.4,133.8,16,132.9,16,131.8z"/>
	<path d="M18,133.2v-5.9h0.7v5.9c0,0.3,0.1,0.6,0.4,0.6c0.2,0,0.3,0,0.5-0.1l0,0.6c-0.2,0.1-0.5,0.1-0.7,0.1
		C18.4,134.4,18,134,18,133.2z"/>
	<path d="M20.7,127.3h0.8v1h-0.8V127.3z M20.8,129.4h0.7v4.9h-0.7V129.4z"/>
	<path d="M22.8,133.1l0.6-0.3c0.2,0.5,0.7,0.9,1.4,0.9c0.7,0,1.1-0.3,1.1-0.8c0-1.3-2.8-0.5-2.8-2.2c0-0.9,0.7-1.4,1.7-1.4
		c0.8,0,1.4,0.3,1.8,1l-0.5,0.3c-0.2-0.4-0.6-0.7-1.2-0.7c-0.6,0-1,0.2-1,0.7c0,1.2,2.8,0.4,2.8,2.3c0,1-0.8,1.5-1.8,1.5
		C23.8,134.4,23,133.9,22.8,133.1z"/>
	<path d="M31.9,131.3v3h-0.7v-2.8c0-1.1-0.3-1.5-1.1-1.5c-0.9,0-1.5,0.8-1.5,2.1v2.3h-0.7v-7h0.7v2.8c0.3-0.5,0.9-0.8,1.6-0.8
		C31.3,129.3,31.9,130,31.9,131.3z"/>
	<path d="M37.5,132h-3.6c0,1.1,0.6,1.7,1.6,1.7c0.5,0,1-0.1,1.4-0.6l0.5,0.4c-0.6,0.6-1.1,0.8-1.9,0.8c-1.5,0-2.3-1.1-2.3-2.5
		c0-1.4,0.8-2.6,2.2-2.6c1.5,0,2.1,1.2,2.1,2.3C37.5,131.7,37.5,131.9,37.5,132z M33.9,131.4h3c0,0,0-0.1,0-0.2
		c0-0.8-0.6-1.4-1.5-1.4C34.5,129.9,33.9,130.6,33.9,131.4z"/>
	<path d="M43,127.3v7h-0.7v-0.7c-0.4,0.5-0.9,0.7-1.6,0.7c-1.4,0-2.2-1.1-2.2-2.5c0-1.5,0.8-2.5,2.2-2.5c0.7,0,1.3,0.3,1.6,0.8v-2.7
		C42.3,127.3,43,127.3,43,127.3z M42.4,131.8c0-1.2-0.6-1.9-1.6-1.9c-1,0-1.6,0.8-1.6,1.9c0,1.1,0.5,1.9,1.6,1.9
		C41.8,133.8,42.4,132.9,42.4,131.8z"/>
</g>
<g>
	<path d="M47.2,127.1H48v1h-0.8C47.2,128.2,47.2,127.1,47.2,127.1z M47.2,129.2h0.7v4.9h-0.7V129.2z"/>
	<path d="M53.7,131.1v3H53v-2.8c0-1.1-0.3-1.5-1.1-1.5c-0.9,0-1.5,0.8-1.5,2.2v2.2h-0.7v-4.9h0.7v0.7c0.3-0.5,0.9-0.8,1.6-0.8
		C53.1,129.1,53.7,129.8,53.7,131.1z"/>
	<path d="M61.8,131v3.1h-0.6l0-0.8c-0.4,0.5-1,0.8-1.8,0.8c-1.1,0-1.7-0.6-1.7-1.5c0-0.5,0.2-0.9,0.6-1.1c0.4-0.2,0.9-0.3,1.9-0.3h1
		V131c0-0.9-0.4-1.3-1.3-1.3c-0.6,0-1.1,0.3-1.5,0.8l-0.5-0.4c0.5-0.7,1.2-1,2-1C61.1,129.1,61.8,129.8,61.8,131z M61.1,131.9
		L61.1,131.9l-0.9-0.1c-0.9,0-1.3,0.1-1.5,0.2c-0.2,0.1-0.3,0.4-0.3,0.6c0,0.5,0.5,0.9,1.2,0.9C60.5,133.6,61.1,132.9,61.1,131.9z"
		/>
</g>
<g>
	<path d="M0.6,139.1h0.8v1H0.6V139.1z M0.6,141.2h0.7v4.9H0.6V141.2z"/>
	<path d="M7.1,143.1v3H6.4v-2.8c0-1.1-0.3-1.5-1.1-1.5c-0.9,0-1.5,0.8-1.5,2.2v2.2H3.1v-4.9h0.7v0.7c0.3-0.5,0.9-0.8,1.6-0.8
		C6.5,141.1,7.1,141.8,7.1,143.1z"/>
	<path d="M12.9,139.1v7h-0.7v-0.7c-0.4,0.5-0.9,0.7-1.6,0.7c-1.4,0-2.2-1.1-2.2-2.5c0-1.5,0.8-2.5,2.2-2.5c0.7,0,1.3,0.3,1.6,0.8
		v-2.7H12.9z M12.2,143.6c0-1.2-0.6-1.9-1.6-1.9c-1,0-1.6,0.8-1.6,1.9c0,1.1,0.5,1.9,1.6,1.9C11.7,145.6,12.2,144.7,12.2,143.6z"/>
	<path d="M18.6,143.8H15c0,1.1,0.6,1.7,1.6,1.7c0.5,0,1-0.1,1.4-0.6l0.5,0.4c-0.6,0.6-1.1,0.8-1.9,0.8c-1.5,0-2.3-1.1-2.3-2.5
		c0-1.4,0.8-2.6,2.2-2.6c1.5,0,2.1,1.2,2.1,2.3C18.6,143.5,18.6,143.7,18.6,143.8z M15,143.2h3c0,0,0-0.1,0-0.2
		c0-0.8-0.6-1.4-1.5-1.4C15.6,141.7,15,142.4,15,143.2z"/>
	<path d="M24.5,143.6c0,1.5-0.8,2.5-2.2,2.5c-0.7,0-1.3-0.3-1.6-0.7v2.7H20v-7h0.7v0.7c0.4-0.5,0.9-0.8,1.6-0.8
		C23.7,141.1,24.5,142.1,24.5,143.6z M23.8,143.6c0-1.2-0.6-1.9-1.6-1.9c-1,0-1.6,0.8-1.6,1.9c0,1.1,0.5,1.9,1.6,1.9
		C23.3,145.6,23.8,144.7,23.8,143.6z"/>
	<path d="M29.9,143.8h-3.6c0,1.1,0.6,1.7,1.6,1.7c0.5,0,1-0.1,1.4-0.6l0.5,0.4c-0.6,0.6-1.1,0.8-1.9,0.8c-1.5,0-2.3-1.1-2.3-2.5
		c0-1.4,0.8-2.6,2.2-2.6c1.5,0,2.1,1.2,2.1,2.3C29.9,143.5,29.9,143.7,29.9,143.8z M26.2,143.2h3c0,0,0-0.1,0-0.2
		c0-0.8-0.6-1.4-1.5-1.4C26.9,141.7,26.3,142.4,26.2,143.2z"/>
	<path d="M35.2,143.1v3h-0.7v-2.8c0-1.1-0.3-1.5-1.1-1.5c-0.9,0-1.5,0.8-1.5,2.2v2.2h-0.7v-4.9H32v0.7c0.3-0.5,0.9-0.8,1.6-0.8
		C34.7,141.1,35.2,141.8,35.2,143.1z"/>
	<path d="M41,139.1v7h-0.7v-0.7c-0.4,0.5-0.9,0.7-1.6,0.7c-1.4,0-2.2-1.1-2.2-2.5c0-1.5,0.8-2.5,2.2-2.5c0.7,0,1.3,0.3,1.6,0.8v-2.7
		H41z M40.4,143.6c0-1.2-0.6-1.9-1.6-1.9c-1,0-1.6,0.8-1.6,1.9c0,1.1,0.5,1.9,1.6,1.9C39.8,145.6,40.4,144.7,40.4,143.6z"/>
	<path d="M46.7,143.8h-3.6c0,1.1,0.6,1.7,1.6,1.7c0.5,0,1-0.1,1.4-0.6l0.5,0.4c-0.6,0.6-1.1,0.8-1.9,0.8c-1.5,0-2.3-1.1-2.3-2.5
		c0-1.4,0.8-2.6,2.2-2.6c1.5,0,2.1,1.2,2.1,2.3C46.8,143.5,46.8,143.7,46.7,143.8z M43.1,143.2h3c0,0,0-0.1,0-0.2
		c0-0.8-0.6-1.4-1.5-1.4C43.7,141.7,43.2,142.4,43.1,143.2z"/>
	<path d="M52.1,143.1v3h-0.7v-2.8c0-1.1-0.3-1.5-1.1-1.5c-0.9,0-1.5,0.8-1.5,2.2v2.2h-0.7v-4.9h0.7v0.7c0.3-0.5,0.9-0.8,1.6-0.8
		C51.5,141.1,52.1,141.8,52.1,143.1z"/>
	<path d="M55.8,146c-0.3,0.1-0.5,0.1-0.7,0.1c-0.7,0-1.1-0.4-1.1-1.2v-3.2h-0.8v-0.6H54v-1.4l0.7-0.5v1.9h1.2v0.6h-1.2v3.1
		c0,0.5,0.2,0.7,0.6,0.7c0.2,0,0.4,0,0.6-0.1L55.8,146z"/>
</g>
<g>
	<path d="M-0.1,153.2h0.7l1.5,4l1.6-4h0.8l-2,4.9H1.9L-0.1,153.2z"/>
	<path d="M5,155.6c0-1.5,1-2.5,2.4-2.5c1.4,0,2.4,1.1,2.4,2.5c0,1.4-1,2.5-2.4,2.5S5,157.1,5,155.6z M9.1,155.6
		c0-1.1-0.6-1.9-1.7-1.9c-1.1,0-1.7,0.8-1.7,1.9c0,1.1,0.6,1.9,1.7,1.9C8.5,157.6,9.1,156.7,9.1,155.6z"/>
	<path d="M11.1,157v-5.9h0.7v5.9c0,0.3,0.1,0.6,0.4,0.6c0.2,0,0.3,0,0.5-0.1l0,0.6c-0.2,0.1-0.5,0.1-0.7,0.1
		C11.5,158.2,11.1,157.8,11.1,157z"/>
	<path d="M17.6,153.2v4.9h-0.7v-0.7c-0.3,0.5-1,0.8-1.6,0.8c-1.1,0-1.6-0.8-1.6-2v-3h0.7v2.8c0,0.8,0.1,1.5,1.1,1.5
		c1,0,1.5-0.8,1.5-2.1v-2.3H17.6z"/>
	<path d="M26.2,155v3.1h-0.7v-2.9c0-0.4,0-1.5-1.1-1.5c-1,0-1.3,0.9-1.3,2v2.4h-0.7v-2.8c0-0.8-0.2-1.5-1.1-1.5c-1,0-1.2,0.9-1.2,2
		v2.4h-0.7l0-4.9h0.7v0.6c0.3-0.5,0.8-0.7,1.4-0.7c0.7,0,1.2,0.3,1.4,1c0.3-0.6,0.9-1,1.6-1C25.7,153.1,26.2,153.9,26.2,155z"/>
	<path d="M31.8,155.8h-3.6c0,1.1,0.6,1.7,1.6,1.7c0.5,0,1-0.1,1.4-0.6l0.5,0.4c-0.6,0.6-1.1,0.8-1.9,0.8c-1.5,0-2.3-1.1-2.3-2.5
		c0-1.4,0.8-2.6,2.2-2.6c1.5,0,2.1,1.2,2.1,2.3C31.8,155.5,31.8,155.7,31.8,155.8z M28.2,155.2h3c0,0,0-0.1,0-0.2
		c0-0.8-0.6-1.4-1.5-1.4C28.8,153.7,28.3,154.4,28.2,155.2z"/>
</g>
</svg>
