<?xml version="1.0" encoding="utf-8"?>
<!-- Generator: Adobe Illustrator 25.0.0, SVG Export Plug-In . SVG Version: 6.00 Build 0)  -->
<svg version="1.1" id="prova" xmlns="http://www.w3.org/2000/svg" xmlns:xlink="http://www.w3.org/1999/xlink" x="0px" y="0px"
	 viewBox="0 0 75 160" enable-background="new 0 0 75 160" xml:space="preserve">
<g id="Group" transform="translate(0.667 30.881)">
	<ellipse id="Oval" fill="#D6DBDF" stroke="#444444" stroke-width="0.25" cx="30.8" cy="32.8" rx="30.6" ry="17.7"/>
	<ellipse id="Oval-2" fill="#D6DBDF" stroke="#444444" stroke-width="0.25" cx="30.8" cy="28.7" rx="26.6" ry="15.4"/>
	<ellipse id="Oval-3" fill="#D6DBDF" stroke="#444444" stroke-width="0.25" cx="30.8" cy="24.6" rx="23.6" ry="13.6"/>
	<ellipse id="Oval-4" fill="#D6DBDF" stroke="#444444" stroke-width="0.25" cx="30.8" cy="20.6" rx="21.4" ry="12.4"/>
	<ellipse id="Oval-5" fill="#D6DBDF" stroke="#444444" stroke-width="0.25" cx="30.8" cy="16.5" rx="19.4" ry="11.2"/>
	<ellipse id="Oval-6" fill="#D6DBDF" stroke="#444444" stroke-width="0.25" cx="30.7" cy="12.4" rx="16.8" ry="9.7"/>
	<ellipse id="Oval-7" fill="#D6DBDF" stroke="#444444" stroke-width="0.25" cx="30.8" cy="8.3" rx="13" ry="7.5"/>
	<ellipse id="Oval-8" fill="#D6DBDF" stroke="#444444" stroke-width="0.25" cx="30.8" cy="4.3" rx="7.5" ry="4.3"/>
</g>
<g enable-background="new    ">
	<path d="M3.49854,114.69336H1.08984v-0.65918h5.54688v0.65918H4.21826V121H3.49854V114.69336z"/>
	<path d="M10.82715,118.72168H7.21924c0.02002,1.0791,0.61963,1.72852,1.58936,1.72852c0.53955,0,0.96924-0.13965,1.41895-0.61914
		l0.47998,0.41895c-0.57959,0.61035-1.14941,0.83008-1.90918,0.83008c-1.49902,0-2.26855-1.11914-2.26855-2.51855
		c0-1.38965,0.75977-2.56836,2.18896-2.56836c1.50879,0,2.13867,1.17871,2.13867,2.29785
		C10.85742,118.43164,10.84717,118.60156,10.82715,118.72168z M7.21924,118.1416h2.97852c0-0.02051-0.01025-0.07031-0.01025-0.16016
		c-0.0498-0.7998-0.55957-1.40918-1.46875-1.40918C7.8291,116.57227,7.2793,117.27246,7.21924,118.1416z"/>
	<path d="M11.71973,119.79102l0.57959-0.25977c0.17969,0.50977,0.65967,0.93945,1.4292,0.93945
		c0.66943,0,1.09961-0.33008,1.09961-0.84961c0-1.30957-2.83887-0.49023-2.83887-2.23926c0-0.85938,0.69971-1.38867,1.68945-1.38867
		c0.78955,0,1.4292,0.3291,1.76904,1.0293l-0.5498,0.2998c-0.23975-0.44043-0.62988-0.71973-1.23926-0.71973
		c-0.60986,0-0.99951,0.25-0.99951,0.67969c0,1.16895,2.84814,0.42969,2.84814,2.29883c0,0.99902-0.81934,1.49902-1.76904,1.49902
		C12.76904,121.08008,11.97949,120.58008,11.71973,119.79102z"/>
	<path d="M18.9585,120.9502c-0.25977,0.08008-0.52002,0.12988-0.74951,0.12988c-0.65967,0-1.13965-0.37012-1.13965-1.23926v-3.18848
		H16.25v-0.58008h0.81934v-1.37891l0.68945-0.51953v1.89844h1.18945v0.58008h-1.18945v3.09863
		c0,0.47949,0.22021,0.69922,0.60986,0.69922c0.16992,0,0.35986-0.04004,0.57959-0.10938L18.9585,120.9502z"/>
	<path d="M19.79004,118.53125c0-1.45898,0.94922-2.53809,2.3584-2.53809c1.39941,0,2.36865,1.0791,2.36865,2.53809
		c0,1.44922-0.95947,2.54883-2.36865,2.54883S19.79004,119.99023,19.79004,118.53125z M23.82764,118.53125
		c0-1.11914-0.62988-1.92871-1.6792-1.92871c-1.05957,0-1.66895,0.81934-1.66895,1.92871c0,1.11914,0.61963,1.93945,1.66895,1.93945
		C23.20801,120.4707,23.82764,119.63086,23.82764,118.53125z"/>
</g>
<g enable-background="new    ">
	<path d="M6.16699,131.53125c0,1.46973-0.74951,2.54883-2.18896,2.54883c-0.71924,0-1.26904-0.28027-1.62891-0.73926v2.69824
		H1.65967v-6.9668h0.68945v0.66016c0.36963-0.47949,0.92969-0.75,1.62891-0.75
		C5.34766,128.98242,6.16699,129.99219,6.16699,131.53125z M5.47754,131.53125c0-1.16895-0.59961-1.93848-1.59912-1.93848
		c-0.98975,0-1.58936,0.76953-1.58936,1.93848c0,1.11914,0.5498,1.93945,1.58936,1.93945
		C4.92773,133.4707,5.47754,132.65039,5.47754,131.53125z"/>
	<path d="M11.35742,129.07227V134h-0.68945v-0.70996c-0.34961,0.53027-0.97949,0.79004-1.62891,0.79004
		c-1.11963,0-1.60938-0.76953-1.60938-1.98926v-3.01855h0.68945v2.84863c0,0.7998,0.14014,1.5498,1.07959,1.5498
		c0.97949,0,1.46924-0.84961,1.46924-2.12891v-2.26953H11.35742z"/>
	<path d="M17.68701,131.53125c0,1.46973-0.74951,2.54883-2.18896,2.54883c-0.71924,0-1.26904-0.28027-1.62891-0.73926V134h-0.68945
		v-6.96582h0.68945v2.69824c0.36963-0.47949,0.92969-0.75,1.62891-0.75C16.86768,128.98242,17.68701,129.99219,17.68701,131.53125z
		 M16.99756,131.53125c0-1.16895-0.59961-1.93848-1.59912-1.93848c-0.98975,0-1.58936,0.76953-1.58936,1.93848
		c0,1.11914,0.5498,1.93945,1.58936,1.93945C16.44775,133.4707,16.99756,132.65039,16.99756,131.53125z"/>
	<path d="M23.62695,131.53125c0,1.46973-0.74951,2.54883-2.18896,2.54883c-0.71924,0-1.26904-0.28027-1.62891-0.73926V134h-0.68945
		v-6.96582h0.68945v2.69824c0.36963-0.47949,0.92969-0.75,1.62891-0.75C22.80762,128.98242,23.62695,129.99219,23.62695,131.53125z
		 M22.9375,131.53125c0-1.16895-0.59961-1.93848-1.59912-1.93848c-0.98975,0-1.58936,0.76953-1.58936,1.93848
		c0,1.11914,0.5498,1.93945,1.58936,1.93945C22.3877,133.4707,22.9375,132.65039,22.9375,131.53125z"/>
	<path d="M25.01953,132.93066v-5.89648h0.68945v5.85645c0,0.33984,0.12012,0.55957,0.44971,0.55957
		c0.1499,0,0.31982-0.04004,0.46973-0.08984l0.01025,0.58984c-0.20996,0.06934-0.45996,0.12988-0.67969,0.12988
		C25.38916,134.08008,25.01953,133.7002,25.01953,132.93066z"/>
	<path d="M27.69922,127.03418h0.79932v1.01953h-0.79932V127.03418z M27.75928,129.07227h0.68945V134h-0.68945V129.07227z"/>
	<path d="M29.85889,131.55176c0-1.2998,0.72998-2.55859,2.21924-2.55859c0.87939,0,1.60889,0.43945,1.99854,1.3584l-0.65967,0.26074
		c-0.22949-0.62988-0.71924-1.00977-1.33887-1.00977c-1.0498,0-1.51953,0.93945-1.51953,1.94922
		c0,1.00879,0.46973,1.91895,1.5293,1.91895c0.61963,0,1.10938-0.37012,1.29932-1l0.63965,0.24023
		c-0.33008,0.89941-1.04932,1.36914-1.93896,1.36914C30.65869,134.08008,29.85889,132.9209,29.85889,131.55176z"/>
	<path d="M38.9668,130.93164V134h-0.62891l-0.04102-0.75977c-0.38916,0.5498-0.98877,0.83984-1.76855,0.83984
		c-1.06934,0-1.69873-0.55957-1.69873-1.50977c0-0.49902,0.19971-0.87891,0.55957-1.09863
		c0.37988-0.21973,0.90967-0.31055,1.87891-0.31055h1.00928v-0.22949c0-0.85938-0.44971-1.3291-1.2793-1.3291
		c-0.61963,0-1.09912,0.26953-1.49902,0.81934l-0.49951-0.41992c0.5293-0.68945,1.16895-1.00879,2.00879-1.00879
		C38.24805,128.99316,38.9668,129.70215,38.9668,130.93164z M38.27734,131.79102v-0.06934h-0.94922
		c-0.90967,0-1.29932,0.05957-1.53906,0.24902c-0.18018,0.14062-0.27002,0.36035-0.27002,0.63965
		c0,0.5498,0.46973,0.90039,1.20947,0.90039C37.67773,133.51074,38.27734,132.84082,38.27734,131.79102z"/>
	<path d="M42.69824,133.9502c-0.25977,0.08008-0.52051,0.12988-0.74902,0.12988c-0.66016,0-1.14062-0.37012-1.14062-1.23926
		v-3.18848h-0.81836v-0.58008h0.81836v-1.37891l0.69043-0.51953v1.89844h1.18848v0.58008h-1.18848v3.09863
		c0,0.47949,0.21973,0.69922,0.60938,0.69922c0.16992,0,0.36035-0.04004,0.5791-0.10938L42.69824,133.9502z"/>
	<path d="M43.5293,131.53125c0-1.45898,0.94922-2.53809,2.35938-2.53809c1.39844,0,2.36816,1.0791,2.36816,2.53809
		c0,1.44922-0.95996,2.54883-2.36816,2.54883C44.47852,134.08008,43.5293,132.99023,43.5293,131.53125z M47.56738,131.53125
		c0-1.11914-0.62988-1.92871-1.67871-1.92871c-1.06055,0-1.66992,0.81934-1.66992,1.92871
		c0,1.11914,0.62012,1.93945,1.66992,1.93945C46.94727,133.4707,47.56738,132.63086,47.56738,131.53125z"/>
</g>
<g enable-background="new    ">
	<path d="M1.59961,140.03418h0.79932v1.01953H1.59961V140.03418z M1.65967,142.07227h0.68945V147H1.65967V142.07227z"/>
	<path d="M8.09717,143.98145V147H7.40771v-2.84863c0-1.05957-0.33984-1.54883-1.07959-1.54883
		c-0.92969,0-1.46924,0.7998-1.46924,2.18848V147H4.16943v-4.92773h0.68945v0.71973
		c0.31982-0.49902,0.91943-0.79883,1.62891-0.79883C7.54736,141.99316,8.09717,142.67285,8.09717,143.98145z"/>
	<path d="M11.81934,142.07227h0.75l1.54883,4.04785l1.55908-4.04785h0.75977L14.41797,147h-0.58936L11.81934,142.07227z"/>
	<path d="M16.96973,144.53125c0-1.45898,0.94922-2.53809,2.3584-2.53809c1.39941,0,2.36865,1.0791,2.36865,2.53809
		c0,1.44922-0.95947,2.54883-2.36865,2.54883S16.96973,145.99023,16.96973,144.53125z M21.00732,144.53125
		c0-1.11914-0.62988-1.92871-1.6792-1.92871c-1.05957,0-1.66895,0.81934-1.66895,1.92871c0,1.11914,0.61963,1.93945,1.66895,1.93945
		C20.3877,146.4707,21.00732,145.63086,21.00732,144.53125z"/>
	<path d="M23.04932,145.93066v-5.89648h0.68945v5.85645c0,0.33984,0.12012,0.55957,0.44971,0.55957
		c0.1499,0,0.31982-0.04004,0.46973-0.08984l0.01025,0.58984c-0.20996,0.06934-0.45996,0.12988-0.67969,0.12988
		C23.41895,147.08008,23.04932,146.7002,23.04932,145.93066z"/>
	<path d="M29.54688,142.07227V147h-0.68945v-0.70996c-0.34961,0.53027-0.97949,0.79004-1.62891,0.79004
		c-1.11963,0-1.60938-0.76953-1.60938-1.98926v-3.01855h0.68945v2.84863c0,0.7998,0.14014,1.5498,1.07959,1.5498
		c0.97949,0,1.46924-0.84961,1.46924-2.12891v-2.26953H29.54688z"/>
	<path d="M38.125,143.92188V147h-0.68945v-2.88867c0-0.41992,0-1.50879-1.0791-1.50879c-0.99951,0-1.26953,0.91895-1.26953,2.02832
		V147h-0.68945v-2.84863c0-0.81934-0.25-1.54883-1.10938-1.54883c-0.95947,0-1.22949,0.90918-1.22949,2.02832V147h-0.68945
		l-0.01025-4.92773h0.66992v0.60059c0.30957-0.49023,0.80957-0.67969,1.35889-0.67969c0.68994,0,1.19971,0.2998,1.44922,0.94922
		c0.31982-0.62988,0.86963-0.94922,1.61914-0.94922C37.63574,141.99316,38.125,142.77246,38.125,143.92188z"/>
	<path d="M43.72656,144.72168h-3.60742c0.01953,1.0791,0.61914,1.72852,1.58887,1.72852c0.54004,0,0.96973-0.13965,1.41895-0.61914
		l0.48047,0.41895c-0.58008,0.61035-1.15039,0.83008-1.91016,0.83008c-1.49805,0-2.26758-1.11914-2.26758-2.51855
		c0-1.38965,0.75977-2.56836,2.18848-2.56836c1.50879,0,2.13867,1.17871,2.13867,2.29785
		C43.75684,144.43164,43.74609,144.60156,43.72656,144.72168z M40.11914,144.1416h2.97852
		c0-0.02051-0.01074-0.07031-0.01074-0.16016c-0.0498-0.7998-0.55957-1.40918-1.46875-1.40918
		C40.72852,142.57227,40.17871,143.27246,40.11914,144.1416z"/>
</g>
<g enable-background="new    ">
	<path d="M5.32764,155.93164V159H4.69775l-0.04004-0.75977c-0.38965,0.5498-0.98926,0.83984-1.76904,0.83984
		c-1.06934,0-1.69873-0.55957-1.69873-1.50977c0-0.49902,0.19971-0.87891,0.55957-1.09863
		c0.37988-0.21973,0.90967-0.31055,1.87891-0.31055H4.6377v-0.22949c0-0.85938-0.44971-1.3291-1.2793-1.3291
		c-0.61963,0-1.09912,0.26953-1.49902,0.81934l-0.49951-0.41992c0.5293-0.68945,1.16895-1.00879,2.00879-1.00879
		C4.60791,153.99316,5.32764,154.70215,5.32764,155.93164z M4.6377,156.79102v-0.06934H3.68848
		c-0.90967,0-1.29932,0.05957-1.53906,0.24902c-0.18018,0.14062-0.27002,0.36035-0.27002,0.63965
		c0,0.5498,0.46973,0.90039,1.20947,0.90039C4.03809,158.51074,4.6377,157.84082,4.6377,156.79102z"/>
	<path d="M10.71729,154.07227V159h-0.68945v-0.70996c-0.3501,0.53027-0.97949,0.79004-1.62939,0.79004
		c-1.11914,0-1.60889-0.76953-1.60889-1.98926v-3.01855H7.479v2.84863c0,0.7998,0.14014,1.5498,1.07959,1.5498
		c0.97949,0,1.46924-0.84961,1.46924-2.12891v-2.26953H10.71729z"/>
	<path d="M14.58838,158.9502c-0.25977,0.08008-0.52002,0.12988-0.74951,0.12988c-0.65967,0-1.13965-0.37012-1.13965-1.23926
		v-3.18848h-0.81934v-0.58008h0.81934v-1.37891l0.68945-0.51953v1.89844h1.18945v0.58008h-1.18945v3.09863
		c0,0.47949,0.22021,0.69922,0.60986,0.69922c0.16992,0,0.35986-0.04004,0.57959-0.10938L14.58838,158.9502z"/>
	<path d="M15.41992,156.53125c0-1.45898,0.94922-2.53809,2.3584-2.53809c1.39941,0,2.36865,1.0791,2.36865,2.53809
		c0,1.44922-0.95947,2.54883-2.36865,2.54883S15.41992,157.99023,15.41992,156.53125z M19.45752,156.53125
		c0-1.11914-0.62988-1.92871-1.6792-1.92871c-1.05957,0-1.66895,0.81934-1.66895,1.92871c0,1.11914,0.61963,1.93945,1.66895,1.93945
		C18.83789,158.4707,19.45752,157.63086,19.45752,156.53125z"/>
	<path d="M25.46729,155.98145V159h-0.68945v-2.84863c0-1.05957-0.33984-1.54883-1.07959-1.54883
		c-0.92969,0-1.46924,0.7998-1.46924,2.18848V159h-0.68945v-4.92773H22.229v0.71973
		c0.31982-0.49902,0.91943-0.79883,1.62891-0.79883C24.91748,153.99316,25.46729,154.67285,25.46729,155.98145z"/>
	<path d="M26.73926,156.53125c0-1.45898,0.94971-2.53809,2.35889-2.53809c1.39941,0,2.36865,1.0791,2.36865,2.53809
		c0,1.44922-0.95947,2.54883-2.36865,2.54883S26.73926,157.99023,26.73926,156.53125z M30.77734,156.53125
		c0-1.11914-0.62988-1.92871-1.6792-1.92871c-1.05957,0-1.66895,0.81934-1.66895,1.92871c0,1.11914,0.61963,1.93945,1.66895,1.93945
		C30.15771,158.4707,30.77734,157.63086,30.77734,156.53125z"/>
	<path d="M39.61523,155.92188V159h-0.68945v-2.88867c0-0.41992,0-1.50879-1.0791-1.50879
		c-0.99951,0-1.26953,0.91895-1.26953,2.02832V159H35.8877v-2.84863c0-0.81934-0.25-1.54883-1.10938-1.54883
		c-0.95947,0-1.22949,0.90918-1.22949,2.02832V159h-0.68945l-0.01025-4.92773h0.66992v0.60059
		c0.30957-0.49023,0.80957-0.67969,1.35889-0.67969c0.68994,0,1.19971,0.2998,1.44922,0.94922
		c0.31982-0.62988,0.86963-0.94922,1.61914-0.94922C39.12598,153.99316,39.61523,154.77246,39.61523,155.92188z"/>
	<path d="M40.88867,156.53125c0-1.45898,0.94922-2.53809,2.35938-2.53809c1.39844,0,2.36816,1.0791,2.36816,2.53809
		c0,1.44922-0.95996,2.54883-2.36816,2.54883C41.83789,159.08008,40.88867,157.99023,40.88867,156.53125z M44.92676,156.53125
		c0-1.11914-0.62988-1.92871-1.67871-1.92871c-1.06055,0-1.66992,0.81934-1.66992,1.92871
		c0,1.11914,0.62012,1.93945,1.66992,1.93945C44.30664,158.4707,44.92676,157.63086,44.92676,156.53125z"/>
</g>
</svg>
