<?xml version="1.0" encoding="utf-8"?>
<!-- Generator: Adobe Illustrator 25.0.0, SVG Export Plug-In . SVG Version: 6.00 Build 0)  -->
<svg version="1.1" id="Livello_1" xmlns="http://www.w3.org/2000/svg" xmlns:xlink="http://www.w3.org/1999/xlink" x="0px" y="0px"
	 viewBox="0 0 166.354 60.409" enable-background="new 0 0 166.354 60.409" xml:space="preserve">
<rect id="Rettangolo_9623" x="2.354" y="1.17739" fill="#FFFFFF" width="11" height="11"/>
<rect id="Rettangolo_9624" x="2.604" y="1.42739" fill="none" stroke="#000000" stroke-width="0.5" width="10.5" height="10.5"/>
<g enable-background="new    ">
	<path d="M24.49316,2.6792h0.70996v6.96582h-0.70996V2.6792z"/>
	<path d="M31.18115,6.62646v3.01855H30.4917V6.79639c0-1.05957-0.33984-1.54883-1.07959-1.54883
		c-0.92969,0-1.46924,0.7998-1.46924,2.18848v2.20898h-0.68945V4.71729h0.68945v0.71973
		c0.31982-0.49902,0.91943-0.79883,1.62891-0.79883C30.63135,4.63818,31.18115,5.31787,31.18115,6.62646z"/>
	<path d="M32.82324,2.6792h0.79932v1.01953h-0.79932V2.6792z M32.8833,4.71729h0.68945v4.92773H32.8833V4.71729z"/>
	<path d="M38.95166,5.26709l-3.2085,3.78809h3.18848v0.58984H34.8335v-0.5l3.27832-3.83789h-3.1084V4.71729h3.94824V5.26709z"/>
	<path d="M40.20361,2.6792h0.79932v1.01953h-0.79932V2.6792z M40.26367,4.71729h0.68945v4.92773h-0.68945V4.71729z"/>
	<path d="M42.34326,7.17627c0-1.45898,0.94971-2.53809,2.35889-2.53809c1.39941,0,2.36865,1.0791,2.36865,2.53809
		c0,1.44922-0.95947,2.54883-2.36865,2.54883S42.34326,8.63525,42.34326,7.17627z M46.38135,7.17627
		c0-1.11914-0.62988-1.92871-1.6792-1.92871c-1.05957,0-1.66895,0.81934-1.66895,1.92871c0,1.11914,0.61963,1.93945,1.66895,1.93945
		C45.76172,9.11572,46.38135,8.27588,46.38135,7.17627z"/>
	<path d="M55.31104,2.6792v6.96582h-0.68994V8.98584c-0.35938,0.45898-0.90918,0.73926-1.62891,0.73926
		c-1.43896,0-2.18896-1.0791-2.18896-2.54883c0-1.53906,0.81982-2.54883,2.18896-2.54883c0.69971,0,1.25928,0.27051,1.62891,0.75
		V2.6792H55.31104z M54.68115,7.17627c0-1.16895-0.59961-1.93848-1.58887-1.93848c-0.99951,0-1.59912,0.76953-1.59912,1.93848
		c0,1.11914,0.54932,1.93945,1.59912,1.93945C54.13135,9.11572,54.68115,8.29541,54.68115,7.17627z"/>
	<path d="M61.03076,7.3667h-3.60791c0.02002,1.0791,0.61963,1.72852,1.58936,1.72852c0.53955,0,0.96924-0.13965,1.41895-0.61914
		l0.47998,0.41895c-0.57959,0.61035-1.14941,0.83008-1.90918,0.83008c-1.49902,0-2.26855-1.11914-2.26855-2.51855
		c0-1.38965,0.75977-2.56836,2.18896-2.56836c1.50879,0,2.13867,1.17871,2.13867,2.29785
		C61.06104,7.07666,61.05078,7.24658,61.03076,7.3667z M57.42285,6.78662h2.97852c0-0.02051-0.01025-0.07031-0.01025-0.16016
		c-0.0498-0.7998-0.55957-1.40918-1.46875-1.40918C58.03271,5.21729,57.48291,5.91748,57.42285,6.78662z"/>
	<path d="M62.41309,8.57568V2.6792h0.68945v5.85645c0,0.33984,0.12012,0.55957,0.44971,0.55957
		c0.1499,0,0.31982-0.04004,0.46973-0.08984l0.01025,0.58984c-0.20996,0.06934-0.45996,0.12988-0.67969,0.12988
		C62.78271,9.7251,62.41309,9.34521,62.41309,8.57568z"/>
	<path d="M69.93164,9.59521c-0.25977,0.08008-0.52002,0.12988-0.74951,0.12988c-0.65967,0-1.13965-0.37012-1.13965-1.23926V5.29736
		h-0.81934V4.71729h0.81934V3.33838l0.68945-0.51953v1.89844h1.18945v0.58008h-1.18945V8.396
		c0,0.47949,0.22021,0.69922,0.60986,0.69922c0.16992,0,0.35986-0.04004,0.57959-0.10938L69.93164,9.59521z"/>
	<path d="M75.09033,7.3667h-3.60791c0.02002,1.0791,0.61963,1.72852,1.58936,1.72852c0.53955,0,0.96924-0.13965,1.41895-0.61914
		l0.47998,0.41895c-0.57959,0.61035-1.14941,0.83008-1.90918,0.83008c-1.49902,0-2.26855-1.11914-2.26855-2.51855
		c0-1.38965,0.75977-2.56836,2.18896-2.56836c1.50879,0,2.13867,1.17871,2.13867,2.29785
		C75.12061,7.07666,75.11035,7.24658,75.09033,7.3667z M71.48242,6.78662h2.97852c0-0.02051-0.01025-0.07031-0.01025-0.16016
		c-0.0498-0.7998-0.55957-1.40918-1.46875-1.40918C72.09229,5.21729,71.54248,5.91748,71.48242,6.78662z"/>
	<path d="M75.9834,8.43604l0.57959-0.25977c0.17969,0.50977,0.65967,0.93945,1.4292,0.93945
		c0.66943,0,1.09961-0.33008,1.09961-0.84961c0-1.30957-2.83887-0.49023-2.83887-2.23926c0-0.85938,0.69971-1.38867,1.68945-1.38867
		c0.78955,0,1.4292,0.3291,1.76904,1.0293l-0.5498,0.2998c-0.23975-0.44043-0.62988-0.71973-1.23926-0.71973
		c-0.60986,0-0.99951,0.25-0.99951,0.67969c0,1.16895,2.84814,0.42969,2.84814,2.29883c0,0.99902-0.81934,1.49902-1.76855,1.49902
		C77.03271,9.7251,76.24316,9.2251,75.9834,8.43604z"/>
	<path d="M83.22168,9.59521c-0.25977,0.08008-0.52002,0.12988-0.74951,0.12988c-0.65967,0-1.13965-0.37012-1.13965-1.23926V5.29736
		h-0.81934V4.71729h0.81934V3.33838l0.68945-0.51953v1.89844h1.18945v0.58008h-1.18945V8.396
		c0,0.47949,0.22021,0.69922,0.60986,0.69922c0.16992,0,0.35986-0.04004,0.57959-0.10938L83.22168,9.59521z"/>
	<path d="M84.05273,7.17627c0-1.45898,0.94922-2.53809,2.35938-2.53809c1.39844,0,2.36816,1.0791,2.36816,2.53809
		c0,1.44922-0.95996,2.54883-2.36816,2.54883C85.00195,9.7251,84.05273,8.63525,84.05273,7.17627z M88.09082,7.17627
		c0-1.11914-0.62988-1.92871-1.67871-1.92871c-1.06055,0-1.66992,0.81934-1.66992,1.92871
		c0,1.11914,0.62012,1.93945,1.66992,1.93945C87.4707,9.11572,88.09082,8.27588,88.09082,7.17627z"/>
</g>
<g enable-background="new    ">
	<path d="M24.49316,25.86523h4.72754v0.65918h-4.01758v2.42871h3.51807v0.66016h-3.51807v3.21777h-0.70996V25.86523z"/>
	<path d="M30.43359,25.86523h0.79932v1.01953h-0.79932V25.86523z M30.49365,27.90332h0.68945v4.92773h-0.68945V27.90332z"/>
	<path d="M36.93115,29.8125v3.01855H36.2417v-2.84863c0-1.05957-0.33984-1.54883-1.07959-1.54883
		c-0.92969,0-1.46924,0.7998-1.46924,2.18848v2.20898h-0.68945v-4.92773h0.68945v0.71973
		c0.31982-0.49902,0.91943-0.79883,1.62891-0.79883C36.38135,27.82422,36.93115,28.50391,36.93115,29.8125z"/>
	<path d="M42.53076,30.55273h-3.60791c0.02002,1.0791,0.61963,1.72852,1.58936,1.72852c0.53955,0,0.96924-0.13965,1.41895-0.61914
		l0.47998,0.41895c-0.57959,0.61035-1.14941,0.83008-1.90918,0.83008c-1.49902,0-2.26855-1.11914-2.26855-2.51855
		c0-1.38965,0.75977-2.56836,2.18896-2.56836c1.50879,0,2.13867,1.17871,2.13867,2.29785
		C42.56104,30.2627,42.55078,30.43262,42.53076,30.55273z M38.92285,29.97266h2.97852c0-0.02051-0.01025-0.07031-0.01025-0.16016
		c-0.0498-0.7998-0.55957-1.40918-1.46875-1.40918C39.53271,28.40332,38.98291,29.10352,38.92285,29.97266z"/>
	<path d="M50.80127,25.86523v6.96582h-0.68994v-0.65918c-0.35938,0.45898-0.90918,0.73926-1.62891,0.73926
		c-1.43896,0-2.18896-1.0791-2.18896-2.54883c0-1.53906,0.81982-2.54883,2.18896-2.54883c0.69971,0,1.25928,0.27051,1.62891,0.75
		v-2.69824H50.80127z M50.17139,30.3623c0-1.16895-0.59961-1.93848-1.58887-1.93848c-0.99951,0-1.59912,0.76953-1.59912,1.93848
		c0,1.11914,0.54932,1.93945,1.59912,1.93945C49.62158,32.30176,50.17139,31.48145,50.17139,30.3623z"/>
	<path d="M56.521,30.55273h-3.60791c0.02002,1.0791,0.61963,1.72852,1.58936,1.72852c0.53955,0,0.96924-0.13965,1.41895-0.61914
		l0.47998,0.41895c-0.57959,0.61035-1.14941,0.83008-1.90918,0.83008c-1.49902,0-2.26855-1.11914-2.26855-2.51855
		c0-1.38965,0.75977-2.56836,2.18896-2.56836c1.50879,0,2.13867,1.17871,2.13867,2.29785
		C56.55127,30.2627,56.54102,30.43262,56.521,30.55273z M52.91309,29.97266h2.97852c0-0.02051-0.01025-0.07031-0.01025-0.16016
		c-0.0498-0.7998-0.55957-1.40918-1.46875-1.40918C53.52295,28.40332,52.97314,29.10352,52.91309,29.97266z"/>
	<path d="M57.90332,31.76172v-5.89648h0.68945v5.85645c0,0.33984,0.12012,0.55957,0.44971,0.55957
		c0.1499,0,0.31982-0.04004,0.46973-0.08984l0.01025,0.58984c-0.20996,0.06934-0.45996,0.12988-0.67969,0.12988
		C58.27295,32.91113,57.90332,32.53125,57.90332,31.76172z"/>
	<path d="M65.42188,32.78125c-0.25977,0.08008-0.52002,0.12988-0.74951,0.12988c-0.65967,0-1.13965-0.37012-1.13965-1.23926V28.4834
		h-0.81934v-0.58008h0.81934v-1.37891l0.68945-0.51953v1.89844h1.18945v0.58008h-1.18945v3.09863
		c0,0.47949,0.22021,0.69922,0.60986,0.69922c0.16992,0,0.35986-0.04004,0.57959-0.10938L65.42188,32.78125z"/>
	<path d="M70.58057,30.55273h-3.60791c0.02002,1.0791,0.61963,1.72852,1.58936,1.72852c0.53955,0,0.96924-0.13965,1.41895-0.61914
		l0.47998,0.41895c-0.57959,0.61035-1.14941,0.83008-1.90918,0.83008c-1.49902,0-2.26855-1.11914-2.26855-2.51855
		c0-1.38965,0.75977-2.56836,2.18896-2.56836c1.50879,0,2.13867,1.17871,2.13867,2.29785
		C70.61084,30.2627,70.60059,30.43262,70.58057,30.55273z M66.97266,29.97266h2.97852c0-0.02051-0.01025-0.07031-0.01025-0.16016
		c-0.0498-0.7998-0.55957-1.40918-1.46875-1.40918C67.58252,28.40332,67.03271,29.10352,66.97266,29.97266z"/>
	<path d="M71.47363,31.62207l0.57959-0.25977c0.17969,0.50977,0.65967,0.93945,1.4292,0.93945
		c0.66943,0,1.09961-0.33008,1.09961-0.84961c0-1.30957-2.83887-0.49023-2.83887-2.23926c0-0.85938,0.69971-1.38867,1.68945-1.38867
		c0.78955,0,1.4292,0.3291,1.76904,1.0293l-0.5498,0.2998c-0.23975-0.44043-0.62988-0.71973-1.23926-0.71973
		c-0.60986,0-0.99951,0.25-0.99951,0.67969c0,1.16895,2.84814,0.42969,2.84814,2.29883c0,0.99902-0.81934,1.49902-1.76855,1.49902
		C72.52295,32.91113,71.7334,32.41113,71.47363,31.62207z"/>
	<path d="M78.71191,32.78125c-0.25977,0.08008-0.52002,0.12988-0.74951,0.12988c-0.65967,0-1.13965-0.37012-1.13965-1.23926V28.4834
		h-0.81934v-0.58008h0.81934v-1.37891l0.68945-0.51953v1.89844h1.18945v0.58008h-1.18945v3.09863
		c0,0.47949,0.22021,0.69922,0.60986,0.69922c0.16992,0,0.35986-0.04004,0.57959-0.10938L78.71191,32.78125z"/>
	<path d="M79.54346,30.3623c0-1.45898,0.94922-2.53809,2.3584-2.53809c1.39941,0,2.36865,1.0791,2.36865,2.53809
		c0,1.44922-0.95947,2.54883-2.36865,2.54883S79.54346,31.82129,79.54346,30.3623z M83.58105,30.3623
		c0-1.11914-0.62988-1.92871-1.6792-1.92871c-1.05957,0-1.66895,0.81934-1.66895,1.92871c0,1.11914,0.61963,1.93945,1.66895,1.93945
		C82.96143,32.30176,83.58105,31.46191,83.58105,30.3623z"/>
</g>
<rect id="Rettangolo_9625" x="2.35417" y="24.3634" transform="matrix(0.70711 -0.70711 0.70711 0.70711 -18.81618 14.30053)" fill="#FFFFFF" width="11" height="11"/>
<rect id="Rettangolo_9626" x="2.60462" y="24.6134" transform="matrix(0.70711 -0.70711 0.70711 0.70711 -18.81605 14.30084)" fill="none" stroke="#000000" stroke-width="0.5" width="10.5" height="10.5"/>
<g enable-background="new    ">
	<path d="M24.03369,51.62695c0-2.23926,1.20947-3.56836,3.21826-3.56836c1.39893,0,2.37842,0.63965,2.86816,1.90918l-0.65967,0.25
		c-0.36963-1-1.10938-1.47949-2.2085-1.47949c-1.59912,0-2.50879,1.04004-2.50879,2.88867c0,1.85938,0.89941,2.91797,2.4585,2.91797
		c1.08984,0,1.86914-0.50977,2.25879-1.50879l0.67969,0.25c-0.51953,1.26953-1.54883,1.93848-2.93848,1.93848
		C25.22314,55.22461,24.03369,53.87598,24.03369,51.62695z"/>
	<path d="M30.92334,52.65625c0-1.45898,0.94971-2.53809,2.35889-2.53809c1.39941,0,2.36865,1.0791,2.36865,2.53809
		c0,1.44922-0.95947,2.54883-2.36865,2.54883S30.92334,54.11523,30.92334,52.65625z M34.96143,52.65625
		c0-1.11914-0.62988-1.92871-1.6792-1.92871c-1.05957,0-1.66895,0.81934-1.66895,1.92871c0,1.11914,0.61963,1.93945,1.66895,1.93945
		C34.3418,54.5957,34.96143,53.75586,34.96143,52.65625z"/>
	<path d="M40.0415,50.32812l-0.33984,0.55957c-0.22949-0.10059-0.43945-0.15039-0.64941-0.15039
		c-0.75977,0-1.31934,0.56934-1.31934,1.63965V55.125h-0.68945v-4.92773h0.68945v0.74023
		c0.35986-0.64941,0.95947-0.81934,1.45898-0.81934C39.4917,50.11816,39.77197,50.17773,40.0415,50.32812z"/>
	<path d="M44.06152,50.32812l-0.33984,0.55957c-0.22949-0.10059-0.43945-0.15039-0.64941-0.15039
		c-0.75977,0-1.31934,0.56934-1.31934,1.63965V55.125h-0.68945v-4.92773h0.68945v0.74023
		c0.35986-0.64941,0.95947-0.81934,1.45898-0.81934C43.51221,50.11816,43.79199,50.17773,44.06152,50.32812z"/>
	<path d="M45.02344,48.15918h0.79932v1.01953h-0.79932V48.15918z M45.0835,50.19727h0.68945V55.125H45.0835V50.19727z"/>
	<path d="M47.06348,53.91602l0.57959-0.25977c0.17969,0.50977,0.65967,0.93945,1.4292,0.93945
		c0.66943,0,1.09961-0.33008,1.09961-0.84961c0-1.30957-2.83887-0.49023-2.83887-2.23926c0-0.85938,0.69971-1.38867,1.68945-1.38867
		c0.78955,0,1.4292,0.3291,1.76904,1.0293l-0.5498,0.2998c-0.23975-0.44043-0.62988-0.71973-1.23926-0.71973
		c-0.60986,0-0.99951,0.25-0.99951,0.67969c0,1.16895,2.84814,0.42969,2.84814,2.29883c0,0.99902-0.81934,1.49902-1.76855,1.49902
		C48.11279,55.20508,47.32324,54.70508,47.06348,53.91602z"/>
	<path d="M56.76025,52.65625c0,1.46973-0.74951,2.54883-2.18896,2.54883c-0.71924,0-1.26904-0.28027-1.62891-0.73926v2.69824
		h-0.68945v-6.9668h0.68945v0.66016c0.36963-0.47949,0.92969-0.75,1.62891-0.75
		C55.94092,50.10742,56.76025,51.11719,56.76025,52.65625z M56.0708,52.65625c0-1.16895-0.59961-1.93848-1.59912-1.93848
		c-0.98975,0-1.58936,0.76953-1.58936,1.93848c0,1.11914,0.5498,1.93945,1.58936,1.93945
		C55.521,54.5957,56.0708,53.77539,56.0708,52.65625z"/>
	<path d="M57.76318,52.65625c0-1.45898,0.94971-2.53809,2.35889-2.53809c1.39941,0,2.36865,1.0791,2.36865,2.53809
		c0,1.44922-0.95947,2.54883-2.36865,2.54883S57.76318,54.11523,57.76318,52.65625z M61.80127,52.65625
		c0-1.11914-0.62988-1.92871-1.6792-1.92871c-1.05957,0-1.66895,0.81934-1.66895,1.92871c0,1.11914,0.61963,1.93945,1.66895,1.93945
		C61.18164,54.5957,61.80127,53.75586,61.80127,52.65625z"/>
	<path d="M67.81055,52.10645V55.125h-0.68945v-2.84863c0-1.05957-0.33984-1.54883-1.07959-1.54883
		c-0.92969,0-1.46924,0.7998-1.46924,2.18848V55.125h-0.68945v-4.92773h0.68945v0.71973
		c0.31982-0.49902,0.91943-0.79883,1.62891-0.79883C67.26074,50.11816,67.81055,50.79785,67.81055,52.10645z"/>
	<path d="M73.63037,48.15918V55.125h-0.68994v-0.65918c-0.35938,0.45898-0.90918,0.73926-1.62891,0.73926
		c-1.43896,0-2.18896-1.0791-2.18896-2.54883c0-1.53906,0.81982-2.54883,2.18896-2.54883c0.69971,0,1.25928,0.27051,1.62891,0.75
		v-2.69824H73.63037z M73.00049,52.65625c0-1.16895-0.59961-1.93848-1.58887-1.93848c-0.99951,0-1.59912,0.76953-1.59912,1.93848
		c0,1.11914,0.54932,1.93945,1.59912,1.93945C72.45068,54.5957,73.00049,53.77539,73.00049,52.65625z"/>
	<path d="M79.3501,52.84668h-3.60791c0.02002,1.0791,0.61963,1.72852,1.58936,1.72852c0.53955,0,0.96924-0.13965,1.41895-0.61914
		l0.47998,0.41895c-0.57959,0.61035-1.14941,0.83008-1.90918,0.83008c-1.49902,0-2.26855-1.11914-2.26855-2.51855
		c0-1.38965,0.75977-2.56836,2.18896-2.56836c1.50879,0,2.13867,1.17871,2.13867,2.29785
		C79.38037,52.55664,79.37012,52.72656,79.3501,52.84668z M75.74219,52.2666h2.97852c0-0.02051-0.01025-0.07031-0.01025-0.16016
		c-0.0498-0.7998-0.55957-1.40918-1.46875-1.40918C76.35205,50.69727,75.80225,51.39746,75.74219,52.2666z"/>
	<path d="M84.70117,52.10645V55.125h-0.68945v-2.84863c0-1.05957-0.34033-1.54883-1.08008-1.54883
		c-0.92969,0-1.46924,0.7998-1.46924,2.18848V55.125h-0.68945v-4.92773h0.68945v0.71973
		c0.31982-0.49902,0.91943-0.79883,1.62891-0.79883C84.15039,50.11816,84.70117,50.79785,84.70117,52.10645z"/>
	<path d="M89.96094,50.74707l-3.20898,3.78809h3.18945V55.125h-4.09863v-0.5l3.27832-3.83789h-3.1084v-0.58984h3.94824V50.74707z"/>
	<path d="M94.94043,52.05664V55.125h-0.62988l-0.04004-0.75977c-0.38965,0.5498-0.98926,0.83984-1.76855,0.83984
		c-1.07031,0-1.69922-0.55957-1.69922-1.50977c0-0.49902,0.19922-0.87891,0.55957-1.09863
		c0.37988-0.21973,0.90918-0.31055,1.87891-0.31055H94.25v-0.22949c0-0.85938-0.44922-1.3291-1.2793-1.3291
		c-0.61914,0-1.09863,0.26953-1.49805,0.81934l-0.5-0.41992c0.5293-0.68945,1.16895-1.00879,2.00879-1.00879
		C94.2207,50.11816,94.94043,50.82715,94.94043,52.05664z M94.25,52.91602v-0.06934h-0.94922
		c-0.90918,0-1.29883,0.05957-1.53906,0.24902c-0.17969,0.14062-0.26953,0.36035-0.26953,0.63965
		c0,0.5498,0.46973,0.90039,1.20898,0.90039C93.65039,54.63574,94.25,53.96582,94.25,52.91602z"/>
	<path d="M99.65234,50.77734h-1.03906v-0.58008h1.04883v-0.75879c0-1.0498,0.60938-1.35938,1.23926-1.35938
		c0.27051,0,0.56934,0.05957,0.87988,0.18945l-0.24023,0.5498c-0.20996-0.09961-0.39941-0.16016-0.56934-0.16016
		c-0.38965,0-0.62988,0.27051-0.62988,0.72949v0.80957h1.41992v0.58008h-1.41992V55.125h-0.68945V50.77734z"/>
	<path d="M105.83984,50.32812L105.5,50.8877c-0.22852-0.10059-0.43945-0.15039-0.64844-0.15039
		c-0.75977,0-1.32031,0.56934-1.32031,1.63965V55.125h-0.68945v-4.92773h0.68945v0.74023
		c0.36035-0.64941,0.95996-0.81934,1.45898-0.81934C105.29102,50.11816,105.57031,50.17773,105.83984,50.32812z"/>
	<path d="M110.53027,52.05664V55.125h-0.62988l-0.04004-0.75977c-0.38965,0.5498-0.98926,0.83984-1.76855,0.83984
		c-1.07031,0-1.69922-0.55957-1.69922-1.50977c0-0.49902,0.19922-0.87891,0.55957-1.09863
		c0.37988-0.21973,0.90918-0.31055,1.87891-0.31055h1.00879v-0.22949c0-0.85938-0.44922-1.3291-1.2793-1.3291
		c-0.61914,0-1.09863,0.26953-1.49805,0.81934l-0.5-0.41992c0.5293-0.68945,1.16895-1.00879,2.00879-1.00879
		C109.81055,50.11816,110.53027,50.82715,110.53027,52.05664z M109.83984,52.91602v-0.06934h-0.94922
		c-0.90918,0-1.29883,0.05957-1.53906,0.24902c-0.17969,0.14062-0.26953,0.36035-0.26953,0.63965
		c0,0.5498,0.46973,0.90039,1.20898,0.90039C109.24023,54.63574,109.83984,53.96582,109.83984,52.91602z"/>
	<path d="M114.88281,48.15918h0.79883v1.01953h-0.79883V48.15918z M114.94238,50.19727h0.68945V55.125h-0.68945V50.19727z"/>
	<path d="M121.37988,52.10645V55.125h-0.68945v-2.84863c0-1.05957-0.33984-1.54883-1.0791-1.54883
		c-0.92969,0-1.46973,0.7998-1.46973,2.18848V55.125h-0.68945v-4.92773h0.68945v0.71973
		c0.31934-0.49902,0.91895-0.79883,1.62891-0.79883C120.83008,50.11816,121.37988,50.79785,121.37988,52.10645z"/>
	<path d="M123.02148,48.15918h0.7998v1.01953h-0.7998V48.15918z M123.08203,50.19727h0.68945V55.125h-0.68945V50.19727z"/>
	<path d="M129.15039,50.74707l-3.20898,3.78809h3.18848V55.125h-4.09863v-0.5l3.2793-3.83789h-3.10938v-0.58984h3.94922V50.74707z"
		/>
	<path d="M130.40234,48.15918h0.79883v1.01953h-0.79883V48.15918z M130.46191,50.19727h0.68945V55.125h-0.68945V50.19727z"/>
	<path d="M132.54102,52.65625c0-1.45898,0.9502-2.53809,2.35938-2.53809c1.39941,0,2.36914,1.0791,2.36914,2.53809
		c0,1.44922-0.95996,2.54883-2.36914,2.54883S132.54102,54.11523,132.54102,52.65625z M136.58008,52.65625
		c0-1.11914-0.63086-1.92871-1.67969-1.92871c-1.05957,0-1.66895,0.81934-1.66895,1.92871
		c0,1.11914,0.62012,1.93945,1.66895,1.93945C135.95996,54.5957,136.58008,53.75586,136.58008,52.65625z"/>
	<path d="M145.28906,52.84668h-3.60742c0.01953,1.0791,0.61914,1.72852,1.58887,1.72852c0.54004,0,0.96973-0.13965,1.41895-0.61914
		l0.48047,0.41895c-0.58008,0.61035-1.15039,0.83008-1.91016,0.83008c-1.49805,0-2.26758-1.11914-2.26758-2.51855
		c0-1.38965,0.75977-2.56836,2.18848-2.56836c1.50879,0,2.13867,1.17871,2.13867,2.29785
		C145.31934,52.55664,145.30859,52.72656,145.28906,52.84668z M141.68164,52.2666h2.97852
		c0-0.02051-0.01074-0.07031-0.01074-0.16016c-0.0498-0.7998-0.55957-1.40918-1.46875-1.40918
		C142.29102,50.69727,141.74121,51.39746,141.68164,52.2666z"/>
	<path d="M152.83984,55.125h-0.68945v-4.34766h-1.91016V55.125h-0.68945v-4.34766h-0.84961v-0.58008h0.84961v-0.39941
		c0-1.16895,0.79004-1.71875,1.75977-1.71875c0.59961,0,1.0791,0.16016,1.5293,0.46973l-0.33008,0.47949
		c-0.33008-0.24023-0.68945-0.37988-1.16992-0.37988c-0.70898,0-1.09961,0.34961-1.09961,1.15918v0.38965h2.59961V55.125z"/>
	<path d="M158.53906,52.10645V55.125h-0.68945v-2.84863c0-1.05957-0.33984-1.54883-1.08008-1.54883
		c-0.92969,0-1.46875,0.7998-1.46875,2.18848V55.125h-0.68945v-4.92773h0.68945v0.71973
		c0.32031-0.49902,0.91992-0.79883,1.62891-0.79883C157.98926,50.11816,158.53906,50.79785,158.53906,52.10645z"/>
	<path d="M164.13867,52.84668h-3.60742c0.01953,1.0791,0.61914,1.72852,1.58887,1.72852c0.54004,0,0.96973-0.13965,1.41895-0.61914
		l0.48047,0.41895c-0.58008,0.61035-1.15039,0.83008-1.91016,0.83008c-1.49805,0-2.26758-1.11914-2.26758-2.51855
		c0-1.38965,0.75977-2.56836,2.18848-2.56836c1.50879,0,2.13867,1.17871,2.13867,2.29785
		C164.16895,52.55664,164.1582,52.72656,164.13867,52.84668z M160.53125,52.2666h2.97852c0-0.02051-0.01074-0.07031-0.01074-0.16016
		c-0.0498-0.7998-0.55957-1.40918-1.46875-1.40918C161.14062,50.69727,160.59082,51.39746,160.53125,52.2666z"/>
</g>
<path id="Tracciato_116471" fill="#E72EFF" stroke="#000000" stroke-width="0.5" d="M13.63202,54.43513l2.27802-2.27802
	l-2.27802-2.27802v-3.22198h-3.22198L8.13202,44.3791L5.854,46.65711H2.63202v3.22198L0.354,52.15711l2.27802,2.27802v3.22198H5.854
	l2.27802,2.27802l2.27802-2.27802h3.22198V54.43513z"/>
</svg>
