<?xml version="1.0" encoding="utf-8"?>
<!-- Generator: Adobe Illustrator 25.0.0, SVG Export Plug-In . SVG Version: 6.00 Build 0)  -->
<svg version="1.1" id="Livello_1" xmlns="http://www.w3.org/2000/svg" xmlns:xlink="http://www.w3.org/1999/xlink" x="0px" y="0px"
	 viewBox="0 0 300 63" enable-background="new 0 0 300 63" xml:space="preserve">
<linearGradient id="Rettangolo_9608_1_" gradientUnits="userSpaceOnUse" x1="-632.75031" y1="562.59259" x2="-632.75031" y2="561.59259" gradientTransform="matrix(5 0 0 -54 3294.65796 30386)">
	<stop  offset="0" style="stop-color:#A906FF"/>
	<stop  offset="0" style="stop-color:#4E1AFA"/>
	<stop  offset="0.498" style="stop-color:#38D1FF"/>
	<stop  offset="1" style="stop-color:#FFBB03"/>
</linearGradient>
<rect id="Rettangolo_9608" x="128.40656" y="6" fill="url(#Rettangolo_9608_1_)" width="5" height="54"/>
<line id="Linea_219" fill="none" stroke="#000000" x1="130.90656" y1="6.5" x2="130.90656" y2="59.5"/>
<line id="Linea_220" fill="none" stroke="#000000" x1="125.90655" y1="6.5" x2="135.90656" y2="6.5"/>
<line id="Linea_221" fill="none" stroke="#000000" x1="125.90655" y1="59.5" x2="135.90656" y2="59.5"/>
<line id="Linea_222" fill="none" stroke="#999999" stroke-width="0.5" stroke-dasharray="2" x1="97.90655" y1="6.5" x2="124.24554" y2="6.5"/>
<line id="Linea_223" fill="none" stroke="#999999" stroke-width="0.5" stroke-dasharray="2" x1="104.90655" y1="59.5" x2="124.24554" y2="59.5"/>
<g enable-background="new    ">
	<path fill="#8131F4" d="M76.18218,1.99609v6.96582h-0.71973v-6.0166l-2.24902,5.43652h-0.69922L70.25542,2.9248v6.03711h-0.70996
		V1.99609h1.04004l2.27832,5.55664l2.2793-5.55664H76.18218z"/>
	<path fill="#8131F4" d="M77.80621,6.49316c0-1.45898,0.94922-2.53809,2.3584-2.53809c1.39941,0,2.36914,1.0791,2.36914,2.53809
		c0,1.44922-0.95996,2.54883-2.36914,2.54883S77.80621,7.95215,77.80621,6.49316z M81.84429,6.49316
		c0-1.11914-0.62988-1.92871-1.67969-1.92871c-1.05957,0-1.66895,0.81934-1.66895,1.92871
		c0,1.11914,0.62012,1.93945,1.66895,1.93945C81.22417,8.43262,81.84429,7.59277,81.84429,6.49316z"/>
	<path fill="#8131F4" d="M86.92437,4.16504l-0.33984,0.55957c-0.22949-0.10059-0.43945-0.15039-0.64941-0.15039
		c-0.75977,0-1.31934,0.56934-1.31934,1.63965v2.74805h-0.68945V4.03418h0.68945v0.74023
		c0.35938-0.64941,0.95898-0.81934,1.45898-0.81934C86.37457,3.95508,86.65484,4.01465,86.92437,4.16504z"/>
	<path fill="#8131F4" d="M90.24468,8.91211c-0.25977,0.08008-0.51953,0.12988-0.74902,0.12988
		c-0.66016,0-1.13965-0.37012-1.13965-1.23926V4.61426h-0.81934V4.03418h0.81934V2.65527l0.68945-0.51953v1.89844h1.18945v0.58008
		h-1.18945v3.09863c0,0.47949,0.21973,0.69922,0.60938,0.69922c0.16992,0,0.36035-0.04004,0.58008-0.10938L90.24468,8.91211z"/>
	<path fill="#8131F4" d="M95.40386,6.68359h-3.6084c0.02051,1.0791,0.62012,1.72852,1.58984,1.72852
		c0.53906,0,0.96875-0.13965,1.41895-0.61914l0.47949,0.41895c-0.5791,0.61035-1.14941,0.83008-1.90918,0.83008
		c-1.49902,0-2.26855-1.11914-2.26855-2.51855c0-1.38965,0.75977-2.56836,2.18945-2.56836
		c1.50879,0,2.13867,1.17871,2.13867,2.29785C95.43414,6.39355,95.42339,6.56348,95.40386,6.68359z M91.79546,6.10352h2.97852
		c0-0.02051-0.00977-0.07031-0.00977-0.16016c-0.0498-0.7998-0.55957-1.40918-1.46875-1.40918
		C92.40582,4.53418,91.85601,5.23438,91.79546,6.10352z"/>
</g>
<g enable-background="new    ">
	<path fill="#FFA500" d="M69.08648,58.78613c0-2.23926,1.20898-3.56836,3.21777-3.56836c1.39941,0,2.37891,0.63965,2.86816,1.90918
		l-0.65918,0.25c-0.37012-1-1.10938-1.47949-2.20898-1.47949c-1.59863,0-2.50879,1.04004-2.50879,2.88867
		c0,1.85938,0.89941,2.91797,2.45898,2.91797c1.08984,0,1.86914-0.50977,2.25879-1.50879l0.67969,0.25
		c-0.51953,1.26953-1.54883,1.93848-2.93848,1.93848C70.27593,62.38379,69.08648,61.03516,69.08648,58.78613z"/>
	<path fill="#FFA500" d="M75.97613,59.81543c0-1.45898,0.94922-2.53809,2.3584-2.53809c1.39941,0,2.36914,1.0791,2.36914,2.53809
		c0,1.44922-0.95996,2.54883-2.36914,2.54883S75.97613,61.27441,75.97613,59.81543z M80.01421,59.81543
		c0-1.11914-0.62988-1.92871-1.67969-1.92871c-1.05957,0-1.66895,0.81934-1.66895,1.92871
		c0,1.11914,0.62012,1.93945,1.66895,1.93945C79.3941,61.75488,80.01421,60.91504,80.01421,59.81543z"/>
	<path fill="#FFA500" d="M85.09429,57.4873l-0.33984,0.55957c-0.22949-0.10059-0.43945-0.15039-0.64941-0.15039
		c-0.75977,0-1.31934,0.56934-1.31934,1.63965v2.74805h-0.68945v-4.92773h0.68945v0.74023
		c0.35938-0.64941,0.95898-0.81934,1.45898-0.81934C84.54449,57.27734,84.82476,57.33691,85.09429,57.4873z"/>
	<path fill="#FFA500" d="M90.04351,59.26562v3.01855h-0.68945v-2.84863c0-1.05957-0.33984-1.54883-1.0791-1.54883
		c-0.92969,0-1.46973,0.7998-1.46973,2.18848v2.20898h-0.68945v-4.92773h0.68945v0.71973
		c0.32031-0.49902,0.91992-0.79883,1.62891-0.79883C89.49371,57.27734,90.04351,57.95703,90.04351,59.26562z"/>
	<path fill="#FFA500" d="M91.68609,55.31836h0.79883v1.01953h-0.79883V55.31836z M91.74566,57.35645h0.68945v4.92773h-0.68945
		V57.35645z"/>
	<path fill="#FFA500" d="M93.84527,59.83594c0-1.2998,0.73047-2.55859,2.21973-2.55859c0.87891,0,1.6084,0.43945,1.99805,1.3584
		l-0.65918,0.26074c-0.22949-0.62988-0.71973-1.00977-1.33887-1.00977c-1.0498,0-1.51953,0.93945-1.51953,1.94922
		c0,1.00879,0.46973,1.91895,1.5293,1.91895c0.61914,0,1.10938-0.37012,1.29883-1l0.63965,0.24023
		c-0.33008,0.89941-1.04883,1.36914-1.93848,1.36914C94.64507,62.36426,93.84527,61.20508,93.84527,59.83594z"/>
	<path fill="#FFA500" d="M103.18316,60.00586h-3.60742c0.01953,1.0791,0.61914,1.72852,1.58887,1.72852
		c0.54004,0,0.96973-0.13965,1.41895-0.61914l0.48047,0.41895c-0.58008,0.61035-1.14941,0.83008-1.90918,0.83008
		c-1.49902,0-2.26855-1.11914-2.26855-2.51855c0-1.38965,0.75977-2.56836,2.18848-2.56836
		c1.50879,0,2.13867,1.17871,2.13867,2.29785C103.21343,59.71582,103.20367,59.88574,103.18316,60.00586z M99.57574,59.42578
		h2.97852c0-0.02051-0.01074-0.07031-0.01074-0.16016c-0.0498-0.7998-0.55957-1.40918-1.46875-1.40918
		C100.18511,57.85645,99.63531,58.55664,99.57574,59.42578z"/>
</g>
<g enable-background="new    ">
	<path d="M150.40387,10.06445h4.56738v0.65918h-3.85742v2.42871h3.46777v0.66016h-3.46777v2.55859h3.85742v0.65918h-4.56738
		V10.06445z"/>
	<path d="M155.96442,15.82129l0.5791-0.25977c0.17969,0.50977,0.66016,0.93945,1.42969,0.93945
		c0.66895,0,1.09961-0.33008,1.09961-0.84961c0-1.30957-2.83887-0.49023-2.83887-2.23926c0-0.85938,0.69922-1.38867,1.68945-1.38867
		c0.78906,0,1.42871,0.3291,1.76855,1.0293l-0.5498,0.2998c-0.23926-0.44043-0.62988-0.71973-1.23926-0.71973
		s-0.99902,0.25-0.99902,0.67969c0,1.16895,2.84766,0.42969,2.84766,2.29883c0,0.99902-0.81934,1.49902-1.76855,1.49902
		C157.01324,17.11035,156.22418,16.61035,155.96442,15.82129z"/>
	<path d="M160.69391,14.58203c0-1.2998,0.72949-2.55859,2.21875-2.55859c0.87988,0,1.60938,0.43945,1.99902,1.3584l-0.66016,0.26074
		c-0.22949-0.62988-0.71875-1.00977-1.33887-1.00977c-1.0498,0-1.51953,0.93945-1.51953,1.94922
		c0,1.00879,0.46973,1.91895,1.5293,1.91895c0.62012,0,1.10938-0.37012,1.2998-1l0.63965,0.24023
		c-0.33008,0.89941-1.0498,1.36914-1.93945,1.36914C161.49371,17.11035,160.69391,15.95117,160.69391,14.58203z"/>
	<path d="M169.94196,12.10254v4.92773h-0.68945v-0.70996c-0.35059,0.53027-0.97949,0.79004-1.62988,0.79004
		c-1.11914,0-1.6084-0.76953-1.6084-1.98926v-3.01855h0.68945v2.84863c0,0.7998,0.13965,1.5498,1.0791,1.5498
		c0.97949,0,1.46973-0.84961,1.46973-2.12891v-2.26953H169.94196z"/>
	<path d="M174.76227,12.2334l-0.33984,0.55957c-0.22949-0.10059-0.43945-0.15039-0.64941-0.15039
		c-0.75977,0-1.31934,0.56934-1.31934,1.63965v2.74805h-0.68945v-4.92773h0.68945v0.74023
		c0.35938-0.64941,0.95898-0.81934,1.45898-0.81934C174.21246,12.02344,174.49274,12.08301,174.76227,12.2334z"/>
	<path d="M174.95367,15.82129l0.58008-0.25977c0.17969,0.50977,0.65918,0.93945,1.42871,0.93945
		c0.66992,0,1.09961-0.33008,1.09961-0.84961c0-1.30957-2.83887-0.49023-2.83887-2.23926c0-0.85938,0.7002-1.38867,1.68945-1.38867
		c0.79004,0,1.42969,0.3291,1.76953,1.0293l-0.5498,0.2998c-0.24023-0.44043-0.62988-0.71973-1.23926-0.71973
		c-0.61035,0-1,0.25-1,0.67969c0,1.16895,2.84863,0.42969,2.84863,2.29883c0,0.99902-0.81934,1.49902-1.76953,1.49902
		C176.00348,17.11035,175.21344,16.61035,174.95367,15.82129z"/>
	<path d="M180.08356,10.06445h0.7998v1.01953h-0.7998V10.06445z M180.1441,12.10254h0.68945v4.92773h-0.68945V12.10254z"/>
	<path d="M182.22321,14.56152c0-1.45898,0.9502-2.53809,2.35938-2.53809c1.39941,0,2.36816,1.0791,2.36816,2.53809
		c0,1.44922-0.95898,2.54883-2.36816,2.54883S182.22321,16.02051,182.22321,14.56152z M186.26129,14.56152
		c0-1.11914-0.62988-1.92871-1.67871-1.92871c-1.05957,0-1.66895,0.81934-1.66895,1.92871
		c0,1.11914,0.61914,1.93945,1.66895,1.93945C185.64215,16.50098,186.26129,15.66113,186.26129,14.56152z"/>
	<path d="M192.27106,14.01172v3.01855h-0.68945v-2.84863c0-1.05957-0.33984-1.54883-1.0791-1.54883
		c-0.92969,0-1.46973,0.7998-1.46973,2.18848v2.20898h-0.68945v-4.92773h0.68945v0.71973
		c0.32031-0.49902,0.91992-0.79883,1.62891-0.79883C191.72125,12.02344,192.27106,12.70312,192.27106,14.01172z"/>
	<path d="M197.87067,14.75195h-3.60742c0.01953,1.0791,0.61914,1.72852,1.58887,1.72852c0.54004,0,0.96973-0.13965,1.41895-0.61914
		l0.48047,0.41895c-0.58008,0.61035-1.14941,0.83008-1.90918,0.83008c-1.49902,0-2.26855-1.11914-2.26855-2.51855
		c0-1.38965,0.75977-2.56836,2.18848-2.56836c1.50879,0,2.13867,1.17871,2.13867,2.29785
		C197.90094,14.46191,197.89117,14.63184,197.87067,14.75195z M194.26324,14.17188h2.97852
		c0-0.02051-0.01074-0.07031-0.01074-0.16016c-0.0498-0.7998-0.55957-1.40918-1.46875-1.40918
		C194.87262,12.60254,194.32281,13.30273,194.26324,14.17188z"/>
	<path d="M205.95074,14.01172v3.01855h-0.68945v-2.84863c0-1.05957-0.33984-1.54883-1.0791-1.54883
		c-0.92969,0-1.46973,0.7998-1.46973,2.18848v2.20898h-0.68945v-4.92773h0.68945v0.71973
		c0.32031-0.49902,0.91992-0.79883,1.62891-0.79883C205.40094,12.02344,205.95074,12.70312,205.95074,14.01172z"/>
	<path d="M211.32086,13.96191v3.06836h-0.62988l-0.04004-0.75977c-0.38965,0.5498-0.98926,0.83984-1.76855,0.83984
		c-1.06934,0-1.69922-0.55957-1.69922-1.50977c0-0.49902,0.2002-0.87891,0.55957-1.09863
		c0.37988-0.21973,0.91016-0.31055,1.87891-0.31055h1.00977v-0.22949c0-0.85938-0.4502-1.3291-1.2793-1.3291
		c-0.62012,0-1.09961,0.26953-1.49902,0.81934l-0.5-0.41992c0.5293-0.68945,1.16895-1.00879,2.00879-1.00879
		C210.60114,12.02344,211.32086,12.73242,211.32086,13.96191z M210.63141,14.82129v-0.06934h-0.94922
		c-0.91016,0-1.2998,0.05957-1.53906,0.24902c-0.18066,0.14062-0.27051,0.36035-0.27051,0.63965
		c0,0.5498,0.46973,0.90039,1.20996,0.90039C210.0318,16.54102,210.63141,15.87109,210.63141,14.82129z"/>
	<path d="M216.00153,12.2334l-0.33984,0.55957c-0.22949-0.10059-0.43945-0.15039-0.64941-0.15039
		c-0.75977,0-1.31934,0.56934-1.31934,1.63965v2.74805h-0.68945v-4.92773h0.68945v0.74023
		c0.35938-0.64941,0.95898-0.81934,1.45898-0.81934C215.45172,12.02344,215.73199,12.08301,216.00153,12.2334z"/>
	<path d="M220.02106,12.2334l-0.33984,0.55957c-0.22949-0.10059-0.43945-0.15039-0.64941-0.15039
		c-0.75977,0-1.31934,0.56934-1.31934,1.63965v2.74805h-0.68945v-4.92773h0.68945v0.74023
		c0.36035-0.64941,0.95996-0.81934,1.45898-0.81934C219.47125,12.02344,219.75153,12.08301,220.02106,12.2334z"/>
	<path d="M224.71051,13.96191v3.06836h-0.62988l-0.04004-0.75977c-0.38965,0.5498-0.98926,0.83984-1.76855,0.83984
		c-1.06934,0-1.69922-0.55957-1.69922-1.50977c0-0.49902,0.2002-0.87891,0.55957-1.09863
		c0.37988-0.21973,0.91016-0.31055,1.87891-0.31055h1.00977v-0.22949c0-0.85938-0.4502-1.3291-1.2793-1.3291
		c-0.62012,0-1.09961,0.26953-1.49902,0.81934l-0.5-0.41992c0.5293-0.68945,1.16895-1.00879,2.00879-1.00879
		C223.99078,12.02344,224.71051,12.73242,224.71051,13.96191z M224.02106,14.82129v-0.06934h-0.94922
		c-0.91016,0-1.2998,0.05957-1.53906,0.24902c-0.18066,0.14062-0.27051,0.36035-0.27051,0.63965
		c0,0.5498,0.46973,0.90039,1.20996,0.90039C223.42145,16.54102,224.02106,15.87109,224.02106,14.82129z"/>
	<path d="M228.44196,16.98047c-0.25977,0.08008-0.52051,0.12988-0.75,0.12988c-0.65918,0-1.13965-0.37012-1.13965-1.23926v-3.18848
		h-0.81934v-0.58008h0.81934v-1.37891l0.68945-0.51953v1.89844h1.18945v0.58008h-1.18945v3.09863
		c0,0.47949,0.2207,0.69922,0.61035,0.69922c0.16992,0,0.35938-0.04004,0.5791-0.10938L228.44196,16.98047z"/>
	<path d="M229.69293,10.06445h0.79883v1.01953h-0.79883V10.06445z M229.7525,12.10254h0.68945v4.92773h-0.68945V12.10254z"/>
	<path d="M231.55328,12.10254h0.75l1.54883,4.04785l1.55859-4.04785h0.75977l-2.01855,4.92773h-0.58984L231.55328,12.10254z"/>
	<path d="M240.90094,13.96191v3.06836h-0.62988l-0.04004-0.75977c-0.38965,0.5498-0.98926,0.83984-1.76953,0.83984
		c-1.06934,0-1.69824-0.55957-1.69824-1.50977c0-0.49902,0.19922-0.87891,0.55957-1.09863
		c0.37988-0.21973,0.90918-0.31055,1.87891-0.31055h1.00879v-0.22949c0-0.85938-0.44922-1.3291-1.2793-1.3291
		c-0.61914,0-1.09863,0.26953-1.49902,0.81934l-0.49902-0.41992c0.5293-0.68945,1.16895-1.00879,2.00879-1.00879
		C240.18121,12.02344,240.90094,12.73242,240.90094,13.96191z M240.21051,14.82129v-0.06934h-0.94922
		c-0.90918,0-1.29883,0.05957-1.53906,0.24902c-0.17969,0.14062-0.26953,0.36035-0.26953,0.63965
		c0,0.5498,0.46973,0.90039,1.20898,0.90039C239.6109,16.54102,240.21051,15.87109,240.21051,14.82129z"/>
</g>
<g enable-background="new    ">
	<path d="M150.47418,24.68262h-1.03955v-0.58008h1.04932v-0.75879c0-1.0498,0.60986-1.35938,1.23926-1.35938
		c0.26953,0,0.56934,0.05957,0.87988,0.18945l-0.24023,0.5498c-0.20996-0.09961-0.39941-0.16016-0.56934-0.16016
		c-0.39062,0-0.62988,0.27051-0.62988,0.72949v0.80957h1.41895v0.58008h-1.41895v4.34766h-0.68945V24.68262z"/>
	<path d="M156.66266,24.2334l-0.33984,0.55957c-0.22949-0.10059-0.43945-0.15039-0.64941-0.15039
		c-0.75977,0-1.31934,0.56934-1.31934,1.63965v2.74805h-0.68945v-4.92773h0.68945v0.74023
		c0.35938-0.64941,0.95898-0.81934,1.45898-0.81934C156.11285,24.02344,156.39313,24.08301,156.66266,24.2334z"/>
	<path d="M161.35211,25.96191v3.06836h-0.62988l-0.04004-0.75977c-0.38965,0.5498-0.98926,0.83984-1.76953,0.83984
		c-1.06934,0-1.69824-0.55957-1.69824-1.50977c0-0.49902,0.19922-0.87891,0.55957-1.09863
		c0.37988-0.21973,0.90918-0.31055,1.87891-0.31055h1.00879v-0.22949c0-0.85938-0.44922-1.3291-1.2793-1.3291
		c-0.61914,0-1.09863,0.26953-1.49902,0.81934l-0.49902-0.41992c0.5293-0.68945,1.16895-1.00879,2.00879-1.00879
		C160.63239,24.02344,161.35211,24.73242,161.35211,25.96191z M160.66168,26.82129v-0.06934h-0.94922
		c-0.90918,0-1.29883,0.05957-1.53906,0.24902c-0.17969,0.14062-0.26953,0.36035-0.26953,0.63965
		c0,0.5498,0.46973,0.90039,1.20898,0.90039C160.06207,28.54102,160.66168,27.87109,160.66168,26.82129z"/>
	<path d="M165.72418,27.96094v-5.89648h0.68945v5.85645c0,0.33984,0.12012,0.55957,0.44922,0.55957
		c0.15039,0,0.32031-0.04004,0.46973-0.08984l0.01074,0.58984c-0.20996,0.06934-0.45996,0.12988-0.67969,0.12988
		C166.09332,29.11035,165.72418,28.73047,165.72418,27.96094z"/>
	<path d="M172.13141,25.96191v3.06836h-0.62988l-0.04004-0.75977c-0.38965,0.5498-0.98926,0.83984-1.76855,0.83984
		c-1.06934,0-1.69922-0.55957-1.69922-1.50977c0-0.49902,0.2002-0.87891,0.55957-1.09863
		c0.37988-0.21973,0.91016-0.31055,1.87891-0.31055h1.00977v-0.22949c0-0.85938-0.4502-1.3291-1.2793-1.3291
		c-0.62012,0-1.09961,0.26953-1.49902,0.81934l-0.5-0.41992c0.5293-0.68945,1.16895-1.00879,2.00879-1.00879
		C171.41168,24.02344,172.13141,24.73242,172.13141,25.96191z M171.44196,26.82129v-0.06934h-0.94922
		c-0.91016,0-1.2998,0.05957-1.53906,0.24902c-0.18066,0.14062-0.27051,0.36035-0.27051,0.63965
		c0,0.5498,0.46973,0.90039,1.20996,0.90039C170.84235,28.54102,171.44196,27.87109,171.44196,26.82129z"/>
	<path d="M176.01422,27.82129l0.5791-0.25977c0.17969,0.50977,0.66016,0.93945,1.42969,0.93945
		c0.66895,0,1.09961-0.33008,1.09961-0.84961c0-1.30957-2.83887-0.49023-2.83887-2.23926c0-0.85938,0.69922-1.38867,1.68945-1.38867
		c0.78906,0,1.42871,0.3291,1.76855,1.0293l-0.5498,0.2998c-0.23926-0.44043-0.62988-0.71973-1.23926-0.71973
		s-0.99902,0.25-0.99902,0.67969c0,1.16895,2.84766,0.42969,2.84766,2.29883c0,0.99902-0.81934,1.49902-1.76855,1.49902
		C177.06305,29.11035,176.27399,28.61035,176.01422,27.82129z"/>
	<path d="M185.05133,26.75195h-3.6084c0.02051,1.0791,0.62012,1.72852,1.58984,1.72852c0.53906,0,0.96875-0.13965,1.41895-0.61914
		l0.47949,0.41895c-0.5791,0.61035-1.14941,0.83008-1.90918,0.83008c-1.49902,0-2.26855-1.11914-2.26855-2.51855
		c0-1.38965,0.75977-2.56836,2.18945-2.56836c1.50879,0,2.13867,1.17871,2.13867,2.29785
		C185.0816,26.46191,185.07086,26.63184,185.05133,26.75195z M181.44293,26.17188h2.97852
		c0-0.02051-0.00977-0.07031-0.00977-0.16016c-0.0498-0.7998-0.55957-1.40918-1.46875-1.40918
		C182.05328,24.60254,181.50348,25.30273,181.44293,26.17188z"/>
	<path d="M190.59137,24.10254v6.9668h-0.69043v-2.69824c-0.35938,0.45898-0.90918,0.73926-1.62891,0.73926
		c-1.43848,0-2.18848-1.0791-2.18848-2.54883c0-1.53906,0.81934-2.54883,2.18848-2.54883c0.7002,0,1.25977,0.27051,1.62891,0.75
		v-0.66016H190.59137z M189.96149,26.56152c0-1.16895-0.59961-1.93848-1.58887-1.93848c-1,0-1.59961,0.76953-1.59961,1.93848
		c0,1.11914,0.5498,1.93945,1.59961,1.93945C189.41168,28.50098,189.96149,27.68066,189.96149,26.56152z"/>
	<path d="M196.22125,24.10254v4.92773h-0.68945v-0.70996c-0.35059,0.53027-0.97949,0.79004-1.62988,0.79004
		c-1.11914,0-1.6084-0.76953-1.6084-1.98926v-3.01855h0.68945v2.84863c0,0.7998,0.13965,1.5498,1.0791,1.5498
		c0.97949,0,1.46973-0.84961,1.46973-2.12891v-2.26953H196.22125z"/>
	<path d="M201.89117,26.75195h-3.6084c0.02051,1.0791,0.62012,1.72852,1.58984,1.72852c0.53906,0,0.96875-0.13965,1.41895-0.61914
		l0.47949,0.41895c-0.5791,0.61035-1.14941,0.83008-1.90918,0.83008c-1.49902,0-2.26855-1.11914-2.26855-2.51855
		c0-1.38965,0.75977-2.56836,2.18945-2.56836c1.50879,0,2.13867,1.17871,2.13867,2.29785
		C201.92145,26.46191,201.91071,26.63184,201.89117,26.75195z M198.28278,26.17188h2.97852
		c0-0.02051-0.00977-0.07031-0.00977-0.16016c-0.0498-0.7998-0.55957-1.40918-1.46875-1.40918
		C198.89313,24.60254,198.34332,25.30273,198.28278,26.17188z"/>
	<path d="M207.24078,26.01172v3.01855h-0.68945v-2.84863c0-1.05957-0.33984-1.54883-1.0791-1.54883
		c-0.92969,0-1.46973,0.7998-1.46973,2.18848v2.20898h-0.68945v-4.92773h0.68945v0.71973
		c0.32031-0.49902,0.91992-0.79883,1.62891-0.79883C206.69098,24.02344,207.24078,24.70312,207.24078,26.01172z"/>
	<path d="M212.50153,24.65234l-3.20898,3.78809h3.18848v0.58984h-4.09766v-0.5l3.27832-3.83789h-3.1084v-0.58984h3.94824V24.65234z"
		/>
	<path d="M217.48102,25.96191v3.06836h-0.62988l-0.04004-0.75977c-0.38965,0.5498-0.98926,0.83984-1.76855,0.83984
		c-1.06934,0-1.69922-0.55957-1.69922-1.50977c0-0.49902,0.2002-0.87891,0.55957-1.09863
		c0.37988-0.21973,0.91016-0.31055,1.87891-0.31055h1.00977v-0.22949c0-0.85938-0.4502-1.3291-1.2793-1.3291
		c-0.62012,0-1.09961,0.26953-1.49902,0.81934l-0.5-0.41992c0.5293-0.68945,1.16895-1.00879,2.00879-1.00879
		C216.76129,24.02344,217.48102,24.73242,217.48102,25.96191z M216.79156,26.82129v-0.06934h-0.94922
		c-0.91016,0-1.2998,0.05957-1.53906,0.24902c-0.18066,0.14062-0.27051,0.36035-0.27051,0.63965
		c0,0.5498,0.46973,0.90039,1.20996,0.90039C216.19196,28.54102,216.79156,27.87109,216.79156,26.82129z"/>
	<path d="M226.40094,26.56152c0,1.46973-0.75,2.54883-2.18945,2.54883c-0.71875,0-1.26855-0.28027-1.62891-0.73926v2.69824h-0.68945
		v-6.9668h0.68945v0.66016c0.37012-0.47949,0.92969-0.75,1.62891-0.75C225.5816,24.0127,226.40094,25.02246,226.40094,26.56152z
		 M225.71149,26.56152c0-1.16895-0.59961-1.93848-1.59961-1.93848c-0.98926,0-1.58887,0.76953-1.58887,1.93848
		c0,1.11914,0.5498,1.93945,1.58887,1.93945C225.16168,28.50098,225.71149,27.68066,225.71149,26.56152z"/>
	<path d="M227.77301,22.06445h0.7998v1.01953h-0.7998V22.06445z M227.83356,24.10254h0.68945v4.92773h-0.68945V24.10254z"/>
	<path d="M234.15094,24.10254v4.92773h-0.68945v-0.70996c-0.35059,0.53027-0.97949,0.79004-1.62988,0.79004
		c-1.11914,0-1.6084-0.76953-1.6084-1.98926v-3.01855h0.68945v2.84863c0,0.7998,0.13965,1.5498,1.0791,1.5498
		c0.97949,0,1.46973-0.84961,1.46973-2.12891v-2.26953H234.15094z M231.91168,23.47363l-1.23926-1.40918h0.74023l1.03906,1.40918
		H231.91168z"/>
</g>
<g enable-background="new    ">
	<path d="M149.64459,39.82129l0.57959-0.25977c0.17969,0.50977,0.65967,0.93945,1.42871,0.93945
		c0.66992,0,1.09961-0.33008,1.09961-0.84961c0-1.30957-2.83838-0.49023-2.83838-2.23926c0-0.85938,0.69971-1.38867,1.68896-1.38867
		c0.79004,0,1.42969,0.3291,1.76953,1.0293l-0.5498,0.2998c-0.24023-0.44043-0.62988-0.71973-1.23926-0.71973
		c-0.60986,0-0.99951,0.25-0.99951,0.67969c0,1.16895,2.84814,0.42969,2.84814,2.29883c0,0.99902-0.81934,1.49902-1.76953,1.49902
		C150.69391,41.11035,149.90436,40.61035,149.64459,39.82129z"/>
	<path d="M156.88239,40.98047c-0.25977,0.08008-0.51953,0.12988-0.74902,0.12988c-0.66016,0-1.13965-0.37012-1.13965-1.23926
		v-3.18848h-0.81934v-0.58008h0.81934v-1.37891l0.68945-0.51953v1.89844h1.18945v0.58008h-1.18945v3.09863
		c0,0.47949,0.21973,0.69922,0.60938,0.69922c0.16992,0,0.36035-0.04004,0.58008-0.10938L156.88239,40.98047z"/>
	<path d="M161.86188,37.96191v3.06836h-0.62988l-0.04004-0.75977c-0.38965,0.5498-0.98926,0.83984-1.76855,0.83984
		c-1.06934,0-1.69922-0.55957-1.69922-1.50977c0-0.49902,0.2002-0.87891,0.55957-1.09863
		c0.37988-0.21973,0.91016-0.31055,1.87891-0.31055h1.00977v-0.22949c0-0.85938-0.4502-1.3291-1.2793-1.3291
		c-0.62012,0-1.09961,0.26953-1.49902,0.81934l-0.5-0.41992c0.5293-0.68945,1.16895-1.00879,2.00879-1.00879
		C161.14215,36.02344,161.86188,36.73242,161.86188,37.96191z M161.17242,38.82129v-0.06934h-0.94922
		c-0.91016,0-1.2998,0.05957-1.53906,0.24902c-0.18066,0.14062-0.27051,0.36035-0.27051,0.63965
		c0,0.5498,0.46973,0.90039,1.20996,0.90039C160.57281,40.54102,161.17242,39.87109,161.17242,38.82129z"/>
	<path d="M165.59235,40.98047c-0.25977,0.08008-0.51953,0.12988-0.74902,0.12988c-0.66016,0-1.13965-0.37012-1.13965-1.23926
		v-3.18848h-0.81934v-0.58008h0.81934v-1.37891l0.68945-0.51953v1.89844h1.18945v0.58008h-1.18945v3.09863
		c0,0.47949,0.21973,0.69922,0.60938,0.69922c0.16992,0,0.36035-0.04004,0.58008-0.10938L165.59235,40.98047z"/>
	<path d="M166.84332,34.06445h0.7998v1.01953h-0.7998V34.06445z M166.90387,36.10254h0.68945v4.92773h-0.68945V36.10254z"/>
	<path d="M169.00348,38.58203c0-1.2998,0.73047-2.55859,2.21875-2.55859c0.87988,0,1.60938,0.43945,1.99902,1.3584l-0.65918,0.26074
		c-0.22949-0.62988-0.71973-1.00977-1.33984-1.00977c-1.04883,0-1.51855,0.93945-1.51855,1.94922
		c0,1.00879,0.46973,1.91895,1.5293,1.91895c0.61914,0,1.10938-0.37012,1.29883-1l0.63965,0.24023
		c-0.33008,0.89941-1.04883,1.36914-1.93848,1.36914C169.80328,41.11035,169.00348,39.95117,169.00348,38.58203z"/>
	<path d="M178.11188,37.96191v3.06836h-0.62988l-0.04004-0.75977c-0.38965,0.5498-0.98926,0.83984-1.76953,0.83984
		c-1.06934,0-1.69824-0.55957-1.69824-1.50977c0-0.49902,0.19922-0.87891,0.55957-1.09863
		c0.37988-0.21973,0.90918-0.31055,1.87891-0.31055h1.00879v-0.22949c0-0.85938-0.44922-1.3291-1.2793-1.3291
		c-0.61914,0-1.09863,0.26953-1.49902,0.81934l-0.49902-0.41992c0.5293-0.68945,1.16895-1.00879,2.00879-1.00879
		C177.39215,36.02344,178.11188,36.73242,178.11188,37.96191z M177.42145,38.82129v-0.06934h-0.94922
		c-0.90918,0-1.29883,0.05957-1.53906,0.24902c-0.17969,0.14062-0.26953,0.36035-0.26953,0.63965
		c0,0.5498,0.46973,0.90039,1.20898,0.90039C176.82184,40.54102,177.42145,39.87109,177.42145,38.82129z"/>
	<path d="M186.42145,38.75195h-3.6084c0.02051,1.0791,0.62012,1.72852,1.58984,1.72852c0.53906,0,0.96875-0.13965,1.41895-0.61914
		l0.47949,0.41895c-0.5791,0.61035-1.14941,0.83008-1.90918,0.83008c-1.49902,0-2.26855-1.11914-2.26855-2.51855
		c0-1.38965,0.75977-2.56836,2.18945-2.56836c1.50879,0,2.13867,1.17871,2.13867,2.29785
		C186.45172,38.46191,186.44098,38.63184,186.42145,38.75195z M182.81305,38.17188h2.97852
		c0-0.02051-0.00977-0.07031-0.00977-0.16016c-0.0498-0.7998-0.55957-1.40918-1.46875-1.40918
		C183.4234,36.60254,182.8736,37.30273,182.81305,38.17188z"/>
	<path d="M190.53375,39.96094v-5.89648h0.68945v5.85645c0,0.33984,0.12012,0.55957,0.44922,0.55957
		c0.15039,0,0.32031-0.04004,0.46973-0.08984l0.01074,0.58984c-0.20996,0.06934-0.45996,0.12988-0.67969,0.12988
		C190.90289,41.11035,190.53375,40.73047,190.53375,39.96094z"/>
	<path d="M196.94196,37.96191v3.06836h-0.62988l-0.04004-0.75977c-0.38965,0.5498-0.98926,0.83984-1.76953,0.83984
		c-1.06934,0-1.69824-0.55957-1.69824-1.50977c0-0.49902,0.19922-0.87891,0.55957-1.09863
		c0.37988-0.21973,0.90918-0.31055,1.87891-0.31055h1.00879v-0.22949c0-0.85938-0.44922-1.3291-1.2793-1.3291
		c-0.61914,0-1.09863,0.26953-1.49902,0.81934l-0.49902-0.41992c0.5293-0.68945,1.16895-1.00879,2.00879-1.00879
		C196.22223,36.02344,196.94196,36.73242,196.94196,37.96191z M196.25153,38.82129v-0.06934h-0.94922
		c-0.90918,0-1.29883,0.05957-1.53906,0.24902c-0.17969,0.14062-0.26953,0.36035-0.26953,0.63965
		c0,0.5498,0.46973,0.90039,1.20898,0.90039C195.65192,40.54102,196.25153,39.87109,196.25153,38.82129z"/>
	<path d="M200.82379,39.82129l0.5791-0.25977c0.17969,0.50977,0.66016,0.93945,1.42969,0.93945
		c0.66895,0,1.09961-0.33008,1.09961-0.84961c0-1.30957-2.83887-0.49023-2.83887-2.23926c0-0.85938,0.69922-1.38867,1.68945-1.38867
		c0.78906,0,1.42871,0.3291,1.76855,1.0293l-0.5498,0.2998c-0.23926-0.44043-0.62988-0.71973-1.23926-0.71973
		s-0.99902,0.25-0.99902,0.67969c0,1.16895,2.84766,0.42969,2.84766,2.29883c0,0.99902-0.81934,1.49902-1.76855,1.49902
		C201.87262,41.11035,201.08356,40.61035,200.82379,39.82129z"/>
	<path d="M209.8609,38.75195h-3.6084c0.02051,1.0791,0.62012,1.72852,1.58984,1.72852c0.53906,0,0.96875-0.13965,1.41895-0.61914
		l0.47949,0.41895c-0.5791,0.61035-1.14941,0.83008-1.90918,0.83008c-1.49902,0-2.26855-1.11914-2.26855-2.51855
		c0-1.38965,0.75977-2.56836,2.18945-2.56836c1.50879,0,2.13867,1.17871,2.13867,2.29785
		C209.89117,38.46191,209.88043,38.63184,209.8609,38.75195z M206.2525,38.17188h2.97852c0-0.02051-0.00977-0.07031-0.00977-0.16016
		c-0.0498-0.7998-0.55957-1.40918-1.46875-1.40918C206.86285,36.60254,206.31305,37.30273,206.2525,38.17188z"/>
	<path d="M215.40094,36.10254v6.9668h-0.68945v-2.69824c-0.35938,0.45898-0.90918,0.73926-1.62891,0.73926
		c-1.43945,0-2.18945-1.0791-2.18945-2.54883c0-1.53906,0.82031-2.54883,2.18945-2.54883c0.69922,0,1.25879,0.27051,1.62891,0.75
		v-0.66016H215.40094z M214.77106,38.56152c0-1.16895-0.59961-1.93848-1.58887-1.93848c-0.99902,0-1.59863,0.76953-1.59863,1.93848
		c0,1.11914,0.54883,1.93945,1.59863,1.93945C214.22125,40.50098,214.77106,39.68066,214.77106,38.56152z"/>
	<path d="M221.03082,36.10254v4.92773h-0.68945v-0.70996c-0.34961,0.53027-0.97949,0.79004-1.62891,0.79004
		c-1.11914,0-1.60938-0.76953-1.60938-1.98926v-3.01855h0.68945v2.84863c0,0.7998,0.14062,1.5498,1.08008,1.5498
		c0.97949,0,1.46875-0.84961,1.46875-2.12891v-2.26953H221.03082z"/>
	<path d="M226.70074,38.75195h-3.6084c0.02051,1.0791,0.62012,1.72852,1.58984,1.72852c0.53906,0,0.96875-0.13965,1.41895-0.61914
		l0.47949,0.41895c-0.5791,0.61035-1.14941,0.83008-1.90918,0.83008c-1.49902,0-2.26855-1.11914-2.26855-2.51855
		c0-1.38965,0.75977-2.56836,2.18945-2.56836c1.50879,0,2.13867,1.17871,2.13867,2.29785
		C226.73102,38.46191,226.72028,38.63184,226.70074,38.75195z M223.09235,38.17188h2.97852
		c0-0.02051-0.00977-0.07031-0.00977-0.16016c-0.0498-0.7998-0.55957-1.40918-1.46875-1.40918
		C223.7027,36.60254,223.15289,37.30273,223.09235,38.17188z"/>
	<path d="M232.05133,38.01172v3.01855h-0.68945v-2.84863c0-1.05957-0.33984-1.54883-1.08008-1.54883
		c-0.92969,0-1.46875,0.7998-1.46875,2.18848v2.20898h-0.68945v-4.92773h0.68945v0.71973
		c0.31934-0.49902,0.91895-0.79883,1.62891-0.79883C231.50153,36.02344,232.05133,36.70312,232.05133,38.01172z"/>
	<path d="M237.3111,36.65234l-3.20801,3.78809h3.18848v0.58984h-4.09863v-0.5l3.27832-3.83789h-3.1084v-0.58984h3.94824V36.65234z"
		/>
	<path d="M242.29059,37.96191v3.06836h-0.62988l-0.04004-0.75977c-0.38965,0.5498-0.98926,0.83984-1.76855,0.83984
		c-1.06934,0-1.69922-0.55957-1.69922-1.50977c0-0.49902,0.2002-0.87891,0.55957-1.09863
		c0.37988-0.21973,0.91016-0.31055,1.87891-0.31055h1.00977v-0.22949c0-0.85938-0.4502-1.3291-1.2793-1.3291
		c-0.62012,0-1.09961,0.26953-1.49902,0.81934l-0.5-0.41992c0.5293-0.68945,1.16895-1.00879,2.00879-1.00879
		C241.57086,36.02344,242.29059,36.73242,242.29059,37.96191z M241.60114,38.82129v-0.06934h-0.94922
		c-0.91016,0-1.2998,0.05957-1.53906,0.24902c-0.18066,0.14062-0.27051,0.36035-0.27051,0.63965
		c0,0.5498,0.46973,0.90039,1.20996,0.90039C241.00153,40.54102,241.60114,39.87109,241.60114,38.82129z"/>
</g>
<g enable-background="new    ">
	<path d="M154.68121,50.56152c0,1.46973-0.74902,2.54883-2.18848,2.54883c-0.71973,0-1.26904-0.28027-1.62891-0.73926v2.69824
		h-0.68945v-6.9668h0.68945v0.66016c0.36963-0.47949,0.92969-0.75,1.62891-0.75
		C153.86188,48.0127,154.68121,49.02246,154.68121,50.56152z M153.99176,50.56152c0-1.16895-0.59961-1.93848-1.59863-1.93848
		c-0.99023,0-1.58936,0.76953-1.58936,1.93848c0,1.11914,0.54932,1.93945,1.58936,1.93945
		C153.44196,52.50098,153.99176,51.68066,153.99176,50.56152z"/>
	<path d="M156.05426,46.06445h0.79883v1.01953h-0.79883V46.06445z M156.11383,48.10254h0.68945v4.92773h-0.68945V48.10254z"/>
	<path d="M162.43121,48.10254v4.92773h-0.68945v-0.70996c-0.34961,0.53027-0.97949,0.79004-1.62891,0.79004
		c-1.11914,0-1.60938-0.76953-1.60938-1.98926v-3.01855h0.68945v2.84863c0,0.7998,0.14062,1.5498,1.08008,1.5498
		c0.97949,0,1.46875-0.84961,1.46875-2.12891v-2.26953H162.43121z M160.19293,47.47363l-1.23926-1.40918h0.73926l1.04004,1.40918
		H160.19293z"/>
	<path d="M171.10114,46.06445v6.96582h-0.68945v-0.65918c-0.35938,0.45898-0.90918,0.73926-1.62891,0.73926
		c-1.43945,0-2.18945-1.0791-2.18945-2.54883c0-1.53906,0.82031-2.54883,2.18945-2.54883c0.69922,0,1.25879,0.27051,1.62891,0.75
		v-2.69824H171.10114z M170.47125,50.56152c0-1.16895-0.59961-1.93848-1.58887-1.93848c-0.99902,0-1.59863,0.76953-1.59863,1.93848
		c0,1.11914,0.54883,1.93945,1.59863,1.93945C169.92145,52.50098,170.47125,51.68066,170.47125,50.56152z"/>
	<path d="M172.86383,46.06445h0.79883v1.01953h-0.79883V46.06445z M172.9234,48.10254h0.68945v4.92773h-0.68945V48.10254z"/>
	<path d="M179.36188,50.01172v3.01855h-0.68945v-2.84863c0-1.05957-0.33984-1.54883-1.08008-1.54883
		c-0.92969,0-1.46875,0.7998-1.46875,2.18848v2.20898h-0.68945v-4.92773h0.68945v0.71973
		c0.31934-0.49902,0.91895-0.79883,1.62891-0.79883C178.81207,48.02344,179.36188,48.70312,179.36188,50.01172z"/>
	<path d="M184.73199,49.96191v3.06836h-0.62988l-0.04004-0.75977c-0.38965,0.5498-0.98926,0.83984-1.76953,0.83984
		c-1.06934,0-1.69824-0.55957-1.69824-1.50977c0-0.49902,0.19922-0.87891,0.55957-1.09863
		c0.37988-0.21973,0.90918-0.31055,1.87891-0.31055h1.00879v-0.22949c0-0.85938-0.44922-1.3291-1.2793-1.3291
		c-0.61914,0-1.09863,0.26953-1.49902,0.81934l-0.49902-0.41992c0.5293-0.68945,1.16895-1.00879,2.00879-1.00879
		C184.01227,48.02344,184.73199,48.73242,184.73199,49.96191z M184.04156,50.82129v-0.06934h-0.94922
		c-0.90918,0-1.29883,0.05957-1.53906,0.24902c-0.17969,0.14062-0.26953,0.36035-0.26953,0.63965
		c0,0.5498,0.46973,0.90039,1.20898,0.90039C183.44196,52.54102,184.04156,51.87109,184.04156,50.82129z"/>
	<path d="M193.16949,49.95215v3.07812h-0.68945V50.1416c0-0.41992,0-1.50879-1.0791-1.50879c-1,0-1.26953,0.91895-1.26953,2.02832
		v2.36914h-0.68945v-2.84863c0-0.81934-0.25-1.54883-1.10938-1.54883c-0.95996,0-1.22949,0.90918-1.22949,2.02832v2.36914h-0.68945
		l-0.01074-4.92773h0.66992v0.60059c0.30957-0.49023,0.80957-0.67969,1.35938-0.67969c0.68945,0,1.19922,0.2998,1.44922,0.94922
		c0.31934-0.62988,0.86914-0.94922,1.61914-0.94922C192.68024,48.02344,193.16949,48.80273,193.16949,49.95215z"/>
	<path d="M194.81305,46.06445h0.7998v1.01953h-0.7998V46.06445z M194.8736,48.10254h0.68945v4.92773h-0.68945V48.10254z"/>
	<path d="M196.97321,50.58203c0-1.2998,0.72949-2.55859,2.21875-2.55859c0.87988,0,1.60938,0.43945,1.99902,1.3584l-0.66016,0.26074
		c-0.22949-0.62988-0.71875-1.00977-1.33887-1.00977c-1.0498,0-1.51953,0.93945-1.51953,1.94922
		c0,1.00879,0.46973,1.91895,1.5293,1.91895c0.62012,0,1.10938-0.37012,1.2998-1l0.63965,0.24023
		c-0.33008,0.89941-1.0498,1.36914-1.93945,1.36914C197.77301,53.11035,196.97321,51.95117,196.97321,50.58203z"/>
	<path d="M206.0816,49.96191v3.06836h-0.62988l-0.04004-0.75977c-0.38965,0.5498-0.98926,0.83984-1.76953,0.83984
		c-1.06934,0-1.69824-0.55957-1.69824-1.50977c0-0.49902,0.19922-0.87891,0.55957-1.09863
		c0.37988-0.21973,0.90918-0.31055,1.87891-0.31055h1.00879v-0.22949c0-0.85938-0.44922-1.3291-1.2793-1.3291
		c-0.61914,0-1.09863,0.26953-1.49902,0.81934l-0.49902-0.41992c0.5293-0.68945,1.16895-1.00879,2.00879-1.00879
		C205.36188,48.02344,206.0816,48.73242,206.0816,49.96191z M205.39117,50.82129v-0.06934h-0.94922
		c-0.90918,0-1.29883,0.05957-1.53906,0.24902c-0.17969,0.14062-0.26953,0.36035-0.26953,0.63965
		c0,0.5498,0.46973,0.90039,1.20898,0.90039C204.79156,52.54102,205.39117,51.87109,205.39117,50.82129z"/>
</g>
</svg>
