<svg xmlns="http://www.w3.org/2000/svg" xmlns:xlink="http://www.w3.org/1999/xlink" width="600" height="652" viewBox="0 0 600 652">
  <defs>
    <clipPath id="clip-zoom_04">
      <rect width="600" height="652"/>
    </clipPath>
  </defs>
  <g id="zoom_04" clip-path="url(#clip-zoom_04)">
    <text id="Cryptical_references_to_a_possible_betrayal_" data-name="Cryptical references 
to a possible betrayal
" transform="translate(1.581 11)" font-size="10" font-family="HKGrotesk-Regular, HK Grotesk"><tspan x="0" y="0">Cryptical references </tspan><tspan x="0" y="12">to a possible betrayal</tspan><tspan x="0" y="24"></tspan></text>
    <text id="Explicit_representation_of_betrayal:_two_women_on_the_scene" data-name="Explicit representation 
of betrayal: two 
women on the scene" transform="translate(208.719 11)" font-size="10" font-family="HKGrotesk-Regular, HK Grotesk"><tspan x="0" y="0">Explicit representation </tspan><tspan x="0" y="12">of betrayal: two </tspan><tspan x="0" y="24">women on the scene</tspan></text>
    <text id="Betrayal_with_Lotaria:_Ludmilla_s_sister_double_multiplication_of_female_identities_endless_women_on_the_scene." data-name="Betrayal with Lotaria: 
Ludmilla’s sister/double, 
multiplication of female 
identities, endless women 
on the scene." transform="translate(325.719 11)" font-size="10" font-family="HKGrotesk-Regular, HK Grotesk"><tspan x="0" y="0">Betrayal with Lotaria: </tspan><tspan x="0" y="12">Ludmilla’s sister/double, </tspan><tspan x="0" y="24">multiplication of female </tspan><tspan x="0" y="36">identities, endless women </tspan><tspan x="0" y="48">on the scene.</tspan></text>
    <text id="Double_erotic_falure:_two_women_on_the_scene_doubling_and_loss_of_identity." data-name="Double erotic falure: 
two women on the scene, 
doubling and loss 
of identity." transform="translate(474.801 11)" font-size="10" font-family="HKGrotesk-Regular, HK Grotesk"><tspan x="0" y="0">Double erotic falure: </tspan><tspan x="0" y="12">two women on the scene, </tspan><tspan x="0" y="24">doubling and loss </tspan><tspan x="0" y="36">of identity.</tspan></text>
    <text id="Revelation_of_betrayal" data-name="Revelation of betrayal" transform="translate(107 1)" font-size="10" font-family="HKGrotesk-Regular, HK Grotesk"><tspan x="0" y="10">Revelation of </tspan><tspan x="0" y="22">betrayal</tspan></text>
    <g id="Raggruppa_4810" data-name="Raggruppa 4810" transform="translate(0 -39)">
      <g id="tradimento" transform="translate(-51 -2997)">
        <g id="Raggruppa_565" data-name="Raggruppa 565" transform="translate(0 81)">
          <g id="stripes" transform="translate(39.281 2145.258)">
            <rect id="Rettangolo_204" data-name="Rettangolo 204" width="60.104" height="436.515" transform="translate(14.849 948.089)" fill="#ccc" opacity="0.2"/>
            <rect id="Rettangolo_205" data-name="Rettangolo 205" width="44.54" height="436.515" transform="translate(119.786 948.089)" fill="#ccc" opacity="0.2"/>
            <rect id="Rettangolo_206" data-name="Rettangolo 206" width="79.725" height="436.515" transform="translate(226.116 948.089)" fill="#ccc" opacity="0.2"/>
            <rect id="Rettangolo_207" data-name="Rettangolo 207" width="90.711" height="436.322" transform="translate(486.834 948.287)" fill="#ccc" opacity="0.2"/>
            <line id="Linea_221" data-name="Linea 221" y2="436.515" transform="translate(14.596 948.089)" fill="none" stroke="#5151fc" stroke-miterlimit="10" stroke-width="0.133" stroke-dasharray="1.944"/>
            <line id="Linea_222" data-name="Linea 222" y2="436.515" transform="translate(74.995 948.338)" fill="none" stroke="#5151fc" stroke-miterlimit="10" stroke-width="0.133" stroke-dasharray="1.944"/>
            <line id="Linea_223" data-name="Linea 223" y2="436.515" transform="translate(119.951 948.338)" fill="none" stroke="#5151fc" stroke-miterlimit="10" stroke-width="0.133" stroke-dasharray="1.944"/>
            <line id="Linea_224" data-name="Linea 224" y2="436.515" transform="translate(164.263 948.338)" fill="none" stroke="#5151fc" stroke-miterlimit="10" stroke-width="0.133" stroke-dasharray="1.944"/>
            <line id="Linea_225" data-name="Linea 225" y2="436.515" transform="translate(226.227 948.338)" fill="none" stroke="#5151fc" stroke-miterlimit="10" stroke-width="0.133" stroke-dasharray="1.944"/>
            <line id="Linea_226" data-name="Linea 226" y2="436.515" transform="translate(305.908 948.338)" fill="none" stroke="#5151fc" stroke-miterlimit="10" stroke-width="0.133" stroke-dasharray="1.944"/>
            <line id="Linea_227" data-name="Linea 227" y2="426.87" transform="translate(487.329 957.982)" fill="none" stroke="#5151fc" stroke-miterlimit="10" stroke-width="0.132" stroke-dasharray="1.922"/>
            <line id="Linea_228" data-name="Linea 228" y2="426.87" transform="translate(577.509 957.982)" fill="none" stroke="#5151fc" stroke-miterlimit="10" stroke-width="0.132" stroke-dasharray="1.922"/>
          </g>
          <g id="separate" transform="translate(38.281 2144.258)">
            <g id="Raggruppa_473" data-name="Raggruppa 473" opacity="0.41">
              <path id="Tracciato_1393" data-name="Tracciato 1393" d="M14.159,1383.827c3.251,0,6.5-108.587,9.754-151.423" fill="none" stroke="#7f7f7f" stroke-width="0.5"/>
              <path id="Tracciato_1394" data-name="Tracciato 1394" d="M23.913,1232.4c1.984-26.14,3.968-69.888,5.952-69.888" fill="none" stroke="#7f7f7f" stroke-width="0.5"/>
              <path id="Tracciato_1395" data-name="Tracciato 1395" d="M29.865,1162.516c1.934,0,3.867,69.888,5.8,69.888" fill="none" stroke="#7f7f7f" stroke-width="0.5"/>
              <path id="Tracciato_1396" data-name="Tracciato 1396" d="M35.665,1232.4c1.485,0,2.969-40.653,4.453-58.24" fill="none" stroke="#7f7f7f" stroke-width="0.5"/>
              <path id="Tracciato_1397" data-name="Tracciato 1397" d="M40.118,1174.164c1.459-17.3,2.919-35.219,4.378-46.592" fill="none" stroke="#7f7f7f" stroke-width="0.5"/>
              <path id="Tracciato_1398" data-name="Tracciato 1398" d="M44.5,1127.572c1.916-14.926,3.831-23.3,5.746-23.3" fill="none" stroke="#7f7f7f" stroke-width="0.5"/>
              <path id="Tracciato_1399" data-name="Tracciato 1399" d="M50.242,1104.276c1.337,0,2.674,139.776,4.01,139.776" fill="none" stroke="#7f7f7f" stroke-width="0.5"/>
              <path id="Tracciato_1400" data-name="Tracciato 1400" d="M54.252,1244.052c1.235,0,2.469-221.312,3.7-221.312" fill="none" stroke="#7f7f7f" stroke-width="0.5"/>
              <path id="Tracciato_1401" data-name="Tracciato 1401" d="M57.955,1022.74c1.309,0,2.618,221.312,3.927,221.312" fill="none" stroke="#7f7f7f" stroke-width="0.5"/>
              <path id="Tracciato_1402" data-name="Tracciato 1402" d="M61.882,1244.052q1.829,0,3.657-104.832" fill="none" stroke="#7f7f7f" stroke-width="0.5"/>
              <path id="Tracciato_1403" data-name="Tracciato 1403" d="M65.539,1139.22c.535-30.7,1.071-116.48,1.606-116.48" fill="none" stroke="#7f7f7f" stroke-width="0.5"/>
            </g>
            <g id="Raggruppa_474" data-name="Raggruppa 474" opacity="0.4">
              <path id="Tracciato_1404" data-name="Tracciato 1404" d="M164.192,1024.9c1.239,0-1.979,219.029-.74,219.029" fill="none" stroke="#7f7f7f" stroke-width="0.662"/>
              <path id="Tracciato_1405" data-name="Tracciato 1405" d="M119.908,1266.891c3.2,39.261,6.409,116.479,9.614,116.479" fill="none" stroke="#7f7f7f" stroke-width="0.662"/>
              <path id="Tracciato_1406" data-name="Tracciato 1406" d="M129.522,1383.37c2.436,0,4.873-209.663,7.309-209.663" fill="none" stroke="#7f7f7f" stroke-width="0.662"/>
              <path id="Tracciato_1407" data-name="Tracciato 1407" d="M136.831,1173.707c1.979,0,3.958,209.663,5.937,209.663" fill="none" stroke="#7f7f7f" stroke-width="0.662"/>
              <path id="Tracciato_1408" data-name="Tracciato 1408" d="M142.768,1383.37c1.03,0,2.059-209.663,3.089-209.663" fill="none" stroke="#7f7f7f" stroke-width="0.662"/>
              <path id="Tracciato_1409" data-name="Tracciato 1409" d="M145.857,1173.707c1.519,0,3.039,209.663,4.558,209.663" fill="none" stroke="#7f7f7f" stroke-width="0.662"/>
              <path id="Tracciato_1410" data-name="Tracciato 1410" d="M150.415,1383.37c1.194,0,2.388-209.663,3.582-209.663" fill="none" stroke="#7f7f7f" stroke-width="0.662"/>
              <path id="Tracciato_1411" data-name="Tracciato 1411" d="M154,1173.707c.465,0,.931,11.648,1.4,11.648" fill="none" stroke="#7f7f7f" stroke-width="0.662"/>
              <path id="Tracciato_1412" data-name="Tracciato 1412" d="M155.393,1185.355q1.357,0,2.715-11.648" fill="none" stroke="#7f7f7f" stroke-width="0.662"/>
              <path id="Tracciato_1413" data-name="Tracciato 1413" d="M158.108,1173.707c1.024-8.791,2.048-58.24,3.073-58.24" fill="none" stroke="#7f7f7f" stroke-width="0.662"/>
              <path id="Tracciato_1414" data-name="Tracciato 1414" d="M161.181,1115.467c.731,0,1.462,128.128,2.193,128.128" fill="none" stroke="#7f7f7f" stroke-width="0.662"/>
            </g>
            <g id="Raggruppa_475" data-name="Raggruppa 475">
              <path id="Tracciato_1415" data-name="Tracciato 1415" d="M486.886,1236.969c2.053,0,2.973-188.171,5.026-230.711" fill="none" stroke="#7f7f7f" stroke-width="0.7" opacity="0.4"/>
              <path id="Tracciato_1416" data-name="Tracciato 1416" d="M491.912,1006.258q2.81-58.239,5.62-58.239" fill="none" stroke="#7f7f7f" stroke-width="0.7" opacity="0.4"/>
              <path id="Tracciato_1417" data-name="Tracciato 1417" d="M497.532,948.019c.9,0,2.419,90.741,3.323,90.741" fill="none" stroke="#7f7f7f" stroke-width="0.7" opacity="0.4"/>
              <path id="Tracciato_1418" data-name="Tracciato 1418" d="M500.855,1038.908c1.566,0,2.522-55.945,4.088-55.945" fill="none" stroke="#7f7f7f" stroke-width="0.7" opacity="0.4"/>
              <path id="Tracciato_1419" data-name="Tracciato 1419" d="M504.943,982.963c3.016,0,6.1,132.378,9.119,132.378" fill="none" stroke="#7f7f7f" stroke-width="0.7" opacity="0.4"/>
              <path id="Tracciato_1420" data-name="Tracciato 1420" d="M514.062,1115.341c3.01,0,5.949-92.134,8.959-92.134" fill="none" stroke="#7f7f7f" stroke-width="0.7" opacity="0.4"/>
              <path id="Tracciato_1421" data-name="Tracciato 1421" d="M523.021,1023.207c2.127,0,4.255,274.251,6.383,274.251" fill="none" stroke="#7f7f7f" stroke-width="0.7" opacity="0.4"/>
              <path id="Tracciato_1422" data-name="Tracciato 1422" d="M529.4,1297.458c1.817,0,3.634-274.251,5.452-274.251" fill="none" stroke="#7f7f7f" stroke-width="0.7" opacity="0.4"/>
              <path id="Tracciato_1423" data-name="Tracciato 1423" d="M534.856,1023.207c.667,0,1.433,46.912,2.1,46.912" fill="none" stroke="#7f7f7f" stroke-width="0.7" opacity="0.4"/>
              <path id="Tracciato_1424" data-name="Tracciato 1424" d="M536.957,1070.119c1.842,0,3.586-87.156,5.429-87.156" fill="none" stroke="#7f7f7f" stroke-width="0.7" opacity="0.4"/>
              <path id="Tracciato_1425" data-name="Tracciato 1425" d="M542.386,982.963q4.319,0,8.638,58.239" fill="none" stroke="#7f7f7f" stroke-width="0.7" opacity="0.4"/>
              <path id="Tracciato_1426" data-name="Tracciato 1426" d="M551.024,1041.2c1.922,25.917,3.843,256.256,5.765,256.256" fill="none" stroke="#7f7f7f" stroke-width="0.7" opacity="0.4"/>
              <path id="Tracciato_1427" data-name="Tracciato 1427" d="M556.789,1297.458c.987,0,1.974-274.251,2.961-274.251" fill="none" stroke="#7f7f7f" stroke-width="0.7" opacity="0.4"/>
              <path id="Tracciato_1428" data-name="Tracciato 1428" d="M559.75,1023.207c.5,0,1.1,46.912,1.6,46.912" fill="none" stroke="#7f7f7f" stroke-width="0.7" opacity="0.4"/>
              <path id="Tracciato_1429" data-name="Tracciato 1429" d="M561.355,1070.119c.64,0,1.182-64.63,1.822-87.156" fill="none" stroke="#7f7f7f" stroke-width="0.7" opacity="0.4"/>
              <path id="Tracciato_1430" data-name="Tracciato 1430" d="M563.177,982.963c.421-14.823.843-23.3,1.264-23.3" fill="none" stroke="#7f7f7f" stroke-width="0.7" opacity="0.4"/>
              <path id="Tracciato_1431" data-name="Tracciato 1431" d="M564.441,959.667c1.944,0,3.889,337.791,5.833,337.791" fill="none" stroke="#7f7f7f" stroke-width="0.7" opacity="0.4"/>
              <path id="Tracciato_1432" data-name="Tracciato 1432" d="M570.274,1297.458c2.413,0,4.7-153.344,7.109-274.285" fill="none" stroke="#7f7f7f" stroke-width="0.7" opacity="0.4"/>
            </g>
            <g id="Raggruppa_477" data-name="Raggruppa 477" opacity="0.4">
              <g id="Raggruppa_476" data-name="Raggruppa 476">
                <path id="Tracciato_1433" data-name="Tracciato 1433" d="M306.352,1070.049c1.911,0,28.492,45.009,30.4,45.009" fill="none" stroke="#7f7f7f" stroke-width="0.681" stroke-dasharray="2"/>
                <path id="Tracciato_1434" data-name="Tracciato 1434" d="M336.755,1115.058c1.674,0,3.5-132.85,5.173-132.85" fill="none" stroke="#7f7f7f" stroke-width="0.681"/>
                <path id="Tracciato_1435" data-name="Tracciato 1435" d="M341.928,982.208c1.458,0,2.916,25.951,4.374,55.485" fill="none" stroke="#7f7f7f" stroke-width="0.681"/>
                <path id="Tracciato_1436" data-name="Tracciato 1436" d="M346.3,1037.693c1.132,22.935,2.265,67.33,3.4,88.776" fill="none" stroke="#7f7f7f" stroke-width="0.681"/>
                <path id="Tracciato_1437" data-name="Tracciato 1437" d="M349.7,1126.469c4.3,81.378,8.594,82.283,12.891,122.068" fill="none" stroke="#7f7f7f" stroke-width="0.681"/>
                <path id="Tracciato_1438" data-name="Tracciato 1438" d="M362.59,1248.537c4.922,45.575,9.844,133.164,14.766,133.164" fill="none" stroke="#7f7f7f" stroke-width="0.681"/>
                <path id="Tracciato_1439" data-name="Tracciato 1439" d="M377.356,1381.7c1.854,0,3.708-300.172,5.562-332.911" fill="none" stroke="#7f7f7f" stroke-width="0.681"/>
                <path id="Tracciato_1440" data-name="Tracciato 1440" d="M382.918,1048.79q2.512-44.388,5.026-44.388" fill="none" stroke="#7f7f7f" stroke-width="0.681"/>
                <path id="Tracciato_1441" data-name="Tracciato 1441" d="M387.944,1004.4q2.5,0,5,33.291" fill="none" stroke="#7f7f7f" stroke-width="0.681"/>
                <path id="Tracciato_1442" data-name="Tracciato 1442" d="M392.947,1037.693c1.223,16.27,2.445,344.008,3.668,344.008" fill="none" stroke="#7f7f7f" stroke-width="0.681"/>
                <path id="Tracciato_1443" data-name="Tracciato 1443" d="M396.615,1381.7c1.191,0,2.381-399.493,3.572-399.493" fill="none" stroke="#7f7f7f" stroke-width="0.681"/>
                <path id="Tracciato_1444" data-name="Tracciato 1444" d="M400.187,982.208c1.321,0,2.643,53.762,3.964,110.97" fill="none" stroke="#7f7f7f" stroke-width="0.681"/>
                <path id="Tracciato_1445" data-name="Tracciato 1445" d="M404.151,1093.178c1.566,67.787,3.132,288.523,4.7,288.523" fill="none" stroke="#7f7f7f" stroke-width="0.681"/>
                <path id="Tracciato_1446" data-name="Tracciato 1446" d="M408.849,1381.7c1.522,0,3.044-121.4,4.566-166.456" fill="none" stroke="#7f7f7f" stroke-width="0.681"/>
                <path id="Tracciato_1447" data-name="Tracciato 1447" d="M413.415,1215.245c1.23-36.4,2.565-99.954,3.795-99.954" fill="none" stroke="#7f7f7f" stroke-width="0.681"/>
                <path id="Tracciato_1448" data-name="Tracciato 1448" d="M417.21,1115.291c1.045,0,69.307,121.163,70.352,121.163" fill="none" stroke="#7f7f7f" stroke-width="0.681" stroke-dasharray="2"/>
              </g>
            </g>
            <g id="Raggruppa_479" data-name="Raggruppa 479">
              <path id="Tracciato_1449" data-name="Tracciato 1449" d="M270.786,1023.6c1.014,0,1.987,122.78,3,122.78" fill="none" stroke="#7f7f7f" stroke-width="0.7" opacity="0.4"/>
              <g id="Raggruppa_478" data-name="Raggruppa 478" opacity="0.4">
                <path id="Tracciato_1450" data-name="Tracciato 1450" d="M225.994,996.665c2.273,0,4.545,2.515,6.818,26.932" fill="none" stroke="#7f7f7f" stroke-width="0.7"/>
                <path id="Tracciato_1451" data-name="Tracciato 1451" d="M232.812,1023.6c1.5,16.091,3,341.852,4.493,341.852" fill="none" stroke="#7f7f7f" stroke-width="0.7"/>
                <path id="Tracciato_1452" data-name="Tracciato 1452" d="M237.3,1365.449q2.46,0,4.92-48.836" fill="none" stroke="#7f7f7f" stroke-width="0.7"/>
                <path id="Tracciato_1453" data-name="Tracciato 1453" d="M242.225,1316.613c1.094-21.714,2.188-319.948,3.281-319.948" fill="none" stroke="#7f7f7f" stroke-width="0.7"/>
                <path id="Tracciato_1454" data-name="Tracciato 1454" d="M245.506,996.665c.791,0,2.084,241.767,2.874,247.811" fill="none" stroke="#7f7f7f" stroke-width="0.7"/>
                <path id="Tracciato_1455" data-name="Tracciato 1455" d="M248.1,1244.476c2.129,16.279,4.042,35.51,6.172,35.51" fill="none" stroke="#7f7f7f" stroke-width="0.7"/>
                <path id="Tracciato_1456" data-name="Tracciato 1456" d="M254.267,1279.986q3.879,0,7.758-36.627" fill="none" stroke="#7f7f7f" stroke-width="0.7"/>
                <path id="Tracciato_1457" data-name="Tracciato 1457" d="M262.025,1243.359c1.3-12.26,2.6-97.672,3.9-97.672" fill="none" stroke="#7f7f7f" stroke-width="0.7"/>
                <path id="Tracciato_1458" data-name="Tracciato 1458" d="M265.92,1145.687c.68,0,1.359,183.135,2.038,183.135" fill="none" stroke="#7f7f7f" stroke-width="0.7"/>
                <path id="Tracciato_1459" data-name="Tracciato 1459" d="M267.958,1328.822c.942,0,1.885-305.225,2.828-305.225" fill="none" stroke="#7f7f7f" stroke-width="0.7"/>
                <path id="Tracciato_1460" data-name="Tracciato 1460" d="M273.787,1146.377c.787,0,1.616-122.78,2.4-122.78" fill="none" stroke="#7f7f7f" stroke-width="0.7"/>
                <path id="Tracciato_1461" data-name="Tracciato 1461" d="M276.19,1023.6c3.293,0,6.63,47.168,9.923,47.168" fill="none" stroke="#7f7f7f" stroke-width="0.7"/>
                <path id="Tracciato_1462" data-name="Tracciato 1462" d="M286.113,1070.765c3.8,0,7.561-111.04,11.364-111.04" fill="none" stroke="#7f7f7f" stroke-width="0.7"/>
                <path id="Tracciato_1463" data-name="Tracciato 1463" d="M297.477,959.725c1.3,0,2.841,277.291,4.141,277.291" fill="none" stroke="#7f7f7f" stroke-width="0.7"/>
                <path id="Tracciato_1464" data-name="Tracciato 1464" d="M301.665,1236.969c1.418,0,2.469-165.373,3.887-165.373" fill="none" stroke="#7f7f7f" stroke-width="0.7"/>
              </g>
            </g>
          </g>
          <g id="etichhette" transform="translate(38.281 2144.258)">
            <g id="Raggruppa_487" data-name="Raggruppa 487">
              <text id="phone_call" data-name="phone call" transform="translate(55.515 1094.316) rotate(-51.389)" font-size="7" font-family="HKGrotesk-Regular, HK Grotesk"><tspan x="0" y="0">phone call</tspan></text>
            </g>
            <g id="Raggruppa_488" data-name="Raggruppa 488">
              <text id="female_encounter" data-name="female encounter" transform="translate(164.15 1014.633) rotate(-51.389)" font-size="7" font-family="HKGrotesk-Regular, HK Grotesk"><tspan x="0" y="0">female encounter</tspan></text>
            </g>
            <g id="Raggruppa_489" data-name="Raggruppa 489">
              <text id="erotic_scene" data-name="erotic scene" transform="translate(285.816 1062.338) rotate(-51.389)" font-size="7" font-family="HKGrotesk-Regular, HK Grotesk"><tspan x="0" y="0">erotic scene</tspan></text>
              <text id="erotic_scene-2" data-name="erotic scene" transform="translate(306.816 1062.338) rotate(-51.389)" font-size="7" font-family="HKGrotesk-Regular, HK Grotesk"><tspan x="0" y="0">erotic scene</tspan></text>
              <text id="erotic_scene-3" data-name="erotic scene" transform="translate(405.816 1062.338) rotate(-51.389)" font-size="7" font-family="HKGrotesk-Regular, HK Grotesk"><tspan x="0" y="0">erotic scene</tspan></text>
              <text id="situation" transform="translate(241.587 1360.815) rotate(-51.389)" font-size="6" font-family="HKGrotesk-Regular, HK Grotesk"><tspan x="0" y="0">situation</tspan></text>
              <text id="wait" transform="translate(243.192 1341.503) rotate(-51.389)" font-size="6" font-family="HKGrotesk-Regular, HK Grotesk"><tspan x="0" y="0">wait</tspan></text>
            </g>
            <g id="Raggruppa_491" data-name="Raggruppa 491">
              <g id="Raggruppa_490" data-name="Raggruppa 490">
                <text id="anguish_disappointment" data-name="anguish/disappointment" transform="translate(490.948 1231.721) rotate(-51.389)" font-size="6" font-family="HKGrotesk-Regular, HK Grotesk"><tspan x="0" y="0">anguish/disappointment</tspan></text>
                <text id="mystery_absurdity" data-name="mystery/absurdity" transform="translate(529.609 1291.731) rotate(-51.389)" font-size="6" font-family="HKGrotesk-Regular, HK Grotesk"><tspan x="0" y="0">mystery/absurdity</tspan></text>
                <text id="revelation" transform="translate(570.406 955.247) rotate(-51.389)" fill="#5151fc" font-size="6" font-family="HKGrotesk-Regular, HK Grotesk"><tspan x="0" y="0">revelation</tspan></text>
                <text id="erotic_scene-4" data-name="erotic scene" transform="translate(561.325 1062.259) rotate(-51.389)" font-size="7" font-family="HKGrotesk-Regular, HK Grotesk"><tspan x="0" y="0">erotic scene</tspan></text>
                <text id="erotic_scene-5" data-name="erotic scene" transform="translate(536.925 1062.259) rotate(-51.389)" font-size="7" font-family="HKGrotesk-Regular, HK Grotesk"><tspan x="0" y="0">erotic scene</tspan></text>
              </g>
            </g>
            <line id="Linea_230" data-name="Linea 230" y2="457.528" transform="translate(210.793 926.775)" fill="#5151fc"/>
            <line id="Linea_231" data-name="Linea 231" y2="453.801" transform="translate(467.6 929.571)" fill="#5151fc"/>
          </g>
          <g id="pallini" transform="translate(38.281 2144.258)">
            <circle id="Ellisse_164" data-name="Ellisse 164" cx="1.078" cy="1.078" r="1.078" transform="translate(56.831 1021.957)"/>
            <circle id="Ellisse_165" data-name="Ellisse 165" cx="1.078" cy="1.078" r="1.078" transform="translate(48.854 1103.143)"/>
            <circle id="Ellisse_166" data-name="Ellisse 166" cx="1.078" cy="1.078" r="1.078" transform="translate(64.875 1103.047)"/>
            <circle id="Ellisse_167" data-name="Ellisse 167" cx="1.078" cy="1.078" r="1.078" transform="translate(43.683 1125.662)"/>
            <circle id="Ellisse_168" data-name="Ellisse 168" cx="1.078" cy="1.078" r="1.078" transform="translate(34.299 1231.015)"/>
            <circle id="Ellisse_169" data-name="Ellisse 169" cx="1.078" cy="1.078" r="1.078" transform="translate(22.849 1231.015)"/>
            <circle id="Ellisse_170" data-name="Ellisse 170" cx="1.078" cy="1.078" r="1.078" transform="translate(13.236 1382.248)"/>
            <circle id="Ellisse_171" data-name="Ellisse 171" cx="1.078" cy="1.078" r="1.078" transform="translate(53.214 1242.092)"/>
            <circle id="Ellisse_172" data-name="Ellisse 172" cx="1.078" cy="1.078" r="1.078" transform="translate(60.824 1242.092)"/>
            <circle id="Ellisse_173" data-name="Ellisse 173" cx="1.078" cy="1.078" r="1.078" transform="translate(28.657 1161.716)"/>
            <circle id="Ellisse_174" data-name="Ellisse 174" cx="1.078" cy="1.078" r="1.078" transform="translate(38.977 1173.363)"/>
            <circle id="Ellisse_175" data-name="Ellisse 175" cx="1.078" cy="1.078" r="1.078" transform="translate(64.498 1132.694)"/>
            <circle id="Ellisse_176" data-name="Ellisse 176" cx="1.078" cy="1.078" r="1.078" transform="translate(66.071 1021.957)"/>
            <circle id="Ellisse_177" data-name="Ellisse 177" cx="1.078" cy="1.078" r="1.078" transform="translate(231.73 1022.413)"/>
            <circle id="Ellisse_178" data-name="Ellisse 178" cx="1.078" cy="1.078" r="1.078" transform="translate(224.834 995.75)"/>
            <circle id="Ellisse_179" data-name="Ellisse 179" cx="1.078" cy="1.078" r="1.078" transform="translate(244.161 995.75)"/>
            <circle id="Ellisse_180" data-name="Ellisse 180" cx="1.078" cy="1.078" r="1.078" transform="translate(269.769 1022.164)"/>
            <circle id="Ellisse_181" data-name="Ellisse 181" cx="1.078" cy="1.078" r="1.078" transform="translate(275.416 1021.93)"/>
            <circle id="Ellisse_182" data-name="Ellisse 182" cx="1.078" cy="1.078" r="1.078" transform="translate(118.944 1266.124)"/>
            <circle id="Ellisse_183" data-name="Ellisse 183" cx="1.078" cy="1.078" r="1.078" transform="translate(236.541 1363.34)"/>
            <circle id="Ellisse_184" data-name="Ellisse 184" cx="1.078" cy="1.078" r="1.078" transform="translate(247.201 1243.177)"/>
            <circle id="Ellisse_185" data-name="Ellisse 185" cx="1.078" cy="1.078" r="1.078" transform="translate(253.261 1278.592)"/>
            <circle id="Ellisse_186" data-name="Ellisse 186" cx="1.078" cy="1.078" r="1.078" transform="translate(162.444 1242.46)"/>
            <circle id="Ellisse_187" data-name="Ellisse 187" cx="1.078" cy="1.078" r="1.078" transform="translate(300.522 1235.687)"/>
            <circle id="Ellisse_188" data-name="Ellisse 188" cx="1.078" cy="1.078" r="1.078" transform="translate(261.647 1235.554)"/>
            <circle id="Ellisse_189" data-name="Ellisse 189" cx="1.078" cy="1.078" r="1.078" transform="translate(128.415 1381.824)"/>
            <circle id="Ellisse_190" data-name="Ellisse 190" cx="1.078" cy="1.078" r="1.078" transform="translate(141.575 1382.155)"/>
            <circle id="Ellisse_191" data-name="Ellisse 191" cx="1.078" cy="1.078" r="1.078" transform="translate(149.424 1382.155)"/>
            <circle id="Ellisse_192" data-name="Ellisse 192" cx="1.078" cy="1.078" r="1.078" transform="translate(152.698 1173.048)"/>
            <circle id="Ellisse_193" data-name="Ellisse 193" cx="1.078" cy="1.078" r="1.078" transform="translate(156.853 1173.053)"/>
            <circle id="Ellisse_194" data-name="Ellisse 194" cx="1.078" cy="1.078" r="1.078" transform="translate(160.191 1114.474)"/>
            <circle id="Ellisse_195" data-name="Ellisse 195" cx="1.078" cy="1.078" r="1.078" transform="translate(264.644 1144.738)"/>
            <circle id="Ellisse_196" data-name="Ellisse 196" cx="1.078" cy="1.078" r="1.078" transform="translate(272.852 1145.058)"/>
            <circle id="Ellisse_197" data-name="Ellisse 197" cx="1.078" cy="1.078" r="1.078" transform="translate(285.091 1069.328)"/>
            <circle id="Ellisse_198" data-name="Ellisse 198" cx="1.078" cy="1.078" r="1.078" transform="translate(304.469 1070.443)"/>
            <circle id="Ellisse_200" data-name="Ellisse 200" cx="1.078" cy="1.078" r="1.078" transform="translate(154.404 1183.916)"/>
            <circle id="Ellisse_201" data-name="Ellisse 201" cx="1.078" cy="1.078" r="1.078" transform="translate(144.737 1173.048)"/>
            <circle id="Ellisse_202" data-name="Ellisse 202" cx="1.078" cy="1.078" r="1.078" transform="translate(135.864 1173.048)"/>
            <circle id="Ellisse_203" data-name="Ellisse 203" cx="1.078" cy="1.078" r="1.078" transform="translate(296.262 958.844)"/>
            <circle id="Ellisse_204" data-name="Ellisse 204" cx="1.078" cy="1.078" r="1.078" transform="translate(239.489 1342.78)"/>
            <circle id="Ellisse_205" data-name="Ellisse 205" cx="1.078" cy="1.078" r="1.078" transform="translate(267.019 1329.155)"/>
            <circle id="Ellisse_206" data-name="Ellisse 206" cx="1.078" cy="1.078" r="1.078" transform="translate(235.406 1323.456)"/>
            <circle id="Ellisse_207" data-name="Ellisse 207" cx="1.078" cy="1.078" r="1.078" transform="translate(485.96 1235.307)"/>
            <circle id="Ellisse_208" data-name="Ellisse 208" cx="1.078" cy="1.078" r="1.078" transform="translate(528.414 1295.887)"/>
            <circle id="Ellisse_209" data-name="Ellisse 209" cx="1.078" cy="1.078" r="1.078" transform="translate(555.823 1295.887)"/>
            <circle id="Ellisse_210" data-name="Ellisse 210" cx="1.078" cy="1.078" r="1.078" transform="translate(569.31 1295.887)"/>
            <circle id="Ellisse_211" data-name="Ellisse 211" cx="1.078" cy="1.078" r="1.078" transform="translate(490.745 1006.691)"/>
            <circle id="Ellisse_212" data-name="Ellisse 212" cx="1.078" cy="1.078" r="1.078" transform="translate(522.116 1022.059)"/>
            <circle id="Ellisse_213" data-name="Ellisse 213" cx="1.078" cy="1.078" r="1.078" transform="translate(499.752 1037.573)"/>
            <circle id="Ellisse_214" data-name="Ellisse 214" cx="1.078" cy="1.078" r="1.078" transform="translate(576.485 1021.677)"/>
            <circle id="Ellisse_215" data-name="Ellisse 215" cx="1.078" cy="1.078" r="1.078" transform="translate(533.763 1022.059)"/>
            <circle id="Ellisse_216" data-name="Ellisse 216" cx="1.078" cy="1.078" r="1.078" transform="translate(535.891 1068.622)"/>
            <circle id="Ellisse_217" data-name="Ellisse 217" cx="1.078" cy="1.078" r="1.078" transform="translate(512.982 1114.459)"/>
            <circle id="Ellisse_218" data-name="Ellisse 218" cx="1.078" cy="1.078" r="1.078" transform="translate(560.318 1068.622)"/>
            <circle id="Ellisse_219" data-name="Ellisse 219" cx="1.078" cy="1.078" r="1.078" transform="translate(558.894 1022.059)"/>
            <circle id="Ellisse_220" data-name="Ellisse 220" cx="1.078" cy="1.078" r="1.078" transform="translate(496.371 947.309)"/>
            <circle id="Ellisse_221" data-name="Ellisse 221" cx="1.078" cy="1.078" r="1.078" transform="translate(503.88 982.095)"/>
            <circle id="Ellisse_222" data-name="Ellisse 222" cx="1.078" cy="1.078" r="1.078" transform="translate(541.319 982.095)"/>
            <circle id="Ellisse_223" data-name="Ellisse 223" cx="1.078" cy="1.078" r="1.078" transform="translate(563.425 958.598)"/>
            <circle id="Ellisse_224" data-name="Ellisse 224" cx="1.078" cy="1.078" r="1.078" transform="translate(562.196 981.609)"/>
            <circle id="Ellisse_225" data-name="Ellisse 225" cx="1.078" cy="1.078" r="1.078" transform="translate(341.067 981.63)"/>
            <circle id="Ellisse_226" data-name="Ellisse 226" cx="1.078" cy="1.078" r="1.078" transform="translate(398.959 981.907)"/>
            <circle id="Ellisse_227" data-name="Ellisse 227" cx="1.078" cy="1.078" r="1.078" transform="translate(335.754 1114.361)"/>
            <circle id="Ellisse_229" data-name="Ellisse 229" cx="1.078" cy="1.078" r="1.078" transform="translate(344.537 1022.222)"/>
            <circle id="Ellisse_230" data-name="Ellisse 230" cx="1.078" cy="1.078" r="1.078" transform="translate(390.532 1022.066)"/>
            <circle id="Ellisse_231" data-name="Ellisse 231" cx="1.078" cy="1.078" r="1.078" transform="translate(386.924 1003.661)"/>
            <circle id="Ellisse_232" data-name="Ellisse 232" cx="1.078" cy="1.078" r="1.078" transform="translate(382.003 1037.378)"/>
            <circle id="Ellisse_233" data-name="Ellisse 233" cx="1.078" cy="1.078" r="1.078" transform="translate(402.203 1065.493)"/>
            <circle id="Ellisse_234" data-name="Ellisse 234" cx="1.078" cy="1.078" r="1.078" transform="translate(348.52 1114.007)"/>
            <circle id="Ellisse_235" data-name="Ellisse 235" cx="1.078" cy="1.078" r="1.078" transform="translate(416.009 1114.459)"/>
            <circle id="Ellisse_237" data-name="Ellisse 237" cx="1.078" cy="1.078" r="1.078" transform="translate(360.919 1243.48)"/>
            <circle id="Ellisse_238" data-name="Ellisse 238" cx="1.078" cy="1.078" r="1.078" transform="translate(376.097 1380.142)"/>
            <circle id="Ellisse_239" data-name="Ellisse 239" cx="1.078" cy="1.078" r="1.078" transform="translate(395.534 1380.142)"/>
            <circle id="Ellisse_240" data-name="Ellisse 240" cx="1.078" cy="1.078" r="1.078" transform="translate(407.687 1380.142)"/>
            <circle id="Ellisse_241" data-name="Ellisse 241" cx="1.078" cy="1.078" r="1.078" transform="translate(412.384 1213.111)"/>
            <circle id="Ellisse_333" data-name="Ellisse 333" cx="1.668" cy="1.668" r="1.668" transform="translate(12.956 1381.699)" stroke="#7f7f7f" stroke-miterlimit="10" stroke-width="1"/>
          </g>
          <circle id="Ellisse_286" data-name="Ellisse 286" cx="5.331" cy="5.331" r="5.331" transform="translate(82.96 3242.917)" fill="#fff" stroke="#5151fc" stroke-miterlimit="10" stroke-width="0.204"/>
          <circle id="Ellisse_287" data-name="Ellisse 287" cx="2.149" cy="2.149" r="2.149" transform="translate(86.142 3246.099)" fill="#5151fc"/>
          <g id="Raggruppa_568" data-name="Raggruppa 568" transform="translate(0 54)">
            <path id="Tracciato_1847" data-name="Tracciato 1847" d="M12.563,1390v4.763h62.52v-4.639" transform="translate(38.281 2095.258)" fill="none" stroke="#5151fc" stroke-miterlimit="10" stroke-width="0.5"/>
            <path id="Tracciato_1848" data-name="Tracciato 1848" d="M119.749,1390v4.763h44.424v-4.738" transform="translate(38.281 2095.258)" fill="none" stroke="#5151fc" stroke-miterlimit="10" stroke-width="0.5"/>
            <path id="Tracciato_1849" data-name="Tracciato 1849" d="M226.826,1390v4.763H305.9v-4.738" transform="translate(38.281 2095.258)" fill="none" stroke="#5151fc" stroke-miterlimit="10" stroke-width="0.5"/>
            <path id="Tracciato_1850" data-name="Tracciato 1850" d="M487.426,1390v4.763l90.007.074-.242-4.812" transform="translate(38.281 2095.258)" fill="none" stroke="#5151fc" stroke-miterlimit="10" stroke-width="0.5"/>
            <path id="Tracciato_1851" data-name="Tracciato 1851" d="M39.468,1394.555c0,28.745,102.5,29.83,102.5,0" transform="translate(38.281 2095.258)" fill="none" stroke="#5151fc" stroke-miterlimit="10" stroke-width="0.5"/>
            <path id="Tracciato_1852" data-name="Tracciato 1852" d="M142.336,1394.555c0,28.745,126.974,29.83,126.974,0" transform="translate(38.281 2095.258)" fill="none" stroke="#5151fc" stroke-miterlimit="10" stroke-width="0.5"/>
            <path id="Tracciato_1853" data-name="Tracciato 1853" d="M268.682,1394.555c0,28.745,113.383,29.83,113.383,0" transform="translate(38.281 2095.258)" fill="none" stroke="#5151fc" stroke-miterlimit="10" stroke-width="0.5"/>
            <path id="Tracciato_1854" data-name="Tracciato 1854" d="M382.065,1394.565c0,28.745,152.9,29.82,152.9-.01" transform="translate(38.281 2095.258)" fill="none" stroke="#5151fc" stroke-miterlimit="10" stroke-width="0.5"/>
          </g>
          <circle id="Ellisse_288" data-name="Ellisse 288" cx="5.331" cy="5.331" r="5.331" transform="translate(319.142 3209.267)" fill="#fff" stroke="#5151fc" stroke-miterlimit="10" stroke-width="0.204"/>
          <circle id="Ellisse_289" data-name="Ellisse 289" cx="2.149" cy="2.149" r="2.149" transform="translate(322.325 3212.449)" fill="#5151fc"/>
          <circle id="Ellisse_290" data-name="Ellisse 290" cx="5.331" cy="5.331" r="5.331" transform="translate(338.63 3209.267)" fill="#fff" stroke="#5151fc" stroke-miterlimit="10" stroke-width="0.204"/>
          <circle id="Ellisse_291" data-name="Ellisse 291" cx="2.149" cy="2.149" r="2.149" transform="translate(341.813 3212.449)" fill="#5151fc"/>
          <circle id="Ellisse_292" data-name="Ellisse 292" cx="5.331" cy="5.331" r="5.331" transform="translate(436.064 3209.267)" fill="#fff" stroke="#5151fc" stroke-miterlimit="10" stroke-width="0.204"/>
          <circle id="Ellisse_293" data-name="Ellisse 293" cx="2.149" cy="2.149" r="2.149" transform="translate(439.247 3212.449)" fill="#5151fc"/>
          <circle id="Ellisse_294" data-name="Ellisse 294" cx="5.331" cy="5.331" r="5.331" transform="translate(569.892 3209.267)" fill="#fff" stroke="#5151fc" stroke-miterlimit="10" stroke-width="0.204"/>
          <circle id="Ellisse_295" data-name="Ellisse 295" cx="2.149" cy="2.149" r="2.149" transform="translate(573.074 3212.449)" fill="#5151fc"/>
          <circle id="Ellisse_296" data-name="Ellisse 296" cx="5.331" cy="5.331" r="5.331" transform="translate(594.256 3209.267)" fill="#fff" stroke="#5151fc" stroke-miterlimit="10" stroke-width="0.204"/>
          <circle id="Ellisse_297" data-name="Ellisse 297" cx="2.149" cy="2.149" r="2.149" transform="translate(597.439 3212.449)" fill="#5151fc"/>
          <circle id="Ellisse_300" data-name="Ellisse 300" cx="5.331" cy="5.331" r="5.331" transform="translate(597.45 3098.688)" fill="#fff" stroke="#5151fc" stroke-miterlimit="10" stroke-width="0.204"/>
          <circle id="Ellisse_301" data-name="Ellisse 301" cx="2.149" cy="2.149" r="2.149" transform="translate(600.633 3101.87)" fill="#5151fc"/>
          <g id="Raggruppa_4805" data-name="Raggruppa 4805">
            <circle id="Ellisse_318" data-name="Ellisse 318" cx="5.331" cy="5.331" r="5.331" transform="translate(88.96 3242.917)" fill="#fff" stroke="#5151fc" stroke-miterlimit="10" stroke-width="0.204"/>
            <circle id="Ellisse_319" data-name="Ellisse 319" cx="2.149" cy="2.149" r="2.149" transform="translate(92.142 3246.099)" fill="#5151fc"/>
          </g>
          <circle id="Ellisse_331" data-name="Ellisse 331" cx="1.668" cy="1.668" r="1.668" transform="translate(156.237 3409.958)" stroke="#7f7f7f" stroke-miterlimit="10" stroke-width="1"/>
          <circle id="Ellisse_332" data-name="Ellisse 332" cx="1.668" cy="1.668" r="1.668" transform="translate(201.237 3167.958)" stroke="#7f7f7f" stroke-miterlimit="10" stroke-width="1"/>
          <g id="Raggruppa_4806" data-name="Raggruppa 4806" transform="translate(2 -81)">
            <circle id="Ellisse_318-2" data-name="Ellisse 318" cx="5.331" cy="5.331" r="5.331" transform="translate(88.96 3242.917)" fill="#fff" stroke="#5151fc" stroke-miterlimit="10" stroke-width="0.204"/>
            <circle id="Ellisse_319-2" data-name="Ellisse 319" cx="2.149" cy="2.149" r="2.149" transform="translate(92.142 3246.099)" fill="#5151fc"/>
          </g>
          <g id="Raggruppa_4807" data-name="Raggruppa 4807" transform="translate(11 -81)">
            <circle id="Ellisse_318-3" data-name="Ellisse 318" cx="5.331" cy="5.331" r="5.331" transform="translate(88.96 3242.917)" fill="#fff" stroke="#5151fc" stroke-miterlimit="10" stroke-width="0.204"/>
            <circle id="Ellisse_319-3" data-name="Ellisse 319" cx="2.149" cy="2.149" r="2.149" transform="translate(92.142 3246.099)" fill="#5151fc"/>
          </g>
        </g>
        <g id="Raggruppa_4804" data-name="Raggruppa 4804" transform="translate(0 31)">
          <text id="i6" transform="translate(53.266 3135.504)" font-size="10" font-family="HKGrotesk-Regular, HK Grotesk"><tspan x="0" y="0">i6</tspan></text>
          <text id="i7" transform="translate(157.853 3135.503)" font-size="10" font-family="HKGrotesk-Regular, HK Grotesk"><tspan x="0" y="0">i7</tspan></text>
          <text id="i8" transform="translate(264.4 3135.503)" font-size="10" font-family="HKGrotesk-Regular, HK Grotesk"><tspan x="0" y="0">i8</tspan></text>
          <text id="i9" transform="translate(524.832 3135.503)" font-size="10" font-family="HKGrotesk-Regular, HK Grotesk"><tspan x="0" y="0">i9</tspan></text>
          <text id="t8" transform="translate(376.543 3135.503)" font-size="10" font-family="HKGrotesk-Regular, HK Grotesk"><tspan x="0" y="0">t8</tspan></text>
        </g>
      </g>
      <text id="female_encounter-2" data-name="female encounter" transform="translate(49.432 242.891) rotate(-51.389)" font-size="7" font-family="HKGrotesk-Regular, HK Grotesk"><tspan x="0" y="0">female encounter</tspan></text>
      <g id="Raggruppa_4808" data-name="Raggruppa 4808" transform="translate(57 -2997)">
        <circle id="Ellisse_318-4" data-name="Ellisse 318" cx="5.331" cy="5.331" r="5.331" transform="translate(88.96 3242.917)" fill="#fff" stroke="#5151fc" stroke-miterlimit="10" stroke-width="0.204"/>
        <circle id="Ellisse_319-4" data-name="Ellisse 319" cx="2.149" cy="2.149" r="2.149" transform="translate(92.142 3246.099)" fill="#5151fc"/>
      </g>
      <rect id="Rettangolo_13541" data-name="Rettangolo 13541" width="37.246" height="10.988" rx="3" transform="translate(398.977 293.426)" fill="#fff" stroke="#5151fc" stroke-miterlimit="10" stroke-width="0.223"/>
      <g id="Raggruppa_4809" data-name="Raggruppa 4809" transform="translate(398.977 293.426)">
        <text id="LOTARIA" transform="translate(1.293 8.676)" fill="#5151fc" font-size="8.5" font-family="HKGrotesk-SemiBold, HK Grotesk" font-weight="600"><tspan x="0" y="0">LOTARIA</tspan></text>
      </g>
      <g id="tensione_erotica" data-name="tensione erotica" transform="translate(-52 -1921)">
        <text id="Structure_of_the_betrayal" data-name="Structure of the betrayal" transform="translate(53.086 2598)" fill="#5151fc" font-size="10" font-family="HKGrotesk-Regular, HK Grotesk"><tspan x="0" y="10">Structure of the betrayal</tspan></text>
      </g>
      <g id="tensione_erotica-2" data-name="tensione erotica" transform="translate(346 -1854)">
        <text id="Betrayal_with_another_woman" data-name="Betrayal with 
another woman" transform="translate(53.086 2161)" fill="#5151fc" font-size="10" font-family="HKGrotesk-Italic, HK Grotesk" font-style="italic"><tspan x="0" y="10">Betrayal with </tspan><tspan x="0" y="22">another woman</tspan></text>
      </g>
    </g>
  </g>
</svg>
