<svg xmlns="http://www.w3.org/2000/svg" xmlns:xlink="http://www.w3.org/1999/xlink" width="210" height="70" viewBox="0 0 210 70">
  <defs>
    <clipPath id="clip-trama_b_forma_en">
      <rect width="210" height="70"/>
    </clipPath>
  </defs>
  <g id="trama_b_forma_en" clip-path="url(#clip-trama_b_forma_en)">
    <rect id="Rectangle_9623" data-name="Rectangle 9623" width="11" height="11" transform="translate(2.278 6)" fill="#fff"/>
    <rect id="Rectangle_9624" data-name="Rectangle 9624" width="10.5" height="10.5" transform="translate(2.528 6.25)" fill="none" stroke="#000" stroke-width="0.5"/>
    <path id="Path_149479" data-name="Path 149479" d="M3.457-4.141a2.179,2.179,0,0,0,.957-.171.985.985,0,0,0,.537-.967.932.932,0,0,0-.571-.947,2.568,2.568,0,0,0-.957-.137H1.689v2.222ZM3.784-.83a1.478,1.478,0,0,0,1.274-.518A1.3,1.3,0,0,0,5.3-2.139,1.052,1.052,0,0,0,4.6-3.2a2.643,2.643,0,0,0-.981-.151H1.689V-.83ZM.737-7.173H3.818a2.043,2.043,0,0,1,1.792.752A1.738,1.738,0,0,1,5.923-5.4a1.615,1.615,0,0,1-.386,1.113,1.885,1.885,0,0,1-.576.42,2.438,2.438,0,0,1,.825.474A1.719,1.719,0,0,1,6.27-2.095,2,2,0,0,1,5.835-.84,2.447,2.447,0,0,1,3.77,0H.737ZM9.492-5.347a2.385,2.385,0,0,1,1.079.261,1.99,1.99,0,0,1,.8.676,2.333,2.333,0,0,1,.352.923A6.038,6.038,0,0,1,11.8-2.334H7.964A2.237,2.237,0,0,0,8.34-1.057a1.259,1.259,0,0,0,1.089.481,1.408,1.408,0,0,0,1.1-.454,1.531,1.531,0,0,0,.332-.61h.864A1.82,1.82,0,0,1,11.5-1a2.284,2.284,0,0,1-.432.579,2.048,2.048,0,0,1-.991.527,3.011,3.011,0,0,1-.718.078A2.2,2.2,0,0,1,7.7-.525a2.764,2.764,0,0,1-.679-1.99,3.006,3.006,0,0,1,.684-2.046A2.255,2.255,0,0,1,9.492-5.347Zm1.4,2.314a2.277,2.277,0,0,0-.249-.913A1.276,1.276,0,0,0,9.438-4.58a1.337,1.337,0,0,0-1.016.437,1.651,1.651,0,0,0-.435,1.111Zm3.828-2.29a1.906,1.906,0,0,1,1.074.3,2.413,2.413,0,0,1,.508.5v-.659h.811V-.425a3.507,3.507,0,0,1-.293,1.572,2.1,2.1,0,0,1-2.065,1.064,2.534,2.534,0,0,1-1.421-.378A1.476,1.476,0,0,1,12.69.649h.894a.994.994,0,0,0,.254.542,1.3,1.3,0,0,0,.938.293A1.29,1.29,0,0,0,16.1.771a4.015,4.015,0,0,0,.171-1.5,1.724,1.724,0,0,1-.635.6,2.112,2.112,0,0,1-.981.2,2.1,2.1,0,0,1-1.487-.6,2.652,2.652,0,0,1-.637-1.995,3.021,3.021,0,0,1,.642-2.051A1.985,1.985,0,0,1,14.722-5.322ZM16.3-2.637a2.18,2.18,0,0,0-.4-1.44,1.283,1.283,0,0,0-1.021-.469,1.26,1.26,0,0,0-1.27.869,3.408,3.408,0,0,0-.181,1.216,2.158,2.158,0,0,0,.359,1.345,1.159,1.159,0,0,0,.964.461,1.354,1.354,0,0,0,1.333-.854A2.756,2.756,0,0,0,16.3-2.637Zm2.134-2.568h.894V0h-.894Zm0-1.968h.894v1h-.894Zm2.222,1.943h.835v.742a2.342,2.342,0,0,1,.786-.659,2.1,2.1,0,0,1,.923-.2,1.522,1.522,0,0,1,1.5.776,2.757,2.757,0,0,1,.215,1.216V0h-.894V-3.3a1.785,1.785,0,0,0-.142-.771.858.858,0,0,0-.85-.488,1.73,1.73,0,0,0-.513.063,1.32,1.32,0,0,0-.635.43,1.294,1.294,0,0,0-.286.535,3.6,3.6,0,0,0-.066.789V0h-.879Zm5.562,0h.835v.742a2.342,2.342,0,0,1,.786-.659,2.1,2.1,0,0,1,.923-.2,1.522,1.522,0,0,1,1.5.776,2.757,2.757,0,0,1,.215,1.216V0H29.59V-3.3a1.785,1.785,0,0,0-.142-.771.858.858,0,0,0-.85-.488,1.73,1.73,0,0,0-.513.063,1.32,1.32,0,0,0-.635.43,1.294,1.294,0,0,0-.286.535,3.6,3.6,0,0,0-.066.789V0h-.879Zm5.562.024h.894V0h-.894Zm0-1.968h.894v1h-.894ZM34-5.229h.835v.742a2.342,2.342,0,0,1,.786-.659,2.1,2.1,0,0,1,.923-.2,1.522,1.522,0,0,1,1.5.776,2.757,2.757,0,0,1,.215,1.216V0h-.894V-3.3a1.785,1.785,0,0,0-.142-.771.858.858,0,0,0-.85-.488,1.73,1.73,0,0,0-.513.063,1.32,1.32,0,0,0-.635.43,1.294,1.294,0,0,0-.286.535,3.6,3.6,0,0,0-.066.789V0H34Zm7.407-.093a1.906,1.906,0,0,1,1.074.3,2.413,2.413,0,0,1,.508.5v-.659H43.8V-.425a3.507,3.507,0,0,1-.293,1.572,2.1,2.1,0,0,1-2.065,1.064,2.534,2.534,0,0,1-1.421-.378A1.476,1.476,0,0,1,39.38.649h.894a.994.994,0,0,0,.254.542,1.3,1.3,0,0,0,.938.293A1.29,1.29,0,0,0,42.788.771a4.015,4.015,0,0,0,.171-1.5,1.724,1.724,0,0,1-.635.6,2.112,2.112,0,0,1-.981.2,2.1,2.1,0,0,1-1.487-.6,2.652,2.652,0,0,1-.637-1.995,3.021,3.021,0,0,1,.642-2.051A1.985,1.985,0,0,1,41.411-5.322Zm1.582,2.686a2.18,2.18,0,0,0-.4-1.44,1.283,1.283,0,0,0-1.021-.469,1.26,1.26,0,0,0-1.27.869,3.408,3.408,0,0,0-.181,1.216,2.158,2.158,0,0,0,.359,1.345,1.159,1.159,0,0,0,.964.461,1.354,1.354,0,0,0,1.333-.854A2.756,2.756,0,0,0,42.993-2.637ZM49.98-.566a1.212,1.212,0,0,0,1.2-.662A3.3,3.3,0,0,0,51.5-2.7a2.621,2.621,0,0,0-.234-1.191,1.318,1.318,0,0,0-1.279-.723A1.262,1.262,0,0,0,48.818-4a2.852,2.852,0,0,0-.366,1.484,2.481,2.481,0,0,0,.366,1.392A1.29,1.29,0,0,0,49.98-.566Zm.034-4.814a2.368,2.368,0,0,1,1.709.674,2.631,2.631,0,0,1,.7,1.982,3.4,3.4,0,0,1-.615,2.09A2.226,2.226,0,0,1,49.9.19a2.155,2.155,0,0,1-1.714-.73,2.883,2.883,0,0,1-.635-1.96,3.119,3.119,0,0,1,.669-2.1A2.245,2.245,0,0,1,50.015-5.381Zm3.672-.645a1.567,1.567,0,0,1,.19-.8,1.346,1.346,0,0,1,1.187-.449q.083,0,.171,0t.2.015v.8l-.2-.012-.115,0q-.4,0-.479.208a4.1,4.1,0,0,0-.078,1.057h.869v.693h-.879V0h-.869V-4.512h-.728v-.693h.728ZM59.2-6.689h.889v1.46h.835v.718h-.835V-1.1a.369.369,0,0,0,.186.366.789.789,0,0,0,.342.054l.137,0q.073,0,.171-.012V0a1.962,1.962,0,0,1-.315.063,2.994,2.994,0,0,1-.354.02.954.954,0,0,1-.835-.315,1.4,1.4,0,0,1-.22-.818V-4.512h-.708v-.718H59.2Zm4.78,1.343a2.385,2.385,0,0,1,1.079.261,1.99,1.99,0,0,1,.8.676,2.333,2.333,0,0,1,.352.923,6.038,6.038,0,0,1,.078,1.152H62.451a2.237,2.237,0,0,0,.376,1.277,1.259,1.259,0,0,0,1.089.481,1.408,1.408,0,0,0,1.1-.454,1.531,1.531,0,0,0,.332-.61h.864A1.82,1.82,0,0,1,65.984-1a2.284,2.284,0,0,1-.432.579,2.048,2.048,0,0,1-.991.527,3.011,3.011,0,0,1-.718.078,2.2,2.2,0,0,1-1.655-.71,2.764,2.764,0,0,1-.679-1.99,3.006,3.006,0,0,1,.684-2.046A2.255,2.255,0,0,1,63.979-5.347Zm1.4,2.314a2.277,2.277,0,0,0-.249-.913,1.276,1.276,0,0,0-1.206-.635,1.337,1.337,0,0,0-1.016.437,1.651,1.651,0,0,0-.435,1.111Zm1.484-2.2H68l1.2,1.841L70.42-5.229l1.069.024L69.727-2.681,71.567,0H70.444l-1.3-1.963L67.886,0H66.772l1.841-2.681Zm5.674-1.46h.889v1.46h.835v.718h-.835V-1.1a.369.369,0,0,0,.186.366.789.789,0,0,0,.342.054l.137,0q.073,0,.171-.012V0a1.962,1.962,0,0,1-.315.063,2.994,2.994,0,0,1-.354.02.954.954,0,0,1-.835-.315,1.4,1.4,0,0,1-.22-.818V-4.512h-.708v-.718h.708Z" transform="translate(23.278 15)"/>
    <path id="Path_149480" data-name="Path 149480" d="M.854-7.173H6.084v.879H1.8v2.178h3.96v.83H1.8V-.854H6.157V0H.854Zm6.46,1.943h.835v.742a2.342,2.342,0,0,1,.786-.659,2.1,2.1,0,0,1,.923-.2,1.522,1.522,0,0,1,1.5.776,2.757,2.757,0,0,1,.215,1.216V0h-.894V-3.3a1.785,1.785,0,0,0-.142-.771.858.858,0,0,0-.85-.488,1.73,1.73,0,0,0-.513.063,1.32,1.32,0,0,0-.635.43,1.294,1.294,0,0,0-.286.535,3.6,3.6,0,0,0-.066.789V0H7.314Zm6.118,2.676a2.592,2.592,0,0,0,.356,1.406,1.249,1.249,0,0,0,1.143.566,1.2,1.2,0,0,0,1-.525,2.479,2.479,0,0,0,.393-1.506,2.227,2.227,0,0,0-.405-1.467,1.264,1.264,0,0,0-1-.476,1.321,1.321,0,0,0-1.077.508A2.326,2.326,0,0,0,13.433-2.554Zm1.323-2.769a1.861,1.861,0,0,1,1.006.254,2.363,2.363,0,0,1,.532.513V-7.2h.845V0h-.791V-.728a1.9,1.9,0,0,1-.728.7,2.082,2.082,0,0,1-.962.215,1.948,1.948,0,0,1-1.514-.735A2.873,2.873,0,0,1,12.5-2.5a3.376,3.376,0,0,1,.583-1.98A1.91,1.91,0,0,1,14.756-5.322ZM23.291-.566a1.212,1.212,0,0,0,1.2-.662A3.3,3.3,0,0,0,24.814-2.7a2.621,2.621,0,0,0-.234-1.191A1.318,1.318,0,0,0,23.3-4.614,1.262,1.262,0,0,0,22.129-4a2.852,2.852,0,0,0-.366,1.484,2.481,2.481,0,0,0,.366,1.392A1.29,1.29,0,0,0,23.291-.566Zm.034-4.814a2.368,2.368,0,0,1,1.709.674,2.631,2.631,0,0,1,.7,1.982,3.4,3.4,0,0,1-.615,2.09A2.226,2.226,0,0,1,23.208.19a2.155,2.155,0,0,1-1.714-.73,2.883,2.883,0,0,1-.635-1.96,3.119,3.119,0,0,1,.669-2.1A2.245,2.245,0,0,1,23.325-5.381ZM27-6.025a1.567,1.567,0,0,1,.19-.8,1.346,1.346,0,0,1,1.187-.449q.083,0,.171,0t.2.015v.8l-.2-.012-.115,0q-.4,0-.479.208a4.1,4.1,0,0,0-.078,1.057h.869v.693h-.879V0H27V-4.512H26.27v-.693H27Zm5.513-.664H33.4v1.46h.835v.718H33.4V-1.1a.369.369,0,0,0,.186.366.789.789,0,0,0,.342.054l.137,0q.073,0,.171-.012V0a1.962,1.962,0,0,1-.315.063,2.994,2.994,0,0,1-.354.02.954.954,0,0,1-.835-.315,1.4,1.4,0,0,1-.22-.818V-4.512H31.8v-.718h.708Zm4.78,1.343a2.385,2.385,0,0,1,1.079.261,1.99,1.99,0,0,1,.8.676,2.333,2.333,0,0,1,.352.923,6.038,6.038,0,0,1,.078,1.152H35.762a2.237,2.237,0,0,0,.376,1.277,1.259,1.259,0,0,0,1.089.481,1.408,1.408,0,0,0,1.1-.454,1.531,1.531,0,0,0,.332-.61h.864A1.82,1.82,0,0,1,39.294-1a2.284,2.284,0,0,1-.432.579,2.048,2.048,0,0,1-.991.527,3.011,3.011,0,0,1-.718.078A2.2,2.2,0,0,1,35.5-.525a2.764,2.764,0,0,1-.679-1.99A3.006,3.006,0,0,1,35.5-4.561,2.255,2.255,0,0,1,37.29-5.347Zm1.4,2.314a2.277,2.277,0,0,0-.249-.913,1.276,1.276,0,0,0-1.206-.635,1.337,1.337,0,0,0-1.016.437,1.651,1.651,0,0,0-.435,1.111Zm1.484-2.2h1.138l1.2,1.841L43.73-5.229l1.069.024L43.037-2.681,44.878,0H43.755l-1.3-1.963L41.2,0H40.083l1.841-2.681Zm5.674-1.46h.889v1.46h.835v.718h-.835V-1.1a.369.369,0,0,0,.186.366.789.789,0,0,0,.342.054l.137,0q.073,0,.171-.012V0a1.962,1.962,0,0,1-.315.063,2.994,2.994,0,0,1-.354.02.954.954,0,0,1-.835-.315,1.4,1.4,0,0,1-.22-.818V-4.512h-.708v-.718h.708Z" transform="translate(23.278 38)"/>
    <path id="Path_149481" data-name="Path 149481" d="M3.784-7.368A2.939,2.939,0,0,1,5.9-6.65,2.535,2.535,0,0,1,6.733-5.02H5.786a1.971,1.971,0,0,0-.642-1.1,2.035,2.035,0,0,0-1.35-.405,2.165,2.165,0,0,0-1.711.745A3.394,3.394,0,0,0,1.431-3.5a3.316,3.316,0,0,0,.588,2.043,2.056,2.056,0,0,0,1.755.784A1.854,1.854,0,0,0,5.41-1.494a3.138,3.138,0,0,0,.444-1.143H6.8a3.237,3.237,0,0,1-.84,1.9,2.988,2.988,0,0,1-2.3.923,3.042,3.042,0,0,1-2.1-.757A3.944,3.944,0,0,1,.439-3.662a3.948,3.948,0,0,1,.84-2.6A3.068,3.068,0,0,1,3.784-7.368Zm6.157,6.8a1.212,1.212,0,0,0,1.2-.662A3.3,3.3,0,0,0,11.465-2.7a2.621,2.621,0,0,0-.234-1.191,1.318,1.318,0,0,0-1.279-.723A1.262,1.262,0,0,0,8.779-4a2.852,2.852,0,0,0-.366,1.484,2.481,2.481,0,0,0,.366,1.392A1.29,1.29,0,0,0,9.941-.566Zm.034-4.814a2.368,2.368,0,0,1,1.709.674,2.631,2.631,0,0,1,.7,1.982,3.4,3.4,0,0,1-.615,2.09A2.226,2.226,0,0,1,9.858.19,2.155,2.155,0,0,1,8.145-.54,2.883,2.883,0,0,1,7.51-2.5a3.119,3.119,0,0,1,.669-2.1A2.245,2.245,0,0,1,9.976-5.381Zm3.452.151h.835v.742a2.342,2.342,0,0,1,.786-.659,2.1,2.1,0,0,1,.923-.2,1.522,1.522,0,0,1,1.5.776,2.757,2.757,0,0,1,.215,1.216V0H16.8V-3.3a1.785,1.785,0,0,0-.142-.771.858.858,0,0,0-.85-.488,1.73,1.73,0,0,0-.513.063,1.32,1.32,0,0,0-.635.43,1.294,1.294,0,0,0-.286.535,3.6,3.6,0,0,0-.066.789V0h-.879Zm7.578-.151a2.28,2.28,0,0,1,1.438.43,2.058,2.058,0,0,1,.667,1.479h-.854a1.577,1.577,0,0,0-.356-.8,1.126,1.126,0,0,0-.894-.32,1.235,1.235,0,0,0-1.2.82,3.259,3.259,0,0,0-.234,1.313A2.472,2.472,0,0,0,19.9-1.138,1.139,1.139,0,0,0,20.947-.6a1.143,1.143,0,0,0,.867-.334,1.839,1.839,0,0,0,.442-.916h.854A2.294,2.294,0,0,1,22.378-.33a2.285,2.285,0,0,1-1.5.481A2,2,0,0,1,19.243-.6a2.869,2.869,0,0,1-.61-1.873A3.155,3.155,0,0,1,19.3-4.614,2.162,2.162,0,0,1,21.006-5.381Zm3.862.151v3.472A1.464,1.464,0,0,0,25-1.1a.886.886,0,0,0,.874.469,1.235,1.235,0,0,0,1.25-.82A3.255,3.255,0,0,0,27.3-2.661V-5.229h.879V0h-.83l.01-.771a1.773,1.773,0,0,1-.425.5,1.869,1.869,0,0,1-1.221.41,1.575,1.575,0,0,1-1.523-.747,2.225,2.225,0,0,1-.22-1.069V-5.229Zm4.707,0h.835v.9a2,2,0,0,1,.5-.642,1.3,1.3,0,0,1,.923-.378l.083,0,.2.02v.928a1.313,1.313,0,0,0-.144-.02q-.066,0-.144,0a1.254,1.254,0,0,0-1.021.427,1.491,1.491,0,0,0-.356.984V0h-.879Zm3.33,0h.835v.9a2,2,0,0,1,.5-.642,1.3,1.3,0,0,1,.923-.378l.083,0,.2.02v.928a1.313,1.313,0,0,0-.144-.02q-.066,0-.144,0a1.254,1.254,0,0,0-1.021.427,1.491,1.491,0,0,0-.356.984V0h-.879Zm5.483-.117a2.385,2.385,0,0,1,1.079.261,1.99,1.99,0,0,1,.8.676,2.333,2.333,0,0,1,.352.923,6.038,6.038,0,0,1,.078,1.152H36.86a2.237,2.237,0,0,0,.376,1.277,1.259,1.259,0,0,0,1.089.481,1.408,1.408,0,0,0,1.1-.454,1.531,1.531,0,0,0,.332-.61h.864A1.82,1.82,0,0,1,40.393-1a2.284,2.284,0,0,1-.432.579,2.048,2.048,0,0,1-.991.527,3.011,3.011,0,0,1-.718.078A2.2,2.2,0,0,1,36.6-.525a2.764,2.764,0,0,1-.679-1.99A3.006,3.006,0,0,1,36.6-4.561,2.255,2.255,0,0,1,38.389-5.347Zm1.4,2.314a2.277,2.277,0,0,0-.249-.913,1.276,1.276,0,0,0-1.206-.635,1.337,1.337,0,0,0-1.016.437,1.651,1.651,0,0,0-.435,1.111Zm1.982-2.2h.835v.742a2.342,2.342,0,0,1,.786-.659,2.1,2.1,0,0,1,.923-.2,1.522,1.522,0,0,1,1.5.776,2.757,2.757,0,0,1,.215,1.216V0h-.894V-3.3A1.785,1.785,0,0,0,45-4.067a.858.858,0,0,0-.85-.488,1.73,1.73,0,0,0-.513.063,1.32,1.32,0,0,0-.635.43,1.294,1.294,0,0,0-.286.535,3.6,3.6,0,0,0-.066.789V0h-.879Zm7.578-.151a2.28,2.28,0,0,1,1.438.43,2.058,2.058,0,0,1,.667,1.479H50.6a1.577,1.577,0,0,0-.356-.8,1.126,1.126,0,0,0-.894-.32,1.235,1.235,0,0,0-1.2.82,3.259,3.259,0,0,0-.234,1.313,2.472,2.472,0,0,0,.332,1.323A1.139,1.139,0,0,0,49.292-.6a1.143,1.143,0,0,0,.867-.334,1.839,1.839,0,0,0,.442-.916h.854A2.294,2.294,0,0,1,50.723-.33a2.285,2.285,0,0,1-1.5.481A2,2,0,0,1,47.588-.6a2.869,2.869,0,0,1-.61-1.873,3.155,3.155,0,0,1,.669-2.144A2.162,2.162,0,0,1,49.351-5.381Zm5.161.034a2.385,2.385,0,0,1,1.079.261,1.99,1.99,0,0,1,.8.676,2.333,2.333,0,0,1,.352.923,6.038,6.038,0,0,1,.078,1.152H52.983a2.237,2.237,0,0,0,.376,1.277,1.259,1.259,0,0,0,1.089.481,1.408,1.408,0,0,0,1.1-.454,1.531,1.531,0,0,0,.332-.61h.864A1.82,1.82,0,0,1,56.516-1a2.284,2.284,0,0,1-.432.579,2.048,2.048,0,0,1-.991.527,3.011,3.011,0,0,1-.718.078,2.2,2.2,0,0,1-1.655-.71,2.764,2.764,0,0,1-.679-1.99,3.006,3.006,0,0,1,.684-2.046A2.255,2.255,0,0,1,54.512-5.347Zm1.4,2.314a2.277,2.277,0,0,0-.249-.913,1.276,1.276,0,0,0-1.206-.635,1.337,1.337,0,0,0-1.016.437,1.651,1.651,0,0,0-.435,1.111ZM60.605-7.2h.854v2.6a1.949,1.949,0,0,1,.688-.574,1.936,1.936,0,0,1,.869-.2,2.037,2.037,0,0,1,1.584.671,2.86,2.86,0,0,1,.608,1.98,3.4,3.4,0,0,1-.6,2.061,1.948,1.948,0,0,1-1.665.82,1.706,1.706,0,0,1-1.006-.288,2.429,2.429,0,0,1-.522-.547V0h-.811ZM62.891-.61a1.174,1.174,0,0,0,1.067-.566,2.789,2.789,0,0,0,.354-1.494,2.452,2.452,0,0,0-.354-1.367,1.166,1.166,0,0,0-1.042-.542,1.454,1.454,0,0,0-1.052.444,2,2,0,0,0-.452,1.465,3.237,3.237,0,0,0,.186,1.2A1.282,1.282,0,0,0,62.891-.61Zm5.522-4.736a2.385,2.385,0,0,1,1.079.261,1.99,1.99,0,0,1,.8.676,2.333,2.333,0,0,1,.352.923,6.038,6.038,0,0,1,.078,1.152H66.885a2.237,2.237,0,0,0,.376,1.277,1.259,1.259,0,0,0,1.089.481,1.408,1.408,0,0,0,1.1-.454,1.531,1.531,0,0,0,.332-.61h.864A1.82,1.82,0,0,1,70.417-1a2.284,2.284,0,0,1-.432.579,2.048,2.048,0,0,1-.991.527,3.011,3.011,0,0,1-.718.078,2.2,2.2,0,0,1-1.655-.71,2.764,2.764,0,0,1-.679-1.99,3.006,3.006,0,0,1,.684-2.046A2.255,2.255,0,0,1,68.413-5.347Zm1.4,2.314a2.277,2.277,0,0,0-.249-.913,1.276,1.276,0,0,0-1.206-.635,1.337,1.337,0,0,0-1.016.437,1.651,1.651,0,0,0-.435,1.111Zm2.158-3.657h.889v1.46H73.7v.718h-.835V-1.1a.369.369,0,0,0,.186.366.789.789,0,0,0,.342.054l.137,0q.073,0,.171-.012V0a1.962,1.962,0,0,1-.315.063,2.994,2.994,0,0,1-.354.02.954.954,0,0,1-.835-.315,1.4,1.4,0,0,1-.22-.818V-4.512h-.708v-.718h.708Zm3.008,1.46,1.006,4.121,1.021-4.121h.986l1.025,4.1,1.069-4.1h.879L79.448,0h-.913L77.471-4.048,76.44,0h-.913L74.019-5.229Zm8.994-.117a2.385,2.385,0,0,1,1.079.261,1.99,1.99,0,0,1,.8.676,2.333,2.333,0,0,1,.352.923,6.038,6.038,0,0,1,.078,1.152H82.446a2.237,2.237,0,0,0,.376,1.277,1.259,1.259,0,0,0,1.089.481,1.408,1.408,0,0,0,1.1-.454,1.531,1.531,0,0,0,.332-.61h.864A1.82,1.82,0,0,1,85.979-1a2.284,2.284,0,0,1-.432.579,2.048,2.048,0,0,1-.991.527,3.011,3.011,0,0,1-.718.078,2.2,2.2,0,0,1-1.655-.71,2.764,2.764,0,0,1-.679-1.99,3.006,3.006,0,0,1,.684-2.046A2.255,2.255,0,0,1,83.975-5.347Zm1.4,2.314a2.277,2.277,0,0,0-.249-.913,1.276,1.276,0,0,0-1.206-.635,1.337,1.337,0,0,0-1.016.437,1.651,1.651,0,0,0-.435,1.111Zm4.16-2.314a2.385,2.385,0,0,1,1.079.261,1.99,1.99,0,0,1,.8.676,2.333,2.333,0,0,1,.352.923,6.038,6.038,0,0,1,.078,1.152H88.008a2.237,2.237,0,0,0,.376,1.277,1.259,1.259,0,0,0,1.089.481,1.408,1.408,0,0,0,1.1-.454,1.531,1.531,0,0,0,.332-.61h.864A1.82,1.82,0,0,1,91.541-1a2.284,2.284,0,0,1-.432.579,2.048,2.048,0,0,1-.991.527A3.011,3.011,0,0,1,89.4.186a2.2,2.2,0,0,1-1.655-.71,2.764,2.764,0,0,1-.679-1.99,3.006,3.006,0,0,1,.684-2.046A2.255,2.255,0,0,1,89.536-5.347Zm1.4,2.314a2.277,2.277,0,0,0-.249-.913,1.276,1.276,0,0,0-1.206-.635,1.337,1.337,0,0,0-1.016.437,1.651,1.651,0,0,0-.435,1.111Zm1.982-2.2h.835v.742a2.342,2.342,0,0,1,.786-.659,2.1,2.1,0,0,1,.923-.2,1.522,1.522,0,0,1,1.5.776,2.757,2.757,0,0,1,.215,1.216V0h-.894V-3.3a1.785,1.785,0,0,0-.142-.771.858.858,0,0,0-.85-.488,1.73,1.73,0,0,0-.513.063,1.32,1.32,0,0,0-.635.43,1.294,1.294,0,0,0-.286.535,3.6,3.6,0,0,0-.066.789V0H92.92ZM101.191-7.2h.854v2.6a1.949,1.949,0,0,1,.688-.574,1.936,1.936,0,0,1,.869-.2,2.037,2.037,0,0,1,1.584.671,2.86,2.86,0,0,1,.608,1.98,3.4,3.4,0,0,1-.6,2.061,1.948,1.948,0,0,1-1.665.82,1.706,1.706,0,0,1-1.006-.288A2.429,2.429,0,0,1,102-.669V0h-.811ZM103.477-.61a1.174,1.174,0,0,0,1.067-.566,2.789,2.789,0,0,0,.354-1.494,2.452,2.452,0,0,0-.354-1.367A1.166,1.166,0,0,0,103.5-4.58a1.454,1.454,0,0,0-1.052.444A2,2,0,0,0,102-2.671a3.237,3.237,0,0,0,.186,1.2A1.282,1.282,0,0,0,103.477-.61ZM109-5.347a2.385,2.385,0,0,1,1.079.261,1.99,1.99,0,0,1,.8.676,2.333,2.333,0,0,1,.352.923,6.038,6.038,0,0,1,.078,1.152h-3.833a2.237,2.237,0,0,0,.376,1.277,1.259,1.259,0,0,0,1.089.481,1.408,1.408,0,0,0,1.1-.454,1.531,1.531,0,0,0,.332-.61h.864A1.82,1.82,0,0,1,111-1a2.284,2.284,0,0,1-.432.579,2.048,2.048,0,0,1-.991.527,3.011,3.011,0,0,1-.718.078,2.2,2.2,0,0,1-1.655-.71,2.764,2.764,0,0,1-.679-1.99,3.006,3.006,0,0,1,.684-2.046A2.255,2.255,0,0,1,109-5.347Zm1.4,2.314a2.277,2.277,0,0,0-.249-.913,1.276,1.276,0,0,0-1.206-.635,1.337,1.337,0,0,0-1.016.437,1.651,1.651,0,0,0-.435,1.111Zm3.828-2.29a1.906,1.906,0,0,1,1.074.3,2.413,2.413,0,0,1,.508.5v-.659h.811V-.425a3.507,3.507,0,0,1-.293,1.572,2.1,2.1,0,0,1-2.065,1.064,2.534,2.534,0,0,1-1.421-.378A1.476,1.476,0,0,1,112.2.649h.894a.994.994,0,0,0,.254.542,1.3,1.3,0,0,0,.938.293,1.29,1.29,0,0,0,1.323-.713,4.015,4.015,0,0,0,.171-1.5,1.724,1.724,0,0,1-.635.6,2.112,2.112,0,0,1-.981.2,2.1,2.1,0,0,1-1.487-.6,2.652,2.652,0,0,1-.637-1.995,3.021,3.021,0,0,1,.642-2.051A1.985,1.985,0,0,1,114.229-5.322Zm1.582,2.686a2.18,2.18,0,0,0-.4-1.44,1.283,1.283,0,0,0-1.021-.469,1.26,1.26,0,0,0-1.27.869,3.408,3.408,0,0,0-.181,1.216,2.158,2.158,0,0,0,.359,1.345,1.159,1.159,0,0,0,.964.461,1.354,1.354,0,0,0,1.333-.854A2.756,2.756,0,0,0,115.811-2.637Zm2.134-2.568h.894V0h-.894Zm0-1.968h.894v1h-.894Zm2.222,1.943H121v.742a2.342,2.342,0,0,1,.786-.659,2.1,2.1,0,0,1,.923-.2,1.522,1.522,0,0,1,1.5.776,2.757,2.757,0,0,1,.215,1.216V0h-.894V-3.3a1.785,1.785,0,0,0-.142-.771.858.858,0,0,0-.85-.488,1.73,1.73,0,0,0-.513.063,1.32,1.32,0,0,0-.635.43,1.294,1.294,0,0,0-.286.535,3.6,3.6,0,0,0-.066.789V0h-.879Zm5.562,0h.835v.742a2.342,2.342,0,0,1,.786-.659,2.1,2.1,0,0,1,.923-.2,1.522,1.522,0,0,1,1.5.776,2.757,2.757,0,0,1,.215,1.216V0H129.1V-3.3a1.785,1.785,0,0,0-.142-.771.858.858,0,0,0-.85-.488,1.73,1.73,0,0,0-.513.063,1.32,1.32,0,0,0-.635.43,1.294,1.294,0,0,0-.286.535,3.6,3.6,0,0,0-.066.789V0h-.879Zm5.562.024h.894V0h-.894Zm0-1.968h.894v1h-.894Zm2.222,1.943h.835v.742a2.342,2.342,0,0,1,.786-.659,2.1,2.1,0,0,1,.923-.2,1.522,1.522,0,0,1,1.5.776,2.757,2.757,0,0,1,.215,1.216V0h-.894V-3.3a1.785,1.785,0,0,0-.142-.771.858.858,0,0,0-.85-.488,1.73,1.73,0,0,0-.513.063,1.32,1.32,0,0,0-.635.43,1.294,1.294,0,0,0-.286.535,3.6,3.6,0,0,0-.066.789V0h-.879Zm7.407-.093a1.906,1.906,0,0,1,1.074.3,2.413,2.413,0,0,1,.508.5v-.659h.811V-.425a3.507,3.507,0,0,1-.293,1.572,2.1,2.1,0,0,1-2.065,1.064,2.534,2.534,0,0,1-1.421-.378,1.476,1.476,0,0,1-.645-1.184h.894a.994.994,0,0,0,.254.542,1.294,1.294,0,0,0,.938.293,1.29,1.29,0,0,0,1.323-.713,4.015,4.015,0,0,0,.171-1.5,1.725,1.725,0,0,1-.635.6,2.112,2.112,0,0,1-.981.2,2.1,2.1,0,0,1-1.487-.6,2.652,2.652,0,0,1-.637-1.995,3.021,3.021,0,0,1,.642-2.051A1.985,1.985,0,0,1,140.918-5.322ZM142.5-2.637a2.18,2.18,0,0,0-.4-1.44,1.283,1.283,0,0,0-1.021-.469,1.26,1.26,0,0,0-1.27.869,3.408,3.408,0,0,0-.181,1.216,2.158,2.158,0,0,0,.359,1.345,1.159,1.159,0,0,0,.964.461,1.354,1.354,0,0,0,1.333-.854A2.756,2.756,0,0,0,142.5-2.637Zm5.586,1.245a.724.724,0,0,0,.278.6,1.032,1.032,0,0,0,.659.22,2,2,0,0,0,.9-.215,1.209,1.209,0,0,0,.732-1.167v-.708a1.5,1.5,0,0,1-.415.171,3.536,3.536,0,0,1-.5.1l-.532.068a2.035,2.035,0,0,0-.718.2A.78.78,0,0,0,148.086-1.392Zm2.129-1.777a.477.477,0,0,0,.405-.254.773.773,0,0,0,.059-.337.714.714,0,0,0-.32-.652,1.716,1.716,0,0,0-.916-.2,1.163,1.163,0,0,0-.977.371,1.221,1.221,0,0,0-.21.61h-.82a1.51,1.51,0,0,1,.627-1.345,2.576,2.576,0,0,1,1.4-.378,2.846,2.846,0,0,1,1.5.352,1.193,1.193,0,0,1,.571,1.094V-.9a.386.386,0,0,0,.056.22.271.271,0,0,0,.237.083q.059,0,.132-.007t.156-.022V.024A2.448,2.448,0,0,1,151.8.1a2.284,2.284,0,0,1-.293.015.723.723,0,0,1-.659-.322,1.244,1.244,0,0,1-.151-.483,2.236,2.236,0,0,1-.771.61,2.386,2.386,0,0,1-1.108.259,1.648,1.648,0,0,1-1.189-.442,1.468,1.468,0,0,1-.461-1.106,1.424,1.424,0,0,1,.454-1.128,2.161,2.161,0,0,1,1.191-.493Zm2.759-2.061h.835v.742a2.342,2.342,0,0,1,.786-.659,2.1,2.1,0,0,1,.923-.2,1.522,1.522,0,0,1,1.5.776,2.757,2.757,0,0,1,.215,1.216V0h-.894V-3.3a1.785,1.785,0,0,0-.142-.771.858.858,0,0,0-.85-.488,1.73,1.73,0,0,0-.513.063,1.32,1.32,0,0,0-.635.43,1.294,1.294,0,0,0-.286.535,3.6,3.6,0,0,0-.066.789V0h-.879Zm6.118,2.676a2.592,2.592,0,0,0,.356,1.406,1.249,1.249,0,0,0,1.143.566,1.2,1.2,0,0,0,1-.525,2.479,2.479,0,0,0,.393-1.506,2.227,2.227,0,0,0-.405-1.467,1.264,1.264,0,0,0-1-.476,1.321,1.321,0,0,0-1.077.508A2.326,2.326,0,0,0,159.092-2.554Zm1.323-2.769a1.861,1.861,0,0,1,1.006.254,2.363,2.363,0,0,1,.532.513V-7.2h.845V0h-.791V-.728a1.9,1.9,0,0,1-.728.7,2.082,2.082,0,0,1-.962.215A1.948,1.948,0,0,1,158.8-.549a2.873,2.873,0,0,1-.64-1.956,3.376,3.376,0,0,1,.583-1.98A1.91,1.91,0,0,1,160.415-5.322Zm8.638-.024a2.385,2.385,0,0,1,1.079.261,1.99,1.99,0,0,1,.8.676,2.333,2.333,0,0,1,.352.923,6.038,6.038,0,0,1,.078,1.152h-3.833a2.237,2.237,0,0,0,.376,1.277,1.259,1.259,0,0,0,1.089.481,1.408,1.408,0,0,0,1.1-.454,1.531,1.531,0,0,0,.332-.61h.864a1.82,1.82,0,0,1-.227.642,2.284,2.284,0,0,1-.432.579,2.048,2.048,0,0,1-.991.527,3.011,3.011,0,0,1-.718.078,2.2,2.2,0,0,1-1.655-.71,2.764,2.764,0,0,1-.679-1.99,3.006,3.006,0,0,1,.684-2.046A2.255,2.255,0,0,1,169.053-5.347Zm1.4,2.314a2.277,2.277,0,0,0-.249-.913A1.276,1.276,0,0,0,169-4.58a1.337,1.337,0,0,0-1.016.437,1.651,1.651,0,0,0-.435,1.111Zm1.982-2.2h.835v.742a2.342,2.342,0,0,1,.786-.659,2.1,2.1,0,0,1,.923-.2,1.522,1.522,0,0,1,1.5.776,2.757,2.757,0,0,1,.215,1.216V0h-.894V-3.3a1.785,1.785,0,0,0-.142-.771.858.858,0,0,0-.85-.488,1.73,1.73,0,0,0-.513.063,1.32,1.32,0,0,0-.635.43,1.294,1.294,0,0,0-.286.535,3.6,3.6,0,0,0-.066.789V0h-.879Zm6.118,2.676a2.592,2.592,0,0,0,.356,1.406,1.249,1.249,0,0,0,1.143.566,1.2,1.2,0,0,0,1-.525,2.479,2.479,0,0,0,.393-1.506,2.227,2.227,0,0,0-.405-1.467,1.264,1.264,0,0,0-1-.476,1.321,1.321,0,0,0-1.077.508A2.326,2.326,0,0,0,178.555-2.554Zm1.323-2.769a1.861,1.861,0,0,1,1.006.254,2.363,2.363,0,0,1,.532.513V-7.2h.845V0h-.791V-.728a1.9,1.9,0,0,1-.728.7,2.082,2.082,0,0,1-.962.215,1.948,1.948,0,0,1-1.514-.735,2.873,2.873,0,0,1-.64-1.956,3.376,3.376,0,0,1,.583-1.98A1.91,1.91,0,0,1,179.878-5.322Z" transform="translate(23.278 61)"/>
    <rect id="Rectangle_9625" data-name="Rectangle 9625" width="11" height="11" transform="translate(0 34.779) rotate(-45)" fill="#fff"/>
    <rect id="Rectangle_9626" data-name="Rectangle 9626" width="10.5" height="10.5" transform="translate(0.354 34.779) rotate(-45)" fill="none" stroke="#000" stroke-width="0.5"/>
    <path id="Path_116471" data-name="Path 116471" d="M473.446,369.2l2.278-2.278-2.278-2.278v-3.222h-3.222l-2.278-2.278-2.278,2.278h-3.222v3.222l-2.278,2.278,2.278,2.278v3.222h3.222l2.278,2.278,2.278-2.278h3.222Z" transform="translate(-459.89 -309.641)" fill="#e72eff" stroke="#000" stroke-width="0.5"/>
  </g>
</svg>
