<?xml version="1.0" encoding="utf-8"?>
<!-- Generator: Adobe Illustrator 25.1.0, SVG Export Plug-In . SVG Version: 6.00 Build 0)  -->
<svg version="1.1" id="Livello_1" xmlns="http://www.w3.org/2000/svg" xmlns:xlink="http://www.w3.org/1999/xlink" x="0px" y="0px"
	 viewBox="0 0 250 427" enable-background="new 0 0 250 427" xml:space="preserve">
<g>
	<defs>
		<rect id="SVGID_1_" y="0" width="250" height="427"/>
	</defs>
	<clipPath id="SVGID_2_">
		<use xlink:href="#SVGID_1_"  overflow="visible"/>
	</clipPath>
	<g id="info_02" clip-path="url(#SVGID_2_)">
		<g id="Raggruppa_4798" transform="translate(-743 -1334)">
			<g id="Raggruppa_576" transform="translate(-2 -48)">
				<g id="Raggruppa_571" transform="translate(-6282.617 747.472)">
					<g id="stripes" transform="translate(7027.619 634.244)">
						<g id="Raggruppa_573" transform="translate(12.937 0)">
							
								<rect id="Rettangolo_321" x="0" y="0" opacity="0.2" fill="#FFFFFF" enable-background="new    " width="8.267" height="81.332"/>
							
								<rect id="Rettangolo_322" x="15.007" y="0" opacity="0.2" fill="#FFFFFF" enable-background="new    " width="11.631" height="81.332"/>
							
								<rect id="Rettangolo_323" x="39.846" y="0" opacity="0.2" fill="#FFFFFF" enable-background="new    " width="9.302" height="81.332"/>
							
								<rect id="Rettangolo_324" x="61.321" y="0" opacity="0.2" fill="#FFFFFF" enable-background="new    " width="11.889" height="81.332"/>
							
								<rect id="Rettangolo_325" x="85.125" y="0" opacity="0.2" fill="#FFFFFF" enable-background="new    " width="1.54" height="81.332"/>
							
								<rect id="Rettangolo_326" x="100.909" y="0" opacity="0.2" fill="#FFFFFF" enable-background="new    " width="2.057" height="81.332"/>
							
								<rect id="Rettangolo_327" x="109.964" y="0" opacity="0.2" fill="#FFFFFF" enable-background="new    " width="20.687" height="81.332"/>
							
								<rect id="Rettangolo_328" x="177.495" y="0" opacity="0.2" fill="#FFFFFF" enable-background="new    " width="10.854" height="81.332"/>
							
								<rect id="Rettangolo_330" x="165.85201" y="0" opacity="0.2" fill="#FFFFFF" enable-background="new    " width="1.281" height="81.332"/>
							
								<rect id="Rettangolo_329" x="200.006" y="0" opacity="0.2" fill="#FFFFFF" enable-background="new    " width="10.596" height="81.332"/>
							
								<rect id="Rettangolo_223" x="86.668" y="0" opacity="0.6" fill="#D6D6FC" enable-background="new    " width="14.359" height="81.332"/>
							
								<rect id="Rettangolo_226" x="137.21001" y="0" opacity="0.6" fill="#D6D6FC" enable-background="new    " width="28.755" height="81.332"/>
						</g>
						<g id="Raggruppa_572" transform="translate(0 0)">
							
								<rect id="Rettangolo_218" x="39.616" y="0" opacity="0.2" fill="#CCCCCC" enable-background="new    " width="13.111" height="81.332"/>
							
								<rect id="Rettangolo_219" x="0" y="0" opacity="0.2" fill="#CCCCCC" enable-background="new    " width="12.924" height="81.332"/>
							
								<rect id="Rettangolo_220" x="21.068" y="0" opacity="0.2" fill="#CCCCCC" enable-background="new    " width="6.907" height="81.332"/>
							
								<rect id="Rettangolo_221" x="62.091" y="0" opacity="0.2" fill="#CCCCCC" enable-background="new    " width="11.989" height="81.332"/>
							
								<rect id="Rettangolo_222" x="86.189" y="0" opacity="0.2" fill="#CCCCCC" enable-background="new    " width="11.696" height="81.332"/>
							
								<rect id="Rettangolo_224" x="115.926" y="0" opacity="0.2" fill="#CCCCCC" enable-background="new    " width="6.724" height="81.332"/>
							
								<rect id="Rettangolo_225" x="143.51401" y="0" opacity="0.2" fill="#CCCCCC" enable-background="new    " width="6.673" height="81.332"/>
							
								<rect id="Rettangolo_227" x="180.015" y="0" opacity="0.2" fill="#CCCCCC" enable-background="new    " width="10.37" height="81.332"/>
							
								<rect id="Rettangolo_228" x="201.40601" y="0" opacity="0.2" fill="#CCCCCC" enable-background="new    " width="11.463" height="81.332"/>
							
								<rect id="Rettangolo_229" x="223.45599" y="0" opacity="0.2" fill="#CCCCCC" enable-background="new    " width="7.513" height="81.332"/>
						</g>
					</g>
				</g>
				<g id="Rettangolo_331" transform="translate(745 1382)">
					<rect y="0" fill="none" width="40" height="81"/>
					<rect x="0.25" y="0.25" fill="none" stroke="#5151FC" stroke-width="0.5" width="39.5" height="80.5"/>
				</g>
			</g>
			<g id="Raggruppa_578" transform="translate(21 19)">
				<g enable-background="new    ">
					<path d="M723.13916,1402.03442h2.13916c1.30908,0,2.07861,0.63965,2.07861,1.73828c0,0.71973-0.32959,1.26953-0.91943,1.51953
						c0.82959,0.20996,1.2793,0.8291,1.2793,1.75879c0,1.25-0.79932,1.94922-2.22852,1.94922h-2.34912V1402.03442z
						 M725.41797,1405.07251c0.76953,0,1.22949-0.4502,1.22949-1.17969c0-0.75977-0.49951-1.19922-1.36914-1.19922h-1.4292v2.37891
						H725.41797z M725.43799,1408.34106c0.99951,0,1.55908-0.48047,1.55908-1.34961c0-0.81934-0.49951-1.2998-1.36914-1.2998
						h-1.77881v2.64941H725.43799z"/>
					<path d="M733.23682,1406.72192h-3.60791c0.02002,1.0791,0.61963,1.72852,1.58936,1.72852
						c0.53955,0,0.96924-0.13965,1.41895-0.61914l0.47998,0.41895c-0.57959,0.61035-1.14941,0.83008-1.90918,0.83008
						c-1.49902,0-2.26855-1.11914-2.26855-2.51855c0-1.38965,0.75977-2.56836,2.18896-2.56836
						c1.50879,0,2.13867,1.17871,2.13867,2.29785C733.26709,1406.43188,733.25684,1406.60181,733.23682,1406.72192z
						 M729.62891,1406.14185h2.97852c0-0.02051-0.01025-0.07031-0.01025-0.16016c-0.0498-0.7998-0.55957-1.40918-1.46875-1.40918
						C730.23877,1404.57251,729.68896,1405.27271,729.62891,1406.14185z"/>
					<path d="M738.49707,1409.76001c0,0.92969-0.86963,1.35938-2.10889,1.35938c-1.36914,0-2.19873-0.54004-2.19873-1.51953
						c0-0.09961,0.00977-0.16016,0.02002-0.21973l0.79932-0.67969c-0.37988-0.16992-0.63965-0.4502-0.63965-0.93945
						c0-0.39941,0.17969-0.69922,0.52979-0.93945c-0.25977-0.2998-0.41992-0.67969-0.41992-1.11914
						c0-1,0.81982-1.70898,1.87891-1.70898c0.47998,0,0.90967,0.14941,1.22949,0.39941l0.67969-0.58984l0.35986,0.4502
						l-0.66992,0.55957c0.16992,0.26953,0.27002,0.5791,0.27002,0.92969c0,1.00879-0.81934,1.67871-1.85889,1.67871
						c-0.37988,0-0.72949-0.08984-1.01953-0.25c-0.19971,0.11035-0.31982,0.29004-0.31982,0.5c0,0.5,0.61963,0.61914,1.3291,0.72949
						C737.3374,1408.55005,738.49707,1408.69067,738.49707,1409.76001z M737.80713,1409.81958
						c0-0.59961-0.7793-0.68945-1.59912-0.81934c-0.21973-0.03027-0.44971-0.07031-0.65967-0.12012l-0.66943,0.64941
						c-0.00977,0.05078-0.00977,0.07031-0.00977,0.09082c0,0.69922,0.70947,0.91895,1.54883,0.91895
						C737.2876,1410.53931,737.80713,1410.29907,737.80713,1409.81958z M735.15869,1405.72192
						c0,0.63965,0.45996,1.12988,1.19922,1.12988c0.73975,0,1.17969-0.48047,1.17969-1.12988
						c0-0.67969-0.45996-1.14941-1.16943-1.14941C735.66846,1404.57251,735.15869,1405.04224,735.15869,1405.72192z"/>
					<path d="M739.80908,1402.03442h0.79932v1.01953h-0.79932V1402.03442z M739.86914,1404.07251h0.68945v4.92773h-0.68945
						V1404.07251z"/>
					<path d="M746.30713,1405.98169v3.01855h-0.68945v-2.84863c0-1.05957-0.33984-1.54883-1.07959-1.54883
						c-0.92969,0-1.46924,0.7998-1.46924,2.18848v2.20898h-0.68945v-4.92773h0.68945v0.71973
						c0.31982-0.49902,0.91943-0.79883,1.62891-0.79883C745.75732,1403.99341,746.30713,1404.6731,746.30713,1405.98169z"/>
					<path d="M751.93701,1405.98169v3.01855h-0.68945v-2.84863c0-1.05957-0.33984-1.54883-1.07959-1.54883
						c-0.92969,0-1.46924,0.7998-1.46924,2.18848v2.20898h-0.68945v-4.92773h0.68945v0.71973
						c0.31982-0.49902,0.91943-0.79883,1.62891-0.79883C751.38721,1403.99341,751.93701,1404.6731,751.93701,1405.98169z"/>
					<path d="M753.5791,1402.03442h0.79932v1.01953h-0.79932V1402.03442z M753.63916,1404.07251h0.68945v4.92773h-0.68945
						V1404.07251z"/>
					<path d="M760.07666,1405.98169v3.01855h-0.68945v-2.84863c0-1.05957-0.33984-1.54883-1.07959-1.54883
						c-0.92969,0-1.46924,0.7998-1.46924,2.18848v2.20898h-0.68945v-4.92773h0.68945v0.71973
						c0.31982-0.49902,0.91943-0.79883,1.62891-0.79883C759.52686,1403.99341,760.07666,1404.6731,760.07666,1405.98169z"/>
					<path d="M765.6167,1409.76001c0,0.92969-0.86963,1.35938-2.10889,1.35938c-1.36914,0-2.19873-0.54004-2.19873-1.51953
						c0-0.09961,0.00977-0.16016,0.02002-0.21973l0.79932-0.67969c-0.37988-0.16992-0.63965-0.4502-0.63965-0.93945
						c0-0.39941,0.18018-0.69922,0.52979-0.93945c-0.25977-0.2998-0.41992-0.67969-0.41992-1.11914
						c0-1,0.81982-1.70898,1.87891-1.70898c0.47998,0,0.90967,0.14941,1.22949,0.39941l0.67969-0.58984l0.35986,0.4502
						l-0.66992,0.55957c0.16992,0.26953,0.27002,0.5791,0.27002,0.92969c0,1.00879-0.81934,1.67871-1.85889,1.67871
						c-0.37988,0-0.72949-0.08984-1.01953-0.25c-0.19971,0.11035-0.31982,0.29004-0.31982,0.5c0,0.5,0.61963,0.61914,1.3291,0.72949
						C764.45703,1408.55005,765.6167,1408.69067,765.6167,1409.76001z M764.92676,1409.81958
						c0-0.59961-0.7793-0.68945-1.59912-0.81934c-0.21973-0.03027-0.44971-0.07031-0.65967-0.12012l-0.66943,0.64941
						c-0.01025,0.05078-0.01025,0.07031-0.01025,0.09082c0,0.69922,0.70996,0.91895,1.54932,0.91895
						C764.40723,1410.53931,764.92676,1410.29907,764.92676,1409.81958z M762.27832,1405.72192
						c0,0.63965,0.45996,1.12988,1.19922,1.12988c0.73975,0,1.17969-0.48047,1.17969-1.12988
						c0-0.67969-0.45996-1.14941-1.16943-1.14941C762.78809,1404.57251,762.27832,1405.04224,762.27832,1405.72192z"/>
				</g>
				<g enable-background="new    ">
					<path d="M936.24902,1402.03442h4.56836v0.65918h-3.8584v2.42871h3.46777v0.66016h-3.46777v2.55859h3.8584v0.65918h-4.56836
						V1402.03442z"/>
					<path d="M946.26758,1405.98169v3.01855h-0.68945v-2.84863c0-1.05957-0.33984-1.54883-1.08008-1.54883
						c-0.92969,0-1.46875,0.7998-1.46875,2.18848v2.20898h-0.68945v-4.92773h0.68945v0.71973
						c0.31934-0.49902,0.91895-0.79883,1.62891-0.79883C945.71777,1403.99341,946.26758,1404.6731,946.26758,1405.98169z"/>
					<path d="M952.08691,1402.03442v6.96582h-0.68945v-0.65918c-0.35938,0.45898-0.90918,0.73926-1.62891,0.73926
						c-1.43945,0-2.18945-1.0791-2.18945-2.54883c0-1.53906,0.82031-2.54883,2.18945-2.54883
						c0.69922,0,1.25879,0.27051,1.62891,0.75v-2.69824H952.08691z M951.45703,1406.53149
						c0-1.16895-0.59961-1.93848-1.58887-1.93848c-0.99902,0-1.59863,0.76953-1.59863,1.93848
						c0,1.11914,0.5498,1.93945,1.59863,1.93945C950.90723,1408.47095,951.45703,1407.65063,951.45703,1406.53149z"/>
				</g>
			</g>
			<g id="Raggruppa_23663" transform="translate(743 1245)">
				<g enable-background="new    ">
					<path d="M31.91406,376.15057v-4.44727h0.70996v4.37695c0,1.34961,0.57959,1.98926,1.78906,1.98926
						c1.21924,0,1.79883-0.64941,1.79883-2.01855v-4.34766h0.70947v4.39746c0,1.74902-0.87939,2.66797-2.5083,2.66797
						C32.79395,378.76874,31.91406,377.85956,31.91406,376.15057z"/>
					<path d="M42.70215,375.65057v3.01855H42.0127v-2.84863c0-1.05957-0.33984-1.54883-1.07959-1.54883
						c-0.92969,0-1.46924,0.7998-1.46924,2.18848v2.20898h-0.68945v-4.92773h0.68945v0.71973
						c0.31982-0.49902,0.91943-0.79883,1.62891-0.79883C42.15234,373.66229,42.70215,374.34198,42.70215,375.65057z"/>
					<path d="M48.91162,376.20038c0,1.46973-0.74951,2.54883-2.18896,2.54883c-0.71924,0-1.26904-0.28027-1.62891-0.73926v0.65918
						H44.4043v-6.96582h0.68945v2.69824c0.36963-0.47949,0.92969-0.75,1.62891-0.75
						C48.09229,373.65155,48.91162,374.66132,48.91162,376.20038z M48.22217,376.20038c0-1.16895-0.59961-1.93848-1.59912-1.93848
						c-0.98975,0-1.58936,0.76953-1.58936,1.93848c0,1.11914,0.5498,1.93945,1.58936,1.93945
						C47.67236,378.13983,48.22217,377.31952,48.22217,376.20038z"/>
					<path d="M54.01221,375.60077v3.06836h-0.62988l-0.04004-0.75977c-0.38965,0.5498-0.98926,0.83984-1.76904,0.83984
						c-1.06934,0-1.69873-0.55957-1.69873-1.50977c0-0.49902,0.19971-0.87891,0.55957-1.09863
						c0.37988-0.21973,0.90967-0.31055,1.87891-0.31055h1.00928v-0.22949c0-0.85938-0.44971-1.3291-1.2793-1.3291
						c-0.61963,0-1.09912,0.26953-1.49902,0.81934l-0.49951-0.41992c0.5293-0.68945,1.16895-1.00879,2.00879-1.00879
						C53.29248,373.66229,54.01221,374.37128,54.01221,375.60077z M53.32227,376.46014v-0.06934h-0.94922
						c-0.90967,0-1.29932,0.05957-1.53906,0.24902c-0.18018,0.14062-0.27002,0.36035-0.27002,0.63965
						c0,0.5498,0.46973,0.90039,1.20947,0.90039C52.72266,378.17987,53.32227,377.50995,53.32227,376.46014z"/>
					<path d="M55.6543,377.59979v-5.89648h0.68945v5.85645c0,0.33984,0.12012,0.55957,0.44971,0.55957
						c0.1499,0,0.31982-0.04004,0.46973-0.08984l0.01025,0.58984c-0.20996,0.06934-0.45996,0.12988-0.67969,0.12988
						C56.02393,378.74921,55.6543,378.36932,55.6543,377.59979z"/>
					<path d="M62.06201,375.60077v3.06836h-0.62988l-0.04004-0.75977c-0.38965,0.5498-0.98926,0.83984-1.76904,0.83984
						c-1.06934,0-1.69873-0.55957-1.69873-1.50977c0-0.49902,0.19971-0.87891,0.55957-1.09863
						c0.37988-0.21973,0.90967-0.31055,1.87891-0.31055h1.00928v-0.22949c0-0.85938-0.44971-1.3291-1.2793-1.3291
						c-0.61963,0-1.09912,0.26953-1.49902,0.81934l-0.49951-0.41992c0.5293-0.68945,1.16895-1.00879,2.00879-1.00879
						C61.34229,373.66229,62.06201,374.37128,62.06201,375.60077z M61.37207,376.46014v-0.06934h-0.94922
						c-0.90967,0-1.29932,0.05957-1.53906,0.24902c-0.18018,0.14062-0.27002,0.36035-0.27002,0.63965
						c0,0.5498,0.46973,0.90039,1.20947,0.90039C60.77246,378.17987,61.37207,377.50995,61.37207,376.46014z"/>
					<path d="M67.67188,375.65057v3.01855h-0.68945v-2.84863c0-1.05957-0.33984-1.54883-1.07959-1.54883
						c-0.92969,0-1.46924,0.7998-1.46924,2.18848v2.20898h-0.68945v-4.92773h0.68945v0.71973
						c0.31982-0.49902,0.91943-0.79883,1.62891-0.79883C67.12207,373.66229,67.67188,374.34198,67.67188,375.65057z"/>
					<path d="M68.96387,376.22089c0-1.2998,0.72998-2.55859,2.21875-2.55859c0.87988,0,1.60938,0.43945,1.99902,1.3584
						l-0.65967,0.26074c-0.22949-0.62988-0.71924-1.00977-1.33936-1.00977c-1.04932,0-1.51904,0.93945-1.51904,1.94922
						c0,1.00879,0.46973,1.91895,1.5293,1.91895c0.61963,0,1.10938-0.37012,1.29932-1l0.63965,0.24023
						c-0.33008,0.89941-1.04932,1.36914-1.93896,1.36914C69.76367,378.74921,68.96387,377.59003,68.96387,376.22089z"/>
					<path d="M78.30127,376.39081h-3.60791c0.02002,1.0791,0.61963,1.72852,1.58936,1.72852
						c0.53955,0,0.96924-0.13965,1.41895-0.61914l0.47998,0.41895c-0.57959,0.61035-1.14941,0.83008-1.90918,0.83008
						c-1.49902,0-2.26855-1.11914-2.26855-2.51855c0-1.38965,0.75977-2.56836,2.18896-2.56836
						c1.50879,0,2.13867,1.17871,2.13867,2.29785C78.33154,376.10077,78.32129,376.27069,78.30127,376.39081z M74.69336,375.81073
						h2.97852c0-0.02051-0.01025-0.07031-0.01025-0.16016c-0.0498-0.7998-0.55957-1.40918-1.46875-1.40918
						C75.30322,374.24139,74.75342,374.94159,74.69336,375.81073z"/>
				</g>
				<line id="Linea_6422" fill="none" stroke="#FF0000" stroke-dasharray="2,4" x1="0.5" y1="375.5" x2="21.5" y2="375.5"/>
			</g>
			<g id="LEGENDA-LAT" transform="translate(8 -105)">
				<g id="Raggruppa_564">
					<g id="Raggruppa_561" transform="translate(0 -14)">
						<g id="Raggruppa_559" transform="translate(735 1535)">
							<g id="Raggruppa_516" transform="translate(0 132.528)">
								
									<circle id="Ellisse_284" fill="#FFFFFF" stroke="#5151FC" stroke-width="0.309" stroke-miterlimit="10" cx="12.545" cy="12.545" r="12.545"/>
								<circle id="Ellisse_285" fill="#5151FC" cx="12.544" cy="12.544" r="5.056"/>
							</g>
							<g enable-background="new    ">
								<path d="M32.06396,139.3205h0.70996v3.07812h3.61768v-3.07812h0.71973v6.96582H36.3916v-3.21777h-3.61768v3.21777h-0.70996
									V139.3205z"/>
								<path d="M39.10449,139.3205h0.79932v1.01953h-0.79932V139.3205z M39.16455,141.35858H39.854v4.92773h-0.68945V141.35858z"/>
								<path d="M45.51221,147.04608c0,0.92969-0.86963,1.35938-2.10889,1.35938c-1.36914,0-2.19873-0.54004-2.19873-1.51953
									c0-0.09961,0.00977-0.16016,0.02002-0.21973l0.79932-0.67969c-0.37988-0.16992-0.63965-0.4502-0.63965-0.93945
									c0-0.39941,0.18018-0.69922,0.52979-0.93945c-0.25977-0.2998-0.41992-0.67969-0.41992-1.11914
									c0-1,0.81982-1.70898,1.87891-1.70898c0.47998,0,0.90967,0.14941,1.22949,0.39941l0.67969-0.58984l0.35986,0.4502
									l-0.66992,0.55957c0.16992,0.26953,0.27002,0.5791,0.27002,0.92969c0,1.00879-0.81934,1.67871-1.85889,1.67871
									c-0.37988,0-0.72949-0.08984-1.01953-0.25c-0.19971,0.11035-0.31982,0.29004-0.31982,0.5
									c0,0.5,0.61963,0.61914,1.3291,0.72949C44.35254,145.83612,45.51221,145.97675,45.51221,147.04608z M44.82227,147.10565
									c0-0.59961-0.7793-0.68945-1.59912-0.81934c-0.21973-0.03027-0.44971-0.07031-0.65967-0.12012l-0.66943,0.64941
									c-0.01025,0.05078-0.01025,0.07031-0.01025,0.09082c0,0.69922,0.70996,0.91895,1.54932,0.91895
									C44.30273,147.82538,44.82227,147.58514,44.82227,147.10565z M42.17383,143.008c0,0.63965,0.45996,1.12988,1.19922,1.12988
									c0.73975,0,1.17969-0.48047,1.17969-1.12988c0-0.67969-0.45996-1.14941-1.16943-1.14941
									C42.68359,141.85858,42.17383,142.32831,42.17383,143.008z"/>
								<path d="M50.81201,143.26776v3.01855h-0.68945v-2.84863c0-1.06934-0.33984-1.54883-1.07959-1.54883
									c-0.93945,0-1.46924,0.76953-1.46924,2.12891v2.26855h-0.68945v-6.96582h0.68945v2.75781
									c0.31982-0.49902,0.91943-0.79883,1.62891-0.79883C50.26221,141.27948,50.81201,141.95917,50.81201,143.26776z"/>
								<path d="M52.47412,145.21698v-5.89648h0.68945v5.85645c0,0.33984,0.12012,0.55957,0.44971,0.55957
									c0.1499,0,0.31982-0.04004,0.46973-0.08984l0.01025,0.58984c-0.20996,0.06934-0.45996,0.12988-0.67969,0.12988
									C52.84375,146.36639,52.47412,145.98651,52.47412,145.21698z"/>
								<path d="M55.15381,139.3205h0.79932v1.01953h-0.79932V139.3205z M55.21387,141.35858h0.68945v4.92773h-0.68945V141.35858z"
									/>
								<path d="M61.56201,147.04608c0,0.92969-0.86963,1.35938-2.10889,1.35938c-1.36914,0-2.19873-0.54004-2.19873-1.51953
									c0-0.09961,0.00977-0.16016,0.02002-0.21973l0.79932-0.67969c-0.37988-0.16992-0.63965-0.4502-0.63965-0.93945
									c0-0.39941,0.18018-0.69922,0.52979-0.93945c-0.25977-0.2998-0.41992-0.67969-0.41992-1.11914
									c0-1,0.81982-1.70898,1.87891-1.70898c0.47998,0,0.90967,0.14941,1.22949,0.39941l0.67969-0.58984l0.35986,0.4502
									l-0.66992,0.55957c0.16992,0.26953,0.27002,0.5791,0.27002,0.92969c0,1.00879-0.81934,1.67871-1.85889,1.67871
									c-0.37988,0-0.72949-0.08984-1.01953-0.25c-0.19971,0.11035-0.31982,0.29004-0.31982,0.5
									c0,0.5,0.61963,0.61914,1.3291,0.72949C60.40234,145.83612,61.56201,145.97675,61.56201,147.04608z M60.87207,147.10565
									c0-0.59961-0.7793-0.68945-1.59912-0.81934c-0.21973-0.03027-0.44971-0.07031-0.65967-0.12012l-0.66943,0.64941
									c-0.01025,0.05078-0.01025,0.07031-0.01025,0.09082c0,0.69922,0.70996,0.91895,1.54932,0.91895
									C60.35254,147.82538,60.87207,147.58514,60.87207,147.10565z M58.22363,143.008c0,0.63965,0.45996,1.12988,1.19922,1.12988
									c0.73975,0,1.17969-0.48047,1.17969-1.12988c0-0.67969-0.45996-1.14941-1.16943-1.14941
									C58.7334,141.85858,58.22363,142.32831,58.22363,143.008z"/>
								<path d="M66.86182,143.26776v3.01855h-0.68945v-2.84863c0-1.06934-0.33984-1.54883-1.07959-1.54883
									c-0.93945,0-1.46924,0.76953-1.46924,2.12891v2.26855h-0.68945v-6.96582h0.68945v2.75781
									c0.31982-0.49902,0.91943-0.79883,1.62891-0.79883C66.31201,141.27948,66.86182,141.95917,66.86182,143.26776z"/>
								<path d="M70.61279,146.23651c-0.25977,0.08008-0.52002,0.12988-0.74951,0.12988c-0.65967,0-1.13965-0.37012-1.13965-1.23926
									v-3.18848H67.9043v-0.58008h0.81934v-1.37891l0.68945-0.51953v1.89844h1.18945v0.58008h-1.18945v3.09863
									c0,0.47949,0.22021,0.69922,0.60986,0.69922c0.16992,0,0.35986-0.04004,0.57959-0.10938L70.61279,146.23651z"/>
								<path d="M75.77148,144.008h-3.60791c0.02002,1.0791,0.61963,1.72852,1.58936,1.72852
									c0.53955,0,0.96924-0.13965,1.41895-0.61914l0.47998,0.41895c-0.57959,0.61035-1.14941,0.83008-1.90918,0.83008
									c-1.49902,0-2.26855-1.11914-2.26855-2.51855c0-1.38965,0.75977-2.56836,2.18896-2.56836
									c1.50879,0,2.13867,1.17871,2.13867,2.29785C75.80176,143.71796,75.7915,143.88788,75.77148,144.008z M72.16357,143.42792
									h2.97852c0-0.02051-0.01025-0.07031-0.01025-0.16016c-0.0498-0.7998-0.55957-1.40918-1.46875-1.40918
									C72.77344,141.85858,72.22363,142.55878,72.16357,143.42792z"/>
								<path d="M81.31152,139.3205v6.96582h-0.68994v-0.65918c-0.35938,0.45898-0.90918,0.73926-1.62891,0.73926
									c-1.43896,0-2.18896-1.0791-2.18896-2.54883c0-1.53906,0.81982-2.54883,2.18896-2.54883
									c0.69971,0,1.25928,0.27051,1.62891,0.75v-2.69824H81.31152z M80.68164,143.81757
									c0-1.16895-0.59961-1.93848-1.58887-1.93848c-0.99951,0-1.59912,0.76953-1.59912,1.93848
									c0,1.11914,0.54932,1.93945,1.59912,1.93945C80.13184,145.75702,80.68164,144.93671,80.68164,143.81757z"/>
								<path d="M92.62012,143.20819v3.07812h-0.68994v-2.88867c0-0.41992,0-1.50879-1.0791-1.50879
									c-0.99951,0-1.26953,0.91895-1.26953,2.02832v2.36914h-0.68945v-2.84863c0-0.81934-0.25-1.54883-1.10938-1.54883
									c-0.95947,0-1.22949,0.90918-1.22949,2.02832v2.36914h-0.68945l-0.01025-4.92773h0.66992v0.60059
									c0.30957-0.49023,0.80957-0.67969,1.35889-0.67969c0.68994,0,1.19971,0.2998,1.44922,0.94922
									c0.31982-0.62988,0.86963-0.94922,1.61914-0.94922C92.13037,141.27948,92.62012,142.05878,92.62012,143.20819z"/>
								<path d="M93.89355,143.81757c0-1.45898,0.94971-2.53809,2.35889-2.53809c1.39941,0,2.36865,1.0791,2.36865,2.53809
									c0,1.44922-0.95947,2.54883-2.36865,2.54883S93.89355,145.27655,93.89355,143.81757z M97.93164,143.81757
									c0-1.11914-0.62988-1.92871-1.6792-1.92871c-1.05957,0-1.66895,0.81934-1.66895,1.92871
									c0,1.11914,0.61963,1.93945,1.66895,1.93945C97.31201,145.75702,97.93164,144.91718,97.93164,143.81757z"/>
								<path d="M102.01221,146.23651c-0.25977,0.08008-0.52002,0.12988-0.74951,0.12988
									c-0.65967,0-1.13965-0.37012-1.13965-1.23926v-3.18848h-0.81934v-0.58008h0.81934v-1.37891l0.68945-0.51953v1.89844h1.18945
									v0.58008h-1.18945v3.09863c0,0.47949,0.22021,0.69922,0.60986,0.69922c0.16992,0,0.35986-0.04004,0.57959-0.10938
									L102.01221,146.23651z"/>
								<path d="M103.26367,139.3205h0.79932v1.01953h-0.79932V139.3205z M103.32373,141.35858h0.68945v4.92773h-0.68945V141.35858z
									"/>
								<path d="M106.1333,141.93866h-1.03955v-0.58008h1.04932v-0.75879c0-1.0498,0.60986-1.35938,1.23926-1.35938
									c0.27002,0,0.56982,0.05957,0.87988,0.18945l-0.24023,0.5498c-0.20996-0.09961-0.39941-0.16016-0.56934-0.16016
									c-0.39014,0-0.62988,0.27051-0.62988,0.72949v0.80957h1.41943v0.58008h-1.41943v4.34766h-0.68945V141.93866z"/>
							</g>
						</g>
						<g id="Raggruppa_560" transform="translate(734.765 1535.653)">
							<g id="pallini" transform="translate(6.599 164.938)">
								<g id="Raggruppa_515">
									
										<circle id="Ellisse_282" fill="#707070" stroke="#7F7F7F" stroke-width="1.625" stroke-miterlimit="10" cx="6.26" cy="6.26" r="6.26"/>
									<circle id="Ellisse_283" stroke="#7F7F7F" stroke-width="1.625" stroke-miterlimit="10" cx="6.26" cy="6.26" r="3.65"/>
								</g>
							</g>
							<g enable-background="new    ">
								<path d="M38.93567,167.05035v6.96582h-0.71973v-6.0166l-2.24902,5.43652H35.2677l-2.25879-5.45703v6.03711h-0.70996
									v-6.96582h1.03955l2.27881,5.55664l2.27881-5.55664H38.93567z"/>
								<path d="M40.5592,171.54742c0-1.45898,0.94971-2.53809,2.35889-2.53809c1.39941,0,2.36865,1.0791,2.36865,2.53809
									c0,1.44922-0.95947,2.54883-2.36865,2.54883S40.5592,173.00641,40.5592,171.54742z M44.59729,171.54742
									c0-1.11914-0.62988-1.92871-1.6792-1.92871c-1.05957,0-1.66895,0.81934-1.66895,1.92871
									c0,1.11914,0.61963,1.93945,1.66895,1.93945C43.97766,173.48688,44.59729,172.64703,44.59729,171.54742z"/>
								<path d="M48.67834,173.96637c-0.25977,0.08008-0.52002,0.12988-0.74951,0.12988c-0.65967,0-1.13965-0.37012-1.13965-1.23926
									v-3.18848h-0.81934v-0.58008h0.81934v-1.37891l0.68994-0.51953v1.89844h1.18896v0.58008h-1.18896v3.09863
									c0,0.47949,0.21973,0.69922,0.60938,0.69922c0.16992,0,0.35986-0.04004,0.57959-0.10938L48.67834,173.96637z"/>
								<path d="M49.92932,167.05035h0.79932v1.01953h-0.79932V167.05035z M49.98938,169.08844h0.68945v4.92773h-0.68945V169.08844z
									"/>
								<path d="M52.79895,169.66852H51.7594v-0.58008h1.04932v-0.75879c0-1.0498,0.60986-1.35938,1.23926-1.35938
									c0.27002,0,0.56982,0.05957,0.87988,0.18945l-0.24023,0.5498c-0.20996-0.09961-0.39941-0.16016-0.56934-0.16016
									c-0.39014,0-0.62988,0.27051-0.62988,0.72949v0.80957h1.41943v0.58008H53.4884v4.34766h-0.68945V169.66852z"/>
								<path d="M62.38733,170.94781v3.06836h-0.62988l-0.04004-0.75977c-0.38965,0.5498-0.98926,0.83984-1.76904,0.83984
									c-1.06934,0-1.69873-0.55957-1.69873-1.50977c0-0.49902,0.19971-0.87891,0.55957-1.09863
									c0.37988-0.21973,0.90967-0.31055,1.87891-0.31055h1.00928v-0.22949c0-0.85938-0.44971-1.3291-1.2793-1.3291
									c-0.61963,0-1.09912,0.26953-1.49902,0.81934l-0.49951-0.41992c0.5293-0.68945,1.16895-1.00879,2.00879-1.00879
									C61.6676,169.00934,62.38733,169.71832,62.38733,170.94781z M61.69739,171.80719v-0.06934h-0.94922
									c-0.90967,0-1.29932,0.05957-1.53906,0.24902c-0.18018,0.14062-0.27002,0.36035-0.27002,0.63965
									c0,0.5498,0.46973,0.90039,1.20947,0.90039C61.09778,173.52692,61.69739,172.85699,61.69739,171.80719z"/>
								<path d="M66.1178,173.96637c-0.25977,0.08008-0.52002,0.12988-0.74951,0.12988c-0.65967,0-1.13965-0.37012-1.13965-1.23926
									v-3.18848H63.4093v-0.58008h0.81934v-1.37891l0.68994-0.51953v1.89844h1.18896v0.58008h-1.18896v3.09863
									c0,0.47949,0.21973,0.69922,0.60938,0.69922c0.16992,0,0.35986-0.04004,0.57959-0.10938L66.1178,173.96637z"/>
								<path d="M72.20813,173.96637c-0.25977,0.08008-0.52002,0.12988-0.74951,0.12988c-0.65967,0-1.13965-0.37012-1.13965-1.23926
									v-3.18848h-0.81934v-0.58008h0.81934v-1.37891l0.68945-0.51953v1.89844h1.18945v0.58008h-1.18945v3.09863
									c0,0.47949,0.22021,0.69922,0.60986,0.69922c0.16992,0,0.35986-0.04004,0.57959-0.10938L72.20813,173.96637z"/>
								<path d="M77.4469,170.99762v3.01855h-0.68945v-2.84863c0-1.06934-0.33984-1.54883-1.07959-1.54883
									c-0.93945,0-1.46924,0.76953-1.46924,2.12891v2.26855h-0.68945v-6.96582h0.68945v2.75781
									c0.31982-0.49902,0.91943-0.79883,1.62891-0.79883C76.89709,169.00934,77.4469,169.68903,77.4469,170.99762z"/>
								<path d="M83.04651,171.73785H79.4386c0.02002,1.0791,0.61963,1.72852,1.58936,1.72852
									c0.53955,0,0.96924-0.13965,1.41895-0.61914l0.47998,0.41895c-0.57959,0.61035-1.14941,0.83008-1.90918,0.83008
									c-1.49902,0-2.26855-1.11914-2.26855-2.51855c0-1.38965,0.75977-2.56836,2.18896-2.56836
									c1.50879,0,2.13867,1.17871,2.13867,2.29785C83.07678,171.44781,83.06653,171.61774,83.04651,171.73785z M79.4386,171.15778
									h2.97852c0-0.02051-0.01025-0.07031-0.01025-0.16016c-0.0498-0.7998-0.55957-1.40918-1.46875-1.40918
									C80.04846,169.58844,79.49866,170.28864,79.4386,171.15778z"/>
								<path d="M91.70618,171.54742c0,1.46973-0.74951,2.54883-2.18896,2.54883c-0.71924,0-1.26904-0.28027-1.62891-0.73926
									v0.65918h-0.68945v-6.96582h0.68945v2.69824c0.36963-0.47949,0.92969-0.75,1.62891-0.75
									C90.88684,168.9986,91.70618,170.00836,91.70618,171.54742z M91.01672,171.54742c0-1.16895-0.59961-1.93848-1.59912-1.93848
									c-0.98975,0-1.58936,0.76953-1.58936,1.93848c0,1.11914,0.5498,1.93945,1.58936,1.93945
									C90.46692,173.48688,91.01672,172.66656,91.01672,171.54742z"/>
								<path d="M97.03625,171.73785h-3.60791c0.02002,1.0791,0.61963,1.72852,1.58936,1.72852
									c0.53955,0,0.96924-0.13965,1.41895-0.61914l0.47998,0.41895c-0.57959,0.61035-1.14941,0.83008-1.90918,0.83008
									c-1.49902,0-2.26855-1.11914-2.26855-2.51855c0-1.38965,0.75977-2.56836,2.18896-2.56836
									c1.50879,0,2.13867,1.17871,2.13867,2.29785C97.06653,171.44781,97.05627,171.61774,97.03625,171.73785z
									 M93.42834,171.15778h2.97852c0-0.02051-0.01025-0.07031-0.01025-0.16016c-0.0498-0.7998-0.55957-1.40918-1.46875-1.40918
									C94.03821,169.58844,93.4884,170.28864,93.42834,171.15778z"/>
								<path d="M102.29651,174.77594c0,0.92969-0.86963,1.35938-2.10889,1.35938c-1.36914,0-2.19873-0.54004-2.19873-1.51953
									c0-0.09961,0.00977-0.16016,0.02002-0.21973l0.79932-0.67969c-0.37988-0.16992-0.63965-0.4502-0.63965-0.93945
									c0-0.39941,0.17969-0.69922,0.52979-0.93945c-0.25977-0.2998-0.41992-0.67969-0.41992-1.11914
									c0-1,0.81982-1.70898,1.87891-1.70898c0.47998,0,0.90967,0.14941,1.22949,0.39941l0.67969-0.58984l0.35986,0.4502
									l-0.66992,0.55957c0.16992,0.26953,0.27002,0.5791,0.27002,0.92969c0,1.00879-0.81934,1.67871-1.85889,1.67871
									c-0.37988,0-0.72949-0.08984-1.01953-0.25c-0.19971,0.11035-0.31982,0.29004-0.31982,0.5
									c0,0.5,0.61963,0.61914,1.3291,0.72949C101.13684,173.56598,102.29651,173.7066,102.29651,174.77594z M101.60657,174.83551
									c0-0.59961-0.7793-0.68945-1.59912-0.81934c-0.21973-0.03027-0.44971-0.07031-0.65967-0.12012l-0.66943,0.64941
									c-0.00977,0.05078-0.00977,0.07031-0.00977,0.09082c0,0.69922,0.70947,0.91895,1.54883,0.91895
									C101.08704,175.55524,101.60657,175.315,101.60657,174.83551z M98.95813,170.73785
									c0,0.63965,0.45996,1.12988,1.19922,1.12988c0.73975,0,1.17969-0.48047,1.17969-1.12988
									c0-0.67969-0.45996-1.14941-1.16943-1.14941C99.4679,169.58844,98.95813,170.05817,98.95813,170.73785z"/>
								<path d="M103.60852,167.05035h0.79932v1.01953h-0.79932V167.05035z M103.66858,169.08844h0.68945v4.92773h-0.68945
									V169.08844z"/>
								<path d="M110.10657,170.99762v3.01855h-0.68945v-2.84863c0-1.05957-0.33984-1.54883-1.07959-1.54883
									c-0.92969,0-1.46924,0.7998-1.46924,2.18848v2.20898h-0.68945v-4.92773h0.68945v0.71973
									c0.31982-0.49902,0.91943-0.79883,1.62891-0.79883C109.55676,169.00934,110.10657,169.68903,110.10657,170.99762z"/>
								<path d="M115.73645,170.99762v3.01855H115.047v-2.84863c0-1.05957-0.33984-1.54883-1.07959-1.54883
									c-0.92969,0-1.46924,0.7998-1.46924,2.18848v2.20898h-0.68945v-4.92773h0.68945v0.71973
									c0.31982-0.49902,0.91943-0.79883,1.62891-0.79883C115.18665,169.00934,115.73645,169.68903,115.73645,170.99762z"/>
								<path d="M117.37854,167.05035h0.79932v1.01953h-0.79932V167.05035z M117.4386,169.08844h0.68945v4.92773h-0.68945V169.08844
									z"/>
								<path d="M123.8761,170.99762v3.01855h-0.68945v-2.84863c0-1.05957-0.33984-1.54883-1.07959-1.54883
									c-0.92969,0-1.46924,0.7998-1.46924,2.18848v2.20898h-0.68945v-4.92773h0.68945v0.71973
									c0.31982-0.49902,0.91943-0.79883,1.62891-0.79883C123.32629,169.00934,123.8761,169.68903,123.8761,170.99762z"/>
								<path d="M129.41663,174.77594c0,0.92969-0.87012,1.35938-2.10938,1.35938c-1.36914,0-2.19873-0.54004-2.19873-1.51953
									c0-0.09961,0.00977-0.16016,0.02002-0.21973l0.79932-0.67969c-0.37988-0.16992-0.63965-0.4502-0.63965-0.93945
									c0-0.39941,0.18018-0.69922,0.52979-0.93945c-0.25977-0.2998-0.41992-0.67969-0.41992-1.11914
									c0-1,0.81982-1.70898,1.87891-1.70898c0.48047,0,0.91016,0.14941,1.22949,0.39941l0.67969-0.58984l0.36035,0.4502
									l-0.66992,0.55957c0.16992,0.26953,0.26953,0.5791,0.26953,0.92969c0,1.00879-0.81934,1.67871-1.8584,1.67871
									c-0.37988,0-0.72949-0.08984-1.01953-0.25c-0.2002,0.11035-0.32031,0.29004-0.32031,0.5
									c0,0.5,0.62012,0.61914,1.3291,0.72949C128.25647,173.56598,129.41663,173.7066,129.41663,174.77594z M128.7262,174.83551
									c0-0.59961-0.7793-0.68945-1.59863-0.81934c-0.21973-0.03027-0.4502-0.07031-0.66016-0.12012l-0.66943,0.64941
									c-0.01025,0.05078-0.01025,0.07031-0.01025,0.09082c0,0.69922,0.70996,0.91895,1.5498,0.91895
									C128.20667,175.55524,128.7262,175.315,128.7262,174.83551z M126.07776,170.73785
									c0,0.63965,0.45996,1.12988,1.19922,1.12988c0.74023,0,1.17969-0.48047,1.17969-1.12988
									c0-0.67969-0.45996-1.14941-1.16895-1.14941C126.58752,169.58844,126.07776,170.05817,126.07776,170.73785z"/>
								<path d="M133.53674,167.05035h0.65918l-3.57715,9.07422h-0.65039L133.53674,167.05035z"/>
								<path d="M138.48596,171.73785h-3.6084c0.02051,1.0791,0.62012,1.72852,1.58984,1.72852
									c0.53906,0,0.96875-0.13965,1.41895-0.61914l0.47949,0.41895c-0.5791,0.61035-1.14941,0.83008-1.90918,0.83008
									c-1.49902,0-2.26855-1.11914-2.26855-2.51855c0-1.38965,0.75977-2.56836,2.18945-2.56836
									c1.50879,0,2.13867,1.17871,2.13867,2.29785C138.51624,171.44781,138.50549,171.61774,138.48596,171.73785z
									 M134.87756,171.15778h2.97852c0-0.02051-0.00977-0.07031-0.00977-0.16016c-0.0498-0.7998-0.55957-1.40918-1.46875-1.40918
									C135.48792,169.58844,134.93811,170.28864,134.87756,171.15778z"/>
								<path d="M143.83655,170.99762v3.01855h-0.68945v-2.84863c0-1.05957-0.33984-1.54883-1.08008-1.54883
									c-0.92969,0-1.46875,0.7998-1.46875,2.18848v2.20898h-0.68945v-4.92773h0.68945v0.71973
									c0.31934-0.49902,0.91895-0.79883,1.62891-0.79883C143.28674,169.00934,143.83655,169.68903,143.83655,170.99762z"/>
								<path d="M149.65588,167.05035v6.96582h-0.68945v-0.65918c-0.35938,0.45898-0.90918,0.73926-1.62891,0.73926
									c-1.43945,0-2.18945-1.0791-2.18945-2.54883c0-1.53906,0.82031-2.54883,2.18945-2.54883
									c0.69922,0,1.25879,0.27051,1.62891,0.75v-2.69824H149.65588z M149.026,171.54742
									c0-1.16895-0.59961-1.93848-1.58887-1.93848c-0.99902,0-1.59863,0.76953-1.59863,1.93848
									c0,1.11914,0.54883,1.93945,1.59863,1.93945C148.4762,173.48688,149.026,172.66656,149.026,171.54742z"/>
							</g>
							<g enable-background="new    ">
								<path d="M31.63928,183.54742c0-1.45898,0.94971-2.53809,2.35889-2.53809c1.39941,0,2.36865,1.0791,2.36865,2.53809
									c0,1.44922-0.95947,2.54883-2.36865,2.54883S31.63928,185.00641,31.63928,183.54742z M35.67737,183.54742
									c0-1.11914-0.62988-1.92871-1.6792-1.92871c-1.05957,0-1.66895,0.81934-1.66895,1.92871
									c0,1.11914,0.61963,1.93945,1.66895,1.93945C35.05774,185.48688,35.67737,184.64703,35.67737,183.54742z"/>
								<path d="M38.0592,181.66852h-1.03955v-0.58008h1.04932v-0.75879c0-1.0498,0.60986-1.35938,1.23926-1.35938
									c0.27002,0,0.56982,0.05957,0.87988,0.18945l-0.24023,0.5498c-0.20996-0.09961-0.39941-0.16016-0.56934-0.16016
									c-0.39014,0-0.62988,0.27051-0.62988,0.72949v0.80957h1.41943v0.58008h-1.41943v4.34766H38.0592V181.66852z"/>
								<path d="M46.02795,185.96637c-0.25977,0.08008-0.52002,0.12988-0.74951,0.12988c-0.65967,0-1.13965-0.37012-1.13965-1.23926
									v-3.18848h-0.81934v-0.58008h0.81934v-1.37891l0.68994-0.51953v1.89844h1.18896v0.58008h-1.18896v3.09863
									c0,0.47949,0.21973,0.69922,0.60938,0.69922c0.16992,0,0.35986-0.04004,0.57959-0.10938L46.02795,185.96637z"/>
								<path d="M51.26672,182.99762v3.01855h-0.68945v-2.84863c0-1.06934-0.33984-1.54883-1.07959-1.54883
									c-0.93945,0-1.46924,0.76953-1.46924,2.12891v2.26855h-0.68945v-6.96582h0.68945v2.75781
									c0.31982-0.49902,0.91943-0.79883,1.62891-0.79883C50.71692,181.00934,51.26672,181.68903,51.26672,182.99762z"/>
								<path d="M56.86633,183.73785h-3.60791c0.02002,1.0791,0.61963,1.72852,1.58936,1.72852
									c0.53955,0,0.96924-0.13965,1.41895-0.61914l0.47998,0.41895c-0.57959,0.61035-1.14941,0.83008-1.90918,0.83008
									c-1.49902,0-2.26855-1.11914-2.26855-2.51855c0-1.38965,0.75977-2.56836,2.18896-2.56836
									c1.50879,0,2.13867,1.17871,2.13867,2.29785C56.89661,183.44781,56.88635,183.61774,56.86633,183.73785z
									 M53.25842,183.15778h2.97852c0-0.02051-0.01025-0.07031-0.01025-0.16016c-0.0498-0.7998-0.55957-1.40918-1.46875-1.40918
									C53.86829,181.58844,53.31848,182.28864,53.25842,183.15778z"/>
								<path d="M60.95911,179.05035h0.79932v1.01953h-0.79932V179.05035z M61.01917,181.08844h0.68945v4.92773h-0.68945V181.08844z
									"/>
								<path d="M67.45667,182.99762v3.01855h-0.68945v-2.84863c0-1.05957-0.33984-1.54883-1.07959-1.54883
									c-0.92969,0-1.46924,0.7998-1.46924,2.18848v2.20898h-0.68945v-4.92773h0.68945v0.71973
									c0.31982-0.49902,0.91943-0.79883,1.62891-0.79883C66.90686,181.00934,67.45667,181.68903,67.45667,182.99762z"/>
								<path d="M68.74866,183.56793c0-1.2998,0.72998-2.55859,2.21875-2.55859c0.87988,0,1.60938,0.43945,1.99902,1.3584
									l-0.65967,0.26074c-0.22949-0.62988-0.71924-1.00977-1.33936-1.00977c-1.04932,0-1.51904,0.93945-1.51904,1.94922
									c0,1.00879,0.46973,1.91895,1.5293,1.91895c0.61963,0,1.10938-0.37012,1.29932-1l0.63965,0.24023
									c-0.33008,0.89941-1.04932,1.36914-1.93896,1.36914C69.54846,186.09625,68.74866,184.93707,68.74866,183.56793z"/>
								<path d="M74.17883,179.05035h0.79932v1.01953h-0.79932V179.05035z M74.23889,181.08844h0.68945v4.92773h-0.68945V181.08844z
									"/>
								<path d="M81.25598,183.54742c0,1.46973-0.74951,2.54883-2.18896,2.54883c-0.71924,0-1.26904-0.28027-1.62891-0.73926
									v2.69824h-0.68945v-6.9668h0.68945v0.66016c0.36963-0.47949,0.92969-0.75,1.62891-0.75
									C80.43665,180.9986,81.25598,182.00836,81.25598,183.54742z M80.56653,183.54742c0-1.16895-0.59961-1.93848-1.59912-1.93848
									c-0.98975,0-1.58936,0.76953-1.58936,1.93848c0,1.11914,0.5498,1.93945,1.58936,1.93945
									C80.01672,185.48688,80.56653,184.66656,80.56653,183.54742z"/>
								<path d="M82.62854,179.05035h0.79932v1.01953h-0.79932V179.05035z M82.6886,181.08844h0.68945v4.92773H82.6886V181.08844z"
									/>
								<path d="M87.24719,185.96637c-0.25977,0.08008-0.52002,0.12988-0.74951,0.12988c-0.65967,0-1.13965-0.37012-1.13965-1.23926
									v-3.18848H84.5387v-0.58008h0.81934v-1.37891l0.68945-0.51953v1.89844h1.18945v0.58008h-1.18945v3.09863
									c0,0.47949,0.22021,0.69922,0.60986,0.69922c0.16992,0,0.35986-0.04004,0.57959-0.10938L87.24719,185.96637z"/>
							</g>
						</g>
					</g>
					<g id="Raggruppa_562" transform="translate(735 1549)">
						<g enable-background="new    ">
							<path d="M32.38428,54.13934h0.70996v6.96582h-0.70996V54.13934z"/>
							<path d="M39.07227,58.08661v3.01855h-0.68945v-2.84863c0-1.05957-0.33984-1.54883-1.07959-1.54883
								c-0.92969,0-1.46924,0.7998-1.46924,2.18848v2.20898h-0.68945v-4.92773h0.68945v0.71973
								c0.31982-0.49902,0.91943-0.79883,1.62891-0.79883C38.52246,56.09833,39.07227,56.77802,39.07227,58.08661z"/>
							<path d="M40.36426,58.65692c0-1.2998,0.72998-2.55859,2.21875-2.55859c0.87988,0,1.60938,0.43945,1.99902,1.3584
								l-0.65967,0.26074c-0.22949-0.62988-0.71924-1.00977-1.33936-1.00977c-1.04932,0-1.51904,0.93945-1.51904,1.94922
								c0,1.00879,0.46973,1.91895,1.5293,1.91895c0.61963,0,1.10938-0.37012,1.29932-1l0.63965,0.24023
								c-0.33008,0.89941-1.04932,1.36914-1.93896,1.36914C41.16406,61.18524,40.36426,60.02606,40.36426,58.65692z"/>
							<path d="M45.79443,54.13934h0.79932v1.01953h-0.79932V54.13934z M45.85449,56.17743h0.68945v4.92773h-0.68945V56.17743z"/>
							<path d="M52.87207,58.63641c0,1.46973-0.74951,2.54883-2.18896,2.54883c-0.71924,0-1.26904-0.28027-1.62891-0.73926v2.69824
								h-0.68945v-6.9668h0.68945v0.66016c0.36963-0.47949,0.92969-0.75,1.62891-0.75
								C52.05273,56.08759,52.87207,57.09735,52.87207,58.63641z M52.18262,58.63641c0-1.16895-0.59961-1.93848-1.59912-1.93848
								c-0.98975,0-1.58936,0.76953-1.58936,1.93848c0,1.11914,0.5498,1.93945,1.58936,1.93945
								C51.63281,60.57587,52.18262,59.75555,52.18262,58.63641z"/>
							<path d="M54.24414,54.13934h0.79932v1.01953h-0.79932V54.13934z M54.3042,56.17743h0.68945v4.92773H54.3042V56.17743z"/>
							<path d="M58.86328,61.05536c-0.25977,0.08008-0.52002,0.12988-0.74951,0.12988c-0.65967,0-1.13965-0.37012-1.13965-1.23926
								v-3.18848h-0.81934v-0.58008h0.81934v-1.37891l0.68994-0.51953v1.89844h1.18896v0.58008h-1.18896v3.09863
								c0,0.47949,0.21973,0.69922,0.60938,0.69922c0.16992,0,0.35986-0.04004,0.57959-0.10938L58.86328,61.05536z"/>
							<path d="M66.83203,58.08661v3.01855h-0.68945v-2.84863c0-1.05957-0.33984-1.54883-1.07959-1.54883
								c-0.92969,0-1.46924,0.7998-1.46924,2.18848v2.20898H62.9043v-4.92773h0.68945v0.71973
								c0.31982-0.49902,0.91943-0.79883,1.62891-0.79883C66.28223,56.09833,66.83203,56.77802,66.83203,58.08661z"/>
							<path d="M72.2417,56.17743v4.92773h-0.68945V60.3952c-0.3501,0.53027-0.97949,0.79004-1.62939,0.79004
								c-1.11914,0-1.60889-0.76953-1.60889-1.98926v-3.01855h0.68945v2.84863c0,0.7998,0.14014,1.5498,1.07959,1.5498
								c0.97949,0,1.46924-0.84961,1.46924-2.12891v-2.26953H72.2417z"/>
							<path d="M80.82031,58.02704v3.07812h-0.68994v-2.88867c0-0.41992,0-1.50879-1.0791-1.50879
								c-0.99951,0-1.26953,0.91895-1.26953,2.02832v2.36914h-0.68945v-2.84863c0-0.81934-0.25-1.54883-1.10938-1.54883
								c-0.95947,0-1.22949,0.90918-1.22949,2.02832v2.36914h-0.68945l-0.01025-4.92773h0.66992v0.60059
								c0.30957-0.49023,0.80957-0.67969,1.35889-0.67969c0.68994,0,1.19971,0.2998,1.44922,0.94922
								c0.31982-0.62988,0.86963-0.94922,1.61914-0.94922C80.33057,56.09833,80.82031,56.87762,80.82031,58.02704z"/>
							<path d="M87.03125,58.63641c0,1.46973-0.74951,2.54883-2.18896,2.54883c-0.71924,0-1.26904-0.28027-1.62891-0.73926v0.65918
								h-0.68945v-6.96582h0.68945v2.69824c0.36963-0.47949,0.92969-0.75,1.62891-0.75
								C86.21191,56.08759,87.03125,57.09735,87.03125,58.63641z M86.3418,58.63641c0-1.16895-0.59961-1.93848-1.59912-1.93848
								c-0.98975,0-1.58936,0.76953-1.58936,1.93848c0,1.11914,0.5498,1.93945,1.58936,1.93945
								C85.79199,60.57587,86.3418,59.75555,86.3418,58.63641z"/>
							<path d="M92.36133,58.82684h-3.60791c0.02002,1.0791,0.61963,1.72852,1.58936,1.72852
								c0.53955,0,0.96924-0.13965,1.41895-0.61914l0.47998,0.41895c-0.57959,0.61035-1.14941,0.83008-1.90918,0.83008
								c-1.49902,0-2.26855-1.11914-2.26855-2.51855c0-1.38965,0.75977-2.56836,2.18896-2.56836
								c1.50879,0,2.13867,1.17871,2.13867,2.29785C92.3916,58.5368,92.38135,58.70673,92.36133,58.82684z M88.75342,58.24677
								h2.97852c0-0.02051-0.01025-0.07031-0.01025-0.16016c-0.0498-0.7998-0.55957-1.40918-1.46875-1.40918
								C89.36328,56.67743,88.81348,57.37762,88.75342,58.24677z"/>
							<path d="M96.78223,56.30829l-0.33984,0.55957c-0.22949-0.10059-0.43945-0.15039-0.64941-0.15039
								c-0.75977,0-1.31934,0.56934-1.31934,1.63965v2.74805h-0.68945v-4.92773h0.68945v0.74023
								c0.35986-0.64941,0.95947-0.81934,1.45898-0.81934C96.23242,56.09833,96.5127,56.1579,96.78223,56.30829z"/>
						</g>
						<g enable-background="new    ">
							<path d="M37.30176,70.04315v6.96582h-0.7793l-3.42822-5.75684v5.75684h-0.70996v-6.96582h0.77002l3.43799,5.72656v-5.72656
								H37.30176z"/>
							<path d="M43.16211,72.08124v4.92773h-0.68945v-0.70996c-0.34961,0.53027-0.97949,0.79004-1.62891,0.79004
								c-1.11963,0-1.60938-0.76953-1.60938-1.98926v-3.01855h0.68945v2.84863c0,0.7998,0.14014,1.5498,1.07959,1.5498
								c0.97949,0,1.46924-0.84961,1.46924-2.12891v-2.26953H43.16211z"/>
							<path d="M51.74072,73.93085v3.07812h-0.68994V74.1203c0-0.41992,0-1.50879-1.0791-1.50879
								c-0.99951,0-1.26953,0.91895-1.26953,2.02832v2.36914H48.0127v-2.84863c0-0.81934-0.25-1.54883-1.10938-1.54883
								c-0.95947,0-1.22949,0.90918-1.22949,2.02832v2.36914h-0.68945l-0.01025-4.92773h0.66992v0.60059
								c0.30957-0.49023,0.80957-0.67969,1.35889-0.67969c0.68994,0,1.19971,0.2998,1.44922,0.94922
								c0.31982-0.62988,0.86963-0.94922,1.61914-0.94922C51.25098,72.00214,51.74072,72.78143,51.74072,73.93085z"/>
							<path d="M57.95166,74.54022c0,1.46973-0.74951,2.54883-2.18896,2.54883c-0.71924,0-1.26904-0.28027-1.62891-0.73926v0.65918
								h-0.68945v-6.96582h0.68945v2.69824c0.36963-0.47949,0.92969-0.75,1.62891-0.75
								C57.13232,71.99139,57.95166,73.00116,57.95166,74.54022z M57.26221,74.54022c0-1.16895-0.59961-1.93848-1.59912-1.93848
								c-0.98975,0-1.58936,0.76953-1.58936,1.93848c0,1.11914,0.5498,1.93945,1.58936,1.93945
								C56.7124,76.47968,57.26221,75.65936,57.26221,74.54022z"/>
							<path d="M63.28174,74.73065h-3.60791c0.02002,1.0791,0.61963,1.72852,1.58936,1.72852
								c0.53955,0,0.96924-0.13965,1.41895-0.61914l0.47998,0.41895c-0.57959,0.61035-1.14941,0.83008-1.90918,0.83008
								c-1.49902,0-2.26855-1.11914-2.26855-2.51855c0-1.38965,0.75977-2.56836,2.18896-2.56836
								c1.50879,0,2.13867,1.17871,2.13867,2.29785C63.31201,74.44061,63.30176,74.61053,63.28174,74.73065z M59.67383,74.15057
								h2.97852c0-0.02051-0.01025-0.07031-0.01025-0.16016c-0.0498-0.7998-0.55957-1.40918-1.46875-1.40918
								C60.28369,72.58124,59.73389,73.28143,59.67383,74.15057z"/>
							<path d="M67.70264,72.2121l-0.33984,0.55957c-0.22949-0.10059-0.43945-0.15039-0.64941-0.15039
								c-0.75977,0-1.31934,0.56934-1.31934,1.63965v2.74805h-0.68945v-4.92773h0.68945v0.74023
								c0.35986-0.64941,0.95947-0.81934,1.45898-0.81934C67.15332,72.00214,67.43311,72.06171,67.70264,72.2121z"/>
							<path d="M71.02441,74.54022c0-1.45898,0.94922-2.53809,2.3584-2.53809c1.39941,0,2.36865,1.0791,2.36865,2.53809
								c0,1.44922-0.95947,2.54883-2.36865,2.54883S71.02441,75.99921,71.02441,74.54022z M75.06201,74.54022
								c0-1.11914-0.62988-1.92871-1.6792-1.92871c-1.05957,0-1.66895,0.81934-1.66895,1.92871
								c0,1.11914,0.61963,1.93945,1.66895,1.93945C74.44238,76.47968,75.06201,75.63983,75.06201,74.54022z"/>
							<path d="M77.44385,72.66132H76.4043v-0.58008h1.04932v-0.75879c0-1.0498,0.60986-1.35938,1.23926-1.35938
								c0.27002,0,0.56982,0.05957,0.87988,0.18945l-0.24023,0.5498c-0.20996-0.09961-0.39941-0.16016-0.56934-0.16016
								c-0.39014,0-0.62988,0.27051-0.62988,0.72949v0.80957h1.41943v0.58008H78.1333v4.34766h-0.68945V72.66132z"/>
							<path d="M82.83447,75.79999l0.57959-0.25977c0.17969,0.50977,0.65967,0.93945,1.4292,0.93945
								c0.66943,0,1.09961-0.33008,1.09961-0.84961c0-1.30957-2.83887-0.49023-2.83887-2.23926
								c0-0.85938,0.69971-1.38867,1.68945-1.38867c0.78955,0,1.4292,0.3291,1.76904,1.0293l-0.5498,0.2998
								c-0.23975-0.44043-0.62988-0.71973-1.23926-0.71973c-0.60986,0-0.99951,0.25-0.99951,0.67969
								c0,1.16895,2.84814,0.42969,2.84814,2.29883c0,0.99902-0.81934,1.49902-1.76855,1.49902
								C83.88379,77.08905,83.09424,76.58905,82.83447,75.79999z"/>
							<path d="M91.87158,74.73065h-3.60791c0.02002,1.0791,0.61963,1.72852,1.58936,1.72852
								c0.53955,0,0.96924-0.13965,1.41895-0.61914l0.47998,0.41895c-0.57959,0.61035-1.14941,0.83008-1.90918,0.83008
								c-1.49902,0-2.26855-1.11914-2.26855-2.51855c0-1.38965,0.75977-2.56836,2.18896-2.56836
								c1.50879,0,2.13867,1.17871,2.13867,2.29785C91.90186,74.44061,91.8916,74.61053,91.87158,74.73065z M88.26367,74.15057
								h2.97852c0-0.02051-0.01025-0.07031-0.01025-0.16016c-0.0498-0.7998-0.55957-1.40918-1.46875-1.40918
								C88.87354,72.58124,88.32373,73.28143,88.26367,74.15057z"/>
							<path d="M97.13184,77.76874c0,0.92969-0.86963,1.35938-2.10889,1.35938c-1.36914,0-2.19873-0.54004-2.19873-1.51953
								c0-0.09961,0.00977-0.16016,0.02002-0.21973l0.79932-0.67969c-0.37988-0.16992-0.63965-0.4502-0.63965-0.93945
								c0-0.39941,0.17969-0.69922,0.52979-0.93945c-0.25977-0.2998-0.41992-0.67969-0.41992-1.11914
								c0-1,0.81982-1.70898,1.87891-1.70898c0.47998,0,0.90967,0.14941,1.22949,0.39941l0.67969-0.58984l0.35986,0.4502
								l-0.66992,0.55957c0.16992,0.26953,0.27002,0.5791,0.27002,0.92969c0,1.00879-0.81934,1.67871-1.85889,1.67871
								c-0.37988,0-0.72949-0.08984-1.01953-0.25c-0.19971,0.11035-0.31982,0.29004-0.31982,0.5
								c0,0.5,0.61963,0.61914,1.3291,0.72949C95.97217,76.55878,97.13184,76.6994,97.13184,77.76874z M96.44189,77.82831
								c0-0.59961-0.7793-0.68945-1.59912-0.81934c-0.21973-0.03027-0.44971-0.07031-0.65967-0.12012l-0.66943,0.64941
								c-0.00977,0.05078-0.00977,0.07031-0.00977,0.09082c0,0.69922,0.70947,0.91895,1.54883,0.91895
								C95.92236,78.54803,96.44189,78.3078,96.44189,77.82831z M93.79346,73.73065c0,0.63965,0.45996,1.12988,1.19922,1.12988
								c0.73975,0,1.17969-0.48047,1.17969-1.12988c0-0.67969-0.45996-1.14941-1.16943-1.14941
								C94.30322,72.58124,93.79346,73.05096,93.79346,73.73065z"/>
							<path d="M105.26025,73.93085v3.07812h-0.68994V74.1203c0-0.41992,0-1.50879-1.0791-1.50879
								c-0.99951,0-1.26953,0.91895-1.26953,2.02832v2.36914h-0.68945v-2.84863c0-0.81934-0.25-1.54883-1.10938-1.54883
								c-0.95947,0-1.22949,0.90918-1.22949,2.02832v2.36914h-0.68945l-0.01025-4.92773h0.66992v0.60059
								c0.30957-0.49023,0.80957-0.67969,1.35889-0.67969c0.68994,0,1.19971,0.2998,1.44922,0.94922
								c0.31982-0.62988,0.86963-0.94922,1.61914-0.94922C104.77051,72.00214,105.26025,72.78143,105.26025,73.93085z"/>
							<path d="M110.86133,74.73065h-3.60791c0.02002,1.0791,0.61963,1.72852,1.58936,1.72852
								c0.53955,0,0.96924-0.13965,1.41895-0.61914l0.47998,0.41895c-0.57959,0.61035-1.14941,0.83008-1.90918,0.83008
								c-1.49902,0-2.26855-1.11914-2.26855-2.51855c0-1.38965,0.75977-2.56836,2.18896-2.56836
								c1.50879,0,2.13867,1.17871,2.13867,2.29785C110.8916,74.44061,110.88135,74.61053,110.86133,74.73065z M107.25342,74.15057
								h2.97852c0-0.02051-0.01025-0.07031-0.01025-0.16016c-0.0498-0.7998-0.55957-1.40918-1.46875-1.40918
								C107.86328,72.58124,107.31348,73.28143,107.25342,74.15057z"/>
							<path d="M116.21143,73.99042v3.01855h-0.68945v-2.84863c0-1.05957-0.33984-1.54883-1.07959-1.54883
								c-0.92969,0-1.46924,0.7998-1.46924,2.18848v2.20898h-0.68945v-4.92773h0.68945v0.71973
								c0.31982-0.49902,0.91943-0.79883,1.62891-0.79883C115.66162,72.00214,116.21143,72.68182,116.21143,73.99042z"/>
							<path d="M119.9624,76.95917c-0.25977,0.08008-0.52002,0.12988-0.74951,0.12988c-0.65967,0-1.13965-0.37012-1.13965-1.23926
								v-3.18848h-0.81934v-0.58008h0.81934v-1.37891l0.68945-0.51953v1.89844h1.18945v0.58008h-1.18945v3.09863
								c0,0.47949,0.22021,0.69922,0.60986,0.69922c0.16992,0,0.35986-0.04004,0.57959-0.10938L119.9624,76.95917z"/>
						</g>
						<g enable-background="new    ">
							<path d="M31.72461,87.54022c0-1.45898,0.94971-2.53809,2.35889-2.53809c1.39941,0,2.36865,1.0791,2.36865,2.53809
								c0,1.44922-0.95947,2.54883-2.36865,2.54883S31.72461,88.99921,31.72461,87.54022z M35.7627,87.54022
								c0-1.11914-0.62988-1.92871-1.6792-1.92871c-1.05957,0-1.66895,0.81934-1.66895,1.92871
								c0,1.11914,0.61963,1.93945,1.66895,1.93945C35.14307,89.47968,35.7627,88.63983,35.7627,87.54022z"/>
							<path d="M38.14453,85.66132h-1.03955v-0.58008h1.04932v-0.75879c0-1.0498,0.60986-1.35938,1.23926-1.35938
								c0.27002,0,0.56982,0.05957,0.87988,0.18945l-0.24023,0.5498c-0.20996-0.09961-0.39941-0.16016-0.56934-0.16016
								c-0.39014,0-0.62988,0.27051-0.62988,0.72949v0.80957h1.41943v0.58008h-1.41943v4.34766h-0.68945V85.66132z"/>
							<path d="M46.11328,89.95917c-0.25977,0.08008-0.52002,0.12988-0.74951,0.12988c-0.65967,0-1.13965-0.37012-1.13965-1.23926
								v-3.18848h-0.81934v-0.58008h0.81934v-1.37891l0.68994-0.51953v1.89844h1.18896v0.58008h-1.18896v3.09863
								c0,0.47949,0.21973,0.69922,0.60938,0.69922c0.16992,0,0.35986-0.04004,0.57959-0.10938L46.11328,89.95917z"/>
							<path d="M51.35205,86.99042v3.01855H50.6626v-2.84863c0-1.06934-0.33984-1.54883-1.07959-1.54883
								c-0.93945,0-1.46924,0.76953-1.46924,2.12891v2.26855h-0.68945v-6.96582h0.68945v2.75781
								c0.31982-0.49902,0.91943-0.79883,1.62891-0.79883C50.80225,85.00214,51.35205,85.68182,51.35205,86.99042z"/>
							<path d="M56.95166,87.73065h-3.60791c0.02002,1.0791,0.61963,1.72852,1.58936,1.72852
								c0.53955,0,0.96924-0.13965,1.41895-0.61914l0.47998,0.41895c-0.57959,0.61035-1.14941,0.83008-1.90918,0.83008
								c-1.49902,0-2.26855-1.11914-2.26855-2.51855c0-1.38965,0.75977-2.56836,2.18896-2.56836
								c1.50879,0,2.13867,1.17871,2.13867,2.29785C56.98193,87.44061,56.97168,87.61053,56.95166,87.73065z M53.34375,87.15057
								h2.97852c0-0.02051-0.01025-0.07031-0.01025-0.16016c-0.0498-0.7998-0.55957-1.40918-1.46875-1.40918
								C53.95361,85.58124,53.40381,86.28143,53.34375,87.15057z"/>
							<path d="M65.26221,90.00897l-1.7793-3.08789h-0.46973h-0.96924v3.08789h-0.70996v-6.96582h1.98926
								c1.49902,0,2.29883,0.66895,2.29883,1.92871c0,0.97949-0.48975,1.60938-1.42969,1.8584l1.89941,3.17871H65.26221z
								 M63.25293,86.26093c1.09961,0,1.64941-0.42969,1.64941-1.2793s-0.5498-1.2793-1.64941-1.2793h-1.20898v2.55859H63.25293z"/>
							<path d="M71.13184,87.73065h-3.60791c0.02002,1.0791,0.61963,1.72852,1.58936,1.72852
								c0.53955,0,0.96924-0.13965,1.41895-0.61914l0.47998,0.41895c-0.57959,0.61035-1.14941,0.83008-1.90918,0.83008
								c-1.49902,0-2.26855-1.11914-2.26855-2.51855c0-1.38965,0.75977-2.56836,2.18896-2.56836
								c1.50879,0,2.13867,1.17871,2.13867,2.29785C71.16211,87.44061,71.15186,87.61053,71.13184,87.73065z M67.52393,87.15057
								h2.97852c0-0.02051-0.01025-0.07031-0.01025-0.16016c-0.0498-0.7998-0.55957-1.40918-1.46875-1.40918
								C68.13379,85.58124,67.58398,86.28143,67.52393,87.15057z"/>
							<path d="M76.22217,86.94061v3.06836h-0.62988l-0.04004-0.75977c-0.38965,0.5498-0.98926,0.83984-1.76904,0.83984
								c-1.06934,0-1.69873-0.55957-1.69873-1.50977c0-0.49902,0.19971-0.87891,0.55957-1.09863
								c0.37988-0.21973,0.90967-0.31055,1.87891-0.31055h1.00928v-0.22949c0-0.85938-0.44971-1.3291-1.2793-1.3291
								c-0.61963,0-1.09912,0.26953-1.49902,0.81934l-0.49951-0.41992c0.5293-0.68945,1.16895-1.00879,2.00879-1.00879
								C75.50244,85.00214,76.22217,85.71112,76.22217,86.94061z M75.53223,87.79999v-0.06934h-0.94922
								c-0.90967,0-1.29932,0.05957-1.53906,0.24902c-0.18018,0.14062-0.27002,0.36035-0.27002,0.63965
								c0,0.5498,0.46973,0.90039,1.20947,0.90039C74.93262,89.51971,75.53223,88.84979,75.53223,87.79999z"/>
							<path d="M82.02197,83.04315v6.96582h-0.68994v-0.65918c-0.35938,0.45898-0.90918,0.73926-1.62891,0.73926
								c-1.43896,0-2.18896-1.0791-2.18896-2.54883c0-1.53906,0.81982-2.54883,2.18896-2.54883
								c0.69971,0,1.25928,0.27051,1.62891,0.75v-2.69824H82.02197z M81.39209,87.54022c0-1.16895-0.59961-1.93848-1.58887-1.93848
								c-0.99951,0-1.59912,0.76953-1.59912,1.93848c0,1.11914,0.5498,1.93945,1.59912,1.93945
								C80.84229,89.47968,81.39209,88.65936,81.39209,87.54022z"/>
							<path d="M87.7417,87.73065h-3.60791c0.02002,1.0791,0.61963,1.72852,1.58936,1.72852
								c0.53955,0,0.96924-0.13965,1.41895-0.61914l0.47998,0.41895c-0.57959,0.61035-1.14941,0.83008-1.90918,0.83008
								c-1.49902,0-2.26855-1.11914-2.26855-2.51855c0-1.38965,0.75977-2.56836,2.18896-2.56836
								c1.50879,0,2.13867,1.17871,2.13867,2.29785C87.77197,87.44061,87.76172,87.61053,87.7417,87.73065z M84.13379,87.15057
								h2.97852c0-0.02051-0.01025-0.07031-0.01025-0.16016c-0.0498-0.7998-0.55957-1.40918-1.46875-1.40918
								C84.74365,85.58124,84.19385,86.28143,84.13379,87.15057z"/>
							<path d="M92.16211,85.2121l-0.33984,0.55957c-0.22949-0.10059-0.43945-0.15039-0.64941-0.15039
								c-0.75977,0-1.31934,0.56934-1.31934,1.63965v2.74805h-0.68945v-4.92773h0.68945v0.74023
								c0.35986-0.64941,0.95947-0.81934,1.45898-0.81934C91.6123,85.00214,91.89258,85.06171,92.16211,85.2121z"/>
							<path d="M93.87354,83.04315h0.78955l-1.31934,2.83789h-0.46973L93.87354,83.04315z"/>
							<path d="M95.5542,88.79999l0.57959-0.25977c0.17969,0.50977,0.65967,0.93945,1.4292,0.93945
								c0.66943,0,1.09961-0.33008,1.09961-0.84961c0-1.30957-2.83887-0.49023-2.83887-2.23926
								c0-0.85938,0.69971-1.38867,1.68945-1.38867c0.78955,0,1.4292,0.3291,1.76904,1.0293l-0.5498,0.2998
								c-0.23975-0.44043-0.62988-0.71973-1.23926-0.71973c-0.60986,0-0.99951,0.25-0.99951,0.67969
								c0,1.16895,2.84814,0.42969,2.84814,2.29883c0,0.99902-0.81934,1.49902-1.76855,1.49902
								C96.60352,90.08905,95.81396,89.58905,95.5542,88.79999z"/>
							<path d="M107.98145,87.54022c0,1.46973-0.74951,2.54883-2.18896,2.54883c-0.71924,0-1.26904-0.28027-1.62891-0.73926v2.69824
								h-0.68945v-6.9668h0.68945v0.66016c0.36963-0.47949,0.92969-0.75,1.62891-0.75
								C107.16211,84.99139,107.98145,86.00116,107.98145,87.54022z M107.29199,87.54022c0-1.16895-0.59961-1.93848-1.59912-1.93848
								c-0.98975,0-1.58936,0.76953-1.58936,1.93848c0,1.11914,0.5498,1.93945,1.58936,1.93945
								C106.74219,89.47968,107.29199,88.65936,107.29199,87.54022z"/>
							<path d="M109.37402,88.93964v-5.89648h0.68945v5.85645c0,0.33984,0.12012,0.55957,0.44971,0.55957
								c0.1499,0,0.31982-0.04004,0.46973-0.08984l0.01025,0.58984c-0.20996,0.06934-0.45996,0.12988-0.67969,0.12988
								C109.74365,90.08905,109.37402,89.70917,109.37402,88.93964z"/>
							<path d="M111.68359,87.54022c0-1.45898,0.94971-2.53809,2.35889-2.53809c1.39941,0,2.36865,1.0791,2.36865,2.53809
								c0,1.44922-0.95947,2.54883-2.36865,2.54883S111.68359,88.99921,111.68359,87.54022z M115.72168,87.54022
								c0-1.11914-0.62988-1.92871-1.6792-1.92871c-1.05957,0-1.66895,0.81934-1.66895,1.92871
								c0,1.11914,0.61963,1.93945,1.66895,1.93945C115.10205,89.47968,115.72168,88.63983,115.72168,87.54022z"/>
							<path d="M119.80273,89.95917c-0.25977,0.08008-0.52002,0.12988-0.74951,0.12988c-0.65967,0-1.13965-0.37012-1.13965-1.23926
								v-3.18848h-0.81934v-0.58008h0.81934v-1.37891l0.68994-0.51953v1.89844h1.18896v0.58008h-1.18896v3.09863
								c0,0.47949,0.21973,0.69922,0.60938,0.69922c0.16992,0,0.35986-0.04004,0.57959-0.10938L119.80273,89.95917z"/>
						</g>
						<g enable-background="new    ">
							<path d="M1.28711,53.32489h0.88037v1.12207H1.28711V53.32489z M1.35303,55.56903H2.1123v5.42383H1.35303V55.56903z"/>
						</g>
						<g enable-background="new    ">
							<path d="M6.07227,57.14227l-2.59619-3.81738h1.18799l2.09033,3.13574l2.10107-3.13574h1.1665l-2.59668,3.81738
								l2.64062,3.85059H8.88867l-2.14551-3.13574l-2.1123,3.13574H3.44287L6.07227,57.14227z"/>
						</g>
						<g enable-background="new    ">
							<path d="M3.90186,78.83124c-0.31152,0.0957-0.62354,0.15527-0.89941,0.15527c-0.7915,0-1.36719-0.44336-1.36719-1.4873
								v-3.8252h-0.9834v-0.69629h0.9834v-1.6543l0.82764-0.62402v2.27832h1.42725v0.69629H2.46289v3.71777
								c0,0.5752,0.26367,0.83984,0.73145,0.83984c0.2041,0,0.43213-0.04883,0.6958-0.13281L3.90186,78.83124z"/>
						</g>
						<g enable-background="new    ">
							<path d="M7.60986,74.69354l-2.83008-4.16211h1.29492l2.27881,3.41797l2.29102-3.41797h1.271l-2.83057,4.16211
								l2.87891,4.19727h-1.28369L8.3418,75.47284l-2.30273,3.41797H4.74365L7.60986,74.69354z"/>
						</g>
					</g>
					<g id="Raggruppa_563" transform="translate(735 1539)">
						<g enable-background="new    ">
							<path d="M32.38428,24.49725h0.70996v6.96582h-0.70996V24.49725z"/>
							<path d="M39.07227,28.44452v3.01855h-0.68945v-2.84863c0-1.05957-0.33984-1.54883-1.07959-1.54883
								c-0.92969,0-1.46924,0.7998-1.46924,2.18848v2.20898h-0.68945v-4.92773h0.68945v0.71973
								c0.31982-0.49902,0.91943-0.79883,1.62891-0.79883C38.52246,26.45624,39.07227,27.13593,39.07227,28.44452z"/>
							<path d="M40.36426,29.01483c0-1.2998,0.72998-2.55859,2.21875-2.55859c0.87988,0,1.60938,0.43945,1.99902,1.3584
								l-0.65967,0.26074c-0.22949-0.62988-0.71924-1.00977-1.33936-1.00977c-1.04932,0-1.51904,0.93945-1.51904,1.94922
								c0,1.00879,0.46973,1.91895,1.5293,1.91895c0.61963,0,1.10938-0.37012,1.29932-1l0.63965,0.24023
								c-0.33008,0.89941-1.04932,1.36914-1.93896,1.36914C41.16406,31.54315,40.36426,30.38397,40.36426,29.01483z"/>
							<path d="M45.79443,24.49725h0.79932v1.01953h-0.79932V24.49725z M45.85449,26.53534h0.68945v4.92773h-0.68945V26.53534z"/>
							<path d="M52.87207,28.99432c0,1.46973-0.74951,2.54883-2.18896,2.54883c-0.71924,0-1.26904-0.28027-1.62891-0.73926v2.69824
								h-0.68945v-6.9668h0.68945v0.66016c0.36963-0.47949,0.92969-0.75,1.62891-0.75
								C52.05273,26.4455,52.87207,27.45526,52.87207,28.99432z M52.18262,28.99432c0-1.16895-0.59961-1.93848-1.59912-1.93848
								c-0.98975,0-1.58936,0.76953-1.58936,1.93848c0,1.11914,0.5498,1.93945,1.58936,1.93945
								C51.63281,30.93378,52.18262,30.11346,52.18262,28.99432z"/>
							<path d="M54.24414,24.49725h0.79932v1.01953h-0.79932V24.49725z M54.3042,26.53534h0.68945v4.92773H54.3042V26.53534z"/>
							<path d="M58.86328,31.41327c-0.25977,0.08008-0.52002,0.12988-0.74951,0.12988c-0.65967,0-1.13965-0.37012-1.13965-1.23926
								v-3.18848h-0.81934v-0.58008h0.81934v-1.37891l0.68994-0.51953v1.89844h1.18896v0.58008h-1.18896v3.09863
								c0,0.47949,0.21973,0.69922,0.60938,0.69922c0.16992,0,0.35986-0.04004,0.57959-0.10938L58.86328,31.41327z"/>
						</g>
						<g enable-background="new    ">
							<path d="M36.3125,50.46307l-1.7793-3.08789h-0.46973h-0.96924v3.08789h-0.70996v-6.96582h1.98926
								c1.49902,0,2.29883,0.66895,2.29883,1.92871c0,0.97949-0.48975,1.60938-1.4292,1.8584l1.89893,3.17871H36.3125z
								 M34.30322,46.71503c1.09961,0,1.64941-0.42969,1.64941-1.2793s-0.5498-1.2793-1.64941-1.2793h-1.20898v2.55859H34.30322z"/>
							<path d="M42.18213,48.18475h-3.60791c0.02002,1.0791,0.61963,1.72852,1.58936,1.72852
								c0.53955,0,0.96924-0.13965,1.41895-0.61914l0.47998,0.41895c-0.57959,0.61035-1.14941,0.83008-1.90918,0.83008
								c-1.49902,0-2.26855-1.11914-2.26855-2.51855c0-1.38965,0.75977-2.56836,2.18896-2.56836
								c1.50879,0,2.13867,1.17871,2.13867,2.29785C42.2124,47.89471,42.20215,48.06464,42.18213,48.18475z M38.57422,47.60468
								h2.97852c0-0.02051-0.01025-0.07031-0.01025-0.16016c-0.0498-0.7998-0.55957-1.40918-1.46875-1.40918
								C39.18408,46.03534,38.63428,46.73553,38.57422,47.60468z"/>
							<path d="M47.27295,47.39471v3.06836h-0.62988l-0.04004-0.75977c-0.38965,0.5498-0.98926,0.83984-1.76904,0.83984
								c-1.06934,0-1.69873-0.55957-1.69873-1.50977c0-0.49902,0.19971-0.87891,0.55957-1.09863
								c0.37988-0.21973,0.90967-0.31055,1.87891-0.31055h1.00928v-0.22949c0-0.85938-0.44971-1.3291-1.2793-1.3291
								c-0.61963,0-1.09912,0.26953-1.49902,0.81934l-0.49951-0.41992c0.5293-0.68945,1.16895-1.00879,2.00879-1.00879
								C46.55322,45.45624,47.27295,46.16522,47.27295,47.39471z M46.58301,48.25409v-0.06934h-0.94922
								c-0.90967,0-1.29932,0.05957-1.53906,0.24902c-0.18018,0.14062-0.27002,0.36035-0.27002,0.63965
								c0,0.5498,0.46973,0.90039,1.20947,0.90039C45.9834,49.97382,46.58301,49.30389,46.58301,48.25409z"/>
							<path d="M53.07227,43.49725v6.96582h-0.68994v-0.65918c-0.35938,0.45898-0.90918,0.73926-1.62891,0.73926
								c-1.43896,0-2.18896-1.0791-2.18896-2.54883c0-1.53906,0.81982-2.54883,2.18896-2.54883
								c0.69971,0,1.25928,0.27051,1.62891,0.75v-2.69824H53.07227z M52.44238,47.99432c0-1.16895-0.59961-1.93848-1.58887-1.93848
								c-0.99951,0-1.59912,0.76953-1.59912,1.93848c0,1.11914,0.54932,1.93945,1.59912,1.93945
								C51.89258,49.93378,52.44238,49.11346,52.44238,47.99432z"/>
							<path d="M58.79199,48.18475h-3.60791c0.02002,1.0791,0.61963,1.72852,1.58936,1.72852
								c0.53955,0,0.96924-0.13965,1.41895-0.61914l0.47998,0.41895c-0.57959,0.61035-1.14941,0.83008-1.90918,0.83008
								c-1.49902,0-2.26855-1.11914-2.26855-2.51855c0-1.38965,0.75977-2.56836,2.18896-2.56836
								c1.50879,0,2.13867,1.17871,2.13867,2.29785C58.82227,47.89471,58.81201,48.06464,58.79199,48.18475z M55.18408,47.60468
								h2.97852c0-0.02051-0.01025-0.07031-0.01025-0.16016c-0.0498-0.7998-0.55957-1.40918-1.46875-1.40918
								C55.79395,46.03534,55.24414,46.73553,55.18408,47.60468z"/>
							<path d="M63.21289,45.6662l-0.33984,0.55957c-0.22949-0.10059-0.43945-0.15039-0.64941-0.15039
								c-0.75977,0-1.31934,0.56934-1.31934,1.63965v2.74805h-0.68945v-4.92773h0.68945v0.74023
								c0.35986-0.64941,0.95947-0.81934,1.45898-0.81934C62.66309,45.45624,62.94336,45.51581,63.21289,45.6662z"/>
							<path d="M64.92383,43.49725h0.78955l-1.31934,2.83789h-0.46973L64.92383,43.49725z"/>
							<path d="M66.60449,49.25409l0.57959-0.25977c0.17969,0.50977,0.65967,0.93945,1.4292,0.93945
								c0.66943,0,1.09961-0.33008,1.09961-0.84961c0-1.30957-2.83887-0.49023-2.83887-2.23926
								c0-0.85938,0.69971-1.38867,1.68945-1.38867c0.78955,0,1.4292,0.3291,1.76904,1.0293l-0.5498,0.2998
								c-0.23975-0.44043-0.62988-0.71973-1.23926-0.71973c-0.60986,0-0.99951,0.25-0.99951,0.67969
								c0,1.16895,2.84814,0.42969,2.84814,2.29883c0,0.99902-0.81934,1.49902-1.76904,1.49902
								C67.65381,50.54315,66.86426,50.04315,66.60449,49.25409z"/>
							<path d="M79.03174,47.99432c0,1.46973-0.74951,2.54883-2.18896,2.54883c-0.71924,0-1.26904-0.28027-1.62891-0.73926v2.69824
								h-0.68945v-6.9668h0.68945v0.66016c0.36963-0.47949,0.92969-0.75,1.62891-0.75
								C78.2124,45.4455,79.03174,46.45526,79.03174,47.99432z M78.34229,47.99432c0-1.16895-0.59961-1.93848-1.59912-1.93848
								c-0.98975,0-1.58936,0.76953-1.58936,1.93848c0,1.11914,0.5498,1.93945,1.58936,1.93945
								C77.79248,49.93378,78.34229,49.11346,78.34229,47.99432z"/>
							<path d="M80.42432,49.39374v-5.89648h0.68945v5.85645c0,0.33984,0.12012,0.55957,0.44971,0.55957
								c0.1499,0,0.31982-0.04004,0.46973-0.08984l0.01025,0.58984c-0.20996,0.06934-0.45996,0.12988-0.67969,0.12988
								C80.79395,50.54315,80.42432,50.16327,80.42432,49.39374z"/>
							<path d="M82.73438,47.99432c0-1.45898,0.94922-2.53809,2.3584-2.53809c1.39941,0,2.36865,1.0791,2.36865,2.53809
								c0,1.44922-0.95947,2.54883-2.36865,2.54883S82.73438,49.45331,82.73438,47.99432z M86.77197,47.99432
								c0-1.11914-0.62988-1.92871-1.6792-1.92871c-1.05957,0-1.66895,0.81934-1.66895,1.92871
								c0,1.11914,0.61963,1.93945,1.66895,1.93945C86.15234,49.93378,86.77197,49.09393,86.77197,47.99432z"/>
							<path d="M90.85303,50.41327c-0.25977,0.08008-0.52002,0.12988-0.74951,0.12988c-0.65967,0-1.13965-0.37012-1.13965-1.23926
								v-3.18848h-0.81934v-0.58008h0.81934v-1.37891l0.68945-0.51953v1.89844h1.18945v0.58008h-1.18945v3.09863
								c0,0.47949,0.22021,0.69922,0.60986,0.69922c0.16992,0,0.35986-0.04004,0.57959-0.10938L90.85303,50.41327z"/>
						</g>
						<path id="Rettangolo_212" opacity="0.6" fill="#CCCCCC" enable-background="new    " d="M5.797,22.726h11
							c2.76142,0,5,2.23858,5,5l0,0c0,2.76143-2.23858,5-5,5h-11c-2.76142,0-5-2.23858-5-5l0,0
							C0.797,24.96458,3.03558,22.726,5.797,22.726z"/>
						<path id="Rettangolo_320" fill="#FFFFFF" stroke="#000000" stroke-width="0.5" d="M5.797,41.726h11c2.76142,0,5,2.23857,5,5
							l0,0c0,2.76143-2.23858,5-5,5h-11c-2.76142,0-5-2.23857-5-5l0,0C0.797,43.96458,3.03558,41.726,5.797,41.726z"/>
					</g>
				</g>
			</g>
		</g>
	</g>
</g>
</svg>
