<?xml version="1.0" encoding="utf-8"?>
<!-- Generator: Adobe Illustrator 25.0.0, SVG Export Plug-In . SVG Version: 6.00 Build 0)  -->
<svg version="1.1" id="Livello_1" xmlns="http://www.w3.org/2000/svg" xmlns:xlink="http://www.w3.org/1999/xlink" x="0px" y="0px"
	 viewBox="0 0 89.278 37.556" enable-background="new 0 0 89.278 37.556" xml:space="preserve">
<rect id="Rettangolo_9623" x="2.278" y="1.17739" fill="#FFFFFF" width="11" height="11"/>
<rect id="Rettangolo_9624" x="2.528" y="1.42739" fill="none" stroke="#000000" stroke-width="0.5" width="10.5" height="10.5"/>
<g enable-background="new    ">
	<path d="M24.41699,2.6792h0.70996v6.96582h-0.70996V2.6792z"/>
	<path d="M31.10498,6.62646v3.01855h-0.68945V6.79639c0-1.05957-0.33984-1.54883-1.07959-1.54883
		c-0.92969,0-1.46924,0.7998-1.46924,2.18848v2.20898h-0.68945V4.71729h0.68945v0.71973
		c0.31982-0.49902,0.91943-0.79883,1.62891-0.79883C30.55518,4.63818,31.10498,5.31787,31.10498,6.62646z"/>
	<path d="M32.74707,2.6792h0.79932v1.01953h-0.79932V2.6792z M32.80713,4.71729h0.68945v4.92773h-0.68945V4.71729z"/>
	<path d="M38.87549,5.26709l-3.2085,3.78809h3.18848v0.58984h-4.09814v-0.5l3.27832-3.83789h-3.1084V4.71729h3.94824V5.26709z"/>
	<path d="M40.12744,2.6792h0.79932v1.01953h-0.79932V2.6792z M40.1875,4.71729h0.68945v4.92773H40.1875V4.71729z"/>
	<path d="M42.26709,7.17627c0-1.45898,0.94971-2.53809,2.35889-2.53809c1.39941,0,2.36914,1.0791,2.36914,2.53809
		c0,1.44922-0.95996,2.54883-2.36914,2.54883S42.26709,8.63525,42.26709,7.17627z M46.30566,7.17627
		c0-1.11914-0.63037-1.92871-1.67969-1.92871c-1.05957,0-1.66895,0.81934-1.66895,1.92871
		c0,1.11914,0.61963,1.93945,1.66895,1.93945C45.68555,9.11572,46.30566,8.27588,46.30566,7.17627z"/>
	<path d="M55.23535,2.6792v6.96582h-0.69043V8.98584c-0.35938,0.45898-0.90918,0.73926-1.62891,0.73926
		c-1.43848,0-2.18848-1.0791-2.18848-2.54883c0-1.53906,0.81934-2.54883,2.18848-2.54883c0.7002,0,1.25977,0.27051,1.62891,0.75
		V2.6792H55.23535z M54.60547,7.17627c0-1.16895-0.59961-1.93848-1.58887-1.93848c-1,0-1.59961,0.76953-1.59961,1.93848
		c0,1.11914,0.5498,1.93945,1.59961,1.93945C54.05566,9.11572,54.60547,8.29541,54.60547,7.17627z"/>
	<path d="M60.95508,7.3667h-3.6084c0.02051,1.0791,0.62012,1.72852,1.58984,1.72852c0.53906,0,0.96875-0.13965,1.41895-0.61914
		l0.47949,0.41895c-0.5791,0.61035-1.14941,0.83008-1.90918,0.83008c-1.49902,0-2.26855-1.11914-2.26855-2.51855
		c0-1.38965,0.75977-2.56836,2.18945-2.56836c1.50879,0,2.13867,1.17871,2.13867,2.29785
		C60.98535,7.07666,60.97461,7.24658,60.95508,7.3667z M57.34668,6.78662h2.97852c0-0.02051-0.00977-0.07031-0.00977-0.16016
		c-0.0498-0.7998-0.55957-1.40918-1.46875-1.40918C57.95703,5.21729,57.40723,5.91748,57.34668,6.78662z"/>
	<path d="M62.33691,8.57568V2.6792h0.68945v5.85645c0,0.33984,0.12012,0.55957,0.4502,0.55957
		c0.14941,0,0.31934-0.04004,0.46973-0.08984l0.00977,0.58984c-0.20996,0.06934-0.45996,0.12988-0.67969,0.12988
		C62.70703,9.7251,62.33691,9.34521,62.33691,8.57568z"/>
	<path d="M69.85547,9.59521C69.5957,9.67529,69.33594,9.7251,69.10645,9.7251c-0.66016,0-1.13965-0.37012-1.13965-1.23926V5.29736
		h-0.81934V4.71729h0.81934V3.33838l0.68945-0.51953v1.89844h1.18945v0.58008h-1.18945V8.396
		c0,0.47949,0.21973,0.69922,0.60938,0.69922c0.16992,0,0.36035-0.04004,0.58008-0.10938L69.85547,9.59521z"/>
	<path d="M75.01465,7.3667h-3.6084c0.02051,1.0791,0.62012,1.72852,1.58984,1.72852c0.53906,0,0.96875-0.13965,1.41895-0.61914
		l0.47949,0.41895c-0.5791,0.61035-1.14941,0.83008-1.90918,0.83008c-1.49902,0-2.26855-1.11914-2.26855-2.51855
		c0-1.38965,0.75977-2.56836,2.18945-2.56836c1.50879,0,2.13867,1.17871,2.13867,2.29785
		C75.04492,7.07666,75.03418,7.24658,75.01465,7.3667z M71.40625,6.78662h2.97852c0-0.02051-0.00977-0.07031-0.00977-0.16016
		c-0.0498-0.7998-0.55957-1.40918-1.46875-1.40918C72.0166,5.21729,71.4668,5.91748,71.40625,6.78662z"/>
	<path d="M75.90723,8.43604l0.58008-0.25977c0.17969,0.50977,0.65918,0.93945,1.42871,0.93945
		c0.66992,0,1.09961-0.33008,1.09961-0.84961c0-1.30957-2.83887-0.49023-2.83887-2.23926c0-0.85938,0.7002-1.38867,1.68945-1.38867
		c0.79004,0,1.42969,0.3291,1.76953,1.0293l-0.5498,0.2998c-0.24023-0.44043-0.62988-0.71973-1.23926-0.71973
		c-0.61035,0-1,0.25-1,0.67969c0,1.16895,2.84863,0.42969,2.84863,2.29883c0,0.99902-0.81934,1.49902-1.76855,1.49902
		C76.95703,9.7251,76.16699,9.2251,75.90723,8.43604z"/>
	<path d="M83.14551,9.59521c-0.25977,0.08008-0.51953,0.12988-0.74902,0.12988c-0.66016,0-1.13965-0.37012-1.13965-1.23926V5.29736
		H80.4375V4.71729h0.81934V3.33838l0.68945-0.51953v1.89844h1.18945v0.58008h-1.18945V8.396
		c0,0.47949,0.21973,0.69922,0.60938,0.69922c0.16992,0,0.36035-0.04004,0.58008-0.10938L83.14551,9.59521z"/>
	<path d="M83.97754,7.17627c0-1.45898,0.94922-2.53809,2.3584-2.53809c1.39941,0,2.36816,1.0791,2.36816,2.53809
		c0,1.44922-0.95898,2.54883-2.36816,2.54883S83.97754,8.63525,83.97754,7.17627z M88.01465,7.17627
		c0-1.11914-0.62988-1.92871-1.67871-1.92871c-1.05957,0-1.66895,0.81934-1.66895,1.92871
		c0,1.11914,0.61914,1.93945,1.66895,1.93945C87.39551,9.11572,88.01465,8.27588,88.01465,7.17627z"/>
</g>
<g enable-background="new    ">
	<path d="M24.41699,25.86426h4.72754v0.65918h-4.01758v2.42871h3.51807v0.66016h-3.51807v3.21777h-0.70996V25.86426z"/>
	<path d="M30.35742,25.86426h0.79932v1.01953h-0.79932V25.86426z M30.41748,27.90234h0.68945v4.92773h-0.68945V27.90234z"/>
	<path d="M36.85498,29.81152v3.01855h-0.68945v-2.84863c0-1.05957-0.33984-1.54883-1.07959-1.54883
		c-0.92969,0-1.46924,0.7998-1.46924,2.18848v2.20898h-0.68945v-4.92773h0.68945v0.71973
		c0.31982-0.49902,0.91943-0.79883,1.62891-0.79883C36.30518,27.82324,36.85498,28.50293,36.85498,29.81152z"/>
	<path d="M42.45459,30.55176h-3.60791c0.02002,1.0791,0.61963,1.72852,1.58936,1.72852c0.53955,0,0.96924-0.13965,1.41895-0.61914
		l0.47998,0.41895c-0.57959,0.61035-1.14941,0.83008-1.90918,0.83008c-1.49902,0-2.26855-1.11914-2.26855-2.51855
		c0-1.38965,0.75977-2.56836,2.18896-2.56836c1.50879,0,2.13867,1.17871,2.13867,2.29785
		C42.48486,30.26172,42.47461,30.43164,42.45459,30.55176z M38.84668,29.97168h2.97852c0-0.02051-0.01025-0.07031-0.01025-0.16016
		c-0.0498-0.7998-0.55957-1.40918-1.46875-1.40918C39.45654,28.40234,38.90674,29.10254,38.84668,29.97168z"/>
	<path d="M50.72559,25.86426v6.96582h-0.69043V32.1709c-0.35938,0.45898-0.90918,0.73926-1.62891,0.73926
		c-1.43848,0-2.18848-1.0791-2.18848-2.54883c0-1.53906,0.81934-2.54883,2.18848-2.54883c0.7002,0,1.25977,0.27051,1.62891,0.75
		v-2.69824H50.72559z M50.0957,30.36133c0-1.16895-0.59961-1.93848-1.58887-1.93848c-1,0-1.59961,0.76953-1.59961,1.93848
		c0,1.11914,0.5498,1.93945,1.59961,1.93945C49.5459,32.30078,50.0957,31.48047,50.0957,30.36133z"/>
	<path d="M56.44531,30.55176h-3.6084c0.02051,1.0791,0.62012,1.72852,1.58984,1.72852c0.53906,0,0.96875-0.13965,1.41895-0.61914
		l0.47949,0.41895c-0.5791,0.61035-1.14941,0.83008-1.90918,0.83008c-1.49902,0-2.26855-1.11914-2.26855-2.51855
		c0-1.38965,0.75977-2.56836,2.18945-2.56836c1.50879,0,2.13867,1.17871,2.13867,2.29785
		C56.47559,30.26172,56.46484,30.43164,56.44531,30.55176z M52.83691,29.97168h2.97852c0-0.02051-0.00977-0.07031-0.00977-0.16016
		c-0.0498-0.7998-0.55957-1.40918-1.46875-1.40918C53.44727,28.40234,52.89746,29.10254,52.83691,29.97168z"/>
	<path d="M57.82715,31.76074v-5.89648h0.68945v5.85645c0,0.33984,0.12012,0.55957,0.4502,0.55957
		c0.14941,0,0.31934-0.04004,0.46973-0.08984l0.00977,0.58984c-0.20996,0.06934-0.45996,0.12988-0.67969,0.12988
		C58.19727,32.91016,57.82715,32.53027,57.82715,31.76074z"/>
	<path d="M65.3457,32.78027c-0.25977,0.08008-0.51953,0.12988-0.74902,0.12988c-0.66016,0-1.13965-0.37012-1.13965-1.23926v-3.18848
		H62.6377v-0.58008h0.81934v-1.37891l0.68945-0.51953v1.89844h1.18945v0.58008h-1.18945v3.09863
		c0,0.47949,0.21973,0.69922,0.60938,0.69922c0.16992,0,0.36035-0.04004,0.58008-0.10938L65.3457,32.78027z"/>
	<path d="M70.50488,30.55176h-3.6084c0.02051,1.0791,0.62012,1.72852,1.58984,1.72852c0.53906,0,0.96875-0.13965,1.41895-0.61914
		l0.47949,0.41895c-0.5791,0.61035-1.14941,0.83008-1.90918,0.83008c-1.49902,0-2.26855-1.11914-2.26855-2.51855
		c0-1.38965,0.75977-2.56836,2.18945-2.56836c1.50879,0,2.13867,1.17871,2.13867,2.29785
		C70.53516,30.26172,70.52441,30.43164,70.50488,30.55176z M66.89648,29.97168H69.875c0-0.02051-0.00977-0.07031-0.00977-0.16016
		c-0.0498-0.7998-0.55957-1.40918-1.46875-1.40918C67.50684,28.40234,66.95703,29.10254,66.89648,29.97168z"/>
	<path d="M71.39746,31.62109l0.58008-0.25977c0.17969,0.50977,0.65918,0.93945,1.42871,0.93945
		c0.66992,0,1.09961-0.33008,1.09961-0.84961c0-1.30957-2.83887-0.49023-2.83887-2.23926c0-0.85938,0.7002-1.38867,1.68945-1.38867
		c0.79004,0,1.42969,0.3291,1.76953,1.0293l-0.5498,0.2998c-0.24023-0.44043-0.62988-0.71973-1.23926-0.71973
		c-0.61035,0-1,0.25-1,0.67969c0,1.16895,2.84863,0.42969,2.84863,2.29883c0,0.99902-0.81934,1.49902-1.76855,1.49902
		C72.44727,32.91016,71.65723,32.41016,71.39746,31.62109z"/>
	<path d="M78.63574,32.78027c-0.25977,0.08008-0.51953,0.12988-0.74902,0.12988c-0.66016,0-1.13965-0.37012-1.13965-1.23926
		v-3.18848h-0.81934v-0.58008h0.81934v-1.37891l0.68945-0.51953v1.89844h1.18945v0.58008h-1.18945v3.09863
		c0,0.47949,0.21973,0.69922,0.60938,0.69922c0.16992,0,0.36035-0.04004,0.58008-0.10938L78.63574,32.78027z"/>
	<path d="M79.46777,30.36133c0-1.45898,0.94922-2.53809,2.3584-2.53809c1.39941,0,2.36816,1.0791,2.36816,2.53809
		c0,1.44922-0.95898,2.54883-2.36816,2.54883S79.46777,31.82031,79.46777,30.36133z M83.50488,30.36133
		c0-1.11914-0.62988-1.92871-1.67871-1.92871c-1.05957,0-1.66895,0.81934-1.66895,1.92871
		c0,1.11914,0.61914,1.93945,1.66895,1.93945C82.88574,32.30078,83.50488,31.46094,83.50488,30.36133z"/>
</g>
<rect id="Rettangolo_9625" x="2.27816" y="24.36273" transform="matrix(0.70711 -0.70711 0.70711 0.70711 -18.83797 14.24658)" fill="#FFFFFF" width="11" height="11"/>
<rect id="Rettangolo_9626" x="2.5276" y="24.61273" transform="matrix(0.70711 -0.70711 0.70711 0.70711 -18.83813 14.24619)" fill="none" stroke="#000000" stroke-width="0.5" width="10.5" height="10.5"/>
</svg>
