<?xml version="1.0" encoding="utf-8"?>
<!-- Generator: Adobe Illustrator 25.0.0, SVG Export Plug-In . SVG Version: 6.00 Build 0)  -->
<svg version="1.1" id="Livello_1" xmlns="http://www.w3.org/2000/svg" xmlns:xlink="http://www.w3.org/1999/xlink" x="0px" y="0px"
	 viewBox="0 0 300 60.4" enable-background="new 0 0 300 60.4" xml:space="preserve">
<rect id="Rettangolo_9623" x="4.33499" y="0.99399" fill="#FFFFFF" width="11" height="11"/>
<rect id="Rettangolo_9624" x="4.535" y="1.29398" fill="none" stroke="#000000" stroke-width="0.5" width="10.5" height="10.5"/>
<g enable-background="new    ">
	<path d="M26.45508,3.03418h2.13916c1.30908,0,2.07861,0.63965,2.07861,1.73828c0,0.71973-0.32959,1.26953-0.91943,1.51953
		c0.82959,0.20996,1.2793,0.8291,1.2793,1.75879c0,1.25-0.79932,1.94922-2.22852,1.94922h-2.34912V3.03418z M28.73389,6.07227
		c0.76953,0,1.22949-0.4502,1.22949-1.17969c0-0.75977-0.49951-1.19922-1.36914-1.19922h-1.4292v2.37891H28.73389z
		 M28.75391,9.34082c0.99951,0,1.55908-0.48047,1.55908-1.34961c0-0.81934-0.49951-1.2998-1.36914-1.2998h-1.77881v2.64941H28.75391
		z"/>
	<path d="M36.55273,7.72168h-3.60791c0.02002,1.0791,0.61963,1.72852,1.58936,1.72852c0.53955,0,0.96924-0.13965,1.41895-0.61914
		L36.43311,9.25c-0.57959,0.61035-1.14941,0.83008-1.90918,0.83008c-1.49902,0-2.26855-1.11914-2.26855-2.51855
		c0-1.38965,0.75977-2.56836,2.18896-2.56836c1.50879,0,2.13867,1.17871,2.13867,2.29785
		C36.58301,7.43164,36.57275,7.60156,36.55273,7.72168z M32.94482,7.1416h2.97852c0-0.02051-0.01025-0.07031-0.01025-0.16016
		c-0.0498-0.7998-0.55957-1.40918-1.46875-1.40918C33.55469,5.57227,33.00488,6.27246,32.94482,7.1416z"/>
	<path d="M41.81299,10.75977c0,0.92969-0.86963,1.35938-2.10889,1.35938c-1.36914,0-2.19873-0.54004-2.19873-1.51953
		c0-0.09961,0.00977-0.16016,0.02002-0.21973l0.79932-0.67969c-0.37988-0.16992-0.63965-0.4502-0.63965-0.93945
		c0-0.39941,0.17969-0.69922,0.52979-0.93945c-0.25977-0.2998-0.41992-0.67969-0.41992-1.11914c0-1,0.81982-1.70898,1.87891-1.70898
		c0.47998,0,0.90967,0.14941,1.22949,0.39941l0.67969-0.58984l0.35986,0.4502L41.27295,5.8125
		c0.16992,0.26953,0.27002,0.5791,0.27002,0.92969c0,1.00879-0.81934,1.67871-1.85889,1.67871
		c-0.37988,0-0.72949-0.08984-1.01953-0.25c-0.19971,0.11035-0.31982,0.29004-0.31982,0.5c0,0.5,0.61963,0.61914,1.3291,0.72949
		C40.65332,9.5498,41.81299,9.69043,41.81299,10.75977z M41.12305,10.81934c0-0.59961-0.7793-0.68945-1.59912-0.81934
		c-0.21973-0.03027-0.44971-0.07031-0.65967-0.12012l-0.66943,0.64941c-0.00977,0.05078-0.00977,0.07031-0.00977,0.09082
		c0,0.69922,0.70947,0.91895,1.54883,0.91895C40.60352,11.53906,41.12305,11.29883,41.12305,10.81934z M38.47461,6.72168
		c0,0.63965,0.45996,1.12988,1.19922,1.12988c0.73975,0,1.17969-0.48047,1.17969-1.12988c0-0.67969-0.45996-1.14941-1.16943-1.14941
		C38.98438,5.57227,38.47461,6.04199,38.47461,6.72168z"/>
	<path d="M43.125,3.03418h0.79932v1.01953H43.125V3.03418z M43.18506,5.07227h0.68945V10h-0.68945V5.07227z"/>
	<path d="M49.62305,6.98145V10h-0.68945V7.15137c0-1.05957-0.33984-1.54883-1.07959-1.54883
		c-0.92969,0-1.46924,0.7998-1.46924,2.18848V10h-0.68945V5.07227h0.68945v0.71973c0.31982-0.49902,0.91943-0.79883,1.62891-0.79883
		C49.07324,4.99316,49.62305,5.67285,49.62305,6.98145z"/>
	<path d="M55.25293,6.98145V10h-0.68945V7.15137c0-1.05957-0.33984-1.54883-1.07959-1.54883
		c-0.92969,0-1.46924,0.7998-1.46924,2.18848V10H51.3252V5.07227h0.68945v0.71973c0.31982-0.49902,0.91943-0.79883,1.62891-0.79883
		C54.70312,4.99316,55.25293,5.67285,55.25293,6.98145z"/>
	<path d="M56.89502,3.03418h0.79932v1.01953h-0.79932V3.03418z M56.95508,5.07227h0.68945V10h-0.68945V5.07227z"/>
	<path d="M63.39258,6.98145V10h-0.68945V7.15137c0-1.05957-0.33984-1.54883-1.07959-1.54883
		c-0.92969,0-1.46924,0.7998-1.46924,2.18848V10h-0.68945V5.07227h0.68945v0.71973c0.31982-0.49902,0.91943-0.79883,1.62891-0.79883
		C62.84277,4.99316,63.39258,5.67285,63.39258,6.98145z"/>
	<path d="M68.93262,10.75977c0,0.92969-0.86963,1.35938-2.10889,1.35938c-1.36914,0-2.19873-0.54004-2.19873-1.51953
		c0-0.09961,0.00977-0.16016,0.02002-0.21973l0.79932-0.67969c-0.37988-0.16992-0.63965-0.4502-0.63965-0.93945
		c0-0.39941,0.18018-0.69922,0.52979-0.93945c-0.25977-0.2998-0.41992-0.67969-0.41992-1.11914c0-1,0.81982-1.70898,1.87891-1.70898
		c0.47998,0,0.90967,0.14941,1.22949,0.39941l0.67969-0.58984l0.35986,0.4502L68.39258,5.8125
		c0.16992,0.26953,0.27002,0.5791,0.27002,0.92969c0,1.00879-0.81934,1.67871-1.85889,1.67871
		c-0.37988,0-0.72949-0.08984-1.01953-0.25c-0.19971,0.11035-0.31982,0.29004-0.31982,0.5c0,0.5,0.61963,0.61914,1.3291,0.72949
		C67.77295,9.5498,68.93262,9.69043,68.93262,10.75977z M68.24268,10.81934c0-0.59961-0.7793-0.68945-1.59912-0.81934
		c-0.21973-0.03027-0.44971-0.07031-0.65967-0.12012l-0.66943,0.64941c-0.01025,0.05078-0.01025,0.07031-0.01025,0.09082
		c0,0.69922,0.70996,0.91895,1.54932,0.91895C67.72314,11.53906,68.24268,11.29883,68.24268,10.81934z M65.59424,6.72168
		c0,0.63965,0.45996,1.12988,1.19922,1.12988c0.73975,0,1.17969-0.48047,1.17969-1.12988c0-0.67969-0.45996-1.14941-1.16943-1.14941
		C66.104,5.57227,65.59424,6.04199,65.59424,6.72168z"/>
	<path d="M72.60498,7.53125c0-1.45898,0.94922-2.53809,2.3584-2.53809c1.39941,0,2.36865,1.0791,2.36865,2.53809
		c0,1.44922-0.95947,2.54883-2.36865,2.54883S72.60498,8.99023,72.60498,7.53125z M76.64258,7.53125
		c0-1.11914-0.62988-1.92871-1.6792-1.92871c-1.05957,0-1.66895,0.81934-1.66895,1.92871c0,1.11914,0.61963,1.93945,1.66895,1.93945
		C76.02295,9.4707,76.64258,8.63086,76.64258,7.53125z"/>
	<path d="M79.02441,5.65234h-1.03955V5.07227h1.04932V4.31348c0-1.0498,0.60986-1.35938,1.23926-1.35938
		c0.27002,0,0.56982,0.05957,0.87988,0.18945l-0.24023,0.5498c-0.20996-0.09961-0.39941-0.16016-0.56934-0.16016
		c-0.39014,0-0.62988,0.27051-0.62988,0.72949v0.80957h1.41943v0.58008h-1.41943V10h-0.68945V5.65234z"/>
	<path d="M86.99316,9.9502c-0.25977,0.08008-0.52002,0.12988-0.74951,0.12988c-0.65967,0-1.13965-0.37012-1.13965-1.23926V5.65234
		h-0.81934V5.07227H85.104V3.69336l0.68945-0.51953v1.89844h1.18945v0.58008h-1.18945v3.09863
		c0,0.47949,0.22021,0.69922,0.60986,0.69922c0.16992,0,0.35986-0.04004,0.57959-0.10938L86.99316,9.9502z"/>
	<path d="M92.15186,7.72168h-3.60791c0.02002,1.0791,0.61963,1.72852,1.58936,1.72852c0.53955,0,0.96924-0.13965,1.41895-0.61914
		L92.03223,9.25c-0.57959,0.61035-1.14941,0.83008-1.90918,0.83008c-1.49902,0-2.26855-1.11914-2.26855-2.51855
		c0-1.38965,0.75977-2.56836,2.18896-2.56836c1.50879,0,2.13867,1.17871,2.13867,2.29785
		C92.18213,7.43164,92.17188,7.60156,92.15186,7.72168z M88.54395,7.1416h2.97852c0-0.02051-0.01025-0.07031-0.01025-0.16016
		c-0.0498-0.7998-0.55957-1.40918-1.46875-1.40918C89.15381,5.57227,88.604,6.27246,88.54395,7.1416z"/>
	<path d="M94.72412,7.53125L92.9248,5.07227h0.83984l1.41895,1.97949l1.40918-1.97949h0.83984L95.6333,7.53125L97.44238,10h-0.84961
		l-1.40918-1.99902L93.77441,10H92.9248L94.72412,7.53125z"/>
	<path d="M100.70312,9.9502c-0.25977,0.08008-0.52002,0.12988-0.74951,0.12988c-0.65967,0-1.13965-0.37012-1.13965-1.23926V5.65234
		h-0.81934V5.07227h0.81934V3.69336l0.68945-0.51953v1.89844h1.18945v0.58008h-1.18945v3.09863
		c0,0.47949,0.22021,0.69922,0.60986,0.69922c0.16992,0,0.35986-0.04004,0.57959-0.10938L100.70312,9.9502z"/>
</g>
<g enable-background="new    ">
	<path d="M26.45508,26.03418h4.56787v0.65918h-3.85791v2.42871h3.46777v0.66016h-3.46777v2.55859h3.85791V33h-4.56787V26.03418z"/>
	<path d="M36.47314,29.98145V33h-0.68945v-2.84863c0-1.05957-0.33984-1.54883-1.07959-1.54883
		c-0.92969,0-1.46924,0.7998-1.46924,2.18848V33h-0.68945v-4.92773h0.68945v0.71973
		c0.31982-0.49902,0.91943-0.79883,1.62891-0.79883C35.92334,27.99316,36.47314,28.67285,36.47314,29.98145z"/>
	<path d="M42.29297,26.03418V33h-0.68994v-0.65918c-0.35938,0.45898-0.90918,0.73926-1.62891,0.73926
		c-1.43896,0-2.18896-1.0791-2.18896-2.54883c0-1.53906,0.81982-2.54883,2.18896-2.54883c0.69971,0,1.25928,0.27051,1.62891,0.75
		v-2.69824H42.29297z M41.66309,30.53125c0-1.16895-0.59961-1.93848-1.58887-1.93848c-0.99951,0-1.59912,0.76953-1.59912,1.93848
		c0,1.11914,0.5498,1.93945,1.59912,1.93945C41.11328,32.4707,41.66309,31.65039,41.66309,30.53125z"/>
	<path d="M46.41553,30.53125c0-1.45898,0.94922-2.53809,2.3584-2.53809c1.39941,0,2.36865,1.0791,2.36865,2.53809
		c0,1.44922-0.95947,2.54883-2.36865,2.54883S46.41553,31.99023,46.41553,30.53125z M50.45312,30.53125
		c0-1.11914-0.62988-1.92871-1.6792-1.92871c-1.05957,0-1.66895,0.81934-1.66895,1.92871c0,1.11914,0.61963,1.93945,1.66895,1.93945
		C49.8335,32.4707,50.45312,31.63086,50.45312,30.53125z"/>
	<path d="M52.83496,28.65234h-1.03955v-0.58008h1.04932v-0.75879c0-1.0498,0.60986-1.35938,1.23926-1.35938
		c0.27002,0,0.56982,0.05957,0.87988,0.18945l-0.24023,0.5498c-0.20996-0.09961-0.39941-0.16016-0.56934-0.16016
		c-0.39014,0-0.62988,0.27051-0.62988,0.72949v0.80957h1.41943v0.58008h-1.41943V33h-0.68945V28.65234z"/>
	<path d="M60.80371,32.9502c-0.25977,0.08008-0.52002,0.12988-0.74951,0.12988c-0.65967,0-1.13965-0.37012-1.13965-1.23926v-3.18848
		h-0.81934v-0.58008h0.81934v-1.37891l0.68945-0.51953v1.89844h1.18945v0.58008H59.604v3.09863
		c0,0.47949,0.22021,0.69922,0.60986,0.69922c0.16992,0,0.35986-0.04004,0.57959-0.10938L60.80371,32.9502z"/>
	<path d="M65.9624,30.72168h-3.60791c0.02002,1.0791,0.61963,1.72852,1.58936,1.72852c0.53955,0,0.96924-0.13965,1.41895-0.61914
		L65.84277,32.25c-0.57959,0.61035-1.14941,0.83008-1.90918,0.83008c-1.49902,0-2.26855-1.11914-2.26855-2.51855
		c0-1.38965,0.75977-2.56836,2.18896-2.56836c1.50879,0,2.13867,1.17871,2.13867,2.29785
		C65.99268,30.43164,65.98242,30.60156,65.9624,30.72168z M62.35449,30.1416h2.97852c0-0.02051-0.01025-0.07031-0.01025-0.16016
		c-0.0498-0.7998-0.55957-1.40918-1.46875-1.40918C62.96436,28.57227,62.41455,29.27246,62.35449,30.1416z"/>
	<path d="M68.53467,30.53125l-1.79932-2.45898h0.83984l1.41895,1.97949l1.40918-1.97949h0.83984l-1.79932,2.45898L71.25293,33
		h-0.84961l-1.40918-1.99902L67.58496,33h-0.84961L68.53467,30.53125z"/>
	<path d="M74.51367,32.9502c-0.25977,0.08008-0.52002,0.12988-0.74951,0.12988c-0.65967,0-1.13965-0.37012-1.13965-1.23926v-3.18848
		h-0.81934v-0.58008h0.81934v-1.37891l0.68945-0.51953v1.89844h1.18945v0.58008h-1.18945v3.09863
		c0,0.47949,0.22021,0.69922,0.60986,0.69922c0.16992,0,0.35986-0.04004,0.57959-0.10938L74.51367,32.9502z"/>
</g>
<rect id="Rettangolo_9625" x="4.35516" y="24.26487" transform="matrix(0.70711 -0.70711 0.70711 0.70711 -18.16041 15.68653)" fill="#FFFFFF" width="10.99989" height="10.99989"/>
<rect id="Rettangolo_9626" x="4.53456" y="24.51517" transform="matrix(0.70711 -0.70711 0.70711 0.70711 -18.1813 15.6367)" fill="none" stroke="#000000" stroke-width="0.5" stroke-miterlimit="3.99996" width="10.4999" height="10.4999"/>
<g enable-background="new    ">
	<path d="M26.99561,51.50195c0-2.23926,1.20947-3.56836,3.21826-3.56836c1.39893,0,2.37842,0.63965,2.86816,1.90918l-0.65967,0.25
		c-0.36963-1-1.10938-1.47949-2.2085-1.47949c-1.59912,0-2.50879,1.04004-2.50879,2.88867c0,1.85938,0.89941,2.91797,2.4585,2.91797
		c1.08984,0,1.86914-0.50977,2.25879-1.50879l0.67969,0.25c-0.51953,1.26953-1.54883,1.93848-2.93848,1.93848
		C28.18506,55.09961,26.99561,53.75098,26.99561,51.50195z"/>
	<path d="M33.88525,52.53125c0-1.45898,0.94971-2.53809,2.35889-2.53809c1.39941,0,2.36865,1.0791,2.36865,2.53809
		c0,1.44922-0.95947,2.54883-2.36865,2.54883S33.88525,53.99023,33.88525,52.53125z M37.92334,52.53125
		c0-1.11914-0.62988-1.92871-1.6792-1.92871c-1.05957,0-1.66895,0.81934-1.66895,1.92871c0,1.11914,0.61963,1.93945,1.66895,1.93945
		C37.30371,54.4707,37.92334,53.63086,37.92334,52.53125z"/>
	<path d="M43.93311,51.98145V55h-0.68945v-2.84863c0-1.05957-0.33984-1.54883-1.07959-1.54883
		c-0.92969,0-1.46924,0.7998-1.46924,2.18848V55h-0.68945v-4.92773h0.68945v0.71973
		c0.31982-0.49902,0.91943-0.79883,1.62891-0.79883C43.3833,49.99316,43.93311,50.67285,43.93311,51.98145z"/>
	<path d="M45.2251,52.55176c0-1.2998,0.72998-2.55859,2.21875-2.55859c0.87988,0,1.60938,0.43945,1.99902,1.3584L48.7832,51.6123
		c-0.22949-0.62988-0.71924-1.00977-1.33936-1.00977c-1.04932,0-1.51904,0.93945-1.51904,1.94922
		c0,1.00879,0.46973,1.91895,1.5293,1.91895c0.61963,0,1.10938-0.37012,1.29932-1l0.63965,0.24023
		c-0.33008,0.89941-1.04932,1.36914-1.93896,1.36914C46.0249,55.08008,45.2251,53.9209,45.2251,52.55176z"/>
	<path d="M54.47314,50.07227V55h-0.68945v-0.70996c-0.34961,0.53027-0.97949,0.79004-1.62891,0.79004
		c-1.11963,0-1.60938-0.76953-1.60938-1.98926v-3.01855h0.68945v2.84863c0,0.7998,0.14014,1.5498,1.07959,1.5498
		c0.97949,0,1.46924-0.84961,1.46924-2.12891v-2.26953H54.47314z"/>
	<path d="M59.29346,50.20312l-0.33984,0.55957c-0.22949-0.10059-0.43945-0.15039-0.64941-0.15039
		c-0.75977,0-1.31934,0.56934-1.31934,1.63965V55h-0.68945v-4.92773h0.68945v0.74023
		c0.35986-0.64941,0.95947-0.81934,1.45898-0.81934C58.74365,49.99316,59.02393,50.05273,59.29346,50.20312z"/>
	<path d="M63.31348,50.20312l-0.33984,0.55957c-0.22949-0.10059-0.43945-0.15039-0.64941-0.15039
		c-0.75977,0-1.31934,0.56934-1.31934,1.63965V55h-0.68945v-4.92773h0.68945v0.74023
		c0.35986-0.64941,0.95947-0.81934,1.45898-0.81934C62.76416,49.99316,63.04395,50.05273,63.31348,50.20312z"/>
	<path d="M67.78271,52.72168H64.1748c0.02002,1.0791,0.61963,1.72852,1.58936,1.72852c0.53955,0,0.96924-0.13965,1.41895-0.61914
		L67.66309,54.25c-0.57959,0.61035-1.14941,0.83008-1.90918,0.83008c-1.49902,0-2.26855-1.11914-2.26855-2.51855
		c0-1.38965,0.75977-2.56836,2.18896-2.56836c1.50879,0,2.13867,1.17871,2.13867,2.29785
		C67.81299,52.43164,67.80273,52.60156,67.78271,52.72168z M64.1748,52.1416h2.97852c0-0.02051-0.01025-0.07031-0.01025-0.16016
		c-0.0498-0.7998-0.55957-1.40918-1.46875-1.40918C64.78467,50.57227,64.23486,51.27246,64.1748,52.1416z"/>
	<path d="M73.13281,51.98145V55h-0.68945v-2.84863c0-1.05957-0.33984-1.54883-1.07959-1.54883
		c-0.92969,0-1.46924,0.7998-1.46924,2.18848V55h-0.68945v-4.92773h0.68945v0.71973
		c0.31982-0.49902,0.91943-0.79883,1.62891-0.79883C72.58301,49.99316,73.13281,50.67285,73.13281,51.98145z"/>
	<path d="M74.4248,52.55176c0-1.2998,0.72998-2.55859,2.21924-2.55859c0.87939,0,1.60889,0.43945,1.99854,1.3584l-0.65967,0.26074
		c-0.22949-0.62988-0.71924-1.00977-1.33887-1.00977c-1.0498,0-1.51953,0.93945-1.51953,1.94922
		c0,1.00879,0.46973,1.91895,1.5293,1.91895c0.61963,0,1.10938-0.37012,1.29932-1l0.63965,0.24023
		c-0.33008,0.89941-1.04932,1.36914-1.93896,1.36914C75.22461,55.08008,74.4248,53.9209,74.4248,52.55176z"/>
	<path d="M83.7627,52.72168h-3.60791c0.02002,1.0791,0.61963,1.72852,1.58936,1.72852c0.53955,0,0.96924-0.13965,1.41895-0.61914
		L83.64307,54.25c-0.57959,0.61035-1.14941,0.83008-1.90918,0.83008c-1.49902,0-2.26855-1.11914-2.26855-2.51855
		c0-1.38965,0.75977-2.56836,2.18896-2.56836c1.50879,0,2.13867,1.17871,2.13867,2.29785
		C83.79297,52.43164,83.78271,52.60156,83.7627,52.72168z M80.15479,52.1416h2.97852c0-0.02051-0.01025-0.07031-0.01025-0.16016
		c-0.0498-0.7998-0.55957-1.40918-1.46875-1.40918C80.76465,50.57227,80.21484,51.27246,80.15479,52.1416z"/>
	<path d="M92.42236,52.53125c0,1.46973-0.74951,2.54883-2.18896,2.54883c-0.71924,0-1.26904-0.28027-1.62891-0.73926V55h-0.68945
		v-6.96582h0.68945v2.69824c0.36963-0.47949,0.92969-0.75,1.62891-0.75C91.60303,49.98242,92.42236,50.99219,92.42236,52.53125z
		 M91.73291,52.53125c0-1.16895-0.59961-1.93848-1.59912-1.93848c-0.98975,0-1.58936,0.76953-1.58936,1.93848
		c0,1.11914,0.5498,1.93945,1.58936,1.93945C91.18311,54.4707,91.73291,53.65039,91.73291,52.53125z"/>
	<path d="M97.75244,52.72168h-3.60791c0.02002,1.0791,0.61963,1.72852,1.58936,1.72852c0.53955,0,0.96924-0.13965,1.41895-0.61914
		L97.63281,54.25c-0.57959,0.61035-1.14941,0.83008-1.90918,0.83008c-1.49902,0-2.26855-1.11914-2.26855-2.51855
		c0-1.38965,0.75977-2.56836,2.18896-2.56836c1.50879,0,2.13867,1.17871,2.13867,2.29785
		C97.78271,52.43164,97.77246,52.60156,97.75244,52.72168z M94.14453,52.1416h2.97852c0-0.02051-0.01025-0.07031-0.01025-0.16016
		c-0.0498-0.7998-0.55957-1.40918-1.46875-1.40918C94.75439,50.57227,94.20459,51.27246,94.14453,52.1416z"/>
	<path d="M101.22363,54.9502c-0.25977,0.08008-0.52002,0.12988-0.74951,0.12988c-0.65967,0-1.13965-0.37012-1.13965-1.23926
		v-3.18848h-0.81934v-0.58008h0.81934v-1.37891l0.68945-0.51953v1.89844h1.18945v0.58008h-1.18945v3.09863
		c0,0.47949,0.22021,0.69922,0.60986,0.69922c0.16992,0,0.35986-0.04004,0.57959-0.10938L101.22363,54.9502z"/>
	<path d="M102.00488,50.07227h0.73975l1.05957,3.88867l1.29883-3.88867h0.62988l1.28906,3.88867l1.06982-3.88867h0.72949
		L107.38184,55h-0.64941l-1.30957-3.97754L104.09375,55h-0.63965L102.00488,50.07227z"/>
	<path d="M113.82227,52.72168h-3.60791c0.02002,1.0791,0.61963,1.72852,1.58936,1.72852c0.53955,0,0.96924-0.13965,1.41895-0.61914
		l0.47998,0.41895c-0.57959,0.61035-1.14941,0.83008-1.90918,0.83008c-1.49902,0-2.26855-1.11914-2.26855-2.51855
		c0-1.38965,0.75977-2.56836,2.18896-2.56836c1.50879,0,2.13867,1.17871,2.13867,2.29785
		C113.85254,52.43164,113.84229,52.60156,113.82227,52.72168z M110.21436,52.1416h2.97852
		c0-0.02051-0.01025-0.07031-0.01025-0.16016c-0.0498-0.7998-0.55957-1.40918-1.46875-1.40918
		C110.82422,50.57227,110.27441,51.27246,110.21436,52.1416z"/>
	<path d="M119.14209,52.72168h-3.60791c0.02002,1.0791,0.61963,1.72852,1.58936,1.72852c0.53955,0,0.96924-0.13965,1.41895-0.61914
		l0.47998,0.41895c-0.57959,0.61035-1.14941,0.83008-1.90918,0.83008c-1.49902,0-2.26855-1.11914-2.26855-2.51855
		c0-1.38965,0.75977-2.56836,2.18896-2.56836c1.50879,0,2.13867,1.17871,2.13867,2.29785
		C119.17236,52.43164,119.16211,52.60156,119.14209,52.72168z M115.53418,52.1416h2.97852
		c0-0.02051-0.01025-0.07031-0.01025-0.16016c-0.0498-0.7998-0.55957-1.40918-1.46875-1.40918
		C116.14404,50.57227,115.59424,51.27246,115.53418,52.1416z"/>
	<path d="M124.49268,51.98145V55h-0.68945v-2.84863c0-1.05957-0.33984-1.54883-1.07959-1.54883
		c-0.92969,0-1.46924,0.7998-1.46924,2.18848V55h-0.68945v-4.92773h0.68945v0.71973
		c0.31982-0.49902,0.91943-0.79883,1.62891-0.79883C123.94287,49.99316,124.49268,50.67285,124.49268,51.98145z"/>
	<path d="M133.43213,52.53125c0,1.46973-0.74951,2.54883-2.18896,2.54883c-0.71924,0-1.26904-0.28027-1.62891-0.73926V55h-0.68945
		v-6.96582h0.68945v2.69824c0.36963-0.47949,0.92969-0.75,1.62891-0.75C132.61279,49.98242,133.43213,50.99219,133.43213,52.53125z
		 M132.74268,52.53125c0-1.16895-0.59961-1.93848-1.59912-1.93848c-0.98975,0-1.58936,0.76953-1.58936,1.93848
		c0,1.11914,0.5498,1.93945,1.58936,1.93945C132.19287,54.4707,132.74268,53.65039,132.74268,52.53125z"/>
	<path d="M138.76221,52.72168h-3.60791c0.02002,1.0791,0.61963,1.72852,1.58936,1.72852c0.53955,0,0.96924-0.13965,1.41895-0.61914
		l0.47998,0.41895c-0.57959,0.61035-1.14941,0.83008-1.90918,0.83008c-1.49902,0-2.26855-1.11914-2.26855-2.51855
		c0-1.38965,0.75977-2.56836,2.18896-2.56836c1.50879,0,2.13867,1.17871,2.13867,2.29785
		C138.79248,52.43164,138.78223,52.60156,138.76221,52.72168z M135.1543,52.1416h2.97852c0-0.02051-0.01025-0.07031-0.01025-0.16016
		c-0.0498-0.7998-0.55957-1.40918-1.46875-1.40918C135.76416,50.57227,135.21436,51.27246,135.1543,52.1416z"/>
	<path d="M144.02246,55.75977c0,0.92969-0.86963,1.35938-2.10889,1.35938c-1.36914,0-2.19873-0.54004-2.19873-1.51953
		c0-0.09961,0.00977-0.16016,0.02002-0.21973l0.79932-0.67969c-0.37988-0.16992-0.63965-0.4502-0.63965-0.93945
		c0-0.39941,0.18018-0.69922,0.52979-0.93945c-0.25977-0.2998-0.41992-0.67969-0.41992-1.11914c0-1,0.81982-1.70898,1.87891-1.70898
		c0.47998,0,0.90967,0.14941,1.22949,0.39941l0.67969-0.58984l0.35986,0.4502l-0.66992,0.55957
		c0.16992,0.26953,0.27002,0.5791,0.27002,0.92969c0,1.00879-0.81934,1.67871-1.85889,1.67871
		c-0.37988,0-0.72949-0.08984-1.01953-0.25c-0.19971,0.11035-0.31982,0.29004-0.31982,0.5c0,0.5,0.61963,0.61914,1.3291,0.72949
		C142.86279,54.5498,144.02246,54.69043,144.02246,55.75977z M143.33252,55.81934c0-0.59961-0.7793-0.68945-1.59912-0.81934
		c-0.21973-0.03027-0.44971-0.07031-0.65967-0.12012l-0.66943,0.64941c-0.01025,0.05078-0.01025,0.07031-0.01025,0.09082
		c0,0.69922,0.70996,0.91895,1.54932,0.91895C142.81299,56.53906,143.33252,56.29883,143.33252,55.81934z M140.68408,51.72168
		c0,0.63965,0.45996,1.12988,1.19922,1.12988c0.73975,0,1.17969-0.48047,1.17969-1.12988c0-0.67969-0.45996-1.14941-1.16943-1.14941
		C141.19385,50.57227,140.68408,51.04199,140.68408,51.72168z"/>
	<path d="M145.33447,48.03418h0.79932v1.01953h-0.79932V48.03418z M145.39453,50.07227h0.68945V55h-0.68945V50.07227z"/>
	<path d="M151.83203,51.98145V55h-0.68945v-2.84863c0-1.05957-0.33984-1.54883-1.07959-1.54883
		c-0.92969,0-1.46924,0.7998-1.46924,2.18848V55h-0.68945v-4.92773h0.68945v0.71973
		c0.31982-0.49902,0.91943-0.79883,1.62891-0.79883C151.28223,49.99316,151.83203,50.67285,151.83203,51.98145z"/>
	<path d="M157.46191,51.98145V55h-0.68945v-2.84863c0-1.05957-0.33984-1.54883-1.0791-1.54883
		c-0.92969,0-1.46973,0.7998-1.46973,2.18848V55h-0.68945v-4.92773h0.68945v0.71973
		c0.32031-0.49902,0.91992-0.79883,1.62891-0.79883C156.91211,49.99316,157.46191,50.67285,157.46191,51.98145z"/>
	<path d="M159.10449,48.03418h0.79883v1.01953h-0.79883V48.03418z M159.16406,50.07227h0.68945V55h-0.68945V50.07227z"/>
	<path d="M165.60254,51.98145V55h-0.68945v-2.84863c0-1.05957-0.33984-1.54883-1.08008-1.54883
		c-0.92969,0-1.46875,0.7998-1.46875,2.18848V55h-0.68945v-4.92773h0.68945v0.71973
		c0.31934-0.49902,0.91895-0.79883,1.62891-0.79883C165.05273,49.99316,165.60254,50.67285,165.60254,51.98145z"/>
	<path d="M171.14258,55.75977c0,0.92969-0.87012,1.35938-2.10938,1.35938c-1.36914,0-2.19824-0.54004-2.19824-1.51953
		c0-0.09961,0.00977-0.16016,0.01953-0.21973l0.7998-0.67969c-0.37988-0.16992-0.63965-0.4502-0.63965-0.93945
		c0-0.39941,0.17969-0.69922,0.5293-0.93945c-0.25977-0.2998-0.41992-0.67969-0.41992-1.11914c0-1,0.82031-1.70898,1.87891-1.70898
		c0.48047,0,0.91016,0.14941,1.22949,0.39941l0.67969-0.58984l0.36035,0.4502l-0.66992,0.55957
		c0.16992,0.26953,0.26953,0.5791,0.26953,0.92969c0,1.00879-0.81934,1.67871-1.8584,1.67871
		c-0.37988,0-0.72949-0.08984-1.01953-0.25c-0.2002,0.11035-0.32031,0.29004-0.32031,0.5c0,0.5,0.62012,0.61914,1.3291,0.72949
		C169.98242,54.5498,171.14258,54.69043,171.14258,55.75977z M170.45215,55.81934c0-0.59961-0.7793-0.68945-1.59863-0.81934
		c-0.21973-0.03027-0.4502-0.07031-0.66016-0.12012l-0.66895,0.64941c-0.00977,0.05078-0.00977,0.07031-0.00977,0.09082
		c0,0.69922,0.70898,0.91895,1.54883,0.91895C169.93262,56.53906,170.45215,56.29883,170.45215,55.81934z M167.80371,51.72168
		c0,0.63965,0.45996,1.12988,1.19922,1.12988c0.74023,0,1.17969-0.48047,1.17969-1.12988c0-0.67969-0.45996-1.14941-1.16895-1.14941
		C168.31348,50.57227,167.80371,51.04199,167.80371,51.72168z"/>
	<path d="M178.91211,51.93164V55h-0.62988l-0.04004-0.75977c-0.38965,0.5498-0.98926,0.83984-1.76855,0.83984
		c-1.06934,0-1.69922-0.55957-1.69922-1.50977c0-0.49902,0.2002-0.87891,0.55957-1.09863
		c0.37988-0.21973,0.91016-0.31055,1.87891-0.31055h1.00977v-0.22949c0-0.85938-0.4502-1.3291-1.2793-1.3291
		c-0.62012,0-1.09961,0.26953-1.49902,0.81934l-0.5-0.41992c0.5293-0.68945,1.16895-1.00879,2.00879-1.00879
		C178.19238,49.99316,178.91211,50.70215,178.91211,51.93164z M178.22266,52.79102v-0.06934h-0.94922
		c-0.91016,0-1.2998,0.05957-1.53906,0.24902c-0.18066,0.14062-0.27051,0.36035-0.27051,0.63965
		c0,0.5498,0.46973,0.90039,1.20996,0.90039C177.62305,54.51074,178.22266,53.84082,178.22266,52.79102z"/>
	<path d="M184.52148,51.98145V55h-0.68945v-2.84863c0-1.05957-0.33984-1.54883-1.0791-1.54883
		c-0.92969,0-1.46973,0.7998-1.46973,2.18848V55h-0.68945v-4.92773h0.68945v0.71973
		c0.32031-0.49902,0.91992-0.79883,1.62891-0.79883C183.97168,49.99316,184.52148,50.67285,184.52148,51.98145z"/>
	<path d="M190.3418,48.03418V55h-0.69043v-0.65918c-0.35938,0.45898-0.90918,0.73926-1.62891,0.73926
		c-1.43848,0-2.18848-1.0791-2.18848-2.54883c0-1.53906,0.81934-2.54883,2.18848-2.54883c0.7002,0,1.25977,0.27051,1.62891,0.75
		v-2.69824H190.3418z M189.71191,52.53125c0-1.16895-0.59961-1.93848-1.58887-1.93848c-1,0-1.59961,0.76953-1.59961,1.93848
		c0,1.11914,0.5498,1.93945,1.59961,1.93945C189.16211,54.4707,189.71191,53.65039,189.71191,52.53125z"/>
	<path d="M198.79102,52.72168h-3.60742c0.01953,1.0791,0.61914,1.72852,1.58887,1.72852c0.54004,0,0.96973-0.13965,1.41895-0.61914
		l0.48047,0.41895c-0.58008,0.61035-1.14941,0.83008-1.90918,0.83008c-1.49902,0-2.26855-1.11914-2.26855-2.51855
		c0-1.38965,0.75977-2.56836,2.18848-2.56836c1.50879,0,2.13867,1.17871,2.13867,2.29785
		C198.82129,52.43164,198.81152,52.60156,198.79102,52.72168z M195.18359,52.1416h2.97852
		c0-0.02051-0.01074-0.07031-0.01074-0.16016c-0.0498-0.7998-0.55957-1.40918-1.46875-1.40918
		C195.79297,50.57227,195.24316,51.27246,195.18359,52.1416z"/>
	<path d="M204.1416,51.98145V55h-0.68945v-2.84863c0-1.05957-0.33984-1.54883-1.08008-1.54883
		c-0.92969,0-1.46875,0.7998-1.46875,2.18848V55h-0.68945v-4.92773h0.68945v0.71973
		c0.31934-0.49902,0.91895-0.79883,1.62891-0.79883C203.5918,49.99316,204.1416,50.67285,204.1416,51.98145z"/>
	<path d="M209.96094,48.03418V55h-0.68945v-0.65918c-0.35938,0.45898-0.90918,0.73926-1.62891,0.73926
		c-1.43945,0-2.18945-1.0791-2.18945-2.54883c0-1.53906,0.82031-2.54883,2.18945-2.54883c0.69922,0,1.25879,0.27051,1.62891,0.75
		v-2.69824H209.96094z M209.33105,52.53125c0-1.16895-0.59961-1.93848-1.58887-1.93848c-0.99902,0-1.59863,0.76953-1.59863,1.93848
		c0,1.11914,0.5498,1.93945,1.59863,1.93945C208.78125,54.4707,209.33105,53.65039,209.33105,52.53125z"/>
</g>
<path id="Tracciato_116471" fill="#E72EFF" stroke="#000000" stroke-width="0.5" d="M15.554,54.60001l2.3-2.29999l-2.3-2.29999
	v-3.20001h-3.2l-2.3-2.29999l-2.3,2.29999h-3.2v3.20001l-2.3,2.29999l2.3,2.29999v3.20001h3.2l2.3,2.29999l2.3-2.29999h3.2V54.60001
	z"/>
</svg>
