<?xml version="1.0" encoding="utf-8"?>
<!-- Generator: Adobe Illustrator 25.0.0, SVG Export Plug-In . SVG Version: 6.00 Build 0)  -->
<svg version="1.1" id="Livello_1" xmlns="http://www.w3.org/2000/svg" xmlns:xlink="http://www.w3.org/1999/xlink" x="0px" y="0px"
	 viewBox="0 0 145 89.7" enable-background="new 0 0 145 89.7" xml:space="preserve">
<circle id="Ellisse_36" fill="#DDDDDD" cx="17.01801" cy="11.50798" r="11"/>
<circle id="Ellisse_37" fill="#DDDDDD" cx="17.01801" cy="11.50798" r="10.9"/>
<circle id="Ellisse_36-2" fill="#DDDDDD" stroke="#000000" cx="64.76105" cy="11.50798" r="11"/>
<circle id="Ellisse_37-2" fill="#DDDDDD" stroke="#000000" stroke-width="0.5" cx="64.76105" cy="11.50798" r="10.9"/>
<g enable-background="new    ">
	<path d="M1.13916,40.50098h0.70996v6.30664h3.17822v0.65918H1.13916V40.50098z"/>
	<path d="M9.88721,42.53906v4.92773H9.19775v-0.70996c-0.3501,0.53027-0.97949,0.79004-1.62939,0.79004
		c-1.11914,0-1.60889-0.76953-1.60889-1.98926v-3.01855h0.68945v2.84863c0,0.7998,0.14014,1.5498,1.07959,1.5498
		c0.97949,0,1.46924-0.84961,1.46924-2.12891v-2.26953H9.88721z"/>
	<path d="M11.22949,44.99805c0-1.45898,0.94971-2.53809,2.35889-2.53809c1.39941,0,2.36865,1.0791,2.36865,2.53809
		c0,1.44922-0.95947,2.54883-2.36865,2.54883S11.22949,46.45703,11.22949,44.99805z M15.26758,44.99805
		c0-1.11914-0.62988-1.92871-1.6792-1.92871c-1.05957,0-1.66895,0.81934-1.66895,1.92871c0,1.11914,0.61963,1.93945,1.66895,1.93945
		C14.64795,46.9375,15.26758,46.09766,15.26758,44.99805z"/>
	<path d="M21.1875,48.22656c0,0.92969-0.86963,1.35938-2.10889,1.35938c-1.36914,0-2.19873-0.54004-2.19873-1.51953
		c0-0.09961,0.00977-0.16016,0.02002-0.21973l0.79932-0.67969c-0.37988-0.16992-0.63965-0.4502-0.63965-0.93945
		c0-0.39941,0.17969-0.69922,0.52979-0.93945c-0.25977-0.2998-0.41992-0.67969-0.41992-1.11914c0-1,0.81982-1.70898,1.87891-1.70898
		c0.47998,0,0.90967,0.14941,1.22949,0.39941l0.67969-0.58984l0.35986,0.4502l-0.66992,0.55957
		c0.16992,0.26953,0.27002,0.5791,0.27002,0.92969c0,1.00879-0.81934,1.67871-1.85889,1.67871
		c-0.37988,0-0.72949-0.08984-1.01953-0.25c-0.19971,0.11035-0.31982,0.29004-0.31982,0.5c0,0.5,0.61963,0.61914,1.3291,0.72949
		C20.02783,47.0166,21.1875,47.15723,21.1875,48.22656z M20.49756,48.28613c0-0.59961-0.7793-0.68945-1.59912-0.81934
		c-0.21973-0.03027-0.44971-0.07031-0.65967-0.12012l-0.66943,0.64941c-0.00977,0.05078-0.00977,0.07031-0.00977,0.09082
		c0,0.69922,0.70947,0.91895,1.54883,0.91895C19.97803,49.00586,20.49756,48.76562,20.49756,48.28613z M17.84912,44.18848
		c0,0.63965,0.45996,1.12988,1.19922,1.12988c0.73975,0,1.17969-0.48047,1.17969-1.12988c0-0.67969-0.45996-1.14941-1.16943-1.14941
		C18.35889,43.03906,17.84912,43.50879,17.84912,44.18848z"/>
	<path d="M21.92969,44.99805c0-1.45898,0.94922-2.53809,2.3584-2.53809c1.39941,0,2.36865,1.0791,2.36865,2.53809
		c0,1.44922-0.95947,2.54883-2.36865,2.54883S21.92969,46.45703,21.92969,44.99805z M25.96729,44.99805
		c0-1.11914-0.62988-1.92871-1.6792-1.92871c-1.05957,0-1.66895,0.81934-1.66895,1.92871c0,1.11914,0.61963,1.93945,1.66895,1.93945
		C25.34766,46.9375,25.96729,46.09766,25.96729,44.99805z"/>
</g>
<g id="Ellipse_24-3" transform="translate(157.453 368.782)">
	<circle id="Ellisse_36-3" fill="#DDDDDD" stroke="#000000" cx="-41.97937" cy="-357.28201" r="11"/>
	<circle id="Ellisse_37-3" fill="#DDDDDD" stroke="#000000" stroke-width="0.5" cx="-41.97937" cy="-357.28201" r="10.89999"/>
</g>
<g id="Ellipse_24-4" transform="translate(167.36 378.689)">
	<circle id="Ellisse_36-4" cx="-51.87936" cy="-367.18201" r="1.10001"/>
	<circle id="Ellisse_37-4" cx="-51.87936" cy="-367.18201" r="1.10001"/>
</g>
<g enable-background="new    ">
	<path d="M45.11621,40.50146h0.70996v6.30713h3.17822v0.6582h-3.88818V40.50146z"/>
	<path d="M53.86426,42.53955v4.92725H53.1748v-0.70898c-0.3501,0.5293-0.97949,0.78906-1.62939,0.78906
		c-1.11914,0-1.60889-0.76953-1.60889-1.98877v-3.01855h0.68945v2.84863c0,0.79932,0.14014,1.54932,1.07959,1.54932
		c0.97949,0,1.46924-0.84961,1.46924-2.12842v-2.26953H53.86426z"/>
	<path d="M55.20654,44.99854c0-1.45898,0.94971-2.53809,2.35889-2.53809c1.39941,0,2.36865,1.0791,2.36865,2.53809
		c0,1.44873-0.95947,2.54834-2.36865,2.54834S55.20654,46.45703,55.20654,44.99854z M59.24463,44.99854
		c0-1.11914-0.62988-1.92871-1.6792-1.92871c-1.05957,0-1.66895,0.81934-1.66895,1.92871c0,1.11865,0.61963,1.93896,1.66895,1.93896
		C58.625,46.9375,59.24463,46.09766,59.24463,44.99854z"/>
	<path d="M65.16455,48.22656c0,0.92969-0.86963,1.35938-2.10889,1.35938c-1.36914,0-2.19873-0.53906-2.19873-1.51953
		c0-0.09961,0.00977-0.16016,0.02002-0.21875l0.79932-0.67969c-0.37988-0.16992-0.63965-0.45117-0.63965-0.93945
		c0-0.3999,0.17969-0.69971,0.52979-0.93994c-0.25977-0.2998-0.41992-0.67969-0.41992-1.11914c0-1,0.81982-1.70898,1.87891-1.70898
		c0.47998,0,0.90967,0.14941,1.22949,0.39941l0.67969-0.58984l0.35986,0.4502l-0.66992,0.55957
		c0.16992,0.26953,0.27002,0.5791,0.27002,0.92969c0,1.00879-0.81934,1.67871-1.85889,1.67871
		c-0.37988,0-0.72949-0.08984-1.01953-0.25c-0.19971,0.11035-0.31982,0.29004-0.31982,0.50049c0,0.5,0.61963,0.61914,1.3291,0.72852
		C64.00488,47.01758,65.16455,47.1582,65.16455,48.22656z M64.47461,48.28711c0-0.59961-0.7793-0.68945-1.59912-0.82031
		c-0.21973-0.0293-0.44971-0.07031-0.65967-0.11914l-0.66943,0.64844c-0.00977,0.05078-0.00977,0.07031-0.00977,0.0918
		c0,0.69922,0.70947,0.91797,1.54883,0.91797C63.95508,49.00586,64.47461,48.76562,64.47461,48.28711z M61.82617,44.18896
		c0,0.63965,0.45996,1.12988,1.19922,1.12988c0.73975,0,1.17969-0.48047,1.17969-1.12988c0-0.67969-0.45996-1.14941-1.16943-1.14941
		C62.33594,43.03955,61.82617,43.50928,61.82617,44.18896z"/>
	<path d="M65.90674,44.99854c0-1.45898,0.94922-2.53809,2.3584-2.53809c1.39941,0,2.36865,1.0791,2.36865,2.53809
		c0,1.44873-0.95947,2.54834-2.36865,2.54834S65.90674,46.45703,65.90674,44.99854z M69.94434,44.99854
		c0-1.11914-0.62988-1.92871-1.6792-1.92871c-1.05957,0-1.66895,0.81934-1.66895,1.92871c0,1.11865,0.61963,1.93896,1.66895,1.93896
		C69.32471,46.9375,69.94434,46.09766,69.94434,44.99854z"/>
	<path d="M74.3457,45.01904c0-1.2998,0.73047-2.55859,2.21875-2.55859c0.88086,0,1.60938,0.43945,2,1.3584l-0.66016,0.26074
		c-0.22949-0.62988-0.71875-1.00977-1.33984-1.00977c-1.04883,0-1.51855,0.93945-1.51855,1.94922
		c0,1.0083,0.46973,1.91846,1.5293,1.91846c0.62012,0,1.10938-0.36914,1.2998-0.99951l0.63867,0.23975
		c-0.33008,0.90039-1.04883,1.36914-1.93848,1.36914C75.14648,47.54688,74.3457,46.38867,74.3457,45.01904z"/>
	<path d="M83.76367,44.44873v3.01807h-0.68945v-2.84814c0-1.06934-0.33984-1.54883-1.0791-1.54883
		c-0.93945,0-1.46973,0.76953-1.46973,2.12891v2.26807h-0.68945v-6.96533h0.68945v2.75781
		c0.32031-0.49902,0.91992-0.79883,1.62891-0.79883C83.21484,42.46045,83.76367,43.14014,83.76367,44.44873z"/>
	<path d="M89.36328,45.18896h-3.60742c0.01953,1.07861,0.61914,1.729,1.58984,1.729c0.53906,0,0.96875-0.14062,1.41797-0.61914
		l0.48047,0.41797c-0.58008,0.61133-1.14941,0.83008-1.90918,0.83008c-1.49902,0-2.26855-1.11914-2.26855-2.51807
		c0-1.38965,0.75977-2.56836,2.18945-2.56836c1.50781,0,2.13867,1.17871,2.13867,2.29785
		C89.39453,44.89893,89.38379,45.06885,89.36328,45.18896z M85.75586,44.60889h2.97852c0-0.02051-0.00977-0.07031-0.00977-0.16016
		c-0.05078-0.7998-0.56055-1.40918-1.46875-1.40918C86.36523,43.03955,85.81641,43.73975,85.75586,44.60889z"/>
</g>
<g enable-background="new    ">
	<path d="M44.47656,58.01953c0-1.30078,0.72998-2.55859,2.21924-2.55859c0.87939,0,1.60889,0.43945,1.99854,1.35742
		l-0.65967,0.26172c-0.22949-0.63086-0.71924-1.00977-1.33887-1.00977c-1.0498,0-1.51953,0.93945-1.51953,1.94922
		c0,1.00781,0.46973,1.91797,1.5293,1.91797c0.61963,0,1.10938-0.36914,1.29932-1l0.63965,0.24023
		c-0.33008,0.90039-1.04932,1.36914-1.93896,1.36914C45.27637,60.54688,44.47656,59.38867,44.47656,58.01953z"/>
	<path d="M49.48682,57.99805c0-1.45898,0.94971-2.53711,2.35889-2.53711c1.39941,0,2.36865,1.07812,2.36865,2.53711
		c0,1.44922-0.95947,2.54883-2.36865,2.54883S49.48682,59.45703,49.48682,57.99805z M53.5249,57.99805
		c0-1.11914-0.62988-1.92773-1.6792-1.92773c-1.05957,0-1.66895,0.81836-1.66895,1.92773c0,1.11914,0.61963,1.93945,1.66895,1.93945
		C52.90527,59.9375,53.5249,59.09766,53.5249,57.99805z"/>
	<path d="M59.53418,57.44922v3.01758h-0.68945v-2.84766c0-1.06055-0.33984-1.54883-1.07959-1.54883
		c-0.92969,0-1.46924,0.79883-1.46924,2.1875v2.20898h-0.68945v-4.92773h0.68945v0.7207
		c0.31982-0.5,0.91943-0.79883,1.62891-0.79883C58.98438,55.46094,59.53418,56.14062,59.53418,57.44922z"/>
	<path d="M63.28516,60.41797c-0.25977,0.08008-0.52002,0.12891-0.74951,0.12891c-0.65967,0-1.13965-0.36914-1.13965-1.23828
		v-3.18945h-0.81934v-0.58008H61.396v-1.37891l0.68945-0.51953v1.89844h1.18945v0.58008h-1.18945v3.09961
		c0,0.47852,0.22021,0.69922,0.60986,0.69922c0.16992,0,0.35986-0.04102,0.57959-0.10938L63.28516,60.41797z"/>
	<path d="M64.53662,53.50195h0.79932v1.01953h-0.79932V53.50195z M64.59668,55.53906h0.68945v4.92773h-0.68945V55.53906z"/>
	<path d="M71.00391,58.18945H67.396c0.02002,1.07812,0.61963,1.72852,1.58936,1.72852c0.53955,0,0.96924-0.14062,1.41895-0.61914
		l0.47998,0.41797c-0.57959,0.61133-1.14941,0.83008-1.90918,0.83008c-1.49902,0-2.26855-1.11914-2.26855-2.51758
		c0-1.39062,0.75977-2.56836,2.18896-2.56836c1.50879,0,2.13867,1.17773,2.13867,2.29688
		C71.03418,57.89844,71.02393,58.06836,71.00391,58.18945z M67.396,57.60938h2.97852c0-0.02148-0.01025-0.07031-0.01025-0.16016
		c-0.0498-0.80078-0.55957-1.41016-1.46875-1.41016C68.00586,56.03906,67.45605,56.74023,67.396,57.60938z"/>
	<path d="M76.35352,57.44922v3.01758h-0.68945v-2.84766c0-1.06055-0.33984-1.54883-1.0791-1.54883
		c-0.92969,0-1.46973,0.79883-1.46973,2.1875v2.20898h-0.68896v-4.92773h0.68896v0.7207
		c0.32031-0.5,0.91992-0.79883,1.62891-0.79883C75.80469,55.46094,76.35352,56.14062,76.35352,57.44922z"/>
	<path d="M81.95312,58.18945H78.3457c0.01953,1.07812,0.61914,1.72852,1.58984,1.72852c0.53906,0,0.96875-0.14062,1.41797-0.61914
		l0.48047,0.41797c-0.58008,0.61133-1.14941,0.83008-1.90918,0.83008c-1.49902,0-2.26855-1.11914-2.26855-2.51758
		c0-1.39062,0.75977-2.56836,2.18945-2.56836c1.50781,0,2.13867,1.17773,2.13867,2.29688
		C81.98438,57.89844,81.97363,58.06836,81.95312,58.18945z M78.3457,57.60938h2.97852c0-0.02148-0.00977-0.07031-0.00977-0.16016
		c-0.05078-0.80078-0.56055-1.41016-1.46875-1.41016C78.95508,56.03906,78.40625,56.74023,78.3457,57.60938z"/>
</g>
<g enable-background="new    ">
	<path d="M48.55469,70.39844v3.06836H47.9248l-0.04004-0.75977c-0.38965,0.55078-0.98926,0.83984-1.76904,0.83984
		c-1.06934,0-1.69873-0.55859-1.69873-1.50977c0-0.49805,0.19971-0.87891,0.55957-1.09766
		c0.37988-0.2207,0.90967-0.31055,1.87891-0.31055h1.00928v-0.23047c0-0.85938-0.44971-1.32812-1.2793-1.32812
		c-0.61963,0-1.09912,0.26953-1.49902,0.81836l-0.49951-0.41992c0.5293-0.68945,1.16895-1.00781,2.00879-1.00781
		C47.83496,68.46094,48.55469,69.16992,48.55469,70.39844z M47.86475,71.25781v-0.06836h-0.94922
		c-0.90967,0-1.29932,0.05859-1.53906,0.24805c-0.18018,0.14062-0.27002,0.36133-0.27002,0.64062
		c0,0.54883,0.46973,0.90039,1.20947,0.90039C47.26514,72.97852,47.86475,72.30859,47.86475,71.25781z"/>
	<path d="M50.19678,72.39844v-5.89648h0.68945v5.85547c0,0.33984,0.12012,0.56055,0.44971,0.56055
		c0.1499,0,0.31982-0.04102,0.46973-0.08984l0.01025,0.58984c-0.20996,0.06836-0.45996,0.12891-0.67969,0.12891
		C50.56641,73.54688,50.19678,73.16797,50.19678,72.39844z"/>
	<path d="M54.98535,73.41797c-0.25977,0.08008-0.52002,0.12891-0.74951,0.12891c-0.65967,0-1.13965-0.36914-1.13965-1.23828
		v-3.18945h-0.81934v-0.58008h0.81934v-1.37891l0.68945-0.51953v1.89844h1.18945v0.58008h-1.18945v3.09961
		c0,0.47852,0.22021,0.69922,0.60986,0.69922c0.16992,0,0.35986-0.04102,0.57959-0.10938L54.98535,73.41797z"/>
	<path d="M59.19434,68.66992l-0.33984,0.56055c-0.22949-0.10156-0.43945-0.15039-0.64941-0.15039
		c-0.75977,0-1.31934,0.56836-1.31934,1.63867v2.74805h-0.68945v-4.92773h0.68945v0.74023
		c0.35986-0.64844,0.95947-0.81836,1.45898-0.81836C58.64502,68.46094,58.9248,68.51953,59.19434,68.66992z"/>
	<path d="M60.15625,66.50195h0.79932v1.01953h-0.79932V66.50195z M60.21631,68.53906h0.68945v4.92773h-0.68945V68.53906z"/>
	<path d="M65.4165,72.39844v-5.89648h0.68945v5.85547c0,0.33984,0.12012,0.56055,0.44971,0.56055
		c0.1499,0,0.31982-0.04102,0.46973-0.08984l0.01025,0.58984c-0.20996,0.06836-0.45996,0.12891-0.67969,0.12891
		C65.78613,73.54688,65.4165,73.16797,65.4165,72.39844z"/>
	<path d="M71.91406,68.53906v4.92773h-0.68945v-0.70898c-0.3501,0.5293-0.97949,0.78906-1.62939,0.78906
		c-1.11914,0-1.60889-0.76953-1.60889-1.98828v-3.01953h0.68945v2.84961c0,0.79883,0.14014,1.54883,1.07959,1.54883
		c0.97949,0,1.46924-0.84961,1.46924-2.12891v-2.26953H71.91406z"/>
	<path d="M73.25586,70.99805c0-1.45898,0.9502-2.53711,2.35938-2.53711c1.39941,0,2.36914,1.07812,2.36914,2.53711
		c0,1.44922-0.95996,2.54883-2.36914,2.54883S73.25586,72.45703,73.25586,70.99805z M77.29492,70.99805
		c0-1.11914-0.63086-1.92773-1.67969-1.92773c-1.05957,0-1.66895,0.81836-1.66895,1.92773
		c0,1.11914,0.62012,1.93945,1.66895,1.93945C76.6748,72.9375,77.29492,72.09766,77.29492,70.99805z"/>
	<path d="M83.21387,74.22656c0,0.92969-0.87012,1.35938-2.1084,1.35938c-1.36914,0-2.19922-0.53906-2.19922-1.51953
		c0-0.09961,0.00977-0.16016,0.01953-0.21875l0.7998-0.67969c-0.37988-0.16992-0.63965-0.45117-0.63965-0.93945
		c0-0.40039,0.17969-0.69922,0.5293-0.93945c-0.25977-0.30078-0.41992-0.67969-0.41992-1.11914c0-1,0.82031-1.70898,1.87891-1.70898
		c0.48047,0,0.91016,0.14844,1.23047,0.39844l0.67969-0.58984l0.35938,0.45117l-0.66992,0.55859
		c0.16992,0.26953,0.26953,0.58008,0.26953,0.92969c0,1.00977-0.81836,1.67969-1.8584,1.67969
		c-0.37988,0-0.72949-0.08984-1.01953-0.25c-0.2002,0.10938-0.31934,0.28906-0.31934,0.5c0,0.5,0.61914,0.61914,1.32812,0.72852
		C82.05469,73.01758,83.21387,73.1582,83.21387,74.22656z M82.52344,74.28711c0-0.59961-0.7793-0.68945-1.59863-0.82031
		c-0.21973-0.0293-0.4502-0.07031-0.65918-0.11914l-0.66992,0.64844c-0.00977,0.05078-0.00977,0.07031-0.00977,0.0918
		c0,0.69922,0.70898,0.91797,1.54883,0.91797C82.00391,75.00586,82.52344,74.76562,82.52344,74.28711z M79.875,70.18945
		c0,0.63867,0.46094,1.12891,1.19922,1.12891c0.74023,0,1.17969-0.48047,1.17969-1.12891c0-0.67969-0.45898-1.15039-1.16895-1.15039
		C80.38477,69.03906,79.875,69.50977,79.875,70.18945z"/>
	<path d="M88.51367,70.44922v3.01758h-0.68945v-2.84766c0-1.07031-0.33984-1.54883-1.08008-1.54883
		c-0.93945,0-1.46875,0.76953-1.46875,2.12891v2.26758h-0.68945v-6.96484h0.68945v2.75781
		c0.32031-0.5,0.91992-0.79883,1.62891-0.79883C87.96387,68.46094,88.51367,69.14062,88.51367,70.44922z"/>
	<path d="M90.15625,66.50195h0.79883v1.01953h-0.79883V66.50195z M90.21582,68.53906h0.68945v4.92773h-0.68945V68.53906z"/>
</g>
<g enable-background="new    ">
	<path d="M105.61328,40.50146h0.70898v6.30713h3.17871v0.6582h-3.8877V40.50146z"/>
	<path d="M114.36133,42.53955v4.92725h-0.68945v-0.70898c-0.35059,0.5293-0.98047,0.78906-1.62988,0.78906
		c-1.11914,0-1.6084-0.76953-1.6084-1.98877v-3.01855h0.68945v2.84863c0,0.79932,0.13965,1.54932,1.0791,1.54932
		c0.97949,0,1.46973-0.84961,1.46973-2.12842v-2.26953H114.36133z"/>
	<path d="M115.70312,44.99854c0-1.45898,0.94922-2.53809,2.35938-2.53809c1.39844,0,2.36816,1.0791,2.36816,2.53809
		c0,1.44873-0.95996,2.54834-2.36816,2.54834C116.65234,47.54688,115.70312,46.45703,115.70312,44.99854z M119.74121,44.99854
		c0-1.11914-0.62988-1.92871-1.67871-1.92871c-1.06055,0-1.66992,0.81934-1.66992,1.92871
		c0,1.11865,0.62012,1.93896,1.66992,1.93896C119.12109,46.9375,119.74121,46.09766,119.74121,44.99854z"/>
	<path d="M125.66113,48.22656c0,0.92969-0.87012,1.35938-2.1084,1.35938c-1.36914,0-2.19922-0.53906-2.19922-1.51953
		c0-0.09961,0.00977-0.16016,0.01953-0.21875l0.7998-0.67969c-0.37988-0.16992-0.63965-0.45117-0.63965-0.93945
		c0-0.3999,0.17969-0.69971,0.5293-0.93994c-0.25977-0.2998-0.41992-0.67969-0.41992-1.11914c0-1,0.82031-1.70898,1.87891-1.70898
		c0.48047,0,0.91016,0.14941,1.23047,0.39941l0.67969-0.58984l0.35938,0.4502l-0.66992,0.55957
		c0.16992,0.26953,0.26953,0.5791,0.26953,0.92969c0,1.00879-0.81836,1.67871-1.8584,1.67871
		c-0.37988,0-0.72949-0.08984-1.01953-0.25c-0.2002,0.11035-0.31934,0.29004-0.31934,0.50049c0,0.5,0.61914,0.61914,1.32812,0.72852
		C124.50195,47.01758,125.66113,47.1582,125.66113,48.22656z M124.9707,48.28711c0-0.59961-0.7793-0.68945-1.59863-0.82031
		c-0.21973-0.0293-0.4502-0.07031-0.65918-0.11914l-0.66992,0.64844c-0.00977,0.05078-0.00977,0.07031-0.00977,0.0918
		c0,0.69922,0.70898,0.91797,1.54883,0.91797C124.45117,49.00586,124.9707,48.76562,124.9707,48.28711z M122.32227,44.18896
		c0,0.63965,0.46094,1.12988,1.19922,1.12988c0.74023,0,1.17969-0.48047,1.17969-1.12988c0-0.67969-0.45898-1.14941-1.16895-1.14941
		C122.83203,43.03955,122.32227,43.50928,122.32227,44.18896z"/>
	<path d="M126.40332,44.99854c0-1.45898,0.94922-2.53809,2.3584-2.53809c1.39941,0,2.36914,1.0791,2.36914,2.53809
		c0,1.44873-0.95996,2.54834-2.36914,2.54834S126.40332,46.45703,126.40332,44.99854z M130.44141,44.99854
		c0-1.11914-0.63086-1.92871-1.67969-1.92871c-1.05957,0-1.66895,0.81934-1.66895,1.92871
		c0,1.11865,0.62012,1.93896,1.66895,1.93896C129.82129,46.9375,130.44141,46.09766,130.44141,44.99854z"/>
</g>
<g enable-background="new    ">
	<path d="M109.50098,53.50195v6.96484h-0.69043v-0.6582c-0.35938,0.45898-0.9082,0.73828-1.62891,0.73828
		c-1.43848,0-2.18848-1.07812-2.18848-2.54883c0-1.53906,0.81934-2.54883,2.18848-2.54883c0.7002,0,1.25977,0.27148,1.62891,0.75
		v-2.69727H109.50098z M108.87109,57.99805c0-1.16797-0.59961-1.9375-1.58887-1.9375c-0.99902,0-1.59863,0.76953-1.59863,1.9375
		c0,1.11914,0.54883,1.93945,1.59863,1.93945C108.32129,59.9375,108.87109,59.11719,108.87109,57.99805z"/>
	<path d="M115.2207,58.18945h-3.60742c0.01953,1.07812,0.61914,1.72852,1.58887,1.72852c0.54004,0,0.96973-0.14062,1.41895-0.61914
		l0.48047,0.41797c-0.58008,0.61133-1.15039,0.83008-1.91016,0.83008c-1.49805,0-2.26758-1.11914-2.26758-2.51758
		c0-1.39062,0.75977-2.56836,2.18848-2.56836c1.50879,0,2.13867,1.17773,2.13867,2.29688
		C115.25098,57.89844,115.24023,58.06836,115.2207,58.18945z M111.61328,57.60938h2.97852
		c0-0.02148-0.01074-0.07031-0.01074-0.16016c-0.0498-0.80078-0.55957-1.41016-1.46875-1.41016
		C112.22266,56.03906,111.67285,56.74023,111.61328,57.60938z"/>
	<path d="M116.11328,59.25781l0.58008-0.25977c0.17969,0.50977,0.65918,0.93945,1.42871,0.93945
		c0.66895,0,1.09961-0.33008,1.09961-0.84961c0-1.30859-2.83887-0.49023-2.83887-2.23828c0-0.85938,0.69922-1.38867,1.68945-1.38867
		c0.78906,0,1.42969,0.32812,1.76953,1.0293l-0.55078,0.29883c-0.23926-0.43945-0.62891-0.71875-1.23828-0.71875
		c-0.61035,0-1,0.25-1,0.67969c0,1.16797,2.84766,0.42969,2.84766,2.29883c0,0.99805-0.81836,1.49805-1.76855,1.49805
		C117.16211,60.54688,116.37305,60.04688,116.11328,59.25781z"/>
	<path d="M125.06055,55.53906v4.92773h-0.68945v-0.70898c-0.34961,0.5293-0.97852,0.78906-1.62891,0.78906
		c-1.11914,0-1.60938-0.76953-1.60938-1.98828v-3.01953h0.68945v2.84961c0,0.79883,0.14062,1.54883,1.08008,1.54883
		c0.97949,0,1.46875-0.84961,1.46875-2.12891v-2.26953H125.06055z"/>
	<path d="M130.81055,57.44922v3.01758h-0.68945v-2.84766c0-1.06055-0.33984-1.54883-1.0791-1.54883
		c-0.92969,0-1.46973,0.79883-1.46973,2.1875v2.20898h-0.68945v-4.92773h0.68945v0.7207
		c0.32031-0.5,0.91992-0.79883,1.62891-0.79883C130.26172,55.46094,130.81055,56.14062,130.81055,57.44922z"/>
	<path d="M134.5625,60.41797c-0.25977,0.08008-0.52051,0.12891-0.75,0.12891c-0.66016,0-1.13965-0.36914-1.13965-1.23828v-3.18945
		h-0.81934v-0.58008h0.81934v-1.37891l0.68945-0.51953v1.89844h1.18945v0.58008h-1.18945v3.09961
		c0,0.47852,0.21973,0.69922,0.61035,0.69922c0.16992,0,0.35938-0.04102,0.5791-0.10938L134.5625,60.41797z"/>
	<path d="M135.39355,57.99805c0-1.45898,0.94922-2.53711,2.3584-2.53711c1.39941,0,2.36914,1.07812,2.36914,2.53711
		c0,1.44922-0.95996,2.54883-2.36914,2.54883S135.39355,59.45703,135.39355,57.99805z M139.43164,57.99805
		c0-1.11914-0.63086-1.92773-1.67969-1.92773c-1.05957,0-1.66895,0.81836-1.66895,1.92773
		c0,1.11914,0.62012,1.93945,1.66895,1.93945C138.81152,59.9375,139.43164,59.09766,139.43164,57.99805z"/>
</g>
</svg>
