<?xml version="1.0" encoding="utf-8"?>
<!-- Generator: Adobe Illustrator 25.0.0, SVG Export Plug-In . SVG Version: 6.00 Build 0)  -->
<svg version="1.1" id="Livello_1" xmlns="http://www.w3.org/2000/svg" xmlns:xlink="http://www.w3.org/1999/xlink" x="0px" y="0px"
	 viewBox="0 0 145 89.7" enable-background="new 0 0 145 89.7" xml:space="preserve">
<circle id="Ellisse_36" fill="#DDDDDD" cx="19.3" cy="11.5" r="11"/>
<circle id="Ellisse_37" fill="#DDDDDD" cx="19.3" cy="11.5" r="10.9"/>
<circle id="Ellisse_36-2" fill="#DDDDDD" stroke="#000000" cx="71.3" cy="11.5" r="11"/>
<circle id="Ellisse_37-2" fill="#DDDDDD" stroke="#000000" stroke-width="0.5" cx="71.3" cy="11.5" r="10.9"/>
<g id="Ellipse_24-3" transform="translate(157.453 368.782)">
	<circle id="Ellisse_36-3" fill="#DDDDDD" stroke="#000000" cx="-38" cy="-357.29999" r="11"/>
	<circle id="Ellisse_37-3" fill="#DDDDDD" stroke="#000000" stroke-width="0.5" cx="-38" cy="-357.29999" r="10.9"/>
</g>
<g id="Ellipse_24-4" transform="translate(167.36 378.689)">
	<circle id="Ellisse_36-4" cx="-47.9" cy="-367.20001" r="1.1"/>
	<circle id="Ellisse_37-4" cx="-47.9" cy="-367.20001" r="1.1"/>
</g>
<g>
	<path d="M1.13916,40.53418h0.70996v6.30664h3.17822V47.5H1.13916V40.53418z"/>
	<path d="M5.79932,45.03125c0-1.45898,0.94971-2.53809,2.35889-2.53809c1.39941,0,2.36865,1.0791,2.36865,2.53809
		c0,1.44922-0.95947,2.54883-2.36865,2.54883S5.79932,46.49023,5.79932,45.03125z M9.8374,45.03125
		c0-1.11914-0.62988-1.92871-1.6792-1.92871c-1.05957,0-1.66895,0.81934-1.66895,1.92871c0,1.11914,0.61963,1.93945,1.66895,1.93945
		C9.21777,46.9707,9.8374,46.13086,9.8374,45.03125z"/>
	<path d="M11.50928,45.05176c0-1.2998,0.72998-2.55859,2.21875-2.55859c0.87988,0,1.60938,0.43945,1.99902,1.3584l-0.65967,0.26074
		c-0.22949-0.62988-0.71924-1.00977-1.33936-1.00977c-1.04932,0-1.51904,0.93945-1.51904,1.94922
		c0,1.00879,0.46973,1.91895,1.5293,1.91895c0.61963,0,1.10938-0.37012,1.29932-1l0.63965,0.24023
		c-0.33008,0.89941-1.04932,1.36914-1.93896,1.36914C12.30908,47.58008,11.50928,46.4209,11.50928,45.05176z"/>
	<path d="M20.61768,44.43164V47.5h-0.62988l-0.04004-0.75977c-0.38965,0.5498-0.98926,0.83984-1.76904,0.83984
		c-1.06934,0-1.69873-0.55957-1.69873-1.50977c0-0.49902,0.19971-0.87891,0.55957-1.09863
		c0.37988-0.21973,0.90967-0.31055,1.87891-0.31055h1.00928v-0.22949c0-0.85938-0.44971-1.3291-1.2793-1.3291
		c-0.61963,0-1.09912,0.26953-1.49902,0.81934l-0.49951-0.41992c0.5293-0.68945,1.16895-1.00879,2.00879-1.00879
		C19.89795,42.49316,20.61768,43.20215,20.61768,44.43164z M19.92773,45.29102v-0.06934h-0.94922
		c-0.90967,0-1.29932,0.05957-1.53906,0.24902c-0.18018,0.14062-0.27002,0.36035-0.27002,0.63965
		c0,0.5498,0.46973,0.90039,1.20947,0.90039C19.32812,47.01074,19.92773,46.34082,19.92773,45.29102z"/>
	<path d="M24.34814,47.4502c-0.25977,0.08008-0.52002,0.12988-0.74951,0.12988c-0.65967,0-1.13965-0.37012-1.13965-1.23926v-3.18848
		h-0.81934v-0.58008h0.81934v-1.37891l0.68994-0.51953v1.89844h1.18896v0.58008h-1.18896v3.09863
		c0,0.47949,0.21973,0.69922,0.60938,0.69922c0.16992,0,0.35986-0.04004,0.57959-0.10938L24.34814,47.4502z"/>
	<path d="M25.59912,40.53418h0.79932v1.01953h-0.79932V40.53418z M25.65918,42.57227h0.68945V47.5h-0.68945V42.57227z"/>
	<path d="M27.73975,45.03125c0-1.45898,0.94922-2.53809,2.3584-2.53809c1.39941,0,2.36865,1.0791,2.36865,2.53809
		c0,1.44922-0.95947,2.54883-2.36865,2.54883S27.73975,46.49023,27.73975,45.03125z M31.77734,45.03125
		c0-1.11914-0.62988-1.92871-1.6792-1.92871c-1.05957,0-1.66895,0.81934-1.66895,1.92871c0,1.11914,0.61963,1.93945,1.66895,1.93945
		C31.15771,46.9707,31.77734,46.13086,31.77734,45.03125z"/>
	<path d="M37.78711,44.48145V47.5h-0.68945v-2.84863c0-1.05957-0.33984-1.54883-1.07959-1.54883
		c-0.92969,0-1.46924,0.7998-1.46924,2.18848V47.5h-0.68945v-4.92773h0.68945v0.71973
		c0.31982-0.49902,0.91943-0.79883,1.62891-0.79883C37.2373,42.49316,37.78711,43.17285,37.78711,44.48145z"/>
</g>
<g>
	<path d="M54.13916,40.63428h0.70996v6.30615h3.17822v0.65918h-3.88818V40.63428z"/>
	<path d="M58.79932,45.13135c0-1.45898,0.94971-2.53809,2.35889-2.53809c1.39941,0,2.36865,1.0791,2.36865,2.53809
		c0,1.44873-0.95947,2.54834-2.36865,2.54834S58.79932,46.58984,58.79932,45.13135z M62.8374,45.13135
		c0-1.11914-0.62988-1.92871-1.6792-1.92871c-1.05957,0-1.66895,0.81934-1.66895,1.92871c0,1.11865,0.61963,1.93896,1.66895,1.93896
		C62.21777,47.07031,62.8374,46.23047,62.8374,45.13135z"/>
	<path d="M64.50928,45.15186c0-1.2998,0.72998-2.55859,2.21875-2.55859c0.87988,0,1.60938,0.43945,1.99902,1.3584l-0.65967,0.26074
		c-0.22949-0.62988-0.71924-1.00977-1.33936-1.00977c-1.04932,0-1.51904,0.93945-1.51904,1.94922
		c0,1.0083,0.46973,1.91846,1.5293,1.91846c0.61963,0,1.10938-0.37012,1.29932-1l0.63965,0.24023
		c-0.33008,0.89941-1.04932,1.36914-1.93896,1.36914C65.30908,47.67969,64.50928,46.52051,64.50928,45.15186z"/>
	<path d="M73.61719,44.53174v3.06787h-0.62939l-0.04004-0.75977c-0.38965,0.5498-0.98926,0.83984-1.76904,0.83984
		c-1.06934,0-1.69873-0.55957-1.69873-1.50977c0-0.49854,0.19971-0.87842,0.55957-1.09814
		c0.37988-0.21973,0.90967-0.31055,1.87891-0.31055h1.00928v-0.22949c0-0.85938-0.44971-1.3291-1.2793-1.3291
		c-0.61963,0-1.09912,0.26953-1.49902,0.81934l-0.49951-0.41992c0.5293-0.68945,1.16895-1.00879,2.00879-1.00879
		C72.89795,42.59326,73.61719,43.30225,73.61719,44.53174z M72.92773,45.39111v-0.06934h-0.94922
		c-0.90967,0-1.29932,0.05957-1.53906,0.24902c-0.18018,0.14062-0.27002,0.36035-0.27002,0.63916
		c0,0.5498,0.46973,0.90039,1.20947,0.90039C72.32812,47.11035,72.92773,46.44043,72.92773,45.39111z"/>
	<path d="M77.34766,47.5498c-0.25977,0.08008-0.51953,0.12988-0.74902,0.12988c-0.65918,0-1.13965-0.37012-1.13965-1.23926v-3.18799
		h-0.81934v-0.58008h0.81934v-1.37891l0.68945-0.51953v1.89844h1.18945v0.58008h-1.18945v3.09814
		c0,0.47949,0.2207,0.69922,0.60938,0.69922c0.16992,0,0.36035-0.04004,0.58008-0.10938L77.34766,47.5498z"/>
	<path d="M78.59961,40.63428h0.79883v1.01953h-0.79883V40.63428z M78.65918,42.67236h0.68945v4.92725h-0.68945V42.67236z"/>
	<path d="M80.74023,45.13135c0-1.45898,0.94922-2.53809,2.35742-2.53809c1.40039,0,2.36914,1.0791,2.36914,2.53809
		c0,1.44873-0.95898,2.54834-2.36914,2.54834C81.68945,47.67969,80.74023,46.58984,80.74023,45.13135z M84.77734,45.13135
		c0-1.11914-0.62988-1.92871-1.67969-1.92871c-1.05859,0-1.66797,0.81934-1.66797,1.92871
		c0,1.11865,0.61914,1.93896,1.66797,1.93896C84.1582,47.07031,84.77734,46.23047,84.77734,45.13135z"/>
	<path d="M90.78711,44.58154v3.01807h-0.68945v-2.84814c0-1.05957-0.33984-1.54883-1.08008-1.54883
		c-0.92969,0-1.46875,0.7998-1.46875,2.18848v2.2085h-0.68945v-4.92725h0.68945v0.71973
		c0.32031-0.49902,0.91992-0.79883,1.62891-0.79883C90.2373,42.59326,90.78711,43.27295,90.78711,44.58154z"/>
	<path d="M53.49951,57.15137c0-1.2998,0.72998-2.55859,2.21875-2.55859c0.87988,0,1.60938,0.43945,1.99902,1.3584l-0.65967,0.26074
		c-0.22949-0.62988-0.71924-1.00977-1.33936-1.00977c-1.04932,0-1.51904,0.93945-1.51904,1.94922
		c0,1.00879,0.46973,1.91895,1.5293,1.91895c0.61963,0,1.10938-0.37012,1.29932-1l0.63965,0.24023
		c-0.33008,0.89941-1.04932,1.36914-1.93896,1.36914C54.29932,59.67969,53.49951,58.52051,53.49951,57.15137z"/>
	<path d="M58.51025,57.13086c0-1.45898,0.94922-2.53809,2.3584-2.53809c1.39941,0,2.36865,1.0791,2.36865,2.53809
		c0,1.44922-0.95947,2.54883-2.36865,2.54883S58.51025,58.58984,58.51025,57.13086z M62.54785,57.13086
		c0-1.11914-0.62988-1.92871-1.6792-1.92871c-1.05957,0-1.66895,0.81934-1.66895,1.92871c0,1.11914,0.61963,1.93945,1.66895,1.93945
		C61.92822,59.07031,62.54785,58.23047,62.54785,57.13086z"/>
	<path d="M68.55713,56.58105v3.01855h-0.68945v-2.84863c0-1.05957-0.33984-1.54883-1.07959-1.54883
		c-0.92969,0-1.46924,0.7998-1.46924,2.18848v2.20898h-0.68945v-4.92773h0.68945v0.71973
		c0.31982-0.49902,0.91943-0.79883,1.62891-0.79883C68.00732,54.59277,68.55713,55.27246,68.55713,56.58105z"/>
	<path d="M72.30811,59.5498c-0.25977,0.08008-0.52002,0.12988-0.74951,0.12988c-0.65967,0-1.13965-0.37012-1.13965-1.23926v-3.18848
		h-0.81934v-0.58008h0.81934v-1.37891l0.68994-0.51953v1.89844h1.18896v0.58008h-1.18896v3.09863
		c0,0.47949,0.21973,0.69922,0.60938,0.69922c0.16992,0,0.35986-0.04004,0.57959-0.10938L72.30811,59.5498z"/>
	<path d="M77.28711,56.53125v3.06836H76.6582l-0.04102-0.75977c-0.38867,0.5498-0.98828,0.83984-1.76855,0.83984
		c-1.06934,0-1.69824-0.55957-1.69824-1.50977c0-0.49902,0.19922-0.87891,0.55859-1.09863
		c0.38086-0.21973,0.91016-0.31055,1.87891-0.31055h1.00977v-0.22949c0-0.85938-0.44922-1.3291-1.2793-1.3291
		c-0.61914,0-1.09961,0.26953-1.49902,0.81934l-0.49902-0.41992c0.5293-0.68945,1.16797-1.00879,2.00781-1.00879
		C76.56836,54.59277,77.28711,55.30176,77.28711,56.53125z M76.59766,57.39062v-0.06934h-0.94922
		c-0.91016,0-1.29883,0.05957-1.53906,0.24902c-0.17969,0.14062-0.26953,0.36035-0.26953,0.63965
		c0,0.5498,0.46875,0.90039,1.20898,0.90039C75.99805,59.11035,76.59766,58.44043,76.59766,57.39062z"/>
	<path d="M78.90918,52.63379h0.7998v1.01953h-0.7998V52.63379z M78.96875,54.67188h0.68945v4.92773h-0.68945V54.67188z"/>
	<path d="M85.40723,56.58105v3.01855h-0.68945v-2.84863c0-1.05957-0.33984-1.54883-1.0791-1.54883
		c-0.92969,0-1.46973,0.7998-1.46973,2.18848v2.20898h-0.68945v-4.92773h0.68945v0.71973
		c0.31934-0.49902,0.91895-0.79883,1.62891-0.79883C84.85742,54.59277,85.40723,55.27246,85.40723,56.58105z"/>
	<path d="M87.04883,52.63379h0.7998v1.01953h-0.7998V52.63379z M87.10938,54.67188h0.68945v4.92773h-0.68945V54.67188z"/>
	<path d="M93.54688,56.58105v3.01855h-0.68945v-2.84863c0-1.05957-0.33984-1.54883-1.08008-1.54883
		c-0.92969,0-1.46875,0.7998-1.46875,2.18848v2.20898h-0.68945v-4.92773h0.68945v0.71973
		c0.32031-0.49902,0.91992-0.79883,1.62891-0.79883C92.99707,54.59277,93.54688,55.27246,93.54688,56.58105z"/>
	<path d="M99.08691,60.35938c0,0.92969-0.87012,1.35938-2.1084,1.35938c-1.36914,0-2.19922-0.54004-2.19922-1.51953
		c0-0.09961,0.00977-0.16016,0.01953-0.21973l0.7998-0.67969c-0.37988-0.16992-0.63965-0.4502-0.63965-0.93945
		c0-0.39941,0.17969-0.69922,0.5293-0.93945c-0.25977-0.2998-0.41992-0.67969-0.41992-1.11914c0-1,0.82031-1.70898,1.87891-1.70898
		c0.48047,0,0.91016,0.14941,1.23047,0.39941l0.67969-0.58984l0.35938,0.4502l-0.66992,0.55957
		c0.16992,0.26953,0.26953,0.5791,0.26953,0.92969c0,1.00879-0.81836,1.67871-1.8584,1.67871
		c-0.37988,0-0.72949-0.08984-1.01953-0.25c-0.2002,0.11035-0.31934,0.29004-0.31934,0.5c0,0.5,0.61914,0.61914,1.32812,0.72949
		C97.92773,59.14941,99.08691,59.29004,99.08691,60.35938z M98.39648,60.41895c0-0.59961-0.7793-0.68945-1.59863-0.81934
		c-0.21973-0.03027-0.4502-0.07031-0.65918-0.12012l-0.66992,0.64941c-0.00977,0.05078-0.00977,0.07031-0.00977,0.09082
		c0,0.69922,0.70898,0.91895,1.54883,0.91895C97.87695,61.13867,98.39648,60.89844,98.39648,60.41895z M95.74805,56.32129
		c0,0.63965,0.46094,1.12988,1.19922,1.12988c0.74023,0,1.17969-0.48047,1.17969-1.12988c0-0.67969-0.45898-1.14941-1.16895-1.14941
		C96.25781,55.17188,95.74805,55.6416,95.74805,56.32129z"/>
	<path d="M53.47998,69.13086c0-1.45898,0.94922-2.53809,2.3584-2.53809c1.39941,0,2.36865,1.0791,2.36865,2.53809
		c0,1.44922-0.95947,2.54883-2.36865,2.54883S53.47998,70.58984,53.47998,69.13086z M57.51758,69.13086
		c0-1.11914-0.62988-1.92871-1.6792-1.92871c-1.05957,0-1.66895,0.81934-1.66895,1.92871c0,1.11914,0.61963,1.93945,1.66895,1.93945
		C56.89795,71.07031,57.51758,70.23047,57.51758,69.13086z"/>
	<path d="M61.59863,71.5498c-0.25977,0.08008-0.52002,0.12988-0.74951,0.12988c-0.65967,0-1.13965-0.37012-1.13965-1.23926v-3.18848
		h-0.81934v-0.58008h0.81934v-1.37891l0.68945-0.51953v1.89844h1.18945v0.58008h-1.18945v3.09863
		c0,0.47949,0.22021,0.69922,0.60986,0.69922c0.16992,0,0.35986-0.04004,0.57959-0.10938L61.59863,71.5498z"/>
	<path d="M66.8374,68.58105v3.01855h-0.68945v-2.84863c0-1.06934-0.33984-1.54883-1.07959-1.54883
		c-0.93945,0-1.46924,0.76953-1.46924,2.12891v2.26855h-0.68945v-6.96582h0.68945v2.75781
		c0.31982-0.49902,0.91943-0.79883,1.62891-0.79883C66.2876,66.59277,66.8374,67.27246,66.8374,68.58105z"/>
	<path d="M72.43701,69.32129H68.8291c0.02002,1.0791,0.61963,1.72852,1.58936,1.72852c0.53955,0,0.96924-0.13965,1.41895-0.61914
		l0.47998,0.41895c-0.57959,0.61035-1.14941,0.83008-1.90918,0.83008c-1.49902,0-2.26855-1.11914-2.26855-2.51855
		c0-1.38965,0.75977-2.56836,2.18896-2.56836c1.50879,0,2.13867,1.17871,2.13867,2.29785
		C72.46729,69.03125,72.45703,69.20117,72.43701,69.32129z M68.8291,68.74121h2.97852c0-0.01953-0.01025-0.07031-0.01025-0.16016
		c-0.0498-0.7998-0.55957-1.40918-1.46875-1.40918C69.43896,67.17188,68.88916,67.87207,68.8291,68.74121z"/>
	<path d="M76.85742,66.80176l-0.33984,0.56055c-0.22949-0.10059-0.43945-0.15039-0.64941-0.15039
		c-0.75977,0-1.31934,0.56934-1.31934,1.63965v2.74805h-0.68945v-4.92773h0.68945v0.74023
		c0.35938-0.64941,0.95898-0.81934,1.45898-0.81934C76.30859,66.59277,76.58789,66.65234,76.85742,66.80176z"/>
	<path d="M53.86963,82.53027v-5.89648h0.68945v5.85645c0,0.33984,0.12012,0.55957,0.44971,0.55957
		c0.1499,0,0.31982-0.04004,0.46973-0.08984l0.01025,0.58984c-0.20996,0.06934-0.45996,0.12988-0.67969,0.12988
		C54.23926,83.67969,53.86963,83.2998,53.86963,82.53027z"/>
	<path d="M56.1792,81.13086c0-1.45898,0.94971-2.53809,2.35889-2.53809c1.39941,0,2.36865,1.0791,2.36865,2.53809
		c0,1.44922-0.95947,2.54883-2.36865,2.54883S56.1792,82.58984,56.1792,81.13086z M60.21729,81.13086
		c0-1.11914-0.62988-1.92871-1.6792-1.92871c-1.05957,0-1.66895,0.81934-1.66895,1.92871c0,1.11914,0.61963,1.93945,1.66895,1.93945
		C59.59766,83.07031,60.21729,82.23047,60.21729,81.13086z"/>
	<path d="M61.88916,81.15137c0-1.2998,0.72998-2.55859,2.21875-2.55859c0.87988,0,1.60938,0.43945,1.99902,1.3584l-0.65967,0.26074
		c-0.22949-0.62988-0.71924-1.00977-1.33936-1.00977c-1.04932,0-1.51904,0.93945-1.51904,1.94922
		c0,1.00879,0.46973,1.91895,1.5293,1.91895c0.61963,0,1.10938-0.37012,1.29932-1l0.63965,0.24023
		c-0.33008,0.89941-1.04932,1.36914-1.93896,1.36914C62.68896,83.67969,61.88916,82.52051,61.88916,81.15137z"/>
	<path d="M70.99756,80.53125v3.06836h-0.62988l-0.04004-0.75977c-0.38965,0.5498-0.98926,0.83984-1.76904,0.83984
		c-1.06934,0-1.69873-0.55957-1.69873-1.50977c0-0.49902,0.19971-0.87891,0.55957-1.09863
		c0.37988-0.21973,0.90967-0.31055,1.87891-0.31055h1.00928v-0.22949c0-0.85938-0.44971-1.3291-1.2793-1.3291
		c-0.61963,0-1.09912,0.26953-1.49902,0.81934l-0.49951-0.41992c0.5293-0.68945,1.16895-1.00879,2.00879-1.00879
		C70.27783,78.59277,70.99756,79.30176,70.99756,80.53125z M70.30762,81.39062v-0.06934H69.3584
		c-0.90967,0-1.29932,0.05957-1.53906,0.24902c-0.18018,0.14062-0.27002,0.36035-0.27002,0.63965
		c0,0.5498,0.46973,0.90039,1.20947,0.90039C69.70801,83.11035,70.30762,82.44043,70.30762,81.39062z"/>
	<path d="M74.72852,83.5498c-0.25977,0.08008-0.52051,0.12988-0.75,0.12988c-0.66016,0-1.13965-0.37012-1.13965-1.23926v-3.18848
		h-0.81934v-0.58008h0.81934v-1.37891l0.69043-0.51953v1.89844h1.18848v0.58008H73.5293v3.09863
		c0,0.47949,0.21875,0.69922,0.60938,0.69922c0.16992,0,0.35938-0.04004,0.5791-0.10938L74.72852,83.5498z"/>
	<path d="M75.97949,76.63379h0.7998v1.01953h-0.7998V76.63379z M76.03906,78.67188h0.68945v4.92773h-0.68945V78.67188z"/>
	<path d="M78.11914,81.13086c0-1.45898,0.94922-2.53809,2.35938-2.53809c1.39844,0,2.36816,1.0791,2.36816,2.53809
		c0,1.44922-0.95996,2.54883-2.36816,2.54883C79.06836,83.67969,78.11914,82.58984,78.11914,81.13086z M82.15723,81.13086
		c0-1.11914-0.62988-1.92871-1.67871-1.92871c-1.06055,0-1.66992,0.81934-1.66992,1.92871
		c0,1.11914,0.62012,1.93945,1.66992,1.93945C81.53711,83.07031,82.15723,82.23047,82.15723,81.13086z"/>
	<path d="M88.16699,80.58105v3.01855h-0.68945v-2.84863c0-1.05957-0.33984-1.54883-1.0791-1.54883
		c-0.92969,0-1.46973,0.7998-1.46973,2.18848v2.20898h-0.68945v-4.92773h0.68945v0.71973
		c0.31934-0.49902,0.91895-0.79883,1.62891-0.79883C87.61719,78.59277,88.16699,79.27246,88.16699,80.58105z"/>
	<path d="M89.33984,82.39062l0.5791-0.25977c0.17969,0.50879,0.65918,0.93945,1.42871,0.93945
		c0.66992,0,1.09961-0.33008,1.09961-0.84961c0-1.30957-2.83789-0.49023-2.83789-2.23926c0-0.85938,0.69922-1.38867,1.68945-1.38867
		c0.78906,0,1.42871,0.3291,1.76855,1.0293l-0.5498,0.2998c-0.24023-0.44043-0.62988-0.71973-1.23926-0.71973
		c-0.61035,0-0.99902,0.25-0.99902,0.67969c0,1.16895,2.84766,0.42969,2.84766,2.29883c0,0.99902-0.81934,1.49902-1.76953,1.49902
		C90.38867,83.67969,89.59961,83.17969,89.33984,82.39062z"/>
</g>
<g>
	<path d="M107.58789,40.63428h0.70996v6.96533h-0.70996V40.63428z"/>
	<path d="M114.27637,44.58154v3.01807h-0.68945v-2.84814c0-1.05957-0.33984-1.54883-1.08008-1.54883
		c-0.92969,0-1.46875,0.7998-1.46875,2.18848v2.2085h-0.68945v-4.92725h0.68945v0.71973
		c0.31934-0.49902,0.91895-0.79883,1.62891-0.79883C113.72656,42.59326,114.27637,43.27295,114.27637,44.58154z"/>
	<path d="M116.27832,43.25244h-1.04004v-0.58008h1.0498v-0.75879c0-1.0498,0.60938-1.35938,1.23926-1.35938
		c0.26953,0,0.56934,0.05957,0.87988,0.18945l-0.24023,0.5498c-0.20996-0.09961-0.39941-0.16016-0.56934-0.16016
		c-0.39062,0-0.62988,0.27051-0.62988,0.72949v0.80957h1.41895v0.58008h-1.41895v4.34717h-0.68945V43.25244z"/>
	<path d="M123.16602,45.32178h-3.60742c0.01953,1.07861,0.61914,1.72803,1.58887,1.72803c0.54004,0,0.96973-0.13965,1.41895-0.61914
		l0.48047,0.41895c-0.58008,0.61035-1.14941,0.83008-1.90918,0.83008c-1.49902,0-2.26855-1.11914-2.26855-2.51807
		c0-1.38965,0.75977-2.56836,2.18848-2.56836c1.50879,0,2.13867,1.17871,2.13867,2.29785
		C123.19629,45.03174,123.18652,45.20166,123.16602,45.32178z M119.55859,44.7417h2.97852
		c0-0.01953-0.01074-0.07031-0.01074-0.16016c-0.0498-0.7998-0.55957-1.40918-1.46875-1.40918
		C120.16797,43.17236,119.61816,43.87256,119.55859,44.7417z"/>
	<path d="M127.58691,42.80225l-0.33984,0.56055c-0.22949-0.10059-0.43945-0.15039-0.64941-0.15039
		c-0.75977,0-1.31934,0.56934-1.31934,1.63965v2.74756h-0.68945v-4.92725h0.68945v0.74023
		c0.35938-0.64941,0.95898-0.81934,1.45898-0.81934C127.03711,42.59326,127.31738,42.65283,127.58691,42.80225z"/>
	<path d="M131.60645,42.80225l-0.33984,0.56055c-0.22949-0.10059-0.43945-0.15039-0.64941-0.15039
		c-0.75977,0-1.31934,0.56934-1.31934,1.63965v2.74756h-0.68945v-4.92725h0.68945v0.74023
		c0.36035-0.64941,0.95996-0.81934,1.45898-0.81934C131.05664,42.59326,131.33691,42.65283,131.60645,42.80225z"/>
	<path d="M136.07617,45.32178h-3.6084c0.02051,1.07861,0.62012,1.72803,1.58984,1.72803c0.53906,0,0.96875-0.13965,1.41895-0.61914
		l0.47949,0.41895c-0.5791,0.61035-1.14941,0.83008-1.90918,0.83008c-1.49902,0-2.26855-1.11914-2.26855-2.51807
		c0-1.38965,0.75977-2.56836,2.18945-2.56836c1.50879,0,2.13867,1.17871,2.13867,2.29785
		C136.10645,45.03174,136.0957,45.20166,136.07617,45.32178z M132.46777,44.7417h2.97852c0-0.01953-0.00977-0.07031-0.00977-0.16016
		c-0.0498-0.7998-0.55957-1.40918-1.46875-1.40918C133.07812,43.17236,132.52832,43.87256,132.46777,44.7417z"/>
	<path d="M141.61621,40.63428v6.96533h-0.69043v-0.65918c-0.35938,0.45898-0.90918,0.73926-1.62891,0.73926
		c-1.43848,0-2.18848-1.0791-2.18848-2.54834c0-1.53906,0.81934-2.54883,2.18848-2.54883c0.7002,0,1.25977,0.27051,1.62891,0.75
		v-2.69824H141.61621z M140.98633,45.13135c0-1.16895-0.59961-1.93848-1.58887-1.93848c-1,0-1.59961,0.76953-1.59961,1.93848
		c0,1.11865,0.5498,1.93896,1.59961,1.93896C140.43652,47.07031,140.98633,46.25,140.98633,45.13135z"/>
	<path d="M107.31836,58.53027v-5.89648h0.68945v5.85645c0,0.33984,0.12012,0.55957,0.4502,0.55957
		c0.14941,0,0.31934-0.04004,0.46973-0.08984l0.00977,0.58984c-0.20996,0.06934-0.45996,0.12988-0.67969,0.12988
		C107.68848,59.67969,107.31836,59.2998,107.31836,58.53027z"/>
	<path d="M109.62793,57.13086c0-1.45898,0.9502-2.53809,2.35938-2.53809c1.39941,0,2.36816,1.0791,2.36816,2.53809
		c0,1.44922-0.95898,2.54883-2.36816,2.54883S109.62793,58.58984,109.62793,57.13086z M113.66602,57.13086
		c0-1.11914-0.62988-1.92871-1.67871-1.92871c-1.05957,0-1.66895,0.81934-1.66895,1.92871
		c0,1.11914,0.61914,1.93945,1.66895,1.93945C113.04688,59.07031,113.66602,58.23047,113.66602,57.13086z"/>
	<path d="M115.33789,57.15137c0-1.2998,0.73047-2.55859,2.21875-2.55859c0.87988,0,1.60938,0.43945,1.99902,1.3584l-0.65918,0.26074
		c-0.22949-0.62988-0.71973-1.00977-1.33984-1.00977c-1.04883,0-1.51855,0.93945-1.51855,1.94922
		c0,1.00879,0.46973,1.91895,1.5293,1.91895c0.61914,0,1.10938-0.37012,1.29883-1l0.63965,0.24023
		c-0.33008,0.89941-1.04883,1.36914-1.93848,1.36914C116.1377,59.67969,115.33789,58.52051,115.33789,57.15137z"/>
	<path d="M124.44629,56.53125v3.06836h-0.62988l-0.04004-0.75977c-0.38965,0.5498-0.98926,0.83984-1.76855,0.83984
		c-1.06934,0-1.69922-0.55957-1.69922-1.50977c0-0.49902,0.2002-0.87891,0.55957-1.09863
		c0.37988-0.21973,0.91016-0.31055,1.87891-0.31055h1.00977v-0.22949c0-0.85938-0.4502-1.3291-1.2793-1.3291
		c-0.62012,0-1.09961,0.26953-1.49902,0.81934l-0.5-0.41992c0.5293-0.68945,1.16895-1.00879,2.00879-1.00879
		C123.72656,54.59277,124.44629,55.30176,124.44629,56.53125z M123.75684,57.39062v-0.06934h-0.94922
		c-0.91016,0-1.2998,0.05957-1.53906,0.24902c-0.18066,0.14062-0.27051,0.36035-0.27051,0.63965
		c0,0.5498,0.46973,0.90039,1.20996,0.90039C123.15723,59.11035,123.75684,58.44043,123.75684,57.39062z"/>
	<path d="M128.17676,59.5498c-0.25977,0.08008-0.51953,0.12988-0.74902,0.12988c-0.66016,0-1.13965-0.37012-1.13965-1.23926
		v-3.18848h-0.81934v-0.58008h0.81934v-1.37891l0.68945-0.51953v1.89844h1.18945v0.58008h-1.18945v3.09863
		c0,0.47949,0.21973,0.69922,0.60938,0.69922c0.16992,0,0.36035-0.04004,0.58008-0.10938L128.17676,59.5498z"/>
	<path d="M129.42871,52.63379h0.79883v1.01953h-0.79883V52.63379z M129.48828,54.67188h0.68945v4.92773h-0.68945V54.67188z"/>
	<path d="M131.56836,57.13086c0-1.45898,0.94922-2.53809,2.3584-2.53809c1.39941,0,2.36914,1.0791,2.36914,2.53809
		c0,1.44922-0.95996,2.54883-2.36914,2.54883S131.56836,58.58984,131.56836,57.13086z M135.60645,57.13086
		c0-1.11914-0.62988-1.92871-1.67969-1.92871c-1.05957,0-1.66895,0.81934-1.66895,1.92871
		c0,1.11914,0.62012,1.93945,1.66895,1.93945C134.98633,59.07031,135.60645,58.23047,135.60645,57.13086z"/>
	<path d="M141.61621,56.58105v3.01855h-0.68945v-2.84863c0-1.05957-0.33984-1.54883-1.08008-1.54883
		c-0.92969,0-1.46875,0.7998-1.46875,2.18848v2.20898h-0.68945v-4.92773h0.68945v0.71973
		c0.31934-0.49902,0.91895-0.79883,1.62891-0.79883C141.06641,54.59277,141.61621,55.27246,141.61621,56.58105z"/>
</g>
</svg>
