<?xml version="1.0" encoding="utf-8"?>
<!-- Generator: Adobe Illustrator 25.0.0, SVG Export Plug-In . SVG Version: 6.00 Build 0)  -->
<svg version="1.1" id="Livello_1" xmlns="http://www.w3.org/2000/svg" xmlns:xlink="http://www.w3.org/1999/xlink" x="0px" y="0px"
	 viewBox="0 0 134 85.7" enable-background="new 0 0 134 85.7" xml:space="preserve">
<path id="Tracciato_109126" d="M72.28712,58.8861l-0.48607-0.46231l-2.4072,2.40112l-2.24701-2.56923l-0.55795,0.45683
	l2.79948,3.15641L72.28712,58.8861z"/>
<g id="Group-3" transform="translate(-143.98 292.55)">
	<path id="Path-6" fill="none" stroke="#C6CACF" stroke-width="0.5" stroke-dasharray="1.9,1.9" d="M213.418-243.73805v-37.28969"/>
	<path id="Path-5" fill="none" stroke="#C6CACF" stroke-width="0.5" d="M213.418-242.6348v-0.33098"/>
	<path id="Path-7" fill="none" stroke="#C6CACF" stroke-width="0.5" d="M213.418-281.46902v-0.33099"/>
</g>
<g id="Group" transform="translate(-190.98 303.639)">
	<path id="Path" fill="none" stroke="#444444" stroke-width="0.5" stroke-dasharray="2,2" d="M297.20001-283.94995L226.5-283.74994"
		/>
</g>
<g id="Ellipse_24" transform="translate(-178.562 283.308)">
	<ellipse id="Ellisse_36" fill="#FFFFFF" cx="248" cy="-264.30002" rx="19" ry="19"/>
	<ellipse id="Ellisse_37" fill="none" stroke="#1A1A1A" stroke-width="0.5" cx="248" cy="-264.30002" rx="18.60001" ry="18.6"/>
</g>
<g enable-background="new    ">
	<path d="M75.03516,50.6748h-2.4082v-0.65918h5.54688v0.65918h-2.41797v6.30664h-0.7207V50.6748z"/>
	<path d="M79.16602,50.01562h0.7998v1.01953h-0.7998V50.01562z M79.22656,52.05371h0.68945v4.92773h-0.68945V52.05371z"/>
	<path d="M83.78516,56.93164c-0.25977,0.08008-0.51953,0.12988-0.74902,0.12988c-0.65918,0-1.13965-0.37012-1.13965-1.23926
		v-3.18848h-0.81934v-0.58008h0.81934V50.6748l0.68945-0.51953v1.89844h1.18945v0.58008h-1.18945v3.09863
		c0,0.47949,0.2207,0.69922,0.60938,0.69922c0.16992,0,0.36035-0.04004,0.58008-0.10938L83.78516,56.93164z"/>
	<path d="M84.61719,54.5127c0-1.45898,0.94922-2.53809,2.3584-2.53809c1.39941,0,2.36816,1.0791,2.36816,2.53809
		c0,1.44922-0.95898,2.54883-2.36816,2.54883S84.61719,55.97168,84.61719,54.5127z M88.6543,54.5127
		c0-1.11914-0.62891-1.92871-1.67871-1.92871c-1.05957,0-1.66895,0.81934-1.66895,1.92871
		c0,1.11914,0.61914,1.93945,1.66895,1.93945C88.03516,56.45215,88.6543,55.6123,88.6543,54.5127z"/>
	<path d="M90.69727,55.91211v-5.89648h0.68945v5.85645c0,0.33984,0.11914,0.55957,0.44922,0.55957
		c0.15039,0,0.32031-0.04004,0.46973-0.08984l0.01074,0.58984c-0.21094,0.06934-0.46094,0.12988-0.67969,0.12988
		C91.06641,57.06152,90.69727,56.68164,90.69727,55.91211z"/>
	<path d="M93.00684,54.5127c0-1.45898,0.94922-2.53809,2.3584-2.53809c1.39941,0,2.36914,1.0791,2.36914,2.53809
		c0,1.44922-0.95996,2.54883-2.36914,2.54883S93.00684,55.97168,93.00684,54.5127z M97.04492,54.5127
		c0-1.11914-0.63086-1.92871-1.67969-1.92871c-1.05957,0-1.66895,0.81934-1.66895,1.92871
		c0,1.11914,0.62012,1.93945,1.66895,1.93945C96.4248,56.45215,97.04492,55.6123,97.04492,54.5127z"/>
</g>
<g enable-background="new    ">
	<path d="M6.26953,72.86914H8.1582c2.26855,0,3.55859,1.28906,3.55859,3.53809c0,2.21875-1.25977,3.42773-3.56836,3.42773H6.26953
		V72.86914z M8.08887,79.17578c1.94824,0,2.9082-0.91992,2.9082-2.79883c0-1.88867-0.95996-2.84863-2.84863-2.84863H6.97949v5.64746
		H8.08887z"/>
	<path d="M16.95801,76.7666v3.06836h-0.62988l-0.04004-0.75977c-0.38965,0.5498-0.98926,0.83984-1.76953,0.83984
		c-1.06934,0-1.69824-0.55957-1.69824-1.50977c0-0.49902,0.19922-0.87891,0.55957-1.09863
		c0.37988-0.21973,0.90918-0.31055,1.87891-0.31055h1.00879V76.7666c0-0.85938-0.44922-1.3291-1.2793-1.3291
		c-0.61914,0-1.09863,0.26953-1.49902,0.81934l-0.49902-0.41992c0.5293-0.68945,1.16895-1.00879,2.00879-1.00879
		C16.23828,74.82812,16.95801,75.53711,16.95801,76.7666z M16.26758,77.62598v-0.06934h-0.94922
		c-0.90918,0-1.29883,0.05957-1.53906,0.24902c-0.17969,0.14062-0.26953,0.36035-0.26953,0.63965
		c0,0.5498,0.46973,0.90039,1.20898,0.90039C15.66797,79.3457,16.26758,78.67578,16.26758,77.62598z"/>
	<path d="M20.68848,79.78516c-0.25977,0.08008-0.52051,0.12988-0.75,0.12988c-0.65918,0-1.13965-0.37012-1.13965-1.23926V75.4873
		h-0.81934v-0.58008h0.81934v-1.37891l0.68945-0.51953v1.89844h1.18945v0.58008h-1.18945v3.09863
		c0,0.47949,0.2207,0.69922,0.61035,0.69922c0.16992,0,0.35938-0.04004,0.5791-0.10938L20.68848,79.78516z"/>
	<path d="M25.66797,76.7666v3.06836h-0.62988l-0.04004-0.75977c-0.38965,0.5498-0.98926,0.83984-1.76953,0.83984
		c-1.06934,0-1.69824-0.55957-1.69824-1.50977c0-0.49902,0.19922-0.87891,0.55957-1.09863
		c0.37988-0.21973,0.90918-0.31055,1.87891-0.31055h1.00879V76.7666c0-0.85938-0.44922-1.3291-1.2793-1.3291
		c-0.61914,0-1.09863,0.26953-1.49902,0.81934l-0.49902-0.41992c0.5293-0.68945,1.16895-1.00879,2.00879-1.00879
		C24.94824,74.82812,25.66797,75.53711,25.66797,76.7666z M24.97754,77.62598v-0.06934h-0.94922
		c-0.90918,0-1.29883,0.05957-1.53906,0.24902c-0.17969,0.14062-0.26953,0.36035-0.26953,0.63965
		c0,0.5498,0.46973,0.90039,1.20898,0.90039C24.37793,79.3457,24.97754,78.67578,24.97754,77.62598z"/>
	<path d="M34.19727,72.86914v6.96582h-0.69043v-0.65918c-0.35938,0.45898-0.90918,0.73926-1.62891,0.73926
		c-1.43848,0-2.18848-1.0791-2.18848-2.54883c0-1.53906,0.81934-2.54883,2.18848-2.54883c0.7002,0,1.25977,0.27051,1.62891,0.75
		v-2.69824H34.19727z M33.56738,77.36621c0-1.16895-0.59961-1.93848-1.58887-1.93848c-1,0-1.59961,0.76953-1.59961,1.93848
		c0,1.11914,0.5498,1.93945,1.59961,1.93945C33.01758,79.30566,33.56738,78.48535,33.56738,77.36621z"/>
	<path d="M35.95898,72.86914h0.7998v1.01953h-0.7998V72.86914z M36.01953,74.90723h0.68945v4.92773h-0.68945V74.90723z"/>
	<path d="M45.7666,77.36621c0,1.46973-0.75,2.54883-2.18945,2.54883c-0.71875,0-1.26855-0.28027-1.62891-0.73926v2.69824h-0.68945
		v-6.9668h0.68945v0.66016c0.37012-0.47949,0.92969-0.75,1.62891-0.75C44.94727,74.81738,45.7666,75.82715,45.7666,77.36621z
		 M45.07715,77.36621c0-1.16895-0.59961-1.93848-1.59961-1.93848c-0.98926,0-1.58887,0.76953-1.58887,1.93848
		c0,1.11914,0.5498,1.93945,1.58887,1.93945C44.52734,79.30566,45.07715,78.48535,45.07715,77.36621z"/>
	<path d="M50.19727,75.03809l-0.33984,0.55957c-0.22949-0.10059-0.43945-0.15039-0.64941-0.15039
		c-0.75977,0-1.31934,0.56934-1.31934,1.63965v2.74805h-0.68945v-4.92773h0.68945v0.74023
		c0.35938-0.64941,0.95898-0.81934,1.45898-0.81934C49.64746,74.82812,49.92773,74.8877,50.19727,75.03809z"/>
	<path d="M51.15918,72.86914h0.79883v1.01953h-0.79883V72.86914z M51.21875,74.90723h0.68945v4.92773h-0.68945V74.90723z"/>
	<path d="M60.48535,76.75684v3.07812H59.7959v-2.88867c0-0.41992,0-1.50879-1.0791-1.50879c-1,0-1.26953,0.91895-1.26953,2.02832
		v2.36914h-0.68945v-2.84863c0-0.81934-0.25-1.54883-1.10938-1.54883c-0.95996,0-1.22949,0.90918-1.22949,2.02832v2.36914h-0.68945
		l-0.01074-4.92773h0.66992v0.60059c0.30957-0.49023,0.80957-0.67969,1.35938-0.67969c0.68945,0,1.19922,0.2998,1.44922,0.94922
		c0.31934-0.62988,0.86914-0.94922,1.61914-0.94922C59.99609,74.82812,60.48535,75.60742,60.48535,76.75684z"/>
	<path d="M65.85645,76.7666v3.06836h-0.62988l-0.04004-0.75977c-0.38965,0.5498-0.98926,0.83984-1.76855,0.83984
		c-1.06934,0-1.69922-0.55957-1.69922-1.50977c0-0.49902,0.2002-0.87891,0.55957-1.09863
		c0.37988-0.21973,0.91016-0.31055,1.87891-0.31055h1.00977V76.7666c0-0.85938-0.4502-1.3291-1.2793-1.3291
		c-0.62012,0-1.09961,0.26953-1.49902,0.81934l-0.5-0.41992c0.5293-0.68945,1.16895-1.00879,2.00879-1.00879
		C65.13672,74.82812,65.85645,75.53711,65.85645,76.7666z M65.16699,77.62598v-0.06934h-0.94922
		c-0.91016,0-1.2998,0.05957-1.53906,0.24902c-0.18066,0.14062-0.27051,0.36035-0.27051,0.63965
		c0,0.5498,0.46973,0.90039,1.20996,0.90039C64.56738,79.3457,65.16699,78.67578,65.16699,77.62598z"/>
	<path d="M74.77637,77.36621c0,1.46973-0.75,2.54883-2.18945,2.54883c-0.71875,0-1.26855-0.28027-1.62891-0.73926v2.69824h-0.68945
		v-6.9668h0.68945v0.66016c0.37012-0.47949,0.92969-0.75,1.62891-0.75C73.95703,74.81738,74.77637,75.82715,74.77637,77.36621z
		 M74.08691,77.36621c0-1.16895-0.59961-1.93848-1.59961-1.93848c-0.98926,0-1.58887,0.76953-1.58887,1.93848
		c0,1.11914,0.5498,1.93945,1.58887,1.93945C73.53711,79.30566,74.08691,78.48535,74.08691,77.36621z"/>
	<path d="M79.9668,74.90723v4.92773h-0.68945V79.125c-0.35059,0.53027-0.97949,0.79004-1.62988,0.79004
		c-1.11914,0-1.6084-0.76953-1.6084-1.98926v-3.01855h0.68945v2.84863c0,0.7998,0.13965,1.5498,1.0791,1.5498
		c0.97949,0,1.46973-0.84961,1.46973-2.12891v-2.26953H79.9668z"/>
	<path d="M86.2959,77.36621c0,1.46973-0.74902,2.54883-2.18848,2.54883c-0.71973,0-1.26953-0.28027-1.62891-0.73926v0.65918
		h-0.68945v-6.96582h0.68945v2.69824c0.36914-0.47949,0.92969-0.75,1.62891-0.75
		C85.47656,74.81738,86.2959,75.82715,86.2959,77.36621z M85.60645,77.36621c0-1.16895-0.59961-1.93848-1.59863-1.93848
		c-0.99023,0-1.58984,0.76953-1.58984,1.93848c0,1.11914,0.5498,1.93945,1.58984,1.93945
		C85.05664,79.30566,85.60645,78.48535,85.60645,77.36621z"/>
	<path d="M92.23633,77.36621c0,1.46973-0.75,2.54883-2.18945,2.54883c-0.71875,0-1.26855-0.28027-1.62891-0.73926v0.65918h-0.68945
		v-6.96582h0.68945v2.69824c0.37012-0.47949,0.92969-0.75,1.62891-0.75C91.41699,74.81738,92.23633,75.82715,92.23633,77.36621z
		 M91.54688,77.36621c0-1.16895-0.59961-1.93848-1.59961-1.93848c-0.98926,0-1.58887,0.76953-1.58887,1.93848
		c0,1.11914,0.5498,1.93945,1.58887,1.93945C90.99707,79.30566,91.54688,78.48535,91.54688,77.36621z"/>
	<path d="M93.62891,78.76562v-5.89648h0.68945v5.85645c0,0.33984,0.12012,0.55957,0.44922,0.55957
		c0.15039,0,0.32031-0.04004,0.46973-0.08984l0.01074,0.58984c-0.20996,0.06934-0.45996,0.12988-0.67969,0.12988
		C93.99805,79.91504,93.62891,79.53516,93.62891,78.76562z"/>
	<path d="M96.30859,72.86914h0.79883v1.01953h-0.79883V72.86914z M96.36816,74.90723h0.68945v4.92773h-0.68945V74.90723z"/>
	<path d="M98.46777,77.38672c0-1.2998,0.73047-2.55859,2.21875-2.55859c0.87988,0,1.60938,0.43945,1.99902,1.3584l-0.65918,0.26074
		c-0.22949-0.62988-0.71973-1.00977-1.33984-1.00977c-1.04883,0-1.51855,0.93945-1.51855,1.94922
		c0,1.00879,0.46973,1.91895,1.5293,1.91895c0.61914,0,1.10938-0.37012,1.29883-1l0.63965,0.24023
		c-0.33008,0.89941-1.04883,1.36914-1.93848,1.36914C99.26758,79.91504,98.46777,78.75586,98.46777,77.38672z"/>
	<path d="M107.57617,76.7666v3.06836h-0.62988l-0.04004-0.75977c-0.38965,0.5498-0.98926,0.83984-1.76855,0.83984
		c-1.06934,0-1.69922-0.55957-1.69922-1.50977c0-0.49902,0.2002-0.87891,0.55957-1.09863
		c0.37988-0.21973,0.91016-0.31055,1.87891-0.31055h1.00977V76.7666c0-0.85938-0.4502-1.3291-1.2793-1.3291
		c-0.62012,0-1.09961,0.26953-1.49902,0.81934l-0.5-0.41992c0.5293-0.68945,1.16895-1.00879,2.00879-1.00879
		C106.85645,74.82812,107.57617,75.53711,107.57617,76.7666z M106.88672,77.62598v-0.06934h-0.94922
		c-0.91016,0-1.2998,0.05957-1.53906,0.24902c-0.18066,0.14062-0.27051,0.36035-0.27051,0.63965
		c0,0.5498,0.46973,0.90039,1.20996,0.90039C106.28711,79.3457,106.88672,78.67578,106.88672,77.62598z"/>
	<path d="M112.81641,75.45703l-3.20801,3.78809h3.18848v0.58984h-4.09863v-0.5l3.27832-3.83789h-3.1084v-0.58984h3.94824V75.45703z"
		/>
	<path d="M114.06836,72.86914h0.79883v1.01953h-0.79883V72.86914z M114.12793,74.90723h0.68945v4.92773h-0.68945V74.90723z"/>
	<path d="M116.20801,77.36621c0-1.45898,0.9502-2.53809,2.35938-2.53809c1.39941,0,2.36816,1.0791,2.36816,2.53809
		c0,1.44922-0.95898,2.54883-2.36816,2.54883S116.20801,78.8252,116.20801,77.36621z M120.24609,77.36621
		c0-1.11914-0.62988-1.92871-1.67871-1.92871c-1.05957,0-1.66895,0.81934-1.66895,1.92871
		c0,1.11914,0.61914,1.93945,1.66895,1.93945C119.62695,79.30566,120.24609,78.46582,120.24609,77.36621z"/>
	<path d="M126.25586,76.81641v3.01855h-0.68945v-2.84863c0-1.05957-0.33984-1.54883-1.08008-1.54883
		c-0.92969,0-1.46875,0.7998-1.46875,2.18848v2.20898h-0.68945v-4.92773h0.68945v0.71973
		c0.31934-0.49902,0.91895-0.79883,1.62891-0.79883C125.70605,74.82812,126.25586,75.50781,126.25586,76.81641z"/>
	<path d="M131.85547,77.55664h-3.6084c0.02051,1.0791,0.62012,1.72852,1.58984,1.72852c0.53906,0,0.96875-0.13965,1.41895-0.61914
		l0.47949,0.41895c-0.5791,0.61035-1.14941,0.83008-1.90918,0.83008c-1.49902,0-2.26855-1.11914-2.26855-2.51855
		c0-1.38965,0.75977-2.56836,2.18945-2.56836c1.50879,0,2.13867,1.17871,2.13867,2.29785
		C131.88574,77.2666,131.875,77.43652,131.85547,77.55664z M128.24707,76.97656h2.97852c0-0.02051-0.00977-0.07031-0.00977-0.16016
		c-0.0498-0.7998-0.55957-1.40918-1.46875-1.40918C128.85742,75.40723,128.30762,76.10742,128.24707,76.97656z"/>
</g>
<g enable-background="new    ">
	<path d="M4.88379,15.54346H2.4751v-0.65918h5.54688v0.65918H5.60352v6.30664H4.88379V15.54346z"/>
	<path d="M9.01465,14.88428h0.79932v1.01953H9.01465V14.88428z M9.07471,16.92236h0.68945v4.92773H9.07471V16.92236z"/>
	<path d="M16.09229,19.38135c0,1.46973-0.74951,2.54883-2.18896,2.54883c-0.71924,0-1.26904-0.28027-1.62891-0.73926v2.69824
		h-0.68945v-6.9668h0.68945v0.66016c0.36963-0.47949,0.92969-0.75,1.62891-0.75
		C15.27295,16.83252,16.09229,17.84229,16.09229,19.38135z M15.40283,19.38135c0-1.16895-0.59961-1.93848-1.59912-1.93848
		c-0.98975,0-1.58936,0.76953-1.58936,1.93848c0,1.11914,0.5498,1.93945,1.58936,1.93945
		C14.85303,21.3208,15.40283,20.50049,15.40283,19.38135z"/>
	<path d="M17.09521,19.38135c0-1.45898,0.94922-2.53809,2.3584-2.53809c1.39941,0,2.36865,1.0791,2.36865,2.53809
		c0,1.44922-0.95947,2.54883-2.36865,2.54883S17.09521,20.84033,17.09521,19.38135z M21.13281,19.38135
		c0-1.11914-0.62988-1.92871-1.6792-1.92871c-1.05957,0-1.66895,0.81934-1.66895,1.92871c0,1.11914,0.61963,1.93945,1.66895,1.93945
		C20.51318,21.3208,21.13281,20.48096,21.13281,19.38135z"/>
	<path d="M30.06201,14.88428v6.96582h-0.68994v-0.65918c-0.35938,0.45898-0.90918,0.73926-1.62891,0.73926
		c-1.43896,0-2.18896-1.0791-2.18896-2.54883c0-1.53906,0.81982-2.54883,2.18896-2.54883c0.69971,0,1.25928,0.27051,1.62891,0.75
		v-2.69824H30.06201z M29.43213,19.38135c0-1.16895-0.59961-1.93848-1.58887-1.93848c-0.99951,0-1.59912,0.76953-1.59912,1.93848
		c0,1.11914,0.54932,1.93945,1.59912,1.93945C28.88232,21.3208,29.43213,20.50049,29.43213,19.38135z"/>
	<path d="M31.82422,14.88428h0.79932v1.01953h-0.79932V14.88428z M31.88428,16.92236h0.68945v4.92773h-0.68945V16.92236z"/>
</g>
<g enable-background="new    ">
	<path d="M9.73486,32.87354v-5.89648h0.68945v5.85645c0,0.33984,0.12012,0.55957,0.44971,0.55957
		c0.1499,0,0.31982-0.04004,0.46973-0.08984l0.01025,0.58984c-0.20996,0.06934-0.45996,0.12988-0.67969,0.12988
		C10.10449,34.02295,9.73486,33.64307,9.73486,32.87354z"/>
	<path d="M16.23242,29.01514v4.92773h-0.68945v-0.70996c-0.34961,0.53027-0.97949,0.79004-1.62891,0.79004
		c-1.11963,0-1.60938-0.76953-1.60938-1.98926v-3.01855h0.68945v2.84863c0,0.7998,0.14014,1.5498,1.07959,1.5498
		c0.97949,0,1.46924-0.84961,1.46924-2.12891v-2.26953H16.23242z"/>
	<path d="M17.5752,31.47412c0-1.45898,0.94922-2.53809,2.3584-2.53809c1.39941,0,2.36865,1.0791,2.36865,2.53809
		c0,1.44922-0.95947,2.54883-2.36865,2.54883S17.5752,32.93311,17.5752,31.47412z M21.61279,31.47412
		c0-1.11914-0.62988-1.92871-1.6792-1.92871c-1.05957,0-1.66895,0.81934-1.66895,1.92871c0,1.11914,0.61963,1.93945,1.66895,1.93945
		C20.99316,33.41357,21.61279,32.57373,21.61279,31.47412z"/>
	<path d="M27.53271,34.70264c0,0.92969-0.86963,1.35938-2.10889,1.35938c-1.36914,0-2.19873-0.54004-2.19873-1.51953
		c0-0.09961,0.00977-0.16016,0.02002-0.21973l0.79932-0.67969c-0.37988-0.16992-0.63965-0.4502-0.63965-0.93945
		c0-0.39941,0.18018-0.69922,0.52979-0.93945c-0.25977-0.2998-0.41992-0.67969-0.41992-1.11914c0-1,0.81982-1.70898,1.87891-1.70898
		c0.47998,0,0.90967,0.14941,1.22949,0.39941l0.67969-0.58984l0.35986,0.4502l-0.66992,0.55957
		c0.16992,0.26953,0.27002,0.5791,0.27002,0.92969c0,1.00879-0.81934,1.67871-1.85889,1.67871
		c-0.37988,0-0.72949-0.08984-1.01953-0.25c-0.19971,0.11035-0.31982,0.29004-0.31982,0.5c0,0.5,0.61963,0.61914,1.3291,0.72949
		C26.37305,33.49268,27.53271,33.6333,27.53271,34.70264z M26.84277,34.76221c0-0.59961-0.7793-0.68945-1.59912-0.81934
		c-0.21973-0.03027-0.44971-0.07031-0.65967-0.12012l-0.66943,0.64941c-0.01025,0.05078-0.01025,0.07031-0.01025,0.09082
		c0,0.69922,0.70996,0.91895,1.54932,0.91895C26.32324,35.48193,26.84277,35.2417,26.84277,34.76221z M24.19434,30.66455
		c0,0.63965,0.45996,1.12988,1.19922,1.12988c0.73975,0,1.17969-0.48047,1.17969-1.12988c0-0.67969-0.45996-1.14941-1.16943-1.14941
		C24.7041,29.51514,24.19434,29.98486,24.19434,30.66455z"/>
	<path d="M28.27441,31.47412c0-1.45898,0.94971-2.53809,2.35889-2.53809c1.39941,0,2.36865,1.0791,2.36865,2.53809
		c0,1.44922-0.95947,2.54883-2.36865,2.54883S28.27441,32.93311,28.27441,31.47412z M32.3125,31.47412
		c0-1.11914-0.62988-1.92871-1.6792-1.92871c-1.05957,0-1.66895,0.81934-1.66895,1.92871c0,1.11914,0.61963,1.93945,1.66895,1.93945
		C31.69287,33.41357,32.3125,32.57373,32.3125,31.47412z"/>
</g>
<g enable-background="new    ">
	<path d="M61.35645,9.7832v6.96582h-0.7793l-3.42822-5.75684v5.75684h-0.70996V9.7832h0.77002l3.43799,5.72656V9.7832H61.35645z"/>
	<path d="M62.97949,14.28027c0-1.45898,0.94922-2.53809,2.3584-2.53809c1.39941,0,2.36865,1.0791,2.36865,2.53809
		c0,1.44922-0.95947,2.54883-2.36865,2.54883S62.97949,15.73926,62.97949,14.28027z M67.01709,14.28027
		c0-1.11914-0.62988-1.92871-1.6792-1.92871c-1.05957,0-1.66895,0.81934-1.66895,1.92871c0,1.11914,0.61963,1.93945,1.66895,1.93945
		C66.39746,16.21973,67.01709,15.37988,67.01709,14.28027z"/>
	<path d="M75.85547,13.6709v3.07812h-0.68945v-2.88867c0-0.41992,0-1.50879-1.0791-1.50879c-1,0-1.26953,0.91895-1.26953,2.02832
		v2.36914h-0.68945v-2.84863c0-0.81934-0.25-1.54883-1.10938-1.54883c-0.95996,0-1.22949,0.90918-1.22949,2.02832v2.36914h-0.68945
		l-0.01074-4.92773h0.66992v0.60059c0.30957-0.49023,0.80957-0.67969,1.35938-0.67969c0.68945,0,1.19922,0.2998,1.44922,0.94922
		c0.31934-0.62988,0.86914-0.94922,1.61914-0.94922C75.36621,11.74219,75.85547,12.52148,75.85547,13.6709z"/>
	<path d="M81.45703,14.4707h-3.6084c0.02051,1.0791,0.62012,1.72852,1.58984,1.72852c0.53906,0,0.96875-0.13965,1.41895-0.61914
		l0.47949,0.41895c-0.5791,0.61035-1.14941,0.83008-1.90918,0.83008c-1.49902,0-2.26855-1.11914-2.26855-2.51855
		c0-1.38965,0.75977-2.56836,2.18945-2.56836c1.50879,0,2.13867,1.17871,2.13867,2.29785
		C81.4873,14.18066,81.47656,14.35059,81.45703,14.4707z M77.84863,13.89062h2.97852c0-0.02051-0.00977-0.07031-0.00977-0.16016
		c-0.0498-0.7998-0.55957-1.40918-1.46875-1.40918C78.45898,12.32129,77.90918,13.02148,77.84863,13.89062z"/>
</g>
<g enable-background="new    ">
	<path d="M58.55957,25.90381v-5.89648h0.68945v5.85645c0,0.33984,0.12012,0.55957,0.44971,0.55957
		c0.1499,0,0.31982-0.04004,0.46973-0.08984l0.01025,0.58984c-0.20996,0.06934-0.45996,0.12988-0.67969,0.12988
		C58.9292,27.05322,58.55957,26.67334,58.55957,25.90381z"/>
	<path d="M65.05713,22.04541v4.92773h-0.68945v-0.70996c-0.34961,0.53027-0.97949,0.79004-1.62891,0.79004
		c-1.11963,0-1.60938-0.76953-1.60938-1.98926v-3.01855h0.68945v2.84863c0,0.7998,0.14014,1.5498,1.07959,1.5498
		c0.97949,0,1.46924-0.84961,1.46924-2.12891v-2.26953H65.05713z"/>
	<path d="M66.3999,24.50439c0-1.45898,0.94922-2.53809,2.35889-2.53809c1.39941,0,2.36816,1.0791,2.36816,2.53809
		c0,1.44922-0.95898,2.54883-2.36816,2.54883C67.34912,27.05322,66.3999,25.96338,66.3999,24.50439z M70.4375,24.50439
		c0-1.11914-0.62988-1.92871-1.67871-1.92871c-1.06006,0-1.66943,0.81934-1.66943,1.92871
		c0,1.11914,0.61963,1.93945,1.66943,1.93945C69.81836,26.44385,70.4375,25.604,70.4375,24.50439z"/>
	<path d="M76.35742,27.73291c0,0.92969-0.86914,1.35938-2.1084,1.35938c-1.36914,0-2.19922-0.54004-2.19922-1.51953
		c0-0.09961,0.00977-0.16016,0.02051-0.21973l0.79883-0.67969c-0.37988-0.16992-0.63965-0.4502-0.63965-0.93945
		c0-0.39941,0.18066-0.69922,0.53027-0.93945c-0.25977-0.2998-0.41992-0.67969-0.41992-1.11914c0-1,0.81934-1.70898,1.87891-1.70898
		c0.47949,0,0.90918,0.14941,1.22949,0.39941l0.67969-0.58984l0.35938,0.4502l-0.66992,0.55957
		c0.16992,0.26953,0.27051,0.5791,0.27051,0.92969c0,1.00879-0.81934,1.67871-1.85938,1.67871
		c-0.37988,0-0.72949-0.08984-1.01953-0.25c-0.19922,0.11035-0.31934,0.29004-0.31934,0.5c0,0.5,0.61914,0.61914,1.3291,0.72949
		C75.19824,26.52295,76.35742,26.66357,76.35742,27.73291z M75.66797,27.79248c0-0.59961-0.7793-0.68945-1.59961-0.81934
		c-0.21973-0.03027-0.44922-0.07031-0.65918-0.12012l-0.66992,0.64941c-0.00977,0.05078-0.00977,0.07031-0.00977,0.09082
		c0,0.69922,0.70996,0.91895,1.54883,0.91895C75.14844,28.51221,75.66797,28.27197,75.66797,27.79248z M73.01953,23.69482
		c0,0.63965,0.45996,1.12988,1.19922,1.12988s1.17969-0.48047,1.17969-1.12988c0-0.67969-0.45996-1.14941-1.16992-1.14941
		C73.5293,22.54541,73.01953,23.01514,73.01953,23.69482z"/>
	<path d="M77.09961,24.50439c0-1.45898,0.94922-2.53809,2.3584-2.53809c1.39941,0,2.36914,1.0791,2.36914,2.53809
		c0,1.44922-0.95996,2.54883-2.36914,2.54883S77.09961,25.96338,77.09961,24.50439z M81.1377,24.50439
		c0-1.11914-0.62988-1.92871-1.67969-1.92871c-1.05957,0-1.66895,0.81934-1.66895,1.92871
		c0,1.11914,0.62012,1.93945,1.66895,1.93945C80.51758,26.44385,81.1377,25.604,81.1377,24.50439z"/>
</g>
<path id="Tracciato_116483" fill="none" stroke="#000000" stroke-width="0.5" d="M33.94297,69.66335v-4.60001h71.3v4.60001"/>
<line id="Linea_1462" fill="none" stroke="#000000" stroke-width="0.5" x1="69.44298" y1="65.06334" x2="69.44298" y2="69.06334"/>
<line id="Linea_1463" fill="none" stroke="#000000" stroke-width="0.5" x1="69.438" y1="49.58421" x2="69.438" y2="61.58421"/>
</svg>
