<?xml version="1.0" encoding="utf-8"?>
<!-- Generator: Adobe Illustrator 25.0.0, SVG Export Plug-In . SVG Version: 6.00 Build 0)  -->
<svg version="1.1" id="Livello_1" xmlns="http://www.w3.org/2000/svg" xmlns:xlink="http://www.w3.org/1999/xlink" x="0px" y="0px"
	 viewBox="0 0 123 91.468" enable-background="new 0 0 123 91.468" xml:space="preserve">
<g id="Group-3" transform="translate(59)">
	<path id="Path-6" fill="none" stroke="#C6CACF" stroke-width="0.5" stroke-dasharray="1.9,1.9" d="M-28.47487,55.357v-21.8"/>
	<path id="Path-5" fill="none" stroke="#C6CACF" stroke-width="0.5" d="M-28.47487,58.257v-1"/>
	<path id="Path-7" fill="none" stroke="#C6CACF" stroke-width="0.5" d="M-28.47487,32.557v-1"/>
</g>
<g id="dimensione">
	<g id="dimensione-X">
		<g id="Group-7">
			<g enable-background="new    ">
				<path d="M6.05664,68.50098v6.96582h-0.7793l-3.42822-5.75684v5.75684H1.13916v-6.96582h0.77002l3.43799,5.72656v-5.72656
					H6.05664z"/>
				<path d="M11.91699,70.53906v4.92773h-0.68945v-0.70996c-0.34961,0.53027-0.97949,0.79004-1.62891,0.79004
					c-1.11963,0-1.60938-0.76953-1.60938-1.98926v-3.01855h0.68945v2.84863c0,0.7998,0.14014,1.5498,1.07959,1.5498
					c0.97949,0,1.46924-0.84961,1.46924-2.12891v-2.26953H11.91699z"/>
				<path d="M20.49561,72.38867v3.07812h-0.68994v-2.88867c0-0.41992,0-1.50879-1.0791-1.50879
					c-0.99951,0-1.26953,0.91895-1.26953,2.02832v2.36914h-0.68945v-2.84863c0-0.81934-0.25-1.54883-1.10938-1.54883
					c-0.95947,0-1.22949,0.90918-1.22949,2.02832v2.36914h-0.68945L13.729,70.53906h0.66992v0.60059
					c0.30957-0.49023,0.80957-0.67969,1.35889-0.67969c0.68994,0,1.19971,0.2998,1.44922,0.94922
					c0.31982-0.62988,0.86963-0.94922,1.61914-0.94922C20.00586,70.45996,20.49561,71.23926,20.49561,72.38867z"/>
				<path d="M26.09668,73.18848h-3.60791c0.02002,1.0791,0.61963,1.72852,1.58936,1.72852
					c0.53955,0,0.96924-0.13965,1.41895-0.61914l0.47998,0.41895c-0.57959,0.61035-1.14941,0.83008-1.90918,0.83008
					c-1.49902,0-2.26855-1.11914-2.26855-2.51855c0-1.38965,0.75977-2.56836,2.18896-2.56836
					c1.50879,0,2.13867,1.17871,2.13867,2.29785C26.12695,72.89844,26.1167,73.06836,26.09668,73.18848z M22.48877,72.6084h2.97852
					c0-0.02051-0.01025-0.07031-0.01025-0.16016c-0.0498-0.7998-0.55957-1.40918-1.46875-1.40918
					C23.09863,71.03906,22.54883,71.73926,22.48877,72.6084z"/>
				<path d="M30.51758,70.66992l-0.33984,0.55957c-0.22949-0.10059-0.43945-0.15039-0.64941-0.15039
					c-0.75977,0-1.31934,0.56934-1.31934,1.63965v2.74805h-0.68945v-4.92773h0.68945v0.74023
					c0.35986-0.64941,0.95947-0.81934,1.45898-0.81934C29.96777,70.45996,30.24805,70.51953,30.51758,70.66992z"/>
				<path d="M30.65918,72.99805c0-1.45898,0.94971-2.53809,2.35889-2.53809c1.39941,0,2.36865,1.0791,2.36865,2.53809
					c0,1.44922-0.95947,2.54883-2.36865,2.54883S30.65918,74.45703,30.65918,72.99805z M34.69727,72.99805
					c0-1.11914-0.62988-1.92871-1.6792-1.92871c-1.05957,0-1.66895,0.81934-1.66895,1.92871
					c0,1.11914,0.61963,1.93945,1.66895,1.93945C34.07764,74.9375,34.69727,74.09766,34.69727,72.99805z"/>
				<path d="M43.62695,68.50098v6.96582h-0.68994v-0.65918c-0.35938,0.45898-0.90918,0.73926-1.62891,0.73926
					c-1.43896,0-2.18896-1.0791-2.18896-2.54883c0-1.53906,0.81982-2.54883,2.18896-2.54883c0.69971,0,1.25928,0.27051,1.62891,0.75
					v-2.69824H43.62695z M42.99707,72.99805c0-1.16895-0.59961-1.93848-1.58887-1.93848c-0.99951,0-1.59912,0.76953-1.59912,1.93848
					c0,1.11914,0.54932,1.93945,1.59912,1.93945C42.44727,74.9375,42.99707,74.11719,42.99707,72.99805z"/>
				<path d="M45.38916,68.50098h0.79932v1.01953h-0.79932V68.50098z M45.44922,70.53906h0.68945v4.92773h-0.68945V70.53906z"/>
				<path d="M50.64893,74.39746v-5.89648h0.68945v5.85645c0,0.33984,0.12012,0.55957,0.44971,0.55957
					c0.1499,0,0.31982-0.04004,0.46973-0.08984l0.01025,0.58984c-0.20996,0.06934-0.45996,0.12988-0.67969,0.12988
					C51.01855,75.54688,50.64893,75.16699,50.64893,74.39746z"/>
				<path d="M57.14648,70.53906v4.92773h-0.68945v-0.70996c-0.34961,0.53027-0.97949,0.79004-1.62891,0.79004
					c-1.11963,0-1.60938-0.76953-1.60938-1.98926v-3.01855h0.68945v2.84863c0,0.7998,0.14014,1.5498,1.07959,1.5498
					c0.97949,0,1.46924-0.84961,1.46924-2.12891v-2.26953H57.14648z"/>
				<path d="M58.48926,72.99805c0-1.45898,0.94922-2.53809,2.3584-2.53809c1.39941,0,2.36914,1.0791,2.36914,2.53809
					c0,1.44922-0.95996,2.54883-2.36914,2.54883S58.48926,74.45703,58.48926,72.99805z M62.52734,72.99805
					c0-1.11914-0.63037-1.92871-1.67969-1.92871c-1.05957,0-1.66895,0.81934-1.66895,1.92871
					c0,1.11914,0.61963,1.93945,1.66895,1.93945C61.90723,74.9375,62.52734,74.09766,62.52734,72.99805z"/>
				<path d="M68.44727,76.22656c0,0.92969-0.87012,1.35938-2.10938,1.35938c-1.36914,0-2.19922-0.54004-2.19922-1.51953
					c0-0.09961,0.00977-0.16016,0.02051-0.21973l0.7998-0.67969c-0.38086-0.16992-0.64062-0.4502-0.64062-0.93945
					c0-0.39941,0.18066-0.69922,0.53027-0.93945c-0.25977-0.2998-0.41992-0.67969-0.41992-1.11914
					c0-1,0.81934-1.70898,1.87891-1.70898c0.47949,0,0.90918,0.14941,1.22949,0.39941l0.67969-0.58984l0.35938,0.4502
					l-0.66992,0.55957c0.16992,0.26953,0.27051,0.5791,0.27051,0.92969c0,1.00879-0.81934,1.67871-1.8584,1.67871
					c-0.38086,0-0.73047-0.08984-1.01953-0.25c-0.2002,0.11035-0.32031,0.29004-0.32031,0.5c0,0.5,0.61914,0.61914,1.3291,0.72949
					C67.28711,75.0166,68.44727,75.15723,68.44727,76.22656z M67.75684,76.28613c0-0.59961-0.7793-0.68945-1.59863-0.81934
					c-0.2207-0.03027-0.4502-0.07031-0.66016-0.12012l-0.66992,0.64941c-0.00977,0.05078-0.00977,0.07031-0.00977,0.09082
					c0,0.69922,0.70996,0.91895,1.54883,0.91895C67.2373,77.00586,67.75684,76.76562,67.75684,76.28613z M65.1084,72.18848
					c0,0.63965,0.45996,1.12988,1.19922,1.12988s1.17969-0.48047,1.17969-1.12988c0-0.67969-0.45996-1.14941-1.16895-1.14941
					C65.61816,71.03906,65.1084,71.50879,65.1084,72.18848z"/>
				<path d="M73.74609,72.44824v3.01855h-0.68945v-2.84863c0-1.06934-0.33984-1.54883-1.0791-1.54883
					c-0.93945,0-1.46973,0.76953-1.46973,2.12891v2.26855h-0.68945v-6.96582h0.68945v2.75781
					c0.32031-0.49902,0.91992-0.79883,1.62891-0.79883C73.19727,70.45996,73.74609,71.13965,73.74609,72.44824z"/>
				<path d="M75.38867,68.50098h0.79883v1.01953h-0.79883V68.50098z M75.44922,70.53906h0.68945v4.92773h-0.68945V70.53906z"/>
				<path d="M80.27832,73.01855c0-1.2998,0.72949-2.55859,2.21875-2.55859c0.87988,0,1.60938,0.43945,1.99902,1.3584
					l-0.66016,0.26074c-0.22852-0.62988-0.71875-1.00977-1.33887-1.00977c-1.0498,0-1.51855,0.93945-1.51855,1.94922
					c0,1.00879,0.46875,1.91895,1.5293,1.91895c0.61914,0,1.10938-0.37012,1.29883-1l0.63965,0.24023
					c-0.33008,0.89941-1.0498,1.36914-1.93848,1.36914C81.07812,75.54688,80.27832,74.3877,80.27832,73.01855z"/>
				<path d="M85.28809,72.99805c0-1.45898,0.9502-2.53809,2.3584-2.53809c1.40039,0,2.36914,1.0791,2.36914,2.53809
					c0,1.44922-0.95898,2.54883-2.36914,2.54883C86.23828,75.54688,85.28809,74.45703,85.28809,72.99805z M89.32617,72.99805
					c0-1.11914-0.62988-1.92871-1.67969-1.92871c-1.05859,0-1.66797,0.81934-1.66797,1.92871
					c0,1.11914,0.61914,1.93945,1.66797,1.93945C88.70703,74.9375,89.32617,74.09766,89.32617,72.99805z"/>
				<path d="M95.33594,72.44824v3.01855h-0.68945v-2.84863c0-1.05957-0.33984-1.54883-1.08008-1.54883
					c-0.92969,0-1.46875,0.7998-1.46875,2.18848v2.20898H91.4082v-4.92773h0.68945v0.71973
					c0.32031-0.49902,0.91992-0.79883,1.62891-0.79883C94.78613,70.45996,95.33594,71.13965,95.33594,72.44824z"/>
				<path d="M99.08691,75.41699c-0.25977,0.08008-0.52051,0.12988-0.74902,0.12988c-0.66016,0-1.14062-0.37012-1.14062-1.23926
					v-3.18848h-0.81836v-0.58008h0.81836v-1.37891l0.69043-0.51953v1.89844h1.18848v0.58008H97.8877v3.09863
					c0,0.47949,0.21973,0.69922,0.60938,0.69922c0.16992,0,0.36035-0.04004,0.5791-0.10938L99.08691,75.41699z"/>
				<path d="M104.24609,73.18848h-3.6084c0.02051,1.0791,0.62012,1.72852,1.58887,1.72852
					c0.54004,0,0.96973-0.13965,1.41992-0.61914l0.47949,0.41895c-0.5791,0.61035-1.14941,0.83008-1.90918,0.83008
					c-1.49902,0-2.26855-1.11914-2.26855-2.51855c0-1.38965,0.75977-2.56836,2.18848-2.56836
					c1.50977,0,2.13867,1.17871,2.13867,2.29785C104.27539,72.89844,104.26562,73.06836,104.24609,73.18848z M100.6377,72.6084
					h2.97852c0-0.02051-0.01074-0.07031-0.01074-0.16016c-0.04883-0.7998-0.55859-1.40918-1.46875-1.40918
					C101.24805,71.03906,100.69727,71.73926,100.6377,72.6084z"/>
				<path d="M109.5957,72.44824v3.01855h-0.68945v-2.84863c0-1.05957-0.33984-1.54883-1.0791-1.54883
					c-0.92969,0-1.46973,0.7998-1.46973,2.18848v2.20898h-0.68945v-4.92773h0.68945v0.71973
					c0.32031-0.49902,0.91992-0.79883,1.62891-0.79883C109.04688,70.45996,109.5957,71.13965,109.5957,72.44824z"/>
				<path d="M115.00586,70.53906v4.92773h-0.68945v-0.70996c-0.34961,0.53027-0.97949,0.79004-1.62891,0.79004
					c-1.11914,0-1.60938-0.76953-1.60938-1.98926v-3.01855h0.68945v2.84863c0,0.7998,0.14062,1.5498,1.08008,1.5498
					c0.97852,0,1.46875-0.84961,1.46875-2.12891v-2.26953H115.00586z"/>
				<path d="M118.87695,75.41699c-0.25977,0.08008-0.51953,0.12988-0.75,0.12988c-0.65918,0-1.13867-0.37012-1.13867-1.23926
					v-3.18848h-0.82031v-0.58008h0.82031v-1.37891l0.68945-0.51953v1.89844h1.18945v0.58008h-1.18945v3.09863
					c0,0.47949,0.21973,0.69922,0.60938,0.69922c0.16992,0,0.35938-0.04004,0.58008-0.10938L118.87695,75.41699z"/>
				<path d="M120.12793,68.50098h0.7998v1.01953h-0.7998V68.50098z M120.1875,70.53906h0.68945v4.92773h-0.68945V70.53906z"/>
			</g>
			<g enable-background="new    ">
				<path d="M4.57764,85.39844v3.06836H3.94775l-0.04004-0.75977c-0.38965,0.5498-0.98926,0.83984-1.76904,0.83984
					c-1.06934,0-1.69873-0.55957-1.69873-1.50977c0-0.49902,0.19971-0.87891,0.55957-1.09863
					c0.37988-0.21973,0.90967-0.31055,1.87891-0.31055H3.8877v-0.22949c0-0.85938-0.44971-1.3291-1.2793-1.3291
					c-0.61963,0-1.09912,0.26953-1.49902,0.81934l-0.49951-0.41992c0.5293-0.68945,1.16895-1.00879,2.00879-1.00879
					C3.85791,83.45996,4.57764,84.16895,4.57764,85.39844z M3.8877,86.25781v-0.06934H2.93848
					c-0.90967,0-1.29932,0.05957-1.53906,0.24902c-0.18018,0.14062-0.27002,0.36035-0.27002,0.63965
					c0,0.5498,0.46973,0.90039,1.20947,0.90039C3.28809,87.97754,3.8877,87.30762,3.8877,86.25781z"/>
				<path d="M6.21973,87.39746v-5.89648h0.68945v5.85645c0,0.33984,0.12012,0.55957,0.44971,0.55957
					c0.1499,0,0.31982-0.04004,0.46973-0.08984l0.01025,0.58984c-0.20996,0.06934-0.45996,0.12988-0.67969,0.12988
					C6.58936,88.54688,6.21973,88.16699,6.21973,87.39746z"/>
				<path d="M8.91943,87.39746v-5.89648h0.68945v5.85645c0,0.33984,0.12012,0.55957,0.44971,0.55957
					c0.1499,0,0.31982-0.04004,0.46973-0.08984l0.01025,0.58984c-0.20996,0.06934-0.45996,0.12988-0.67969,0.12988
					C9.28906,88.54688,8.91943,88.16699,8.91943,87.39746z"/>
				<path d="M12.34863,81.50098h0.78955l-1.31934,2.83789h-0.46973L12.34863,81.50098z"/>
				<path d="M14.49902,81.50098h0.79932v1.01953h-0.79932V81.50098z M14.55908,83.53906h0.68945v4.92773h-0.68945V83.53906z"/>
				<path d="M20.99707,85.44824v3.01855h-0.68945v-2.84863c0-1.05957-0.33984-1.54883-1.07959-1.54883
					c-0.92969,0-1.46924,0.7998-1.46924,2.18848v2.20898h-0.68945v-4.92773h0.68945v0.71973
					c0.31982-0.49902,0.91943-0.79883,1.62891-0.79883C20.44727,83.45996,20.99707,84.13965,20.99707,85.44824z"/>
				<path d="M24.74805,88.41699c-0.25977,0.08008-0.52002,0.12988-0.74951,0.12988c-0.65967,0-1.13965-0.37012-1.13965-1.23926
					v-3.18848h-0.81934v-0.58008h0.81934v-1.37891l0.68994-0.51953v1.89844h1.18896v0.58008h-1.18896v3.09863
					c0,0.47949,0.21973,0.69922,0.60938,0.69922c0.16992,0,0.35986-0.04004,0.57959-0.10938L24.74805,88.41699z"/>
				<path d="M29.90674,86.18848h-3.60791c0.02002,1.0791,0.61963,1.72852,1.58936,1.72852
					c0.53955,0,0.96924-0.13965,1.41895-0.61914l0.47998,0.41895c-0.57959,0.61035-1.14941,0.83008-1.90918,0.83008
					c-1.49902,0-2.26855-1.11914-2.26855-2.51855c0-1.38965,0.75977-2.56836,2.18896-2.56836
					c1.50879,0,2.13867,1.17871,2.13867,2.29785C29.93701,85.89844,29.92676,86.06836,29.90674,86.18848z M26.29883,85.6084h2.97852
					c0-0.02051-0.01025-0.07031-0.01025-0.16016c-0.0498-0.7998-0.55957-1.40918-1.46875-1.40918
					C26.90869,84.03906,26.35889,84.73926,26.29883,85.6084z"/>
				<path d="M34.32715,83.66992l-0.33984,0.55957c-0.22949-0.10059-0.43945-0.15039-0.64941-0.15039
					c-0.75977,0-1.31934,0.56934-1.31934,1.63965v2.74805H31.3291v-4.92773h0.68945v0.74023
					c0.35986-0.64941,0.95947-0.81934,1.45898-0.81934C33.77734,83.45996,34.05762,83.51953,34.32715,83.66992z"/>
				<path d="M39.27686,85.44824v3.01855H38.5874v-2.84863c0-1.05957-0.33984-1.54883-1.07959-1.54883
					c-0.92969,0-1.46924,0.7998-1.46924,2.18848v2.20898h-0.68945v-4.92773h0.68945v0.71973
					c0.31982-0.49902,0.91943-0.79883,1.62891-0.79883C38.72705,83.45996,39.27686,84.13965,39.27686,85.44824z"/>
				<path d="M40.54883,85.99805c0-1.45898,0.94971-2.53809,2.35889-2.53809c1.39941,0,2.36865,1.0791,2.36865,2.53809
					c0,1.44922-0.95947,2.54883-2.36865,2.54883S40.54883,87.45703,40.54883,85.99805z M44.58691,85.99805
					c0-1.11914-0.62988-1.92871-1.6792-1.92871c-1.05957,0-1.66895,0.81934-1.66895,1.92871
					c0,1.11914,0.61963,1.93945,1.66895,1.93945C43.96729,87.9375,44.58691,87.09766,44.58691,85.99805z"/>
				<path d="M53.5166,81.50098v6.96582h-0.68994v-0.65918c-0.35938,0.45898-0.90918,0.73926-1.62891,0.73926
					c-1.43896,0-2.18896-1.0791-2.18896-2.54883c0-1.53906,0.81982-2.54883,2.18896-2.54883c0.69971,0,1.25928,0.27051,1.62891,0.75
					v-2.69824H53.5166z M52.88672,85.99805c0-1.16895-0.59961-1.93848-1.58887-1.93848c-0.99951,0-1.59912,0.76953-1.59912,1.93848
					c0,1.11914,0.54932,1.93945,1.59912,1.93945C52.33691,87.9375,52.88672,87.11719,52.88672,85.99805z"/>
				<path d="M55.27881,81.50098h0.79932v1.01953h-0.79932V81.50098z M55.33887,83.53906h0.68945v4.92773h-0.68945V83.53906z"/>
				<path d="M64.38672,83.53906v4.92773h-0.68945v-0.70996c-0.35059,0.53027-0.98047,0.79004-1.62988,0.79004
					c-1.11914,0-1.60889-0.76953-1.60889-1.98926v-3.01855h0.68945v2.84863c0,0.7998,0.14014,1.5498,1.07959,1.5498
					c0.97949,0,1.46973-0.84961,1.46973-2.12891v-2.26953H64.38672z"/>
				<path d="M70.13672,85.44824v3.01855h-0.68945v-2.84863c0-1.05957-0.33984-1.54883-1.08008-1.54883
					c-0.92969,0-1.46875,0.7998-1.46875,2.18848v2.20898h-0.68945v-4.92773h0.68945v0.71973
					c0.31934-0.49902,0.91895-0.79883,1.62891-0.79883C69.58594,83.45996,70.13672,84.13965,70.13672,85.44824z"/>
				<path d="M74.52832,87.39746v-5.89648h0.68945v5.85645c0,0.33984,0.12012,0.55957,0.4502,0.55957
					c0.14941,0,0.31934-0.04004,0.46875-0.08984l0.01074,0.58984c-0.20996,0.06934-0.45996,0.12988-0.67969,0.12988
					C74.89844,88.54688,74.52832,88.16699,74.52832,87.39746z"/>
				<path d="M81.02539,83.53906v4.92773h-0.68945v-0.70996c-0.34961,0.53027-0.97852,0.79004-1.62891,0.79004
					c-1.11914,0-1.60938-0.76953-1.60938-1.98926v-3.01855h0.68945v2.84863c0,0.7998,0.14062,1.5498,1.08008,1.5498
					c0.97949,0,1.46875-0.84961,1.46875-2.12891v-2.26953H81.02539z"/>
				<path d="M82.36816,85.99805c0-1.45898,0.9502-2.53809,2.3584-2.53809c1.40039,0,2.36914,1.0791,2.36914,2.53809
					c0,1.44922-0.95898,2.54883-2.36914,2.54883C83.31836,88.54688,82.36816,87.45703,82.36816,85.99805z M86.40625,85.99805
					c0-1.11914-0.62988-1.92871-1.67969-1.92871c-1.05859,0-1.66797,0.81934-1.66797,1.92871
					c0,1.11914,0.61914,1.93945,1.66797,1.93945C85.78711,87.9375,86.40625,87.09766,86.40625,85.99805z"/>
				<path d="M92.32617,89.22656c0,0.92969-0.86914,1.35938-2.10938,1.35938c-1.36914,0-2.19824-0.54004-2.19824-1.51953
					c0-0.09961,0.00977-0.16016,0.02051-0.21973l0.79883-0.67969c-0.37988-0.16992-0.63965-0.4502-0.63965-0.93945
					c0-0.39941,0.17969-0.69922,0.53027-0.93945c-0.25977-0.2998-0.41992-0.67969-0.41992-1.11914
					c0-1,0.81934-1.70898,1.87891-1.70898c0.47949,0,0.90918,0.14941,1.22852,0.39941l0.67969-0.58984l0.36035,0.4502
					l-0.66992,0.55957c0.16992,0.26953,0.27051,0.5791,0.27051,0.92969c0,1.00879-0.82031,1.67871-1.85938,1.67871
					c-0.37988,0-0.72949-0.08984-1.01953-0.25c-0.19922,0.11035-0.32031,0.29004-0.32031,0.5c0,0.5,0.62012,0.61914,1.33008,0.72949
					C91.16602,88.0166,92.32617,88.15723,92.32617,89.22656z M91.63672,89.28613c0-0.59961-0.7793-0.68945-1.59961-0.81934
					c-0.21973-0.03027-0.44922-0.07031-0.66016-0.12012l-0.66895,0.64941c-0.00977,0.05078-0.00977,0.07031-0.00977,0.09082
					c0,0.69922,0.70996,0.91895,1.54883,0.91895C91.11719,90.00586,91.63672,89.76562,91.63672,89.28613z M88.98828,85.18848
					c0,0.63965,0.45898,1.12988,1.19922,1.12988c0.73926,0,1.17969-0.48047,1.17969-1.12988
					c0-0.67969-0.46094-1.14941-1.16992-1.14941C89.49805,84.03906,88.98828,84.50879,88.98828,85.18848z"/>
				<path d="M93.06836,85.99805c0-1.45898,0.94922-2.53809,2.3584-2.53809c1.39941,0,2.36816,1.0791,2.36816,2.53809
					c0,1.44922-0.95898,2.54883-2.36816,2.54883S93.06836,87.45703,93.06836,85.99805z M97.10547,85.99805
					c0-1.11914-0.62891-1.92871-1.67871-1.92871c-1.05957,0-1.66895,0.81934-1.66895,1.92871
					c0,1.11914,0.61914,1.93945,1.66895,1.93945C96.48633,87.9375,97.10547,87.09766,97.10547,85.99805z"/>
			</g>
		</g>
	</g>
</g>
<g id="Group-2" transform="translate(59)">
	<path id="Path-2" fill="none" stroke="#C6CACF" stroke-width="0.5" d="M22.22497,58.257v-1"/>
	<path id="Path-3" fill="none" stroke="#C6CACF" stroke-width="0.5" stroke-dasharray="1.9,1.9" d="M22.22497,55.357v-21.9"/>
	<path id="Path-4" fill="none" stroke="#C6CACF" stroke-width="0.5" d="M22.22497,32.557v-1"/>
</g>
<g id="Group" transform="translate(59)">
	<path id="Path" fill="none" stroke="#444444" stroke-width="0.5" d="M22.02501,59.257l-50.8,0.2"/>
	
		<rect id="Rectangle" x="21.72497" y="57.65549" transform="matrix(1 -0.003 0.003 1 -0.17793 0.06699)" fill="#444444" width="1" height="3.30001"/>
	
		<rect id="Rectangle-2" x="-28.97487" y="57.85544" transform="matrix(1 -0.00311 0.00311 1 -0.185 -0.08817)" fill="#444444" width="1" height="3.30002"/>
</g>
<g id="Ellipse_22" transform="translate(59)">
	<circle id="Ellisse_32" fill="#FFFFFF" cx="-2.998" cy="26.05" r="26"/>
	<circle id="Ellisse_33" fill="none" stroke="#1A1A1A" stroke-width="0.5" cx="-2.99799" cy="26.05" r="25.8"/>
</g>
<g id="Ellipse_23" transform="translate(59)">
	<circle id="Ellisse_34" fill="#FFFFFF" cx="-2.498" cy="32.55" r="19.5"/>
	<circle id="Ellisse_35" fill="none" stroke="#1A1A1A" stroke-width="0.5" cx="-2.49798" cy="32.55" r="19.2"/>
</g>
<g id="Ellipse_24" transform="translate(59)">
	<circle id="Ellisse_36" fill="#FFFFFF" cx="-2.998" cy="41.05" r="11"/>
	<circle id="Ellisse_37" fill="none" stroke="#1A1A1A" stroke-width="0.5" cx="-2.99799" cy="41.05" r="10.8"/>
</g>
</svg>
