<svg id="Layer_1" data-name="Layer 1" xmlns="http://www.w3.org/2000/svg" xmlns:xlink="http://www.w3.org/1999/xlink" width="250" height="403" viewBox="0 0 250 403">
  <defs>
    <clipPath id="clip-path">
      <rect width="250" height="403" fill="none"/>
    </clipPath>
    <clipPath id="clip-path-2">
      <rect x="20.255" y="28.094" width="229.895" height="145.755" fill="none"/>
    </clipPath>
    <clipPath id="clip-path-3">
      <rect x="20.922" y="228.237" width="209.024" height="154.16" fill="none"/>
    </clipPath>
  </defs>
  <g clip-path="url(#clip-path)">
    <g id="zoom-02">
      <g id="Group_24063" data-name="Group 24063">
        <g id="Group_18" data-name="Group 18">
          <line id="Line_1" data-name="Line 1" x1="76.646" y1="173.595" x2="76.646" y2="176.264" fill="none" stroke="#000"/>
          <line id="Line_2" data-name="Line 2" x1="216.26" y1="173.595" x2="216.26" y2="176.264" fill="none" stroke="#000"/>
          <g id="_1945" data-name=" 1945" style="isolation: isolate">
            <g style="isolation: isolate">
              <path d="M68.48682,180.54541v6.96582h-.81934v-5.09766h-1.709v-.75878h1.09912c.33984,0,.60986-.10059.60986-.55958v-.5498Z"/>
              <path d="M75.87646,182.79346a2.49628,2.49628,0,0,1-.35986,1.25976l-2.09912,3.458h-.91943l1.5791-2.53906a2.30039,2.30039,0,0,1-3.01807-2.168,2.40991,2.40991,0,0,1,4.81738-.01074Zm-.81982.01074a1.58941,1.58941,0,1,0-1.59912,1.55859A1.57816,1.57816,0,0,0,75.05664,182.8042Z"/>
              <path d="M82.146,185.08252v.76953H81.02686v1.65918h-.80957v-1.65918h-3.438v-.50976l3.50781-4.79688h.73975v4.53711Zm-1.92871,0v-3.33789l-2.38868,3.33789Z"/>
              <path d="M87.876,185.13232a2.442,2.442,0,0,1-2.44873,2.459,2.40417,2.40417,0,0,1-2.4087-2.0293l.79932-.12988a1.60758,1.60758,0,0,0,3.19824-.29981,1.47,1.47,0,0,0-1.52881-1.55859,1.69908,1.69908,0,0,0-1.44921.79883l-.79981-.21.63965-3.61719h3.668v.7793H84.54736l-.36963,2.01855a2.13135,2.13135,0,0,1,1.40918-.51953A2.26136,2.26136,0,0,1,87.876,185.13232Z"/>
            </g>
          </g>
          <g id="_1950" data-name=" 1950" style="isolation: isolate">
            <g style="isolation: isolate">
              <path d="M208.124,180.54541v6.96582h-.81933v-5.09766h-1.709v-.75878h1.09864c.33984,0,.61035-.10059.61035-.55958v-.5498Z"/>
              <path d="M215.51367,182.79346a2.49672,2.49672,0,0,1-.36035,1.25976l-2.09863,3.458h-.91992l1.5791-2.53906a2.30007,2.30007,0,0,1-3.01758-2.168,2.40991,2.40991,0,0,1,4.81738-.01074Zm-.82031.01074a1.58916,1.58916,0,1,0-1.59863,1.55859A1.57774,1.57774,0,0,0,214.69336,182.8042Z"/>
              <path d="M221.51367,185.13232a2.44246,2.44246,0,0,1-2.44922,2.459,2.40328,2.40328,0,0,1-2.4082-2.0293l.79883-.12988a1.60758,1.60758,0,0,0,3.19824-.29981,1.46931,1.46931,0,0,0-1.52832-1.55859,1.69848,1.69848,0,0,0-1.44922.79883l-.7998-.21.63964-3.61719h3.668v.7793h-2.998l-.37012,2.01855a2.13046,2.13046,0,0,1,1.40918-.51953A2.26165,2.26165,0,0,1,221.51367,185.13232Z"/>
              <path d="M222.86523,184.023c0-1.58887.32032-3.57813,2.21875-3.57813,1.749,0,2.25879,1.76954,2.25879,3.58789,0,1.83985-.50976,3.57813-2.19824,3.57813C223.20508,187.61084,222.86523,185.63232,222.86523,184.023Zm3.61817.00976c0-1.54882-.28028-2.80761-1.39942-2.80761-1.16894,0-1.38867,1.34863-1.38867,2.80761,0,1.41993.21973,2.79883,1.42871,2.79883C226.21387,186.83154,226.4834,185.54248,226.4834,184.03271Z"/>
            </g>
          </g>
          <path id="Path_3" data-name="Path 3" d="M20.255,173.595c41.884,0,41.884-10.177,55.846-10.177h27.923c13.961,0,13.961-40.706,27.923-40.706s13.961,47.489,27.923,47.489,13.961,3.392,27.923,3.392,13.961-6.784,27.923-6.784,13.961,6.784,27.923,6.784,13.961-13.569,27.923-13.569,13.961,10.177,27.923,10.177,13.961-16.96,27.923-16.96,13.961,20.354,27.923,20.354,13.961-3.392,27.923-3.392,13.961,3.392,27.923,3.392,13.959-61.058,27.92-61.058,13.961,54.274,27.923,54.274,13.961,6.784,27.923,6.784h55.846c13.961,0,13.961-30.529,27.923-30.529s13.961,30.529,27.923,30.529,13.961-10.177,27.923-10.177,13.961,10.177,27.923,10.177,13.961-3.392,27.923-3.392,13.961,3.392,27.923,3.392h55.843c13.961,0,13.961-10.177,27.923-10.177s13.961-16.96,27.923-16.96,13.961,27.137,27.923,27.137H913.785c13.961,0,13.961-6.784,27.923-6.784s13.961-3.392,27.923-3.392,13.961,10.177,27.923,10.177c13.962,0,13.96106-23.745,27.923-23.745s13.96106,23.745,27.923,23.745h55.84594c13.96106,0,13.96106-3.392,27.923-3.392s13.96106,3.392,27.923,3.392Z" fill="#5151fc"/>
          <path id="Path_4" data-name="Path 4" d="M20.255,173.595c41.884,0,41.884-10.177,55.846-10.177h27.923c13.961,0,13.961-44.1,27.923-44.1s13.961,47.489,27.923,47.489,13.961,6.784,27.923,6.784,13.961-6.784,27.923-6.784,13.961,6.784,27.923,6.784,13.961-13.569,27.923-13.569,13.961,6.784,27.923,6.784,13.961-13.569,27.923-13.569,13.961,20.354,27.923,20.354,13.961-3.392,27.923-3.392,13.961,3.392,27.923,3.392,13.961-67.842,27.923-67.842,13.961,61.058,27.923,61.058,13.961,6.784,27.923,6.784h55.846c13.961,0,13.961-44.1,27.923-44.1s13.961,44.1,27.923,44.1,13.958-13.572,27.922-13.572,13.961,13.569,27.923,13.569,13.961-6.784,27.923-6.784,13.961,6.784,27.923,6.784h55.843c13.961,0,13.961-10.177,27.923-10.177S816.055,136.275,830.016,136.275s13.961,37.313,27.923,37.313h27.923c13.961,0,13.961-3.392,27.923-3.392s13.961-6.784,27.923-6.784h27.923c13.961,0,13.961,10.177,27.923,10.177,13.96191,0,13.96106-40.706,27.923-40.706s13.96106,40.706,27.923,40.706h27.923c13.96106,0,13.96106-3.392,27.923-3.392h55.846v3.392c-41.884-3.392-41.884,0-55.846,0h-55.84594c-13.96106,0-13.96106-23.745-27.923-23.745s-13.96106,23.745-27.923,23.745-13.962-10.177-27.923-10.177-13.961,3.392-27.923,3.392-13.961,6.784-27.923,6.784H857.939c-13.961,0-13.961-27.137-27.923-27.137s-13.961,16.96-27.923,16.96-13.961,10.177-27.923,10.177H718.326c-13.961,0-13.961-3.392-27.923-3.392s-13.961,3.392-27.923,3.392-13.962-10.177-27.923-10.177-13.961,10.177-27.923,10.177-13.961-30.529-27.923-30.529-13.961,30.529-27.923,30.529H494.943c-13.961,0-13.961-6.784-27.923-6.784s-13.965-54.269-27.923-54.269-13.961,61.058-27.923,61.058-13.961-3.392-27.923-3.392-13.961,3.392-27.923,3.392-13.961-20.354-27.923-20.354-13.961,16.96-27.923,16.96-13.96-10.175-27.922-10.175-13.961,13.569-27.923,13.569-13.961-6.784-27.923-6.784-13.961,6.784-27.923,6.784-13.961-3.392-27.923-3.392-13.961-47.489-27.923-47.489-13.961,40.706-27.923,40.706H76.101c-13.961,0-13.961,10.177-27.923,10.177Z" fill="#c5c5fc"/>
          <path id="Path_5" data-name="Path 5" d="M20.255,173.596c41.884,0,41.884-10.177,55.846-10.177s13.961-6.784,27.923-6.784,13.961-57.669,27.923-57.669,13.961,67.842,27.923,67.842,13.961,3.392,27.923,3.392,13.961-3.392,27.923-3.392,13.961,6.784,27.923,6.784,13.961-27.137,27.923-27.137,13.961,6.784,27.923,6.784,13.961-3.392,27.923-3.392,13.961,23.745,27.923,23.745,13.961-3.392,27.923-3.392,13.961-3.392,27.923-3.392S425.138,75.221,439.1,75.221s13.961,91.587,27.923,91.587,13.961,6.784,27.923,6.784h55.846c13.961,0,13.961-50.881,27.923-50.881s13.961,16.96,27.923,16.96,13.961,13.569,27.923,13.569,13.961,16.96,27.923,16.96,13.961-13.569,27.923-13.569,13.961,13.569,27.923,13.569,13.96008,3.396,27.92511,3.396h27.918c13.961,0,13.961-10.177,27.923-10.177s13.961-40.706,27.923-40.706,13.961,44.1,27.923,44.1,13.961,6.784,27.923,6.784,13.961-6.784,27.923-6.784,13.961-3.392,27.923-3.392,13.961-3.392,27.923-3.392,13.961,13.569,27.923,13.569c13.96191,0,13.96106-101.763,27.923-101.763s13.96106,91.587,27.923,91.587,13.96106,10.177,27.923,10.177,13.96106-3.392,27.923-3.392,13.96106-10.177,27.923-10.177,13.96106,10.177,27.923,10.177H1109.245c-13.962,0-13.962,3.392-27.923,3.392h-27.923c-13.96106,0-13.96106-40.706-27.923-40.706S1011.515,173.596,997.555,173.596s-13.962-10.177-27.923-10.177H941.708c-13.961,0-13.961,6.784-27.923,6.784s-13.961,3.392-27.923,3.392H857.939c-13.961,0-13.961-37.313-27.923-37.313s-13.961,27.137-27.923,27.137-13.961,10.177-27.923,10.177H718.326c-13.961,0-13.961-6.784-27.923-6.784s-13.961,6.784-27.923,6.784-13.962-13.569-27.923-13.569-13.961,13.569-27.923,13.569-13.961-44.1-27.923-44.1-13.961,44.1-27.923,44.1H494.943c-13.961,0-13.961-6.784-27.923-6.784s-13.961-61.055-27.922-61.055-13.961,67.842-27.923,67.842-13.961-3.392-27.923-3.392-13.961,3.392-27.923,3.392-13.961-20.354-27.923-20.354-13.961,13.569-27.923,13.569-13.961-6.784-27.923-6.784-13.961,13.569-27.923,13.569-13.961-6.784-27.923-6.784-13.961,6.784-27.923,6.784-13.961-6.784-27.923-6.784-13.961-47.489-27.923-47.489-13.96,44.092-27.922,44.092H76.101c-13.961,0-13.961,10.177-27.923,10.177Z" fill="#00c19c"/>
          <g clip-path="url(#clip-path-2)">
            <g id="Scroll_Group_2" data-name="Scroll Group 2">
              <path id="Path_6" data-name="Path 6" d="M20.255,173.595c41.884,0,41.884-10.177,55.846-10.177s13.961-10.177,27.923-10.177,13.961-61.058,27.923-61.058,13.961,74.626,27.923,74.626,13.961-3.392,27.923-3.392,13.961,3.392,27.923,3.392,13.961,6.784,27.923,6.784,13.961-27.137,27.923-27.137,13.961,3.392,27.923,3.392h27.923c13.961,0,13.961,23.745,27.923,23.745s13.961-3.392,27.923-3.392,13.961-6.784,27.923-6.784S425.138,68.438,439.1,68.438s13.961,91.593,27.922,91.593S480.983,173.6,494.945,173.6h27.923c13.961,0,13.961-3.392,27.923-3.392s13.96405-54.277,27.923-54.277,13.961,20.354,27.923,20.354,13.961-6.784,27.923-6.784,13.961,40.706,27.923,40.706,13.961-16.96,27.923-16.96,13.961,16.96,27.923,16.96,13.961,3.392,27.923,3.392h27.918c13.961,0,13.961-13.569,27.923-13.569s13.961-54.274,27.923-54.274,13.961,61.058,27.923,61.058h27.923c13.961,0,13.961-6.784,27.923-6.784h55.846c13.961,0,13.961,13.569,27.923,13.569s13.961-149.253,27.923-149.253,13.96106,139.078,27.923,139.078,13.96106,3.392,27.923,3.392,13.96106-3.392,27.923-3.392,13.96106-13.569,27.923-13.569,13.96106,20.354,27.923,20.354h0c-41.884-10.177-41.884,0-55.846,0s-13.962,3.392-27.923,3.392-13.96106-10.177-27.923-10.177-13.96106-91.587-27.923-91.587S1011.515,173.599,997.555,173.599s-13.963-13.568-27.924-13.568-13.961,3.392-27.923,3.392-13.961,3.392-27.923,3.392-13.961,6.784-27.923,6.784-13.962-6.784-27.923-6.784-13.961-44.1-27.923-44.1-13.961,40.706-27.923,40.706-13.961,10.177-27.923,10.177H746.248c-13.961,0-13.961-3.392-27.923-3.392s-13.961-13.569-27.923-13.569-13.961,13.569-27.923,13.569-13.962-16.96-27.923-16.96-13.961-13.569-27.923-13.569-13.961-16.96-27.923-16.96-13.961,50.881-27.923,50.881H494.943c-13.961,0-13.961-6.784-27.923-6.784s-13.965-91.583-27.923-91.583-13.961,91.587-27.923,91.587-13.961,3.392-27.923,3.392-13.961,3.392-27.923,3.392-13.961-23.745-27.923-23.745-13.961,3.392-27.923,3.392-13.961-6.784-27.923-6.784-13.961,27.137-27.923,27.137-13.961-6.784-27.923-6.784-13.961,3.392-27.923,3.392-13.961-3.392-27.923-3.392-13.961-67.842-27.923-67.842-13.961,57.666-27.923,57.666-13.961,6.784-27.923,6.784-13.961,10.173-27.923,10.173Z" fill="#c2faef"/>
            </g>
          </g>
          <g id="numero_di_occorrenze" data-name="numero di occorrenze" style="isolation: isolate">
            <g style="isolation: isolate">
              <path d="M21.81689,2.03418V9h-.89941L17.60889,3.46289V9h-.83936V2.03418h.88965L20.977,7.53125V2.03418Z"/>
              <path d="M27.2876,4.07227V9H26.478V8.32031a1.86538,1.86538,0,0,1-1.58936.75977c-1.14941,0-1.64892-.7793-1.64892-1.98926V4.07227h.80957v2.8291c0,.51953.02,1.46875,1.03955,1.46875.96924,0,1.38916-.86914,1.38916-2.12891V4.07227Z"/>
              <path d="M35.56543,5.90137V9h-.80957V6.1416c0-.37988,0-1.43945-1.019-1.43945-1.04981,0-1.19971,1.06933-1.19971,2.04883V9h-.80957V6.17188c0-.71973-.21-1.46973-1.04932-1.46973-1.08935,0-1.16943,1.25-1.16943,2.04883V9h-.80957l-.00977-4.92773H29.479v.60058a1.49628,1.49628,0,0,1,1.34912-.67969,1.42987,1.42987,0,0,1,1.43946.959,1.67735,1.67735,0,0,1,1.61914-.959C35.06592,3.99316,35.56543,4.80273,35.56543,5.90137Z"/>
              <path d="M41.05664,6.77148h-3.5581a1.444,1.444,0,0,0,1.50927,1.56934A1.709,1.709,0,0,0,40.36719,7.751l.55957.48925a2.44238,2.44238,0,0,1-1.92871.83985,2.265,2.265,0,0,1-2.3086-2.51856A2.29079,2.29079,0,0,1,38.918,3.99316a2.13747,2.13747,0,0,1,2.16894,2.33789A3.75555,3.75555,0,0,1,41.05664,6.77148Zm-3.54785-.66015h2.79834a1.09582,1.09582,0,0,1-.00977-.12988,1.30305,1.30305,0,0,0-1.38916-1.3086A1.40572,1.40572,0,0,0,37.50879,6.11133Z"/>
              <path d="M45.36768,4.21289l-.39014.67969a1.63448,1.63448,0,0,0-.64942-.15039c-.72949,0-1.25927.5498-1.25927,1.5791V9h-.80957V4.07227h.80957V4.832a1.54691,1.54691,0,0,1,1.4292-.83887A1.705,1.705,0,0,1,45.36768,4.21289Z"/>
              <path d="M45.729,6.53125a2.39307,2.39307,0,1,1,4.77735,0,2.39371,2.39371,0,1,1-4.77735,0Zm3.96778,0a1.59619,1.59619,0,1,0-3.15821,0c0,1.03906.55957,1.83887,1.57911,1.83887A1.63067,1.63067,0,0,0,49.69678,6.53125Z"/>
              <path d="M58.72656,2.03418V9h-.81982V8.37988a1.93487,1.93487,0,0,1-1.5791.7002c-1.40918,0-2.15869-1.0791-2.15869-2.54883,0-1.54883.82959-2.54883,2.15869-2.54883a1.93481,1.93481,0,0,1,1.5791.71973v-2.668Zm-.73974,4.49707c0-1.0791-.54981-1.8291-1.50928-1.8291-.93945,0-1.499.72949-1.499,1.8291,0,1.06934.52978,1.81934,1.499,1.81934C57.47705,8.35059,57.98682,7.57031,57.98682,6.53125Z"/>
              <path d="M60.07861,2.03418h.90967V3.10352h-.90967Zm.06006,2.03809h.80957V9h-.80957Z"/>
              <path d="M64.81885,6.53125a2.39307,2.39307,0,1,1,4.77734,0,2.3937,2.3937,0,1,1-4.77734,0Zm3.96777,0a1.59618,1.59618,0,1,0-3.1582,0c0,1.03906.55957,1.83887,1.5791,1.83887A1.63067,1.63067,0,0,0,68.78662,6.53125Z"/>
              <path d="M70.54883,6.55176a2.32183,2.32183,0,0,1,2.2583-2.5586,2.08442,2.08442,0,0,1,2.0293,1.37891l-.77.29981a1.33125,1.33125,0,0,0-1.25928-.96973c-.999,0-1.4292.89941-1.4292,1.84961,0,.94922.43018,1.81836,1.43945,1.81836a1.25034,1.25034,0,0,0,1.21924-.959l.74951.2793a2.00592,2.00592,0,0,1-1.96875,1.38965A2.30257,2.30257,0,0,1,70.54883,6.55176Z"/>
              <path d="M75.69824,6.55176A2.3222,2.3222,0,0,1,77.957,3.99316a2.08442,2.08442,0,0,1,2.0293,1.37891l-.76953.29981A1.33226,1.33226,0,0,0,77.957,4.70215c-.999,0-1.4292.89941-1.4292,1.84961,0,.94922.43018,1.81836,1.43946,1.81836a1.25034,1.25034,0,0,0,1.21923-.959l.74952.2793a2.00593,2.00593,0,0,1-1.96875,1.38965A2.303,2.303,0,0,1,75.69824,6.55176Z"/>
              <path d="M80.83887,6.53125a2.39307,2.39307,0,1,1,4.77734,0,2.3937,2.3937,0,1,1-4.77734,0Zm3.96777,0a1.59618,1.59618,0,1,0-3.1582,0c0,1.03906.55957,1.83887,1.5791,1.83887A1.63067,1.63067,0,0,0,84.80664,6.53125Z"/>
              <path d="M89.897,4.21289l-.39013.67969a1.63452,1.63452,0,0,0-.64942-.15039c-.72949,0-1.25928.5498-1.25928,1.5791V9h-.80957V4.07227h.80957V4.832a1.54691,1.54691,0,0,1,1.4292-.83887A1.705,1.705,0,0,1,89.897,4.21289Z"/>
              <path d="M93.917,4.21289l-.39013.67969a1.63452,1.63452,0,0,0-.64942-.15039c-.72949,0-1.25928.5498-1.25928,1.5791V9h-.80957V4.07227h.80957V4.832a1.54691,1.54691,0,0,1,1.4292-.83887A1.705,1.705,0,0,1,93.917,4.21289Z"/>
              <path d="M98.65576,6.77148h-3.5581a1.444,1.444,0,0,0,1.50927,1.56934A1.709,1.709,0,0,0,97.96631,7.751l.55957.48925a2.44236,2.44236,0,0,1-1.92871.83985,2.26533,2.26533,0,0,1-2.30908-2.51856,2.29115,2.29115,0,0,1,2.229-2.56836,2.13748,2.13748,0,0,1,2.169,2.33789A3.75576,3.75576,0,0,1,98.65576,6.77148Zm-3.54785-.66015h2.79834a1.09582,1.09582,0,0,1-.00977-.12988,1.303,1.303,0,0,0-1.38916-1.3086A1.40572,1.40572,0,0,0,95.10791,6.11133Z"/>
              <path d="M103.90625,5.94141V9h-.80957V6.17188c0-.85938-.23-1.46973-1.03955-1.46973-.92969,0-1.38916.81933-1.38916,2.0791V9H99.8584V4.07227h.80957V4.7627a1.86414,1.86414,0,0,1,1.59912-.76954C103.33643,3.99316,103.90625,4.67285,103.90625,5.94141Z"/>
              <path d="M109.03613,4.69238l-3.04834,3.61817h3.02832V9h-4.09765V8.43066l3.11816-3.668h-2.9585V4.07227h3.958Z"/>
              <path d="M114.15576,6.77148h-3.5581a1.444,1.444,0,0,0,1.50927,1.56934,1.709,1.709,0,0,0,1.35938-.58984l.55957.48925a2.44236,2.44236,0,0,1-1.92871.83985,2.26533,2.26533,0,0,1-2.30908-2.51856,2.29115,2.29115,0,0,1,2.229-2.56836,2.13748,2.13748,0,0,1,2.169,2.33789A3.75576,3.75576,0,0,1,114.15576,6.77148Zm-3.54785-.66015h2.79834a1.09582,1.09582,0,0,1-.00977-.12988,1.303,1.303,0,0,0-1.38916-1.3086A1.40572,1.40572,0,0,0,110.60791,6.11133Z"/>
            </g>
          </g>
          <g id="numero_di_occorrenze-2" data-name="numero di occorrenze-2" style="isolation: isolate">
            <g style="isolation: isolate">
              <path d="M21.81689,211.03418V218h-.89941l-3.30859-5.53711V218h-.83936v-6.96582h.88965l3.31787,5.49707v-5.49707Z"/>
              <path d="M27.2876,213.07227V218H26.478v-.67969a1.86538,1.86538,0,0,1-1.58936.75977c-1.14941,0-1.64892-.7793-1.64892-1.98926v-3.01855h.80957v2.8291c0,.51953.02,1.46875,1.03955,1.46875.96924,0,1.38916-.86914,1.38916-2.12891v-2.16894Z"/>
              <path d="M35.56543,214.90137V218h-.80957v-2.8584c0-.37988,0-1.43945-1.019-1.43945-1.04981,0-1.19971,1.06933-1.19971,2.04883V218h-.80957v-2.82812c0-.71973-.21-1.46973-1.04932-1.46973-1.08935,0-1.16943,1.25-1.16943,2.04883V218h-.80957l-.00977-4.92773H29.479v.60058a1.49628,1.49628,0,0,1,1.34912-.67969,1.42987,1.42987,0,0,1,1.43946.959,1.67735,1.67735,0,0,1,1.61914-.959C35.06592,212.99316,35.56543,213.80273,35.56543,214.90137Z"/>
              <path d="M41.05664,215.77148h-3.5581a1.444,1.444,0,0,0,1.50927,1.56934,1.709,1.709,0,0,0,1.35938-.58984l.55957.48925a2.44238,2.44238,0,0,1-1.92871.83985,2.265,2.265,0,0,1-2.3086-2.51856,2.29079,2.29079,0,0,1,2.22852-2.56836,2.13747,2.13747,0,0,1,2.16894,2.33789A3.75555,3.75555,0,0,1,41.05664,215.77148Zm-3.54785-.66015h2.79834a1.09582,1.09582,0,0,1-.00977-.12988,1.30305,1.30305,0,0,0-1.38916-1.3086A1.40572,1.40572,0,0,0,37.50879,215.11133Z"/>
              <path d="M45.36768,213.21289l-.39014.67969a1.63448,1.63448,0,0,0-.64942-.15039c-.72949,0-1.25927.5498-1.25927,1.5791V218h-.80957v-4.92773h.80957v.75976a1.54691,1.54691,0,0,1,1.4292-.83887A1.705,1.705,0,0,1,45.36768,213.21289Z"/>
              <path d="M45.729,215.53125a2.39371,2.39371,0,1,1,2.38868,2.54883A2.37159,2.37159,0,0,1,45.729,215.53125Zm3.96778,0a1.59619,1.59619,0,1,0-3.15821,0c0,1.03906.55957,1.83887,1.57911,1.83887A1.63067,1.63067,0,0,0,49.69678,215.53125Z"/>
              <path d="M58.72656,211.03418V218h-.81982v-.62012a1.93487,1.93487,0,0,1-1.5791.7002c-1.40918,0-2.15869-1.0791-2.15869-2.54883,0-1.54883.82959-2.54883,2.15869-2.54883a1.93481,1.93481,0,0,1,1.5791.71973v-2.668Zm-.73974,4.49707c0-1.0791-.54981-1.8291-1.50928-1.8291-.93945,0-1.499.72949-1.499,1.8291,0,1.06934.52978,1.81934,1.499,1.81934C57.47705,217.35059,57.98682,216.57031,57.98682,215.53125Z"/>
              <path d="M60.07861,211.03418h.90967v1.06934h-.90967Zm.06006,2.03809h.80957V218h-.80957Z"/>
              <path d="M64.81885,215.53125a2.3937,2.3937,0,1,1,2.38867,2.54883A2.37158,2.37158,0,0,1,64.81885,215.53125Zm3.96777,0a1.59618,1.59618,0,1,0-3.1582,0c0,1.03906.55957,1.83887,1.5791,1.83887A1.63067,1.63067,0,0,0,68.78662,215.53125Z"/>
              <path d="M70.54883,215.55176a2.32183,2.32183,0,0,1,2.2583-2.5586,2.08442,2.08442,0,0,1,2.0293,1.37891l-.77.29981a1.33125,1.33125,0,0,0-1.25928-.96973c-.999,0-1.4292.89941-1.4292,1.84961,0,.94922.43018,1.81836,1.43945,1.81836a1.25034,1.25034,0,0,0,1.21924-.959l.74951.2793a2.00592,2.00592,0,0,1-1.96875,1.38965A2.30257,2.30257,0,0,1,70.54883,215.55176Z"/>
              <path d="M75.69824,215.55176a2.3222,2.3222,0,0,1,2.25879-2.5586,2.08442,2.08442,0,0,1,2.0293,1.37891l-.76953.29981a1.33226,1.33226,0,0,0-1.25977-.96973c-.999,0-1.4292.89941-1.4292,1.84961,0,.94922.43018,1.81836,1.43946,1.81836a1.25034,1.25034,0,0,0,1.21923-.959l.74952.2793a2.00593,2.00593,0,0,1-1.96875,1.38965A2.303,2.303,0,0,1,75.69824,215.55176Z"/>
              <path d="M80.83887,215.53125a2.3937,2.3937,0,1,1,2.38867,2.54883A2.37158,2.37158,0,0,1,80.83887,215.53125Zm3.96777,0a1.59618,1.59618,0,1,0-3.1582,0c0,1.03906.55957,1.83887,1.5791,1.83887A1.63067,1.63067,0,0,0,84.80664,215.53125Z"/>
              <path d="M89.897,213.21289l-.39013.67969a1.63452,1.63452,0,0,0-.64942-.15039c-.72949,0-1.25928.5498-1.25928,1.5791V218h-.80957v-4.92773h.80957v.75976a1.54691,1.54691,0,0,1,1.4292-.83887A1.705,1.705,0,0,1,89.897,213.21289Z"/>
              <path d="M93.917,213.21289l-.39013.67969a1.63452,1.63452,0,0,0-.64942-.15039c-.72949,0-1.25928.5498-1.25928,1.5791V218h-.80957v-4.92773h.80957v.75976a1.54691,1.54691,0,0,1,1.4292-.83887A1.705,1.705,0,0,1,93.917,213.21289Z"/>
              <path d="M98.65576,215.77148h-3.5581a1.444,1.444,0,0,0,1.50927,1.56934,1.709,1.709,0,0,0,1.35938-.58984l.55957.48925a2.44236,2.44236,0,0,1-1.92871.83985,2.26533,2.26533,0,0,1-2.30908-2.51856,2.29115,2.29115,0,0,1,2.229-2.56836,2.13748,2.13748,0,0,1,2.169,2.33789A3.75576,3.75576,0,0,1,98.65576,215.77148Zm-3.54785-.66015h2.79834a1.09582,1.09582,0,0,1-.00977-.12988,1.303,1.303,0,0,0-1.38916-1.3086A1.40572,1.40572,0,0,0,95.10791,215.11133Z"/>
              <path d="M103.90625,214.94141V218h-.80957v-2.82812c0-.85938-.23-1.46973-1.03955-1.46973-.92969,0-1.38916.81933-1.38916,2.0791V218H99.8584v-4.92773h.80957v.69043a1.86414,1.86414,0,0,1,1.59912-.76954C103.33643,212.99316,103.90625,213.67285,103.90625,214.94141Z"/>
              <path d="M109.03613,213.69238l-3.04834,3.61817h3.02832V218h-4.09765v-.56934l3.11816-3.668h-2.9585v-.69043h3.958Z"/>
              <path d="M114.15576,215.77148h-3.5581a1.444,1.444,0,0,0,1.50927,1.56934,1.709,1.709,0,0,0,1.35938-.58984l.55957.48925a2.44236,2.44236,0,0,1-1.92871.83985,2.26533,2.26533,0,0,1-2.30908-2.51856,2.29115,2.29115,0,0,1,2.229-2.56836,2.13748,2.13748,0,0,1,2.169,2.33789A3.75576,3.75576,0,0,1,114.15576,215.77148Zm-3.54785-.66015h2.79834a1.09582,1.09582,0,0,1-.00977-.12988,1.303,1.303,0,0,0-1.38916-1.3086A1.40572,1.40572,0,0,0,110.60791,215.11133Z"/>
            </g>
          </g>
          <path id="Path_8" data-name="Path 8" d="M20.255,173.421H242.383" fill="none" stroke="#000"/>
          <g id="a" style="isolation: isolate">
            <g style="isolation: isolate">
              <path d="M231.72754,20.91211V24h-.87012l-.05957-.68945a1.89222,1.89222,0,0,1-1.6084.77929,1.56126,1.56126,0,0,1-1.76953-1.56933,1.24677,1.24677,0,0,1,.59961-1.13867,3.382,3.382,0,0,1,1.63867-.29h1.11914v-.17969a1.01591,1.01591,0,0,0-1.13867-1.09961,1.72568,1.72568,0,0,0-1.39941.72949l-.68946-.58008a2.64891,2.64891,0,0,1,2.12891-.97949A1.82641,1.82641,0,0,1,231.72754,20.91211Zm-.9502.94922v-.03028h-1.00879c-.65917,0-.96972.04-1.16894.2002a.6484.6484,0,0,0-.23047.51953c0,.46.38965.76953,1.0293.76953A1.33879,1.33879,0,0,0,230.77734,21.86133Z" fill="#5151fc"/>
            </g>
          </g>
          <g id="Group_22" data-name="Group 22">
            <g id="_0" data-name=" 0" style="isolation: isolate">
              <g style="isolation: isolate">
                <path d="M7.333,170.11279c0-1.58886.31982-3.57812,2.21875-3.57812,1.749,0,2.25879,1.76953,2.25879,3.58789,0,1.83984-.50977,3.57812-2.19922,3.57812C7.67285,173.70068,7.333,171.72217,7.333,170.11279Zm3.61767.00977c0-1.54883-.27978-2.80762-1.39892-2.80762-1.16944,0-1.38916,1.34863-1.38916,2.80762,0,1.41992.21972,2.79883,1.4292,2.79883C10.68115,172.92139,10.95068,171.63232,10.95068,170.12256Z"/>
              </g>
            </g>
            <g id="Group_21" data-name="Group 21">
              <line id="Line_19" data-name="Line 19" x1="20.674" y1="138.564" x2="16.638" y2="138.564" fill="none" stroke="#000"/>
              <g id="_10" data-name=" 10" style="isolation: isolate">
                <g style="isolation: isolate">
                  <path d="M5.05469,132.76025v6.96582H4.23535v-5.09765h-1.709v-.75879H3.62549c.33984,0,.60986-.10059.60986-.55957v-.54981Z"/>
                  <path d="M7.79688,136.23779c0-1.58886.31982-3.57812,2.21874-3.57812,1.749,0,2.25879,1.76953,2.25879,3.58789,0,1.83984-.50976,3.57812-2.19921,3.57812C8.13672,139.82568,7.79688,137.84717,7.79688,136.23779Zm3.61767.00977c0-1.54883-.27978-2.80762-1.39893-2.80762-1.16943,0-1.38916,1.34863-1.38916,2.80762,0,1.41992.21973,2.79883,1.4292,2.79883C11.145,139.04639,11.41455,137.75732,11.41455,136.24756Z"/>
                </g>
              </g>
              <line id="Line_20" data-name="Line 20" x1="20.674" y1="103.425" x2="16.638" y2="103.425" fill="none" stroke="#000"/>
              <g id="_20" data-name=" 20" style="isolation: isolate">
                <g style="isolation: isolate">
                  <path d="M6.51221,103.81641v.76953H1.6748v-.71973c1.52881-.959,3.69776-2.4082,3.69776-4.208a1.21921,1.21921,0,0,0-1.29932-1.3584c-1.02929,0-1.44922.79883-1.459,1.71875L1.81445,99.958A2.23326,2.23326,0,0,1,4.0835,97.51953,1.98637,1.98637,0,0,1,6.19238,99.6582c0,1.68946-1.47949,3.11914-3.18847,4.15821Z"/>
                  <path d="M7.84473,101.09766c0-1.58887.31982-3.57813,2.21875-3.57813,1.749,0,2.25879,1.76953,2.25879,3.58789,0,1.83985-.50977,3.57813-2.19922,3.57813C8.18457,104.68555,7.84473,102.707,7.84473,101.09766Zm3.61767.00976c0-1.54883-.27978-2.80762-1.39892-2.80762-1.16944,0-1.38916,1.34864-1.38916,2.80762,0,1.41992.21972,2.79883,1.4292,2.79883C11.19287,103.90625,11.4624,102.61719,11.4624,101.10742Z"/>
                </g>
              </g>
              <line id="Line_21" data-name="Line 21" x1="20.674" y1="68.285" x2="16.638" y2="68.285" fill="none" stroke="#000"/>
              <g id="_30" data-name=" 30" style="isolation: isolate">
                <g style="isolation: isolate">
                  <path d="M1.57471,67.33838,2.374,67.2876a1.48985,1.48985,0,0,0,1.68946,1.47949c.9292,0,1.64892-.47949,1.64892-1.38965,0-1.1289-1.12939-1.25879-1.98877-1.25879v-.66992c.98926,0,1.61914-.36914,1.61914-1.15918A1.11192,1.11192,0,0,0,4.0835,63.16064a1.24,1.24,0,0,0-1.3794,1.25879l-.78955-.05957a1.97369,1.97369,0,0,1,2.14893-1.97949,1.89206,1.89206,0,0,1,2.09863,1.80957A1.57029,1.57029,0,0,1,5.1626,65.7085,1.68671,1.68671,0,0,1,6.53174,67.438a2.20525,2.20525,0,0,1-2.47852,2.1084A2.21744,2.21744,0,0,1,1.57471,67.33838Z"/>
                  <path d="M7.84473,65.9585c0-1.58887.31982-3.57813,2.21875-3.57813,1.749,0,2.25879,1.76953,2.25879,3.58789,0,1.83985-.50977,3.57813-2.19922,3.57813C8.18457,69.54639,7.84473,67.56787,7.84473,65.9585Zm3.61767.00976c0-1.54883-.27978-2.80762-1.39892-2.80762-1.16944,0-1.38916,1.34864-1.38916,2.80762,0,1.41992.21972,2.79883,1.4292,2.79883C11.19287,68.76709,11.4624,67.478,11.4624,65.96826Z"/>
                </g>
              </g>
              <line id="Line_22" data-name="Line 22" x1="20.674" y1="33.146" x2="16.638" y2="33.146" fill="none" stroke="#000"/>
              <g id="_40" data-name=" 40" style="isolation: isolate">
                <g style="isolation: isolate">
                  <path d="M6.76172,31.87939v.76954H5.64258v1.65918H4.833V32.64893H1.395v-.50977l3.50781-4.79687h.73975v4.5371Zm-1.92871,0V28.5415L2.44434,31.87939Z"/>
                  <path d="M7.84473,30.81982c0-1.58886.31982-3.57812,2.21875-3.57812,1.749,0,2.25879,1.76953,2.25879,3.58789,0,1.83984-.50977,3.57812-2.19922,3.57812C8.18457,34.40771,7.84473,32.4292,7.84473,30.81982Zm3.61767.00977c0-1.54883-.27978-2.80762-1.39892-2.80762-1.16944,0-1.38916,1.34864-1.38916,2.80762,0,1.41992.21972,2.79883,1.4292,2.79883C11.19287,33.62842,11.4624,32.33936,11.4624,30.82959Z"/>
                </g>
              </g>
              <path id="Path_15" data-name="Path 15" d="M16.281,15.576h4.266V173.325" fill="none" stroke="#000"/>
            </g>
          </g>
        </g>
        <g id="Group_19" data-name="Group 19">
          <g clip-path="url(#clip-path-3)">
            <g id="Scroll_Group_1" data-name="Scroll Group 1">
              <g id="Group_16" data-name="Group 16">
                <path id="Path_3-2" data-name="Path 3-2" d="M-914.715,382.479c41.884,0,41.884-10.177,55.846-10.177h27.923c13.961,0,13.961-40.706,27.923-40.706s13.961,47.489,27.923,47.489,13.961,3.392,27.923,3.392,13.961-6.784,27.923-6.784,13.961,6.784,27.923,6.784,13.961-13.569,27.923-13.569,13.961,10.177,27.923,10.177,13.961-16.96,27.923-16.96,13.961,20.354,27.923,20.354,13.961-3.392,27.923-3.392,13.961,3.392,27.923,3.392,13.959-61.058,27.92-61.058,13.961,54.274,27.923,54.274,13.961,6.784,27.923,6.784h55.846c13.961,0,13.961-30.529,27.923-30.529s13.961,30.529,27.923,30.529,13.961-10.177,27.923-10.177,13.961,10.177,27.923,10.177,13.961-3.392,27.923-3.392,13.961,3.392,27.923,3.392h55.843c13.961,0,13.961-10.177,27.923-10.177s13.961-16.96,27.923-16.96,13.961,27.137,27.923,27.137H-21.185c13.961,0,13.961-6.784,27.923-6.784s13.961-3.392,27.923-3.392,13.961,10.177,27.923,10.177c13.962,0,13.96106-23.745,27.923-23.745s13.96106,23.745,27.923,23.745h55.846c13.96106,0,13.96106-3.392,27.923-3.392s13.96106,3.392,27.923,3.392Z" fill="#5151fc"/>
                <path id="Path_4-2" data-name="Path 4-2" d="M-914.715,382.479c41.884,0,41.884-10.177,55.846-10.177h27.923c13.961,0,13.961-44.1,27.923-44.1s13.961,47.489,27.923,47.489,13.961,6.784,27.923,6.784,13.961-6.784,27.923-6.784,13.961,6.784,27.923,6.784,13.961-13.569,27.923-13.569,13.961,6.784,27.923,6.784,13.961-13.569,27.923-13.569,13.961,20.354,27.923,20.354,13.961-3.392,27.923-3.392,13.961,3.392,27.923,3.392,13.961-67.842,27.923-67.842,13.961,61.058,27.923,61.058,13.961,6.784,27.923,6.784h55.846c13.961,0,13.961-44.1,27.923-44.1s13.961,44.1,27.923,44.1,13.958-13.572,27.922-13.572,13.961,13.569,27.923,13.569,13.961-6.784,27.923-6.784,13.961,6.784,27.923,6.784h55.843c13.961,0,13.961-10.177,27.923-10.177s13.96008-27.136,27.92108-27.136,13.961,37.313,27.923,37.313h27.923c13.961,0,13.961-3.392,27.923-3.392s13.961-6.784,27.923-6.784h27.923c13.961,0,13.961,10.177,27.923,10.177s13.96106-40.706,27.923-40.706,13.96106,40.706,27.923,40.706h27.923c13.96106,0,13.96106-3.392,27.923-3.392h55.84594v3.392c-41.884-3.392-41.884,0-55.84594,0H118.42975c-13.96106,0-13.96106-23.745-27.923-23.745s-13.961,23.745-27.923,23.745-13.962-10.177-27.923-10.177-13.961,3.392-27.923,3.392-13.961,6.784-27.923,6.784H-77.031c-13.961,0-13.961-27.137-27.923-27.137s-13.961,16.96-27.923,16.96-13.961,10.177-27.923,10.177H-216.644c-13.961,0-13.961-3.392-27.923-3.392s-13.961,3.392-27.923,3.392-13.962-10.177-27.923-10.177-13.961,10.177-27.923,10.177-13.961-30.529-27.923-30.529-13.961,30.529-27.923,30.529H-440.027c-13.961,0-13.961-6.784-27.923-6.784s-13.965-54.269-27.923-54.269-13.961,61.058-27.923,61.058-13.961-3.392-27.923-3.392-13.961,3.392-27.923,3.392-13.961-20.354-27.923-20.354-13.961,16.96-27.923,16.96-13.96-10.175-27.922-10.175-13.961,13.569-27.923,13.569-13.961-6.784-27.923-6.784-13.961,6.784-27.923,6.784-13.961-3.392-27.923-3.392-13.961-47.489-27.923-47.489-13.961,40.706-27.923,40.706h-27.921c-13.961,0-13.961,10.177-27.923,10.177Z" fill="#c5c5fc"/>
                <path id="Path_5-2" data-name="Path 5-2" d="M-914.715,382.48c41.884,0,41.884-10.177,55.846-10.177s13.961-6.784,27.923-6.784,13.961-57.669,27.923-57.669,13.961,67.842,27.923,67.842,13.961,3.392,27.923,3.392,13.961-3.392,27.923-3.392,13.961,6.784,27.923,6.784,13.961-27.137,27.923-27.137,13.961,6.784,27.923,6.784,13.961-3.392,27.923-3.392,13.961,23.745,27.923,23.745,13.961-3.392,27.923-3.392,13.961-3.392,27.923-3.392,13.961-91.587,27.923-91.587,13.961,91.587,27.923,91.587,13.961,6.784,27.923,6.784h55.846c13.961,0,13.961-50.881,27.923-50.881s13.961,16.96,27.923,16.96,13.961,13.569,27.923,13.569,13.961,16.96,27.923,16.96,13.961-13.569,27.923-13.569,13.961,13.569,27.923,13.569S-202.68,382.48-188.715,382.48h27.918c13.961,0,13.961-10.177,27.923-10.177s13.961-40.706,27.923-40.706,13.961,44.1,27.923,44.1,13.961,6.784,27.923,6.784,13.961-6.784,27.923-6.784,13.961-3.392,27.923-3.392,13.961-3.392,27.923-3.392,13.961,13.569,27.923,13.569c13.96192,0,13.96106-101.763,27.923-101.763s13.96106,91.587,27.923,91.587,13.96106,10.177,27.923,10.177,13.96106-3.392,27.923-3.392,13.96106-10.177,27.923-10.177,13.96106,10.177,27.923,10.177H174.275c-13.962,0-13.962,3.392-27.923,3.392H118.429c-13.96106,0-13.96106-40.706-27.923-40.706S76.545,382.48,62.585,382.48s-13.962-10.177-27.923-10.177H6.738c-13.961,0-13.961,6.784-27.923,6.784s-13.961,3.392-27.923,3.392H-77.031c-13.961,0-13.961-37.313-27.923-37.313s-13.961,27.137-27.923,27.137-13.961,10.177-27.923,10.177H-216.644c-13.961,0-13.961-6.784-27.923-6.784s-13.961,6.784-27.923,6.784-13.962-13.569-27.923-13.569-13.961,13.569-27.923,13.569-13.961-44.1-27.923-44.1-13.961,44.1-27.923,44.1H-440.027c-13.961,0-13.961-6.784-27.923-6.784s-13.961-61.055-27.922-61.055-13.961,67.842-27.923,67.842-13.961-3.392-27.923-3.392-13.961,3.392-27.923,3.392-13.961-20.354-27.923-20.354-13.961,13.569-27.923,13.569-13.961-6.784-27.923-6.784-13.961,13.569-27.923,13.569-13.961-6.784-27.923-6.784-13.961,6.784-27.923,6.784-13.961-6.784-27.923-6.784-13.961-47.489-27.923-47.489-13.96,44.092-27.922,44.092H-858.869c-13.961,0-13.961,10.177-27.923,10.177Z" fill="#00c19c"/>
                <path id="Path_6-2" data-name="Path 6-2" d="M-914.715,382.479c41.884,0,41.884-10.177,55.846-10.177s13.961-10.177,27.923-10.177,13.961-61.058,27.923-61.058,13.961,74.626,27.923,74.626,13.961-3.392,27.923-3.392,13.961,3.392,27.923,3.392,13.961,6.784,27.923,6.784,13.961-27.137,27.923-27.137,13.961,3.392,27.923,3.392h27.923c13.961,0,13.961,23.745,27.923,23.745s13.961-3.392,27.923-3.392,13.961-6.784,27.923-6.784,13.961-94.979,27.923-94.979,13.961,91.593,27.922,91.593,13.961,13.569,27.923,13.569h27.923c13.961,0,13.961-3.392,27.923-3.392s13.964-54.277,27.923-54.277,13.961,20.354,27.923,20.354,13.961-6.784,27.923-6.784,13.961,40.706,27.923,40.706,13.961-16.96,27.923-16.96,13.961,16.96,27.923,16.96,13.961,3.392,27.923,3.392h27.918c13.961,0,13.961-13.569,27.923-13.569s13.961-54.274,27.923-54.274,13.961,61.058,27.923,61.058h27.923c13.961,0,13.961-6.784,27.923-6.784h55.846c13.961,0,13.961,13.569,27.923,13.569s13.961-149.253,27.923-149.253,13.96106,139.078,27.923,139.078,13.96106,3.392,27.923,3.392,13.96106-3.392,27.923-3.392,13.96106-13.569,27.923-13.569,13.96106,20.354,27.923,20.354h0c-41.884-10.177-41.884,0-55.846,0s-13.962,3.392-27.923,3.392-13.96106-10.177-27.923-10.177-13.96106-91.587-27.923-91.587S76.545,382.483,62.585,382.483s-13.963-13.568-27.924-13.568S20.7,372.307,6.738,372.307s-13.961,3.392-27.923,3.392-13.961,6.784-27.923,6.784-13.962-6.784-27.923-6.784-13.961-44.1-27.923-44.1-13.961,40.706-27.923,40.706-13.961,10.177-27.923,10.177H-188.722c-13.961,0-13.961-3.392-27.923-3.392s-13.961-13.569-27.923-13.569-13.961,13.569-27.923,13.569-13.962-16.96-27.923-16.96-13.961-13.569-27.923-13.569-13.961-16.96-27.923-16.96-13.961,50.881-27.923,50.881H-440.027c-13.961,0-13.961-6.784-27.923-6.784s-13.965-91.583-27.923-91.583-13.961,91.587-27.923,91.587-13.961,3.392-27.923,3.392-13.961,3.392-27.923,3.392-13.961-23.745-27.923-23.745-13.961,3.392-27.923,3.392-13.961-6.784-27.923-6.784-13.961,27.137-27.923,27.137-13.961-6.784-27.923-6.784-13.961,3.392-27.923,3.392-13.961-3.392-27.923-3.392-13.961-67.842-27.923-67.842-13.961,57.666-27.923,57.666-13.961,6.784-27.923,6.784-13.961,10.173-27.923,10.173Z" fill="#c2faef"/>
              </g>
              <rect id="Rectangle_1" data-name="Rectangle 1" x="-48" y="229" width="68" height="176" fill="#fff"/>
            </g>
          </g>
          <line id="Line_18" data-name="Line 18" x1="118.97504" y1="382.479" x2="118.97504" y2="385.148" fill="none" stroke="#000"/>
          <path id="Path_9" data-name="Path 9" d="M230.01907,382.802v-3.871" fill="none" stroke="#000"/>
          <g id="b" style="isolation: isolate">
            <g style="isolation: isolate">
              <path d="M232.26758,234.53125c0,1.459-.75,2.55859-2.13867,2.55859a1.86046,1.86046,0,0,1-1.51953-.66992V237h-.94922v-6.96582h.94922v2.62793a1.89881,1.89881,0,0,1,1.53906-.67969C231.418,231.98242,232.26758,232.95215,232.26758,234.53125Zm-.96,0c0-1.03906-.48926-1.69922-1.37989-1.69922-.91894,0-1.39843.71973-1.39843,1.69922,0,.96973.459,1.68945,1.40918,1.68945C230.84766,236.2207,231.30762,235.55078,231.30762,234.53125Z" fill="#5151fc"/>
            </g>
          </g>
        </g>
      </g>
      <g id="_1980" data-name=" 1980" style="isolation: isolate">
        <g style="isolation: isolate">
          <path d="M111.86182,390.42773v6.96582h-.81934V392.2959h-1.709v-.75879h1.09912c.33984,0,.60986-.10059.60986-.55957v-.54981Z"/>
          <path d="M119.25146,392.67578a2.49631,2.49631,0,0,1-.35986,1.25977l-2.09912,3.458h-.91943l1.5791-2.53906a2.30039,2.30039,0,0,1-3.01807-2.168,2.40991,2.40991,0,0,1,4.81738-.01074Zm-.81982.01074a1.58941,1.58941,0,1,0-1.59912,1.5586A1.57816,1.57816,0,0,0,118.43164,392.68652Z"/>
          <path d="M120.43408,395.4043a1.83866,1.83866,0,0,1,1.229-1.79883,1.60649,1.60649,0,0,1-.84961-1.46875,2.048,2.048,0,0,1,4.06787.04,1.57137,1.57137,0,0,1-.85938,1.42871,1.843,1.843,0,0,1,1.21924,1.79883,2.43056,2.43056,0,0,1-4.80713,0Zm3.99756-.06934a1.61246,1.61246,0,1,0-1.58887,1.36914A1.42124,1.42124,0,0,0,124.43164,395.335Zm-.35986-3.09863a1.22656,1.22656,0,1,0-1.21924,1.13965A1.126,1.126,0,0,0,124.07178,392.23633Z"/>
          <path d="M126.60352,393.90527c0-1.58886.31933-3.57812,2.21875-3.57812,1.749,0,2.25878,1.76953,2.25878,3.58789,0,1.83984-.50976,3.57812-2.19921,3.57812C126.94336,397.49316,126.60352,395.51465,126.60352,393.90527Zm3.61718.00977c0-1.54883-.27929-2.80762-1.39843-2.80762-1.16993,0-1.38965,1.34863-1.38965,2.80762,0,1.41992.21972,2.79883,1.42968,2.79883C129.95117,396.71387,130.2207,395.4248,130.2207,393.915Z"/>
        </g>
      </g>
      <g id="_1984" data-name=" 1984" style="isolation: isolate">
        <g style="isolation: isolate">
          <path d="M220.61816,390.42773v6.96582h-.81933V392.2959h-1.709v-.75879h1.09961c.33985,0,.60938-.10059.60938-.55957v-.54981Z"/>
          <path d="M228.00781,392.67578a2.496,2.496,0,0,1-.35937,1.25977l-2.09961,3.458h-.91895l1.5791-2.53906a2.30069,2.30069,0,0,1-3.01855-2.168,2.40991,2.40991,0,0,1,4.81738-.01074Zm-.81933.01074a1.58966,1.58966,0,1,0-1.59961,1.5586A1.57858,1.57858,0,0,0,227.18848,392.68652Z"/>
          <path d="M229.19043,395.4043a1.83907,1.83907,0,0,1,1.22949-1.79883,1.60562,1.60562,0,0,1-.84961-1.46875,2.04775,2.04775,0,0,1,4.06739.04,1.57137,1.57137,0,0,1-.85938,1.42871,1.84337,1.84337,0,0,1,1.21973,1.79883,2.43084,2.43084,0,0,1-4.80762,0Zm3.99805-.06934a1.61274,1.61274,0,1,0-1.58887,1.36914A1.40733,1.40733,0,0,0,233.18848,395.335Zm-.36036-3.09863a1.2263,1.2263,0,1,0-1.21874,1.13965A1.12582,1.12582,0,0,0,232.82812,392.23633Z"/>
          <path d="M240.27734,394.96484v.76954H239.1582v1.65917h-.80957v-1.65917h-3.43847v-.50977l3.50781-4.79688h.74023v4.53711Zm-1.92871,0V391.627L235.96,394.96484Z"/>
        </g>
      </g>
      <g id="Group_22-2" data-name="Group 22-2">
        <g id="_0-2" data-name=" 0-2" style="isolation: isolate">
          <g style="isolation: isolate">
            <path d="M7.333,379.1123c0-1.58886.31982-3.57812,2.21875-3.57812,1.749,0,2.25879,1.76953,2.25879,3.58789,0,1.83984-.50977,3.57813-2.19922,3.57813C7.67285,382.7002,7.333,380.72168,7.333,379.1123Zm3.61767.00977c0-1.54883-.27978-2.80762-1.39892-2.80762-1.16944,0-1.38916,1.34864-1.38916,2.80762,0,1.41992.21972,2.79883,1.4292,2.79883C10.68115,381.9209,10.95068,380.63184,10.95068,379.12207Z"/>
          </g>
        </g>
        <g id="Group_21-2" data-name="Group 21-2">
          <line id="Line_19-2" data-name="Line 19-2" x1="20.674" y1="347.564" x2="16.638" y2="347.564" fill="none" stroke="#000"/>
          <g id="_10-2" data-name=" 10-2" style="isolation: isolate">
            <g style="isolation: isolate">
              <path d="M5.05469,341.75977v6.96582H4.23535v-5.09766h-1.709v-.75879H3.62549c.33984,0,.60986-.10059.60986-.55957v-.5498Z"/>
              <path d="M7.79688,345.2373c0-1.58886.31982-3.57812,2.21874-3.57812,1.749,0,2.25879,1.76953,2.25879,3.58789,0,1.83984-.50976,3.57813-2.19921,3.57813C8.13672,348.8252,7.79688,346.84668,7.79688,345.2373Zm3.61767.00977c0-1.54883-.27978-2.80762-1.39893-2.80762-1.16943,0-1.38916,1.34864-1.38916,2.80762,0,1.41992.21973,2.79883,1.4292,2.79883C11.145,348.0459,11.41455,346.75684,11.41455,345.24707Z"/>
            </g>
          </g>
          <line id="Line_20-2" data-name="Line 20-2" x1="20.674" y1="312.425" x2="16.638" y2="312.425" fill="none" stroke="#000"/>
          <g id="_20-2" data-name=" 20-2" style="isolation: isolate">
            <g style="isolation: isolate">
              <path d="M6.51221,312.81641v.76953H1.6748v-.71973c1.52881-.959,3.69776-2.4082,3.69776-4.208a1.21921,1.21921,0,0,0-1.29932-1.3584c-1.02929,0-1.44922.79883-1.459,1.71875l-.79981-.06054a2.23326,2.23326,0,0,1,2.26905-2.43848,1.98637,1.98637,0,0,1,2.10888,2.13867c0,1.68946-1.47949,3.11914-3.18847,4.15821Z"/>
              <path d="M7.84473,310.09766c0-1.58887.31982-3.57813,2.21875-3.57813,1.749,0,2.25879,1.76953,2.25879,3.58789,0,1.83985-.50977,3.57813-2.19922,3.57813C8.18457,313.68555,7.84473,311.707,7.84473,310.09766Zm3.61767.00976c0-1.54883-.27978-2.80762-1.39892-2.80762-1.16944,0-1.38916,1.34864-1.38916,2.80762,0,1.41992.21972,2.79883,1.4292,2.79883C11.19287,312.90625,11.4624,311.61719,11.4624,310.10742Z"/>
            </g>
          </g>
          <line id="Line_21-2" data-name="Line 21-2" x1="20.674" y1="277.285" x2="16.638" y2="277.285" fill="none" stroke="#000"/>
          <g id="_30-2" data-name=" 30-2" style="isolation: isolate">
            <g style="isolation: isolate">
              <path d="M1.57471,276.33887l.79931-.05078a1.48985,1.48985,0,0,0,1.68946,1.47949c.9292,0,1.64892-.47949,1.64892-1.38965,0-1.12891-1.12939-1.25879-1.98877-1.25879v-.66992c.98926,0,1.61914-.36914,1.61914-1.15918a1.11192,1.11192,0,0,0-1.25927-1.12891,1.24,1.24,0,0,0-1.3794,1.25879l-.78955-.05957a1.97369,1.97369,0,0,1,2.14893-1.97949,1.89206,1.89206,0,0,1,2.09863,1.80957A1.57027,1.57027,0,0,1,5.1626,274.709a1.68672,1.68672,0,0,1,1.36914,1.7295,2.20525,2.20525,0,0,1-2.47852,2.1084A2.21745,2.21745,0,0,1,1.57471,276.33887Z"/>
              <path d="M7.84473,274.959c0-1.58886.31982-3.57812,2.21875-3.57812,1.749,0,2.25879,1.76953,2.25879,3.58789,0,1.83984-.50977,3.57813-2.19922,3.57813C8.18457,278.54688,7.84473,276.56836,7.84473,274.959Zm3.61767.00977c0-1.54883-.27978-2.80762-1.39892-2.80762-1.16944,0-1.38916,1.34864-1.38916,2.80762,0,1.41992.21972,2.79883,1.4292,2.79883C11.19287,277.76758,11.4624,276.47852,11.4624,274.96875Z"/>
            </g>
          </g>
          <line id="Line_22-2" data-name="Line 22-2" x1="20.674" y1="242.146" x2="16.638" y2="242.146" fill="none" stroke="#000"/>
          <g id="_40-2" data-name=" 40-2" style="isolation: isolate">
            <g style="isolation: isolate">
              <path d="M6.76172,240.87891v.76953H5.64258v1.65918H4.833v-1.65918H1.395v-.50977l3.50781-4.79687h.73975v4.53711Zm-1.92871,0V237.541l-2.38867,3.33789Z"/>
              <path d="M7.84473,239.81934c0-1.58887.31982-3.57813,2.21875-3.57813,1.749,0,2.25879,1.76953,2.25879,3.58789,0,1.83985-.50977,3.57813-2.19922,3.57813C8.18457,243.40723,7.84473,241.42871,7.84473,239.81934Zm3.61767.00976c0-1.54883-.27978-2.80762-1.39892-2.80762-1.16944,0-1.38916,1.34864-1.38916,2.80762,0,1.41992.21972,2.79883,1.4292,2.79883C11.19287,242.62793,11.4624,241.33887,11.4624,239.8291Z"/>
            </g>
          </g>
          <path id="Path_15-2" data-name="Path 15-2" d="M16.281,224.576h4.266V382.325" fill="none" stroke="#000"/>
        </g>
      </g>
      <path id="Path_148080" data-name="Path 148080" d="M20.67407,382.377H230.283" fill="none" stroke="#000"/>
    </g>
  </g>
</svg>
