<svg xmlns="http://www.w3.org/2000/svg" xmlns:xlink="http://www.w3.org/1999/xlink" width="900" height="119" viewBox="0 0 900 119"><defs><clipPath id="b"><rect width="900" height="119"/></clipPath></defs><g id="a" clip-path="url(#b)"><g transform="translate(0 30.765)"><text transform="translate(0.549 67.424)" font-size="10" font-family="HKGrotesk-SemiBold, HK Grotesk" font-weight="600" style="isolation:isolate"><tspan x="0" y="0">Inizio</tspan></text><text transform="translate(0.549 85.335)" font-size="10" font-family="HKGrotesk-Regular, HK Grotesk" style="isolation:isolate"><tspan x="0" y="0">Numero di caratteri del capitolo</tspan></text><text transform="translate(896.494 67.424)" font-size="10" font-family="HKGrotesk-SemiBold, HK Grotesk" font-weight="600" style="isolation:isolate"><tspan x="-19.248" y="0">Fine</tspan></text><g transform="translate(0.401 30.723)"><path d="M.417,205.819v-5.294H899.625v5.294" transform="translate(-0.417 -200.044)" fill="none" stroke="#ccc" stroke-width="0.75"/><g transform="translate(148.63)"><line y2="5.775" fill="none" stroke="#ccc" stroke-width="0.75"/></g><g transform="translate(264.27)"><line y2="5.775" fill="none" stroke="#ccc" stroke-width="0.75"/></g><g transform="translate(379.91)"><line y2="5.775" fill="none" stroke="#ccc" stroke-width="0.75"/></g><g transform="translate(495.551)"><line y2="5.775" fill="none" stroke="#ccc" stroke-width="0.75"/></g><g transform="translate(611.191)"><line y2="5.775" fill="none" stroke="#ccc" stroke-width="0.75"/></g><g transform="translate(726.832)"><line y2="5.775" fill="none" stroke="#ccc" stroke-width="0.75"/></g><g transform="translate(842.472)"><line y2="5.775" fill="none" stroke="#ccc" stroke-width="0.75"/></g></g><text transform="translate(0.548 49.825)" font-size="10" font-family="HKGrotesk-Regular, HK Grotesk" style="isolation:isolate"><tspan x="0" y="0">3.716</tspan></text><text transform="translate(146.549 44.964) rotate(-45)" font-size="10" font-family="HKGrotesk-Regular, HK Grotesk"><tspan x="-25.474" y="0">5.000</tspan></text><text transform="translate(262.996 44.964) rotate(-45)" font-size="10" font-family="HKGrotesk-Regular, HK Grotesk"><tspan x="-25.474" y="0">6.000</tspan></text><text transform="translate(378.036 45.564) rotate(-45)" font-size="10" font-family="HKGrotesk-Regular, HK Grotesk"><tspan x="-24.673" y="0">7.000</tspan></text><text transform="translate(494.238 44.964) rotate(-45)" font-size="10" font-family="HKGrotesk-Regular, HK Grotesk"><tspan x="-25.474" y="0">8.000</tspan></text><text transform="translate(609.879 44.965) rotate(-45)" font-size="10" font-family="HKGrotesk-Regular, HK Grotesk"><tspan x="-25.229" y="0">9.000</tspan></text><text transform="translate(726.45 44.806) rotate(-45)" font-size="10" font-family="HKGrotesk-Regular, HK Grotesk"><tspan x="-30.908" y="0">10.000</tspan></text><text transform="translate(841.318 44.806) rotate(-45)" font-size="10" font-family="HKGrotesk-Regular, HK Grotesk"><tspan x="-31.113" y="0">11.000</tspan></text><text transform="translate(895.943 49.825)" font-size="10" font-family="HKGrotesk-Regular, HK Grotesk" style="isolation:isolate"><tspan x="-30.952" y="0">11.494</tspan></text><g transform="translate(149.069 30.678)"><line y2="5.775" fill="none" stroke="#ccc" stroke-width="0.75"/><g transform="translate(115.64)"><line y2="5.775" fill="none" stroke="#ccc" stroke-width="0.75"/></g><g transform="translate(231.281)"><line y2="5.775" fill="none" stroke="#ccc" stroke-width="0.75"/></g><g transform="translate(346.921)"><line y2="5.775" fill="none" stroke="#ccc" stroke-width="0.75"/></g><g transform="translate(462.562)"><line y2="5.775" fill="none" stroke="#ccc" stroke-width="0.75"/></g><g transform="translate(578.202)"><line y2="5.775" fill="none" stroke="#ccc" stroke-width="0.75"/></g><g transform="translate(693.843)"><line y2="5.775" fill="none" stroke="#ccc" stroke-width="0.75"/></g></g><g transform="translate(0 0)"><path d="M0,168.107H900" transform="translate(0 -168.107)" fill="none" stroke="#ccc" stroke-width="0.75"/></g></g><g transform="translate(10.046 0.06)"><g transform="translate(85.696 0)"><rect width="25.035" height="30.705" fill="#66f"/><rect width="10.095" height="30.705" transform="translate(371.104)" fill="#66f"/><rect width="4.083" height="30.705" transform="translate(565.015)" fill="#66f"/><rect width="18.607" height="30.705" transform="translate(595.354)" fill="#66f"/><rect width="2.74" height="30.705" transform="translate(652.546)" fill="#66f"/><rect width="19.283" height="30.705" transform="translate(656.779)" fill="#66f"/><rect width="26.712" height="30.705" transform="translate(690.674)" fill="#66f"/><rect width="29.452" height="30.705" transform="translate(732.34)" fill="#66f"/><rect width="13.47" height="30.705" transform="translate(788.733)" fill="#66f"/></g><g transform="translate(0 30.705)"><rect width="7.078" height="30.678" fill="#d6d6fc"/><rect width="29.224" height="30.678" transform="translate(7.306)" fill="#d6d6fc"/><rect width="2.397" height="30.678" transform="translate(54.452)" fill="#d6d6fc"/><rect width="25.114" height="30.678" transform="translate(85.616)" fill="#d6d6fc"/><rect width="5.023" height="30.678" transform="translate(181.05)" fill="#d6d6fc"/><rect width="37.671" height="30.678" transform="translate(445.434)" fill="#d6d6fc"/><rect width="7.306" height="30.678" transform="translate(531.393)" fill="#d6d6fc"/><rect width="3.196" height="30.678" transform="translate(538.927)" fill="#d6d6fc"/><rect width="7.877" height="30.678" transform="translate(542.352)" fill="#d6d6fc"/><rect width="2.626" height="30.678" transform="translate(647.945)" fill="#d6d6fc"/><rect width="4.11" height="30.678" transform="translate(650.685)" fill="#d6d6fc"/><rect width="18.607" height="30.678" transform="translate(681.05)" fill="#d6d6fc"/><rect width="27.397" height="30.678" transform="translate(699.886)" fill="#d6d6fc"/><rect width="2.74" height="30.678" transform="translate(738.242)" fill="#d6d6fc"/><rect width="19.406" height="30.678" transform="translate(742.352)" fill="#d6d6fc"/><rect width="7.877" height="30.678" transform="translate(761.986)" fill="#d6d6fc"/><rect width="14.155" height="30.678" transform="translate(776.37)" fill="#d6d6fc"/><rect width="12.329" height="30.678" transform="translate(790.753)" fill="#d6d6fc"/><rect width="14.612" height="30.678" transform="translate(803.31)" fill="#d6d6fc"/><rect width="5.023" height="30.678" transform="translate(818.036)" fill="#d6d6fc"/><rect width="24.201" height="30.678" transform="translate(823.288)" fill="#d6d6fc"/><rect width="26.598" height="30.678" transform="translate(847.717)" fill="#d6d6fc"/><rect width="13.47" height="30.678" transform="translate(874.429)" fill="#d6d6fc"/></g></g><g transform="translate(384.722 0.06)"><g transform="translate(0 0)"><rect width="9.415" height="30.705" fill="#66f"/><rect width="3.63" height="30.705" transform="translate(36.525)" fill="#66f"/><rect width="11.797" height="30.705" transform="translate(180.469)" fill="#66f"/><rect width="33.122" height="30.705" transform="translate(202.475)" fill="#66f"/><rect width="20.871" height="30.705" transform="translate(252.214)" fill="#66f"/></g></g></g></svg>