<svg xmlns="http://www.w3.org/2000/svg" xmlns:xlink="http://www.w3.org/1999/xlink" width="500" height="576" viewBox="0 0 500 576"><defs><clipPath id="b"><rect width="500" height="576"/></clipPath></defs><g id="a" clip-path="url(#b)"><g transform="translate(-150 104)"><g transform="translate(150 -71.818)"><g transform="translate(0 0)" opacity="0.099"><g transform="translate(0 0)"><rect width="214.868" height="4.425" fill="#5151fc" stroke="#fff" stroke-width="0.22"/><rect width="214.868" height="6.933" transform="translate(0 4.428)" fill="#5151fc" stroke="#fff" stroke-width="0.22"/><rect width="214.868" height="3.459" transform="translate(0 11.365)" fill="#00c19c" stroke="#fff" stroke-width="0.22"/><rect width="214.868" height="5.9" transform="translate(0 14.827)" fill="#00c19c" stroke="#fff" stroke-width="0.22"/><rect width="214.868" height="9.005" transform="translate(0 31.753)" fill="#00ffb6" stroke="#fff" stroke-width="0.22"/><rect width="214.868" height="18.847" transform="translate(0 40.76)" fill="#00c19c" stroke="#fff" stroke-width="0.22"/><rect width="214.868" height="6.183" transform="translate(0 75.482)" fill="#5151fc" stroke="#fff" stroke-width="0.22"/><rect width="214.868" height="12.36" transform="translate(0 81.668)" fill="#5151fc" stroke="#fff" stroke-width="0.22"/><rect width="214.868" height="1.657" transform="translate(0 94.031)" fill="#5151fc" stroke="#fff" stroke-width="0.22"/><rect width="214.868" height="5.8" transform="translate(0 95.691)" fill="#5151fc" stroke="#fff" stroke-width="0.22"/><rect width="214.868" height="2.131" transform="translate(0 101.494)" fill="#00c19c" stroke="#fff" stroke-width="0.22"/><rect width="214.868" height="0.107" transform="translate(0 103.629)" fill="#5151fc" stroke="#fff" stroke-width="0.22"/><rect width="214.868" height="3.33" transform="translate(0 103.738)" fill="#5151fc" stroke="#fff" stroke-width="0.22"/><rect width="214.868" height="2.552" transform="translate(0 121.691)" fill="#00c19c" stroke="#fff" stroke-width="0.22"/><rect width="214.868" height="7.501" transform="translate(0 124.246)" fill="#00c19c" stroke="#fff" stroke-width="0.22"/><rect width="214.868" height="3.842" transform="translate(0 131.75)" fill="#5151fc" stroke="#fff" stroke-width="0.22"/><rect width="214.868" height="3.534" transform="translate(0 135.595)" fill="#00c19c" stroke="#fff" stroke-width="0.22"/><rect width="214.868" height="4.708" transform="translate(0 139.135)" fill="#5151fc" stroke="#fff" stroke-width="0.22"/><rect width="214.868" height="3.838" transform="translate(0 143.846)" fill="#00c19c" stroke="#fff" stroke-width="0.22"/><rect width="214.868" height="1.946" transform="translate(0 147.688)" fill="#5151fc" stroke="#fff" stroke-width="0.22"/><rect width="214.868" height="1.447" transform="translate(0 149.637)" fill="#5151fc" stroke="#fff" stroke-width="0.22"/><rect width="214.868" height="3.12" transform="translate(0 151.087)" fill="#5151fc" stroke="#fff" stroke-width="0.22"/><rect width="214.868" height="2.489" transform="translate(0 154.21)" fill="#5151fc" stroke="#fff" stroke-width="0.22"/><rect width="214.868" height="10.841" transform="translate(0 156.705)" fill="#00c19c" stroke="#fff" stroke-width="0.22"/><rect width="214.868" height="0.738" transform="translate(0 167.551)" fill="#5151fc" stroke="#fff" stroke-width="0.22"/><rect width="214.868" height="1.613" transform="translate(0 168.292)" fill="#5151fc" stroke="#fff" stroke-width="0.22"/><rect width="214.868" height="1.372" transform="translate(0 169.909)" fill="#00c19c" stroke="#fff" stroke-width="0.22"/><rect width="214.868" height="1.274" transform="translate(0 171.283)" fill="#5151fc" stroke="#fff" stroke-width="0.22"/><rect width="214.868" height="3.233" transform="translate(0 172.561)" fill="#00c19c" stroke="#fff" stroke-width="0.22"/><rect width="214.868" height="5.345" transform="translate(0 175.796)" fill="#009959" stroke="#fff" stroke-width="0.22"/><rect width="214.868" height="4.278" transform="translate(0 181.145)" fill="#8131f4" stroke="#fff" stroke-width="0.22"/><rect width="214.868" height="4.576" transform="translate(0 185.429)" fill="#00c19c" stroke="#fff" stroke-width="0.22"/><rect width="214.868" height="0.493" transform="translate(0 190.008)" fill="#009959" stroke="#fff" stroke-width="0.22"/><rect width="214.868" height="2.806" transform="translate(0 190.504)" fill="#00c19c" stroke="#fff" stroke-width="0.22"/><rect width="214.868" height="3.989" transform="translate(0 193.313)" fill="#5151fc" stroke="#fff" stroke-width="0.22"/><rect width="214.868" height="2.068" transform="translate(0 197.308)" fill="#5151fc" stroke="#fff" stroke-width="0.22"/><rect width="214.868" height="4.121" transform="translate(0 199.38)" fill="#5151fc" stroke="#fff" stroke-width="0.22"/><rect width="214.868" height="3.113" transform="translate(0 211.45)" fill="#5151fc" stroke="#fff" stroke-width="0.22"/><rect width="214.868" height="6.142" transform="translate(0 214.567)" fill="#8131f4" stroke="#fff" stroke-width="0.22"/><rect width="214.868" height="2.225" transform="translate(0 220.712)" fill="#00c19c" stroke="#fff" stroke-width="0.22"/><rect width="214.868" height="0.854" transform="translate(0 222.941)" fill="#00c19c" stroke="#fff" stroke-width="0.22"/><rect width="214.868" height="5.778" transform="translate(0 279.956)" fill="#5151fc" stroke="#fff" stroke-width="0.22"/><rect width="214.868" height="1.786" transform="translate(0 285.737)" fill="#5151fc" stroke="#fff" stroke-width="0.22"/><rect width="214.868" height="7.733" transform="translate(0 287.526)" fill="#00c19c" stroke="#fff" stroke-width="0.22"/><rect width="214.868" height="2.266" transform="translate(0 295.262)" fill="#5151fc" stroke="#fff" stroke-width="0.22"/><rect width="214.868" height="1.5" transform="translate(0 297.531)" fill="#00c19c" stroke="#fff" stroke-width="0.22"/><rect width="214.868" height="4.909" transform="translate(0 299.035)" fill="#8131f4" stroke="#fff" stroke-width="0.22"/><rect width="214.868" height="4.246" transform="translate(0 303.947)" fill="#009959" stroke="#fff" stroke-width="0.22"/><rect width="214.868" height="1.971" transform="translate(0 308.196)" fill="#5151fc" stroke="#fff" stroke-width="0.22"/><rect width="214.868" height="3.252" transform="translate(0 310.17)" fill="#5151fc" stroke="#fff" stroke-width="0.22"/><rect width="214.868" height="4.68" transform="translate(0 313.425)" fill="#009959" stroke="#fff" stroke-width="0.22"/><rect width="214.868" height="6.958" transform="translate(0 318.177)" fill="#009959" stroke="#fff" stroke-width="0.22"/><rect width="214.868" height="7.941" transform="translate(0 325.138)" fill="#00c19c" stroke="#fff" stroke-width="0.22"/><rect width="214.868" height="4.014" transform="translate(0 333.082)" fill="#009959" stroke="#fff" stroke-width="0.22"/><rect width="214.868" height="4.902" transform="translate(0 337.099)" fill="#5151fc" stroke="#fff" stroke-width="0.22"/><rect width="214.868" height="0.703" transform="translate(0 342.005)" fill="#5151fc" stroke="#fff" stroke-width="0.22"/><rect width="214.868" height="5.047" transform="translate(0 342.711)" fill="#8131f4" stroke="#fff" stroke-width="0.22"/><rect width="214.868" height="15.1" transform="translate(0 347.761)" fill="#00c19c" stroke="#fff" stroke-width="0.22"/><rect width="214.868" height="1.698" transform="translate(0 362.863)" fill="#5151fc" stroke="#fff" stroke-width="0.22"/><rect width="214.868" height="1.061" transform="translate(0 364.565)" fill="#00c19c" stroke="#fff" stroke-width="0.22"/><rect width="214.868" height="2.457" transform="translate(0 365.629)" fill="#009959" stroke="#fff" stroke-width="0.22"/><rect width="214.868" height="8.697" transform="translate(0 368.089)" fill="#00c19c" stroke="#fff" stroke-width="0.22"/><rect width="214.868" height="6.318" transform="translate(0 390.809)" fill="#009959" stroke="#fff" stroke-width="0.22"/><rect width="214.868" height="2.935" transform="translate(0 397.13)" fill="#00c19c" stroke="#fff" stroke-width="0.22"/><rect width="214.868" height="0.854" transform="translate(0 428.447)" fill="#009959" stroke="#fff" stroke-width="0.22"/><rect width="214.868" height="1.852" transform="translate(0 429.303)" fill="#5151fc" stroke="#fff" stroke-width="0.22"/><rect width="214.868" height="7.445" transform="translate(0 431.158)" fill="#00c19c" stroke="#fff" stroke-width="0.22"/><rect width="214.868" height="2.021" transform="translate(0 438.606)" fill="#00c19c" stroke="#fff" stroke-width="0.22"/><rect width="214.868" height="3.186" transform="translate(0 440.63)" fill="#00c19c" stroke="#fff" stroke-width="0.22"/><rect width="214.868" height="4.403" transform="translate(0 443.819)" fill="#8ae297" stroke="#fff" stroke-width="0.22"/><rect width="214.868" height="3.176" transform="translate(0 448.226)" fill="#00c19c" stroke="#fff" stroke-width="0.22"/><rect width="214.868" height="2.734" transform="translate(0 469.411)" fill="#00c19c" stroke="#fff" stroke-width="0.22"/><rect width="214.868" height="2.09" transform="translate(0 485.989)" fill="#5151fc" stroke="#fff" stroke-width="0.22"/><rect width="214.868" height="1.626" transform="translate(0 488.082)" fill="#5151fc" stroke="#fff" stroke-width="0.22"/><rect width="214.868" height="3.694" transform="translate(0 489.711)" fill="#00c19c" stroke="#fff" stroke-width="0.22"/><rect width="214.868" height="0.92" transform="translate(0 508.028)" fill="#5151fc" stroke="#fff" stroke-width="0.22"/><rect width="214.868" height="7.005" transform="translate(0 508.95)" fill="#00c19c" stroke="#fff" stroke-width="0.22"/><rect width="214.868" height="1.491" transform="translate(0 515.959)" fill="#5151fc" stroke="#fff" stroke-width="0.22"/><rect width="214.868" height="4.074" transform="translate(0 517.453)" fill="#5151fc" stroke="#fff" stroke-width="0.22"/><rect width="214.868" height="4.03" transform="translate(0 521.53)" fill="#5151fc" stroke="#fff" stroke-width="0.22"/><rect width="214.868" height="2.978" transform="translate(0 525.563)" fill="#00c19c" stroke="#fff" stroke-width="0.22"/><rect width="214.868" height="3.468" transform="translate(0 528.544)" fill="#5151fc" stroke="#fff" stroke-width="0.22"/><rect width="214.868" height="3.088" transform="translate(0 532.016)" fill="#00c19c" stroke="#fff" stroke-width="0.22"/><rect width="214.868" height="8.515" transform="translate(0 535.107)" fill="#009959" stroke="#fff" stroke-width="0.22"/></g></g><g transform="translate(215.132 20.641)"><g transform="translate(0 0)"><rect width="214.868" height="5.135" fill="#00c19c" stroke="#fff" stroke-width="0.22"/><rect width="214.868" height="5.879" transform="translate(0 5.138)" fill="#8131f4" stroke="#fff" stroke-width="0.22"/><rect width="214.868" height="5.238" transform="translate(0 38.88)" fill="#00c19c" stroke="#fff" stroke-width="0.22"/><rect width="214.868" height="2.238" transform="translate(0 44.122)" fill="#8131f4" stroke="#fff" stroke-width="0.22"/><rect width="214.868" height="3.735" transform="translate(0 47.841)" fill="#5151fc" stroke="#fff" stroke-width="0.22"/><rect width="214.868" height="1.648" transform="translate(0 51.579)" fill="#5151fc" stroke="#fff" stroke-width="0.22"/><rect width="214.868" height="1.516" transform="translate(0 53.23)" fill="#8131f4" stroke="#fff" stroke-width="0.22"/><rect width="214.868" height="8.151" transform="translate(0 86.345)" fill="#00c19c" stroke="#fff" stroke-width="0.22"/><rect width="214.868" height="0.882" transform="translate(0 94.499)" fill="#009959" stroke="#fff" stroke-width="0.22"/><rect width="214.868" height="2.288" transform="translate(0 95.384)" fill="#5151fc" stroke="#fff" stroke-width="0.22"/><rect width="214.868" height="1.406" transform="translate(0 97.675)" fill="#5151fc" stroke="#fff" stroke-width="0.22"/><rect width="214.868" height="1.871" transform="translate(0 99.084)" fill="#00c19c" stroke="#fff" stroke-width="0.22"/><rect width="214.868" height="3.766" transform="translate(0 182.773)" fill="#8131f4" stroke="#fff" stroke-width="0.22"/><rect width="214.868" height="4.171" transform="translate(0 186.543)" fill="#8ae297" stroke="#fff" stroke-width="0.22"/><rect width="214.868" height="6.682" transform="translate(0 203.07)" fill="#8ae297" stroke="#fff" stroke-width="0.22"/><rect width="214.868" height="7.482" transform="translate(0 209.756)" fill="#00c19c" stroke="#fff" stroke-width="0.22"/><rect width="214.868" height="2.916" transform="translate(0 217.241)" fill="#8ae297" stroke="#fff" stroke-width="0.22"/><rect width="214.868" height="5.505" transform="translate(0 220.16)" fill="#5151fc" stroke="#fff" stroke-width="0.22"/><rect width="214.868" height="3.016" transform="translate(0 225.671)" fill="#5151fc" stroke="#fff" stroke-width="0.22"/><rect width="214.868" height="2.404" transform="translate(0 228.69)" fill="#00c19c" stroke="#fff" stroke-width="0.22"/><rect width="214.868" height="1.805" transform="translate(0 231.098)" fill="#5151fc" stroke="#fff" stroke-width="0.22"/><rect width="214.868" height="0.524" transform="translate(0 232.906)" fill="#00c19c" stroke="#fff" stroke-width="0.22"/><rect width="214.868" height="3.999" transform="translate(0 233.436)" fill="#00c19c" stroke="#fff" stroke-width="0.22"/><rect width="214.868" height="3.289" transform="translate(0 237.438)" fill="#5151fc" stroke="#fff" stroke-width="0.22"/><rect width="214.868" height="2.166" transform="translate(0 240.73)" fill="#5151fc" stroke="#fff" stroke-width="0.22"/><rect width="214.868" height="1.739" transform="translate(0 242.899)" fill="#00c19c" stroke="#fff" stroke-width="0.22"/><rect width="214.868" height="9.234" transform="translate(0 244.644)" fill="#8ae297" stroke="#fff" stroke-width="0.22"/><rect width="214.868" height="1.017" transform="translate(0 253.88)" fill="#5151fc" stroke="#fff" stroke-width="0.22"/><rect width="214.868" height="2.57" transform="translate(0 254.9)" fill="#00c19c" stroke="#fff" stroke-width="0.22"/><rect width="214.868" height="1.745" transform="translate(0 257.474)" fill="#00c19c" stroke="#fff" stroke-width="0.22"/><rect width="214.868" height="1.541" transform="translate(0 356.059)" fill="#5151fc" stroke="#fff" stroke-width="0.22"/><rect width="214.868" height="4.921" transform="translate(0 357.603)" fill="#009959" stroke="#fff" stroke-width="0.22"/><rect width="214.868" height="7.548" transform="translate(0 362.528)" fill="#00c19c" stroke="#fff" stroke-width="0.22"/><rect width="214.868" height="3.28" transform="translate(0 381.095)" fill="#5151fc" stroke="#fff" stroke-width="0.22"/><rect width="214.868" height="15.909" transform="translate(0 384.378)" fill="#009959" stroke="#fff" stroke-width="0.22"/><rect width="214.868" height="7.423" transform="translate(0 400.291)" fill="#00c19c" stroke="#fff" stroke-width="0.22"/><rect width="214.868" height="2.053" transform="translate(0 433.054)" fill="#00c19c" stroke="#fff" stroke-width="0.22"/><rect width="214.868" height="2.184" transform="translate(0 437.457)" fill="#00c19c" stroke="#fff" stroke-width="0.22"/><rect width="214.868" height="3.336" transform="translate(0 444.434)" fill="#00c19c" stroke="#fff" stroke-width="0.22"/><rect width="214.868" height="5.295" transform="translate(0 453.386)" fill="#5151fc" stroke="#fff" stroke-width="0.22"/><rect width="214.868" height="6.572" transform="translate(0 458.683)" fill="#00c19c" stroke="#fff" stroke-width="0.22"/><rect width="214.868" height="5.929" transform="translate(0 478.315)" fill="#5151fc" stroke="#fff" stroke-width="0.22"/><rect width="214.868" height="2.495" transform="translate(0 484.247)" fill="#8ae297" stroke="#fff" stroke-width="0.22"/></g></g></g><rect width="214.868" height="11.016" transform="translate(150 -51.088)" fill="#5151fc" stroke="#fff" stroke-width="0.22"/><rect width="214.868" height="7.479" transform="translate(150 -12.208)" fill="#5151fc" stroke="#fff" stroke-width="0.22"/><rect width="214.868" height="8.38" transform="translate(150 -4.722)" fill="#5151fc" stroke="#fff" stroke-width="0.22"/><rect width="214.868" height="14.61" transform="translate(150 35.257)" fill="#5151fc" stroke="#fff" stroke-width="0.22"/><rect width="214.868" height="7.941" transform="translate(150 131.686)" fill="#5151fc" stroke="#fff" stroke-width="0.22"/><rect width="214.868" height="22.594" transform="translate(150 151.983)" fill="#5151fc" stroke="#fff" stroke-width="0.22"/><rect width="214.868" height="18.966" transform="translate(150 174.583)" fill="#5151fc" stroke="#fff" stroke-width="0.22"/><rect width="214.868" height="14.575" transform="translate(150 193.556)" fill="#5151fc" stroke="#fff" stroke-width="0.22"/><rect width="214.868" height="14.017" transform="translate(150 304.971)" fill="#5151fc" stroke="#fff" stroke-width="0.22"/><rect width="214.868" height="28.376" transform="translate(150 328.25)" fill="#5151fc" stroke="#fff" stroke-width="0.22"/><rect width="214.868" height="4.432" transform="translate(150 379.587)" fill="#5151fc" stroke="#fff" stroke-width="0.22"/><rect width="214.868" height="4.532" transform="translate(150 384.022)" fill="#5151fc" stroke="#fff" stroke-width="0.22"/><rect width="214.868" height="9.033" transform="translate(150 388.557)" fill="#5151fc" stroke="#fff" stroke-width="0.22"/><rect width="214.868" height="13.838" transform="translate(150 400.33)" fill="#5151fc" stroke="#fff" stroke-width="0.22"/><rect width="214.868" height="14.616" transform="translate(150 421.59)" fill="#5151fc" stroke="#fff" stroke-width="0.22"/><line y2="543.929" transform="translate(364.962 -71.966)" fill="none" stroke="#000" stroke-width="1"/><text transform="translate(150 -104)" font-size="12" font-family="HKGrotesk-Medium, HK Grotesk" font-weight="500"><tspan x="0" y="11">La nuvola di smog e La formica argentina</tspan></text><path d="M5978.8,2813.971v51.44" transform="translate(-5389 -2509)" fill="none" stroke="#000" stroke-width="1"/><path d="M5978.8,2813.971v15.619" transform="translate(-5389 -2433)" fill="none" stroke="#000" stroke-width="1"/><path d="M5978.8,2813.971v34.737" transform="translate(-5389 -2412.633)" fill="none" stroke="#000" stroke-width="1"/><text transform="translate(600 337)" font-size="12" font-family="HKGrotesk-Regular, HK Grotesk"><tspan x="0" y="0">serie</tspan></text><text transform="translate(600 393)" font-size="12" font-family="HKGrotesk-Regular, HK Grotesk"><tspan x="0" y="0">serie</tspan></text><text transform="translate(600 422)" font-size="12" font-family="HKGrotesk-Regular, HK Grotesk"><tspan x="0" y="0">serie</tspan></text><text transform="translate(639 337)" fill="#4500ff" font-size="10" font-family="HKGrotesk-Regular, HK Grotesk"><tspan x="0" y="0">1</tspan></text><text transform="translate(639 393)" fill="#4500ff" font-size="10" font-family="HKGrotesk-Regular, HK Grotesk"><tspan x="0" y="0">2</tspan></text><text transform="translate(639 423)" fill="#4500ff" font-size="10" font-family="HKGrotesk-Regular, HK Grotesk"><tspan x="0" y="0">3</tspan></text><g transform="translate(634 325)" fill="none" stroke="#5151fc" stroke-width="1"><circle cx="8" cy="8" r="8" stroke="none"/><circle cx="8" cy="8" r="7.5" fill="none"/></g><g transform="translate(634 381)" fill="none" stroke="#5151fc" stroke-width="1"><circle cx="8" cy="8" r="8" stroke="none"/><circle cx="8" cy="8" r="7.5" fill="none"/></g><g transform="translate(634 411)" fill="none" stroke="#5151fc" stroke-width="1"><circle cx="8" cy="8" r="8" stroke="none"/><circle cx="8" cy="8" r="7.5" fill="none"/></g></g></g></svg>