<svg xmlns="http://www.w3.org/2000/svg" xmlns:xlink="http://www.w3.org/1999/xlink" width="900" height="141" viewBox="0 0 900 141"><defs><clipPath id="b"><rect width="900" height="141"/></clipPath></defs><g id="a" clip-path="url(#b)"><g transform="translate(8.621 181.858)"><g transform="translate(-8.004 -181.858)"><path d="M893.883-48.846h.5v.573h-.567v-.286h.283v.286h-.218Zm-305.148,0H893.316v.573H588.735Zm-1.7,0h.567v.573h-.567Zm-1.7,0h.567v.573h-.567Zm-1.7,0h.567v.573h-.567Zm-1.7,0h.567v.573h-.567Zm-1.7,0h.567v.573h-.567Zm-1.7,0h.567v.573h-.567Zm-1.7,0h.567v.573h-.567Zm-1.7,0h.567v.573h-.567Zm-1.7,0h.567v.573h-.567Zm-1.7,0h.567v.573h-.567Zm-1.7,0h.567v.573h-.567Zm-1.7,0h.567v.573h-.567Zm-1.7,0h.567v.573h-.567Zm-1.7,0h.567v.573h-.567Zm-1.7,0h.567v.573h-.567Zm-1.7,0h.567v.573h-.567Zm-1.7,0h.567v.573h-.567Zm-1.7,0h.567v.573h-.567Zm-1.7,0h.567v.573h-.567Zm-1.7,0h.567v.573h-.567Zm-1.7,0h.567v.573h-.567Zm-1.7,0h.567v.573h-.567Zm-1.7,0h.567v.573h-.567Zm-143.272,0H548.48v.573H406.342Zm-1.7,0h.567v.573h-.567Zm-1.7,0h.568v.573h-.568Zm-1.7,0h.567v.573h-.567Zm-1.7,0h.568v.573h-.568Zm-1.7,0h.567v.573h-.567Zm-1.7,0h.568v.573h-.568Zm-1.7,0H395v.573h-.567Zm-1.7,0h.568v.573h-.568Zm-1.7,0h.567v.573h-.567Zm-1.7,0h.568v.573h-.568Zm-1.7,0h.567v.573h-.567Zm-1.7,0h.568v.573h-.568Zm-1.7,0h.567v.573h-.567Zm-1.7,0h.568v.573h-.568Zm-1.7,0h.567v.573h-.567Zm-1.7,0h.568v.573h-.568Zm-1.7,0h.567v.573h-.567Zm-1.7,0h.568v.573h-.568Zm-1.7,0h.567v.573h-.567Zm-1.7,0h.568v.573h-.568Zm-1.7,0h.567v.573h-.567Zm-1.7,0h.568v.573h-.568Zm-1.7,0h.567v.573h-.567Zm-305.714,0H366.088v.573H61.508Zm-1.7,0h.568v.573h-.568Zm-1.7,0h.567v.573h-.567Zm-1.7,0h.568v.573H56.4Zm-1.7,0h.567v.573H54.7Zm-1.7,0h.568v.573H53Zm-1.7,0h.567v.573H51.3Zm-1.7,0h.568v.573H49.6Zm-1.7,0h.567v.573H47.9Zm-1.7,0h.568v.573H46.2Zm-1.7,0h.567v.573H44.5Zm-1.7,0h.568v.573H42.8Zm-1.7,0h.567v.573H41.1Zm-1.7,0h.568v.573H39.4Zm-1.7,0h.567v.573H37.7Zm-1.7,0h.568v.573h-.568Zm-1.7,0h.567v.573h-.567Zm-1.7,0h.568v.573h-.568Zm-1.7,0h.567v.573h-.567Zm-1.7,0h.568v.573H29.19Zm-1.7,0h.567v.573H27.49Zm-1.7,0h.568v.573h-.568Zm-1.7,0h.567v.573h-.567Zm-1.7,0h.568v.573h-.568Zm-1.7.573v-.573h.567v.573h-.284v-.286h.284v.286Z" transform="translate(5.998 166.846)"/><line y2="3.436" transform="translate(26.971 118.441)" fill="none" stroke="#000" stroke-width="0.5"/><line y2="3.436" transform="translate(67.993 118.441)" fill="none" stroke="#000" stroke-width="0.5"/><line y2="3.436" transform="translate(109.015 118.441)" fill="none" stroke="#000" stroke-width="0.5"/><line y2="3.436" transform="translate(150.037 118.441)" fill="none" stroke="#000" stroke-width="0.5"/><line y2="3.436" transform="translate(189.199 118.441)" fill="none" stroke="#000" stroke-width="0.5"/><line y2="3.436" transform="translate(229.822 118.441)" fill="none" stroke="#000" stroke-width="0.5"/><line y2="3.436" transform="translate(270.445 118.441)" fill="none" stroke="#000" stroke-width="0.5"/><line y2="3.436" transform="translate(311.068 118.441)" fill="none" stroke="#000" stroke-width="0.5"/><line y2="3.436" transform="translate(351.691 118.441)" fill="none" stroke="#000" stroke-width="0.5"/><line y2="3.436" transform="translate(392.314 118.441)" fill="none" stroke="#000" stroke-width="0.5"/><line y2="3.436" transform="translate(432.936 118.441)" fill="none" stroke="#000" stroke-width="0.5"/><line y2="3.436" transform="translate(473.559 118.441)" fill="none" stroke="#000" stroke-width="0.5"/><line y2="3.436" transform="translate(514.182 118.441)" fill="none" stroke="#000" stroke-width="0.5"/><line y2="3.436" transform="translate(554.805 118.441)" fill="none" stroke="#000" stroke-width="0.5"/><line y2="3.436" transform="translate(595.428 118.441)" fill="none" stroke="#000" stroke-width="0.5"/><line y2="3.436" transform="translate(636.051 118.441)" fill="none" stroke="#000" stroke-width="0.5"/><line y2="3.436" transform="translate(676.673 118.441)" fill="none" stroke="#000" stroke-width="0.5"/><line y2="3.436" transform="translate(717.296 118.441)" fill="none" stroke="#000" stroke-width="0.5"/><line y2="3.436" transform="translate(756.519 118.441)" fill="none" stroke="#000" stroke-width="0.5"/><line y2="3.436" transform="translate(797.541 118.441)" fill="none" stroke="#000" stroke-width="0.5"/><line y2="3.436" transform="translate(838.563 118.441)" fill="none" stroke="#000" stroke-width="0.5"/><line y2="3.436" transform="translate(879.585 118.441)" fill="none" stroke="#000" stroke-width="0.5"/><g transform="translate(15.6 125.376)"><text transform="translate(0 10)" font-size="10" font-family="HKGrotesk-Regular, HK Grotesk"><tspan x="0" y="0">1942</tspan></text><text transform="translate(41.022 10)" font-size="10" font-family="HKGrotesk-Regular, HK Grotesk"><tspan x="0" y="0">1944</tspan></text><text transform="translate(82.044 10)" font-size="10" font-family="HKGrotesk-Regular, HK Grotesk"><tspan x="0" y="0">1946</tspan></text><text transform="translate(123.067 10)" font-size="10" font-family="HKGrotesk-Regular, HK Grotesk"><tspan x="0" y="0">1948</tspan></text><text transform="translate(162.403 10)" font-size="10" font-family="HKGrotesk-Regular, HK Grotesk"><tspan x="0" y="0">1950</tspan></text><text transform="translate(203.003 10)" font-size="10" font-family="HKGrotesk-Regular, HK Grotesk"><tspan x="0" y="0">1952</tspan></text><text transform="translate(243.604 10)" font-size="10" font-family="HKGrotesk-Regular, HK Grotesk"><tspan x="0" y="0">1954</tspan></text><text transform="translate(284.204 10)" font-size="10" font-family="HKGrotesk-Regular, HK Grotesk"><tspan x="0" y="0">1956</tspan></text><text transform="translate(324.806 10)" font-size="10" font-family="HKGrotesk-Regular, HK Grotesk"><tspan x="0" y="0">1958</tspan></text><text transform="translate(365.406 10)" font-size="10" font-family="HKGrotesk-Regular, HK Grotesk"><tspan x="0" y="0">1960</tspan></text><text transform="translate(406.007 10)" font-size="10" font-family="HKGrotesk-Regular, HK Grotesk"><tspan x="0" y="0">1962</tspan></text><text transform="translate(446.608 10)" font-size="10" font-family="HKGrotesk-Regular, HK Grotesk"><tspan x="0" y="0">1964</tspan></text><text transform="translate(487.208 10)" font-size="10" font-family="HKGrotesk-Regular, HK Grotesk"><tspan x="0" y="0">1966</tspan></text><text transform="translate(527.809 10)" font-size="10" font-family="HKGrotesk-Regular, HK Grotesk"><tspan x="0" y="0">1968</tspan></text><text transform="translate(568.409 10)" font-size="10" font-family="HKGrotesk-Regular, HK Grotesk"><tspan x="0" y="0">1970</tspan></text><text transform="translate(609.01 10)" font-size="10" font-family="HKGrotesk-Regular, HK Grotesk"><tspan x="0" y="0">1972</tspan></text><text transform="translate(649.611 10)" font-size="10" font-family="HKGrotesk-Regular, HK Grotesk"><tspan x="0" y="0">1974</tspan></text><text transform="translate(690.211 10)" font-size="10" font-family="HKGrotesk-Regular, HK Grotesk"><tspan x="0" y="0">1976</tspan></text><text transform="translate(729.548 10)" font-size="10" font-family="HKGrotesk-Regular, HK Grotesk"><tspan x="0" y="0">1978</tspan></text><text transform="translate(770.57 10)" font-size="10" font-family="HKGrotesk-Regular, HK Grotesk"><tspan x="0" y="0">1980</tspan></text><text transform="translate(811.592 10)" font-size="10" font-family="HKGrotesk-Regular, HK Grotesk"><tspan x="0" y="0">1982</tspan></text><text transform="translate(852.614 10)" font-size="10" font-family="HKGrotesk-Regular, HK Grotesk"><tspan x="0" y="0">1984</tspan></text></g><path d="M16.827-58.388H20.55v-80.18H16.827" transform="translate(6.421 177.116)" fill="none" stroke="#000" stroke-width="0.5"/><line x1="3.436" transform="translate(23.248 118.728)" fill="none" stroke="#000" stroke-width="0.5"/><text transform="translate(0.383 120.385)" font-size="10" font-family="HKGrotesk-Regular, HK Grotesk"><tspan x="0" y="0">0.00</tspan></text><line x1="3.436" transform="translate(23.248 107.274)" fill="none" stroke="#000" stroke-width="0.5"/><line x1="3.436" transform="translate(23.248 95.819)" fill="none" stroke="#000" stroke-width="0.5"/><text transform="translate(0.383 97.476)" font-size="10" font-family="HKGrotesk-Regular, HK Grotesk"><tspan x="0" y="0">0.10</tspan></text><line x1="3.436" transform="translate(23.248 84.365)" fill="none" stroke="#000" stroke-width="0.5"/><line x1="3.436" transform="translate(23.248 72.911)" fill="none" stroke="#000" stroke-width="0.5"/><text transform="translate(0.383 74.568)" font-size="10" font-family="HKGrotesk-Regular, HK Grotesk"><tspan x="0" y="0">0.20</tspan></text><line x1="3.436" transform="translate(23.248 61.457)" fill="none" stroke="#000" stroke-width="0.5"/><line x1="3.436" transform="translate(23.248 50.002)" fill="none" stroke="#000" stroke-width="0.5"/><text transform="translate(0.383 51.659)" font-size="10" font-family="HKGrotesk-Regular, HK Grotesk"><tspan x="0" y="0">0.30</tspan></text><line x1="3.436" transform="translate(23.248 38.548)" fill="none" stroke="#000" stroke-width="0.5"/><g transform="translate(0)"><g transform="translate(2)"><text transform="translate(23.799 12)" font-size="10" font-family="HKGrotesk-Regular, HK Grotesk" style="isolation:isolate"><tspan x="0" y="0">Proposizioni</tspan></text><path d="M8.631-180.034h9.882a5.28,5.28,0,0,1,5.559,5h0a5.28,5.28,0,0,1-5.559,5H8.631a5.28,5.28,0,0,1-5.559-5h0A5.28,5.28,0,0,1,8.631-180.034Z" transform="translate(-3.072 184.034)" fill="#5151fc"/><text transform="translate(120.053 12)" font-size="10" font-family="HKGrotesk-Regular, HK Grotesk" style="isolation:isolate"><tspan x="0" y="0">Sintagmi</tspan></text><path d="M64.631-180.034h9.882a5.28,5.28,0,0,1,5.559,5h0a5.28,5.28,0,0,1-5.559,5H64.631a5.28,5.28,0,0,1-5.559-5h0A5.28,5.28,0,0,1,64.631-180.034Z" transform="translate(34.793 184.034)" fill="#f7a612"/></g></g></g><g transform="translate(13.604 -161.136)"><text transform="translate(0 10)" font-size="10" font-family="HKGrotesk-Italic, HK Grotesk" font-style="italic"><tspan x="0" y="0">% tipo di elenchi</tspan></text></g></g><g transform="translate(6.314 -9.521)"><g transform="translate(20.686 56.521)"><path d="M20.686,131.255h40.6c10.151,0,10.151-51.271,20.3-51.271s10.151,44.027,20.3,44.027,10.152,3.635,20.3,3.635,10.151-4.474,20.3-4.474,10.151,1.42,20.3,1.42,10.151.884,20.3.884,10.151-18.589,20.3-18.589,10.152,15.928,20.3,15.928,10.151-.377,20.3-.377,10.151,1.278,20.3,1.278,10.151,2.065,20.3,2.065,10.151,5.474,20.3,5.474,10.151-5.39,20.3-5.39,10.151-7.35,20.3-7.35,10.151,2.542,20.3,2.542,10.152,10.2,20.3,10.2h20.3c10.151,0,10.151-8.772,20.3-8.772s10.151.8,20.3.8,10.151,3.032,20.3,3.032,10.152.063,20.3.063,10.151-2.735,20.3-2.735,10.151.444,20.3.444,10.151,1.325,20.3,1.325,10.151,3.157,20.3,3.157,10.151,2.687,20.3,2.687,10.151-11.068,20.3-11.068,10.151-.491,20.3-.491,10.152-3.131,20.3-3.131,10.151,8.626,20.3,8.626,10.151-8.151,20.3-8.151,10.151,9.508,20.3,9.508,10.151-2.31,20.3-2.31,10.152,4.158,20.3,4.158,10.151-8.249,20.3-8.249,10.151,3.806,20.3,3.806,10.151,2.374,20.3,2.374,10.151-2.685,20.3-2.685,10.152-1.961,20.3-1.961,10.151,3.022,20.3,3.022,10.151,6.551,20.3,6.551h-873Z" transform="translate(-20.686 -59.304)" fill="#5151fc"/><path d="M20.686,131.255h40.6c10.151,0,10.151-51.271,20.3-51.271s10.151,44.027,20.3,44.027,10.152,3.635,20.3,3.635,10.151-4.474,20.3-4.474,10.151,1.42,20.3,1.42,10.151.884,20.3.884,10.151-18.589,20.3-18.589,10.152,15.928,20.3,15.928,10.151-.377,20.3-.377,10.151,1.278,20.3,1.278,10.151,2.065,20.3,2.065,10.151,5.474,20.3,5.474,10.151-5.39,20.3-5.39,10.151-7.35,20.3-7.35,10.151,2.542,20.3,2.542,10.152,10.2,20.3,10.2h20.3c10.151,0,10.151-8.772,20.3-8.772s10.151.8,20.3.8,10.151,3.032,20.3,3.032,10.152.063,20.3.063,10.151-2.735,20.3-2.735,10.151.444,20.3.444,10.151,1.325,20.3,1.325,10.151,3.157,20.3,3.157,10.151,2.687,20.3,2.687,10.151-11.068,20.3-11.068,10.151-.491,20.3-.491,10.152-3.131,20.3-3.131,10.151,8.626,20.3,8.626,10.151-8.151,20.3-8.151,10.151,9.508,20.3,9.508,10.151-2.31,20.3-2.31,10.152,4.158,20.3,4.158,10.151-8.249,20.3-8.249,10.151,3.806,20.3,3.806,10.151,2.374,20.3,2.374,10.151-2.685,20.3-2.685,10.152-1.961,20.3-1.961,10.151,3.022,20.3,3.022,10.151,6.551,20.3,6.551h-873Z" transform="translate(-20.686 -59.304)" fill="none" stroke="#000" stroke-width="0.322" opacity="0.702"/><path d="M20.686,128.472c30.453-14.723,30.453,0,40.6,0s10.151-71.951,20.3-71.951,10.151,58.3,20.3,58.3,10.152,5.792,20.3,5.792,10.151-4.548,20.3-4.548,10.151-.658,20.3-.658,10.151,4.507,20.3,4.507,10.151-22.146,20.3-22.146,10.152,18.354,20.3,18.354,10.151-1.286,20.3-1.286,10.151,2.559,20.3,2.559,10.151-1.363,20.3-1.363,10.151-4.114,20.3-4.114,10.151,3.133,20.3,3.133,10.151-8.719,20.3-8.719,10.151,1.185,20.3,1.185,10.152,20.955,20.3,20.955h20.3c10.151,0,10.151-26.83,20.3-26.83s10.151,11.433,20.3,11.433,10.151,1.215,20.3,1.215,10.152-3.429,20.3-3.429,10.151-8.541,20.3-8.541,10.151,13.311,20.3,13.311S538.4,114,548.546,114s10.151,5.1,20.3,5.1,10.151,9.366,20.3,9.366,10.151-22.834,20.3-22.834,10.151-5.463,20.3-5.463,10.152,4.575,20.3,4.575,10.151,12.7,20.3,12.7,10.151-5.991,20.3-5.991,10.151,1.894,20.3,1.894,10.151-2.707,20.3-2.707,10.152,2.018,20.3,2.018,10.151-2.694,20.3-2.694,10.151,5.668,20.3,5.668,10.151-2.076,20.3-2.076,10.151-.955,20.3-.955,10.152-5.945,20.3-5.945,10.151,4.548,20.3,4.548,10.151,17.257,20.3,17.257c-30.454-9.518-30.454-13.646-40.6-13.646s-10.151.3-20.3.3-10.151,2.526-20.3,2.526-10.151,3.15-20.3,3.15-10.152-5.882-20.3-5.882-10.151,2.72-20.3,2.72-10.151-4.567-20.3-4.567-10.151,7.333-20.3,7.333-10.151-7.651-20.3-7.651-10.152,8.112-20.3,8.112-10.151-11.171-20.3-11.171-10.151-.732-20.3-.732-10.151,6-20.3,6-10.151,13.5-20.3,13.5-10.152-6.337-20.3-6.337-10.151-.606-20.3-.606-10.151-2.469-20.3-2.469-10.152.056-20.3.056-10.151-3.687-20.3-3.687-10.151,6.681-20.3,6.681-10.151-5.094-20.3-5.094-10.151-4.951-20.3-4.951-10.152,16.406-20.3,16.406h-20.3c-10.151,0-10.151-15.38-20.3-15.38s-10.151.765-20.3.765-10.151,5.108-20.3,5.108-10.152,9.508-20.3,9.508-10.151-5.9-20.3-5.9-10.151-2.718-20.3-2.718-10.152-2.972-20.3-2.972-10.151,1.7-20.3,1.7-10.151-16.278-20.3-16.278-10.151,18.86-20.3,18.86-10.151-1.315-20.3-1.315-10.152-.52-20.3-.52-10.151,2.847-20.3,2.847-10.151-4.428-20.3-4.428S91.744,71.74,81.593,71.74s-10.151,56.732-20.3,56.732-10.152-2.008-20.3-2.008S30.837,128.472,20.686,128.472Z" transform="translate(-20.686 -56.521)" fill="orange"/><path d="M20.686,128.472c30.453-14.723,30.453,0,40.6,0s10.151-71.951,20.3-71.951,10.151,58.3,20.3,58.3,10.152,5.792,20.3,5.792,10.151-4.548,20.3-4.548,10.151-.658,20.3-.658,10.151,4.507,20.3,4.507,10.151-22.146,20.3-22.146,10.152,18.354,20.3,18.354,10.151-1.286,20.3-1.286,10.151,2.559,20.3,2.559,10.151-1.363,20.3-1.363,10.151-4.114,20.3-4.114,10.151,3.133,20.3,3.133,10.151-8.719,20.3-8.719,10.151,1.185,20.3,1.185,10.152,20.955,20.3,20.955h20.3c10.151,0,10.151-26.83,20.3-26.83s10.151,11.433,20.3,11.433,10.151,1.215,20.3,1.215,10.152-3.429,20.3-3.429,10.151-8.541,20.3-8.541,10.151,13.311,20.3,13.311S538.4,114,548.546,114s10.151,5.1,20.3,5.1,10.151,9.366,20.3,9.366,10.151-22.834,20.3-22.834,10.151-5.463,20.3-5.463,10.152,4.575,20.3,4.575,10.151,12.7,20.3,12.7,10.151-5.991,20.3-5.991,10.151,1.894,20.3,1.894,10.151-2.707,20.3-2.707,10.152,2.018,20.3,2.018,10.151-2.694,20.3-2.694,10.151,5.668,20.3,5.668,10.151-2.076,20.3-2.076,10.151-.955,20.3-.955,10.152-5.945,20.3-5.945,10.151,4.548,20.3,4.548,10.151,17.257,20.3,17.257c-30.454-9.518-30.454-13.646-40.6-13.646s-10.151.3-20.3.3-10.151,2.526-20.3,2.526-10.151,3.15-20.3,3.15-10.152-5.882-20.3-5.882-10.151,2.72-20.3,2.72-10.151-4.567-20.3-4.567-10.151,7.333-20.3,7.333-10.151-7.651-20.3-7.651-10.152,8.112-20.3,8.112-10.151-11.171-20.3-11.171-10.151-.732-20.3-.732-10.151,6-20.3,6-10.151,13.5-20.3,13.5-10.152-6.337-20.3-6.337-10.151-.606-20.3-.606-10.151-2.469-20.3-2.469-10.152.056-20.3.056-10.151-3.687-20.3-3.687-10.151,6.681-20.3,6.681-10.151-5.094-20.3-5.094-10.151-4.951-20.3-4.951-10.152,16.406-20.3,16.406h-20.3c-10.151,0-10.151-15.38-20.3-15.38s-10.151.765-20.3.765-10.151,5.108-20.3,5.108-10.152,9.508-20.3,9.508-10.151-5.9-20.3-5.9-10.151-2.718-20.3-2.718-10.152-2.972-20.3-2.972-10.151,1.7-20.3,1.7-10.151-16.278-20.3-16.278-10.151,18.86-20.3,18.86-10.151-1.315-20.3-1.315-10.152-.52-20.3-.52-10.151,2.847-20.3,2.847-10.151-4.428-20.3-4.428S91.744,71.74,81.593,71.74s-10.151,56.732-20.3,56.732-10.152-2.008-20.3-2.008S30.837,128.472,20.686,128.472Z" transform="translate(-20.686 -56.521)" fill="none" stroke="#000" stroke-width="0.322" opacity="0.702"/><path d="M20.686,130.761h40.6c10.151,0,10.151-54.939,20.3-54.939s10.151,45.711,20.3,45.711,10.152,3.713,20.3,3.713,10.151-2.811,20.3-2.811,10.151.724,20.3.724,10.151.835,20.3.835,10.151-19.4,20.3-19.4,10.152,16.746,20.3,16.746,10.151-.9,20.3-.9,10.151,2.783,20.3,2.783,10.151,2.065,20.3,2.065,10.151,5.474,20.3,5.474,10.151-8.363,20.3-8.363,10.151-5.419,20.3-5.419,10.151.306,20.3.306,10.152,13.476,20.3,13.476h20.3c10.151,0,10.151-15.13,20.3-15.13s10.151,5.736,20.3,5.736,10.151,4.453,20.3,4.453,10.152-2.707,20.3-2.707,10.151.034,20.3.034,10.151-.484,20.3-.484,10.151,1.513,20.3,1.513,10.151,1.724,20.3,1.724,10.151,4.86,20.3,4.86,10.151-12.094,20.3-12.094,10.151-3.961,20.3-3.961,10.152-.867,20.3-.867,10.151,10.044,20.3,10.044,10.151-7.844,20.3-7.844,10.151,9.4,20.3,9.4,10.151-8.292,20.3-8.292,10.152,5.9,20.3,5.9S761.721,119,771.872,119s10.151,4.463,20.3,4.463,10.151-.539,20.3-.539,10.151-2.93,20.3-2.93,10.152-.984,20.3-.984,10.151,4.212,20.3,4.212,10.151,7.542,20.3,7.542c-30.454-6.551-30.454-9.574-40.6-9.574s-10.151,1.961-20.3,1.961-10.151,2.685-20.3,2.685-10.151-2.374-20.3-2.374-10.152-3.806-20.3-3.806-10.151,8.249-20.3,8.249-10.151-4.158-20.3-4.158-10.151,2.31-20.3,2.31-10.151-9.508-20.3-9.508-10.152,8.151-20.3,8.151-10.151-8.626-20.3-8.626-10.151,3.131-20.3,3.131-10.151.491-20.3.491-10.151,11.068-20.3,11.068-10.152-2.687-20.3-2.687-10.151-3.157-20.3-3.157-10.151-1.325-20.3-1.325-10.152-.444-20.3-.444-10.151,2.735-20.3,2.735-10.151-.063-20.3-.063-10.151-3.032-20.3-3.032-10.151-.8-20.3-.8-10.152,8.772-20.3,8.772h-20.3c-10.151,0-10.151-10.2-20.3-10.2s-10.151-2.542-20.3-2.542-10.151,7.35-20.3,7.35-10.152,5.39-20.3,5.39-10.151-5.474-20.3-5.474-10.151-2.065-20.3-2.065-10.152-1.278-20.3-1.278-10.151.377-20.3.377-10.151-15.928-20.3-15.928-10.151,18.589-20.3,18.589-10.151-.884-20.3-.884-10.152-1.42-20.3-1.42-10.151,4.474-20.3,4.474-10.151-3.635-20.3-3.635S91.744,79.49,81.593,79.49s-10.151,51.271-20.3,51.271h-40.6Z" transform="translate(-20.686 -58.81)" fill="#767676" opacity="0.1"/><path d="M20.686,130.52c30.453-2.008,30.453,0,40.6,0s10.151-56.732,20.3-56.732,10.151,46.009,20.3,46.009,10.152,4.428,20.3,4.428,10.151-2.847,20.3-2.847,10.151.52,20.3.52,10.151,1.315,20.3,1.315,10.151-18.86,20.3-18.86,10.152,16.278,20.3,16.278,10.151-1.7,20.3-1.7,10.151,2.972,20.3,2.972,10.151,2.718,20.3,2.718,10.151,5.9,20.3,5.9,10.151-9.508,20.3-9.508,10.151-5.108,20.3-5.108,10.151-.765,20.3-.765,10.152,15.38,20.3,15.38h20.3c10.151,0,10.151-16.406,20.3-16.406s10.151,4.951,20.3,4.951,10.151,5.094,20.3,5.094,10.152-6.681,20.3-6.681,10.151,3.687,20.3,3.687,10.151-.056,20.3-.056,10.151,2.469,20.3,2.469,10.151.606,20.3.606,10.151,6.337,20.3,6.337,10.151-13.5,20.3-13.5,10.151-6,20.3-6,10.152.732,20.3.732,10.151,11.171,20.3,11.171,10.151-8.112,20.3-8.112,10.151,7.651,20.3,7.651,10.151-7.333,20.3-7.333,10.152,4.567,20.3,4.567,10.151-2.72,20.3-2.72,10.151,5.882,20.3,5.882,10.151-3.15,20.3-3.15,10.151-2.526,20.3-2.526,10.152-.3,20.3-.3S863.232,121,873.383,121s10.151,9.518,20.3,9.518c-30.454-7.542-30.454-11.754-40.6-11.754s-10.151.984-20.3.984-10.151,2.93-20.3,2.93-10.151.539-20.3.539-10.152-4.463-20.3-4.463-10.151,4.054-20.3,4.054-10.151-5.9-20.3-5.9-10.151,8.292-20.3,8.292-10.151-9.4-20.3-9.4-10.152,7.844-20.3,7.844-10.151-10.044-20.3-10.044-10.151.867-20.3.867-10.151,3.961-20.3,3.961-10.151,12.094-20.3,12.094-10.152-4.86-20.3-4.86-10.151-1.724-20.3-1.724-10.151-1.513-20.3-1.513-10.152.484-20.3.484-10.151-.034-20.3-.034-10.151,2.707-20.3,2.707-10.151-4.453-20.3-4.453-10.151-5.736-20.3-5.736-10.152,15.13-20.3,15.13h-20.3c-10.151,0-10.151-13.476-20.3-13.476s-10.151-.306-20.3-.306-10.151,5.419-20.3,5.419-10.152,8.363-20.3,8.363-10.151-5.474-20.3-5.474-10.151-2.065-20.3-2.065-10.152-2.783-20.3-2.783-10.151.9-20.3.9-10.151-16.746-20.3-16.746-10.151,19.4-20.3,19.4-10.151-.835-20.3-.835-10.152-.724-20.3-.724S132.349,125,122.2,125s-10.151-3.713-20.3-3.713-10.151-45.711-20.3-45.711-10.151,54.939-20.3,54.939h-40.6Z" transform="translate(-20.686 -58.569)" fill="#838383" opacity="0.1"/><path d="M20.686,128.472c30.453-14.723,30.453,0,40.6,0s10.151-71.951,20.3-71.951,10.151,58.3,20.3,58.3,10.152,5.792,20.3,5.792,10.151-4.548,20.3-4.548,10.151-.658,20.3-.658,10.151,4.507,20.3,4.507,10.151-22.146,20.3-22.146,10.152,18.354,20.3,18.354,10.151-1.286,20.3-1.286,10.151,2.559,20.3,2.559,10.151-1.363,20.3-1.363,10.151-4.114,20.3-4.114,10.151,3.133,20.3,3.133,10.151-8.719,20.3-8.719,10.151,1.185,20.3,1.185,10.152,20.955,20.3,20.955h20.3c10.151,0,10.151-26.83,20.3-26.83s10.151,11.433,20.3,11.433,10.151,1.215,20.3,1.215,10.152-3.429,20.3-3.429,10.151-8.541,20.3-8.541,10.151,13.311,20.3,13.311S538.4,114,548.546,114s10.151,5.1,20.3,5.1,10.151,9.366,20.3,9.366,10.151-22.834,20.3-22.834,10.151-5.463,20.3-5.463,10.152,4.575,20.3,4.575,10.151,12.7,20.3,12.7,10.151-5.991,20.3-5.991,10.151,1.894,20.3,1.894,10.151-2.707,20.3-2.707,10.152,2.018,20.3,2.018,10.151-2.694,20.3-2.694,10.151,5.668,20.3,5.668,10.151-2.076,20.3-2.076,10.151-.955,20.3-.955,10.152-5.945,20.3-5.945,10.151,4.548,20.3,4.548,10.151,17.257,20.3,17.257c-30.454-9.518-30.454-13.646-40.6-13.646s-10.151.3-20.3.3-10.151,2.526-20.3,2.526-10.151,3.15-20.3,3.15-10.152-5.882-20.3-5.882-10.151,2.72-20.3,2.72-10.151-4.567-20.3-4.567-10.151,7.333-20.3,7.333-10.151-7.651-20.3-7.651-10.152,8.112-20.3,8.112-10.151-11.171-20.3-11.171-10.151-.732-20.3-.732-10.151,6-20.3,6-10.151,13.5-20.3,13.5-10.152-6.337-20.3-6.337-10.151-.606-20.3-.606-10.151-2.469-20.3-2.469-10.152.056-20.3.056-10.151-3.687-20.3-3.687-10.151,6.681-20.3,6.681-10.151-5.094-20.3-5.094-10.151-4.951-20.3-4.951-10.152,16.406-20.3,16.406h-20.3c-10.151,0-10.151-15.38-20.3-15.38s-10.151.765-20.3.765-10.151,5.108-20.3,5.108-10.152,9.508-20.3,9.508-10.151-5.9-20.3-5.9-10.151-2.718-20.3-2.718-10.152-2.972-20.3-2.972-10.151,1.7-20.3,1.7-10.151-16.278-20.3-16.278-10.151,18.86-20.3,18.86-10.151-1.315-20.3-1.315-10.152-.52-20.3-.52-10.151,2.847-20.3,2.847-10.151-4.428-20.3-4.428S91.744,71.74,81.593,71.74s-10.151,56.732-20.3,56.732-10.152-2.008-20.3-2.008S30.837,128.472,20.686,128.472Z" transform="translate(-20.686 -56.521)" fill="#aeaeae" opacity="0.1"/></g><g transform="translate(20.686 71.74)"><path d="M20.686,130.52c30.453-2.008,30.453,0,40.6,0s10.151-56.732,20.3-56.732,10.151,46.009,20.3,46.009,10.152,4.428,20.3,4.428,10.151-2.847,20.3-2.847,10.151.52,20.3.52,10.151,1.315,20.3,1.315,10.151-18.86,20.3-18.86,10.152,16.278,20.3,16.278,10.151-1.7,20.3-1.7,10.151,2.972,20.3,2.972,10.151,2.718,20.3,2.718,10.151,5.9,20.3,5.9,10.151-9.508,20.3-9.508,10.151-5.108,20.3-5.108,10.151-.765,20.3-.765,10.152,15.38,20.3,15.38h20.3c10.151,0,10.151-16.406,20.3-16.406s10.151,4.951,20.3,4.951,10.151,5.094,20.3,5.094,10.152-6.681,20.3-6.681,10.151,3.687,20.3,3.687,10.151-.056,20.3-.056,10.151,2.469,20.3,2.469,10.151.606,20.3.606,10.151,6.337,20.3,6.337,10.151-13.5,20.3-13.5,10.151-6,20.3-6,10.152.732,20.3.732,10.151,11.171,20.3,11.171,10.151-8.112,20.3-8.112,10.151,7.651,20.3,7.651,10.151-7.333,20.3-7.333,10.152,4.567,20.3,4.567,10.151-2.72,20.3-2.72,10.151,5.882,20.3,5.882,10.151-3.15,20.3-3.15,10.151-2.526,20.3-2.526,10.152-.3,20.3-.3S863.232,121,873.383,121s10.151,9.518,20.3,9.518c-30.454-7.542-30.454-11.754-40.6-11.754s-10.151.984-20.3.984-10.151,2.93-20.3,2.93-10.151.539-20.3.539-10.152-4.463-20.3-4.463-10.151,4.054-20.3,4.054-10.151-5.9-20.3-5.9-10.151,8.292-20.3,8.292-10.151-9.4-20.3-9.4-10.152,7.844-20.3,7.844-10.151-10.044-20.3-10.044-10.151.867-20.3.867-10.151,3.961-20.3,3.961-10.151,12.094-20.3,12.094-10.152-4.86-20.3-4.86-10.151-1.724-20.3-1.724-10.151-1.513-20.3-1.513-10.152.484-20.3.484-10.151-.034-20.3-.034-10.151,2.707-20.3,2.707-10.151-4.453-20.3-4.453-10.151-5.736-20.3-5.736-10.152,15.13-20.3,15.13h-20.3c-10.151,0-10.151-13.476-20.3-13.476s-10.151-.306-20.3-.306-10.151,5.419-20.3,5.419-10.152,8.363-20.3,8.363-10.151-5.474-20.3-5.474-10.151-2.065-20.3-2.065-10.152-2.783-20.3-2.783-10.151.9-20.3.9-10.151-16.746-20.3-16.746-10.151,19.4-20.3,19.4-10.151-.835-20.3-.835-10.152-.724-20.3-.724S132.349,125,122.2,125s-10.151-3.713-20.3-3.713-10.151-45.711-20.3-45.711-10.151,54.939-20.3,54.939h-40.6Z" transform="translate(-20.686 -73.788)" fill="none" stroke="#000" stroke-width="0.322" opacity="0.37"/></g></g></g></svg>