<svg xmlns="http://www.w3.org/2000/svg" xmlns:xlink="http://www.w3.org/1999/xlink" width="250" height="191" viewBox="0 0 250 191">
  <defs>
    <clipPath id="clip-path">
      <rect width="231.244" height="159.697" fill="none"/>
    </clipPath>
    <clipPath id="clip-path-2">
      <rect id="Rectangle_19223" data-name="Rectangle 19223" width="236.244" height="159.697" fill="none"/>
    </clipPath>
    <clipPath id="clip-zoom-01">
      <rect width="250" height="191"/>
    </clipPath>
  </defs>
  <g id="zoom-01" clip-path="url(#clip-zoom-01)">
    <g id="Group_24061" data-name="Group 24061" transform="translate(-2 -5)">
      <g id="Group_24062" data-name="Group 24062" transform="translate(0.675 19.357)" style="isolation: isolate">
        <g id="Group_23" data-name="Group 23" transform="translate(-0.638)">
          <g id="date" transform="translate(44.029 164.875)">
            <text id="_1980" data-name="1980" transform="translate(578.546 9)" font-size="9" font-family="HKGrotesk-Regular, HK Grotesk"><tspan x="0" y="0">1980</tspan></text>
            <text id="_1984" data-name="1984" transform="translate(691.208 9)" font-size="9" font-family="HKGrotesk-Regular, HK Grotesk"><tspan x="0" y="0">1984</tspan></text>
          </g>
          <g id="Scroll_Group_1" data-name="Scroll Group 1" transform="translate(21.636)" clip-path="url(#clip-path)" style="isolation: isolate">
            <g id="Scroll_Group_2" data-name="Scroll Group 2" clip-path="url(#clip-path-2)" style="isolation: isolate">
              <g id="Group_20" data-name="Group 20" transform="translate(-458.354 5.17)">
                <path id="Path_10" data-name="Path 10" d="M40,197.251c43.389,0,43.389-10.542,57.852-10.542h28.926c14.463,0,14.463-42.168,28.926-42.168s14.463,49.2,28.926,49.2,14.463,3.514,28.926,3.514,14.463-7.028,28.926-7.028,14.463,7.028,28.926,7.028,14.463-14.056,28.926-14.056,14.463,10.542,28.926,10.542,14.463-17.569,28.926-17.569,14.463,21.086,28.926,21.086,14.463-3.514,28.926-3.514,14.463,3.514,28.926,3.514S459.425,134,473.889,134s14.463,56.223,28.926,56.223,14.463,7.028,28.926,7.028h57.852c14.463,0,14.463-31.626,28.926-31.626s14.463,31.626,28.926,31.626,14.463-10.542,28.926-10.542,14.463,10.542,28.926,10.542,14.463-3.514,28.926-3.514,14.463,3.514,28.926,3.514H821c14.463,0,14.463-10.542,28.926-10.542s14.463-17.569,28.926-17.569,14.463,28.112,28.926,28.112h57.852c14.463,0,14.463-7.028,28.926-7.028s14.463-3.514,28.926-3.514,14.463,10.542,28.926,10.542,14.463-24.6,28.926-24.6,14.463,24.6,28.926,24.6h57.852c14.463,0,14.463-3.514,28.926-3.514s14.463,3.514,28.926,3.514Z" transform="translate(-40 -42.639)" fill="#5151fc" stroke="rgba(0,0,0,0.7)" stroke-width="0.5"/>
                <path id="Path_11" data-name="Path 11" d="M40,198.057c43.389,0,43.389-10.542,57.852-10.542h28.926c14.463,0,14.463-45.681,28.926-45.681s14.463,49.2,28.926,49.2,14.463,7.028,28.926,7.028,14.463-7.028,28.926-7.028,14.463,7.028,28.926,7.028S285.871,184,300.335,184s14.463,7.028,28.926,7.028,14.463-14.056,28.926-14.056,14.463,21.086,28.926,21.086,14.463-3.514,28.926-3.514,14.463,3.514,28.926,3.514,14.463-70.279,28.926-70.279,14.463,63.251,28.926,63.251,14.463,7.028,28.926,7.028H589.6c14.463,0,14.463-45.681,28.926-45.681s14.463,45.681,28.926,45.681S661.907,184,676.372,184s14.463,14.056,28.926,14.056,14.463-7.028,28.926-7.028,14.463,7.028,28.926,7.028H821c14.463,0,14.463-10.542,28.926-10.542S864.388,159.4,878.851,159.4s14.463,38.654,28.926,38.654H936.7c14.463,0,14.463-3.514,28.926-3.514s14.463-7.028,28.926-7.028h28.926c14.463,0,14.463,10.542,28.926,10.542s14.463-42.168,28.926-42.168,14.463,42.168,28.926,42.168h28.926c14.463,0,14.463-3.514,28.926-3.514h57.852v3.514c-43.389-3.514-43.389,0-57.852,0h-57.852c-14.463,0-14.463-24.6-28.926-24.6s-14.463,24.6-28.926,24.6-14.464-10.542-28.926-10.542-14.463,3.514-28.926,3.514-14.463,7.028-28.926,7.028H907.777c-14.463,0-14.463-28.112-28.926-28.112s-14.463,17.569-28.926,17.569S835.462,198.055,821,198.055H763.148c-14.463,0-14.463-3.514-28.926-3.514s-14.463,3.514-28.926,3.514-14.463-10.542-28.926-10.542-14.463,10.542-28.926,10.542-14.463-31.626-28.926-31.626-14.463,31.626-28.926,31.626H531.74c-14.463,0-14.463-7.028-28.926-7.028S488.352,134.8,473.888,134.8s-14.463,63.251-28.926,63.251-14.463-3.514-28.926-3.514-14.463,3.514-28.926,3.514-14.463-21.086-28.926-21.086-14.463,17.569-28.926,17.569S314.8,184,300.333,184s-14.463,14.056-28.926,14.056-14.463-7.028-28.926-7.028-14.463,7.028-28.926,7.028-14.463-3.514-28.926-3.514-14.463-49.2-28.926-49.2-14.463,42.168-28.926,42.168H97.852c-14.463,0-14.463,10.542-28.926,10.542Z" transform="translate(-40 -43.445)" fill="#c5c5fc" stroke="rgba(0,0,0,0.7)" stroke-width="0.5"/>
                <path id="Path_12" data-name="Path 12" d="M40,202.085c43.389,0,43.389-10.542,57.852-10.542s14.463-7.028,28.926-7.028,14.463-59.737,28.926-59.737,14.463,70.279,28.926,70.279,14.463,3.514,28.926,3.514,14.463-3.514,28.926-3.514,14.463,7.028,28.926,7.028,14.463-28.112,28.926-28.112S314.8,181,329.261,181s14.463-3.514,28.926-3.514,14.463,24.6,28.926,24.6,14.463-3.514,28.926-3.514,14.463-3.514,28.926-3.514,14.463-94.877,28.926-94.877,14.463,94.877,28.926,94.877,14.463,7.028,28.926,7.028H589.6c14.463,0,14.463-52.709,28.926-52.709s14.463,17.569,28.926,17.569S661.91,181,676.373,181s14.463,17.569,28.926,17.569,14.463-14.056,28.926-14.056,14.463,14.056,28.926,14.056,14.463,3.514,28.926,3.514H821c14.463,0,14.463-10.542,28.926-10.542s14.463-42.168,28.926-42.168,14.463,45.681,28.926,45.681,14.463,7.028,28.926,7.028,14.463-7.028,28.926-7.028,14.463-3.514,28.926-3.514,14.463-3.514,28.926-3.514,14.463,14.056,28.926,14.056,14.463-105.418,28.926-105.418,14.463,94.877,28.926,94.877,14.463,10.542,28.926,10.542,14.463-3.514,28.926-3.514,14.463-10.542,28.926-10.542,14.463,10.542,28.926,10.542h-57.852c-14.464,0-14.464,3.514-28.926,3.514h-28.926c-14.463,0-14.463-42.168-28.926-42.168s-14.463,42.168-28.926,42.168-14.464-10.542-28.926-10.542H994.555c-14.463,0-14.463,7.028-28.926,7.028s-14.463,3.514-28.926,3.514H907.777c-14.463,0-14.463-38.654-28.926-38.654s-14.463,28.112-28.926,28.112S835.462,202.085,821,202.085H763.148c-14.463,0-14.463-7.028-28.926-7.028s-14.463,7.028-28.926,7.028-14.463-14.056-28.926-14.056-14.463,14.056-28.926,14.056S632.981,156.4,618.518,156.4s-14.463,45.681-28.926,45.681H531.74c-14.463,0-14.463-7.028-28.926-7.028s-14.463-63.248-28.925-63.248-14.463,70.279-28.926,70.279-14.463-3.514-28.926-3.514-14.463,3.514-28.926,3.514S372.648,181,358.185,181s-14.463,14.056-28.926,14.056-14.463-7.028-28.926-7.028-14.463,14.056-28.926,14.056-14.463-7.028-28.926-7.028-14.463,7.028-28.926,7.028-14.463-7.028-28.926-7.028-14.463-49.2-28.926-49.2-14.461,45.676-28.925,45.676H97.852c-14.463,0-14.463,10.542-28.926,10.542Z" transform="translate(-40 -47.472)" fill="#00c19c" stroke="rgba(0,0,0,0.7)" stroke-width="0.5"/>
                <path id="Path_13" data-name="Path 13" d="M40,207.726c43.389,0,43.389-10.542,57.852-10.542s14.463-10.542,28.926-10.542S141.241,123.39,155.7,123.39,170.167,200.7,184.63,200.7s14.463-3.514,28.926-3.514,14.463,3.514,28.926,3.514,14.463,7.028,28.926,7.028,14.463-28.112,28.926-28.112,14.463,3.514,28.926,3.514h28.926c14.463,0,14.463,24.6,28.926,24.6s14.463-3.514,28.926-3.514,14.463-7.028,28.926-7.028,14.463-98.391,28.926-98.391,14.463,94.877,28.926,94.877,14.463,14.056,28.926,14.056h28.926c14.463,0,14.463-3.514,28.926-3.514s14.463-56.223,28.926-56.223,14.463,21.086,28.926,21.086,14.463-7.028,28.926-7.028,14.463,42.168,28.926,42.168,14.463-17.569,28.926-17.569,14.463,17.569,28.926,17.569,14.463,3.514,28.926,3.514H821c14.463,0,14.463-14.056,28.926-14.056s14.463-56.223,28.926-56.223S893.314,200.7,907.777,200.7H936.7c14.463,0,14.463-7.028,28.926-7.028h57.852c14.463,0,14.463,14.056,28.926,14.056s14.463-154.614,28.926-154.614,14.463,144.073,28.926,144.073,14.463,3.514,28.926,3.514,14.463-3.514,28.926-3.514,14.463-14.056,28.926-14.056,14.463,21.086,28.926,21.086h0c-43.389-10.542-43.389,0-57.852,0s-14.463,3.514-28.926,3.514-14.463-10.542-28.926-10.542-14.463-94.877-28.926-94.877-14.463,105.418-28.926,105.418-14.464-14.056-28.926-14.056-14.463,3.514-28.926,3.514-14.463,3.514-28.926,3.514-14.463,7.028-28.926,7.028S922.24,200.7,907.777,200.7s-14.463-45.681-28.926-45.681-14.463,42.168-28.926,42.168S835.462,207.73,821,207.73H792.073c-14.463,0-14.463-3.514-28.926-3.514s-14.463-14.056-28.926-14.056-14.463,14.056-28.926,14.056-14.463-17.569-28.926-17.569-14.463-14.056-28.926-14.056-14.463-17.569-28.926-17.569-14.463,52.709-28.926,52.709H531.74c-14.463,0-14.463-7.028-28.926-7.028s-14.463-94.877-28.926-94.877S459.426,200.7,444.962,200.7s-14.463,3.514-28.926,3.514-14.463,3.514-28.926,3.514-14.463-24.6-28.926-24.6-14.463,3.514-28.926,3.514-14.463-7.028-28.926-7.028-14.463,28.112-28.926,28.112S256.943,200.7,242.48,200.7s-14.463,3.514-28.926,3.514-14.463-3.514-28.926-3.514-14.463-70.279-28.926-70.279-14.463,59.737-28.926,59.737-14.463,7.028-28.926,7.028S83.387,207.73,68.923,207.73Z" transform="translate(-40 -53.113)" fill="#c2faef" stroke="rgba(0,0,0,0.7)" stroke-width="0.5"/>
              </g>
            </g>
          </g>
          <path id="Path_14" data-name="Path 14" d="M230.789,0H0" transform="translate(21.173 159.774)" fill="none" stroke="#000" stroke-width="1"/>
          <line id="Line_23" data-name="Line 23" y2="2.765" transform="translate(54.769 159.782)" fill="none" stroke="#000" stroke-width="1"/>
          <line id="Line_24" data-name="Line 24" y2="2.765" transform="translate(199.257 159.782)" fill="none" stroke="#000" stroke-width="1"/>
        </g>
      </g>
      <text id="numero_di_occorrenze" data-name="numero di occorrenze" transform="translate(17 14)" font-size="10" font-family="HKGrotesk-Regular, HK Grotesk"><tspan x="0" y="0">numero di occorrenze</tspan></text>
    </g>
    <text id="_1960" data-name="1960" transform="translate(42.066 189.232)" font-size="10" font-family="HKGrotesk-Regular, HK Grotesk"><tspan x="0" y="0">1960</tspan></text>
    <text id="_1965" data-name="1965" transform="translate(186.695 189.232)" font-size="10" font-family="HKGrotesk-Regular, HK Grotesk"><tspan x="0" y="0">1965</tspan></text>
    <g id="Group_22" data-name="Group 22" transform="translate(-1.963 16.576)">
      <text id="_0" data-name="0" transform="translate(7.536 158.025)" font-size="10" font-family="HKGrotesk-Regular, HK Grotesk"><tspan x="0" y="0">0</tspan></text>
      <g id="Group_21" data-name="Group 21">
        <line id="Line_19" data-name="Line 19" x1="4.036" transform="translate(17.601 122.988)" fill="none" stroke="#000" stroke-width="1"/>
        <text id="_10" data-name="10" transform="translate(2 124.15)" font-size="10" font-family="HKGrotesk-Regular, HK Grotesk"><tspan x="0" y="0">10</tspan></text>
        <line id="Line_20" data-name="Line 20" x1="4.036" transform="translate(17.601 87.849)" fill="none" stroke="#000" stroke-width="1"/>
        <text id="_20" data-name="20" transform="translate(2.048 89.01)" font-size="10" font-family="HKGrotesk-Regular, HK Grotesk"><tspan x="0" y="0">20</tspan></text>
        <line id="Line_21" data-name="Line 21" x1="4.036" transform="translate(17.601 52.709)" fill="none" stroke="#000" stroke-width="1"/>
        <text id="_30" data-name="30" transform="translate(2.048 53.871)" font-size="10" font-family="HKGrotesk-Regular, HK Grotesk"><tspan x="0" y="0">30</tspan></text>
        <line id="Line_22" data-name="Line 22" x1="4.036" transform="translate(17.601 17.57)" fill="none" stroke="#000" stroke-width="1"/>
        <text id="_40" data-name="40" transform="translate(2.048 18.732)" font-size="10" font-family="HKGrotesk-Regular, HK Grotesk"><tspan x="0" y="0">40</tspan></text>
        <path id="Path_15" data-name="Path 15" d="M-6,50.5h4.266V208.249" transform="translate(23.244 -50.5)" fill="none" stroke="#000" stroke-width="1"/>
      </g>
    </g>
  </g>
</svg>
