<svg xmlns="http://www.w3.org/2000/svg" xmlns:xlink="http://www.w3.org/1999/xlink" width="250" height="438" viewBox="0 0 250 438"><defs><clipPath id="b"><rect width="250" height="438"/></clipPath></defs><g id="a" clip-path="url(#b)"><g transform="translate(0 49)"><g transform="translate(0.037 194.606)"><path d="M281.824,534.011q-1.482,3.218-3.249,6.3l-.115-.073q1.761-3.066,3.243-6.291Z" transform="translate(-110.882 -407.267)" fill="#00c19c"/><path d="M169.233,477.483a82.785,82.785,0,1,1,20.13-58.155h-.134a82.645,82.645,0,1,0-20.093,58.094Z" transform="translate(-10.891 -331.278)" fill="#00c19c"/><line x2="11.507" y2="1.937" transform="translate(166.084 101.816)" fill="none" stroke="#ff6c39" stroke-miterlimit="10" stroke-width="0.33"/><line x2="6.54" y2="3.37" transform="translate(162.702 126.494)" fill="none" stroke="#00c19c" stroke-miterlimit="10" stroke-width="0.33"/><line x1="5.72" y1="2.247" transform="translate(17.664 64.957)" fill="none" stroke="#00c19c" stroke-miterlimit="10" stroke-width="0.33"/><line y1="10.718" x2="15.175" transform="translate(182.48 19.445)" fill="none" stroke="#00c19c" stroke-miterlimit="10" stroke-width="0.33"/><line y1="2.726" x2="18.266" transform="translate(201.304 74.193)" fill="none" stroke="#00c19c" stroke-miterlimit="10" stroke-width="0.33"/><ellipse cx="0.34" cy="0.34" rx="0.34" ry="0.34" transform="translate(156.939 94.578)" fill="orange" stroke="#fff" stroke-miterlimit="10" stroke-width="0.22"/><ellipse cx="0.34" cy="0.34" rx="0.34" ry="0.34" transform="translate(156.381 100.414)" fill="#ff6c39" stroke="#fff" stroke-miterlimit="10" stroke-width="0.22"/><ellipse cx="0.34" cy="0.34" rx="0.34" ry="0.34" transform="translate(177.251 103.413)" fill="#ff6c39" stroke="#fff" stroke-miterlimit="10" stroke-width="0.22"/><ellipse cx="0.34" cy="0.34" rx="0.34" ry="0.34" transform="translate(155.269 106.164)" fill="#ff6c39" stroke="#fff" stroke-miterlimit="10" stroke-width="0.22"/><ellipse cx="0.34" cy="0.34" rx="0.34" ry="0.34" transform="translate(150.163 119.863)" fill="#00c19c" stroke="#fff" stroke-miterlimit="10" stroke-width="0.22"/><ellipse cx="0.34" cy="0.34" rx="0.34" ry="0.34" transform="translate(170.456 126.343)" fill="#ff6c39" stroke="#fff" stroke-miterlimit="10" stroke-width="0.22"/><ellipse cx="0.34" cy="0.34" rx="0.34" ry="0.34" transform="translate(169.436 128.474)" fill="#ff6c39" stroke="#fff" stroke-miterlimit="10" stroke-width="0.22"/><ellipse cx="0.34" cy="0.34" rx="0.34" ry="0.34" transform="translate(168.355 130.569)" fill="#ff6c39" stroke="#fff" stroke-miterlimit="10" stroke-width="0.22"/><ellipse cx="0.34" cy="0.34" rx="0.34" ry="0.34" transform="translate(167.214 132.634)" fill="#ff6c39" stroke="#fff" stroke-miterlimit="10" stroke-width="0.22"/><ellipse cx="0.34" cy="0.34" rx="0.34" ry="0.34" transform="translate(37.247 71.509)" fill="#00c19c" stroke="#fff" stroke-miterlimit="10" stroke-width="0.22"/><ellipse cx="0.34" cy="0.34" rx="0.34" ry="0.34" transform="translate(157.905 145.78)" fill="#ff6c39" stroke="#fff" stroke-miterlimit="10" stroke-width="0.22"/><ellipse cx="0.34" cy="0.34" rx="0.34" ry="0.34" transform="translate(152.476 151.47)" fill="#ff6c39" stroke="#fff" stroke-miterlimit="10" stroke-width="0.22"/><ellipse cx="0.34" cy="0.34" rx="0.34" ry="0.34" transform="translate(146.531 156.619)" fill="#ff6c39" stroke="#fff" stroke-miterlimit="10" stroke-width="0.22"/><ellipse cx="0.34" cy="0.34" rx="0.34" ry="0.34" transform="translate(140.125 161.186)" fill="#ff6c39" stroke="#fff" stroke-miterlimit="10" stroke-width="0.22"/><ellipse cx="0.34" cy="0.34" rx="0.34" ry="0.34" transform="translate(133.312 165.115)" fill="#ff6c39" stroke="#fff" stroke-miterlimit="10" stroke-width="0.22"/><ellipse cx="0.34" cy="0.34" rx="0.34" ry="0.34" transform="translate(126.152 168.388)" fill="#ff6c39" stroke="#fff" stroke-miterlimit="10" stroke-width="0.22"/><ellipse cx="0.34" cy="0.34" rx="0.34" ry="0.34" transform="translate(118.72 170.956)" fill="#ff6c39" stroke="#fff" stroke-miterlimit="10" stroke-width="0.22"/><ellipse cx="0.34" cy="0.34" rx="0.34" ry="0.34" transform="translate(111.075 172.814)" fill="#ff6c39" stroke="#fff" stroke-miterlimit="10" stroke-width="0.22"/><ellipse cx="0.34" cy="0.34" rx="0.34" ry="0.34" transform="translate(103.29 173.932)" fill="#ff6c39" stroke="#fff" stroke-miterlimit="10" stroke-width="0.22"/><ellipse cx="0.34" cy="0.34" rx="0.34" ry="0.34" transform="translate(95.432 174.308)" fill="#ff6c39" stroke="#fff" stroke-miterlimit="10" stroke-width="0.22"/><ellipse cx="0.34" cy="0.34" rx="0.34" ry="0.34" transform="translate(87.581 173.932)" fill="#ff6c39" stroke="#fff" stroke-miterlimit="10" stroke-width="0.22"/><ellipse cx="0.34" cy="0.34" rx="0.34" ry="0.34" transform="translate(79.79 172.814)" fill="#ff6c39" stroke="#fff" stroke-miterlimit="10" stroke-width="0.22"/><ellipse cx="0.34" cy="0.34" rx="0.34" ry="0.34" transform="translate(72.145 170.956)" fill="#ff6c39" stroke="#fff" stroke-miterlimit="10" stroke-width="0.22"/><ellipse cx="0.34" cy="0.34" rx="0.34" ry="0.34" transform="translate(64.712 168.388)" fill="#ff6c39" stroke="#fff" stroke-miterlimit="10" stroke-width="0.22"/><ellipse cx="0.34" cy="0.34" rx="0.34" ry="0.34" transform="translate(57.559 165.115)" fill="#ff6c39" stroke="#fff" stroke-miterlimit="10" stroke-width="0.22"/><ellipse cx="0.34" cy="0.34" rx="0.34" ry="0.34" transform="translate(50.746 161.186)" fill="#ff6c39" stroke="#fff" stroke-miterlimit="10" stroke-width="0.22"/><ellipse cx="0.34" cy="0.34" rx="0.34" ry="0.34" transform="translate(44.34 156.619)" fill="#ff6c39" stroke="#fff" stroke-miterlimit="10" stroke-width="0.22"/><ellipse cx="0.34" cy="0.34" rx="0.34" ry="0.34" transform="translate(38.395 151.47)" fill="#ff6c39" stroke="#fff" stroke-miterlimit="10" stroke-width="0.22"/><ellipse cx="0.34" cy="0.34" rx="0.34" ry="0.34" transform="translate(32.966 145.78)" fill="#ff6c39" stroke="#fff" stroke-miterlimit="10" stroke-width="0.22"/><ellipse cx="0.34" cy="0.34" rx="0.34" ry="0.34" transform="translate(28.102 139.593)" fill="#ff6c39" stroke="#fff" stroke-miterlimit="10" stroke-width="0.22"/><ellipse cx="0.34" cy="0.34" rx="0.34" ry="0.34" transform="translate(23.851 132.98)" fill="#ff6c39" stroke="#fff" stroke-miterlimit="10" stroke-width="0.22"/><ellipse cx="0.34" cy="0.34" rx="0.34" ry="0.34" transform="translate(20.25 125.984)" fill="#ff6c39" stroke="#fff" stroke-miterlimit="10" stroke-width="0.22"/><ellipse cx="0.34" cy="0.34" rx="0.34" ry="0.34" transform="translate(17.324 118.685)" fill="#ff6c39" stroke="#fff" stroke-miterlimit="10" stroke-width="0.22"/><ellipse cx="0.34" cy="0.34" rx="0.34" ry="0.34" transform="translate(15.107 111.137)" fill="#ff6c39" stroke="#fff" stroke-miterlimit="10" stroke-width="0.22"/><ellipse cx="0.34" cy="0.34" rx="0.34" ry="0.34" transform="translate(13.619 103.413)" fill="#ff6c39" stroke="#fff" stroke-miterlimit="10" stroke-width="0.22"/><ellipse cx="0.34" cy="0.34" rx="0.34" ry="0.34" transform="translate(12.872 95.58)" fill="#ff6c39" stroke="#fff" stroke-miterlimit="10" stroke-width="0.22"/><ellipse cx="0.34" cy="0.34" rx="0.34" ry="0.34" transform="translate(12.872 87.716)" fill="#ff6c39" stroke="#fff" stroke-miterlimit="10" stroke-width="0.22"/><ellipse cx="0.34" cy="0.34" rx="0.34" ry="0.34" transform="translate(13.619 79.889)" fill="#ff6c39" stroke="#fff" stroke-miterlimit="10" stroke-width="0.22"/><ellipse cx="0.34" cy="0.34" rx="0.34" ry="0.34" transform="translate(15.107 72.165)" fill="#ff6c39" stroke="#fff" stroke-miterlimit="10" stroke-width="0.22"/><ellipse cx="0.34" cy="0.34" rx="0.34" ry="0.34" transform="translate(17.324 64.617)" fill="#ff6c39" stroke="#fff" stroke-miterlimit="10" stroke-width="0.22"/><ellipse cx="0.34" cy="0.34" rx="0.34" ry="0.34" transform="translate(20.25 57.312)" fill="#ff6c39" stroke="#fff" stroke-miterlimit="10" stroke-width="0.22"/><ellipse cx="0.34" cy="0.34" rx="0.34" ry="0.34" transform="translate(23.851 50.323)" fill="#ff6c39" stroke="#fff" stroke-miterlimit="10" stroke-width="0.22"/><ellipse cx="0.34" cy="0.34" rx="0.34" ry="0.34" transform="translate(28.102 43.704)" fill="#ff6c39" stroke="#fff" stroke-miterlimit="10" stroke-width="0.22"/><ellipse cx="0.34" cy="0.34" rx="0.34" ry="0.34" transform="translate(32.966 37.522)" fill="#ff6c39" stroke="#fff" stroke-miterlimit="10" stroke-width="0.22"/><ellipse cx="0.34" cy="0.34" rx="0.34" ry="0.34" transform="translate(38.395 31.826)" fill="#ff6c39" stroke="#fff" stroke-miterlimit="10" stroke-width="0.22"/><ellipse cx="0.34" cy="0.34" rx="0.34" ry="0.34" transform="translate(44.34 26.677)" fill="#ff6c39" stroke="#fff" stroke-miterlimit="10" stroke-width="0.22"/><ellipse cx="0.34" cy="0.34" rx="0.34" ry="0.34" transform="translate(50.746 22.117)" fill="#ff6c39" stroke="#fff" stroke-miterlimit="10" stroke-width="0.22"/><ellipse cx="0.34" cy="0.34" rx="0.34" ry="0.34" transform="translate(57.559 18.182)" fill="#ff6c39" stroke="#fff" stroke-miterlimit="10" stroke-width="0.22"/><ellipse cx="0.34" cy="0.34" rx="0.34" ry="0.34" transform="translate(64.712 14.915)" fill="#ff6c39" stroke="#fff" stroke-miterlimit="10" stroke-width="0.22"/><ellipse cx="0.34" cy="0.34" rx="0.34" ry="0.34" transform="translate(72.145 12.34)" fill="#ff6c39" stroke="#fff" stroke-miterlimit="10" stroke-width="0.22"/><ellipse cx="0.34" cy="0.34" rx="0.34" ry="0.34" transform="translate(79.79 10.488)" fill="#ff6c39" stroke="#fff" stroke-miterlimit="10" stroke-width="0.22"/><ellipse cx="0.34" cy="0.34" rx="0.34" ry="0.34" transform="translate(87.581 9.365)" fill="#ff6c39" stroke="#fff" stroke-miterlimit="10" stroke-width="0.22"/><ellipse cx="0.34" cy="0.34" rx="0.34" ry="0.34" transform="translate(95.432 8.994)" fill="#ff6c39" stroke="#fff" stroke-miterlimit="10" stroke-width="0.22"/><ellipse cx="0.34" cy="0.34" rx="0.34" ry="0.34" transform="translate(103.29 9.365)" fill="#ff6c39" stroke="#fff" stroke-miterlimit="10" stroke-width="0.22"/><ellipse cx="0.34" cy="0.34" rx="0.34" ry="0.34" transform="translate(111.075 10.488)" fill="#ff6c39" stroke="#fff" stroke-miterlimit="10" stroke-width="0.22"/><ellipse cx="0.34" cy="0.34" rx="0.34" ry="0.34" transform="translate(118.72 12.34)" fill="#ff6c39" stroke="#fff" stroke-miterlimit="10" stroke-width="0.22"/><ellipse cx="0.34" cy="0.34" rx="0.34" ry="0.34" transform="translate(126.152 14.915)" fill="#ff6c39" stroke="#fff" stroke-miterlimit="10" stroke-width="0.22"/><ellipse cx="0.34" cy="0.34" rx="0.34" ry="0.34" transform="translate(133.312 18.182)" fill="#ff6c39" stroke="#fff" stroke-miterlimit="10" stroke-width="0.22"/><ellipse cx="0.34" cy="0.34" rx="0.34" ry="0.34" transform="translate(140.125 22.117)" fill="#ff6c39" stroke="#fff" stroke-miterlimit="10" stroke-width="0.22"/><ellipse cx="0.34" cy="0.34" rx="0.34" ry="0.34" transform="translate(146.531 26.677)" fill="#ff6c39" stroke="#fff" stroke-miterlimit="10" stroke-width="0.22"/><ellipse cx="0.34" cy="0.34" rx="0.34" ry="0.34" transform="translate(152.476 31.826)" fill="#ff6c39" stroke="#fff" stroke-miterlimit="10" stroke-width="0.22"/><ellipse cx="0.34" cy="0.34" rx="0.34" ry="0.34" transform="translate(157.905 37.522)" fill="#ff6c39" stroke="#fff" stroke-miterlimit="10" stroke-width="0.22"/><ellipse cx="0.34" cy="0.34" rx="0.34" ry="0.34" transform="translate(162.763 43.704)" fill="#00c19c" stroke="#fff" stroke-miterlimit="10" stroke-width="0.22"/><ellipse cx="0.34" cy="0.34" rx="0.34" ry="0.34" transform="translate(197.315 19.105)" fill="#ff6c39" stroke="#fff" stroke-miterlimit="10" stroke-width="0.22"/><ellipse cx="0.34" cy="0.34" rx="0.34" ry="0.34" transform="translate(167.02 50.323)" fill="#00c19c" stroke="#fff" stroke-miterlimit="10" stroke-width="0.22"/><ellipse cx="0.34" cy="0.34" rx="0.34" ry="0.34" transform="translate(170.62 57.312)" fill="#00c19c" stroke="#fff" stroke-miterlimit="10" stroke-width="0.22"/><ellipse cx="0.34" cy="0.34" rx="0.34" ry="0.34" transform="translate(175.764 72.165)" fill="#00c19c" stroke="#fff" stroke-miterlimit="10" stroke-width="0.22"/><ellipse cx="0.34" cy="0.34" rx="0.34" ry="0.34" transform="translate(177.251 79.889)" fill="#00c19c" stroke="#fff" stroke-miterlimit="10" stroke-width="0.22"/><ellipse cx="0.34" cy="0.34" rx="0.34" ry="0.34" transform="translate(219.23 73.853)" fill="#ff6c39" stroke="#fff" stroke-miterlimit="10" stroke-width="0.22"/><ellipse cx="0.34" cy="0.34" rx="0.34" ry="0.34" transform="translate(177.998 87.716)" fill="orange" stroke="#fff" stroke-miterlimit="10" stroke-width="0.22"/><g transform="translate(159.211 91.976)" style="isolation:isolate"><text transform="translate(0.048 1.998) rotate(2.73)" fill="orange" font-size="2" font-family="ArialMT, Arial" style="isolation:isolate"><tspan x="0" y="0">Parigi</tspan></text></g><g transform="translate(158.636 98.022)" style="isolation:isolate"><text transform="translate(0.145 1.98) rotate(8.18)" fill="#ff6c39" font-size="2" font-family="ArialMT, Arial" style="isolation:isolate"><tspan x="0" y="0">mare</tspan></text></g><g transform="translate(179.507 101.021)" style="isolation:isolate"><text transform="translate(0.145 1.98) rotate(8.18)" fill="#ff6c39" font-size="2" font-family="ArialMT, Arial" style="isolation:isolate"><tspan x="0" y="0">barca</tspan></text></g><g transform="translate(157.497 104.009)" style="isolation:isolate"><text transform="matrix(0.972, 0.236, -0.236, 0.972, 0.24, 1.944)" fill="#ff6c39" font-size="2" font-family="ArialMT, Arial" style="isolation:isolate"><tspan x="0" y="0">mongolfiera</tspan></text></g><g transform="translate(152.23 118.391)" style="isolation:isolate"><text transform="translate(0.466 1.778) rotate(27.27)" fill="#00c19c" font-size="2" font-family="ArialMT, Arial" style="isolation:isolate"><tspan x="0" y="0">Olivabassa</tspan></text></g><g transform="translate(172.56 124.741)" style="isolation:isolate"><text transform="translate(0.427 1.815) rotate(24.82)" fill="#ff6c39" font-size="2" font-family="ArialMT, Arial" style="isolation:isolate"><tspan x="0" y="0">ciliegio</tspan></text></g><g transform="translate(171.516 126.958)" style="isolation:isolate"><text transform="matrix(0.895, 0.445, -0.445, 0.895, 0.453, 1.791)" fill="#ff6c39" font-size="2" font-family="ArialMT, Arial" style="isolation:isolate"><tspan x="0" y="0">mandorlo</tspan></text></g><g transform="translate(170.411 129.141)" style="isolation:isolate"><text transform="translate(0.479 1.764) rotate(28.09)" fill="#ff6c39" font-size="2" font-family="ArialMT, Arial" style="isolation:isolate"><tspan x="0" y="0">platano</tspan></text></g><g transform="translate(169.239 131.301)" style="isolation:isolate"><text transform="translate(0.507 1.734) rotate(29.887)" fill="#ff6c39" font-size="2" font-family="ArialMT, Arial" style="isolation:isolate"><tspan x="0" y="0">quercia</tspan></text></g><g transform="translate(23.785 65.045)" style="isolation:isolate"><text transform="translate(0.333 1.89) rotate(19.09)" fill="#00c19c" font-size="2" font-family="ArialMT, Arial" style="isolation:isolate"><tspan x="0" y="0">Ombrosa</tspan></text></g><g transform="translate(159.715 145.076)" style="isolation:isolate"><text transform="translate(0.661 1.52) rotate(40.539)" fill="#ff6c39" font-size="2" font-family="ArialMT, Arial" style="isolation:isolate"><tspan x="0" y="0">olivo</tspan></text></g><g transform="translate(154.166 151.118)" style="isolation:isolate"><text transform="translate(0.736 1.38) rotate(46.36)" fill="#ff6c39" font-size="2" font-family="ArialMT, Arial" style="isolation:isolate"><tspan x="0" y="0">vigne</tspan></text></g><g transform="translate(148.083 156.609)" style="isolation:isolate"><text transform="translate(0.8 1.235) rotate(51.875)" fill="#ff6c39" font-size="2" font-family="ArialMT, Arial" style="isolation:isolate"><tspan x="0" y="0">valle</tspan></text></g><g transform="translate(141.526 161.512)" style="isolation:isolate"><text transform="matrix(0.541, 0.841, -0.841, 0.541, 0.855, 1.081)" fill="#ff6c39" font-size="2" font-family="ArialMT, Arial" style="isolation:isolate"><tspan x="0" y="0">vallata</tspan></text></g><g transform="translate(134.556 165.782)" style="isolation:isolate"><text transform="translate(0.904 0.916) rotate(62.73)" fill="#ff6c39" font-size="2" font-family="ArialMT, Arial" style="isolation:isolate"><tspan x="0" y="0">bandita</tspan></text></g><g transform="translate(127.233 169.391)" style="isolation:isolate"><text transform="translate(0.944 0.743) rotate(68.18)" fill="#ff6c39" font-size="2" font-family="ArialMT, Arial" style="isolation:isolate"><tspan x="0" y="0">bosco</tspan></text></g><g transform="translate(119.625 172.304)" style="isolation:isolate"><text transform="translate(0.976 0.56) rotate(73.74)" fill="#ff6c39" font-size="2" font-family="ArialMT, Arial" style="isolation:isolate"><tspan x="0" y="0">bottega</tspan></text></g><g transform="translate(111.804 174.471)" style="isolation:isolate"><text transform="matrix(0.19, 0.982, -0.982, 0.19, 0.998, 0.381)" fill="#ff6c39" font-size="2" font-family="ArialMT, Arial" style="isolation:isolate"><tspan x="0" y="0">campo</tspan></text></g><g transform="translate(103.838 175.908)" style="isolation:isolate"><text transform="translate(1.012 0.19) rotate(84.55)" fill="#ff6c39" font-size="2" font-family="ArialMT, Arial" style="isolation:isolate"><tspan x="0" y="0">carrozza</tspan></text></g><g transform="translate(95.792 176.579)" style="isolation:isolate"><text transform="translate(1.017) rotate(90)" fill="#ff6c39" font-size="2" font-family="ArialMT, Arial" style="isolation:isolate"><tspan x="0" y="0">carrubo</tspan></text></g><g transform="translate(82.973 177.089)" style="isolation:isolate"><text transform="translate(1.991 17.208) rotate(-84.55)" fill="#ff6c39" font-size="2" font-family="ArialMT, Arial" style="isolation:isolate"><tspan x="0" y="0">casa del gabelliere</tspan></text></g><g transform="translate(74.587 176.009)" style="isolation:isolate"><text transform="matrix(0.19, -0.982, 0.982, 0.19, 1.963, 10.253)" fill="#ff6c39" font-size="2" font-family="ArialMT, Arial" style="isolation:isolate"><tspan x="0" y="0">castagneto</tspan></text></g><g transform="translate(66.214 174.181)" style="isolation:isolate"><text transform="translate(1.919 8.283) rotate(-73.64)" fill="#ff6c39" font-size="2" font-family="ArialMT, Arial" style="isolation:isolate"><tspan x="0" y="0">castagno</tspan></text></g><g transform="translate(57.558 170.874)" style="isolation:isolate"><text transform="translate(1.857 9.146) rotate(-68.18)" fill="#ff6c39" font-size="2" font-family="ArialMT, Arial" style="isolation:isolate"><tspan x="0" y="0">cattedrale</tspan></text></g><g transform="translate(50.616 167.597)" style="isolation:isolate"><text transform="translate(1.778 6.279) rotate(-62.73)" fill="#ff6c39" font-size="2" font-family="ArialMT, Arial" style="isolation:isolate"><tspan x="0" y="0">ciliegio</tspan></text></g><g transform="translate(42.66 163.096)" style="isolation:isolate"><text transform="matrix(0.541, -0.841, 0.841, 0.541, 1.682, 7.003)" fill="#ff6c39" font-size="2" font-family="ArialMT, Arial" style="isolation:isolate"><tspan x="0" y="0">cimitero</tspan></text></g><g transform="translate(36.378 157.87)" style="isolation:isolate"><text transform="translate(1.572 5.979) rotate(-51.82)" fill="#ff6c39" font-size="2" font-family="ArialMT, Arial" style="isolation:isolate"><tspan x="0" y="0">colline</tspan></text></g><g transform="translate(31.272 152.337)" style="isolation:isolate"><text transform="matrix(0.692, -0.722, 0.722, 0.692, 1.444, 4.288)" fill="#ff6c39" font-size="2" font-family="ArialMT, Arial" style="isolation:isolate"><tspan x="0" y="0">elce</tspan></text></g><g transform="translate(24.258 146.672)" style="isolation:isolate"><text transform="translate(1.3 4.788) rotate(-40.539)" fill="#ff6c39" font-size="2" font-family="ArialMT, Arial" style="isolation:isolate"><tspan x="0" y="0">faggio</tspan></text></g><g transform="translate(20.9 139.833)" style="isolation:isolate"><text transform="translate(1.16 3.379) rotate(-35.45)" fill="#ff6c39" font-size="2" font-family="ArialMT, Arial" style="isolation:isolate"><tspan x="0" y="0">fico</tspan></text></g><g transform="translate(13.267 132.599)" style="isolation:isolate"><text transform="translate(1 5.252) rotate(-30)" fill="#ff6c39" font-size="2" font-family="ArialMT, Arial" style="isolation:isolate"><tspan x="0" y="0">frassino</tspan></text></g><g transform="translate(10.129 125.258)" style="isolation:isolate"><text transform="matrix(0.91, -0.415, 0.415, 0.91, 0.831, 4.326)" fill="#ff6c39" font-size="2" font-family="ArialMT, Arial" style="isolation:isolate"><tspan x="0" y="0">frutteto</tspan></text></g><g transform="translate(8.436 117.36)" style="isolation:isolate"><text transform="translate(0.654 3.534) rotate(-19.09)" fill="#ff6c39" font-size="2" font-family="ArialMT, Arial" style="isolation:isolate"><tspan x="0" y="0">gelso</tspan></text></g><g transform="translate(5.416 109.343)" style="isolation:isolate"><text transform="matrix(0.97, -0.24, 0.24, 0.97, 0.48, 3.388)" fill="#ff6c39" font-size="2" font-family="ArialMT, Arial" style="isolation:isolate"><tspan x="0" y="0">glicine</tspan></text></g><g transform="translate(4.59 101.331)" style="isolation:isolate"><text transform="translate(0.28 2.684) rotate(-8.049)" fill="#ff6c39" font-size="2" font-family="ArialMT, Arial" style="isolation:isolate"><tspan x="0" y="0">grotta</tspan></text></g><g transform="translate(1.142 93.075)" style="isolation:isolate"><text transform="translate(0.095 2.381) rotate(-2.73)" fill="#ff6c39" font-size="2" font-family="ArialMT, Arial" style="isolation:isolate"><tspan x="0" y="0">magnolia</tspan></text></g><g transform="translate(0 84.392)" style="isolation:isolate"><text transform="translate(0.048 1.998) rotate(2.73)" fill="#ff6c39" font-size="2" font-family="ArialMT, Arial" style="isolation:isolate"><tspan x="0" y="0">melograno</tspan></text></g><g transform="translate(5.552 76.009)" style="isolation:isolate"><text transform="translate(0.142 1.98) rotate(8.049)" fill="#ff6c39" font-size="2" font-family="ArialMT, Arial" style="isolation:isolate"><tspan x="0" y="0">muro</tspan></text></g><g transform="translate(7.4 67.605)" style="isolation:isolate"><text transform="matrix(0.97, 0.24, -0.24, 0.97, 0.244, 1.94)" fill="#ff6c39" font-size="2" font-family="ArialMT, Arial" style="isolation:isolate"><tspan x="0" y="0">noce</tspan></text></g><g transform="translate(10.249 59.519)" style="isolation:isolate"><text transform="translate(0.333 1.89) rotate(19.09)" fill="#ff6c39" font-size="2" font-family="ArialMT, Arial" style="isolation:isolate"><tspan x="0" y="0">tana</tspan></text></g><g transform="translate(13.063 51.447)" style="isolation:isolate"><text transform="matrix(0.91, 0.415, -0.415, 0.91, 0.422, 1.819)" fill="#ff6c39" font-size="2" font-family="ArialMT, Arial" style="isolation:isolate"><tspan x="0" y="0">olmo</tspan></text></g><g transform="translate(18.329 44.645)" style="isolation:isolate"><text transform="translate(0.508 1.732) rotate(30)" fill="#ff6c39" font-size="2" font-family="ArialMT, Arial" style="isolation:isolate"><tspan x="0" y="0">orti</tspan></text></g><g transform="translate(20.395 35.832)" style="isolation:isolate"><text transform="translate(0.59 1.629) rotate(35.45)" fill="#ff6c39" font-size="2" font-family="ArialMT, Arial" style="isolation:isolate"><tspan x="0" y="0">osteria</tspan></text></g><g transform="translate(23.566 27.102)" style="isolation:isolate"><text transform="translate(0.661 1.52) rotate(40.539)" fill="#ff6c39" font-size="2" font-family="ArialMT, Arial" style="isolation:isolate"><tspan x="0" y="0">padiglione</tspan></text></g><g transform="translate(31.328 22.281)" style="isolation:isolate"><text transform="matrix(0.692, 0.722, -0.722, 0.692, 0.734, 1.384)" fill="#ff6c39" font-size="2" font-family="ArialMT, Arial" style="isolation:isolate"><tspan x="0" y="0">palazzo</tspan></text></g><g transform="translate(38.908 17.787)" style="isolation:isolate"><text transform="translate(0.799 1.236) rotate(51.82)" fill="#ff6c39" font-size="2" font-family="ArialMT, Arial" style="isolation:isolate"><tspan x="0" y="0">parchi</tspan></text></g><g transform="translate(46.275 13.297)" style="isolation:isolate"><text transform="matrix(0.541, 0.841, -0.841, 0.541, 0.855, 1.082)" fill="#ff6c39" font-size="2" font-family="ArialMT, Arial" style="isolation:isolate"><tspan x="0" y="0">parco</tspan></text></g><g transform="translate(53.678 8.909)" style="isolation:isolate"><text transform="translate(0.904 0.916) rotate(62.73)" fill="#ff6c39" font-size="2" font-family="ArialMT, Arial" style="isolation:isolate"><tspan x="0" y="0">pesco</tspan></text></g><g transform="translate(61.475 5.139)" style="isolation:isolate"><text transform="translate(0.944 0.743) rotate(68.18)" fill="#ff6c39" font-size="2" font-family="ArialMT, Arial" style="isolation:isolate"><tspan x="0" y="0">piazza</tspan></text></g><g transform="translate(70.323 4.392)" style="isolation:isolate"><text transform="translate(0.976 0.563) rotate(73.64)" fill="#ff6c39" font-size="2" font-family="ArialMT, Arial" style="isolation:isolate"><tspan x="0" y="0">pino</tspan></text></g><g transform="translate(78.175 0)" style="isolation:isolate"><text transform="matrix(0.19, 0.982, -0.982, 0.19, 0.998, 0.381)" fill="#ff6c39" font-size="2" font-family="ArialMT, Arial" style="isolation:isolate"><tspan x="0" y="0">platano</tspan></text></g><g transform="translate(87.132 0.957)" style="isolation:isolate"><text transform="translate(1.012 0.19) rotate(84.55)" fill="#ff6c39" font-size="2" font-family="ArialMT, Arial" style="isolation:isolate"><tspan x="0" y="0">porto</tspan></text></g><g transform="translate(92.742 2.369)" style="isolation:isolate"><text transform="translate(2 5.028) rotate(-90)" fill="#ff6c39" font-size="2" font-family="ArialMT, Arial" style="isolation:isolate"><tspan x="0" y="0">prato</tspan></text></g><g transform="translate(100.796 0.49)" style="isolation:isolate"><text transform="translate(1.991 7.197) rotate(-84.55)" fill="#ff6c39" font-size="2" font-family="ArialMT, Arial" style="isolation:isolate"><tspan x="0" y="0">prigione</tspan></text></g><g transform="translate(108.805 5.388)" style="isolation:isolate"><text transform="matrix(0.19, -0.982, 0.982, 0.19, 1.963, 3.342)" fill="#ff6c39" font-size="2" font-family="ArialMT, Arial" style="isolation:isolate"><tspan x="0" y="0">riva</tspan></text></g><g transform="translate(116.693 4.183)" style="isolation:isolate"><text transform="translate(1.919 6.353) rotate(-73.64)" fill="#ff6c39" font-size="2" font-family="ArialMT, Arial" style="isolation:isolate"><tspan x="0" y="0">rovere</tspan></text></g><g transform="translate(124.396 5.794)" style="isolation:isolate"><text transform="translate(1.857 7.278) rotate(-68.18)" fill="#ff6c39" font-size="2" font-family="ArialMT, Arial" style="isolation:isolate"><tspan x="0" y="0">sagrato</tspan></text></g><g transform="translate(131.84 10.943)" style="isolation:isolate"><text transform="translate(1.778 5.386) rotate(-62.73)" fill="#ff6c39" font-size="2" font-family="ArialMT, Arial" style="isolation:isolate"><tspan x="0" y="0">salice</tspan></text></g><g transform="translate(138.956 13.266)" style="isolation:isolate"><text transform="matrix(0.541, -0.841, 0.841, 0.541, 1.682, 7.003)" fill="#ff6c39" font-size="2" font-family="ArialMT, Arial" style="isolation:isolate"><tspan x="0" y="0">spiaggia</tspan></text></g><g transform="translate(145.681 17.298)" style="isolation:isolate"><text transform="translate(1.572 7.56) rotate(-51.82)" fill="#ff6c39" font-size="2" font-family="ArialMT, Arial" style="isolation:isolate"><tspan x="0" y="0">stanzetta</tspan></text></g><g transform="translate(151.96 24.313)" style="isolation:isolate"><text transform="matrix(0.692, -0.722, 0.722, 0.692, 1.444, 5.74)" fill="#ff6c39" font-size="2" font-family="ArialMT, Arial" style="isolation:isolate"><tspan x="0" y="0">strada</tspan></text></g><g transform="translate(157.729 30.364)" style="isolation:isolate"><text transform="translate(1.3 5.442) rotate(-40.539)" fill="#ff6c39" font-size="2" font-family="ArialMT, Arial" style="isolation:isolate"><tspan x="0" y="0">susino</tspan></text></g><g transform="translate(162.921 32.282)" style="isolation:isolate"><text transform="translate(1.16 9.795) rotate(-35.45)" fill="#00c19c" font-size="2" font-family="ArialMT, Arial" style="isolation:isolate"><tspan x="0" y="0">villa d&apos;Ondariva</tspan></text></g><g transform="translate(197.466 4.766)" style="isolation:isolate"><text transform="translate(1.16 12.711) rotate(-35.45)" fill="#ff6c39" font-size="2" font-family="ArialMT, Arial" style="isolation:isolate"><tspan x="0" y="0">giardino (D&apos;Ondariva)</tspan></text></g><g transform="translate(167.517 41.028)" style="isolation:isolate"><text transform="translate(1 7.766) rotate(-30)" fill="#00c19c" font-size="2" font-family="ArialMT, Arial" style="isolation:isolate"><tspan x="0" y="0" letter-spacing="-0.07em">V</tspan><tspan y="0">asca Grande</tspan></text></g><g transform="translate(171.46 46.15)" style="isolation:isolate"><text transform="matrix(0.91, -0.415, 0.415, 0.91, 0.831, 9.758)" fill="#00c19c" font-size="2" font-family="ArialMT, Arial" style="isolation:isolate"><tspan x="0" y="0">Quercia delle Cinque</tspan></text></g><g transform="translate(172.735 54.055)" style="isolation:isolate"><text transform="matrix(0.924, -0.383, 0.383, 0.924, 0.767, 4.547)" fill="#00c19c" font-size="2" font-family="ArialMT, Arial" style="isolation:isolate"><tspan x="0" y="0">Passere</tspan></text></g><g transform="translate(177.251 66.202)" style="isolation:isolate"><text transform="matrix(0.97, -0.24, 0.24, 0.97, 0.48, 4.836)" fill="#00c19c" font-size="2" font-family="ArialMT, Arial" style="isolation:isolate"><tspan x="0" y="0">Porta Capperi</tspan></text></g><g transform="translate(179.079 74.973)" style="isolation:isolate"><text transform="translate(0.28 3.951) rotate(-8.049)" fill="#00c19c" font-size="2" font-family="ArialMT, Arial" style="isolation:isolate"><tspan x="0" y="0">villa d&apos;Ombrosa</tspan></text></g><g transform="translate(221.058 69.219)" style="isolation:isolate"><text transform="translate(0.28 3.669) rotate(-8.049)" fill="#ff6c39" font-size="2" font-family="ArialMT, Arial" style="isolation:isolate"><tspan x="0" y="0">giardino (villa)</tspan></text></g><g transform="translate(180.125 83.927)" style="isolation:isolate"><text transform="translate(0.095 3.004) rotate(-2.73)" fill="orange" font-size="2" font-family="ArialMT, Arial" style="isolation:isolate"><tspan x="0" y="0">Cammino dell&apos;Artiglieria</tspan></text></g></g><g transform="translate(1.967 0)"><path d="M119.635,377.249a61.386,61.386,0,1,1-61.386,61.386,61.386,61.386,0,0,1,61.386-61.386m0-.249a61.635,61.635,0,1,0,61.635,61.635A61.635,61.635,0,0,0,119.635,377Z" transform="translate(-26.223 -151.017)"/><path d="M170.761,112.807a61.938,61.938,0,1,1,6.109-26.852" transform="translate(-24.253 1.612)" fill="none" stroke="#00c19c" stroke-miterlimit="10" stroke-width="7"/><path d="M252.782,135.49a61.374,61.374,0,0,1-5.842,21.089" transform="translate(-100.432 -42.161)" fill="none" stroke="#ff6c39" stroke-miterlimit="10" stroke-width="7"/><path d="M256.827,126q0,2.915-.267,5.763" transform="translate(-104.21 -38.433)" fill="none" stroke="orange" stroke-miterlimit="10" stroke-width="7"/><text transform="translate(92.994 89.148)" fill="#1d1d1b" font-size="9" font-family="HKGrotesk-Regular, HK Grotesk"><tspan x="-36.78" y="0">Il ba</tspan><tspan y="0" letter-spacing="-0.04em">r</tspan><tspan y="0">one rampante</tspan></text><text transform="translate(92.994 289.503)" fill="#1d1d1b" font-size="9" font-family="HKGrotesk-Regular, HK Grotesk"><tspan x="-36.78" y="0">Il ba</tspan><tspan y="0" letter-spacing="-0.04em">r</tspan><tspan y="0">one rampante</tspan></text></g></g><g transform="translate(0 55)"><text transform="translate(1.967 173.059)" fill="#1d1d1b" font-size="10" font-family="HKGrotesk-MediumItalic, HK Grotesk" font-weight="500" font-style="italic" letter-spacing="-0.01em"><tspan x="0" y="0">Livelli spaziali: luoghi contenuti in altri luoghi</tspan></text></g><g transform="translate(-19 -297)"><text transform="translate(20.067 297)" fill="#404040" font-size="10" font-family="HKGrotesk-Bold, HK Grotesk" font-weight="700"><tspan x="0" y="9">TIPO DI LUOGO</tspan></text><text transform="translate(50 327)" font-size="10" font-family="HKGrotesk-Regular, HK Grotesk" style="isolation:isolate"><tspan x="0" y="0">Terrestri </tspan><tspan x="0" y="12">generici</tspan></text><rect width="21" height="10" rx="5" transform="translate(19 319)" fill="#ff6c39"/><rect width="21" height="10" rx="5" transform="translate(104 318)" fill="orange"/><text transform="translate(135 326)" font-size="10" font-family="HKGrotesk-Regular, HK Grotesk" style="isolation:isolate"><tspan x="0" y="0">Terrestri </tspan><tspan x="0" y="12">localizzabili</tspan></text><rect width="21" height="10" rx="5" transform="translate(199 318)" fill="#00c19c"/><text transform="translate(230 326.078)" font-size="10" font-family="HKGrotesk-Regular, HK Grotesk" style="isolation:isolate"><tspan x="0" y="0">Terrestri </tspan><tspan x="0" y="12">inventati</tspan></text></g></g></svg>