<svg xmlns="http://www.w3.org/2000/svg" xmlns:xlink="http://www.w3.org/1999/xlink" width="600" height="652" viewBox="0 0 600 652"><defs><clipPath id="b"><rect width="600" height="652"/></clipPath></defs><g id="a" clip-path="url(#b)"><text transform="translate(1.581 11)" font-size="10" font-family="HKGrotesk-Regular, HK Grotesk"><tspan x="0" y="0">Accenni criptici</tspan><tspan x="0" y="12">a un possibile</tspan><tspan x="0" y="24">tradimento</tspan></text><text transform="translate(208.719 11)" font-size="10" font-family="HKGrotesk-Regular, HK Grotesk"><tspan x="0" y="0">Rappresentazione</tspan><tspan x="0" y="12">esplicita del </tspan><tspan x="0" y="24">tradimento:</tspan><tspan x="0" y="36">due donne </tspan><tspan x="0" y="48">in scena</tspan><tspan x="0" y="60"></tspan></text><text transform="translate(325.719 11)" font-size="10" font-family="HKGrotesk-Regular, HK Grotesk"><tspan x="0" y="0">Tradimento </tspan><tspan x="0" y="12">con Lotaria:</tspan><tspan x="0" y="24">sorella/doppio </tspan><tspan x="0" y="36">di Ludmilla,</tspan><tspan x="0" y="48">moltiplicazione delle</tspan><tspan x="0" y="60">identità femminili,</tspan><tspan x="0" y="72">“infinite” donne </tspan><tspan x="0" y="84">in scena</tspan></text><text transform="translate(474.801 11)" font-size="10" font-family="HKGrotesk-Regular, HK Grotesk"><tspan x="0" y="0">Doppio fallimento </tspan><tspan x="0" y="12">erotico:</tspan><tspan x="0" y="24">due donne in scena,</tspan><tspan x="0" y="36">sdoppiamento </tspan><tspan x="0" y="48">e perdita</tspan><tspan x="0" y="60">dell’identità</tspan></text><text transform="translate(104 2)" font-size="10" font-family="HKGrotesk-Regular, HK Grotesk"><tspan x="0" y="9">Rivelazione del </tspan><tspan x="0" y="21">tradimento</tspan></text><g transform="translate(0 -39)"><g transform="translate(-51 -2997)"><g transform="translate(0 81)"><g transform="translate(39.281 2145.258)"><rect width="60.104" height="436.515" transform="translate(14.849 948.089)" fill="#ccc" opacity="0.2"/><rect width="44.54" height="436.515" transform="translate(119.786 948.089)" fill="#ccc" opacity="0.2"/><rect width="79.725" height="436.515" transform="translate(226.116 948.089)" fill="#ccc" opacity="0.2"/><rect width="90.711" height="436.322" transform="translate(486.834 948.287)" fill="#ccc" opacity="0.2"/><line y2="436.515" transform="translate(14.596 948.089)" fill="none" stroke="#5151fc" stroke-miterlimit="10" stroke-width="0.133" stroke-dasharray="1.944"/><line y2="436.515" transform="translate(74.995 948.338)" fill="none" stroke="#5151fc" stroke-miterlimit="10" stroke-width="0.133" stroke-dasharray="1.944"/><line y2="436.515" transform="translate(119.951 948.338)" fill="none" stroke="#5151fc" stroke-miterlimit="10" stroke-width="0.133" stroke-dasharray="1.944"/><line y2="436.515" transform="translate(164.263 948.338)" fill="none" stroke="#5151fc" stroke-miterlimit="10" stroke-width="0.133" stroke-dasharray="1.944"/><line y2="436.515" transform="translate(226.227 948.338)" fill="none" stroke="#5151fc" stroke-miterlimit="10" stroke-width="0.133" stroke-dasharray="1.944"/><line y2="436.515" transform="translate(305.908 948.338)" fill="none" stroke="#5151fc" stroke-miterlimit="10" stroke-width="0.133" stroke-dasharray="1.944"/><line y2="426.87" transform="translate(487.329 957.982)" fill="none" stroke="#5151fc" stroke-miterlimit="10" stroke-width="0.132" stroke-dasharray="1.922"/><line y2="426.87" transform="translate(577.509 957.982)" fill="none" stroke="#5151fc" stroke-miterlimit="10" stroke-width="0.132" stroke-dasharray="1.922"/></g><g transform="translate(38.281 2144.258)"><g opacity="0.41"><path d="M14.159,1383.827c3.251,0,6.5-108.587,9.754-151.423" fill="none" stroke="#7f7f7f" stroke-width="0.5"/><path d="M23.913,1232.4c1.984-26.14,3.968-69.888,5.952-69.888" fill="none" stroke="#7f7f7f" stroke-width="0.5"/><path d="M29.865,1162.516c1.934,0,3.867,69.888,5.8,69.888" fill="none" stroke="#7f7f7f" stroke-width="0.5"/><path d="M35.665,1232.4c1.485,0,2.969-40.653,4.453-58.24" fill="none" stroke="#7f7f7f" stroke-width="0.5"/><path d="M40.118,1174.164c1.459-17.3,2.919-35.219,4.378-46.592" fill="none" stroke="#7f7f7f" stroke-width="0.5"/><path d="M44.5,1127.572c1.916-14.926,3.831-23.3,5.746-23.3" fill="none" stroke="#7f7f7f" stroke-width="0.5"/><path d="M50.242,1104.276c1.337,0,2.674,139.776,4.01,139.776" fill="none" stroke="#7f7f7f" stroke-width="0.5"/><path d="M54.252,1244.052c1.235,0,2.469-221.312,3.7-221.312" fill="none" stroke="#7f7f7f" stroke-width="0.5"/><path d="M57.955,1022.74c1.309,0,2.618,221.312,3.927,221.312" fill="none" stroke="#7f7f7f" stroke-width="0.5"/><path d="M61.882,1244.052q1.829,0,3.657-104.832" fill="none" stroke="#7f7f7f" stroke-width="0.5"/><path d="M65.539,1139.22c.535-30.7,1.071-116.48,1.606-116.48" fill="none" stroke="#7f7f7f" stroke-width="0.5"/></g><g opacity="0.4"><path d="M164.192,1024.9c1.239,0-1.979,219.029-.74,219.029" fill="none" stroke="#7f7f7f" stroke-width="0.662"/><path d="M119.908,1266.891c3.2,39.261,6.409,116.479,9.614,116.479" fill="none" stroke="#7f7f7f" stroke-width="0.662"/><path d="M129.522,1383.37c2.436,0,4.873-209.663,7.309-209.663" fill="none" stroke="#7f7f7f" stroke-width="0.662"/><path d="M136.831,1173.707c1.979,0,3.958,209.663,5.937,209.663" fill="none" stroke="#7f7f7f" stroke-width="0.662"/><path d="M142.768,1383.37c1.03,0,2.059-209.663,3.089-209.663" fill="none" stroke="#7f7f7f" stroke-width="0.662"/><path d="M145.857,1173.707c1.519,0,3.039,209.663,4.558,209.663" fill="none" stroke="#7f7f7f" stroke-width="0.662"/><path d="M150.415,1383.37c1.194,0,2.388-209.663,3.582-209.663" fill="none" stroke="#7f7f7f" stroke-width="0.662"/><path d="M154,1173.707c.465,0,.931,11.648,1.4,11.648" fill="none" stroke="#7f7f7f" stroke-width="0.662"/><path d="M155.393,1185.355q1.357,0,2.715-11.648" fill="none" stroke="#7f7f7f" stroke-width="0.662"/><path d="M158.108,1173.707c1.024-8.791,2.048-58.24,3.073-58.24" fill="none" stroke="#7f7f7f" stroke-width="0.662"/><path d="M161.181,1115.467c.731,0,1.462,128.128,2.193,128.128" fill="none" stroke="#7f7f7f" stroke-width="0.662"/></g><path d="M486.886,1236.969c2.053,0,2.973-188.171,5.026-230.711" fill="none" stroke="#7f7f7f" stroke-width="0.7" opacity="0.4"/><path d="M491.912,1006.258q2.81-58.239,5.62-58.239" fill="none" stroke="#7f7f7f" stroke-width="0.7" opacity="0.4"/><path d="M497.532,948.019c.9,0,2.419,90.741,3.323,90.741" fill="none" stroke="#7f7f7f" stroke-width="0.7" opacity="0.4"/><path d="M500.855,1038.908c1.566,0,2.522-55.945,4.088-55.945" fill="none" stroke="#7f7f7f" stroke-width="0.7" opacity="0.4"/><path d="M504.943,982.963c3.016,0,6.1,132.378,9.119,132.378" fill="none" stroke="#7f7f7f" stroke-width="0.7" opacity="0.4"/><path d="M514.062,1115.341c3.01,0,5.949-92.134,8.959-92.134" fill="none" stroke="#7f7f7f" stroke-width="0.7" opacity="0.4"/><path d="M523.021,1023.207c2.127,0,4.255,274.251,6.383,274.251" fill="none" stroke="#7f7f7f" stroke-width="0.7" opacity="0.4"/><path d="M529.4,1297.458c1.817,0,3.634-274.251,5.452-274.251" fill="none" stroke="#7f7f7f" stroke-width="0.7" opacity="0.4"/><path d="M534.856,1023.207c.667,0,1.433,46.912,2.1,46.912" fill="none" stroke="#7f7f7f" stroke-width="0.7" opacity="0.4"/><path d="M536.957,1070.119c1.842,0,3.586-87.156,5.429-87.156" fill="none" stroke="#7f7f7f" stroke-width="0.7" opacity="0.4"/><path d="M542.386,982.963q4.319,0,8.638,58.239" fill="none" stroke="#7f7f7f" stroke-width="0.7" opacity="0.4"/><path d="M551.024,1041.2c1.922,25.917,3.843,256.256,5.765,256.256" fill="none" stroke="#7f7f7f" stroke-width="0.7" opacity="0.4"/><path d="M556.789,1297.458c.987,0,1.974-274.251,2.961-274.251" fill="none" stroke="#7f7f7f" stroke-width="0.7" opacity="0.4"/><path d="M559.75,1023.207c.5,0,1.1,46.912,1.6,46.912" fill="none" stroke="#7f7f7f" stroke-width="0.7" opacity="0.4"/><path d="M561.355,1070.119c.64,0,1.182-64.63,1.822-87.156" fill="none" stroke="#7f7f7f" stroke-width="0.7" opacity="0.4"/><path d="M563.177,982.963c.421-14.823.843-23.3,1.264-23.3" fill="none" stroke="#7f7f7f" stroke-width="0.7" opacity="0.4"/><path d="M564.441,959.667c1.944,0,3.889,337.791,5.833,337.791" fill="none" stroke="#7f7f7f" stroke-width="0.7" opacity="0.4"/><path d="M570.274,1297.458c2.413,0,4.7-153.344,7.109-274.285" fill="none" stroke="#7f7f7f" stroke-width="0.7" opacity="0.4"/><g opacity="0.4"><path d="M306.352,1070.049c1.911,0,28.492,45.009,30.4,45.009" fill="none" stroke="#7f7f7f" stroke-width="0.681" stroke-dasharray="2"/><path d="M336.755,1115.058c1.674,0,3.5-132.85,5.173-132.85" fill="none" stroke="#7f7f7f" stroke-width="0.681"/><path d="M341.928,982.208c1.458,0,2.916,25.951,4.374,55.485" fill="none" stroke="#7f7f7f" stroke-width="0.681"/><path d="M346.3,1037.693c1.132,22.935,2.265,67.33,3.4,88.776" fill="none" stroke="#7f7f7f" stroke-width="0.681"/><path d="M349.7,1126.469c4.3,81.378,8.594,82.283,12.891,122.068" fill="none" stroke="#7f7f7f" stroke-width="0.681"/><path d="M362.59,1248.537c4.922,45.575,9.844,133.164,14.766,133.164" fill="none" stroke="#7f7f7f" stroke-width="0.681"/><path d="M377.356,1381.7c1.854,0,3.708-300.172,5.562-332.911" fill="none" stroke="#7f7f7f" stroke-width="0.681"/><path d="M382.918,1048.79q2.512-44.388,5.026-44.388" fill="none" stroke="#7f7f7f" stroke-width="0.681"/><path d="M387.944,1004.4q2.5,0,5,33.291" fill="none" stroke="#7f7f7f" stroke-width="0.681"/><path d="M392.947,1037.693c1.223,16.27,2.445,344.008,3.668,344.008" fill="none" stroke="#7f7f7f" stroke-width="0.681"/><path d="M396.615,1381.7c1.191,0,2.381-399.493,3.572-399.493" fill="none" stroke="#7f7f7f" stroke-width="0.681"/><path d="M400.187,982.208c1.321,0,2.643,53.762,3.964,110.97" fill="none" stroke="#7f7f7f" stroke-width="0.681"/><path d="M404.151,1093.178c1.566,67.787,3.132,288.523,4.7,288.523" fill="none" stroke="#7f7f7f" stroke-width="0.681"/><path d="M408.849,1381.7c1.522,0,3.044-121.4,4.566-166.456" fill="none" stroke="#7f7f7f" stroke-width="0.681"/><path d="M413.415,1215.245c1.23-36.4,2.565-99.954,3.795-99.954" fill="none" stroke="#7f7f7f" stroke-width="0.681"/><path d="M417.21,1115.291c1.045,0,69.307,121.163,70.352,121.163" fill="none" stroke="#7f7f7f" stroke-width="0.681" stroke-dasharray="2"/></g><path d="M270.786,1023.6c1.014,0,1.987,122.78,3,122.78" fill="none" stroke="#7f7f7f" stroke-width="0.7" opacity="0.4"/><g opacity="0.4"><path d="M225.994,996.665c2.273,0,4.545,2.515,6.818,26.932" fill="none" stroke="#7f7f7f" stroke-width="0.7"/><path d="M232.812,1023.6c1.5,16.091,3,341.852,4.493,341.852" fill="none" stroke="#7f7f7f" stroke-width="0.7"/><path d="M237.3,1365.449q2.46,0,4.92-48.836" fill="none" stroke="#7f7f7f" stroke-width="0.7"/><path d="M242.225,1316.613c1.094-21.714,2.188-319.948,3.281-319.948" fill="none" stroke="#7f7f7f" stroke-width="0.7"/><path d="M245.506,996.665c.791,0,2.084,241.767,2.874,247.811" fill="none" stroke="#7f7f7f" stroke-width="0.7"/><path d="M248.1,1244.476c2.129,16.279,4.042,35.51,6.172,35.51" fill="none" stroke="#7f7f7f" stroke-width="0.7"/><path d="M254.267,1279.986q3.879,0,7.758-36.627" fill="none" stroke="#7f7f7f" stroke-width="0.7"/><path d="M262.025,1243.359c1.3-12.26,2.6-97.672,3.9-97.672" fill="none" stroke="#7f7f7f" stroke-width="0.7"/><path d="M265.92,1145.687c.68,0,1.359,183.135,2.038,183.135" fill="none" stroke="#7f7f7f" stroke-width="0.7"/><path d="M267.958,1328.822c.942,0,1.885-305.225,2.828-305.225" fill="none" stroke="#7f7f7f" stroke-width="0.7"/><path d="M273.787,1146.377c.787,0,1.616-122.78,2.4-122.78" fill="none" stroke="#7f7f7f" stroke-width="0.7"/><path d="M276.19,1023.6c3.293,0,6.63,47.168,9.923,47.168" fill="none" stroke="#7f7f7f" stroke-width="0.7"/><path d="M286.113,1070.765c3.8,0,7.561-111.04,11.364-111.04" fill="none" stroke="#7f7f7f" stroke-width="0.7"/><path d="M297.477,959.725c1.3,0,2.841,277.291,4.141,277.291" fill="none" stroke="#7f7f7f" stroke-width="0.7"/><path d="M301.665,1236.969c1.418,0,2.469-165.373,3.887-165.373" fill="none" stroke="#7f7f7f" stroke-width="0.7"/></g></g><g transform="translate(38.281 2144.258)"><text transform="translate(54.515 1098.316) rotate(-51.389)" font-size="7" font-family="HKGrotesk-Regular, HK Grotesk"><tspan x="0" y="0">telefonata</tspan></text><text transform="translate(164.15 1014.633) rotate(-51.389)" font-size="7" font-family="HKGrotesk-Regular, HK Grotesk"><tspan x="0" y="0">incontro femminile</tspan></text><text transform="translate(285.816 1062.338) rotate(-51.389)" font-size="7" font-family="HKGrotesk-Regular, HK Grotesk"><tspan x="0" y="0">scena erotica</tspan></text><text transform="translate(306.816 1062.338) rotate(-51.389)" font-size="7" font-family="HKGrotesk-Regular, HK Grotesk"><tspan x="0" y="0">scena erotica</tspan></text><text transform="translate(405.816 1062.338) rotate(-51.389)" font-size="7" font-family="HKGrotesk-Regular, HK Grotesk"><tspan x="0" y="0">scena erotica</tspan></text><text transform="translate(239.587 1362.815) rotate(-51.389)" font-size="6" font-family="HKGrotesk-Regular, HK Grotesk"><tspan x="0" y="0">situazione</tspan></text><text transform="translate(239.192 1341.503) rotate(-51.389)" font-size="6" font-family="HKGrotesk-Regular, HK Grotesk"><tspan x="0" y="0">attesa</tspan></text><text transform="translate(487.948 1233.721) rotate(-51.389)" font-size="6" font-family="HKGrotesk-Regular, HK Grotesk"><tspan x="0" y="0">angoscia/delusione</tspan></text><text transform="translate(529.609 1293.731) rotate(-51.389)" font-size="6" font-family="HKGrotesk-Regular, HK Grotesk"><tspan x="0" y="0">mistero/assurdità</tspan></text><text transform="translate(570.406 955.247) rotate(-51.389)" fill="#5151fc" font-size="6" font-family="HKGrotesk-Regular, HK Grotesk"><tspan x="0" y="0">rivelazione</tspan></text><text transform="translate(561.325 1062.259) rotate(-51.389)" font-size="7" font-family="HKGrotesk-Regular, HK Grotesk"><tspan x="0" y="0">scena erotica</tspan></text><text transform="translate(536.925 1062.259) rotate(-51.389)" font-size="7" font-family="HKGrotesk-Regular, HK Grotesk"><tspan x="0" y="0">scena erotica</tspan></text><line y2="457.528" transform="translate(210.793 926.775)" fill="#5151fc"/><line y2="453.801" transform="translate(467.6 929.571)" fill="#5151fc"/></g><g transform="translate(38.281 2144.258)"><circle cx="1.078" cy="1.078" r="1.078" transform="translate(56.831 1021.957)"/><circle cx="1.078" cy="1.078" r="1.078" transform="translate(48.854 1103.143)"/><circle cx="1.078" cy="1.078" r="1.078" transform="translate(64.875 1103.047)"/><circle cx="1.078" cy="1.078" r="1.078" transform="translate(43.683 1125.662)"/><circle cx="1.078" cy="1.078" r="1.078" transform="translate(34.299 1231.015)"/><circle cx="1.078" cy="1.078" r="1.078" transform="translate(22.849 1231.015)"/><circle cx="1.078" cy="1.078" r="1.078" transform="translate(13.236 1382.248)"/><circle cx="1.078" cy="1.078" r="1.078" transform="translate(53.214 1242.092)"/><circle cx="1.078" cy="1.078" r="1.078" transform="translate(60.824 1242.092)"/><circle cx="1.078" cy="1.078" r="1.078" transform="translate(28.657 1161.716)"/><circle cx="1.078" cy="1.078" r="1.078" transform="translate(38.977 1173.363)"/><circle cx="1.078" cy="1.078" r="1.078" transform="translate(64.498 1132.694)"/><circle cx="1.078" cy="1.078" r="1.078" transform="translate(66.071 1021.957)"/><circle cx="1.078" cy="1.078" r="1.078" transform="translate(231.73 1022.413)"/><circle cx="1.078" cy="1.078" r="1.078" transform="translate(224.834 995.75)"/><circle cx="1.078" cy="1.078" r="1.078" transform="translate(244.161 995.75)"/><circle cx="1.078" cy="1.078" r="1.078" transform="translate(269.769 1022.164)"/><circle cx="1.078" cy="1.078" r="1.078" transform="translate(275.416 1021.93)"/><circle cx="1.078" cy="1.078" r="1.078" transform="translate(118.944 1266.124)"/><circle cx="1.078" cy="1.078" r="1.078" transform="translate(236.541 1363.34)"/><circle cx="1.078" cy="1.078" r="1.078" transform="translate(247.201 1243.177)"/><circle cx="1.078" cy="1.078" r="1.078" transform="translate(253.261 1278.592)"/><circle cx="1.078" cy="1.078" r="1.078" transform="translate(162.444 1242.46)"/><circle cx="1.078" cy="1.078" r="1.078" transform="translate(300.522 1235.687)"/><circle cx="1.078" cy="1.078" r="1.078" transform="translate(261.647 1235.554)"/><circle cx="1.078" cy="1.078" r="1.078" transform="translate(128.415 1381.824)"/><circle cx="1.078" cy="1.078" r="1.078" transform="translate(141.575 1382.155)"/><circle cx="1.078" cy="1.078" r="1.078" transform="translate(149.424 1382.155)"/><circle cx="1.078" cy="1.078" r="1.078" transform="translate(152.698 1173.048)"/><circle cx="1.078" cy="1.078" r="1.078" transform="translate(156.853 1173.053)"/><circle cx="1.078" cy="1.078" r="1.078" transform="translate(160.191 1114.474)"/><circle cx="1.078" cy="1.078" r="1.078" transform="translate(264.644 1144.738)"/><circle cx="1.078" cy="1.078" r="1.078" transform="translate(272.852 1145.058)"/><circle cx="1.078" cy="1.078" r="1.078" transform="translate(285.091 1069.328)"/><circle cx="1.078" cy="1.078" r="1.078" transform="translate(304.469 1070.443)"/><circle cx="1.078" cy="1.078" r="1.078" transform="translate(154.404 1183.916)"/><circle cx="1.078" cy="1.078" r="1.078" transform="translate(144.737 1173.048)"/><circle cx="1.078" cy="1.078" r="1.078" transform="translate(135.864 1173.048)"/><circle cx="1.078" cy="1.078" r="1.078" transform="translate(296.262 958.844)"/><circle cx="1.078" cy="1.078" r="1.078" transform="translate(239.489 1342.78)"/><circle cx="1.078" cy="1.078" r="1.078" transform="translate(267.019 1329.155)"/><circle cx="1.078" cy="1.078" r="1.078" transform="translate(235.406 1323.456)"/><circle cx="1.078" cy="1.078" r="1.078" transform="translate(485.96 1235.307)"/><circle cx="1.078" cy="1.078" r="1.078" transform="translate(528.414 1295.887)"/><circle cx="1.078" cy="1.078" r="1.078" transform="translate(555.823 1295.887)"/><circle cx="1.078" cy="1.078" r="1.078" transform="translate(569.31 1295.887)"/><circle cx="1.078" cy="1.078" r="1.078" transform="translate(490.745 1006.691)"/><circle cx="1.078" cy="1.078" r="1.078" transform="translate(522.116 1022.059)"/><circle cx="1.078" cy="1.078" r="1.078" transform="translate(499.752 1037.573)"/><circle cx="1.078" cy="1.078" r="1.078" transform="translate(576.485 1021.677)"/><circle cx="1.078" cy="1.078" r="1.078" transform="translate(533.763 1022.059)"/><circle cx="1.078" cy="1.078" r="1.078" transform="translate(535.891 1068.622)"/><circle cx="1.078" cy="1.078" r="1.078" transform="translate(512.982 1114.459)"/><circle cx="1.078" cy="1.078" r="1.078" transform="translate(560.318 1068.622)"/><circle cx="1.078" cy="1.078" r="1.078" transform="translate(558.894 1022.059)"/><circle cx="1.078" cy="1.078" r="1.078" transform="translate(496.371 947.309)"/><circle cx="1.078" cy="1.078" r="1.078" transform="translate(503.88 982.095)"/><circle cx="1.078" cy="1.078" r="1.078" transform="translate(541.319 982.095)"/><circle cx="1.078" cy="1.078" r="1.078" transform="translate(563.425 958.598)"/><circle cx="1.078" cy="1.078" r="1.078" transform="translate(562.196 981.609)"/><circle cx="1.078" cy="1.078" r="1.078" transform="translate(341.067 981.63)"/><circle cx="1.078" cy="1.078" r="1.078" transform="translate(398.959 981.907)"/><circle cx="1.078" cy="1.078" r="1.078" transform="translate(335.754 1114.361)"/><circle cx="1.078" cy="1.078" r="1.078" transform="translate(344.537 1022.222)"/><circle cx="1.078" cy="1.078" r="1.078" transform="translate(390.532 1022.066)"/><circle cx="1.078" cy="1.078" r="1.078" transform="translate(386.924 1003.661)"/><circle cx="1.078" cy="1.078" r="1.078" transform="translate(382.003 1037.378)"/><circle cx="1.078" cy="1.078" r="1.078" transform="translate(402.203 1065.493)"/><circle cx="1.078" cy="1.078" r="1.078" transform="translate(348.52 1114.007)"/><circle cx="1.078" cy="1.078" r="1.078" transform="translate(416.009 1114.459)"/><circle cx="1.078" cy="1.078" r="1.078" transform="translate(360.919 1243.48)"/><circle cx="1.078" cy="1.078" r="1.078" transform="translate(376.097 1380.142)"/><circle cx="1.078" cy="1.078" r="1.078" transform="translate(395.534 1380.142)"/><circle cx="1.078" cy="1.078" r="1.078" transform="translate(407.687 1380.142)"/><circle cx="1.078" cy="1.078" r="1.078" transform="translate(412.384 1213.111)"/><circle cx="1.668" cy="1.668" r="1.668" transform="translate(12.956 1381.699)" stroke="#7f7f7f" stroke-miterlimit="10" stroke-width="1"/></g><circle cx="5.331" cy="5.331" r="5.331" transform="translate(82.96 3242.917)" fill="#fff" stroke="#5151fc" stroke-miterlimit="10" stroke-width="0.204"/><circle cx="2.149" cy="2.149" r="2.149" transform="translate(86.142 3246.099)" fill="#5151fc"/><g transform="translate(0 54)"><path d="M12.563,1390v4.763h62.52v-4.639" transform="translate(38.281 2095.258)" fill="none" stroke="#5151fc" stroke-miterlimit="10" stroke-width="0.5"/><path d="M119.749,1390v4.763h44.424v-4.738" transform="translate(38.281 2095.258)" fill="none" stroke="#5151fc" stroke-miterlimit="10" stroke-width="0.5"/><path d="M226.826,1390v4.763H305.9v-4.738" transform="translate(38.281 2095.258)" fill="none" stroke="#5151fc" stroke-miterlimit="10" stroke-width="0.5"/><path d="M487.426,1390v4.763l90.007.074-.242-4.812" transform="translate(38.281 2095.258)" fill="none" stroke="#5151fc" stroke-miterlimit="10" stroke-width="0.5"/><path d="M39.468,1394.555c0,28.745,102.5,29.83,102.5,0" transform="translate(38.281 2095.258)" fill="none" stroke="#5151fc" stroke-miterlimit="10" stroke-width="0.5"/><path d="M142.336,1394.555c0,28.745,126.974,29.83,126.974,0" transform="translate(38.281 2095.258)" fill="none" stroke="#5151fc" stroke-miterlimit="10" stroke-width="0.5"/><path d="M268.682,1394.555c0,28.745,113.383,29.83,113.383,0" transform="translate(38.281 2095.258)" fill="none" stroke="#5151fc" stroke-miterlimit="10" stroke-width="0.5"/><path d="M382.065,1394.565c0,28.745,152.9,29.82,152.9-.01" transform="translate(38.281 2095.258)" fill="none" stroke="#5151fc" stroke-miterlimit="10" stroke-width="0.5"/></g><circle cx="5.331" cy="5.331" r="5.331" transform="translate(319.142 3209.267)" fill="#fff" stroke="#5151fc" stroke-miterlimit="10" stroke-width="0.204"/><circle cx="2.149" cy="2.149" r="2.149" transform="translate(322.325 3212.449)" fill="#5151fc"/><circle cx="5.331" cy="5.331" r="5.331" transform="translate(338.63 3209.267)" fill="#fff" stroke="#5151fc" stroke-miterlimit="10" stroke-width="0.204"/><circle cx="2.149" cy="2.149" r="2.149" transform="translate(341.813 3212.449)" fill="#5151fc"/><circle cx="5.331" cy="5.331" r="5.331" transform="translate(436.064 3209.267)" fill="#fff" stroke="#5151fc" stroke-miterlimit="10" stroke-width="0.204"/><circle cx="2.149" cy="2.149" r="2.149" transform="translate(439.247 3212.449)" fill="#5151fc"/><circle cx="5.331" cy="5.331" r="5.331" transform="translate(569.892 3209.267)" fill="#fff" stroke="#5151fc" stroke-miterlimit="10" stroke-width="0.204"/><circle cx="2.149" cy="2.149" r="2.149" transform="translate(573.074 3212.449)" fill="#5151fc"/><circle cx="5.331" cy="5.331" r="5.331" transform="translate(594.256 3209.267)" fill="#fff" stroke="#5151fc" stroke-miterlimit="10" stroke-width="0.204"/><circle cx="2.149" cy="2.149" r="2.149" transform="translate(597.439 3212.449)" fill="#5151fc"/><circle cx="5.331" cy="5.331" r="5.331" transform="translate(597.45 3098.688)" fill="#fff" stroke="#5151fc" stroke-miterlimit="10" stroke-width="0.204"/><circle cx="2.149" cy="2.149" r="2.149" transform="translate(600.633 3101.87)" fill="#5151fc"/><circle cx="5.331" cy="5.331" r="5.331" transform="translate(88.96 3242.917)" fill="#fff" stroke="#5151fc" stroke-miterlimit="10" stroke-width="0.204"/><circle cx="2.149" cy="2.149" r="2.149" transform="translate(92.142 3246.099)" fill="#5151fc"/><circle cx="1.668" cy="1.668" r="1.668" transform="translate(156.237 3409.958)" stroke="#7f7f7f" stroke-miterlimit="10" stroke-width="1"/><circle cx="1.668" cy="1.668" r="1.668" transform="translate(201.237 3167.958)" stroke="#7f7f7f" stroke-miterlimit="10" stroke-width="1"/><g transform="translate(2 -81)"><circle cx="5.331" cy="5.331" r="5.331" transform="translate(88.96 3242.917)" fill="#fff" stroke="#5151fc" stroke-miterlimit="10" stroke-width="0.204"/><circle cx="2.149" cy="2.149" r="2.149" transform="translate(92.142 3246.099)" fill="#5151fc"/></g><g transform="translate(11 -81)"><circle cx="5.331" cy="5.331" r="5.331" transform="translate(88.96 3242.917)" fill="#fff" stroke="#5151fc" stroke-miterlimit="10" stroke-width="0.204"/><circle cx="2.149" cy="2.149" r="2.149" transform="translate(92.142 3246.099)" fill="#5151fc"/></g></g><g transform="translate(0 31)"><text transform="translate(53.266 3135.504)" font-size="10" font-family="HKGrotesk-Regular, HK Grotesk"><tspan x="0" y="0">i6</tspan></text><text transform="translate(157.853 3135.503)" font-size="10" font-family="HKGrotesk-Regular, HK Grotesk"><tspan x="0" y="0">i7</tspan></text><text transform="translate(264.4 3135.503)" font-size="10" font-family="HKGrotesk-Regular, HK Grotesk"><tspan x="0" y="0">i8</tspan></text><text transform="translate(524.832 3135.503)" font-size="10" font-family="HKGrotesk-Regular, HK Grotesk"><tspan x="0" y="0">i9</tspan></text><text transform="translate(376.543 3135.503)" font-size="10" font-family="HKGrotesk-Regular, HK Grotesk"><tspan x="0" y="0">t8</tspan></text></g></g><text transform="translate(49.432 242.891) rotate(-51.389)" font-size="7" font-family="HKGrotesk-Regular, HK Grotesk"><tspan x="0" y="0">incontro femminile</tspan></text><g transform="translate(57 -2997)"><circle cx="5.331" cy="5.331" r="5.331" transform="translate(88.96 3242.917)" fill="#fff" stroke="#5151fc" stroke-miterlimit="10" stroke-width="0.204"/><circle cx="2.149" cy="2.149" r="2.149" transform="translate(92.142 3246.099)" fill="#5151fc"/></g><rect width="37.246" height="10.988" rx="3" transform="translate(398.977 293.426)" fill="#fff" stroke="#5151fc" stroke-miterlimit="10" stroke-width="0.223"/><g transform="translate(398.977 293.426)"><text transform="translate(1.293 8.676)" fill="#5151fc" font-size="8.5" font-family="HKGrotesk-SemiBold, HK Grotesk" font-weight="600"><tspan x="0" y="0">LOTARIA</tspan></text></g><g transform="translate(-52 -1921)"><text transform="translate(53.086 2598)" fill="#5151fc" font-size="10" font-family="HKGrotesk-Regular, HK Grotesk"><tspan x="0" y="9">Costruzione del tradimento</tspan></text></g><g transform="translate(346 -1854)"><text transform="translate(53.086 2161)" fill="#5151fc" font-size="10" font-family="HKGrotesk-Italic, HK Grotesk" font-style="italic"><tspan x="0" y="9">Tradimento con </tspan><tspan x="0" y="21">un’altra donna</tspan></text></g></g></g></svg>