<svg id="Layer_1" data-name="Layer 1" xmlns="http://www.w3.org/2000/svg" xmlns:xlink="http://www.w3.org/1999/xlink" viewBox="0 0 58.7542 58.7542">
  <g id="NEW_Bussolablack" data-name="NEW Bussolablack">
    <g>
      <g>
        <path d="M29.3775,58.5099a29.133,29.133,0,1,1,29.133-29.133,29.16684,29.16684,0,0,1-29.133,29.133" fill="#fff"/>
        <path d="M29.3765.4891A28.888,28.888,0,1,1,.4885,29.3771,28.9208,28.9208,0,0,1,29.3765.4891m0-.489a29.377,29.377,0,1,0,29.378,29.377A29.377,29.377,0,0,0,29.3765.0001"/>
        <path d="M29.3775,55.965a26.588,26.588,0,1,1,26.587-26.588,26.61769,26.61769,0,0,1-26.587,26.588" fill="#fff"/>
        <path d="M29.3765,3.1893a26.188,26.188,0,1,1-26.187,26.188,26.2178,26.2178,0,0,1,26.187-26.188m0-.8a26.988,26.988,0,1,0,26.988,26.988,26.98786,26.98786,0,0,0-26.988-26.988"/>
      </g>
      <path d="M13.19288,38.52982,7.36963,40.86771l-.4458-1.11133,3.01563-4.01465L5.95411,37.34134,5.52491,36.272l5.82324-2.33691.44287,1.10254-2.9873,4.01269,3.96-1.58984Z"/>
      <path d="M13.83008,39.45364,16.46,42.69876l-.82569.669L13.73,41.0181l-1.126.91211,1.77392,2.18945-.82568.668-1.77392-2.18946L10.50586,43.6304l1.9043,2.35059-.82568.668L8.95459,43.40482Z"/>
      <path d="M17.15821,43.25833l.92773.68359-3.09033,4.19727,2.15332,1.58594-.62988.85547L13.438,48.312Z"/>
      <path d="M20.833,45.7847l1.06446.4414-1.99366,4.81543L22.37452,52.064l-.40625.98242-3.53516-1.46387Z"/>
      <path d="M24.97754,47.27591l1.25586.28125-1.65625,2.20312-.71191-.16015Z"/>
      <path d="M26.96534,51.01419a3.01809,3.01809,0,1,1,6.01172-.16113,3.01737,3.01737,0,1,1-6.01172.16113Zm4.85107-.12988c-.03564-1.332-.77-2.15918-1.91308-2.12793-1.12452.03027-1.82227.877-1.78614,2.22754.03614,1.34082.77881,2.14843,1.90332,2.11816C31.16358,53.07181,31.85206,52.20657,31.81641,50.88431Z"/>
      <path d="M33.67774,47.398l1.94629-.68164c1.333-.46777,2.22461-.13086,2.62012.999.40234,1.14649-.08594,2.01367-1.40235,2.47559l-.86621.30371.85742,2.44726-1.0791.37793Zm2.71094,1.82617c.66308-.23242.9707-.5498.77441-1.11133-.19043-.543-.59277-.60254-1.29-.3584l-.76465.26856.51563,1.46875Z"/>
      <path d="M38.30762,45.61282,41.7334,43.2222l.60743.87207-2.48047,1.73047.8291,1.18847,2.31152-1.6123.60742.87109-2.31054,1.61231.9375,1.34375,2.48047-1.73047.60742.87109-3.42578,2.39063Z"/>
      <path d="M49.37305,43.93118l-2.96679-.457-.23243.28711-.24414.30078,2.01367,1.63281-.71875.8877-4.875-3.9502,1.29786-1.60156c.95214-1.17578,1.88769-1.22851,2.76074-.52148a1.64322,1.64322,0,0,1,.61133,1.97851l3.1914.40821Zm-3.751-1.16211c.39648-.48925.57226-.94922.06933-1.35742-.49707-.40234-.89551-.11133-1.28613.3711l-.51074.62988,1.21679.98633Z"/>
      <path d="M51.61963,36.82864l-.89453,2.26953,1.01465.91309-.46,1.16406-4.91211-4.64648.31738-.80469L53.44385,35.69,52.981,36.86185Zm-1.10449-.01953-2.40625-.05859,1.79492,1.6084Z"/>
      <g>
        <path d="M29.3775,44.7672a15.39,15.39,0,1,1,15.39-15.39,15.40838,15.40838,0,0,1-15.39,15.39" fill="#fff"/>
        <path d="M29.3765,14.387a14.99,14.99,0,1,1-14.989,14.99,15.00635,15.00635,0,0,1,14.989-14.99m0-.8a15.79,15.79,0,1,0,15.791,15.79,15.78924,15.78924,0,0,0-15.791-15.79"/>
        <line x1="29.0953" y1="15.4313" x2="29.0953" y2="17.6223" fill="none" stroke="#000" stroke-miterlimit="10" stroke-width="0.845"/>
        <line x1="15.4029" y1="30.1632" x2="17.5939" y2="30.1632" fill="none" stroke="#000" stroke-miterlimit="10" stroke-width="0.845"/>
        <line x1="41.1607" y1="30.1632" x2="43.3507" y2="30.1632" fill="none" stroke="#000" stroke-miterlimit="10" stroke-width="0.845"/>
        <polygon points="27.705 29.26 33.005 23.441 30.542 30.939 25.242 36.759 27.705 29.26" fill="#fff"/>
        <path d="M32.1541,24.9013l-1.917,5.836-4.146,4.561,1.918-5.837,4.145-4.56m1.114-2.16a.23577.23577,0,0,0-.176.08l-5.669,6.238a.39583.39583,0,0,0-.025.045.1918.1918,0,0,0-.027.046l-2.625,7.989a.24205.24205,0,0,0,.232.319.23851.23851,0,0,0,.176-.081l5.669-6.238a.18806.18806,0,0,0,.024-.044.18275.18275,0,0,0,.028-.046l2.625-7.99a.24158.24158,0,0,0-.232-.318"/>
        <polygon points="27.697 29.31 30.51 30.955 32.858 23.684 27.697 29.31"/>
      </g>
      <path d="M8.11622,25.55911a3.01794,3.01794,0,1,1,1.875-5.71386,3.01728,3.01728,0,1,1-1.875,5.71386Zm1.51367-4.61035a1.89278,1.89278,0,0,0-2.64844,1.082c-.35156,1.06934.21094,2.01172,1.49414,2.4336a1.87359,1.87359,0,1,0,1.1543-3.51563Z"/>
      <path d="M15.61426,17.30814l-2.97851-.36622-.22461.29395-.23438.30859,2.06446,1.56934-.69239.90918L8.55469,16.22415l1.248-1.64062c.915-1.20411,1.84863-1.28516,2.74414-.6045a1.643,1.643,0,0,1,.6709,1.958l3.20312.31055Zm-3.78515-1.04688c.38183-.502.543-.9668.02734-1.35937-.50879-.38672-.89746-.084-1.27344.41015l-.49023.64649,1.24609.94726Z"/>
      <path d="M13.22364,10.90189l.88574-.73829,4.0127,4.82422-.88575.73828Z"/>
      <path d="M16.29883,8.53275l3.708-1.92481.49024.94336L17.81153,8.94485l.668,1.28614,2.5-1.29785.49023.94238-2.501,1.29785.75488,1.45508,2.68457-1.39453.48926.94336-3.708,1.9248Z"/>
      <path d="M27.65186,4.80325l1.05762,6.18555L27.52979,11.19,24.24073,7.396l.72363,4.23339-1.13574.19336L22.771,5.63724l1.17188-.2002,3.293,3.7666-.71972-4.206Z"/>
      <path d="M32.07911,6.09232,30.15479,5.813l.15234-1.05176,5.00684.72656L35.16163,6.5386,33.2378,6.26028l-.748,5.15821-1.15918-.168Z"/>
      <path d="M38.13379,11.9429l-2.24023-.96484-.94385.98633-1.14941-.4961,4.79736-4.76562.794.34179-.1753,6.75684-1.15771-.498Zm.0542-1.10351.1333-2.40235-1.66308,1.74414Z"/>
      <path d="M42.31006,16.54349l.58057-2.94434-.27686-.24414-.29052-.25586L40.6084,15.04251l-.85742-.75586,4.15039-4.706,1.54639,1.36425c1.13428,1,1.14844,1.93653.4043,2.78028a1.64473,1.64473,0,0,1-2.002.52832l-.541,3.17187Zm1.31787-3.69824c.47266.416.92481.61035,1.35352.125.42285-.48047.14795-.88965-.31787-1.30079l-.60791-.53515L43.02,12.30814Z"/>
      <path d="M45.02735,16.78275l.84082.82226a1.2116,1.2116,0,0,0-.29981,1.71484.87944.87944,0,0,0,1.24854.41993c.35937-.22266.40967-.63672.22412-1.61328-.24707-1.38477-.09473-2.043.68457-2.52735a1.76065,1.76065,0,0,1,2.49024.76074,2.03737,2.03737,0,0,1,.04394,2.23145l-1.00928-.49414a1.1111,1.1111,0,0,0,.08252-1.23047.71772.71772,0,0,0-.97461-.30469c-.34375.21485-.38867.60352-.20312,1.58008.28027,1.4375.10742,2.04492-.64942,2.5166a1.98016,1.98016,0,0,1-2.81543-.82324A2.29764,2.29764,0,0,1,45.02735,16.78275Z"/>
      <path d="M52.20215,20.66263l.37012,1.09082-5.94336,2.01367-.37012-1.0918Z"/>
    </g>
  </g>
</svg>
