<svg width='100' height='100'>
<g xmlns="http://www.w3.org/2000/svg" id="NEW_Bussolablack" data-name="NEW Bussolablack">
      <g style="clip-path: url(#clip-path-21)">
        <g style="clip-path: url(#clip-path-21)">
          <path d="M171.18717,102.95844A42.62035,42.62035,0,1,1,213.80752,60.3381a42.66985,42.66985,0,0,1-42.62035,42.62034" style="fill: #fff"/>
          <path d="M171.18571,18.07647a42.26192,42.26192,0,1,1-42.26192,42.26192,42.3099,42.3099,0,0,1,42.26192-42.26192m0-.71539a42.97731,42.97731,0,1,0,42.97877,42.97731,42.97725,42.97725,0,0,0-42.97877-42.97731"/>
          <path d="M171.18717,99.23536a38.89712,38.89712,0,1,1,38.89566-38.89712,38.94055,38.94055,0,0,1-38.89566,38.89712" style="fill: #fff"/>
          <path d="M171.18571,22.02675a38.31193,38.31193,0,1,1-38.31048,38.31193,38.35553,38.35553,0,0,1,38.31048-38.31193m0-1.17037a39.4823,39.4823,0,1,0,39.4823,39.4823,39.48211,39.48211,0,0,0-39.4823-39.4823"/>
        </g>
        <text transform="translate(135.95236 69.64878) rotate(68.12826)" style="font-size: 13.16666030883789px;font-family: HKGrotesk-Bold, HK Grotesk;font-weight: 700">N</text>
        <text transform="matrix(0.62958, 0.77694, -0.77694, 0.62958, 140.77726, 80.24635)" style="font-size: 13.166580200195312px;font-family: HKGrotesk-Bold, HK Grotesk;font-weight: 700">E</text>
        <text transform="translate(147.21912 87.54937) rotate(36.36294)" style="font-size: 13.166640281677246px;font-family: HKGrotesk-Bold, HK Grotesk;font-weight: 700">L</text>
        <text transform="translate(154.38349 92.52864) rotate(22.48672)" style="font-size: 13.166589736938477px;font-family: HKGrotesk-Bold, HK Grotesk;font-weight: 700">L</text>
        <text transform="translate(161.46945 95.25729) rotate(12.64204)" style="font-size: 13.166600227355957px;font-family: HKGrotesk-Bold, HK Grotesk;font-weight: 700">’</text>
        <text transform="translate(167.32384 96.60573) rotate(-1.54144)" style="font-size: 13.166560173034668px;font-family: HKGrotesk-Bold, HK Grotesk;font-weight: 700">O</text>
        <text transform="matrix(0.94369, -0.33082, 0.33082, 0.94369, 179.65354, 95.63737)" style="font-size: 13.166569709777832px;font-family: HKGrotesk-Bold, HK Grotesk;font-weight: 700">P</text>
        <text transform="matrix(0.82011, -0.5722, 0.5722, 0.82011, 188.77731, 92.07348)" style="font-size: 13.166589736938477px;font-family: HKGrotesk-Bold, HK Grotesk;font-weight: 700">E</text>
        <text transform="matrix(0.62958, -0.77694, 0.77694, 0.62958, 196.80067, 86.19381)" style="font-size: 13.166580200195312px;font-family: HKGrotesk-Bold, HK Grotesk;font-weight: 700">R</text>
        <text transform="translate(203.17475 77.67043) rotate(-68.47851)" style="font-size: 13.166560173034668px;font-family: HKGrotesk-Bold, HK Grotesk;font-weight: 700">A</text>
        <g style="clip-path: url(#clip-path-21)">
          <path d="M171.18717,82.85345a22.51492,22.51492,0,1,1,22.51492-22.51492,22.54181,22.54181,0,0,1-22.51492,22.51492" style="fill: #fff"/>
          <path d="M171.18571,38.40851a21.92974,21.92974,0,1,1-21.92827,21.92973,21.95366,21.95366,0,0,1,21.92827-21.92973m0-1.17037a23.1001,23.1001,0,1,0,23.10156,23.1001,23.099,23.099,0,0,0-23.10156-23.1001"/>
          <line x1="170.77433" y1="39.93627" x2="170.77433" y2="43.14161" style="fill: none;stroke: #000;stroke-miterlimit: 10;stroke-width: 1.23619928971743px"/>
          <line x1="150.74292" y1="61.48842" x2="153.94826" y2="61.48842" style="fill: none;stroke: #000;stroke-miterlimit: 10;stroke-width: 1.23619928971743px"/>
          <line x1="188.4255" y1="61.48842" x2="191.62937" y2="61.48842" style="fill: none;stroke: #000;stroke-miterlimit: 10;stroke-width: 1.23619928971743px"/>
          <polygon points="168.74 60.167 176.493 51.654 172.89 62.623 165.137 71.138 168.74 60.167" style="fill: #fff"/>
          <path d="M175.24922,53.79048l-2.80449,8.53782-6.06542,6.67255,2.80595-8.53928,6.064-6.67109m1.62974-3.16a.34491.34491,0,0,0-.25749.117l-8.2935,9.12593a.58026.58026,0,0,0-.03658.06583.28079.28079,0,0,0-.0395.0673l-3.84026,11.68756a.35412.35412,0,0,0,.33941.46669.349.349,0,0,0,.25748-.1185l8.2935-9.12593a.27513.27513,0,0,0,.03511-.06437.268.268,0,0,0,.041-.0673l3.84026-11.689a.35342.35342,0,0,0-.3394-.46522"/>
          <polygon points="168.728 60.241 172.844 62.647 176.279 52.01 168.728 60.241"/>
        </g>
        <text transform="matrix(0.31188, -0.95012, 0.95012, 0.31188, 144.25241, 56.6447)" style="font-size: 13.166620254516602px;font-family: HKGrotesk-Bold, HK Grotesk;font-weight: 700">O</text>
        <text transform="translate(147.47487 47.28608) rotate(-52.74071)" style="font-size: 13.166569709777832px;font-family: HKGrotesk-Bold, HK Grotesk;font-weight: 700">R</text>
        <text transform="translate(152.75418 40.9124) rotate(-39.75459)" style="font-size: 13.166600227355957px;font-family: HKGrotesk-Bold, HK Grotesk;font-weight: 700">I</text>
        <text transform="translate(155.54599 38.33505) rotate(-27.42911)" style="font-size: 13.166540145874023px;font-family: HKGrotesk-Bold, HK Grotesk;font-weight: 700">E</text>
        <text transform="translate(162.21009 34.87662) rotate(-9.70233)" style="font-size: 13.166529655456543px;font-family: HKGrotesk-Bold, HK Grotesk;font-weight: 700">N</text>
        <text transform="translate(171.21499 33.43176) rotate(8.25505)" style="font-size: 13.166549682617188px;font-family: HKGrotesk-Bold, HK Grotesk;font-weight: 700">T</text>
        <text transform="translate(177.61872 34.10163) rotate(23.30219)" style="font-size: 13.166500091552734px;font-family: HKGrotesk-Bold, HK Grotesk;font-weight: 700">A</text>
        <text transform="matrix(0.75001, 0.66142, -0.66142, 0.75001, 185.68131, 37.643)" style="font-size: 13.166589736938477px;font-family: HKGrotesk-Bold, HK Grotesk;font-weight: 700">R</text>
        <text transform="translate(191.69571 43.00797) rotate(58.0695)" style="font-size: 13.166589736938477px;font-family: HKGrotesk-Bold, HK Grotesk;font-weight: 700">S</text>
        <text transform="translate(195.57092 49.75887) rotate(71.28747)" style="font-size: 13.166540145874023px;font-family: HKGrotesk-Bold, HK Grotesk;font-weight: 700">I</text>
        <text transform="translate(196.8427 53.48066) rotate(78.684)" style="font-size: 13.166569709777832px;font-family: HKGrotesk-Bold, HK Grotesk;font-weight: 700"> </text>
      </g>
    </g>
</svg>