<svg id="Layer_1" data-name="Layer 1" xmlns="http://www.w3.org/2000/svg" xmlns:xlink="http://www.w3.org/1999/xlink" viewBox="0 0 58.7542 58.7542">
  <g id="NEW_Bussolablack" data-name="NEW Bussolablack">
    <g>
      <g>
        <path d="M29.3775,58.5099a29.133,29.133,0,1,1,29.133-29.133,29.16684,29.16684,0,0,1-29.133,29.133" fill="#fff"/>
        <path d="M29.3765.4891A28.888,28.888,0,1,1,.4885,29.3771,28.9208,28.9208,0,0,1,29.3765.4891m0-.489a29.377,29.377,0,1,0,29.378,29.377A29.377,29.377,0,0,0,29.3765.0001"/>
        <path d="M29.3775,55.965a26.588,26.588,0,1,1,26.587-26.588,26.61769,26.61769,0,0,1-26.587,26.588" fill="#fff"/>
        <path d="M29.3765,3.1893a26.188,26.188,0,1,1-26.187,26.188,26.2178,26.2178,0,0,1,26.187-26.188m0-.8a26.988,26.988,0,1,0,26.988,26.988,26.98786,26.98786,0,0,0-26.988-26.988"/>
      </g>
      <text transform="matrix(0.37253, 0.92802, -0.92802, 0.37253, 5.30721, 35.72922)" font-size="9.00003" font-family="HKGrotesk-Bold, HK Grotesk" font-weight="700">N</text>
      <text transform="translate(8.58653 42.94946) rotate(50.98087)" font-size="8.99997" font-family="HKGrotesk-Bold, HK Grotesk" font-weight="700">E</text>
      <text transform="matrix(0.80528, 0.5929, -0.5929, 0.80528, 12.96674, 47.96508)" font-size="9.00001" font-family="HKGrotesk-Bold, HK Grotesk" font-weight="700">L</text>
      <text transform="translate(17.89255 51.35869) rotate(22.48662)" font-size="8.99998" font-family="HKGrotesk-Bold, HK Grotesk" font-weight="700">L</text>
      <text transform="translate(22.73441 53.20338) rotate(12.64185)" font-size="8.99999" font-family="HKGrotesk-Bold, HK Grotesk" font-weight="700">’</text>
      <text transform="translate(26.72559 54.15502) rotate(-1.54144)" font-size="8.99996" font-family="HKGrotesk-Bold, HK Grotesk" font-weight="700">O</text>
      <text transform="matrix(0.94369, -0.33082, 0.33082, 0.94369, 35.20213, 53.5134)" font-size="8.99996" font-family="HKGrotesk-Bold, HK Grotesk" font-weight="700">P</text>
      <text transform="translate(41.41802 51.09363) rotate(-34.90389)" font-size="8.99998" font-family="HKGrotesk-Bold, HK Grotesk" font-weight="700">E</text>
      <text transform="translate(46.85053 47.04397) rotate(-50.98087)" font-size="8.99997" font-family="HKGrotesk-Bold, HK Grotesk" font-weight="700">R</text>
      <text transform="translate(51.27041 41.20029) rotate(-68.47877)" font-size="8.99996" font-family="HKGrotesk-Bold, HK Grotesk" font-weight="700">A</text>
      <g>
        <path d="M29.3775,44.7672a15.39,15.39,0,1,1,15.39-15.39,15.40838,15.40838,0,0,1-15.39,15.39" fill="#fff"/>
        <path d="M29.3765,14.387a14.99,14.99,0,1,1-14.989,14.99,15.00635,15.00635,0,0,1,14.989-14.99m0-.8a15.79,15.79,0,1,0,15.791,15.79,15.78924,15.78924,0,0,0-15.791-15.79"/>
        <line x1="29.0953" y1="15.4313" x2="29.0953" y2="17.6223" fill="none" stroke="#000" stroke-miterlimit="10" stroke-width="0.845"/>
        <line x1="15.4029" y1="30.1632" x2="17.5939" y2="30.1632" fill="none" stroke="#000" stroke-miterlimit="10" stroke-width="0.845"/>
        <line x1="41.1607" y1="30.1632" x2="43.3507" y2="30.1632" fill="none" stroke="#000" stroke-miterlimit="10" stroke-width="0.845"/>
        <polygon points="27.705 29.26 33.005 23.441 30.542 30.939 25.242 36.759 27.705 29.26" fill="#fff"/>
        <path d="M32.1541,24.9013l-1.917,5.836-4.146,4.561,1.918-5.837,4.145-4.56m1.114-2.16a.23577.23577,0,0,0-.176.08l-5.669,6.238a.39583.39583,0,0,0-.025.045.1918.1918,0,0,0-.027.046l-2.625,7.989a.24205.24205,0,0,0,.232.319.23851.23851,0,0,0,.176-.081l5.669-6.238a.18806.18806,0,0,0,.024-.044.18275.18275,0,0,0,.028-.046l2.625-7.99a.24158.24158,0,0,0-.232-.318"/>
        <polygon points="27.697 29.31 30.51 30.955 32.858 23.684 27.697 29.31"/>
      </g>
      <text transform="matrix(0.31188, -0.95012, 0.95012, 0.31188, 10.99192, 26.84419)" font-size="9" font-family="HKGrotesk-Bold, HK Grotesk" font-weight="700">O</text>
      <text transform="translate(13.18878 20.49617) rotate(-52.74062)" font-size="8.99997" font-family="HKGrotesk-Bold, HK Grotesk" font-weight="700">R</text>
      <text transform="matrix(0.76879, -0.6395, 0.6395, 0.76879, 16.78667, 16.09954)" font-size="8.99998" font-family="HKGrotesk-Bold, HK Grotesk" font-weight="700">I</text>
      <text transform="matrix(0.88758, -0.46065, 0.46065, 0.88758, 18.6709, 14.37134)" font-size="8.99994" font-family="HKGrotesk-Bold, HK Grotesk" font-weight="700">E</text>
      <text transform="translate(23.25243 11.9216) rotate(-9.70262)" font-size="8.99994" font-family="HKGrotesk-Bold, HK Grotesk" font-weight="700">N</text>
      <text transform="translate(29.39746 10.96998) rotate(8.25497)" font-size="8.99995" font-family="HKGrotesk-Bold, HK Grotesk" font-weight="700">T</text>
      <text transform="translate(33.7754 11.45774) rotate(23.30225)" font-size="8.99992" font-family="HKGrotesk-Bold, HK Grotesk" font-weight="700">A</text>
      <text transform="matrix(0.75001, 0.66142, -0.66142, 0.75001, 39.30528, 13.89387)" font-size="8.99998" font-family="HKGrotesk-Bold, HK Grotesk" font-weight="700">R</text>
      <text transform="translate(43.39493 17.5343) rotate(58.06952)" font-size="8.99998" font-family="HKGrotesk-Bold, HK Grotesk" font-weight="700">S</text>
      <text transform="matrix(0.32082, 0.94714, -0.94714, 0.32082, 46.07155, 22.12134)" font-size="8.99995" font-family="HKGrotesk-Bold, HK Grotesk" font-weight="700">I</text>
      <text transform="translate(46.93266 24.67067) rotate(78.68382)" font-size="8.99997" font-family="HKGrotesk-Bold, HK Grotesk" font-weight="700"> </text>
    </g>
  </g>
</svg>
