<?xml version="1.0" encoding="utf-8"?>
<!-- Generator: Adobe Illustrator 24.3.0, SVG Export Plug-In . SVG Version: 6.00 Build 0)  -->
<svg version="1.1" xmlns="http://www.w3.org/2000/svg" xmlns:xlink="http://www.w3.org/1999/xlink" x="0px" y="0px" width="58.8px"
	 height="58.8px" viewBox="0 0 58.8 58.8" style="enable-background:new 0 0 58.8 58.8;" xml:space="preserve">
<style type="text/css">
	.st0{clip-path:url(#SVGID_2_);fill:#FFFFFF;}
	.st1{clip-path:url(#SVGID_2_);}
	.st2{clip-path:url(#SVGID_4_);fill:#FFFFFF;}
	.st3{clip-path:url(#SVGID_4_);}
	.st4{fill:none;}
</style>
<g id="Layer_1">
</g>
<g id="bussolanera_en">
	<g>
		<defs>
			<rect id="SVGID_1_" x="0" y="0" width="58.8" height="58.8"/>
		</defs>
		<clipPath id="SVGID_2_">
			<use xlink:href="#SVGID_1_"  style="overflow:visible;"/>
		</clipPath>
		<path class="st0" d="M29.4,58.5c-16.1,0-29.1-13.1-29.1-29.1S13.3,0.2,29.4,0.2c16.1,0,29.1,13.1,29.1,29.1S45.4,58.5,29.4,58.5"
			/>
		<path class="st1" d="M29.4,0.5c15.9,0,28.9,13,28.9,28.9s-13,28.9-28.9,28.9c-15.9,0-28.9-13-28.9-28.9S13.4,0.5,29.4,0.5 M29.4,0
			C13.2,0,0,13.2,0,29.4s13.2,29.4,29.4,29.4c16.2,0,29.4-13.2,29.4-29.4S45.6,0,29.4,0"/>
		<path class="st0" d="M29.4,56C14.7,56,2.8,44,2.8,29.4S14.7,2.8,29.4,2.8C44,2.8,56,14.7,56,29.4S44,56,29.4,56"/>
		<path class="st1" d="M29.4,3.2c14.4,0,26.2,11.7,26.2,26.2S43.8,55.6,29.4,55.6c-14.4,0-26.2-11.7-26.2-26.2S14.9,3.2,29.4,3.2
			 M29.4,2.4c-14.9,0-27,12.1-27,27s12.1,27,27,27c14.9,0,27-12.1,27-27S44.3,2.4,29.4,2.4"/>
	</g>
	<g>
		<defs>
			<rect id="SVGID_3_" x="0" y="0" width="58.8" height="58.8"/>
		</defs>
		<clipPath id="SVGID_4_">
			<use xlink:href="#SVGID_3_"  style="overflow:visible;"/>
		</clipPath>
		<path class="st2" d="M29.4,44.8c-8.5,0-15.4-6.9-15.4-15.4S20.9,14,29.4,14s15.4,6.9,15.4,15.4S37.9,44.8,29.4,44.8"/>
		<path class="st3" d="M29.4,14.4c8.3,0,15,6.7,15,15s-6.7,15-15,15s-15-6.7-15-15S21.1,14.4,29.4,14.4 M29.4,13.6
			c-8.7,0-15.8,7.1-15.8,15.8s7.1,15.8,15.8,15.8c8.7,0,15.8-7.1,15.8-15.8S38.1,13.6,29.4,13.6"/>
		<g class="st3">
			<rect x="28.7" y="15.4" width="0.8" height="2.2"/>
		</g>
		<g class="st3">
			<rect x="15.4" y="29.7" width="2.2" height="0.8"/>
		</g>
		<g class="st3">
			<rect x="41.2" y="29.7" width="2.2" height="0.8"/>
		</g>
		<polygon class="st2" points="27.7,29.3 33,23.4 30.5,30.9 25.2,36.8 		"/>
		<path class="st3" d="M32.2,24.9l-1.9,5.8l-4.1,4.6l1.9-5.8L32.2,24.9 M33.3,22.7c-0.1,0-0.1,0-0.2,0.1l-5.7,6.2c0,0,0,0,0,0
			s0,0,0,0l-2.6,8c-0.1,0.2,0.1,0.3,0.2,0.3c0.1,0,0.1,0,0.2-0.1l5.7-6.2c0,0,0,0,0,0c0,0,0,0,0,0l2.6-8
			C33.6,22.9,33.4,22.7,33.3,22.7"/>
		<polygon class="st3" points="27.7,29.3 30.5,31 32.9,23.7 		"/>
	</g>
	<polygon class="st4" points="0.8,0 59.6,0 58.8,58.8 0,58.8 	"/>
	<g>
		<g>
			<path d="M10.1,19.5c-1.4-1-2.1-2.6-0.9-4.3s3-1.6,4.3-0.6c1.4,1,2.1,2.6,0.9,4.3C13.3,20.6,11.5,20.5,10.1,19.5z M12.9,15.6
				c-1-0.7-2.1-0.9-2.8,0.2c-0.8,1.1-0.2,2.1,0.7,2.8c1,0.7,2.1,0.9,2.9-0.2C14.4,17.2,13.9,16.2,12.9,15.6z"/>
			<path d="M13,11.1l1.5-1.2c1-0.8,2.1-0.8,2.9,0.1c0.7,0.9,0.4,2-0.6,2.8l-0.7,0.5l1.6,2L16.8,16L13,11.1z M16.1,11.9
				c0.6-0.5,0.7-0.9,0.4-1.3c-0.3-0.4-0.7-0.4-1.3,0l-0.7,0.5l0.9,1.2L16.1,11.9z"/>
			<path d="M18.2,7.5L22,5.9l0.4,0.9L19.6,8l0.6,1.4l2.6-1.1l0.4,0.9l-2.6,1.1l0.6,1.4l2.8-1.2l0.4,1l-3.8,1.6L18.2,7.5z"/>
			<path d="M24.7,5.2l1.1-0.1l3,4.1l-0.4-4.3l1.1-0.1l0.6,6.2L29,11l-3-4.1l0.4,4.3l-1.1,0.1L24.7,5.2z"/>
			<path d="M36,6.8l-1.9-0.6l0.3-1l4.8,1.5l-0.3,1L37,7.1l-1.6,5l-1.1-0.3L36,6.8z"/>
			<path d="M41.3,7.8l0.9,0.6l-1.5,2.1l2.2,1.5l1.5-2.1l0.9,0.6l-3.5,5.1l-0.9-0.6l1.5-2.1l-2.2-1.5l-1.5,2.1l-0.9-0.6L41.3,7.8z"/>
			<path d="M47.5,12.7l2.5,3.3l-0.8,0.6l-1.9-2.4l-1.2,1l1.7,2.2l-0.8,0.6l-1.7-2.2l-1.2,0.9l1.9,2.4l-0.8,0.7l-2.5-3.3L47.5,12.7z"
				/>
		</g>
	</g>
	<g>
		<g>
			<path d="M11.2,41.3c1.3-1.1,3.1-1.4,4.4,0.2c0.8,0.9,1,2.1,0.4,3.2l-1-0.5c0.5-0.7,0.3-1.4-0.2-2c-0.9-1-1.9-0.8-2.8-0.1
				c-0.9,0.8-1.3,1.8-0.4,2.9c0.5,0.6,1.1,0.8,2,0.5l0.4,1.1c-1.2,0.4-2.3,0-3.1-0.9C9.4,44.1,9.9,42.4,11.2,41.3z"/>
			<path d="M15.6,46.2c0.9-1.4,2.5-2.2,4.2-1.2c1.7,1.1,1.8,2.8,0.9,4.3c-0.9,1.4-2.5,2.2-4.2,1.2C14.7,49.4,14.7,47.6,15.6,46.2z
				 M19.7,48.7c0.6-1,0.7-2.1-0.4-2.8c-1.1-0.7-2.1-0.1-2.7,0.9c-0.6,1-0.7,2.1,0.4,2.8C18.1,50.3,19.1,49.7,19.7,48.7z"/>
			<path d="M22.7,46.8l1.5,0.3l0.8,4.6l2.5-4l1.5,0.3l-1.2,6.1l-1.1-0.2l0.9-4.6l-2.3,3.7l-1.1-0.2l-0.7-4.3l-0.9,4.6l-1.1-0.2
				L22.7,46.8z"/>
			<path d="M29.8,47.9l1.9-0.2c1.3-0.1,2.3,0.4,2.4,1.6c0.1,1.2-0.7,1.9-2,2l-0.8,0.1l0.3,2.6L30.5,54L29.8,47.9z M32,50.2
				c0.8-0.1,1-0.4,1-0.9c-0.1-0.5-0.4-0.8-1.2-0.7L31,48.8l0.2,1.5L32,50.2z"/>
			<path d="M35.9,46.6l0.8-0.3l4.6,4.8l-1.1,0.4l-0.9-1.1l-2.2,0.9l0.1,1.4l-1.1,0.5L35.9,46.6z M38.5,49.8L36.9,48l0.1,2.4
				L38.5,49.8z"/>
			<path d="M41.3,49.1l0.7-0.9c0.5,0.6,1.2,0.5,1.7,0.1c0.5-0.4,0.6-0.9,0.3-1.2c-0.8-1-2.9,1.1-4.1-0.5c-0.7-0.9-0.3-1.9,0.5-2.5
				c0.6-0.5,1.4-0.6,2.2-0.3l-0.4,1c-0.4-0.2-0.9-0.2-1.2,0.1c-0.4,0.3-0.5,0.7-0.2,1c0.7,0.9,2.9-1.2,4.1,0.5
				c0.7,0.9,0.4,2.1-0.6,2.8C43.4,49.8,42.2,49.9,41.3,49.1z"/>
			<path d="M45.6,45.7l0.5-1c0.6,0.4,1.3,0.2,1.7-0.3c0.4-0.5,0.4-1,0-1.3c-1-0.8-2.6,1.8-4.1,0.5c-0.9-0.7-0.8-1.8-0.1-2.6
				c0.5-0.6,1.2-0.9,2-0.8l-0.1,1.1c-0.5-0.1-0.9,0-1.1,0.4c-0.3,0.3-0.3,0.8,0,1c0.9,0.7,2.5-1.8,4.1-0.5c0.9,0.7,0.8,1.9,0.1,2.9
				C47.8,45.8,46.7,46.3,45.6,45.7z"/>
		</g>
	</g>
</g>
</svg>
