<svg id="Layer_1" data-name="Layer 1" xmlns="http://www.w3.org/2000/svg" xmlns:xlink="http://www.w3.org/1999/xlink" viewBox="0 0 123.61101 130">
  <g id="cancellazione">
    <g>
      <g>
        <path d="M51.5654,129.9997a51.5655,51.5655,0,1,1,51.566-51.565,51.62281,51.62281,0,0,1-51.566,51.565" fill="#fffffa"/>
        <path d="M2.0283,78.4342a49.537,49.537,0,1,1,49.537,49.537,49.53768,49.53768,0,0,1-49.537-49.537" fill="#fffffa"/>
        <circle cx="51.5653" cy="78.4342" r="49.537" fill="none" stroke="#5151fc" stroke-miterlimit="10"/>
        <path d="M66.5049,111.5592a14.022,14.022,0,0,1-10.513-4.744c-.203-.232-.397-.466-.583-.708-1.164-1.508-1.89-1.508-2.162-1.508a5.91059,5.91059,0,0,0-3.101,1.5,17.06766,17.06766,0,0,1-10.514,3.589h-.002a17.2306,17.2306,0,0,1-13.241-28.266c1.329-1.592,1.599-2.533,1.591-3.041-.005-.364-.144-.958-1.281-1.905a13.56316,13.56316,0,0,1,14.455-22.692,6.68194,6.68194,0,0,0,2.657.763c.5,0,1.429,0,2.511-2.306a12.16037,12.16037,0,0,1,10.964-6.961,12.00515,12.00515,0,0,1,5.14,1.151,12.16083,12.16083,0,0,1,6.803,12.896,3.81148,3.81148,0,0,0-.036,1.781h.002c.025,0,.127.039.33.073a7.94543,7.94543,0,0,1,6.57,9.115,8.00214,8.00214,0,0,1-1.383,3.352c-2.448,3.422-1.156,4.347.341,5.419a5.27675,5.27675,0,0,1,1.219,7.35c-.113.156-.233.304-.359.447a10.61528,10.61528,0,0,0,1.096,1.422,14.00843,14.00843,0,0,1-10.504,23.273" fill="#fffffa"/>
        <path d="M67.2246,59.0016c-.466,2.876.286,3.907,1.975,4.182a5.91683,5.91683,0,0,1,3.863,9.284c-3.117,4.354-1.575,6.541.809,8.248a3.2395,3.2395,0,0,1,.749,4.521,3.1873,3.1873,0,0,1-.492.545c-.651.574-.763,1.438,1.359,3.845a11.98077,11.98077,0,0,1-17.973,15.847c-.173-.196-.34-.398-.499-.605-2.186-2.832-4.515-3.148-8.109-.376a15.20024,15.20024,0,0,1-20.959-21.77c2.841-3.409,2.637-5.648.051-7.805a11.53416,11.53416,0,0,1,12.292-19.297c3.991,1.875,6.23.969,7.868-2.517a10.076,10.076,0,0,1,19.066,5.898" fill="#fffffa"/>
        <path d="M67.2246,59.0016c-.466,2.876.286,3.907,1.975,4.182a5.91683,5.91683,0,0,1,3.863,9.284c-3.117,4.354-1.575,6.541.809,8.248a3.2395,3.2395,0,0,1,.749,4.521,3.1873,3.1873,0,0,1-.492.545c-.651.574-.763,1.438,1.359,3.845a11.98077,11.98077,0,0,1-17.973,15.847c-.173-.196-.34-.398-.499-.605-2.186-2.832-4.515-3.148-8.109-.376a15.20024,15.20024,0,0,1-20.959-21.77c2.841-3.409,2.637-5.648.051-7.805a11.53416,11.53416,0,0,1,12.292-19.297c3.991,1.875,6.23.969,7.868-2.517a10.076,10.076,0,0,1,19.066,5.898Z" fill="none" stroke="#5151fc" stroke-miterlimit="10"/>
        <path d="M101.749,43.7243a21.8625,21.8625,0,1,1,21.861-21.862,21.88708,21.88708,0,0,1-21.861,21.862" fill="#fffffa"/>
        <path d="M81.915,21.862a19.8335,19.8335,0,1,1,19.833,19.833A19.833,19.833,0,0,1,81.915,21.862" fill="#fffffa"/>
        <path d="M81.915,21.862a19.8335,19.8335,0,1,1,19.833,19.833A19.833,19.833,0,0,1,81.915,21.862Z" fill="none" stroke="#5151fc" stroke-miterlimit="10"/>
        <path d="M105.7021,14.8278c.243.618.684.812,1.661.426a3.6216,3.6216,0,0,1,2.992,6.586c-.937.485-1.157,1.175-.479,2.483a5.05783,5.05783,0,0,1-8.715,5.108c-.814-1.238-1.629-1.405-2.766-.656a4.6515,4.6515,0,1,1-4.088-8.277c1.198-.417,1.339-.756,1.214-1.117a1.401,1.401,0,0,1,.532-1.615c.373-.256.477-.61-.034-1.355a2.805,2.805,0,0,1,4.625-3.175c.013.02.026.038.038.058.511.784.999.872,1.639.455a2.29433,2.29433,0,0,1,3.381,1.079" fill="#fffffa"/>
        <path d="M105.7021,14.8278c.243.618.684.812,1.661.426a3.6216,3.6216,0,0,1,2.992,6.586c-.937.485-1.157,1.175-.479,2.483a5.05783,5.05783,0,0,1-8.715,5.108c-.814-1.238-1.629-1.405-2.766-.656a4.6515,4.6515,0,1,1-4.088-8.277c1.198-.417,1.339-.756,1.214-1.117a1.401,1.401,0,0,1,.532-1.615c.373-.256.477-.61-.034-1.355a2.805,2.805,0,0,1,4.625-3.175c.013.02.026.038.038.058.511.784.999.872,1.639.455a2.29433,2.29433,0,0,1,3.381,1.079Z" fill="none" stroke="#5151fc" stroke-miterlimit="10"/>
      </g>
    </g>
  </g>
</svg>
