<svg id="Layer_1" data-name="Layer 1" xmlns="http://www.w3.org/2000/svg" xmlns:xlink="http://www.w3.org/1999/xlink" viewBox="0 0 130.399 129.769">
  <g id="cancellazioneColore">
    <g>
      <g>
        <path d="M52.9132,129.4847a52.631,52.631,0,1,1,52.631-52.63,52.68868,52.68868,0,0,1-52.631,52.63" fill="#fffffa"/>
        <path d="M52.9132,129.4847a52.631,52.631,0,1,1,52.631-52.63A52.68868,52.68868,0,0,1,52.9132,129.4847Z" fill="none" stroke="#fff" stroke-miterlimit="10" stroke-width="1.066"/>
        <path d="M103.3604,80.2639q.11248-1.6905.113-3.409a50.5275,50.5275,0,1,0-.113,3.409Z" fill="none" stroke="#5151fc" stroke-miterlimit="10" stroke-width="1.004"/>
        <path d="M69.4346,113.4144a15.47152,15.47152,0,0,1-11.603-5.236c-.223-.255-.438-.514-.643-.781-1.285-1.664-2.086-1.664-2.387-1.664a6.51243,6.51243,0,0,0-3.422,1.656,18.8439,18.8439,0,0,1-11.604,3.961h-.002a19.01668,19.01668,0,0,1-14.613-31.197c1.466-1.759,1.763-2.796,1.755-3.356-.005-.402-.159-1.058-1.414-2.103a14.96978,14.96978,0,0,1,15.954-25.045,7.3689,7.3689,0,0,0,2.932.843c.552,0,1.577,0,2.772-2.546a13.42085,13.42085,0,0,1,12.1-7.682,13.25051,13.25051,0,0,1,5.673,1.27,13.42162,13.42162,0,0,1,7.508,14.233,4.16774,4.16774,0,0,0-.038,1.966h.002c.026,0,.139.043.363.08a8.76832,8.76832,0,0,1,7.251,10.06,8.82765,8.82765,0,0,1-1.526,3.7c-2.703,3.776-1.276,4.797.377,5.98a5.82471,5.82471,0,0,1,1.344,8.113,5.91446,5.91446,0,0,1-.396.492,11.61694,11.61694,0,0,0,1.211,1.57,15.46148,15.46148,0,0,1-11.594,25.686" fill="#fffffa"/>
        <path d="M67.0059,60.03249c-.42,2.585.257,3.512,1.774,3.758a5.31909,5.31909,0,0,1,3.473,8.346c-2.802,3.914-1.416,5.879.728,7.415a2.91285,2.91285,0,0,1,.672,4.064,2.846,2.846,0,0,1-.442.489c-.585.516-.686,1.292,1.222,3.456a10.76926,10.76926,0,1,1-16.156,14.244c-.156-.175-.305-.357-.449-.542-1.965-2.547-4.057-2.832-7.288-.338a13.66473,13.66473,0,0,1-18.841-19.571c2.555-3.062,2.371-5.076.047-7.014a10.36811,10.36811,0,0,1,11.05-17.346c3.587,1.685,5.6.87,7.071-2.263a9.05791,9.05791,0,0,1,17.139,5.302" fill="#5151fc"/>
        <path d="M93.2628,18.6272a18.5105,18.5105,0,1,1,18.51,18.511,18.50973,18.50973,0,0,1-18.51-18.511" fill="#fff"/>
        <path d="M93.2628,18.6272a18.5105,18.5105,0,1,1,18.51,18.511A18.50973,18.50973,0,0,1,93.2628,18.6272Z" fill="none" stroke="#5151fc" stroke-miterlimit="10" stroke-width="1.004"/>
        <path d="M116.3839,11.53059c.269.681.753.894,1.83.47a3.99079,3.99079,0,0,1,3.298,7.257c-1.033.534-1.275,1.294-.529,2.737a5.57274,5.57274,0,0,1-9.603,5.627c-.897-1.362-1.795-1.547-3.049-.721a5.12592,5.12592,0,1,1-4.504-9.122c1.32-.459,1.476-.833,1.338-1.231a1.54473,1.54473,0,0,1,.586-1.78c.41-.282.526-.672-.038-1.492a3.09163,3.09163,0,1,1,5.098-3.499c.013.021.028.042.042.063.562.865,1.099.961,1.805.502a2.52537,2.52537,0,0,1,3.726,1.189" fill="#ff6c39"/>
      </g>
    </g>
  </g>
</svg>
