<svg id="Layer_1" data-name="Layer 1" xmlns="http://www.w3.org/2000/svg" xmlns:xlink="http://www.w3.org/1999/xlink" viewBox="0 0 123.61101 130">
  <g id="cancellazioneColore">
    <g>
      <g>
        <path d="M51.6715,130.1158a51.566,51.566,0,1,1,51.566-51.565,51.62281,51.62281,0,0,1-51.566,51.565" fill="#fffffa"/>
        <path d="M2.1344,78.5503a49.537,49.537,0,1,1,49.537,49.537,49.537,49.537,0,0,1-49.537-49.537" fill="#fffffa"/>
        <circle cx="51.6714" cy="78.5503" r="49.537" fill="none" stroke="#5151fc" stroke-miterlimit="10"/>
        <path d="M66.611,111.6754a14.01944,14.01944,0,0,1-10.513-4.745q-.3045-.3465-.584-.707c-1.163-1.508-1.889-1.508-2.162-1.508a5.90049,5.90049,0,0,0-3.1,1.5,17.06556,17.06556,0,0,1-10.514,3.589h-.002a17.23157,17.23157,0,0,1-13.241-28.267c1.329-1.592,1.598-2.532,1.591-3.041-.005-.363-.144-.958-1.281-1.904A13.56316,13.56316,0,0,1,41.26,53.9004a6.70256,6.70256,0,0,0,2.658.763c.499,0,1.427,0,2.51-2.306a12.15974,12.15974,0,0,1,10.964-6.961,12.00084,12.00084,0,0,1,5.14,1.15,12.16085,12.16085,0,0,1,6.803,12.896,3.81664,3.81664,0,0,0-.036,1.782h.002c.025,0,.127.039.33.072a7.94547,7.94547,0,0,1,6.57,9.115,8.01168,8.01168,0,0,1-1.383,3.353c-2.448,3.421-1.156,4.347.341,5.418a5.27794,5.27794,0,0,1,1.219,7.351,5.5659,5.5659,0,0,1-.36.446,10.73068,10.73068,0,0,0,1.097,1.423,14.009,14.009,0,0,1-10.504,23.273" fill="#fffffa"/>
        <path d="M67.3307,59.1168c-.467,2.876.286,3.907,1.975,4.182a5.91789,5.91789,0,0,1,3.863,9.285c-3.117,4.353-1.575,6.54.809,8.248a3.23864,3.23864,0,0,1,.257,5.065c-.651.574-.764,1.438,1.359,3.846a11.98115,11.98115,0,0,1-17.974,15.847c-.173-.197-.339-.398-.499-.605-2.186-2.833-4.514-3.149-8.108-.376a15.2006,15.2006,0,0,1-20.959-21.771c2.841-3.408,2.637-5.648.051-7.804a11.5346,11.5346,0,0,1,12.292-19.298c3.991,1.875,6.231.969,7.869-2.517a10.07565,10.07565,0,0,1,19.065,5.898" fill="#5151fc"/>
        <path d="M101.8551,43.8394a21.862,21.862,0,1,1,21.861-21.862,21.88708,21.88708,0,0,1-21.861,21.862" fill="#fffffa"/>
        <path d="M82.0211,21.9771a19.8335,19.8335,0,1,1,19.833,19.834,19.83359,19.83359,0,0,1-19.833-19.834" fill="#fffffa"/>
        <path d="M82.0211,21.9771a19.8335,19.8335,0,1,1,19.833,19.834A19.83359,19.83359,0,0,1,82.0211,21.9771Z" fill="none" stroke="#5151fc" stroke-miterlimit="10"/>
        <path d="M105.8082,14.9429c.243.619.684.812,1.661.427a3.62113,3.62113,0,0,1,2.992,6.585c-.937.485-1.157,1.175-.479,2.484a5.05754,5.05754,0,0,1-8.715,5.107c-.814-1.237-1.629-1.405-2.767-.655a4.65124,4.65124,0,1,1-4.087-8.278c1.198-.416,1.339-.756,1.214-1.117a1.401,1.401,0,0,1,.532-1.615c.372-.255.477-.61-.035-1.354a2.80537,2.80537,0,0,1,4.626-3.175c.013.019.026.037.038.057.511.785.999.872,1.639.455a2.28926,2.28926,0,0,1,3.169.67,2.33123,2.33123,0,0,1,.212.409" fill="#ff6c39"/>
      </g>
    </g>
  </g>
</svg>
