<svg id="Layer_1" data-name="Layer 1" xmlns="http://www.w3.org/2000/svg" viewBox="0 0 79.08528 79.08528">
  <g>
    <path d="M13.37305,31.56476l1.23144,1.35254a1.88177,1.88177,0,0,0-.62011,2.63281,1.369,1.369,0,0,0,1.89941.76562c.57715-.31542.69238-.95214.49365-2.48437-.25879-2.16992.03711-3.17578,1.29-3.85938,1.376-.75,2.92334-.1914,3.79443,1.40528a3.16684,3.16684,0,0,1-.1333,3.4668l-1.521-.86036a1.72274,1.72274,0,0,0,.23926-1.89843,1.11408,1.11408,0,0,0-1.48487-.56153c-.55273.30176-.65674.90039-.458,2.4336.30567,2.25586-.01806,3.18066-1.23437,3.84472-1.59668.87012-3.33545.22461-4.293-1.53125A3.57034,3.57034,0,0,1,13.37305,31.56476Z"/>
    <path d="M23.63525,35.54816l1.85547,2.61718c1.272,1.794,1.15088,3.27051-.36914,4.34864-1.54248,1.09375-3.04931.73633-4.30517-1.03516l-.82666-1.165-3.29151,2.333-1.02881-1.45117Zm-1.56787,4.83789c.63233.8916,1.24024,1.21582,1.99463.68066.73145-.51855.647-1.14551-.01709-2.083l-.72949-1.02832-1.977,1.40137Z"/>
    <path d="M25.35791,50.28253l-2.52246-2.83594L20.856,48.2132,19.562,46.75812l9.90235-3.55664.89355,1.00488-4.69922,9.4082-1.30322-1.46582Zm.80371-1.51953,1.771-3.2998-3.49317,1.36328Z"/>
    <path d="M38.20117,53.34894l-8.55859,1.59375,4.09863,3.54394-1.08057,1.249-5.95117-5.14551.81446-.94238,8.627-1.60938-3.897-3.36914,1.08007-1.249,5.71875,4.94336Z"/>
    <path d="M40.09668,53.012l1.457,1.043L35.874,61.98859l-1.457-1.043Z"/>
    <path d="M40.22754,59.23859c1.50684-2.65528,4.16016-3.499,6.5708-2.13086,2.43555,1.38281,3.07715,4.08105,1.563,6.748-1.50684,2.6543-4.165,3.4795-6.58789,2.1045C39.3623,64.59113,38.72754,61.88019,40.22754,59.23859Zm6.563,3.72558c1.02343-1.80273.71093-3.49316-.83545-4.37109-1.522-.86328-3.13184-.29688-4.169,1.53027-1.02978,1.81446-.69189,3.48731.83057,4.35156C44.16309,65.35284,45.77441,64.75421,46.79053,62.96417Z"/>
  </g>
  <path d="M79.08528,78.58528A78.58528,78.58528,0,0,1,.5,0" style="fill: none;stroke: #000;stroke-miterlimit: 10"/>
</svg>
