<svg id="Layer_1" data-name="Layer 1" xmlns="http://www.w3.org/2000/svg" viewBox="0 0 75.58496 75.58594">
  <g>
    <path d="M31.56445,65.71222,32.917,64.48077a1.88137,1.88137,0,0,0,2.63281.62012,1.36917,1.36917,0,0,0,.76563-1.89941c-.31543-.57715-.95215-.69239-2.48438-.49414-2.16992.25879-3.17578-.03711-3.85937-1.29-.75-1.375-.19141-2.92285,1.40527-3.79395a3.165,3.165,0,0,1,3.4668.13379l-.85937,1.52051a1.72268,1.72268,0,0,0-1.89942-.23926,1.11434,1.11434,0,0,0-.56152,1.48535c.30176.55274.90039.65625,2.43359.458,2.25586-.30566,3.18067.01758,3.84473,1.2334.87012,1.59766.22461,3.33594-1.53125,4.29394A3.571,3.571,0,0,1,31.56445,65.71222Z"/>
    <path d="M35.54785,55.4505,38.165,53.595c1.79394-1.27246,3.27051-1.15137,4.34863.36817,1.09375,1.543.73633,3.0498-1.03515,4.30566l-1.166.82715,2.334,3.291-1.45117,1.0293Zm4.83789,1.56738c.8916-.63183,1.21582-1.24023.68067-1.99414-.51856-.73144-1.14551-.64746-2.083.0166l-1.02832.7295,1.40137,1.97754Z"/>
    <path d="M50.2832,53.72784l-2.83691,2.52247.7666,1.98046-1.45508,1.293-3.55664-9.90136,1.00488-.89356,9.40821,4.69824-1.46582,1.30371Zm-1.52148-.80273-3.29883-1.77148,1.36328,3.49316Z"/>
    <path d="M53.34863,40.88507l1.59375,8.55859,3.544-4.09863,1.249,1.08008-5.14551,5.95215-.94238-.81543-1.60937-8.626L48.669,46.83234l-1.249-1.08008,4.94336-5.71875Z"/>
    <path d="M53.01172,38.98956l1.043-1.457,7.93359,5.67871-1.043,1.457Z"/>
    <path d="M59.23828,38.8587c-2.6543-1.50683-3.499-4.16015-2.13086-6.57129,1.38281-2.43457,4.08106-3.07617,6.748-1.5625,2.6543,1.50684,3.47949,4.165,2.10449,6.5879C64.59082,39.72394,61.87988,40.3587,59.23828,38.8587Zm3.72559-6.56347c-1.80274-1.02246-3.49317-.71094-4.3711.83593-.86425,1.52247-.29687,3.13184,1.53028,4.16895,1.81445,1.03027,3.4873.69141,4.35156-.83008C65.35254,34.92316,64.75391,33.31183,62.96387,32.29523Z"/>
  </g>
  <path d="M78.58505.00017A78.58527,78.58527,0,0,1-.00022,78.58545" style="fill: none;stroke: #000;stroke-miterlimit: 10"/>
</svg>
