<svg id="Layer_1" data-name="Layer 1" xmlns="http://www.w3.org/2000/svg" viewBox="0 0 82.39408 82.57736">
  <g>
    <path d="M2.42041,38.35556l3.56543-5.94433,1.417.85058L4.75928,37.669l1.93359,1.15918L9.019,34.94931l1.417.84961L8.10986,39.67783,11.7124,41.839l-.92187,1.53711Z"/>
    <path d="M10.84424,33.86631c-2.42481-1.85254-2.90137-4.59473-1.21875-6.79786,1.70019-2.22461,4.46094-2.49414,6.89648-.63281,2.42481,1.85352,2.88184,4.59863,1.19043,6.81152C16.02979,35.45029,13.2583,35.711,10.84424,33.86631Zm4.58105-5.99512c-1.6455-1.25781-3.36328-1.17871-4.44238.23437-1.0625,1.39063-.71875,3.0625.94922,4.33692,1.6582,1.2666,3.36133,1.1582,4.42383-.23145C17.43506,30.798,17.061,29.12021,15.42529,27.87119Z"/>
    <path d="M25.13428,24.47959l-4.53614-1.11231-.39843.41309-.41895.43359,2.90039,2.80371L21.44482,28.296l-7.01953-6.78515,2.2295-2.30567c1.63574-1.69238,3.09277-1.64746,4.35156-.43066a2.55649,2.55649,0,0,1,.67676,3.14844l4.8916,1.0664ZM19.479,22.16806c.68067-.70508,1.01563-1.39355.291-2.09472-.71484-.69141-1.37207-.294-2.04395.40136l-.876.90625L18.602,23.07431Z"/>
    <path d="M29.1499,8.22568l6.11524,7.60449-1.39649,1.12305-4.54492-5.65137L31.479,17.77939l-1.35351,1.08789-5.84668-3.47265,4.52734,5.62988-1.39648,1.123-6.11524-7.6045,1.99707-1.60547,6.19239,3.76954-2.33106-6.875Z"/>
    <path d="M40.59814,10.19931l-3.23828,1.97657.40235,2.083-1.66016,1.01465L34.36377,4.90341l1.14648-.70019,8.417,6.293L42.25439,11.5167ZM39.24561,9.13877,36.31494,6.81162l.71973,3.67676Z"/>
  </g>
  <path d="M3.809,82.57768A78.58528,78.58528,0,0,1,82.39432,3.9924" style="fill: none;stroke: #000;stroke-miterlimit: 10"/>
</svg>
