<svg id="Layer_1" data-name="Layer 1" xmlns="http://www.w3.org/2000/svg" viewBox="0 0 79.08528 79.08528">
  <g>
    <path d="M43.4316-1.3454,45.873.10968C48.65035,1.76691,49.3193,4.25226,47.6982,6.97,46.10641,9.639,43.68746,10.16925,40.86129,8.4837L38.43356,7.03448ZM41.55172,6.971c1.92383,1.14746,3.376,1.11816,4.63184-.98633,1.22656-2.05664.62207-3.39453-1.18164-4.46973L44.125.99054l-3.30664,5.543Z"/>
    <path d="M48.5527,9.11261l3.78222-4.94922,1.42383,1.08789-3.66308,4.794c-.89258,1.168-1.07618,2.03125.16992,2.9834s2.0498.54492,2.93359-.61231l3.66309-4.79394L58.2861,8.71027,54.54684,13.6048c-1.53907,2.01269-3.33594,2.24316-5.293.74707C47.29586,12.85675,47.04,11.09308,48.5527,9.11261Z"/>
    <path d="M60.456,10.58136,62.9316,12.9339c1.41016,1.34082,1.61621,2.81055.55567,3.92676a2.26224,2.26224,0,0,1-2.16992.73828,2.327,2.327,0,0,1-.51172,2.835c-1.22461,1.28906-2.83008,1.251-4.27051-.11914l-2.80078-2.66113Zm-2.88477,8.44043c.76074.72266,1.44434.71582,2.0127.11621a1.258,1.258,0,0,0-.168-1.93555L57.955,15.81378l-1.78418,1.87695Zm2.749-3.23926a1.08706,1.08706,0,0,0,1.68458.03711c.501-.52832.37792-1.12891-.21094-1.68848L60.61715,13.013l-1.52344,1.60254Z"/>
    <path d="M67.32613,17.31378l2.21875,2.59863c1.26465,1.48047,1.31641,2.96485.14454,3.96485A2.2624,2.2624,0,0,1,67.455,24.387a2.32941,2.32941,0,0,1-.80469,2.76758c-1.35254,1.15528-2.94531.9502-4.2373-.5625l-2.50977-2.93945Zm-3.74707,8.09863c.68262.79883,1.36231.86231,1.99121.32618a1.25994,1.25994,0,0,0,.03321-1.94434l-1.3086-1.53418-1.9707,1.68262Zm3.07227-2.93652a1.08706,1.08706,0,0,0,1.67285.21094c.55274-.47266.49219-1.083-.03516-1.70117l-1.05468-1.23535-1.6836,1.43652Z"/>
    <path d="M73.26949,24.58429l1.05664,1.44727-7.88086,5.7539L65.38863,30.3382Z"/>
    <path d="M71.61813,30.473c2.61132-1.58008,5.33886-1.02148,6.77441,1.35059,1.44922,2.39551.69043,5.06347-1.93262,6.65039-2.61132,1.58008-5.334,1.002-6.77636-1.38184C68.248,34.721,69.01949,32.04523,71.61813,30.473ZM75.52535,36.929c1.77246-1.07325,2.32617-2.7002,1.40528-4.22168-.90625-1.49707-2.58789-1.78907-4.38477-.70118-1.78418,1.08008-2.30664,2.70508-1.40137,4.20215C72.06539,37.7298,73.76363,37.99445,75.52535,36.929Z"/>
  </g>
  <path d="M0,.5A78.58528,78.58528,0,0,1,78.58528,79.08528" style="fill: none;stroke: #000;stroke-miterlimit: 10"/>
</svg>
