<svg id="Layer_1" data-name="Layer 1" xmlns="http://www.w3.org/2000/svg" viewBox="0 0 82.5776 82.39474">
  <g>
    <path d="M44.22136,2.4212,50.1657,5.98663l-.85059,1.417L44.90789,4.76007,43.74871,6.69366l3.8789,2.32618-.84961,1.417L42.8991,8.11066,40.738,11.7132l-1.53711-.92188Z"/>
    <path d="M48.71062,10.845c1.85254-2.4248,4.59473-2.90137,6.79785-1.21875,2.22461,1.7002,2.49414,4.46094.63281,6.89649-1.85351,2.4248-4.59863,2.88183-6.81152,1.19043C47.12664,16.03058,46.86589,13.25909,48.71062,10.845Zm5.99512,4.58106c1.25781-1.64551,1.17871-3.36328-.23438-4.44239-1.39062-1.0625-3.0625-.71875-4.33691.94922-1.2666,1.65821-1.1582,3.36133.23144,4.42383C51.779,17.43585,53.45671,17.06183,54.70574,15.42609Z"/>
    <path d="M58.09734,25.13507l1.1123-4.53613-.41308-.39844-.4336-.41894L55.55925,22.682l-1.27832-1.23633,6.78516-7.01953,2.30566,2.22949c1.69239,1.63574,1.64746,3.09277.43067,4.35156a2.55648,2.55648,0,0,1-3.14844.67676l-1.06641,4.8916Zm2.31152-5.65527c.70508.68066,1.39356,1.01562,2.09473.291.69141-.71484.29394-1.37207-.40137-2.04394l-.90625-.876-1.69336,1.752Z"/>
    <path d="M74.35125,29.1507l-7.6045,6.11523-1.123-1.39648,5.65136-4.54493L64.79753,31.4798l-1.08789-1.35352L67.1823,24.2796,61.55242,28.807l-1.123-1.39649,7.60449-6.11523,1.60547,1.99707L65.8698,29.48468l6.875-2.33105Z"/>
    <path d="M72.37761,40.59894l-1.97656-3.23828-2.083.40234-1.01465-1.66016,10.37012-1.73828.7002,1.14649-6.293,8.417-1.02051-1.67285Zm1.06055-1.35254,2.32715-2.93067-3.67676.71973Z"/>
  </g>
  <path d="M-.00048,3.80981A78.58528,78.58528,0,0,1,78.5848,82.39509" style="fill: none;stroke: #000;stroke-miterlimit: 10"/>
</svg>
