<svg id="Layer_1" data-name="Layer 1" xmlns="http://www.w3.org/2000/svg" xmlns:xlink="http://www.w3.org/1999/xlink" viewBox="0 0 131.287 120.662">
  <g id="dubitare">
    <g>
      <polygon points="4.929 0.644 4.929 3.555 4.907 3.555 4.907 88.1 0.643 88.1 0.643 88.163 0.643 94.665 0.643 99.077 0.643 106.128 0.643 120.018 4.929 120.018 9.179 120.018 11.824 120.018 13.476 120.018 16.111 120.018 17.762 120.018 20.361 120.018 24.658 120.018 94.106 120.018 98.289 120.018 101.066 120.018 102.511 120.018 105.288 120.018 106.749 120.018 109.47 120.018 110.987 120.018 113.693 120.018 115.225 120.018 117.929 120.018 119.463 120.018 122.169 120.018 126.406 120.018 130.644 120.018 130.644 117.311 130.644 95.764 130.644 95.636 130.644 80.958 130.644 76.362 126.463 76.362 126.463 27.616 126.406 27.616 126.406 25.17 122.241 25.17 122.241 21.925 122.169 21.925 122.169 19.069 117.929 19.069 113.855 19.069 113.855 16.105 113.693 16.105 113.693 13.396 102.511 13.396 102.511 25.869 102.511 32.858 102.511 39.217 94.106 39.217 94.106 39.363 93.942 39.363 93.942 52.586 81.938 52.586 20.361 52.586 20.361 49.229 16.146 49.229 16.146 3.555 16.111 3.555 16.111 0.644 4.929 0.644" fill="#fffff2"/>
      <g>
        <polygon points="126.463 76.362 126.463 27.617 126.405 27.617 126.405 25.171 122.241 25.171 122.241 21.925 122.169 21.925 122.169 19.069 117.93 19.069 113.856 19.069 113.856 16.105 113.693 16.105 113.693 13.396 102.511 13.396 102.511 25.87 102.511 32.858 102.511 39.217 94.107 39.217 94.107 39.363 93.942 39.363 93.942 52.587 81.939 52.587 20.362 52.587 20.362 49.229 16.146 49.229 16.146 3.555 16.112 3.555 16.112 0.644 4.929 0.644 4.929 3.555 4.907 3.555 4.907 88.1 0.644 88.1 0.644 88.163 0.644 94.666 0.644 99.078 0.644 106.129 0.644 120.018 4.929 120.018 9.179 120.018 11.824 120.018 13.477 120.018 16.112 120.018 17.762 120.018 20.362 120.018 24.658 120.018 94.107 120.018 98.289 120.018 101.067 120.018 102.511 120.018 105.288 120.018 106.749 120.018 109.471 120.018 110.987 120.018 113.693 120.018 115.225 120.018 117.93 120.018 119.463 120.018 122.169 120.018 126.405 120.018 130.644 120.018 130.644 117.311 130.644 95.764 130.644 95.636 130.644 80.959 130.644 76.362 126.463 76.362" fill="none" stroke="#fff" stroke-miterlimit="10" stroke-width="1.287"/>
      </g>
      <rect x="4.1" y="91.557" width="4.268" height="11.114" fill="#fffffa"/>
      <rect x="4.1" y="91.557" width="4.268" height="11.114" fill="none" stroke="#5151fc" stroke-miterlimit="10" stroke-width="1.014"/>
      <rect x="4.1" y="102.535" width="4.268" height="14.026" fill="#fffffa"/>
      <rect x="4.1" y="102.535" width="4.268" height="14.026" fill="none" stroke="#5151fc" stroke-miterlimit="10" stroke-width="1.014"/>
      <polyline points="4.101 94.666 4.101 91.62 8.369 91.62 8.369 94.666" fill="#fffffa"/>
      <polyline points="4.101 94.666 4.101 91.62 8.369 91.62 8.369 94.666" fill="none" stroke="#5151fc" stroke-miterlimit="10" stroke-width="1.014"/>
      <rect x="8.387" y="76.038" width="4.268" height="40.523" fill="#fffffa"/>
      <rect x="8.387" y="76.038" width="4.268" height="40.523" fill="none" stroke="#5151fc" stroke-miterlimit="10" stroke-width="1.014"/>
      <rect x="8.387" y="35.536" width="4.268" height="40.523" fill="#fffffa"/>
      <rect x="8.387" y="35.536" width="4.268" height="40.523" fill="none" stroke="#5151fc" stroke-miterlimit="10" stroke-width="1.014"/>
      <rect x="8.387" y="4.10001" width="4.268" height="31.547" fill="#fffffa"/>
      <rect x="8.387" y="4.10001" width="4.268" height="31.547" fill="none" stroke="#5151fc" stroke-miterlimit="10" stroke-width="1.014"/>
      <rect x="12.637" y="86.193" width="4.268" height="30.368" fill="#fffffa"/>
      <rect x="12.637" y="86.193" width="4.268" height="30.368" fill="none" stroke="#5151fc" stroke-miterlimit="10" stroke-width="1.014"/>
      <rect x="12.637" y="52.68501" width="4.268" height="8.038" fill="#fffffa"/>
      <rect x="12.637" y="52.68501" width="4.268" height="8.038" fill="none" stroke="#5151fc" stroke-miterlimit="10" stroke-width="1.014"/>
      <rect x="12.637" y="52.68501" width="4.268" height="8.038" fill="#fffffa"/>
      <rect x="12.637" y="52.68501" width="4.268" height="8.038" fill="none" stroke="#5151fc" stroke-miterlimit="10" stroke-width="1.014"/>
      <rect x="12.637" y="60.676" width="4.268" height="25.509" fill="#fffffa"/>
      <rect x="12.637" y="60.676" width="4.268" height="25.509" fill="none" stroke="#5151fc" stroke-miterlimit="10" stroke-width="1.014"/>
      <rect x="16.934" y="104.159" width="4.267" height="12.402" fill="#fffffa"/>
      <rect x="16.934" y="104.159" width="4.267" height="12.402" fill="none" stroke="#5151fc" stroke-miterlimit="10" stroke-width="1.014"/>
      <rect x="16.934" y="90.473" width="4.267" height="3.282" fill="#fffffa"/>
      <rect x="16.934" y="90.473" width="4.267" height="3.282" fill="none" stroke="#5151fc" stroke-miterlimit="10" stroke-width="1.014"/>
      <rect x="16.934" y="93.737" width="4.267" height="10.418" fill="#fffffa"/>
      <rect x="16.934" y="93.737" width="4.267" height="10.418" fill="none" stroke="#5151fc" stroke-miterlimit="10" stroke-width="1.014"/>
      <rect x="21.22" y="56.043" width="76.389" height="60.518" fill="#fffffa"/>
      <rect x="21.22" y="56.043" width="76.389" height="60.518" fill="none" stroke="#5151fc" stroke-miterlimit="10" stroke-width="1.014"/>
      <rect x="21.22" y="56.04401" width="76.389" height="33.368" fill="#fffffa"/>
      <rect x="21.22" y="56.04401" width="76.389" height="33.368" fill="none" stroke="#5151fc" stroke-miterlimit="10" stroke-width="1.014"/>
      <rect x="21.22" y="89.412" width="76.389" height="4.927" fill="#fffffa"/>
      <rect x="21.22" y="89.412" width="76.389" height="4.927" fill="none" stroke="#5151fc" stroke-miterlimit="10" stroke-width="1.014"/>
      <rect x="67.522" y="89.412" width="30.087" height="4.927" fill="#fffffa"/>
      <rect x="67.522" y="89.412" width="30.087" height="4.927" fill="none" stroke="#5151fc" stroke-miterlimit="10" stroke-width="1.014"/>
      <rect x="85.396" y="56.04401" width="12.213" height="33.368" fill="#fffffa"/>
      <rect x="85.396" y="56.04401" width="12.213" height="33.368" fill="none" stroke="#5151fc" stroke-miterlimit="10" stroke-width="1.014"/>
      <rect x="85.396" y="80.254" width="12.213" height="9.158" fill="#fffffa"/>
      <rect x="85.396" y="80.254" width="12.213" height="9.158" fill="none" stroke="#5151fc" stroke-miterlimit="10" stroke-width="1.014"/>
      <rect x="97.564" y="81.43401" width="4.268" height="35.127" fill="#fffffa"/>
      <rect x="97.564" y="81.43401" width="4.268" height="35.127" fill="none" stroke="#5151fc" stroke-miterlimit="10" stroke-width="1.014"/>
      <rect x="97.564" y="42.674" width="4.268" height="9.298" fill="#fffffa"/>
      <rect x="97.564" y="42.674" width="4.268" height="9.298" fill="none" stroke="#5151fc" stroke-miterlimit="10" stroke-width="1.014"/>
      <rect x="97.564" y="42.674" width="4.268" height="9.298" fill="#fffffa"/>
      <rect x="97.564" y="42.674" width="4.268" height="9.298" fill="none" stroke="#5151fc" stroke-miterlimit="10" stroke-width="1.014"/>
      <rect x="97.564" y="51.91701" width="4.268" height="29.507" fill="#fffffa"/>
      <rect x="97.564" y="51.91701" width="4.268" height="29.507" fill="none" stroke="#5151fc" stroke-miterlimit="10" stroke-width="1.014"/>
      <rect x="101.746" y="91.436" width="4.268" height="25.125" fill="#fffffa"/>
      <rect x="101.746" y="91.436" width="4.268" height="25.125" fill="none" stroke="#5151fc" stroke-miterlimit="10" stroke-width="1.014"/>
      <rect x="101.746" y="63.714" width="4.268" height="6.65" fill="#fffffa"/>
      <rect x="101.746" y="63.714" width="4.268" height="6.65" fill="none" stroke="#5151fc" stroke-miterlimit="10" stroke-width="1.014"/>
      <rect x="101.746" y="63.714" width="4.268" height="6.65" fill="#fffffa"/>
      <rect x="101.746" y="63.714" width="4.268" height="6.65" fill="none" stroke="#5151fc" stroke-miterlimit="10" stroke-width="1.014"/>
      <rect x="101.746" y="70.325" width="4.268" height="21.104" fill="#fffffa"/>
      <rect x="101.746" y="70.325" width="4.268" height="21.104" fill="none" stroke="#5151fc" stroke-miterlimit="10" stroke-width="1.014"/>
      <rect x="105.969" y="69.158" width="4.268" height="47.403" fill="#fffffa"/>
      <rect x="105.969" y="69.158" width="4.268" height="47.403" fill="none" stroke="#5151fc" stroke-miterlimit="10" stroke-width="1.014"/>
      <rect x="105.969" y="16.853" width="4.268" height="12.548" fill="#fffffa"/>
      <rect x="105.969" y="16.853" width="4.268" height="12.548" fill="none" stroke="#5151fc" stroke-miterlimit="10" stroke-width="1.014"/>
      <rect x="105.969" y="16.853" width="4.268" height="12.548" fill="#fffffa"/>
      <rect x="105.969" y="16.853" width="4.268" height="12.548" fill="none" stroke="#5151fc" stroke-miterlimit="10" stroke-width="1.014"/>
      <rect x="105.969" y="29.327" width="4.268" height="73.709" fill="#fffffa"/>
      <rect x="105.969" y="29.327" width="4.268" height="73.709" fill="none" stroke="#5151fc" stroke-miterlimit="10" stroke-width="1.014"/>
      <rect x="110.206" y="71.855" width="4.268" height="44.706" fill="#fffffa"/>
      <rect x="110.206" y="71.855" width="4.268" height="44.706" fill="none" stroke="#5151fc" stroke-miterlimit="10" stroke-width="1.014"/>
      <rect x="110.206" y="22.525" width="4.268" height="11.834" fill="#fffffa"/>
      <rect x="110.206" y="22.525" width="4.268" height="11.834" fill="none" stroke="#5151fc" stroke-miterlimit="10" stroke-width="1.014"/>
      <rect x="110.206" y="22.525" width="4.268" height="31.963" fill="#fffffa"/>
      <rect x="110.206" y="22.525" width="4.268" height="31.963" fill="none" stroke="#5151fc" stroke-miterlimit="10" stroke-width="1.014"/>
      <rect x="110.206" y="34.288" width="4.268" height="75.344" fill="#fffffa"/>
      <rect x="110.206" y="34.288" width="4.268" height="75.344" fill="none" stroke="#5151fc" stroke-miterlimit="10" stroke-width="1.014"/>
      <rect x="114.444" y="71.855" width="4.267" height="44.706" fill="#fffffa"/>
      <rect x="114.444" y="71.855" width="4.267" height="44.706" fill="none" stroke="#5151fc" stroke-miterlimit="10" stroke-width="1.014"/>
      <rect x="114.444" y="22.525" width="4.267" height="31.963" fill="#fffffa"/>
      <rect x="114.444" y="22.525" width="4.267" height="31.963" fill="none" stroke="#5151fc" stroke-miterlimit="10" stroke-width="1.014"/>
      <rect x="114.444" y="34.288" width="4.267" height="75.344" fill="#fffffa"/>
      <rect x="114.444" y="34.288" width="4.267" height="75.344" fill="none" stroke="#5151fc" stroke-miterlimit="10" stroke-width="1.014"/>
      <rect x="118.681" y="111.986" width="4.268" height="4.575" fill="#fffffa"/>
      <rect x="118.681" y="111.986" width="4.268" height="4.575" fill="none" stroke="#5151fc" stroke-miterlimit="10" stroke-width="1.014"/>
      <rect x="118.681" y="28.62801" width="4.268" height="41.53699" fill="#fffffa"/>
      <rect x="118.681" y="28.62801" width="4.268" height="41.53699" fill="none" stroke="#5151fc" stroke-miterlimit="10" stroke-width="1.014"/>
      <rect x="118.681" y="70.233" width="4.268" height="42.841" fill="#fffffa"/>
      <rect x="118.681" y="70.233" width="4.268" height="42.841" fill="none" stroke="#5151fc" stroke-miterlimit="10" stroke-width="1.014"/>
      <rect x="122.919" y="99.093" width="4.268" height="17.468" fill="#fffffa"/>
      <rect x="122.919" y="99.093" width="4.268" height="17.468" fill="none" stroke="#5151fc" stroke-miterlimit="10" stroke-width="1.014"/>
      <rect x="122.919" y="79.819" width="4.268" height="12.488" fill="#fffffa"/>
      <rect x="122.919" y="79.819" width="4.268" height="12.488" fill="none" stroke="#5151fc" stroke-miterlimit="10" stroke-width="1.014"/>
      <rect x="122.919" y="84.416" width="4.268" height="29.438" fill="#fffffa"/>
      <rect x="122.919" y="84.416" width="4.268" height="29.438" fill="none" stroke="#5151fc" stroke-miterlimit="10" stroke-width="1.014"/>
      <g>
        <path d="M12.6545,116.561V76.038H8.3865v40.523s4.141.128,4.268,0" fill="#fffffa"/>
        <path d="M12.6545,116.561V76.038H8.3865v40.523S12.5275,116.689,12.6545,116.561Z" fill="none" stroke="#5151fc" stroke-miterlimit="10" stroke-width="1.014"/>
      </g>
    </g>
  </g>
</svg>
