<svg id="Layer_1" data-name="Layer 1" xmlns="http://www.w3.org/2000/svg" xmlns:xlink="http://www.w3.org/1999/xlink" viewBox="0 0 132.22501 121.60001">
  <g id="dubitare">
    <g>
      <polygon points="5.398 1.113 5.398 4.024 5.376 4.024 5.376 88.569 1.112 88.569 1.112 88.632 1.112 95.134 1.112 99.546 1.112 106.597 1.112 120.487 5.398 120.487 9.648 120.487 12.293 120.487 13.945 120.487 16.58 120.487 18.231 120.487 20.83 120.487 25.127 120.487 94.575 120.487 98.758 120.487 101.535 120.487 102.98 120.487 105.757 120.487 107.218 120.487 109.939 120.487 111.456 120.487 114.162 120.487 115.694 120.487 118.398 120.487 119.932 120.487 122.638 120.487 126.875 120.487 131.113 120.487 131.113 117.78 131.113 96.233 131.113 96.105 131.113 81.427 131.113 76.831 126.932 76.831 126.932 28.085 126.875 28.085 126.875 25.639 122.71 25.639 122.71 22.394 122.638 22.394 122.638 19.538 118.398 19.538 114.324 19.538 114.324 16.574 114.162 16.574 114.162 13.865 102.98 13.865 102.98 26.338 102.98 33.327 102.98 39.686 94.575 39.686 94.575 39.832 94.411 39.832 94.411 53.055 82.407 53.055 20.83 53.055 20.83 49.698 16.615 49.698 16.615 4.024 16.58 4.024 16.58 1.113 5.398 1.113" fill="#fffff2"/>
      <g>
        <polygon points="126.932 76.831 126.932 28.086 126.874 28.086 126.874 25.64 122.71 25.64 122.71 22.394 122.638 22.394 122.638 19.538 118.399 19.538 114.325 19.538 114.325 16.574 114.162 16.574 114.162 13.865 102.98 13.865 102.98 26.339 102.98 33.327 102.98 39.686 94.576 39.686 94.576 39.832 94.411 39.832 94.411 53.056 82.408 53.056 20.831 53.056 20.831 49.698 16.615 49.698 16.615 4.024 16.581 4.024 16.581 1.113 5.398 1.113 5.398 4.024 5.376 4.024 5.376 88.569 1.113 88.569 1.113 88.632 1.113 95.135 1.113 99.547 1.113 106.598 1.113 120.487 5.398 120.487 9.648 120.487 12.293 120.487 13.946 120.487 16.581 120.487 18.231 120.487 20.831 120.487 25.127 120.487 94.576 120.487 98.758 120.487 101.536 120.487 102.98 120.487 105.757 120.487 107.218 120.487 109.94 120.487 111.456 120.487 114.162 120.487 115.694 120.487 118.399 120.487 119.932 120.487 122.638 120.487 126.874 120.487 131.113 120.487 131.113 117.78 131.113 96.233 131.113 96.105 131.113 81.428 131.113 76.831 126.932 76.831" fill="none" stroke="#fff" stroke-miterlimit="10" stroke-width="1.287"/>
      </g>
      <rect x="4.569" y="92.026" width="4.268" height="11.114" fill="#fffffa"/>
      <rect x="4.569" y="92.026" width="4.268" height="11.114" fill="none" stroke="#5151fc" stroke-miterlimit="10" stroke-width="1.014"/>
      <rect x="4.569" y="103.00401" width="4.268" height="14.026" fill="#fffffa"/>
      <rect x="4.569" y="103.00401" width="4.268" height="14.026" fill="none" stroke="#5151fc" stroke-miterlimit="10" stroke-width="1.014"/>
      <polyline points="4.57 95.135 4.57 92.089 8.838 92.089 8.838 95.135" fill="#fffffa"/>
      <polyline points="4.57 95.135 4.57 92.089 8.838 92.089 8.838 95.135" fill="none" stroke="#5151fc" stroke-miterlimit="10" stroke-width="1.014"/>
      <rect x="8.856" y="76.507" width="4.268" height="40.523" fill="#fffffa"/>
      <rect x="8.856" y="76.507" width="4.268" height="40.523" fill="none" stroke="#5151fc" stroke-miterlimit="10" stroke-width="1.014"/>
      <rect x="8.856" y="36.005" width="4.268" height="40.523" fill="#fffffa"/>
      <rect x="8.856" y="36.005" width="4.268" height="40.523" fill="none" stroke="#5151fc" stroke-miterlimit="10" stroke-width="1.014"/>
      <rect x="8.856" y="4.56901" width="4.268" height="31.547" fill="#fffffa"/>
      <rect x="8.856" y="4.56901" width="4.268" height="31.547" fill="none" stroke="#5151fc" stroke-miterlimit="10" stroke-width="1.014"/>
      <rect x="13.106" y="86.662" width="4.268" height="30.368" fill="#fffffa"/>
      <rect x="13.106" y="86.662" width="4.268" height="30.368" fill="none" stroke="#5151fc" stroke-miterlimit="10" stroke-width="1.014"/>
      <rect x="13.106" y="53.15401" width="4.268" height="8.038" fill="#fffffa"/>
      <rect x="13.106" y="53.15401" width="4.268" height="8.038" fill="none" stroke="#5151fc" stroke-miterlimit="10" stroke-width="1.014"/>
      <rect x="13.106" y="53.15401" width="4.268" height="8.038" fill="#fffffa"/>
      <rect x="13.106" y="53.15401" width="4.268" height="8.038" fill="none" stroke="#5151fc" stroke-miterlimit="10" stroke-width="1.014"/>
      <rect x="13.106" y="61.145" width="4.268" height="25.509" fill="#fffffa"/>
      <rect x="13.106" y="61.145" width="4.268" height="25.509" fill="none" stroke="#5151fc" stroke-miterlimit="10" stroke-width="1.014"/>
      <rect x="17.403" y="104.628" width="4.267" height="12.402" fill="#fffffa"/>
      <rect x="17.403" y="104.628" width="4.267" height="12.402" fill="none" stroke="#5151fc" stroke-miterlimit="10" stroke-width="1.014"/>
      <rect x="17.403" y="90.94201" width="4.267" height="3.282" fill="#fffffa"/>
      <rect x="17.403" y="90.94201" width="4.267" height="3.282" fill="none" stroke="#5151fc" stroke-miterlimit="10" stroke-width="1.014"/>
      <rect x="17.403" y="94.20601" width="4.267" height="10.418" fill="#fffffa"/>
      <rect x="17.403" y="94.20601" width="4.267" height="10.418" fill="none" stroke="#5151fc" stroke-miterlimit="10" stroke-width="1.014"/>
      <rect x="21.689" y="56.512" width="76.389" height="60.518" fill="#fffffa"/>
      <rect x="21.689" y="56.512" width="76.389" height="60.518" fill="none" stroke="#5151fc" stroke-miterlimit="10" stroke-width="1.014"/>
      <rect x="21.689" y="56.51301" width="76.389" height="33.368" fill="#fffffa"/>
      <rect x="21.689" y="56.51301" width="76.389" height="33.368" fill="none" stroke="#5151fc" stroke-miterlimit="10" stroke-width="1.014"/>
      <rect x="21.689" y="89.881" width="76.389" height="4.927" fill="#fffffa"/>
      <rect x="21.689" y="89.881" width="76.389" height="4.927" fill="none" stroke="#5151fc" stroke-miterlimit="10" stroke-width="1.014"/>
      <rect x="67.991" y="89.881" width="30.087" height="4.927" fill="#fffffa"/>
      <rect x="67.991" y="89.881" width="30.087" height="4.927" fill="none" stroke="#5151fc" stroke-miterlimit="10" stroke-width="1.014"/>
      <rect x="85.86501" y="56.51301" width="12.213" height="33.368" fill="#fffffa"/>
      <rect x="85.86501" y="56.51301" width="12.213" height="33.368" fill="none" stroke="#5151fc" stroke-miterlimit="10" stroke-width="1.014"/>
      <rect x="85.86501" y="80.723" width="12.213" height="9.158" fill="#fffffa"/>
      <rect x="85.86501" y="80.723" width="12.213" height="9.158" fill="none" stroke="#5151fc" stroke-miterlimit="10" stroke-width="1.014"/>
      <rect x="98.033" y="81.90301" width="4.268" height="35.127" fill="#fffffa"/>
      <rect x="98.033" y="81.90301" width="4.268" height="35.127" fill="none" stroke="#5151fc" stroke-miterlimit="10" stroke-width="1.014"/>
      <rect x="98.033" y="43.143" width="4.268" height="9.298" fill="#fffffa"/>
      <rect x="98.033" y="43.143" width="4.268" height="9.298" fill="none" stroke="#5151fc" stroke-miterlimit="10" stroke-width="1.014"/>
      <rect x="98.033" y="43.143" width="4.268" height="9.298" fill="#fffffa"/>
      <rect x="98.033" y="43.143" width="4.268" height="9.298" fill="none" stroke="#5151fc" stroke-miterlimit="10" stroke-width="1.014"/>
      <rect x="98.033" y="52.38601" width="4.268" height="29.507" fill="#fffffa"/>
      <rect x="98.033" y="52.38601" width="4.268" height="29.507" fill="none" stroke="#5151fc" stroke-miterlimit="10" stroke-width="1.014"/>
      <rect x="102.215" y="91.905" width="4.268" height="25.125" fill="#fffffa"/>
      <rect x="102.215" y="91.905" width="4.268" height="25.125" fill="none" stroke="#5151fc" stroke-miterlimit="10" stroke-width="1.014"/>
      <rect x="102.215" y="64.183" width="4.268" height="6.65" fill="#fffffa"/>
      <rect x="102.215" y="64.183" width="4.268" height="6.65" fill="none" stroke="#5151fc" stroke-miterlimit="10" stroke-width="1.014"/>
      <rect x="102.215" y="64.183" width="4.268" height="6.65" fill="#fffffa"/>
      <rect x="102.215" y="64.183" width="4.268" height="6.65" fill="none" stroke="#5151fc" stroke-miterlimit="10" stroke-width="1.014"/>
      <rect x="102.215" y="70.79401" width="4.268" height="21.104" fill="#fffffa"/>
      <rect x="102.215" y="70.79401" width="4.268" height="21.104" fill="none" stroke="#5151fc" stroke-miterlimit="10" stroke-width="1.014"/>
      <rect x="106.438" y="69.62701" width="4.268" height="47.403" fill="#fffffa"/>
      <rect x="106.438" y="69.62701" width="4.268" height="47.403" fill="none" stroke="#5151fc" stroke-miterlimit="10" stroke-width="1.014"/>
      <rect x="106.438" y="17.322" width="4.268" height="12.548" fill="#fffffa"/>
      <rect x="106.438" y="17.322" width="4.268" height="12.548" fill="none" stroke="#5151fc" stroke-miterlimit="10" stroke-width="1.014"/>
      <rect x="106.438" y="17.322" width="4.268" height="12.548" fill="#fffffa"/>
      <rect x="106.438" y="17.322" width="4.268" height="12.548" fill="none" stroke="#5151fc" stroke-miterlimit="10" stroke-width="1.014"/>
      <rect x="106.438" y="29.79601" width="4.268" height="73.709" fill="#fffffa"/>
      <rect x="106.438" y="29.79601" width="4.268" height="73.709" fill="none" stroke="#5151fc" stroke-miterlimit="10" stroke-width="1.014"/>
      <rect x="110.675" y="72.32401" width="4.268" height="44.706" fill="#fffffa"/>
      <rect x="110.675" y="72.32401" width="4.268" height="44.706" fill="none" stroke="#5151fc" stroke-miterlimit="10" stroke-width="1.014"/>
      <rect x="110.675" y="22.994" width="4.268" height="11.834" fill="#fffffa"/>
      <rect x="110.675" y="22.994" width="4.268" height="11.834" fill="none" stroke="#5151fc" stroke-miterlimit="10" stroke-width="1.014"/>
      <rect x="110.675" y="22.994" width="4.268" height="31.963" fill="#fffffa"/>
      <rect x="110.675" y="22.994" width="4.268" height="31.963" fill="none" stroke="#5151fc" stroke-miterlimit="10" stroke-width="1.014"/>
      <rect x="110.675" y="34.757" width="4.268" height="75.344" fill="#fffffa"/>
      <rect x="110.675" y="34.757" width="4.268" height="75.344" fill="none" stroke="#5151fc" stroke-miterlimit="10" stroke-width="1.014"/>
      <rect x="114.913" y="72.32401" width="4.267" height="44.706" fill="#fffffa"/>
      <rect x="114.913" y="72.32401" width="4.267" height="44.706" fill="none" stroke="#5151fc" stroke-miterlimit="10" stroke-width="1.014"/>
      <rect x="114.913" y="22.994" width="4.267" height="31.963" fill="#fffffa"/>
      <rect x="114.913" y="22.994" width="4.267" height="31.963" fill="none" stroke="#5151fc" stroke-miterlimit="10" stroke-width="1.014"/>
      <rect x="114.913" y="34.757" width="4.267" height="75.344" fill="#fffffa"/>
      <rect x="114.913" y="34.757" width="4.267" height="75.344" fill="none" stroke="#5151fc" stroke-miterlimit="10" stroke-width="1.014"/>
      <rect x="119.15" y="112.455" width="4.268" height="4.575" fill="#fffffa"/>
      <rect x="119.15" y="112.455" width="4.268" height="4.575" fill="none" stroke="#5151fc" stroke-miterlimit="10" stroke-width="1.014"/>
      <rect x="119.15" y="29.09701" width="4.268" height="41.53699" fill="#fffffa"/>
      <rect x="119.15" y="29.09701" width="4.268" height="41.53699" fill="none" stroke="#5151fc" stroke-miterlimit="10" stroke-width="1.014"/>
      <rect x="119.15" y="70.702" width="4.268" height="42.841" fill="#fffffa"/>
      <rect x="119.15" y="70.702" width="4.268" height="42.841" fill="none" stroke="#5151fc" stroke-miterlimit="10" stroke-width="1.014"/>
      <rect x="123.388" y="99.562" width="4.268" height="17.468" fill="#fffffa"/>
      <rect x="123.388" y="99.562" width="4.268" height="17.468" fill="none" stroke="#5151fc" stroke-miterlimit="10" stroke-width="1.014"/>
      <rect x="123.388" y="80.28801" width="4.268" height="12.488" fill="#fffffa"/>
      <rect x="123.388" y="80.28801" width="4.268" height="12.488" fill="none" stroke="#5151fc" stroke-miterlimit="10" stroke-width="1.014"/>
      <rect x="123.388" y="84.88501" width="4.268" height="29.438" fill="#fffffa"/>
      <rect x="123.388" y="84.88501" width="4.268" height="29.438" fill="none" stroke="#5151fc" stroke-miterlimit="10" stroke-width="1.014"/>
      <g>
        <path d="M13.1235,117.03V76.507H8.8555V117.03s4.141.128,4.268,0" fill="#fffffa"/>
        <path d="M13.1235,117.03V76.507H8.8555V117.03S12.9965,117.158,13.1235,117.03Z" fill="none" stroke="#5151fc" stroke-miterlimit="10" stroke-width="1.014"/>
      </g>
    </g>
  </g>
</svg>
