<svg id="Layer_1" data-name="Layer 1" xmlns="http://www.w3.org/2000/svg" xmlns:xlink="http://www.w3.org/1999/xlink" viewBox="0 0 128.813 127.59201">
  <g id="elenchiColore">
    <g>
      <g>
        <path d="M49.9322,8.42722l-.007-.008a35.93486,35.93486,0,1,0,.007.008m-15.145,37.772h-.003a17.6998,17.6998,0,1,1,6.969-29.469l.001.001a17.70092,17.70092,0,0,1-6.967,29.468" fill="#fffffa"/>
        <path d="M37.7071,55.27641l-2.274-7.059a19.821,19.821,0,0,0,7.807-32.998l5.198-5.29a27.23661,27.23661,0,0,1-10.731,45.347" fill="#00c19c"/>
        <path d="M29.3507,56.583A27.232,27.232,0,1,1,48.4397,9.93l-5.201,5.29a19.80238,19.80238,0,1,0-7.806,32.998l2.274,7.058a27.17565,27.17565,0,0,1-8.356,1.307" fill="orange"/>
        <path d="M81.13549,46.45752h-.002a41.16807,41.16807,0,0,0-6.023-.443,40.78963,40.78963,0,0,0-3.077,81.463c.053.004.105.006.158.006h.002c.962.068,1.941.108,2.917.108a40.79084,40.79084,0,0,0,6.025-81.134m-6.025,69.479c-.73,0-1.473-.028-2.208-.082a29.13538,29.13538,0,1,1,6.52-57.868h.004a29.13594,29.13594,0,0,1-4.316,57.95" fill="#fffffa"/>
        <path d="M75.1105,125.47271c-.973,0-1.955-.036-2.919-.108l.553-7.397c.781.058,1.577.088,2.366.088a31.25528,31.25528,0,0,0,4.625-62.166l1.087-7.336a38.67171,38.67171,0,0,1-5.712,76.919" fill="orange"/>
        <path d="M46.3121,74.63971l-6.831-2.889a38.6145,38.6145,0,0,1,35.629-23.617,39.12256,39.12256,0,0,1,5.713.42l-1.089,7.336a31.31075,31.31075,0,0,0-33.422,18.75" fill="#5151fc"/>
        <path d="M72.1915,125.36431a38.81381,38.81381,0,0,1-35.751-38.561,38.40549,38.40549,0,0,1,3.041-15.052l6.831,2.888a31.27625,31.27625,0,0,0,26.432,43.329Z" fill="#00c19c"/>
        <path d="M103.9483,51.33572a24.864,24.864,0,1,1,24.864-24.863,24.89052,24.89052,0,0,1-24.864,24.863m0-38.073a13.209,13.209,0,1,0,13.209,13.21,13.22392,13.22392,0,0,0-13.209-13.21" fill="#fffffa"/>
        <path d="M103.9483,49.21661a22.745,22.745,0,1,1,22.745-22.744,22.76987,22.76987,0,0,1-22.745,22.744m0-38.073a15.328,15.328,0,1,0,15.328,15.329,15.34586,15.34586,0,0,0-15.328-15.329" fill="#5151fc"/>
      </g>
    </g>
  </g>
</svg>
