<svg id="Layer_1" data-name="Layer 1" xmlns="http://www.w3.org/2000/svg" xmlns:xlink="http://www.w3.org/1999/xlink" viewBox="0 0 129.12199 118.16301">
  <defs>
    <clipPath id="clip-path">
      <rect width="129.12199" height="118.16301" fill="none"/>
    </clipPath>
  </defs>
  <g id="luoghiColore">
    <g clip-path="url(#clip-path)">
      <g clip-path="url(#clip-path)">
        <path d="M126.2185,29.457a5.34195,5.34195,0,1,0-5.829,1.394,72.63519,72.63519,0,0,1,2.679,16.648h-6.778a5.34287,5.34287,0,1,0-7.551,7.321,58.24871,58.24871,0,0,1-14.91,34.834l-4.706-4.707a5.13463,5.13463,0,0,0-.02-2.131,50.31974,50.31974,0,0,0-20.431-79.265,5.29153,5.29153,0,0,0-8.262-2.425A50.22922,50.22922,0,0,0,4.5675,29.62a50.07718,50.07718,0,0,0-1.348,38.558q.474,1.2675,1.012,2.495a5.316,5.316,0,0,0,4.47,8.135,49.99578,49.99578,0,0,0,21.76,17.98.26728.26728,0,0,1,.024.012,50.37953,50.37953,0,0,0,52.29-7.632,5.133,5.133,0,0,0,2.108.015l4.708,4.708a58.246,58.246,0,0,1-35.248,14.94,5.48538,5.48538,0,1,0,1.167,5.922,64.26387,64.26387,0,0,0,40.148-18.366,2.9619,2.9619,0,0,0,.368-.3,2.92659,2.92659,0,0,0,.31-.38,64.26545,64.26545,0,0,0,18.4-40.713,5.3668,5.3668,0,0,0,1.554-1.5h6.769a72.20593,72.20593,0,0,1-5.313,24.341,5.38144,5.38144,0,1,0,5.367,2.721,77.986,77.986,0,0,0,3.105-51.099" fill="#fffffa"/>
        <path d="M6.0261,67.12741a47.42174,47.42174,0,1,1,88.82-33.261l-10.191,3.817a36.53809,36.53809,0,1,0-48.678,46.37l-4.307,9.991a47.01331,47.01331,0,0,1-25.644-26.917" fill="#00c97c"/>
        <path d="M6.0261,67.12741a47.42174,47.42174,0,1,1,88.82-33.261l-10.191,3.817a36.53809,36.53809,0,1,0-48.678,46.37l-4.307,9.991A47.01331,47.01331,0,0,1,6.0261,67.12741Z" fill="none" stroke="#00c97c" stroke-miterlimit="10"/>
        <path d="M31.6716,94.04731l4.305-9.995a36.541,36.541,0,0,0,48.679-46.37l10.191-3.815a47.42186,47.42186,0,0,1-63.175,60.18" fill="orange"/>
        <path d="M31.6716,94.04731l4.305-9.995a36.541,36.541,0,0,0,48.679-46.37l10.191-3.815a47.42186,47.42186,0,0,1-63.175,60.18Z" fill="none" stroke="orange" stroke-miterlimit="10"/>
        <path d="M121.9792,25.86371a75.43406,75.43406,0,0,1-3.535,57.801" fill="none" stroke="orange" stroke-miterlimit="10"/>
        <line x1="83.8757" y1="83.93601" x2="93.9067" y2="93.96801" fill="none" stroke="orange" stroke-miterlimit="10"/>
        <path d="M126.0984,50.49651h-14.185a61.47846,61.47846,0,0,1-61.476,61.477" fill="none" stroke="orange" stroke-miterlimit="10"/>
        <path d="M81.5232,83.936a2.3525,2.3525,0,1,1,2.353,2.353,2.353,2.353,0,0,1-2.353-2.353" fill="orange"/>
        <path d="M81.5232,83.936a2.3525,2.3525,0,1,1,2.353,2.353A2.353,2.353,0,0,1,81.5232,83.936Z" fill="none" stroke="#fffffa" stroke-miterlimit="10"/>
        <path d="M109.5105,50.49651a2.3525,2.3525,0,1,1,2.353,2.353,2.35366,2.35366,0,0,1-2.353-2.353" fill="orange"/>
        <path d="M109.5105,50.49651a2.3525,2.3525,0,1,1,2.353,2.353A2.35366,2.35366,0,0,1,109.5105,50.49651Z" fill="none" stroke="#fffffa" stroke-miterlimit="10"/>
        <path d="M47.947,112.67531a2.49,2.49,0,1,1,2.49,2.491,2.49024,2.49024,0,0,1-2.49-2.491" fill="orange"/>
        <path d="M47.947,112.67531a2.49,2.49,0,1,1,2.49,2.491A2.49024,2.49024,0,0,1,47.947,112.67531Z" fill="none" stroke="#fffffa" stroke-miterlimit="10"/>
        <path d="M116.0915,83.11471a2.3525,2.3525,0,1,1,2.353,2.353,2.353,2.353,0,0,1-2.353-2.353" fill="orange"/>
        <path d="M116.0915,83.11471a2.3525,2.3525,0,1,1,2.353,2.353A2.353,2.353,0,0,1,116.0915,83.11471Z" fill="none" stroke="#fffffa" stroke-miterlimit="10"/>
        <path d="M119.9304,25.86371a2.3525,2.3525,0,1,1,2.353,2.353,2.353,2.353,0,0,1-2.353-2.353" fill="orange"/>
        <path d="M119.9304,25.86371a2.3525,2.3525,0,1,1,2.353,2.353A2.353,2.353,0,0,1,119.9304,25.86371Z" fill="none" stroke="#fff" stroke-miterlimit="10"/>
        <path d="M61.3034,5.34911a2.3525,2.3525,0,1,1,2.353,2.353,2.35367,2.35367,0,0,1-2.353-2.353" fill="#00c97c"/>
        <path d="M61.3034,5.34911a2.3525,2.3525,0,1,1,2.353,2.353A2.35367,2.35367,0,0,1,61.3034,5.34911Z" fill="none" stroke="#fffffa" stroke-miterlimit="10"/>
        <path d="M6.4196,73.46631a2.3525,2.3525,0,1,1,2.353,2.353,2.353,2.353,0,0,1-2.353-2.353" fill="#00c97c"/>
        <path d="M6.4196,73.46631a2.3525,2.3525,0,1,1,2.353,2.353A2.353,2.353,0,0,1,6.4196,73.46631Z" fill="none" stroke="#fffffa" stroke-miterlimit="10"/>
      </g>
    </g>
  </g>
</svg>
