<svg id="Layer_1" data-name="Layer 1" xmlns="http://www.w3.org/2000/svg" xmlns:xlink="http://www.w3.org/1999/xlink" viewBox="0 0 129.12199 118.16301">
  <g id="luoghi">
    <g>
      <g>
        <path d="M126.2183,29.45671a5.34194,5.34194,0,1,0-5.829,1.394,72.70627,72.70627,0,0,1,2.679,16.649h-6.777a5.34307,5.34307,0,1,0-7.551,7.321,58.25191,58.25191,0,0,1-14.91,34.833l-4.707-4.707a5.13439,5.13439,0,0,0-.02-2.131,50.31951,50.31951,0,0,0-20.43-79.264,5.29274,5.29274,0,0,0-8.262-2.426,50.23449,50.23449,0,0,0-55.844,28.494,50.07718,50.07718,0,0,0-1.348,38.558q.474,1.2675,1.012,2.496a5.29285,5.29285,0,0,0-.809,2.793,5.35114,5.35114,0,0,0,5.279,5.341,49.99576,49.99576,0,0,0,21.76,17.98c.009.004.015.009.024.013a50.37378,50.37378,0,0,0,52.289-7.632,5.40416,5.40416,0,0,0,1.101.116,5.32762,5.32762,0,0,0,1.009-.102l4.708,4.708a58.25105,58.25105,0,0,1-35.248,14.94,5.48573,5.48573,0,1,0,1.166,5.923,64.27238,64.27238,0,0,0,40.149-18.367,2.86428,2.86428,0,0,0,.366-.299,3.0118,3.0118,0,0,0,.312-.38,64.26931,64.26931,0,0,0,18.399-40.714,5.39518,5.39518,0,0,0,1.555-1.5h6.768a72.19294,72.19294,0,0,1-5.313,24.342,5.38253,5.38253,0,1,0,5.367,2.72,77.9792,77.9792,0,0,0,3.105-51.099m-64.017,52.449a33.367,33.367,0,0,1-25.033-.604l-.004-.001a33.54375,33.54375,0,0,1,13.233-64.348,33.72208,33.72208,0,0,1,31.451,21.781l.006.012a33.57821,33.57821,0,0,1-19.653,43.16" fill="#fffffa"/>
        <path d="M6.026,67.12741a47.42221,47.42221,0,1,1,88.821-33.261l-10.193,3.817a36.53761,36.53761,0,1,0-48.677,46.37l-4.307,9.991A47.01331,47.01331,0,0,1,6.026,67.12741Z" fill="none" stroke="#5151fc" stroke-miterlimit="10"/>
        <path d="M31.6715,94.04731l4.305-9.995a36.54145,36.54145,0,0,0,48.68-46.37l10.189-3.815a47.42093,47.42093,0,0,1-63.174,60.18Z" fill="none" stroke="#5151fc" stroke-miterlimit="10"/>
        <path d="M121.9786,25.86371a75.42955,75.42955,0,0,1-3.535,57.801" fill="none" stroke="#5151fc" stroke-miterlimit="10"/>
        <line x1="83.8761" y1="83.93601" x2="93.9071" y2="93.96801" fill="none" stroke="#5151fc" stroke-miterlimit="10"/>
        <path d="M126.0987,50.49651h-14.186a61.47761,61.47761,0,0,1-61.475,61.477" fill="none" stroke="#5151fc" stroke-miterlimit="10"/>
        <path d="M81.5235,83.936a2.3525,2.3525,0,1,1,2.353,2.353,2.353,2.353,0,0,1-2.353-2.353" fill="#5151fc"/>
        <path d="M81.5235,83.936a2.3525,2.3525,0,1,1,2.353,2.353A2.353,2.353,0,0,1,81.5235,83.936Z" fill="none" stroke="#fffffa" stroke-miterlimit="10"/>
        <path d="M109.5108,50.49651a2.3525,2.3525,0,1,1,2.353,2.353,2.353,2.353,0,0,1-2.353-2.353" fill="#5151fc"/>
        <path d="M109.5108,50.49651a2.3525,2.3525,0,1,1,2.353,2.353A2.353,2.353,0,0,1,109.5108,50.49651Z" fill="none" stroke="#fffffa" stroke-miterlimit="10"/>
        <path d="M47.9469,112.67531a2.4905,2.4905,0,1,1,2.491,2.491,2.49046,2.49046,0,0,1-2.491-2.491" fill="#5151fc"/>
        <path d="M47.9469,112.67531a2.4905,2.4905,0,1,1,2.491,2.491A2.49046,2.49046,0,0,1,47.9469,112.67531Z" fill="none" stroke="#fffffa" stroke-miterlimit="10"/>
        <path d="M116.0909,83.11471a2.3525,2.3525,0,1,1,2.353,2.353,2.35367,2.35367,0,0,1-2.353-2.353" fill="#5151fc"/>
        <path d="M116.0909,83.11471a2.3525,2.3525,0,1,1,2.353,2.353A2.35367,2.35367,0,0,1,116.0909,83.11471Z" fill="none" stroke="#fffffa" stroke-miterlimit="10"/>
        <path d="M119.9298,25.86371a2.3525,2.3525,0,1,1,2.353,2.353,2.35367,2.35367,0,0,1-2.353-2.353" fill="#5151fc"/>
        <path d="M119.9298,25.86371a2.3525,2.3525,0,1,1,2.353,2.353A2.35367,2.35367,0,0,1,119.9298,25.86371Z" fill="none" stroke="#fff" stroke-miterlimit="10"/>
        <path d="M61.3038,5.34911a2.3525,2.3525,0,1,1,2.353,2.353,2.35367,2.35367,0,0,1-2.353-2.353" fill="#5151fc"/>
        <path d="M61.3038,5.34911a2.3525,2.3525,0,1,1,2.353,2.353A2.35367,2.35367,0,0,1,61.3038,5.34911Z" fill="none" stroke="#fffffa" stroke-miterlimit="10"/>
        <path d="M6.4195,73.46631a2.3525,2.3525,0,1,1,2.353,2.353,2.353,2.353,0,0,1-2.353-2.353" fill="#5151fc"/>
        <path d="M6.4195,73.46631a2.3525,2.3525,0,1,1,2.353,2.353A2.353,2.353,0,0,1,6.4195,73.46631Z" fill="none" stroke="#fffffa" stroke-miterlimit="10"/>
      </g>
    </g>
  </g>
</svg>
