<svg id="Layer_1" data-name="Layer 1" xmlns="http://www.w3.org/2000/svg" xmlns:xlink="http://www.w3.org/1999/xlink" viewBox="0 0 129.12199 118.16301">
  <defs>
    <clipPath id="clip-path">
      <rect width="129.12199" height="118.16301" fill="none"/>
    </clipPath>
  </defs>
  <g id="luoghi">
    <g clip-path="url(#clip-path)">
      <g clip-path="url(#clip-path)">
        <path d="M126.2179,29.457a5.34116,5.34116,0,1,0-5.829,1.394,72.69082,72.69082,0,0,1,2.68,16.648h-6.778a5.34307,5.34307,0,1,0-7.551,7.321,58.25471,58.25471,0,0,1-14.91,34.834l-4.707-4.707a5.268,5.268,0,0,0,.103-1.011,5.36739,5.36739,0,0,0-.122-1.12A50.31975,50.31975,0,0,0,68.6729,3.551a5.29153,5.29153,0,0,0-8.262-2.425A50.231,50.231,0,0,0,4.5669,29.62a50.08171,50.08171,0,0,0-1.348,38.558q.474,1.2675,1.012,2.495a5.31727,5.31727,0,0,0,4.471,8.135,49.98449,49.98449,0,0,0,21.76,17.98.253.253,0,0,1,.023.012,50.37715,50.37715,0,0,0,52.29-7.632,5.13791,5.13791,0,0,0,2.109.015l4.708,4.708a58.24851,58.24851,0,0,1-35.248,14.94,5.486,5.486,0,1,0,1.166,5.922,64.26648,64.26648,0,0,0,40.149-18.366,2.421,2.421,0,0,0,.678-.68,64.26544,64.26544,0,0,0,18.4-40.713,5.39162,5.39162,0,0,0,1.554-1.5h6.769a72.18351,72.18351,0,0,1-5.314,24.341,5.38157,5.38157,0,1,0,5.368,2.721,77.98578,77.98578,0,0,0,3.104-51.099" fill="#fffffa"/>
        <path d="M6.026,67.12741a47.42221,47.42221,0,1,1,88.821-33.261l-10.193,3.817a36.53761,36.53761,0,1,0-48.677,46.37l-4.307,9.991A47.01331,47.01331,0,0,1,6.026,67.12741Z" fill="none" stroke="#5151fc" stroke-miterlimit="10"/>
        <path d="M31.6715,94.04731l4.305-9.995a36.54145,36.54145,0,0,0,48.68-46.37l10.189-3.815a47.42093,47.42093,0,0,1-63.174,60.18Z" fill="none" stroke="#5151fc" stroke-miterlimit="10"/>
        <path d="M121.9786,25.86371a75.42955,75.42955,0,0,1-3.535,57.801" fill="none" stroke="#5151fc" stroke-miterlimit="10"/>
        <line x1="83.8761" y1="83.93601" x2="93.9071" y2="93.96801" fill="none" stroke="#5151fc" stroke-miterlimit="10"/>
        <path d="M126.0987,50.49651h-14.186a61.47761,61.47761,0,0,1-61.475,61.477" fill="none" stroke="#5151fc" stroke-miterlimit="10"/>
        <path d="M81.5235,83.936a2.3525,2.3525,0,1,1,2.353,2.353,2.353,2.353,0,0,1-2.353-2.353" fill="#5151fc"/>
        <path d="M81.5235,83.936a2.3525,2.3525,0,1,1,2.353,2.353A2.353,2.353,0,0,1,81.5235,83.936Z" fill="none" stroke="#fffffa" stroke-miterlimit="10"/>
        <path d="M109.5108,50.49651a2.3525,2.3525,0,1,1,2.353,2.353,2.353,2.353,0,0,1-2.353-2.353" fill="#5151fc"/>
        <path d="M109.5108,50.49651a2.3525,2.3525,0,1,1,2.353,2.353A2.353,2.353,0,0,1,109.5108,50.49651Z" fill="none" stroke="#fffffa" stroke-miterlimit="10"/>
        <path d="M47.9469,112.67531a2.4905,2.4905,0,1,1,2.491,2.491,2.49046,2.49046,0,0,1-2.491-2.491" fill="#5151fc"/>
        <path d="M47.9469,112.67531a2.4905,2.4905,0,1,1,2.491,2.491A2.49046,2.49046,0,0,1,47.9469,112.67531Z" fill="none" stroke="#fffffa" stroke-miterlimit="10"/>
        <path d="M116.0909,83.11471a2.3525,2.3525,0,1,1,2.353,2.353,2.35367,2.35367,0,0,1-2.353-2.353" fill="#5151fc"/>
        <path d="M116.0909,83.11471a2.3525,2.3525,0,1,1,2.353,2.353A2.35367,2.35367,0,0,1,116.0909,83.11471Z" fill="none" stroke="#fffffa" stroke-miterlimit="10"/>
        <path d="M119.9298,25.86371a2.3525,2.3525,0,1,1,2.353,2.353,2.35367,2.35367,0,0,1-2.353-2.353" fill="#5151fc"/>
        <path d="M119.9298,25.86371a2.3525,2.3525,0,1,1,2.353,2.353A2.35367,2.35367,0,0,1,119.9298,25.86371Z" fill="none" stroke="#fff" stroke-miterlimit="10"/>
        <path d="M61.3038,5.34911a2.3525,2.3525,0,1,1,2.353,2.353,2.35367,2.35367,0,0,1-2.353-2.353" fill="#5151fc"/>
        <path d="M61.3038,5.34911a2.3525,2.3525,0,1,1,2.353,2.353A2.35367,2.35367,0,0,1,61.3038,5.34911Z" fill="none" stroke="#fffffa" stroke-miterlimit="10"/>
        <path d="M6.4195,73.46631a2.3525,2.3525,0,1,1,2.353,2.353,2.353,2.353,0,0,1-2.353-2.353" fill="#5151fc"/>
        <path d="M6.4195,73.46631a2.3525,2.3525,0,1,1,2.353,2.353A2.353,2.353,0,0,1,6.4195,73.46631Z" fill="none" stroke="#fffffa" stroke-miterlimit="10"/>
      </g>
    </g>
  </g>
</svg>
