<svg id="Layer_1" data-name="Layer 1" xmlns="http://www.w3.org/2000/svg" xmlns:xlink="http://www.w3.org/1999/xlink" viewBox="0 0 129.12199 118.16301">
  <g id="luoghiColore">
    <g>
      <g>
        <path d="M126.21889,29.45671a5.34252,5.34252,0,1,0-5.83,1.394,72.59741,72.59741,0,0,1,2.679,16.649h-6.777a5.34307,5.34307,0,1,0-7.551,7.321,58.24593,58.24593,0,0,1-14.91,34.833l-4.706-4.707a5.432,5.432,0,0,0,.101-1.011,5.37478,5.37478,0,0,0-.122-1.12,50.31951,50.31951,0,0,0-20.43-79.264,5.29275,5.29275,0,0,0-8.262-2.426,50.23449,50.23449,0,0,0-55.844,28.494,50.07709,50.07709,0,0,0-1.347,38.558c.316.845.655,1.676,1.011,2.496a5.292,5.292,0,0,0-.808,2.793,5.35114,5.35114,0,0,0,5.279,5.341,49.98446,49.98446,0,0,0,21.76,17.98c.009.004.014.009.023.013a50.37712,50.37712,0,0,0,52.29-7.632,5.39684,5.39684,0,0,0,1.101.116,5.32544,5.32544,0,0,0,1.008-.102l4.708,4.708a58.24851,58.24851,0,0,1-35.248,14.94,5.48514,5.48514,0,1,0,1.167,5.923,64.26977,64.26977,0,0,0,40.148-18.367,2.873,2.873,0,0,0,.367-.299,3.00315,3.00315,0,0,0,.311-.38,64.26931,64.26931,0,0,0,18.399-40.714,5.37011,5.37011,0,0,0,1.555-1.5h6.768a72.21562,72.21562,0,0,1-5.312,24.342,5.38238,5.38238,0,1,0,5.366,2.72,77.97944,77.97944,0,0,0,3.106-51.099m-64.018,52.449a33.367,33.367,0,0,1-25.033-.604l-.004-.001a33.544,33.544,0,0,1,13.233-64.348,33.7221,33.7221,0,0,1,31.451,21.781l.006.012a33.57821,33.57821,0,0,1-19.653,43.16" fill="#fffffa"/>
        <path d="M6.0261,67.12741a47.42174,47.42174,0,1,1,88.82-33.261l-10.191,3.817a36.53809,36.53809,0,1,0-48.678,46.37l-4.307,9.991a47.01331,47.01331,0,0,1-25.644-26.917" fill="#00c97c"/>
        <path d="M6.0261,67.12741a47.42174,47.42174,0,1,1,88.82-33.261l-10.191,3.817a36.53809,36.53809,0,1,0-48.678,46.37l-4.307,9.991A47.01331,47.01331,0,0,1,6.0261,67.12741Z" fill="none" stroke="#00c97c" stroke-miterlimit="10"/>
        <path d="M31.6716,94.04731l4.305-9.995a36.541,36.541,0,0,0,48.679-46.37l10.191-3.815a47.42186,47.42186,0,0,1-63.175,60.18" fill="orange"/>
        <path d="M31.6716,94.04731l4.305-9.995a36.541,36.541,0,0,0,48.679-46.37l10.191-3.815a47.42186,47.42186,0,0,1-63.175,60.18Z" fill="none" stroke="orange" stroke-miterlimit="10"/>
        <path d="M121.9792,25.86371a75.43406,75.43406,0,0,1-3.535,57.801" fill="none" stroke="orange" stroke-miterlimit="10"/>
        <line x1="83.8757" y1="83.93601" x2="93.9067" y2="93.96801" fill="none" stroke="orange" stroke-miterlimit="10"/>
        <path d="M126.0984,50.49651h-14.185a61.47846,61.47846,0,0,1-61.476,61.477" fill="none" stroke="orange" stroke-miterlimit="10"/>
        <path d="M81.5232,83.936a2.3525,2.3525,0,1,1,2.353,2.353,2.353,2.353,0,0,1-2.353-2.353" fill="orange"/>
        <path d="M81.5232,83.936a2.3525,2.3525,0,1,1,2.353,2.353A2.353,2.353,0,0,1,81.5232,83.936Z" fill="none" stroke="#fffffa" stroke-miterlimit="10"/>
        <path d="M109.5105,50.49651a2.3525,2.3525,0,1,1,2.353,2.353,2.35366,2.35366,0,0,1-2.353-2.353" fill="orange"/>
        <path d="M109.5105,50.49651a2.3525,2.3525,0,1,1,2.353,2.353A2.35366,2.35366,0,0,1,109.5105,50.49651Z" fill="none" stroke="#fffffa" stroke-miterlimit="10"/>
        <path d="M47.947,112.67531a2.49,2.49,0,1,1,2.49,2.491,2.49024,2.49024,0,0,1-2.49-2.491" fill="orange"/>
        <path d="M47.947,112.67531a2.49,2.49,0,1,1,2.49,2.491A2.49024,2.49024,0,0,1,47.947,112.67531Z" fill="none" stroke="#fffffa" stroke-miterlimit="10"/>
        <path d="M116.0915,83.11471a2.3525,2.3525,0,1,1,2.353,2.353,2.353,2.353,0,0,1-2.353-2.353" fill="orange"/>
        <path d="M116.0915,83.11471a2.3525,2.3525,0,1,1,2.353,2.353A2.353,2.353,0,0,1,116.0915,83.11471Z" fill="none" stroke="#fffffa" stroke-miterlimit="10"/>
        <path d="M119.9304,25.86371a2.3525,2.3525,0,1,1,2.353,2.353,2.353,2.353,0,0,1-2.353-2.353" fill="orange"/>
        <path d="M119.9304,25.86371a2.3525,2.3525,0,1,1,2.353,2.353A2.353,2.353,0,0,1,119.9304,25.86371Z" fill="none" stroke="#fff" stroke-miterlimit="10"/>
        <path d="M61.3034,5.34911a2.3525,2.3525,0,1,1,2.353,2.353,2.35367,2.35367,0,0,1-2.353-2.353" fill="#00c97c"/>
        <path d="M61.3034,5.34911a2.3525,2.3525,0,1,1,2.353,2.353A2.35367,2.35367,0,0,1,61.3034,5.34911Z" fill="none" stroke="#fffffa" stroke-miterlimit="10"/>
        <path d="M6.4196,73.46631a2.3525,2.3525,0,1,1,2.353,2.353,2.353,2.353,0,0,1-2.353-2.353" fill="#00c97c"/>
        <path d="M6.4196,73.46631a2.3525,2.3525,0,1,1,2.353,2.353A2.353,2.353,0,0,1,6.4196,73.46631Z" fill="none" stroke="#fffffa" stroke-miterlimit="10"/>
      </g>
    </g>
  </g>
</svg>
