<svg id="Layer_1" data-name="Layer 1" xmlns="http://www.w3.org/2000/svg" xmlns:xlink="http://www.w3.org/1999/xlink" viewBox="0 0 130.645 88.43091">
  <g id="realismoColore">
    <g>
      <g>
        <path d="M105.14161,4.4575a10.31669,10.31669,0,0,0-17.438,1.782,10.23819,10.23819,0,0,0-7.177,5.562,10.24249,10.24249,0,0,0-7.178,5.562,10.24716,10.24716,0,0,0-7.178,5.563,10.23335,10.23335,0,0,0-7.177,5.561,10.24184,10.24184,0,0,0-7.178,5.563,10.24339,10.24339,0,0,0-7.177,5.562,10.24248,10.24248,0,0,0-7.178,5.562,10.23814,10.23814,0,0,0-7.177,5.562,10.24191,10.24191,0,0,0-7.178,5.563,10.23782,10.23782,0,0,0-7.178,5.561,10.24817,10.24817,0,0,0-7.177,5.563,10.33454,10.33454,0,1,0,11.361,14.66,10.23606,10.23606,0,0,0,7.177-5.563,10.23812,10.23812,0,0,0,7.177-5.562,10.23565,10.23565,0,0,0,7.178-5.562,10.24241,10.24241,0,0,0,7.178-5.562,10.236,10.236,0,0,0,7.177-5.563,10.23769,10.23769,0,0,0,7.178-5.561,10.24132,10.24132,0,0,0,7.177-5.563,10.24241,10.24241,0,0,0,7.178-5.562,10.23129,10.23129,0,0,0,7.177-5.562,10.2372,10.2372,0,0,0,7.178-5.562,10.24572,10.24572,0,0,0,7.178-5.563,10.316,10.316,0,0,0,6.077-16.441" fill="#ff6c39"/>
        <path d="M105.14161,4.4575a10.31669,10.31669,0,0,0-17.438,1.782,10.23819,10.23819,0,0,0-7.177,5.562,10.24249,10.24249,0,0,0-7.178,5.562,10.24716,10.24716,0,0,0-7.178,5.563,10.23335,10.23335,0,0,0-7.177,5.561,10.24184,10.24184,0,0,0-7.178,5.563,10.24339,10.24339,0,0,0-7.177,5.562,10.24248,10.24248,0,0,0-7.178,5.562,10.23814,10.23814,0,0,0-7.177,5.562,10.24191,10.24191,0,0,0-7.178,5.563,10.23782,10.23782,0,0,0-7.178,5.561,10.24817,10.24817,0,0,0-7.177,5.563,10.33454,10.33454,0,1,0,11.361,14.66,10.23606,10.23606,0,0,0,7.177-5.563,10.23812,10.23812,0,0,0,7.177-5.562,10.23565,10.23565,0,0,0,7.178-5.562,10.24241,10.24241,0,0,0,7.178-5.562,10.236,10.236,0,0,0,7.177-5.563,10.23769,10.23769,0,0,0,7.178-5.561,10.24132,10.24132,0,0,0,7.177-5.563,10.24241,10.24241,0,0,0,7.178-5.562,10.23129,10.23129,0,0,0,7.177-5.562,10.2372,10.2372,0,0,0,7.178-5.562,10.24572,10.24572,0,0,0,7.178-5.563,10.316,10.316,0,0,0,6.077-16.441Z" fill="none" stroke="#fffffa" stroke-miterlimit="10" stroke-width="1.465"/>
        <path d="M123.35651,37.8628a10.31742,10.31742,0,0,0-17.112-3.8,10.24207,10.24207,0,0,0-8.564,3.02,10.24535,10.24535,0,0,0-8.564,3.019,10.24206,10.24206,0,0,0-8.564,3.02,10.24489,10.24489,0,0,0-8.563,3.019,10.24559,10.24559,0,0,0-8.565,3.02,10.24491,10.24491,0,0,0-8.563,3.019,10.23727,10.23727,0,0,0-8.564,3.019,10.3348,10.3348,0,1,0,6.167,17.492,10.24546,10.24546,0,0,0,8.564-3.019,10.24206,10.24206,0,0,0,8.564-3.02,10.24534,10.24534,0,0,0,8.564-3.019,10.23864,10.23864,0,0,0,8.563-3.02,10.242,10.242,0,0,0,8.564-3.02,10.23731,10.23731,0,0,0,8.564-3.019,10.24552,10.24552,0,0,0,8.564-3.019,10.31646,10.31646,0,0,0,10.945-13.692" fill="#ffd93b"/>
        <path d="M123.35651,37.8628a10.31742,10.31742,0,0,0-17.112-3.8,10.24207,10.24207,0,0,0-8.564,3.02,10.24535,10.24535,0,0,0-8.564,3.019,10.24206,10.24206,0,0,0-8.564,3.02,10.24489,10.24489,0,0,0-8.563,3.019,10.24559,10.24559,0,0,0-8.565,3.02,10.24491,10.24491,0,0,0-8.563,3.019,10.23727,10.23727,0,0,0-8.564,3.019,10.3348,10.3348,0,1,0,6.167,17.492,10.24546,10.24546,0,0,0,8.564-3.019,10.24206,10.24206,0,0,0,8.564-3.02,10.24534,10.24534,0,0,0,8.564-3.019,10.23864,10.23864,0,0,0,8.563-3.02,10.242,10.242,0,0,0,8.564-3.02,10.23731,10.23731,0,0,0,8.564-3.019,10.24552,10.24552,0,0,0,8.564-3.019,10.31646,10.31646,0,0,0,10.945-13.692Z" fill="none" stroke="#fffffa" stroke-miterlimit="10" stroke-width="2.302"/>
        <path d="M46.28221,65.03761a10.31642,10.31642,0,0,0-17.112-3.8,10.24206,10.24206,0,0,0-8.564,3.02,10.242,10.242,0,0,0-8.563,3.019,10.33451,10.33451,0,1,0,6.167,17.491,10.23377,10.23377,0,0,0,8.563-3.019,10.24214,10.24214,0,0,0,8.564-3.02,10.31565,10.31565,0,0,0,10.945-13.691" fill="#00c19c"/>
        <path d="M46.28221,65.03761a10.31642,10.31642,0,0,0-17.112-3.8,10.24206,10.24206,0,0,0-8.564,3.02,10.242,10.242,0,0,0-8.563,3.019,10.33451,10.33451,0,1,0,6.167,17.491,10.23377,10.23377,0,0,0,8.563-3.019,10.24214,10.24214,0,0,0,8.564-3.02,10.31565,10.31565,0,0,0,10.945-13.691Z" fill="none" stroke="#fffffa" stroke-miterlimit="10" stroke-width="1.465"/>
        <path d="M130.13771,76.51511a10.31758,10.31758,0,0,0-14.954-9.146,10.23553,10.23553,0,0,0-9.08.078,10.23983,10.23983,0,0,0-9.08.077,10.33422,10.33422,0,1,0,.158,18.547,10.24406,10.24406,0,0,0,9.08-.078,10.24617,10.24617,0,0,0,9.081-.078,10.31618,10.31618,0,0,0,14.795-9.4" fill="#00c19c"/>
        <path d="M130.13771,76.51511a10.31758,10.31758,0,0,0-14.954-9.146,10.23553,10.23553,0,0,0-9.08.078,10.23983,10.23983,0,0,0-9.08.077,10.33422,10.33422,0,1,0,.158,18.547,10.24406,10.24406,0,0,0,9.08-.078,10.24617,10.24617,0,0,0,9.081-.078,10.31618,10.31618,0,0,0,14.795-9.4Z" fill="none" stroke="#fffffa" stroke-miterlimit="10" stroke-width="1.465"/>
        <path d="M93.81641,76.82561a10.31678,10.31678,0,0,0-14.953-9.146,10.23553,10.23553,0,0,0-9.08.078,10.23551,10.23551,0,0,0-9.08.078,10.2312,10.2312,0,0,0-9.08.077,10.33472,10.33472,0,1,0,.158,18.546,10.24839,10.24839,0,0,0,9.08-.077,10.2442,10.2442,0,0,0,9.08-.078,10.24408,10.24408,0,0,0,9.08-.078,10.31618,10.31618,0,0,0,14.795-9.4" fill="#ffd93b"/>
        <path d="M93.81641,76.82561a10.31678,10.31678,0,0,0-14.953-9.146,10.23553,10.23553,0,0,0-9.08.078,10.23551,10.23551,0,0,0-9.08.078,10.2312,10.2312,0,0,0-9.08.077,10.33472,10.33472,0,1,0,.158,18.546,10.24839,10.24839,0,0,0,9.08-.077,10.2442,10.2442,0,0,0,9.08-.078,10.24408,10.24408,0,0,0,9.08-.078,10.31618,10.31618,0,0,0,14.795-9.4Z" fill="none" stroke="#fffffa" stroke-miterlimit="10" stroke-width="2.302"/>
        <path d="M48.416,77.21331a10.31675,10.31675,0,0,0-14.953-9.146,10.23979,10.23979,0,0,0-9.08.079,10.2311,10.2311,0,0,0-9.08.077,10.33472,10.33472,0,1,0,.158,18.546,10.24849,10.24849,0,0,0,9.08-.077,10.23987,10.23987,0,0,0,9.08-.079,10.31617,10.31617,0,0,0,14.795-9.4" fill="#ff6c39"/>
        <path d="M48.416,77.21331a10.31675,10.31675,0,0,0-14.953-9.146,10.23979,10.23979,0,0,0-9.08.079,10.2311,10.2311,0,0,0-9.08.077,10.33472,10.33472,0,1,0,.158,18.546,10.24849,10.24849,0,0,0,9.08-.077,10.23987,10.23987,0,0,0,9.08-.079,10.31617,10.31617,0,0,0,14.795-9.4Z" fill="none" stroke="#fffffa" stroke-miterlimit="10" stroke-width="1.465"/>
      </g>
    </g>
  </g>
</svg>
