<svg id="Layer_1" data-name="Layer 1" xmlns="http://www.w3.org/2000/svg" xmlns:xlink="http://www.w3.org/1999/xlink" viewBox="0 0 131.09599 88.9895">
  <g id="realismoColore">
    <g>
      <g>
        <path d="M105.3671,4.7368a10.31668,10.31668,0,0,0-17.438,1.782,10.23816,10.23816,0,0,0-7.177,5.562,10.24246,10.24246,0,0,0-7.178,5.562,10.24723,10.24723,0,0,0-7.178,5.563,10.23342,10.23342,0,0,0-7.177,5.561,10.24191,10.24191,0,0,0-7.178,5.563,10.2434,10.2434,0,0,0-7.177,5.562,10.24253,10.24253,0,0,0-7.178,5.562,10.2382,10.2382,0,0,0-7.177,5.562,10.24191,10.24191,0,0,0-7.178,5.563,10.23771,10.23771,0,0,0-7.178,5.561,10.24816,10.24816,0,0,0-7.177,5.563,10.33453,10.33453,0,1,0,11.361,14.66,10.23608,10.23608,0,0,0,7.177-5.563,10.2381,10.2381,0,0,0,7.177-5.562,10.2356,10.2356,0,0,0,7.178-5.562,10.24248,10.24248,0,0,0,7.178-5.562,10.236,10.236,0,0,0,7.177-5.563,10.23775,10.23775,0,0,0,7.178-5.561,10.24133,10.24133,0,0,0,7.177-5.563,10.24248,10.24248,0,0,0,7.178-5.562,10.23132,10.23132,0,0,0,7.177-5.562,10.23719,10.23719,0,0,0,7.178-5.562,10.2456,10.2456,0,0,0,7.178-5.563,10.316,10.316,0,0,0,6.077-16.441" fill="#ff6c39"/>
        <path d="M105.3671,4.7368a10.31668,10.31668,0,0,0-17.438,1.782,10.23816,10.23816,0,0,0-7.177,5.562,10.24246,10.24246,0,0,0-7.178,5.562,10.24723,10.24723,0,0,0-7.178,5.563,10.23342,10.23342,0,0,0-7.177,5.561,10.24191,10.24191,0,0,0-7.178,5.563,10.2434,10.2434,0,0,0-7.177,5.562,10.24253,10.24253,0,0,0-7.178,5.562,10.2382,10.2382,0,0,0-7.177,5.562,10.24191,10.24191,0,0,0-7.178,5.563,10.23771,10.23771,0,0,0-7.178,5.561,10.24816,10.24816,0,0,0-7.177,5.563,10.33453,10.33453,0,1,0,11.361,14.66,10.23608,10.23608,0,0,0,7.177-5.563,10.2381,10.2381,0,0,0,7.177-5.562,10.2356,10.2356,0,0,0,7.178-5.562,10.24248,10.24248,0,0,0,7.178-5.562,10.236,10.236,0,0,0,7.177-5.563,10.23775,10.23775,0,0,0,7.178-5.561,10.24133,10.24133,0,0,0,7.177-5.563,10.24248,10.24248,0,0,0,7.178-5.562,10.23132,10.23132,0,0,0,7.177-5.562,10.23719,10.23719,0,0,0,7.178-5.562,10.2456,10.2456,0,0,0,7.178-5.563,10.316,10.316,0,0,0,6.077-16.441Z" fill="none" stroke="#fffffa" stroke-miterlimit="10" stroke-width="1.465"/>
        <path d="M123.582,38.1421a10.31742,10.31742,0,0,0-17.112-3.8,10.24206,10.24206,0,0,0-8.564,3.02,10.24543,10.24543,0,0,0-8.564,3.019,10.24206,10.24206,0,0,0-8.564,3.02,10.24485,10.24485,0,0,0-8.563,3.019,10.24552,10.24552,0,0,0-8.565,3.02,10.24485,10.24485,0,0,0-8.563,3.019,10.23727,10.23727,0,0,0-8.564,3.019,10.33479,10.33479,0,1,0,6.167,17.492,10.24543,10.24543,0,0,0,8.564-3.019,10.24206,10.24206,0,0,0,8.564-3.02,10.24543,10.24543,0,0,0,8.564-3.019,10.23861,10.23861,0,0,0,8.563-3.02,10.24206,10.24206,0,0,0,8.564-3.02,10.23727,10.23727,0,0,0,8.564-3.019,10.24543,10.24543,0,0,0,8.564-3.019,10.31645,10.31645,0,0,0,10.945-13.692" fill="#ffd93b"/>
        <path d="M123.582,38.1421a10.31742,10.31742,0,0,0-17.112-3.8,10.24206,10.24206,0,0,0-8.564,3.02,10.24543,10.24543,0,0,0-8.564,3.019,10.24206,10.24206,0,0,0-8.564,3.02,10.24485,10.24485,0,0,0-8.563,3.019,10.24552,10.24552,0,0,0-8.565,3.02,10.24485,10.24485,0,0,0-8.563,3.019,10.23727,10.23727,0,0,0-8.564,3.019,10.33479,10.33479,0,1,0,6.167,17.492,10.24543,10.24543,0,0,0,8.564-3.019,10.24206,10.24206,0,0,0,8.564-3.02,10.24543,10.24543,0,0,0,8.564-3.019,10.23861,10.23861,0,0,0,8.563-3.02,10.24206,10.24206,0,0,0,8.564-3.02,10.23727,10.23727,0,0,0,8.564-3.019,10.24543,10.24543,0,0,0,8.564-3.019,10.31645,10.31645,0,0,0,10.945-13.692Z" fill="none" stroke="#fffffa" stroke-miterlimit="10" stroke-width="2.302"/>
        <path d="M46.5077,65.3169a10.31642,10.31642,0,0,0-17.112-3.8,10.24206,10.24206,0,0,0-8.564,3.02,10.242,10.242,0,0,0-8.563,3.019,10.33451,10.33451,0,1,0,6.167,17.491,10.23382,10.23382,0,0,0,8.563-3.019,10.24206,10.24206,0,0,0,8.564-3.02,10.31563,10.31563,0,0,0,10.945-13.691" fill="#00c19c"/>
        <path d="M46.5077,65.3169a10.31642,10.31642,0,0,0-17.112-3.8,10.24206,10.24206,0,0,0-8.564,3.02,10.242,10.242,0,0,0-8.563,3.019,10.33451,10.33451,0,1,0,6.167,17.491,10.23382,10.23382,0,0,0,8.563-3.019,10.24206,10.24206,0,0,0,8.564-3.02,10.31563,10.31563,0,0,0,10.945-13.691Z" fill="none" stroke="#fffffa" stroke-miterlimit="10" stroke-width="1.465"/>
        <path d="M130.3632,76.7944a10.31758,10.31758,0,0,0-14.954-9.146,10.23553,10.23553,0,0,0-9.08.078,10.23981,10.23981,0,0,0-9.08.077,10.33423,10.33423,0,1,0,.158,18.547,10.24412,10.24412,0,0,0,9.08-.078,10.24626,10.24626,0,0,0,9.081-.078,10.31619,10.31619,0,0,0,14.795-9.4" fill="#00c19c"/>
        <path d="M130.3632,76.7944a10.31758,10.31758,0,0,0-14.954-9.146,10.23553,10.23553,0,0,0-9.08.078,10.23981,10.23981,0,0,0-9.08.077,10.33423,10.33423,0,1,0,.158,18.547,10.24412,10.24412,0,0,0,9.08-.078,10.24626,10.24626,0,0,0,9.081-.078,10.31619,10.31619,0,0,0,14.795-9.4Z" fill="none" stroke="#fffffa" stroke-miterlimit="10" stroke-width="1.465"/>
        <path d="M94.0419,77.1049a10.31677,10.31677,0,0,0-14.953-9.146,10.23553,10.23553,0,0,0-9.08.078,10.23553,10.23553,0,0,0-9.08.078,10.2312,10.2312,0,0,0-9.08.077,10.33472,10.33472,0,1,0,.158,18.546,10.24841,10.24841,0,0,0,9.08-.077,10.24418,10.24418,0,0,0,9.08-.078,10.24408,10.24408,0,0,0,9.08-.078,10.31618,10.31618,0,0,0,14.795-9.4" fill="#ffd93b"/>
        <path d="M94.0419,77.1049a10.31677,10.31677,0,0,0-14.953-9.146,10.23553,10.23553,0,0,0-9.08.078,10.23553,10.23553,0,0,0-9.08.078,10.2312,10.2312,0,0,0-9.08.077,10.33472,10.33472,0,1,0,.158,18.546,10.24841,10.24841,0,0,0,9.08-.077,10.24418,10.24418,0,0,0,9.08-.078,10.24408,10.24408,0,0,0,9.08-.078,10.31618,10.31618,0,0,0,14.795-9.4Z" fill="none" stroke="#fffffa" stroke-miterlimit="10" stroke-width="2.302"/>
        <path d="M48.6415,77.4926a10.31675,10.31675,0,0,0-14.953-9.146,10.23979,10.23979,0,0,0-9.08.079,10.23112,10.23112,0,0,0-9.08.077,10.33472,10.33472,0,1,0,.158,18.546,10.24849,10.24849,0,0,0,9.08-.077,10.23987,10.23987,0,0,0,9.08-.079,10.31617,10.31617,0,0,0,14.795-9.4" fill="#ff6c39"/>
        <path d="M48.6415,77.4926a10.31675,10.31675,0,0,0-14.953-9.146,10.23979,10.23979,0,0,0-9.08.079,10.23112,10.23112,0,0,0-9.08.077,10.33472,10.33472,0,1,0,.158,18.546,10.24849,10.24849,0,0,0,9.08-.077,10.23987,10.23987,0,0,0,9.08-.079,10.31617,10.31617,0,0,0,14.795-9.4Z" fill="none" stroke="#fffffa" stroke-miterlimit="10" stroke-width="1.465"/>
      </g>
    </g>
  </g>
</svg>
