<svg id="Layer_1" data-name="Layer 1" xmlns="http://www.w3.org/2000/svg" xmlns:xlink="http://www.w3.org/1999/xlink" viewBox="0 0 150 111.22501">
  <defs>
    <clipPath id="clip-path">
      <rect y="0.09808" width="150" height="111.02885" fill="none"/>
    </clipPath>
  </defs>
  <g id="arcipelago">
    <g clip-path="url(#clip-path)">
      <g clip-path="url(#clip-path)">
        <path d="M142.5225,77.73531a19.04481,19.04481,0,0,0-2.925-3.15346,14.30141,14.30141,0,0,0-1.44808-1.97422,11.76024,11.76024,0,0,0-2.68154-4.73655,11.56564,11.56564,0,0,0-4.13769-5.91461,11.45855,11.45855,0,0,0-4.99384-5.15423,19.01488,19.01488,0,0,0-2.4427-1.16654,9.138,9.138,0,0,0-1.96038-1.53,15.53619,15.53619,0,0,0-7.64308-1.89692,15.88007,15.88007,0,0,0-7.65692,1.83807,9.16159,9.16159,0,0,0-1.99154,1.53231,17.45157,17.45157,0,0,0-4.11231,2.24538,18.90764,18.90764,0,0,0,.48923-4.22423c0-7.01653-3.885-13.39153-10.46423-18.44423-.48808-.55846-1.00385-1.10538-1.55654-1.63846-.28384-.4673-.59538-.92308-.92423-1.37538A17.39025,17.39025,0,0,0,85.691,27.44608,16.4178,16.4178,0,0,0,81.604,20.26455a17.35944,17.35944,0,0,0-4.8923-6.20308c-1.72731-3.50193-5.16577-6.49154-9.73615-8.60423a23.65381,23.65381,0,0,0-8.60769-3.78692A19.01971,19.01971,0,0,0,50.51019.09877,19.01768,19.01768,0,0,0,42.649,1.67147a23.65,23.65,0,0,0-8.60538,3.78577c-4.57039,2.11269-8.00885,5.1023-9.73616,8.60423a17.35224,17.35224,0,0,0-4.89115,6.20192,16.42265,16.42265,0,0,0-4.08923,7.185,17.36266,17.36266,0,0,0-2.38039,4.69269c-.32884.45231-.64154.90924-.92538,1.37654-.5527.53308-1.06847,1.08-1.55769,1.63962C3.88558,40.20878-.00057,46.58378-.00057,53.60031c0,16.78962,22.18615,29.94,50.51076,29.94,16.34654,0,30.63808-4.38576,39.81-11.31691-.02077.06461-.03116.13384-.04962.20076a14.17974,14.17974,0,0,0-1.46076,1.96269A18.47035,18.47035,0,0,0,85.339,78.26032c-4.15616,3.36346-6.59539,7.515-6.61385,12.06576-.02423,5.78654,3.84923,11.13231,10.905,15.04962,6.61615,3.67385,15.36808,5.715,24.65077,5.75077h.25846c19.8577,0,35.41269-8.98846,35.46-20.52577.01961-4.89231-2.76231-9.34385-7.47692-12.86539" fill="#fffffa"/>
        <path d="M114.43477,72.14078c18.38885.07038,33.26192,8.33192,33.22385,18.45115-.04039,10.12039-14.97924,18.26539-33.36808,18.19385-18.38885-.07039-33.26423-8.33193-33.22385-18.45.04039-10.12154,14.97808-18.26654,33.36808-18.195" fill="#fffffa"/>
        <path d="M114.43477,72.14078c18.38885.07038,33.26192,8.33192,33.22385,18.45115-.04039,10.12039-14.97924,18.26539-33.36808,18.19385-18.38885-.07039-33.26423-8.33193-33.22385-18.45.04039-10.12154,14.97808-18.26654,33.36808-18.195" fill="none" stroke="#5151fc" stroke-miterlimit="10" stroke-width="1.15385"/>
        <path d="M114.22512,68.94174c15.85153.0623,28.67423,7.50461,28.63731,16.62346-.03578,9.12-12.915,16.46307-28.76655,16.40077-15.85269-.06231-28.67423-7.50462-28.63845-16.62346.03692-9.11885,12.91614-16.46308,28.76769-16.40077" fill="#fffffa"/>
        <path d="M114.22512,68.94174c15.85153.0623,28.67423,7.50461,28.63731,16.62346-.03578,9.12-12.915,16.46307-28.76655,16.40077-15.85269-.06231-28.67423-7.50462-28.63845-16.62346.03692-9.11885,12.91614-16.46308,28.76769-16.40077" fill="none" stroke="#5151fc" stroke-miterlimit="10" stroke-width="1.15385"/>
        <path d="M114.23642,66.21485c13.66038.05308,24.70846,6.40385,24.6773,14.18423S127.78488,94.44485,114.1245,94.39177,89.416,87.98908,89.44834,80.20754c.03-7.78038,11.12769-14.04576,24.78808-13.99269" fill="#fffffa"/>
        <path d="M114.23642,66.21485c13.66038.05308,24.70846,6.40385,24.6773,14.18423S127.78488,94.44485,114.1245,94.39177,89.416,87.98908,89.44834,80.20754c.03-7.78038,11.12769-14.04576,24.78808-13.99269" fill="none" stroke="#5151fc" stroke-miterlimit="10" stroke-width="1.15385"/>
        <path d="M114.24992,62.57874c12.14192.04731,21.96346,5.715,21.93577,12.66-.02769,6.94269-9.89192,12.53423-22.03385,12.48807-12.14192-.0473-21.9623-5.715-21.93576-12.66.02653-6.94268,9.89192-12.53538,22.03384-12.48807" fill="#fffffa"/>
        <path d="M114.24992,62.57874c12.14192.04731,21.96346,5.715,21.93577,12.66-.02769,6.94269-9.89192,12.53423-22.03385,12.48807-12.14192-.0473-21.9623-5.715-21.93576-12.66.02653-6.94268,9.89192-12.53538,22.03384-12.48807" fill="none" stroke="#5151fc" stroke-miterlimit="10" stroke-width="1.15385"/>
        <path d="M114.26342,59.09574c10.62462.04039,19.21731,5.025,19.19422,11.13115-.02537,6.10846-8.65615,11.02731-19.28076,10.98577-10.62347-.04039-19.21731-5.025-19.19307-11.13231.02537-6.10846,8.65615-11.02615,19.27961-10.98461" fill="#fffffa"/>
        <path d="M114.26342,59.09574c10.62462.04039,19.21731,5.025,19.19422,11.13115-.02537,6.10846-8.65615,11.02731-19.28076,10.98577-10.62347-.04039-19.21731-5.025-19.19307-11.13231.02537-6.10846,8.65615-11.02615,19.27961-10.98461" fill="none" stroke="#5151fc" stroke-miterlimit="10" stroke-width="1.15385"/>
        <path d="M114.27473,56.21678c8.51654.03231,15.40615,3.99346,15.38654,8.84538-.01962,4.85308-6.93923,8.76116-15.45462,8.72769-8.51654-.03346-15.405-3.99346-15.38654-8.84769.01961-4.85077,6.93808-8.75769,15.45462-8.72538" fill="#fffffa"/>
        <path d="M114.27473,56.21678c8.51654.03231,15.40615,3.99346,15.38654,8.84538-.01962,4.85308-6.93923,8.76116-15.45462,8.72769-8.51654-.03346-15.405-3.99346-15.38654-8.84769.01961-4.85077,6.93808-8.75769,15.45462-8.72538" fill="none" stroke="#5151fc" stroke-miterlimit="10" stroke-width="1.15385"/>
        <path d="M114.28142,54.55131c5.05961.01962,9.15231,2.40808,9.13962,5.33539-.01155,2.92962-4.12154,5.28692-9.18116,5.26731-5.05846-.01846-9.15115-2.40693-9.13961-5.33769.01153-2.92847,4.12153-5.28693,9.18115-5.265" fill="#fffffa"/>
        <path d="M114.28142,54.55131c5.05961.01962,9.15231,2.40808,9.13962,5.33539-.01155,2.92962-4.12154,5.28692-9.18116,5.26731-5.05846-.01846-9.15115-2.40693-9.13961-5.33769.01153-2.92847,4.12153-5.28693,9.18115-5.265" fill="none" stroke="#5151fc" stroke-miterlimit="10" stroke-width="1.15385"/>
        <path d="M50.5095,26.00043c26.60192,0,48.16961,12.3577,48.16961,27.6,0,15.24346-21.56769,27.59885-48.16961,27.59885S2.341,68.84389,2.341,53.60043c0-15.2423,21.56653-27.6,48.16846-27.6" fill="#fffffa"/>
        <path d="M50.5095,26.00043c26.60192,0,48.16961,12.3577,48.16961,27.6,0,15.24346-21.56769,27.59885-48.16961,27.59885S2.341,68.84389,2.341,53.60043c0-15.2423,21.56653-27.6,48.16846-27.6" fill="none" stroke="#5151fc" stroke-miterlimit="10" stroke-width="1.15385"/>
        <path d="M50.5095,23.30851c23.60538,0,42.74076,10.84846,42.74076,24.23308S74.11488,71.77582,50.5095,71.77582,7.76873,60.9262,7.76873,47.54159,26.90411,23.30851,50.5095,23.30851" fill="#fffffa"/>
        <path d="M50.5095,23.30851c23.60538,0,42.74076,10.84846,42.74076,24.23308S74.11488,71.77582,50.5095,71.77582,7.76873,60.9262,7.76873,47.54159,26.90411,23.30851,50.5095,23.30851" fill="none" stroke="#5151fc" stroke-miterlimit="10" stroke-width="1.15385"/>
        <path d="M50.5095,19.94274c21.35654,0,38.67,9.945,38.67,22.21385s-17.31345,22.215-38.67,22.215-38.67-9.94616-38.67-22.215S29.153,19.94274,50.5095,19.94274" fill="#fffffa"/>
        <path d="M50.5095,19.94274c21.35654,0,38.67,9.945,38.67,22.21385s-17.31345,22.215-38.67,22.215-38.67-9.94616-38.67-22.215S29.153,19.94274,50.5095,19.94274" fill="none" stroke="#5151fc" stroke-miterlimit="10" stroke-width="1.15385"/>
        <path d="M50.5095,15.90312c19.85769,0,35.9573,9.3427,35.9573,20.86847,0,11.52461-16.09961,20.86731-35.9573,20.86731S14.55334,48.2962,14.55334,36.77159c0-11.52577,16.09847-20.86847,35.95616-20.86847" fill="#fffffa"/>
        <path d="M50.5095,15.90312c19.85769,0,35.9573,9.3427,35.9573,20.86847,0,11.52461-16.09961,20.86731-35.9573,20.86731S14.55334,48.2962,14.55334,36.77159c0-11.52577,16.09847-20.86847,35.95616-20.86847" fill="none" stroke="#5151fc" stroke-miterlimit="10" stroke-width="1.15385"/>
        <path d="M50.5095,11.86466c18.36,0,33.2423,8.43808,33.2423,18.84808,0,10.40885-14.8823,18.84923-33.2423,18.84923S17.266,41.12159,17.266,30.71274c0-10.41,14.88346-18.84808,33.24346-18.84808" fill="#fffffa"/>
        <path d="M50.5095,11.86466c18.36,0,33.2423,8.43808,33.2423,18.84808,0,10.40885-14.8823,18.84923-33.2423,18.84923S17.266,41.12159,17.266,30.71274c0-10.41,14.88346-18.84808,33.24346-18.84808" fill="none" stroke="#5151fc" stroke-miterlimit="10" stroke-width="1.15385"/>
        <path d="M50.5095,8.49889c16.4873,0,29.85115,7.53347,29.85115,16.8277,0,9.29538-13.36385,16.83-29.85115,16.83-16.48616,0-29.85-7.53462-29.85-16.83,0-9.29423,13.36384-16.8277,29.85-16.8277" fill="#fffffa"/>
        <path d="M50.5095,8.49889c16.4873,0,29.85115,7.53347,29.85115,16.8277,0,9.29538-13.36385,16.83-29.85115,16.83-16.48616,0-29.85-7.53462-29.85-16.83,0-9.29423,13.36384-16.8277,29.85-16.8277" fill="none" stroke="#5151fc" stroke-miterlimit="10" stroke-width="1.15385"/>
        <path d="M50.5095,4.45928c13.86346,0,25.10191,6.63,25.10191,14.80846,0,8.18077-11.23845,14.80962-25.10191,14.80962S25.40758,27.44851,25.40758,19.26774c0-8.17846,11.23846-14.80846,25.10192-14.80846" fill="#fffffa"/>
        <path d="M50.5095,4.45928c13.86346,0,25.10191,6.63,25.10191,14.80846,0,8.18077-11.23845,14.80962-25.10191,14.80962S25.40758,27.44851,25.40758,19.26774c0-8.17846,11.23846-14.80846,25.10192-14.80846" fill="none" stroke="#5151fc" stroke-miterlimit="10" stroke-width="1.15385"/>
        <path d="M50.5095,3.11286c10.49077,0,18.99576,4.82307,18.99576,10.77116s-8.505,10.77115-18.99576,10.77115S31.51373,19.83209,31.51373,13.884,40.01873,3.11286,50.5095,3.11286" fill="#fffffa"/>
        <path d="M50.5095,3.11286c10.49077,0,18.99576,4.82307,18.99576,10.77116s-8.505,10.77115-18.99576,10.77115S31.51373,19.83209,31.51373,13.884,40.01873,3.11286,50.5095,3.11286" fill="none" stroke="#5151fc" stroke-miterlimit="10" stroke-width="1.15385"/>
        <path d="M50.5095,2.44005c5.99423,0,10.85538,2.71385,10.85538,6.05885s-4.86115,6.05769-10.85538,6.05769c-5.99539,0-10.85539-2.71269-10.85539-6.05769s4.86-6.05885,10.85539-6.05885" fill="#fffffa"/>
        <path d="M50.5095,2.44005c5.99423,0,10.85538,2.71385,10.85538,6.05885s-4.86115,6.05769-10.85538,6.05769c-5.99539,0-10.85539-2.71269-10.85539-6.05769s4.86-6.05885,10.85539-6.05885" fill="none" stroke="#5151fc" stroke-miterlimit="10" stroke-width="1.15385"/>
      </g>
    </g>
  </g>
</svg>
