<svg id="Layer_1" data-name="Layer 1" xmlns="http://www.w3.org/2000/svg" xmlns:xlink="http://www.w3.org/1999/xlink" viewBox="0 0 150 111.22501">
  <defs>
    <clipPath id="clip-path">
      <rect width="150" height="111.22501" fill="none"/>
    </clipPath>
  </defs>
  <g id="arcipelagoColore">
    <g clip-path="url(#clip-path)">
      <g clip-path="url(#clip-path)">
        <path d="M142.523,77.83351a19.02709,19.02709,0,0,0-2.926-3.154,14.248,14.248,0,0,0-1.447-1.974,11.7865,11.7865,0,0,0-2.683-4.736,11.56048,11.56048,0,0,0-4.137-5.915,11.46658,11.46658,0,0,0-4.994-5.155,19.3134,19.3134,0,0,0-2.442-1.167,9.14963,9.14963,0,0,0-1.96-1.528,15.51342,15.51342,0,0,0-7.643-1.897,15.84726,15.84726,0,0,0-7.658,1.838,9.172,9.172,0,0,0-1.991,1.532,17.413,17.413,0,0,0-4.112,2.246,18.92114,18.92114,0,0,0,.489-4.225c0-7.016-3.886-13.392-10.465-18.444-.488-.559-1.004-1.107-1.555-1.64-.285-.466-.597-.923-.925-1.374a17.41246,17.41246,0,0,0-2.383-4.696,16.4358,16.4358,0,0,0-4.087-7.182,17.361,17.361,0,0,0-4.893-6.203c-1.727-3.502-5.166-6.491-9.735-8.603a23.65542,23.65542,0,0,0-8.607-3.787A18.99742,18.99742,0,0,0,50.51.19551a18.99545,18.99545,0,0,0-7.86,1.574,23.63512,23.63512,0,0,0-8.606,3.787c-4.571,2.112-8.009,5.101-9.737,8.603a17.35156,17.35156,0,0,0-4.891,6.202,16.42032,16.42032,0,0,0-4.089,7.185,17.35648,17.35648,0,0,0-2.38,4.693c-.329.452-.642.909-.926,1.375-.553.533-1.068,1.081-1.557,1.64C3.885,40.30651,0,46.68251,0,53.69851c0,16.789,22.186,29.941,50.51,29.941,16.347,0,30.638-4.387,39.811-11.319-.021.067-.031.135-.05.201a14.28054,14.28054,0,0,0-1.462,1.962,18.47722,18.47722,0,0,0-3.469,3.875c-4.157,3.364-6.596,7.514-6.615,12.065-.023,5.787,3.85,11.132,10.905,15.051,6.616,3.673,15.37,5.715,24.651,5.751h.259c19.858,0,35.413-8.989,35.46-20.526.019-4.892-2.762-9.345-7.477-12.866" fill="#fffffa"/>
        <path d="M114.4342,72.2387c18.389.07,33.264,8.331,33.224,18.451-.04,10.119-14.979,18.266-33.368,18.194-18.388-.07-33.264-8.332-33.223-18.451.04-10.121,14.978-18.265,33.367-18.194" fill="#00c19c"/>
        <path d="M114.4342,72.2387c18.389.07,33.264,8.331,33.224,18.451-.04,10.119-14.979,18.266-33.368,18.194-18.388-.07-33.264-8.332-33.223-18.451.04-10.121,14.978-18.265,33.367-18.194" fill="none" stroke="#fffffa" stroke-miterlimit="10"/>
        <path d="M114.2252,69.03951c15.852.062,28.674,7.505,28.638,16.624-.035,9.119-12.916,16.463-28.767,16.4-15.852-.061-28.675-7.503-28.639-16.623.037-9.12,12.915-16.463,28.768-16.401" fill="#00c19c"/>
        <path d="M114.2252,69.03951c15.852.062,28.674,7.505,28.638,16.624-.035,9.119-12.916,16.463-28.767,16.4-15.852-.061-28.675-7.503-28.639-16.623.037-9.12,12.915-16.463,28.768-16.401" fill="none" stroke="#fffffa" stroke-miterlimit="10"/>
        <path d="M114.2359,66.313c13.66.053,24.709,6.403,24.678,14.185-.031,7.78-11.128,14.045-24.788,13.992-13.661-.054-24.709-6.403-24.678-14.185.03-7.779,11.128-14.045,24.788-13.992" fill="#00c19c"/>
        <path d="M114.2359,66.313c13.66.053,24.709,6.403,24.678,14.185-.031,7.78-11.128,14.045-24.788,13.992-13.661-.054-24.709-6.403-24.678-14.185.03-7.779,11.128-14.045,24.788-13.992" fill="none" stroke="#fffffa" stroke-miterlimit="10"/>
        <path d="M114.2506,62.67721c12.142.047,21.963,5.715,21.935,12.658-.027,6.945-9.892,12.536-22.034,12.489-12.142-.046-21.963-5.714-21.935-12.659.026-6.943,9.891-12.536,22.034-12.488" fill="#00c19c"/>
        <path d="M114.2506,62.67721c12.142.047,21.963,5.715,21.935,12.658-.027,6.945-9.892,12.536-22.034,12.489-12.142-.046-21.963-5.714-21.935-12.659.026-6.943,9.891-12.536,22.034-12.488" fill="none" stroke="#fffffa" stroke-miterlimit="10"/>
        <path d="M114.2642,59.19381c10.624.041,19.217,5.025,19.193,11.132-.024,6.108-8.656,11.026-19.28,10.985s-19.218-5.025-19.193-11.133c.024-6.108,8.656-11.025,19.28-10.984" fill="#00c19c"/>
        <path d="M114.2642,59.19381c10.624.041,19.217,5.025,19.193,11.132-.024,6.108-8.656,11.026-19.28,10.985s-19.218-5.025-19.193-11.133c.024-6.108,8.656-11.025,19.28-10.984" fill="none" stroke="#fffffa" stroke-miterlimit="10"/>
        <path d="M114.275,56.31391c8.517.033,15.405,3.994,15.387,8.847-.021,4.852-6.939,8.76-15.455,8.727-8.518-.034-15.405-3.994-15.386-8.846s6.937-8.759,15.454-8.728" fill="#00c19c"/>
        <path d="M114.275,56.31391c8.517.033,15.405,3.994,15.387,8.847-.021,4.852-6.939,8.76-15.455,8.727-8.518-.034-15.405-3.994-15.386-8.846s6.937-8.759,15.454-8.728" fill="none" stroke="#fffffa" stroke-miterlimit="10"/>
        <path d="M114.2818,54.64891c5.059.02,9.151,2.408,9.14,5.336-.012,2.93-4.122,5.287-9.182,5.268-5.059-.02-9.151-2.409-9.14-5.337.012-2.929,4.122-5.288,9.182-5.267" fill="#00c19c"/>
        <path d="M114.2818,54.64891c5.059.02,9.151,2.408,9.14,5.336-.012,2.93-4.122,5.287-9.182,5.268-5.059-.02-9.151-2.409-9.14-5.337.012-2.929,4.122-5.288,9.182-5.267" fill="none" stroke="#fffffa" stroke-miterlimit="10"/>
        <path d="M50.5094,26.09911c26.603,0,48.169,12.357,48.169,27.6s-21.566,27.598-48.169,27.598c-26.602,0-48.168-12.355-48.168-27.598s21.566-27.6,48.168-27.6" fill="#5151fc"/>
        <path d="M50.5094,26.09911c26.603,0,48.169,12.357,48.169,27.6s-21.566,27.598-48.169,27.598c-26.602,0-48.168-12.355-48.168-27.598s21.566-27.6,48.168-27.6" fill="none" stroke="#fffffa" stroke-miterlimit="10"/>
        <path d="M50.5094,23.40671c23.605,0,42.741,10.85,42.741,24.232,0,13.385-19.136,24.235-42.741,24.235-23.604,0-42.74-10.85-42.74-24.235,0-13.382,19.136-24.232,42.74-24.232" fill="#5151fc"/>
        <path d="M50.5094,23.40671c23.605,0,42.741,10.85,42.741,24.232,0,13.385-19.136,24.235-42.741,24.235-23.604,0-42.74-10.85-42.74-24.235,0-13.382,19.136-24.232,42.74-24.232" fill="none" stroke="#fffffa" stroke-miterlimit="10"/>
        <path d="M50.5094,20.0405c21.357,0,38.671,9.945,38.671,22.214s-17.314,22.215-38.671,22.215c-21.356,0-38.67-9.946-38.67-22.215s17.314-22.214,38.67-22.214" fill="#5151fc"/>
        <path d="M50.5094,20.0405c21.357,0,38.671,9.945,38.671,22.214s-17.314,22.215-38.671,22.215c-21.356,0-38.67-9.946-38.67-22.215s17.314-22.214,38.67-22.214" fill="none" stroke="#fffffa" stroke-miterlimit="10"/>
        <path d="M50.5094,16.0014c19.858,0,35.957,9.343,35.957,20.868,0,11.526-16.099,20.868-35.957,20.868-19.857,0-35.956-9.342-35.956-20.868,0-11.525,16.099-20.868,35.956-20.868" fill="#5151fc"/>
        <path d="M50.5094,16.0014c19.858,0,35.957,9.343,35.957,20.868,0,11.526-16.099,20.868-35.957,20.868-19.857,0-35.956-9.342-35.956-20.868,0-11.525,16.099-20.868,35.956-20.868" fill="none" stroke="#fffffa" stroke-miterlimit="10"/>
        <path d="M50.5094,11.9624c18.36,0,33.242,8.439,33.242,18.849s-14.882,18.848-33.242,18.848c-18.359,0-33.243-8.438-33.243-18.848s14.884-18.849,33.243-18.849" fill="#5151fc"/>
        <path d="M50.5094,11.9624c18.36,0,33.242,8.439,33.242,18.849s-14.882,18.848-33.242,18.848c-18.359,0-33.243-8.438-33.243-18.848s14.884-18.849,33.243-18.849" fill="none" stroke="#fffffa" stroke-miterlimit="10"/>
        <path d="M50.5094,8.59711c16.487,0,29.851,7.534,29.851,16.828,0,9.295-13.364,16.829-29.851,16.829-16.486,0-29.85-7.534-29.85-16.829,0-9.294,13.364-16.828,29.85-16.828" fill="#5151fc"/>
        <path d="M50.5094,8.59711c16.487,0,29.851,7.534,29.851,16.828,0,9.295-13.364,16.829-29.851,16.829-16.486,0-29.85-7.534-29.85-16.829,0-9.294,13.364-16.828,29.85-16.828" fill="none" stroke="#fffffa" stroke-miterlimit="10"/>
        <path d="M50.5094,4.55711c13.863,0,25.103,6.631,25.103,14.81s-11.24,14.808-25.103,14.808c-13.862,0-25.102-6.629-25.102-14.808s11.24-14.81,25.102-14.81" fill="#5151fc"/>
        <path d="M50.5094,4.55711c13.863,0,25.103,6.631,25.103,14.81s-11.24,14.808-25.103,14.808c-13.862,0-25.102-6.629-25.102-14.808s11.24-14.81,25.102-14.81" fill="none" stroke="#fffffa" stroke-miterlimit="10"/>
        <path d="M50.5094,3.2104c10.491,0,18.996,4.822,18.996,10.771s-8.505,10.771-18.996,10.771c-10.49,0-18.995-4.822-18.995-10.771s8.505-10.771,18.995-10.771" fill="#5151fc"/>
        <path d="M50.5094,3.2104c10.491,0,18.996,4.822,18.996,10.771s-8.505,10.771-18.996,10.771c-10.49,0-18.995-4.822-18.995-10.771s8.505-10.771,18.995-10.771" fill="none" stroke="#fffffa" stroke-miterlimit="10"/>
        <path d="M50.5094,2.53851c5.995,0,10.854,2.713,10.854,6.059,0,3.344-4.859,6.057-10.854,6.057s-10.855-2.713-10.855-6.057c0-3.346,4.86-6.059,10.855-6.059" fill="#5151fc"/>
        <path d="M50.5094,2.53851c5.995,0,10.854,2.713,10.854,6.059,0,3.344-4.859,6.057-10.854,6.057s-10.855-2.713-10.855-6.057c0-3.346,4.86-6.059,10.855-6.059" fill="none" stroke="#fffffa" stroke-miterlimit="10"/>
      </g>
    </g>
  </g>
</svg>
