<svg id="Layer_1" data-name="Layer 1" xmlns="http://www.w3.org/2000/svg" xmlns:xlink="http://www.w3.org/1999/xlink" viewBox="0 0 132 110">
  <g id="trama">
    <g>
      <g>
        <path d="M23.63,93.0272c-5.826,0-5.985-10.496-6.249-27.885-.282-18.601-.669-44.077-10.832-44.077v-4c14.102,0,14.49,25.51,14.831,48.017.136,8.91.339,22.318,2.294,23.922.29-.18,1.967-1.582,3.646-11.291,1.21-6.991,2.085-16.105,2.931-24.918,2.451-25.537,3.863-35.186,9.014-35.186,4.814,0,6.186,8.482,8.832,27.668,2.368,17.176,5.947,43.132,13.964,43.132,6.156,0,8.361-3.833,11.448-10.088,3.263-6.61,7.324-14.836,20.135-14.836,9.922,0,12.972-8.056,16.202-16.585,3.019-7.971,6.44-17.006,16.556-17.006v4c-7.354,0-9.885,6.684-12.815,14.423-3.403,8.984-7.259,19.168-19.943,19.168-10.325,0-13.347,6.123-16.548,12.606-2.849,5.774-6.08,12.318-15.035,12.318-11.503,0-14.916-24.749-17.927-46.585-1.268-9.196-2.982-21.626-4.866-24.001-2.302,2.884-3.938,19.923-5.034,31.353-2.661,27.708-4.467,39.851-10.604,39.851" style="fill: #fff"/>
        <path d="M93.6441,78.0009c-12.701,0-16.78-6.806-20.057-12.274-2.764-4.614-4.947-8.257-11.526-8.257-8.836,0-12.19,3.935-15.149,7.407-2.259,2.651-4.595,5.393-8.792,5.393-5.241,0-7.457-6.375-9.6-12.54-1.951-5.614-3.968-11.417-7.506-11.417-5.813,0-11.776,13.548-14.169,22.088l-3.852-1.078c.716-2.559,7.306-25.01,18.021-25.01,6.382,0,8.987,7.493,11.285,14.103,1.604,4.619,3.424,9.854,5.821,9.854,2.246,0,3.516-1.368,5.748-3.988,3.169-3.718,7.509-8.812,18.193-8.812,8.845,0,12.093,5.419,14.957,10.2,3.184,5.312,6.19,10.331,16.626,10.331,9.922,0,12.972-8.056,16.202-16.584,3.019-7.972,6.44-17.006,16.556-17.006v4c-7.354,0-9.885,6.684-12.816,14.423-3.402,8.984-7.258,19.167-19.942,19.167" style="fill: #fff"/>
        <rect x="0.835" y="14.9659" width="8.2" height="8.2" rx="2.5" style="fill: #fff"/>
        <rect x="0.835" y="63.7325" width="8.2" height="8.201" rx="2.5" style="fill: #fff"/>
        <rect x="1.1632" y="87.4356" width="8.2" height="8.2" rx="2.5" style="fill: #fff"/>
        <path d="M126.4019,36.6581a2.50832,2.50832,0,0,1-1.769-.732l-2.262-2.264a2.499,2.499,0,0,1,.001-3.535l2.262-2.263a2.50113,2.50113,0,0,1,3.536,0l2.262,2.263a2.499,2.499,0,0,1,.001,3.535l-2.262,2.264a2.50832,2.50832,0,0,1-1.769.732" style="fill: #fff"/>
        <path d="M126.4019,47.1737a2.49418,2.49418,0,0,1-1.768-.732l-2.262-2.263a2.499,2.499,0,0,1-.001-3.535l2.262-2.264a2.50354,2.50354,0,0,1,3.538,0l2.262,2.264a2.499,2.499,0,0,1-.001,3.535l-2.262,2.263a2.49422,2.49422,0,0,1-1.768.732" style="fill: #fff"/>
        <path d="M126.3912,29.2645a2.49736,2.49736,0,0,1-1.768-.731l-2.263-2.263a2.49875,2.49875,0,0,1,0-3.536l2.263-2.264a2.50236,2.50236,0,0,1,3.537,0l2.262,2.264a2.499,2.499,0,0,1-.001,3.535l-2.262,2.263a2.49417,2.49417,0,0,1-1.768.732" style="fill: #fff"/>
        <path d="M6.5494,19.0663c20.413,0,7.574,71.961,17.081,71.961,9.506,0,7.648-71.418,15.634-71.418s6.255,70.8,22.796,70.8c16.542,0,9.909-24.924,31.585-24.924,21.675,0,14.504-33.59,32.757-33.59" style="fill: none;stroke: #5151fc;stroke-miterlimit: 10"/>
        <path d="M4.919,67.8622s6.588-23.55,16.095-23.55,9.12,23.957,17.106,23.957,7.4-12.8,23.941-12.8,9.908,20.532,31.584,20.532c21.675,0,14.504-33.59,32.757-33.59" style="fill: none;stroke: #5151fc;stroke-miterlimit: 10"/>
        <rect x="3.335" y="17.466" width="3.2" height="3.201" style="fill: #fffffa"/>
        <rect x="3.335" y="17.466" width="3.2" height="3.201" style="fill: none;stroke: #5151fc;stroke-miterlimit: 10"/>
        <rect x="3.335" y="66.232" width="3.2" height="3.201" style="fill: #fffffa"/>
        <rect x="3.335" y="66.232" width="3.2" height="3.201" style="fill: none;stroke: #5151fc;stroke-miterlimit: 10"/>
        <rect x="124.80183" y="30.29479" width="3.20072" height="3.20072" transform="translate(14.48394 98.74662) rotate(-45.01275)" style="fill: #fff"/>
        <rect x="124.80183" y="30.29479" width="3.20072" height="3.20072" transform="translate(14.48394 98.74662) rotate(-45.01275)" style="fill: none;stroke: #5151fc;stroke-miterlimit: 10"/>
        <rect x="124.80183" y="40.81039" width="3.20072" height="3.20072" transform="translate(7.04663 101.82822) rotate(-45.01275)" style="fill: #fff"/>
        <rect x="124.80183" y="40.81039" width="3.20072" height="3.20072" transform="translate(7.04663 101.82822) rotate(-45.01275)" style="fill: none;stroke: #5151fc;stroke-miterlimit: 10"/>
        <path d="M72.6246,107.5721c-13.814-.179-14.545-17.885-15.079-30.813l-.037-1.107c-.384-11.671-.821-24.899-5.985-24.899l-.147.003c-11.594-.066-13.84-5.561-15.326-9.198-.945-2.312-1.213-2.632-2.206-2.632-.093,0-.188.004-.289.011-.05.004-.099.006-.149.006-.049,0-.097-.002-.145-.005-6.007-.437-6.093-7.869-6.176-15.055-.012-1.024-.024-2.061-.051-3.092-.018-3.31-.071-13.253-3.198-13.253-.021,0-.045,0-.071-.001-1.714,1.123-5.398,10.914-8.738,40.982-.386,3.229-.758,6.44-1.121,9.58-.861,7.446-1.674,14.478-2.517,20.21l-.351,2.11c-1.371,8.267-2.126,12.821-5.689,13.502a2.069,2.069,0,0,1-.375.035,1.99981,1.99981,0,0,1-2-2v-1.017a1.99714,1.99714,0,0,1,.769-1.576c.013-.011.026-.02.039-.03a7.361,7.361,0,0,0,.84-2.204c1.514-5.52,2.868-17.217,4.3-29.602.673-5.817,1.369-11.832,2.129-17.672,3.189-22.858,5.625-36.766,12.59-37.327.053-.005.207-.007.23-.006,7.851.273,8.032,10.195,8.178,18.168l.015,1.555a68.90863,68.90863,0,0,0,.425,8.898c.382,2.4.919,2.805.924,2.809.052-.001.057-.023.103-.023l.01.001c4.98.3,6.288,3.471,7.339,6.02,1.281,3.107,2.388,5.792,10.23,5.792l.195-.001c10.094.312,10.605,13.719,11.099,26.684.052,1.368.105,2.746.168,4.121.604,16.064,2.476,26.01,9.931,26.01l.348.001c6.763,0,9.952-9.607,10.341-31.15.094-3.023.126-6.038.155-8.953.152-14.853.273-26.584,8.095-27.113.045-.003.153-.005.162-.005l.289.002c5.301,0,7.409-1.982,10.326-4.725,4.072-3.829,9.141-8.595,24.137-8.635h.006a2.00074,2.00074,0,0,1,2,2v1.017a2.00074,2.00074,0,0,1-2,2h-.187c-12.755,0-16.643,3.653-20.404,7.186-3.177,2.987-6.463,6.074-14.169,6.171l-.12-.002c-.489,0-1.956,1.514-2.6,8.238-.491,4.533-.542,10.246-.595,16.295-.173,19.836-.371,42.32-15.573,42.688-.016.001-.032.001-.049.001Z" style="fill: #fff"/>
      </g>
      <g>
        <rect x="4.974" y="4.521" width="121.37299" height="101.051" style="fill: url(#linear-gradient)"/>
      </g>
      <g>
        <rect x="3.663" y="89.935" width="3.201" height="3.2" style="fill: #fffffa"/>
        <rect x="3.663" y="89.935" width="3.201" height="3.2" style="fill: none;stroke: #5151fc;stroke-miterlimit: 10"/>
        <rect x="124.79132" y="22.90162" width="3.20036" height="3.20036" transform="translate(19.69382 96.5487) rotate(-45)" style="fill: #fff"/>
        <rect x="124.79132" y="22.90162" width="3.20036" height="3.20036" transform="translate(19.69382 96.5487) rotate(-45)" style="fill: none;stroke: #5151fc;stroke-miterlimit: 10"/>
      </g>
    </g>
  </g>
</svg>
