<svg id="Layer_1" data-name="Layer 1" xmlns="http://www.w3.org/2000/svg" xmlns:xlink="http://www.w3.org/1999/xlink" viewBox="0 0 130.33 108.832">
  <defs>
    <clipPath id="clip-path">
      <rect y="-0.051" width="130.33" height="108.93401" fill="none"/>
    </clipPath>
    <linearGradient id="linear-gradient" x1="-519.87027" y1="-733.84109" x2="-518.87025" y2="-733.84109" gradientTransform="matrix(34.7146, 0, 0, -34.7146, 18137.92991, -25444.46697)" gradientUnits="userSpaceOnUse">
      <stop offset="0" stop-color="#5151fc"/>
      <stop offset="0.99866" stop-color="#8131f4"/>
      <stop offset="1" stop-color="#8131f4"/>
    </linearGradient>
    <linearGradient id="linear-gradient-2" x1="-506.92697" y1="-753.64757" x2="-505.92696" y2="-753.64757" gradientTransform="matrix(18.8728, 0, 0, -18.8728, 9639.10051, -14152.70123)" gradientUnits="userSpaceOnUse">
      <stop offset="0" stop-color="orange"/>
      <stop offset="0.00149" stop-color="orange"/>
      <stop offset="1" stop-color="#5151fc"/>
    </linearGradient>
    <linearGradient id="linear-gradient-3" x1="-510.16631" y1="-748.69053" x2="-509.16632" y2="-748.69053" gradientTransform="matrix(21.3062, 0, 0, -21.3062, 10920.36859, -15875.81907)" gradientUnits="userSpaceOnUse">
      <stop offset="0" stop-color="#00ffb6"/>
      <stop offset="1" stop-color="orange"/>
    </linearGradient>
    <linearGradient id="linear-gradient-4" x1="-505.3184" y1="-756.10927" x2="-504.31839" y2="-756.10927" gradientTransform="matrix(17.8599, 0, 0, -17.8599, 9057.73856, -13462.34663)" gradientUnits="userSpaceOnUse">
      <stop offset="0" stop-color="#5151fc"/>
      <stop offset="1" stop-color="#00ffb6"/>
    </linearGradient>
    <linearGradient id="linear-gradient-5" x1="-479.44417" y1="-795.70318" x2="-478.44418" y2="-795.70318" gradientTransform="matrix(9.58514, 0, 0, -9.58514, 4618.75739, -7606.80623)" gradientUnits="userSpaceOnUse">
      <stop offset="0" stop-color="#8131f4"/>
      <stop offset="1" stop-color="#5151fc"/>
    </linearGradient>
    <linearGradient id="linear-gradient-6" x1="-506.80153" y1="-753.83954" x2="-505.80153" y2="-753.83954" gradientTransform="matrix(18.7897, 0, 0, -18.7897, 9527.07637, -14116.84746)" gradientUnits="userSpaceOnUse">
      <stop offset="0" stop-color="#fff800"/>
      <stop offset="1" stop-color="#8131f4"/>
    </linearGradient>
  </defs>
  <g id="tramaColore">
    <g clip-path="url(#clip-path)">
      <g clip-path="url(#clip-path)">
        <path d="M22.7949,92.3926c-5.826,0-5.985-10.496-6.249-27.885-.282-18.601-.669-44.077-10.832-44.077v-4c14.102,0,14.49,25.51,14.831,48.017.136,8.91.339,22.318,2.294,23.922.29-.18,1.967-1.582,3.646-11.291,1.21-6.991,2.085-16.105,2.931-24.918,2.451-25.537,3.863-35.186,9.014-35.186,4.814,0,6.186,8.482,8.832,27.668,2.368,17.176,5.947,43.132,13.964,43.132,6.157,0,8.362-3.833,11.449-10.088,3.263-6.61,7.323-14.836,20.135-14.836,9.922,0,12.971-8.056,16.202-16.585,3.018-7.971,6.439-17.006,16.555-17.006v4c-7.353,0-9.884,6.684-12.815,14.423-3.402,8.984-7.259,19.168-19.942,19.168-10.326,0-13.348,6.123-16.548,12.606-2.85,5.774-6.08,12.318-15.036,12.318-11.503,0-14.916-24.749-17.927-46.585-1.268-9.196-2.982-21.626-4.866-24.001-2.302,2.884-3.938,19.923-5.034,31.353-2.661,27.708-4.467,39.851-10.604,39.851" fill="#fff"/>
        <path d="M92.8096,77.3663c-12.701,0-16.78-6.806-20.057-12.274-2.764-4.614-4.947-8.257-11.527-8.257-8.836,0-12.189,3.935-15.148,7.407-2.259,2.651-4.595,5.393-8.792,5.393-5.242,0-7.457-6.375-9.6-12.54-1.951-5.614-3.969-11.417-7.507-11.417-5.812,0-11.775,13.548-14.169,22.088l-3.851-1.078c.715-2.559,7.305-25.01,18.02-25.01,6.383,0,8.987,7.493,11.285,14.103,1.605,4.619,3.424,9.854,5.822,9.854,2.246,0,3.515-1.368,5.748-3.988,3.169-3.718,7.508-8.812,18.192-8.812,8.846,0,12.094,5.419,14.958,10.2,3.184,5.312,6.19,10.331,16.626,10.331,9.922,0,12.972-8.056,16.202-16.584,3.019-7.972,6.44-17.006,16.556-17.006v4c-7.354,0-9.885,6.684-12.816,14.423-3.402,8.984-7.258,19.167-19.942,19.167" fill="#fff"/>
        <path d="M125.5566,19.3673c-15.704,0-21.31,5.269-25.403,9.116-2.798,2.628-4.487,4.214-9.312,4.214-9.916,0-10.069,13.697-10.264,31.045-.169,15.209-.403,36.039-8.609,36.039-4.779,0-7.357-4.157-8.184-26.879-.534-14.661-1.084-29.821-13.122-29.821-6.727,0-7.493-1.863-8.653-4.684-.951-2.31-2.67-6.469-7.965-7.037-.511-2.097-.565-7.689-.583-9.684-.083-9.169-.195-21.727-10.244-21.727-9.351,0-12.178,16.403-16.834,56.678-1.238,10.708-3.311,28.63-4.742,30.817a2.00019,2.00019,0,0,0,.355,2.805,2.06683,2.06683,0,0,0,.431.256v2.687a2.00009,2.00009,0,0,0,2,2c6.316,0,7.385-7.167,10.898-37.545,1.293-11.187,2.759-23.868,4.556-33.644,1.509-8.212,2.864-12.131,3.7-13.948.796,2.678.855,8.796.88,11.705.079,8.686.168,18.531,8.341,18.531.082,0,.148.001.199.004.203.358.52,1.127.685,1.528,1.579,3.837,4.221,10.258,16.976,10.258,3.358,0,3.839,13.237,4.127,21.148.577,15.84,1.293,35.552,17.179,35.552,17.106,0,17.373-23.874,17.609-44.94.077-6.895.149-13.407.84-17.985a13.6499,13.6499,0,0,1,1.107-4.177c7.906-.19,11.565-3.606,14.794-6.639,3.65-3.432,7.098-6.673,19.238-6.673a2.00072,2.00072,0,0,0,2-2v-5a2.00074,2.00074,0,0,0-2-2" fill="#fff"/>
        <rect y="14.33131" width="8.2" height="8.2" rx="2.5" fill="#fff"/>
        <rect y="63.0979" width="8.2" height="8.201" rx="2.5" fill="#fff"/>
        <rect x="0.3281" y="86.801" width="8.2" height="8.2" rx="2.5" fill="#fff"/>
        <path d="M125.5674,36.02351a2.50831,2.50831,0,0,1-1.769-.732l-2.262-2.264a2.499,2.499,0,0,1,.001-3.535l2.262-2.263a2.50114,2.50114,0,0,1,3.536,0l2.262,2.263a2.499,2.499,0,0,1,.001,3.535l-2.262,2.264a2.50832,2.50832,0,0,1-1.769.732" fill="#fff"/>
        <path d="M125.5674,46.5391a2.49426,2.49426,0,0,1-1.768-.732l-2.262-2.263a2.499,2.499,0,0,1-.001-3.535l2.262-2.264a2.50355,2.50355,0,0,1,3.538,0l2.262,2.264a2.499,2.499,0,0,1-.001,3.535l-2.262,2.263a2.49425,2.49425,0,0,1-1.768.732" fill="#fff"/>
        <path d="M125.5566,28.62991a2.49737,2.49737,0,0,1-1.768-.731l-2.263-2.263a2.49871,2.49871,0,0,1,0-3.536l2.263-2.264a2.50233,2.50233,0,0,1,3.537,0l2.262,2.264a2.499,2.499,0,0,1-.001,3.535l-2.262,2.263a2.49422,2.49422,0,0,1-1.768.732" fill="#fff"/>
      </g>
      <g clip-path="url(#clip-path)">
        <path d="M5.7139,18.4307c20.413,0,7.574,71.962,17.081,71.962s7.649-71.418,15.635-71.418c7.985,0,6.255,70.8,22.796,70.8,16.542,0,9.909-24.924,31.584-24.924s14.505-33.591,32.758-33.591" fill="none" stroke="#5151fc" stroke-miterlimit="10"/>
        <path d="M5.7139,18.4307c20.413,0,7.574,71.962,17.081,71.962s7.649-71.418,15.635-71.418c7.985,0,6.255,70.8,22.796,70.8,16.542,0,9.909-24.924,31.584-24.924s14.505-33.591,32.758-33.591" fill="none" stroke="#5151fc" stroke-miterlimit="10"/>
        <path d="M4.084,67.2276s6.588-23.55,16.095-23.55,9.12,23.957,17.106,23.957,7.4-12.8,23.941-12.8c16.542,0,9.909,20.532,31.584,20.532,21.674,0,14.504-33.59,32.757-33.59" fill="none" stroke="#5151fc" stroke-miterlimit="10"/>
        <path d="M4.084,67.2276s6.588-23.55,16.095-23.55,9.12,23.957,17.106,23.957,7.4-12.8,23.941-12.8c16.542,0,9.909,20.532,31.584,20.532,21.674,0,14.504-33.59,32.757-33.59" fill="none" stroke="#5151fc" stroke-miterlimit="10"/>
        <path d="M90.8418,37.1973c15.08,0,9.936-13.33,34.715-13.33" fill="none" stroke="#fff" stroke-width="0.75"/>
        <path d="M71.9688,104.2813c22.225,0,6.174-67.084,18.873-67.084" fill="none" stroke="#fff" stroke-width="0.75"/>
        <path d="M50.6631,47.5811c16.508,0-.326,56.7,21.306,56.7" fill="none" stroke="#fff" stroke-width="0.75"/>
        <path d="M32.8027,35.7911c7.97,0,1.352,11.79,17.86,11.79" fill="none" stroke="#fff" stroke-width="0.75"/>
        <path d="M23.2178,4.4493c10.466,0,1.615,31.342,9.585,31.342" fill="none" stroke="#fff" stroke-width="0.75"/>
        <path d="M4.4277,90.6924c5.985,0,7.874-86.243,18.79-86.243" fill="none" stroke="#fff" stroke-width="0.75"/>
        <path d="M90.8418,35.19731c6.86757-.0922,8.3945-2.61243,12.38115-6.15043,3.85908-3.5595,9.63556-7.25052,22.33384-7.17956v4c-12.08076.071-16.12174,3.045-19.65542,6.15045-3.4061,3.127-6.84716,7.27176-15.05957,7.17955v-4Z" fill="url(#linear-gradient)"/>
        <path d="M71.9688,102.28131c4.31843-.01887,6.77248-2.99682,8.618-9.03757C83.19291,84.32337,82.955,70.213,83.15007,58.38737c.62252-11.59779-.22083-21.92972,7.69173-23.19v4c-.57183.02872-.96726.17792-1.71946,1.69859-2.54366,5.35726-1.72806,21.69853-2.35149,36.19432-.76763,14.26283-2.67654,28.66276-14.802,29.19109v-4Z" fill="url(#linear-gradient-2)"/>
        <path d="M50.6631,45.58111C61.94155,46.688,60.50548,62.06665,61.393,75.8523c.46926,14.50108,2.24232,26.73061,10.576,26.42882v4h0c-13.30931-.581-13.9242-16.42226-14.57295-30.27119-.275-7.108-.41319-14.15439-1.44155-19.17077-1.152-5.20075-2.66049-7.29783-5.29151-7.258v-4Z" fill="url(#linear-gradient-3)"/>
        <path d="M32.8027,33.79111c5.471-.01628,6.48352,4.77121,7.53357,7.03429,1.33939,2.44727,2.488,4.58078,10.32643,4.7557v4c-8.66964.17493-12.466-3.58657-13.93708-7.03429-1.76046-3.63192-1.42391-4.73941-3.92292-4.75571v-4Z" fill="url(#linear-gradient-4)"/>
        <path d="M23.2178,2.44931c7.981.81033,7.43946,10.12974,7.72836,17.64758a84.71462,84.71462,0,0,0,.44491,10.49149c.50327,2.9092,1.15048,3.23992,1.41173,3.20293v4c-7.23714-1.37653-5.31918-10.13478-5.85636-17.64758a47.0154,47.0154,0,0,0-.87165-10.29237c-.81748-2.69565-1.48469-3.37085-2.857-3.402v-4Z" fill="url(#linear-gradient-5)"/>
        <path d="M4.4277,88.69241v1.14838l-.79612-.87542a1.22077,1.22077,0,0,1,.79612-.273v1.14838l-.79612-.87542c.34915.03337,2.12982-6.2818,3.074-14.36451,1.70827-12.37859,3.35918-30.00022,5.5831-44.57743a134.09232,134.09232,0,0,1,3.88777-18.67178c1.65-4.67248,2.92524-8.45223,7.04127-8.90219v4c-.06083-.02519-.88616.32344-1.88584,2.55623C17.716,16.56332,15.1259,37.34563,13.01667,55.844c-1.07509,9.28553-2.07068,18.0653-3.13818,24.59613a62.57739,62.57739,0,0,1-1.70768,7.97889c-.80095,1.843-.82,3.73235-3.7431,4.2734l0-4Z" fill="url(#linear-gradient-6)"/>
        <rect x="2.5" y="16.831" width="3.2" height="3.2" fill="#fffffa"/>
        <rect x="2.5" y="16.831" width="3.2" height="3.2" fill="none" stroke="#5151fc" stroke-miterlimit="10"/>
        <rect x="2.5" y="65.598" width="3.2" height="3.201" fill="#fffffa"/>
        <rect x="2.5" y="65.598" width="3.2" height="3.201" fill="none" stroke="#5151fc" stroke-miterlimit="10"/>
        <rect x="2.828" y="89.301" width="3.2" height="3.2" fill="#fffffa"/>
        <rect x="2.828" y="89.301" width="3.2" height="3.2" fill="none" stroke="#5151fc" stroke-miterlimit="10"/>
        <rect x="123.96727" y="29.65988" width="3.20036" height="3.20036" transform="translate(14.67366 97.94545) rotate(-45)" fill="#fff"/>
        <rect x="123.96727" y="29.65988" width="3.20036" height="3.20036" transform="translate(14.67366 97.94545) rotate(-45)" fill="none" stroke="#5151fc" stroke-miterlimit="10"/>
        <rect x="123.96727" y="40.17597" width="3.20036" height="3.20036" transform="translate(7.25083 101.05187) rotate(-45.01275)" fill="#fff"/>
        <rect x="123.96727" y="40.17597" width="3.20036" height="3.20036" transform="translate(7.25083 101.05187) rotate(-45.01275)" fill="none" stroke="#5151fc" stroke-miterlimit="10"/>
        <rect x="123.95614" y="22.26669" width="3.20072" height="3.20072" transform="translate(19.89809 95.77235) rotate(-45)" fill="#fff"/>
        <rect x="123.95614" y="22.26669" width="3.20072" height="3.20072" transform="translate(19.89809 95.77235) rotate(-45)" fill="none" stroke="#5151fc" stroke-miterlimit="10"/>
      </g>
    </g>
  </g>
</svg>
