<svg id="Layer_1" data-name="Layer 1" xmlns="http://www.w3.org/2000/svg" xmlns:xlink="http://www.w3.org/1999/xlink" viewBox="0 0 130 105.27501">
  <defs>
    <linearGradient id="linear-gradient" x1="-284.06928" y1="-704.25979" x2="-283.06927" y2="-704.25979" gradientTransform="matrix(34.7146, 0, 0, -34.7146, 9952.15665, -24417.98798)" gradientUnits="userSpaceOnUse">
      <stop offset="0" stop-color="#5151fc"/>
      <stop offset="0.99866" stop-color="#8131f4"/>
      <stop offset="1" stop-color="#8131f4"/>
    </linearGradient>
    <linearGradient id="linear-gradient-2" x1="-276.99677" y1="-723.28623" x2="-275.99676" y2="-723.28623" gradientTransform="matrix(18.8728, 0, 0, -18.8728, 5299.63699, -13580.12158)" gradientUnits="userSpaceOnUse">
      <stop offset="0" stop-color="orange"/>
      <stop offset="0.00149" stop-color="orange"/>
      <stop offset="1" stop-color="#5151fc"/>
    </linearGradient>
    <linearGradient id="linear-gradient-3" x1="-278.76681" y1="-718.52441" x2="-277.76682" y2="-718.52441" gradientTransform="matrix(21.3062, 0, 0, -21.3062, 5990.08788, -15233.51765)" gradientUnits="userSpaceOnUse">
      <stop offset="0" stop-color="#00ffb6"/>
      <stop offset="1" stop-color="orange"/>
    </linearGradient>
    <linearGradient id="linear-gradient-4" x1="-276.1178" y1="-725.65098" x2="-275.1178" y2="-725.65098" gradientTransform="matrix(17.8599, 0, 0, -17.8599, 4964.20233, -12918.78854)" gradientUnits="userSpaceOnUse">
      <stop offset="0" stop-color="#5151fc"/>
      <stop offset="1" stop-color="#00ffb6"/>
    </linearGradient>
    <linearGradient id="linear-gradient-5" x1="-261.97952" y1="-763.68553" x2="-260.97954" y2="-763.68553" gradientTransform="matrix(9.58514, 0, 0, -9.58514, 2534.29155, -7300.33661)" gradientUnits="userSpaceOnUse">
      <stop offset="0" stop-color="#8131f4"/>
      <stop offset="1" stop-color="#5151fc"/>
    </linearGradient>
    <linearGradient id="linear-gradient-6" x1="-276.92822" y1="-723.47064" x2="-275.92822" y2="-723.47064" gradientTransform="matrix(18.7897, 0, 0, -18.7897, 5207.78938, -13546.64884)" gradientUnits="userSpaceOnUse">
      <stop offset="0" stop-color="#fff800"/>
      <stop offset="1" stop-color="#8131f4"/>
    </linearGradient>
  </defs>
  <g id="tramaColore">
    <g>
      <g>
        <path d="M22.7583,90.95111c-5.937,0-6.097-10.537-6.361-27.995-.282-18.555-.667-43.966-10.72-43.966a2.113,2.113,0,0,1,0-4.226c14.214,0,14.602,25.569,14.944,48.128.134,8.766.333,21.924,2.205,23.787.357-.276,1.934-1.953,3.547-11.383,1.191-6.958,2.057-15.978,2.894-24.7,2.458-25.611,3.883-35.289,9.126-35.289,4.908,0,6.289,8.513,8.943,27.765,2.363,17.138,5.934,43.035,13.853,43.035,6.09,0,8.279-3.81,11.347-10.024,3.277-6.638,7.355-14.9,20.237-14.9,9.844,0,12.881-8.019,16.096-16.51,3.032-8.006,6.468-17.079,16.661-17.079a2.1125,2.1125,0,1,1,0,4.225c-6.786,0-9.328,5.421-12.709,14.35-3.415,9.018-7.287,19.24-20.048,19.24-10.255,0-13.264,6.093-16.448,12.544-2.863,5.803-6.11,12.38-15.136,12.38-11.602,0-15.022-24.802-18.038-46.684-1.245-9.022-2.92-21.176-4.754-23.817-2.24,3.208-3.844,19.918-4.924,31.169-2.666,27.776-4.486,39.95-10.715,39.95" fill="#fffffa"/>
        <path d="M22.7583,90.95111c-5.937,0-6.097-10.537-6.361-27.995-.282-18.555-.667-43.966-10.72-43.966a2.113,2.113,0,0,1,0-4.226c14.214,0,14.602,25.569,14.944,48.128.134,8.766.333,21.924,2.205,23.787.357-.276,1.934-1.953,3.547-11.383,1.191-6.958,2.057-15.978,2.894-24.7,2.458-25.611,3.883-35.289,9.126-35.289,4.908,0,6.289,8.513,8.943,27.765,2.363,17.138,5.934,43.035,13.853,43.035,6.09,0,8.279-3.81,11.347-10.024,3.277-6.638,7.355-14.9,20.237-14.9,9.844,0,12.881-8.019,16.096-16.51,3.032-8.006,6.468-17.079,16.661-17.079a2.1125,2.1125,0,1,1,0,4.225c-6.786,0-9.328,5.421-12.709,14.35-3.415,9.018-7.287,19.24-20.048,19.24-10.255,0-13.264,6.093-16.448,12.544-2.863,5.803-6.11,12.38-15.136,12.38-11.602,0-15.022-24.802-18.038-46.684-1.245-9.022-2.92-21.176-4.754-23.817-2.24,3.208-3.844,19.918-4.924,31.169-2.666,27.776-4.486,39.95-10.715,39.95" fill="#fffffa"/>
        <path d="M92.7729,75.92471c-12.767,0-16.863-6.837-20.153-12.33-2.746-4.582-4.915-8.201-11.431-8.201-8.784,0-11.977,3.744-15.062,7.366-2.276,2.671-4.629,5.433-8.878,5.433-5.323,0-7.551-6.414-9.706-12.615-1.848-5.316-3.943-11.341-7.401-11.341-5.749,0-11.676,13.499-14.06,22.006a2.11305,2.11305,0,0,1-4.07-1.138c.719-2.569,7.332-25.094,18.13-25.094,6.464,0,9.082,7.533,11.392,14.18,1.593,4.582,3.398,9.776,5.715,9.776,2.195,0,3.452-1.354,5.662-3.946,3.182-3.738,7.543-8.853,18.278-8.853,8.91,0,12.175,5.447,15.055,10.255,3.167,5.284,6.157,10.276,16.529,10.276,9.845,0,12.882-8.019,16.097-16.511,3.031-8.005,6.467-17.078,16.661-17.078a2.1125,2.1125,0,1,1,0,4.225c-6.786,0-9.328,5.421-12.71,14.35-3.414,9.018-7.286,19.24-20.048,19.24" fill="#fffffa"/>
        <path d="M92.7729,75.92471c-12.767,0-16.863-6.837-20.153-12.33-2.746-4.582-4.915-8.201-11.431-8.201-8.784,0-11.977,3.744-15.062,7.366-2.276,2.671-4.629,5.433-8.878,5.433-5.323,0-7.551-6.414-9.706-12.615-1.848-5.316-3.943-11.341-7.401-11.341-5.749,0-11.676,13.499-14.06,22.006a2.11305,2.11305,0,0,1-4.07-1.138c.719-2.569,7.332-25.094,18.13-25.094,6.464,0,9.082,7.533,11.392,14.18,1.593,4.582,3.398,9.776,5.715,9.776,2.195,0,3.452-1.354,5.662-3.946,3.182-3.738,7.543-8.853,18.278-8.853,8.91,0,12.175,5.447,15.055,10.255,3.167,5.284,6.157,10.276,16.529,10.276,9.845,0,12.882-8.019,16.097-16.511,3.031-8.005,6.467-17.078,16.661-17.078a2.1125,2.1125,0,1,1,0,4.225c-6.786,0-9.328,5.421-12.71,14.35-3.414,9.018-7.286,19.24-20.048,19.24" fill="#fffffa"/>
        <path d="M2.1128,13.14722h3.199a2.114,2.114,0,0,1,2.114,2.114v3.2a2.112,2.112,0,0,1-2.112,2.112H2.1128a2.112,2.112,0,0,1-2.112-2.112v-3.202A2.112,2.112,0,0,1,2.1128,13.14722Z" fill="#fffffa"/>
        <path d="M2.1128,61.49681h3.199a2.114,2.114,0,0,1,2.114,2.114v3.201a2.112,2.112,0,0,1-2.112,2.112H2.1128a2.112,2.112,0,0,1-2.112-2.112v-3.203a2.112,2.112,0,0,1,2.112-2.112Z" fill="#fffffa"/>
        <path d="M2.1128,85.25361h3.199a2.114,2.114,0,0,1,2.114,2.114v3.2a2.112,2.112,0,0,1-2.112,2.112H2.1128a2.112,2.112,0,0,1-2.112-2.112v-3.202A2.112,2.112,0,0,1,2.1128,85.25361Z" fill="#fffffa"/>
        <path d="M71.8081,105.27531c-13.922-.18-14.656-17.948-15.191-30.922l-.037-1.099c-.383-11.624-.817-24.798-5.872-24.798l-.143.004c-11.675-.067-13.938-5.605-15.435-9.268-.964-2.357-1.22-2.563-2.102-2.563-.09,0-.183.003-.281.01-.052.005-.104.007-.157.007-.052,0-.102-.002-.153-.006-6.11-.443-6.196-7.928-6.281-15.166-.012-1.022-.024-2.058-.051-3.091-.018-3.284-.069-13.142-3.084-13.142h-.033c-1.711,1.239-5.359,11.115-8.664,40.882-.388,3.237-.76,6.456-1.124,9.603-.86,7.437-1.672,14.461-2.515,20.191l-.352,2.111c-1.379,8.317-2.138,12.898-5.779,13.594a2.11358,2.11358,0,0,1-2.509-2.076v-1.017a2.11225,2.11225,0,0,1,.814-1.666l.023-.019a7.35217,7.35217,0,0,0,.815-2.153c1.512-5.514,2.865-17.206,4.298-29.585.672-5.818,1.369-11.835,2.128-17.675,3.197-22.916,5.645-36.859,12.693-37.425.056-.005.218-.007.242-.006,7.958.275,8.141,10.256,8.288,18.277l.016,1.556a68.45565,68.45565,0,0,0,.423,8.882,6.02738,6.02738,0,0,0,.835,2.689c.033.001.066.002.097.004,5.051.304,6.43,3.647,7.436,6.088,1.265,3.071,2.359,5.723,10.128,5.723l.192-.001c10.204.316,10.717,13.776,11.213,26.793.053,1.368.104,2.745.168,4.119.601,15.999,2.454,25.904,9.819,25.904l.348.001c6.684,0,9.84-9.573,10.227-31.04.095-3.024.126-6.036.156-8.95.153-14.913.273-26.692,8.2-27.226.047-.004.162-.006.171-.006l.286.002c5.257,0,7.352-1.969,10.25-4.694,4.087-3.843,9.173-8.625,24.214-8.665h.005a2.11341,2.11341,0,0,1,2.113,2.113v1.016a2.11341,2.11341,0,0,1-2.113,2.113h-.186c-12.71,0-16.582,3.637-20.326,7.156-3.193,3-6.495,6.103-14.245,6.201l-.127-.002c-.377,0-1.836,1.381-2.483,8.135-.49,4.529-.541,10.24-.593,16.286-.175,19.887-.372,42.428-15.683,42.8-.017.001-.034.001-.052.001Z" fill="#fffffa"/>
        <path d="M125.6235,33.94231a2.10259,2.10259,0,0,1-1.493-.619l-2.263-2.263a2.11185,2.11185,0,0,1,0-2.987l2.263-2.264a2.11365,2.11365,0,0,1,2.987,0l2.264,2.264a2.11121,2.11121,0,0,1,0,2.987l-2.264,2.263a2.10482,2.10482,0,0,1-1.494.619" fill="#fffffa"/>
        <path d="M125.6235,44.77831a2.10572,2.10572,0,0,1-1.493-.618l-2.263-2.263a2.11185,2.11185,0,0,1,0-2.987l2.263-2.264a2.11123,2.11123,0,0,1,2.987,0l2.264,2.264a2.11121,2.11121,0,0,1,0,2.987l-2.264,2.263a2.108,2.108,0,0,1-1.494.618" fill="#fffffa"/>
        <path d="M125.6235,26.663a2.11014,2.11014,0,0,1-1.493-.619l-2.263-2.264a2.11185,2.11185,0,0,1,0-2.987l2.263-2.263a2.11365,2.11365,0,0,1,2.987,0l2.264,2.263a2.11121,2.11121,0,0,1,0,2.987l-2.264,2.264a2.11243,2.11243,0,0,1-1.494.619" fill="#fffffa"/>
        <path d="M5.6772,18.00681c20.413,0,7.574,71.962,17.081,71.962s7.649-71.418,15.635-71.418c7.985,0,6.255,70.8,22.796,70.8,16.542,0,9.909-24.924,31.584-24.924s14.505-33.591,32.758-33.591" fill="none" stroke="#5151fc" stroke-miterlimit="10"/>
        <path d="M5.6772,18.00681c20.413,0,7.574,71.962,17.081,71.962s7.649-71.418,15.635-71.418c7.985,0,6.255,70.8,22.796,70.8,16.542,0,9.909-24.924,31.584-24.924s14.505-33.591,32.758-33.591" fill="none" stroke="#5151fc" stroke-miterlimit="10"/>
        <path d="M4.0473,66.80361s6.588-23.55,16.095-23.55,9.12,23.957,17.106,23.957,7.4-12.8,23.941-12.8c16.542,0,9.909,20.532,31.584,20.532,21.674,0,14.504-33.59,32.757-33.59" fill="none" stroke="#5151fc" stroke-miterlimit="10"/>
        <path d="M4.0473,66.80361s6.588-23.55,16.095-23.55,9.12,23.957,17.106,23.957,7.4-12.8,23.941-12.8c16.542,0,9.909,20.532,31.584,20.532,21.674,0,14.504-33.59,32.757-33.59" fill="none" stroke="#5151fc" stroke-miterlimit="10"/>
        <path d="M4.1577,90.16791c5.998,0,7.89-86.418,18.828-86.418,10.486,0,1.618,31.405,9.605,31.405,7.985,0,1.353,11.815,17.895,11.815,16.541,0-.326,56.814,21.35,56.814,22.268,0,6.185-67.22,18.91-67.22,15.111,0,9.956-13.357,34.785-13.357" fill="none" stroke="#fffffa" stroke-miterlimit="10"/>
        <path d="M4.1577,90.16791c5.998,0,7.89-86.418,18.828-86.418,10.486,0,1.618,31.405,9.605,31.405,7.985,0,1.353,11.815,17.895,11.815,16.541,0-.326,56.814,21.35,56.814,22.268,0,6.185-67.22,18.91-67.22,15.111,0,9.956-13.357,34.785-13.357" fill="none" stroke="#fffffa" stroke-miterlimit="10" stroke-width="2.113"/>
        <path d="M90.8052,36.77341c15.08,0,9.936-13.33,34.715-13.33" fill="none" stroke="#fff" stroke-width="0.75"/>
        <path d="M71.9321,103.85741c22.225,0,6.174-67.084,18.873-67.084" fill="none" stroke="#fff" stroke-width="0.75"/>
        <path d="M50.6264,47.15721c16.508,0-.326,56.7,21.306,56.7" fill="none" stroke="#fff" stroke-width="0.75"/>
        <path d="M32.7661,35.36711c7.97,0,1.352,11.79,17.86,11.79" fill="none" stroke="#fff" stroke-width="0.75"/>
        <path d="M23.1811,4.02531c10.466,0,1.615,31.342,9.585,31.342" fill="none" stroke="#fff" stroke-width="0.75"/>
        <path d="M4.3911,90.26851c5.985,0,7.874-86.243,18.79-86.243" fill="none" stroke="#fff" stroke-width="0.75"/>
        <path d="M90.8052,34.77341c6.86758-.0922,8.3945-2.61243,12.38116-6.15043,3.85907-3.5595,9.63555-7.25051,22.33384-7.17956v4c-12.08077.071-16.12175,3.04494-19.65542,6.15044-3.40611,3.127-6.84717,7.27177-15.05958,7.17956v-4Z" fill="url(#linear-gradient)"/>
        <path d="M71.9321,101.85741c4.31843-.01887,6.77247-2.99681,8.618-9.03756,2.60607-8.92037,2.36819-23.03072,2.56324-34.85637.62252-11.59778-.22084-21.92971,7.69172-23.19v4c-.57182.02872-.96725.17792-1.71946,1.69859-2.54365,5.35726-1.72806,21.69853-2.35148,36.19432-.76764,14.26283-2.67654,28.66276-14.802,29.19109v-4Z" fill="url(#linear-gradient-2)"/>
        <path d="M50.6264,45.15721c11.27845,1.10692,9.84238,16.48555,10.72994,30.2712.46925,14.50109,2.24233,26.73062,10.576,26.42882v4C58.62309,105.2762,58.0082,89.435,57.35945,75.586c-.275-7.108-.41318-14.15439-1.44155-19.17077-1.152-5.20076-2.66048-7.29782-5.2915-7.258v-4Z" fill="url(#linear-gradient-3)"/>
        <path d="M32.7661,33.36712c5.471-.01628,6.48352,4.77121,7.53357,7.03429,1.33939,2.44728,2.488,4.58078,10.32643,4.75571v4c-8.66963.17493-12.466-3.58656-13.93707-7.03429-1.76046-3.63191-1.42392-4.73941-3.92293-4.75571v-4Z" fill="url(#linear-gradient-4)"/>
        <path d="M23.1811,2.02531c7.981.81034,7.43946,10.12974,7.72836,17.64759a84.71444,84.71444,0,0,0,.44491,10.49148c.50327,2.90921,1.15047,3.23992,1.41172,3.20294v4c-7.23713-1.37652-5.31917-10.13478-5.85636-17.64757a47.01364,47.01364,0,0,0-.87165-10.29238c-.81747-2.69565-1.48467-3.37085-2.857-3.402v-4Z" fill="url(#linear-gradient-5)"/>
        <path d="M4.3911,88.26851v1.14838L3.595,88.54148a1.2207,1.2207,0,0,1,.79612-.273v1.14838L3.595,88.54148c.34915.03337,2.12982-6.28181,3.074-14.36451,1.70827-12.3786,3.35918-30.00023,5.5831-44.57744a134.09215,134.09215,0,0,1,3.88777-18.67177c1.65-4.67249,2.92524-8.45224,7.04127-8.9022v4c-.06083-.02519-.88616.32344-1.88584,2.55623-3.61586,7.55763-6.20595,28.33994-8.31518,46.83835-1.07509,9.28553-2.07068,18.0653-3.13818,24.59613a62.577,62.577,0,0,1-1.70768,7.97889c-.80095,1.843-.82,3.73235-3.7431,4.2734l0-4Z" fill="url(#linear-gradient-6)"/>
        <rect x="2.113" y="16.39101" width="3.201" height="3.2" fill="#fffffa"/>
        <rect x="2.113" y="16.39101" width="3.201" height="3.2" fill="none" stroke="#5151fc" stroke-miterlimit="10"/>
        <rect x="2.113" y="64.74101" width="3.201" height="3.2" fill="#fffffa"/>
        <rect x="2.113" y="64.74101" width="3.201" height="3.2" fill="none" stroke="#5151fc" stroke-miterlimit="10"/>
        <rect x="2.113" y="88.49701" width="3.201" height="3.2" fill="#fffffa"/>
        <rect x="2.113" y="88.49701" width="3.201" height="3.2" fill="none" stroke="#5151fc" stroke-miterlimit="10"/>
        <rect x="124.02362" y="28.09703" width="3.20036" height="3.20036" transform="translate(15.79526 97.52755) rotate(-45)" fill="#fff"/>
        <rect x="124.02362" y="28.09703" width="3.20036" height="3.20036" transform="translate(15.79526 97.52755) rotate(-45)" fill="none" stroke="#5151fc" stroke-miterlimit="10"/>
        <rect x="124.02362" y="38.93293" width="3.20036" height="3.20036" transform="translate(8.13312 100.70131) rotate(-45)" fill="#fff"/>
        <rect x="124.02362" y="38.93293" width="3.20036" height="3.20036" transform="translate(8.13312 100.70131) rotate(-45)" fill="none" stroke="#5151fc" stroke-miterlimit="10"/>
        <rect x="124.02344" y="20.8173" width="3.20072" height="3.20072" transform="translate(20.95892 95.4187) rotate(-45.01275)" fill="#fff"/>
        <rect x="124.02344" y="20.8173" width="3.20072" height="3.20072" transform="translate(20.95892 95.4187) rotate(-45.01275)" fill="none" stroke="#5151fc" stroke-miterlimit="10"/>
      </g>
    </g>
  </g>
</svg>
