<svg id="Layer_1" data-name="Layer 1" xmlns="http://www.w3.org/2000/svg" xmlns:xlink="http://www.w3.org/1999/xlink" viewBox="0 0 130 105.27501">
  <g id="trama">
    <g>
      <g>
        <path d="M22.7583,90.95111c-5.937,0-6.097-10.537-6.361-27.995-.282-18.555-.667-43.966-10.72-43.966a2.113,2.113,0,0,1,0-4.226c14.214,0,14.602,25.569,14.945,48.128.133,8.766.332,21.924,2.204,23.787.357-.276,1.934-1.953,3.548-11.383,1.19-6.958,2.055-15.978,2.893-24.7,2.458-25.611,3.882-35.289,9.126-35.289,4.908,0,6.288,8.513,8.944,27.765,2.362,17.138,5.933,43.035,13.852,43.035,6.09,0,8.279-3.81,11.347-10.024,3.277-6.638,7.355-14.9,20.237-14.9,9.843,0,12.881-8.019,16.096-16.51,3.032-8.006,6.468-17.079,16.661-17.079a2.1125,2.1125,0,1,1,0,4.225c-6.786,0-9.328,5.421-12.709,14.35-3.415,9.018-7.287,19.24-20.048,19.24-10.255,0-13.264,6.093-16.448,12.544-2.863,5.803-6.11,12.38-15.136,12.38-11.602,0-15.021-24.802-18.038-46.684-1.245-9.022-2.92-21.176-4.755-23.817-2.239,3.208-3.843,19.918-4.923,31.169-2.667,27.776-4.486,39.95-10.715,39.95" fill="#fffffa"/>
        <path d="M22.7583,90.95111c-5.937,0-6.097-10.537-6.361-27.995-.282-18.555-.667-43.966-10.72-43.966a2.113,2.113,0,0,1,0-4.226c14.214,0,14.602,25.569,14.945,48.128.133,8.766.332,21.924,2.204,23.787.357-.276,1.934-1.953,3.548-11.383,1.19-6.958,2.055-15.978,2.893-24.7,2.458-25.611,3.882-35.289,9.126-35.289,4.908,0,6.288,8.513,8.944,27.765,2.362,17.138,5.933,43.035,13.852,43.035,6.09,0,8.279-3.81,11.347-10.024,3.277-6.638,7.355-14.9,20.237-14.9,9.843,0,12.881-8.019,16.096-16.51,3.032-8.006,6.468-17.079,16.661-17.079a2.1125,2.1125,0,1,1,0,4.225c-6.786,0-9.328,5.421-12.709,14.35-3.415,9.018-7.287,19.24-20.048,19.24-10.255,0-13.264,6.093-16.448,12.544-2.863,5.803-6.11,12.38-15.136,12.38-11.602,0-15.021-24.802-18.038-46.684-1.245-9.022-2.92-21.176-4.755-23.817-2.239,3.208-3.843,19.918-4.923,31.169-2.667,27.776-4.486,39.95-10.715,39.95" fill="#fffffa"/>
        <path d="M92.773,75.92471c-12.767,0-16.863-6.837-20.153-12.33-2.746-4.582-4.915-8.201-11.431-8.201-8.784,0-11.976,3.744-15.062,7.366-2.276,2.671-4.629,5.433-8.878,5.433-5.322,0-7.551-6.414-9.707-12.615-1.848-5.316-3.942-11.341-7.4-11.341-5.749,0-11.675,13.499-14.06,22.006a2.11305,2.11305,0,0,1-4.07-1.138c.719-2.569,7.333-25.094,18.13-25.094,6.464,0,9.082,7.533,11.392,14.18,1.593,4.582,3.398,9.776,5.715,9.776,2.195,0,3.451-1.354,5.662-3.946,3.183-3.738,7.543-8.853,18.278-8.853,8.91,0,12.175,5.447,15.055,10.255,3.167,5.284,6.157,10.276,16.529,10.276,9.844,0,12.882-8.019,16.097-16.511,3.031-8.005,6.467-17.078,16.661-17.078a2.1125,2.1125,0,1,1,0,4.225c-6.786,0-9.328,5.421-12.71,14.35-3.414,9.018-7.286,19.24-20.048,19.24" fill="#fffffa"/>
        <path d="M92.773,75.92471c-12.767,0-16.863-6.837-20.153-12.33-2.746-4.582-4.915-8.201-11.431-8.201-8.784,0-11.976,3.744-15.062,7.366-2.276,2.671-4.629,5.433-8.878,5.433-5.322,0-7.551-6.414-9.707-12.615-1.848-5.316-3.942-11.341-7.4-11.341-5.749,0-11.675,13.499-14.06,22.006a2.11305,2.11305,0,0,1-4.07-1.138c.719-2.569,7.333-25.094,18.13-25.094,6.464,0,9.082,7.533,11.392,14.18,1.593,4.582,3.398,9.776,5.715,9.776,2.195,0,3.451-1.354,5.662-3.946,3.183-3.738,7.543-8.853,18.278-8.853,8.91,0,12.175,5.447,15.055,10.255,3.167,5.284,6.157,10.276,16.529,10.276,9.844,0,12.882-8.019,16.097-16.511,3.031-8.005,6.467-17.078,16.661-17.078a2.1125,2.1125,0,1,1,0,4.225c-6.786,0-9.328,5.421-12.71,14.35-3.414,9.018-7.286,19.24-20.048,19.24" fill="#fffffa"/>
        <path d="M2.1128,13.14722h3.199a2.114,2.114,0,0,1,2.114,2.114v3.2a2.112,2.112,0,0,1-2.112,2.112H2.1118a2.112,2.112,0,0,1-2.112-2.112v-3.201A2.113,2.113,0,0,1,2.1128,13.14722Z" fill="#fffffa"/>
        <path d="M2.1128,61.49681h3.199a2.114,2.114,0,0,1,2.114,2.114v3.201a2.112,2.112,0,0,1-2.112,2.112H2.1118a2.112,2.112,0,0,1-2.112-2.112v-3.202A2.113,2.113,0,0,1,2.1128,61.49681Z" fill="#fffffa"/>
        <path d="M2.1128,85.25361h3.199a2.114,2.114,0,0,1,2.114,2.114v3.2a2.112,2.112,0,0,1-2.112,2.112H2.1118a2.112,2.112,0,0,1-2.112-2.112v-3.201A2.113,2.113,0,0,1,2.1128,85.25361Z" fill="#fffffa"/>
        <path d="M71.8081,105.27531c-13.922-.18-14.656-17.948-15.192-30.922l-.036-1.099c-.383-11.624-.817-24.798-5.872-24.798l-.143.004c-11.675-.067-13.938-5.605-15.435-9.268-.963-2.357-1.22-2.563-2.103-2.563-.09,0-.182.003-.279.01-.053.005-.106.007-.158.007q-.0765,0-.153-.006c-6.111-.443-6.197-7.928-6.281-15.166-.012-1.022-.024-2.058-.051-3.091-.018-3.284-.069-13.142-3.084-13.142h-.034c-1.71,1.239-5.358,11.115-8.663,40.882-.388,3.237-.761,6.456-1.124,9.603-.86,7.437-1.673,14.461-2.516,20.191l-.351,2.111c-1.379,8.317-2.138,12.898-5.779,13.594a2.11358,2.11358,0,0,1-2.509-2.076v-1.017a2.11225,2.11225,0,0,1,.814-1.666l.023-.019a7.38294,7.38294,0,0,0,.815-2.153c1.512-5.514,2.865-17.206,4.297-29.585.673-5.818,1.37-11.835,2.129-17.675,3.197-22.916,5.644-36.859,12.693-37.425.056-.005.218-.007.242-.006,7.958.275,8.141,10.256,8.288,18.277l.015,1.556a68.43651,68.43651,0,0,0,.424,8.882,6.00443,6.00443,0,0,0,.836,2.689c.032.001.065.002.096.004,5.051.304,6.429,3.647,7.436,6.088,1.266,3.071,2.359,5.723,10.128,5.723l.192-.001c10.204.316,10.717,13.776,11.213,26.793.052,1.368.104,2.745.167,4.119.602,15.999,2.455,25.904,9.82,25.904l.348.001c6.684,0,9.84-9.573,10.227-31.04.095-3.024.126-6.036.156-8.95.153-14.913.273-26.692,8.2-27.226.047-.004.162-.006.171-.006l.286.002c5.257,0,7.352-1.969,10.25-4.694,4.086-3.843,9.173-8.625,24.214-8.665h.005a2.11341,2.11341,0,0,1,2.113,2.113v1.016a2.11341,2.11341,0,0,1-2.113,2.113h-.186c-12.71,0-16.582,3.637-20.326,7.156-3.193,3-6.495,6.103-14.245,6.201l-.127-.002c-.377,0-1.836,1.381-2.483,8.135-.491,4.529-.541,10.24-.593,16.286-.175,19.887-.373,42.428-15.684,42.8-.016.001-.033.001-.051.001Z" fill="#fffffa"/>
        <path d="M125.6236,33.94231a2.10257,2.10257,0,0,1-1.493-.619l-2.263-2.263a2.11183,2.11183,0,0,1,0-2.987l2.263-2.264a2.11365,2.11365,0,0,1,2.987,0l2.264,2.264a2.11365,2.11365,0,0,1,0,2.987l-2.264,2.263a2.10482,2.10482,0,0,1-1.494.619" fill="#fffffa"/>
        <path d="M125.6236,44.77831a2.1057,2.1057,0,0,1-1.493-.618l-2.263-2.263a2.11183,2.11183,0,0,1,0-2.987l2.263-2.264a2.11123,2.11123,0,0,1,2.987,0l2.264,2.264a2.11365,2.11365,0,0,1,0,2.987l-2.264,2.263a2.108,2.108,0,0,1-1.494.618" fill="#fffffa"/>
        <path d="M125.6236,26.663a2.11014,2.11014,0,0,1-1.493-.619l-2.263-2.264a2.11183,2.11183,0,0,1,0-2.987l2.263-2.263a2.11365,2.11365,0,0,1,2.987,0l2.264,2.263a2.11365,2.11365,0,0,1,0,2.987l-2.264,2.264a2.11243,2.11243,0,0,1-1.494.619" fill="#fffffa"/>
        <path d="M5.6773,17.00681c20.413,0,7.574,71.962,17.081,71.962s7.649-71.418,15.635-71.418c7.985,0,6.255,70.8,22.796,70.8,16.542,0,9.909-24.924,31.584-24.924s14.505-33.591,32.758-33.591" fill="none" stroke="#fff" stroke-miterlimit="10" stroke-width="1.016"/>
        <path d="M5.6773,17.00681c20.413,0,7.574,71.962,17.081,71.962s7.649-71.418,15.635-71.418c7.985,0,6.255,70.8,22.796,70.8,16.542,0,9.909-24.924,31.584-24.924s14.505-33.591,32.758-33.591" fill="none" stroke="#5151fc" stroke-miterlimit="10" stroke-width="1.056"/>
        <path d="M4.0474,65.80361s6.588-23.55,16.095-23.55,9.12,23.957,17.106,23.957c7.985,0,7.4-12.8,23.941-12.8,16.542,0,9.909,20.532,31.584,20.532,21.674,0,14.504-33.59,32.757-33.59" fill="none" stroke="#fff" stroke-miterlimit="10" stroke-width="1.016"/>
        <path d="M4.0474,65.80361s6.588-23.55,16.095-23.55,9.12,23.957,17.106,23.957c7.985,0,7.4-12.8,23.941-12.8,16.542,0,9.909,20.532,31.584,20.532,21.674,0,14.504-33.59,32.757-33.59" fill="none" stroke="#5151fc" stroke-miterlimit="10" stroke-width="1.056"/>
        <path d="M4.1582,89.16791c5.997,0,7.89-86.418,18.827-86.418,10.487,0,1.619,31.405,9.605,31.405,7.985,0,1.354,11.815,17.896,11.815,16.541,0-.327,56.814,21.349,56.814,22.269,0,6.186-67.22,18.91-67.22,15.112,0,9.956-13.357,34.786-13.357" fill="none" stroke="#fffffa" stroke-miterlimit="10" stroke-width="2.113"/>
      </g>
      <g>
        <rect x="4.158" y="2.24201" width="121.37299" height="101.05" fill="url(#linear-gradient)"/>
      </g>
      <g>
        <rect x="2.113" y="15.39101" width="3.201" height="3.2" fill="#fffffa"/>
        <rect x="2.113" y="15.39101" width="3.201" height="3.2" fill="none" stroke="#5151fc" stroke-miterlimit="10" stroke-width="1.056"/>
        <rect x="2.113" y="63.74101" width="3.201" height="3.2" fill="#fffffa"/>
        <rect x="2.113" y="63.74101" width="3.201" height="3.2" fill="none" stroke="#5151fc" stroke-miterlimit="10" stroke-width="1.056"/>
        <rect x="2.113" y="87.49701" width="3.201" height="3.2" fill="#fffffa"/>
        <rect x="2.113" y="87.49701" width="3.201" height="3.2" fill="none" stroke="#5151fc" stroke-miterlimit="10" stroke-width="1.056"/>
        <rect x="124.02372" y="28.09703" width="3.20036" height="3.20036" transform="translate(15.79529 97.52762) rotate(-45)" fill="#fff"/>
        <rect x="124.02372" y="28.09703" width="3.20036" height="3.20036" transform="translate(15.79529 97.52762) rotate(-45)" fill="none" stroke="#5151fc" stroke-miterlimit="10" stroke-width="1.056"/>
        <rect x="124.02372" y="38.93293" width="3.20036" height="3.20036" transform="translate(8.13315 100.70138) rotate(-45)" fill="#fff"/>
        <rect x="124.02372" y="38.93293" width="3.20036" height="3.20036" transform="translate(8.13315 100.70138) rotate(-45)" fill="none" stroke="#5151fc" stroke-miterlimit="10" stroke-width="1.056"/>
        <rect x="124.02354" y="20.8173" width="3.20072" height="3.20072" transform="translate(20.95895 95.41877) rotate(-45.01275)" fill="#fff"/>
        <rect x="124.02354" y="20.8173" width="3.20072" height="3.20072" transform="translate(20.95895 95.41877) rotate(-45.01275)" fill="none" stroke="#5151fc" stroke-miterlimit="10" stroke-width="1.056"/>
      </g>
    </g>
  </g>
</svg>
