<svg id="Layer_1" data-name="Layer 1" xmlns="http://www.w3.org/2000/svg" xmlns:xlink="http://www.w3.org/1999/xlink" viewBox="0 0 128.842 84.44931">
  <g id="trasformareColore">
    <g>
      <g>
        <path d="M96.31019,39.52731c.002-.097.015-.19.015-.288a10.73232,10.73232,0,0,0-5.863-9.549,10.69026,10.69026,0,0,0-12.673-14.268,15.75344,15.75344,0,0,0-29.729-6.932,11.53275,11.53275,0,1,0-10.317,20.18,10.68545,10.68545,0,0,0,1.3,9.235,10.64768,10.64768,0,0,0-3.12,11.665,10.723,10.723,0,1,0,12.889,16.759c.227.165.46.322.699.469a10.72356,10.72356,0,1,0,20.642,4.367,10.74778,10.74778,0,0,0,9.1-7.287,10.62,10.62,0,0,0,10.64-4.409,10.7235,10.7235,0,1,0,6.417-19.942" fill="#bbf"/>
        <path d="M73.09139,15.77051a11.0555,11.0555,0,1,1-11.056-11.056,11.05672,11.05672,0,0,1,11.056,11.056" fill="#ffd93b"/>
        <path d="M73.09139,15.77051a11.0555,11.0555,0,1,1-11.056-11.056A11.05672,11.05672,0,0,1,73.09139,15.77051Z" fill="none" stroke="#b28f1e" stroke-miterlimit="10" stroke-width="1.572"/>
        <path d="M47.83259,17.60541a6.8275,6.8275,0,1,1-6.827-6.827,6.82693,6.82693,0,0,1,6.827,6.827" fill="#ffd93b"/>
        <path d="M86.48889,25.79781a6.015,6.015,0,1,1-6.015-6.015,6.01585,6.01585,0,0,1,6.015,6.015" fill="#ff6c39"/>
        <path d="M91.609,39.23921a6.0145,6.0145,0,1,1-6.015-6.015,6.01436,6.01436,0,0,1,6.015,6.015" fill="#ff6c39"/>
        <path d="M87.12849,53.32131a6.0145,6.0145,0,1,1-6.015-6.016,6.015,6.015,0,0,1,6.015,6.016" fill="#ff6c39"/>
        <path d="M75.09529,60.48921a6.0145,6.0145,0,1,1-6.015-6.015,6.01521,6.01521,0,0,1,6.015,6.015" fill="#ff6c39"/>
        <path d="M65.45369,70.85841a6.0145,6.0145,0,1,1-6.015-6.015,6.015,6.015,0,0,1,6.015,6.015" fill="#ff6c39"/>
        <path d="M61.14219,57.67281a6.0145,6.0145,0,1,1-6.015-6.015,6.0152,6.0152,0,0,1,6.015,6.015" fill="#ff6c39"/>
        <path d="M46.97519,59.03911a6.0145,6.0145,0,1,1-6.015-6.016,6.015,6.015,0,0,1,6.015,6.016" fill="#ff6c39"/>
        <path d="M52.05339,46.02441a6.0145,6.0145,0,1,1-6.015-6.015,6.01563,6.01563,0,0,1,6.015,6.015" fill="#ff6c39"/>
        <path d="M53.97329,31.94241a6.0145,6.0145,0,1,1-6.015-6.015,6.0152,6.0152,0,0,1,6.015,6.015" fill="#ff6c39"/>
        <path d="M101.29749,50.206a6.015,6.015,0,1,1-6.015-6.015,6.01563,6.01563,0,0,1,6.015,6.015" fill="#00c19c"/>
        <line x1="48.01619" y1="31.93651" x2="65.68319" y2="41.08951" fill="none" stroke="#fffffa" stroke-miterlimit="10" stroke-width="0.786"/>
        <line x1="41.00549" y1="17.60541" x2="65.68349" y2="41.08941" fill="none" stroke="#fffffa" stroke-miterlimit="10" stroke-width="0.786"/>
        <line x1="46.44499" y1="46.08101" x2="65.68299" y2="41.09001" fill="none" stroke="#fffffa" stroke-miterlimit="10" stroke-width="0.786"/>
        <line x1="40.15779" y1="58.65531" x2="65.68279" y2="41.09031" fill="none" stroke="#fffffa" stroke-miterlimit="10" stroke-width="0.786"/>
        <line x1="55.87459" y1="57.08401" x2="65.68359" y2="41.09001" fill="none" stroke="#fffffa" stroke-miterlimit="10" stroke-width="0.786"/>
        <line x1="69.08069" y1="60.48921" x2="65.68369" y2="41.09021" fill="none" stroke="#fffffa" stroke-miterlimit="10" stroke-width="0.786"/>
        <line x1="81.11389" y1="53.32131" x2="65.68289" y2="41.09031" fill="none" stroke="#fffffa" stroke-miterlimit="10" stroke-width="0.786"/>
        <line x1="95.28279" y1="50.20601" x2="65.68279" y2="41.09001" fill="none" stroke="#fffffa" stroke-miterlimit="10" stroke-width="0.786"/>
        <line x1="85.59439" y1="39.23921" x2="65.68339" y2="41.09021" fill="none" stroke="#fffffa" stroke-miterlimit="10" stroke-width="0.786"/>
        <line x1="80.47429" y1="25.79781" x2="65.68329" y2="41.08981" fill="none" stroke="#fffffa" stroke-miterlimit="10" stroke-width="0.786"/>
        <line x1="62.03579" y1="15.77051" x2="65.68279" y2="41.08951" fill="none" stroke="#fffffa" stroke-miterlimit="10" stroke-width="0.786"/>
        <line x1="59.43909" y1="70.85841" x2="65.68309" y2="41.08941" fill="none" stroke="#fffffa" stroke-miterlimit="10" stroke-width="0.786"/>
        <path d="M40.49279,36.55081a6.827,6.827,0,1,1-6.827-6.827,6.82779,6.82779,0,0,1,6.827,6.827" fill="#ffd93b"/>
        <path d="M91.609,39.23921a6.0145,6.0145,0,1,1-6.015-6.015,6.01436,6.01436,0,0,1,6.015,6.015" fill="#ff6c39"/>
        <path d="M87.12849,53.32131a6.0145,6.0145,0,1,1-6.015-6.016,6.015,6.015,0,0,1,6.015,6.016" fill="#ff6c39"/>
        <path d="M75.09529,60.48921a6.0145,6.0145,0,1,1-6.015-6.015,6.01521,6.01521,0,0,1,6.015,6.015" fill="#ff6c39"/>
        <path d="M35.41369,50.37691a6.015,6.015,0,1,1-6.015-6.016,6.01563,6.01563,0,0,1,6.015,6.016" fill="#ff6c39"/>
        <path d="M109.403,39.15431a6.0145,6.0145,0,1,1-6.015-6.015,6.01563,6.01563,0,0,1,6.015,6.015" fill="#ff6c39"/>
        <path d="M61.14219,57.67281a6.0145,6.0145,0,1,1-6.015-6.015,6.0152,6.0152,0,0,1,6.015,6.015" fill="#ff6c39"/>
        <path d="M46.97519,59.03911a6.0145,6.0145,0,1,1-6.015-6.016,6.015,6.015,0,0,1,6.015,6.016" fill="#ff6c39"/>
        <path d="M52.05339,46.02441a6.0145,6.0145,0,1,1-6.015-6.015,6.01563,6.01563,0,0,1,6.015,6.015" fill="#ff6c39"/>
        <path d="M53.97329,31.94241a6.0145,6.0145,0,1,1-6.015-6.015,6.0152,6.0152,0,0,1,6.015,6.015" fill="#ff6c39"/>
        <path d="M101.29749,50.206a6.015,6.015,0,1,1-6.015-6.015,6.01563,6.01563,0,0,1,6.015,6.015" fill="#00c19c"/>
        <path d="M73.09139,15.77051a11.0555,11.0555,0,1,1-11.056-11.056,11.05672,11.05672,0,0,1,11.056,11.056" fill="#ffd93b"/>
        <path d="M73.09139,15.77051a11.0555,11.0555,0,1,1-11.056-11.056A11.05672,11.05672,0,0,1,73.09139,15.77051Z" fill="none" stroke="#fffffa" stroke-miterlimit="10" stroke-width="1.572"/>
        <path d="M95.45079,72.60741a11.0555,11.0555,0,1,1-11.056-11.056,11.05544,11.05544,0,0,1,11.056,11.056" fill="#ffd93b"/>
        <path d="M95.45079,72.60741a11.0555,11.0555,0,1,1-11.056-11.056A11.05544,11.05544,0,0,1,95.45079,72.60741Z" fill="none" stroke="#fffffa" stroke-miterlimit="10" stroke-width="1.572"/>
        <path d="M47.83259,17.60541a6.8275,6.8275,0,1,1-6.827-6.827,6.82693,6.82693,0,0,1,6.827,6.827" fill="#ffd93b"/>
        <path d="M118.49569,51.57131a6.82751,6.82751,0,1,1-6.828-6.827,6.82715,6.82715,0,0,1,6.828,6.827" fill="#ffd93b"/>
        <path d="M115.42349,25.457a6.8275,6.8275,0,1,1-6.828-6.827,6.82716,6.82716,0,0,1,6.828,6.827" fill="#ffd93b"/>
        <path d="M86.48889,25.79781a6.015,6.015,0,1,1-6.015-6.015,6.01585,6.01585,0,0,1,6.015,6.015" fill="#ff6c39"/>
        <path d="M100.527,28.57231a6.0145,6.0145,0,1,1-6.015-6.016,6.015,6.015,0,0,1,6.015,6.016" fill="#ff6c39"/>
        <path d="M65.45369,70.85841a6.0145,6.0145,0,1,1-6.015-6.015,6.015,6.015,0,0,1,6.015,6.015" fill="#ff6c39"/>
        <path d="M25.34339,40.13571a6.015,6.015,0,1,1-6.015-6.015,6.01563,6.01563,0,0,1,6.015,6.015" fill="#ff6c39"/>
        <path d="M123.486,37.40431a6.0145,6.0145,0,1,1-6.015-6.015,6.0152,6.0152,0,0,1,6.015,6.015" fill="#ff6c39"/>
        <path d="M128.33459,47.13281a4.3655,4.3655,0,1,1-4.365-4.366,4.36465,4.36465,0,0,1,4.365,4.366" fill="#ff6c39"/>
        <path d="M12.53679,43.03611a6.0145,6.0145,0,1,1-6.015-6.015,6.0152,6.0152,0,0,1,6.015,6.015" fill="#ff6c39"/>
        <path d="M107.69589,62.708a6.0145,6.0145,0,1,1-6.015-6.015,6.0152,6.0152,0,0,1,6.015,6.015" fill="#ff6c39"/>
        <path d="M34.34529,63.64751a6.015,6.015,0,1,1-6.016-6.015,6.01584,6.01584,0,0,1,6.016,6.015" fill="#ff6c39"/>
        <path d="M22.05629,53.06441a6.015,6.015,0,1,1-6.016-6.015,6.01606,6.01606,0,0,1,6.016,6.015" fill="#ff6c39"/>
        <path d="M87.984,11.63181a6.0145,6.0145,0,1,1-6.015-6.016,6.01563,6.01563,0,0,1,6.015,6.016" fill="#00c19c"/>
        <path d="M51.79939,72.22361a6.015,6.015,0,1,1-6.016-6.015,6.01606,6.01606,0,0,1,6.016,6.015" fill="#00c19c"/>
        <path d="M71.69889,41.08981a6.015,6.015,0,1,1-6.016-6.015,6.01521,6.01521,0,0,1,6.016,6.015" fill="#00c19c"/>
        <path d="M71.69889,41.08981a6.015,6.015,0,1,1-6.016-6.015A6.01521,6.01521,0,0,1,71.69889,41.08981Z" fill="none" stroke="#fffffa" stroke-miterlimit="10" stroke-width="1.565"/>
      </g>
    </g>
  </g>
</svg>
