<svg id="Layer_1" data-name="Layer 1" xmlns="http://www.w3.org/2000/svg" xmlns:xlink="http://www.w3.org/1999/xlink" viewBox="0 0 128.842 79.96341">
  <g id="trasformare">
    <g>
      <g>
        <path d="M73.0912,11.56331A11.0555,11.0555,0,1,1,62.0352.50731a11.05672,11.05672,0,0,1,11.056,11.056" fill="#fffffa"/>
        <path d="M73.0912,11.56331A11.0555,11.0555,0,1,1,62.0352.50731,11.05672,11.05672,0,0,1,73.0912,11.56331Z" fill="none" stroke="#5151fc" stroke-miterlimit="10" stroke-width="1.014"/>
        <path d="M47.8324,13.39821a6.8275,6.8275,0,1,1-6.828-6.827,6.82715,6.82715,0,0,1,6.828,6.827" fill="#fffffa"/>
        <path d="M47.8324,13.39821a6.8275,6.8275,0,1,1-6.828-6.827A6.82715,6.82715,0,0,1,47.8324,13.39821Z" fill="none" stroke="#5151fc" stroke-miterlimit="10" stroke-width="1.014"/>
        <path d="M86.4886,21.59061a6.015,6.015,0,1,1-6.015-6.015,6.01585,6.01585,0,0,1,6.015,6.015" fill="#fffffa"/>
        <path d="M86.4886,21.59061a6.015,6.015,0,1,1-6.015-6.015A6.01585,6.01585,0,0,1,86.4886,21.59061Z" fill="none" stroke="#5151fc" stroke-miterlimit="10" stroke-width="1.014"/>
        <path d="M91.6087,35.032a6.0145,6.0145,0,1,1-6.015-6.015,6.01435,6.01435,0,0,1,6.015,6.015" fill="#fffffa"/>
        <path d="M91.6087,35.032a6.0145,6.0145,0,1,1-6.015-6.015A6.01435,6.01435,0,0,1,91.6087,35.032Z" fill="none" stroke="#5151fc" stroke-miterlimit="10" stroke-width="1.014"/>
        <path d="M87.1283,49.11411a6.0145,6.0145,0,1,1-6.015-6.016,6.015,6.015,0,0,1,6.015,6.016" fill="#fffffa"/>
        <path d="M87.1283,49.11411a6.0145,6.0145,0,1,1-6.015-6.016A6.015,6.015,0,0,1,87.1283,49.11411Z" fill="none" stroke="#5151fc" stroke-miterlimit="10" stroke-width="1.014"/>
        <path d="M75.0951,56.282a6.0145,6.0145,0,1,1-6.015-6.015,6.01521,6.01521,0,0,1,6.015,6.015" fill="#fffffa"/>
        <path d="M75.0951,56.282a6.0145,6.0145,0,1,1-6.015-6.015A6.01521,6.01521,0,0,1,75.0951,56.282Z" fill="none" stroke="#5151fc" stroke-miterlimit="10" stroke-width="1.014"/>
        <path d="M65.4535,66.65121a6.015,6.015,0,1,1-6.015-6.015,6.015,6.015,0,0,1,6.015,6.015" fill="#fffffa"/>
        <circle cx="59.4385" cy="66.65121" r="6.015" fill="none" stroke="#5151fc" stroke-miterlimit="10" stroke-width="1.014"/>
        <path d="M61.1419,53.46561a6.015,6.015,0,1,1-6.015-6.015,6.01584,6.01584,0,0,1,6.015,6.015" fill="#fffffa"/>
        <path d="M61.1419,53.46561a6.015,6.015,0,1,1-6.015-6.015A6.01584,6.01584,0,0,1,61.1419,53.46561Z" fill="none" stroke="#5151fc" stroke-miterlimit="10" stroke-width="1.014"/>
        <path d="M46.9754,54.83181a6.015,6.015,0,1,1-6.015-6.016,6.01563,6.01563,0,0,1,6.015,6.016" fill="#fffffa"/>
        <path d="M46.9754,54.83181a6.015,6.015,0,1,1-6.015-6.016A6.01563,6.01563,0,0,1,46.9754,54.83181Z" fill="none" stroke="#5151fc" stroke-miterlimit="10" stroke-width="1.014"/>
        <path d="M52.0531,41.81721a6.015,6.015,0,1,1-6.015-6.015,6.01563,6.01563,0,0,1,6.015,6.015" fill="#fffffa"/>
        <circle cx="46.0381" cy="41.81721" r="6.015" fill="none" stroke="#5151fc" stroke-miterlimit="10" stroke-width="1.014"/>
        <path d="M53.9735,27.73511a6.015,6.015,0,1,1-6.015-6.015,6.01584,6.01584,0,0,1,6.015,6.015" fill="#fffffa"/>
        <path d="M53.9735,27.73511a6.015,6.015,0,1,1-6.015-6.015A6.01584,6.01584,0,0,1,53.9735,27.73511Z" fill="none" stroke="#5151fc" stroke-miterlimit="10" stroke-width="1.014"/>
        <path d="M101.2972,45.99881a6.015,6.015,0,1,1-6.015-6.015,6.01563,6.01563,0,0,1,6.015,6.015" fill="#fffffa"/>
        <circle cx="95.2822" cy="45.99881" r="6.015" fill="none" stroke="#5151fc" stroke-miterlimit="10" stroke-width="1.014"/>
        <line x1="48.016" y1="27.72931" x2="65.683" y2="36.88231" fill="#fffffa"/>
        <line x1="48.016" y1="27.72931" x2="65.683" y2="36.88231" fill="none" stroke="#5151fc" stroke-miterlimit="10" stroke-width="1.014"/>
        <line x1="41.0047" y1="13.39821" x2="65.6837" y2="36.88221" fill="#fffffa"/>
        <line x1="41.0047" y1="13.39821" x2="65.6837" y2="36.88221" fill="none" stroke="#5151fc" stroke-miterlimit="10" stroke-width="1.014"/>
        <line x1="46.4447" y1="41.87381" x2="65.68369" y2="36.88281" fill="#fffffa"/>
        <line x1="46.4447" y1="41.87381" x2="65.68369" y2="36.88281" fill="none" stroke="#5151fc" stroke-miterlimit="10" stroke-width="1.014"/>
        <line x1="40.1576" y1="54.44801" x2="65.68359" y2="36.88301" fill="#fffffa"/>
        <line x1="40.1576" y1="54.44801" x2="65.68359" y2="36.88301" fill="none" stroke="#5151fc" stroke-miterlimit="10" stroke-width="1.014"/>
        <line x1="55.8748" y1="52.87671" x2="65.6838" y2="36.88271" fill="#fffffa"/>
        <line x1="55.8748" y1="52.87671" x2="65.6838" y2="36.88271" fill="none" stroke="#5151fc" stroke-miterlimit="10" stroke-width="1.014"/>
        <line x1="69.0804" y1="56.28201" x2="65.6834" y2="36.88301" fill="#fffffa"/>
        <line x1="69.0804" y1="56.28201" x2="65.6834" y2="36.88301" fill="none" stroke="#5151fc" stroke-miterlimit="10" stroke-width="1.014"/>
        <line x1="81.1136" y1="49.11411" x2="65.6836" y2="36.88311" fill="#fffffa"/>
        <line x1="81.1136" y1="49.11411" x2="65.6836" y2="36.88311" fill="none" stroke="#5151fc" stroke-miterlimit="10" stroke-width="1.014"/>
        <line x1="95.2826" y1="45.99881" x2="65.68359" y2="36.88281" fill="#fffffa"/>
        <line x1="95.2826" y1="45.99881" x2="65.68359" y2="36.88281" fill="none" stroke="#5151fc" stroke-miterlimit="10" stroke-width="1.014"/>
        <line x1="85.5941" y1="35.03201" x2="65.6831" y2="36.88301" fill="#fffffa"/>
        <line x1="85.5941" y1="35.03201" x2="65.6831" y2="36.88301" fill="none" stroke="#5151fc" stroke-miterlimit="10" stroke-width="1.014"/>
        <line x1="80.474" y1="21.59061" x2="65.683" y2="36.88261" fill="#fffffa"/>
        <line x1="80.474" y1="21.59061" x2="65.683" y2="36.88261" fill="none" stroke="#5151fc" stroke-miterlimit="10" stroke-width="1.014"/>
        <line x1="62.0355" y1="11.56331" x2="65.68349" y2="36.88231" fill="#fffffa"/>
        <line x1="62.0355" y1="11.56331" x2="65.68349" y2="36.88231" fill="none" stroke="#5151fc" stroke-miterlimit="10" stroke-width="1.014"/>
        <line x1="59.4388" y1="66.65121" x2="65.6838" y2="36.88221" fill="#fffffa"/>
        <line x1="59.4388" y1="66.65121" x2="65.6838" y2="36.88221" fill="none" stroke="#5151fc" stroke-miterlimit="10" stroke-width="1.014"/>
        <path d="M40.493,32.34351a6.8275,6.8275,0,1,1-6.828-6.827,6.828,6.828,0,0,1,6.828,6.827" fill="#fffffa"/>
        <path d="M40.493,32.34351a6.8275,6.8275,0,1,1-6.828-6.827A6.828,6.828,0,0,1,40.493,32.34351Z" fill="none" stroke="#5151fc" stroke-miterlimit="10" stroke-width="1.014"/>
        <path d="M91.6087,35.032a6.0145,6.0145,0,1,1-6.015-6.015,6.01435,6.01435,0,0,1,6.015,6.015" fill="#fffffa"/>
        <path d="M91.6087,35.032a6.0145,6.0145,0,1,1-6.015-6.015A6.01435,6.01435,0,0,1,91.6087,35.032Z" fill="none" stroke="#5151fc" stroke-miterlimit="10" stroke-width="1.014"/>
        <path d="M87.1283,49.11411a6.0145,6.0145,0,1,1-6.015-6.016,6.015,6.015,0,0,1,6.015,6.016" fill="#fffffa"/>
        <path d="M87.1283,49.11411a6.0145,6.0145,0,1,1-6.015-6.016A6.015,6.015,0,0,1,87.1283,49.11411Z" fill="none" stroke="#5151fc" stroke-miterlimit="10" stroke-width="1.014"/>
        <path d="M75.0951,56.282a6.0145,6.0145,0,1,1-6.015-6.015,6.01521,6.01521,0,0,1,6.015,6.015" fill="#fffffa"/>
        <path d="M75.0951,56.282a6.0145,6.0145,0,1,1-6.015-6.015A6.01521,6.01521,0,0,1,75.0951,56.282Z" fill="none" stroke="#5151fc" stroke-miterlimit="10" stroke-width="1.014"/>
        <path d="M35.4134,46.16971a6.015,6.015,0,1,1-6.015-6.016,6.01563,6.01563,0,0,1,6.015,6.016" fill="#fffffa"/>
        <path d="M35.4134,46.16971a6.015,6.015,0,1,1-6.015-6.016A6.01563,6.01563,0,0,1,35.4134,46.16971Z" fill="none" stroke="#5151fc" stroke-miterlimit="10" stroke-width="1.014"/>
        <path d="M109.4027,34.94711a6.0145,6.0145,0,1,1-6.015-6.015,6.01563,6.01563,0,0,1,6.015,6.015" fill="#fffffa"/>
        <path d="M109.4027,34.94711a6.0145,6.0145,0,1,1-6.015-6.015A6.01563,6.01563,0,0,1,109.4027,34.94711Z" fill="none" stroke="#5151fc" stroke-miterlimit="10" stroke-width="1.014"/>
        <path d="M61.1195,53.46561a6.015,6.015,0,1,1-6.015-6.015,6.01584,6.01584,0,0,1,6.015,6.015" fill="#fffffa"/>
        <path d="M61.1195,53.46561a6.015,6.015,0,1,1-6.015-6.015A6.01584,6.01584,0,0,1,61.1195,53.46561Z" fill="none" stroke="#5151fc" stroke-miterlimit="10" stroke-width="1.014"/>
        <path d="M46.9754,54.83181a6.015,6.015,0,1,1-6.015-6.016,6.01563,6.01563,0,0,1,6.015,6.016" fill="#fffffa"/>
        <path d="M46.9754,54.83181a6.015,6.015,0,1,1-6.015-6.016A6.01563,6.01563,0,0,1,46.9754,54.83181Z" fill="none" stroke="#5151fc" stroke-miterlimit="10" stroke-width="1.014"/>
        <path d="M52.0531,41.81721a6.015,6.015,0,1,1-6.015-6.015,6.01563,6.01563,0,0,1,6.015,6.015" fill="#fffffa"/>
        <circle cx="46.0381" cy="41.81721" r="6.015" fill="none" stroke="#5151fc" stroke-miterlimit="10" stroke-width="1.014"/>
        <path d="M53.9735,27.73511a6.015,6.015,0,1,1-6.015-6.015,6.01584,6.01584,0,0,1,6.015,6.015" fill="#fffffa"/>
        <path d="M53.9735,27.73511a6.015,6.015,0,1,1-6.015-6.015A6.01584,6.01584,0,0,1,53.9735,27.73511Z" fill="none" stroke="#5151fc" stroke-miterlimit="10" stroke-width="1.014"/>
        <path d="M101.2972,45.99881a6.015,6.015,0,1,1-6.015-6.015,6.01563,6.01563,0,0,1,6.015,6.015" fill="#fffffa"/>
        <circle cx="95.2822" cy="45.99881" r="6.015" fill="none" stroke="#5151fc" stroke-miterlimit="10" stroke-width="1.014"/>
        <path d="M73.0912,11.56331A11.0555,11.0555,0,1,1,62.0352.50731a11.05672,11.05672,0,0,1,11.056,11.056" fill="#fffffa"/>
        <path d="M73.0912,11.56331A11.0555,11.0555,0,1,1,62.0352.50731,11.05672,11.05672,0,0,1,73.0912,11.56331Z" fill="none" stroke="#5151fc" stroke-miterlimit="10" stroke-width="1.014"/>
        <path d="M95.4505,68.40021a11.0555,11.0555,0,1,1-11.056-11.056,11.05608,11.05608,0,0,1,11.056,11.056" fill="#fffffa"/>
        <path d="M95.4505,68.40021a11.0555,11.0555,0,1,1-11.056-11.056A11.05608,11.05608,0,0,1,95.4505,68.40021Z" fill="none" stroke="#5151fc" stroke-miterlimit="10" stroke-width="1.014"/>
        <path d="M47.8324,13.39821a6.8275,6.8275,0,1,1-6.828-6.827,6.82715,6.82715,0,0,1,6.828,6.827" fill="#fffffa"/>
        <path d="M47.8324,13.39821a6.8275,6.8275,0,1,1-6.828-6.827A6.82715,6.82715,0,0,1,47.8324,13.39821Z" fill="none" stroke="#5151fc" stroke-miterlimit="10" stroke-width="1.014"/>
        <path d="M118.4955,47.36411a6.82751,6.82751,0,1,1-6.828-6.827,6.82715,6.82715,0,0,1,6.828,6.827" fill="#fffffa"/>
        <path d="M118.4955,47.36411a6.82751,6.82751,0,1,1-6.828-6.827A6.82715,6.82715,0,0,1,118.4955,47.36411Z" fill="none" stroke="#5151fc" stroke-miterlimit="10" stroke-width="1.014"/>
        <path d="M115.4232,21.24981a6.8275,6.8275,0,1,1-6.828-6.827,6.82779,6.82779,0,0,1,6.828,6.827" fill="#fffffa"/>
        <path d="M115.4232,21.24981a6.8275,6.8275,0,1,1-6.828-6.827A6.82779,6.82779,0,0,1,115.4232,21.24981Z" fill="none" stroke="#5151fc" stroke-miterlimit="10" stroke-width="1.014"/>
        <path d="M86.4886,21.59061a6.015,6.015,0,1,1-6.015-6.015,6.01585,6.01585,0,0,1,6.015,6.015" fill="#fffffa"/>
        <path d="M86.4886,21.59061a6.015,6.015,0,1,1-6.015-6.015A6.01585,6.01585,0,0,1,86.4886,21.59061Z" fill="none" stroke="#5151fc" stroke-miterlimit="10" stroke-width="1.014"/>
        <path d="M100.5267,24.365a6.0145,6.0145,0,1,1-6.015-6.016,6.015,6.015,0,0,1,6.015,6.016" fill="#fffffa"/>
        <path d="M100.5267,24.365a6.0145,6.0145,0,1,1-6.015-6.016A6.015,6.015,0,0,1,100.5267,24.365Z" fill="none" stroke="#5151fc" stroke-miterlimit="10" stroke-width="1.014"/>
        <path d="M65.4535,66.65121a6.015,6.015,0,1,1-6.015-6.015,6.015,6.015,0,0,1,6.015,6.015" fill="#fffffa"/>
        <circle cx="59.4385" cy="66.65121" r="6.015" fill="none" stroke="#5151fc" stroke-miterlimit="10" stroke-width="1.014"/>
        <path d="M25.3431,35.92851a6.015,6.015,0,1,1-6.015-6.015,6.01563,6.01563,0,0,1,6.015,6.015" fill="#fffffa"/>
        <circle cx="19.3281" cy="35.92851" r="6.015" fill="none" stroke="#5151fc" stroke-miterlimit="10" stroke-width="1.014"/>
        <path d="M123.4857,33.19711a6.0145,6.0145,0,1,1-6.015-6.015,6.0152,6.0152,0,0,1,6.015,6.015" fill="#fffffa"/>
        <path d="M123.4857,33.19711a6.0145,6.0145,0,1,1-6.015-6.015A6.0152,6.0152,0,0,1,123.4857,33.19711Z" fill="none" stroke="#5151fc" stroke-miterlimit="10" stroke-width="1.014"/>
        <path d="M128.3343,42.92561a4.3655,4.3655,0,1,1-4.365-4.366,4.36465,4.36465,0,0,1,4.365,4.366" fill="#fffffa"/>
        <path d="M128.3343,42.92561a4.3655,4.3655,0,1,1-4.365-4.366A4.36465,4.36465,0,0,1,128.3343,42.92561Z" fill="none" stroke="#5151fc" stroke-miterlimit="10" stroke-width="1.014"/>
        <path d="M12.537,38.82891a6.015,6.015,0,1,1-6.015-6.015,6.01584,6.01584,0,0,1,6.015,6.015" fill="#fffffa"/>
        <path d="M12.537,38.82891a6.015,6.015,0,1,1-6.015-6.015A6.01584,6.01584,0,0,1,12.537,38.82891Z" fill="none" stroke="#5151fc" stroke-miterlimit="10" stroke-width="1.014"/>
        <path d="M107.6956,58.50081a6.0145,6.0145,0,1,1-6.015-6.015,6.0152,6.0152,0,0,1,6.015,6.015" fill="#fffffa"/>
        <path d="M107.6956,58.50081a6.0145,6.0145,0,1,1-6.015-6.015A6.0152,6.0152,0,0,1,107.6956,58.50081Z" fill="none" stroke="#5151fc" stroke-miterlimit="10" stroke-width="1.014"/>
        <path d="M34.3446,59.44021a6.015,6.015,0,1,1-6.015-6.015,6.01563,6.01563,0,0,1,6.015,6.015" fill="#fffffa"/>
        <circle cx="28.3296" cy="59.44021" r="6.015" fill="none" stroke="#5151fc" stroke-miterlimit="10" stroke-width="1.014"/>
        <path d="M22.0555,48.85721a6.015,6.015,0,1,1-6.015-6.015,6.01584,6.01584,0,0,1,6.015,6.015" fill="#fffffa"/>
        <path d="M22.0555,48.85721a6.015,6.015,0,1,1-6.015-6.015A6.01584,6.01584,0,0,1,22.0555,48.85721Z" fill="none" stroke="#5151fc" stroke-miterlimit="10" stroke-width="1.014"/>
        <path d="M87.9837,7.42461a6.0145,6.0145,0,1,1-6.015-6.016,6.01563,6.01563,0,0,1,6.015,6.016" fill="#fffffa"/>
        <path d="M87.9837,7.42461a6.0145,6.0145,0,1,1-6.015-6.016A6.01563,6.01563,0,0,1,87.9837,7.42461Z" fill="none" stroke="#5151fc" stroke-miterlimit="10" stroke-width="1.014"/>
        <path d="M51.7987,68.01641a6.015,6.015,0,1,1-6.015-6.015,6.01584,6.01584,0,0,1,6.015,6.015" fill="#fffffa"/>
        <path d="M51.7987,68.01641a6.015,6.015,0,1,1-6.015-6.015A6.01584,6.01584,0,0,1,51.7987,68.01641Z" fill="none" stroke="#5151fc" stroke-miterlimit="10" stroke-width="1.014"/>
        <path d="M71.6986,36.88261a6.015,6.015,0,1,1-6.015-6.015,6.015,6.015,0,0,1,6.015,6.015" fill="#fffffa"/>
        <circle cx="65.6836" cy="36.88261" r="6.015" fill="none" stroke="#5151fc" stroke-miterlimit="10" stroke-width="1.014"/>
      </g>
    </g>
  </g>
</svg>
