<svg id="Layer_1" data-name="Layer 1" xmlns="http://www.w3.org/2000/svg" xmlns:xlink="http://www.w3.org/1999/xlink" viewBox="0 0 128.842 84.44931">
  <defs>
    <clipPath id="clip-path">
      <rect y="4.24295" width="128.842" height="79.96341" fill="none"/>
    </clipPath>
  </defs>
  <g id="trasformare">
    <g clip-path="url(#clip-path)">
      <g clip-path="url(#clip-path)">
        <path d="M73.0912,15.80626a11.0555,11.0555,0,1,1-11.056-11.056,11.05672,11.05672,0,0,1,11.056,11.056" fill="#fffffa"/>
        <path d="M73.0912,15.80626a11.0555,11.0555,0,1,1-11.056-11.056A11.05672,11.05672,0,0,1,73.0912,15.80626Z" fill="none" stroke="#5151fc" stroke-miterlimit="10" stroke-width="1.014"/>
        <path d="M47.8324,17.64116a6.8275,6.8275,0,1,1-6.828-6.827,6.82715,6.82715,0,0,1,6.828,6.827" fill="#fffffa"/>
        <path d="M47.8324,17.64116a6.8275,6.8275,0,1,1-6.828-6.827A6.82715,6.82715,0,0,1,47.8324,17.64116Z" fill="none" stroke="#5151fc" stroke-miterlimit="10" stroke-width="1.014"/>
        <path d="M86.4886,25.83356a6.015,6.015,0,1,1-6.015-6.015,6.01585,6.01585,0,0,1,6.015,6.015" fill="#fffffa"/>
        <path d="M86.4886,25.83356a6.015,6.015,0,1,1-6.015-6.015A6.01585,6.01585,0,0,1,86.4886,25.83356Z" fill="none" stroke="#5151fc" stroke-miterlimit="10" stroke-width="1.014"/>
        <path d="M91.6087,39.275a6.0145,6.0145,0,1,1-6.015-6.015,6.01435,6.01435,0,0,1,6.015,6.015" fill="#fffffa"/>
        <path d="M91.6087,39.275a6.0145,6.0145,0,1,1-6.015-6.015A6.01435,6.01435,0,0,1,91.6087,39.275Z" fill="none" stroke="#5151fc" stroke-miterlimit="10" stroke-width="1.014"/>
        <path d="M87.1283,53.35706a6.0145,6.0145,0,1,1-6.015-6.016,6.015,6.015,0,0,1,6.015,6.016" fill="#fffffa"/>
        <path d="M87.1283,53.35706a6.0145,6.0145,0,1,1-6.015-6.016A6.015,6.015,0,0,1,87.1283,53.35706Z" fill="none" stroke="#5151fc" stroke-miterlimit="10" stroke-width="1.014"/>
        <path d="M75.0951,60.525a6.0145,6.0145,0,1,1-6.015-6.015,6.01521,6.01521,0,0,1,6.015,6.015" fill="#fffffa"/>
        <path d="M75.0951,60.525a6.0145,6.0145,0,1,1-6.015-6.015A6.01521,6.01521,0,0,1,75.0951,60.525Z" fill="none" stroke="#5151fc" stroke-miterlimit="10" stroke-width="1.014"/>
        <path d="M65.4535,70.89416a6.015,6.015,0,1,1-6.015-6.015,6.015,6.015,0,0,1,6.015,6.015" fill="#fffffa"/>
        <circle cx="59.4385" cy="70.89416" r="6.015" fill="none" stroke="#5151fc" stroke-miterlimit="10" stroke-width="1.014"/>
        <path d="M61.1419,57.70856a6.015,6.015,0,1,1-6.015-6.015,6.01584,6.01584,0,0,1,6.015,6.015" fill="#fffffa"/>
        <path d="M61.1419,57.70856a6.015,6.015,0,1,1-6.015-6.015A6.01584,6.01584,0,0,1,61.1419,57.70856Z" fill="none" stroke="#5151fc" stroke-miterlimit="10" stroke-width="1.014"/>
        <path d="M46.9754,59.07476a6.015,6.015,0,1,1-6.015-6.016,6.01563,6.01563,0,0,1,6.015,6.016" fill="#fffffa"/>
        <path d="M46.9754,59.07476a6.015,6.015,0,1,1-6.015-6.016A6.01563,6.01563,0,0,1,46.9754,59.07476Z" fill="none" stroke="#5151fc" stroke-miterlimit="10" stroke-width="1.014"/>
        <path d="M52.0531,46.06016a6.015,6.015,0,1,1-6.015-6.015,6.01563,6.01563,0,0,1,6.015,6.015" fill="#fffffa"/>
        <circle cx="46.0381" cy="46.06016" r="6.015" fill="none" stroke="#5151fc" stroke-miterlimit="10" stroke-width="1.014"/>
        <path d="M53.9735,31.97806a6.015,6.015,0,1,1-6.015-6.015,6.01584,6.01584,0,0,1,6.015,6.015" fill="#fffffa"/>
        <path d="M53.9735,31.97806a6.015,6.015,0,1,1-6.015-6.015A6.01584,6.01584,0,0,1,53.9735,31.97806Z" fill="none" stroke="#5151fc" stroke-miterlimit="10" stroke-width="1.014"/>
        <path d="M101.2972,50.24176a6.015,6.015,0,1,1-6.015-6.015,6.01563,6.01563,0,0,1,6.015,6.015" fill="#fffffa"/>
        <circle cx="95.2822" cy="50.24176" r="6.015" fill="none" stroke="#5151fc" stroke-miterlimit="10" stroke-width="1.014"/>
        <line x1="48.016" y1="31.97226" x2="65.683" y2="41.12526" fill="#fffffa"/>
        <line x1="48.016" y1="31.97226" x2="65.683" y2="41.12526" fill="none" stroke="#5151fc" stroke-miterlimit="10" stroke-width="1.014"/>
        <line x1="41.0047" y1="17.64116" x2="65.6837" y2="41.12516" fill="#fffffa"/>
        <line x1="41.0047" y1="17.64116" x2="65.6837" y2="41.12516" fill="none" stroke="#5151fc" stroke-miterlimit="10" stroke-width="1.014"/>
        <line x1="46.4447" y1="46.11676" x2="65.68369" y2="41.12576" fill="#fffffa"/>
        <line x1="46.4447" y1="46.11676" x2="65.68369" y2="41.12576" fill="none" stroke="#5151fc" stroke-miterlimit="10" stroke-width="1.014"/>
        <line x1="40.1576" y1="58.69096" x2="65.68359" y2="41.12596" fill="#fffffa"/>
        <line x1="40.1576" y1="58.69096" x2="65.68359" y2="41.12596" fill="none" stroke="#5151fc" stroke-miterlimit="10" stroke-width="1.014"/>
        <line x1="55.8748" y1="57.11966" x2="65.6838" y2="41.12566" fill="#fffffa"/>
        <line x1="55.8748" y1="57.11966" x2="65.6838" y2="41.12566" fill="none" stroke="#5151fc" stroke-miterlimit="10" stroke-width="1.014"/>
        <line x1="69.0804" y1="60.52496" x2="65.6834" y2="41.12596" fill="#fffffa"/>
        <line x1="69.0804" y1="60.52496" x2="65.6834" y2="41.12596" fill="none" stroke="#5151fc" stroke-miterlimit="10" stroke-width="1.014"/>
        <line x1="81.1136" y1="53.35706" x2="65.6836" y2="41.12606" fill="#fffffa"/>
        <line x1="81.1136" y1="53.35706" x2="65.6836" y2="41.12606" fill="none" stroke="#5151fc" stroke-miterlimit="10" stroke-width="1.014"/>
        <line x1="95.2826" y1="50.24176" x2="65.68359" y2="41.12576" fill="#fffffa"/>
        <line x1="95.2826" y1="50.24176" x2="65.68359" y2="41.12576" fill="none" stroke="#5151fc" stroke-miterlimit="10" stroke-width="1.014"/>
        <line x1="85.5941" y1="39.27496" x2="65.6831" y2="41.12596" fill="#fffffa"/>
        <line x1="85.5941" y1="39.27496" x2="65.6831" y2="41.12596" fill="none" stroke="#5151fc" stroke-miterlimit="10" stroke-width="1.014"/>
        <line x1="80.474" y1="25.83356" x2="65.683" y2="41.12556" fill="#fffffa"/>
        <line x1="80.474" y1="25.83356" x2="65.683" y2="41.12556" fill="none" stroke="#5151fc" stroke-miterlimit="10" stroke-width="1.014"/>
        <line x1="62.0355" y1="15.80626" x2="65.68349" y2="41.12526" fill="#fffffa"/>
        <line x1="62.0355" y1="15.80626" x2="65.68349" y2="41.12526" fill="none" stroke="#5151fc" stroke-miterlimit="10" stroke-width="1.014"/>
        <line x1="59.4388" y1="70.89416" x2="65.6838" y2="41.12516" fill="#fffffa"/>
        <line x1="59.4388" y1="70.89416" x2="65.6838" y2="41.12516" fill="none" stroke="#5151fc" stroke-miterlimit="10" stroke-width="1.014"/>
        <path d="M40.493,36.58646a6.8275,6.8275,0,1,1-6.828-6.827,6.828,6.828,0,0,1,6.828,6.827" fill="#fffffa"/>
        <path d="M40.493,36.58646a6.8275,6.8275,0,1,1-6.828-6.827A6.828,6.828,0,0,1,40.493,36.58646Z" fill="none" stroke="#5151fc" stroke-miterlimit="10" stroke-width="1.014"/>
        <path d="M91.6087,39.275a6.0145,6.0145,0,1,1-6.015-6.015,6.01435,6.01435,0,0,1,6.015,6.015" fill="#fffffa"/>
        <path d="M91.6087,39.275a6.0145,6.0145,0,1,1-6.015-6.015A6.01435,6.01435,0,0,1,91.6087,39.275Z" fill="none" stroke="#5151fc" stroke-miterlimit="10" stroke-width="1.014"/>
        <path d="M87.1283,53.35706a6.0145,6.0145,0,1,1-6.015-6.016,6.015,6.015,0,0,1,6.015,6.016" fill="#fffffa"/>
        <path d="M87.1283,53.35706a6.0145,6.0145,0,1,1-6.015-6.016A6.015,6.015,0,0,1,87.1283,53.35706Z" fill="none" stroke="#5151fc" stroke-miterlimit="10" stroke-width="1.014"/>
        <path d="M75.0951,60.525a6.0145,6.0145,0,1,1-6.015-6.015,6.01521,6.01521,0,0,1,6.015,6.015" fill="#fffffa"/>
        <path d="M75.0951,60.525a6.0145,6.0145,0,1,1-6.015-6.015A6.01521,6.01521,0,0,1,75.0951,60.525Z" fill="none" stroke="#5151fc" stroke-miterlimit="10" stroke-width="1.014"/>
        <path d="M35.4134,50.41266a6.015,6.015,0,1,1-6.015-6.016,6.01563,6.01563,0,0,1,6.015,6.016" fill="#fffffa"/>
        <path d="M35.4134,50.41266a6.015,6.015,0,1,1-6.015-6.016A6.01563,6.01563,0,0,1,35.4134,50.41266Z" fill="none" stroke="#5151fc" stroke-miterlimit="10" stroke-width="1.014"/>
        <path d="M109.4027,39.19006a6.0145,6.0145,0,1,1-6.015-6.015,6.01563,6.01563,0,0,1,6.015,6.015" fill="#fffffa"/>
        <path d="M109.4027,39.19006a6.0145,6.0145,0,1,1-6.015-6.015A6.01563,6.01563,0,0,1,109.4027,39.19006Z" fill="none" stroke="#5151fc" stroke-miterlimit="10" stroke-width="1.014"/>
        <path d="M61.1195,57.70856a6.015,6.015,0,1,1-6.015-6.015,6.01584,6.01584,0,0,1,6.015,6.015" fill="#fffffa"/>
        <path d="M61.1195,57.70856a6.015,6.015,0,1,1-6.015-6.015A6.01584,6.01584,0,0,1,61.1195,57.70856Z" fill="none" stroke="#5151fc" stroke-miterlimit="10" stroke-width="1.014"/>
        <path d="M46.9754,59.07476a6.015,6.015,0,1,1-6.015-6.016,6.01563,6.01563,0,0,1,6.015,6.016" fill="#fffffa"/>
        <path d="M46.9754,59.07476a6.015,6.015,0,1,1-6.015-6.016A6.01563,6.01563,0,0,1,46.9754,59.07476Z" fill="none" stroke="#5151fc" stroke-miterlimit="10" stroke-width="1.014"/>
        <path d="M52.0531,46.06016a6.015,6.015,0,1,1-6.015-6.015,6.01563,6.01563,0,0,1,6.015,6.015" fill="#fffffa"/>
        <circle cx="46.0381" cy="46.06016" r="6.015" fill="none" stroke="#5151fc" stroke-miterlimit="10" stroke-width="1.014"/>
        <path d="M53.9735,31.97806a6.015,6.015,0,1,1-6.015-6.015,6.01584,6.01584,0,0,1,6.015,6.015" fill="#fffffa"/>
        <path d="M53.9735,31.97806a6.015,6.015,0,1,1-6.015-6.015A6.01584,6.01584,0,0,1,53.9735,31.97806Z" fill="none" stroke="#5151fc" stroke-miterlimit="10" stroke-width="1.014"/>
        <path d="M101.2972,50.24176a6.015,6.015,0,1,1-6.015-6.015,6.01563,6.01563,0,0,1,6.015,6.015" fill="#fffffa"/>
        <circle cx="95.2822" cy="50.24176" r="6.015" fill="none" stroke="#5151fc" stroke-miterlimit="10" stroke-width="1.014"/>
        <path d="M73.0912,15.80626a11.0555,11.0555,0,1,1-11.056-11.056,11.05672,11.05672,0,0,1,11.056,11.056" fill="#fffffa"/>
        <path d="M73.0912,15.80626a11.0555,11.0555,0,1,1-11.056-11.056A11.05672,11.05672,0,0,1,73.0912,15.80626Z" fill="none" stroke="#5151fc" stroke-miterlimit="10" stroke-width="1.014"/>
        <path d="M95.4505,72.64316a11.0555,11.0555,0,1,1-11.056-11.056,11.05608,11.05608,0,0,1,11.056,11.056" fill="#fffffa"/>
        <path d="M95.4505,72.64316a11.0555,11.0555,0,1,1-11.056-11.056A11.05608,11.05608,0,0,1,95.4505,72.64316Z" fill="none" stroke="#5151fc" stroke-miterlimit="10" stroke-width="1.014"/>
        <path d="M47.8324,17.64116a6.8275,6.8275,0,1,1-6.828-6.827,6.82715,6.82715,0,0,1,6.828,6.827" fill="#fffffa"/>
        <path d="M47.8324,17.64116a6.8275,6.8275,0,1,1-6.828-6.827A6.82715,6.82715,0,0,1,47.8324,17.64116Z" fill="none" stroke="#5151fc" stroke-miterlimit="10" stroke-width="1.014"/>
        <path d="M118.4955,51.60706a6.82751,6.82751,0,1,1-6.828-6.827,6.82715,6.82715,0,0,1,6.828,6.827" fill="#fffffa"/>
        <path d="M118.4955,51.60706a6.82751,6.82751,0,1,1-6.828-6.827A6.82715,6.82715,0,0,1,118.4955,51.60706Z" fill="none" stroke="#5151fc" stroke-miterlimit="10" stroke-width="1.014"/>
        <path d="M115.4232,25.49276a6.8275,6.8275,0,1,1-6.828-6.827,6.82779,6.82779,0,0,1,6.828,6.827" fill="#fffffa"/>
        <path d="M115.4232,25.49276a6.8275,6.8275,0,1,1-6.828-6.827A6.82779,6.82779,0,0,1,115.4232,25.49276Z" fill="none" stroke="#5151fc" stroke-miterlimit="10" stroke-width="1.014"/>
        <path d="M86.4886,25.83356a6.015,6.015,0,1,1-6.015-6.015,6.01585,6.01585,0,0,1,6.015,6.015" fill="#fffffa"/>
        <path d="M86.4886,25.83356a6.015,6.015,0,1,1-6.015-6.015A6.01585,6.01585,0,0,1,86.4886,25.83356Z" fill="none" stroke="#5151fc" stroke-miterlimit="10" stroke-width="1.014"/>
        <path d="M100.5267,28.608a6.0145,6.0145,0,1,1-6.015-6.016,6.015,6.015,0,0,1,6.015,6.016" fill="#fffffa"/>
        <path d="M100.5267,28.608a6.0145,6.0145,0,1,1-6.015-6.016A6.015,6.015,0,0,1,100.5267,28.608Z" fill="none" stroke="#5151fc" stroke-miterlimit="10" stroke-width="1.014"/>
        <path d="M65.4535,70.89416a6.015,6.015,0,1,1-6.015-6.015,6.015,6.015,0,0,1,6.015,6.015" fill="#fffffa"/>
        <circle cx="59.4385" cy="70.89416" r="6.015" fill="none" stroke="#5151fc" stroke-miterlimit="10" stroke-width="1.014"/>
        <path d="M25.3431,40.17146a6.015,6.015,0,1,1-6.015-6.015,6.01563,6.01563,0,0,1,6.015,6.015" fill="#fffffa"/>
        <circle cx="19.3281" cy="40.17146" r="6.015" fill="none" stroke="#5151fc" stroke-miterlimit="10" stroke-width="1.014"/>
        <path d="M123.4857,37.44006a6.0145,6.0145,0,1,1-6.015-6.015,6.0152,6.0152,0,0,1,6.015,6.015" fill="#fffffa"/>
        <path d="M123.4857,37.44006a6.0145,6.0145,0,1,1-6.015-6.015A6.0152,6.0152,0,0,1,123.4857,37.44006Z" fill="none" stroke="#5151fc" stroke-miterlimit="10" stroke-width="1.014"/>
        <path d="M128.3343,47.16856a4.3655,4.3655,0,1,1-4.365-4.366,4.36465,4.36465,0,0,1,4.365,4.366" fill="#fffffa"/>
        <path d="M128.3343,47.16856a4.3655,4.3655,0,1,1-4.365-4.366A4.36465,4.36465,0,0,1,128.3343,47.16856Z" fill="none" stroke="#5151fc" stroke-miterlimit="10" stroke-width="1.014"/>
        <path d="M12.537,43.07186a6.015,6.015,0,1,1-6.015-6.015,6.01584,6.01584,0,0,1,6.015,6.015" fill="#fffffa"/>
        <path d="M12.537,43.07186a6.015,6.015,0,1,1-6.015-6.015A6.01584,6.01584,0,0,1,12.537,43.07186Z" fill="none" stroke="#5151fc" stroke-miterlimit="10" stroke-width="1.014"/>
        <path d="M107.6956,62.74376a6.0145,6.0145,0,1,1-6.015-6.015,6.0152,6.0152,0,0,1,6.015,6.015" fill="#fffffa"/>
        <path d="M107.6956,62.74376a6.0145,6.0145,0,1,1-6.015-6.015A6.0152,6.0152,0,0,1,107.6956,62.74376Z" fill="none" stroke="#5151fc" stroke-miterlimit="10" stroke-width="1.014"/>
        <path d="M34.3446,63.68316a6.015,6.015,0,1,1-6.015-6.015,6.01563,6.01563,0,0,1,6.015,6.015" fill="#fffffa"/>
        <circle cx="28.3296" cy="63.68316" r="6.015" fill="none" stroke="#5151fc" stroke-miterlimit="10" stroke-width="1.014"/>
        <path d="M22.0555,53.10016a6.015,6.015,0,1,1-6.015-6.015,6.01584,6.01584,0,0,1,6.015,6.015" fill="#fffffa"/>
        <path d="M22.0555,53.10016a6.015,6.015,0,1,1-6.015-6.015A6.01584,6.01584,0,0,1,22.0555,53.10016Z" fill="none" stroke="#5151fc" stroke-miterlimit="10" stroke-width="1.014"/>
        <path d="M87.9837,11.66756a6.0145,6.0145,0,1,1-6.015-6.016,6.01563,6.01563,0,0,1,6.015,6.016" fill="#fffffa"/>
        <path d="M87.9837,11.66756a6.0145,6.0145,0,1,1-6.015-6.016A6.01563,6.01563,0,0,1,87.9837,11.66756Z" fill="none" stroke="#5151fc" stroke-miterlimit="10" stroke-width="1.014"/>
        <path d="M51.7987,72.25936a6.015,6.015,0,1,1-6.015-6.015,6.01584,6.01584,0,0,1,6.015,6.015" fill="#fffffa"/>
        <path d="M51.7987,72.25936a6.015,6.015,0,1,1-6.015-6.015A6.01584,6.01584,0,0,1,51.7987,72.25936Z" fill="none" stroke="#5151fc" stroke-miterlimit="10" stroke-width="1.014"/>
        <path d="M71.6986,41.12556a6.015,6.015,0,1,1-6.015-6.015,6.015,6.015,0,0,1,6.015,6.015" fill="#fffffa"/>
        <circle cx="65.6836" cy="41.12556" r="6.015" fill="none" stroke="#5151fc" stroke-miterlimit="10" stroke-width="1.014"/>
      </g>
    </g>
  </g>
</svg>
