<svg xmlns="http://www.w3.org/2000/svg" xmlns:xlink="http://www.w3.org/1999/xlink" width="375" height="613" viewBox="0 0 375 613">
  <defs>
    <clipPath id="clip-path">
      <rect x="1402" width="302.722" height="231" fill="none"/>
    </clipPath>
    <clipPath id="clip-Web_1920_1">
      <rect width="375" height="613"/>
    </clipPath>
  </defs>
  <g id="Web_1920_1" data-name="Web 1920 – 1" clip-path="url(#clip-Web_1920_1)">
    <g id="Group_18" data-name="Group 18" transform="translate(-15)">
      <line id="Line_1" data-name="Line 1" y2="4" transform="translate(129.85 260.123)" fill="none" stroke="#000" stroke-width="1"/>
      <line id="Line_2" data-name="Line 2" y2="4" transform="translate(339.054 260.123)" fill="none" stroke="#000" stroke-width="1"/>
      <text id="_1945" data-name="1945" transform="translate(128.977 281.489)" font-size="14" font-family="HKGrotesk-Regular, HK Grotesk"><tspan x="-15.876" y="0">1945</tspan></text>
      <text id="_1950" data-name="1950" transform="translate(338.181 281.489)" font-size="14" font-family="HKGrotesk-Regular, HK Grotesk"><tspan x="-15.841" y="0">1950</tspan></text>
      <path id="Path_3" data-name="Path 3" d="M40,225.492c62.761,0,62.761-15.249,83.682-15.249h41.841c20.92,0,20.92-60.995,41.841-60.995s20.92,71.16,41.841,71.16,20.92,5.083,41.841,5.083,20.92-10.166,41.841-10.166,20.92,10.166,41.841,10.166,20.92-20.332,41.841-20.332,20.92,15.249,41.841,15.249,20.92-25.414,41.841-25.414,20.92,30.5,41.841,30.5,20.92-5.083,41.841-5.083,20.92,5.083,41.841,5.083S646.691,134,667.612,134s20.92,81.326,41.841,81.326,20.92,10.166,41.841,10.166h83.682c20.92,0,20.92-45.746,41.841-45.746s20.92,45.746,41.841,45.746,20.92-15.249,41.841-15.249,20.92,15.249,41.841,15.249,20.92-5.083,41.841-5.083,20.92,5.083,41.841,5.083H1169.7c20.92,0,20.92-15.249,41.841-15.249s20.92-25.414,41.841-25.414,20.92,40.663,41.841,40.663h83.682c20.92,0,20.92-10.166,41.841-10.166s20.92-5.083,41.841-5.083,20.92,15.249,41.841,15.249,20.92-35.58,41.841-35.58,20.92,35.58,41.841,35.58h83.682c20.92,0,20.92-5.083,41.841-5.083s20.92,5.083,41.841,5.083H40Z" transform="translate(5.351 34.631)" fill="#5151fc" stroke="rgba(0,0,0,0.7)" stroke-width="0.5"/>
      <path id="Path_4" data-name="Path 4" d="M40,229.435c62.761,0,62.761-15.249,83.682-15.249h41.841c20.92,0,20.92-66.077,41.841-66.077s20.92,71.16,41.841,71.16,20.92,10.166,41.841,10.166,20.92-10.166,41.841-10.166,20.92,10.166,41.841,10.166,20.92-20.332,41.841-20.332,20.92,10.166,41.841,10.166,20.92-20.332,41.841-20.332,20.92,30.5,41.841,30.5,20.92-5.083,41.841-5.083,20.92,5.083,41.841,5.083,20.92-101.658,41.841-101.658,20.92,91.492,41.841,91.492,20.92,10.166,41.841,10.166h83.682c20.92,0,20.92-66.077,41.841-66.077s20.92,66.077,41.841,66.077S939.577,209.1,960.5,209.1s20.92,20.332,41.841,20.332,20.92-10.166,41.841-10.166,20.92,10.166,41.841,10.166H1169.7c20.92,0,20.92-15.249,41.841-15.249s20.92-40.663,41.841-40.663,20.92,55.912,41.841,55.912h41.841c20.92,0,20.92-5.083,41.841-5.083s20.92-10.166,41.841-10.166h41.841c20.92,0,20.92,15.249,41.841,15.249s20.92-60.995,41.841-60.995,20.92,60.995,41.841,60.995h41.841c20.92,0,20.92-5.083,41.841-5.083h83.682v5.083c-62.761-5.083-62.761,0-83.682,0h-83.682c-20.92,0-20.92-35.58-41.841-35.58s-20.92,35.58-41.841,35.58-20.921-15.249-41.841-15.249-20.92,5.083-41.841,5.083-20.92,10.166-41.841,10.166h-83.682c-20.92,0-20.92-40.663-41.841-40.663s-20.92,25.414-41.841,25.414-20.92,15.249-41.841,15.249H1086.02c-20.92,0-20.92-5.083-41.841-5.083s-20.92,5.083-41.841,5.083-20.921-15.249-41.841-15.249-20.92,15.249-41.841,15.249-20.92-45.746-41.841-45.746-20.92,45.746-41.841,45.746H751.293c-20.92,0-20.92-10.166-41.841-10.166s-20.92-81.326-41.841-81.326-20.92,91.492-41.841,91.492-20.92-5.083-41.841-5.083-20.92,5.083-41.841,5.083-20.92-30.5-41.841-30.5-20.92,25.414-41.841,25.414S437.488,209.1,416.567,209.1s-20.92,20.332-41.841,20.332-20.92-10.166-41.841-10.166-20.92,10.166-41.841,10.166-20.92-5.083-41.841-5.083-20.92-71.16-41.841-71.16-20.92,60.995-41.841,60.995H123.682c-20.92,0-20.92,15.249-41.841,15.249Z" transform="translate(5.351 30.687)" fill="#c5c5fc" stroke="rgba(0,0,0,0.7)" stroke-width="0.5"/>
      <path id="Path_5" data-name="Path 5" d="M40,249.153c62.761,0,62.761-15.249,83.682-15.249s20.92-10.166,41.841-10.166,20.92-86.409,41.841-86.409,20.92,101.658,41.841,101.658,20.92,5.083,41.841,5.083,20.92-5.083,41.841-5.083,20.92,10.166,41.841,10.166,20.92-40.663,41.841-40.663,20.92,10.166,41.841,10.166,20.92-5.083,41.841-5.083,20.92,35.58,41.841,35.58,20.92-5.083,41.841-5.083,20.92-5.083,41.841-5.083,20.92-137.238,41.841-137.238,20.92,137.238,41.841,137.238,20.92,10.166,41.841,10.166h83.682c20.92,0,20.92-76.243,41.841-76.243s20.92,25.414,41.841,25.414,20.92,20.332,41.841,20.332,20.92,25.414,41.841,25.414,20.92-20.332,41.841-20.332,20.92,20.332,41.841,20.332,20.92,5.083,41.841,5.083H1169.7c20.92,0,20.92-15.249,41.841-15.249s20.92-60.995,41.841-60.995,20.92,66.077,41.841,66.077,20.92,10.166,41.841,10.166,20.92-10.166,41.841-10.166,20.92-5.083,41.841-5.083,20.92-5.083,41.841-5.083,20.92,20.332,41.841,20.332,20.92-152.486,41.841-152.486,20.92,137.238,41.841,137.238,20.92,15.249,41.841,15.249,20.92-5.083,41.841-5.083,20.92-15.249,41.841-15.249,20.92,15.249,41.841,15.249h-83.682c-20.921,0-20.921,5.083-41.841,5.083h-41.841c-20.92,0-20.92-60.995-41.841-60.995s-20.92,60.995-41.841,60.995-20.921-15.249-41.841-15.249h-41.841c-20.92,0-20.92,10.166-41.841,10.166s-20.92,5.083-41.841,5.083h-41.841c-20.92,0-20.92-55.912-41.841-55.912s-20.92,40.663-41.841,40.663-20.92,15.249-41.841,15.249H1086.02c-20.92,0-20.92-10.166-41.841-10.166s-20.92,10.166-41.841,10.166-20.921-20.332-41.841-20.332-20.92,20.332-41.841,20.332-20.92-66.077-41.841-66.077-20.92,66.077-41.841,66.077H751.293c-20.92,0-20.92-10.166-41.841-10.166S688.532,147.5,667.612,147.5s-20.92,101.658-41.841,101.658-20.92-5.083-41.841-5.083-20.92,5.083-41.841,5.083-20.92-30.5-41.841-30.5-20.92,20.332-41.841,20.332-20.92-10.166-41.841-10.166-20.92,20.332-41.841,20.332-20.92-10.166-41.841-10.166-20.92,10.166-41.841,10.166-20.92-10.166-41.841-10.166-20.92-71.16-41.841-71.16S186.443,233.9,165.522,233.9H123.682c-20.92,0-20.92,15.249-41.841,15.249Z" transform="translate(5.351 10.97)" fill="#00c19c" stroke="rgba(0,0,0,0.7)" stroke-width="0.5"/>
      <path id="Path_6" data-name="Path 6" d="M40,276.758c62.761,0,62.761-15.249,83.682-15.249s20.92-15.249,41.841-15.249,20.92-91.492,41.841-91.492,20.92,111.823,41.841,111.823,20.92-5.083,41.841-5.083,20.92,5.083,41.841,5.083,20.92,10.166,41.841,10.166,20.92-40.663,41.841-40.663,20.92,5.083,41.841,5.083h41.841c20.92,0,20.92,35.58,41.841,35.58s20.92-5.083,41.841-5.083,20.92-10.166,41.841-10.166,20.92-142.321,41.841-142.321,20.92,137.238,41.841,137.238,20.92,20.332,41.841,20.332h41.841c20.92,0,20.92-5.083,41.841-5.083s20.92-81.326,41.841-81.326,20.92,30.5,41.841,30.5,20.92-10.166,41.841-10.166,20.92,60.995,41.841,60.995,20.92-25.414,41.841-25.414,20.92,25.414,41.841,25.414,20.92,5.083,41.841,5.083H1169.7c20.92,0,20.92-20.332,41.841-20.332s20.92-81.326,41.841-81.326,20.92,91.492,41.841,91.492h41.841c20.92,0,20.92-10.166,41.841-10.166h83.682c20.92,0,20.92,20.332,41.841,20.332s20.92-223.647,41.841-223.647,20.92,208.4,41.841,208.4,20.92,5.083,41.841,5.083,20.92-5.083,41.841-5.083,20.92-20.332,41.841-20.332,20.92,30.5,41.841,30.5h0c-62.761-15.249-62.761,0-83.682,0s-20.921,5.083-41.841,5.083-20.92-15.249-41.841-15.249-20.92-137.238-41.841-137.238-20.92,152.486-41.841,152.486-20.921-20.332-41.841-20.332-20.92,5.083-41.841,5.083-20.92,5.083-41.841,5.083-20.92,10.166-41.841,10.166-20.921-10.166-41.841-10.166-20.92-66.077-41.841-66.077-20.92,60.995-41.841,60.995-20.92,15.249-41.841,15.249H1127.86c-20.92,0-20.92-5.083-41.841-5.083s-20.92-20.332-41.841-20.332-20.92,20.332-41.841,20.332-20.921-25.414-41.841-25.414-20.92-20.332-41.841-20.332-20.92-25.414-41.841-25.414-20.92,76.243-41.841,76.243H751.293c-20.92,0-20.92-10.166-41.841-10.166s-20.92-137.238-41.841-137.238-20.92,137.238-41.841,137.238-20.92,5.083-41.841,5.083-20.92,5.083-41.841,5.083-20.92-35.58-41.841-35.58-20.92,5.083-41.841,5.083-20.92-10.166-41.841-10.166-20.92,40.663-41.841,40.663-20.92-10.166-41.841-10.166-20.92,5.083-41.841,5.083-20.92-5.083-41.841-5.083-20.92-101.658-41.841-101.658-20.92,86.409-41.841,86.409-20.92,10.166-41.841,10.166-20.92,15.249-41.841,15.249Z" transform="translate(5.351 -16.635)" fill="#c2faef" stroke="rgba(0,0,0,0.7)" stroke-width="0.5"/>
      <text id="_0" data-name="0" transform="translate(31 260.602)" font-size="14" font-family="HKGrotesk-Regular, HK Grotesk"><tspan x="-7.938" y="0">0</tspan></text>
      <line id="Line_10" data-name="Line 10" x1="5.838" transform="translate(40.513 210.111)" fill="none" stroke="#000" stroke-width="1"/>
      <text id="_10" data-name="10" transform="translate(31 212.773)" font-size="14" font-family="HKGrotesk-Regular, HK Grotesk"><tspan x="-15.946" y="0">10</tspan></text>
      <line id="Line_11" data-name="Line 11" x1="5.838" transform="translate(40.513 159.282)" fill="none" stroke="#000" stroke-width="1"/>
      <text id="_20" data-name="20" transform="translate(31 161.944)" font-size="14" font-family="HKGrotesk-Regular, HK Grotesk"><tspan x="-15.876" y="0">20</tspan></text>
      <line id="Line_12" data-name="Line 12" x1="5.838" transform="translate(40.513 108.453)" fill="none" stroke="#000" stroke-width="1"/>
      <text id="_30" data-name="30" transform="translate(31 111.115)" font-size="14" font-family="HKGrotesk-Regular, HK Grotesk"><tspan x="-15.876" y="0">30</tspan></text>
      <line id="Line_13" data-name="Line 13" x1="5.838" transform="translate(40.513 57.625)" fill="none" stroke="#000" stroke-width="1"/>
      <text id="_40" data-name="40" transform="translate(31 60.287)" font-size="14" font-family="HKGrotesk-Regular, HK Grotesk"><tspan x="-15.876" y="0">40</tspan></text>
      <text id="numero_di_occorrenze" data-name="numero di occorrenze" transform="translate(40 14)" font-size="14" font-family="HKGrotesk-Regular, HK Grotesk"><tspan x="0" y="0">numero di occorrenze</tspan></text>
      <text id="numero_di_occorrenze-2" data-name="numero di occorrenze" transform="translate(40 331)" font-size="14" font-family="HKGrotesk-Regular, HK Grotesk"><tspan x="0" y="0">numero di occorrenze</tspan></text>
      <text id="numero_di_occorrenze-3" data-name="numero di occorrenze" transform="translate(40 677)" font-size="14" font-family="HKGrotesk-Regular, HK Grotesk"><tspan x="0" y="0">numero di occorrenze</tspan></text>
      <path id="Path_2" data-name="Path 2" d="M.171,278.152V50.5H-6" transform="translate(45.997 -18.29)" fill="none" stroke="#212529" stroke-width="1"/>
      <path id="Path_8" data-name="Path 8" d="M32.223,227.652h338.2" transform="translate(7.774 32.21)" fill="none" stroke="#000" stroke-width="1"/>
      <text id="a" transform="translate(354 37)" fill="#5151fc" font-size="14" font-family="HKGrotesk-Regular, HK Grotesk"><tspan x="0" y="0">a</tspan></text>
      <g id="Ellipse_1" data-name="Ellipse 1" transform="translate(349 25)" fill="none" stroke="#5151fc" stroke-width="1">
        <circle cx="9" cy="9" r="9" stroke="none"/>
        <circle cx="9" cy="9" r="8.5" fill="none"/>
      </g>
      <line id="Line_3" data-name="Line 3" y2="4" transform="translate(548.258 260.123)" fill="none" stroke="#000" stroke-width="1"/>
      <line id="Line_4" data-name="Line 4" y2="4" transform="translate(757.462 260.123)" fill="none" stroke="#000" stroke-width="1"/>
      <text id="_1955" data-name="1955" transform="translate(547.385 281.489)" font-size="14" font-family="HKGrotesk-Regular, HK Grotesk"><tspan x="-15.841" y="0">1955</tspan></text>
      <text id="_1960" data-name="1960" transform="translate(756.589 281.489)" font-size="14" font-family="HKGrotesk-Regular, HK Grotesk"><tspan x="-15.848" y="0">1960</tspan></text>
    </g>
    <g id="Group_19" data-name="Group 19" transform="translate(-15 41)">
      <g id="date" transform="translate(-1421 205)">
        <text id="_1945-2" data-name="1945" transform="translate(148.977 348.489)" font-size="14" font-family="HKGrotesk-Regular, HK Grotesk"><tspan x="-15.876" y="0">1945</tspan></text>
        <text id="_1950-2" data-name="1950" transform="translate(358.181 348.489)" font-size="14" font-family="HKGrotesk-Regular, HK Grotesk"><tspan x="-15.841" y="0">1950</tspan></text>
        <text id="_1955-2" data-name="1955" transform="translate(567.385 348.489)" font-size="14" font-family="HKGrotesk-Regular, HK Grotesk"><tspan x="-15.841" y="0">1955</tspan></text>
        <text id="_1960-2" data-name="1960" transform="translate(776.589 348.489)" font-size="14" font-family="HKGrotesk-Regular, HK Grotesk"><tspan x="-15.848" y="0">1960</tspan></text>
        <text id="_1965" data-name="1965" transform="translate(985.793 348.489)" font-size="14" font-family="HKGrotesk-Regular, HK Grotesk"><tspan x="-15.848" y="0">1965</tspan></text>
        <text id="_1970" data-name="1970" transform="translate(1194.997 348.489)" font-size="14" font-family="HKGrotesk-Regular, HK Grotesk"><tspan x="-15.876" y="0">1970</tspan></text>
        <text id="_1975" data-name="1975" transform="translate(1404.201 348.489)" font-size="14" font-family="HKGrotesk-Regular, HK Grotesk"><tspan x="-15.876" y="0">1975</tspan></text>
        <text id="_1980" data-name="1980" transform="translate(1613.405 348.489)" font-size="14" font-family="HKGrotesk-Regular, HK Grotesk"><tspan x="-15.806" y="0">1980</tspan></text>
        <text id="_1984" data-name="1984" transform="translate(1776.405 348.489)" font-size="14" font-family="HKGrotesk-Regular, HK Grotesk"><tspan x="-15.841" y="0">1984</tspan></text>
      </g>
      <g id="Scroll_Group_1" data-name="Scroll Group 1" transform="translate(-1355.649 301)" clip-path="url(#clip-path)" style="isolation: isolate">
        <g id="Group_16" data-name="Group 16" transform="translate(0 7.476)">
          <path id="Path_3-2" data-name="Path 3" d="M40,225.492c62.761,0,62.761-15.249,83.682-15.249h41.841c20.92,0,20.92-60.995,41.841-60.995s20.92,71.16,41.841,71.16,20.92,5.083,41.841,5.083,20.92-10.166,41.841-10.166,20.92,10.166,41.841,10.166,20.92-20.332,41.841-20.332,20.92,15.249,41.841,15.249,20.92-25.414,41.841-25.414,20.92,30.5,41.841,30.5,20.92-5.083,41.841-5.083,20.92,5.083,41.841,5.083S646.691,134,667.612,134s20.92,81.326,41.841,81.326,20.92,10.166,41.841,10.166h83.682c20.92,0,20.92-45.746,41.841-45.746s20.92,45.746,41.841,45.746,20.92-15.249,41.841-15.249,20.92,15.249,41.841,15.249,20.92-5.083,41.841-5.083,20.92,5.083,41.841,5.083H1169.7c20.92,0,20.92-15.249,41.841-15.249s20.92-25.414,41.841-25.414,20.92,40.663,41.841,40.663h83.682c20.92,0,20.92-10.166,41.841-10.166s20.92-5.083,41.841-5.083,20.92,15.249,41.841,15.249,20.92-35.58,41.841-35.58,20.92,35.58,41.841,35.58h83.682c20.92,0,20.92-5.083,41.841-5.083s20.92,5.083,41.841,5.083H40Z" transform="translate(-40 -1.845)" fill="#5151fc" stroke="rgba(0,0,0,0.7)" stroke-width="0.5"/>
          <path id="Path_4-2" data-name="Path 4" d="M40,229.435c62.761,0,62.761-15.249,83.682-15.249h41.841c20.92,0,20.92-66.077,41.841-66.077s20.92,71.16,41.841,71.16,20.92,10.166,41.841,10.166,20.92-10.166,41.841-10.166,20.92,10.166,41.841,10.166,20.92-20.332,41.841-20.332,20.92,10.166,41.841,10.166,20.92-20.332,41.841-20.332,20.92,30.5,41.841,30.5,20.92-5.083,41.841-5.083,20.92,5.083,41.841,5.083,20.92-101.658,41.841-101.658,20.92,91.492,41.841,91.492,20.92,10.166,41.841,10.166h83.682c20.92,0,20.92-66.077,41.841-66.077s20.92,66.077,41.841,66.077S939.577,209.1,960.5,209.1s20.92,20.332,41.841,20.332,20.92-10.166,41.841-10.166,20.92,10.166,41.841,10.166H1169.7c20.92,0,20.92-15.249,41.841-15.249s20.92-40.663,41.841-40.663,20.92,55.912,41.841,55.912h41.841c20.92,0,20.92-5.083,41.841-5.083s20.92-10.166,41.841-10.166h41.841c20.92,0,20.92,15.249,41.841,15.249s20.92-60.995,41.841-60.995,20.92,60.995,41.841,60.995h41.841c20.92,0,20.92-5.083,41.841-5.083h83.682v5.083c-62.761-5.083-62.761,0-83.682,0h-83.682c-20.92,0-20.92-35.58-41.841-35.58s-20.92,35.58-41.841,35.58-20.921-15.249-41.841-15.249-20.92,5.083-41.841,5.083-20.92,10.166-41.841,10.166h-83.682c-20.92,0-20.92-40.663-41.841-40.663s-20.92,25.414-41.841,25.414-20.92,15.249-41.841,15.249H1086.02c-20.92,0-20.92-5.083-41.841-5.083s-20.92,5.083-41.841,5.083-20.921-15.249-41.841-15.249-20.92,15.249-41.841,15.249-20.92-45.746-41.841-45.746-20.92,45.746-41.841,45.746H751.293c-20.92,0-20.92-10.166-41.841-10.166s-20.92-81.326-41.841-81.326-20.92,91.492-41.841,91.492-20.92-5.083-41.841-5.083-20.92,5.083-41.841,5.083-20.92-30.5-41.841-30.5-20.92,25.414-41.841,25.414S437.488,209.1,416.567,209.1s-20.92,20.332-41.841,20.332-20.92-10.166-41.841-10.166-20.92,10.166-41.841,10.166-20.92-5.083-41.841-5.083-20.92-71.16-41.841-71.16-20.92,60.995-41.841,60.995H123.682c-20.92,0-20.92,15.249-41.841,15.249Z" transform="translate(-40 -5.789)" fill="#c5c5fc" stroke="rgba(0,0,0,0.7)" stroke-width="0.5"/>
          <path id="Path_5-2" data-name="Path 5" d="M40,249.153c62.761,0,62.761-15.249,83.682-15.249s20.92-10.166,41.841-10.166,20.92-86.409,41.841-86.409,20.92,101.658,41.841,101.658,20.92,5.083,41.841,5.083,20.92-5.083,41.841-5.083,20.92,10.166,41.841,10.166,20.92-40.663,41.841-40.663,20.92,10.166,41.841,10.166,20.92-5.083,41.841-5.083,20.92,35.58,41.841,35.58,20.92-5.083,41.841-5.083,20.92-5.083,41.841-5.083,20.92-137.238,41.841-137.238,20.92,137.238,41.841,137.238,20.92,10.166,41.841,10.166h83.682c20.92,0,20.92-76.243,41.841-76.243s20.92,25.414,41.841,25.414,20.92,20.332,41.841,20.332,20.92,25.414,41.841,25.414,20.92-20.332,41.841-20.332,20.92,20.332,41.841,20.332,20.92,5.083,41.841,5.083H1169.7c20.92,0,20.92-15.249,41.841-15.249s20.92-60.995,41.841-60.995,20.92,66.077,41.841,66.077,20.92,10.166,41.841,10.166,20.92-10.166,41.841-10.166,20.92-5.083,41.841-5.083,20.92-5.083,41.841-5.083,20.92,20.332,41.841,20.332,20.92-152.486,41.841-152.486,20.92,137.238,41.841,137.238,20.92,15.249,41.841,15.249,20.92-5.083,41.841-5.083,20.92-15.249,41.841-15.249,20.92,15.249,41.841,15.249h-83.682c-20.921,0-20.921,5.083-41.841,5.083h-41.841c-20.92,0-20.92-60.995-41.841-60.995s-20.92,60.995-41.841,60.995-20.921-15.249-41.841-15.249h-41.841c-20.92,0-20.92,10.166-41.841,10.166s-20.92,5.083-41.841,5.083h-41.841c-20.92,0-20.92-55.912-41.841-55.912s-20.92,40.663-41.841,40.663-20.92,15.249-41.841,15.249H1086.02c-20.92,0-20.92-10.166-41.841-10.166s-20.92,10.166-41.841,10.166-20.921-20.332-41.841-20.332-20.92,20.332-41.841,20.332-20.92-66.077-41.841-66.077-20.92,66.077-41.841,66.077H751.293c-20.92,0-20.92-10.166-41.841-10.166S688.532,147.5,667.612,147.5s-20.92,101.658-41.841,101.658-20.92-5.083-41.841-5.083-20.92,5.083-41.841,5.083-20.92-30.5-41.841-30.5-20.92,20.332-41.841,20.332-20.92-10.166-41.841-10.166-20.92,20.332-41.841,20.332-20.92-10.166-41.841-10.166-20.92,10.166-41.841,10.166-20.92-10.166-41.841-10.166-20.92-71.16-41.841-71.16S186.443,233.9,165.522,233.9H123.682c-20.92,0-20.92,15.249-41.841,15.249Z" transform="translate(-40 -25.506)" fill="#00c19c" stroke="rgba(0,0,0,0.7)" stroke-width="0.5"/>
          <path id="Path_6-2" data-name="Path 6" d="M40,276.758c62.761,0,62.761-15.249,83.682-15.249s20.92-15.249,41.841-15.249,20.92-91.492,41.841-91.492,20.92,111.823,41.841,111.823,20.92-5.083,41.841-5.083,20.92,5.083,41.841,5.083,20.92,10.166,41.841,10.166,20.92-40.663,41.841-40.663,20.92,5.083,41.841,5.083h41.841c20.92,0,20.92,35.58,41.841,35.58s20.92-5.083,41.841-5.083,20.92-10.166,41.841-10.166,20.92-142.321,41.841-142.321,20.92,137.238,41.841,137.238,20.92,20.332,41.841,20.332h41.841c20.92,0,20.92-5.083,41.841-5.083s20.92-81.326,41.841-81.326,20.92,30.5,41.841,30.5,20.92-10.166,41.841-10.166,20.92,60.995,41.841,60.995,20.92-25.414,41.841-25.414,20.92,25.414,41.841,25.414,20.92,5.083,41.841,5.083H1169.7c20.92,0,20.92-20.332,41.841-20.332s20.92-81.326,41.841-81.326,20.92,91.492,41.841,91.492h41.841c20.92,0,20.92-10.166,41.841-10.166h83.682c20.92,0,20.92,20.332,41.841,20.332s20.92-223.647,41.841-223.647,20.92,208.4,41.841,208.4,20.92,5.083,41.841,5.083,20.92-5.083,41.841-5.083,20.92-20.332,41.841-20.332,20.92,30.5,41.841,30.5h0c-62.761-15.249-62.761,0-83.682,0s-20.921,5.083-41.841,5.083-20.92-15.249-41.841-15.249-20.92-137.238-41.841-137.238-20.92,152.486-41.841,152.486-20.921-20.332-41.841-20.332-20.92,5.083-41.841,5.083-20.92,5.083-41.841,5.083-20.92,10.166-41.841,10.166-20.921-10.166-41.841-10.166-20.92-66.077-41.841-66.077-20.92,60.995-41.841,60.995-20.92,15.249-41.841,15.249H1127.86c-20.92,0-20.92-5.083-41.841-5.083s-20.92-20.332-41.841-20.332-20.92,20.332-41.841,20.332-20.921-25.414-41.841-25.414-20.92-20.332-41.841-20.332-20.92-25.414-41.841-25.414-20.92,76.243-41.841,76.243H751.293c-20.92,0-20.92-10.166-41.841-10.166s-20.92-137.238-41.841-137.238-20.92,137.238-41.841,137.238-20.92,5.083-41.841,5.083-20.92,5.083-41.841,5.083-20.92-35.58-41.841-35.58-20.92,5.083-41.841,5.083-20.92-10.166-41.841-10.166-20.92,40.663-41.841,40.663-20.92-10.166-41.841-10.166-20.92,5.083-41.841,5.083-20.92-5.083-41.841-5.083-20.92-101.658-41.841-101.658-20.92,86.409-41.841,86.409-20.92,10.166-41.841,10.166-20.92,15.249-41.841,15.249Z" transform="translate(-40 -53.111)" fill="#c2faef" stroke="rgba(0,0,0,0.7)" stroke-width="0.5"/>
        </g>
        <rect id="Rectangle_1" data-name="Rectangle 1" width="104" height="264" transform="translate(1297.649)" fill="#fff"/>
      </g>
      <line id="Line_14" data-name="Line 14" x1="5.838" transform="translate(40.513 482.111)" fill="none" stroke="#000" stroke-width="1"/>
      <path id="Path_7" data-name="Path 7" d="M319.422,0H0" transform="translate(40.513 532.111)" fill="none" stroke="#000" stroke-width="1"/>
      <text id="_10-2" data-name="10" transform="translate(31 484.773)" font-size="14" font-family="HKGrotesk-Regular, HK Grotesk"><tspan x="-15.946" y="0">10</tspan></text>
      <text id="_0-2" data-name="0" transform="translate(31 533.773)" font-size="14" font-family="HKGrotesk-Regular, HK Grotesk"><tspan x="-7.938" y="0">0</tspan></text>
      <line id="Line_15" data-name="Line 15" x1="5.838" transform="translate(40.513 431.282)" fill="none" stroke="#000" stroke-width="1"/>
      <text id="_20-2" data-name="20" transform="translate(31 433.944)" font-size="14" font-family="HKGrotesk-Regular, HK Grotesk"><tspan x="-15.876" y="0">20</tspan></text>
      <line id="Line_16" data-name="Line 16" x1="5.838" transform="translate(40.513 380.453)" fill="none" stroke="#000" stroke-width="1"/>
      <text id="_30-2" data-name="30" transform="translate(31 383.115)" font-size="14" font-family="HKGrotesk-Regular, HK Grotesk"><tspan x="-15.876" y="0">30</tspan></text>
      <line id="Line_17" data-name="Line 17" x1="5.838" transform="translate(40.513 329.625)" fill="none" stroke="#000" stroke-width="1"/>
      <text id="_40-2" data-name="40" transform="translate(31 332.287)" font-size="14" font-family="HKGrotesk-Regular, HK Grotesk"><tspan x="-15.876" y="0">40</tspan></text>
      <path id="Path_2-2" data-name="Path 2" d="M-6,50.5H.171V278.681" transform="translate(45.997 253.71)" fill="none" stroke="#212529" stroke-width="1"/>
      <line id="Line_18" data-name="Line 18" y2="4" transform="translate(193.277 532.123)" fill="none" stroke="#000" stroke-width="1"/>
      <path id="Path_9" data-name="Path 9" d="M1048.67,851.606v-5.8" transform="translate(-689 -319)" fill="none" stroke="#000" stroke-width="1"/>
      <text id="b" transform="translate(354 316)" fill="#5151fc" font-size="14" font-family="HKGrotesk-Regular, HK Grotesk"><tspan x="0" y="0">b</tspan></text>
      <g id="Ellipse_1-2" data-name="Ellipse 1" transform="translate(349 302)" fill="none" stroke="#5151fc" stroke-width="1">
        <circle cx="9" cy="9" r="9" stroke="none"/>
        <circle cx="9" cy="9" r="8.5" fill="none"/>
      </g>
      <g id="Group_17" data-name="Group 17" transform="translate(-1354.832 405.489)">
        <line id="Line_1-2" data-name="Line 1" y2="4" transform="translate(83.682 126.634)" fill="none" stroke="#000" stroke-width="1"/>
        <line id="Line_2-2" data-name="Line 2" y2="4" transform="translate(292.886 126.634)" fill="none" stroke="#000" stroke-width="1"/>
        <line id="Line_3-2" data-name="Line 3" y2="4" transform="translate(502.089 126.634)" fill="none" stroke="#000" stroke-width="1"/>
        <line id="Line_4-2" data-name="Line 4" y2="4" transform="translate(711.293 126.634)" fill="none" stroke="#000" stroke-width="1"/>
        <line id="Line_5" data-name="Line 5" y2="4" transform="translate(920.497 126.634)" fill="none" stroke="#000" stroke-width="1"/>
        <line id="Line_6" data-name="Line 6" y2="4" transform="translate(1129.701 126.634)" fill="none" stroke="#000" stroke-width="1"/>
        <line id="Line_7" data-name="Line 7" y2="4" transform="translate(1338.905 126.634)" fill="none" stroke="#000" stroke-width="1"/>
      </g>
    </g>
  </g>
</svg>
