<?xml version="1.0" encoding="utf-8"?>
<!-- Generator: Adobe Illustrator 25.1.0, SVG Export Plug-In . SVG Version: 6.00 Build 0)  -->
<svg version="1.1" id="Layer_1" xmlns="http://www.w3.org/2000/svg" xmlns:xlink="http://www.w3.org/1999/xlink" x="0px" y="0px"
	 viewBox="0 0 695 32" style="enable-background:new 0 0 695 32;" xml:space="preserve">
<style type="text/css">
	.st0{clip-path:url(#SVGID_2_);}
	.st1{enable-background:new    ;}
	.st2{fill:none;}
	.st3{fill:none;stroke:#1D1D1B;stroke-width:0.25;stroke-miterlimit:10;}
	.st4{fill:#1D1D1B;}
	.st5{fill:none;stroke:#1D1D1B;stroke-width:0.26;stroke-miterlimit:10;}
	.st6{fill:none;stroke:#1D1D1B;stroke-width:0.26;stroke-miterlimit:10;stroke-dasharray:1.115,1.115;}
	.st7{fill:none;stroke:#1D1D1B;stroke-width:0.26;stroke-miterlimit:10;stroke-dasharray:0.758,0.758;}
	.st8{fill:#C5C5FC;}
	.st9{fill:#5151FC;}
	.st10{fill:#C2FAEF;}
	.st11{fill:#00C19C;}
</style>
<g>
	<defs>
		<rect id="SVGID_1_" width="695" height="32"/>
	</defs>
	<clipPath id="SVGID_2_">
		<use xlink:href="#SVGID_1_"  style="overflow:visible;"/>
	</clipPath>
	<g id="legend" class="st0">
		<g id="Group_304" transform="translate(102 7.303)">
			<g id="Group_305" transform="translate(8350 -9660.325)">
				<g id="dimensione" transform="translate(-8032 9661.423)">
					<g id="dimensione-X">
						<g id="Group-7">
							<g class="st1">
								<path d="M125,22v-7.2h1l3.8,5.6v-5.6h0.9V22h-1l-3.8-5.6V22H125z"/>
								<path d="M135.5,22v-0.8c-0.4,0.6-1,0.9-1.6,0.9c-0.3,0-0.6-0.1-0.9-0.2c-0.3-0.1-0.5-0.3-0.6-0.4c-0.1-0.2-0.2-0.4-0.3-0.7
									c0-0.2-0.1-0.4-0.1-0.8v-3.2h0.9v2.9c0,0.5,0,0.8,0.1,0.9c0.1,0.2,0.2,0.4,0.4,0.5c0.2,0.1,0.4,0.2,0.7,0.2s0.5-0.1,0.7-0.2
									c0.2-0.1,0.4-0.3,0.5-0.6c0.1-0.2,0.1-0.6,0.1-1v-2.8h0.9V22H135.5z"/>
								<path d="M137.6,22v-5.2h0.8v0.7c0.2-0.3,0.4-0.5,0.6-0.6c0.3-0.2,0.6-0.2,0.9-0.2c0.4,0,0.7,0.1,0.9,0.2
									c0.2,0.2,0.4,0.4,0.5,0.7c0.4-0.6,0.9-0.9,1.6-0.9c0.5,0,0.9,0.1,1.2,0.4c0.3,0.3,0.4,0.7,0.4,1.3V22h-0.9v-3.3
									c0-0.4,0-0.6-0.1-0.8c-0.1-0.2-0.2-0.3-0.3-0.4c-0.2-0.1-0.3-0.1-0.5-0.1c-0.4,0-0.7,0.1-0.9,0.4c-0.2,0.2-0.4,0.6-0.4,1.2
									v3h-0.9v-3.4c0-0.4-0.1-0.7-0.2-0.9c-0.1-0.2-0.4-0.3-0.7-0.3c-0.2,0-0.5,0.1-0.7,0.2s-0.4,0.3-0.5,0.6
									c-0.1,0.3-0.1,0.6-0.1,1.1V22H137.6z"/>
								<path d="M149.5,20.3l0.9,0.1c-0.1,0.5-0.4,0.9-0.8,1.2c-0.4,0.3-0.9,0.4-1.5,0.4c-0.8,0-1.4-0.2-1.8-0.7
									c-0.4-0.5-0.7-1.1-0.7-2c0-0.9,0.2-1.5,0.7-2s1-0.7,1.7-0.7c0.7,0,1.3,0.2,1.7,0.7s0.7,1.1,0.7,2c0,0.1,0,0.1,0,0.2h-3.9
									c0,0.6,0.2,1,0.5,1.3c0.3,0.3,0.7,0.5,1.1,0.5c0.3,0,0.6-0.1,0.8-0.3C149.2,20.9,149.4,20.7,149.5,20.3z M146.6,18.9h2.9
									c0-0.4-0.2-0.8-0.3-1c-0.3-0.3-0.6-0.5-1.1-0.5c-0.4,0-0.7,0.1-1,0.4C146.8,18.1,146.7,18.4,146.6,18.9z"/>
								<path d="M151.5,22v-5.2h0.8v0.8c0.2-0.4,0.4-0.6,0.6-0.7s0.4-0.2,0.6-0.2c0.3,0,0.6,0.1,0.9,0.3l-0.3,0.8
									c-0.2-0.1-0.4-0.2-0.6-0.2c-0.2,0-0.4,0.1-0.5,0.2c-0.2,0.1-0.3,0.3-0.3,0.5c-0.1,0.3-0.1,0.7-0.1,1V22H151.5z"/>
								<path d="M154.5,19.4c0-1,0.3-1.7,0.8-2.1c0.4-0.4,1-0.6,1.6-0.6c0.7,0,1.3,0.2,1.7,0.7c0.5,0.5,0.7,1.1,0.7,1.9
									c0,0.7-0.1,1.2-0.3,1.6c-0.2,0.4-0.5,0.7-0.9,0.9c-0.4,0.2-0.8,0.3-1.3,0.3c-0.7,0-1.3-0.2-1.8-0.7
									C154.8,20.9,154.5,20.3,154.5,19.4z M155.4,19.4c0,0.7,0.1,1.2,0.4,1.5c0.3,0.3,0.7,0.5,1.1,0.5c0.4,0,0.8-0.2,1.1-0.5
									c0.3-0.3,0.4-0.8,0.4-1.5c0-0.6-0.1-1.1-0.4-1.5c-0.3-0.3-0.7-0.5-1.1-0.5c-0.4,0-0.8,0.2-1.1,0.5
									C155.6,18.2,155.4,18.7,155.4,19.4z"/>
								<path d="M166.6,22v-0.7c-0.3,0.5-0.8,0.8-1.5,0.8c-0.4,0-0.8-0.1-1.1-0.3s-0.6-0.5-0.8-1c-0.2-0.4-0.3-0.9-0.3-1.4
									c0-0.5,0.1-1,0.3-1.4c0.2-0.4,0.4-0.7,0.8-1c0.3-0.2,0.7-0.3,1.2-0.3c0.3,0,0.6,0.1,0.8,0.2c0.2,0.1,0.4,0.3,0.6,0.5v-2.6
									h0.9V22H166.6z M163.8,19.4c0,0.7,0.1,1.2,0.4,1.5c0.3,0.3,0.6,0.5,1,0.5c0.4,0,0.7-0.2,1-0.5c0.3-0.3,0.4-0.8,0.4-1.4
									c0-0.7-0.1-1.2-0.4-1.6s-0.6-0.5-1-0.5c-0.4,0-0.7,0.2-1,0.5C163.9,18.2,163.8,18.7,163.8,19.4z"/>
								<path d="M168.8,15.8v-1h0.9v1H168.8z M168.8,22v-5.2h0.9V22H168.8z"/>
								<path d="M173.4,19.4c0-1,0.3-1.7,0.8-2.1c0.4-0.4,1-0.6,1.6-0.6c0.7,0,1.3,0.2,1.7,0.7c0.5,0.5,0.7,1.1,0.7,1.9
									c0,0.7-0.1,1.2-0.3,1.6c-0.2,0.4-0.5,0.7-0.9,0.9c-0.4,0.2-0.8,0.3-1.3,0.3c-0.7,0-1.3-0.2-1.8-0.7
									C173.7,20.9,173.4,20.3,173.4,19.4z M174.3,19.4c0,0.7,0.1,1.2,0.4,1.5c0.3,0.3,0.7,0.5,1.1,0.5c0.4,0,0.8-0.2,1.1-0.5
									c0.3-0.3,0.4-0.8,0.4-1.5c0-0.6-0.1-1.1-0.4-1.5c-0.3-0.3-0.7-0.5-1.1-0.5c-0.4,0-0.8,0.2-1.1,0.5
									C174.5,18.2,174.3,18.7,174.3,19.4z"/>
								<path d="M182.7,20.1l0.9,0.1c-0.1,0.6-0.3,1.1-0.7,1.4c-0.4,0.3-0.9,0.5-1.4,0.5c-0.7,0-1.3-0.2-1.7-0.7
									c-0.4-0.5-0.6-1.1-0.6-2c0-0.6,0.1-1,0.3-1.5s0.5-0.7,0.8-0.9c0.4-0.2,0.8-0.3,1.2-0.3c0.6,0,1,0.1,1.4,0.4
									c0.4,0.3,0.6,0.7,0.7,1.2l-0.9,0.1c-0.1-0.3-0.2-0.6-0.4-0.8c-0.2-0.2-0.5-0.3-0.7-0.3c-0.4,0-0.8,0.2-1.1,0.5
									c-0.3,0.3-0.4,0.8-0.4,1.5c0,0.7,0.1,1.2,0.4,1.5c0.3,0.3,0.6,0.5,1,0.5c0.3,0,0.6-0.1,0.9-0.3
									C182.5,20.8,182.7,20.5,182.7,20.1z"/>
								<path d="M187.7,20.1l0.9,0.1c-0.1,0.6-0.3,1.1-0.7,1.4c-0.4,0.3-0.9,0.5-1.4,0.5c-0.7,0-1.3-0.2-1.7-0.7
									c-0.4-0.5-0.6-1.1-0.6-2c0-0.6,0.1-1,0.3-1.5s0.5-0.7,0.8-0.9c0.4-0.2,0.8-0.3,1.2-0.3c0.6,0,1,0.1,1.4,0.4
									c0.4,0.3,0.6,0.7,0.7,1.2l-0.9,0.1c-0.1-0.3-0.2-0.6-0.4-0.8c-0.2-0.2-0.5-0.3-0.7-0.3c-0.4,0-0.8,0.2-1.1,0.5
									c-0.3,0.3-0.4,0.8-0.4,1.5c0,0.7,0.1,1.2,0.4,1.5c0.3,0.3,0.6,0.5,1,0.5c0.3,0,0.6-0.1,0.9-0.3
									C187.5,20.8,187.7,20.5,187.7,20.1z"/>
								<path d="M189,19.4c0-1,0.3-1.7,0.8-2.1c0.4-0.4,1-0.6,1.6-0.6c0.7,0,1.3,0.2,1.7,0.7c0.5,0.5,0.7,1.1,0.7,1.9
									c0,0.7-0.1,1.2-0.3,1.6c-0.2,0.4-0.5,0.7-0.9,0.9c-0.4,0.2-0.8,0.3-1.3,0.3c-0.7,0-1.3-0.2-1.8-0.7
									C189.2,20.9,189,20.3,189,19.4z M189.9,19.4c0,0.7,0.1,1.2,0.4,1.5c0.3,0.3,0.7,0.5,1.1,0.5c0.4,0,0.8-0.2,1.1-0.5
									c0.3-0.3,0.4-0.8,0.4-1.5c0-0.6-0.1-1.1-0.4-1.5c-0.3-0.3-0.7-0.5-1.1-0.5c-0.4,0-0.8,0.2-1.1,0.5
									C190,18.2,189.9,18.7,189.9,19.4z"/>
								<path d="M194.9,22v-5.2h0.8v0.8c0.2-0.4,0.4-0.6,0.6-0.7s0.4-0.2,0.6-0.2c0.3,0,0.6,0.1,0.9,0.3l-0.3,0.8
									c-0.2-0.1-0.4-0.2-0.6-0.2c-0.2,0-0.4,0.1-0.5,0.2c-0.2,0.1-0.3,0.3-0.3,0.5c-0.1,0.3-0.1,0.7-0.1,1V22H194.9z"/>
								<path d="M198.2,22v-5.2h0.8v0.8c0.2-0.4,0.4-0.6,0.6-0.7s0.4-0.2,0.6-0.2c0.3,0,0.6,0.1,0.9,0.3l-0.3,0.8
									c-0.2-0.1-0.4-0.2-0.6-0.2c-0.2,0-0.4,0.1-0.5,0.2c-0.2,0.1-0.3,0.3-0.3,0.5c-0.1,0.3-0.1,0.7-0.1,1V22H198.2z"/>
								<path d="M205.1,20.3l0.9,0.1c-0.1,0.5-0.4,0.9-0.8,1.2c-0.4,0.3-0.9,0.4-1.5,0.4c-0.8,0-1.4-0.2-1.8-0.7
									c-0.4-0.5-0.7-1.1-0.7-2c0-0.9,0.2-1.5,0.7-2s1-0.7,1.7-0.7c0.7,0,1.3,0.2,1.7,0.7s0.7,1.1,0.7,2c0,0.1,0,0.1,0,0.2h-3.9
									c0,0.6,0.2,1,0.5,1.3c0.3,0.3,0.7,0.5,1.1,0.5c0.3,0,0.6-0.1,0.8-0.3C204.8,20.9,205,20.7,205.1,20.3z M202.2,18.9h2.9
									c0-0.4-0.2-0.8-0.3-1c-0.3-0.3-0.6-0.5-1.1-0.5c-0.4,0-0.7,0.1-1,0.4C202.4,18.1,202.2,18.4,202.2,18.9z"/>
								<path d="M207.1,22v-5.2h0.8v0.7c0.4-0.6,0.9-0.9,1.7-0.9c0.3,0,0.6,0.1,0.9,0.2c0.3,0.1,0.5,0.3,0.6,0.4
									c0.1,0.2,0.2,0.4,0.3,0.6c0,0.2,0,0.4,0,0.9V22h-0.9v-3.2c0-0.4,0-0.6-0.1-0.8c-0.1-0.2-0.2-0.3-0.4-0.4
									c-0.2-0.1-0.4-0.2-0.6-0.2c-0.4,0-0.7,0.1-1,0.4c-0.3,0.2-0.4,0.7-0.4,1.4V22H207.1z"/>
								<path d="M212.2,22v-0.7l3.3-3.8c-0.4,0-0.7,0-1,0h-2.1v-0.7h4.2v0.6l-2.8,3.3l-0.5,0.6c0.4,0,0.8,0,1.1,0h2.4V22H212.2z"/>
								<path d="M221.2,20.3l0.9,0.1c-0.1,0.5-0.4,0.9-0.8,1.2c-0.4,0.3-0.9,0.4-1.5,0.4c-0.8,0-1.4-0.2-1.8-0.7
									c-0.4-0.5-0.7-1.1-0.7-2c0-0.9,0.2-1.5,0.7-2s1-0.7,1.7-0.7c0.7,0,1.3,0.2,1.7,0.7s0.7,1.1,0.7,2c0,0.1,0,0.1,0,0.2h-3.9
									c0,0.6,0.2,1,0.5,1.3c0.3,0.3,0.7,0.5,1.1,0.5c0.3,0,0.6-0.1,0.8-0.3C220.9,20.9,221.1,20.7,221.2,20.3z M218.3,18.9h2.9
									c0-0.4-0.2-0.8-0.3-1c-0.3-0.3-0.6-0.5-1.1-0.5c-0.4,0-0.7,0.1-1,0.4C218.5,18.1,218.4,18.4,218.3,18.9z"/>
								<path d="M226,22v-5.2h0.8v0.7c0.4-0.6,0.9-0.9,1.7-0.9c0.3,0,0.6,0.1,0.9,0.2c0.3,0.1,0.5,0.3,0.6,0.4
									c0.1,0.2,0.2,0.4,0.3,0.6c0,0.2,0,0.4,0,0.9V22h-0.9v-3.2c0-0.4,0-0.6-0.1-0.8c-0.1-0.2-0.2-0.3-0.4-0.4
									c-0.2-0.1-0.4-0.2-0.6-0.2c-0.4,0-0.7,0.1-1,0.4c-0.3,0.2-0.4,0.7-0.4,1.4V22H226z"/>
								<path d="M235.1,20.3l0.9,0.1c-0.1,0.5-0.4,0.9-0.8,1.2c-0.4,0.3-0.9,0.4-1.5,0.4c-0.8,0-1.4-0.2-1.8-0.7
									c-0.4-0.5-0.7-1.1-0.7-2c0-0.9,0.2-1.5,0.7-2s1-0.7,1.7-0.7c0.7,0,1.3,0.2,1.7,0.7s0.7,1.1,0.7,2c0,0.1,0,0.1,0,0.2h-3.9
									c0,0.6,0.2,1,0.5,1.3c0.3,0.3,0.7,0.5,1.1,0.5c0.3,0,0.6-0.1,0.8-0.3C234.8,20.9,235,20.7,235.1,20.3z M232.2,18.9h2.9
									c0-0.4-0.2-0.8-0.3-1c-0.3-0.3-0.6-0.5-1.1-0.5c-0.4,0-0.7,0.1-1,0.4C232.4,18.1,232.3,18.4,232.2,18.9z"/>
								<path d="M237.1,22v-7.2h0.9V22H237.1z"/>
								<path d="M244.1,21.2l0.1,0.8c-0.2,0.1-0.5,0.1-0.7,0.1c-0.3,0-0.6-0.1-0.7-0.2s-0.3-0.2-0.4-0.4c-0.1-0.2-0.1-0.5-0.1-1v-3
									h-0.6v-0.7h0.6v-1.3l0.9-0.5v1.8h0.9v0.7h-0.9v3c0,0.3,0,0.4,0,0.5c0,0.1,0.1,0.1,0.2,0.2c0.1,0,0.2,0.1,0.3,0.1
									C243.8,21.2,243.9,21.2,244.1,21.2z"/>
								<path d="M248.5,20.3l0.9,0.1c-0.1,0.5-0.4,0.9-0.8,1.2s-0.9,0.4-1.5,0.4c-0.8,0-1.4-0.2-1.8-0.7c-0.4-0.5-0.7-1.1-0.7-2
									c0-0.9,0.2-1.5,0.7-2s1-0.7,1.7-0.7c0.7,0,1.3,0.2,1.7,0.7s0.7,1.1,0.7,2c0,0.1,0,0.1,0,0.2h-3.9c0,0.6,0.2,1,0.5,1.3
									s0.7,0.5,1.1,0.5c0.3,0,0.6-0.1,0.8-0.3S248.3,20.7,248.5,20.3z M245.6,18.9h2.9c0-0.4-0.1-0.8-0.3-1
									c-0.3-0.3-0.6-0.5-1.1-0.5c-0.4,0-0.7,0.1-1,0.4C245.8,18.1,245.6,18.4,245.6,18.9z"/>
								<path d="M250.5,22v-5.2h0.8v0.7c0.2-0.3,0.4-0.5,0.6-0.6c0.3-0.2,0.6-0.2,0.9-0.2c0.4,0,0.7,0.1,0.9,0.2
									c0.2,0.2,0.4,0.4,0.5,0.7c0.4-0.6,0.9-0.9,1.6-0.9c0.5,0,0.9,0.1,1.2,0.4c0.3,0.3,0.4,0.7,0.4,1.3V22h-0.9v-3.3
									c0-0.4,0-0.6-0.1-0.8c-0.1-0.2-0.2-0.3-0.3-0.4s-0.3-0.1-0.5-0.1c-0.4,0-0.7,0.1-0.9,0.4c-0.2,0.2-0.4,0.6-0.4,1.2v3h-0.9
									v-3.4c0-0.4-0.1-0.7-0.2-0.9s-0.4-0.3-0.7-0.3c-0.2,0-0.5,0.1-0.7,0.2c-0.2,0.1-0.4,0.3-0.5,0.6s-0.1,0.6-0.1,1.1V22H250.5z
									"/>
								<path d="M258.8,24v-7.2h0.8v0.7c0.2-0.3,0.4-0.5,0.6-0.6c0.2-0.1,0.5-0.2,0.9-0.2c0.4,0,0.8,0.1,1.2,0.3s0.6,0.5,0.8,1
									c0.2,0.4,0.3,0.9,0.3,1.4c0,0.5-0.1,1-0.3,1.4c-0.2,0.4-0.5,0.8-0.8,1c-0.4,0.2-0.7,0.3-1.1,0.3c-0.3,0-0.6-0.1-0.8-0.2
									c-0.2-0.1-0.4-0.3-0.6-0.5V24H258.8z M259.6,19.4c0,0.7,0.1,1.2,0.4,1.5s0.6,0.5,1,0.5c0.4,0,0.7-0.2,1-0.5
									c0.3-0.3,0.4-0.8,0.4-1.5c0-0.7-0.1-1.2-0.4-1.5c-0.3-0.3-0.6-0.5-1-0.5c-0.4,0-0.7,0.2-1,0.5
									C259.7,18.2,259.6,18.7,259.6,19.4z"/>
								<path d="M264,19.4c0-1,0.3-1.7,0.8-2.1c0.4-0.4,1-0.6,1.6-0.6c0.7,0,1.3,0.2,1.7,0.7c0.5,0.5,0.7,1.1,0.7,1.9
									c0,0.7-0.1,1.2-0.3,1.6c-0.2,0.4-0.5,0.7-0.9,0.9c-0.4,0.2-0.8,0.3-1.3,0.3c-0.7,0-1.3-0.2-1.8-0.7
									C264.3,20.9,264,20.3,264,19.4z M264.9,19.4c0,0.7,0.1,1.2,0.4,1.5c0.3,0.3,0.7,0.5,1.1,0.5c0.4,0,0.8-0.2,1.1-0.5
									s0.4-0.8,0.4-1.5c0-0.6-0.1-1.1-0.4-1.5c-0.3-0.3-0.7-0.5-1.1-0.5c-0.4,0-0.8,0.2-1.1,0.5S264.9,18.7,264.9,19.4z"/>
							</g>
							<g id="Group_24080">
								<g id="Group_24075">
									<line id="Line_7887" class="st2" x1="111.7" y1="-7.4" x2="111.7" y2="23"/>
									<g id="Group_24074">
										<line id="Line_7888" class="st3" x1="111.7" y1="-7.2" x2="111.7" y2="22.9"/>
										<g id="Group_24072">
											<rect id="Rectangle_19227" x="110.9" y="-7.4" class="st4" width="1.6" height="0.2"/>
										</g>
										<g id="Group_24073">
											<rect id="Rectangle_19228" x="110.9" y="22.8" class="st4" width="1.6" height="0.2"/>
										</g>
									</g>
								</g>
								<g id="Group_24077">
									<line id="Line_7889" class="st2" x1="94.6" y1="-7.4" x2="110.1" y2="-7.4"/>
									<g id="Group_24076">
										<line id="Line_7890" class="st5" x1="94.6" y1="-7.4" x2="95.1" y2="-7.4"/>
										<line id="Line_7891" class="st6" x1="96.2" y1="-7.4" x2="109.1" y2="-7.4"/>
										<line id="Line_7892" class="st5" x1="109.6" y1="-7.4" x2="110.1" y2="-7.4"/>
									</g>
								</g>
								<path id="Path_148123" class="st3" d="M94.6-7.4c-6.1,0-6.1,25.9-12.2,25.9S76.3,23,70.2,23h36.7
									C100.7,23,100.7-7.4,94.6-7.4z"/>
								<g id="Group_24079">
									<line id="Line_7893" class="st2" x1="106.8" y1="23" x2="110.1" y2="23"/>
									<g id="Group_24078">
										<line id="Line_7894" class="st5" x1="106.8" y1="23" x2="107.3" y2="23"/>
										<line id="Line_7895" class="st7" x1="108.1" y1="23" x2="109.2" y2="23"/>
										<line id="Line_7896" class="st5" x1="109.6" y1="23" x2="110.1" y2="23"/>
									</g>
								</g>
							</g>
						</g>
					</g>
				</g>
			</g>
			<g id="Group_306">
				<g id="Group_312">
					<g class="st1">
						<path d="M-81.3,23.3v-7.2h1l3.8,5.6v-5.6h0.9v7.2h-1l-3.8-5.6v5.6H-81.3z"/>
						<path d="M-70.6,21.6l0.9,0.1c-0.1,0.5-0.4,0.9-0.8,1.2s-0.9,0.4-1.5,0.4c-0.8,0-1.4-0.2-1.8-0.7c-0.4-0.5-0.7-1.1-0.7-2
							c0-0.9,0.2-1.5,0.7-2s1-0.7,1.7-0.7c0.7,0,1.3,0.2,1.7,0.7s0.7,1.1,0.7,2c0,0.1,0,0.1,0,0.2h-3.9c0,0.6,0.2,1,0.5,1.3
							s0.7,0.5,1.1,0.5c0.3,0,0.6-0.1,0.8-0.3S-70.7,22-70.6,21.6z M-73.5,20.2h2.9c0-0.4-0.1-0.8-0.3-1c-0.3-0.3-0.6-0.5-1.1-0.5
							c-0.4,0-0.7,0.1-1,0.4S-73.5,19.7-73.5,20.2z"/>
						<path d="M-67.8,23.3h-0.8v-7.2h0.9v2.6c0.4-0.5,0.8-0.7,1.4-0.7c0.3,0,0.6,0.1,0.9,0.2c0.3,0.1,0.5,0.3,0.7,0.5
							c0.2,0.2,0.3,0.5,0.4,0.8s0.2,0.7,0.2,1.1c0,0.9-0.2,1.6-0.7,2.1s-1,0.7-1.6,0.7c-0.6,0-1.1-0.3-1.4-0.8V23.3z M-67.8,20.6
							c0,0.6,0.1,1.1,0.3,1.3c0.3,0.5,0.7,0.7,1.1,0.7c0.4,0,0.7-0.2,1-0.5c0.3-0.3,0.4-0.8,0.4-1.5c0-0.7-0.1-1.2-0.4-1.5
							s-0.6-0.5-1-0.5c-0.4,0-0.7,0.2-1,0.5C-67.7,19.5-67.8,20-67.8,20.6z"/>
						<path d="M-62.2,23.3H-63v-7.2h0.9v2.6c0.4-0.5,0.8-0.7,1.4-0.7c0.3,0,0.6,0.1,0.9,0.2c0.3,0.1,0.5,0.3,0.7,0.5
							c0.2,0.2,0.3,0.5,0.4,0.8s0.2,0.7,0.2,1.1c0,0.9-0.2,1.6-0.7,2.1s-1,0.7-1.6,0.7c-0.6,0-1.1-0.3-1.4-0.8V23.3z M-62.2,20.6
							c0,0.6,0.1,1.1,0.3,1.3c0.3,0.5,0.7,0.7,1.1,0.7c0.4,0,0.7-0.2,1-0.5c0.3-0.3,0.4-0.8,0.4-1.5c0-0.7-0.1-1.2-0.4-1.5
							s-0.6-0.5-1-0.5c-0.4,0-0.7,0.2-1,0.5C-62.1,19.5-62.2,20-62.2,20.6z"/>
						<path d="M-57.5,17.1v-1h0.9v1H-57.5z M-57.5,23.3v-5.2h0.9v5.2H-57.5z"/>
						<path d="M-51.9,22.6c-0.3,0.3-0.6,0.5-0.9,0.6s-0.6,0.2-1,0.2c-0.6,0-1-0.1-1.3-0.4c-0.3-0.3-0.5-0.6-0.5-1.1
							c0-0.3,0.1-0.5,0.2-0.7c0.1-0.2,0.3-0.4,0.5-0.5s0.4-0.2,0.6-0.3c0.2,0,0.4-0.1,0.8-0.1c0.7-0.1,1.2-0.2,1.6-0.3
							c0-0.1,0-0.2,0-0.2c0-0.4-0.1-0.6-0.2-0.8c-0.2-0.2-0.6-0.3-1-0.3c-0.4,0-0.7,0.1-0.9,0.2c-0.2,0.1-0.3,0.4-0.4,0.8l-0.9-0.1
							c0.1-0.4,0.2-0.7,0.4-0.9c0.2-0.2,0.4-0.4,0.8-0.5c0.3-0.1,0.7-0.2,1.2-0.2c0.4,0,0.8,0.1,1.1,0.2s0.5,0.2,0.6,0.4
							c0.1,0.2,0.2,0.4,0.3,0.6c0,0.1,0,0.4,0,0.8v1.2c0,0.8,0,1.3,0.1,1.5c0,0.2,0.1,0.4,0.2,0.6h-0.9
							C-51.8,23.1-51.8,22.9-51.9,22.6z M-51.9,20.7c-0.3,0.1-0.8,0.2-1.4,0.3c-0.4,0.1-0.6,0.1-0.8,0.2s-0.3,0.2-0.3,0.3
							c-0.1,0.1-0.1,0.3-0.1,0.4c0,0.2,0.1,0.4,0.3,0.6s0.4,0.2,0.8,0.2c0.3,0,0.6-0.1,0.9-0.2c0.3-0.1,0.5-0.4,0.6-0.6
							c0.1-0.2,0.1-0.5,0.1-0.9V20.7z"/>
						<path d="M-43.5,22.6c-0.3,0.3-0.6,0.5-0.9,0.6s-0.6,0.2-1,0.2c-0.6,0-1-0.1-1.3-0.4c-0.3-0.3-0.5-0.6-0.5-1.1
							c0-0.3,0.1-0.5,0.2-0.7c0.1-0.2,0.3-0.4,0.5-0.5s0.4-0.2,0.6-0.3c0.2,0,0.4-0.1,0.8-0.1c0.7-0.1,1.2-0.2,1.6-0.3
							c0-0.1,0-0.2,0-0.2c0-0.4-0.1-0.6-0.2-0.8c-0.2-0.2-0.6-0.3-1-0.3c-0.4,0-0.7,0.1-0.9,0.2c-0.2,0.1-0.3,0.4-0.4,0.8l-0.9-0.1
							c0.1-0.4,0.2-0.7,0.4-0.9c0.2-0.2,0.4-0.4,0.8-0.5c0.3-0.1,0.7-0.2,1.2-0.2c0.4,0,0.8,0.1,1.1,0.2s0.5,0.2,0.6,0.4
							c0.1,0.2,0.2,0.4,0.3,0.6c0,0.1,0,0.4,0,0.8v1.2c0,0.8,0,1.3,0.1,1.5c0,0.2,0.1,0.4,0.2,0.6h-0.9
							C-43.4,23.1-43.5,22.9-43.5,22.6z M-43.6,20.7c-0.3,0.1-0.8,0.2-1.4,0.3c-0.4,0.1-0.6,0.1-0.8,0.2s-0.3,0.2-0.3,0.3
							c-0.1,0.1-0.1,0.3-0.1,0.4c0,0.2,0.1,0.4,0.3,0.6s0.4,0.2,0.8,0.2c0.3,0,0.6-0.1,0.9-0.2c0.3-0.1,0.5-0.4,0.6-0.6
							c0.1-0.2,0.1-0.5,0.1-0.9V20.7z"/>
						<path d="M-41.7,21.7l0.9-0.1c0,0.3,0.2,0.6,0.4,0.8s0.5,0.3,0.9,0.3c0.4,0,0.7-0.1,0.9-0.2c0.2-0.2,0.3-0.4,0.3-0.6
							c0-0.2-0.1-0.4-0.3-0.5c-0.1-0.1-0.4-0.2-0.9-0.3c-0.6-0.2-1.1-0.3-1.3-0.4c-0.2-0.1-0.4-0.3-0.6-0.5
							c-0.1-0.2-0.2-0.4-0.2-0.7c0-0.2,0.1-0.4,0.2-0.6c0.1-0.2,0.2-0.4,0.4-0.5c0.1-0.1,0.3-0.2,0.6-0.3c0.2-0.1,0.5-0.1,0.8-0.1
							c0.4,0,0.8,0.1,1.1,0.2s0.5,0.3,0.7,0.5c0.1,0.2,0.2,0.5,0.3,0.8l-0.9,0.1c0-0.3-0.2-0.5-0.3-0.6s-0.5-0.2-0.8-0.2
							c-0.4,0-0.7,0.1-0.9,0.2s-0.3,0.3-0.3,0.5c0,0.1,0,0.2,0.1,0.3c0.1,0.1,0.2,0.2,0.3,0.2c0.1,0,0.3,0.1,0.8,0.2
							c0.6,0.2,1.1,0.3,1.3,0.4c0.2,0.1,0.4,0.3,0.6,0.5s0.2,0.5,0.2,0.8c0,0.3-0.1,0.6-0.3,0.8c-0.2,0.3-0.4,0.5-0.7,0.6
							c-0.3,0.1-0.7,0.2-1.1,0.2c-0.7,0-1.2-0.1-1.5-0.4S-41.6,22.3-41.7,21.7z"/>
						<path d="M-34.4,22.5l0.1,0.8c-0.2,0.1-0.5,0.1-0.7,0.1c-0.3,0-0.6-0.1-0.7-0.2s-0.3-0.2-0.4-0.4c-0.1-0.2-0.1-0.5-0.1-1v-3
							h-0.6v-0.7h0.6v-1.3l0.9-0.5v1.8h0.9v0.7h-0.9v3c0,0.3,0,0.4,0,0.5s0.1,0.1,0.2,0.2s0.2,0.1,0.3,0.1
							C-34.7,22.5-34.6,22.5-34.4,22.5z"/>
						<path d="M-33.6,23.3v-5.2h0.8v0.8c0.2-0.4,0.4-0.6,0.6-0.7s0.4-0.2,0.6-0.2c0.3,0,0.6,0.1,0.9,0.3l-0.3,0.8
							c-0.2-0.1-0.4-0.2-0.6-0.2c-0.2,0-0.4,0.1-0.5,0.2c-0.2,0.1-0.3,0.3-0.3,0.5c-0.1,0.3-0.1,0.7-0.1,1v2.7H-33.6z"/>
						<path d="M-26.9,22.6c-0.3,0.3-0.6,0.5-0.9,0.6s-0.6,0.2-1,0.2c-0.6,0-1-0.1-1.3-0.4c-0.3-0.3-0.5-0.6-0.5-1.1
							c0-0.3,0.1-0.5,0.2-0.7c0.1-0.2,0.3-0.4,0.5-0.5s0.4-0.2,0.6-0.3c0.2,0,0.4-0.1,0.8-0.1c0.7-0.1,1.2-0.2,1.6-0.3
							c0-0.1,0-0.2,0-0.2c0-0.4-0.1-0.6-0.2-0.8c-0.2-0.2-0.6-0.3-1-0.3c-0.4,0-0.7,0.1-0.9,0.2c-0.2,0.1-0.3,0.4-0.4,0.8l-0.9-0.1
							c0.1-0.4,0.2-0.7,0.4-0.9c0.2-0.2,0.4-0.4,0.8-0.5c0.3-0.1,0.7-0.2,1.2-0.2c0.4,0,0.8,0.1,1.1,0.2s0.5,0.2,0.6,0.4
							c0.1,0.2,0.2,0.4,0.3,0.6c0,0.1,0,0.4,0,0.8v1.2c0,0.8,0,1.3,0.1,1.5c0,0.2,0.1,0.4,0.2,0.6h-0.9
							C-26.8,23.1-26.8,22.9-26.9,22.6z M-26.9,20.7c-0.3,0.1-0.8,0.2-1.4,0.3c-0.4,0.1-0.6,0.1-0.8,0.2s-0.3,0.2-0.3,0.3
							c-0.1,0.1-0.1,0.3-0.1,0.4c0,0.2,0.1,0.4,0.3,0.6s0.4,0.2,0.8,0.2c0.3,0,0.6-0.1,0.9-0.2c0.3-0.1,0.5-0.4,0.6-0.6
							c0.1-0.2,0.1-0.5,0.1-0.9V20.7z"/>
						<path d="M-22.8,22.5l0.1,0.8c-0.2,0.1-0.5,0.1-0.7,0.1c-0.3,0-0.6-0.1-0.7-0.2s-0.3-0.2-0.4-0.4c-0.1-0.2-0.1-0.5-0.1-1v-3
							h-0.6v-0.7h0.6v-1.3l0.9-0.5v1.8h0.9v0.7h-0.9v3c0,0.3,0,0.4,0,0.5s0.1,0.1,0.2,0.2s0.2,0.1,0.3,0.1
							C-23.1,22.5-22.9,22.5-22.8,22.5z"/>
						<path d="M-20,22.5l0.1,0.8c-0.2,0.1-0.5,0.1-0.7,0.1c-0.3,0-0.6-0.1-0.7-0.2s-0.3-0.2-0.4-0.4c-0.1-0.2-0.1-0.5-0.1-1v-3h-0.6
							v-0.7h0.6v-1.3l0.9-0.5v1.8h0.9v0.7h-0.9v3c0,0.3,0,0.4,0,0.5s0.1,0.1,0.2,0.2s0.2,0.1,0.3,0.1C-20.3,22.5-20.1,22.5-20,22.5z
							"/>
						<path d="M-15.7,22.6c-0.3,0.3-0.6,0.5-0.9,0.6s-0.6,0.2-1,0.2c-0.6,0-1-0.1-1.3-0.4c-0.3-0.3-0.5-0.6-0.5-1.1
							c0-0.3,0.1-0.5,0.2-0.7c0.1-0.2,0.3-0.4,0.5-0.5s0.4-0.2,0.6-0.3c0.2,0,0.4-0.1,0.8-0.1c0.7-0.1,1.2-0.2,1.6-0.3
							c0-0.1,0-0.2,0-0.2c0-0.4-0.1-0.6-0.2-0.8c-0.2-0.2-0.6-0.3-1-0.3c-0.4,0-0.7,0.1-0.9,0.2c-0.2,0.1-0.3,0.4-0.4,0.8l-0.9-0.1
							c0.1-0.4,0.2-0.7,0.4-0.9c0.2-0.2,0.4-0.4,0.8-0.5c0.3-0.1,0.7-0.2,1.2-0.2c0.4,0,0.8,0.1,1.1,0.2s0.5,0.2,0.6,0.4
							c0.1,0.2,0.2,0.4,0.3,0.6c0,0.1,0,0.4,0,0.8v1.2c0,0.8,0,1.3,0.1,1.5c0,0.2,0.1,0.4,0.2,0.6h-0.9
							C-15.7,23.1-15.7,22.9-15.7,22.6z M-15.8,20.7c-0.3,0.1-0.8,0.2-1.4,0.3c-0.4,0.1-0.6,0.1-0.8,0.2s-0.3,0.2-0.3,0.3
							c-0.1,0.1-0.1,0.3-0.1,0.4c0,0.2,0.1,0.4,0.3,0.6s0.4,0.2,0.8,0.2c0.3,0,0.6-0.1,0.9-0.2c0.3-0.1,0.5-0.4,0.6-0.6
							c0.1-0.2,0.1-0.5,0.1-0.9V20.7z"/>
					</g>
					<path id="Rectangle_179" class="st8" d="M-97.5,15.1h8c2.5,0,4.5,2,4.5,4.5c0,0,0,0,0,0l0,0c0,2.5-2,4.5-4.5,4.5c0,0,0,0,0,0
						h-8c-2.5,0-4.5-2-4.5-4.5c0,0,0,0,0,0l0,0C-102,17.1-100,15.1-97.5,15.1C-97.5,15.1-97.5,15.1-97.5,15.1z"/>
				</g>
			</g>
			<g id="Group_307" transform="translate(-9)">
				<g class="st1">
					<path d="M32,23.3v-7.2h1l3.8,5.6v-5.6h0.9v7.2h-1l-3.8-5.6v5.6H32z"/>
					<path d="M42.6,21.6l0.9,0.1c-0.1,0.5-0.4,0.9-0.8,1.2s-0.9,0.4-1.5,0.4c-0.8,0-1.4-0.2-1.8-0.7c-0.4-0.5-0.7-1.1-0.7-2
						c0-0.9,0.2-1.5,0.7-2s1-0.7,1.7-0.7c0.7,0,1.3,0.2,1.7,0.7s0.7,1.1,0.7,2c0,0.1,0,0.1,0,0.2h-3.9c0,0.6,0.2,1,0.5,1.3
						s0.7,0.5,1.1,0.5c0.3,0,0.6-0.1,0.8-0.3S42.5,22,42.6,21.6z M39.7,20.2h2.9c0-0.4-0.1-0.8-0.3-1c-0.3-0.3-0.6-0.5-1.1-0.5
						c-0.4,0-0.7,0.1-1,0.4S39.8,19.7,39.7,20.2z"/>
					<path d="M45.4,23.3h-0.8v-7.2h0.9v2.6c0.4-0.5,0.8-0.7,1.4-0.7c0.3,0,0.6,0.1,0.9,0.2c0.3,0.1,0.5,0.3,0.7,0.5
						c0.2,0.2,0.3,0.5,0.4,0.8s0.2,0.7,0.2,1.1c0,0.9-0.2,1.6-0.7,2.1s-1,0.7-1.6,0.7c-0.6,0-1.1-0.3-1.4-0.8V23.3z M45.4,20.6
						c0,0.6,0.1,1.1,0.3,1.3c0.3,0.5,0.7,0.7,1.1,0.7c0.4,0,0.7-0.2,1-0.5c0.3-0.3,0.4-0.8,0.4-1.5c0-0.7-0.1-1.2-0.4-1.5
						s-0.6-0.5-1-0.5c-0.4,0-0.7,0.2-1,0.5C45.6,19.5,45.4,20,45.4,20.6z"/>
					<path d="M51,23.3h-0.8v-7.2h0.9v2.6c0.4-0.5,0.8-0.7,1.4-0.7c0.3,0,0.6,0.1,0.9,0.2c0.3,0.1,0.5,0.3,0.7,0.5
						c0.2,0.2,0.3,0.5,0.4,0.8s0.2,0.7,0.2,1.1c0,0.9-0.2,1.6-0.7,2.1s-1,0.7-1.6,0.7c-0.6,0-1.1-0.3-1.4-0.8V23.3z M51,20.6
						c0,0.6,0.1,1.1,0.3,1.3c0.3,0.5,0.7,0.7,1.1,0.7c0.4,0,0.7-0.2,1-0.5c0.3-0.3,0.4-0.8,0.4-1.5c0-0.7-0.1-1.2-0.4-1.5
						s-0.6-0.5-1-0.5c-0.4,0-0.7,0.2-1,0.5C51.1,19.5,51,20,51,20.6z"/>
					<path d="M55.8,17.1v-1h0.9v1H55.8z M55.8,23.3v-5.2h0.9v5.2H55.8z"/>
					<path d="M61.4,22.6c-0.3,0.3-0.6,0.5-0.9,0.6s-0.6,0.2-1,0.2c-0.6,0-1-0.1-1.3-0.4c-0.3-0.3-0.5-0.6-0.5-1.1
						c0-0.3,0.1-0.5,0.2-0.7c0.1-0.2,0.3-0.4,0.5-0.5s0.4-0.2,0.6-0.3c0.2,0,0.4-0.1,0.8-0.1c0.7-0.1,1.2-0.2,1.6-0.3
						c0-0.1,0-0.2,0-0.2c0-0.4-0.1-0.6-0.2-0.8c-0.2-0.2-0.6-0.3-1-0.3c-0.4,0-0.7,0.1-0.9,0.2c-0.2,0.1-0.3,0.4-0.4,0.8l-0.9-0.1
						c0.1-0.4,0.2-0.7,0.4-0.9c0.2-0.2,0.4-0.4,0.8-0.5c0.3-0.1,0.7-0.2,1.2-0.2c0.4,0,0.8,0.1,1.1,0.2s0.5,0.2,0.6,0.4
						c0.1,0.2,0.2,0.4,0.3,0.6c0,0.1,0,0.4,0,0.8v1.2c0,0.8,0,1.3,0.1,1.5c0,0.2,0.1,0.4,0.2,0.6h-0.9
						C61.4,23.1,61.4,22.9,61.4,22.6z M61.3,20.7c-0.3,0.1-0.8,0.2-1.4,0.3c-0.4,0.1-0.6,0.1-0.8,0.2s-0.3,0.2-0.3,0.3
						c-0.1,0.1-0.1,0.3-0.1,0.4c0,0.2,0.1,0.4,0.3,0.6s0.4,0.2,0.8,0.2c0.3,0,0.6-0.1,0.9-0.2c0.3-0.1,0.5-0.4,0.6-0.6
						c0.1-0.2,0.1-0.5,0.1-0.9V20.7z"/>
					<path d="M69.7,21.4l0.9,0.1c-0.1,0.6-0.3,1.1-0.7,1.4c-0.4,0.3-0.9,0.5-1.4,0.5c-0.7,0-1.3-0.2-1.7-0.7c-0.4-0.5-0.6-1.1-0.6-2
						c0-0.6,0.1-1,0.3-1.5s0.5-0.7,0.8-0.9c0.4-0.2,0.8-0.3,1.2-0.3c0.6,0,1,0.1,1.4,0.4c0.4,0.3,0.6,0.7,0.7,1.2l-0.9,0.1
						c-0.1-0.3-0.2-0.6-0.4-0.8s-0.5-0.3-0.7-0.3c-0.4,0-0.8,0.2-1.1,0.5C67.1,19.5,67,20,67,20.7c0,0.7,0.1,1.2,0.4,1.5
						s0.6,0.5,1,0.5c0.3,0,0.6-0.1,0.9-0.3S69.6,21.8,69.7,21.4z"/>
					<path d="M71,20.7c0-1,0.3-1.7,0.8-2.1c0.4-0.4,1-0.6,1.6-0.6c0.7,0,1.3,0.2,1.7,0.7c0.5,0.5,0.7,1.1,0.7,1.9
						c0,0.7-0.1,1.2-0.3,1.6c-0.2,0.4-0.5,0.7-0.9,0.9s-0.8,0.3-1.3,0.3c-0.7,0-1.3-0.2-1.8-0.7S71,21.6,71,20.7z M71.9,20.7
						c0,0.7,0.1,1.2,0.4,1.5c0.3,0.3,0.7,0.5,1.1,0.5c0.4,0,0.8-0.2,1.1-0.5s0.4-0.8,0.4-1.5c0-0.6-0.1-1.1-0.4-1.5
						c-0.3-0.3-0.7-0.5-1.1-0.5c-0.4,0-0.8,0.2-1.1,0.5S71.9,20,71.9,20.7z"/>
					<path d="M76.9,23.3v-5.2h0.8v0.7c0.4-0.6,0.9-0.9,1.7-0.9c0.3,0,0.6,0.1,0.9,0.2c0.3,0.1,0.5,0.3,0.6,0.4S81,19,81,19.2
						c0,0.2,0,0.4,0,0.9v3.2h-0.9v-3.2c0-0.4,0-0.6-0.1-0.8c-0.1-0.2-0.2-0.3-0.4-0.4c-0.2-0.1-0.4-0.2-0.6-0.2
						c-0.4,0-0.7,0.1-1,0.4s-0.4,0.7-0.4,1.4v2.8H76.9z"/>
					<path d="M85.8,21.4l0.9,0.1c-0.1,0.6-0.3,1.1-0.7,1.4c-0.4,0.3-0.9,0.5-1.4,0.5c-0.7,0-1.3-0.2-1.7-0.7c-0.4-0.5-0.6-1.1-0.6-2
						c0-0.6,0.1-1,0.3-1.5s0.5-0.7,0.8-0.9c0.4-0.2,0.8-0.3,1.2-0.3c0.6,0,1,0.1,1.4,0.4c0.4,0.3,0.6,0.7,0.7,1.2l-0.9,0.1
						c-0.1-0.3-0.2-0.6-0.4-0.8s-0.5-0.3-0.7-0.3c-0.4,0-0.8,0.2-1.1,0.5c-0.3,0.3-0.4,0.8-0.4,1.5c0,0.7,0.1,1.2,0.4,1.5
						s0.6,0.5,1,0.5c0.3,0,0.6-0.1,0.9-0.3S85.8,21.8,85.8,21.4z"/>
					<path d="M87.4,23.3v-5.2h0.8v0.8c0.2-0.4,0.4-0.6,0.6-0.7s0.4-0.2,0.6-0.2c0.3,0,0.6,0.1,0.9,0.3l-0.3,0.8
						c-0.2-0.1-0.4-0.2-0.6-0.2c-0.2,0-0.4,0.1-0.5,0.2c-0.2,0.1-0.3,0.3-0.3,0.5c-0.1,0.3-0.1,0.7-0.1,1v2.7H87.4z"/>
					<path d="M94.3,21.6l0.9,0.1c-0.1,0.5-0.4,0.9-0.8,1.2s-0.9,0.4-1.5,0.4c-0.8,0-1.4-0.2-1.8-0.7c-0.4-0.5-0.7-1.1-0.7-2
						c0-0.9,0.2-1.5,0.7-2s1-0.7,1.7-0.7c0.7,0,1.3,0.2,1.7,0.7s0.7,1.1,0.7,2c0,0.1,0,0.1,0,0.2h-3.9c0,0.6,0.2,1,0.5,1.3
						s0.7,0.5,1.1,0.5c0.3,0,0.6-0.1,0.8-0.3S94.2,22,94.3,21.6z M91.4,20.2h2.9c0-0.4-0.1-0.8-0.3-1c-0.3-0.3-0.6-0.5-1.1-0.5
						c-0.4,0-0.7,0.1-1,0.4S91.5,19.7,91.4,20.2z"/>
					<path d="M98.2,22.5l0.1,0.8c-0.2,0.1-0.5,0.1-0.7,0.1c-0.3,0-0.6-0.1-0.7-0.2s-0.3-0.2-0.4-0.4c-0.1-0.2-0.1-0.5-0.1-1v-3h-0.6
						v-0.7h0.6v-1.3l0.9-0.5v1.8h0.9v0.7h-0.9v3c0,0.3,0,0.4,0,0.5s0.1,0.1,0.2,0.2s0.2,0.1,0.3,0.1C98,22.5,98.1,22.5,98.2,22.5z"
						/>
					<path d="M102.5,22.6c-0.3,0.3-0.6,0.5-0.9,0.6s-0.6,0.2-1,0.2c-0.6,0-1-0.1-1.3-0.4c-0.3-0.3-0.5-0.6-0.5-1.1
						c0-0.3,0.1-0.5,0.2-0.7c0.1-0.2,0.3-0.4,0.5-0.5s0.4-0.2,0.6-0.3c0.2,0,0.4-0.1,0.8-0.1c0.7-0.1,1.2-0.2,1.6-0.3
						c0-0.1,0-0.2,0-0.2c0-0.4-0.1-0.6-0.2-0.8c-0.2-0.2-0.6-0.3-1-0.3c-0.4,0-0.7,0.1-0.9,0.2c-0.2,0.1-0.3,0.4-0.4,0.8L99,19.6
						c0.1-0.4,0.2-0.7,0.4-0.9c0.2-0.2,0.4-0.4,0.8-0.5c0.3-0.1,0.7-0.2,1.2-0.2c0.4,0,0.8,0.1,1.1,0.2s0.5,0.2,0.6,0.4
						c0.1,0.2,0.2,0.4,0.3,0.6c0,0.1,0,0.4,0,0.8v1.2c0,0.8,0,1.3,0.1,1.5c0,0.2,0.1,0.4,0.2,0.6h-0.9
						C102.6,23.1,102.5,22.9,102.5,22.6z M102.4,20.7c-0.3,0.1-0.8,0.2-1.4,0.3c-0.4,0.1-0.6,0.1-0.8,0.2s-0.3,0.2-0.3,0.3
						c-0.1,0.1-0.1,0.3-0.1,0.4c0,0.2,0.1,0.4,0.3,0.6s0.4,0.2,0.8,0.2c0.3,0,0.6-0.1,0.9-0.2c0.3-0.1,0.5-0.4,0.6-0.6
						c0.1-0.2,0.1-0.5,0.1-0.9V20.7z"/>
				</g>
				<path id="Rectangle_180" class="st9" d="M15.7,15.1h8c2.5,0,4.5,2,4.5,4.5c0,0,0,0,0,0l0,0c0,2.5-2,4.5-4.5,4.5c0,0,0,0,0,0h-8
					c-2.5,0-4.5-2-4.5-4.5c0,0,0,0,0,0l0,0C11.2,17.1,13.2,15.1,15.7,15.1C15.7,15.1,15.7,15.1,15.7,15.1z"/>
			</g>
			<g id="Group_308" transform="translate(-18)">
				<g class="st1">
					<path d="M157.5,20.8l0.9,0.2c-0.2,0.8-0.6,1.4-1.1,1.8c-0.5,0.4-1.1,0.6-1.9,0.6c-0.8,0-1.4-0.2-1.9-0.5
						c-0.5-0.3-0.9-0.8-1.1-1.4s-0.4-1.2-0.4-1.9c0-0.7,0.1-1.4,0.4-2c0.3-0.6,0.7-1,1.2-1.3c0.5-0.3,1.1-0.4,1.7-0.4
						c0.7,0,1.3,0.2,1.8,0.5s0.8,0.9,1,1.5l-0.9,0.2c-0.2-0.5-0.4-0.9-0.7-1.1s-0.7-0.4-1.2-0.4c-0.6,0-1,0.1-1.4,0.4
						s-0.6,0.6-0.8,1.1c-0.1,0.4-0.2,0.9-0.2,1.4c0,0.6,0.1,1.1,0.3,1.6c0.2,0.5,0.5,0.8,0.8,1s0.8,0.3,1.2,0.3c0.5,0,1-0.2,1.3-0.5
						S157.4,21.4,157.5,20.8z"/>
					<path d="M162.9,22.6c-0.3,0.3-0.6,0.5-0.9,0.6s-0.6,0.2-1,0.2c-0.6,0-1-0.1-1.3-0.4c-0.3-0.3-0.5-0.6-0.5-1.1
						c0-0.3,0.1-0.5,0.2-0.7c0.1-0.2,0.3-0.4,0.5-0.5s0.4-0.2,0.6-0.3c0.2,0,0.4-0.1,0.8-0.1c0.7-0.1,1.2-0.2,1.6-0.3
						c0-0.1,0-0.2,0-0.2c0-0.4-0.1-0.6-0.2-0.8c-0.2-0.2-0.6-0.3-1-0.3c-0.4,0-0.7,0.1-0.9,0.2c-0.2,0.1-0.3,0.4-0.4,0.8l-0.9-0.1
						c0.1-0.4,0.2-0.7,0.4-0.9c0.2-0.2,0.4-0.4,0.8-0.5c0.3-0.1,0.7-0.2,1.2-0.2c0.4,0,0.8,0.1,1.1,0.2s0.5,0.2,0.6,0.4
						c0.1,0.2,0.2,0.4,0.3,0.6c0,0.1,0,0.4,0,0.8v1.2c0,0.8,0,1.3,0.1,1.5c0,0.2,0.1,0.4,0.2,0.6h-0.9
						C163,23.1,162.9,22.9,162.9,22.6z M162.8,20.7c-0.3,0.1-0.8,0.2-1.4,0.3c-0.4,0.1-0.6,0.1-0.8,0.2s-0.3,0.2-0.3,0.3
						c-0.1,0.1-0.1,0.3-0.1,0.4c0,0.2,0.1,0.4,0.3,0.6s0.4,0.2,0.8,0.2c0.3,0,0.6-0.1,0.9-0.2c0.3-0.1,0.5-0.4,0.6-0.6
						c0.1-0.2,0.1-0.5,0.1-0.9V20.7z"/>
					<path d="M165.1,23.3v-5.2h0.8v0.7c0.4-0.6,0.9-0.9,1.7-0.9c0.3,0,0.6,0.1,0.9,0.2c0.3,0.1,0.5,0.3,0.6,0.4s0.2,0.4,0.3,0.6
						c0,0.2,0,0.4,0,0.9v3.2h-0.9v-3.2c0-0.4,0-0.6-0.1-0.8c-0.1-0.2-0.2-0.3-0.4-0.4c-0.2-0.1-0.4-0.2-0.6-0.2
						c-0.4,0-0.7,0.1-1,0.4s-0.4,0.7-0.4,1.4v2.8H165.1z"/>
					<path d="M174,21.4l0.9,0.1c-0.1,0.6-0.3,1.1-0.7,1.4c-0.4,0.3-0.9,0.5-1.4,0.5c-0.7,0-1.3-0.2-1.7-0.7c-0.4-0.5-0.6-1.1-0.6-2
						c0-0.6,0.1-1,0.3-1.5s0.5-0.7,0.8-0.9c0.4-0.2,0.8-0.3,1.2-0.3c0.6,0,1,0.1,1.4,0.4c0.4,0.3,0.6,0.7,0.7,1.2l-0.9,0.1
						c-0.1-0.3-0.2-0.6-0.4-0.8s-0.5-0.3-0.7-0.3c-0.4,0-0.8,0.2-1.1,0.5c-0.3,0.3-0.4,0.8-0.4,1.5c0,0.7,0.1,1.2,0.4,1.5
						s0.6,0.5,1,0.5c0.3,0,0.6-0.1,0.9-0.3S174,21.8,174,21.4z"/>
					<path d="M179.2,21.6l0.9,0.1c-0.1,0.5-0.4,0.9-0.8,1.2s-0.9,0.4-1.5,0.4c-0.8,0-1.4-0.2-1.8-0.7c-0.4-0.5-0.7-1.1-0.7-2
						c0-0.9,0.2-1.5,0.7-2s1-0.7,1.7-0.7c0.7,0,1.3,0.2,1.7,0.7s0.7,1.1,0.7,2c0,0.1,0,0.1,0,0.2h-3.9c0,0.6,0.2,1,0.5,1.3
						s0.7,0.5,1.1,0.5c0.3,0,0.6-0.1,0.8-0.3S179,22,179.2,21.6z M176.3,20.2h2.9c0-0.4-0.1-0.8-0.3-1c-0.3-0.3-0.6-0.5-1.1-0.5
						c-0.4,0-0.7,0.1-1,0.4S176.3,19.7,176.3,20.2z"/>
					<path d="M181.2,23.3v-7.2h0.9v7.2H181.2z"/>
					<path d="M183.4,23.3v-7.2h0.9v7.2H183.4z"/>
					<path d="M189,22.6c-0.3,0.3-0.6,0.5-0.9,0.6s-0.6,0.2-1,0.2c-0.6,0-1-0.1-1.3-0.4c-0.3-0.3-0.5-0.6-0.5-1.1
						c0-0.3,0.1-0.5,0.2-0.7c0.1-0.2,0.3-0.4,0.5-0.5s0.4-0.2,0.6-0.3c0.2,0,0.4-0.1,0.8-0.1c0.7-0.1,1.2-0.2,1.6-0.3
						c0-0.1,0-0.2,0-0.2c0-0.4-0.1-0.6-0.2-0.8c-0.2-0.2-0.6-0.3-1-0.3c-0.4,0-0.7,0.1-0.9,0.2c-0.2,0.1-0.3,0.4-0.4,0.8l-0.9-0.1
						c0.1-0.4,0.2-0.7,0.4-0.9c0.2-0.2,0.4-0.4,0.8-0.5c0.3-0.1,0.7-0.2,1.2-0.2c0.4,0,0.8,0.1,1.1,0.2s0.5,0.2,0.6,0.4
						c0.1,0.2,0.2,0.4,0.3,0.6c0,0.1,0,0.4,0,0.8v1.2c0,0.8,0,1.3,0.1,1.5c0,0.2,0.1,0.4,0.2,0.6h-0.9C189.1,23.1,189,22.9,189,22.6
						z M188.9,20.7c-0.3,0.1-0.8,0.2-1.4,0.3c-0.4,0.1-0.6,0.1-0.8,0.2s-0.3,0.2-0.3,0.3c-0.1,0.1-0.1,0.3-0.1,0.4
						c0,0.2,0.1,0.4,0.3,0.6s0.4,0.2,0.8,0.2c0.3,0,0.6-0.1,0.9-0.2c0.3-0.1,0.5-0.4,0.6-0.6c0.1-0.2,0.1-0.5,0.1-0.9V20.7z"/>
					<path d="M190.7,23.3v-0.7l3.3-3.8c-0.4,0-0.7,0-1,0h-2.1v-0.7h4.2v0.6l-2.8,3.3l-0.5,0.6c0.4,0,0.8,0,1.1,0h2.4v0.8H190.7z"/>
					<path d="M196.2,17.1v-1h0.9v1H196.2z M196.2,23.3v-5.2h0.9v5.2H196.2z"/>
					<path d="M198.1,20.7c0-1,0.3-1.7,0.8-2.1c0.4-0.4,1-0.6,1.6-0.6c0.7,0,1.3,0.2,1.7,0.7c0.5,0.5,0.7,1.1,0.7,1.9
						c0,0.7-0.1,1.2-0.3,1.6c-0.2,0.4-0.5,0.7-0.9,0.9s-0.8,0.3-1.3,0.3c-0.7,0-1.3-0.2-1.8-0.7S198.1,21.6,198.1,20.7z M199,20.7
						c0,0.7,0.1,1.2,0.4,1.5c0.3,0.3,0.7,0.5,1.1,0.5c0.4,0,0.8-0.2,1.1-0.5s0.4-0.8,0.4-1.5c0-0.6-0.1-1.1-0.4-1.5
						c-0.3-0.3-0.7-0.5-1.1-0.5c-0.4,0-0.8,0.2-1.1,0.5S199,20,199,20.7z"/>
					<path d="M204,23.3v-5.2h0.8v0.7c0.4-0.6,0.9-0.9,1.7-0.9c0.3,0,0.6,0.1,0.9,0.2c0.3,0.1,0.5,0.3,0.6,0.4s0.2,0.4,0.3,0.6
						c0,0.2,0,0.4,0,0.9v3.2h-0.9v-3.2c0-0.4,0-0.6-0.1-0.8c-0.1-0.2-0.2-0.3-0.4-0.4c-0.2-0.1-0.4-0.2-0.6-0.2
						c-0.4,0-0.7,0.1-1,0.4s-0.4,0.7-0.4,1.4v2.8H204z"/>
					<path d="M213.1,21.6l0.9,0.1c-0.1,0.5-0.4,0.9-0.8,1.2s-0.9,0.4-1.5,0.4c-0.8,0-1.4-0.2-1.8-0.7c-0.4-0.5-0.7-1.1-0.7-2
						c0-0.9,0.2-1.5,0.7-2s1-0.7,1.7-0.7c0.7,0,1.3,0.2,1.7,0.7s0.7,1.1,0.7,2c0,0.1,0,0.1,0,0.2h-3.9c0,0.6,0.2,1,0.5,1.3
						s0.7,0.5,1.1,0.5c0.3,0,0.6-0.1,0.8-0.3S213,22,213.1,21.6z M210.2,20.2h2.9c0-0.4-0.1-0.8-0.3-1c-0.3-0.3-0.6-0.5-1.1-0.5
						c-0.4,0-0.7,0.1-1,0.4S210.2,19.7,210.2,20.2z"/>
					<path d="M221.3,22.6c-0.3,0.3-0.6,0.5-0.9,0.6s-0.6,0.2-1,0.2c-0.6,0-1-0.1-1.3-0.4c-0.3-0.3-0.5-0.6-0.5-1.1
						c0-0.3,0.1-0.5,0.2-0.7c0.1-0.2,0.3-0.4,0.5-0.5s0.4-0.2,0.6-0.3c0.2,0,0.4-0.1,0.8-0.1c0.7-0.1,1.2-0.2,1.6-0.3
						c0-0.1,0-0.2,0-0.2c0-0.4-0.1-0.6-0.2-0.8c-0.2-0.2-0.6-0.3-1-0.3c-0.4,0-0.7,0.1-0.9,0.2c-0.2,0.1-0.3,0.4-0.4,0.8l-0.9-0.1
						c0.1-0.4,0.2-0.7,0.4-0.9c0.2-0.2,0.4-0.4,0.8-0.5c0.3-0.1,0.7-0.2,1.2-0.2c0.4,0,0.8,0.1,1.1,0.2s0.5,0.2,0.6,0.4
						c0.1,0.2,0.2,0.4,0.3,0.6c0,0.1,0,0.4,0,0.8v1.2c0,0.8,0,1.3,0.1,1.5c0,0.2,0.1,0.4,0.2,0.6h-0.9
						C221.3,23.1,221.3,22.9,221.3,22.6z M221.2,20.7c-0.3,0.1-0.8,0.2-1.4,0.3c-0.4,0.1-0.6,0.1-0.8,0.2s-0.3,0.2-0.3,0.3
						c-0.1,0.1-0.1,0.3-0.1,0.4c0,0.2,0.1,0.4,0.3,0.6s0.4,0.2,0.8,0.2c0.3,0,0.6-0.1,0.9-0.2c0.3-0.1,0.5-0.4,0.6-0.6
						c0.1-0.2,0.1-0.5,0.1-0.9V20.7z"/>
					<path d="M223.1,21.7l0.9-0.1c0,0.3,0.2,0.6,0.4,0.8s0.5,0.3,0.9,0.3c0.4,0,0.7-0.1,0.9-0.2c0.2-0.2,0.3-0.4,0.3-0.6
						c0-0.2-0.1-0.4-0.3-0.5c-0.1-0.1-0.4-0.2-0.9-0.3c-0.6-0.2-1.1-0.3-1.3-0.4c-0.2-0.1-0.4-0.3-0.6-0.5c-0.1-0.2-0.2-0.4-0.2-0.7
						c0-0.2,0.1-0.4,0.2-0.6c0.1-0.2,0.2-0.4,0.4-0.5c0.1-0.1,0.3-0.2,0.6-0.3c0.2-0.1,0.5-0.1,0.8-0.1c0.4,0,0.8,0.1,1.1,0.2
						s0.5,0.3,0.7,0.5c0.1,0.2,0.2,0.5,0.3,0.8l-0.9,0.1c0-0.3-0.2-0.5-0.3-0.6s-0.5-0.2-0.8-0.2c-0.4,0-0.7,0.1-0.9,0.2
						s-0.3,0.3-0.3,0.5c0,0.1,0,0.2,0.1,0.3c0.1,0.1,0.2,0.2,0.3,0.2c0.1,0,0.3,0.1,0.8,0.2c0.6,0.2,1.1,0.3,1.3,0.4
						c0.2,0.1,0.4,0.3,0.6,0.5s0.2,0.5,0.2,0.8c0,0.3-0.1,0.6-0.3,0.8c-0.2,0.3-0.4,0.5-0.7,0.6c-0.3,0.1-0.7,0.2-1.1,0.2
						c-0.7,0-1.2-0.1-1.5-0.4S223.2,22.3,223.1,21.7z"/>
					<path d="M230.4,22.5l0.1,0.8c-0.2,0.1-0.5,0.1-0.7,0.1c-0.3,0-0.6-0.1-0.7-0.2s-0.3-0.2-0.4-0.4c-0.1-0.2-0.1-0.5-0.1-1v-3H228
						v-0.7h0.6v-1.3l0.9-0.5v1.8h0.9v0.7h-0.9v3c0,0.3,0,0.4,0,0.5s0.1,0.1,0.2,0.2s0.2,0.1,0.3,0.1
						C230.1,22.5,230.2,22.5,230.4,22.5z"/>
					<path d="M231.2,23.3v-5.2h0.8v0.8c0.2-0.4,0.4-0.6,0.6-0.7s0.4-0.2,0.6-0.2c0.3,0,0.6,0.1,0.9,0.3l-0.3,0.8
						c-0.2-0.1-0.4-0.2-0.6-0.2c-0.2,0-0.4,0.1-0.5,0.2c-0.2,0.1-0.3,0.3-0.3,0.5c-0.1,0.3-0.1,0.7-0.1,1v2.7H231.2z"/>
					<path d="M237.9,22.6c-0.3,0.3-0.6,0.5-0.9,0.6s-0.6,0.2-1,0.2c-0.6,0-1-0.1-1.3-0.4c-0.3-0.3-0.5-0.6-0.5-1.1
						c0-0.3,0.1-0.5,0.2-0.7c0.1-0.2,0.3-0.4,0.5-0.5s0.4-0.2,0.6-0.3c0.2,0,0.4-0.1,0.8-0.1c0.7-0.1,1.2-0.2,1.6-0.3
						c0-0.1,0-0.2,0-0.2c0-0.4-0.1-0.6-0.2-0.8c-0.2-0.2-0.6-0.3-1-0.3c-0.4,0-0.7,0.1-0.9,0.2c-0.2,0.1-0.3,0.4-0.4,0.8l-0.9-0.1
						c0.1-0.4,0.2-0.7,0.4-0.9c0.2-0.2,0.4-0.4,0.8-0.5c0.3-0.1,0.7-0.2,1.2-0.2c0.4,0,0.8,0.1,1.1,0.2s0.5,0.2,0.6,0.4
						c0.1,0.2,0.2,0.4,0.3,0.6c0,0.1,0,0.4,0,0.8v1.2c0,0.8,0,1.3,0.1,1.5c0,0.2,0.1,0.4,0.2,0.6h-0.9C238,23.1,238,22.9,237.9,22.6
						z M237.9,20.7c-0.3,0.1-0.8,0.2-1.4,0.3c-0.4,0.1-0.6,0.1-0.8,0.2s-0.3,0.2-0.3,0.3c-0.1,0.1-0.1,0.3-0.1,0.4
						c0,0.2,0.1,0.4,0.3,0.6s0.4,0.2,0.8,0.2c0.3,0,0.6-0.1,0.9-0.2c0.3-0.1,0.5-0.4,0.6-0.6c0.1-0.2,0.1-0.5,0.1-0.9V20.7z"/>
					<path d="M242,22.5l0.1,0.8c-0.2,0.1-0.5,0.1-0.7,0.1c-0.3,0-0.6-0.1-0.7-0.2s-0.3-0.2-0.4-0.4c-0.1-0.2-0.1-0.5-0.1-1v-3h-0.6
						v-0.7h0.6v-1.3l0.9-0.5v1.8h0.9v0.7h-0.9v3c0,0.3,0,0.4,0,0.5s0.1,0.1,0.2,0.2s0.2,0.1,0.3,0.1C241.7,22.5,241.9,22.5,242,22.5
						z"/>
					<path d="M244.8,22.5l0.1,0.8c-0.2,0.1-0.5,0.1-0.7,0.1c-0.3,0-0.6-0.1-0.7-0.2s-0.3-0.2-0.4-0.4c-0.1-0.2-0.1-0.5-0.1-1v-3
						h-0.6v-0.7h0.6v-1.3l0.9-0.5v1.8h0.9v0.7h-0.9v3c0,0.3,0,0.4,0,0.5s0.1,0.1,0.2,0.2s0.2,0.1,0.3,0.1
						C244.5,22.5,244.6,22.5,244.8,22.5z"/>
					<path d="M249.1,22.6c-0.3,0.3-0.6,0.5-0.9,0.6s-0.6,0.2-1,0.2c-0.6,0-1-0.1-1.3-0.4c-0.3-0.3-0.5-0.6-0.5-1.1
						c0-0.3,0.1-0.5,0.2-0.7c0.1-0.2,0.3-0.4,0.5-0.5s0.4-0.2,0.6-0.3c0.2,0,0.4-0.1,0.8-0.1c0.7-0.1,1.2-0.2,1.6-0.3
						c0-0.1,0-0.2,0-0.2c0-0.4-0.1-0.6-0.2-0.8c-0.2-0.2-0.6-0.3-1-0.3c-0.4,0-0.7,0.1-0.9,0.2c-0.2,0.1-0.3,0.4-0.4,0.8l-0.9-0.1
						c0.1-0.4,0.2-0.7,0.4-0.9c0.2-0.2,0.4-0.4,0.8-0.5c0.3-0.1,0.7-0.2,1.2-0.2c0.4,0,0.8,0.1,1.1,0.2s0.5,0.2,0.6,0.4
						c0.1,0.2,0.2,0.4,0.3,0.6c0,0.1,0,0.4,0,0.8v1.2c0,0.8,0,1.3,0.1,1.5c0,0.2,0.1,0.4,0.2,0.6h-0.9
						C249.1,23.1,249.1,22.9,249.1,22.6z M249,20.7c-0.3,0.1-0.8,0.2-1.4,0.3c-0.4,0.1-0.6,0.1-0.8,0.2s-0.3,0.2-0.3,0.3
						c-0.1,0.1-0.1,0.3-0.1,0.4c0,0.2,0.1,0.4,0.3,0.6s0.4,0.2,0.8,0.2c0.3,0,0.6-0.1,0.9-0.2c0.3-0.1,0.5-0.4,0.6-0.6
						c0.1-0.2,0.1-0.5,0.1-0.9V20.7z"/>
				</g>
				<path id="Rectangle_181" class="st10" d="M135.7,15.1h8c2.5,0,4.5,2,4.5,4.5c0,0,0,0,0,0l0,0c0,2.5-2,4.5-4.5,4.5c0,0,0,0,0,0
					h-8c-2.5,0-4.5-2-4.5-4.5c0,0,0,0,0,0l0,0C131.2,17.1,133.2,15.1,135.7,15.1C135.7,15.1,135.7,15.1,135.7,15.1z"/>
			</g>
			<g id="Group_309" transform="translate(-27)">
				<g class="st1">
					<path d="M306.3,20.8l0.9,0.2c-0.2,0.8-0.6,1.4-1.1,1.8c-0.5,0.4-1.1,0.6-1.9,0.6c-0.8,0-1.4-0.2-1.9-0.5
						c-0.5-0.3-0.9-0.8-1.1-1.4c-0.3-0.6-0.4-1.2-0.4-1.9c0-0.7,0.1-1.4,0.4-2c0.3-0.6,0.7-1,1.2-1.3c0.5-0.3,1.1-0.4,1.7-0.4
						c0.7,0,1.3,0.2,1.8,0.5s0.8,0.9,1,1.5l-0.9,0.2c-0.2-0.5-0.4-0.9-0.7-1.1c-0.3-0.2-0.7-0.4-1.2-0.4c-0.5,0-1,0.1-1.4,0.4
						c-0.4,0.3-0.6,0.6-0.8,1.1c-0.1,0.4-0.2,0.9-0.2,1.4c0,0.6,0.1,1.1,0.3,1.6c0.2,0.5,0.5,0.8,0.8,1c0.4,0.2,0.8,0.3,1.2,0.3
						c0.5,0,1-0.2,1.3-0.5C305.9,21.8,306.2,21.4,306.3,20.8z"/>
					<path d="M311.7,22.6c-0.3,0.3-0.6,0.5-0.9,0.6c-0.3,0.1-0.6,0.2-1,0.2c-0.6,0-1-0.1-1.3-0.4c-0.3-0.3-0.5-0.6-0.5-1.1
						c0-0.3,0.1-0.5,0.2-0.7c0.1-0.2,0.3-0.4,0.5-0.5c0.2-0.1,0.4-0.2,0.6-0.3c0.2,0,0.4-0.1,0.8-0.1c0.7-0.1,1.2-0.2,1.6-0.3
						c0-0.1,0-0.2,0-0.2c0-0.4-0.1-0.6-0.2-0.8c-0.2-0.2-0.6-0.3-1-0.3c-0.4,0-0.7,0.1-0.9,0.2c-0.2,0.1-0.3,0.4-0.4,0.8l-0.9-0.1
						c0.1-0.4,0.2-0.7,0.4-0.9c0.2-0.2,0.4-0.4,0.8-0.5c0.3-0.1,0.7-0.2,1.2-0.2c0.4,0,0.8,0.1,1.1,0.2c0.3,0.1,0.5,0.2,0.6,0.4
						c0.1,0.2,0.2,0.4,0.3,0.6c0,0.1,0,0.4,0,0.8v1.2c0,0.8,0,1.3,0.1,1.5c0,0.2,0.1,0.4,0.2,0.6h-0.9
						C311.8,23.1,311.7,22.9,311.7,22.6z M311.6,20.7c-0.3,0.1-0.8,0.2-1.4,0.3c-0.4,0.1-0.6,0.1-0.8,0.2c-0.1,0.1-0.3,0.2-0.3,0.3
						c-0.1,0.1-0.1,0.3-0.1,0.4c0,0.2,0.1,0.4,0.3,0.6c0.2,0.2,0.4,0.2,0.8,0.2c0.3,0,0.6-0.1,0.9-0.2c0.3-0.1,0.5-0.4,0.6-0.6
						c0.1-0.2,0.1-0.5,0.1-0.9V20.7z"/>
					<path d="M313.9,23.3v-5.2h0.8v0.7c0.4-0.6,0.9-0.9,1.7-0.9c0.3,0,0.6,0.1,0.9,0.2c0.3,0.1,0.5,0.3,0.6,0.4
						c0.1,0.2,0.2,0.4,0.3,0.6c0,0.2,0,0.4,0,0.9v3.2h-0.9v-3.2c0-0.4,0-0.6-0.1-0.8c-0.1-0.2-0.2-0.3-0.4-0.4
						c-0.2-0.1-0.4-0.2-0.6-0.2c-0.4,0-0.7,0.1-1,0.4c-0.3,0.2-0.4,0.7-0.4,1.4v2.8H313.9z"/>
					<path d="M322.8,21.4l0.9,0.1c-0.1,0.6-0.3,1.1-0.7,1.4c-0.4,0.3-0.9,0.5-1.4,0.5c-0.7,0-1.3-0.2-1.7-0.7
						c-0.4-0.5-0.6-1.1-0.6-2c0-0.6,0.1-1,0.3-1.5s0.5-0.7,0.8-0.9c0.4-0.2,0.8-0.3,1.2-0.3c0.6,0,1,0.1,1.4,0.4
						c0.4,0.3,0.6,0.7,0.7,1.2l-0.9,0.1c-0.1-0.3-0.2-0.6-0.4-0.8c-0.2-0.2-0.5-0.3-0.8-0.3c-0.4,0-0.8,0.2-1.1,0.5
						c-0.3,0.3-0.4,0.8-0.4,1.5c0,0.7,0.1,1.2,0.4,1.5c0.3,0.3,0.6,0.5,1,0.5c0.3,0,0.6-0.1,0.9-0.3
						C322.6,22.1,322.7,21.8,322.8,21.4z"/>
					<path d="M328,21.6l0.9,0.1c-0.1,0.5-0.4,0.9-0.8,1.2c-0.4,0.3-0.9,0.4-1.5,0.4c-0.8,0-1.4-0.2-1.8-0.7c-0.4-0.5-0.7-1.1-0.7-2
						c0-0.9,0.2-1.5,0.7-2s1-0.7,1.7-0.7c0.7,0,1.3,0.2,1.7,0.7s0.7,1.1,0.7,2c0,0.1,0,0.1,0,0.2H325c0,0.6,0.2,1,0.5,1.3
						c0.3,0.3,0.7,0.5,1.1,0.5c0.3,0,0.6-0.1,0.8-0.3C327.7,22.2,327.8,22,328,21.6z M325.1,20.2h2.9c0-0.4-0.1-0.8-0.3-1
						c-0.3-0.3-0.6-0.5-1.1-0.5c-0.4,0-0.7,0.1-1,0.4C325.3,19.4,325.1,19.7,325.1,20.2z"/>
					<path d="M330,23.3v-7.2h0.9v7.2H330z"/>
					<path d="M332.2,23.3v-7.2h0.9v7.2H332.2z"/>
					<path d="M337.8,22.6c-0.3,0.3-0.6,0.5-0.9,0.6c-0.3,0.1-0.6,0.2-1,0.2c-0.6,0-1-0.1-1.3-0.4c-0.3-0.3-0.5-0.6-0.5-1.1
						c0-0.3,0.1-0.5,0.2-0.7c0.1-0.2,0.3-0.4,0.5-0.5c0.2-0.1,0.4-0.2,0.6-0.3c0.2,0,0.4-0.1,0.8-0.1c0.7-0.1,1.2-0.2,1.6-0.3
						c0-0.1,0-0.2,0-0.2c0-0.4-0.1-0.6-0.2-0.8c-0.2-0.2-0.6-0.3-1-0.3c-0.4,0-0.7,0.1-0.9,0.2c-0.2,0.1-0.3,0.4-0.4,0.8l-0.9-0.1
						c0.1-0.4,0.2-0.7,0.4-0.9c0.2-0.2,0.4-0.4,0.8-0.5c0.3-0.1,0.7-0.2,1.2-0.2c0.4,0,0.8,0.1,1.1,0.2c0.3,0.1,0.5,0.2,0.6,0.4
						c0.1,0.2,0.2,0.4,0.3,0.6c0,0.1,0,0.4,0,0.8v1.2c0,0.8,0,1.3,0.1,1.5c0,0.2,0.1,0.4,0.2,0.6H338
						C337.9,23.1,337.8,22.9,337.8,22.6z M337.7,20.7c-0.3,0.1-0.8,0.2-1.4,0.3c-0.4,0.1-0.6,0.1-0.8,0.2c-0.1,0.1-0.3,0.2-0.3,0.3
						c-0.1,0.1-0.1,0.3-0.1,0.4c0,0.2,0.1,0.4,0.3,0.6c0.2,0.2,0.4,0.2,0.8,0.2c0.3,0,0.6-0.1,0.9-0.2c0.3-0.1,0.5-0.4,0.6-0.6
						c0.1-0.2,0.1-0.5,0.1-0.9V20.7z"/>
					<path d="M339.5,23.3v-0.7l3.3-3.8c-0.4,0-0.7,0-1,0h-2.1v-0.7h4.2v0.6l-2.8,3.3l-0.5,0.6c0.4,0,0.8,0,1.1,0h2.4v0.8H339.5z"/>
					<path d="M345,17.1v-1h0.9v1H345z M345,23.3v-5.2h0.9v5.2H345z"/>
					<path d="M346.9,20.7c0-1,0.3-1.7,0.8-2.1c0.4-0.4,1-0.6,1.6-0.6c0.7,0,1.3,0.2,1.7,0.7c0.5,0.5,0.7,1.1,0.7,1.9
						c0,0.7-0.1,1.2-0.3,1.6c-0.2,0.4-0.5,0.7-0.9,0.9c-0.4,0.2-0.8,0.3-1.3,0.3c-0.7,0-1.3-0.2-1.8-0.7
						C347.1,22.2,346.9,21.6,346.9,20.7z M347.8,20.7c0,0.7,0.1,1.2,0.4,1.5c0.3,0.3,0.7,0.5,1.1,0.5c0.4,0,0.8-0.2,1.1-0.5
						c0.3-0.3,0.4-0.8,0.4-1.5c0-0.6-0.1-1.1-0.4-1.5c-0.3-0.3-0.7-0.5-1.1-0.5c-0.4,0-0.8,0.2-1.1,0.5
						C347.9,19.5,347.8,20,347.8,20.7z"/>
					<path d="M352.8,23.3v-5.2h0.8v0.7c0.4-0.6,0.9-0.9,1.7-0.9c0.3,0,0.6,0.1,0.9,0.2c0.3,0.1,0.5,0.3,0.6,0.4
						c0.1,0.2,0.2,0.4,0.3,0.6c0,0.2,0,0.4,0,0.9v3.2h-0.9v-3.2c0-0.4,0-0.6-0.1-0.8c-0.1-0.2-0.2-0.3-0.4-0.4
						c-0.2-0.1-0.4-0.2-0.6-0.2c-0.4,0-0.7,0.1-1,0.4c-0.3,0.2-0.4,0.7-0.4,1.4v2.8H352.8z"/>
					<path d="M361.9,21.6l0.9,0.1c-0.1,0.5-0.4,0.9-0.8,1.2c-0.4,0.3-0.9,0.4-1.5,0.4c-0.8,0-1.4-0.2-1.8-0.7
						c-0.4-0.5-0.7-1.1-0.7-2c0-0.9,0.2-1.5,0.7-2s1-0.7,1.7-0.7c0.7,0,1.3,0.2,1.7,0.7s0.7,1.1,0.7,2c0,0.1,0,0.1,0,0.2H359
						c0,0.6,0.2,1,0.5,1.3c0.3,0.3,0.7,0.5,1.1,0.5c0.3,0,0.6-0.1,0.8-0.3C361.6,22.2,361.8,22,361.9,21.6z M359,20.2h2.9
						c0-0.4-0.1-0.8-0.3-1c-0.3-0.3-0.6-0.5-1.1-0.5c-0.4,0-0.7,0.1-1,0.4C359.2,19.4,359,19.7,359,20.2z"/>
					<path d="M370.1,21.4l0.9,0.1c-0.1,0.6-0.3,1.1-0.7,1.4c-0.4,0.3-0.9,0.5-1.4,0.5c-0.7,0-1.3-0.2-1.7-0.7
						c-0.4-0.5-0.6-1.1-0.6-2c0-0.6,0.1-1,0.3-1.5s0.5-0.7,0.8-0.9c0.4-0.2,0.8-0.3,1.2-0.3c0.6,0,1,0.1,1.4,0.4
						c0.4,0.3,0.6,0.7,0.7,1.2l-0.9,0.1c-0.1-0.3-0.2-0.6-0.4-0.8c-0.2-0.2-0.5-0.3-0.8-0.3c-0.4,0-0.8,0.2-1.1,0.5
						c-0.3,0.3-0.4,0.8-0.4,1.5c0,0.7,0.1,1.2,0.4,1.5c0.3,0.3,0.6,0.5,1,0.5c0.3,0,0.6-0.1,0.9-0.3C369.9,22.1,370,21.8,370.1,21.4
						z"/>
					<path d="M371.3,20.7c0-1,0.3-1.7,0.8-2.1c0.4-0.4,1-0.6,1.6-0.6c0.7,0,1.3,0.2,1.7,0.7c0.5,0.5,0.7,1.1,0.7,1.9
						c0,0.7-0.1,1.2-0.3,1.6c-0.2,0.4-0.5,0.7-0.9,0.9c-0.4,0.2-0.8,0.3-1.3,0.3c-0.7,0-1.3-0.2-1.8-0.7
						C371.6,22.2,371.3,21.6,371.3,20.7z M372.3,20.7c0,0.7,0.1,1.2,0.4,1.5c0.3,0.3,0.7,0.5,1.1,0.5c0.4,0,0.8-0.2,1.1-0.5
						c0.3-0.3,0.4-0.8,0.4-1.5c0-0.6-0.1-1.1-0.4-1.5c-0.3-0.3-0.7-0.5-1.1-0.5c-0.4,0-0.8,0.2-1.1,0.5
						C372.4,19.5,372.3,20,372.3,20.7z"/>
					<path d="M377.2,23.3v-5.2h0.8v0.7c0.4-0.6,0.9-0.9,1.7-0.9c0.3,0,0.6,0.1,0.9,0.2c0.3,0.1,0.5,0.3,0.6,0.4
						c0.1,0.2,0.2,0.4,0.3,0.6c0,0.2,0,0.4,0,0.9v3.2h-0.9v-3.2c0-0.4,0-0.6-0.1-0.8c-0.1-0.2-0.2-0.3-0.4-0.4
						c-0.2-0.1-0.4-0.2-0.6-0.2c-0.4,0-0.7,0.1-1,0.4c-0.3,0.2-0.4,0.7-0.4,1.4v2.8H377.2z"/>
					<path d="M386.2,21.4l0.9,0.1c-0.1,0.6-0.3,1.1-0.7,1.4c-0.4,0.3-0.9,0.5-1.4,0.5c-0.7,0-1.3-0.2-1.7-0.7
						c-0.4-0.5-0.6-1.1-0.6-2c0-0.6,0.1-1,0.3-1.5s0.5-0.7,0.8-0.9c0.4-0.2,0.8-0.3,1.2-0.3c0.6,0,1,0.1,1.4,0.4
						c0.4,0.3,0.6,0.7,0.7,1.2l-0.9,0.1c-0.1-0.3-0.2-0.6-0.4-0.8c-0.2-0.2-0.5-0.3-0.8-0.3c-0.4,0-0.8,0.2-1.1,0.5
						c-0.3,0.3-0.4,0.8-0.4,1.5c0,0.7,0.1,1.2,0.4,1.5c0.3,0.3,0.6,0.5,1,0.5c0.3,0,0.6-0.1,0.9-0.3C386,22.1,386.1,21.8,386.2,21.4
						z"/>
					<path d="M387.8,23.3v-5.2h0.8v0.8c0.2-0.4,0.4-0.6,0.6-0.7s0.4-0.2,0.6-0.2c0.3,0,0.6,0.1,0.9,0.3l-0.3,0.8
						c-0.2-0.1-0.4-0.2-0.6-0.2c-0.2,0-0.4,0.1-0.5,0.2c-0.2,0.1-0.3,0.3-0.3,0.5c-0.1,0.3-0.1,0.7-0.1,1v2.7H387.8z"/>
					<path d="M394.7,21.6l0.9,0.1c-0.1,0.5-0.4,0.9-0.8,1.2c-0.4,0.3-0.9,0.4-1.5,0.4c-0.8,0-1.4-0.2-1.8-0.7
						c-0.4-0.5-0.7-1.1-0.7-2c0-0.9,0.2-1.5,0.7-2s1-0.7,1.7-0.7c0.7,0,1.3,0.2,1.7,0.7s0.7,1.1,0.7,2c0,0.1,0,0.1,0,0.2h-3.9
						c0,0.6,0.2,1,0.5,1.3c0.3,0.3,0.7,0.5,1.1,0.5c0.3,0,0.6-0.1,0.8-0.3C394.4,22.2,394.5,22,394.7,21.6z M391.8,20.2h2.9
						c0-0.4-0.1-0.8-0.3-1c-0.3-0.3-0.6-0.5-1.1-0.5c-0.4,0-0.7,0.1-1,0.4C392,19.4,391.8,19.7,391.8,20.2z"/>
					<path d="M398.6,22.5l0.1,0.8c-0.2,0.1-0.5,0.1-0.7,0.1c-0.3,0-0.6-0.1-0.7-0.2S397,23,397,22.8c-0.1-0.2-0.1-0.5-0.1-1v-3h-0.6
						v-0.7h0.6v-1.3l0.9-0.5v1.8h0.9v0.7h-0.9v3c0,0.3,0,0.4,0,0.5c0,0.1,0.1,0.1,0.2,0.2c0.1,0,0.2,0.1,0.3,0.1
						C398.3,22.5,398.5,22.5,398.6,22.5z"/>
					<path d="M402.9,22.6c-0.3,0.3-0.6,0.5-0.9,0.6c-0.3,0.1-0.6,0.2-1,0.2c-0.6,0-1-0.1-1.3-0.4c-0.3-0.3-0.5-0.6-0.5-1.1
						c0-0.3,0.1-0.5,0.2-0.7c0.1-0.2,0.3-0.4,0.5-0.5c0.2-0.1,0.4-0.2,0.6-0.3c0.2,0,0.4-0.1,0.8-0.1c0.7-0.1,1.2-0.2,1.6-0.3
						c0-0.1,0-0.2,0-0.2c0-0.4-0.1-0.6-0.2-0.8c-0.2-0.2-0.6-0.3-1-0.3c-0.4,0-0.7,0.1-0.9,0.2c-0.2,0.1-0.3,0.4-0.4,0.8l-0.9-0.1
						c0.1-0.4,0.2-0.7,0.4-0.9c0.2-0.2,0.4-0.4,0.8-0.5c0.3-0.1,0.7-0.2,1.2-0.2c0.4,0,0.8,0.1,1.1,0.2c0.3,0.1,0.5,0.2,0.6,0.4
						c0.1,0.2,0.2,0.4,0.3,0.6c0,0.1,0,0.4,0,0.8v1.2c0,0.8,0,1.3,0.1,1.5c0,0.2,0.1,0.4,0.2,0.6H403
						C402.9,23.1,402.9,22.9,402.9,22.6z M402.8,20.7c-0.3,0.1-0.8,0.2-1.4,0.3c-0.4,0.1-0.6,0.1-0.8,0.2c-0.1,0.1-0.3,0.2-0.3,0.3
						c-0.1,0.1-0.1,0.3-0.1,0.4c0,0.2,0.1,0.4,0.3,0.6c0.2,0.2,0.4,0.2,0.8,0.2c0.3,0,0.6-0.1,0.9-0.2c0.3-0.1,0.5-0.4,0.6-0.6
						c0.1-0.2,0.1-0.5,0.1-0.9V20.7z"/>
				</g>
				<path id="Rectangle_182" class="st11" d="M284.5,15.1h8c2.5,0,4.5,2,4.5,4.5c0,0,0,0,0,0l0,0c0,2.5-2,4.5-4.5,4.5c0,0,0,0,0,0
					h-8c-2.5,0-4.5-2-4.5-4.5c0,0,0,0,0,0l0,0C280,17.1,282,15.1,284.5,15.1C284.5,15.1,284.5,15.1,284.5,15.1z"/>
			</g>
		</g>
	</g>
</g>
</svg>
