<svg id="Layer_1" data-name="Layer 1" xmlns="http://www.w3.org/2000/svg" xmlns:xlink="http://www.w3.org/1999/xlink" width="695" height="32" viewBox="0 0 695 32">
  <defs>
    <clipPath id="clip-path">
      <rect width="695" height="32" fill="none"/>
    </clipPath>
  </defs>
  <g clip-path="url(#clip-path)">
    <g id="legend">
      <g id="Group_304" data-name="Group 304">
        <g id="Group_305" data-name="Group 305">
          <g id="dimensione">
            <g id="dimensione-X">
              <g id="Group-7">
                <g style="isolation: isolate">
                  <path d="M545,30.40066v-7.2h1l3.8,5.6v-5.6h.9v7.2h-1l-3.8-5.6v5.6Z"/>
                  <path d="M555.5,30.40066v-.8a1.92153,1.92153,0,0,1-1.6.9,2.91974,2.91974,0,0,1-.9-.2,1.5378,1.5378,0,0,1-.6-.4,4.87637,4.87637,0,0,1-.3-.7c0-.2-.1-.4-.1-.8v-3.2h.9v2.9c0,.5,0,.8.1.9a.99838.99838,0,0,0,.4.5,1.32493,1.32493,0,0,0,1.4,0,1.02413,1.02413,0,0,0,.5-.6,2.78645,2.78645,0,0,0,.1-1v-2.8h.9v5.3Z"/>
                  <path d="M557.6,30.40066v-5.2h.8v.7a1.69774,1.69774,0,0,1,.6-.6,1.4861,1.4861,0,0,1,.9-.2,1.99679,1.99679,0,0,1,.9.2,1.06092,1.06092,0,0,0,2.1-.2,1.594,1.594,0,0,1,1.2.4,1.69685,1.69685,0,0,1,.4,1.3v3.6h-.9v-3.3a1.719,1.719,0,0,0-.1-.8,1.38064,1.38064,0,0,0-.3-.4.90153.90153,0,0,0-.5-.1.97479.97479,0,0,0-.9.4,1.69076,1.69076,0,0,0-.4,1.2v3h-.9v-3.4a1.997,1.997,0,0,0-.2-.9.77856.77856,0,0,0-.7-.3,1.854,1.854,0,0,0-.7.2,1.02423,1.02423,0,0,0-.5.6,3.42044,3.42044,0,0,0-.1,1.1v2.7Z"/>
                  <path d="M569.5,28.70066l.9.1a1.99052,1.99052,0,0,1-.8,1.2,2.41,2.41,0,0,1-1.5.4,2.13949,2.13949,0,0,1-1.8-.7,3.01128,3.01128,0,0,1-.7-2,2.57813,2.57813,0,0,1,.7-2,2.19323,2.19323,0,0,1,1.7-.7,2.06,2.06,0,0,1,1.7.7,3.01128,3.01128,0,0,1,.7,2v.2h-3.9a1.72751,1.72751,0,0,0,.5,1.3,1.60591,1.60591,0,0,0,1.1.5,1.13548,1.13548,0,0,0,.8-.3A.877.877,0,0,0,569.5,28.70066Zm-2.9-1.4h2.9a2.3679,2.3679,0,0,0-.3-1,1.4327,1.4327,0,0,0-1.1-.5,1.28388,1.28388,0,0,0-1,.4A1.88066,1.88066,0,0,0,566.6,27.30066Z"/>
                  <path d="M571.5,30.40066v-5.2h.8v.8a1.44055,1.44055,0,0,1,.6-.7,1.42131,1.42131,0,0,1,.6-.2,1.61288,1.61288,0,0,1,.9.3l-.3.8a1.42131,1.42131,0,0,0-.6-.2.76387.76387,0,0,0-.5.2.54993.54993,0,0,0-.3.5,3.4016,3.4016,0,0,0-.1,1v2.7Z"/>
                  <path d="M574.5,27.80066a2.56378,2.56378,0,0,1,.8-2.1,2.271,2.271,0,0,1,1.6-.6,2.06,2.06,0,0,1,1.7.7,2.48947,2.48947,0,0,1,.7,1.9,3.50623,3.50623,0,0,1-.3,1.6,1.96225,1.96225,0,0,1-.9.9,2.76816,2.76816,0,0,1-1.3.3,2.40989,2.40989,0,0,1-1.8-.7A4.84943,4.84943,0,0,1,574.5,27.80066Zm.9,0a2.07578,2.07578,0,0,0,.4,1.5,1.46,1.46,0,0,0,2.2,0,2.07574,2.07574,0,0,0,.4-1.5,2.41012,2.41012,0,0,0-.4-1.5,1.46,1.46,0,0,0-2.2,0A2.69876,2.69876,0,0,0,575.4,27.80066Z"/>
                  <path d="M586.6,30.40066v-.7a1.645,1.645,0,0,1-1.5.8,2.016,2.016,0,0,1-1.1-.3,2.08892,2.08892,0,0,1-.8-1,3.41656,3.41656,0,0,1,0-2.8,2.53927,2.53927,0,0,1,.8-1,2.13259,2.13259,0,0,1,1.2-.3,1.88389,1.88389,0,0,1,.8.2,2.65178,2.65178,0,0,1,.6.5v-2.6h.9v7.2Zm-2.8-2.6a2.07578,2.07578,0,0,0,.4,1.5,1.25,1.25,0,0,0,2,0,1.955,1.955,0,0,0,.4-1.4,2.53729,2.53729,0,0,0-.4-1.6,1.10747,1.10747,0,0,0-1-.5,1.38859,1.38859,0,0,0-1,.5A2.07569,2.07569,0,0,0,583.8,27.80066Z"/>
                  <path d="M588.8,24.20066v-1h.9v1Zm0,6.2v-5.2h.9v5.2Z"/>
                  <path d="M593.4,27.80066a2.56378,2.56378,0,0,1,.8-2.1,2.271,2.271,0,0,1,1.6-.6,2.06,2.06,0,0,1,1.7.7,2.48948,2.48948,0,0,1,.7,1.9,3.50622,3.50622,0,0,1-.3,1.6,1.9622,1.9622,0,0,1-.9.9,2.76809,2.76809,0,0,1-1.3.3,2.4099,2.4099,0,0,1-1.8-.7A4.84958,4.84958,0,0,1,593.4,27.80066Zm.9,0a2.07578,2.07578,0,0,0,.4,1.5,1.46,1.46,0,0,0,2.2,0,2.07574,2.07574,0,0,0,.4-1.5,2.41012,2.41012,0,0,0-.4-1.5,1.46,1.46,0,0,0-2.2,0A2.69859,2.69859,0,0,0,594.3,27.80066Z"/>
                  <path d="M602.7,28.50066l.9.1a2.09675,2.09675,0,0,1-.7,1.4,2.38927,2.38927,0,0,1-1.4.5,2.06,2.06,0,0,1-1.7-.7,2.986,2.986,0,0,1-.6-2,3.65318,3.65318,0,0,1,.3-1.5,1.799,1.799,0,0,1,.8-.9,2.66268,2.66268,0,0,1,1.2-.3,2.116,2.116,0,0,1,1.4.4,1.85471,1.85471,0,0,1,.7,1.2l-.9.1a2.01018,2.01018,0,0,0-.4-.8,1.08022,1.08022,0,0,0-.7-.3,1.60586,1.60586,0,0,0-1.1.5,2.07574,2.07574,0,0,0-.4,1.5,2.07579,2.07579,0,0,0,.4,1.5,1.38861,1.38861,0,0,0,1,.5,1.61286,1.61286,0,0,0,.9-.3A1.89818,1.89818,0,0,0,602.7,28.50066Z"/>
                  <path d="M607.7,28.50066l.9.1a2.09675,2.09675,0,0,1-.7,1.4,2.38927,2.38927,0,0,1-1.4.5,2.06,2.06,0,0,1-1.7-.7,2.986,2.986,0,0,1-.6-2,3.65318,3.65318,0,0,1,.3-1.5,1.799,1.799,0,0,1,.8-.9,2.66268,2.66268,0,0,1,1.2-.3,2.116,2.116,0,0,1,1.4.4,1.85471,1.85471,0,0,1,.7,1.2l-.9.1a2.01018,2.01018,0,0,0-.4-.8,1.08022,1.08022,0,0,0-.7-.3,1.60586,1.60586,0,0,0-1.1.5,2.07574,2.07574,0,0,0-.4,1.5,2.07579,2.07579,0,0,0,.4,1.5,1.38861,1.38861,0,0,0,1,.5,1.61286,1.61286,0,0,0,.9-.3A1.89818,1.89818,0,0,0,607.7,28.50066Z"/>
                  <path d="M609,27.80066a2.56378,2.56378,0,0,1,.8-2.1,2.271,2.271,0,0,1,1.6-.6,2.06,2.06,0,0,1,1.7.7,2.48947,2.48947,0,0,1,.7,1.9,3.50623,3.50623,0,0,1-.3,1.6,1.96225,1.96225,0,0,1-.9.9,2.76816,2.76816,0,0,1-1.3.3,2.40989,2.40989,0,0,1-1.8-.7A3.67723,3.67723,0,0,1,609,27.80066Zm.9,0a2.07578,2.07578,0,0,0,.4,1.5,1.46,1.46,0,0,0,2.2,0,2.07574,2.07574,0,0,0,.4-1.5,2.41012,2.41012,0,0,0-.4-1.5,1.46,1.46,0,0,0-2.2,0A2.07578,2.07578,0,0,0,609.9,27.80066Z"/>
                  <path d="M614.9,30.40066v-5.2h.8v.8a1.44049,1.44049,0,0,1,.6-.7,1.4214,1.4214,0,0,1,.6-.2,1.61286,1.61286,0,0,1,.9.3l-.3.8a1.42127,1.42127,0,0,0-.6-.2.76389.76389,0,0,0-.5.2.55.55,0,0,0-.3.5,3.4016,3.4016,0,0,0-.1,1v2.7Z"/>
                  <path d="M618.2,30.40066v-5.2h.8v.8a1.4405,1.4405,0,0,1,.6-.7,1.42132,1.42132,0,0,1,.6-.2,1.61289,1.61289,0,0,1,.9.3l-.3.8a1.42123,1.42123,0,0,0-.6-.2.76385.76385,0,0,0-.5.2.54994.54994,0,0,0-.3.5,3.40193,3.40193,0,0,0-.1,1v2.7Z"/>
                  <path d="M625.1,28.70066l.9.1a1.99056,1.99056,0,0,1-.8,1.2,2.41006,2.41006,0,0,1-1.5.4,2.1395,2.1395,0,0,1-1.8-.7,3.01133,3.01133,0,0,1-.7-2,2.57813,2.57813,0,0,1,.7-2,2.19324,2.19324,0,0,1,1.7-.7,2.06,2.06,0,0,1,1.7.7,3.01133,3.01133,0,0,1,.7,2v.2h-3.9a1.72751,1.72751,0,0,0,.5,1.3,1.60589,1.60589,0,0,0,1.1.5,1.1355,1.1355,0,0,0,.8-.3A.877.877,0,0,0,625.1,28.70066Zm-2.9-1.4h2.9a2.3679,2.3679,0,0,0-.3-1,1.4327,1.4327,0,0,0-1.1-.5,1.28388,1.28388,0,0,0-1,.4A1.43268,1.43268,0,0,0,622.2,27.30066Z"/>
                  <path d="M627.1,30.40066v-5.2h.8v.7a1.85242,1.85242,0,0,1,1.7-.9,2.91974,2.91974,0,0,1,.9.2,1.5378,1.5378,0,0,1,.6.4l.3.6v4.2h-.9v-3.2a1.719,1.719,0,0,0-.1-.8.78082.78082,0,0,0-.4-.4,1.42131,1.42131,0,0,0-.6-.2,1.28388,1.28388,0,0,0-1,.4c-.3.2-.4.7-.4,1.4v2.8Z"/>
                  <path d="M632.2,30.40066v-.7l3.3-3.8h-3.1v-.7h4.2v.6l-2.8,3.3-.5.6h3.5v.7Z"/>
                  <path d="M641.2,28.70066l.9.1a1.99056,1.99056,0,0,1-.8,1.2,2.41006,2.41006,0,0,1-1.5.4,2.1395,2.1395,0,0,1-1.8-.7,3.01133,3.01133,0,0,1-.7-2,2.57813,2.57813,0,0,1,.7-2,2.19324,2.19324,0,0,1,1.7-.7,2.06,2.06,0,0,1,1.7.7,3.01133,3.01133,0,0,1,.7,2v.2h-3.9a1.72751,1.72751,0,0,0,.5,1.3,1.60589,1.60589,0,0,0,1.1.5,1.1355,1.1355,0,0,0,.8-.3A.877.877,0,0,0,641.2,28.70066Zm-2.9-1.4h2.9a2.36775,2.36775,0,0,0-.3-1,1.43266,1.43266,0,0,0-1.1-.5,1.28387,1.28387,0,0,0-1,.4A1.88066,1.88066,0,0,0,638.3,27.30066Z"/>
                  <path d="M646,30.40066v-5.2h.8v.7a1.85244,1.85244,0,0,1,1.7-.9,2.91967,2.91967,0,0,1,.9.2,1.53772,1.53772,0,0,1,.6.4l.3.6v4.2h-.9v-3.2a1.719,1.719,0,0,0-.1-.8.78074.78074,0,0,0-.4-.4,1.42127,1.42127,0,0,0-.6-.2,1.28389,1.28389,0,0,0-1,.4c-.3.2-.4.7-.4,1.4v2.8Z"/>
                  <path d="M655.1,28.70066l.9.1a1.99056,1.99056,0,0,1-.8,1.2,2.41006,2.41006,0,0,1-1.5.4,2.1395,2.1395,0,0,1-1.8-.7,3.01133,3.01133,0,0,1-.7-2,2.57813,2.57813,0,0,1,.7-2,2.19324,2.19324,0,0,1,1.7-.7,2.06,2.06,0,0,1,1.7.7,3.01133,3.01133,0,0,1,.7,2v.2h-3.9a1.72751,1.72751,0,0,0,.5,1.3,1.60589,1.60589,0,0,0,1.1.5,1.1355,1.1355,0,0,0,.8-.3A.877.877,0,0,0,655.1,28.70066Zm-2.9-1.4h2.9a2.3679,2.3679,0,0,0-.3-1,1.4327,1.4327,0,0,0-1.1-.5,1.28388,1.28388,0,0,0-1,.4A1.88072,1.88072,0,0,0,652.2,27.30066Z"/>
                  <path d="M657.1,30.40066v-7.2h.9v7.2Z"/>
                  <path d="M664.1,29.60066l.1.8a1.70173,1.70173,0,0,1-.7.1,1.16544,1.16544,0,0,1-.7-.2c-.1-.1-.3-.2-.4-.4a2.50855,2.50855,0,0,1-.1-1v-3h-.6v-.7h.6v-1.3l.9-.5v1.8h.9v.7h-.9v3.5c0,.1.1.1.2.2.1,0,.2.1.3.1C663.8,29.60066,663.9,29.60066,664.1,29.60066Z"/>
                  <path d="M668.5,28.70066l.9.1a1.99052,1.99052,0,0,1-.8,1.2,2.41006,2.41006,0,0,1-1.5.4,2.13949,2.13949,0,0,1-1.8-.7,3.01128,3.01128,0,0,1-.7-2,2.57813,2.57813,0,0,1,.7-2,2.19323,2.19323,0,0,1,1.7-.7,2.06,2.06,0,0,1,1.7.7,3.01128,3.01128,0,0,1,.7,2v.2h-3.9a1.72751,1.72751,0,0,0,.5,1.3,1.60591,1.60591,0,0,0,1.1.5,1.13548,1.13548,0,0,0,.8-.3A2.16878,2.16878,0,0,0,668.5,28.70066Zm-2.9-1.4h2.9a1.493,1.493,0,0,0-.3-1,1.4327,1.4327,0,0,0-1.1-.5,1.28388,1.28388,0,0,0-1,.4A1.43268,1.43268,0,0,0,665.6,27.30066Z"/>
                  <path d="M670.5,30.40066v-5.2h.8v.7a1.69782,1.69782,0,0,1,.6-.6,1.48611,1.48611,0,0,1,.9-.2,1.99684,1.99684,0,0,1,.9.2,1.06092,1.06092,0,0,0,2.1-.2,1.594,1.594,0,0,1,1.2.4,1.69689,1.69689,0,0,1,.4,1.3v3.6h-.9v-3.3a1.719,1.719,0,0,0-.1-.8,1.381,1.381,0,0,0-.3-.4.74935.74935,0,0,0-.5-.1.97479.97479,0,0,0-.9.4,1.69076,1.69076,0,0,0-.4,1.2v3h-.9v-3.4a1.997,1.997,0,0,0-.2-.9.77854.77854,0,0,0-.7-.3,1.854,1.854,0,0,0-.7.2,1.02423,1.02423,0,0,0-.5.6,3.42044,3.42044,0,0,0-.1,1.1v2.7Z"/>
                  <path d="M678.8,32.40066v-7.2h.8v.7a1.69788,1.69788,0,0,1,.6-.6,1.99687,1.99687,0,0,1,.9-.2,2.66293,2.66293,0,0,1,1.2.3,1.64937,1.64937,0,0,1,.8,1,3.41687,3.41687,0,0,1,0,2.8,2.72306,2.72306,0,0,1-.8,1,2.27941,2.27941,0,0,1-1.1.3,1.88384,1.88384,0,0,1-.8-.2,2.65132,2.65132,0,0,1-.6-.5v2.6Zm.8-4.6a2.07579,2.07579,0,0,0,.4,1.5,1.25,1.25,0,0,0,2,0,2.07579,2.07579,0,0,0,.4-1.5,2.07579,2.07579,0,0,0-.4-1.5,1.25,1.25,0,0,0-2,0A2.07579,2.07579,0,0,0,679.6,27.80066Z"/>
                  <path d="M684,27.80066a2.56377,2.56377,0,0,1,.8-2.1,2.271,2.271,0,0,1,1.6-.6,2.06006,2.06006,0,0,1,1.7.7,2.48949,2.48949,0,0,1,.7,1.9,3.50651,3.50651,0,0,1-.3,1.6,1.96229,1.96229,0,0,1-.9.9,2.76808,2.76808,0,0,1-1.3.3,2.40984,2.40984,0,0,1-1.8-.7A4.84824,4.84824,0,0,1,684,27.80066Zm.9,0a2.07578,2.07578,0,0,0,.4,1.5,1.46,1.46,0,0,0,2.2,0,2.07565,2.07565,0,0,0,.4-1.5,2.41012,2.41012,0,0,0-.4-1.5,1.46,1.46,0,0,0-2.2,0A2.07564,2.07564,0,0,0,684.9,27.80066Z"/>
                </g>
                <g id="Group_24080" data-name="Group 24080">
                  <g id="Group_24075" data-name="Group 24075">
                    <g id="Group_24074" data-name="Group 24074">
                      <line id="Line_7888" data-name="Line 7888" x1="531.7" y1="1.20066" x2="531.7" y2="31.30066" fill="none" stroke="#1d1d1b" stroke-miterlimit="10" stroke-width="0.25"/>
                      <g id="Group_24072" data-name="Group 24072">
                        <rect id="Rectangle_19227" data-name="Rectangle 19227" x="530.9" y="1.00066" width="1.6" height="0.2" fill="#1d1d1b"/>
                      </g>
                      <g id="Group_24073" data-name="Group 24073">
                        <rect id="Rectangle_19228" data-name="Rectangle 19228" x="530.9" y="31.20066" width="1.6" height="0.2" fill="#1d1d1b"/>
                      </g>
                    </g>
                  </g>
                  <g id="Group_24077" data-name="Group 24077">
                    <g id="Group_24076" data-name="Group 24076">
                      <line id="Line_7890" data-name="Line 7890" x1="514.6" y1="1.00066" x2="515.1" y2="1.00066" fill="none" stroke="#1d1d1b" stroke-miterlimit="10" stroke-width="0.26"/>
                      <line id="Line_7891" data-name="Line 7891" x1="516.2" y1="1.00066" x2="529.1" y2="1.00066" fill="none" stroke="#1d1d1b" stroke-miterlimit="10" stroke-width="0.26" stroke-dasharray="1.115 1.115"/>
                      <line id="Line_7892" data-name="Line 7892" x1="529.6" y1="1.00066" x2="530.1" y2="1.00066" fill="none" stroke="#1d1d1b" stroke-miterlimit="10" stroke-width="0.26"/>
                    </g>
                  </g>
                  <path id="Path_148123" data-name="Path 148123" d="M514.6,1.00066c-6.1,0-6.1,25.9-12.2,25.9s-6.1,4.5-12.2,4.5h36.7C520.7,31.40066,520.7,1.00066,514.6,1.00066Z" fill="none" stroke="#1d1d1b" stroke-miterlimit="10" stroke-width="0.25"/>
                  <g id="Group_24079" data-name="Group 24079">
                    <g id="Group_24078" data-name="Group 24078">
                      <line id="Line_7894" data-name="Line 7894" x1="526.8" y1="31.40066" x2="527.3" y2="31.40066" fill="none" stroke="#1d1d1b" stroke-miterlimit="10" stroke-width="0.26"/>
                      <line id="Line_7895" data-name="Line 7895" x1="528.1" y1="31.40066" x2="529.2" y2="31.40066" fill="none" stroke="#1d1d1b" stroke-miterlimit="10" stroke-width="0.26" stroke-dasharray="0.758 0.758"/>
                      <line id="Line_7896" data-name="Line 7896" x1="529.6" y1="31.40066" x2="530.1" y2="31.40066" fill="none" stroke="#1d1d1b" stroke-miterlimit="10" stroke-width="0.26"/>
                    </g>
                  </g>
                </g>
              </g>
            </g>
          </g>
        </g>
        <g id="Group_306" data-name="Group 306">
          <g id="Group_312" data-name="Group 312">
            <g style="isolation: isolate">
              <path d="M20.7,30.603v-7.2h1l3.8,5.6v-5.6h.9v7.2h-1l-3.8-5.6v5.6Z"/>
              <path d="M31.4,28.903l.9.1a1.99056,1.99056,0,0,1-.8,1.2,2.41006,2.41006,0,0,1-1.5.4,2.13948,2.13948,0,0,1-1.8-.7,3.01128,3.01128,0,0,1-.7-2,2.57813,2.57813,0,0,1,.7-2,2.19322,2.19322,0,0,1,1.7-.7,2.06,2.06,0,0,1,1.7.7,3.01133,3.01133,0,0,1,.7,2v.2H28.4a1.72747,1.72747,0,0,0,.5,1.3,1.60582,1.60582,0,0,0,1.1.5,1.13552,1.13552,0,0,0,.8-.3C31,29.403,31.3,29.303,31.4,28.903Zm-2.9-1.4h2.9a1.493,1.493,0,0,0-.3-1,1.43266,1.43266,0,0,0-1.1-.5,1.28387,1.28387,0,0,0-1,.4A1.43266,1.43266,0,0,0,28.5,27.503Z"/>
              <path d="M34.2,30.603h-.8v-7.2h.9v2.6a1.62178,1.62178,0,0,1,1.4-.7,2.91986,2.91986,0,0,1,.9.2,1.79371,1.79371,0,0,1,.7.5,2.01018,2.01018,0,0,1,.4.8,3.59493,3.59493,0,0,1,.2,1.1,2.817,2.817,0,0,1-.7,2.1,2.13018,2.13018,0,0,1-1.6.7,1.59592,1.59592,0,0,1-1.4-.8Zm0-2.7a2.06238,2.06238,0,0,0,.3,1.3,1.26936,1.26936,0,0,0,1.1.7,1.38859,1.38859,0,0,0,1-.5,2.07574,2.07574,0,0,0,.4-1.5,2.07574,2.07574,0,0,0-.4-1.5,1.25,1.25,0,0,0-2,0A2.41006,2.41006,0,0,0,34.2,27.903Z"/>
              <path d="M39.8,30.603H39v-7.2h.9v2.6a1.62178,1.62178,0,0,1,1.4-.7,2.91986,2.91986,0,0,1,.9.2,1.79381,1.79381,0,0,1,.7.5,2.01018,2.01018,0,0,1,.4.8,3.59492,3.59492,0,0,1,.2,1.1,2.817,2.817,0,0,1-.7,2.1,2.13018,2.13018,0,0,1-1.6.7,1.59592,1.59592,0,0,1-1.4-.8Zm0-2.7a2.06238,2.06238,0,0,0,.3,1.3,1.26936,1.26936,0,0,0,1.1.7,1.38859,1.38859,0,0,0,1-.5,2.07574,2.07574,0,0,0,.4-1.5,2.07574,2.07574,0,0,0-.4-1.5,1.25,1.25,0,0,0-2,0A2.41006,2.41006,0,0,0,39.8,27.903Z"/>
              <path d="M44.5,24.403v-1h.9v1Zm0,6.2v-5.2h.9v5.2Z"/>
              <path d="M50.1,29.903a2.36131,2.36131,0,0,1-.9.6,2.95855,2.95855,0,0,1-1,.2,1.69686,1.69686,0,0,1-1.3-.4,1.40809,1.40809,0,0,1-.3-1.8,1.205,1.205,0,0,1,.5-.5l.6-.3c.2,0,.4-.1.8-.1a15.69243,15.69243,0,0,0,1.6-.3v-.2a1.549,1.549,0,0,0-.2-.8,1.493,1.493,0,0,0-1-.3,1.99684,1.99684,0,0,0-.9.2c-.2.1-.3.4-.4.8l-.9-.1a1.88438,1.88438,0,0,1,.4-.9,1.57788,1.57788,0,0,1,.8-.5,3.72969,3.72969,0,0,1,1.2-.2,3.59492,3.59492,0,0,1,1.1.2.91826.91826,0,0,1,.6.4l.3.6v2a4.95362,4.95362,0,0,0,.1,1.5,1.42118,1.42118,0,0,0,.2.6h-.9C50.2,30.403,50.2,30.203,50.1,29.903Zm0-1.9a10.62662,10.62662,0,0,1-1.4.3,4.537,4.537,0,0,0-.8.2q-.3.15-.3.3a.60123.60123,0,0,0-.1.4.86433.86433,0,0,0,.3.6c.2.2.4.2.8.2a2.91986,2.91986,0,0,0,.9-.2,1.167,1.167,0,0,0,.6-.6,2.21962,2.21962,0,0,0,.1-.9v-.3Z"/>
              <path d="M58.5,29.903a2.36131,2.36131,0,0,1-.9.6,2.9585,2.9585,0,0,1-1,.2,1.69686,1.69686,0,0,1-1.3-.4,1.40809,1.40809,0,0,1-.3-1.8,1.205,1.205,0,0,1,.5-.5l.6-.3c.2,0,.4-.1.8-.1a15.69326,15.69326,0,0,0,1.6-.3v-.2a1.54907,1.54907,0,0,0-.2-.8,1.493,1.493,0,0,0-1-.3,1.99685,1.99685,0,0,0-.9.2c-.2.1-.3.4-.4.8l-.9-.1a1.88438,1.88438,0,0,1,.4-.9,1.57788,1.57788,0,0,1,.8-.5,3.72969,3.72969,0,0,1,1.2-.2,3.59492,3.59492,0,0,1,1.1.2.91826.91826,0,0,1,.6.4l.3.6v2a4.95362,4.95362,0,0,0,.1,1.5,1.42132,1.42132,0,0,0,.2.6h-.9A.75491.75491,0,0,1,58.5,29.903Zm-.1-1.9a10.62662,10.62662,0,0,1-1.4.3,4.537,4.537,0,0,0-.8.2q-.3.15-.3.3a.60123.60123,0,0,0-.1.4.86433.86433,0,0,0,.3.6c.2.2.4.2.8.2a2.91986,2.91986,0,0,0,.9-.2,1.167,1.167,0,0,0,.6-.6,2.21962,2.21962,0,0,0,.1-.9v-.3Z"/>
              <path d="M60.3,29.003l.9-.1a1.20416,1.20416,0,0,0,1.3,1.1,1.99689,1.99689,0,0,0,.9-.2.86432.86432,0,0,0,.3-.6.54992.54992,0,0,0-.3-.5,2.18668,2.18668,0,0,0-.9-.3c-.6-.2-1.1-.3-1.3-.4a2.65107,2.65107,0,0,1-.6-.5,1.44531,1.44531,0,0,1-.2-.7,1.42118,1.42118,0,0,1,.2-.6.99832.99832,0,0,1,.4-.5,1.62812,1.62812,0,0,1,.6-.3,1.94945,1.94945,0,0,1,.8-.1,3.59485,3.59485,0,0,1,1.1.2,1.79371,1.79371,0,0,1,.7.5,6.88816,6.88816,0,0,1,.3.8l-.9.1a.85468.85468,0,0,0-.3-.6,1.54907,1.54907,0,0,0-.8-.2,1.99684,1.99684,0,0,0-.9.2.54993.54993,0,0,0-.3.5.36737.36737,0,0,0,.1.3c.1.1.2.2.3.2s.3.1.8.2c.6.2,1.1.3,1.3.4a2.65132,2.65132,0,0,1,.6.5,1.07752,1.07752,0,0,1,.2.8,1.1355,1.1355,0,0,1-.3.8,1.34439,1.34439,0,0,1-.7.6,3.59492,3.59492,0,0,1-1.1.2,2.07574,2.07574,0,0,1-1.5-.4A2.64913,2.64913,0,0,1,60.3,29.003Z"/>
              <path d="M67.6,29.803l.1.8a1.70178,1.70178,0,0,1-.7.1,1.16548,1.16548,0,0,1-.7-.2c-.1-.1-.3-.2-.4-.4a2.50879,2.50879,0,0,1-.1-1v-3h-.6v-.7h.6v-1.3l.9-.5v1.8h.9v.7h-.9v3.5c0,.1.1.1.2.2a.36737.36737,0,0,0,.3.1C67.3,29.803,67.4,29.803,67.6,29.803Z"/>
              <path d="M68.4,30.603v-5.2h.8v.8a1.44054,1.44054,0,0,1,.6-.7,1.42132,1.42132,0,0,1,.6-.2,1.61294,1.61294,0,0,1,.9.3l-.3.8a1.42132,1.42132,0,0,0-.6-.2.76385.76385,0,0,0-.5.2.54994.54994,0,0,0-.3.5,3.402,3.402,0,0,0-.1,1v2.7Z"/>
              <path d="M75.1,29.903a2.36131,2.36131,0,0,1-.9.6,2.9585,2.9585,0,0,1-1,.2,1.69686,1.69686,0,0,1-1.3-.4,1.40809,1.40809,0,0,1-.3-1.8,1.205,1.205,0,0,1,.5-.5l.6-.3c.2,0,.4-.1.8-.1a15.69326,15.69326,0,0,0,1.6-.3v-.2a1.54907,1.54907,0,0,0-.2-.8,1.493,1.493,0,0,0-1-.3,1.99684,1.99684,0,0,0-.9.2c-.2.1-.3.4-.4.8l-.9-.1a1.88438,1.88438,0,0,1,.4-.9,1.57788,1.57788,0,0,1,.8-.5,3.72969,3.72969,0,0,1,1.2-.2,3.59492,3.59492,0,0,1,1.1.2.91826.91826,0,0,1,.6.4l.3.6v2a4.95362,4.95362,0,0,0,.1,1.5,1.42132,1.42132,0,0,0,.2.6h-.9C75.2,30.403,75.2,30.203,75.1,29.903Zm0-1.9a10.62662,10.62662,0,0,1-1.4.3,4.537,4.537,0,0,0-.8.2q-.3.15-.3.3a.60123.60123,0,0,0-.1.4.86433.86433,0,0,0,.3.6c.2.2.4.2.8.2a2.91986,2.91986,0,0,0,.9-.2,1.167,1.167,0,0,0,.6-.6,2.21962,2.21962,0,0,0,.1-.9v-.3Z"/>
              <path d="M79.2,29.803l.1.8a1.70178,1.70178,0,0,1-.7.1,1.16548,1.16548,0,0,1-.7-.2c-.1-.1-.3-.2-.4-.4a2.50855,2.50855,0,0,1-.1-1v-3h-.6v-.7h.6v-1.3l.9-.5v1.8h.9v.7h-.9v3.5c0,.1.1.1.2.2a.36737.36737,0,0,0,.3.1A.60123.60123,0,0,1,79.2,29.803Z"/>
              <path d="M82,29.803l.1.8a1.70178,1.70178,0,0,1-.7.1,1.16548,1.16548,0,0,1-.7-.2c-.1-.1-.3-.2-.4-.4a2.50855,2.50855,0,0,1-.1-1v-3h-.6v-.7h.6v-1.3l.9-.5v1.8H82v.7h-.9v3.5c0,.1.1.1.2.2a.36737.36737,0,0,0,.3.1A.60123.60123,0,0,1,82,29.803Z"/>
              <path d="M86.3,29.903a2.36131,2.36131,0,0,1-.9.6,2.9585,2.9585,0,0,1-1,.2,1.69686,1.69686,0,0,1-1.3-.4,1.40809,1.40809,0,0,1-.3-1.8,1.205,1.205,0,0,1,.5-.5l.6-.3c.2,0,.4-.1.8-.1a15.69326,15.69326,0,0,0,1.6-.3v-.2a1.54907,1.54907,0,0,0-.2-.8,1.493,1.493,0,0,0-1-.3,1.99684,1.99684,0,0,0-.9.2c-.2.1-.3.4-.4.8l-.9-.1a1.88438,1.88438,0,0,1,.4-.9,1.57788,1.57788,0,0,1,.8-.5,3.72969,3.72969,0,0,1,1.2-.2,3.59492,3.59492,0,0,1,1.1.2.91826.91826,0,0,1,.6.4l.3.6v2a4.95362,4.95362,0,0,0,.1,1.5,1.42132,1.42132,0,0,0,.2.6h-.9A.61584.61584,0,0,1,86.3,29.903Zm-.1-1.9a10.62662,10.62662,0,0,1-1.4.3,4.537,4.537,0,0,0-.8.2q-.3.15-.3.3a.60123.60123,0,0,0-.1.4.86433.86433,0,0,0,.3.6c.2.2.4.2.8.2a2.91986,2.91986,0,0,0,.9-.2,1.167,1.167,0,0,0,.6-.6,2.21962,2.21962,0,0,0,.1-.9v-.3Z"/>
            </g>
            <path id="Rectangle_179" data-name="Rectangle 179" d="M4.5,22.403h8a4.48129,4.48129,0,0,1,4.5,4.5h0a4.48129,4.48129,0,0,1-4.5,4.5h-8a4.48129,4.48129,0,0,1-4.5-4.5H0a4.48129,4.48129,0,0,1,4.5-4.5Z" fill="#c5c5fc"/>
          </g>
        </g>
        <g id="Group_307" data-name="Group 307">
          <g style="isolation: isolate">
            <path d="M125,30.603v-7.2h1l3.8,5.6v-5.6h.9v7.2h-1l-3.8-5.6v5.6Z"/>
            <path d="M135.6,28.903l.9.1a1.99056,1.99056,0,0,1-.8,1.2,2.41006,2.41006,0,0,1-1.5.4,2.13948,2.13948,0,0,1-1.8-.7,3.01128,3.01128,0,0,1-.7-2,2.57813,2.57813,0,0,1,.7-2,2.19323,2.19323,0,0,1,1.7-.7,2.06,2.06,0,0,1,1.7.7,3.01128,3.01128,0,0,1,.7,2v.2h-3.9a1.72751,1.72751,0,0,0,.5,1.3,1.60584,1.60584,0,0,0,1.1.5,1.1355,1.1355,0,0,0,.8-.3C135.2,29.403,135.5,29.303,135.6,28.903Zm-2.9-1.4h2.9a1.493,1.493,0,0,0-.3-1,1.43266,1.43266,0,0,0-1.1-.5,1.28387,1.28387,0,0,0-1,.4A1.88073,1.88073,0,0,0,132.7,27.503Z"/>
            <path d="M138.4,30.603h-.8v-7.2h.9v2.6a1.6218,1.6218,0,0,1,1.4-.7,2.92,2.92,0,0,1,.9.2,1.79371,1.79371,0,0,1,.7.5,2.01,2.01,0,0,1,.4.8,3.59492,3.59492,0,0,1,.2,1.1,2.817,2.817,0,0,1-.7,2.1,2.13018,2.13018,0,0,1-1.6.7,1.59592,1.59592,0,0,1-1.4-.8Zm0-2.7a2.06238,2.06238,0,0,0,.3,1.3,1.26936,1.26936,0,0,0,1.1.7,1.38859,1.38859,0,0,0,1-.5,2.07574,2.07574,0,0,0,.4-1.5,2.07574,2.07574,0,0,0-.4-1.5,1.25,1.25,0,0,0-2,0A3.3128,3.3128,0,0,0,138.4,27.903Z"/>
            <path d="M144,30.603h-.8v-7.2h.9v2.6a1.62178,1.62178,0,0,1,1.4-.7,2.92,2.92,0,0,1,.9.2,1.79378,1.79378,0,0,1,.7.5,2.01,2.01,0,0,1,.4.8,3.59492,3.59492,0,0,1,.2,1.1,2.817,2.817,0,0,1-.7,2.1,2.13018,2.13018,0,0,1-1.6.7,1.59592,1.59592,0,0,1-1.4-.8Zm0-2.7a2.06238,2.06238,0,0,0,.3,1.3,1.26936,1.26936,0,0,0,1.1.7,1.38859,1.38859,0,0,0,1-.5,2.07574,2.07574,0,0,0,.4-1.5,2.07574,2.07574,0,0,0-.4-1.5,1.25,1.25,0,0,0-2,0A2.41006,2.41006,0,0,0,144,27.903Z"/>
            <path d="M148.8,24.403v-1h.9v1Zm0,6.2v-5.2h.9v5.2Z"/>
            <path d="M154.4,29.903a2.36131,2.36131,0,0,1-.9.6,2.9585,2.9585,0,0,1-1,.2,1.69686,1.69686,0,0,1-1.3-.4,1.40809,1.40809,0,0,1-.3-1.8,1.205,1.205,0,0,1,.5-.5l.6-.3c.2,0,.4-.1.8-.1a15.69326,15.69326,0,0,0,1.6-.3v-.2a1.54907,1.54907,0,0,0-.2-.8,1.493,1.493,0,0,0-1-.3,1.99684,1.99684,0,0,0-.9.2c-.2.1-.3.4-.4.8l-.9-.1a1.88438,1.88438,0,0,1,.4-.9,1.57792,1.57792,0,0,1,.8-.5,3.72969,3.72969,0,0,1,1.2-.2,3.59486,3.59486,0,0,1,1.1.2.91826.91826,0,0,1,.6.4l.3.6v2a4.95362,4.95362,0,0,0,.1,1.5,1.42132,1.42132,0,0,0,.2.6h-.9A.61584.61584,0,0,1,154.4,29.903Zm-.1-1.9a10.62662,10.62662,0,0,1-1.4.3,4.537,4.537,0,0,0-.8.2q-.3.15-.3.3a.60123.60123,0,0,0-.1.4.86433.86433,0,0,0,.3.6c.2.2.4.2.8.2a2.91986,2.91986,0,0,0,.9-.2,1.167,1.167,0,0,0,.6-.6,2.21962,2.21962,0,0,0,.1-.9v-.3Z"/>
            <path d="M162.7,28.703l.9.1a2.09671,2.09671,0,0,1-.7,1.4,2.38933,2.38933,0,0,1-1.4.5,2.06,2.06,0,0,1-1.7-.7,2.98594,2.98594,0,0,1-.6-2,3.653,3.653,0,0,1,.3-1.5,1.799,1.799,0,0,1,.8-.9,2.66265,2.66265,0,0,1,1.2-.3,2.116,2.116,0,0,1,1.4.4,1.85475,1.85475,0,0,1,.7,1.2l-.9.1a2.00979,2.00979,0,0,0-.4-.8,1.08024,1.08024,0,0,0-.7-.3,1.6058,1.6058,0,0,0-1.1.5,2.0657,2.0657,0,0,0-.5,1.6,2.07574,2.07574,0,0,0,.4,1.5,1.38859,1.38859,0,0,0,1,.5,1.61294,1.61294,0,0,0,.9-.3C162.6,29.503,162.6,29.103,162.7,28.703Z"/>
            <path d="M164,28.003a2.56378,2.56378,0,0,1,.8-2.1,2.271,2.271,0,0,1,1.6-.6,2.06,2.06,0,0,1,1.7.7,2.48948,2.48948,0,0,1,.7,1.9,3.50608,3.50608,0,0,1-.3,1.6,1.96217,1.96217,0,0,1-.9.9,2.76812,2.76812,0,0,1-1.3.3,2.4099,2.4099,0,0,1-1.8-.7C164,29.503,164,28.903,164,28.003Zm.9,0a2.07574,2.07574,0,0,0,.4,1.5,1.46,1.46,0,0,0,2.2,0,2.07574,2.07574,0,0,0,.4-1.5,2.41006,2.41006,0,0,0-.4-1.5,1.46,1.46,0,0,0-2.2,0A2.07578,2.07578,0,0,0,164.9,28.003Z"/>
            <path d="M169.9,30.603v-5.2h.8v.7a1.85246,1.85246,0,0,1,1.7-.9,2.91986,2.91986,0,0,1,.9.2,1.53759,1.53759,0,0,1,.6.4c.1.1.1.5.1.7v4.1h-.9v-3.2a1.71917,1.71917,0,0,0-.1-.8.78076.78076,0,0,0-.4-.4,1.42132,1.42132,0,0,0-.6-.2,1.28387,1.28387,0,0,0-1,.4,1.80926,1.80926,0,0,0-.4,1.4v2.8Z"/>
            <path d="M178.8,28.703l.9.1a2.0967,2.0967,0,0,1-.7,1.4,2.38933,2.38933,0,0,1-1.4.5,2.06,2.06,0,0,1-1.7-.7,2.98594,2.98594,0,0,1-.6-2,3.65318,3.65318,0,0,1,.3-1.5,1.799,1.799,0,0,1,.8-.9,2.66264,2.66264,0,0,1,1.2-.3,2.11609,2.11609,0,0,1,1.4.4,1.85474,1.85474,0,0,1,.7,1.2l-.9.1a2.01,2.01,0,0,0-.4-.8,1.08026,1.08026,0,0,0-.7-.3,1.60584,1.60584,0,0,0-1.1.5,2.07574,2.07574,0,0,0-.4,1.5,2.07574,2.07574,0,0,0,.4,1.5,1.38861,1.38861,0,0,0,1,.5,1.613,1.613,0,0,0,.9-.3C178.8,29.403,178.8,29.103,178.8,28.703Z"/>
            <path d="M180.4,30.603v-5.2h.8v.8a1.44059,1.44059,0,0,1,.6-.7,1.42132,1.42132,0,0,1,.6-.2,1.61294,1.61294,0,0,1,.9.3l-.3.8a1.42132,1.42132,0,0,0-.6-.2.76385.76385,0,0,0-.5.2.54994.54994,0,0,0-.3.5,3.402,3.402,0,0,0-.1,1v2.7Z"/>
            <path d="M187.3,28.903l.9.1a1.99052,1.99052,0,0,1-.8,1.2,2.41006,2.41006,0,0,1-1.5.4,2.13948,2.13948,0,0,1-1.8-.7,3.01128,3.01128,0,0,1-.7-2,2.57813,2.57813,0,0,1,.7-2,2.19323,2.19323,0,0,1,1.7-.7,2.06,2.06,0,0,1,1.7.7,3.01128,3.01128,0,0,1,.7,2v.2h-3.9a1.72747,1.72747,0,0,0,.5,1.3,1.60582,1.60582,0,0,0,1.1.5,1.13552,1.13552,0,0,0,.8-.3C186.9,29.403,187.2,29.303,187.3,28.903Zm-2.9-1.4h2.9a1.493,1.493,0,0,0-.3-1,1.43266,1.43266,0,0,0-1.1-.5,1.28387,1.28387,0,0,0-1,.4A1.88067,1.88067,0,0,0,184.4,27.503Z"/>
            <path d="M191.2,29.803l.1.8a1.70178,1.70178,0,0,1-.7.1,1.16548,1.16548,0,0,1-.7-.2c-.1-.1-.3-.2-.4-.4a2.50855,2.50855,0,0,1-.1-1v-3h-.6v-.7h.6v-1.3l.9-.5v1.8h.9v.7h-.9v3.5c0,.1.1.1.2.2a.36737.36737,0,0,0,.3.1A.75592.75592,0,0,1,191.2,29.803Z"/>
            <path d="M195.5,29.903a2.36131,2.36131,0,0,1-.9.6,2.9585,2.9585,0,0,1-1,.2,1.69686,1.69686,0,0,1-1.3-.4,1.40812,1.40812,0,0,1-.3-1.8,1.20509,1.20509,0,0,1,.5-.5l.6-.3c.2,0,.4-.1.8-.1a15.69326,15.69326,0,0,0,1.6-.3v-.2a1.54918,1.54918,0,0,0-.2-.8,1.493,1.493,0,0,0-1-.3,1.99689,1.99689,0,0,0-.9.2c-.2.1-.3.4-.4.8l-1-.1a1.88438,1.88438,0,0,1,.4-.9,1.57788,1.57788,0,0,1,.8-.5,3.72974,3.72974,0,0,1,1.2-.2,3.59492,3.59492,0,0,1,1.1.2.91826.91826,0,0,1,.6.4l.3.6v2a4.95362,4.95362,0,0,0,.1,1.5,1.42132,1.42132,0,0,0,.2.6h-.9A.90783.90783,0,0,1,195.5,29.903Zm-.1-1.9a10.62662,10.62662,0,0,1-1.4.3,4.537,4.537,0,0,0-.8.2q-.3.15-.3.3a.60128.60128,0,0,0-.1.4.86429.86429,0,0,0,.3.6c.2.2.4.2.8.2a2.91986,2.91986,0,0,0,.9-.2,1.167,1.167,0,0,0,.6-.6,2.21962,2.21962,0,0,0,.1-.9v-.3Z"/>
          </g>
          <path id="Rectangle_180" data-name="Rectangle 180" d="M108.7,22.403h8a4.48129,4.48129,0,0,1,4.5,4.5h0a4.48129,4.48129,0,0,1-4.5,4.5h-8a4.48129,4.48129,0,0,1-4.5-4.5h0a4.48129,4.48129,0,0,1,4.5-4.5Z" fill="#5151fc"/>
        </g>
        <g id="Group_308" data-name="Group 308">
          <g style="isolation: isolate">
            <path d="M241.5,28.103l.9.2a3.26694,3.26694,0,0,1-1.1,1.8,2.88327,2.88327,0,0,1-1.9.6,3.55717,3.55717,0,0,1-1.9-.5,2.58648,2.58648,0,0,1-1.1-1.4,5.84709,5.84709,0,0,1-.4-1.9,4.47736,4.47736,0,0,1,.4-2,3.03926,3.03926,0,0,1,1.2-1.3,3.28684,3.28684,0,0,1,1.7-.4,3.45336,3.45336,0,0,1,1.8.5,2.67908,2.67908,0,0,1,1,1.5l-.9.2a2.32573,2.32573,0,0,0-.7-1.1,2.14429,2.14429,0,0,0-1.2-.4,2.116,2.116,0,0,0-1.4.4,2.25839,2.25839,0,0,0-.8,1.1,5.90141,5.90141,0,0,0-.2,1.4,4.14574,4.14574,0,0,0,.3,1.6,2.08893,2.08893,0,0,0,.8,1,2.37539,2.37539,0,0,0,1.2.3,1.90108,1.90108,0,0,0,1.3-.5C240.8,28.903,241.4,28.703,241.5,28.103Z"/>
            <path d="M246.9,29.903a2.36136,2.36136,0,0,1-.9.6,2.9585,2.9585,0,0,1-1,.2,1.69684,1.69684,0,0,1-1.3-.4,1.40812,1.40812,0,0,1-.3-1.8,1.20514,1.20514,0,0,1,.5-.5l.6-.3c.2,0,.4-.1.8-.1a15.69408,15.69408,0,0,0,1.6-.3v-.2a1.54917,1.54917,0,0,0-.2-.8,1.493,1.493,0,0,0-1-.3,1.99682,1.99682,0,0,0-.9.2c-.2.1-.3.4-.4.8l-.9-.1a1.88457,1.88457,0,0,1,.4-.9,1.57787,1.57787,0,0,1,.8-.5,3.72962,3.72962,0,0,1,1.2-.2,3.595,3.595,0,0,1,1.1.2.91831.91831,0,0,1,.6.4l.3.6v2a4.95314,4.95314,0,0,0,.1,1.5,1.42144,1.42144,0,0,0,.2.6h-.9A.75487.75487,0,0,1,246.9,29.903Zm-.1-1.9a10.62677,10.62677,0,0,1-1.4.3,4.537,4.537,0,0,0-.8.2q-.3.15-.3.3a.60123.60123,0,0,0-.1.4.86433.86433,0,0,0,.3.6c.2.2.4.2.8.2a2.91973,2.91973,0,0,0,.9-.2,1.167,1.167,0,0,0,.6-.6,2.21941,2.21941,0,0,0,.1-.9v-.3Z"/>
            <path d="M249.1,30.603v-5.2h.8v.7a1.85242,1.85242,0,0,1,1.7-.9,2.91974,2.91974,0,0,1,.9.2,1.5378,1.5378,0,0,1,.6.4,3.32977,3.32977,0,0,1,.3.6v4.1h-.9v-3.2a1.719,1.719,0,0,0-.1-.8.78082.78082,0,0,0-.4-.4,1.42131,1.42131,0,0,0-.6-.2,1.28388,1.28388,0,0,0-1,.4,1.80926,1.80926,0,0,0-.4,1.4v2.8h-.9Z"/>
            <path d="M258,28.703l.9.1a2.09674,2.09674,0,0,1-.7,1.4,2.38933,2.38933,0,0,1-1.4.5,2.06,2.06,0,0,1-1.7-.7,2.98594,2.98594,0,0,1-.6-2,3.65334,3.65334,0,0,1,.3-1.5,1.799,1.799,0,0,1,.8-.9,2.66261,2.66261,0,0,1,1.2-.3,2.116,2.116,0,0,1,1.4.4,1.85474,1.85474,0,0,1,.7,1.2l-.9.1a2.01029,2.01029,0,0,0-.4-.8,1.08024,1.08024,0,0,0-.7-.3,1.6059,1.6059,0,0,0-1.1.5,2.07574,2.07574,0,0,0-.4,1.5,2.07583,2.07583,0,0,0,.4,1.5,1.38859,1.38859,0,0,0,1,.5,1.61289,1.61289,0,0,0,.9-.3C258,29.403,258,29.103,258,28.703Z"/>
            <path d="M263.2,28.903l.9.1a1.99056,1.99056,0,0,1-.8,1.2,2.41008,2.41008,0,0,1-1.5.4,2.1395,2.1395,0,0,1-1.8-.7,3.01133,3.01133,0,0,1-.7-2,2.57813,2.57813,0,0,1,.7-2,2.19323,2.19323,0,0,1,1.7-.7,2.06,2.06,0,0,1,1.7.7,3.01133,3.01133,0,0,1,.7,2v.2h-3.9a1.72751,1.72751,0,0,0,.5,1.3,1.60584,1.60584,0,0,0,1.1.5,1.1355,1.1355,0,0,0,.8-.3A2.16878,2.16878,0,0,0,263.2,28.903Zm-2.9-1.4h2.9a1.493,1.493,0,0,0-.3-1,1.43266,1.43266,0,0,0-1.1-.5,1.28387,1.28387,0,0,0-1,.4A1.43262,1.43262,0,0,0,260.3,27.503Z"/>
            <path d="M265.2,30.603v-7.2h.9v7.2Z"/>
            <path d="M267.4,30.603v-7.2h.9v7.2Z"/>
            <path d="M273,29.903a2.36143,2.36143,0,0,1-.9.6,2.9585,2.9585,0,0,1-1,.2,1.69688,1.69688,0,0,1-1.3-.4,1.40809,1.40809,0,0,1-.3-1.8,1.20509,1.20509,0,0,1,.5-.5l.6-.3c.2,0,.4-.1.8-.1a15.69408,15.69408,0,0,0,1.6-.3v-.2a1.54917,1.54917,0,0,0-.2-.8,1.493,1.493,0,0,0-1-.3,1.99684,1.99684,0,0,0-.9.2c-.2.1-.3.4-.4.8l-.9-.1a1.88438,1.88438,0,0,1,.4-.9,1.57784,1.57784,0,0,1,.8-.5,3.72974,3.72974,0,0,1,1.2-.2,3.5951,3.5951,0,0,1,1.1.2.91826.91826,0,0,1,.6.4l.3.6v2a4.95362,4.95362,0,0,0,.1,1.5,1.42146,1.42146,0,0,0,.2.6h-.9A.75488.75488,0,0,1,273,29.903Zm-.1-1.9a10.62677,10.62677,0,0,1-1.4.3,4.537,4.537,0,0,0-.8.2q-.3.15-.3.3a.60123.60123,0,0,0-.1.4.86433.86433,0,0,0,.3.6c.2.2.4.2.8.2a2.91973,2.91973,0,0,0,.9-.2,1.167,1.167,0,0,0,.6-.6,2.21941,2.21941,0,0,0,.1-.9v-.3Z"/>
            <path d="M274.7,30.603v-.7l3.3-3.8h-3.1v-.7h4.2v.6l-2.8,3.3-.5.6h3.5v.8h-4.6Z"/>
            <path d="M280.2,24.403v-1h.9v1Zm0,6.2v-5.2h.9v5.2Z"/>
            <path d="M282.1,28.003a2.56378,2.56378,0,0,1,.8-2.1,2.271,2.271,0,0,1,1.6-.6,2.06,2.06,0,0,1,1.7.7,2.48948,2.48948,0,0,1,.7,1.9,3.50636,3.50636,0,0,1-.3,1.6,1.96222,1.96222,0,0,1-.9.9,2.7681,2.7681,0,0,1-1.3.3,2.40988,2.40988,0,0,1-1.8-.7C282.1,29.503,282.1,28.903,282.1,28.003Zm.9,0a2.07583,2.07583,0,0,0,.4,1.5,1.46,1.46,0,0,0,2.2,0,2.07574,2.07574,0,0,0,.4-1.5,2.41018,2.41018,0,0,0-.4-1.5,1.46,1.46,0,0,0-2.2,0A2.07574,2.07574,0,0,0,283,28.003Z"/>
            <path d="M288,30.603v-5.2h.8v.7a1.85244,1.85244,0,0,1,1.7-.9,2.91967,2.91967,0,0,1,.9.2,1.53772,1.53772,0,0,1,.6.4,3.32846,3.32846,0,0,1,.3.6v4.1h-.9v-3.2a1.719,1.719,0,0,0-.1-.8.78074.78074,0,0,0-.4-.4,1.42127,1.42127,0,0,0-.6-.2,1.28389,1.28389,0,0,0-1,.4,1.80926,1.80926,0,0,0-.4,1.4v2.8H288Z"/>
            <path d="M297.1,28.903l.9.1a1.99056,1.99056,0,0,1-.8,1.2,2.41008,2.41008,0,0,1-1.5.4,2.1395,2.1395,0,0,1-1.8-.7,3.01133,3.01133,0,0,1-.7-2,2.57813,2.57813,0,0,1,.7-2,2.19323,2.19323,0,0,1,1.7-.7,2.06,2.06,0,0,1,1.7.7,3.01133,3.01133,0,0,1,.7,2v.2h-3.9a1.72751,1.72751,0,0,0,.5,1.3,1.60584,1.60584,0,0,0,1.1.5,1.1355,1.1355,0,0,0,.8-.3C296.7,29.403,297,29.303,297.1,28.903Zm-2.9-1.4h2.9a1.493,1.493,0,0,0-.3-1,1.4327,1.4327,0,0,0-1.1-.5,1.28388,1.28388,0,0,0-1,.4A1.43264,1.43264,0,0,0,294.2,27.503Z"/>
            <path d="M305.3,29.903a2.36136,2.36136,0,0,1-.9.6,2.9585,2.9585,0,0,1-1,.2,1.69684,1.69684,0,0,1-1.3-.4,1.40812,1.40812,0,0,1-.3-1.8,1.20514,1.20514,0,0,1,.5-.5l.6-.3c.2,0,.4-.1.8-.1a15.69408,15.69408,0,0,0,1.6-.3v-.2a1.54917,1.54917,0,0,0-.2-.8,1.493,1.493,0,0,0-1-.3,1.99679,1.99679,0,0,0-.9.2c-.2.1-.3.4-.4.8l-.9-.1a1.88457,1.88457,0,0,1,.4-.9,1.57787,1.57787,0,0,1,.8-.5,3.72962,3.72962,0,0,1,1.2-.2,3.595,3.595,0,0,1,1.1.2.91831.91831,0,0,1,.6.4l.3.6v2a4.95362,4.95362,0,0,0,.1,1.5,1.42146,1.42146,0,0,0,.2.6h-.9A.61582.61582,0,0,1,305.3,29.903Zm-.1-1.9a10.62736,10.62736,0,0,1-1.4.3,4.53725,4.53725,0,0,0-.8.2q-.3.15-.3.3a.60118.60118,0,0,0-.1.4.86437.86437,0,0,0,.3.6c.2.2.4.2.8.2a2.91974,2.91974,0,0,0,.9-.2,1.16709,1.16709,0,0,0,.6-.6,2.21962,2.21962,0,0,0,.1-.9v-.3Z"/>
            <path d="M307.1,29.003l.9-.1a1.20414,1.20414,0,0,0,1.3,1.1,1.99682,1.99682,0,0,0,.9-.2.86433.86433,0,0,0,.3-.6.54993.54993,0,0,0-.3-.5,2.18654,2.18654,0,0,0-.9-.3c-.6-.2-1.1-.3-1.3-.4a2.65175,2.65175,0,0,1-.6-.5,1.44521,1.44521,0,0,1-.2-.7,1.42146,1.42146,0,0,1,.2-.6.99841.99841,0,0,1,.4-.5,1.62827,1.62827,0,0,1,.6-.3,1.94945,1.94945,0,0,1,.8-.1,3.595,3.595,0,0,1,1.1.2,1.7936,1.7936,0,0,1,.7.5,6.88985,6.88985,0,0,1,.3.8l-.9.1a.85464.85464,0,0,0-.3-.6,1.5491,1.5491,0,0,0-.8-.2,1.99684,1.99684,0,0,0-.9.2.55.55,0,0,0-.3.5.36734.36734,0,0,0,.1.3c.1.1.2.2.3.2s.3.1.8.2c.6.2,1.1.3,1.3.4a2.65175,2.65175,0,0,1,.6.5,1.07743,1.07743,0,0,1,.2.8,1.13554,1.13554,0,0,1-.3.8,1.34439,1.34439,0,0,1-.7.6,3.59493,3.59493,0,0,1-1.1.2,2.07577,2.07577,0,0,1-1.5-.4A2.649,2.649,0,0,1,307.1,29.003Z"/>
            <path d="M314.4,29.803l.1.8a1.70178,1.70178,0,0,1-.7.1,1.16543,1.16543,0,0,1-.7-.2c-.1-.1-.3-.2-.4-.4a2.50855,2.50855,0,0,1-.1-1v-3H312v-.7h.6v-1.3l.9-.5v1.8h.9v.7h-.9v3.5c0,.1.1.1.2.2a.36735.36735,0,0,0,.3.1C314.1,29.803,314.2,29.803,314.4,29.803Z"/>
            <path d="M315.2,30.603v-5.2h.8v.8a1.44045,1.44045,0,0,1,.6-.7,1.42132,1.42132,0,0,1,.6-.2,1.61289,1.61289,0,0,1,.9.3l-.3.8a1.42123,1.42123,0,0,0-.6-.2.76385.76385,0,0,0-.5.2.55.55,0,0,0-.3.5,3.402,3.402,0,0,0-.1,1v2.7Z"/>
            <path d="M321.9,29.903a2.36136,2.36136,0,0,1-.9.6,2.9585,2.9585,0,0,1-1,.2,1.69684,1.69684,0,0,1-1.3-.4,1.40812,1.40812,0,0,1-.3-1.8,1.20514,1.20514,0,0,1,.5-.5l.6-.3c.2,0,.4-.1.8-.1a15.69408,15.69408,0,0,0,1.6-.3v-.2a1.54917,1.54917,0,0,0-.2-.8,1.493,1.493,0,0,0-1-.3,1.99682,1.99682,0,0,0-.9.2c-.2.1-.3.4-.4.8l-.9-.1a1.88457,1.88457,0,0,1,.4-.9,1.57787,1.57787,0,0,1,.8-.5,3.72962,3.72962,0,0,1,1.2-.2,3.595,3.595,0,0,1,1.1.2.91831.91831,0,0,1,.6.4l.3.6v2a4.95314,4.95314,0,0,0,.1,1.5,1.42144,1.42144,0,0,0,.2.6h-.9C322,30.403,322,30.203,321.9,29.903Zm0-1.9a10.62677,10.62677,0,0,1-1.4.3,4.537,4.537,0,0,0-.8.2q-.3.15-.3.3a.60123.60123,0,0,0-.1.4.86433.86433,0,0,0,.3.6c.2.2.4.2.8.2a2.91973,2.91973,0,0,0,.9-.2,1.167,1.167,0,0,0,.6-.6,2.21941,2.21941,0,0,0,.1-.9v-.3Z"/>
            <path d="M326,29.803l.1.8a1.70178,1.70178,0,0,1-.7.1,1.16546,1.16546,0,0,1-.7-.2c-.1-.1-.3-.2-.4-.4a2.50832,2.50832,0,0,1-.1-1v-3h-.6v-.7h.6v-1.3l.9-.5v1.8h.9v.7h-.9v3.5c0,.1.1.1.2.2a.36737.36737,0,0,0,.3.1A.60118.60118,0,0,1,326,29.803Z"/>
            <path d="M328.8,29.803l.1.8a1.70178,1.70178,0,0,1-.7.1,1.16543,1.16543,0,0,1-.7-.2c-.1-.1-.3-.2-.4-.4a2.50855,2.50855,0,0,1-.1-1v-3h-.6v-.7h.6v-1.3l.9-.5v1.8h.9v.7h-.9v3.5c0,.1.1.1.2.2a.36735.36735,0,0,0,.3.1C328.5,29.803,328.6,29.803,328.8,29.803Z"/>
            <path d="M333.1,29.903a2.36146,2.36146,0,0,1-.9.6,2.95845,2.95845,0,0,1-1,.2,1.69686,1.69686,0,0,1-1.3-.4,1.40809,1.40809,0,0,1-.3-1.8,1.205,1.205,0,0,1,.5-.5l.6-.3c.2,0,.4-.1.8-.1a15.69434,15.69434,0,0,0,1.6-.3v-.2a1.54907,1.54907,0,0,0-.2-.8,1.493,1.493,0,0,0-1-.3,1.99682,1.99682,0,0,0-.9.2c-.2.1-.3.4-.4.8l-.9-.1a1.88448,1.88448,0,0,1,.4-.9,1.57779,1.57779,0,0,1,.8-.5,3.72969,3.72969,0,0,1,1.2-.2,3.595,3.595,0,0,1,1.1.2.91829.91829,0,0,1,.6.4l.3.6v2a4.95314,4.95314,0,0,0,.1,1.5,1.42144,1.42144,0,0,0,.2.6h-.9A.61583.61583,0,0,1,333.1,29.903Zm-.1-1.9a10.62677,10.62677,0,0,1-1.4.3,4.53717,4.53717,0,0,0-.8.2q-.3.15-.3.3a.60118.60118,0,0,0-.1.4.86435.86435,0,0,0,.3.6c.2.2.4.2.8.2a2.91967,2.91967,0,0,0,.9-.2,1.167,1.167,0,0,0,.6-.6,2.21941,2.21941,0,0,0,.1-.9v-.3Z"/>
          </g>
          <path id="Rectangle_181" data-name="Rectangle 181" d="M219.7,22.403h8a4.48129,4.48129,0,0,1,4.5,4.5h0a4.48129,4.48129,0,0,1-4.5,4.5h-8a4.48129,4.48129,0,0,1-4.5-4.5h0a4.48129,4.48129,0,0,1,4.5-4.5Z" fill="#c2faef"/>
        </g>
        <g id="Group_309" data-name="Group 309">
          <g style="isolation: isolate">
            <path d="M381.3,28.103l.9.2a3.26706,3.26706,0,0,1-1.1,1.8,2.88327,2.88327,0,0,1-1.9.6,3.55719,3.55719,0,0,1-1.9-.5,2.58643,2.58643,0,0,1-1.1-1.4,4.05828,4.05828,0,0,1-.4-1.9,4.47722,4.47722,0,0,1,.4-2,3.03916,3.03916,0,0,1,1.2-1.3,3.28687,3.28687,0,0,1,1.7-.4,3.45324,3.45324,0,0,1,1.8.5,2.67913,2.67913,0,0,1,1,1.5l-.9.2a2.32566,2.32566,0,0,0-.7-1.1,2.14429,2.14429,0,0,0-1.2-.4,2.29592,2.29592,0,0,0-1.4.4,2.25838,2.25838,0,0,0-.8,1.1,5.9019,5.9019,0,0,0-.2,1.4,4.14592,4.14592,0,0,0,.3,1.6,2.08908,2.08908,0,0,0,.8,1,2.66259,2.66259,0,0,0,1.2.3,1.901,1.901,0,0,0,1.3-.5A1.17516,1.17516,0,0,0,381.3,28.103Z"/>
            <path d="M386.7,29.903a2.36128,2.36128,0,0,1-.9.6,2.9585,2.9585,0,0,1-1,.2,1.6968,1.6968,0,0,1-1.3-.4,1.40807,1.40807,0,0,1-.3-1.8,1.205,1.205,0,0,1,.5-.5l.6-.3c.2,0,.4-.1.8-.1a15.69217,15.69217,0,0,0,1.6-.3v-.2a1.549,1.549,0,0,0-.2-.8,1.493,1.493,0,0,0-1-.3,1.99676,1.99676,0,0,0-.9.2c-.2.1-.3.4-.4.8l-.9-.1a1.88457,1.88457,0,0,1,.4-.9,1.57793,1.57793,0,0,1,.8-.5,3.72971,3.72971,0,0,1,1.2-.2,3.5951,3.5951,0,0,1,1.1.2.91829.91829,0,0,1,.6.4l.3.6v2a4.95314,4.95314,0,0,0,.1,1.5,1.4212,1.4212,0,0,0,.2.6h-.9A.75482.75482,0,0,1,386.7,29.903Zm-.1-1.9a10.62588,10.62588,0,0,1-1.4.3,4.53685,4.53685,0,0,0-.8.2c-.1.1-.3.2-.3.3a.60118.60118,0,0,0-.1.4.8644.8644,0,0,0,.3.6c.2.2.4.2.8.2a2.91986,2.91986,0,0,0,.9-.2,1.16712,1.16712,0,0,0,.6-.6,2.21962,2.21962,0,0,0,.1-.9v-.3Z"/>
            <path d="M388.9,30.603v-5.2h.8v.7a1.85244,1.85244,0,0,1,1.7-.9,2.91986,2.91986,0,0,1,.9.2,1.53775,1.53775,0,0,1,.6.4l.3.6v4.1h-.9v-3.2a1.719,1.719,0,0,0-.1-.8.78082.78082,0,0,0-.4-.4,1.42136,1.42136,0,0,0-.6-.2,1.28387,1.28387,0,0,0-1,.4c-.3.2-.4.7-.4,1.4v2.8h-.9Z"/>
            <path d="M397.8,28.703l.9.1a2.09663,2.09663,0,0,1-.7,1.4,2.38927,2.38927,0,0,1-1.4.5,2.06006,2.06006,0,0,1-1.7-.7,2.986,2.986,0,0,1-.6-2,3.65333,3.65333,0,0,1,.3-1.5,1.799,1.799,0,0,1,.8-.9,2.66263,2.66263,0,0,1,1.2-.3,2.116,2.116,0,0,1,1.4.4,1.85481,1.85481,0,0,1,.7,1.2l-.9.1a2.01031,2.01031,0,0,0-.4-.8,1.1355,1.1355,0,0,0-.8-.3,1.6059,1.6059,0,0,0-1.1.5,2.07579,2.07579,0,0,0-.4,1.5,2.07579,2.07579,0,0,0,.4,1.5,1.38859,1.38859,0,0,0,1,.5,1.61288,1.61288,0,0,0,.9-.3A1.88372,1.88372,0,0,0,397.8,28.703Z"/>
            <path d="M403,28.903l.9.1a1.99058,1.99058,0,0,1-.8,1.2,2.41006,2.41006,0,0,1-1.5.4,2.13946,2.13946,0,0,1-1.8-.7,3.01128,3.01128,0,0,1-.7-2,2.57814,2.57814,0,0,1,.7-2,2.19324,2.19324,0,0,1,1.7-.7,2.06,2.06,0,0,1,1.7.7,3.01113,3.01113,0,0,1,.7,2v.2H400a1.72755,1.72755,0,0,0,.5,1.3,1.60584,1.60584,0,0,0,1.1.5,1.13545,1.13545,0,0,0,.8-.3C402.7,29.503,402.8,29.303,403,28.903Zm-2.9-1.4H403a1.49307,1.49307,0,0,0-.3-1,1.43265,1.43265,0,0,0-1.1-.5,1.28384,1.28384,0,0,0-1,.4A1.43259,1.43259,0,0,0,400.1,27.503Z"/>
            <path d="M405,30.603v-7.2h.9v7.2Z"/>
            <path d="M407.2,30.603v-7.2h.9v7.2Z"/>
            <path d="M412.8,29.903a2.36131,2.36131,0,0,1-.9.6,2.9584,2.9584,0,0,1-1,.2,1.69678,1.69678,0,0,1-1.3-.4,1.40807,1.40807,0,0,1-.3-1.8,1.205,1.205,0,0,1,.5-.5l.6-.3c.2,0,.4-.1.8-.1a15.693,15.693,0,0,0,1.6-.3v-.2a1.54906,1.54906,0,0,0-.2-.8,1.493,1.493,0,0,0-1-.3,1.99677,1.99677,0,0,0-.9.2c-.2.1-.3.4-.4.8l-.9-.1a1.88467,1.88467,0,0,1,.4-.9,1.57789,1.57789,0,0,1,.8-.5,3.72966,3.72966,0,0,1,1.2-.2,3.595,3.595,0,0,1,1.1.2.91834.91834,0,0,1,.6.4l.3.6v2a4.95362,4.95362,0,0,0,.1,1.5,1.42122,1.42122,0,0,0,.2.6H413A1.44521,1.44521,0,0,1,412.8,29.903Zm-.1-1.9a10.626,10.626,0,0,1-1.4.3,4.53637,4.53637,0,0,0-.8.2c-.1.1-.3.2-.3.3a.60123.60123,0,0,0-.1.4.86438.86438,0,0,0,.3.6c.2.2.4.2.8.2a2.91986,2.91986,0,0,0,.9-.2,1.1671,1.1671,0,0,0,.6-.6,2.21941,2.21941,0,0,0,.1-.9v-.3Z"/>
            <path d="M414.5,30.603v-.7l3.3-3.8h-3.1v-.7h4.2v.6l-2.8,3.3-.5.6h3.5v.8h-4.6Z"/>
            <path d="M420,24.403v-1h.9v1Zm0,6.2v-5.2h.9v5.2Z"/>
            <path d="M421.9,28.003a2.56377,2.56377,0,0,1,.8-2.1,2.271,2.271,0,0,1,1.6-.6,2.06,2.06,0,0,1,1.7.7,2.48949,2.48949,0,0,1,.7,1.9,3.50637,3.50637,0,0,1-.3,1.6,1.96229,1.96229,0,0,1-.9.9,2.76806,2.76806,0,0,1-1.3.3,2.40984,2.40984,0,0,1-1.8-.7A3.67692,3.67692,0,0,1,421.9,28.003Zm.9,0a2.07579,2.07579,0,0,0,.4,1.5,1.46,1.46,0,0,0,2.2,0,2.07578,2.07578,0,0,0,.4-1.5,2.41012,2.41012,0,0,0-.4-1.5,1.46,1.46,0,0,0-2.2,0A2.07579,2.07579,0,0,0,422.8,28.003Z"/>
            <path d="M427.8,30.603v-5.2h.8v.7a1.85242,1.85242,0,0,1,1.7-.9,2.9198,2.9198,0,0,1,.9.2,1.53788,1.53788,0,0,1,.6.4l.3.6v4.1h-.9v-3.2a1.71917,1.71917,0,0,0-.1-.8.78087.78087,0,0,0-.4-.4,1.42132,1.42132,0,0,0-.6-.2,1.28384,1.28384,0,0,0-1,.4c-.3.2-.4.7-.4,1.4v2.8h-.9Z"/>
            <path d="M436.9,28.903l.9.1a1.99064,1.99064,0,0,1-.8,1.2,2.41,2.41,0,0,1-1.5.4,2.13947,2.13947,0,0,1-1.8-.7,3.01134,3.01134,0,0,1-.7-2,2.57814,2.57814,0,0,1,.7-2,2.19324,2.19324,0,0,1,1.7-.7,2.06006,2.06006,0,0,1,1.7.7,3.01118,3.01118,0,0,1,.7,2v.2H434a1.72755,1.72755,0,0,0,.5,1.3,1.60584,1.60584,0,0,0,1.1.5,1.13545,1.13545,0,0,0,.8-.3A.9895.9895,0,0,0,436.9,28.903Zm-2.9-1.4h2.9a1.49307,1.49307,0,0,0-.3-1,1.43267,1.43267,0,0,0-1.1-.5,1.28387,1.28387,0,0,0-1,.4A1.43269,1.43269,0,0,0,434,27.503Z"/>
            <path d="M445.1,28.703l.9.1a2.09668,2.09668,0,0,1-.7,1.4,2.38933,2.38933,0,0,1-1.4.5,2.06005,2.06005,0,0,1-1.7-.7,2.986,2.986,0,0,1-.6-2,3.65349,3.65349,0,0,1,.3-1.5,1.799,1.799,0,0,1,.8-.9,2.66263,2.66263,0,0,1,1.2-.3,2.116,2.116,0,0,1,1.4.4,1.85485,1.85485,0,0,1,.7,1.2l-.9.1a2.01044,2.01044,0,0,0-.4-.8,1.13551,1.13551,0,0,0-.8-.3,1.6059,1.6059,0,0,0-1.1.5,2.07578,2.07578,0,0,0-.4,1.5,2.07578,2.07578,0,0,0,.4,1.5,1.38858,1.38858,0,0,0,1,.5,1.61291,1.61291,0,0,0,.9-.3A1.88439,1.88439,0,0,0,445.1,28.703Z"/>
            <path d="M446.3,28.003a2.56377,2.56377,0,0,1,.8-2.1,2.271,2.271,0,0,1,1.6-.6,2.06,2.06,0,0,1,1.7.7,2.48949,2.48949,0,0,1,.7,1.9,3.50651,3.50651,0,0,1-.3,1.6,1.96227,1.96227,0,0,1-.9.9,2.768,2.768,0,0,1-1.3.3,2.40983,2.40983,0,0,1-1.8-.7A4.84881,4.84881,0,0,1,446.3,28.003Zm1,0a2.07579,2.07579,0,0,0,.4,1.5,1.46,1.46,0,0,0,2.2,0,2.07578,2.07578,0,0,0,.4-1.5,2.41012,2.41012,0,0,0-.4-1.5,1.46,1.46,0,0,0-2.2,0A2.07579,2.07579,0,0,0,447.3,28.003Z"/>
            <path d="M452.2,30.603v-5.2h.8v.7a1.85242,1.85242,0,0,1,1.7-.9,2.91986,2.91986,0,0,1,.9.2,1.53783,1.53783,0,0,1,.6.4l.3.6v4.1h-.9v-3.2a1.719,1.719,0,0,0-.1-.8.78085.78085,0,0,0-.4-.4,1.4214,1.4214,0,0,0-.6-.2,1.28387,1.28387,0,0,0-1,.4c-.3.2-.4.7-.4,1.4v2.8h-.9Z"/>
            <path d="M461.2,28.703l.9.1a2.09664,2.09664,0,0,1-.7,1.4,2.38927,2.38927,0,0,1-1.4.5,2.06,2.06,0,0,1-1.7-.7,2.98594,2.98594,0,0,1-.6-2,3.6535,3.6535,0,0,1,.3-1.5,1.79893,1.79893,0,0,1,.8-.9,2.66259,2.66259,0,0,1,1.2-.3,2.116,2.116,0,0,1,1.4.4,1.85482,1.85482,0,0,1,.7,1.2l-.9.1a2.01029,2.01029,0,0,0-.4-.8,1.13551,1.13551,0,0,0-.8-.3,1.60592,1.60592,0,0,0-1.1.5,2.07583,2.07583,0,0,0-.4,1.5,2.07583,2.07583,0,0,0,.4,1.5,1.38859,1.38859,0,0,0,1,.5,1.61294,1.61294,0,0,0,.9-.3A1.88429,1.88429,0,0,0,461.2,28.703Z"/>
            <path d="M462.8,30.603v-5.2h.8v.8a1.44054,1.44054,0,0,1,.6-.7,1.42136,1.42136,0,0,1,.6-.2,1.61291,1.61291,0,0,1,.9.3l-.3.8a1.42132,1.42132,0,0,0-.6-.2.76383.76383,0,0,0-.5.2.54992.54992,0,0,0-.3.5,3.40164,3.40164,0,0,0-.1,1v2.7Z"/>
            <path d="M469.7,28.903l.9.1a1.99064,1.99064,0,0,1-.8,1.2,2.41006,2.41006,0,0,1-1.5.4,2.13946,2.13946,0,0,1-1.8-.7,3.01134,3.01134,0,0,1-.7-2,2.57814,2.57814,0,0,1,.7-2,2.19324,2.19324,0,0,1,1.7-.7,2.06,2.06,0,0,1,1.7.7,3.01113,3.01113,0,0,1,.7,2v.2h-3.9a1.72759,1.72759,0,0,0,.5,1.3,1.60586,1.60586,0,0,0,1.1.5,1.13546,1.13546,0,0,0,.8-.3C469.4,29.503,469.5,29.303,469.7,28.903Zm-2.9-1.4h2.9a1.493,1.493,0,0,0-.3-1,1.43263,1.43263,0,0,0-1.1-.5,1.28385,1.28385,0,0,0-1,.4A1.43269,1.43269,0,0,0,466.8,27.503Z"/>
            <path d="M473.6,29.803l.1.8a1.70183,1.70183,0,0,1-.7.1,1.16554,1.16554,0,0,1-.7-.2c-.1-.1-.3-.2-.3-.4a2.50832,2.50832,0,0,1-.1-1v-3h-.6v-.7h.6v-1.3l.9-.5v1.8h.9v.7h-.9v3.5c0,.1.1.1.2.2.1,0,.2.1.3.1C473.3,29.803,473.5,29.803,473.6,29.803Z"/>
            <path d="M477.9,29.903a2.36121,2.36121,0,0,1-.9.6,2.9585,2.9585,0,0,1-1,.2,1.6968,1.6968,0,0,1-1.3-.4,1.40807,1.40807,0,0,1-.3-1.8,1.205,1.205,0,0,1,.5-.5l.6-.3c.2,0,.4-.1.8-.1a15.69217,15.69217,0,0,0,1.6-.3v-.2a1.549,1.549,0,0,0-.2-.8,1.493,1.493,0,0,0-1-.3,1.99676,1.99676,0,0,0-.9.2c-.2.1-.3.4-.4.8l-.9-.1a1.88467,1.88467,0,0,1,.4-.9,1.578,1.578,0,0,1,.8-.5,3.72971,3.72971,0,0,1,1.2-.2,3.5951,3.5951,0,0,1,1.1.2.91834.91834,0,0,1,.6.4l.3.6v2a4.95314,4.95314,0,0,0,.1,1.5,1.42134,1.42134,0,0,0,.2.6H478A1.48263,1.48263,0,0,1,477.9,29.903Zm-.1-1.9a10.62588,10.62588,0,0,1-1.4.3,4.53644,4.53644,0,0,0-.8.2c-.1.1-.3.2-.3.3a.60118.60118,0,0,0-.1.4.8644.8644,0,0,0,.3.6c.2.2.4.2.8.2a2.9198,2.9198,0,0,0,.9-.2,1.16712,1.16712,0,0,0,.6-.6,2.21962,2.21962,0,0,0,.1-.9v-.3Z"/>
          </g>
          <path id="Rectangle_182" data-name="Rectangle 182" d="M359.5,22.403h8a4.48129,4.48129,0,0,1,4.5,4.5h0a4.48129,4.48129,0,0,1-4.5,4.5h-8a4.48129,4.48129,0,0,1-4.5-4.5h0a4.48129,4.48129,0,0,1,4.5-4.5Z" fill="#00c19c"/>
        </g>
      </g>
    </g>
  </g>
</svg>
