<svg xmlns="http://www.w3.org/2000/svg" xmlns:xlink="http://www.w3.org/1999/xlink" width="695" height="32" viewBox="0 0 695 32">
  <defs>
    <clipPath id="clip-legend">
      <rect width="695" height="32"/>
    </clipPath>
  </defs>
  <g id="legend" clip-path="url(#clip-legend)">
    <g id="Group_304" transform="translate(102 7.303)">
      <g id="Group_305" transform="translate(8350 -9660.325)">
        <g id="dimensione" transform="translate(-8032 9661.423)">
          <g id="dimensione-X">
            <g id="Group-7">
              <text id="Numero_di_occorrenze_nel_tempo" data-name="Numero di occorrenze nel tempo" transform="translate(124.202 21.971)" font-size="10" font-family="HKGrotesk-Regular, HK Grotesk"><tspan x="0" y="0">Numero di occorrenze nel tempo</tspan></text>
              <g id="Group_24080" data-name="Group 24080">
                <g id="Group_24075" data-name="Group 24075">
                  <line id="Line_7887" data-name="Line 7887" y2="30.4" transform="translate(111.7 -7.4)" fill="none"/>
                  <g id="Group_24074" data-name="Group 24074">
                    <line id="Line_7888" data-name="Line 7888" y2="30.1" transform="translate(111.7 -7.2)" fill="none" stroke="#1d1d1b" stroke-miterlimit="10" stroke-width="0.25"/>
                    <g id="Group_24072" data-name="Group 24072">
                      <rect id="Rectangle_19227" data-name="Rectangle 19227" width="1.6" height="0.2" transform="translate(110.9 -7.4)" fill="#1d1d1b"/>
                    </g>
                    <g id="Group_24073" data-name="Group 24073">
                      <rect id="Rectangle_19228" data-name="Rectangle 19228" width="1.6" height="0.2" transform="translate(110.9 22.8)" fill="#1d1d1b"/>
                    </g>
                  </g>
                </g>
                <g id="Group_24077" data-name="Group 24077">
                  <line id="Line_7889" data-name="Line 7889" x2="15.5" transform="translate(94.6 -7.4)" fill="none"/>
                  <g id="Group_24076" data-name="Group 24076">
                    <line id="Line_7890" data-name="Line 7890" x2="0.5" transform="translate(94.6 -7.4)" fill="none" stroke="#1d1d1b" stroke-miterlimit="10" stroke-width="0.26"/>
                    <line id="Line_7891" data-name="Line 7891" x2="12.9" transform="translate(96.2 -7.4)" fill="none" stroke="#1d1d1b" stroke-miterlimit="10" stroke-width="0.26" stroke-dasharray="1.115 1.115"/>
                    <line id="Line_7892" data-name="Line 7892" x2="0.5" transform="translate(109.6 -7.4)" fill="none" stroke="#1d1d1b" stroke-miterlimit="10" stroke-width="0.26"/>
                  </g>
                </g>
                <path id="Path_148123" data-name="Path 148123" d="M94.6-7.4c-6.1,0-6.1,25.9-12.2,25.9S76.3,23,70.2,23h36.7C100.7,23,100.7-7.4,94.6-7.4Z" fill="none" stroke="#1d1d1b" stroke-miterlimit="10" stroke-width="0.25"/>
                <g id="Group_24079" data-name="Group 24079">
                  <line id="Line_7893" data-name="Line 7893" x2="3.3" transform="translate(106.8 23)" fill="none"/>
                  <g id="Group_24078" data-name="Group 24078">
                    <line id="Line_7894" data-name="Line 7894" x2="0.5" transform="translate(106.8 23)" fill="none" stroke="#1d1d1b" stroke-miterlimit="10" stroke-width="0.26"/>
                    <line id="Line_7895" data-name="Line 7895" x2="1.1" transform="translate(108.1 23)" fill="none" stroke="#1d1d1b" stroke-miterlimit="10" stroke-width="0.26" stroke-dasharray="0.758 0.758"/>
                    <line id="Line_7896" data-name="Line 7896" x2="0.5" transform="translate(109.6 23)" fill="none" stroke="#1d1d1b" stroke-miterlimit="10" stroke-width="0.26"/>
                  </g>
                </g>
              </g>
            </g>
          </g>
        </g>
      </g>
      <g id="Group_306">
        <g id="Group_312">
          <text id="Nebbia_astratta" data-name="Nebbia astratta" transform="translate(-82.042 23.276)" font-size="10" font-family="HKGrotesk-Regular, HK Grotesk"><tspan x="0" y="0">Nebbia astratta</tspan></text>
          <path id="Rectangle_179" d="M-97.5,15.1h8A4.481,4.481,0,0,1-85,19.6h0a4.481,4.481,0,0,1-4.5,4.5h-8a4.481,4.481,0,0,1-4.5-4.5h0A4.481,4.481,0,0,1-97.5,15.1Z" fill="#c5c5fc"/>
        </g>
      </g>
      <g id="Group_307" transform="translate(-9)">
        <text id="Nebbia_concreta" data-name="Nebbia concreta" transform="translate(31.189 23.276)" font-size="10" font-family="HKGrotesk-Regular, HK Grotesk"><tspan x="0" y="0">Nebbia concreta</tspan></text>
        <path id="Rectangle_180" d="M15.7,15.1h8a4.481,4.481,0,0,1,4.5,4.5h0a4.481,4.481,0,0,1-4.5,4.5h-8a4.481,4.481,0,0,1-4.5-4.5h0A4.481,4.481,0,0,1,15.7,15.1Z" fill="#5151fc"/>
      </g>
      <g id="Group_308" transform="translate(-18)">
        <text id="Cancellazione_astratta" data-name="Cancellazione astratta" transform="translate(151.625 23.276)" font-size="10" font-family="HKGrotesk-Regular, HK Grotesk"><tspan x="0" y="0">Cancellazione astratta</tspan></text>
        <path id="Rectangle_181" d="M135.7,15.1h8a4.481,4.481,0,0,1,4.5,4.5h0a4.481,4.481,0,0,1-4.5,4.5h-8a4.481,4.481,0,0,1-4.5-4.5h0A4.481,4.481,0,0,1,135.7,15.1Z" fill="#c2faef"/>
      </g>
      <g id="Group_309" transform="translate(-27)">
        <text id="Cancellazione_concreta" data-name="Cancellazione concreta" transform="translate(300.422 23.276)" font-size="10" font-family="HKGrotesk-Regular, HK Grotesk"><tspan x="0" y="0">Cancellazione concreta</tspan></text>
        <path id="Rectangle_182" d="M284.5,15.1h8a4.481,4.481,0,0,1,4.5,4.5h0a4.481,4.481,0,0,1-4.5,4.5h-8a4.481,4.481,0,0,1-4.5-4.5h0A4.481,4.481,0,0,1,284.5,15.1Z" fill="#00c19c"/>
      </g>
    </g>
  </g>
</svg>
