<?xml version="1.0" encoding="utf-8"?>
<!-- Generator: Adobe Illustrator 25.1.0, SVG Export Plug-In . SVG Version: 6.00 Build 0)  -->
<svg version="1.1" id="Livello_1" xmlns="http://www.w3.org/2000/svg" xmlns:xlink="http://www.w3.org/1999/xlink" x="0px" y="0px"
	 viewBox="0 0 695 32" enable-background="new 0 0 695 32" xml:space="preserve">
<g>
	<defs>
		<rect id="SVGID_1_" y="0" width="695" height="32"/>
	</defs>
	<clipPath id="SVGID_2_">
		<use xlink:href="#SVGID_1_"  overflow="visible"/>
	</clipPath>
	<g id="legend" clip-path="url(#SVGID_2_)">
		<g id="Raggruppa_24965">
			<g id="Raggruppa_24947" transform="translate(-72)">
				<g id="Group-7" transform="translate(422 7.4)">
					<g enable-background="new    ">
						<path d="M130.25879,15.00546v6.96582h-0.7793l-3.42871-5.75684v5.75684h-0.70996v-6.96582h0.77051l3.4375,5.72656v-5.72656
							H130.25879z"/>
						<path d="M136.11914,17.04354v4.92773h-0.68945v-0.70996c-0.34961,0.53027-0.97949,0.79004-1.62891,0.79004
							c-1.12012,0-1.60938-0.76953-1.60938-1.98926v-3.01855h0.68945v2.84863c0,0.7998,0.13965,1.5498,1.0791,1.5498
							c0.97949,0,1.46973-0.84961,1.46973-2.12891v-2.26953H136.11914z"/>
						<path d="M144.69727,18.89315v3.07812h-0.68945v-2.88867c0-0.41992,0-1.50879-1.0791-1.50879
							c-1,0-1.26953,0.91895-1.26953,2.02832v2.36914h-0.68945v-2.84863c0-0.81934-0.25-1.54883-1.10938-1.54883
							c-0.95996,0-1.22949,0.90918-1.22949,2.02832v2.36914h-0.68945l-0.01074-4.92773h0.66992v0.60059
							c0.30957-0.49023,0.80957-0.67969,1.35938-0.67969c0.68945,0,1.19922,0.2998,1.44922,0.94922
							c0.31934-0.62988,0.86914-0.94922,1.61914-0.94922C144.20801,16.96444,144.69727,17.74374,144.69727,18.89315z"/>
						<path d="M150.9082,19.50253c0,1.46973-0.74902,2.54883-2.18848,2.54883c-0.71973,0-1.26953-0.28027-1.62891-0.73926v0.65918
							h-0.68945v-6.96582h0.68945v2.69824c0.36914-0.47949,0.92969-0.75,1.62891-0.75
							C150.08887,16.9537,150.9082,17.96346,150.9082,19.50253z M150.21875,19.50253c0-1.16895-0.59961-1.93848-1.59863-1.93848
							c-0.99023,0-1.58984,0.76953-1.58984,1.93848c0,1.11914,0.5498,1.93945,1.58984,1.93945
							C149.66895,21.44198,150.21875,20.62167,150.21875,19.50253z"/>
						<path d="M156.23828,19.69296h-3.60742c0.01953,1.0791,0.61914,1.72852,1.58887,1.72852
							c0.54004,0,0.96973-0.13965,1.41895-0.61914l0.48047,0.41895c-0.58008,0.61035-1.14941,0.83008-1.90918,0.83008
							c-1.49902,0-2.26855-1.11914-2.26855-2.51855c0-1.38965,0.75977-2.56836,2.18848-2.56836
							c1.50879,0,2.13867,1.17871,2.13867,2.29785C156.26855,19.40292,156.25879,19.57284,156.23828,19.69296z M152.63086,19.11288
							h2.97852c0-0.02051-0.01074-0.07031-0.01074-0.16016c-0.0498-0.7998-0.55957-1.40918-1.46875-1.40918
							C153.24023,17.54354,152.69043,18.24374,152.63086,19.11288z"/>
						<path d="M160.65918,17.1744l-0.33984,0.55957c-0.22949-0.10059-0.43945-0.15039-0.64941-0.15039
							c-0.75977,0-1.31934,0.56934-1.31934,1.63965v2.74805h-0.68945v-4.92773h0.68945v0.74023
							c0.36035-0.64941,0.95996-0.81934,1.45898-0.81934C160.11035,16.96444,160.38965,17.02401,160.65918,17.1744z"/>
						<path d="M163.98145,19.50253c0-1.45898,0.94922-2.53809,2.3584-2.53809c1.39941,0,2.36816,1.0791,2.36816,2.53809
							c0,1.44922-0.95898,2.54883-2.36816,2.54883S163.98145,20.96151,163.98145,19.50253z M168.01855,19.50253
							c0-1.11914-0.62988-1.92871-1.67871-1.92871c-1.05957,0-1.66895,0.81934-1.66895,1.92871
							c0,1.11914,0.61914,1.93945,1.66895,1.93945C167.39941,21.44198,168.01855,20.60214,168.01855,19.50253z"/>
						<path d="M170.40039,17.62362h-1.03906v-0.58008h1.04883v-0.75879c0-1.0498,0.61035-1.35938,1.23926-1.35938
							c0.27051,0,0.57031,0.05957,0.87988,0.18945l-0.24023,0.5498c-0.20996-0.09961-0.39941-0.16016-0.56934-0.16016
							c-0.38965,0-0.62988,0.27051-0.62988,0.72949v0.80957h1.41992v0.58008h-1.41992v4.34766h-0.68945V17.62362z"/>
						<path d="M175.8916,19.50253c0-1.45898,0.94922-2.53809,2.3584-2.53809c1.39941,0,2.36816,1.0791,2.36816,2.53809
							c0,1.44922-0.95898,2.54883-2.36816,2.54883S175.8916,20.96151,175.8916,19.50253z M179.92871,19.50253
							c0-1.11914-0.62988-1.92871-1.67871-1.92871c-1.05957,0-1.66895,0.81934-1.66895,1.92871
							c0,1.11914,0.61914,1.93945,1.66895,1.93945C179.30957,21.44198,179.92871,20.60214,179.92871,19.50253z"/>
						<path d="M181.60059,19.52304c0-1.2998,0.72949-2.55859,2.21875-2.55859c0.87988,0,1.60938,0.43945,1.99902,1.3584
							l-0.66016,0.26074c-0.22949-0.62988-0.71875-1.00977-1.33887-1.00977c-1.0498,0-1.51953,0.93945-1.51953,1.94922
							c0,1.00879,0.46973,1.91895,1.5293,1.91895c0.62012,0,1.10938-0.37012,1.2998-1l0.63965,0.24023
							c-0.33008,0.89941-1.0498,1.36914-1.93945,1.36914C182.40039,22.05136,181.60059,20.89218,181.60059,19.52304z"/>
						<path d="M186.63086,19.52304c0-1.2998,0.72949-2.55859,2.21875-2.55859c0.87988,0,1.60938,0.43945,1.99902,1.3584
							l-0.66016,0.26074c-0.22949-0.62988-0.71875-1.00977-1.33887-1.00977c-1.0498,0-1.51953,0.93945-1.51953,1.94922
							c0,1.00879,0.46973,1.91895,1.5293,1.91895c0.62012,0,1.10938-0.37012,1.2998-1l0.63965,0.24023
							c-0.33008,0.89941-1.0498,1.36914-1.93945,1.36914C187.43066,22.05136,186.63086,20.89218,186.63086,19.52304z"/>
						<path d="M195.87793,17.04354v4.92773h-0.68945v-0.70996c-0.34961,0.53027-0.97949,0.79004-1.62891,0.79004
							c-1.11914,0-1.60938-0.76953-1.60938-1.98926v-3.01855h0.68945v2.84863c0,0.7998,0.14062,1.5498,1.08008,1.5498
							c0.97949,0,1.46875-0.84961,1.46875-2.12891v-2.26953H195.87793z"/>
						<path d="M200.69824,17.1744l-0.33984,0.55957c-0.22949-0.10059-0.43945-0.15039-0.64941-0.15039
							c-0.75977,0-1.31934,0.56934-1.31934,1.63965v2.74805h-0.68945v-4.92773h0.68945v0.74023
							c0.36035-0.64941,0.95996-0.81934,1.45898-0.81934C200.14941,16.96444,200.42871,17.02401,200.69824,17.1744z"/>
						<path d="M204.71875,17.1744l-0.33984,0.55957c-0.22949-0.10059-0.43945-0.15039-0.64941-0.15039
							c-0.75977,0-1.31934,0.56934-1.31934,1.63965v2.74805h-0.68945v-4.92773h0.68945v0.74023
							c0.35938-0.64941,0.95898-0.81934,1.45898-0.81934C204.16895,16.96444,204.44922,17.02401,204.71875,17.1744z"/>
						<path d="M209.18848,19.69296h-3.6084c0.02051,1.0791,0.62012,1.72852,1.58984,1.72852
							c0.53906,0,0.96875-0.13965,1.41895-0.61914l0.47949,0.41895c-0.5791,0.61035-1.14941,0.83008-1.90918,0.83008
							c-1.49902,0-2.26855-1.11914-2.26855-2.51855c0-1.38965,0.75977-2.56836,2.18945-2.56836
							c1.50879,0,2.13867,1.17871,2.13867,2.29785C209.21875,19.40292,209.20801,19.57284,209.18848,19.69296z M205.58008,19.11288
							h2.97852c0-0.02051-0.00977-0.07031-0.00977-0.16016c-0.0498-0.7998-0.55957-1.40918-1.46875-1.40918
							C206.19043,17.54354,205.64062,18.24374,205.58008,19.11288z"/>
						<path d="M214.53809,18.95272v3.01855h-0.68945v-2.84863c0-1.05957-0.33984-1.54883-1.0791-1.54883
							c-0.92969,0-1.46973,0.7998-1.46973,2.18848v2.20898h-0.68945v-4.92773h0.68945v0.71973
							c0.32031-0.49902,0.91992-0.79883,1.62891-0.79883C213.98828,16.96444,214.53809,17.64413,214.53809,18.95272z"/>
						<path d="M215.83008,19.52304c0-1.2998,0.73047-2.55859,2.21973-2.55859c0.87891,0,1.6084,0.43945,1.99805,1.3584
							l-0.65918,0.26074c-0.22949-0.62988-0.71973-1.00977-1.33887-1.00977c-1.0498,0-1.51953,0.93945-1.51953,1.94922
							c0,1.00879,0.46973,1.91895,1.5293,1.91895c0.61914,0,1.10938-0.37012,1.29883-1l0.63965,0.24023
							c-0.33008,0.89941-1.04883,1.36914-1.93848,1.36914C216.62988,22.05136,215.83008,20.89218,215.83008,19.52304z"/>
						<path d="M225.16797,19.69296h-3.6084c0.02051,1.0791,0.62012,1.72852,1.58984,1.72852
							c0.53906,0,0.96875-0.13965,1.41895-0.61914l0.47949,0.41895c-0.5791,0.61035-1.14941,0.83008-1.90918,0.83008
							c-1.49902,0-2.26855-1.11914-2.26855-2.51855c0-1.38965,0.75977-2.56836,2.18945-2.56836
							c1.50879,0,2.13867,1.17871,2.13867,2.29785C225.19824,19.40292,225.1875,19.57284,225.16797,19.69296z M221.55957,19.11288
							h2.97852c0-0.02051-0.00977-0.07031-0.00977-0.16016c-0.0498-0.7998-0.55957-1.40918-1.46875-1.40918
							C222.16992,17.54354,221.62012,18.24374,221.55957,19.11288z"/>
						<path d="M226.06055,20.76229l0.58008-0.25977c0.17969,0.50977,0.65918,0.93945,1.42871,0.93945
							c0.66992,0,1.09961-0.33008,1.09961-0.84961c0-1.30957-2.83887-0.49023-2.83887-2.23926
							c0-0.85938,0.7002-1.38867,1.68945-1.38867c0.79004,0,1.42969,0.3291,1.76953,1.0293l-0.5498,0.2998
							c-0.24023-0.44043-0.62988-0.71973-1.23926-0.71973c-0.61035,0-1,0.25-1,0.67969c0,1.16895,2.84863,0.42969,2.84863,2.29883
							c0,0.99902-0.81934,1.49902-1.76855,1.49902C227.11035,22.05136,226.32031,21.55136,226.06055,20.76229z"/>
						<path d="M233.55078,19.50253c0-1.45898,0.94922-2.53809,2.3584-2.53809c1.39941,0,2.36816,1.0791,2.36816,2.53809
							c0,1.44922-0.95898,2.54883-2.36816,2.54883S233.55078,20.96151,233.55078,19.50253z M237.58789,19.50253
							c0-1.11914-0.62988-1.92871-1.67871-1.92871c-1.05957,0-1.66895,0.81934-1.66895,1.92871
							c0,1.11914,0.61914,1.93945,1.66895,1.93945C236.96875,21.44198,237.58789,20.60214,237.58789,19.50253z"/>
						<path d="M238.81055,17.04354h0.75l1.54883,4.04785l1.55859-4.04785h0.75977l-2.01855,4.92773h-0.58984L238.81055,17.04354z"/>
						<path d="M248.28711,19.69296h-3.60742c0.01953,1.0791,0.61914,1.72852,1.58887,1.72852
							c0.54004,0,0.96973-0.13965,1.41895-0.61914l0.48047,0.41895c-0.58008,0.61035-1.14941,0.83008-1.90918,0.83008
							c-1.49902,0-2.26855-1.11914-2.26855-2.51855c0-1.38965,0.75977-2.56836,2.18848-2.56836
							c1.50879,0,2.13867,1.17871,2.13867,2.29785C248.31738,19.40292,248.30762,19.57284,248.28711,19.69296z M244.67969,19.11288
							h2.97852c0-0.02051-0.01074-0.07031-0.01074-0.16016c-0.0498-0.7998-0.55957-1.40918-1.46875-1.40918
							C245.28906,17.54354,244.73926,18.24374,244.67969,19.11288z"/>
						<path d="M252.70801,17.1744l-0.33984,0.55957c-0.22949-0.10059-0.43945-0.15039-0.64941-0.15039
							c-0.75977,0-1.31934,0.56934-1.31934,1.63965v2.74805h-0.68945v-4.92773h0.68945v0.74023
							c0.36035-0.64941,0.95996-0.81934,1.45898-0.81934C252.15918,16.96444,252.43848,17.02401,252.70801,17.1744z"/>
						<path d="M258.50879,21.92147c-0.25977,0.08008-0.51953,0.12988-0.74902,0.12988c-0.66016,0-1.13965-0.37012-1.13965-1.23926
							v-3.18848h-0.81934v-0.58008h0.81934v-1.37891l0.68945-0.51953v1.89844h1.18945v0.58008h-1.18945v3.09863
							c0,0.47949,0.21973,0.69922,0.60938,0.69922c0.16992,0,0.36035-0.04004,0.58008-0.10938L258.50879,21.92147z"/>
						<path d="M259.75977,15.00546h0.7998v1.01953h-0.7998V15.00546z M259.82031,17.04354h0.68945v4.92773h-0.68945V17.04354z"/>
						<path d="M269.08594,18.89315v3.07812h-0.68945v-2.88867c0-0.41992,0-1.50879-1.0791-1.50879
							c-1,0-1.26953,0.91895-1.26953,2.02832v2.36914h-0.68945v-2.84863c0-0.81934-0.25-1.54883-1.10938-1.54883
							c-0.95996,0-1.22949,0.90918-1.22949,2.02832v2.36914h-0.68945l-0.01074-4.92773h0.66992v0.60059
							c0.30957-0.49023,0.80957-0.67969,1.35938-0.67969c0.68945,0,1.19922,0.2998,1.44922,0.94922
							c0.31934-0.62988,0.86914-0.94922,1.61914-0.94922C268.59668,16.96444,269.08594,17.74374,269.08594,18.89315z"/>
						<path d="M274.6875,19.69296h-3.6084c0.02051,1.0791,0.62012,1.72852,1.58984,1.72852
							c0.53906,0,0.96875-0.13965,1.41895-0.61914l0.47949,0.41895c-0.5791,0.61035-1.14941,0.83008-1.90918,0.83008
							c-1.49902,0-2.26855-1.11914-2.26855-2.51855c0-1.38965,0.75977-2.56836,2.18945-2.56836
							c1.50879,0,2.13867,1.17871,2.13867,2.29785C274.71777,19.40292,274.70703,19.57284,274.6875,19.69296z M271.0791,19.11288
							h2.97852c0-0.02051-0.00977-0.07031-0.00977-0.16016c-0.0498-0.7998-0.55957-1.40918-1.46875-1.40918
							C271.68945,17.54354,271.13965,18.24374,271.0791,19.11288z"/>
					</g>
					<g id="Raggruppa_24080" transform="translate(5)">
						<g id="Raggruppa_24075">
							<line id="Linea_7887" fill="none" x1="111.7" y1="-7.4" x2="111.7" y2="23"/>
							<g id="Raggruppa_24074">
								
									<line id="Linea_7888" fill="none" stroke="#1D1D1B" stroke-width="0.25" stroke-miterlimit="10" x1="111.7" y1="-7.2" x2="111.7" y2="22.9"/>
								<g id="Raggruppa_24072">
									<rect id="Rettangolo_19227" x="110.9" y="-7.4" fill="#1D1D1B" width="1.6" height="0.2"/>
								</g>
								<g id="Raggruppa_24073">
									<rect id="Rettangolo_19228" x="110.9" y="22.8" fill="#1D1D1B" width="1.6" height="0.2"/>
								</g>
							</g>
						</g>
						<g id="Raggruppa_24077">
							<line id="Linea_7889" fill="none" x1="94.6" y1="-7.4" x2="110.1" y2="-7.4"/>
							<g id="Raggruppa_24076">
								
									<line id="Linea_7890" fill="none" stroke="#1D1D1B" stroke-width="0.26" stroke-miterlimit="10" x1="94.6" y1="-7.4" x2="95.1" y2="-7.4"/>
								
									<line id="Linea_7891" fill="none" stroke="#1D1D1B" stroke-width="0.26" stroke-miterlimit="10" stroke-dasharray="1.115,1.115" x1="96.2" y1="-7.4" x2="109.1" y2="-7.4"/>
								
									<line id="Linea_7892" fill="none" stroke="#1D1D1B" stroke-width="0.26" stroke-miterlimit="10" x1="109.6" y1="-7.4" x2="110.1" y2="-7.4"/>
							</g>
						</g>
						<path id="Tracciato_148123" fill="none" stroke="#1D1D1B" stroke-width="0.25" stroke-miterlimit="10" d="M94.6-7.4
							c-6.1,0-6.1,25.9-12.2,25.9S76.3,23,70.2,23h36.7C100.7,23,100.7-7.4,94.6-7.4z"/>
						<g id="Raggruppa_24079">
							<line id="Linea_7893" fill="none" x1="106.8" y1="23" x2="110.10001" y2="23"/>
							<g id="Raggruppa_24078">
								
									<line id="Linea_7894" fill="none" stroke="#1D1D1B" stroke-width="0.26" stroke-miterlimit="10" x1="106.8" y1="23" x2="107.3" y2="23"/>
								
									<line id="Linea_7895" fill="none" stroke="#1D1D1B" stroke-width="0.26" stroke-miterlimit="10" stroke-dasharray="0.758,0.758" x1="108.1" y1="23" x2="109.2" y2="23"/>
								
									<line id="Linea_7896" fill="none" stroke="#1D1D1B" stroke-width="0.26" stroke-miterlimit="10" x1="109.6" y1="23" x2="110.1" y2="23"/>
							</g>
						</g>
					</g>
				</g>
			</g>
			<g id="Raggruppa_24944">
				<g enable-background="new    ">
					<path d="M30.66553,28.70917h-2.89844l-0.66992,1.86914h-0.7793l2.59863-6.96582h0.58936l2.60889,6.96582H31.3252
						L30.66553,28.70917z M30.44531,28.09979l-1.229-3.47852l-1.23926,3.47852H30.44531z"/>
					<path d="M37.89502,28.10956c0,1.46973-0.74951,2.54883-2.18896,2.54883c-0.71924,0-1.26904-0.28027-1.62891-0.73926v0.65918
						H33.3877v-6.96582h0.68945v2.69824c0.36963-0.47949,0.92969-0.75,1.62891-0.75
						C37.07568,25.56073,37.89502,26.5705,37.89502,28.10956z M37.20557,28.10956c0-1.16895-0.59961-1.93848-1.59912-1.93848
						c-0.98975,0-1.58936,0.76953-1.58936,1.93848c0,1.11914,0.5498,1.93945,1.58936,1.93945
						C36.65576,30.04901,37.20557,29.2287,37.20557,28.10956z"/>
					<path d="M38.79785,29.36932l0.57959-0.25977c0.17969,0.50977,0.65967,0.93945,1.4292,0.93945
						c0.66943,0,1.09961-0.33008,1.09961-0.84961c0-1.30957-2.83887-0.49023-2.83887-2.23926
						c0-0.85938,0.69971-1.38867,1.68945-1.38867c0.78955,0,1.4292,0.3291,1.76904,1.0293l-0.5498,0.2998
						c-0.23975-0.44043-0.62988-0.71973-1.23926-0.71973c-0.60986,0-0.99951,0.25-0.99951,0.67969
						c0,1.16895,2.84814,0.42969,2.84814,2.29883c0,0.99902-0.81934,1.49902-1.76904,1.49902
						C39.84717,30.65839,39.05762,30.15839,38.79785,29.36932z"/>
					<path d="M46.03613,30.5285c-0.25977,0.08008-0.52002,0.12988-0.74951,0.12988c-0.65967,0-1.13965-0.37012-1.13965-1.23926
						v-3.18848h-0.81934v-0.58008h0.81934v-1.37891l0.68994-0.51953v1.89844h1.18896v0.58008h-1.18896v3.09863
						c0,0.47949,0.21973,0.69922,0.60938,0.69922c0.16992,0,0.35986-0.04004,0.57959-0.10938L46.03613,30.5285z"/>
					<path d="M50.24561,25.78143L49.90576,26.341c-0.22949-0.10059-0.43945-0.15039-0.64941-0.15039
						c-0.75977,0-1.31934,0.56934-1.31934,1.63965v2.74805h-0.68945v-4.92773h0.68945v0.74023
						c0.35986-0.64941,0.95947-0.81934,1.45898-0.81934C49.69629,25.57147,49.97607,25.63104,50.24561,25.78143z"/>
					<path d="M54.93555,27.50995v3.06836h-0.62988l-0.04004-0.75977c-0.38965,0.5498-0.98926,0.83984-1.76904,0.83984
						c-1.06934,0-1.69873-0.55957-1.69873-1.50977c0-0.49902,0.19971-0.87891,0.55957-1.09863
						c0.37988-0.21973,0.90967-0.31055,1.87891-0.31055h1.00928v-0.22949c0-0.85938-0.44971-1.3291-1.2793-1.3291
						c-0.61963,0-1.09912,0.26953-1.49902,0.81934l-0.49951-0.41992c0.5293-0.68945,1.16895-1.00879,2.00879-1.00879
						C54.21582,25.57147,54.93555,26.28046,54.93555,27.50995z M54.24561,28.36932v-0.06934h-0.94922
						c-0.90967,0-1.29932,0.05957-1.53906,0.24902c-0.18018,0.14062-0.27002,0.36035-0.27002,0.63965
						c0,0.5498,0.46973,0.90039,1.20947,0.90039C53.646,30.08905,54.24561,29.41913,54.24561,28.36932z"/>
					<path d="M56.20703,28.13007c0-1.2998,0.72998-2.55859,2.21875-2.55859c0.87988,0,1.60938,0.43945,1.99902,1.3584
						l-0.65967,0.26074c-0.22949-0.62988-0.71924-1.00977-1.33936-1.00977c-1.04932,0-1.51904,0.93945-1.51904,1.94922
						c0,1.00879,0.46973,1.91895,1.5293,1.91895c0.61963,0,1.10938-0.37012,1.29932-1l0.63965,0.24023
						c-0.33008,0.89941-1.04932,1.36914-1.93896,1.36914C57.00684,30.65839,56.20703,29.49921,56.20703,28.13007z"/>
					<path d="M63.74609,30.5285c-0.25977,0.08008-0.52002,0.12988-0.74951,0.12988c-0.65967,0-1.13965-0.37012-1.13965-1.23926
						v-3.18848H61.0376v-0.58008h0.81934v-1.37891l0.68994-0.51953v1.89844h1.18896v0.58008h-1.18896v3.09863
						c0,0.47949,0.21973,0.69922,0.60938,0.69922c0.16992,0,0.35986-0.04004,0.57959-0.10938L63.74609,30.5285z"/>
					<path d="M68.08691,26.23065h-1.03955v-0.58008h1.04932v-0.75879c0-1.0498,0.60986-1.35938,1.23926-1.35938
						c0.27002,0,0.56982,0.05957,0.87988,0.18945l-0.24023,0.5498c-0.20996-0.09961-0.39941-0.16016-0.56934-0.16016
						c-0.39014,0-0.62988,0.27051-0.62988,0.72949v0.80957h1.41943v0.58008h-1.41943v4.34766h-0.68945V26.23065z"/>
					<path d="M70.64746,28.10956c0-1.45898,0.94922-2.53809,2.3584-2.53809c1.39941,0,2.36865,1.0791,2.36865,2.53809
						c0,1.44922-0.95947,2.54883-2.36865,2.54883S70.64746,29.56854,70.64746,28.10956z M74.68506,28.10956
						c0-1.11914-0.62988-1.92871-1.6792-1.92871c-1.05957,0-1.66895,0.81934-1.66895,1.92871
						c0,1.11914,0.61963,1.93945,1.66895,1.93945C74.06543,30.04901,74.68506,29.20917,74.68506,28.10956z"/>
					<path d="M80.60498,31.33807c0,0.92969-0.86963,1.35938-2.10889,1.35938c-1.36914,0-2.19873-0.54004-2.19873-1.51953
						c0-0.09961,0.00977-0.16016,0.02002-0.21973l0.79932-0.67969c-0.37988-0.16992-0.63965-0.4502-0.63965-0.93945
						c0-0.39941,0.18018-0.69922,0.52979-0.93945c-0.25977-0.2998-0.41992-0.67969-0.41992-1.11914
						c0-1,0.81982-1.70898,1.87891-1.70898c0.47998,0,0.90967,0.14941,1.22949,0.39941l0.67969-0.58984l0.35986,0.4502
						l-0.66992,0.55957c0.16992,0.26953,0.27002,0.5791,0.27002,0.92969c0,1.00879-0.81934,1.67871-1.85889,1.67871
						c-0.37988,0-0.72949-0.08984-1.01953-0.25c-0.19971,0.11035-0.31982,0.29004-0.31982,0.5c0,0.5,0.61963,0.61914,1.3291,0.72949
						C79.44531,30.12811,80.60498,30.26874,80.60498,31.33807z M79.91504,31.39764c0-0.59961-0.7793-0.68945-1.59912-0.81934
						c-0.21973-0.03027-0.44971-0.07031-0.65967-0.12012l-0.66943,0.64941c-0.01025,0.05078-0.01025,0.07031-0.01025,0.09082
						c0,0.69922,0.70996,0.91895,1.54932,0.91895C79.39551,32.11737,79.91504,31.87714,79.91504,31.39764z M77.2666,27.29999
						c0,0.63965,0.45996,1.12988,1.19922,1.12988c0.73975,0,1.17969-0.48047,1.17969-1.12988
						c0-0.67969-0.45996-1.14941-1.16943-1.14941C77.77637,26.15057,77.2666,26.6203,77.2666,27.29999z"/>
				</g>
				<path id="Rectangle_179" fill="#C5C5FC" d="M5.559,22.403h9.882c2.91178-0.15797,5.40031,2.07444,5.55827,4.98622
					C20.99952,27.39381,20.99976,27.39841,21,27.403l0,0c-0.15036,2.91218-2.63304,5.15109-5.54523,5.00073
					c-0.00459-0.00024-0.00918-0.00048-0.01377-0.00073h-9.882c-2.91178,0.15797-5.40031-2.07444-5.55827-4.98623
					c-0.00025-0.00459-0.0005-0.00918-0.00073-0.01377l0,0c0.15036-2.91218,2.63304-5.15109,5.54523-5.00073
					C5.54982,22.40251,5.55441,22.40275,5.559,22.403z"/>
			</g>
			<g id="Raggruppa_24945" transform="translate(-10.2)">
				<g enable-background="new    ">
					<path d="M130.86845,27.08026c0-2.23926,1.20947-3.56836,3.21826-3.56836c1.39893,0,2.37842,0.63965,2.86816,1.90918
						l-0.65967,0.25c-0.36963-1-1.10938-1.47949-2.2085-1.47949c-1.59912,0-2.50879,1.04004-2.50879,2.88867
						c0,1.85938,0.89941,2.91797,2.4585,2.91797c1.08984,0,1.86914-0.50977,2.25879-1.50879l0.67969,0.25
						c-0.51953,1.26953-1.54883,1.93848-2.93848,1.93848C132.05791,30.67792,130.86845,29.32928,130.86845,27.08026z"/>
					<path d="M137.7581,28.10956c0-1.45898,0.94971-2.53809,2.35889-2.53809c1.39941,0,2.36865,1.0791,2.36865,2.53809
						c0,1.44922-0.95947,2.54883-2.36865,2.54883S137.7581,29.56854,137.7581,28.10956z M141.79619,28.10956
						c0-1.11914-0.62988-1.92871-1.6792-1.92871c-1.05957,0-1.66895,0.81934-1.66895,1.92871
						c0,1.11914,0.61963,1.93945,1.66895,1.93945C141.17656,30.04901,141.79619,29.20917,141.79619,28.10956z"/>
					<path d="M147.80595,27.55975v3.01855h-0.68945v-2.84863c0-1.05957-0.33984-1.54883-1.07959-1.54883
						c-0.92969,0-1.46924,0.7998-1.46924,2.18848v2.20898h-0.68945v-4.92773h0.68945v0.71973
						c0.31982-0.49902,0.91943-0.79883,1.62891-0.79883C147.25615,25.57147,147.80595,26.25116,147.80595,27.55975z"/>
					<path d="M149.09795,28.13007c0-1.2998,0.72998-2.55859,2.21875-2.55859c0.87988,0,1.60938,0.43945,1.99902,1.3584
						l-0.65967,0.26074c-0.22949-0.62988-0.71924-1.00977-1.33936-1.00977c-1.04932,0-1.51904,0.93945-1.51904,1.94922
						c0,1.00879,0.46973,1.91895,1.5293,1.91895c0.61963,0,1.10938-0.37012,1.29932-1l0.63965,0.24023
						c-0.33008,0.89941-1.04932,1.36914-1.93896,1.36914C149.89775,30.65839,149.09795,29.49921,149.09795,28.13007z"/>
					<path d="M157.58623,25.78143l-0.33984,0.55957c-0.22949-0.10059-0.43945-0.15039-0.64941-0.15039
						c-0.75977,0-1.31934,0.56934-1.31934,1.63965v2.74805h-0.68945v-4.92773h0.68945v0.74023
						c0.35986-0.64941,0.95947-0.81934,1.45898-0.81934C157.03642,25.57147,157.3167,25.63104,157.58623,25.78143z"/>
					<path d="M162.05547,28.29999h-3.60791c0.02002,1.0791,0.61963,1.72852,1.58936,1.72852
						c0.53955,0,0.96924-0.13965,1.41895-0.61914l0.47998,0.41895c-0.57959,0.61035-1.14941,0.83008-1.90918,0.83008
						c-1.49902,0-2.26855-1.11914-2.26855-2.51855c0-1.38965,0.75977-2.56836,2.18896-2.56836
						c1.50879,0,2.13867,1.17871,2.13867,2.29785C162.08574,28.00995,162.07549,28.17987,162.05547,28.29999z M158.44756,27.71991
						h2.97852c0-0.02051-0.01025-0.07031-0.01025-0.16016c-0.0498-0.7998-0.55957-1.40918-1.46875-1.40918
						C159.05742,26.15057,158.50761,26.85077,158.44756,27.71991z"/>
					<path d="M165.52666,30.5285c-0.25977,0.08008-0.52002,0.12988-0.74951,0.12988c-0.65967,0-1.13965-0.37012-1.13965-1.23926
						v-3.18848h-0.81934v-0.58008h0.81934v-1.37891l0.68994-0.51953v1.89844h1.18896v0.58008h-1.18896v3.09863
						c0,0.47949,0.21973,0.69922,0.60938,0.69922c0.16992,0,0.35986-0.04004,0.57959-0.10938L165.52666,30.5285z"/>
					<path d="M170.68535,28.29999h-3.60791c0.02002,1.0791,0.61963,1.72852,1.58936,1.72852
						c0.53955,0,0.96924-0.13965,1.41895-0.61914l0.47998,0.41895c-0.57959,0.61035-1.14941,0.83008-1.90918,0.83008
						c-1.49902,0-2.26855-1.11914-2.26855-2.51855c0-1.38965,0.75977-2.56836,2.18896-2.56836
						c1.50879,0,2.13867,1.17871,2.13867,2.29785C170.71562,28.00995,170.70537,28.17987,170.68535,28.29999z M167.07744,27.71991
						h2.97852c0-0.02051-0.01025-0.07031-0.01025-0.16016c-0.0498-0.7998-0.55957-1.40918-1.46875-1.40918
						C167.6873,26.15057,167.1375,26.85077,167.07744,27.71991z"/>
					<path d="M175.13799,26.23065h-1.03955v-0.58008h1.04932v-0.75879c0-1.0498,0.60986-1.35938,1.23926-1.35938
						c0.27002,0,0.56982,0.05957,0.87988,0.18945l-0.24023,0.5498c-0.20996-0.09961-0.39941-0.16016-0.56934-0.16016
						c-0.39014,0-0.62988,0.27051-0.62988,0.72949v0.80957h1.41943v0.58008h-1.41943v4.34766h-0.68945V26.23065z"/>
					<path d="M177.69853,28.10956c0-1.45898,0.94922-2.53809,2.3584-2.53809c1.39941,0,2.36865,1.0791,2.36865,2.53809
						c0,1.44922-0.95947,2.54883-2.36865,2.54883S177.69853,29.56854,177.69853,28.10956z M181.73613,28.10956
						c0-1.11914-0.62988-1.92871-1.6792-1.92871c-1.05957,0-1.66895,0.81934-1.66895,1.92871
						c0,1.11914,0.61963,1.93945,1.66895,1.93945C181.1165,30.04901,181.73613,29.20917,181.73613,28.10956z"/>
					<path d="M187.65605,31.33807c0,0.92969-0.86963,1.35938-2.10889,1.35938c-1.36914,0-2.19873-0.54004-2.19873-1.51953
						c0-0.09961,0.00977-0.16016,0.02002-0.21973l0.79932-0.67969c-0.37988-0.16992-0.63965-0.4502-0.63965-0.93945
						c0-0.39941,0.18018-0.69922,0.52979-0.93945c-0.25977-0.2998-0.41992-0.67969-0.41992-1.11914
						c0-1,0.81982-1.70898,1.87891-1.70898c0.47998,0,0.90967,0.14941,1.22949,0.39941l0.67969-0.58984l0.35986,0.4502
						l-0.66992,0.55957c0.16992,0.26953,0.27002,0.5791,0.27002,0.92969c0,1.00879-0.81934,1.67871-1.85889,1.67871
						c-0.37988,0-0.72949-0.08984-1.01953-0.25c-0.19971,0.11035-0.31982,0.29004-0.31982,0.5c0,0.5,0.61963,0.61914,1.3291,0.72949
						C186.49638,30.12811,187.65605,30.26874,187.65605,31.33807z M186.96611,31.39764c0-0.59961-0.7793-0.68945-1.59912-0.81934
						c-0.21973-0.03027-0.44971-0.07031-0.65967-0.12012l-0.66943,0.64941c-0.01025,0.05078-0.01025,0.07031-0.01025,0.09082
						c0,0.69922,0.70996,0.91895,1.54932,0.91895C186.44658,32.11737,186.96611,31.87714,186.96611,31.39764z M184.31767,27.29999
						c0,0.63965,0.45996,1.12988,1.19922,1.12988c0.73975,0,1.17969-0.48047,1.17969-1.12988
						c0-0.67969-0.45996-1.14941-1.16943-1.14941C184.82744,26.15057,184.31767,26.6203,184.31767,27.29999z"/>
				</g>
				<path id="Rectangle_180" fill="#5151FC" d="M109.759,22.403h9.882c2.9112-0.15849,5.39968,2.07302,5.55817,4.98422
					c0.00029,0.00526,0.00056,0.01052,0.00084,0.01578l0,0c-0.14978,2.91166-2.63156,5.15061-5.54323,5.00084
					c-0.00526-0.00027-0.01051-0.00055-0.01578-0.00084h-9.882c-2.91178,0.15797-5.40031-2.07444-5.55827-4.98623
					c-0.00024-0.00459-0.00049-0.00918-0.00072-0.01377l0,0c0.15035-2.91218,2.63303-5.15109,5.54522-5.00073
					C109.74982,22.40251,109.75441,22.40275,109.759,22.403z"/>
			</g>
			<g id="Raggruppa_24946" transform="translate(-24.2)">
				<g enable-background="new    ">
					<path d="M246.33232,28.70917h-2.89844l-0.66992,1.86914h-0.7793l2.59863-6.96582h0.58936l2.60889,6.96582h-0.78955
						L246.33232,28.70917z M246.11211,28.09979l-1.229-3.47852l-1.23926,3.47852H246.11211z"/>
					<path d="M253.56181,28.10956c0,1.46973-0.74951,2.54883-2.18896,2.54883c-0.71924,0-1.26904-0.28027-1.62891-0.73926v0.65918
						h-0.68945v-6.96582h0.68945v2.69824c0.36963-0.47949,0.92969-0.75,1.62891-0.75
						C252.74248,25.56073,253.56181,26.5705,253.56181,28.10956z M252.87236,28.10956c0-1.16895-0.59961-1.93848-1.59912-1.93848
						c-0.98975,0-1.58936,0.76953-1.58936,1.93848c0,1.11914,0.5498,1.93945,1.58936,1.93945
						C252.32256,30.04901,252.87236,29.2287,252.87236,28.10956z"/>
					<path d="M254.46465,29.36932l0.57959-0.25977c0.17969,0.50977,0.65967,0.93945,1.42921,0.93945
						c0.66943,0,1.09961-0.33008,1.09961-0.84961c0-1.30957-2.83888-0.49023-2.83888-2.23926
						c0-0.85938,0.69971-1.38867,1.68947-1.38867c0.78955,0,1.4292,0.3291,1.76904,1.0293l-0.5498,0.2998
						c-0.23975-0.44043-0.62988-0.71973-1.23926-0.71973c-0.60988,0-0.99953,0.25-0.99953,0.67969
						c0,1.16895,2.84816,0.42969,2.84816,2.29883c0,0.99902-0.81934,1.49902-1.76904,1.49902
						C255.51396,30.65839,254.72441,30.15839,254.46465,29.36932z"/>
					<path d="M261.70294,30.5285c-0.25977,0.08008-0.52002,0.12988-0.74951,0.12988c-0.65967,0-1.13965-0.37012-1.13965-1.23926
						v-3.18848h-0.81934v-0.58008h0.81934v-1.37891l0.68994-0.51953v1.89844h1.18896v0.58008h-1.18896v3.09863
						c0,0.47949,0.21973,0.69922,0.60938,0.69922c0.16992,0,0.35986-0.04004,0.57959-0.10938L261.70294,30.5285z"/>
					<path d="M265.91241,25.78143l-0.33984,0.55957c-0.22949-0.10059-0.43945-0.15039-0.64941-0.15039
						c-0.75977,0-1.31934,0.56934-1.31934,1.63965v2.74805h-0.68945v-4.92773h0.68945v0.74023
						c0.35986-0.64941,0.95947-0.81934,1.45898-0.81934C265.3631,25.57147,265.64288,25.63104,265.91241,25.78143z"/>
					<path d="M270.60236,27.50995v3.06836h-0.62988l-0.04004-0.75977c-0.38965,0.5498-0.98926,0.83984-1.76904,0.83984
						c-1.06934,0-1.69873-0.55957-1.69873-1.50977c0-0.49902,0.19971-0.87891,0.55957-1.09863
						c0.37988-0.21973,0.90967-0.31055,1.87891-0.31055h1.00928v-0.22949c0-0.85938-0.44971-1.3291-1.2793-1.3291
						c-0.61963,0-1.09912,0.26953-1.49902,0.81934l-0.49951-0.41992c0.5293-0.68945,1.16895-1.00879,2.00879-1.00879
						C269.88263,25.57147,270.60236,26.28046,270.60236,27.50995z M269.91241,28.36932v-0.06934h-0.94922
						c-0.90967,0-1.29932,0.05957-1.53906,0.24902c-0.18018,0.14062-0.27002,0.36035-0.27002,0.63965
						c0,0.5498,0.46973,0.90039,1.20947,0.90039C269.31281,30.08905,269.91241,29.41913,269.91241,28.36932z"/>
					<path d="M271.87384,28.13007c0-1.2998,0.72998-2.55859,2.21875-2.55859c0.87988,0,1.60938,0.43945,1.99902,1.3584
						l-0.65967,0.26074c-0.22949-0.62988-0.71924-1.00977-1.33936-1.00977c-1.04932,0-1.51904,0.93945-1.51904,1.94922
						c0,1.00879,0.46973,1.91895,1.5293,1.91895c0.61963,0,1.10938-0.37012,1.29932-1l0.63965,0.24023
						c-0.33008,0.89941-1.04932,1.36914-1.93896,1.36914C272.67365,30.65839,271.87384,29.49921,271.87384,28.13007z"/>
					<path d="M279.4129,30.5285c-0.25977,0.08008-0.52002,0.12988-0.74951,0.12988c-0.65967,0-1.13965-0.37012-1.13965-1.23926
						v-3.18848h-0.81934v-0.58008h0.81934v-1.37891l0.68994-0.51953v1.89844h1.18896v0.58008h-1.18896v3.09863
						c0,0.47949,0.21973,0.69922,0.60938,0.69922c0.16992,0,0.35986-0.04004,0.57959-0.10938L279.4129,30.5285z"/>
					<path d="M287.35138,28.29999h-3.60791c0.02002,1.0791,0.61963,1.72852,1.58936,1.72852
						c0.53955,0,0.96924-0.13965,1.41895-0.61914l0.47998,0.41895c-0.57959,0.61035-1.14941,0.83008-1.90918,0.83008
						c-1.49902,0-2.26855-1.11914-2.26855-2.51855c0-1.38965,0.75977-2.56836,2.18896-2.56836
						c1.50879,0,2.13867,1.17871,2.13867,2.29785C287.38165,28.00995,287.3714,28.17987,287.35138,28.29999z M283.74347,27.71991
						h2.97852c0-0.02051-0.01025-0.07031-0.01025-0.16016c-0.0498-0.7998-0.55957-1.40918-1.46875-1.40918
						C284.35333,26.15057,283.80353,26.85077,283.74347,27.71991z"/>
					<path d="M291.77179,25.78143l-0.33984,0.55957c-0.22949-0.10059-0.43945-0.15039-0.64941-0.15039
						c-0.75977,0-1.31934,0.56934-1.31934,1.63965v2.74805h-0.68945v-4.92773h0.68945v0.74023
						c0.35986-0.64941,0.95947-0.81934,1.45898-0.81934C291.22247,25.57147,291.50226,25.63104,291.77179,25.78143z"/>
					<path d="M296.46173,27.50995v3.06836h-0.62988l-0.04004-0.75977c-0.38965,0.5498-0.98926,0.83984-1.76904,0.83984
						c-1.06934,0-1.69873-0.55957-1.69873-1.50977c0-0.49902,0.19971-0.87891,0.55957-1.09863
						c0.37988-0.21973,0.90967-0.31055,1.87891-0.31055h1.00928v-0.22949c0-0.85938-0.44971-1.3291-1.2793-1.3291
						c-0.61963,0-1.09912,0.26953-1.49902,0.81934l-0.49951-0.41992c0.5293-0.68945,1.16895-1.00879,2.00879-1.00879
						C295.742,25.57147,296.46173,26.28046,296.46173,27.50995z M295.77179,28.36932v-0.06934h-0.94922
						c-0.90967,0-1.29932,0.05957-1.53906,0.24902c-0.18018,0.14062-0.27002,0.36035-0.27002,0.63965
						c0,0.5498,0.46973,0.90039,1.20947,0.90039C295.17218,30.08905,295.77179,29.41913,295.77179,28.36932z"/>
					<path d="M297.61407,29.36932l0.57959-0.25977c0.17969,0.50977,0.65967,0.93945,1.4292,0.93945
						c0.66943,0,1.09961-0.33008,1.09961-0.84961c0-1.30957-2.83887-0.49023-2.83887-2.23926
						c0-0.85938,0.69971-1.38867,1.68945-1.38867c0.78955,0,1.4292,0.3291,1.76904,1.0293l-0.5498,0.2998
						c-0.23975-0.44043-0.62988-0.71973-1.23926-0.71973c-0.60986,0-0.99951,0.25-0.99951,0.67969
						c0,1.16895,2.84814,0.42969,2.84814,2.29883c0,0.99902-0.81934,1.49902-1.76904,1.49902
						C298.66339,30.65839,297.87384,30.15839,297.61407,29.36932z"/>
					<path d="M306.56134,25.65057v4.92773h-0.68945v-0.70996c-0.34961,0.53027-0.97949,0.79004-1.62891,0.79004
						c-1.11963,0-1.60938-0.76953-1.60938-1.98926v-3.01855h0.68945v2.84863c0,0.7998,0.14014,1.5498,1.07959,1.5498
						c0.97949,0,1.46924-0.84961,1.46924-2.12891v-2.26953H306.56134z"/>
					<path d="M311.38165,25.78143l-0.33984,0.55957c-0.22949-0.10059-0.43945-0.15039-0.64941-0.15039
						c-0.75977,0-1.31934,0.56934-1.31934,1.63965v2.74805h-0.68945v-4.92773h0.68945v0.74023
						c0.35986-0.64941,0.95947-0.81934,1.45898-0.81934C310.83185,25.57147,311.11212,25.63104,311.38165,25.78143z"/>
					<path d="M315.85089,28.29999h-3.60791c0.02002,1.0791,0.61963,1.72852,1.58936,1.72852
						c0.53955,0,0.96924-0.13965,1.41895-0.61914l0.47998,0.41895c-0.57959,0.61035-1.14941,0.83008-1.90918,0.83008
						c-1.49902,0-2.26855-1.11914-2.26855-2.51855c0-1.38965,0.75977-2.56836,2.18896-2.56836
						c1.50879,0,2.13867,1.17871,2.13867,2.29785C315.88116,28.00995,315.87091,28.17987,315.85089,28.29999z M312.24298,27.71991
						h2.97852c0-0.02051-0.01025-0.07031-0.01025-0.16016c-0.0498-0.7998-0.55957-1.40918-1.46875-1.40918
						C312.85284,26.15057,312.30304,26.85077,312.24298,27.71991z"/>
				</g>
				<path id="Rectangle_181" fill="#C2FAEF" d="M220.759,22.403h9.882c2.91179-0.15797,5.4003,2.07444,5.55827,4.98622
					c0.00026,0.00459,0.00049,0.00919,0.00073,0.01378l0,0c-0.15036,2.91218-2.63304,5.15109-5.54523,5.00073
					c-0.00459-0.00024-0.00919-0.00048-0.01378-0.00073h-9.882c-2.91119,0.15849-5.39967-2.07302-5.55817-4.98422
					c-0.00029-0.00526-0.00056-0.01052-0.00084-0.01578l0,0c0.14978-2.91166,2.63156-5.15061,5.54323-5.00084
					C220.74847,22.40244,220.75374,22.40271,220.759,22.403z"/>
			</g>
			<g id="Raggruppa_24948" transform="translate(-50)">
				<g enable-background="new    ">
					<path d="M382.10156,27.08026c0-2.23926,1.20947-3.56836,3.21826-3.56836c1.39893,0,2.37842,0.63965,2.86816,1.90918
						l-0.65967,0.25c-0.36963-1-1.10938-1.47949-2.2085-1.47949c-1.59912,0-2.50879,1.04004-2.50879,2.88867
						c0,1.85938,0.89941,2.91797,2.4585,2.91797c1.08984,0,1.86914-0.50977,2.25879-1.50879l0.67969,0.25
						c-0.51953,1.26953-1.54883,1.93848-2.93848,1.93848C383.29102,30.67792,382.10156,29.32928,382.10156,27.08026z"/>
					<path d="M388.99121,28.10956c0-1.45898,0.94971-2.53809,2.35889-2.53809c1.39941,0,2.36865,1.0791,2.36865,2.53809
						c0,1.44922-0.95947,2.54883-2.36865,2.54883S388.99121,29.56854,388.99121,28.10956z M393.0293,28.10956
						c0-1.11914-0.62988-1.92871-1.6792-1.92871c-1.05957,0-1.66895,0.81934-1.66895,1.92871
						c0,1.11914,0.61963,1.93945,1.66895,1.93945C392.40967,30.04901,393.0293,29.20917,393.0293,28.10956z"/>
					<path d="M399.03906,27.55975v3.01855h-0.68945v-2.84863c0-1.05957-0.33984-1.54883-1.07959-1.54883
						c-0.92969,0-1.46924,0.7998-1.46924,2.18848v2.20898h-0.68945v-4.92773h0.68945v0.71973
						c0.31982-0.49902,0.91943-0.79883,1.62891-0.79883C398.48926,25.57147,399.03906,26.25116,399.03906,27.55975z"/>
					<path d="M400.33105,28.13007c0-1.2998,0.73047-2.55859,2.21875-2.55859c0.87988,0,1.60938,0.43945,1.99902,1.3584
						l-0.65918,0.26074c-0.22949-0.62988-0.71973-1.00977-1.33984-1.00977c-1.04883,0-1.51855,0.93945-1.51855,1.94922
						c0,1.00879,0.46973,1.91895,1.5293,1.91895c0.61914,0,1.10938-0.37012,1.29883-1l0.63965,0.24023
						c-0.33008,0.89941-1.04883,1.36914-1.93848,1.36914C401.13086,30.65839,400.33105,29.49921,400.33105,28.13007z"/>
					<path d="M408.81934,25.78143l-0.33984,0.55957c-0.22949-0.10059-0.43945-0.15039-0.64941-0.15039
						c-0.75977,0-1.31934,0.56934-1.31934,1.63965v2.74805h-0.68945v-4.92773h0.68945v0.74023
						c0.36035-0.64941,0.95996-0.81934,1.45898-0.81934C408.26953,25.57147,408.5498,25.63104,408.81934,25.78143z"/>
					<path d="M413.28906,28.29999h-3.6084c0.02051,1.0791,0.62012,1.72852,1.58984,1.72852
						c0.53906,0,0.96875-0.13965,1.41895-0.61914l0.47949,0.41895c-0.5791,0.61035-1.14941,0.83008-1.90918,0.83008
						c-1.49902,0-2.26855-1.11914-2.26855-2.51855c0-1.38965,0.75977-2.56836,2.18945-2.56836
						c1.50879,0,2.13867,1.17871,2.13867,2.29785C413.31934,28.00995,413.30859,28.17987,413.28906,28.29999z M409.68066,27.71991
						h2.97852c0-0.02051-0.00977-0.07031-0.00977-0.16016c-0.0498-0.7998-0.55957-1.40918-1.46875-1.40918
						C410.29102,26.15057,409.74121,26.85077,409.68066,27.71991z"/>
					<path d="M416.75977,30.5285c-0.25977,0.08008-0.51953,0.12988-0.74902,0.12988c-0.66016,0-1.13965-0.37012-1.13965-1.23926
						v-3.18848h-0.81934v-0.58008h0.81934v-1.37891l0.68945-0.51953v1.89844H416.75v0.58008h-1.18945v3.09863
						c0,0.47949,0.21973,0.69922,0.60938,0.69922c0.16992,0,0.36035-0.04004,0.58008-0.10938L416.75977,30.5285z"/>
					<path d="M421.91895,28.29999h-3.6084c0.02051,1.0791,0.62012,1.72852,1.58984,1.72852
						c0.53906,0,0.96875-0.13965,1.41895-0.61914l0.47949,0.41895c-0.5791,0.61035-1.14941,0.83008-1.90918,0.83008
						c-1.49902,0-2.26855-1.11914-2.26855-2.51855c0-1.38965,0.75977-2.56836,2.18945-2.56836
						c1.50879,0,2.13867,1.17871,2.13867,2.29785C421.94922,28.00995,421.93848,28.17987,421.91895,28.29999z M418.31055,27.71991
						h2.97852c0-0.02051-0.00977-0.07031-0.00977-0.16016c-0.0498-0.7998-0.55957-1.40918-1.46875-1.40918
						C418.9209,26.15057,418.37109,26.85077,418.31055,27.71991z"/>
					<path d="M429.96875,28.29999h-3.60742c0.01953,1.0791,0.61914,1.72852,1.58887,1.72852
						c0.54004,0,0.96973-0.13965,1.41895-0.61914l0.48047,0.41895c-0.58008,0.61035-1.14941,0.83008-1.90918,0.83008
						c-1.49902,0-2.26855-1.11914-2.26855-2.51855c0-1.38965,0.75977-2.56836,2.18848-2.56836
						c1.50879,0,2.13867,1.17871,2.13867,2.29785C429.99902,28.00995,429.98926,28.17987,429.96875,28.29999z M426.36133,27.71991
						h2.97852c0-0.02051-0.01074-0.07031-0.01074-0.16016c-0.0498-0.7998-0.55957-1.40918-1.46875-1.40918
						C426.9707,26.15057,426.4209,26.85077,426.36133,27.71991z"/>
					<path d="M434.38965,25.78143L434.0498,26.341c-0.22949-0.10059-0.43945-0.15039-0.64941-0.15039
						c-0.75977,0-1.31934,0.56934-1.31934,1.63965v2.74805h-0.68945v-4.92773h0.68945v0.74023
						c0.35938-0.64941,0.95898-0.81934,1.45898-0.81934C433.83984,25.57147,434.12012,25.63104,434.38965,25.78143z"/>
					<path d="M439.0791,27.50995v3.06836h-0.62988l-0.04004-0.75977c-0.38965,0.5498-0.98926,0.83984-1.76855,0.83984
						c-1.06934,0-1.69922-0.55957-1.69922-1.50977c0-0.49902,0.2002-0.87891,0.55957-1.09863
						c0.37988-0.21973,0.91016-0.31055,1.87891-0.31055h1.00977v-0.22949c0-0.85938-0.4502-1.3291-1.2793-1.3291
						c-0.62012,0-1.09961,0.26953-1.49902,0.81934l-0.5-0.41992c0.5293-0.68945,1.16895-1.00879,2.00879-1.00879
						C438.35938,25.57147,439.0791,26.28046,439.0791,27.50995z M438.38965,28.36932v-0.06934h-0.94922
						c-0.91016,0-1.2998,0.05957-1.53906,0.24902c-0.18066,0.14062-0.27051,0.36035-0.27051,0.63965
						c0,0.5498,0.46973,0.90039,1.20996,0.90039C437.79004,30.08905,438.38965,29.41913,438.38965,28.36932z"/>
					<path d="M440.23145,29.36932l0.5791-0.25977c0.17969,0.50977,0.66016,0.93945,1.42969,0.93945
						c0.66895,0,1.09961-0.33008,1.09961-0.84961c0-1.30957-2.83887-0.49023-2.83887-2.23926
						c0-0.85938,0.69922-1.38867,1.68945-1.38867c0.78906,0,1.42871,0.3291,1.76855,1.0293l-0.5498,0.2998
						c-0.23926-0.44043-0.62988-0.71973-1.23926-0.71973s-0.99902,0.25-0.99902,0.67969c0,1.16895,2.84766,0.42969,2.84766,2.29883
						c0,0.99902-0.81934,1.49902-1.76855,1.49902C441.28027,30.65839,440.49121,30.15839,440.23145,29.36932z"/>
					<path d="M449.17871,25.65057v4.92773h-0.68945v-0.70996c-0.34961,0.53027-0.97949,0.79004-1.62891,0.79004
						c-1.11914,0-1.60938-0.76953-1.60938-1.98926v-3.01855h0.68945v2.84863c0,0.7998,0.14062,1.5498,1.08008,1.5498
						c0.97949,0,1.46875-0.84961,1.46875-2.12891v-2.26953H449.17871z"/>
					<path d="M453.99902,25.78143l-0.33984,0.55957c-0.22949-0.10059-0.43945-0.15039-0.64941-0.15039
						c-0.75977,0-1.31934,0.56934-1.31934,1.63965v2.74805h-0.68945v-4.92773h0.68945v0.74023
						c0.36035-0.64941,0.95996-0.81934,1.45898-0.81934C453.44922,25.57147,453.72949,25.63104,453.99902,25.78143z"/>
					<path d="M458.46875,28.29999h-3.6084c0.02051,1.0791,0.62012,1.72852,1.58984,1.72852
						c0.53906,0,0.96875-0.13965,1.41895-0.61914l0.47949,0.41895c-0.5791,0.61035-1.14941,0.83008-1.90918,0.83008
						c-1.49902,0-2.26855-1.11914-2.26855-2.51855c0-1.38965,0.75977-2.56836,2.18945-2.56836
						c1.50879,0,2.13867,1.17871,2.13867,2.29785C458.49902,28.00995,458.48828,28.17987,458.46875,28.29999z M454.86035,27.71991
						h2.97852c0-0.02051-0.00977-0.07031-0.00977-0.16016c-0.0498-0.7998-0.55957-1.40918-1.46875-1.40918
						C455.4707,26.15057,454.9209,26.85077,454.86035,27.71991z"/>
				</g>
				<path id="Rectangle_182" fill="#00C19C" d="M360.55899,22.403h9.88199c2.91177-0.15796,5.4003,2.07445,5.55826,4.98623
					c0.00024,0.00459,0.00049,0.00918,0.00073,0.01377l0,0c-0.15036,2.91218-2.63303,5.15109-5.54523,5.00073
					c-0.00458-0.00024-0.00919-0.00048-0.01376-0.00073h-9.88199c-2.91119,0.15849-5.39966-2.07303-5.55817-4.98423
					c-0.00027-0.00525-0.00055-0.01051-0.00082-0.01577l0,0c0.14978-2.91166,2.63156-5.15061,5.54321-5.00083
					C360.54849,22.40244,360.55374,22.40271,360.55899,22.403z"/>
			</g>
		</g>
	</g>
</g>
</svg>
