<svg xmlns="http://www.w3.org/2000/svg" xmlns:xlink="http://www.w3.org/1999/xlink" width="250" height="403" viewBox="0 0 250 403">
  <defs>
    <clipPath id="clip-path">
      <rect y="4" width="229.895" height="145.755" fill="none"/>
    </clipPath>
    <clipPath id="clip-path-2">
      <rect id="Rectangle_19224" data-name="Rectangle 19224" width="209.024" height="154.16" fill="none"/>
    </clipPath>
    <clipPath id="clip-zoom-02">
      <rect width="250" height="403"/>
    </clipPath>
  </defs>
  <g id="zoom-02" clip-path="url(#clip-zoom-02)">
    <g id="Group_24063" data-name="Group 24063">
      <g id="Group_18" data-name="Group 18" transform="translate(0.036)">
        <line id="Line_1" data-name="Line 1" y2="2.669" transform="translate(76.61 173.595)" fill="none" stroke="#000" stroke-width="1"/>
        <line id="Line_2" data-name="Line 2" y2="2.669" transform="translate(216.224 173.595)" fill="none" stroke="#000" stroke-width="1"/>
        <text id="_1945" data-name="1945" transform="translate(64.433 187.511)" font-size="10" font-family="HKGrotesk-Regular, HK Grotesk"><tspan x="0" y="0">1945</tspan></text>
        <text id="_1950" data-name="1950" transform="translate(204.07 187.511)" font-size="10" font-family="HKGrotesk-Regular, HK Grotesk"><tspan x="0" y="0">1950</tspan></text>
        <path id="Path_3" data-name="Path 3" d="M40,195.058c41.884,0,41.884-10.177,55.846-10.177h27.923c13.961,0,13.961-40.706,27.923-40.706s13.961,47.489,27.923,47.489,13.961,3.392,27.923,3.392,13.961-6.784,27.923-6.784,13.961,6.784,27.923,6.784,13.961-13.569,27.923-13.569,13.961,10.177,27.923,10.177,13.961-16.96,27.923-16.96,13.961,20.354,27.923,20.354,13.961-3.392,27.923-3.392,13.961,3.392,27.923,3.392S444.881,134,458.842,134s13.961,54.274,27.923,54.274,13.961,6.784,27.923,6.784h55.846c13.961,0,13.961-30.529,27.923-30.529s13.961,30.529,27.923,30.529,13.961-10.177,27.923-10.177,13.961,10.177,27.923,10.177,13.961-3.392,27.923-3.392,13.961,3.392,27.923,3.392h55.843c13.961,0,13.961-10.177,27.923-10.177s13.961-16.96,27.923-16.96,13.961,27.137,27.923,27.137H933.53c13.961,0,13.961-6.784,27.923-6.784s13.961-3.392,27.923-3.392,13.961,10.177,27.923,10.177,13.961-23.745,27.923-23.745,13.961,23.745,27.923,23.745h55.846c13.961,0,13.961-3.392,27.923-3.392s13.961,3.392,27.923,3.392Z" transform="translate(-19.781 -21.463)" fill="#5151fc" stroke="rgba(0,0,0,0.7)" stroke-width="0.5"/>
        <path id="Path_4" data-name="Path 4" d="M40,195.62c41.884,0,41.884-10.177,55.846-10.177h27.923c13.961,0,13.961-44.1,27.923-44.1s13.961,47.489,27.923,47.489,13.961,6.784,27.923,6.784,13.961-6.784,27.923-6.784,13.961,6.784,27.923,6.784,13.961-13.569,27.923-13.569,13.961,6.784,27.923,6.784,13.961-13.569,27.923-13.569,13.961,20.354,27.923,20.354,13.961-3.392,27.923-3.392,13.961,3.392,27.923,3.392,13.961-67.842,27.923-67.842,13.961,61.058,27.923,61.058,13.961,6.784,27.923,6.784h55.846c13.961,0,13.961-44.1,27.923-44.1s13.961,44.1,27.923,44.1,13.958-13.572,27.922-13.572,13.961,13.569,27.923,13.569,13.961-6.784,27.923-6.784,13.961,6.784,27.923,6.784h55.843c13.961,0,13.961-10.177,27.923-10.177S835.8,158.3,849.761,158.3s13.961,37.313,27.923,37.313h27.923c13.961,0,13.961-3.392,27.923-3.392s13.961-6.784,27.923-6.784h27.923c13.961,0,13.961,10.177,27.923,10.177s13.961-40.706,27.923-40.706,13.961,40.706,27.923,40.706h27.923c13.961,0,13.961-3.392,27.923-3.392h55.846v3.392c-41.884-3.392-41.884,0-55.846,0h-55.846c-13.961,0-13.961-23.745-27.923-23.745s-13.961,23.745-27.923,23.745-13.962-10.177-27.923-10.177-13.961,3.392-27.923,3.392-13.961,6.784-27.923,6.784H877.684c-13.961,0-13.961-27.137-27.923-27.137s-13.961,16.96-27.923,16.96-13.961,10.177-27.923,10.177H738.071c-13.961,0-13.961-3.392-27.923-3.392s-13.961,3.392-27.923,3.392-13.962-10.177-27.923-10.177-13.961,10.177-27.923,10.177-13.961-30.529-27.923-30.529-13.961,30.529-27.923,30.529H514.688c-13.961,0-13.961-6.784-27.923-6.784S472.8,134.56,458.842,134.56s-13.961,61.058-27.923,61.058-13.961-3.392-27.923-3.392-13.961,3.392-27.923,3.392-13.961-20.354-27.923-20.354-13.961,16.96-27.923,16.96-13.96-10.175-27.922-10.175-13.961,13.569-27.923,13.569-13.961-6.784-27.923-6.784-13.961,6.784-27.923,6.784-13.961-3.392-27.923-3.392-13.961-47.489-27.923-47.489-13.961,40.706-27.923,40.706H95.846c-13.961,0-13.961,10.177-27.923,10.177Z" transform="translate(-19.781 -22.025)" fill="#c5c5fc" stroke="rgba(0,0,0,0.7)" stroke-width="0.5"/>
        <path id="Path_5" data-name="Path 5" d="M40,198.43c41.884,0,41.884-10.177,55.846-10.177s13.961-6.784,27.923-6.784S137.73,123.8,151.692,123.8s13.961,67.842,27.923,67.842,13.961,3.392,27.923,3.392,13.961-3.392,27.923-3.392,13.961,6.784,27.923,6.784,13.961-27.137,27.923-27.137,13.961,6.784,27.923,6.784,13.961-3.392,27.923-3.392,13.961,23.745,27.923,23.745,13.961-3.392,27.923-3.392,13.961-3.392,27.923-3.392,13.961-91.587,27.923-91.587,13.961,91.587,27.923,91.587,13.961,6.784,27.923,6.784h55.846c13.961,0,13.961-50.881,27.923-50.881s13.961,16.96,27.923,16.96,13.961,13.569,27.923,13.569,13.961,16.96,27.923,16.96,13.961-13.569,27.923-13.569,13.961,13.569,27.923,13.569S752.035,198.43,766,198.43h27.918c13.961,0,13.961-10.177,27.923-10.177s13.961-40.706,27.923-40.706,13.961,44.1,27.923,44.1,13.961,6.784,27.923,6.784,13.961-6.784,27.923-6.784,13.961-3.392,27.923-3.392,13.961-3.392,27.923-3.392,13.961,13.569,27.923,13.569,13.961-101.763,27.923-101.763,13.961,91.587,27.923,91.587,13.961,10.177,27.923,10.177,13.961-3.392,27.923-3.392,13.961-10.177,27.923-10.177,13.961,10.177,27.923,10.177H1128.99c-13.962,0-13.962,3.392-27.923,3.392h-27.923c-13.961,0-13.961-40.706-27.923-40.706S1031.26,198.43,1017.3,198.43s-13.962-10.177-27.923-10.177H961.453c-13.961,0-13.961,6.784-27.923,6.784s-13.961,3.392-27.923,3.392H877.684c-13.961,0-13.961-37.313-27.923-37.313s-13.961,27.137-27.923,27.137-13.961,10.177-27.923,10.177H738.071c-13.961,0-13.961-6.784-27.923-6.784s-13.961,6.784-27.923,6.784-13.962-13.569-27.923-13.569-13.961,13.569-27.923,13.569-13.961-44.1-27.923-44.1-13.961,44.1-27.923,44.1H514.688c-13.961,0-13.961-6.784-27.923-6.784s-13.961-61.055-27.922-61.055-13.961,67.842-27.923,67.842-13.961-3.392-27.923-3.392-13.961,3.392-27.923,3.392-13.961-20.354-27.923-20.354-13.961,13.569-27.923,13.569-13.961-6.784-27.923-6.784-13.961,13.569-27.923,13.569-13.961-6.784-27.923-6.784-13.961,6.784-27.923,6.784-13.961-6.784-27.923-6.784-13.961-47.489-27.923-47.489-13.96,44.092-27.922,44.092H95.846c-13.961,0-13.961,10.177-27.923,10.177Z" transform="translate(-19.781 -24.834)" fill="#00c19c" stroke="rgba(0,0,0,0.7)" stroke-width="0.5"/>
        <g id="Scroll_Group_2" data-name="Scroll Group 2" transform="translate(20.219 24.094)" clip-path="url(#clip-path)" style="isolation: isolate">
          <path id="Path_6" data-name="Path 6" d="M40,202.364c41.884,0,41.884-10.177,55.846-10.177s13.961-10.177,27.923-10.177,13.961-61.058,27.923-61.058,13.961,74.626,27.923,74.626,13.961-3.392,27.923-3.392,13.961,3.392,27.923,3.392,13.961,6.784,27.923,6.784,13.961-27.137,27.923-27.137,13.961,3.392,27.923,3.392h27.923c13.961,0,13.961,23.745,27.923,23.745s13.961-3.392,27.923-3.392,13.961-6.784,27.923-6.784,13.961-94.979,27.923-94.979S472.806,188.8,486.767,188.8s13.961,13.569,27.923,13.569h27.923c13.961,0,13.961-3.392,27.923-3.392S584.5,144.7,598.459,144.7s13.961,20.354,27.923,20.354,13.961-6.784,27.923-6.784,13.961,40.706,27.923,40.706,13.961-16.96,27.923-16.96,13.961,16.96,27.923,16.96,13.961,3.392,27.923,3.392h27.918c13.961,0,13.961-13.569,27.923-13.569s13.961-54.274,27.923-54.274,13.961,61.058,27.923,61.058h27.923c13.961,0,13.961-6.784,27.923-6.784h55.846c13.961,0,13.961,13.569,27.923,13.569s13.961-149.253,27.923-149.253,13.961,139.078,27.923,139.078,13.961,3.392,27.923,3.392,13.961-3.392,27.923-3.392,13.961-13.569,27.923-13.569,13.961,20.354,27.923,20.354h0c-41.884-10.177-41.884,0-55.846,0s-13.962,3.392-27.923,3.392-13.961-10.177-27.923-10.177-13.961-91.587-27.923-91.587S1031.26,202.368,1017.3,202.368,1003.337,188.8,989.376,188.8s-13.961,3.392-27.923,3.392-13.961,3.392-27.923,3.392-13.961,6.784-27.923,6.784-13.962-6.784-27.923-6.784-13.961-44.1-27.923-44.1-13.961,40.706-27.923,40.706-13.961,10.177-27.923,10.177H765.993c-13.961,0-13.961-3.392-27.923-3.392s-13.961-13.569-27.923-13.569-13.961,13.569-27.923,13.569-13.962-16.96-27.923-16.96-13.961-13.569-27.923-13.569-13.961-16.96-27.923-16.96-13.961,50.881-27.923,50.881H514.688c-13.961,0-13.961-6.784-27.923-6.784S472.8,104,458.842,104s-13.961,91.587-27.923,91.587-13.961,3.392-27.923,3.392-13.961,3.392-27.923,3.392-13.961-23.745-27.923-23.745-13.961,3.392-27.923,3.392-13.961-6.784-27.923-6.784-13.961,27.137-27.923,27.137-13.961-6.784-27.923-6.784-13.961,3.392-27.923,3.392-13.961-3.392-27.923-3.392-13.961-67.842-27.923-67.842-13.961,57.666-27.923,57.666-13.961,6.784-27.923,6.784S81.882,202.368,67.92,202.368Z" transform="translate(-40 -52.863)" fill="#c2faef" stroke="rgba(0,0,0,0.7)" stroke-width="0.5"/>
        </g>
        <text id="numero_di_occorrenze" data-name="numero di occorrenze" transform="translate(15.964 9)" font-size="10" font-family="HKGrotesk-Regular, HK Grotesk"><tspan x="0" y="0">numero di occorrenze</tspan></text>
        <text id="numero_di_occorrenze-2" data-name="numero di occorrenze" transform="translate(15.964 218)" font-size="10" font-family="HKGrotesk-Regular, HK Grotesk"><tspan x="0" y="0">numero di occorrenze</tspan></text>
        <text id="numero_di_occorrenze-3" data-name="numero di occorrenze" transform="translate(15.964 452)" font-size="9" font-family="HKGrotesk-Regular, HK Grotesk"><tspan x="0" y="0">numero di occorrenze</tspan></text>
        <path id="Path_8" data-name="Path 8" d="M32.223,227.652H254.351" transform="translate(-12.004 -54.231)" fill="none" stroke="#000" stroke-width="1"/>
        <text id="a" transform="translate(226.964 24)" fill="#5151fc" font-size="10" font-family="HKGrotesk-Medium, HK Grotesk" font-weight="500"><tspan x="0" y="0">a</tspan></text>
        <line id="Line_3" data-name="Line 3" y2="2.669" transform="translate(355.838 173.595)" fill="none" stroke="#000" stroke-width="1"/>
        <line id="Line_4" data-name="Line 4" y2="2.669" transform="translate(495.452 173.595)" fill="none" stroke="#000" stroke-width="1"/>
        <text id="_1955" data-name="1955" transform="translate(344.684 186.511)" font-size="8" font-family="HKGrotesk-Regular, HK Grotesk"><tspan x="0" y="0">1955</tspan></text>
        <text id="_1960" data-name="1960" transform="translate(484.294 186.511)" font-size="8" font-family="HKGrotesk-Regular, HK Grotesk"><tspan x="0" y="0">1960</tspan></text>
        <g id="Group_22" data-name="Group 22" transform="translate(-0.999 15.576)">
          <text id="_0" data-name="0" transform="translate(7.536 158.025)" font-size="10" font-family="HKGrotesk-Regular, HK Grotesk"><tspan x="0" y="0">0</tspan></text>
          <g id="Group_21" data-name="Group 21">
            <line id="Line_19" data-name="Line 19" x1="4.036" transform="translate(17.601 122.988)" fill="none" stroke="#000" stroke-width="1"/>
            <text id="_10" data-name="10" transform="translate(2 124.15)" font-size="10" font-family="HKGrotesk-Regular, HK Grotesk"><tspan x="0" y="0">10</tspan></text>
            <line id="Line_20" data-name="Line 20" x1="4.036" transform="translate(17.601 87.849)" fill="none" stroke="#000" stroke-width="1"/>
            <text id="_20" data-name="20" transform="translate(2.048 89.01)" font-size="10" font-family="HKGrotesk-Regular, HK Grotesk"><tspan x="0" y="0">20</tspan></text>
            <line id="Line_21" data-name="Line 21" x1="4.036" transform="translate(17.601 52.709)" fill="none" stroke="#000" stroke-width="1"/>
            <text id="_30" data-name="30" transform="translate(2.048 53.871)" font-size="10" font-family="HKGrotesk-Regular, HK Grotesk"><tspan x="0" y="0">30</tspan></text>
            <line id="Line_22" data-name="Line 22" x1="4.036" transform="translate(17.601 17.57)" fill="none" stroke="#000" stroke-width="1"/>
            <text id="_40" data-name="40" transform="translate(2.048 18.732)" font-size="10" font-family="HKGrotesk-Regular, HK Grotesk"><tspan x="0" y="0">40</tspan></text>
            <path id="Path_15" data-name="Path 15" d="M-6,50.5h4.266V208.249" transform="translate(23.244 -50.5)" fill="none" stroke="#000" stroke-width="1"/>
          </g>
        </g>
      </g>
      <g id="Group_19" data-name="Group 19" transform="translate(-869.501 228.237)">
        <g id="Scroll_Group_1" data-name="Scroll Group 1" transform="translate(890.423)" clip-path="url(#clip-path-2)" style="isolation: isolate">
          <g id="Group_16" data-name="Group 16" transform="translate(-935.637 4.991)">
            <path id="Path_3-2" data-name="Path 3" d="M40,195.058c41.884,0,41.884-10.177,55.846-10.177h27.923c13.961,0,13.961-40.706,27.923-40.706s13.961,47.489,27.923,47.489,13.961,3.392,27.923,3.392,13.961-6.784,27.923-6.784,13.961,6.784,27.923,6.784,13.961-13.569,27.923-13.569,13.961,10.177,27.923,10.177,13.961-16.96,27.923-16.96,13.961,20.354,27.923,20.354,13.961-3.392,27.923-3.392,13.961,3.392,27.923,3.392S444.881,134,458.842,134s13.961,54.274,27.923,54.274,13.961,6.784,27.923,6.784h55.846c13.961,0,13.961-30.529,27.923-30.529s13.961,30.529,27.923,30.529,13.961-10.177,27.923-10.177,13.961,10.177,27.923,10.177,13.961-3.392,27.923-3.392,13.961,3.392,27.923,3.392h55.843c13.961,0,13.961-10.177,27.923-10.177s13.961-16.96,27.923-16.96,13.961,27.137,27.923,27.137H933.53c13.961,0,13.961-6.784,27.923-6.784s13.961-3.392,27.923-3.392,13.961,10.177,27.923,10.177,13.961-23.745,27.923-23.745,13.961,23.745,27.923,23.745h55.846c13.961,0,13.961-3.392,27.923-3.392s13.961,3.392,27.923,3.392Z" transform="translate(-40 -45.807)" fill="#5151fc" stroke="rgba(0,0,0,0.7)" stroke-width="0.5"/>
            <path id="Path_4-2" data-name="Path 4" d="M40,195.62c41.884,0,41.884-10.177,55.846-10.177h27.923c13.961,0,13.961-44.1,27.923-44.1s13.961,47.489,27.923,47.489,13.961,6.784,27.923,6.784,13.961-6.784,27.923-6.784,13.961,6.784,27.923,6.784,13.961-13.569,27.923-13.569,13.961,6.784,27.923,6.784,13.961-13.569,27.923-13.569,13.961,20.354,27.923,20.354,13.961-3.392,27.923-3.392,13.961,3.392,27.923,3.392,13.961-67.842,27.923-67.842,13.961,61.058,27.923,61.058,13.961,6.784,27.923,6.784h55.846c13.961,0,13.961-44.1,27.923-44.1s13.961,44.1,27.923,44.1,13.958-13.572,27.922-13.572,13.961,13.569,27.923,13.569,13.961-6.784,27.923-6.784,13.961,6.784,27.923,6.784h55.843c13.961,0,13.961-10.177,27.923-10.177S835.8,158.3,849.761,158.3s13.961,37.313,27.923,37.313h27.923c13.961,0,13.961-3.392,27.923-3.392s13.961-6.784,27.923-6.784h27.923c13.961,0,13.961,10.177,27.923,10.177s13.961-40.706,27.923-40.706,13.961,40.706,27.923,40.706h27.923c13.961,0,13.961-3.392,27.923-3.392h55.846v3.392c-41.884-3.392-41.884,0-55.846,0h-55.846c-13.961,0-13.961-23.745-27.923-23.745s-13.961,23.745-27.923,23.745-13.962-10.177-27.923-10.177-13.961,3.392-27.923,3.392-13.961,6.784-27.923,6.784H877.684c-13.961,0-13.961-27.137-27.923-27.137s-13.961,16.96-27.923,16.96-13.961,10.177-27.923,10.177H738.071c-13.961,0-13.961-3.392-27.923-3.392s-13.961,3.392-27.923,3.392-13.962-10.177-27.923-10.177-13.961,10.177-27.923,10.177-13.961-30.529-27.923-30.529-13.961,30.529-27.923,30.529H514.688c-13.961,0-13.961-6.784-27.923-6.784S472.8,134.56,458.842,134.56s-13.961,61.058-27.923,61.058-13.961-3.392-27.923-3.392-13.961,3.392-27.923,3.392-13.961-20.354-27.923-20.354-13.961,16.96-27.923,16.96-13.96-10.175-27.922-10.175-13.961,13.569-27.923,13.569-13.961-6.784-27.923-6.784-13.961,6.784-27.923,6.784-13.961-3.392-27.923-3.392-13.961-47.489-27.923-47.489-13.961,40.706-27.923,40.706H95.846c-13.961,0-13.961,10.177-27.923,10.177Z" transform="translate(-40 -46.369)" fill="#c5c5fc" stroke="rgba(0,0,0,0.7)" stroke-width="0.5"/>
            <path id="Path_5-2" data-name="Path 5" d="M40,198.43c41.884,0,41.884-10.177,55.846-10.177s13.961-6.784,27.923-6.784S137.73,123.8,151.692,123.8s13.961,67.842,27.923,67.842,13.961,3.392,27.923,3.392,13.961-3.392,27.923-3.392,13.961,6.784,27.923,6.784,13.961-27.137,27.923-27.137,13.961,6.784,27.923,6.784,13.961-3.392,27.923-3.392,13.961,23.745,27.923,23.745,13.961-3.392,27.923-3.392,13.961-3.392,27.923-3.392,13.961-91.587,27.923-91.587,13.961,91.587,27.923,91.587,13.961,6.784,27.923,6.784h55.846c13.961,0,13.961-50.881,27.923-50.881s13.961,16.96,27.923,16.96,13.961,13.569,27.923,13.569,13.961,16.96,27.923,16.96,13.961-13.569,27.923-13.569,13.961,13.569,27.923,13.569S752.035,198.43,766,198.43h27.918c13.961,0,13.961-10.177,27.923-10.177s13.961-40.706,27.923-40.706,13.961,44.1,27.923,44.1,13.961,6.784,27.923,6.784,13.961-6.784,27.923-6.784,13.961-3.392,27.923-3.392,13.961-3.392,27.923-3.392,13.961,13.569,27.923,13.569,13.961-101.763,27.923-101.763,13.961,91.587,27.923,91.587,13.961,10.177,27.923,10.177,13.961-3.392,27.923-3.392,13.961-10.177,27.923-10.177,13.961,10.177,27.923,10.177H1128.99c-13.962,0-13.962,3.392-27.923,3.392h-27.923c-13.961,0-13.961-40.706-27.923-40.706S1031.26,198.43,1017.3,198.43s-13.962-10.177-27.923-10.177H961.453c-13.961,0-13.961,6.784-27.923,6.784s-13.961,3.392-27.923,3.392H877.684c-13.961,0-13.961-37.313-27.923-37.313s-13.961,27.137-27.923,27.137-13.961,10.177-27.923,10.177H738.071c-13.961,0-13.961-6.784-27.923-6.784s-13.961,6.784-27.923,6.784-13.962-13.569-27.923-13.569-13.961,13.569-27.923,13.569-13.961-44.1-27.923-44.1-13.961,44.1-27.923,44.1H514.688c-13.961,0-13.961-6.784-27.923-6.784s-13.961-61.055-27.922-61.055-13.961,67.842-27.923,67.842-13.961-3.392-27.923-3.392-13.961,3.392-27.923,3.392-13.961-20.354-27.923-20.354-13.961,13.569-27.923,13.569-13.961-6.784-27.923-6.784-13.961,13.569-27.923,13.569-13.961-6.784-27.923-6.784-13.961,6.784-27.923,6.784-13.961-6.784-27.923-6.784-13.961-47.489-27.923-47.489-13.96,44.092-27.922,44.092H95.846c-13.961,0-13.961,10.177-27.923,10.177Z" transform="translate(-40 -49.178)" fill="#00c19c" stroke="rgba(0,0,0,0.7)" stroke-width="0.5"/>
            <path id="Path_6-2" data-name="Path 6" d="M40,202.364c41.884,0,41.884-10.177,55.846-10.177s13.961-10.177,27.923-10.177,13.961-61.058,27.923-61.058,13.961,74.626,27.923,74.626,13.961-3.392,27.923-3.392,13.961,3.392,27.923,3.392,13.961,6.784,27.923,6.784,13.961-27.137,27.923-27.137,13.961,3.392,27.923,3.392h27.923c13.961,0,13.961,23.745,27.923,23.745s13.961-3.392,27.923-3.392,13.961-6.784,27.923-6.784,13.961-94.979,27.923-94.979S472.806,188.8,486.767,188.8s13.961,13.569,27.923,13.569h27.923c13.961,0,13.961-3.392,27.923-3.392S584.5,144.7,598.459,144.7s13.961,20.354,27.923,20.354,13.961-6.784,27.923-6.784,13.961,40.706,27.923,40.706,13.961-16.96,27.923-16.96,13.961,16.96,27.923,16.96,13.961,3.392,27.923,3.392h27.918c13.961,0,13.961-13.569,27.923-13.569s13.961-54.274,27.923-54.274,13.961,61.058,27.923,61.058h27.923c13.961,0,13.961-6.784,27.923-6.784h55.846c13.961,0,13.961,13.569,27.923,13.569s13.961-149.253,27.923-149.253,13.961,139.078,27.923,139.078,13.961,3.392,27.923,3.392,13.961-3.392,27.923-3.392,13.961-13.569,27.923-13.569,13.961,20.354,27.923,20.354h0c-41.884-10.177-41.884,0-55.846,0s-13.962,3.392-27.923,3.392-13.961-10.177-27.923-10.177-13.961-91.587-27.923-91.587S1031.26,202.368,1017.3,202.368,1003.337,188.8,989.376,188.8s-13.961,3.392-27.923,3.392-13.961,3.392-27.923,3.392-13.961,6.784-27.923,6.784-13.962-6.784-27.923-6.784-13.961-44.1-27.923-44.1-13.961,40.706-27.923,40.706-13.961,10.177-27.923,10.177H765.993c-13.961,0-13.961-3.392-27.923-3.392s-13.961-13.569-27.923-13.569-13.961,13.569-27.923,13.569-13.962-16.96-27.923-16.96-13.961-13.569-27.923-13.569-13.961-16.96-27.923-16.96-13.961,50.881-27.923,50.881H514.688c-13.961,0-13.961-6.784-27.923-6.784S472.8,104,458.842,104s-13.961,91.587-27.923,91.587-13.961,3.392-27.923,3.392-13.961,3.392-27.923,3.392-13.961-23.745-27.923-23.745-13.961,3.392-27.923,3.392-13.961-6.784-27.923-6.784-13.961,27.137-27.923,27.137-13.961-6.784-27.923-6.784-13.961,3.392-27.923,3.392-13.961-3.392-27.923-3.392-13.961-67.842-27.923-67.842-13.961,57.666-27.923,57.666-13.961,6.784-27.923,6.784S81.882,202.368,67.92,202.368Z" transform="translate(-40 -53.113)" fill="#c2faef" stroke="rgba(0,0,0,0.7)" stroke-width="0.5"/>
          </g>
          <rect id="Rectangle_1" data-name="Rectangle 1" width="68" height="176" transform="translate(-68.922 0.763)" fill="#fff"/>
        </g>
        <path id="Path_2" data-name="Path 2" d="M-1.882,202.779" transform="translate(892.183 -48.358)" fill="none" stroke="#212529" stroke-width="1"/>
        <line id="Line_18" data-name="Line 18" y2="2.669" transform="translate(988.476 154.242)" fill="none" stroke="#000" stroke-width="1"/>
        <path id="Path_9" data-name="Path 9" d="M1048.67,849.677v-3.871" transform="translate(50.85 -695.112)" fill="none" stroke="#000" stroke-width="1"/>
        <text id="b" transform="translate(1096.501 8.763)" fill="#5151fc" font-size="10" font-family="HKGrotesk-Medium, HK Grotesk" font-weight="500"><tspan x="0" y="0">b</tspan></text>
      </g>
    </g>
    <text id="_1980" data-name="1980" transform="translate(107.844 397.394)" font-size="10" font-family="HKGrotesk-Regular, HK Grotesk"><tspan x="0" y="0">1980</tspan></text>
    <text id="_1984" data-name="1984" transform="translate(216.601 397.394)" font-size="10" font-family="HKGrotesk-Regular, HK Grotesk"><tspan x="0" y="0">1984</tspan></text>
    <g id="Group_22-2" data-name="Group 22" transform="translate(-0.963 224.576)">
      <text id="_0-2" data-name="0" transform="translate(7.536 158.025)" font-size="10" font-family="HKGrotesk-Regular, HK Grotesk"><tspan x="0" y="0">0</tspan></text>
      <g id="Group_21-2" data-name="Group 21">
        <line id="Line_19-2" data-name="Line 19" x1="4.036" transform="translate(17.601 122.988)" fill="none" stroke="#000" stroke-width="1"/>
        <text id="_10-2" data-name="10" transform="translate(2 124.15)" font-size="10" font-family="HKGrotesk-Regular, HK Grotesk"><tspan x="0" y="0">10</tspan></text>
        <line id="Line_20-2" data-name="Line 20" x1="4.036" transform="translate(17.601 87.849)" fill="none" stroke="#000" stroke-width="1"/>
        <text id="_20-2" data-name="20" transform="translate(2.048 89.01)" font-size="10" font-family="HKGrotesk-Regular, HK Grotesk"><tspan x="0" y="0">20</tspan></text>
        <line id="Line_21-2" data-name="Line 21" x1="4.036" transform="translate(17.601 52.709)" fill="none" stroke="#000" stroke-width="1"/>
        <text id="_30-2" data-name="30" transform="translate(2.048 53.871)" font-size="10" font-family="HKGrotesk-Regular, HK Grotesk"><tspan x="0" y="0">30</tspan></text>
        <line id="Line_22-2" data-name="Line 22" x1="4.036" transform="translate(17.601 17.57)" fill="none" stroke="#000" stroke-width="1"/>
        <text id="_40-2" data-name="40" transform="translate(2.048 18.732)" font-size="10" font-family="HKGrotesk-Regular, HK Grotesk"><tspan x="0" y="0">40</tspan></text>
        <path id="Path_15-2" data-name="Path 15" d="M-6,50.5h4.266V208.249" transform="translate(23.244 -50.5)" fill="none" stroke="#000" stroke-width="1"/>
      </g>
    </g>
    <path id="Path_148080" data-name="Path 148080" d="M3347.674-1820.623h209.609" transform="translate(-3327 2203)" fill="none" stroke="#000" stroke-width="1"/>
  </g>
</svg>
