<svg id="Layer_1" data-name="Layer 1" xmlns="http://www.w3.org/2000/svg" xmlns:xlink="http://www.w3.org/1999/xlink" width="250" height="191" viewBox="0 0 250 191">
  <defs>
    <clipPath id="clip-path">
      <rect width="250" height="191" fill="none"/>
    </clipPath>
    <clipPath id="clip-path-2">
      <rect x="19.673" y="14.357" width="231.244" height="159.69701" fill="none"/>
    </clipPath>
    <clipPath id="clip-path-3">
      <rect x="19.673" y="14.357" width="236.244" height="159.69701" fill="none"/>
    </clipPath>
  </defs>
  <g clip-path="url(#clip-path)">
    <g id="zoom-01">
      <g id="Group_24061" data-name="Group 24061">
        <g id="Group_24062" data-name="Group 24062">
          <g id="Group_23" data-name="Group 23">
            <g clip-path="url(#clip-path-2)">
              <g id="Scroll_Group_1" data-name="Scroll Group 1">
                <g clip-path="url(#clip-path-3)">
                  <g id="Scroll_Group_2" data-name="Scroll Group 2">
                    <g id="Group_20" data-name="Group 20">
                      <path id="Path_10" data-name="Path 10" d="M-438.681,174.139c43.389,0,43.389-10.542,57.852-10.542h28.926c14.463,0,14.463-42.168,28.926-42.168s14.463,49.2,28.926,49.2,14.463,3.514,28.926,3.514,14.463-7.028,28.926-7.028,14.463,7.028,28.926,7.028,14.463-14.056,28.926-14.056,14.463,10.542,28.926,10.542,14.463-17.569,28.926-17.569,14.463,21.086,28.926,21.086,14.463-3.514,28.926-3.514,14.463,3.514,28.926,3.514S-19.256,110.888-4.792,110.888s14.463,56.223,28.926,56.223,14.463,7.028,28.926,7.028h57.852c14.463,0,14.463-31.626,28.926-31.626s14.463,31.626,28.926,31.626,14.463-10.542,28.926-10.542,14.463,10.542,28.926,10.542,14.463-3.514,28.926-3.514,14.463,3.514,28.926,3.514H342.319c14.463,0,14.463-10.542,28.926-10.542s14.463-17.569,28.926-17.569,14.463,28.112,28.926,28.112h57.852c14.463,0,14.463-7.028,28.926-7.028s14.463-3.514,28.926-3.514c14.46295,0,14.46295,10.542,28.926,10.542s14.463-24.6,28.926-24.6,14.463,24.6,28.926,24.6h57.85205c14.463,0,14.463-3.514,28.926-3.514s14.463,3.514,28.926,3.514Z" fill="#5151fc"/>
                      <path id="Path_11" data-name="Path 11" d="M-438.681,174.139c43.389,0,43.389-10.542,57.852-10.542h28.926c14.463,0,14.463-45.681,28.926-45.681s14.463,49.2,28.926,49.2,14.463,7.028,28.926,7.028,14.463-7.028,28.926-7.028,14.463,7.028,28.926,7.028,14.463-14.062,28.927-14.062,14.463,7.028,28.926,7.028,14.463-14.056,28.926-14.056,14.463,21.086,28.926,21.086,14.463-3.514,28.926-3.514,14.463,3.514,28.926,3.514,14.463-70.279,28.926-70.279,14.463,63.251,28.926,63.251,14.463,7.028,28.926,7.028h57.857c14.463,0,14.463-45.681,28.926-45.681s14.463,45.681,28.926,45.681,14.455-14.058,28.92-14.058,14.463,14.056,28.926,14.056,14.463-7.028,28.926-7.028,14.463,7.028,28.926,7.028H342.319c14.463,0,14.463-10.542,28.926-10.542s14.462-28.114,28.925-28.114,14.463,38.654,28.926,38.654h28.923c14.463,0,14.463-3.514,28.926-3.514s14.463-7.028,28.926-7.028h28.926c14.463,0,14.463,10.542,28.926,10.542s14.463-42.168,28.926-42.168,14.463,42.168,28.926,42.168h28.926c14.463,0,14.463-3.514,28.926-3.514h57.852v3.514c-43.389-3.514-43.389,0-57.852,0h-57.852c-14.463,0-14.463-24.6-28.926-24.6s-14.463,24.6-28.926,24.6-14.464-10.542-28.926-10.542-14.463,3.514-28.926,3.514-14.463,7.028-28.926,7.028H429.096c-14.463,0-14.463-28.112-28.926-28.112s-14.463,17.569-28.926,17.569S356.781,174.137,342.319,174.137H284.467c-14.463,0-14.463-3.514-28.926-3.514s-14.463,3.514-28.926,3.514-14.463-10.542-28.926-10.542-14.463,10.542-28.926,10.542-14.463-31.626-28.926-31.626-14.463,31.626-28.926,31.626H53.059c-14.463,0-14.463-7.028-28.926-7.028S9.671,110.882-4.793,110.882s-14.463,63.251-28.926,63.251-14.463-3.514-28.926-3.514-14.463,3.514-28.926,3.514-14.463-21.086-28.926-21.086-14.463,17.569-28.926,17.569-14.458-10.534-28.925-10.534-14.463,14.056-28.926,14.056-14.463-7.028-28.926-7.028-14.463,7.028-28.926,7.028-14.463-3.514-28.926-3.514-14.463-49.2-28.926-49.2-14.463,42.168-28.926,42.168h-28.925c-14.463,0-14.463,10.542-28.926,10.542Z" fill="#c5c5fc"/>
                      <path id="Path_12" data-name="Path 12" d="M-438.681,174.14c43.389,0,43.389-10.542,57.852-10.542s14.463-7.028,28.926-7.028,14.463-59.737,28.926-59.737,14.463,70.279,28.926,70.279,14.463,3.514,28.926,3.514,14.463-3.514,28.926-3.514,14.463,7.028,28.926,7.028,14.463-28.112,28.926-28.112,14.466,7.027,28.927,7.027,14.463-3.514,28.926-3.514,14.463,24.6,28.926,24.6,14.463-3.514,28.926-3.514,14.463-3.514,28.926-3.514S-19.253,72.236-4.79,72.236s14.463,94.877,28.926,94.877,14.463,7.028,28.926,7.028h57.857c14.463,0,14.463-52.709,28.926-52.709s14.463,17.569,28.926,17.569,14.458,14.054,28.921,14.054,14.463,17.569,28.926,17.569,14.463-14.056,28.926-14.056,14.463,14.056,28.926,14.056,14.463,3.514,28.926,3.514H342.319c14.463,0,14.463-10.542,28.926-10.542s14.463-42.168,28.926-42.168,14.463,45.681,28.926,45.681,14.463,7.028,28.926,7.028,14.463-7.028,28.926-7.028,14.463-3.514,28.926-3.514,14.463-3.514,28.926-3.514,14.463,14.056,28.926,14.056,14.463-105.418,28.926-105.418,14.463,94.877,28.926,94.877,14.463,10.542,28.926,10.542,14.463-3.514,28.926-3.514,14.463-10.542,28.926-10.542,14.463,10.542,28.926,10.542H689.4313c-14.464,0-14.464,3.514-28.926,3.514h-28.926c-14.463,0-14.463-42.168-28.926-42.168s-14.463,42.168-28.926,42.168-14.464-10.542-28.926-10.542H515.874c-14.463,0-14.463,7.028-28.926,7.028s-14.463,3.514-28.926,3.514H429.096c-14.463,0-14.463-38.654-28.926-38.654s-14.463,28.112-28.926,28.112S356.781,174.14,342.319,174.14H284.467c-14.463,0-14.463-7.028-28.926-7.028s-14.463,7.028-28.926,7.028-14.463-14.056-28.926-14.056-14.463,14.056-28.926,14.056S154.3,128.455,139.837,128.455s-14.463,45.681-28.926,45.681H53.059c-14.463,0-14.463-7.028-28.926-7.028S9.67,103.86-4.792,103.86s-14.463,70.279-28.926,70.279-14.463-3.514-28.926-3.514-14.463,3.514-28.926,3.514-14.463-21.084-28.926-21.084-14.463,14.056-28.926,14.056-14.463-7.028-28.926-7.028-14.463,14.056-28.926,14.056-14.463-7.028-28.926-7.028-14.463,7.028-28.926,7.028-14.463-7.028-28.926-7.028-14.463-49.2-28.926-49.2-14.461,45.676-28.925,45.676h-28.926c-14.463,0-14.463,10.542-28.926,10.542Z" fill="#00c19c"/>
                      <path id="Path_13" data-name="Path 13" d="M-438.681,174.14c43.389,0,43.389-10.542,57.852-10.542s14.463-10.542,28.926-10.542,14.463-63.252,28.922-63.252,14.467,77.31,28.93,77.31,14.463-3.514,28.926-3.514,14.463,3.514,28.926,3.514,14.463,7.028,28.926,7.028,14.463-28.112,28.926-28.112,14.463,3.514,28.926,3.514h28.926c14.463,0,14.463,24.6,28.926,24.6s14.463-3.514,28.926-3.514,14.463-7.028,28.926-7.028S-19.254,65.211-4.791,65.211s14.463,94.877,28.926,94.877,14.463,14.056,28.926,14.056H81.987c14.463,0,14.463-3.514,28.926-3.514s14.463-56.223,28.926-56.223,14.463,21.086,28.926,21.086,14.463-7.028,28.926-7.028,14.463,42.168,28.926,42.168,14.463-17.569,28.926-17.569,14.463,17.569,28.926,17.569,14.463,3.514,28.926,3.514H342.319c14.463,0,14.463-14.056,28.926-14.056s14.463-56.223,28.926-56.223,14.462,63.246,28.92492,63.246h28.923c14.463,0,14.463-7.028,28.926-7.028h57.852c14.463,0,14.463,14.056,28.926,14.056s14.463-154.614,28.926-154.614,14.463,144.073,28.926,144.073,14.463,3.514,28.926,3.514,14.463-3.514,28.926-3.514,14.463-14.056,28.926-14.056,14.463,21.086,28.926,21.086h0c-43.389-10.542-43.389,0-57.852,0s-14.463,3.514-28.926,3.514-14.463-10.542-28.926-10.542-14.463-94.877-28.926-94.877-14.463,105.418-28.926,105.418-14.464-14.056-28.926-14.056-14.463,3.514-28.926,3.514-14.463,3.514-28.926,3.514-14.463,7.028-28.926,7.028-14.46-7.03-28.923-7.03-14.463-45.681-28.926-45.681-14.463,42.168-28.926,42.168S356.781,174.144,342.319,174.144H313.392c-14.463,0-14.463-3.514-28.926-3.514s-14.463-14.056-28.926-14.056-14.463,14.056-28.926,14.056-14.463-17.569-28.926-17.569-14.463-14.056-28.926-14.056-14.463-17.569-28.926-17.569-14.463,52.709-28.926,52.709H53.059c-14.463,0-14.463-7.028-28.926-7.028S9.67,72.24-4.793,72.24s-14.462,94.874-28.926,94.874-14.463,3.514-28.926,3.514-14.463,3.514-28.926,3.514-14.463-24.6-28.926-24.6-14.463,3.514-28.926,3.514-14.463-7.028-28.926-7.028-14.463,28.112-28.926,28.112-14.463-7.026-28.926-7.026-14.463,3.514-28.926,3.514-14.463-3.514-28.926-3.514-14.463-70.279-28.926-70.279-14.463,59.737-28.926,59.737-14.463,7.028-28.926,7.028-14.463,10.544-28.927,10.544Z" fill="#c2faef"/>
                    </g>
                  </g>
                </g>
              </g>
            </g>
            <path id="Path_14" data-name="Path 14" d="M249.999,174.131H19.21" fill="none" stroke="#000"/>
            <line id="Line_23" data-name="Line 23" x1="52.806" y1="174.139" x2="52.806" y2="176.904" fill="none" stroke="#000"/>
            <line id="Line_24" data-name="Line 24" x1="197.294" y1="174.139" x2="197.294" y2="176.904" fill="none" stroke="#000"/>
          </g>
        </g>
        <g id="numero_di_occorrenze" data-name="numero di occorrenze" style="isolation: isolate">
          <g style="isolation: isolate">
            <path d="M20.81689,2.03418V9h-.89941L16.60889,3.46289V9h-.83936V2.03418h.88965L19.977,7.53125V2.03418Z"/>
            <path d="M26.2876,4.07227V9H25.478V8.32031a1.86538,1.86538,0,0,1-1.58936.75977c-1.14941,0-1.64892-.7793-1.64892-1.98926V4.07227h.80957v2.8291c0,.51953.02,1.46875,1.03955,1.46875.96924,0,1.38916-.86914,1.38916-2.12891V4.07227Z"/>
            <path d="M34.56543,5.90137V9h-.80957V6.1416c0-.37988,0-1.43945-1.019-1.43945-1.04981,0-1.19971,1.06933-1.19971,2.04883V9h-.80957V6.17188c0-.71973-.21-1.46973-1.04932-1.46973-1.08935,0-1.16943,1.25-1.16943,2.04883V9h-.80957l-.00977-4.92773H28.479v.60058a1.49628,1.49628,0,0,1,1.34912-.67969,1.42987,1.42987,0,0,1,1.43946.959,1.67735,1.67735,0,0,1,1.61914-.959C34.06592,3.99316,34.56543,4.80273,34.56543,5.90137Z"/>
            <path d="M40.05664,6.77148h-3.5581a1.444,1.444,0,0,0,1.50927,1.56934A1.709,1.709,0,0,0,39.36719,7.751l.55957.48925a2.44238,2.44238,0,0,1-1.92871.83985,2.265,2.265,0,0,1-2.3086-2.51856A2.29079,2.29079,0,0,1,37.918,3.99316a2.13747,2.13747,0,0,1,2.16894,2.33789A3.75555,3.75555,0,0,1,40.05664,6.77148Zm-3.54785-.66015h2.79834a1.09582,1.09582,0,0,1-.00977-.12988,1.30305,1.30305,0,0,0-1.38916-1.3086A1.40572,1.40572,0,0,0,36.50879,6.11133Z"/>
            <path d="M44.36768,4.21289l-.39014.67969a1.63448,1.63448,0,0,0-.64942-.15039c-.72949,0-1.25927.5498-1.25927,1.5791V9h-.80957V4.07227h.80957V4.832a1.54691,1.54691,0,0,1,1.4292-.83887A1.705,1.705,0,0,1,44.36768,4.21289Z"/>
            <path d="M44.729,6.53125a2.39307,2.39307,0,1,1,4.77735,0,2.39371,2.39371,0,1,1-4.77735,0Zm3.96778,0a1.59619,1.59619,0,1,0-3.15821,0c0,1.03906.55957,1.83887,1.57911,1.83887A1.63067,1.63067,0,0,0,48.69678,6.53125Z"/>
            <path d="M57.72656,2.03418V9h-.81982V8.37988a1.93487,1.93487,0,0,1-1.5791.7002c-1.40918,0-2.15869-1.0791-2.15869-2.54883,0-1.54883.82959-2.54883,2.15869-2.54883a1.93481,1.93481,0,0,1,1.5791.71973v-2.668Zm-.73974,4.49707c0-1.0791-.54981-1.8291-1.50928-1.8291-.93945,0-1.499.72949-1.499,1.8291,0,1.06934.52978,1.81934,1.499,1.81934C56.47705,8.35059,56.98682,7.57031,56.98682,6.53125Z"/>
            <path d="M59.07861,2.03418h.90967V3.10352h-.90967Zm.06006,2.03809h.80957V9h-.80957Z"/>
            <path d="M63.81885,6.53125a2.39307,2.39307,0,1,1,4.77734,0,2.3937,2.3937,0,1,1-4.77734,0Zm3.96777,0a1.59618,1.59618,0,1,0-3.1582,0c0,1.03906.55957,1.83887,1.5791,1.83887A1.63067,1.63067,0,0,0,67.78662,6.53125Z"/>
            <path d="M69.54883,6.55176a2.32183,2.32183,0,0,1,2.2583-2.5586,2.08442,2.08442,0,0,1,2.0293,1.37891l-.77.29981a1.33125,1.33125,0,0,0-1.25928-.96973c-.999,0-1.4292.89941-1.4292,1.84961,0,.94922.43018,1.81836,1.43945,1.81836a1.25034,1.25034,0,0,0,1.21924-.959l.74951.2793a2.00592,2.00592,0,0,1-1.96875,1.38965A2.30257,2.30257,0,0,1,69.54883,6.55176Z"/>
            <path d="M74.69824,6.55176A2.3222,2.3222,0,0,1,76.957,3.99316a2.08442,2.08442,0,0,1,2.0293,1.37891l-.76953.29981A1.33226,1.33226,0,0,0,76.957,4.70215c-.999,0-1.4292.89941-1.4292,1.84961,0,.94922.43018,1.81836,1.43946,1.81836a1.25034,1.25034,0,0,0,1.21923-.959l.74952.2793a2.00593,2.00593,0,0,1-1.96875,1.38965A2.303,2.303,0,0,1,74.69824,6.55176Z"/>
            <path d="M79.83887,6.53125a2.39307,2.39307,0,1,1,4.77734,0,2.3937,2.3937,0,1,1-4.77734,0Zm3.96777,0a1.59618,1.59618,0,1,0-3.1582,0c0,1.03906.55957,1.83887,1.5791,1.83887A1.63067,1.63067,0,0,0,83.80664,6.53125Z"/>
            <path d="M88.897,4.21289l-.39013.67969a1.63452,1.63452,0,0,0-.64942-.15039c-.72949,0-1.25928.5498-1.25928,1.5791V9h-.80957V4.07227h.80957V4.832a1.54691,1.54691,0,0,1,1.4292-.83887A1.705,1.705,0,0,1,88.897,4.21289Z"/>
            <path d="M92.917,4.21289l-.39013.67969a1.63452,1.63452,0,0,0-.64942-.15039c-.72949,0-1.25928.5498-1.25928,1.5791V9h-.80957V4.07227h.80957V4.832a1.54691,1.54691,0,0,1,1.4292-.83887A1.705,1.705,0,0,1,92.917,4.21289Z"/>
            <path d="M97.65576,6.77148h-3.5581a1.444,1.444,0,0,0,1.50927,1.56934A1.709,1.709,0,0,0,96.96631,7.751l.55957.48925a2.44236,2.44236,0,0,1-1.92871.83985,2.26533,2.26533,0,0,1-2.30908-2.51856,2.29115,2.29115,0,0,1,2.229-2.56836,2.13748,2.13748,0,0,1,2.169,2.33789A3.75576,3.75576,0,0,1,97.65576,6.77148Zm-3.54785-.66015h2.79834a1.09582,1.09582,0,0,1-.00977-.12988,1.303,1.303,0,0,0-1.38916-1.3086A1.40572,1.40572,0,0,0,94.10791,6.11133Z"/>
            <path d="M102.90625,5.94141V9h-.80957V6.17188c0-.85938-.23-1.46973-1.03955-1.46973-.92969,0-1.38916.81933-1.38916,2.0791V9H98.8584V4.07227H99.668V4.7627a1.86414,1.86414,0,0,1,1.59912-.76954C102.33643,3.99316,102.90625,4.67285,102.90625,5.94141Z"/>
            <path d="M108.03613,4.69238l-3.04834,3.61817h3.02832V9h-4.09765V8.43066l3.11816-3.668h-2.9585V4.07227h3.958Z"/>
            <path d="M113.15576,6.77148h-3.5581a1.444,1.444,0,0,0,1.50927,1.56934,1.709,1.709,0,0,0,1.35938-.58984l.55957.48925a2.44236,2.44236,0,0,1-1.92871.83985,2.26533,2.26533,0,0,1-2.30908-2.51856,2.29115,2.29115,0,0,1,2.229-2.56836,2.13748,2.13748,0,0,1,2.169,2.33789A3.75576,3.75576,0,0,1,113.15576,6.77148Zm-3.54785-.66015h2.79834a1.09582,1.09582,0,0,1-.00977-.12988,1.303,1.303,0,0,0-1.38916-1.3086A1.40572,1.40572,0,0,0,109.60791,6.11133Z"/>
          </g>
        </g>
      </g>
      <g id="_1960" data-name=" 1960" style="isolation: isolate">
        <g style="isolation: isolate">
          <path d="M46.0835,182.2666v6.96582h-.81934v-5.09765h-1.709V183.376H44.6543c.33984,0,.60986-.10059.60986-.55957v-.54981Z"/>
          <path d="M53.47314,184.51465a2.49628,2.49628,0,0,1-.35986,1.25976l-2.09912,3.458h-.91943l1.5791-2.53906a2.30039,2.30039,0,0,1-3.01807-2.168,2.40991,2.40991,0,0,1,4.81738-.01074Zm-.81982.01074A1.58941,1.58941,0,1,0,51.0542,186.084,1.57816,1.57816,0,0,0,52.65332,184.52539Z"/>
          <path d="M59.47314,186.97363a2.40989,2.40989,0,0,1-4.81738.00977,2.488,2.488,0,0,1,.35986-1.25879l2.09864-3.458h.91943l-1.5791,2.53809a2.30272,2.30272,0,0,1,3.01855,2.16894Zm-.81982,0a1.58923,1.58923,0,1,0-1.5791,1.56934A1.566,1.566,0,0,0,58.65332,186.97363Z"/>
          <path d="M60.8252,185.74414c0-1.58887.31982-3.57812,2.21875-3.57812,1.749,0,2.25878,1.76953,2.25878,3.58789,0,1.83984-.50976,3.57812-2.19873,3.57812C61.165,189.332,60.8252,187.35352,60.8252,185.74414Zm3.61767.00977c0-1.54883-.27978-2.80762-1.39892-2.80762-1.16944,0-1.38916,1.34863-1.38916,2.80762,0,1.41992.21972,2.79882,1.42919,2.79882C64.17334,188.55273,64.44287,187.26367,64.44287,185.75391Z"/>
        </g>
      </g>
      <g id="_1965" data-name=" 1965" style="isolation: isolate">
        <g style="isolation: isolate">
          <path d="M190.71289,182.2666v6.96582h-.81934v-5.09765h-1.709V183.376h1.09863c.33985,0,.61035-.10059.61035-.55957v-.54981Z"/>
          <path d="M198.10254,184.51465a2.49682,2.49682,0,0,1-.36035,1.25976l-2.09864,3.458h-.91992l1.5791-2.53906a2.30007,2.30007,0,0,1-3.01757-2.168,2.40991,2.40991,0,0,1,4.81738-.01074Zm-.82031.01074a1.58916,1.58916,0,1,0-1.59864,1.55859A1.57775,1.57775,0,0,0,197.28223,184.52539Z"/>
          <path d="M204.10254,186.97363a2.40989,2.40989,0,0,1-4.81738.00977,2.49231,2.49231,0,0,1,.35937-1.25879l2.09863-3.458h.91993l-1.57911,2.53809a2.30287,2.30287,0,0,1,3.01856,2.16894Zm-.82031,0a1.589,1.589,0,1,0-1.57911,1.56934A1.5657,1.5657,0,0,0,203.28223,186.97363Z"/>
          <path d="M210.10156,186.85352a2.44162,2.44162,0,0,1-2.44824,2.459,2.405,2.405,0,0,1-2.40918-2.0293l.79981-.12988a1.60758,1.60758,0,0,0,3.19824-.2998,1.4701,1.4701,0,0,0-1.5293-1.5586,1.69972,1.69972,0,0,0-1.44922.79883l-.7998-.21.63965-3.61719h3.668v.7793h-2.998l-.37012,2.01855a2.13222,2.13222,0,0,1,1.40918-.51953A2.26105,2.26105,0,0,1,210.10156,186.85352Z"/>
        </g>
      </g>
      <g id="Group_22" data-name="Group 22">
        <g id="_0" data-name=" 0" style="isolation: isolate">
          <g style="isolation: isolate">
            <path d="M6.333,171.1123c0-1.58886.31982-3.57812,2.21875-3.57812,1.749,0,2.25879,1.76953,2.25879,3.58789,0,1.83984-.50977,3.57813-2.19922,3.57813C6.67285,174.7002,6.333,172.72168,6.333,171.1123Zm3.61767.00977c0-1.54883-.27978-2.80762-1.39892-2.80762-1.16944,0-1.38916,1.34864-1.38916,2.80762,0,1.41992.21972,2.79883,1.4292,2.79883C9.68115,173.9209,9.95068,172.63184,9.95068,171.12207Z"/>
          </g>
        </g>
        <g id="Group_21" data-name="Group 21">
          <line id="Line_19" data-name="Line 19" x1="19.674" y1="139.564" x2="15.638" y2="139.564" fill="none" stroke="#000"/>
          <g id="_10" data-name=" 10" style="isolation: isolate">
            <g style="isolation: isolate">
              <path d="M4.05469,133.75977v6.96582H3.23535v-5.09766h-1.709v-.75879H2.62549c.33984,0,.60986-.10059.60986-.55957v-.5498Z"/>
              <path d="M6.79688,137.2373c0-1.58886.31982-3.57812,2.21874-3.57812,1.749,0,2.25879,1.76953,2.25879,3.58789,0,1.83984-.50976,3.57813-2.19921,3.57813C7.13672,140.8252,6.79688,138.84668,6.79688,137.2373Zm3.61767.00977c0-1.54883-.27978-2.80762-1.39893-2.80762-1.16943,0-1.38916,1.34864-1.38916,2.80762,0,1.41992.21973,2.79883,1.4292,2.79883C10.145,140.0459,10.41455,138.75684,10.41455,137.24707Z"/>
            </g>
          </g>
          <line id="Line_20" data-name="Line 20" x1="19.674" y1="104.425" x2="15.638" y2="104.425" fill="none" stroke="#000"/>
          <g id="_20" data-name=" 20" style="isolation: isolate">
            <g style="isolation: isolate">
              <path d="M5.51221,104.81641v.76953H.6748v-.71973c1.52881-.959,3.69776-2.4082,3.69776-4.208a1.21921,1.21921,0,0,0-1.29932-1.3584c-1.02929,0-1.44922.79883-1.459,1.71875L.81445,100.958A2.23326,2.23326,0,0,1,3.0835,98.51953a1.98637,1.98637,0,0,1,2.10888,2.13867c0,1.68946-1.47949,3.11914-3.18847,4.15821Z"/>
              <path d="M6.84473,102.09766c0-1.58887.31982-3.57813,2.21875-3.57813,1.749,0,2.25879,1.76953,2.25879,3.58789,0,1.83985-.50977,3.57813-2.19922,3.57813C7.18457,105.68555,6.84473,103.707,6.84473,102.09766Zm3.61767.00976c0-1.54883-.27978-2.80762-1.39892-2.80762-1.16944,0-1.38916,1.34864-1.38916,2.80762,0,1.41992.21972,2.79883,1.4292,2.79883C10.19287,104.90625,10.4624,103.61719,10.4624,102.10742Z"/>
            </g>
          </g>
          <line id="Line_21" data-name="Line 21" x1="19.674" y1="69.285" x2="15.638" y2="69.285" fill="none" stroke="#000"/>
          <g id="_30" data-name=" 30" style="isolation: isolate">
            <g style="isolation: isolate">
              <path d="M.57471,68.33838,1.374,68.2876a1.48985,1.48985,0,0,0,1.68946,1.47949c.9292,0,1.64892-.47949,1.64892-1.38965,0-1.1289-1.12939-1.25879-1.98877-1.25879v-.66992c.98926,0,1.61914-.36914,1.61914-1.15918A1.11192,1.11192,0,0,0,3.0835,64.16064a1.24,1.24,0,0,0-1.3794,1.25879l-.78955-.05957a1.97369,1.97369,0,0,1,2.14893-1.97949,1.89206,1.89206,0,0,1,2.09863,1.80957A1.57029,1.57029,0,0,1,4.1626,66.7085,1.68671,1.68671,0,0,1,5.53174,68.438a2.20525,2.20525,0,0,1-2.47852,2.1084A2.21744,2.21744,0,0,1,.57471,68.33838Z"/>
              <path d="M6.84473,66.9585c0-1.58887.31982-3.57813,2.21875-3.57813,1.749,0,2.25879,1.76953,2.25879,3.58789,0,1.83985-.50977,3.57813-2.19922,3.57813C7.18457,70.54639,6.84473,68.56787,6.84473,66.9585Zm3.61767.00976c0-1.54883-.27978-2.80762-1.39892-2.80762-1.16944,0-1.38916,1.34864-1.38916,2.80762,0,1.41992.21972,2.79883,1.4292,2.79883C10.19287,69.76709,10.4624,68.478,10.4624,66.96826Z"/>
            </g>
          </g>
          <line id="Line_22" data-name="Line 22" x1="19.674" y1="34.146" x2="15.638" y2="34.146" fill="none" stroke="#000"/>
          <g id="_40" data-name=" 40" style="isolation: isolate">
            <g style="isolation: isolate">
              <path d="M5.76172,32.87939v.76954H4.64258v1.65918H3.833V33.64893H.395v-.50977l3.50781-4.79687h.73975v4.5371Zm-1.92871,0V29.5415L1.44434,32.87939Z"/>
              <path d="M6.84473,31.81982c0-1.58886.31982-3.57812,2.21875-3.57812,1.749,0,2.25879,1.76953,2.25879,3.58789,0,1.83984-.50977,3.57812-2.19922,3.57812C7.18457,35.40771,6.84473,33.4292,6.84473,31.81982Zm3.61767.00977c0-1.54883-.27978-2.80762-1.39892-2.80762-1.16944,0-1.38916,1.34864-1.38916,2.80762,0,1.41992.21972,2.79883,1.4292,2.79883C10.19287,34.62842,10.4624,33.33936,10.4624,31.82959Z"/>
            </g>
          </g>
          <path id="Path_15" data-name="Path 15" d="M15.281,16.576h4.266V174.325" fill="none" stroke="#000"/>
        </g>
      </g>
    </g>
  </g>
</svg>
